<?xml version="1.0" encoding="UTF-8" standalone="no"?>
<!DOCTYPE svg PUBLIC "-//W3C//DTD SVG 1.1//EN"
 "http://www.w3.org/Graphics/SVG/1.1/DTD/svg11.dtd">
<!-- Generated by graphviz version 2.43.0 (0)
 -->
<!-- Title: textual_flow_diagram Pages: 1 -->
<svg width="452pt" height="438pt"
 viewBox="0.00 0.00 452.00 438.00" xmlns="http://www.w3.org/2000/svg" xmlns:xlink="http://www.w3.org/1999/xlink">
<g id="graph0" class="graph" transform="scale(1 1) rotate(0) translate(4 434)">
<title>textual_flow_diagram</title>
<polygon fill="white" stroke="transparent" points="-4,4 -4,-434 448,-434 448,4 -4,4"/>
<g id="clust1" class="cluster">
<title>cluster_legend</title>
<polygon fill="none" stroke="black" points="8,-368 8,-422 200,-422 200,-368 8,-368"/>
</g>
<g id="clust2" class="cluster">
<title>cluster_plot</title>
</g>
<!-- label -->
<g id="node1" class="node">
<title>label</title>
<text text-anchor="middle" x="104" y="-398.8" font-family="Times,serif" font-size="14.00">adstag1.2.40U48&#45;50, i</text>
<text text-anchor="middle" x="104" y="-383.8" font-family="Times,serif" font-size="14.00">Con = 1</text>
</g>
<!-- 6 -->
<g id="node2" class="node">
<title>6</title>
<ellipse fill="none" stroke="black" cx="322" cy="-106" rx="44.39" ry="18"/>
<text text-anchor="middle" x="322" y="-102.3" font-family="Times,serif" font-size="14.00">Taur (i)</text>
</g>
<!-- 8 -->
<g id="node3" class="node">
<title>8</title>
<ellipse fill="none" stroke="black" cx="263" cy="-34" rx="47.39" ry="18"/>
<text text-anchor="middle" x="263" y="-30.3" font-family="Times,serif" font-size="14.00">Marc (i)</text>
</g>
<!-- 6&#45;&gt;8 -->
<g id="edge2" class="edge">
<title>6&#45;&gt;8</title>
<path fill="none" stroke="black" stroke-dasharray="1,5" d="M308.32,-88.76C300.98,-80.06 291.78,-69.15 283.6,-59.43"/>
<polygon fill="black" stroke="black" points="286.14,-57.02 277.02,-51.63 280.79,-61.54 286.14,-57.02"/>
</g>
<!-- 10 -->
<g id="node4" class="node">
<title>10</title>
<ellipse fill="none" stroke="black" cx="378" cy="-34" rx="50.09" ry="18"/>
<text text-anchor="middle" x="378" y="-30.3" font-family="Times,serif" font-size="14.00">M118 (i)</text>
</g>
<!-- 6&#45;&gt;10 -->
<g id="edge3" class="edge">
<title>6&#45;&gt;10</title>
<path fill="none" stroke="black" stroke-dasharray="5,2" d="M334.99,-88.76C341.89,-80.14 350.51,-69.36 358.22,-59.73"/>
<polygon fill="black" stroke="black" points="361.18,-61.63 364.69,-51.63 355.71,-57.26 361.18,-61.63"/>
</g>
<!-- 17 -->
<g id="node5" class="node">
<title>17</title>
<ellipse fill="none" stroke="black" cx="322" cy="-322" rx="48.19" ry="18"/>
<text text-anchor="middle" x="322" y="-318.3" font-family="Times,serif" font-size="14.00">Neap (i)</text>
</g>
<!-- 23 -->
<g id="node6" class="node">
<title>23</title>
<ellipse fill="none" stroke="black" cx="322" cy="-250" rx="53.09" ry="18"/>
<text text-anchor="middle" x="322" y="-246.3" font-family="Times,serif" font-size="14.00">V1629 (i)</text>
</g>
<!-- 17&#45;&gt;23 -->
<g id="edge5" class="edge">
<title>17&#45;&gt;23</title>
<path fill="none" stroke="black" stroke-dasharray="1,5" d="M322,-303.7C322,-295.98 322,-286.71 322,-278.11"/>
<polygon fill="black" stroke="black" points="325.5,-278.1 322,-268.1 318.5,-278.1 325.5,-278.1"/>
</g>
<!-- 33 -->
<g id="node7" class="node">
<title>33</title>
<ellipse fill="none" stroke="black" cx="322" cy="-178" rx="47.39" ry="18"/>
<text text-anchor="middle" x="322" y="-174.3" font-family="Times,serif" font-size="14.00">V568 (i)</text>
</g>
<!-- 23&#45;&gt;33 -->
<g id="edge6" class="edge">
<title>23&#45;&gt;33</title>
<path fill="none" stroke="black" stroke-dasharray="5,2" d="M322,-231.7C322,-223.98 322,-214.71 322,-206.11"/>
<polygon fill="black" stroke="black" points="325.5,-206.1 322,-196.1 318.5,-206.1 325.5,-206.1"/>
</g>
<!-- 33&#45;&gt;6 -->
<g id="edge1" class="edge">
<title>33&#45;&gt;6</title>
<path fill="none" stroke="black" stroke-dasharray="1,5" d="M322,-159.7C322,-151.98 322,-142.71 322,-134.11"/>
<polygon fill="black" stroke="black" points="325.5,-134.1 322,-124.1 318.5,-134.1 325.5,-134.1"/>
</g>
<!-- 11 -->
<g id="node8" class="node">
<title>11</title>
<ellipse fill="none" stroke="blue" stroke-dasharray="5,2" cx="322" cy="-395" rx="53.89" ry="18"/>
<text text-anchor="middle" x="322" y="-391.3" font-family="Times,serif" font-size="14.00">aBase (a)</text>
</g>
<!-- 11&#45;&gt;17 -->
<g id="edge4" class="edge">
<title>11&#45;&gt;17</title>
<path fill="none" stroke="blue" stroke-width="2" d="M322,-376.81C322,-368.79 322,-359.05 322,-350.07"/>
<polygon fill="blue" stroke="blue" stroke-width="2" points="325.5,-350.03 322,-340.03 318.5,-350.03 325.5,-350.03"/>
</g>
</g>
</svg>
