<?xml version="1.0" encoding="UTF-8" standalone="no"?>
<!DOCTYPE svg PUBLIC "-//W3C//DTD SVG 1.1//EN"
 "http://www.w3.org/Graphics/SVG/1.1/DTD/svg11.dtd">
<!-- Generated by graphviz version 2.43.0 (0)
 -->
<!-- Title: textual_flow_diagram Pages: 1 -->
<svg width="460pt" height="222pt"
 viewBox="0.00 0.00 460.00 222.00" xmlns="http://www.w3.org/2000/svg" xmlns:xlink="http://www.w3.org/1999/xlink">
<g id="graph0" class="graph" transform="scale(1 1) rotate(0) translate(4 218)">
<title>textual_flow_diagram</title>
<polygon fill="white" stroke="transparent" points="-4,4 -4,-218 456,-218 456,4 -4,4"/>
<g id="clust1" class="cluster">
<title>cluster_legend</title>
<polygon fill="none" stroke="black" points="8,-152 8,-206 182,-206 182,-152 8,-152"/>
</g>
<g id="clust2" class="cluster">
<title>cluster_plot</title>
</g>
<!-- label -->
<g id="node1" class="node">
<title>label</title>
<text text-anchor="middle" x="95" y="-182.8" font-family="Times,serif" font-size="14.00">adstag1.2.40U90, b</text>
<text text-anchor="middle" x="95" y="-167.8" font-family="Times,serif" font-size="14.00">Con = 3</text>
</g>
<!-- 2 -->
<g id="node2" class="node">
<title>2</title>
<ellipse fill="none" stroke="black" cx="381" cy="-106" rx="50.09" ry="18"/>
<text text-anchor="middle" x="381" y="-102.3" font-family="Times,serif" font-size="14.00">V560 (b)</text>
</g>
<!-- 12 -->
<g id="node3" class="node">
<title>12</title>
<ellipse fill="none" stroke="black" cx="380" cy="-34" rx="55.79" ry="18"/>
<text text-anchor="middle" x="380" y="-30.3" font-family="Times,serif" font-size="14.00">V1920 (b)</text>
</g>
<!-- 2&#45;&gt;12 -->
<g id="edge2" class="edge">
<title>2&#45;&gt;12</title>
<path fill="none" stroke="black" stroke-dasharray="5,2" d="M380.75,-87.7C380.64,-79.98 380.51,-70.71 380.39,-62.11"/>
<polygon fill="black" stroke="black" points="383.89,-62.05 380.24,-52.1 376.89,-62.15 383.89,-62.05"/>
</g>
<!-- 40 -->
<g id="node4" class="node">
<title>40</title>
<ellipse fill="none" stroke="black" cx="254" cy="-106" rx="50.09" ry="18"/>
<text text-anchor="middle" x="254" y="-102.3" font-family="Times,serif" font-size="14.00">V536 (b)</text>
</g>
<!-- 11 -->
<g id="node5" class="node">
<title>11</title>
<ellipse fill="none" stroke="blue" stroke-dasharray="5,2" cx="382" cy="-179" rx="53.89" ry="18"/>
<text text-anchor="middle" x="382" y="-175.3" font-family="Times,serif" font-size="14.00">aBase (a)</text>
</g>
<!-- 11&#45;&gt;2 -->
<g id="edge1" class="edge">
<title>11&#45;&gt;2</title>
<path fill="none" stroke="blue" stroke-width="2" d="M381.76,-160.81C381.64,-152.79 381.51,-143.05 381.38,-134.07"/>
<polygon fill="blue" stroke="blue" stroke-width="2" points="384.88,-133.98 381.24,-124.03 377.88,-134.08 384.88,-133.98"/>
</g>
<!-- 23 -->
<g id="node6" class="node">
<title>23</title>
<ellipse fill="none" stroke="blue" stroke-dasharray="5,2" cx="254" cy="-179" rx="55.79" ry="18"/>
<text text-anchor="middle" x="254" y="-175.3" font-family="Times,serif" font-size="14.00">V1629 (a)</text>
</g>
<!-- 23&#45;&gt;40 -->
<g id="edge3" class="edge">
<title>23&#45;&gt;40</title>
<path fill="none" stroke="blue" stroke-dasharray="5,2" d="M254,-160.81C254,-152.79 254,-143.05 254,-134.07"/>
<polygon fill="blue" stroke="blue" points="257.5,-134.03 254,-124.03 250.5,-134.03 257.5,-134.03"/>
</g>
</g>
</svg>
