<?xml version="1.0" encoding="UTF-8" standalone="no"?>
<!DOCTYPE svg PUBLIC "-//W3C//DTD SVG 1.1//EN"
 "http://www.w3.org/Graphics/SVG/1.1/DTD/svg11.dtd">
<!-- Generated by graphviz version 2.43.0 (0)
 -->
<!-- Title: textual_flow_diagram Pages: 1 -->
<svg width="422pt" height="150pt"
 viewBox="0.00 0.00 422.00 150.00" xmlns="http://www.w3.org/2000/svg" xmlns:xlink="http://www.w3.org/1999/xlink">
<g id="graph0" class="graph" transform="scale(1 1) rotate(0) translate(4 146)">
<title>textual_flow_diagram</title>
<polygon fill="white" stroke="transparent" points="-4,4 -4,-146 418,-146 418,4 -4,4"/>
<g id="clust1" class="cluster">
<title>cluster_legend</title>
<polygon fill="none" stroke="black" points="8,-80 8,-134 178,-134 178,-80 8,-80"/>
</g>
<g id="clust2" class="cluster">
<title>cluster_plot</title>
</g>
<!-- label -->
<g id="node1" class="node">
<title>label</title>
<text text-anchor="middle" x="93" y="-110.8" font-family="Times,serif" font-size="14.00">adstag1.3.59U74, f</text>
<text text-anchor="middle" x="93" y="-95.8" font-family="Times,serif" font-size="14.00">Con = 5</text>
</g>
<!-- 17 -->
<g id="node2" class="node">
<title>17</title>
<ellipse fill="none" stroke="black" cx="236" cy="-34" rx="42.49" ry="18"/>
<text text-anchor="middle" x="236" y="-30.3" font-family="Times,serif" font-size="14.00">P01 (f)</text>
</g>
<!-- 37 -->
<g id="node3" class="node">
<title>37</title>
<ellipse fill="none" stroke="black" cx="347" cy="-34" rx="50.89" ry="18"/>
<text text-anchor="middle" x="347" y="-30.3" font-family="Times,serif" font-size="14.00">M111 (f)</text>
</g>
<!-- 5 -->
<g id="node4" class="node">
<title>5</title>
<ellipse fill="none" stroke="blue" stroke-dasharray="5,2" cx="349" cy="-107" rx="48.99" ry="18"/>
<text text-anchor="middle" x="349" y="-103.3" font-family="Times,serif" font-size="14.00">La22 (a)</text>
</g>
<!-- 5&#45;&gt;37 -->
<g id="edge2" class="edge">
<title>5&#45;&gt;37</title>
<path fill="none" stroke="blue" stroke-dasharray="1,5" d="M348.52,-88.81C348.29,-80.79 348.02,-71.05 347.76,-62.07"/>
<polygon fill="blue" stroke="blue" points="351.26,-61.93 347.48,-52.03 344.26,-62.12 351.26,-61.93"/>
</g>
<!-- 33 -->
<g id="node5" class="node">
<title>33</title>
<ellipse fill="none" stroke="blue" stroke-dasharray="5,2" cx="238" cy="-107" rx="44.39" ry="18"/>
<text text-anchor="middle" x="238" y="-103.3" font-family="Times,serif" font-size="14.00">A25 (a)</text>
</g>
<!-- 33&#45;&gt;17 -->
<g id="edge1" class="edge">
<title>33&#45;&gt;17</title>
<path fill="none" stroke="blue" stroke-dasharray="5,2" d="M237.52,-88.81C237.29,-80.79 237.02,-71.05 236.76,-62.07"/>
<polygon fill="blue" stroke="blue" points="240.26,-61.93 236.48,-52.03 233.26,-62.12 240.26,-61.93"/>
</g>
</g>
</svg>
