<?xml version="1.0" encoding="UTF-8" standalone="no"?>
<!DOCTYPE svg PUBLIC "-//W3C//DTD SVG 1.1//EN"
 "http://www.w3.org/Graphics/SVG/1.1/DTD/svg11.dtd">
<!-- Generated by graphviz version 2.43.0 (0)
 -->
<!-- Title: textual_flow_diagram Pages: 1 -->
<svg width="468pt" height="294pt"
 viewBox="0.00 0.00 468.00 294.00" xmlns="http://www.w3.org/2000/svg" xmlns:xlink="http://www.w3.org/1999/xlink">
<g id="graph0" class="graph" transform="scale(1 1) rotate(0) translate(4 290)">
<title>textual_flow_diagram</title>
<polygon fill="white" stroke="transparent" points="-4,4 -4,-290 464,-290 464,4 -4,4"/>
<g id="clust1" class="cluster">
<title>cluster_legend</title>
<polygon fill="none" stroke="black" points="8,-224 8,-278 204,-278 204,-224 8,-224"/>
</g>
<g id="clust2" class="cluster">
<title>cluster_plot</title>
</g>
<!-- label -->
<g id="node1" class="node">
<title>label</title>
<text text-anchor="middle" x="106" y="-254.8" font-family="Times,serif" font-size="14.00">adstag1.2.40U48&#45;50, h</text>
<text text-anchor="middle" x="106" y="-239.8" font-family="Times,serif" font-size="14.00">Con = 1</text>
</g>
<!-- 9 -->
<g id="node2" class="node">
<title>9</title>
<ellipse fill="none" stroke="black" cx="273" cy="-178" rx="53.09" ry="18"/>
<text text-anchor="middle" x="273" y="-174.3" font-family="Times,serif" font-size="14.00">LaSM (h)</text>
</g>
<!-- 15 -->
<g id="node3" class="node">
<title>15</title>
<ellipse fill="none" stroke="black" cx="394" cy="-178" rx="50.09" ry="18"/>
<text text-anchor="middle" x="394" y="-174.3" font-family="Times,serif" font-size="14.00">V566 (h)</text>
</g>
<!-- 33 -->
<g id="node4" class="node">
<title>33</title>
<ellipse fill="none" stroke="black" cx="383" cy="-106" rx="55.79" ry="18"/>
<text text-anchor="middle" x="383" y="-102.3" font-family="Times,serif" font-size="14.00">V1639 (h)</text>
</g>
<!-- 15&#45;&gt;33 -->
<g id="edge3" class="edge">
<title>15&#45;&gt;33</title>
<path fill="none" stroke="black" stroke-dasharray="1,5" d="M391.28,-159.7C390.07,-151.98 388.61,-142.71 387.26,-134.11"/>
<polygon fill="black" stroke="black" points="390.7,-133.44 385.69,-124.1 383.78,-134.53 390.7,-133.44"/>
</g>
<!-- 34 -->
<g id="node5" class="node">
<title>34</title>
<ellipse fill="none" stroke="black" cx="378" cy="-34" rx="65.79" ry="18"/>
<text text-anchor="middle" x="378" y="-30.3" font-family="Times,serif" font-size="14.00">Savile&#45;Η (h)</text>
</g>
<!-- 33&#45;&gt;34 -->
<g id="edge4" class="edge">
<title>33&#45;&gt;34</title>
<path fill="none" stroke="black" d="M381.76,-87.7C381.21,-79.98 380.55,-70.71 379.94,-62.11"/>
<polygon fill="black" stroke="black" points="383.43,-61.83 379.22,-52.1 376.44,-62.33 383.43,-61.83"/>
</g>
<!-- 25 -->
<g id="node6" class="node">
<title>25</title>
<ellipse fill="none" stroke="blue" stroke-dasharray="5,2" cx="394" cy="-251" rx="44.39" ry="18"/>
<text text-anchor="middle" x="394" y="-247.3" font-family="Times,serif" font-size="14.00">A25 (d)</text>
</g>
<!-- 25&#45;&gt;15 -->
<g id="edge2" class="edge">
<title>25&#45;&gt;15</title>
<path fill="none" stroke="blue" stroke-dasharray="5,2" d="M394,-232.81C394,-224.79 394,-215.05 394,-206.07"/>
<polygon fill="blue" stroke="blue" points="397.5,-206.03 394,-196.03 390.5,-206.03 397.5,-206.03"/>
</g>
<!-- 28 -->
<g id="node7" class="node">
<title>28</title>
<ellipse fill="none" stroke="blue" stroke-dasharray="5,2" cx="274" cy="-251" rx="53.89" ry="18"/>
<text text-anchor="middle" x="274" y="-247.3" font-family="Times,serif" font-size="14.00">aBase (a)</text>
</g>
<!-- 28&#45;&gt;9 -->
<g id="edge1" class="edge">
<title>28&#45;&gt;9</title>
<path fill="none" stroke="blue" d="M273.76,-232.81C273.64,-224.79 273.51,-215.05 273.38,-206.07"/>
<polygon fill="blue" stroke="blue" points="276.88,-205.98 273.24,-196.03 269.88,-206.08 276.88,-205.98"/>
</g>
</g>
</svg>
