<?xml version="1.0" encoding="UTF-8" standalone="no"?>
<!DOCTYPE svg PUBLIC "-//W3C//DTD SVG 1.1//EN"
 "http://www.w3.org/Graphics/SVG/1.1/DTD/svg11.dtd">
<!-- Generated by graphviz version 2.43.0 (0)
 -->
<!-- Title: textual_flow_diagram Pages: 1 -->
<svg width="1180pt" height="307pt"
 viewBox="0.00 0.00 1180.00 307.00" xmlns="http://www.w3.org/2000/svg" xmlns:xlink="http://www.w3.org/1999/xlink">
<g id="graph0" class="graph" transform="scale(1 1) rotate(0) translate(4 303)">
<title>textual_flow_diagram</title>
<polygon fill="white" stroke="transparent" points="-4,4 -4,-303 1176,-303 1176,4 -4,4"/>
<g id="clust1" class="cluster">
<title>cluster_legend</title>
<polygon fill="none" stroke="black" points="8,-237 8,-291 204,-291 204,-237 8,-237"/>
</g>
<g id="clust2" class="cluster">
<title>cluster_plot</title>
</g>
<!-- label -->
<g id="node1" class="node">
<title>label</title>
<text text-anchor="middle" x="106" y="-267.8" font-family="Times,serif" font-size="14.00">adstag1.1.12U18&#45;20, a</text>
<text text-anchor="middle" x="106" y="-252.8" font-family="Times,serif" font-size="14.00">Con = 5</text>
</g>
<!-- 0 -->
<g id="node2" class="node">
<title>0</title>
<ellipse fill="none" stroke="black" cx="535" cy="-180" rx="44.39" ry="18"/>
<text text-anchor="middle" x="535" y="-176.3" font-family="Times,serif" font-size="14.00">A25 (a)</text>
</g>
<!-- 15 -->
<g id="node8" class="node">
<title>15</title>
<ellipse fill="none" stroke="black" cx="302" cy="-107" rx="40.09" ry="18"/>
<text text-anchor="middle" x="302" y="-103.3" font-family="Times,serif" font-size="14.00">Pal (a)</text>
</g>
<!-- 0&#45;&gt;15 -->
<g id="edge6" class="edge">
<title>0&#45;&gt;15</title>
<path fill="none" stroke="black" stroke-dasharray="5,2" d="M499.57,-169.15C462.41,-158.7 402.37,-141.44 351,-125 348.09,-124.07 345.1,-123.09 342.08,-122.08"/>
<polygon fill="black" stroke="black" points="343.1,-118.73 332.51,-118.84 340.85,-125.36 343.1,-118.73"/>
</g>
<!-- 19 -->
<g id="node10" class="node">
<title>19</title>
<ellipse fill="none" stroke="black" cx="410" cy="-107" rx="50.09" ry="18"/>
<text text-anchor="middle" x="410" y="-103.3" font-family="Times,serif" font-size="14.00">V566 (a)</text>
</g>
<!-- 0&#45;&gt;19 -->
<g id="edge8" class="edge">
<title>0&#45;&gt;19</title>
<path fill="none" stroke="black" stroke-dasharray="5,2" d="M510.3,-164.97C491.59,-154.34 465.62,-139.59 444.8,-127.77"/>
<polygon fill="black" stroke="black" points="446.36,-124.63 435.94,-122.73 442.9,-130.71 446.36,-124.63"/>
</g>
<!-- 22 -->
<g id="node12" class="node">
<title>22</title>
<ellipse fill="none" stroke="black" cx="522" cy="-107" rx="44.39" ry="18"/>
<text text-anchor="middle" x="522" y="-103.3" font-family="Times,serif" font-size="14.00">S32 (a)</text>
</g>
<!-- 0&#45;&gt;22 -->
<g id="edge10" class="edge">
<title>0&#45;&gt;22</title>
<path fill="none" stroke="black" stroke-dasharray="5,2" d="M531.85,-161.81C530.38,-153.79 528.6,-144.05 526.96,-135.07"/>
<polygon fill="black" stroke="black" points="530.36,-134.23 525.12,-125.03 523.48,-135.5 530.36,-134.23"/>
</g>
<!-- 27 -->
<g id="node15" class="node">
<title>27</title>
<ellipse fill="none" stroke="black" cx="633" cy="-107" rx="48.99" ry="18"/>
<text text-anchor="middle" x="633" y="-103.3" font-family="Times,serif" font-size="14.00">La22 (a)</text>
</g>
<!-- 0&#45;&gt;27 -->
<g id="edge13" class="edge">
<title>0&#45;&gt;27</title>
<path fill="none" stroke="black" stroke-dasharray="1,5" d="M555.78,-163.94C569.72,-153.85 588.28,-140.4 603.71,-129.22"/>
<polygon fill="black" stroke="black" points="605.86,-131.98 611.91,-123.28 601.76,-126.31 605.86,-131.98"/>
</g>
<!-- 34 -->
<g id="node18" class="node">
<title>34</title>
<ellipse fill="none" stroke="black" cx="750" cy="-107" rx="50.09" ry="18"/>
<text text-anchor="middle" x="750" y="-103.3" font-family="Times,serif" font-size="14.00">Patm (a)</text>
</g>
<!-- 0&#45;&gt;34 -->
<g id="edge16" class="edge">
<title>0&#45;&gt;34</title>
<path fill="none" stroke="black" stroke-dasharray="1,5" d="M568.12,-168.06C604.69,-155.99 663.76,-136.48 704.62,-122.99"/>
<polygon fill="black" stroke="black" points="705.93,-126.24 714.33,-119.78 703.74,-119.59 705.93,-126.24"/>
</g>
<!-- 39 -->
<g id="node20" class="node">
<title>39</title>
<ellipse fill="none" stroke="black" cx="862" cy="-107" rx="44.39" ry="18"/>
<text text-anchor="middle" x="862" y="-103.3" font-family="Times,serif" font-size="14.00">P01 (a)</text>
</g>
<!-- 0&#45;&gt;39 -->
<g id="edge18" class="edge">
<title>0&#45;&gt;39</title>
<path fill="none" stroke="black" stroke-dasharray="5,2" d="M567.59,-167.73C574.29,-165.65 581.33,-163.62 588,-162 684.78,-138.51 712.22,-148.49 809,-125 812.44,-124.17 815.98,-123.22 819.52,-122.22"/>
<polygon fill="black" stroke="black" points="820.83,-125.48 829.41,-119.27 818.83,-118.77 820.83,-125.48"/>
</g>
<!-- 2 -->
<g id="node3" class="node">
<title>2</title>
<ellipse fill="none" stroke="black" cx="650" cy="-180" rx="52.79" ry="18"/>
<text text-anchor="middle" x="650" y="-176.3" font-family="Times,serif" font-size="14.00">LaSM (a)</text>
</g>
<!-- 30 -->
<g id="node16" class="node">
<title>30</title>
<ellipse fill="none" stroke="black" cx="968" cy="-107" rx="44.39" ry="18"/>
<text text-anchor="middle" x="968" y="-103.3" font-family="Times,serif" font-size="14.00">B39 (a)</text>
</g>
<!-- 2&#45;&gt;30 -->
<g id="edge14" class="edge">
<title>2&#45;&gt;30</title>
<path fill="none" stroke="black" stroke-dasharray="5,2" d="M688.9,-167.78C696.53,-165.73 704.49,-163.71 712,-162 801.42,-141.63 826.04,-147.27 915,-125 918.43,-124.14 921.97,-123.18 925.5,-122.16"/>
<polygon fill="black" stroke="black" points="926.83,-125.42 935.4,-119.19 924.81,-118.72 926.83,-125.42"/>
</g>
<!-- 9 -->
<g id="node4" class="node">
<title>9</title>
<ellipse fill="none" stroke="black" cx="777" cy="-180" rx="55.79" ry="18"/>
<text text-anchor="middle" x="777" y="-176.3" font-family="Times,serif" font-size="14.00">V2250 (a)</text>
</g>
<!-- 11 -->
<g id="node5" class="node">
<title>11</title>
<ellipse fill="none" stroke="black" cx="813" cy="-264" rx="53.89" ry="18"/>
<text text-anchor="middle" x="813" y="-260.3" font-family="Times,serif" font-size="14.00">aBase (a)</text>
</g>
<!-- 11&#45;&gt;0 -->
<g id="edge1" class="edge">
<title>11&#45;&gt;0</title>
<path fill="none" stroke="black" stroke-dasharray="5,2" d="M773.07,-251.84C728,-239.17 652.56,-217.68 588,-198 584.71,-197 581.31,-195.95 577.9,-194.88"/>
<polygon fill="black" stroke="black" points="578.9,-191.52 568.32,-191.85 576.8,-198.2 578.9,-191.52"/>
</g>
<!-- 11&#45;&gt;2 -->
<g id="edge2" class="edge">
<title>11&#45;&gt;2</title>
<path fill="none" stroke="black" d="M784.23,-248.53C757.35,-235 717.05,-214.73 687.62,-199.93"/>
<polygon fill="black" stroke="black" points="688.98,-196.69 678.48,-195.33 685.84,-202.95 688.98,-196.69"/>
</g>
<!-- 11&#45;&gt;9 -->
<g id="edge3" class="edge">
<title>11&#45;&gt;9</title>
<path fill="none" stroke="black" stroke-width="2" d="M805.54,-246.01C800.62,-234.79 794.07,-219.88 788.49,-207.17"/>
<polygon fill="black" stroke="black" stroke-width="2" points="791.67,-205.72 784.45,-197.97 785.26,-208.53 791.67,-205.72"/>
<text text-anchor="middle" x="800.5" y="-219" font-family="Times,serif" font-size="10.00">3</text>
</g>
<!-- 16 -->
<g id="node9" class="node">
<title>16</title>
<ellipse fill="none" stroke="black" cx="892" cy="-180" rx="41.69" ry="18"/>
<text text-anchor="middle" x="892" y="-176.3" font-family="Times,serif" font-size="14.00">Est (a)</text>
</g>
<!-- 11&#45;&gt;16 -->
<g id="edge7" class="edge">
<title>11&#45;&gt;16</title>
<path fill="none" stroke="black" d="M828.99,-246.41C840.6,-234.36 856.46,-217.89 869.37,-204.49"/>
<polygon fill="black" stroke="black" points="872.16,-206.64 876.57,-197.01 867.12,-201.78 872.16,-206.64"/>
<text text-anchor="middle" x="860.5" y="-219" font-family="Times,serif" font-size="10.00">3</text>
</g>
<!-- 31 -->
<g id="node17" class="node">
<title>31</title>
<ellipse fill="none" stroke="black" cx="1002" cy="-180" rx="50.09" ry="18"/>
<text text-anchor="middle" x="1002" y="-176.3" font-family="Times,serif" font-size="14.00">S249 (a)</text>
</g>
<!-- 11&#45;&gt;31 -->
<g id="edge15" class="edge">
<title>11&#45;&gt;31</title>
<path fill="none" stroke="black" d="M844.63,-249.28C876.81,-235.31 926.79,-213.63 961.76,-198.46"/>
<polygon fill="black" stroke="black" points="963.42,-201.55 971.2,-194.36 960.64,-195.13 963.42,-201.55"/>
</g>
<!-- 44 -->
<g id="node22" class="node">
<title>44</title>
<ellipse fill="none" stroke="black" cx="1113" cy="-180" rx="42.79" ry="18"/>
<text text-anchor="middle" x="1113" y="-176.3" font-family="Times,serif" font-size="14.00">La2 (a)</text>
</g>
<!-- 11&#45;&gt;44 -->
<g id="edge20" class="edge">
<title>11&#45;&gt;44</title>
<path fill="none" stroke="black" stroke-width="2" d="M855.34,-252.72C904.88,-240.5 989.26,-219.11 1061,-198 1064.29,-197.03 1067.68,-196 1071.09,-194.94"/>
<polygon fill="black" stroke="black" stroke-width="2" points="1072.17,-198.27 1080.64,-191.91 1070.05,-191.6 1072.17,-198.27"/>
</g>
<!-- 12 -->
<g id="node6" class="node">
<title>12</title>
<ellipse fill="none" stroke="black" cx="397" cy="-34" rx="46.59" ry="18"/>
<text text-anchor="middle" x="397" y="-30.3" font-family="Times,serif" font-size="14.00">Bodl (a)</text>
</g>
<!-- 13 -->
<g id="node7" class="node">
<title>13</title>
<ellipse fill="none" stroke="black" cx="512" cy="-34" rx="50.09" ry="18"/>
<text text-anchor="middle" x="512" y="-30.3" font-family="Times,serif" font-size="14.00">V571 (a)</text>
</g>
<!-- 35 -->
<g id="node19" class="node">
<title>35</title>
<ellipse fill="none" stroke="black" cx="276" cy="-34" rx="55.79" ry="18"/>
<text text-anchor="middle" x="276" y="-30.3" font-family="Times,serif" font-size="14.00">V1639 (a)</text>
</g>
<!-- 19&#45;&gt;35 -->
<g id="edge17" class="edge">
<title>19&#45;&gt;35</title>
<path fill="none" stroke="black" stroke-dasharray="1,5" d="M382.88,-91.63C362.81,-81 335.22,-66.38 313.11,-54.66"/>
<polygon fill="black" stroke="black" points="314.47,-51.42 304,-49.84 311.2,-57.61 314.47,-51.42"/>
</g>
<!-- 21 -->
<g id="node11" class="node">
<title>21</title>
<ellipse fill="none" stroke="black" cx="633" cy="-34" rx="52.79" ry="18"/>
<text text-anchor="middle" x="633" y="-30.3" font-family="Times,serif" font-size="14.00">M111 (a)</text>
</g>
<!-- 25 -->
<g id="node13" class="node">
<title>25</title>
<ellipse fill="none" stroke="black" cx="760" cy="-34" rx="55.79" ry="18"/>
<text text-anchor="middle" x="760" y="-30.3" font-family="Times,serif" font-size="14.00">V2036 (a)</text>
</g>
<!-- 26 -->
<g id="node14" class="node">
<title>26</title>
<ellipse fill="none" stroke="black" cx="883" cy="-34" rx="48.99" ry="18"/>
<text text-anchor="middle" x="883" y="-30.3" font-family="Times,serif" font-size="14.00">La35 (a)</text>
</g>
<!-- 27&#45;&gt;12 -->
<g id="edge4" class="edge">
<title>27&#45;&gt;12</title>
<path fill="none" stroke="black" stroke-dasharray="5,2" d="M596.45,-95.07C560.07,-84.19 502.66,-66.99 453,-52 449.49,-50.94 445.85,-49.84 442.19,-48.73"/>
<polygon fill="black" stroke="black" points="443.13,-45.36 432.54,-45.81 441.1,-52.06 443.13,-45.36"/>
</g>
<!-- 27&#45;&gt;13 -->
<g id="edge5" class="edge">
<title>27&#45;&gt;13</title>
<path fill="none" stroke="black" stroke-dasharray="1,5" d="M608.22,-91.46C590.23,-80.91 565.68,-66.5 545.88,-54.88"/>
<polygon fill="black" stroke="black" points="547.56,-51.81 537.16,-49.76 544.01,-57.84 547.56,-51.81"/>
</g>
<!-- 27&#45;&gt;21 -->
<g id="edge9" class="edge">
<title>27&#45;&gt;21</title>
<path fill="none" stroke="black" stroke-dasharray="1,5" d="M633,-88.81C633,-80.79 633,-71.05 633,-62.07"/>
<polygon fill="black" stroke="black" points="636.5,-62.03 633,-52.03 629.5,-62.03 636.5,-62.03"/>
</g>
<!-- 27&#45;&gt;25 -->
<g id="edge11" class="edge">
<title>27&#45;&gt;25</title>
<path fill="none" stroke="black" stroke-dasharray="5,2" d="M658.7,-91.63C677.52,-81.11 703.29,-66.7 724.13,-55.05"/>
<polygon fill="black" stroke="black" points="726,-58.02 733.02,-50.08 722.59,-51.91 726,-58.02"/>
</g>
<!-- 27&#45;&gt;26 -->
<g id="edge12" class="edge">
<title>27&#45;&gt;26</title>
<path fill="none" stroke="black" stroke-dasharray="1,5" d="M669.79,-95.12C676.83,-93.07 684.14,-90.95 691,-89 750.42,-72.09 765.58,-68.91 825,-52 828.75,-50.93 832.64,-49.82 836.54,-48.69"/>
<polygon fill="black" stroke="black" points="837.58,-52.03 846.21,-45.88 835.63,-45.31 837.58,-52.03"/>
</g>
<!-- 41 -->
<g id="node21" class="node">
<title>41</title>
<ellipse fill="none" stroke="black" cx="994" cy="-34" rx="44.39" ry="18"/>
<text text-anchor="middle" x="994" y="-30.3" font-family="Times,serif" font-size="14.00">P74 (a)</text>
</g>
<!-- 27&#45;&gt;41 -->
<g id="edge19" class="edge">
<title>27&#45;&gt;41</title>
<path fill="none" stroke="black" stroke-dasharray="1,5" d="M668.69,-94.7C676.02,-92.62 683.72,-90.6 691,-89 800.71,-64.92 831.6,-77.46 941,-52 944.45,-51.2 947.99,-50.28 951.53,-49.29"/>
<polygon fill="black" stroke="black" points="952.84,-52.55 961.44,-46.37 950.86,-45.84 952.84,-52.55"/>
</g>
<!-- 45 -->
<g id="node23" class="node">
<title>45</title>
<ellipse fill="none" stroke="black" cx="1106" cy="-34" rx="50.09" ry="18"/>
<text text-anchor="middle" x="1106" y="-30.3" font-family="Times,serif" font-size="14.00">A116 (a)</text>
</g>
<!-- 27&#45;&gt;45 -->
<g id="edge21" class="edge">
<title>27&#45;&gt;45</title>
<path fill="none" stroke="black" stroke-dasharray="5,2" d="M668.33,-94.54C675.76,-92.44 683.59,-90.46 691,-89 847.08,-58.28 890.85,-82.36 1047,-52 1051.18,-51.19 1055.49,-50.21 1059.79,-49.15"/>
<polygon fill="black" stroke="black" points="1060.95,-52.46 1069.74,-46.54 1059.18,-45.69 1060.95,-52.46"/>
</g>
</g>
</svg>
