<?xml version="1.0" encoding="UTF-8" standalone="no"?>
<!DOCTYPE svg PUBLIC "-//W3C//DTD SVG 1.1//EN"
 "http://www.w3.org/Graphics/SVG/1.1/DTD/svg11.dtd">
<!-- Generated by graphviz version 2.43.0 (0)
 -->
<!-- Title: textual_flow_diagram Pages: 1 -->
<svg width="1383pt" height="294pt"
 viewBox="0.00 0.00 1383.00 294.00" xmlns="http://www.w3.org/2000/svg" xmlns:xlink="http://www.w3.org/1999/xlink">
<g id="graph0" class="graph" transform="scale(1 1) rotate(0) translate(4 290)">
<title>textual_flow_diagram</title>
<polygon fill="white" stroke="transparent" points="-4,4 -4,-290 1379,-290 1379,4 -4,4"/>
<g id="clust1" class="cluster">
<title>cluster_legend</title>
<polygon fill="none" stroke="black" points="8,-224 8,-278 204,-278 204,-224 8,-224"/>
</g>
<g id="clust2" class="cluster">
<title>cluster_plot</title>
</g>
<!-- label -->
<g id="node1" class="node">
<title>label</title>
<text text-anchor="middle" x="106" y="-254.8" font-family="Times,serif" font-size="14.00">adstag1.2.40U48&#45;50, c</text>
<text text-anchor="middle" x="106" y="-239.8" font-family="Times,serif" font-size="14.00">Con = 1</text>
</g>
<!-- 0 -->
<g id="node2" class="node">
<title>0</title>
<ellipse fill="none" stroke="black" cx="400" cy="-106" rx="51.99" ry="18"/>
<text text-anchor="middle" x="400" y="-102.3" font-family="Times,serif" font-size="14.00">M111 (c)</text>
</g>
<!-- 3 -->
<g id="node5" class="node">
<title>3</title>
<ellipse fill="none" stroke="black" cx="400" cy="-34" rx="49.29" ry="18"/>
<text text-anchor="middle" x="400" y="-30.3" font-family="Times,serif" font-size="14.00">A336 (c)</text>
</g>
<!-- 0&#45;&gt;3 -->
<g id="edge4" class="edge">
<title>0&#45;&gt;3</title>
<path fill="none" stroke="black" stroke-dasharray="5,2" d="M400,-87.7C400,-79.98 400,-70.71 400,-62.11"/>
<polygon fill="black" stroke="black" points="403.5,-62.1 400,-52.1 396.5,-62.1 403.5,-62.1"/>
</g>
<!-- 1 -->
<g id="node3" class="node">
<title>1</title>
<ellipse fill="none" stroke="black" cx="273" cy="-178" rx="49.29" ry="18"/>
<text text-anchor="middle" x="273" y="-174.3" font-family="Times,serif" font-size="14.00">Patm (c)</text>
</g>
<!-- 2 -->
<g id="node4" class="node">
<title>2</title>
<ellipse fill="none" stroke="black" cx="508" cy="-178" rx="49.29" ry="18"/>
<text text-anchor="middle" x="508" y="-174.3" font-family="Times,serif" font-size="14.00">V560 (c)</text>
</g>
<!-- 12 -->
<g id="node7" class="node">
<title>12</title>
<ellipse fill="none" stroke="black" cx="275" cy="-106" rx="55.49" ry="18"/>
<text text-anchor="middle" x="275" y="-102.3" font-family="Times,serif" font-size="14.00">V1920 (c)</text>
</g>
<!-- 2&#45;&gt;12 -->
<g id="edge6" class="edge">
<title>2&#45;&gt;12</title>
<path fill="none" stroke="black" stroke-dasharray="5,2" d="M471.08,-165.91C431.24,-153.94 367.6,-134.82 323.69,-121.63"/>
<polygon fill="black" stroke="black" points="324.66,-118.27 314.08,-118.74 322.65,-124.97 324.66,-118.27"/>
</g>
<!-- 4 -->
<g id="node6" class="node">
<title>4</title>
<ellipse fill="none" stroke="black" cx="514" cy="-106" rx="43.59" ry="18"/>
<text text-anchor="middle" x="514" y="-102.3" font-family="Times,serif" font-size="14.00">P74 (c)</text>
</g>
<!-- 13 -->
<g id="node8" class="node">
<title>13</title>
<ellipse fill="none" stroke="black" cx="1312" cy="-178" rx="46.29" ry="18"/>
<text text-anchor="middle" x="1312" y="-174.3" font-family="Times,serif" font-size="14.00">Mon (c)</text>
</g>
<!-- 35 -->
<g id="node16" class="node">
<title>35</title>
<ellipse fill="none" stroke="black" cx="1319" cy="-106" rx="40.09" ry="18"/>
<text text-anchor="middle" x="1319" y="-102.3" font-family="Times,serif" font-size="14.00">Sin (c)</text>
</g>
<!-- 13&#45;&gt;35 -->
<g id="edge15" class="edge">
<title>13&#45;&gt;35</title>
<path fill="none" stroke="black" stroke-dasharray="1,5" d="M1313.73,-159.7C1314.5,-151.98 1315.43,-142.71 1316.29,-134.11"/>
<polygon fill="black" stroke="black" points="1319.78,-134.4 1317.29,-124.1 1312.81,-133.71 1319.78,-134.4"/>
</g>
<!-- 15 -->
<g id="node9" class="node">
<title>15</title>
<ellipse fill="none" stroke="black" cx="631" cy="-106" rx="55.49" ry="18"/>
<text text-anchor="middle" x="631" y="-102.3" font-family="Times,serif" font-size="14.00">V2036 (c)</text>
</g>
<!-- 16 -->
<g id="node10" class="node">
<title>16</title>
<ellipse fill="none" stroke="black" cx="633" cy="-178" rx="51.99" ry="18"/>
<text text-anchor="middle" x="633" y="-174.3" font-family="Times,serif" font-size="14.00">M136 (c)</text>
</g>
<!-- 18 -->
<g id="node11" class="node">
<title>18</title>
<ellipse fill="none" stroke="black" cx="754" cy="-106" rx="49.29" ry="18"/>
<text text-anchor="middle" x="754" y="-102.3" font-family="Times,serif" font-size="14.00">V565 (c)</text>
</g>
<!-- 25 -->
<g id="node12" class="node">
<title>25</title>
<ellipse fill="none" stroke="black" cx="871" cy="-106" rx="49.29" ry="18"/>
<text text-anchor="middle" x="871" y="-102.3" font-family="Times,serif" font-size="14.00">V571 (c)</text>
</g>
<!-- 26 -->
<g id="node13" class="node">
<title>26</title>
<ellipse fill="none" stroke="black" cx="754" cy="-178" rx="48.19" ry="18"/>
<text text-anchor="middle" x="754" y="-174.3" font-family="Times,serif" font-size="14.00">La22 (c)</text>
</g>
<!-- 26&#45;&gt;0 -->
<g id="edge1" class="edge">
<title>26&#45;&gt;0</title>
<path fill="none" stroke="black" stroke-dasharray="1,5" d="M718.01,-166.03C710.14,-163.85 701.83,-161.71 694,-160 591.62,-137.68 563.43,-146.1 461,-124 456.83,-123.1 452.52,-122.08 448.21,-121"/>
<polygon fill="black" stroke="black" points="448.78,-117.53 438.22,-118.4 447.02,-124.31 448.78,-117.53"/>
</g>
<!-- 26&#45;&gt;4 -->
<g id="edge5" class="edge">
<title>26&#45;&gt;4</title>
<path fill="none" stroke="black" stroke-dasharray="1,5" d="M716.62,-166.41C662.58,-151.11 568.84,-124.55 567,-124 563.66,-122.99 560.21,-121.93 556.75,-120.85"/>
<polygon fill="black" stroke="black" points="557.61,-117.45 547.02,-117.79 555.51,-124.13 557.61,-117.45"/>
</g>
<!-- 26&#45;&gt;15 -->
<g id="edge8" class="edge">
<title>26&#45;&gt;15</title>
<path fill="none" stroke="black" stroke-dasharray="5,2" d="M728.81,-162.67C710.77,-152.4 686.24,-138.43 666.25,-127.06"/>
<polygon fill="black" stroke="black" points="667.85,-123.95 657.43,-122.04 664.39,-130.03 667.85,-123.95"/>
</g>
<!-- 26&#45;&gt;18 -->
<g id="edge10" class="edge">
<title>26&#45;&gt;18</title>
<path fill="none" stroke="black" stroke-dasharray="5,2" d="M754,-159.7C754,-151.98 754,-142.71 754,-134.11"/>
<polygon fill="black" stroke="black" points="757.5,-134.1 754,-124.1 750.5,-134.1 757.5,-134.1"/>
</g>
<!-- 26&#45;&gt;25 -->
<g id="edge11" class="edge">
<title>26&#45;&gt;25</title>
<path fill="none" stroke="black" stroke-dasharray="1,5" d="M778.53,-162.33C795.77,-152.01 819.03,-138.1 837.91,-126.8"/>
<polygon fill="black" stroke="black" points="839.72,-129.79 846.51,-121.65 836.13,-123.79 839.72,-129.79"/>
</g>
<!-- 27 -->
<g id="node14" class="node">
<title>27</title>
<ellipse fill="none" stroke="black" cx="986" cy="-106" rx="48.19" ry="18"/>
<text text-anchor="middle" x="986" y="-102.3" font-family="Times,serif" font-size="14.00">La35 (c)</text>
</g>
<!-- 26&#45;&gt;27 -->
<g id="edge13" class="edge">
<title>26&#45;&gt;27</title>
<path fill="none" stroke="black" stroke-dasharray="1,5" d="M790.25,-166.06C830.65,-153.87 896.07,-134.13 940.04,-120.87"/>
<polygon fill="black" stroke="black" points="941.06,-124.22 949.62,-117.98 939.04,-117.51 941.06,-124.22"/>
</g>
<!-- 38 -->
<g id="node17" class="node">
<title>38</title>
<ellipse fill="none" stroke="black" cx="1101" cy="-106" rx="49.29" ry="18"/>
<text text-anchor="middle" x="1101" y="-102.3" font-family="Times,serif" font-size="14.00">A116 (c)</text>
</g>
<!-- 26&#45;&gt;38 -->
<g id="edge16" class="edge">
<title>26&#45;&gt;38</title>
<path fill="none" stroke="black" stroke-dasharray="5,2" d="M797.87,-170.41C854.76,-161.53 956.89,-144.46 1043,-124 1046.85,-123.08 1050.83,-122.07 1054.81,-121"/>
<polygon fill="black" stroke="black" points="1055.94,-124.32 1064.65,-118.28 1054.07,-117.58 1055.94,-124.32"/>
</g>
<!-- 41 -->
<g id="node18" class="node">
<title>41</title>
<ellipse fill="none" stroke="black" cx="1215" cy="-106" rx="46.29" ry="18"/>
<text text-anchor="middle" x="1215" y="-102.3" font-family="Times,serif" font-size="14.00">Bodl (c)</text>
</g>
<!-- 26&#45;&gt;41 -->
<g id="edge17" class="edge">
<title>26&#45;&gt;41</title>
<path fill="none" stroke="black" stroke-dasharray="5,2" d="M800.59,-173.41C876.36,-167.02 1030.76,-151.66 1159,-124 1162.91,-123.16 1166.94,-122.17 1170.97,-121.11"/>
<polygon fill="black" stroke="black" points="1172.19,-124.4 1180.88,-118.33 1170.31,-117.66 1172.19,-124.4"/>
</g>
<!-- 28 -->
<g id="node15" class="node">
<title>28</title>
<ellipse fill="none" stroke="black" cx="384" cy="-178" rx="43.59" ry="18"/>
<text text-anchor="middle" x="384" y="-174.3" font-family="Times,serif" font-size="14.00">S32 (c)</text>
</g>
<!-- 8 -->
<g id="node19" class="node">
<title>8</title>
<ellipse fill="none" stroke="blue" stroke-dasharray="5,2" cx="1312" cy="-251" rx="47.39" ry="18"/>
<text text-anchor="middle" x="1312" y="-247.3" font-family="Times,serif" font-size="14.00">Marc (i)</text>
</g>
<!-- 8&#45;&gt;13 -->
<g id="edge7" class="edge">
<title>8&#45;&gt;13</title>
<path fill="none" stroke="blue" stroke-dasharray="1,5" d="M1312,-232.81C1312,-224.79 1312,-215.05 1312,-206.07"/>
<polygon fill="blue" stroke="blue" points="1315.5,-206.03 1312,-196.03 1308.5,-206.03 1315.5,-206.03"/>
</g>
<!-- 11 -->
<g id="node20" class="node">
<title>11</title>
<ellipse fill="none" stroke="blue" stroke-dasharray="5,2" cx="633" cy="-251" rx="53.89" ry="18"/>
<text text-anchor="middle" x="633" y="-247.3" font-family="Times,serif" font-size="14.00">aBase (a)</text>
</g>
<!-- 11&#45;&gt;2 -->
<g id="edge3" class="edge">
<title>11&#45;&gt;2</title>
<path fill="none" stroke="blue" stroke-width="2" d="M606.8,-235.12C588.17,-224.54 562.97,-210.22 542.68,-198.7"/>
<polygon fill="blue" stroke="blue" stroke-width="2" points="544.17,-195.52 533.74,-193.62 540.71,-201.6 544.17,-195.52"/>
</g>
<!-- 11&#45;&gt;16 -->
<g id="edge9" class="edge">
<title>11&#45;&gt;16</title>
<path fill="none" stroke="blue" stroke-width="2" d="M633,-232.81C633,-224.79 633,-215.05 633,-206.07"/>
<polygon fill="blue" stroke="blue" stroke-width="2" points="636.5,-206.03 633,-196.03 629.5,-206.03 636.5,-206.03"/>
</g>
<!-- 11&#45;&gt;26 -->
<g id="edge12" class="edge">
<title>11&#45;&gt;26</title>
<path fill="none" stroke="blue" stroke-dasharray="5,2" d="M658.66,-234.94C676.63,-224.4 700.81,-210.21 720.33,-198.76"/>
<polygon fill="blue" stroke="blue" points="722.35,-201.63 729.2,-193.55 718.81,-195.59 722.35,-201.63"/>
</g>
<!-- 22 -->
<g id="node21" class="node">
<title>22</title>
<ellipse fill="none" stroke="blue" stroke-dasharray="5,2" cx="328" cy="-251" rx="44.39" ry="18"/>
<text text-anchor="middle" x="328" y="-247.3" font-family="Times,serif" font-size="14.00">A25 (b)</text>
</g>
<!-- 22&#45;&gt;1 -->
<g id="edge2" class="edge">
<title>22&#45;&gt;1</title>
<path fill="none" stroke="blue" stroke-dasharray="1,5" d="M315.24,-233.53C308.4,-224.7 299.83,-213.63 292.2,-203.78"/>
<polygon fill="blue" stroke="blue" points="294.96,-201.63 286.07,-195.87 289.43,-205.92 294.96,-201.63"/>
</g>
<!-- 22&#45;&gt;28 -->
<g id="edge14" class="edge">
<title>22&#45;&gt;28</title>
<path fill="none" stroke="blue" stroke-dasharray="5,2" d="M340.99,-233.53C348.06,-224.57 356.94,-213.31 364.79,-203.36"/>
<polygon fill="blue" stroke="blue" points="367.64,-205.4 371.08,-195.38 362.14,-201.06 367.64,-205.4"/>
</g>
</g>
</svg>
