<?xml version="1.0" encoding="UTF-8" standalone="no"?>
<!DOCTYPE svg PUBLIC "-//W3C//DTD SVG 1.1//EN"
 "http://www.w3.org/Graphics/SVG/1.1/DTD/svg11.dtd">
<!-- Generated by graphviz version 2.43.0 (0)
 -->
<!-- Title: textual_flow_diagram Pages: 1 -->
<svg width="568pt" height="294pt"
 viewBox="0.00 0.00 568.00 294.00" xmlns="http://www.w3.org/2000/svg" xmlns:xlink="http://www.w3.org/1999/xlink">
<g id="graph0" class="graph" transform="scale(1 1) rotate(0) translate(4 290)">
<title>textual_flow_diagram</title>
<polygon fill="white" stroke="transparent" points="-4,4 -4,-290 564,-290 564,4 -4,4"/>
<g id="clust1" class="cluster">
<title>cluster_legend</title>
<polygon fill="none" stroke="black" points="8,-224 8,-278 200,-278 200,-224 8,-224"/>
</g>
<g id="clust2" class="cluster">
<title>cluster_plot</title>
</g>
<!-- label -->
<g id="node1" class="node">
<title>label</title>
<text text-anchor="middle" x="104" y="-254.8" font-family="Times,serif" font-size="14.00">adstag1.2.40U48&#45;50, i</text>
<text text-anchor="middle" x="104" y="-239.8" font-family="Times,serif" font-size="14.00">Con = 1</text>
</g>
<!-- 8 -->
<g id="node2" class="node">
<title>8</title>
<ellipse fill="none" stroke="black" cx="269" cy="-106" rx="53.09" ry="18"/>
<text text-anchor="middle" x="269" y="-102.3" font-family="Times,serif" font-size="14.00">V1629 (i)</text>
</g>
<!-- 11 -->
<g id="node3" class="node">
<title>11</title>
<ellipse fill="none" stroke="black" cx="383" cy="-178" rx="47.39" ry="18"/>
<text text-anchor="middle" x="383" y="-174.3" font-family="Times,serif" font-size="14.00">Marc (i)</text>
</g>
<!-- 27 -->
<g id="node4" class="node">
<title>27</title>
<ellipse fill="none" stroke="black" cx="494" cy="-34" rx="50.09" ry="18"/>
<text text-anchor="middle" x="494" y="-30.3" font-family="Times,serif" font-size="14.00">M118 (i)</text>
</g>
<!-- 32 -->
<g id="node5" class="node">
<title>32</title>
<ellipse fill="none" stroke="black" cx="496" cy="-178" rx="47.39" ry="18"/>
<text text-anchor="middle" x="496" y="-174.3" font-family="Times,serif" font-size="14.00">V568 (i)</text>
</g>
<!-- 38 -->
<g id="node6" class="node">
<title>38</title>
<ellipse fill="none" stroke="black" cx="495" cy="-106" rx="44.39" ry="18"/>
<text text-anchor="middle" x="495" y="-102.3" font-family="Times,serif" font-size="14.00">Taur (i)</text>
</g>
<!-- 32&#45;&gt;38 -->
<g id="edge5" class="edge">
<title>32&#45;&gt;38</title>
<path fill="none" stroke="black" stroke-dasharray="1,5" d="M495.75,-159.7C495.64,-151.98 495.51,-142.71 495.39,-134.11"/>
<polygon fill="black" stroke="black" points="498.89,-134.05 495.24,-124.1 491.89,-134.15 498.89,-134.05"/>
</g>
<!-- 38&#45;&gt;27 -->
<g id="edge3" class="edge">
<title>38&#45;&gt;27</title>
<path fill="none" stroke="black" stroke-dasharray="5,2" d="M494.75,-87.7C494.64,-79.98 494.51,-70.71 494.39,-62.11"/>
<polygon fill="black" stroke="black" points="497.89,-62.05 494.24,-52.1 490.89,-62.15 497.89,-62.05"/>
</g>
<!-- 40 -->
<g id="node7" class="node">
<title>40</title>
<ellipse fill="none" stroke="black" cx="269" cy="-178" rx="48.19" ry="18"/>
<text text-anchor="middle" x="269" y="-174.3" font-family="Times,serif" font-size="14.00">Neap (i)</text>
</g>
<!-- 40&#45;&gt;8 -->
<g id="edge1" class="edge">
<title>40&#45;&gt;8</title>
<path fill="none" stroke="black" stroke-dasharray="1,5" d="M269,-159.7C269,-151.98 269,-142.71 269,-134.11"/>
<polygon fill="black" stroke="black" points="272.5,-134.1 269,-124.1 265.5,-134.1 272.5,-134.1"/>
</g>
<!-- 0 -->
<g id="node8" class="node">
<title>0</title>
<ellipse fill="none" stroke="blue" stroke-dasharray="5,2" cx="494" cy="-251" rx="50.09" ry="18"/>
<text text-anchor="middle" x="494" y="-247.3" font-family="Times,serif" font-size="14.00">V536 (a)</text>
</g>
<!-- 0&#45;&gt;32 -->
<g id="edge4" class="edge">
<title>0&#45;&gt;32</title>
<path fill="none" stroke="blue" stroke-dasharray="1,5" d="M494.48,-232.81C494.71,-224.79 494.98,-215.05 495.24,-206.07"/>
<polygon fill="blue" stroke="blue" points="498.74,-206.12 495.52,-196.03 491.74,-205.93 498.74,-206.12"/>
</g>
<!-- 12 -->
<g id="node9" class="node">
<title>12</title>
<ellipse fill="none" stroke="blue" stroke-dasharray="5,2" cx="384" cy="-251" rx="41.69" ry="18"/>
<text text-anchor="middle" x="384" y="-247.3" font-family="Times,serif" font-size="14.00">Sin (b)</text>
</g>
<!-- 12&#45;&gt;11 -->
<g id="edge2" class="edge">
<title>12&#45;&gt;11</title>
<path fill="none" stroke="blue" stroke-dasharray="1,5" d="M383.76,-232.81C383.64,-224.79 383.51,-215.05 383.38,-206.07"/>
<polygon fill="blue" stroke="blue" points="386.88,-205.98 383.24,-196.03 379.88,-206.08 386.88,-205.98"/>
</g>
<!-- 28 -->
<g id="node10" class="node">
<title>28</title>
<ellipse fill="none" stroke="blue" stroke-dasharray="5,2" cx="270" cy="-251" rx="53.89" ry="18"/>
<text text-anchor="middle" x="270" y="-247.3" font-family="Times,serif" font-size="14.00">aBase (a)</text>
</g>
<!-- 28&#45;&gt;40 -->
<g id="edge6" class="edge">
<title>28&#45;&gt;40</title>
<path fill="none" stroke="blue" stroke-width="2" d="M269.76,-232.81C269.64,-224.79 269.51,-215.05 269.38,-206.07"/>
<polygon fill="blue" stroke="blue" stroke-width="2" points="272.88,-205.98 269.24,-196.03 265.88,-206.08 272.88,-205.98"/>
</g>
</g>
</svg>
