<?xml version="1.0" encoding="UTF-8" standalone="no"?>
<!DOCTYPE svg PUBLIC "-//W3C//DTD SVG 1.1//EN"
 "http://www.w3.org/Graphics/SVG/1.1/DTD/svg11.dtd">
<!-- Generated by graphviz version 2.43.0 (0)
 -->
<!-- Title: textual_flow_diagram Pages: 1 -->
<svg width="462pt" height="366pt"
 viewBox="0.00 0.00 462.00 366.00" xmlns="http://www.w3.org/2000/svg" xmlns:xlink="http://www.w3.org/1999/xlink">
<g id="graph0" class="graph" transform="scale(1 1) rotate(0) translate(4 362)">
<title>textual_flow_diagram</title>
<polygon fill="white" stroke="transparent" points="-4,4 -4,-362 458,-362 458,4 -4,4"/>
<g id="clust1" class="cluster">
<title>cluster_legend</title>
<polygon fill="none" stroke="black" points="8,-296 8,-350 204,-350 204,-296 8,-296"/>
</g>
<g id="clust2" class="cluster">
<title>cluster_plot</title>
</g>
<!-- label -->
<g id="node1" class="node">
<title>label</title>
<text text-anchor="middle" x="106" y="-326.8" font-family="Times,serif" font-size="14.00">adstag1.3.18U22&#45;28, d</text>
<text text-anchor="middle" x="106" y="-311.8" font-family="Times,serif" font-size="14.00">Con = 10</text>
</g>
<!-- 2 -->
<g id="node2" class="node">
<title>2</title>
<ellipse fill="none" stroke="black" cx="329" cy="-106" rx="47.39" ry="18"/>
<text text-anchor="middle" x="329" y="-102.3" font-family="Times,serif" font-size="14.00">Taur (d)</text>
</g>
<!-- 8 -->
<g id="node3" class="node">
<title>8</title>
<ellipse fill="none" stroke="black" cx="270" cy="-34" rx="50.09" ry="18"/>
<text text-anchor="middle" x="270" y="-30.3" font-family="Times,serif" font-size="14.00">V569 (d)</text>
</g>
<!-- 2&#45;&gt;8 -->
<g id="edge2" class="edge">
<title>2&#45;&gt;8</title>
<path fill="none" stroke="black" stroke-dasharray="5,2" d="M315.32,-88.76C307.98,-80.06 298.78,-69.15 290.6,-59.43"/>
<polygon fill="black" stroke="black" points="293.14,-57.02 284.02,-51.63 287.79,-61.54 293.14,-57.02"/>
</g>
<!-- 40 -->
<g id="node5" class="node">
<title>40</title>
<ellipse fill="none" stroke="black" cx="388" cy="-34" rx="50.09" ry="18"/>
<text text-anchor="middle" x="388" y="-30.3" font-family="Times,serif" font-size="14.00">Marc (d)</text>
</g>
<!-- 2&#45;&gt;40 -->
<g id="edge4" class="edge">
<title>2&#45;&gt;40</title>
<path fill="none" stroke="black" stroke-dasharray="1,5" d="M342.68,-88.76C350.02,-80.06 359.22,-69.15 367.4,-59.43"/>
<polygon fill="black" stroke="black" points="370.21,-61.54 373.98,-51.63 364.86,-57.02 370.21,-61.54"/>
</g>
<!-- 30 -->
<g id="node4" class="node">
<title>30</title>
<ellipse fill="none" stroke="black" cx="329" cy="-250" rx="50.09" ry="18"/>
<text text-anchor="middle" x="329" y="-246.3" font-family="Times,serif" font-size="14.00">V536 (d)</text>
</g>
<!-- 41 -->
<g id="node6" class="node">
<title>41</title>
<ellipse fill="none" stroke="black" cx="329" cy="-178" rx="50.09" ry="18"/>
<text text-anchor="middle" x="329" y="-174.3" font-family="Times,serif" font-size="14.00">V568 (d)</text>
</g>
<!-- 30&#45;&gt;41 -->
<g id="edge5" class="edge">
<title>30&#45;&gt;41</title>
<path fill="none" stroke="black" stroke-dasharray="1,5" d="M329,-231.7C329,-223.98 329,-214.71 329,-206.11"/>
<polygon fill="black" stroke="black" points="332.5,-206.1 329,-196.1 325.5,-206.1 332.5,-206.1"/>
</g>
<!-- 41&#45;&gt;2 -->
<g id="edge1" class="edge">
<title>41&#45;&gt;2</title>
<path fill="none" stroke="black" stroke-dasharray="1,5" d="M329,-159.7C329,-151.98 329,-142.71 329,-134.11"/>
<polygon fill="black" stroke="black" points="332.5,-134.1 329,-124.1 325.5,-134.1 332.5,-134.1"/>
</g>
<!-- 12 -->
<g id="node7" class="node">
<title>12</title>
<ellipse fill="none" stroke="blue" stroke-dasharray="5,2" cx="329" cy="-323" rx="55.79" ry="18"/>
<text text-anchor="middle" x="329" y="-319.3" font-family="Times,serif" font-size="14.00">V1629 (a)</text>
</g>
<!-- 12&#45;&gt;30 -->
<g id="edge3" class="edge">
<title>12&#45;&gt;30</title>
<path fill="none" stroke="blue" stroke-dasharray="5,2" d="M329,-304.81C329,-296.79 329,-287.05 329,-278.07"/>
<polygon fill="blue" stroke="blue" points="332.5,-278.03 329,-268.03 325.5,-278.03 332.5,-278.03"/>
</g>
</g>
</svg>
