<?xml version="1.0" encoding="UTF-8" standalone="no"?>
<!DOCTYPE svg PUBLIC "-//W3C//DTD SVG 1.1//EN"
 "http://www.w3.org/Graphics/SVG/1.1/DTD/svg11.dtd">
<!-- Generated by graphviz version 2.43.0 (0)
 -->
<!-- Title: textual_flow_diagram Pages: 1 -->
<svg width="2010pt" height="473pt"
 viewBox="0.00 0.00 2010.00 473.00" xmlns="http://www.w3.org/2000/svg" xmlns:xlink="http://www.w3.org/1999/xlink">
<g id="graph0" class="graph" transform="scale(1 1) rotate(0) translate(4 469)">
<title>textual_flow_diagram</title>
<polygon fill="white" stroke="transparent" points="-4,4 -4,-469 2006,-469 2006,4 -4,4"/>
<g id="clust1" class="cluster">
<title>cluster_legend</title>
<polygon fill="none" stroke="black" points="8,-403 8,-457 182,-457 182,-403 8,-403"/>
</g>
<g id="clust2" class="cluster">
<title>cluster_plot</title>
</g>
<!-- label -->
<g id="node1" class="node">
<title>label</title>
<text text-anchor="middle" x="95" y="-433.8" font-family="Times,serif" font-size="14.00">adstag1.2.10U39, b</text>
<text text-anchor="middle" x="95" y="-418.8" font-family="Times,serif" font-size="14.00">Con = 10</text>
</g>
<!-- 3 -->
<g id="node2" class="node">
<title>3</title>
<ellipse fill="none" stroke="black" cx="254" cy="-190" rx="55.79" ry="18"/>
<text text-anchor="middle" x="254" y="-186.3" font-family="Times,serif" font-size="14.00">V2036 (b)</text>
</g>
<!-- 5 -->
<g id="node3" class="node">
<title>5</title>
<ellipse fill="none" stroke="black" cx="442" cy="-273" rx="50.09" ry="18"/>
<text text-anchor="middle" x="442" y="-269.3" font-family="Times,serif" font-size="14.00">Patm (b)</text>
</g>
<!-- 5&#45;&gt;3 -->
<g id="edge1" class="edge">
<title>5&#45;&gt;3</title>
<path fill="none" stroke="black" stroke-dasharray="1,5" d="M410.96,-258.62C379.4,-245.03 330.33,-223.89 295.47,-208.87"/>
<polygon fill="black" stroke="black" points="296.6,-205.54 286.03,-204.8 293.83,-211.97 296.6,-205.54"/>
</g>
<!-- 21 -->
<g id="node16" class="node">
<title>21</title>
<ellipse fill="none" stroke="black" cx="381" cy="-190" rx="53.09" ry="18"/>
<text text-anchor="middle" x="381" y="-186.3" font-family="Times,serif" font-size="14.00">LaSM (b)</text>
</g>
<!-- 5&#45;&gt;21 -->
<g id="edge15" class="edge">
<title>5&#45;&gt;21</title>
<path fill="none" stroke="black" stroke-dasharray="5,2" d="M429.36,-255.22C420.85,-243.92 409.49,-228.83 399.91,-216.11"/>
<polygon fill="black" stroke="black" points="402.43,-213.64 393.62,-207.76 396.84,-217.86 402.43,-213.64"/>
</g>
<!-- 25 -->
<g id="node20" class="node">
<title>25</title>
<ellipse fill="none" stroke="black" cx="502" cy="-190" rx="50.09" ry="18"/>
<text text-anchor="middle" x="502" y="-186.3" font-family="Times,serif" font-size="14.00">V560 (b)</text>
</g>
<!-- 5&#45;&gt;25 -->
<g id="edge19" class="edge">
<title>5&#45;&gt;25</title>
<path fill="none" stroke="black" stroke-width="2" d="M454.43,-255.22C462.85,-243.85 474.13,-228.63 483.59,-215.86"/>
<polygon fill="black" stroke="black" stroke-width="2" points="486.65,-217.6 489.79,-207.48 481.02,-213.44 486.65,-217.6"/>
<text text-anchor="middle" x="478.5" y="-229" font-family="Times,serif" font-size="10.00">2</text>
</g>
<!-- 6 -->
<g id="node4" class="node">
<title>6</title>
<ellipse fill="none" stroke="black" cx="619" cy="-190" rx="49.29" ry="18"/>
<text text-anchor="middle" x="619" y="-186.3" font-family="Times,serif" font-size="14.00">La35 (b)</text>
</g>
<!-- 7 -->
<g id="node5" class="node">
<title>7</title>
<ellipse fill="none" stroke="black" cx="1094" cy="-273" rx="44.39" ry="18"/>
<text text-anchor="middle" x="1094" y="-269.3" font-family="Times,serif" font-size="14.00">S32 (b)</text>
</g>
<!-- 8 -->
<g id="node6" class="node">
<title>8</title>
<ellipse fill="none" stroke="black" cx="1670" cy="-190" rx="55.79" ry="18"/>
<text text-anchor="middle" x="1670" y="-186.3" font-family="Times,serif" font-size="14.00">V2250 (b)</text>
</g>
<!-- 9 -->
<g id="node7" class="node">
<title>9</title>
<ellipse fill="none" stroke="black" cx="740" cy="-190" rx="53.09" ry="18"/>
<text text-anchor="middle" x="740" y="-186.3" font-family="Times,serif" font-size="14.00">M111 (b)</text>
</g>
<!-- 29 -->
<g id="node23" class="node">
<title>29</title>
<ellipse fill="none" stroke="black" cx="740" cy="-107" rx="50.09" ry="18"/>
<text text-anchor="middle" x="740" y="-103.3" font-family="Times,serif" font-size="14.00">A336 (b)</text>
</g>
<!-- 9&#45;&gt;29 -->
<g id="edge22" class="edge">
<title>9&#45;&gt;29</title>
<path fill="none" stroke="black" stroke-dasharray="5,2" d="M740,-171.82C740,-161.19 740,-147.31 740,-135.2"/>
<polygon fill="black" stroke="black" points="743.5,-135.15 740,-125.15 736.5,-135.15 743.5,-135.15"/>
</g>
<!-- 11 -->
<g id="node8" class="node">
<title>11</title>
<ellipse fill="none" stroke="black" cx="855" cy="-190" rx="43.59" ry="18"/>
<text text-anchor="middle" x="855" y="-186.3" font-family="Times,serif" font-size="14.00">La2 (b)</text>
</g>
<!-- 12 -->
<g id="node9" class="node">
<title>12</title>
<ellipse fill="none" stroke="black" cx="967" cy="-190" rx="50.09" ry="18"/>
<text text-anchor="middle" x="967" y="-186.3" font-family="Times,serif" font-size="14.00">A116 (b)</text>
</g>
<!-- 13 -->
<g id="node10" class="node">
<title>13</title>
<ellipse fill="none" stroke="black" cx="1206" cy="-273" rx="49.29" ry="18"/>
<text text-anchor="middle" x="1206" y="-269.3" font-family="Times,serif" font-size="14.00">La22 (b)</text>
</g>
<!-- 13&#45;&gt;6 -->
<g id="edge3" class="edge">
<title>13&#45;&gt;6</title>
<path fill="none" stroke="black" stroke-dasharray="1,5" d="M1170.4,-260.45C1162.75,-258.33 1154.66,-256.37 1147,-255 1037.77,-235.53 1008.38,-248.26 898,-237 799.89,-227 774.54,-228.15 678,-208 673.83,-207.13 669.53,-206.12 665.23,-205.03"/>
<polygon fill="black" stroke="black" points="665.86,-201.57 655.3,-202.38 664.06,-208.34 665.86,-201.57"/>
</g>
<!-- 13&#45;&gt;9 -->
<g id="edge6" class="edge">
<title>13&#45;&gt;9</title>
<path fill="none" stroke="black" stroke-dasharray="1,5" d="M1170.04,-260.59C1162.49,-258.49 1154.53,-256.49 1147,-255 1076.38,-240.98 1057.36,-246.61 986,-237 903.95,-225.95 882.93,-225.42 802,-208 797.65,-207.06 793.15,-206.01 788.65,-204.89"/>
<polygon fill="black" stroke="black" points="789.42,-201.47 778.86,-202.37 787.67,-208.25 789.42,-201.47"/>
</g>
<!-- 13&#45;&gt;11 -->
<g id="edge7" class="edge">
<title>13&#45;&gt;11</title>
<path fill="none" stroke="black" d="M1169.31,-260.9C1161.95,-258.82 1154.25,-256.75 1147,-255 1041.78,-229.55 1012.83,-235.02 908,-208 904.57,-207.12 901.04,-206.14 897.51,-205.11"/>
<polygon fill="black" stroke="black" points="898.21,-201.67 887.62,-202.12 896.18,-208.37 898.21,-201.67"/>
<text text-anchor="middle" x="1058.5" y="-229" font-family="Times,serif" font-size="10.00">2</text>
</g>
<!-- 13&#45;&gt;12 -->
<g id="edge8" class="edge">
<title>13&#45;&gt;12</title>
<path fill="none" stroke="black" stroke-dasharray="5,2" d="M1170.99,-260.14C1128.83,-245.85 1057.95,-221.83 1011.83,-206.19"/>
<polygon fill="black" stroke="black" points="1012.7,-202.79 1002.1,-202.9 1010.45,-209.42 1012.7,-202.79"/>
</g>
<!-- 15 -->
<g id="node12" class="node">
<title>15</title>
<ellipse fill="none" stroke="black" cx="1085" cy="-190" rx="50.09" ry="18"/>
<text text-anchor="middle" x="1085" y="-186.3" font-family="Times,serif" font-size="14.00">V571 (b)</text>
</g>
<!-- 13&#45;&gt;15 -->
<g id="edge11" class="edge">
<title>13&#45;&gt;15</title>
<path fill="none" stroke="black" stroke-dasharray="1,5" d="M1183.52,-256.95C1164.54,-244.25 1137.16,-225.92 1116.08,-211.81"/>
<polygon fill="black" stroke="black" points="1118.02,-208.89 1107.77,-206.24 1114.13,-214.71 1118.02,-208.89"/>
</g>
<!-- 17 -->
<g id="node13" class="node">
<title>17</title>
<ellipse fill="none" stroke="black" cx="1206" cy="-190" rx="53.09" ry="18"/>
<text text-anchor="middle" x="1206" y="-186.3" font-family="Times,serif" font-size="14.00">M136 (b)</text>
</g>
<!-- 13&#45;&gt;17 -->
<g id="edge12" class="edge">
<title>13&#45;&gt;17</title>
<path fill="none" stroke="black" d="M1206,-254.82C1206,-244.19 1206,-230.31 1206,-218.2"/>
<polygon fill="black" stroke="black" points="1209.5,-218.15 1206,-208.15 1202.5,-218.15 1209.5,-218.15"/>
<text text-anchor="middle" x="1209.5" y="-229" font-family="Times,serif" font-size="10.00">2</text>
</g>
<!-- 23 -->
<g id="node18" class="node">
<title>23</title>
<ellipse fill="none" stroke="black" cx="1327" cy="-190" rx="50.09" ry="18"/>
<text text-anchor="middle" x="1327" y="-186.3" font-family="Times,serif" font-size="14.00">V565 (b)</text>
</g>
<!-- 13&#45;&gt;23 -->
<g id="edge17" class="edge">
<title>13&#45;&gt;23</title>
<path fill="none" stroke="black" stroke-dasharray="5,2" d="M1228.48,-256.95C1247.46,-244.25 1274.84,-225.92 1295.92,-211.81"/>
<polygon fill="black" stroke="black" points="1297.87,-214.71 1304.23,-206.24 1293.98,-208.89 1297.87,-214.71"/>
</g>
<!-- 36 -->
<g id="node27" class="node">
<title>36</title>
<ellipse fill="none" stroke="black" cx="1439" cy="-190" rx="44.39" ry="18"/>
<text text-anchor="middle" x="1439" y="-186.3" font-family="Times,serif" font-size="14.00">P74 (b)</text>
</g>
<!-- 13&#45;&gt;36 -->
<g id="edge26" class="edge">
<title>13&#45;&gt;36</title>
<path fill="none" stroke="black" stroke-dasharray="1,5" d="M1240.38,-260.05C1281.92,-245.61 1351.81,-221.31 1396.64,-205.73"/>
<polygon fill="black" stroke="black" points="1398.06,-208.94 1406.36,-202.35 1395.77,-202.32 1398.06,-208.94"/>
</g>
<!-- 41 -->
<g id="node29" class="node">
<title>41</title>
<ellipse fill="none" stroke="black" cx="1549" cy="-190" rx="47.39" ry="18"/>
<text text-anchor="middle" x="1549" y="-186.3" font-family="Times,serif" font-size="14.00">Bodl (b)</text>
</g>
<!-- 13&#45;&gt;41 -->
<g id="edge28" class="edge">
<title>13&#45;&gt;41</title>
<path fill="none" stroke="black" stroke-dasharray="5,2" d="M1246.85,-262.86C1325.7,-245.23 1491.25,-208.2 1492,-208 1495.83,-207 1499.78,-205.92 1503.74,-204.81"/>
<polygon fill="black" stroke="black" points="1504.89,-208.12 1513.53,-201.99 1502.95,-201.39 1504.89,-208.12"/>
</g>
<!-- 14 -->
<g id="node11" class="node">
<title>14</title>
<ellipse fill="none" stroke="black" cx="1331" cy="-273" rx="40.09" ry="18"/>
<text text-anchor="middle" x="1331" y="-269.3" font-family="Times,serif" font-size="14.00">Pal (b)</text>
</g>
<!-- 22 -->
<g id="node17" class="node">
<title>22</title>
<ellipse fill="none" stroke="black" cx="1206" cy="-107" rx="50.89" ry="18"/>
<text text-anchor="middle" x="1206" y="-103.3" font-family="Times,serif" font-size="14.00">Neap (b)</text>
</g>
<!-- 17&#45;&gt;22 -->
<g id="edge16" class="edge">
<title>17&#45;&gt;22</title>
<path fill="none" stroke="black" stroke-dasharray="5,2" d="M1206,-171.82C1206,-161.19 1206,-147.31 1206,-135.2"/>
<polygon fill="black" stroke="black" points="1209.5,-135.15 1206,-125.15 1202.5,-135.15 1209.5,-135.15"/>
<text text-anchor="middle" x="1209.5" y="-146" font-family="Times,serif" font-size="10.00">2</text>
</g>
<!-- 19 -->
<g id="node14" class="node">
<title>19</title>
<ellipse fill="none" stroke="black" cx="502" cy="-107" rx="55.79" ry="18"/>
<text text-anchor="middle" x="502" y="-103.3" font-family="Times,serif" font-size="14.00">V1920 (b)</text>
</g>
<!-- 20 -->
<g id="node15" class="node">
<title>20</title>
<ellipse fill="none" stroke="black" cx="1363" cy="-356" rx="44.39" ry="18"/>
<text text-anchor="middle" x="1363" y="-352.3" font-family="Times,serif" font-size="14.00">A25 (b)</text>
</g>
<!-- 20&#45;&gt;5 -->
<g id="edge2" class="edge">
<title>20&#45;&gt;5</title>
<path fill="none" stroke="black" stroke-dasharray="1,5" d="M1320.12,-351.23C1170.48,-338.07 671.24,-294.16 500.13,-279.11"/>
<polygon fill="black" stroke="black" points="500.33,-275.62 490.06,-278.23 499.71,-282.59 500.33,-275.62"/>
</g>
<!-- 20&#45;&gt;7 -->
<g id="edge4" class="edge">
<title>20&#45;&gt;7</title>
<path fill="none" stroke="black" stroke-dasharray="5,2" d="M1327.94,-344.75C1285.34,-332.25 1211.3,-310.39 1148,-291 1144.51,-289.93 1140.89,-288.81 1137.25,-287.68"/>
<polygon fill="black" stroke="black" points="1138.27,-284.33 1127.68,-284.69 1136.18,-291.01 1138.27,-284.33"/>
</g>
<!-- 20&#45;&gt;13 -->
<g id="edge9" class="edge">
<title>20&#45;&gt;13</title>
<path fill="none" stroke="black" stroke-dasharray="1,5" d="M1336.72,-341.44C1310.89,-328.11 1271.24,-307.66 1242.38,-292.77"/>
<polygon fill="black" stroke="black" points="1243.91,-289.62 1233.42,-288.15 1240.7,-295.84 1243.91,-289.62"/>
</g>
<!-- 20&#45;&gt;14 -->
<g id="edge10" class="edge">
<title>20&#45;&gt;14</title>
<path fill="none" stroke="black" stroke-dasharray="5,2" d="M1356.21,-337.82C1351.9,-326.9 1346.23,-312.55 1341.36,-300.22"/>
<polygon fill="black" stroke="black" points="1344.6,-298.89 1337.67,-290.88 1338.09,-301.46 1344.6,-298.89"/>
</g>
<!-- 27 -->
<g id="node21" class="node">
<title>27</title>
<ellipse fill="none" stroke="black" cx="1435" cy="-273" rx="45.49" ry="18"/>
<text text-anchor="middle" x="1435" y="-269.3" font-family="Times,serif" font-size="14.00">Nan (b)</text>
</g>
<!-- 20&#45;&gt;27 -->
<g id="edge20" class="edge">
<title>20&#45;&gt;27</title>
<path fill="none" stroke="black" stroke-dasharray="5,2" d="M1377.57,-338.61C1387.98,-326.89 1402.16,-310.95 1413.82,-297.83"/>
<polygon fill="black" stroke="black" points="1416.67,-299.89 1420.7,-290.09 1411.44,-295.24 1416.67,-299.89"/>
<text text-anchor="middle" x="1406.5" y="-312" font-family="Times,serif" font-size="10.00">2</text>
</g>
<!-- 30 -->
<g id="node24" class="node">
<title>30</title>
<ellipse fill="none" stroke="black" cx="1543" cy="-273" rx="44.39" ry="18"/>
<text text-anchor="middle" x="1543" y="-269.3" font-family="Times,serif" font-size="14.00">P01 (b)</text>
</g>
<!-- 20&#45;&gt;30 -->
<g id="edge23" class="edge">
<title>20&#45;&gt;30</title>
<path fill="none" stroke="black" stroke-dasharray="5,2" d="M1391.52,-342.17C1422.24,-328.34 1471.26,-306.28 1505.18,-291.02"/>
<polygon fill="black" stroke="black" points="1506.63,-294.2 1514.31,-286.91 1503.76,-287.82 1506.63,-294.2"/>
</g>
<!-- 39 -->
<g id="node28" class="node">
<title>39</title>
<ellipse fill="none" stroke="black" cx="1655" cy="-273" rx="50.09" ry="18"/>
<text text-anchor="middle" x="1655" y="-269.3" font-family="Times,serif" font-size="14.00">V566 (b)</text>
</g>
<!-- 20&#45;&gt;39 -->
<g id="edge27" class="edge">
<title>20&#45;&gt;39</title>
<path fill="none" stroke="black" stroke-dasharray="5,2" d="M1398.96,-345.27C1444.77,-332.85 1526.34,-310.6 1596,-291 1599.76,-289.94 1603.65,-288.84 1607.56,-287.72"/>
<polygon fill="black" stroke="black" points="1608.6,-291.07 1617.25,-284.95 1606.67,-284.34 1608.6,-291.07"/>
</g>
<!-- 43 -->
<g id="node30" class="node">
<title>43</title>
<ellipse fill="none" stroke="black" cx="1773" cy="-273" rx="50.09" ry="18"/>
<text text-anchor="middle" x="1773" y="-269.3" font-family="Times,serif" font-size="14.00">S249 (b)</text>
</g>
<!-- 20&#45;&gt;43 -->
<g id="edge29" class="edge">
<title>20&#45;&gt;43</title>
<path fill="none" stroke="black" stroke-dasharray="5,2" d="M1403.81,-348.92C1469.54,-338.82 1602.74,-317.1 1714,-291 1718.03,-290.05 1722.19,-289.01 1726.35,-287.91"/>
<polygon fill="black" stroke="black" points="1727.28,-291.28 1736.01,-285.27 1725.44,-284.53 1727.28,-291.28"/>
<text text-anchor="middle" x="1630.5" y="-312" font-family="Times,serif" font-size="10.00">2</text>
</g>
<!-- 28 -->
<g id="node22" class="node">
<title>28</title>
<ellipse fill="none" stroke="black" cx="381" cy="-107" rx="44.69" ry="18"/>
<text text-anchor="middle" x="381" y="-103.3" font-family="Times,serif" font-size="14.00">B39 (b)</text>
</g>
<!-- 21&#45;&gt;28 -->
<g id="edge21" class="edge">
<title>21&#45;&gt;28</title>
<path fill="none" stroke="black" stroke-dasharray="5,2" d="M381,-171.82C381,-161.19 381,-147.31 381,-135.2"/>
<polygon fill="black" stroke="black" points="384.5,-135.15 381,-125.15 377.5,-135.15 384.5,-135.15"/>
</g>
<!-- 34 -->
<g id="node25" class="node">
<title>34</title>
<ellipse fill="none" stroke="black" cx="1206" cy="-34" rx="55.79" ry="18"/>
<text text-anchor="middle" x="1206" y="-30.3" font-family="Times,serif" font-size="14.00">V1629 (b)</text>
</g>
<!-- 22&#45;&gt;34 -->
<g id="edge24" class="edge">
<title>22&#45;&gt;34</title>
<path fill="none" stroke="black" stroke-dasharray="1,5" d="M1206,-88.81C1206,-80.79 1206,-71.05 1206,-62.07"/>
<polygon fill="black" stroke="black" points="1209.5,-62.03 1206,-52.03 1202.5,-62.03 1209.5,-62.03"/>
</g>
<!-- 24 -->
<g id="node19" class="node">
<title>24</title>
<ellipse fill="none" stroke="black" cx="1800" cy="-107" rx="42.49" ry="18"/>
<text text-anchor="middle" x="1800" y="-103.3" font-family="Times,serif" font-size="14.00">Est (b)</text>
</g>
<!-- 25&#45;&gt;19 -->
<g id="edge13" class="edge">
<title>25&#45;&gt;19</title>
<path fill="none" stroke="black" stroke-dasharray="5,2" d="M502,-171.82C502,-161.19 502,-147.31 502,-135.2"/>
<polygon fill="black" stroke="black" points="505.5,-135.15 502,-125.15 498.5,-135.15 505.5,-135.15"/>
</g>
<!-- 27&#45;&gt;8 -->
<g id="edge5" class="edge">
<title>27&#45;&gt;8</title>
<path fill="none" stroke="black" stroke-dasharray="5,2" d="M1468.17,-260.57C1508.72,-246.59 1577.58,-222.85 1623.43,-207.05"/>
<polygon fill="black" stroke="black" points="1624.81,-210.28 1633.13,-203.71 1622.53,-203.66 1624.81,-210.28"/>
</g>
<!-- 35 -->
<g id="node26" class="node">
<title>35</title>
<ellipse fill="none" stroke="black" cx="1800" cy="-190" rx="55.79" ry="18"/>
<text text-anchor="middle" x="1800" y="-186.3" font-family="Times,serif" font-size="14.00">V1897 (b)</text>
</g>
<!-- 27&#45;&gt;35 -->
<g id="edge25" class="edge">
<title>27&#45;&gt;35</title>
<path fill="none" stroke="black" stroke-dasharray="1,5" d="M1468.87,-260.89C1475.82,-258.79 1483.12,-256.72 1490,-255 1597.57,-228.14 1626.86,-232.49 1735,-208 1739.59,-206.96 1744.35,-205.83 1749.12,-204.65"/>
<polygon fill="black" stroke="black" points="1749.99,-208.04 1758.84,-202.2 1748.29,-201.25 1749.99,-208.04"/>
</g>
<!-- 35&#45;&gt;24 -->
<g id="edge18" class="edge">
<title>35&#45;&gt;24</title>
<path fill="none" stroke="black" stroke-dasharray="1,5" d="M1800,-171.82C1800,-161.19 1800,-147.31 1800,-135.2"/>
<polygon fill="black" stroke="black" points="1803.5,-135.15 1800,-125.15 1796.5,-135.15 1803.5,-135.15"/>
</g>
<!-- 45 -->
<g id="node31" class="node">
<title>45</title>
<ellipse fill="none" stroke="black" cx="1930" cy="-190" rx="55.79" ry="18"/>
<text text-anchor="middle" x="1930" y="-186.3" font-family="Times,serif" font-size="14.00">V1639 (b)</text>
</g>
<!-- 39&#45;&gt;45 -->
<g id="edge30" class="edge">
<title>39&#45;&gt;45</title>
<path fill="none" stroke="black" stroke-dasharray="1,5" d="M1692.37,-260.99C1741.04,-246.66 1826.25,-221.56 1880.31,-205.63"/>
<polygon fill="black" stroke="black" points="1881.43,-208.96 1890.03,-202.77 1879.45,-202.24 1881.43,-208.96"/>
</g>
<!-- 32 -->
<g id="node32" class="node">
<title>32</title>
<ellipse fill="none" stroke="blue" stroke-dasharray="5,2" cx="1363" cy="-430" rx="53.89" ry="18"/>
<text text-anchor="middle" x="1363" y="-426.3" font-family="Times,serif" font-size="14.00">aBase (a)</text>
</g>
<!-- 32&#45;&gt;20 -->
<g id="edge14" class="edge">
<title>32&#45;&gt;20</title>
<path fill="none" stroke="blue" stroke-dasharray="5,2" d="M1363,-411.94C1363,-403.81 1363,-393.88 1363,-384.7"/>
<polygon fill="blue" stroke="blue" points="1366.5,-384.44 1363,-374.44 1359.5,-384.44 1366.5,-384.44"/>
</g>
</g>
</svg>
