<?xml version="1.0" encoding="UTF-8" standalone="no"?>
<!DOCTYPE svg PUBLIC "-//W3C//DTD SVG 1.1//EN"
 "http://www.w3.org/Graphics/SVG/1.1/DTD/svg11.dtd">
<!-- Generated by graphviz version 2.43.0 (0)
 -->
<!-- Title: textual_flow_diagram Pages: 1 -->
<svg width="1040pt" height="294pt"
 viewBox="0.00 0.00 1040.00 294.00" xmlns="http://www.w3.org/2000/svg" xmlns:xlink="http://www.w3.org/1999/xlink">
<g id="graph0" class="graph" transform="scale(1 1) rotate(0) translate(4 290)">
<title>textual_flow_diagram</title>
<polygon fill="white" stroke="transparent" points="-4,4 -4,-290 1036,-290 1036,4 -4,4"/>
<g id="clust1" class="cluster">
<title>cluster_legend</title>
<polygon fill="none" stroke="black" points="8,-224 8,-278 204,-278 204,-224 8,-224"/>
</g>
<g id="clust2" class="cluster">
<title>cluster_plot</title>
</g>
<!-- label -->
<g id="node1" class="node">
<title>label</title>
<text text-anchor="middle" x="106" y="-254.8" font-family="Times,serif" font-size="14.00">adstag1.3.20U30&#45;34, b</text>
<text text-anchor="middle" x="106" y="-239.8" font-family="Times,serif" font-size="14.00">Con = 1</text>
</g>
<!-- 5 -->
<g id="node2" class="node">
<title>5</title>
<ellipse fill="none" stroke="black" cx="264" cy="-106" rx="44.39" ry="18"/>
<text text-anchor="middle" x="264" y="-102.3" font-family="Times,serif" font-size="14.00">P74 (b)</text>
</g>
<!-- 8 -->
<g id="node3" class="node">
<title>8</title>
<ellipse fill="none" stroke="black" cx="381" cy="-178" rx="44.39" ry="18"/>
<text text-anchor="middle" x="381" y="-174.3" font-family="Times,serif" font-size="14.00">S32 (b)</text>
</g>
<!-- 22 -->
<g id="node4" class="node">
<title>22</title>
<ellipse fill="none" stroke="black" cx="374" cy="-106" rx="47.39" ry="18"/>
<text text-anchor="middle" x="374" y="-102.3" font-family="Times,serif" font-size="14.00">Bodl (b)</text>
</g>
<!-- 24 -->
<g id="node5" class="node">
<title>24</title>
<ellipse fill="none" stroke="black" cx="493" cy="-106" rx="53.09" ry="18"/>
<text text-anchor="middle" x="493" y="-102.3" font-family="Times,serif" font-size="14.00">M111 (b)</text>
</g>
<!-- 35 -->
<g id="node8" class="node">
<title>35</title>
<ellipse fill="none" stroke="black" cx="493" cy="-34" rx="50.09" ry="18"/>
<text text-anchor="middle" x="493" y="-30.3" font-family="Times,serif" font-size="14.00">A336 (b)</text>
</g>
<!-- 24&#45;&gt;35 -->
<g id="edge7" class="edge">
<title>24&#45;&gt;35</title>
<path fill="none" stroke="black" stroke-dasharray="5,2" d="M493,-87.7C493,-79.98 493,-70.71 493,-62.11"/>
<polygon fill="black" stroke="black" points="496.5,-62.1 493,-52.1 489.5,-62.1 496.5,-62.1"/>
</g>
<!-- 30 -->
<g id="node6" class="node">
<title>30</title>
<ellipse fill="none" stroke="black" cx="614" cy="-106" rx="50.09" ry="18"/>
<text text-anchor="middle" x="614" y="-102.3" font-family="Times,serif" font-size="14.00">V565 (b)</text>
</g>
<!-- 33 -->
<g id="node7" class="node">
<title>33</title>
<ellipse fill="none" stroke="black" cx="732" cy="-106" rx="50.09" ry="18"/>
<text text-anchor="middle" x="732" y="-102.3" font-family="Times,serif" font-size="14.00">A116 (b)</text>
</g>
<!-- 37 -->
<g id="node9" class="node">
<title>37</title>
<ellipse fill="none" stroke="black" cx="850" cy="-106" rx="50.09" ry="18"/>
<text text-anchor="middle" x="850" y="-102.3" font-family="Times,serif" font-size="14.00">V571 (b)</text>
</g>
<!-- 38 -->
<g id="node10" class="node">
<title>38</title>
<ellipse fill="none" stroke="black" cx="614" cy="-178" rx="49.29" ry="18"/>
<text text-anchor="middle" x="614" y="-174.3" font-family="Times,serif" font-size="14.00">La22 (b)</text>
</g>
<!-- 38&#45;&gt;5 -->
<g id="edge1" class="edge">
<title>38&#45;&gt;5</title>
<path fill="none" stroke="black" stroke-dasharray="1,5" d="M568.74,-170.74C510.35,-162.23 405.83,-145.59 318,-124 314.35,-123.1 310.58,-122.09 306.82,-121.03"/>
<polygon fill="black" stroke="black" points="307.52,-117.58 296.94,-118.1 305.53,-124.3 307.52,-117.58"/>
</g>
<!-- 38&#45;&gt;22 -->
<g id="edge3" class="edge">
<title>38&#45;&gt;22</title>
<path fill="none" stroke="black" stroke-dasharray="5,2" d="M576.47,-166.23C539.46,-155.58 481.3,-138.78 431,-124 427.42,-122.95 423.72,-121.85 419.99,-120.75"/>
<polygon fill="black" stroke="black" points="420.75,-117.33 410.17,-117.84 418.76,-124.04 420.75,-117.33"/>
</g>
<!-- 38&#45;&gt;24 -->
<g id="edge4" class="edge">
<title>38&#45;&gt;24</title>
<path fill="none" stroke="black" stroke-dasharray="1,5" d="M588.63,-162.33C570.93,-152.08 547.07,-138.28 527.62,-127.03"/>
<polygon fill="black" stroke="black" points="529.16,-123.87 518.75,-121.9 525.65,-129.93 529.16,-123.87"/>
</g>
<!-- 38&#45;&gt;30 -->
<g id="edge5" class="edge">
<title>38&#45;&gt;30</title>
<path fill="none" stroke="black" stroke-dasharray="5,2" d="M614,-159.7C614,-151.98 614,-142.71 614,-134.11"/>
<polygon fill="black" stroke="black" points="617.5,-134.1 614,-124.1 610.5,-134.1 617.5,-134.1"/>
</g>
<!-- 38&#45;&gt;33 -->
<g id="edge6" class="edge">
<title>38&#45;&gt;33</title>
<path fill="none" stroke="black" stroke-dasharray="5,2" d="M638.74,-162.33C656.12,-152.01 679.58,-138.1 698.62,-126.8"/>
<polygon fill="black" stroke="black" points="700.48,-129.77 707.3,-121.65 696.91,-123.75 700.48,-129.77"/>
</g>
<!-- 38&#45;&gt;37 -->
<g id="edge8" class="edge">
<title>38&#45;&gt;37</title>
<path fill="none" stroke="black" stroke-dasharray="1,5" d="M651.13,-165.99C692.17,-153.82 758.33,-134.19 802.96,-120.95"/>
<polygon fill="black" stroke="black" points="804.1,-124.26 812.69,-118.07 802.11,-117.55 804.1,-124.26"/>
</g>
<!-- 42 -->
<g id="node11" class="node">
<title>42</title>
<ellipse fill="none" stroke="black" cx="967" cy="-106" rx="49.29" ry="18"/>
<text text-anchor="middle" x="967" y="-102.3" font-family="Times,serif" font-size="14.00">La35 (b)</text>
</g>
<!-- 38&#45;&gt;42 -->
<g id="edge10" class="edge">
<title>38&#45;&gt;42</title>
<path fill="none" stroke="black" stroke-dasharray="1,5" d="M659.04,-170.45C717.16,-161.64 821.25,-144.68 909,-124 912.85,-123.09 916.83,-122.08 920.81,-121.02"/>
<polygon fill="black" stroke="black" points="921.94,-124.34 930.65,-118.3 920.08,-117.59 921.94,-124.34"/>
</g>
<!-- 36 -->
<g id="node12" class="node">
<title>36</title>
<ellipse fill="none" stroke="blue" stroke-dasharray="5,2" cx="614" cy="-251" rx="53.89" ry="18"/>
<text text-anchor="middle" x="614" y="-247.3" font-family="Times,serif" font-size="14.00">aBase (a)</text>
</g>
<!-- 36&#45;&gt;38 -->
<g id="edge9" class="edge">
<title>36&#45;&gt;38</title>
<path fill="none" stroke="blue" stroke-dasharray="5,2" d="M614,-232.81C614,-224.79 614,-215.05 614,-206.07"/>
<polygon fill="blue" stroke="blue" points="617.5,-206.03 614,-196.03 610.5,-206.03 617.5,-206.03"/>
</g>
<!-- 39 -->
<g id="node13" class="node">
<title>39</title>
<ellipse fill="none" stroke="blue" stroke-dasharray="5,2" cx="381" cy="-251" rx="44.39" ry="18"/>
<text text-anchor="middle" x="381" y="-247.3" font-family="Times,serif" font-size="14.00">A25 (a)</text>
</g>
<!-- 39&#45;&gt;8 -->
<g id="edge2" class="edge">
<title>39&#45;&gt;8</title>
<path fill="none" stroke="blue" stroke-dasharray="5,2" d="M381,-232.81C381,-224.79 381,-215.05 381,-206.07"/>
<polygon fill="blue" stroke="blue" points="384.5,-206.03 381,-196.03 377.5,-206.03 384.5,-206.03"/>
</g>
</g>
</svg>
