<?xml version="1.0" encoding="UTF-8" standalone="no"?>
<!DOCTYPE svg PUBLIC "-//W3C//DTD SVG 1.1//EN"
 "http://www.w3.org/Graphics/SVG/1.1/DTD/svg11.dtd">
<!-- Generated by graphviz version 2.43.0 (0)
 -->
<!-- Title: textual_flow_diagram Pages: 1 -->
<svg width="474pt" height="234pt"
 viewBox="0.00 0.00 474.00 234.00" xmlns="http://www.w3.org/2000/svg" xmlns:xlink="http://www.w3.org/1999/xlink">
<g id="graph0" class="graph" transform="scale(1 1) rotate(0) translate(4 230)">
<title>textual_flow_diagram</title>
<polygon fill="white" stroke="transparent" points="-4,4 -4,-230 470,-230 470,4 -4,4"/>
<g id="clust1" class="cluster">
<title>cluster_legend</title>
<polygon fill="none" stroke="black" points="8,-164 8,-218 204,-218 204,-164 8,-164"/>
</g>
<g id="clust2" class="cluster">
<title>cluster_plot</title>
</g>
<!-- label -->
<g id="node1" class="node">
<title>label</title>
<text text-anchor="middle" x="106" y="-194.8" font-family="Times,serif" font-size="14.00">adstag1.3.18U22&#45;28, b</text>
<text text-anchor="middle" x="106" y="-179.8" font-family="Times,serif" font-size="14.00">Con = 10</text>
</g>
<!-- 4 -->
<g id="node2" class="node">
<title>4</title>
<ellipse fill="none" stroke="black" cx="270" cy="-34" rx="50.09" ry="18"/>
<text text-anchor="middle" x="270" y="-30.3" font-family="Times,serif" font-size="14.00">V565 (b)</text>
</g>
<!-- 5 -->
<g id="node3" class="node">
<title>5</title>
<ellipse fill="none" stroke="black" cx="332" cy="-117" rx="49.29" ry="18"/>
<text text-anchor="middle" x="332" y="-113.3" font-family="Times,serif" font-size="14.00">La35 (b)</text>
</g>
<!-- 5&#45;&gt;4 -->
<g id="edge1" class="edge">
<title>5&#45;&gt;4</title>
<path fill="none" stroke="black" stroke-dasharray="1,5" d="M319.15,-99.22C310.37,-87.74 298.58,-72.33 288.74,-59.49"/>
<polygon fill="black" stroke="black" points="291.48,-57.3 282.62,-51.48 285.92,-61.55 291.48,-57.3"/>
<text text-anchor="middle" x="307.5" y="-73" font-family="Times,serif" font-size="10.00">3</text>
</g>
<!-- 37 -->
<g id="node4" class="node">
<title>37</title>
<ellipse fill="none" stroke="black" cx="394" cy="-34" rx="55.79" ry="18"/>
<text text-anchor="middle" x="394" y="-30.3" font-family="Times,serif" font-size="14.00">V2250 (b)</text>
</g>
<!-- 5&#45;&gt;37 -->
<g id="edge3" class="edge">
<title>5&#45;&gt;37</title>
<path fill="none" stroke="black" d="M344.85,-99.22C353.58,-87.81 365.27,-72.54 375.06,-59.74"/>
<polygon fill="black" stroke="black" points="377.87,-61.83 381.17,-51.76 372.31,-57.58 377.87,-61.83"/>
<text text-anchor="middle" x="369.5" y="-73" font-family="Times,serif" font-size="10.00">9</text>
</g>
<!-- 24 -->
<g id="node5" class="node">
<title>24</title>
<ellipse fill="none" stroke="blue" stroke-dasharray="5,2" cx="332" cy="-191" rx="48.99" ry="18"/>
<text text-anchor="middle" x="332" y="-187.3" font-family="Times,serif" font-size="14.00">La22 (a)</text>
</g>
<!-- 24&#45;&gt;5 -->
<g id="edge2" class="edge">
<title>24&#45;&gt;5</title>
<path fill="none" stroke="blue" stroke-dasharray="1,5" d="M332,-172.94C332,-164.81 332,-154.88 332,-145.7"/>
<polygon fill="blue" stroke="blue" points="335.5,-145.44 332,-135.44 328.5,-145.44 335.5,-145.44"/>
</g>
</g>
</svg>
