<?xml version="1.0" encoding="UTF-8" standalone="no"?>
<!DOCTYPE svg PUBLIC "-//W3C//DTD SVG 1.1//EN"
 "http://www.w3.org/Graphics/SVG/1.1/DTD/svg11.dtd">
<!-- Generated by graphviz version 2.43.0 (0)
 -->
<!-- Title: textual_flow_diagram Pages: 1 -->
<svg width="1725pt" height="654pt"
 viewBox="0.00 0.00 1725.00 654.00" xmlns="http://www.w3.org/2000/svg" xmlns:xlink="http://www.w3.org/1999/xlink">
<g id="graph0" class="graph" transform="scale(1 1) rotate(0) translate(4 650)">
<title>textual_flow_diagram</title>
<polygon fill="white" stroke="transparent" points="-4,4 -4,-650 1721,-650 1721,4 -4,4"/>
<g id="clust1" class="cluster">
<title>cluster_legend</title>
<polygon fill="none" stroke="black" points="8,-584 8,-638 204,-638 204,-584 8,-584"/>
</g>
<g id="clust2" class="cluster">
<title>cluster_plot</title>
</g>
<!-- label -->
<g id="node1" class="node">
<title>label</title>
<text text-anchor="middle" x="106" y="-614.8" font-family="Times,serif" font-size="14.00">adstag1.3.71U16&#45;26, a</text>
<text text-anchor="middle" x="106" y="-599.8" font-family="Times,serif" font-size="14.00">Con = 5</text>
</g>
<!-- 0 -->
<g id="node2" class="node">
<title>0</title>
<ellipse fill="none" stroke="black" cx="390" cy="-538" rx="50.09" ry="18"/>
<text text-anchor="middle" x="390" y="-534.3" font-family="Times,serif" font-size="14.00">Neap (a)</text>
</g>
<!-- 19 -->
<g id="node19" class="node">
<title>19</title>
<ellipse fill="none" stroke="black" cx="276" cy="-466" rx="55.79" ry="18"/>
<text text-anchor="middle" x="276" y="-462.3" font-family="Times,serif" font-size="14.00">V1629 (a)</text>
</g>
<!-- 0&#45;&gt;19 -->
<g id="edge18" class="edge">
<title>0&#45;&gt;19</title>
<path fill="none" stroke="black" stroke-dasharray="1,5" d="M365.82,-522.15C349.42,-512.08 327.52,-498.64 309.45,-487.54"/>
<polygon fill="black" stroke="black" points="311.28,-484.56 300.93,-482.31 307.62,-490.52 311.28,-484.56"/>
</g>
<!-- 1 -->
<g id="node3" class="node">
<title>1</title>
<ellipse fill="none" stroke="black" cx="623" cy="-538" rx="50.09" ry="18"/>
<text text-anchor="middle" x="623" y="-534.3" font-family="Times,serif" font-size="14.00">Patm (a)</text>
</g>
<!-- 2 -->
<g id="node4" class="node">
<title>2</title>
<ellipse fill="none" stroke="black" cx="276" cy="-322" rx="50.09" ry="18"/>
<text text-anchor="middle" x="276" y="-318.3" font-family="Times,serif" font-size="14.00">V568 (a)</text>
</g>
<!-- 21 -->
<g id="node21" class="node">
<title>21</title>
<ellipse fill="none" stroke="black" cx="276" cy="-250" rx="46.59" ry="18"/>
<text text-anchor="middle" x="276" y="-246.3" font-family="Times,serif" font-size="14.00">Taur (a)</text>
</g>
<!-- 2&#45;&gt;21 -->
<g id="edge19" class="edge">
<title>2&#45;&gt;21</title>
<path fill="none" stroke="black" stroke-dasharray="1,5" d="M276,-303.7C276,-295.98 276,-286.71 276,-278.11"/>
<polygon fill="black" stroke="black" points="279.5,-278.1 276,-268.1 272.5,-278.1 279.5,-278.1"/>
</g>
<!-- 3 -->
<g id="node5" class="node">
<title>3</title>
<ellipse fill="none" stroke="black" cx="394" cy="-466" rx="44.39" ry="18"/>
<text text-anchor="middle" x="394" y="-462.3" font-family="Times,serif" font-size="14.00">P74 (a)</text>
</g>
<!-- 4 -->
<g id="node6" class="node">
<title>4</title>
<ellipse fill="none" stroke="black" cx="391" cy="-106" rx="46.29" ry="18"/>
<text text-anchor="middle" x="391" y="-102.3" font-family="Times,serif" font-size="14.00">Mon (a)</text>
</g>
<!-- 23 -->
<g id="node23" class="node">
<title>23</title>
<ellipse fill="none" stroke="black" cx="391" cy="-34" rx="40.89" ry="18"/>
<text text-anchor="middle" x="391" y="-30.3" font-family="Times,serif" font-size="14.00">Sin (a)</text>
</g>
<!-- 4&#45;&gt;23 -->
<g id="edge21" class="edge">
<title>4&#45;&gt;23</title>
<path fill="none" stroke="black" stroke-dasharray="1,5" d="M391,-87.7C391,-79.98 391,-70.71 391,-62.11"/>
<polygon fill="black" stroke="black" points="394.5,-62.1 391,-52.1 387.5,-62.1 394.5,-62.1"/>
</g>
<!-- 5 -->
<g id="node7" class="node">
<title>5</title>
<ellipse fill="none" stroke="black" cx="740" cy="-538" rx="48.99" ry="18"/>
<text text-anchor="middle" x="740" y="-534.3" font-family="Times,serif" font-size="14.00">La22 (a)</text>
</g>
<!-- 5&#45;&gt;3 -->
<g id="edge4" class="edge">
<title>5&#45;&gt;3</title>
<path fill="none" stroke="black" stroke-dasharray="1,5" d="M704.3,-525.73C696.97,-523.64 689.27,-521.62 682,-520 578.85,-497.09 549.85,-508.21 447,-484 443.56,-483.19 440.01,-482.26 436.47,-481.27"/>
<polygon fill="black" stroke="black" points="437.15,-477.82 426.57,-478.34 435.16,-484.53 437.15,-477.82"/>
</g>
<!-- 6 -->
<g id="node8" class="node">
<title>6</title>
<ellipse fill="none" stroke="black" cx="506" cy="-466" rx="50.09" ry="18"/>
<text text-anchor="middle" x="506" y="-462.3" font-family="Times,serif" font-size="14.00">V565 (a)</text>
</g>
<!-- 5&#45;&gt;6 -->
<g id="edge7" class="edge">
<title>5&#45;&gt;6</title>
<path fill="none" stroke="black" stroke-dasharray="5,2" d="M703.44,-526.06C662.81,-513.91 597.09,-494.25 552.75,-480.99"/>
<polygon fill="black" stroke="black" points="553.66,-477.6 543.08,-478.09 551.66,-484.31 553.66,-477.6"/>
</g>
<!-- 9 -->
<g id="node11" class="node">
<title>9</title>
<ellipse fill="none" stroke="black" cx="623" cy="-466" rx="48.99" ry="18"/>
<text text-anchor="middle" x="623" y="-462.3" font-family="Times,serif" font-size="14.00">La35 (a)</text>
</g>
<!-- 5&#45;&gt;9 -->
<g id="edge10" class="edge">
<title>5&#45;&gt;9</title>
<path fill="none" stroke="black" stroke-dasharray="1,5" d="M715.47,-522.33C698.23,-512.01 674.97,-498.1 656.09,-486.8"/>
<polygon fill="black" stroke="black" points="657.87,-483.79 647.49,-481.65 654.28,-489.79 657.87,-483.79"/>
</g>
<!-- 14 -->
<g id="node16" class="node">
<title>14</title>
<ellipse fill="none" stroke="black" cx="740" cy="-466" rx="50.09" ry="18"/>
<text text-anchor="middle" x="740" y="-462.3" font-family="Times,serif" font-size="14.00">V571 (a)</text>
</g>
<!-- 5&#45;&gt;14 -->
<g id="edge15" class="edge">
<title>5&#45;&gt;14</title>
<path fill="none" stroke="black" stroke-dasharray="1,5" d="M740,-519.7C740,-511.98 740,-502.71 740,-494.11"/>
<polygon fill="black" stroke="black" points="743.5,-494.1 740,-484.1 736.5,-494.1 743.5,-494.1"/>
</g>
<!-- 24 -->
<g id="node24" class="node">
<title>24</title>
<ellipse fill="none" stroke="black" cx="858" cy="-466" rx="50.09" ry="18"/>
<text text-anchor="middle" x="858" y="-462.3" font-family="Times,serif" font-size="14.00">A116 (a)</text>
</g>
<!-- 5&#45;&gt;24 -->
<g id="edge22" class="edge">
<title>5&#45;&gt;24</title>
<path fill="none" stroke="black" stroke-dasharray="5,2" d="M764.74,-522.33C782.12,-512.01 805.58,-498.1 824.62,-486.8"/>
<polygon fill="black" stroke="black" points="826.48,-489.77 833.3,-481.65 822.91,-483.75 826.48,-489.77"/>
</g>
<!-- 32 -->
<g id="node28" class="node">
<title>32</title>
<ellipse fill="none" stroke="black" cx="973" cy="-466" rx="46.59" ry="18"/>
<text text-anchor="middle" x="973" y="-462.3" font-family="Times,serif" font-size="14.00">Bodl (a)</text>
</g>
<!-- 5&#45;&gt;32 -->
<g id="edge26" class="edge">
<title>5&#45;&gt;32</title>
<path fill="none" stroke="black" stroke-dasharray="5,2" d="M776.62,-526.08C812.43,-515.39 868.48,-498.63 917,-484 920.51,-482.94 924.15,-481.84 927.81,-480.74"/>
<polygon fill="black" stroke="black" points="928.9,-484.06 937.46,-477.81 926.87,-477.36 928.9,-484.06"/>
</g>
<!-- 37 -->
<g id="node32" class="node">
<title>37</title>
<ellipse fill="none" stroke="black" cx="1090" cy="-466" rx="52.79" ry="18"/>
<text text-anchor="middle" x="1090" y="-462.3" font-family="Times,serif" font-size="14.00">M111 (a)</text>
</g>
<!-- 5&#45;&gt;37 -->
<g id="edge30" class="edge">
<title>5&#45;&gt;37</title>
<path fill="none" stroke="black" stroke-dasharray="1,5" d="M775.68,-525.55C782.7,-523.53 790.05,-521.57 797,-520 898.79,-497.04 927.01,-506.04 1029,-484 1033.17,-483.1 1037.48,-482.08 1041.79,-481"/>
<polygon fill="black" stroke="black" points="1042.98,-484.31 1051.77,-478.4 1041.21,-477.53 1042.98,-484.31"/>
</g>
<!-- 7 -->
<g id="node9" class="node">
<title>7</title>
<ellipse fill="none" stroke="black" cx="273" cy="-178" rx="50.09" ry="18"/>
<text text-anchor="middle" x="273" y="-174.3" font-family="Times,serif" font-size="14.00">V569 (a)</text>
</g>
<!-- 8 -->
<g id="node10" class="node">
<title>8</title>
<ellipse fill="none" stroke="black" cx="1447" cy="-394" rx="55.79" ry="18"/>
<text text-anchor="middle" x="1447" y="-390.3" font-family="Times,serif" font-size="14.00">V1639 (a)</text>
</g>
<!-- 10 -->
<g id="node12" class="node">
<title>10</title>
<ellipse fill="none" stroke="black" cx="859" cy="-538" rx="52.79" ry="18"/>
<text text-anchor="middle" x="859" y="-534.3" font-family="Times,serif" font-size="14.00">LaSM (a)</text>
</g>
<!-- 11 -->
<g id="node13" class="node">
<title>11</title>
<ellipse fill="none" stroke="black" cx="1335" cy="-466" rx="44.39" ry="18"/>
<text text-anchor="middle" x="1335" y="-462.3" font-family="Times,serif" font-size="14.00">S32 (a)</text>
</g>
<!-- 12 -->
<g id="node14" class="node">
<title>12</title>
<ellipse fill="none" stroke="black" cx="1447" cy="-466" rx="50.09" ry="18"/>
<text text-anchor="middle" x="1447" y="-462.3" font-family="Times,serif" font-size="14.00">V566 (a)</text>
</g>
<!-- 12&#45;&gt;8 -->
<g id="edge9" class="edge">
<title>12&#45;&gt;8</title>
<path fill="none" stroke="black" stroke-dasharray="1,5" d="M1447,-447.7C1447,-439.98 1447,-430.71 1447,-422.11"/>
<polygon fill="black" stroke="black" points="1450.5,-422.1 1447,-412.1 1443.5,-422.1 1450.5,-422.1"/>
</g>
<!-- 13 -->
<g id="node15" class="node">
<title>13</title>
<ellipse fill="none" stroke="black" cx="986" cy="-538" rx="55.79" ry="18"/>
<text text-anchor="middle" x="986" y="-534.3" font-family="Times,serif" font-size="14.00">V2036 (a)</text>
</g>
<!-- 16 -->
<g id="node17" class="node">
<title>16</title>
<ellipse fill="none" stroke="black" cx="1113" cy="-538" rx="52.79" ry="18"/>
<text text-anchor="middle" x="1113" y="-534.3" font-family="Times,serif" font-size="14.00">M136 (a)</text>
</g>
<!-- 17 -->
<g id="node18" class="node">
<title>17</title>
<ellipse fill="none" stroke="black" cx="1559" cy="-466" rx="44.39" ry="18"/>
<text text-anchor="middle" x="1559" y="-462.3" font-family="Times,serif" font-size="14.00">P01 (a)</text>
</g>
<!-- 34 -->
<g id="node30" class="node">
<title>34</title>
<ellipse fill="none" stroke="black" cx="276" cy="-394" rx="50.09" ry="18"/>
<text text-anchor="middle" x="276" y="-390.3" font-family="Times,serif" font-size="14.00">V536 (a)</text>
</g>
<!-- 19&#45;&gt;34 -->
<g id="edge28" class="edge">
<title>19&#45;&gt;34</title>
<path fill="none" stroke="black" stroke-dasharray="5,2" d="M276,-447.7C276,-439.98 276,-430.71 276,-422.11"/>
<polygon fill="black" stroke="black" points="279.5,-422.1 276,-412.1 272.5,-422.1 279.5,-422.1"/>
</g>
<!-- 20 -->
<g id="node20" class="node">
<title>20</title>
<ellipse fill="none" stroke="black" cx="986" cy="-611" rx="53.89" ry="18"/>
<text text-anchor="middle" x="986" y="-607.3" font-family="Times,serif" font-size="14.00">aBase (a)</text>
</g>
<!-- 20&#45;&gt;0 -->
<g id="edge1" class="edge">
<title>20&#45;&gt;0</title>
<path fill="none" stroke="black" stroke-width="2" d="M936.21,-604.07C826.22,-590.97 563.11,-559.62 446.86,-545.77"/>
<polygon fill="black" stroke="black" stroke-width="2" points="447.09,-542.28 436.75,-544.57 446.27,-549.23 447.09,-542.28"/>
</g>
<!-- 20&#45;&gt;1 -->
<g id="edge2" class="edge">
<title>20&#45;&gt;1</title>
<path fill="none" stroke="black" d="M937.51,-602.99C877.24,-593.91 771.42,-576.76 682,-556 677.97,-555.06 673.81,-554.02 669.64,-552.93"/>
<polygon fill="black" stroke="black" points="670.55,-549.55 659.98,-550.3 668.71,-556.3 670.55,-549.55"/>
</g>
<!-- 20&#45;&gt;5 -->
<g id="edge6" class="edge">
<title>20&#45;&gt;5</title>
<path fill="none" stroke="black" stroke-dasharray="5,2" d="M946.14,-598.76C907.86,-587.92 848.43,-571.02 797,-556 793.47,-554.97 789.82,-553.9 786.15,-552.81"/>
<polygon fill="black" stroke="black" points="787.05,-549.43 776.47,-549.95 785.06,-556.14 787.05,-549.43"/>
</g>
<!-- 20&#45;&gt;10 -->
<g id="edge11" class="edge">
<title>20&#45;&gt;10</title>
<path fill="none" stroke="black" d="M959.38,-595.12C940.5,-584.56 914.96,-570.28 894.37,-558.77"/>
<polygon fill="black" stroke="black" points="896.02,-555.69 885.59,-553.86 892.61,-561.8 896.02,-555.69"/>
</g>
<!-- 20&#45;&gt;13 -->
<g id="edge14" class="edge">
<title>20&#45;&gt;13</title>
<path fill="none" stroke="black" d="M986,-592.81C986,-584.79 986,-575.05 986,-566.07"/>
<polygon fill="black" stroke="black" points="989.5,-566.03 986,-556.03 982.5,-566.03 989.5,-566.03"/>
</g>
<!-- 20&#45;&gt;16 -->
<g id="edge16" class="edge">
<title>20&#45;&gt;16</title>
<path fill="none" stroke="black" stroke-width="2" d="M1012.62,-595.12C1031.5,-584.56 1057.04,-570.28 1077.63,-558.77"/>
<polygon fill="black" stroke="black" stroke-width="2" points="1079.39,-561.8 1086.41,-553.86 1075.98,-555.69 1079.39,-561.8"/>
</g>
<!-- 22 -->
<g id="node22" class="node">
<title>22</title>
<ellipse fill="none" stroke="black" cx="1228" cy="-538" rx="44.69" ry="18"/>
<text text-anchor="middle" x="1228" y="-534.3" font-family="Times,serif" font-size="14.00">Nan (a)</text>
</g>
<!-- 20&#45;&gt;22 -->
<g id="edge20" class="edge">
<title>20&#45;&gt;22</title>
<path fill="none" stroke="black" d="M1026.3,-598.89C1064.64,-588.23 1123.89,-571.49 1175,-556 1178.14,-555.05 1181.39,-554.05 1184.65,-553.03"/>
<polygon fill="black" stroke="black" points="1185.92,-556.3 1194.41,-549.95 1183.82,-549.62 1185.92,-556.3"/>
</g>
<!-- 33 -->
<g id="node29" class="node">
<title>33</title>
<ellipse fill="none" stroke="black" cx="1391" cy="-538" rx="44.39" ry="18"/>
<text text-anchor="middle" x="1391" y="-534.3" font-family="Times,serif" font-size="14.00">A25 (a)</text>
</g>
<!-- 20&#45;&gt;33 -->
<g id="edge27" class="edge">
<title>20&#45;&gt;33</title>
<path fill="none" stroke="black" stroke-dasharray="5,2" d="M1032.85,-601.79C1109.77,-588.3 1262.14,-561.59 1341.04,-547.76"/>
<polygon fill="black" stroke="black" points="1341.96,-551.15 1351.21,-545.98 1340.75,-544.26 1341.96,-551.15"/>
</g>
<!-- 42 -->
<g id="node35" class="node">
<title>42</title>
<ellipse fill="none" stroke="black" cx="1503" cy="-538" rx="50.09" ry="18"/>
<text text-anchor="middle" x="1503" y="-534.3" font-family="Times,serif" font-size="14.00">S249 (a)</text>
</g>
<!-- 20&#45;&gt;42 -->
<g id="edge33" class="edge">
<title>20&#45;&gt;42</title>
<path fill="none" stroke="black" d="M1038.64,-606.6C1124.28,-600.44 1298.8,-585.27 1444,-556 1448.17,-555.16 1452.48,-554.17 1456.78,-553.09"/>
<polygon fill="black" stroke="black" points="1457.95,-556.4 1466.72,-550.46 1456.16,-549.63 1457.95,-556.4"/>
</g>
<!-- 21&#45;&gt;7 -->
<g id="edge8" class="edge">
<title>21&#45;&gt;7</title>
<path fill="none" stroke="black" stroke-dasharray="5,2" d="M275.26,-231.7C274.93,-223.98 274.53,-214.71 274.16,-206.11"/>
<polygon fill="black" stroke="black" points="277.66,-205.95 273.73,-196.1 270.66,-206.25 277.66,-205.95"/>
</g>
<!-- 30 -->
<g id="node26" class="node">
<title>30</title>
<ellipse fill="none" stroke="black" cx="391" cy="-178" rx="50.09" ry="18"/>
<text text-anchor="middle" x="391" y="-174.3" font-family="Times,serif" font-size="14.00">Marc (a)</text>
</g>
<!-- 21&#45;&gt;30 -->
<g id="edge24" class="edge">
<title>21&#45;&gt;30</title>
<path fill="none" stroke="black" stroke-dasharray="1,5" d="M299.83,-234.5C316.56,-224.31 339.17,-210.55 357.69,-199.27"/>
<polygon fill="black" stroke="black" points="359.69,-202.16 366.41,-193.97 356.05,-196.18 359.69,-202.16"/>
</g>
<!-- 26 -->
<g id="node25" class="node">
<title>26</title>
<ellipse fill="none" stroke="black" cx="1217" cy="-466" rx="55.79" ry="18"/>
<text text-anchor="middle" x="1217" y="-462.3" font-family="Times,serif" font-size="14.00">V1897 (a)</text>
</g>
<!-- 22&#45;&gt;26 -->
<g id="edge23" class="edge">
<title>22&#45;&gt;26</title>
<path fill="none" stroke="black" stroke-dasharray="1,5" d="M1225.28,-519.7C1224.07,-511.98 1222.61,-502.71 1221.26,-494.11"/>
<polygon fill="black" stroke="black" points="1224.7,-493.44 1219.69,-484.1 1217.78,-494.53 1224.7,-493.44"/>
</g>
<!-- 35 -->
<g id="node31" class="node">
<title>35</title>
<ellipse fill="none" stroke="black" cx="1209" cy="-394" rx="41.69" ry="18"/>
<text text-anchor="middle" x="1209" y="-390.3" font-family="Times,serif" font-size="14.00">Est (a)</text>
</g>
<!-- 26&#45;&gt;35 -->
<g id="edge29" class="edge">
<title>26&#45;&gt;35</title>
<path fill="none" stroke="black" stroke-dasharray="1,5" d="M1215.02,-447.7C1214.14,-439.98 1213.08,-430.71 1212.1,-422.11"/>
<polygon fill="black" stroke="black" points="1215.57,-421.64 1210.95,-412.1 1208.61,-422.44 1215.57,-421.64"/>
</g>
<!-- 40 -->
<g id="node33" class="node">
<title>40</title>
<ellipse fill="none" stroke="black" cx="1311" cy="-394" rx="42.79" ry="18"/>
<text text-anchor="middle" x="1311" y="-390.3" font-family="Times,serif" font-size="14.00">Bas (a)</text>
</g>
<!-- 26&#45;&gt;40 -->
<g id="edge31" class="edge">
<title>26&#45;&gt;40</title>
<path fill="none" stroke="black" d="M1238.33,-449.12C1251.46,-439.34 1268.45,-426.69 1282.7,-416.08"/>
<polygon fill="black" stroke="black" points="1284.79,-418.88 1290.72,-410.1 1280.61,-413.27 1284.79,-418.88"/>
</g>
<!-- 30&#45;&gt;4 -->
<g id="edge5" class="edge">
<title>30&#45;&gt;4</title>
<path fill="none" stroke="black" stroke-dasharray="1,5" d="M391,-159.7C391,-151.98 391,-142.71 391,-134.11"/>
<polygon fill="black" stroke="black" points="394.5,-134.1 391,-124.1 387.5,-134.1 394.5,-134.1"/>
</g>
<!-- 31 -->
<g id="node27" class="node">
<title>31</title>
<ellipse fill="none" stroke="black" cx="1661" cy="-466" rx="40.09" ry="18"/>
<text text-anchor="middle" x="1661" y="-462.3" font-family="Times,serif" font-size="14.00">Pal (a)</text>
</g>
<!-- 33&#45;&gt;11 -->
<g id="edge12" class="edge">
<title>33&#45;&gt;11</title>
<path fill="none" stroke="black" stroke-dasharray="5,2" d="M1378.01,-520.76C1371.11,-512.14 1362.49,-501.36 1354.78,-491.73"/>
<polygon fill="black" stroke="black" points="1357.29,-489.26 1348.31,-483.63 1351.82,-493.63 1357.29,-489.26"/>
</g>
<!-- 33&#45;&gt;12 -->
<g id="edge13" class="edge">
<title>33&#45;&gt;12</title>
<path fill="none" stroke="black" stroke-dasharray="5,2" d="M1403.99,-520.76C1410.89,-512.14 1419.51,-501.36 1427.22,-491.73"/>
<polygon fill="black" stroke="black" points="1430.18,-493.63 1433.69,-483.63 1424.71,-489.26 1430.18,-493.63"/>
</g>
<!-- 33&#45;&gt;17 -->
<g id="edge17" class="edge">
<title>33&#45;&gt;17</title>
<path fill="none" stroke="black" stroke-dasharray="5,2" d="M1420.65,-524.65C1448.19,-513.17 1489.39,-496.01 1519.67,-483.39"/>
<polygon fill="black" stroke="black" points="1521.2,-486.54 1529.08,-479.47 1518.51,-480.08 1521.2,-486.54"/>
</g>
<!-- 33&#45;&gt;31 -->
<g id="edge25" class="edge">
<title>33&#45;&gt;31</title>
<path fill="none" stroke="black" stroke-dasharray="5,2" d="M1423.93,-525.88C1430.54,-523.8 1437.46,-521.74 1444,-520 1517.78,-500.31 1538.46,-504.55 1612,-484 1614.98,-483.17 1618.05,-482.25 1621.12,-481.29"/>
<polygon fill="black" stroke="black" points="1622.44,-484.54 1630.86,-478.11 1620.27,-477.88 1622.44,-484.54"/>
</g>
<!-- 34&#45;&gt;2 -->
<g id="edge3" class="edge">
<title>34&#45;&gt;2</title>
<path fill="none" stroke="black" stroke-dasharray="1,5" d="M276,-375.7C276,-367.98 276,-358.71 276,-350.11"/>
<polygon fill="black" stroke="black" points="279.5,-350.1 276,-340.1 272.5,-350.1 279.5,-350.1"/>
</g>
<!-- 41 -->
<g id="node34" class="node">
<title>41</title>
<ellipse fill="none" stroke="black" cx="1090" cy="-394" rx="50.09" ry="18"/>
<text text-anchor="middle" x="1090" y="-390.3" font-family="Times,serif" font-size="14.00">A336 (a)</text>
</g>
<!-- 37&#45;&gt;41 -->
<g id="edge32" class="edge">
<title>37&#45;&gt;41</title>
<path fill="none" stroke="black" stroke-dasharray="5,2" d="M1090,-447.7C1090,-439.98 1090,-430.71 1090,-422.11"/>
<polygon fill="black" stroke="black" points="1093.5,-422.1 1090,-412.1 1086.5,-422.1 1093.5,-422.1"/>
</g>
</g>
</svg>
