<?xml version="1.0" encoding="UTF-8" standalone="no"?>
<!DOCTYPE svg PUBLIC "-//W3C//DTD SVG 1.1//EN"
 "http://www.w3.org/Graphics/SVG/1.1/DTD/svg11.dtd">
<!-- Generated by graphviz version 2.43.0 (0)
 -->
<!-- Title: textual_flow_diagram Pages: 1 -->
<svg width="348pt" height="222pt"
 viewBox="0.00 0.00 348.00 222.00" xmlns="http://www.w3.org/2000/svg" xmlns:xlink="http://www.w3.org/1999/xlink">
<g id="graph0" class="graph" transform="scale(1 1) rotate(0) translate(4 218)">
<title>textual_flow_diagram</title>
<polygon fill="white" stroke="transparent" points="-4,4 -4,-218 344,-218 344,4 -4,4"/>
<g id="clust1" class="cluster">
<title>cluster_legend</title>
<polygon fill="none" stroke="black" points="8,-152 8,-206 196,-206 196,-152 8,-152"/>
</g>
<g id="clust2" class="cluster">
<title>cluster_plot</title>
</g>
<!-- label -->
<g id="node1" class="node">
<title>label</title>
<text text-anchor="middle" x="102" y="-182.8" font-family="Times,serif" font-size="14.00">adstag1.3.12U8&#45;10, b</text>
<text text-anchor="middle" x="102" y="-167.8" font-family="Times,serif" font-size="14.00">Con = 10</text>
</g>
<!-- 27 -->
<g id="node2" class="node">
<title>27</title>
<ellipse fill="none" stroke="black" cx="268" cy="-106" rx="50.09" ry="18"/>
<text text-anchor="middle" x="268" y="-102.3" font-family="Times,serif" font-size="14.00">V560 (b)</text>
</g>
<!-- 41 -->
<g id="node3" class="node">
<title>41</title>
<ellipse fill="none" stroke="black" cx="268" cy="-34" rx="55.79" ry="18"/>
<text text-anchor="middle" x="268" y="-30.3" font-family="Times,serif" font-size="14.00">V1920 (b)</text>
</g>
<!-- 27&#45;&gt;41 -->
<g id="edge2" class="edge">
<title>27&#45;&gt;41</title>
<path fill="none" stroke="black" stroke-dasharray="5,2" d="M268,-87.7C268,-79.98 268,-70.71 268,-62.11"/>
<polygon fill="black" stroke="black" points="271.5,-62.1 268,-52.1 264.5,-62.1 271.5,-62.1"/>
</g>
<!-- 40 -->
<g id="node4" class="node">
<title>40</title>
<ellipse fill="none" stroke="blue" stroke-dasharray="5,2" cx="268" cy="-179" rx="53.89" ry="18"/>
<text text-anchor="middle" x="268" y="-175.3" font-family="Times,serif" font-size="14.00">aBase (a)</text>
</g>
<!-- 40&#45;&gt;27 -->
<g id="edge1" class="edge">
<title>40&#45;&gt;27</title>
<path fill="none" stroke="blue" stroke-width="2" d="M268,-160.81C268,-152.79 268,-143.05 268,-134.07"/>
<polygon fill="blue" stroke="blue" stroke-width="2" points="271.5,-134.03 268,-124.03 264.5,-134.03 271.5,-134.03"/>
</g>
</g>
</svg>
