<?xml version="1.0" encoding="UTF-8" standalone="no"?>
<!DOCTYPE svg PUBLIC "-//W3C//DTD SVG 1.1//EN"
 "http://www.w3.org/Graphics/SVG/1.1/DTD/svg11.dtd">
<!-- Generated by graphviz version 2.43.0 (0)
 -->
<!-- Title: textual_flow_diagram Pages: 1 -->
<svg width="612pt" height="150pt"
 viewBox="0.00 0.00 612.00 150.00" xmlns="http://www.w3.org/2000/svg" xmlns:xlink="http://www.w3.org/1999/xlink">
<g id="graph0" class="graph" transform="scale(1 1) rotate(0) translate(4 146)">
<title>textual_flow_diagram</title>
<polygon fill="white" stroke="transparent" points="-4,4 -4,-146 608,-146 608,4 -4,4"/>
<g id="clust1" class="cluster">
<title>cluster_legend</title>
<polygon fill="none" stroke="black" points="8,-80 8,-134 198,-134 198,-80 8,-80"/>
</g>
<g id="clust2" class="cluster">
<title>cluster_plot</title>
</g>
<!-- label -->
<g id="node1" class="node">
<title>label</title>
<text text-anchor="middle" x="103" y="-110.8" font-family="Times,serif" font-size="14.00">adstag1.2.40U16, ar1</text>
<text text-anchor="middle" x="103" y="-95.8" font-family="Times,serif" font-size="14.00">Con = 1</text>
</g>
<!-- 22 -->
<g id="node2" class="node">
<title>22</title>
<ellipse fill="none" stroke="black" cx="271" cy="-34" rx="57.39" ry="18"/>
<text text-anchor="middle" x="271" y="-30.3" font-family="Times,serif" font-size="14.00">Bodl (ar1)</text>
</g>
<!-- 29 -->
<g id="node3" class="node">
<title>29</title>
<ellipse fill="none" stroke="black" cx="536" cy="-34" rx="51.99" ry="18"/>
<text text-anchor="middle" x="536" y="-30.3" font-family="Times,serif" font-size="14.00">Est (ar1)</text>
</g>
<!-- 35 -->
<g id="node4" class="node">
<title>35</title>
<ellipse fill="none" stroke="black" cx="406" cy="-34" rx="59.59" ry="18"/>
<text text-anchor="middle" x="406" y="-30.3" font-family="Times,serif" font-size="14.00">Patm (ar1)</text>
</g>
<!-- 6 -->
<g id="node5" class="node">
<title>6</title>
<ellipse fill="none" stroke="blue" stroke-dasharray="5,2" cx="532" cy="-107" rx="55.79" ry="18"/>
<text text-anchor="middle" x="532" y="-103.3" font-family="Times,serif" font-size="14.00">V1897 (a)</text>
</g>
<!-- 6&#45;&gt;29 -->
<g id="edge2" class="edge">
<title>6&#45;&gt;29</title>
<path fill="none" stroke="black" stroke-dasharray="1,5" d="M532.97,-88.81C533.42,-80.79 533.97,-71.05 534.47,-62.07"/>
<polygon fill="black" stroke="black" points="537.97,-62.21 535.04,-52.03 530.98,-61.82 537.97,-62.21"/>
</g>
<!-- 25 -->
<g id="node6" class="node">
<title>25</title>
<ellipse fill="none" stroke="blue" stroke-dasharray="5,2" cx="406" cy="-107" rx="44.39" ry="18"/>
<text text-anchor="middle" x="406" y="-103.3" font-family="Times,serif" font-size="14.00">A25 (a)</text>
</g>
<!-- 25&#45;&gt;35 -->
<g id="edge3" class="edge">
<title>25&#45;&gt;35</title>
<path fill="none" stroke="black" stroke-dasharray="1,5" d="M406,-88.81C406,-80.79 406,-71.05 406,-62.07"/>
<polygon fill="black" stroke="black" points="409.5,-62.03 406,-52.03 402.5,-62.03 409.5,-62.03"/>
</g>
<!-- 41 -->
<g id="node7" class="node">
<title>41</title>
<ellipse fill="none" stroke="blue" stroke-dasharray="5,2" cx="271" cy="-107" rx="48.99" ry="18"/>
<text text-anchor="middle" x="271" y="-103.3" font-family="Times,serif" font-size="14.00">La22 (a)</text>
</g>
<!-- 41&#45;&gt;22 -->
<g id="edge1" class="edge">
<title>41&#45;&gt;22</title>
<path fill="none" stroke="black" stroke-dasharray="5,2" d="M271,-88.81C271,-80.79 271,-71.05 271,-62.07"/>
<polygon fill="black" stroke="black" points="274.5,-62.03 271,-52.03 267.5,-62.03 274.5,-62.03"/>
</g>
</g>
</svg>
