<?xml version="1.0" encoding="UTF-8" standalone="no"?>
<!DOCTYPE svg PUBLIC "-//W3C//DTD SVG 1.1//EN"
 "http://www.w3.org/Graphics/SVG/1.1/DTD/svg11.dtd">
<!-- Generated by graphviz version 2.43.0 (0)
 -->
<!-- Title: textual_flow_diagram Pages: 1 -->
<svg width="1275pt" height="536pt"
 viewBox="0.00 0.00 1275.00 536.00" xmlns="http://www.w3.org/2000/svg" xmlns:xlink="http://www.w3.org/1999/xlink">
<g id="graph0" class="graph" transform="scale(1 1) rotate(0) translate(4 532)">
<title>textual_flow_diagram</title>
<polygon fill="white" stroke="transparent" points="-4,4 -4,-532 1271,-532 1271,4 -4,4"/>
<g id="clust1" class="cluster">
<title>cluster_legend</title>
<polygon fill="none" stroke="black" points="8,-466 8,-520 204,-520 204,-466 8,-466"/>
</g>
<g id="clust2" class="cluster">
<title>cluster_plot</title>
</g>
<!-- label -->
<g id="node1" class="node">
<title>label</title>
<text text-anchor="middle" x="106" y="-496.8" font-family="Times,serif" font-size="14.00">adstag1.2.18U24&#45;28, a</text>
<text text-anchor="middle" x="106" y="-481.8" font-family="Times,serif" font-size="14.00">Con = 5</text>
</g>
<!-- 2 -->
<g id="node2" class="node">
<title>2</title>
<ellipse fill="none" stroke="black" cx="273" cy="-409" rx="52.79" ry="18"/>
<text text-anchor="middle" x="273" y="-405.3" font-family="Times,serif" font-size="14.00">LaSM (a)</text>
</g>
<!-- 30 -->
<g id="node16" class="node">
<title>30</title>
<ellipse fill="none" stroke="black" cx="273" cy="-326" rx="44.39" ry="18"/>
<text text-anchor="middle" x="273" y="-322.3" font-family="Times,serif" font-size="14.00">B39 (a)</text>
</g>
<!-- 2&#45;&gt;30 -->
<g id="edge14" class="edge">
<title>2&#45;&gt;30</title>
<path fill="none" stroke="black" stroke-dasharray="5,2" d="M273,-390.82C273,-380.19 273,-366.31 273,-354.2"/>
<polygon fill="black" stroke="black" points="276.5,-354.15 273,-344.15 269.5,-354.15 276.5,-354.15"/>
</g>
<!-- 3 -->
<g id="node3" class="node">
<title>3</title>
<ellipse fill="none" stroke="black" cx="476" cy="-34" rx="52.79" ry="18"/>
<text text-anchor="middle" x="476" y="-30.3" font-family="Times,serif" font-size="14.00">M118 (a)</text>
</g>
<!-- 9 -->
<g id="node4" class="node">
<title>9</title>
<ellipse fill="none" stroke="black" cx="1065" cy="-326" rx="55.79" ry="18"/>
<text text-anchor="middle" x="1065" y="-322.3" font-family="Times,serif" font-size="14.00">V2250 (a)</text>
</g>
<!-- 10 -->
<g id="node5" class="node">
<title>10</title>
<ellipse fill="none" stroke="black" cx="1103" cy="-253" rx="42.79" ry="18"/>
<text text-anchor="middle" x="1103" y="-249.3" font-family="Times,serif" font-size="14.00">Bas (a)</text>
</g>
<!-- 11 -->
<g id="node6" class="node">
<title>11</title>
<ellipse fill="none" stroke="black" cx="748" cy="-493" rx="53.89" ry="18"/>
<text text-anchor="middle" x="748" y="-489.3" font-family="Times,serif" font-size="14.00">aBase (a)</text>
</g>
<!-- 11&#45;&gt;2 -->
<g id="edge1" class="edge">
<title>11&#45;&gt;2</title>
<path fill="none" stroke="black" d="M698.08,-485.97C620.1,-476.14 464.86,-454.93 335,-427 330.58,-426.05 326.02,-424.98 321.45,-423.84"/>
<polygon fill="black" stroke="black" points="322.09,-420.39 311.53,-421.28 320.34,-427.17 322.09,-420.39"/>
</g>
<!-- 19 -->
<g id="node11" class="node">
<title>19</title>
<ellipse fill="none" stroke="black" cx="394" cy="-409" rx="50.09" ry="18"/>
<text text-anchor="middle" x="394" y="-405.3" font-family="Times,serif" font-size="14.00">V566 (a)</text>
</g>
<!-- 11&#45;&gt;19 -->
<g id="edge9" class="edge">
<title>11&#45;&gt;19</title>
<path fill="none" stroke="black" d="M703.06,-483.03C645.04,-471.23 541.06,-449.36 453,-427 449.16,-426.02 445.19,-424.97 441.21,-423.89"/>
<polygon fill="black" stroke="black" points="441.93,-420.46 431.36,-421.15 440.05,-427.2 441.93,-420.46"/>
<text text-anchor="middle" x="577.5" y="-448" font-family="Times,serif" font-size="10.00">2</text>
</g>
<!-- 23 -->
<g id="node12" class="node">
<title>23</title>
<ellipse fill="none" stroke="black" cx="512" cy="-409" rx="50.09" ry="18"/>
<text text-anchor="middle" x="512" y="-405.3" font-family="Times,serif" font-size="14.00">Neap (a)</text>
</g>
<!-- 11&#45;&gt;23 -->
<g id="edge10" class="edge">
<title>11&#45;&gt;23</title>
<path fill="none" stroke="black" stroke-width="2" d="M712.16,-479.55C670.35,-465.02 601.23,-441 556.15,-425.34"/>
<polygon fill="black" stroke="black" stroke-width="2" points="557.24,-422.01 546.64,-422.04 554.94,-428.62 557.24,-422.01"/>
</g>
<!-- 31 -->
<g id="node17" class="node">
<title>31</title>
<ellipse fill="none" stroke="black" cx="630" cy="-409" rx="50.09" ry="18"/>
<text text-anchor="middle" x="630" y="-405.3" font-family="Times,serif" font-size="14.00">S249 (a)</text>
</g>
<!-- 11&#45;&gt;31 -->
<g id="edge15" class="edge">
<title>11&#45;&gt;31</title>
<path fill="none" stroke="black" d="M725.81,-476.58C707.35,-463.75 680.88,-445.36 660.44,-431.16"/>
<polygon fill="black" stroke="black" points="662.3,-428.19 652.1,-425.35 658.31,-433.94 662.3,-428.19"/>
</g>
<!-- 33 -->
<g id="node18" class="node">
<title>33</title>
<ellipse fill="none" stroke="black" cx="748" cy="-409" rx="50.09" ry="18"/>
<text text-anchor="middle" x="748" y="-405.3" font-family="Times,serif" font-size="14.00">V560 (a)</text>
</g>
<!-- 11&#45;&gt;33 -->
<g id="edge16" class="edge">
<title>11&#45;&gt;33</title>
<path fill="none" stroke="black" stroke-width="2" d="M748,-474.61C748,-463.77 748,-449.6 748,-437.29"/>
<polygon fill="black" stroke="black" stroke-width="2" points="751.5,-437.08 748,-427.08 744.5,-437.08 751.5,-437.08"/>
</g>
<!-- 34 -->
<g id="node19" class="node">
<title>34</title>
<ellipse fill="none" stroke="black" cx="866" cy="-409" rx="50.09" ry="18"/>
<text text-anchor="middle" x="866" y="-405.3" font-family="Times,serif" font-size="14.00">Patm (a)</text>
</g>
<!-- 11&#45;&gt;34 -->
<g id="edge17" class="edge">
<title>11&#45;&gt;34</title>
<path fill="none" stroke="black" d="M770.19,-476.58C788.65,-463.75 815.12,-445.36 835.56,-431.16"/>
<polygon fill="black" stroke="black" points="837.69,-433.94 843.9,-425.35 833.7,-428.19 837.69,-433.94"/>
<text text-anchor="middle" x="817.5" y="-448" font-family="Times,serif" font-size="10.00">3</text>
</g>
<!-- 38 -->
<g id="node21" class="node">
<title>38</title>
<ellipse fill="none" stroke="black" cx="987" cy="-409" rx="52.79" ry="18"/>
<text text-anchor="middle" x="987" y="-405.3" font-family="Times,serif" font-size="14.00">M136 (a)</text>
</g>
<!-- 11&#45;&gt;38 -->
<g id="edge19" class="edge">
<title>11&#45;&gt;38</title>
<path fill="none" stroke="black" stroke-width="2" d="M784.3,-479.55C826.39,-465.1 895.83,-441.28 941.49,-425.61"/>
<polygon fill="black" stroke="black" stroke-width="2" points="942.82,-428.86 951.14,-422.3 940.55,-422.24 942.82,-428.86"/>
</g>
<!-- 42 -->
<g id="node24" class="node">
<title>42</title>
<ellipse fill="none" stroke="black" cx="1102" cy="-409" rx="44.69" ry="18"/>
<text text-anchor="middle" x="1102" y="-405.3" font-family="Times,serif" font-size="14.00">Nan (a)</text>
</g>
<!-- 11&#45;&gt;42 -->
<g id="edge22" class="edge">
<title>11&#45;&gt;42</title>
<path fill="none" stroke="black" d="M793.97,-483.52C853.3,-472.25 959.53,-450.95 1049,-427 1052.32,-426.11 1055.74,-425.14 1059.17,-424.13"/>
<polygon fill="black" stroke="black" points="1060.24,-427.46 1068.79,-421.2 1058.2,-420.77 1060.24,-427.46"/>
</g>
<!-- 44 -->
<g id="node26" class="node">
<title>44</title>
<ellipse fill="none" stroke="black" cx="1208" cy="-409" rx="42.79" ry="18"/>
<text text-anchor="middle" x="1208" y="-405.3" font-family="Times,serif" font-size="14.00">La2 (a)</text>
</g>
<!-- 11&#45;&gt;44 -->
<g id="edge24" class="edge">
<title>11&#45;&gt;44</title>
<path fill="none" stroke="black" stroke-width="2" d="M798.44,-486.57C876,-477.63 1028.93,-457.69 1156,-427 1159.43,-426.17 1162.95,-425.23 1166.48,-424.22"/>
<polygon fill="black" stroke="black" stroke-width="2" points="1167.77,-427.48 1176.33,-421.23 1165.74,-420.78 1167.77,-427.48"/>
</g>
<!-- 14 -->
<g id="node7" class="node">
<title>14</title>
<ellipse fill="none" stroke="black" cx="522" cy="-107" rx="46.59" ry="18"/>
<text text-anchor="middle" x="522" y="-103.3" font-family="Times,serif" font-size="14.00">Taur (a)</text>
</g>
<!-- 14&#45;&gt;3 -->
<g id="edge2" class="edge">
<title>14&#45;&gt;3</title>
<path fill="none" stroke="black" stroke-dasharray="5,2" d="M511.1,-89.17C505.48,-80.51 498.53,-69.77 492.29,-60.14"/>
<polygon fill="black" stroke="black" points="495.2,-58.19 486.82,-51.71 489.32,-62 495.2,-58.19"/>
</g>
<!-- 40 -->
<g id="node23" class="node">
<title>40</title>
<ellipse fill="none" stroke="black" cx="597" cy="-34" rx="50.09" ry="18"/>
<text text-anchor="middle" x="597" y="-30.3" font-family="Times,serif" font-size="14.00">V569 (a)</text>
</g>
<!-- 14&#45;&gt;40 -->
<g id="edge21" class="edge">
<title>14&#45;&gt;40</title>
<path fill="none" stroke="black" stroke-dasharray="5,2" d="M539.02,-89.89C548.99,-80.45 561.75,-68.37 572.76,-57.95"/>
<polygon fill="black" stroke="black" points="575.19,-60.46 580.05,-51.05 570.38,-55.38 575.19,-60.46"/>
</g>
<!-- 16 -->
<g id="node8" class="node">
<title>16</title>
<ellipse fill="none" stroke="black" cx="1205" cy="-253" rx="41.69" ry="18"/>
<text text-anchor="middle" x="1205" y="-249.3" font-family="Times,serif" font-size="14.00">Est (a)</text>
</g>
<!-- 17 -->
<g id="node9" class="node">
<title>17</title>
<ellipse fill="none" stroke="black" cx="1195" cy="-326" rx="55.79" ry="18"/>
<text text-anchor="middle" x="1195" y="-322.3" font-family="Times,serif" font-size="14.00">V1897 (a)</text>
</g>
<!-- 17&#45;&gt;10 -->
<g id="edge4" class="edge">
<title>17&#45;&gt;10</title>
<path fill="none" stroke="black" d="M1174.58,-309.24C1161.66,-299.27 1144.79,-286.25 1130.67,-275.36"/>
<polygon fill="black" stroke="black" points="1132.78,-272.56 1122.73,-269.23 1128.51,-278.11 1132.78,-272.56"/>
</g>
<!-- 17&#45;&gt;16 -->
<g id="edge6" class="edge">
<title>17&#45;&gt;16</title>
<path fill="none" stroke="black" stroke-dasharray="1,5" d="M1197.42,-307.81C1198.55,-299.79 1199.92,-290.05 1201.19,-281.07"/>
<polygon fill="black" stroke="black" points="1204.67,-281.42 1202.6,-271.03 1197.74,-280.44 1204.67,-281.42"/>
</g>
<!-- 18 -->
<g id="node10" class="node">
<title>18</title>
<ellipse fill="none" stroke="black" cx="522" cy="-180" rx="50.09" ry="18"/>
<text text-anchor="middle" x="522" y="-176.3" font-family="Times,serif" font-size="14.00">V568 (a)</text>
</g>
<!-- 18&#45;&gt;14 -->
<g id="edge5" class="edge">
<title>18&#45;&gt;14</title>
<path fill="none" stroke="black" stroke-dasharray="1,5" d="M522,-161.81C522,-153.79 522,-144.05 522,-135.07"/>
<polygon fill="black" stroke="black" points="525.5,-135.03 522,-125.03 518.5,-135.03 525.5,-135.03"/>
</g>
<!-- 35 -->
<g id="node20" class="node">
<title>35</title>
<ellipse fill="none" stroke="black" cx="392" cy="-326" rx="55.79" ry="18"/>
<text text-anchor="middle" x="392" y="-322.3" font-family="Times,serif" font-size="14.00">V1639 (a)</text>
</g>
<!-- 19&#45;&gt;35 -->
<g id="edge18" class="edge">
<title>19&#45;&gt;35</title>
<path fill="none" stroke="black" stroke-dasharray="1,5" d="M393.58,-390.82C393.31,-380.19 392.97,-366.31 392.67,-354.2"/>
<polygon fill="black" stroke="black" points="396.17,-354.06 392.42,-344.15 389.17,-354.24 396.17,-354.06"/>
</g>
<!-- 28 -->
<g id="node15" class="node">
<title>28</title>
<ellipse fill="none" stroke="black" cx="522" cy="-326" rx="55.79" ry="18"/>
<text text-anchor="middle" x="522" y="-322.3" font-family="Times,serif" font-size="14.00">V1629 (a)</text>
</g>
<!-- 23&#45;&gt;28 -->
<g id="edge13" class="edge">
<title>23&#45;&gt;28</title>
<path fill="none" stroke="black" stroke-dasharray="1,5" d="M514.12,-390.82C515.43,-380.19 517.15,-366.31 518.64,-354.2"/>
<polygon fill="black" stroke="black" points="522.13,-354.51 519.88,-344.15 515.18,-353.65 522.13,-354.51"/>
</g>
<!-- 24 -->
<g id="node13" class="node">
<title>24</title>
<ellipse fill="none" stroke="black" cx="522" cy="-253" rx="50.09" ry="18"/>
<text text-anchor="middle" x="522" y="-249.3" font-family="Times,serif" font-size="14.00">V536 (a)</text>
</g>
<!-- 24&#45;&gt;18 -->
<g id="edge8" class="edge">
<title>24&#45;&gt;18</title>
<path fill="none" stroke="black" stroke-dasharray="1,5" d="M522,-234.81C522,-226.79 522,-217.05 522,-208.07"/>
<polygon fill="black" stroke="black" points="525.5,-208.03 522,-198.03 518.5,-208.03 525.5,-208.03"/>
</g>
<!-- 25 -->
<g id="node14" class="node">
<title>25</title>
<ellipse fill="none" stroke="black" cx="829" cy="-326" rx="55.79" ry="18"/>
<text text-anchor="middle" x="829" y="-322.3" font-family="Times,serif" font-size="14.00">V2036 (a)</text>
</g>
<!-- 28&#45;&gt;24 -->
<g id="edge11" class="edge">
<title>28&#45;&gt;24</title>
<path fill="none" stroke="black" stroke-dasharray="5,2" d="M522,-307.81C522,-299.79 522,-290.05 522,-281.07"/>
<polygon fill="black" stroke="black" points="525.5,-281.03 522,-271.03 518.5,-281.03 525.5,-281.03"/>
</g>
<!-- 43 -->
<g id="node25" class="node">
<title>43</title>
<ellipse fill="none" stroke="black" cx="699" cy="-326" rx="55.79" ry="18"/>
<text text-anchor="middle" x="699" y="-322.3" font-family="Times,serif" font-size="14.00">V1920 (a)</text>
</g>
<!-- 33&#45;&gt;43 -->
<g id="edge23" class="edge">
<title>33&#45;&gt;43</title>
<path fill="none" stroke="black" stroke-dasharray="5,2" d="M737.85,-391.22C731.08,-380.03 722.06,-365.12 714.41,-352.48"/>
<polygon fill="black" stroke="black" points="717.31,-350.51 709.14,-343.76 711.32,-354.13 717.31,-350.51"/>
</g>
<!-- 34&#45;&gt;25 -->
<g id="edge12" class="edge">
<title>34&#45;&gt;25</title>
<path fill="none" stroke="black" stroke-dasharray="1,5" d="M858.15,-390.82C853.17,-379.9 846.61,-365.55 840.98,-353.22"/>
<polygon fill="black" stroke="black" points="844.05,-351.52 836.71,-343.88 837.68,-354.43 844.05,-351.52"/>
</g>
<!-- 39 -->
<g id="node22" class="node">
<title>39</title>
<ellipse fill="none" stroke="black" cx="947" cy="-326" rx="44.39" ry="18"/>
<text text-anchor="middle" x="947" y="-322.3" font-family="Times,serif" font-size="14.00">P01 (a)</text>
</g>
<!-- 34&#45;&gt;39 -->
<g id="edge20" class="edge">
<title>34&#45;&gt;39</title>
<path fill="none" stroke="black" stroke-dasharray="1,5" d="M882.39,-391.61C894.29,-379.71 910.56,-363.44 923.8,-350.2"/>
<polygon fill="black" stroke="black" points="926.59,-352.36 931.18,-342.82 921.64,-347.41 926.59,-352.36"/>
<text text-anchor="middle" x="914.5" y="-365" font-family="Times,serif" font-size="10.00">2</text>
</g>
<!-- 42&#45;&gt;9 -->
<g id="edge3" class="edge">
<title>42&#45;&gt;9</title>
<path fill="none" stroke="black" stroke-dasharray="5,2" d="M1094.33,-391.22C1089.36,-380.32 1082.76,-365.89 1077.09,-353.47"/>
<polygon fill="black" stroke="black" points="1080.12,-351.68 1072.78,-344.04 1073.76,-354.59 1080.12,-351.68"/>
</g>
<!-- 42&#45;&gt;17 -->
<g id="edge7" class="edge">
<title>42&#45;&gt;17</title>
<path fill="none" stroke="black" stroke-dasharray="1,5" d="M1119.93,-392.38C1133.78,-380.32 1153.13,-363.46 1168.73,-349.88"/>
<polygon fill="black" stroke="black" points="1171.25,-352.33 1176.49,-343.12 1166.65,-347.05 1171.25,-352.33"/>
</g>
</g>
</svg>
