<?xml version="1.0" encoding="UTF-8" standalone="no"?>
<!DOCTYPE svg PUBLIC "-//W3C//DTD SVG 1.1//EN"
 "http://www.w3.org/Graphics/SVG/1.1/DTD/svg11.dtd">
<!-- Generated by graphviz version 2.43.0 (0)
 -->
<!-- Title: textual_flow_diagram Pages: 1 -->
<svg width="429pt" height="473pt"
 viewBox="0.00 0.00 429.00 473.00" xmlns="http://www.w3.org/2000/svg" xmlns:xlink="http://www.w3.org/1999/xlink">
<g id="graph0" class="graph" transform="scale(1 1) rotate(0) translate(4 469)">
<title>textual_flow_diagram</title>
<polygon fill="white" stroke="transparent" points="-4,4 -4,-469 425,-469 425,4 -4,4"/>
<g id="clust1" class="cluster">
<title>cluster_legend</title>
<polygon fill="none" stroke="black" points="8,-403 8,-457 180,-457 180,-403 8,-403"/>
</g>
<g id="clust2" class="cluster">
<title>cluster_plot</title>
</g>
<!-- label -->
<g id="node1" class="node">
<title>label</title>
<text text-anchor="middle" x="94" y="-433.8" font-family="Times,serif" font-size="14.00">adstag1.3.11U30, c</text>
<text text-anchor="middle" x="94" y="-418.8" font-family="Times,serif" font-size="14.00">Con = 5</text>
</g>
<!-- 1 -->
<g id="node2" class="node">
<title>1</title>
<ellipse fill="none" stroke="black" cx="251" cy="-190" rx="49.29" ry="18"/>
<text text-anchor="middle" x="251" y="-186.3" font-family="Times,serif" font-size="14.00">Marc (c)</text>
</g>
<!-- 22 -->
<g id="node5" class="node">
<title>22</title>
<ellipse fill="none" stroke="black" cx="245" cy="-107" rx="49.29" ry="18"/>
<text text-anchor="middle" x="245" y="-103.3" font-family="Times,serif" font-size="14.00">V569 (c)</text>
</g>
<!-- 1&#45;&gt;22 -->
<g id="edge4" class="edge">
<title>1&#45;&gt;22</title>
<path fill="none" stroke="black" stroke-dasharray="5,2" d="M249.73,-171.82C248.94,-161.19 247.91,-147.31 247.02,-135.2"/>
<polygon fill="black" stroke="black" points="250.5,-134.87 246.27,-125.15 243.52,-135.38 250.5,-134.87"/>
<text text-anchor="middle" x="251.5" y="-146" font-family="Times,serif" font-size="10.00">3</text>
</g>
<!-- 28 -->
<g id="node7" class="node">
<title>28</title>
<ellipse fill="none" stroke="black" cx="359" cy="-107" rx="46.29" ry="18"/>
<text text-anchor="middle" x="359" y="-103.3" font-family="Times,serif" font-size="14.00">Mon (c)</text>
</g>
<!-- 1&#45;&gt;28 -->
<g id="edge6" class="edge">
<title>1&#45;&gt;28</title>
<path fill="none" stroke="black" stroke-dasharray="1,5" d="M271.57,-173.57C288.23,-161.08 311.9,-143.32 330.41,-129.44"/>
<polygon fill="black" stroke="black" points="332.61,-132.17 338.51,-123.37 328.41,-126.57 332.61,-132.17"/>
</g>
<!-- 4 -->
<g id="node3" class="node">
<title>4</title>
<ellipse fill="none" stroke="black" cx="359" cy="-34" rx="40.09" ry="18"/>
<text text-anchor="middle" x="359" y="-30.3" font-family="Times,serif" font-size="14.00">Sin (c)</text>
</g>
<!-- 14 -->
<g id="node4" class="node">
<title>14</title>
<ellipse fill="none" stroke="black" cx="247" cy="-356" rx="42.49" ry="18"/>
<text text-anchor="middle" x="247" y="-352.3" font-family="Times,serif" font-size="14.00">La2 (c)</text>
</g>
<!-- 23 -->
<g id="node6" class="node">
<title>23</title>
<ellipse fill="none" stroke="black" cx="351" cy="-356" rx="44.39" ry="18"/>
<text text-anchor="middle" x="351" y="-352.3" font-family="Times,serif" font-size="14.00">Nan (c)</text>
</g>
<!-- 32 -->
<g id="node8" class="node">
<title>32</title>
<ellipse fill="none" stroke="black" cx="251" cy="-273" rx="49.29" ry="18"/>
<text text-anchor="middle" x="251" y="-269.3" font-family="Times,serif" font-size="14.00">V536 (c)</text>
</g>
<!-- 23&#45;&gt;32 -->
<g id="edge7" class="edge">
<title>23&#45;&gt;32</title>
<path fill="none" stroke="black" stroke-width="2" d="M331.72,-339.38C316.6,-327.14 295.36,-309.93 278.46,-296.25"/>
<polygon fill="black" stroke="black" stroke-width="2" points="280.54,-293.42 270.56,-289.85 276.13,-298.86 280.54,-293.42"/>
<text text-anchor="middle" x="309.5" y="-312" font-family="Times,serif" font-size="10.00">3</text>
</g>
<!-- 33 -->
<g id="node9" class="node">
<title>33</title>
<ellipse fill="none" stroke="black" cx="359" cy="-273" rx="40.89" ry="18"/>
<text text-anchor="middle" x="359" y="-269.3" font-family="Times,serif" font-size="14.00">Est (c)</text>
</g>
<!-- 23&#45;&gt;33 -->
<g id="edge8" class="edge">
<title>23&#45;&gt;33</title>
<path fill="none" stroke="black" stroke-dasharray="5,2" d="M352.7,-337.82C353.75,-327.19 355.12,-313.31 356.31,-301.2"/>
<polygon fill="black" stroke="black" points="359.81,-301.45 357.31,-291.15 352.84,-300.76 359.81,-301.45"/>
<text text-anchor="middle" x="358.5" y="-312" font-family="Times,serif" font-size="10.00">2</text>
</g>
<!-- 28&#45;&gt;4 -->
<g id="edge2" class="edge">
<title>28&#45;&gt;4</title>
<path fill="none" stroke="black" stroke-dasharray="1,5" d="M359,-88.81C359,-80.79 359,-71.05 359,-62.07"/>
<polygon fill="black" stroke="black" points="362.5,-62.03 359,-52.03 355.5,-62.03 362.5,-62.03"/>
</g>
<!-- 32&#45;&gt;1 -->
<g id="edge1" class="edge">
<title>32&#45;&gt;1</title>
<path fill="none" stroke="black" stroke-dasharray="1,5" d="M251,-254.82C251,-244.19 251,-230.31 251,-218.2"/>
<polygon fill="black" stroke="black" points="254.5,-218.15 251,-208.15 247.5,-218.15 254.5,-218.15"/>
<text text-anchor="middle" x="254.5" y="-229" font-family="Times,serif" font-size="10.00">3</text>
</g>
<!-- 40 -->
<g id="node10" class="node">
<title>40</title>
<ellipse fill="none" stroke="blue" stroke-dasharray="5,2" cx="296" cy="-430" rx="53.89" ry="18"/>
<text text-anchor="middle" x="296" y="-426.3" font-family="Times,serif" font-size="14.00">aBase (a)</text>
</g>
<!-- 40&#45;&gt;14 -->
<g id="edge3" class="edge">
<title>40&#45;&gt;14</title>
<path fill="none" stroke="blue" stroke-width="2" d="M284.64,-412.3C278.51,-403.3 270.84,-392.02 264.02,-382"/>
<polygon fill="blue" stroke="blue" stroke-width="2" points="266.82,-379.91 258.3,-373.61 261.04,-383.85 266.82,-379.91"/>
</g>
<!-- 40&#45;&gt;23 -->
<g id="edge5" class="edge">
<title>40&#45;&gt;23</title>
<path fill="none" stroke="blue" d="M308.76,-412.3C315.7,-403.21 324.42,-391.8 332.13,-381.7"/>
<polygon fill="blue" stroke="blue" points="335.02,-383.68 338.31,-373.61 329.46,-379.43 335.02,-383.68"/>
</g>
</g>
</svg>
