<?xml version="1.0" encoding="UTF-8" standalone="no"?>
<!DOCTYPE svg PUBLIC "-//W3C//DTD SVG 1.1//EN"
 "http://www.w3.org/Graphics/SVG/1.1/DTD/svg11.dtd">
<!-- Generated by graphviz version 2.43.0 (0)
 -->
<!-- Title: textual_flow_diagram Pages: 1 -->
<svg width="344pt" height="222pt"
 viewBox="0.00 0.00 344.00 222.00" xmlns="http://www.w3.org/2000/svg" xmlns:xlink="http://www.w3.org/1999/xlink">
<g id="graph0" class="graph" transform="scale(1 1) rotate(0) translate(4 218)">
<title>textual_flow_diagram</title>
<polygon fill="white" stroke="transparent" points="-4,4 -4,-218 340,-218 340,4 -4,4"/>
<g id="clust1" class="cluster">
<title>cluster_legend</title>
<polygon fill="none" stroke="black" points="8,-152 8,-206 196,-206 196,-152 8,-152"/>
</g>
<g id="clust2" class="cluster">
<title>cluster_plot</title>
</g>
<!-- label -->
<g id="node1" class="node">
<title>label</title>
<text text-anchor="middle" x="102" y="-182.8" font-family="Times,serif" font-size="14.00">adstag1.3.55U4&#45;16, b</text>
<text text-anchor="middle" x="102" y="-167.8" font-family="Times,serif" font-size="14.00">Con = 5</text>
</g>
<!-- 10 -->
<g id="node2" class="node">
<title>10</title>
<ellipse fill="none" stroke="black" cx="266" cy="-106" rx="53.09" ry="18"/>
<text text-anchor="middle" x="266" y="-102.3" font-family="Times,serif" font-size="14.00">LaSM (b)</text>
</g>
<!-- 25 -->
<g id="node3" class="node">
<title>25</title>
<ellipse fill="none" stroke="black" cx="266" cy="-34" rx="44.69" ry="18"/>
<text text-anchor="middle" x="266" y="-30.3" font-family="Times,serif" font-size="14.00">B39 (b)</text>
</g>
<!-- 10&#45;&gt;25 -->
<g id="edge2" class="edge">
<title>10&#45;&gt;25</title>
<path fill="none" stroke="black" stroke-dasharray="5,2" d="M266,-87.7C266,-79.98 266,-70.71 266,-62.11"/>
<polygon fill="black" stroke="black" points="269.5,-62.1 266,-52.1 262.5,-62.1 269.5,-62.1"/>
</g>
<!-- 20 -->
<g id="node4" class="node">
<title>20</title>
<ellipse fill="none" stroke="blue" stroke-dasharray="5,2" cx="266" cy="-179" rx="53.89" ry="18"/>
<text text-anchor="middle" x="266" y="-175.3" font-family="Times,serif" font-size="14.00">aBase (a)</text>
</g>
<!-- 20&#45;&gt;10 -->
<g id="edge1" class="edge">
<title>20&#45;&gt;10</title>
<path fill="none" stroke="blue" d="M266,-160.81C266,-152.79 266,-143.05 266,-134.07"/>
<polygon fill="blue" stroke="blue" points="269.5,-134.03 266,-124.03 262.5,-134.03 269.5,-134.03"/>
</g>
</g>
</svg>
