<?xml version="1.0" encoding="UTF-8" standalone="no"?>
<!DOCTYPE svg PUBLIC "-//W3C//DTD SVG 1.1//EN"
 "http://www.w3.org/Graphics/SVG/1.1/DTD/svg11.dtd">
<!-- Generated by graphviz version 2.43.0 (0)
 -->
<!-- Title: textual_flow_diagram Pages: 1 -->
<svg width="1037pt" height="380pt"
 viewBox="0.00 0.00 1037.00 380.00" xmlns="http://www.w3.org/2000/svg" xmlns:xlink="http://www.w3.org/1999/xlink">
<g id="graph0" class="graph" transform="scale(1 1) rotate(0) translate(4 376)">
<title>textual_flow_diagram</title>
<polygon fill="white" stroke="transparent" points="-4,4 -4,-376 1033,-376 1033,4 -4,4"/>
<g id="clust1" class="cluster">
<title>cluster_legend</title>
<polygon fill="none" stroke="black" points="8,-310 8,-364 204,-364 204,-310 8,-310"/>
</g>
<g id="clust2" class="cluster">
<title>cluster_plot</title>
</g>
<!-- label -->
<g id="node1" class="node">
<title>label</title>
<text text-anchor="middle" x="106" y="-340.8" font-family="Times,serif" font-size="14.00">adstag1.2.35U16&#45;18, a</text>
<text text-anchor="middle" x="106" y="-325.8" font-family="Times,serif" font-size="14.00">Con = 5</text>
</g>
<!-- 0 -->
<g id="node2" class="node">
<title>0</title>
<ellipse fill="none" stroke="black" cx="548" cy="-253" rx="44.39" ry="18"/>
<text text-anchor="middle" x="548" y="-249.3" font-family="Times,serif" font-size="14.00">A25 (a)</text>
</g>
<!-- 22 -->
<g id="node9" class="node">
<title>22</title>
<ellipse fill="none" stroke="black" cx="511" cy="-180" rx="44.39" ry="18"/>
<text text-anchor="middle" x="511" y="-176.3" font-family="Times,serif" font-size="14.00">S32 (a)</text>
</g>
<!-- 0&#45;&gt;22 -->
<g id="edge7" class="edge">
<title>0&#45;&gt;22</title>
<path fill="none" stroke="black" stroke-dasharray="5,2" d="M539.23,-235.17C534.81,-226.69 529.35,-216.21 524.41,-206.73"/>
<polygon fill="black" stroke="black" points="527.43,-204.96 519.71,-197.71 521.22,-208.19 527.43,-204.96"/>
</g>
<!-- 27 -->
<g id="node11" class="node">
<title>27</title>
<ellipse fill="none" stroke="black" cx="622" cy="-180" rx="48.99" ry="18"/>
<text text-anchor="middle" x="622" y="-176.3" font-family="Times,serif" font-size="14.00">La22 (a)</text>
</g>
<!-- 0&#45;&gt;27 -->
<g id="edge9" class="edge">
<title>0&#45;&gt;27</title>
<path fill="none" stroke="black" stroke-dasharray="1,5" d="M564.42,-236.24C574.32,-226.75 587.09,-214.49 598.09,-203.94"/>
<polygon fill="black" stroke="black" points="600.57,-206.41 605.37,-196.96 595.73,-201.36 600.57,-206.41"/>
</g>
<!-- 7 -->
<g id="node3" class="node">
<title>7</title>
<ellipse fill="none" stroke="black" cx="503" cy="-34" rx="50.09" ry="18"/>
<text text-anchor="middle" x="503" y="-30.3" font-family="Times,serif" font-size="14.00">A336 (a)</text>
</g>
<!-- 9 -->
<g id="node4" class="node">
<title>9</title>
<ellipse fill="none" stroke="black" cx="666" cy="-253" rx="55.79" ry="18"/>
<text text-anchor="middle" x="666" y="-249.3" font-family="Times,serif" font-size="14.00">V2250 (a)</text>
</g>
<!-- 11 -->
<g id="node5" class="node">
<title>11</title>
<ellipse fill="none" stroke="black" cx="729" cy="-337" rx="53.89" ry="18"/>
<text text-anchor="middle" x="729" y="-333.3" font-family="Times,serif" font-size="14.00">aBase (a)</text>
</g>
<!-- 11&#45;&gt;0 -->
<g id="edge1" class="edge">
<title>11&#45;&gt;0</title>
<path fill="none" stroke="black" stroke-dasharray="5,2" d="M698.3,-322.09C667.27,-308.03 619.27,-286.29 585.89,-271.17"/>
<polygon fill="black" stroke="black" points="587.02,-267.83 576.46,-266.9 584.13,-274.21 587.02,-267.83"/>
</g>
<!-- 11&#45;&gt;9 -->
<g id="edge3" class="edge">
<title>11&#45;&gt;9</title>
<path fill="none" stroke="black" stroke-width="2" d="M716.25,-319.41C707.28,-307.74 695.13,-291.92 685.02,-278.76"/>
<polygon fill="black" stroke="black" stroke-width="2" points="687.6,-276.37 678.73,-270.57 682.05,-280.63 687.6,-276.37"/>
<text text-anchor="middle" x="704.5" y="-292" font-family="Times,serif" font-size="10.00">3</text>
</g>
<!-- 38 -->
<g id="node13" class="node">
<title>38</title>
<ellipse fill="none" stroke="black" cx="793" cy="-253" rx="52.79" ry="18"/>
<text text-anchor="middle" x="793" y="-249.3" font-family="Times,serif" font-size="14.00">M136 (a)</text>
</g>
<!-- 11&#45;&gt;38 -->
<g id="edge11" class="edge">
<title>11&#45;&gt;38</title>
<path fill="none" stroke="black" stroke-width="2" d="M741.95,-319.41C751.06,-307.74 763.41,-291.92 773.67,-278.76"/>
<polygon fill="black" stroke="black" stroke-width="2" points="776.67,-280.61 780.07,-270.57 771.16,-276.3 776.67,-280.61"/>
</g>
<!-- 43 -->
<g id="node15" class="node">
<title>43</title>
<ellipse fill="none" stroke="black" cx="920" cy="-253" rx="55.79" ry="18"/>
<text text-anchor="middle" x="920" y="-249.3" font-family="Times,serif" font-size="14.00">V1920 (a)</text>
</g>
<!-- 11&#45;&gt;43 -->
<g id="edge13" class="edge">
<title>11&#45;&gt;43</title>
<path fill="none" stroke="black" stroke-width="2" d="M760.97,-322.28C793.2,-308.44 843.09,-287.02 878.39,-271.87"/>
<polygon fill="black" stroke="black" stroke-width="2" points="880.12,-274.93 887.93,-267.77 877.36,-268.5 880.12,-274.93"/>
<text text-anchor="middle" x="838.5" y="-292" font-family="Times,serif" font-size="10.00">2</text>
</g>
<!-- 12 -->
<g id="node6" class="node">
<title>12</title>
<ellipse fill="none" stroke="black" cx="267" cy="-107" rx="46.59" ry="18"/>
<text text-anchor="middle" x="267" y="-103.3" font-family="Times,serif" font-size="14.00">Bodl (a)</text>
</g>
<!-- 13 -->
<g id="node7" class="node">
<title>13</title>
<ellipse fill="none" stroke="black" cx="382" cy="-107" rx="50.09" ry="18"/>
<text text-anchor="middle" x="382" y="-103.3" font-family="Times,serif" font-size="14.00">V571 (a)</text>
</g>
<!-- 21 -->
<g id="node8" class="node">
<title>21</title>
<ellipse fill="none" stroke="black" cx="503" cy="-107" rx="52.79" ry="18"/>
<text text-anchor="middle" x="503" y="-103.3" font-family="Times,serif" font-size="14.00">M111 (a)</text>
</g>
<!-- 21&#45;&gt;7 -->
<g id="edge2" class="edge">
<title>21&#45;&gt;7</title>
<path fill="none" stroke="black" stroke-dasharray="5,2" d="M503,-88.81C503,-80.79 503,-71.05 503,-62.07"/>
<polygon fill="black" stroke="black" points="506.5,-62.03 503,-52.03 499.5,-62.03 506.5,-62.03"/>
</g>
<!-- 26 -->
<g id="node10" class="node">
<title>26</title>
<ellipse fill="none" stroke="black" cx="622" cy="-107" rx="48.99" ry="18"/>
<text text-anchor="middle" x="622" y="-103.3" font-family="Times,serif" font-size="14.00">La35 (a)</text>
</g>
<!-- 27&#45;&gt;12 -->
<g id="edge4" class="edge">
<title>27&#45;&gt;12</title>
<path fill="none" stroke="black" stroke-dasharray="5,2" d="M586.3,-167.73C578.97,-165.64 571.27,-163.62 564,-162 458.22,-138.49 428.67,-149.02 323,-125 319.15,-124.13 315.18,-123.13 311.22,-122.06"/>
<polygon fill="black" stroke="black" points="312.02,-118.65 301.45,-119.3 310.12,-125.38 312.02,-118.65"/>
</g>
<!-- 27&#45;&gt;13 -->
<g id="edge5" class="edge">
<title>27&#45;&gt;13</title>
<path fill="none" stroke="black" stroke-dasharray="1,5" d="M585.29,-168.14C543.45,-155.76 474.96,-135.5 429.19,-121.96"/>
<polygon fill="black" stroke="black" points="430.08,-118.57 419.5,-119.09 428.1,-125.29 430.08,-118.57"/>
</g>
<!-- 27&#45;&gt;21 -->
<g id="edge6" class="edge">
<title>27&#45;&gt;21</title>
<path fill="none" stroke="black" stroke-dasharray="1,5" d="M597.34,-164.29C579.83,-153.84 556.1,-139.68 536.82,-128.18"/>
<polygon fill="black" stroke="black" points="538.42,-125.05 528.03,-122.94 534.83,-131.07 538.42,-125.05"/>
</g>
<!-- 27&#45;&gt;26 -->
<g id="edge8" class="edge">
<title>27&#45;&gt;26</title>
<path fill="none" stroke="black" stroke-dasharray="1,5" d="M622,-161.81C622,-153.79 622,-144.05 622,-135.07"/>
<polygon fill="black" stroke="black" points="625.5,-135.03 622,-125.03 618.5,-135.03 625.5,-135.03"/>
</g>
<!-- 29 -->
<g id="node12" class="node">
<title>29</title>
<ellipse fill="none" stroke="black" cx="739" cy="-107" rx="50.09" ry="18"/>
<text text-anchor="middle" x="739" y="-103.3" font-family="Times,serif" font-size="14.00">V565 (a)</text>
</g>
<!-- 27&#45;&gt;29 -->
<g id="edge10" class="edge">
<title>27&#45;&gt;29</title>
<path fill="none" stroke="black" stroke-dasharray="5,2" d="M646.24,-164.29C663.46,-153.84 686.79,-139.68 705.75,-128.18"/>
<polygon fill="black" stroke="black" points="707.65,-131.12 714.39,-122.94 704.02,-125.13 707.65,-131.12"/>
</g>
<!-- 41 -->
<g id="node14" class="node">
<title>41</title>
<ellipse fill="none" stroke="black" cx="851" cy="-107" rx="44.39" ry="18"/>
<text text-anchor="middle" x="851" y="-103.3" font-family="Times,serif" font-size="14.00">P74 (a)</text>
</g>
<!-- 27&#45;&gt;41 -->
<g id="edge12" class="edge">
<title>27&#45;&gt;41</title>
<path fill="none" stroke="black" stroke-dasharray="1,5" d="M658.45,-167.97C694.07,-157.14 749.82,-140.12 798,-125 801.13,-124.02 804.37,-122.99 807.63,-121.96"/>
<polygon fill="black" stroke="black" points="808.91,-125.23 817.38,-118.86 806.78,-118.56 808.91,-125.23"/>
</g>
<!-- 45 -->
<g id="node16" class="node">
<title>45</title>
<ellipse fill="none" stroke="black" cx="963" cy="-107" rx="50.09" ry="18"/>
<text text-anchor="middle" x="963" y="-103.3" font-family="Times,serif" font-size="14.00">A116 (a)</text>
</g>
<!-- 27&#45;&gt;45 -->
<g id="edge14" class="edge">
<title>27&#45;&gt;45</title>
<path fill="none" stroke="black" stroke-dasharray="5,2" d="M665.74,-171.9C721.41,-162.57 820.37,-145.01 904,-125 908.02,-124.04 912.18,-122.98 916.35,-121.87"/>
<polygon fill="black" stroke="black" points="917.28,-125.24 926,-119.22 915.43,-118.49 917.28,-125.24"/>
</g>
</g>
</svg>
