<?xml version="1.0" encoding="UTF-8" standalone="no"?>
<!DOCTYPE svg PUBLIC "-//W3C//DTD SVG 1.1//EN"
 "http://www.w3.org/Graphics/SVG/1.1/DTD/svg11.dtd">
<!-- Generated by graphviz version 2.43.0 (0)
 -->
<!-- Title: textual_flow_diagram Pages: 1 -->
<svg width="782pt" height="294pt"
 viewBox="0.00 0.00 782.00 294.00" xmlns="http://www.w3.org/2000/svg" xmlns:xlink="http://www.w3.org/1999/xlink">
<g id="graph0" class="graph" transform="scale(1 1) rotate(0) translate(4 290)">
<title>textual_flow_diagram</title>
<polygon fill="white" stroke="transparent" points="-4,4 -4,-290 778,-290 778,4 -4,4"/>
<g id="clust1" class="cluster">
<title>cluster_legend</title>
<polygon fill="none" stroke="black" points="8,-224 8,-278 204,-278 204,-224 8,-224"/>
</g>
<g id="clust2" class="cluster">
<title>cluster_plot</title>
</g>
<!-- label -->
<g id="node1" class="node">
<title>label</title>
<text text-anchor="middle" x="106" y="-254.8" font-family="Times,serif" font-size="14.00">adstag1.2.26U60&#45;62, a</text>
<text text-anchor="middle" x="106" y="-239.8" font-family="Times,serif" font-size="14.00">Con = 1</text>
</g>
<!-- 0 -->
<g id="node2" class="node">
<title>0</title>
<ellipse fill="none" stroke="black" cx="602" cy="-178" rx="44.39" ry="18"/>
<text text-anchor="middle" x="602" y="-174.3" font-family="Times,serif" font-size="14.00">A25 (a)</text>
</g>
<!-- 15 -->
<g id="node7" class="node">
<title>15</title>
<ellipse fill="none" stroke="black" cx="260" cy="-106" rx="40.09" ry="18"/>
<text text-anchor="middle" x="260" y="-102.3" font-family="Times,serif" font-size="14.00">Pal (a)</text>
</g>
<!-- 0&#45;&gt;15 -->
<g id="edge5" class="edge">
<title>0&#45;&gt;15</title>
<path fill="none" stroke="black" stroke-dasharray="5,2" d="M569.44,-165.64C562.73,-163.56 555.68,-161.56 549,-160 443.97,-135.45 413.73,-149.79 309,-124 305.85,-123.23 302.62,-122.33 299.39,-121.37"/>
<polygon fill="black" stroke="black" points="300.39,-118.01 289.8,-118.32 298.27,-124.68 300.39,-118.01"/>
</g>
<!-- 19 -->
<g id="node8" class="node">
<title>19</title>
<ellipse fill="none" stroke="black" cx="368" cy="-106" rx="50.09" ry="18"/>
<text text-anchor="middle" x="368" y="-102.3" font-family="Times,serif" font-size="14.00">V566 (a)</text>
</g>
<!-- 0&#45;&gt;19 -->
<g id="edge6" class="edge">
<title>0&#45;&gt;19</title>
<path fill="none" stroke="black" stroke-dasharray="5,2" d="M568.68,-166.17C562.16,-164.09 555.37,-161.96 549,-160 524.12,-152.37 460.34,-133.78 415.57,-120.78"/>
<polygon fill="black" stroke="black" points="416.34,-117.36 405.76,-117.93 414.39,-124.08 416.34,-117.36"/>
</g>
<!-- 27 -->
<g id="node9" class="node">
<title>27</title>
<ellipse fill="none" stroke="black" cx="485" cy="-106" rx="48.99" ry="18"/>
<text text-anchor="middle" x="485" y="-102.3" font-family="Times,serif" font-size="14.00">La22 (a)</text>
</g>
<!-- 0&#45;&gt;27 -->
<g id="edge7" class="edge">
<title>0&#45;&gt;27</title>
<path fill="none" stroke="black" stroke-dasharray="1,5" d="M578.04,-162.67C560.84,-152.38 537.44,-138.37 518.4,-126.99"/>
<polygon fill="black" stroke="black" points="520.11,-123.93 509.73,-121.8 516.52,-129.94 520.11,-123.93"/>
</g>
<!-- 34 -->
<g id="node12" class="node">
<title>34</title>
<ellipse fill="none" stroke="black" cx="602" cy="-106" rx="50.09" ry="18"/>
<text text-anchor="middle" x="602" y="-102.3" font-family="Times,serif" font-size="14.00">Patm (a)</text>
</g>
<!-- 0&#45;&gt;34 -->
<g id="edge10" class="edge">
<title>0&#45;&gt;34</title>
<path fill="none" stroke="black" stroke-dasharray="1,5" d="M602,-159.7C602,-151.98 602,-142.71 602,-134.11"/>
<polygon fill="black" stroke="black" points="605.5,-134.1 602,-124.1 598.5,-134.1 605.5,-134.1"/>
</g>
<!-- 39 -->
<g id="node13" class="node">
<title>39</title>
<ellipse fill="none" stroke="black" cx="714" cy="-106" rx="44.39" ry="18"/>
<text text-anchor="middle" x="714" y="-102.3" font-family="Times,serif" font-size="14.00">P01 (a)</text>
</g>
<!-- 0&#45;&gt;39 -->
<g id="edge11" class="edge">
<title>0&#45;&gt;39</title>
<path fill="none" stroke="black" stroke-dasharray="5,2" d="M625.21,-162.5C641.73,-152.17 664.12,-138.17 682.29,-126.82"/>
<polygon fill="black" stroke="black" points="684.2,-129.75 690.82,-121.49 680.49,-123.82 684.2,-129.75"/>
</g>
<!-- 7 -->
<g id="node3" class="node">
<title>7</title>
<ellipse fill="none" stroke="black" cx="272" cy="-178" rx="50.09" ry="18"/>
<text text-anchor="middle" x="272" y="-174.3" font-family="Times,serif" font-size="14.00">A336 (a)</text>
</g>
<!-- 10 -->
<g id="node4" class="node">
<title>10</title>
<ellipse fill="none" stroke="black" cx="391" cy="-178" rx="42.79" ry="18"/>
<text text-anchor="middle" x="391" y="-174.3" font-family="Times,serif" font-size="14.00">Bas (a)</text>
</g>
<!-- 11 -->
<g id="node5" class="node">
<title>11</title>
<ellipse fill="none" stroke="black" cx="685" cy="-251" rx="53.89" ry="18"/>
<text text-anchor="middle" x="685" y="-247.3" font-family="Times,serif" font-size="14.00">aBase (a)</text>
</g>
<!-- 11&#45;&gt;0 -->
<g id="edge1" class="edge">
<title>11&#45;&gt;0</title>
<path fill="none" stroke="black" stroke-dasharray="5,2" d="M666.17,-233.89C654.87,-224.22 640.33,-211.79 627.96,-201.2"/>
<polygon fill="black" stroke="black" points="630.06,-198.4 620.19,-194.56 625.51,-203.72 630.06,-198.4"/>
</g>
<!-- 44 -->
<g id="node15" class="node">
<title>44</title>
<ellipse fill="none" stroke="black" cx="707" cy="-178" rx="42.79" ry="18"/>
<text text-anchor="middle" x="707" y="-174.3" font-family="Times,serif" font-size="14.00">La2 (a)</text>
</g>
<!-- 11&#45;&gt;44 -->
<g id="edge13" class="edge">
<title>11&#45;&gt;44</title>
<path fill="none" stroke="black" stroke-width="2" d="M690.33,-232.81C692.84,-224.7 695.9,-214.84 698.7,-205.78"/>
<polygon fill="black" stroke="black" stroke-width="2" points="702.11,-206.62 701.72,-196.03 695.42,-204.54 702.11,-206.62"/>
</g>
<!-- 13 -->
<g id="node6" class="node">
<title>13</title>
<ellipse fill="none" stroke="black" cx="318" cy="-34" rx="50.09" ry="18"/>
<text text-anchor="middle" x="318" y="-30.3" font-family="Times,serif" font-size="14.00">V571 (a)</text>
</g>
<!-- 27&#45;&gt;13 -->
<g id="edge4" class="edge">
<title>27&#45;&gt;13</title>
<path fill="none" stroke="black" stroke-dasharray="1,5" d="M453.98,-92C427.2,-80.77 388.31,-64.47 358.97,-52.17"/>
<polygon fill="black" stroke="black" points="360,-48.81 349.42,-48.17 357.29,-55.26 360,-48.81"/>
</g>
<!-- 29 -->
<g id="node10" class="node">
<title>29</title>
<ellipse fill="none" stroke="black" cx="436" cy="-34" rx="50.09" ry="18"/>
<text text-anchor="middle" x="436" y="-30.3" font-family="Times,serif" font-size="14.00">V565 (a)</text>
</g>
<!-- 27&#45;&gt;29 -->
<g id="edge8" class="edge">
<title>27&#45;&gt;29</title>
<path fill="none" stroke="black" stroke-dasharray="5,2" d="M473.39,-88.41C467.49,-79.99 460.21,-69.58 453.64,-60.2"/>
<polygon fill="black" stroke="black" points="456.47,-58.14 447.87,-51.96 450.74,-62.16 456.47,-58.14"/>
</g>
<!-- 41 -->
<g id="node14" class="node">
<title>41</title>
<ellipse fill="none" stroke="black" cx="548" cy="-34" rx="44.39" ry="18"/>
<text text-anchor="middle" x="548" y="-30.3" font-family="Times,serif" font-size="14.00">P74 (a)</text>
</g>
<!-- 27&#45;&gt;41 -->
<g id="edge12" class="edge">
<title>27&#45;&gt;41</title>
<path fill="none" stroke="black" stroke-dasharray="1,5" d="M499.61,-88.76C507.64,-79.84 517.75,-68.61 526.65,-58.72"/>
<polygon fill="black" stroke="black" points="529.38,-60.92 533.47,-51.15 524.18,-56.24 529.38,-60.92"/>
</g>
<!-- 45 -->
<g id="node16" class="node">
<title>45</title>
<ellipse fill="none" stroke="black" cx="660" cy="-34" rx="50.09" ry="18"/>
<text text-anchor="middle" x="660" y="-30.3" font-family="Times,serif" font-size="14.00">A116 (a)</text>
</g>
<!-- 27&#45;&gt;45 -->
<g id="edge14" class="edge">
<title>27&#45;&gt;45</title>
<path fill="none" stroke="black" stroke-dasharray="5,2" d="M517.1,-92.16C545.5,-80.8 587.13,-64.15 618.15,-51.74"/>
<polygon fill="black" stroke="black" points="619.83,-54.84 627.81,-47.88 617.23,-48.34 619.83,-54.84"/>
</g>
<!-- 30 -->
<g id="node11" class="node">
<title>30</title>
<ellipse fill="none" stroke="black" cx="496" cy="-178" rx="44.39" ry="18"/>
<text text-anchor="middle" x="496" y="-174.3" font-family="Times,serif" font-size="14.00">B39 (a)</text>
</g>
<!-- 2 -->
<g id="node17" class="node">
<title>2</title>
<ellipse fill="none" stroke="blue" stroke-dasharray="5,2" cx="533" cy="-251" rx="62.29" ry="18"/>
<text text-anchor="middle" x="533" y="-247.3" font-family="Times,serif" font-size="14.00">LaSM (cr1)</text>
</g>
<!-- 2&#45;&gt;30 -->
<g id="edge9" class="edge">
<title>2&#45;&gt;30</title>
<path fill="none" stroke="blue" stroke-dasharray="5,2" d="M524.23,-233.17C519.81,-224.69 514.35,-214.21 509.41,-204.73"/>
<polygon fill="blue" stroke="blue" points="512.43,-202.96 504.71,-195.71 506.22,-206.19 512.43,-202.96"/>
</g>
<!-- 17 -->
<g id="node18" class="node">
<title>17</title>
<ellipse fill="none" stroke="blue" stroke-dasharray="5,2" cx="397" cy="-251" rx="55.49" ry="18"/>
<text text-anchor="middle" x="397" y="-247.3" font-family="Times,serif" font-size="14.00">V1897 (c)</text>
</g>
<!-- 17&#45;&gt;10 -->
<g id="edge3" class="edge">
<title>17&#45;&gt;10</title>
<path fill="none" stroke="blue" d="M395.55,-232.81C394.87,-224.79 394.05,-215.05 393.29,-206.07"/>
<polygon fill="blue" stroke="blue" points="396.77,-205.7 392.44,-196.03 389.79,-206.29 396.77,-205.7"/>
</g>
<!-- 21 -->
<g id="node19" class="node">
<title>21</title>
<ellipse fill="none" stroke="blue" stroke-dasharray="5,2" cx="272" cy="-251" rx="51.99" ry="18"/>
<text text-anchor="middle" x="272" y="-247.3" font-family="Times,serif" font-size="14.00">M111 (c)</text>
</g>
<!-- 21&#45;&gt;7 -->
<g id="edge2" class="edge">
<title>21&#45;&gt;7</title>
<path fill="none" stroke="blue" stroke-dasharray="5,2" d="M272,-232.81C272,-224.79 272,-215.05 272,-206.07"/>
<polygon fill="blue" stroke="blue" points="275.5,-206.03 272,-196.03 268.5,-206.03 275.5,-206.03"/>
</g>
</g>
</svg>
