<?xml version="1.0" encoding="UTF-8" standalone="no"?>
<!DOCTYPE svg PUBLIC "-//W3C//DTD SVG 1.1//EN"
 "http://www.w3.org/Graphics/SVG/1.1/DTD/svg11.dtd">
<!-- Generated by graphviz version 2.43.0 (0)
 -->
<!-- Title: textual_flow_diagram Pages: 1 -->
<svg width="366pt" height="222pt"
 viewBox="0.00 0.00 366.00 222.00" xmlns="http://www.w3.org/2000/svg" xmlns:xlink="http://www.w3.org/1999/xlink">
<g id="graph0" class="graph" transform="scale(1 1) rotate(0) translate(4 218)">
<title>textual_flow_diagram</title>
<polygon fill="white" stroke="transparent" points="-4,4 -4,-218 362,-218 362,4 -4,4"/>
<g id="clust1" class="cluster">
<title>cluster_legend</title>
<polygon fill="none" stroke="black" points="8,-152 8,-206 200,-206 200,-152 8,-152"/>
</g>
<g id="clust2" class="cluster">
<title>cluster_plot</title>
</g>
<!-- label -->
<g id="node1" class="node">
<title>label</title>
<text text-anchor="middle" x="104" y="-182.8" font-family="Times,serif" font-size="14.00">adstag1.3.2U6&#45;12, ar1</text>
<text text-anchor="middle" x="104" y="-167.8" font-family="Times,serif" font-size="14.00">Con = 10</text>
</g>
<!-- 0 -->
<g id="node2" class="node">
<title>0</title>
<ellipse fill="none" stroke="black" cx="279" cy="-106" rx="63.09" ry="18"/>
<text text-anchor="middle" x="279" y="-102.3" font-family="Times,serif" font-size="14.00">M111 (ar1)</text>
</g>
<!-- 3 -->
<g id="node3" class="node">
<title>3</title>
<ellipse fill="none" stroke="black" cx="279" cy="-34" rx="59.59" ry="18"/>
<text text-anchor="middle" x="279" y="-30.3" font-family="Times,serif" font-size="14.00">A336 (ar1)</text>
</g>
<!-- 0&#45;&gt;3 -->
<g id="edge2" class="edge">
<title>0&#45;&gt;3</title>
<path fill="none" stroke="black" stroke-dasharray="5,2" d="M279,-87.7C279,-79.98 279,-70.71 279,-62.11"/>
<polygon fill="black" stroke="black" points="282.5,-62.1 279,-52.1 275.5,-62.1 282.5,-62.1"/>
</g>
<!-- 26 -->
<g id="node4" class="node">
<title>26</title>
<ellipse fill="none" stroke="blue" stroke-dasharray="5,2" cx="279" cy="-179" rx="48.99" ry="18"/>
<text text-anchor="middle" x="279" y="-175.3" font-family="Times,serif" font-size="14.00">La22 (a)</text>
</g>
<!-- 26&#45;&gt;0 -->
<g id="edge1" class="edge">
<title>26&#45;&gt;0</title>
<path fill="none" stroke="black" stroke-dasharray="1,5" d="M279,-160.81C279,-152.79 279,-143.05 279,-134.07"/>
<polygon fill="black" stroke="black" points="282.5,-134.03 279,-124.03 275.5,-134.03 282.5,-134.03"/>
</g>
</g>
</svg>
