<?xml version="1.0" encoding="UTF-8" standalone="no"?>
<!DOCTYPE svg PUBLIC "-//W3C//DTD SVG 1.1//EN"
 "http://www.w3.org/Graphics/SVG/1.1/DTD/svg11.dtd">
<!-- Generated by graphviz version 2.43.0 (0)
 -->
<!-- Title: textual_flow_diagram Pages: 1 -->
<svg width="438pt" height="438pt"
 viewBox="0.00 0.00 438.00 438.00" xmlns="http://www.w3.org/2000/svg" xmlns:xlink="http://www.w3.org/1999/xlink">
<g id="graph0" class="graph" transform="scale(1 1) rotate(0) translate(4 434)">
<title>textual_flow_diagram</title>
<polygon fill="white" stroke="transparent" points="-4,4 -4,-434 434,-434 434,4 -4,4"/>
<g id="clust1" class="cluster">
<title>cluster_legend</title>
<polygon fill="none" stroke="black" points="8,-368 8,-422 182,-422 182,-368 8,-368"/>
</g>
<g id="clust2" class="cluster">
<title>cluster_plot</title>
</g>
<!-- label -->
<g id="node1" class="node">
<title>label</title>
<text text-anchor="middle" x="95" y="-398.8" font-family="Times,serif" font-size="14.00">adstag1.3.8U2&#45;18, f</text>
<text text-anchor="middle" x="95" y="-383.8" font-family="Times,serif" font-size="14.00">Con = 5</text>
</g>
<!-- 1 -->
<g id="node2" class="node">
<title>1</title>
<ellipse fill="none" stroke="black" cx="246" cy="-178" rx="48.19" ry="18"/>
<text text-anchor="middle" x="246" y="-174.3" font-family="Times,serif" font-size="14.00">Marc (f)</text>
</g>
<!-- 28 -->
<g id="node5" class="node">
<title>28</title>
<ellipse fill="none" stroke="black" cx="246" cy="-106" rx="44.39" ry="18"/>
<text text-anchor="middle" x="246" y="-102.3" font-family="Times,serif" font-size="14.00">Mon (f)</text>
</g>
<!-- 1&#45;&gt;28 -->
<g id="edge4" class="edge">
<title>1&#45;&gt;28</title>
<path fill="none" stroke="black" stroke-dasharray="1,5" d="M246,-159.7C246,-151.98 246,-142.71 246,-134.11"/>
<polygon fill="black" stroke="black" points="249.5,-134.1 246,-124.1 242.5,-134.1 249.5,-134.1"/>
</g>
<!-- 4 -->
<g id="node3" class="node">
<title>4</title>
<ellipse fill="none" stroke="black" cx="246" cy="-34" rx="38.99" ry="18"/>
<text text-anchor="middle" x="246" y="-30.3" font-family="Times,serif" font-size="14.00">Sin (f)</text>
</g>
<!-- 11 -->
<g id="node4" class="node">
<title>11</title>
<ellipse fill="none" stroke="black" cx="361" cy="-250" rx="44.69" ry="18"/>
<text text-anchor="middle" x="361" y="-246.3" font-family="Times,serif" font-size="14.00">Taur (f)</text>
</g>
<!-- 11&#45;&gt;1 -->
<g id="edge1" class="edge">
<title>11&#45;&gt;1</title>
<path fill="none" stroke="black" stroke-dasharray="1,5" d="M337.45,-234.67C320.62,-224.42 297.75,-210.5 279.09,-199.14"/>
<polygon fill="black" stroke="black" points="280.67,-196.01 270.31,-193.8 277.03,-201.99 280.67,-196.01"/>
</g>
<!-- 29 -->
<g id="node6" class="node">
<title>29</title>
<ellipse fill="none" stroke="black" cx="363" cy="-178" rx="50.89" ry="18"/>
<text text-anchor="middle" x="363" y="-174.3" font-family="Times,serif" font-size="14.00">M118 (f)</text>
</g>
<!-- 11&#45;&gt;29 -->
<g id="edge5" class="edge">
<title>11&#45;&gt;29</title>
<path fill="none" stroke="black" stroke-dasharray="5,2" d="M361.49,-231.7C361.71,-223.98 361.98,-214.71 362.23,-206.11"/>
<polygon fill="black" stroke="black" points="365.72,-206.2 362.51,-196.1 358.73,-206 365.72,-206.2"/>
</g>
<!-- 28&#45;&gt;4 -->
<g id="edge2" class="edge">
<title>28&#45;&gt;4</title>
<path fill="none" stroke="black" stroke-dasharray="1,5" d="M246,-87.7C246,-79.98 246,-70.71 246,-62.11"/>
<polygon fill="black" stroke="black" points="249.5,-62.1 246,-52.1 242.5,-62.1 249.5,-62.1"/>
</g>
<!-- 32 -->
<g id="node7" class="node">
<title>32</title>
<ellipse fill="none" stroke="black" cx="247" cy="-322" rx="48.19" ry="18"/>
<text text-anchor="middle" x="247" y="-318.3" font-family="Times,serif" font-size="14.00">V536 (f)</text>
</g>
<!-- 38 -->
<g id="node8" class="node">
<title>38</title>
<ellipse fill="none" stroke="black" cx="361" cy="-322" rx="48.19" ry="18"/>
<text text-anchor="middle" x="361" y="-318.3" font-family="Times,serif" font-size="14.00">V568 (f)</text>
</g>
<!-- 38&#45;&gt;11 -->
<g id="edge3" class="edge">
<title>38&#45;&gt;11</title>
<path fill="none" stroke="black" stroke-dasharray="1,5" d="M361,-303.7C361,-295.98 361,-286.71 361,-278.11"/>
<polygon fill="black" stroke="black" points="364.5,-278.1 361,-268.1 357.5,-278.1 364.5,-278.1"/>
</g>
<!-- 24 -->
<g id="node9" class="node">
<title>24</title>
<ellipse fill="none" stroke="blue" stroke-dasharray="5,2" cx="306" cy="-395" rx="55.79" ry="18"/>
<text text-anchor="middle" x="306" y="-391.3" font-family="Times,serif" font-size="14.00">V1629 (a)</text>
</g>
<!-- 24&#45;&gt;32 -->
<g id="edge6" class="edge">
<title>24&#45;&gt;32</title>
<path fill="none" stroke="blue" stroke-dasharray="5,2" d="M292.32,-377.53C284.87,-368.57 275.51,-357.31 267.24,-347.36"/>
<polygon fill="blue" stroke="blue" points="269.69,-344.83 260.61,-339.38 264.31,-349.31 269.69,-344.83"/>
</g>
<!-- 24&#45;&gt;38 -->
<g id="edge7" class="edge">
<title>24&#45;&gt;38</title>
<path fill="none" stroke="blue" stroke-dasharray="5,2" d="M319.03,-377.17C325.82,-368.42 334.24,-357.55 341.75,-347.85"/>
<polygon fill="blue" stroke="blue" points="344.7,-349.75 348.06,-339.71 339.17,-345.47 344.7,-349.75"/>
</g>
</g>
</svg>
