<?xml version="1.0" encoding="UTF-8" standalone="no"?>
<!DOCTYPE svg PUBLIC "-//W3C//DTD SVG 1.1//EN"
 "http://www.w3.org/Graphics/SVG/1.1/DTD/svg11.dtd">
<!-- Generated by graphviz version 2.43.0 (0)
 -->
<!-- Title: textual_flow_diagram Pages: 1 -->
<svg width="568pt" height="222pt"
 viewBox="0.00 0.00 568.00 222.00" xmlns="http://www.w3.org/2000/svg" xmlns:xlink="http://www.w3.org/1999/xlink">
<g id="graph0" class="graph" transform="scale(1 1) rotate(0) translate(4 218)">
<title>textual_flow_diagram</title>
<polygon fill="white" stroke="transparent" points="-4,4 -4,-218 564,-218 564,4 -4,4"/>
<g id="clust1" class="cluster">
<title>cluster_legend</title>
<polygon fill="none" stroke="black" points="8,-152 8,-206 186,-206 186,-152 8,-152"/>
</g>
<g id="clust2" class="cluster">
<title>cluster_plot</title>
</g>
<!-- label -->
<g id="node1" class="node">
<title>label</title>
<text text-anchor="middle" x="97" y="-182.8" font-family="Times,serif" font-size="14.00">adstag1.3.22U4&#45;6, c</text>
<text text-anchor="middle" x="97" y="-167.8" font-family="Times,serif" font-size="14.00">Con = 5</text>
</g>
<!-- 11 -->
<g id="node2" class="node">
<title>11</title>
<ellipse fill="none" stroke="black" cx="489" cy="-106" rx="55.49" ry="18"/>
<text text-anchor="middle" x="489" y="-102.3" font-family="Times,serif" font-size="14.00">V1920 (c)</text>
</g>
<!-- 24 -->
<g id="node3" class="node">
<title>24</title>
<ellipse fill="none" stroke="black" cx="254" cy="-106" rx="51.99" ry="18"/>
<text text-anchor="middle" x="254" y="-102.3" font-family="Times,serif" font-size="14.00">M111 (c)</text>
</g>
<!-- 35 -->
<g id="node6" class="node">
<title>35</title>
<ellipse fill="none" stroke="black" cx="252" cy="-34" rx="49.29" ry="18"/>
<text text-anchor="middle" x="252" y="-30.3" font-family="Times,serif" font-size="14.00">A336 (c)</text>
</g>
<!-- 24&#45;&gt;35 -->
<g id="edge5" class="edge">
<title>24&#45;&gt;35</title>
<path fill="none" stroke="black" stroke-dasharray="5,2" d="M253.51,-87.7C253.29,-79.98 253.02,-70.71 252.77,-62.11"/>
<polygon fill="black" stroke="black" points="256.27,-62 252.49,-52.1 249.28,-62.2 256.27,-62"/>
</g>
<!-- 25 -->
<g id="node4" class="node">
<title>25</title>
<ellipse fill="none" stroke="black" cx="372" cy="-106" rx="44.39" ry="18"/>
<text text-anchor="middle" x="372" y="-102.3" font-family="Times,serif" font-size="14.00">Nan (c)</text>
</g>
<!-- 29 -->
<g id="node5" class="node">
<title>29</title>
<ellipse fill="none" stroke="black" cx="375" cy="-34" rx="55.49" ry="18"/>
<text text-anchor="middle" x="375" y="-30.3" font-family="Times,serif" font-size="14.00">V2250 (c)</text>
</g>
<!-- 25&#45;&gt;29 -->
<g id="edge4" class="edge">
<title>25&#45;&gt;29</title>
<path fill="none" stroke="black" stroke-dasharray="5,2" d="M372.74,-87.7C373.07,-79.98 373.47,-70.71 373.84,-62.11"/>
<polygon fill="black" stroke="black" points="377.34,-62.25 374.27,-52.1 370.34,-61.95 377.34,-62.25"/>
</g>
<!-- 17 -->
<g id="node7" class="node">
<title>17</title>
<ellipse fill="none" stroke="blue" stroke-dasharray="5,2" cx="494" cy="-179" rx="50.09" ry="18"/>
<text text-anchor="middle" x="494" y="-175.3" font-family="Times,serif" font-size="14.00">V560 (d)</text>
</g>
<!-- 17&#45;&gt;11 -->
<g id="edge1" class="edge">
<title>17&#45;&gt;11</title>
<path fill="none" stroke="blue" stroke-dasharray="5,2" d="M492.79,-160.81C492.22,-152.79 491.54,-143.05 490.91,-134.07"/>
<polygon fill="blue" stroke="blue" points="494.39,-133.76 490.2,-124.03 487.41,-134.25 494.39,-133.76"/>
</g>
<!-- 36 -->
<g id="node8" class="node">
<title>36</title>
<ellipse fill="none" stroke="blue" stroke-dasharray="5,2" cx="372" cy="-179" rx="53.89" ry="18"/>
<text text-anchor="middle" x="372" y="-175.3" font-family="Times,serif" font-size="14.00">aBase (a)</text>
</g>
<!-- 36&#45;&gt;25 -->
<g id="edge3" class="edge">
<title>36&#45;&gt;25</title>
<path fill="none" stroke="blue" d="M372,-160.81C372,-152.79 372,-143.05 372,-134.07"/>
<polygon fill="blue" stroke="blue" points="375.5,-134.03 372,-124.03 368.5,-134.03 375.5,-134.03"/>
</g>
<!-- 38 -->
<g id="node9" class="node">
<title>38</title>
<ellipse fill="none" stroke="blue" stroke-dasharray="5,2" cx="251" cy="-179" rx="49.29" ry="18"/>
<text text-anchor="middle" x="251" y="-175.3" font-family="Times,serif" font-size="14.00">La22 (d)</text>
</g>
<!-- 38&#45;&gt;24 -->
<g id="edge2" class="edge">
<title>38&#45;&gt;24</title>
<path fill="none" stroke="blue" stroke-dasharray="1,5" d="M251.73,-160.81C252.07,-152.79 252.48,-143.05 252.86,-134.07"/>
<polygon fill="blue" stroke="blue" points="256.36,-134.17 253.28,-124.03 249.36,-133.87 256.36,-134.17"/>
</g>
</g>
</svg>
