<?xml version="1.0" encoding="UTF-8" standalone="no"?>
<!DOCTYPE svg PUBLIC "-//W3C//DTD SVG 1.1//EN"
 "http://www.w3.org/Graphics/SVG/1.1/DTD/svg11.dtd">
<!-- Generated by graphviz version 2.43.0 (0)
 -->
<!-- Title: textual_flow_diagram Pages: 1 -->
<svg width="1874pt" height="390pt"
 viewBox="0.00 0.00 1874.00 390.00" xmlns="http://www.w3.org/2000/svg" xmlns:xlink="http://www.w3.org/1999/xlink">
<g id="graph0" class="graph" transform="scale(1 1) rotate(0) translate(4 386)">
<title>textual_flow_diagram</title>
<polygon fill="white" stroke="transparent" points="-4,4 -4,-386 1870,-386 1870,4 -4,4"/>
<g id="clust1" class="cluster">
<title>cluster_legend</title>
<polygon fill="none" stroke="black" points="8,-320 8,-374 204,-374 204,-320 8,-320"/>
</g>
<g id="clust2" class="cluster">
<title>cluster_plot</title>
</g>
<!-- label -->
<g id="node1" class="node">
<title>label</title>
<text text-anchor="middle" x="106" y="-350.8" font-family="Times,serif" font-size="14.00">adstag1.3.33U38&#45;40, b</text>
<text text-anchor="middle" x="106" y="-335.8" font-family="Times,serif" font-size="14.00">Con = 3</text>
</g>
<!-- 0 -->
<g id="node2" class="node">
<title>0</title>
<ellipse fill="none" stroke="black" cx="878" cy="-107" rx="53.09" ry="18"/>
<text text-anchor="middle" x="878" y="-103.3" font-family="Times,serif" font-size="14.00">M136 (b)</text>
</g>
<!-- 1 -->
<g id="node3" class="node">
<title>1</title>
<ellipse fill="none" stroke="black" cx="993" cy="-107" rx="44.39" ry="18"/>
<text text-anchor="middle" x="993" y="-103.3" font-family="Times,serif" font-size="14.00">P74 (b)</text>
</g>
<!-- 2 -->
<g id="node4" class="node">
<title>2</title>
<ellipse fill="none" stroke="black" cx="264" cy="-190" rx="44.39" ry="18"/>
<text text-anchor="middle" x="264" y="-186.3" font-family="Times,serif" font-size="14.00">S32 (b)</text>
</g>
<!-- 3 -->
<g id="node5" class="node">
<title>3</title>
<ellipse fill="none" stroke="black" cx="635" cy="-107" rx="42.49" ry="18"/>
<text text-anchor="middle" x="635" y="-103.3" font-family="Times,serif" font-size="14.00">Est (b)</text>
</g>
<!-- 4 -->
<g id="node6" class="node">
<title>4</title>
<ellipse fill="none" stroke="black" cx="394" cy="-107" rx="55.79" ry="18"/>
<text text-anchor="middle" x="394" y="-103.3" font-family="Times,serif" font-size="14.00">V1639 (b)</text>
</g>
<!-- 7 -->
<g id="node7" class="node">
<title>7</title>
<ellipse fill="none" stroke="black" cx="1105" cy="-107" rx="50.09" ry="18"/>
<text text-anchor="middle" x="1105" y="-103.3" font-family="Times,serif" font-size="14.00">A116 (b)</text>
</g>
<!-- 8 -->
<g id="node8" class="node">
<title>8</title>
<ellipse fill="none" stroke="black" cx="276" cy="-34" rx="55.79" ry="18"/>
<text text-anchor="middle" x="276" y="-30.3" font-family="Times,serif" font-size="14.00">V1920 (b)</text>
</g>
<!-- 9 -->
<g id="node9" class="node">
<title>9</title>
<ellipse fill="none" stroke="black" cx="376" cy="-190" rx="50.09" ry="18"/>
<text text-anchor="middle" x="376" y="-186.3" font-family="Times,serif" font-size="14.00">Patm (b)</text>
</g>
<!-- 39 -->
<g id="node25" class="node">
<title>39</title>
<ellipse fill="none" stroke="black" cx="270" cy="-107" rx="50.09" ry="18"/>
<text text-anchor="middle" x="270" y="-103.3" font-family="Times,serif" font-size="14.00">V560 (b)</text>
</g>
<!-- 9&#45;&gt;39 -->
<g id="edge24" class="edge">
<title>9&#45;&gt;39</title>
<path fill="none" stroke="black" stroke-width="2" d="M355.56,-173.38C339.43,-161.06 316.73,-143.71 298.76,-129.98"/>
<polygon fill="black" stroke="black" stroke-width="2" points="300.45,-126.86 290.38,-123.57 296.2,-132.42 300.45,-126.86"/>
<text text-anchor="middle" x="332.5" y="-146" font-family="Times,serif" font-size="10.00">2</text>
</g>
<!-- 11 -->
<g id="node10" class="node">
<title>11</title>
<ellipse fill="none" stroke="black" cx="494" cy="-190" rx="50.09" ry="18"/>
<text text-anchor="middle" x="494" y="-186.3" font-family="Times,serif" font-size="14.00">V566 (b)</text>
</g>
<!-- 11&#45;&gt;4 -->
<g id="edge5" class="edge">
<title>11&#45;&gt;4</title>
<path fill="none" stroke="black" stroke-dasharray="1,5" d="M474.72,-173.38C459.7,-161.21 438.63,-144.15 421.79,-130.51"/>
<polygon fill="black" stroke="black" points="423.88,-127.7 413.91,-124.12 419.47,-133.14 423.88,-127.7"/>
</g>
<!-- 12 -->
<g id="node11" class="node">
<title>12</title>
<ellipse fill="none" stroke="black" cx="1222" cy="-107" rx="49.29" ry="18"/>
<text text-anchor="middle" x="1222" y="-103.3" font-family="Times,serif" font-size="14.00">La35 (b)</text>
</g>
<!-- 13 -->
<g id="node12" class="node">
<title>13</title>
<ellipse fill="none" stroke="black" cx="643" cy="-273" rx="44.39" ry="18"/>
<text text-anchor="middle" x="643" y="-269.3" font-family="Times,serif" font-size="14.00">A25 (b)</text>
</g>
<!-- 13&#45;&gt;2 -->
<g id="edge3" class="edge">
<title>13&#45;&gt;2</title>
<path fill="none" stroke="black" stroke-dasharray="5,2" d="M602.51,-265.61C540.54,-255.49 418.65,-234.19 317,-208 313.62,-207.13 310.14,-206.17 306.66,-205.16"/>
<polygon fill="black" stroke="black" points="307.49,-201.75 296.91,-202.21 305.47,-208.45 307.49,-201.75"/>
</g>
<!-- 13&#45;&gt;9 -->
<g id="edge8" class="edge">
<title>13&#45;&gt;9</title>
<path fill="none" stroke="black" stroke-dasharray="1,5" d="M608.64,-261.58C561.4,-247.25 476.23,-221.41 423.09,-205.28"/>
<polygon fill="black" stroke="black" points="423.81,-201.85 413.23,-202.29 421.78,-208.55 423.81,-201.85"/>
</g>
<!-- 13&#45;&gt;11 -->
<g id="edge9" class="edge">
<title>13&#45;&gt;11</title>
<path fill="none" stroke="black" stroke-dasharray="5,2" d="M617.39,-258.08C593.2,-244.93 556.7,-225.08 529.66,-210.39"/>
<polygon fill="black" stroke="black" points="530.99,-207.13 520.53,-205.42 527.65,-213.28 530.99,-207.13"/>
</g>
<!-- 18 -->
<g id="node14" class="node">
<title>18</title>
<ellipse fill="none" stroke="black" cx="612" cy="-190" rx="50.09" ry="18"/>
<text text-anchor="middle" x="612" y="-186.3" font-family="Times,serif" font-size="14.00">S249 (b)</text>
</g>
<!-- 13&#45;&gt;18 -->
<g id="edge13" class="edge">
<title>13&#45;&gt;18</title>
<path fill="none" stroke="black" stroke-dasharray="5,2" d="M636.43,-254.82C632.25,-243.9 626.75,-229.55 622.04,-217.22"/>
<polygon fill="black" stroke="black" points="625.3,-215.96 618.46,-207.88 618.76,-218.47 625.3,-215.96"/>
<text text-anchor="middle" x="632.5" y="-229" font-family="Times,serif" font-size="10.00">2</text>
</g>
<!-- 25 -->
<g id="node17" class="node">
<title>25</title>
<ellipse fill="none" stroke="black" cx="724" cy="-190" rx="44.39" ry="18"/>
<text text-anchor="middle" x="724" y="-186.3" font-family="Times,serif" font-size="14.00">P01 (b)</text>
</g>
<!-- 13&#45;&gt;25 -->
<g id="edge16" class="edge">
<title>13&#45;&gt;25</title>
<path fill="none" stroke="black" stroke-dasharray="5,2" d="M659,-256C670.98,-244.02 687.55,-227.45 700.96,-214.04"/>
<polygon fill="black" stroke="black" points="703.43,-216.52 708.03,-206.97 698.48,-211.57 703.43,-216.52"/>
</g>
<!-- 30 -->
<g id="node20" class="node">
<title>30</title>
<ellipse fill="none" stroke="black" cx="842" cy="-190" rx="55.79" ry="18"/>
<text text-anchor="middle" x="842" y="-186.3" font-family="Times,serif" font-size="14.00">V1897 (b)</text>
</g>
<!-- 13&#45;&gt;30 -->
<g id="edge19" class="edge">
<title>13&#45;&gt;30</title>
<path fill="none" stroke="black" stroke-dasharray="5,2" d="M673.22,-259.7C706.9,-245.99 761.6,-223.72 799.56,-208.27"/>
<polygon fill="black" stroke="black" points="800.89,-211.51 808.83,-204.5 798.25,-205.03 800.89,-211.51"/>
<text text-anchor="middle" x="757.5" y="-229" font-family="Times,serif" font-size="10.00">3</text>
</g>
<!-- 31 -->
<g id="node21" class="node">
<title>31</title>
<ellipse fill="none" stroke="black" cx="1222" cy="-190" rx="49.29" ry="18"/>
<text text-anchor="middle" x="1222" y="-186.3" font-family="Times,serif" font-size="14.00">La22 (b)</text>
</g>
<!-- 13&#45;&gt;31 -->
<g id="edge20" class="edge">
<title>13&#45;&gt;31</title>
<path fill="none" stroke="black" stroke-dasharray="1,5" d="M684.18,-266.24C786.25,-251.96 1051.02,-214.92 1166.64,-198.75"/>
<polygon fill="black" stroke="black" points="1167.27,-202.19 1176.69,-197.34 1166.3,-195.26 1167.27,-202.19"/>
<text text-anchor="middle" x="970.5" y="-229" font-family="Times,serif" font-size="10.00">2</text>
</g>
<!-- 40 -->
<g id="node26" class="node">
<title>40</title>
<ellipse fill="none" stroke="black" cx="1330" cy="-190" rx="40.09" ry="18"/>
<text text-anchor="middle" x="1330" y="-186.3" font-family="Times,serif" font-size="14.00">Pal (b)</text>
</g>
<!-- 13&#45;&gt;40 -->
<g id="edge25" class="edge">
<title>13&#45;&gt;40</title>
<path fill="none" stroke="black" stroke-dasharray="5,2" d="M687.17,-271.01C791.5,-267.93 1060.87,-255.61 1280,-208 1283.46,-207.25 1287.02,-206.33 1290.57,-205.33"/>
<polygon fill="black" stroke="black" points="1291.91,-208.58 1300.44,-202.29 1289.85,-201.89 1291.91,-208.58"/>
</g>
<!-- 16 -->
<g id="node13" class="node">
<title>16</title>
<ellipse fill="none" stroke="black" cx="521" cy="-107" rx="53.09" ry="18"/>
<text text-anchor="middle" x="521" y="-103.3" font-family="Times,serif" font-size="14.00">LaSM (b)</text>
</g>
<!-- 23 -->
<g id="node16" class="node">
<title>23</title>
<ellipse fill="none" stroke="black" cx="521" cy="-34" rx="44.69" ry="18"/>
<text text-anchor="middle" x="521" y="-30.3" font-family="Times,serif" font-size="14.00">B39 (b)</text>
</g>
<!-- 16&#45;&gt;23 -->
<g id="edge15" class="edge">
<title>16&#45;&gt;23</title>
<path fill="none" stroke="black" stroke-dasharray="5,2" d="M521,-88.81C521,-80.79 521,-71.05 521,-62.07"/>
<polygon fill="black" stroke="black" points="524.5,-62.03 521,-52.03 517.5,-62.03 524.5,-62.03"/>
</g>
<!-- 20 -->
<g id="node15" class="node">
<title>20</title>
<ellipse fill="none" stroke="black" cx="751" cy="-107" rx="55.79" ry="18"/>
<text text-anchor="middle" x="751" y="-103.3" font-family="Times,serif" font-size="14.00">V2250 (b)</text>
</g>
<!-- 25&#45;&gt;16 -->
<g id="edge12" class="edge">
<title>25&#45;&gt;16</title>
<path fill="none" stroke="black" stroke-dasharray="5,2" d="M693.61,-176.87C659.04,-163.08 602.37,-140.47 563.45,-124.94"/>
<polygon fill="black" stroke="black" points="564.55,-121.61 553.96,-121.15 561.95,-128.11 564.55,-121.61"/>
<text text-anchor="middle" x="637.5" y="-146" font-family="Times,serif" font-size="10.00">2</text>
</g>
<!-- 27 -->
<g id="node18" class="node">
<title>27</title>
<ellipse fill="none" stroke="black" cx="1339" cy="-107" rx="50.09" ry="18"/>
<text text-anchor="middle" x="1339" y="-103.3" font-family="Times,serif" font-size="14.00">V565 (b)</text>
</g>
<!-- 28 -->
<g id="node19" class="node">
<title>28</title>
<ellipse fill="none" stroke="black" cx="1460" cy="-107" rx="53.09" ry="18"/>
<text text-anchor="middle" x="1460" y="-103.3" font-family="Times,serif" font-size="14.00">M111 (b)</text>
</g>
<!-- 30&#45;&gt;3 -->
<g id="edge4" class="edge">
<title>30&#45;&gt;3</title>
<path fill="none" stroke="black" stroke-dasharray="1,5" d="M807.82,-175.62C771.19,-161.29 713.13,-138.57 674.55,-123.48"/>
<polygon fill="black" stroke="black" points="675.78,-120.2 665.19,-119.81 673.23,-126.72 675.78,-120.2"/>
</g>
<!-- 30&#45;&gt;20 -->
<g id="edge14" class="edge">
<title>30&#45;&gt;20</title>
<path fill="none" stroke="black" stroke-dasharray="5,2" d="M823.58,-172.61C810.18,-160.67 791.83,-144.35 776.94,-131.09"/>
<polygon fill="black" stroke="black" points="778.87,-128.13 769.08,-124.09 774.22,-133.35 778.87,-128.13"/>
<text text-anchor="middle" x="804.5" y="-146" font-family="Times,serif" font-size="10.00">2</text>
</g>
<!-- 31&#45;&gt;0 -->
<g id="edge1" class="edge">
<title>31&#45;&gt;0</title>
<path fill="none" stroke="black" d="M1180.29,-180.14C1125.14,-168.29 1024.98,-146.28 940,-125 935.92,-123.98 931.7,-122.89 927.46,-121.77"/>
<polygon fill="black" stroke="black" points="928.19,-118.34 917.62,-119.15 926.38,-125.11 928.19,-118.34"/>
<text text-anchor="middle" x="1058.5" y="-146" font-family="Times,serif" font-size="10.00">2</text>
</g>
<!-- 31&#45;&gt;1 -->
<g id="edge2" class="edge">
<title>31&#45;&gt;1</title>
<path fill="none" stroke="black" stroke-dasharray="1,5" d="M1187.72,-176.87C1146.88,-162.43 1078.7,-138.31 1034.81,-122.79"/>
<polygon fill="black" stroke="black" points="1035.89,-119.46 1025.29,-119.42 1033.55,-126.06 1035.89,-119.46"/>
</g>
<!-- 31&#45;&gt;7 -->
<g id="edge6" class="edge">
<title>31&#45;&gt;7</title>
<path fill="none" stroke="black" stroke-dasharray="5,2" d="M1199.99,-173.76C1181.81,-161.17 1155.78,-143.16 1135.57,-129.17"/>
<polygon fill="black" stroke="black" points="1137.52,-126.26 1127.31,-123.44 1133.54,-132.01 1137.52,-126.26"/>
</g>
<!-- 31&#45;&gt;12 -->
<g id="edge10" class="edge">
<title>31&#45;&gt;12</title>
<path fill="none" stroke="black" stroke-dasharray="1,5" d="M1222,-171.82C1222,-161.19 1222,-147.31 1222,-135.2"/>
<polygon fill="black" stroke="black" points="1225.5,-135.15 1222,-125.15 1218.5,-135.15 1225.5,-135.15"/>
</g>
<!-- 31&#45;&gt;27 -->
<g id="edge17" class="edge">
<title>31&#45;&gt;27</title>
<path fill="none" stroke="black" stroke-dasharray="5,2" d="M1244.01,-173.76C1262.19,-161.17 1288.22,-143.16 1308.43,-129.17"/>
<polygon fill="black" stroke="black" points="1310.46,-132.01 1316.69,-123.44 1306.48,-126.26 1310.46,-132.01"/>
</g>
<!-- 31&#45;&gt;28 -->
<g id="edge18" class="edge">
<title>31&#45;&gt;28</title>
<path fill="none" stroke="black" stroke-dasharray="1,5" d="M1256.86,-177.14C1298.48,-162.97 1368.21,-139.24 1414.16,-123.6"/>
<polygon fill="black" stroke="black" points="1415.54,-126.83 1423.87,-120.29 1413.28,-120.2 1415.54,-126.83"/>
</g>
<!-- 33 -->
<g id="node22" class="node">
<title>33</title>
<ellipse fill="none" stroke="black" cx="1579" cy="-107" rx="47.39" ry="18"/>
<text text-anchor="middle" x="1579" y="-103.3" font-family="Times,serif" font-size="14.00">Bodl (b)</text>
</g>
<!-- 31&#45;&gt;33 -->
<g id="edge21" class="edge">
<title>31&#45;&gt;33</title>
<path fill="none" stroke="black" stroke-dasharray="5,2" d="M1258.69,-177.89C1266.05,-175.81 1273.75,-173.75 1281,-172 1387.09,-146.42 1416.03,-151.07 1522,-125 1525.84,-124.06 1529.8,-123.01 1533.77,-121.92"/>
<polygon fill="black" stroke="black" points="1534.9,-125.24 1543.57,-119.15 1533,-118.51 1534.9,-125.24"/>
</g>
<!-- 35 -->
<g id="node23" class="node">
<title>35</title>
<ellipse fill="none" stroke="black" cx="1688" cy="-107" rx="43.59" ry="18"/>
<text text-anchor="middle" x="1688" y="-103.3" font-family="Times,serif" font-size="14.00">La2 (b)</text>
</g>
<!-- 31&#45;&gt;35 -->
<g id="edge22" class="edge">
<title>31&#45;&gt;35</title>
<path fill="none" stroke="black" d="M1258.3,-177.63C1265.75,-175.55 1273.59,-173.55 1281,-172 1358.67,-155.75 1557.58,-142.41 1635,-125 1638.66,-124.18 1642.42,-123.21 1646.18,-122.17"/>
<polygon fill="black" stroke="black" points="1647.42,-125.45 1656.02,-119.27 1645.44,-118.74 1647.42,-125.45"/>
<text text-anchor="middle" x="1510.5" y="-146" font-family="Times,serif" font-size="10.00">2</text>
</g>
<!-- 36 -->
<g id="node24" class="node">
<title>36</title>
<ellipse fill="none" stroke="black" cx="1800" cy="-107" rx="50.09" ry="18"/>
<text text-anchor="middle" x="1800" y="-103.3" font-family="Times,serif" font-size="14.00">V571 (b)</text>
</g>
<!-- 31&#45;&gt;36 -->
<g id="edge23" class="edge">
<title>31&#45;&gt;36</title>
<path fill="none" stroke="black" stroke-dasharray="1,5" d="M1257.6,-177.47C1265.25,-175.35 1273.34,-173.38 1281,-172 1384.96,-153.28 1412.92,-164.82 1518,-154 1617.42,-143.77 1643.15,-145.34 1741,-125 1745.11,-124.15 1749.35,-123.15 1753.59,-122.08"/>
<polygon fill="black" stroke="black" points="1754.63,-125.43 1763.39,-119.48 1752.83,-118.66 1754.63,-125.43"/>
</g>
<!-- 39&#45;&gt;8 -->
<g id="edge7" class="edge">
<title>39&#45;&gt;8</title>
<path fill="none" stroke="black" stroke-dasharray="5,2" d="M271.45,-88.81C272.13,-80.79 272.95,-71.05 273.71,-62.07"/>
<polygon fill="black" stroke="black" points="277.21,-62.29 274.56,-52.03 270.23,-61.7 277.21,-62.29"/>
</g>
<!-- 37 -->
<g id="node27" class="node">
<title>37</title>
<ellipse fill="none" stroke="blue" stroke-dasharray="5,2" cx="643" cy="-347" rx="53.89" ry="18"/>
<text text-anchor="middle" x="643" y="-343.3" font-family="Times,serif" font-size="14.00">aBase (a)</text>
</g>
<!-- 37&#45;&gt;13 -->
<g id="edge11" class="edge">
<title>37&#45;&gt;13</title>
<path fill="none" stroke="blue" stroke-dasharray="5,2" d="M643,-328.94C643,-320.81 643,-310.88 643,-301.7"/>
<polygon fill="blue" stroke="blue" points="646.5,-301.44 643,-291.44 639.5,-301.44 646.5,-301.44"/>
</g>
</g>
</svg>
