<?xml version="1.0" encoding="UTF-8" standalone="no"?>
<!DOCTYPE svg PUBLIC "-//W3C//DTD SVG 1.1//EN"
 "http://www.w3.org/Graphics/SVG/1.1/DTD/svg11.dtd">
<!-- Generated by graphviz version 2.43.0 (0)
 -->
<!-- Title: textual_flow_diagram Pages: 1 -->
<svg width="1378pt" height="911pt"
 viewBox="0.00 0.00 1378.00 911.00" xmlns="http://www.w3.org/2000/svg" xmlns:xlink="http://www.w3.org/1999/xlink">
<g id="graph0" class="graph" transform="scale(1 1) rotate(0) translate(4 907)">
<title>textual_flow_diagram</title>
<polygon fill="white" stroke="transparent" points="-4,4 -4,-907 1374,-907 1374,4 -4,4"/>
<g id="clust1" class="cluster">
<title>cluster_legend</title>
<polygon fill="none" stroke="black" points="8,-841 8,-895 182,-895 182,-841 8,-841"/>
</g>
<g id="clust2" class="cluster">
<title>cluster_plot</title>
</g>
<!-- label -->
<g id="node1" class="node">
<title>label</title>
<text text-anchor="middle" x="95" y="-871.8" font-family="Times,serif" font-size="14.00">adstag1.3.28U36, b</text>
<text text-anchor="middle" x="95" y="-856.8" font-family="Times,serif" font-size="14.00">Con = 5</text>
</g>
<!-- 0 -->
<g id="node2" class="node">
<title>0</title>
<ellipse fill="none" stroke="black" cx="493" cy="-34" rx="41.69" ry="18"/>
<text text-anchor="middle" x="493" y="-30.3" font-family="Times,serif" font-size="14.00">Sin (b)</text>
</g>
<!-- 1 -->
<g id="node3" class="node">
<title>1</title>
<ellipse fill="none" stroke="black" cx="264" cy="-711" rx="44.39" ry="18"/>
<text text-anchor="middle" x="264" y="-707.3" font-family="Times,serif" font-size="14.00">S32 (b)</text>
</g>
<!-- 2 -->
<g id="node4" class="node">
<title>2</title>
<ellipse fill="none" stroke="black" cx="377" cy="-628" rx="49.29" ry="18"/>
<text text-anchor="middle" x="377" y="-624.3" font-family="Times,serif" font-size="14.00">La35 (b)</text>
</g>
<!-- 3 -->
<g id="node5" class="node">
<title>3</title>
<ellipse fill="none" stroke="black" cx="492" cy="-628" rx="47.39" ry="18"/>
<text text-anchor="middle" x="492" y="-624.3" font-family="Times,serif" font-size="14.00">Bodl (b)</text>
</g>
<!-- 4 -->
<g id="node6" class="node">
<title>4</title>
<ellipse fill="none" stroke="black" cx="366" cy="-711" rx="40.09" ry="18"/>
<text text-anchor="middle" x="366" y="-707.3" font-family="Times,serif" font-size="14.00">Pal (b)</text>
</g>
<!-- 5 -->
<g id="node7" class="node">
<title>5</title>
<ellipse fill="none" stroke="black" cx="468" cy="-711" rx="44.39" ry="18"/>
<text text-anchor="middle" x="468" y="-707.3" font-family="Times,serif" font-size="14.00">P01 (b)</text>
</g>
<!-- 6 -->
<g id="node8" class="node">
<title>6</title>
<ellipse fill="none" stroke="black" cx="254" cy="-628" rx="55.79" ry="18"/>
<text text-anchor="middle" x="254" y="-624.3" font-family="Times,serif" font-size="14.00">V1639 (b)</text>
</g>
<!-- 33 -->
<g id="node23" class="node">
<title>33</title>
<ellipse fill="none" stroke="black" cx="264" cy="-545" rx="65.79" ry="18"/>
<text text-anchor="middle" x="264" y="-541.3" font-family="Times,serif" font-size="14.00">Savile&#45;Η (b)</text>
</g>
<!-- 6&#45;&gt;33 -->
<g id="edge22" class="edge">
<title>6&#45;&gt;33</title>
<path fill="none" stroke="black" d="M256.12,-609.82C257.43,-599.19 259.15,-585.31 260.64,-573.2"/>
<polygon fill="black" stroke="black" points="264.13,-573.51 261.88,-563.15 257.18,-572.65 264.13,-573.51"/>
<text text-anchor="middle" x="262.5" y="-584" font-family="Times,serif" font-size="10.00">2</text>
</g>
<!-- 8 -->
<g id="node9" class="node">
<title>8</title>
<ellipse fill="none" stroke="black" cx="611" cy="-472" rx="55.79" ry="18"/>
<text text-anchor="middle" x="611" y="-468.3" font-family="Times,serif" font-size="14.00">V1629 (b)</text>
</g>
<!-- 40 -->
<g id="node30" class="node">
<title>40</title>
<ellipse fill="none" stroke="black" cx="611" cy="-399" rx="50.09" ry="18"/>
<text text-anchor="middle" x="611" y="-395.3" font-family="Times,serif" font-size="14.00">V536 (b)</text>
</g>
<!-- 8&#45;&gt;40 -->
<g id="edge29" class="edge">
<title>8&#45;&gt;40</title>
<path fill="none" stroke="black" stroke-dasharray="5,2" d="M611,-453.81C611,-445.79 611,-436.05 611,-427.07"/>
<polygon fill="black" stroke="black" points="614.5,-427.03 611,-417.03 607.5,-427.03 614.5,-427.03"/>
</g>
<!-- 10 -->
<g id="node10" class="node">
<title>10</title>
<ellipse fill="none" stroke="black" cx="493" cy="-180" rx="50.09" ry="18"/>
<text text-anchor="middle" x="493" y="-176.3" font-family="Times,serif" font-size="14.00">Marc (b)</text>
</g>
<!-- 21 -->
<g id="node17" class="node">
<title>21</title>
<ellipse fill="none" stroke="black" cx="493" cy="-107" rx="46.59" ry="18"/>
<text text-anchor="middle" x="493" y="-103.3" font-family="Times,serif" font-size="14.00">Mon (b)</text>
</g>
<!-- 10&#45;&gt;21 -->
<g id="edge16" class="edge">
<title>10&#45;&gt;21</title>
<path fill="none" stroke="black" stroke-dasharray="1,5" d="M493,-161.81C493,-153.79 493,-144.05 493,-135.07"/>
<polygon fill="black" stroke="black" points="496.5,-135.03 493,-125.03 489.5,-135.03 496.5,-135.03"/>
</g>
<!-- 13 -->
<g id="node11" class="node">
<title>13</title>
<ellipse fill="none" stroke="black" cx="611" cy="-628" rx="53.09" ry="18"/>
<text text-anchor="middle" x="611" y="-624.3" font-family="Times,serif" font-size="14.00">M136 (b)</text>
</g>
<!-- 31 -->
<g id="node22" class="node">
<title>31</title>
<ellipse fill="none" stroke="black" cx="611" cy="-545" rx="50.89" ry="18"/>
<text text-anchor="middle" x="611" y="-541.3" font-family="Times,serif" font-size="14.00">Neap (b)</text>
</g>
<!-- 13&#45;&gt;31 -->
<g id="edge21" class="edge">
<title>13&#45;&gt;31</title>
<path fill="none" stroke="black" stroke-dasharray="5,2" d="M611,-609.82C611,-599.19 611,-585.31 611,-573.2"/>
<polygon fill="black" stroke="black" points="614.5,-573.15 611,-563.15 607.5,-573.15 614.5,-573.15"/>
<text text-anchor="middle" x="614.5" y="-584" font-family="Times,serif" font-size="10.00">2</text>
</g>
<!-- 15 -->
<g id="node12" class="node">
<title>15</title>
<ellipse fill="none" stroke="black" cx="611" cy="-326" rx="50.09" ry="18"/>
<text text-anchor="middle" x="611" y="-322.3" font-family="Times,serif" font-size="14.00">V568 (b)</text>
</g>
<!-- 25 -->
<g id="node19" class="node">
<title>25</title>
<ellipse fill="none" stroke="black" cx="611" cy="-253" rx="47.39" ry="18"/>
<text text-anchor="middle" x="611" y="-249.3" font-family="Times,serif" font-size="14.00">Taur (b)</text>
</g>
<!-- 15&#45;&gt;25 -->
<g id="edge18" class="edge">
<title>15&#45;&gt;25</title>
<path fill="none" stroke="black" stroke-dasharray="1,5" d="M611,-307.81C611,-299.79 611,-290.05 611,-281.07"/>
<polygon fill="black" stroke="black" points="614.5,-281.03 611,-271.03 607.5,-281.03 614.5,-281.03"/>
</g>
<!-- 16 -->
<g id="node13" class="node">
<title>16</title>
<ellipse fill="none" stroke="black" cx="726" cy="-628" rx="44.39" ry="18"/>
<text text-anchor="middle" x="726" y="-624.3" font-family="Times,serif" font-size="14.00">P74 (b)</text>
</g>
<!-- 17 -->
<g id="node14" class="node">
<title>17</title>
<ellipse fill="none" stroke="black" cx="639" cy="-794" rx="44.39" ry="18"/>
<text text-anchor="middle" x="639" y="-790.3" font-family="Times,serif" font-size="14.00">A25 (b)</text>
</g>
<!-- 17&#45;&gt;1 -->
<g id="edge2" class="edge">
<title>17&#45;&gt;1</title>
<path fill="none" stroke="black" stroke-dasharray="5,2" d="M598.76,-786.52C537.48,-776.32 417.29,-754.96 317,-729 313.62,-728.13 310.15,-727.16 306.66,-726.15"/>
<polygon fill="black" stroke="black" points="307.49,-722.74 296.91,-723.2 305.47,-729.44 307.49,-722.74"/>
</g>
<!-- 17&#45;&gt;4 -->
<g id="edge5" class="edge">
<title>17&#45;&gt;4</title>
<path fill="none" stroke="black" stroke-dasharray="5,2" d="M603.12,-783.41C558.74,-771.4 480.95,-749.84 415,-729 412.09,-728.08 409.09,-727.11 406.08,-726.11"/>
<polygon fill="black" stroke="black" points="407.09,-722.75 396.49,-722.87 404.85,-729.39 407.09,-722.75"/>
</g>
<!-- 17&#45;&gt;5 -->
<g id="edge6" class="edge">
<title>17&#45;&gt;5</title>
<path fill="none" stroke="black" stroke-dasharray="5,2" d="M611.15,-779.81C582.33,-766.16 537.16,-744.76 505.28,-729.66"/>
<polygon fill="black" stroke="black" points="506.38,-726.31 495.84,-725.19 503.38,-732.63 506.38,-726.31"/>
</g>
<!-- 24 -->
<g id="node18" class="node">
<title>24</title>
<ellipse fill="none" stroke="black" cx="580" cy="-711" rx="50.09" ry="18"/>
<text text-anchor="middle" x="580" y="-707.3" font-family="Times,serif" font-size="14.00">Patm (b)</text>
</g>
<!-- 17&#45;&gt;24 -->
<g id="edge17" class="edge">
<title>17&#45;&gt;24</title>
<path fill="none" stroke="black" stroke-dasharray="1,5" d="M627.06,-776.61C618.8,-765.27 607.65,-749.96 598.27,-737.09"/>
<polygon fill="black" stroke="black" points="600.84,-734.67 592.12,-728.65 595.18,-738.79 600.84,-734.67"/>
</g>
<!-- 36 -->
<g id="node26" class="node">
<title>36</title>
<ellipse fill="none" stroke="black" cx="698" cy="-711" rx="50.09" ry="18"/>
<text text-anchor="middle" x="698" y="-707.3" font-family="Times,serif" font-size="14.00">V566 (b)</text>
</g>
<!-- 17&#45;&gt;36 -->
<g id="edge25" class="edge">
<title>17&#45;&gt;36</title>
<path fill="none" stroke="black" stroke-dasharray="5,2" d="M650.94,-776.61C659.2,-765.27 670.35,-749.96 679.73,-737.09"/>
<polygon fill="black" stroke="black" points="682.82,-738.79 685.88,-728.65 677.16,-734.67 682.82,-738.79"/>
</g>
<!-- 37 -->
<g id="node27" class="node">
<title>37</title>
<ellipse fill="none" stroke="black" cx="815" cy="-711" rx="49.29" ry="18"/>
<text text-anchor="middle" x="815" y="-707.3" font-family="Times,serif" font-size="14.00">La22 (b)</text>
</g>
<!-- 17&#45;&gt;37 -->
<g id="edge26" class="edge">
<title>17&#45;&gt;37</title>
<path fill="none" stroke="black" stroke-dasharray="1,5" d="M667.28,-779.99C696.82,-766.39 743.35,-744.97 776.29,-729.81"/>
<polygon fill="black" stroke="black" points="778,-732.88 785.62,-725.52 775.07,-726.52 778,-732.88"/>
<text text-anchor="middle" x="740.5" y="-750" font-family="Times,serif" font-size="10.00">2</text>
</g>
<!-- 38 -->
<g id="node28" class="node">
<title>38</title>
<ellipse fill="none" stroke="black" cx="925" cy="-711" rx="42.49" ry="18"/>
<text text-anchor="middle" x="925" y="-707.3" font-family="Times,serif" font-size="14.00">Est (b)</text>
</g>
<!-- 17&#45;&gt;38 -->
<g id="edge27" class="edge">
<title>17&#45;&gt;38</title>
<path fill="none" stroke="black" d="M675.23,-783.68C721.36,-771.68 803.41,-749.88 873,-729 876.33,-728 879.77,-726.94 883.22,-725.85"/>
<polygon fill="black" stroke="black" points="884.44,-729.14 892.9,-722.77 882.31,-722.47 884.44,-729.14"/>
<text text-anchor="middle" x="812.5" y="-750" font-family="Times,serif" font-size="10.00">4</text>
</g>
<!-- 42 -->
<g id="node32" class="node">
<title>42</title>
<ellipse fill="none" stroke="black" cx="1035" cy="-711" rx="50.09" ry="18"/>
<text text-anchor="middle" x="1035" y="-707.3" font-family="Times,serif" font-size="14.00">S249 (b)</text>
</g>
<!-- 17&#45;&gt;42 -->
<g id="edge31" class="edge">
<title>17&#45;&gt;42</title>
<path fill="none" stroke="black" stroke-dasharray="5,2" d="M679.46,-786.57C742.99,-776.18 869.85,-754.32 976,-729 980.02,-728.04 984.18,-726.98 988.35,-725.87"/>
<polygon fill="black" stroke="black" points="989.28,-729.25 998,-723.23 987.43,-722.5 989.28,-729.25"/>
<text text-anchor="middle" x="896.5" y="-750" font-family="Times,serif" font-size="10.00">2</text>
</g>
<!-- 19 -->
<g id="node15" class="node">
<title>19</title>
<ellipse fill="none" stroke="black" cx="1183" cy="-545" rx="50.09" ry="18"/>
<text text-anchor="middle" x="1183" y="-541.3" font-family="Times,serif" font-size="14.00">A336 (b)</text>
</g>
<!-- 20 -->
<g id="node16" class="node">
<title>20</title>
<ellipse fill="none" stroke="black" cx="838" cy="-628" rx="50.09" ry="18"/>
<text text-anchor="middle" x="838" y="-624.3" font-family="Times,serif" font-size="14.00">A116 (b)</text>
</g>
<!-- 21&#45;&gt;0 -->
<g id="edge1" class="edge">
<title>21&#45;&gt;0</title>
<path fill="none" stroke="black" stroke-dasharray="1,5" d="M493,-88.81C493,-80.79 493,-71.05 493,-62.07"/>
<polygon fill="black" stroke="black" points="496.5,-62.03 493,-52.03 489.5,-62.03 496.5,-62.03"/>
</g>
<!-- 25&#45;&gt;10 -->
<g id="edge9" class="edge">
<title>25&#45;&gt;10</title>
<path fill="none" stroke="black" stroke-dasharray="1,5" d="M586.84,-237.46C569.37,-226.95 545.57,-212.63 526.3,-201.04"/>
<polygon fill="black" stroke="black" points="527.91,-197.92 517.54,-195.76 524.3,-203.92 527.91,-197.92"/>
</g>
<!-- 29 -->
<g id="node21" class="node">
<title>29</title>
<ellipse fill="none" stroke="black" cx="611" cy="-180" rx="50.09" ry="18"/>
<text text-anchor="middle" x="611" y="-176.3" font-family="Times,serif" font-size="14.00">V569 (b)</text>
</g>
<!-- 25&#45;&gt;29 -->
<g id="edge20" class="edge">
<title>25&#45;&gt;29</title>
<path fill="none" stroke="black" stroke-dasharray="5,2" d="M611,-234.81C611,-226.79 611,-217.05 611,-208.07"/>
<polygon fill="black" stroke="black" points="614.5,-208.03 611,-198.03 607.5,-208.03 614.5,-208.03"/>
</g>
<!-- 34 -->
<g id="node24" class="node">
<title>34</title>
<ellipse fill="none" stroke="black" cx="732" cy="-180" rx="53.09" ry="18"/>
<text text-anchor="middle" x="732" y="-176.3" font-family="Times,serif" font-size="14.00">M118 (b)</text>
</g>
<!-- 25&#45;&gt;34 -->
<g id="edge23" class="edge">
<title>25&#45;&gt;34</title>
<path fill="none" stroke="black" stroke-dasharray="5,2" d="M635.78,-237.46C653.65,-226.98 677.99,-212.69 697.72,-201.11"/>
<polygon fill="black" stroke="black" points="699.57,-204.09 706.42,-196.01 696.02,-198.05 699.57,-204.09"/>
</g>
<!-- 26 -->
<g id="node20" class="node">
<title>26</title>
<ellipse fill="none" stroke="black" cx="956" cy="-628" rx="50.09" ry="18"/>
<text text-anchor="middle" x="956" y="-624.3" font-family="Times,serif" font-size="14.00">V565 (b)</text>
</g>
<!-- 31&#45;&gt;8 -->
<g id="edge8" class="edge">
<title>31&#45;&gt;8</title>
<path fill="none" stroke="black" stroke-dasharray="1,5" d="M611,-526.81C611,-518.79 611,-509.05 611,-500.07"/>
<polygon fill="black" stroke="black" points="614.5,-500.03 611,-490.03 607.5,-500.03 614.5,-500.03"/>
</g>
<!-- 35 -->
<g id="node25" class="node">
<title>35</title>
<ellipse fill="none" stroke="black" cx="1068" cy="-628" rx="43.59" ry="18"/>
<text text-anchor="middle" x="1068" y="-624.3" font-family="Times,serif" font-size="14.00">La2 (b)</text>
</g>
<!-- 36&#45;&gt;6 -->
<g id="edge7" class="edge">
<title>36&#45;&gt;6</title>
<path fill="none" stroke="black" stroke-dasharray="1,5" d="M661.37,-698.62C654.01,-696.57 646.29,-694.58 639,-693 498.51,-662.59 459.86,-674.67 319,-646 314.32,-645.05 309.47,-643.96 304.63,-642.82"/>
<polygon fill="black" stroke="black" points="305.3,-639.38 294.75,-640.39 303.63,-646.18 305.3,-639.38"/>
</g>
<!-- 37&#45;&gt;2 -->
<g id="edge3" class="edge">
<title>37&#45;&gt;2</title>
<path fill="none" stroke="black" stroke-dasharray="1,5" d="M779.02,-698.54C771.78,-696.49 764.18,-694.53 757,-693 698.66,-680.58 683.03,-683.55 624,-675 540.33,-662.89 518.56,-664.19 436,-646 431.84,-645.08 427.55,-644.04 423.26,-642.93"/>
<polygon fill="black" stroke="black" points="423.89,-639.48 413.32,-640.25 422.07,-646.24 423.89,-639.48"/>
</g>
<!-- 37&#45;&gt;3 -->
<g id="edge4" class="edge">
<title>37&#45;&gt;3</title>
<path fill="none" stroke="black" stroke-dasharray="5,2" d="M778.28,-698.86C771.24,-696.83 763.91,-694.79 757,-693 665.26,-669.22 640.69,-670 549,-646 545.18,-645 541.22,-643.92 537.26,-642.8"/>
<polygon fill="black" stroke="black" points="538.05,-639.39 527.47,-639.98 536.11,-646.11 538.05,-639.39"/>
</g>
<!-- 37&#45;&gt;13 -->
<g id="edge10" class="edge">
<title>37&#45;&gt;13</title>
<path fill="none" stroke="black" d="M782.68,-697.17C747.77,-683.31 692.02,-661.17 653.57,-645.9"/>
<polygon fill="black" stroke="black" points="654.77,-642.62 644.19,-642.18 652.19,-649.12 654.77,-642.62"/>
<text text-anchor="middle" x="728.5" y="-667" font-family="Times,serif" font-size="10.00">2</text>
</g>
<!-- 37&#45;&gt;16 -->
<g id="edge12" class="edge">
<title>37&#45;&gt;16</title>
<path fill="none" stroke="black" stroke-dasharray="1,5" d="M797.42,-694C784.17,-681.94 765.82,-665.24 751.03,-651.78"/>
<polygon fill="black" stroke="black" points="753,-648.84 743.24,-644.69 748.28,-654.01 753,-648.84"/>
</g>
<!-- 37&#45;&gt;20 -->
<g id="edge15" class="edge">
<title>37&#45;&gt;20</title>
<path fill="none" stroke="black" stroke-dasharray="5,2" d="M819.88,-692.82C822.93,-682.08 826.92,-668.03 830.38,-655.84"/>
<polygon fill="black" stroke="black" points="833.76,-656.73 833.13,-646.15 827.03,-654.82 833.76,-656.73"/>
</g>
<!-- 37&#45;&gt;26 -->
<g id="edge19" class="edge">
<title>37&#45;&gt;26</title>
<path fill="none" stroke="black" stroke-dasharray="5,2" d="M840.21,-695.52C862.92,-682.47 896.52,-663.17 921.68,-648.71"/>
<polygon fill="black" stroke="black" points="923.61,-651.65 930.53,-643.63 920.12,-645.58 923.61,-651.65"/>
</g>
<!-- 37&#45;&gt;35 -->
<g id="edge24" class="edge">
<title>37&#45;&gt;35</title>
<path fill="none" stroke="black" d="M850.77,-698.56C890.79,-685.76 957.54,-664.41 1015,-646 1018.27,-644.95 1021.66,-643.87 1025.07,-642.77"/>
<polygon fill="black" stroke="black" points="1026.19,-646.09 1034.64,-639.7 1024.05,-639.42 1026.19,-646.09"/>
<text text-anchor="middle" x="957.5" y="-667" font-family="Times,serif" font-size="10.00">2</text>
</g>
<!-- 39 -->
<g id="node29" class="node">
<title>39</title>
<ellipse fill="none" stroke="black" cx="1183" cy="-628" rx="53.09" ry="18"/>
<text text-anchor="middle" x="1183" y="-624.3" font-family="Times,serif" font-size="14.00">M111 (b)</text>
</g>
<!-- 37&#45;&gt;39 -->
<g id="edge28" class="edge">
<title>37&#45;&gt;39</title>
<path fill="none" stroke="black" stroke-dasharray="1,5" d="M851.68,-698.86C859.04,-696.79 866.74,-694.73 874,-693 928.35,-680.03 1066.57,-658.62 1121,-646 1125.16,-645.04 1129.46,-643.98 1133.77,-642.88"/>
<polygon fill="black" stroke="black" points="1134.97,-646.18 1143.76,-640.27 1133.2,-639.41 1134.97,-646.18"/>
</g>
<!-- 41 -->
<g id="node31" class="node">
<title>41</title>
<ellipse fill="none" stroke="black" cx="1304" cy="-628" rx="50.09" ry="18"/>
<text text-anchor="middle" x="1304" y="-624.3" font-family="Times,serif" font-size="14.00">V571 (b)</text>
</g>
<!-- 37&#45;&gt;41 -->
<g id="edge30" class="edge">
<title>37&#45;&gt;41</title>
<path fill="none" stroke="black" stroke-dasharray="1,5" d="M851.29,-698.59C858.75,-696.52 866.59,-694.53 874,-693 955.39,-676.22 1163.61,-662.78 1245,-646 1249.17,-645.14 1253.47,-644.14 1257.77,-643.05"/>
<polygon fill="black" stroke="black" points="1258.95,-646.36 1267.71,-640.41 1257.15,-639.6 1258.95,-646.36"/>
</g>
<!-- 39&#45;&gt;19 -->
<g id="edge14" class="edge">
<title>39&#45;&gt;19</title>
<path fill="none" stroke="black" stroke-dasharray="5,2" d="M1183,-609.82C1183,-599.19 1183,-585.31 1183,-573.2"/>
<polygon fill="black" stroke="black" points="1186.5,-573.15 1183,-563.15 1179.5,-573.15 1186.5,-573.15"/>
</g>
<!-- 40&#45;&gt;15 -->
<g id="edge11" class="edge">
<title>40&#45;&gt;15</title>
<path fill="none" stroke="black" stroke-dasharray="1,5" d="M611,-380.81C611,-372.79 611,-363.05 611,-354.07"/>
<polygon fill="black" stroke="black" points="614.5,-354.03 611,-344.03 607.5,-354.03 614.5,-354.03"/>
</g>
<!-- 14 -->
<g id="node33" class="node">
<title>14</title>
<ellipse fill="none" stroke="blue" stroke-dasharray="5,2" cx="639" cy="-868" rx="53.89" ry="18"/>
<text text-anchor="middle" x="639" y="-864.3" font-family="Times,serif" font-size="14.00">aBase (a)</text>
</g>
<!-- 14&#45;&gt;17 -->
<g id="edge13" class="edge">
<title>14&#45;&gt;17</title>
<path fill="none" stroke="blue" stroke-dasharray="5,2" d="M639,-849.94C639,-841.81 639,-831.88 639,-822.7"/>
<polygon fill="blue" stroke="blue" points="642.5,-822.44 639,-812.44 635.5,-822.44 642.5,-822.44"/>
</g>
</g>
</svg>
