<?xml version="1.0" encoding="UTF-8" standalone="no"?>
<!DOCTYPE svg PUBLIC "-//W3C//DTD SVG 1.1//EN"
 "http://www.w3.org/Graphics/SVG/1.1/DTD/svg11.dtd">
<!-- Generated by graphviz version 2.43.0 (0)
 -->
<!-- Title: textual_flow_diagram Pages: 1 -->
<svg width="642pt" height="453pt"
 viewBox="0.00 0.00 642.00 453.00" xmlns="http://www.w3.org/2000/svg" xmlns:xlink="http://www.w3.org/1999/xlink">
<g id="graph0" class="graph" transform="scale(1 1) rotate(0) translate(4 449)">
<title>textual_flow_diagram</title>
<polygon fill="white" stroke="transparent" points="-4,4 -4,-449 638,-449 638,4 -4,4"/>
<g id="clust1" class="cluster">
<title>cluster_legend</title>
<polygon fill="none" stroke="black" points="8,-383 8,-437 180,-437 180,-383 8,-383"/>
</g>
<g id="clust2" class="cluster">
<title>cluster_plot</title>
</g>
<!-- label -->
<g id="node1" class="node">
<title>label</title>
<text text-anchor="middle" x="94" y="-413.8" font-family="Times,serif" font-size="14.00">adstag1.2.10U36, c</text>
<text text-anchor="middle" x="94" y="-398.8" font-family="Times,serif" font-size="14.00">Con = 3</text>
</g>
<!-- 0 -->
<g id="node2" class="node">
<title>0</title>
<ellipse fill="none" stroke="black" cx="568" cy="-336" rx="49.29" ry="18"/>
<text text-anchor="middle" x="568" y="-332.3" font-family="Times,serif" font-size="14.00">V568 (c)</text>
</g>
<!-- 38 -->
<g id="node9" class="node">
<title>38</title>
<ellipse fill="none" stroke="black" cx="572" cy="-253" rx="46.29" ry="18"/>
<text text-anchor="middle" x="572" y="-249.3" font-family="Times,serif" font-size="14.00">Taur (c)</text>
</g>
<!-- 0&#45;&gt;38 -->
<g id="edge8" class="edge">
<title>0&#45;&gt;38</title>
<path fill="none" stroke="black" stroke-dasharray="1,5" d="M568.85,-317.82C569.37,-307.19 570.06,-293.31 570.66,-281.2"/>
<polygon fill="black" stroke="black" points="574.16,-281.31 571.15,-271.15 567.16,-280.97 574.16,-281.31"/>
</g>
<!-- 8 -->
<g id="node3" class="node">
<title>8</title>
<ellipse fill="none" stroke="black" cx="251" cy="-253" rx="55.49" ry="18"/>
<text text-anchor="middle" x="251" y="-249.3" font-family="Times,serif" font-size="14.00">V2250 (c)</text>
</g>
<!-- 16 -->
<g id="node4" class="node">
<title>16</title>
<ellipse fill="none" stroke="black" cx="455" cy="-180" rx="40.09" ry="18"/>
<text text-anchor="middle" x="455" y="-176.3" font-family="Times,serif" font-size="14.00">Sin (c)</text>
</g>
<!-- 31 -->
<g id="node8" class="node">
<title>31</title>
<ellipse fill="none" stroke="black" cx="455" cy="-107" rx="49.29" ry="18"/>
<text text-anchor="middle" x="455" y="-103.3" font-family="Times,serif" font-size="14.00">Marc (c)</text>
</g>
<!-- 16&#45;&gt;31 -->
<g id="edge7" class="edge">
<title>16&#45;&gt;31</title>
<path fill="none" stroke="black" stroke-dasharray="1,5" d="M455,-161.81C455,-153.79 455,-144.05 455,-135.07"/>
<polygon fill="black" stroke="black" points="458.5,-135.03 455,-125.03 451.5,-135.03 458.5,-135.03"/>
</g>
<!-- 18 -->
<g id="node5" class="node">
<title>18</title>
<ellipse fill="none" stroke="black" cx="366" cy="-253" rx="42.49" ry="18"/>
<text text-anchor="middle" x="366" y="-249.3" font-family="Times,serif" font-size="14.00">Bas (c)</text>
</g>
<!-- 24 -->
<g id="node6" class="node">
<title>24</title>
<ellipse fill="none" stroke="black" cx="467" cy="-253" rx="40.89" ry="18"/>
<text text-anchor="middle" x="467" y="-249.3" font-family="Times,serif" font-size="14.00">Est (c)</text>
</g>
<!-- 27 -->
<g id="node7" class="node">
<title>27</title>
<ellipse fill="none" stroke="black" cx="366" cy="-336" rx="44.39" ry="18"/>
<text text-anchor="middle" x="366" y="-332.3" font-family="Times,serif" font-size="14.00">Nan (c)</text>
</g>
<!-- 27&#45;&gt;8 -->
<g id="edge2" class="edge">
<title>27&#45;&gt;8</title>
<path fill="none" stroke="black" stroke-dasharray="5,2" d="M344.91,-320.14C327.09,-307.59 301.35,-289.47 281.33,-275.36"/>
<polygon fill="black" stroke="black" points="283.33,-272.49 273.13,-269.59 279.29,-278.21 283.33,-272.49"/>
</g>
<!-- 27&#45;&gt;18 -->
<g id="edge4" class="edge">
<title>27&#45;&gt;18</title>
<path fill="none" stroke="black" d="M366,-317.82C366,-307.19 366,-293.31 366,-281.2"/>
<polygon fill="black" stroke="black" points="369.5,-281.15 366,-271.15 362.5,-281.15 369.5,-281.15"/>
<text text-anchor="middle" x="369.5" y="-292" font-family="Times,serif" font-size="10.00">2</text>
</g>
<!-- 27&#45;&gt;24 -->
<g id="edge5" class="edge">
<title>27&#45;&gt;24</title>
<path fill="none" stroke="black" stroke-dasharray="1,5" d="M385.47,-319.38C401.04,-306.9 423.03,-289.26 440.25,-275.45"/>
<polygon fill="black" stroke="black" points="442.66,-278.01 448.27,-269.02 438.28,-272.55 442.66,-278.01"/>
<text text-anchor="middle" x="425.5" y="-292" font-family="Times,serif" font-size="10.00">2</text>
</g>
<!-- 42 -->
<g id="node11" class="node">
<title>42</title>
<ellipse fill="none" stroke="black" cx="455" cy="-34" rx="46.29" ry="18"/>
<text text-anchor="middle" x="455" y="-30.3" font-family="Times,serif" font-size="14.00">Mon (c)</text>
</g>
<!-- 31&#45;&gt;42 -->
<g id="edge10" class="edge">
<title>31&#45;&gt;42</title>
<path fill="none" stroke="black" stroke-dasharray="1,5" d="M455,-88.81C455,-80.79 455,-71.05 455,-62.07"/>
<polygon fill="black" stroke="black" points="458.5,-62.03 455,-52.03 451.5,-62.03 458.5,-62.03"/>
</g>
<!-- 38&#45;&gt;16 -->
<g id="edge3" class="edge">
<title>38&#45;&gt;16</title>
<path fill="none" stroke="black" stroke-dasharray="1,5" d="M548.04,-237.46C530.38,-226.74 506.18,-212.06 486.88,-200.35"/>
<polygon fill="black" stroke="black" points="488.49,-197.23 478.13,-195.04 484.86,-203.22 488.49,-197.23"/>
</g>
<!-- 44 -->
<g id="node12" class="node">
<title>44</title>
<ellipse fill="none" stroke="black" cx="566" cy="-180" rx="51.99" ry="18"/>
<text text-anchor="middle" x="566" y="-176.3" font-family="Times,serif" font-size="14.00">M118 (c)</text>
</g>
<!-- 38&#45;&gt;44 -->
<g id="edge11" class="edge">
<title>38&#45;&gt;44</title>
<path fill="none" stroke="black" stroke-dasharray="5,2" d="M570.55,-234.81C569.87,-226.79 569.05,-217.05 568.29,-208.07"/>
<polygon fill="black" stroke="black" points="571.77,-207.7 567.44,-198.03 564.79,-208.29 571.77,-207.7"/>
</g>
<!-- 40 -->
<g id="node10" class="node">
<title>40</title>
<ellipse fill="none" stroke="black" cx="566" cy="-107" rx="43.59" ry="18"/>
<text text-anchor="middle" x="566" y="-103.3" font-family="Times,serif" font-size="14.00">P18 (c)</text>
</g>
<!-- 44&#45;&gt;40 -->
<g id="edge9" class="edge">
<title>44&#45;&gt;40</title>
<path fill="none" stroke="black" stroke-dasharray="5,2" d="M566,-161.81C566,-153.79 566,-144.05 566,-135.07"/>
<polygon fill="black" stroke="black" points="569.5,-135.03 566,-125.03 562.5,-135.03 569.5,-135.03"/>
</g>
<!-- 10 -->
<g id="node13" class="node">
<title>10</title>
<ellipse fill="none" stroke="blue" stroke-dasharray="5,2" cx="568" cy="-410" rx="50.09" ry="18"/>
<text text-anchor="middle" x="568" y="-406.3" font-family="Times,serif" font-size="14.00">V536 (a)</text>
</g>
<!-- 10&#45;&gt;0 -->
<g id="edge1" class="edge">
<title>10&#45;&gt;0</title>
<path fill="none" stroke="blue" stroke-dasharray="1,5" d="M568,-391.94C568,-383.81 568,-373.88 568,-364.7"/>
<polygon fill="blue" stroke="blue" points="571.5,-364.44 568,-354.44 564.5,-364.44 571.5,-364.44"/>
</g>
<!-- 32 -->
<g id="node14" class="node">
<title>32</title>
<ellipse fill="none" stroke="blue" stroke-dasharray="5,2" cx="366" cy="-410" rx="53.89" ry="18"/>
<text text-anchor="middle" x="366" y="-406.3" font-family="Times,serif" font-size="14.00">aBase (a)</text>
</g>
<!-- 32&#45;&gt;27 -->
<g id="edge6" class="edge">
<title>32&#45;&gt;27</title>
<path fill="none" stroke="blue" d="M366,-391.94C366,-383.81 366,-373.88 366,-364.7"/>
<polygon fill="blue" stroke="blue" points="369.5,-364.44 366,-354.44 362.5,-364.44 369.5,-364.44"/>
</g>
</g>
</svg>
