<?xml version="1.0" encoding="UTF-8" standalone="no"?>
<!DOCTYPE svg PUBLIC "-//W3C//DTD SVG 1.1//EN"
 "http://www.w3.org/Graphics/SVG/1.1/DTD/svg11.dtd">
<!-- Generated by graphviz version 2.43.0 (0)
 -->
<!-- Title: textual_flow_diagram Pages: 1 -->
<svg width="1723pt" height="294pt"
 viewBox="0.00 0.00 1723.00 294.00" xmlns="http://www.w3.org/2000/svg" xmlns:xlink="http://www.w3.org/1999/xlink">
<g id="graph0" class="graph" transform="scale(1 1) rotate(0) translate(4 290)">
<title>textual_flow_diagram</title>
<polygon fill="white" stroke="transparent" points="-4,4 -4,-290 1719,-290 1719,4 -4,4"/>
<g id="clust1" class="cluster">
<title>cluster_legend</title>
<polygon fill="none" stroke="black" points="8,-224 8,-278 194,-278 194,-224 8,-224"/>
</g>
<g id="clust2" class="cluster">
<title>cluster_plot</title>
</g>
<!-- label -->
<g id="node1" class="node">
<title>label</title>
<text text-anchor="middle" x="101" y="-254.8" font-family="Times,serif" font-size="14.00">adstag1.4.4U38&#45;46, a</text>
<text text-anchor="middle" x="101" y="-239.8" font-family="Times,serif" font-size="14.00">Con = 5</text>
</g>
<!-- 2 -->
<g id="node2" class="node">
<title>2</title>
<ellipse fill="none" stroke="black" cx="591" cy="-178" rx="50.09" ry="18"/>
<text text-anchor="middle" x="591" y="-174.3" font-family="Times,serif" font-size="14.00">S249 (a)</text>
</g>
<!-- 4 -->
<g id="node3" class="node">
<title>4</title>
<ellipse fill="none" stroke="black" cx="708" cy="-178" rx="48.99" ry="18"/>
<text text-anchor="middle" x="708" y="-174.3" font-family="Times,serif" font-size="14.00">La22 (a)</text>
</g>
<!-- 12 -->
<g id="node7" class="node">
<title>12</title>
<ellipse fill="none" stroke="black" cx="260" cy="-106" rx="50.09" ry="18"/>
<text text-anchor="middle" x="260" y="-102.3" font-family="Times,serif" font-size="14.00">V565 (a)</text>
</g>
<!-- 4&#45;&gt;12 -->
<g id="edge6" class="edge">
<title>4&#45;&gt;12</title>
<path fill="none" stroke="black" stroke-dasharray="5,2" d="M672.67,-165.57C665.24,-163.47 657.41,-161.48 650,-160 504.88,-131.08 464.19,-152.59 319,-124 314.82,-123.18 310.51,-122.2 306.21,-121.13"/>
<polygon fill="black" stroke="black" points="306.83,-117.67 296.27,-118.51 305.05,-124.44 306.83,-117.67"/>
</g>
<!-- 18 -->
<g id="node10" class="node">
<title>18</title>
<ellipse fill="none" stroke="black" cx="372" cy="-106" rx="44.39" ry="18"/>
<text text-anchor="middle" x="372" y="-102.3" font-family="Times,serif" font-size="14.00">P74 (a)</text>
</g>
<!-- 4&#45;&gt;18 -->
<g id="edge8" class="edge">
<title>4&#45;&gt;18</title>
<path fill="none" stroke="black" stroke-dasharray="1,5" d="M671.99,-165.68C664.75,-163.62 657.17,-161.62 650,-160 551.21,-137.71 523.5,-147.53 425,-124 421.56,-123.18 418.02,-122.24 414.48,-121.25"/>
<polygon fill="black" stroke="black" points="415.16,-117.8 404.58,-118.3 413.17,-124.51 415.16,-117.8"/>
</g>
<!-- 19 -->
<g id="node11" class="node">
<title>19</title>
<ellipse fill="none" stroke="black" cx="484" cy="-106" rx="50.09" ry="18"/>
<text text-anchor="middle" x="484" y="-102.3" font-family="Times,serif" font-size="14.00">V571 (a)</text>
</g>
<!-- 4&#45;&gt;19 -->
<g id="edge9" class="edge">
<title>4&#45;&gt;19</title>
<path fill="none" stroke="black" stroke-dasharray="1,5" d="M672.01,-165.75C633.54,-153.73 572.42,-134.63 530.37,-121.49"/>
<polygon fill="black" stroke="black" points="531.23,-118.09 520.64,-118.45 529.15,-124.77 531.23,-118.09"/>
</g>
<!-- 27 -->
<g id="node17" class="node">
<title>27</title>
<ellipse fill="none" stroke="black" cx="602" cy="-106" rx="50.09" ry="18"/>
<text text-anchor="middle" x="602" y="-102.3" font-family="Times,serif" font-size="14.00">A116 (a)</text>
</g>
<!-- 4&#45;&gt;27 -->
<g id="edge15" class="edge">
<title>4&#45;&gt;27</title>
<path fill="none" stroke="black" stroke-dasharray="5,2" d="M685.26,-161.98C670.13,-151.99 650.06,-138.74 633.42,-127.75"/>
<polygon fill="black" stroke="black" points="635.34,-124.82 625.07,-122.23 631.48,-130.66 635.34,-124.82"/>
</g>
<!-- 33 -->
<g id="node21" class="node">
<title>33</title>
<ellipse fill="none" stroke="black" cx="717" cy="-106" rx="46.59" ry="18"/>
<text text-anchor="middle" x="717" y="-102.3" font-family="Times,serif" font-size="14.00">Bodl (a)</text>
</g>
<!-- 4&#45;&gt;33 -->
<g id="edge19" class="edge">
<title>4&#45;&gt;33</title>
<path fill="none" stroke="black" stroke-dasharray="5,2" d="M710.22,-159.7C711.22,-151.98 712.41,-142.71 713.51,-134.11"/>
<polygon fill="black" stroke="black" points="717,-134.47 714.8,-124.1 710.05,-133.58 717,-134.47"/>
</g>
<!-- 35 -->
<g id="node23" class="node">
<title>35</title>
<ellipse fill="none" stroke="black" cx="831" cy="-106" rx="48.99" ry="18"/>
<text text-anchor="middle" x="831" y="-102.3" font-family="Times,serif" font-size="14.00">La35 (a)</text>
</g>
<!-- 4&#45;&gt;35 -->
<g id="edge21" class="edge">
<title>4&#45;&gt;35</title>
<path fill="none" stroke="black" stroke-dasharray="1,5" d="M733.49,-162.5C751.79,-152.08 776.67,-137.92 796.72,-126.51"/>
<polygon fill="black" stroke="black" points="798.59,-129.47 805.55,-121.49 795.12,-123.39 798.59,-129.47"/>
</g>
<!-- 38 -->
<g id="node25" class="node">
<title>38</title>
<ellipse fill="none" stroke="black" cx="950" cy="-106" rx="52.79" ry="18"/>
<text text-anchor="middle" x="950" y="-102.3" font-family="Times,serif" font-size="14.00">M111 (a)</text>
</g>
<!-- 4&#45;&gt;38 -->
<g id="edge23" class="edge">
<title>4&#45;&gt;38</title>
<path fill="none" stroke="black" stroke-dasharray="1,5" d="M744.81,-166.18C751.84,-164.12 759.15,-161.99 766,-160 811.67,-146.73 863.75,-131.74 900.82,-121.1"/>
<polygon fill="black" stroke="black" points="902.21,-124.34 910.86,-118.22 900.28,-117.61 902.21,-124.34"/>
</g>
<!-- 5 -->
<g id="node4" class="node">
<title>5</title>
<ellipse fill="none" stroke="black" cx="818" cy="-178" rx="42.79" ry="18"/>
<text text-anchor="middle" x="818" y="-174.3" font-family="Times,serif" font-size="14.00">La2 (a)</text>
</g>
<!-- 7 -->
<g id="node5" class="node">
<title>7</title>
<ellipse fill="none" stroke="black" cx="932" cy="-178" rx="52.79" ry="18"/>
<text text-anchor="middle" x="932" y="-174.3" font-family="Times,serif" font-size="14.00">LaSM (a)</text>
</g>
<!-- 21 -->
<g id="node13" class="node">
<title>21</title>
<ellipse fill="none" stroke="black" cx="1065" cy="-106" rx="44.39" ry="18"/>
<text text-anchor="middle" x="1065" y="-102.3" font-family="Times,serif" font-size="14.00">B39 (a)</text>
</g>
<!-- 7&#45;&gt;21 -->
<g id="edge11" class="edge">
<title>7&#45;&gt;21</title>
<path fill="none" stroke="black" stroke-dasharray="5,2" d="M959.56,-162.5C979.93,-151.77 1007.83,-137.09 1029.81,-125.52"/>
<polygon fill="black" stroke="black" points="1031.62,-128.53 1038.84,-120.77 1028.36,-122.33 1031.62,-128.53"/>
</g>
<!-- 10 -->
<g id="node6" class="node">
<title>10</title>
<ellipse fill="none" stroke="black" cx="1053" cy="-178" rx="50.09" ry="18"/>
<text text-anchor="middle" x="1053" y="-174.3" font-family="Times,serif" font-size="14.00">V560 (a)</text>
</g>
<!-- 37 -->
<g id="node24" class="node">
<title>37</title>
<ellipse fill="none" stroke="black" cx="1183" cy="-106" rx="55.79" ry="18"/>
<text text-anchor="middle" x="1183" y="-102.3" font-family="Times,serif" font-size="14.00">V1920 (a)</text>
</g>
<!-- 10&#45;&gt;37 -->
<g id="edge22" class="edge">
<title>10&#45;&gt;37</title>
<path fill="none" stroke="black" stroke-dasharray="5,2" d="M1079.62,-162.67C1098.9,-152.28 1125.21,-138.12 1146.46,-126.68"/>
<polygon fill="black" stroke="black" points="1148.37,-129.62 1155.52,-121.8 1145.05,-123.46 1148.37,-129.62"/>
</g>
<!-- 14 -->
<g id="node8" class="node">
<title>14</title>
<ellipse fill="none" stroke="black" cx="1165" cy="-178" rx="44.39" ry="18"/>
<text text-anchor="middle" x="1165" y="-174.3" font-family="Times,serif" font-size="14.00">A25 (a)</text>
</g>
<!-- 22 -->
<g id="node14" class="node">
<title>22</title>
<ellipse fill="none" stroke="black" cx="1307" cy="-106" rx="50.09" ry="18"/>
<text text-anchor="middle" x="1307" y="-102.3" font-family="Times,serif" font-size="14.00">V566 (a)</text>
</g>
<!-- 14&#45;&gt;22 -->
<g id="edge12" class="edge">
<title>14&#45;&gt;22</title>
<path fill="none" stroke="black" stroke-dasharray="5,2" d="M1192.04,-163.67C1213.92,-152.88 1244.99,-137.57 1269.31,-125.58"/>
<polygon fill="black" stroke="black" points="1271.18,-128.56 1278.6,-121 1268.08,-122.28 1271.18,-128.56"/>
</g>
<!-- 30 -->
<g id="node18" class="node">
<title>30</title>
<ellipse fill="none" stroke="black" cx="1419" cy="-106" rx="44.39" ry="18"/>
<text text-anchor="middle" x="1419" y="-102.3" font-family="Times,serif" font-size="14.00">S32 (a)</text>
</g>
<!-- 14&#45;&gt;30 -->
<g id="edge16" class="edge">
<title>14&#45;&gt;30</title>
<path fill="none" stroke="black" stroke-dasharray="5,2" d="M1198.25,-165.93C1204.77,-163.88 1211.58,-161.81 1218,-160 1283.16,-141.65 1300.84,-142.35 1366,-124 1369.31,-123.07 1372.72,-122.07 1376.15,-121.03"/>
<polygon fill="black" stroke="black" points="1377.23,-124.36 1385.75,-118.07 1375.16,-117.67 1377.23,-124.36"/>
</g>
<!-- 34 -->
<g id="node22" class="node">
<title>34</title>
<ellipse fill="none" stroke="black" cx="1525" cy="-106" rx="44.39" ry="18"/>
<text text-anchor="middle" x="1525" y="-102.3" font-family="Times,serif" font-size="14.00">P01 (a)</text>
</g>
<!-- 14&#45;&gt;34 -->
<g id="edge20" class="edge">
<title>14&#45;&gt;34</title>
<path fill="none" stroke="black" stroke-dasharray="5,2" d="M1197.27,-165.69C1204.06,-163.58 1211.22,-161.56 1218,-160 1329.13,-134.5 1360.87,-149.5 1472,-124 1475.6,-123.17 1479.31,-122.21 1483.02,-121.18"/>
<polygon fill="black" stroke="black" points="1484.13,-124.5 1492.73,-118.31 1482.15,-117.79 1484.13,-124.5"/>
</g>
<!-- 16 -->
<g id="node9" class="node">
<title>16</title>
<ellipse fill="none" stroke="black" cx="1109" cy="-251" rx="53.89" ry="18"/>
<text text-anchor="middle" x="1109" y="-247.3" font-family="Times,serif" font-size="14.00">aBase (a)</text>
</g>
<!-- 16&#45;&gt;2 -->
<g id="edge1" class="edge">
<title>16&#45;&gt;2</title>
<path fill="none" stroke="black" d="M1056.59,-246.63C970.89,-240.5 795.71,-225.36 650,-196 645.83,-195.16 641.52,-194.17 637.22,-193.09"/>
<polygon fill="black" stroke="black" points="637.84,-189.63 627.28,-190.46 636.05,-196.4 637.84,-189.63"/>
</g>
<!-- 16&#45;&gt;4 -->
<g id="edge2" class="edge">
<title>16&#45;&gt;4</title>
<path fill="none" stroke="black" stroke-dasharray="5,2" d="M1058.92,-244.17C991.77,-235.89 869.08,-219.12 766,-196 762.08,-195.12 758.04,-194.12 753.99,-193.07"/>
<polygon fill="black" stroke="black" points="754.58,-189.6 744.01,-190.34 752.73,-196.35 754.58,-189.6"/>
</g>
<!-- 16&#45;&gt;5 -->
<g id="edge3" class="edge">
<title>16&#45;&gt;5</title>
<path fill="none" stroke="black" stroke-width="2" d="M1063.76,-241.1C1015.46,-231.29 936.84,-214.43 870,-196 866.65,-195.08 863.19,-194.07 859.73,-193.02"/>
<polygon fill="black" stroke="black" stroke-width="2" points="860.62,-189.63 850.03,-189.99 858.54,-196.31 860.62,-189.63"/>
</g>
<!-- 16&#45;&gt;7 -->
<g id="edge4" class="edge">
<title>16&#45;&gt;7</title>
<path fill="none" stroke="black" d="M1075.71,-236.65C1047.06,-225.16 1005.57,-208.51 974.53,-196.06"/>
<polygon fill="black" stroke="black" points="975.43,-192.65 964.84,-192.17 972.82,-199.15 975.43,-192.65"/>
</g>
<!-- 16&#45;&gt;10 -->
<g id="edge5" class="edge">
<title>16&#45;&gt;10</title>
<path fill="none" stroke="black" stroke-width="2" d="M1095.73,-233.17C1088.82,-224.42 1080.25,-213.55 1072.6,-203.85"/>
<polygon fill="black" stroke="black" stroke-width="2" points="1075.12,-201.39 1066.18,-195.71 1069.62,-205.72 1075.12,-201.39"/>
</g>
<!-- 16&#45;&gt;14 -->
<g id="edge7" class="edge">
<title>16&#45;&gt;14</title>
<path fill="none" stroke="black" stroke-dasharray="5,2" d="M1122.27,-233.17C1129.18,-224.42 1137.75,-213.55 1145.4,-203.85"/>
<polygon fill="black" stroke="black" points="1148.38,-205.72 1151.82,-195.71 1142.88,-201.39 1148.38,-205.72"/>
</g>
<!-- 26 -->
<g id="node16" class="node">
<title>26</title>
<ellipse fill="none" stroke="black" cx="1283" cy="-178" rx="55.79" ry="18"/>
<text text-anchor="middle" x="1283" y="-174.3" font-family="Times,serif" font-size="14.00">V2036 (a)</text>
</g>
<!-- 16&#45;&gt;26 -->
<g id="edge14" class="edge">
<title>16&#45;&gt;26</title>
<path fill="none" stroke="black" d="M1141.73,-236.65C1169.62,-225.26 1209.91,-208.83 1240.33,-196.41"/>
<polygon fill="black" stroke="black" points="1241.89,-199.55 1249.83,-192.54 1239.25,-193.07 1241.89,-199.55"/>
</g>
<!-- 31 -->
<g id="node19" class="node">
<title>31</title>
<ellipse fill="none" stroke="black" cx="1407" cy="-178" rx="50.09" ry="18"/>
<text text-anchor="middle" x="1407" y="-174.3" font-family="Times,serif" font-size="14.00">Neap (a)</text>
</g>
<!-- 16&#45;&gt;31 -->
<g id="edge17" class="edge">
<title>16&#45;&gt;31</title>
<path fill="none" stroke="black" stroke-width="2" d="M1153.68,-240.72C1201.83,-230.53 1280.63,-213.3 1348,-196 1351.84,-195.01 1355.81,-193.96 1359.79,-192.87"/>
<polygon fill="black" stroke="black" stroke-width="2" points="1360.94,-196.18 1369.64,-190.12 1359.06,-189.44 1360.94,-196.18"/>
</g>
<!-- 32 -->
<g id="node20" class="node">
<title>32</title>
<ellipse fill="none" stroke="black" cx="1528" cy="-178" rx="52.79" ry="18"/>
<text text-anchor="middle" x="1528" y="-174.3" font-family="Times,serif" font-size="14.00">M136 (a)</text>
</g>
<!-- 16&#45;&gt;32 -->
<g id="edge18" class="edge">
<title>16&#45;&gt;32</title>
<path fill="none" stroke="black" stroke-width="2" d="M1159.29,-244.28C1228.71,-235.97 1357.61,-218.97 1466,-196 1470.42,-195.06 1474.99,-194 1479.55,-192.87"/>
<polygon fill="black" stroke="black" stroke-width="2" points="1480.66,-196.2 1489.48,-190.32 1478.92,-189.42 1480.66,-196.2"/>
</g>
<!-- 42 -->
<g id="node27" class="node">
<title>42</title>
<ellipse fill="none" stroke="black" cx="1649" cy="-178" rx="50.09" ry="18"/>
<text text-anchor="middle" x="1649" y="-174.3" font-family="Times,serif" font-size="14.00">Patm (a)</text>
</g>
<!-- 16&#45;&gt;42 -->
<g id="edge25" class="edge">
<title>16&#45;&gt;42</title>
<path fill="none" stroke="black" d="M1161.76,-247C1250.76,-241.28 1436.08,-226.59 1590,-196 1594.18,-195.17 1598.48,-194.19 1602.78,-193.11"/>
<polygon fill="black" stroke="black" points="1603.95,-196.43 1612.73,-190.49 1602.17,-189.66 1603.95,-196.43"/>
</g>
<!-- 20 -->
<g id="node12" class="node">
<title>20</title>
<ellipse fill="none" stroke="black" cx="1307" cy="-34" rx="55.79" ry="18"/>
<text text-anchor="middle" x="1307" y="-30.3" font-family="Times,serif" font-size="14.00">V1639 (a)</text>
</g>
<!-- 22&#45;&gt;20 -->
<g id="edge10" class="edge">
<title>22&#45;&gt;20</title>
<path fill="none" stroke="black" stroke-dasharray="1,5" d="M1307,-87.7C1307,-79.98 1307,-70.71 1307,-62.11"/>
<polygon fill="black" stroke="black" points="1310.5,-62.1 1307,-52.1 1303.5,-62.1 1310.5,-62.1"/>
</g>
<!-- 24 -->
<g id="node15" class="node">
<title>24</title>
<ellipse fill="none" stroke="black" cx="950" cy="-34" rx="50.09" ry="18"/>
<text text-anchor="middle" x="950" y="-30.3" font-family="Times,serif" font-size="14.00">A336 (a)</text>
</g>
<!-- 40 -->
<g id="node26" class="node">
<title>40</title>
<ellipse fill="none" stroke="black" cx="1643" cy="-106" rx="55.79" ry="18"/>
<text text-anchor="middle" x="1643" y="-102.3" font-family="Times,serif" font-size="14.00">V1629 (a)</text>
</g>
<!-- 31&#45;&gt;40 -->
<g id="edge24" class="edge">
<title>31&#45;&gt;40</title>
<path fill="none" stroke="black" stroke-dasharray="1,5" d="M1444.39,-165.91C1484.75,-153.94 1549.21,-134.82 1593.69,-121.63"/>
<polygon fill="black" stroke="black" points="1594.83,-124.94 1603.42,-118.74 1592.84,-118.23 1594.83,-124.94"/>
</g>
<!-- 38&#45;&gt;24 -->
<g id="edge13" class="edge">
<title>38&#45;&gt;24</title>
<path fill="none" stroke="black" stroke-dasharray="5,2" d="M950,-87.7C950,-79.98 950,-70.71 950,-62.11"/>
<polygon fill="black" stroke="black" points="953.5,-62.1 950,-52.1 946.5,-62.1 953.5,-62.1"/>
</g>
</g>
</svg>
