<?xml version="1.0" encoding="UTF-8" standalone="no"?>
<!DOCTYPE svg PUBLIC "-//W3C//DTD SVG 1.1//EN"
 "http://www.w3.org/Graphics/SVG/1.1/DTD/svg11.dtd">
<!-- Generated by graphviz version 2.43.0 (0)
 -->
<!-- Title: textual_flow_diagram Pages: 1 -->
<svg width="480pt" height="307pt"
 viewBox="0.00 0.00 480.00 307.00" xmlns="http://www.w3.org/2000/svg" xmlns:xlink="http://www.w3.org/1999/xlink">
<g id="graph0" class="graph" transform="scale(1 1) rotate(0) translate(4 303)">
<title>textual_flow_diagram</title>
<polygon fill="white" stroke="transparent" points="-4,4 -4,-303 476,-303 476,4 -4,4"/>
<g id="clust1" class="cluster">
<title>cluster_legend</title>
<polygon fill="none" stroke="black" points="8,-237 8,-291 204,-291 204,-237 8,-237"/>
</g>
<g id="clust2" class="cluster">
<title>cluster_plot</title>
</g>
<!-- label -->
<g id="node1" class="node">
<title>label</title>
<text text-anchor="middle" x="106" y="-267.8" font-family="Times,serif" font-size="14.00">adstag1.3.46U62&#45;66, c</text>
<text text-anchor="middle" x="106" y="-252.8" font-family="Times,serif" font-size="14.00">Con = 5</text>
</g>
<!-- 4 -->
<g id="node2" class="node">
<title>4</title>
<ellipse fill="none" stroke="black" cx="400" cy="-34" rx="46.29" ry="18"/>
<text text-anchor="middle" x="400" y="-30.3" font-family="Times,serif" font-size="14.00">Mon (c)</text>
</g>
<!-- 30 -->
<g id="node3" class="node">
<title>30</title>
<ellipse fill="none" stroke="black" cx="400" cy="-107" rx="49.29" ry="18"/>
<text text-anchor="middle" x="400" y="-103.3" font-family="Times,serif" font-size="14.00">Marc (c)</text>
</g>
<!-- 30&#45;&gt;4 -->
<g id="edge1" class="edge">
<title>30&#45;&gt;4</title>
<path fill="none" stroke="black" stroke-dasharray="1,5" d="M400,-88.81C400,-80.79 400,-71.05 400,-62.07"/>
<polygon fill="black" stroke="black" points="403.5,-62.03 400,-52.03 396.5,-62.03 403.5,-62.03"/>
</g>
<!-- 34 -->
<g id="node4" class="node">
<title>34</title>
<ellipse fill="none" stroke="black" cx="400" cy="-190" rx="49.29" ry="18"/>
<text text-anchor="middle" x="400" y="-186.3" font-family="Times,serif" font-size="14.00">V536 (c)</text>
</g>
<!-- 34&#45;&gt;30 -->
<g id="edge2" class="edge">
<title>34&#45;&gt;30</title>
<path fill="none" stroke="black" stroke-dasharray="1,5" d="M400,-171.82C400,-161.19 400,-147.31 400,-135.2"/>
<polygon fill="black" stroke="black" points="403.5,-135.15 400,-125.15 396.5,-135.15 403.5,-135.15"/>
<text text-anchor="middle" x="403.5" y="-146" font-family="Times,serif" font-size="10.00">3</text>
</g>
<!-- 41 -->
<g id="node5" class="node">
<title>41</title>
<ellipse fill="none" stroke="black" cx="273" cy="-190" rx="49.29" ry="18"/>
<text text-anchor="middle" x="273" y="-186.3" font-family="Times,serif" font-size="14.00">A336 (c)</text>
</g>
<!-- 19 -->
<g id="node6" class="node">
<title>19</title>
<ellipse fill="none" stroke="blue" stroke-dasharray="5,2" cx="400" cy="-264" rx="55.79" ry="18"/>
<text text-anchor="middle" x="400" y="-260.3" font-family="Times,serif" font-size="14.00">V1629 (d)</text>
</g>
<!-- 19&#45;&gt;34 -->
<g id="edge3" class="edge">
<title>19&#45;&gt;34</title>
<path fill="none" stroke="blue" stroke-dasharray="5,2" d="M400,-245.94C400,-237.81 400,-227.88 400,-218.7"/>
<polygon fill="blue" stroke="blue" points="403.5,-218.44 400,-208.44 396.5,-218.44 403.5,-218.44"/>
</g>
<!-- 37 -->
<g id="node7" class="node">
<title>37</title>
<ellipse fill="none" stroke="blue" stroke-dasharray="5,2" cx="273" cy="-264" rx="52.79" ry="18"/>
<text text-anchor="middle" x="273" y="-260.3" font-family="Times,serif" font-size="14.00">M111 (a)</text>
</g>
<!-- 37&#45;&gt;41 -->
<g id="edge4" class="edge">
<title>37&#45;&gt;41</title>
<path fill="none" stroke="blue" stroke-dasharray="5,2" d="M273,-245.94C273,-237.81 273,-227.88 273,-218.7"/>
<polygon fill="blue" stroke="blue" points="276.5,-218.44 273,-208.44 269.5,-218.44 276.5,-218.44"/>
</g>
</g>
</svg>
