<?xml version="1.0" encoding="UTF-8" standalone="no"?>
<!DOCTYPE svg PUBLIC "-//W3C//DTD SVG 1.1//EN"
 "http://www.w3.org/Graphics/SVG/1.1/DTD/svg11.dtd">
<!-- Generated by graphviz version 2.43.0 (0)
 -->
<!-- Title: textual_flow_diagram Pages: 1 -->
<svg width="586pt" height="654pt"
 viewBox="0.00 0.00 586.00 654.00" xmlns="http://www.w3.org/2000/svg" xmlns:xlink="http://www.w3.org/1999/xlink">
<g id="graph0" class="graph" transform="scale(1 1) rotate(0) translate(4 650)">
<title>textual_flow_diagram</title>
<polygon fill="white" stroke="transparent" points="-4,4 -4,-650 582,-650 582,4 -4,4"/>
<g id="clust1" class="cluster">
<title>cluster_legend</title>
<polygon fill="none" stroke="black" points="8,-584 8,-638 204,-638 204,-584 8,-584"/>
</g>
<g id="clust2" class="cluster">
<title>cluster_plot</title>
</g>
<!-- label -->
<g id="node1" class="node">
<title>label</title>
<text text-anchor="middle" x="106" y="-614.8" font-family="Times,serif" font-size="14.00">adstag1.3.33U38&#45;40, d</text>
<text text-anchor="middle" x="106" y="-599.8" font-family="Times,serif" font-size="14.00">Con = 3</text>
</g>
<!-- 10 -->
<g id="node2" class="node">
<title>10</title>
<ellipse fill="none" stroke="black" cx="270" cy="-178" rx="50.09" ry="18"/>
<text text-anchor="middle" x="270" y="-174.3" font-family="Times,serif" font-size="14.00">Marc (d)</text>
</g>
<!-- 26 -->
<g id="node7" class="node">
<title>26</title>
<ellipse fill="none" stroke="black" cx="270" cy="-106" rx="46.59" ry="18"/>
<text text-anchor="middle" x="270" y="-102.3" font-family="Times,serif" font-size="14.00">Mon (d)</text>
</g>
<!-- 10&#45;&gt;26 -->
<g id="edge6" class="edge">
<title>10&#45;&gt;26</title>
<path fill="none" stroke="black" stroke-dasharray="1,5" d="M270,-159.7C270,-151.98 270,-142.71 270,-134.11"/>
<polygon fill="black" stroke="black" points="273.5,-134.1 270,-124.1 266.5,-134.1 273.5,-134.1"/>
</g>
<!-- 15 -->
<g id="node3" class="node">
<title>15</title>
<ellipse fill="none" stroke="black" cx="391" cy="-178" rx="53.09" ry="18"/>
<text text-anchor="middle" x="391" y="-174.3" font-family="Times,serif" font-size="14.00">M118 (d)</text>
</g>
<!-- 21 -->
<g id="node4" class="node">
<title>21</title>
<ellipse fill="none" stroke="black" cx="391" cy="-250" rx="47.39" ry="18"/>
<text text-anchor="middle" x="391" y="-246.3" font-family="Times,serif" font-size="14.00">Taur (d)</text>
</g>
<!-- 21&#45;&gt;10 -->
<g id="edge1" class="edge">
<title>21&#45;&gt;10</title>
<path fill="none" stroke="black" stroke-dasharray="1,5" d="M365.93,-234.5C348.04,-224.15 323.77,-210.11 304.12,-198.74"/>
<polygon fill="black" stroke="black" points="305.86,-195.7 295.46,-193.73 302.36,-201.76 305.86,-195.7"/>
</g>
<!-- 21&#45;&gt;15 -->
<g id="edge2" class="edge">
<title>21&#45;&gt;15</title>
<path fill="none" stroke="black" stroke-dasharray="5,2" d="M391,-231.7C391,-223.98 391,-214.71 391,-206.11"/>
<polygon fill="black" stroke="black" points="394.5,-206.1 391,-196.1 387.5,-206.1 394.5,-206.1"/>
</g>
<!-- 22 -->
<g id="node5" class="node">
<title>22</title>
<ellipse fill="none" stroke="black" cx="512" cy="-178" rx="50.09" ry="18"/>
<text text-anchor="middle" x="512" y="-174.3" font-family="Times,serif" font-size="14.00">V569 (d)</text>
</g>
<!-- 21&#45;&gt;22 -->
<g id="edge4" class="edge">
<title>21&#45;&gt;22</title>
<path fill="none" stroke="black" stroke-dasharray="5,2" d="M416.07,-234.5C433.96,-224.15 458.23,-210.11 477.88,-198.74"/>
<polygon fill="black" stroke="black" points="479.64,-201.76 486.54,-193.73 476.14,-195.7 479.64,-201.76"/>
</g>
<!-- 24 -->
<g id="node6" class="node">
<title>24</title>
<ellipse fill="none" stroke="black" cx="391" cy="-322" rx="50.09" ry="18"/>
<text text-anchor="middle" x="391" y="-318.3" font-family="Times,serif" font-size="14.00">V568 (d)</text>
</g>
<!-- 24&#45;&gt;21 -->
<g id="edge3" class="edge">
<title>24&#45;&gt;21</title>
<path fill="none" stroke="black" stroke-dasharray="1,5" d="M391,-303.7C391,-295.98 391,-286.71 391,-278.11"/>
<polygon fill="black" stroke="black" points="394.5,-278.1 391,-268.1 387.5,-278.1 394.5,-278.1"/>
</g>
<!-- 29 -->
<g id="node8" class="node">
<title>29</title>
<ellipse fill="none" stroke="black" cx="270" cy="-34" rx="41.69" ry="18"/>
<text text-anchor="middle" x="270" y="-30.3" font-family="Times,serif" font-size="14.00">Sin (d)</text>
</g>
<!-- 26&#45;&gt;29 -->
<g id="edge7" class="edge">
<title>26&#45;&gt;29</title>
<path fill="none" stroke="black" stroke-dasharray="1,5" d="M270,-87.7C270,-79.98 270,-70.71 270,-62.11"/>
<polygon fill="black" stroke="black" points="273.5,-62.1 270,-52.1 266.5,-62.1 273.5,-62.1"/>
</g>
<!-- 32 -->
<g id="node9" class="node">
<title>32</title>
<ellipse fill="none" stroke="black" cx="391" cy="-538" rx="50.89" ry="18"/>
<text text-anchor="middle" x="391" y="-534.3" font-family="Times,serif" font-size="14.00">Neap (d)</text>
</g>
<!-- 38 -->
<g id="node10" class="node">
<title>38</title>
<ellipse fill="none" stroke="black" cx="391" cy="-466" rx="55.79" ry="18"/>
<text text-anchor="middle" x="391" y="-462.3" font-family="Times,serif" font-size="14.00">V1629 (d)</text>
</g>
<!-- 32&#45;&gt;38 -->
<g id="edge9" class="edge">
<title>32&#45;&gt;38</title>
<path fill="none" stroke="black" stroke-dasharray="1,5" d="M391,-519.7C391,-511.98 391,-502.71 391,-494.11"/>
<polygon fill="black" stroke="black" points="394.5,-494.1 391,-484.1 387.5,-494.1 394.5,-494.1"/>
</g>
<!-- 42 -->
<g id="node11" class="node">
<title>42</title>
<ellipse fill="none" stroke="black" cx="391" cy="-394" rx="50.09" ry="18"/>
<text text-anchor="middle" x="391" y="-390.3" font-family="Times,serif" font-size="14.00">V536 (d)</text>
</g>
<!-- 38&#45;&gt;42 -->
<g id="edge10" class="edge">
<title>38&#45;&gt;42</title>
<path fill="none" stroke="black" stroke-dasharray="5,2" d="M391,-447.7C391,-439.98 391,-430.71 391,-422.11"/>
<polygon fill="black" stroke="black" points="394.5,-422.1 391,-412.1 387.5,-422.1 394.5,-422.1"/>
</g>
<!-- 42&#45;&gt;24 -->
<g id="edge5" class="edge">
<title>42&#45;&gt;24</title>
<path fill="none" stroke="black" stroke-dasharray="1,5" d="M391,-375.7C391,-367.98 391,-358.71 391,-350.11"/>
<polygon fill="black" stroke="black" points="394.5,-350.1 391,-340.1 387.5,-350.1 394.5,-350.1"/>
</g>
<!-- 37 -->
<g id="node12" class="node">
<title>37</title>
<ellipse fill="none" stroke="blue" stroke-dasharray="5,2" cx="391" cy="-611" rx="53.89" ry="18"/>
<text text-anchor="middle" x="391" y="-607.3" font-family="Times,serif" font-size="14.00">aBase (a)</text>
</g>
<!-- 37&#45;&gt;32 -->
<g id="edge8" class="edge">
<title>37&#45;&gt;32</title>
<path fill="none" stroke="blue" stroke-width="2" d="M391,-592.81C391,-584.79 391,-575.05 391,-566.07"/>
<polygon fill="blue" stroke="blue" stroke-width="2" points="394.5,-566.03 391,-556.03 387.5,-566.03 394.5,-566.03"/>
</g>
</g>
</svg>
