<?xml version="1.0" encoding="UTF-8" standalone="no"?>
<!DOCTYPE svg PUBLIC "-//W3C//DTD SVG 1.1//EN"
 "http://www.w3.org/Graphics/SVG/1.1/DTD/svg11.dtd">
<!-- Generated by graphviz version 2.43.0 (0)
 -->
<!-- Title: textual_flow_diagram Pages: 1 -->
<svg width="906pt" height="672pt"
 viewBox="0.00 0.00 906.00 672.00" xmlns="http://www.w3.org/2000/svg" xmlns:xlink="http://www.w3.org/1999/xlink">
<g id="graph0" class="graph" transform="scale(1 1) rotate(0) translate(4 668)">
<title>textual_flow_diagram</title>
<polygon fill="white" stroke="transparent" points="-4,4 -4,-668 902,-668 902,4 -4,4"/>
<g id="clust1" class="cluster">
<title>cluster_legend</title>
<polygon fill="none" stroke="black" points="8,-602 8,-656 194,-656 194,-602 8,-602"/>
</g>
<g id="clust2" class="cluster">
<title>cluster_plot</title>
</g>
<!-- label -->
<g id="node1" class="node">
<title>label</title>
<text text-anchor="middle" x="101" y="-632.8" font-family="Times,serif" font-size="14.00">adstag1.1.3U20&#45;24, a</text>
<text text-anchor="middle" x="101" y="-617.8" font-family="Times,serif" font-size="14.00">Con = 10</text>
</g>
<!-- 0 -->
<g id="node2" class="node">
<title>0</title>
<ellipse fill="none" stroke="black" cx="399" cy="-326" rx="50.09" ry="18"/>
<text text-anchor="middle" x="399" y="-322.3" font-family="Times,serif" font-size="14.00">V568 (a)</text>
</g>
<!-- 38 -->
<g id="node21" class="node">
<title>38</title>
<ellipse fill="none" stroke="black" cx="399" cy="-253" rx="46.59" ry="18"/>
<text text-anchor="middle" x="399" y="-249.3" font-family="Times,serif" font-size="14.00">Taur (a)</text>
</g>
<!-- 0&#45;&gt;38 -->
<g id="edge19" class="edge">
<title>0&#45;&gt;38</title>
<path fill="none" stroke="black" stroke-dasharray="1,5" d="M399,-307.81C399,-299.79 399,-290.05 399,-281.07"/>
<polygon fill="black" stroke="black" points="402.5,-281.03 399,-271.03 395.5,-281.03 402.5,-281.03"/>
</g>
<!-- 8 -->
<g id="node3" class="node">
<title>8</title>
<ellipse fill="none" stroke="black" cx="696" cy="-472" rx="55.79" ry="18"/>
<text text-anchor="middle" x="696" y="-468.3" font-family="Times,serif" font-size="14.00">V2250 (a)</text>
</g>
<!-- 10 -->
<g id="node4" class="node">
<title>10</title>
<ellipse fill="none" stroke="black" cx="399" cy="-399" rx="50.09" ry="18"/>
<text text-anchor="middle" x="399" y="-395.3" font-family="Times,serif" font-size="14.00">V536 (a)</text>
</g>
<!-- 10&#45;&gt;0 -->
<g id="edge1" class="edge">
<title>10&#45;&gt;0</title>
<path fill="none" stroke="black" stroke-dasharray="1,5" d="M399,-380.81C399,-372.79 399,-363.05 399,-354.07"/>
<polygon fill="black" stroke="black" points="402.5,-354.03 399,-344.03 395.5,-354.03 402.5,-354.03"/>
</g>
<!-- 11 -->
<g id="node5" class="node">
<title>11</title>
<ellipse fill="none" stroke="black" cx="253" cy="-545" rx="42.79" ry="18"/>
<text text-anchor="middle" x="253" y="-541.3" font-family="Times,serif" font-size="14.00">La2 (a)</text>
</g>
<!-- 16 -->
<g id="node6" class="node">
<title>16</title>
<ellipse fill="none" stroke="black" cx="290" cy="-180" rx="40.89" ry="18"/>
<text text-anchor="middle" x="290" y="-176.3" font-family="Times,serif" font-size="14.00">Sin (a)</text>
</g>
<!-- 31 -->
<g id="node16" class="node">
<title>31</title>
<ellipse fill="none" stroke="black" cx="290" cy="-107" rx="50.09" ry="18"/>
<text text-anchor="middle" x="290" y="-103.3" font-family="Times,serif" font-size="14.00">Marc (a)</text>
</g>
<!-- 16&#45;&gt;31 -->
<g id="edge15" class="edge">
<title>16&#45;&gt;31</title>
<path fill="none" stroke="black" stroke-dasharray="1,5" d="M290,-161.81C290,-153.79 290,-144.05 290,-135.07"/>
<polygon fill="black" stroke="black" points="293.5,-135.03 290,-125.03 286.5,-135.03 293.5,-135.03"/>
</g>
<!-- 17 -->
<g id="node7" class="node">
<title>17</title>
<ellipse fill="none" stroke="black" cx="367" cy="-545" rx="52.79" ry="18"/>
<text text-anchor="middle" x="367" y="-541.3" font-family="Times,serif" font-size="14.00">M136 (a)</text>
</g>
<!-- 18 -->
<g id="node8" class="node">
<title>18</title>
<ellipse fill="none" stroke="black" cx="734" cy="-399" rx="42.79" ry="18"/>
<text text-anchor="middle" x="734" y="-395.3" font-family="Times,serif" font-size="14.00">Bas (a)</text>
</g>
<!-- 19 -->
<g id="node9" class="node">
<title>19</title>
<ellipse fill="none" stroke="black" cx="566" cy="-472" rx="55.79" ry="18"/>
<text text-anchor="middle" x="566" y="-468.3" font-family="Times,serif" font-size="14.00">V1920 (a)</text>
</g>
<!-- 22 -->
<g id="node10" class="node">
<title>22</title>
<ellipse fill="none" stroke="black" cx="488" cy="-545" rx="50.09" ry="18"/>
<text text-anchor="middle" x="488" y="-541.3" font-family="Times,serif" font-size="14.00">Neap (a)</text>
</g>
<!-- 34 -->
<g id="node18" class="node">
<title>34</title>
<ellipse fill="none" stroke="black" cx="436" cy="-472" rx="55.79" ry="18"/>
<text text-anchor="middle" x="436" y="-468.3" font-family="Times,serif" font-size="14.00">V1629 (a)</text>
</g>
<!-- 22&#45;&gt;34 -->
<g id="edge16" class="edge">
<title>22&#45;&gt;34</title>
<path fill="none" stroke="black" stroke-dasharray="1,5" d="M475.68,-527.17C469.27,-518.42 461.3,-507.55 454.2,-497.85"/>
<polygon fill="black" stroke="black" points="456.97,-495.7 448.23,-489.71 451.32,-499.84 456.97,-495.7"/>
</g>
<!-- 23 -->
<g id="node11" class="node">
<title>23</title>
<ellipse fill="none" stroke="black" cx="606" cy="-545" rx="50.09" ry="18"/>
<text text-anchor="middle" x="606" y="-541.3" font-family="Times,serif" font-size="14.00">V565 (a)</text>
</g>
<!-- 24 -->
<g id="node12" class="node">
<title>24</title>
<ellipse fill="none" stroke="black" cx="836" cy="-399" rx="41.69" ry="18"/>
<text text-anchor="middle" x="836" y="-395.3" font-family="Times,serif" font-size="14.00">Est (a)</text>
</g>
<!-- 25 -->
<g id="node13" class="node">
<title>25</title>
<ellipse fill="none" stroke="black" cx="724" cy="-545" rx="50.09" ry="18"/>
<text text-anchor="middle" x="724" y="-541.3" font-family="Times,serif" font-size="14.00">V560 (a)</text>
</g>
<!-- 25&#45;&gt;19 -->
<g id="edge8" class="edge">
<title>25&#45;&gt;19</title>
<path fill="none" stroke="black" stroke-dasharray="5,2" d="M693.91,-530.48C669.16,-519.36 633.85,-503.49 606.6,-491.25"/>
<polygon fill="black" stroke="black" points="607.89,-487.99 597.33,-487.08 605.02,-494.37 607.89,-487.99"/>
</g>
<!-- 26 -->
<g id="node14" class="node">
<title>26</title>
<ellipse fill="none" stroke="black" cx="518" cy="-399" rx="50.89" ry="18"/>
<text text-anchor="middle" x="518" y="-395.3" font-family="Times,serif" font-size="14.00">La2&#45;c (a)</text>
</g>
<!-- 27 -->
<g id="node15" class="node">
<title>27</title>
<ellipse fill="none" stroke="black" cx="837" cy="-545" rx="44.69" ry="18"/>
<text text-anchor="middle" x="837" y="-541.3" font-family="Times,serif" font-size="14.00">Nan (a)</text>
</g>
<!-- 27&#45;&gt;8 -->
<g id="edge2" class="edge">
<title>27&#45;&gt;8</title>
<path fill="none" stroke="black" stroke-dasharray="5,2" d="M810.15,-530.48C788.7,-519.68 758.38,-504.41 734.37,-492.32"/>
<polygon fill="black" stroke="black" points="735.69,-489.07 725.18,-487.7 732.54,-495.32 735.69,-489.07"/>
</g>
<!-- 35 -->
<g id="node19" class="node">
<title>35</title>
<ellipse fill="none" stroke="black" cx="826" cy="-472" rx="55.79" ry="18"/>
<text text-anchor="middle" x="826" y="-468.3" font-family="Times,serif" font-size="14.00">V1897 (a)</text>
</g>
<!-- 27&#45;&gt;35 -->
<g id="edge17" class="edge">
<title>27&#45;&gt;35</title>
<path fill="none" stroke="black" stroke-dasharray="1,5" d="M834.34,-526.81C833.09,-518.79 831.58,-509.05 830.19,-500.07"/>
<polygon fill="black" stroke="black" points="833.63,-499.38 828.64,-490.03 826.71,-500.45 833.63,-499.38"/>
</g>
<!-- 42 -->
<g id="node23" class="node">
<title>42</title>
<ellipse fill="none" stroke="black" cx="290" cy="-34" rx="46.29" ry="18"/>
<text text-anchor="middle" x="290" y="-30.3" font-family="Times,serif" font-size="14.00">Mon (a)</text>
</g>
<!-- 31&#45;&gt;42 -->
<g id="edge21" class="edge">
<title>31&#45;&gt;42</title>
<path fill="none" stroke="black" stroke-dasharray="1,5" d="M290,-88.81C290,-80.79 290,-71.05 290,-62.07"/>
<polygon fill="black" stroke="black" points="293.5,-62.03 290,-52.03 286.5,-62.03 293.5,-62.03"/>
</g>
<!-- 32 -->
<g id="node17" class="node">
<title>32</title>
<ellipse fill="none" stroke="black" cx="547" cy="-629" rx="53.89" ry="18"/>
<text text-anchor="middle" x="547" y="-625.3" font-family="Times,serif" font-size="14.00">aBase (a)</text>
</g>
<!-- 32&#45;&gt;11 -->
<g id="edge4" class="edge">
<title>32&#45;&gt;11</title>
<path fill="none" stroke="black" stroke-width="2" d="M505.27,-617.52C456.89,-605.19 374.84,-583.78 305,-563 301.71,-562.02 298.32,-560.98 294.92,-559.92"/>
<polygon fill="black" stroke="black" stroke-width="2" points="295.96,-556.58 285.37,-556.88 293.84,-563.25 295.96,-556.58"/>
</g>
<!-- 32&#45;&gt;17 -->
<g id="edge6" class="edge">
<title>32&#45;&gt;17</title>
<path fill="none" stroke="black" stroke-width="2" d="M516.47,-614.09C486.25,-600.32 439.84,-579.18 406.76,-564.11"/>
<polygon fill="black" stroke="black" stroke-width="2" points="407.93,-560.8 397.38,-559.84 405.03,-567.17 407.93,-560.8"/>
</g>
<!-- 32&#45;&gt;22 -->
<g id="edge9" class="edge">
<title>32&#45;&gt;22</title>
<path fill="none" stroke="black" stroke-width="2" d="M535.06,-611.41C526.66,-599.74 515.28,-583.92 505.82,-570.76"/>
<polygon fill="black" stroke="black" stroke-width="2" points="508.6,-568.64 499.92,-562.57 502.92,-572.73 508.6,-568.64"/>
</g>
<!-- 32&#45;&gt;23 -->
<g id="edge10" class="edge">
<title>32&#45;&gt;23</title>
<path fill="none" stroke="black" d="M558.94,-611.41C567.34,-599.74 578.72,-583.92 588.18,-570.76"/>
<polygon fill="black" stroke="black" points="591.08,-572.73 594.08,-562.57 585.4,-568.64 591.08,-572.73"/>
<text text-anchor="middle" x="583.5" y="-584" font-family="Times,serif" font-size="10.00">5</text>
</g>
<!-- 32&#45;&gt;25 -->
<g id="edge12" class="edge">
<title>32&#45;&gt;25</title>
<path fill="none" stroke="black" stroke-width="2" d="M577.43,-613.9C607.29,-600.07 652.96,-578.91 685.37,-563.89"/>
<polygon fill="black" stroke="black" stroke-width="2" points="686.96,-567.02 694.56,-559.64 684.01,-560.67 686.96,-567.02"/>
</g>
<!-- 32&#45;&gt;27 -->
<g id="edge14" class="edge">
<title>32&#45;&gt;27</title>
<path fill="none" stroke="black" d="M588.06,-617.18C635.24,-604.62 714.93,-583.08 783,-563 786.35,-562.01 789.82,-560.97 793.3,-559.91"/>
<polygon fill="black" stroke="black" points="794.54,-563.18 803.07,-556.89 792.48,-556.5 794.54,-563.18"/>
</g>
<!-- 34&#45;&gt;10 -->
<g id="edge3" class="edge">
<title>34&#45;&gt;10</title>
<path fill="none" stroke="black" stroke-dasharray="5,2" d="M427.23,-454.17C422.87,-445.81 417.5,-435.51 412.62,-426.14"/>
<polygon fill="black" stroke="black" points="415.69,-424.45 407.96,-417.2 409.48,-427.68 415.69,-424.45"/>
</g>
<!-- 34&#45;&gt;26 -->
<g id="edge13" class="edge">
<title>34&#45;&gt;26</title>
<path fill="none" stroke="black" stroke-width="2" d="M454.61,-454.89C465.69,-445.29 479.93,-432.96 492.1,-422.42"/>
<polygon fill="black" stroke="black" stroke-width="2" points="494.48,-424.99 499.75,-415.8 489.9,-419.7 494.48,-424.99"/>
</g>
<!-- 35&#45;&gt;18 -->
<g id="edge7" class="edge">
<title>35&#45;&gt;18</title>
<path fill="none" stroke="black" d="M805.58,-455.24C792.66,-445.27 775.79,-432.25 761.67,-421.36"/>
<polygon fill="black" stroke="black" points="763.78,-418.56 753.73,-415.23 759.51,-424.11 763.78,-418.56"/>
</g>
<!-- 35&#45;&gt;24 -->
<g id="edge11" class="edge">
<title>35&#45;&gt;24</title>
<path fill="none" stroke="black" stroke-dasharray="1,5" d="M828.42,-453.81C829.55,-445.79 830.92,-436.05 832.19,-427.07"/>
<polygon fill="black" stroke="black" points="835.67,-427.42 833.6,-417.03 828.74,-426.44 835.67,-427.42"/>
</g>
<!-- 37 -->
<g id="node20" class="node">
<title>37</title>
<ellipse fill="none" stroke="black" cx="399" cy="-180" rx="50.09" ry="18"/>
<text text-anchor="middle" x="399" y="-176.3" font-family="Times,serif" font-size="14.00">V569 (a)</text>
</g>
<!-- 38&#45;&gt;16 -->
<g id="edge5" class="edge">
<title>38&#45;&gt;16</title>
<path fill="none" stroke="black" stroke-dasharray="1,5" d="M376.15,-237.12C360.1,-226.66 338.43,-212.55 320.85,-201.09"/>
<polygon fill="black" stroke="black" points="322.36,-197.9 312.08,-195.38 318.54,-203.77 322.36,-197.9"/>
</g>
<!-- 38&#45;&gt;37 -->
<g id="edge18" class="edge">
<title>38&#45;&gt;37</title>
<path fill="none" stroke="black" stroke-dasharray="5,2" d="M399,-234.81C399,-226.79 399,-217.05 399,-208.07"/>
<polygon fill="black" stroke="black" points="402.5,-208.03 399,-198.03 395.5,-208.03 402.5,-208.03"/>
</g>
<!-- 44 -->
<g id="node24" class="node">
<title>44</title>
<ellipse fill="none" stroke="black" cx="520" cy="-180" rx="52.79" ry="18"/>
<text text-anchor="middle" x="520" y="-176.3" font-family="Times,serif" font-size="14.00">M118 (a)</text>
</g>
<!-- 38&#45;&gt;44 -->
<g id="edge22" class="edge">
<title>38&#45;&gt;44</title>
<path fill="none" stroke="black" stroke-dasharray="5,2" d="M423.49,-237.63C441.45,-227.09 466.08,-212.64 485.96,-200.97"/>
<polygon fill="black" stroke="black" points="487.86,-203.91 494.72,-195.84 484.32,-197.88 487.86,-203.91"/>
</g>
<!-- 40 -->
<g id="node22" class="node">
<title>40</title>
<ellipse fill="none" stroke="black" cx="520" cy="-107" rx="44.39" ry="18"/>
<text text-anchor="middle" x="520" y="-103.3" font-family="Times,serif" font-size="14.00">P18 (a)</text>
</g>
<!-- 44&#45;&gt;40 -->
<g id="edge20" class="edge">
<title>44&#45;&gt;40</title>
<path fill="none" stroke="black" stroke-dasharray="5,2" d="M520,-161.81C520,-153.79 520,-144.05 520,-135.07"/>
<polygon fill="black" stroke="black" points="523.5,-135.03 520,-125.03 516.5,-135.03 523.5,-135.03"/>
</g>
</g>
</svg>
