<?xml version="1.0" encoding="UTF-8" standalone="no"?>
<!DOCTYPE svg PUBLIC "-//W3C//DTD SVG 1.1//EN"
 "http://www.w3.org/Graphics/SVG/1.1/DTD/svg11.dtd">
<!-- Generated by graphviz version 2.43.0 (0)
 -->
<!-- Title: textual_flow_diagram Pages: 1 -->
<svg width="1204pt" height="307pt"
 viewBox="0.00 0.00 1204.00 307.00" xmlns="http://www.w3.org/2000/svg" xmlns:xlink="http://www.w3.org/1999/xlink">
<g id="graph0" class="graph" transform="scale(1 1) rotate(0) translate(4 303)">
<title>textual_flow_diagram</title>
<polygon fill="white" stroke="transparent" points="-4,4 -4,-303 1200,-303 1200,4 -4,4"/>
<g id="clust1" class="cluster">
<title>cluster_legend</title>
<polygon fill="none" stroke="black" points="8,-237 8,-291 204,-291 204,-237 8,-237"/>
</g>
<g id="clust2" class="cluster">
<title>cluster_plot</title>
</g>
<!-- label -->
<g id="node1" class="node">
<title>label</title>
<text text-anchor="middle" x="106" y="-267.8" font-family="Times,serif" font-size="14.00">adstag1.2.23U20&#45;26, a</text>
<text text-anchor="middle" x="106" y="-252.8" font-family="Times,serif" font-size="14.00">Con = 5</text>
</g>
<!-- 0 -->
<g id="node2" class="node">
<title>0</title>
<ellipse fill="none" stroke="black" cx="676" cy="-180" rx="44.39" ry="18"/>
<text text-anchor="middle" x="676" y="-176.3" font-family="Times,serif" font-size="14.00">A25 (a)</text>
</g>
<!-- 15 -->
<g id="node7" class="node">
<title>15</title>
<ellipse fill="none" stroke="black" cx="332" cy="-107" rx="40.09" ry="18"/>
<text text-anchor="middle" x="332" y="-103.3" font-family="Times,serif" font-size="14.00">Pal (a)</text>
</g>
<!-- 0&#45;&gt;15 -->
<g id="edge5" class="edge">
<title>0&#45;&gt;15</title>
<path fill="none" stroke="black" stroke-dasharray="5,2" d="M635.63,-172.3C580.7,-162.94 479.45,-144.86 394,-125 387.79,-123.56 381.27,-121.91 374.88,-120.23"/>
<polygon fill="black" stroke="black" points="375.59,-116.79 365.02,-117.57 373.76,-123.55 375.59,-116.79"/>
</g>
<!-- 19 -->
<g id="node8" class="node">
<title>19</title>
<ellipse fill="none" stroke="black" cx="453" cy="-107" rx="50.09" ry="18"/>
<text text-anchor="middle" x="453" y="-103.3" font-family="Times,serif" font-size="14.00">V566 (a)</text>
</g>
<!-- 0&#45;&gt;19 -->
<g id="edge6" class="edge">
<title>0&#45;&gt;19</title>
<path fill="none" stroke="black" stroke-dasharray="5,2" d="M642.13,-168.22C603.92,-156.05 541.57,-136.2 498.99,-122.64"/>
<polygon fill="black" stroke="black" points="500.01,-119.29 489.41,-119.59 497.88,-125.96 500.01,-119.29"/>
</g>
<!-- 22 -->
<g id="node10" class="node">
<title>22</title>
<ellipse fill="none" stroke="black" cx="565" cy="-107" rx="44.39" ry="18"/>
<text text-anchor="middle" x="565" y="-103.3" font-family="Times,serif" font-size="14.00">S32 (a)</text>
</g>
<!-- 0&#45;&gt;22 -->
<g id="edge8" class="edge">
<title>0&#45;&gt;22</title>
<path fill="none" stroke="black" stroke-dasharray="5,2" d="M653.27,-164.46C636.81,-153.93 614.36,-139.57 596.21,-127.97"/>
<polygon fill="black" stroke="black" points="598.01,-124.96 587.7,-122.52 594.24,-130.86 598.01,-124.96"/>
</g>
<!-- 27 -->
<g id="node13" class="node">
<title>27</title>
<ellipse fill="none" stroke="black" cx="676" cy="-107" rx="48.99" ry="18"/>
<text text-anchor="middle" x="676" y="-103.3" font-family="Times,serif" font-size="14.00">La22 (a)</text>
</g>
<!-- 0&#45;&gt;27 -->
<g id="edge11" class="edge">
<title>0&#45;&gt;27</title>
<path fill="none" stroke="black" stroke-dasharray="1,5" d="M676,-161.81C676,-153.79 676,-144.05 676,-135.07"/>
<polygon fill="black" stroke="black" points="679.5,-135.03 676,-125.03 672.5,-135.03 679.5,-135.03"/>
</g>
<!-- 34 -->
<g id="node18" class="node">
<title>34</title>
<ellipse fill="none" stroke="black" cx="793" cy="-107" rx="50.09" ry="18"/>
<text text-anchor="middle" x="793" y="-103.3" font-family="Times,serif" font-size="14.00">Patm (a)</text>
</g>
<!-- 0&#45;&gt;34 -->
<g id="edge16" class="edge">
<title>0&#45;&gt;34</title>
<path fill="none" stroke="black" stroke-dasharray="1,5" d="M699.68,-164.63C716.97,-154.14 740.65,-139.77 759.82,-128.13"/>
<polygon fill="black" stroke="black" points="761.82,-131.02 768.55,-122.84 758.19,-125.03 761.82,-131.02"/>
</g>
<!-- 39 -->
<g id="node19" class="node">
<title>39</title>
<ellipse fill="none" stroke="black" cx="905" cy="-107" rx="44.39" ry="18"/>
<text text-anchor="middle" x="905" y="-103.3" font-family="Times,serif" font-size="14.00">P01 (a)</text>
</g>
<!-- 0&#45;&gt;39 -->
<g id="edge17" class="edge">
<title>0&#45;&gt;39</title>
<path fill="none" stroke="black" stroke-dasharray="5,2" d="M710.44,-168.57C745.95,-157.79 802.9,-140.41 852,-125 855.13,-124.02 858.37,-122.99 861.63,-121.96"/>
<polygon fill="black" stroke="black" points="862.91,-125.23 871.38,-118.86 860.78,-118.56 862.91,-125.23"/>
</g>
<!-- 1 -->
<g id="node3" class="node">
<title>1</title>
<ellipse fill="none" stroke="black" cx="422" cy="-180" rx="40.89" ry="18"/>
<text text-anchor="middle" x="422" y="-176.3" font-family="Times,serif" font-size="14.00">Sin (a)</text>
</g>
<!-- 5 -->
<g id="node4" class="node">
<title>5</title>
<ellipse fill="none" stroke="black" cx="285" cy="-34" rx="64.99" ry="18"/>
<text text-anchor="middle" x="285" y="-30.3" font-family="Times,serif" font-size="14.00">Savile&#45;Η (a)</text>
</g>
<!-- 11 -->
<g id="node5" class="node">
<title>11</title>
<ellipse fill="none" stroke="black" cx="899" cy="-264" rx="53.89" ry="18"/>
<text text-anchor="middle" x="899" y="-260.3" font-family="Times,serif" font-size="14.00">aBase (a)</text>
</g>
<!-- 11&#45;&gt;0 -->
<g id="edge1" class="edge">
<title>11&#45;&gt;0</title>
<path fill="none" stroke="black" stroke-dasharray="5,2" d="M864.16,-250.19C824.38,-235.56 759.38,-211.66 717.15,-196.13"/>
<polygon fill="black" stroke="black" points="718.31,-192.83 707.71,-192.66 715.89,-199.4 718.31,-192.83"/>
</g>
<!-- 30 -->
<g id="node15" class="node">
<title>30</title>
<ellipse fill="none" stroke="black" cx="787" cy="-180" rx="44.39" ry="18"/>
<text text-anchor="middle" x="787" y="-176.3" font-family="Times,serif" font-size="14.00">B39 (a)</text>
</g>
<!-- 11&#45;&gt;30 -->
<g id="edge13" class="edge">
<title>11&#45;&gt;30</title>
<path fill="none" stroke="black" stroke-width="2" d="M877.67,-247.38C860.09,-234.51 834.99,-216.14 815.66,-201.98"/>
<polygon fill="black" stroke="black" stroke-width="2" points="817.63,-199.09 807.49,-196.01 813.5,-204.74 817.63,-199.09"/>
<text text-anchor="middle" x="852.5" y="-219" font-family="Times,serif" font-size="10.00">2</text>
</g>
<!-- 31 -->
<g id="node16" class="node">
<title>31</title>
<ellipse fill="none" stroke="black" cx="899" cy="-180" rx="50.09" ry="18"/>
<text text-anchor="middle" x="899" y="-176.3" font-family="Times,serif" font-size="14.00">S249 (a)</text>
</g>
<!-- 11&#45;&gt;31 -->
<g id="edge14" class="edge">
<title>11&#45;&gt;31</title>
<path fill="none" stroke="black" d="M899,-245.61C899,-234.77 899,-220.6 899,-208.29"/>
<polygon fill="black" stroke="black" points="902.5,-208.08 899,-198.08 895.5,-208.08 902.5,-208.08"/>
</g>
<!-- 33 -->
<g id="node17" class="node">
<title>33</title>
<ellipse fill="none" stroke="black" cx="1017" cy="-180" rx="50.09" ry="18"/>
<text text-anchor="middle" x="1017" y="-176.3" font-family="Times,serif" font-size="14.00">V560 (a)</text>
</g>
<!-- 11&#45;&gt;33 -->
<g id="edge15" class="edge">
<title>11&#45;&gt;33</title>
<path fill="none" stroke="black" stroke-width="2" d="M921.19,-247.58C939.65,-234.75 966.12,-216.36 986.56,-202.16"/>
<polygon fill="black" stroke="black" stroke-width="2" points="988.69,-204.94 994.9,-196.35 984.7,-199.19 988.69,-204.94"/>
</g>
<!-- 44 -->
<g id="node22" class="node">
<title>44</title>
<ellipse fill="none" stroke="black" cx="1128" cy="-180" rx="42.79" ry="18"/>
<text text-anchor="middle" x="1128" y="-176.3" font-family="Times,serif" font-size="14.00">La2 (a)</text>
</g>
<!-- 11&#45;&gt;44 -->
<g id="edge20" class="edge">
<title>11&#45;&gt;44</title>
<path fill="none" stroke="black" stroke-width="2" d="M934.28,-250.37C975.45,-235.62 1043.43,-211.28 1086.94,-195.7"/>
<polygon fill="black" stroke="black" stroke-width="2" points="1088.14,-198.99 1096.37,-192.33 1085.78,-192.4 1088.14,-198.99"/>
</g>
<!-- 13 -->
<g id="node6" class="node">
<title>13</title>
<ellipse fill="none" stroke="black" cx="418" cy="-34" rx="50.09" ry="18"/>
<text text-anchor="middle" x="418" y="-30.3" font-family="Times,serif" font-size="14.00">V571 (a)</text>
</g>
<!-- 15&#45;&gt;5 -->
<g id="edge3" class="edge">
<title>15&#45;&gt;5</title>
<path fill="none" stroke="black" d="M321.1,-89.53C315.37,-80.88 308.22,-70.08 301.8,-60.38"/>
<polygon fill="black" stroke="black" points="304.61,-58.28 296.17,-51.87 298.77,-62.14 304.61,-58.28"/>
</g>
<!-- 21 -->
<g id="node9" class="node">
<title>21</title>
<ellipse fill="none" stroke="black" cx="539" cy="-34" rx="52.79" ry="18"/>
<text text-anchor="middle" x="539" y="-30.3" font-family="Times,serif" font-size="14.00">M111 (a)</text>
</g>
<!-- 25 -->
<g id="node11" class="node">
<title>25</title>
<ellipse fill="none" stroke="black" cx="666" cy="-34" rx="55.79" ry="18"/>
<text text-anchor="middle" x="666" y="-30.3" font-family="Times,serif" font-size="14.00">V2036 (a)</text>
</g>
<!-- 26 -->
<g id="node12" class="node">
<title>26</title>
<ellipse fill="none" stroke="black" cx="789" cy="-34" rx="48.99" ry="18"/>
<text text-anchor="middle" x="789" y="-30.3" font-family="Times,serif" font-size="14.00">La35 (a)</text>
</g>
<!-- 27&#45;&gt;13 -->
<g id="edge4" class="edge">
<title>27&#45;&gt;13</title>
<path fill="none" stroke="black" stroke-dasharray="1,5" d="M639.23,-95.05C632.19,-93 624.88,-90.91 618,-89 555.57,-71.66 539.47,-69.19 477,-52 473.23,-50.96 469.34,-49.88 465.43,-48.77"/>
<polygon fill="black" stroke="black" points="466.31,-45.38 455.73,-46.02 464.39,-52.12 466.31,-45.38"/>
</g>
<!-- 27&#45;&gt;21 -->
<g id="edge7" class="edge">
<title>27&#45;&gt;21</title>
<path fill="none" stroke="black" stroke-dasharray="1,5" d="M648.93,-91.97C628.1,-81.17 599.07,-66.13 576.08,-54.21"/>
<polygon fill="black" stroke="black" points="577.44,-50.98 566.95,-49.49 574.22,-57.19 577.44,-50.98"/>
</g>
<!-- 27&#45;&gt;25 -->
<g id="edge9" class="edge">
<title>27&#45;&gt;25</title>
<path fill="none" stroke="black" stroke-dasharray="5,2" d="M673.58,-88.81C672.45,-80.79 671.08,-71.05 669.81,-62.07"/>
<polygon fill="black" stroke="black" points="673.26,-61.44 668.4,-52.03 666.33,-62.42 673.26,-61.44"/>
</g>
<!-- 27&#45;&gt;26 -->
<g id="edge10" class="edge">
<title>27&#45;&gt;26</title>
<path fill="none" stroke="black" stroke-dasharray="1,5" d="M699.69,-91.12C716.26,-80.7 738.6,-66.67 756.79,-55.24"/>
<polygon fill="black" stroke="black" points="758.74,-58.15 765.34,-49.86 755.01,-52.22 758.74,-58.15"/>
</g>
<!-- 29 -->
<g id="node14" class="node">
<title>29</title>
<ellipse fill="none" stroke="black" cx="906" cy="-34" rx="50.09" ry="18"/>
<text text-anchor="middle" x="906" y="-30.3" font-family="Times,serif" font-size="14.00">V565 (a)</text>
</g>
<!-- 27&#45;&gt;29 -->
<g id="edge12" class="edge">
<title>27&#45;&gt;29</title>
<path fill="none" stroke="black" stroke-dasharray="5,2" d="M712.19,-94.83C751.98,-82.55 816.01,-62.78 859.49,-49.36"/>
<polygon fill="black" stroke="black" points="860.74,-52.64 869.26,-46.34 858.67,-45.95 860.74,-52.64"/>
</g>
<!-- 41 -->
<g id="node20" class="node">
<title>41</title>
<ellipse fill="none" stroke="black" cx="1018" cy="-34" rx="44.39" ry="18"/>
<text text-anchor="middle" x="1018" y="-30.3" font-family="Times,serif" font-size="14.00">P74 (a)</text>
</g>
<!-- 27&#45;&gt;41 -->
<g id="edge18" class="edge">
<title>27&#45;&gt;41</title>
<path fill="none" stroke="black" stroke-dasharray="1,5" d="M712.01,-94.68C719.25,-92.62 726.84,-90.62 734,-89 835.42,-66.11 863.87,-76.17 965,-52 968.44,-51.18 971.98,-50.24 975.52,-49.24"/>
<polygon fill="black" stroke="black" points="976.83,-52.51 985.42,-46.3 974.84,-45.8 976.83,-52.51"/>
</g>
<!-- 45 -->
<g id="node23" class="node">
<title>45</title>
<ellipse fill="none" stroke="black" cx="1130" cy="-34" rx="50.09" ry="18"/>
<text text-anchor="middle" x="1130" y="-30.3" font-family="Times,serif" font-size="14.00">A116 (a)</text>
</g>
<!-- 27&#45;&gt;45 -->
<g id="edge21" class="edge">
<title>27&#45;&gt;45</title>
<path fill="none" stroke="black" stroke-dasharray="5,2" d="M711.34,-94.57C718.76,-92.47 726.59,-90.48 734,-89 881.76,-59.47 923.18,-81.19 1071,-52 1075.18,-51.18 1079.49,-50.19 1083.79,-49.13"/>
<polygon fill="black" stroke="black" points="1084.95,-52.44 1093.73,-46.51 1083.17,-45.67 1084.95,-52.44"/>
</g>
<!-- 43 -->
<g id="node21" class="node">
<title>43</title>
<ellipse fill="none" stroke="black" cx="1023" cy="-107" rx="55.79" ry="18"/>
<text text-anchor="middle" x="1023" y="-103.3" font-family="Times,serif" font-size="14.00">V1920 (a)</text>
</g>
<!-- 33&#45;&gt;43 -->
<g id="edge19" class="edge">
<title>33&#45;&gt;43</title>
<path fill="none" stroke="black" stroke-dasharray="5,2" d="M1018.45,-161.81C1019.13,-153.79 1019.95,-144.05 1020.71,-135.07"/>
<polygon fill="black" stroke="black" points="1024.21,-135.29 1021.56,-125.03 1017.23,-134.7 1024.21,-135.29"/>
</g>
<!-- 14 -->
<g id="node24" class="node">
<title>14</title>
<ellipse fill="none" stroke="blue" stroke-dasharray="5,2" cx="422" cy="-264" rx="47.39" ry="18"/>
<text text-anchor="middle" x="422" y="-260.3" font-family="Times,serif" font-size="14.00">Taur (b)</text>
</g>
<!-- 14&#45;&gt;1 -->
<g id="edge2" class="edge">
<title>14&#45;&gt;1</title>
<path fill="none" stroke="blue" stroke-dasharray="1,5" d="M422,-245.61C422,-234.77 422,-220.6 422,-208.29"/>
<polygon fill="blue" stroke="blue" points="425.5,-208.08 422,-198.08 418.5,-208.08 425.5,-208.08"/>
</g>
</g>
</svg>
