<?xml version="1.0" encoding="UTF-8" standalone="no"?>
<!DOCTYPE svg PUBLIC "-//W3C//DTD SVG 1.1//EN"
 "http://www.w3.org/Graphics/SVG/1.1/DTD/svg11.dtd">
<!-- Generated by graphviz version 2.43.0 (0)
 -->
<!-- Title: textual_flow_diagram Pages: 1 -->
<svg width="330pt" height="294pt"
 viewBox="0.00 0.00 330.00 294.00" xmlns="http://www.w3.org/2000/svg" xmlns:xlink="http://www.w3.org/1999/xlink">
<g id="graph0" class="graph" transform="scale(1 1) rotate(0) translate(4 290)">
<title>textual_flow_diagram</title>
<polygon fill="white" stroke="transparent" points="-4,4 -4,-290 326,-290 326,4 -4,4"/>
<g id="clust1" class="cluster">
<title>cluster_legend</title>
<polygon fill="none" stroke="black" points="8,-224 8,-278 190,-278 190,-224 8,-224"/>
</g>
<g id="clust2" class="cluster">
<title>cluster_plot</title>
</g>
<!-- label -->
<g id="node1" class="node">
<title>label</title>
<text text-anchor="middle" x="99" y="-254.8" font-family="Times,serif" font-size="14.00">adstag1.2.40U100, b</text>
<text text-anchor="middle" x="99" y="-239.8" font-family="Times,serif" font-size="14.00">Con = 5</text>
</g>
<!-- 8 -->
<g id="node2" class="node">
<title>8</title>
<ellipse fill="none" stroke="black" cx="256" cy="-178" rx="50.09" ry="18"/>
<text text-anchor="middle" x="256" y="-174.3" font-family="Times,serif" font-size="14.00">Marc (b)</text>
</g>
<!-- 13 -->
<g id="node3" class="node">
<title>13</title>
<ellipse fill="none" stroke="black" cx="256" cy="-106" rx="46.59" ry="18"/>
<text text-anchor="middle" x="256" y="-102.3" font-family="Times,serif" font-size="14.00">Mon (b)</text>
</g>
<!-- 8&#45;&gt;13 -->
<g id="edge2" class="edge">
<title>8&#45;&gt;13</title>
<path fill="none" stroke="black" stroke-dasharray="1,5" d="M256,-159.7C256,-151.98 256,-142.71 256,-134.11"/>
<polygon fill="black" stroke="black" points="259.5,-134.1 256,-124.1 252.5,-134.1 259.5,-134.1"/>
</g>
<!-- 35 -->
<g id="node4" class="node">
<title>35</title>
<ellipse fill="none" stroke="black" cx="256" cy="-34" rx="41.69" ry="18"/>
<text text-anchor="middle" x="256" y="-30.3" font-family="Times,serif" font-size="14.00">Sin (b)</text>
</g>
<!-- 13&#45;&gt;35 -->
<g id="edge3" class="edge">
<title>13&#45;&gt;35</title>
<path fill="none" stroke="black" stroke-dasharray="1,5" d="M256,-87.7C256,-79.98 256,-70.71 256,-62.11"/>
<polygon fill="black" stroke="black" points="259.5,-62.1 256,-52.1 252.5,-62.1 259.5,-62.1"/>
</g>
<!-- 6 -->
<g id="node5" class="node">
<title>6</title>
<ellipse fill="none" stroke="blue" stroke-dasharray="5,2" cx="256" cy="-251" rx="46.59" ry="18"/>
<text text-anchor="middle" x="256" y="-247.3" font-family="Times,serif" font-size="14.00">Taur (a)</text>
</g>
<!-- 6&#45;&gt;8 -->
<g id="edge1" class="edge">
<title>6&#45;&gt;8</title>
<path fill="none" stroke="blue" stroke-dasharray="1,5" d="M256,-232.81C256,-224.79 256,-215.05 256,-206.07"/>
<polygon fill="blue" stroke="blue" points="259.5,-206.03 256,-196.03 252.5,-206.03 259.5,-206.03"/>
</g>
</g>
</svg>
