<?xml version="1.0" encoding="UTF-8" standalone="no"?>
<!DOCTYPE svg PUBLIC "-//W3C//DTD SVG 1.1//EN"
 "http://www.w3.org/Graphics/SVG/1.1/DTD/svg11.dtd">
<!-- Generated by graphviz version 2.43.0 (0)
 -->
<!-- Title: textual_flow_diagram Pages: 1 -->
<svg width="526pt" height="234pt"
 viewBox="0.00 0.00 526.00 234.00" xmlns="http://www.w3.org/2000/svg" xmlns:xlink="http://www.w3.org/1999/xlink">
<g id="graph0" class="graph" transform="scale(1 1) rotate(0) translate(4 230)">
<title>textual_flow_diagram</title>
<polygon fill="white" stroke="transparent" points="-4,4 -4,-230 522,-230 522,4 -4,4"/>
<g id="clust1" class="cluster">
<title>cluster_legend</title>
<polygon fill="none" stroke="black" points="8,-164 8,-218 182,-218 182,-164 8,-164"/>
</g>
<g id="clust2" class="cluster">
<title>cluster_plot</title>
</g>
<!-- label -->
<g id="node1" class="node">
<title>label</title>
<text text-anchor="middle" x="95" y="-194.8" font-family="Times,serif" font-size="14.00">adstag1.2.40U18, a</text>
<text text-anchor="middle" x="95" y="-179.8" font-family="Times,serif" font-size="14.00">Con = 5</text>
</g>
<!-- 11 -->
<g id="node2" class="node">
<title>11</title>
<ellipse fill="none" stroke="black" cx="248" cy="-34" rx="50.09" ry="18"/>
<text text-anchor="middle" x="248" y="-30.3" font-family="Times,serif" font-size="14.00">Marc (a)</text>
</g>
<!-- 12 -->
<g id="node3" class="node">
<title>12</title>
<ellipse fill="none" stroke="black" cx="239" cy="-107" rx="40.89" ry="18"/>
<text text-anchor="middle" x="239" y="-103.3" font-family="Times,serif" font-size="14.00">Sin (a)</text>
</g>
<!-- 12&#45;&gt;11 -->
<g id="edge1" class="edge">
<title>12&#45;&gt;11</title>
<path fill="none" stroke="black" stroke-dasharray="1,5" d="M241.18,-88.81C242.2,-80.79 243.43,-71.05 244.57,-62.07"/>
<polygon fill="black" stroke="black" points="248.06,-62.39 245.84,-52.03 241.11,-61.51 248.06,-62.39"/>
</g>
<!-- 13 -->
<g id="node4" class="node">
<title>13</title>
<ellipse fill="none" stroke="black" cx="341" cy="-107" rx="42.79" ry="18"/>
<text text-anchor="middle" x="341" y="-103.3" font-family="Times,serif" font-size="14.00">Bas (a)</text>
</g>
<!-- 14 -->
<g id="node5" class="node">
<title>14</title>
<ellipse fill="none" stroke="black" cx="452" cy="-107" rx="50.09" ry="18"/>
<text text-anchor="middle" x="452" y="-103.3" font-family="Times,serif" font-size="14.00">V560 (a)</text>
</g>
<!-- 23 -->
<g id="node6" class="node">
<title>23</title>
<ellipse fill="none" stroke="black" cx="446" cy="-34" rx="55.79" ry="18"/>
<text text-anchor="middle" x="446" y="-30.3" font-family="Times,serif" font-size="14.00">V1920 (a)</text>
</g>
<!-- 14&#45;&gt;23 -->
<g id="edge5" class="edge">
<title>14&#45;&gt;23</title>
<path fill="none" stroke="black" stroke-dasharray="5,2" d="M450.55,-88.81C449.87,-80.79 449.05,-71.05 448.29,-62.07"/>
<polygon fill="black" stroke="black" points="451.77,-61.7 447.44,-52.03 444.79,-62.29 451.77,-61.7"/>
</g>
<!-- 28 -->
<g id="node7" class="node">
<title>28</title>
<ellipse fill="none" stroke="black" cx="406" cy="-191" rx="53.89" ry="18"/>
<text text-anchor="middle" x="406" y="-187.3" font-family="Times,serif" font-size="14.00">aBase (a)</text>
</g>
<!-- 28&#45;&gt;13 -->
<g id="edge3" class="edge">
<title>28&#45;&gt;13</title>
<path fill="none" stroke="black" stroke-width="2" d="M392.85,-173.41C383.53,-161.66 370.89,-145.71 360.42,-132.5"/>
<polygon fill="black" stroke="black" stroke-width="2" points="362.87,-129.95 353.91,-124.29 357.38,-134.3 362.87,-129.95"/>
<text text-anchor="middle" x="380.5" y="-146" font-family="Times,serif" font-size="10.00">3</text>
</g>
<!-- 28&#45;&gt;14 -->
<g id="edge4" class="edge">
<title>28&#45;&gt;14</title>
<path fill="none" stroke="black" stroke-width="2" d="M415.53,-173.01C421.93,-161.61 430.47,-146.39 437.67,-133.54"/>
<polygon fill="black" stroke="black" stroke-width="2" points="440.8,-135.12 442.64,-124.69 434.69,-131.7 440.8,-135.12"/>
</g>
<!-- 38 -->
<g id="node8" class="node">
<title>38</title>
<ellipse fill="none" stroke="blue" stroke-dasharray="5,2" cx="245" cy="-191" rx="47.39" ry="18"/>
<text text-anchor="middle" x="245" y="-187.3" font-family="Times,serif" font-size="14.00">Taur (b)</text>
</g>
<!-- 38&#45;&gt;12 -->
<g id="edge2" class="edge">
<title>38&#45;&gt;12</title>
<path fill="none" stroke="blue" stroke-dasharray="1,5" d="M243.73,-172.61C242.93,-161.77 241.9,-147.6 241,-135.29"/>
<polygon fill="blue" stroke="blue" points="244.47,-134.8 240.25,-125.08 237.49,-135.31 244.47,-134.8"/>
</g>
</g>
</svg>
