<?xml version="1.0" encoding="UTF-8" standalone="no"?>
<!DOCTYPE svg PUBLIC "-//W3C//DTD SVG 1.1//EN"
 "http://www.w3.org/Graphics/SVG/1.1/DTD/svg11.dtd">
<!-- Generated by graphviz version 2.43.0 (0)
 -->
<!-- Title: textual_flow_diagram Pages: 1 -->
<svg width="742pt" height="828pt"
 viewBox="0.00 0.00 742.00 828.00" xmlns="http://www.w3.org/2000/svg" xmlns:xlink="http://www.w3.org/1999/xlink">
<g id="graph0" class="graph" transform="scale(1 1) rotate(0) translate(4 824)">
<title>textual_flow_diagram</title>
<polygon fill="white" stroke="transparent" points="-4,4 -4,-824 738,-824 738,4 -4,4"/>
<g id="clust1" class="cluster">
<title>cluster_legend</title>
<polygon fill="none" stroke="black" points="8,-758 8,-812 182,-812 182,-758 8,-758"/>
</g>
<g id="clust2" class="cluster">
<title>cluster_plot</title>
</g>
<!-- label -->
<g id="node1" class="node">
<title>label</title>
<text text-anchor="middle" x="95" y="-788.8" font-family="Times,serif" font-size="14.00">adstag1.3.47U41, b</text>
<text text-anchor="middle" x="95" y="-773.8" font-family="Times,serif" font-size="14.00">Con = 3</text>
</g>
<!-- 4 -->
<g id="node2" class="node">
<title>4</title>
<ellipse fill="none" stroke="black" cx="248" cy="-107" rx="46.59" ry="18"/>
<text text-anchor="middle" x="248" y="-103.3" font-family="Times,serif" font-size="14.00">Mon (b)</text>
</g>
<!-- 26 -->
<g id="node13" class="node">
<title>26</title>
<ellipse fill="none" stroke="black" cx="248" cy="-34" rx="41.69" ry="18"/>
<text text-anchor="middle" x="248" y="-30.3" font-family="Times,serif" font-size="14.00">Sin (b)</text>
</g>
<!-- 4&#45;&gt;26 -->
<g id="edge12" class="edge">
<title>4&#45;&gt;26</title>
<path fill="none" stroke="black" stroke-dasharray="1,5" d="M248,-88.81C248,-80.79 248,-71.05 248,-62.07"/>
<polygon fill="black" stroke="black" points="251.5,-62.03 248,-52.03 244.5,-62.03 251.5,-62.03"/>
</g>
<!-- 5 -->
<g id="node3" class="node">
<title>5</title>
<ellipse fill="none" stroke="black" cx="249" cy="-545" rx="50.89" ry="18"/>
<text text-anchor="middle" x="249" y="-541.3" font-family="Times,serif" font-size="14.00">Neap (b)</text>
</g>
<!-- 8 -->
<g id="node5" class="node">
<title>8</title>
<ellipse fill="none" stroke="black" cx="261" cy="-472" rx="55.79" ry="18"/>
<text text-anchor="middle" x="261" y="-468.3" font-family="Times,serif" font-size="14.00">V1629 (b)</text>
</g>
<!-- 5&#45;&gt;8 -->
<g id="edge4" class="edge">
<title>5&#45;&gt;8</title>
<path fill="none" stroke="black" stroke-dasharray="1,5" d="M251.9,-526.81C253.26,-518.79 254.91,-509.05 256.42,-500.07"/>
<polygon fill="black" stroke="black" points="259.91,-500.47 258.12,-490.03 253,-499.31 259.91,-500.47"/>
</g>
<!-- 7 -->
<g id="node4" class="node">
<title>7</title>
<ellipse fill="none" stroke="black" cx="242" cy="-628" rx="44.39" ry="18"/>
<text text-anchor="middle" x="242" y="-624.3" font-family="Times,serif" font-size="14.00">S32 (b)</text>
</g>
<!-- 40 -->
<g id="node19" class="node">
<title>40</title>
<ellipse fill="none" stroke="black" cx="268" cy="-399" rx="50.09" ry="18"/>
<text text-anchor="middle" x="268" y="-395.3" font-family="Times,serif" font-size="14.00">V536 (b)</text>
</g>
<!-- 8&#45;&gt;40 -->
<g id="edge18" class="edge">
<title>8&#45;&gt;40</title>
<path fill="none" stroke="black" stroke-dasharray="5,2" d="M262.69,-453.81C263.49,-445.79 264.45,-436.05 265.33,-427.07"/>
<polygon fill="black" stroke="black" points="268.82,-427.32 266.32,-417.03 261.86,-426.64 268.82,-427.32"/>
</g>
<!-- 9 -->
<g id="node6" class="node">
<title>9</title>
<ellipse fill="none" stroke="black" cx="350" cy="-628" rx="45.49" ry="18"/>
<text text-anchor="middle" x="350" y="-624.3" font-family="Times,serif" font-size="14.00">Nan (b)</text>
</g>
<!-- 9&#45;&gt;5 -->
<g id="edge2" class="edge">
<title>9&#45;&gt;5</title>
<path fill="none" stroke="black" d="M330.53,-611.38C315.25,-599.14 293.8,-581.93 276.74,-568.25"/>
<polygon fill="black" stroke="black" points="278.75,-565.37 268.76,-561.85 274.37,-570.83 278.75,-565.37"/>
<text text-anchor="middle" x="308.5" y="-584" font-family="Times,serif" font-size="10.00">3</text>
</g>
<!-- 13 -->
<g id="node8" class="node">
<title>13</title>
<ellipse fill="none" stroke="black" cx="374" cy="-545" rx="55.79" ry="18"/>
<text text-anchor="middle" x="374" y="-541.3" font-family="Times,serif" font-size="14.00">V2250 (b)</text>
</g>
<!-- 9&#45;&gt;13 -->
<g id="edge7" class="edge">
<title>9&#45;&gt;13</title>
<path fill="none" stroke="black" stroke-dasharray="5,2" d="M355.09,-609.82C358.27,-599.08 362.44,-585.03 366.05,-572.84"/>
<polygon fill="black" stroke="black" points="369.43,-573.74 368.92,-563.15 362.72,-571.75 369.43,-573.74"/>
</g>
<!-- 32 -->
<g id="node17" class="node">
<title>32</title>
<ellipse fill="none" stroke="black" cx="504" cy="-545" rx="55.79" ry="18"/>
<text text-anchor="middle" x="504" y="-541.3" font-family="Times,serif" font-size="14.00">V1897 (b)</text>
</g>
<!-- 9&#45;&gt;32 -->
<g id="edge16" class="edge">
<title>9&#45;&gt;32</title>
<path fill="none" stroke="black" stroke-dasharray="1,5" d="M376.12,-613.26C401.1,-600.12 439.01,-580.18 467.08,-565.42"/>
<polygon fill="black" stroke="black" points="468.96,-568.38 476.18,-560.63 465.7,-562.19 468.96,-568.38"/>
</g>
<!-- 12 -->
<g id="node7" class="node">
<title>12</title>
<ellipse fill="none" stroke="black" cx="281" cy="-326" rx="50.09" ry="18"/>
<text text-anchor="middle" x="281" y="-322.3" font-family="Times,serif" font-size="14.00">V568 (b)</text>
</g>
<!-- 15 -->
<g id="node9" class="node">
<title>15</title>
<ellipse fill="none" stroke="black" cx="307" cy="-253" rx="47.39" ry="18"/>
<text text-anchor="middle" x="307" y="-249.3" font-family="Times,serif" font-size="14.00">Taur (b)</text>
</g>
<!-- 12&#45;&gt;15 -->
<g id="edge8" class="edge">
<title>12&#45;&gt;15</title>
<path fill="none" stroke="black" stroke-dasharray="1,5" d="M287.29,-307.81C290.3,-299.62 293.95,-289.62 297.3,-280.48"/>
<polygon fill="black" stroke="black" points="300.61,-281.62 300.76,-271.03 294.04,-279.22 300.61,-281.62"/>
</g>
<!-- 24 -->
<g id="node12" class="node">
<title>24</title>
<ellipse fill="none" stroke="black" cx="248" cy="-180" rx="50.09" ry="18"/>
<text text-anchor="middle" x="248" y="-176.3" font-family="Times,serif" font-size="14.00">Marc (b)</text>
</g>
<!-- 15&#45;&gt;24 -->
<g id="edge11" class="edge">
<title>15&#45;&gt;24</title>
<path fill="none" stroke="black" stroke-dasharray="1,5" d="M293.32,-235.53C285.87,-226.57 276.51,-215.31 268.24,-205.36"/>
<polygon fill="black" stroke="black" points="270.69,-202.83 261.61,-197.38 265.31,-207.31 270.69,-202.83"/>
</g>
<!-- 27 -->
<g id="node14" class="node">
<title>27</title>
<ellipse fill="none" stroke="black" cx="366" cy="-180" rx="50.09" ry="18"/>
<text text-anchor="middle" x="366" y="-176.3" font-family="Times,serif" font-size="14.00">V569 (b)</text>
</g>
<!-- 15&#45;&gt;27 -->
<g id="edge13" class="edge">
<title>15&#45;&gt;27</title>
<path fill="none" stroke="black" stroke-dasharray="5,2" d="M320.68,-235.53C328.13,-226.57 337.49,-215.31 345.76,-205.36"/>
<polygon fill="black" stroke="black" points="348.69,-207.31 352.39,-197.38 343.31,-202.83 348.69,-207.31"/>
</g>
<!-- 42 -->
<g id="node20" class="node">
<title>42</title>
<ellipse fill="none" stroke="black" cx="487" cy="-180" rx="53.09" ry="18"/>
<text text-anchor="middle" x="487" y="-176.3" font-family="Times,serif" font-size="14.00">M118 (b)</text>
</g>
<!-- 15&#45;&gt;42 -->
<g id="edge19" class="edge">
<title>15&#45;&gt;42</title>
<path fill="none" stroke="black" stroke-dasharray="5,2" d="M338.77,-239.47C368.03,-227.93 411.7,-210.7 444.07,-197.93"/>
<polygon fill="black" stroke="black" points="445.7,-201.05 453.72,-194.13 443.14,-194.54 445.7,-201.05"/>
</g>
<!-- 18 -->
<g id="node10" class="node">
<title>18</title>
<ellipse fill="none" stroke="black" cx="464" cy="-711" rx="44.39" ry="18"/>
<text text-anchor="middle" x="464" y="-707.3" font-family="Times,serif" font-size="14.00">A25 (b)</text>
</g>
<!-- 18&#45;&gt;7 -->
<g id="edge3" class="edge">
<title>18&#45;&gt;7</title>
<path fill="none" stroke="black" stroke-dasharray="5,2" d="M432.19,-698.39C393.04,-684.11 326.46,-659.82 283.37,-644.09"/>
<polygon fill="black" stroke="black" points="284.34,-640.72 273.75,-640.58 281.94,-647.3 284.34,-640.72"/>
</g>
<!-- 18&#45;&gt;9 -->
<g id="edge5" class="edge">
<title>18&#45;&gt;9</title>
<path fill="none" stroke="black" stroke-dasharray="5,2" d="M442.82,-694.95C424.99,-682.28 399.28,-664.02 379.44,-649.92"/>
<polygon fill="black" stroke="black" points="381.24,-646.9 371.06,-643.97 377.19,-652.61 381.24,-646.9"/>
<text text-anchor="middle" x="416.5" y="-667" font-family="Times,serif" font-size="10.00">2</text>
</g>
<!-- 22 -->
<g id="node11" class="node">
<title>22</title>
<ellipse fill="none" stroke="black" cx="464" cy="-628" rx="50.09" ry="18"/>
<text text-anchor="middle" x="464" y="-624.3" font-family="Times,serif" font-size="14.00">V571 (b)</text>
</g>
<!-- 18&#45;&gt;22 -->
<g id="edge10" class="edge">
<title>18&#45;&gt;22</title>
<path fill="none" stroke="black" stroke-dasharray="1,5" d="M464,-692.82C464,-682.19 464,-668.31 464,-656.2"/>
<polygon fill="black" stroke="black" points="467.5,-656.15 464,-646.15 460.5,-656.15 467.5,-656.15"/>
<text text-anchor="middle" x="467.5" y="-667" font-family="Times,serif" font-size="10.00">3</text>
</g>
<!-- 29 -->
<g id="node15" class="node">
<title>29</title>
<ellipse fill="none" stroke="black" cx="572" cy="-628" rx="40.09" ry="18"/>
<text text-anchor="middle" x="572" y="-624.3" font-family="Times,serif" font-size="14.00">Pal (b)</text>
</g>
<!-- 18&#45;&gt;29 -->
<g id="edge14" class="edge">
<title>18&#45;&gt;29</title>
<path fill="none" stroke="black" stroke-dasharray="5,2" d="M484.06,-694.95C500.88,-682.34 525.09,-664.18 543.86,-650.11"/>
<polygon fill="black" stroke="black" points="546.15,-652.77 552.05,-643.97 541.95,-647.17 546.15,-652.77"/>
</g>
<!-- 35 -->
<g id="node18" class="node">
<title>35</title>
<ellipse fill="none" stroke="black" cx="674" cy="-628" rx="44.39" ry="18"/>
<text text-anchor="middle" x="674" y="-624.3" font-family="Times,serif" font-size="14.00">P01 (b)</text>
</g>
<!-- 18&#45;&gt;35 -->
<g id="edge17" class="edge">
<title>18&#45;&gt;35</title>
<path fill="none" stroke="black" stroke-dasharray="5,2" d="M494.99,-698.05C531.67,-683.9 592.86,-660.3 633.33,-644.69"/>
<polygon fill="black" stroke="black" points="634.82,-647.87 642.89,-641 632.3,-641.33 634.82,-647.87"/>
</g>
<!-- 31 -->
<g id="node16" class="node">
<title>31</title>
<ellipse fill="none" stroke="black" cx="628" cy="-545" rx="50.09" ry="18"/>
<text text-anchor="middle" x="628" y="-541.3" font-family="Times,serif" font-size="14.00">A336 (b)</text>
</g>
<!-- 22&#45;&gt;31 -->
<g id="edge15" class="edge">
<title>22&#45;&gt;31</title>
<path fill="none" stroke="black" stroke-dasharray="5,2" d="M492.19,-613.08C519.3,-599.69 560.45,-579.36 590.35,-564.6"/>
<polygon fill="black" stroke="black" points="592.21,-567.58 599.63,-560.01 589.11,-561.3 592.21,-567.58"/>
<text text-anchor="middle" x="558.5" y="-584" font-family="Times,serif" font-size="10.00">3</text>
</g>
<!-- 24&#45;&gt;4 -->
<g id="edge1" class="edge">
<title>24&#45;&gt;4</title>
<path fill="none" stroke="black" stroke-dasharray="1,5" d="M248,-161.81C248,-153.79 248,-144.05 248,-135.07"/>
<polygon fill="black" stroke="black" points="251.5,-135.03 248,-125.03 244.5,-135.03 251.5,-135.03"/>
</g>
<!-- 40&#45;&gt;12 -->
<g id="edge6" class="edge">
<title>40&#45;&gt;12</title>
<path fill="none" stroke="black" stroke-dasharray="1,5" d="M271.15,-380.81C272.62,-372.79 274.4,-363.05 276.04,-354.07"/>
<polygon fill="black" stroke="black" points="279.52,-354.5 277.88,-344.03 272.64,-353.23 279.52,-354.5"/>
</g>
<!-- 2 -->
<g id="node21" class="node">
<title>2</title>
<ellipse fill="none" stroke="blue" stroke-dasharray="5,2" cx="464" cy="-785" rx="53.89" ry="18"/>
<text text-anchor="middle" x="464" y="-781.3" font-family="Times,serif" font-size="14.00">aBase (a)</text>
</g>
<!-- 2&#45;&gt;18 -->
<g id="edge9" class="edge">
<title>2&#45;&gt;18</title>
<path fill="none" stroke="blue" stroke-dasharray="5,2" d="M464,-766.94C464,-758.81 464,-748.88 464,-739.7"/>
<polygon fill="blue" stroke="blue" points="467.5,-739.44 464,-729.44 460.5,-739.44 467.5,-739.44"/>
</g>
</g>
</svg>
