<?xml version="1.0" encoding="UTF-8" standalone="no"?>
<!DOCTYPE svg PUBLIC "-//W3C//DTD SVG 1.1//EN"
 "http://www.w3.org/Graphics/SVG/1.1/DTD/svg11.dtd">
<!-- Generated by graphviz version 2.43.0 (0)
 -->
<!-- Title: textual_flow_diagram Pages: 1 -->
<svg width="366pt" height="161pt"
 viewBox="0.00 0.00 366.00 161.00" xmlns="http://www.w3.org/2000/svg" xmlns:xlink="http://www.w3.org/1999/xlink">
<g id="graph0" class="graph" transform="scale(1 1) rotate(0) translate(4 157)">
<title>textual_flow_diagram</title>
<polygon fill="white" stroke="transparent" points="-4,4 -4,-157 362,-157 362,4 -4,4"/>
<g id="clust1" class="cluster">
<title>cluster_legend</title>
<polygon fill="none" stroke="black" points="8,-91 8,-145 218,-145 218,-91 8,-91"/>
</g>
<g id="clust2" class="cluster">
<title>cluster_plot</title>
</g>
<!-- label -->
<g id="node1" class="node">
<title>label</title>
<text text-anchor="middle" x="113" y="-121.8" font-family="Times,serif" font-size="14.00">adstag1.3.47U54&#45;60, ar3</text>
<text text-anchor="middle" x="113" y="-106.8" font-family="Times,serif" font-size="14.00">Con = 5</text>
</g>
<!-- 35 -->
<g id="node2" class="node">
<title>35</title>
<ellipse fill="none" stroke="black" cx="288" cy="-34" rx="53.89" ry="18"/>
<text text-anchor="middle" x="288" y="-30.3" font-family="Times,serif" font-size="14.00">P01 (ar3)</text>
</g>
<!-- 2 -->
<g id="node3" class="node">
<title>2</title>
<ellipse fill="none" stroke="blue" stroke-dasharray="5,2" cx="288" cy="-118" rx="53.89" ry="18"/>
<text text-anchor="middle" x="288" y="-114.3" font-family="Times,serif" font-size="14.00">aBase (a)</text>
</g>
<!-- 2&#45;&gt;35 -->
<g id="edge1" class="edge">
<title>2&#45;&gt;35</title>
<path fill="none" stroke="black" d="M288,-99.61C288,-88.77 288,-74.6 288,-62.29"/>
<polygon fill="black" stroke="black" points="291.5,-62.08 288,-52.08 284.5,-62.08 291.5,-62.08"/>
<text text-anchor="middle" x="291.5" y="-73" font-family="Times,serif" font-size="10.00">3</text>
</g>
</g>
</svg>
