<?xml version="1.0" encoding="UTF-8" standalone="no"?>
<!DOCTYPE svg PUBLIC "-//W3C//DTD SVG 1.1//EN"
 "http://www.w3.org/Graphics/SVG/1.1/DTD/svg11.dtd">
<!-- Generated by graphviz version 2.43.0 (0)
 -->
<!-- Title: textual_flow_diagram Pages: 1 -->
<svg width="480pt" height="390pt"
 viewBox="0.00 0.00 480.00 390.00" xmlns="http://www.w3.org/2000/svg" xmlns:xlink="http://www.w3.org/1999/xlink">
<g id="graph0" class="graph" transform="scale(1 1) rotate(0) translate(4 386)">
<title>textual_flow_diagram</title>
<polygon fill="white" stroke="transparent" points="-4,4 -4,-386 476,-386 476,4 -4,4"/>
<g id="clust1" class="cluster">
<title>cluster_legend</title>
<polygon fill="none" stroke="black" points="8,-320 8,-374 204,-374 204,-320 8,-320"/>
</g>
<g id="clust2" class="cluster">
<title>cluster_plot</title>
</g>
<!-- label -->
<g id="node1" class="node">
<title>label</title>
<text text-anchor="middle" x="106" y="-350.8" font-family="Times,serif" font-size="14.00">adstag1.3.47U54&#45;60, d</text>
<text text-anchor="middle" x="106" y="-335.8" font-family="Times,serif" font-size="14.00">Con = 5</text>
</g>
<!-- 0 -->
<g id="node2" class="node">
<title>0</title>
<ellipse fill="none" stroke="black" cx="402" cy="-190" rx="50.89" ry="18"/>
<text text-anchor="middle" x="402" y="-186.3" font-family="Times,serif" font-size="14.00">Neap (d)</text>
</g>
<!-- 19 -->
<g id="node5" class="node">
<title>19</title>
<ellipse fill="none" stroke="black" cx="400" cy="-117" rx="55.79" ry="18"/>
<text text-anchor="middle" x="400" y="-113.3" font-family="Times,serif" font-size="14.00">V1629 (d)</text>
</g>
<!-- 0&#45;&gt;19 -->
<g id="edge4" class="edge">
<title>0&#45;&gt;19</title>
<path fill="none" stroke="black" stroke-dasharray="1,5" d="M401.52,-171.81C401.29,-163.79 401.02,-154.05 400.76,-145.07"/>
<polygon fill="black" stroke="black" points="404.26,-144.93 400.48,-135.03 397.26,-145.12 404.26,-144.93"/>
</g>
<!-- 2 -->
<g id="node3" class="node">
<title>2</title>
<ellipse fill="none" stroke="black" cx="400" cy="-34" rx="50.09" ry="18"/>
<text text-anchor="middle" x="400" y="-30.3" font-family="Times,serif" font-size="14.00">V568 (d)</text>
</g>
<!-- 16 -->
<g id="node4" class="node">
<title>16</title>
<ellipse fill="none" stroke="black" cx="403" cy="-273" rx="53.09" ry="18"/>
<text text-anchor="middle" x="403" y="-269.3" font-family="Times,serif" font-size="14.00">M136 (d)</text>
</g>
<!-- 16&#45;&gt;0 -->
<g id="edge1" class="edge">
<title>16&#45;&gt;0</title>
<path fill="none" stroke="black" stroke-dasharray="5,2" d="M402.79,-254.82C402.66,-244.19 402.49,-230.31 402.34,-218.2"/>
<polygon fill="black" stroke="black" points="405.84,-218.11 402.21,-208.15 398.84,-218.2 405.84,-218.11"/>
<text text-anchor="middle" x="405.5" y="-229" font-family="Times,serif" font-size="10.00">2</text>
</g>
<!-- 19&#45;&gt;2 -->
<g id="edge2" class="edge">
<title>19&#45;&gt;2</title>
<path fill="none" stroke="black" stroke-dasharray="5,2" d="M400,-98.82C400,-88.19 400,-74.31 400,-62.2"/>
<polygon fill="black" stroke="black" points="403.5,-62.15 400,-52.15 396.5,-62.15 403.5,-62.15"/>
<text text-anchor="middle" x="403.5" y="-73" font-family="Times,serif" font-size="10.00">2</text>
</g>
<!-- 27 -->
<g id="node6" class="node">
<title>27</title>
<ellipse fill="none" stroke="black" cx="276" cy="-273" rx="55.79" ry="18"/>
<text text-anchor="middle" x="276" y="-269.3" font-family="Times,serif" font-size="14.00">V2250 (d)</text>
</g>
<!-- 20 -->
<g id="node7" class="node">
<title>20</title>
<ellipse fill="none" stroke="blue" stroke-dasharray="5,2" cx="402" cy="-347" rx="53.89" ry="18"/>
<text text-anchor="middle" x="402" y="-343.3" font-family="Times,serif" font-size="14.00">aBase (a)</text>
</g>
<!-- 20&#45;&gt;16 -->
<g id="edge3" class="edge">
<title>20&#45;&gt;16</title>
<path fill="none" stroke="blue" stroke-width="2" d="M402.24,-328.94C402.35,-320.81 402.49,-310.88 402.62,-301.7"/>
<polygon fill="blue" stroke="blue" stroke-width="2" points="406.12,-301.49 402.76,-291.44 399.12,-301.39 406.12,-301.49"/>
</g>
<!-- 22 -->
<g id="node8" class="node">
<title>22</title>
<ellipse fill="none" stroke="blue" stroke-dasharray="5,2" cx="276" cy="-347" rx="44.69" ry="18"/>
<text text-anchor="middle" x="276" y="-343.3" font-family="Times,serif" font-size="14.00">Nan (a)</text>
</g>
<!-- 22&#45;&gt;27 -->
<g id="edge5" class="edge">
<title>22&#45;&gt;27</title>
<path fill="none" stroke="blue" stroke-dasharray="5,2" d="M276,-328.94C276,-320.81 276,-310.88 276,-301.7"/>
<polygon fill="blue" stroke="blue" points="279.5,-301.44 276,-291.44 272.5,-301.44 279.5,-301.44"/>
</g>
</g>
</svg>
