<?xml version="1.0" encoding="UTF-8" standalone="no"?>
<!DOCTYPE svg PUBLIC "-//W3C//DTD SVG 1.1//EN"
 "http://www.w3.org/Graphics/SVG/1.1/DTD/svg11.dtd">
<!-- Generated by graphviz version 2.43.0 (0)
 -->
<!-- Title: textual_flow_diagram Pages: 1 -->
<svg width="570pt" height="294pt"
 viewBox="0.00 0.00 570.00 294.00" xmlns="http://www.w3.org/2000/svg" xmlns:xlink="http://www.w3.org/1999/xlink">
<g id="graph0" class="graph" transform="scale(1 1) rotate(0) translate(4 290)">
<title>textual_flow_diagram</title>
<polygon fill="white" stroke="transparent" points="-4,4 -4,-290 566,-290 566,4 -4,4"/>
<g id="clust1" class="cluster">
<title>cluster_legend</title>
<polygon fill="none" stroke="black" points="8,-224 8,-278 182,-278 182,-224 8,-224"/>
</g>
<g id="clust2" class="cluster">
<title>cluster_plot</title>
</g>
<!-- label -->
<g id="node1" class="node">
<title>label</title>
<text text-anchor="middle" x="95" y="-254.8" font-family="Times,serif" font-size="14.00">adstag1.3.28U36, a</text>
<text text-anchor="middle" x="95" y="-239.8" font-family="Times,serif" font-size="14.00">Con = 5</text>
</g>
<!-- 7 -->
<g id="node2" class="node">
<title>7</title>
<ellipse fill="none" stroke="black" cx="254" cy="-106" rx="55.79" ry="18"/>
<text text-anchor="middle" x="254" y="-102.3" font-family="Times,serif" font-size="14.00">V1897 (a)</text>
</g>
<!-- 12 -->
<g id="node4" class="node">
<title>12</title>
<ellipse fill="none" stroke="black" cx="254" cy="-34" rx="42.79" ry="18"/>
<text text-anchor="middle" x="254" y="-30.3" font-family="Times,serif" font-size="14.00">Bas (a)</text>
</g>
<!-- 7&#45;&gt;12 -->
<g id="edge3" class="edge">
<title>7&#45;&gt;12</title>
<path fill="none" stroke="black" d="M254,-87.7C254,-79.98 254,-70.71 254,-62.11"/>
<polygon fill="black" stroke="black" points="257.5,-62.1 254,-52.1 250.5,-62.1 257.5,-62.1"/>
</g>
<!-- 11 -->
<g id="node3" class="node">
<title>11</title>
<ellipse fill="none" stroke="black" cx="378" cy="-178" rx="44.69" ry="18"/>
<text text-anchor="middle" x="378" y="-174.3" font-family="Times,serif" font-size="14.00">Nan (a)</text>
</g>
<!-- 11&#45;&gt;7 -->
<g id="edge1" class="edge">
<title>11&#45;&gt;7</title>
<path fill="none" stroke="black" stroke-dasharray="1,5" d="M352.91,-162.83C334.74,-152.58 309.93,-138.57 289.7,-127.16"/>
<polygon fill="black" stroke="black" points="291.2,-123.98 280.77,-122.11 287.76,-130.08 291.2,-123.98"/>
</g>
<!-- 32 -->
<g id="node8" class="node">
<title>32</title>
<ellipse fill="none" stroke="black" cx="384" cy="-106" rx="55.79" ry="18"/>
<text text-anchor="middle" x="384" y="-102.3" font-family="Times,serif" font-size="14.00">V2250 (a)</text>
</g>
<!-- 11&#45;&gt;32 -->
<g id="edge6" class="edge">
<title>11&#45;&gt;32</title>
<path fill="none" stroke="black" stroke-dasharray="5,2" d="M379.48,-159.7C380.14,-151.98 380.94,-142.71 381.68,-134.11"/>
<polygon fill="black" stroke="black" points="385.17,-134.37 382.53,-124.1 378.19,-133.77 385.17,-134.37"/>
</g>
<!-- 14 -->
<g id="node5" class="node">
<title>14</title>
<ellipse fill="none" stroke="black" cx="435" cy="-251" rx="53.89" ry="18"/>
<text text-anchor="middle" x="435" y="-247.3" font-family="Times,serif" font-size="14.00">aBase (a)</text>
</g>
<!-- 14&#45;&gt;11 -->
<g id="edge2" class="edge">
<title>14&#45;&gt;11</title>
<path fill="none" stroke="black" d="M421.78,-233.53C414.59,-224.57 405.55,-213.31 397.55,-203.36"/>
<polygon fill="black" stroke="black" points="400.14,-200.98 391.15,-195.38 394.68,-205.37 400.14,-200.98"/>
</g>
<!-- 30 -->
<g id="node7" class="node">
<title>30</title>
<ellipse fill="none" stroke="black" cx="493" cy="-178" rx="52.79" ry="18"/>
<text text-anchor="middle" x="493" y="-174.3" font-family="Times,serif" font-size="14.00">LaSM (a)</text>
</g>
<!-- 14&#45;&gt;30 -->
<g id="edge5" class="edge">
<title>14&#45;&gt;30</title>
<path fill="none" stroke="black" d="M448.45,-233.53C455.67,-224.7 464.71,-213.63 472.75,-203.78"/>
<polygon fill="black" stroke="black" points="475.6,-205.83 479.22,-195.87 470.18,-201.4 475.6,-205.83"/>
</g>
<!-- 22 -->
<g id="node6" class="node">
<title>22</title>
<ellipse fill="none" stroke="black" cx="502" cy="-106" rx="44.39" ry="18"/>
<text text-anchor="middle" x="502" y="-102.3" font-family="Times,serif" font-size="14.00">B39 (a)</text>
</g>
<!-- 30&#45;&gt;22 -->
<g id="edge4" class="edge">
<title>30&#45;&gt;22</title>
<path fill="none" stroke="black" stroke-dasharray="5,2" d="M495.22,-159.7C496.22,-151.98 497.41,-142.71 498.51,-134.11"/>
<polygon fill="black" stroke="black" points="502,-134.47 499.8,-124.1 495.05,-133.58 502,-134.47"/>
</g>
</g>
</svg>
