<?xml version="1.0" encoding="UTF-8" standalone="no"?>
<!DOCTYPE svg PUBLIC "-//W3C//DTD SVG 1.1//EN"
 "http://www.w3.org/Graphics/SVG/1.1/DTD/svg11.dtd">
<!-- Generated by graphviz version 2.43.0 (0)
 -->
<!-- Title: textual_flow_diagram Pages: 1 -->
<svg width="434pt" height="453pt"
 viewBox="0.00 0.00 434.00 453.00" xmlns="http://www.w3.org/2000/svg" xmlns:xlink="http://www.w3.org/1999/xlink">
<g id="graph0" class="graph" transform="scale(1 1) rotate(0) translate(4 449)">
<title>textual_flow_diagram</title>
<polygon fill="white" stroke="transparent" points="-4,4 -4,-449 430,-449 430,4 -4,4"/>
<g id="clust1" class="cluster">
<title>cluster_legend</title>
<polygon fill="none" stroke="black" points="8,-383 8,-437 182,-437 182,-383 8,-383"/>
</g>
<g id="clust2" class="cluster">
<title>cluster_plot</title>
</g>
<!-- label -->
<g id="node1" class="node">
<title>label</title>
<text text-anchor="middle" x="95" y="-413.8" font-family="Times,serif" font-size="14.00">adstag1.2.40U60, b</text>
<text text-anchor="middle" x="95" y="-398.8" font-family="Times,serif" font-size="14.00">Con = 3</text>
</g>
<!-- 6 -->
<g id="node2" class="node">
<title>6</title>
<ellipse fill="none" stroke="black" cx="256" cy="-190" rx="47.39" ry="18"/>
<text text-anchor="middle" x="256" y="-186.3" font-family="Times,serif" font-size="14.00">Taur (b)</text>
</g>
<!-- 13 -->
<g id="node3" class="node">
<title>13</title>
<ellipse fill="none" stroke="black" cx="245" cy="-107" rx="46.59" ry="18"/>
<text text-anchor="middle" x="245" y="-103.3" font-family="Times,serif" font-size="14.00">Mon (b)</text>
</g>
<!-- 6&#45;&gt;13 -->
<g id="edge2" class="edge">
<title>6&#45;&gt;13</title>
<path fill="none" stroke="black" stroke-dasharray="1,5" d="M253.67,-171.82C252.22,-161.19 250.34,-147.31 248.69,-135.2"/>
<polygon fill="black" stroke="black" points="252.14,-134.59 247.33,-125.15 245.21,-135.53 252.14,-134.59"/>
<text text-anchor="middle" x="254.5" y="-146" font-family="Times,serif" font-size="10.00">2</text>
</g>
<!-- 29 -->
<g id="node5" class="node">
<title>29</title>
<ellipse fill="none" stroke="black" cx="360" cy="-107" rx="50.09" ry="18"/>
<text text-anchor="middle" x="360" y="-103.3" font-family="Times,serif" font-size="14.00">V569 (b)</text>
</g>
<!-- 6&#45;&gt;29 -->
<g id="edge4" class="edge">
<title>6&#45;&gt;29</title>
<path fill="none" stroke="black" stroke-dasharray="5,2" d="M276.05,-173.38C291.88,-161.06 314.15,-143.71 331.78,-129.98"/>
<polygon fill="black" stroke="black" points="334.27,-132.48 340.01,-123.57 329.97,-126.95 334.27,-132.48"/>
</g>
<!-- 35 -->
<g id="node7" class="node">
<title>35</title>
<ellipse fill="none" stroke="black" cx="245" cy="-34" rx="41.69" ry="18"/>
<text text-anchor="middle" x="245" y="-30.3" font-family="Times,serif" font-size="14.00">Sin (b)</text>
</g>
<!-- 13&#45;&gt;35 -->
<g id="edge6" class="edge">
<title>13&#45;&gt;35</title>
<path fill="none" stroke="black" stroke-dasharray="1,5" d="M245,-88.81C245,-80.79 245,-71.05 245,-62.07"/>
<polygon fill="black" stroke="black" points="248.5,-62.03 245,-52.03 241.5,-62.03 248.5,-62.03"/>
</g>
<!-- 23 -->
<g id="node4" class="node">
<title>23</title>
<ellipse fill="none" stroke="black" cx="256" cy="-336" rx="55.79" ry="18"/>
<text text-anchor="middle" x="256" y="-332.3" font-family="Times,serif" font-size="14.00">V1629 (b)</text>
</g>
<!-- 33 -->
<g id="node6" class="node">
<title>33</title>
<ellipse fill="none" stroke="black" cx="256" cy="-263" rx="50.09" ry="18"/>
<text text-anchor="middle" x="256" y="-259.3" font-family="Times,serif" font-size="14.00">V568 (b)</text>
</g>
<!-- 23&#45;&gt;33 -->
<g id="edge5" class="edge">
<title>23&#45;&gt;33</title>
<path fill="none" stroke="black" stroke-dasharray="5,2" d="M256,-317.81C256,-309.79 256,-300.05 256,-291.07"/>
<polygon fill="black" stroke="black" points="259.5,-291.03 256,-281.03 252.5,-291.03 259.5,-291.03"/>
</g>
<!-- 33&#45;&gt;6 -->
<g id="edge1" class="edge">
<title>33&#45;&gt;6</title>
<path fill="none" stroke="black" stroke-dasharray="1,5" d="M256,-244.81C256,-236.79 256,-227.05 256,-218.07"/>
<polygon fill="black" stroke="black" points="259.5,-218.03 256,-208.03 252.5,-218.03 259.5,-218.03"/>
</g>
<!-- 17 -->
<g id="node8" class="node">
<title>17</title>
<ellipse fill="none" stroke="blue" stroke-dasharray="5,2" cx="256" cy="-410" rx="50.09" ry="18"/>
<text text-anchor="middle" x="256" y="-406.3" font-family="Times,serif" font-size="14.00">Neap (a)</text>
</g>
<!-- 17&#45;&gt;23 -->
<g id="edge3" class="edge">
<title>17&#45;&gt;23</title>
<path fill="none" stroke="blue" stroke-dasharray="1,5" d="M256,-391.94C256,-383.81 256,-373.88 256,-364.7"/>
<polygon fill="blue" stroke="blue" points="259.5,-364.44 256,-354.44 252.5,-364.44 259.5,-364.44"/>
</g>
</g>
</svg>
