<?xml version="1.0" encoding="UTF-8" standalone="no"?>
<!DOCTYPE svg PUBLIC "-//W3C//DTD SVG 1.1//EN"
 "http://www.w3.org/Graphics/SVG/1.1/DTD/svg11.dtd">
<!-- Generated by graphviz version 2.43.0 (0)
 -->
<!-- Title: textual_flow_diagram Pages: 1 -->
<svg width="571pt" height="438pt"
 viewBox="0.00 0.00 571.00 438.00" xmlns="http://www.w3.org/2000/svg" xmlns:xlink="http://www.w3.org/1999/xlink">
<g id="graph0" class="graph" transform="scale(1 1) rotate(0) translate(4 434)">
<title>textual_flow_diagram</title>
<polygon fill="white" stroke="transparent" points="-4,4 -4,-434 567,-434 567,4 -4,4"/>
<g id="clust1" class="cluster">
<title>cluster_legend</title>
<polygon fill="none" stroke="black" points="8,-368 8,-422 194,-422 194,-368 8,-368"/>
</g>
<g id="clust2" class="cluster">
<title>cluster_plot</title>
</g>
<!-- label -->
<g id="node1" class="node">
<title>label</title>
<text text-anchor="middle" x="101" y="-398.8" font-family="Times,serif" font-size="14.00">adstag1.3.12U8&#45;10, c</text>
<text text-anchor="middle" x="101" y="-383.8" font-family="Times,serif" font-size="14.00">Con = 10</text>
</g>
<!-- 1 -->
<g id="node2" class="node">
<title>1</title>
<ellipse fill="none" stroke="black" cx="259" cy="-178" rx="49.29" ry="18"/>
<text text-anchor="middle" x="259" y="-174.3" font-family="Times,serif" font-size="14.00">Marc (c)</text>
</g>
<!-- 28 -->
<g id="node8" class="node">
<title>28</title>
<ellipse fill="none" stroke="black" cx="259" cy="-106" rx="46.29" ry="18"/>
<text text-anchor="middle" x="259" y="-102.3" font-family="Times,serif" font-size="14.00">Mon (c)</text>
</g>
<!-- 1&#45;&gt;28 -->
<g id="edge7" class="edge">
<title>1&#45;&gt;28</title>
<path fill="none" stroke="black" stroke-dasharray="1,5" d="M259,-159.7C259,-151.98 259,-142.71 259,-134.11"/>
<polygon fill="black" stroke="black" points="262.5,-134.1 259,-124.1 255.5,-134.1 262.5,-134.1"/>
</g>
<!-- 4 -->
<g id="node3" class="node">
<title>4</title>
<ellipse fill="none" stroke="black" cx="259" cy="-34" rx="40.09" ry="18"/>
<text text-anchor="middle" x="259" y="-30.3" font-family="Times,serif" font-size="14.00">Sin (c)</text>
</g>
<!-- 5 -->
<g id="node4" class="node">
<title>5</title>
<ellipse fill="none" stroke="black" cx="262" cy="-322" rx="51.99" ry="18"/>
<text text-anchor="middle" x="262" y="-318.3" font-family="Times,serif" font-size="14.00">LaSM (c)</text>
</g>
<!-- 20 -->
<g id="node6" class="node">
<title>20</title>
<ellipse fill="none" stroke="black" cx="262" cy="-250" rx="44.39" ry="18"/>
<text text-anchor="middle" x="262" y="-246.3" font-family="Times,serif" font-size="14.00">B39 (c)</text>
</g>
<!-- 5&#45;&gt;20 -->
<g id="edge5" class="edge">
<title>5&#45;&gt;20</title>
<path fill="none" stroke="black" stroke-dasharray="5,2" d="M262,-303.7C262,-295.98 262,-286.71 262,-278.11"/>
<polygon fill="black" stroke="black" points="265.5,-278.1 262,-268.1 258.5,-278.1 265.5,-278.1"/>
</g>
<!-- 11 -->
<g id="node5" class="node">
<title>11</title>
<ellipse fill="none" stroke="black" cx="435" cy="-250" rx="46.29" ry="18"/>
<text text-anchor="middle" x="435" y="-246.3" font-family="Times,serif" font-size="14.00">Taur (c)</text>
</g>
<!-- 11&#45;&gt;1 -->
<g id="edge1" class="edge">
<title>11&#45;&gt;1</title>
<path fill="none" stroke="black" stroke-dasharray="1,5" d="M403.94,-236.65C375.23,-225.23 332.36,-208.18 300.68,-195.58"/>
<polygon fill="black" stroke="black" points="301.82,-192.27 291.24,-191.82 299.24,-198.77 301.82,-192.27"/>
</g>
<!-- 22 -->
<g id="node7" class="node">
<title>22</title>
<ellipse fill="none" stroke="black" cx="376" cy="-178" rx="49.29" ry="18"/>
<text text-anchor="middle" x="376" y="-174.3" font-family="Times,serif" font-size="14.00">V569 (c)</text>
</g>
<!-- 11&#45;&gt;22 -->
<g id="edge6" class="edge">
<title>11&#45;&gt;22</title>
<path fill="none" stroke="black" stroke-dasharray="5,2" d="M421.32,-232.76C413.98,-224.06 404.78,-213.15 396.6,-203.43"/>
<polygon fill="black" stroke="black" points="399.14,-201.02 390.02,-195.63 393.79,-205.54 399.14,-201.02"/>
</g>
<!-- 29 -->
<g id="node9" class="node">
<title>29</title>
<ellipse fill="none" stroke="black" cx="495" cy="-178" rx="51.99" ry="18"/>
<text text-anchor="middle" x="495" y="-174.3" font-family="Times,serif" font-size="14.00">M118 (c)</text>
</g>
<!-- 11&#45;&gt;29 -->
<g id="edge8" class="edge">
<title>11&#45;&gt;29</title>
<path fill="none" stroke="black" stroke-dasharray="5,2" d="M448.92,-232.76C456.38,-224.06 465.73,-213.15 474.06,-203.43"/>
<polygon fill="black" stroke="black" points="476.89,-205.5 480.74,-195.63 471.58,-200.95 476.89,-205.5"/>
</g>
<!-- 28&#45;&gt;4 -->
<g id="edge2" class="edge">
<title>28&#45;&gt;4</title>
<path fill="none" stroke="black" stroke-dasharray="1,5" d="M259,-87.7C259,-79.98 259,-70.71 259,-62.11"/>
<polygon fill="black" stroke="black" points="262.5,-62.1 259,-52.1 255.5,-62.1 262.5,-62.1"/>
</g>
<!-- 32 -->
<g id="node10" class="node">
<title>32</title>
<ellipse fill="none" stroke="black" cx="381" cy="-322" rx="49.29" ry="18"/>
<text text-anchor="middle" x="381" y="-318.3" font-family="Times,serif" font-size="14.00">V536 (c)</text>
</g>
<!-- 38 -->
<g id="node11" class="node">
<title>38</title>
<ellipse fill="none" stroke="black" cx="498" cy="-322" rx="49.29" ry="18"/>
<text text-anchor="middle" x="498" y="-318.3" font-family="Times,serif" font-size="14.00">V568 (c)</text>
</g>
<!-- 38&#45;&gt;11 -->
<g id="edge4" class="edge">
<title>38&#45;&gt;11</title>
<path fill="none" stroke="black" stroke-dasharray="1,5" d="M483.39,-304.76C475.36,-295.84 465.25,-284.61 456.35,-274.72"/>
<polygon fill="black" stroke="black" points="458.82,-272.24 449.53,-267.15 453.62,-276.92 458.82,-272.24"/>
</g>
<!-- 24 -->
<g id="node12" class="node">
<title>24</title>
<ellipse fill="none" stroke="blue" stroke-dasharray="5,2" cx="441" cy="-395" rx="55.79" ry="18"/>
<text text-anchor="middle" x="441" y="-391.3" font-family="Times,serif" font-size="14.00">V1629 (a)</text>
</g>
<!-- 24&#45;&gt;32 -->
<g id="edge9" class="edge">
<title>24&#45;&gt;32</title>
<path fill="none" stroke="blue" stroke-dasharray="5,2" d="M427.08,-377.53C419.44,-368.48 409.81,-357.09 401.33,-347.06"/>
<polygon fill="blue" stroke="blue" points="403.97,-344.76 394.84,-339.38 398.62,-349.28 403.97,-344.76"/>
</g>
<!-- 24&#45;&gt;38 -->
<g id="edge10" class="edge">
<title>24&#45;&gt;38</title>
<path fill="none" stroke="blue" stroke-dasharray="5,2" d="M454.51,-377.17C461.61,-368.33 470.44,-357.33 478.29,-347.55"/>
<polygon fill="blue" stroke="blue" points="481.06,-349.69 484.59,-339.71 475.6,-345.31 481.06,-349.69"/>
</g>
<!-- 40 -->
<g id="node13" class="node">
<title>40</title>
<ellipse fill="none" stroke="blue" stroke-dasharray="5,2" cx="264" cy="-395" rx="53.89" ry="18"/>
<text text-anchor="middle" x="264" y="-391.3" font-family="Times,serif" font-size="14.00">aBase (a)</text>
</g>
<!-- 40&#45;&gt;5 -->
<g id="edge3" class="edge">
<title>40&#45;&gt;5</title>
<path fill="none" stroke="blue" d="M263.52,-376.81C263.29,-368.79 263.02,-359.05 262.76,-350.07"/>
<polygon fill="blue" stroke="blue" points="266.26,-349.93 262.48,-340.03 259.26,-350.12 266.26,-349.93"/>
</g>
</g>
</svg>
