<?xml version="1.0" encoding="UTF-8" standalone="no"?>
<!DOCTYPE svg PUBLIC "-//W3C//DTD SVG 1.1//EN"
 "http://www.w3.org/Graphics/SVG/1.1/DTD/svg11.dtd">
<!-- Generated by graphviz version 2.43.0 (0)
 -->
<!-- Title: textual_flow_diagram Pages: 1 -->
<svg width="2180pt" height="582pt"
 viewBox="0.00 0.00 2180.00 582.00" xmlns="http://www.w3.org/2000/svg" xmlns:xlink="http://www.w3.org/1999/xlink">
<g id="graph0" class="graph" transform="scale(1 1) rotate(0) translate(4 578)">
<title>textual_flow_diagram</title>
<polygon fill="white" stroke="transparent" points="-4,4 -4,-578 2176,-578 2176,4 -4,4"/>
<g id="clust1" class="cluster">
<title>cluster_legend</title>
<polygon fill="none" stroke="black" points="8,-512 8,-566 204,-566 204,-512 8,-512"/>
</g>
<g id="clust2" class="cluster">
<title>cluster_plot</title>
</g>
<!-- label -->
<g id="node1" class="node">
<title>label</title>
<text text-anchor="middle" x="106" y="-542.8" font-family="Times,serif" font-size="14.00">adstag1.2.40U26&#45;28, a</text>
<text text-anchor="middle" x="106" y="-527.8" font-family="Times,serif" font-size="14.00">Con = 5</text>
</g>
<!-- 0 -->
<g id="node2" class="node">
<title>0</title>
<ellipse fill="none" stroke="black" cx="1179" cy="-394" rx="52.79" ry="18"/>
<text text-anchor="middle" x="1179" y="-390.3" font-family="Times,serif" font-size="14.00">M111 (a)</text>
</g>
<!-- 3 -->
<g id="node5" class="node">
<title>3</title>
<ellipse fill="none" stroke="black" cx="1180" cy="-322" rx="50.09" ry="18"/>
<text text-anchor="middle" x="1180" y="-318.3" font-family="Times,serif" font-size="14.00">A336 (a)</text>
</g>
<!-- 0&#45;&gt;3 -->
<g id="edge4" class="edge">
<title>0&#45;&gt;3</title>
<path fill="none" stroke="black" stroke-dasharray="5,2" d="M1179.25,-375.7C1179.36,-367.98 1179.49,-358.71 1179.61,-350.11"/>
<polygon fill="black" stroke="black" points="1183.11,-350.15 1179.76,-340.1 1176.11,-350.05 1183.11,-350.15"/>
</g>
<!-- 1 -->
<g id="node3" class="node">
<title>1</title>
<ellipse fill="none" stroke="black" cx="630" cy="-394" rx="50.09" ry="18"/>
<text text-anchor="middle" x="630" y="-390.3" font-family="Times,serif" font-size="14.00">Patm (a)</text>
</g>
<!-- 2 -->
<g id="node4" class="node">
<title>2</title>
<ellipse fill="none" stroke="black" cx="276" cy="-466" rx="50.09" ry="18"/>
<text text-anchor="middle" x="276" y="-462.3" font-family="Times,serif" font-size="14.00">V560 (a)</text>
</g>
<!-- 12 -->
<g id="node14" class="node">
<title>12</title>
<ellipse fill="none" stroke="black" cx="276" cy="-394" rx="55.79" ry="18"/>
<text text-anchor="middle" x="276" y="-390.3" font-family="Times,serif" font-size="14.00">V1920 (a)</text>
</g>
<!-- 2&#45;&gt;12 -->
<g id="edge12" class="edge">
<title>2&#45;&gt;12</title>
<path fill="none" stroke="black" stroke-dasharray="5,2" d="M276,-447.7C276,-439.98 276,-430.71 276,-422.11"/>
<polygon fill="black" stroke="black" points="279.5,-422.1 276,-412.1 272.5,-422.1 279.5,-422.1"/>
</g>
<!-- 4 -->
<g id="node6" class="node">
<title>4</title>
<ellipse fill="none" stroke="black" cx="1294" cy="-394" rx="44.39" ry="18"/>
<text text-anchor="middle" x="1294" y="-390.3" font-family="Times,serif" font-size="14.00">P74 (a)</text>
</g>
<!-- 5 -->
<g id="node7" class="node">
<title>5</title>
<ellipse fill="none" stroke="black" cx="391" cy="-394" rx="41.69" ry="18"/>
<text text-anchor="middle" x="391" y="-390.3" font-family="Times,serif" font-size="14.00">Est (a)</text>
</g>
<!-- 6 -->
<g id="node8" class="node">
<title>6</title>
<ellipse fill="none" stroke="black" cx="506" cy="-250" rx="46.59" ry="18"/>
<text text-anchor="middle" x="506" y="-246.3" font-family="Times,serif" font-size="14.00">Taur (a)</text>
</g>
<!-- 8 -->
<g id="node10" class="node">
<title>8</title>
<ellipse fill="none" stroke="black" cx="385" cy="-178" rx="50.09" ry="18"/>
<text text-anchor="middle" x="385" y="-174.3" font-family="Times,serif" font-size="14.00">Marc (a)</text>
</g>
<!-- 6&#45;&gt;8 -->
<g id="edge9" class="edge">
<title>6&#45;&gt;8</title>
<path fill="none" stroke="black" stroke-dasharray="1,5" d="M481.22,-234.67C463.35,-224.33 439.01,-210.25 419.28,-198.83"/>
<polygon fill="black" stroke="black" points="420.99,-195.78 410.58,-193.8 417.48,-201.83 420.99,-195.78"/>
</g>
<!-- 10 -->
<g id="node12" class="node">
<title>10</title>
<ellipse fill="none" stroke="black" cx="506" cy="-178" rx="52.79" ry="18"/>
<text text-anchor="middle" x="506" y="-174.3" font-family="Times,serif" font-size="14.00">M118 (a)</text>
</g>
<!-- 6&#45;&gt;10 -->
<g id="edge11" class="edge">
<title>6&#45;&gt;10</title>
<path fill="none" stroke="black" stroke-dasharray="5,2" d="M506,-231.7C506,-223.98 506,-214.71 506,-206.11"/>
<polygon fill="black" stroke="black" points="509.5,-206.1 506,-196.1 502.5,-206.1 509.5,-206.1"/>
</g>
<!-- 29 -->
<g id="node28" class="node">
<title>29</title>
<ellipse fill="none" stroke="black" cx="627" cy="-178" rx="50.09" ry="18"/>
<text text-anchor="middle" x="627" y="-174.3" font-family="Times,serif" font-size="14.00">V569 (a)</text>
</g>
<!-- 6&#45;&gt;29 -->
<g id="edge26" class="edge">
<title>6&#45;&gt;29</title>
<path fill="none" stroke="black" stroke-dasharray="5,2" d="M530.78,-234.67C548.65,-224.33 572.99,-210.25 592.72,-198.83"/>
<polygon fill="black" stroke="black" points="594.52,-201.83 601.42,-193.8 591.01,-195.78 594.52,-201.83"/>
</g>
<!-- 7 -->
<g id="node9" class="node">
<title>7</title>
<ellipse fill="none" stroke="black" cx="400" cy="-466" rx="55.79" ry="18"/>
<text text-anchor="middle" x="400" y="-462.3" font-family="Times,serif" font-size="14.00">V1897 (a)</text>
</g>
<!-- 7&#45;&gt;5 -->
<g id="edge6" class="edge">
<title>7&#45;&gt;5</title>
<path fill="none" stroke="black" stroke-dasharray="1,5" d="M397.78,-447.7C396.78,-439.98 395.59,-430.71 394.49,-422.11"/>
<polygon fill="black" stroke="black" points="397.95,-421.58 393.2,-412.1 391,-422.47 397.95,-421.58"/>
</g>
<!-- 13 -->
<g id="node15" class="node">
<title>13</title>
<ellipse fill="none" stroke="black" cx="385" cy="-106" rx="46.29" ry="18"/>
<text text-anchor="middle" x="385" y="-102.3" font-family="Times,serif" font-size="14.00">Mon (a)</text>
</g>
<!-- 8&#45;&gt;13 -->
<g id="edge13" class="edge">
<title>8&#45;&gt;13</title>
<path fill="none" stroke="black" stroke-dasharray="1,5" d="M385,-159.7C385,-151.98 385,-142.71 385,-134.11"/>
<polygon fill="black" stroke="black" points="388.5,-134.1 385,-124.1 381.5,-134.1 388.5,-134.1"/>
</g>
<!-- 9 -->
<g id="node11" class="node">
<title>9</title>
<ellipse fill="none" stroke="black" cx="2112" cy="-394" rx="44.39" ry="18"/>
<text text-anchor="middle" x="2112" y="-390.3" font-family="Times,serif" font-size="14.00">B39 (a)</text>
</g>
<!-- 11 -->
<g id="node13" class="node">
<title>11</title>
<ellipse fill="none" stroke="black" cx="781" cy="-539" rx="53.89" ry="18"/>
<text text-anchor="middle" x="781" y="-535.3" font-family="Times,serif" font-size="14.00">aBase (a)</text>
</g>
<!-- 11&#45;&gt;2 -->
<g id="edge3" class="edge">
<title>11&#45;&gt;2</title>
<path fill="none" stroke="black" stroke-width="2" d="M728.72,-534.4C644.97,-528.02 475.83,-512.62 335,-484 330.83,-483.15 326.52,-482.15 322.22,-481.08"/>
<polygon fill="black" stroke="black" stroke-width="2" points="322.85,-477.62 312.28,-478.44 321.05,-484.39 322.85,-477.62"/>
</g>
<!-- 11&#45;&gt;7 -->
<g id="edge8" class="edge">
<title>11&#45;&gt;7</title>
<path fill="none" stroke="black" d="M732.57,-531.06C670.34,-521.83 559.12,-504.31 465,-484 460.4,-483.01 455.63,-481.9 450.86,-480.75"/>
<polygon fill="black" stroke="black" points="451.68,-477.35 441.13,-478.33 449.99,-484.14 451.68,-477.35"/>
</g>
<!-- 16 -->
<g id="node17" class="node">
<title>16</title>
<ellipse fill="none" stroke="black" cx="527" cy="-466" rx="52.79" ry="18"/>
<text text-anchor="middle" x="527" y="-462.3" font-family="Times,serif" font-size="14.00">M136 (a)</text>
</g>
<!-- 11&#45;&gt;16 -->
<g id="edge15" class="edge">
<title>11&#45;&gt;16</title>
<path fill="none" stroke="black" stroke-width="2" d="M741.03,-526.83C696.43,-514.36 624.22,-494.18 576.18,-480.75"/>
<polygon fill="black" stroke="black" stroke-width="2" points="576.89,-477.31 566.32,-477.99 575.01,-484.05 576.89,-477.31"/>
</g>
<!-- 17 -->
<g id="node18" class="node">
<title>17</title>
<ellipse fill="none" stroke="black" cx="648" cy="-466" rx="50.09" ry="18"/>
<text text-anchor="middle" x="648" y="-462.3" font-family="Times,serif" font-size="14.00">Neap (a)</text>
</g>
<!-- 11&#45;&gt;17 -->
<g id="edge16" class="edge">
<title>11&#45;&gt;17</title>
<path fill="none" stroke="black" stroke-width="2" d="M753.76,-523.46C733.55,-512.67 705.79,-497.85 683.79,-486.1"/>
<polygon fill="black" stroke="black" stroke-width="2" points="685.21,-482.9 674.74,-481.28 681.92,-489.07 685.21,-482.9"/>
</g>
<!-- 20 -->
<g id="node20" class="node">
<title>20</title>
<ellipse fill="none" stroke="black" cx="781" cy="-466" rx="64.99" ry="18"/>
<text text-anchor="middle" x="781" y="-462.3" font-family="Times,serif" font-size="14.00">Savile&#45;Η (a)</text>
</g>
<!-- 11&#45;&gt;20 -->
<g id="edge18" class="edge">
<title>11&#45;&gt;20</title>
<path fill="none" stroke="black" stroke-width="2" d="M781,-520.81C781,-512.79 781,-503.05 781,-494.07"/>
<polygon fill="black" stroke="black" stroke-width="2" points="784.5,-494.03 781,-484.03 777.5,-494.03 784.5,-494.03"/>
</g>
<!-- 22 -->
<g id="node22" class="node">
<title>22</title>
<ellipse fill="none" stroke="black" cx="908" cy="-466" rx="44.39" ry="18"/>
<text text-anchor="middle" x="908" y="-462.3" font-family="Times,serif" font-size="14.00">A25 (a)</text>
</g>
<!-- 11&#45;&gt;22 -->
<g id="edge20" class="edge">
<title>11&#45;&gt;22</title>
<path fill="none" stroke="black" stroke-dasharray="5,2" d="M807.62,-523.12C827.01,-512.28 853.42,-497.51 874.28,-485.85"/>
<polygon fill="black" stroke="black" points="876.12,-488.83 883.14,-480.9 872.7,-482.72 876.12,-488.83"/>
</g>
<!-- 26 -->
<g id="node25" class="node">
<title>26</title>
<ellipse fill="none" stroke="black" cx="1474" cy="-466" rx="48.99" ry="18"/>
<text text-anchor="middle" x="1474" y="-462.3" font-family="Times,serif" font-size="14.00">La22 (a)</text>
</g>
<!-- 11&#45;&gt;26 -->
<g id="edge23" class="edge">
<title>11&#45;&gt;26</title>
<path fill="none" stroke="black" stroke-dasharray="5,2" d="M831.68,-532.81C957.75,-519.89 1284.87,-486.38 1417.2,-472.82"/>
<polygon fill="black" stroke="black" points="1417.92,-476.26 1427.51,-471.76 1417.21,-469.3 1417.92,-476.26"/>
</g>
<!-- 36 -->
<g id="node33" class="node">
<title>36</title>
<ellipse fill="none" stroke="black" cx="1586" cy="-466" rx="44.69" ry="18"/>
<text text-anchor="middle" x="1586" y="-462.3" font-family="Times,serif" font-size="14.00">Nan (a)</text>
</g>
<!-- 11&#45;&gt;36 -->
<g id="edge31" class="edge">
<title>11&#45;&gt;36</title>
<path fill="none" stroke="black" d="M835.29,-538.41C959.7,-538.41 1274.55,-533.08 1532,-484 1535.85,-483.27 1539.82,-482.35 1543.77,-481.32"/>
<polygon fill="black" stroke="black" points="1544.8,-484.66 1553.47,-478.58 1542.9,-477.93 1544.8,-484.66"/>
</g>
<!-- 39 -->
<g id="node36" class="node">
<title>39</title>
<ellipse fill="none" stroke="black" cx="1933" cy="-466" rx="52.79" ry="18"/>
<text text-anchor="middle" x="1933" y="-462.3" font-family="Times,serif" font-size="14.00">LaSM (a)</text>
</g>
<!-- 11&#45;&gt;39 -->
<g id="edge34" class="edge">
<title>11&#45;&gt;39</title>
<path fill="none" stroke="black" d="M833.49,-534.76C1022.56,-523.11 1668.23,-483.32 1871.33,-470.8"/>
<polygon fill="black" stroke="black" points="1871.75,-474.28 1881.52,-470.17 1871.32,-467.29 1871.75,-474.28"/>
</g>
<!-- 35 -->
<g id="node32" class="node">
<title>35</title>
<ellipse fill="none" stroke="black" cx="385" cy="-34" rx="40.89" ry="18"/>
<text text-anchor="middle" x="385" y="-30.3" font-family="Times,serif" font-size="14.00">Sin (a)</text>
</g>
<!-- 13&#45;&gt;35 -->
<g id="edge30" class="edge">
<title>13&#45;&gt;35</title>
<path fill="none" stroke="black" stroke-dasharray="1,5" d="M385,-87.7C385,-79.98 385,-70.71 385,-62.11"/>
<polygon fill="black" stroke="black" points="388.5,-62.1 385,-52.1 381.5,-62.1 388.5,-62.1"/>
</g>
<!-- 15 -->
<g id="node16" class="node">
<title>15</title>
<ellipse fill="none" stroke="black" cx="1412" cy="-394" rx="55.79" ry="18"/>
<text text-anchor="middle" x="1412" y="-390.3" font-family="Times,serif" font-size="14.00">V2036 (a)</text>
</g>
<!-- 23 -->
<g id="node23" class="node">
<title>23</title>
<ellipse fill="none" stroke="black" cx="506" cy="-394" rx="55.79" ry="18"/>
<text text-anchor="middle" x="506" y="-390.3" font-family="Times,serif" font-size="14.00">V1629 (a)</text>
</g>
<!-- 17&#45;&gt;23 -->
<g id="edge21" class="edge">
<title>17&#45;&gt;23</title>
<path fill="none" stroke="black" stroke-dasharray="1,5" d="M619.61,-451C598.03,-440.37 568.12,-425.62 544.4,-413.93"/>
<polygon fill="black" stroke="black" points="545.84,-410.74 535.32,-409.45 542.74,-417.02 545.84,-410.74"/>
</g>
<!-- 18 -->
<g id="node19" class="node">
<title>18</title>
<ellipse fill="none" stroke="black" cx="1536" cy="-394" rx="50.09" ry="18"/>
<text text-anchor="middle" x="1536" y="-390.3" font-family="Times,serif" font-size="14.00">V565 (a)</text>
</g>
<!-- 21 -->
<g id="node21" class="node">
<title>21</title>
<ellipse fill="none" stroke="black" cx="742" cy="-394" rx="44.39" ry="18"/>
<text text-anchor="middle" x="742" y="-390.3" font-family="Times,serif" font-size="14.00">P01 (a)</text>
</g>
<!-- 22&#45;&gt;1 -->
<g id="edge2" class="edge">
<title>22&#45;&gt;1</title>
<path fill="none" stroke="black" stroke-dasharray="1,5" d="M875.07,-453.89C868.46,-451.82 861.53,-449.75 855,-448 782.08,-428.45 762.2,-430.46 689,-412 685.16,-411.03 681.18,-409.98 677.2,-408.9"/>
<polygon fill="black" stroke="black" points="677.92,-405.47 667.35,-406.17 676.05,-412.22 677.92,-405.47"/>
</g>
<!-- 22&#45;&gt;21 -->
<g id="edge19" class="edge">
<title>22&#45;&gt;21</title>
<path fill="none" stroke="black" stroke-dasharray="5,2" d="M878.32,-452.49C851.14,-441.02 810.73,-423.98 780.96,-411.43"/>
<polygon fill="black" stroke="black" points="782.27,-408.18 771.7,-407.52 779.55,-414.63 782.27,-408.18"/>
</g>
<!-- 28 -->
<g id="node27" class="node">
<title>28</title>
<ellipse fill="none" stroke="black" cx="848" cy="-394" rx="44.39" ry="18"/>
<text text-anchor="middle" x="848" y="-390.3" font-family="Times,serif" font-size="14.00">S32 (a)</text>
</g>
<!-- 22&#45;&gt;28 -->
<g id="edge25" class="edge">
<title>22&#45;&gt;28</title>
<path fill="none" stroke="black" stroke-dasharray="5,2" d="M894.08,-448.76C886.51,-439.93 877,-428.83 868.58,-419.01"/>
<polygon fill="black" stroke="black" points="871.01,-416.46 861.84,-411.15 865.69,-421.02 871.01,-416.46"/>
</g>
<!-- 32 -->
<g id="node30" class="node">
<title>32</title>
<ellipse fill="none" stroke="black" cx="950" cy="-394" rx="40.09" ry="18"/>
<text text-anchor="middle" x="950" y="-390.3" font-family="Times,serif" font-size="14.00">Pal (a)</text>
</g>
<!-- 22&#45;&gt;32 -->
<g id="edge28" class="edge">
<title>22&#45;&gt;32</title>
<path fill="none" stroke="black" stroke-dasharray="5,2" d="M917.95,-448.41C923.03,-439.95 929.3,-429.49 934.95,-420.08"/>
<polygon fill="black" stroke="black" points="937.97,-421.85 940.12,-411.47 931.97,-418.24 937.97,-421.85"/>
</g>
<!-- 37 -->
<g id="node34" class="node">
<title>37</title>
<ellipse fill="none" stroke="black" cx="1058" cy="-394" rx="50.09" ry="18"/>
<text text-anchor="middle" x="1058" y="-390.3" font-family="Times,serif" font-size="14.00">V566 (a)</text>
</g>
<!-- 22&#45;&gt;37 -->
<g id="edge32" class="edge">
<title>22&#45;&gt;37</title>
<path fill="none" stroke="black" stroke-dasharray="5,2" d="M935.86,-452C959.41,-441.01 993.37,-425.16 1019.51,-412.96"/>
<polygon fill="black" stroke="black" points="1021.17,-416.05 1028.75,-408.65 1018.21,-409.71 1021.17,-416.05"/>
</g>
<!-- 33 -->
<g id="node31" class="node">
<title>33</title>
<ellipse fill="none" stroke="black" cx="506" cy="-322" rx="50.09" ry="18"/>
<text text-anchor="middle" x="506" y="-318.3" font-family="Times,serif" font-size="14.00">V568 (a)</text>
</g>
<!-- 23&#45;&gt;33 -->
<g id="edge29" class="edge">
<title>23&#45;&gt;33</title>
<path fill="none" stroke="black" stroke-dasharray="5,2" d="M506,-375.7C506,-367.98 506,-358.71 506,-350.11"/>
<polygon fill="black" stroke="black" points="509.5,-350.1 506,-340.1 502.5,-350.1 509.5,-350.1"/>
</g>
<!-- 25 -->
<g id="node24" class="node">
<title>25</title>
<ellipse fill="none" stroke="black" cx="1654" cy="-394" rx="50.09" ry="18"/>
<text text-anchor="middle" x="1654" y="-390.3" font-family="Times,serif" font-size="14.00">V571 (a)</text>
</g>
<!-- 26&#45;&gt;0 -->
<g id="edge1" class="edge">
<title>26&#45;&gt;0</title>
<path fill="none" stroke="black" stroke-dasharray="1,5" d="M1432.62,-456.16C1385.94,-446.06 1307.8,-428.75 1241,-412 1236.86,-410.96 1232.57,-409.85 1228.27,-408.72"/>
<polygon fill="black" stroke="black" points="1228.85,-405.25 1218.29,-406.05 1227.05,-412.02 1228.85,-405.25"/>
</g>
<!-- 26&#45;&gt;4 -->
<g id="edge5" class="edge">
<title>26&#45;&gt;4</title>
<path fill="none" stroke="black" stroke-dasharray="1,5" d="M1441.4,-452.32C1411.38,-440.65 1366.73,-423.28 1334.44,-410.73"/>
<polygon fill="black" stroke="black" points="1335.44,-407.36 1324.85,-407 1332.9,-413.88 1335.44,-407.36"/>
</g>
<!-- 26&#45;&gt;15 -->
<g id="edge14" class="edge">
<title>26&#45;&gt;15</title>
<path fill="none" stroke="black" stroke-dasharray="5,2" d="M1459.62,-448.76C1451.83,-439.97 1442.05,-428.93 1433.38,-419.14"/>
<polygon fill="black" stroke="black" points="1435.98,-416.8 1426.73,-411.63 1430.74,-421.44 1435.98,-416.8"/>
</g>
<!-- 26&#45;&gt;18 -->
<g id="edge17" class="edge">
<title>26&#45;&gt;18</title>
<path fill="none" stroke="black" stroke-dasharray="5,2" d="M1488.38,-448.76C1496.17,-439.97 1505.95,-428.93 1514.62,-419.14"/>
<polygon fill="black" stroke="black" points="1517.26,-421.44 1521.27,-411.63 1512.02,-416.8 1517.26,-421.44"/>
</g>
<!-- 26&#45;&gt;25 -->
<g id="edge22" class="edge">
<title>26&#45;&gt;25</title>
<path fill="none" stroke="black" stroke-dasharray="1,5" d="M1506.6,-452.32C1536.07,-440.86 1579.64,-423.92 1611.77,-411.42"/>
<polygon fill="black" stroke="black" points="1613.29,-414.59 1621.34,-407.7 1610.75,-408.06 1613.29,-414.59"/>
</g>
<!-- 27 -->
<g id="node26" class="node">
<title>27</title>
<ellipse fill="none" stroke="black" cx="1771" cy="-394" rx="48.99" ry="18"/>
<text text-anchor="middle" x="1771" y="-390.3" font-family="Times,serif" font-size="14.00">La35 (a)</text>
</g>
<!-- 26&#45;&gt;27 -->
<g id="edge24" class="edge">
<title>26&#45;&gt;27</title>
<path fill="none" stroke="black" stroke-dasharray="1,5" d="M1510.38,-453.8C1517.51,-451.76 1524.97,-449.73 1532,-448 1611.66,-428.45 1633.34,-431.55 1713,-412 1716.85,-411.06 1720.82,-410.02 1724.79,-408.94"/>
<polygon fill="black" stroke="black" points="1725.93,-412.26 1734.62,-406.2 1724.05,-405.52 1725.93,-412.26"/>
</g>
<!-- 38 -->
<g id="node35" class="node">
<title>38</title>
<ellipse fill="none" stroke="black" cx="1888" cy="-394" rx="50.09" ry="18"/>
<text text-anchor="middle" x="1888" y="-390.3" font-family="Times,serif" font-size="14.00">A116 (a)</text>
</g>
<!-- 26&#45;&gt;38 -->
<g id="edge33" class="edge">
<title>26&#45;&gt;38</title>
<path fill="none" stroke="black" stroke-dasharray="5,2" d="M1509.66,-453.55C1516.99,-451.48 1524.7,-449.5 1532,-448 1662.24,-421.21 1698.7,-438.49 1829,-412 1833.17,-411.15 1837.48,-410.15 1841.78,-409.08"/>
<polygon fill="black" stroke="black" points="1842.95,-412.39 1851.72,-406.44 1841.15,-405.62 1842.95,-412.39"/>
</g>
<!-- 41 -->
<g id="node37" class="node">
<title>41</title>
<ellipse fill="none" stroke="black" cx="2003" cy="-394" rx="46.59" ry="18"/>
<text text-anchor="middle" x="2003" y="-390.3" font-family="Times,serif" font-size="14.00">Bodl (a)</text>
</g>
<!-- 26&#45;&gt;41 -->
<g id="edge35" class="edge">
<title>26&#45;&gt;41</title>
<path fill="none" stroke="black" stroke-dasharray="5,2" d="M1509.31,-453.44C1516.74,-451.35 1524.58,-449.4 1532,-448 1713.95,-413.79 1765.22,-447.08 1947,-412 1951.1,-411.21 1955.32,-410.24 1959.52,-409.16"/>
<polygon fill="black" stroke="black" points="1960.51,-412.51 1969.23,-406.49 1958.66,-405.76 1960.51,-412.51"/>
</g>
<!-- 31 -->
<g id="node29" class="node">
<title>31</title>
<ellipse fill="none" stroke="black" cx="1056" cy="-322" rx="55.79" ry="18"/>
<text text-anchor="middle" x="1056" y="-318.3" font-family="Times,serif" font-size="14.00">V1639 (a)</text>
</g>
<!-- 33&#45;&gt;6 -->
<g id="edge7" class="edge">
<title>33&#45;&gt;6</title>
<path fill="none" stroke="black" stroke-dasharray="1,5" d="M506,-303.7C506,-295.98 506,-286.71 506,-278.11"/>
<polygon fill="black" stroke="black" points="509.5,-278.1 506,-268.1 502.5,-278.1 509.5,-278.1"/>
</g>
<!-- 37&#45;&gt;31 -->
<g id="edge27" class="edge">
<title>37&#45;&gt;31</title>
<path fill="none" stroke="black" stroke-dasharray="1,5" d="M1057.51,-375.7C1057.29,-367.98 1057.02,-358.71 1056.77,-350.11"/>
<polygon fill="black" stroke="black" points="1060.27,-350 1056.49,-340.1 1053.28,-350.2 1060.27,-350"/>
</g>
<!-- 39&#45;&gt;9 -->
<g id="edge10" class="edge">
<title>39&#45;&gt;9</title>
<path fill="none" stroke="black" stroke-dasharray="5,2" d="M1966.25,-452C1996.12,-440.32 2040.05,-423.14 2071.86,-410.7"/>
<polygon fill="black" stroke="black" points="2073.28,-413.9 2081.32,-407 2070.73,-407.38 2073.28,-413.9"/>
</g>
</g>
</svg>
