<?xml version="1.0" encoding="UTF-8" standalone="no"?>
<!DOCTYPE svg PUBLIC "-//W3C//DTD SVG 1.1//EN"
 "http://www.w3.org/Graphics/SVG/1.1/DTD/svg11.dtd">
<!-- Generated by graphviz version 2.43.0 (0)
 -->
<!-- Title: textual_flow_diagram Pages: 1 -->
<svg width="1619pt" height="654pt"
 viewBox="0.00 0.00 1619.00 654.00" xmlns="http://www.w3.org/2000/svg" xmlns:xlink="http://www.w3.org/1999/xlink">
<g id="graph0" class="graph" transform="scale(1 1) rotate(0) translate(4 650)">
<title>textual_flow_diagram</title>
<polygon fill="white" stroke="transparent" points="-4,4 -4,-650 1615,-650 1615,4 -4,4"/>
<g id="clust1" class="cluster">
<title>cluster_legend</title>
<polygon fill="none" stroke="black" points="8,-584 8,-638 204,-638 204,-584 8,-584"/>
</g>
<g id="clust2" class="cluster">
<title>cluster_plot</title>
</g>
<!-- label -->
<g id="node1" class="node">
<title>label</title>
<text text-anchor="middle" x="106" y="-614.8" font-family="Times,serif" font-size="14.00">adstag1.1.20U12&#45;20, a</text>
<text text-anchor="middle" x="106" y="-599.8" font-family="Times,serif" font-size="14.00">Con = 5</text>
</g>
<!-- 0 -->
<g id="node2" class="node">
<title>0</title>
<ellipse fill="none" stroke="black" cx="773" cy="-538" rx="50.09" ry="18"/>
<text text-anchor="middle" x="773" y="-534.3" font-family="Times,serif" font-size="14.00">S249 (a)</text>
</g>
<!-- 1 -->
<g id="node3" class="node">
<title>1</title>
<ellipse fill="none" stroke="black" cx="1203" cy="-466" rx="44.39" ry="18"/>
<text text-anchor="middle" x="1203" y="-462.3" font-family="Times,serif" font-size="14.00">B39 (a)</text>
</g>
<!-- 2 -->
<g id="node4" class="node">
<title>2</title>
<ellipse fill="none" stroke="black" cx="541" cy="-466" rx="44.39" ry="18"/>
<text text-anchor="middle" x="541" y="-462.3" font-family="Times,serif" font-size="14.00">P01 (a)</text>
</g>
<!-- 3 -->
<g id="node5" class="node">
<title>3</title>
<ellipse fill="none" stroke="black" cx="1545" cy="-394" rx="50.09" ry="18"/>
<text text-anchor="middle" x="1545" y="-390.3" font-family="Times,serif" font-size="14.00">V536 (a)</text>
</g>
<!-- 41 -->
<g id="node35" class="node">
<title>41</title>
<ellipse fill="none" stroke="black" cx="1514" cy="-322" rx="50.09" ry="18"/>
<text text-anchor="middle" x="1514" y="-318.3" font-family="Times,serif" font-size="14.00">V568 (a)</text>
</g>
<!-- 3&#45;&gt;41 -->
<g id="edge34" class="edge">
<title>3&#45;&gt;41</title>
<path fill="none" stroke="black" stroke-dasharray="1,5" d="M1537.5,-376.05C1533.97,-368.09 1529.68,-358.41 1525.74,-349.51"/>
<polygon fill="black" stroke="black" points="1528.9,-348 1521.65,-340.28 1522.5,-350.84 1528.9,-348"/>
</g>
<!-- 4 -->
<g id="node6" class="node">
<title>4</title>
<ellipse fill="none" stroke="black" cx="885" cy="-538" rx="44.39" ry="18"/>
<text text-anchor="middle" x="885" y="-534.3" font-family="Times,serif" font-size="14.00">A25 (a)</text>
</g>
<!-- 4&#45;&gt;2 -->
<g id="edge3" class="edge">
<title>4&#45;&gt;2</title>
<path fill="none" stroke="black" stroke-dasharray="5,2" d="M852.43,-525.65C845.73,-523.57 838.68,-521.57 832,-520 727.84,-495.58 698.16,-508.42 594,-484 590.56,-483.19 587.01,-482.27 583.47,-481.28"/>
<polygon fill="black" stroke="black" points="584.15,-477.83 573.57,-478.35 582.16,-484.54 584.15,-477.83"/>
</g>
<!-- 6 -->
<g id="node7" class="node">
<title>6</title>
<ellipse fill="none" stroke="black" cx="653" cy="-466" rx="50.09" ry="18"/>
<text text-anchor="middle" x="653" y="-462.3" font-family="Times,serif" font-size="14.00">V566 (a)</text>
</g>
<!-- 4&#45;&gt;6 -->
<g id="edge6" class="edge">
<title>4&#45;&gt;6</title>
<path fill="none" stroke="black" stroke-dasharray="5,2" d="M851.39,-526.09C844.96,-524.04 838.28,-521.94 832,-520 787.55,-506.29 736.69,-491.3 700.57,-480.77"/>
<polygon fill="black" stroke="black" points="701.37,-477.36 690.79,-477.92 699.41,-484.08 701.37,-477.36"/>
</g>
<!-- 11 -->
<g id="node11" class="node">
<title>11</title>
<ellipse fill="none" stroke="black" cx="770" cy="-466" rx="48.99" ry="18"/>
<text text-anchor="middle" x="770" y="-462.3" font-family="Times,serif" font-size="14.00">La22 (a)</text>
</g>
<!-- 4&#45;&gt;11 -->
<g id="edge10" class="edge">
<title>4&#45;&gt;11</title>
<path fill="none" stroke="black" stroke-dasharray="1,5" d="M861.45,-522.67C844.62,-512.42 821.75,-498.5 803.09,-487.14"/>
<polygon fill="black" stroke="black" points="804.67,-484.01 794.31,-481.8 801.03,-489.99 804.67,-484.01"/>
</g>
<!-- 30 -->
<g id="node26" class="node">
<title>30</title>
<ellipse fill="none" stroke="black" cx="877" cy="-466" rx="40.09" ry="18"/>
<text text-anchor="middle" x="877" y="-462.3" font-family="Times,serif" font-size="14.00">Pal (a)</text>
</g>
<!-- 4&#45;&gt;30 -->
<g id="edge25" class="edge">
<title>4&#45;&gt;30</title>
<path fill="none" stroke="black" stroke-dasharray="5,2" d="M883.02,-519.7C882.14,-511.98 881.08,-502.71 880.1,-494.11"/>
<polygon fill="black" stroke="black" points="883.57,-493.64 878.95,-484.1 876.61,-494.44 883.57,-493.64"/>
</g>
<!-- 39 -->
<g id="node33" class="node">
<title>39</title>
<ellipse fill="none" stroke="black" cx="979" cy="-466" rx="44.39" ry="18"/>
<text text-anchor="middle" x="979" y="-462.3" font-family="Times,serif" font-size="14.00">S32 (a)</text>
</g>
<!-- 4&#45;&gt;39 -->
<g id="edge32" class="edge">
<title>4&#45;&gt;39</title>
<path fill="none" stroke="black" stroke-dasharray="5,2" d="M905.4,-521.81C918.58,-512 935.92,-499.08 950.46,-488.25"/>
<polygon fill="black" stroke="black" points="952.71,-490.94 958.64,-482.16 948.53,-485.32 952.71,-490.94"/>
</g>
<!-- 44 -->
<g id="node37" class="node">
<title>44</title>
<ellipse fill="none" stroke="black" cx="1091" cy="-466" rx="50.09" ry="18"/>
<text text-anchor="middle" x="1091" y="-462.3" font-family="Times,serif" font-size="14.00">Patm (a)</text>
</g>
<!-- 4&#45;&gt;44 -->
<g id="edge36" class="edge">
<title>4&#45;&gt;44</title>
<path fill="none" stroke="black" stroke-dasharray="1,5" d="M918.1,-525.75C952.76,-513.97 1007.42,-495.4 1045.99,-482.3"/>
<polygon fill="black" stroke="black" points="1047.57,-485.45 1055.92,-478.92 1045.32,-478.83 1047.57,-485.45"/>
</g>
<!-- 34 -->
<g id="node30" class="node">
<title>34</title>
<ellipse fill="none" stroke="black" cx="276" cy="-394" rx="55.79" ry="18"/>
<text text-anchor="middle" x="276" y="-390.3" font-family="Times,serif" font-size="14.00">V1639 (a)</text>
</g>
<!-- 6&#45;&gt;34 -->
<g id="edge29" class="edge">
<title>6&#45;&gt;34</title>
<path fill="none" stroke="black" stroke-dasharray="1,5" d="M616.38,-453.59C609.01,-451.54 601.3,-449.56 594,-448 482.94,-424.22 452.35,-434.41 341,-412 336.32,-411.06 331.47,-409.98 326.62,-408.84"/>
<polygon fill="black" stroke="black" points="327.29,-405.4 316.75,-406.42 325.63,-412.2 327.29,-405.4"/>
</g>
<!-- 7 -->
<g id="node8" class="node">
<title>7</title>
<ellipse fill="none" stroke="black" cx="1009" cy="-538" rx="52.79" ry="18"/>
<text text-anchor="middle" x="1009" y="-534.3" font-family="Times,serif" font-size="14.00">LaSM (a)</text>
</g>
<!-- 7&#45;&gt;1 -->
<g id="edge2" class="edge">
<title>7&#45;&gt;1</title>
<path fill="none" stroke="black" stroke-dasharray="5,2" d="M1044.13,-524.32C1077.17,-512.4 1126.64,-494.55 1161.58,-481.95"/>
<polygon fill="black" stroke="black" points="1162.81,-485.22 1171.03,-478.54 1160.43,-478.64 1162.81,-485.22"/>
</g>
<!-- 9 -->
<g id="node9" class="node">
<title>9</title>
<ellipse fill="none" stroke="black" cx="400" cy="-394" rx="50.09" ry="18"/>
<text text-anchor="middle" x="400" y="-390.3" font-family="Times,serif" font-size="14.00">V571 (a)</text>
</g>
<!-- 10 -->
<g id="node10" class="node">
<title>10</title>
<ellipse fill="none" stroke="black" cx="1312" cy="-34" rx="46.29" ry="18"/>
<text text-anchor="middle" x="1312" y="-30.3" font-family="Times,serif" font-size="14.00">Mon (a)</text>
</g>
<!-- 11&#45;&gt;9 -->
<g id="edge8" class="edge">
<title>11&#45;&gt;9</title>
<path fill="none" stroke="black" stroke-dasharray="1,5" d="M734.32,-453.67C726.99,-451.59 719.28,-449.58 712,-448 601,-423.96 570.06,-435.78 459,-412 454.9,-411.12 450.66,-410.11 446.43,-409.03"/>
<polygon fill="black" stroke="black" points="447.19,-405.61 436.62,-406.41 445.38,-412.37 447.19,-405.61"/>
</g>
<!-- 12 -->
<g id="node12" class="node">
<title>12</title>
<ellipse fill="none" stroke="black" cx="517" cy="-394" rx="48.99" ry="18"/>
<text text-anchor="middle" x="517" y="-390.3" font-family="Times,serif" font-size="14.00">La35 (a)</text>
</g>
<!-- 11&#45;&gt;12 -->
<g id="edge11" class="edge">
<title>11&#45;&gt;12</title>
<path fill="none" stroke="black" stroke-dasharray="1,5" d="M733.23,-454.04C726.19,-452 718.88,-449.9 712,-448 650.91,-431.08 635.05,-429.06 574,-412 570.46,-411.01 566.8,-409.97 563.13,-408.91"/>
<polygon fill="black" stroke="black" points="564.02,-405.52 553.43,-406.07 562.05,-412.24 564.02,-405.52"/>
</g>
<!-- 17 -->
<g id="node16" class="node">
<title>17</title>
<ellipse fill="none" stroke="black" cx="636" cy="-394" rx="52.79" ry="18"/>
<text text-anchor="middle" x="636" y="-390.3" font-family="Times,serif" font-size="14.00">M111 (a)</text>
</g>
<!-- 11&#45;&gt;17 -->
<g id="edge15" class="edge">
<title>11&#45;&gt;17</title>
<path fill="none" stroke="black" stroke-dasharray="1,5" d="M742.88,-450.83C722.67,-440.28 694.86,-425.75 672.66,-414.15"/>
<polygon fill="black" stroke="black" points="674.02,-410.91 663.54,-409.38 670.78,-417.12 674.02,-410.91"/>
</g>
<!-- 18 -->
<g id="node17" class="node">
<title>18</title>
<ellipse fill="none" stroke="black" cx="753" cy="-394" rx="46.59" ry="18"/>
<text text-anchor="middle" x="753" y="-390.3" font-family="Times,serif" font-size="14.00">Bodl (a)</text>
</g>
<!-- 11&#45;&gt;18 -->
<g id="edge16" class="edge">
<title>11&#45;&gt;18</title>
<path fill="none" stroke="black" stroke-dasharray="5,2" d="M765.88,-448.05C763.99,-440.26 761.7,-430.82 759.58,-422.08"/>
<polygon fill="black" stroke="black" points="762.96,-421.17 757.2,-412.28 756.15,-422.82 762.96,-421.17"/>
</g>
<!-- 22 -->
<g id="node21" class="node">
<title>22</title>
<ellipse fill="none" stroke="black" cx="862" cy="-394" rx="44.39" ry="18"/>
<text text-anchor="middle" x="862" y="-390.3" font-family="Times,serif" font-size="14.00">P74 (a)</text>
</g>
<!-- 11&#45;&gt;22 -->
<g id="edge20" class="edge">
<title>11&#45;&gt;22</title>
<path fill="none" stroke="black" stroke-dasharray="1,5" d="M790.42,-449.46C803.13,-439.79 819.67,-427.21 833.64,-416.58"/>
<polygon fill="black" stroke="black" points="836.12,-419.09 841.96,-410.25 831.88,-413.52 836.12,-419.09"/>
</g>
<!-- 37 -->
<g id="node32" class="node">
<title>37</title>
<ellipse fill="none" stroke="black" cx="974" cy="-394" rx="50.09" ry="18"/>
<text text-anchor="middle" x="974" y="-390.3" font-family="Times,serif" font-size="14.00">A116 (a)</text>
</g>
<!-- 11&#45;&gt;37 -->
<g id="edge31" class="edge">
<title>11&#45;&gt;37</title>
<path fill="none" stroke="black" stroke-dasharray="5,2" d="M804.61,-453.13C838.94,-441.35 891.71,-423.24 929.22,-410.37"/>
<polygon fill="black" stroke="black" points="930.56,-413.61 938.88,-407.05 928.29,-406.99 930.56,-413.61"/>
</g>
<!-- 43 -->
<g id="node36" class="node">
<title>43</title>
<ellipse fill="none" stroke="black" cx="1092" cy="-394" rx="50.09" ry="18"/>
<text text-anchor="middle" x="1092" y="-390.3" font-family="Times,serif" font-size="14.00">V565 (a)</text>
</g>
<!-- 11&#45;&gt;43 -->
<g id="edge35" class="edge">
<title>11&#45;&gt;43</title>
<path fill="none" stroke="black" stroke-dasharray="5,2" d="M806.03,-453.76C813.27,-451.7 820.85,-449.67 828,-448 918.08,-426.96 942.87,-432.84 1033,-412 1037.03,-411.07 1041.2,-410.03 1045.36,-408.93"/>
<polygon fill="black" stroke="black" points="1046.29,-412.31 1055.02,-406.31 1044.45,-405.55 1046.29,-412.31"/>
</g>
<!-- 13 -->
<g id="node13" class="node">
<title>13</title>
<ellipse fill="none" stroke="black" cx="1123" cy="-538" rx="42.79" ry="18"/>
<text text-anchor="middle" x="1123" y="-534.3" font-family="Times,serif" font-size="14.00">La2 (a)</text>
</g>
<!-- 15 -->
<g id="node14" class="node">
<title>15</title>
<ellipse fill="none" stroke="black" cx="1237" cy="-538" rx="52.79" ry="18"/>
<text text-anchor="middle" x="1237" y="-534.3" font-family="Times,serif" font-size="14.00">M136 (a)</text>
</g>
<!-- 16 -->
<g id="node15" class="node">
<title>16</title>
<ellipse fill="none" stroke="black" cx="1333" cy="-394" rx="42.79" ry="18"/>
<text text-anchor="middle" x="1333" y="-390.3" font-family="Times,serif" font-size="14.00">Bas (a)</text>
</g>
<!-- 19 -->
<g id="node18" class="node">
<title>19</title>
<ellipse fill="none" stroke="black" cx="1454" cy="-250" rx="46.59" ry="18"/>
<text text-anchor="middle" x="1454" y="-246.3" font-family="Times,serif" font-size="14.00">Taur (a)</text>
</g>
<!-- 25 -->
<g id="node23" class="node">
<title>25</title>
<ellipse fill="none" stroke="black" cx="1312" cy="-178" rx="40.89" ry="18"/>
<text text-anchor="middle" x="1312" y="-174.3" font-family="Times,serif" font-size="14.00">Sin (a)</text>
</g>
<!-- 19&#45;&gt;25 -->
<g id="edge22" class="edge">
<title>19&#45;&gt;25</title>
<path fill="none" stroke="black" stroke-dasharray="1,5" d="M1426.28,-235.34C1403.77,-224.24 1371.86,-208.51 1347.48,-196.49"/>
<polygon fill="black" stroke="black" points="1348.72,-193.2 1338.21,-191.92 1345.63,-199.48 1348.72,-193.2"/>
</g>
<!-- 26 -->
<g id="node24" class="node">
<title>26</title>
<ellipse fill="none" stroke="black" cx="1424" cy="-178" rx="52.79" ry="18"/>
<text text-anchor="middle" x="1424" y="-174.3" font-family="Times,serif" font-size="14.00">M118 (a)</text>
</g>
<!-- 19&#45;&gt;26 -->
<g id="edge23" class="edge">
<title>19&#45;&gt;26</title>
<path fill="none" stroke="black" stroke-dasharray="5,2" d="M1446.74,-232.05C1443.32,-224.09 1439.18,-214.41 1435.36,-205.51"/>
<polygon fill="black" stroke="black" points="1438.56,-204.09 1431.4,-196.28 1432.13,-206.85 1438.56,-204.09"/>
</g>
<!-- 40 -->
<g id="node34" class="node">
<title>40</title>
<ellipse fill="none" stroke="black" cx="1545" cy="-178" rx="50.09" ry="18"/>
<text text-anchor="middle" x="1545" y="-174.3" font-family="Times,serif" font-size="14.00">V569 (a)</text>
</g>
<!-- 19&#45;&gt;40 -->
<g id="edge33" class="edge">
<title>19&#45;&gt;40</title>
<path fill="none" stroke="black" stroke-dasharray="5,2" d="M1474.2,-233.46C1486.68,-223.86 1502.9,-211.38 1516.66,-200.8"/>
<polygon fill="black" stroke="black" points="1519.07,-203.36 1524.86,-194.49 1514.8,-197.81 1519.07,-203.36"/>
</g>
<!-- 20 -->
<g id="node19" class="node">
<title>20</title>
<ellipse fill="none" stroke="black" cx="1520" cy="-466" rx="55.79" ry="18"/>
<text text-anchor="middle" x="1520" y="-462.3" font-family="Times,serif" font-size="14.00">V1629 (a)</text>
</g>
<!-- 20&#45;&gt;3 -->
<g id="edge4" class="edge">
<title>20&#45;&gt;3</title>
<path fill="none" stroke="black" stroke-dasharray="5,2" d="M1526.05,-448.05C1528.87,-440.18 1532.28,-430.62 1535.43,-421.79"/>
<polygon fill="black" stroke="black" points="1538.76,-422.87 1538.83,-412.28 1532.17,-420.52 1538.76,-422.87"/>
</g>
<!-- 21 -->
<g id="node20" class="node">
<title>21</title>
<ellipse fill="none" stroke="black" cx="1352" cy="-538" rx="44.69" ry="18"/>
<text text-anchor="middle" x="1352" y="-534.3" font-family="Times,serif" font-size="14.00">Nan (a)</text>
</g>
<!-- 23 -->
<g id="node22" class="node">
<title>23</title>
<ellipse fill="none" stroke="black" cx="1352" cy="-466" rx="55.79" ry="18"/>
<text text-anchor="middle" x="1352" y="-462.3" font-family="Times,serif" font-size="14.00">V1897 (a)</text>
</g>
<!-- 21&#45;&gt;23 -->
<g id="edge21" class="edge">
<title>21&#45;&gt;23</title>
<path fill="none" stroke="black" stroke-dasharray="1,5" d="M1352,-519.7C1352,-511.98 1352,-502.71 1352,-494.11"/>
<polygon fill="black" stroke="black" points="1355.5,-494.1 1352,-484.1 1348.5,-494.1 1355.5,-494.1"/>
</g>
<!-- 23&#45;&gt;16 -->
<g id="edge14" class="edge">
<title>23&#45;&gt;16</title>
<path fill="none" stroke="black" d="M1347.4,-448.05C1345.29,-440.26 1342.72,-430.82 1340.35,-422.08"/>
<polygon fill="black" stroke="black" points="1343.69,-421.01 1337.69,-412.28 1336.93,-422.84 1343.69,-421.01"/>
</g>
<!-- 33 -->
<g id="node29" class="node">
<title>33</title>
<ellipse fill="none" stroke="black" cx="1435" cy="-394" rx="41.69" ry="18"/>
<text text-anchor="middle" x="1435" y="-390.3" font-family="Times,serif" font-size="14.00">Est (a)</text>
</g>
<!-- 23&#45;&gt;33 -->
<g id="edge28" class="edge">
<title>23&#45;&gt;33</title>
<path fill="none" stroke="black" stroke-dasharray="1,5" d="M1371.25,-448.76C1382.49,-439.29 1396.81,-427.21 1409.03,-416.9"/>
<polygon fill="black" stroke="black" points="1411.32,-419.55 1416.71,-410.43 1406.81,-414.2 1411.32,-419.55"/>
</g>
<!-- 28 -->
<g id="node25" class="node">
<title>28</title>
<ellipse fill="none" stroke="black" cx="1312" cy="-106" rx="50.09" ry="18"/>
<text text-anchor="middle" x="1312" y="-102.3" font-family="Times,serif" font-size="14.00">Marc (a)</text>
</g>
<!-- 25&#45;&gt;28 -->
<g id="edge24" class="edge">
<title>25&#45;&gt;28</title>
<path fill="none" stroke="black" stroke-dasharray="1,5" d="M1312,-159.7C1312,-151.98 1312,-142.71 1312,-134.11"/>
<polygon fill="black" stroke="black" points="1315.5,-134.1 1312,-124.1 1308.5,-134.1 1315.5,-134.1"/>
</g>
<!-- 31 -->
<g id="node27" class="node">
<title>31</title>
<ellipse fill="none" stroke="black" cx="1424" cy="-106" rx="44.39" ry="18"/>
<text text-anchor="middle" x="1424" y="-102.3" font-family="Times,serif" font-size="14.00">P18 (a)</text>
</g>
<!-- 26&#45;&gt;31 -->
<g id="edge26" class="edge">
<title>26&#45;&gt;31</title>
<path fill="none" stroke="black" stroke-dasharray="5,2" d="M1424,-159.7C1424,-151.98 1424,-142.71 1424,-134.11"/>
<polygon fill="black" stroke="black" points="1427.5,-134.1 1424,-124.1 1420.5,-134.1 1427.5,-134.1"/>
</g>
<!-- 28&#45;&gt;10 -->
<g id="edge9" class="edge">
<title>28&#45;&gt;10</title>
<path fill="none" stroke="black" stroke-dasharray="1,5" d="M1312,-87.7C1312,-79.98 1312,-70.71 1312,-62.11"/>
<polygon fill="black" stroke="black" points="1315.5,-62.1 1312,-52.1 1308.5,-62.1 1315.5,-62.1"/>
</g>
<!-- 32 -->
<g id="node28" class="node">
<title>32</title>
<ellipse fill="none" stroke="black" cx="1216" cy="-394" rx="55.79" ry="18"/>
<text text-anchor="middle" x="1216" y="-390.3" font-family="Times,serif" font-size="14.00">V2036 (a)</text>
</g>
<!-- 36 -->
<g id="node31" class="node">
<title>36</title>
<ellipse fill="none" stroke="black" cx="1473" cy="-538" rx="50.09" ry="18"/>
<text text-anchor="middle" x="1473" y="-534.3" font-family="Times,serif" font-size="14.00">Neap (a)</text>
</g>
<!-- 36&#45;&gt;20 -->
<g id="edge18" class="edge">
<title>36&#45;&gt;20</title>
<path fill="none" stroke="black" stroke-dasharray="1,5" d="M1484.14,-520.41C1489.73,-512.08 1496.64,-501.8 1502.89,-492.49"/>
<polygon fill="black" stroke="black" points="1505.95,-494.21 1508.62,-483.96 1500.13,-490.31 1505.95,-494.21"/>
</g>
<!-- 41&#45;&gt;19 -->
<g id="edge17" class="edge">
<title>41&#45;&gt;19</title>
<path fill="none" stroke="black" stroke-dasharray="1,5" d="M1499.78,-304.41C1492.31,-295.69 1483.01,-284.85 1474.75,-275.21"/>
<polygon fill="black" stroke="black" points="1477.28,-272.78 1468.12,-267.47 1471.97,-277.34 1477.28,-272.78"/>
</g>
<!-- 44&#45;&gt;32 -->
<g id="edge27" class="edge">
<title>44&#45;&gt;32</title>
<path fill="none" stroke="black" stroke-dasharray="1,5" d="M1116.9,-450.5C1135.26,-440.22 1160.11,-426.3 1180.34,-414.97"/>
<polygon fill="black" stroke="black" points="1182.26,-417.91 1189.27,-409.97 1178.84,-411.8 1182.26,-417.91"/>
</g>
<!-- 45 -->
<g id="node38" class="node">
<title>45</title>
<ellipse fill="none" stroke="black" cx="1123" cy="-611" rx="53.89" ry="18"/>
<text text-anchor="middle" x="1123" y="-607.3" font-family="Times,serif" font-size="14.00">aBase (a)</text>
</g>
<!-- 45&#45;&gt;0 -->
<g id="edge1" class="edge">
<title>45&#45;&gt;0</title>
<path fill="none" stroke="black" d="M1075.07,-602.57C1017.15,-593.26 916.89,-576.06 832,-556 827.97,-555.05 823.81,-554 819.65,-552.89"/>
<polygon fill="black" stroke="black" points="820.56,-549.51 809.99,-550.25 818.72,-556.27 820.56,-549.51"/>
</g>
<!-- 45&#45;&gt;4 -->
<g id="edge5" class="edge">
<title>45&#45;&gt;4</title>
<path fill="none" stroke="black" stroke-dasharray="5,2" d="M1084.23,-598.43C1041.74,-585.76 973.7,-565.46 929.17,-552.18"/>
<polygon fill="black" stroke="black" points="930.08,-548.8 919.5,-549.29 928.08,-555.5 930.08,-548.8"/>
</g>
<!-- 45&#45;&gt;7 -->
<g id="edge7" class="edge">
<title>45&#45;&gt;7</title>
<path fill="none" stroke="black" d="M1098.54,-594.77C1082.01,-584.47 1059.99,-570.76 1041.93,-559.51"/>
<polygon fill="black" stroke="black" points="1043.75,-556.52 1033.42,-554.21 1040.05,-562.46 1043.75,-556.52"/>
</g>
<!-- 45&#45;&gt;13 -->
<g id="edge12" class="edge">
<title>45&#45;&gt;13</title>
<path fill="none" stroke="black" stroke-width="2" d="M1123,-592.81C1123,-584.79 1123,-575.05 1123,-566.07"/>
<polygon fill="black" stroke="black" stroke-width="2" points="1126.5,-566.03 1123,-556.03 1119.5,-566.03 1126.5,-566.03"/>
</g>
<!-- 45&#45;&gt;15 -->
<g id="edge13" class="edge">
<title>45&#45;&gt;15</title>
<path fill="none" stroke="black" stroke-width="2" d="M1147.46,-594.77C1163.99,-584.47 1186.01,-570.76 1204.07,-559.51"/>
<polygon fill="black" stroke="black" stroke-width="2" points="1205.95,-562.46 1212.58,-554.21 1202.25,-556.52 1205.95,-562.46"/>
</g>
<!-- 45&#45;&gt;21 -->
<g id="edge19" class="edge">
<title>45&#45;&gt;21</title>
<path fill="none" stroke="black" d="M1161.5,-598.34C1197.18,-587.5 1251.73,-570.83 1299,-556 1302.09,-555.03 1305.28,-554.02 1308.48,-553.01"/>
<polygon fill="black" stroke="black" points="1309.63,-556.32 1318.09,-549.95 1307.5,-549.65 1309.63,-556.32"/>
</g>
<!-- 45&#45;&gt;36 -->
<g id="edge30" class="edge">
<title>45&#45;&gt;36</title>
<path fill="none" stroke="black" stroke-width="2" d="M1169.75,-601.97C1226,-592.09 1323.23,-574.38 1406,-556 1411.78,-554.72 1417.82,-553.3 1423.8,-551.84"/>
<polygon fill="black" stroke="black" stroke-width="2" points="1424.9,-555.17 1433.77,-549.37 1423.22,-548.38 1424.9,-555.17"/>
</g>
</g>
</svg>
