<?xml version="1.0" encoding="UTF-8" standalone="no"?>
<!DOCTYPE svg PUBLIC "-//W3C//DTD SVG 1.1//EN"
 "http://www.w3.org/Graphics/SVG/1.1/DTD/svg11.dtd">
<!-- Generated by graphviz version 2.43.0 (0)
 -->
<!-- Title: textual_flow_diagram Pages: 1 -->
<svg width="798pt" height="244pt"
 viewBox="0.00 0.00 798.00 244.00" xmlns="http://www.w3.org/2000/svg" xmlns:xlink="http://www.w3.org/1999/xlink">
<g id="graph0" class="graph" transform="scale(1 1) rotate(0) translate(4 240)">
<title>textual_flow_diagram</title>
<polygon fill="white" stroke="transparent" points="-4,4 -4,-240 794,-240 794,4 -4,4"/>
<g id="clust1" class="cluster">
<title>cluster_legend</title>
<polygon fill="none" stroke="black" points="8,-174 8,-228 194,-228 194,-174 8,-174"/>
</g>
<g id="clust2" class="cluster">
<title>cluster_plot</title>
</g>
<!-- label -->
<g id="node1" class="node">
<title>label</title>
<text text-anchor="middle" x="101" y="-204.8" font-family="Times,serif" font-size="14.00">adstag1.3.5U12&#45;14, a</text>
<text text-anchor="middle" x="101" y="-189.8" font-family="Times,serif" font-size="14.00">Con = 5</text>
</g>
<!-- 2 -->
<g id="node2" class="node">
<title>2</title>
<ellipse fill="none" stroke="black" cx="260" cy="-117" rx="50.09" ry="18"/>
<text text-anchor="middle" x="260" y="-113.3" font-family="Times,serif" font-size="14.00">V560 (a)</text>
</g>
<!-- 12 -->
<g id="node7" class="node">
<title>12</title>
<ellipse fill="none" stroke="black" cx="266" cy="-34" rx="55.79" ry="18"/>
<text text-anchor="middle" x="266" y="-30.3" font-family="Times,serif" font-size="14.00">V1920 (a)</text>
</g>
<!-- 2&#45;&gt;12 -->
<g id="edge5" class="edge">
<title>2&#45;&gt;12</title>
<path fill="none" stroke="black" stroke-dasharray="5,2" d="M261.27,-98.82C262.06,-88.19 263.09,-74.31 263.98,-62.2"/>
<polygon fill="black" stroke="black" points="267.48,-62.38 264.73,-52.15 260.5,-61.87 267.48,-62.38"/>
</g>
<!-- 4 -->
<g id="node3" class="node">
<title>4</title>
<ellipse fill="none" stroke="black" cx="372" cy="-117" rx="44.39" ry="18"/>
<text text-anchor="middle" x="372" y="-113.3" font-family="Times,serif" font-size="14.00">P74 (a)</text>
</g>
<!-- 5 -->
<g id="node4" class="node">
<title>5</title>
<ellipse fill="none" stroke="black" cx="381" cy="-34" rx="41.69" ry="18"/>
<text text-anchor="middle" x="381" y="-30.3" font-family="Times,serif" font-size="14.00">Est (a)</text>
</g>
<!-- 7 -->
<g id="node5" class="node">
<title>7</title>
<ellipse fill="none" stroke="black" cx="490" cy="-117" rx="55.79" ry="18"/>
<text text-anchor="middle" x="490" y="-113.3" font-family="Times,serif" font-size="14.00">V1897 (a)</text>
</g>
<!-- 7&#45;&gt;5 -->
<g id="edge3" class="edge">
<title>7&#45;&gt;5</title>
<path fill="none" stroke="black" stroke-dasharray="1,5" d="M468.72,-100.19C451.75,-87.57 427.81,-69.79 409.23,-55.98"/>
<polygon fill="black" stroke="black" points="411.23,-53.1 401.12,-49.95 407.06,-58.72 411.23,-53.1"/>
</g>
<!-- 30 -->
<g id="node10" class="node">
<title>30</title>
<ellipse fill="none" stroke="black" cx="496" cy="-34" rx="55.79" ry="18"/>
<text text-anchor="middle" x="496" y="-30.3" font-family="Times,serif" font-size="14.00">V2250 (a)</text>
</g>
<!-- 7&#45;&gt;30 -->
<g id="edge8" class="edge">
<title>7&#45;&gt;30</title>
<path fill="none" stroke="black" stroke-dasharray="5,2" d="M491.27,-98.82C492.06,-88.19 493.09,-74.31 493.98,-62.2"/>
<polygon fill="black" stroke="black" points="497.48,-62.38 494.73,-52.15 490.5,-61.87 497.48,-62.38"/>
<text text-anchor="middle" x="496.5" y="-73" font-family="Times,serif" font-size="10.00">2</text>
</g>
<!-- 42 -->
<g id="node11" class="node">
<title>42</title>
<ellipse fill="none" stroke="black" cx="613" cy="-34" rx="42.79" ry="18"/>
<text text-anchor="middle" x="613" y="-30.3" font-family="Times,serif" font-size="14.00">Bas (a)</text>
</g>
<!-- 7&#45;&gt;42 -->
<g id="edge9" class="edge">
<title>7&#45;&gt;42</title>
<path fill="none" stroke="black" d="M513.42,-100.57C533.03,-87.66 561.14,-69.15 582.5,-55.09"/>
<polygon fill="black" stroke="black" points="584.48,-57.97 590.9,-49.55 580.63,-52.13 584.48,-57.97"/>
</g>
<!-- 11 -->
<g id="node6" class="node">
<title>11</title>
<ellipse fill="none" stroke="black" cx="490" cy="-201" rx="53.89" ry="18"/>
<text text-anchor="middle" x="490" y="-197.3" font-family="Times,serif" font-size="14.00">aBase (a)</text>
</g>
<!-- 11&#45;&gt;2 -->
<g id="edge1" class="edge">
<title>11&#45;&gt;2</title>
<path fill="none" stroke="black" stroke-width="2" d="M454.57,-187.37C414.03,-172.92 347.63,-149.24 303.87,-133.64"/>
<polygon fill="black" stroke="black" stroke-width="2" points="304.94,-130.31 294.35,-130.25 302.59,-136.9 304.94,-130.31"/>
</g>
<!-- 11&#45;&gt;4 -->
<g id="edge2" class="edge">
<title>11&#45;&gt;4</title>
<path fill="none" stroke="black" d="M467.81,-184.58C449.11,-171.59 422.21,-152.89 401.67,-138.62"/>
<polygon fill="black" stroke="black" points="403.51,-135.63 393.3,-132.8 399.52,-141.38 403.51,-135.63"/>
<text text-anchor="middle" x="441.5" y="-156" font-family="Times,serif" font-size="10.00">2</text>
</g>
<!-- 11&#45;&gt;7 -->
<g id="edge4" class="edge">
<title>11&#45;&gt;7</title>
<path fill="none" stroke="black" d="M490,-182.61C490,-171.77 490,-157.6 490,-145.29"/>
<polygon fill="black" stroke="black" points="493.5,-145.08 490,-135.08 486.5,-145.08 493.5,-145.08"/>
</g>
<!-- 16 -->
<g id="node8" class="node">
<title>16</title>
<ellipse fill="none" stroke="black" cx="617" cy="-117" rx="52.79" ry="18"/>
<text text-anchor="middle" x="617" y="-113.3" font-family="Times,serif" font-size="14.00">M136 (a)</text>
</g>
<!-- 11&#45;&gt;16 -->
<g id="edge6" class="edge">
<title>11&#45;&gt;16</title>
<path fill="none" stroke="black" stroke-width="2" d="M513.59,-184.77C533.73,-171.77 562.87,-152.95 585.09,-138.6"/>
<polygon fill="black" stroke="black" stroke-width="2" points="587.03,-141.51 593.54,-133.15 583.24,-135.63 587.03,-141.51"/>
</g>
<!-- 19 -->
<g id="node9" class="node">
<title>19</title>
<ellipse fill="none" stroke="black" cx="731" cy="-117" rx="42.79" ry="18"/>
<text text-anchor="middle" x="731" y="-113.3" font-family="Times,serif" font-size="14.00">La2 (a)</text>
</g>
<!-- 11&#45;&gt;19 -->
<g id="edge7" class="edge">
<title>11&#45;&gt;19</title>
<path fill="none" stroke="black" stroke-width="2" d="M526.34,-187.63C569.95,-172.8 642.94,-147.96 688.95,-132.31"/>
<polygon fill="black" stroke="black" stroke-width="2" points="690.28,-135.55 698.62,-129.02 688.02,-128.93 690.28,-135.55"/>
</g>
</g>
</svg>
