<?xml version="1.0" encoding="UTF-8" standalone="no"?>
<!DOCTYPE svg PUBLIC "-//W3C//DTD SVG 1.1//EN"
 "http://www.w3.org/Graphics/SVG/1.1/DTD/svg11.dtd">
<!-- Generated by graphviz version 2.43.0 (0)
 -->
<!-- Title: textual_flow_diagram Pages: 1 -->
<svg width="698pt" height="150pt"
 viewBox="0.00 0.00 698.00 150.00" xmlns="http://www.w3.org/2000/svg" xmlns:xlink="http://www.w3.org/1999/xlink">
<g id="graph0" class="graph" transform="scale(1 1) rotate(0) translate(4 146)">
<title>textual_flow_diagram</title>
<polygon fill="white" stroke="transparent" points="-4,4 -4,-146 694,-146 694,4 -4,4"/>
<g id="clust1" class="cluster">
<title>cluster_legend</title>
<polygon fill="none" stroke="black" points="8,-80 8,-134 182,-134 182,-80 8,-80"/>
</g>
<g id="clust2" class="cluster">
<title>cluster_plot</title>
</g>
<!-- label -->
<g id="node1" class="node">
<title>label</title>
<text text-anchor="middle" x="95" y="-110.8" font-family="Times,serif" font-size="14.00">adstag1.3.59U74, d</text>
<text text-anchor="middle" x="95" y="-95.8" font-family="Times,serif" font-size="14.00">Con = 3</text>
</g>
<!-- 8 -->
<g id="node2" class="node">
<title>8</title>
<ellipse fill="none" stroke="black" cx="502" cy="-34" rx="55.79" ry="18"/>
<text text-anchor="middle" x="502" y="-30.3" font-family="Times,serif" font-size="14.00">V1639 (d)</text>
</g>
<!-- 9 -->
<g id="node3" class="node">
<title>9</title>
<ellipse fill="none" stroke="black" cx="625" cy="-34" rx="49.29" ry="18"/>
<text text-anchor="middle" x="625" y="-30.3" font-family="Times,serif" font-size="14.00">La35 (d)</text>
</g>
<!-- 13 -->
<g id="node4" class="node">
<title>13</title>
<ellipse fill="none" stroke="black" cx="254" cy="-34" rx="55.79" ry="18"/>
<text text-anchor="middle" x="254" y="-30.3" font-family="Times,serif" font-size="14.00">V2036 (d)</text>
</g>
<!-- 42 -->
<g id="node5" class="node">
<title>42</title>
<ellipse fill="none" stroke="black" cx="378" cy="-34" rx="50.09" ry="18"/>
<text text-anchor="middle" x="378" y="-30.3" font-family="Times,serif" font-size="14.00">S249 (d)</text>
</g>
<!-- 5 -->
<g id="node6" class="node">
<title>5</title>
<ellipse fill="none" stroke="blue" stroke-dasharray="5,2" cx="625" cy="-107" rx="48.99" ry="18"/>
<text text-anchor="middle" x="625" y="-103.3" font-family="Times,serif" font-size="14.00">La22 (a)</text>
</g>
<!-- 5&#45;&gt;9 -->
<g id="edge2" class="edge">
<title>5&#45;&gt;9</title>
<path fill="none" stroke="blue" stroke-dasharray="1,5" d="M625,-88.81C625,-80.79 625,-71.05 625,-62.07"/>
<polygon fill="blue" stroke="blue" points="628.5,-62.03 625,-52.03 621.5,-62.03 628.5,-62.03"/>
</g>
<!-- 12 -->
<g id="node7" class="node">
<title>12</title>
<ellipse fill="none" stroke="blue" stroke-dasharray="5,2" cx="502" cy="-107" rx="50.09" ry="18"/>
<text text-anchor="middle" x="502" y="-103.3" font-family="Times,serif" font-size="14.00">V566 (a)</text>
</g>
<!-- 12&#45;&gt;8 -->
<g id="edge1" class="edge">
<title>12&#45;&gt;8</title>
<path fill="none" stroke="blue" stroke-dasharray="1,5" d="M502,-88.81C502,-80.79 502,-71.05 502,-62.07"/>
<polygon fill="blue" stroke="blue" points="505.5,-62.03 502,-52.03 498.5,-62.03 505.5,-62.03"/>
</g>
<!-- 20 -->
<g id="node8" class="node">
<title>20</title>
<ellipse fill="none" stroke="blue" stroke-dasharray="5,2" cx="316" cy="-107" rx="53.89" ry="18"/>
<text text-anchor="middle" x="316" y="-103.3" font-family="Times,serif" font-size="14.00">aBase (a)</text>
</g>
<!-- 20&#45;&gt;13 -->
<g id="edge3" class="edge">
<title>20&#45;&gt;13</title>
<path fill="none" stroke="blue" d="M301.62,-89.53C293.83,-80.61 284.05,-69.41 275.38,-59.49"/>
<polygon fill="blue" stroke="blue" points="277.95,-57.1 268.73,-51.87 272.67,-61.71 277.95,-57.1"/>
</g>
<!-- 20&#45;&gt;42 -->
<g id="edge4" class="edge">
<title>20&#45;&gt;42</title>
<path fill="none" stroke="blue" d="M330.38,-89.53C338.28,-80.48 348.23,-69.09 356.99,-59.06"/>
<polygon fill="blue" stroke="blue" points="359.76,-61.21 363.7,-51.38 354.48,-56.61 359.76,-61.21"/>
</g>
</g>
</svg>
