<?xml version="1.0" encoding="UTF-8" standalone="no"?>
<!DOCTYPE svg PUBLIC "-//W3C//DTD SVG 1.1//EN"
 "http://www.w3.org/Graphics/SVG/1.1/DTD/svg11.dtd">
<!-- Generated by graphviz version 2.43.0 (0)
 -->
<!-- Title: textual_flow_diagram Pages: 1 -->
<svg width="640pt" height="222pt"
 viewBox="0.00 0.00 640.00 222.00" xmlns="http://www.w3.org/2000/svg" xmlns:xlink="http://www.w3.org/1999/xlink">
<g id="graph0" class="graph" transform="scale(1 1) rotate(0) translate(4 218)">
<title>textual_flow_diagram</title>
<polygon fill="white" stroke="transparent" points="-4,4 -4,-218 636,-218 636,4 -4,4"/>
<g id="clust1" class="cluster">
<title>cluster_legend</title>
<polygon fill="none" stroke="black" points="8,-152 8,-206 180,-206 180,-152 8,-152"/>
</g>
<g id="clust2" class="cluster">
<title>cluster_plot</title>
</g>
<!-- label -->
<g id="node1" class="node">
<title>label</title>
<text text-anchor="middle" x="94" y="-182.8" font-family="Times,serif" font-size="14.00">adstag1.2.40U24, c</text>
<text text-anchor="middle" x="94" y="-167.8" font-family="Times,serif" font-size="14.00">Con = 5</text>
</g>
<!-- 2 -->
<g id="node2" class="node">
<title>2</title>
<ellipse fill="none" stroke="black" cx="362" cy="-106" rx="49.29" ry="18"/>
<text text-anchor="middle" x="362" y="-102.3" font-family="Times,serif" font-size="14.00">V560 (c)</text>
</g>
<!-- 12 -->
<g id="node3" class="node">
<title>12</title>
<ellipse fill="none" stroke="black" cx="362" cy="-34" rx="55.49" ry="18"/>
<text text-anchor="middle" x="362" y="-30.3" font-family="Times,serif" font-size="14.00">V1920 (c)</text>
</g>
<!-- 2&#45;&gt;12 -->
<g id="edge2" class="edge">
<title>2&#45;&gt;12</title>
<path fill="none" stroke="black" stroke-dasharray="5,2" d="M362,-87.7C362,-79.98 362,-70.71 362,-62.11"/>
<polygon fill="black" stroke="black" points="365.5,-62.1 362,-52.1 358.5,-62.1 365.5,-62.1"/>
</g>
<!-- 19 -->
<g id="node4" class="node">
<title>19</title>
<ellipse fill="none" stroke="black" cx="472" cy="-106" rx="42.49" ry="18"/>
<text text-anchor="middle" x="472" y="-102.3" font-family="Times,serif" font-size="14.00">La2 (c)</text>
</g>
<!-- 40 -->
<g id="node5" class="node">
<title>40</title>
<ellipse fill="none" stroke="black" cx="245" cy="-106" rx="49.29" ry="18"/>
<text text-anchor="middle" x="245" y="-102.3" font-family="Times,serif" font-size="14.00">V536 (c)</text>
</g>
<!-- 42 -->
<g id="node6" class="node">
<title>42</title>
<ellipse fill="none" stroke="black" cx="574" cy="-106" rx="42.49" ry="18"/>
<text text-anchor="middle" x="574" y="-102.3" font-family="Times,serif" font-size="14.00">Bas (c)</text>
</g>
<!-- 7 -->
<g id="node7" class="node">
<title>7</title>
<ellipse fill="none" stroke="blue" stroke-dasharray="5,2" cx="560" cy="-179" rx="55.79" ry="18"/>
<text text-anchor="middle" x="560" y="-175.3" font-family="Times,serif" font-size="14.00">V1897 (a)</text>
</g>
<!-- 7&#45;&gt;42 -->
<g id="edge5" class="edge">
<title>7&#45;&gt;42</title>
<path fill="none" stroke="blue" d="M563.39,-160.81C564.97,-152.79 566.89,-143.05 568.66,-134.07"/>
<polygon fill="blue" stroke="blue" points="572.14,-134.52 570.64,-124.03 565.27,-133.16 572.14,-134.52"/>
</g>
<!-- 11 -->
<g id="node8" class="node">
<title>11</title>
<ellipse fill="none" stroke="blue" stroke-dasharray="5,2" cx="406" cy="-179" rx="53.89" ry="18"/>
<text text-anchor="middle" x="406" y="-175.3" font-family="Times,serif" font-size="14.00">aBase (a)</text>
</g>
<!-- 11&#45;&gt;2 -->
<g id="edge1" class="edge">
<title>11&#45;&gt;2</title>
<path fill="none" stroke="blue" stroke-width="2" d="M395.57,-161.17C390.26,-152.6 383.68,-141.99 377.76,-132.44"/>
<polygon fill="blue" stroke="blue" stroke-width="2" points="380.6,-130.36 372.35,-123.71 374.65,-134.05 380.6,-130.36"/>
</g>
<!-- 11&#45;&gt;19 -->
<g id="edge3" class="edge">
<title>11&#45;&gt;19</title>
<path fill="none" stroke="blue" stroke-width="2" d="M421.31,-161.53C429.93,-152.26 440.83,-140.53 450.31,-130.33"/>
<polygon fill="blue" stroke="blue" stroke-width="2" points="452.98,-132.6 457.23,-122.89 447.86,-127.83 452.98,-132.6"/>
</g>
<!-- 23 -->
<g id="node9" class="node">
<title>23</title>
<ellipse fill="none" stroke="blue" stroke-dasharray="5,2" cx="252" cy="-179" rx="55.79" ry="18"/>
<text text-anchor="middle" x="252" y="-175.3" font-family="Times,serif" font-size="14.00">V1629 (a)</text>
</g>
<!-- 23&#45;&gt;40 -->
<g id="edge4" class="edge">
<title>23&#45;&gt;40</title>
<path fill="none" stroke="blue" stroke-dasharray="5,2" d="M250.31,-160.81C249.51,-152.79 248.55,-143.05 247.67,-134.07"/>
<polygon fill="blue" stroke="blue" points="251.14,-133.64 246.68,-124.03 244.18,-134.32 251.14,-133.64"/>
</g>
</g>
</svg>
