<?xml version="1.0" encoding="UTF-8" standalone="no"?>
<!DOCTYPE svg PUBLIC "-//W3C//DTD SVG 1.1//EN"
 "http://www.w3.org/Graphics/SVG/1.1/DTD/svg11.dtd">
<!-- Generated by graphviz version 2.43.0 (0)
 -->
<!-- Title: textual_flow_diagram Pages: 1 -->
<svg width="1728pt" height="294pt"
 viewBox="0.00 0.00 1728.00 294.00" xmlns="http://www.w3.org/2000/svg" xmlns:xlink="http://www.w3.org/1999/xlink">
<g id="graph0" class="graph" transform="scale(1 1) rotate(0) translate(4 290)">
<title>textual_flow_diagram</title>
<polygon fill="white" stroke="transparent" points="-4,4 -4,-290 1724,-290 1724,4 -4,4"/>
<g id="clust1" class="cluster">
<title>cluster_legend</title>
<polygon fill="none" stroke="black" points="8,-224 8,-278 204,-278 204,-224 8,-224"/>
</g>
<g id="clust2" class="cluster">
<title>cluster_plot</title>
</g>
<!-- label -->
<g id="node1" class="node">
<title>label</title>
<text text-anchor="middle" x="106" y="-254.8" font-family="Times,serif" font-size="14.00">adstag1.3.18U22&#45;28, a</text>
<text text-anchor="middle" x="106" y="-239.8" font-family="Times,serif" font-size="14.00">Con = 10</text>
</g>
<!-- 0 -->
<g id="node2" class="node">
<title>0</title>
<ellipse fill="none" stroke="black" cx="1102" cy="-106" rx="44.39" ry="18"/>
<text text-anchor="middle" x="1102" y="-102.3" font-family="Times,serif" font-size="14.00">P01 (a)</text>
</g>
<!-- 1 -->
<g id="node3" class="node">
<title>1</title>
<ellipse fill="none" stroke="black" cx="520" cy="-178" rx="55.79" ry="18"/>
<text text-anchor="middle" x="520" y="-174.3" font-family="Times,serif" font-size="14.00">V2036 (a)</text>
</g>
<!-- 3 -->
<g id="node4" class="node">
<title>3</title>
<ellipse fill="none" stroke="black" cx="1208" cy="-106" rx="44.39" ry="18"/>
<text text-anchor="middle" x="1208" y="-102.3" font-family="Times,serif" font-size="14.00">S32 (a)</text>
</g>
<!-- 7 -->
<g id="node5" class="node">
<title>7</title>
<ellipse fill="none" stroke="black" cx="644" cy="-178" rx="50.09" ry="18"/>
<text text-anchor="middle" x="644" y="-174.3" font-family="Times,serif" font-size="14.00">V560 (a)</text>
</g>
<!-- 35 -->
<g id="node25" class="node">
<title>35</title>
<ellipse fill="none" stroke="black" cx="276" cy="-106" rx="55.79" ry="18"/>
<text text-anchor="middle" x="276" y="-102.3" font-family="Times,serif" font-size="14.00">V1920 (a)</text>
</g>
<!-- 7&#45;&gt;35 -->
<g id="edge23" class="edge">
<title>7&#45;&gt;35</title>
<path fill="none" stroke="black" stroke-dasharray="5,2" d="M607.37,-165.62C600.01,-163.57 592.29,-161.58 585,-160 477.87,-136.77 448.41,-145.9 341,-124 336.32,-123.05 331.47,-121.96 326.63,-120.81"/>
<polygon fill="black" stroke="black" points="327.3,-117.37 316.76,-118.39 325.63,-124.17 327.3,-117.37"/>
</g>
<!-- 9 -->
<g id="node6" class="node">
<title>9</title>
<ellipse fill="none" stroke="black" cx="1530" cy="-106" rx="44.39" ry="18"/>
<text text-anchor="middle" x="1530" y="-102.3" font-family="Times,serif" font-size="14.00">B39 (a)</text>
</g>
<!-- 10 -->
<g id="node7" class="node">
<title>10</title>
<ellipse fill="none" stroke="black" cx="1115" cy="-251" rx="53.89" ry="18"/>
<text text-anchor="middle" x="1115" y="-247.3" font-family="Times,serif" font-size="14.00">aBase (a)</text>
</g>
<!-- 10&#45;&gt;1 -->
<g id="edge2" class="edge">
<title>10&#45;&gt;1</title>
<path fill="none" stroke="black" d="M1061.96,-247.31C966.12,-241.85 757.93,-227.23 585,-196 580.23,-195.14 575.29,-194.11 570.37,-192.99"/>
<polygon fill="black" stroke="black" points="570.89,-189.51 560.35,-190.58 569.26,-196.32 570.89,-189.51"/>
</g>
<!-- 10&#45;&gt;7 -->
<g id="edge4" class="edge">
<title>10&#45;&gt;7</title>
<path fill="none" stroke="black" stroke-width="2" d="M1063.2,-245.73C984.7,-238.69 831.18,-222.71 703,-196 698.89,-195.14 694.65,-194.15 690.42,-193.08"/>
<polygon fill="black" stroke="black" stroke-width="2" points="691.17,-189.66 680.61,-190.47 689.37,-196.42 691.17,-189.66"/>
</g>
<!-- 22 -->
<g id="node15" class="node">
<title>22</title>
<ellipse fill="none" stroke="black" cx="757" cy="-178" rx="44.69" ry="18"/>
<text text-anchor="middle" x="757" y="-174.3" font-family="Times,serif" font-size="14.00">Nan (a)</text>
</g>
<!-- 10&#45;&gt;22 -->
<g id="edge13" class="edge">
<title>10&#45;&gt;22</title>
<path fill="none" stroke="black" d="M1066.16,-243.31C1005.76,-234.59 900.03,-217.82 811,-196 807.4,-195.12 803.69,-194.13 799.98,-193.08"/>
<polygon fill="black" stroke="black" points="800.81,-189.67 790.22,-190.2 798.83,-196.39 800.81,-189.67"/>
</g>
<!-- 24 -->
<g id="node17" class="node">
<title>24</title>
<ellipse fill="none" stroke="black" cx="869" cy="-178" rx="48.99" ry="18"/>
<text text-anchor="middle" x="869" y="-174.3" font-family="Times,serif" font-size="14.00">La22 (a)</text>
</g>
<!-- 10&#45;&gt;24 -->
<g id="edge15" class="edge">
<title>10&#45;&gt;24</title>
<path fill="none" stroke="black" stroke-dasharray="5,2" d="M1075.48,-238.59C1032.08,-226.07 962.42,-205.96 916.19,-192.62"/>
<polygon fill="black" stroke="black" points="916.99,-189.21 906.41,-189.8 915.05,-195.93 916.99,-189.21"/>
</g>
<!-- 25 -->
<g id="node18" class="node">
<title>25</title>
<ellipse fill="none" stroke="black" cx="1059" cy="-178" rx="44.39" ry="18"/>
<text text-anchor="middle" x="1059" y="-174.3" font-family="Times,serif" font-size="14.00">A25 (a)</text>
</g>
<!-- 10&#45;&gt;25 -->
<g id="edge16" class="edge">
<title>10&#45;&gt;25</title>
<path fill="none" stroke="black" stroke-dasharray="5,2" d="M1101.73,-233.17C1094.82,-224.42 1086.25,-213.55 1078.6,-203.85"/>
<polygon fill="black" stroke="black" points="1081.12,-201.39 1072.18,-195.71 1075.62,-205.72 1081.12,-201.39"/>
</g>
<!-- 28 -->
<g id="node20" class="node">
<title>28</title>
<ellipse fill="none" stroke="black" cx="1171" cy="-178" rx="50.09" ry="18"/>
<text text-anchor="middle" x="1171" y="-174.3" font-family="Times,serif" font-size="14.00">S249 (a)</text>
</g>
<!-- 10&#45;&gt;28 -->
<g id="edge18" class="edge">
<title>10&#45;&gt;28</title>
<path fill="none" stroke="black" d="M1128.27,-233.17C1135.18,-224.42 1143.75,-213.55 1151.4,-203.85"/>
<polygon fill="black" stroke="black" points="1154.38,-205.72 1157.82,-195.71 1148.88,-201.39 1154.38,-205.72"/>
</g>
<!-- 32 -->
<g id="node22" class="node">
<title>32</title>
<ellipse fill="none" stroke="black" cx="1292" cy="-178" rx="52.79" ry="18"/>
<text text-anchor="middle" x="1292" y="-174.3" font-family="Times,serif" font-size="14.00">M136 (a)</text>
</g>
<!-- 10&#45;&gt;32 -->
<g id="edge20" class="edge">
<title>10&#45;&gt;32</title>
<path fill="none" stroke="black" stroke-width="2" d="M1148.29,-236.65C1176.94,-225.16 1218.43,-208.51 1249.47,-196.06"/>
<polygon fill="black" stroke="black" stroke-width="2" points="1251.18,-199.15 1259.16,-192.17 1248.57,-192.65 1251.18,-199.15"/>
</g>
<!-- 33 -->
<g id="node23" class="node">
<title>33</title>
<ellipse fill="none" stroke="black" cx="1415" cy="-178" rx="52.79" ry="18"/>
<text text-anchor="middle" x="1415" y="-174.3" font-family="Times,serif" font-size="14.00">LaSM (a)</text>
</g>
<!-- 10&#45;&gt;33 -->
<g id="edge21" class="edge">
<title>10&#45;&gt;33</title>
<path fill="none" stroke="black" d="M1159.65,-240.6C1207.78,-230.32 1286.56,-213.01 1354,-196 1358.02,-194.99 1362.17,-193.9 1366.34,-192.79"/>
<polygon fill="black" stroke="black" points="1367.29,-196.16 1376.03,-190.17 1365.46,-189.41 1367.29,-196.16"/>
</g>
<!-- 36 -->
<g id="node26" class="node">
<title>36</title>
<ellipse fill="none" stroke="black" cx="1536" cy="-178" rx="50.09" ry="18"/>
<text text-anchor="middle" x="1536" y="-174.3" font-family="Times,serif" font-size="14.00">Neap (a)</text>
</g>
<!-- 10&#45;&gt;36 -->
<g id="edge24" class="edge">
<title>10&#45;&gt;36</title>
<path fill="none" stroke="black" stroke-width="2" d="M1165.45,-244.61C1235.75,-236.62 1366.95,-219.95 1477,-196 1481.1,-195.11 1485.34,-194.09 1489.57,-193"/>
<polygon fill="black" stroke="black" stroke-width="2" points="1490.62,-196.34 1499.37,-190.37 1488.8,-189.58 1490.62,-196.34"/>
</g>
<!-- 42 -->
<g id="node29" class="node">
<title>42</title>
<ellipse fill="none" stroke="black" cx="1654" cy="-178" rx="50.09" ry="18"/>
<text text-anchor="middle" x="1654" y="-174.3" font-family="Times,serif" font-size="14.00">Patm (a)</text>
</g>
<!-- 10&#45;&gt;42 -->
<g id="edge27" class="edge">
<title>10&#45;&gt;42</title>
<path fill="none" stroke="black" d="M1167.65,-246.99C1256.46,-241.26 1441.4,-226.54 1595,-196 1599.18,-195.17 1603.48,-194.18 1607.78,-193.11"/>
<polygon fill="black" stroke="black" points="1608.95,-196.43 1617.73,-190.49 1607.17,-189.66 1608.95,-196.43"/>
</g>
<!-- 11 -->
<g id="node8" class="node">
<title>11</title>
<ellipse fill="none" stroke="black" cx="527" cy="-106" rx="46.59" ry="18"/>
<text text-anchor="middle" x="527" y="-102.3" font-family="Times,serif" font-size="14.00">Bodl (a)</text>
</g>
<!-- 12 -->
<g id="node9" class="node">
<title>12</title>
<ellipse fill="none" stroke="black" cx="1648" cy="-106" rx="55.79" ry="18"/>
<text text-anchor="middle" x="1648" y="-102.3" font-family="Times,serif" font-size="14.00">V1629 (a)</text>
</g>
<!-- 13 -->
<g id="node10" class="node">
<title>13</title>
<ellipse fill="none" stroke="black" cx="1320" cy="-106" rx="50.09" ry="18"/>
<text text-anchor="middle" x="1320" y="-102.3" font-family="Times,serif" font-size="14.00">V566 (a)</text>
</g>
<!-- 34 -->
<g id="node24" class="node">
<title>34</title>
<ellipse fill="none" stroke="black" cx="1320" cy="-34" rx="55.79" ry="18"/>
<text text-anchor="middle" x="1320" y="-30.3" font-family="Times,serif" font-size="14.00">V1639 (a)</text>
</g>
<!-- 13&#45;&gt;34 -->
<g id="edge22" class="edge">
<title>13&#45;&gt;34</title>
<path fill="none" stroke="black" stroke-dasharray="1,5" d="M1320,-87.7C1320,-79.98 1320,-70.71 1320,-62.11"/>
<polygon fill="black" stroke="black" points="1323.5,-62.1 1320,-52.1 1316.5,-62.1 1323.5,-62.1"/>
</g>
<!-- 14 -->
<g id="node11" class="node">
<title>14</title>
<ellipse fill="none" stroke="black" cx="642" cy="-106" rx="50.09" ry="18"/>
<text text-anchor="middle" x="642" y="-102.3" font-family="Times,serif" font-size="14.00">A116 (a)</text>
</g>
<!-- 16 -->
<g id="node12" class="node">
<title>16</title>
<ellipse fill="none" stroke="black" cx="869" cy="-34" rx="50.09" ry="18"/>
<text text-anchor="middle" x="869" y="-30.3" font-family="Times,serif" font-size="14.00">A336 (a)</text>
</g>
<!-- 17 -->
<g id="node13" class="node">
<title>17</title>
<ellipse fill="none" stroke="black" cx="1428" cy="-106" rx="40.09" ry="18"/>
<text text-anchor="middle" x="1428" y="-102.3" font-family="Times,serif" font-size="14.00">Pal (a)</text>
</g>
<!-- 20 -->
<g id="node14" class="node">
<title>20</title>
<ellipse fill="none" stroke="black" cx="754" cy="-106" rx="44.39" ry="18"/>
<text text-anchor="middle" x="754" y="-102.3" font-family="Times,serif" font-size="14.00">P74 (a)</text>
</g>
<!-- 39 -->
<g id="node28" class="node">
<title>39</title>
<ellipse fill="none" stroke="black" cx="406" cy="-106" rx="55.79" ry="18"/>
<text text-anchor="middle" x="406" y="-102.3" font-family="Times,serif" font-size="14.00">V1897 (a)</text>
</g>
<!-- 22&#45;&gt;39 -->
<g id="edge26" class="edge">
<title>22&#45;&gt;39</title>
<path fill="none" stroke="black" stroke-dasharray="1,5" d="M723.8,-165.68C716.98,-163.6 709.8,-161.59 703,-160 601.39,-136.27 573.16,-145.23 471,-124 466.32,-123.03 461.48,-121.93 456.64,-120.78"/>
<polygon fill="black" stroke="black" points="457.31,-117.34 446.77,-118.34 455.64,-124.13 457.31,-117.34"/>
</g>
<!-- 23 -->
<g id="node16" class="node">
<title>23</title>
<ellipse fill="none" stroke="black" cx="355" cy="-34" rx="42.79" ry="18"/>
<text text-anchor="middle" x="355" y="-30.3" font-family="Times,serif" font-size="14.00">Bas (a)</text>
</g>
<!-- 24&#45;&gt;11 -->
<g id="edge6" class="edge">
<title>24&#45;&gt;11</title>
<path fill="none" stroke="black" stroke-dasharray="5,2" d="M832.99,-165.67C825.75,-163.61 818.17,-161.61 811,-160 710.9,-137.53 682.99,-146.95 583,-124 579.15,-123.12 575.19,-122.11 571.22,-121.04"/>
<polygon fill="black" stroke="black" points="572.03,-117.63 561.45,-118.27 570.12,-124.36 572.03,-117.63"/>
</g>
<!-- 24&#45;&gt;14 -->
<g id="edge9" class="edge">
<title>24&#45;&gt;14</title>
<path fill="none" stroke="black" stroke-dasharray="5,2" d="M832.78,-165.83C793.65,-153.76 731.17,-134.5 688.45,-121.32"/>
<polygon fill="black" stroke="black" points="689.43,-117.96 678.84,-118.36 687.37,-124.65 689.43,-117.96"/>
</g>
<!-- 24&#45;&gt;20 -->
<g id="edge12" class="edge">
<title>24&#45;&gt;20</title>
<path fill="none" stroke="black" stroke-dasharray="1,5" d="M844.89,-162.33C827.91,-151.99 804.99,-138.04 786.41,-126.73"/>
<polygon fill="black" stroke="black" points="788.04,-123.63 777.68,-121.42 784.4,-129.6 788.04,-123.63"/>
</g>
<!-- 29 -->
<g id="node21" class="node">
<title>29</title>
<ellipse fill="none" stroke="black" cx="869" cy="-106" rx="52.79" ry="18"/>
<text text-anchor="middle" x="869" y="-102.3" font-family="Times,serif" font-size="14.00">M111 (a)</text>
</g>
<!-- 24&#45;&gt;29 -->
<g id="edge19" class="edge">
<title>24&#45;&gt;29</title>
<path fill="none" stroke="black" stroke-dasharray="1,5" d="M869,-159.7C869,-151.98 869,-142.71 869,-134.11"/>
<polygon fill="black" stroke="black" points="872.5,-134.1 869,-124.1 865.5,-134.1 872.5,-134.1"/>
</g>
<!-- 38 -->
<g id="node27" class="node">
<title>38</title>
<ellipse fill="none" stroke="black" cx="990" cy="-106" rx="50.09" ry="18"/>
<text text-anchor="middle" x="990" y="-102.3" font-family="Times,serif" font-size="14.00">V571 (a)</text>
</g>
<!-- 24&#45;&gt;38 -->
<g id="edge25" class="edge">
<title>24&#45;&gt;38</title>
<path fill="none" stroke="black" stroke-dasharray="1,5" d="M894.07,-162.5C911.96,-152.15 936.23,-138.11 955.88,-126.74"/>
<polygon fill="black" stroke="black" points="957.64,-129.76 964.54,-121.73 954.14,-123.7 957.64,-129.76"/>
</g>
<!-- 25&#45;&gt;0 -->
<g id="edge1" class="edge">
<title>25&#45;&gt;0</title>
<path fill="none" stroke="black" stroke-dasharray="5,2" d="M1069.19,-160.41C1074.31,-152.08 1080.62,-141.8 1086.34,-132.49"/>
<polygon fill="black" stroke="black" points="1089.33,-134.31 1091.58,-123.96 1083.37,-130.65 1089.33,-134.31"/>
</g>
<!-- 25&#45;&gt;3 -->
<g id="edge3" class="edge">
<title>25&#45;&gt;3</title>
<path fill="none" stroke="black" stroke-dasharray="5,2" d="M1087.03,-163.83C1110.75,-152.69 1144.95,-136.62 1170.93,-124.41"/>
<polygon fill="black" stroke="black" points="1172.54,-127.53 1180.1,-120.11 1169.56,-121.19 1172.54,-127.53"/>
</g>
<!-- 25&#45;&gt;13 -->
<g id="edge8" class="edge">
<title>25&#45;&gt;13</title>
<path fill="none" stroke="black" stroke-dasharray="5,2" d="M1092.25,-165.92C1098.77,-163.87 1105.58,-161.8 1112,-160 1177.59,-141.58 1195.14,-141.44 1261,-124 1264.83,-122.99 1268.8,-121.91 1272.77,-120.8"/>
<polygon fill="black" stroke="black" points="1273.93,-124.11 1282.61,-118.04 1272.04,-117.37 1273.93,-124.11"/>
</g>
<!-- 25&#45;&gt;17 -->
<g id="edge11" class="edge">
<title>25&#45;&gt;17</title>
<path fill="none" stroke="black" stroke-dasharray="5,2" d="M1091.26,-165.65C1098.05,-163.55 1105.21,-161.53 1112,-160 1228.8,-133.61 1262.52,-151.76 1379,-124 1382.2,-123.24 1385.48,-122.35 1388.76,-121.38"/>
<polygon fill="black" stroke="black" points="1390,-124.66 1398.48,-118.31 1387.89,-117.98 1390,-124.66"/>
</g>
<!-- 27 -->
<g id="node19" class="node">
<title>27</title>
<ellipse fill="none" stroke="black" cx="457" cy="-34" rx="41.69" ry="18"/>
<text text-anchor="middle" x="457" y="-30.3" font-family="Times,serif" font-size="14.00">Est (a)</text>
</g>
<!-- 29&#45;&gt;16 -->
<g id="edge10" class="edge">
<title>29&#45;&gt;16</title>
<path fill="none" stroke="black" stroke-dasharray="5,2" d="M869,-87.7C869,-79.98 869,-70.71 869,-62.11"/>
<polygon fill="black" stroke="black" points="872.5,-62.1 869,-52.1 865.5,-62.1 872.5,-62.1"/>
</g>
<!-- 33&#45;&gt;9 -->
<g id="edge5" class="edge">
<title>33&#45;&gt;9</title>
<path fill="none" stroke="black" stroke-dasharray="5,2" d="M1439.67,-161.98C1456.69,-151.63 1479.47,-137.76 1497.9,-126.54"/>
<polygon fill="black" stroke="black" points="1499.83,-129.46 1506.55,-121.27 1496.19,-123.48 1499.83,-129.46"/>
</g>
<!-- 36&#45;&gt;12 -->
<g id="edge7" class="edge">
<title>36&#45;&gt;12</title>
<path fill="none" stroke="black" stroke-dasharray="1,5" d="M1559.75,-162.15C1575.72,-152.18 1596.99,-138.88 1614.65,-127.84"/>
<polygon fill="black" stroke="black" points="1616.88,-130.58 1623.51,-122.31 1613.17,-124.64 1616.88,-130.58"/>
</g>
<!-- 39&#45;&gt;23 -->
<g id="edge14" class="edge">
<title>39&#45;&gt;23</title>
<path fill="none" stroke="black" d="M393.91,-88.41C387.69,-79.87 379.97,-69.28 373.06,-59.79"/>
<polygon fill="black" stroke="black" points="375.72,-57.49 367,-51.47 370.06,-61.61 375.72,-57.49"/>
</g>
<!-- 39&#45;&gt;27 -->
<g id="edge17" class="edge">
<title>39&#45;&gt;27</title>
<path fill="none" stroke="black" stroke-dasharray="1,5" d="M418.09,-88.41C424.31,-79.87 432.03,-69.28 438.94,-59.79"/>
<polygon fill="black" stroke="black" points="441.94,-61.61 445,-51.47 436.28,-57.49 441.94,-61.61"/>
</g>
</g>
</svg>
