<?xml version="1.0" encoding="UTF-8" standalone="no"?>
<!DOCTYPE svg PUBLIC "-//W3C//DTD SVG 1.1//EN"
 "http://www.w3.org/Graphics/SVG/1.1/DTD/svg11.dtd">
<!-- Generated by graphviz version 2.43.0 (0)
 -->
<!-- Title: textual_flow_diagram Pages: 1 -->
<svg width="536pt" height="307pt"
 viewBox="0.00 0.00 536.00 307.00" xmlns="http://www.w3.org/2000/svg" xmlns:xlink="http://www.w3.org/1999/xlink">
<g id="graph0" class="graph" transform="scale(1 1) rotate(0) translate(4 303)">
<title>textual_flow_diagram</title>
<polygon fill="white" stroke="transparent" points="-4,4 -4,-303 532,-303 532,4 -4,4"/>
<g id="clust1" class="cluster">
<title>cluster_legend</title>
<polygon fill="none" stroke="black" points="8,-237 8,-291 172,-291 172,-237 8,-237"/>
</g>
<g id="clust2" class="cluster">
<title>cluster_plot</title>
</g>
<!-- label -->
<g id="node1" class="node">
<title>label</title>
<text text-anchor="middle" x="90" y="-267.8" font-family="Times,serif" font-size="14.00">adstag1.1.8U88, b</text>
<text text-anchor="middle" x="90" y="-252.8" font-family="Times,serif" font-size="14.00">Con = 5</text>
</g>
<!-- 8 -->
<g id="node2" class="node">
<title>8</title>
<ellipse fill="none" stroke="black" cx="244" cy="-190" rx="55.79" ry="18"/>
<text text-anchor="middle" x="244" y="-186.3" font-family="Times,serif" font-size="14.00">V2250 (b)</text>
</g>
<!-- 18 -->
<g id="node4" class="node">
<title>18</title>
<ellipse fill="none" stroke="black" cx="232" cy="-107" rx="43.59" ry="18"/>
<text text-anchor="middle" x="232" y="-103.3" font-family="Times,serif" font-size="14.00">Bas (b)</text>
</g>
<!-- 8&#45;&gt;18 -->
<g id="edge3" class="edge">
<title>8&#45;&gt;18</title>
<path fill="none" stroke="black" stroke-dasharray="5,2" d="M241.46,-171.82C239.88,-161.19 237.82,-147.31 236.03,-135.2"/>
<polygon fill="black" stroke="black" points="239.47,-134.53 234.54,-125.15 232.54,-135.56 239.47,-134.53"/>
<text text-anchor="middle" x="241.5" y="-146" font-family="Times,serif" font-size="10.00">5</text>
</g>
<!-- 13 -->
<g id="node3" class="node">
<title>13</title>
<ellipse fill="none" stroke="black" cx="367" cy="-190" rx="49.29" ry="18"/>
<text text-anchor="middle" x="367" y="-186.3" font-family="Times,serif" font-size="14.00">La22 (b)</text>
</g>
<!-- 23 -->
<g id="node6" class="node">
<title>23</title>
<ellipse fill="none" stroke="black" cx="344" cy="-107" rx="50.09" ry="18"/>
<text text-anchor="middle" x="344" y="-103.3" font-family="Times,serif" font-size="14.00">V565 (b)</text>
</g>
<!-- 13&#45;&gt;23 -->
<g id="edge5" class="edge">
<title>13&#45;&gt;23</title>
<path fill="none" stroke="black" stroke-dasharray="5,2" d="M362.12,-171.82C359.07,-161.08 355.08,-147.03 351.62,-134.84"/>
<polygon fill="black" stroke="black" points="354.97,-133.82 348.87,-125.15 348.24,-135.73 354.97,-133.82"/>
</g>
<!-- 25 -->
<g id="node7" class="node">
<title>25</title>
<ellipse fill="none" stroke="black" cx="462" cy="-107" rx="50.09" ry="18"/>
<text text-anchor="middle" x="462" y="-103.3" font-family="Times,serif" font-size="14.00">V560 (b)</text>
</g>
<!-- 13&#45;&gt;25 -->
<g id="edge6" class="edge">
<title>13&#45;&gt;25</title>
<path fill="none" stroke="black" stroke-width="2" d="M385.77,-173C399.95,-160.9 419.61,-144.14 435.41,-130.67"/>
<polygon fill="black" stroke="black" stroke-width="2" points="437.93,-133.12 443.27,-123.97 433.39,-127.79 437.93,-133.12"/>
<text text-anchor="middle" x="423.5" y="-146" font-family="Times,serif" font-size="10.00">3</text>
</g>
<!-- 19 -->
<g id="node5" class="node">
<title>19</title>
<ellipse fill="none" stroke="black" cx="456" cy="-34" rx="55.79" ry="18"/>
<text text-anchor="middle" x="456" y="-30.3" font-family="Times,serif" font-size="14.00">V1920 (b)</text>
</g>
<!-- 25&#45;&gt;19 -->
<g id="edge4" class="edge">
<title>25&#45;&gt;19</title>
<path fill="none" stroke="black" stroke-dasharray="5,2" d="M460.55,-88.81C459.87,-80.79 459.05,-71.05 458.29,-62.07"/>
<polygon fill="black" stroke="black" points="461.77,-61.7 457.44,-52.03 454.79,-62.29 461.77,-61.7"/>
</g>
<!-- 20 -->
<g id="node8" class="node">
<title>20</title>
<ellipse fill="none" stroke="blue" stroke-dasharray="5,2" cx="367" cy="-264" rx="44.39" ry="18"/>
<text text-anchor="middle" x="367" y="-260.3" font-family="Times,serif" font-size="14.00">A25 (a)</text>
</g>
<!-- 20&#45;&gt;13 -->
<g id="edge2" class="edge">
<title>20&#45;&gt;13</title>
<path fill="none" stroke="blue" stroke-dasharray="1,5" d="M367,-245.94C367,-237.81 367,-227.88 367,-218.7"/>
<polygon fill="blue" stroke="blue" points="370.5,-218.44 367,-208.44 363.5,-218.44 370.5,-218.44"/>
</g>
<!-- 27 -->
<g id="node9" class="node">
<title>27</title>
<ellipse fill="none" stroke="blue" stroke-dasharray="5,2" cx="244" cy="-264" rx="44.69" ry="18"/>
<text text-anchor="middle" x="244" y="-260.3" font-family="Times,serif" font-size="14.00">Nan (a)</text>
</g>
<!-- 27&#45;&gt;8 -->
<g id="edge1" class="edge">
<title>27&#45;&gt;8</title>
<path fill="none" stroke="blue" stroke-dasharray="5,2" d="M244,-245.94C244,-237.81 244,-227.88 244,-218.7"/>
<polygon fill="blue" stroke="blue" points="247.5,-218.44 244,-208.44 240.5,-218.44 247.5,-218.44"/>
</g>
</g>
</svg>
