<?xml version="1.0" encoding="UTF-8" standalone="no"?>
<!DOCTYPE svg PUBLIC "-//W3C//DTD SVG 1.1//EN"
 "http://www.w3.org/Graphics/SVG/1.1/DTD/svg11.dtd">
<!-- Generated by graphviz version 2.43.0 (0)
 -->
<!-- Title: textual_flow_diagram Pages: 1 -->
<svg width="2274pt" height="390pt"
 viewBox="0.00 0.00 2274.00 390.00" xmlns="http://www.w3.org/2000/svg" xmlns:xlink="http://www.w3.org/1999/xlink">
<g id="graph0" class="graph" transform="scale(1 1) rotate(0) translate(4 386)">
<title>textual_flow_diagram</title>
<polygon fill="white" stroke="transparent" points="-4,4 -4,-386 2270,-386 2270,4 -4,4"/>
<g id="clust1" class="cluster">
<title>cluster_legend</title>
<polygon fill="none" stroke="black" points="8,-320 8,-374 182,-374 182,-320 8,-320"/>
</g>
<g id="clust2" class="cluster">
<title>cluster_plot</title>
</g>
<!-- label -->
<g id="node1" class="node">
<title>label</title>
<text text-anchor="middle" x="95" y="-350.8" font-family="Times,serif" font-size="14.00">adstag1.2.40U66, a</text>
<text text-anchor="middle" x="95" y="-335.8" font-family="Times,serif" font-size="14.00">Con = 5</text>
</g>
<!-- 0 -->
<g id="node2" class="node">
<title>0</title>
<ellipse fill="none" stroke="black" cx="1261" cy="-190" rx="52.79" ry="18"/>
<text text-anchor="middle" x="1261" y="-186.3" font-family="Times,serif" font-size="14.00">M111 (a)</text>
</g>
<!-- 3 -->
<g id="node5" class="node">
<title>3</title>
<ellipse fill="none" stroke="black" cx="1262" cy="-117" rx="50.09" ry="18"/>
<text text-anchor="middle" x="1262" y="-113.3" font-family="Times,serif" font-size="14.00">A336 (a)</text>
</g>
<!-- 0&#45;&gt;3 -->
<g id="edge4" class="edge">
<title>0&#45;&gt;3</title>
<path fill="none" stroke="black" stroke-dasharray="5,2" d="M1261.24,-171.81C1261.36,-163.79 1261.49,-154.05 1261.62,-145.07"/>
<polygon fill="black" stroke="black" points="1265.12,-145.08 1261.76,-135.03 1258.12,-144.98 1265.12,-145.08"/>
</g>
<!-- 1 -->
<g id="node3" class="node">
<title>1</title>
<ellipse fill="none" stroke="black" cx="712" cy="-190" rx="50.09" ry="18"/>
<text text-anchor="middle" x="712" y="-186.3" font-family="Times,serif" font-size="14.00">Patm (a)</text>
</g>
<!-- 2 -->
<g id="node4" class="node">
<title>2</title>
<ellipse fill="none" stroke="black" cx="301" cy="-273" rx="50.09" ry="18"/>
<text text-anchor="middle" x="301" y="-269.3" font-family="Times,serif" font-size="14.00">V560 (a)</text>
</g>
<!-- 12 -->
<g id="node12" class="node">
<title>12</title>
<ellipse fill="none" stroke="black" cx="254" cy="-190" rx="55.79" ry="18"/>
<text text-anchor="middle" x="254" y="-186.3" font-family="Times,serif" font-size="14.00">V1920 (a)</text>
</g>
<!-- 2&#45;&gt;12 -->
<g id="edge10" class="edge">
<title>2&#45;&gt;12</title>
<path fill="none" stroke="black" stroke-dasharray="5,2" d="M291.26,-255.22C284.77,-244.03 276.12,-229.12 268.78,-216.48"/>
<polygon fill="black" stroke="black" points="271.77,-214.65 263.73,-207.76 265.72,-218.17 271.77,-214.65"/>
</g>
<!-- 4 -->
<g id="node6" class="node">
<title>4</title>
<ellipse fill="none" stroke="black" cx="1376" cy="-190" rx="44.39" ry="18"/>
<text text-anchor="middle" x="1376" y="-186.3" font-family="Times,serif" font-size="14.00">P74 (a)</text>
</g>
<!-- 5 -->
<g id="node7" class="node">
<title>5</title>
<ellipse fill="none" stroke="black" cx="369" cy="-190" rx="41.69" ry="18"/>
<text text-anchor="middle" x="369" y="-186.3" font-family="Times,serif" font-size="14.00">Est (a)</text>
</g>
<!-- 7 -->
<g id="node8" class="node">
<title>7</title>
<ellipse fill="none" stroke="black" cx="471" cy="-273" rx="55.79" ry="18"/>
<text text-anchor="middle" x="471" y="-269.3" font-family="Times,serif" font-size="14.00">V1897 (a)</text>
</g>
<!-- 7&#45;&gt;5 -->
<g id="edge6" class="edge">
<title>7&#45;&gt;5</title>
<path fill="none" stroke="black" stroke-dasharray="1,5" d="M450.85,-256C435.18,-243.56 413.29,-226.17 396.09,-212.52"/>
<polygon fill="black" stroke="black" points="398.08,-209.63 388.08,-206.15 393.73,-215.11 398.08,-209.63"/>
</g>
<!-- 42 -->
<g id="node33" class="node">
<title>42</title>
<ellipse fill="none" stroke="black" cx="471" cy="-190" rx="42.79" ry="18"/>
<text text-anchor="middle" x="471" y="-186.3" font-family="Times,serif" font-size="14.00">Bas (a)</text>
</g>
<!-- 7&#45;&gt;42 -->
<g id="edge31" class="edge">
<title>7&#45;&gt;42</title>
<path fill="none" stroke="black" d="M471,-254.82C471,-244.19 471,-230.31 471,-218.2"/>
<polygon fill="black" stroke="black" points="474.5,-218.15 471,-208.15 467.5,-218.15 474.5,-218.15"/>
</g>
<!-- 9 -->
<g id="node9" class="node">
<title>9</title>
<ellipse fill="none" stroke="black" cx="2206" cy="-190" rx="44.39" ry="18"/>
<text text-anchor="middle" x="2206" y="-186.3" font-family="Times,serif" font-size="14.00">B39 (a)</text>
</g>
<!-- 10 -->
<g id="node10" class="node">
<title>10</title>
<ellipse fill="none" stroke="black" cx="542" cy="-34" rx="52.79" ry="18"/>
<text text-anchor="middle" x="542" y="-30.3" font-family="Times,serif" font-size="14.00">M118 (a)</text>
</g>
<!-- 11 -->
<g id="node11" class="node">
<title>11</title>
<ellipse fill="none" stroke="black" cx="877" cy="-347" rx="53.89" ry="18"/>
<text text-anchor="middle" x="877" y="-343.3" font-family="Times,serif" font-size="14.00">aBase (a)</text>
</g>
<!-- 11&#45;&gt;2 -->
<g id="edge3" class="edge">
<title>11&#45;&gt;2</title>
<path fill="none" stroke="black" stroke-width="2" d="M826.03,-340.8C739.51,-331.79 558.48,-312.24 406,-291 389.41,-288.69 371.4,-285.88 355.06,-283.22"/>
<polygon fill="black" stroke="black" stroke-width="2" points="355.56,-279.76 345.13,-281.59 354.43,-286.67 355.56,-279.76"/>
</g>
<!-- 11&#45;&gt;7 -->
<g id="edge7" class="edge">
<title>11&#45;&gt;7</title>
<path fill="none" stroke="black" d="M830.43,-337.74C755.82,-324.51 609.7,-298.6 528.63,-284.22"/>
<polygon fill="black" stroke="black" points="529.05,-280.74 518.6,-282.44 527.83,-287.63 529.05,-280.74"/>
</g>
<!-- 16 -->
<g id="node14" class="node">
<title>16</title>
<ellipse fill="none" stroke="black" cx="655" cy="-273" rx="52.79" ry="18"/>
<text text-anchor="middle" x="655" y="-269.3" font-family="Times,serif" font-size="14.00">M136 (a)</text>
</g>
<!-- 11&#45;&gt;16 -->
<g id="edge12" class="edge">
<title>11&#45;&gt;16</title>
<path fill="none" stroke="black" stroke-width="2" d="M839.84,-333.95C801.79,-321.61 742.55,-302.39 701.43,-289.06"/>
<polygon fill="black" stroke="black" stroke-width="2" points="702.5,-285.73 691.91,-285.97 700.34,-292.38 702.5,-285.73"/>
</g>
<!-- 19 -->
<g id="node16" class="node">
<title>19</title>
<ellipse fill="none" stroke="black" cx="825" cy="-273" rx="42.79" ry="18"/>
<text text-anchor="middle" x="825" y="-269.3" font-family="Times,serif" font-size="14.00">La2 (a)</text>
</g>
<!-- 11&#45;&gt;19 -->
<g id="edge14" class="edge">
<title>11&#45;&gt;19</title>
<path fill="none" stroke="black" stroke-width="2" d="M864.94,-329.3C858.44,-320.3 850.3,-309.02 843.06,-299"/>
<polygon fill="black" stroke="black" stroke-width="2" points="845.69,-296.67 837,-290.61 840.01,-300.76 845.69,-296.67"/>
</g>
<!-- 22 -->
<g id="node18" class="node">
<title>22</title>
<ellipse fill="none" stroke="black" cx="930" cy="-273" rx="44.39" ry="18"/>
<text text-anchor="middle" x="930" y="-269.3" font-family="Times,serif" font-size="14.00">A25 (a)</text>
</g>
<!-- 11&#45;&gt;22 -->
<g id="edge16" class="edge">
<title>11&#45;&gt;22</title>
<path fill="none" stroke="black" stroke-dasharray="5,2" d="M889.29,-329.3C895.98,-320.21 904.39,-308.8 911.82,-298.7"/>
<polygon fill="black" stroke="black" points="914.66,-300.74 917.77,-290.61 909.03,-296.59 914.66,-300.74"/>
</g>
<!-- 26 -->
<g id="node21" class="node">
<title>26</title>
<ellipse fill="none" stroke="black" cx="1563" cy="-273" rx="48.99" ry="18"/>
<text text-anchor="middle" x="1563" y="-269.3" font-family="Times,serif" font-size="14.00">La22 (a)</text>
</g>
<!-- 11&#45;&gt;26 -->
<g id="edge19" class="edge">
<title>11&#45;&gt;26</title>
<path fill="none" stroke="black" stroke-dasharray="5,2" d="M927.72,-340.68C1052.82,-327.55 1375.4,-293.69 1506.42,-279.94"/>
<polygon fill="black" stroke="black" points="1507.06,-283.39 1516.64,-278.87 1506.33,-276.43 1507.06,-283.39"/>
</g>
<!-- 36 -->
<g id="node28" class="node">
<title>36</title>
<ellipse fill="none" stroke="black" cx="1695" cy="-273" rx="44.69" ry="18"/>
<text text-anchor="middle" x="1695" y="-269.3" font-family="Times,serif" font-size="14.00">Nan (a)</text>
</g>
<!-- 11&#45;&gt;36 -->
<g id="edge26" class="edge">
<title>11&#45;&gt;36</title>
<path fill="none" stroke="black" d="M931,-344.82C1054.06,-341.51 1364.54,-329.71 1621,-291 1629.9,-289.66 1639.32,-287.82 1648.35,-285.85"/>
<polygon fill="black" stroke="black" points="1649.35,-289.21 1658.32,-283.59 1647.8,-282.38 1649.35,-289.21"/>
</g>
<!-- 39 -->
<g id="node30" class="node">
<title>39</title>
<ellipse fill="none" stroke="black" cx="2038" cy="-273" rx="52.79" ry="18"/>
<text text-anchor="middle" x="2038" y="-269.3" font-family="Times,serif" font-size="14.00">LaSM (a)</text>
</g>
<!-- 11&#45;&gt;39 -->
<g id="edge28" class="edge">
<title>11&#45;&gt;39</title>
<path fill="none" stroke="black" d="M929.78,-342.97C1035.15,-336.9 1279.07,-322.74 1484,-310 1663.03,-298.87 1874.55,-284.9 1976.7,-278.1"/>
<polygon fill="black" stroke="black" points="1977.09,-281.58 1986.83,-277.42 1976.62,-274.59 1977.09,-281.58"/>
</g>
<!-- 15 -->
<g id="node13" class="node">
<title>15</title>
<ellipse fill="none" stroke="black" cx="1494" cy="-190" rx="55.79" ry="18"/>
<text text-anchor="middle" x="1494" y="-186.3" font-family="Times,serif" font-size="14.00">V2036 (a)</text>
</g>
<!-- 23 -->
<g id="node19" class="node">
<title>23</title>
<ellipse fill="none" stroke="black" cx="588" cy="-190" rx="55.79" ry="18"/>
<text text-anchor="middle" x="588" y="-186.3" font-family="Times,serif" font-size="14.00">V1629 (a)</text>
</g>
<!-- 16&#45;&gt;23 -->
<g id="edge17" class="edge">
<title>16&#45;&gt;23</title>
<path fill="none" stroke="black" stroke-dasharray="5,2" d="M641.12,-255.22C631.62,-243.74 618.88,-228.33 608.26,-215.49"/>
<polygon fill="black" stroke="black" points="610.71,-212.96 601.64,-207.48 605.31,-217.42 610.71,-212.96"/>
<text text-anchor="middle" x="628.5" y="-229" font-family="Times,serif" font-size="10.00">2</text>
</g>
<!-- 18 -->
<g id="node15" class="node">
<title>18</title>
<ellipse fill="none" stroke="black" cx="1618" cy="-190" rx="50.09" ry="18"/>
<text text-anchor="middle" x="1618" y="-186.3" font-family="Times,serif" font-size="14.00">V565 (a)</text>
</g>
<!-- 21 -->
<g id="node17" class="node">
<title>21</title>
<ellipse fill="none" stroke="black" cx="824" cy="-190" rx="44.39" ry="18"/>
<text text-anchor="middle" x="824" y="-186.3" font-family="Times,serif" font-size="14.00">P01 (a)</text>
</g>
<!-- 22&#45;&gt;1 -->
<g id="edge2" class="edge">
<title>22&#45;&gt;1</title>
<path fill="none" stroke="black" stroke-dasharray="1,5" d="M898.3,-260.22C860.5,-246.18 797.16,-222.64 754.98,-206.97"/>
<polygon fill="black" stroke="black" points="756.12,-203.66 745.53,-203.46 753.68,-210.22 756.12,-203.66"/>
</g>
<!-- 22&#45;&gt;21 -->
<g id="edge15" class="edge">
<title>22&#45;&gt;21</title>
<path fill="none" stroke="black" stroke-dasharray="5,2" d="M910.06,-256.76C893.63,-244.21 870.13,-226.25 851.84,-212.28"/>
<polygon fill="black" stroke="black" points="853.92,-209.46 843.85,-206.17 849.67,-215.02 853.92,-209.46"/>
</g>
<!-- 28 -->
<g id="node23" class="node">
<title>28</title>
<ellipse fill="none" stroke="black" cx="930" cy="-190" rx="44.39" ry="18"/>
<text text-anchor="middle" x="930" y="-186.3" font-family="Times,serif" font-size="14.00">S32 (a)</text>
</g>
<!-- 22&#45;&gt;28 -->
<g id="edge21" class="edge">
<title>22&#45;&gt;28</title>
<path fill="none" stroke="black" stroke-dasharray="5,2" d="M930,-254.82C930,-244.19 930,-230.31 930,-218.2"/>
<polygon fill="black" stroke="black" points="933.5,-218.15 930,-208.15 926.5,-218.15 933.5,-218.15"/>
</g>
<!-- 32 -->
<g id="node26" class="node">
<title>32</title>
<ellipse fill="none" stroke="black" cx="1032" cy="-190" rx="40.09" ry="18"/>
<text text-anchor="middle" x="1032" y="-186.3" font-family="Times,serif" font-size="14.00">Pal (a)</text>
</g>
<!-- 22&#45;&gt;32 -->
<g id="edge24" class="edge">
<title>22&#45;&gt;32</title>
<path fill="none" stroke="black" stroke-dasharray="5,2" d="M949.19,-256.76C964.86,-244.32 987.2,-226.58 1004.73,-212.65"/>
<polygon fill="black" stroke="black" points="1007.25,-215.13 1012.9,-206.17 1002.89,-209.65 1007.25,-215.13"/>
</g>
<!-- 37 -->
<g id="node29" class="node">
<title>37</title>
<ellipse fill="none" stroke="black" cx="1140" cy="-190" rx="50.09" ry="18"/>
<text text-anchor="middle" x="1140" y="-186.3" font-family="Times,serif" font-size="14.00">V566 (a)</text>
</g>
<!-- 22&#45;&gt;37 -->
<g id="edge27" class="edge">
<title>22&#45;&gt;37</title>
<path fill="none" stroke="black" stroke-dasharray="5,2" d="M960.99,-260.05C997.14,-246.1 1057.11,-222.97 1097.57,-207.37"/>
<polygon fill="black" stroke="black" points="1099.08,-210.53 1107.16,-203.67 1096.57,-204 1099.08,-210.53"/>
</g>
<!-- 33 -->
<g id="node27" class="node">
<title>33</title>
<ellipse fill="none" stroke="black" cx="542" cy="-117" rx="50.09" ry="18"/>
<text text-anchor="middle" x="542" y="-113.3" font-family="Times,serif" font-size="14.00">V568 (a)</text>
</g>
<!-- 23&#45;&gt;33 -->
<g id="edge25" class="edge">
<title>23&#45;&gt;33</title>
<path fill="none" stroke="black" stroke-dasharray="5,2" d="M577.1,-172.17C571.48,-163.51 564.53,-152.77 558.29,-143.14"/>
<polygon fill="black" stroke="black" points="561.2,-141.19 552.82,-134.71 555.32,-145 561.2,-141.19"/>
</g>
<!-- 40 -->
<g id="node31" class="node">
<title>40</title>
<ellipse fill="none" stroke="black" cx="660" cy="-117" rx="50.09" ry="18"/>
<text text-anchor="middle" x="660" y="-113.3" font-family="Times,serif" font-size="14.00">V536 (a)</text>
</g>
<!-- 23&#45;&gt;40 -->
<g id="edge29" class="edge">
<title>23&#45;&gt;40</title>
<path fill="none" stroke="black" stroke-dasharray="5,2" d="M604.7,-172.53C614.06,-163.3 625.89,-151.64 636.21,-141.46"/>
<polygon fill="black" stroke="black" points="638.73,-143.89 643.39,-134.38 633.81,-138.91 638.73,-143.89"/>
</g>
<!-- 25 -->
<g id="node20" class="node">
<title>25</title>
<ellipse fill="none" stroke="black" cx="1736" cy="-190" rx="50.09" ry="18"/>
<text text-anchor="middle" x="1736" y="-186.3" font-family="Times,serif" font-size="14.00">V571 (a)</text>
</g>
<!-- 26&#45;&gt;0 -->
<g id="edge1" class="edge">
<title>26&#45;&gt;0</title>
<path fill="none" stroke="black" stroke-dasharray="1,5" d="M1524.32,-261.77C1476.87,-249.21 1393.97,-227.19 1323,-208 1318.94,-206.9 1314.73,-205.76 1310.51,-204.61"/>
<polygon fill="black" stroke="black" points="1311.25,-201.18 1300.68,-201.92 1309.4,-207.93 1311.25,-201.18"/>
</g>
<!-- 26&#45;&gt;4 -->
<g id="edge5" class="edge">
<title>26&#45;&gt;4</title>
<path fill="none" stroke="black" stroke-dasharray="1,5" d="M1532.54,-258.81C1500.38,-244.87 1449.58,-222.87 1414.63,-207.73"/>
<polygon fill="black" stroke="black" points="1415.78,-204.42 1405.22,-203.65 1413,-210.84 1415.78,-204.42"/>
</g>
<!-- 26&#45;&gt;15 -->
<g id="edge11" class="edge">
<title>26&#45;&gt;15</title>
<path fill="none" stroke="black" stroke-dasharray="5,2" d="M1549.04,-255.61C1539.19,-244.05 1525.83,-228.37 1514.74,-215.35"/>
<polygon fill="black" stroke="black" points="1517.33,-212.99 1508.18,-207.65 1512,-217.53 1517.33,-212.99"/>
</g>
<!-- 26&#45;&gt;18 -->
<g id="edge13" class="edge">
<title>26&#45;&gt;18</title>
<path fill="none" stroke="black" stroke-dasharray="5,2" d="M1574.4,-255.22C1582.07,-243.92 1592.32,-228.83 1600.95,-216.11"/>
<polygon fill="black" stroke="black" points="1603.9,-218 1606.62,-207.76 1598.11,-214.07 1603.9,-218"/>
</g>
<!-- 26&#45;&gt;25 -->
<g id="edge18" class="edge">
<title>26&#45;&gt;25</title>
<path fill="none" stroke="black" stroke-dasharray="1,5" d="M1591.96,-258.44C1620.81,-244.93 1665.3,-224.1 1697.2,-209.17"/>
<polygon fill="black" stroke="black" points="1699.09,-212.15 1706.66,-204.74 1696.12,-205.81 1699.09,-212.15"/>
</g>
<!-- 27 -->
<g id="node22" class="node">
<title>27</title>
<ellipse fill="none" stroke="black" cx="1853" cy="-190" rx="48.99" ry="18"/>
<text text-anchor="middle" x="1853" y="-186.3" font-family="Times,serif" font-size="14.00">La35 (a)</text>
</g>
<!-- 26&#45;&gt;27 -->
<g id="edge20" class="edge">
<title>26&#45;&gt;27</title>
<path fill="none" stroke="black" stroke-dasharray="1,5" d="M1596.57,-259.79C1624.92,-249.78 1666.75,-235.72 1704,-226 1743.89,-215.59 1754.96,-217.81 1795,-208 1798.9,-207.04 1802.93,-205.99 1806.97,-204.9"/>
<polygon fill="black" stroke="black" points="1808.25,-208.18 1816.94,-202.11 1806.36,-201.43 1808.25,-208.18"/>
</g>
<!-- 41 -->
<g id="node32" class="node">
<title>41</title>
<ellipse fill="none" stroke="black" cx="1967" cy="-190" rx="46.59" ry="18"/>
<text text-anchor="middle" x="1967" y="-186.3" font-family="Times,serif" font-size="14.00">Bodl (a)</text>
</g>
<!-- 26&#45;&gt;41 -->
<g id="edge30" class="edge">
<title>26&#45;&gt;41</title>
<path fill="none" stroke="black" stroke-dasharray="5,2" d="M1603.42,-262.85C1615.48,-260.21 1628.76,-257.4 1641,-255 1760.53,-231.58 1792.5,-236.19 1911,-208 1914.84,-207.09 1918.8,-206.06 1922.76,-204.97"/>
<polygon fill="black" stroke="black" points="1923.87,-208.3 1932.53,-202.19 1921.95,-201.57 1923.87,-208.3"/>
</g>
<!-- 30 -->
<g id="node24" class="node">
<title>30</title>
<ellipse fill="none" stroke="black" cx="2088" cy="-190" rx="55.79" ry="18"/>
<text text-anchor="middle" x="2088" y="-186.3" font-family="Times,serif" font-size="14.00">V2250 (a)</text>
</g>
<!-- 31 -->
<g id="node25" class="node">
<title>31</title>
<ellipse fill="none" stroke="black" cx="1138" cy="-117" rx="55.79" ry="18"/>
<text text-anchor="middle" x="1138" y="-113.3" font-family="Times,serif" font-size="14.00">V1639 (a)</text>
</g>
<!-- 33&#45;&gt;10 -->
<g id="edge9" class="edge">
<title>33&#45;&gt;10</title>
<path fill="none" stroke="black" stroke-dasharray="5,2" d="M542,-98.82C542,-88.19 542,-74.31 542,-62.2"/>
<polygon fill="black" stroke="black" points="545.5,-62.15 542,-52.15 538.5,-62.15 545.5,-62.15"/>
<text text-anchor="middle" x="545.5" y="-73" font-family="Times,serif" font-size="10.00">2</text>
</g>
<!-- 36&#45;&gt;30 -->
<g id="edge22" class="edge">
<title>36&#45;&gt;30</title>
<path fill="none" stroke="black" stroke-dasharray="5,2" d="M1735.31,-264.98C1797.36,-253.98 1919.91,-231.51 2023,-208 2027.59,-206.95 2032.35,-205.81 2037.11,-204.64"/>
<polygon fill="black" stroke="black" points="2037.99,-208.02 2046.83,-202.19 2036.28,-201.24 2037.99,-208.02"/>
</g>
<!-- 37&#45;&gt;31 -->
<g id="edge23" class="edge">
<title>37&#45;&gt;31</title>
<path fill="none" stroke="black" stroke-dasharray="1,5" d="M1139.52,-171.81C1139.29,-163.79 1139.02,-154.05 1138.76,-145.07"/>
<polygon fill="black" stroke="black" points="1142.26,-144.93 1138.48,-135.03 1135.26,-145.12 1142.26,-144.93"/>
</g>
<!-- 39&#45;&gt;9 -->
<g id="edge8" class="edge">
<title>39&#45;&gt;9</title>
<path fill="none" stroke="black" stroke-dasharray="5,2" d="M2067.26,-257.89C2095.63,-244.21 2138.76,-223.42 2169.39,-208.65"/>
<polygon fill="black" stroke="black" points="2170.98,-211.77 2178.46,-204.28 2167.94,-205.47 2170.98,-211.77"/>
</g>
</g>
</svg>
