<?xml version="1.0" encoding="UTF-8" standalone="no"?>
<!DOCTYPE svg PUBLIC "-//W3C//DTD SVG 1.1//EN"
 "http://www.w3.org/Graphics/SVG/1.1/DTD/svg11.dtd">
<!-- Generated by graphviz version 2.43.0 (0)
 -->
<!-- Title: textual_flow_diagram Pages: 1 -->
<svg width="352pt" height="234pt"
 viewBox="0.00 0.00 352.00 234.00" xmlns="http://www.w3.org/2000/svg" xmlns:xlink="http://www.w3.org/1999/xlink">
<g id="graph0" class="graph" transform="scale(1 1) rotate(0) translate(4 230)">
<title>textual_flow_diagram</title>
<polygon fill="white" stroke="transparent" points="-4,4 -4,-230 348,-230 348,4 -4,4"/>
<g id="clust1" class="cluster">
<title>cluster_legend</title>
<polygon fill="none" stroke="black" points="8,-164 8,-218 204,-218 204,-164 8,-164"/>
</g>
<g id="clust2" class="cluster">
<title>cluster_plot</title>
</g>
<!-- label -->
<g id="node1" class="node">
<title>label</title>
<text text-anchor="middle" x="106" y="-194.8" font-family="Times,serif" font-size="14.00">adstag1.3.33U38&#45;40, a</text>
<text text-anchor="middle" x="106" y="-179.8" font-family="Times,serif" font-size="14.00">Con = 3</text>
</g>
<!-- 6 -->
<g id="node2" class="node">
<title>6</title>
<ellipse fill="none" stroke="black" cx="274" cy="-34" rx="42.79" ry="18"/>
<text text-anchor="middle" x="274" y="-30.3" font-family="Times,serif" font-size="14.00">Bas (a)</text>
</g>
<!-- 17 -->
<g id="node3" class="node">
<title>17</title>
<ellipse fill="none" stroke="black" cx="274" cy="-117" rx="44.69" ry="18"/>
<text text-anchor="middle" x="274" y="-113.3" font-family="Times,serif" font-size="14.00">Nan (a)</text>
</g>
<!-- 17&#45;&gt;6 -->
<g id="edge1" class="edge">
<title>17&#45;&gt;6</title>
<path fill="none" stroke="black" d="M274,-98.82C274,-88.19 274,-74.31 274,-62.2"/>
<polygon fill="black" stroke="black" points="277.5,-62.15 274,-52.15 270.5,-62.15 277.5,-62.15"/>
<text text-anchor="middle" x="277.5" y="-73" font-family="Times,serif" font-size="10.00">2</text>
</g>
<!-- 37 -->
<g id="node4" class="node">
<title>37</title>
<ellipse fill="none" stroke="black" cx="274" cy="-191" rx="53.89" ry="18"/>
<text text-anchor="middle" x="274" y="-187.3" font-family="Times,serif" font-size="14.00">aBase (a)</text>
</g>
<!-- 37&#45;&gt;17 -->
<g id="edge2" class="edge">
<title>37&#45;&gt;17</title>
<path fill="none" stroke="black" d="M274,-172.94C274,-164.81 274,-154.88 274,-145.7"/>
<polygon fill="black" stroke="black" points="277.5,-145.44 274,-135.44 270.5,-145.44 277.5,-145.44"/>
</g>
</g>
</svg>
