<?xml version="1.0" encoding="UTF-8" standalone="no"?>
<!DOCTYPE svg PUBLIC "-//W3C//DTD SVG 1.1//EN"
 "http://www.w3.org/Graphics/SVG/1.1/DTD/svg11.dtd">
<!-- Generated by graphviz version 2.43.0 (0)
 -->
<!-- Title: textual_flow_diagram Pages: 1 -->
<svg width="543pt" height="222pt"
 viewBox="0.00 0.00 543.00 222.00" xmlns="http://www.w3.org/2000/svg" xmlns:xlink="http://www.w3.org/1999/xlink">
<g id="graph0" class="graph" transform="scale(1 1) rotate(0) translate(4 218)">
<title>textual_flow_diagram</title>
<polygon fill="white" stroke="transparent" points="-4,4 -4,-218 539,-218 539,4 -4,4"/>
<g id="clust1" class="cluster">
<title>cluster_legend</title>
<polygon fill="none" stroke="black" points="8,-152 8,-206 172,-206 172,-152 8,-152"/>
</g>
<g id="clust2" class="cluster">
<title>cluster_plot</title>
</g>
<!-- label -->
<g id="node1" class="node">
<title>label</title>
<text text-anchor="middle" x="90" y="-182.8" font-family="Times,serif" font-size="14.00">adstag1.3.1U20, b</text>
<text text-anchor="middle" x="90" y="-167.8" font-family="Times,serif" font-size="14.00">Con = 5</text>
</g>
<!-- 6 -->
<g id="node2" class="node">
<title>6</title>
<ellipse fill="none" stroke="black" cx="365" cy="-106" rx="47.39" ry="18"/>
<text text-anchor="middle" x="365" y="-102.3" font-family="Times,serif" font-size="14.00">Taur (b)</text>
</g>
<!-- 29 -->
<g id="node4" class="node">
<title>29</title>
<ellipse fill="none" stroke="black" cx="365" cy="-34" rx="50.09" ry="18"/>
<text text-anchor="middle" x="365" y="-30.3" font-family="Times,serif" font-size="14.00">V569 (b)</text>
</g>
<!-- 6&#45;&gt;29 -->
<g id="edge3" class="edge">
<title>6&#45;&gt;29</title>
<path fill="none" stroke="black" stroke-dasharray="5,2" d="M365,-87.7C365,-79.98 365,-70.71 365,-62.11"/>
<polygon fill="black" stroke="black" points="368.5,-62.1 365,-52.1 361.5,-62.1 368.5,-62.1"/>
</g>
<!-- 28 -->
<g id="node3" class="node">
<title>28</title>
<ellipse fill="none" stroke="black" cx="475" cy="-106" rx="44.39" ry="18"/>
<text text-anchor="middle" x="475" y="-102.3" font-family="Times,serif" font-size="14.00">S32 (b)</text>
</g>
<!-- 31 -->
<g id="node5" class="node">
<title>31</title>
<ellipse fill="none" stroke="black" cx="244" cy="-106" rx="55.79" ry="18"/>
<text text-anchor="middle" x="244" y="-102.3" font-family="Times,serif" font-size="14.00">V1639 (b)</text>
</g>
<!-- 22 -->
<g id="node6" class="node">
<title>22</title>
<ellipse fill="none" stroke="blue" stroke-dasharray="5,2" cx="475" cy="-179" rx="44.39" ry="18"/>
<text text-anchor="middle" x="475" y="-175.3" font-family="Times,serif" font-size="14.00">A25 (a)</text>
</g>
<!-- 22&#45;&gt;28 -->
<g id="edge2" class="edge">
<title>22&#45;&gt;28</title>
<path fill="none" stroke="blue" stroke-dasharray="5,2" d="M475,-160.81C475,-152.79 475,-143.05 475,-134.07"/>
<polygon fill="blue" stroke="blue" points="478.5,-134.03 475,-124.03 471.5,-134.03 478.5,-134.03"/>
</g>
<!-- 33 -->
<g id="node7" class="node">
<title>33</title>
<ellipse fill="none" stroke="blue" stroke-dasharray="5,2" cx="363" cy="-179" rx="50.09" ry="18"/>
<text text-anchor="middle" x="363" y="-175.3" font-family="Times,serif" font-size="14.00">V568 (a)</text>
</g>
<!-- 33&#45;&gt;6 -->
<g id="edge1" class="edge">
<title>33&#45;&gt;6</title>
<path fill="none" stroke="blue" stroke-dasharray="1,5" d="M363.48,-160.81C363.71,-152.79 363.98,-143.05 364.24,-134.07"/>
<polygon fill="blue" stroke="blue" points="367.74,-134.12 364.52,-124.03 360.74,-133.93 367.74,-134.12"/>
</g>
<!-- 37 -->
<g id="node8" class="node">
<title>37</title>
<ellipse fill="none" stroke="blue" stroke-dasharray="5,2" cx="244" cy="-179" rx="50.09" ry="18"/>
<text text-anchor="middle" x="244" y="-175.3" font-family="Times,serif" font-size="14.00">V566 (a)</text>
</g>
<!-- 37&#45;&gt;31 -->
<g id="edge4" class="edge">
<title>37&#45;&gt;31</title>
<path fill="none" stroke="blue" stroke-dasharray="1,5" d="M244,-160.81C244,-152.79 244,-143.05 244,-134.07"/>
<polygon fill="blue" stroke="blue" points="247.5,-134.03 244,-124.03 240.5,-134.03 247.5,-134.03"/>
</g>
</g>
</svg>
