<?xml version="1.0" encoding="UTF-8" standalone="no"?>
<!DOCTYPE svg PUBLIC "-//W3C//DTD SVG 1.1//EN"
 "http://www.w3.org/Graphics/SVG/1.1/DTD/svg11.dtd">
<!-- Generated by graphviz version 2.43.0 (0)
 -->
<!-- Title: textual_flow_diagram Pages: 1 -->
<svg width="1288pt" height="510pt"
 viewBox="0.00 0.00 1288.00 510.00" xmlns="http://www.w3.org/2000/svg" xmlns:xlink="http://www.w3.org/1999/xlink">
<g id="graph0" class="graph" transform="scale(1 1) rotate(0) translate(4 506)">
<title>textual_flow_diagram</title>
<polygon fill="white" stroke="transparent" points="-4,4 -4,-506 1284,-506 1284,4 -4,4"/>
<g id="clust1" class="cluster">
<title>cluster_legend</title>
<polygon fill="none" stroke="black" points="8,-440 8,-494 204,-494 204,-440 8,-440"/>
</g>
<g id="clust2" class="cluster">
<title>cluster_plot</title>
</g>
<!-- label -->
<g id="node1" class="node">
<title>label</title>
<text text-anchor="middle" x="106" y="-470.8" font-family="Times,serif" font-size="14.00">adstag1.3.28U24&#45;28, a</text>
<text text-anchor="middle" x="106" y="-455.8" font-family="Times,serif" font-size="14.00">Con = 3</text>
</g>
<!-- 1 -->
<g id="node2" class="node">
<title>1</title>
<ellipse fill="none" stroke="black" cx="524" cy="-322" rx="44.39" ry="18"/>
<text text-anchor="middle" x="524" y="-318.3" font-family="Times,serif" font-size="14.00">S32 (a)</text>
</g>
<!-- 4 -->
<g id="node3" class="node">
<title>4</title>
<ellipse fill="none" stroke="black" cx="626" cy="-322" rx="40.09" ry="18"/>
<text text-anchor="middle" x="626" y="-318.3" font-family="Times,serif" font-size="14.00">Pal (a)</text>
</g>
<!-- 5 -->
<g id="node4" class="node">
<title>5</title>
<ellipse fill="none" stroke="black" cx="728" cy="-322" rx="44.39" ry="18"/>
<text text-anchor="middle" x="728" y="-318.3" font-family="Times,serif" font-size="14.00">P01 (a)</text>
</g>
<!-- 6 -->
<g id="node5" class="node">
<title>6</title>
<ellipse fill="none" stroke="black" cx="840" cy="-250" rx="55.79" ry="18"/>
<text text-anchor="middle" x="840" y="-246.3" font-family="Times,serif" font-size="14.00">V1639 (a)</text>
</g>
<!-- 7 -->
<g id="node6" class="node">
<title>7</title>
<ellipse fill="none" stroke="black" cx="276" cy="-322" rx="55.79" ry="18"/>
<text text-anchor="middle" x="276" y="-318.3" font-family="Times,serif" font-size="14.00">V1897 (a)</text>
</g>
<!-- 12 -->
<g id="node9" class="node">
<title>12</title>
<ellipse fill="none" stroke="black" cx="276" cy="-250" rx="42.79" ry="18"/>
<text text-anchor="middle" x="276" y="-246.3" font-family="Times,serif" font-size="14.00">Bas (a)</text>
</g>
<!-- 7&#45;&gt;12 -->
<g id="edge8" class="edge">
<title>7&#45;&gt;12</title>
<path fill="none" stroke="black" d="M276,-303.7C276,-295.98 276,-286.71 276,-278.11"/>
<polygon fill="black" stroke="black" points="279.5,-278.1 276,-268.1 272.5,-278.1 279.5,-278.1"/>
</g>
<!-- 8 -->
<g id="node7" class="node">
<title>8</title>
<ellipse fill="none" stroke="black" cx="1200" cy="-322" rx="55.79" ry="18"/>
<text text-anchor="middle" x="1200" y="-318.3" font-family="Times,serif" font-size="14.00">V1629 (a)</text>
</g>
<!-- 40 -->
<g id="node26" class="node">
<title>40</title>
<ellipse fill="none" stroke="black" cx="1200" cy="-250" rx="50.09" ry="18"/>
<text text-anchor="middle" x="1200" y="-246.3" font-family="Times,serif" font-size="14.00">V536 (a)</text>
</g>
<!-- 8&#45;&gt;40 -->
<g id="edge24" class="edge">
<title>8&#45;&gt;40</title>
<path fill="none" stroke="black" stroke-dasharray="5,2" d="M1200,-303.7C1200,-295.98 1200,-286.71 1200,-278.11"/>
<polygon fill="black" stroke="black" points="1203.5,-278.1 1200,-268.1 1196.5,-278.1 1203.5,-278.1"/>
</g>
<!-- 11 -->
<g id="node8" class="node">
<title>11</title>
<ellipse fill="none" stroke="black" cx="265" cy="-394" rx="44.69" ry="18"/>
<text text-anchor="middle" x="265" y="-390.3" font-family="Times,serif" font-size="14.00">Nan (a)</text>
</g>
<!-- 11&#45;&gt;7 -->
<g id="edge5" class="edge">
<title>11&#45;&gt;7</title>
<path fill="none" stroke="black" stroke-dasharray="1,5" d="M267.72,-375.7C268.93,-367.98 270.39,-358.71 271.74,-350.11"/>
<polygon fill="black" stroke="black" points="275.22,-350.53 273.31,-340.1 268.3,-349.44 275.22,-350.53"/>
</g>
<!-- 32 -->
<g id="node21" class="node">
<title>32</title>
<ellipse fill="none" stroke="black" cx="406" cy="-322" rx="55.79" ry="18"/>
<text text-anchor="middle" x="406" y="-318.3" font-family="Times,serif" font-size="14.00">V2250 (a)</text>
</g>
<!-- 11&#45;&gt;32 -->
<g id="edge19" class="edge">
<title>11&#45;&gt;32</title>
<path fill="none" stroke="black" stroke-dasharray="5,2" d="M292.19,-379.5C313.66,-368.84 343.9,-353.83 367.8,-341.96"/>
<polygon fill="black" stroke="black" points="369.56,-345 376.96,-337.42 366.44,-338.73 369.56,-345"/>
</g>
<!-- 14 -->
<g id="node10" class="node">
<title>14</title>
<ellipse fill="none" stroke="black" cx="723" cy="-467" rx="53.89" ry="18"/>
<text text-anchor="middle" x="723" y="-463.3" font-family="Times,serif" font-size="14.00">aBase (a)</text>
</g>
<!-- 14&#45;&gt;11 -->
<g id="edge7" class="edge">
<title>14&#45;&gt;11</title>
<path fill="none" stroke="black" d="M671.16,-461.95C593.8,-455.25 443.85,-439.78 319,-412 315.33,-411.18 311.55,-410.23 307.78,-409.2"/>
<polygon fill="black" stroke="black" points="308.46,-405.76 297.88,-406.34 306.52,-412.48 308.46,-405.76"/>
</g>
<!-- 17 -->
<g id="node12" class="node">
<title>17</title>
<ellipse fill="none" stroke="black" cx="372" cy="-394" rx="44.39" ry="18"/>
<text text-anchor="middle" x="372" y="-390.3" font-family="Times,serif" font-size="14.00">A25 (a)</text>
</g>
<!-- 14&#45;&gt;17 -->
<g id="edge10" class="edge">
<title>14&#45;&gt;17</title>
<path fill="none" stroke="black" stroke-dasharray="5,2" d="M674.33,-459.19C614.98,-450.42 511.85,-433.7 425,-412 421.57,-411.14 418.03,-410.18 414.5,-409.17"/>
<polygon fill="black" stroke="black" points="415.19,-405.72 404.6,-406.2 413.17,-412.42 415.19,-405.72"/>
</g>
<!-- 24 -->
<g id="node15" class="node">
<title>24</title>
<ellipse fill="none" stroke="black" cx="484" cy="-394" rx="50.09" ry="18"/>
<text text-anchor="middle" x="484" y="-390.3" font-family="Times,serif" font-size="14.00">Patm (a)</text>
</g>
<!-- 14&#45;&gt;24 -->
<g id="edge13" class="edge">
<title>14&#45;&gt;24</title>
<path fill="none" stroke="black" d="M684.07,-454.43C642.26,-442.01 575.82,-422.28 531.09,-408.99"/>
<polygon fill="black" stroke="black" points="531.92,-405.59 521.34,-406.09 529.93,-412.3 531.92,-405.59"/>
</g>
<!-- 27 -->
<g id="node17" class="node">
<title>27</title>
<ellipse fill="none" stroke="black" cx="602" cy="-394" rx="50.09" ry="18"/>
<text text-anchor="middle" x="602" y="-390.3" font-family="Times,serif" font-size="14.00">V560 (a)</text>
</g>
<!-- 14&#45;&gt;27 -->
<g id="edge15" class="edge">
<title>14&#45;&gt;27</title>
<path fill="none" stroke="black" stroke-width="2" d="M697.34,-450.94C679.49,-440.47 655.51,-426.4 636.06,-414.99"/>
<polygon fill="black" stroke="black" stroke-width="2" points="637.61,-411.83 627.21,-409.79 634.06,-417.87 637.61,-411.83"/>
</g>
<!-- 30 -->
<g id="node19" class="node">
<title>30</title>
<ellipse fill="none" stroke="black" cx="723" cy="-394" rx="52.79" ry="18"/>
<text text-anchor="middle" x="723" y="-390.3" font-family="Times,serif" font-size="14.00">LaSM (a)</text>
</g>
<!-- 14&#45;&gt;30 -->
<g id="edge17" class="edge">
<title>14&#45;&gt;30</title>
<path fill="none" stroke="black" d="M723,-448.81C723,-440.79 723,-431.05 723,-422.07"/>
<polygon fill="black" stroke="black" points="726.5,-422.03 723,-412.03 719.5,-422.03 726.5,-422.03"/>
</g>
<!-- 31 -->
<g id="node20" class="node">
<title>31</title>
<ellipse fill="none" stroke="black" cx="844" cy="-394" rx="50.09" ry="18"/>
<text text-anchor="middle" x="844" y="-390.3" font-family="Times,serif" font-size="14.00">Neap (a)</text>
</g>
<!-- 14&#45;&gt;31 -->
<g id="edge18" class="edge">
<title>14&#45;&gt;31</title>
<path fill="none" stroke="black" stroke-width="2" d="M748.66,-450.94C766.51,-440.47 790.49,-426.4 809.94,-414.99"/>
<polygon fill="black" stroke="black" stroke-width="2" points="811.94,-417.87 818.79,-409.79 808.39,-411.83 811.94,-417.87"/>
</g>
<!-- 33 -->
<g id="node22" class="node">
<title>33</title>
<ellipse fill="none" stroke="black" cx="977" cy="-394" rx="64.99" ry="18"/>
<text text-anchor="middle" x="977" y="-390.3" font-family="Times,serif" font-size="14.00">Savile&#45;Η (a)</text>
</g>
<!-- 14&#45;&gt;33 -->
<g id="edge20" class="edge">
<title>14&#45;&gt;33</title>
<path fill="none" stroke="black" stroke-width="2" d="M762.97,-454.83C806.14,-442.76 875.17,-423.47 923.11,-410.06"/>
<polygon fill="black" stroke="black" stroke-width="2" points="924.32,-413.36 933,-407.3 922.43,-406.62 924.32,-413.36"/>
</g>
<!-- 35 -->
<g id="node24" class="node">
<title>35</title>
<ellipse fill="none" stroke="black" cx="1103" cy="-394" rx="42.79" ry="18"/>
<text text-anchor="middle" x="1103" y="-390.3" font-family="Times,serif" font-size="14.00">La2 (a)</text>
</g>
<!-- 14&#45;&gt;35 -->
<g id="edge22" class="edge">
<title>14&#45;&gt;35</title>
<path fill="none" stroke="black" stroke-width="2" d="M773.21,-460.16C837.98,-452.07 953.87,-435.72 1051,-412 1054.43,-411.16 1057.95,-410.21 1061.48,-409.2"/>
<polygon fill="black" stroke="black" stroke-width="2" points="1062.77,-412.46 1071.32,-406.21 1060.74,-405.76 1062.77,-412.46"/>
</g>
<!-- 42 -->
<g id="node27" class="node">
<title>42</title>
<ellipse fill="none" stroke="black" cx="1214" cy="-394" rx="50.09" ry="18"/>
<text text-anchor="middle" x="1214" y="-390.3" font-family="Times,serif" font-size="14.00">S249 (a)</text>
</g>
<!-- 14&#45;&gt;42 -->
<g id="edge25" class="edge">
<title>14&#45;&gt;42</title>
<path fill="none" stroke="black" d="M774.96,-462.14C856.53,-455.5 1019.32,-439.85 1155,-412 1159.17,-411.14 1163.48,-410.14 1167.77,-409.06"/>
<polygon fill="black" stroke="black" points="1168.95,-412.37 1177.71,-406.42 1167.15,-405.6 1168.95,-412.37"/>
</g>
<!-- 15 -->
<g id="node11" class="node">
<title>15</title>
<ellipse fill="none" stroke="black" cx="1200" cy="-178" rx="50.09" ry="18"/>
<text text-anchor="middle" x="1200" y="-174.3" font-family="Times,serif" font-size="14.00">V568 (a)</text>
</g>
<!-- 25 -->
<g id="node16" class="node">
<title>25</title>
<ellipse fill="none" stroke="black" cx="1200" cy="-106" rx="46.59" ry="18"/>
<text text-anchor="middle" x="1200" y="-102.3" font-family="Times,serif" font-size="14.00">Taur (a)</text>
</g>
<!-- 15&#45;&gt;25 -->
<g id="edge14" class="edge">
<title>15&#45;&gt;25</title>
<path fill="none" stroke="black" stroke-dasharray="1,5" d="M1200,-159.7C1200,-151.98 1200,-142.71 1200,-134.11"/>
<polygon fill="black" stroke="black" points="1203.5,-134.1 1200,-124.1 1196.5,-134.1 1203.5,-134.1"/>
</g>
<!-- 17&#45;&gt;1 -->
<g id="edge1" class="edge">
<title>17&#45;&gt;1</title>
<path fill="none" stroke="black" stroke-dasharray="5,2" d="M400.23,-380C424.55,-368.8 459.83,-352.55 486.51,-340.26"/>
<polygon fill="black" stroke="black" points="488.3,-343.29 495.92,-335.93 485.37,-336.94 488.3,-343.29"/>
</g>
<!-- 17&#45;&gt;4 -->
<g id="edge2" class="edge">
<title>17&#45;&gt;4</title>
<path fill="none" stroke="black" stroke-dasharray="5,2" d="M404.96,-381.99C411.57,-379.91 418.48,-377.81 425,-376 491.88,-357.38 510.34,-359.4 577,-340 579.97,-339.13 583.03,-338.19 586.1,-337.22"/>
<polygon fill="black" stroke="black" points="587.43,-340.46 595.83,-334 585.24,-333.81 587.43,-340.46"/>
</g>
<!-- 17&#45;&gt;5 -->
<g id="edge3" class="edge">
<title>17&#45;&gt;5</title>
<path fill="none" stroke="black" stroke-dasharray="5,2" d="M404.27,-381.7C411.06,-379.59 418.22,-377.56 425,-376 534.38,-350.77 565.62,-365.23 675,-340 678.6,-339.17 682.31,-338.21 686.01,-337.17"/>
<polygon fill="black" stroke="black" points="687.13,-340.49 695.73,-334.3 685.14,-333.78 687.13,-340.49"/>
</g>
<!-- 36 -->
<g id="node25" class="node">
<title>36</title>
<ellipse fill="none" stroke="black" cx="840" cy="-322" rx="50.09" ry="18"/>
<text text-anchor="middle" x="840" y="-318.3" font-family="Times,serif" font-size="14.00">V566 (a)</text>
</g>
<!-- 17&#45;&gt;36 -->
<g id="edge23" class="edge">
<title>17&#45;&gt;36</title>
<path fill="none" stroke="black" stroke-dasharray="5,2" d="M404.23,-381.48C411.02,-379.39 418.19,-377.42 425,-376 580.68,-343.54 624.85,-370.14 781,-340 785.18,-339.19 789.49,-338.22 793.79,-337.16"/>
<polygon fill="black" stroke="black" points="794.95,-340.48 803.74,-334.56 793.18,-333.71 794.95,-340.48"/>
</g>
<!-- 22 -->
<g id="node13" class="node">
<title>22</title>
<ellipse fill="none" stroke="black" cx="1082" cy="-322" rx="44.39" ry="18"/>
<text text-anchor="middle" x="1082" y="-318.3" font-family="Times,serif" font-size="14.00">B39 (a)</text>
</g>
<!-- 23 -->
<g id="node14" class="node">
<title>23</title>
<ellipse fill="none" stroke="black" cx="964" cy="-322" rx="55.79" ry="18"/>
<text text-anchor="middle" x="964" y="-318.3" font-family="Times,serif" font-size="14.00">V1920 (a)</text>
</g>
<!-- 29 -->
<g id="node18" class="node">
<title>29</title>
<ellipse fill="none" stroke="black" cx="1085" cy="-34" rx="50.09" ry="18"/>
<text text-anchor="middle" x="1085" y="-30.3" font-family="Times,serif" font-size="14.00">V569 (a)</text>
</g>
<!-- 25&#45;&gt;29 -->
<g id="edge16" class="edge">
<title>25&#45;&gt;29</title>
<path fill="none" stroke="black" stroke-dasharray="5,2" d="M1176.17,-90.5C1159.44,-80.31 1136.83,-66.55 1118.31,-55.27"/>
<polygon fill="black" stroke="black" points="1119.95,-52.18 1109.59,-49.97 1116.31,-58.16 1119.95,-52.18"/>
</g>
<!-- 34 -->
<g id="node23" class="node">
<title>34</title>
<ellipse fill="none" stroke="black" cx="1206" cy="-34" rx="52.79" ry="18"/>
<text text-anchor="middle" x="1206" y="-30.3" font-family="Times,serif" font-size="14.00">M118 (a)</text>
</g>
<!-- 25&#45;&gt;34 -->
<g id="edge21" class="edge">
<title>25&#45;&gt;34</title>
<path fill="none" stroke="black" stroke-dasharray="5,2" d="M1201.48,-87.7C1202.14,-79.98 1202.94,-70.71 1203.68,-62.11"/>
<polygon fill="black" stroke="black" points="1207.17,-62.37 1204.53,-52.1 1200.19,-61.77 1207.17,-62.37"/>
</g>
<!-- 27&#45;&gt;23 -->
<g id="edge12" class="edge">
<title>27&#45;&gt;23</title>
<path fill="none" stroke="black" stroke-dasharray="5,2" d="M638.63,-381.64C646,-379.59 653.71,-377.59 661,-376 765.51,-353.14 794.21,-361.56 899,-340 903.68,-339.04 908.53,-337.95 913.37,-336.79"/>
<polygon fill="black" stroke="black" points="914.37,-340.15 923.24,-334.36 912.69,-333.36 914.37,-340.15"/>
</g>
<!-- 30&#45;&gt;22 -->
<g id="edge11" class="edge">
<title>30&#45;&gt;22</title>
<path fill="none" stroke="black" stroke-dasharray="5,2" d="M761.52,-381.66C769.25,-379.6 777.35,-377.61 785,-376 892.28,-353.47 922.23,-364.82 1029,-340 1032.45,-339.2 1035.99,-338.28 1039.53,-337.29"/>
<polygon fill="black" stroke="black" points="1040.84,-340.56 1049.44,-334.37 1038.86,-333.84 1040.84,-340.56"/>
</g>
<!-- 31&#45;&gt;8 -->
<g id="edge6" class="edge">
<title>31&#45;&gt;8</title>
<path fill="none" stroke="black" stroke-dasharray="1,5" d="M880.64,-381.67C888,-379.61 895.71,-377.61 903,-376 1004.89,-353.51 1032.84,-361.23 1135,-340 1139.68,-339.03 1144.52,-337.93 1149.36,-336.78"/>
<polygon fill="black" stroke="black" points="1150.36,-340.13 1159.23,-334.34 1148.69,-333.34 1150.36,-340.13"/>
</g>
<!-- 36&#45;&gt;6 -->
<g id="edge4" class="edge">
<title>36&#45;&gt;6</title>
<path fill="none" stroke="black" stroke-dasharray="1,5" d="M840,-303.7C840,-295.98 840,-286.71 840,-278.11"/>
<polygon fill="black" stroke="black" points="843.5,-278.1 840,-268.1 836.5,-278.1 843.5,-278.1"/>
</g>
<!-- 40&#45;&gt;15 -->
<g id="edge9" class="edge">
<title>40&#45;&gt;15</title>
<path fill="none" stroke="black" stroke-dasharray="1,5" d="M1200,-231.7C1200,-223.98 1200,-214.71 1200,-206.11"/>
<polygon fill="black" stroke="black" points="1203.5,-206.1 1200,-196.1 1196.5,-206.1 1203.5,-206.1"/>
</g>
</g>
</svg>
