<?xml version="1.0" encoding="UTF-8" standalone="no"?>
<!DOCTYPE svg PUBLIC "-//W3C//DTD SVG 1.1//EN"
 "http://www.w3.org/Graphics/SVG/1.1/DTD/svg11.dtd">
<!-- Generated by graphviz version 2.43.0 (0)
 -->
<!-- Title: textual_flow_diagram Pages: 1 -->
<svg width="545pt" height="222pt"
 viewBox="0.00 0.00 545.00 222.00" xmlns="http://www.w3.org/2000/svg" xmlns:xlink="http://www.w3.org/1999/xlink">
<g id="graph0" class="graph" transform="scale(1 1) rotate(0) translate(4 218)">
<title>textual_flow_diagram</title>
<polygon fill="white" stroke="transparent" points="-4,4 -4,-218 541,-218 541,4 -4,4"/>
<g id="clust1" class="cluster">
<title>cluster_legend</title>
<polygon fill="none" stroke="black" points="8,-152 8,-206 186,-206 186,-152 8,-152"/>
</g>
<g id="clust2" class="cluster">
<title>cluster_plot</title>
</g>
<!-- label -->
<g id="node1" class="node">
<title>label</title>
<text text-anchor="middle" x="97" y="-182.8" font-family="Times,serif" font-size="14.00">adstag1.3.2U6&#45;12, b</text>
<text text-anchor="middle" x="97" y="-167.8" font-family="Times,serif" font-size="14.00">Con = 10</text>
</g>
<!-- 5 -->
<g id="node2" class="node">
<title>5</title>
<ellipse fill="none" stroke="black" cx="244" cy="-34" rx="42.49" ry="18"/>
<text text-anchor="middle" x="244" y="-30.3" font-family="Times,serif" font-size="14.00">Est (b)</text>
</g>
<!-- 7 -->
<g id="node3" class="node">
<title>7</title>
<ellipse fill="none" stroke="black" cx="346" cy="-106" rx="55.79" ry="18"/>
<text text-anchor="middle" x="346" y="-102.3" font-family="Times,serif" font-size="14.00">V1897 (b)</text>
</g>
<!-- 7&#45;&gt;5 -->
<g id="edge1" class="edge">
<title>7&#45;&gt;5</title>
<path fill="none" stroke="black" stroke-dasharray="1,5" d="M323.36,-89.46C308.8,-79.47 289.72,-66.38 273.92,-55.53"/>
<polygon fill="black" stroke="black" points="275.75,-52.55 265.53,-49.77 271.79,-58.32 275.75,-52.55"/>
</g>
<!-- 42 -->
<g id="node6" class="node">
<title>42</title>
<ellipse fill="none" stroke="black" cx="348" cy="-34" rx="43.59" ry="18"/>
<text text-anchor="middle" x="348" y="-30.3" font-family="Times,serif" font-size="14.00">Bas (b)</text>
</g>
<!-- 7&#45;&gt;42 -->
<g id="edge5" class="edge">
<title>7&#45;&gt;42</title>
<path fill="none" stroke="black" d="M346.49,-87.7C346.71,-79.98 346.98,-70.71 347.23,-62.11"/>
<polygon fill="black" stroke="black" points="350.72,-62.2 347.51,-52.1 343.73,-62 350.72,-62.2"/>
</g>
<!-- 30 -->
<g id="node4" class="node">
<title>30</title>
<ellipse fill="none" stroke="black" cx="465" cy="-34" rx="55.79" ry="18"/>
<text text-anchor="middle" x="465" y="-30.3" font-family="Times,serif" font-size="14.00">V2250 (b)</text>
</g>
<!-- 36 -->
<g id="node5" class="node">
<title>36</title>
<ellipse fill="none" stroke="black" cx="465" cy="-106" rx="45.49" ry="18"/>
<text text-anchor="middle" x="465" y="-102.3" font-family="Times,serif" font-size="14.00">Nan (b)</text>
</g>
<!-- 36&#45;&gt;30 -->
<g id="edge3" class="edge">
<title>36&#45;&gt;30</title>
<path fill="none" stroke="black" stroke-dasharray="5,2" d="M465,-87.7C465,-79.98 465,-70.71 465,-62.11"/>
<polygon fill="black" stroke="black" points="468.5,-62.1 465,-52.1 461.5,-62.1 468.5,-62.1"/>
</g>
<!-- 11 -->
<g id="node7" class="node">
<title>11</title>
<ellipse fill="none" stroke="blue" stroke-dasharray="5,2" cx="405" cy="-179" rx="53.89" ry="18"/>
<text text-anchor="middle" x="405" y="-175.3" font-family="Times,serif" font-size="14.00">aBase (a)</text>
</g>
<!-- 11&#45;&gt;7 -->
<g id="edge2" class="edge">
<title>11&#45;&gt;7</title>
<path fill="none" stroke="blue" d="M391.32,-161.53C383.98,-152.7 374.78,-141.63 366.6,-131.78"/>
<polygon fill="blue" stroke="blue" points="369.1,-129.33 360.02,-123.87 363.72,-133.8 369.1,-129.33"/>
</g>
<!-- 11&#45;&gt;36 -->
<g id="edge4" class="edge">
<title>11&#45;&gt;36</title>
<path fill="none" stroke="blue" d="M418.92,-161.53C426.56,-152.48 436.19,-141.09 444.67,-131.06"/>
<polygon fill="blue" stroke="blue" points="447.38,-133.28 451.16,-123.38 442.03,-128.76 447.38,-133.28"/>
</g>
</g>
</svg>
