<?xml version="1.0" encoding="UTF-8" standalone="no"?>
<!DOCTYPE svg PUBLIC "-//W3C//DTD SVG 1.1//EN"
 "http://www.w3.org/Graphics/SVG/1.1/DTD/svg11.dtd">
<!-- Generated by graphviz version 2.43.0 (0)
 -->
<!-- Title: textual_flow_diagram Pages: 1 -->
<svg width="686pt" height="150pt"
 viewBox="0.00 0.00 686.00 150.00" xmlns="http://www.w3.org/2000/svg" xmlns:xlink="http://www.w3.org/1999/xlink">
<g id="graph0" class="graph" transform="scale(1 1) rotate(0) translate(4 146)">
<title>textual_flow_diagram</title>
<polygon fill="white" stroke="transparent" points="-4,4 -4,-146 682,-146 682,4 -4,4"/>
<g id="clust1" class="cluster">
<title>cluster_legend</title>
<polygon fill="none" stroke="black" points="8,-80 8,-134 182,-134 182,-80 8,-80"/>
</g>
<g id="clust2" class="cluster">
<title>cluster_plot</title>
</g>
<!-- label -->
<g id="node1" class="node">
<title>label</title>
<text text-anchor="middle" x="95" y="-110.8" font-family="Times,serif" font-size="14.00">adstag1.2.18U14, b</text>
<text text-anchor="middle" x="95" y="-95.8" font-family="Times,serif" font-size="14.00">Con = 3</text>
</g>
<!-- 8 -->
<g id="node2" class="node">
<title>8</title>
<ellipse fill="none" stroke="black" cx="476" cy="-34" rx="55.79" ry="18"/>
<text text-anchor="middle" x="476" y="-30.3" font-family="Times,serif" font-size="14.00">V2250 (b)</text>
</g>
<!-- 11 -->
<g id="node3" class="node">
<title>11</title>
<ellipse fill="none" stroke="black" cx="359" cy="-34" rx="43.59" ry="18"/>
<text text-anchor="middle" x="359" y="-30.3" font-family="Times,serif" font-size="14.00">La2 (b)</text>
</g>
<!-- 18 -->
<g id="node4" class="node">
<title>18</title>
<ellipse fill="none" stroke="black" cx="254" cy="-34" rx="43.59" ry="18"/>
<text text-anchor="middle" x="254" y="-30.3" font-family="Times,serif" font-size="14.00">Bas (b)</text>
</g>
<!-- 19 -->
<g id="node5" class="node">
<title>19</title>
<ellipse fill="none" stroke="black" cx="606" cy="-34" rx="55.79" ry="18"/>
<text text-anchor="middle" x="606" y="-30.3" font-family="Times,serif" font-size="14.00">V1920 (b)</text>
</g>
<!-- 25 -->
<g id="node6" class="node">
<title>25</title>
<ellipse fill="none" stroke="blue" stroke-dasharray="5,2" cx="612" cy="-107" rx="50.09" ry="18"/>
<text text-anchor="middle" x="612" y="-103.3" font-family="Times,serif" font-size="14.00">V560 (a)</text>
</g>
<!-- 25&#45;&gt;19 -->
<g id="edge4" class="edge">
<title>25&#45;&gt;19</title>
<path fill="none" stroke="blue" stroke-dasharray="5,2" d="M610.55,-88.81C609.87,-80.79 609.05,-71.05 608.29,-62.07"/>
<polygon fill="blue" stroke="blue" points="611.77,-61.7 607.44,-52.03 604.79,-62.29 611.77,-61.7"/>
</g>
<!-- 27 -->
<g id="node7" class="node">
<title>27</title>
<ellipse fill="none" stroke="blue" stroke-dasharray="5,2" cx="499" cy="-107" rx="44.69" ry="18"/>
<text text-anchor="middle" x="499" y="-103.3" font-family="Times,serif" font-size="14.00">Nan (a)</text>
</g>
<!-- 27&#45;&gt;8 -->
<g id="edge1" class="edge">
<title>27&#45;&gt;8</title>
<path fill="none" stroke="blue" stroke-dasharray="5,2" d="M493.43,-88.81C490.8,-80.7 487.61,-70.84 484.67,-61.78"/>
<polygon fill="blue" stroke="blue" points="487.93,-60.46 481.52,-52.03 481.27,-62.62 487.93,-60.46"/>
</g>
<!-- 32 -->
<g id="node8" class="node">
<title>32</title>
<ellipse fill="none" stroke="blue" stroke-dasharray="5,2" cx="382" cy="-107" rx="53.89" ry="18"/>
<text text-anchor="middle" x="382" y="-103.3" font-family="Times,serif" font-size="14.00">aBase (a)</text>
</g>
<!-- 32&#45;&gt;11 -->
<g id="edge2" class="edge">
<title>32&#45;&gt;11</title>
<path fill="none" stroke="blue" stroke-width="2" d="M376.43,-88.81C373.8,-80.7 370.61,-70.84 367.67,-61.78"/>
<polygon fill="blue" stroke="blue" stroke-width="2" points="370.93,-60.46 364.52,-52.03 364.27,-62.62 370.93,-60.46"/>
</g>
<!-- 35 -->
<g id="node9" class="node">
<title>35</title>
<ellipse fill="none" stroke="blue" stroke-dasharray="5,2" cx="254" cy="-107" rx="55.79" ry="18"/>
<text text-anchor="middle" x="254" y="-103.3" font-family="Times,serif" font-size="14.00">V1897 (a)</text>
</g>
<!-- 35&#45;&gt;18 -->
<g id="edge3" class="edge">
<title>35&#45;&gt;18</title>
<path fill="none" stroke="blue" d="M254,-88.81C254,-80.79 254,-71.05 254,-62.07"/>
<polygon fill="blue" stroke="blue" points="257.5,-62.03 254,-52.03 250.5,-62.03 257.5,-62.03"/>
</g>
</g>
</svg>
