<?xml version="1.0" encoding="UTF-8" standalone="no"?>
<!DOCTYPE svg PUBLIC "-//W3C//DTD SVG 1.1//EN"
 "http://www.w3.org/Graphics/SVG/1.1/DTD/svg11.dtd">
<!-- Generated by graphviz version 2.43.0 (0)
 -->
<!-- Title: textual_flow_diagram Pages: 1 -->
<svg width="778pt" height="222pt"
 viewBox="0.00 0.00 778.00 222.00" xmlns="http://www.w3.org/2000/svg" xmlns:xlink="http://www.w3.org/1999/xlink">
<g id="graph0" class="graph" transform="scale(1 1) rotate(0) translate(4 218)">
<title>textual_flow_diagram</title>
<polygon fill="white" stroke="transparent" points="-4,4 -4,-218 774,-218 774,4 -4,4"/>
<g id="clust1" class="cluster">
<title>cluster_legend</title>
<polygon fill="none" stroke="black" points="8,-152 8,-206 182,-206 182,-152 8,-152"/>
</g>
<g id="clust2" class="cluster">
<title>cluster_plot</title>
</g>
<!-- label -->
<g id="node1" class="node">
<title>label</title>
<text text-anchor="middle" x="95" y="-182.8" font-family="Times,serif" font-size="14.00">adstag1.2.40U10, a</text>
<text text-anchor="middle" x="95" y="-167.8" font-family="Times,serif" font-size="14.00">Con = 1</text>
</g>
<!-- 0 -->
<g id="node2" class="node">
<title>0</title>
<ellipse fill="none" stroke="black" cx="378" cy="-106" rx="50.09" ry="18"/>
<text text-anchor="middle" x="378" y="-102.3" font-family="Times,serif" font-size="14.00">V536 (a)</text>
</g>
<!-- 13 -->
<g id="node3" class="node">
<title>13</title>
<ellipse fill="none" stroke="black" cx="489" cy="-106" rx="42.79" ry="18"/>
<text text-anchor="middle" x="489" y="-102.3" font-family="Times,serif" font-size="14.00">Bas (a)</text>
</g>
<!-- 14 -->
<g id="node4" class="node">
<title>14</title>
<ellipse fill="none" stroke="black" cx="600" cy="-106" rx="50.09" ry="18"/>
<text text-anchor="middle" x="600" y="-102.3" font-family="Times,serif" font-size="14.00">V560 (a)</text>
</g>
<!-- 23 -->
<g id="node5" class="node">
<title>23</title>
<ellipse fill="none" stroke="black" cx="600" cy="-34" rx="55.79" ry="18"/>
<text text-anchor="middle" x="600" y="-30.3" font-family="Times,serif" font-size="14.00">V1920 (a)</text>
</g>
<!-- 14&#45;&gt;23 -->
<g id="edge4" class="edge">
<title>14&#45;&gt;23</title>
<path fill="none" stroke="black" stroke-dasharray="5,2" d="M600,-87.7C600,-79.98 600,-70.71 600,-62.11"/>
<polygon fill="black" stroke="black" points="603.5,-62.1 600,-52.1 596.5,-62.1 603.5,-62.1"/>
</g>
<!-- 28 -->
<g id="node6" class="node">
<title>28</title>
<ellipse fill="none" stroke="black" cx="666" cy="-179" rx="53.89" ry="18"/>
<text text-anchor="middle" x="666" y="-175.3" font-family="Times,serif" font-size="14.00">aBase (a)</text>
</g>
<!-- 28&#45;&gt;14 -->
<g id="edge3" class="edge">
<title>28&#45;&gt;14</title>
<path fill="none" stroke="black" stroke-width="2" d="M650.69,-161.53C642.2,-152.39 631.48,-140.86 622.09,-130.76"/>
<polygon fill="black" stroke="black" stroke-width="2" points="624.6,-128.32 615.22,-123.38 619.47,-133.09 624.6,-128.32"/>
</g>
<!-- 36 -->
<g id="node7" class="node">
<title>36</title>
<ellipse fill="none" stroke="black" cx="711" cy="-106" rx="42.79" ry="18"/>
<text text-anchor="middle" x="711" y="-102.3" font-family="Times,serif" font-size="14.00">La2 (a)</text>
</g>
<!-- 28&#45;&gt;36 -->
<g id="edge5" class="edge">
<title>28&#45;&gt;36</title>
<path fill="none" stroke="black" stroke-width="2" d="M676.66,-161.17C682.1,-152.6 688.83,-141.99 694.88,-132.44"/>
<polygon fill="black" stroke="black" stroke-width="2" points="698.02,-134.03 700.41,-123.71 692.1,-130.28 698.02,-134.03"/>
</g>
<!-- 39 -->
<g id="node8" class="node">
<title>39</title>
<ellipse fill="none" stroke="black" cx="254" cy="-106" rx="55.79" ry="18"/>
<text text-anchor="middle" x="254" y="-102.3" font-family="Times,serif" font-size="14.00">V2250 (a)</text>
</g>
<!-- 6 -->
<g id="node9" class="node">
<title>6</title>
<ellipse fill="none" stroke="blue" stroke-dasharray="5,2" cx="505" cy="-179" rx="55.79" ry="18"/>
<text text-anchor="middle" x="505" y="-175.3" font-family="Times,serif" font-size="14.00">V1897 (b)</text>
</g>
<!-- 6&#45;&gt;13 -->
<g id="edge2" class="edge">
<title>6&#45;&gt;13</title>
<path fill="none" stroke="blue" d="M501.13,-160.81C499.32,-152.79 497.12,-143.05 495.1,-134.07"/>
<polygon fill="blue" stroke="blue" points="498.45,-133.01 492.84,-124.03 491.62,-134.55 498.45,-133.01"/>
</g>
<!-- 8 -->
<g id="node10" class="node">
<title>8</title>
<ellipse fill="none" stroke="blue" stroke-dasharray="5,2" cx="375" cy="-179" rx="55.79" ry="18"/>
<text text-anchor="middle" x="375" y="-175.3" font-family="Times,serif" font-size="14.00">V1629 (b)</text>
</g>
<!-- 8&#45;&gt;0 -->
<g id="edge1" class="edge">
<title>8&#45;&gt;0</title>
<path fill="none" stroke="blue" stroke-dasharray="5,2" d="M375.73,-160.81C376.07,-152.79 376.48,-143.05 376.86,-134.07"/>
<polygon fill="blue" stroke="blue" points="380.36,-134.17 377.28,-124.03 373.36,-133.87 380.36,-134.17"/>
</g>
<!-- 37 -->
<g id="node11" class="node">
<title>37</title>
<ellipse fill="none" stroke="blue" stroke-dasharray="5,2" cx="254" cy="-179" rx="45.49" ry="18"/>
<text text-anchor="middle" x="254" y="-175.3" font-family="Times,serif" font-size="14.00">Nan (b)</text>
</g>
<!-- 37&#45;&gt;39 -->
<g id="edge6" class="edge">
<title>37&#45;&gt;39</title>
<path fill="none" stroke="blue" stroke-dasharray="5,2" d="M254,-160.81C254,-152.79 254,-143.05 254,-134.07"/>
<polygon fill="blue" stroke="blue" points="257.5,-134.03 254,-124.03 250.5,-134.03 257.5,-134.03"/>
</g>
</g>
</svg>
