<?xml version="1.0" encoding="UTF-8" standalone="no"?>
<!DOCTYPE svg PUBLIC "-//W3C//DTD SVG 1.1//EN"
 "http://www.w3.org/Graphics/SVG/1.1/DTD/svg11.dtd">
<!-- Generated by graphviz version 2.43.0 (0)
 -->
<!-- Title: textual_flow_diagram Pages: 1 -->
<svg width="700pt" height="526pt"
 viewBox="0.00 0.00 700.00 526.00" xmlns="http://www.w3.org/2000/svg" xmlns:xlink="http://www.w3.org/1999/xlink">
<g id="graph0" class="graph" transform="scale(1 1) rotate(0) translate(4 522)">
<title>textual_flow_diagram</title>
<polygon fill="white" stroke="transparent" points="-4,4 -4,-522 696,-522 696,4 -4,4"/>
<g id="clust1" class="cluster">
<title>cluster_legend</title>
<polygon fill="none" stroke="black" points="8,-456 8,-510 182,-510 182,-456 8,-456"/>
</g>
<g id="clust2" class="cluster">
<title>cluster_plot</title>
</g>
<!-- label -->
<g id="node1" class="node">
<title>label</title>
<text text-anchor="middle" x="95" y="-486.8" font-family="Times,serif" font-size="14.00">adstag1.3.11U34, b</text>
<text text-anchor="middle" x="95" y="-471.8" font-family="Times,serif" font-size="14.00">Con = 5</text>
</g>
<!-- 1 -->
<g id="node2" class="node">
<title>1</title>
<ellipse fill="none" stroke="black" cx="248" cy="-180" rx="50.09" ry="18"/>
<text text-anchor="middle" x="248" y="-176.3" font-family="Times,serif" font-size="14.00">Marc (b)</text>
</g>
<!-- 28 -->
<g id="node9" class="node">
<title>28</title>
<ellipse fill="none" stroke="black" cx="248" cy="-107" rx="46.59" ry="18"/>
<text text-anchor="middle" x="248" y="-103.3" font-family="Times,serif" font-size="14.00">Mon (b)</text>
</g>
<!-- 1&#45;&gt;28 -->
<g id="edge8" class="edge">
<title>1&#45;&gt;28</title>
<path fill="none" stroke="black" stroke-dasharray="1,5" d="M248,-161.81C248,-153.79 248,-144.05 248,-135.07"/>
<polygon fill="black" stroke="black" points="251.5,-135.03 248,-125.03 244.5,-135.03 251.5,-135.03"/>
</g>
<!-- 4 -->
<g id="node3" class="node">
<title>4</title>
<ellipse fill="none" stroke="black" cx="248" cy="-34" rx="41.69" ry="18"/>
<text text-anchor="middle" x="248" y="-30.3" font-family="Times,serif" font-size="14.00">Sin (b)</text>
</g>
<!-- 11 -->
<g id="node4" class="node">
<title>11</title>
<ellipse fill="none" stroke="black" cx="366" cy="-253" rx="47.39" ry="18"/>
<text text-anchor="middle" x="366" y="-249.3" font-family="Times,serif" font-size="14.00">Taur (b)</text>
</g>
<!-- 11&#45;&gt;1 -->
<g id="edge1" class="edge">
<title>11&#45;&gt;1</title>
<path fill="none" stroke="black" stroke-dasharray="1,5" d="M341.84,-237.46C324.37,-226.95 300.57,-212.63 281.3,-201.04"/>
<polygon fill="black" stroke="black" points="282.91,-197.92 272.54,-195.76 279.3,-203.92 282.91,-197.92"/>
</g>
<!-- 22 -->
<g id="node6" class="node">
<title>22</title>
<ellipse fill="none" stroke="black" cx="366" cy="-180" rx="50.09" ry="18"/>
<text text-anchor="middle" x="366" y="-176.3" font-family="Times,serif" font-size="14.00">V569 (b)</text>
</g>
<!-- 11&#45;&gt;22 -->
<g id="edge5" class="edge">
<title>11&#45;&gt;22</title>
<path fill="none" stroke="black" stroke-dasharray="5,2" d="M366,-234.81C366,-226.79 366,-217.05 366,-208.07"/>
<polygon fill="black" stroke="black" points="369.5,-208.03 366,-198.03 362.5,-208.03 369.5,-208.03"/>
</g>
<!-- 29 -->
<g id="node10" class="node">
<title>29</title>
<ellipse fill="none" stroke="black" cx="487" cy="-180" rx="53.09" ry="18"/>
<text text-anchor="middle" x="487" y="-176.3" font-family="Times,serif" font-size="14.00">M118 (b)</text>
</g>
<!-- 11&#45;&gt;29 -->
<g id="edge9" class="edge">
<title>11&#45;&gt;29</title>
<path fill="none" stroke="black" stroke-dasharray="5,2" d="M390.78,-237.46C408.65,-226.98 432.99,-212.69 452.72,-201.11"/>
<polygon fill="black" stroke="black" points="454.57,-204.09 461.42,-196.01 451.02,-198.05 454.57,-204.09"/>
</g>
<!-- 14 -->
<g id="node5" class="node">
<title>14</title>
<ellipse fill="none" stroke="black" cx="296" cy="-409" rx="43.59" ry="18"/>
<text text-anchor="middle" x="296" y="-405.3" font-family="Times,serif" font-size="14.00">La2 (b)</text>
</g>
<!-- 23 -->
<g id="node7" class="node">
<title>23</title>
<ellipse fill="none" stroke="black" cx="403" cy="-409" rx="45.49" ry="18"/>
<text text-anchor="middle" x="403" y="-405.3" font-family="Times,serif" font-size="14.00">Nan (b)</text>
</g>
<!-- 32 -->
<g id="node11" class="node">
<title>32</title>
<ellipse fill="none" stroke="black" cx="248" cy="-326" rx="50.09" ry="18"/>
<text text-anchor="middle" x="248" y="-322.3" font-family="Times,serif" font-size="14.00">V536 (b)</text>
</g>
<!-- 23&#45;&gt;32 -->
<g id="edge10" class="edge">
<title>23&#45;&gt;32</title>
<path fill="none" stroke="black" stroke-width="2" d="M376.71,-394.26C351.33,-381 312.7,-360.81 284.38,-346.01"/>
<polygon fill="black" stroke="black" stroke-width="2" points="285.69,-342.75 275.21,-341.22 282.45,-348.95 285.69,-342.75"/>
<text text-anchor="middle" x="337.5" y="-365" font-family="Times,serif" font-size="10.00">3</text>
</g>
<!-- 38 -->
<g id="node14" class="node">
<title>38</title>
<ellipse fill="none" stroke="black" cx="366" cy="-326" rx="50.09" ry="18"/>
<text text-anchor="middle" x="366" y="-322.3" font-family="Times,serif" font-size="14.00">V568 (b)</text>
</g>
<!-- 23&#45;&gt;38 -->
<g id="edge13" class="edge">
<title>23&#45;&gt;38</title>
<path fill="none" stroke="black" stroke-width="2" d="M395.33,-391.22C390.36,-380.32 383.76,-365.89 378.09,-353.47"/>
<polygon fill="black" stroke="black" stroke-width="2" points="381.12,-351.68 373.78,-344.04 374.76,-354.59 381.12,-351.68"/>
<text text-anchor="middle" x="389.5" y="-365" font-family="Times,serif" font-size="10.00">3</text>
</g>
<!-- 42 -->
<g id="node16" class="node">
<title>42</title>
<ellipse fill="none" stroke="black" cx="490" cy="-326" rx="55.79" ry="18"/>
<text text-anchor="middle" x="490" y="-322.3" font-family="Times,serif" font-size="14.00">V1897 (b)</text>
</g>
<!-- 23&#45;&gt;42 -->
<g id="edge15" class="edge">
<title>23&#45;&gt;42</title>
<path fill="none" stroke="black" stroke-dasharray="1,5" d="M420.19,-392C432.97,-380.09 450.62,-363.67 464.97,-350.31"/>
<polygon fill="black" stroke="black" points="467.62,-352.62 472.55,-343.25 462.85,-347.5 467.62,-352.62"/>
</g>
<!-- 27 -->
<g id="node8" class="node">
<title>27</title>
<ellipse fill="none" stroke="black" cx="525" cy="-409" rx="50.09" ry="18"/>
<text text-anchor="middle" x="525" y="-405.3" font-family="Times,serif" font-size="14.00">V560 (b)</text>
</g>
<!-- 41 -->
<g id="node15" class="node">
<title>41</title>
<ellipse fill="none" stroke="black" cx="620" cy="-326" rx="55.79" ry="18"/>
<text text-anchor="middle" x="620" y="-322.3" font-family="Times,serif" font-size="14.00">V1920 (b)</text>
</g>
<!-- 27&#45;&gt;41 -->
<g id="edge14" class="edge">
<title>27&#45;&gt;41</title>
<path fill="none" stroke="black" stroke-dasharray="5,2" d="M543.77,-392C557.95,-379.9 577.61,-363.14 593.41,-349.67"/>
<polygon fill="black" stroke="black" points="595.93,-352.12 601.27,-342.97 591.39,-346.79 595.93,-352.12"/>
</g>
<!-- 28&#45;&gt;4 -->
<g id="edge2" class="edge">
<title>28&#45;&gt;4</title>
<path fill="none" stroke="black" stroke-dasharray="1,5" d="M248,-88.81C248,-80.79 248,-71.05 248,-62.07"/>
<polygon fill="black" stroke="black" points="251.5,-62.03 248,-52.03 244.5,-62.03 251.5,-62.03"/>
</g>
<!-- 33 -->
<g id="node12" class="node">
<title>33</title>
<ellipse fill="none" stroke="black" cx="478" cy="-253" rx="42.49" ry="18"/>
<text text-anchor="middle" x="478" y="-249.3" font-family="Times,serif" font-size="14.00">Est (b)</text>
</g>
<!-- 35 -->
<g id="node13" class="node">
<title>35</title>
<ellipse fill="none" stroke="black" cx="582" cy="-253" rx="43.59" ry="18"/>
<text text-anchor="middle" x="582" y="-249.3" font-family="Times,serif" font-size="14.00">Bas (b)</text>
</g>
<!-- 38&#45;&gt;11 -->
<g id="edge3" class="edge">
<title>38&#45;&gt;11</title>
<path fill="none" stroke="black" stroke-dasharray="1,5" d="M366,-307.81C366,-299.79 366,-290.05 366,-281.07"/>
<polygon fill="black" stroke="black" points="369.5,-281.03 366,-271.03 362.5,-281.03 369.5,-281.03"/>
</g>
<!-- 42&#45;&gt;33 -->
<g id="edge11" class="edge">
<title>42&#45;&gt;33</title>
<path fill="none" stroke="black" stroke-dasharray="1,5" d="M487.1,-307.81C485.74,-299.79 484.09,-290.05 482.58,-281.07"/>
<polygon fill="black" stroke="black" points="486,-280.31 480.88,-271.03 479.09,-281.47 486,-280.31"/>
</g>
<!-- 42&#45;&gt;35 -->
<g id="edge12" class="edge">
<title>42&#45;&gt;35</title>
<path fill="none" stroke="black" d="M510.42,-309.24C523.34,-299.27 540.21,-286.25 554.33,-275.36"/>
<polygon fill="black" stroke="black" points="556.49,-278.11 562.27,-269.23 552.22,-272.56 556.49,-278.11"/>
</g>
<!-- 40 -->
<g id="node17" class="node">
<title>40</title>
<ellipse fill="none" stroke="blue" stroke-dasharray="5,2" cx="403" cy="-483" rx="53.89" ry="18"/>
<text text-anchor="middle" x="403" y="-479.3" font-family="Times,serif" font-size="14.00">aBase (a)</text>
</g>
<!-- 40&#45;&gt;14 -->
<g id="edge4" class="edge">
<title>40&#45;&gt;14</title>
<path fill="none" stroke="blue" stroke-width="2" d="M380.05,-466.55C364.36,-456 343.4,-441.9 326.34,-430.42"/>
<polygon fill="blue" stroke="blue" stroke-width="2" points="328.07,-427.36 317.82,-424.68 324.16,-433.17 328.07,-427.36"/>
</g>
<!-- 40&#45;&gt;23 -->
<g id="edge6" class="edge">
<title>40&#45;&gt;23</title>
<path fill="none" stroke="blue" d="M403,-464.94C403,-456.81 403,-446.88 403,-437.7"/>
<polygon fill="blue" stroke="blue" points="406.5,-437.44 403,-427.44 399.5,-437.44 406.5,-437.44"/>
</g>
<!-- 40&#45;&gt;27 -->
<g id="edge7" class="edge">
<title>40&#45;&gt;27</title>
<path fill="none" stroke="blue" stroke-width="2" d="M428.28,-467.08C446.56,-456.29 471.44,-441.61 491.39,-429.83"/>
<polygon fill="blue" stroke="blue" stroke-width="2" points="493.34,-432.75 500.17,-424.65 489.78,-426.72 493.34,-432.75"/>
</g>
</g>
</svg>
