<?xml version="1.0" encoding="UTF-8" standalone="no"?>
<!DOCTYPE svg PUBLIC "-//W3C//DTD SVG 1.1//EN"
 "http://www.w3.org/Graphics/SVG/1.1/DTD/svg11.dtd">
<!-- Generated by graphviz version 2.43.0 (0)
 -->
<!-- Title: textual_flow_diagram Pages: 1 -->
<svg width="562pt" height="745pt"
 viewBox="0.00 0.00 562.00 745.00" xmlns="http://www.w3.org/2000/svg" xmlns:xlink="http://www.w3.org/1999/xlink">
<g id="graph0" class="graph" transform="scale(1 1) rotate(0) translate(4 741)">
<title>textual_flow_diagram</title>
<polygon fill="white" stroke="transparent" points="-4,4 -4,-741 558,-741 558,4 -4,4"/>
<g id="clust1" class="cluster">
<title>cluster_legend</title>
<polygon fill="none" stroke="black" points="8,-675 8,-729 204,-729 204,-675 8,-675"/>
</g>
<g id="clust2" class="cluster">
<title>cluster_plot</title>
</g>
<!-- label -->
<g id="node1" class="node">
<title>label</title>
<text text-anchor="middle" x="106" y="-705.8" font-family="Times,serif" font-size="14.00">adstag1.2.35U16&#45;18, c</text>
<text text-anchor="middle" x="106" y="-690.8" font-family="Times,serif" font-size="14.00">Con = 5</text>
</g>
<!-- 1 -->
<g id="node2" class="node">
<title>1</title>
<ellipse fill="none" stroke="black" cx="260" cy="-180" rx="40.09" ry="18"/>
<text text-anchor="middle" x="260" y="-176.3" font-family="Times,serif" font-size="14.00">Sin (c)</text>
</g>
<!-- 6 -->
<g id="node5" class="node">
<title>6</title>
<ellipse fill="none" stroke="black" cx="269" cy="-107" rx="49.29" ry="18"/>
<text text-anchor="middle" x="269" y="-103.3" font-family="Times,serif" font-size="14.00">Marc (c)</text>
</g>
<!-- 1&#45;&gt;6 -->
<g id="edge4" class="edge">
<title>1&#45;&gt;6</title>
<path fill="none" stroke="black" stroke-dasharray="1,5" d="M262.18,-161.81C263.2,-153.79 264.43,-144.05 265.57,-135.07"/>
<polygon fill="black" stroke="black" points="269.06,-135.39 266.84,-125.03 262.11,-134.51 269.06,-135.39"/>
</g>
<!-- 3 -->
<g id="node3" class="node">
<title>3</title>
<ellipse fill="none" stroke="black" cx="370" cy="-180" rx="51.99" ry="18"/>
<text text-anchor="middle" x="370" y="-176.3" font-family="Times,serif" font-size="14.00">M118 (c)</text>
</g>
<!-- 4 -->
<g id="node4" class="node">
<title>4</title>
<ellipse fill="none" stroke="black" cx="269" cy="-34" rx="46.29" ry="18"/>
<text text-anchor="middle" x="269" y="-30.3" font-family="Times,serif" font-size="14.00">Mon (c)</text>
</g>
<!-- 6&#45;&gt;4 -->
<g id="edge3" class="edge">
<title>6&#45;&gt;4</title>
<path fill="none" stroke="black" stroke-dasharray="1,5" d="M269,-88.81C269,-80.79 269,-71.05 269,-62.07"/>
<polygon fill="black" stroke="black" points="272.5,-62.03 269,-52.03 265.5,-62.03 272.5,-62.03"/>
</g>
<!-- 10 -->
<g id="node6" class="node">
<title>10</title>
<ellipse fill="none" stroke="black" cx="262" cy="-472" rx="42.49" ry="18"/>
<text text-anchor="middle" x="262" y="-468.3" font-family="Times,serif" font-size="14.00">Bas (c)</text>
</g>
<!-- 14 -->
<g id="node7" class="node">
<title>14</title>
<ellipse fill="none" stroke="black" cx="390" cy="-253" rx="46.29" ry="18"/>
<text text-anchor="middle" x="390" y="-249.3" font-family="Times,serif" font-size="14.00">Taur (c)</text>
</g>
<!-- 14&#45;&gt;1 -->
<g id="edge1" class="edge">
<title>14&#45;&gt;1</title>
<path fill="none" stroke="black" stroke-dasharray="1,5" d="M364.32,-237.97C344.12,-226.94 315.8,-211.47 293.76,-199.44"/>
<polygon fill="black" stroke="black" points="295.2,-196.24 284.75,-194.52 291.85,-202.38 295.2,-196.24"/>
</g>
<!-- 14&#45;&gt;3 -->
<g id="edge2" class="edge">
<title>14&#45;&gt;3</title>
<path fill="none" stroke="black" stroke-dasharray="5,2" d="M385.16,-234.81C382.87,-226.7 380.09,-216.84 377.54,-207.78"/>
<polygon fill="black" stroke="black" points="380.88,-206.71 374.8,-198.03 374.14,-208.6 380.88,-206.71"/>
</g>
<!-- 40 -->
<g id="node15" class="node">
<title>40</title>
<ellipse fill="none" stroke="black" cx="489" cy="-180" rx="49.29" ry="18"/>
<text text-anchor="middle" x="489" y="-176.3" font-family="Times,serif" font-size="14.00">V569 (c)</text>
</g>
<!-- 14&#45;&gt;40 -->
<g id="edge14" class="edge">
<title>14&#45;&gt;40</title>
<path fill="none" stroke="black" stroke-dasharray="5,2" d="M411,-236.94C425.08,-226.85 443.82,-213.4 459.41,-202.22"/>
<polygon fill="black" stroke="black" points="461.61,-204.95 467.69,-196.28 457.53,-199.26 461.61,-204.95"/>
</g>
<!-- 16 -->
<g id="node8" class="node">
<title>16</title>
<ellipse fill="none" stroke="black" cx="363" cy="-472" rx="40.89" ry="18"/>
<text text-anchor="middle" x="363" y="-468.3" font-family="Times,serif" font-size="14.00">Est (c)</text>
</g>
<!-- 17 -->
<g id="node9" class="node">
<title>17</title>
<ellipse fill="none" stroke="black" cx="354" cy="-545" rx="55.49" ry="18"/>
<text text-anchor="middle" x="354" y="-541.3" font-family="Times,serif" font-size="14.00">V1897 (c)</text>
</g>
<!-- 17&#45;&gt;10 -->
<g id="edge5" class="edge">
<title>17&#45;&gt;10</title>
<path fill="none" stroke="black" d="M333.58,-528.24C320.66,-518.27 303.79,-505.25 289.67,-494.36"/>
<polygon fill="black" stroke="black" points="291.78,-491.56 281.73,-488.23 287.51,-497.11 291.78,-491.56"/>
</g>
<!-- 17&#45;&gt;16 -->
<g id="edge7" class="edge">
<title>17&#45;&gt;16</title>
<path fill="none" stroke="black" stroke-dasharray="1,5" d="M356.18,-526.81C357.2,-518.79 358.43,-509.05 359.57,-500.07"/>
<polygon fill="black" stroke="black" points="363.06,-500.39 360.84,-490.03 356.11,-499.51 363.06,-500.39"/>
</g>
<!-- 18 -->
<g id="node10" class="node">
<title>18</title>
<ellipse fill="none" stroke="black" cx="420" cy="-326" rx="49.29" ry="18"/>
<text text-anchor="middle" x="420" y="-322.3" font-family="Times,serif" font-size="14.00">V568 (c)</text>
</g>
<!-- 18&#45;&gt;14 -->
<g id="edge6" class="edge">
<title>18&#45;&gt;14</title>
<path fill="none" stroke="black" stroke-dasharray="1,5" d="M412.89,-308.17C409.39,-299.9 405.09,-289.72 401.17,-280.44"/>
<polygon fill="black" stroke="black" points="404.38,-279.05 397.27,-271.2 397.94,-281.77 404.38,-279.05"/>
</g>
<!-- 23 -->
<g id="node11" class="node">
<title>23</title>
<ellipse fill="none" stroke="black" cx="477" cy="-545" rx="50.09" ry="18"/>
<text text-anchor="middle" x="477" y="-541.3" font-family="Times,serif" font-size="14.00">Neap (c)</text>
</g>
<!-- 28 -->
<g id="node13" class="node">
<title>28</title>
<ellipse fill="none" stroke="black" cx="477" cy="-472" rx="55.49" ry="18"/>
<text text-anchor="middle" x="477" y="-468.3" font-family="Times,serif" font-size="14.00">V1629 (c)</text>
</g>
<!-- 23&#45;&gt;28 -->
<g id="edge12" class="edge">
<title>23&#45;&gt;28</title>
<path fill="none" stroke="black" stroke-dasharray="1,5" d="M477,-526.81C477,-518.79 477,-509.05 477,-500.07"/>
<polygon fill="black" stroke="black" points="480.5,-500.03 477,-490.03 473.5,-500.03 480.5,-500.03"/>
</g>
<!-- 24 -->
<g id="node12" class="node">
<title>24</title>
<ellipse fill="none" stroke="black" cx="475" cy="-399" rx="49.29" ry="18"/>
<text text-anchor="middle" x="475" y="-395.3" font-family="Times,serif" font-size="14.00">V536 (c)</text>
</g>
<!-- 24&#45;&gt;18 -->
<g id="edge9" class="edge">
<title>24&#45;&gt;18</title>
<path fill="none" stroke="black" stroke-dasharray="1,5" d="M462.24,-381.53C455.4,-372.7 446.83,-361.63 439.2,-351.78"/>
<polygon fill="black" stroke="black" points="441.96,-349.63 433.07,-343.87 436.43,-353.92 441.96,-349.63"/>
</g>
<!-- 28&#45;&gt;24 -->
<g id="edge11" class="edge">
<title>28&#45;&gt;24</title>
<path fill="none" stroke="black" stroke-dasharray="5,2" d="M476.52,-453.81C476.29,-445.79 476.02,-436.05 475.76,-427.07"/>
<polygon fill="black" stroke="black" points="479.26,-426.93 475.48,-417.03 472.26,-427.12 479.26,-426.93"/>
</g>
<!-- 33 -->
<g id="node14" class="node">
<title>33</title>
<ellipse fill="none" stroke="black" cx="274" cy="-628" rx="49.29" ry="18"/>
<text text-anchor="middle" x="274" y="-624.3" font-family="Times,serif" font-size="14.00">V560 (c)</text>
</g>
<!-- 42 -->
<g id="node16" class="node">
<title>42</title>
<ellipse fill="none" stroke="black" cx="386" cy="-628" rx="44.39" ry="18"/>
<text text-anchor="middle" x="386" y="-624.3" font-family="Times,serif" font-size="14.00">Nan (c)</text>
</g>
<!-- 42&#45;&gt;17 -->
<g id="edge8" class="edge">
<title>42&#45;&gt;17</title>
<path fill="none" stroke="black" stroke-dasharray="1,5" d="M379.21,-609.82C374.9,-598.9 369.23,-584.55 364.36,-572.22"/>
<polygon fill="black" stroke="black" points="367.6,-570.89 360.67,-562.88 361.09,-573.46 367.6,-570.89"/>
</g>
<!-- 42&#45;&gt;23 -->
<g id="edge10" class="edge">
<title>42&#45;&gt;23</title>
<path fill="none" stroke="black" d="M403.55,-611.38C417.18,-599.25 436.28,-582.24 451.59,-568.62"/>
<polygon fill="black" stroke="black" points="454.06,-571.11 459.2,-561.85 449.4,-565.88 454.06,-571.11"/>
<text text-anchor="middle" x="439.5" y="-584" font-family="Times,serif" font-size="10.00">2</text>
</g>
<!-- 44 -->
<g id="node17" class="node">
<title>44</title>
<ellipse fill="none" stroke="black" cx="490" cy="-628" rx="42.49" ry="18"/>
<text text-anchor="middle" x="490" y="-624.3" font-family="Times,serif" font-size="14.00">La2 (c)</text>
</g>
<!-- 11 -->
<g id="node18" class="node">
<title>11</title>
<ellipse fill="none" stroke="blue" stroke-dasharray="5,2" cx="386" cy="-702" rx="53.89" ry="18"/>
<text text-anchor="middle" x="386" y="-698.3" font-family="Times,serif" font-size="14.00">aBase (a)</text>
</g>
<!-- 11&#45;&gt;33 -->
<g id="edge13" class="edge">
<title>11&#45;&gt;33</title>
<path fill="none" stroke="blue" stroke-width="2" d="M362.25,-685.73C345.8,-675.16 323.73,-660.97 305.78,-649.43"/>
<polygon fill="blue" stroke="blue" stroke-width="2" points="307.64,-646.46 297.33,-644 303.85,-652.35 307.64,-646.46"/>
</g>
<!-- 11&#45;&gt;42 -->
<g id="edge15" class="edge">
<title>11&#45;&gt;42</title>
<path fill="none" stroke="blue" d="M386,-683.94C386,-675.81 386,-665.88 386,-656.7"/>
<polygon fill="blue" stroke="blue" points="389.5,-656.44 386,-646.44 382.5,-656.44 389.5,-656.44"/>
</g>
<!-- 11&#45;&gt;44 -->
<g id="edge16" class="edge">
<title>11&#45;&gt;44</title>
<path fill="none" stroke="blue" stroke-width="2" d="M408.31,-685.55C423.56,-675 443.93,-660.9 460.51,-649.42"/>
<polygon fill="blue" stroke="blue" stroke-width="2" points="462.56,-652.25 468.79,-643.68 458.58,-646.5 462.56,-652.25"/>
</g>
</g>
</svg>
