<?xml version="1.0" encoding="UTF-8" standalone="no"?>
<!DOCTYPE svg PUBLIC "-//W3C//DTD SVG 1.1//EN"
 "http://www.w3.org/Graphics/SVG/1.1/DTD/svg11.dtd">
<!-- Generated by graphviz version 2.43.0 (0)
 -->
<!-- Title: textual_flow_diagram Pages: 1 -->
<svg width="344pt" height="317pt"
 viewBox="0.00 0.00 344.00 317.00" xmlns="http://www.w3.org/2000/svg" xmlns:xlink="http://www.w3.org/1999/xlink">
<g id="graph0" class="graph" transform="scale(1 1) rotate(0) translate(4 313)">
<title>textual_flow_diagram</title>
<polygon fill="white" stroke="transparent" points="-4,4 -4,-313 340,-313 340,4 -4,4"/>
<g id="clust1" class="cluster">
<title>cluster_legend</title>
<polygon fill="none" stroke="black" points="8,-247 8,-301 196,-301 196,-247 8,-247"/>
</g>
<g id="clust2" class="cluster">
<title>cluster_plot</title>
</g>
<!-- label -->
<g id="node1" class="node">
<title>label</title>
<text text-anchor="middle" x="102" y="-277.8" font-family="Times,serif" font-size="14.00">adstag1.1.5U12&#45;14, d</text>
<text text-anchor="middle" x="102" y="-262.8" font-family="Times,serif" font-size="14.00">Con = 10</text>
</g>
<!-- 22 -->
<g id="node2" class="node">
<title>22</title>
<ellipse fill="none" stroke="black" cx="266" cy="-200" rx="50.89" ry="18"/>
<text text-anchor="middle" x="266" y="-196.3" font-family="Times,serif" font-size="14.00">Neap (d)</text>
</g>
<!-- 38 -->
<g id="node3" class="node">
<title>38</title>
<ellipse fill="none" stroke="black" cx="266" cy="-117" rx="47.39" ry="18"/>
<text text-anchor="middle" x="266" y="-113.3" font-family="Times,serif" font-size="14.00">Taur (d)</text>
</g>
<!-- 22&#45;&gt;38 -->
<g id="edge2" class="edge">
<title>22&#45;&gt;38</title>
<path fill="none" stroke="black" stroke-dasharray="5,2" d="M266,-181.82C266,-171.19 266,-157.31 266,-145.2"/>
<polygon fill="black" stroke="black" points="269.5,-145.15 266,-135.15 262.5,-145.15 269.5,-145.15"/>
<text text-anchor="middle" x="269.5" y="-156" font-family="Times,serif" font-size="10.00">4</text>
</g>
<!-- 42 -->
<g id="node4" class="node">
<title>42</title>
<ellipse fill="none" stroke="black" cx="266" cy="-34" rx="46.59" ry="18"/>
<text text-anchor="middle" x="266" y="-30.3" font-family="Times,serif" font-size="14.00">Mon (d)</text>
</g>
<!-- 38&#45;&gt;42 -->
<g id="edge3" class="edge">
<title>38&#45;&gt;42</title>
<path fill="none" stroke="black" stroke-dasharray="1,5" d="M266,-98.82C266,-88.19 266,-74.31 266,-62.2"/>
<polygon fill="black" stroke="black" points="269.5,-62.15 266,-52.15 262.5,-62.15 269.5,-62.15"/>
<text text-anchor="middle" x="269.5" y="-73" font-family="Times,serif" font-size="10.00">3</text>
</g>
<!-- 32 -->
<g id="node5" class="node">
<title>32</title>
<ellipse fill="none" stroke="blue" stroke-dasharray="5,2" cx="266" cy="-274" rx="53.89" ry="18"/>
<text text-anchor="middle" x="266" y="-270.3" font-family="Times,serif" font-size="14.00">aBase (a)</text>
</g>
<!-- 32&#45;&gt;22 -->
<g id="edge1" class="edge">
<title>32&#45;&gt;22</title>
<path fill="none" stroke="blue" stroke-width="2" d="M266,-255.94C266,-247.81 266,-237.88 266,-228.7"/>
<polygon fill="blue" stroke="blue" stroke-width="2" points="269.5,-228.44 266,-218.44 262.5,-228.44 269.5,-228.44"/>
</g>
</g>
</svg>
