<?xml version="1.0" encoding="UTF-8" standalone="no"?>
<!DOCTYPE svg PUBLIC "-//W3C//DTD SVG 1.1//EN"
 "http://www.w3.org/Graphics/SVG/1.1/DTD/svg11.dtd">
<!-- Generated by graphviz version 2.43.0 (0)
 -->
<!-- Title: textual_flow_diagram Pages: 1 -->
<svg width="754pt" height="234pt"
 viewBox="0.00 0.00 754.00 234.00" xmlns="http://www.w3.org/2000/svg" xmlns:xlink="http://www.w3.org/1999/xlink">
<g id="graph0" class="graph" transform="scale(1 1) rotate(0) translate(4 230)">
<title>textual_flow_diagram</title>
<polygon fill="white" stroke="transparent" points="-4,4 -4,-230 750,-230 750,4 -4,4"/>
<g id="clust1" class="cluster">
<title>cluster_legend</title>
<polygon fill="none" stroke="black" points="8,-164 8,-218 182,-218 182,-164 8,-164"/>
</g>
<g id="clust2" class="cluster">
<title>cluster_plot</title>
</g>
<!-- label -->
<g id="node1" class="node">
<title>label</title>
<text text-anchor="middle" x="95" y="-194.8" font-family="Times,serif" font-size="14.00">adstag1.3.59U74, a</text>
<text text-anchor="middle" x="95" y="-179.8" font-family="Times,serif" font-size="14.00">Con = 3</text>
</g>
<!-- 1 -->
<g id="node2" class="node">
<title>1</title>
<ellipse fill="none" stroke="black" cx="248" cy="-107" rx="50.09" ry="18"/>
<text text-anchor="middle" x="248" y="-103.3" font-family="Times,serif" font-size="14.00">Patm (a)</text>
</g>
<!-- 3 -->
<g id="node3" class="node">
<title>3</title>
<ellipse fill="none" stroke="black" cx="302" cy="-34" rx="44.39" ry="18"/>
<text text-anchor="middle" x="302" y="-30.3" font-family="Times,serif" font-size="14.00">P74 (a)</text>
</g>
<!-- 5 -->
<g id="node4" class="node">
<title>5</title>
<ellipse fill="none" stroke="black" cx="365" cy="-107" rx="48.99" ry="18"/>
<text text-anchor="middle" x="365" y="-103.3" font-family="Times,serif" font-size="14.00">La22 (a)</text>
</g>
<!-- 5&#45;&gt;3 -->
<g id="edge2" class="edge">
<title>5&#45;&gt;3</title>
<path fill="none" stroke="black" stroke-dasharray="1,5" d="M350.39,-89.53C342.36,-80.48 332.25,-69.09 323.35,-59.06"/>
<polygon fill="black" stroke="black" points="325.79,-56.53 316.53,-51.38 320.55,-61.18 325.79,-56.53"/>
</g>
<!-- 14 -->
<g id="node6" class="node">
<title>14</title>
<ellipse fill="none" stroke="black" cx="414" cy="-34" rx="50.09" ry="18"/>
<text text-anchor="middle" x="414" y="-30.3" font-family="Times,serif" font-size="14.00">V571 (a)</text>
</g>
<!-- 5&#45;&gt;14 -->
<g id="edge5" class="edge">
<title>5&#45;&gt;14</title>
<path fill="none" stroke="black" stroke-dasharray="1,5" d="M376.61,-89.17C382.59,-80.51 390.01,-69.77 396.65,-60.14"/>
<polygon fill="black" stroke="black" points="399.67,-61.92 402.47,-51.71 393.91,-57.95 399.67,-61.92"/>
</g>
<!-- 12 -->
<g id="node5" class="node">
<title>12</title>
<ellipse fill="none" stroke="black" cx="580" cy="-34" rx="50.09" ry="18"/>
<text text-anchor="middle" x="580" y="-30.3" font-family="Times,serif" font-size="14.00">V566 (a)</text>
</g>
<!-- 20 -->
<g id="node7" class="node">
<title>20</title>
<ellipse fill="none" stroke="black" cx="476" cy="-191" rx="53.89" ry="18"/>
<text text-anchor="middle" x="476" y="-187.3" font-family="Times,serif" font-size="14.00">aBase (a)</text>
</g>
<!-- 20&#45;&gt;1 -->
<g id="edge1" class="edge">
<title>20&#45;&gt;1</title>
<path fill="none" stroke="black" d="M440.38,-177.19C400.29,-162.77 335.14,-139.34 291.93,-123.8"/>
<polygon fill="black" stroke="black" points="292.85,-120.41 282.26,-120.32 290.48,-127 292.85,-120.41"/>
</g>
<!-- 20&#45;&gt;5 -->
<g id="edge3" class="edge">
<title>20&#45;&gt;5</title>
<path fill="none" stroke="black" stroke-dasharray="5,2" d="M454.86,-174.38C437.66,-161.67 413.19,-143.6 394.13,-129.52"/>
<polygon fill="black" stroke="black" points="396.18,-126.69 386.06,-123.56 392.02,-132.32 396.18,-126.69"/>
</g>
<!-- 25 -->
<g id="node8" class="node">
<title>25</title>
<ellipse fill="none" stroke="black" cx="476" cy="-107" rx="44.39" ry="18"/>
<text text-anchor="middle" x="476" y="-103.3" font-family="Times,serif" font-size="14.00">B39 (a)</text>
</g>
<!-- 20&#45;&gt;25 -->
<g id="edge6" class="edge">
<title>20&#45;&gt;25</title>
<path fill="none" stroke="black" stroke-width="2" d="M476,-172.61C476,-161.77 476,-147.6 476,-135.29"/>
<polygon fill="black" stroke="black" stroke-width="2" points="479.5,-135.08 476,-125.08 472.5,-135.08 479.5,-135.08"/>
<text text-anchor="middle" x="479.5" y="-146" font-family="Times,serif" font-size="10.00">2</text>
</g>
<!-- 29 -->
<g id="node9" class="node">
<title>29</title>
<ellipse fill="none" stroke="black" cx="581" cy="-107" rx="42.79" ry="18"/>
<text text-anchor="middle" x="581" y="-103.3" font-family="Times,serif" font-size="14.00">La2 (a)</text>
</g>
<!-- 20&#45;&gt;29 -->
<g id="edge7" class="edge">
<title>20&#45;&gt;29</title>
<path fill="none" stroke="black" stroke-width="2" d="M496.25,-174.19C512.43,-161.55 535.29,-143.7 553.19,-129.72"/>
<polygon fill="black" stroke="black" stroke-width="2" points="555.8,-132.12 561.53,-123.21 551.49,-126.6 555.8,-132.12"/>
</g>
<!-- 33 -->
<g id="node11" class="node">
<title>33</title>
<ellipse fill="none" stroke="black" cx="686" cy="-107" rx="44.39" ry="18"/>
<text text-anchor="middle" x="686" y="-103.3" font-family="Times,serif" font-size="14.00">A25 (a)</text>
</g>
<!-- 20&#45;&gt;33 -->
<g id="edge9" class="edge">
<title>20&#45;&gt;33</title>
<path fill="none" stroke="black" stroke-dasharray="5,2" d="M509.74,-176.83C546.72,-162.38 606.03,-139.22 645.5,-123.81"/>
<polygon fill="black" stroke="black" points="647.04,-126.97 655.08,-120.07 644.49,-120.45 647.04,-126.97"/>
</g>
<!-- 31 -->
<g id="node10" class="node">
<title>31</title>
<ellipse fill="none" stroke="black" cx="688" cy="-34" rx="40.09" ry="18"/>
<text text-anchor="middle" x="688" y="-30.3" font-family="Times,serif" font-size="14.00">Pal (a)</text>
</g>
<!-- 33&#45;&gt;12 -->
<g id="edge4" class="edge">
<title>33&#45;&gt;12</title>
<path fill="none" stroke="black" stroke-dasharray="5,2" d="M664.04,-91.29C648.75,-81.05 628.15,-67.25 611.17,-55.88"/>
<polygon fill="black" stroke="black" points="612.92,-52.84 602.67,-50.18 609.03,-58.66 612.92,-52.84"/>
</g>
<!-- 33&#45;&gt;31 -->
<g id="edge8" class="edge">
<title>33&#45;&gt;31</title>
<path fill="none" stroke="black" stroke-dasharray="5,2" d="M686.48,-88.81C686.71,-80.79 686.98,-71.05 687.24,-62.07"/>
<polygon fill="black" stroke="black" points="690.74,-62.12 687.52,-52.03 683.74,-61.93 690.74,-62.12"/>
</g>
</g>
</svg>
