<?xml version="1.0" encoding="UTF-8" standalone="no"?>
<!DOCTYPE svg PUBLIC "-//W3C//DTD SVG 1.1//EN"
 "http://www.w3.org/Graphics/SVG/1.1/DTD/svg11.dtd">
<!-- Generated by graphviz version 2.43.0 (0)
 -->
<!-- Title: textual_flow_diagram Pages: 1 -->
<svg width="664pt" height="234pt"
 viewBox="0.00 0.00 664.00 234.00" xmlns="http://www.w3.org/2000/svg" xmlns:xlink="http://www.w3.org/1999/xlink">
<g id="graph0" class="graph" transform="scale(1 1) rotate(0) translate(4 230)">
<title>textual_flow_diagram</title>
<polygon fill="white" stroke="transparent" points="-4,4 -4,-230 660,-230 660,4 -4,4"/>
<g id="clust1" class="cluster">
<title>cluster_legend</title>
<polygon fill="none" stroke="black" points="8,-164 8,-218 182,-218 182,-164 8,-164"/>
</g>
<g id="clust2" class="cluster">
<title>cluster_plot</title>
</g>
<!-- label -->
<g id="node1" class="node">
<title>label</title>
<text text-anchor="middle" x="95" y="-194.8" font-family="Times,serif" font-size="14.00">adstag1.2.40U24, b</text>
<text text-anchor="middle" x="95" y="-179.8" font-family="Times,serif" font-size="14.00">Con = 5</text>
</g>
<!-- 10 -->
<g id="node2" class="node">
<title>10</title>
<ellipse fill="none" stroke="black" cx="251" cy="-34" rx="53.09" ry="18"/>
<text text-anchor="middle" x="251" y="-30.3" font-family="Times,serif" font-size="14.00">M118 (b)</text>
</g>
<!-- 16 -->
<g id="node3" class="node">
<title>16</title>
<ellipse fill="none" stroke="black" cx="353" cy="-117" rx="53.09" ry="18"/>
<text text-anchor="middle" x="353" y="-113.3" font-family="Times,serif" font-size="14.00">M136 (b)</text>
</g>
<!-- 35 -->
<g id="node4" class="node">
<title>35</title>
<ellipse fill="none" stroke="black" cx="240" cy="-117" rx="41.69" ry="18"/>
<text text-anchor="middle" x="240" y="-113.3" font-family="Times,serif" font-size="14.00">Sin (b)</text>
</g>
<!-- 35&#45;&gt;10 -->
<g id="edge1" class="edge">
<title>35&#45;&gt;10</title>
<path fill="none" stroke="black" stroke-dasharray="1,5" d="M242.33,-98.82C243.78,-88.19 245.66,-74.31 247.31,-62.2"/>
<polygon fill="black" stroke="black" points="250.79,-62.53 248.67,-52.15 243.86,-61.59 250.79,-62.53"/>
<text text-anchor="middle" x="249.5" y="-73" font-family="Times,serif" font-size="10.00">4</text>
</g>
<!-- 36 -->
<g id="node5" class="node">
<title>36</title>
<ellipse fill="none" stroke="black" cx="470" cy="-117" rx="45.49" ry="18"/>
<text text-anchor="middle" x="470" y="-113.3" font-family="Times,serif" font-size="14.00">Nan (b)</text>
</g>
<!-- 39 -->
<g id="node6" class="node">
<title>39</title>
<ellipse fill="none" stroke="black" cx="587" cy="-117" rx="53.09" ry="18"/>
<text text-anchor="middle" x="587" y="-113.3" font-family="Times,serif" font-size="14.00">LaSM (b)</text>
</g>
<!-- 11 -->
<g id="node7" class="node">
<title>11</title>
<ellipse fill="none" stroke="blue" stroke-dasharray="5,2" cx="470" cy="-191" rx="53.89" ry="18"/>
<text text-anchor="middle" x="470" y="-187.3" font-family="Times,serif" font-size="14.00">aBase (a)</text>
</g>
<!-- 11&#45;&gt;16 -->
<g id="edge2" class="edge">
<title>11&#45;&gt;16</title>
<path fill="none" stroke="blue" stroke-width="2" d="M445.47,-174.91C428.23,-164.3 404.97,-149.98 386.09,-138.37"/>
<polygon fill="blue" stroke="blue" stroke-width="2" points="387.85,-135.33 377.49,-133.07 384.18,-141.3 387.85,-135.33"/>
</g>
<!-- 11&#45;&gt;36 -->
<g id="edge4" class="edge">
<title>11&#45;&gt;36</title>
<path fill="none" stroke="blue" d="M470,-172.94C470,-164.81 470,-154.88 470,-145.7"/>
<polygon fill="blue" stroke="blue" points="473.5,-145.44 470,-135.44 466.5,-145.44 473.5,-145.44"/>
</g>
<!-- 11&#45;&gt;39 -->
<g id="edge5" class="edge">
<title>11&#45;&gt;39</title>
<path fill="none" stroke="blue" d="M494.53,-174.91C511.77,-164.3 535.03,-149.98 553.91,-138.37"/>
<polygon fill="blue" stroke="blue" points="555.82,-141.3 562.51,-133.07 552.15,-135.33 555.82,-141.3"/>
</g>
<!-- 13 -->
<g id="node8" class="node">
<title>13</title>
<ellipse fill="none" stroke="blue" stroke-dasharray="5,2" cx="244" cy="-191" rx="46.29" ry="18"/>
<text text-anchor="middle" x="244" y="-187.3" font-family="Times,serif" font-size="14.00">Mon (a)</text>
</g>
<!-- 13&#45;&gt;35 -->
<g id="edge3" class="edge">
<title>13&#45;&gt;35</title>
<path fill="none" stroke="blue" stroke-dasharray="1,5" d="M243.05,-172.94C242.6,-164.81 242.05,-154.88 241.54,-145.7"/>
<polygon fill="blue" stroke="blue" points="245.02,-145.23 240.97,-135.44 238.03,-145.62 245.02,-145.23"/>
</g>
</g>
</svg>
