<?xml version="1.0" encoding="UTF-8" standalone="no"?>
<!DOCTYPE svg PUBLIC "-//W3C//DTD SVG 1.1//EN"
 "http://www.w3.org/Graphics/SVG/1.1/DTD/svg11.dtd">
<!-- Generated by graphviz version 2.43.0 (0)
 -->
<!-- Title: textual_flow_diagram Pages: 1 -->
<svg width="682pt" height="536pt"
 viewBox="0.00 0.00 682.00 536.00" xmlns="http://www.w3.org/2000/svg" xmlns:xlink="http://www.w3.org/1999/xlink">
<g id="graph0" class="graph" transform="scale(1 1) rotate(0) translate(4 532)">
<title>textual_flow_diagram</title>
<polygon fill="white" stroke="transparent" points="-4,4 -4,-532 678,-532 678,4 -4,4"/>
<g id="clust1" class="cluster">
<title>cluster_legend</title>
<polygon fill="none" stroke="black" points="8,-466 8,-520 182,-520 182,-466 8,-466"/>
</g>
<g id="clust2" class="cluster">
<title>cluster_plot</title>
</g>
<!-- label -->
<g id="node1" class="node">
<title>label</title>
<text text-anchor="middle" x="95" y="-496.8" font-family="Times,serif" font-size="14.00">adstag1.3.11U34, b</text>
<text text-anchor="middle" x="95" y="-481.8" font-family="Times,serif" font-size="14.00">Con = 15</text>
</g>
<!-- 1 -->
<g id="node2" class="node">
<title>1</title>
<ellipse fill="none" stroke="black" cx="248" cy="-180" rx="50.09" ry="18"/>
<text text-anchor="middle" x="248" y="-176.3" font-family="Times,serif" font-size="14.00">Marc (b)</text>
</g>
<!-- 28 -->
<g id="node9" class="node">
<title>28</title>
<ellipse fill="none" stroke="black" cx="248" cy="-107" rx="46.59" ry="18"/>
<text text-anchor="middle" x="248" y="-103.3" font-family="Times,serif" font-size="14.00">Mon (b)</text>
</g>
<!-- 1&#45;&gt;28 -->
<g id="edge8" class="edge">
<title>1&#45;&gt;28</title>
<path fill="none" stroke="black" stroke-dasharray="1,5" d="M248,-161.81C248,-153.79 248,-144.05 248,-135.07"/>
<polygon fill="black" stroke="black" points="251.5,-135.03 248,-125.03 244.5,-135.03 251.5,-135.03"/>
</g>
<!-- 4 -->
<g id="node3" class="node">
<title>4</title>
<ellipse fill="none" stroke="black" cx="248" cy="-34" rx="41.69" ry="18"/>
<text text-anchor="middle" x="248" y="-30.3" font-family="Times,serif" font-size="14.00">Sin (b)</text>
</g>
<!-- 11 -->
<g id="node4" class="node">
<title>11</title>
<ellipse fill="none" stroke="black" cx="369" cy="-263" rx="47.39" ry="18"/>
<text text-anchor="middle" x="369" y="-259.3" font-family="Times,serif" font-size="14.00">Taur (b)</text>
</g>
<!-- 11&#45;&gt;1 -->
<g id="edge1" class="edge">
<title>11&#45;&gt;1</title>
<path fill="none" stroke="black" stroke-dasharray="1,5" d="M346.52,-246.95C327.54,-234.25 300.16,-215.92 279.08,-201.81"/>
<polygon fill="black" stroke="black" points="281.02,-198.89 270.77,-196.24 277.13,-204.71 281.02,-198.89"/>
</g>
<!-- 22 -->
<g id="node6" class="node">
<title>22</title>
<ellipse fill="none" stroke="black" cx="366" cy="-180" rx="50.09" ry="18"/>
<text text-anchor="middle" x="366" y="-176.3" font-family="Times,serif" font-size="14.00">V569 (b)</text>
</g>
<!-- 11&#45;&gt;22 -->
<g id="edge5" class="edge">
<title>11&#45;&gt;22</title>
<path fill="none" stroke="black" stroke-dasharray="5,2" d="M368.36,-244.82C367.97,-234.19 367.46,-220.31 367.01,-208.2"/>
<polygon fill="black" stroke="black" points="370.5,-208.02 366.64,-198.15 363.51,-208.28 370.5,-208.02"/>
</g>
<!-- 29 -->
<g id="node10" class="node">
<title>29</title>
<ellipse fill="none" stroke="black" cx="487" cy="-180" rx="53.09" ry="18"/>
<text text-anchor="middle" x="487" y="-176.3" font-family="Times,serif" font-size="14.00">M118 (b)</text>
</g>
<!-- 11&#45;&gt;29 -->
<g id="edge9" class="edge">
<title>11&#45;&gt;29</title>
<path fill="none" stroke="black" stroke-dasharray="5,2" d="M390.92,-246.95C409.23,-234.38 435.56,-216.31 456.02,-202.26"/>
<polygon fill="black" stroke="black" points="458.13,-205.06 464.4,-196.52 454.17,-199.29 458.13,-205.06"/>
</g>
<!-- 14 -->
<g id="node5" class="node">
<title>14</title>
<ellipse fill="none" stroke="black" cx="268" cy="-419" rx="43.59" ry="18"/>
<text text-anchor="middle" x="268" y="-415.3" font-family="Times,serif" font-size="14.00">La2 (b)</text>
</g>
<!-- 23 -->
<g id="node7" class="node">
<title>23</title>
<ellipse fill="none" stroke="black" cx="375" cy="-419" rx="45.49" ry="18"/>
<text text-anchor="middle" x="375" y="-415.3" font-family="Times,serif" font-size="14.00">Nan (b)</text>
</g>
<!-- 32 -->
<g id="node11" class="node">
<title>32</title>
<ellipse fill="none" stroke="black" cx="257" cy="-336" rx="50.09" ry="18"/>
<text text-anchor="middle" x="257" y="-332.3" font-family="Times,serif" font-size="14.00">V536 (b)</text>
</g>
<!-- 23&#45;&gt;32 -->
<g id="edge10" class="edge">
<title>23&#45;&gt;32</title>
<path fill="none" stroke="black" stroke-width="2" d="M353.36,-403.14C334.96,-390.52 308.33,-372.24 287.73,-358.09"/>
<polygon fill="black" stroke="black" stroke-width="2" points="289.53,-355.09 279.31,-352.31 285.57,-360.86 289.53,-355.09"/>
<text text-anchor="middle" x="326.5" y="-375" font-family="Times,serif" font-size="10.00">3</text>
</g>
<!-- 38 -->
<g id="node14" class="node">
<title>38</title>
<ellipse fill="none" stroke="black" cx="375" cy="-336" rx="50.09" ry="18"/>
<text text-anchor="middle" x="375" y="-332.3" font-family="Times,serif" font-size="14.00">V568 (b)</text>
</g>
<!-- 23&#45;&gt;38 -->
<g id="edge13" class="edge">
<title>23&#45;&gt;38</title>
<path fill="none" stroke="black" stroke-width="2" d="M375,-400.82C375,-390.19 375,-376.31 375,-364.2"/>
<polygon fill="black" stroke="black" stroke-width="2" points="378.5,-364.15 375,-354.15 371.5,-364.15 378.5,-364.15"/>
<text text-anchor="middle" x="378.5" y="-375" font-family="Times,serif" font-size="10.00">3</text>
</g>
<!-- 42 -->
<g id="node16" class="node">
<title>42</title>
<ellipse fill="none" stroke="black" cx="509" cy="-336" rx="55.79" ry="18"/>
<text text-anchor="middle" x="509" y="-332.3" font-family="Times,serif" font-size="14.00">V1897 (b)</text>
</g>
<!-- 23&#45;&gt;42 -->
<g id="edge15" class="edge">
<title>23&#45;&gt;42</title>
<path fill="none" stroke="black" stroke-dasharray="1,5" d="M398.96,-403.52C420.18,-390.69 451.41,-371.81 475.18,-357.44"/>
<polygon fill="black" stroke="black" points="477.14,-360.35 483.89,-352.18 473.52,-354.36 477.14,-360.35"/>
</g>
<!-- 27 -->
<g id="node8" class="node">
<title>27</title>
<ellipse fill="none" stroke="black" cx="608" cy="-180" rx="50.09" ry="18"/>
<text text-anchor="middle" x="608" y="-176.3" font-family="Times,serif" font-size="14.00">V560 (b)</text>
</g>
<!-- 41 -->
<g id="node15" class="node">
<title>41</title>
<ellipse fill="none" stroke="black" cx="602" cy="-107" rx="55.79" ry="18"/>
<text text-anchor="middle" x="602" y="-103.3" font-family="Times,serif" font-size="14.00">V1920 (b)</text>
</g>
<!-- 27&#45;&gt;41 -->
<g id="edge14" class="edge">
<title>27&#45;&gt;41</title>
<path fill="none" stroke="black" stroke-dasharray="5,2" d="M606.55,-161.81C605.87,-153.79 605.05,-144.05 604.29,-135.07"/>
<polygon fill="black" stroke="black" points="607.77,-134.7 603.44,-125.03 600.79,-135.29 607.77,-134.7"/>
</g>
<!-- 28&#45;&gt;4 -->
<g id="edge2" class="edge">
<title>28&#45;&gt;4</title>
<path fill="none" stroke="black" stroke-dasharray="1,5" d="M248,-88.81C248,-80.79 248,-71.05 248,-62.07"/>
<polygon fill="black" stroke="black" points="251.5,-62.03 248,-52.03 244.5,-62.03 251.5,-62.03"/>
</g>
<!-- 33 -->
<g id="node12" class="node">
<title>33</title>
<ellipse fill="none" stroke="black" cx="509" cy="-263" rx="42.49" ry="18"/>
<text text-anchor="middle" x="509" y="-259.3" font-family="Times,serif" font-size="14.00">Est (b)</text>
</g>
<!-- 33&#45;&gt;27 -->
<g id="edge7" class="edge">
<title>33&#45;&gt;27</title>
<path fill="none" stroke="black" d="M527.62,-246.76C542.64,-234.48 563.97,-217.02 580.89,-203.18"/>
<polygon fill="black" stroke="black" points="583.26,-205.76 588.79,-196.72 578.83,-200.34 583.26,-205.76"/>
<text text-anchor="middle" x="570.5" y="-219" font-family="Times,serif" font-size="10.00">14</text>
</g>
<!-- 35 -->
<g id="node13" class="node">
<title>35</title>
<ellipse fill="none" stroke="black" cx="613" cy="-263" rx="43.59" ry="18"/>
<text text-anchor="middle" x="613" y="-259.3" font-family="Times,serif" font-size="14.00">Bas (b)</text>
</g>
<!-- 38&#45;&gt;11 -->
<g id="edge3" class="edge">
<title>38&#45;&gt;11</title>
<path fill="none" stroke="black" stroke-dasharray="1,5" d="M373.55,-317.81C372.87,-309.79 372.05,-300.05 371.29,-291.07"/>
<polygon fill="black" stroke="black" points="374.77,-290.7 370.44,-281.03 367.79,-291.29 374.77,-290.7"/>
</g>
<!-- 42&#45;&gt;33 -->
<g id="edge11" class="edge">
<title>42&#45;&gt;33</title>
<path fill="none" stroke="black" stroke-dasharray="1,5" d="M509,-317.81C509,-309.79 509,-300.05 509,-291.07"/>
<polygon fill="black" stroke="black" points="512.5,-291.03 509,-281.03 505.5,-291.03 512.5,-291.03"/>
</g>
<!-- 42&#45;&gt;35 -->
<g id="edge12" class="edge">
<title>42&#45;&gt;35</title>
<path fill="none" stroke="black" d="M531.82,-319.42C546.76,-309.22 566.44,-295.79 582.68,-284.7"/>
<polygon fill="black" stroke="black" points="585.01,-287.35 591.3,-278.82 581.06,-281.56 585.01,-287.35"/>
</g>
<!-- 40 -->
<g id="node17" class="node">
<title>40</title>
<ellipse fill="none" stroke="blue" stroke-dasharray="5,2" cx="322" cy="-493" rx="53.89" ry="18"/>
<text text-anchor="middle" x="322" y="-489.3" font-family="Times,serif" font-size="14.00">aBase (a)</text>
</g>
<!-- 40&#45;&gt;14 -->
<g id="edge4" class="edge">
<title>40&#45;&gt;14</title>
<path fill="none" stroke="blue" stroke-width="2" d="M309.48,-475.3C302.66,-466.21 294.1,-454.8 286.52,-444.7"/>
<polygon fill="blue" stroke="blue" stroke-width="2" points="289.26,-442.51 280.46,-436.61 283.66,-446.71 289.26,-442.51"/>
</g>
<!-- 40&#45;&gt;23 -->
<g id="edge6" class="edge">
<title>40&#45;&gt;23</title>
<path fill="none" stroke="blue" d="M334.29,-475.3C340.98,-466.21 349.39,-454.8 356.82,-444.7"/>
<polygon fill="blue" stroke="blue" points="359.66,-446.74 362.77,-436.61 354.03,-442.59 359.66,-446.74"/>
</g>
</g>
</svg>
