<?xml version="1.0" encoding="UTF-8" standalone="no"?>
<!DOCTYPE svg PUBLIC "-//W3C//DTD SVG 1.1//EN"
 "http://www.w3.org/Graphics/SVG/1.1/DTD/svg11.dtd">
<!-- Generated by graphviz version 2.43.0 (0)
 -->
<!-- Title: textual_flow_diagram Pages: 1 -->
<svg width="438pt" height="161pt"
 viewBox="0.00 0.00 438.00 161.00" xmlns="http://www.w3.org/2000/svg" xmlns:xlink="http://www.w3.org/1999/xlink">
<g id="graph0" class="graph" transform="scale(1 1) rotate(0) translate(4 157)">
<title>textual_flow_diagram</title>
<polygon fill="white" stroke="transparent" points="-4,4 -4,-157 434,-157 434,4 -4,4"/>
<g id="clust1" class="cluster">
<title>cluster_legend</title>
<polygon fill="none" stroke="black" points="8,-91 8,-145 182,-145 182,-91 8,-91"/>
</g>
<g id="clust2" class="cluster">
<title>cluster_plot</title>
</g>
<!-- label -->
<g id="node1" class="node">
<title>label</title>
<text text-anchor="middle" x="95" y="-121.8" font-family="Times,serif" font-size="14.00">adstag1.3.34U30, a</text>
<text text-anchor="middle" x="95" y="-106.8" font-family="Times,serif" font-size="14.00">Con = 10</text>
</g>
<!-- 6 -->
<g id="node2" class="node">
<title>6</title>
<ellipse fill="none" stroke="black" cx="241" cy="-34" rx="42.79" ry="18"/>
<text text-anchor="middle" x="241" y="-30.3" font-family="Times,serif" font-size="14.00">Bas (a)</text>
</g>
<!-- 37 -->
<g id="node3" class="node">
<title>37</title>
<ellipse fill="none" stroke="black" cx="300" cy="-118" rx="53.89" ry="18"/>
<text text-anchor="middle" x="300" y="-114.3" font-family="Times,serif" font-size="14.00">aBase (a)</text>
</g>
<!-- 37&#45;&gt;6 -->
<g id="edge1" class="edge">
<title>37&#45;&gt;6</title>
<path fill="none" stroke="black" stroke-width="2" d="M288.06,-100.41C279.66,-88.74 268.28,-72.92 258.82,-59.76"/>
<polygon fill="black" stroke="black" stroke-width="2" points="261.6,-57.64 252.92,-51.57 255.92,-61.73 261.6,-57.64"/>
<text text-anchor="middle" x="277.5" y="-73" font-family="Times,serif" font-size="10.00">3</text>
</g>
<!-- 38 -->
<g id="node4" class="node">
<title>38</title>
<ellipse fill="none" stroke="black" cx="358" cy="-34" rx="55.79" ry="18"/>
<text text-anchor="middle" x="358" y="-30.3" font-family="Times,serif" font-size="14.00">V1629 (a)</text>
</g>
<!-- 37&#45;&gt;38 -->
<g id="edge2" class="edge">
<title>37&#45;&gt;38</title>
<path fill="none" stroke="black" stroke-width="2" d="M311.74,-100.41C319.94,-88.81 331.03,-73.13 340.3,-60.02"/>
<polygon fill="black" stroke="black" stroke-width="2" points="343.16,-62.04 346.08,-51.85 337.45,-57.99 343.16,-62.04"/>
<text text-anchor="middle" x="335.5" y="-73" font-family="Times,serif" font-size="10.00">3</text>
</g>
</g>
</svg>
