<?xml version="1.0" encoding="UTF-8" standalone="no"?>
<!DOCTYPE svg PUBLIC "-//W3C//DTD SVG 1.1//EN"
 "http://www.w3.org/Graphics/SVG/1.1/DTD/svg11.dtd">
<!-- Generated by graphviz version 2.43.0 (0)
 -->
<!-- Title: textual_flow_diagram Pages: 1 -->
<svg width="1731pt" height="473pt"
 viewBox="0.00 0.00 1731.00 473.00" xmlns="http://www.w3.org/2000/svg" xmlns:xlink="http://www.w3.org/1999/xlink">
<g id="graph0" class="graph" transform="scale(1 1) rotate(0) translate(4 469)">
<title>textual_flow_diagram</title>
<polygon fill="white" stroke="transparent" points="-4,4 -4,-469 1727,-469 1727,4 -4,4"/>
<g id="clust1" class="cluster">
<title>cluster_legend</title>
<polygon fill="none" stroke="black" points="8,-403 8,-457 186,-457 186,-403 8,-403"/>
</g>
<g id="clust2" class="cluster">
<title>cluster_plot</title>
</g>
<!-- label -->
<g id="node1" class="node">
<title>label</title>
<text text-anchor="middle" x="97" y="-433.8" font-family="Times,serif" font-size="14.00">adstag1.3.22U4&#45;6, d</text>
<text text-anchor="middle" x="97" y="-418.8" font-family="Times,serif" font-size="14.00">Con = 5</text>
</g>
<!-- 0 -->
<g id="node2" class="node">
<title>0</title>
<ellipse fill="none" stroke="black" cx="1184" cy="-34" rx="55.79" ry="18"/>
<text text-anchor="middle" x="1184" y="-30.3" font-family="Times,serif" font-size="14.00">V1629 (d)</text>
</g>
<!-- 2 -->
<g id="node3" class="node">
<title>2</title>
<ellipse fill="none" stroke="black" cx="255" cy="-273" rx="50.09" ry="18"/>
<text text-anchor="middle" x="255" y="-269.3" font-family="Times,serif" font-size="14.00">V566 (d)</text>
</g>
<!-- 4 -->
<g id="node4" class="node">
<title>4</title>
<ellipse fill="none" stroke="black" cx="258" cy="-190" rx="55.79" ry="18"/>
<text text-anchor="middle" x="258" y="-186.3" font-family="Times,serif" font-size="14.00">V1639 (d)</text>
</g>
<!-- 2&#45;&gt;4 -->
<g id="edge3" class="edge">
<title>2&#45;&gt;4</title>
<path fill="none" stroke="black" stroke-dasharray="1,5" d="M255.64,-254.82C256.03,-244.19 256.54,-230.31 256.99,-218.2"/>
<polygon fill="black" stroke="black" points="260.49,-218.28 257.36,-208.15 253.5,-218.02 260.49,-218.28"/>
</g>
<!-- 5 -->
<g id="node5" class="node">
<title>5</title>
<ellipse fill="none" stroke="black" cx="721" cy="-190" rx="44.39" ry="18"/>
<text text-anchor="middle" x="721" y="-186.3" font-family="Times,serif" font-size="14.00">P74 (d)</text>
</g>
<!-- 6 -->
<g id="node6" class="node">
<title>6</title>
<ellipse fill="none" stroke="black" cx="1184" cy="-107" rx="50.89" ry="18"/>
<text text-anchor="middle" x="1184" y="-103.3" font-family="Times,serif" font-size="14.00">Neap (d)</text>
</g>
<!-- 6&#45;&gt;0 -->
<g id="edge1" class="edge">
<title>6&#45;&gt;0</title>
<path fill="none" stroke="black" stroke-dasharray="1,5" d="M1184,-88.81C1184,-80.79 1184,-71.05 1184,-62.07"/>
<polygon fill="black" stroke="black" points="1187.5,-62.03 1184,-52.03 1180.5,-62.03 1187.5,-62.03"/>
</g>
<!-- 8 -->
<g id="node7" class="node">
<title>8</title>
<ellipse fill="none" stroke="black" cx="367" cy="-273" rx="44.39" ry="18"/>
<text text-anchor="middle" x="367" y="-269.3" font-family="Times,serif" font-size="14.00">S32 (d)</text>
</g>
<!-- 10 -->
<g id="node8" class="node">
<title>10</title>
<ellipse fill="none" stroke="black" cx="606" cy="-107" rx="44.69" ry="18"/>
<text text-anchor="middle" x="606" y="-103.3" font-family="Times,serif" font-size="14.00">B39 (d)</text>
</g>
<!-- 14 -->
<g id="node9" class="node">
<title>14</title>
<ellipse fill="none" stroke="black" cx="839" cy="-190" rx="55.79" ry="18"/>
<text text-anchor="middle" x="839" y="-186.3" font-family="Times,serif" font-size="14.00">V2036 (d)</text>
</g>
<!-- 15 -->
<g id="node10" class="node">
<title>15</title>
<ellipse fill="none" stroke="black" cx="606" cy="-190" rx="53.09" ry="18"/>
<text text-anchor="middle" x="606" y="-186.3" font-family="Times,serif" font-size="14.00">LaSM (d)</text>
</g>
<!-- 15&#45;&gt;10 -->
<g id="edge7" class="edge">
<title>15&#45;&gt;10</title>
<path fill="none" stroke="black" stroke-dasharray="5,2" d="M606,-171.82C606,-161.19 606,-147.31 606,-135.2"/>
<polygon fill="black" stroke="black" points="609.5,-135.15 606,-125.15 602.5,-135.15 609.5,-135.15"/>
</g>
<!-- 16 -->
<g id="node11" class="node">
<title>16</title>
<ellipse fill="none" stroke="black" cx="492" cy="-190" rx="42.49" ry="18"/>
<text text-anchor="middle" x="492" y="-186.3" font-family="Times,serif" font-size="14.00">Est (d)</text>
</g>
<!-- 17 -->
<g id="node12" class="node">
<title>17</title>
<ellipse fill="none" stroke="black" cx="382" cy="-190" rx="50.09" ry="18"/>
<text text-anchor="middle" x="382" y="-186.3" font-family="Times,serif" font-size="14.00">V560 (d)</text>
</g>
<!-- 18 -->
<g id="node13" class="node">
<title>18</title>
<ellipse fill="none" stroke="black" cx="956" cy="-190" rx="43.59" ry="18"/>
<text text-anchor="middle" x="956" y="-186.3" font-family="Times,serif" font-size="14.00">La2 (d)</text>
</g>
<!-- 22 -->
<g id="node14" class="node">
<title>22</title>
<ellipse fill="none" stroke="black" cx="1065" cy="-190" rx="47.39" ry="18"/>
<text text-anchor="middle" x="1065" y="-186.3" font-family="Times,serif" font-size="14.00">Bodl (d)</text>
</g>
<!-- 28 -->
<g id="node15" class="node">
<title>28</title>
<ellipse fill="none" stroke="black" cx="1184" cy="-190" rx="53.09" ry="18"/>
<text text-anchor="middle" x="1184" y="-186.3" font-family="Times,serif" font-size="14.00">M136 (d)</text>
</g>
<!-- 28&#45;&gt;6 -->
<g id="edge5" class="edge">
<title>28&#45;&gt;6</title>
<path fill="none" stroke="black" stroke-dasharray="5,2" d="M1184,-171.82C1184,-161.19 1184,-147.31 1184,-135.2"/>
<polygon fill="black" stroke="black" points="1187.5,-135.15 1184,-125.15 1180.5,-135.15 1187.5,-135.15"/>
<text text-anchor="middle" x="1187.5" y="-146" font-family="Times,serif" font-size="10.00">2</text>
</g>
<!-- 30 -->
<g id="node16" class="node">
<title>30</title>
<ellipse fill="none" stroke="black" cx="1305" cy="-190" rx="50.09" ry="18"/>
<text text-anchor="middle" x="1305" y="-186.3" font-family="Times,serif" font-size="14.00">V565 (d)</text>
</g>
<!-- 31 -->
<g id="node17" class="node">
<title>31</title>
<ellipse fill="none" stroke="black" cx="479" cy="-273" rx="50.09" ry="18"/>
<text text-anchor="middle" x="479" y="-269.3" font-family="Times,serif" font-size="14.00">Patm (d)</text>
</g>
<!-- 31&#45;&gt;17 -->
<g id="edge11" class="edge">
<title>31&#45;&gt;17</title>
<path fill="none" stroke="black" stroke-width="2" d="M459.84,-256C445.26,-243.83 425.02,-226.93 408.84,-213.41"/>
<polygon fill="black" stroke="black" stroke-width="2" points="410.71,-210.42 400.79,-206.69 406.23,-215.79 410.71,-210.42"/>
<text text-anchor="middle" x="439.5" y="-229" font-family="Times,serif" font-size="10.00">2</text>
</g>
<!-- 32 -->
<g id="node18" class="node">
<title>32</title>
<ellipse fill="none" stroke="black" cx="603" cy="-273" rx="55.79" ry="18"/>
<text text-anchor="middle" x="603" y="-269.3" font-family="Times,serif" font-size="14.00">V1897 (d)</text>
</g>
<!-- 32&#45;&gt;16 -->
<g id="edge10" class="edge">
<title>32&#45;&gt;16</title>
<path fill="none" stroke="black" stroke-dasharray="1,5" d="M581.33,-256.19C564.05,-243.57 539.67,-225.79 520.75,-211.98"/>
<polygon fill="black" stroke="black" points="522.63,-209.02 512.49,-205.95 518.5,-214.67 522.63,-209.02"/>
</g>
<!-- 33 -->
<g id="node19" class="node">
<title>33</title>
<ellipse fill="none" stroke="black" cx="1423" cy="-190" rx="50.09" ry="18"/>
<text text-anchor="middle" x="1423" y="-186.3" font-family="Times,serif" font-size="14.00">A116 (d)</text>
</g>
<!-- 34 -->
<g id="node20" class="node">
<title>34</title>
<ellipse fill="none" stroke="black" cx="721" cy="-273" rx="44.39" ry="18"/>
<text text-anchor="middle" x="721" y="-269.3" font-family="Times,serif" font-size="14.00">P01 (d)</text>
</g>
<!-- 34&#45;&gt;15 -->
<g id="edge9" class="edge">
<title>34&#45;&gt;15</title>
<path fill="none" stroke="black" stroke-dasharray="5,2" d="M699.91,-257.14C682.09,-244.59 656.35,-226.47 636.33,-212.36"/>
<polygon fill="black" stroke="black" points="638.33,-209.49 628.13,-206.59 634.29,-215.21 638.33,-209.49"/>
<text text-anchor="middle" x="673.5" y="-229" font-family="Times,serif" font-size="10.00">2</text>
</g>
<!-- 37 -->
<g id="node21" class="node">
<title>37</title>
<ellipse fill="none" stroke="black" cx="1541" cy="-190" rx="50.09" ry="18"/>
<text text-anchor="middle" x="1541" y="-186.3" font-family="Times,serif" font-size="14.00">V571 (d)</text>
</g>
<!-- 38 -->
<g id="node22" class="node">
<title>38</title>
<ellipse fill="none" stroke="black" cx="1065" cy="-273" rx="49.29" ry="18"/>
<text text-anchor="middle" x="1065" y="-269.3" font-family="Times,serif" font-size="14.00">La22 (d)</text>
</g>
<!-- 38&#45;&gt;5 -->
<g id="edge4" class="edge">
<title>38&#45;&gt;5</title>
<path fill="none" stroke="black" stroke-dasharray="1,5" d="M1022.29,-263.91C965.29,-252.82 861.4,-231.57 774,-208 770.63,-207.09 767.16,-206.1 763.68,-205.07"/>
<polygon fill="black" stroke="black" points="764.52,-201.67 753.94,-202.09 762.48,-208.36 764.52,-201.67"/>
</g>
<!-- 38&#45;&gt;14 -->
<g id="edge8" class="edge">
<title>38&#45;&gt;14</title>
<path fill="none" stroke="black" stroke-dasharray="5,2" d="M1031.17,-259.87C992.13,-245.88 927.76,-222.81 884.39,-207.27"/>
<polygon fill="black" stroke="black" points="885.53,-203.96 874.94,-203.88 883.17,-210.55 885.53,-203.96"/>
</g>
<!-- 38&#45;&gt;18 -->
<g id="edge12" class="edge">
<title>38&#45;&gt;18</title>
<path fill="none" stroke="black" d="M1044.24,-256.57C1027.31,-244 1003.23,-226.1 984.5,-212.18"/>
<polygon fill="black" stroke="black" points="986.43,-209.25 976.31,-206.09 982.25,-214.87 986.43,-209.25"/>
<text text-anchor="middle" x="1020.5" y="-229" font-family="Times,serif" font-size="10.00">2</text>
</g>
<!-- 38&#45;&gt;22 -->
<g id="edge13" class="edge">
<title>38&#45;&gt;22</title>
<path fill="none" stroke="black" stroke-dasharray="5,2" d="M1065,-254.82C1065,-244.19 1065,-230.31 1065,-218.2"/>
<polygon fill="black" stroke="black" points="1068.5,-218.15 1065,-208.15 1061.5,-218.15 1068.5,-218.15"/>
</g>
<!-- 38&#45;&gt;28 -->
<g id="edge14" class="edge">
<title>38&#45;&gt;28</title>
<path fill="none" stroke="black" d="M1087.38,-256.76C1105.88,-244.17 1132.35,-226.16 1152.91,-212.17"/>
<polygon fill="black" stroke="black" points="1155.02,-214.96 1161.31,-206.44 1151.08,-209.18 1155.02,-214.96"/>
<text text-anchor="middle" x="1134.5" y="-229" font-family="Times,serif" font-size="10.00">2</text>
</g>
<!-- 38&#45;&gt;30 -->
<g id="edge15" class="edge">
<title>38&#45;&gt;30</title>
<path fill="none" stroke="black" stroke-dasharray="5,2" d="M1099.9,-260.22C1142.26,-245.93 1213.76,-221.79 1260.17,-206.13"/>
<polygon fill="black" stroke="black" points="1261.31,-209.44 1269.67,-202.92 1259.07,-202.81 1261.31,-209.44"/>
</g>
<!-- 38&#45;&gt;33 -->
<g id="edge18" class="edge">
<title>38&#45;&gt;33</title>
<path fill="none" stroke="black" stroke-dasharray="5,2" d="M1101.69,-260.89C1109.05,-258.82 1116.75,-256.75 1124,-255 1229.66,-229.48 1258.34,-233.52 1364,-208 1368.02,-207.03 1372.18,-205.96 1376.34,-204.85"/>
<polygon fill="black" stroke="black" points="1377.28,-208.22 1385.99,-202.2 1375.42,-201.47 1377.28,-208.22"/>
</g>
<!-- 38&#45;&gt;37 -->
<g id="edge20" class="edge">
<title>38&#45;&gt;37</title>
<path fill="none" stroke="black" stroke-dasharray="1,5" d="M1101.29,-260.62C1108.75,-258.54 1116.59,-256.54 1124,-255 1202.55,-238.62 1403.45,-224.38 1482,-208 1486.11,-207.14 1490.35,-206.15 1494.58,-205.08"/>
<polygon fill="black" stroke="black" points="1495.62,-208.42 1504.39,-202.47 1493.83,-201.66 1495.62,-208.42"/>
</g>
<!-- 42 -->
<g id="node25" class="node">
<title>42</title>
<ellipse fill="none" stroke="black" cx="1658" cy="-190" rx="49.29" ry="18"/>
<text text-anchor="middle" x="1658" y="-186.3" font-family="Times,serif" font-size="14.00">La35 (d)</text>
</g>
<!-- 38&#45;&gt;42 -->
<g id="edge24" class="edge">
<title>38&#45;&gt;42</title>
<path fill="none" stroke="black" stroke-dasharray="1,5" d="M1100.94,-260.51C1108.5,-258.42 1116.46,-256.44 1124,-255 1204.7,-239.56 1226.23,-245.06 1308,-237 1437.79,-224.21 1471.98,-232.89 1600,-208 1604.11,-207.2 1608.36,-206.24 1612.59,-205.18"/>
<polygon fill="black" stroke="black" points="1613.6,-208.53 1622.37,-202.57 1611.8,-201.76 1613.6,-208.53"/>
</g>
<!-- 39 -->
<g id="node23" class="node">
<title>39</title>
<ellipse fill="none" stroke="black" cx="603" cy="-356" rx="44.39" ry="18"/>
<text text-anchor="middle" x="603" y="-352.3" font-family="Times,serif" font-size="14.00">A25 (d)</text>
</g>
<!-- 39&#45;&gt;2 -->
<g id="edge2" class="edge">
<title>39&#45;&gt;2</title>
<path fill="none" stroke="black" stroke-dasharray="5,2" d="M564.02,-347.18C508.33,-335.82 402.9,-313.63 314,-291 310.16,-290.02 306.19,-288.97 302.21,-287.88"/>
<polygon fill="black" stroke="black" points="302.93,-284.45 292.36,-285.15 301.05,-291.2 302.93,-284.45"/>
</g>
<!-- 39&#45;&gt;8 -->
<g id="edge6" class="edge">
<title>39&#45;&gt;8</title>
<path fill="none" stroke="black" stroke-dasharray="5,2" d="M570.19,-343.74C528.3,-329.36 455.74,-304.46 409.62,-288.63"/>
<polygon fill="black" stroke="black" points="410.51,-285.23 399.92,-285.3 408.24,-291.85 410.51,-285.23"/>
</g>
<!-- 39&#45;&gt;31 -->
<g id="edge16" class="edge">
<title>39&#45;&gt;31</title>
<path fill="none" stroke="black" stroke-dasharray="1,5" d="M580.54,-340.33C561.04,-327.59 532.57,-308.99 510.74,-294.73"/>
<polygon fill="black" stroke="black" points="512.42,-291.65 502.13,-289.11 508.59,-297.51 512.42,-291.65"/>
</g>
<!-- 39&#45;&gt;32 -->
<g id="edge17" class="edge">
<title>39&#45;&gt;32</title>
<path fill="none" stroke="black" stroke-dasharray="5,2" d="M603,-337.82C603,-327.19 603,-313.31 603,-301.2"/>
<polygon fill="black" stroke="black" points="606.5,-301.15 603,-291.15 599.5,-301.15 606.5,-301.15"/>
<text text-anchor="middle" x="606.5" y="-312" font-family="Times,serif" font-size="10.00">3</text>
</g>
<!-- 39&#45;&gt;34 -->
<g id="edge19" class="edge">
<title>39&#45;&gt;34</title>
<path fill="none" stroke="black" stroke-dasharray="5,2" d="M624.64,-340.14C643.27,-327.36 670.34,-308.77 691.05,-294.56"/>
<polygon fill="black" stroke="black" points="693.23,-297.31 699.49,-288.76 689.27,-291.54 693.23,-297.31"/>
</g>
<!-- 39&#45;&gt;38 -->
<g id="edge21" class="edge">
<title>39&#45;&gt;38</title>
<path fill="none" stroke="black" stroke-dasharray="1,5" d="M642.79,-348.02C725.81,-333.47 917.52,-299.86 1011.33,-283.41"/>
<polygon fill="black" stroke="black" points="1012.21,-286.81 1021.46,-281.63 1011.01,-279.91 1012.21,-286.81"/>
<text text-anchor="middle" x="864.5" y="-312" font-family="Times,serif" font-size="10.00">2</text>
</g>
<!-- 41 -->
<g id="node24" class="node">
<title>41</title>
<ellipse fill="none" stroke="black" cx="1173" cy="-273" rx="40.09" ry="18"/>
<text text-anchor="middle" x="1173" y="-269.3" font-family="Times,serif" font-size="14.00">Pal (d)</text>
</g>
<!-- 39&#45;&gt;41 -->
<g id="edge23" class="edge">
<title>39&#45;&gt;41</title>
<path fill="none" stroke="black" stroke-dasharray="5,2" d="M646.67,-352.66C736.73,-347.17 949.22,-330.79 1123,-291 1126.41,-290.22 1129.91,-289.29 1133.41,-288.28"/>
<polygon fill="black" stroke="black" points="1134.63,-291.57 1143.15,-285.26 1132.56,-284.88 1134.63,-291.57"/>
</g>
<!-- 36 -->
<g id="node26" class="node">
<title>36</title>
<ellipse fill="none" stroke="blue" stroke-dasharray="5,2" cx="603" cy="-430" rx="53.89" ry="18"/>
<text text-anchor="middle" x="603" y="-426.3" font-family="Times,serif" font-size="14.00">aBase (a)</text>
</g>
<!-- 36&#45;&gt;39 -->
<g id="edge22" class="edge">
<title>36&#45;&gt;39</title>
<path fill="none" stroke="blue" stroke-dasharray="5,2" d="M603,-411.94C603,-403.81 603,-393.88 603,-384.7"/>
<polygon fill="blue" stroke="blue" points="606.5,-384.44 603,-374.44 599.5,-384.44 606.5,-384.44"/>
</g>
</g>
</svg>
