<?xml version="1.0" encoding="UTF-8" standalone="no"?>
<!DOCTYPE svg PUBLIC "-//W3C//DTD SVG 1.1//EN"
 "http://www.w3.org/Graphics/SVG/1.1/DTD/svg11.dtd">
<!-- Generated by graphviz version 2.43.0 (0)
 -->
<!-- Title: textual_flow_diagram Pages: 1 -->
<svg width="1170pt" height="546pt"
 viewBox="0.00 0.00 1170.00 546.00" xmlns="http://www.w3.org/2000/svg" xmlns:xlink="http://www.w3.org/1999/xlink">
<g id="graph0" class="graph" transform="scale(1 1) rotate(0) translate(4 542)">
<title>textual_flow_diagram</title>
<polygon fill="white" stroke="transparent" points="-4,4 -4,-542 1166,-542 1166,4 -4,4"/>
<g id="clust1" class="cluster">
<title>cluster_legend</title>
<polygon fill="none" stroke="black" points="8,-476 8,-530 204,-530 204,-476 8,-476"/>
</g>
<g id="clust2" class="cluster">
<title>cluster_plot</title>
</g>
<!-- label -->
<g id="node1" class="node">
<title>label</title>
<text text-anchor="middle" x="106" y="-506.8" font-family="Times,serif" font-size="14.00">adstag1.3.47U54&#45;60, a</text>
<text text-anchor="middle" x="106" y="-491.8" font-family="Times,serif" font-size="14.00">Con = 5</text>
</g>
<!-- 0 -->
<g id="node2" class="node">
<title>0</title>
<ellipse fill="none" stroke="black" cx="382" cy="-336" rx="44.39" ry="18"/>
<text text-anchor="middle" x="382" y="-332.3" font-family="Times,serif" font-size="14.00">P74 (a)</text>
</g>
<!-- 2 -->
<g id="node3" class="node">
<title>2</title>
<ellipse fill="none" stroke="black" cx="662" cy="-503" rx="53.89" ry="18"/>
<text text-anchor="middle" x="662" y="-499.3" font-family="Times,serif" font-size="14.00">aBase (a)</text>
</g>
<!-- 6 -->
<g id="node5" class="node">
<title>6</title>
<ellipse fill="none" stroke="black" cx="381" cy="-419" rx="41.69" ry="18"/>
<text text-anchor="middle" x="381" y="-415.3" font-family="Times,serif" font-size="14.00">Est (a)</text>
</g>
<!-- 2&#45;&gt;6 -->
<g id="edge3" class="edge">
<title>2&#45;&gt;6</title>
<path fill="none" stroke="black" d="M622.63,-490.51C570.3,-475.24 478.16,-448.35 424.04,-432.56"/>
<polygon fill="black" stroke="black" points="424.98,-429.19 414.4,-429.75 423.02,-435.91 424.98,-429.19"/>
<text text-anchor="middle" x="541.5" y="-458" font-family="Times,serif" font-size="10.00">3</text>
</g>
<!-- 7 -->
<g id="node6" class="node">
<title>7</title>
<ellipse fill="none" stroke="black" cx="551" cy="-419" rx="44.39" ry="18"/>
<text text-anchor="middle" x="551" y="-415.3" font-family="Times,serif" font-size="14.00">S32 (a)</text>
</g>
<!-- 2&#45;&gt;7 -->
<g id="edge4" class="edge">
<title>2&#45;&gt;7</title>
<path fill="none" stroke="black" d="M640.86,-486.38C623.44,-473.51 598.56,-455.14 579.4,-440.98"/>
<polygon fill="black" stroke="black" points="581.43,-438.13 571.31,-435.01 577.28,-443.76 581.43,-438.13"/>
<text text-anchor="middle" x="616.5" y="-458" font-family="Times,serif" font-size="10.00">3</text>
</g>
<!-- 21 -->
<g id="node10" class="node">
<title>21</title>
<ellipse fill="none" stroke="black" cx="662" cy="-419" rx="48.99" ry="18"/>
<text text-anchor="middle" x="662" y="-415.3" font-family="Times,serif" font-size="14.00">La22 (a)</text>
</g>
<!-- 2&#45;&gt;21 -->
<g id="edge8" class="edge">
<title>2&#45;&gt;21</title>
<path fill="none" stroke="black" stroke-dasharray="5,2" d="M662,-484.61C662,-473.77 662,-459.6 662,-447.29"/>
<polygon fill="black" stroke="black" points="665.5,-447.08 662,-437.08 658.5,-447.08 665.5,-447.08"/>
</g>
<!-- 34 -->
<g id="node16" class="node">
<title>34</title>
<ellipse fill="none" stroke="black" cx="773" cy="-419" rx="44.39" ry="18"/>
<text text-anchor="middle" x="773" y="-415.3" font-family="Times,serif" font-size="14.00">B39 (a)</text>
</g>
<!-- 2&#45;&gt;34 -->
<g id="edge14" class="edge">
<title>2&#45;&gt;34</title>
<path fill="none" stroke="black" stroke-width="2" d="M683.14,-486.38C700.56,-473.51 725.44,-455.14 744.6,-440.98"/>
<polygon fill="black" stroke="black" stroke-width="2" points="746.72,-443.76 752.69,-435.01 742.57,-438.13 746.72,-443.76"/>
<text text-anchor="middle" x="727.5" y="-458" font-family="Times,serif" font-size="10.00">2</text>
</g>
<!-- 41 -->
<g id="node20" class="node">
<title>41</title>
<ellipse fill="none" stroke="black" cx="895" cy="-419" rx="50.09" ry="18"/>
<text text-anchor="middle" x="895" y="-415.3" font-family="Times,serif" font-size="14.00">V566 (a)</text>
</g>
<!-- 2&#45;&gt;41 -->
<g id="edge18" class="edge">
<title>2&#45;&gt;41</title>
<path fill="none" stroke="black" d="M697.64,-489.46C738.77,-474.98 806.42,-451.17 850.84,-435.54"/>
<polygon fill="black" stroke="black" points="852.23,-438.76 860.5,-432.14 849.91,-432.16 852.23,-438.76"/>
<text text-anchor="middle" x="795.5" y="-458" font-family="Times,serif" font-size="10.00">2</text>
</g>
<!-- 4 -->
<g id="node4" class="node">
<title>4</title>
<ellipse fill="none" stroke="black" cx="270" cy="-107" rx="46.29" ry="18"/>
<text text-anchor="middle" x="270" y="-103.3" font-family="Times,serif" font-size="14.00">Mon (a)</text>
</g>
<!-- 26 -->
<g id="node13" class="node">
<title>26</title>
<ellipse fill="none" stroke="black" cx="270" cy="-34" rx="40.89" ry="18"/>
<text text-anchor="middle" x="270" y="-30.3" font-family="Times,serif" font-size="14.00">Sin (a)</text>
</g>
<!-- 4&#45;&gt;26 -->
<g id="edge11" class="edge">
<title>4&#45;&gt;26</title>
<path fill="none" stroke="black" stroke-dasharray="1,5" d="M270,-88.81C270,-80.79 270,-71.05 270,-62.07"/>
<polygon fill="black" stroke="black" points="273.5,-62.03 270,-52.03 266.5,-62.03 273.5,-62.03"/>
</g>
<!-- 40 -->
<g id="node19" class="node">
<title>40</title>
<ellipse fill="none" stroke="black" cx="270" cy="-336" rx="50.09" ry="18"/>
<text text-anchor="middle" x="270" y="-332.3" font-family="Times,serif" font-size="14.00">V536 (a)</text>
</g>
<!-- 6&#45;&gt;40 -->
<g id="edge17" class="edge">
<title>6&#45;&gt;40</title>
<path fill="none" stroke="black" d="M360.64,-403.14C343.52,-390.65 318.82,-372.63 299.53,-358.55"/>
<polygon fill="black" stroke="black" points="301.51,-355.66 291.36,-352.59 297.38,-361.31 301.51,-355.66"/>
<text text-anchor="middle" x="335.5" y="-375" font-family="Times,serif" font-size="10.00">5</text>
</g>
<!-- 15 -->
<g id="node7" class="node">
<title>15</title>
<ellipse fill="none" stroke="black" cx="270" cy="-253" rx="46.59" ry="18"/>
<text text-anchor="middle" x="270" y="-249.3" font-family="Times,serif" font-size="14.00">Taur (a)</text>
</g>
<!-- 24 -->
<g id="node12" class="node">
<title>24</title>
<ellipse fill="none" stroke="black" cx="270" cy="-180" rx="50.09" ry="18"/>
<text text-anchor="middle" x="270" y="-176.3" font-family="Times,serif" font-size="14.00">Marc (a)</text>
</g>
<!-- 15&#45;&gt;24 -->
<g id="edge10" class="edge">
<title>15&#45;&gt;24</title>
<path fill="none" stroke="black" stroke-dasharray="1,5" d="M270,-234.81C270,-226.79 270,-217.05 270,-208.07"/>
<polygon fill="black" stroke="black" points="273.5,-208.03 270,-198.03 266.5,-208.03 273.5,-208.03"/>
</g>
<!-- 27 -->
<g id="node14" class="node">
<title>27</title>
<ellipse fill="none" stroke="black" cx="388" cy="-180" rx="50.09" ry="18"/>
<text text-anchor="middle" x="388" y="-176.3" font-family="Times,serif" font-size="14.00">V569 (a)</text>
</g>
<!-- 15&#45;&gt;27 -->
<g id="edge12" class="edge">
<title>15&#45;&gt;27</title>
<path fill="none" stroke="black" stroke-dasharray="5,2" d="M294.16,-237.46C311.63,-226.95 335.43,-212.63 354.7,-201.04"/>
<polygon fill="black" stroke="black" points="356.7,-203.92 363.46,-195.76 353.09,-197.92 356.7,-203.92"/>
</g>
<!-- 16 -->
<g id="node8" class="node">
<title>16</title>
<ellipse fill="none" stroke="black" cx="1090" cy="-336" rx="55.79" ry="18"/>
<text text-anchor="middle" x="1090" y="-332.3" font-family="Times,serif" font-size="14.00">V1639 (a)</text>
</g>
<!-- 20 -->
<g id="node9" class="node">
<title>20</title>
<ellipse fill="none" stroke="black" cx="497" cy="-336" rx="52.79" ry="18"/>
<text text-anchor="middle" x="497" y="-332.3" font-family="Times,serif" font-size="14.00">M111 (a)</text>
</g>
<!-- 21&#45;&gt;0 -->
<g id="edge1" class="edge">
<title>21&#45;&gt;0</title>
<path fill="none" stroke="black" stroke-dasharray="1,5" d="M625.2,-407.13C618.17,-405.08 610.86,-402.96 604,-401 529.04,-379.59 509.69,-376.35 435,-354 431.71,-353.01 428.3,-351.97 424.89,-350.91"/>
<polygon fill="black" stroke="black" points="425.89,-347.56 415.3,-347.9 423.79,-354.24 425.89,-347.56"/>
</g>
<!-- 21&#45;&gt;20 -->
<g id="edge7" class="edge">
<title>21&#45;&gt;20</title>
<path fill="none" stroke="black" stroke-dasharray="1,5" d="M634.01,-404.26C606.76,-390.88 565.16,-370.46 534.94,-355.63"/>
<polygon fill="black" stroke="black" points="536.48,-352.48 525.96,-351.22 533.39,-358.77 536.48,-352.48"/>
</g>
<!-- 22 -->
<g id="node11" class="node">
<title>22</title>
<ellipse fill="none" stroke="black" cx="618" cy="-336" rx="50.09" ry="18"/>
<text text-anchor="middle" x="618" y="-332.3" font-family="Times,serif" font-size="14.00">V571 (a)</text>
</g>
<!-- 21&#45;&gt;22 -->
<g id="edge9" class="edge">
<title>21&#45;&gt;22</title>
<path fill="none" stroke="black" stroke-dasharray="1,5" d="M652.88,-401.22C646.87,-390.14 638.86,-375.41 632.04,-362.85"/>
<polygon fill="black" stroke="black" points="634.95,-360.88 627.11,-353.76 628.8,-364.22 634.95,-360.88"/>
</g>
<!-- 33 -->
<g id="node15" class="node">
<title>33</title>
<ellipse fill="none" stroke="black" cx="733" cy="-336" rx="46.59" ry="18"/>
<text text-anchor="middle" x="733" y="-332.3" font-family="Times,serif" font-size="14.00">Bodl (a)</text>
</g>
<!-- 21&#45;&gt;33 -->
<g id="edge13" class="edge">
<title>21&#45;&gt;33</title>
<path fill="none" stroke="black" stroke-dasharray="5,2" d="M676.37,-401.61C686.57,-389.97 700.43,-374.16 711.89,-361.09"/>
<polygon fill="black" stroke="black" points="714.69,-363.19 718.65,-353.37 709.43,-358.58 714.69,-363.19"/>
</g>
<!-- 36 -->
<g id="node17" class="node">
<title>36</title>
<ellipse fill="none" stroke="black" cx="848" cy="-336" rx="50.09" ry="18"/>
<text text-anchor="middle" x="848" y="-332.3" font-family="Times,serif" font-size="14.00">A116 (a)</text>
</g>
<!-- 21&#45;&gt;36 -->
<g id="edge15" class="edge">
<title>21&#45;&gt;36</title>
<path fill="none" stroke="black" stroke-dasharray="5,2" d="M692.3,-404.81C723.82,-391.08 773.33,-369.52 808.04,-354.4"/>
<polygon fill="black" stroke="black" points="809.63,-357.53 817.41,-350.32 806.84,-351.11 809.63,-357.53"/>
</g>
<!-- 38 -->
<g id="node18" class="node">
<title>38</title>
<ellipse fill="none" stroke="black" cx="966" cy="-336" rx="50.09" ry="18"/>
<text text-anchor="middle" x="966" y="-332.3" font-family="Times,serif" font-size="14.00">V565 (a)</text>
</g>
<!-- 21&#45;&gt;38 -->
<g id="edge16" class="edge">
<title>21&#45;&gt;38</title>
<path fill="none" stroke="black" stroke-dasharray="5,2" d="M698.76,-406.99C705.8,-404.95 713.12,-402.87 720,-401 802.69,-378.5 824.26,-376.31 907,-354 910.83,-352.97 914.79,-351.88 918.76,-350.77"/>
<polygon fill="black" stroke="black" points="919.93,-354.07 928.6,-347.99 918.03,-347.34 919.93,-354.07"/>
</g>
<!-- 24&#45;&gt;4 -->
<g id="edge2" class="edge">
<title>24&#45;&gt;4</title>
<path fill="none" stroke="black" stroke-dasharray="1,5" d="M270,-161.81C270,-153.79 270,-144.05 270,-135.07"/>
<polygon fill="black" stroke="black" points="273.5,-135.03 270,-125.03 266.5,-135.03 273.5,-135.03"/>
</g>
<!-- 40&#45;&gt;15 -->
<g id="edge5" class="edge">
<title>40&#45;&gt;15</title>
<path fill="none" stroke="black" stroke-dasharray="1,5" d="M270,-317.82C270,-307.19 270,-293.31 270,-281.2"/>
<polygon fill="black" stroke="black" points="273.5,-281.15 270,-271.15 266.5,-281.15 273.5,-281.15"/>
<text text-anchor="middle" x="273.5" y="-292" font-family="Times,serif" font-size="10.00">2</text>
</g>
<!-- 41&#45;&gt;16 -->
<g id="edge6" class="edge">
<title>41&#45;&gt;16</title>
<path fill="none" stroke="black" stroke-dasharray="1,5" d="M926.76,-404.81C959.75,-391.1 1011.54,-369.59 1047.91,-354.48"/>
<polygon fill="black" stroke="black" points="1049.38,-357.66 1057.27,-350.59 1046.7,-351.2 1049.38,-357.66"/>
</g>
</g>
</svg>
