<?xml version="1.0" encoding="UTF-8" standalone="no"?>
<!DOCTYPE svg PUBLIC "-//W3C//DTD SVG 1.1//EN"
 "http://www.w3.org/Graphics/SVG/1.1/DTD/svg11.dtd">
<!-- Generated by graphviz version 2.43.0 (0)
 -->
<!-- Title: textual_flow_diagram Pages: 1 -->
<svg width="897pt" height="380pt"
 viewBox="0.00 0.00 897.00 380.00" xmlns="http://www.w3.org/2000/svg" xmlns:xlink="http://www.w3.org/1999/xlink">
<g id="graph0" class="graph" transform="scale(1 1) rotate(0) translate(4 376)">
<title>textual_flow_diagram</title>
<polygon fill="white" stroke="transparent" points="-4,4 -4,-376 893,-376 893,4 -4,4"/>
<g id="clust1" class="cluster">
<title>cluster_legend</title>
<polygon fill="none" stroke="black" points="8,-310 8,-364 182,-364 182,-310 8,-310"/>
</g>
<g id="clust2" class="cluster">
<title>cluster_plot</title>
</g>
<!-- label -->
<g id="node1" class="node">
<title>label</title>
<text text-anchor="middle" x="95" y="-340.8" font-family="Times,serif" font-size="14.00">adstag1.1.14U54, a</text>
<text text-anchor="middle" x="95" y="-325.8" font-family="Times,serif" font-size="14.00">Con = 5</text>
</g>
<!-- 1 -->
<g id="node2" class="node">
<title>1</title>
<ellipse fill="none" stroke="black" cx="248" cy="-107" rx="50.09" ry="18"/>
<text text-anchor="middle" x="248" y="-103.3" font-family="Times,serif" font-size="14.00">V565 (a)</text>
</g>
<!-- 4 -->
<g id="node3" class="node">
<title>4</title>
<ellipse fill="none" stroke="black" cx="379" cy="-253" rx="42.79" ry="18"/>
<text text-anchor="middle" x="379" y="-249.3" font-family="Times,serif" font-size="14.00">Bas (a)</text>
</g>
<!-- 6 -->
<g id="node4" class="node">
<title>6</title>
<ellipse fill="none" stroke="black" cx="546" cy="-337" rx="53.89" ry="18"/>
<text text-anchor="middle" x="546" y="-333.3" font-family="Times,serif" font-size="14.00">aBase (a)</text>
</g>
<!-- 6&#45;&gt;4 -->
<g id="edge2" class="edge">
<title>6&#45;&gt;4</title>
<path fill="none" stroke="black" stroke-width="2" d="M516.91,-321.72C488.54,-307.79 445.33,-286.57 414.85,-271.6"/>
<polygon fill="black" stroke="black" stroke-width="2" points="416.34,-268.44 405.83,-267.17 413.26,-274.72 416.34,-268.44"/>
<text text-anchor="middle" x="475.5" y="-292" font-family="Times,serif" font-size="10.00">3</text>
</g>
<!-- 11 -->
<g id="node6" class="node">
<title>11</title>
<ellipse fill="none" stroke="black" cx="490" cy="-253" rx="50.09" ry="18"/>
<text text-anchor="middle" x="490" y="-249.3" font-family="Times,serif" font-size="14.00">S249 (a)</text>
</g>
<!-- 6&#45;&gt;11 -->
<g id="edge4" class="edge">
<title>6&#45;&gt;11</title>
<path fill="none" stroke="black" d="M534.4,-319.01C526.54,-307.5 516.01,-292.09 507.18,-279.16"/>
<polygon fill="black" stroke="black" points="509.93,-276.97 501.4,-270.69 504.15,-280.92 509.93,-276.97"/>
</g>
<!-- 21 -->
<g id="node10" class="node">
<title>21</title>
<ellipse fill="none" stroke="black" cx="602" cy="-253" rx="44.39" ry="18"/>
<text text-anchor="middle" x="602" y="-249.3" font-family="Times,serif" font-size="14.00">A25 (a)</text>
</g>
<!-- 6&#45;&gt;21 -->
<g id="edge8" class="edge">
<title>6&#45;&gt;21</title>
<path fill="none" stroke="black" stroke-dasharray="5,2" d="M557.6,-319.01C565.46,-307.5 575.99,-292.09 584.82,-279.16"/>
<polygon fill="black" stroke="black" points="587.85,-280.92 590.6,-270.69 582.07,-276.97 587.85,-280.92"/>
</g>
<!-- 32 -->
<g id="node13" class="node">
<title>32</title>
<ellipse fill="none" stroke="black" cx="708" cy="-253" rx="44.39" ry="18"/>
<text text-anchor="middle" x="708" y="-249.3" font-family="Times,serif" font-size="14.00">B39 (a)</text>
</g>
<!-- 6&#45;&gt;32 -->
<g id="edge11" class="edge">
<title>6&#45;&gt;32</title>
<path fill="none" stroke="black" stroke-width="2" d="M574.59,-321.53C601.8,-307.75 642.84,-286.98 672.21,-272.11"/>
<polygon fill="black" stroke="black" stroke-width="2" points="673.97,-275.15 681.31,-267.51 670.81,-268.9 673.97,-275.15"/>
<text text-anchor="middle" x="639.5" y="-292" font-family="Times,serif" font-size="10.00">2</text>
</g>
<!-- 9 -->
<g id="node5" class="node">
<title>9</title>
<ellipse fill="none" stroke="black" cx="374" cy="-180" rx="44.39" ry="18"/>
<text text-anchor="middle" x="374" y="-176.3" font-family="Times,serif" font-size="14.00">P01 (a)</text>
</g>
<!-- 15 -->
<g id="node7" class="node">
<title>15</title>
<ellipse fill="none" stroke="black" cx="480" cy="-34" rx="50.09" ry="18"/>
<text text-anchor="middle" x="480" y="-30.3" font-family="Times,serif" font-size="14.00">A336 (a)</text>
</g>
<!-- 17 -->
<g id="node8" class="node">
<title>17</title>
<ellipse fill="none" stroke="black" cx="485" cy="-180" rx="48.99" ry="18"/>
<text text-anchor="middle" x="485" y="-176.3" font-family="Times,serif" font-size="14.00">La22 (a)</text>
</g>
<!-- 17&#45;&gt;1 -->
<g id="edge1" class="edge">
<title>17&#45;&gt;1</title>
<path fill="none" stroke="black" stroke-dasharray="5,2" d="M448.49,-168.06C407.32,-155.73 340.27,-135.64 295.17,-122.13"/>
<polygon fill="black" stroke="black" points="295.92,-118.7 285.34,-119.18 293.91,-125.41 295.92,-118.7"/>
</g>
<!-- 20 -->
<g id="node9" class="node">
<title>20</title>
<ellipse fill="none" stroke="black" cx="363" cy="-107" rx="46.59" ry="18"/>
<text text-anchor="middle" x="363" y="-103.3" font-family="Times,serif" font-size="14.00">Bodl (a)</text>
</g>
<!-- 17&#45;&gt;20 -->
<g id="edge7" class="edge">
<title>17&#45;&gt;20</title>
<path fill="none" stroke="black" stroke-dasharray="5,2" d="M460.02,-164.46C441.76,-153.84 416.8,-139.31 396.76,-127.65"/>
<polygon fill="black" stroke="black" points="398.35,-124.52 387.95,-122.52 394.83,-130.57 398.35,-124.52"/>
</g>
<!-- 27 -->
<g id="node11" class="node">
<title>27</title>
<ellipse fill="none" stroke="black" cx="480" cy="-107" rx="52.79" ry="18"/>
<text text-anchor="middle" x="480" y="-103.3" font-family="Times,serif" font-size="14.00">M111 (a)</text>
</g>
<!-- 17&#45;&gt;27 -->
<g id="edge9" class="edge">
<title>17&#45;&gt;27</title>
<path fill="none" stroke="black" stroke-dasharray="1,5" d="M483.79,-161.81C483.22,-153.79 482.54,-144.05 481.91,-135.07"/>
<polygon fill="black" stroke="black" points="485.39,-134.76 481.2,-125.03 478.41,-135.25 485.39,-134.76"/>
</g>
<!-- 33 -->
<g id="node14" class="node">
<title>33</title>
<ellipse fill="none" stroke="black" cx="595" cy="-107" rx="44.39" ry="18"/>
<text text-anchor="middle" x="595" y="-103.3" font-family="Times,serif" font-size="14.00">P74 (a)</text>
</g>
<!-- 17&#45;&gt;33 -->
<g id="edge12" class="edge">
<title>17&#45;&gt;33</title>
<path fill="none" stroke="black" stroke-dasharray="1,5" d="M508.06,-164.12C524.15,-153.73 545.83,-139.74 563.52,-128.32"/>
<polygon fill="black" stroke="black" points="565.84,-130.98 572.35,-122.62 562.05,-125.1 565.84,-130.98"/>
</g>
<!-- 36 -->
<g id="node15" class="node">
<title>36</title>
<ellipse fill="none" stroke="black" cx="707" cy="-107" rx="50.09" ry="18"/>
<text text-anchor="middle" x="707" y="-103.3" font-family="Times,serif" font-size="14.00">A116 (a)</text>
</g>
<!-- 17&#45;&gt;36 -->
<g id="edge13" class="edge">
<title>17&#45;&gt;36</title>
<path fill="none" stroke="black" stroke-dasharray="5,2" d="M520.67,-167.59C558.79,-155.4 619.37,-136.03 661.05,-122.7"/>
<polygon fill="black" stroke="black" points="662.22,-125.99 670.68,-119.61 660.09,-119.33 662.22,-125.99"/>
</g>
<!-- 41 -->
<g id="node17" class="node">
<title>41</title>
<ellipse fill="none" stroke="black" cx="824" cy="-107" rx="48.99" ry="18"/>
<text text-anchor="middle" x="824" y="-103.3" font-family="Times,serif" font-size="14.00">La35 (a)</text>
</g>
<!-- 17&#45;&gt;41 -->
<g id="edge15" class="edge">
<title>17&#45;&gt;41</title>
<path fill="none" stroke="black" stroke-dasharray="1,5" d="M521.02,-167.71C528.26,-165.65 535.84,-163.64 543,-162 640.94,-139.61 668.06,-147.39 766,-125 769.92,-124.1 773.96,-123.1 778,-122.03"/>
<polygon fill="black" stroke="black" points="779.26,-125.31 787.98,-119.29 777.41,-118.56 779.26,-125.31"/>
</g>
<!-- 21&#45;&gt;9 -->
<g id="edge3" class="edge">
<title>21&#45;&gt;9</title>
<path fill="none" stroke="black" stroke-dasharray="5,2" d="M568.38,-241.13C561.95,-239.07 555.27,-236.96 549,-235 494.91,-218.12 481.09,-214.88 427,-198 423.86,-197.02 420.63,-196 417.37,-194.97"/>
<polygon fill="black" stroke="black" points="418.21,-191.57 407.62,-191.87 416.09,-198.24 418.21,-191.57"/>
</g>
<!-- 21&#45;&gt;17 -->
<g id="edge6" class="edge">
<title>21&#45;&gt;17</title>
<path fill="none" stroke="black" stroke-dasharray="1,5" d="M578.32,-237.63C561.03,-227.14 537.35,-212.77 518.18,-201.13"/>
<polygon fill="black" stroke="black" points="519.81,-198.03 509.45,-195.84 516.18,-204.02 519.81,-198.03"/>
</g>
<!-- 31 -->
<g id="node12" class="node">
<title>31</title>
<ellipse fill="none" stroke="black" cx="602" cy="-180" rx="50.09" ry="18"/>
<text text-anchor="middle" x="602" y="-176.3" font-family="Times,serif" font-size="14.00">V566 (a)</text>
</g>
<!-- 21&#45;&gt;31 -->
<g id="edge10" class="edge">
<title>21&#45;&gt;31</title>
<path fill="none" stroke="black" stroke-dasharray="5,2" d="M602,-234.81C602,-226.79 602,-217.05 602,-208.07"/>
<polygon fill="black" stroke="black" points="605.5,-208.03 602,-198.03 598.5,-208.03 605.5,-208.03"/>
</g>
<!-- 38 -->
<g id="node16" class="node">
<title>38</title>
<ellipse fill="none" stroke="black" cx="710" cy="-180" rx="40.09" ry="18"/>
<text text-anchor="middle" x="710" y="-176.3" font-family="Times,serif" font-size="14.00">Pal (a)</text>
</g>
<!-- 21&#45;&gt;38 -->
<g id="edge14" class="edge">
<title>21&#45;&gt;38</title>
<path fill="none" stroke="black" stroke-dasharray="5,2" d="M624.38,-237.29C640.37,-226.77 662.08,-212.5 679.64,-200.96"/>
<polygon fill="black" stroke="black" points="681.95,-203.63 688.39,-195.21 678.11,-197.78 681.95,-203.63"/>
</g>
<!-- 43 -->
<g id="node18" class="node">
<title>43</title>
<ellipse fill="none" stroke="black" cx="818" cy="-180" rx="50.09" ry="18"/>
<text text-anchor="middle" x="818" y="-176.3" font-family="Times,serif" font-size="14.00">Patm (a)</text>
</g>
<!-- 21&#45;&gt;43 -->
<g id="edge16" class="edge">
<title>21&#45;&gt;43</title>
<path fill="none" stroke="black" stroke-dasharray="1,5" d="M635.28,-241.06C672.01,-228.99 731.36,-209.48 772.41,-195.99"/>
<polygon fill="black" stroke="black" points="773.76,-199.23 782.17,-192.78 771.57,-192.58 773.76,-199.23"/>
</g>
<!-- 27&#45;&gt;15 -->
<g id="edge5" class="edge">
<title>27&#45;&gt;15</title>
<path fill="none" stroke="black" stroke-dasharray="5,2" d="M480,-88.81C480,-80.79 480,-71.05 480,-62.07"/>
<polygon fill="black" stroke="black" points="483.5,-62.03 480,-52.03 476.5,-62.03 483.5,-62.03"/>
</g>
</g>
</svg>
