<?xml version="1.0" encoding="UTF-8" standalone="no"?>
<!DOCTYPE svg PUBLIC "-//W3C//DTD SVG 1.1//EN"
 "http://www.w3.org/Graphics/SVG/1.1/DTD/svg11.dtd">
<!-- Generated by graphviz version 2.43.0 (0)
 -->
<!-- Title: textual_flow_diagram Pages: 1 -->
<svg width="1276pt" height="307pt"
 viewBox="0.00 0.00 1276.00 307.00" xmlns="http://www.w3.org/2000/svg" xmlns:xlink="http://www.w3.org/1999/xlink">
<g id="graph0" class="graph" transform="scale(1 1) rotate(0) translate(4 303)">
<title>textual_flow_diagram</title>
<polygon fill="white" stroke="transparent" points="-4,4 -4,-303 1272,-303 1272,4 -4,4"/>
<g id="clust1" class="cluster">
<title>cluster_legend</title>
<polygon fill="none" stroke="black" points="8,-237 8,-291 204,-291 204,-237 8,-237"/>
</g>
<g id="clust2" class="cluster">
<title>cluster_plot</title>
</g>
<!-- label -->
<g id="node1" class="node">
<title>label</title>
<text text-anchor="middle" x="106" y="-267.8" font-family="Times,serif" font-size="14.00">adstag1.3.28U24&#45;28, b</text>
<text text-anchor="middle" x="106" y="-252.8" font-family="Times,serif" font-size="14.00">Con = 3</text>
</g>
<!-- 0 -->
<g id="node2" class="node">
<title>0</title>
<ellipse fill="none" stroke="black" cx="267" cy="-34" rx="41.69" ry="18"/>
<text text-anchor="middle" x="267" y="-30.3" font-family="Times,serif" font-size="14.00">Sin (b)</text>
</g>
<!-- 2 -->
<g id="node3" class="node">
<title>2</title>
<ellipse fill="none" stroke="black" cx="381" cy="-107" rx="49.29" ry="18"/>
<text text-anchor="middle" x="381" y="-103.3" font-family="Times,serif" font-size="14.00">La35 (b)</text>
</g>
<!-- 3 -->
<g id="node4" class="node">
<title>3</title>
<ellipse fill="none" stroke="black" cx="496" cy="-107" rx="47.39" ry="18"/>
<text text-anchor="middle" x="496" y="-103.3" font-family="Times,serif" font-size="14.00">Bodl (b)</text>
</g>
<!-- 10 -->
<g id="node5" class="node">
<title>10</title>
<ellipse fill="none" stroke="black" cx="270" cy="-190" rx="50.09" ry="18"/>
<text text-anchor="middle" x="270" y="-186.3" font-family="Times,serif" font-size="14.00">Marc (b)</text>
</g>
<!-- 21 -->
<g id="node10" class="node">
<title>21</title>
<ellipse fill="none" stroke="black" cx="267" cy="-107" rx="46.59" ry="18"/>
<text text-anchor="middle" x="267" y="-103.3" font-family="Times,serif" font-size="14.00">Mon (b)</text>
</g>
<!-- 10&#45;&gt;21 -->
<g id="edge9" class="edge">
<title>10&#45;&gt;21</title>
<path fill="none" stroke="black" stroke-dasharray="1,5" d="M269.36,-171.82C268.97,-161.19 268.46,-147.31 268.01,-135.2"/>
<polygon fill="black" stroke="black" points="271.5,-135.02 267.64,-125.15 264.51,-135.28 271.5,-135.02"/>
</g>
<!-- 13 -->
<g id="node6" class="node">
<title>13</title>
<ellipse fill="none" stroke="black" cx="615" cy="-107" rx="53.09" ry="18"/>
<text text-anchor="middle" x="615" y="-103.3" font-family="Times,serif" font-size="14.00">M136 (b)</text>
</g>
<!-- 16 -->
<g id="node7" class="node">
<title>16</title>
<ellipse fill="none" stroke="black" cx="730" cy="-107" rx="44.39" ry="18"/>
<text text-anchor="middle" x="730" y="-103.3" font-family="Times,serif" font-size="14.00">P74 (b)</text>
</g>
<!-- 19 -->
<g id="node8" class="node">
<title>19</title>
<ellipse fill="none" stroke="black" cx="1081" cy="-34" rx="50.09" ry="18"/>
<text text-anchor="middle" x="1081" y="-30.3" font-family="Times,serif" font-size="14.00">A336 (b)</text>
</g>
<!-- 20 -->
<g id="node9" class="node">
<title>20</title>
<ellipse fill="none" stroke="black" cx="842" cy="-107" rx="50.09" ry="18"/>
<text text-anchor="middle" x="842" y="-103.3" font-family="Times,serif" font-size="14.00">A116 (b)</text>
</g>
<!-- 21&#45;&gt;0 -->
<g id="edge1" class="edge">
<title>21&#45;&gt;0</title>
<path fill="none" stroke="black" stroke-dasharray="1,5" d="M267,-88.81C267,-80.79 267,-71.05 267,-62.07"/>
<polygon fill="black" stroke="black" points="270.5,-62.03 267,-52.03 263.5,-62.03 270.5,-62.03"/>
</g>
<!-- 26 -->
<g id="node11" class="node">
<title>26</title>
<ellipse fill="none" stroke="black" cx="960" cy="-107" rx="50.09" ry="18"/>
<text text-anchor="middle" x="960" y="-103.3" font-family="Times,serif" font-size="14.00">V565 (b)</text>
</g>
<!-- 37 -->
<g id="node12" class="node">
<title>37</title>
<ellipse fill="none" stroke="black" cx="785" cy="-190" rx="49.29" ry="18"/>
<text text-anchor="middle" x="785" y="-186.3" font-family="Times,serif" font-size="14.00">La22 (b)</text>
</g>
<!-- 37&#45;&gt;2 -->
<g id="edge2" class="edge">
<title>37&#45;&gt;2</title>
<path fill="none" stroke="black" stroke-dasharray="1,5" d="M740.33,-182.14C674.28,-171.67 546.86,-150.24 440,-125 435.92,-124.04 431.69,-122.96 427.47,-121.84"/>
<polygon fill="black" stroke="black" points="428.25,-118.43 417.68,-119.17 426.4,-125.18 428.25,-118.43"/>
</g>
<!-- 37&#45;&gt;3 -->
<g id="edge3" class="edge">
<title>37&#45;&gt;3</title>
<path fill="none" stroke="black" stroke-dasharray="5,2" d="M746.34,-178.6C700.24,-166.13 620.87,-144.48 553,-125 549.25,-123.92 545.37,-122.8 541.48,-121.66"/>
<polygon fill="black" stroke="black" points="542.43,-118.29 531.85,-118.81 540.45,-125 542.43,-118.29"/>
</g>
<!-- 37&#45;&gt;13 -->
<g id="edge5" class="edge">
<title>37&#45;&gt;13</title>
<path fill="none" stroke="black" d="M756.16,-175.26C728,-161.84 684.96,-141.33 653.81,-126.49"/>
<polygon fill="black" stroke="black" points="655.08,-123.22 644.55,-122.08 652.07,-129.54 655.08,-123.22"/>
<text text-anchor="middle" x="713.5" y="-146" font-family="Times,serif" font-size="10.00">2</text>
</g>
<!-- 37&#45;&gt;16 -->
<g id="edge6" class="edge">
<title>37&#45;&gt;16</title>
<path fill="none" stroke="black" stroke-dasharray="1,5" d="M773.6,-172.22C765.88,-160.85 755.55,-145.63 746.88,-132.86"/>
<polygon fill="black" stroke="black" points="749.71,-130.79 741.19,-124.48 743.92,-134.72 749.71,-130.79"/>
</g>
<!-- 37&#45;&gt;20 -->
<g id="edge8" class="edge">
<title>37&#45;&gt;20</title>
<path fill="none" stroke="black" stroke-dasharray="5,2" d="M796.81,-172.22C804.76,-160.92 815.38,-145.83 824.33,-133.11"/>
<polygon fill="black" stroke="black" points="827.31,-134.95 830.2,-124.76 821.59,-130.93 827.31,-134.95"/>
</g>
<!-- 37&#45;&gt;26 -->
<g id="edge10" class="edge">
<title>37&#45;&gt;26</title>
<path fill="none" stroke="black" stroke-dasharray="5,2" d="M814.29,-175.44C843.69,-161.83 889.14,-140.8 921.46,-125.84"/>
<polygon fill="black" stroke="black" points="923.01,-128.98 930.61,-121.6 920.07,-122.63 923.01,-128.98"/>
</g>
<!-- 39 -->
<g id="node14" class="node">
<title>39</title>
<ellipse fill="none" stroke="black" cx="1081" cy="-107" rx="53.09" ry="18"/>
<text text-anchor="middle" x="1081" y="-103.3" font-family="Times,serif" font-size="14.00">M111 (b)</text>
</g>
<!-- 37&#45;&gt;39 -->
<g id="edge13" class="edge">
<title>37&#45;&gt;39</title>
<path fill="none" stroke="black" stroke-dasharray="1,5" d="M823.51,-178.48C869.89,-165.8 950.15,-143.86 1019,-125 1023,-123.91 1027.14,-122.77 1031.3,-121.63"/>
<polygon fill="black" stroke="black" points="1032.26,-125 1040.98,-118.98 1030.41,-118.25 1032.26,-125"/>
</g>
<!-- 41 -->
<g id="node15" class="node">
<title>41</title>
<ellipse fill="none" stroke="black" cx="1202" cy="-107" rx="50.09" ry="18"/>
<text text-anchor="middle" x="1202" y="-103.3" font-family="Times,serif" font-size="14.00">V571 (b)</text>
</g>
<!-- 37&#45;&gt;41 -->
<g id="edge14" class="edge">
<title>37&#45;&gt;41</title>
<path fill="none" stroke="black" stroke-dasharray="1,5" d="M829.95,-182.5C898.09,-172.29 1031.39,-150.98 1143,-125 1147.03,-124.06 1151.19,-123.02 1155.36,-121.92"/>
<polygon fill="black" stroke="black" points="1156.29,-125.3 1165.02,-119.29 1154.45,-118.54 1156.29,-125.3"/>
</g>
<!-- 38 -->
<g id="node13" class="node">
<title>38</title>
<ellipse fill="none" stroke="black" cx="1082" cy="-190" rx="42.49" ry="18"/>
<text text-anchor="middle" x="1082" y="-186.3" font-family="Times,serif" font-size="14.00">Est (b)</text>
</g>
<!-- 39&#45;&gt;19 -->
<g id="edge7" class="edge">
<title>39&#45;&gt;19</title>
<path fill="none" stroke="black" stroke-dasharray="5,2" d="M1081,-88.81C1081,-80.79 1081,-71.05 1081,-62.07"/>
<polygon fill="black" stroke="black" points="1084.5,-62.03 1081,-52.03 1077.5,-62.03 1084.5,-62.03"/>
</g>
<!-- 7 -->
<g id="node16" class="node">
<title>7</title>
<ellipse fill="none" stroke="blue" stroke-dasharray="5,2" cx="1082" cy="-264" rx="55.79" ry="18"/>
<text text-anchor="middle" x="1082" y="-260.3" font-family="Times,serif" font-size="14.00">V1897 (a)</text>
</g>
<!-- 7&#45;&gt;38 -->
<g id="edge12" class="edge">
<title>7&#45;&gt;38</title>
<path fill="none" stroke="blue" stroke-dasharray="1,5" d="M1082,-245.94C1082,-237.81 1082,-227.88 1082,-218.7"/>
<polygon fill="blue" stroke="blue" points="1085.5,-218.44 1082,-208.44 1078.5,-218.44 1085.5,-218.44"/>
</g>
<!-- 14 -->
<g id="node17" class="node">
<title>14</title>
<ellipse fill="none" stroke="blue" stroke-dasharray="5,2" cx="785" cy="-264" rx="53.89" ry="18"/>
<text text-anchor="middle" x="785" y="-260.3" font-family="Times,serif" font-size="14.00">aBase (a)</text>
</g>
<!-- 14&#45;&gt;37 -->
<g id="edge11" class="edge">
<title>14&#45;&gt;37</title>
<path fill="none" stroke="blue" stroke-dasharray="5,2" d="M785,-245.94C785,-237.81 785,-227.88 785,-218.7"/>
<polygon fill="blue" stroke="blue" points="788.5,-218.44 785,-208.44 781.5,-218.44 788.5,-218.44"/>
</g>
<!-- 25 -->
<g id="node18" class="node">
<title>25</title>
<ellipse fill="none" stroke="blue" stroke-dasharray="5,2" cx="270" cy="-264" rx="46.59" ry="18"/>
<text text-anchor="middle" x="270" y="-260.3" font-family="Times,serif" font-size="14.00">Taur (a)</text>
</g>
<!-- 25&#45;&gt;10 -->
<g id="edge4" class="edge">
<title>25&#45;&gt;10</title>
<path fill="none" stroke="blue" stroke-dasharray="1,5" d="M270,-245.94C270,-237.81 270,-227.88 270,-218.7"/>
<polygon fill="blue" stroke="blue" points="273.5,-218.44 270,-208.44 266.5,-218.44 273.5,-218.44"/>
</g>
</g>
</svg>
