<?xml version="1.0" encoding="UTF-8" standalone="no"?>
<!DOCTYPE svg PUBLIC "-//W3C//DTD SVG 1.1//EN"
 "http://www.w3.org/Graphics/SVG/1.1/DTD/svg11.dtd">
<!-- Generated by graphviz version 2.43.0 (0)
 -->
<!-- Title: textual_flow_diagram Pages: 1 -->
<svg width="700pt" height="473pt"
 viewBox="0.00 0.00 700.00 473.00" xmlns="http://www.w3.org/2000/svg" xmlns:xlink="http://www.w3.org/1999/xlink">
<g id="graph0" class="graph" transform="scale(1 1) rotate(0) translate(4 469)">
<title>textual_flow_diagram</title>
<polygon fill="white" stroke="transparent" points="-4,4 -4,-469 696,-469 696,4 -4,4"/>
<g id="clust1" class="cluster">
<title>cluster_legend</title>
<polygon fill="none" stroke="black" points="8,-403 8,-457 182,-457 182,-403 8,-403"/>
</g>
<g id="clust2" class="cluster">
<title>cluster_plot</title>
</g>
<!-- label -->
<g id="node1" class="node">
<title>label</title>
<text text-anchor="middle" x="95" y="-433.8" font-family="Times,serif" font-size="14.00">adstag1.3.40U56, b</text>
<text text-anchor="middle" x="95" y="-418.8" font-family="Times,serif" font-size="14.00">Con = 10</text>
</g>
<!-- 5 -->
<g id="node2" class="node">
<title>5</title>
<ellipse fill="none" stroke="black" cx="254" cy="-273" rx="55.79" ry="18"/>
<text text-anchor="middle" x="254" y="-269.3" font-family="Times,serif" font-size="14.00">V1629 (b)</text>
</g>
<!-- 26 -->
<g id="node5" class="node">
<title>26</title>
<ellipse fill="none" stroke="black" cx="254" cy="-190" rx="50.09" ry="18"/>
<text text-anchor="middle" x="254" y="-186.3" font-family="Times,serif" font-size="14.00">V536 (b)</text>
</g>
<!-- 5&#45;&gt;26 -->
<g id="edge4" class="edge">
<title>5&#45;&gt;26</title>
<path fill="none" stroke="black" stroke-dasharray="5,2" d="M254,-254.82C254,-244.19 254,-230.31 254,-218.2"/>
<polygon fill="black" stroke="black" points="257.5,-218.15 254,-208.15 250.5,-218.15 257.5,-218.15"/>
</g>
<!-- 6 -->
<g id="node3" class="node">
<title>6</title>
<ellipse fill="none" stroke="black" cx="254" cy="-34" rx="50.09" ry="18"/>
<text text-anchor="middle" x="254" y="-30.3" font-family="Times,serif" font-size="14.00">V569 (b)</text>
</g>
<!-- 19 -->
<g id="node4" class="node">
<title>19</title>
<ellipse fill="none" stroke="black" cx="415" cy="-356" rx="50.09" ry="18"/>
<text text-anchor="middle" x="415" y="-352.3" font-family="Times,serif" font-size="14.00">V566 (b)</text>
</g>
<!-- 19&#45;&gt;5 -->
<g id="edge1" class="edge">
<title>19&#45;&gt;5</title>
<path fill="none" stroke="black" d="M386.96,-340.89C360.62,-327.64 321.01,-307.71 291.87,-293.05"/>
<polygon fill="black" stroke="black" points="293.31,-289.86 282.81,-288.49 290.17,-296.11 293.31,-289.86"/>
<text text-anchor="middle" x="347.5" y="-312" font-family="Times,serif" font-size="10.00">6</text>
</g>
<!-- 29 -->
<g id="node8" class="node">
<title>29</title>
<ellipse fill="none" stroke="black" cx="378" cy="-273" rx="50.09" ry="18"/>
<text text-anchor="middle" x="378" y="-269.3" font-family="Times,serif" font-size="14.00">V560 (b)</text>
</g>
<!-- 19&#45;&gt;29 -->
<g id="edge7" class="edge">
<title>19&#45;&gt;29</title>
<path fill="none" stroke="black" stroke-width="2" d="M407.15,-337.82C402.17,-326.9 395.61,-312.55 389.98,-300.22"/>
<polygon fill="black" stroke="black" stroke-width="2" points="393.05,-298.52 385.71,-290.88 386.68,-301.43 393.05,-298.52"/>
<text text-anchor="middle" x="401.5" y="-312" font-family="Times,serif" font-size="10.00">6</text>
</g>
<!-- 32 -->
<g id="node9" class="node">
<title>32</title>
<ellipse fill="none" stroke="black" cx="496" cy="-273" rx="50.09" ry="18"/>
<text text-anchor="middle" x="496" y="-269.3" font-family="Times,serif" font-size="14.00">S249 (b)</text>
</g>
<!-- 19&#45;&gt;32 -->
<g id="edge8" class="edge">
<title>19&#45;&gt;32</title>
<path fill="none" stroke="black" stroke-dasharray="5,2" d="M431.39,-338.61C443.22,-326.78 459.35,-310.65 472.54,-297.46"/>
<polygon fill="black" stroke="black" points="475.31,-299.64 479.91,-290.09 470.36,-294.69 475.31,-299.64"/>
<text text-anchor="middle" x="463.5" y="-312" font-family="Times,serif" font-size="10.00">5</text>
</g>
<!-- 36 -->
<g id="node10" class="node">
<title>36</title>
<ellipse fill="none" stroke="black" cx="620" cy="-273" rx="55.79" ry="18"/>
<text text-anchor="middle" x="620" y="-269.3" font-family="Times,serif" font-size="14.00">V1639 (b)</text>
</g>
<!-- 19&#45;&gt;36 -->
<g id="edge9" class="edge">
<title>19&#45;&gt;36</title>
<path fill="none" stroke="black" stroke-dasharray="1,5" d="M447.48,-342.17C482.35,-328.39 537.92,-306.43 576.53,-291.17"/>
<polygon fill="black" stroke="black" points="577.95,-294.38 585.96,-287.45 575.38,-287.87 577.95,-294.38"/>
</g>
<!-- 27 -->
<g id="node6" class="node">
<title>27</title>
<ellipse fill="none" stroke="black" cx="254" cy="-107" rx="47.39" ry="18"/>
<text text-anchor="middle" x="254" y="-103.3" font-family="Times,serif" font-size="14.00">Taur (b)</text>
</g>
<!-- 26&#45;&gt;27 -->
<g id="edge5" class="edge">
<title>26&#45;&gt;27</title>
<path fill="none" stroke="black" stroke-dasharray="1,5" d="M254,-171.82C254,-161.19 254,-147.31 254,-135.2"/>
<polygon fill="black" stroke="black" points="257.5,-135.15 254,-125.15 250.5,-135.15 257.5,-135.15"/>
<text text-anchor="middle" x="257.5" y="-146" font-family="Times,serif" font-size="10.00">2</text>
</g>
<!-- 27&#45;&gt;6 -->
<g id="edge2" class="edge">
<title>27&#45;&gt;6</title>
<path fill="none" stroke="black" stroke-dasharray="5,2" d="M254,-88.81C254,-80.79 254,-71.05 254,-62.07"/>
<polygon fill="black" stroke="black" points="257.5,-62.03 254,-52.03 250.5,-62.03 257.5,-62.03"/>
</g>
<!-- 28 -->
<g id="node7" class="node">
<title>28</title>
<ellipse fill="none" stroke="black" cx="620" cy="-190" rx="42.49" ry="18"/>
<text text-anchor="middle" x="620" y="-186.3" font-family="Times,serif" font-size="14.00">Est (b)</text>
</g>
<!-- 36&#45;&gt;28 -->
<g id="edge6" class="edge">
<title>36&#45;&gt;28</title>
<path fill="none" stroke="black" stroke-dasharray="5,2" d="M620,-254.82C620,-244.19 620,-230.31 620,-218.2"/>
<polygon fill="black" stroke="black" points="623.5,-218.15 620,-208.15 616.5,-218.15 623.5,-218.15"/>
<text text-anchor="middle" x="623.5" y="-229" font-family="Times,serif" font-size="10.00">5</text>
</g>
<!-- 15 -->
<g id="node11" class="node">
<title>15</title>
<ellipse fill="none" stroke="blue" stroke-dasharray="5,2" cx="415" cy="-430" rx="44.39" ry="18"/>
<text text-anchor="middle" x="415" y="-426.3" font-family="Times,serif" font-size="14.00">A25 (a)</text>
</g>
<!-- 15&#45;&gt;19 -->
<g id="edge3" class="edge">
<title>15&#45;&gt;19</title>
<path fill="none" stroke="blue" stroke-dasharray="5,2" d="M415,-411.94C415,-403.81 415,-393.88 415,-384.7"/>
<polygon fill="blue" stroke="blue" points="418.5,-384.44 415,-374.44 411.5,-384.44 418.5,-384.44"/>
</g>
</g>
</svg>
