<?xml version="1.0" encoding="UTF-8" standalone="no"?>
<!DOCTYPE svg PUBLIC "-//W3C//DTD SVG 1.1//EN"
 "http://www.w3.org/Graphics/SVG/1.1/DTD/svg11.dtd">
<!-- Generated by graphviz version 2.43.0 (0)
 -->
<!-- Title: textual_flow_diagram Pages: 1 -->
<svg width="1673pt" height="828pt"
 viewBox="0.00 0.00 1673.00 828.00" xmlns="http://www.w3.org/2000/svg" xmlns:xlink="http://www.w3.org/1999/xlink">
<g id="graph0" class="graph" transform="scale(1 1) rotate(0) translate(4 824)">
<title>textual_flow_diagram</title>
<polygon fill="white" stroke="transparent" points="-4,4 -4,-824 1669,-824 1669,4 -4,4"/>
<g id="clust1" class="cluster">
<title>cluster_legend</title>
<polygon fill="none" stroke="black" points="8,-758 8,-812 204,-812 204,-758 8,-758"/>
</g>
<g id="clust2" class="cluster">
<title>cluster_plot</title>
</g>
<!-- label -->
<g id="node1" class="node">
<title>label</title>
<text text-anchor="middle" x="106" y="-788.8" font-family="Times,serif" font-size="14.00">adstag1.3.71U58&#45;62, b</text>
<text text-anchor="middle" x="106" y="-773.8" font-family="Times,serif" font-size="14.00">Con = 5</text>
</g>
<!-- 0 -->
<g id="node2" class="node">
<title>0</title>
<ellipse fill="none" stroke="black" cx="1468" cy="-545" rx="50.89" ry="18"/>
<text text-anchor="middle" x="1468" y="-541.3" font-family="Times,serif" font-size="14.00">Neap (b)</text>
</g>
<!-- 19 -->
<g id="node18" class="node">
<title>19</title>
<ellipse fill="none" stroke="black" cx="1468" cy="-472" rx="55.79" ry="18"/>
<text text-anchor="middle" x="1468" y="-468.3" font-family="Times,serif" font-size="14.00">V1629 (b)</text>
</g>
<!-- 0&#45;&gt;19 -->
<g id="edge17" class="edge">
<title>0&#45;&gt;19</title>
<path fill="none" stroke="black" stroke-dasharray="1,5" d="M1468,-526.81C1468,-518.79 1468,-509.05 1468,-500.07"/>
<polygon fill="black" stroke="black" points="1471.5,-500.03 1468,-490.03 1464.5,-500.03 1471.5,-500.03"/>
</g>
<!-- 1 -->
<g id="node3" class="node">
<title>1</title>
<ellipse fill="none" stroke="black" cx="695" cy="-628" rx="50.09" ry="18"/>
<text text-anchor="middle" x="695" y="-624.3" font-family="Times,serif" font-size="14.00">Patm (b)</text>
</g>
<!-- 2 -->
<g id="node4" class="node">
<title>2</title>
<ellipse fill="none" stroke="black" cx="1468" cy="-326" rx="50.09" ry="18"/>
<text text-anchor="middle" x="1468" y="-322.3" font-family="Times,serif" font-size="14.00">V568 (b)</text>
</g>
<!-- 21 -->
<g id="node19" class="node">
<title>21</title>
<ellipse fill="none" stroke="black" cx="1468" cy="-253" rx="47.39" ry="18"/>
<text text-anchor="middle" x="1468" y="-249.3" font-family="Times,serif" font-size="14.00">Taur (b)</text>
</g>
<!-- 2&#45;&gt;21 -->
<g id="edge18" class="edge">
<title>2&#45;&gt;21</title>
<path fill="none" stroke="black" stroke-dasharray="1,5" d="M1468,-307.81C1468,-299.79 1468,-290.05 1468,-281.07"/>
<polygon fill="black" stroke="black" points="1471.5,-281.03 1468,-271.03 1464.5,-281.03 1471.5,-281.03"/>
</g>
<!-- 3 -->
<g id="node5" class="node">
<title>3</title>
<ellipse fill="none" stroke="black" cx="264" cy="-545" rx="44.39" ry="18"/>
<text text-anchor="middle" x="264" y="-541.3" font-family="Times,serif" font-size="14.00">P74 (b)</text>
</g>
<!-- 4 -->
<g id="node6" class="node">
<title>4</title>
<ellipse fill="none" stroke="black" cx="1468" cy="-107" rx="46.59" ry="18"/>
<text text-anchor="middle" x="1468" y="-103.3" font-family="Times,serif" font-size="14.00">Mon (b)</text>
</g>
<!-- 23 -->
<g id="node21" class="node">
<title>23</title>
<ellipse fill="none" stroke="black" cx="1468" cy="-34" rx="41.69" ry="18"/>
<text text-anchor="middle" x="1468" y="-30.3" font-family="Times,serif" font-size="14.00">Sin (b)</text>
</g>
<!-- 4&#45;&gt;23 -->
<g id="edge20" class="edge">
<title>4&#45;&gt;23</title>
<path fill="none" stroke="black" stroke-dasharray="1,5" d="M1468,-88.81C1468,-80.79 1468,-71.05 1468,-62.07"/>
<polygon fill="black" stroke="black" points="1471.5,-62.03 1468,-52.03 1464.5,-62.03 1471.5,-62.03"/>
</g>
<!-- 5 -->
<g id="node7" class="node">
<title>5</title>
<ellipse fill="none" stroke="black" cx="812" cy="-628" rx="49.29" ry="18"/>
<text text-anchor="middle" x="812" y="-624.3" font-family="Times,serif" font-size="14.00">La22 (b)</text>
</g>
<!-- 5&#45;&gt;3 -->
<g id="edge4" class="edge">
<title>5&#45;&gt;3</title>
<path fill="none" stroke="black" stroke-dasharray="1,5" d="M776.38,-615.33C769.05,-613.28 761.32,-611.36 754,-610 658.86,-592.3 633.22,-602.33 537,-592 438.94,-581.48 413.23,-584.59 317,-563 313.39,-562.19 309.68,-561.24 305.98,-560.22"/>
<polygon fill="black" stroke="black" points="306.84,-556.82 296.26,-557.36 304.87,-563.54 306.84,-556.82"/>
</g>
<!-- 6 -->
<g id="node8" class="node">
<title>6</title>
<ellipse fill="none" stroke="black" cx="376" cy="-545" rx="50.09" ry="18"/>
<text text-anchor="middle" x="376" y="-541.3" font-family="Times,serif" font-size="14.00">V565 (b)</text>
</g>
<!-- 5&#45;&gt;6 -->
<g id="edge7" class="edge">
<title>5&#45;&gt;6</title>
<path fill="none" stroke="black" stroke-dasharray="5,2" d="M776.01,-615.56C768.77,-613.51 761.18,-611.54 754,-610 696.97,-597.76 681.72,-600.42 624,-592 539.91,-579.73 518,-581.25 435,-563 430.9,-562.1 426.67,-561.07 422.44,-559.98"/>
<polygon fill="black" stroke="black" points="423.2,-556.56 412.64,-557.34 421.38,-563.32 423.2,-556.56"/>
</g>
<!-- 9 -->
<g id="node11" class="node">
<title>9</title>
<ellipse fill="none" stroke="black" cx="493" cy="-545" rx="49.29" ry="18"/>
<text text-anchor="middle" x="493" y="-541.3" font-family="Times,serif" font-size="14.00">La35 (b)</text>
</g>
<!-- 5&#45;&gt;9 -->
<g id="edge10" class="edge">
<title>5&#45;&gt;9</title>
<path fill="none" stroke="black" stroke-dasharray="1,5" d="M775.27,-615.89C768.23,-613.86 760.9,-611.81 754,-610 664.42,-586.52 640.58,-586.48 551,-563 547.23,-562.01 543.32,-560.95 539.41,-559.86"/>
<polygon fill="black" stroke="black" points="540.31,-556.48 529.73,-557.11 538.39,-563.21 540.31,-556.48"/>
</g>
<!-- 13 -->
<g id="node15" class="node">
<title>13</title>
<ellipse fill="none" stroke="black" cx="616" cy="-545" rx="55.79" ry="18"/>
<text text-anchor="middle" x="616" y="-541.3" font-family="Times,serif" font-size="14.00">V2036 (b)</text>
</g>
<!-- 5&#45;&gt;13 -->
<g id="edge14" class="edge">
<title>5&#45;&gt;13</title>
<path fill="none" stroke="black" stroke-dasharray="5,2" d="M780.51,-613.99C747.43,-600.32 695.21,-578.73 658.5,-563.56"/>
<polygon fill="black" stroke="black" points="659.63,-560.24 649.05,-559.66 656.95,-566.71 659.63,-560.24"/>
<text text-anchor="middle" x="728.5" y="-584" font-family="Times,serif" font-size="10.00">2</text>
</g>
<!-- 14 -->
<g id="node16" class="node">
<title>14</title>
<ellipse fill="none" stroke="black" cx="740" cy="-545" rx="50.09" ry="18"/>
<text text-anchor="middle" x="740" y="-541.3" font-family="Times,serif" font-size="14.00">V571 (b)</text>
</g>
<!-- 5&#45;&gt;14 -->
<g id="edge15" class="edge">
<title>5&#45;&gt;14</title>
<path fill="none" stroke="black" stroke-dasharray="1,5" d="M797.43,-610.61C787.09,-598.97 773.03,-583.16 761.41,-570.09"/>
<polygon fill="black" stroke="black" points="763.81,-567.52 754.55,-562.37 758.58,-572.17 763.81,-567.52"/>
</g>
<!-- 24 -->
<g id="node22" class="node">
<title>24</title>
<ellipse fill="none" stroke="black" cx="858" cy="-545" rx="50.09" ry="18"/>
<text text-anchor="middle" x="858" y="-541.3" font-family="Times,serif" font-size="14.00">A116 (b)</text>
</g>
<!-- 5&#45;&gt;24 -->
<g id="edge21" class="edge">
<title>5&#45;&gt;24</title>
<path fill="none" stroke="black" stroke-dasharray="5,2" d="M821.53,-610.22C827.88,-599.03 836.35,-584.12 843.53,-571.48"/>
<polygon fill="black" stroke="black" points="846.59,-573.19 848.48,-562.76 840.5,-569.73 846.59,-573.19"/>
</g>
<!-- 32 -->
<g id="node27" class="node">
<title>32</title>
<ellipse fill="none" stroke="black" cx="973" cy="-545" rx="47.39" ry="18"/>
<text text-anchor="middle" x="973" y="-541.3" font-family="Times,serif" font-size="14.00">Bodl (b)</text>
</g>
<!-- 5&#45;&gt;32 -->
<g id="edge26" class="edge">
<title>5&#45;&gt;32</title>
<path fill="none" stroke="black" stroke-dasharray="5,2" d="M839.68,-613.08C866.45,-599.61 907.18,-579.12 936.57,-564.33"/>
<polygon fill="black" stroke="black" points="938.32,-567.36 945.68,-559.74 935.18,-561.11 938.32,-567.36"/>
</g>
<!-- 37 -->
<g id="node31" class="node">
<title>37</title>
<ellipse fill="none" stroke="black" cx="1092" cy="-545" rx="53.09" ry="18"/>
<text text-anchor="middle" x="1092" y="-541.3" font-family="Times,serif" font-size="14.00">M111 (b)</text>
</g>
<!-- 5&#45;&gt;37 -->
<g id="edge30" class="edge">
<title>5&#45;&gt;37</title>
<path fill="none" stroke="black" stroke-dasharray="1,5" d="M849.47,-616.16C899.41,-601.71 987.89,-576.12 1043.05,-560.16"/>
<polygon fill="black" stroke="black" points="1044.32,-563.44 1052.95,-557.3 1042.37,-556.71 1044.32,-563.44"/>
</g>
<!-- 7 -->
<g id="node9" class="node">
<title>7</title>
<ellipse fill="none" stroke="black" cx="1350" cy="-180" rx="50.09" ry="18"/>
<text text-anchor="middle" x="1350" y="-176.3" font-family="Times,serif" font-size="14.00">V569 (b)</text>
</g>
<!-- 8 -->
<g id="node10" class="node">
<title>8</title>
<ellipse fill="none" stroke="black" cx="1219" cy="-545" rx="55.79" ry="18"/>
<text text-anchor="middle" x="1219" y="-541.3" font-family="Times,serif" font-size="14.00">V1639 (b)</text>
</g>
<!-- 10 -->
<g id="node12" class="node">
<title>10</title>
<ellipse fill="none" stroke="black" cx="1346" cy="-545" rx="53.09" ry="18"/>
<text text-anchor="middle" x="1346" y="-541.3" font-family="Times,serif" font-size="14.00">LaSM (b)</text>
</g>
<!-- 25 -->
<g id="node23" class="node">
<title>25</title>
<ellipse fill="none" stroke="black" cx="1346" cy="-472" rx="44.69" ry="18"/>
<text text-anchor="middle" x="1346" y="-468.3" font-family="Times,serif" font-size="14.00">B39 (b)</text>
</g>
<!-- 10&#45;&gt;25 -->
<g id="edge22" class="edge">
<title>10&#45;&gt;25</title>
<path fill="none" stroke="black" stroke-dasharray="5,2" d="M1346,-526.81C1346,-518.79 1346,-509.05 1346,-500.07"/>
<polygon fill="black" stroke="black" points="1349.5,-500.03 1346,-490.03 1342.5,-500.03 1349.5,-500.03"/>
</g>
<!-- 11 -->
<g id="node13" class="node">
<title>11</title>
<ellipse fill="none" stroke="black" cx="1055" cy="-628" rx="44.39" ry="18"/>
<text text-anchor="middle" x="1055" y="-624.3" font-family="Times,serif" font-size="14.00">S32 (b)</text>
</g>
<!-- 12 -->
<g id="node14" class="node">
<title>12</title>
<ellipse fill="none" stroke="black" cx="1167" cy="-628" rx="50.09" ry="18"/>
<text text-anchor="middle" x="1167" y="-624.3" font-family="Times,serif" font-size="14.00">V566 (b)</text>
</g>
<!-- 12&#45;&gt;8 -->
<g id="edge9" class="edge">
<title>12&#45;&gt;8</title>
<path fill="none" stroke="black" stroke-dasharray="1,5" d="M1177.77,-610.22C1184.96,-599.03 1194.53,-584.12 1202.64,-571.48"/>
<polygon fill="black" stroke="black" points="1205.78,-573.07 1208.24,-562.76 1199.89,-569.29 1205.78,-573.07"/>
</g>
<!-- 17 -->
<g id="node17" class="node">
<title>17</title>
<ellipse fill="none" stroke="black" cx="1279" cy="-628" rx="44.39" ry="18"/>
<text text-anchor="middle" x="1279" y="-624.3" font-family="Times,serif" font-size="14.00">P01 (b)</text>
</g>
<!-- 17&#45;&gt;10 -->
<g id="edge11" class="edge">
<title>17&#45;&gt;10</title>
<path fill="none" stroke="black" stroke-dasharray="5,2" d="M1292.56,-610.61C1302.03,-599.16 1314.85,-583.66 1325.56,-570.72"/>
<polygon fill="black" stroke="black" points="1328.55,-572.58 1332.23,-562.65 1323.16,-568.12 1328.55,-572.58"/>
<text text-anchor="middle" x="1319.5" y="-584" font-family="Times,serif" font-size="10.00">2</text>
</g>
<!-- 34 -->
<g id="node29" class="node">
<title>34</title>
<ellipse fill="none" stroke="black" cx="1468" cy="-399" rx="50.09" ry="18"/>
<text text-anchor="middle" x="1468" y="-395.3" font-family="Times,serif" font-size="14.00">V536 (b)</text>
</g>
<!-- 19&#45;&gt;34 -->
<g id="edge28" class="edge">
<title>19&#45;&gt;34</title>
<path fill="none" stroke="black" stroke-dasharray="5,2" d="M1468,-453.81C1468,-445.79 1468,-436.05 1468,-427.07"/>
<polygon fill="black" stroke="black" points="1471.5,-427.03 1468,-417.03 1464.5,-427.03 1471.5,-427.03"/>
</g>
<!-- 21&#45;&gt;7 -->
<g id="edge8" class="edge">
<title>21&#45;&gt;7</title>
<path fill="none" stroke="black" stroke-dasharray="5,2" d="M1443.84,-237.46C1426.37,-226.95 1402.57,-212.63 1383.3,-201.04"/>
<polygon fill="black" stroke="black" points="1384.91,-197.92 1374.54,-195.76 1381.3,-203.92 1384.91,-197.92"/>
</g>
<!-- 30 -->
<g id="node25" class="node">
<title>30</title>
<ellipse fill="none" stroke="black" cx="1468" cy="-180" rx="50.09" ry="18"/>
<text text-anchor="middle" x="1468" y="-176.3" font-family="Times,serif" font-size="14.00">Marc (b)</text>
</g>
<!-- 21&#45;&gt;30 -->
<g id="edge24" class="edge">
<title>21&#45;&gt;30</title>
<path fill="none" stroke="black" stroke-dasharray="1,5" d="M1468,-234.81C1468,-226.79 1468,-217.05 1468,-208.07"/>
<polygon fill="black" stroke="black" points="1471.5,-208.03 1468,-198.03 1464.5,-208.03 1471.5,-208.03"/>
</g>
<!-- 39 -->
<g id="node32" class="node">
<title>39</title>
<ellipse fill="none" stroke="black" cx="1589" cy="-180" rx="53.09" ry="18"/>
<text text-anchor="middle" x="1589" y="-176.3" font-family="Times,serif" font-size="14.00">M118 (b)</text>
</g>
<!-- 21&#45;&gt;39 -->
<g id="edge31" class="edge">
<title>21&#45;&gt;39</title>
<path fill="none" stroke="black" stroke-dasharray="5,2" d="M1492.78,-237.46C1510.65,-226.98 1534.99,-212.69 1554.72,-201.11"/>
<polygon fill="black" stroke="black" points="1556.57,-204.09 1563.42,-196.01 1553.02,-198.05 1556.57,-204.09"/>
</g>
<!-- 22 -->
<g id="node20" class="node">
<title>22</title>
<ellipse fill="none" stroke="black" cx="1387" cy="-628" rx="45.49" ry="18"/>
<text text-anchor="middle" x="1387" y="-624.3" font-family="Times,serif" font-size="14.00">Nan (b)</text>
</g>
<!-- 22&#45;&gt;0 -->
<g id="edge1" class="edge">
<title>22&#45;&gt;0</title>
<path fill="none" stroke="black" d="M1403,-611C1414.8,-599.2 1431.03,-582.97 1444.32,-569.68"/>
<polygon fill="black" stroke="black" points="1447.16,-571.79 1451.75,-562.25 1442.21,-566.84 1447.16,-571.79"/>
<text text-anchor="middle" x="1435.5" y="-584" font-family="Times,serif" font-size="10.00">3</text>
</g>
<!-- 26 -->
<g id="node24" class="node">
<title>26</title>
<ellipse fill="none" stroke="black" cx="1593" cy="-545" rx="55.79" ry="18"/>
<text text-anchor="middle" x="1593" y="-541.3" font-family="Times,serif" font-size="14.00">V1897 (b)</text>
</g>
<!-- 22&#45;&gt;26 -->
<g id="edge23" class="edge">
<title>22&#45;&gt;26</title>
<path fill="none" stroke="black" stroke-dasharray="1,5" d="M1418.29,-614.7C1453.25,-600.95 1510.11,-578.59 1549.42,-563.13"/>
<polygon fill="black" stroke="black" points="1550.99,-566.28 1559.01,-559.36 1548.43,-559.77 1550.99,-566.28"/>
</g>
<!-- 35 -->
<g id="node30" class="node">
<title>35</title>
<ellipse fill="none" stroke="black" cx="1593" cy="-472" rx="42.49" ry="18"/>
<text text-anchor="middle" x="1593" y="-468.3" font-family="Times,serif" font-size="14.00">Est (b)</text>
</g>
<!-- 26&#45;&gt;35 -->
<g id="edge29" class="edge">
<title>26&#45;&gt;35</title>
<path fill="none" stroke="black" stroke-dasharray="1,5" d="M1593,-526.81C1593,-518.79 1593,-509.05 1593,-500.07"/>
<polygon fill="black" stroke="black" points="1596.5,-500.03 1593,-490.03 1589.5,-500.03 1596.5,-500.03"/>
</g>
<!-- 30&#45;&gt;4 -->
<g id="edge5" class="edge">
<title>30&#45;&gt;4</title>
<path fill="none" stroke="black" stroke-dasharray="1,5" d="M1468,-161.81C1468,-153.79 1468,-144.05 1468,-135.07"/>
<polygon fill="black" stroke="black" points="1471.5,-135.03 1468,-125.03 1464.5,-135.03 1471.5,-135.03"/>
</g>
<!-- 31 -->
<g id="node26" class="node">
<title>31</title>
<ellipse fill="none" stroke="black" cx="1491" cy="-628" rx="40.09" ry="18"/>
<text text-anchor="middle" x="1491" y="-624.3" font-family="Times,serif" font-size="14.00">Pal (b)</text>
</g>
<!-- 33 -->
<g id="node28" class="node">
<title>33</title>
<ellipse fill="none" stroke="black" cx="1222" cy="-711" rx="44.39" ry="18"/>
<text text-anchor="middle" x="1222" y="-707.3" font-family="Times,serif" font-size="14.00">A25 (b)</text>
</g>
<!-- 33&#45;&gt;1 -->
<g id="edge2" class="edge">
<title>33&#45;&gt;1</title>
<path fill="none" stroke="black" stroke-dasharray="1,5" d="M1179.06,-706.22C1096.22,-698.48 908.85,-678.72 754,-646 749.89,-645.13 745.65,-644.13 741.42,-643.05"/>
<polygon fill="black" stroke="black" points="742.18,-639.63 731.62,-640.44 740.38,-646.4 742.18,-639.63"/>
<text text-anchor="middle" x="910.5" y="-667" font-family="Times,serif" font-size="10.00">2</text>
</g>
<!-- 33&#45;&gt;5 -->
<g id="edge6" class="edge">
<title>33&#45;&gt;5</title>
<path fill="none" stroke="black" stroke-dasharray="1,5" d="M1183.06,-702.31C1108.99,-687.67 947.78,-655.83 864.36,-639.34"/>
<polygon fill="black" stroke="black" points="864.83,-635.87 854.34,-637.36 863.47,-642.74 864.83,-635.87"/>
<text text-anchor="middle" x="1044.5" y="-667" font-family="Times,serif" font-size="10.00">2</text>
</g>
<!-- 33&#45;&gt;11 -->
<g id="edge12" class="edge">
<title>33&#45;&gt;11</title>
<path fill="none" stroke="black" stroke-dasharray="5,2" d="M1194.8,-696.81C1166.74,-683.2 1122.8,-661.89 1091.68,-646.79"/>
<polygon fill="black" stroke="black" points="1092.99,-643.54 1082.47,-642.32 1089.94,-649.84 1092.99,-643.54"/>
</g>
<!-- 33&#45;&gt;12 -->
<g id="edge13" class="edge">
<title>33&#45;&gt;12</title>
<path fill="none" stroke="black" stroke-dasharray="5,2" d="M1210.6,-693.22C1202.93,-681.92 1192.68,-666.83 1184.05,-654.11"/>
<polygon fill="black" stroke="black" points="1186.89,-652.07 1178.38,-645.76 1181.1,-656 1186.89,-652.07"/>
</g>
<!-- 33&#45;&gt;17 -->
<g id="edge16" class="edge">
<title>33&#45;&gt;17</title>
<path fill="none" stroke="black" stroke-dasharray="5,2" d="M1233.53,-693.61C1241.52,-682.27 1252.29,-666.96 1261.35,-654.09"/>
<polygon fill="black" stroke="black" points="1264.39,-655.84 1267.29,-645.65 1258.67,-651.81 1264.39,-655.84"/>
</g>
<!-- 33&#45;&gt;22 -->
<g id="edge19" class="edge">
<title>33&#45;&gt;22</title>
<path fill="none" stroke="black" stroke-dasharray="5,2" d="M1249.25,-696.62C1276.87,-683.06 1319.79,-662 1350.37,-646.98"/>
<polygon fill="black" stroke="black" points="1352,-650.08 1359.44,-642.53 1348.92,-643.8 1352,-650.08"/>
<text text-anchor="middle" x="1317.5" y="-667" font-family="Times,serif" font-size="10.00">2</text>
</g>
<!-- 33&#45;&gt;31 -->
<g id="edge25" class="edge">
<title>33&#45;&gt;31</title>
<path fill="none" stroke="black" stroke-dasharray="5,2" d="M1257.42,-700.16C1300.84,-687.98 1376.6,-666.35 1441,-646 1444.1,-645.02 1447.31,-643.98 1450.53,-642.93"/>
<polygon fill="black" stroke="black" points="1451.75,-646.21 1460.13,-639.73 1449.54,-639.57 1451.75,-646.21"/>
</g>
<!-- 42 -->
<g id="node34" class="node">
<title>42</title>
<ellipse fill="none" stroke="black" cx="1599" cy="-628" rx="50.09" ry="18"/>
<text text-anchor="middle" x="1599" y="-624.3" font-family="Times,serif" font-size="14.00">S249 (b)</text>
</g>
<!-- 33&#45;&gt;42 -->
<g id="edge33" class="edge">
<title>33&#45;&gt;42</title>
<path fill="none" stroke="black" stroke-dasharray="5,2" d="M1261.89,-703.06C1322.36,-692.29 1440.71,-670.25 1540,-646 1544.02,-645.02 1548.18,-643.94 1552.34,-642.83"/>
<polygon fill="black" stroke="black" points="1553.28,-646.2 1561.99,-640.17 1551.42,-639.45 1553.28,-646.2"/>
<text text-anchor="middle" x="1456.5" y="-667" font-family="Times,serif" font-size="10.00">2</text>
</g>
<!-- 34&#45;&gt;2 -->
<g id="edge3" class="edge">
<title>34&#45;&gt;2</title>
<path fill="none" stroke="black" stroke-dasharray="1,5" d="M1468,-380.81C1468,-372.79 1468,-363.05 1468,-354.07"/>
<polygon fill="black" stroke="black" points="1471.5,-354.03 1468,-344.03 1464.5,-354.03 1471.5,-354.03"/>
</g>
<!-- 41 -->
<g id="node33" class="node">
<title>41</title>
<ellipse fill="none" stroke="black" cx="1092" cy="-472" rx="50.09" ry="18"/>
<text text-anchor="middle" x="1092" y="-468.3" font-family="Times,serif" font-size="14.00">A336 (b)</text>
</g>
<!-- 37&#45;&gt;41 -->
<g id="edge32" class="edge">
<title>37&#45;&gt;41</title>
<path fill="none" stroke="black" stroke-dasharray="5,2" d="M1092,-526.81C1092,-518.79 1092,-509.05 1092,-500.07"/>
<polygon fill="black" stroke="black" points="1095.5,-500.03 1092,-490.03 1088.5,-500.03 1095.5,-500.03"/>
</g>
<!-- 20 -->
<g id="node35" class="node">
<title>20</title>
<ellipse fill="none" stroke="blue" stroke-dasharray="5,2" cx="1222" cy="-785" rx="53.89" ry="18"/>
<text text-anchor="middle" x="1222" y="-781.3" font-family="Times,serif" font-size="14.00">aBase (a)</text>
</g>
<!-- 20&#45;&gt;33 -->
<g id="edge27" class="edge">
<title>20&#45;&gt;33</title>
<path fill="none" stroke="blue" stroke-dasharray="5,2" d="M1222,-766.94C1222,-758.81 1222,-748.88 1222,-739.7"/>
<polygon fill="blue" stroke="blue" points="1225.5,-739.44 1222,-729.44 1218.5,-739.44 1225.5,-739.44"/>
</g>
</g>
</svg>
