<?xml version="1.0" encoding="UTF-8" standalone="no"?>
<!DOCTYPE svg PUBLIC "-//W3C//DTD SVG 1.1//EN"
 "http://www.w3.org/Graphics/SVG/1.1/DTD/svg11.dtd">
<!-- Generated by graphviz version 2.43.0 (0)
 -->
<!-- Title: textual_flow_diagram Pages: 1 -->
<svg width="1166pt" height="745pt"
 viewBox="0.00 0.00 1166.00 745.00" xmlns="http://www.w3.org/2000/svg" xmlns:xlink="http://www.w3.org/1999/xlink">
<g id="graph0" class="graph" transform="scale(1 1) rotate(0) translate(4 741)">
<title>textual_flow_diagram</title>
<polygon fill="white" stroke="transparent" points="-4,4 -4,-741 1162,-741 1162,4 -4,4"/>
<g id="clust1" class="cluster">
<title>cluster_legend</title>
<polygon fill="none" stroke="black" points="8,-675 8,-729 182,-729 182,-675 8,-675"/>
</g>
<g id="clust2" class="cluster">
<title>cluster_plot</title>
</g>
<!-- label -->
<g id="node1" class="node">
<title>label</title>
<text text-anchor="middle" x="95" y="-705.8" font-family="Times,serif" font-size="14.00">adstag1.1.14U54, b</text>
<text text-anchor="middle" x="95" y="-690.8" font-family="Times,serif" font-size="14.00">Con = 5</text>
</g>
<!-- 1 -->
<g id="node2" class="node">
<title>1</title>
<ellipse fill="none" stroke="black" cx="858" cy="-180" rx="41.69" ry="18"/>
<text text-anchor="middle" x="858" y="-176.3" font-family="Times,serif" font-size="14.00">Sin (b)</text>
</g>
<!-- 6 -->
<g id="node7" class="node">
<title>6</title>
<ellipse fill="none" stroke="black" cx="858" cy="-107" rx="50.09" ry="18"/>
<text text-anchor="middle" x="858" y="-103.3" font-family="Times,serif" font-size="14.00">Marc (b)</text>
</g>
<!-- 1&#45;&gt;6 -->
<g id="edge6" class="edge">
<title>1&#45;&gt;6</title>
<path fill="none" stroke="black" stroke-dasharray="1,5" d="M858,-161.81C858,-153.79 858,-144.05 858,-135.07"/>
<polygon fill="black" stroke="black" points="861.5,-135.03 858,-125.03 854.5,-135.03 861.5,-135.03"/>
</g>
<!-- 2 -->
<g id="node3" class="node">
<title>2</title>
<ellipse fill="none" stroke="black" cx="711" cy="-545" rx="53.09" ry="18"/>
<text text-anchor="middle" x="711" y="-541.3" font-family="Times,serif" font-size="14.00">LaSM (b)</text>
</g>
<!-- 3 -->
<g id="node4" class="node">
<title>3</title>
<ellipse fill="none" stroke="black" cx="971" cy="-180" rx="53.09" ry="18"/>
<text text-anchor="middle" x="971" y="-176.3" font-family="Times,serif" font-size="14.00">M118 (b)</text>
</g>
<!-- 8 -->
<g id="node8" class="node">
<title>8</title>
<ellipse fill="none" stroke="black" cx="971" cy="-107" rx="44.39" ry="18"/>
<text text-anchor="middle" x="971" y="-103.3" font-family="Times,serif" font-size="14.00">P18 (b)</text>
</g>
<!-- 3&#45;&gt;8 -->
<g id="edge7" class="edge">
<title>3&#45;&gt;8</title>
<path fill="none" stroke="black" stroke-dasharray="5,2" d="M971,-161.81C971,-153.79 971,-144.05 971,-135.07"/>
<polygon fill="black" stroke="black" points="974.5,-135.03 971,-125.03 967.5,-135.03 974.5,-135.03"/>
</g>
<!-- 4 -->
<g id="node5" class="node">
<title>4</title>
<ellipse fill="none" stroke="black" cx="858" cy="-34" rx="46.59" ry="18"/>
<text text-anchor="middle" x="858" y="-30.3" font-family="Times,serif" font-size="14.00">Mon (b)</text>
</g>
<!-- 5 -->
<g id="node6" class="node">
<title>5</title>
<ellipse fill="none" stroke="black" cx="848" cy="-545" rx="65.79" ry="18"/>
<text text-anchor="middle" x="848" y="-541.3" font-family="Times,serif" font-size="14.00">Savile&#45;Η (b)</text>
</g>
<!-- 6&#45;&gt;4 -->
<g id="edge4" class="edge">
<title>6&#45;&gt;4</title>
<path fill="none" stroke="black" stroke-dasharray="1,5" d="M858,-88.81C858,-80.79 858,-71.05 858,-62.07"/>
<polygon fill="black" stroke="black" points="861.5,-62.03 858,-52.03 854.5,-62.03 861.5,-62.03"/>
</g>
<!-- 9 -->
<g id="node9" class="node">
<title>9</title>
<ellipse fill="none" stroke="black" cx="826" cy="-472" rx="55.79" ry="18"/>
<text text-anchor="middle" x="826" y="-468.3" font-family="Times,serif" font-size="14.00">V2250 (b)</text>
</g>
<!-- 13 -->
<g id="node10" class="node">
<title>13</title>
<ellipse fill="none" stroke="black" cx="399" cy="-628" rx="50.09" ry="18"/>
<text text-anchor="middle" x="399" y="-624.3" font-family="Times,serif" font-size="14.00">V571 (b)</text>
</g>
<!-- 22 -->
<g id="node15" class="node">
<title>22</title>
<ellipse fill="none" stroke="black" cx="242" cy="-545" rx="44.39" ry="18"/>
<text text-anchor="middle" x="242" y="-541.3" font-family="Times,serif" font-size="14.00">S32 (b)</text>
</g>
<!-- 13&#45;&gt;22 -->
<g id="edge14" class="edge">
<title>13&#45;&gt;22</title>
<path fill="none" stroke="black" stroke-dasharray="5,2" d="M371.65,-612.89C345.53,-599.41 306.01,-579.02 277.47,-564.3"/>
<polygon fill="black" stroke="black" points="278.74,-561.02 268.25,-559.54 275.53,-567.24 278.74,-561.02"/>
<text text-anchor="middle" x="332.5" y="-584" font-family="Times,serif" font-size="10.00">4</text>
</g>
<!-- 25 -->
<g id="node18" class="node">
<title>25</title>
<ellipse fill="none" stroke="black" cx="360" cy="-545" rx="55.79" ry="18"/>
<text text-anchor="middle" x="360" y="-541.3" font-family="Times,serif" font-size="14.00">V2036 (b)</text>
</g>
<!-- 13&#45;&gt;25 -->
<g id="edge17" class="edge">
<title>13&#45;&gt;25</title>
<path fill="none" stroke="black" stroke-dasharray="1,5" d="M390.92,-610.22C385.62,-599.21 378.59,-584.6 372.57,-572.1"/>
<polygon fill="black" stroke="black" points="375.7,-570.53 368.2,-563.04 369.39,-573.57 375.7,-570.53"/>
<text text-anchor="middle" x="384.5" y="-584" font-family="Times,serif" font-size="10.00">2</text>
</g>
<!-- 33 -->
<g id="node20" class="node">
<title>33</title>
<ellipse fill="none" stroke="black" cx="484" cy="-545" rx="50.09" ry="18"/>
<text text-anchor="middle" x="484" y="-541.3" font-family="Times,serif" font-size="14.00">V560 (b)</text>
</g>
<!-- 13&#45;&gt;33 -->
<g id="edge19" class="edge">
<title>13&#45;&gt;33</title>
<path fill="none" stroke="black" stroke-width="2" d="M415.79,-611C428.37,-599.02 445.75,-582.45 459.82,-569.04"/>
<polygon fill="black" stroke="black" stroke-width="2" points="462.42,-571.4 467.24,-561.97 457.59,-566.33 462.42,-571.4"/>
<text text-anchor="middle" x="449.5" y="-584" font-family="Times,serif" font-size="10.00">4</text>
</g>
<!-- 44 -->
<g id="node26" class="node">
<title>44</title>
<ellipse fill="none" stroke="black" cx="596" cy="-545" rx="43.59" ry="18"/>
<text text-anchor="middle" x="596" y="-541.3" font-family="Times,serif" font-size="14.00">La2 (b)</text>
</g>
<!-- 13&#45;&gt;44 -->
<g id="edge25" class="edge">
<title>13&#45;&gt;44</title>
<path fill="none" stroke="black" d="M430.65,-613.99C464.9,-599.91 519.56,-577.43 556.57,-562.21"/>
<polygon fill="black" stroke="black" points="558.12,-565.36 566.04,-558.32 555.46,-558.88 558.12,-565.36"/>
<text text-anchor="middle" x="512.5" y="-584" font-family="Times,serif" font-size="10.00">5</text>
</g>
<!-- 14 -->
<g id="node11" class="node">
<title>14</title>
<ellipse fill="none" stroke="black" cx="1010" cy="-253" rx="47.39" ry="18"/>
<text text-anchor="middle" x="1010" y="-249.3" font-family="Times,serif" font-size="14.00">Taur (b)</text>
</g>
<!-- 14&#45;&gt;1 -->
<g id="edge1" class="edge">
<title>14&#45;&gt;1</title>
<path fill="none" stroke="black" stroke-dasharray="1,5" d="M981.05,-238.48C956.5,-227.01 921.16,-210.5 894.64,-198.11"/>
<polygon fill="black" stroke="black" points="895.85,-194.82 885.31,-193.75 892.89,-201.16 895.85,-194.82"/>
</g>
<!-- 14&#45;&gt;3 -->
<g id="edge3" class="edge">
<title>14&#45;&gt;3</title>
<path fill="none" stroke="black" stroke-dasharray="5,2" d="M1000.76,-235.17C996.16,-226.81 990.5,-216.51 985.36,-207.14"/>
<polygon fill="black" stroke="black" points="988.33,-205.28 980.45,-198.2 982.19,-208.65 988.33,-205.28"/>
</g>
<!-- 40 -->
<g id="node23" class="node">
<title>40</title>
<ellipse fill="none" stroke="black" cx="1092" cy="-180" rx="50.09" ry="18"/>
<text text-anchor="middle" x="1092" y="-176.3" font-family="Times,serif" font-size="14.00">V569 (b)</text>
</g>
<!-- 14&#45;&gt;40 -->
<g id="edge22" class="edge">
<title>14&#45;&gt;40</title>
<path fill="none" stroke="black" stroke-dasharray="5,2" d="M1028.2,-236.24C1039.27,-226.66 1053.59,-214.26 1065.86,-203.64"/>
<polygon fill="black" stroke="black" points="1068.3,-206.15 1073.57,-196.96 1063.72,-200.86 1068.3,-206.15"/>
</g>
<!-- 16 -->
<g id="node12" class="node">
<title>16</title>
<ellipse fill="none" stroke="black" cx="956" cy="-399" rx="42.49" ry="18"/>
<text text-anchor="middle" x="956" y="-395.3" font-family="Times,serif" font-size="14.00">Est (b)</text>
</g>
<!-- 17 -->
<g id="node13" class="node">
<title>17</title>
<ellipse fill="none" stroke="black" cx="956" cy="-472" rx="55.79" ry="18"/>
<text text-anchor="middle" x="956" y="-468.3" font-family="Times,serif" font-size="14.00">V1897 (b)</text>
</g>
<!-- 17&#45;&gt;16 -->
<g id="edge11" class="edge">
<title>17&#45;&gt;16</title>
<path fill="none" stroke="black" stroke-dasharray="1,5" d="M956,-453.81C956,-445.79 956,-436.05 956,-427.07"/>
<polygon fill="black" stroke="black" points="959.5,-427.03 956,-417.03 952.5,-427.03 959.5,-427.03"/>
</g>
<!-- 18 -->
<g id="node14" class="node">
<title>18</title>
<ellipse fill="none" stroke="black" cx="1069" cy="-326" rx="50.09" ry="18"/>
<text text-anchor="middle" x="1069" y="-322.3" font-family="Times,serif" font-size="14.00">V568 (b)</text>
</g>
<!-- 18&#45;&gt;14 -->
<g id="edge10" class="edge">
<title>18&#45;&gt;14</title>
<path fill="none" stroke="black" stroke-dasharray="1,5" d="M1055.32,-308.53C1047.87,-299.57 1038.51,-288.31 1030.24,-278.36"/>
<polygon fill="black" stroke="black" points="1032.69,-275.83 1023.61,-270.38 1027.31,-280.31 1032.69,-275.83"/>
</g>
<!-- 23 -->
<g id="node16" class="node">
<title>23</title>
<ellipse fill="none" stroke="black" cx="1091" cy="-545" rx="50.89" ry="18"/>
<text text-anchor="middle" x="1091" y="-541.3" font-family="Times,serif" font-size="14.00">Neap (b)</text>
</g>
<!-- 28 -->
<g id="node19" class="node">
<title>28</title>
<ellipse fill="none" stroke="black" cx="1086" cy="-472" rx="55.79" ry="18"/>
<text text-anchor="middle" x="1086" y="-468.3" font-family="Times,serif" font-size="14.00">V1629 (b)</text>
</g>
<!-- 23&#45;&gt;28 -->
<g id="edge18" class="edge">
<title>23&#45;&gt;28</title>
<path fill="none" stroke="black" stroke-dasharray="1,5" d="M1089.79,-526.81C1089.22,-518.79 1088.54,-509.05 1087.91,-500.07"/>
<polygon fill="black" stroke="black" points="1091.39,-499.76 1087.2,-490.03 1084.41,-500.25 1091.39,-499.76"/>
</g>
<!-- 24 -->
<g id="node17" class="node">
<title>24</title>
<ellipse fill="none" stroke="black" cx="1076" cy="-399" rx="50.09" ry="18"/>
<text text-anchor="middle" x="1076" y="-395.3" font-family="Times,serif" font-size="14.00">V536 (b)</text>
</g>
<!-- 24&#45;&gt;18 -->
<g id="edge13" class="edge">
<title>24&#45;&gt;18</title>
<path fill="none" stroke="black" stroke-dasharray="1,5" d="M1074.31,-380.81C1073.51,-372.79 1072.55,-363.05 1071.67,-354.07"/>
<polygon fill="black" stroke="black" points="1075.14,-353.64 1070.68,-344.03 1068.18,-354.32 1075.14,-353.64"/>
</g>
<!-- 28&#45;&gt;24 -->
<g id="edge16" class="edge">
<title>28&#45;&gt;24</title>
<path fill="none" stroke="black" stroke-dasharray="5,2" d="M1083.58,-453.81C1082.45,-445.79 1081.08,-436.05 1079.81,-427.07"/>
<polygon fill="black" stroke="black" points="1083.26,-426.44 1078.4,-417.03 1076.33,-427.42 1083.26,-426.44"/>
</g>
<!-- 43 -->
<g id="node25" class="node">
<title>43</title>
<ellipse fill="none" stroke="black" cx="484" cy="-472" rx="55.79" ry="18"/>
<text text-anchor="middle" x="484" y="-468.3" font-family="Times,serif" font-size="14.00">V1920 (b)</text>
</g>
<!-- 33&#45;&gt;43 -->
<g id="edge24" class="edge">
<title>33&#45;&gt;43</title>
<path fill="none" stroke="black" stroke-dasharray="5,2" d="M484,-526.81C484,-518.79 484,-509.05 484,-500.07"/>
<polygon fill="black" stroke="black" points="487.5,-500.03 484,-490.03 480.5,-500.03 487.5,-500.03"/>
</g>
<!-- 35 -->
<g id="node21" class="node">
<title>35</title>
<ellipse fill="none" stroke="black" cx="848" cy="-628" rx="55.79" ry="18"/>
<text text-anchor="middle" x="848" y="-624.3" font-family="Times,serif" font-size="14.00">V1639 (b)</text>
</g>
<!-- 35&#45;&gt;2 -->
<g id="edge2" class="edge">
<title>35&#45;&gt;2</title>
<path fill="none" stroke="black" stroke-dasharray="5,2" d="M822.55,-611.95C800.73,-599.05 769.11,-580.36 745.1,-566.16"/>
<polygon fill="black" stroke="black" points="746.7,-563.04 736.31,-560.97 743.14,-569.07 746.7,-563.04"/>
<text text-anchor="middle" x="790.5" y="-584" font-family="Times,serif" font-size="10.00">5</text>
</g>
<!-- 35&#45;&gt;5 -->
<g id="edge5" class="edge">
<title>35&#45;&gt;5</title>
<path fill="none" stroke="black" d="M848,-609.82C848,-599.19 848,-585.31 848,-573.2"/>
<polygon fill="black" stroke="black" points="851.5,-573.15 848,-563.15 844.5,-573.15 851.5,-573.15"/>
</g>
<!-- 42 -->
<g id="node24" class="node">
<title>42</title>
<ellipse fill="none" stroke="black" cx="977" cy="-545" rx="45.49" ry="18"/>
<text text-anchor="middle" x="977" y="-541.3" font-family="Times,serif" font-size="14.00">Nan (b)</text>
</g>
<!-- 35&#45;&gt;42 -->
<g id="edge23" class="edge">
<title>35&#45;&gt;42</title>
<path fill="none" stroke="black" stroke-dasharray="5,2" d="M872.26,-611.76C892.88,-598.82 922.63,-580.14 945.16,-565.99"/>
<polygon fill="black" stroke="black" points="947.11,-568.9 953.71,-560.62 943.38,-562.98 947.11,-568.9"/>
<text text-anchor="middle" x="923.5" y="-584" font-family="Times,serif" font-size="10.00">5</text>
</g>
<!-- 38 -->
<g id="node22" class="node">
<title>38</title>
<ellipse fill="none" stroke="black" cx="1088" cy="-628" rx="53.09" ry="18"/>
<text text-anchor="middle" x="1088" y="-624.3" font-family="Times,serif" font-size="14.00">M136 (b)</text>
</g>
<!-- 38&#45;&gt;23 -->
<g id="edge15" class="edge">
<title>38&#45;&gt;23</title>
<path fill="none" stroke="black" stroke-dasharray="5,2" d="M1088.64,-609.82C1089.03,-599.19 1089.54,-585.31 1089.99,-573.2"/>
<polygon fill="black" stroke="black" points="1093.49,-573.28 1090.36,-563.15 1086.5,-573.02 1093.49,-573.28"/>
<text text-anchor="middle" x="1092.5" y="-584" font-family="Times,serif" font-size="10.00">2</text>
</g>
<!-- 42&#45;&gt;9 -->
<g id="edge8" class="edge">
<title>42&#45;&gt;9</title>
<path fill="none" stroke="black" stroke-dasharray="5,2" d="M948.95,-530.81C925.48,-519.78 891.72,-503.9 865.51,-491.58"/>
<polygon fill="black" stroke="black" points="866.77,-488.3 856.23,-487.21 863.79,-494.64 866.77,-488.3"/>
</g>
<!-- 42&#45;&gt;17 -->
<g id="edge12" class="edge">
<title>42&#45;&gt;17</title>
<path fill="none" stroke="black" stroke-dasharray="1,5" d="M971.92,-526.81C969.52,-518.7 966.6,-508.84 963.92,-499.78"/>
<polygon fill="black" stroke="black" points="967.23,-498.63 961.04,-490.03 960.52,-500.61 967.23,-498.63"/>
</g>
<!-- 11 -->
<g id="node27" class="node">
<title>11</title>
<ellipse fill="none" stroke="blue" stroke-dasharray="5,2" cx="1088" cy="-702" rx="53.89" ry="18"/>
<text text-anchor="middle" x="1088" y="-698.3" font-family="Times,serif" font-size="14.00">aBase (a)</text>
</g>
<!-- 11&#45;&gt;38 -->
<g id="edge21" class="edge">
<title>11&#45;&gt;38</title>
<path fill="none" stroke="blue" stroke-width="2" d="M1088,-683.94C1088,-675.81 1088,-665.88 1088,-656.7"/>
<polygon fill="blue" stroke="blue" stroke-width="2" points="1091.5,-656.44 1088,-646.44 1084.5,-656.44 1091.5,-656.44"/>
</g>
<!-- 19 -->
<g id="node28" class="node">
<title>19</title>
<ellipse fill="none" stroke="blue" stroke-dasharray="5,2" cx="848" cy="-702" rx="50.09" ry="18"/>
<text text-anchor="middle" x="848" y="-698.3" font-family="Times,serif" font-size="14.00">V566 (a)</text>
</g>
<!-- 19&#45;&gt;35 -->
<g id="edge20" class="edge">
<title>19&#45;&gt;35</title>
<path fill="none" stroke="blue" stroke-dasharray="1,5" d="M848,-683.94C848,-675.81 848,-665.88 848,-656.7"/>
<polygon fill="blue" stroke="blue" points="851.5,-656.44 848,-646.44 844.5,-656.44 851.5,-656.44"/>
</g>
<!-- 27 -->
<g id="node29" class="node">
<title>27</title>
<ellipse fill="none" stroke="blue" stroke-dasharray="5,2" cx="399" cy="-702" rx="48.99" ry="18"/>
<text text-anchor="middle" x="399" y="-698.3" font-family="Times,serif" font-size="14.00">La22 (a)</text>
</g>
<!-- 27&#45;&gt;13 -->
<g id="edge9" class="edge">
<title>27&#45;&gt;13</title>
<path fill="none" stroke="blue" stroke-dasharray="1,5" d="M399,-683.94C399,-675.81 399,-665.88 399,-656.7"/>
<polygon fill="blue" stroke="blue" points="402.5,-656.44 399,-646.44 395.5,-656.44 402.5,-656.44"/>
</g>
</g>
</svg>
