<?xml version="1.0" encoding="UTF-8" standalone="no"?>
<!DOCTYPE svg PUBLIC "-//W3C//DTD SVG 1.1//EN"
 "http://www.w3.org/Graphics/SVG/1.1/DTD/svg11.dtd">
<!-- Generated by graphviz version 2.43.0 (0)
 -->
<!-- Title: textual_flow_diagram Pages: 1 -->
<svg width="810pt" height="244pt"
 viewBox="0.00 0.00 810.00 244.00" xmlns="http://www.w3.org/2000/svg" xmlns:xlink="http://www.w3.org/1999/xlink">
<g id="graph0" class="graph" transform="scale(1 1) rotate(0) translate(4 240)">
<title>textual_flow_diagram</title>
<polygon fill="white" stroke="transparent" points="-4,4 -4,-240 806,-240 806,4 -4,4"/>
<g id="clust1" class="cluster">
<title>cluster_legend</title>
<polygon fill="none" stroke="black" points="8,-174 8,-228 194,-228 194,-174 8,-174"/>
</g>
<g id="clust2" class="cluster">
<title>cluster_plot</title>
</g>
<!-- label -->
<g id="node1" class="node">
<title>label</title>
<text text-anchor="middle" x="101" y="-204.8" font-family="Times,serif" font-size="14.00">adstag1.1.5U12&#45;14, a</text>
<text text-anchor="middle" x="101" y="-189.8" font-family="Times,serif" font-size="14.00">Con = 10</text>
</g>
<!-- 8 -->
<g id="node2" class="node">
<title>8</title>
<ellipse fill="none" stroke="black" cx="525" cy="-34" rx="55.79" ry="18"/>
<text text-anchor="middle" x="525" y="-30.3" font-family="Times,serif" font-size="14.00">V2250 (a)</text>
</g>
<!-- 11 -->
<g id="node3" class="node">
<title>11</title>
<ellipse fill="none" stroke="black" cx="253" cy="-117" rx="42.79" ry="18"/>
<text text-anchor="middle" x="253" y="-113.3" font-family="Times,serif" font-size="14.00">La2 (a)</text>
</g>
<!-- 18 -->
<g id="node4" class="node">
<title>18</title>
<ellipse fill="none" stroke="black" cx="642" cy="-34" rx="42.79" ry="18"/>
<text text-anchor="middle" x="642" y="-30.3" font-family="Times,serif" font-size="14.00">Bas (a)</text>
</g>
<!-- 19 -->
<g id="node5" class="node">
<title>19</title>
<ellipse fill="none" stroke="black" cx="395" cy="-34" rx="55.79" ry="18"/>
<text text-anchor="middle" x="395" y="-30.3" font-family="Times,serif" font-size="14.00">V1920 (a)</text>
</g>
<!-- 21 -->
<g id="node6" class="node">
<title>21</title>
<ellipse fill="none" stroke="black" cx="367" cy="-117" rx="52.79" ry="18"/>
<text text-anchor="middle" x="367" y="-113.3" font-family="Times,serif" font-size="14.00">LaSM (a)</text>
</g>
<!-- 28 -->
<g id="node10" class="node">
<title>28</title>
<ellipse fill="none" stroke="black" cx="277" cy="-34" rx="44.39" ry="18"/>
<text text-anchor="middle" x="277" y="-30.3" font-family="Times,serif" font-size="14.00">B39 (a)</text>
</g>
<!-- 21&#45;&gt;28 -->
<g id="edge9" class="edge">
<title>21&#45;&gt;28</title>
<path fill="none" stroke="black" stroke-dasharray="5,2" d="M349.22,-100C335.7,-87.83 316.92,-70.93 301.9,-57.41"/>
<polygon fill="black" stroke="black" points="304.21,-54.78 294.44,-50.69 299.53,-59.99 304.21,-54.78"/>
</g>
<!-- 23 -->
<g id="node7" class="node">
<title>23</title>
<ellipse fill="none" stroke="black" cx="488" cy="-117" rx="50.09" ry="18"/>
<text text-anchor="middle" x="488" y="-113.3" font-family="Times,serif" font-size="14.00">V565 (a)</text>
</g>
<!-- 24 -->
<g id="node8" class="node">
<title>24</title>
<ellipse fill="none" stroke="black" cx="744" cy="-34" rx="41.69" ry="18"/>
<text text-anchor="middle" x="744" y="-30.3" font-family="Times,serif" font-size="14.00">Est (a)</text>
</g>
<!-- 25 -->
<g id="node9" class="node">
<title>25</title>
<ellipse fill="none" stroke="black" cx="606" cy="-117" rx="50.09" ry="18"/>
<text text-anchor="middle" x="606" y="-113.3" font-family="Times,serif" font-size="14.00">V560 (a)</text>
</g>
<!-- 25&#45;&gt;19 -->
<g id="edge4" class="edge">
<title>25&#45;&gt;19</title>
<path fill="none" stroke="black" stroke-dasharray="5,2" d="M573.03,-103.34C536.95,-89.49 478.92,-67.22 438.98,-51.88"/>
<polygon fill="black" stroke="black" points="440.08,-48.56 429.49,-48.24 437.57,-55.09 440.08,-48.56"/>
</g>
<!-- 32 -->
<g id="node11" class="node">
<title>32</title>
<ellipse fill="none" stroke="black" cx="488" cy="-201" rx="53.89" ry="18"/>
<text text-anchor="middle" x="488" y="-197.3" font-family="Times,serif" font-size="14.00">aBase (a)</text>
</g>
<!-- 32&#45;&gt;11 -->
<g id="edge2" class="edge">
<title>32&#45;&gt;11</title>
<path fill="none" stroke="black" stroke-width="2" d="M452.05,-187.46C409.62,-172.65 339.18,-148.07 294.47,-132.47"/>
<polygon fill="black" stroke="black" stroke-width="2" points="295.39,-129.08 284.8,-129.09 293.08,-135.69 295.39,-129.08"/>
</g>
<!-- 32&#45;&gt;21 -->
<g id="edge5" class="edge">
<title>32&#45;&gt;21</title>
<path fill="none" stroke="black" d="M465.24,-184.58C446.23,-171.69 418.93,-153.2 397.94,-138.97"/>
<polygon fill="black" stroke="black" points="399.9,-136.07 389.66,-133.35 395.97,-141.86 399.9,-136.07"/>
</g>
<!-- 32&#45;&gt;23 -->
<g id="edge6" class="edge">
<title>32&#45;&gt;23</title>
<path fill="none" stroke="black" d="M488,-182.61C488,-171.77 488,-157.6 488,-145.29"/>
<polygon fill="black" stroke="black" points="491.5,-145.08 488,-135.08 484.5,-145.08 491.5,-145.08"/>
<text text-anchor="middle" x="491.5" y="-156" font-family="Times,serif" font-size="10.00">5</text>
</g>
<!-- 32&#45;&gt;25 -->
<g id="edge8" class="edge">
<title>32&#45;&gt;25</title>
<path fill="none" stroke="black" stroke-width="2" d="M510.19,-184.58C528.65,-171.75 555.12,-153.36 575.56,-139.16"/>
<polygon fill="black" stroke="black" stroke-width="2" points="577.69,-141.94 583.9,-133.35 573.7,-136.19 577.69,-141.94"/>
</g>
<!-- 35 -->
<g id="node12" class="node">
<title>35</title>
<ellipse fill="none" stroke="black" cx="730" cy="-117" rx="55.79" ry="18"/>
<text text-anchor="middle" x="730" y="-113.3" font-family="Times,serif" font-size="14.00">V1897 (a)</text>
</g>
<!-- 32&#45;&gt;35 -->
<g id="edge10" class="edge">
<title>32&#45;&gt;35</title>
<path fill="none" stroke="black" d="M524.49,-187.63C566.9,-173.27 636.96,-149.53 683.3,-133.82"/>
<polygon fill="black" stroke="black" points="684.47,-137.12 692.81,-130.6 682.22,-130.5 684.47,-137.12"/>
<text text-anchor="middle" x="626.5" y="-156" font-family="Times,serif" font-size="10.00">2</text>
</g>
<!-- 35&#45;&gt;8 -->
<g id="edge1" class="edge">
<title>35&#45;&gt;8</title>
<path fill="none" stroke="black" stroke-dasharray="5,2" d="M696.15,-102.62C661.13,-88.79 606.34,-67.14 568.21,-52.07"/>
<polygon fill="black" stroke="black" points="569.49,-48.82 558.9,-48.4 566.92,-55.33 569.49,-48.82"/>
<text text-anchor="middle" x="642.5" y="-73" font-family="Times,serif" font-size="10.00">2</text>
</g>
<!-- 35&#45;&gt;18 -->
<g id="edge3" class="edge">
<title>35&#45;&gt;18</title>
<path fill="none" stroke="black" d="M712.19,-99.61C699.14,-87.6 681.25,-71.13 666.8,-57.83"/>
<polygon fill="black" stroke="black" points="668.91,-55.01 659.18,-50.82 664.17,-60.16 668.91,-55.01"/>
</g>
<!-- 35&#45;&gt;24 -->
<g id="edge7" class="edge">
<title>35&#45;&gt;24</title>
<path fill="none" stroke="black" stroke-dasharray="1,5" d="M732.97,-98.82C734.81,-88.19 737.21,-74.31 739.3,-62.2"/>
<polygon fill="black" stroke="black" points="742.78,-62.6 741.04,-52.15 735.88,-61.41 742.78,-62.6"/>
</g>
</g>
</svg>
