<?xml version="1.0" encoding="UTF-8" standalone="no"?>
<!DOCTYPE svg PUBLIC "-//W3C//DTD SVG 1.1//EN"
 "http://www.w3.org/Graphics/SVG/1.1/DTD/svg11.dtd">
<!-- Generated by graphviz version 2.43.0 (0)
 -->
<!-- Title: textual_flow_diagram Pages: 1 -->
<svg width="612pt" height="150pt"
 viewBox="0.00 0.00 612.00 150.00" xmlns="http://www.w3.org/2000/svg" xmlns:xlink="http://www.w3.org/1999/xlink">
<g id="graph0" class="graph" transform="scale(1 1) rotate(0) translate(4 146)">
<title>textual_flow_diagram</title>
<polygon fill="white" stroke="transparent" points="-4,4 -4,-146 608,-146 608,4 -4,4"/>
<g id="clust1" class="cluster">
<title>cluster_legend</title>
<polygon fill="none" stroke="black" points="8,-80 8,-134 204,-134 204,-80 8,-80"/>
</g>
<g id="clust2" class="cluster">
<title>cluster_plot</title>
</g>
<!-- label -->
<g id="node1" class="node">
<title>label</title>
<text text-anchor="middle" x="106" y="-110.8" font-family="Times,serif" font-size="14.00">adstag1.2.40U26&#45;28, b</text>
<text text-anchor="middle" x="106" y="-95.8" font-family="Times,serif" font-size="14.00">Con = 5</text>
</g>
<!-- 19 -->
<g id="node2" class="node">
<title>19</title>
<ellipse fill="none" stroke="black" cx="404" cy="-34" rx="43.59" ry="18"/>
<text text-anchor="middle" x="404" y="-30.3" font-family="Times,serif" font-size="14.00">La2 (b)</text>
</g>
<!-- 40 -->
<g id="node3" class="node">
<title>40</title>
<ellipse fill="none" stroke="black" cx="276" cy="-34" rx="50.09" ry="18"/>
<text text-anchor="middle" x="276" y="-30.3" font-family="Times,serif" font-size="14.00">V536 (b)</text>
</g>
<!-- 42 -->
<g id="node4" class="node">
<title>42</title>
<ellipse fill="none" stroke="black" cx="532" cy="-34" rx="43.59" ry="18"/>
<text text-anchor="middle" x="532" y="-30.3" font-family="Times,serif" font-size="14.00">Bas (b)</text>
</g>
<!-- 7 -->
<g id="node5" class="node">
<title>7</title>
<ellipse fill="none" stroke="blue" stroke-dasharray="5,2" cx="532" cy="-107" rx="55.79" ry="18"/>
<text text-anchor="middle" x="532" y="-103.3" font-family="Times,serif" font-size="14.00">V1897 (a)</text>
</g>
<!-- 7&#45;&gt;42 -->
<g id="edge3" class="edge">
<title>7&#45;&gt;42</title>
<path fill="none" stroke="blue" d="M532,-88.81C532,-80.79 532,-71.05 532,-62.07"/>
<polygon fill="blue" stroke="blue" points="535.5,-62.03 532,-52.03 528.5,-62.03 535.5,-62.03"/>
</g>
<!-- 11 -->
<g id="node6" class="node">
<title>11</title>
<ellipse fill="none" stroke="blue" stroke-dasharray="5,2" cx="404" cy="-107" rx="53.89" ry="18"/>
<text text-anchor="middle" x="404" y="-103.3" font-family="Times,serif" font-size="14.00">aBase (a)</text>
</g>
<!-- 11&#45;&gt;19 -->
<g id="edge1" class="edge">
<title>11&#45;&gt;19</title>
<path fill="none" stroke="blue" stroke-width="2" d="M404,-88.81C404,-80.79 404,-71.05 404,-62.07"/>
<polygon fill="blue" stroke="blue" stroke-width="2" points="407.5,-62.03 404,-52.03 400.5,-62.03 407.5,-62.03"/>
</g>
<!-- 23 -->
<g id="node7" class="node">
<title>23</title>
<ellipse fill="none" stroke="blue" stroke-dasharray="5,2" cx="276" cy="-107" rx="55.79" ry="18"/>
<text text-anchor="middle" x="276" y="-103.3" font-family="Times,serif" font-size="14.00">V1629 (a)</text>
</g>
<!-- 23&#45;&gt;40 -->
<g id="edge2" class="edge">
<title>23&#45;&gt;40</title>
<path fill="none" stroke="blue" stroke-dasharray="5,2" d="M276,-88.81C276,-80.79 276,-71.05 276,-62.07"/>
<polygon fill="blue" stroke="blue" points="279.5,-62.03 276,-52.03 272.5,-62.03 279.5,-62.03"/>
</g>
</g>
</svg>
