<?xml version="1.0" encoding="UTF-8" standalone="no"?>
<!DOCTYPE svg PUBLIC "-//W3C//DTD SVG 1.1//EN"
 "http://www.w3.org/Graphics/SVG/1.1/DTD/svg11.dtd">
<!-- Generated by graphviz version 2.43.0 (0)
 -->
<!-- Title: textual_flow_diagram Pages: 1 -->
<svg width="2029pt" height="582pt"
 viewBox="0.00 0.00 2029.00 582.00" xmlns="http://www.w3.org/2000/svg" xmlns:xlink="http://www.w3.org/1999/xlink">
<g id="graph0" class="graph" transform="scale(1 1) rotate(0) translate(4 578)">
<title>textual_flow_diagram</title>
<polygon fill="white" stroke="transparent" points="-4,4 -4,-578 2025,-578 2025,4 -4,4"/>
<g id="clust1" class="cluster">
<title>cluster_legend</title>
<polygon fill="none" stroke="black" points="8,-512 8,-566 182,-566 182,-512 8,-512"/>
</g>
<g id="clust2" class="cluster">
<title>cluster_plot</title>
</g>
<!-- label -->
<g id="node1" class="node">
<title>label</title>
<text text-anchor="middle" x="95" y="-542.8" font-family="Times,serif" font-size="14.00">adstag1.2.40U10, a</text>
<text text-anchor="middle" x="95" y="-527.8" font-family="Times,serif" font-size="14.00">Con = 3</text>
</g>
<!-- 0 -->
<g id="node2" class="node">
<title>0</title>
<ellipse fill="none" stroke="black" cx="1028" cy="-394" rx="52.79" ry="18"/>
<text text-anchor="middle" x="1028" y="-390.3" font-family="Times,serif" font-size="14.00">M111 (a)</text>
</g>
<!-- 3 -->
<g id="node4" class="node">
<title>3</title>
<ellipse fill="none" stroke="black" cx="1029" cy="-322" rx="50.09" ry="18"/>
<text text-anchor="middle" x="1029" y="-318.3" font-family="Times,serif" font-size="14.00">A336 (a)</text>
</g>
<!-- 0&#45;&gt;3 -->
<g id="edge3" class="edge">
<title>0&#45;&gt;3</title>
<path fill="none" stroke="black" stroke-dasharray="5,2" d="M1028.25,-375.7C1028.36,-367.98 1028.49,-358.71 1028.61,-350.11"/>
<polygon fill="black" stroke="black" points="1032.11,-350.15 1028.76,-340.1 1025.11,-350.05 1032.11,-350.15"/>
</g>
<!-- 1 -->
<g id="node3" class="node">
<title>1</title>
<ellipse fill="none" stroke="black" cx="479" cy="-394" rx="50.09" ry="18"/>
<text text-anchor="middle" x="479" y="-390.3" font-family="Times,serif" font-size="14.00">Patm (a)</text>
</g>
<!-- 4 -->
<g id="node5" class="node">
<title>4</title>
<ellipse fill="none" stroke="black" cx="1143" cy="-394" rx="44.39" ry="18"/>
<text text-anchor="middle" x="1143" y="-390.3" font-family="Times,serif" font-size="14.00">P74 (a)</text>
</g>
<!-- 5 -->
<g id="node6" class="node">
<title>5</title>
<ellipse fill="none" stroke="black" cx="240" cy="-394" rx="41.69" ry="18"/>
<text text-anchor="middle" x="240" y="-390.3" font-family="Times,serif" font-size="14.00">Est (a)</text>
</g>
<!-- 6 -->
<g id="node7" class="node">
<title>6</title>
<ellipse fill="none" stroke="black" cx="365" cy="-250" rx="46.59" ry="18"/>
<text text-anchor="middle" x="365" y="-246.3" font-family="Times,serif" font-size="14.00">Taur (a)</text>
</g>
<!-- 8 -->
<g id="node9" class="node">
<title>8</title>
<ellipse fill="none" stroke="black" cx="248" cy="-178" rx="50.09" ry="18"/>
<text text-anchor="middle" x="248" y="-174.3" font-family="Times,serif" font-size="14.00">Marc (a)</text>
</g>
<!-- 6&#45;&gt;8 -->
<g id="edge8" class="edge">
<title>6&#45;&gt;8</title>
<path fill="none" stroke="black" stroke-dasharray="1,5" d="M340.76,-234.5C323.54,-224.19 300.21,-210.23 281.25,-198.89"/>
<polygon fill="black" stroke="black" points="282.99,-195.86 272.61,-193.73 279.4,-201.86 282.99,-195.86"/>
</g>
<!-- 10 -->
<g id="node11" class="node">
<title>10</title>
<ellipse fill="none" stroke="black" cx="369" cy="-178" rx="52.79" ry="18"/>
<text text-anchor="middle" x="369" y="-174.3" font-family="Times,serif" font-size="14.00">M118 (a)</text>
</g>
<!-- 6&#45;&gt;10 -->
<g id="edge10" class="edge">
<title>6&#45;&gt;10</title>
<path fill="none" stroke="black" stroke-dasharray="5,2" d="M365.99,-231.7C366.43,-223.98 366.96,-214.71 367.45,-206.11"/>
<polygon fill="black" stroke="black" points="370.95,-206.29 368.02,-196.1 363.96,-205.89 370.95,-206.29"/>
</g>
<!-- 29 -->
<g id="node26" class="node">
<title>29</title>
<ellipse fill="none" stroke="black" cx="490" cy="-178" rx="50.09" ry="18"/>
<text text-anchor="middle" x="490" y="-174.3" font-family="Times,serif" font-size="14.00">V569 (a)</text>
</g>
<!-- 6&#45;&gt;29 -->
<g id="edge24" class="edge">
<title>6&#45;&gt;29</title>
<path fill="none" stroke="black" stroke-dasharray="5,2" d="M390.3,-234.83C408.94,-224.39 434.52,-210.07 455.11,-198.54"/>
<polygon fill="black" stroke="black" points="456.87,-201.57 463.88,-193.63 453.45,-195.46 456.87,-201.57"/>
</g>
<!-- 7 -->
<g id="node8" class="node">
<title>7</title>
<ellipse fill="none" stroke="black" cx="264" cy="-466" rx="55.79" ry="18"/>
<text text-anchor="middle" x="264" y="-462.3" font-family="Times,serif" font-size="14.00">V1897 (a)</text>
</g>
<!-- 7&#45;&gt;5 -->
<g id="edge5" class="edge">
<title>7&#45;&gt;5</title>
<path fill="none" stroke="black" stroke-dasharray="1,5" d="M258.19,-448.05C255.49,-440.18 252.21,-430.62 249.19,-421.79"/>
<polygon fill="black" stroke="black" points="252.48,-420.6 245.92,-412.28 245.86,-422.87 252.48,-420.6"/>
</g>
<!-- 13 -->
<g id="node13" class="node">
<title>13</title>
<ellipse fill="none" stroke="black" cx="248" cy="-106" rx="46.29" ry="18"/>
<text text-anchor="middle" x="248" y="-102.3" font-family="Times,serif" font-size="14.00">Mon (a)</text>
</g>
<!-- 8&#45;&gt;13 -->
<g id="edge11" class="edge">
<title>8&#45;&gt;13</title>
<path fill="none" stroke="black" stroke-dasharray="1,5" d="M248,-159.7C248,-151.98 248,-142.71 248,-134.11"/>
<polygon fill="black" stroke="black" points="251.5,-134.1 248,-124.1 244.5,-134.1 251.5,-134.1"/>
</g>
<!-- 9 -->
<g id="node10" class="node">
<title>9</title>
<ellipse fill="none" stroke="black" cx="1961" cy="-394" rx="44.39" ry="18"/>
<text text-anchor="middle" x="1961" y="-390.3" font-family="Times,serif" font-size="14.00">B39 (a)</text>
</g>
<!-- 11 -->
<g id="node12" class="node">
<title>11</title>
<ellipse fill="none" stroke="black" cx="717" cy="-539" rx="53.89" ry="18"/>
<text text-anchor="middle" x="717" y="-535.3" font-family="Times,serif" font-size="14.00">aBase (a)</text>
</g>
<!-- 11&#45;&gt;7 -->
<g id="edge7" class="edge">
<title>11&#45;&gt;7</title>
<path fill="none" stroke="black" d="M666.81,-532.22C594.05,-523.52 455.13,-505.76 338,-484 331.3,-482.75 324.28,-481.32 317.35,-479.82"/>
<polygon fill="black" stroke="black" points="317.83,-476.34 307.31,-477.59 316.31,-483.17 317.83,-476.34"/>
</g>
<!-- 16 -->
<g id="node15" class="node">
<title>16</title>
<ellipse fill="none" stroke="black" cx="400" cy="-466" rx="52.79" ry="18"/>
<text text-anchor="middle" x="400" y="-462.3" font-family="Times,serif" font-size="14.00">M136 (a)</text>
</g>
<!-- 11&#45;&gt;16 -->
<g id="edge13" class="edge">
<title>11&#45;&gt;16</title>
<path fill="none" stroke="black" stroke-width="2" d="M671.21,-529.15C620.03,-519.06 534.78,-501.67 462,-484 457.85,-482.99 453.56,-481.91 449.26,-480.79"/>
<polygon fill="black" stroke="black" stroke-width="2" points="449.83,-477.32 439.27,-478.14 448.04,-484.09 449.83,-477.32"/>
</g>
<!-- 17 -->
<g id="node16" class="node">
<title>17</title>
<ellipse fill="none" stroke="black" cx="521" cy="-466" rx="50.09" ry="18"/>
<text text-anchor="middle" x="521" y="-462.3" font-family="Times,serif" font-size="14.00">Neap (a)</text>
</g>
<!-- 11&#45;&gt;17 -->
<g id="edge14" class="edge">
<title>11&#45;&gt;17</title>
<path fill="none" stroke="black" stroke-width="2" d="M681.96,-525.31C649.15,-513.42 600.01,-495.62 564.66,-482.82"/>
<polygon fill="black" stroke="black" stroke-width="2" points="565.68,-479.46 555.08,-479.35 563.29,-486.04 565.68,-479.46"/>
</g>
<!-- 20 -->
<g id="node18" class="node">
<title>20</title>
<ellipse fill="none" stroke="black" cx="654" cy="-466" rx="64.99" ry="18"/>
<text text-anchor="middle" x="654" y="-462.3" font-family="Times,serif" font-size="14.00">Savile&#45;Η (a)</text>
</g>
<!-- 11&#45;&gt;20 -->
<g id="edge16" class="edge">
<title>11&#45;&gt;20</title>
<path fill="none" stroke="black" stroke-width="2" d="M702.39,-521.53C694.47,-512.61 684.54,-501.41 675.73,-491.49"/>
<polygon fill="black" stroke="black" stroke-width="2" points="678.23,-489.03 668.97,-483.87 672.99,-493.67 678.23,-489.03"/>
</g>
<!-- 22 -->
<g id="node20" class="node">
<title>22</title>
<ellipse fill="none" stroke="black" cx="781" cy="-466" rx="44.39" ry="18"/>
<text text-anchor="middle" x="781" y="-462.3" font-family="Times,serif" font-size="14.00">A25 (a)</text>
</g>
<!-- 11&#45;&gt;22 -->
<g id="edge18" class="edge">
<title>11&#45;&gt;22</title>
<path fill="none" stroke="black" stroke-dasharray="5,2" d="M731.84,-521.53C740,-512.48 750.27,-501.09 759.31,-491.06"/>
<polygon fill="black" stroke="black" points="762.14,-493.15 766.24,-483.38 756.94,-488.46 762.14,-493.15"/>
</g>
<!-- 26 -->
<g id="node23" class="node">
<title>26</title>
<ellipse fill="none" stroke="black" cx="1323" cy="-466" rx="48.99" ry="18"/>
<text text-anchor="middle" x="1323" y="-462.3" font-family="Times,serif" font-size="14.00">La22 (a)</text>
</g>
<!-- 11&#45;&gt;26 -->
<g id="edge21" class="edge">
<title>11&#45;&gt;26</title>
<path fill="none" stroke="black" stroke-dasharray="5,2" d="M767.11,-532.13C879.14,-519 1149.26,-487.36 1266.8,-473.58"/>
<polygon fill="black" stroke="black" points="1267.49,-477.03 1277.01,-472.39 1266.67,-470.08 1267.49,-477.03"/>
</g>
<!-- 36 -->
<g id="node31" class="node">
<title>36</title>
<ellipse fill="none" stroke="black" cx="1435" cy="-466" rx="44.69" ry="18"/>
<text text-anchor="middle" x="1435" y="-462.3" font-family="Times,serif" font-size="14.00">Nan (a)</text>
</g>
<!-- 11&#45;&gt;36 -->
<g id="edge29" class="edge">
<title>11&#45;&gt;36</title>
<path fill="none" stroke="black" d="M770.92,-537.68C884.72,-536.13 1157.39,-527.72 1381,-484 1384.85,-483.25 1388.81,-482.32 1392.76,-481.28"/>
<polygon fill="black" stroke="black" points="1393.8,-484.62 1402.46,-478.53 1391.89,-477.89 1393.8,-484.62"/>
</g>
<!-- 39 -->
<g id="node34" class="node">
<title>39</title>
<ellipse fill="none" stroke="black" cx="1782" cy="-466" rx="52.79" ry="18"/>
<text text-anchor="middle" x="1782" y="-462.3" font-family="Times,serif" font-size="14.00">LaSM (a)</text>
</g>
<!-- 11&#45;&gt;39 -->
<g id="edge32" class="edge">
<title>11&#45;&gt;39</title>
<path fill="none" stroke="black" d="M769.45,-534.5C947.66,-522.62 1529.42,-483.84 1720.54,-471.1"/>
<polygon fill="black" stroke="black" points="1720.95,-474.58 1730.69,-470.42 1720.48,-467.59 1720.95,-474.58"/>
</g>
<!-- 35 -->
<g id="node30" class="node">
<title>35</title>
<ellipse fill="none" stroke="black" cx="248" cy="-34" rx="40.89" ry="18"/>
<text text-anchor="middle" x="248" y="-30.3" font-family="Times,serif" font-size="14.00">Sin (a)</text>
</g>
<!-- 13&#45;&gt;35 -->
<g id="edge28" class="edge">
<title>13&#45;&gt;35</title>
<path fill="none" stroke="black" stroke-dasharray="1,5" d="M248,-87.7C248,-79.98 248,-70.71 248,-62.11"/>
<polygon fill="black" stroke="black" points="251.5,-62.1 248,-52.1 244.5,-62.1 251.5,-62.1"/>
</g>
<!-- 15 -->
<g id="node14" class="node">
<title>15</title>
<ellipse fill="none" stroke="black" cx="1261" cy="-394" rx="55.79" ry="18"/>
<text text-anchor="middle" x="1261" y="-390.3" font-family="Times,serif" font-size="14.00">V2036 (a)</text>
</g>
<!-- 23 -->
<g id="node21" class="node">
<title>23</title>
<ellipse fill="none" stroke="black" cx="355" cy="-394" rx="55.79" ry="18"/>
<text text-anchor="middle" x="355" y="-390.3" font-family="Times,serif" font-size="14.00">V1629 (a)</text>
</g>
<!-- 17&#45;&gt;23 -->
<g id="edge19" class="edge">
<title>17&#45;&gt;23</title>
<path fill="none" stroke="black" stroke-dasharray="1,5" d="M489.78,-451.83C463.53,-440.77 425.8,-424.85 396.92,-412.68"/>
<polygon fill="black" stroke="black" points="398.08,-409.37 387.5,-408.71 395.36,-415.82 398.08,-409.37"/>
</g>
<!-- 18 -->
<g id="node17" class="node">
<title>18</title>
<ellipse fill="none" stroke="black" cx="1385" cy="-394" rx="50.09" ry="18"/>
<text text-anchor="middle" x="1385" y="-390.3" font-family="Times,serif" font-size="14.00">V565 (a)</text>
</g>
<!-- 21 -->
<g id="node19" class="node">
<title>21</title>
<ellipse fill="none" stroke="black" cx="591" cy="-394" rx="44.39" ry="18"/>
<text text-anchor="middle" x="591" y="-390.3" font-family="Times,serif" font-size="14.00">P01 (a)</text>
</g>
<!-- 22&#45;&gt;1 -->
<g id="edge2" class="edge">
<title>22&#45;&gt;1</title>
<path fill="none" stroke="black" stroke-dasharray="1,5" d="M748.39,-453.84C741.69,-451.75 734.65,-449.69 728,-448 644.7,-426.83 621.61,-431.92 538,-412 533.98,-411.04 529.81,-409.98 525.65,-408.88"/>
<polygon fill="black" stroke="black" points="526.57,-405.5 516,-406.23 524.72,-412.25 526.57,-405.5"/>
</g>
<!-- 22&#45;&gt;21 -->
<g id="edge17" class="edge">
<title>22&#45;&gt;21</title>
<path fill="none" stroke="black" stroke-dasharray="5,2" d="M749.2,-453.28C717.04,-441.44 667.21,-423.08 632.08,-410.13"/>
<polygon fill="black" stroke="black" points="633.18,-406.81 622.59,-406.64 630.76,-413.38 633.18,-406.81"/>
</g>
<!-- 28 -->
<g id="node25" class="node">
<title>28</title>
<ellipse fill="none" stroke="black" cx="697" cy="-394" rx="44.39" ry="18"/>
<text text-anchor="middle" x="697" y="-390.3" font-family="Times,serif" font-size="14.00">S32 (a)</text>
</g>
<!-- 22&#45;&gt;28 -->
<g id="edge23" class="edge">
<title>22&#45;&gt;28</title>
<path fill="none" stroke="black" stroke-dasharray="5,2" d="M762.36,-449.46C750.94,-439.95 736.14,-427.62 723.52,-417.1"/>
<polygon fill="black" stroke="black" points="725.51,-414.2 715.59,-410.49 721.03,-419.58 725.51,-414.2"/>
</g>
<!-- 32 -->
<g id="node28" class="node">
<title>32</title>
<ellipse fill="none" stroke="black" cx="799" cy="-394" rx="40.09" ry="18"/>
<text text-anchor="middle" x="799" y="-390.3" font-family="Times,serif" font-size="14.00">Pal (a)</text>
</g>
<!-- 22&#45;&gt;32 -->
<g id="edge26" class="edge">
<title>22&#45;&gt;32</title>
<path fill="none" stroke="black" stroke-dasharray="5,2" d="M785.36,-448.05C787.36,-440.26 789.79,-430.82 792.04,-422.08"/>
<polygon fill="black" stroke="black" points="795.46,-422.83 794.56,-412.28 788.68,-421.09 795.46,-422.83"/>
</g>
<!-- 37 -->
<g id="node32" class="node">
<title>37</title>
<ellipse fill="none" stroke="black" cx="907" cy="-394" rx="50.09" ry="18"/>
<text text-anchor="middle" x="907" y="-390.3" font-family="Times,serif" font-size="14.00">V566 (a)</text>
</g>
<!-- 22&#45;&gt;37 -->
<g id="edge30" class="edge">
<title>22&#45;&gt;37</title>
<path fill="none" stroke="black" stroke-dasharray="5,2" d="M806.2,-451C825.09,-440.51 851.18,-426.01 872.08,-414.4"/>
<polygon fill="black" stroke="black" points="873.94,-417.37 880.98,-409.45 870.54,-411.25 873.94,-417.37"/>
</g>
<!-- 33 -->
<g id="node29" class="node">
<title>33</title>
<ellipse fill="none" stroke="black" cx="358" cy="-322" rx="50.09" ry="18"/>
<text text-anchor="middle" x="358" y="-318.3" font-family="Times,serif" font-size="14.00">V568 (a)</text>
</g>
<!-- 23&#45;&gt;33 -->
<g id="edge27" class="edge">
<title>23&#45;&gt;33</title>
<path fill="none" stroke="black" stroke-dasharray="5,2" d="M355.74,-375.7C356.07,-367.98 356.47,-358.71 356.84,-350.11"/>
<polygon fill="black" stroke="black" points="360.34,-350.25 357.27,-340.1 353.34,-349.95 360.34,-350.25"/>
</g>
<!-- 25 -->
<g id="node22" class="node">
<title>25</title>
<ellipse fill="none" stroke="black" cx="1503" cy="-394" rx="50.09" ry="18"/>
<text text-anchor="middle" x="1503" y="-390.3" font-family="Times,serif" font-size="14.00">V571 (a)</text>
</g>
<!-- 26&#45;&gt;0 -->
<g id="edge1" class="edge">
<title>26&#45;&gt;0</title>
<path fill="none" stroke="black" stroke-dasharray="1,5" d="M1281.62,-456.16C1234.94,-446.06 1156.8,-428.75 1090,-412 1085.86,-410.96 1081.57,-409.85 1077.27,-408.72"/>
<polygon fill="black" stroke="black" points="1077.85,-405.25 1067.29,-406.05 1076.05,-412.02 1077.85,-405.25"/>
</g>
<!-- 26&#45;&gt;4 -->
<g id="edge4" class="edge">
<title>26&#45;&gt;4</title>
<path fill="none" stroke="black" stroke-dasharray="1,5" d="M1290.4,-452.32C1260.38,-440.65 1215.73,-423.28 1183.44,-410.73"/>
<polygon fill="black" stroke="black" points="1184.44,-407.36 1173.85,-407 1181.9,-413.88 1184.44,-407.36"/>
</g>
<!-- 26&#45;&gt;15 -->
<g id="edge12" class="edge">
<title>26&#45;&gt;15</title>
<path fill="none" stroke="black" stroke-dasharray="5,2" d="M1308.62,-448.76C1300.83,-439.97 1291.05,-428.93 1282.38,-419.14"/>
<polygon fill="black" stroke="black" points="1284.98,-416.8 1275.73,-411.63 1279.74,-421.44 1284.98,-416.8"/>
</g>
<!-- 26&#45;&gt;18 -->
<g id="edge15" class="edge">
<title>26&#45;&gt;18</title>
<path fill="none" stroke="black" stroke-dasharray="5,2" d="M1337.38,-448.76C1345.17,-439.97 1354.95,-428.93 1363.62,-419.14"/>
<polygon fill="black" stroke="black" points="1366.26,-421.44 1370.27,-411.63 1361.02,-416.8 1366.26,-421.44"/>
</g>
<!-- 26&#45;&gt;25 -->
<g id="edge20" class="edge">
<title>26&#45;&gt;25</title>
<path fill="none" stroke="black" stroke-dasharray="1,5" d="M1355.6,-452.32C1385.07,-440.86 1428.64,-423.92 1460.77,-411.42"/>
<polygon fill="black" stroke="black" points="1462.29,-414.59 1470.34,-407.7 1459.75,-408.06 1462.29,-414.59"/>
</g>
<!-- 27 -->
<g id="node24" class="node">
<title>27</title>
<ellipse fill="none" stroke="black" cx="1620" cy="-394" rx="48.99" ry="18"/>
<text text-anchor="middle" x="1620" y="-390.3" font-family="Times,serif" font-size="14.00">La35 (a)</text>
</g>
<!-- 26&#45;&gt;27 -->
<g id="edge22" class="edge">
<title>26&#45;&gt;27</title>
<path fill="none" stroke="black" stroke-dasharray="1,5" d="M1359.38,-453.8C1366.51,-451.76 1373.97,-449.73 1381,-448 1460.66,-428.45 1482.34,-431.55 1562,-412 1565.85,-411.06 1569.82,-410.02 1573.79,-408.94"/>
<polygon fill="black" stroke="black" points="1574.93,-412.26 1583.62,-406.2 1573.05,-405.52 1574.93,-412.26"/>
</g>
<!-- 38 -->
<g id="node33" class="node">
<title>38</title>
<ellipse fill="none" stroke="black" cx="1737" cy="-394" rx="50.09" ry="18"/>
<text text-anchor="middle" x="1737" y="-390.3" font-family="Times,serif" font-size="14.00">A116 (a)</text>
</g>
<!-- 26&#45;&gt;38 -->
<g id="edge31" class="edge">
<title>26&#45;&gt;38</title>
<path fill="none" stroke="black" stroke-dasharray="5,2" d="M1358.66,-453.55C1365.99,-451.48 1373.7,-449.5 1381,-448 1511.24,-421.21 1547.7,-438.49 1678,-412 1682.17,-411.15 1686.48,-410.15 1690.78,-409.08"/>
<polygon fill="black" stroke="black" points="1691.95,-412.39 1700.72,-406.44 1690.15,-405.62 1691.95,-412.39"/>
</g>
<!-- 41 -->
<g id="node35" class="node">
<title>41</title>
<ellipse fill="none" stroke="black" cx="1852" cy="-394" rx="46.59" ry="18"/>
<text text-anchor="middle" x="1852" y="-390.3" font-family="Times,serif" font-size="14.00">Bodl (a)</text>
</g>
<!-- 26&#45;&gt;41 -->
<g id="edge33" class="edge">
<title>26&#45;&gt;41</title>
<path fill="none" stroke="black" stroke-dasharray="5,2" d="M1358.31,-453.44C1365.74,-451.35 1373.58,-449.4 1381,-448 1562.95,-413.79 1614.22,-447.08 1796,-412 1800.1,-411.21 1804.32,-410.24 1808.52,-409.16"/>
<polygon fill="black" stroke="black" points="1809.51,-412.51 1818.23,-406.49 1807.66,-405.76 1809.51,-412.51"/>
</g>
<!-- 31 -->
<g id="node27" class="node">
<title>31</title>
<ellipse fill="none" stroke="black" cx="905" cy="-322" rx="55.79" ry="18"/>
<text text-anchor="middle" x="905" y="-318.3" font-family="Times,serif" font-size="14.00">V1639 (a)</text>
</g>
<!-- 33&#45;&gt;6 -->
<g id="edge6" class="edge">
<title>33&#45;&gt;6</title>
<path fill="none" stroke="black" stroke-dasharray="1,5" d="M359.73,-303.7C360.5,-295.98 361.43,-286.71 362.29,-278.11"/>
<polygon fill="black" stroke="black" points="365.78,-278.4 363.29,-268.1 358.81,-277.71 365.78,-278.4"/>
</g>
<!-- 37&#45;&gt;31 -->
<g id="edge25" class="edge">
<title>37&#45;&gt;31</title>
<path fill="none" stroke="black" stroke-dasharray="1,5" d="M906.51,-375.7C906.29,-367.98 906.02,-358.71 905.77,-350.11"/>
<polygon fill="black" stroke="black" points="909.27,-350 905.49,-340.1 902.28,-350.2 909.27,-350"/>
</g>
<!-- 39&#45;&gt;9 -->
<g id="edge9" class="edge">
<title>39&#45;&gt;9</title>
<path fill="none" stroke="black" stroke-dasharray="5,2" d="M1815.25,-452C1845.12,-440.32 1889.05,-423.14 1920.86,-410.7"/>
<polygon fill="black" stroke="black" points="1922.28,-413.9 1930.32,-407 1919.73,-407.38 1922.28,-413.9"/>
</g>
</g>
</svg>
