<?xml version="1.0" encoding="UTF-8" standalone="no"?>
<!DOCTYPE svg PUBLIC "-//W3C//DTD SVG 1.1//EN"
 "http://www.w3.org/Graphics/SVG/1.1/DTD/svg11.dtd">
<!-- Generated by graphviz version 2.43.0 (0)
 -->
<!-- Title: textual_flow_diagram Pages: 1 -->
<svg width="570pt" height="438pt"
 viewBox="0.00 0.00 570.00 438.00" xmlns="http://www.w3.org/2000/svg" xmlns:xlink="http://www.w3.org/1999/xlink">
<g id="graph0" class="graph" transform="scale(1 1) rotate(0) translate(4 434)">
<title>textual_flow_diagram</title>
<polygon fill="white" stroke="transparent" points="-4,4 -4,-434 566,-434 566,4 -4,4"/>
<g id="clust1" class="cluster">
<title>cluster_legend</title>
<polygon fill="none" stroke="black" points="8,-368 8,-422 194,-422 194,-368 8,-368"/>
</g>
<g id="clust2" class="cluster">
<title>cluster_plot</title>
</g>
<!-- label -->
<g id="node1" class="node">
<title>label</title>
<text text-anchor="middle" x="101" y="-398.8" font-family="Times,serif" font-size="14.00">adstag1.3.4U32&#45;42, c</text>
<text text-anchor="middle" x="101" y="-383.8" font-family="Times,serif" font-size="14.00">Con = 5</text>
</g>
<!-- 6 -->
<g id="node2" class="node">
<title>6</title>
<ellipse fill="none" stroke="black" cx="378" cy="-250" rx="46.29" ry="18"/>
<text text-anchor="middle" x="378" y="-246.3" font-family="Times,serif" font-size="14.00">Taur (c)</text>
</g>
<!-- 8 -->
<g id="node3" class="node">
<title>8</title>
<ellipse fill="none" stroke="black" cx="259" cy="-178" rx="49.29" ry="18"/>
<text text-anchor="middle" x="259" y="-174.3" font-family="Times,serif" font-size="14.00">Marc (c)</text>
</g>
<!-- 6&#45;&gt;8 -->
<g id="edge2" class="edge">
<title>6&#45;&gt;8</title>
<path fill="none" stroke="black" stroke-dasharray="1,5" d="M353.63,-234.67C336.14,-224.38 312.33,-210.37 292.98,-198.99"/>
<polygon fill="black" stroke="black" points="294.55,-195.85 284.16,-193.8 291,-201.88 294.55,-195.85"/>
</g>
<!-- 10 -->
<g id="node4" class="node">
<title>10</title>
<ellipse fill="none" stroke="black" cx="378" cy="-178" rx="51.99" ry="18"/>
<text text-anchor="middle" x="378" y="-174.3" font-family="Times,serif" font-size="14.00">M118 (c)</text>
</g>
<!-- 6&#45;&gt;10 -->
<g id="edge3" class="edge">
<title>6&#45;&gt;10</title>
<path fill="none" stroke="black" stroke-dasharray="5,2" d="M378,-231.7C378,-223.98 378,-214.71 378,-206.11"/>
<polygon fill="black" stroke="black" points="381.5,-206.1 378,-196.1 374.5,-206.1 381.5,-206.1"/>
</g>
<!-- 29 -->
<g id="node6" class="node">
<title>29</title>
<ellipse fill="none" stroke="black" cx="497" cy="-178" rx="49.29" ry="18"/>
<text text-anchor="middle" x="497" y="-174.3" font-family="Times,serif" font-size="14.00">V569 (c)</text>
</g>
<!-- 6&#45;&gt;29 -->
<g id="edge5" class="edge">
<title>6&#45;&gt;29</title>
<path fill="none" stroke="black" stroke-dasharray="5,2" d="M402.37,-234.67C419.86,-224.38 443.67,-210.37 463.02,-198.99"/>
<polygon fill="black" stroke="black" points="465,-201.88 471.84,-193.8 461.45,-195.85 465,-201.88"/>
</g>
<!-- 13 -->
<g id="node5" class="node">
<title>13</title>
<ellipse fill="none" stroke="black" cx="259" cy="-106" rx="46.29" ry="18"/>
<text text-anchor="middle" x="259" y="-102.3" font-family="Times,serif" font-size="14.00">Mon (c)</text>
</g>
<!-- 8&#45;&gt;13 -->
<g id="edge4" class="edge">
<title>8&#45;&gt;13</title>
<path fill="none" stroke="black" stroke-dasharray="1,5" d="M259,-159.7C259,-151.98 259,-142.71 259,-134.11"/>
<polygon fill="black" stroke="black" points="262.5,-134.1 259,-124.1 255.5,-134.1 262.5,-134.1"/>
</g>
<!-- 35 -->
<g id="node8" class="node">
<title>35</title>
<ellipse fill="none" stroke="black" cx="259" cy="-34" rx="40.09" ry="18"/>
<text text-anchor="middle" x="259" y="-30.3" font-family="Times,serif" font-size="14.00">Sin (c)</text>
</g>
<!-- 13&#45;&gt;35 -->
<g id="edge7" class="edge">
<title>13&#45;&gt;35</title>
<path fill="none" stroke="black" stroke-dasharray="1,5" d="M259,-87.7C259,-79.98 259,-70.71 259,-62.11"/>
<polygon fill="black" stroke="black" points="262.5,-62.1 259,-52.1 255.5,-62.1 262.5,-62.1"/>
</g>
<!-- 33 -->
<g id="node7" class="node">
<title>33</title>
<ellipse fill="none" stroke="black" cx="378" cy="-322" rx="49.29" ry="18"/>
<text text-anchor="middle" x="378" y="-318.3" font-family="Times,serif" font-size="14.00">V568 (c)</text>
</g>
<!-- 33&#45;&gt;6 -->
<g id="edge1" class="edge">
<title>33&#45;&gt;6</title>
<path fill="none" stroke="black" stroke-dasharray="1,5" d="M378,-303.7C378,-295.98 378,-286.71 378,-278.11"/>
<polygon fill="black" stroke="black" points="381.5,-278.1 378,-268.1 374.5,-278.1 381.5,-278.1"/>
</g>
<!-- 40 -->
<g id="node9" class="node">
<title>40</title>
<ellipse fill="none" stroke="black" cx="495" cy="-322" rx="49.29" ry="18"/>
<text text-anchor="middle" x="495" y="-318.3" font-family="Times,serif" font-size="14.00">V536 (c)</text>
</g>
<!-- 23 -->
<g id="node10" class="node">
<title>23</title>
<ellipse fill="none" stroke="blue" stroke-dasharray="5,2" cx="434" cy="-395" rx="55.79" ry="18"/>
<text text-anchor="middle" x="434" y="-391.3" font-family="Times,serif" font-size="14.00">V1629 (a)</text>
</g>
<!-- 23&#45;&gt;33 -->
<g id="edge6" class="edge">
<title>23&#45;&gt;33</title>
<path fill="none" stroke="blue" stroke-dasharray="5,2" d="M420.73,-377.17C413.82,-368.42 405.25,-357.55 397.6,-347.85"/>
<polygon fill="blue" stroke="blue" points="400.12,-345.39 391.18,-339.71 394.62,-349.72 400.12,-345.39"/>
</g>
<!-- 23&#45;&gt;40 -->
<g id="edge8" class="edge">
<title>23&#45;&gt;40</title>
<path fill="none" stroke="blue" stroke-dasharray="5,2" d="M448.15,-377.53C455.92,-368.48 465.71,-357.09 474.33,-347.06"/>
<polygon fill="blue" stroke="blue" points="477.07,-349.24 480.93,-339.38 471.76,-344.68 477.07,-349.24"/>
</g>
</g>
</svg>
