<?xml version="1.0" encoding="UTF-8" standalone="no"?>
<!DOCTYPE svg PUBLIC "-//W3C//DTD SVG 1.1//EN"
 "http://www.w3.org/Graphics/SVG/1.1/DTD/svg11.dtd">
<!-- Generated by graphviz version 2.43.0 (0)
 -->
<!-- Title: textual_flow_diagram Pages: 1 -->
<svg width="336pt" height="222pt"
 viewBox="0.00 0.00 336.00 222.00" xmlns="http://www.w3.org/2000/svg" xmlns:xlink="http://www.w3.org/1999/xlink">
<g id="graph0" class="graph" transform="scale(1 1) rotate(0) translate(4 218)">
<title>textual_flow_diagram</title>
<polygon fill="white" stroke="transparent" points="-4,4 -4,-218 332,-218 332,4 -4,4"/>
<g id="clust1" class="cluster">
<title>cluster_legend</title>
<polygon fill="none" stroke="black" points="8,-152 8,-206 186,-206 186,-152 8,-152"/>
</g>
<g id="clust2" class="cluster">
<title>cluster_plot</title>
</g>
<!-- label -->
<g id="node1" class="node">
<title>label</title>
<text text-anchor="middle" x="97" y="-182.8" font-family="Times,serif" font-size="14.00">adstag1.3.70U2&#45;6, c</text>
<text text-anchor="middle" x="97" y="-167.8" font-family="Times,serif" font-size="14.00">Con = 5</text>
</g>
<!-- 15 -->
<g id="node2" class="node">
<title>15</title>
<ellipse fill="none" stroke="black" cx="257" cy="-106" rx="49.29" ry="18"/>
<text text-anchor="middle" x="257" y="-102.3" font-family="Times,serif" font-size="14.00">V560 (c)</text>
</g>
<!-- 18 -->
<g id="node3" class="node">
<title>18</title>
<ellipse fill="none" stroke="black" cx="257" cy="-34" rx="55.49" ry="18"/>
<text text-anchor="middle" x="257" y="-30.3" font-family="Times,serif" font-size="14.00">V1920 (c)</text>
</g>
<!-- 15&#45;&gt;18 -->
<g id="edge2" class="edge">
<title>15&#45;&gt;18</title>
<path fill="none" stroke="black" stroke-dasharray="5,2" d="M257,-87.7C257,-79.98 257,-70.71 257,-62.11"/>
<polygon fill="black" stroke="black" points="260.5,-62.1 257,-52.1 253.5,-62.1 260.5,-62.1"/>
</g>
<!-- 20 -->
<g id="node4" class="node">
<title>20</title>
<ellipse fill="none" stroke="blue" stroke-dasharray="5,2" cx="257" cy="-179" rx="53.89" ry="18"/>
<text text-anchor="middle" x="257" y="-175.3" font-family="Times,serif" font-size="14.00">aBase (a)</text>
</g>
<!-- 20&#45;&gt;15 -->
<g id="edge1" class="edge">
<title>20&#45;&gt;15</title>
<path fill="none" stroke="blue" stroke-width="2" d="M257,-160.81C257,-152.79 257,-143.05 257,-134.07"/>
<polygon fill="blue" stroke="blue" stroke-width="2" points="260.5,-134.03 257,-124.03 253.5,-134.03 260.5,-134.03"/>
</g>
</g>
</svg>
