<?xml version="1.0" encoding="UTF-8" standalone="no"?>
<!DOCTYPE svg PUBLIC "-//W3C//DTD SVG 1.1//EN"
 "http://www.w3.org/Graphics/SVG/1.1/DTD/svg11.dtd">
<!-- Generated by graphviz version 2.43.0 (0)
 -->
<!-- Title: textual_flow_diagram Pages: 1 -->
<svg width="1358pt" height="366pt"
 viewBox="0.00 0.00 1358.00 366.00" xmlns="http://www.w3.org/2000/svg" xmlns:xlink="http://www.w3.org/1999/xlink">
<g id="graph0" class="graph" transform="scale(1 1) rotate(0) translate(4 362)">
<title>textual_flow_diagram</title>
<polygon fill="white" stroke="transparent" points="-4,4 -4,-362 1354,-362 1354,4 -4,4"/>
<g id="clust1" class="cluster">
<title>cluster_legend</title>
<polygon fill="none" stroke="black" points="8,-296 8,-350 172,-350 172,-296 8,-296"/>
</g>
<g id="clust2" class="cluster">
<title>cluster_plot</title>
</g>
<!-- label -->
<g id="node1" class="node">
<title>label</title>
<text text-anchor="middle" x="90" y="-326.8" font-family="Times,serif" font-size="14.00">adstag1.2.24U4, a</text>
<text text-anchor="middle" x="90" y="-311.8" font-family="Times,serif" font-size="14.00">Con = 1</text>
</g>
<!-- 0 -->
<g id="node2" class="node">
<title>0</title>
<ellipse fill="none" stroke="black" cx="623" cy="-250" rx="44.39" ry="18"/>
<text text-anchor="middle" x="623" y="-246.3" font-family="Times,serif" font-size="14.00">A25 (a)</text>
</g>
<!-- 15 -->
<g id="node12" class="node">
<title>15</title>
<ellipse fill="none" stroke="black" cx="352" cy="-178" rx="40.09" ry="18"/>
<text text-anchor="middle" x="352" y="-174.3" font-family="Times,serif" font-size="14.00">Pal (a)</text>
</g>
<!-- 0&#45;&gt;15 -->
<g id="edge10" class="edge">
<title>0&#45;&gt;15</title>
<path fill="none" stroke="black" stroke-dasharray="5,2" d="M584.59,-241.05C540.09,-231.55 464.71,-214.61 401,-196 398.03,-195.13 394.97,-194.19 391.9,-193.21"/>
<polygon fill="black" stroke="black" points="392.76,-189.81 382.17,-189.99 390.57,-196.46 392.76,-189.81"/>
</g>
<!-- 22 -->
<g id="node16" class="node">
<title>22</title>
<ellipse fill="none" stroke="black" cx="454" cy="-178" rx="44.39" ry="18"/>
<text text-anchor="middle" x="454" y="-174.3" font-family="Times,serif" font-size="14.00">S32 (a)</text>
</g>
<!-- 0&#45;&gt;22 -->
<g id="edge14" class="edge">
<title>0&#45;&gt;22</title>
<path fill="none" stroke="black" stroke-dasharray="5,2" d="M593.18,-236.65C565.39,-225.14 523.77,-207.9 493.29,-195.27"/>
<polygon fill="black" stroke="black" points="494.39,-191.94 483.81,-191.35 491.71,-198.41 494.39,-191.94"/>
</g>
<!-- 27 -->
<g id="node19" class="node">
<title>27</title>
<ellipse fill="none" stroke="black" cx="565" cy="-178" rx="48.99" ry="18"/>
<text text-anchor="middle" x="565" y="-174.3" font-family="Times,serif" font-size="14.00">La22 (a)</text>
</g>
<!-- 0&#45;&gt;27 -->
<g id="edge17" class="edge">
<title>0&#45;&gt;27</title>
<path fill="none" stroke="black" stroke-dasharray="1,5" d="M609.55,-232.76C602.33,-224.06 593.29,-213.15 585.25,-203.43"/>
<polygon fill="black" stroke="black" points="587.86,-201.1 578.78,-195.63 582.47,-205.57 587.86,-201.1"/>
</g>
<!-- 34 -->
<g id="node24" class="node">
<title>34</title>
<ellipse fill="none" stroke="black" cx="682" cy="-178" rx="50.09" ry="18"/>
<text text-anchor="middle" x="682" y="-174.3" font-family="Times,serif" font-size="14.00">Patm (a)</text>
</g>
<!-- 0&#45;&gt;34 -->
<g id="edge22" class="edge">
<title>0&#45;&gt;34</title>
<path fill="none" stroke="black" stroke-dasharray="1,5" d="M636.68,-232.76C644.02,-224.06 653.22,-213.15 661.4,-203.43"/>
<polygon fill="black" stroke="black" points="664.21,-205.54 667.98,-195.63 658.86,-201.02 664.21,-205.54"/>
</g>
<!-- 39 -->
<g id="node25" class="node">
<title>39</title>
<ellipse fill="none" stroke="black" cx="794" cy="-178" rx="44.39" ry="18"/>
<text text-anchor="middle" x="794" y="-174.3" font-family="Times,serif" font-size="14.00">P01 (a)</text>
</g>
<!-- 0&#45;&gt;39 -->
<g id="edge23" class="edge">
<title>0&#45;&gt;39</title>
<path fill="none" stroke="black" stroke-dasharray="5,2" d="M653.18,-236.65C681.3,-225.14 723.4,-207.9 754.25,-195.27"/>
<polygon fill="black" stroke="black" points="755.91,-198.38 763.84,-191.35 753.26,-191.9 755.91,-198.38"/>
</g>
<!-- 2 -->
<g id="node3" class="node">
<title>2</title>
<ellipse fill="none" stroke="black" cx="796" cy="-250" rx="52.79" ry="18"/>
<text text-anchor="middle" x="796" y="-246.3" font-family="Times,serif" font-size="14.00">LaSM (a)</text>
</g>
<!-- 30 -->
<g id="node21" class="node">
<title>30</title>
<ellipse fill="none" stroke="black" cx="900" cy="-178" rx="44.39" ry="18"/>
<text text-anchor="middle" x="900" y="-174.3" font-family="Times,serif" font-size="14.00">B39 (a)</text>
</g>
<!-- 2&#45;&gt;30 -->
<g id="edge19" class="edge">
<title>2&#45;&gt;30</title>
<path fill="none" stroke="black" stroke-dasharray="5,2" d="M818.82,-233.64C833.66,-223.65 853.17,-210.52 869.35,-199.63"/>
<polygon fill="black" stroke="black" points="871.6,-202.33 877.94,-193.85 867.69,-196.53 871.6,-202.33"/>
</g>
<!-- 3 -->
<g id="node4" class="node">
<title>3</title>
<ellipse fill="none" stroke="black" cx="241" cy="-178" rx="52.79" ry="18"/>
<text text-anchor="middle" x="241" y="-174.3" font-family="Times,serif" font-size="14.00">M118 (a)</text>
</g>
<!-- 7 -->
<g id="node5" class="node">
<title>7</title>
<ellipse fill="none" stroke="black" cx="471" cy="-34" rx="50.09" ry="18"/>
<text text-anchor="middle" x="471" y="-30.3" font-family="Times,serif" font-size="14.00">A336 (a)</text>
</g>
<!-- 9 -->
<g id="node6" class="node">
<title>9</title>
<ellipse fill="none" stroke="black" cx="1148" cy="-178" rx="55.79" ry="18"/>
<text text-anchor="middle" x="1148" y="-174.3" font-family="Times,serif" font-size="14.00">V2250 (a)</text>
</g>
<!-- 10 -->
<g id="node7" class="node">
<title>10</title>
<ellipse fill="none" stroke="black" cx="1183" cy="-106" rx="42.79" ry="18"/>
<text text-anchor="middle" x="1183" y="-102.3" font-family="Times,serif" font-size="14.00">Bas (a)</text>
</g>
<!-- 11 -->
<g id="node8" class="node">
<title>11</title>
<ellipse fill="none" stroke="black" cx="976" cy="-323" rx="53.89" ry="18"/>
<text text-anchor="middle" x="976" y="-319.3" font-family="Times,serif" font-size="14.00">aBase (a)</text>
</g>
<!-- 11&#45;&gt;0 -->
<g id="edge1" class="edge">
<title>11&#45;&gt;0</title>
<path fill="none" stroke="black" stroke-dasharray="5,2" d="M930.93,-312.94C864.46,-299.57 740.6,-274.65 671.96,-260.85"/>
<polygon fill="black" stroke="black" points="672.34,-257.35 661.85,-258.81 670.96,-264.22 672.34,-257.35"/>
</g>
<!-- 11&#45;&gt;2 -->
<g id="edge2" class="edge">
<title>11&#45;&gt;2</title>
<path fill="none" stroke="black" d="M942.57,-308.81C913.27,-297.25 870.51,-280.39 838.74,-267.86"/>
<polygon fill="black" stroke="black" points="839.84,-264.53 829.26,-264.12 837.27,-271.04 839.84,-264.53"/>
</g>
<!-- 31 -->
<g id="node22" class="node">
<title>31</title>
<ellipse fill="none" stroke="black" cx="917" cy="-250" rx="50.09" ry="18"/>
<text text-anchor="middle" x="917" y="-246.3" font-family="Times,serif" font-size="14.00">S249 (a)</text>
</g>
<!-- 11&#45;&gt;31 -->
<g id="edge20" class="edge">
<title>11&#45;&gt;31</title>
<path fill="none" stroke="black" d="M962.32,-305.53C954.87,-296.57 945.51,-285.31 937.24,-275.36"/>
<polygon fill="black" stroke="black" points="939.69,-272.83 930.61,-267.38 934.31,-277.31 939.69,-272.83"/>
</g>
<!-- 33 -->
<g id="node23" class="node">
<title>33</title>
<ellipse fill="none" stroke="black" cx="1035" cy="-250" rx="50.09" ry="18"/>
<text text-anchor="middle" x="1035" y="-246.3" font-family="Times,serif" font-size="14.00">V560 (a)</text>
</g>
<!-- 11&#45;&gt;33 -->
<g id="edge21" class="edge">
<title>11&#45;&gt;33</title>
<path fill="none" stroke="black" stroke-width="2" d="M989.68,-305.53C997.13,-296.57 1006.49,-285.31 1014.76,-275.36"/>
<polygon fill="black" stroke="black" stroke-width="2" points="1017.69,-277.31 1021.39,-267.38 1012.31,-272.83 1017.69,-277.31"/>
</g>
<!-- 42 -->
<g id="node27" class="node">
<title>42</title>
<ellipse fill="none" stroke="black" cx="1148" cy="-250" rx="44.69" ry="18"/>
<text text-anchor="middle" x="1148" y="-246.3" font-family="Times,serif" font-size="14.00">Nan (a)</text>
</g>
<!-- 11&#45;&gt;42 -->
<g id="edge25" class="edge">
<title>11&#45;&gt;42</title>
<path fill="none" stroke="black" d="M1008.76,-308.48C1037.16,-296.75 1078.35,-279.75 1108.56,-267.28"/>
<polygon fill="black" stroke="black" points="1110.05,-270.45 1117.96,-263.4 1107.38,-263.98 1110.05,-270.45"/>
</g>
<!-- 44 -->
<g id="node29" class="node">
<title>44</title>
<ellipse fill="none" stroke="black" cx="1254" cy="-250" rx="42.79" ry="18"/>
<text text-anchor="middle" x="1254" y="-246.3" font-family="Times,serif" font-size="14.00">La2 (a)</text>
</g>
<!-- 11&#45;&gt;44 -->
<g id="edge27" class="edge">
<title>11&#45;&gt;44</title>
<path fill="none" stroke="black" stroke-width="2" d="M1020.45,-312.5C1066.22,-302.46 1139.5,-285.65 1202,-268 1205.3,-267.07 1208.7,-266.06 1212.11,-265.02"/>
<polygon fill="black" stroke="black" stroke-width="2" points="1213.18,-268.35 1221.67,-262.02 1211.08,-261.67 1213.18,-268.35"/>
</g>
<!-- 12 -->
<g id="node9" class="node">
<title>12</title>
<ellipse fill="none" stroke="black" cx="235" cy="-106" rx="46.59" ry="18"/>
<text text-anchor="middle" x="235" y="-102.3" font-family="Times,serif" font-size="14.00">Bodl (a)</text>
</g>
<!-- 13 -->
<g id="node10" class="node">
<title>13</title>
<ellipse fill="none" stroke="black" cx="350" cy="-106" rx="50.09" ry="18"/>
<text text-anchor="middle" x="350" y="-102.3" font-family="Times,serif" font-size="14.00">V571 (a)</text>
</g>
<!-- 14 -->
<g id="node11" class="node">
<title>14</title>
<ellipse fill="none" stroke="black" cx="241" cy="-250" rx="46.59" ry="18"/>
<text text-anchor="middle" x="241" y="-246.3" font-family="Times,serif" font-size="14.00">Taur (a)</text>
</g>
<!-- 14&#45;&gt;3 -->
<g id="edge3" class="edge">
<title>14&#45;&gt;3</title>
<path fill="none" stroke="black" stroke-dasharray="5,2" d="M241,-231.7C241,-223.98 241,-214.71 241,-206.11"/>
<polygon fill="black" stroke="black" points="244.5,-206.1 241,-196.1 237.5,-206.1 244.5,-206.1"/>
</g>
<!-- 16 -->
<g id="node13" class="node">
<title>16</title>
<ellipse fill="none" stroke="black" cx="1285" cy="-106" rx="41.69" ry="18"/>
<text text-anchor="middle" x="1285" y="-102.3" font-family="Times,serif" font-size="14.00">Est (a)</text>
</g>
<!-- 17 -->
<g id="node14" class="node">
<title>17</title>
<ellipse fill="none" stroke="black" cx="1278" cy="-178" rx="55.79" ry="18"/>
<text text-anchor="middle" x="1278" y="-174.3" font-family="Times,serif" font-size="14.00">V1897 (a)</text>
</g>
<!-- 17&#45;&gt;10 -->
<g id="edge6" class="edge">
<title>17&#45;&gt;10</title>
<path fill="none" stroke="black" d="M1256.44,-161.12C1243.17,-151.34 1226,-138.69 1211.6,-128.08"/>
<polygon fill="black" stroke="black" points="1213.62,-125.22 1203.49,-122.1 1209.47,-130.85 1213.62,-125.22"/>
</g>
<!-- 17&#45;&gt;16 -->
<g id="edge11" class="edge">
<title>17&#45;&gt;16</title>
<path fill="none" stroke="black" stroke-dasharray="1,5" d="M1279.73,-159.7C1280.5,-151.98 1281.43,-142.71 1282.29,-134.11"/>
<polygon fill="black" stroke="black" points="1285.78,-134.4 1283.29,-124.1 1278.81,-133.71 1285.78,-134.4"/>
</g>
<!-- 21 -->
<g id="node15" class="node">
<title>21</title>
<ellipse fill="none" stroke="black" cx="471" cy="-106" rx="52.79" ry="18"/>
<text text-anchor="middle" x="471" y="-102.3" font-family="Times,serif" font-size="14.00">M111 (a)</text>
</g>
<!-- 21&#45;&gt;7 -->
<g id="edge4" class="edge">
<title>21&#45;&gt;7</title>
<path fill="none" stroke="black" stroke-dasharray="5,2" d="M471,-87.7C471,-79.98 471,-70.71 471,-62.11"/>
<polygon fill="black" stroke="black" points="474.5,-62.1 471,-52.1 467.5,-62.1 474.5,-62.1"/>
</g>
<!-- 25 -->
<g id="node17" class="node">
<title>25</title>
<ellipse fill="none" stroke="black" cx="598" cy="-106" rx="55.79" ry="18"/>
<text text-anchor="middle" x="598" y="-102.3" font-family="Times,serif" font-size="14.00">V2036 (a)</text>
</g>
<!-- 26 -->
<g id="node18" class="node">
<title>26</title>
<ellipse fill="none" stroke="black" cx="721" cy="-106" rx="48.99" ry="18"/>
<text text-anchor="middle" x="721" y="-102.3" font-family="Times,serif" font-size="14.00">La35 (a)</text>
</g>
<!-- 27&#45;&gt;12 -->
<g id="edge7" class="edge">
<title>27&#45;&gt;12</title>
<path fill="none" stroke="black" stroke-dasharray="5,2" d="M528.98,-165.71C521.74,-163.65 514.16,-161.64 507,-160 412.13,-138.27 385.76,-146.18 291,-124 287.16,-123.1 283.19,-122.08 279.23,-121"/>
<polygon fill="black" stroke="black" points="280.04,-117.59 269.46,-118.23 278.12,-124.33 280.04,-117.59"/>
</g>
<!-- 27&#45;&gt;13 -->
<g id="edge8" class="edge">
<title>27&#45;&gt;13</title>
<path fill="none" stroke="black" stroke-dasharray="1,5" d="M529.5,-165.44C492.81,-153.49 435.4,-134.81 395.43,-121.79"/>
<polygon fill="black" stroke="black" points="396.51,-118.46 385.91,-118.69 394.34,-125.12 396.51,-118.46"/>
</g>
<!-- 27&#45;&gt;21 -->
<g id="edge13" class="edge">
<title>27&#45;&gt;21</title>
<path fill="none" stroke="black" stroke-dasharray="1,5" d="M544.14,-161.46C531.21,-151.84 514.41,-139.32 500.17,-128.72"/>
<polygon fill="black" stroke="black" points="502.24,-125.9 492.13,-122.73 498.06,-131.51 502.24,-125.9"/>
</g>
<!-- 27&#45;&gt;25 -->
<g id="edge15" class="edge">
<title>27&#45;&gt;25</title>
<path fill="none" stroke="black" stroke-dasharray="5,2" d="M572.99,-160.05C576.74,-152.09 581.31,-142.41 585.5,-133.51"/>
<polygon fill="black" stroke="black" points="588.76,-134.81 589.86,-124.28 582.43,-131.83 588.76,-134.81"/>
</g>
<!-- 27&#45;&gt;26 -->
<g id="edge16" class="edge">
<title>27&#45;&gt;26</title>
<path fill="none" stroke="black" stroke-dasharray="1,5" d="M594.71,-163.67C619.46,-152.56 654.91,-136.66 681.95,-124.52"/>
<polygon fill="black" stroke="black" points="683.45,-127.69 691.14,-120.4 680.58,-121.3 683.45,-127.69"/>
</g>
<!-- 29 -->
<g id="node20" class="node">
<title>29</title>
<ellipse fill="none" stroke="black" cx="838" cy="-106" rx="50.09" ry="18"/>
<text text-anchor="middle" x="838" y="-102.3" font-family="Times,serif" font-size="14.00">V565 (a)</text>
</g>
<!-- 27&#45;&gt;29 -->
<g id="edge18" class="edge">
<title>27&#45;&gt;29</title>
<path fill="none" stroke="black" stroke-dasharray="5,2" d="M601.42,-165.97C608.55,-163.91 616,-161.83 623,-160 691.84,-141.99 710.12,-141.86 779,-124 782.84,-123.01 786.8,-121.94 790.78,-120.85"/>
<polygon fill="black" stroke="black" points="791.94,-124.16 800.63,-118.1 790.06,-117.42 791.94,-124.16"/>
</g>
<!-- 41 -->
<g id="node26" class="node">
<title>41</title>
<ellipse fill="none" stroke="black" cx="950" cy="-106" rx="44.39" ry="18"/>
<text text-anchor="middle" x="950" y="-102.3" font-family="Times,serif" font-size="14.00">P74 (a)</text>
</g>
<!-- 27&#45;&gt;41 -->
<g id="edge24" class="edge">
<title>27&#45;&gt;41</title>
<path fill="none" stroke="black" stroke-dasharray="1,5" d="M600.67,-165.61C608,-163.53 615.71,-161.54 623,-160 743.18,-134.65 777.15,-150.87 897,-124 900.61,-123.19 904.32,-122.25 908.02,-121.22"/>
<polygon fill="black" stroke="black" points="909.13,-124.54 917.74,-118.36 907.16,-117.83 909.13,-124.54"/>
</g>
<!-- 45 -->
<g id="node30" class="node">
<title>45</title>
<ellipse fill="none" stroke="black" cx="1062" cy="-106" rx="50.09" ry="18"/>
<text text-anchor="middle" x="1062" y="-102.3" font-family="Times,serif" font-size="14.00">A116 (a)</text>
</g>
<!-- 27&#45;&gt;45 -->
<g id="edge28" class="edge">
<title>27&#45;&gt;45</title>
<path fill="none" stroke="black" stroke-dasharray="5,2" d="M600.32,-165.49C607.75,-163.39 615.58,-161.43 623,-160 789.6,-128 836.33,-155.62 1003,-124 1007.18,-123.21 1011.5,-122.25 1015.8,-121.19"/>
<polygon fill="black" stroke="black" points="1016.96,-124.51 1025.75,-118.59 1015.19,-117.73 1016.96,-124.51"/>
</g>
<!-- 43 -->
<g id="node28" class="node">
<title>43</title>
<ellipse fill="none" stroke="black" cx="1018" cy="-178" rx="55.79" ry="18"/>
<text text-anchor="middle" x="1018" y="-174.3" font-family="Times,serif" font-size="14.00">V1920 (a)</text>
</g>
<!-- 33&#45;&gt;43 -->
<g id="edge26" class="edge">
<title>33&#45;&gt;43</title>
<path fill="none" stroke="black" stroke-dasharray="5,2" d="M1030.88,-232.05C1028.99,-224.26 1026.7,-214.82 1024.58,-206.08"/>
<polygon fill="black" stroke="black" points="1027.96,-205.17 1022.2,-196.28 1021.15,-206.82 1027.96,-205.17"/>
</g>
<!-- 42&#45;&gt;9 -->
<g id="edge5" class="edge">
<title>42&#45;&gt;9</title>
<path fill="none" stroke="black" stroke-dasharray="5,2" d="M1148,-231.7C1148,-223.98 1148,-214.71 1148,-206.11"/>
<polygon fill="black" stroke="black" points="1151.5,-206.1 1148,-196.1 1144.5,-206.1 1151.5,-206.1"/>
</g>
<!-- 42&#45;&gt;17 -->
<g id="edge12" class="edge">
<title>42&#45;&gt;17</title>
<path fill="none" stroke="black" stroke-dasharray="1,5" d="M1173.68,-235.17C1193.11,-224.71 1220.03,-210.21 1241.67,-198.56"/>
<polygon fill="black" stroke="black" points="1243.43,-201.59 1250.57,-193.77 1240.11,-195.43 1243.43,-201.59"/>
</g>
<!-- 18 -->
<g id="node31" class="node">
<title>18</title>
<ellipse fill="none" stroke="blue" stroke-dasharray="5,2" cx="241" cy="-323" rx="50.09" ry="18"/>
<text text-anchor="middle" x="241" y="-319.3" font-family="Times,serif" font-size="14.00">V568 (b)</text>
</g>
<!-- 18&#45;&gt;14 -->
<g id="edge9" class="edge">
<title>18&#45;&gt;14</title>
<path fill="none" stroke="blue" stroke-dasharray="1,5" d="M241,-304.81C241,-296.79 241,-287.05 241,-278.07"/>
<polygon fill="blue" stroke="blue" points="244.5,-278.03 241,-268.03 237.5,-278.03 244.5,-278.03"/>
</g>
</g>
</svg>
