<?xml version="1.0" encoding="UTF-8" standalone="no"?>
<!DOCTYPE svg PUBLIC "-//W3C//DTD SVG 1.1//EN"
 "http://www.w3.org/Graphics/SVG/1.1/DTD/svg11.dtd">
<!-- Generated by graphviz version 2.43.0 (0)
 -->
<!-- Title: textual_flow_diagram Pages: 1 -->
<svg width="1731pt" height="473pt"
 viewBox="0.00 0.00 1731.00 473.00" xmlns="http://www.w3.org/2000/svg" xmlns:xlink="http://www.w3.org/1999/xlink">
<g id="graph0" class="graph" transform="scale(1 1) rotate(0) translate(4 469)">
<title>textual_flow_diagram</title>
<polygon fill="white" stroke="transparent" points="-4,4 -4,-469 1727,-469 1727,4 -4,4"/>
<g id="clust1" class="cluster">
<title>cluster_legend</title>
<polygon fill="none" stroke="black" points="8,-403 8,-457 186,-457 186,-403 8,-403"/>
</g>
<g id="clust2" class="cluster">
<title>cluster_plot</title>
</g>
<!-- label -->
<g id="node1" class="node">
<title>label</title>
<text text-anchor="middle" x="97" y="-433.8" font-family="Times,serif" font-size="14.00">adstag1.3.22U4&#45;6, d</text>
<text text-anchor="middle" x="97" y="-418.8" font-family="Times,serif" font-size="14.00">Con = 3</text>
</g>
<!-- 0 -->
<g id="node2" class="node">
<title>0</title>
<ellipse fill="none" stroke="black" cx="497" cy="-190" rx="53.09" ry="18"/>
<text text-anchor="middle" x="497" y="-186.3" font-family="Times,serif" font-size="14.00">M136 (d)</text>
</g>
<!-- 34 -->
<g id="node20" class="node">
<title>34</title>
<ellipse fill="none" stroke="black" cx="497" cy="-107" rx="50.89" ry="18"/>
<text text-anchor="middle" x="497" y="-103.3" font-family="Times,serif" font-size="14.00">Neap (d)</text>
</g>
<!-- 0&#45;&gt;34 -->
<g id="edge19" class="edge">
<title>0&#45;&gt;34</title>
<path fill="none" stroke="black" stroke-dasharray="5,2" d="M497,-171.82C497,-161.19 497,-147.31 497,-135.2"/>
<polygon fill="black" stroke="black" points="500.5,-135.15 497,-125.15 493.5,-135.15 500.5,-135.15"/>
<text text-anchor="middle" x="500.5" y="-146" font-family="Times,serif" font-size="10.00">2</text>
</g>
<!-- 3 -->
<g id="node3" class="node">
<title>3</title>
<ellipse fill="none" stroke="black" cx="536" cy="-273" rx="44.39" ry="18"/>
<text text-anchor="middle" x="536" y="-269.3" font-family="Times,serif" font-size="14.00">S32 (d)</text>
</g>
<!-- 6 -->
<g id="node4" class="node">
<title>6</title>
<ellipse fill="none" stroke="black" cx="642" cy="-273" rx="44.39" ry="18"/>
<text text-anchor="middle" x="642" y="-269.3" font-family="Times,serif" font-size="14.00">P01 (d)</text>
</g>
<!-- 15 -->
<g id="node11" class="node">
<title>15</title>
<ellipse fill="none" stroke="black" cx="255" cy="-190" rx="53.09" ry="18"/>
<text text-anchor="middle" x="255" y="-186.3" font-family="Times,serif" font-size="14.00">LaSM (d)</text>
</g>
<!-- 6&#45;&gt;15 -->
<g id="edge10" class="edge">
<title>6&#45;&gt;15</title>
<path fill="none" stroke="black" stroke-dasharray="5,2" d="M609.41,-260.76C602.71,-258.67 595.66,-256.64 589,-255 529.43,-240.37 376.87,-221.35 317,-208 312.83,-207.07 308.53,-206.04 304.22,-204.96"/>
<polygon fill="black" stroke="black" points="304.77,-201.49 294.22,-202.37 303.02,-208.26 304.77,-201.49"/>
<text text-anchor="middle" x="493.5" y="-229" font-family="Times,serif" font-size="10.00">2</text>
</g>
<!-- 7 -->
<g id="node5" class="node">
<title>7</title>
<ellipse fill="none" stroke="black" cx="754" cy="-273" rx="50.09" ry="18"/>
<text text-anchor="middle" x="754" y="-269.3" font-family="Times,serif" font-size="14.00">Patm (d)</text>
</g>
<!-- 16 -->
<g id="node12" class="node">
<title>16</title>
<ellipse fill="none" stroke="black" cx="376" cy="-190" rx="50.09" ry="18"/>
<text text-anchor="middle" x="376" y="-186.3" font-family="Times,serif" font-size="14.00">V560 (d)</text>
</g>
<!-- 7&#45;&gt;16 -->
<g id="edge11" class="edge">
<title>7&#45;&gt;16</title>
<path fill="none" stroke="black" stroke-width="2" d="M717.39,-260.53C710.03,-258.48 702.31,-256.52 695,-255 634.44,-242.4 617.84,-248.17 557,-237 502.18,-226.94 488.9,-222.16 435,-208 431.17,-206.99 427.2,-205.92 423.22,-204.82"/>
<polygon fill="black" stroke="black" stroke-width="2" points="423.95,-201.39 413.38,-202.06 422.06,-208.13 423.95,-201.39"/>
<text text-anchor="middle" x="560.5" y="-229" font-family="Times,serif" font-size="10.00">2</text>
</g>
<!-- 9 -->
<g id="node6" class="node">
<title>9</title>
<ellipse fill="none" stroke="black" cx="255" cy="-107" rx="44.69" ry="18"/>
<text text-anchor="middle" x="255" y="-103.3" font-family="Times,serif" font-size="14.00">B39 (d)</text>
</g>
<!-- 10 -->
<g id="node7" class="node">
<title>10</title>
<ellipse fill="none" stroke="black" cx="497" cy="-34" rx="55.79" ry="18"/>
<text text-anchor="middle" x="497" y="-30.3" font-family="Times,serif" font-size="14.00">V1629 (d)</text>
</g>
<!-- 11 -->
<g id="node8" class="node">
<title>11</title>
<ellipse fill="none" stroke="black" cx="618" cy="-190" rx="50.09" ry="18"/>
<text text-anchor="middle" x="618" y="-186.3" font-family="Times,serif" font-size="14.00">A116 (d)</text>
</g>
<!-- 13 -->
<g id="node9" class="node">
<title>13</title>
<ellipse fill="none" stroke="black" cx="1535" cy="-190" rx="42.49" ry="18"/>
<text text-anchor="middle" x="1535" y="-186.3" font-family="Times,serif" font-size="14.00">Est (d)</text>
</g>
<!-- 14 -->
<g id="node10" class="node">
<title>14</title>
<ellipse fill="none" stroke="black" cx="862" cy="-273" rx="40.09" ry="18"/>
<text text-anchor="middle" x="862" y="-269.3" font-family="Times,serif" font-size="14.00">Pal (d)</text>
</g>
<!-- 15&#45;&gt;9 -->
<g id="edge5" class="edge">
<title>15&#45;&gt;9</title>
<path fill="none" stroke="black" stroke-dasharray="5,2" d="M255,-171.82C255,-161.19 255,-147.31 255,-135.2"/>
<polygon fill="black" stroke="black" points="258.5,-135.15 255,-125.15 251.5,-135.15 258.5,-135.15"/>
</g>
<!-- 18 -->
<g id="node13" class="node">
<title>18</title>
<ellipse fill="none" stroke="black" cx="730" cy="-190" rx="43.59" ry="18"/>
<text text-anchor="middle" x="730" y="-186.3" font-family="Times,serif" font-size="14.00">La2 (d)</text>
</g>
<!-- 19 -->
<g id="node14" class="node">
<title>19</title>
<ellipse fill="none" stroke="black" cx="862" cy="-356" rx="44.39" ry="18"/>
<text text-anchor="middle" x="862" y="-352.3" font-family="Times,serif" font-size="14.00">A25 (d)</text>
</g>
<!-- 19&#45;&gt;3 -->
<g id="edge2" class="edge">
<title>19&#45;&gt;3</title>
<path fill="none" stroke="black" stroke-dasharray="5,2" d="M823.32,-346.96C770.2,-335.67 671.8,-313.95 589,-291 585.64,-290.07 582.17,-289.06 578.7,-288.02"/>
<polygon fill="black" stroke="black" points="579.54,-284.62 568.96,-285.02 577.48,-291.31 579.54,-284.62"/>
</g>
<!-- 19&#45;&gt;6 -->
<g id="edge3" class="edge">
<title>19&#45;&gt;6</title>
<path fill="none" stroke="black" stroke-dasharray="5,2" d="M830.01,-343.22C791.2,-328.93 725.71,-304.82 683.17,-289.16"/>
<polygon fill="black" stroke="black" points="684.27,-285.83 673.67,-285.66 681.85,-292.4 684.27,-285.83"/>
</g>
<!-- 19&#45;&gt;7 -->
<g id="edge4" class="edge">
<title>19&#45;&gt;7</title>
<path fill="none" stroke="black" stroke-dasharray="1,5" d="M841.94,-339.95C825.33,-327.5 801.51,-309.63 782.85,-295.64"/>
<polygon fill="black" stroke="black" points="784.79,-292.72 774.69,-289.52 780.59,-298.32 784.79,-292.72"/>
</g>
<!-- 19&#45;&gt;14 -->
<g id="edge9" class="edge">
<title>19&#45;&gt;14</title>
<path fill="none" stroke="black" stroke-dasharray="5,2" d="M862,-337.82C862,-327.19 862,-313.31 862,-301.2"/>
<polygon fill="black" stroke="black" points="865.5,-301.15 862,-291.15 858.5,-301.15 865.5,-301.15"/>
</g>
<!-- 26 -->
<g id="node17" class="node">
<title>26</title>
<ellipse fill="none" stroke="black" cx="970" cy="-273" rx="49.29" ry="18"/>
<text text-anchor="middle" x="970" y="-269.3" font-family="Times,serif" font-size="14.00">La22 (d)</text>
</g>
<!-- 19&#45;&gt;26 -->
<g id="edge16" class="edge">
<title>19&#45;&gt;26</title>
<path fill="none" stroke="black" stroke-dasharray="1,5" d="M882.06,-339.95C898.67,-327.5 922.49,-309.63 941.15,-295.64"/>
<polygon fill="black" stroke="black" points="943.41,-298.32 949.31,-289.52 939.21,-292.72 943.41,-298.32"/>
<text text-anchor="middle" x="925.5" y="-312" font-family="Times,serif" font-size="10.00">2</text>
</g>
<!-- 30 -->
<g id="node19" class="node">
<title>30</title>
<ellipse fill="none" stroke="black" cx="1103" cy="-273" rx="55.79" ry="18"/>
<text text-anchor="middle" x="1103" y="-269.3" font-family="Times,serif" font-size="14.00">V1897 (d)</text>
</g>
<!-- 19&#45;&gt;30 -->
<g id="edge18" class="edge">
<title>19&#45;&gt;30</title>
<path fill="none" stroke="black" stroke-dasharray="5,2" d="M895,-343.91C936.65,-329.91 1008.54,-305.75 1055.93,-289.82"/>
<polygon fill="black" stroke="black" points="1057.29,-293.06 1065.65,-286.55 1055.06,-286.42 1057.29,-293.06"/>
<text text-anchor="middle" x="999.5" y="-312" font-family="Times,serif" font-size="10.00">3</text>
</g>
<!-- 35 -->
<g id="node21" class="node">
<title>35</title>
<ellipse fill="none" stroke="black" cx="1439" cy="-273" rx="50.09" ry="18"/>
<text text-anchor="middle" x="1439" y="-269.3" font-family="Times,serif" font-size="14.00">V566 (d)</text>
</g>
<!-- 19&#45;&gt;35 -->
<g id="edge20" class="edge">
<title>19&#45;&gt;35</title>
<path fill="none" stroke="black" stroke-dasharray="5,2" d="M903.03,-349.24C1004.5,-335 1267.32,-298.1 1382.97,-281.86"/>
<polygon fill="black" stroke="black" points="1383.62,-285.31 1393.04,-280.45 1382.65,-278.38 1383.62,-285.31"/>
</g>
<!-- 23 -->
<g id="node15" class="node">
<title>23</title>
<ellipse fill="none" stroke="black" cx="847" cy="-190" rx="55.79" ry="18"/>
<text text-anchor="middle" x="847" y="-186.3" font-family="Times,serif" font-size="14.00">V2036 (d)</text>
</g>
<!-- 24 -->
<g id="node16" class="node">
<title>24</title>
<ellipse fill="none" stroke="black" cx="970" cy="-190" rx="49.29" ry="18"/>
<text text-anchor="middle" x="970" y="-186.3" font-family="Times,serif" font-size="14.00">La35 (d)</text>
</g>
<!-- 26&#45;&gt;0 -->
<g id="edge1" class="edge">
<title>26&#45;&gt;0</title>
<path fill="none" stroke="black" d="M934.04,-260.59C926.49,-258.49 918.53,-256.49 911,-255 840.38,-240.98 821.38,-246.41 750,-237 664.87,-225.78 642.99,-225.83 559,-208 554.64,-207.08 550.14,-206.03 545.64,-204.91"/>
<polygon fill="black" stroke="black" points="546.41,-201.5 535.86,-202.4 544.67,-208.28 546.41,-201.5"/>
<text text-anchor="middle" x="753.5" y="-229" font-family="Times,serif" font-size="10.00">2</text>
</g>
<!-- 26&#45;&gt;11 -->
<g id="edge7" class="edge">
<title>26&#45;&gt;11</title>
<path fill="none" stroke="black" stroke-dasharray="5,2" d="M933.3,-260.92C925.95,-258.84 918.25,-256.77 911,-255 807.95,-229.85 780.05,-233.15 677,-208 672.98,-207.02 668.82,-205.94 664.66,-204.83"/>
<polygon fill="black" stroke="black" points="665.58,-201.45 655.01,-202.17 663.72,-208.2 665.58,-201.45"/>
</g>
<!-- 26&#45;&gt;18 -->
<g id="edge12" class="edge">
<title>26&#45;&gt;18</title>
<path fill="none" stroke="black" d="M935.1,-260.22C891.98,-245.67 818.66,-220.92 772.36,-205.3"/>
<polygon fill="black" stroke="black" points="773.22,-201.89 762.63,-202.01 770.98,-208.53 773.22,-201.89"/>
<text text-anchor="middle" x="867.5" y="-229" font-family="Times,serif" font-size="10.00">2</text>
</g>
<!-- 26&#45;&gt;23 -->
<g id="edge14" class="edge">
<title>26&#45;&gt;23</title>
<path fill="none" stroke="black" stroke-dasharray="5,2" d="M947.15,-256.95C927.98,-244.33 900.38,-226.15 879,-212.08"/>
<polygon fill="black" stroke="black" points="880.84,-209.09 870.56,-206.52 876.99,-214.94 880.84,-209.09"/>
</g>
<!-- 26&#45;&gt;24 -->
<g id="edge15" class="edge">
<title>26&#45;&gt;24</title>
<path fill="none" stroke="black" stroke-dasharray="1,5" d="M970,-254.82C970,-244.19 970,-230.31 970,-218.2"/>
<polygon fill="black" stroke="black" points="973.5,-218.15 970,-208.15 966.5,-218.15 973.5,-218.15"/>
</g>
<!-- 29 -->
<g id="node18" class="node">
<title>29</title>
<ellipse fill="none" stroke="black" cx="1085" cy="-190" rx="47.39" ry="18"/>
<text text-anchor="middle" x="1085" y="-186.3" font-family="Times,serif" font-size="14.00">Bodl (d)</text>
</g>
<!-- 26&#45;&gt;29 -->
<g id="edge17" class="edge">
<title>26&#45;&gt;29</title>
<path fill="none" stroke="black" stroke-dasharray="5,2" d="M991.63,-256.76C1009.54,-244.15 1035.18,-226.09 1055.06,-212.09"/>
<polygon fill="black" stroke="black" points="1057.31,-214.79 1063.47,-206.17 1053.28,-209.06 1057.31,-214.79"/>
</g>
<!-- 36 -->
<g id="node22" class="node">
<title>36</title>
<ellipse fill="none" stroke="black" cx="1195" cy="-190" rx="44.39" ry="18"/>
<text text-anchor="middle" x="1195" y="-186.3" font-family="Times,serif" font-size="14.00">P74 (d)</text>
</g>
<!-- 26&#45;&gt;36 -->
<g id="edge21" class="edge">
<title>26&#45;&gt;36</title>
<path fill="none" stroke="black" stroke-dasharray="1,5" d="M1004.17,-259.7C1044.2,-245.29 1110.51,-221.42 1153.47,-205.95"/>
<polygon fill="black" stroke="black" points="1154.84,-209.18 1163.06,-202.5 1152.47,-202.59 1154.84,-209.18"/>
</g>
<!-- 37 -->
<g id="node23" class="node">
<title>37</title>
<ellipse fill="none" stroke="black" cx="1307" cy="-190" rx="50.09" ry="18"/>
<text text-anchor="middle" x="1307" y="-186.3" font-family="Times,serif" font-size="14.00">V571 (d)</text>
</g>
<!-- 26&#45;&gt;37 -->
<g id="edge22" class="edge">
<title>26&#45;&gt;37</title>
<path fill="none" stroke="black" stroke-dasharray="1,5" d="M1006.08,-260.66C1039.31,-250.52 1090.11,-235.8 1135,-226 1184.69,-215.15 1198.36,-219.06 1248,-208 1252.1,-207.09 1256.33,-206.05 1260.56,-204.96"/>
<polygon fill="black" stroke="black" points="1261.61,-208.3 1270.36,-202.31 1259.79,-201.54 1261.61,-208.3"/>
</g>
<!-- 40 -->
<g id="node24" class="node">
<title>40</title>
<ellipse fill="none" stroke="black" cx="1425" cy="-190" rx="50.09" ry="18"/>
<text text-anchor="middle" x="1425" y="-186.3" font-family="Times,serif" font-size="14.00">V565 (d)</text>
</g>
<!-- 26&#45;&gt;40 -->
<g id="edge23" class="edge">
<title>26&#45;&gt;40</title>
<path fill="none" stroke="black" stroke-dasharray="5,2" d="M1008.68,-261.6C1018.22,-259.24 1028.45,-256.87 1038,-255 1182.51,-226.66 1222.01,-238.91 1366,-208 1370.1,-207.12 1374.34,-206.11 1378.57,-205.03"/>
<polygon fill="black" stroke="black" points="1379.62,-208.37 1388.38,-202.4 1377.81,-201.61 1379.62,-208.37"/>
</g>
<!-- 30&#45;&gt;13 -->
<g id="edge8" class="edge">
<title>30&#45;&gt;13</title>
<path fill="none" stroke="black" stroke-dasharray="1,5" d="M1154.67,-265.91C1228.42,-256.63 1367.82,-236.93 1484,-208 1487.36,-207.16 1490.82,-206.21 1494.28,-205.19"/>
<polygon fill="black" stroke="black" points="1495.42,-208.51 1503.94,-202.21 1493.35,-201.82 1495.42,-208.51"/>
</g>
<!-- 34&#45;&gt;10 -->
<g id="edge6" class="edge">
<title>34&#45;&gt;10</title>
<path fill="none" stroke="black" stroke-dasharray="1,5" d="M497,-88.81C497,-80.79 497,-71.05 497,-62.07"/>
<polygon fill="black" stroke="black" points="500.5,-62.03 497,-52.03 493.5,-62.03 500.5,-62.03"/>
</g>
<!-- 42 -->
<g id="node25" class="node">
<title>42</title>
<ellipse fill="none" stroke="black" cx="1651" cy="-190" rx="55.79" ry="18"/>
<text text-anchor="middle" x="1651" y="-186.3" font-family="Times,serif" font-size="14.00">V1639 (d)</text>
</g>
<!-- 35&#45;&gt;42 -->
<g id="edge24" class="edge">
<title>35&#45;&gt;42</title>
<path fill="none" stroke="black" stroke-dasharray="1,5" d="M1472.12,-259.34C1508.38,-245.49 1566.68,-223.22 1606.81,-207.88"/>
<polygon fill="black" stroke="black" points="1608.26,-211.08 1616.35,-204.24 1605.76,-204.54 1608.26,-211.08"/>
</g>
<!-- 20 -->
<g id="node26" class="node">
<title>20</title>
<ellipse fill="none" stroke="blue" stroke-dasharray="5,2" cx="862" cy="-430" rx="53.89" ry="18"/>
<text text-anchor="middle" x="862" y="-426.3" font-family="Times,serif" font-size="14.00">aBase (a)</text>
</g>
<!-- 20&#45;&gt;19 -->
<g id="edge13" class="edge">
<title>20&#45;&gt;19</title>
<path fill="none" stroke="blue" stroke-dasharray="5,2" d="M862,-411.94C862,-403.81 862,-393.88 862,-384.7"/>
<polygon fill="blue" stroke="blue" points="865.5,-384.44 862,-374.44 858.5,-384.44 865.5,-384.44"/>
</g>
</g>
</svg>
