<?xml version="1.0" encoding="UTF-8" standalone="no"?>
<!DOCTYPE svg PUBLIC "-//W3C//DTD SVG 1.1//EN"
 "http://www.w3.org/Graphics/SVG/1.1/DTD/svg11.dtd">
<!-- Generated by graphviz version 2.43.0 (0)
 -->
<!-- Title: textual_flow_diagram Pages: 1 -->
<svg width="1484pt" height="692pt"
 viewBox="0.00 0.00 1484.00 692.00" xmlns="http://www.w3.org/2000/svg" xmlns:xlink="http://www.w3.org/1999/xlink">
<g id="graph0" class="graph" transform="scale(1 1) rotate(0) translate(4 688)">
<title>textual_flow_diagram</title>
<polygon fill="white" stroke="transparent" points="-4,4 -4,-688 1480,-688 1480,4 -4,4"/>
<g id="clust1" class="cluster">
<title>cluster_legend</title>
<polygon fill="none" stroke="black" points="8,-622 8,-676 172,-676 172,-622 8,-622"/>
</g>
<g id="clust2" class="cluster">
<title>cluster_plot</title>
</g>
<!-- label -->
<g id="node1" class="node">
<title>label</title>
<text text-anchor="middle" x="90" y="-652.8" font-family="Times,serif" font-size="14.00">adstag1.3.37U4, a</text>
<text text-anchor="middle" x="90" y="-637.8" font-family="Times,serif" font-size="14.00">Con = 5</text>
</g>
<!-- 0 -->
<g id="node2" class="node">
<title>0</title>
<ellipse fill="none" stroke="black" cx="471" cy="-565" rx="52.79" ry="18"/>
<text text-anchor="middle" x="471" y="-561.3" font-family="Times,serif" font-size="14.00">M136 (a)</text>
</g>
<!-- 1 -->
<g id="node3" class="node">
<title>1</title>
<ellipse fill="none" stroke="black" cx="586" cy="-565" rx="44.39" ry="18"/>
<text text-anchor="middle" x="586" y="-561.3" font-family="Times,serif" font-size="14.00">P74 (a)</text>
</g>
<!-- 36 -->
<g id="node28" class="node">
<title>36</title>
<ellipse fill="none" stroke="black" cx="238" cy="-482" rx="50.09" ry="18"/>
<text text-anchor="middle" x="238" y="-478.3" font-family="Times,serif" font-size="14.00">V571 (a)</text>
</g>
<!-- 1&#45;&gt;36 -->
<g id="edge27" class="edge">
<title>1&#45;&gt;36</title>
<path fill="none" stroke="black" stroke-dasharray="1,5" d="M553.09,-552.8C546.48,-550.74 539.55,-548.7 533,-547 429.47,-520.18 400.92,-525.27 297,-500 292.98,-499.02 288.82,-497.95 284.66,-496.84"/>
<polygon fill="black" stroke="black" points="285.58,-493.46 275.01,-494.18 283.72,-500.21 285.58,-493.46"/>
<text text-anchor="middle" x="450.5" y="-521" font-family="Times,serif" font-size="10.00">2</text>
</g>
<!-- 2 -->
<g id="node4" class="node">
<title>2</title>
<ellipse fill="none" stroke="black" cx="350" cy="-482" rx="44.39" ry="18"/>
<text text-anchor="middle" x="350" y="-478.3" font-family="Times,serif" font-size="14.00">S32 (a)</text>
</g>
<!-- 3 -->
<g id="node5" class="node">
<title>3</title>
<ellipse fill="none" stroke="black" cx="1144" cy="-399" rx="41.69" ry="18"/>
<text text-anchor="middle" x="1144" y="-395.3" font-family="Times,serif" font-size="14.00">Est (a)</text>
</g>
<!-- 4 -->
<g id="node6" class="node">
<title>4</title>
<ellipse fill="none" stroke="black" cx="580" cy="-399" rx="55.79" ry="18"/>
<text text-anchor="middle" x="580" y="-395.3" font-family="Times,serif" font-size="14.00">V1639 (a)</text>
</g>
<!-- 8 -->
<g id="node7" class="node">
<title>8</title>
<ellipse fill="none" stroke="black" cx="1404" cy="-482" rx="55.79" ry="18"/>
<text text-anchor="middle" x="1404" y="-478.3" font-family="Times,serif" font-size="14.00">V1920 (a)</text>
</g>
<!-- 9 -->
<g id="node8" class="node">
<title>9</title>
<ellipse fill="none" stroke="black" cx="462" cy="-482" rx="50.09" ry="18"/>
<text text-anchor="middle" x="462" y="-478.3" font-family="Times,serif" font-size="14.00">Patm (a)</text>
</g>
<!-- 10 -->
<g id="node9" class="node">
<title>10</title>
<ellipse fill="none" stroke="black" cx="1153" cy="-180" rx="50.09" ry="18"/>
<text text-anchor="middle" x="1153" y="-176.3" font-family="Times,serif" font-size="14.00">Marc (a)</text>
</g>
<!-- 26 -->
<g id="node23" class="node">
<title>26</title>
<ellipse fill="none" stroke="black" cx="1153" cy="-107" rx="46.29" ry="18"/>
<text text-anchor="middle" x="1153" y="-103.3" font-family="Times,serif" font-size="14.00">Mon (a)</text>
</g>
<!-- 10&#45;&gt;26 -->
<g id="edge22" class="edge">
<title>10&#45;&gt;26</title>
<path fill="none" stroke="black" stroke-dasharray="1,5" d="M1153,-161.81C1153,-153.79 1153,-144.05 1153,-135.07"/>
<polygon fill="black" stroke="black" points="1156.5,-135.03 1153,-125.03 1149.5,-135.03 1156.5,-135.03"/>
</g>
<!-- 11 -->
<g id="node10" class="node">
<title>11</title>
<ellipse fill="none" stroke="black" cx="580" cy="-482" rx="50.09" ry="18"/>
<text text-anchor="middle" x="580" y="-478.3" font-family="Times,serif" font-size="14.00">V566 (a)</text>
</g>
<!-- 11&#45;&gt;4 -->
<g id="edge5" class="edge">
<title>11&#45;&gt;4</title>
<path fill="none" stroke="black" stroke-dasharray="1,5" d="M580,-463.82C580,-453.19 580,-439.31 580,-427.2"/>
<polygon fill="black" stroke="black" points="583.5,-427.15 580,-417.15 576.5,-427.15 583.5,-427.15"/>
</g>
<!-- 13 -->
<g id="node11" class="node">
<title>13</title>
<ellipse fill="none" stroke="black" cx="692" cy="-565" rx="44.39" ry="18"/>
<text text-anchor="middle" x="692" y="-561.3" font-family="Times,serif" font-size="14.00">A25 (a)</text>
</g>
<!-- 13&#45;&gt;2 -->
<g id="edge3" class="edge">
<title>13&#45;&gt;2</title>
<path fill="none" stroke="black" stroke-dasharray="5,2" d="M659.09,-552.8C652.48,-550.74 645.55,-548.7 639,-547 535.47,-520.18 506.53,-526.82 403,-500 399.62,-499.13 396.15,-498.16 392.66,-497.15"/>
<polygon fill="black" stroke="black" points="393.49,-493.74 382.91,-494.2 391.47,-500.44 393.49,-493.74"/>
</g>
<!-- 13&#45;&gt;9 -->
<g id="edge7" class="edge">
<title>13&#45;&gt;9</title>
<path fill="none" stroke="black" stroke-dasharray="1,5" d="M659.53,-552.57C619.39,-538.43 550.88,-514.3 506.02,-498.5"/>
<polygon fill="black" stroke="black" points="507.15,-495.19 496.55,-495.17 504.82,-501.79 507.15,-495.19"/>
</g>
<!-- 13&#45;&gt;11 -->
<g id="edge9" class="edge">
<title>13&#45;&gt;11</title>
<path fill="none" stroke="black" stroke-dasharray="5,2" d="M671.2,-548.95C653.89,-536.44 629.05,-518.47 609.66,-504.45"/>
<polygon fill="black" stroke="black" points="611.61,-501.54 601.45,-498.52 607.51,-507.21 611.61,-501.54"/>
</g>
<!-- 25 -->
<g id="node22" class="node">
<title>25</title>
<ellipse fill="none" stroke="black" cx="692" cy="-482" rx="44.39" ry="18"/>
<text text-anchor="middle" x="692" y="-478.3" font-family="Times,serif" font-size="14.00">P01 (a)</text>
</g>
<!-- 13&#45;&gt;25 -->
<g id="edge21" class="edge">
<title>13&#45;&gt;25</title>
<path fill="none" stroke="black" stroke-dasharray="5,2" d="M692,-546.82C692,-536.19 692,-522.31 692,-510.2"/>
<polygon fill="black" stroke="black" points="695.5,-510.15 692,-500.15 688.5,-510.15 695.5,-510.15"/>
</g>
<!-- 40 -->
<g id="node32" class="node">
<title>40</title>
<ellipse fill="none" stroke="black" cx="794" cy="-482" rx="40.09" ry="18"/>
<text text-anchor="middle" x="794" y="-478.3" font-family="Times,serif" font-size="14.00">Pal (a)</text>
</g>
<!-- 13&#45;&gt;40 -->
<g id="edge30" class="edge">
<title>13&#45;&gt;40</title>
<path fill="none" stroke="black" stroke-dasharray="5,2" d="M711.19,-548.76C726.86,-536.32 749.2,-518.58 766.73,-504.65"/>
<polygon fill="black" stroke="black" points="769.25,-507.13 774.9,-498.17 764.89,-501.65 769.25,-507.13"/>
</g>
<!-- 14 -->
<g id="node12" class="node">
<title>14</title>
<ellipse fill="none" stroke="black" cx="238" cy="-399" rx="50.09" ry="18"/>
<text text-anchor="middle" x="238" y="-395.3" font-family="Times,serif" font-size="14.00">A336 (a)</text>
</g>
<!-- 15 -->
<g id="node13" class="node">
<title>15</title>
<ellipse fill="none" stroke="black" cx="1274" cy="-180" rx="52.79" ry="18"/>
<text text-anchor="middle" x="1274" y="-176.3" font-family="Times,serif" font-size="14.00">M118 (a)</text>
</g>
<!-- 16 -->
<g id="node14" class="node">
<title>16</title>
<ellipse fill="none" stroke="black" cx="814" cy="-565" rx="52.79" ry="18"/>
<text text-anchor="middle" x="814" y="-561.3" font-family="Times,serif" font-size="14.00">LaSM (a)</text>
</g>
<!-- 23 -->
<g id="node20" class="node">
<title>23</title>
<ellipse fill="none" stroke="black" cx="896" cy="-482" rx="44.39" ry="18"/>
<text text-anchor="middle" x="896" y="-478.3" font-family="Times,serif" font-size="14.00">B39 (a)</text>
</g>
<!-- 16&#45;&gt;23 -->
<g id="edge19" class="edge">
<title>16&#45;&gt;23</title>
<path fill="none" stroke="black" stroke-dasharray="5,2" d="M830.59,-547.61C842.64,-535.71 859.11,-519.44 872.51,-506.2"/>
<polygon fill="black" stroke="black" points="875.33,-508.33 879.99,-498.82 870.41,-503.35 875.33,-508.33"/>
</g>
<!-- 17 -->
<g id="node15" class="node">
<title>17</title>
<ellipse fill="none" stroke="black" cx="929" cy="-565" rx="44.69" ry="18"/>
<text text-anchor="middle" x="929" y="-561.3" font-family="Times,serif" font-size="14.00">Nan (a)</text>
</g>
<!-- 20 -->
<g id="node17" class="node">
<title>20</title>
<ellipse fill="none" stroke="black" cx="1014" cy="-482" rx="55.79" ry="18"/>
<text text-anchor="middle" x="1014" y="-478.3" font-family="Times,serif" font-size="14.00">V2250 (a)</text>
</g>
<!-- 17&#45;&gt;20 -->
<g id="edge16" class="edge">
<title>17&#45;&gt;20</title>
<path fill="none" stroke="black" stroke-dasharray="5,2" d="M945.79,-548C958.28,-536.09 975.52,-519.67 989.54,-506.31"/>
<polygon fill="black" stroke="black" points="992.13,-508.68 996.95,-499.25 987.3,-503.61 992.13,-508.68"/>
</g>
<!-- 30 -->
<g id="node26" class="node">
<title>30</title>
<ellipse fill="none" stroke="black" cx="1144" cy="-482" rx="55.79" ry="18"/>
<text text-anchor="middle" x="1144" y="-478.3" font-family="Times,serif" font-size="14.00">V1897 (a)</text>
</g>
<!-- 17&#45;&gt;30 -->
<g id="edge25" class="edge">
<title>17&#45;&gt;30</title>
<path fill="none" stroke="black" stroke-dasharray="1,5" d="M960.72,-552.05C997.38,-538.24 1057.96,-515.41 1099.36,-499.82"/>
<polygon fill="black" stroke="black" points="1100.81,-503.01 1108.93,-496.21 1098.34,-496.46 1100.81,-503.01"/>
</g>
<!-- 18 -->
<g id="node16" class="node">
<title>18</title>
<ellipse fill="none" stroke="black" cx="1042" cy="-565" rx="50.09" ry="18"/>
<text text-anchor="middle" x="1042" y="-561.3" font-family="Times,serif" font-size="14.00">S249 (a)</text>
</g>
<!-- 21 -->
<g id="node18" class="node">
<title>21</title>
<ellipse fill="none" stroke="black" cx="1274" cy="-253" rx="46.59" ry="18"/>
<text text-anchor="middle" x="1274" y="-249.3" font-family="Times,serif" font-size="14.00">Taur (a)</text>
</g>
<!-- 21&#45;&gt;10 -->
<g id="edge8" class="edge">
<title>21&#45;&gt;10</title>
<path fill="none" stroke="black" stroke-dasharray="1,5" d="M1249.51,-237.63C1231.55,-227.09 1206.92,-212.64 1187.04,-200.97"/>
<polygon fill="black" stroke="black" points="1188.68,-197.88 1178.28,-195.84 1185.14,-203.91 1188.68,-197.88"/>
</g>
<!-- 21&#45;&gt;15 -->
<g id="edge12" class="edge">
<title>21&#45;&gt;15</title>
<path fill="none" stroke="black" stroke-dasharray="5,2" d="M1274,-234.81C1274,-226.79 1274,-217.05 1274,-208.07"/>
<polygon fill="black" stroke="black" points="1277.5,-208.03 1274,-198.03 1270.5,-208.03 1277.5,-208.03"/>
</g>
<!-- 22 -->
<g id="node19" class="node">
<title>22</title>
<ellipse fill="none" stroke="black" cx="1395" cy="-180" rx="50.09" ry="18"/>
<text text-anchor="middle" x="1395" y="-176.3" font-family="Times,serif" font-size="14.00">V569 (a)</text>
</g>
<!-- 21&#45;&gt;22 -->
<g id="edge18" class="edge">
<title>21&#45;&gt;22</title>
<path fill="none" stroke="black" stroke-dasharray="5,2" d="M1298.49,-237.63C1316.45,-227.09 1341.08,-212.64 1360.96,-200.97"/>
<polygon fill="black" stroke="black" points="1362.86,-203.91 1369.72,-195.84 1359.32,-197.88 1362.86,-203.91"/>
</g>
<!-- 24 -->
<g id="node21" class="node">
<title>24</title>
<ellipse fill="none" stroke="black" cx="1274" cy="-326" rx="50.09" ry="18"/>
<text text-anchor="middle" x="1274" y="-322.3" font-family="Times,serif" font-size="14.00">V568 (a)</text>
</g>
<!-- 24&#45;&gt;21 -->
<g id="edge17" class="edge">
<title>24&#45;&gt;21</title>
<path fill="none" stroke="black" stroke-dasharray="1,5" d="M1274,-307.81C1274,-299.79 1274,-290.05 1274,-281.07"/>
<polygon fill="black" stroke="black" points="1277.5,-281.03 1274,-271.03 1270.5,-281.03 1277.5,-281.03"/>
</g>
<!-- 29 -->
<g id="node25" class="node">
<title>29</title>
<ellipse fill="none" stroke="black" cx="1153" cy="-34" rx="40.89" ry="18"/>
<text text-anchor="middle" x="1153" y="-30.3" font-family="Times,serif" font-size="14.00">Sin (a)</text>
</g>
<!-- 26&#45;&gt;29 -->
<g id="edge24" class="edge">
<title>26&#45;&gt;29</title>
<path fill="none" stroke="black" stroke-dasharray="1,5" d="M1153,-88.81C1153,-80.79 1153,-71.05 1153,-62.07"/>
<polygon fill="black" stroke="black" points="1156.5,-62.03 1153,-52.03 1149.5,-62.03 1156.5,-62.03"/>
</g>
<!-- 27 -->
<g id="node24" class="node">
<title>27</title>
<ellipse fill="none" stroke="black" cx="1160" cy="-565" rx="50.09" ry="18"/>
<text text-anchor="middle" x="1160" y="-561.3" font-family="Times,serif" font-size="14.00">V565 (a)</text>
</g>
<!-- 30&#45;&gt;3 -->
<g id="edge4" class="edge">
<title>30&#45;&gt;3</title>
<path fill="none" stroke="black" stroke-dasharray="1,5" d="M1144,-463.82C1144,-453.19 1144,-439.31 1144,-427.2"/>
<polygon fill="black" stroke="black" points="1147.5,-427.15 1144,-417.15 1140.5,-427.15 1147.5,-427.15"/>
</g>
<!-- 32 -->
<g id="node27" class="node">
<title>32</title>
<ellipse fill="none" stroke="black" cx="1278" cy="-565" rx="50.09" ry="18"/>
<text text-anchor="middle" x="1278" y="-561.3" font-family="Times,serif" font-size="14.00">Neap (a)</text>
</g>
<!-- 38 -->
<g id="node30" class="node">
<title>38</title>
<ellipse fill="none" stroke="black" cx="1274" cy="-482" rx="55.79" ry="18"/>
<text text-anchor="middle" x="1274" y="-478.3" font-family="Times,serif" font-size="14.00">V1629 (a)</text>
</g>
<!-- 32&#45;&gt;38 -->
<g id="edge28" class="edge">
<title>32&#45;&gt;38</title>
<path fill="none" stroke="black" stroke-dasharray="1,5" d="M1277.15,-546.82C1276.63,-536.19 1275.94,-522.31 1275.34,-510.2"/>
<polygon fill="black" stroke="black" points="1278.84,-509.97 1274.85,-500.15 1271.84,-510.31 1278.84,-509.97"/>
</g>
<!-- 36&#45;&gt;14 -->
<g id="edge11" class="edge">
<title>36&#45;&gt;14</title>
<path fill="none" stroke="black" stroke-dasharray="5,2" d="M238,-463.82C238,-453.19 238,-439.31 238,-427.2"/>
<polygon fill="black" stroke="black" points="241.5,-427.15 238,-417.15 234.5,-427.15 241.5,-427.15"/>
<text text-anchor="middle" x="241.5" y="-438" font-family="Times,serif" font-size="10.00">3</text>
</g>
<!-- 37 -->
<g id="node29" class="node">
<title>37</title>
<ellipse fill="none" stroke="black" cx="929" cy="-649" rx="53.89" ry="18"/>
<text text-anchor="middle" x="929" y="-645.3" font-family="Times,serif" font-size="14.00">aBase (a)</text>
</g>
<!-- 37&#45;&gt;0 -->
<g id="edge1" class="edge">
<title>37&#45;&gt;0</title>
<path fill="none" stroke="black" stroke-width="2" d="M879.59,-641.64C804.33,-631.57 656.66,-610.24 533,-583 528.65,-582.04 524.15,-580.97 519.66,-579.84"/>
<polygon fill="black" stroke="black" stroke-width="2" points="520.43,-576.43 509.88,-577.31 518.68,-583.2 520.43,-576.43"/>
</g>
<!-- 37&#45;&gt;1 -->
<g id="edge2" class="edge">
<title>37&#45;&gt;1</title>
<path fill="none" stroke="black" d="M883.48,-639.12C826.11,-627.62 724.64,-606.28 639,-583 635.63,-582.09 632.16,-581.09 628.69,-580.06"/>
<polygon fill="black" stroke="black" points="629.53,-576.65 618.94,-577.07 627.48,-583.35 629.53,-576.65"/>
<text text-anchor="middle" x="752.5" y="-604" font-family="Times,serif" font-size="10.00">2</text>
</g>
<!-- 37&#45;&gt;13 -->
<g id="edge10" class="edge">
<title>37&#45;&gt;13</title>
<path fill="none" stroke="black" stroke-dasharray="5,2" d="M893,-635.55C850.3,-620.77 779.21,-596.17 734.02,-580.54"/>
<polygon fill="black" stroke="black" points="735.11,-577.21 724.51,-577.25 732.82,-583.83 735.11,-577.21"/>
</g>
<!-- 37&#45;&gt;16 -->
<g id="edge13" class="edge">
<title>37&#45;&gt;16</title>
<path fill="none" stroke="black" d="M907.1,-632.38C889.27,-619.67 863.92,-601.6 844.18,-587.52"/>
<polygon fill="black" stroke="black" points="845.99,-584.51 835.82,-581.56 841.93,-590.21 845.99,-584.51"/>
</g>
<!-- 37&#45;&gt;17 -->
<g id="edge14" class="edge">
<title>37&#45;&gt;17</title>
<path fill="none" stroke="black" d="M929,-630.61C929,-619.77 929,-605.6 929,-593.29"/>
<polygon fill="black" stroke="black" points="932.5,-593.08 929,-583.08 925.5,-593.08 932.5,-593.08"/>
</g>
<!-- 37&#45;&gt;18 -->
<g id="edge15" class="edge">
<title>37&#45;&gt;18</title>
<path fill="none" stroke="black" d="M950.52,-632.38C968.04,-619.67 992.94,-601.6 1012.35,-587.52"/>
<polygon fill="black" stroke="black" points="1014.52,-590.26 1020.56,-581.56 1010.41,-584.6 1014.52,-590.26"/>
</g>
<!-- 37&#45;&gt;27 -->
<g id="edge23" class="edge">
<title>37&#45;&gt;27</title>
<path fill="none" stroke="black" d="M964.59,-635.37C1005.3,-620.92 1071.99,-597.24 1115.94,-581.64"/>
<polygon fill="black" stroke="black" points="1117.25,-584.89 1125.5,-578.25 1114.91,-578.29 1117.25,-584.89"/>
<text text-anchor="middle" x="1061.5" y="-604" font-family="Times,serif" font-size="10.00">4</text>
</g>
<!-- 37&#45;&gt;32 -->
<g id="edge26" class="edge">
<title>37&#45;&gt;32</title>
<path fill="none" stroke="black" stroke-width="2" d="M973.91,-638.81C1031.08,-626.91 1132.77,-605.06 1219,-583 1222.84,-582.02 1226.81,-580.96 1230.79,-579.87"/>
<polygon fill="black" stroke="black" stroke-width="2" points="1231.94,-583.19 1240.64,-577.13 1230.07,-576.44 1231.94,-583.19"/>
</g>
<!-- 39 -->
<g id="node31" class="node">
<title>39</title>
<ellipse fill="none" stroke="black" cx="1402" cy="-565" rx="50.09" ry="18"/>
<text text-anchor="middle" x="1402" y="-561.3" font-family="Times,serif" font-size="14.00">V560 (a)</text>
</g>
<!-- 37&#45;&gt;39 -->
<g id="edge29" class="edge">
<title>37&#45;&gt;39</title>
<path fill="none" stroke="black" stroke-width="2" d="M978.59,-641.69C1055.67,-631.53 1208.72,-609.93 1337,-583 1342.42,-581.86 1348.07,-580.56 1353.67,-579.2"/>
<polygon fill="black" stroke="black" stroke-width="2" points="1354.8,-582.52 1363.65,-576.69 1353.1,-575.73 1354.8,-582.52"/>
</g>
<!-- 42 -->
<g id="node33" class="node">
<title>42</title>
<ellipse fill="none" stroke="black" cx="1274" cy="-399" rx="50.09" ry="18"/>
<text text-anchor="middle" x="1274" y="-395.3" font-family="Times,serif" font-size="14.00">V536 (a)</text>
</g>
<!-- 38&#45;&gt;42 -->
<g id="edge31" class="edge">
<title>38&#45;&gt;42</title>
<path fill="none" stroke="black" stroke-dasharray="5,2" d="M1274,-463.82C1274,-453.19 1274,-439.31 1274,-427.2"/>
<polygon fill="black" stroke="black" points="1277.5,-427.15 1274,-417.15 1270.5,-427.15 1277.5,-427.15"/>
</g>
<!-- 39&#45;&gt;8 -->
<g id="edge6" class="edge">
<title>39&#45;&gt;8</title>
<path fill="none" stroke="black" stroke-dasharray="5,2" d="M1402.42,-546.82C1402.69,-536.19 1403.03,-522.31 1403.33,-510.2"/>
<polygon fill="black" stroke="black" points="1406.83,-510.24 1403.58,-500.15 1399.83,-510.06 1406.83,-510.24"/>
</g>
<!-- 42&#45;&gt;24 -->
<g id="edge20" class="edge">
<title>42&#45;&gt;24</title>
<path fill="none" stroke="black" stroke-dasharray="1,5" d="M1274,-380.81C1274,-372.79 1274,-363.05 1274,-354.07"/>
<polygon fill="black" stroke="black" points="1277.5,-354.03 1274,-344.03 1270.5,-354.03 1277.5,-354.03"/>
</g>
</g>
</svg>
