<?xml version="1.0" encoding="UTF-8" standalone="no"?>
<!DOCTYPE svg PUBLIC "-//W3C//DTD SVG 1.1//EN"
 "http://www.w3.org/Graphics/SVG/1.1/DTD/svg11.dtd">
<!-- Generated by graphviz version 2.43.0 (0)
 -->
<!-- Title: textual_flow_diagram Pages: 1 -->
<svg width="468pt" height="307pt"
 viewBox="0.00 0.00 468.00 307.00" xmlns="http://www.w3.org/2000/svg" xmlns:xlink="http://www.w3.org/1999/xlink">
<g id="graph0" class="graph" transform="scale(1 1) rotate(0) translate(4 303)">
<title>textual_flow_diagram</title>
<polygon fill="white" stroke="transparent" points="-4,4 -4,-303 464,-303 464,4 -4,4"/>
<g id="clust1" class="cluster">
<title>cluster_legend</title>
<polygon fill="none" stroke="black" points="8,-237 8,-291 204,-291 204,-237 8,-237"/>
</g>
<g id="clust2" class="cluster">
<title>cluster_plot</title>
</g>
<!-- label -->
<g id="node1" class="node">
<title>label</title>
<text text-anchor="middle" x="106" y="-267.8" font-family="Times,serif" font-size="14.00">adstag1.2.40U48&#45;50, d</text>
<text text-anchor="middle" x="106" y="-252.8" font-family="Times,serif" font-size="14.00">Con = 3</text>
</g>
<!-- 20 -->
<g id="node2" class="node">
<title>20</title>
<ellipse fill="none" stroke="black" cx="286" cy="-34" rx="65.79" ry="18"/>
<text text-anchor="middle" x="286" y="-30.3" font-family="Times,serif" font-size="14.00">Savile&#45;Η (d)</text>
</g>
<!-- 31 -->
<g id="node3" class="node">
<title>31</title>
<ellipse fill="none" stroke="black" cx="281" cy="-117" rx="55.79" ry="18"/>
<text text-anchor="middle" x="281" y="-113.3" font-family="Times,serif" font-size="14.00">V1639 (d)</text>
</g>
<!-- 31&#45;&gt;20 -->
<g id="edge1" class="edge">
<title>31&#45;&gt;20</title>
<path fill="none" stroke="black" d="M282.06,-98.82C282.72,-88.19 283.57,-74.31 284.32,-62.2"/>
<polygon fill="black" stroke="black" points="287.82,-62.35 284.94,-52.15 280.83,-61.92 287.82,-62.35"/>
<text text-anchor="middle" x="286.5" y="-73" font-family="Times,serif" font-size="10.00">2</text>
</g>
<!-- 37 -->
<g id="node4" class="node">
<title>37</title>
<ellipse fill="none" stroke="black" cx="270" cy="-190" rx="50.09" ry="18"/>
<text text-anchor="middle" x="270" y="-186.3" font-family="Times,serif" font-size="14.00">V566 (d)</text>
</g>
<!-- 37&#45;&gt;31 -->
<g id="edge2" class="edge">
<title>37&#45;&gt;31</title>
<path fill="none" stroke="black" stroke-dasharray="1,5" d="M272.66,-171.81C273.91,-163.79 275.42,-154.05 276.81,-145.07"/>
<polygon fill="black" stroke="black" points="280.29,-145.45 278.36,-135.03 273.37,-144.38 280.29,-145.45"/>
</g>
<!-- 39 -->
<g id="node5" class="node">
<title>39</title>
<ellipse fill="none" stroke="black" cx="391" cy="-190" rx="53.09" ry="18"/>
<text text-anchor="middle" x="391" y="-186.3" font-family="Times,serif" font-size="14.00">LaSM (d)</text>
</g>
<!-- 11 -->
<g id="node6" class="node">
<title>11</title>
<ellipse fill="none" stroke="blue" stroke-dasharray="5,2" cx="390" cy="-264" rx="53.89" ry="18"/>
<text text-anchor="middle" x="390" y="-260.3" font-family="Times,serif" font-size="14.00">aBase (a)</text>
</g>
<!-- 11&#45;&gt;39 -->
<g id="edge4" class="edge">
<title>11&#45;&gt;39</title>
<path fill="none" stroke="blue" d="M390.24,-245.94C390.35,-237.81 390.49,-227.88 390.62,-218.7"/>
<polygon fill="blue" stroke="blue" points="394.12,-218.49 390.76,-208.44 387.12,-218.39 394.12,-218.49"/>
</g>
<!-- 22 -->
<g id="node7" class="node">
<title>22</title>
<ellipse fill="none" stroke="blue" stroke-dasharray="5,2" cx="270" cy="-264" rx="44.39" ry="18"/>
<text text-anchor="middle" x="270" y="-260.3" font-family="Times,serif" font-size="14.00">A25 (b)</text>
</g>
<!-- 22&#45;&gt;37 -->
<g id="edge3" class="edge">
<title>22&#45;&gt;37</title>
<path fill="none" stroke="blue" stroke-dasharray="5,2" d="M270,-245.94C270,-237.81 270,-227.88 270,-218.7"/>
<polygon fill="blue" stroke="blue" points="273.5,-218.44 270,-208.44 266.5,-218.44 273.5,-218.44"/>
</g>
</g>
</svg>
