<?xml version="1.0" encoding="UTF-8" standalone="no"?>
<!DOCTYPE svg PUBLIC "-//W3C//DTD SVG 1.1//EN"
 "http://www.w3.org/Graphics/SVG/1.1/DTD/svg11.dtd">
<!-- Generated by graphviz version 2.43.0 (0)
 -->
<!-- Title: textual_flow_diagram Pages: 1 -->
<svg width="890pt" height="234pt"
 viewBox="0.00 0.00 890.00 234.00" xmlns="http://www.w3.org/2000/svg" xmlns:xlink="http://www.w3.org/1999/xlink">
<g id="graph0" class="graph" transform="scale(1 1) rotate(0) translate(4 230)">
<title>textual_flow_diagram</title>
<polygon fill="white" stroke="transparent" points="-4,4 -4,-230 886,-230 886,4 -4,4"/>
<g id="clust1" class="cluster">
<title>cluster_legend</title>
<polygon fill="none" stroke="black" points="8,-164 8,-218 194,-218 194,-164 8,-164"/>
</g>
<g id="clust2" class="cluster">
<title>cluster_plot</title>
</g>
<!-- label -->
<g id="node1" class="node">
<title>label</title>
<text text-anchor="middle" x="101" y="-194.8" font-family="Times,serif" font-size="14.00">adstag1.1.5U12&#45;14, c</text>
<text text-anchor="middle" x="101" y="-179.8" font-family="Times,serif" font-size="14.00">Con = 10</text>
</g>
<!-- 12 -->
<g id="node2" class="node">
<title>12</title>
<ellipse fill="none" stroke="black" cx="259" cy="-34" rx="49.29" ry="18"/>
<text text-anchor="middle" x="259" y="-30.3" font-family="Times,serif" font-size="14.00">A116 (c)</text>
</g>
<!-- 13 -->
<g id="node3" class="node">
<title>13</title>
<ellipse fill="none" stroke="black" cx="528" cy="-117" rx="48.19" ry="18"/>
<text text-anchor="middle" x="528" y="-113.3" font-family="Times,serif" font-size="14.00">La22 (c)</text>
</g>
<!-- 13&#45;&gt;12 -->
<g id="edge1" class="edge">
<title>13&#45;&gt;12</title>
<path fill="none" stroke="black" stroke-dasharray="5,2" d="M491.72,-105.08C443.62,-90.59 358.68,-65.02 305.8,-49.09"/>
<polygon fill="black" stroke="black" points="306.58,-45.67 296,-46.14 304.56,-52.37 306.58,-45.67"/>
</g>
<!-- 14 -->
<g id="node4" class="node">
<title>14</title>
<ellipse fill="none" stroke="black" cx="366" cy="-34" rx="39.79" ry="18"/>
<text text-anchor="middle" x="366" y="-30.3" font-family="Times,serif" font-size="14.00">Pal (c)</text>
</g>
<!-- 13&#45;&gt;14 -->
<g id="edge3" class="edge">
<title>13&#45;&gt;14</title>
<path fill="none" stroke="black" stroke-dasharray="5,2" d="M500.15,-102.08C472.64,-88.32 430.49,-67.24 400.79,-52.39"/>
<polygon fill="black" stroke="black" points="402.13,-49.15 391.62,-47.81 399,-55.41 402.13,-49.15"/>
<text text-anchor="middle" x="459.5" y="-73" font-family="Times,serif" font-size="10.00">3</text>
</g>
<!-- 15 -->
<g id="node5" class="node">
<title>15</title>
<ellipse fill="none" stroke="black" cx="473" cy="-34" rx="49.29" ry="18"/>
<text text-anchor="middle" x="473" y="-30.3" font-family="Times,serif" font-size="14.00">V571 (c)</text>
</g>
<!-- 13&#45;&gt;15 -->
<g id="edge4" class="edge">
<title>13&#45;&gt;15</title>
<path fill="none" stroke="black" stroke-dasharray="1,5" d="M516.6,-99.22C508.93,-87.92 498.68,-72.83 490.05,-60.11"/>
<polygon fill="black" stroke="black" points="492.89,-58.07 484.38,-51.76 487.1,-62 492.89,-58.07"/>
</g>
<!-- 36 -->
<g id="node6" class="node">
<title>36</title>
<ellipse fill="none" stroke="black" cx="584" cy="-34" rx="43.59" ry="18"/>
<text text-anchor="middle" x="584" y="-30.3" font-family="Times,serif" font-size="14.00">P74 (c)</text>
</g>
<!-- 13&#45;&gt;36 -->
<g id="edge5" class="edge">
<title>13&#45;&gt;36</title>
<path fill="none" stroke="black" stroke-dasharray="1,5" d="M539.6,-99.22C547.46,-87.85 557.99,-72.63 566.82,-59.86"/>
<polygon fill="black" stroke="black" points="569.8,-61.7 572.6,-51.48 564.04,-57.72 569.8,-61.7"/>
</g>
<!-- 41 -->
<g id="node7" class="node">
<title>41</title>
<ellipse fill="none" stroke="black" cx="692" cy="-34" rx="46.29" ry="18"/>
<text text-anchor="middle" x="692" y="-30.3" font-family="Times,serif" font-size="14.00">Bodl (c)</text>
</g>
<!-- 13&#45;&gt;41 -->
<g id="edge6" class="edge">
<title>13&#45;&gt;41</title>
<path fill="none" stroke="black" stroke-dasharray="5,2" d="M555.82,-102.26C583.2,-88.74 625.16,-68.01 655.27,-53.14"/>
<polygon fill="black" stroke="black" points="657.17,-56.1 664.59,-48.54 654.07,-49.83 657.17,-56.1"/>
</g>
<!-- 45 -->
<g id="node8" class="node">
<title>45</title>
<ellipse fill="none" stroke="black" cx="811" cy="-34" rx="55.49" ry="18"/>
<text text-anchor="middle" x="811" y="-30.3" font-family="Times,serif" font-size="14.00">V1639 (c)</text>
</g>
<!-- 13&#45;&gt;45 -->
<g id="edge7" class="edge">
<title>13&#45;&gt;45</title>
<path fill="none" stroke="black" stroke-dasharray="5,2" d="M565,-105.41C615.17,-91.05 704.96,-65.35 761.07,-49.29"/>
<polygon fill="black" stroke="black" points="762.14,-52.62 770.8,-46.51 760.22,-45.89 762.14,-52.62"/>
<text text-anchor="middle" x="689.5" y="-73" font-family="Times,serif" font-size="10.00">6</text>
</g>
<!-- 20 -->
<g id="node9" class="node">
<title>20</title>
<ellipse fill="none" stroke="blue" stroke-dasharray="5,2" cx="528" cy="-191" rx="44.39" ry="18"/>
<text text-anchor="middle" x="528" y="-187.3" font-family="Times,serif" font-size="14.00">A25 (b)</text>
</g>
<!-- 20&#45;&gt;13 -->
<g id="edge2" class="edge">
<title>20&#45;&gt;13</title>
<path fill="none" stroke="blue" stroke-dasharray="1,5" d="M528,-172.94C528,-164.81 528,-154.88 528,-145.7"/>
<polygon fill="blue" stroke="blue" points="531.5,-145.44 528,-135.44 524.5,-145.44 531.5,-145.44"/>
</g>
</g>
</svg>
