<?xml version="1.0" encoding="UTF-8" standalone="no"?>
<!DOCTYPE svg PUBLIC "-//W3C//DTD SVG 1.1//EN"
 "http://www.w3.org/Graphics/SVG/1.1/DTD/svg11.dtd">
<!-- Generated by graphviz version 2.43.0 (0)
 -->
<!-- Title: textual_flow_diagram Pages: 1 -->
<svg width="772pt" height="234pt"
 viewBox="0.00 0.00 772.00 234.00" xmlns="http://www.w3.org/2000/svg" xmlns:xlink="http://www.w3.org/1999/xlink">
<g id="graph0" class="graph" transform="scale(1 1) rotate(0) translate(4 230)">
<title>textual_flow_diagram</title>
<polygon fill="white" stroke="transparent" points="-4,4 -4,-230 768,-230 768,4 -4,4"/>
<g id="clust1" class="cluster">
<title>cluster_legend</title>
<polygon fill="none" stroke="black" points="8,-164 8,-218 172,-218 172,-164 8,-164"/>
</g>
<g id="clust2" class="cluster">
<title>cluster_plot</title>
</g>
<!-- label -->
<g id="node1" class="node">
<title>label</title>
<text text-anchor="middle" x="90" y="-194.8" font-family="Times,serif" font-size="14.00">adstag1.3.37U4, b</text>
<text text-anchor="middle" x="90" y="-179.8" font-family="Times,serif" font-size="14.00">Con = 5</text>
</g>
<!-- 6 -->
<g id="node2" class="node">
<title>6</title>
<ellipse fill="none" stroke="black" cx="648" cy="-117" rx="43.59" ry="18"/>
<text text-anchor="middle" x="648" y="-113.3" font-family="Times,serif" font-size="14.00">Bas (b)</text>
</g>
<!-- 7 -->
<g id="node3" class="node">
<title>7</title>
<ellipse fill="none" stroke="black" cx="238" cy="-34" rx="50.09" ry="18"/>
<text text-anchor="middle" x="238" y="-30.3" font-family="Times,serif" font-size="14.00">A116 (b)</text>
</g>
<!-- 12 -->
<g id="node4" class="node">
<title>12</title>
<ellipse fill="none" stroke="black" cx="355" cy="-34" rx="49.29" ry="18"/>
<text text-anchor="middle" x="355" y="-30.3" font-family="Times,serif" font-size="14.00">La35 (b)</text>
</g>
<!-- 28 -->
<g id="node5" class="node">
<title>28</title>
<ellipse fill="none" stroke="black" cx="476" cy="-34" rx="53.09" ry="18"/>
<text text-anchor="middle" x="476" y="-30.3" font-family="Times,serif" font-size="14.00">M111 (b)</text>
</g>
<!-- 31 -->
<g id="node6" class="node">
<title>31</title>
<ellipse fill="none" stroke="black" cx="476" cy="-117" rx="49.29" ry="18"/>
<text text-anchor="middle" x="476" y="-113.3" font-family="Times,serif" font-size="14.00">La22 (b)</text>
</g>
<!-- 31&#45;&gt;7 -->
<g id="edge2" class="edge">
<title>31&#45;&gt;7</title>
<path fill="none" stroke="black" stroke-dasharray="5,2" d="M441.14,-104.14C399.16,-89.85 328.57,-65.83 282.65,-50.19"/>
<polygon fill="black" stroke="black" points="283.55,-46.81 272.96,-46.9 281.29,-53.43 283.55,-46.81"/>
</g>
<!-- 31&#45;&gt;12 -->
<g id="edge3" class="edge">
<title>31&#45;&gt;12</title>
<path fill="none" stroke="black" stroke-dasharray="1,5" d="M453.52,-100.95C434.54,-88.25 407.16,-69.92 386.08,-55.81"/>
<polygon fill="black" stroke="black" points="388.02,-52.89 377.77,-50.24 384.13,-58.71 388.02,-52.89"/>
</g>
<!-- 31&#45;&gt;28 -->
<g id="edge4" class="edge">
<title>31&#45;&gt;28</title>
<path fill="none" stroke="black" stroke-dasharray="1,5" d="M476,-98.82C476,-88.19 476,-74.31 476,-62.2"/>
<polygon fill="black" stroke="black" points="479.5,-62.15 476,-52.15 472.5,-62.15 479.5,-62.15"/>
</g>
<!-- 33 -->
<g id="node7" class="node">
<title>33</title>
<ellipse fill="none" stroke="black" cx="595" cy="-34" rx="47.39" ry="18"/>
<text text-anchor="middle" x="595" y="-30.3" font-family="Times,serif" font-size="14.00">Bodl (b)</text>
</g>
<!-- 31&#45;&gt;33 -->
<g id="edge6" class="edge">
<title>31&#45;&gt;33</title>
<path fill="none" stroke="black" stroke-dasharray="5,2" d="M498.38,-100.76C517,-88.09 543.69,-69.93 564.3,-55.9"/>
<polygon fill="black" stroke="black" points="566.42,-58.69 572.72,-50.17 562.48,-52.9 566.42,-58.69"/>
</g>
<!-- 35 -->
<g id="node8" class="node">
<title>35</title>
<ellipse fill="none" stroke="black" cx="704" cy="-34" rx="43.59" ry="18"/>
<text text-anchor="middle" x="704" y="-30.3" font-family="Times,serif" font-size="14.00">La2 (b)</text>
</g>
<!-- 31&#45;&gt;35 -->
<g id="edge7" class="edge">
<title>31&#45;&gt;35</title>
<path fill="none" stroke="black" d="M510.13,-103.87C550.79,-89.43 618.67,-65.31 662.37,-49.79"/>
<polygon fill="black" stroke="black" points="663.6,-53.07 671.85,-46.42 661.25,-46.47 663.6,-53.07"/>
<text text-anchor="middle" x="606.5" y="-73" font-family="Times,serif" font-size="10.00">2</text>
</g>
<!-- 30 -->
<g id="node9" class="node">
<title>30</title>
<ellipse fill="none" stroke="blue" stroke-dasharray="5,2" cx="648" cy="-191" rx="55.79" ry="18"/>
<text text-anchor="middle" x="648" y="-187.3" font-family="Times,serif" font-size="14.00">V1897 (a)</text>
</g>
<!-- 30&#45;&gt;6 -->
<g id="edge1" class="edge">
<title>30&#45;&gt;6</title>
<path fill="none" stroke="blue" d="M648,-172.94C648,-164.81 648,-154.88 648,-145.7"/>
<polygon fill="blue" stroke="blue" points="651.5,-145.44 648,-135.44 644.5,-145.44 651.5,-145.44"/>
</g>
<!-- 37 -->
<g id="node10" class="node">
<title>37</title>
<ellipse fill="none" stroke="blue" stroke-dasharray="5,2" cx="476" cy="-191" rx="53.89" ry="18"/>
<text text-anchor="middle" x="476" y="-187.3" font-family="Times,serif" font-size="14.00">aBase (a)</text>
</g>
<!-- 37&#45;&gt;31 -->
<g id="edge5" class="edge">
<title>37&#45;&gt;31</title>
<path fill="none" stroke="blue" stroke-dasharray="5,2" d="M476,-172.94C476,-164.81 476,-154.88 476,-145.7"/>
<polygon fill="blue" stroke="blue" points="479.5,-145.44 476,-135.44 472.5,-145.44 479.5,-145.44"/>
</g>
</g>
</svg>
