<?xml version="1.0" encoding="UTF-8" standalone="no"?>
<!DOCTYPE svg PUBLIC "-//W3C//DTD SVG 1.1//EN"
 "http://www.w3.org/Graphics/SVG/1.1/DTD/svg11.dtd">
<!-- Generated by graphviz version 2.43.0 (0)
 -->
<!-- Title: textual_flow_diagram Pages: 1 -->
<svg width="432pt" height="150pt"
 viewBox="0.00 0.00 432.00 150.00" xmlns="http://www.w3.org/2000/svg" xmlns:xlink="http://www.w3.org/1999/xlink">
<g id="graph0" class="graph" transform="scale(1 1) rotate(0) translate(4 146)">
<title>textual_flow_diagram</title>
<polygon fill="white" stroke="transparent" points="-4,4 -4,-146 428,-146 428,4 -4,4"/>
<g id="clust1" class="cluster">
<title>cluster_legend</title>
<polygon fill="none" stroke="black" points="8,-80 8,-134 172,-134 172,-80 8,-80"/>
</g>
<g id="clust2" class="cluster">
<title>cluster_plot</title>
</g>
<!-- label -->
<g id="node1" class="node">
<title>label</title>
<text text-anchor="middle" x="90" y="-110.8" font-family="Times,serif" font-size="14.00">adstag1.2.24U4, c</text>
<text text-anchor="middle" x="90" y="-95.8" font-family="Times,serif" font-size="14.00">Con = 1</text>
</g>
<!-- 23 -->
<g id="node2" class="node">
<title>23</title>
<ellipse fill="none" stroke="black" cx="354" cy="-34" rx="50.09" ry="18"/>
<text text-anchor="middle" x="354" y="-30.3" font-family="Times,serif" font-size="14.00">Neap (c)</text>
</g>
<!-- 40 -->
<g id="node3" class="node">
<title>40</title>
<ellipse fill="none" stroke="black" cx="237" cy="-34" rx="49.29" ry="18"/>
<text text-anchor="middle" x="237" y="-30.3" font-family="Times,serif" font-size="14.00">V569 (c)</text>
</g>
<!-- 11 -->
<g id="node4" class="node">
<title>11</title>
<ellipse fill="none" stroke="blue" stroke-dasharray="5,2" cx="354" cy="-107" rx="53.89" ry="18"/>
<text text-anchor="middle" x="354" y="-103.3" font-family="Times,serif" font-size="14.00">aBase (a)</text>
</g>
<!-- 11&#45;&gt;23 -->
<g id="edge1" class="edge">
<title>11&#45;&gt;23</title>
<path fill="none" stroke="blue" stroke-width="2" d="M354,-88.81C354,-80.79 354,-71.05 354,-62.07"/>
<polygon fill="blue" stroke="blue" stroke-width="2" points="357.5,-62.03 354,-52.03 350.5,-62.03 357.5,-62.03"/>
</g>
<!-- 14 -->
<g id="node5" class="node">
<title>14</title>
<ellipse fill="none" stroke="blue" stroke-dasharray="5,2" cx="235" cy="-107" rx="46.59" ry="18"/>
<text text-anchor="middle" x="235" y="-103.3" font-family="Times,serif" font-size="14.00">Taur (a)</text>
</g>
<!-- 14&#45;&gt;40 -->
<g id="edge2" class="edge">
<title>14&#45;&gt;40</title>
<path fill="none" stroke="blue" stroke-dasharray="5,2" d="M235.48,-88.81C235.71,-80.79 235.98,-71.05 236.24,-62.07"/>
<polygon fill="blue" stroke="blue" points="239.74,-62.12 236.52,-52.03 232.74,-61.93 239.74,-62.12"/>
</g>
</g>
</svg>
