<?xml version="1.0" encoding="UTF-8" standalone="no"?>
<!DOCTYPE svg PUBLIC "-//W3C//DTD SVG 1.1//EN"
 "http://www.w3.org/Graphics/SVG/1.1/DTD/svg11.dtd">
<!-- Generated by graphviz version 2.43.0 (0)
 -->
<!-- Title: textual_flow_diagram Pages: 1 -->
<svg width="2082pt" height="599pt"
 viewBox="0.00 0.00 2082.00 599.00" xmlns="http://www.w3.org/2000/svg" xmlns:xlink="http://www.w3.org/1999/xlink">
<g id="graph0" class="graph" transform="scale(1 1) rotate(0) translate(4 595)">
<title>textual_flow_diagram</title>
<polygon fill="white" stroke="transparent" points="-4,4 -4,-595 2078,-595 2078,4 -4,4"/>
<g id="clust1" class="cluster">
<title>cluster_legend</title>
<polygon fill="none" stroke="black" points="8,-529 8,-583 194,-583 194,-529 8,-529"/>
</g>
<g id="clust2" class="cluster">
<title>cluster_plot</title>
</g>
<!-- label -->
<g id="node1" class="node">
<title>label</title>
<text text-anchor="middle" x="101" y="-559.8" font-family="Times,serif" font-size="14.00">adstag1.3.20U6&#45;10, a</text>
<text text-anchor="middle" x="101" y="-544.8" font-family="Times,serif" font-size="14.00">Con = 5</text>
</g>
<!-- 0 -->
<g id="node2" class="node">
<title>0</title>
<ellipse fill="none" stroke="black" cx="1456" cy="-409" rx="44.39" ry="18"/>
<text text-anchor="middle" x="1456" y="-405.3" font-family="Times,serif" font-size="14.00">P01 (a)</text>
</g>
<!-- 1 -->
<g id="node3" class="node">
<title>1</title>
<ellipse fill="none" stroke="black" cx="468" cy="-482" rx="55.79" ry="18"/>
<text text-anchor="middle" x="468" y="-478.3" font-family="Times,serif" font-size="14.00">V2036 (a)</text>
</g>
<!-- 2 -->
<g id="node4" class="node">
<title>2</title>
<ellipse fill="none" stroke="black" cx="2002" cy="-253" rx="46.59" ry="18"/>
<text text-anchor="middle" x="2002" y="-249.3" font-family="Times,serif" font-size="14.00">Taur (a)</text>
</g>
<!-- 8 -->
<g id="node9" class="node">
<title>8</title>
<ellipse fill="none" stroke="black" cx="1888" cy="-180" rx="50.09" ry="18"/>
<text text-anchor="middle" x="1888" y="-176.3" font-family="Times,serif" font-size="14.00">V569 (a)</text>
</g>
<!-- 2&#45;&gt;8 -->
<g id="edge8" class="edge">
<title>2&#45;&gt;8</title>
<path fill="none" stroke="black" stroke-dasharray="5,2" d="M1978.38,-237.29C1961.68,-226.89 1939.07,-212.81 1920.65,-201.33"/>
<polygon fill="black" stroke="black" points="1922.32,-198.25 1911.98,-195.94 1918.62,-204.19 1922.32,-198.25"/>
</g>
<!-- 40 -->
<g id="node36" class="node">
<title>40</title>
<ellipse fill="none" stroke="black" cx="2006" cy="-180" rx="50.09" ry="18"/>
<text text-anchor="middle" x="2006" y="-176.3" font-family="Times,serif" font-size="14.00">Marc (a)</text>
</g>
<!-- 2&#45;&gt;40 -->
<g id="edge34" class="edge">
<title>2&#45;&gt;40</title>
<path fill="none" stroke="black" stroke-dasharray="1,5" d="M2002.97,-234.81C2003.42,-226.79 2003.97,-217.05 2004.47,-208.07"/>
<polygon fill="black" stroke="black" points="2007.97,-208.21 2005.04,-198.03 2000.98,-207.82 2007.97,-208.21"/>
</g>
<!-- 3 -->
<g id="node5" class="node">
<title>3</title>
<ellipse fill="none" stroke="black" cx="1562" cy="-409" rx="44.39" ry="18"/>
<text text-anchor="middle" x="1562" y="-405.3" font-family="Times,serif" font-size="14.00">S32 (a)</text>
</g>
<!-- 4 -->
<g id="node6" class="node">
<title>4</title>
<ellipse fill="none" stroke="black" cx="650" cy="-409" rx="50.09" ry="18"/>
<text text-anchor="middle" x="650" y="-405.3" font-family="Times,serif" font-size="14.00">V565 (a)</text>
</g>
<!-- 5 -->
<g id="node7" class="node">
<title>5</title>
<ellipse fill="none" stroke="black" cx="767" cy="-409" rx="48.99" ry="18"/>
<text text-anchor="middle" x="767" y="-405.3" font-family="Times,serif" font-size="14.00">La35 (a)</text>
</g>
<!-- 7 -->
<g id="node8" class="node">
<title>7</title>
<ellipse fill="none" stroke="black" cx="592" cy="-482" rx="50.09" ry="18"/>
<text text-anchor="middle" x="592" y="-478.3" font-family="Times,serif" font-size="14.00">V560 (a)</text>
</g>
<!-- 35 -->
<g id="node31" class="node">
<title>35</title>
<ellipse fill="none" stroke="black" cx="266" cy="-409" rx="55.79" ry="18"/>
<text text-anchor="middle" x="266" y="-405.3" font-family="Times,serif" font-size="14.00">V1920 (a)</text>
</g>
<!-- 7&#45;&gt;35 -->
<g id="edge29" class="edge">
<title>7&#45;&gt;35</title>
<path fill="none" stroke="black" stroke-dasharray="5,2" d="M555.01,-469.73C547.75,-467.69 540.16,-465.68 533,-464 444.15,-443.12 420.1,-446.78 331,-427 326.4,-425.98 321.64,-424.86 316.87,-423.69"/>
<polygon fill="black" stroke="black" points="317.7,-420.29 307.15,-421.26 316,-427.08 317.7,-420.29"/>
</g>
<!-- 9 -->
<g id="node10" class="node">
<title>9</title>
<ellipse fill="none" stroke="black" cx="1884" cy="-409" rx="44.39" ry="18"/>
<text text-anchor="middle" x="1884" y="-405.3" font-family="Times,serif" font-size="14.00">B39 (a)</text>
</g>
<!-- 10 -->
<g id="node11" class="node">
<title>10</title>
<ellipse fill="none" stroke="black" cx="1497" cy="-556" rx="53.89" ry="18"/>
<text text-anchor="middle" x="1497" y="-552.3" font-family="Times,serif" font-size="14.00">aBase (a)</text>
</g>
<!-- 10&#45;&gt;1 -->
<g id="edge2" class="edge">
<title>10&#45;&gt;1</title>
<path fill="none" stroke="black" d="M1444.06,-552.05C1334.74,-545.94 1076.09,-531.45 859,-519 714.1,-510.69 676.35,-522.69 533,-500 528.02,-499.21 522.86,-498.2 517.73,-497.07"/>
<polygon fill="black" stroke="black" points="518.49,-493.66 507.96,-494.77 516.89,-500.47 518.49,-493.66"/>
</g>
<!-- 10&#45;&gt;7 -->
<g id="edge7" class="edge">
<title>10&#45;&gt;7</title>
<path fill="none" stroke="black" stroke-width="2" d="M1444.25,-552.23C1271.42,-543.08 728.84,-513.58 651,-500 646.63,-499.24 642.12,-498.27 637.63,-497.19"/>
<polygon fill="black" stroke="black" stroke-width="2" points="638.46,-493.79 627.91,-494.68 636.71,-500.57 638.46,-493.79"/>
</g>
<!-- 22 -->
<g id="node20" class="node">
<title>22</title>
<ellipse fill="none" stroke="black" cx="705" cy="-482" rx="44.69" ry="18"/>
<text text-anchor="middle" x="705" y="-478.3" font-family="Times,serif" font-size="14.00">Nan (a)</text>
</g>
<!-- 10&#45;&gt;22 -->
<g id="edge18" class="edge">
<title>10&#45;&gt;22</title>
<path fill="none" stroke="black" d="M1447.84,-548.39C1386.94,-540.37 1279.97,-526.83 1188,-518 1032.63,-503.08 848.6,-491.39 759.18,-486.1"/>
<polygon fill="black" stroke="black" points="759.2,-482.59 749.01,-485.5 758.79,-489.58 759.2,-482.59"/>
</g>
<!-- 24 -->
<g id="node22" class="node">
<title>24</title>
<ellipse fill="none" stroke="black" cx="1052" cy="-482" rx="48.99" ry="18"/>
<text text-anchor="middle" x="1052" y="-478.3" font-family="Times,serif" font-size="14.00">La22 (a)</text>
</g>
<!-- 10&#45;&gt;24 -->
<g id="edge20" class="edge">
<title>10&#45;&gt;24</title>
<path fill="none" stroke="black" stroke-dasharray="5,2" d="M1459.26,-542.96C1432.39,-534.81 1395.29,-524.4 1362,-518 1274.84,-501.24 1172.24,-491.6 1109.68,-486.82"/>
<polygon fill="black" stroke="black" points="1109.85,-483.33 1099.61,-486.07 1109.32,-490.31 1109.85,-483.33"/>
</g>
<!-- 25 -->
<g id="node23" class="node">
<title>25</title>
<ellipse fill="none" stroke="black" cx="1497" cy="-482" rx="44.39" ry="18"/>
<text text-anchor="middle" x="1497" y="-478.3" font-family="Times,serif" font-size="14.00">A25 (a)</text>
</g>
<!-- 10&#45;&gt;25 -->
<g id="edge21" class="edge">
<title>10&#45;&gt;25</title>
<path fill="none" stroke="black" stroke-dasharray="5,2" d="M1497,-537.94C1497,-529.81 1497,-519.88 1497,-510.7"/>
<polygon fill="black" stroke="black" points="1500.5,-510.44 1497,-500.44 1493.5,-510.44 1500.5,-510.44"/>
</g>
<!-- 28 -->
<g id="node25" class="node">
<title>28</title>
<ellipse fill="none" stroke="black" cx="1609" cy="-482" rx="50.09" ry="18"/>
<text text-anchor="middle" x="1609" y="-478.3" font-family="Times,serif" font-size="14.00">S249 (a)</text>
</g>
<!-- 10&#45;&gt;28 -->
<g id="edge23" class="edge">
<title>10&#45;&gt;28</title>
<path fill="none" stroke="black" d="M1520.75,-539.73C1537.2,-529.16 1559.27,-514.97 1577.22,-503.43"/>
<polygon fill="black" stroke="black" points="1579.15,-506.35 1585.67,-498 1575.36,-500.46 1579.15,-506.35"/>
</g>
<!-- 33 -->
<g id="node29" class="node">
<title>33</title>
<ellipse fill="none" stroke="black" cx="1730" cy="-482" rx="52.79" ry="18"/>
<text text-anchor="middle" x="1730" y="-478.3" font-family="Times,serif" font-size="14.00">LaSM (a)</text>
</g>
<!-- 10&#45;&gt;33 -->
<g id="edge27" class="edge">
<title>10&#45;&gt;33</title>
<path fill="none" stroke="black" d="M1535.21,-543.19C1575.46,-530.76 1638.9,-511.15 1682.38,-497.72"/>
<polygon fill="black" stroke="black" points="1683.63,-500.99 1692.15,-494.7 1681.56,-494.3 1683.63,-500.99"/>
</g>
<!-- 36 -->
<g id="node32" class="node">
<title>36</title>
<ellipse fill="none" stroke="black" cx="1851" cy="-482" rx="50.09" ry="18"/>
<text text-anchor="middle" x="1851" y="-478.3" font-family="Times,serif" font-size="14.00">Neap (a)</text>
</g>
<!-- 10&#45;&gt;36 -->
<g id="edge30" class="edge">
<title>10&#45;&gt;36</title>
<path fill="none" stroke="black" stroke-width="2" d="M1544.81,-547.54C1603.41,-538.06 1705.56,-520.46 1792,-500 1796.03,-499.05 1800.19,-497.99 1804.35,-496.89"/>
<polygon fill="black" stroke="black" stroke-width="2" points="1805.28,-500.26 1814.01,-494.25 1803.44,-493.51 1805.28,-500.26"/>
</g>
<!-- 42 -->
<g id="node37" class="node">
<title>42</title>
<ellipse fill="none" stroke="black" cx="1969" cy="-482" rx="50.09" ry="18"/>
<text text-anchor="middle" x="1969" y="-478.3" font-family="Times,serif" font-size="14.00">Patm (a)</text>
</g>
<!-- 10&#45;&gt;42 -->
<g id="edge35" class="edge">
<title>10&#45;&gt;42</title>
<path fill="none" stroke="black" d="M1548.6,-550.61C1627.19,-543.36 1781.32,-526.95 1910,-500 1914.11,-499.14 1918.35,-498.14 1922.58,-497.07"/>
<polygon fill="black" stroke="black" points="1923.62,-500.41 1932.39,-494.46 1921.82,-493.65 1923.62,-500.41"/>
</g>
<!-- 11 -->
<g id="node12" class="node">
<title>11</title>
<ellipse fill="none" stroke="black" cx="881" cy="-409" rx="46.59" ry="18"/>
<text text-anchor="middle" x="881" y="-405.3" font-family="Times,serif" font-size="14.00">Bodl (a)</text>
</g>
<!-- 12 -->
<g id="node13" class="node">
<title>12</title>
<ellipse fill="none" stroke="black" cx="2002" cy="-409" rx="55.79" ry="18"/>
<text text-anchor="middle" x="2002" y="-405.3" font-family="Times,serif" font-size="14.00">V1629 (a)</text>
</g>
<!-- 30 -->
<g id="node27" class="node">
<title>30</title>
<ellipse fill="none" stroke="black" cx="2002" cy="-336" rx="50.09" ry="18"/>
<text text-anchor="middle" x="2002" y="-332.3" font-family="Times,serif" font-size="14.00">V536 (a)</text>
</g>
<!-- 12&#45;&gt;30 -->
<g id="edge25" class="edge">
<title>12&#45;&gt;30</title>
<path fill="none" stroke="black" stroke-dasharray="5,2" d="M2002,-390.81C2002,-382.79 2002,-373.05 2002,-364.07"/>
<polygon fill="black" stroke="black" points="2005.5,-364.03 2002,-354.03 1998.5,-364.03 2005.5,-364.03"/>
</g>
<!-- 13 -->
<g id="node14" class="node">
<title>13</title>
<ellipse fill="none" stroke="black" cx="1674" cy="-409" rx="50.09" ry="18"/>
<text text-anchor="middle" x="1674" y="-405.3" font-family="Times,serif" font-size="14.00">V566 (a)</text>
</g>
<!-- 34 -->
<g id="node30" class="node">
<title>34</title>
<ellipse fill="none" stroke="black" cx="1674" cy="-336" rx="55.79" ry="18"/>
<text text-anchor="middle" x="1674" y="-332.3" font-family="Times,serif" font-size="14.00">V1639 (a)</text>
</g>
<!-- 13&#45;&gt;34 -->
<g id="edge28" class="edge">
<title>13&#45;&gt;34</title>
<path fill="none" stroke="black" stroke-dasharray="1,5" d="M1674,-390.81C1674,-382.79 1674,-373.05 1674,-364.07"/>
<polygon fill="black" stroke="black" points="1677.5,-364.03 1674,-354.03 1670.5,-364.03 1677.5,-364.03"/>
</g>
<!-- 14 -->
<g id="node15" class="node">
<title>14</title>
<ellipse fill="none" stroke="black" cx="996" cy="-409" rx="50.09" ry="18"/>
<text text-anchor="middle" x="996" y="-405.3" font-family="Times,serif" font-size="14.00">A116 (a)</text>
</g>
<!-- 16 -->
<g id="node16" class="node">
<title>16</title>
<ellipse fill="none" stroke="black" cx="1223" cy="-336" rx="50.09" ry="18"/>
<text text-anchor="middle" x="1223" y="-332.3" font-family="Times,serif" font-size="14.00">A336 (a)</text>
</g>
<!-- 17 -->
<g id="node17" class="node">
<title>17</title>
<ellipse fill="none" stroke="black" cx="1782" cy="-409" rx="40.09" ry="18"/>
<text text-anchor="middle" x="1782" y="-405.3" font-family="Times,serif" font-size="14.00">Pal (a)</text>
</g>
<!-- 19 -->
<g id="node18" class="node">
<title>19</title>
<ellipse fill="none" stroke="black" cx="2006" cy="-107" rx="46.29" ry="18"/>
<text text-anchor="middle" x="2006" y="-103.3" font-family="Times,serif" font-size="14.00">Mon (a)</text>
</g>
<!-- 31 -->
<g id="node28" class="node">
<title>31</title>
<ellipse fill="none" stroke="black" cx="2006" cy="-34" rx="40.89" ry="18"/>
<text text-anchor="middle" x="2006" y="-30.3" font-family="Times,serif" font-size="14.00">Sin (a)</text>
</g>
<!-- 19&#45;&gt;31 -->
<g id="edge26" class="edge">
<title>19&#45;&gt;31</title>
<path fill="none" stroke="black" stroke-dasharray="1,5" d="M2006,-88.81C2006,-80.79 2006,-71.05 2006,-62.07"/>
<polygon fill="black" stroke="black" points="2009.5,-62.03 2006,-52.03 2002.5,-62.03 2009.5,-62.03"/>
</g>
<!-- 20 -->
<g id="node19" class="node">
<title>20</title>
<ellipse fill="none" stroke="black" cx="1108" cy="-409" rx="44.39" ry="18"/>
<text text-anchor="middle" x="1108" y="-405.3" font-family="Times,serif" font-size="14.00">P74 (a)</text>
</g>
<!-- 37 -->
<g id="node33" class="node">
<title>37</title>
<ellipse fill="none" stroke="black" cx="396" cy="-409" rx="55.79" ry="18"/>
<text text-anchor="middle" x="396" y="-405.3" font-family="Times,serif" font-size="14.00">V2250 (a)</text>
</g>
<!-- 22&#45;&gt;37 -->
<g id="edge31" class="edge">
<title>22&#45;&gt;37</title>
<path fill="none" stroke="black" stroke-dasharray="5,2" d="M671.75,-469.89C664.93,-467.79 657.76,-465.72 651,-464 567.62,-442.83 544.88,-446.12 461,-427 456.41,-425.95 451.65,-424.81 446.89,-423.64"/>
<polygon fill="black" stroke="black" points="447.72,-420.24 437.17,-421.19 446.01,-427.03 447.72,-420.24"/>
</g>
<!-- 39 -->
<g id="node35" class="node">
<title>39</title>
<ellipse fill="none" stroke="black" cx="526" cy="-409" rx="55.79" ry="18"/>
<text text-anchor="middle" x="526" y="-405.3" font-family="Times,serif" font-size="14.00">V1897 (a)</text>
</g>
<!-- 22&#45;&gt;39 -->
<g id="edge33" class="edge">
<title>22&#45;&gt;39</title>
<path fill="none" stroke="black" stroke-dasharray="1,5" d="M678.25,-467.41C663.84,-460.32 645.64,-451.74 629,-445 611.59,-437.94 592.16,-431.09 574.9,-425.34"/>
<polygon fill="black" stroke="black" points="575.62,-421.89 565.03,-422.09 573.43,-428.54 575.62,-421.89"/>
</g>
<!-- 23 -->
<g id="node21" class="node">
<title>23</title>
<ellipse fill="none" stroke="black" cx="475" cy="-336" rx="42.79" ry="18"/>
<text text-anchor="middle" x="475" y="-332.3" font-family="Times,serif" font-size="14.00">Bas (a)</text>
</g>
<!-- 24&#45;&gt;4 -->
<g id="edge5" class="edge">
<title>24&#45;&gt;4</title>
<path fill="none" stroke="black" stroke-dasharray="5,2" d="M1006.17,-475.63C940.07,-467.46 814.34,-450.37 709,-427 704.9,-426.09 700.67,-425.06 696.44,-423.96"/>
<polygon fill="black" stroke="black" points="697.21,-420.55 686.64,-421.32 695.39,-427.31 697.21,-420.55"/>
</g>
<!-- 24&#45;&gt;5 -->
<g id="edge6" class="edge">
<title>24&#45;&gt;5</title>
<path fill="none" stroke="black" stroke-dasharray="1,5" d="M1011.25,-471.97C965.69,-461.72 889.8,-444.19 825,-427 821.17,-425.98 817.21,-424.9 813.24,-423.79"/>
<polygon fill="black" stroke="black" points="814,-420.36 803.43,-420.99 812.09,-427.1 814,-420.36"/>
</g>
<!-- 24&#45;&gt;11 -->
<g id="edge10" class="edge">
<title>24&#45;&gt;11</title>
<path fill="none" stroke="black" stroke-dasharray="5,2" d="M1020.64,-467.98C992.62,-456.35 951.43,-439.24 921.05,-426.63"/>
<polygon fill="black" stroke="black" points="922.17,-423.3 911.59,-422.7 919.48,-429.77 922.17,-423.3"/>
</g>
<!-- 24&#45;&gt;14 -->
<g id="edge13" class="edge">
<title>24&#45;&gt;14</title>
<path fill="none" stroke="black" stroke-dasharray="5,2" d="M1039.01,-464.53C1032.04,-455.7 1023.32,-444.63 1015.55,-434.78"/>
<polygon fill="black" stroke="black" points="1018.25,-432.56 1009.31,-426.87 1012.75,-436.89 1018.25,-432.56"/>
</g>
<!-- 24&#45;&gt;20 -->
<g id="edge17" class="edge">
<title>24&#45;&gt;20</title>
<path fill="none" stroke="black" stroke-dasharray="1,5" d="M1064.99,-464.53C1072.06,-455.57 1080.94,-444.31 1088.79,-434.36"/>
<polygon fill="black" stroke="black" points="1091.64,-436.4 1095.08,-426.38 1086.14,-432.06 1091.64,-436.4"/>
</g>
<!-- 29 -->
<g id="node26" class="node">
<title>29</title>
<ellipse fill="none" stroke="black" cx="1223" cy="-409" rx="52.79" ry="18"/>
<text text-anchor="middle" x="1223" y="-405.3" font-family="Times,serif" font-size="14.00">M111 (a)</text>
</g>
<!-- 24&#45;&gt;29 -->
<g id="edge24" class="edge">
<title>24&#45;&gt;29</title>
<path fill="none" stroke="black" stroke-dasharray="1,5" d="M1083.36,-467.98C1110.94,-456.53 1151.29,-439.77 1181.53,-427.22"/>
<polygon fill="black" stroke="black" points="1183.07,-430.37 1190.96,-423.3 1180.39,-423.9 1183.07,-430.37"/>
</g>
<!-- 38 -->
<g id="node34" class="node">
<title>38</title>
<ellipse fill="none" stroke="black" cx="1344" cy="-409" rx="50.09" ry="18"/>
<text text-anchor="middle" x="1344" y="-405.3" font-family="Times,serif" font-size="14.00">V571 (a)</text>
</g>
<!-- 24&#45;&gt;38 -->
<g id="edge32" class="edge">
<title>24&#45;&gt;38</title>
<path fill="none" stroke="black" stroke-dasharray="1,5" d="M1092.99,-472.19C1139.65,-462 1218.08,-444.38 1285,-427 1288.84,-426 1292.8,-424.94 1296.78,-423.84"/>
<polygon fill="black" stroke="black" points="1297.94,-427.15 1306.63,-421.09 1296.05,-420.41 1297.94,-427.15"/>
</g>
<!-- 25&#45;&gt;0 -->
<g id="edge1" class="edge">
<title>25&#45;&gt;0</title>
<path fill="none" stroke="black" stroke-dasharray="5,2" d="M1487.28,-464.17C1482.33,-455.6 1476.2,-444.99 1470.69,-435.44"/>
<polygon fill="black" stroke="black" points="1473.68,-433.61 1465.65,-426.71 1467.62,-437.12 1473.68,-433.61"/>
</g>
<!-- 25&#45;&gt;3 -->
<g id="edge4" class="edge">
<title>25&#45;&gt;3</title>
<path fill="none" stroke="black" stroke-dasharray="5,2" d="M1511.75,-464.89C1520.23,-455.63 1531.03,-443.83 1540.44,-433.55"/>
<polygon fill="black" stroke="black" points="1543.14,-435.79 1547.31,-426.05 1537.97,-431.06 1543.14,-435.79"/>
</g>
<!-- 25&#45;&gt;13 -->
<g id="edge12" class="edge">
<title>25&#45;&gt;13</title>
<path fill="none" stroke="black" stroke-dasharray="5,2" d="M1527.43,-468.79C1556.36,-457.19 1600.12,-439.64 1632.29,-426.73"/>
<polygon fill="black" stroke="black" points="1633.9,-429.86 1641.88,-422.88 1631.29,-423.36 1633.9,-429.86"/>
</g>
<!-- 25&#45;&gt;17 -->
<g id="edge15" class="edge">
<title>25&#45;&gt;17</title>
<path fill="none" stroke="black" stroke-dasharray="5,2" d="M1529.91,-469.82C1536.53,-467.75 1543.45,-465.71 1550,-464 1630.3,-443.07 1652.96,-448.87 1733,-427 1735.99,-426.18 1739.06,-425.28 1742.13,-424.33"/>
<polygon fill="black" stroke="black" points="1743.45,-427.58 1751.88,-421.16 1741.29,-420.92 1743.45,-427.58"/>
</g>
<!-- 27 -->
<g id="node24" class="node">
<title>27</title>
<ellipse fill="none" stroke="black" cx="577" cy="-336" rx="41.69" ry="18"/>
<text text-anchor="middle" x="577" y="-332.3" font-family="Times,serif" font-size="14.00">Est (a)</text>
</g>
<!-- 29&#45;&gt;16 -->
<g id="edge14" class="edge">
<title>29&#45;&gt;16</title>
<path fill="none" stroke="black" stroke-dasharray="5,2" d="M1223,-390.81C1223,-382.79 1223,-373.05 1223,-364.07"/>
<polygon fill="black" stroke="black" points="1226.5,-364.03 1223,-354.03 1219.5,-364.03 1226.5,-364.03"/>
</g>
<!-- 30&#45;&gt;2 -->
<g id="edge3" class="edge">
<title>30&#45;&gt;2</title>
<path fill="none" stroke="black" stroke-dasharray="1,5" d="M2002,-317.82C2002,-307.19 2002,-293.31 2002,-281.2"/>
<polygon fill="black" stroke="black" points="2005.5,-281.15 2002,-271.15 1998.5,-281.15 2005.5,-281.15"/>
<text text-anchor="middle" x="2005.5" y="-292" font-family="Times,serif" font-size="10.00">2</text>
</g>
<!-- 33&#45;&gt;9 -->
<g id="edge9" class="edge">
<title>33&#45;&gt;9</title>
<path fill="none" stroke="black" stroke-dasharray="5,2" d="M1760.06,-467.14C1784.77,-455.75 1819.92,-439.55 1846.47,-427.3"/>
<polygon fill="black" stroke="black" points="1848.22,-430.35 1855.83,-422.99 1845.29,-423.99 1848.22,-430.35"/>
</g>
<!-- 36&#45;&gt;12 -->
<g id="edge11" class="edge">
<title>36&#45;&gt;12</title>
<path fill="none" stroke="black" stroke-dasharray="1,5" d="M1880.11,-467.31C1903.55,-456.29 1936.71,-440.7 1962.53,-428.56"/>
<polygon fill="black" stroke="black" points="1964.12,-431.68 1971.68,-424.26 1961.14,-425.34 1964.12,-431.68"/>
</g>
<!-- 39&#45;&gt;23 -->
<g id="edge19" class="edge">
<title>39&#45;&gt;23</title>
<path fill="none" stroke="black" d="M513.91,-391.17C507.63,-382.42 499.82,-371.55 492.85,-361.85"/>
<polygon fill="black" stroke="black" points="495.68,-359.79 487,-353.71 489.99,-363.87 495.68,-359.79"/>
</g>
<!-- 39&#45;&gt;27 -->
<g id="edge22" class="edge">
<title>39&#45;&gt;27</title>
<path fill="none" stroke="black" stroke-dasharray="1,5" d="M538.09,-391.17C544.37,-382.42 552.18,-371.55 559.15,-361.85"/>
<polygon fill="black" stroke="black" points="562.01,-363.87 565,-353.71 556.32,-359.79 562.01,-363.87"/>
</g>
<!-- 40&#45;&gt;19 -->
<g id="edge16" class="edge">
<title>40&#45;&gt;19</title>
<path fill="none" stroke="black" stroke-dasharray="1,5" d="M2006,-161.81C2006,-153.79 2006,-144.05 2006,-135.07"/>
<polygon fill="black" stroke="black" points="2009.5,-135.03 2006,-125.03 2002.5,-135.03 2009.5,-135.03"/>
</g>
</g>
</svg>
