<?xml version="1.0" encoding="UTF-8" standalone="no"?>
<!DOCTYPE svg PUBLIC "-//W3C//DTD SVG 1.1//EN"
 "http://www.w3.org/Graphics/SVG/1.1/DTD/svg11.dtd">
<!-- Generated by graphviz version 2.43.0 (0)
 -->
<!-- Title: textual_flow_diagram Pages: 1 -->
<svg width="1478pt" height="234pt"
 viewBox="0.00 0.00 1478.00 234.00" xmlns="http://www.w3.org/2000/svg" xmlns:xlink="http://www.w3.org/1999/xlink">
<g id="graph0" class="graph" transform="scale(1 1) rotate(0) translate(4 230)">
<title>textual_flow_diagram</title>
<polygon fill="white" stroke="transparent" points="-4,4 -4,-230 1474,-230 1474,4 -4,4"/>
<g id="clust1" class="cluster">
<title>cluster_legend</title>
<polygon fill="none" stroke="black" points="8,-164 8,-218 182,-218 182,-164 8,-164"/>
</g>
<g id="clust2" class="cluster">
<title>cluster_plot</title>
</g>
<!-- label -->
<g id="node1" class="node">
<title>label</title>
<text text-anchor="middle" x="95" y="-194.8" font-family="Times,serif" font-size="14.00">adstag1.3.47U41, a</text>
<text text-anchor="middle" x="95" y="-179.8" font-family="Times,serif" font-size="14.00">Con = 3</text>
</g>
<!-- 0 -->
<g id="node2" class="node">
<title>0</title>
<ellipse fill="none" stroke="black" cx="693" cy="-34" rx="44.39" ry="18"/>
<text text-anchor="middle" x="693" y="-30.3" font-family="Times,serif" font-size="14.00">P74 (a)</text>
</g>
<!-- 1 -->
<g id="node3" class="node">
<title>1</title>
<ellipse fill="none" stroke="black" cx="254" cy="-107" rx="55.79" ry="18"/>
<text text-anchor="middle" x="254" y="-103.3" font-family="Times,serif" font-size="14.00">V2036 (a)</text>
</g>
<!-- 2 -->
<g id="node4" class="node">
<title>2</title>
<ellipse fill="none" stroke="black" cx="818" cy="-191" rx="53.89" ry="18"/>
<text text-anchor="middle" x="818" y="-187.3" font-family="Times,serif" font-size="14.00">aBase (a)</text>
</g>
<!-- 2&#45;&gt;1 -->
<g id="edge2" class="edge">
<title>2&#45;&gt;1</title>
<path fill="none" stroke="black" d="M766.27,-185.55C675.24,-177.22 480.74,-157.15 319,-125 314.31,-124.07 309.46,-123 304.62,-121.86"/>
<polygon fill="black" stroke="black" points="305.29,-118.42 294.74,-119.45 303.63,-125.22 305.29,-118.42"/>
</g>
<!-- 3 -->
<g id="node5" class="node">
<title>3</title>
<ellipse fill="none" stroke="black" cx="381" cy="-107" rx="52.79" ry="18"/>
<text text-anchor="middle" x="381" y="-103.3" font-family="Times,serif" font-size="14.00">LaSM (a)</text>
</g>
<!-- 2&#45;&gt;3 -->
<g id="edge3" class="edge">
<title>2&#45;&gt;3</title>
<path fill="none" stroke="black" d="M769.31,-183.23C697.32,-172.84 558.45,-151.39 442,-125 437.9,-124.07 433.66,-123.04 429.42,-121.96"/>
<polygon fill="black" stroke="black" points="430.14,-118.53 419.58,-119.37 428.36,-125.3 430.14,-118.53"/>
</g>
<!-- 6 -->
<g id="node6" class="node">
<title>6</title>
<ellipse fill="none" stroke="black" cx="493" cy="-107" rx="41.69" ry="18"/>
<text text-anchor="middle" x="493" y="-103.3" font-family="Times,serif" font-size="14.00">Est (a)</text>
</g>
<!-- 2&#45;&gt;6 -->
<g id="edge4" class="edge">
<title>2&#45;&gt;6</title>
<path fill="none" stroke="black" d="M773.55,-180.73C719.09,-169.08 624.17,-147.82 544,-125 540.81,-124.09 537.53,-123.11 534.24,-122.09"/>
<polygon fill="black" stroke="black" points="535.01,-118.66 524.42,-118.96 532.89,-125.33 535.01,-118.66"/>
<text text-anchor="middle" x="651.5" y="-146" font-family="Times,serif" font-size="10.00">3</text>
</g>
<!-- 11 -->
<g id="node7" class="node">
<title>11</title>
<ellipse fill="none" stroke="black" cx="603" cy="-107" rx="50.09" ry="18"/>
<text text-anchor="middle" x="603" y="-103.3" font-family="Times,serif" font-size="14.00">V560 (a)</text>
</g>
<!-- 2&#45;&gt;11 -->
<g id="edge5" class="edge">
<title>2&#45;&gt;11</title>
<path fill="none" stroke="black" stroke-width="2" d="M783.93,-177.01C746.44,-162.71 686.13,-139.71 645.56,-124.23"/>
<polygon fill="black" stroke="black" stroke-width="2" points="646.79,-120.96 636.2,-120.66 644.3,-127.5 646.79,-120.96"/>
</g>
<!-- 14 -->
<g id="node8" class="node">
<title>14</title>
<ellipse fill="none" stroke="black" cx="714" cy="-107" rx="42.79" ry="18"/>
<text text-anchor="middle" x="714" y="-103.3" font-family="Times,serif" font-size="14.00">La2 (a)</text>
</g>
<!-- 2&#45;&gt;14 -->
<g id="edge6" class="edge">
<title>2&#45;&gt;14</title>
<path fill="none" stroke="black" stroke-width="2" d="M797.95,-174.19C781.92,-161.55 759.28,-143.7 741.55,-129.72"/>
<polygon fill="black" stroke="black" stroke-width="2" points="743.31,-126.65 733.29,-123.21 738.97,-132.15 743.31,-126.65"/>
</g>
<!-- 17 -->
<g id="node10" class="node">
<title>17</title>
<ellipse fill="none" stroke="black" cx="818" cy="-107" rx="42.79" ry="18"/>
<text text-anchor="middle" x="818" y="-103.3" font-family="Times,serif" font-size="14.00">Bas (a)</text>
</g>
<!-- 2&#45;&gt;17 -->
<g id="edge8" class="edge">
<title>2&#45;&gt;17</title>
<path fill="none" stroke="black" stroke-width="2" d="M818,-172.61C818,-161.77 818,-147.6 818,-135.29"/>
<polygon fill="black" stroke="black" stroke-width="2" points="821.5,-135.08 818,-125.08 814.5,-135.08 821.5,-135.08"/>
<text text-anchor="middle" x="821.5" y="-146" font-family="Times,serif" font-size="10.00">3</text>
</g>
<!-- 19 -->
<g id="node11" class="node">
<title>19</title>
<ellipse fill="none" stroke="black" cx="929" cy="-107" rx="50.09" ry="18"/>
<text text-anchor="middle" x="929" y="-103.3" font-family="Times,serif" font-size="14.00">S249 (a)</text>
</g>
<!-- 2&#45;&gt;19 -->
<g id="edge9" class="edge">
<title>2&#45;&gt;19</title>
<path fill="none" stroke="black" d="M839.14,-174.38C856.34,-161.67 880.81,-143.6 899.87,-129.52"/>
<polygon fill="black" stroke="black" points="901.98,-132.32 907.94,-123.56 897.82,-126.69 901.98,-132.32"/>
</g>
<!-- 21 -->
<g id="node13" class="node">
<title>21</title>
<ellipse fill="none" stroke="black" cx="1046" cy="-107" rx="48.99" ry="18"/>
<text text-anchor="middle" x="1046" y="-103.3" font-family="Times,serif" font-size="14.00">La22 (a)</text>
</g>
<!-- 2&#45;&gt;21 -->
<g id="edge11" class="edge">
<title>2&#45;&gt;21</title>
<path fill="none" stroke="black" stroke-dasharray="5,2" d="M853.62,-177.19C893.83,-162.73 959.24,-139.2 1002.44,-123.67"/>
<polygon fill="black" stroke="black" points="1003.89,-126.87 1012.11,-120.19 1001.52,-120.28 1003.89,-126.87"/>
</g>
<!-- 30 -->
<g id="node15" class="node">
<title>30</title>
<ellipse fill="none" stroke="black" cx="1165" cy="-107" rx="52.79" ry="18"/>
<text text-anchor="middle" x="1165" y="-103.3" font-family="Times,serif" font-size="14.00">M136 (a)</text>
</g>
<!-- 2&#45;&gt;30 -->
<g id="edge13" class="edge">
<title>2&#45;&gt;30</title>
<path fill="none" stroke="black" stroke-width="2" d="M862.25,-180.64C918.59,-168.56 1018.84,-146.53 1104,-125 1108.02,-123.98 1112.17,-122.9 1116.34,-121.79"/>
<polygon fill="black" stroke="black" stroke-width="2" points="1117.29,-125.16 1126.02,-119.16 1115.46,-118.4 1117.29,-125.16"/>
</g>
<!-- 39 -->
<g id="node21" class="node">
<title>39</title>
<ellipse fill="none" stroke="black" cx="1286" cy="-107" rx="50.09" ry="18"/>
<text text-anchor="middle" x="1286" y="-103.3" font-family="Times,serif" font-size="14.00">Patm (a)</text>
</g>
<!-- 2&#45;&gt;39 -->
<g id="edge19" class="edge">
<title>2&#45;&gt;39</title>
<path fill="none" stroke="black" d="M868.11,-184.05C945.6,-174.41 1098.92,-153.52 1227,-125 1231.1,-124.09 1235.33,-123.05 1239.56,-121.96"/>
<polygon fill="black" stroke="black" points="1240.61,-125.3 1249.36,-119.31 1238.79,-118.54 1240.61,-125.3"/>
</g>
<!-- 41 -->
<g id="node22" class="node">
<title>41</title>
<ellipse fill="none" stroke="black" cx="1404" cy="-107" rx="50.09" ry="18"/>
<text text-anchor="middle" x="1404" y="-103.3" font-family="Times,serif" font-size="14.00">V566 (a)</text>
</g>
<!-- 2&#45;&gt;41 -->
<g id="edge20" class="edge">
<title>2&#45;&gt;41</title>
<path fill="none" stroke="black" d="M870.44,-186.33C965.7,-179.04 1173.21,-160.31 1345,-125 1349.17,-124.14 1353.47,-123.14 1357.77,-122.06"/>
<polygon fill="black" stroke="black" points="1358.95,-125.37 1367.71,-119.42 1357.15,-118.6 1358.95,-125.37"/>
<text text-anchor="middle" x="1248.5" y="-146" font-family="Times,serif" font-size="10.00">2</text>
</g>
<!-- 34 -->
<g id="node17" class="node">
<title>34</title>
<ellipse fill="none" stroke="black" cx="381" cy="-34" rx="44.39" ry="18"/>
<text text-anchor="middle" x="381" y="-30.3" font-family="Times,serif" font-size="14.00">B39 (a)</text>
</g>
<!-- 3&#45;&gt;34 -->
<g id="edge15" class="edge">
<title>3&#45;&gt;34</title>
<path fill="none" stroke="black" stroke-dasharray="5,2" d="M381,-88.81C381,-80.79 381,-71.05 381,-62.07"/>
<polygon fill="black" stroke="black" points="384.5,-62.03 381,-52.03 377.5,-62.03 384.5,-62.03"/>
</g>
<!-- 28 -->
<g id="node14" class="node">
<title>28</title>
<ellipse fill="none" stroke="black" cx="575" cy="-34" rx="55.79" ry="18"/>
<text text-anchor="middle" x="575" y="-30.3" font-family="Times,serif" font-size="14.00">V1920 (a)</text>
</g>
<!-- 11&#45;&gt;28 -->
<g id="edge12" class="edge">
<title>11&#45;&gt;28</title>
<path fill="none" stroke="black" stroke-dasharray="5,2" d="M596.22,-88.81C592.99,-80.62 589.05,-70.62 585.44,-61.48"/>
<polygon fill="black" stroke="black" points="588.64,-60.05 581.72,-52.03 582.13,-62.62 588.64,-60.05"/>
</g>
<!-- 16 -->
<g id="node9" class="node">
<title>16</title>
<ellipse fill="none" stroke="black" cx="1398" cy="-34" rx="55.79" ry="18"/>
<text text-anchor="middle" x="1398" y="-30.3" font-family="Times,serif" font-size="14.00">V1639 (a)</text>
</g>
<!-- 20 -->
<g id="node12" class="node">
<title>20</title>
<ellipse fill="none" stroke="black" cx="808" cy="-34" rx="52.79" ry="18"/>
<text text-anchor="middle" x="808" y="-30.3" font-family="Times,serif" font-size="14.00">M111 (a)</text>
</g>
<!-- 21&#45;&gt;0 -->
<g id="edge1" class="edge">
<title>21&#45;&gt;0</title>
<path fill="none" stroke="black" stroke-dasharray="1,5" d="M1010.3,-94.73C1002.97,-92.64 995.27,-90.61 988,-89 881.78,-65.42 851.91,-76.92 746,-52 742.56,-51.19 739.01,-50.26 735.47,-49.27"/>
<polygon fill="black" stroke="black" points="736.15,-45.82 725.57,-46.34 734.16,-52.53 736.15,-45.82"/>
</g>
<!-- 21&#45;&gt;20 -->
<g id="edge10" class="edge">
<title>21&#45;&gt;20</title>
<path fill="none" stroke="black" stroke-dasharray="1,5" d="M1009.33,-95.06C968.15,-82.78 901.17,-62.79 855.88,-49.28"/>
<polygon fill="black" stroke="black" points="856.87,-45.93 846.29,-46.42 854.87,-52.63 856.87,-45.93"/>
</g>
<!-- 33 -->
<g id="node16" class="node">
<title>33</title>
<ellipse fill="none" stroke="black" cx="925" cy="-34" rx="46.59" ry="18"/>
<text text-anchor="middle" x="925" y="-30.3" font-family="Times,serif" font-size="14.00">Bodl (a)</text>
</g>
<!-- 21&#45;&gt;33 -->
<g id="edge14" class="edge">
<title>21&#45;&gt;33</title>
<path fill="none" stroke="black" stroke-dasharray="5,2" d="M1021.22,-91.46C1003.11,-80.84 978.36,-66.31 958.49,-54.65"/>
<polygon fill="black" stroke="black" points="960.14,-51.56 949.75,-49.52 956.6,-57.6 960.14,-51.56"/>
</g>
<!-- 36 -->
<g id="node18" class="node">
<title>36</title>
<ellipse fill="none" stroke="black" cx="1040" cy="-34" rx="50.09" ry="18"/>
<text text-anchor="middle" x="1040" y="-30.3" font-family="Times,serif" font-size="14.00">A116 (a)</text>
</g>
<!-- 21&#45;&gt;36 -->
<g id="edge16" class="edge">
<title>21&#45;&gt;36</title>
<path fill="none" stroke="black" stroke-dasharray="5,2" d="M1044.55,-88.81C1043.87,-80.79 1043.05,-71.05 1042.29,-62.07"/>
<polygon fill="black" stroke="black" points="1045.77,-61.7 1041.44,-52.03 1038.79,-62.29 1045.77,-61.7"/>
</g>
<!-- 37 -->
<g id="node19" class="node">
<title>37</title>
<ellipse fill="none" stroke="black" cx="1157" cy="-34" rx="48.99" ry="18"/>
<text text-anchor="middle" x="1157" y="-30.3" font-family="Times,serif" font-size="14.00">La35 (a)</text>
</g>
<!-- 21&#45;&gt;37 -->
<g id="edge17" class="edge">
<title>21&#45;&gt;37</title>
<path fill="none" stroke="black" stroke-dasharray="1,5" d="M1069.27,-91.12C1085.4,-80.8 1107.09,-66.92 1124.87,-55.55"/>
<polygon fill="black" stroke="black" points="1127.22,-58.2 1133.76,-49.86 1123.45,-52.3 1127.22,-58.2"/>
</g>
<!-- 38 -->
<g id="node20" class="node">
<title>38</title>
<ellipse fill="none" stroke="black" cx="1274" cy="-34" rx="50.09" ry="18"/>
<text text-anchor="middle" x="1274" y="-30.3" font-family="Times,serif" font-size="14.00">V565 (a)</text>
</g>
<!-- 21&#45;&gt;38 -->
<g id="edge18" class="edge">
<title>21&#45;&gt;38</title>
<path fill="none" stroke="black" stroke-dasharray="5,2" d="M1082.13,-94.75C1121.5,-82.49 1184.62,-62.83 1227.62,-49.44"/>
<polygon fill="black" stroke="black" points="1228.78,-52.75 1237.29,-46.43 1226.7,-46.06 1228.78,-52.75"/>
</g>
<!-- 41&#45;&gt;16 -->
<g id="edge7" class="edge">
<title>41&#45;&gt;16</title>
<path fill="none" stroke="black" stroke-dasharray="1,5" d="M1402.55,-88.81C1401.87,-80.79 1401.05,-71.05 1400.29,-62.07"/>
<polygon fill="black" stroke="black" points="1403.77,-61.7 1399.44,-52.03 1396.79,-62.29 1403.77,-61.7"/>
</g>
</g>
</svg>
