<?xml version="1.0" encoding="UTF-8" standalone="no"?>
<!DOCTYPE svg PUBLIC "-//W3C//DTD SVG 1.1//EN"
 "http://www.w3.org/Graphics/SVG/1.1/DTD/svg11.dtd">
<!-- Generated by graphviz version 2.43.0 (0)
 -->
<!-- Title: textual_flow_diagram Pages: 1 -->
<svg width="563pt" height="745pt"
 viewBox="0.00 0.00 563.00 745.00" xmlns="http://www.w3.org/2000/svg" xmlns:xlink="http://www.w3.org/1999/xlink">
<g id="graph0" class="graph" transform="scale(1 1) rotate(0) translate(4 741)">
<title>textual_flow_diagram</title>
<polygon fill="white" stroke="transparent" points="-4,4 -4,-741 559,-741 559,4 -4,4"/>
<g id="clust1" class="cluster">
<title>cluster_legend</title>
<polygon fill="none" stroke="black" points="8,-675 8,-729 204,-729 204,-675 8,-675"/>
</g>
<g id="clust2" class="cluster">
<title>cluster_plot</title>
</g>
<!-- label -->
<g id="node1" class="node">
<title>label</title>
<text text-anchor="middle" x="106" y="-705.8" font-family="Times,serif" font-size="14.00">adstag1.3.40U16&#45;24, b</text>
<text text-anchor="middle" x="106" y="-690.8" font-family="Times,serif" font-size="14.00">Con = 5</text>
</g>
<!-- 3 -->
<g id="node2" class="node">
<title>3</title>
<ellipse fill="none" stroke="black" cx="339" cy="-628" rx="45.49" ry="18"/>
<text text-anchor="middle" x="339" y="-624.3" font-family="Times,serif" font-size="14.00">Nan (b)</text>
</g>
<!-- 30 -->
<g id="node11" class="node">
<title>30</title>
<ellipse fill="none" stroke="black" cx="276" cy="-545" rx="50.89" ry="18"/>
<text text-anchor="middle" x="276" y="-541.3" font-family="Times,serif" font-size="14.00">Neap (b)</text>
</g>
<!-- 3&#45;&gt;30 -->
<g id="edge10" class="edge">
<title>3&#45;&gt;30</title>
<path fill="none" stroke="black" d="M326.25,-610.61C317.34,-599.16 305.29,-583.66 295.22,-570.72"/>
<polygon fill="black" stroke="black" points="297.85,-568.39 288.95,-562.65 292.32,-572.69 297.85,-568.39"/>
<text text-anchor="middle" x="314.5" y="-584" font-family="Times,serif" font-size="10.00">3</text>
</g>
<!-- 37 -->
<g id="node13" class="node">
<title>37</title>
<ellipse fill="none" stroke="black" cx="401" cy="-545" rx="55.79" ry="18"/>
<text text-anchor="middle" x="401" y="-541.3" font-family="Times,serif" font-size="14.00">V1897 (b)</text>
</g>
<!-- 3&#45;&gt;37 -->
<g id="edge12" class="edge">
<title>3&#45;&gt;37</title>
<path fill="none" stroke="black" stroke-dasharray="1,5" d="M351.55,-610.61C360.31,-599.16 372.17,-583.66 382.08,-570.72"/>
<polygon fill="black" stroke="black" points="384.96,-572.71 388.26,-562.65 379.4,-568.46 384.96,-572.71"/>
</g>
<!-- 5 -->
<g id="node3" class="node">
<title>5</title>
<ellipse fill="none" stroke="black" cx="276" cy="-472" rx="55.79" ry="18"/>
<text text-anchor="middle" x="276" y="-468.3" font-family="Times,serif" font-size="14.00">V1629 (b)</text>
</g>
<!-- 26 -->
<g id="node8" class="node">
<title>26</title>
<ellipse fill="none" stroke="black" cx="276" cy="-399" rx="50.09" ry="18"/>
<text text-anchor="middle" x="276" y="-395.3" font-family="Times,serif" font-size="14.00">V536 (b)</text>
</g>
<!-- 5&#45;&gt;26 -->
<g id="edge7" class="edge">
<title>5&#45;&gt;26</title>
<path fill="none" stroke="black" stroke-dasharray="5,2" d="M276,-453.81C276,-445.79 276,-436.05 276,-427.07"/>
<polygon fill="black" stroke="black" points="279.5,-427.03 276,-417.03 272.5,-427.03 279.5,-427.03"/>
</g>
<!-- 8 -->
<g id="node4" class="node">
<title>8</title>
<ellipse fill="none" stroke="black" cx="393" cy="-472" rx="43.59" ry="18"/>
<text text-anchor="middle" x="393" y="-468.3" font-family="Times,serif" font-size="14.00">Bas (b)</text>
</g>
<!-- 9 -->
<g id="node5" class="node">
<title>9</title>
<ellipse fill="none" stroke="black" cx="273" cy="-107" rx="46.59" ry="18"/>
<text text-anchor="middle" x="273" y="-103.3" font-family="Times,serif" font-size="14.00">Mon (b)</text>
</g>
<!-- 18 -->
<g id="node6" class="node">
<title>18</title>
<ellipse fill="none" stroke="black" cx="273" cy="-34" rx="41.69" ry="18"/>
<text text-anchor="middle" x="273" y="-30.3" font-family="Times,serif" font-size="14.00">Sin (b)</text>
</g>
<!-- 9&#45;&gt;18 -->
<g id="edge5" class="edge">
<title>9&#45;&gt;18</title>
<path fill="none" stroke="black" stroke-dasharray="1,5" d="M273,-88.81C273,-80.79 273,-71.05 273,-62.07"/>
<polygon fill="black" stroke="black" points="276.5,-62.03 273,-52.03 269.5,-62.03 276.5,-62.03"/>
</g>
<!-- 22 -->
<g id="node7" class="node">
<title>22</title>
<ellipse fill="none" stroke="black" cx="273" cy="-180" rx="50.09" ry="18"/>
<text text-anchor="middle" x="273" y="-176.3" font-family="Times,serif" font-size="14.00">Marc (b)</text>
</g>
<!-- 22&#45;&gt;9 -->
<g id="edge4" class="edge">
<title>22&#45;&gt;9</title>
<path fill="none" stroke="black" stroke-dasharray="1,5" d="M273,-161.81C273,-153.79 273,-144.05 273,-135.07"/>
<polygon fill="black" stroke="black" points="276.5,-135.03 273,-125.03 269.5,-135.03 276.5,-135.03"/>
</g>
<!-- 35 -->
<g id="node12" class="node">
<title>35</title>
<ellipse fill="none" stroke="black" cx="276" cy="-326" rx="50.09" ry="18"/>
<text text-anchor="middle" x="276" y="-322.3" font-family="Times,serif" font-size="14.00">V568 (b)</text>
</g>
<!-- 26&#45;&gt;35 -->
<g id="edge11" class="edge">
<title>26&#45;&gt;35</title>
<path fill="none" stroke="black" stroke-dasharray="1,5" d="M276,-380.81C276,-372.79 276,-363.05 276,-354.07"/>
<polygon fill="black" stroke="black" points="279.5,-354.03 276,-344.03 272.5,-354.03 279.5,-354.03"/>
</g>
<!-- 27 -->
<g id="node9" class="node">
<title>27</title>
<ellipse fill="none" stroke="black" cx="276" cy="-253" rx="47.39" ry="18"/>
<text text-anchor="middle" x="276" y="-249.3" font-family="Times,serif" font-size="14.00">Taur (b)</text>
</g>
<!-- 27&#45;&gt;22 -->
<g id="edge6" class="edge">
<title>27&#45;&gt;22</title>
<path fill="none" stroke="black" stroke-dasharray="1,5" d="M275.27,-234.81C274.93,-226.79 274.52,-217.05 274.14,-208.07"/>
<polygon fill="black" stroke="black" points="277.64,-207.87 273.72,-198.03 270.64,-208.17 277.64,-207.87"/>
</g>
<!-- 39 -->
<g id="node14" class="node">
<title>39</title>
<ellipse fill="none" stroke="black" cx="394" cy="-180" rx="53.09" ry="18"/>
<text text-anchor="middle" x="394" y="-176.3" font-family="Times,serif" font-size="14.00">M118 (b)</text>
</g>
<!-- 27&#45;&gt;39 -->
<g id="edge13" class="edge">
<title>27&#45;&gt;39</title>
<path fill="none" stroke="black" stroke-dasharray="5,2" d="M300.16,-237.46C317.51,-227.02 341.11,-212.82 360.31,-201.27"/>
<polygon fill="black" stroke="black" points="362.29,-204.16 369.06,-196.01 358.68,-198.17 362.29,-204.16"/>
</g>
<!-- 28 -->
<g id="node10" class="node">
<title>28</title>
<ellipse fill="none" stroke="black" cx="497" cy="-472" rx="42.49" ry="18"/>
<text text-anchor="middle" x="497" y="-468.3" font-family="Times,serif" font-size="14.00">Est (b)</text>
</g>
<!-- 30&#45;&gt;5 -->
<g id="edge2" class="edge">
<title>30&#45;&gt;5</title>
<path fill="none" stroke="black" stroke-dasharray="1,5" d="M276,-526.81C276,-518.79 276,-509.05 276,-500.07"/>
<polygon fill="black" stroke="black" points="279.5,-500.03 276,-490.03 272.5,-500.03 279.5,-500.03"/>
</g>
<!-- 35&#45;&gt;27 -->
<g id="edge8" class="edge">
<title>35&#45;&gt;27</title>
<path fill="none" stroke="black" stroke-dasharray="1,5" d="M276,-307.81C276,-299.79 276,-290.05 276,-281.07"/>
<polygon fill="black" stroke="black" points="279.5,-281.03 276,-271.03 272.5,-281.03 279.5,-281.03"/>
</g>
<!-- 37&#45;&gt;8 -->
<g id="edge3" class="edge">
<title>37&#45;&gt;8</title>
<path fill="none" stroke="black" d="M399.06,-526.81C398.16,-518.79 397.06,-509.05 396.05,-500.07"/>
<polygon fill="black" stroke="black" points="399.52,-499.57 394.92,-490.03 392.56,-500.36 399.52,-499.57"/>
</g>
<!-- 37&#45;&gt;28 -->
<g id="edge9" class="edge">
<title>37&#45;&gt;28</title>
<path fill="none" stroke="black" stroke-dasharray="1,5" d="M422.31,-528.24C435.88,-518.2 453.63,-505.07 468.43,-494.13"/>
<polygon fill="black" stroke="black" points="470.78,-496.74 476.74,-487.98 466.62,-491.12 470.78,-496.74"/>
</g>
<!-- 0 -->
<g id="node15" class="node">
<title>0</title>
<ellipse fill="none" stroke="blue" stroke-dasharray="5,2" cx="339" cy="-702" rx="53.89" ry="18"/>
<text text-anchor="middle" x="339" y="-698.3" font-family="Times,serif" font-size="14.00">aBase (a)</text>
</g>
<!-- 0&#45;&gt;3 -->
<g id="edge1" class="edge">
<title>0&#45;&gt;3</title>
<path fill="none" stroke="blue" d="M339,-683.94C339,-675.81 339,-665.88 339,-656.7"/>
<polygon fill="blue" stroke="blue" points="342.5,-656.44 339,-646.44 335.5,-656.44 342.5,-656.44"/>
</g>
</g>
</svg>
