<?xml version="1.0" encoding="UTF-8" standalone="no"?>
<!DOCTYPE svg PUBLIC "-//W3C//DTD SVG 1.1//EN"
 "http://www.w3.org/Graphics/SVG/1.1/DTD/svg11.dtd">
<!-- Generated by graphviz version 2.43.0 (0)
 -->
<!-- Title: textual_flow_diagram Pages: 1 -->
<svg width="606pt" height="682pt"
 viewBox="0.00 0.00 606.00 682.00" xmlns="http://www.w3.org/2000/svg" xmlns:xlink="http://www.w3.org/1999/xlink">
<g id="graph0" class="graph" transform="scale(1 1) rotate(0) translate(4 678)">
<title>textual_flow_diagram</title>
<polygon fill="white" stroke="transparent" points="-4,4 -4,-678 602,-678 602,4 -4,4"/>
<g id="clust1" class="cluster">
<title>cluster_legend</title>
<polygon fill="none" stroke="black" points="8,-612 8,-666 204,-666 204,-612 8,-612"/>
</g>
<g id="clust2" class="cluster">
<title>cluster_plot</title>
</g>
<!-- label -->
<g id="node1" class="node">
<title>label</title>
<text text-anchor="middle" x="106" y="-642.8" font-family="Times,serif" font-size="14.00">adstag1.2.23U20&#45;26, b</text>
<text text-anchor="middle" x="106" y="-627.8" font-family="Times,serif" font-size="14.00">Con = 5</text>
</g>
<!-- 3 -->
<g id="node2" class="node">
<title>3</title>
<ellipse fill="none" stroke="black" cx="273" cy="-107" rx="53.09" ry="18"/>
<text text-anchor="middle" x="273" y="-103.3" font-family="Times,serif" font-size="14.00">M118 (b)</text>
</g>
<!-- 4 -->
<g id="node3" class="node">
<title>4</title>
<ellipse fill="none" stroke="black" cx="394" cy="-34" rx="46.59" ry="18"/>
<text text-anchor="middle" x="394" y="-30.3" font-family="Times,serif" font-size="14.00">Mon (b)</text>
</g>
<!-- 6 -->
<g id="node4" class="node">
<title>6</title>
<ellipse fill="none" stroke="black" cx="394" cy="-107" rx="50.09" ry="18"/>
<text text-anchor="middle" x="394" y="-103.3" font-family="Times,serif" font-size="14.00">Marc (b)</text>
</g>
<!-- 6&#45;&gt;4 -->
<g id="edge2" class="edge">
<title>6&#45;&gt;4</title>
<path fill="none" stroke="black" stroke-dasharray="1,5" d="M394,-88.81C394,-80.79 394,-71.05 394,-62.07"/>
<polygon fill="black" stroke="black" points="397.5,-62.03 394,-52.03 390.5,-62.03 397.5,-62.03"/>
</g>
<!-- 7 -->
<g id="node5" class="node">
<title>7</title>
<ellipse fill="none" stroke="black" cx="271" cy="-565" rx="50.09" ry="18"/>
<text text-anchor="middle" x="271" y="-561.3" font-family="Times,serif" font-size="14.00">A336 (b)</text>
</g>
<!-- 9 -->
<g id="node6" class="node">
<title>9</title>
<ellipse fill="none" stroke="black" cx="396" cy="-482" rx="55.79" ry="18"/>
<text text-anchor="middle" x="396" y="-478.3" font-family="Times,serif" font-size="14.00">V2250 (b)</text>
</g>
<!-- 14 -->
<g id="node7" class="node">
<title>14</title>
<ellipse fill="none" stroke="black" cx="333" cy="-190" rx="47.39" ry="18"/>
<text text-anchor="middle" x="333" y="-186.3" font-family="Times,serif" font-size="14.00">Taur (b)</text>
</g>
<!-- 14&#45;&gt;3 -->
<g id="edge1" class="edge">
<title>14&#45;&gt;3</title>
<path fill="none" stroke="black" stroke-dasharray="5,2" d="M320.57,-172.22C312.2,-160.92 301.02,-145.83 291.6,-133.11"/>
<polygon fill="black" stroke="black" points="294.18,-130.71 285.42,-124.76 288.56,-134.88 294.18,-130.71"/>
</g>
<!-- 14&#45;&gt;6 -->
<g id="edge3" class="edge">
<title>14&#45;&gt;6</title>
<path fill="none" stroke="black" stroke-dasharray="1,5" d="M345.34,-172.61C353.97,-161.16 365.64,-145.66 375.39,-132.72"/>
<polygon fill="black" stroke="black" points="378.24,-134.74 381.46,-124.65 372.65,-130.53 378.24,-134.74"/>
<text text-anchor="middle" x="370.5" y="-146" font-family="Times,serif" font-size="10.00">2</text>
</g>
<!-- 40 -->
<g id="node15" class="node">
<title>40</title>
<ellipse fill="none" stroke="black" cx="512" cy="-107" rx="50.09" ry="18"/>
<text text-anchor="middle" x="512" y="-103.3" font-family="Times,serif" font-size="14.00">V569 (b)</text>
</g>
<!-- 14&#45;&gt;40 -->
<g id="edge14" class="edge">
<title>14&#45;&gt;40</title>
<path fill="none" stroke="black" stroke-dasharray="5,2" d="M362.56,-175.62C392.65,-162.01 439.49,-140.81 472.69,-125.79"/>
<polygon fill="black" stroke="black" points="474.43,-128.84 482.1,-121.53 471.55,-122.46 474.43,-128.84"/>
</g>
<!-- 16 -->
<g id="node8" class="node">
<title>16</title>
<ellipse fill="none" stroke="black" cx="526" cy="-409" rx="42.49" ry="18"/>
<text text-anchor="middle" x="526" y="-405.3" font-family="Times,serif" font-size="14.00">Est (b)</text>
</g>
<!-- 17 -->
<g id="node9" class="node">
<title>17</title>
<ellipse fill="none" stroke="black" cx="526" cy="-482" rx="55.79" ry="18"/>
<text text-anchor="middle" x="526" y="-478.3" font-family="Times,serif" font-size="14.00">V1897 (b)</text>
</g>
<!-- 17&#45;&gt;16 -->
<g id="edge7" class="edge">
<title>17&#45;&gt;16</title>
<path fill="none" stroke="black" stroke-dasharray="1,5" d="M526,-463.81C526,-455.79 526,-446.05 526,-437.07"/>
<polygon fill="black" stroke="black" points="529.5,-437.03 526,-427.03 522.5,-437.03 529.5,-437.03"/>
</g>
<!-- 18 -->
<g id="node10" class="node">
<title>18</title>
<ellipse fill="none" stroke="black" cx="311" cy="-263" rx="50.09" ry="18"/>
<text text-anchor="middle" x="311" y="-259.3" font-family="Times,serif" font-size="14.00">V568 (b)</text>
</g>
<!-- 18&#45;&gt;14 -->
<g id="edge6" class="edge">
<title>18&#45;&gt;14</title>
<path fill="none" stroke="black" stroke-dasharray="1,5" d="M316.33,-244.81C318.84,-236.7 321.9,-226.84 324.7,-217.78"/>
<polygon fill="black" stroke="black" points="328.11,-218.62 327.72,-208.03 321.42,-216.54 328.11,-218.62"/>
</g>
<!-- 23 -->
<g id="node11" class="node">
<title>23</title>
<ellipse fill="none" stroke="black" cx="271" cy="-482" rx="50.89" ry="18"/>
<text text-anchor="middle" x="271" y="-478.3" font-family="Times,serif" font-size="14.00">Neap (b)</text>
</g>
<!-- 28 -->
<g id="node13" class="node">
<title>28</title>
<ellipse fill="none" stroke="black" cx="281" cy="-409" rx="55.79" ry="18"/>
<text text-anchor="middle" x="281" y="-405.3" font-family="Times,serif" font-size="14.00">V1629 (b)</text>
</g>
<!-- 23&#45;&gt;28 -->
<g id="edge12" class="edge">
<title>23&#45;&gt;28</title>
<path fill="none" stroke="black" stroke-dasharray="1,5" d="M273.42,-463.81C274.55,-455.79 275.92,-446.05 277.19,-437.07"/>
<polygon fill="black" stroke="black" points="280.67,-437.42 278.6,-427.03 273.74,-436.44 280.67,-437.42"/>
</g>
<!-- 24 -->
<g id="node12" class="node">
<title>24</title>
<ellipse fill="none" stroke="black" cx="296" cy="-336" rx="50.09" ry="18"/>
<text text-anchor="middle" x="296" y="-332.3" font-family="Times,serif" font-size="14.00">V536 (b)</text>
</g>
<!-- 24&#45;&gt;18 -->
<g id="edge9" class="edge">
<title>24&#45;&gt;18</title>
<path fill="none" stroke="black" stroke-dasharray="1,5" d="M299.63,-317.81C301.33,-309.79 303.38,-300.05 305.28,-291.07"/>
<polygon fill="black" stroke="black" points="308.76,-291.54 307.4,-281.03 301.91,-290.09 308.76,-291.54"/>
</g>
<!-- 28&#45;&gt;24 -->
<g id="edge11" class="edge">
<title>28&#45;&gt;24</title>
<path fill="none" stroke="black" stroke-dasharray="5,2" d="M284.63,-390.81C286.33,-382.79 288.38,-373.05 290.28,-364.07"/>
<polygon fill="black" stroke="black" points="293.76,-364.54 292.4,-354.03 286.91,-363.09 293.76,-364.54"/>
</g>
<!-- 38 -->
<g id="node14" class="node">
<title>38</title>
<ellipse fill="none" stroke="black" cx="392" cy="-565" rx="53.09" ry="18"/>
<text text-anchor="middle" x="392" y="-561.3" font-family="Times,serif" font-size="14.00">M136 (b)</text>
</g>
<!-- 38&#45;&gt;23 -->
<g id="edge10" class="edge">
<title>38&#45;&gt;23</title>
<path fill="none" stroke="black" stroke-dasharray="5,2" d="M368.96,-548.57C350.12,-535.96 323.29,-518 302.47,-504.07"/>
<polygon fill="black" stroke="black" points="304.22,-501.02 293.96,-498.37 300.32,-506.84 304.22,-501.02"/>
<text text-anchor="middle" x="341.5" y="-521" font-family="Times,serif" font-size="10.00">2</text>
</g>
<!-- 42 -->
<g id="node16" class="node">
<title>42</title>
<ellipse fill="none" stroke="black" cx="509" cy="-565" rx="45.49" ry="18"/>
<text text-anchor="middle" x="509" y="-561.3" font-family="Times,serif" font-size="14.00">Nan (b)</text>
</g>
<!-- 42&#45;&gt;9 -->
<g id="edge5" class="edge">
<title>42&#45;&gt;9</title>
<path fill="none" stroke="black" stroke-dasharray="5,2" d="M488.01,-548.95C470.66,-536.52 445.81,-518.7 426.3,-504.72"/>
<polygon fill="black" stroke="black" points="428.2,-501.78 418.03,-498.79 424.12,-507.47 428.2,-501.78"/>
</g>
<!-- 42&#45;&gt;17 -->
<g id="edge8" class="edge">
<title>42&#45;&gt;17</title>
<path fill="none" stroke="black" stroke-dasharray="1,5" d="M512.61,-546.82C514.84,-536.19 517.75,-522.31 520.29,-510.2"/>
<polygon fill="black" stroke="black" points="523.77,-510.66 522.4,-500.15 516.92,-509.22 523.77,-510.66"/>
</g>
<!-- 11 -->
<g id="node17" class="node">
<title>11</title>
<ellipse fill="none" stroke="blue" stroke-dasharray="5,2" cx="450" cy="-639" rx="53.89" ry="18"/>
<text text-anchor="middle" x="450" y="-635.3" font-family="Times,serif" font-size="14.00">aBase (a)</text>
</g>
<!-- 11&#45;&gt;38 -->
<g id="edge13" class="edge">
<title>11&#45;&gt;38</title>
<path fill="none" stroke="blue" stroke-width="2" d="M436.55,-621.3C429.15,-612.12 419.85,-600.57 411.65,-590.4"/>
<polygon fill="blue" stroke="blue" stroke-width="2" points="414.38,-588.2 405.38,-582.61 408.93,-592.59 414.38,-588.2"/>
</g>
<!-- 11&#45;&gt;42 -->
<g id="edge15" class="edge">
<title>11&#45;&gt;42</title>
<path fill="none" stroke="blue" d="M463.68,-621.3C471.21,-612.12 480.67,-600.57 489.01,-590.4"/>
<polygon fill="blue" stroke="blue" points="491.76,-592.56 495.39,-582.61 486.34,-588.13 491.76,-592.56"/>
</g>
<!-- 21 -->
<g id="node18" class="node">
<title>21</title>
<ellipse fill="none" stroke="blue" stroke-dasharray="5,2" cx="273" cy="-639" rx="52.79" ry="18"/>
<text text-anchor="middle" x="273" y="-635.3" font-family="Times,serif" font-size="14.00">M111 (a)</text>
</g>
<!-- 21&#45;&gt;7 -->
<g id="edge4" class="edge">
<title>21&#45;&gt;7</title>
<path fill="none" stroke="blue" stroke-dasharray="5,2" d="M272.53,-620.94C272.3,-612.81 272.02,-602.88 271.77,-593.7"/>
<polygon fill="blue" stroke="blue" points="275.26,-593.34 271.48,-583.44 268.26,-593.53 275.26,-593.34"/>
</g>
</g>
</svg>
