<?xml version="1.0" encoding="UTF-8" standalone="no"?>
<!DOCTYPE svg PUBLIC "-//W3C//DTD SVG 1.1//EN"
 "http://www.w3.org/Graphics/SVG/1.1/DTD/svg11.dtd">
<!-- Generated by graphviz version 2.43.0 (0)
 -->
<!-- Title: textual_flow_diagram Pages: 1 -->
<svg width="1946pt" height="848pt"
 viewBox="0.00 0.00 1946.00 848.00" xmlns="http://www.w3.org/2000/svg" xmlns:xlink="http://www.w3.org/1999/xlink">
<g id="graph0" class="graph" transform="scale(1 1) rotate(0) translate(4 844)">
<title>textual_flow_diagram</title>
<polygon fill="white" stroke="transparent" points="-4,4 -4,-844 1942,-844 1942,4 -4,4"/>
<g id="clust1" class="cluster">
<title>cluster_legend</title>
<polygon fill="none" stroke="black" points="8,-778 8,-832 204,-832 204,-778 8,-778"/>
</g>
<g id="clust2" class="cluster">
<title>cluster_plot</title>
</g>
<!-- label -->
<g id="node1" class="node">
<title>label</title>
<text text-anchor="middle" x="106" y="-808.8" font-family="Times,serif" font-size="14.00">adstag1.2.40U26&#45;28, b</text>
<text text-anchor="middle" x="106" y="-793.8" font-family="Times,serif" font-size="14.00">Con = 5</text>
</g>
<!-- 1 -->
<g id="node2" class="node">
<title>1</title>
<ellipse fill="none" stroke="black" cx="683" cy="-482" rx="44.69" ry="18"/>
<text text-anchor="middle" x="683" y="-478.3" font-family="Times,serif" font-size="14.00">B39 (b)</text>
</g>
<!-- 2 -->
<g id="node3" class="node">
<title>2</title>
<ellipse fill="none" stroke="black" cx="1046" cy="-565" rx="44.39" ry="18"/>
<text text-anchor="middle" x="1046" y="-561.3" font-family="Times,serif" font-size="14.00">P74 (b)</text>
</g>
<!-- 3 -->
<g id="node4" class="node">
<title>3</title>
<ellipse fill="none" stroke="black" cx="264" cy="-648" rx="44.39" ry="18"/>
<text text-anchor="middle" x="264" y="-644.3" font-family="Times,serif" font-size="14.00">S32 (b)</text>
</g>
<!-- 4 -->
<g id="node5" class="node">
<title>4</title>
<ellipse fill="none" stroke="black" cx="556" cy="-565" rx="55.79" ry="18"/>
<text text-anchor="middle" x="556" y="-561.3" font-family="Times,serif" font-size="14.00">V2036 (b)</text>
</g>
<!-- 5 -->
<g id="node6" class="node">
<title>5</title>
<ellipse fill="none" stroke="black" cx="1158" cy="-565" rx="50.09" ry="18"/>
<text text-anchor="middle" x="1158" y="-561.3" font-family="Times,serif" font-size="14.00">V565 (b)</text>
</g>
<!-- 6 -->
<g id="node7" class="node">
<title>6</title>
<ellipse fill="none" stroke="black" cx="928" cy="-565" rx="55.79" ry="18"/>
<text text-anchor="middle" x="928" y="-561.3" font-family="Times,serif" font-size="14.00">V1897 (b)</text>
</g>
<!-- 29 -->
<g id="node25" class="node">
<title>29</title>
<ellipse fill="none" stroke="black" cx="928" cy="-482" rx="42.49" ry="18"/>
<text text-anchor="middle" x="928" y="-478.3" font-family="Times,serif" font-size="14.00">Est (b)</text>
</g>
<!-- 6&#45;&gt;29 -->
<g id="edge24" class="edge">
<title>6&#45;&gt;29</title>
<path fill="none" stroke="black" stroke-dasharray="1,5" d="M928,-546.82C928,-536.19 928,-522.31 928,-510.2"/>
<polygon fill="black" stroke="black" points="931.5,-510.15 928,-500.15 924.5,-510.15 931.5,-510.15"/>
</g>
<!-- 7 -->
<g id="node8" class="node">
<title>7</title>
<ellipse fill="none" stroke="black" cx="1869" cy="-482" rx="50.09" ry="18"/>
<text text-anchor="middle" x="1869" y="-478.3" font-family="Times,serif" font-size="14.00">A336 (b)</text>
</g>
<!-- 8 -->
<g id="node9" class="node">
<title>8</title>
<ellipse fill="none" stroke="black" cx="1279" cy="-409" rx="55.79" ry="18"/>
<text text-anchor="middle" x="1279" y="-405.3" font-family="Times,serif" font-size="14.00">V1629 (b)</text>
</g>
<!-- 32 -->
<g id="node28" class="node">
<title>32</title>
<ellipse fill="none" stroke="black" cx="1279" cy="-326" rx="50.09" ry="18"/>
<text text-anchor="middle" x="1279" y="-322.3" font-family="Times,serif" font-size="14.00">V568 (b)</text>
</g>
<!-- 8&#45;&gt;32 -->
<g id="edge27" class="edge">
<title>8&#45;&gt;32</title>
<path fill="none" stroke="black" stroke-dasharray="5,2" d="M1279,-390.82C1279,-380.19 1279,-366.31 1279,-354.2"/>
<polygon fill="black" stroke="black" points="1282.5,-354.15 1279,-344.15 1275.5,-354.15 1282.5,-354.15"/>
<text text-anchor="middle" x="1282.5" y="-365" font-family="Times,serif" font-size="10.00">2</text>
</g>
<!-- 9 -->
<g id="node10" class="node">
<title>9</title>
<ellipse fill="none" stroke="black" cx="683" cy="-565" rx="53.09" ry="18"/>
<text text-anchor="middle" x="683" y="-561.3" font-family="Times,serif" font-size="14.00">LaSM (b)</text>
</g>
<!-- 9&#45;&gt;1 -->
<g id="edge1" class="edge">
<title>9&#45;&gt;1</title>
<path fill="none" stroke="black" stroke-dasharray="5,2" d="M683,-546.82C683,-536.19 683,-522.31 683,-510.2"/>
<polygon fill="black" stroke="black" points="686.5,-510.15 683,-500.15 679.5,-510.15 686.5,-510.15"/>
</g>
<!-- 10 -->
<g id="node11" class="node">
<title>10</title>
<ellipse fill="none" stroke="black" cx="1279" cy="-565" rx="53.09" ry="18"/>
<text text-anchor="middle" x="1279" y="-561.3" font-family="Times,serif" font-size="14.00">M136 (b)</text>
</g>
<!-- 40 -->
<g id="node34" class="node">
<title>40</title>
<ellipse fill="none" stroke="black" cx="1279" cy="-482" rx="50.89" ry="18"/>
<text text-anchor="middle" x="1279" y="-478.3" font-family="Times,serif" font-size="14.00">Neap (b)</text>
</g>
<!-- 10&#45;&gt;40 -->
<g id="edge33" class="edge">
<title>10&#45;&gt;40</title>
<path fill="none" stroke="black" stroke-dasharray="5,2" d="M1279,-546.82C1279,-536.19 1279,-522.31 1279,-510.2"/>
<polygon fill="black" stroke="black" points="1282.5,-510.15 1279,-500.15 1275.5,-510.15 1282.5,-510.15"/>
<text text-anchor="middle" x="1282.5" y="-521" font-family="Times,serif" font-size="10.00">2</text>
</g>
<!-- 11 -->
<g id="node12" class="node">
<title>11</title>
<ellipse fill="none" stroke="black" cx="1169" cy="-107" rx="50.09" ry="18"/>
<text text-anchor="middle" x="1169" y="-103.3" font-family="Times,serif" font-size="14.00">Marc (b)</text>
</g>
<!-- 30 -->
<g id="node26" class="node">
<title>30</title>
<ellipse fill="none" stroke="black" cx="1169" cy="-34" rx="46.59" ry="18"/>
<text text-anchor="middle" x="1169" y="-30.3" font-family="Times,serif" font-size="14.00">Mon (b)</text>
</g>
<!-- 11&#45;&gt;30 -->
<g id="edge25" class="edge">
<title>11&#45;&gt;30</title>
<path fill="none" stroke="black" stroke-dasharray="1,5" d="M1169,-88.81C1169,-80.79 1169,-71.05 1169,-62.07"/>
<polygon fill="black" stroke="black" points="1172.5,-62.03 1169,-52.03 1165.5,-62.03 1172.5,-62.03"/>
</g>
<!-- 12 -->
<g id="node13" class="node">
<title>12</title>
<ellipse fill="none" stroke="black" cx="1169" cy="-180" rx="41.69" ry="18"/>
<text text-anchor="middle" x="1169" y="-176.3" font-family="Times,serif" font-size="14.00">Sin (b)</text>
</g>
<!-- 12&#45;&gt;11 -->
<g id="edge11" class="edge">
<title>12&#45;&gt;11</title>
<path fill="none" stroke="black" stroke-dasharray="1,5" d="M1169,-161.81C1169,-153.79 1169,-144.05 1169,-135.07"/>
<polygon fill="black" stroke="black" points="1172.5,-135.03 1169,-125.03 1165.5,-135.03 1172.5,-135.03"/>
</g>
<!-- 14 -->
<g id="node14" class="node">
<title>14</title>
<ellipse fill="none" stroke="black" cx="804" cy="-565" rx="50.09" ry="18"/>
<text text-anchor="middle" x="804" y="-561.3" font-family="Times,serif" font-size="14.00">V560 (b)</text>
</g>
<!-- 23 -->
<g id="node21" class="node">
<title>23</title>
<ellipse fill="none" stroke="black" cx="804" cy="-482" rx="55.79" ry="18"/>
<text text-anchor="middle" x="804" y="-478.3" font-family="Times,serif" font-size="14.00">V1920 (b)</text>
</g>
<!-- 14&#45;&gt;23 -->
<g id="edge20" class="edge">
<title>14&#45;&gt;23</title>
<path fill="none" stroke="black" stroke-dasharray="5,2" d="M804,-546.82C804,-536.19 804,-522.31 804,-510.2"/>
<polygon fill="black" stroke="black" points="807.5,-510.15 804,-500.15 800.5,-510.15 807.5,-510.15"/>
</g>
<!-- 15 -->
<g id="node15" class="node">
<title>15</title>
<ellipse fill="none" stroke="black" cx="376" cy="-648" rx="50.09" ry="18"/>
<text text-anchor="middle" x="376" y="-644.3" font-family="Times,serif" font-size="14.00">V566 (b)</text>
</g>
<!-- 33 -->
<g id="node29" class="node">
<title>33</title>
<ellipse fill="none" stroke="black" cx="276" cy="-565" rx="55.79" ry="18"/>
<text text-anchor="middle" x="276" y="-561.3" font-family="Times,serif" font-size="14.00">V1639 (b)</text>
</g>
<!-- 15&#45;&gt;33 -->
<g id="edge28" class="edge">
<title>15&#45;&gt;33</title>
<path fill="none" stroke="black" stroke-dasharray="1,5" d="M356.72,-631.38C341.7,-619.21 320.63,-602.15 303.79,-588.51"/>
<polygon fill="black" stroke="black" points="305.88,-585.7 295.91,-582.12 301.47,-591.14 305.88,-585.7"/>
</g>
<!-- 17 -->
<g id="node16" class="node">
<title>17</title>
<ellipse fill="none" stroke="black" cx="1400" cy="-565" rx="49.29" ry="18"/>
<text text-anchor="middle" x="1400" y="-561.3" font-family="Times,serif" font-size="14.00">La35 (b)</text>
</g>
<!-- 18 -->
<g id="node17" class="node">
<title>18</title>
<ellipse fill="none" stroke="black" cx="1517" cy="-565" rx="50.09" ry="18"/>
<text text-anchor="middle" x="1517" y="-561.3" font-family="Times,serif" font-size="14.00">V571 (b)</text>
</g>
<!-- 20 -->
<g id="node18" class="node">
<title>20</title>
<ellipse fill="none" stroke="black" cx="484" cy="-648" rx="40.09" ry="18"/>
<text text-anchor="middle" x="484" y="-644.3" font-family="Times,serif" font-size="14.00">Pal (b)</text>
</g>
<!-- 34 -->
<g id="node30" class="node">
<title>34</title>
<ellipse fill="none" stroke="black" cx="416" cy="-565" rx="65.79" ry="18"/>
<text text-anchor="middle" x="416" y="-561.3" font-family="Times,serif" font-size="14.00">Savile&#45;Η (b)</text>
</g>
<!-- 20&#45;&gt;34 -->
<g id="edge29" class="edge">
<title>20&#45;&gt;34</title>
<path fill="none" stroke="black" d="M470.57,-631C460.89,-619.47 447.64,-603.69 436.63,-590.57"/>
<polygon fill="black" stroke="black" points="439.22,-588.21 430.11,-582.81 433.86,-592.72 439.22,-588.21"/>
</g>
<!-- 21 -->
<g id="node19" class="node">
<title>21</title>
<ellipse fill="none" stroke="black" cx="1635" cy="-565" rx="50.09" ry="18"/>
<text text-anchor="middle" x="1635" y="-561.3" font-family="Times,serif" font-size="14.00">A116 (b)</text>
</g>
<!-- 22 -->
<g id="node20" class="node">
<title>22</title>
<ellipse fill="none" stroke="black" cx="1750" cy="-565" rx="47.39" ry="18"/>
<text text-anchor="middle" x="1750" y="-561.3" font-family="Times,serif" font-size="14.00">Bodl (b)</text>
</g>
<!-- 24 -->
<g id="node22" class="node">
<title>24</title>
<ellipse fill="none" stroke="black" cx="1279" cy="-180" rx="50.09" ry="18"/>
<text text-anchor="middle" x="1279" y="-176.3" font-family="Times,serif" font-size="14.00">V569 (b)</text>
</g>
<!-- 25 -->
<g id="node23" class="node">
<title>25</title>
<ellipse fill="none" stroke="black" cx="586" cy="-731" rx="44.39" ry="18"/>
<text text-anchor="middle" x="586" y="-727.3" font-family="Times,serif" font-size="14.00">A25 (b)</text>
</g>
<!-- 25&#45;&gt;3 -->
<g id="edge3" class="edge">
<title>25&#45;&gt;3</title>
<path fill="none" stroke="black" stroke-dasharray="5,2" d="M547.45,-721.81C495.01,-710.44 398.38,-688.7 317,-666 313.64,-665.06 310.17,-664.05 306.7,-663.01"/>
<polygon fill="black" stroke="black" points="307.55,-659.61 296.96,-660 305.49,-666.3 307.55,-659.61"/>
</g>
<!-- 25&#45;&gt;15 -->
<g id="edge14" class="edge">
<title>25&#45;&gt;15</title>
<path fill="none" stroke="black" stroke-dasharray="5,2" d="M555.01,-718.05C518.86,-704.1 458.89,-680.97 418.43,-665.37"/>
<polygon fill="black" stroke="black" points="419.43,-662 408.84,-661.67 416.92,-668.53 419.43,-662"/>
</g>
<!-- 25&#45;&gt;20 -->
<g id="edge17" class="edge">
<title>25&#45;&gt;20</title>
<path fill="none" stroke="black" stroke-dasharray="5,2" d="M566.81,-714.76C551.14,-702.32 528.8,-684.58 511.27,-670.65"/>
<polygon fill="black" stroke="black" points="513.11,-667.65 503.1,-664.17 508.75,-673.13 513.11,-667.65"/>
</g>
<!-- 31 -->
<g id="node27" class="node">
<title>31</title>
<ellipse fill="none" stroke="black" cx="586" cy="-648" rx="44.39" ry="18"/>
<text text-anchor="middle" x="586" y="-644.3" font-family="Times,serif" font-size="14.00">P01 (b)</text>
</g>
<!-- 25&#45;&gt;31 -->
<g id="edge26" class="edge">
<title>25&#45;&gt;31</title>
<path fill="none" stroke="black" stroke-dasharray="5,2" d="M586,-712.82C586,-702.19 586,-688.31 586,-676.2"/>
<polygon fill="black" stroke="black" points="589.5,-676.15 586,-666.15 582.5,-676.15 589.5,-676.15"/>
</g>
<!-- 35 -->
<g id="node31" class="node">
<title>35</title>
<ellipse fill="none" stroke="black" cx="698" cy="-648" rx="50.09" ry="18"/>
<text text-anchor="middle" x="698" y="-644.3" font-family="Times,serif" font-size="14.00">Patm (b)</text>
</g>
<!-- 25&#45;&gt;35 -->
<g id="edge30" class="edge">
<title>25&#45;&gt;35</title>
<path fill="none" stroke="black" stroke-dasharray="1,5" d="M606.8,-714.95C624.11,-702.44 648.95,-684.47 668.34,-670.45"/>
<polygon fill="black" stroke="black" points="670.49,-673.21 676.55,-664.52 666.39,-667.54 670.49,-673.21"/>
</g>
<!-- 37 -->
<g id="node32" class="node">
<title>37</title>
<ellipse fill="none" stroke="black" cx="843" cy="-648" rx="45.49" ry="18"/>
<text text-anchor="middle" x="843" y="-644.3" font-family="Times,serif" font-size="14.00">Nan (b)</text>
</g>
<!-- 25&#45;&gt;37 -->
<g id="edge31" class="edge">
<title>25&#45;&gt;37</title>
<path fill="none" stroke="black" stroke-dasharray="5,2" d="M619.86,-719.33C665.86,-704.83 748.18,-678.89 798.94,-662.89"/>
<polygon fill="black" stroke="black" points="800.17,-666.17 808.65,-659.83 798.06,-659.49 800.17,-666.17"/>
<text text-anchor="middle" x="732.5" y="-687" font-family="Times,serif" font-size="10.00">2</text>
</g>
<!-- 41 -->
<g id="node35" class="node">
<title>41</title>
<ellipse fill="none" stroke="black" cx="1400" cy="-648" rx="49.29" ry="18"/>
<text text-anchor="middle" x="1400" y="-644.3" font-family="Times,serif" font-size="14.00">La22 (b)</text>
</g>
<!-- 25&#45;&gt;41 -->
<g id="edge34" class="edge">
<title>25&#45;&gt;41</title>
<path fill="none" stroke="black" stroke-dasharray="1,5" d="M628.33,-725.79C763.99,-712.29 1188.05,-670.09 1342.77,-654.7"/>
<polygon fill="black" stroke="black" points="1343.4,-658.15 1353,-653.68 1342.7,-651.18 1343.4,-658.15"/>
</g>
<!-- 27 -->
<g id="node24" class="node">
<title>27</title>
<ellipse fill="none" stroke="black" cx="1400" cy="-180" rx="53.09" ry="18"/>
<text text-anchor="middle" x="1400" y="-176.3" font-family="Times,serif" font-size="14.00">M118 (b)</text>
</g>
<!-- 38 -->
<g id="node33" class="node">
<title>38</title>
<ellipse fill="none" stroke="black" cx="1279" cy="-253" rx="47.39" ry="18"/>
<text text-anchor="middle" x="1279" y="-249.3" font-family="Times,serif" font-size="14.00">Taur (b)</text>
</g>
<!-- 32&#45;&gt;38 -->
<g id="edge32" class="edge">
<title>32&#45;&gt;38</title>
<path fill="none" stroke="black" stroke-dasharray="1,5" d="M1279,-307.81C1279,-299.79 1279,-290.05 1279,-281.07"/>
<polygon fill="black" stroke="black" points="1282.5,-281.03 1279,-271.03 1275.5,-281.03 1282.5,-281.03"/>
</g>
<!-- 35&#45;&gt;4 -->
<g id="edge4" class="edge">
<title>35&#45;&gt;4</title>
<path fill="none" stroke="black" stroke-dasharray="1,5" d="M672.28,-632.33C649.65,-619.42 616.47,-600.5 591.35,-586.16"/>
<polygon fill="black" stroke="black" points="592.91,-583.02 582.49,-581.11 589.44,-589.1 592.91,-583.02"/>
</g>
<!-- 35&#45;&gt;9 -->
<g id="edge9" class="edge">
<title>35&#45;&gt;9</title>
<path fill="none" stroke="black" stroke-dasharray="5,2" d="M694.82,-629.82C692.85,-619.19 690.28,-605.31 688.04,-593.2"/>
<polygon fill="black" stroke="black" points="691.44,-592.35 686.18,-583.15 684.56,-593.62 691.44,-592.35"/>
</g>
<!-- 35&#45;&gt;14 -->
<g id="edge13" class="edge">
<title>35&#45;&gt;14</title>
<path fill="none" stroke="black" stroke-width="2" d="M718.44,-631.38C734.57,-619.06 757.27,-601.71 775.24,-587.98"/>
<polygon fill="black" stroke="black" stroke-width="2" points="777.8,-590.42 783.62,-581.57 773.55,-584.86 777.8,-590.42"/>
<text text-anchor="middle" x="760.5" y="-604" font-family="Times,serif" font-size="10.00">2</text>
</g>
<!-- 37&#45;&gt;6 -->
<g id="edge6" class="edge">
<title>37&#45;&gt;6</title>
<path fill="none" stroke="black" stroke-dasharray="1,5" d="M859.79,-631C872.28,-619.09 889.52,-602.67 903.54,-589.31"/>
<polygon fill="black" stroke="black" points="906.13,-591.68 910.95,-582.25 901.3,-586.61 906.13,-591.68"/>
</g>
<!-- 38&#45;&gt;12 -->
<g id="edge12" class="edge">
<title>38&#45;&gt;12</title>
<path fill="none" stroke="black" stroke-dasharray="1,5" d="M1255.94,-237.12C1239.74,-226.66 1217.88,-212.55 1200.13,-201.09"/>
<polygon fill="black" stroke="black" points="1201.58,-197.86 1191.28,-195.38 1197.78,-203.74 1201.58,-197.86"/>
</g>
<!-- 38&#45;&gt;24 -->
<g id="edge21" class="edge">
<title>38&#45;&gt;24</title>
<path fill="none" stroke="black" stroke-dasharray="5,2" d="M1279,-234.81C1279,-226.79 1279,-217.05 1279,-208.07"/>
<polygon fill="black" stroke="black" points="1282.5,-208.03 1279,-198.03 1275.5,-208.03 1282.5,-208.03"/>
</g>
<!-- 38&#45;&gt;27 -->
<g id="edge23" class="edge">
<title>38&#45;&gt;27</title>
<path fill="none" stroke="black" stroke-dasharray="5,2" d="M1303.78,-237.46C1321.65,-226.98 1345.99,-212.69 1365.72,-201.11"/>
<polygon fill="black" stroke="black" points="1367.57,-204.09 1374.42,-196.01 1364.02,-198.05 1367.57,-204.09"/>
</g>
<!-- 40&#45;&gt;8 -->
<g id="edge8" class="edge">
<title>40&#45;&gt;8</title>
<path fill="none" stroke="black" stroke-dasharray="1,5" d="M1279,-463.81C1279,-455.79 1279,-446.05 1279,-437.07"/>
<polygon fill="black" stroke="black" points="1282.5,-437.03 1279,-427.03 1275.5,-437.03 1282.5,-437.03"/>
</g>
<!-- 41&#45;&gt;2 -->
<g id="edge2" class="edge">
<title>41&#45;&gt;2</title>
<path fill="none" stroke="black" stroke-dasharray="1,5" d="M1356.81,-639.24C1298.06,-628.35 1189.87,-607.17 1099,-583 1095.63,-582.1 1092.16,-581.12 1088.67,-580.1"/>
<polygon fill="black" stroke="black" points="1089.51,-576.69 1078.93,-577.13 1087.47,-583.39 1089.51,-576.69"/>
</g>
<!-- 41&#45;&gt;5 -->
<g id="edge5" class="edge">
<title>41&#45;&gt;5</title>
<path fill="none" stroke="black" stroke-dasharray="5,2" d="M1364.81,-635.22C1321.98,-620.88 1249.58,-596.65 1202.8,-581"/>
<polygon fill="black" stroke="black" points="1203.83,-577.65 1193.23,-577.79 1201.6,-584.29 1203.83,-577.65"/>
</g>
<!-- 41&#45;&gt;10 -->
<g id="edge10" class="edge">
<title>41&#45;&gt;10</title>
<path fill="none" stroke="black" d="M1377.52,-631.95C1358.75,-619.38 1331.75,-601.31 1310.76,-587.26"/>
<polygon fill="black" stroke="black" points="1312.44,-584.17 1302.18,-581.52 1308.54,-589.99 1312.44,-584.17"/>
<text text-anchor="middle" x="1349.5" y="-604" font-family="Times,serif" font-size="10.00">2</text>
</g>
<!-- 41&#45;&gt;17 -->
<g id="edge15" class="edge">
<title>41&#45;&gt;17</title>
<path fill="none" stroke="black" stroke-dasharray="1,5" d="M1400,-629.82C1400,-619.19 1400,-605.31 1400,-593.2"/>
<polygon fill="black" stroke="black" points="1403.5,-593.15 1400,-583.15 1396.5,-593.15 1403.5,-593.15"/>
</g>
<!-- 41&#45;&gt;18 -->
<g id="edge16" class="edge">
<title>41&#45;&gt;18</title>
<path fill="none" stroke="black" stroke-dasharray="1,5" d="M1422.01,-631.76C1440.19,-619.17 1466.22,-601.16 1486.43,-587.17"/>
<polygon fill="black" stroke="black" points="1488.46,-590.01 1494.69,-581.44 1484.48,-584.26 1488.46,-590.01"/>
</g>
<!-- 41&#45;&gt;21 -->
<g id="edge18" class="edge">
<title>41&#45;&gt;21</title>
<path fill="none" stroke="black" stroke-dasharray="5,2" d="M1434.68,-635.05C1476.07,-620.78 1545.36,-596.9 1590.63,-581.29"/>
<polygon fill="black" stroke="black" points="1591.87,-584.57 1600.18,-578 1589.59,-577.95 1591.87,-584.57"/>
</g>
<!-- 41&#45;&gt;22 -->
<g id="edge19" class="edge">
<title>41&#45;&gt;22</title>
<path fill="none" stroke="black" stroke-dasharray="5,2" d="M1442.61,-638.84C1500.03,-627.6 1605.28,-606.08 1694,-583 1697.6,-582.06 1701.32,-581.04 1705.05,-579.99"/>
<polygon fill="black" stroke="black" points="1706.25,-583.29 1714.87,-577.14 1704.29,-576.57 1706.25,-583.29"/>
</g>
<!-- 42 -->
<g id="node36" class="node">
<title>42</title>
<ellipse fill="none" stroke="black" cx="1869" cy="-565" rx="53.09" ry="18"/>
<text text-anchor="middle" x="1869" y="-561.3" font-family="Times,serif" font-size="14.00">M111 (b)</text>
</g>
<!-- 41&#45;&gt;42 -->
<g id="edge35" class="edge">
<title>41&#45;&gt;42</title>
<path fill="none" stroke="black" stroke-dasharray="1,5" d="M1445.96,-641.39C1521.52,-631.8 1676.54,-610.59 1806,-583 1810.61,-582.02 1815.38,-580.91 1820.14,-579.74"/>
<polygon fill="black" stroke="black" points="1821.01,-583.12 1829.84,-577.26 1819.28,-576.34 1821.01,-583.12"/>
</g>
<!-- 42&#45;&gt;7 -->
<g id="edge7" class="edge">
<title>42&#45;&gt;7</title>
<path fill="none" stroke="black" stroke-dasharray="5,2" d="M1869,-546.82C1869,-536.19 1869,-522.31 1869,-510.2"/>
<polygon fill="black" stroke="black" points="1872.5,-510.15 1869,-500.15 1865.5,-510.15 1872.5,-510.15"/>
</g>
<!-- 28 -->
<g id="node37" class="node">
<title>28</title>
<ellipse fill="none" stroke="blue" stroke-dasharray="5,2" cx="586" cy="-805" rx="53.89" ry="18"/>
<text text-anchor="middle" x="586" y="-801.3" font-family="Times,serif" font-size="14.00">aBase (a)</text>
</g>
<!-- 28&#45;&gt;25 -->
<g id="edge22" class="edge">
<title>28&#45;&gt;25</title>
<path fill="none" stroke="blue" stroke-dasharray="5,2" d="M586,-786.94C586,-778.81 586,-768.88 586,-759.7"/>
<polygon fill="blue" stroke="blue" points="589.5,-759.44 586,-749.44 582.5,-759.44 589.5,-759.44"/>
</g>
</g>
</svg>
