<?xml version="1.0" encoding="UTF-8" standalone="no"?>
<!DOCTYPE svg PUBLIC "-//W3C//DTD SVG 1.1//EN"
 "http://www.w3.org/Graphics/SVG/1.1/DTD/svg11.dtd">
<!-- Generated by graphviz version 2.43.0 (0)
 -->
<!-- Title: textual_flow_diagram Pages: 1 -->
<svg width="1584pt" height="307pt"
 viewBox="0.00 0.00 1584.00 307.00" xmlns="http://www.w3.org/2000/svg" xmlns:xlink="http://www.w3.org/1999/xlink">
<g id="graph0" class="graph" transform="scale(1 1) rotate(0) translate(4 303)">
<title>textual_flow_diagram</title>
<polygon fill="white" stroke="transparent" points="-4,4 -4,-303 1580,-303 1580,4 -4,4"/>
<g id="clust1" class="cluster">
<title>cluster_legend</title>
<polygon fill="none" stroke="black" points="8,-237 8,-291 182,-291 182,-237 8,-237"/>
</g>
<g id="clust2" class="cluster">
<title>cluster_plot</title>
</g>
<!-- label -->
<g id="node1" class="node">
<title>label</title>
<text text-anchor="middle" x="95" y="-267.8" font-family="Times,serif" font-size="14.00">adstag1.2.40U58, a</text>
<text text-anchor="middle" x="95" y="-252.8" font-family="Times,serif" font-size="14.00">Con = 3</text>
</g>
<!-- 0 -->
<g id="node2" class="node">
<title>0</title>
<ellipse fill="none" stroke="black" cx="677" cy="-107" rx="52.79" ry="18"/>
<text text-anchor="middle" x="677" y="-103.3" font-family="Times,serif" font-size="14.00">M111 (a)</text>
</g>
<!-- 3 -->
<g id="node4" class="node">
<title>3</title>
<ellipse fill="none" stroke="black" cx="678" cy="-34" rx="50.09" ry="18"/>
<text text-anchor="middle" x="678" y="-30.3" font-family="Times,serif" font-size="14.00">A336 (a)</text>
</g>
<!-- 0&#45;&gt;3 -->
<g id="edge3" class="edge">
<title>0&#45;&gt;3</title>
<path fill="none" stroke="black" stroke-dasharray="5,2" d="M677.24,-88.81C677.36,-80.79 677.49,-71.05 677.62,-62.07"/>
<polygon fill="black" stroke="black" points="681.12,-62.08 677.76,-52.03 674.12,-61.98 681.12,-62.08"/>
</g>
<!-- 2 -->
<g id="node3" class="node">
<title>2</title>
<ellipse fill="none" stroke="black" cx="248" cy="-190" rx="50.09" ry="18"/>
<text text-anchor="middle" x="248" y="-186.3" font-family="Times,serif" font-size="14.00">V560 (a)</text>
</g>
<!-- 4 -->
<g id="node5" class="node">
<title>4</title>
<ellipse fill="none" stroke="black" cx="792" cy="-107" rx="44.39" ry="18"/>
<text text-anchor="middle" x="792" y="-103.3" font-family="Times,serif" font-size="14.00">P74 (a)</text>
</g>
<!-- 7 -->
<g id="node6" class="node">
<title>7</title>
<ellipse fill="none" stroke="black" cx="372" cy="-190" rx="55.79" ry="18"/>
<text text-anchor="middle" x="372" y="-186.3" font-family="Times,serif" font-size="14.00">V1897 (a)</text>
</g>
<!-- 42 -->
<g id="node23" class="node">
<title>42</title>
<ellipse fill="none" stroke="black" cx="241" cy="-107" rx="42.79" ry="18"/>
<text text-anchor="middle" x="241" y="-103.3" font-family="Times,serif" font-size="14.00">Bas (a)</text>
</g>
<!-- 7&#45;&gt;42 -->
<g id="edge21" class="edge">
<title>7&#45;&gt;42</title>
<path fill="none" stroke="black" d="M347.36,-173.76C326.29,-160.74 295.83,-141.9 272.9,-127.73"/>
<polygon fill="black" stroke="black" points="274.56,-124.63 264.21,-122.35 270.88,-130.59 274.56,-124.63"/>
</g>
<!-- 11 -->
<g id="node7" class="node">
<title>11</title>
<ellipse fill="none" stroke="black" cx="613" cy="-264" rx="53.89" ry="18"/>
<text text-anchor="middle" x="613" y="-260.3" font-family="Times,serif" font-size="14.00">aBase (a)</text>
</g>
<!-- 11&#45;&gt;2 -->
<g id="edge2" class="edge">
<title>11&#45;&gt;2</title>
<path fill="none" stroke="black" stroke-width="2" d="M564.72,-255.89C504.15,-246.62 397.28,-229.06 307,-208 302.97,-207.06 298.81,-206.01 294.64,-204.92"/>
<polygon fill="black" stroke="black" stroke-width="2" points="295.55,-201.54 284.99,-202.29 293.71,-208.29 295.55,-201.54"/>
</g>
<!-- 11&#45;&gt;7 -->
<g id="edge5" class="edge">
<title>11&#45;&gt;7</title>
<path fill="none" stroke="black" d="M574.28,-251.43C532.63,-238.99 466.3,-219.17 421.03,-205.65"/>
<polygon fill="black" stroke="black" points="422.01,-202.29 411.43,-202.78 420,-208.99 422.01,-202.29"/>
</g>
<!-- 16 -->
<g id="node9" class="node">
<title>16</title>
<ellipse fill="none" stroke="black" cx="499" cy="-190" rx="52.79" ry="18"/>
<text text-anchor="middle" x="499" y="-186.3" font-family="Times,serif" font-size="14.00">M136 (a)</text>
</g>
<!-- 11&#45;&gt;16 -->
<g id="edge7" class="edge">
<title>11&#45;&gt;16</title>
<path fill="none" stroke="black" stroke-width="2" d="M588.82,-247.73C572.2,-237.23 549.92,-223.16 531.71,-211.66"/>
<polygon fill="black" stroke="black" stroke-width="2" points="533.47,-208.63 523.14,-206.25 529.73,-214.55 533.47,-208.63"/>
</g>
<!-- 19 -->
<g id="node10" class="node">
<title>19</title>
<ellipse fill="none" stroke="black" cx="613" cy="-190" rx="42.79" ry="18"/>
<text text-anchor="middle" x="613" y="-186.3" font-family="Times,serif" font-size="14.00">La2 (a)</text>
</g>
<!-- 11&#45;&gt;19 -->
<g id="edge8" class="edge">
<title>11&#45;&gt;19</title>
<path fill="none" stroke="black" stroke-width="2" d="M613,-245.94C613,-237.81 613,-227.88 613,-218.7"/>
<polygon fill="black" stroke="black" stroke-width="2" points="616.5,-218.44 613,-208.44 609.5,-218.44 616.5,-218.44"/>
</g>
<!-- 22 -->
<g id="node11" class="node">
<title>22</title>
<ellipse fill="none" stroke="black" cx="718" cy="-190" rx="44.39" ry="18"/>
<text text-anchor="middle" x="718" y="-186.3" font-family="Times,serif" font-size="14.00">A25 (a)</text>
</g>
<!-- 11&#45;&gt;22 -->
<g id="edge9" class="edge">
<title>11&#45;&gt;22</title>
<path fill="none" stroke="black" stroke-dasharray="5,2" d="M635.53,-247.55C650.82,-237.07 671.21,-223.08 687.89,-211.65"/>
<polygon fill="black" stroke="black" points="689.96,-214.47 696.23,-205.93 686,-208.7 689.96,-214.47"/>
</g>
<!-- 26 -->
<g id="node13" class="node">
<title>26</title>
<ellipse fill="none" stroke="black" cx="910" cy="-190" rx="48.99" ry="18"/>
<text text-anchor="middle" x="910" y="-186.3" font-family="Times,serif" font-size="14.00">La22 (a)</text>
</g>
<!-- 11&#45;&gt;26 -->
<g id="edge11" class="edge">
<title>11&#45;&gt;26</title>
<path fill="none" stroke="black" stroke-dasharray="5,2" d="M655.24,-252.76C709.32,-239.65 802.9,-216.96 860.34,-203.04"/>
<polygon fill="black" stroke="black" points="861.39,-206.39 870.28,-200.63 859.74,-199.58 861.39,-206.39"/>
</g>
<!-- 36 -->
<g id="node19" class="node">
<title>36</title>
<ellipse fill="none" stroke="black" cx="1386" cy="-190" rx="44.69" ry="18"/>
<text text-anchor="middle" x="1386" y="-186.3" font-family="Times,serif" font-size="14.00">Nan (a)</text>
</g>
<!-- 11&#45;&gt;36 -->
<g id="edge17" class="edge">
<title>11&#45;&gt;36</title>
<path fill="none" stroke="black" d="M664.32,-258.22C803.96,-245.21 1189.87,-209.27 1332.29,-196"/>
<polygon fill="black" stroke="black" points="1332.88,-199.46 1342.51,-195.05 1332.23,-192.49 1332.88,-199.46"/>
</g>
<!-- 15 -->
<g id="node8" class="node">
<title>15</title>
<ellipse fill="none" stroke="black" cx="910" cy="-107" rx="55.79" ry="18"/>
<text text-anchor="middle" x="910" y="-103.3" font-family="Times,serif" font-size="14.00">V2036 (a)</text>
</g>
<!-- 28 -->
<g id="node15" class="node">
<title>28</title>
<ellipse fill="none" stroke="black" cx="346" cy="-107" rx="44.39" ry="18"/>
<text text-anchor="middle" x="346" y="-103.3" font-family="Times,serif" font-size="14.00">S32 (a)</text>
</g>
<!-- 22&#45;&gt;28 -->
<g id="edge13" class="edge">
<title>22&#45;&gt;28</title>
<path fill="none" stroke="black" stroke-dasharray="5,2" d="M685.42,-177.72C678.72,-175.64 671.67,-173.61 665,-172 617.27,-160.47 604.37,-162.46 556,-154 486.1,-141.77 467.81,-142.32 399,-125 395.57,-124.14 392.04,-123.17 388.5,-122.15"/>
<polygon fill="black" stroke="black" points="389.19,-118.71 378.61,-119.18 387.18,-125.41 389.19,-118.71"/>
</g>
<!-- 32 -->
<g id="node18" class="node">
<title>32</title>
<ellipse fill="none" stroke="black" cx="448" cy="-107" rx="40.09" ry="18"/>
<text text-anchor="middle" x="448" y="-103.3" font-family="Times,serif" font-size="14.00">Pal (a)</text>
</g>
<!-- 22&#45;&gt;32 -->
<g id="edge16" class="edge">
<title>22&#45;&gt;32</title>
<path fill="none" stroke="black" stroke-dasharray="5,2" d="M684.7,-178.11C678.18,-176.04 671.39,-173.92 665,-172 590.74,-149.71 570.99,-148.16 497,-125 494.09,-124.09 491.08,-123.12 488.07,-122.12"/>
<polygon fill="black" stroke="black" points="489.08,-118.77 478.49,-118.9 486.85,-125.41 489.08,-118.77"/>
</g>
<!-- 37 -->
<g id="node20" class="node">
<title>37</title>
<ellipse fill="none" stroke="black" cx="556" cy="-107" rx="50.09" ry="18"/>
<text text-anchor="middle" x="556" y="-103.3" font-family="Times,serif" font-size="14.00">V566 (a)</text>
</g>
<!-- 22&#45;&gt;37 -->
<g id="edge18" class="edge">
<title>22&#45;&gt;37</title>
<path fill="none" stroke="black" stroke-dasharray="5,2" d="M691.25,-175.62C664.57,-162.28 623.36,-141.68 593.44,-126.72"/>
<polygon fill="black" stroke="black" points="594.66,-123.42 584.15,-122.08 591.53,-129.68 594.66,-123.42"/>
</g>
<!-- 25 -->
<g id="node12" class="node">
<title>25</title>
<ellipse fill="none" stroke="black" cx="1034" cy="-107" rx="50.09" ry="18"/>
<text text-anchor="middle" x="1034" y="-103.3" font-family="Times,serif" font-size="14.00">V571 (a)</text>
</g>
<!-- 26&#45;&gt;0 -->
<g id="edge1" class="edge">
<title>26&#45;&gt;0</title>
<path fill="none" stroke="black" stroke-dasharray="1,5" d="M875.62,-177.05C834.93,-162.9 767.06,-139.31 722.16,-123.7"/>
<polygon fill="black" stroke="black" points="723.26,-120.38 712.67,-120.4 720.97,-126.99 723.26,-120.38"/>
</g>
<!-- 26&#45;&gt;4 -->
<g id="edge4" class="edge">
<title>26&#45;&gt;4</title>
<path fill="none" stroke="black" stroke-dasharray="1,5" d="M887.81,-173.76C869.23,-161.01 842.55,-142.7 822.06,-128.63"/>
<polygon fill="black" stroke="black" points="823.92,-125.67 813.7,-122.89 819.96,-131.44 823.92,-125.67"/>
</g>
<!-- 26&#45;&gt;15 -->
<g id="edge6" class="edge">
<title>26&#45;&gt;15</title>
<path fill="none" stroke="black" stroke-dasharray="5,2" d="M910,-171.82C910,-161.19 910,-147.31 910,-135.2"/>
<polygon fill="black" stroke="black" points="913.5,-135.15 910,-125.15 906.5,-135.15 913.5,-135.15"/>
</g>
<!-- 26&#45;&gt;25 -->
<g id="edge10" class="edge">
<title>26&#45;&gt;25</title>
<path fill="none" stroke="black" stroke-dasharray="1,5" d="M933.03,-173.95C952.49,-161.25 980.54,-142.92 1002.15,-128.81"/>
<polygon fill="black" stroke="black" points="1004.21,-131.64 1010.67,-123.24 1000.38,-125.78 1004.21,-131.64"/>
</g>
<!-- 27 -->
<g id="node14" class="node">
<title>27</title>
<ellipse fill="none" stroke="black" cx="1151" cy="-107" rx="48.99" ry="18"/>
<text text-anchor="middle" x="1151" y="-103.3" font-family="Times,serif" font-size="14.00">La35 (a)</text>
</g>
<!-- 26&#45;&gt;27 -->
<g id="edge12" class="edge">
<title>26&#45;&gt;27</title>
<path fill="none" stroke="black" stroke-dasharray="1,5" d="M944.79,-177.31C987.5,-162.95 1060.01,-138.58 1106.68,-122.9"/>
<polygon fill="black" stroke="black" points="1107.86,-126.19 1116.22,-119.69 1105.63,-119.56 1107.86,-126.19"/>
</g>
<!-- 41 -->
<g id="node22" class="node">
<title>41</title>
<ellipse fill="none" stroke="black" cx="1265" cy="-107" rx="46.59" ry="18"/>
<text text-anchor="middle" x="1265" y="-103.3" font-family="Times,serif" font-size="14.00">Bodl (a)</text>
</g>
<!-- 26&#45;&gt;41 -->
<g id="edge20" class="edge">
<title>26&#45;&gt;41</title>
<path fill="none" stroke="black" stroke-dasharray="5,2" d="M952.85,-181C1011.14,-169.86 1118.54,-148.37 1209,-125 1212.77,-124.03 1216.66,-122.97 1220.55,-121.86"/>
<polygon fill="black" stroke="black" points="1221.55,-125.22 1230.18,-119.06 1219.6,-118.5 1221.55,-125.22"/>
</g>
<!-- 30 -->
<g id="node16" class="node">
<title>30</title>
<ellipse fill="none" stroke="black" cx="1386" cy="-107" rx="55.79" ry="18"/>
<text text-anchor="middle" x="1386" y="-103.3" font-family="Times,serif" font-size="14.00">V2250 (a)</text>
</g>
<!-- 31 -->
<g id="node17" class="node">
<title>31</title>
<ellipse fill="none" stroke="black" cx="554" cy="-34" rx="55.79" ry="18"/>
<text text-anchor="middle" x="554" y="-30.3" font-family="Times,serif" font-size="14.00">V1639 (a)</text>
</g>
<!-- 36&#45;&gt;30 -->
<g id="edge14" class="edge">
<title>36&#45;&gt;30</title>
<path fill="none" stroke="black" stroke-dasharray="5,2" d="M1386,-171.82C1386,-161.19 1386,-147.31 1386,-135.2"/>
<polygon fill="black" stroke="black" points="1389.5,-135.15 1386,-125.15 1382.5,-135.15 1389.5,-135.15"/>
</g>
<!-- 40 -->
<g id="node21" class="node">
<title>40</title>
<ellipse fill="none" stroke="black" cx="1510" cy="-107" rx="50.09" ry="18"/>
<text text-anchor="middle" x="1510" y="-103.3" font-family="Times,serif" font-size="14.00">V536 (a)</text>
</g>
<!-- 36&#45;&gt;40 -->
<g id="edge19" class="edge">
<title>36&#45;&gt;40</title>
<path fill="none" stroke="black" stroke-width="2" d="M1408.46,-174.33C1427.96,-161.59 1456.43,-142.99 1478.26,-128.73"/>
<polygon fill="black" stroke="black" stroke-width="2" points="1480.41,-131.51 1486.87,-123.11 1476.58,-125.65 1480.41,-131.51"/>
<text text-anchor="middle" x="1458.5" y="-146" font-family="Times,serif" font-size="10.00">3</text>
</g>
<!-- 37&#45;&gt;31 -->
<g id="edge15" class="edge">
<title>37&#45;&gt;31</title>
<path fill="none" stroke="black" stroke-dasharray="1,5" d="M555.52,-88.81C555.29,-80.79 555.02,-71.05 554.76,-62.07"/>
<polygon fill="black" stroke="black" points="558.26,-61.93 554.48,-52.03 551.26,-62.12 558.26,-61.93"/>
</g>
</g>
</svg>
