<?xml version="1.0" encoding="UTF-8" standalone="no"?>
<!DOCTYPE svg PUBLIC "-//W3C//DTD SVG 1.1//EN"
 "http://www.w3.org/Graphics/SVG/1.1/DTD/svg11.dtd">
<!-- Generated by graphviz version 2.43.0 (0)
 -->
<!-- Title: textual_flow_diagram Pages: 1 -->
<svg width="318pt" height="222pt"
 viewBox="0.00 0.00 318.00 222.00" xmlns="http://www.w3.org/2000/svg" xmlns:xlink="http://www.w3.org/1999/xlink">
<g id="graph0" class="graph" transform="scale(1 1) rotate(0) translate(4 218)">
<title>textual_flow_diagram</title>
<polygon fill="white" stroke="transparent" points="-4,4 -4,-218 314,-218 314,4 -4,4"/>
<g id="clust1" class="cluster">
<title>cluster_legend</title>
<polygon fill="none" stroke="black" points="8,-152 8,-206 182,-206 182,-152 8,-152"/>
</g>
<g id="clust2" class="cluster">
<title>cluster_plot</title>
</g>
<!-- label -->
<g id="node1" class="node">
<title>label</title>
<text text-anchor="middle" x="95" y="-182.8" font-family="Times,serif" font-size="14.00">adstag1.3.22U4&#45;6, f</text>
<text text-anchor="middle" x="95" y="-167.8" font-family="Times,serif" font-size="14.00">Con = 5</text>
</g>
<!-- 7 -->
<g id="node2" class="node">
<title>7</title>
<ellipse fill="none" stroke="black" cx="246" cy="-34" rx="44.39" ry="18"/>
<text text-anchor="middle" x="246" y="-30.3" font-family="Times,serif" font-size="14.00">Mon (f)</text>
</g>
<!-- 23 -->
<g id="node3" class="node">
<title>23</title>
<ellipse fill="none" stroke="black" cx="246" cy="-106" rx="48.19" ry="18"/>
<text text-anchor="middle" x="246" y="-102.3" font-family="Times,serif" font-size="14.00">Marc (f)</text>
</g>
<!-- 23&#45;&gt;7 -->
<g id="edge1" class="edge">
<title>23&#45;&gt;7</title>
<path fill="none" stroke="black" stroke-dasharray="1,5" d="M246,-87.7C246,-79.98 246,-70.71 246,-62.11"/>
<polygon fill="black" stroke="black" points="249.5,-62.1 246,-52.1 242.5,-62.1 249.5,-62.1"/>
</g>
<!-- 1 -->
<g id="node4" class="node">
<title>1</title>
<ellipse fill="none" stroke="blue" stroke-dasharray="5,2" cx="246" cy="-179" rx="46.59" ry="18"/>
<text text-anchor="middle" x="246" y="-175.3" font-family="Times,serif" font-size="14.00">Taur (e)</text>
</g>
<!-- 1&#45;&gt;23 -->
<g id="edge2" class="edge">
<title>1&#45;&gt;23</title>
<path fill="none" stroke="blue" stroke-dasharray="1,5" d="M246,-160.81C246,-152.79 246,-143.05 246,-134.07"/>
<polygon fill="blue" stroke="blue" points="249.5,-134.03 246,-124.03 242.5,-134.03 249.5,-134.03"/>
</g>
</g>
</svg>
