<?xml version="1.0" encoding="UTF-8" standalone="no"?>
<!DOCTYPE svg PUBLIC "-//W3C//DTD SVG 1.1//EN"
 "http://www.w3.org/Graphics/SVG/1.1/DTD/svg11.dtd">
<!-- Generated by graphviz version 2.43.0 (0)
 -->
<!-- Title: textual_flow_diagram Pages: 1 -->
<svg width="1492pt" height="390pt"
 viewBox="0.00 0.00 1492.00 390.00" xmlns="http://www.w3.org/2000/svg" xmlns:xlink="http://www.w3.org/1999/xlink">
<g id="graph0" class="graph" transform="scale(1 1) rotate(0) translate(4 386)">
<title>textual_flow_diagram</title>
<polygon fill="white" stroke="transparent" points="-4,4 -4,-386 1488,-386 1488,4 -4,4"/>
<g id="clust1" class="cluster">
<title>cluster_legend</title>
<polygon fill="none" stroke="black" points="8,-320 8,-374 204,-374 204,-320 8,-320"/>
</g>
<g id="clust2" class="cluster">
<title>cluster_plot</title>
</g>
<!-- label -->
<g id="node1" class="node">
<title>label</title>
<text text-anchor="middle" x="106" y="-350.8" font-family="Times,serif" font-size="14.00">adstag1.2.40U48&#45;50, c</text>
<text text-anchor="middle" x="106" y="-335.8" font-family="Times,serif" font-size="14.00">Con = 3</text>
</g>
<!-- 0 -->
<g id="node2" class="node">
<title>0</title>
<ellipse fill="none" stroke="black" cx="272" cy="-190" rx="51.99" ry="18"/>
<text text-anchor="middle" x="272" y="-186.3" font-family="Times,serif" font-size="14.00">M111 (c)</text>
</g>
<!-- 3 -->
<g id="node5" class="node">
<title>3</title>
<ellipse fill="none" stroke="black" cx="272" cy="-107" rx="49.29" ry="18"/>
<text text-anchor="middle" x="272" y="-103.3" font-family="Times,serif" font-size="14.00">A336 (c)</text>
</g>
<!-- 0&#45;&gt;3 -->
<g id="edge4" class="edge">
<title>0&#45;&gt;3</title>
<path fill="none" stroke="black" stroke-dasharray="5,2" d="M272,-171.82C272,-161.19 272,-147.31 272,-135.2"/>
<polygon fill="black" stroke="black" points="275.5,-135.15 272,-125.15 268.5,-135.15 275.5,-135.15"/>
</g>
<!-- 1 -->
<g id="node3" class="node">
<title>1</title>
<ellipse fill="none" stroke="black" cx="391" cy="-190" rx="49.29" ry="18"/>
<text text-anchor="middle" x="391" y="-186.3" font-family="Times,serif" font-size="14.00">Patm (c)</text>
</g>
<!-- 2 -->
<g id="node4" class="node">
<title>2</title>
<ellipse fill="none" stroke="black" cx="390" cy="-107" rx="49.29" ry="18"/>
<text text-anchor="middle" x="390" y="-103.3" font-family="Times,serif" font-size="14.00">V560 (c)</text>
</g>
<!-- 1&#45;&gt;2 -->
<g id="edge3" class="edge">
<title>1&#45;&gt;2</title>
<path fill="none" stroke="black" stroke-width="2" d="M390.79,-171.82C390.66,-161.19 390.49,-147.31 390.34,-135.2"/>
<polygon fill="black" stroke="black" stroke-width="2" points="393.84,-135.11 390.21,-125.15 386.84,-135.2 393.84,-135.11"/>
<text text-anchor="middle" x="393.5" y="-146" font-family="Times,serif" font-size="10.00">2</text>
</g>
<!-- 28 -->
<g id="node15" class="node">
<title>28</title>
<ellipse fill="none" stroke="black" cx="501" cy="-107" rx="43.59" ry="18"/>
<text text-anchor="middle" x="501" y="-103.3" font-family="Times,serif" font-size="14.00">S32 (c)</text>
</g>
<!-- 1&#45;&gt;28 -->
<g id="edge14" class="edge">
<title>1&#45;&gt;28</title>
<path fill="none" stroke="black" stroke-dasharray="5,2" d="M411.95,-173.57C429.03,-161 453.34,-143.1 472.24,-129.18"/>
<polygon fill="black" stroke="black" points="474.52,-131.84 480.5,-123.09 470.37,-126.21 474.52,-131.84"/>
<text text-anchor="middle" x="455.5" y="-146" font-family="Times,serif" font-size="10.00">2</text>
</g>
<!-- 12 -->
<g id="node7" class="node">
<title>12</title>
<ellipse fill="none" stroke="black" cx="390" cy="-34" rx="55.49" ry="18"/>
<text text-anchor="middle" x="390" y="-30.3" font-family="Times,serif" font-size="14.00">V1920 (c)</text>
</g>
<!-- 2&#45;&gt;12 -->
<g id="edge6" class="edge">
<title>2&#45;&gt;12</title>
<path fill="none" stroke="black" stroke-dasharray="5,2" d="M390,-88.81C390,-80.79 390,-71.05 390,-62.07"/>
<polygon fill="black" stroke="black" points="393.5,-62.03 390,-52.03 386.5,-62.03 393.5,-62.03"/>
</g>
<!-- 4 -->
<g id="node6" class="node">
<title>4</title>
<ellipse fill="none" stroke="black" cx="502" cy="-190" rx="43.59" ry="18"/>
<text text-anchor="middle" x="502" y="-186.3" font-family="Times,serif" font-size="14.00">P74 (c)</text>
</g>
<!-- 13 -->
<g id="node8" class="node">
<title>13</title>
<ellipse fill="none" stroke="black" cx="1421" cy="-273" rx="46.29" ry="18"/>
<text text-anchor="middle" x="1421" y="-269.3" font-family="Times,serif" font-size="14.00">Mon (c)</text>
</g>
<!-- 35 -->
<g id="node16" class="node">
<title>35</title>
<ellipse fill="none" stroke="black" cx="1428" cy="-190" rx="40.09" ry="18"/>
<text text-anchor="middle" x="1428" y="-186.3" font-family="Times,serif" font-size="14.00">Sin (c)</text>
</g>
<!-- 13&#45;&gt;35 -->
<g id="edge15" class="edge">
<title>13&#45;&gt;35</title>
<path fill="none" stroke="black" stroke-dasharray="1,5" d="M1422.48,-254.82C1423.4,-244.19 1424.6,-230.31 1425.65,-218.2"/>
<polygon fill="black" stroke="black" points="1429.14,-218.42 1426.52,-208.15 1422.17,-217.81 1429.14,-218.42"/>
</g>
<!-- 15 -->
<g id="node9" class="node">
<title>15</title>
<ellipse fill="none" stroke="black" cx="619" cy="-190" rx="55.49" ry="18"/>
<text text-anchor="middle" x="619" y="-186.3" font-family="Times,serif" font-size="14.00">V2036 (c)</text>
</g>
<!-- 16 -->
<g id="node10" class="node">
<title>16</title>
<ellipse fill="none" stroke="black" cx="744" cy="-190" rx="51.99" ry="18"/>
<text text-anchor="middle" x="744" y="-186.3" font-family="Times,serif" font-size="14.00">M136 (c)</text>
</g>
<!-- 18 -->
<g id="node11" class="node">
<title>18</title>
<ellipse fill="none" stroke="black" cx="863" cy="-190" rx="49.29" ry="18"/>
<text text-anchor="middle" x="863" y="-186.3" font-family="Times,serif" font-size="14.00">V565 (c)</text>
</g>
<!-- 25 -->
<g id="node12" class="node">
<title>25</title>
<ellipse fill="none" stroke="black" cx="980" cy="-190" rx="49.29" ry="18"/>
<text text-anchor="middle" x="980" y="-186.3" font-family="Times,serif" font-size="14.00">V571 (c)</text>
</g>
<!-- 26 -->
<g id="node13" class="node">
<title>26</title>
<ellipse fill="none" stroke="black" cx="790" cy="-273" rx="48.19" ry="18"/>
<text text-anchor="middle" x="790" y="-269.3" font-family="Times,serif" font-size="14.00">La22 (c)</text>
</g>
<!-- 26&#45;&gt;0 -->
<g id="edge1" class="edge">
<title>26&#45;&gt;0</title>
<path fill="none" stroke="black" stroke-dasharray="1,5" d="M743.9,-267.72C661.03,-259.54 481.69,-239.65 333,-208 328.65,-207.07 324.15,-206.02 319.66,-204.89"/>
<polygon fill="black" stroke="black" points="320.45,-201.48 309.89,-202.34 318.68,-208.25 320.45,-201.48"/>
</g>
<!-- 26&#45;&gt;1 -->
<g id="edge2" class="edge">
<title>26&#45;&gt;1</title>
<path fill="none" stroke="black" stroke-dasharray="1,5" d="M746.37,-265.24C681.24,-254.83 554.87,-233.38 449,-208 445.15,-207.08 441.17,-206.06 437.19,-204.99"/>
<polygon fill="black" stroke="black" points="437.93,-201.56 427.36,-202.26 436.06,-208.31 437.93,-201.56"/>
<text text-anchor="middle" x="582.5" y="-229" font-family="Times,serif" font-size="10.00">3</text>
</g>
<!-- 26&#45;&gt;4 -->
<g id="edge5" class="edge">
<title>26&#45;&gt;4</title>
<path fill="none" stroke="black" stroke-dasharray="1,5" d="M751.59,-262.1C704.94,-249.95 623.92,-228.43 555,-208 551.66,-207.01 548.2,-205.96 544.73,-204.89"/>
<polygon fill="black" stroke="black" points="545.6,-201.49 535.01,-201.84 543.5,-208.17 545.6,-201.49"/>
</g>
<!-- 26&#45;&gt;15 -->
<g id="edge8" class="edge">
<title>26&#45;&gt;15</title>
<path fill="none" stroke="black" stroke-dasharray="5,2" d="M761.38,-258.44C733.12,-245.06 689.68,-224.48 658.22,-209.58"/>
<polygon fill="black" stroke="black" points="659.4,-206.26 648.87,-205.15 656.4,-212.59 659.4,-206.26"/>
</g>
<!-- 26&#45;&gt;16 -->
<g id="edge9" class="edge">
<title>26&#45;&gt;16</title>
<path fill="none" stroke="black" d="M780.47,-255.22C774.12,-244.03 765.65,-229.12 758.47,-216.48"/>
<polygon fill="black" stroke="black" points="761.5,-214.73 753.52,-207.76 755.41,-218.19 761.5,-214.73"/>
<text text-anchor="middle" x="772.5" y="-229" font-family="Times,serif" font-size="10.00">2</text>
</g>
<!-- 26&#45;&gt;18 -->
<g id="edge10" class="edge">
<title>26&#45;&gt;18</title>
<path fill="none" stroke="black" stroke-dasharray="5,2" d="M804.77,-255.61C815.26,-243.97 829.51,-228.16 841.29,-215.09"/>
<polygon fill="black" stroke="black" points="844.15,-217.14 848.25,-207.37 838.95,-212.45 844.15,-217.14"/>
</g>
<!-- 26&#45;&gt;25 -->
<g id="edge11" class="edge">
<title>26&#45;&gt;25</title>
<path fill="none" stroke="black" stroke-dasharray="1,5" d="M820.53,-258.99C852.84,-245.21 904,-223.4 939.62,-208.21"/>
<polygon fill="black" stroke="black" points="941.41,-211.26 949.23,-204.12 938.66,-204.82 941.41,-211.26"/>
</g>
<!-- 27 -->
<g id="node14" class="node">
<title>27</title>
<ellipse fill="none" stroke="black" cx="1095" cy="-190" rx="48.19" ry="18"/>
<text text-anchor="middle" x="1095" y="-186.3" font-family="Times,serif" font-size="14.00">La35 (c)</text>
</g>
<!-- 26&#45;&gt;27 -->
<g id="edge13" class="edge">
<title>26&#45;&gt;27</title>
<path fill="none" stroke="black" stroke-dasharray="1,5" d="M829.21,-262.36C878.2,-250.21 964.53,-228.43 1038,-208 1041.59,-207 1045.31,-205.94 1049.04,-204.87"/>
<polygon fill="black" stroke="black" points="1050.26,-208.16 1058.87,-202 1048.29,-201.44 1050.26,-208.16"/>
</g>
<!-- 38 -->
<g id="node17" class="node">
<title>38</title>
<ellipse fill="none" stroke="black" cx="1210" cy="-190" rx="49.29" ry="18"/>
<text text-anchor="middle" x="1210" y="-186.3" font-family="Times,serif" font-size="14.00">A116 (c)</text>
</g>
<!-- 26&#45;&gt;38 -->
<g id="edge16" class="edge">
<title>26&#45;&gt;38</title>
<path fill="none" stroke="black" stroke-dasharray="5,2" d="M834.34,-265.77C902.91,-255.78 1038.59,-234.56 1152,-208 1155.86,-207.1 1159.83,-206.09 1163.82,-205.03"/>
<polygon fill="black" stroke="black" points="1164.94,-208.35 1173.65,-202.32 1163.08,-201.6 1164.94,-208.35"/>
</g>
<!-- 41 -->
<g id="node18" class="node">
<title>41</title>
<ellipse fill="none" stroke="black" cx="1324" cy="-190" rx="46.29" ry="18"/>
<text text-anchor="middle" x="1324" y="-186.3" font-family="Times,serif" font-size="14.00">Bodl (c)</text>
</g>
<!-- 26&#45;&gt;41 -->
<g id="edge17" class="edge">
<title>26&#45;&gt;41</title>
<path fill="none" stroke="black" stroke-dasharray="5,2" d="M836.57,-268.28C922.56,-260.87 1111.73,-241.95 1268,-208 1271.91,-207.15 1275.94,-206.16 1279.96,-205.09"/>
<polygon fill="black" stroke="black" points="1281.19,-208.38 1289.88,-202.32 1279.3,-201.64 1281.19,-208.38"/>
</g>
<!-- 8 -->
<g id="node19" class="node">
<title>8</title>
<ellipse fill="none" stroke="blue" stroke-dasharray="5,2" cx="1421" cy="-347" rx="47.39" ry="18"/>
<text text-anchor="middle" x="1421" y="-343.3" font-family="Times,serif" font-size="14.00">Marc (i)</text>
</g>
<!-- 8&#45;&gt;13 -->
<g id="edge7" class="edge">
<title>8&#45;&gt;13</title>
<path fill="none" stroke="blue" stroke-dasharray="1,5" d="M1421,-328.94C1421,-320.81 1421,-310.88 1421,-301.7"/>
<polygon fill="blue" stroke="blue" points="1424.5,-301.44 1421,-291.44 1417.5,-301.44 1424.5,-301.44"/>
</g>
<!-- 11 -->
<g id="node20" class="node">
<title>11</title>
<ellipse fill="none" stroke="blue" stroke-dasharray="5,2" cx="790" cy="-347" rx="53.89" ry="18"/>
<text text-anchor="middle" x="790" y="-343.3" font-family="Times,serif" font-size="14.00">aBase (a)</text>
</g>
<!-- 11&#45;&gt;26 -->
<g id="edge12" class="edge">
<title>11&#45;&gt;26</title>
<path fill="none" stroke="blue" stroke-dasharray="5,2" d="M790,-328.94C790,-320.81 790,-310.88 790,-301.7"/>
<polygon fill="blue" stroke="blue" points="793.5,-301.44 790,-291.44 786.5,-301.44 793.5,-301.44"/>
</g>
</g>
</svg>
