<?xml version="1.0" encoding="UTF-8" standalone="no"?>
<!DOCTYPE svg PUBLIC "-//W3C//DTD SVG 1.1//EN"
 "http://www.w3.org/Graphics/SVG/1.1/DTD/svg11.dtd">
<!-- Generated by graphviz version 2.43.0 (0)
 -->
<!-- Title: textual_flow_diagram Pages: 1 -->
<svg width="564pt" height="526pt"
 viewBox="0.00 0.00 564.00 526.00" xmlns="http://www.w3.org/2000/svg" xmlns:xlink="http://www.w3.org/1999/xlink">
<g id="graph0" class="graph" transform="scale(1 1) rotate(0) translate(4 522)">
<title>textual_flow_diagram</title>
<polygon fill="white" stroke="transparent" points="-4,4 -4,-522 560,-522 560,4 -4,4"/>
<g id="clust1" class="cluster">
<title>cluster_legend</title>
<polygon fill="none" stroke="black" points="8,-456 8,-510 182,-510 182,-456 8,-456"/>
</g>
<g id="clust2" class="cluster">
<title>cluster_plot</title>
</g>
<!-- label -->
<g id="node1" class="node">
<title>label</title>
<text text-anchor="middle" x="95" y="-486.8" font-family="Times,serif" font-size="14.00">adstag1.2.40U70, b</text>
<text text-anchor="middle" x="95" y="-471.8" font-family="Times,serif" font-size="14.00">Con = 3</text>
</g>
<!-- 6 -->
<g id="node2" class="node">
<title>6</title>
<ellipse fill="none" stroke="black" cx="369" cy="-190" rx="47.39" ry="18"/>
<text text-anchor="middle" x="369" y="-186.3" font-family="Times,serif" font-size="14.00">Taur (b)</text>
</g>
<!-- 8 -->
<g id="node3" class="node">
<title>8</title>
<ellipse fill="none" stroke="black" cx="248" cy="-117" rx="50.09" ry="18"/>
<text text-anchor="middle" x="248" y="-113.3" font-family="Times,serif" font-size="14.00">Marc (b)</text>
</g>
<!-- 6&#45;&gt;8 -->
<g id="edge2" class="edge">
<title>6&#45;&gt;8</title>
<path fill="none" stroke="black" stroke-dasharray="1,5" d="M344.22,-174.46C326.23,-163.91 301.68,-149.5 281.88,-137.88"/>
<polygon fill="black" stroke="black" points="283.56,-134.81 273.16,-132.76 280.01,-140.84 283.56,-134.81"/>
</g>
<!-- 10 -->
<g id="node4" class="node">
<title>10</title>
<ellipse fill="none" stroke="black" cx="369" cy="-117" rx="53.09" ry="18"/>
<text text-anchor="middle" x="369" y="-113.3" font-family="Times,serif" font-size="14.00">M118 (b)</text>
</g>
<!-- 6&#45;&gt;10 -->
<g id="edge3" class="edge">
<title>6&#45;&gt;10</title>
<path fill="none" stroke="black" stroke-dasharray="5,2" d="M369,-171.81C369,-163.79 369,-154.05 369,-145.07"/>
<polygon fill="black" stroke="black" points="372.5,-145.03 369,-135.03 365.5,-145.03 372.5,-145.03"/>
</g>
<!-- 29 -->
<g id="node7" class="node">
<title>29</title>
<ellipse fill="none" stroke="black" cx="490" cy="-117" rx="50.09" ry="18"/>
<text text-anchor="middle" x="490" y="-113.3" font-family="Times,serif" font-size="14.00">V569 (b)</text>
</g>
<!-- 6&#45;&gt;29 -->
<g id="edge6" class="edge">
<title>6&#45;&gt;29</title>
<path fill="none" stroke="black" stroke-dasharray="5,2" d="M393.78,-174.46C411.77,-163.91 436.32,-149.5 456.12,-137.88"/>
<polygon fill="black" stroke="black" points="457.99,-140.84 464.84,-132.76 454.44,-134.81 457.99,-140.84"/>
</g>
<!-- 35 -->
<g id="node9" class="node">
<title>35</title>
<ellipse fill="none" stroke="black" cx="248" cy="-34" rx="41.69" ry="18"/>
<text text-anchor="middle" x="248" y="-30.3" font-family="Times,serif" font-size="14.00">Sin (b)</text>
</g>
<!-- 8&#45;&gt;35 -->
<g id="edge8" class="edge">
<title>8&#45;&gt;35</title>
<path fill="none" stroke="black" stroke-dasharray="1,5" d="M248,-98.82C248,-88.19 248,-74.31 248,-62.2"/>
<polygon fill="black" stroke="black" points="251.5,-62.15 248,-52.15 244.5,-62.15 251.5,-62.15"/>
<text text-anchor="middle" x="251.5" y="-73" font-family="Times,serif" font-size="10.00">2</text>
</g>
<!-- 17 -->
<g id="node5" class="node">
<title>17</title>
<ellipse fill="none" stroke="black" cx="369" cy="-409" rx="50.89" ry="18"/>
<text text-anchor="middle" x="369" y="-405.3" font-family="Times,serif" font-size="14.00">Neap (b)</text>
</g>
<!-- 23 -->
<g id="node6" class="node">
<title>23</title>
<ellipse fill="none" stroke="black" cx="369" cy="-336" rx="55.79" ry="18"/>
<text text-anchor="middle" x="369" y="-332.3" font-family="Times,serif" font-size="14.00">V1629 (b)</text>
</g>
<!-- 17&#45;&gt;23 -->
<g id="edge5" class="edge">
<title>17&#45;&gt;23</title>
<path fill="none" stroke="black" stroke-dasharray="1,5" d="M369,-390.81C369,-382.79 369,-373.05 369,-364.07"/>
<polygon fill="black" stroke="black" points="372.5,-364.03 369,-354.03 365.5,-364.03 372.5,-364.03"/>
</g>
<!-- 33 -->
<g id="node8" class="node">
<title>33</title>
<ellipse fill="none" stroke="black" cx="369" cy="-263" rx="50.09" ry="18"/>
<text text-anchor="middle" x="369" y="-259.3" font-family="Times,serif" font-size="14.00">V568 (b)</text>
</g>
<!-- 23&#45;&gt;33 -->
<g id="edge7" class="edge">
<title>23&#45;&gt;33</title>
<path fill="none" stroke="black" stroke-dasharray="5,2" d="M369,-317.81C369,-309.79 369,-300.05 369,-291.07"/>
<polygon fill="black" stroke="black" points="372.5,-291.03 369,-281.03 365.5,-291.03 372.5,-291.03"/>
</g>
<!-- 33&#45;&gt;6 -->
<g id="edge1" class="edge">
<title>33&#45;&gt;6</title>
<path fill="none" stroke="black" stroke-dasharray="1,5" d="M369,-244.81C369,-236.79 369,-227.05 369,-218.07"/>
<polygon fill="black" stroke="black" points="372.5,-218.03 369,-208.03 365.5,-218.03 372.5,-218.03"/>
</g>
<!-- 11 -->
<g id="node10" class="node">
<title>11</title>
<ellipse fill="none" stroke="blue" stroke-dasharray="5,2" cx="369" cy="-483" rx="53.89" ry="18"/>
<text text-anchor="middle" x="369" y="-479.3" font-family="Times,serif" font-size="14.00">aBase (a)</text>
</g>
<!-- 11&#45;&gt;17 -->
<g id="edge4" class="edge">
<title>11&#45;&gt;17</title>
<path fill="none" stroke="blue" stroke-width="2" d="M369,-464.94C369,-456.81 369,-446.88 369,-437.7"/>
<polygon fill="blue" stroke="blue" stroke-width="2" points="372.5,-437.44 369,-427.44 365.5,-437.44 372.5,-437.44"/>
</g>
</g>
</svg>
