<?xml version="1.0" encoding="UTF-8" standalone="no"?>
<!DOCTYPE svg PUBLIC "-//W3C//DTD SVG 1.1//EN"
 "http://www.w3.org/Graphics/SVG/1.1/DTD/svg11.dtd">
<!-- Generated by graphviz version 2.43.0 (0)
 -->
<!-- Title: textual_flow_diagram Pages: 1 -->
<svg width="581pt" height="510pt"
 viewBox="0.00 0.00 581.00 510.00" xmlns="http://www.w3.org/2000/svg" xmlns:xlink="http://www.w3.org/1999/xlink">
<g id="graph0" class="graph" transform="scale(1 1) rotate(0) translate(4 506)">
<title>textual_flow_diagram</title>
<polygon fill="white" stroke="transparent" points="-4,4 -4,-506 577,-506 577,4 -4,4"/>
<g id="clust1" class="cluster">
<title>cluster_legend</title>
<polygon fill="none" stroke="black" points="8,-440 8,-494 204,-494 204,-440 8,-440"/>
</g>
<g id="clust2" class="cluster">
<title>cluster_plot</title>
</g>
<!-- label -->
<g id="node1" class="node">
<title>label</title>
<text text-anchor="middle" x="106" y="-470.8" font-family="Times,serif" font-size="14.00">adstag1.3.20U30&#45;34, c</text>
<text text-anchor="middle" x="106" y="-455.8" font-family="Times,serif" font-size="14.00">Con = 5</text>
</g>
<!-- 1 -->
<g id="node2" class="node">
<title>1</title>
<ellipse fill="none" stroke="black" cx="393" cy="-250" rx="46.29" ry="18"/>
<text text-anchor="middle" x="393" y="-246.3" font-family="Times,serif" font-size="14.00">Taur (c)</text>
</g>
<!-- 12 -->
<g id="node6" class="node">
<title>12</title>
<ellipse fill="none" stroke="black" cx="272" cy="-178" rx="51.99" ry="18"/>
<text text-anchor="middle" x="272" y="-174.3" font-family="Times,serif" font-size="14.00">M118 (c)</text>
</g>
<!-- 1&#45;&gt;12 -->
<g id="edge5" class="edge">
<title>1&#45;&gt;12</title>
<path fill="none" stroke="black" stroke-dasharray="5,2" d="M368.22,-234.67C350.35,-224.33 326.01,-210.25 306.28,-198.83"/>
<polygon fill="black" stroke="black" points="307.99,-195.78 297.58,-193.8 304.48,-201.83 307.99,-195.78"/>
</g>
<!-- 23 -->
<g id="node9" class="node">
<title>23</title>
<ellipse fill="none" stroke="black" cx="391" cy="-178" rx="49.29" ry="18"/>
<text text-anchor="middle" x="391" y="-174.3" font-family="Times,serif" font-size="14.00">Marc (c)</text>
</g>
<!-- 1&#45;&gt;23 -->
<g id="edge8" class="edge">
<title>1&#45;&gt;23</title>
<path fill="none" stroke="black" stroke-dasharray="1,5" d="M392.51,-231.7C392.29,-223.98 392.02,-214.71 391.77,-206.11"/>
<polygon fill="black" stroke="black" points="395.27,-206 391.49,-196.1 388.28,-206.2 395.27,-206"/>
</g>
<!-- 27 -->
<g id="node10" class="node">
<title>27</title>
<ellipse fill="none" stroke="black" cx="508" cy="-178" rx="49.29" ry="18"/>
<text text-anchor="middle" x="508" y="-174.3" font-family="Times,serif" font-size="14.00">V569 (c)</text>
</g>
<!-- 1&#45;&gt;27 -->
<g id="edge9" class="edge">
<title>1&#45;&gt;27</title>
<path fill="none" stroke="black" stroke-dasharray="5,2" d="M416.83,-234.5C433.68,-224.24 456.48,-210.36 475.07,-199.05"/>
<polygon fill="black" stroke="black" points="477.08,-201.92 483.81,-193.73 473.44,-195.94 477.08,-201.92"/>
</g>
<!-- 3 -->
<g id="node3" class="node">
<title>3</title>
<ellipse fill="none" stroke="black" cx="396" cy="-322" rx="49.29" ry="18"/>
<text text-anchor="middle" x="396" y="-318.3" font-family="Times,serif" font-size="14.00">V568 (c)</text>
</g>
<!-- 3&#45;&gt;1 -->
<g id="edge1" class="edge">
<title>3&#45;&gt;1</title>
<path fill="none" stroke="black" stroke-dasharray="1,5" d="M395.26,-303.7C394.93,-295.98 394.53,-286.71 394.16,-278.11"/>
<polygon fill="black" stroke="black" points="397.66,-277.95 393.73,-268.1 390.66,-278.25 397.66,-277.95"/>
</g>
<!-- 7 -->
<g id="node4" class="node">
<title>7</title>
<ellipse fill="none" stroke="black" cx="391" cy="-106" rx="46.29" ry="18"/>
<text text-anchor="middle" x="391" y="-102.3" font-family="Times,serif" font-size="14.00">Mon (c)</text>
</g>
<!-- 21 -->
<g id="node8" class="node">
<title>21</title>
<ellipse fill="none" stroke="black" cx="391" cy="-34" rx="40.09" ry="18"/>
<text text-anchor="middle" x="391" y="-30.3" font-family="Times,serif" font-size="14.00">Sin (c)</text>
</g>
<!-- 7&#45;&gt;21 -->
<g id="edge7" class="edge">
<title>7&#45;&gt;21</title>
<path fill="none" stroke="black" stroke-dasharray="1,5" d="M391,-87.7C391,-79.98 391,-70.71 391,-62.11"/>
<polygon fill="black" stroke="black" points="394.5,-62.1 391,-52.1 387.5,-62.1 394.5,-62.1"/>
</g>
<!-- 11 -->
<g id="node5" class="node">
<title>11</title>
<ellipse fill="none" stroke="black" cx="275" cy="-394" rx="55.49" ry="18"/>
<text text-anchor="middle" x="275" y="-390.3" font-family="Times,serif" font-size="14.00">V1920 (c)</text>
</g>
<!-- 19 -->
<g id="node7" class="node">
<title>19</title>
<ellipse fill="none" stroke="black" cx="398" cy="-394" rx="49.29" ry="18"/>
<text text-anchor="middle" x="398" y="-390.3" font-family="Times,serif" font-size="14.00">V536 (c)</text>
</g>
<!-- 19&#45;&gt;3 -->
<g id="edge2" class="edge">
<title>19&#45;&gt;3</title>
<path fill="none" stroke="black" stroke-dasharray="1,5" d="M397.51,-375.7C397.29,-367.98 397.02,-358.71 396.77,-350.11"/>
<polygon fill="black" stroke="black" points="400.27,-350 396.49,-340.1 393.28,-350.2 400.27,-350"/>
</g>
<!-- 23&#45;&gt;7 -->
<g id="edge3" class="edge">
<title>23&#45;&gt;7</title>
<path fill="none" stroke="black" stroke-dasharray="1,5" d="M391,-159.7C391,-151.98 391,-142.71 391,-134.11"/>
<polygon fill="black" stroke="black" points="394.5,-134.1 391,-124.1 387.5,-134.1 394.5,-134.1"/>
</g>
<!-- 0 -->
<g id="node11" class="node">
<title>0</title>
<ellipse fill="none" stroke="blue" stroke-dasharray="5,2" cx="398" cy="-467" rx="55.79" ry="18"/>
<text text-anchor="middle" x="398" y="-463.3" font-family="Times,serif" font-size="14.00">V1629 (a)</text>
</g>
<!-- 0&#45;&gt;19 -->
<g id="edge6" class="edge">
<title>0&#45;&gt;19</title>
<path fill="none" stroke="blue" stroke-dasharray="5,2" d="M398,-448.81C398,-440.79 398,-431.05 398,-422.07"/>
<polygon fill="blue" stroke="blue" points="401.5,-422.03 398,-412.03 394.5,-422.03 401.5,-422.03"/>
</g>
<!-- 17 -->
<g id="node12" class="node">
<title>17</title>
<ellipse fill="none" stroke="blue" stroke-dasharray="5,2" cx="274" cy="-467" rx="50.09" ry="18"/>
<text text-anchor="middle" x="274" y="-463.3" font-family="Times,serif" font-size="14.00">V560 (a)</text>
</g>
<!-- 17&#45;&gt;11 -->
<g id="edge4" class="edge">
<title>17&#45;&gt;11</title>
<path fill="none" stroke="blue" stroke-dasharray="5,2" d="M274.24,-448.81C274.36,-440.79 274.49,-431.05 274.62,-422.07"/>
<polygon fill="blue" stroke="blue" points="278.12,-422.08 274.76,-412.03 271.12,-421.98 278.12,-422.08"/>
</g>
</g>
</svg>
