<?xml version="1.0" encoding="UTF-8" standalone="no"?>
<!DOCTYPE svg PUBLIC "-//W3C//DTD SVG 1.1//EN"
 "http://www.w3.org/Graphics/SVG/1.1/DTD/svg11.dtd">
<!-- Generated by graphviz version 2.43.0 (0)
 -->
<!-- Title: textual_flow_diagram Pages: 1 -->
<svg width="667pt" height="294pt"
 viewBox="0.00 0.00 667.00 294.00" xmlns="http://www.w3.org/2000/svg" xmlns:xlink="http://www.w3.org/1999/xlink">
<g id="graph0" class="graph" transform="scale(1 1) rotate(0) translate(4 290)">
<title>textual_flow_diagram</title>
<polygon fill="white" stroke="transparent" points="-4,4 -4,-290 663,-290 663,4 -4,4"/>
<g id="clust1" class="cluster">
<title>cluster_legend</title>
<polygon fill="none" stroke="black" points="8,-224 8,-278 172,-278 172,-224 8,-224"/>
</g>
<g id="clust2" class="cluster">
<title>cluster_plot</title>
</g>
<!-- label -->
<g id="node1" class="node">
<title>label</title>
<text text-anchor="middle" x="90" y="-254.8" font-family="Times,serif" font-size="14.00">adstag1.2.24U4, b</text>
<text text-anchor="middle" x="90" y="-239.8" font-family="Times,serif" font-size="14.00">Con = 1</text>
</g>
<!-- 1 -->
<g id="node2" class="node">
<title>1</title>
<ellipse fill="none" stroke="black" cx="359" cy="-178" rx="41.69" ry="18"/>
<text text-anchor="middle" x="359" y="-174.3" font-family="Times,serif" font-size="14.00">Sin (b)</text>
</g>
<!-- 6 -->
<g id="node4" class="node">
<title>6</title>
<ellipse fill="none" stroke="black" cx="360" cy="-106" rx="50.09" ry="18"/>
<text text-anchor="middle" x="360" y="-102.3" font-family="Times,serif" font-size="14.00">Marc (b)</text>
</g>
<!-- 1&#45;&gt;6 -->
<g id="edge3" class="edge">
<title>1&#45;&gt;6</title>
<path fill="none" stroke="black" stroke-dasharray="1,5" d="M359.25,-159.7C359.36,-151.98 359.49,-142.71 359.61,-134.11"/>
<polygon fill="black" stroke="black" points="363.11,-134.15 359.76,-124.1 356.11,-134.05 363.11,-134.15"/>
</g>
<!-- 4 -->
<g id="node3" class="node">
<title>4</title>
<ellipse fill="none" stroke="black" cx="360" cy="-34" rx="46.59" ry="18"/>
<text text-anchor="middle" x="360" y="-30.3" font-family="Times,serif" font-size="14.00">Mon (b)</text>
</g>
<!-- 6&#45;&gt;4 -->
<g id="edge2" class="edge">
<title>6&#45;&gt;4</title>
<path fill="none" stroke="black" stroke-dasharray="1,5" d="M360,-87.7C360,-79.98 360,-70.71 360,-62.11"/>
<polygon fill="black" stroke="black" points="363.5,-62.1 360,-52.1 356.5,-62.1 363.5,-62.1"/>
</g>
<!-- 18 -->
<g id="node5" class="node">
<title>18</title>
<ellipse fill="none" stroke="black" cx="242" cy="-34" rx="50.09" ry="18"/>
<text text-anchor="middle" x="242" y="-30.3" font-family="Times,serif" font-size="14.00">V568 (b)</text>
</g>
<!-- 19 -->
<g id="node6" class="node">
<title>19</title>
<ellipse fill="none" stroke="black" cx="593" cy="-178" rx="50.09" ry="18"/>
<text text-anchor="middle" x="593" y="-174.3" font-family="Times,serif" font-size="14.00">V566 (b)</text>
</g>
<!-- 24 -->
<g id="node7" class="node">
<title>24</title>
<ellipse fill="none" stroke="black" cx="242" cy="-106" rx="50.09" ry="18"/>
<text text-anchor="middle" x="242" y="-102.3" font-family="Times,serif" font-size="14.00">V536 (b)</text>
</g>
<!-- 24&#45;&gt;18 -->
<g id="edge4" class="edge">
<title>24&#45;&gt;18</title>
<path fill="none" stroke="black" stroke-dasharray="1,5" d="M242,-87.7C242,-79.98 242,-70.71 242,-62.11"/>
<polygon fill="black" stroke="black" points="245.5,-62.1 242,-52.1 238.5,-62.1 245.5,-62.1"/>
</g>
<!-- 28 -->
<g id="node8" class="node">
<title>28</title>
<ellipse fill="none" stroke="black" cx="244" cy="-178" rx="55.79" ry="18"/>
<text text-anchor="middle" x="244" y="-174.3" font-family="Times,serif" font-size="14.00">V1629 (b)</text>
</g>
<!-- 28&#45;&gt;24 -->
<g id="edge6" class="edge">
<title>28&#45;&gt;24</title>
<path fill="none" stroke="black" stroke-dasharray="5,2" d="M243.51,-159.7C243.29,-151.98 243.02,-142.71 242.77,-134.11"/>
<polygon fill="black" stroke="black" points="246.27,-134 242.49,-124.1 239.28,-134.2 246.27,-134"/>
</g>
<!-- 38 -->
<g id="node9" class="node">
<title>38</title>
<ellipse fill="none" stroke="black" cx="472" cy="-178" rx="53.09" ry="18"/>
<text text-anchor="middle" x="472" y="-174.3" font-family="Times,serif" font-size="14.00">M136 (b)</text>
</g>
<!-- 0 -->
<g id="node10" class="node">
<title>0</title>
<ellipse fill="none" stroke="blue" stroke-dasharray="5,2" cx="593" cy="-251" rx="44.39" ry="18"/>
<text text-anchor="middle" x="593" y="-247.3" font-family="Times,serif" font-size="14.00">A25 (a)</text>
</g>
<!-- 0&#45;&gt;19 -->
<g id="edge5" class="edge">
<title>0&#45;&gt;19</title>
<path fill="none" stroke="blue" stroke-dasharray="5,2" d="M593,-232.81C593,-224.79 593,-215.05 593,-206.07"/>
<polygon fill="blue" stroke="blue" points="596.5,-206.03 593,-196.03 589.5,-206.03 596.5,-206.03"/>
</g>
<!-- 11 -->
<g id="node11" class="node">
<title>11</title>
<ellipse fill="none" stroke="blue" stroke-dasharray="5,2" cx="477" cy="-251" rx="53.89" ry="18"/>
<text text-anchor="middle" x="477" y="-247.3" font-family="Times,serif" font-size="14.00">aBase (a)</text>
</g>
<!-- 11&#45;&gt;38 -->
<g id="edge8" class="edge">
<title>11&#45;&gt;38</title>
<path fill="none" stroke="blue" stroke-width="2" d="M475.79,-232.81C475.22,-224.79 474.54,-215.05 473.91,-206.07"/>
<polygon fill="blue" stroke="blue" stroke-width="2" points="477.39,-205.76 473.2,-196.03 470.41,-206.25 477.39,-205.76"/>
</g>
<!-- 14 -->
<g id="node12" class="node">
<title>14</title>
<ellipse fill="none" stroke="blue" stroke-dasharray="5,2" cx="358" cy="-251" rx="46.59" ry="18"/>
<text text-anchor="middle" x="358" y="-247.3" font-family="Times,serif" font-size="14.00">Taur (a)</text>
</g>
<!-- 14&#45;&gt;1 -->
<g id="edge1" class="edge">
<title>14&#45;&gt;1</title>
<path fill="none" stroke="blue" stroke-dasharray="1,5" d="M358.24,-232.81C358.36,-224.79 358.49,-215.05 358.62,-206.07"/>
<polygon fill="blue" stroke="blue" points="362.12,-206.08 358.76,-196.03 355.12,-205.98 362.12,-206.08"/>
</g>
<!-- 23 -->
<g id="node13" class="node">
<title>23</title>
<ellipse fill="none" stroke="blue" stroke-dasharray="5,2" cx="243" cy="-251" rx="50.09" ry="18"/>
<text text-anchor="middle" x="243" y="-247.3" font-family="Times,serif" font-size="14.00">Neap (c)</text>
</g>
<!-- 23&#45;&gt;28 -->
<g id="edge7" class="edge">
<title>23&#45;&gt;28</title>
<path fill="none" stroke="blue" stroke-dasharray="1,5" d="M243.24,-232.81C243.36,-224.79 243.49,-215.05 243.62,-206.07"/>
<polygon fill="blue" stroke="blue" points="247.12,-206.08 243.76,-196.03 240.12,-205.98 247.12,-206.08"/>
</g>
</g>
</svg>
