<?xml version="1.0" encoding="UTF-8" standalone="no"?>
<!DOCTYPE svg PUBLIC "-//W3C//DTD SVG 1.1//EN"
 "http://www.w3.org/Graphics/SVG/1.1/DTD/svg11.dtd">
<!-- Generated by graphviz version 2.43.0 (0)
 -->
<!-- Title: textual_flow_diagram Pages: 1 -->
<svg width="1541pt" height="380pt"
 viewBox="0.00 0.00 1541.00 380.00" xmlns="http://www.w3.org/2000/svg" xmlns:xlink="http://www.w3.org/1999/xlink">
<g id="graph0" class="graph" transform="scale(1 1) rotate(0) translate(4 376)">
<title>textual_flow_diagram</title>
<polygon fill="white" stroke="transparent" points="-4,4 -4,-376 1537,-376 1537,4 -4,4"/>
<g id="clust1" class="cluster">
<title>cluster_legend</title>
<polygon fill="none" stroke="black" points="8,-310 8,-364 182,-364 182,-310 8,-310"/>
</g>
<g id="clust2" class="cluster">
<title>cluster_plot</title>
</g>
<!-- label -->
<g id="node1" class="node">
<title>label</title>
<text text-anchor="middle" x="95" y="-340.8" font-family="Times,serif" font-size="14.00">adstag1.2.10U36, a</text>
<text text-anchor="middle" x="95" y="-325.8" font-family="Times,serif" font-size="14.00">Con = 3</text>
</g>
<!-- 1 -->
<g id="node2" class="node">
<title>1</title>
<ellipse fill="none" stroke="black" cx="1204" cy="-107" rx="64.99" ry="18"/>
<text text-anchor="middle" x="1204" y="-103.3" font-family="Times,serif" font-size="14.00">Savile&#45;Η (a)</text>
</g>
<!-- 3 -->
<g id="node3" class="node">
<title>3</title>
<ellipse fill="none" stroke="black" cx="254" cy="-107" rx="55.79" ry="18"/>
<text text-anchor="middle" x="254" y="-103.3" font-family="Times,serif" font-size="14.00">V2036 (a)</text>
</g>
<!-- 5 -->
<g id="node4" class="node">
<title>5</title>
<ellipse fill="none" stroke="black" cx="442" cy="-180" rx="50.09" ry="18"/>
<text text-anchor="middle" x="442" y="-176.3" font-family="Times,serif" font-size="14.00">Patm (a)</text>
</g>
<!-- 5&#45;&gt;3 -->
<g id="edge2" class="edge">
<title>5&#45;&gt;3</title>
<path fill="none" stroke="black" stroke-dasharray="1,5" d="M408.82,-166.47C378.12,-154.88 332.25,-137.55 298.4,-124.77"/>
<polygon fill="black" stroke="black" points="299.35,-121.38 288.76,-121.13 296.87,-127.93 299.35,-121.38"/>
</g>
<!-- 6 -->
<g id="node5" class="node">
<title>6</title>
<ellipse fill="none" stroke="black" cx="377" cy="-107" rx="48.99" ry="18"/>
<text text-anchor="middle" x="377" y="-103.3" font-family="Times,serif" font-size="14.00">La35 (a)</text>
</g>
<!-- 7 -->
<g id="node6" class="node">
<title>7</title>
<ellipse fill="none" stroke="black" cx="742" cy="-180" rx="44.39" ry="18"/>
<text text-anchor="middle" x="742" y="-176.3" font-family="Times,serif" font-size="14.00">S32 (a)</text>
</g>
<!-- 9 -->
<g id="node7" class="node">
<title>9</title>
<ellipse fill="none" stroke="black" cx="496" cy="-107" rx="52.79" ry="18"/>
<text text-anchor="middle" x="496" y="-103.3" font-family="Times,serif" font-size="14.00">M111 (a)</text>
</g>
<!-- 29 -->
<g id="node18" class="node">
<title>29</title>
<ellipse fill="none" stroke="black" cx="496" cy="-34" rx="50.09" ry="18"/>
<text text-anchor="middle" x="496" y="-30.3" font-family="Times,serif" font-size="14.00">A336 (a)</text>
</g>
<!-- 9&#45;&gt;29 -->
<g id="edge17" class="edge">
<title>9&#45;&gt;29</title>
<path fill="none" stroke="black" stroke-dasharray="5,2" d="M496,-88.81C496,-80.79 496,-71.05 496,-62.07"/>
<polygon fill="black" stroke="black" points="499.5,-62.03 496,-52.03 492.5,-62.03 499.5,-62.03"/>
</g>
<!-- 10 -->
<g id="node8" class="node">
<title>10</title>
<ellipse fill="none" stroke="black" cx="1467" cy="-107" rx="50.09" ry="18"/>
<text text-anchor="middle" x="1467" y="-103.3" font-family="Times,serif" font-size="14.00">V536 (a)</text>
</g>
<!-- 11 -->
<g id="node9" class="node">
<title>11</title>
<ellipse fill="none" stroke="black" cx="740" cy="-253" rx="42.79" ry="18"/>
<text text-anchor="middle" x="740" y="-249.3" font-family="Times,serif" font-size="14.00">La2 (a)</text>
</g>
<!-- 12 -->
<g id="node10" class="node">
<title>12</title>
<ellipse fill="none" stroke="black" cx="617" cy="-107" rx="50.09" ry="18"/>
<text text-anchor="middle" x="617" y="-103.3" font-family="Times,serif" font-size="14.00">A116 (a)</text>
</g>
<!-- 13 -->
<g id="node11" class="node">
<title>13</title>
<ellipse fill="none" stroke="black" cx="853" cy="-180" rx="48.99" ry="18"/>
<text text-anchor="middle" x="853" y="-176.3" font-family="Times,serif" font-size="14.00">La22 (a)</text>
</g>
<!-- 13&#45;&gt;6 -->
<g id="edge4" class="edge">
<title>13&#45;&gt;6</title>
<path fill="none" stroke="black" stroke-dasharray="1,5" d="M817.67,-167.53C810.25,-165.43 802.41,-163.45 795,-162 636.73,-130.97 592.2,-156.41 434,-125 430.07,-124.22 426.02,-123.28 421.97,-122.26"/>
<polygon fill="black" stroke="black" points="422.58,-118.8 412.01,-119.57 420.75,-125.55 422.58,-118.8"/>
</g>
<!-- 13&#45;&gt;9 -->
<g id="edge6" class="edge">
<title>13&#45;&gt;9</title>
<path fill="none" stroke="black" stroke-dasharray="1,5" d="M816.99,-167.66C809.75,-165.6 802.17,-163.6 795,-162 690.96,-138.74 662.24,-147.35 558,-125 553.58,-124.05 549.01,-122.98 544.45,-121.85"/>
<polygon fill="black" stroke="black" points="545.09,-118.4 534.53,-119.29 543.34,-125.17 545.09,-118.4"/>
</g>
<!-- 13&#45;&gt;12 -->
<g id="edge9" class="edge">
<title>13&#45;&gt;12</title>
<path fill="none" stroke="black" stroke-dasharray="5,2" d="M816.38,-167.98C775.34,-155.64 708.68,-135.58 663.86,-122.1"/>
<polygon fill="black" stroke="black" points="664.68,-118.69 654.09,-119.16 662.66,-125.39 664.68,-118.69"/>
</g>
<!-- 15 -->
<g id="node13" class="node">
<title>15</title>
<ellipse fill="none" stroke="black" cx="735" cy="-107" rx="50.09" ry="18"/>
<text text-anchor="middle" x="735" y="-103.3" font-family="Times,serif" font-size="14.00">V571 (a)</text>
</g>
<!-- 13&#45;&gt;15 -->
<g id="edge12" class="edge">
<title>13&#45;&gt;15</title>
<path fill="none" stroke="black" stroke-dasharray="1,5" d="M828.55,-164.29C811.18,-153.84 787.65,-139.68 768.53,-128.18"/>
<polygon fill="black" stroke="black" points="770.2,-125.09 759.82,-122.94 766.59,-131.09 770.2,-125.09"/>
</g>
<!-- 23 -->
<g id="node17" class="node">
<title>23</title>
<ellipse fill="none" stroke="black" cx="853" cy="-107" rx="50.09" ry="18"/>
<text text-anchor="middle" x="853" y="-103.3" font-family="Times,serif" font-size="14.00">V565 (a)</text>
</g>
<!-- 13&#45;&gt;23 -->
<g id="edge16" class="edge">
<title>13&#45;&gt;23</title>
<path fill="none" stroke="black" stroke-dasharray="5,2" d="M853,-161.81C853,-153.79 853,-144.05 853,-135.07"/>
<polygon fill="black" stroke="black" points="856.5,-135.03 853,-125.03 849.5,-135.03 856.5,-135.03"/>
</g>
<!-- 36 -->
<g id="node23" class="node">
<title>36</title>
<ellipse fill="none" stroke="black" cx="965" cy="-107" rx="44.39" ry="18"/>
<text text-anchor="middle" x="965" y="-103.3" font-family="Times,serif" font-size="14.00">P74 (a)</text>
</g>
<!-- 13&#45;&gt;36 -->
<g id="edge21" class="edge">
<title>13&#45;&gt;36</title>
<path fill="none" stroke="black" stroke-dasharray="1,5" d="M876.48,-164.12C893.02,-153.63 915.34,-139.48 933.44,-128.01"/>
<polygon fill="black" stroke="black" points="935.36,-130.93 941.94,-122.62 931.62,-125.02 935.36,-130.93"/>
</g>
<!-- 41 -->
<g id="node26" class="node">
<title>41</title>
<ellipse fill="none" stroke="black" cx="1074" cy="-107" rx="46.59" ry="18"/>
<text text-anchor="middle" x="1074" y="-103.3" font-family="Times,serif" font-size="14.00">Bodl (a)</text>
</g>
<!-- 13&#45;&gt;41 -->
<g id="edge24" class="edge">
<title>13&#45;&gt;41</title>
<path fill="none" stroke="black" stroke-dasharray="5,2" d="M888.51,-167.59C926.91,-155.25 988.2,-135.56 1029.73,-122.22"/>
<polygon fill="black" stroke="black" points="1030.86,-125.54 1039.31,-119.14 1028.72,-118.87 1030.86,-125.54"/>
</g>
<!-- 14 -->
<g id="node12" class="node">
<title>14</title>
<ellipse fill="none" stroke="black" cx="969" cy="-180" rx="40.09" ry="18"/>
<text text-anchor="middle" x="969" y="-176.3" font-family="Times,serif" font-size="14.00">Pal (a)</text>
</g>
<!-- 14&#45;&gt;1 -->
<g id="edge1" class="edge">
<title>14&#45;&gt;1</title>
<path fill="none" stroke="black" d="M999.5,-168.15C1005.61,-166.05 1011.99,-163.91 1018,-162 1062.12,-147.95 1112.59,-133.39 1149.81,-122.94"/>
<polygon fill="black" stroke="black" points="1150.77,-126.3 1159.46,-120.24 1148.89,-119.56 1150.77,-126.3"/>
</g>
<!-- 17 -->
<g id="node14" class="node">
<title>17</title>
<ellipse fill="none" stroke="black" cx="854" cy="-253" rx="52.79" ry="18"/>
<text text-anchor="middle" x="854" y="-249.3" font-family="Times,serif" font-size="14.00">M136 (a)</text>
</g>
<!-- 20 -->
<g id="node15" class="node">
<title>20</title>
<ellipse fill="none" stroke="black" cx="969" cy="-253" rx="44.39" ry="18"/>
<text text-anchor="middle" x="969" y="-249.3" font-family="Times,serif" font-size="14.00">A25 (a)</text>
</g>
<!-- 20&#45;&gt;5 -->
<g id="edge3" class="edge">
<title>20&#45;&gt;5</title>
<path fill="none" stroke="black" stroke-dasharray="1,5" d="M936.76,-240.55C929.97,-238.45 922.8,-236.46 916,-235 768.84,-203.34 591.72,-189.42 501.36,-184"/>
<polygon fill="black" stroke="black" points="501.49,-180.5 491.3,-183.41 501.08,-187.49 501.49,-180.5"/>
</g>
<!-- 20&#45;&gt;7 -->
<g id="edge5" class="edge">
<title>20&#45;&gt;7</title>
<path fill="none" stroke="black" stroke-dasharray="5,2" d="M935.38,-241.14C928.95,-239.08 922.27,-236.96 916,-235 862.34,-218.19 848.66,-214.81 795,-198 791.86,-197.02 788.63,-196 785.37,-194.96"/>
<polygon fill="black" stroke="black" points="786.21,-191.56 775.62,-191.86 784.09,-198.23 786.21,-191.56"/>
</g>
<!-- 20&#45;&gt;13 -->
<g id="edge10" class="edge">
<title>20&#45;&gt;13</title>
<path fill="none" stroke="black" stroke-dasharray="1,5" d="M945.53,-237.63C928.38,-227.14 904.91,-212.77 885.89,-201.13"/>
<polygon fill="black" stroke="black" points="887.59,-198.07 877.24,-195.84 883.94,-204.04 887.59,-198.07"/>
</g>
<!-- 20&#45;&gt;14 -->
<g id="edge11" class="edge">
<title>20&#45;&gt;14</title>
<path fill="none" stroke="black" stroke-dasharray="5,2" d="M969,-234.81C969,-226.79 969,-217.05 969,-208.07"/>
<polygon fill="black" stroke="black" points="972.5,-208.03 969,-198.03 965.5,-208.03 972.5,-208.03"/>
</g>
<!-- 30 -->
<g id="node19" class="node">
<title>30</title>
<ellipse fill="none" stroke="black" cx="1071" cy="-180" rx="44.39" ry="18"/>
<text text-anchor="middle" x="1071" y="-176.3" font-family="Times,serif" font-size="14.00">P01 (a)</text>
</g>
<!-- 20&#45;&gt;30 -->
<g id="edge18" class="edge">
<title>20&#45;&gt;30</title>
<path fill="none" stroke="black" stroke-dasharray="5,2" d="M990.63,-236.94C1005.34,-226.71 1024.98,-213.03 1041.17,-201.77"/>
<polygon fill="black" stroke="black" points="1043.54,-204.38 1049.75,-195.79 1039.54,-198.63 1043.54,-204.38"/>
</g>
<!-- 39 -->
<g id="node25" class="node">
<title>39</title>
<ellipse fill="none" stroke="black" cx="1260" cy="-180" rx="50.09" ry="18"/>
<text text-anchor="middle" x="1260" y="-176.3" font-family="Times,serif" font-size="14.00">V566 (a)</text>
</g>
<!-- 20&#45;&gt;39 -->
<g id="edge23" class="edge">
<title>20&#45;&gt;39</title>
<path fill="none" stroke="black" stroke-dasharray="5,2" d="M1001.95,-240.94C1008.56,-238.86 1015.48,-236.78 1022,-235 1085.15,-217.74 1158.77,-201.65 1207.22,-191.6"/>
<polygon fill="black" stroke="black" points="1208.07,-194.99 1217.16,-189.54 1206.66,-188.14 1208.07,-194.99"/>
</g>
<!-- 22 -->
<g id="node16" class="node">
<title>22</title>
<ellipse fill="none" stroke="black" cx="1081" cy="-253" rx="50.09" ry="18"/>
<text text-anchor="middle" x="1081" y="-249.3" font-family="Times,serif" font-size="14.00">Neap (a)</text>
</g>
<!-- 34 -->
<g id="node21" class="node">
<title>34</title>
<ellipse fill="none" stroke="black" cx="1422" cy="-180" rx="55.79" ry="18"/>
<text text-anchor="middle" x="1422" y="-176.3" font-family="Times,serif" font-size="14.00">V1629 (a)</text>
</g>
<!-- 22&#45;&gt;34 -->
<g id="edge19" class="edge">
<title>22&#45;&gt;34</title>
<path fill="none" stroke="black" stroke-dasharray="1,5" d="M1118,-240.78C1125.26,-238.74 1132.85,-236.71 1140,-235 1216.6,-216.67 1306.08,-200.39 1363.35,-190.62"/>
<polygon fill="black" stroke="black" points="1364.04,-194.06 1373.31,-188.93 1362.87,-187.15 1364.04,-194.06"/>
</g>
<!-- 32 -->
<g id="node20" class="node">
<title>32</title>
<ellipse fill="none" stroke="black" cx="1025" cy="-337" rx="53.89" ry="18"/>
<text text-anchor="middle" x="1025" y="-333.3" font-family="Times,serif" font-size="14.00">aBase (a)</text>
</g>
<!-- 32&#45;&gt;11 -->
<g id="edge8" class="edge">
<title>32&#45;&gt;11</title>
<path fill="none" stroke="black" stroke-width="2" d="M984.02,-325.15C937.35,-312.66 858.92,-291.26 792,-271 788.72,-270.01 785.33,-268.96 781.93,-267.88"/>
<polygon fill="black" stroke="black" stroke-width="2" points="782.98,-264.54 772.38,-264.83 780.84,-271.21 782.98,-264.54"/>
</g>
<!-- 32&#45;&gt;17 -->
<g id="edge13" class="edge">
<title>32&#45;&gt;17</title>
<path fill="none" stroke="black" stroke-width="2" d="M995.6,-321.9C967.13,-308.25 923.8,-287.47 892.57,-272.5"/>
<polygon fill="black" stroke="black" stroke-width="2" points="893.83,-269.22 883.3,-268.05 890.8,-275.53 893.83,-269.22"/>
</g>
<!-- 32&#45;&gt;20 -->
<g id="edge14" class="edge">
<title>32&#45;&gt;20</title>
<path fill="none" stroke="black" stroke-dasharray="5,2" d="M1013.4,-319.01C1005.54,-307.5 995.01,-292.09 986.18,-279.16"/>
<polygon fill="black" stroke="black" points="988.93,-276.97 980.4,-270.69 983.15,-280.92 988.93,-276.97"/>
</g>
<!-- 32&#45;&gt;22 -->
<g id="edge15" class="edge">
<title>32&#45;&gt;22</title>
<path fill="none" stroke="black" stroke-width="2" d="M1036.6,-319.01C1044.46,-307.5 1054.99,-292.09 1063.82,-279.16"/>
<polygon fill="black" stroke="black" stroke-width="2" points="1066.85,-280.92 1069.6,-270.69 1061.07,-276.97 1066.85,-280.92"/>
</g>
<!-- 35 -->
<g id="node22" class="node">
<title>35</title>
<ellipse fill="none" stroke="black" cx="1205" cy="-253" rx="55.79" ry="18"/>
<text text-anchor="middle" x="1205" y="-249.3" font-family="Times,serif" font-size="14.00">V1897 (a)</text>
</g>
<!-- 32&#45;&gt;35 -->
<g id="edge20" class="edge">
<title>32&#45;&gt;35</title>
<path fill="none" stroke="black" d="M1055.53,-322.09C1085.57,-308.41 1131.6,-287.44 1164.64,-272.39"/>
<polygon fill="black" stroke="black" points="1166.36,-275.45 1174.01,-268.12 1163.46,-269.08 1166.36,-275.45"/>
<text text-anchor="middle" x="1128.5" y="-292" font-family="Times,serif" font-size="10.00">2</text>
</g>
<!-- 43 -->
<g id="node27" class="node">
<title>43</title>
<ellipse fill="none" stroke="black" cx="1329" cy="-253" rx="50.09" ry="18"/>
<text text-anchor="middle" x="1329" y="-249.3" font-family="Times,serif" font-size="14.00">S249 (a)</text>
</g>
<!-- 32&#45;&gt;43 -->
<g id="edge25" class="edge">
<title>32&#45;&gt;43</title>
<path fill="none" stroke="black" d="M1066.25,-325.34C1115.01,-312.68 1198.53,-290.77 1270,-271 1273.76,-269.96 1277.66,-268.87 1281.57,-267.76"/>
<polygon fill="black" stroke="black" points="1282.6,-271.11 1291.26,-265 1280.69,-264.37 1282.6,-271.11"/>
</g>
<!-- 34&#45;&gt;10 -->
<g id="edge7" class="edge">
<title>34&#45;&gt;10</title>
<path fill="none" stroke="black" stroke-dasharray="5,2" d="M1432.66,-162.17C1438.1,-153.6 1444.83,-142.99 1450.88,-133.44"/>
<polygon fill="black" stroke="black" points="1454.02,-135.03 1456.41,-124.71 1448.1,-131.28 1454.02,-135.03"/>
</g>
<!-- 37 -->
<g id="node24" class="node">
<title>37</title>
<ellipse fill="none" stroke="black" cx="443" cy="-253" rx="50.09" ry="18"/>
<text text-anchor="middle" x="443" y="-249.3" font-family="Times,serif" font-size="14.00">V569 (a)</text>
</g>
<!-- 45 -->
<g id="node28" class="node">
<title>45</title>
<ellipse fill="none" stroke="black" cx="1343" cy="-107" rx="55.79" ry="18"/>
<text text-anchor="middle" x="1343" y="-103.3" font-family="Times,serif" font-size="14.00">V1639 (a)</text>
</g>
<!-- 39&#45;&gt;45 -->
<g id="edge26" class="edge">
<title>39&#45;&gt;45</title>
<path fill="none" stroke="black" stroke-dasharray="1,5" d="M1278.42,-163.24C1289.55,-153.73 1303.92,-141.43 1316.28,-130.86"/>
<polygon fill="black" stroke="black" points="1318.73,-133.37 1324.06,-124.21 1314.18,-128.05 1318.73,-133.37"/>
</g>
<!-- 38 -->
<g id="node29" class="node">
<title>38</title>
<ellipse fill="none" stroke="blue" stroke-dasharray="5,2" cx="443" cy="-337" rx="46.29" ry="18"/>
<text text-anchor="middle" x="443" y="-333.3" font-family="Times,serif" font-size="14.00">Taur (c)</text>
</g>
<!-- 38&#45;&gt;37 -->
<g id="edge22" class="edge">
<title>38&#45;&gt;37</title>
<path fill="none" stroke="blue" stroke-dasharray="5,2" d="M443,-318.61C443,-307.77 443,-293.6 443,-281.29"/>
<polygon fill="blue" stroke="blue" points="446.5,-281.08 443,-271.08 439.5,-281.08 446.5,-281.08"/>
</g>
</g>
</svg>
