<?xml version="1.0" encoding="UTF-8" standalone="no"?>
<!DOCTYPE svg PUBLIC "-//W3C//DTD SVG 1.1//EN"
 "http://www.w3.org/Graphics/SVG/1.1/DTD/svg11.dtd">
<!-- Generated by graphviz version 2.43.0 (0)
 -->
<!-- Title: textual_flow_diagram Pages: 1 -->
<svg width="1713pt" height="317pt"
 viewBox="0.00 0.00 1713.00 317.00" xmlns="http://www.w3.org/2000/svg" xmlns:xlink="http://www.w3.org/1999/xlink">
<g id="graph0" class="graph" transform="scale(1 1) rotate(0) translate(4 313)">
<title>textual_flow_diagram</title>
<polygon fill="white" stroke="transparent" points="-4,4 -4,-313 1709,-313 1709,4 -4,4"/>
<g id="clust1" class="cluster">
<title>cluster_legend</title>
<polygon fill="none" stroke="black" points="8,-247 8,-301 172,-301 172,-247 8,-247"/>
</g>
<g id="clust2" class="cluster">
<title>cluster_plot</title>
</g>
<!-- label -->
<g id="node1" class="node">
<title>label</title>
<text text-anchor="middle" x="90" y="-277.8" font-family="Times,serif" font-size="14.00">adstag1.3.54U2, a</text>
<text text-anchor="middle" x="90" y="-262.8" font-family="Times,serif" font-size="14.00">Con = 5</text>
</g>
<!-- 1 -->
<g id="node2" class="node">
<title>1</title>
<ellipse fill="none" stroke="black" cx="338" cy="-190" rx="50.09" ry="18"/>
<text text-anchor="middle" x="338" y="-186.3" font-family="Times,serif" font-size="14.00">Patm (a)</text>
</g>
<!-- 11 -->
<g id="node9" class="node">
<title>11</title>
<ellipse fill="none" stroke="black" cx="232" cy="-107" rx="44.39" ry="18"/>
<text text-anchor="middle" x="232" y="-103.3" font-family="Times,serif" font-size="14.00">S32 (a)</text>
</g>
<!-- 1&#45;&gt;11 -->
<g id="edge8" class="edge">
<title>1&#45;&gt;11</title>
<path fill="none" stroke="black" stroke-dasharray="5,2" d="M317.56,-173.38C301.33,-160.98 278.44,-143.49 260.42,-129.72"/>
<polygon fill="black" stroke="black" points="262.09,-126.59 252.02,-123.29 257.84,-132.15 262.09,-126.59"/>
<text text-anchor="middle" x="294.5" y="-146" font-family="Times,serif" font-size="10.00">2</text>
</g>
<!-- 17 -->
<g id="node15" class="node">
<title>17</title>
<ellipse fill="none" stroke="black" cx="338" cy="-107" rx="44.39" ry="18"/>
<text text-anchor="middle" x="338" y="-103.3" font-family="Times,serif" font-size="14.00">P01 (a)</text>
</g>
<!-- 1&#45;&gt;17 -->
<g id="edge14" class="edge">
<title>1&#45;&gt;17</title>
<path fill="none" stroke="black" stroke-dasharray="1,5" d="M338,-171.82C338,-161.19 338,-147.31 338,-135.2"/>
<polygon fill="black" stroke="black" points="341.5,-135.15 338,-125.15 334.5,-135.15 341.5,-135.15"/>
<text text-anchor="middle" x="341.5" y="-146" font-family="Times,serif" font-size="10.00">2</text>
</g>
<!-- 3 -->
<g id="node3" class="node">
<title>3</title>
<ellipse fill="none" stroke="black" cx="444" cy="-107" rx="44.39" ry="18"/>
<text text-anchor="middle" x="444" y="-103.3" font-family="Times,serif" font-size="14.00">P74 (a)</text>
</g>
<!-- 5 -->
<g id="node4" class="node">
<title>5</title>
<ellipse fill="none" stroke="black" cx="707" cy="-190" rx="48.99" ry="18"/>
<text text-anchor="middle" x="707" y="-186.3" font-family="Times,serif" font-size="14.00">La22 (a)</text>
</g>
<!-- 5&#45;&gt;3 -->
<g id="edge2" class="edge">
<title>5&#45;&gt;3</title>
<path fill="none" stroke="black" stroke-dasharray="1,5" d="M670.15,-177.95C628.18,-165.32 557.57,-143.94 497,-125 493.86,-124.02 490.63,-123 487.37,-121.97"/>
<polygon fill="black" stroke="black" points="488.21,-118.56 477.62,-118.87 486.09,-125.23 488.21,-118.56"/>
</g>
<!-- 6 -->
<g id="node5" class="node">
<title>6</title>
<ellipse fill="none" stroke="black" cx="556" cy="-107" rx="50.09" ry="18"/>
<text text-anchor="middle" x="556" y="-103.3" font-family="Times,serif" font-size="14.00">V565 (a)</text>
</g>
<!-- 5&#45;&gt;6 -->
<g id="edge4" class="edge">
<title>5&#45;&gt;6</title>
<path fill="none" stroke="black" stroke-dasharray="5,2" d="M680.35,-174.71C655.63,-161.44 618.66,-141.61 591.46,-127.02"/>
<polygon fill="black" stroke="black" points="593.1,-123.93 582.64,-122.29 589.79,-130.1 593.1,-123.93"/>
</g>
<!-- 9 -->
<g id="node7" class="node">
<title>9</title>
<ellipse fill="none" stroke="black" cx="673" cy="-107" rx="48.99" ry="18"/>
<text text-anchor="middle" x="673" y="-103.3" font-family="Times,serif" font-size="14.00">La35 (a)</text>
</g>
<!-- 5&#45;&gt;9 -->
<g id="edge6" class="edge">
<title>5&#45;&gt;9</title>
<path fill="none" stroke="black" stroke-dasharray="1,5" d="M699.79,-171.82C695.21,-160.9 689.18,-146.55 684.01,-134.22"/>
<polygon fill="black" stroke="black" points="687.18,-132.74 680.08,-124.88 680.73,-135.45 687.18,-132.74"/>
</g>
<!-- 14 -->
<g id="node12" class="node">
<title>14</title>
<ellipse fill="none" stroke="black" cx="790" cy="-107" rx="50.09" ry="18"/>
<text text-anchor="middle" x="790" y="-103.3" font-family="Times,serif" font-size="14.00">V571 (a)</text>
</g>
<!-- 5&#45;&gt;14 -->
<g id="edge11" class="edge">
<title>5&#45;&gt;14</title>
<path fill="none" stroke="black" stroke-dasharray="1,5" d="M723.4,-173C735.6,-161.09 752.43,-144.67 766.12,-131.31"/>
<polygon fill="black" stroke="black" points="768.64,-133.74 773.35,-124.25 763.75,-128.73 768.64,-133.74"/>
</g>
<!-- 24 -->
<g id="node19" class="node">
<title>24</title>
<ellipse fill="none" stroke="black" cx="908" cy="-107" rx="50.09" ry="18"/>
<text text-anchor="middle" x="908" y="-103.3" font-family="Times,serif" font-size="14.00">A116 (a)</text>
</g>
<!-- 5&#45;&gt;24 -->
<g id="edge17" class="edge">
<title>5&#45;&gt;24</title>
<path fill="none" stroke="black" stroke-dasharray="5,2" d="M738.85,-176.17C773.3,-162.28 828.36,-140.09 866.25,-124.83"/>
<polygon fill="black" stroke="black" points="868,-127.89 875.97,-120.91 865.38,-121.4 868,-127.89"/>
</g>
<!-- 32 -->
<g id="node23" class="node">
<title>32</title>
<ellipse fill="none" stroke="black" cx="1023" cy="-107" rx="46.59" ry="18"/>
<text text-anchor="middle" x="1023" y="-103.3" font-family="Times,serif" font-size="14.00">Bodl (a)</text>
</g>
<!-- 5&#45;&gt;32 -->
<g id="edge21" class="edge">
<title>5&#45;&gt;32</title>
<path fill="none" stroke="black" stroke-dasharray="5,2" d="M743.46,-178.01C750.28,-175.98 757.35,-173.91 764,-172 810.53,-158.64 821.81,-153.83 869,-143 912.16,-133.1 923.97,-135.45 967,-125 970.78,-124.08 974.68,-123.06 978.58,-121.98"/>
<polygon fill="black" stroke="black" points="979.57,-125.34 988.22,-119.22 977.64,-118.61 979.57,-125.34"/>
</g>
<!-- 37 -->
<g id="node25" class="node">
<title>37</title>
<ellipse fill="none" stroke="black" cx="1140" cy="-107" rx="52.79" ry="18"/>
<text text-anchor="middle" x="1140" y="-103.3" font-family="Times,serif" font-size="14.00">M111 (a)</text>
</g>
<!-- 5&#45;&gt;37 -->
<g id="edge23" class="edge">
<title>5&#45;&gt;37</title>
<path fill="none" stroke="black" stroke-dasharray="1,5" d="M742.37,-177.6C749.48,-175.55 756.94,-173.57 764,-172 902.17,-141.25 940.56,-154.5 1079,-125 1083.17,-124.11 1087.48,-123.1 1091.79,-122.03"/>
<polygon fill="black" stroke="black" points="1092.98,-125.33 1101.78,-119.43 1091.22,-118.56 1092.98,-125.33"/>
</g>
<!-- 8 -->
<g id="node6" class="node">
<title>8</title>
<ellipse fill="none" stroke="black" cx="1373" cy="-107" rx="55.79" ry="18"/>
<text text-anchor="middle" x="1373" y="-103.3" font-family="Times,serif" font-size="14.00">V1639 (a)</text>
</g>
<!-- 10 -->
<g id="node8" class="node">
<title>10</title>
<ellipse fill="none" stroke="black" cx="826" cy="-190" rx="52.79" ry="18"/>
<text text-anchor="middle" x="826" y="-186.3" font-family="Times,serif" font-size="14.00">LaSM (a)</text>
</g>
<!-- 25 -->
<g id="node20" class="node">
<title>25</title>
<ellipse fill="none" stroke="black" cx="1255" cy="-107" rx="44.39" ry="18"/>
<text text-anchor="middle" x="1255" y="-103.3" font-family="Times,serif" font-size="14.00">B39 (a)</text>
</g>
<!-- 10&#45;&gt;25 -->
<g id="edge18" class="edge">
<title>10&#45;&gt;25</title>
<path fill="none" stroke="black" stroke-dasharray="5,2" d="M864.52,-177.67C872.26,-175.62 880.36,-173.61 888,-172 1026.07,-142.85 1064.59,-157.1 1202,-125 1205.44,-124.2 1208.99,-123.27 1212.53,-122.28"/>
<polygon fill="black" stroke="black" points="1213.84,-125.55 1222.44,-119.36 1211.85,-118.83 1213.84,-125.55"/>
</g>
<!-- 12 -->
<g id="node10" class="node">
<title>12</title>
<ellipse fill="none" stroke="black" cx="947" cy="-190" rx="50.09" ry="18"/>
<text text-anchor="middle" x="947" y="-186.3" font-family="Times,serif" font-size="14.00">V566 (a)</text>
</g>
<!-- 12&#45;&gt;8 -->
<g id="edge5" class="edge">
<title>12&#45;&gt;8</title>
<path fill="none" stroke="black" stroke-dasharray="1,5" d="M983.64,-177.67C991,-175.61 998.71,-173.61 1006,-172 1138.64,-142.69 1175.01,-152.67 1308,-125 1312.68,-124.03 1317.52,-122.93 1322.36,-121.77"/>
<polygon fill="black" stroke="black" points="1323.36,-125.13 1332.23,-119.34 1321.69,-118.34 1323.36,-125.13"/>
</g>
<!-- 13 -->
<g id="node11" class="node">
<title>13</title>
<ellipse fill="none" stroke="black" cx="1071" cy="-190" rx="55.79" ry="18"/>
<text text-anchor="middle" x="1071" y="-186.3" font-family="Times,serif" font-size="14.00">V2036 (a)</text>
</g>
<!-- 15 -->
<g id="node13" class="node">
<title>15</title>
<ellipse fill="none" stroke="black" cx="1195" cy="-190" rx="50.09" ry="18"/>
<text text-anchor="middle" x="1195" y="-186.3" font-family="Times,serif" font-size="14.00">V560 (a)</text>
</g>
<!-- 18 -->
<g id="node16" class="node">
<title>18</title>
<ellipse fill="none" stroke="black" cx="1503" cy="-107" rx="55.79" ry="18"/>
<text text-anchor="middle" x="1503" y="-103.3" font-family="Times,serif" font-size="14.00">V1920 (a)</text>
</g>
<!-- 15&#45;&gt;18 -->
<g id="edge15" class="edge">
<title>15&#45;&gt;18</title>
<path fill="none" stroke="black" stroke-dasharray="5,2" d="M1232.41,-178.04C1239.56,-175.99 1247,-173.9 1254,-172 1335.45,-149.87 1356.28,-146.12 1438,-125 1442.31,-123.89 1446.78,-122.73 1451.26,-121.56"/>
<polygon fill="black" stroke="black" points="1452.26,-124.92 1461.05,-119.01 1450.49,-118.14 1452.26,-124.92"/>
</g>
<!-- 16 -->
<g id="node14" class="node">
<title>16</title>
<ellipse fill="none" stroke="black" cx="1316" cy="-190" rx="52.79" ry="18"/>
<text text-anchor="middle" x="1316" y="-186.3" font-family="Times,serif" font-size="14.00">M136 (a)</text>
</g>
<!-- 19 -->
<g id="node17" class="node">
<title>19</title>
<ellipse fill="none" stroke="black" cx="1633" cy="-107" rx="55.79" ry="18"/>
<text text-anchor="middle" x="1633" y="-103.3" font-family="Times,serif" font-size="14.00">V1629 (a)</text>
</g>
<!-- 16&#45;&gt;19 -->
<g id="edge16" class="edge">
<title>16&#45;&gt;19</title>
<path fill="none" stroke="black" stroke-dasharray="5,2" d="M1355.65,-177.97C1363.07,-175.95 1370.76,-173.89 1378,-172 1462.18,-150.05 1483.7,-146.45 1568,-125 1572.31,-123.9 1576.78,-122.75 1581.27,-121.6"/>
<polygon fill="black" stroke="black" points="1582.26,-124.95 1591.06,-119.06 1580.5,-118.18 1582.26,-124.95"/>
<text text-anchor="middle" x="1495.5" y="-146" font-family="Times,serif" font-size="10.00">2</text>
</g>
<!-- 34 -->
<g id="node24" class="node">
<title>34</title>
<ellipse fill="none" stroke="black" cx="1633" cy="-34" rx="50.09" ry="18"/>
<text text-anchor="middle" x="1633" y="-30.3" font-family="Times,serif" font-size="14.00">V536 (a)</text>
</g>
<!-- 19&#45;&gt;34 -->
<g id="edge22" class="edge">
<title>19&#45;&gt;34</title>
<path fill="none" stroke="black" stroke-dasharray="5,2" d="M1633,-88.81C1633,-80.79 1633,-71.05 1633,-62.07"/>
<polygon fill="black" stroke="black" points="1636.5,-62.03 1633,-52.03 1629.5,-62.03 1636.5,-62.03"/>
</g>
<!-- 20 -->
<g id="node18" class="node">
<title>20</title>
<ellipse fill="none" stroke="black" cx="1103" cy="-274" rx="53.89" ry="18"/>
<text text-anchor="middle" x="1103" y="-270.3" font-family="Times,serif" font-size="14.00">aBase (a)</text>
</g>
<!-- 20&#45;&gt;1 -->
<g id="edge1" class="edge">
<title>20&#45;&gt;1</title>
<path fill="none" stroke="black" d="M1052.51,-267.59C915.9,-252.95 539.64,-212.61 395.35,-197.15"/>
<polygon fill="black" stroke="black" points="395.69,-193.66 385.37,-196.08 394.94,-200.62 395.69,-193.66"/>
</g>
<!-- 20&#45;&gt;5 -->
<g id="edge3" class="edge">
<title>20&#45;&gt;5</title>
<path fill="none" stroke="black" stroke-dasharray="5,2" d="M1055.51,-265.44C989.65,-254.61 867.04,-233.18 764,-208 760.21,-207.08 756.31,-206.05 752.39,-204.98"/>
<polygon fill="black" stroke="black" points="753.3,-201.6 742.73,-202.25 751.4,-208.34 753.3,-201.6"/>
</g>
<!-- 20&#45;&gt;10 -->
<g id="edge7" class="edge">
<title>20&#45;&gt;10</title>
<path fill="none" stroke="black" d="M1063.9,-261.43C1014.06,-246.67 927.93,-221.17 874.11,-205.24"/>
<polygon fill="black" stroke="black" points="875.04,-201.87 864.46,-202.38 873.05,-208.58 875.04,-201.87"/>
</g>
<!-- 20&#45;&gt;12 -->
<g id="edge9" class="edge">
<title>20&#45;&gt;12</title>
<path fill="none" stroke="black" d="M1075.11,-258.34C1049.44,-244.85 1011.22,-224.76 983.2,-210.03"/>
<polygon fill="black" stroke="black" points="984.61,-206.81 974.13,-205.26 981.35,-213.01 984.61,-206.81"/>
<text text-anchor="middle" x="1037.5" y="-229" font-family="Times,serif" font-size="10.00">2</text>
</g>
<!-- 20&#45;&gt;13 -->
<g id="edge10" class="edge">
<title>20&#45;&gt;13</title>
<path fill="none" stroke="black" d="M1096.37,-256.01C1092.04,-244.9 1086.29,-230.17 1081.36,-217.54"/>
<polygon fill="black" stroke="black" points="1084.52,-216.01 1077.62,-207.97 1078,-218.56 1084.52,-216.01"/>
</g>
<!-- 20&#45;&gt;15 -->
<g id="edge12" class="edge">
<title>20&#45;&gt;15</title>
<path fill="none" stroke="black" stroke-width="2" d="M1121.18,-256.8C1135,-244.48 1154.19,-227.37 1169.55,-213.69"/>
<polygon fill="black" stroke="black" stroke-width="2" points="1172.04,-216.15 1177.17,-206.89 1167.38,-210.93 1172.04,-216.15"/>
</g>
<!-- 20&#45;&gt;16 -->
<g id="edge13" class="edge">
<title>20&#45;&gt;16</title>
<path fill="none" stroke="black" stroke-width="2" d="M1137.22,-259.83C1174.05,-245.65 1232.71,-223.06 1272.72,-207.66"/>
<polygon fill="black" stroke="black" stroke-width="2" points="1274.14,-210.87 1282.21,-204.01 1271.62,-204.33 1274.14,-210.87"/>
</g>
<!-- 29 -->
<g id="node21" class="node">
<title>29</title>
<ellipse fill="none" stroke="black" cx="1430" cy="-190" rx="42.79" ry="18"/>
<text text-anchor="middle" x="1430" y="-186.3" font-family="Times,serif" font-size="14.00">La2 (a)</text>
</g>
<!-- 20&#45;&gt;29 -->
<g id="edge19" class="edge">
<title>20&#45;&gt;29</title>
<path fill="none" stroke="black" stroke-width="2" d="M1147.59,-263.67C1202.23,-251.95 1297.48,-230.64 1378,-208 1381.3,-207.07 1384.7,-206.07 1388.12,-205.03"/>
<polygon fill="black" stroke="black" stroke-width="2" points="1389.18,-208.36 1397.67,-202.03 1387.08,-201.68 1389.18,-208.36"/>
</g>
<!-- 31 -->
<g id="node22" class="node">
<title>31</title>
<ellipse fill="none" stroke="black" cx="1531" cy="-190" rx="40.09" ry="18"/>
<text text-anchor="middle" x="1531" y="-186.3" font-family="Times,serif" font-size="14.00">Pal (a)</text>
</g>
<!-- 20&#45;&gt;31 -->
<g id="edge20" class="edge">
<title>20&#45;&gt;31</title>
<path fill="none" stroke="black" d="M1152.91,-267.1C1225.92,-257.86 1365.79,-237.91 1482,-208 1485.14,-207.19 1488.36,-206.28 1491.59,-205.3"/>
<polygon fill="black" stroke="black" points="1492.73,-208.61 1501.18,-202.22 1490.59,-201.94 1492.73,-208.61"/>
<text text-anchor="middle" x="1402.5" y="-229" font-family="Times,serif" font-size="10.00">2</text>
</g>
<!-- 42 -->
<g id="node27" class="node">
<title>42</title>
<ellipse fill="none" stroke="black" cx="1639" cy="-190" rx="50.09" ry="18"/>
<text text-anchor="middle" x="1639" y="-186.3" font-family="Times,serif" font-size="14.00">S249 (a)</text>
</g>
<!-- 20&#45;&gt;42 -->
<g id="edge25" class="edge">
<title>20&#45;&gt;42</title>
<path fill="none" stroke="black" d="M1155.07,-268.97C1243.35,-261.46 1427.64,-242.83 1580,-208 1584.03,-207.08 1588.2,-206.04 1592.37,-204.96"/>
<polygon fill="black" stroke="black" points="1593.29,-208.33 1602.03,-202.34 1591.46,-201.58 1593.29,-208.33"/>
</g>
<!-- 41 -->
<g id="node26" class="node">
<title>41</title>
<ellipse fill="none" stroke="black" cx="1140" cy="-34" rx="50.09" ry="18"/>
<text text-anchor="middle" x="1140" y="-30.3" font-family="Times,serif" font-size="14.00">A336 (a)</text>
</g>
<!-- 37&#45;&gt;41 -->
<g id="edge24" class="edge">
<title>37&#45;&gt;41</title>
<path fill="none" stroke="black" stroke-dasharray="5,2" d="M1140,-88.81C1140,-80.79 1140,-71.05 1140,-62.07"/>
<polygon fill="black" stroke="black" points="1143.5,-62.03 1140,-52.03 1136.5,-62.03 1143.5,-62.03"/>
</g>
</g>
</svg>
