<?xml version="1.0" encoding="UTF-8" standalone="no"?>
<!DOCTYPE svg PUBLIC "-//W3C//DTD SVG 1.1//EN"
 "http://www.w3.org/Graphics/SVG/1.1/DTD/svg11.dtd">
<!-- Generated by graphviz version 2.43.0 (0)
 -->
<!-- Title: textual_flow_diagram Pages: 1 -->
<svg width="2000pt" height="911pt"
 viewBox="0.00 0.00 2000.00 911.00" xmlns="http://www.w3.org/2000/svg" xmlns:xlink="http://www.w3.org/1999/xlink">
<g id="graph0" class="graph" transform="scale(1 1) rotate(0) translate(4 907)">
<title>textual_flow_diagram</title>
<polygon fill="white" stroke="transparent" points="-4,4 -4,-907 1996,-907 1996,4 -4,4"/>
<g id="clust1" class="cluster">
<title>cluster_legend</title>
<polygon fill="none" stroke="black" points="8,-841 8,-895 172,-895 172,-841 8,-841"/>
</g>
<g id="clust2" class="cluster">
<title>cluster_plot</title>
</g>
<!-- label -->
<g id="node1" class="node">
<title>label</title>
<text text-anchor="middle" x="90" y="-871.8" font-family="Times,serif" font-size="14.00">adstag1.2.9U10, b</text>
<text text-anchor="middle" x="90" y="-856.8" font-family="Times,serif" font-size="14.00">Con = 10</text>
</g>
<!-- 0 -->
<g id="node2" class="node">
<title>0</title>
<ellipse fill="none" stroke="black" cx="1274" cy="-326" rx="50.09" ry="18"/>
<text text-anchor="middle" x="1274" y="-322.3" font-family="Times,serif" font-size="14.00">V568 (b)</text>
</g>
<!-- 38 -->
<g id="node34" class="node">
<title>38</title>
<ellipse fill="none" stroke="black" cx="1274" cy="-253" rx="47.39" ry="18"/>
<text text-anchor="middle" x="1274" y="-249.3" font-family="Times,serif" font-size="14.00">Taur (b)</text>
</g>
<!-- 0&#45;&gt;38 -->
<g id="edge33" class="edge">
<title>0&#45;&gt;38</title>
<path fill="none" stroke="black" stroke-dasharray="1,5" d="M1274,-307.81C1274,-299.79 1274,-290.05 1274,-281.07"/>
<polygon fill="black" stroke="black" points="1277.5,-281.03 1274,-271.03 1270.5,-281.03 1277.5,-281.03"/>
</g>
<!-- 3 -->
<g id="node3" class="node">
<title>3</title>
<ellipse fill="none" stroke="black" cx="244" cy="-628" rx="55.79" ry="18"/>
<text text-anchor="middle" x="244" y="-624.3" font-family="Times,serif" font-size="14.00">V2036 (b)</text>
</g>
<!-- 4 -->
<g id="node4" class="node">
<title>4</title>
<ellipse fill="none" stroke="black" cx="1144" cy="-545" rx="61.19" ry="18"/>
<text text-anchor="middle" x="1144" y="-541.3" font-family="Times,serif" font-size="14.00">LaSM&#45;c (b)</text>
</g>
<!-- 5 -->
<g id="node5" class="node">
<title>5</title>
<ellipse fill="none" stroke="black" cx="432" cy="-711" rx="50.09" ry="18"/>
<text text-anchor="middle" x="432" y="-707.3" font-family="Times,serif" font-size="14.00">Patm (b)</text>
</g>
<!-- 5&#45;&gt;3 -->
<g id="edge2" class="edge">
<title>5&#45;&gt;3</title>
<path fill="none" stroke="black" stroke-dasharray="1,5" d="M400.96,-696.62C369.4,-683.03 320.33,-661.89 285.47,-646.87"/>
<polygon fill="black" stroke="black" points="286.6,-643.54 276.03,-642.8 283.83,-649.97 286.6,-643.54"/>
</g>
<!-- 21 -->
<g id="node20" class="node">
<title>21</title>
<ellipse fill="none" stroke="black" cx="371" cy="-628" rx="53.09" ry="18"/>
<text text-anchor="middle" x="371" y="-624.3" font-family="Times,serif" font-size="14.00">LaSM (b)</text>
</g>
<!-- 5&#45;&gt;21 -->
<g id="edge19" class="edge">
<title>5&#45;&gt;21</title>
<path fill="none" stroke="black" stroke-dasharray="5,2" d="M419.36,-693.22C410.85,-681.92 399.49,-666.83 389.91,-654.11"/>
<polygon fill="black" stroke="black" points="392.43,-651.64 383.62,-645.76 386.84,-655.86 392.43,-651.64"/>
</g>
<!-- 25 -->
<g id="node24" class="node">
<title>25</title>
<ellipse fill="none" stroke="black" cx="492" cy="-628" rx="50.09" ry="18"/>
<text text-anchor="middle" x="492" y="-624.3" font-family="Times,serif" font-size="14.00">V560 (b)</text>
</g>
<!-- 5&#45;&gt;25 -->
<g id="edge23" class="edge">
<title>5&#45;&gt;25</title>
<path fill="none" stroke="black" stroke-width="2" d="M444.43,-693.22C452.85,-681.85 464.13,-666.63 473.59,-653.86"/>
<polygon fill="black" stroke="black" stroke-width="2" points="476.65,-655.6 479.79,-645.48 471.02,-651.44 476.65,-655.6"/>
<text text-anchor="middle" x="468.5" y="-667" font-family="Times,serif" font-size="10.00">2</text>
</g>
<!-- 6 -->
<g id="node6" class="node">
<title>6</title>
<ellipse fill="none" stroke="black" cx="609" cy="-628" rx="49.29" ry="18"/>
<text text-anchor="middle" x="609" y="-624.3" font-family="Times,serif" font-size="14.00">La35 (b)</text>
</g>
<!-- 7 -->
<g id="node7" class="node">
<title>7</title>
<ellipse fill="none" stroke="black" cx="1084" cy="-711" rx="44.39" ry="18"/>
<text text-anchor="middle" x="1084" y="-707.3" font-family="Times,serif" font-size="14.00">S32 (b)</text>
</g>
<!-- 8 -->
<g id="node8" class="node">
<title>8</title>
<ellipse fill="none" stroke="black" cx="1660" cy="-628" rx="55.79" ry="18"/>
<text text-anchor="middle" x="1660" y="-624.3" font-family="Times,serif" font-size="14.00">V2250 (b)</text>
</g>
<!-- 9 -->
<g id="node9" class="node">
<title>9</title>
<ellipse fill="none" stroke="black" cx="730" cy="-628" rx="53.09" ry="18"/>
<text text-anchor="middle" x="730" y="-624.3" font-family="Times,serif" font-size="14.00">M111 (b)</text>
</g>
<!-- 29 -->
<g id="node27" class="node">
<title>29</title>
<ellipse fill="none" stroke="black" cx="730" cy="-545" rx="50.09" ry="18"/>
<text text-anchor="middle" x="730" y="-541.3" font-family="Times,serif" font-size="14.00">A336 (b)</text>
</g>
<!-- 9&#45;&gt;29 -->
<g id="edge26" class="edge">
<title>9&#45;&gt;29</title>
<path fill="none" stroke="black" stroke-dasharray="5,2" d="M730,-609.82C730,-599.19 730,-585.31 730,-573.2"/>
<polygon fill="black" stroke="black" points="733.5,-573.15 730,-563.15 726.5,-573.15 733.5,-573.15"/>
</g>
<!-- 10 -->
<g id="node10" class="node">
<title>10</title>
<ellipse fill="none" stroke="black" cx="1274" cy="-399" rx="50.09" ry="18"/>
<text text-anchor="middle" x="1274" y="-395.3" font-family="Times,serif" font-size="14.00">V536 (b)</text>
</g>
<!-- 10&#45;&gt;0 -->
<g id="edge1" class="edge">
<title>10&#45;&gt;0</title>
<path fill="none" stroke="black" stroke-dasharray="1,5" d="M1274,-380.81C1274,-372.79 1274,-363.05 1274,-354.07"/>
<polygon fill="black" stroke="black" points="1277.5,-354.03 1274,-344.03 1270.5,-354.03 1277.5,-354.03"/>
</g>
<!-- 11 -->
<g id="node11" class="node">
<title>11</title>
<ellipse fill="none" stroke="black" cx="845" cy="-628" rx="43.59" ry="18"/>
<text text-anchor="middle" x="845" y="-624.3" font-family="Times,serif" font-size="14.00">La2 (b)</text>
</g>
<!-- 12 -->
<g id="node12" class="node">
<title>12</title>
<ellipse fill="none" stroke="black" cx="957" cy="-628" rx="50.09" ry="18"/>
<text text-anchor="middle" x="957" y="-624.3" font-family="Times,serif" font-size="14.00">A116 (b)</text>
</g>
<!-- 13 -->
<g id="node13" class="node">
<title>13</title>
<ellipse fill="none" stroke="black" cx="1196" cy="-711" rx="49.29" ry="18"/>
<text text-anchor="middle" x="1196" y="-707.3" font-family="Times,serif" font-size="14.00">La22 (b)</text>
</g>
<!-- 13&#45;&gt;6 -->
<g id="edge5" class="edge">
<title>13&#45;&gt;6</title>
<path fill="none" stroke="black" stroke-dasharray="1,5" d="M1160.4,-698.45C1152.75,-696.33 1144.66,-694.37 1137,-693 1027.77,-673.53 998.38,-686.26 888,-675 789.89,-665 764.54,-666.15 668,-646 663.83,-645.13 659.53,-644.12 655.23,-643.03"/>
<polygon fill="black" stroke="black" points="655.86,-639.57 645.3,-640.38 654.06,-646.34 655.86,-639.57"/>
</g>
<!-- 13&#45;&gt;9 -->
<g id="edge8" class="edge">
<title>13&#45;&gt;9</title>
<path fill="none" stroke="black" stroke-dasharray="1,5" d="M1160.04,-698.59C1152.49,-696.49 1144.53,-694.49 1137,-693 1066.38,-678.98 1047.36,-684.61 976,-675 893.95,-663.95 872.93,-663.42 792,-646 787.65,-645.06 783.15,-644.01 778.65,-642.89"/>
<polygon fill="black" stroke="black" points="779.42,-639.47 768.86,-640.37 777.67,-646.25 779.42,-639.47"/>
</g>
<!-- 13&#45;&gt;11 -->
<g id="edge10" class="edge">
<title>13&#45;&gt;11</title>
<path fill="none" stroke="black" d="M1159.31,-698.9C1151.95,-696.82 1144.25,-694.75 1137,-693 1031.78,-667.55 1002.83,-673.02 898,-646 894.57,-645.12 891.04,-644.14 887.51,-643.11"/>
<polygon fill="black" stroke="black" points="888.21,-639.67 877.62,-640.12 886.18,-646.37 888.21,-639.67"/>
<text text-anchor="middle" x="1048.5" y="-667" font-family="Times,serif" font-size="10.00">2</text>
</g>
<!-- 13&#45;&gt;12 -->
<g id="edge11" class="edge">
<title>13&#45;&gt;12</title>
<path fill="none" stroke="black" stroke-dasharray="5,2" d="M1160.99,-698.14C1118.83,-683.85 1047.95,-659.83 1001.83,-644.19"/>
<polygon fill="black" stroke="black" points="1002.7,-640.79 992.1,-640.9 1000.45,-647.42 1002.7,-640.79"/>
</g>
<!-- 15 -->
<g id="node15" class="node">
<title>15</title>
<ellipse fill="none" stroke="black" cx="1075" cy="-628" rx="50.09" ry="18"/>
<text text-anchor="middle" x="1075" y="-624.3" font-family="Times,serif" font-size="14.00">V571 (b)</text>
</g>
<!-- 13&#45;&gt;15 -->
<g id="edge14" class="edge">
<title>13&#45;&gt;15</title>
<path fill="none" stroke="black" stroke-dasharray="1,5" d="M1173.52,-694.95C1154.54,-682.25 1127.16,-663.92 1106.08,-649.81"/>
<polygon fill="black" stroke="black" points="1108.02,-646.89 1097.77,-644.24 1104.13,-652.71 1108.02,-646.89"/>
</g>
<!-- 17 -->
<g id="node17" class="node">
<title>17</title>
<ellipse fill="none" stroke="black" cx="1196" cy="-628" rx="53.09" ry="18"/>
<text text-anchor="middle" x="1196" y="-624.3" font-family="Times,serif" font-size="14.00">M136 (b)</text>
</g>
<!-- 13&#45;&gt;17 -->
<g id="edge16" class="edge">
<title>13&#45;&gt;17</title>
<path fill="none" stroke="black" d="M1196,-692.82C1196,-682.19 1196,-668.31 1196,-656.2"/>
<polygon fill="black" stroke="black" points="1199.5,-656.15 1196,-646.15 1192.5,-656.15 1199.5,-656.15"/>
<text text-anchor="middle" x="1199.5" y="-667" font-family="Times,serif" font-size="10.00">2</text>
</g>
<!-- 23 -->
<g id="node22" class="node">
<title>23</title>
<ellipse fill="none" stroke="black" cx="1317" cy="-628" rx="50.09" ry="18"/>
<text text-anchor="middle" x="1317" y="-624.3" font-family="Times,serif" font-size="14.00">V565 (b)</text>
</g>
<!-- 13&#45;&gt;23 -->
<g id="edge21" class="edge">
<title>13&#45;&gt;23</title>
<path fill="none" stroke="black" stroke-dasharray="5,2" d="M1218.48,-694.95C1237.46,-682.25 1264.84,-663.92 1285.92,-649.81"/>
<polygon fill="black" stroke="black" points="1287.87,-652.71 1294.23,-644.24 1283.98,-646.89 1287.87,-652.71"/>
</g>
<!-- 36 -->
<g id="node32" class="node">
<title>36</title>
<ellipse fill="none" stroke="black" cx="1429" cy="-628" rx="44.39" ry="18"/>
<text text-anchor="middle" x="1429" y="-624.3" font-family="Times,serif" font-size="14.00">P74 (b)</text>
</g>
<!-- 13&#45;&gt;36 -->
<g id="edge31" class="edge">
<title>13&#45;&gt;36</title>
<path fill="none" stroke="black" stroke-dasharray="1,5" d="M1230.38,-698.05C1271.92,-683.61 1341.81,-659.31 1386.64,-643.73"/>
<polygon fill="black" stroke="black" points="1388.06,-646.94 1396.36,-640.35 1385.77,-640.32 1388.06,-646.94"/>
</g>
<!-- 41 -->
<g id="node37" class="node">
<title>41</title>
<ellipse fill="none" stroke="black" cx="1539" cy="-628" rx="47.39" ry="18"/>
<text text-anchor="middle" x="1539" y="-624.3" font-family="Times,serif" font-size="14.00">Bodl (b)</text>
</g>
<!-- 13&#45;&gt;41 -->
<g id="edge36" class="edge">
<title>13&#45;&gt;41</title>
<path fill="none" stroke="black" stroke-dasharray="5,2" d="M1236.85,-700.86C1315.7,-683.23 1481.25,-646.2 1482,-646 1485.83,-645 1489.78,-643.92 1493.74,-642.81"/>
<polygon fill="black" stroke="black" points="1494.89,-646.12 1503.53,-639.99 1492.95,-639.39 1494.89,-646.12"/>
</g>
<!-- 14 -->
<g id="node14" class="node">
<title>14</title>
<ellipse fill="none" stroke="black" cx="1321" cy="-711" rx="40.09" ry="18"/>
<text text-anchor="middle" x="1321" y="-707.3" font-family="Times,serif" font-size="14.00">Pal (b)</text>
</g>
<!-- 16 -->
<g id="node16" class="node">
<title>16</title>
<ellipse fill="none" stroke="black" cx="1164" cy="-180" rx="41.69" ry="18"/>
<text text-anchor="middle" x="1164" y="-176.3" font-family="Times,serif" font-size="14.00">Sin (b)</text>
</g>
<!-- 31 -->
<g id="node29" class="node">
<title>31</title>
<ellipse fill="none" stroke="black" cx="1164" cy="-107" rx="50.09" ry="18"/>
<text text-anchor="middle" x="1164" y="-103.3" font-family="Times,serif" font-size="14.00">Marc (b)</text>
</g>
<!-- 16&#45;&gt;31 -->
<g id="edge28" class="edge">
<title>16&#45;&gt;31</title>
<path fill="none" stroke="black" stroke-dasharray="1,5" d="M1164,-161.81C1164,-153.79 1164,-144.05 1164,-135.07"/>
<polygon fill="black" stroke="black" points="1167.5,-135.03 1164,-125.03 1160.5,-135.03 1167.5,-135.03"/>
</g>
<!-- 17&#45;&gt;4 -->
<g id="edge3" class="edge">
<title>17&#45;&gt;4</title>
<path fill="none" stroke="black" stroke-dasharray="5,2" d="M1185.23,-610.22C1178.04,-599.03 1168.47,-584.12 1160.36,-571.48"/>
<polygon fill="black" stroke="black" points="1163.11,-569.29 1154.76,-562.76 1157.22,-573.07 1163.11,-569.29"/>
</g>
<!-- 22 -->
<g id="node21" class="node">
<title>22</title>
<ellipse fill="none" stroke="black" cx="1274" cy="-545" rx="50.89" ry="18"/>
<text text-anchor="middle" x="1274" y="-541.3" font-family="Times,serif" font-size="14.00">Neap (b)</text>
</g>
<!-- 17&#45;&gt;22 -->
<g id="edge20" class="edge">
<title>17&#45;&gt;22</title>
<path fill="none" stroke="black" stroke-dasharray="5,2" d="M1211.78,-610.61C1223.1,-598.86 1238.51,-582.86 1251.16,-569.72"/>
<polygon fill="black" stroke="black" points="1253.82,-572 1258.24,-562.37 1248.78,-567.14 1253.82,-572"/>
<text text-anchor="middle" x="1242.5" y="-584" font-family="Times,serif" font-size="10.00">2</text>
</g>
<!-- 19 -->
<g id="node18" class="node">
<title>19</title>
<ellipse fill="none" stroke="black" cx="492" cy="-545" rx="55.79" ry="18"/>
<text text-anchor="middle" x="492" y="-541.3" font-family="Times,serif" font-size="14.00">V1920 (b)</text>
</g>
<!-- 20 -->
<g id="node19" class="node">
<title>20</title>
<ellipse fill="none" stroke="black" cx="1353" cy="-794" rx="44.39" ry="18"/>
<text text-anchor="middle" x="1353" y="-790.3" font-family="Times,serif" font-size="14.00">A25 (b)</text>
</g>
<!-- 20&#45;&gt;5 -->
<g id="edge4" class="edge">
<title>20&#45;&gt;5</title>
<path fill="none" stroke="black" stroke-dasharray="1,5" d="M1310.12,-789.23C1160.48,-776.07 661.24,-732.16 490.13,-717.11"/>
<polygon fill="black" stroke="black" points="490.33,-713.62 480.06,-716.23 489.71,-720.59 490.33,-713.62"/>
</g>
<!-- 20&#45;&gt;7 -->
<g id="edge6" class="edge">
<title>20&#45;&gt;7</title>
<path fill="none" stroke="black" stroke-dasharray="5,2" d="M1317.94,-782.75C1275.34,-770.25 1201.3,-748.39 1138,-729 1134.51,-727.93 1130.89,-726.81 1127.25,-725.68"/>
<polygon fill="black" stroke="black" points="1128.27,-722.33 1117.68,-722.69 1126.18,-729.01 1128.27,-722.33"/>
</g>
<!-- 20&#45;&gt;13 -->
<g id="edge12" class="edge">
<title>20&#45;&gt;13</title>
<path fill="none" stroke="black" stroke-dasharray="1,5" d="M1326.72,-779.44C1300.89,-766.11 1261.24,-745.66 1232.38,-730.77"/>
<polygon fill="black" stroke="black" points="1233.91,-727.62 1223.42,-726.15 1230.7,-733.84 1233.91,-727.62"/>
</g>
<!-- 20&#45;&gt;14 -->
<g id="edge13" class="edge">
<title>20&#45;&gt;14</title>
<path fill="none" stroke="black" stroke-dasharray="5,2" d="M1346.21,-775.82C1341.9,-764.9 1336.23,-750.55 1331.36,-738.22"/>
<polygon fill="black" stroke="black" points="1334.6,-736.89 1327.67,-728.88 1328.09,-739.46 1334.6,-736.89"/>
</g>
<!-- 27 -->
<g id="node25" class="node">
<title>27</title>
<ellipse fill="none" stroke="black" cx="1425" cy="-711" rx="45.49" ry="18"/>
<text text-anchor="middle" x="1425" y="-707.3" font-family="Times,serif" font-size="14.00">Nan (b)</text>
</g>
<!-- 20&#45;&gt;27 -->
<g id="edge24" class="edge">
<title>20&#45;&gt;27</title>
<path fill="none" stroke="black" stroke-dasharray="5,2" d="M1367.57,-776.61C1377.98,-764.89 1392.16,-748.95 1403.82,-735.83"/>
<polygon fill="black" stroke="black" points="1406.67,-737.89 1410.7,-728.09 1401.44,-733.24 1406.67,-737.89"/>
<text text-anchor="middle" x="1396.5" y="-750" font-family="Times,serif" font-size="10.00">2</text>
</g>
<!-- 30 -->
<g id="node28" class="node">
<title>30</title>
<ellipse fill="none" stroke="black" cx="1533" cy="-711" rx="44.39" ry="18"/>
<text text-anchor="middle" x="1533" y="-707.3" font-family="Times,serif" font-size="14.00">P01 (b)</text>
</g>
<!-- 20&#45;&gt;30 -->
<g id="edge27" class="edge">
<title>20&#45;&gt;30</title>
<path fill="none" stroke="black" stroke-dasharray="5,2" d="M1381.52,-780.17C1412.24,-766.34 1461.26,-744.28 1495.18,-729.02"/>
<polygon fill="black" stroke="black" points="1496.63,-732.2 1504.31,-724.91 1493.76,-725.82 1496.63,-732.2"/>
</g>
<!-- 39 -->
<g id="node35" class="node">
<title>39</title>
<ellipse fill="none" stroke="black" cx="1645" cy="-711" rx="50.09" ry="18"/>
<text text-anchor="middle" x="1645" y="-707.3" font-family="Times,serif" font-size="14.00">V566 (b)</text>
</g>
<!-- 20&#45;&gt;39 -->
<g id="edge34" class="edge">
<title>20&#45;&gt;39</title>
<path fill="none" stroke="black" stroke-dasharray="5,2" d="M1388.96,-783.27C1434.77,-770.85 1516.34,-748.6 1586,-729 1589.76,-727.94 1593.65,-726.84 1597.56,-725.72"/>
<polygon fill="black" stroke="black" points="1598.6,-729.07 1607.25,-722.95 1596.67,-722.34 1598.6,-729.07"/>
</g>
<!-- 43 -->
<g id="node39" class="node">
<title>43</title>
<ellipse fill="none" stroke="black" cx="1763" cy="-711" rx="50.09" ry="18"/>
<text text-anchor="middle" x="1763" y="-707.3" font-family="Times,serif" font-size="14.00">S249 (b)</text>
</g>
<!-- 20&#45;&gt;43 -->
<g id="edge38" class="edge">
<title>20&#45;&gt;43</title>
<path fill="none" stroke="black" stroke-dasharray="5,2" d="M1393.81,-786.92C1459.54,-776.82 1592.74,-755.1 1704,-729 1708.03,-728.05 1712.19,-727.01 1716.35,-725.91"/>
<polygon fill="black" stroke="black" points="1717.28,-729.28 1726.01,-723.27 1715.44,-722.53 1717.28,-729.28"/>
<text text-anchor="middle" x="1620.5" y="-750" font-family="Times,serif" font-size="10.00">2</text>
</g>
<!-- 28 -->
<g id="node26" class="node">
<title>28</title>
<ellipse fill="none" stroke="black" cx="371" cy="-545" rx="44.69" ry="18"/>
<text text-anchor="middle" x="371" y="-541.3" font-family="Times,serif" font-size="14.00">B39 (b)</text>
</g>
<!-- 21&#45;&gt;28 -->
<g id="edge25" class="edge">
<title>21&#45;&gt;28</title>
<path fill="none" stroke="black" stroke-dasharray="5,2" d="M371,-609.82C371,-599.19 371,-585.31 371,-573.2"/>
<polygon fill="black" stroke="black" points="374.5,-573.15 371,-563.15 367.5,-573.15 374.5,-573.15"/>
</g>
<!-- 34 -->
<g id="node30" class="node">
<title>34</title>
<ellipse fill="none" stroke="black" cx="1274" cy="-472" rx="55.79" ry="18"/>
<text text-anchor="middle" x="1274" y="-468.3" font-family="Times,serif" font-size="14.00">V1629 (b)</text>
</g>
<!-- 22&#45;&gt;34 -->
<g id="edge29" class="edge">
<title>22&#45;&gt;34</title>
<path fill="none" stroke="black" stroke-dasharray="1,5" d="M1274,-526.81C1274,-518.79 1274,-509.05 1274,-500.07"/>
<polygon fill="black" stroke="black" points="1277.5,-500.03 1274,-490.03 1270.5,-500.03 1277.5,-500.03"/>
</g>
<!-- 24 -->
<g id="node23" class="node">
<title>24</title>
<ellipse fill="none" stroke="black" cx="1790" cy="-545" rx="42.49" ry="18"/>
<text text-anchor="middle" x="1790" y="-541.3" font-family="Times,serif" font-size="14.00">Est (b)</text>
</g>
<!-- 25&#45;&gt;19 -->
<g id="edge17" class="edge">
<title>25&#45;&gt;19</title>
<path fill="none" stroke="black" stroke-dasharray="5,2" d="M492,-609.82C492,-599.19 492,-585.31 492,-573.2"/>
<polygon fill="black" stroke="black" points="495.5,-573.15 492,-563.15 488.5,-573.15 495.5,-573.15"/>
</g>
<!-- 27&#45;&gt;8 -->
<g id="edge7" class="edge">
<title>27&#45;&gt;8</title>
<path fill="none" stroke="black" stroke-dasharray="5,2" d="M1458.17,-698.57C1498.72,-684.59 1567.58,-660.85 1613.43,-645.05"/>
<polygon fill="black" stroke="black" points="1614.81,-648.28 1623.13,-641.71 1612.53,-641.66 1614.81,-648.28"/>
</g>
<!-- 35 -->
<g id="node31" class="node">
<title>35</title>
<ellipse fill="none" stroke="black" cx="1790" cy="-628" rx="55.79" ry="18"/>
<text text-anchor="middle" x="1790" y="-624.3" font-family="Times,serif" font-size="14.00">V1897 (b)</text>
</g>
<!-- 27&#45;&gt;35 -->
<g id="edge30" class="edge">
<title>27&#45;&gt;35</title>
<path fill="none" stroke="black" stroke-dasharray="1,5" d="M1458.87,-698.89C1465.82,-696.79 1473.12,-694.72 1480,-693 1587.57,-666.14 1616.86,-670.49 1725,-646 1729.59,-644.96 1734.35,-643.83 1739.12,-642.65"/>
<polygon fill="black" stroke="black" points="1739.99,-646.04 1748.84,-640.2 1738.29,-639.25 1739.99,-646.04"/>
</g>
<!-- 42 -->
<g id="node38" class="node">
<title>42</title>
<ellipse fill="none" stroke="black" cx="1164" cy="-34" rx="46.59" ry="18"/>
<text text-anchor="middle" x="1164" y="-30.3" font-family="Times,serif" font-size="14.00">Mon (b)</text>
</g>
<!-- 31&#45;&gt;42 -->
<g id="edge37" class="edge">
<title>31&#45;&gt;42</title>
<path fill="none" stroke="black" stroke-dasharray="1,5" d="M1164,-88.81C1164,-80.79 1164,-71.05 1164,-62.07"/>
<polygon fill="black" stroke="black" points="1167.5,-62.03 1164,-52.03 1160.5,-62.03 1167.5,-62.03"/>
</g>
<!-- 34&#45;&gt;10 -->
<g id="edge9" class="edge">
<title>34&#45;&gt;10</title>
<path fill="none" stroke="black" stroke-dasharray="5,2" d="M1274,-453.81C1274,-445.79 1274,-436.05 1274,-427.07"/>
<polygon fill="black" stroke="black" points="1277.5,-427.03 1274,-417.03 1270.5,-427.03 1277.5,-427.03"/>
</g>
<!-- 35&#45;&gt;24 -->
<g id="edge22" class="edge">
<title>35&#45;&gt;24</title>
<path fill="none" stroke="black" stroke-dasharray="1,5" d="M1790,-609.82C1790,-599.19 1790,-585.31 1790,-573.2"/>
<polygon fill="black" stroke="black" points="1793.5,-573.15 1790,-563.15 1786.5,-573.15 1793.5,-573.15"/>
</g>
<!-- 37 -->
<g id="node33" class="node">
<title>37</title>
<ellipse fill="none" stroke="black" cx="1274" cy="-180" rx="50.09" ry="18"/>
<text text-anchor="middle" x="1274" y="-176.3" font-family="Times,serif" font-size="14.00">V569 (b)</text>
</g>
<!-- 38&#45;&gt;16 -->
<g id="edge15" class="edge">
<title>38&#45;&gt;16</title>
<path fill="none" stroke="black" stroke-dasharray="1,5" d="M1250.94,-237.12C1234.74,-226.66 1212.88,-212.55 1195.13,-201.09"/>
<polygon fill="black" stroke="black" points="1196.58,-197.86 1186.28,-195.38 1192.78,-203.74 1196.58,-197.86"/>
</g>
<!-- 38&#45;&gt;37 -->
<g id="edge32" class="edge">
<title>38&#45;&gt;37</title>
<path fill="none" stroke="black" stroke-dasharray="5,2" d="M1274,-234.81C1274,-226.79 1274,-217.05 1274,-208.07"/>
<polygon fill="black" stroke="black" points="1277.5,-208.03 1274,-198.03 1270.5,-208.03 1277.5,-208.03"/>
</g>
<!-- 44 -->
<g id="node40" class="node">
<title>44</title>
<ellipse fill="none" stroke="black" cx="1395" cy="-180" rx="53.09" ry="18"/>
<text text-anchor="middle" x="1395" y="-176.3" font-family="Times,serif" font-size="14.00">M118 (b)</text>
</g>
<!-- 38&#45;&gt;44 -->
<g id="edge39" class="edge">
<title>38&#45;&gt;44</title>
<path fill="none" stroke="black" stroke-dasharray="5,2" d="M1298.78,-237.46C1316.65,-226.98 1340.99,-212.69 1360.72,-201.11"/>
<polygon fill="black" stroke="black" points="1362.57,-204.09 1369.42,-196.01 1359.02,-198.05 1362.57,-204.09"/>
</g>
<!-- 45 -->
<g id="node41" class="node">
<title>45</title>
<ellipse fill="none" stroke="black" cx="1920" cy="-628" rx="55.79" ry="18"/>
<text text-anchor="middle" x="1920" y="-624.3" font-family="Times,serif" font-size="14.00">V1639 (b)</text>
</g>
<!-- 39&#45;&gt;45 -->
<g id="edge40" class="edge">
<title>39&#45;&gt;45</title>
<path fill="none" stroke="black" stroke-dasharray="1,5" d="M1682.37,-698.99C1731.04,-684.66 1816.25,-659.56 1870.31,-643.63"/>
<polygon fill="black" stroke="black" points="1871.43,-646.96 1880.03,-640.77 1869.45,-640.24 1871.43,-646.96"/>
</g>
<!-- 40 -->
<g id="node36" class="node">
<title>40</title>
<ellipse fill="none" stroke="black" cx="1395" cy="-107" rx="44.39" ry="18"/>
<text text-anchor="middle" x="1395" y="-103.3" font-family="Times,serif" font-size="14.00">P18 (b)</text>
</g>
<!-- 44&#45;&gt;40 -->
<g id="edge35" class="edge">
<title>44&#45;&gt;40</title>
<path fill="none" stroke="black" stroke-dasharray="5,2" d="M1395,-161.81C1395,-153.79 1395,-144.05 1395,-135.07"/>
<polygon fill="black" stroke="black" points="1398.5,-135.03 1395,-125.03 1391.5,-135.03 1398.5,-135.03"/>
</g>
<!-- 32 -->
<g id="node42" class="node">
<title>32</title>
<ellipse fill="none" stroke="blue" stroke-dasharray="5,2" cx="1353" cy="-868" rx="53.89" ry="18"/>
<text text-anchor="middle" x="1353" y="-864.3" font-family="Times,serif" font-size="14.00">aBase (a)</text>
</g>
<!-- 32&#45;&gt;20 -->
<g id="edge18" class="edge">
<title>32&#45;&gt;20</title>
<path fill="none" stroke="blue" stroke-dasharray="5,2" d="M1353,-849.94C1353,-841.81 1353,-831.88 1353,-822.7"/>
<polygon fill="blue" stroke="blue" points="1356.5,-822.44 1353,-812.44 1349.5,-822.44 1356.5,-822.44"/>
</g>
</g>
</svg>
