<?xml version="1.0" encoding="UTF-8" standalone="no"?>
<!DOCTYPE svg PUBLIC "-//W3C//DTD SVG 1.1//EN"
 "http://www.w3.org/Graphics/SVG/1.1/DTD/svg11.dtd">
<!-- Generated by graphviz version 2.43.0 (0)
 -->
<!-- Title: textual_flow_diagram Pages: 1 -->
<svg width="1393pt" height="294pt"
 viewBox="0.00 0.00 1393.00 294.00" xmlns="http://www.w3.org/2000/svg" xmlns:xlink="http://www.w3.org/1999/xlink">
<g id="graph0" class="graph" transform="scale(1 1) rotate(0) translate(4 290)">
<title>textual_flow_diagram</title>
<polygon fill="white" stroke="transparent" points="-4,4 -4,-290 1389,-290 1389,4 -4,4"/>
<g id="clust1" class="cluster">
<title>cluster_legend</title>
<polygon fill="none" stroke="black" points="8,-224 8,-278 204,-278 204,-224 8,-224"/>
</g>
<g id="clust2" class="cluster">
<title>cluster_plot</title>
</g>
<!-- label -->
<g id="node1" class="node">
<title>label</title>
<text text-anchor="middle" x="106" y="-254.8" font-family="Times,serif" font-size="14.00">adstag1.3.20U30&#45;34, a</text>
<text text-anchor="middle" x="106" y="-239.8" font-family="Times,serif" font-size="14.00">Con = 5</text>
</g>
<!-- 0 -->
<g id="node2" class="node">
<title>0</title>
<ellipse fill="none" stroke="black" cx="276" cy="-106" rx="55.79" ry="18"/>
<text text-anchor="middle" x="276" y="-102.3" font-family="Times,serif" font-size="14.00">V1629 (a)</text>
</g>
<!-- 2 -->
<g id="node3" class="node">
<title>2</title>
<ellipse fill="none" stroke="black" cx="1095" cy="-106" rx="50.09" ry="18"/>
<text text-anchor="middle" x="1095" y="-102.3" font-family="Times,serif" font-size="14.00">V566 (a)</text>
</g>
<!-- 4 -->
<g id="node4" class="node">
<title>4</title>
<ellipse fill="none" stroke="black" cx="1095" cy="-34" rx="55.79" ry="18"/>
<text text-anchor="middle" x="1095" y="-30.3" font-family="Times,serif" font-size="14.00">V1639 (a)</text>
</g>
<!-- 2&#45;&gt;4 -->
<g id="edge3" class="edge">
<title>2&#45;&gt;4</title>
<path fill="none" stroke="black" stroke-dasharray="1,5" d="M1095,-87.7C1095,-79.98 1095,-70.71 1095,-62.11"/>
<polygon fill="black" stroke="black" points="1098.5,-62.1 1095,-52.1 1091.5,-62.1 1098.5,-62.1"/>
</g>
<!-- 6 -->
<g id="node5" class="node">
<title>6</title>
<ellipse fill="none" stroke="black" cx="270" cy="-178" rx="50.09" ry="18"/>
<text text-anchor="middle" x="270" y="-174.3" font-family="Times,serif" font-size="14.00">Neap (a)</text>
</g>
<!-- 6&#45;&gt;0 -->
<g id="edge1" class="edge">
<title>6&#45;&gt;0</title>
<path fill="none" stroke="black" stroke-dasharray="1,5" d="M271.48,-159.7C272.14,-151.98 272.94,-142.71 273.68,-134.11"/>
<polygon fill="black" stroke="black" points="277.17,-134.37 274.53,-124.1 270.19,-133.77 277.17,-134.37"/>
</g>
<!-- 9 -->
<g id="node6" class="node">
<title>9</title>
<ellipse fill="none" stroke="black" cx="845" cy="-34" rx="42.79" ry="18"/>
<text text-anchor="middle" x="845" y="-30.3" font-family="Times,serif" font-size="14.00">Bas (a)</text>
</g>
<!-- 10 -->
<g id="node7" class="node">
<title>10</title>
<ellipse fill="none" stroke="black" cx="521" cy="-106" rx="44.39" ry="18"/>
<text text-anchor="middle" x="521" y="-102.3" font-family="Times,serif" font-size="14.00">B39 (a)</text>
</g>
<!-- 14 -->
<g id="node8" class="node">
<title>14</title>
<ellipse fill="none" stroke="black" cx="394" cy="-178" rx="55.79" ry="18"/>
<text text-anchor="middle" x="394" y="-174.3" font-family="Times,serif" font-size="14.00">V2036 (a)</text>
</g>
<!-- 15 -->
<g id="node9" class="node">
<title>15</title>
<ellipse fill="none" stroke="black" cx="521" cy="-178" rx="52.79" ry="18"/>
<text text-anchor="middle" x="521" y="-174.3" font-family="Times,serif" font-size="14.00">LaSM (a)</text>
</g>
<!-- 15&#45;&gt;10 -->
<g id="edge6" class="edge">
<title>15&#45;&gt;10</title>
<path fill="none" stroke="black" stroke-dasharray="5,2" d="M521,-159.7C521,-151.98 521,-142.71 521,-134.11"/>
<polygon fill="black" stroke="black" points="524.5,-134.1 521,-124.1 517.5,-134.1 524.5,-134.1"/>
</g>
<!-- 16 -->
<g id="node10" class="node">
<title>16</title>
<ellipse fill="none" stroke="black" cx="947" cy="-34" rx="41.69" ry="18"/>
<text text-anchor="middle" x="947" y="-30.3" font-family="Times,serif" font-size="14.00">Est (a)</text>
</g>
<!-- 17 -->
<g id="node11" class="node">
<title>17</title>
<ellipse fill="none" stroke="black" cx="642" cy="-178" rx="50.09" ry="18"/>
<text text-anchor="middle" x="642" y="-174.3" font-family="Times,serif" font-size="14.00">V560 (a)</text>
</g>
<!-- 18 -->
<g id="node12" class="node">
<title>18</title>
<ellipse fill="none" stroke="black" cx="753" cy="-178" rx="42.79" ry="18"/>
<text text-anchor="middle" x="753" y="-174.3" font-family="Times,serif" font-size="14.00">La2 (a)</text>
</g>
<!-- 25 -->
<g id="node13" class="node">
<title>25</title>
<ellipse fill="none" stroke="black" cx="859" cy="-178" rx="44.69" ry="18"/>
<text text-anchor="middle" x="859" y="-174.3" font-family="Times,serif" font-size="14.00">Nan (a)</text>
</g>
<!-- 29 -->
<g id="node15" class="node">
<title>29</title>
<ellipse fill="none" stroke="black" cx="785" cy="-106" rx="55.79" ry="18"/>
<text text-anchor="middle" x="785" y="-102.3" font-family="Times,serif" font-size="14.00">V2250 (a)</text>
</g>
<!-- 25&#45;&gt;29 -->
<g id="edge14" class="edge">
<title>25&#45;&gt;29</title>
<path fill="none" stroke="black" stroke-dasharray="5,2" d="M842.21,-161.12C832.6,-152.03 820.37,-140.46 809.69,-130.35"/>
<polygon fill="black" stroke="black" points="811.91,-127.64 802.24,-123.31 807.1,-132.72 811.91,-127.64"/>
</g>
<!-- 32 -->
<g id="node17" class="node">
<title>32</title>
<ellipse fill="none" stroke="black" cx="915" cy="-106" rx="55.79" ry="18"/>
<text text-anchor="middle" x="915" y="-102.3" font-family="Times,serif" font-size="14.00">V1897 (a)</text>
</g>
<!-- 25&#45;&gt;32 -->
<g id="edge16" class="edge">
<title>25&#45;&gt;32</title>
<path fill="none" stroke="black" stroke-dasharray="1,5" d="M871.99,-160.76C878.89,-152.14 887.51,-141.36 895.22,-131.73"/>
<polygon fill="black" stroke="black" points="898.18,-133.63 901.69,-123.63 892.71,-129.26 898.18,-133.63"/>
</g>
<!-- 28 -->
<g id="node14" class="node">
<title>28</title>
<ellipse fill="none" stroke="black" cx="974" cy="-178" rx="52.79" ry="18"/>
<text text-anchor="middle" x="974" y="-174.3" font-family="Times,serif" font-size="14.00">M136 (a)</text>
</g>
<!-- 31 -->
<g id="node16" class="node">
<title>31</title>
<ellipse fill="none" stroke="black" cx="1095" cy="-178" rx="50.09" ry="18"/>
<text text-anchor="middle" x="1095" y="-174.3" font-family="Times,serif" font-size="14.00">Patm (a)</text>
</g>
<!-- 32&#45;&gt;9 -->
<g id="edge5" class="edge">
<title>32&#45;&gt;9</title>
<path fill="none" stroke="black" d="M898.76,-88.76C889.75,-79.75 878.39,-68.39 868.43,-58.43"/>
<polygon fill="black" stroke="black" points="870.69,-55.74 861.15,-51.15 865.74,-60.69 870.69,-55.74"/>
</g>
<!-- 32&#45;&gt;16 -->
<g id="edge9" class="edge">
<title>32&#45;&gt;16</title>
<path fill="none" stroke="black" stroke-dasharray="1,5" d="M922.75,-88.05C926.44,-79.97 930.94,-70.12 935.06,-61.11"/>
<polygon fill="black" stroke="black" points="938.35,-62.34 939.33,-51.79 931.98,-59.43 938.35,-62.34"/>
</g>
<!-- 34 -->
<g id="node18" class="node">
<title>34</title>
<ellipse fill="none" stroke="black" cx="1207" cy="-106" rx="44.39" ry="18"/>
<text text-anchor="middle" x="1207" y="-102.3" font-family="Times,serif" font-size="14.00">P01 (a)</text>
</g>
<!-- 36 -->
<g id="node19" class="node">
<title>36</title>
<ellipse fill="none" stroke="black" cx="806" cy="-251" rx="53.89" ry="18"/>
<text text-anchor="middle" x="806" y="-247.3" font-family="Times,serif" font-size="14.00">aBase (a)</text>
</g>
<!-- 36&#45;&gt;6 -->
<g id="edge4" class="edge">
<title>36&#45;&gt;6</title>
<path fill="none" stroke="black" stroke-width="2" d="M753.32,-246.94C664.93,-241.15 481.44,-226.37 329,-196 324.82,-195.17 320.52,-194.18 316.22,-193.11"/>
<polygon fill="black" stroke="black" stroke-width="2" points="316.84,-189.65 306.27,-190.49 315.05,-196.42 316.84,-189.65"/>
</g>
<!-- 36&#45;&gt;14 -->
<g id="edge7" class="edge">
<title>36&#45;&gt;14</title>
<path fill="none" stroke="black" d="M756.3,-243.88C688.67,-235.18 564.06,-217.85 459,-196 454.32,-195.03 449.48,-193.93 444.64,-192.77"/>
<polygon fill="black" stroke="black" points="445.31,-189.34 434.77,-190.34 443.64,-196.13 445.31,-189.34"/>
</g>
<!-- 36&#45;&gt;15 -->
<g id="edge8" class="edge">
<title>36&#45;&gt;15</title>
<path fill="none" stroke="black" d="M763.15,-240.03C718.19,-229.47 645.48,-212.13 583,-196 578.93,-194.95 574.71,-193.84 570.48,-192.71"/>
<polygon fill="black" stroke="black" points="571.21,-189.28 560.64,-190.06 569.39,-196.04 571.21,-189.28"/>
</g>
<!-- 36&#45;&gt;17 -->
<g id="edge10" class="edge">
<title>36&#45;&gt;17</title>
<path fill="none" stroke="black" stroke-width="2" d="M774.38,-236.31C748.04,-224.91 710.37,-208.6 681.95,-196.29"/>
<polygon fill="black" stroke="black" stroke-width="2" points="683.26,-193.05 672.69,-192.29 680.48,-199.47 683.26,-193.05"/>
</g>
<!-- 36&#45;&gt;18 -->
<g id="edge11" class="edge">
<title>36&#45;&gt;18</title>
<path fill="none" stroke="black" stroke-width="2" d="M793.44,-233.17C786.91,-224.42 778.79,-213.55 771.55,-203.85"/>
<polygon fill="black" stroke="black" stroke-width="2" points="774.26,-201.63 765.47,-195.71 768.65,-205.81 774.26,-201.63"/>
</g>
<!-- 36&#45;&gt;25 -->
<g id="edge12" class="edge">
<title>36&#45;&gt;25</title>
<path fill="none" stroke="black" d="M818.56,-233.17C825.09,-224.42 833.21,-213.55 840.45,-203.85"/>
<polygon fill="black" stroke="black" points="843.35,-205.81 846.53,-195.71 837.74,-201.63 843.35,-205.81"/>
</g>
<!-- 36&#45;&gt;28 -->
<g id="edge13" class="edge">
<title>36&#45;&gt;28</title>
<path fill="none" stroke="black" stroke-width="2" d="M837.99,-236.48C864.85,-225.13 903.4,-208.84 932.61,-196.49"/>
<polygon fill="black" stroke="black" stroke-width="2" points="934.28,-199.59 942.12,-192.47 931.55,-193.14 934.28,-199.59"/>
</g>
<!-- 36&#45;&gt;31 -->
<g id="edge15" class="edge">
<title>36&#45;&gt;31</title>
<path fill="none" stroke="black" d="M849.82,-240.39C896.22,-230.07 971.51,-212.85 1036,-196 1039.84,-195 1043.8,-193.93 1047.78,-192.83"/>
<polygon fill="black" stroke="black" points="1048.94,-196.14 1057.62,-190.07 1047.05,-189.4 1048.94,-196.14"/>
</g>
<!-- 39 -->
<g id="node20" class="node">
<title>39</title>
<ellipse fill="none" stroke="black" cx="1207" cy="-178" rx="44.39" ry="18"/>
<text text-anchor="middle" x="1207" y="-174.3" font-family="Times,serif" font-size="14.00">A25 (a)</text>
</g>
<!-- 36&#45;&gt;39 -->
<g id="edge18" class="edge">
<title>36&#45;&gt;39</title>
<path fill="none" stroke="black" stroke-dasharray="5,2" d="M856.61,-244.66C924.78,-236.91 1049.58,-220.69 1154,-196 1157.44,-195.19 1160.98,-194.26 1164.53,-193.26"/>
<polygon fill="black" stroke="black" points="1165.84,-196.53 1174.43,-190.33 1163.85,-189.81 1165.84,-196.53"/>
</g>
<!-- 40 -->
<g id="node21" class="node">
<title>40</title>
<ellipse fill="none" stroke="black" cx="1319" cy="-178" rx="50.09" ry="18"/>
<text text-anchor="middle" x="1319" y="-174.3" font-family="Times,serif" font-size="14.00">S249 (a)</text>
</g>
<!-- 36&#45;&gt;40 -->
<g id="edge19" class="edge">
<title>36&#45;&gt;40</title>
<path fill="none" stroke="black" d="M858.52,-246.53C943.54,-240.3 1116.26,-225.06 1260,-196 1264.17,-195.16 1268.48,-194.16 1272.78,-193.09"/>
<polygon fill="black" stroke="black" points="1273.95,-196.4 1282.72,-190.45 1272.16,-189.63 1273.95,-196.4"/>
</g>
<!-- 39&#45;&gt;2 -->
<g id="edge2" class="edge">
<title>39&#45;&gt;2</title>
<path fill="none" stroke="black" stroke-dasharray="5,2" d="M1183.79,-162.5C1167.49,-152.31 1145.47,-138.55 1127.44,-127.27"/>
<polygon fill="black" stroke="black" points="1129.28,-124.3 1118.95,-121.97 1125.57,-130.24 1129.28,-124.3"/>
</g>
<!-- 39&#45;&gt;34 -->
<g id="edge17" class="edge">
<title>39&#45;&gt;34</title>
<path fill="none" stroke="black" stroke-dasharray="5,2" d="M1207,-159.7C1207,-151.98 1207,-142.71 1207,-134.11"/>
<polygon fill="black" stroke="black" points="1210.5,-134.1 1207,-124.1 1203.5,-134.1 1210.5,-134.1"/>
</g>
<!-- 41 -->
<g id="node22" class="node">
<title>41</title>
<ellipse fill="none" stroke="black" cx="1309" cy="-106" rx="40.09" ry="18"/>
<text text-anchor="middle" x="1309" y="-102.3" font-family="Times,serif" font-size="14.00">Pal (a)</text>
</g>
<!-- 39&#45;&gt;41 -->
<g id="edge20" class="edge">
<title>39&#45;&gt;41</title>
<path fill="none" stroke="black" stroke-dasharray="5,2" d="M1228.63,-162.15C1243.34,-152.06 1262.98,-138.58 1279.17,-127.47"/>
<polygon fill="black" stroke="black" points="1281.48,-130.13 1287.75,-121.58 1277.52,-124.36 1281.48,-130.13"/>
</g>
</g>
</svg>
