<?xml version="1.0" encoding="UTF-8" standalone="no"?>
<!DOCTYPE svg PUBLIC "-//W3C//DTD SVG 1.1//EN"
 "http://www.w3.org/Graphics/SVG/1.1/DTD/svg11.dtd">
<!-- Generated by graphviz version 2.43.0 (0)
 -->
<!-- Title: textual_flow_diagram Pages: 1 -->
<svg width="1618pt" height="672pt"
 viewBox="0.00 0.00 1618.00 672.00" xmlns="http://www.w3.org/2000/svg" xmlns:xlink="http://www.w3.org/1999/xlink">
<g id="graph0" class="graph" transform="scale(1 1) rotate(0) translate(4 668)">
<title>textual_flow_diagram</title>
<polygon fill="white" stroke="transparent" points="-4,4 -4,-668 1614,-668 1614,4 -4,4"/>
<g id="clust1" class="cluster">
<title>cluster_legend</title>
<polygon fill="none" stroke="black" points="8,-602 8,-656 182,-656 182,-602 8,-602"/>
</g>
<g id="clust2" class="cluster">
<title>cluster_plot</title>
</g>
<!-- label -->
<g id="node1" class="node">
<title>label</title>
<text text-anchor="middle" x="95" y="-632.8" font-family="Times,serif" font-size="14.00">adstag1.1.28U72, a</text>
<text text-anchor="middle" x="95" y="-617.8" font-family="Times,serif" font-size="14.00">Con = 5</text>
</g>
<!-- 0 -->
<g id="node2" class="node">
<title>0</title>
<ellipse fill="none" stroke="black" cx="1440" cy="-326" rx="50.09" ry="18"/>
<text text-anchor="middle" x="1440" y="-322.3" font-family="Times,serif" font-size="14.00">V568 (a)</text>
</g>
<!-- 38 -->
<g id="node32" class="node">
<title>38</title>
<ellipse fill="none" stroke="black" cx="1428" cy="-253" rx="46.59" ry="18"/>
<text text-anchor="middle" x="1428" y="-249.3" font-family="Times,serif" font-size="14.00">Taur (a)</text>
</g>
<!-- 0&#45;&gt;38 -->
<g id="edge30" class="edge">
<title>0&#45;&gt;38</title>
<path fill="none" stroke="black" stroke-dasharray="1,5" d="M1437.1,-307.81C1435.74,-299.79 1434.09,-290.05 1432.58,-281.07"/>
<polygon fill="black" stroke="black" points="1436,-280.31 1430.88,-271.03 1429.09,-281.47 1436,-280.31"/>
</g>
<!-- 3 -->
<g id="node3" class="node">
<title>3</title>
<ellipse fill="none" stroke="black" cx="254" cy="-399" rx="55.79" ry="18"/>
<text text-anchor="middle" x="254" y="-395.3" font-family="Times,serif" font-size="14.00">V2036 (a)</text>
</g>
<!-- 5 -->
<g id="node4" class="node">
<title>5</title>
<ellipse fill="none" stroke="black" cx="381" cy="-472" rx="50.09" ry="18"/>
<text text-anchor="middle" x="381" y="-468.3" font-family="Times,serif" font-size="14.00">Patm (a)</text>
</g>
<!-- 5&#45;&gt;3 -->
<g id="edge2" class="edge">
<title>5&#45;&gt;3</title>
<path fill="none" stroke="black" stroke-dasharray="1,5" d="M354.99,-456.46C336.16,-445.93 310.46,-431.56 289.7,-419.96"/>
<polygon fill="black" stroke="black" points="291.28,-416.83 280.85,-415.01 287.87,-422.94 291.28,-416.83"/>
</g>
<!-- 21 -->
<g id="node18" class="node">
<title>21</title>
<ellipse fill="none" stroke="black" cx="381" cy="-399" rx="52.79" ry="18"/>
<text text-anchor="middle" x="381" y="-395.3" font-family="Times,serif" font-size="14.00">LaSM (a)</text>
</g>
<!-- 5&#45;&gt;21 -->
<g id="edge17" class="edge">
<title>5&#45;&gt;21</title>
<path fill="none" stroke="black" stroke-dasharray="5,2" d="M381,-453.81C381,-445.79 381,-436.05 381,-427.07"/>
<polygon fill="black" stroke="black" points="384.5,-427.03 381,-417.03 377.5,-427.03 384.5,-427.03"/>
</g>
<!-- 6 -->
<g id="node5" class="node">
<title>6</title>
<ellipse fill="none" stroke="black" cx="500" cy="-399" rx="48.99" ry="18"/>
<text text-anchor="middle" x="500" y="-395.3" font-family="Times,serif" font-size="14.00">La35 (a)</text>
</g>
<!-- 7 -->
<g id="node6" class="node">
<title>7</title>
<ellipse fill="none" stroke="black" cx="722" cy="-472" rx="44.39" ry="18"/>
<text text-anchor="middle" x="722" y="-468.3" font-family="Times,serif" font-size="14.00">S32 (a)</text>
</g>
<!-- 8 -->
<g id="node7" class="node">
<title>8</title>
<ellipse fill="none" stroke="black" cx="1408" cy="-472" rx="55.79" ry="18"/>
<text text-anchor="middle" x="1408" y="-468.3" font-family="Times,serif" font-size="14.00">V2250 (a)</text>
</g>
<!-- 9 -->
<g id="node8" class="node">
<title>9</title>
<ellipse fill="none" stroke="black" cx="619" cy="-399" rx="52.79" ry="18"/>
<text text-anchor="middle" x="619" y="-395.3" font-family="Times,serif" font-size="14.00">M111 (a)</text>
</g>
<!-- 29 -->
<g id="node24" class="node">
<title>29</title>
<ellipse fill="none" stroke="black" cx="619" cy="-326" rx="50.09" ry="18"/>
<text text-anchor="middle" x="619" y="-322.3" font-family="Times,serif" font-size="14.00">A336 (a)</text>
</g>
<!-- 9&#45;&gt;29 -->
<g id="edge23" class="edge">
<title>9&#45;&gt;29</title>
<path fill="none" stroke="black" stroke-dasharray="5,2" d="M619,-380.81C619,-372.79 619,-363.05 619,-354.07"/>
<polygon fill="black" stroke="black" points="622.5,-354.03 619,-344.03 615.5,-354.03 622.5,-354.03"/>
</g>
<!-- 10 -->
<g id="node9" class="node">
<title>10</title>
<ellipse fill="none" stroke="black" cx="1442" cy="-399" rx="50.09" ry="18"/>
<text text-anchor="middle" x="1442" y="-395.3" font-family="Times,serif" font-size="14.00">V536 (a)</text>
</g>
<!-- 10&#45;&gt;0 -->
<g id="edge1" class="edge">
<title>10&#45;&gt;0</title>
<path fill="none" stroke="black" stroke-dasharray="1,5" d="M1441.52,-380.81C1441.29,-372.79 1441.02,-363.05 1440.76,-354.07"/>
<polygon fill="black" stroke="black" points="1444.26,-353.93 1440.48,-344.03 1437.26,-354.12 1444.26,-353.93"/>
</g>
<!-- 12 -->
<g id="node10" class="node">
<title>12</title>
<ellipse fill="none" stroke="black" cx="740" cy="-399" rx="50.09" ry="18"/>
<text text-anchor="middle" x="740" y="-395.3" font-family="Times,serif" font-size="14.00">A116 (a)</text>
</g>
<!-- 13 -->
<g id="node11" class="node">
<title>13</title>
<ellipse fill="none" stroke="black" cx="833" cy="-472" rx="48.99" ry="18"/>
<text text-anchor="middle" x="833" y="-468.3" font-family="Times,serif" font-size="14.00">La22 (a)</text>
</g>
<!-- 13&#45;&gt;6 -->
<g id="edge4" class="edge">
<title>13&#45;&gt;6</title>
<path fill="none" stroke="black" stroke-dasharray="1,5" d="M796.97,-459.73C789.74,-457.67 782.16,-455.65 775,-454 679.24,-431.92 652.71,-439.31 557,-417 553.21,-416.12 549.29,-415.12 545.37,-414.07"/>
<polygon fill="black" stroke="black" points="546.27,-410.69 535.7,-411.37 544.39,-417.43 546.27,-410.69"/>
</g>
<!-- 13&#45;&gt;9 -->
<g id="edge7" class="edge">
<title>13&#45;&gt;9</title>
<path fill="none" stroke="black" stroke-dasharray="1,5" d="M797.66,-459.28C761.44,-447.26 704.93,-428.51 665.19,-415.32"/>
<polygon fill="black" stroke="black" points="666.06,-411.93 655.47,-412.1 663.85,-418.57 666.06,-411.93"/>
</g>
<!-- 13&#45;&gt;12 -->
<g id="edge9" class="edge">
<title>13&#45;&gt;12</title>
<path fill="none" stroke="black" stroke-dasharray="5,2" d="M812.82,-455.59C799.87,-445.71 782.86,-432.72 768.53,-421.78"/>
<polygon fill="black" stroke="black" points="770.53,-418.91 760.46,-415.62 766.29,-424.47 770.53,-418.91"/>
</g>
<!-- 15 -->
<g id="node13" class="node">
<title>15</title>
<ellipse fill="none" stroke="black" cx="858" cy="-399" rx="50.09" ry="18"/>
<text text-anchor="middle" x="858" y="-395.3" font-family="Times,serif" font-size="14.00">V571 (a)</text>
</g>
<!-- 13&#45;&gt;15 -->
<g id="edge12" class="edge">
<title>13&#45;&gt;15</title>
<path fill="none" stroke="black" stroke-dasharray="1,5" d="M839.05,-453.81C841.94,-445.62 845.46,-435.62 848.67,-426.48"/>
<polygon fill="black" stroke="black" points="851.98,-427.62 852,-417.03 845.38,-425.3 851.98,-427.62"/>
</g>
<!-- 23 -->
<g id="node20" class="node">
<title>23</title>
<ellipse fill="none" stroke="black" cx="976" cy="-399" rx="50.09" ry="18"/>
<text text-anchor="middle" x="976" y="-395.3" font-family="Times,serif" font-size="14.00">V565 (a)</text>
</g>
<!-- 13&#45;&gt;23 -->
<g id="edge19" class="edge">
<title>13&#45;&gt;23</title>
<path fill="none" stroke="black" stroke-dasharray="5,2" d="M860.91,-457.14C883.01,-446.17 914.1,-430.73 938.39,-418.67"/>
<polygon fill="black" stroke="black" points="940.27,-421.65 947.67,-414.07 937.16,-415.38 940.27,-421.65"/>
</g>
<!-- 36 -->
<g id="node30" class="node">
<title>36</title>
<ellipse fill="none" stroke="black" cx="1088" cy="-399" rx="44.39" ry="18"/>
<text text-anchor="middle" x="1088" y="-395.3" font-family="Times,serif" font-size="14.00">P74 (a)</text>
</g>
<!-- 13&#45;&gt;36 -->
<g id="edge28" class="edge">
<title>13&#45;&gt;36</title>
<path fill="none" stroke="black" stroke-dasharray="1,5" d="M869.77,-460.02C876.8,-457.98 884.12,-455.89 891,-454 954.71,-436.48 971.51,-435.32 1035,-417 1038.3,-416.05 1041.71,-415.03 1045.13,-413.99"/>
<polygon fill="black" stroke="black" points="1046.22,-417.31 1054.73,-411 1044.14,-410.63 1046.22,-417.31"/>
</g>
<!-- 41 -->
<g id="node35" class="node">
<title>41</title>
<ellipse fill="none" stroke="black" cx="1197" cy="-399" rx="46.59" ry="18"/>
<text text-anchor="middle" x="1197" y="-395.3" font-family="Times,serif" font-size="14.00">Bodl (a)</text>
</g>
<!-- 13&#45;&gt;41 -->
<g id="edge33" class="edge">
<title>13&#45;&gt;41</title>
<path fill="none" stroke="black" stroke-dasharray="5,2" d="M868.69,-459.7C876.02,-457.62 883.72,-455.6 891,-454 1000.71,-429.92 1031.41,-441.6 1141,-417 1144.85,-416.14 1148.82,-415.14 1152.78,-414.08"/>
<polygon fill="black" stroke="black" points="1153.88,-417.41 1162.56,-411.33 1151.99,-410.67 1153.88,-417.41"/>
</g>
<!-- 14 -->
<g id="node12" class="node">
<title>14</title>
<ellipse fill="none" stroke="black" cx="940" cy="-472" rx="40.09" ry="18"/>
<text text-anchor="middle" x="940" y="-468.3" font-family="Times,serif" font-size="14.00">Pal (a)</text>
</g>
<!-- 16 -->
<g id="node14" class="node">
<title>16</title>
<ellipse fill="none" stroke="black" cx="1311" cy="-180" rx="40.89" ry="18"/>
<text text-anchor="middle" x="1311" y="-176.3" font-family="Times,serif" font-size="14.00">Sin (a)</text>
</g>
<!-- 31 -->
<g id="node26" class="node">
<title>31</title>
<ellipse fill="none" stroke="black" cx="1311" cy="-107" rx="50.09" ry="18"/>
<text text-anchor="middle" x="1311" y="-103.3" font-family="Times,serif" font-size="14.00">Marc (a)</text>
</g>
<!-- 16&#45;&gt;31 -->
<g id="edge25" class="edge">
<title>16&#45;&gt;31</title>
<path fill="none" stroke="black" stroke-dasharray="1,5" d="M1311,-161.81C1311,-153.79 1311,-144.05 1311,-135.07"/>
<polygon fill="black" stroke="black" points="1314.5,-135.03 1311,-125.03 1307.5,-135.03 1314.5,-135.03"/>
</g>
<!-- 17 -->
<g id="node15" class="node">
<title>17</title>
<ellipse fill="none" stroke="black" cx="797" cy="-545" rx="52.79" ry="18"/>
<text text-anchor="middle" x="797" y="-541.3" font-family="Times,serif" font-size="14.00">M136 (a)</text>
</g>
<!-- 19 -->
<g id="node16" class="node">
<title>19</title>
<ellipse fill="none" stroke="black" cx="924" cy="-545" rx="55.79" ry="18"/>
<text text-anchor="middle" x="924" y="-541.3" font-family="Times,serif" font-size="14.00">V1920 (a)</text>
</g>
<!-- 20 -->
<g id="node17" class="node">
<title>20</title>
<ellipse fill="none" stroke="black" cx="1042" cy="-545" rx="44.39" ry="18"/>
<text text-anchor="middle" x="1042" y="-541.3" font-family="Times,serif" font-size="14.00">A25 (a)</text>
</g>
<!-- 20&#45;&gt;5 -->
<g id="edge3" class="edge">
<title>20&#45;&gt;5</title>
<path fill="none" stroke="black" stroke-dasharray="1,5" d="M1010.07,-532.5C1003.19,-530.38 995.91,-528.4 989,-527 885.09,-505.99 572.21,-484.84 440.48,-476.6"/>
<polygon fill="black" stroke="black" points="440.38,-473.08 430.18,-475.96 439.95,-480.07 440.38,-473.08"/>
</g>
<!-- 20&#45;&gt;7 -->
<g id="edge5" class="edge">
<title>20&#45;&gt;7</title>
<path fill="none" stroke="black" stroke-dasharray="5,2" d="M1009.41,-532.76C1002.71,-530.67 995.66,-528.64 989,-527 895.26,-503.98 868.74,-513.02 775,-490 771.56,-489.16 768.03,-488.21 764.49,-487.2"/>
<polygon fill="black" stroke="black" points="765.18,-483.75 754.59,-484.24 763.17,-490.46 765.18,-483.75"/>
</g>
<!-- 20&#45;&gt;13 -->
<g id="edge10" class="edge">
<title>20&#45;&gt;13</title>
<path fill="none" stroke="black" stroke-dasharray="1,5" d="M1008.88,-532.75C973.34,-520.67 916.68,-501.43 877.31,-488.05"/>
<polygon fill="black" stroke="black" points="878.3,-484.69 867.7,-484.79 876.04,-491.32 878.3,-484.69"/>
</g>
<!-- 20&#45;&gt;14 -->
<g id="edge11" class="edge">
<title>20&#45;&gt;14</title>
<path fill="none" stroke="black" stroke-dasharray="5,2" d="M1020.37,-528.94C1005.57,-518.64 985.76,-504.85 969.51,-493.54"/>
<polygon fill="black" stroke="black" points="971.11,-490.39 960.9,-487.55 967.11,-496.14 971.11,-490.39"/>
</g>
<!-- 30 -->
<g id="node25" class="node">
<title>30</title>
<ellipse fill="none" stroke="black" cx="1042" cy="-472" rx="44.39" ry="18"/>
<text text-anchor="middle" x="1042" y="-468.3" font-family="Times,serif" font-size="14.00">P01 (a)</text>
</g>
<!-- 20&#45;&gt;30 -->
<g id="edge24" class="edge">
<title>20&#45;&gt;30</title>
<path fill="none" stroke="black" stroke-dasharray="5,2" d="M1042,-526.81C1042,-518.79 1042,-509.05 1042,-500.07"/>
<polygon fill="black" stroke="black" points="1045.5,-500.03 1042,-490.03 1038.5,-500.03 1045.5,-500.03"/>
</g>
<!-- 39 -->
<g id="node33" class="node">
<title>39</title>
<ellipse fill="none" stroke="black" cx="1154" cy="-472" rx="50.09" ry="18"/>
<text text-anchor="middle" x="1154" y="-468.3" font-family="Times,serif" font-size="14.00">V566 (a)</text>
</g>
<!-- 20&#45;&gt;39 -->
<g id="edge31" class="edge">
<title>20&#45;&gt;39</title>
<path fill="none" stroke="black" stroke-dasharray="5,2" d="M1064.94,-529.46C1081.32,-519.07 1103.6,-504.95 1121.78,-493.43"/>
<polygon fill="black" stroke="black" points="1123.75,-496.32 1130.32,-488.01 1120,-490.41 1123.75,-496.32"/>
</g>
<!-- 28 -->
<g id="node23" class="node">
<title>28</title>
<ellipse fill="none" stroke="black" cx="381" cy="-326" rx="44.39" ry="18"/>
<text text-anchor="middle" x="381" y="-322.3" font-family="Times,serif" font-size="14.00">B39 (a)</text>
</g>
<!-- 21&#45;&gt;28 -->
<g id="edge22" class="edge">
<title>21&#45;&gt;28</title>
<path fill="none" stroke="black" stroke-dasharray="5,2" d="M381,-380.81C381,-372.79 381,-363.05 381,-354.07"/>
<polygon fill="black" stroke="black" points="384.5,-354.03 381,-344.03 377.5,-354.03 384.5,-354.03"/>
</g>
<!-- 22 -->
<g id="node19" class="node">
<title>22</title>
<ellipse fill="none" stroke="black" cx="1163" cy="-545" rx="50.09" ry="18"/>
<text text-anchor="middle" x="1163" y="-541.3" font-family="Times,serif" font-size="14.00">Neap (a)</text>
</g>
<!-- 34 -->
<g id="node28" class="node">
<title>34</title>
<ellipse fill="none" stroke="black" cx="1278" cy="-472" rx="55.79" ry="18"/>
<text text-anchor="middle" x="1278" y="-468.3" font-family="Times,serif" font-size="14.00">V1629 (a)</text>
</g>
<!-- 22&#45;&gt;34 -->
<g id="edge26" class="edge">
<title>22&#45;&gt;34</title>
<path fill="none" stroke="black" stroke-dasharray="1,5" d="M1187.11,-529.12C1203.75,-518.84 1226.1,-505.04 1244.47,-493.7"/>
<polygon fill="black" stroke="black" points="1246.46,-496.59 1253.13,-488.35 1242.78,-490.63 1246.46,-496.59"/>
</g>
<!-- 24 -->
<g id="node21" class="node">
<title>24</title>
<ellipse fill="none" stroke="black" cx="1552" cy="-399" rx="41.69" ry="18"/>
<text text-anchor="middle" x="1552" y="-395.3" font-family="Times,serif" font-size="14.00">Est (a)</text>
</g>
<!-- 27 -->
<g id="node22" class="node">
<title>27</title>
<ellipse fill="none" stroke="black" cx="1280" cy="-545" rx="44.69" ry="18"/>
<text text-anchor="middle" x="1280" y="-541.3" font-family="Times,serif" font-size="14.00">Nan (a)</text>
</g>
<!-- 27&#45;&gt;8 -->
<g id="edge6" class="edge">
<title>27&#45;&gt;8</title>
<path fill="none" stroke="black" stroke-dasharray="5,2" d="M1305.29,-529.97C1324.41,-519.36 1350.93,-504.66 1372.22,-492.84"/>
<polygon fill="black" stroke="black" points="1373.95,-495.89 1381,-487.98 1370.55,-489.77 1373.95,-495.89"/>
</g>
<!-- 35 -->
<g id="node29" class="node">
<title>35</title>
<ellipse fill="none" stroke="black" cx="1538" cy="-472" rx="55.79" ry="18"/>
<text text-anchor="middle" x="1538" y="-468.3" font-family="Times,serif" font-size="14.00">V1897 (a)</text>
</g>
<!-- 27&#45;&gt;35 -->
<g id="edge27" class="edge">
<title>27&#45;&gt;35</title>
<path fill="none" stroke="black" stroke-dasharray="1,5" d="M1313.92,-533.06C1320.56,-530.99 1327.49,-528.89 1334,-527 1348.69,-522.75 1431,-501.07 1486.48,-486.51"/>
<polygon fill="black" stroke="black" points="1487.37,-489.89 1496.16,-483.97 1485.6,-483.12 1487.37,-489.89"/>
</g>
<!-- 42 -->
<g id="node36" class="node">
<title>42</title>
<ellipse fill="none" stroke="black" cx="1311" cy="-34" rx="46.29" ry="18"/>
<text text-anchor="middle" x="1311" y="-30.3" font-family="Times,serif" font-size="14.00">Mon (a)</text>
</g>
<!-- 31&#45;&gt;42 -->
<g id="edge34" class="edge">
<title>31&#45;&gt;42</title>
<path fill="none" stroke="black" stroke-dasharray="1,5" d="M1311,-88.81C1311,-80.79 1311,-71.05 1311,-62.07"/>
<polygon fill="black" stroke="black" points="1314.5,-62.03 1311,-52.03 1307.5,-62.03 1314.5,-62.03"/>
</g>
<!-- 32 -->
<g id="node27" class="node">
<title>32</title>
<ellipse fill="none" stroke="black" cx="1102" cy="-629" rx="53.89" ry="18"/>
<text text-anchor="middle" x="1102" y="-625.3" font-family="Times,serif" font-size="14.00">aBase (a)</text>
</g>
<!-- 32&#45;&gt;17 -->
<g id="edge14" class="edge">
<title>32&#45;&gt;17</title>
<path fill="none" stroke="black" stroke-width="2" d="M1061.13,-617.15C1012.83,-604.31 930.03,-582.24 859,-563 854.94,-561.9 850.73,-560.76 846.51,-559.6"/>
<polygon fill="black" stroke="black" stroke-width="2" points="847.25,-556.18 836.68,-556.92 845.4,-562.93 847.25,-556.18"/>
</g>
<!-- 32&#45;&gt;19 -->
<g id="edge15" class="edge">
<title>32&#45;&gt;19</title>
<path fill="none" stroke="black" stroke-width="2" d="M1071.4,-613.9C1041.73,-600.23 996.54,-579.42 964.03,-564.44"/>
<polygon fill="black" stroke="black" stroke-width="2" points="965.34,-561.19 954.8,-560.19 962.41,-567.55 965.34,-561.19"/>
<text text-anchor="middle" x="1026.5" y="-584" font-family="Times,serif" font-size="10.00">2</text>
</g>
<!-- 32&#45;&gt;20 -->
<g id="edge16" class="edge">
<title>32&#45;&gt;20</title>
<path fill="none" stroke="black" stroke-dasharray="5,2" d="M1089.86,-611.41C1081.32,-599.74 1069.74,-583.92 1060.12,-570.76"/>
<polygon fill="black" stroke="black" points="1062.85,-568.57 1054.12,-562.57 1057.2,-572.71 1062.85,-568.57"/>
</g>
<!-- 32&#45;&gt;22 -->
<g id="edge18" class="edge">
<title>32&#45;&gt;22</title>
<path fill="none" stroke="black" stroke-width="2" d="M1114.34,-611.41C1123.03,-599.74 1134.79,-583.92 1144.58,-570.76"/>
<polygon fill="black" stroke="black" stroke-width="2" points="1147.51,-572.68 1150.67,-562.57 1141.9,-568.5 1147.51,-572.68"/>
</g>
<!-- 32&#45;&gt;27 -->
<g id="edge21" class="edge">
<title>32&#45;&gt;27</title>
<path fill="none" stroke="black" d="M1132.6,-613.9C1163,-599.9 1209.67,-578.4 1242.33,-563.35"/>
<polygon fill="black" stroke="black" points="1243.94,-566.46 1251.56,-559.1 1241.01,-560.11 1243.94,-566.46"/>
</g>
<!-- 43 -->
<g id="node37" class="node">
<title>43</title>
<ellipse fill="none" stroke="black" cx="1393" cy="-545" rx="50.09" ry="18"/>
<text text-anchor="middle" x="1393" y="-541.3" font-family="Times,serif" font-size="14.00">S249 (a)</text>
</g>
<!-- 32&#45;&gt;43 -->
<g id="edge35" class="edge">
<title>32&#45;&gt;43</title>
<path fill="none" stroke="black" d="M1142.26,-616.82C1188.55,-603.94 1266.81,-582.09 1334,-563 1337.76,-561.93 1341.65,-560.82 1345.56,-559.7"/>
<polygon fill="black" stroke="black" points="1346.6,-563.05 1355.24,-556.92 1344.66,-556.32 1346.6,-563.05"/>
</g>
<!-- 34&#45;&gt;10 -->
<g id="edge8" class="edge">
<title>34&#45;&gt;10</title>
<path fill="none" stroke="black" stroke-dasharray="5,2" d="M1310.01,-457.14C1336.31,-445.76 1373.7,-429.57 1401.97,-417.33"/>
<polygon fill="black" stroke="black" points="1403.4,-420.53 1411.18,-413.34 1400.61,-414.1 1403.4,-420.53"/>
</g>
<!-- 35&#45;&gt;24 -->
<g id="edge20" class="edge">
<title>35&#45;&gt;24</title>
<path fill="none" stroke="black" stroke-dasharray="1,5" d="M1541.39,-453.81C1542.97,-445.79 1544.89,-436.05 1546.66,-427.07"/>
<polygon fill="black" stroke="black" points="1550.14,-427.52 1548.64,-417.03 1543.27,-426.16 1550.14,-427.52"/>
</g>
<!-- 37 -->
<g id="node31" class="node">
<title>37</title>
<ellipse fill="none" stroke="black" cx="1420" cy="-180" rx="50.09" ry="18"/>
<text text-anchor="middle" x="1420" y="-176.3" font-family="Times,serif" font-size="14.00">V569 (a)</text>
</g>
<!-- 38&#45;&gt;16 -->
<g id="edge13" class="edge">
<title>38&#45;&gt;16</title>
<path fill="none" stroke="black" stroke-dasharray="1,5" d="M1404.04,-237.46C1386.38,-226.74 1362.18,-212.06 1342.88,-200.35"/>
<polygon fill="black" stroke="black" points="1344.49,-197.23 1334.13,-195.04 1340.86,-203.22 1344.49,-197.23"/>
</g>
<!-- 38&#45;&gt;37 -->
<g id="edge29" class="edge">
<title>38&#45;&gt;37</title>
<path fill="none" stroke="black" stroke-dasharray="5,2" d="M1426.06,-234.81C1425.16,-226.79 1424.06,-217.05 1423.05,-208.07"/>
<polygon fill="black" stroke="black" points="1426.52,-207.57 1421.92,-198.03 1419.56,-208.36 1426.52,-207.57"/>
</g>
<!-- 44 -->
<g id="node38" class="node">
<title>44</title>
<ellipse fill="none" stroke="black" cx="1541" cy="-180" rx="52.79" ry="18"/>
<text text-anchor="middle" x="1541" y="-176.3" font-family="Times,serif" font-size="14.00">M118 (a)</text>
</g>
<!-- 38&#45;&gt;44 -->
<g id="edge36" class="edge">
<title>38&#45;&gt;44</title>
<path fill="none" stroke="black" stroke-dasharray="5,2" d="M1451.41,-237.29C1467.86,-226.96 1490.08,-213 1508.27,-201.56"/>
<polygon fill="black" stroke="black" points="1510.23,-204.47 1516.84,-196.18 1506.51,-198.54 1510.23,-204.47"/>
</g>
<!-- 45 -->
<g id="node39" class="node">
<title>45</title>
<ellipse fill="none" stroke="black" cx="1318" cy="-399" rx="55.79" ry="18"/>
<text text-anchor="middle" x="1318" y="-395.3" font-family="Times,serif" font-size="14.00">V1639 (a)</text>
</g>
<!-- 39&#45;&gt;45 -->
<g id="edge37" class="edge">
<title>39&#45;&gt;45</title>
<path fill="none" stroke="black" stroke-dasharray="1,5" d="M1184.85,-457.65C1210.77,-446.42 1248.06,-430.28 1276.58,-417.93"/>
<polygon fill="black" stroke="black" points="1278.1,-421.09 1285.89,-413.9 1275.32,-414.66 1278.1,-421.09"/>
</g>
<!-- 40 -->
<g id="node34" class="node">
<title>40</title>
<ellipse fill="none" stroke="black" cx="1541" cy="-107" rx="44.39" ry="18"/>
<text text-anchor="middle" x="1541" y="-103.3" font-family="Times,serif" font-size="14.00">P18 (a)</text>
</g>
<!-- 44&#45;&gt;40 -->
<g id="edge32" class="edge">
<title>44&#45;&gt;40</title>
<path fill="none" stroke="black" stroke-dasharray="5,2" d="M1541,-161.81C1541,-153.79 1541,-144.05 1541,-135.07"/>
<polygon fill="black" stroke="black" points="1544.5,-135.03 1541,-125.03 1537.5,-135.03 1544.5,-135.03"/>
</g>
</g>
</svg>
