<?xml version="1.0" encoding="UTF-8" standalone="no"?>
<!DOCTYPE svg PUBLIC "-//W3C//DTD SVG 1.1//EN"
 "http://www.w3.org/Graphics/SVG/1.1/DTD/svg11.dtd">
<!-- Generated by graphviz version 2.43.0 (0)
 -->
<!-- Title: textual_flow_diagram Pages: 1 -->
<svg width="1276pt" height="682pt"
 viewBox="0.00 0.00 1276.00 682.00" xmlns="http://www.w3.org/2000/svg" xmlns:xlink="http://www.w3.org/1999/xlink">
<g id="graph0" class="graph" transform="scale(1 1) rotate(0) translate(4 678)">
<title>textual_flow_diagram</title>
<polygon fill="white" stroke="transparent" points="-4,4 -4,-678 1272,-678 1272,4 -4,4"/>
<g id="clust1" class="cluster">
<title>cluster_legend</title>
<polygon fill="none" stroke="black" points="8,-612 8,-666 182,-666 182,-612 8,-612"/>
</g>
<g id="clust2" class="cluster">
<title>cluster_plot</title>
</g>
<!-- label -->
<g id="node1" class="node">
<title>label</title>
<text text-anchor="middle" x="95" y="-642.8" font-family="Times,serif" font-size="14.00">adstag1.3.19U13, a</text>
<text text-anchor="middle" x="95" y="-627.8" font-family="Times,serif" font-size="14.00">Con = 5</text>
</g>
<!-- 2 -->
<g id="node2" class="node">
<title>2</title>
<ellipse fill="none" stroke="black" cx="1102" cy="-253" rx="46.59" ry="18"/>
<text text-anchor="middle" x="1102" y="-249.3" font-family="Times,serif" font-size="14.00">Taur (a)</text>
</g>
<!-- 8 -->
<g id="node6" class="node">
<title>8</title>
<ellipse fill="none" stroke="black" cx="960" cy="-180" rx="50.09" ry="18"/>
<text text-anchor="middle" x="960" y="-176.3" font-family="Times,serif" font-size="14.00">V569 (a)</text>
</g>
<!-- 2&#45;&gt;8 -->
<g id="edge5" class="edge">
<title>2&#45;&gt;8</title>
<path fill="none" stroke="black" stroke-dasharray="5,2" d="M1074.62,-238.31C1052.71,-227.35 1021.74,-211.87 997.52,-199.76"/>
<polygon fill="black" stroke="black" points="998.78,-196.48 988.27,-195.13 995.65,-202.74 998.78,-196.48"/>
</g>
<!-- 21 -->
<g id="node15" class="node">
<title>21</title>
<ellipse fill="none" stroke="black" cx="1081" cy="-180" rx="52.79" ry="18"/>
<text text-anchor="middle" x="1081" y="-176.3" font-family="Times,serif" font-size="14.00">M118 (a)</text>
</g>
<!-- 2&#45;&gt;21 -->
<g id="edge13" class="edge">
<title>2&#45;&gt;21</title>
<path fill="none" stroke="black" stroke-dasharray="5,2" d="M1096.92,-234.81C1094.52,-226.7 1091.6,-216.84 1088.92,-207.78"/>
<polygon fill="black" stroke="black" points="1092.23,-206.63 1086.04,-198.03 1085.52,-208.61 1092.23,-206.63"/>
</g>
<!-- 40 -->
<g id="node23" class="node">
<title>40</title>
<ellipse fill="none" stroke="black" cx="1202" cy="-180" rx="50.09" ry="18"/>
<text text-anchor="middle" x="1202" y="-176.3" font-family="Times,serif" font-size="14.00">Marc (a)</text>
</g>
<!-- 2&#45;&gt;40 -->
<g id="edge21" class="edge">
<title>2&#45;&gt;40</title>
<path fill="none" stroke="black" stroke-dasharray="1,5" d="M1123.21,-236.94C1137.43,-226.85 1156.37,-213.4 1172.11,-202.22"/>
<polygon fill="black" stroke="black" points="1174.35,-204.92 1180.48,-196.28 1170.3,-199.22 1174.35,-204.92"/>
</g>
<!-- 4 -->
<g id="node3" class="node">
<title>4</title>
<ellipse fill="none" stroke="black" cx="378" cy="-472" rx="50.09" ry="18"/>
<text text-anchor="middle" x="378" y="-468.3" font-family="Times,serif" font-size="14.00">V565 (a)</text>
</g>
<!-- 5 -->
<g id="node4" class="node">
<title>5</title>
<ellipse fill="none" stroke="black" cx="495" cy="-472" rx="48.99" ry="18"/>
<text text-anchor="middle" x="495" y="-468.3" font-family="Times,serif" font-size="14.00">La35 (a)</text>
</g>
<!-- 7 -->
<g id="node5" class="node">
<title>7</title>
<ellipse fill="none" stroke="black" cx="378" cy="-555" rx="50.09" ry="18"/>
<text text-anchor="middle" x="378" y="-551.3" font-family="Times,serif" font-size="14.00">V560 (a)</text>
</g>
<!-- 35 -->
<g id="node21" class="node">
<title>35</title>
<ellipse fill="none" stroke="black" cx="254" cy="-472" rx="55.79" ry="18"/>
<text text-anchor="middle" x="254" y="-468.3" font-family="Times,serif" font-size="14.00">V1920 (a)</text>
</g>
<!-- 7&#45;&gt;35 -->
<g id="edge19" class="edge">
<title>7&#45;&gt;35</title>
<path fill="none" stroke="black" stroke-dasharray="5,2" d="M354.97,-538.95C335.64,-526.33 307.81,-508.15 286.26,-494.08"/>
<polygon fill="black" stroke="black" points="288.04,-491.06 277.75,-488.52 284.21,-496.92 288.04,-491.06"/>
</g>
<!-- 9 -->
<g id="node7" class="node">
<title>9</title>
<ellipse fill="none" stroke="black" cx="613" cy="-555" rx="44.39" ry="18"/>
<text text-anchor="middle" x="613" y="-551.3" font-family="Times,serif" font-size="14.00">B39 (a)</text>
</g>
<!-- 10 -->
<g id="node8" class="node">
<title>10</title>
<ellipse fill="none" stroke="black" cx="668" cy="-639" rx="53.89" ry="18"/>
<text text-anchor="middle" x="668" y="-635.3" font-family="Times,serif" font-size="14.00">aBase (a)</text>
</g>
<!-- 10&#45;&gt;7 -->
<g id="edge4" class="edge">
<title>10&#45;&gt;7</title>
<path fill="none" stroke="black" stroke-width="2" d="M628.28,-626.77C575.6,-611.87 482.69,-585.6 426.1,-569.6"/>
<polygon fill="black" stroke="black" stroke-width="2" points="426.89,-566.19 416.31,-566.83 424.98,-572.92 426.89,-566.19"/>
</g>
<!-- 10&#45;&gt;9 -->
<g id="edge6" class="edge">
<title>10&#45;&gt;9</title>
<path fill="none" stroke="black" stroke-width="2" d="M656.6,-621.01C648.88,-609.5 638.55,-594.09 629.88,-581.16"/>
<polygon fill="black" stroke="black" stroke-width="2" points="632.67,-579.04 624.19,-572.69 626.86,-582.94 632.67,-579.04"/>
<text text-anchor="middle" x="646.5" y="-594" font-family="Times,serif" font-size="10.00">2</text>
</g>
<!-- 24 -->
<g id="node16" class="node">
<title>24</title>
<ellipse fill="none" stroke="black" cx="724" cy="-555" rx="48.99" ry="18"/>
<text text-anchor="middle" x="724" y="-551.3" font-family="Times,serif" font-size="14.00">La22 (a)</text>
</g>
<!-- 10&#45;&gt;24 -->
<g id="edge14" class="edge">
<title>10&#45;&gt;24</title>
<path fill="none" stroke="black" stroke-dasharray="5,2" d="M679.6,-621.01C687.46,-609.5 697.99,-594.09 706.82,-581.16"/>
<polygon fill="black" stroke="black" points="709.85,-582.92 712.6,-572.69 704.07,-578.97 709.85,-582.92"/>
</g>
<!-- 32 -->
<g id="node20" class="node">
<title>32</title>
<ellipse fill="none" stroke="black" cx="858" cy="-555" rx="52.79" ry="18"/>
<text text-anchor="middle" x="858" y="-551.3" font-family="Times,serif" font-size="14.00">M136 (a)</text>
</g>
<!-- 10&#45;&gt;32 -->
<g id="edge18" class="edge">
<title>10&#45;&gt;32</title>
<path fill="none" stroke="black" stroke-width="2" d="M699.8,-624.28C732.05,-610.36 782.09,-588.76 817.24,-573.59"/>
<polygon fill="black" stroke="black" stroke-width="2" points="818.93,-576.67 826.73,-569.5 816.16,-570.25 818.93,-576.67"/>
</g>
<!-- 11 -->
<g id="node9" class="node">
<title>11</title>
<ellipse fill="none" stroke="black" cx="609" cy="-472" rx="46.59" ry="18"/>
<text text-anchor="middle" x="609" y="-468.3" font-family="Times,serif" font-size="14.00">Bodl (a)</text>
</g>
<!-- 12 -->
<g id="node10" class="node">
<title>12</title>
<ellipse fill="none" stroke="black" cx="1196" cy="-472" rx="55.79" ry="18"/>
<text text-anchor="middle" x="1196" y="-468.3" font-family="Times,serif" font-size="14.00">V1629 (a)</text>
</g>
<!-- 30 -->
<g id="node18" class="node">
<title>30</title>
<ellipse fill="none" stroke="black" cx="1194" cy="-399" rx="50.09" ry="18"/>
<text text-anchor="middle" x="1194" y="-395.3" font-family="Times,serif" font-size="14.00">V536 (a)</text>
</g>
<!-- 12&#45;&gt;30 -->
<g id="edge16" class="edge">
<title>12&#45;&gt;30</title>
<path fill="none" stroke="black" stroke-dasharray="5,2" d="M1195.52,-453.81C1195.29,-445.79 1195.02,-436.05 1194.76,-427.07"/>
<polygon fill="black" stroke="black" points="1198.26,-426.93 1194.48,-417.03 1191.26,-427.12 1198.26,-426.93"/>
</g>
<!-- 14 -->
<g id="node11" class="node">
<title>14</title>
<ellipse fill="none" stroke="black" cx="724" cy="-472" rx="50.09" ry="18"/>
<text text-anchor="middle" x="724" y="-468.3" font-family="Times,serif" font-size="14.00">A116 (a)</text>
</g>
<!-- 16 -->
<g id="node12" class="node">
<title>16</title>
<ellipse fill="none" stroke="black" cx="951" cy="-399" rx="50.09" ry="18"/>
<text text-anchor="middle" x="951" y="-395.3" font-family="Times,serif" font-size="14.00">A336 (a)</text>
</g>
<!-- 19 -->
<g id="node13" class="node">
<title>19</title>
<ellipse fill="none" stroke="black" cx="1202" cy="-107" rx="46.29" ry="18"/>
<text text-anchor="middle" x="1202" y="-103.3" font-family="Times,serif" font-size="14.00">Mon (a)</text>
</g>
<!-- 31 -->
<g id="node19" class="node">
<title>31</title>
<ellipse fill="none" stroke="black" cx="1202" cy="-34" rx="40.89" ry="18"/>
<text text-anchor="middle" x="1202" y="-30.3" font-family="Times,serif" font-size="14.00">Sin (a)</text>
</g>
<!-- 19&#45;&gt;31 -->
<g id="edge17" class="edge">
<title>19&#45;&gt;31</title>
<path fill="none" stroke="black" stroke-dasharray="1,5" d="M1202,-88.81C1202,-80.79 1202,-71.05 1202,-62.07"/>
<polygon fill="black" stroke="black" points="1205.5,-62.03 1202,-52.03 1198.5,-62.03 1205.5,-62.03"/>
</g>
<!-- 20 -->
<g id="node14" class="node">
<title>20</title>
<ellipse fill="none" stroke="black" cx="836" cy="-472" rx="44.39" ry="18"/>
<text text-anchor="middle" x="836" y="-468.3" font-family="Times,serif" font-size="14.00">P74 (a)</text>
</g>
<!-- 24&#45;&gt;4 -->
<g id="edge2" class="edge">
<title>24&#45;&gt;4</title>
<path fill="none" stroke="black" stroke-dasharray="5,2" d="M687.62,-542.84C680.48,-540.79 673.03,-538.75 666,-537 565.17,-511.92 537.88,-514.85 437,-490 432.98,-489.01 428.83,-487.93 424.67,-486.81"/>
<polygon fill="black" stroke="black" points="425.59,-483.43 415.02,-484.15 423.73,-490.18 425.59,-483.43"/>
</g>
<!-- 24&#45;&gt;5 -->
<g id="edge3" class="edge">
<title>24&#45;&gt;5</title>
<path fill="none" stroke="black" stroke-dasharray="1,5" d="M689.72,-541.87C649.46,-527.64 582.63,-504 538.7,-488.46"/>
<polygon fill="black" stroke="black" points="539.74,-485.11 529.14,-485.08 537.4,-491.71 539.74,-485.11"/>
</g>
<!-- 24&#45;&gt;11 -->
<g id="edge7" class="edge">
<title>24&#45;&gt;11</title>
<path fill="none" stroke="black" stroke-dasharray="5,2" d="M702.37,-538.76C684.46,-526.15 658.82,-508.09 638.94,-494.09"/>
<polygon fill="black" stroke="black" points="640.72,-491.06 630.53,-488.17 636.69,-496.79 640.72,-491.06"/>
</g>
<!-- 24&#45;&gt;14 -->
<g id="edge9" class="edge">
<title>24&#45;&gt;14</title>
<path fill="none" stroke="black" stroke-dasharray="5,2" d="M724,-536.82C724,-526.19 724,-512.31 724,-500.2"/>
<polygon fill="black" stroke="black" points="727.5,-500.15 724,-490.15 720.5,-500.15 727.5,-500.15"/>
</g>
<!-- 24&#45;&gt;20 -->
<g id="edge12" class="edge">
<title>24&#45;&gt;20</title>
<path fill="none" stroke="black" stroke-dasharray="1,5" d="M745.07,-538.76C762.51,-526.15 787.48,-508.09 806.84,-494.09"/>
<polygon fill="black" stroke="black" points="808.98,-496.86 815.03,-488.17 804.87,-491.19 808.98,-496.86"/>
</g>
<!-- 29 -->
<g id="node17" class="node">
<title>29</title>
<ellipse fill="none" stroke="black" cx="951" cy="-472" rx="52.79" ry="18"/>
<text text-anchor="middle" x="951" y="-468.3" font-family="Times,serif" font-size="14.00">M111 (a)</text>
</g>
<!-- 24&#45;&gt;29 -->
<g id="edge15" class="edge">
<title>24&#45;&gt;29</title>
<path fill="none" stroke="black" stroke-dasharray="1,5" d="M757.98,-541.87C797.54,-527.76 862.99,-504.41 906.55,-488.86"/>
<polygon fill="black" stroke="black" points="907.79,-492.13 916.04,-485.48 905.44,-485.54 907.79,-492.13"/>
</g>
<!-- 38 -->
<g id="node22" class="node">
<title>38</title>
<ellipse fill="none" stroke="black" cx="1072" cy="-472" rx="50.09" ry="18"/>
<text text-anchor="middle" x="1072" y="-468.3" font-family="Times,serif" font-size="14.00">V571 (a)</text>
</g>
<!-- 24&#45;&gt;38 -->
<g id="edge20" class="edge">
<title>24&#45;&gt;38</title>
<path fill="none" stroke="black" stroke-dasharray="1,5" d="M763.96,-544.43C774.38,-541.97 785.6,-539.35 796,-537 892.25,-515.22 917.31,-514.12 1013,-490 1016.84,-489.03 1020.82,-487.98 1024.8,-486.9"/>
<polygon fill="black" stroke="black" points="1025.95,-490.22 1034.65,-484.17 1024.08,-483.47 1025.95,-490.22"/>
</g>
<!-- 29&#45;&gt;16 -->
<g id="edge10" class="edge">
<title>29&#45;&gt;16</title>
<path fill="none" stroke="black" stroke-dasharray="5,2" d="M951,-453.81C951,-445.79 951,-436.05 951,-427.07"/>
<polygon fill="black" stroke="black" points="954.5,-427.03 951,-417.03 947.5,-427.03 954.5,-427.03"/>
</g>
<!-- 41 -->
<g id="node24" class="node">
<title>41</title>
<ellipse fill="none" stroke="black" cx="1135" cy="-326" rx="50.09" ry="18"/>
<text text-anchor="middle" x="1135" y="-322.3" font-family="Times,serif" font-size="14.00">V568 (a)</text>
</g>
<!-- 30&#45;&gt;41 -->
<g id="edge22" class="edge">
<title>30&#45;&gt;41</title>
<path fill="none" stroke="black" stroke-dasharray="1,5" d="M1180.32,-381.53C1172.87,-372.57 1163.51,-361.31 1155.24,-351.36"/>
<polygon fill="black" stroke="black" points="1157.69,-348.83 1148.61,-343.38 1152.31,-353.31 1157.69,-348.83"/>
</g>
<!-- 32&#45;&gt;12 -->
<g id="edge8" class="edge">
<title>32&#45;&gt;12</title>
<path fill="none" stroke="black" stroke-dasharray="5,2" d="M900.64,-544.36C954.43,-532.11 1049.73,-510.15 1131,-490 1135.39,-488.91 1139.93,-487.77 1144.49,-486.6"/>
<polygon fill="black" stroke="black" points="1145.62,-489.92 1154.43,-484.04 1143.87,-483.15 1145.62,-489.92"/>
<text text-anchor="middle" x="1059.5" y="-511" font-family="Times,serif" font-size="10.00">2</text>
</g>
<!-- 40&#45;&gt;19 -->
<g id="edge11" class="edge">
<title>40&#45;&gt;19</title>
<path fill="none" stroke="black" stroke-dasharray="1,5" d="M1202,-161.81C1202,-153.79 1202,-144.05 1202,-135.07"/>
<polygon fill="black" stroke="black" points="1205.5,-135.03 1202,-125.03 1198.5,-135.03 1205.5,-135.03"/>
</g>
<!-- 41&#45;&gt;2 -->
<g id="edge1" class="edge">
<title>41&#45;&gt;2</title>
<path fill="none" stroke="black" stroke-dasharray="1,5" d="M1127.18,-308.17C1123.33,-299.9 1118.6,-289.72 1114.29,-280.44"/>
<polygon fill="black" stroke="black" points="1117.38,-278.79 1109.99,-271.2 1111.03,-281.74 1117.38,-278.79"/>
</g>
</g>
</svg>
