<?xml version="1.0" encoding="UTF-8" standalone="no"?>
<!DOCTYPE svg PUBLIC "-//W3C//DTD SVG 1.1//EN"
 "http://www.w3.org/Graphics/SVG/1.1/DTD/svg11.dtd">
<!-- Generated by graphviz version 2.43.0 (0)
 -->
<!-- Title: textual_flow_diagram Pages: 1 -->
<svg width="1393pt" height="294pt"
 viewBox="0.00 0.00 1393.00 294.00" xmlns="http://www.w3.org/2000/svg" xmlns:xlink="http://www.w3.org/1999/xlink">
<g id="graph0" class="graph" transform="scale(1 1) rotate(0) translate(4 290)">
<title>textual_flow_diagram</title>
<polygon fill="white" stroke="transparent" points="-4,4 -4,-290 1389,-290 1389,4 -4,4"/>
<g id="clust1" class="cluster">
<title>cluster_legend</title>
<polygon fill="none" stroke="black" points="8,-224 8,-278 204,-278 204,-224 8,-224"/>
</g>
<g id="clust2" class="cluster">
<title>cluster_plot</title>
</g>
<!-- label -->
<g id="node1" class="node">
<title>label</title>
<text text-anchor="middle" x="106" y="-254.8" font-family="Times,serif" font-size="14.00">adstag1.3.20U30&#45;34, a</text>
<text text-anchor="middle" x="106" y="-239.8" font-family="Times,serif" font-size="14.00">Con = 5</text>
</g>
<!-- 0 -->
<g id="node2" class="node">
<title>0</title>
<ellipse fill="none" stroke="black" cx="620" cy="-106" rx="44.39" ry="18"/>
<text text-anchor="middle" x="620" y="-102.3" font-family="Times,serif" font-size="14.00">P01 (a)</text>
</g>
<!-- 1 -->
<g id="node3" class="node">
<title>1</title>
<ellipse fill="none" stroke="black" cx="276" cy="-178" rx="55.79" ry="18"/>
<text text-anchor="middle" x="276" y="-174.3" font-family="Times,serif" font-size="14.00">V2036 (a)</text>
</g>
<!-- 7 -->
<g id="node4" class="node">
<title>7</title>
<ellipse fill="none" stroke="black" cx="400" cy="-178" rx="50.09" ry="18"/>
<text text-anchor="middle" x="400" y="-174.3" font-family="Times,serif" font-size="14.00">V560 (a)</text>
</g>
<!-- 9 -->
<g id="node5" class="node">
<title>9</title>
<ellipse fill="none" stroke="black" cx="1080" cy="-106" rx="44.39" ry="18"/>
<text text-anchor="middle" x="1080" y="-102.3" font-family="Times,serif" font-size="14.00">B39 (a)</text>
</g>
<!-- 10 -->
<g id="node6" class="node">
<title>10</title>
<ellipse fill="none" stroke="black" cx="780" cy="-251" rx="53.89" ry="18"/>
<text text-anchor="middle" x="780" y="-247.3" font-family="Times,serif" font-size="14.00">aBase (a)</text>
</g>
<!-- 10&#45;&gt;1 -->
<g id="edge2" class="edge">
<title>10&#45;&gt;1</title>
<path fill="none" stroke="black" d="M727.95,-245.86C645.4,-238.79 479.59,-222.52 341,-196 336.24,-195.09 331.31,-194.03 326.39,-192.88"/>
<polygon fill="black" stroke="black" points="326.92,-189.41 316.38,-190.45 325.27,-196.21 326.92,-189.41"/>
</g>
<!-- 10&#45;&gt;7 -->
<g id="edge3" class="edge">
<title>10&#45;&gt;7</title>
<path fill="none" stroke="black" stroke-width="2" d="M730.72,-243.49C667.41,-234.72 554.33,-217.68 459,-196 454.91,-195.07 450.68,-194.02 446.45,-192.92"/>
<polygon fill="black" stroke="black" stroke-width="2" points="447.22,-189.5 436.66,-190.26 445.39,-196.26 447.22,-189.5"/>
</g>
<!-- 22 -->
<g id="node10" class="node">
<title>22</title>
<ellipse fill="none" stroke="black" cx="513" cy="-178" rx="44.69" ry="18"/>
<text text-anchor="middle" x="513" y="-174.3" font-family="Times,serif" font-size="14.00">Nan (a)</text>
</g>
<!-- 10&#45;&gt;22 -->
<g id="edge8" class="edge">
<title>10&#45;&gt;22</title>
<path fill="none" stroke="black" d="M737.38,-239.95C694.24,-229.6 625.72,-212.67 567,-196 563.64,-195.04 560.16,-194.03 556.68,-192.98"/>
<polygon fill="black" stroke="black" points="557.49,-189.57 546.9,-190 555.44,-196.26 557.49,-189.57"/>
</g>
<!-- 25 -->
<g id="node12" class="node">
<title>25</title>
<ellipse fill="none" stroke="black" cx="620" cy="-178" rx="44.39" ry="18"/>
<text text-anchor="middle" x="620" y="-174.3" font-family="Times,serif" font-size="14.00">A25 (a)</text>
</g>
<!-- 10&#45;&gt;25 -->
<g id="edge10" class="edge">
<title>10&#45;&gt;25</title>
<path fill="none" stroke="black" stroke-dasharray="5,2" d="M748.77,-236.14C722.82,-224.63 685.8,-208.2 658.1,-195.91"/>
<polygon fill="black" stroke="black" points="659.29,-192.61 648.73,-191.75 656.45,-199 659.29,-192.61"/>
</g>
<!-- 26 -->
<g id="node13" class="node">
<title>26</title>
<ellipse fill="none" stroke="black" cx="725" cy="-178" rx="42.79" ry="18"/>
<text text-anchor="middle" x="725" y="-174.3" font-family="Times,serif" font-size="14.00">La2 (a)</text>
</g>
<!-- 10&#45;&gt;26 -->
<g id="edge11" class="edge">
<title>10&#45;&gt;26</title>
<path fill="none" stroke="black" stroke-width="2" d="M766.97,-233.17C760.02,-224.2 751.35,-213.01 743.69,-203.13"/>
<polygon fill="black" stroke="black" stroke-width="2" points="746.45,-200.98 737.56,-195.22 740.92,-205.27 746.45,-200.98"/>
</g>
<!-- 28 -->
<g id="node15" class="node">
<title>28</title>
<ellipse fill="none" stroke="black" cx="836" cy="-178" rx="50.09" ry="18"/>
<text text-anchor="middle" x="836" y="-174.3" font-family="Times,serif" font-size="14.00">S249 (a)</text>
</g>
<!-- 10&#45;&gt;28 -->
<g id="edge13" class="edge">
<title>10&#45;&gt;28</title>
<path fill="none" stroke="black" d="M793.27,-233.17C800.18,-224.42 808.75,-213.55 816.4,-203.85"/>
<polygon fill="black" stroke="black" points="819.38,-205.72 822.82,-195.71 813.88,-201.39 819.38,-205.72"/>
</g>
<!-- 32 -->
<g id="node16" class="node">
<title>32</title>
<ellipse fill="none" stroke="black" cx="957" cy="-178" rx="52.79" ry="18"/>
<text text-anchor="middle" x="957" y="-174.3" font-family="Times,serif" font-size="14.00">M136 (a)</text>
</g>
<!-- 10&#45;&gt;32 -->
<g id="edge14" class="edge">
<title>10&#45;&gt;32</title>
<path fill="none" stroke="black" stroke-width="2" d="M813.29,-236.65C841.94,-225.16 883.43,-208.51 914.47,-196.06"/>
<polygon fill="black" stroke="black" stroke-width="2" points="916.18,-199.15 924.16,-192.17 913.57,-192.65 916.18,-199.15"/>
</g>
<!-- 33 -->
<g id="node17" class="node">
<title>33</title>
<ellipse fill="none" stroke="black" cx="1080" cy="-178" rx="52.79" ry="18"/>
<text text-anchor="middle" x="1080" y="-174.3" font-family="Times,serif" font-size="14.00">LaSM (a)</text>
</g>
<!-- 10&#45;&gt;33 -->
<g id="edge15" class="edge">
<title>10&#45;&gt;33</title>
<path fill="none" stroke="black" d="M824.65,-240.6C872.78,-230.32 951.56,-213.01 1019,-196 1023.02,-194.99 1027.17,-193.9 1031.34,-192.79"/>
<polygon fill="black" stroke="black" points="1032.29,-196.16 1041.03,-190.17 1030.46,-189.41 1032.29,-196.16"/>
</g>
<!-- 36 -->
<g id="node19" class="node">
<title>36</title>
<ellipse fill="none" stroke="black" cx="1201" cy="-178" rx="50.09" ry="18"/>
<text text-anchor="middle" x="1201" y="-174.3" font-family="Times,serif" font-size="14.00">Neap (a)</text>
</g>
<!-- 10&#45;&gt;36 -->
<g id="edge17" class="edge">
<title>10&#45;&gt;36</title>
<path fill="none" stroke="black" stroke-width="2" d="M830.45,-244.61C900.75,-236.62 1031.95,-219.95 1142,-196 1146.1,-195.11 1150.34,-194.09 1154.57,-193"/>
<polygon fill="black" stroke="black" stroke-width="2" points="1155.62,-196.34 1164.37,-190.37 1153.8,-189.58 1155.62,-196.34"/>
</g>
<!-- 42 -->
<g id="node22" class="node">
<title>42</title>
<ellipse fill="none" stroke="black" cx="1319" cy="-178" rx="50.09" ry="18"/>
<text text-anchor="middle" x="1319" y="-174.3" font-family="Times,serif" font-size="14.00">Patm (a)</text>
</g>
<!-- 10&#45;&gt;42 -->
<g id="edge20" class="edge">
<title>10&#45;&gt;42</title>
<path fill="none" stroke="black" d="M832.65,-246.99C921.46,-241.26 1106.4,-226.54 1260,-196 1264.18,-195.17 1268.48,-194.18 1272.78,-193.11"/>
<polygon fill="black" stroke="black" points="1273.95,-196.43 1282.73,-190.49 1272.17,-189.66 1273.95,-196.43"/>
</g>
<!-- 12 -->
<g id="node7" class="node">
<title>12</title>
<ellipse fill="none" stroke="black" cx="1201" cy="-106" rx="55.79" ry="18"/>
<text text-anchor="middle" x="1201" y="-102.3" font-family="Times,serif" font-size="14.00">V1629 (a)</text>
</g>
<!-- 13 -->
<g id="node8" class="node">
<title>13</title>
<ellipse fill="none" stroke="black" cx="732" cy="-106" rx="50.09" ry="18"/>
<text text-anchor="middle" x="732" y="-102.3" font-family="Times,serif" font-size="14.00">V566 (a)</text>
</g>
<!-- 34 -->
<g id="node18" class="node">
<title>34</title>
<ellipse fill="none" stroke="black" cx="732" cy="-34" rx="55.79" ry="18"/>
<text text-anchor="middle" x="732" y="-30.3" font-family="Times,serif" font-size="14.00">V1639 (a)</text>
</g>
<!-- 13&#45;&gt;34 -->
<g id="edge16" class="edge">
<title>13&#45;&gt;34</title>
<path fill="none" stroke="black" stroke-dasharray="1,5" d="M732,-87.7C732,-79.98 732,-70.71 732,-62.11"/>
<polygon fill="black" stroke="black" points="735.5,-62.1 732,-52.1 728.5,-62.1 735.5,-62.1"/>
</g>
<!-- 17 -->
<g id="node9" class="node">
<title>17</title>
<ellipse fill="none" stroke="black" cx="840" cy="-106" rx="40.09" ry="18"/>
<text text-anchor="middle" x="840" y="-102.3" font-family="Times,serif" font-size="14.00">Pal (a)</text>
</g>
<!-- 37 -->
<g id="node20" class="node">
<title>37</title>
<ellipse fill="none" stroke="black" cx="372" cy="-106" rx="55.79" ry="18"/>
<text text-anchor="middle" x="372" y="-102.3" font-family="Times,serif" font-size="14.00">V2250 (a)</text>
</g>
<!-- 22&#45;&gt;37 -->
<g id="edge18" class="edge">
<title>22&#45;&gt;37</title>
<path fill="none" stroke="black" stroke-dasharray="5,2" d="M485.81,-163.5C464.34,-152.84 434.1,-137.83 410.2,-125.96"/>
<polygon fill="black" stroke="black" points="411.56,-122.73 401.04,-121.42 408.44,-129 411.56,-122.73"/>
</g>
<!-- 39 -->
<g id="node21" class="node">
<title>39</title>
<ellipse fill="none" stroke="black" cx="502" cy="-106" rx="55.79" ry="18"/>
<text text-anchor="middle" x="502" y="-102.3" font-family="Times,serif" font-size="14.00">V1897 (a)</text>
</g>
<!-- 22&#45;&gt;39 -->
<g id="edge19" class="edge">
<title>22&#45;&gt;39</title>
<path fill="none" stroke="black" stroke-dasharray="1,5" d="M510.28,-159.7C509.07,-151.98 507.61,-142.71 506.26,-134.11"/>
<polygon fill="black" stroke="black" points="509.7,-133.44 504.69,-124.1 502.78,-134.53 509.7,-133.44"/>
</g>
<!-- 23 -->
<g id="node11" class="node">
<title>23</title>
<ellipse fill="none" stroke="black" cx="451" cy="-34" rx="42.79" ry="18"/>
<text text-anchor="middle" x="451" y="-30.3" font-family="Times,serif" font-size="14.00">Bas (a)</text>
</g>
<!-- 25&#45;&gt;0 -->
<g id="edge1" class="edge">
<title>25&#45;&gt;0</title>
<path fill="none" stroke="black" stroke-dasharray="5,2" d="M620,-159.7C620,-151.98 620,-142.71 620,-134.11"/>
<polygon fill="black" stroke="black" points="623.5,-134.1 620,-124.1 616.5,-134.1 623.5,-134.1"/>
</g>
<!-- 25&#45;&gt;13 -->
<g id="edge6" class="edge">
<title>25&#45;&gt;13</title>
<path fill="none" stroke="black" stroke-dasharray="5,2" d="M643.21,-162.5C659.51,-152.31 681.53,-138.55 699.56,-127.27"/>
<polygon fill="black" stroke="black" points="701.43,-130.24 708.05,-121.97 697.72,-124.3 701.43,-130.24"/>
</g>
<!-- 25&#45;&gt;17 -->
<g id="edge7" class="edge">
<title>25&#45;&gt;17</title>
<path fill="none" stroke="black" stroke-dasharray="5,2" d="M653.62,-166.14C660.05,-164.08 666.73,-161.96 673,-160 725.33,-143.63 738.87,-140.99 791,-124 793.9,-123.05 796.9,-122.06 799.91,-121.05"/>
<polygon fill="black" stroke="black" points="801.14,-124.33 809.48,-117.79 798.88,-117.7 801.14,-124.33"/>
</g>
<!-- 27 -->
<g id="node14" class="node">
<title>27</title>
<ellipse fill="none" stroke="black" cx="553" cy="-34" rx="41.69" ry="18"/>
<text text-anchor="middle" x="553" y="-30.3" font-family="Times,serif" font-size="14.00">Est (a)</text>
</g>
<!-- 33&#45;&gt;9 -->
<g id="edge4" class="edge">
<title>33&#45;&gt;9</title>
<path fill="none" stroke="black" stroke-dasharray="5,2" d="M1080,-159.7C1080,-151.98 1080,-142.71 1080,-134.11"/>
<polygon fill="black" stroke="black" points="1083.5,-134.1 1080,-124.1 1076.5,-134.1 1083.5,-134.1"/>
</g>
<!-- 36&#45;&gt;12 -->
<g id="edge5" class="edge">
<title>36&#45;&gt;12</title>
<path fill="none" stroke="black" stroke-dasharray="1,5" d="M1201,-159.7C1201,-151.98 1201,-142.71 1201,-134.11"/>
<polygon fill="black" stroke="black" points="1204.5,-134.1 1201,-124.1 1197.5,-134.1 1204.5,-134.1"/>
</g>
<!-- 39&#45;&gt;23 -->
<g id="edge9" class="edge">
<title>39&#45;&gt;23</title>
<path fill="none" stroke="black" d="M489.91,-88.41C483.69,-79.87 475.97,-69.28 469.06,-59.79"/>
<polygon fill="black" stroke="black" points="471.72,-57.49 463,-51.47 466.06,-61.61 471.72,-57.49"/>
</g>
<!-- 39&#45;&gt;27 -->
<g id="edge12" class="edge">
<title>39&#45;&gt;27</title>
<path fill="none" stroke="black" stroke-dasharray="1,5" d="M514.09,-88.41C520.31,-79.87 528.03,-69.28 534.94,-59.79"/>
<polygon fill="black" stroke="black" points="537.94,-61.61 541,-51.47 532.28,-57.49 537.94,-61.61"/>
</g>
</g>
</svg>
