<?xml version="1.0" encoding="UTF-8" standalone="no"?>
<!DOCTYPE svg PUBLIC "-//W3C//DTD SVG 1.1//EN"
 "http://www.w3.org/Graphics/SVG/1.1/DTD/svg11.dtd">
<!-- Generated by graphviz version 2.43.0 (0)
 -->
<!-- Title: textual_flow_diagram Pages: 1 -->
<svg width="354pt" height="234pt"
 viewBox="0.00 0.00 354.00 234.00" xmlns="http://www.w3.org/2000/svg" xmlns:xlink="http://www.w3.org/1999/xlink">
<g id="graph0" class="graph" transform="scale(1 1) rotate(0) translate(4 230)">
<title>textual_flow_diagram</title>
<polygon fill="white" stroke="transparent" points="-4,4 -4,-230 350,-230 350,4 -4,4"/>
<g id="clust1" class="cluster">
<title>cluster_legend</title>
<polygon fill="none" stroke="black" points="8,-164 8,-218 186,-218 186,-164 8,-164"/>
</g>
<g id="clust2" class="cluster">
<title>cluster_plot</title>
</g>
<!-- label -->
<g id="node1" class="node">
<title>label</title>
<text text-anchor="middle" x="97" y="-194.8" font-family="Times,serif" font-size="14.00">adstag1.4.1U8&#45;14, c</text>
<text text-anchor="middle" x="97" y="-179.8" font-family="Times,serif" font-size="14.00">Con = 5</text>
</g>
<!-- 13 -->
<g id="node2" class="node">
<title>13</title>
<ellipse fill="none" stroke="black" cx="266" cy="-34" rx="64.19" ry="18"/>
<text text-anchor="middle" x="266" y="-30.3" font-family="Times,serif" font-size="14.00">Savile&#45;Η (c)</text>
</g>
<!-- 29 -->
<g id="node3" class="node">
<title>29</title>
<ellipse fill="none" stroke="black" cx="266" cy="-117" rx="39.79" ry="18"/>
<text text-anchor="middle" x="266" y="-113.3" font-family="Times,serif" font-size="14.00">Pal (c)</text>
</g>
<!-- 29&#45;&gt;13 -->
<g id="edge1" class="edge">
<title>29&#45;&gt;13</title>
<path fill="none" stroke="black" d="M266,-98.82C266,-88.19 266,-74.31 266,-62.2"/>
<polygon fill="black" stroke="black" points="269.5,-62.15 266,-52.15 262.5,-62.15 269.5,-62.15"/>
<text text-anchor="middle" x="269.5" y="-73" font-family="Times,serif" font-size="10.00">2</text>
</g>
<!-- 14 -->
<g id="node4" class="node">
<title>14</title>
<ellipse fill="none" stroke="blue" stroke-dasharray="5,2" cx="266" cy="-191" rx="44.39" ry="18"/>
<text text-anchor="middle" x="266" y="-187.3" font-family="Times,serif" font-size="14.00">A25 (a)</text>
</g>
<!-- 14&#45;&gt;29 -->
<g id="edge2" class="edge">
<title>14&#45;&gt;29</title>
<path fill="none" stroke="blue" stroke-dasharray="5,2" d="M266,-172.94C266,-164.81 266,-154.88 266,-145.7"/>
<polygon fill="blue" stroke="blue" points="269.5,-145.44 266,-135.44 262.5,-145.44 269.5,-145.44"/>
</g>
</g>
</svg>
