<?xml version="1.0" encoding="UTF-8" standalone="no"?>
<!DOCTYPE svg PUBLIC "-//W3C//DTD SVG 1.1//EN"
 "http://www.w3.org/Graphics/SVG/1.1/DTD/svg11.dtd">
<!-- Generated by graphviz version 2.43.0 (0)
 -->
<!-- Title: textual_flow_diagram Pages: 1 -->
<svg width="1140pt" height="317pt"
 viewBox="0.00 0.00 1140.00 317.00" xmlns="http://www.w3.org/2000/svg" xmlns:xlink="http://www.w3.org/1999/xlink">
<g id="graph0" class="graph" transform="scale(1 1) rotate(0) translate(4 313)">
<title>textual_flow_diagram</title>
<polygon fill="white" stroke="transparent" points="-4,4 -4,-313 1136,-313 1136,4 -4,4"/>
<g id="clust1" class="cluster">
<title>cluster_legend</title>
<polygon fill="none" stroke="black" points="8,-247 8,-301 204,-301 204,-247 8,-247"/>
</g>
<g id="clust2" class="cluster">
<title>cluster_plot</title>
</g>
<!-- label -->
<g id="node1" class="node">
<title>label</title>
<text text-anchor="middle" x="106" y="-277.8" font-family="Times,serif" font-size="14.00">adstag1.4.13U12&#45;14, a</text>
<text text-anchor="middle" x="106" y="-262.8" font-family="Times,serif" font-size="14.00">Con = 3</text>
</g>
<!-- 1 -->
<g id="node2" class="node">
<title>1</title>
<ellipse fill="none" stroke="black" cx="860" cy="-107" rx="55.79" ry="18"/>
<text text-anchor="middle" x="860" y="-103.3" font-family="Times,serif" font-size="14.00">V2250 (a)</text>
</g>
<!-- 2 -->
<g id="node3" class="node">
<title>2</title>
<ellipse fill="none" stroke="black" cx="382" cy="-190" rx="50.09" ry="18"/>
<text text-anchor="middle" x="382" y="-186.3" font-family="Times,serif" font-size="14.00">S249 (a)</text>
</g>
<!-- 4 -->
<g id="node4" class="node">
<title>4</title>
<ellipse fill="none" stroke="black" cx="499" cy="-190" rx="48.99" ry="18"/>
<text text-anchor="middle" x="499" y="-186.3" font-family="Times,serif" font-size="14.00">La22 (a)</text>
</g>
<!-- 19 -->
<g id="node9" class="node">
<title>19</title>
<ellipse fill="none" stroke="black" cx="270" cy="-107" rx="50.09" ry="18"/>
<text text-anchor="middle" x="270" y="-103.3" font-family="Times,serif" font-size="14.00">V571 (a)</text>
</g>
<!-- 4&#45;&gt;19 -->
<g id="edge7" class="edge">
<title>4&#45;&gt;19</title>
<path fill="none" stroke="black" stroke-dasharray="1,5" d="M464.72,-176.87C424.58,-162.68 358.02,-139.13 314.08,-123.59"/>
<polygon fill="black" stroke="black" points="315.11,-120.24 304.52,-120.21 312.78,-126.84 315.11,-120.24"/>
</g>
<!-- 27 -->
<g id="node15" class="node">
<title>27</title>
<ellipse fill="none" stroke="black" cx="388" cy="-107" rx="50.09" ry="18"/>
<text text-anchor="middle" x="388" y="-103.3" font-family="Times,serif" font-size="14.00">A116 (a)</text>
</g>
<!-- 4&#45;&gt;27 -->
<g id="edge13" class="edge">
<title>4&#45;&gt;27</title>
<path fill="none" stroke="black" stroke-dasharray="5,2" d="M477.86,-173.57C460.73,-161.08 436.41,-143.32 417.38,-129.44"/>
<polygon fill="black" stroke="black" points="419.2,-126.44 409.06,-123.37 415.08,-132.09 419.2,-126.44"/>
</g>
<!-- 38 -->
<g id="node17" class="node">
<title>38</title>
<ellipse fill="none" stroke="black" cx="509" cy="-107" rx="52.79" ry="18"/>
<text text-anchor="middle" x="509" y="-103.3" font-family="Times,serif" font-size="14.00">M111 (a)</text>
</g>
<!-- 4&#45;&gt;38 -->
<g id="edge15" class="edge">
<title>4&#45;&gt;38</title>
<path fill="none" stroke="black" stroke-dasharray="1,5" d="M501.12,-171.82C502.43,-161.19 504.15,-147.31 505.64,-135.2"/>
<polygon fill="black" stroke="black" points="509.13,-135.51 506.88,-125.15 502.18,-134.65 509.13,-135.51"/>
</g>
<!-- 6 -->
<g id="node5" class="node">
<title>6</title>
<ellipse fill="none" stroke="black" cx="267" cy="-190" rx="46.59" ry="18"/>
<text text-anchor="middle" x="267" y="-186.3" font-family="Times,serif" font-size="14.00">Taur (a)</text>
</g>
<!-- 14 -->
<g id="node6" class="node">
<title>14</title>
<ellipse fill="none" stroke="black" cx="610" cy="-190" rx="44.39" ry="18"/>
<text text-anchor="middle" x="610" y="-186.3" font-family="Times,serif" font-size="14.00">A25 (a)</text>
</g>
<!-- 22 -->
<g id="node12" class="node">
<title>22</title>
<ellipse fill="none" stroke="black" cx="630" cy="-107" rx="50.09" ry="18"/>
<text text-anchor="middle" x="630" y="-103.3" font-family="Times,serif" font-size="14.00">V566 (a)</text>
</g>
<!-- 14&#45;&gt;22 -->
<g id="edge10" class="edge">
<title>14&#45;&gt;22</title>
<path fill="none" stroke="black" stroke-dasharray="5,2" d="M614.24,-171.82C616.87,-161.19 620.29,-147.31 623.28,-135.2"/>
<polygon fill="black" stroke="black" points="626.77,-135.7 625.76,-125.15 619.97,-134.02 626.77,-135.7"/>
</g>
<!-- 30 -->
<g id="node16" class="node">
<title>30</title>
<ellipse fill="none" stroke="black" cx="742" cy="-107" rx="44.39" ry="18"/>
<text text-anchor="middle" x="742" y="-103.3" font-family="Times,serif" font-size="14.00">S32 (a)</text>
</g>
<!-- 14&#45;&gt;30 -->
<g id="edge14" class="edge">
<title>14&#45;&gt;30</title>
<path fill="none" stroke="black" stroke-dasharray="5,2" d="M633.6,-174.52C654.9,-161.45 686.43,-142.1 710,-127.64"/>
<polygon fill="black" stroke="black" points="711.91,-130.57 718.61,-122.36 708.25,-124.6 711.91,-130.57"/>
</g>
<!-- 16 -->
<g id="node7" class="node">
<title>16</title>
<ellipse fill="none" stroke="black" cx="717" cy="-274" rx="53.89" ry="18"/>
<text text-anchor="middle" x="717" y="-270.3" font-family="Times,serif" font-size="14.00">aBase (a)</text>
</g>
<!-- 16&#45;&gt;2 -->
<g id="edge2" class="edge">
<title>16&#45;&gt;2</title>
<path fill="none" stroke="black" d="M673.34,-263.41C618.79,-251.28 522.68,-229.37 441,-208 437.16,-207 433.2,-205.93 429.22,-204.83"/>
<polygon fill="black" stroke="black" points="429.95,-201.4 419.38,-202.07 428.06,-208.14 429.95,-201.4"/>
</g>
<!-- 16&#45;&gt;4 -->
<g id="edge3" class="edge">
<title>16&#45;&gt;4</title>
<path fill="none" stroke="black" stroke-dasharray="5,2" d="M682.46,-260.01C644.22,-245.62 582.57,-222.44 541.43,-206.96"/>
<polygon fill="black" stroke="black" points="542.55,-203.64 531.95,-203.4 540.08,-210.19 542.55,-203.64"/>
</g>
<!-- 16&#45;&gt;14 -->
<g id="edge5" class="edge">
<title>16&#45;&gt;14</title>
<path fill="none" stroke="black" stroke-dasharray="5,2" d="M696.37,-257.19C679.73,-244.44 656.16,-226.37 637.84,-212.34"/>
<polygon fill="black" stroke="black" points="639.91,-209.51 629.84,-206.21 635.65,-215.07 639.91,-209.51"/>
</g>
<!-- 17 -->
<g id="node8" class="node">
<title>17</title>
<ellipse fill="none" stroke="black" cx="717" cy="-190" rx="44.69" ry="18"/>
<text text-anchor="middle" x="717" y="-186.3" font-family="Times,serif" font-size="14.00">Nan (a)</text>
</g>
<!-- 16&#45;&gt;17 -->
<g id="edge6" class="edge">
<title>16&#45;&gt;17</title>
<path fill="none" stroke="black" d="M717,-255.61C717,-244.77 717,-230.6 717,-218.29"/>
<polygon fill="black" stroke="black" points="720.5,-218.08 717,-208.08 713.5,-218.08 720.5,-218.08"/>
</g>
<!-- 21 -->
<g id="node11" class="node">
<title>21</title>
<ellipse fill="none" stroke="black" cx="824" cy="-190" rx="44.39" ry="18"/>
<text text-anchor="middle" x="824" y="-186.3" font-family="Times,serif" font-size="14.00">B39 (a)</text>
</g>
<!-- 16&#45;&gt;21 -->
<g id="edge9" class="edge">
<title>16&#45;&gt;21</title>
<path fill="none" stroke="black" stroke-width="2" d="M737.63,-257.19C754.27,-244.44 777.84,-226.37 796.16,-212.34"/>
<polygon fill="black" stroke="black" stroke-width="2" points="798.35,-215.07 804.16,-206.21 794.09,-209.51 798.35,-215.07"/>
<text text-anchor="middle" x="779.5" y="-229" font-family="Times,serif" font-size="10.00">2</text>
</g>
<!-- 26 -->
<g id="node14" class="node">
<title>26</title>
<ellipse fill="none" stroke="black" cx="942" cy="-190" rx="55.79" ry="18"/>
<text text-anchor="middle" x="942" y="-186.3" font-family="Times,serif" font-size="14.00">V2036 (a)</text>
</g>
<!-- 16&#45;&gt;26 -->
<g id="edge12" class="edge">
<title>16&#45;&gt;26</title>
<path fill="none" stroke="black" d="M752.16,-260.19C791.14,-245.98 854.15,-223.02 896.78,-207.48"/>
<polygon fill="black" stroke="black" points="898.15,-210.71 906.35,-203.99 895.75,-204.13 898.15,-210.71"/>
</g>
<!-- 42 -->
<g id="node18" class="node">
<title>42</title>
<ellipse fill="none" stroke="black" cx="1066" cy="-190" rx="50.09" ry="18"/>
<text text-anchor="middle" x="1066" y="-186.3" font-family="Times,serif" font-size="14.00">Patm (a)</text>
</g>
<!-- 16&#45;&gt;42 -->
<g id="edge16" class="edge">
<title>16&#45;&gt;42</title>
<path fill="none" stroke="black" d="M761.91,-263.81C819.08,-251.91 920.77,-230.06 1007,-208 1010.84,-207.02 1014.81,-205.96 1018.79,-204.87"/>
<polygon fill="black" stroke="black" points="1019.94,-208.19 1028.64,-202.13 1018.07,-201.44 1019.94,-208.19"/>
</g>
<!-- 17&#45;&gt;1 -->
<g id="edge1" class="edge">
<title>17&#45;&gt;1</title>
<path fill="none" stroke="black" d="M741.91,-174.89C764.81,-161.92 799.02,-142.54 824.73,-127.98"/>
<polygon fill="black" stroke="black" points="826.46,-131.02 833.44,-123.05 823.01,-124.93 826.46,-131.02"/>
</g>
<!-- 25 -->
<g id="node13" class="node">
<title>25</title>
<ellipse fill="none" stroke="black" cx="975" cy="-107" rx="41.69" ry="18"/>
<text text-anchor="middle" x="975" y="-103.3" font-family="Times,serif" font-size="14.00">Est (a)</text>
</g>
<!-- 17&#45;&gt;25 -->
<g id="edge11" class="edge">
<title>17&#45;&gt;25</title>
<path fill="none" stroke="black" stroke-dasharray="5,2" d="M751.27,-178.16C757.81,-176.11 764.62,-173.98 771,-172 839.35,-150.81 856.89,-146.97 925,-125 927.92,-124.06 930.92,-123.07 933.95,-122.07"/>
<polygon fill="black" stroke="black" points="935.2,-125.34 943.58,-118.85 932.98,-118.71 935.2,-125.34"/>
<text text-anchor="middle" x="869.5" y="-146" font-family="Times,serif" font-size="10.00">2</text>
</g>
<!-- 20 -->
<g id="node10" class="node">
<title>20</title>
<ellipse fill="none" stroke="black" cx="630" cy="-34" rx="55.79" ry="18"/>
<text text-anchor="middle" x="630" y="-30.3" font-family="Times,serif" font-size="14.00">V1639 (a)</text>
</g>
<!-- 22&#45;&gt;20 -->
<g id="edge8" class="edge">
<title>22&#45;&gt;20</title>
<path fill="none" stroke="black" stroke-dasharray="1,5" d="M630,-88.81C630,-80.79 630,-71.05 630,-62.07"/>
<polygon fill="black" stroke="black" points="633.5,-62.03 630,-52.03 626.5,-62.03 633.5,-62.03"/>
</g>
<!-- 36 -->
<g id="node19" class="node">
<title>36</title>
<ellipse fill="none" stroke="blue" stroke-dasharray="5,2" cx="270" cy="-274" rx="50.09" ry="18"/>
<text text-anchor="middle" x="270" y="-270.3" font-family="Times,serif" font-size="14.00">V568 (b)</text>
</g>
<!-- 36&#45;&gt;6 -->
<g id="edge4" class="edge">
<title>36&#45;&gt;6</title>
<path fill="none" stroke="blue" stroke-dasharray="1,5" d="M269.36,-255.61C268.97,-244.77 268.45,-230.6 268,-218.29"/>
<polygon fill="blue" stroke="blue" points="271.49,-217.95 267.63,-208.08 264.49,-218.21 271.49,-217.95"/>
</g>
</g>
</svg>
