<?xml version="1.0" encoding="UTF-8" standalone="no"?>
<!DOCTYPE svg PUBLIC "-//W3C//DTD SVG 1.1//EN"
 "http://www.w3.org/Graphics/SVG/1.1/DTD/svg11.dtd">
<!-- Generated by graphviz version 2.43.0 (0)
 -->
<!-- Title: textual_flow_diagram Pages: 1 -->
<svg width="1928pt" height="307pt"
 viewBox="0.00 0.00 1928.00 307.00" xmlns="http://www.w3.org/2000/svg" xmlns:xlink="http://www.w3.org/1999/xlink">
<g id="graph0" class="graph" transform="scale(1 1) rotate(0) translate(4 303)">
<title>textual_flow_diagram</title>
<polygon fill="white" stroke="transparent" points="-4,4 -4,-303 1924,-303 1924,4 -4,4"/>
<g id="clust1" class="cluster">
<title>cluster_legend</title>
<polygon fill="none" stroke="black" points="8,-237 8,-291 182,-291 182,-237 8,-237"/>
</g>
<g id="clust2" class="cluster">
<title>cluster_plot</title>
</g>
<!-- label -->
<g id="node1" class="node">
<title>label</title>
<text text-anchor="middle" x="95" y="-267.8" font-family="Times,serif" font-size="14.00">adstag1.3.11U34, a</text>
<text text-anchor="middle" x="95" y="-252.8" font-family="Times,serif" font-size="14.00">Con = 5</text>
</g>
<!-- 0 -->
<g id="node2" class="node">
<title>0</title>
<ellipse fill="none" stroke="black" cx="1033" cy="-107" rx="52.79" ry="18"/>
<text text-anchor="middle" x="1033" y="-103.3" font-family="Times,serif" font-size="14.00">M111 (a)</text>
</g>
<!-- 18 -->
<g id="node14" class="node">
<title>18</title>
<ellipse fill="none" stroke="black" cx="1033" cy="-34" rx="50.09" ry="18"/>
<text text-anchor="middle" x="1033" y="-30.3" font-family="Times,serif" font-size="14.00">A336 (a)</text>
</g>
<!-- 0&#45;&gt;18 -->
<g id="edge13" class="edge">
<title>0&#45;&gt;18</title>
<path fill="none" stroke="black" stroke-dasharray="5,2" d="M1033,-88.81C1033,-80.79 1033,-71.05 1033,-62.07"/>
<polygon fill="black" stroke="black" points="1036.5,-62.03 1033,-52.03 1029.5,-62.03 1036.5,-62.03"/>
</g>
<!-- 2 -->
<g id="node3" class="node">
<title>2</title>
<ellipse fill="none" stroke="black" cx="1154" cy="-107" rx="50.09" ry="18"/>
<text text-anchor="middle" x="1154" y="-103.3" font-family="Times,serif" font-size="14.00">A116 (a)</text>
</g>
<!-- 3 -->
<g id="node4" class="node">
<title>3</title>
<ellipse fill="none" stroke="black" cx="1272" cy="-107" rx="50.09" ry="18"/>
<text text-anchor="middle" x="1272" y="-103.3" font-family="Times,serif" font-size="14.00">V565 (a)</text>
</g>
<!-- 5 -->
<g id="node5" class="node">
<title>5</title>
<ellipse fill="none" stroke="black" cx="301" cy="-180" rx="52.79" ry="18"/>
<text text-anchor="middle" x="301" y="-176.3" font-family="Times,serif" font-size="14.00">LaSM (a)</text>
</g>
<!-- 20 -->
<g id="node16" class="node">
<title>20</title>
<ellipse fill="none" stroke="black" cx="242" cy="-107" rx="44.39" ry="18"/>
<text text-anchor="middle" x="242" y="-103.3" font-family="Times,serif" font-size="14.00">B39 (a)</text>
</g>
<!-- 5&#45;&gt;20 -->
<g id="edge15" class="edge">
<title>5&#45;&gt;20</title>
<path fill="none" stroke="black" stroke-dasharray="5,2" d="M287.32,-162.53C279.87,-153.57 270.51,-142.31 262.24,-132.36"/>
<polygon fill="black" stroke="black" points="264.69,-129.83 255.61,-124.38 259.31,-134.31 264.69,-129.83"/>
</g>
<!-- 6 -->
<g id="node6" class="node">
<title>6</title>
<ellipse fill="none" stroke="black" cx="1396" cy="-107" rx="55.79" ry="18"/>
<text text-anchor="middle" x="1396" y="-103.3" font-family="Times,serif" font-size="14.00">V2036 (a)</text>
</g>
<!-- 7 -->
<g id="node7" class="node">
<title>7</title>
<ellipse fill="none" stroke="black" cx="1514" cy="-107" rx="44.39" ry="18"/>
<text text-anchor="middle" x="1514" y="-103.3" font-family="Times,serif" font-size="14.00">P74 (a)</text>
</g>
<!-- 8 -->
<g id="node8" class="node">
<title>8</title>
<ellipse fill="none" stroke="black" cx="484" cy="-107" rx="50.09" ry="18"/>
<text text-anchor="middle" x="484" y="-103.3" font-family="Times,serif" font-size="14.00">V566 (a)</text>
</g>
<!-- 12 -->
<g id="node10" class="node">
<title>12</title>
<ellipse fill="none" stroke="black" cx="484" cy="-34" rx="55.79" ry="18"/>
<text text-anchor="middle" x="484" y="-30.3" font-family="Times,serif" font-size="14.00">V1639 (a)</text>
</g>
<!-- 8&#45;&gt;12 -->
<g id="edge9" class="edge">
<title>8&#45;&gt;12</title>
<path fill="none" stroke="black" stroke-dasharray="1,5" d="M484,-88.81C484,-80.79 484,-71.05 484,-62.07"/>
<polygon fill="black" stroke="black" points="487.5,-62.03 484,-52.03 480.5,-62.03 487.5,-62.03"/>
</g>
<!-- 10 -->
<g id="node9" class="node">
<title>10</title>
<ellipse fill="none" stroke="black" cx="447" cy="-180" rx="50.09" ry="18"/>
<text text-anchor="middle" x="447" y="-176.3" font-family="Times,serif" font-size="14.00">Neap (a)</text>
</g>
<!-- 24 -->
<g id="node18" class="node">
<title>24</title>
<ellipse fill="none" stroke="black" cx="360" cy="-107" rx="55.79" ry="18"/>
<text text-anchor="middle" x="360" y="-103.3" font-family="Times,serif" font-size="14.00">V1629 (a)</text>
</g>
<!-- 10&#45;&gt;24 -->
<g id="edge17" class="edge">
<title>10&#45;&gt;24</title>
<path fill="none" stroke="black" stroke-dasharray="1,5" d="M427.69,-163.24C415.84,-153.57 400.46,-141.02 387.36,-130.33"/>
<polygon fill="black" stroke="black" points="389.52,-127.57 379.55,-123.96 385.09,-132.99 389.52,-127.57"/>
</g>
<!-- 13 -->
<g id="node11" class="node">
<title>13</title>
<ellipse fill="none" stroke="black" cx="596" cy="-107" rx="44.39" ry="18"/>
<text text-anchor="middle" x="596" y="-103.3" font-family="Times,serif" font-size="14.00">S32 (a)</text>
</g>
<!-- 16 -->
<g id="node12" class="node">
<title>16</title>
<ellipse fill="none" stroke="black" cx="580" cy="-180" rx="52.79" ry="18"/>
<text text-anchor="middle" x="580" y="-176.3" font-family="Times,serif" font-size="14.00">M136 (a)</text>
</g>
<!-- 17 -->
<g id="node13" class="node">
<title>17</title>
<ellipse fill="none" stroke="black" cx="1625" cy="-107" rx="48.99" ry="18"/>
<text text-anchor="middle" x="1625" y="-103.3" font-family="Times,serif" font-size="14.00">La35 (a)</text>
</g>
<!-- 19 -->
<g id="node15" class="node">
<title>19</title>
<ellipse fill="none" stroke="black" cx="1742" cy="-107" rx="50.09" ry="18"/>
<text text-anchor="middle" x="1742" y="-103.3" font-family="Times,serif" font-size="14.00">V571 (a)</text>
</g>
<!-- 21 -->
<g id="node17" class="node">
<title>21</title>
<ellipse fill="none" stroke="black" cx="695" cy="-180" rx="44.39" ry="18"/>
<text text-anchor="middle" x="695" y="-176.3" font-family="Times,serif" font-size="14.00">A25 (a)</text>
</g>
<!-- 21&#45;&gt;8 -->
<g id="edge7" class="edge">
<title>21&#45;&gt;8</title>
<path fill="none" stroke="black" stroke-dasharray="5,2" d="M662.03,-167.91C626.16,-155.84 568.61,-136.47 528.69,-123.04"/>
<polygon fill="black" stroke="black" points="529.79,-119.72 519.2,-119.84 527.56,-126.35 529.79,-119.72"/>
</g>
<!-- 21&#45;&gt;13 -->
<g id="edge10" class="edge">
<title>21&#45;&gt;13</title>
<path fill="none" stroke="black" stroke-dasharray="5,2" d="M674,-163.94C659.83,-153.78 640.92,-140.22 625.27,-128.99"/>
<polygon fill="black" stroke="black" points="627.13,-126.02 616.97,-123.04 623.05,-131.71 627.13,-126.02"/>
</g>
<!-- 34 -->
<g id="node21" class="node">
<title>34</title>
<ellipse fill="none" stroke="black" cx="708" cy="-107" rx="50.09" ry="18"/>
<text text-anchor="middle" x="708" y="-103.3" font-family="Times,serif" font-size="14.00">Patm (a)</text>
</g>
<!-- 21&#45;&gt;34 -->
<g id="edge20" class="edge">
<title>21&#45;&gt;34</title>
<path fill="none" stroke="black" stroke-dasharray="1,5" d="M698.15,-161.81C699.62,-153.79 701.4,-144.05 703.04,-135.07"/>
<polygon fill="black" stroke="black" points="706.52,-135.5 704.88,-125.03 699.64,-134.23 706.52,-135.5"/>
</g>
<!-- 36 -->
<g id="node22" class="node">
<title>36</title>
<ellipse fill="none" stroke="black" cx="816" cy="-107" rx="40.09" ry="18"/>
<text text-anchor="middle" x="816" y="-103.3" font-family="Times,serif" font-size="14.00">Pal (a)</text>
</g>
<!-- 21&#45;&gt;36 -->
<g id="edge21" class="edge">
<title>21&#45;&gt;36</title>
<path fill="none" stroke="black" stroke-dasharray="5,2" d="M719.2,-164.8C737.74,-153.92 763.49,-138.81 783.78,-126.91"/>
<polygon fill="black" stroke="black" points="785.82,-129.77 792.67,-121.69 782.27,-123.73 785.82,-129.77"/>
</g>
<!-- 37 -->
<g id="node23" class="node">
<title>37</title>
<ellipse fill="none" stroke="black" cx="918" cy="-107" rx="44.39" ry="18"/>
<text text-anchor="middle" x="918" y="-103.3" font-family="Times,serif" font-size="14.00">P01 (a)</text>
</g>
<!-- 21&#45;&gt;37 -->
<g id="edge22" class="edge">
<title>21&#45;&gt;37</title>
<path fill="none" stroke="black" stroke-dasharray="5,2" d="M728.64,-168.19C735.06,-166.13 741.74,-163.99 748,-162 799.97,-145.45 813.03,-141.55 865,-125 868.13,-124 871.36,-122.97 874.62,-121.93"/>
<polygon fill="black" stroke="black" points="875.9,-125.19 884.36,-118.81 873.77,-118.53 875.9,-125.19"/>
</g>
<!-- 25 -->
<g id="node19" class="node">
<title>25</title>
<ellipse fill="none" stroke="black" cx="813" cy="-180" rx="55.79" ry="18"/>
<text text-anchor="middle" x="813" y="-176.3" font-family="Times,serif" font-size="14.00">V2250 (a)</text>
</g>
<!-- 26 -->
<g id="node20" class="node">
<title>26</title>
<ellipse fill="none" stroke="black" cx="1396" cy="-180" rx="48.99" ry="18"/>
<text text-anchor="middle" x="1396" y="-176.3" font-family="Times,serif" font-size="14.00">La22 (a)</text>
</g>
<!-- 26&#45;&gt;0 -->
<g id="edge1" class="edge">
<title>26&#45;&gt;0</title>
<path fill="none" stroke="black" stroke-dasharray="1,5" d="M1351.63,-172.32C1292.69,-163.16 1185.49,-145.48 1095,-125 1090.66,-124.02 1086.16,-122.93 1081.67,-121.79"/>
<polygon fill="black" stroke="black" points="1082.45,-118.38 1071.89,-119.24 1080.69,-125.15 1082.45,-118.38"/>
</g>
<!-- 26&#45;&gt;2 -->
<g id="edge2" class="edge">
<title>26&#45;&gt;2</title>
<path fill="none" stroke="black" stroke-dasharray="5,2" d="M1358.98,-168.14C1316.67,-155.73 1247.33,-135.38 1201.18,-121.84"/>
<polygon fill="black" stroke="black" points="1201.99,-118.43 1191.41,-118.98 1200.02,-125.15 1201.99,-118.43"/>
</g>
<!-- 26&#45;&gt;3 -->
<g id="edge3" class="edge">
<title>26&#45;&gt;3</title>
<path fill="none" stroke="black" stroke-dasharray="5,2" d="M1370.61,-164.46C1351.97,-153.79 1326.45,-139.18 1306.04,-127.49"/>
<polygon fill="black" stroke="black" points="1307.78,-124.45 1297.36,-122.52 1304.3,-130.53 1307.78,-124.45"/>
</g>
<!-- 26&#45;&gt;6 -->
<g id="edge5" class="edge">
<title>26&#45;&gt;6</title>
<path fill="none" stroke="black" stroke-dasharray="5,2" d="M1396,-161.81C1396,-153.79 1396,-144.05 1396,-135.07"/>
<polygon fill="black" stroke="black" points="1399.5,-135.03 1396,-125.03 1392.5,-135.03 1399.5,-135.03"/>
</g>
<!-- 26&#45;&gt;7 -->
<g id="edge6" class="edge">
<title>26&#45;&gt;7</title>
<path fill="none" stroke="black" stroke-dasharray="1,5" d="M1420.45,-164.29C1438.05,-153.7 1461.98,-139.3 1481.23,-127.72"/>
<polygon fill="black" stroke="black" points="1483.22,-130.6 1489.99,-122.45 1479.61,-124.61 1483.22,-130.6"/>
</g>
<!-- 26&#45;&gt;17 -->
<g id="edge12" class="edge">
<title>26&#45;&gt;17</title>
<path fill="none" stroke="black" stroke-dasharray="1,5" d="M1432.03,-167.83C1471.76,-155.51 1535.78,-135.66 1579.08,-122.24"/>
<polygon fill="black" stroke="black" points="1580.28,-125.53 1588.8,-119.22 1578.21,-118.84 1580.28,-125.53"/>
</g>
<!-- 26&#45;&gt;19 -->
<g id="edge14" class="edge">
<title>26&#45;&gt;19</title>
<path fill="none" stroke="black" stroke-dasharray="1,5" d="M1440.03,-172.05C1496.6,-162.81 1597.66,-145.27 1683,-125 1687.03,-124.04 1691.19,-122.99 1695.35,-121.88"/>
<polygon fill="black" stroke="black" points="1696.28,-125.25 1705,-119.24 1694.43,-118.5 1696.28,-125.25"/>
</g>
<!-- 39 -->
<g id="node24" class="node">
<title>39</title>
<ellipse fill="none" stroke="black" cx="1857" cy="-107" rx="46.59" ry="18"/>
<text text-anchor="middle" x="1857" y="-103.3" font-family="Times,serif" font-size="14.00">Bodl (a)</text>
</g>
<!-- 26&#45;&gt;39 -->
<g id="edge23" class="edge">
<title>26&#45;&gt;39</title>
<path fill="none" stroke="black" stroke-dasharray="5,2" d="M1443.2,-175.21C1519.19,-168.55 1673.1,-152.75 1801,-125 1804.91,-124.15 1808.94,-123.16 1812.97,-122.1"/>
<polygon fill="black" stroke="black" points="1814.19,-125.39 1822.88,-119.32 1812.3,-118.65 1814.19,-125.39"/>
</g>
<!-- 40 -->
<g id="node25" class="node">
<title>40</title>
<ellipse fill="none" stroke="black" cx="638" cy="-264" rx="53.89" ry="18"/>
<text text-anchor="middle" x="638" y="-260.3" font-family="Times,serif" font-size="14.00">aBase (a)</text>
</g>
<!-- 40&#45;&gt;5 -->
<g id="edge4" class="edge">
<title>40&#45;&gt;5</title>
<path fill="none" stroke="black" d="M595.66,-252.7C533.87,-237.66 419.1,-209.74 352.5,-193.53"/>
<polygon fill="black" stroke="black" points="353.18,-190.1 342.64,-191.13 351.53,-196.9 353.18,-190.1"/>
</g>
<!-- 40&#45;&gt;10 -->
<g id="edge8" class="edge">
<title>40&#45;&gt;10</title>
<path fill="none" stroke="black" stroke-width="2" d="M606.03,-249.28C573.42,-235.27 522.71,-213.5 487.35,-198.32"/>
<polygon fill="black" stroke="black" stroke-width="2" points="488.38,-194.95 477.81,-194.23 485.61,-201.39 488.38,-194.95"/>
</g>
<!-- 40&#45;&gt;16 -->
<g id="edge11" class="edge">
<title>40&#45;&gt;16</title>
<path fill="none" stroke="black" stroke-width="2" d="M626.26,-246.41C618.01,-234.74 606.82,-218.92 597.51,-205.76"/>
<polygon fill="black" stroke="black" stroke-width="2" points="600.35,-203.71 591.72,-197.57 594.64,-207.75 600.35,-203.71"/>
</g>
<!-- 40&#45;&gt;21 -->
<g id="edge16" class="edge">
<title>40&#45;&gt;21</title>
<path fill="none" stroke="black" stroke-dasharray="5,2" d="M649.53,-246.41C657.57,-234.85 668.43,-219.22 677.53,-206.14"/>
<polygon fill="black" stroke="black" points="680.65,-207.78 683.48,-197.57 674.9,-203.78 680.65,-207.78"/>
</g>
<!-- 40&#45;&gt;25 -->
<g id="edge18" class="edge">
<title>40&#45;&gt;25</title>
<path fill="none" stroke="black" stroke-width="2" d="M668.08,-248.9C697.26,-235.23 741.68,-214.42 773.65,-199.44"/>
<polygon fill="black" stroke="black" stroke-width="2" points="775.15,-202.6 782.72,-195.19 772.18,-196.26 775.15,-202.6"/>
<text text-anchor="middle" x="738.5" y="-219" font-family="Times,serif" font-size="10.00">3</text>
</g>
<!-- 40&#45;&gt;26 -->
<g id="edge19" class="edge">
<title>40&#45;&gt;26</title>
<path fill="none" stroke="black" stroke-dasharray="5,2" d="M688.62,-257.52C824.53,-242.82 1196.77,-202.55 1339.38,-187.13"/>
<polygon fill="black" stroke="black" points="1340.08,-190.57 1349.65,-186.01 1339.33,-183.61 1340.08,-190.57"/>
</g>
</g>
</svg>
