<?xml version="1.0" encoding="UTF-8" standalone="no"?>
<!DOCTYPE svg PUBLIC "-//W3C//DTD SVG 1.1//EN"
 "http://www.w3.org/Graphics/SVG/1.1/DTD/svg11.dtd">
<!-- Generated by graphviz version 2.43.0 (0)
 -->
<!-- Title: textual_flow_diagram Pages: 1 -->
<svg width="1961pt" height="294pt"
 viewBox="0.00 0.00 1961.00 294.00" xmlns="http://www.w3.org/2000/svg" xmlns:xlink="http://www.w3.org/1999/xlink">
<g id="graph0" class="graph" transform="scale(1 1) rotate(0) translate(4 290)">
<title>textual_flow_diagram</title>
<polygon fill="white" stroke="transparent" points="-4,4 -4,-290 1957,-290 1957,4 -4,4"/>
<g id="clust1" class="cluster">
<title>cluster_legend</title>
<polygon fill="none" stroke="black" points="8,-224 8,-278 204,-278 204,-224 8,-224"/>
</g>
<g id="clust2" class="cluster">
<title>cluster_plot</title>
</g>
<!-- label -->
<g id="node1" class="node">
<title>label</title>
<text text-anchor="middle" x="106" y="-254.8" font-family="Times,serif" font-size="14.00">adstag1.3.46U62&#45;66, a</text>
<text text-anchor="middle" x="106" y="-239.8" font-family="Times,serif" font-size="14.00">Con = 5</text>
</g>
<!-- 1 -->
<g id="node2" class="node">
<title>1</title>
<ellipse fill="none" stroke="black" cx="611" cy="-178" rx="50.09" ry="18"/>
<text text-anchor="middle" x="611" y="-174.3" font-family="Times,serif" font-size="14.00">Patm (a)</text>
</g>
<!-- 3 -->
<g id="node3" class="node">
<title>3</title>
<ellipse fill="none" stroke="black" cx="264" cy="-106" rx="44.39" ry="18"/>
<text text-anchor="middle" x="264" y="-102.3" font-family="Times,serif" font-size="14.00">P74 (a)</text>
</g>
<!-- 5 -->
<g id="node4" class="node">
<title>5</title>
<ellipse fill="none" stroke="black" cx="728" cy="-178" rx="48.99" ry="18"/>
<text text-anchor="middle" x="728" y="-174.3" font-family="Times,serif" font-size="14.00">La22 (a)</text>
</g>
<!-- 5&#45;&gt;3 -->
<g id="edge2" class="edge">
<title>5&#45;&gt;3</title>
<path fill="none" stroke="black" stroke-dasharray="1,5" d="M692.67,-165.53C685.25,-163.43 677.41,-161.45 670,-160 515.24,-129.69 471.37,-156.26 317,-124 313.38,-123.24 309.66,-122.33 305.95,-121.33"/>
<polygon fill="black" stroke="black" points="306.81,-117.94 296.23,-118.52 304.86,-124.66 306.81,-117.94"/>
</g>
<!-- 6 -->
<g id="node5" class="node">
<title>6</title>
<ellipse fill="none" stroke="black" cx="376" cy="-106" rx="50.09" ry="18"/>
<text text-anchor="middle" x="376" y="-102.3" font-family="Times,serif" font-size="14.00">V565 (a)</text>
</g>
<!-- 5&#45;&gt;6 -->
<g id="edge4" class="edge">
<title>5&#45;&gt;6</title>
<path fill="none" stroke="black" stroke-dasharray="5,2" d="M692.3,-165.73C684.97,-163.64 677.27,-161.62 670,-160 566.85,-137.09 538.2,-146.67 435,-124 430.9,-123.1 426.67,-122.07 422.44,-120.98"/>
<polygon fill="black" stroke="black" points="423.2,-117.56 412.64,-118.35 421.38,-124.32 423.2,-117.56"/>
</g>
<!-- 9 -->
<g id="node7" class="node">
<title>9</title>
<ellipse fill="none" stroke="black" cx="493" cy="-106" rx="48.99" ry="18"/>
<text text-anchor="middle" x="493" y="-102.3" font-family="Times,serif" font-size="14.00">La35 (a)</text>
</g>
<!-- 5&#45;&gt;9 -->
<g id="edge6" class="edge">
<title>5&#45;&gt;9</title>
<path fill="none" stroke="black" stroke-dasharray="1,5" d="M691.28,-166.06C650.36,-153.87 584.09,-134.13 539.56,-120.87"/>
<polygon fill="black" stroke="black" points="540.43,-117.48 529.85,-117.98 538.43,-124.19 540.43,-117.48"/>
</g>
<!-- 14 -->
<g id="node12" class="node">
<title>14</title>
<ellipse fill="none" stroke="black" cx="610" cy="-106" rx="50.09" ry="18"/>
<text text-anchor="middle" x="610" y="-102.3" font-family="Times,serif" font-size="14.00">V571 (a)</text>
</g>
<!-- 5&#45;&gt;14 -->
<g id="edge11" class="edge">
<title>5&#45;&gt;14</title>
<path fill="none" stroke="black" stroke-dasharray="1,5" d="M703.26,-162.33C685.88,-152.01 662.42,-138.1 643.38,-126.8"/>
<polygon fill="black" stroke="black" points="645.09,-123.75 634.7,-121.65 641.52,-129.77 645.09,-123.75"/>
</g>
<!-- 24 -->
<g id="node19" class="node">
<title>24</title>
<ellipse fill="none" stroke="black" cx="728" cy="-106" rx="50.09" ry="18"/>
<text text-anchor="middle" x="728" y="-102.3" font-family="Times,serif" font-size="14.00">A116 (a)</text>
</g>
<!-- 5&#45;&gt;24 -->
<g id="edge17" class="edge">
<title>5&#45;&gt;24</title>
<path fill="none" stroke="black" stroke-dasharray="5,2" d="M728,-159.7C728,-151.98 728,-142.71 728,-134.11"/>
<polygon fill="black" stroke="black" points="731.5,-134.1 728,-124.1 724.5,-134.1 731.5,-134.1"/>
</g>
<!-- 32 -->
<g id="node24" class="node">
<title>32</title>
<ellipse fill="none" stroke="black" cx="843" cy="-106" rx="46.59" ry="18"/>
<text text-anchor="middle" x="843" y="-102.3" font-family="Times,serif" font-size="14.00">Bodl (a)</text>
</g>
<!-- 5&#45;&gt;32 -->
<g id="edge22" class="edge">
<title>5&#45;&gt;32</title>
<path fill="none" stroke="black" stroke-dasharray="5,2" d="M752.11,-162.33C768.97,-152.06 791.71,-138.22 810.22,-126.95"/>
<polygon fill="black" stroke="black" points="812.2,-129.84 818.92,-121.65 808.56,-123.86 812.2,-129.84"/>
</g>
<!-- 37 -->
<g id="node27" class="node">
<title>37</title>
<ellipse fill="none" stroke="black" cx="960" cy="-106" rx="52.79" ry="18"/>
<text text-anchor="middle" x="960" y="-102.3" font-family="Times,serif" font-size="14.00">M111 (a)</text>
</g>
<!-- 5&#45;&gt;37 -->
<g id="edge25" class="edge">
<title>5&#45;&gt;37</title>
<path fill="none" stroke="black" stroke-dasharray="1,5" d="M764.51,-165.99C804.37,-153.96 868.36,-134.65 912.2,-121.42"/>
<polygon fill="black" stroke="black" points="913.22,-124.77 921.78,-118.53 911.19,-118.07 913.22,-124.77"/>
</g>
<!-- 8 -->
<g id="node6" class="node">
<title>8</title>
<ellipse fill="none" stroke="black" cx="1683" cy="-34" rx="55.79" ry="18"/>
<text text-anchor="middle" x="1683" y="-30.3" font-family="Times,serif" font-size="14.00">V1639 (a)</text>
</g>
<!-- 10 -->
<g id="node8" class="node">
<title>10</title>
<ellipse fill="none" stroke="black" cx="954" cy="-178" rx="52.79" ry="18"/>
<text text-anchor="middle" x="954" y="-174.3" font-family="Times,serif" font-size="14.00">LaSM (a)</text>
</g>
<!-- 25 -->
<g id="node20" class="node">
<title>25</title>
<ellipse fill="none" stroke="black" cx="1075" cy="-106" rx="44.39" ry="18"/>
<text text-anchor="middle" x="1075" y="-102.3" font-family="Times,serif" font-size="14.00">B39 (a)</text>
</g>
<!-- 10&#45;&gt;25 -->
<g id="edge18" class="edge">
<title>10&#45;&gt;25</title>
<path fill="none" stroke="black" stroke-dasharray="5,2" d="M979.66,-162.15C997.75,-151.69 1022.13,-137.58 1041.72,-126.26"/>
<polygon fill="black" stroke="black" points="1043.71,-129.14 1050.61,-121.11 1040.21,-123.09 1043.71,-129.14"/>
</g>
<!-- 11 -->
<g id="node9" class="node">
<title>11</title>
<ellipse fill="none" stroke="black" cx="1571" cy="-106" rx="44.39" ry="18"/>
<text text-anchor="middle" x="1571" y="-102.3" font-family="Times,serif" font-size="14.00">S32 (a)</text>
</g>
<!-- 12 -->
<g id="node10" class="node">
<title>12</title>
<ellipse fill="none" stroke="black" cx="1683" cy="-106" rx="50.09" ry="18"/>
<text text-anchor="middle" x="1683" y="-102.3" font-family="Times,serif" font-size="14.00">V566 (a)</text>
</g>
<!-- 12&#45;&gt;8 -->
<g id="edge5" class="edge">
<title>12&#45;&gt;8</title>
<path fill="none" stroke="black" stroke-dasharray="1,5" d="M1683,-87.7C1683,-79.98 1683,-70.71 1683,-62.11"/>
<polygon fill="black" stroke="black" points="1686.5,-62.1 1683,-52.1 1679.5,-62.1 1686.5,-62.1"/>
</g>
<!-- 13 -->
<g id="node11" class="node">
<title>13</title>
<ellipse fill="none" stroke="black" cx="1081" cy="-178" rx="55.79" ry="18"/>
<text text-anchor="middle" x="1081" y="-174.3" font-family="Times,serif" font-size="14.00">V2036 (a)</text>
</g>
<!-- 15 -->
<g id="node13" class="node">
<title>15</title>
<ellipse fill="none" stroke="black" cx="1205" cy="-178" rx="50.09" ry="18"/>
<text text-anchor="middle" x="1205" y="-174.3" font-family="Times,serif" font-size="14.00">V560 (a)</text>
</g>
<!-- 18 -->
<g id="node16" class="node">
<title>18</title>
<ellipse fill="none" stroke="black" cx="1193" cy="-106" rx="55.79" ry="18"/>
<text text-anchor="middle" x="1193" y="-102.3" font-family="Times,serif" font-size="14.00">V1920 (a)</text>
</g>
<!-- 15&#45;&gt;18 -->
<g id="edge15" class="edge">
<title>15&#45;&gt;18</title>
<path fill="none" stroke="black" stroke-dasharray="5,2" d="M1202.03,-159.7C1200.71,-151.98 1199.12,-142.71 1197.65,-134.11"/>
<polygon fill="black" stroke="black" points="1201.07,-133.37 1195.93,-124.1 1194.17,-134.55 1201.07,-133.37"/>
</g>
<!-- 16 -->
<g id="node14" class="node">
<title>16</title>
<ellipse fill="none" stroke="black" cx="1326" cy="-178" rx="52.79" ry="18"/>
<text text-anchor="middle" x="1326" y="-174.3" font-family="Times,serif" font-size="14.00">M136 (a)</text>
</g>
<!-- 17 -->
<g id="node15" class="node">
<title>17</title>
<ellipse fill="none" stroke="black" cx="1795" cy="-106" rx="44.39" ry="18"/>
<text text-anchor="middle" x="1795" y="-102.3" font-family="Times,serif" font-size="14.00">P01 (a)</text>
</g>
<!-- 20 -->
<g id="node17" class="node">
<title>20</title>
<ellipse fill="none" stroke="black" cx="1205" cy="-251" rx="53.89" ry="18"/>
<text text-anchor="middle" x="1205" y="-247.3" font-family="Times,serif" font-size="14.00">aBase (a)</text>
</g>
<!-- 20&#45;&gt;1 -->
<g id="edge1" class="edge">
<title>20&#45;&gt;1</title>
<path fill="none" stroke="black" d="M1151.77,-247.8C1055.06,-243.1 844.39,-229.64 670,-196 665.82,-195.19 661.51,-194.23 657.21,-193.16"/>
<polygon fill="black" stroke="black" points="657.82,-189.71 647.26,-190.56 656.05,-196.48 657.82,-189.71"/>
</g>
<!-- 20&#45;&gt;5 -->
<g id="edge3" class="edge">
<title>20&#45;&gt;5</title>
<path fill="none" stroke="black" stroke-dasharray="5,2" d="M1156.64,-242.8C1067.15,-229.48 876.31,-201.08 782.44,-187.1"/>
<polygon fill="black" stroke="black" points="782.71,-183.6 772.3,-185.59 781.68,-190.53 782.71,-183.6"/>
</g>
<!-- 20&#45;&gt;10 -->
<g id="edge7" class="edge">
<title>20&#45;&gt;10</title>
<path fill="none" stroke="black" d="M1165.23,-238.75C1121.22,-226.3 1050.28,-206.23 1002.9,-192.83"/>
<polygon fill="black" stroke="black" points="1003.75,-189.43 993.17,-190.08 1001.84,-196.17 1003.75,-189.43"/>
</g>
<!-- 20&#45;&gt;13 -->
<g id="edge10" class="edge">
<title>20&#45;&gt;13</title>
<path fill="none" stroke="black" d="M1179.01,-235.12C1160.78,-224.68 1136.19,-210.6 1116.21,-199.16"/>
<polygon fill="black" stroke="black" points="1117.8,-196.04 1107.39,-194.11 1114.33,-202.12 1117.8,-196.04"/>
</g>
<!-- 20&#45;&gt;15 -->
<g id="edge12" class="edge">
<title>20&#45;&gt;15</title>
<path fill="none" stroke="black" stroke-width="2" d="M1205,-232.81C1205,-224.79 1205,-215.05 1205,-206.07"/>
<polygon fill="black" stroke="black" stroke-width="2" points="1208.5,-206.03 1205,-196.03 1201.5,-206.03 1208.5,-206.03"/>
</g>
<!-- 20&#45;&gt;16 -->
<g id="edge13" class="edge">
<title>20&#45;&gt;16</title>
<path fill="none" stroke="black" stroke-width="2" d="M1230.66,-234.94C1248.39,-224.54 1272.17,-210.59 1291.54,-199.22"/>
<polygon fill="black" stroke="black" stroke-width="2" points="1293.52,-202.12 1300.38,-194.04 1289.98,-196.08 1293.52,-202.12"/>
</g>
<!-- 22 -->
<g id="node18" class="node">
<title>22</title>
<ellipse fill="none" stroke="black" cx="1441" cy="-178" rx="44.69" ry="18"/>
<text text-anchor="middle" x="1441" y="-174.3" font-family="Times,serif" font-size="14.00">Nan (a)</text>
</g>
<!-- 20&#45;&gt;22 -->
<g id="edge16" class="edge">
<title>20&#45;&gt;22</title>
<path fill="none" stroke="black" d="M1244.35,-238.68C1281.46,-227.93 1338.61,-211.21 1388,-196 1391.09,-195.05 1394.29,-194.05 1397.5,-193.04"/>
<polygon fill="black" stroke="black" points="1398.63,-196.36 1407.11,-190 1396.52,-189.68 1398.63,-196.36"/>
</g>
<!-- 33 -->
<g id="node25" class="node">
<title>33</title>
<ellipse fill="none" stroke="black" cx="1627" cy="-178" rx="44.39" ry="18"/>
<text text-anchor="middle" x="1627" y="-174.3" font-family="Times,serif" font-size="14.00">A25 (a)</text>
</g>
<!-- 20&#45;&gt;33 -->
<g id="edge23" class="edge">
<title>20&#45;&gt;33</title>
<path fill="none" stroke="black" stroke-dasharray="5,2" d="M1252.18,-242.06C1332.41,-228.56 1494.71,-201.26 1576.89,-187.43"/>
<polygon fill="black" stroke="black" points="1577.7,-190.84 1586.98,-185.73 1576.54,-183.94 1577.7,-190.84"/>
</g>
<!-- 42 -->
<g id="node29" class="node">
<title>42</title>
<ellipse fill="none" stroke="black" cx="1739" cy="-178" rx="50.09" ry="18"/>
<text text-anchor="middle" x="1739" y="-174.3" font-family="Times,serif" font-size="14.00">S249 (a)</text>
</g>
<!-- 20&#45;&gt;42 -->
<g id="edge27" class="edge">
<title>20&#45;&gt;42</title>
<path fill="none" stroke="black" d="M1257.81,-246.89C1345.97,-241.06 1528.4,-226.24 1680,-196 1684.18,-195.17 1688.48,-194.18 1692.78,-193.11"/>
<polygon fill="black" stroke="black" points="1693.95,-196.42 1702.73,-190.48 1692.16,-189.65 1693.95,-196.42"/>
</g>
<!-- 26 -->
<g id="node21" class="node">
<title>26</title>
<ellipse fill="none" stroke="black" cx="1323" cy="-106" rx="55.79" ry="18"/>
<text text-anchor="middle" x="1323" y="-102.3" font-family="Times,serif" font-size="14.00">V1897 (a)</text>
</g>
<!-- 22&#45;&gt;26 -->
<g id="edge19" class="edge">
<title>22&#45;&gt;26</title>
<path fill="none" stroke="black" stroke-dasharray="1,5" d="M1416.84,-162.67C1399.72,-152.51 1376.52,-138.75 1357.47,-127.45"/>
<polygon fill="black" stroke="black" points="1359.15,-124.38 1348.77,-122.29 1355.58,-130.4 1359.15,-124.38"/>
</g>
<!-- 27 -->
<g id="node22" class="node">
<title>27</title>
<ellipse fill="none" stroke="black" cx="1453" cy="-106" rx="55.79" ry="18"/>
<text text-anchor="middle" x="1453" y="-102.3" font-family="Times,serif" font-size="14.00">V2250 (a)</text>
</g>
<!-- 22&#45;&gt;27 -->
<g id="edge20" class="edge">
<title>22&#45;&gt;27</title>
<path fill="none" stroke="black" stroke-dasharray="5,2" d="M1443.97,-159.7C1445.29,-151.98 1446.88,-142.71 1448.35,-134.11"/>
<polygon fill="black" stroke="black" points="1451.83,-134.55 1450.07,-124.1 1444.93,-133.37 1451.83,-134.55"/>
</g>
<!-- 35 -->
<g id="node26" class="node">
<title>35</title>
<ellipse fill="none" stroke="black" cx="1272" cy="-34" rx="41.69" ry="18"/>
<text text-anchor="middle" x="1272" y="-30.3" font-family="Times,serif" font-size="14.00">Est (a)</text>
</g>
<!-- 26&#45;&gt;35 -->
<g id="edge24" class="edge">
<title>26&#45;&gt;35</title>
<path fill="none" stroke="black" stroke-dasharray="1,5" d="M1310.91,-88.41C1304.69,-79.87 1296.97,-69.28 1290.06,-59.79"/>
<polygon fill="black" stroke="black" points="1292.72,-57.49 1284,-51.47 1287.06,-61.61 1292.72,-57.49"/>
</g>
<!-- 40 -->
<g id="node28" class="node">
<title>40</title>
<ellipse fill="none" stroke="black" cx="1374" cy="-34" rx="42.79" ry="18"/>
<text text-anchor="middle" x="1374" y="-30.3" font-family="Times,serif" font-size="14.00">Bas (a)</text>
</g>
<!-- 26&#45;&gt;40 -->
<g id="edge26" class="edge">
<title>26&#45;&gt;40</title>
<path fill="none" stroke="black" d="M1335.09,-88.41C1341.31,-79.87 1349.03,-69.28 1355.94,-59.79"/>
<polygon fill="black" stroke="black" points="1358.94,-61.61 1362,-51.47 1353.28,-57.49 1358.94,-61.61"/>
</g>
<!-- 31 -->
<g id="node23" class="node">
<title>31</title>
<ellipse fill="none" stroke="black" cx="1897" cy="-106" rx="40.09" ry="18"/>
<text text-anchor="middle" x="1897" y="-102.3" font-family="Times,serif" font-size="14.00">Pal (a)</text>
</g>
<!-- 33&#45;&gt;11 -->
<g id="edge8" class="edge">
<title>33&#45;&gt;11</title>
<path fill="none" stroke="black" stroke-dasharray="5,2" d="M1614.01,-160.76C1607.11,-152.14 1598.49,-141.36 1590.78,-131.73"/>
<polygon fill="black" stroke="black" points="1593.29,-129.26 1584.31,-123.63 1587.82,-133.63 1593.29,-129.26"/>
</g>
<!-- 33&#45;&gt;12 -->
<g id="edge9" class="edge">
<title>33&#45;&gt;12</title>
<path fill="none" stroke="black" stroke-dasharray="5,2" d="M1639.99,-160.76C1646.89,-152.14 1655.51,-141.36 1663.22,-131.73"/>
<polygon fill="black" stroke="black" points="1666.18,-133.63 1669.69,-123.63 1660.71,-129.26 1666.18,-133.63"/>
</g>
<!-- 33&#45;&gt;17 -->
<g id="edge14" class="edge">
<title>33&#45;&gt;17</title>
<path fill="none" stroke="black" stroke-dasharray="5,2" d="M1656.65,-164.65C1684.19,-153.17 1725.39,-136.01 1755.67,-123.39"/>
<polygon fill="black" stroke="black" points="1757.2,-126.54 1765.08,-119.47 1754.51,-120.08 1757.2,-126.54"/>
</g>
<!-- 33&#45;&gt;31 -->
<g id="edge21" class="edge">
<title>33&#45;&gt;31</title>
<path fill="none" stroke="black" stroke-dasharray="5,2" d="M1659.93,-165.88C1666.54,-163.8 1673.46,-161.74 1680,-160 1753.78,-140.31 1774.46,-144.55 1848,-124 1850.98,-123.17 1854.05,-122.25 1857.12,-121.29"/>
<polygon fill="black" stroke="black" points="1858.44,-124.54 1866.86,-118.11 1856.27,-117.88 1858.44,-124.54"/>
</g>
</g>
</svg>
