<?xml version="1.0" encoding="UTF-8" standalone="no"?>
<!DOCTYPE svg PUBLIC "-//W3C//DTD SVG 1.1//EN"
 "http://www.w3.org/Graphics/SVG/1.1/DTD/svg11.dtd">
<!-- Generated by graphviz version 2.43.0 (0)
 -->
<!-- Title: textual_flow_diagram Pages: 1 -->
<svg width="336pt" height="222pt"
 viewBox="0.00 0.00 336.00 222.00" xmlns="http://www.w3.org/2000/svg" xmlns:xlink="http://www.w3.org/1999/xlink">
<g id="graph0" class="graph" transform="scale(1 1) rotate(0) translate(4 218)">
<title>textual_flow_diagram</title>
<polygon fill="white" stroke="transparent" points="-4,4 -4,-218 332,-218 332,4 -4,4"/>
<g id="clust1" class="cluster">
<title>cluster_legend</title>
<polygon fill="none" stroke="black" points="8,-152 8,-206 196,-206 196,-152 8,-152"/>
</g>
<g id="clust2" class="cluster">
<title>cluster_plot</title>
</g>
<!-- label -->
<g id="node1" class="node">
<title>label</title>
<text text-anchor="middle" x="102" y="-182.8" font-family="Times,serif" font-size="14.00">adstag1.3.23U2&#45;12, d</text>
<text text-anchor="middle" x="102" y="-167.8" font-family="Times,serif" font-size="14.00">Con = 3</text>
</g>
<!-- 0 -->
<g id="node2" class="node">
<title>0</title>
<ellipse fill="none" stroke="black" cx="262" cy="-34" rx="41.69" ry="18"/>
<text text-anchor="middle" x="262" y="-30.3" font-family="Times,serif" font-size="14.00">Sin (d)</text>
</g>
<!-- 21 -->
<g id="node3" class="node">
<title>21</title>
<ellipse fill="none" stroke="black" cx="262" cy="-106" rx="46.59" ry="18"/>
<text text-anchor="middle" x="262" y="-102.3" font-family="Times,serif" font-size="14.00">Mon (d)</text>
</g>
<!-- 21&#45;&gt;0 -->
<g id="edge1" class="edge">
<title>21&#45;&gt;0</title>
<path fill="none" stroke="black" stroke-dasharray="1,5" d="M262,-87.7C262,-79.98 262,-70.71 262,-62.11"/>
<polygon fill="black" stroke="black" points="265.5,-62.1 262,-52.1 258.5,-62.1 265.5,-62.1"/>
</g>
<!-- 10 -->
<g id="node4" class="node">
<title>10</title>
<ellipse fill="none" stroke="blue" stroke-dasharray="5,2" cx="262" cy="-179" rx="50.09" ry="18"/>
<text text-anchor="middle" x="262" y="-175.3" font-family="Times,serif" font-size="14.00">Marc (e)</text>
</g>
<!-- 10&#45;&gt;21 -->
<g id="edge2" class="edge">
<title>10&#45;&gt;21</title>
<path fill="none" stroke="blue" stroke-dasharray="1,5" d="M262,-160.81C262,-152.79 262,-143.05 262,-134.07"/>
<polygon fill="blue" stroke="blue" points="265.5,-134.03 262,-124.03 258.5,-134.03 265.5,-134.03"/>
</g>
</g>
</svg>
