<?xml version="1.0" encoding="UTF-8" standalone="no"?>
<!DOCTYPE svg PUBLIC "-//W3C//DTD SVG 1.1//EN"
 "http://www.w3.org/Graphics/SVG/1.1/DTD/svg11.dtd">
<!-- Generated by graphviz version 2.43.0 (0)
 -->
<!-- Title: textual_flow_diagram Pages: 1 -->
<svg width="1961pt" height="294pt"
 viewBox="0.00 0.00 1961.00 294.00" xmlns="http://www.w3.org/2000/svg" xmlns:xlink="http://www.w3.org/1999/xlink">
<g id="graph0" class="graph" transform="scale(1 1) rotate(0) translate(4 290)">
<title>textual_flow_diagram</title>
<polygon fill="white" stroke="transparent" points="-4,4 -4,-290 1957,-290 1957,4 -4,4"/>
<g id="clust1" class="cluster">
<title>cluster_legend</title>
<polygon fill="none" stroke="black" points="8,-224 8,-278 204,-278 204,-224 8,-224"/>
</g>
<g id="clust2" class="cluster">
<title>cluster_plot</title>
</g>
<!-- label -->
<g id="node1" class="node">
<title>label</title>
<text text-anchor="middle" x="106" y="-254.8" font-family="Times,serif" font-size="14.00">adstag1.3.67U12&#45;22, a</text>
<text text-anchor="middle" x="106" y="-239.8" font-family="Times,serif" font-size="14.00">Con = 3</text>
</g>
<!-- 0 -->
<g id="node2" class="node">
<title>0</title>
<ellipse fill="none" stroke="black" cx="1311" cy="-106" rx="44.39" ry="18"/>
<text text-anchor="middle" x="1311" y="-102.3" font-family="Times,serif" font-size="14.00">S32 (a)</text>
</g>
<!-- 3 -->
<g id="node3" class="node">
<title>3</title>
<ellipse fill="none" stroke="black" cx="455" cy="-178" rx="50.09" ry="18"/>
<text text-anchor="middle" x="455" y="-174.3" font-family="Times,serif" font-size="14.00">V560 (a)</text>
</g>
<!-- 22 -->
<g id="node16" class="node">
<title>22</title>
<ellipse fill="none" stroke="black" cx="276" cy="-106" rx="55.79" ry="18"/>
<text text-anchor="middle" x="276" y="-102.3" font-family="Times,serif" font-size="14.00">V1920 (a)</text>
</g>
<!-- 3&#45;&gt;22 -->
<g id="edge14" class="edge">
<title>3&#45;&gt;22</title>
<path fill="none" stroke="black" stroke-dasharray="5,2" d="M422.17,-164.16C393.36,-152.89 351.23,-136.42 319.6,-124.05"/>
<polygon fill="black" stroke="black" points="320.73,-120.74 310.15,-120.35 318.18,-127.25 320.73,-120.74"/>
</g>
<!-- 4 -->
<g id="node4" class="node">
<title>4</title>
<ellipse fill="none" stroke="black" cx="752" cy="-178" rx="48.99" ry="18"/>
<text text-anchor="middle" x="752" y="-174.3" font-family="Times,serif" font-size="14.00">La22 (a)</text>
</g>
<!-- 5 -->
<g id="node5" class="node">
<title>5</title>
<ellipse fill="none" stroke="black" cx="400" cy="-106" rx="50.09" ry="18"/>
<text text-anchor="middle" x="400" y="-102.3" font-family="Times,serif" font-size="14.00">A116 (a)</text>
</g>
<!-- 4&#45;&gt;5 -->
<g id="edge4" class="edge">
<title>4&#45;&gt;5</title>
<path fill="none" stroke="black" stroke-dasharray="5,2" d="M707.53,-170.4C649.87,-161.51 546.33,-144.42 459,-124 454.97,-123.06 450.81,-122.01 446.64,-120.91"/>
<polygon fill="black" stroke="black" points="447.56,-117.53 436.99,-118.28 445.71,-124.29 447.56,-117.53"/>
</g>
<!-- 8 -->
<g id="node7" class="node">
<title>8</title>
<ellipse fill="none" stroke="black" cx="518" cy="-106" rx="50.09" ry="18"/>
<text text-anchor="middle" x="518" y="-102.3" font-family="Times,serif" font-size="14.00">V565 (a)</text>
</g>
<!-- 4&#45;&gt;8 -->
<g id="edge6" class="edge">
<title>4&#45;&gt;8</title>
<path fill="none" stroke="black" stroke-dasharray="5,2" d="M715.44,-166.06C674.81,-153.91 609.09,-134.25 564.75,-120.99"/>
<polygon fill="black" stroke="black" points="565.66,-117.6 555.08,-118.09 563.66,-124.31 565.66,-117.6"/>
</g>
<!-- 28 -->
<g id="node20" class="node">
<title>28</title>
<ellipse fill="none" stroke="black" cx="635" cy="-106" rx="48.99" ry="18"/>
<text text-anchor="middle" x="635" y="-102.3" font-family="Times,serif" font-size="14.00">La35 (a)</text>
</g>
<!-- 4&#45;&gt;28 -->
<g id="edge18" class="edge">
<title>4&#45;&gt;28</title>
<path fill="none" stroke="black" stroke-dasharray="1,5" d="M727.47,-162.33C710.23,-152.01 686.97,-138.1 668.09,-126.8"/>
<polygon fill="black" stroke="black" points="669.87,-123.79 659.49,-121.65 666.28,-129.79 669.87,-123.79"/>
</g>
<!-- 29 -->
<g id="node21" class="node">
<title>29</title>
<ellipse fill="none" stroke="black" cx="752" cy="-106" rx="50.09" ry="18"/>
<text text-anchor="middle" x="752" y="-102.3" font-family="Times,serif" font-size="14.00">V571 (a)</text>
</g>
<!-- 4&#45;&gt;29 -->
<g id="edge19" class="edge">
<title>4&#45;&gt;29</title>
<path fill="none" stroke="black" stroke-dasharray="1,5" d="M752,-159.7C752,-151.98 752,-142.71 752,-134.11"/>
<polygon fill="black" stroke="black" points="755.5,-134.1 752,-124.1 748.5,-134.1 755.5,-134.1"/>
</g>
<!-- 34 -->
<g id="node25" class="node">
<title>34</title>
<ellipse fill="none" stroke="black" cx="864" cy="-106" rx="44.39" ry="18"/>
<text text-anchor="middle" x="864" y="-102.3" font-family="Times,serif" font-size="14.00">P74 (a)</text>
</g>
<!-- 4&#45;&gt;34 -->
<g id="edge23" class="edge">
<title>4&#45;&gt;34</title>
<path fill="none" stroke="black" stroke-dasharray="5,2" d="M775.75,-162.15C792.05,-151.97 813.87,-138.33 831.73,-127.17"/>
<polygon fill="black" stroke="black" points="834.04,-129.85 840.67,-121.58 830.33,-123.92 834.04,-129.85"/>
</g>
<!-- 36 -->
<g id="node27" class="node">
<title>36</title>
<ellipse fill="none" stroke="black" cx="979" cy="-106" rx="52.79" ry="18"/>
<text text-anchor="middle" x="979" y="-102.3" font-family="Times,serif" font-size="14.00">M111 (a)</text>
</g>
<!-- 4&#45;&gt;36 -->
<g id="edge25" class="edge">
<title>4&#45;&gt;36</title>
<path fill="none" stroke="black" stroke-dasharray="1,5" d="M788.22,-165.83C827.01,-153.87 888.72,-134.84 931.41,-121.68"/>
<polygon fill="black" stroke="black" points="932.49,-125 941.02,-118.71 930.43,-118.32 932.49,-125"/>
</g>
<!-- 41 -->
<g id="node31" class="node">
<title>41</title>
<ellipse fill="none" stroke="black" cx="1096" cy="-106" rx="46.59" ry="18"/>
<text text-anchor="middle" x="1096" y="-102.3" font-family="Times,serif" font-size="14.00">Bodl (a)</text>
</g>
<!-- 4&#45;&gt;41 -->
<g id="edge29" class="edge">
<title>4&#45;&gt;41</title>
<path fill="none" stroke="black" stroke-dasharray="5,2" d="M787.68,-165.55C794.7,-163.53 802.05,-161.57 809,-160 910.79,-137.04 939.33,-147.47 1041,-124 1044.62,-123.16 1048.35,-122.21 1052.08,-121.2"/>
<polygon fill="black" stroke="black" points="1053.23,-124.51 1061.88,-118.39 1051.31,-117.78 1053.23,-124.51"/>
</g>
<!-- 7 -->
<g id="node6" class="node">
<title>7</title>
<ellipse fill="none" stroke="black" cx="871" cy="-178" rx="52.79" ry="18"/>
<text text-anchor="middle" x="871" y="-174.3" font-family="Times,serif" font-size="14.00">LaSM (a)</text>
</g>
<!-- 23 -->
<g id="node17" class="node">
<title>23</title>
<ellipse fill="none" stroke="black" cx="1205" cy="-106" rx="44.39" ry="18"/>
<text text-anchor="middle" x="1205" y="-102.3" font-family="Times,serif" font-size="14.00">B39 (a)</text>
</g>
<!-- 7&#45;&gt;23 -->
<g id="edge15" class="edge">
<title>7&#45;&gt;23</title>
<path fill="none" stroke="black" stroke-dasharray="5,2" d="M909.87,-165.67C917.5,-163.64 925.48,-161.65 933,-160 1029.36,-138.93 1056.11,-147.13 1152,-124 1155.44,-123.17 1158.98,-122.23 1162.52,-121.23"/>
<polygon fill="black" stroke="black" points="1163.83,-124.49 1172.42,-118.28 1161.84,-117.78 1163.83,-124.49"/>
</g>
<!-- 9 -->
<g id="node8" class="node">
<title>9</title>
<ellipse fill="none" stroke="black" cx="1785" cy="-34" rx="41.69" ry="18"/>
<text text-anchor="middle" x="1785" y="-30.3" font-family="Times,serif" font-size="14.00">Est (a)</text>
</g>
<!-- 10 -->
<g id="node9" class="node">
<title>10</title>
<ellipse fill="none" stroke="black" cx="1423" cy="-106" rx="50.09" ry="18"/>
<text text-anchor="middle" x="1423" y="-102.3" font-family="Times,serif" font-size="14.00">V566 (a)</text>
</g>
<!-- 20 -->
<g id="node15" class="node">
<title>20</title>
<ellipse fill="none" stroke="black" cx="1423" cy="-34" rx="55.79" ry="18"/>
<text text-anchor="middle" x="1423" y="-30.3" font-family="Times,serif" font-size="14.00">V1639 (a)</text>
</g>
<!-- 10&#45;&gt;20 -->
<g id="edge13" class="edge">
<title>10&#45;&gt;20</title>
<path fill="none" stroke="black" stroke-dasharray="1,5" d="M1423,-87.7C1423,-79.98 1423,-70.71 1423,-62.11"/>
<polygon fill="black" stroke="black" points="1426.5,-62.1 1423,-52.1 1419.5,-62.1 1426.5,-62.1"/>
</g>
<!-- 13 -->
<g id="node10" class="node">
<title>13</title>
<ellipse fill="none" stroke="black" cx="1751" cy="-106" rx="55.79" ry="18"/>
<text text-anchor="middle" x="1751" y="-102.3" font-family="Times,serif" font-size="14.00">V2250 (a)</text>
</g>
<!-- 15 -->
<g id="node11" class="node">
<title>15</title>
<ellipse fill="none" stroke="black" cx="985" cy="-178" rx="42.79" ry="18"/>
<text text-anchor="middle" x="985" y="-174.3" font-family="Times,serif" font-size="14.00">La2 (a)</text>
</g>
<!-- 16 -->
<g id="node12" class="node">
<title>16</title>
<ellipse fill="none" stroke="black" cx="979" cy="-34" rx="50.09" ry="18"/>
<text text-anchor="middle" x="979" y="-30.3" font-family="Times,serif" font-size="14.00">A336 (a)</text>
</g>
<!-- 17 -->
<g id="node13" class="node">
<title>17</title>
<ellipse fill="none" stroke="black" cx="1214" cy="-251" rx="53.89" ry="18"/>
<text text-anchor="middle" x="1214" y="-247.3" font-family="Times,serif" font-size="14.00">aBase (a)</text>
</g>
<!-- 17&#45;&gt;3 -->
<g id="edge2" class="edge">
<title>17&#45;&gt;3</title>
<path fill="none" stroke="black" stroke-width="2" d="M1162.72,-245.2C1026.6,-232.47 656.72,-197.87 513.11,-184.44"/>
<polygon fill="black" stroke="black" stroke-width="2" points="513.04,-180.91 502.76,-183.47 512.39,-187.88 513.04,-180.91"/>
</g>
<!-- 17&#45;&gt;4 -->
<g id="edge3" class="edge">
<title>17&#45;&gt;4</title>
<path fill="none" stroke="black" stroke-dasharray="5,2" d="M1162.09,-245.71C1084.6,-238.72 934.37,-222.88 809,-196 805.13,-195.17 801.15,-194.21 797.17,-193.18"/>
<polygon fill="black" stroke="black" points="797.92,-189.75 787.35,-190.48 796.07,-196.5 797.92,-189.75"/>
</g>
<!-- 17&#45;&gt;7 -->
<g id="edge5" class="edge">
<title>17&#45;&gt;7</title>
<path fill="none" stroke="black" d="M1167.03,-242.12C1111.04,-232.47 1014.77,-215.04 933,-196 928.66,-194.99 924.17,-193.88 919.68,-192.73"/>
<polygon fill="black" stroke="black" points="920.47,-189.32 909.91,-190.17 918.69,-196.09 920.47,-189.32"/>
</g>
<!-- 17&#45;&gt;15 -->
<g id="edge10" class="edge">
<title>17&#45;&gt;15</title>
<path fill="none" stroke="black" stroke-width="2" d="M1175.26,-238.42C1139.35,-227.63 1084.48,-211 1037,-196 1033.88,-195.01 1030.65,-193.98 1027.4,-192.94"/>
<polygon fill="black" stroke="black" stroke-width="2" points="1028.29,-189.55 1017.7,-189.8 1026.14,-196.21 1028.29,-189.55"/>
</g>
<!-- 18 -->
<g id="node14" class="node">
<title>18</title>
<ellipse fill="none" stroke="black" cx="1096" cy="-178" rx="50.09" ry="18"/>
<text text-anchor="middle" x="1096" y="-174.3" font-family="Times,serif" font-size="14.00">Patm (a)</text>
</g>
<!-- 17&#45;&gt;18 -->
<g id="edge12" class="edge">
<title>17&#45;&gt;18</title>
<path fill="none" stroke="black" d="M1188.98,-234.94C1171.57,-224.47 1148.18,-210.4 1129.22,-198.99"/>
<polygon fill="black" stroke="black" points="1130.96,-195.95 1120.58,-193.79 1127.35,-201.95 1130.96,-195.95"/>
</g>
<!-- 26 -->
<g id="node19" class="node">
<title>26</title>
<ellipse fill="none" stroke="black" cx="1214" cy="-178" rx="50.09" ry="18"/>
<text text-anchor="middle" x="1214" y="-174.3" font-family="Times,serif" font-size="14.00">S249 (a)</text>
</g>
<!-- 17&#45;&gt;26 -->
<g id="edge17" class="edge">
<title>17&#45;&gt;26</title>
<path fill="none" stroke="black" d="M1214,-232.81C1214,-224.79 1214,-215.05 1214,-206.07"/>
<polygon fill="black" stroke="black" points="1217.5,-206.03 1214,-196.03 1210.5,-206.03 1217.5,-206.03"/>
</g>
<!-- 31 -->
<g id="node22" class="node">
<title>31</title>
<ellipse fill="none" stroke="black" cx="1338" cy="-178" rx="55.79" ry="18"/>
<text text-anchor="middle" x="1338" y="-174.3" font-family="Times,serif" font-size="14.00">V2036 (a)</text>
</g>
<!-- 17&#45;&gt;31 -->
<g id="edge20" class="edge">
<title>17&#45;&gt;31</title>
<path fill="none" stroke="black" d="M1239.99,-235.12C1258.22,-224.68 1282.81,-210.6 1302.79,-199.16"/>
<polygon fill="black" stroke="black" points="1304.67,-202.12 1311.61,-194.11 1301.2,-196.04 1304.67,-202.12"/>
</g>
<!-- 35 -->
<g id="node26" class="node">
<title>35</title>
<ellipse fill="none" stroke="black" cx="1456" cy="-178" rx="44.39" ry="18"/>
<text text-anchor="middle" x="1456" y="-174.3" font-family="Times,serif" font-size="14.00">A25 (a)</text>
</g>
<!-- 17&#45;&gt;35 -->
<g id="edge24" class="edge">
<title>17&#45;&gt;35</title>
<path fill="none" stroke="black" stroke-dasharray="5,2" d="M1254.3,-238.89C1292.64,-228.23 1351.89,-211.49 1403,-196 1406.29,-195 1409.69,-193.95 1413.1,-192.89"/>
<polygon fill="black" stroke="black" points="1414.21,-196.21 1422.69,-189.86 1412.1,-189.53 1414.21,-196.21"/>
</g>
<!-- 37 -->
<g id="node28" class="node">
<title>37</title>
<ellipse fill="none" stroke="black" cx="1568" cy="-178" rx="50.09" ry="18"/>
<text text-anchor="middle" x="1568" y="-174.3" font-family="Times,serif" font-size="14.00">Neap (a)</text>
</g>
<!-- 17&#45;&gt;37 -->
<g id="edge26" class="edge">
<title>17&#45;&gt;37</title>
<path fill="none" stroke="black" stroke-width="2" d="M1262.08,-242.71C1320.72,-233.47 1422.71,-216.28 1509,-196 1513.03,-195.05 1517.19,-194 1521.35,-192.9"/>
<polygon fill="black" stroke="black" stroke-width="2" points="1522.28,-196.28 1531.01,-190.27 1520.44,-189.52 1522.28,-196.28"/>
</g>
<!-- 38 -->
<g id="node29" class="node">
<title>38</title>
<ellipse fill="none" stroke="black" cx="1689" cy="-178" rx="52.79" ry="18"/>
<text text-anchor="middle" x="1689" y="-174.3" font-family="Times,serif" font-size="14.00">M136 (a)</text>
</g>
<!-- 17&#45;&gt;38 -->
<g id="edge27" class="edge">
<title>17&#45;&gt;38</title>
<path fill="none" stroke="black" stroke-width="2" d="M1265.56,-245.56C1344.09,-238.28 1498.16,-221.96 1627,-196 1631.43,-195.11 1636.01,-194.07 1640.57,-192.96"/>
<polygon fill="black" stroke="black" stroke-width="2" points="1641.67,-196.29 1650.5,-190.44 1639.95,-189.51 1641.67,-196.29"/>
</g>
<!-- 39 -->
<g id="node30" class="node">
<title>39</title>
<ellipse fill="none" stroke="black" cx="1804" cy="-178" rx="44.69" ry="18"/>
<text text-anchor="middle" x="1804" y="-174.3" font-family="Times,serif" font-size="14.00">Nan (a)</text>
</g>
<!-- 17&#45;&gt;39 -->
<g id="edge28" class="edge">
<title>17&#45;&gt;39</title>
<path fill="none" stroke="black" d="M1267.54,-248.34C1364.77,-244.49 1576.48,-232.34 1751,-196 1754.62,-195.25 1758.34,-194.34 1762.05,-193.34"/>
<polygon fill="black" stroke="black" points="1763.14,-196.67 1771.78,-190.52 1761.2,-189.94 1763.14,-196.67"/>
</g>
<!-- 25 -->
<g id="node18" class="node">
<title>25</title>
<ellipse fill="none" stroke="black" cx="1531" cy="-106" rx="40.09" ry="18"/>
<text text-anchor="middle" x="1531" y="-102.3" font-family="Times,serif" font-size="14.00">Pal (a)</text>
</g>
<!-- 32 -->
<g id="node23" class="node">
<title>32</title>
<ellipse fill="none" stroke="black" cx="1633" cy="-106" rx="44.39" ry="18"/>
<text text-anchor="middle" x="1633" y="-102.3" font-family="Times,serif" font-size="14.00">P01 (a)</text>
</g>
<!-- 33 -->
<g id="node24" class="node">
<title>33</title>
<ellipse fill="none" stroke="black" cx="1881" cy="-106" rx="55.79" ry="18"/>
<text text-anchor="middle" x="1881" y="-102.3" font-family="Times,serif" font-size="14.00">V1897 (a)</text>
</g>
<!-- 33&#45;&gt;9 -->
<g id="edge7" class="edge">
<title>33&#45;&gt;9</title>
<path fill="none" stroke="black" stroke-dasharray="1,5" d="M1859.22,-89.12C1845.71,-79.27 1828.22,-66.51 1813.6,-55.86"/>
<polygon fill="black" stroke="black" points="1815.53,-52.93 1805.38,-49.86 1811.4,-58.58 1815.53,-52.93"/>
</g>
<!-- 42 -->
<g id="node32" class="node">
<title>42</title>
<ellipse fill="none" stroke="black" cx="1887" cy="-34" rx="42.79" ry="18"/>
<text text-anchor="middle" x="1887" y="-30.3" font-family="Times,serif" font-size="14.00">Bas (a)</text>
</g>
<!-- 33&#45;&gt;42 -->
<g id="edge30" class="edge">
<title>33&#45;&gt;42</title>
<path fill="none" stroke="black" d="M1882.48,-87.7C1883.14,-79.98 1883.94,-70.71 1884.68,-62.11"/>
<polygon fill="black" stroke="black" points="1888.17,-62.37 1885.53,-52.1 1881.19,-61.77 1888.17,-62.37"/>
</g>
<!-- 35&#45;&gt;0 -->
<g id="edge1" class="edge">
<title>35&#45;&gt;0</title>
<path fill="none" stroke="black" stroke-dasharray="5,2" d="M1428.73,-163.83C1405.89,-152.81 1373.07,-136.97 1347.89,-124.81"/>
<polygon fill="black" stroke="black" points="1349.17,-121.54 1338.64,-120.35 1346.13,-127.84 1349.17,-121.54"/>
</g>
<!-- 35&#45;&gt;10 -->
<g id="edge8" class="edge">
<title>35&#45;&gt;10</title>
<path fill="none" stroke="black" stroke-dasharray="5,2" d="M1448.01,-160.05C1444.2,-151.97 1439.56,-142.12 1435.31,-133.11"/>
<polygon fill="black" stroke="black" points="1438.34,-131.34 1430.91,-123.79 1432.01,-134.33 1438.34,-131.34"/>
</g>
<!-- 35&#45;&gt;25 -->
<g id="edge16" class="edge">
<title>35&#45;&gt;25</title>
<path fill="none" stroke="black" stroke-dasharray="5,2" d="M1473.02,-161.12C1483.06,-151.74 1495.93,-139.73 1506.99,-129.41"/>
<polygon fill="black" stroke="black" points="1509.38,-131.96 1514.31,-122.58 1504.61,-126.84 1509.38,-131.96"/>
</g>
<!-- 35&#45;&gt;32 -->
<g id="edge21" class="edge">
<title>35&#45;&gt;32</title>
<path fill="none" stroke="black" stroke-dasharray="5,2" d="M1486.83,-164.81C1516.27,-153.16 1560.8,-135.56 1592.97,-122.83"/>
<polygon fill="black" stroke="black" points="1594.51,-125.99 1602.52,-119.05 1591.94,-119.48 1594.51,-125.99"/>
</g>
<!-- 36&#45;&gt;16 -->
<g id="edge11" class="edge">
<title>36&#45;&gt;16</title>
<path fill="none" stroke="black" stroke-dasharray="5,2" d="M979,-87.7C979,-79.98 979,-70.71 979,-62.11"/>
<polygon fill="black" stroke="black" points="982.5,-62.1 979,-52.1 975.5,-62.1 982.5,-62.1"/>
</g>
<!-- 39&#45;&gt;13 -->
<g id="edge9" class="edge">
<title>39&#45;&gt;13</title>
<path fill="none" stroke="black" d="M1791.44,-160.41C1785.07,-151.99 1777.19,-141.58 1770.08,-132.2"/>
<polygon fill="black" stroke="black" points="1772.67,-129.82 1763.84,-123.96 1767.08,-134.04 1772.67,-129.82"/>
</g>
<!-- 39&#45;&gt;33 -->
<g id="edge22" class="edge">
<title>39&#45;&gt;33</title>
<path fill="none" stroke="black" stroke-dasharray="1,5" d="M1821.47,-161.12C1831.57,-151.94 1844.44,-140.23 1855.64,-130.06"/>
<polygon fill="black" stroke="black" points="1858.02,-132.62 1863.06,-123.31 1853.31,-127.44 1858.02,-132.62"/>
</g>
</g>
</svg>
