<?xml version="1.0" encoding="UTF-8" standalone="no"?>
<!DOCTYPE svg PUBLIC "-//W3C//DTD SVG 1.1//EN"
 "http://www.w3.org/Graphics/SVG/1.1/DTD/svg11.dtd">
<!-- Generated by graphviz version 2.43.0 (0)
 -->
<!-- Title: textual_flow_diagram Pages: 1 -->
<svg width="1439pt" height="682pt"
 viewBox="0.00 0.00 1439.00 682.00" xmlns="http://www.w3.org/2000/svg" xmlns:xlink="http://www.w3.org/1999/xlink">
<g id="graph0" class="graph" transform="scale(1 1) rotate(0) translate(4 678)">
<title>textual_flow_diagram</title>
<polygon fill="white" stroke="transparent" points="-4,4 -4,-678 1435,-678 1435,4 -4,4"/>
<g id="clust1" class="cluster">
<title>cluster_legend</title>
<polygon fill="none" stroke="black" points="8,-612 8,-666 196,-666 196,-612 8,-612"/>
</g>
<g id="clust2" class="cluster">
<title>cluster_plot</title>
</g>
<!-- label -->
<g id="node1" class="node">
<title>label</title>
<text text-anchor="middle" x="102" y="-642.8" font-family="Times,serif" font-size="14.00">adstag1.3.5U12&#45;14, b</text>
<text text-anchor="middle" x="102" y="-627.8" font-family="Times,serif" font-size="14.00">Con = 5</text>
</g>
<!-- 0 -->
<g id="node2" class="node">
<title>0</title>
<ellipse fill="none" stroke="black" cx="390" cy="-399" rx="53.09" ry="18"/>
<text text-anchor="middle" x="390" y="-395.3" font-family="Times,serif" font-size="14.00">M111 (b)</text>
</g>
<!-- 3 -->
<g id="node4" class="node">
<title>3</title>
<ellipse fill="none" stroke="black" cx="390" cy="-326" rx="50.09" ry="18"/>
<text text-anchor="middle" x="390" y="-322.3" font-family="Times,serif" font-size="14.00">A336 (b)</text>
</g>
<!-- 0&#45;&gt;3 -->
<g id="edge3" class="edge">
<title>0&#45;&gt;3</title>
<path fill="none" stroke="black" stroke-dasharray="5,2" d="M390,-380.81C390,-372.79 390,-363.05 390,-354.07"/>
<polygon fill="black" stroke="black" points="393.5,-354.03 390,-344.03 386.5,-354.03 393.5,-354.03"/>
</g>
<!-- 1 -->
<g id="node3" class="node">
<title>1</title>
<ellipse fill="none" stroke="black" cx="577" cy="-482" rx="50.09" ry="18"/>
<text text-anchor="middle" x="577" y="-478.3" font-family="Times,serif" font-size="14.00">Patm (b)</text>
</g>
<!-- 6 -->
<g id="node5" class="node">
<title>6</title>
<ellipse fill="none" stroke="black" cx="1183" cy="-253" rx="47.39" ry="18"/>
<text text-anchor="middle" x="1183" y="-249.3" font-family="Times,serif" font-size="14.00">Taur (b)</text>
</g>
<!-- 8 -->
<g id="node6" class="node">
<title>8</title>
<ellipse fill="none" stroke="black" cx="1062" cy="-180" rx="50.09" ry="18"/>
<text text-anchor="middle" x="1062" y="-176.3" font-family="Times,serif" font-size="14.00">Marc (b)</text>
</g>
<!-- 6&#45;&gt;8 -->
<g id="edge5" class="edge">
<title>6&#45;&gt;8</title>
<path fill="none" stroke="black" stroke-dasharray="1,5" d="M1158.22,-237.46C1140.23,-226.91 1115.68,-212.5 1095.88,-200.88"/>
<polygon fill="black" stroke="black" points="1097.56,-197.81 1087.16,-195.76 1094.01,-203.84 1097.56,-197.81"/>
</g>
<!-- 10 -->
<g id="node8" class="node">
<title>10</title>
<ellipse fill="none" stroke="black" cx="1183" cy="-180" rx="53.09" ry="18"/>
<text text-anchor="middle" x="1183" y="-176.3" font-family="Times,serif" font-size="14.00">M118 (b)</text>
</g>
<!-- 6&#45;&gt;10 -->
<g id="edge7" class="edge">
<title>6&#45;&gt;10</title>
<path fill="none" stroke="black" stroke-dasharray="5,2" d="M1183,-234.81C1183,-226.79 1183,-217.05 1183,-208.07"/>
<polygon fill="black" stroke="black" points="1186.5,-208.03 1183,-198.03 1179.5,-208.03 1186.5,-208.03"/>
</g>
<!-- 29 -->
<g id="node19" class="node">
<title>29</title>
<ellipse fill="none" stroke="black" cx="1304" cy="-180" rx="50.09" ry="18"/>
<text text-anchor="middle" x="1304" y="-176.3" font-family="Times,serif" font-size="14.00">V569 (b)</text>
</g>
<!-- 6&#45;&gt;29 -->
<g id="edge18" class="edge">
<title>6&#45;&gt;29</title>
<path fill="none" stroke="black" stroke-dasharray="5,2" d="M1207.78,-237.46C1225.77,-226.91 1250.32,-212.5 1270.12,-200.88"/>
<polygon fill="black" stroke="black" points="1271.99,-203.84 1278.84,-195.76 1268.44,-197.81 1271.99,-203.84"/>
</g>
<!-- 13 -->
<g id="node9" class="node">
<title>13</title>
<ellipse fill="none" stroke="black" cx="1062" cy="-107" rx="46.59" ry="18"/>
<text text-anchor="middle" x="1062" y="-103.3" font-family="Times,serif" font-size="14.00">Mon (b)</text>
</g>
<!-- 8&#45;&gt;13 -->
<g id="edge8" class="edge">
<title>8&#45;&gt;13</title>
<path fill="none" stroke="black" stroke-dasharray="1,5" d="M1062,-161.81C1062,-153.79 1062,-144.05 1062,-135.07"/>
<polygon fill="black" stroke="black" points="1065.5,-135.03 1062,-125.03 1058.5,-135.03 1065.5,-135.03"/>
</g>
<!-- 9 -->
<g id="node7" class="node">
<title>9</title>
<ellipse fill="none" stroke="black" cx="265" cy="-326" rx="44.69" ry="18"/>
<text text-anchor="middle" x="265" y="-322.3" font-family="Times,serif" font-size="14.00">B39 (b)</text>
</g>
<!-- 35 -->
<g id="node23" class="node">
<title>35</title>
<ellipse fill="none" stroke="black" cx="1062" cy="-34" rx="41.69" ry="18"/>
<text text-anchor="middle" x="1062" y="-30.3" font-family="Times,serif" font-size="14.00">Sin (b)</text>
</g>
<!-- 13&#45;&gt;35 -->
<g id="edge22" class="edge">
<title>13&#45;&gt;35</title>
<path fill="none" stroke="black" stroke-dasharray="1,5" d="M1062,-88.81C1062,-80.79 1062,-71.05 1062,-62.07"/>
<polygon fill="black" stroke="black" points="1065.5,-62.03 1062,-52.03 1058.5,-62.03 1065.5,-62.03"/>
</g>
<!-- 15 -->
<g id="node10" class="node">
<title>15</title>
<ellipse fill="none" stroke="black" cx="517" cy="-399" rx="55.79" ry="18"/>
<text text-anchor="middle" x="517" y="-395.3" font-family="Times,serif" font-size="14.00">V2036 (b)</text>
</g>
<!-- 18 -->
<g id="node11" class="node">
<title>18</title>
<ellipse fill="none" stroke="black" cx="641" cy="-399" rx="50.09" ry="18"/>
<text text-anchor="middle" x="641" y="-395.3" font-family="Times,serif" font-size="14.00">V565 (b)</text>
</g>
<!-- 21 -->
<g id="node12" class="node">
<title>21</title>
<ellipse fill="none" stroke="black" cx="689" cy="-482" rx="44.39" ry="18"/>
<text text-anchor="middle" x="689" y="-478.3" font-family="Times,serif" font-size="14.00">P01 (b)</text>
</g>
<!-- 39 -->
<g id="node27" class="node">
<title>39</title>
<ellipse fill="none" stroke="black" cx="265" cy="-399" rx="53.09" ry="18"/>
<text text-anchor="middle" x="265" y="-395.3" font-family="Times,serif" font-size="14.00">LaSM (b)</text>
</g>
<!-- 21&#45;&gt;39 -->
<g id="edge26" class="edge">
<title>21&#45;&gt;39</title>
<path fill="none" stroke="black" stroke-dasharray="5,2" d="M656.43,-469.66C649.73,-467.58 642.68,-465.57 636,-464 501.2,-432.31 463.5,-445.53 328,-417 323.39,-416.03 318.62,-414.93 313.86,-413.76"/>
<polygon fill="black" stroke="black" points="314.71,-410.36 304.16,-411.29 312.99,-417.15 314.71,-410.36"/>
<text text-anchor="middle" x="538.5" y="-438" font-family="Times,serif" font-size="10.00">2</text>
</g>
<!-- 22 -->
<g id="node13" class="node">
<title>22</title>
<ellipse fill="none" stroke="black" cx="913" cy="-565" rx="44.39" ry="18"/>
<text text-anchor="middle" x="913" y="-561.3" font-family="Times,serif" font-size="14.00">A25 (b)</text>
</g>
<!-- 22&#45;&gt;1 -->
<g id="edge2" class="edge">
<title>22&#45;&gt;1</title>
<path fill="none" stroke="black" stroke-dasharray="1,5" d="M874.76,-555.84C821.17,-544.26 720.8,-522 636,-500 632.16,-499 628.2,-497.94 624.22,-496.85"/>
<polygon fill="black" stroke="black" points="624.94,-493.42 614.37,-494.09 623.06,-500.16 624.94,-493.42"/>
</g>
<!-- 22&#45;&gt;21 -->
<g id="edge11" class="edge">
<title>22&#45;&gt;21</title>
<path fill="none" stroke="black" stroke-dasharray="5,2" d="M880.91,-552.39C841.32,-538.08 773.94,-513.71 730.47,-497.99"/>
<polygon fill="black" stroke="black" points="731.63,-494.69 721.03,-494.58 729.25,-501.28 731.63,-494.69"/>
</g>
<!-- 26 -->
<g id="node16" class="node">
<title>26</title>
<ellipse fill="none" stroke="black" cx="801" cy="-482" rx="49.29" ry="18"/>
<text text-anchor="middle" x="801" y="-478.3" font-family="Times,serif" font-size="14.00">La22 (b)</text>
</g>
<!-- 22&#45;&gt;26 -->
<g id="edge15" class="edge">
<title>22&#45;&gt;26</title>
<path fill="none" stroke="black" stroke-dasharray="1,5" d="M892.2,-548.95C874.89,-536.44 850.05,-518.47 830.66,-504.45"/>
<polygon fill="black" stroke="black" points="832.61,-501.54 822.45,-498.52 828.51,-507.21 832.61,-501.54"/>
<text text-anchor="middle" x="866.5" y="-521" font-family="Times,serif" font-size="10.00">2</text>
</g>
<!-- 28 -->
<g id="node18" class="node">
<title>28</title>
<ellipse fill="none" stroke="black" cx="913" cy="-482" rx="44.39" ry="18"/>
<text text-anchor="middle" x="913" y="-478.3" font-family="Times,serif" font-size="14.00">S32 (b)</text>
</g>
<!-- 22&#45;&gt;28 -->
<g id="edge17" class="edge">
<title>22&#45;&gt;28</title>
<path fill="none" stroke="black" stroke-dasharray="5,2" d="M913,-546.82C913,-536.19 913,-522.31 913,-510.2"/>
<polygon fill="black" stroke="black" points="916.5,-510.15 913,-500.15 909.5,-510.15 916.5,-510.15"/>
</g>
<!-- 32 -->
<g id="node21" class="node">
<title>32</title>
<ellipse fill="none" stroke="black" cx="1015" cy="-482" rx="40.09" ry="18"/>
<text text-anchor="middle" x="1015" y="-478.3" font-family="Times,serif" font-size="14.00">Pal (b)</text>
</g>
<!-- 22&#45;&gt;32 -->
<g id="edge20" class="edge">
<title>22&#45;&gt;32</title>
<path fill="none" stroke="black" stroke-dasharray="5,2" d="M932.19,-548.76C947.86,-536.32 970.2,-518.58 987.73,-504.65"/>
<polygon fill="black" stroke="black" points="990.25,-507.13 995.9,-498.17 985.89,-501.65 990.25,-507.13"/>
</g>
<!-- 36 -->
<g id="node24" class="node">
<title>36</title>
<ellipse fill="none" stroke="black" cx="1146" cy="-482" rx="45.49" ry="18"/>
<text text-anchor="middle" x="1146" y="-478.3" font-family="Times,serif" font-size="14.00">Nan (b)</text>
</g>
<!-- 22&#45;&gt;36 -->
<g id="edge23" class="edge">
<title>22&#45;&gt;36</title>
<path fill="none" stroke="black" stroke-dasharray="5,2" d="M945.4,-552.74C986.52,-538.44 1057.58,-513.74 1103.15,-497.9"/>
<polygon fill="black" stroke="black" points="1104.45,-501.15 1112.75,-494.56 1102.15,-494.54 1104.45,-501.15"/>
<text text-anchor="middle" x="1046.5" y="-521" font-family="Times,serif" font-size="10.00">2</text>
</g>
<!-- 37 -->
<g id="node25" class="node">
<title>37</title>
<ellipse fill="none" stroke="black" cx="1330" cy="-482" rx="50.09" ry="18"/>
<text text-anchor="middle" x="1330" y="-478.3" font-family="Times,serif" font-size="14.00">V566 (b)</text>
</g>
<!-- 22&#45;&gt;37 -->
<g id="edge24" class="edge">
<title>22&#45;&gt;37</title>
<path fill="none" stroke="black" stroke-dasharray="5,2" d="M952.23,-556.38C1027.53,-541.75 1192.37,-509.73 1277.22,-493.25"/>
<polygon fill="black" stroke="black" points="1278.01,-496.66 1287.16,-491.32 1276.68,-489.79 1278.01,-496.66"/>
</g>
<!-- 23 -->
<g id="node14" class="node">
<title>23</title>
<ellipse fill="none" stroke="black" cx="1229" cy="-399" rx="55.79" ry="18"/>
<text text-anchor="middle" x="1229" y="-395.3" font-family="Times,serif" font-size="14.00">V1629 (b)</text>
</g>
<!-- 33 -->
<g id="node22" class="node">
<title>33</title>
<ellipse fill="none" stroke="black" cx="1183" cy="-326" rx="50.09" ry="18"/>
<text text-anchor="middle" x="1183" y="-322.3" font-family="Times,serif" font-size="14.00">V568 (b)</text>
</g>
<!-- 23&#45;&gt;33 -->
<g id="edge21" class="edge">
<title>23&#45;&gt;33</title>
<path fill="none" stroke="black" stroke-dasharray="5,2" d="M1218.1,-381.17C1212.48,-372.51 1205.53,-361.77 1199.29,-352.14"/>
<polygon fill="black" stroke="black" points="1202.2,-350.19 1193.82,-343.71 1196.32,-354 1202.2,-350.19"/>
</g>
<!-- 40 -->
<g id="node28" class="node">
<title>40</title>
<ellipse fill="none" stroke="black" cx="1301" cy="-326" rx="50.09" ry="18"/>
<text text-anchor="middle" x="1301" y="-322.3" font-family="Times,serif" font-size="14.00">V536 (b)</text>
</g>
<!-- 23&#45;&gt;40 -->
<g id="edge27" class="edge">
<title>23&#45;&gt;40</title>
<path fill="none" stroke="black" stroke-dasharray="5,2" d="M1245.7,-381.53C1255.06,-372.3 1266.89,-360.64 1277.21,-350.46"/>
<polygon fill="black" stroke="black" points="1279.73,-352.89 1284.39,-343.38 1274.81,-347.91 1279.73,-352.89"/>
</g>
<!-- 25 -->
<g id="node15" class="node">
<title>25</title>
<ellipse fill="none" stroke="black" cx="759" cy="-399" rx="50.09" ry="18"/>
<text text-anchor="middle" x="759" y="-395.3" font-family="Times,serif" font-size="14.00">V571 (b)</text>
</g>
<!-- 26&#45;&gt;0 -->
<g id="edge1" class="edge">
<title>26&#45;&gt;0</title>
<path fill="none" stroke="black" stroke-dasharray="1,5" d="M764.67,-469.79C757.21,-467.7 749.39,-465.66 742,-464 678.3,-449.71 515.79,-430.87 452,-417 447.65,-416.05 443.15,-414.99 438.65,-413.87"/>
<polygon fill="black" stroke="black" points="439.43,-410.45 428.87,-411.34 437.68,-417.23 439.43,-410.45"/>
</g>
<!-- 26&#45;&gt;15 -->
<g id="edge9" class="edge">
<title>26&#45;&gt;15</title>
<path fill="none" stroke="black" stroke-dasharray="5,2" d="M763.55,-470.19C756.4,-468.13 748.97,-466 742,-464 681.98,-446.82 612.91,-427.19 567.31,-414.26"/>
<polygon fill="black" stroke="black" points="568.23,-410.88 557.66,-411.52 566.32,-417.62 568.23,-410.88"/>
</g>
<!-- 26&#45;&gt;18 -->
<g id="edge10" class="edge">
<title>26&#45;&gt;18</title>
<path fill="none" stroke="black" stroke-dasharray="5,2" d="M773.13,-466.89C746.71,-453.52 706.86,-433.34 677.83,-418.65"/>
<polygon fill="black" stroke="black" points="679.32,-415.48 668.82,-414.08 676.16,-421.72 679.32,-415.48"/>
</g>
<!-- 26&#45;&gt;25 -->
<g id="edge14" class="edge">
<title>26&#45;&gt;25</title>
<path fill="none" stroke="black" stroke-dasharray="1,5" d="M792.3,-464.22C786.55,-453.14 778.91,-438.41 772.4,-425.85"/>
<polygon fill="black" stroke="black" points="775.4,-424.03 767.69,-416.76 769.19,-427.25 775.4,-424.03"/>
</g>
<!-- 27 -->
<g id="node17" class="node">
<title>27</title>
<ellipse fill="none" stroke="black" cx="876" cy="-399" rx="49.29" ry="18"/>
<text text-anchor="middle" x="876" y="-395.3" font-family="Times,serif" font-size="14.00">La35 (b)</text>
</g>
<!-- 26&#45;&gt;27 -->
<g id="edge16" class="edge">
<title>26&#45;&gt;27</title>
<path fill="none" stroke="black" stroke-dasharray="1,5" d="M816.18,-464.61C827.05,-452.86 841.87,-436.86 854.04,-423.72"/>
<polygon fill="black" stroke="black" points="856.62,-426.08 860.85,-416.37 851.48,-421.33 856.62,-426.08"/>
</g>
<!-- 38 -->
<g id="node26" class="node">
<title>38</title>
<ellipse fill="none" stroke="black" cx="993" cy="-399" rx="50.09" ry="18"/>
<text text-anchor="middle" x="993" y="-395.3" font-family="Times,serif" font-size="14.00">A116 (b)</text>
</g>
<!-- 26&#45;&gt;38 -->
<g id="edge25" class="edge">
<title>26&#45;&gt;38</title>
<path fill="none" stroke="black" stroke-dasharray="5,2" d="M832.28,-467.81C864.91,-454.04 916.23,-432.39 952.07,-417.27"/>
<polygon fill="black" stroke="black" points="953.88,-420.3 961.74,-413.19 951.16,-413.85 953.88,-420.3"/>
</g>
<!-- 41 -->
<g id="node29" class="node">
<title>41</title>
<ellipse fill="none" stroke="black" cx="1108" cy="-399" rx="47.39" ry="18"/>
<text text-anchor="middle" x="1108" y="-395.3" font-family="Times,serif" font-size="14.00">Bodl (b)</text>
</g>
<!-- 26&#45;&gt;41 -->
<g id="edge28" class="edge">
<title>26&#45;&gt;41</title>
<path fill="none" stroke="black" stroke-dasharray="5,2" d="M838.07,-470.07C845.33,-468 852.89,-465.89 860,-464 944.89,-441.39 967.27,-440.21 1052,-417 1055.54,-416.03 1059.2,-415 1062.86,-413.93"/>
<polygon fill="black" stroke="black" points="1063.93,-417.27 1072.54,-411.09 1061.95,-410.55 1063.93,-417.27"/>
</g>
<!-- 31 -->
<g id="node20" class="node">
<title>31</title>
<ellipse fill="none" stroke="black" cx="1359" cy="-399" rx="55.79" ry="18"/>
<text text-anchor="middle" x="1359" y="-395.3" font-family="Times,serif" font-size="14.00">V1639 (b)</text>
</g>
<!-- 33&#45;&gt;6 -->
<g id="edge4" class="edge">
<title>33&#45;&gt;6</title>
<path fill="none" stroke="black" stroke-dasharray="1,5" d="M1183,-307.81C1183,-299.79 1183,-290.05 1183,-281.07"/>
<polygon fill="black" stroke="black" points="1186.5,-281.03 1183,-271.03 1179.5,-281.03 1186.5,-281.03"/>
</g>
<!-- 36&#45;&gt;23 -->
<g id="edge13" class="edge">
<title>36&#45;&gt;23</title>
<path fill="none" stroke="black" d="M1162.4,-465C1174.6,-453.09 1191.43,-436.67 1205.12,-423.31"/>
<polygon fill="black" stroke="black" points="1207.64,-425.74 1212.35,-416.25 1202.75,-420.73 1207.64,-425.74"/>
<text text-anchor="middle" x="1195.5" y="-438" font-family="Times,serif" font-size="10.00">5</text>
</g>
<!-- 37&#45;&gt;31 -->
<g id="edge19" class="edge">
<title>37&#45;&gt;31</title>
<path fill="none" stroke="black" stroke-dasharray="1,5" d="M1336.15,-463.82C1339.99,-453.08 1345.03,-439.03 1349.39,-426.84"/>
<polygon fill="black" stroke="black" points="1352.78,-427.75 1352.86,-417.15 1346.19,-425.39 1352.78,-427.75"/>
</g>
<!-- 39&#45;&gt;9 -->
<g id="edge6" class="edge">
<title>39&#45;&gt;9</title>
<path fill="none" stroke="black" stroke-dasharray="5,2" d="M265,-380.81C265,-372.79 265,-363.05 265,-354.07"/>
<polygon fill="black" stroke="black" points="268.5,-354.03 265,-344.03 261.5,-354.03 268.5,-354.03"/>
</g>
<!-- 11 -->
<g id="node30" class="node">
<title>11</title>
<ellipse fill="none" stroke="blue" stroke-dasharray="5,2" cx="913" cy="-639" rx="53.89" ry="18"/>
<text text-anchor="middle" x="913" y="-635.3" font-family="Times,serif" font-size="14.00">aBase (a)</text>
</g>
<!-- 11&#45;&gt;22 -->
<g id="edge12" class="edge">
<title>11&#45;&gt;22</title>
<path fill="none" stroke="blue" stroke-dasharray="5,2" d="M913,-620.94C913,-612.81 913,-602.88 913,-593.7"/>
<polygon fill="blue" stroke="blue" points="916.5,-593.44 913,-583.44 909.5,-593.44 916.5,-593.44"/>
</g>
</g>
</svg>
