<?xml version="1.0" encoding="UTF-8" standalone="no"?>
<!DOCTYPE svg PUBLIC "-//W3C//DTD SVG 1.1//EN"
 "http://www.w3.org/Graphics/SVG/1.1/DTD/svg11.dtd">
<!-- Generated by graphviz version 2.43.0 (0)
 -->
<!-- Title: textual_flow_diagram Pages: 1 -->
<svg width="346pt" height="366pt"
 viewBox="0.00 0.00 346.00 366.00" xmlns="http://www.w3.org/2000/svg" xmlns:xlink="http://www.w3.org/1999/xlink">
<g id="graph0" class="graph" transform="scale(1 1) rotate(0) translate(4 362)">
<title>textual_flow_diagram</title>
<polygon fill="white" stroke="transparent" points="-4,4 -4,-362 342,-362 342,4 -4,4"/>
<g id="clust1" class="cluster">
<title>cluster_legend</title>
<polygon fill="none" stroke="black" points="8,-296 8,-350 194,-350 194,-296 8,-296"/>
</g>
<g id="clust2" class="cluster">
<title>cluster_plot</title>
</g>
<!-- label -->
<g id="node1" class="node">
<title>label</title>
<text text-anchor="middle" x="101" y="-326.8" font-family="Times,serif" font-size="14.00">adstag1.3.23U2&#45;12, c</text>
<text text-anchor="middle" x="101" y="-311.8" font-family="Times,serif" font-size="14.00">Con = 3</text>
</g>
<!-- 15 -->
<g id="node2" class="node">
<title>15</title>
<ellipse fill="none" stroke="black" cx="266" cy="-178" rx="49.29" ry="18"/>
<text text-anchor="middle" x="266" y="-174.3" font-family="Times,serif" font-size="14.00">V568 (c)</text>
</g>
<!-- 25 -->
<g id="node3" class="node">
<title>25</title>
<ellipse fill="none" stroke="black" cx="266" cy="-106" rx="46.29" ry="18"/>
<text text-anchor="middle" x="266" y="-102.3" font-family="Times,serif" font-size="14.00">Taur (c)</text>
</g>
<!-- 15&#45;&gt;25 -->
<g id="edge2" class="edge">
<title>15&#45;&gt;25</title>
<path fill="none" stroke="black" stroke-dasharray="1,5" d="M266,-159.7C266,-151.98 266,-142.71 266,-134.11"/>
<polygon fill="black" stroke="black" points="269.5,-134.1 266,-124.1 262.5,-134.1 269.5,-134.1"/>
</g>
<!-- 34 -->
<g id="node4" class="node">
<title>34</title>
<ellipse fill="none" stroke="black" cx="266" cy="-34" rx="51.99" ry="18"/>
<text text-anchor="middle" x="266" y="-30.3" font-family="Times,serif" font-size="14.00">M118 (c)</text>
</g>
<!-- 25&#45;&gt;34 -->
<g id="edge3" class="edge">
<title>25&#45;&gt;34</title>
<path fill="none" stroke="black" stroke-dasharray="5,2" d="M266,-87.7C266,-79.98 266,-70.71 266,-62.11"/>
<polygon fill="black" stroke="black" points="269.5,-62.1 266,-52.1 262.5,-62.1 269.5,-62.1"/>
</g>
<!-- 40 -->
<g id="node5" class="node">
<title>40</title>
<ellipse fill="none" stroke="black" cx="266" cy="-250" rx="49.29" ry="18"/>
<text text-anchor="middle" x="266" y="-246.3" font-family="Times,serif" font-size="14.00">V536 (c)</text>
</g>
<!-- 40&#45;&gt;15 -->
<g id="edge1" class="edge">
<title>40&#45;&gt;15</title>
<path fill="none" stroke="black" stroke-dasharray="1,5" d="M266,-231.7C266,-223.98 266,-214.71 266,-206.11"/>
<polygon fill="black" stroke="black" points="269.5,-206.1 266,-196.1 262.5,-206.1 269.5,-206.1"/>
</g>
<!-- 8 -->
<g id="node6" class="node">
<title>8</title>
<ellipse fill="none" stroke="blue" stroke-dasharray="5,2" cx="266" cy="-323" rx="55.79" ry="18"/>
<text text-anchor="middle" x="266" y="-319.3" font-family="Times,serif" font-size="14.00">V1629 (a)</text>
</g>
<!-- 8&#45;&gt;40 -->
<g id="edge4" class="edge">
<title>8&#45;&gt;40</title>
<path fill="none" stroke="blue" stroke-dasharray="5,2" d="M266,-304.81C266,-296.79 266,-287.05 266,-278.07"/>
<polygon fill="blue" stroke="blue" points="269.5,-278.03 266,-268.03 262.5,-278.03 269.5,-278.03"/>
</g>
</g>
</svg>
