<?xml version="1.0" encoding="UTF-8" standalone="no"?>
<!DOCTYPE svg PUBLIC "-//W3C//DTD SVG 1.1//EN"
 "http://www.w3.org/Graphics/SVG/1.1/DTD/svg11.dtd">
<!-- Generated by graphviz version 2.43.0 (0)
 -->
<!-- Title: textual_flow_diagram Pages: 1 -->
<svg width="1832pt" height="654pt"
 viewBox="0.00 0.00 1832.00 654.00" xmlns="http://www.w3.org/2000/svg" xmlns:xlink="http://www.w3.org/1999/xlink">
<g id="graph0" class="graph" transform="scale(1 1) rotate(0) translate(4 650)">
<title>textual_flow_diagram</title>
<polygon fill="white" stroke="transparent" points="-4,4 -4,-650 1828,-650 1828,4 -4,4"/>
<g id="clust1" class="cluster">
<title>cluster_legend</title>
<polygon fill="none" stroke="black" points="8,-584 8,-638 204,-638 204,-584 8,-584"/>
</g>
<g id="clust2" class="cluster">
<title>cluster_plot</title>
</g>
<!-- label -->
<g id="node1" class="node">
<title>label</title>
<text text-anchor="middle" x="106" y="-614.8" font-family="Times,serif" font-size="14.00">adstag1.3.29U32&#45;40, a</text>
<text text-anchor="middle" x="106" y="-599.8" font-family="Times,serif" font-size="14.00">Con = 5</text>
</g>
<!-- 0 -->
<g id="node2" class="node">
<title>0</title>
<ellipse fill="none" stroke="black" cx="822" cy="-34" rx="40.89" ry="18"/>
<text text-anchor="middle" x="822" y="-30.3" font-family="Times,serif" font-size="14.00">Sin (a)</text>
</g>
<!-- 1 -->
<g id="node3" class="node">
<title>1</title>
<ellipse fill="none" stroke="black" cx="394" cy="-466" rx="44.39" ry="18"/>
<text text-anchor="middle" x="394" y="-462.3" font-family="Times,serif" font-size="14.00">S32 (a)</text>
</g>
<!-- 2 -->
<g id="node4" class="node">
<title>2</title>
<ellipse fill="none" stroke="black" cx="1063" cy="-466" rx="48.99" ry="18"/>
<text text-anchor="middle" x="1063" y="-462.3" font-family="Times,serif" font-size="14.00">La35 (a)</text>
</g>
<!-- 3 -->
<g id="node5" class="node">
<title>3</title>
<ellipse fill="none" stroke="black" cx="1177" cy="-466" rx="46.59" ry="18"/>
<text text-anchor="middle" x="1177" y="-462.3" font-family="Times,serif" font-size="14.00">Bodl (a)</text>
</g>
<!-- 4 -->
<g id="node6" class="node">
<title>4</title>
<ellipse fill="none" stroke="black" cx="496" cy="-466" rx="40.09" ry="18"/>
<text text-anchor="middle" x="496" y="-462.3" font-family="Times,serif" font-size="14.00">Pal (a)</text>
</g>
<!-- 5 -->
<g id="node7" class="node">
<title>5</title>
<ellipse fill="none" stroke="black" cx="598" cy="-466" rx="44.39" ry="18"/>
<text text-anchor="middle" x="598" y="-462.3" font-family="Times,serif" font-size="14.00">P01 (a)</text>
</g>
<!-- 6 -->
<g id="node8" class="node">
<title>6</title>
<ellipse fill="none" stroke="black" cx="710" cy="-394" rx="55.79" ry="18"/>
<text text-anchor="middle" x="710" y="-390.3" font-family="Times,serif" font-size="14.00">V1639 (a)</text>
</g>
<!-- 7 -->
<g id="node9" class="node">
<title>7</title>
<ellipse fill="none" stroke="black" cx="276" cy="-466" rx="55.79" ry="18"/>
<text text-anchor="middle" x="276" y="-462.3" font-family="Times,serif" font-size="14.00">V1897 (a)</text>
</g>
<!-- 8 -->
<g id="node10" class="node">
<title>8</title>
<ellipse fill="none" stroke="black" cx="940" cy="-466" rx="55.79" ry="18"/>
<text text-anchor="middle" x="940" y="-462.3" font-family="Times,serif" font-size="14.00">V1629 (a)</text>
</g>
<!-- 40 -->
<g id="node30" class="node">
<title>40</title>
<ellipse fill="none" stroke="black" cx="940" cy="-394" rx="50.09" ry="18"/>
<text text-anchor="middle" x="940" y="-390.3" font-family="Times,serif" font-size="14.00">V536 (a)</text>
</g>
<!-- 8&#45;&gt;40 -->
<g id="edge28" class="edge">
<title>8&#45;&gt;40</title>
<path fill="none" stroke="black" stroke-dasharray="5,2" d="M940,-447.7C940,-439.98 940,-430.71 940,-422.11"/>
<polygon fill="black" stroke="black" points="943.5,-422.1 940,-412.1 936.5,-422.1 943.5,-422.1"/>
</g>
<!-- 10 -->
<g id="node11" class="node">
<title>10</title>
<ellipse fill="none" stroke="black" cx="822" cy="-178" rx="50.09" ry="18"/>
<text text-anchor="middle" x="822" y="-174.3" font-family="Times,serif" font-size="14.00">Marc (a)</text>
</g>
<!-- 21 -->
<g id="node19" class="node">
<title>21</title>
<ellipse fill="none" stroke="black" cx="822" cy="-106" rx="46.29" ry="18"/>
<text text-anchor="middle" x="822" y="-102.3" font-family="Times,serif" font-size="14.00">Mon (a)</text>
</g>
<!-- 10&#45;&gt;21 -->
<g id="edge17" class="edge">
<title>10&#45;&gt;21</title>
<path fill="none" stroke="black" stroke-dasharray="1,5" d="M822,-159.7C822,-151.98 822,-142.71 822,-134.11"/>
<polygon fill="black" stroke="black" points="825.5,-134.1 822,-124.1 818.5,-134.1 825.5,-134.1"/>
</g>
<!-- 11 -->
<g id="node12" class="node">
<title>11</title>
<ellipse fill="none" stroke="black" cx="384" cy="-538" rx="44.69" ry="18"/>
<text text-anchor="middle" x="384" y="-534.3" font-family="Times,serif" font-size="14.00">Nan (a)</text>
</g>
<!-- 11&#45;&gt;7 -->
<g id="edge8" class="edge">
<title>11&#45;&gt;7</title>
<path fill="none" stroke="black" stroke-dasharray="1,5" d="M361.36,-522.33C345.98,-512.36 325.41,-499.02 308.31,-487.94"/>
<polygon fill="black" stroke="black" points="310.03,-484.88 299.73,-482.38 306.22,-490.76 310.03,-484.88"/>
</g>
<!-- 14 -->
<g id="node13" class="node">
<title>14</title>
<ellipse fill="none" stroke="black" cx="880" cy="-611" rx="53.89" ry="18"/>
<text text-anchor="middle" x="880" y="-607.3" font-family="Times,serif" font-size="14.00">aBase (a)</text>
</g>
<!-- 14&#45;&gt;11 -->
<g id="edge11" class="edge">
<title>14&#45;&gt;11</title>
<path fill="none" stroke="black" d="M831.54,-603.06C737.7,-589.63 531.96,-560.18 435.64,-546.39"/>
<polygon fill="black" stroke="black" points="435.96,-542.9 425.56,-544.95 434.97,-549.83 435.96,-542.9"/>
</g>
<!-- 17 -->
<g id="node16" class="node">
<title>17</title>
<ellipse fill="none" stroke="black" cx="598" cy="-538" rx="44.39" ry="18"/>
<text text-anchor="middle" x="598" y="-534.3" font-family="Times,serif" font-size="14.00">A25 (a)</text>
</g>
<!-- 14&#45;&gt;17 -->
<g id="edge14" class="edge">
<title>14&#45;&gt;17</title>
<path fill="none" stroke="black" stroke-dasharray="5,2" d="M838.39,-599.52C786.72,-586.51 698.81,-564.38 644.83,-550.79"/>
<polygon fill="black" stroke="black" points="645.39,-547.32 634.83,-548.27 643.68,-554.11 645.39,-547.32"/>
</g>
<!-- 30 -->
<g id="node24" class="node">
<title>30</title>
<ellipse fill="none" stroke="black" cx="820" cy="-538" rx="52.79" ry="18"/>
<text text-anchor="middle" x="820" y="-534.3" font-family="Times,serif" font-size="14.00">LaSM (a)</text>
</g>
<!-- 14&#45;&gt;30 -->
<g id="edge22" class="edge">
<title>14&#45;&gt;30</title>
<path fill="none" stroke="black" d="M866.08,-593.53C858.44,-584.48 848.81,-573.09 840.33,-563.06"/>
<polygon fill="black" stroke="black" points="842.97,-560.76 833.84,-555.38 837.62,-565.28 842.97,-560.76"/>
</g>
<!-- 31 -->
<g id="node25" class="node">
<title>31</title>
<ellipse fill="none" stroke="black" cx="941" cy="-538" rx="50.09" ry="18"/>
<text text-anchor="middle" x="941" y="-534.3" font-family="Times,serif" font-size="14.00">Neap (a)</text>
</g>
<!-- 14&#45;&gt;31 -->
<g id="edge23" class="edge">
<title>14&#45;&gt;31</title>
<path fill="none" stroke="black" stroke-width="2" d="M894.15,-593.53C901.92,-584.48 911.71,-573.09 920.33,-563.06"/>
<polygon fill="black" stroke="black" stroke-width="2" points="923.07,-565.24 926.93,-555.38 917.76,-560.68 923.07,-565.24"/>
</g>
<!-- 37 -->
<g id="node28" class="node">
<title>37</title>
<ellipse fill="none" stroke="black" cx="1286" cy="-538" rx="48.99" ry="18"/>
<text text-anchor="middle" x="1286" y="-534.3" font-family="Times,serif" font-size="14.00">La22 (a)</text>
</g>
<!-- 14&#45;&gt;37 -->
<g id="edge26" class="edge">
<title>14&#45;&gt;37</title>
<path fill="none" stroke="black" stroke-dasharray="5,2" d="M926.57,-601.86C1002.68,-588.55 1153.2,-562.22 1233.17,-548.24"/>
<polygon fill="black" stroke="black" points="1233.79,-551.68 1243.04,-546.51 1232.58,-544.79 1233.79,-551.68"/>
</g>
<!-- 42 -->
<g id="node32" class="node">
<title>42</title>
<ellipse fill="none" stroke="black" cx="1403" cy="-538" rx="50.09" ry="18"/>
<text text-anchor="middle" x="1403" y="-534.3" font-family="Times,serif" font-size="14.00">S249 (a)</text>
</g>
<!-- 14&#45;&gt;42 -->
<g id="edge30" class="edge">
<title>14&#45;&gt;42</title>
<path fill="none" stroke="black" d="M932.63,-606.71C1019.14,-600.67 1196.51,-585.62 1344,-556 1348.17,-555.16 1352.48,-554.17 1356.78,-553.1"/>
<polygon fill="black" stroke="black" points="1357.95,-556.41 1366.72,-550.47 1356.16,-549.64 1357.95,-556.41"/>
</g>
<!-- 15 -->
<g id="node14" class="node">
<title>15</title>
<ellipse fill="none" stroke="black" cx="940" cy="-322" rx="50.09" ry="18"/>
<text text-anchor="middle" x="940" y="-318.3" font-family="Times,serif" font-size="14.00">V568 (a)</text>
</g>
<!-- 25 -->
<g id="node21" class="node">
<title>25</title>
<ellipse fill="none" stroke="black" cx="940" cy="-250" rx="46.59" ry="18"/>
<text text-anchor="middle" x="940" y="-246.3" font-family="Times,serif" font-size="14.00">Taur (a)</text>
</g>
<!-- 15&#45;&gt;25 -->
<g id="edge19" class="edge">
<title>15&#45;&gt;25</title>
<path fill="none" stroke="black" stroke-dasharray="1,5" d="M940,-303.7C940,-295.98 940,-286.71 940,-278.11"/>
<polygon fill="black" stroke="black" points="943.5,-278.1 940,-268.1 936.5,-278.1 943.5,-278.1"/>
</g>
<!-- 16 -->
<g id="node15" class="node">
<title>16</title>
<ellipse fill="none" stroke="black" cx="1286" cy="-466" rx="44.39" ry="18"/>
<text text-anchor="middle" x="1286" y="-462.3" font-family="Times,serif" font-size="14.00">P74 (a)</text>
</g>
<!-- 17&#45;&gt;1 -->
<g id="edge2" class="edge">
<title>17&#45;&gt;1</title>
<path fill="none" stroke="black" stroke-dasharray="5,2" d="M565.22,-525.75C530.28,-513.76 474.81,-494.73 436.52,-481.59"/>
<polygon fill="black" stroke="black" points="437.29,-478.15 426.69,-478.22 435.02,-484.78 437.29,-478.15"/>
</g>
<!-- 17&#45;&gt;4 -->
<g id="edge5" class="edge">
<title>17&#45;&gt;4</title>
<path fill="none" stroke="black" stroke-dasharray="5,2" d="M576.37,-522.15C561.66,-512.06 542.02,-498.58 525.83,-487.47"/>
<polygon fill="black" stroke="black" points="527.48,-484.36 517.25,-481.58 523.52,-490.13 527.48,-484.36"/>
</g>
<!-- 17&#45;&gt;5 -->
<g id="edge6" class="edge">
<title>17&#45;&gt;5</title>
<path fill="none" stroke="black" stroke-dasharray="5,2" d="M598,-519.7C598,-511.98 598,-502.71 598,-494.11"/>
<polygon fill="black" stroke="black" points="601.5,-494.1 598,-484.1 594.5,-494.1 601.5,-494.1"/>
</g>
<!-- 36 -->
<g id="node27" class="node">
<title>36</title>
<ellipse fill="none" stroke="black" cx="710" cy="-466" rx="50.09" ry="18"/>
<text text-anchor="middle" x="710" y="-462.3" font-family="Times,serif" font-size="14.00">V566 (a)</text>
</g>
<!-- 17&#45;&gt;36 -->
<g id="edge25" class="edge">
<title>17&#45;&gt;36</title>
<path fill="none" stroke="black" stroke-dasharray="5,2" d="M621.21,-522.5C637.51,-512.31 659.53,-498.55 677.56,-487.27"/>
<polygon fill="black" stroke="black" points="679.43,-490.24 686.05,-481.97 675.72,-484.3 679.43,-490.24"/>
</g>
<!-- 19 -->
<g id="node17" class="node">
<title>19</title>
<ellipse fill="none" stroke="black" cx="1637" cy="-394" rx="50.09" ry="18"/>
<text text-anchor="middle" x="1637" y="-390.3" font-family="Times,serif" font-size="14.00">A336 (a)</text>
</g>
<!-- 20 -->
<g id="node18" class="node">
<title>20</title>
<ellipse fill="none" stroke="black" cx="1398" cy="-466" rx="50.09" ry="18"/>
<text text-anchor="middle" x="1398" y="-462.3" font-family="Times,serif" font-size="14.00">A116 (a)</text>
</g>
<!-- 21&#45;&gt;0 -->
<g id="edge1" class="edge">
<title>21&#45;&gt;0</title>
<path fill="none" stroke="black" stroke-dasharray="1,5" d="M822,-87.7C822,-79.98 822,-70.71 822,-62.11"/>
<polygon fill="black" stroke="black" points="825.5,-62.1 822,-52.1 818.5,-62.1 825.5,-62.1"/>
</g>
<!-- 22 -->
<g id="node20" class="node">
<title>22</title>
<ellipse fill="none" stroke="black" cx="822" cy="-466" rx="44.39" ry="18"/>
<text text-anchor="middle" x="822" y="-462.3" font-family="Times,serif" font-size="14.00">B39 (a)</text>
</g>
<!-- 25&#45;&gt;10 -->
<g id="edge10" class="edge">
<title>25&#45;&gt;10</title>
<path fill="none" stroke="black" stroke-dasharray="1,5" d="M915.55,-234.5C898.18,-224.19 874.65,-210.23 855.53,-198.89"/>
<polygon fill="black" stroke="black" points="857.21,-195.82 846.82,-193.73 853.64,-201.84 857.21,-195.82"/>
</g>
<!-- 29 -->
<g id="node23" class="node">
<title>29</title>
<ellipse fill="none" stroke="black" cx="940" cy="-178" rx="50.09" ry="18"/>
<text text-anchor="middle" x="940" y="-174.3" font-family="Times,serif" font-size="14.00">V569 (a)</text>
</g>
<!-- 25&#45;&gt;29 -->
<g id="edge21" class="edge">
<title>25&#45;&gt;29</title>
<path fill="none" stroke="black" stroke-dasharray="5,2" d="M940,-231.7C940,-223.98 940,-214.71 940,-206.11"/>
<polygon fill="black" stroke="black" points="943.5,-206.1 940,-196.1 936.5,-206.1 943.5,-206.1"/>
</g>
<!-- 34 -->
<g id="node26" class="node">
<title>34</title>
<ellipse fill="none" stroke="black" cx="1061" cy="-178" rx="52.79" ry="18"/>
<text text-anchor="middle" x="1061" y="-174.3" font-family="Times,serif" font-size="14.00">M118 (a)</text>
</g>
<!-- 25&#45;&gt;34 -->
<g id="edge24" class="edge">
<title>25&#45;&gt;34</title>
<path fill="none" stroke="black" stroke-dasharray="5,2" d="M964.78,-234.67C982.65,-224.33 1006.99,-210.25 1026.72,-198.83"/>
<polygon fill="black" stroke="black" points="1028.52,-201.83 1035.42,-193.8 1025.01,-195.78 1028.52,-201.83"/>
</g>
<!-- 26 -->
<g id="node22" class="node">
<title>26</title>
<ellipse fill="none" stroke="black" cx="1516" cy="-466" rx="50.09" ry="18"/>
<text text-anchor="middle" x="1516" y="-462.3" font-family="Times,serif" font-size="14.00">V565 (a)</text>
</g>
<!-- 30&#45;&gt;22 -->
<g id="edge18" class="edge">
<title>30&#45;&gt;22</title>
<path fill="none" stroke="black" stroke-dasharray="5,2" d="M820.49,-519.7C820.71,-511.98 820.98,-502.71 821.23,-494.11"/>
<polygon fill="black" stroke="black" points="824.72,-494.2 821.51,-484.1 817.73,-494 824.72,-494.2"/>
</g>
<!-- 31&#45;&gt;8 -->
<g id="edge9" class="edge">
<title>31&#45;&gt;8</title>
<path fill="none" stroke="black" stroke-dasharray="1,5" d="M940.75,-519.7C940.64,-511.98 940.51,-502.71 940.39,-494.11"/>
<polygon fill="black" stroke="black" points="943.89,-494.05 940.24,-484.1 936.89,-494.15 943.89,-494.05"/>
</g>
<!-- 36&#45;&gt;6 -->
<g id="edge7" class="edge">
<title>36&#45;&gt;6</title>
<path fill="none" stroke="black" stroke-dasharray="1,5" d="M710,-447.7C710,-439.98 710,-430.71 710,-422.11"/>
<polygon fill="black" stroke="black" points="713.5,-422.1 710,-412.1 706.5,-422.1 713.5,-422.1"/>
</g>
<!-- 37&#45;&gt;2 -->
<g id="edge3" class="edge">
<title>37&#45;&gt;2</title>
<path fill="none" stroke="black" stroke-dasharray="1,5" d="M1250.17,-525.75C1211.76,-513.7 1150.66,-494.52 1108.79,-481.37"/>
<polygon fill="black" stroke="black" points="1109.7,-477.99 1099.11,-478.33 1107.6,-484.67 1109.7,-477.99"/>
</g>
<!-- 37&#45;&gt;3 -->
<g id="edge4" class="edge">
<title>37&#45;&gt;3</title>
<path fill="none" stroke="black" stroke-dasharray="5,2" d="M1262.62,-521.98C1246.85,-511.86 1225.86,-498.38 1208.6,-487.3"/>
<polygon fill="black" stroke="black" points="1210.28,-484.21 1199.97,-481.75 1206.49,-490.1 1210.28,-484.21"/>
</g>
<!-- 37&#45;&gt;16 -->
<g id="edge13" class="edge">
<title>37&#45;&gt;16</title>
<path fill="none" stroke="black" stroke-dasharray="1,5" d="M1286,-519.7C1286,-511.98 1286,-502.71 1286,-494.11"/>
<polygon fill="black" stroke="black" points="1289.5,-494.1 1286,-484.1 1282.5,-494.1 1289.5,-494.1"/>
</g>
<!-- 37&#45;&gt;20 -->
<g id="edge16" class="edge">
<title>37&#45;&gt;20</title>
<path fill="none" stroke="black" stroke-dasharray="5,2" d="M1309.75,-522.15C1325.83,-512.11 1347.28,-498.7 1365.01,-487.62"/>
<polygon fill="black" stroke="black" points="1367.27,-490.33 1373.9,-482.07 1363.56,-484.4 1367.27,-490.33"/>
</g>
<!-- 37&#45;&gt;26 -->
<g id="edge20" class="edge">
<title>37&#45;&gt;26</title>
<path fill="none" stroke="black" stroke-dasharray="5,2" d="M1322.44,-525.91C1362.16,-513.82 1425.83,-494.44 1469.22,-481.24"/>
<polygon fill="black" stroke="black" points="1470.42,-484.53 1478.96,-478.27 1468.38,-477.83 1470.42,-484.53"/>
</g>
<!-- 39 -->
<g id="node29" class="node">
<title>39</title>
<ellipse fill="none" stroke="black" cx="1637" cy="-466" rx="52.79" ry="18"/>
<text text-anchor="middle" x="1637" y="-462.3" font-family="Times,serif" font-size="14.00">M111 (a)</text>
</g>
<!-- 37&#45;&gt;39 -->
<g id="edge27" class="edge">
<title>37&#45;&gt;39</title>
<path fill="none" stroke="black" stroke-dasharray="1,5" d="M1321.7,-525.74C1329.03,-523.66 1336.73,-521.62 1344,-520 1445.4,-497.34 1473.4,-505.77 1575,-484 1579.42,-483.05 1583.99,-481.98 1588.55,-480.85"/>
<polygon fill="black" stroke="black" points="1589.66,-484.18 1598.47,-478.29 1587.91,-477.4 1589.66,-484.18"/>
</g>
<!-- 41 -->
<g id="node31" class="node">
<title>41</title>
<ellipse fill="none" stroke="black" cx="1758" cy="-466" rx="50.09" ry="18"/>
<text text-anchor="middle" x="1758" y="-462.3" font-family="Times,serif" font-size="14.00">V571 (a)</text>
</g>
<!-- 37&#45;&gt;41 -->
<g id="edge29" class="edge">
<title>37&#45;&gt;41</title>
<path fill="none" stroke="black" stroke-dasharray="1,5" d="M1321.33,-525.52C1328.75,-523.43 1336.59,-521.45 1344,-520 1499.64,-489.57 1543.29,-514.08 1699,-484 1703.18,-483.19 1707.49,-482.22 1711.79,-481.16"/>
<polygon fill="black" stroke="black" points="1712.95,-484.48 1721.74,-478.55 1711.18,-477.71 1712.95,-484.48"/>
</g>
<!-- 39&#45;&gt;19 -->
<g id="edge15" class="edge">
<title>39&#45;&gt;19</title>
<path fill="none" stroke="black" stroke-dasharray="5,2" d="M1637,-447.7C1637,-439.98 1637,-430.71 1637,-422.11"/>
<polygon fill="black" stroke="black" points="1640.5,-422.1 1637,-412.1 1633.5,-422.1 1640.5,-422.1"/>
</g>
<!-- 40&#45;&gt;15 -->
<g id="edge12" class="edge">
<title>40&#45;&gt;15</title>
<path fill="none" stroke="black" stroke-dasharray="1,5" d="M940,-375.7C940,-367.98 940,-358.71 940,-350.11"/>
<polygon fill="black" stroke="black" points="943.5,-350.1 940,-340.1 936.5,-350.1 943.5,-350.1"/>
</g>
</g>
</svg>
