<?xml version="1.0" encoding="UTF-8" standalone="no"?>
<!DOCTYPE svg PUBLIC "-//W3C//DTD SVG 1.1//EN"
 "http://www.w3.org/Graphics/SVG/1.1/DTD/svg11.dtd">
<!-- Generated by graphviz version 2.43.0 (0)
 -->
<!-- Title: textual_flow_diagram Pages: 1 -->
<svg width="1157pt" height="294pt"
 viewBox="0.00 0.00 1157.00 294.00" xmlns="http://www.w3.org/2000/svg" xmlns:xlink="http://www.w3.org/1999/xlink">
<g id="graph0" class="graph" transform="scale(1 1) rotate(0) translate(4 290)">
<title>textual_flow_diagram</title>
<polygon fill="white" stroke="transparent" points="-4,4 -4,-290 1153,-290 1153,4 -4,4"/>
<g id="clust1" class="cluster">
<title>cluster_legend</title>
<polygon fill="none" stroke="black" points="8,-224 8,-278 204,-278 204,-224 8,-224"/>
</g>
<g id="clust2" class="cluster">
<title>cluster_plot</title>
</g>
<!-- label -->
<g id="node1" class="node">
<title>label</title>
<text text-anchor="middle" x="106" y="-254.8" font-family="Times,serif" font-size="14.00">adstag1.2.18U24&#45;28, b</text>
<text text-anchor="middle" x="106" y="-239.8" font-family="Times,serif" font-size="14.00">Con = 5</text>
</g>
<!-- 1 -->
<g id="node2" class="node">
<title>1</title>
<ellipse fill="none" stroke="black" cx="270" cy="-178" rx="41.69" ry="18"/>
<text text-anchor="middle" x="270" y="-174.3" font-family="Times,serif" font-size="14.00">Sin (b)</text>
</g>
<!-- 6 -->
<g id="node4" class="node">
<title>6</title>
<ellipse fill="none" stroke="black" cx="270" cy="-106" rx="50.09" ry="18"/>
<text text-anchor="middle" x="270" y="-102.3" font-family="Times,serif" font-size="14.00">Marc (b)</text>
</g>
<!-- 1&#45;&gt;6 -->
<g id="edge3" class="edge">
<title>1&#45;&gt;6</title>
<path fill="none" stroke="black" stroke-dasharray="1,5" d="M270,-159.7C270,-151.98 270,-142.71 270,-134.11"/>
<polygon fill="black" stroke="black" points="273.5,-134.1 270,-124.1 266.5,-134.1 273.5,-134.1"/>
</g>
<!-- 4 -->
<g id="node3" class="node">
<title>4</title>
<ellipse fill="none" stroke="black" cx="270" cy="-34" rx="46.59" ry="18"/>
<text text-anchor="middle" x="270" y="-30.3" font-family="Times,serif" font-size="14.00">Mon (b)</text>
</g>
<!-- 6&#45;&gt;4 -->
<g id="edge2" class="edge">
<title>6&#45;&gt;4</title>
<path fill="none" stroke="black" stroke-dasharray="1,5" d="M270,-87.7C270,-79.98 270,-70.71 270,-62.11"/>
<polygon fill="black" stroke="black" points="273.5,-62.1 270,-52.1 266.5,-62.1 273.5,-62.1"/>
</g>
<!-- 12 -->
<g id="node5" class="node">
<title>12</title>
<ellipse fill="none" stroke="black" cx="385" cy="-106" rx="47.39" ry="18"/>
<text text-anchor="middle" x="385" y="-102.3" font-family="Times,serif" font-size="14.00">Bodl (b)</text>
</g>
<!-- 13 -->
<g id="node6" class="node">
<title>13</title>
<ellipse fill="none" stroke="black" cx="500" cy="-106" rx="50.09" ry="18"/>
<text text-anchor="middle" x="500" y="-102.3" font-family="Times,serif" font-size="14.00">V571 (b)</text>
</g>
<!-- 21 -->
<g id="node7" class="node">
<title>21</title>
<ellipse fill="none" stroke="black" cx="621" cy="-106" rx="53.09" ry="18"/>
<text text-anchor="middle" x="621" y="-102.3" font-family="Times,serif" font-size="14.00">M111 (b)</text>
</g>
<!-- 26 -->
<g id="node8" class="node">
<title>26</title>
<ellipse fill="none" stroke="black" cx="742" cy="-106" rx="49.29" ry="18"/>
<text text-anchor="middle" x="742" y="-102.3" font-family="Times,serif" font-size="14.00">La35 (b)</text>
</g>
<!-- 27 -->
<g id="node9" class="node">
<title>27</title>
<ellipse fill="none" stroke="black" cx="742" cy="-178" rx="49.29" ry="18"/>
<text text-anchor="middle" x="742" y="-174.3" font-family="Times,serif" font-size="14.00">La22 (b)</text>
</g>
<!-- 27&#45;&gt;12 -->
<g id="edge4" class="edge">
<title>27&#45;&gt;12</title>
<path fill="none" stroke="black" stroke-dasharray="5,2" d="M696.52,-170.74C637.28,-162.18 530.67,-145.42 441,-124 437.22,-123.1 433.31,-122.08 429.41,-121.01"/>
<polygon fill="black" stroke="black" points="430.35,-117.64 419.77,-118.26 428.43,-124.37 430.35,-117.64"/>
</g>
<!-- 27&#45;&gt;13 -->
<g id="edge5" class="edge">
<title>27&#45;&gt;13</title>
<path fill="none" stroke="black" stroke-dasharray="1,5" d="M704.45,-166.14C662.15,-153.9 593.32,-133.99 547.36,-120.7"/>
<polygon fill="black" stroke="black" points="548.21,-117.3 537.64,-117.89 546.27,-124.03 548.21,-117.3"/>
</g>
<!-- 27&#45;&gt;21 -->
<g id="edge6" class="edge">
<title>27&#45;&gt;21</title>
<path fill="none" stroke="black" stroke-dasharray="1,5" d="M716.63,-162.33C698.93,-152.08 675.07,-138.28 655.62,-127.03"/>
<polygon fill="black" stroke="black" points="657.16,-123.87 646.75,-121.9 653.65,-129.93 657.16,-123.87"/>
</g>
<!-- 27&#45;&gt;26 -->
<g id="edge7" class="edge">
<title>27&#45;&gt;26</title>
<path fill="none" stroke="black" stroke-dasharray="1,5" d="M742,-159.7C742,-151.98 742,-142.71 742,-134.11"/>
<polygon fill="black" stroke="black" points="745.5,-134.1 742,-124.1 738.5,-134.1 745.5,-134.1"/>
</g>
<!-- 29 -->
<g id="node10" class="node">
<title>29</title>
<ellipse fill="none" stroke="black" cx="859" cy="-106" rx="50.09" ry="18"/>
<text text-anchor="middle" x="859" y="-102.3" font-family="Times,serif" font-size="14.00">V565 (b)</text>
</g>
<!-- 27&#45;&gt;29 -->
<g id="edge9" class="edge">
<title>27&#45;&gt;29</title>
<path fill="none" stroke="black" stroke-dasharray="5,2" d="M766.53,-162.33C783.57,-152.13 806.51,-138.41 825.27,-127.18"/>
<polygon fill="black" stroke="black" points="827.32,-130.03 834.1,-121.9 823.72,-124.03 827.32,-130.03"/>
</g>
<!-- 41 -->
<g id="node11" class="node">
<title>41</title>
<ellipse fill="none" stroke="black" cx="971" cy="-106" rx="44.39" ry="18"/>
<text text-anchor="middle" x="971" y="-102.3" font-family="Times,serif" font-size="14.00">P74 (b)</text>
</g>
<!-- 27&#45;&gt;41 -->
<g id="edge10" class="edge">
<title>27&#45;&gt;41</title>
<path fill="none" stroke="black" stroke-dasharray="1,5" d="M779.14,-166.03C814.8,-155.44 870.16,-138.87 918,-124 921.14,-123.02 924.38,-122.01 927.63,-120.98"/>
<polygon fill="black" stroke="black" points="928.91,-124.25 937.38,-117.88 926.79,-117.57 928.91,-124.25"/>
</g>
<!-- 45 -->
<g id="node12" class="node">
<title>45</title>
<ellipse fill="none" stroke="black" cx="1083" cy="-106" rx="50.09" ry="18"/>
<text text-anchor="middle" x="1083" y="-102.3" font-family="Times,serif" font-size="14.00">A116 (b)</text>
</g>
<!-- 27&#45;&gt;45 -->
<g id="edge11" class="edge">
<title>27&#45;&gt;45</title>
<path fill="none" stroke="black" stroke-dasharray="5,2" d="M786.72,-169.94C842.57,-160.82 940.88,-143.74 1024,-124 1028.03,-123.04 1032.19,-121.99 1036.35,-120.88"/>
<polygon fill="black" stroke="black" points="1037.28,-124.26 1046,-118.24 1035.43,-117.5 1037.28,-124.26"/>
</g>
<!-- 0 -->
<g id="node13" class="node">
<title>0</title>
<ellipse fill="none" stroke="blue" stroke-dasharray="5,2" cx="742" cy="-251" rx="43.59" ry="18"/>
<text text-anchor="middle" x="742" y="-247.3" font-family="Times,serif" font-size="14.00">A25 (c)</text>
</g>
<!-- 0&#45;&gt;27 -->
<g id="edge8" class="edge">
<title>0&#45;&gt;27</title>
<path fill="none" stroke="blue" stroke-dasharray="1,5" d="M742,-232.81C742,-224.79 742,-215.05 742,-206.07"/>
<polygon fill="blue" stroke="blue" points="745.5,-206.03 742,-196.03 738.5,-206.03 745.5,-206.03"/>
</g>
<!-- 14 -->
<g id="node14" class="node">
<title>14</title>
<ellipse fill="none" stroke="blue" stroke-dasharray="5,2" cx="270" cy="-251" rx="46.59" ry="18"/>
<text text-anchor="middle" x="270" y="-247.3" font-family="Times,serif" font-size="14.00">Taur (a)</text>
</g>
<!-- 14&#45;&gt;1 -->
<g id="edge1" class="edge">
<title>14&#45;&gt;1</title>
<path fill="none" stroke="blue" stroke-dasharray="1,5" d="M270,-232.81C270,-224.79 270,-215.05 270,-206.07"/>
<polygon fill="blue" stroke="blue" points="273.5,-206.03 270,-196.03 266.5,-206.03 273.5,-206.03"/>
</g>
</g>
</svg>
