<?xml version="1.0" encoding="UTF-8" standalone="no"?>
<!DOCTYPE svg PUBLIC "-//W3C//DTD SVG 1.1//EN"
 "http://www.w3.org/Graphics/SVG/1.1/DTD/svg11.dtd">
<!-- Generated by graphviz version 2.43.0 (0)
 -->
<!-- Title: textual_flow_diagram Pages: 1 -->
<svg width="1357pt" height="294pt"
 viewBox="0.00 0.00 1357.00 294.00" xmlns="http://www.w3.org/2000/svg" xmlns:xlink="http://www.w3.org/1999/xlink">
<g id="graph0" class="graph" transform="scale(1 1) rotate(0) translate(4 290)">
<title>textual_flow_diagram</title>
<polygon fill="white" stroke="transparent" points="-4,4 -4,-290 1353,-290 1353,4 -4,4"/>
<g id="clust1" class="cluster">
<title>cluster_legend</title>
<polygon fill="none" stroke="black" points="8,-224 8,-278 182,-278 182,-224 8,-224"/>
</g>
<g id="clust2" class="cluster">
<title>cluster_plot</title>
</g>
<!-- label -->
<g id="node1" class="node">
<title>label</title>
<text text-anchor="middle" x="95" y="-254.8" font-family="Times,serif" font-size="14.00">adstag1.4.17U18, a</text>
<text text-anchor="middle" x="95" y="-239.8" font-family="Times,serif" font-size="14.00">Con = 3</text>
</g>
<!-- 2 -->
<g id="node2" class="node">
<title>2</title>
<ellipse fill="none" stroke="black" cx="467" cy="-178" rx="50.09" ry="18"/>
<text text-anchor="middle" x="467" y="-174.3" font-family="Times,serif" font-size="14.00">S249 (a)</text>
</g>
<!-- 4 -->
<g id="node3" class="node">
<title>4</title>
<ellipse fill="none" stroke="black" cx="584" cy="-178" rx="48.99" ry="18"/>
<text text-anchor="middle" x="584" y="-174.3" font-family="Times,serif" font-size="14.00">La22 (a)</text>
</g>
<!-- 12 -->
<g id="node6" class="node">
<title>12</title>
<ellipse fill="none" stroke="black" cx="248" cy="-106" rx="50.09" ry="18"/>
<text text-anchor="middle" x="248" y="-102.3" font-family="Times,serif" font-size="14.00">V565 (a)</text>
</g>
<!-- 4&#45;&gt;12 -->
<g id="edge5" class="edge">
<title>4&#45;&gt;12</title>
<path fill="none" stroke="black" stroke-dasharray="5,2" d="M547.98,-165.7C540.74,-163.64 533.16,-161.63 526,-160 429.83,-138.09 403.22,-145.69 307,-124 302.91,-123.08 298.67,-122.04 294.45,-120.93"/>
<polygon fill="black" stroke="black" points="295.22,-117.52 284.65,-118.28 293.39,-124.27 295.22,-117.52"/>
</g>
<!-- 18 -->
<g id="node9" class="node">
<title>18</title>
<ellipse fill="none" stroke="black" cx="360" cy="-106" rx="44.39" ry="18"/>
<text text-anchor="middle" x="360" y="-102.3" font-family="Times,serif" font-size="14.00">P74 (a)</text>
</g>
<!-- 4&#45;&gt;18 -->
<g id="edge7" class="edge">
<title>4&#45;&gt;18</title>
<path fill="none" stroke="black" stroke-dasharray="1,5" d="M547.61,-165.83C512.97,-155.18 459.39,-138.63 413,-124 409.87,-123.01 406.63,-121.99 403.37,-120.95"/>
<polygon fill="black" stroke="black" points="404.22,-117.55 393.63,-117.84 402.09,-124.22 404.22,-117.55"/>
</g>
<!-- 19 -->
<g id="node10" class="node">
<title>19</title>
<ellipse fill="none" stroke="black" cx="472" cy="-106" rx="50.09" ry="18"/>
<text text-anchor="middle" x="472" y="-102.3" font-family="Times,serif" font-size="14.00">V571 (a)</text>
</g>
<!-- 4&#45;&gt;19 -->
<g id="edge8" class="edge">
<title>4&#45;&gt;19</title>
<path fill="none" stroke="black" stroke-dasharray="1,5" d="M560.25,-162.15C544.17,-152.11 522.72,-138.7 504.99,-127.62"/>
<polygon fill="black" stroke="black" points="506.44,-124.4 496.1,-122.07 502.73,-130.33 506.44,-124.4"/>
</g>
<!-- 27 -->
<g id="node13" class="node">
<title>27</title>
<ellipse fill="none" stroke="black" cx="590" cy="-106" rx="50.09" ry="18"/>
<text text-anchor="middle" x="590" y="-102.3" font-family="Times,serif" font-size="14.00">A116 (a)</text>
</g>
<!-- 4&#45;&gt;27 -->
<g id="edge11" class="edge">
<title>4&#45;&gt;27</title>
<path fill="none" stroke="black" stroke-dasharray="5,2" d="M585.48,-159.7C586.14,-151.98 586.94,-142.71 587.68,-134.11"/>
<polygon fill="black" stroke="black" points="591.17,-134.37 588.53,-124.1 584.19,-133.77 591.17,-134.37"/>
</g>
<!-- 33 -->
<g id="node16" class="node">
<title>33</title>
<ellipse fill="none" stroke="black" cx="705" cy="-106" rx="46.59" ry="18"/>
<text text-anchor="middle" x="705" y="-102.3" font-family="Times,serif" font-size="14.00">Bodl (a)</text>
</g>
<!-- 4&#45;&gt;33 -->
<g id="edge14" class="edge">
<title>4&#45;&gt;33</title>
<path fill="none" stroke="black" stroke-dasharray="5,2" d="M609.07,-162.5C627.08,-152.08 651.55,-137.92 671.28,-126.51"/>
<polygon fill="black" stroke="black" points="673.06,-129.52 679.96,-121.49 669.55,-123.46 673.06,-129.52"/>
</g>
<!-- 35 -->
<g id="node18" class="node">
<title>35</title>
<ellipse fill="none" stroke="black" cx="819" cy="-106" rx="48.99" ry="18"/>
<text text-anchor="middle" x="819" y="-102.3" font-family="Times,serif" font-size="14.00">La35 (a)</text>
</g>
<!-- 4&#45;&gt;35 -->
<g id="edge16" class="edge">
<title>4&#45;&gt;35</title>
<path fill="none" stroke="black" stroke-dasharray="1,5" d="M620.72,-166.06C661.64,-153.87 727.91,-134.13 772.44,-120.87"/>
<polygon fill="black" stroke="black" points="773.57,-124.19 782.15,-117.98 771.57,-117.48 773.57,-124.19"/>
</g>
<!-- 38 -->
<g id="node20" class="node">
<title>38</title>
<ellipse fill="none" stroke="black" cx="938" cy="-106" rx="52.79" ry="18"/>
<text text-anchor="middle" x="938" y="-102.3" font-family="Times,serif" font-size="14.00">M111 (a)</text>
</g>
<!-- 4&#45;&gt;38 -->
<g id="edge18" class="edge">
<title>4&#45;&gt;38</title>
<path fill="none" stroke="black" stroke-dasharray="1,5" d="M619.7,-165.73C627.03,-163.64 634.73,-161.62 642,-160 745.15,-137.09 773.7,-146.22 877,-124 881.17,-123.1 885.48,-122.09 889.79,-121.01"/>
<polygon fill="black" stroke="black" points="890.98,-124.31 899.78,-118.41 889.22,-117.54 890.98,-124.31"/>
</g>
<!-- 5 -->
<g id="node4" class="node">
<title>5</title>
<ellipse fill="none" stroke="black" cx="694" cy="-178" rx="42.79" ry="18"/>
<text text-anchor="middle" x="694" y="-174.3" font-family="Times,serif" font-size="14.00">La2 (a)</text>
</g>
<!-- 10 -->
<g id="node5" class="node">
<title>10</title>
<ellipse fill="none" stroke="black" cx="805" cy="-178" rx="50.09" ry="18"/>
<text text-anchor="middle" x="805" y="-174.3" font-family="Times,serif" font-size="14.00">V560 (a)</text>
</g>
<!-- 37 -->
<g id="node19" class="node">
<title>37</title>
<ellipse fill="none" stroke="black" cx="1065" cy="-106" rx="55.79" ry="18"/>
<text text-anchor="middle" x="1065" y="-102.3" font-family="Times,serif" font-size="14.00">V1920 (a)</text>
</g>
<!-- 10&#45;&gt;37 -->
<g id="edge17" class="edge">
<title>10&#45;&gt;37</title>
<path fill="none" stroke="black" stroke-dasharray="5,2" d="M842.73,-165.99C849.79,-163.97 857.12,-161.9 864,-160 878.41,-156.02 958.36,-134.99 1012.98,-120.65"/>
<polygon fill="black" stroke="black" points="1014.08,-123.98 1022.87,-118.06 1012.3,-117.21 1014.08,-123.98"/>
</g>
<!-- 14 -->
<g id="node7" class="node">
<title>14</title>
<ellipse fill="none" stroke="black" cx="917" cy="-178" rx="44.39" ry="18"/>
<text text-anchor="middle" x="917" y="-174.3" font-family="Times,serif" font-size="14.00">A25 (a)</text>
</g>
<!-- 30 -->
<g id="node14" class="node">
<title>30</title>
<ellipse fill="none" stroke="black" cx="1183" cy="-106" rx="44.39" ry="18"/>
<text text-anchor="middle" x="1183" y="-102.3" font-family="Times,serif" font-size="14.00">S32 (a)</text>
</g>
<!-- 14&#45;&gt;30 -->
<g id="edge12" class="edge">
<title>14&#45;&gt;30</title>
<path fill="none" stroke="black" stroke-dasharray="5,2" d="M949.94,-165.93C956.55,-163.85 963.47,-161.78 970,-160 1040.33,-140.85 1059.67,-143.15 1130,-124 1133.37,-123.08 1136.84,-122.09 1140.31,-121.05"/>
<polygon fill="black" stroke="black" points="1141.52,-124.34 1150.06,-118.07 1139.47,-117.65 1141.52,-124.34"/>
</g>
<!-- 34 -->
<g id="node17" class="node">
<title>34</title>
<ellipse fill="none" stroke="black" cx="1289" cy="-106" rx="44.39" ry="18"/>
<text text-anchor="middle" x="1289" y="-102.3" font-family="Times,serif" font-size="14.00">P01 (a)</text>
</g>
<!-- 14&#45;&gt;34 -->
<g id="edge15" class="edge">
<title>14&#45;&gt;34</title>
<path fill="none" stroke="black" stroke-dasharray="5,2" d="M949.26,-165.66C956.05,-163.55 963.21,-161.53 970,-160 1086.36,-133.68 1119.64,-150.32 1236,-124 1239.61,-123.18 1243.32,-122.23 1247.02,-121.2"/>
<polygon fill="black" stroke="black" points="1248.13,-124.53 1256.74,-118.34 1246.15,-117.81 1248.13,-124.53"/>
</g>
<!-- 16 -->
<g id="node8" class="node">
<title>16</title>
<ellipse fill="none" stroke="black" cx="861" cy="-251" rx="53.89" ry="18"/>
<text text-anchor="middle" x="861" y="-247.3" font-family="Times,serif" font-size="14.00">aBase (a)</text>
</g>
<!-- 16&#45;&gt;2 -->
<g id="edge1" class="edge">
<title>16&#45;&gt;2</title>
<path fill="none" stroke="black" d="M811.26,-243.89C745.53,-235.39 626.32,-218.45 526,-196 521.9,-195.08 517.67,-194.05 513.44,-192.95"/>
<polygon fill="black" stroke="black" points="514.21,-189.53 503.65,-190.3 512.39,-196.29 514.21,-189.53"/>
</g>
<!-- 16&#45;&gt;4 -->
<g id="edge2" class="edge">
<title>16&#45;&gt;4</title>
<path fill="none" stroke="black" stroke-dasharray="5,2" d="M818.06,-239.99C773.8,-229.54 702.87,-212.42 642,-196 638.23,-194.98 634.34,-193.9 630.43,-192.8"/>
<polygon fill="black" stroke="black" points="631.33,-189.42 620.75,-190.03 629.4,-196.15 631.33,-189.42"/>
</g>
<!-- 16&#45;&gt;5 -->
<g id="edge3" class="edge">
<title>16&#45;&gt;5</title>
<path fill="none" stroke="black" stroke-width="2" d="M828.8,-236.31C801.3,-224.62 761.67,-207.77 732.49,-195.36"/>
<polygon fill="black" stroke="black" stroke-width="2" points="733.6,-192.03 723.03,-191.34 730.86,-198.48 733.6,-192.03"/>
</g>
<!-- 16&#45;&gt;10 -->
<g id="edge4" class="edge">
<title>16&#45;&gt;10</title>
<path fill="none" stroke="black" stroke-width="2" d="M847.73,-233.17C840.82,-224.42 832.25,-213.55 824.6,-203.85"/>
<polygon fill="black" stroke="black" stroke-width="2" points="827.12,-201.39 818.18,-195.71 821.62,-205.72 827.12,-201.39"/>
</g>
<!-- 16&#45;&gt;14 -->
<g id="edge6" class="edge">
<title>16&#45;&gt;14</title>
<path fill="none" stroke="black" stroke-dasharray="5,2" d="M874.27,-233.17C881.18,-224.42 889.75,-213.55 897.4,-203.85"/>
<polygon fill="black" stroke="black" points="900.38,-205.72 903.82,-195.71 894.88,-201.39 900.38,-205.72"/>
</g>
<!-- 26 -->
<g id="node12" class="node">
<title>26</title>
<ellipse fill="none" stroke="black" cx="1035" cy="-178" rx="55.79" ry="18"/>
<text text-anchor="middle" x="1035" y="-174.3" font-family="Times,serif" font-size="14.00">V2036 (a)</text>
</g>
<!-- 16&#45;&gt;26 -->
<g id="edge10" class="edge">
<title>16&#45;&gt;26</title>
<path fill="none" stroke="black" d="M893.73,-236.65C921.62,-225.26 961.91,-208.83 992.33,-196.41"/>
<polygon fill="black" stroke="black" points="993.89,-199.55 1001.83,-192.54 991.25,-193.07 993.89,-199.55"/>
</g>
<!-- 32 -->
<g id="node15" class="node">
<title>32</title>
<ellipse fill="none" stroke="black" cx="1162" cy="-178" rx="52.79" ry="18"/>
<text text-anchor="middle" x="1162" y="-174.3" font-family="Times,serif" font-size="14.00">M136 (a)</text>
</g>
<!-- 16&#45;&gt;32 -->
<g id="edge13" class="edge">
<title>16&#45;&gt;32</title>
<path fill="none" stroke="black" stroke-width="2" d="M905.19,-240.64C953.27,-230.32 1032.32,-212.92 1100,-196 1104.14,-194.96 1108.43,-193.86 1112.73,-192.73"/>
<polygon fill="black" stroke="black" stroke-width="2" points="1113.95,-196.02 1122.71,-190.06 1112.15,-189.26 1113.95,-196.02"/>
</g>
<!-- 42 -->
<g id="node21" class="node">
<title>42</title>
<ellipse fill="none" stroke="black" cx="1283" cy="-178" rx="50.09" ry="18"/>
<text text-anchor="middle" x="1283" y="-174.3" font-family="Times,serif" font-size="14.00">Patm (a)</text>
</g>
<!-- 16&#45;&gt;42 -->
<g id="edge19" class="edge">
<title>16&#45;&gt;42</title>
<path fill="none" stroke="black" d="M911.59,-244.63C982.09,-236.65 1113.65,-220 1224,-196 1228.1,-195.11 1232.34,-194.09 1236.57,-193"/>
<polygon fill="black" stroke="black" points="1237.62,-196.34 1246.37,-190.37 1235.8,-189.58 1237.62,-196.34"/>
</g>
<!-- 24 -->
<g id="node11" class="node">
<title>24</title>
<ellipse fill="none" stroke="black" cx="938" cy="-34" rx="50.09" ry="18"/>
<text text-anchor="middle" x="938" y="-30.3" font-family="Times,serif" font-size="14.00">A336 (a)</text>
</g>
<!-- 38&#45;&gt;24 -->
<g id="edge9" class="edge">
<title>38&#45;&gt;24</title>
<path fill="none" stroke="black" stroke-dasharray="5,2" d="M938,-87.7C938,-79.98 938,-70.71 938,-62.11"/>
<polygon fill="black" stroke="black" points="941.5,-62.1 938,-52.1 934.5,-62.1 941.5,-62.1"/>
</g>
</g>
</svg>
