<?xml version="1.0" encoding="UTF-8" standalone="no"?>
<!DOCTYPE svg PUBLIC "-//W3C//DTD SVG 1.1//EN"
 "http://www.w3.org/Graphics/SVG/1.1/DTD/svg11.dtd">
<!-- Generated by graphviz version 2.43.0 (0)
 -->
<!-- Title: textual_flow_diagram Pages: 1 -->
<svg width="1625pt" height="390pt"
 viewBox="0.00 0.00 1625.00 390.00" xmlns="http://www.w3.org/2000/svg" xmlns:xlink="http://www.w3.org/1999/xlink">
<g id="graph0" class="graph" transform="scale(1 1) rotate(0) translate(4 386)">
<title>textual_flow_diagram</title>
<polygon fill="white" stroke="transparent" points="-4,4 -4,-386 1621,-386 1621,4 -4,4"/>
<g id="clust1" class="cluster">
<title>cluster_legend</title>
<polygon fill="none" stroke="black" points="8,-320 8,-374 182,-374 182,-320 8,-320"/>
</g>
<g id="clust2" class="cluster">
<title>cluster_plot</title>
</g>
<!-- label -->
<g id="node1" class="node">
<title>label</title>
<text text-anchor="middle" x="95" y="-350.8" font-family="Times,serif" font-size="14.00">adstag1.3.32U20, b</text>
<text text-anchor="middle" x="95" y="-335.8" font-family="Times,serif" font-size="14.00">Con = 5</text>
</g>
<!-- 1 -->
<g id="node2" class="node">
<title>1</title>
<ellipse fill="none" stroke="black" cx="614" cy="-107" rx="44.39" ry="18"/>
<text text-anchor="middle" x="614" y="-103.3" font-family="Times,serif" font-size="14.00">P74 (b)</text>
</g>
<!-- 2 -->
<g id="node3" class="node">
<title>2</title>
<ellipse fill="none" stroke="black" cx="242" cy="-190" rx="44.39" ry="18"/>
<text text-anchor="middle" x="242" y="-186.3" font-family="Times,serif" font-size="14.00">S32 (b)</text>
</g>
<!-- 4 -->
<g id="node4" class="node">
<title>4</title>
<ellipse fill="none" stroke="black" cx="372" cy="-107" rx="55.79" ry="18"/>
<text text-anchor="middle" x="372" y="-103.3" font-family="Times,serif" font-size="14.00">V1639 (b)</text>
</g>
<!-- 7 -->
<g id="node5" class="node">
<title>7</title>
<ellipse fill="none" stroke="black" cx="726" cy="-107" rx="50.09" ry="18"/>
<text text-anchor="middle" x="726" y="-103.3" font-family="Times,serif" font-size="14.00">A116 (b)</text>
</g>
<!-- 8 -->
<g id="node6" class="node">
<title>8</title>
<ellipse fill="none" stroke="black" cx="254" cy="-34" rx="55.79" ry="18"/>
<text text-anchor="middle" x="254" y="-30.3" font-family="Times,serif" font-size="14.00">V1920 (b)</text>
</g>
<!-- 9 -->
<g id="node7" class="node">
<title>9</title>
<ellipse fill="none" stroke="black" cx="354" cy="-190" rx="50.09" ry="18"/>
<text text-anchor="middle" x="354" y="-186.3" font-family="Times,serif" font-size="14.00">Patm (b)</text>
</g>
<!-- 39 -->
<g id="node26" class="node">
<title>39</title>
<ellipse fill="none" stroke="black" cx="248" cy="-107" rx="50.09" ry="18"/>
<text text-anchor="middle" x="248" y="-103.3" font-family="Times,serif" font-size="14.00">V560 (b)</text>
</g>
<!-- 9&#45;&gt;39 -->
<g id="edge25" class="edge">
<title>9&#45;&gt;39</title>
<path fill="none" stroke="black" stroke-width="2" d="M333.56,-173.38C317.43,-161.06 294.73,-143.71 276.76,-129.98"/>
<polygon fill="black" stroke="black" stroke-width="2" points="278.45,-126.86 268.38,-123.57 274.2,-132.42 278.45,-126.86"/>
<text text-anchor="middle" x="310.5" y="-146" font-family="Times,serif" font-size="10.00">2</text>
</g>
<!-- 11 -->
<g id="node8" class="node">
<title>11</title>
<ellipse fill="none" stroke="black" cx="472" cy="-190" rx="50.09" ry="18"/>
<text text-anchor="middle" x="472" y="-186.3" font-family="Times,serif" font-size="14.00">V566 (b)</text>
</g>
<!-- 11&#45;&gt;4 -->
<g id="edge3" class="edge">
<title>11&#45;&gt;4</title>
<path fill="none" stroke="black" stroke-dasharray="1,5" d="M452.72,-173.38C437.7,-161.21 416.63,-144.15 399.79,-130.51"/>
<polygon fill="black" stroke="black" points="401.88,-127.7 391.91,-124.12 397.47,-133.14 401.88,-127.7"/>
</g>
<!-- 12 -->
<g id="node9" class="node">
<title>12</title>
<ellipse fill="none" stroke="black" cx="843" cy="-107" rx="49.29" ry="18"/>
<text text-anchor="middle" x="843" y="-103.3" font-family="Times,serif" font-size="14.00">La35 (b)</text>
</g>
<!-- 13 -->
<g id="node10" class="node">
<title>13</title>
<ellipse fill="none" stroke="black" cx="590" cy="-273" rx="44.39" ry="18"/>
<text text-anchor="middle" x="590" y="-269.3" font-family="Times,serif" font-size="14.00">A25 (b)</text>
</g>
<!-- 13&#45;&gt;2 -->
<g id="edge2" class="edge">
<title>13&#45;&gt;2</title>
<path fill="none" stroke="black" stroke-dasharray="5,2" d="M550.58,-264.71C493.73,-253.91 385.61,-232.3 295,-208 291.63,-207.1 288.16,-206.11 284.68,-205.08"/>
<polygon fill="black" stroke="black" points="285.52,-201.68 274.93,-202.11 283.48,-208.37 285.52,-201.68"/>
</g>
<!-- 13&#45;&gt;9 -->
<g id="edge6" class="edge">
<title>13&#45;&gt;9</title>
<path fill="none" stroke="black" stroke-dasharray="1,5" d="M557.19,-260.74C515.89,-246.56 444.78,-222.16 398.58,-206.3"/>
<polygon fill="black" stroke="black" points="399.43,-202.89 388.84,-202.96 397.16,-209.51 399.43,-202.89"/>
</g>
<!-- 13&#45;&gt;11 -->
<g id="edge7" class="edge">
<title>13&#45;&gt;11</title>
<path fill="none" stroke="black" stroke-dasharray="5,2" d="M568.36,-257.14C549.96,-244.52 523.33,-226.24 502.73,-212.09"/>
<polygon fill="black" stroke="black" points="504.53,-209.09 494.31,-206.31 500.57,-214.86 504.53,-209.09"/>
</g>
<!-- 18 -->
<g id="node14" class="node">
<title>18</title>
<ellipse fill="none" stroke="black" cx="590" cy="-190" rx="50.09" ry="18"/>
<text text-anchor="middle" x="590" y="-186.3" font-family="Times,serif" font-size="14.00">S249 (b)</text>
</g>
<!-- 13&#45;&gt;18 -->
<g id="edge13" class="edge">
<title>13&#45;&gt;18</title>
<path fill="none" stroke="black" stroke-dasharray="5,2" d="M590,-254.82C590,-244.19 590,-230.31 590,-218.2"/>
<polygon fill="black" stroke="black" points="593.5,-218.15 590,-208.15 586.5,-218.15 593.5,-218.15"/>
<text text-anchor="middle" x="593.5" y="-229" font-family="Times,serif" font-size="10.00">2</text>
</g>
<!-- 25 -->
<g id="node17" class="node">
<title>25</title>
<ellipse fill="none" stroke="black" cx="702" cy="-190" rx="44.39" ry="18"/>
<text text-anchor="middle" x="702" y="-186.3" font-family="Times,serif" font-size="14.00">P01 (b)</text>
</g>
<!-- 13&#45;&gt;25 -->
<g id="edge16" class="edge">
<title>13&#45;&gt;25</title>
<path fill="none" stroke="black" stroke-dasharray="5,2" d="M610.8,-256.95C628.33,-244.28 653.58,-226.02 673.08,-211.92"/>
<polygon fill="black" stroke="black" points="675.26,-214.66 681.31,-205.97 671.15,-208.99 675.26,-214.66"/>
</g>
<!-- 31 -->
<g id="node20" class="node">
<title>31</title>
<ellipse fill="none" stroke="black" cx="960" cy="-190" rx="49.29" ry="18"/>
<text text-anchor="middle" x="960" y="-186.3" font-family="Times,serif" font-size="14.00">La22 (b)</text>
</g>
<!-- 13&#45;&gt;31 -->
<g id="edge19" class="edge">
<title>13&#45;&gt;31</title>
<path fill="none" stroke="black" stroke-dasharray="1,5" d="M628.2,-263.64C695.13,-248.99 833.57,-218.68 908.74,-202.22"/>
<polygon fill="black" stroke="black" points="909.9,-205.55 918.92,-199.99 908.4,-198.71 909.9,-205.55"/>
<text text-anchor="middle" x="800.5" y="-229" font-family="Times,serif" font-size="10.00">2</text>
</g>
<!-- 32 -->
<g id="node21" class="node">
<title>32</title>
<ellipse fill="none" stroke="black" cx="1105" cy="-190" rx="50.89" ry="18"/>
<text text-anchor="middle" x="1105" y="-186.3" font-family="Times,serif" font-size="14.00">Neap (b)</text>
</g>
<!-- 13&#45;&gt;32 -->
<g id="edge20" class="edge">
<title>13&#45;&gt;32</title>
<path fill="none" stroke="black" stroke-width="2" d="M631.42,-266.43C707.94,-256.01 876.58,-232.38 1018,-208 1029.03,-206.1 1040.82,-203.91 1052.04,-201.74"/>
<polygon fill="black" stroke="black" stroke-width="2" points="1053,-205.12 1062.15,-199.77 1051.66,-198.25 1053,-205.12"/>
<text text-anchor="middle" x="903.5" y="-229" font-family="Times,serif" font-size="10.00">3</text>
</g>
<!-- 14 -->
<g id="node11" class="node">
<title>14</title>
<ellipse fill="none" stroke="black" cx="1081" cy="-34" rx="50.09" ry="18"/>
<text text-anchor="middle" x="1081" y="-30.3" font-family="Times,serif" font-size="14.00">A336 (b)</text>
</g>
<!-- 15 -->
<g id="node12" class="node">
<title>15</title>
<ellipse fill="none" stroke="black" cx="1386" cy="-273" rx="53.09" ry="18"/>
<text text-anchor="middle" x="1386" y="-269.3" font-family="Times,serif" font-size="14.00">M118 (b)</text>
</g>
<!-- 22 -->
<g id="node15" class="node">
<title>22</title>
<ellipse fill="none" stroke="black" cx="1386" cy="-190" rx="50.09" ry="18"/>
<text text-anchor="middle" x="1386" y="-186.3" font-family="Times,serif" font-size="14.00">V569 (b)</text>
</g>
<!-- 15&#45;&gt;22 -->
<g id="edge14" class="edge">
<title>15&#45;&gt;22</title>
<path fill="none" stroke="black" stroke-dasharray="5,2" d="M1386,-254.82C1386,-244.19 1386,-230.31 1386,-218.2"/>
<polygon fill="black" stroke="black" points="1389.5,-218.15 1386,-208.15 1382.5,-218.15 1389.5,-218.15"/>
<text text-anchor="middle" x="1389.5" y="-229" font-family="Times,serif" font-size="10.00">4</text>
</g>
<!-- 16 -->
<g id="node13" class="node">
<title>16</title>
<ellipse fill="none" stroke="black" cx="499" cy="-107" rx="53.09" ry="18"/>
<text text-anchor="middle" x="499" y="-103.3" font-family="Times,serif" font-size="14.00">LaSM (b)</text>
</g>
<!-- 23 -->
<g id="node16" class="node">
<title>23</title>
<ellipse fill="none" stroke="black" cx="499" cy="-34" rx="44.69" ry="18"/>
<text text-anchor="middle" x="499" y="-30.3" font-family="Times,serif" font-size="14.00">B39 (b)</text>
</g>
<!-- 16&#45;&gt;23 -->
<g id="edge15" class="edge">
<title>16&#45;&gt;23</title>
<path fill="none" stroke="black" stroke-dasharray="5,2" d="M499,-88.81C499,-80.79 499,-71.05 499,-62.07"/>
<polygon fill="black" stroke="black" points="502.5,-62.03 499,-52.03 495.5,-62.03 502.5,-62.03"/>
</g>
<!-- 25&#45;&gt;16 -->
<g id="edge12" class="edge">
<title>25&#45;&gt;16</title>
<path fill="none" stroke="black" stroke-dasharray="5,2" d="M671.61,-176.87C637.04,-163.08 580.37,-140.47 541.45,-124.94"/>
<polygon fill="black" stroke="black" points="542.55,-121.61 531.96,-121.15 539.95,-128.11 542.55,-121.61"/>
<text text-anchor="middle" x="615.5" y="-146" font-family="Times,serif" font-size="10.00">2</text>
</g>
<!-- 27 -->
<g id="node18" class="node">
<title>27</title>
<ellipse fill="none" stroke="black" cx="960" cy="-107" rx="50.09" ry="18"/>
<text text-anchor="middle" x="960" y="-103.3" font-family="Times,serif" font-size="14.00">V565 (b)</text>
</g>
<!-- 28 -->
<g id="node19" class="node">
<title>28</title>
<ellipse fill="none" stroke="black" cx="1081" cy="-107" rx="53.09" ry="18"/>
<text text-anchor="middle" x="1081" y="-103.3" font-family="Times,serif" font-size="14.00">M111 (b)</text>
</g>
<!-- 28&#45;&gt;14 -->
<g id="edge10" class="edge">
<title>28&#45;&gt;14</title>
<path fill="none" stroke="black" stroke-dasharray="5,2" d="M1081,-88.81C1081,-80.79 1081,-71.05 1081,-62.07"/>
<polygon fill="black" stroke="black" points="1084.5,-62.03 1081,-52.03 1077.5,-62.03 1084.5,-62.03"/>
</g>
<!-- 31&#45;&gt;1 -->
<g id="edge1" class="edge">
<title>31&#45;&gt;1</title>
<path fill="none" stroke="black" stroke-dasharray="1,5" d="M916.99,-180.94C859.6,-169.88 754.99,-148.66 667,-125 663.63,-124.09 660.16,-123.11 656.68,-122.08"/>
<polygon fill="black" stroke="black" points="657.52,-118.67 646.93,-119.1 655.48,-125.37 657.52,-118.67"/>
</g>
<!-- 31&#45;&gt;7 -->
<g id="edge4" class="edge">
<title>31&#45;&gt;7</title>
<path fill="none" stroke="black" stroke-dasharray="5,2" d="M925.47,-177.05C884.26,-162.78 815.25,-138.9 770.18,-123.29"/>
<polygon fill="black" stroke="black" points="771.26,-119.96 760.67,-120 768.97,-126.58 771.26,-119.96"/>
</g>
<!-- 31&#45;&gt;12 -->
<g id="edge8" class="edge">
<title>31&#45;&gt;12</title>
<path fill="none" stroke="black" stroke-dasharray="1,5" d="M937.99,-173.76C919.69,-161.09 893.45,-142.93 873.19,-128.9"/>
<polygon fill="black" stroke="black" points="875.12,-125.98 864.91,-123.17 871.14,-131.74 875.12,-125.98"/>
</g>
<!-- 31&#45;&gt;27 -->
<g id="edge17" class="edge">
<title>31&#45;&gt;27</title>
<path fill="none" stroke="black" stroke-dasharray="5,2" d="M960,-171.82C960,-161.19 960,-147.31 960,-135.2"/>
<polygon fill="black" stroke="black" points="963.5,-135.15 960,-125.15 956.5,-135.15 963.5,-135.15"/>
</g>
<!-- 31&#45;&gt;28 -->
<g id="edge18" class="edge">
<title>31&#45;&gt;28</title>
<path fill="none" stroke="black" stroke-dasharray="1,5" d="M982.48,-173.95C1001.25,-161.38 1028.25,-143.31 1049.24,-129.26"/>
<polygon fill="black" stroke="black" points="1051.46,-131.99 1057.82,-123.52 1047.56,-126.17 1051.46,-131.99"/>
</g>
<!-- 33 -->
<g id="node22" class="node">
<title>33</title>
<ellipse fill="none" stroke="black" cx="1200" cy="-107" rx="47.39" ry="18"/>
<text text-anchor="middle" x="1200" y="-103.3" font-family="Times,serif" font-size="14.00">Bodl (b)</text>
</g>
<!-- 31&#45;&gt;33 -->
<g id="edge21" class="edge">
<title>31&#45;&gt;33</title>
<path fill="none" stroke="black" stroke-dasharray="5,2" d="M994.9,-177.22C1037.62,-162.8 1110,-138.38 1156.36,-122.73"/>
<polygon fill="black" stroke="black" points="1157.48,-126.04 1165.84,-119.53 1155.24,-119.41 1157.48,-126.04"/>
</g>
<!-- 35 -->
<g id="node23" class="node">
<title>35</title>
<ellipse fill="none" stroke="black" cx="1309" cy="-107" rx="43.59" ry="18"/>
<text text-anchor="middle" x="1309" y="-103.3" font-family="Times,serif" font-size="14.00">La2 (b)</text>
</g>
<!-- 31&#45;&gt;35 -->
<g id="edge22" class="edge">
<title>31&#45;&gt;35</title>
<path fill="none" stroke="black" d="M996.93,-178.03C1032.16,-167.87 1086.84,-152.88 1135,-143 1188.26,-132.07 1203.05,-137.34 1256,-125 1259.6,-124.16 1263.31,-123.19 1267.01,-122.15"/>
<polygon fill="black" stroke="black" points="1268.13,-125.47 1276.72,-119.27 1266.14,-118.76 1268.13,-125.47"/>
<text text-anchor="middle" x="1138.5" y="-146" font-family="Times,serif" font-size="10.00">2</text>
</g>
<!-- 36 -->
<g id="node24" class="node">
<title>36</title>
<ellipse fill="none" stroke="black" cx="1421" cy="-107" rx="50.09" ry="18"/>
<text text-anchor="middle" x="1421" y="-103.3" font-family="Times,serif" font-size="14.00">V571 (b)</text>
</g>
<!-- 31&#45;&gt;36 -->
<g id="edge23" class="edge">
<title>31&#45;&gt;36</title>
<path fill="none" stroke="black" stroke-dasharray="1,5" d="M1001.86,-180.19C1015.58,-177.42 1030.91,-174.45 1045,-172 1185.32,-147.58 1222.82,-155.23 1362,-125 1366.1,-124.11 1370.34,-123.09 1374.57,-122"/>
<polygon fill="black" stroke="black" points="1375.62,-125.35 1384.37,-119.37 1373.8,-118.59 1375.62,-125.35"/>
</g>
<!-- 38 -->
<g id="node25" class="node">
<title>38</title>
<ellipse fill="none" stroke="black" cx="1545" cy="-107" rx="55.79" ry="18"/>
<text text-anchor="middle" x="1545" y="-103.3" font-family="Times,serif" font-size="14.00">V1629 (b)</text>
</g>
<!-- 32&#45;&gt;38 -->
<g id="edge24" class="edge">
<title>32&#45;&gt;38</title>
<path fill="none" stroke="black" stroke-dasharray="1,5" d="M1151.14,-182.44C1222.15,-172.06 1362.34,-150.38 1480,-125 1484.6,-124.01 1489.37,-122.9 1494.14,-121.75"/>
<polygon fill="black" stroke="black" points="1495.01,-125.14 1503.87,-119.33 1493.32,-118.35 1495.01,-125.14"/>
</g>
<!-- 42 -->
<g id="node27" class="node">
<title>42</title>
<ellipse fill="none" stroke="black" cx="1545" cy="-34" rx="50.09" ry="18"/>
<text text-anchor="middle" x="1545" y="-30.3" font-family="Times,serif" font-size="14.00">V536 (b)</text>
</g>
<!-- 38&#45;&gt;42 -->
<g id="edge26" class="edge">
<title>38&#45;&gt;42</title>
<path fill="none" stroke="black" stroke-dasharray="5,2" d="M1545,-88.81C1545,-80.79 1545,-71.05 1545,-62.07"/>
<polygon fill="black" stroke="black" points="1548.5,-62.03 1545,-52.03 1541.5,-62.03 1548.5,-62.03"/>
</g>
<!-- 39&#45;&gt;8 -->
<g id="edge5" class="edge">
<title>39&#45;&gt;8</title>
<path fill="none" stroke="black" stroke-dasharray="5,2" d="M249.45,-88.81C250.13,-80.79 250.95,-71.05 251.71,-62.07"/>
<polygon fill="black" stroke="black" points="255.21,-62.29 252.56,-52.03 248.23,-61.7 255.21,-62.29"/>
</g>
<!-- 21 -->
<g id="node28" class="node">
<title>21</title>
<ellipse fill="none" stroke="blue" stroke-dasharray="5,2" cx="1386" cy="-347" rx="46.59" ry="18"/>
<text text-anchor="middle" x="1386" y="-343.3" font-family="Times,serif" font-size="14.00">Taur (a)</text>
</g>
<!-- 21&#45;&gt;15 -->
<g id="edge11" class="edge">
<title>21&#45;&gt;15</title>
<path fill="none" stroke="blue" stroke-dasharray="5,2" d="M1386,-328.94C1386,-320.81 1386,-310.88 1386,-301.7"/>
<polygon fill="blue" stroke="blue" points="1389.5,-301.44 1386,-291.44 1382.5,-301.44 1389.5,-301.44"/>
</g>
<!-- 37 -->
<g id="node29" class="node">
<title>37</title>
<ellipse fill="none" stroke="blue" stroke-dasharray="5,2" cx="590" cy="-347" rx="53.89" ry="18"/>
<text text-anchor="middle" x="590" y="-343.3" font-family="Times,serif" font-size="14.00">aBase (a)</text>
</g>
<!-- 37&#45;&gt;13 -->
<g id="edge9" class="edge">
<title>37&#45;&gt;13</title>
<path fill="none" stroke="blue" stroke-dasharray="5,2" d="M590,-328.94C590,-320.81 590,-310.88 590,-301.7"/>
<polygon fill="blue" stroke="blue" points="593.5,-301.44 590,-291.44 586.5,-301.44 593.5,-301.44"/>
</g>
</g>
</svg>
