<?xml version="1.0" encoding="UTF-8" standalone="no"?>
<!DOCTYPE svg PUBLIC "-//W3C//DTD SVG 1.1//EN"
 "http://www.w3.org/Graphics/SVG/1.1/DTD/svg11.dtd">
<!-- Generated by graphviz version 2.43.0 (0)
 -->
<!-- Title: textual_flow_diagram Pages: 1 -->
<svg width="450pt" height="366pt"
 viewBox="0.00 0.00 450.00 366.00" xmlns="http://www.w3.org/2000/svg" xmlns:xlink="http://www.w3.org/1999/xlink">
<g id="graph0" class="graph" transform="scale(1 1) rotate(0) translate(4 362)">
<title>textual_flow_diagram</title>
<polygon fill="white" stroke="transparent" points="-4,4 -4,-362 446,-362 446,4 -4,4"/>
<g id="clust1" class="cluster">
<title>cluster_legend</title>
<polygon fill="none" stroke="black" points="8,-296 8,-350 186,-350 186,-296 8,-296"/>
</g>
<g id="clust2" class="cluster">
<title>cluster_plot</title>
</g>
<!-- label -->
<g id="node1" class="node">
<title>label</title>
<text text-anchor="middle" x="97" y="-326.8" font-family="Times,serif" font-size="14.00">adstag1.3.22U4&#45;6, e</text>
<text text-anchor="middle" x="97" y="-311.8" font-family="Times,serif" font-size="14.00">Con = 5</text>
</g>
<!-- 1 -->
<g id="node2" class="node">
<title>1</title>
<ellipse fill="none" stroke="black" cx="314" cy="-106" rx="46.59" ry="18"/>
<text text-anchor="middle" x="314" y="-102.3" font-family="Times,serif" font-size="14.00">Taur (e)</text>
</g>
<!-- 12 -->
<g id="node4" class="node">
<title>12</title>
<ellipse fill="none" stroke="black" cx="255" cy="-34" rx="52.79" ry="18"/>
<text text-anchor="middle" x="255" y="-30.3" font-family="Times,serif" font-size="14.00">M118 (e)</text>
</g>
<!-- 1&#45;&gt;12 -->
<g id="edge3" class="edge">
<title>1&#45;&gt;12</title>
<path fill="none" stroke="black" stroke-dasharray="5,2" d="M300.32,-88.76C292.98,-80.06 283.78,-69.15 275.6,-59.43"/>
<polygon fill="black" stroke="black" points="278.14,-57.02 269.02,-51.63 272.79,-61.54 278.14,-57.02"/>
</g>
<!-- 27 -->
<g id="node6" class="node">
<title>27</title>
<ellipse fill="none" stroke="black" cx="376" cy="-34" rx="50.09" ry="18"/>
<text text-anchor="middle" x="376" y="-30.3" font-family="Times,serif" font-size="14.00">V569 (e)</text>
</g>
<!-- 1&#45;&gt;27 -->
<g id="edge5" class="edge">
<title>1&#45;&gt;27</title>
<path fill="none" stroke="black" stroke-dasharray="5,2" d="M328.38,-88.76C336.17,-79.97 345.95,-68.93 354.62,-59.14"/>
<polygon fill="black" stroke="black" points="357.26,-61.44 361.27,-51.63 352.02,-56.8 357.26,-61.44"/>
</g>
<!-- 3 -->
<g id="node3" class="node">
<title>3</title>
<ellipse fill="none" stroke="black" cx="314" cy="-178" rx="50.09" ry="18"/>
<text text-anchor="middle" x="314" y="-174.3" font-family="Times,serif" font-size="14.00">V568 (e)</text>
</g>
<!-- 3&#45;&gt;1 -->
<g id="edge1" class="edge">
<title>3&#45;&gt;1</title>
<path fill="none" stroke="black" stroke-dasharray="1,5" d="M314,-159.7C314,-151.98 314,-142.71 314,-134.11"/>
<polygon fill="black" stroke="black" points="317.5,-134.1 314,-124.1 310.5,-134.1 317.5,-134.1"/>
</g>
<!-- 19 -->
<g id="node5" class="node">
<title>19</title>
<ellipse fill="none" stroke="black" cx="314" cy="-250" rx="50.09" ry="18"/>
<text text-anchor="middle" x="314" y="-246.3" font-family="Times,serif" font-size="14.00">V536 (e)</text>
</g>
<!-- 19&#45;&gt;3 -->
<g id="edge2" class="edge">
<title>19&#45;&gt;3</title>
<path fill="none" stroke="black" stroke-dasharray="1,5" d="M314,-231.7C314,-223.98 314,-214.71 314,-206.11"/>
<polygon fill="black" stroke="black" points="317.5,-206.1 314,-196.1 310.5,-206.1 317.5,-206.1"/>
</g>
<!-- 0 -->
<g id="node7" class="node">
<title>0</title>
<ellipse fill="none" stroke="blue" stroke-dasharray="5,2" cx="314" cy="-323" rx="55.79" ry="18"/>
<text text-anchor="middle" x="314" y="-319.3" font-family="Times,serif" font-size="14.00">V1629 (d)</text>
</g>
<!-- 0&#45;&gt;19 -->
<g id="edge4" class="edge">
<title>0&#45;&gt;19</title>
<path fill="none" stroke="blue" stroke-dasharray="5,2" d="M314,-304.81C314,-296.79 314,-287.05 314,-278.07"/>
<polygon fill="blue" stroke="blue" points="317.5,-278.03 314,-268.03 310.5,-278.03 317.5,-278.03"/>
</g>
</g>
</svg>
