<?xml version="1.0" encoding="UTF-8" standalone="no"?>
<!DOCTYPE svg PUBLIC "-//W3C//DTD SVG 1.1//EN"
 "http://www.w3.org/Graphics/SVG/1.1/DTD/svg11.dtd">
<!-- Generated by graphviz version 2.43.0 (0)
 -->
<!-- Title: textual_flow_diagram Pages: 1 -->
<svg width="2159pt" height="453pt"
 viewBox="0.00 0.00 2159.00 453.00" xmlns="http://www.w3.org/2000/svg" xmlns:xlink="http://www.w3.org/1999/xlink">
<g id="graph0" class="graph" transform="scale(1 1) rotate(0) translate(4 449)">
<title>textual_flow_diagram</title>
<polygon fill="white" stroke="transparent" points="-4,4 -4,-449 2155,-449 2155,4 -4,4"/>
<g id="clust1" class="cluster">
<title>cluster_legend</title>
<polygon fill="none" stroke="black" points="8,-383 8,-437 182,-437 182,-383 8,-383"/>
</g>
<g id="clust2" class="cluster">
<title>cluster_plot</title>
</g>
<!-- label -->
<g id="node1" class="node">
<title>label</title>
<text text-anchor="middle" x="95" y="-413.8" font-family="Times,serif" font-size="14.00">adstag1.2.40U18, a</text>
<text text-anchor="middle" x="95" y="-398.8" font-family="Times,serif" font-size="14.00">Con = 5</text>
</g>
<!-- 0 -->
<g id="node2" class="node">
<title>0</title>
<ellipse fill="none" stroke="black" cx="1028" cy="-263" rx="52.79" ry="18"/>
<text text-anchor="middle" x="1028" y="-259.3" font-family="Times,serif" font-size="14.00">M111 (a)</text>
</g>
<!-- 3 -->
<g id="node4" class="node">
<title>3</title>
<ellipse fill="none" stroke="black" cx="1029" cy="-190" rx="50.09" ry="18"/>
<text text-anchor="middle" x="1029" y="-186.3" font-family="Times,serif" font-size="14.00">A336 (a)</text>
</g>
<!-- 0&#45;&gt;3 -->
<g id="edge3" class="edge">
<title>0&#45;&gt;3</title>
<path fill="none" stroke="black" stroke-dasharray="5,2" d="M1028.24,-244.81C1028.36,-236.79 1028.49,-227.05 1028.62,-218.07"/>
<polygon fill="black" stroke="black" points="1032.12,-218.08 1028.76,-208.03 1025.12,-217.98 1032.12,-218.08"/>
</g>
<!-- 1 -->
<g id="node3" class="node">
<title>1</title>
<ellipse fill="none" stroke="black" cx="479" cy="-263" rx="50.09" ry="18"/>
<text text-anchor="middle" x="479" y="-259.3" font-family="Times,serif" font-size="14.00">Patm (a)</text>
</g>
<!-- 4 -->
<g id="node5" class="node">
<title>4</title>
<ellipse fill="none" stroke="black" cx="1143" cy="-263" rx="44.39" ry="18"/>
<text text-anchor="middle" x="1143" y="-259.3" font-family="Times,serif" font-size="14.00">P74 (a)</text>
</g>
<!-- 5 -->
<g id="node6" class="node">
<title>5</title>
<ellipse fill="none" stroke="black" cx="240" cy="-263" rx="41.69" ry="18"/>
<text text-anchor="middle" x="240" y="-259.3" font-family="Times,serif" font-size="14.00">Est (a)</text>
</g>
<!-- 6 -->
<g id="node7" class="node">
<title>6</title>
<ellipse fill="none" stroke="black" cx="363" cy="-117" rx="46.59" ry="18"/>
<text text-anchor="middle" x="363" y="-113.3" font-family="Times,serif" font-size="14.00">Taur (a)</text>
</g>
<!-- 10 -->
<g id="node10" class="node">
<title>10</title>
<ellipse fill="none" stroke="black" cx="251" cy="-34" rx="52.79" ry="18"/>
<text text-anchor="middle" x="251" y="-30.3" font-family="Times,serif" font-size="14.00">M118 (a)</text>
</g>
<!-- 6&#45;&gt;10 -->
<g id="edge9" class="edge">
<title>6&#45;&gt;10</title>
<path fill="none" stroke="black" stroke-dasharray="5,2" d="M341.93,-100.76C324.71,-88.31 300.15,-70.55 280.89,-56.62"/>
<polygon fill="black" stroke="black" points="282.89,-53.74 272.74,-50.72 278.79,-59.42 282.89,-53.74"/>
</g>
<!-- 13 -->
<g id="node12" class="node">
<title>13</title>
<ellipse fill="none" stroke="black" cx="368" cy="-34" rx="46.29" ry="18"/>
<text text-anchor="middle" x="368" y="-30.3" font-family="Times,serif" font-size="14.00">Mon (a)</text>
</g>
<!-- 6&#45;&gt;13 -->
<g id="edge10" class="edge">
<title>6&#45;&gt;13</title>
<path fill="none" stroke="black" stroke-dasharray="1,5" d="M364.06,-98.82C364.72,-88.19 365.57,-74.31 366.32,-62.2"/>
<polygon fill="black" stroke="black" points="369.82,-62.35 366.94,-52.15 362.83,-61.92 369.82,-62.35"/>
<text text-anchor="middle" x="368.5" y="-73" font-family="Times,serif" font-size="10.00">2</text>
</g>
<!-- 29 -->
<g id="node26" class="node">
<title>29</title>
<ellipse fill="none" stroke="black" cx="482" cy="-34" rx="50.09" ry="18"/>
<text text-anchor="middle" x="482" y="-30.3" font-family="Times,serif" font-size="14.00">V569 (a)</text>
</g>
<!-- 6&#45;&gt;29 -->
<g id="edge24" class="edge">
<title>6&#45;&gt;29</title>
<path fill="none" stroke="black" stroke-dasharray="5,2" d="M385.1,-100.95C403.69,-88.3 430.46,-70.08 451.15,-56"/>
<polygon fill="black" stroke="black" points="453.31,-58.76 459.61,-50.24 449.37,-52.97 453.31,-58.76"/>
</g>
<!-- 7 -->
<g id="node8" class="node">
<title>7</title>
<ellipse fill="none" stroke="black" cx="254" cy="-336" rx="55.79" ry="18"/>
<text text-anchor="middle" x="254" y="-332.3" font-family="Times,serif" font-size="14.00">V1897 (a)</text>
</g>
<!-- 7&#45;&gt;5 -->
<g id="edge5" class="edge">
<title>7&#45;&gt;5</title>
<path fill="none" stroke="black" stroke-dasharray="1,5" d="M250.61,-317.81C249.03,-309.79 247.11,-300.05 245.34,-291.07"/>
<polygon fill="black" stroke="black" points="248.73,-290.16 243.36,-281.03 241.86,-291.52 248.73,-290.16"/>
</g>
<!-- 9 -->
<g id="node9" class="node">
<title>9</title>
<ellipse fill="none" stroke="black" cx="2091" cy="-263" rx="44.39" ry="18"/>
<text text-anchor="middle" x="2091" y="-259.3" font-family="Times,serif" font-size="14.00">B39 (a)</text>
</g>
<!-- 11 -->
<g id="node11" class="node">
<title>11</title>
<ellipse fill="none" stroke="black" cx="739" cy="-410" rx="53.89" ry="18"/>
<text text-anchor="middle" x="739" y="-406.3" font-family="Times,serif" font-size="14.00">aBase (a)</text>
</g>
<!-- 11&#45;&gt;7 -->
<g id="edge7" class="edge">
<title>11&#45;&gt;7</title>
<path fill="none" stroke="black" d="M687.59,-404.37C608.08,-396.73 450.72,-379.74 319,-354 314.31,-353.08 309.46,-352.02 304.61,-350.89"/>
<polygon fill="black" stroke="black" points="305.28,-347.45 294.74,-348.49 303.62,-354.25 305.28,-347.45"/>
</g>
<!-- 16 -->
<g id="node14" class="node">
<title>16</title>
<ellipse fill="none" stroke="black" cx="381" cy="-336" rx="52.79" ry="18"/>
<text text-anchor="middle" x="381" y="-332.3" font-family="Times,serif" font-size="14.00">M136 (a)</text>
</g>
<!-- 11&#45;&gt;16 -->
<g id="edge12" class="edge">
<title>11&#45;&gt;16</title>
<path fill="none" stroke="black" stroke-width="2" d="M691.33,-401.41C632.62,-391.77 529.99,-373.97 443,-354 438.66,-353 434.17,-351.91 429.68,-350.76"/>
<polygon fill="black" stroke="black" stroke-width="2" points="430.46,-347.35 419.9,-348.2 428.69,-354.12 430.46,-347.35"/>
</g>
<!-- 17 -->
<g id="node15" class="node">
<title>17</title>
<ellipse fill="none" stroke="black" cx="502" cy="-336" rx="50.09" ry="18"/>
<text text-anchor="middle" x="502" y="-332.3" font-family="Times,serif" font-size="14.00">Neap (a)</text>
</g>
<!-- 11&#45;&gt;17 -->
<g id="edge13" class="edge">
<title>11&#45;&gt;17</title>
<path fill="none" stroke="black" stroke-width="2" d="M700.39,-397.27C658.93,-384.68 593.05,-364.66 548.7,-351.19"/>
<polygon fill="black" stroke="black" stroke-width="2" points="549.61,-347.81 539.03,-348.25 547.58,-354.5 549.61,-347.81"/>
</g>
<!-- 19 -->
<g id="node17" class="node">
<title>19</title>
<ellipse fill="none" stroke="black" cx="613" cy="-336" rx="42.79" ry="18"/>
<text text-anchor="middle" x="613" y="-332.3" font-family="Times,serif" font-size="14.00">La2 (a)</text>
</g>
<!-- 11&#45;&gt;19 -->
<g id="edge15" class="edge">
<title>11&#45;&gt;19</title>
<path fill="none" stroke="black" stroke-width="2" d="M712.89,-394.08C693.55,-383.03 667.05,-367.89 646.21,-355.97"/>
<polygon fill="black" stroke="black" stroke-width="2" points="647.78,-352.84 637.36,-350.92 644.31,-358.92 647.78,-352.84"/>
</g>
<!-- 20 -->
<g id="node18" class="node">
<title>20</title>
<ellipse fill="none" stroke="black" cx="739" cy="-336" rx="64.99" ry="18"/>
<text text-anchor="middle" x="739" y="-332.3" font-family="Times,serif" font-size="14.00">Savile&#45;Η (a)</text>
</g>
<!-- 11&#45;&gt;20 -->
<g id="edge16" class="edge">
<title>11&#45;&gt;20</title>
<path fill="none" stroke="black" stroke-width="2" d="M739,-391.94C739,-383.81 739,-373.88 739,-364.7"/>
<polygon fill="black" stroke="black" stroke-width="2" points="742.5,-364.44 739,-354.44 735.5,-364.44 742.5,-364.44"/>
</g>
<!-- 22 -->
<g id="node20" class="node">
<title>22</title>
<ellipse fill="none" stroke="black" cx="866" cy="-336" rx="44.39" ry="18"/>
<text text-anchor="middle" x="866" y="-332.3" font-family="Times,serif" font-size="14.00">A25 (a)</text>
</g>
<!-- 11&#45;&gt;22 -->
<g id="edge18" class="edge">
<title>11&#45;&gt;22</title>
<path fill="none" stroke="black" stroke-dasharray="5,2" d="M765.31,-394.08C784.68,-383.1 811.17,-368.08 832.12,-356.21"/>
<polygon fill="black" stroke="black" points="834.04,-359.14 841.02,-351.16 830.59,-353.05 834.04,-359.14"/>
</g>
<!-- 26 -->
<g id="node23" class="node">
<title>26</title>
<ellipse fill="none" stroke="black" cx="1385" cy="-336" rx="48.99" ry="18"/>
<text text-anchor="middle" x="1385" y="-332.3" font-family="Times,serif" font-size="14.00">La22 (a)</text>
</g>
<!-- 11&#45;&gt;26 -->
<g id="edge21" class="edge">
<title>11&#45;&gt;26</title>
<path fill="none" stroke="black" stroke-dasharray="5,2" d="M789.42,-403.38C908.13,-390.15 1204.55,-357.11 1328.8,-343.26"/>
<polygon fill="black" stroke="black" points="1329.31,-346.73 1338.86,-342.14 1328.54,-339.77 1329.31,-346.73"/>
</g>
<!-- 36 -->
<g id="node31" class="node">
<title>36</title>
<ellipse fill="none" stroke="black" cx="1515" cy="-336" rx="44.69" ry="18"/>
<text text-anchor="middle" x="1515" y="-332.3" font-family="Times,serif" font-size="14.00">Nan (a)</text>
</g>
<!-- 11&#45;&gt;36 -->
<g id="edge29" class="edge">
<title>11&#45;&gt;36</title>
<path fill="none" stroke="black" d="M792.76,-407.62C910.99,-403.97 1202.26,-391.6 1443,-354 1451.39,-352.69 1460.25,-350.92 1468.78,-349.02"/>
<polygon fill="black" stroke="black" points="1469.64,-352.41 1478.59,-346.75 1468.05,-345.6 1469.64,-352.41"/>
</g>
<!-- 39 -->
<g id="node34" class="node">
<title>39</title>
<ellipse fill="none" stroke="black" cx="1639" cy="-336" rx="52.79" ry="18"/>
<text text-anchor="middle" x="1639" y="-332.3" font-family="Times,serif" font-size="14.00">LaSM (a)</text>
</g>
<!-- 11&#45;&gt;39 -->
<g id="edge32" class="edge">
<title>11&#45;&gt;39</title>
<path fill="none" stroke="black" d="M793.26,-408.75C926.31,-407.41 1279.03,-399.49 1569,-354 1575.64,-352.96 1582.58,-351.6 1589.4,-350.12"/>
<polygon fill="black" stroke="black" points="1590.28,-353.5 1599.25,-347.86 1588.72,-346.68 1590.28,-353.5"/>
</g>
<!-- 15 -->
<g id="node13" class="node">
<title>15</title>
<ellipse fill="none" stroke="black" cx="1261" cy="-263" rx="55.79" ry="18"/>
<text text-anchor="middle" x="1261" y="-259.3" font-family="Times,serif" font-size="14.00">V2036 (a)</text>
</g>
<!-- 23 -->
<g id="node21" class="node">
<title>23</title>
<ellipse fill="none" stroke="black" cx="355" cy="-263" rx="55.79" ry="18"/>
<text text-anchor="middle" x="355" y="-259.3" font-family="Times,serif" font-size="14.00">V1629 (a)</text>
</g>
<!-- 17&#45;&gt;23 -->
<g id="edge19" class="edge">
<title>17&#45;&gt;23</title>
<path fill="none" stroke="black" stroke-dasharray="1,5" d="M473.31,-321.14C450.64,-310.19 418.77,-294.8 393.82,-282.75"/>
<polygon fill="black" stroke="black" points="395.15,-279.51 384.63,-278.31 392.11,-285.81 395.15,-279.51"/>
</g>
<!-- 18 -->
<g id="node16" class="node">
<title>18</title>
<ellipse fill="none" stroke="black" cx="1385" cy="-263" rx="50.09" ry="18"/>
<text text-anchor="middle" x="1385" y="-259.3" font-family="Times,serif" font-size="14.00">V565 (a)</text>
</g>
<!-- 21 -->
<g id="node19" class="node">
<title>21</title>
<ellipse fill="none" stroke="black" cx="591" cy="-263" rx="44.39" ry="18"/>
<text text-anchor="middle" x="591" y="-259.3" font-family="Times,serif" font-size="14.00">P01 (a)</text>
</g>
<!-- 22&#45;&gt;1 -->
<g id="edge2" class="edge">
<title>22&#45;&gt;1</title>
<path fill="none" stroke="black" stroke-dasharray="1,5" d="M833.74,-323.65C826.95,-321.55 819.79,-319.53 813,-318 692.7,-290.84 658.69,-306.36 538,-281 533.89,-280.14 529.65,-279.14 525.42,-278.06"/>
<polygon fill="black" stroke="black" points="526.18,-274.64 515.61,-275.45 524.38,-281.41 526.18,-274.64"/>
</g>
<!-- 22&#45;&gt;21 -->
<g id="edge17" class="edge">
<title>22&#45;&gt;21</title>
<path fill="none" stroke="black" stroke-dasharray="5,2" d="M833.07,-323.9C826.45,-321.83 819.53,-319.76 813,-318 738.75,-298.01 718.25,-300.99 644,-281 640.63,-280.09 637.16,-279.1 633.68,-278.07"/>
<polygon fill="black" stroke="black" points="634.52,-274.67 623.93,-275.1 632.48,-281.37 634.52,-274.67"/>
</g>
<!-- 28 -->
<g id="node25" class="node">
<title>28</title>
<ellipse fill="none" stroke="black" cx="697" cy="-263" rx="44.39" ry="18"/>
<text text-anchor="middle" x="697" y="-259.3" font-family="Times,serif" font-size="14.00">S32 (a)</text>
</g>
<!-- 22&#45;&gt;28 -->
<g id="edge23" class="edge">
<title>22&#45;&gt;28</title>
<path fill="none" stroke="black" stroke-dasharray="5,2" d="M836.18,-322.47C808.3,-310.76 766.51,-293.2 736,-280.39"/>
<polygon fill="black" stroke="black" points="737.1,-277.05 726.53,-276.4 734.39,-283.5 737.1,-277.05"/>
</g>
<!-- 32 -->
<g id="node29" class="node">
<title>32</title>
<ellipse fill="none" stroke="black" cx="799" cy="-263" rx="40.09" ry="18"/>
<text text-anchor="middle" x="799" y="-259.3" font-family="Times,serif" font-size="14.00">Pal (a)</text>
</g>
<!-- 22&#45;&gt;32 -->
<g id="edge27" class="edge">
<title>22&#45;&gt;32</title>
<path fill="none" stroke="black" stroke-dasharray="5,2" d="M850.8,-318.89C842.06,-309.63 830.93,-297.83 821.22,-287.55"/>
<polygon fill="black" stroke="black" points="823.55,-284.92 814.14,-280.05 818.46,-289.72 823.55,-284.92"/>
</g>
<!-- 37 -->
<g id="node32" class="node">
<title>37</title>
<ellipse fill="none" stroke="black" cx="907" cy="-263" rx="50.09" ry="18"/>
<text text-anchor="middle" x="907" y="-259.3" font-family="Times,serif" font-size="14.00">V566 (a)</text>
</g>
<!-- 22&#45;&gt;37 -->
<g id="edge30" class="edge">
<title>22&#45;&gt;37</title>
<path fill="none" stroke="black" stroke-dasharray="5,2" d="M875.72,-318.17C880.67,-309.6 886.8,-298.99 892.31,-289.44"/>
<polygon fill="black" stroke="black" points="895.38,-291.12 897.35,-280.71 889.32,-287.61 895.38,-291.12"/>
</g>
<!-- 33 -->
<g id="node30" class="node">
<title>33</title>
<ellipse fill="none" stroke="black" cx="355" cy="-190" rx="50.09" ry="18"/>
<text text-anchor="middle" x="355" y="-186.3" font-family="Times,serif" font-size="14.00">V568 (a)</text>
</g>
<!-- 23&#45;&gt;33 -->
<g id="edge28" class="edge">
<title>23&#45;&gt;33</title>
<path fill="none" stroke="black" stroke-dasharray="5,2" d="M355,-244.81C355,-236.79 355,-227.05 355,-218.07"/>
<polygon fill="black" stroke="black" points="358.5,-218.03 355,-208.03 351.5,-218.03 358.5,-218.03"/>
</g>
<!-- 40 -->
<g id="node35" class="node">
<title>40</title>
<ellipse fill="none" stroke="black" cx="473" cy="-190" rx="50.09" ry="18"/>
<text text-anchor="middle" x="473" y="-186.3" font-family="Times,serif" font-size="14.00">V536 (a)</text>
</g>
<!-- 23&#45;&gt;40 -->
<g id="edge33" class="edge">
<title>23&#45;&gt;40</title>
<path fill="none" stroke="black" stroke-dasharray="5,2" d="M380.31,-246.77C397.74,-236.29 421.05,-222.26 439.94,-210.89"/>
<polygon fill="black" stroke="black" points="441.77,-213.87 448.54,-205.72 438.16,-207.88 441.77,-213.87"/>
</g>
<!-- 25 -->
<g id="node22" class="node">
<title>25</title>
<ellipse fill="none" stroke="black" cx="1503" cy="-263" rx="50.09" ry="18"/>
<text text-anchor="middle" x="1503" y="-259.3" font-family="Times,serif" font-size="14.00">V571 (a)</text>
</g>
<!-- 26&#45;&gt;0 -->
<g id="edge1" class="edge">
<title>26&#45;&gt;0</title>
<path fill="none" stroke="black" stroke-dasharray="1,5" d="M1340.78,-328.13C1282.87,-318.86 1178.33,-301.15 1090,-281 1085.66,-280.01 1081.17,-278.92 1076.67,-277.77"/>
<polygon fill="black" stroke="black" points="1077.46,-274.36 1066.9,-275.22 1075.69,-281.13 1077.46,-274.36"/>
</g>
<!-- 26&#45;&gt;4 -->
<g id="edge4" class="edge">
<title>26&#45;&gt;4</title>
<path fill="none" stroke="black" stroke-dasharray="1,5" d="M1347.24,-324.6C1309.02,-313.97 1248.25,-296.84 1196,-281 1192.71,-280 1189.31,-278.95 1185.9,-277.89"/>
<polygon fill="black" stroke="black" points="1186.9,-274.53 1176.31,-274.86 1184.79,-281.21 1186.9,-274.53"/>
</g>
<!-- 26&#45;&gt;15 -->
<g id="edge11" class="edge">
<title>26&#45;&gt;15</title>
<path fill="none" stroke="black" stroke-dasharray="5,2" d="M1359.61,-320.46C1341.3,-309.98 1316.35,-295.69 1296.13,-284.11"/>
<polygon fill="black" stroke="black" points="1297.63,-280.94 1287.21,-279.01 1294.15,-287.02 1297.63,-280.94"/>
</g>
<!-- 26&#45;&gt;18 -->
<g id="edge14" class="edge">
<title>26&#45;&gt;18</title>
<path fill="none" stroke="black" stroke-dasharray="5,2" d="M1385,-317.81C1385,-309.79 1385,-300.05 1385,-291.07"/>
<polygon fill="black" stroke="black" points="1388.5,-291.03 1385,-281.03 1381.5,-291.03 1388.5,-291.03"/>
</g>
<!-- 26&#45;&gt;25 -->
<g id="edge20" class="edge">
<title>26&#45;&gt;25</title>
<path fill="none" stroke="black" stroke-dasharray="1,5" d="M1409.45,-320.29C1426.82,-309.84 1450.35,-295.68 1469.47,-284.18"/>
<polygon fill="black" stroke="black" points="1471.41,-287.09 1478.18,-278.94 1467.8,-281.09 1471.41,-287.09"/>
</g>
<!-- 27 -->
<g id="node24" class="node">
<title>27</title>
<ellipse fill="none" stroke="black" cx="1620" cy="-263" rx="48.99" ry="18"/>
<text text-anchor="middle" x="1620" y="-259.3" font-family="Times,serif" font-size="14.00">La35 (a)</text>
</g>
<!-- 26&#45;&gt;27 -->
<g id="edge22" class="edge">
<title>26&#45;&gt;27</title>
<path fill="none" stroke="black" stroke-dasharray="1,5" d="M1421.46,-323.98C1462.45,-311.6 1529.1,-291.46 1573.73,-277.98"/>
<polygon fill="black" stroke="black" points="1574.89,-281.28 1583.45,-275.04 1572.87,-274.58 1574.89,-281.28"/>
</g>
<!-- 38 -->
<g id="node33" class="node">
<title>38</title>
<ellipse fill="none" stroke="black" cx="1737" cy="-263" rx="50.09" ry="18"/>
<text text-anchor="middle" x="1737" y="-259.3" font-family="Times,serif" font-size="14.00">A116 (a)</text>
</g>
<!-- 26&#45;&gt;38 -->
<g id="edge31" class="edge">
<title>26&#45;&gt;38</title>
<path fill="none" stroke="black" stroke-dasharray="5,2" d="M1425.15,-325.62C1436.7,-323.03 1449.33,-320.3 1461,-318 1556.99,-299.09 1582.62,-302.8 1678,-281 1682.03,-280.08 1686.2,-279.04 1690.37,-277.96"/>
<polygon fill="black" stroke="black" points="1691.29,-281.33 1700.03,-275.34 1689.46,-274.58 1691.29,-281.33"/>
</g>
<!-- 41 -->
<g id="node36" class="node">
<title>41</title>
<ellipse fill="none" stroke="black" cx="1852" cy="-263" rx="46.59" ry="18"/>
<text text-anchor="middle" x="1852" y="-259.3" font-family="Times,serif" font-size="14.00">Bodl (a)</text>
</g>
<!-- 26&#45;&gt;41 -->
<g id="edge34" class="edge">
<title>26&#45;&gt;41</title>
<path fill="none" stroke="black" stroke-dasharray="5,2" d="M1424.68,-325.26C1436.33,-322.63 1449.13,-319.98 1461,-318 1608.76,-293.39 1649.26,-311.11 1796,-281 1799.92,-280.2 1803.96,-279.24 1807.99,-278.19"/>
<polygon fill="black" stroke="black" points="1809.2,-281.49 1817.9,-275.44 1807.33,-274.74 1809.2,-281.49"/>
</g>
<!-- 30 -->
<g id="node27" class="node">
<title>30</title>
<ellipse fill="none" stroke="black" cx="1973" cy="-263" rx="55.79" ry="18"/>
<text text-anchor="middle" x="1973" y="-259.3" font-family="Times,serif" font-size="14.00">V2250 (a)</text>
</g>
<!-- 31 -->
<g id="node28" class="node">
<title>31</title>
<ellipse fill="none" stroke="black" cx="905" cy="-190" rx="55.79" ry="18"/>
<text text-anchor="middle" x="905" y="-186.3" font-family="Times,serif" font-size="14.00">V1639 (a)</text>
</g>
<!-- 33&#45;&gt;6 -->
<g id="edge6" class="edge">
<title>33&#45;&gt;6</title>
<path fill="none" stroke="black" stroke-dasharray="1,5" d="M356.94,-171.81C357.84,-163.79 358.94,-154.05 359.95,-145.07"/>
<polygon fill="black" stroke="black" points="363.44,-145.36 361.08,-135.03 356.48,-144.57 363.44,-145.36"/>
</g>
<!-- 36&#45;&gt;30 -->
<g id="edge25" class="edge">
<title>36&#45;&gt;30</title>
<path fill="none" stroke="black" stroke-dasharray="5,2" d="M1549.53,-324.5C1558.42,-322.09 1568.01,-319.72 1577,-318 1722.38,-290.12 1762.46,-308.02 1908,-281 1912.77,-280.12 1917.7,-279.07 1922.62,-277.94"/>
<polygon fill="black" stroke="black" points="1923.74,-281.27 1932.64,-275.52 1922.09,-274.46 1923.74,-281.27"/>
</g>
<!-- 37&#45;&gt;31 -->
<g id="edge26" class="edge">
<title>37&#45;&gt;31</title>
<path fill="none" stroke="black" stroke-dasharray="1,5" d="M906.52,-244.81C906.29,-236.79 906.02,-227.05 905.76,-218.07"/>
<polygon fill="black" stroke="black" points="909.26,-217.93 905.48,-208.03 902.26,-218.12 909.26,-217.93"/>
</g>
<!-- 39&#45;&gt;9 -->
<g id="edge8" class="edge">
<title>39&#45;&gt;9</title>
<path fill="none" stroke="black" stroke-dasharray="5,2" d="M1689.9,-331C1766.23,-324.35 1914.59,-308.91 2038,-281 2041.61,-280.18 2045.32,-279.23 2049.02,-278.2"/>
<polygon fill="black" stroke="black" points="2050.13,-281.53 2058.74,-275.34 2048.15,-274.81 2050.13,-281.53"/>
</g>
</g>
</svg>
