<?xml version="1.0" encoding="UTF-8" standalone="no"?>
<!DOCTYPE svg PUBLIC "-//W3C//DTD SVG 1.1//EN"
 "http://www.w3.org/Graphics/SVG/1.1/DTD/svg11.dtd">
<!-- Generated by graphviz version 2.43.0 (0)
 -->
<!-- Title: textual_flow_diagram Pages: 1 -->
<svg width="338pt" height="222pt"
 viewBox="0.00 0.00 338.00 222.00" xmlns="http://www.w3.org/2000/svg" xmlns:xlink="http://www.w3.org/1999/xlink">
<g id="graph0" class="graph" transform="scale(1 1) rotate(0) translate(4 218)">
<title>textual_flow_diagram</title>
<polygon fill="white" stroke="transparent" points="-4,4 -4,-218 334,-218 334,4 -4,4"/>
<g id="clust1" class="cluster">
<title>cluster_legend</title>
<polygon fill="none" stroke="black" points="8,-152 8,-206 186,-206 186,-152 8,-152"/>
</g>
<g id="clust2" class="cluster">
<title>cluster_plot</title>
</g>
<!-- label -->
<g id="node1" class="node">
<title>label</title>
<text text-anchor="middle" x="97" y="-182.8" font-family="Times,serif" font-size="14.00">adstag1.3.8U2&#45;18, b</text>
<text text-anchor="middle" x="97" y="-167.8" font-family="Times,serif" font-size="14.00">Con = 5</text>
</g>
<!-- 27 -->
<g id="node2" class="node">
<title>27</title>
<ellipse fill="none" stroke="black" cx="258" cy="-106" rx="50.09" ry="18"/>
<text text-anchor="middle" x="258" y="-102.3" font-family="Times,serif" font-size="14.00">V560 (b)</text>
</g>
<!-- 41 -->
<g id="node3" class="node">
<title>41</title>
<ellipse fill="none" stroke="black" cx="258" cy="-34" rx="55.79" ry="18"/>
<text text-anchor="middle" x="258" y="-30.3" font-family="Times,serif" font-size="14.00">V1920 (b)</text>
</g>
<!-- 27&#45;&gt;41 -->
<g id="edge2" class="edge">
<title>27&#45;&gt;41</title>
<path fill="none" stroke="black" stroke-dasharray="5,2" d="M258,-87.7C258,-79.98 258,-70.71 258,-62.11"/>
<polygon fill="black" stroke="black" points="261.5,-62.1 258,-52.1 254.5,-62.1 261.5,-62.1"/>
</g>
<!-- 40 -->
<g id="node4" class="node">
<title>40</title>
<ellipse fill="none" stroke="blue" stroke-dasharray="5,2" cx="258" cy="-179" rx="53.89" ry="18"/>
<text text-anchor="middle" x="258" y="-175.3" font-family="Times,serif" font-size="14.00">aBase (a)</text>
</g>
<!-- 40&#45;&gt;27 -->
<g id="edge1" class="edge">
<title>40&#45;&gt;27</title>
<path fill="none" stroke="blue" stroke-width="2" d="M258,-160.81C258,-152.79 258,-143.05 258,-134.07"/>
<polygon fill="blue" stroke="blue" stroke-width="2" points="261.5,-134.03 258,-124.03 254.5,-134.03 261.5,-134.03"/>
</g>
</g>
</svg>
