<?xml version="1.0" encoding="UTF-8" standalone="no"?>
<!DOCTYPE svg PUBLIC "-//W3C//DTD SVG 1.1//EN"
 "http://www.w3.org/Graphics/SVG/1.1/DTD/svg11.dtd">
<!-- Generated by graphviz version 2.43.0 (0)
 -->
<!-- Title: textual_flow_diagram Pages: 1 -->
<svg width="1617pt" height="672pt"
 viewBox="0.00 0.00 1617.00 672.00" xmlns="http://www.w3.org/2000/svg" xmlns:xlink="http://www.w3.org/1999/xlink">
<g id="graph0" class="graph" transform="scale(1 1) rotate(0) translate(4 668)">
<title>textual_flow_diagram</title>
<polygon fill="white" stroke="transparent" points="-4,4 -4,-668 1613,-668 1613,4 -4,4"/>
<g id="clust1" class="cluster">
<title>cluster_legend</title>
<polygon fill="none" stroke="black" points="8,-602 8,-656 182,-656 182,-602 8,-602"/>
</g>
<g id="clust2" class="cluster">
<title>cluster_plot</title>
</g>
<!-- label -->
<g id="node1" class="node">
<title>label</title>
<text text-anchor="middle" x="95" y="-632.8" font-family="Times,serif" font-size="14.00">adstag1.3.43U12, a</text>
<text text-anchor="middle" x="95" y="-617.8" font-family="Times,serif" font-size="14.00">Con = 10</text>
</g>
<!-- 0 -->
<g id="node2" class="node">
<title>0</title>
<ellipse fill="none" stroke="black" cx="404" cy="-472" rx="55.79" ry="18"/>
<text text-anchor="middle" x="404" y="-468.3" font-family="Times,serif" font-size="14.00">V2250 (a)</text>
</g>
<!-- 1 -->
<g id="node3" class="node">
<title>1</title>
<ellipse fill="none" stroke="black" cx="968" cy="-472" rx="50.09" ry="18"/>
<text text-anchor="middle" x="968" y="-468.3" font-family="Times,serif" font-size="14.00">V565 (a)</text>
</g>
<!-- 2 -->
<g id="node4" class="node">
<title>2</title>
<ellipse fill="none" stroke="black" cx="242" cy="-545" rx="44.39" ry="18"/>
<text text-anchor="middle" x="242" y="-541.3" font-family="Times,serif" font-size="14.00">B39 (a)</text>
</g>
<!-- 4 -->
<g id="node5" class="node">
<title>4</title>
<ellipse fill="none" stroke="black" cx="1080" cy="-472" rx="44.39" ry="18"/>
<text text-anchor="middle" x="1080" y="-468.3" font-family="Times,serif" font-size="14.00">P74 (a)</text>
</g>
<!-- 5 -->
<g id="node6" class="node">
<title>5</title>
<ellipse fill="none" stroke="black" cx="1189" cy="-472" rx="46.59" ry="18"/>
<text text-anchor="middle" x="1189" y="-468.3" font-family="Times,serif" font-size="14.00">Bodl (a)</text>
</g>
<!-- 6 -->
<g id="node7" class="node">
<title>6</title>
<ellipse fill="none" stroke="black" cx="354" cy="-545" rx="50.09" ry="18"/>
<text text-anchor="middle" x="354" y="-541.3" font-family="Times,serif" font-size="14.00">Neap (a)</text>
</g>
<!-- 29 -->
<g id="node26" class="node">
<title>29</title>
<ellipse fill="none" stroke="black" cx="274" cy="-472" rx="55.79" ry="18"/>
<text text-anchor="middle" x="274" y="-468.3" font-family="Times,serif" font-size="14.00">V1629 (a)</text>
</g>
<!-- 6&#45;&gt;29 -->
<g id="edge24" class="edge">
<title>6&#45;&gt;29</title>
<path fill="none" stroke="black" stroke-dasharray="1,5" d="M335.85,-527.89C325.21,-518.45 311.6,-506.37 299.85,-495.95"/>
<polygon fill="black" stroke="black" points="301.88,-493.07 292.08,-489.05 297.24,-498.3 301.88,-493.07"/>
</g>
<!-- 7 -->
<g id="node8" class="node">
<title>7</title>
<ellipse fill="none" stroke="black" cx="534" cy="-399" rx="41.69" ry="18"/>
<text text-anchor="middle" x="534" y="-395.3" font-family="Times,serif" font-size="14.00">Est (a)</text>
</g>
<!-- 8 -->
<g id="node9" class="node">
<title>8</title>
<ellipse fill="none" stroke="black" cx="1304" cy="-472" rx="50.09" ry="18"/>
<text text-anchor="middle" x="1304" y="-468.3" font-family="Times,serif" font-size="14.00">V571 (a)</text>
</g>
<!-- 9 -->
<g id="node10" class="node">
<title>9</title>
<ellipse fill="none" stroke="black" cx="467" cy="-545" rx="44.69" ry="18"/>
<text text-anchor="middle" x="467" y="-541.3" font-family="Times,serif" font-size="14.00">Nan (a)</text>
</g>
<!-- 9&#45;&gt;0 -->
<g id="edge1" class="edge">
<title>9&#45;&gt;0</title>
<path fill="none" stroke="black" stroke-dasharray="5,2" d="M452.7,-527.89C444.68,-518.85 434.52,-507.39 425.55,-497.28"/>
<polygon fill="black" stroke="black" points="427.93,-494.7 418.68,-489.54 422.7,-499.34 427.93,-494.7"/>
</g>
<!-- 12 -->
<g id="node13" class="node">
<title>12</title>
<ellipse fill="none" stroke="black" cx="534" cy="-472" rx="55.79" ry="18"/>
<text text-anchor="middle" x="534" y="-468.3" font-family="Times,serif" font-size="14.00">V1897 (a)</text>
</g>
<!-- 9&#45;&gt;12 -->
<g id="edge11" class="edge">
<title>9&#45;&gt;12</title>
<path fill="none" stroke="black" stroke-dasharray="1,5" d="M482.2,-527.89C490.82,-518.76 501.76,-507.16 511.37,-496.98"/>
<polygon fill="black" stroke="black" points="514.07,-499.22 518.39,-489.54 508.98,-494.41 514.07,-499.22"/>
</g>
<!-- 10 -->
<g id="node11" class="node">
<title>10</title>
<ellipse fill="none" stroke="black" cx="274" cy="-253" rx="46.59" ry="18"/>
<text text-anchor="middle" x="274" y="-249.3" font-family="Times,serif" font-size="14.00">Taur (a)</text>
</g>
<!-- 15 -->
<g id="node15" class="node">
<title>15</title>
<ellipse fill="none" stroke="black" cx="257" cy="-180" rx="50.09" ry="18"/>
<text text-anchor="middle" x="257" y="-176.3" font-family="Times,serif" font-size="14.00">Marc (a)</text>
</g>
<!-- 10&#45;&gt;15 -->
<g id="edge13" class="edge">
<title>10&#45;&gt;15</title>
<path fill="none" stroke="black" stroke-dasharray="1,5" d="M269.88,-234.81C267.94,-226.7 265.58,-216.84 263.41,-207.78"/>
<polygon fill="black" stroke="black" points="266.81,-206.94 261.08,-198.03 260,-208.57 266.81,-206.94"/>
</g>
<!-- 18 -->
<g id="node18" class="node">
<title>18</title>
<ellipse fill="none" stroke="black" cx="375" cy="-180" rx="50.09" ry="18"/>
<text text-anchor="middle" x="375" y="-176.3" font-family="Times,serif" font-size="14.00">V569 (a)</text>
</g>
<!-- 10&#45;&gt;18 -->
<g id="edge16" class="edge">
<title>10&#45;&gt;18</title>
<path fill="none" stroke="black" stroke-dasharray="5,2" d="M295.42,-236.94C309.78,-226.85 328.91,-213.4 344.81,-202.22"/>
<polygon fill="black" stroke="black" points="347.1,-204.89 353.26,-196.28 343.07,-199.17 347.1,-204.89"/>
</g>
<!-- 11 -->
<g id="node12" class="node">
<title>11</title>
<ellipse fill="none" stroke="black" cx="906" cy="-629" rx="53.89" ry="18"/>
<text text-anchor="middle" x="906" y="-625.3" font-family="Times,serif" font-size="14.00">aBase (a)</text>
</g>
<!-- 11&#45;&gt;2 -->
<g id="edge3" class="edge">
<title>11&#45;&gt;2</title>
<path fill="none" stroke="black" stroke-width="2" d="M852.16,-626.64C744.82,-622.98 497.15,-609.73 295,-563 291.55,-562.2 288.01,-561.29 284.46,-560.3"/>
<polygon fill="black" stroke="black" stroke-width="2" points="285.14,-556.85 274.56,-557.38 283.16,-563.57 285.14,-556.85"/>
<text text-anchor="middle" x="446.5" y="-584" font-family="Times,serif" font-size="10.00">2</text>
</g>
<!-- 11&#45;&gt;6 -->
<g id="edge6" class="edge">
<title>11&#45;&gt;6</title>
<path fill="none" stroke="black" stroke-width="2" d="M854.03,-624.11C763.59,-616.68 571.7,-598.02 413,-563 408.9,-562.1 404.67,-561.07 400.44,-559.97"/>
<polygon fill="black" stroke="black" stroke-width="2" points="401.21,-556.56 390.64,-557.34 399.38,-563.32 401.21,-556.56"/>
</g>
<!-- 11&#45;&gt;9 -->
<g id="edge9" class="edge">
<title>11&#45;&gt;9</title>
<path fill="none" stroke="black" d="M856.33,-621.84C782.56,-612.2 639.96,-591.62 521,-563 517.4,-562.13 513.68,-561.15 509.97,-560.11"/>
<polygon fill="black" stroke="black" points="510.79,-556.71 500.21,-557.24 508.82,-563.42 510.79,-556.71"/>
</g>
<!-- 13 -->
<g id="node14" class="node">
<title>13</title>
<ellipse fill="none" stroke="black" cx="586" cy="-545" rx="55.79" ry="18"/>
<text text-anchor="middle" x="586" y="-541.3" font-family="Times,serif" font-size="14.00">V2036 (a)</text>
</g>
<!-- 11&#45;&gt;13 -->
<g id="edge12" class="edge">
<title>11&#45;&gt;13</title>
<path fill="none" stroke="black" d="M864.46,-617.5C813.97,-604.71 726.2,-582.42 651,-563 646.69,-561.89 642.22,-560.73 637.74,-559.56"/>
<polygon fill="black" stroke="black" points="638.51,-556.15 627.95,-557.01 636.74,-562.92 638.51,-556.15"/>
</g>
<!-- 16 -->
<g id="node16" class="node">
<title>16</title>
<ellipse fill="none" stroke="black" cx="710" cy="-545" rx="50.09" ry="18"/>
<text text-anchor="middle" x="710" y="-541.3" font-family="Times,serif" font-size="14.00">Patm (a)</text>
</g>
<!-- 11&#45;&gt;16 -->
<g id="edge14" class="edge">
<title>11&#45;&gt;16</title>
<path fill="none" stroke="black" d="M873.63,-614.46C840,-600.39 787.27,-578.33 750.8,-563.07"/>
<polygon fill="black" stroke="black" points="752.02,-559.78 741.44,-559.15 749.31,-566.24 752.02,-559.78"/>
</g>
<!-- 19 -->
<g id="node19" class="node">
<title>19</title>
<ellipse fill="none" stroke="black" cx="843" cy="-545" rx="64.99" ry="18"/>
<text text-anchor="middle" x="843" y="-541.3" font-family="Times,serif" font-size="14.00">Savile&#45;Η (a)</text>
</g>
<!-- 11&#45;&gt;19 -->
<g id="edge17" class="edge">
<title>11&#45;&gt;19</title>
<path fill="none" stroke="black" stroke-width="2" d="M893.25,-611.41C884.34,-599.81 872.29,-584.13 862.22,-571.02"/>
<polygon fill="black" stroke="black" stroke-width="2" points="864.81,-568.65 855.95,-562.85 859.26,-572.91 864.81,-568.65"/>
</g>
<!-- 27 -->
<g id="node24" class="node">
<title>27</title>
<ellipse fill="none" stroke="black" cx="970" cy="-545" rx="44.39" ry="18"/>
<text text-anchor="middle" x="970" y="-541.3" font-family="Times,serif" font-size="14.00">A25 (a)</text>
</g>
<!-- 11&#45;&gt;27 -->
<g id="edge22" class="edge">
<title>11&#45;&gt;27</title>
<path fill="none" stroke="black" stroke-dasharray="5,2" d="M918.95,-611.41C928.12,-599.66 940.57,-583.71 950.88,-570.5"/>
<polygon fill="black" stroke="black" points="953.89,-572.33 957.29,-562.29 948.37,-568.02 953.89,-572.33"/>
</g>
<!-- 28 -->
<g id="node25" class="node">
<title>28</title>
<ellipse fill="none" stroke="black" cx="1082" cy="-545" rx="50.09" ry="18"/>
<text text-anchor="middle" x="1082" y="-541.3" font-family="Times,serif" font-size="14.00">S249 (a)</text>
</g>
<!-- 11&#45;&gt;28 -->
<g id="edge23" class="edge">
<title>11&#45;&gt;28</title>
<path fill="none" stroke="black" d="M936.26,-613.9C965.95,-600.07 1011.36,-578.91 1043.59,-563.89"/>
<polygon fill="black" stroke="black" points="1045.14,-567.04 1052.72,-559.64 1042.18,-560.69 1045.14,-567.04"/>
</g>
<!-- 30 -->
<g id="node27" class="node">
<title>30</title>
<ellipse fill="none" stroke="black" cx="1193" cy="-545" rx="42.79" ry="18"/>
<text text-anchor="middle" x="1193" y="-541.3" font-family="Times,serif" font-size="14.00">La2 (a)</text>
</g>
<!-- 11&#45;&gt;30 -->
<g id="edge25" class="edge">
<title>11&#45;&gt;30</title>
<path fill="none" stroke="black" stroke-width="2" d="M947.34,-617.18C994.41,-604.72 1073.52,-583.35 1141,-563 1144.28,-562.01 1147.67,-560.96 1151.08,-559.89"/>
<polygon fill="black" stroke="black" stroke-width="2" points="1152.16,-563.22 1160.62,-556.84 1150.03,-556.55 1152.16,-563.22"/>
</g>
<!-- 36 -->
<g id="node30" class="node">
<title>36</title>
<ellipse fill="none" stroke="black" cx="1303" cy="-545" rx="48.99" ry="18"/>
<text text-anchor="middle" x="1303" y="-541.3" font-family="Times,serif" font-size="14.00">La22 (a)</text>
</g>
<!-- 11&#45;&gt;36 -->
<g id="edge28" class="edge">
<title>11&#45;&gt;36</title>
<path fill="none" stroke="black" stroke-dasharray="5,2" d="M953.47,-620.37C1019.31,-609.46 1141.9,-587.93 1245,-563 1248.9,-562.06 1252.94,-561.01 1256.97,-559.92"/>
<polygon fill="black" stroke="black" points="1258.25,-563.2 1266.94,-557.15 1256.37,-556.46 1258.25,-563.2"/>
</g>
<!-- 40 -->
<g id="node33" class="node">
<title>40</title>
<ellipse fill="none" stroke="black" cx="1422" cy="-545" rx="52.79" ry="18"/>
<text text-anchor="middle" x="1422" y="-541.3" font-family="Times,serif" font-size="14.00">M136 (a)</text>
</g>
<!-- 11&#45;&gt;40 -->
<g id="edge31" class="edge">
<title>11&#45;&gt;40</title>
<path fill="none" stroke="black" stroke-width="2" d="M956.87,-622.92C1041.37,-613.98 1215.74,-593.48 1361,-563 1365.18,-562.12 1369.49,-561.12 1373.8,-560.05"/>
<polygon fill="black" stroke="black" stroke-width="2" points="1374.99,-563.36 1383.79,-557.47 1373.23,-556.59 1374.99,-563.36"/>
</g>
<!-- 42 -->
<g id="node35" class="node">
<title>42</title>
<ellipse fill="none" stroke="black" cx="1543" cy="-545" rx="50.09" ry="18"/>
<text text-anchor="middle" x="1543" y="-541.3" font-family="Times,serif" font-size="14.00">V560 (a)</text>
</g>
<!-- 11&#45;&gt;42 -->
<g id="edge33" class="edge">
<title>11&#45;&gt;42</title>
<path fill="none" stroke="black" stroke-width="2" d="M959.07,-625.1C1061.44,-618.84 1292.93,-601.38 1484,-563 1488.17,-562.16 1492.48,-561.17 1496.78,-560.1"/>
<polygon fill="black" stroke="black" stroke-width="2" points="1497.95,-563.41 1506.72,-557.47 1496.16,-556.64 1497.95,-563.41"/>
</g>
<!-- 12&#45;&gt;7 -->
<g id="edge7" class="edge">
<title>12&#45;&gt;7</title>
<path fill="none" stroke="black" stroke-dasharray="1,5" d="M534,-453.81C534,-445.79 534,-436.05 534,-427.07"/>
<polygon fill="black" stroke="black" points="537.5,-427.03 534,-417.03 530.5,-427.03 537.5,-427.03"/>
</g>
<!-- 39 -->
<g id="node32" class="node">
<title>39</title>
<ellipse fill="none" stroke="black" cx="257" cy="-107" rx="46.29" ry="18"/>
<text text-anchor="middle" x="257" y="-103.3" font-family="Times,serif" font-size="14.00">Mon (a)</text>
</g>
<!-- 15&#45;&gt;39 -->
<g id="edge30" class="edge">
<title>15&#45;&gt;39</title>
<path fill="none" stroke="black" stroke-dasharray="1,5" d="M257,-161.81C257,-153.79 257,-144.05 257,-135.07"/>
<polygon fill="black" stroke="black" points="260.5,-135.03 257,-125.03 253.5,-135.03 260.5,-135.03"/>
</g>
<!-- 17 -->
<g id="node17" class="node">
<title>17</title>
<ellipse fill="none" stroke="black" cx="648" cy="-472" rx="40.09" ry="18"/>
<text text-anchor="middle" x="648" y="-468.3" font-family="Times,serif" font-size="14.00">Pal (a)</text>
</g>
<!-- 21 -->
<g id="node20" class="node">
<title>21</title>
<ellipse fill="none" stroke="black" cx="750" cy="-472" rx="44.39" ry="18"/>
<text text-anchor="middle" x="750" y="-468.3" font-family="Times,serif" font-size="14.00">P01 (a)</text>
</g>
<!-- 23 -->
<g id="node21" class="node">
<title>23</title>
<ellipse fill="none" stroke="black" cx="1421" cy="-472" rx="48.99" ry="18"/>
<text text-anchor="middle" x="1421" y="-468.3" font-family="Times,serif" font-size="14.00">La35 (a)</text>
</g>
<!-- 25 -->
<g id="node22" class="node">
<title>25</title>
<ellipse fill="none" stroke="black" cx="257" cy="-34" rx="40.89" ry="18"/>
<text text-anchor="middle" x="257" y="-30.3" font-family="Times,serif" font-size="14.00">Sin (a)</text>
</g>
<!-- 26 -->
<g id="node23" class="node">
<title>26</title>
<ellipse fill="none" stroke="black" cx="274" cy="-326" rx="50.09" ry="18"/>
<text text-anchor="middle" x="274" y="-322.3" font-family="Times,serif" font-size="14.00">V568 (a)</text>
</g>
<!-- 26&#45;&gt;10 -->
<g id="edge10" class="edge">
<title>26&#45;&gt;10</title>
<path fill="none" stroke="black" stroke-dasharray="1,5" d="M274,-307.81C274,-299.79 274,-290.05 274,-281.07"/>
<polygon fill="black" stroke="black" points="277.5,-281.03 274,-271.03 270.5,-281.03 277.5,-281.03"/>
</g>
<!-- 27&#45;&gt;17 -->
<g id="edge15" class="edge">
<title>27&#45;&gt;17</title>
<path fill="none" stroke="black" stroke-dasharray="5,2" d="M937.41,-532.74C930.71,-530.65 923.67,-528.62 917,-527 820.66,-503.58 793.06,-514.56 697,-490 693.86,-489.2 690.63,-488.28 687.41,-487.31"/>
<polygon fill="black" stroke="black" points="688.41,-483.95 677.82,-484.23 686.27,-490.62 688.41,-483.95"/>
</g>
<!-- 27&#45;&gt;21 -->
<g id="edge18" class="edge">
<title>27&#45;&gt;21</title>
<path fill="none" stroke="black" stroke-dasharray="5,2" d="M936.59,-533.22C898.31,-520.86 835.46,-500.58 793.41,-487.01"/>
<polygon fill="black" stroke="black" points="794.32,-483.63 783.73,-483.88 792.17,-490.29 794.32,-483.63"/>
</g>
<!-- 31 -->
<g id="node28" class="node">
<title>31</title>
<ellipse fill="none" stroke="black" cx="856" cy="-472" rx="44.39" ry="18"/>
<text text-anchor="middle" x="856" y="-468.3" font-family="Times,serif" font-size="14.00">S32 (a)</text>
</g>
<!-- 27&#45;&gt;31 -->
<g id="edge26" class="edge">
<title>27&#45;&gt;31</title>
<path fill="none" stroke="black" stroke-dasharray="5,2" d="M946.93,-529.63C929.97,-519.07 906.7,-504.58 887.95,-492.9"/>
<polygon fill="black" stroke="black" points="889.77,-489.91 879.43,-487.59 886.06,-495.85 889.77,-489.91"/>
</g>
<!-- 41 -->
<g id="node34" class="node">
<title>41</title>
<ellipse fill="none" stroke="black" cx="274" cy="-399" rx="50.09" ry="18"/>
<text text-anchor="middle" x="274" y="-395.3" font-family="Times,serif" font-size="14.00">V536 (a)</text>
</g>
<!-- 29&#45;&gt;41 -->
<g id="edge32" class="edge">
<title>29&#45;&gt;41</title>
<path fill="none" stroke="black" stroke-dasharray="5,2" d="M274,-453.81C274,-445.79 274,-436.05 274,-427.07"/>
<polygon fill="black" stroke="black" points="277.5,-427.03 274,-417.03 270.5,-427.03 277.5,-427.03"/>
</g>
<!-- 34 -->
<g id="node29" class="node">
<title>34</title>
<ellipse fill="none" stroke="black" cx="1540" cy="-399" rx="50.09" ry="18"/>
<text text-anchor="middle" x="1540" y="-395.3" font-family="Times,serif" font-size="14.00">A336 (a)</text>
</g>
<!-- 36&#45;&gt;1 -->
<g id="edge2" class="edge">
<title>36&#45;&gt;1</title>
<path fill="none" stroke="black" stroke-dasharray="5,2" d="M1266.97,-532.73C1259.74,-530.67 1252.16,-528.65 1245,-527 1149.24,-504.92 1122.81,-511.86 1027,-490 1022.97,-489.08 1018.8,-488.05 1014.63,-486.96"/>
<polygon fill="black" stroke="black" points="1015.54,-483.58 1004.97,-484.34 1013.71,-490.34 1015.54,-483.58"/>
</g>
<!-- 36&#45;&gt;4 -->
<g id="edge4" class="edge">
<title>36&#45;&gt;4</title>
<path fill="none" stroke="black" stroke-dasharray="1,5" d="M1267.17,-532.65C1232.76,-521.74 1179.32,-504.78 1133,-490 1129.87,-489 1126.64,-487.97 1123.38,-486.93"/>
<polygon fill="black" stroke="black" points="1124.23,-483.52 1113.64,-483.81 1122.1,-490.19 1124.23,-483.52"/>
</g>
<!-- 36&#45;&gt;5 -->
<g id="edge5" class="edge">
<title>36&#45;&gt;5</title>
<path fill="none" stroke="black" stroke-dasharray="5,2" d="M1279.1,-529.12C1262.27,-518.63 1239.54,-504.48 1221.13,-493.01"/>
<polygon fill="black" stroke="black" points="1222.81,-489.94 1212.48,-487.62 1219.11,-495.88 1222.81,-489.94"/>
</g>
<!-- 36&#45;&gt;8 -->
<g id="edge8" class="edge">
<title>36&#45;&gt;8</title>
<path fill="none" stroke="black" stroke-dasharray="1,5" d="M1303.24,-526.81C1303.36,-518.79 1303.49,-509.05 1303.62,-500.07"/>
<polygon fill="black" stroke="black" points="1307.12,-500.08 1303.76,-490.03 1300.12,-499.98 1307.12,-500.08"/>
</g>
<!-- 36&#45;&gt;23 -->
<g id="edge19" class="edge">
<title>36&#45;&gt;23</title>
<path fill="none" stroke="black" stroke-dasharray="1,5" d="M1327.45,-529.29C1344.93,-518.77 1368.66,-504.49 1387.85,-492.95"/>
<polygon fill="black" stroke="black" points="1389.82,-495.85 1396.58,-487.69 1386.21,-489.85 1389.82,-495.85"/>
</g>
<!-- 38 -->
<g id="node31" class="node">
<title>38</title>
<ellipse fill="none" stroke="black" cx="1540" cy="-472" rx="52.79" ry="18"/>
<text text-anchor="middle" x="1540" y="-468.3" font-family="Times,serif" font-size="14.00">M111 (a)</text>
</g>
<!-- 36&#45;&gt;38 -->
<g id="edge29" class="edge">
<title>36&#45;&gt;38</title>
<path fill="none" stroke="black" stroke-dasharray="1,5" d="M1339.51,-533.06C1380.43,-520.8 1446.94,-500.88 1492.03,-487.37"/>
<polygon fill="black" stroke="black" points="1493.3,-490.64 1501.88,-484.42 1491.29,-483.94 1493.3,-490.64"/>
</g>
<!-- 38&#45;&gt;34 -->
<g id="edge27" class="edge">
<title>38&#45;&gt;34</title>
<path fill="none" stroke="black" stroke-dasharray="5,2" d="M1540,-453.81C1540,-445.79 1540,-436.05 1540,-427.07"/>
<polygon fill="black" stroke="black" points="1543.5,-427.03 1540,-417.03 1536.5,-427.03 1543.5,-427.03"/>
</g>
<!-- 39&#45;&gt;25 -->
<g id="edge20" class="edge">
<title>39&#45;&gt;25</title>
<path fill="none" stroke="black" stroke-dasharray="1,5" d="M257,-88.81C257,-80.79 257,-71.05 257,-62.07"/>
<polygon fill="black" stroke="black" points="260.5,-62.03 257,-52.03 253.5,-62.03 260.5,-62.03"/>
</g>
<!-- 41&#45;&gt;26 -->
<g id="edge21" class="edge">
<title>41&#45;&gt;26</title>
<path fill="none" stroke="black" stroke-dasharray="1,5" d="M274,-380.81C274,-372.79 274,-363.05 274,-354.07"/>
<polygon fill="black" stroke="black" points="277.5,-354.03 274,-344.03 270.5,-354.03 277.5,-354.03"/>
</g>
</g>
</svg>
