<?xml version="1.0" encoding="UTF-8" standalone="no"?>
<!DOCTYPE svg PUBLIC "-//W3C//DTD SVG 1.1//EN"
 "http://www.w3.org/Graphics/SVG/1.1/DTD/svg11.dtd">
<!-- Generated by graphviz version 2.43.0 (0)
 -->
<!-- Title: textual_flow_diagram Pages: 1 -->
<svg width="650pt" height="327pt"
 viewBox="0.00 0.00 650.00 327.00" xmlns="http://www.w3.org/2000/svg" xmlns:xlink="http://www.w3.org/1999/xlink">
<g id="graph0" class="graph" transform="scale(1 1) rotate(0) translate(4 323)">
<title>textual_flow_diagram</title>
<polygon fill="white" stroke="transparent" points="-4,4 -4,-323 646,-323 646,4 -4,4"/>
<g id="clust1" class="cluster">
<title>cluster_legend</title>
<polygon fill="none" stroke="black" points="8,-257 8,-311 182,-311 182,-257 8,-257"/>
</g>
<g id="clust2" class="cluster">
<title>cluster_plot</title>
</g>
<!-- label -->
<g id="node1" class="node">
<title>label</title>
<text text-anchor="middle" x="95" y="-287.8" font-family="Times,serif" font-size="14.00">adstag1.2.21U40, a</text>
<text text-anchor="middle" x="95" y="-272.8" font-family="Times,serif" font-size="14.00">Con = 10</text>
</g>
<!-- 0 -->
<g id="node2" class="node">
<title>0</title>
<ellipse fill="none" stroke="black" cx="351" cy="-200" rx="44.39" ry="18"/>
<text text-anchor="middle" x="351" y="-196.3" font-family="Times,serif" font-size="14.00">A25 (a)</text>
</g>
<!-- 15 -->
<g id="node6" class="node">
<title>15</title>
<ellipse fill="none" stroke="black" cx="238" cy="-117" rx="40.09" ry="18"/>
<text text-anchor="middle" x="238" y="-113.3" font-family="Times,serif" font-size="14.00">Pal (a)</text>
</g>
<!-- 0&#45;&gt;15 -->
<g id="edge4" class="edge">
<title>0&#45;&gt;15</title>
<path fill="none" stroke="black" stroke-dasharray="5,2" d="M330.01,-183.95C312.22,-171.2 286.53,-152.79 266.81,-138.65"/>
<polygon fill="black" stroke="black" points="268.66,-135.67 258.5,-132.69 264.58,-141.36 268.66,-135.67"/>
</g>
<!-- 21 -->
<g id="node7" class="node">
<title>21</title>
<ellipse fill="none" stroke="black" cx="349" cy="-117" rx="52.79" ry="18"/>
<text text-anchor="middle" x="349" y="-113.3" font-family="Times,serif" font-size="14.00">M111 (a)</text>
</g>
<!-- 0&#45;&gt;21 -->
<g id="edge5" class="edge">
<title>0&#45;&gt;21</title>
<path fill="none" stroke="black" stroke-dasharray="5,2" d="M350.58,-181.82C350.31,-171.19 349.97,-157.31 349.67,-145.2"/>
<polygon fill="black" stroke="black" points="353.17,-145.06 349.42,-135.15 346.17,-145.24 353.17,-145.06"/>
<text text-anchor="middle" x="353.5" y="-156" font-family="Times,serif" font-size="10.00">2</text>
</g>
<!-- 22 -->
<g id="node8" class="node">
<title>22</title>
<ellipse fill="none" stroke="black" cx="464" cy="-117" rx="44.39" ry="18"/>
<text text-anchor="middle" x="464" y="-113.3" font-family="Times,serif" font-size="14.00">S32 (a)</text>
</g>
<!-- 0&#45;&gt;22 -->
<g id="edge6" class="edge">
<title>0&#45;&gt;22</title>
<path fill="none" stroke="black" stroke-dasharray="5,2" d="M371.99,-183.95C389.67,-171.28 415.15,-153.02 434.82,-138.92"/>
<polygon fill="black" stroke="black" points="437.03,-141.64 443.12,-132.97 432.96,-135.95 437.03,-141.64"/>
</g>
<!-- 7 -->
<g id="node3" class="node">
<title>7</title>
<ellipse fill="none" stroke="black" cx="248" cy="-34" rx="50.09" ry="18"/>
<text text-anchor="middle" x="248" y="-30.3" font-family="Times,serif" font-size="14.00">A336 (a)</text>
</g>
<!-- 11 -->
<g id="node4" class="node">
<title>11</title>
<ellipse fill="none" stroke="black" cx="464" cy="-284" rx="53.89" ry="18"/>
<text text-anchor="middle" x="464" y="-280.3" font-family="Times,serif" font-size="14.00">aBase (a)</text>
</g>
<!-- 11&#45;&gt;0 -->
<g id="edge1" class="edge">
<title>11&#45;&gt;0</title>
<path fill="none" stroke="black" stroke-dasharray="5,2" d="M442.48,-267.38C424.74,-254.51 399.42,-236.14 379.91,-221.98"/>
<polygon fill="black" stroke="black" points="381.83,-219.05 371.68,-216.01 377.72,-224.71 381.83,-219.05"/>
</g>
<!-- 30 -->
<g id="node10" class="node">
<title>30</title>
<ellipse fill="none" stroke="black" cx="464" cy="-200" rx="44.39" ry="18"/>
<text text-anchor="middle" x="464" y="-196.3" font-family="Times,serif" font-size="14.00">B39 (a)</text>
</g>
<!-- 11&#45;&gt;30 -->
<g id="edge8" class="edge">
<title>11&#45;&gt;30</title>
<path fill="none" stroke="black" stroke-width="2" d="M464,-265.61C464,-254.77 464,-240.6 464,-228.29"/>
<polygon fill="black" stroke="black" stroke-width="2" points="467.5,-228.08 464,-218.08 460.5,-228.08 467.5,-228.08"/>
<text text-anchor="middle" x="467.5" y="-239" font-family="Times,serif" font-size="10.00">2</text>
</g>
<!-- 41 -->
<g id="node11" class="node">
<title>41</title>
<ellipse fill="none" stroke="black" cx="574" cy="-200" rx="44.39" ry="18"/>
<text text-anchor="middle" x="574" y="-196.3" font-family="Times,serif" font-size="14.00">P74 (a)</text>
</g>
<!-- 11&#45;&gt;41 -->
<g id="edge9" class="edge">
<title>11&#45;&gt;41</title>
<path fill="none" stroke="black" d="M484.95,-267.38C502.03,-254.65 526.34,-236.53 545.24,-222.44"/>
<polygon fill="black" stroke="black" points="547.58,-225.06 553.5,-216.28 543.39,-219.45 547.58,-225.06"/>
<text text-anchor="middle" x="528.5" y="-239" font-family="Times,serif" font-size="10.00">2</text>
</g>
<!-- 13 -->
<g id="node5" class="node">
<title>13</title>
<ellipse fill="none" stroke="black" cx="576" cy="-117" rx="50.09" ry="18"/>
<text text-anchor="middle" x="576" y="-113.3" font-family="Times,serif" font-size="14.00">V571 (a)</text>
</g>
<!-- 21&#45;&gt;7 -->
<g id="edge2" class="edge">
<title>21&#45;&gt;7</title>
<path fill="none" stroke="black" stroke-dasharray="5,2" d="M329.05,-100C313.73,-87.71 292.41,-70.62 275.48,-57.04"/>
<polygon fill="black" stroke="black" points="277.56,-54.22 267.57,-50.69 273.18,-59.68 277.56,-54.22"/>
</g>
<!-- 29 -->
<g id="node9" class="node">
<title>29</title>
<ellipse fill="none" stroke="black" cx="366" cy="-34" rx="50.09" ry="18"/>
<text text-anchor="middle" x="366" y="-30.3" font-family="Times,serif" font-size="14.00">V565 (a)</text>
</g>
<!-- 21&#45;&gt;29 -->
<g id="edge7" class="edge">
<title>21&#45;&gt;29</title>
<path fill="none" stroke="black" stroke-dasharray="1,5" d="M352.61,-98.82C354.84,-88.19 357.75,-74.31 360.29,-62.2"/>
<polygon fill="black" stroke="black" points="363.77,-62.66 362.4,-52.15 356.92,-61.22 363.77,-62.66"/>
<text text-anchor="middle" x="361.5" y="-73" font-family="Times,serif" font-size="10.00">2</text>
</g>
<!-- 45 -->
<g id="node12" class="node">
<title>45</title>
<ellipse fill="none" stroke="black" cx="484" cy="-34" rx="50.09" ry="18"/>
<text text-anchor="middle" x="484" y="-30.3" font-family="Times,serif" font-size="14.00">A116 (a)</text>
</g>
<!-- 21&#45;&gt;45 -->
<g id="edge10" class="edge">
<title>21&#45;&gt;45</title>
<path fill="none" stroke="black" stroke-dasharray="5,2" d="M374.08,-100.95C395.58,-88.05 426.74,-69.36 450.39,-55.16"/>
<polygon fill="black" stroke="black" points="452.28,-58.11 459.06,-49.97 448.68,-52.11 452.28,-58.11"/>
<text text-anchor="middle" x="427.5" y="-73" font-family="Times,serif" font-size="10.00">3</text>
</g>
<!-- 41&#45;&gt;13 -->
<g id="edge3" class="edge">
<title>41&#45;&gt;13</title>
<path fill="none" stroke="black" stroke-dasharray="1,5" d="M574.42,-181.82C574.69,-171.19 575.03,-157.31 575.33,-145.2"/>
<polygon fill="black" stroke="black" points="578.83,-145.24 575.58,-135.15 571.83,-145.06 578.83,-145.24"/>
<text text-anchor="middle" x="578.5" y="-156" font-family="Times,serif" font-size="10.00">2</text>
</g>
</g>
</svg>
