<?xml version="1.0" encoding="UTF-8" standalone="no"?>
<!DOCTYPE svg PUBLIC "-//W3C//DTD SVG 1.1//EN"
 "http://www.w3.org/Graphics/SVG/1.1/DTD/svg11.dtd">
<!-- Generated by graphviz version 2.43.0 (0)
 -->
<!-- Title: textual_flow_diagram Pages: 1 -->
<svg width="2082pt" height="294pt"
 viewBox="0.00 0.00 2082.00 294.00" xmlns="http://www.w3.org/2000/svg" xmlns:xlink="http://www.w3.org/1999/xlink">
<g id="graph0" class="graph" transform="scale(1 1) rotate(0) translate(4 290)">
<title>textual_flow_diagram</title>
<polygon fill="white" stroke="transparent" points="-4,4 -4,-290 2078,-290 2078,4 -4,4"/>
<g id="clust1" class="cluster">
<title>cluster_legend</title>
<polygon fill="none" stroke="black" points="8,-224 8,-278 194,-278 194,-224 8,-224"/>
</g>
<g id="clust2" class="cluster">
<title>cluster_plot</title>
</g>
<!-- label -->
<g id="node1" class="node">
<title>label</title>
<text text-anchor="middle" x="101" y="-254.8" font-family="Times,serif" font-size="14.00">adstag1.3.23U2&#45;12, a</text>
<text text-anchor="middle" x="101" y="-239.8" font-family="Times,serif" font-size="14.00">Con = 3</text>
</g>
<!-- 1 -->
<g id="node2" class="node">
<title>1</title>
<ellipse fill="none" stroke="black" cx="514" cy="-106" rx="44.39" ry="18"/>
<text text-anchor="middle" x="514" y="-102.3" font-family="Times,serif" font-size="14.00">S32 (a)</text>
</g>
<!-- 2 -->
<g id="node3" class="node">
<title>2</title>
<ellipse fill="none" stroke="black" cx="1313" cy="-106" rx="48.99" ry="18"/>
<text text-anchor="middle" x="1313" y="-102.3" font-family="Times,serif" font-size="14.00">La35 (a)</text>
</g>
<!-- 3 -->
<g id="node4" class="node">
<title>3</title>
<ellipse fill="none" stroke="black" cx="1427" cy="-106" rx="46.59" ry="18"/>
<text text-anchor="middle" x="1427" y="-102.3" font-family="Times,serif" font-size="14.00">Bodl (a)</text>
</g>
<!-- 4 -->
<g id="node5" class="node">
<title>4</title>
<ellipse fill="none" stroke="black" cx="616" cy="-106" rx="40.09" ry="18"/>
<text text-anchor="middle" x="616" y="-102.3" font-family="Times,serif" font-size="14.00">Pal (a)</text>
</g>
<!-- 5 -->
<g id="node6" class="node">
<title>5</title>
<ellipse fill="none" stroke="black" cx="718" cy="-106" rx="44.39" ry="18"/>
<text text-anchor="middle" x="718" y="-102.3" font-family="Times,serif" font-size="14.00">P01 (a)</text>
</g>
<!-- 6 -->
<g id="node7" class="node">
<title>6</title>
<ellipse fill="none" stroke="black" cx="830" cy="-34" rx="55.79" ry="18"/>
<text text-anchor="middle" x="830" y="-30.3" font-family="Times,serif" font-size="14.00">V1639 (a)</text>
</g>
<!-- 7 -->
<g id="node8" class="node">
<title>7</title>
<ellipse fill="none" stroke="black" cx="266" cy="-106" rx="55.79" ry="18"/>
<text text-anchor="middle" x="266" y="-102.3" font-family="Times,serif" font-size="14.00">V1897 (a)</text>
</g>
<!-- 12 -->
<g id="node11" class="node">
<title>12</title>
<ellipse fill="none" stroke="black" cx="260" cy="-34" rx="42.79" ry="18"/>
<text text-anchor="middle" x="260" y="-30.3" font-family="Times,serif" font-size="14.00">Bas (a)</text>
</g>
<!-- 7&#45;&gt;12 -->
<g id="edge10" class="edge">
<title>7&#45;&gt;12</title>
<path fill="none" stroke="black" d="M264.52,-87.7C263.86,-79.98 263.06,-70.71 262.32,-62.11"/>
<polygon fill="black" stroke="black" points="265.81,-61.77 261.47,-52.1 258.83,-62.37 265.81,-61.77"/>
</g>
<!-- 38 -->
<g id="node29" class="node">
<title>38</title>
<ellipse fill="none" stroke="black" cx="362" cy="-34" rx="41.69" ry="18"/>
<text text-anchor="middle" x="362" y="-30.3" font-family="Times,serif" font-size="14.00">Est (a)</text>
</g>
<!-- 7&#45;&gt;38 -->
<g id="edge27" class="edge">
<title>7&#45;&gt;38</title>
<path fill="none" stroke="black" stroke-dasharray="1,5" d="M287.78,-89.12C301.29,-79.27 318.78,-66.51 333.4,-55.86"/>
<polygon fill="black" stroke="black" points="335.6,-58.58 341.62,-49.86 331.47,-52.93 335.6,-58.58"/>
</g>
<!-- 8 -->
<g id="node9" class="node">
<title>8</title>
<ellipse fill="none" stroke="black" cx="1190" cy="-106" rx="55.79" ry="18"/>
<text text-anchor="middle" x="1190" y="-102.3" font-family="Times,serif" font-size="14.00">V1629 (a)</text>
</g>
<!-- 11 -->
<g id="node10" class="node">
<title>11</title>
<ellipse fill="none" stroke="black" cx="386" cy="-178" rx="44.69" ry="18"/>
<text text-anchor="middle" x="386" y="-174.3" font-family="Times,serif" font-size="14.00">Nan (a)</text>
</g>
<!-- 11&#45;&gt;7 -->
<g id="edge7" class="edge">
<title>11&#45;&gt;7</title>
<path fill="none" stroke="black" stroke-dasharray="1,5" d="M361.72,-162.83C344.14,-152.58 320.13,-138.57 300.55,-127.16"/>
<polygon fill="black" stroke="black" points="302.31,-124.13 291.91,-122.11 298.78,-130.18 302.31,-124.13"/>
</g>
<!-- 32 -->
<g id="node26" class="node">
<title>32</title>
<ellipse fill="none" stroke="black" cx="396" cy="-106" rx="55.79" ry="18"/>
<text text-anchor="middle" x="396" y="-102.3" font-family="Times,serif" font-size="14.00">V2250 (a)</text>
</g>
<!-- 11&#45;&gt;32 -->
<g id="edge24" class="edge">
<title>11&#45;&gt;32</title>
<path fill="none" stroke="black" stroke-dasharray="5,2" d="M388.47,-159.7C389.57,-151.98 390.9,-142.71 392.13,-134.11"/>
<polygon fill="black" stroke="black" points="395.61,-134.5 393.56,-124.1 388.68,-133.51 395.61,-134.5"/>
</g>
<!-- 13 -->
<g id="node12" class="node">
<title>13</title>
<ellipse fill="none" stroke="black" cx="501" cy="-178" rx="52.79" ry="18"/>
<text text-anchor="middle" x="501" y="-174.3" font-family="Times,serif" font-size="14.00">M136 (a)</text>
</g>
<!-- 14 -->
<g id="node13" class="node">
<title>14</title>
<ellipse fill="none" stroke="black" cx="917" cy="-251" rx="53.89" ry="18"/>
<text text-anchor="middle" x="917" y="-247.3" font-family="Times,serif" font-size="14.00">aBase (a)</text>
</g>
<!-- 14&#45;&gt;11 -->
<g id="edge9" class="edge">
<title>14&#45;&gt;11</title>
<path fill="none" stroke="black" d="M864.11,-247.45C775.38,-242.41 591.28,-228.69 439,-196 435.54,-195.26 431.99,-194.38 428.44,-193.42"/>
<polygon fill="black" stroke="black" points="429.1,-189.97 418.52,-190.55 427.15,-196.69 429.1,-189.97"/>
</g>
<!-- 14&#45;&gt;13 -->
<g id="edge11" class="edge">
<title>14&#45;&gt;13</title>
<path fill="none" stroke="black" stroke-width="2" d="M866.84,-244.21C797.93,-235.84 670.33,-218.82 563,-196 558.58,-195.06 554.01,-193.99 549.45,-192.86"/>
<polygon fill="black" stroke="black" stroke-width="2" points="550.08,-189.41 539.53,-190.31 548.34,-196.19 550.08,-189.41"/>
</g>
<!-- 17 -->
<g id="node15" class="node">
<title>17</title>
<ellipse fill="none" stroke="black" cx="616" cy="-178" rx="44.39" ry="18"/>
<text text-anchor="middle" x="616" y="-174.3" font-family="Times,serif" font-size="14.00">A25 (a)</text>
</g>
<!-- 14&#45;&gt;17 -->
<g id="edge13" class="edge">
<title>14&#45;&gt;17</title>
<path fill="none" stroke="black" stroke-dasharray="5,2" d="M870.97,-241.35C820.94,-231.63 738.79,-214.75 669,-196 665.63,-195.1 662.16,-194.11 658.68,-193.08"/>
<polygon fill="black" stroke="black" points="659.52,-189.68 648.93,-190.1 657.48,-196.37 659.52,-189.68"/>
</g>
<!-- 18 -->
<g id="node16" class="node">
<title>18</title>
<ellipse fill="none" stroke="black" cx="734" cy="-178" rx="55.79" ry="18"/>
<text text-anchor="middle" x="734" y="-174.3" font-family="Times,serif" font-size="14.00">V2036 (a)</text>
</g>
<!-- 14&#45;&gt;18 -->
<g id="edge14" class="edge">
<title>14&#45;&gt;18</title>
<path fill="none" stroke="black" d="M883.01,-236.81C853.41,-225.33 810.3,-208.6 778.06,-196.09"/>
<polygon fill="black" stroke="black" points="779.02,-192.71 768.43,-192.36 776.49,-199.24 779.02,-192.71"/>
</g>
<!-- 24 -->
<g id="node21" class="node">
<title>24</title>
<ellipse fill="none" stroke="black" cx="858" cy="-178" rx="50.09" ry="18"/>
<text text-anchor="middle" x="858" y="-174.3" font-family="Times,serif" font-size="14.00">Patm (a)</text>
</g>
<!-- 14&#45;&gt;24 -->
<g id="edge19" class="edge">
<title>14&#45;&gt;24</title>
<path fill="none" stroke="black" d="M903.32,-233.53C895.87,-224.57 886.51,-213.31 878.24,-203.36"/>
<polygon fill="black" stroke="black" points="880.69,-200.83 871.61,-195.38 875.31,-205.31 880.69,-200.83"/>
</g>
<!-- 27 -->
<g id="node23" class="node">
<title>27</title>
<ellipse fill="none" stroke="black" cx="976" cy="-178" rx="50.09" ry="18"/>
<text text-anchor="middle" x="976" y="-174.3" font-family="Times,serif" font-size="14.00">V560 (a)</text>
</g>
<!-- 14&#45;&gt;27 -->
<g id="edge21" class="edge">
<title>14&#45;&gt;27</title>
<path fill="none" stroke="black" stroke-width="2" d="M930.68,-233.53C938.13,-224.57 947.49,-213.31 955.76,-203.36"/>
<polygon fill="black" stroke="black" stroke-width="2" points="958.69,-205.31 962.39,-195.38 953.31,-200.83 958.69,-205.31"/>
</g>
<!-- 30 -->
<g id="node24" class="node">
<title>30</title>
<ellipse fill="none" stroke="black" cx="1097" cy="-178" rx="52.79" ry="18"/>
<text text-anchor="middle" x="1097" y="-174.3" font-family="Times,serif" font-size="14.00">LaSM (a)</text>
</g>
<!-- 14&#45;&gt;30 -->
<g id="edge22" class="edge">
<title>14&#45;&gt;30</title>
<path fill="none" stroke="black" d="M950.43,-236.81C979.73,-225.25 1022.49,-208.39 1054.26,-195.86"/>
<polygon fill="black" stroke="black" points="1055.73,-199.04 1063.74,-192.12 1053.16,-192.53 1055.73,-199.04"/>
</g>
<!-- 31 -->
<g id="node25" class="node">
<title>31</title>
<ellipse fill="none" stroke="black" cx="1218" cy="-178" rx="50.09" ry="18"/>
<text text-anchor="middle" x="1218" y="-174.3" font-family="Times,serif" font-size="14.00">Neap (a)</text>
</g>
<!-- 14&#45;&gt;31 -->
<g id="edge23" class="edge">
<title>14&#45;&gt;31</title>
<path fill="none" stroke="black" stroke-width="2" d="M961.8,-240.86C1010.52,-230.72 1090.6,-213.47 1159,-196 1162.84,-195.02 1166.81,-193.96 1170.79,-192.88"/>
<polygon fill="black" stroke="black" stroke-width="2" points="1171.94,-196.19 1180.64,-190.14 1170.07,-189.45 1171.94,-196.19"/>
</g>
<!-- 37 -->
<g id="node28" class="node">
<title>37</title>
<ellipse fill="none" stroke="black" cx="1536" cy="-178" rx="48.99" ry="18"/>
<text text-anchor="middle" x="1536" y="-174.3" font-family="Times,serif" font-size="14.00">La22 (a)</text>
</g>
<!-- 14&#45;&gt;37 -->
<g id="edge26" class="edge">
<title>14&#45;&gt;37</title>
<path fill="none" stroke="black" stroke-dasharray="5,2" d="M967.13,-244.25C1081.37,-231.15 1360.39,-199.14 1480.03,-185.42"/>
<polygon fill="black" stroke="black" points="1480.54,-188.88 1490.07,-184.27 1479.74,-181.93 1480.54,-188.88"/>
</g>
<!-- 42 -->
<g id="node32" class="node">
<title>42</title>
<ellipse fill="none" stroke="black" cx="1653" cy="-178" rx="50.09" ry="18"/>
<text text-anchor="middle" x="1653" y="-174.3" font-family="Times,serif" font-size="14.00">S249 (a)</text>
</g>
<!-- 14&#45;&gt;42 -->
<g id="edge30" class="edge">
<title>14&#45;&gt;42</title>
<path fill="none" stroke="black" d="M971.01,-249.36C1086.35,-247.2 1364.9,-237.71 1594,-196 1598.37,-195.21 1602.87,-194.22 1607.36,-193.13"/>
<polygon fill="black" stroke="black" points="1608.28,-196.5 1617.08,-190.59 1606.52,-189.73 1608.28,-196.5"/>
</g>
<!-- 16 -->
<g id="node14" class="node">
<title>16</title>
<ellipse fill="none" stroke="black" cx="1536" cy="-106" rx="44.39" ry="18"/>
<text text-anchor="middle" x="1536" y="-102.3" font-family="Times,serif" font-size="14.00">P74 (a)</text>
</g>
<!-- 17&#45;&gt;1 -->
<g id="edge1" class="edge">
<title>17&#45;&gt;1</title>
<path fill="none" stroke="black" stroke-dasharray="5,2" d="M594.37,-162.15C579.76,-152.13 560.28,-138.76 544.16,-127.7"/>
<polygon fill="black" stroke="black" points="545.83,-124.6 535.6,-121.82 541.87,-130.37 545.83,-124.6"/>
</g>
<!-- 17&#45;&gt;4 -->
<g id="edge4" class="edge">
<title>17&#45;&gt;4</title>
<path fill="none" stroke="black" stroke-dasharray="5,2" d="M616,-159.7C616,-151.98 616,-142.71 616,-134.11"/>
<polygon fill="black" stroke="black" points="619.5,-134.1 616,-124.1 612.5,-134.1 619.5,-134.1"/>
</g>
<!-- 17&#45;&gt;5 -->
<g id="edge5" class="edge">
<title>17&#45;&gt;5</title>
<path fill="none" stroke="black" stroke-dasharray="5,2" d="M637.63,-162.15C652.24,-152.13 671.72,-138.76 687.84,-127.7"/>
<polygon fill="black" stroke="black" points="690.13,-130.37 696.4,-121.82 686.17,-124.6 690.13,-130.37"/>
</g>
<!-- 36 -->
<g id="node27" class="node">
<title>36</title>
<ellipse fill="none" stroke="black" cx="830" cy="-106" rx="50.09" ry="18"/>
<text text-anchor="middle" x="830" y="-102.3" font-family="Times,serif" font-size="14.00">V566 (a)</text>
</g>
<!-- 17&#45;&gt;36 -->
<g id="edge25" class="edge">
<title>17&#45;&gt;36</title>
<path fill="none" stroke="black" stroke-dasharray="5,2" d="M649.44,-166.06C685.82,-154.16 744.19,-135.07 784.67,-121.83"/>
<polygon fill="black" stroke="black" points="785.89,-125.11 794.3,-118.68 783.71,-118.46 785.89,-125.11"/>
</g>
<!-- 19 -->
<g id="node17" class="node">
<title>19</title>
<ellipse fill="none" stroke="black" cx="1887" cy="-34" rx="50.09" ry="18"/>
<text text-anchor="middle" x="1887" y="-30.3" font-family="Times,serif" font-size="14.00">A336 (a)</text>
</g>
<!-- 20 -->
<g id="node18" class="node">
<title>20</title>
<ellipse fill="none" stroke="black" cx="1648" cy="-106" rx="50.09" ry="18"/>
<text text-anchor="middle" x="1648" y="-102.3" font-family="Times,serif" font-size="14.00">A116 (a)</text>
</g>
<!-- 22 -->
<g id="node19" class="node">
<title>22</title>
<ellipse fill="none" stroke="black" cx="1072" cy="-106" rx="44.39" ry="18"/>
<text text-anchor="middle" x="1072" y="-102.3" font-family="Times,serif" font-size="14.00">B39 (a)</text>
</g>
<!-- 23 -->
<g id="node20" class="node">
<title>23</title>
<ellipse fill="none" stroke="black" cx="954" cy="-106" rx="55.79" ry="18"/>
<text text-anchor="middle" x="954" y="-102.3" font-family="Times,serif" font-size="14.00">V1920 (a)</text>
</g>
<!-- 26 -->
<g id="node22" class="node">
<title>26</title>
<ellipse fill="none" stroke="black" cx="1766" cy="-106" rx="50.09" ry="18"/>
<text text-anchor="middle" x="1766" y="-102.3" font-family="Times,serif" font-size="14.00">V565 (a)</text>
</g>
<!-- 27&#45;&gt;23 -->
<g id="edge18" class="edge">
<title>27&#45;&gt;23</title>
<path fill="none" stroke="black" stroke-dasharray="5,2" d="M970.67,-160.05C968.22,-152.26 965.26,-142.82 962.51,-134.08"/>
<polygon fill="black" stroke="black" points="965.77,-132.77 959.43,-124.28 959.09,-134.86 965.77,-132.77"/>
</g>
<!-- 30&#45;&gt;22 -->
<g id="edge17" class="edge">
<title>30&#45;&gt;22</title>
<path fill="none" stroke="black" stroke-dasharray="5,2" d="M1090.95,-160.05C1088.13,-152.18 1084.72,-142.62 1081.57,-133.79"/>
<polygon fill="black" stroke="black" points="1084.83,-132.52 1078.17,-124.28 1078.24,-134.87 1084.83,-132.52"/>
</g>
<!-- 31&#45;&gt;8 -->
<g id="edge8" class="edge">
<title>31&#45;&gt;8</title>
<path fill="none" stroke="black" stroke-dasharray="1,5" d="M1211.22,-160.05C1208.07,-152.18 1204.25,-142.62 1200.72,-133.79"/>
<polygon fill="black" stroke="black" points="1203.87,-132.26 1196.91,-124.28 1197.37,-134.86 1203.87,-132.26"/>
</g>
<!-- 36&#45;&gt;6 -->
<g id="edge6" class="edge">
<title>36&#45;&gt;6</title>
<path fill="none" stroke="black" stroke-dasharray="1,5" d="M830,-87.7C830,-79.98 830,-70.71 830,-62.11"/>
<polygon fill="black" stroke="black" points="833.5,-62.1 830,-52.1 826.5,-62.1 833.5,-62.1"/>
</g>
<!-- 37&#45;&gt;2 -->
<g id="edge2" class="edge">
<title>37&#45;&gt;2</title>
<path fill="none" stroke="black" stroke-dasharray="1,5" d="M1500.17,-165.75C1461.76,-153.7 1400.66,-134.52 1358.79,-121.37"/>
<polygon fill="black" stroke="black" points="1359.7,-117.99 1349.11,-118.33 1357.6,-124.67 1359.7,-117.99"/>
</g>
<!-- 37&#45;&gt;3 -->
<g id="edge3" class="edge">
<title>37&#45;&gt;3</title>
<path fill="none" stroke="black" stroke-dasharray="5,2" d="M1512.62,-161.98C1496.85,-151.86 1475.86,-138.38 1458.6,-127.3"/>
<polygon fill="black" stroke="black" points="1460.28,-124.21 1449.97,-121.75 1456.49,-130.1 1460.28,-124.21"/>
</g>
<!-- 37&#45;&gt;16 -->
<g id="edge12" class="edge">
<title>37&#45;&gt;16</title>
<path fill="none" stroke="black" stroke-dasharray="1,5" d="M1536,-159.7C1536,-151.98 1536,-142.71 1536,-134.11"/>
<polygon fill="black" stroke="black" points="1539.5,-134.1 1536,-124.1 1532.5,-134.1 1539.5,-134.1"/>
</g>
<!-- 37&#45;&gt;20 -->
<g id="edge16" class="edge">
<title>37&#45;&gt;20</title>
<path fill="none" stroke="black" stroke-dasharray="5,2" d="M1559.75,-162.15C1575.83,-152.11 1597.28,-138.7 1615.01,-127.62"/>
<polygon fill="black" stroke="black" points="1617.27,-130.33 1623.9,-122.07 1613.56,-124.4 1617.27,-130.33"/>
</g>
<!-- 37&#45;&gt;26 -->
<g id="edge20" class="edge">
<title>37&#45;&gt;26</title>
<path fill="none" stroke="black" stroke-dasharray="5,2" d="M1572.44,-165.91C1612.16,-153.82 1675.83,-134.44 1719.22,-121.24"/>
<polygon fill="black" stroke="black" points="1720.42,-124.53 1728.96,-118.27 1718.38,-117.83 1720.42,-124.53"/>
</g>
<!-- 39 -->
<g id="node30" class="node">
<title>39</title>
<ellipse fill="none" stroke="black" cx="1887" cy="-106" rx="52.79" ry="18"/>
<text text-anchor="middle" x="1887" y="-102.3" font-family="Times,serif" font-size="14.00">M111 (a)</text>
</g>
<!-- 37&#45;&gt;39 -->
<g id="edge28" class="edge">
<title>37&#45;&gt;39</title>
<path fill="none" stroke="black" stroke-dasharray="1,5" d="M1571.7,-165.74C1579.03,-163.66 1586.73,-161.62 1594,-160 1695.4,-137.34 1723.4,-145.77 1825,-124 1829.42,-123.05 1833.99,-121.98 1838.55,-120.85"/>
<polygon fill="black" stroke="black" points="1839.66,-124.18 1848.47,-118.29 1837.91,-117.4 1839.66,-124.18"/>
</g>
<!-- 41 -->
<g id="node31" class="node">
<title>41</title>
<ellipse fill="none" stroke="black" cx="2008" cy="-106" rx="50.09" ry="18"/>
<text text-anchor="middle" x="2008" y="-102.3" font-family="Times,serif" font-size="14.00">V571 (a)</text>
</g>
<!-- 37&#45;&gt;41 -->
<g id="edge29" class="edge">
<title>37&#45;&gt;41</title>
<path fill="none" stroke="black" stroke-dasharray="1,5" d="M1571.33,-165.52C1578.75,-163.43 1586.59,-161.45 1594,-160 1749.64,-129.57 1793.29,-154.08 1949,-124 1953.18,-123.19 1957.49,-122.22 1961.79,-121.16"/>
<polygon fill="black" stroke="black" points="1962.95,-124.48 1971.74,-118.55 1961.18,-117.71 1962.95,-124.48"/>
</g>
<!-- 39&#45;&gt;19 -->
<g id="edge15" class="edge">
<title>39&#45;&gt;19</title>
<path fill="none" stroke="black" stroke-dasharray="5,2" d="M1887,-87.7C1887,-79.98 1887,-70.71 1887,-62.11"/>
<polygon fill="black" stroke="black" points="1890.5,-62.1 1887,-52.1 1883.5,-62.1 1890.5,-62.1"/>
</g>
</g>
</svg>
