<?xml version="1.0" encoding="UTF-8" standalone="no"?>
<!DOCTYPE svg PUBLIC "-//W3C//DTD SVG 1.1//EN"
 "http://www.w3.org/Graphics/SVG/1.1/DTD/svg11.dtd">
<!-- Generated by graphviz version 2.43.0 (0)
 -->
<!-- Title: textual_flow_diagram Pages: 1 -->
<svg width="910pt" height="609pt"
 viewBox="0.00 0.00 910.00 609.00" xmlns="http://www.w3.org/2000/svg" xmlns:xlink="http://www.w3.org/1999/xlink">
<g id="graph0" class="graph" transform="scale(1 1) rotate(0) translate(4 605)">
<title>textual_flow_diagram</title>
<polygon fill="white" stroke="transparent" points="-4,4 -4,-605 906,-605 906,4 -4,4"/>
<g id="clust1" class="cluster">
<title>cluster_legend</title>
<polygon fill="none" stroke="black" points="8,-539 8,-593 182,-593 182,-539 8,-539"/>
</g>
<g id="clust2" class="cluster">
<title>cluster_plot</title>
</g>
<!-- label -->
<g id="node1" class="node">
<title>label</title>
<text text-anchor="middle" x="95" y="-569.8" font-family="Times,serif" font-size="14.00">adstag1.2.40U58, b</text>
<text text-anchor="middle" x="95" y="-554.8" font-family="Times,serif" font-size="14.00">Con = 3</text>
</g>
<!-- 1 -->
<g id="node2" class="node">
<title>1</title>
<ellipse fill="none" stroke="black" cx="484" cy="-492" rx="50.09" ry="18"/>
<text text-anchor="middle" x="484" y="-488.3" font-family="Times,serif" font-size="14.00">Patm (b)</text>
</g>
<!-- 21 -->
<g id="node13" class="node">
<title>21</title>
<ellipse fill="none" stroke="black" cx="483" cy="-409" rx="44.39" ry="18"/>
<text text-anchor="middle" x="483" y="-405.3" font-family="Times,serif" font-size="14.00">P01 (b)</text>
</g>
<!-- 1&#45;&gt;21 -->
<g id="edge12" class="edge">
<title>1&#45;&gt;21</title>
<path fill="none" stroke="black" stroke-dasharray="1,5" d="M483.79,-473.82C483.66,-463.19 483.49,-449.31 483.34,-437.2"/>
<polygon fill="black" stroke="black" points="486.84,-437.11 483.21,-427.15 479.84,-437.2 486.84,-437.11"/>
<text text-anchor="middle" x="486.5" y="-448" font-family="Times,serif" font-size="10.00">2</text>
</g>
<!-- 5 -->
<g id="node3" class="node">
<title>5</title>
<ellipse fill="none" stroke="black" cx="714" cy="-492" rx="42.49" ry="18"/>
<text text-anchor="middle" x="714" y="-488.3" font-family="Times,serif" font-size="14.00">Est (b)</text>
</g>
<!-- 6 -->
<g id="node4" class="node">
<title>6</title>
<ellipse fill="none" stroke="black" cx="604" cy="-253" rx="47.39" ry="18"/>
<text text-anchor="middle" x="604" y="-249.3" font-family="Times,serif" font-size="14.00">Taur (b)</text>
</g>
<!-- 8 -->
<g id="node5" class="node">
<title>8</title>
<ellipse fill="none" stroke="black" cx="483" cy="-180" rx="50.09" ry="18"/>
<text text-anchor="middle" x="483" y="-176.3" font-family="Times,serif" font-size="14.00">Marc (b)</text>
</g>
<!-- 6&#45;&gt;8 -->
<g id="edge4" class="edge">
<title>6&#45;&gt;8</title>
<path fill="none" stroke="black" stroke-dasharray="1,5" d="M579.22,-237.46C561.23,-226.91 536.68,-212.5 516.88,-200.88"/>
<polygon fill="black" stroke="black" points="518.56,-197.81 508.16,-195.76 515.01,-203.84 518.56,-197.81"/>
</g>
<!-- 10 -->
<g id="node7" class="node">
<title>10</title>
<ellipse fill="none" stroke="black" cx="604" cy="-180" rx="53.09" ry="18"/>
<text text-anchor="middle" x="604" y="-176.3" font-family="Times,serif" font-size="14.00">M118 (b)</text>
</g>
<!-- 6&#45;&gt;10 -->
<g id="edge6" class="edge">
<title>6&#45;&gt;10</title>
<path fill="none" stroke="black" stroke-dasharray="5,2" d="M604,-234.81C604,-226.79 604,-217.05 604,-208.07"/>
<polygon fill="black" stroke="black" points="607.5,-208.03 604,-198.03 600.5,-208.03 607.5,-208.03"/>
</g>
<!-- 29 -->
<g id="node15" class="node">
<title>29</title>
<ellipse fill="none" stroke="black" cx="725" cy="-180" rx="50.09" ry="18"/>
<text text-anchor="middle" x="725" y="-176.3" font-family="Times,serif" font-size="14.00">V569 (b)</text>
</g>
<!-- 6&#45;&gt;29 -->
<g id="edge14" class="edge">
<title>6&#45;&gt;29</title>
<path fill="none" stroke="black" stroke-dasharray="5,2" d="M628.78,-237.46C646.77,-226.91 671.32,-212.5 691.12,-200.88"/>
<polygon fill="black" stroke="black" points="692.99,-203.84 699.84,-195.76 689.44,-197.81 692.99,-203.84"/>
</g>
<!-- 13 -->
<g id="node9" class="node">
<title>13</title>
<ellipse fill="none" stroke="black" cx="483" cy="-107" rx="46.59" ry="18"/>
<text text-anchor="middle" x="483" y="-103.3" font-family="Times,serif" font-size="14.00">Mon (b)</text>
</g>
<!-- 8&#45;&gt;13 -->
<g id="edge8" class="edge">
<title>8&#45;&gt;13</title>
<path fill="none" stroke="black" stroke-dasharray="1,5" d="M483,-161.81C483,-153.79 483,-144.05 483,-135.07"/>
<polygon fill="black" stroke="black" points="486.5,-135.03 483,-125.03 479.5,-135.03 486.5,-135.03"/>
</g>
<!-- 9 -->
<g id="node6" class="node">
<title>9</title>
<ellipse fill="none" stroke="black" cx="483" cy="-253" rx="44.69" ry="18"/>
<text text-anchor="middle" x="483" y="-249.3" font-family="Times,serif" font-size="14.00">B39 (b)</text>
</g>
<!-- 12 -->
<g id="node8" class="node">
<title>12</title>
<ellipse fill="none" stroke="black" cx="830" cy="-492" rx="55.79" ry="18"/>
<text text-anchor="middle" x="830" y="-488.3" font-family="Times,serif" font-size="14.00">V1920 (b)</text>
</g>
<!-- 35 -->
<g id="node17" class="node">
<title>35</title>
<ellipse fill="none" stroke="black" cx="483" cy="-34" rx="41.69" ry="18"/>
<text text-anchor="middle" x="483" y="-30.3" font-family="Times,serif" font-size="14.00">Sin (b)</text>
</g>
<!-- 13&#45;&gt;35 -->
<g id="edge16" class="edge">
<title>13&#45;&gt;35</title>
<path fill="none" stroke="black" stroke-dasharray="1,5" d="M483,-88.81C483,-80.79 483,-71.05 483,-62.07"/>
<polygon fill="black" stroke="black" points="486.5,-62.03 483,-52.03 479.5,-62.03 486.5,-62.03"/>
</g>
<!-- 17 -->
<g id="node10" class="node">
<title>17</title>
<ellipse fill="none" stroke="black" cx="603" cy="-492" rx="50.89" ry="18"/>
<text text-anchor="middle" x="603" y="-488.3" font-family="Times,serif" font-size="14.00">Neap (b)</text>
</g>
<!-- 23 -->
<g id="node14" class="node">
<title>23</title>
<ellipse fill="none" stroke="black" cx="604" cy="-409" rx="55.79" ry="18"/>
<text text-anchor="middle" x="604" y="-405.3" font-family="Times,serif" font-size="14.00">V1629 (b)</text>
</g>
<!-- 17&#45;&gt;23 -->
<g id="edge13" class="edge">
<title>17&#45;&gt;23</title>
<path fill="none" stroke="black" stroke-dasharray="1,5" d="M603.21,-473.82C603.34,-463.19 603.51,-449.31 603.66,-437.2"/>
<polygon fill="black" stroke="black" points="607.16,-437.2 603.79,-427.15 600.16,-437.11 607.16,-437.2"/>
</g>
<!-- 18 -->
<g id="node11" class="node">
<title>18</title>
<ellipse fill="none" stroke="black" cx="248" cy="-492" rx="50.09" ry="18"/>
<text text-anchor="middle" x="248" y="-488.3" font-family="Times,serif" font-size="14.00">V565 (b)</text>
</g>
<!-- 20 -->
<g id="node12" class="node">
<title>20</title>
<ellipse fill="none" stroke="black" cx="346" cy="-326" rx="65.79" ry="18"/>
<text text-anchor="middle" x="346" y="-322.3" font-family="Times,serif" font-size="14.00">Savile&#45;Η (b)</text>
</g>
<!-- 21&#45;&gt;20 -->
<g id="edge11" class="edge">
<title>21&#45;&gt;20</title>
<path fill="none" stroke="black" d="M458.82,-393.71C437.2,-380.92 405.26,-362.04 380.88,-347.62"/>
<polygon fill="black" stroke="black" points="382.66,-344.61 372.27,-342.53 379.1,-350.63 382.66,-344.61"/>
<text text-anchor="middle" x="425.5" y="-365" font-family="Times,serif" font-size="10.00">2</text>
</g>
<!-- 39 -->
<g id="node19" class="node">
<title>39</title>
<ellipse fill="none" stroke="black" cx="483" cy="-326" rx="53.09" ry="18"/>
<text text-anchor="middle" x="483" y="-322.3" font-family="Times,serif" font-size="14.00">LaSM (b)</text>
</g>
<!-- 21&#45;&gt;39 -->
<g id="edge18" class="edge">
<title>21&#45;&gt;39</title>
<path fill="none" stroke="black" stroke-dasharray="5,2" d="M483,-390.82C483,-380.19 483,-366.31 483,-354.2"/>
<polygon fill="black" stroke="black" points="486.5,-354.15 483,-344.15 479.5,-354.15 486.5,-354.15"/>
<text text-anchor="middle" x="486.5" y="-365" font-family="Times,serif" font-size="10.00">2</text>
</g>
<!-- 33 -->
<g id="node16" class="node">
<title>33</title>
<ellipse fill="none" stroke="black" cx="604" cy="-326" rx="50.09" ry="18"/>
<text text-anchor="middle" x="604" y="-322.3" font-family="Times,serif" font-size="14.00">V568 (b)</text>
</g>
<!-- 23&#45;&gt;33 -->
<g id="edge15" class="edge">
<title>23&#45;&gt;33</title>
<path fill="none" stroke="black" stroke-dasharray="5,2" d="M604,-390.82C604,-380.19 604,-366.31 604,-354.2"/>
<polygon fill="black" stroke="black" points="607.5,-354.15 604,-344.15 600.5,-354.15 607.5,-354.15"/>
</g>
<!-- 33&#45;&gt;6 -->
<g id="edge3" class="edge">
<title>33&#45;&gt;6</title>
<path fill="none" stroke="black" stroke-dasharray="1,5" d="M604,-307.81C604,-299.79 604,-290.05 604,-281.07"/>
<polygon fill="black" stroke="black" points="607.5,-281.03 604,-271.03 600.5,-281.03 607.5,-281.03"/>
</g>
<!-- 38 -->
<g id="node18" class="node">
<title>38</title>
<ellipse fill="none" stroke="black" cx="366" cy="-492" rx="50.09" ry="18"/>
<text text-anchor="middle" x="366" y="-488.3" font-family="Times,serif" font-size="14.00">A116 (b)</text>
</g>
<!-- 39&#45;&gt;9 -->
<g id="edge5" class="edge">
<title>39&#45;&gt;9</title>
<path fill="none" stroke="black" stroke-dasharray="5,2" d="M483,-307.81C483,-299.79 483,-290.05 483,-281.07"/>
<polygon fill="black" stroke="black" points="486.5,-281.03 483,-271.03 479.5,-281.03 486.5,-281.03"/>
</g>
<!-- 2 -->
<g id="node20" class="node">
<title>2</title>
<ellipse fill="none" stroke="blue" stroke-dasharray="5,2" cx="836" cy="-566" rx="50.09" ry="18"/>
<text text-anchor="middle" x="836" y="-562.3" font-family="Times,serif" font-size="14.00">V560 (a)</text>
</g>
<!-- 2&#45;&gt;12 -->
<g id="edge7" class="edge">
<title>2&#45;&gt;12</title>
<path fill="none" stroke="blue" stroke-dasharray="5,2" d="M834.58,-547.94C833.9,-539.81 833.07,-529.88 832.31,-520.7"/>
<polygon fill="blue" stroke="blue" points="835.77,-520.12 831.45,-510.44 828.8,-520.7 835.77,-520.12"/>
</g>
<!-- 7 -->
<g id="node21" class="node">
<title>7</title>
<ellipse fill="none" stroke="blue" stroke-dasharray="5,2" cx="712" cy="-566" rx="55.79" ry="18"/>
<text text-anchor="middle" x="712" y="-562.3" font-family="Times,serif" font-size="14.00">V1897 (a)</text>
</g>
<!-- 7&#45;&gt;5 -->
<g id="edge2" class="edge">
<title>7&#45;&gt;5</title>
<path fill="none" stroke="blue" stroke-dasharray="1,5" d="M712.47,-547.94C712.7,-539.81 712.98,-529.88 713.23,-520.7"/>
<polygon fill="blue" stroke="blue" points="716.74,-520.53 713.52,-510.44 709.74,-520.34 716.74,-520.53"/>
</g>
<!-- 11 -->
<g id="node22" class="node">
<title>11</title>
<ellipse fill="none" stroke="blue" stroke-dasharray="5,2" cx="584" cy="-566" rx="53.89" ry="18"/>
<text text-anchor="middle" x="584" y="-562.3" font-family="Times,serif" font-size="14.00">aBase (a)</text>
</g>
<!-- 11&#45;&gt;17 -->
<g id="edge9" class="edge">
<title>11&#45;&gt;17</title>
<path fill="none" stroke="blue" stroke-width="2" d="M588.5,-547.94C590.73,-539.51 593.46,-529.14 595.96,-519.7"/>
<polygon fill="blue" stroke="blue" stroke-width="2" points="599.36,-520.5 598.53,-509.94 592.59,-518.72 599.36,-520.5"/>
</g>
<!-- 22 -->
<g id="node23" class="node">
<title>22</title>
<ellipse fill="none" stroke="blue" stroke-dasharray="5,2" cx="468" cy="-566" rx="44.39" ry="18"/>
<text text-anchor="middle" x="468" y="-562.3" font-family="Times,serif" font-size="14.00">A25 (a)</text>
</g>
<!-- 22&#45;&gt;1 -->
<g id="edge1" class="edge">
<title>22&#45;&gt;1</title>
<path fill="none" stroke="blue" stroke-dasharray="1,5" d="M471.79,-547.94C473.62,-539.72 475.85,-529.66 477.91,-520.41"/>
<polygon fill="blue" stroke="blue" points="481.37,-520.96 480.12,-510.44 474.54,-519.44 481.37,-520.96"/>
</g>
<!-- 26 -->
<g id="node24" class="node">
<title>26</title>
<ellipse fill="none" stroke="blue" stroke-dasharray="5,2" cx="293" cy="-566" rx="48.99" ry="18"/>
<text text-anchor="middle" x="293" y="-562.3" font-family="Times,serif" font-size="14.00">La22 (a)</text>
</g>
<!-- 26&#45;&gt;18 -->
<g id="edge10" class="edge">
<title>26&#45;&gt;18</title>
<path fill="none" stroke="blue" stroke-dasharray="5,2" d="M282.56,-548.3C277,-539.4 270.03,-528.25 263.82,-518.31"/>
<polygon fill="blue" stroke="blue" points="266.65,-516.23 258.38,-509.61 260.71,-519.94 266.65,-516.23"/>
</g>
<!-- 26&#45;&gt;38 -->
<g id="edge17" class="edge">
<title>26&#45;&gt;38</title>
<path fill="none" stroke="blue" stroke-dasharray="5,2" d="M309.2,-549.02C318.96,-539.39 331.56,-526.97 342.41,-516.26"/>
<polygon fill="blue" stroke="blue" points="344.93,-518.7 349.59,-509.18 340.01,-513.71 344.93,-518.7"/>
</g>
</g>
</svg>
