<?xml version="1.0" encoding="UTF-8" standalone="no"?>
<!DOCTYPE svg PUBLIC "-//W3C//DTD SVG 1.1//EN"
 "http://www.w3.org/Graphics/SVG/1.1/DTD/svg11.dtd">
<!-- Generated by graphviz version 2.43.0 (0)
 -->
<!-- Title: textual_flow_diagram Pages: 1 -->
<svg width="464pt" height="222pt"
 viewBox="0.00 0.00 464.00 222.00" xmlns="http://www.w3.org/2000/svg" xmlns:xlink="http://www.w3.org/1999/xlink">
<g id="graph0" class="graph" transform="scale(1 1) rotate(0) translate(4 218)">
<title>textual_flow_diagram</title>
<polygon fill="white" stroke="transparent" points="-4,4 -4,-218 460,-218 460,4 -4,4"/>
<g id="clust1" class="cluster">
<title>cluster_legend</title>
<polygon fill="none" stroke="black" points="8,-152 8,-206 204,-206 204,-152 8,-152"/>
</g>
<g id="clust2" class="cluster">
<title>cluster_plot</title>
</g>
<!-- label -->
<g id="node1" class="node">
<title>label</title>
<text text-anchor="middle" x="106" y="-182.8" font-family="Times,serif" font-size="14.00">adstag1.2.40U48&#45;50, h</text>
<text text-anchor="middle" x="106" y="-167.8" font-family="Times,serif" font-size="14.00">Con = 1</text>
</g>
<!-- 5 -->
<g id="node2" class="node">
<title>5</title>
<ellipse fill="none" stroke="black" cx="276" cy="-34" rx="42.49" ry="18"/>
<text text-anchor="middle" x="276" y="-30.3" font-family="Times,serif" font-size="14.00">Est (h)</text>
</g>
<!-- 7 -->
<g id="node3" class="node">
<title>7</title>
<ellipse fill="none" stroke="black" cx="276" cy="-106" rx="55.79" ry="18"/>
<text text-anchor="middle" x="276" y="-102.3" font-family="Times,serif" font-size="14.00">V1897 (h)</text>
</g>
<!-- 7&#45;&gt;5 -->
<g id="edge1" class="edge">
<title>7&#45;&gt;5</title>
<path fill="none" stroke="black" stroke-dasharray="1,5" d="M276,-87.7C276,-79.98 276,-70.71 276,-62.11"/>
<polygon fill="black" stroke="black" points="279.5,-62.1 276,-52.1 272.5,-62.1 279.5,-62.1"/>
</g>
<!-- 36 -->
<g id="node4" class="node">
<title>36</title>
<ellipse fill="none" stroke="black" cx="395" cy="-106" rx="45.49" ry="18"/>
<text text-anchor="middle" x="395" y="-102.3" font-family="Times,serif" font-size="14.00">Nan (h)</text>
</g>
<!-- 11 -->
<g id="node5" class="node">
<title>11</title>
<ellipse fill="none" stroke="blue" stroke-dasharray="5,2" cx="331" cy="-179" rx="53.89" ry="18"/>
<text text-anchor="middle" x="331" y="-175.3" font-family="Times,serif" font-size="14.00">aBase (a)</text>
</g>
<!-- 11&#45;&gt;7 -->
<g id="edge2" class="edge">
<title>11&#45;&gt;7</title>
<path fill="none" stroke="blue" d="M317.97,-161.17C311.18,-152.42 302.76,-141.55 295.25,-131.85"/>
<polygon fill="blue" stroke="blue" points="297.83,-129.47 288.94,-123.71 292.3,-133.75 297.83,-129.47"/>
</g>
<!-- 11&#45;&gt;36 -->
<g id="edge3" class="edge">
<title>11&#45;&gt;36</title>
<path fill="none" stroke="blue" d="M345.84,-161.53C354,-152.48 364.27,-141.09 373.31,-131.06"/>
<polygon fill="blue" stroke="blue" points="376.14,-133.15 380.24,-123.38 370.94,-128.46 376.14,-133.15"/>
</g>
</g>
</svg>
