<?xml version="1.0" encoding="UTF-8" standalone="no"?>
<!DOCTYPE svg PUBLIC "-//W3C//DTD SVG 1.1//EN"
 "http://www.w3.org/Graphics/SVG/1.1/DTD/svg11.dtd">
<!-- Generated by graphviz version 2.43.0 (0)
 -->
<!-- Title: textual_flow_diagram Pages: 1 -->
<svg width="1973pt" height="654pt"
 viewBox="0.00 0.00 1973.00 654.00" xmlns="http://www.w3.org/2000/svg" xmlns:xlink="http://www.w3.org/1999/xlink">
<g id="graph0" class="graph" transform="scale(1 1) rotate(0) translate(4 650)">
<title>textual_flow_diagram</title>
<polygon fill="white" stroke="transparent" points="-4,4 -4,-650 1969,-650 1969,4 -4,4"/>
<g id="clust1" class="cluster">
<title>cluster_legend</title>
<polygon fill="none" stroke="black" points="8,-584 8,-638 204,-638 204,-584 8,-584"/>
</g>
<g id="clust2" class="cluster">
<title>cluster_plot</title>
</g>
<!-- label -->
<g id="node1" class="node">
<title>label</title>
<text text-anchor="middle" x="106" y="-614.8" font-family="Times,serif" font-size="14.00">adstag1.3.75U28&#45;30, a</text>
<text text-anchor="middle" x="106" y="-599.8" font-family="Times,serif" font-size="14.00">Con = 5</text>
</g>
<!-- 0 -->
<g id="node2" class="node">
<title>0</title>
<ellipse fill="none" stroke="black" cx="418" cy="-538" rx="50.09" ry="18"/>
<text text-anchor="middle" x="418" y="-534.3" font-family="Times,serif" font-size="14.00">Neap (a)</text>
</g>
<!-- 19 -->
<g id="node19" class="node">
<title>19</title>
<ellipse fill="none" stroke="black" cx="276" cy="-466" rx="55.79" ry="18"/>
<text text-anchor="middle" x="276" y="-462.3" font-family="Times,serif" font-size="14.00">V1629 (a)</text>
</g>
<!-- 0&#45;&gt;19 -->
<g id="edge18" class="edge">
<title>0&#45;&gt;19</title>
<path fill="none" stroke="black" stroke-dasharray="1,5" d="M389.61,-523C368.03,-512.37 338.12,-497.62 314.4,-485.93"/>
<polygon fill="black" stroke="black" points="315.84,-482.74 305.32,-481.45 312.74,-489.02 315.84,-482.74"/>
</g>
<!-- 1 -->
<g id="node3" class="node">
<title>1</title>
<ellipse fill="none" stroke="black" cx="679" cy="-538" rx="50.09" ry="18"/>
<text text-anchor="middle" x="679" y="-534.3" font-family="Times,serif" font-size="14.00">Patm (a)</text>
</g>
<!-- 2 -->
<g id="node4" class="node">
<title>2</title>
<ellipse fill="none" stroke="black" cx="276" cy="-322" rx="50.09" ry="18"/>
<text text-anchor="middle" x="276" y="-318.3" font-family="Times,serif" font-size="14.00">V568 (a)</text>
</g>
<!-- 21 -->
<g id="node21" class="node">
<title>21</title>
<ellipse fill="none" stroke="black" cx="276" cy="-250" rx="46.59" ry="18"/>
<text text-anchor="middle" x="276" y="-246.3" font-family="Times,serif" font-size="14.00">Taur (a)</text>
</g>
<!-- 2&#45;&gt;21 -->
<g id="edge19" class="edge">
<title>2&#45;&gt;21</title>
<path fill="none" stroke="black" stroke-dasharray="1,5" d="M276,-303.7C276,-295.98 276,-286.71 276,-278.11"/>
<polygon fill="black" stroke="black" points="279.5,-278.1 276,-268.1 272.5,-278.1 279.5,-278.1"/>
</g>
<!-- 3 -->
<g id="node5" class="node">
<title>3</title>
<ellipse fill="none" stroke="black" cx="394" cy="-466" rx="44.39" ry="18"/>
<text text-anchor="middle" x="394" y="-462.3" font-family="Times,serif" font-size="14.00">P74 (a)</text>
</g>
<!-- 4 -->
<g id="node6" class="node">
<title>4</title>
<ellipse fill="none" stroke="black" cx="273" cy="-106" rx="46.29" ry="18"/>
<text text-anchor="middle" x="273" y="-102.3" font-family="Times,serif" font-size="14.00">Mon (a)</text>
</g>
<!-- 23 -->
<g id="node23" class="node">
<title>23</title>
<ellipse fill="none" stroke="black" cx="273" cy="-34" rx="40.89" ry="18"/>
<text text-anchor="middle" x="273" y="-30.3" font-family="Times,serif" font-size="14.00">Sin (a)</text>
</g>
<!-- 4&#45;&gt;23 -->
<g id="edge21" class="edge">
<title>4&#45;&gt;23</title>
<path fill="none" stroke="black" stroke-dasharray="1,5" d="M273,-87.7C273,-79.98 273,-70.71 273,-62.11"/>
<polygon fill="black" stroke="black" points="276.5,-62.1 273,-52.1 269.5,-62.1 276.5,-62.1"/>
</g>
<!-- 5 -->
<g id="node7" class="node">
<title>5</title>
<ellipse fill="none" stroke="black" cx="796" cy="-538" rx="48.99" ry="18"/>
<text text-anchor="middle" x="796" y="-534.3" font-family="Times,serif" font-size="14.00">La22 (a)</text>
</g>
<!-- 5&#45;&gt;3 -->
<g id="edge4" class="edge">
<title>5&#45;&gt;3</title>
<path fill="none" stroke="black" stroke-dasharray="1,5" d="M760.34,-525.56C753.01,-523.49 745.3,-521.51 738,-520 610.39,-493.59 574.27,-512.02 447,-484 443.39,-483.21 439.68,-482.27 435.97,-481.25"/>
<polygon fill="black" stroke="black" points="436.83,-477.86 426.25,-478.4 434.86,-484.57 436.83,-477.86"/>
</g>
<!-- 6 -->
<g id="node8" class="node">
<title>6</title>
<ellipse fill="none" stroke="black" cx="506" cy="-466" rx="50.09" ry="18"/>
<text text-anchor="middle" x="506" y="-462.3" font-family="Times,serif" font-size="14.00">V565 (a)</text>
</g>
<!-- 5&#45;&gt;6 -->
<g id="edge7" class="edge">
<title>5&#45;&gt;6</title>
<path fill="none" stroke="black" stroke-dasharray="5,2" d="M759.61,-525.85C752.47,-523.8 745.02,-521.76 738,-520 661.81,-500.94 641.23,-502.89 565,-484 560.98,-483.01 556.83,-481.92 552.67,-480.8"/>
<polygon fill="black" stroke="black" points="553.59,-477.42 543.02,-478.13 551.73,-484.17 553.59,-477.42"/>
</g>
<!-- 9 -->
<g id="node10" class="node">
<title>9</title>
<ellipse fill="none" stroke="black" cx="623" cy="-466" rx="48.99" ry="18"/>
<text text-anchor="middle" x="623" y="-462.3" font-family="Times,serif" font-size="14.00">La35 (a)</text>
</g>
<!-- 5&#45;&gt;9 -->
<g id="edge9" class="edge">
<title>5&#45;&gt;9</title>
<path fill="none" stroke="black" stroke-dasharray="1,5" d="M764.27,-524.16C736.1,-512.76 694.77,-496.04 664.09,-483.63"/>
<polygon fill="black" stroke="black" points="665.11,-480.26 654.53,-479.76 662.49,-486.75 665.11,-480.26"/>
</g>
<!-- 14 -->
<g id="node15" class="node">
<title>14</title>
<ellipse fill="none" stroke="black" cx="740" cy="-466" rx="50.09" ry="18"/>
<text text-anchor="middle" x="740" y="-462.3" font-family="Times,serif" font-size="14.00">V571 (a)</text>
</g>
<!-- 5&#45;&gt;14 -->
<g id="edge14" class="edge">
<title>5&#45;&gt;14</title>
<path fill="none" stroke="black" stroke-dasharray="1,5" d="M782.73,-520.41C775.82,-511.78 767.25,-501.06 759.6,-491.5"/>
<polygon fill="black" stroke="black" points="762.16,-489.09 753.18,-483.47 756.69,-493.47 762.16,-489.09"/>
</g>
<!-- 32 -->
<g id="node30" class="node">
<title>32</title>
<ellipse fill="none" stroke="black" cx="855" cy="-466" rx="46.59" ry="18"/>
<text text-anchor="middle" x="855" y="-462.3" font-family="Times,serif" font-size="14.00">Bodl (a)</text>
</g>
<!-- 5&#45;&gt;32 -->
<g id="edge28" class="edge">
<title>5&#45;&gt;32</title>
<path fill="none" stroke="black" stroke-dasharray="5,2" d="M809.98,-520.41C817.33,-511.69 826.47,-500.85 834.6,-491.21"/>
<polygon fill="black" stroke="black" points="837.35,-493.37 841.12,-483.47 832,-488.86 837.35,-493.37"/>
</g>
<!-- 37 -->
<g id="node34" class="node">
<title>37</title>
<ellipse fill="none" stroke="black" cx="972" cy="-466" rx="52.79" ry="18"/>
<text text-anchor="middle" x="972" y="-462.3" font-family="Times,serif" font-size="14.00">M111 (a)</text>
</g>
<!-- 5&#45;&gt;37 -->
<g id="edge32" class="edge">
<title>5&#45;&gt;37</title>
<path fill="none" stroke="black" stroke-dasharray="1,5" d="M827.87,-524.32C856.33,-513.01 898.23,-496.34 929.52,-483.89"/>
<polygon fill="black" stroke="black" points="930.87,-487.12 938.87,-480.18 928.29,-480.62 930.87,-487.12"/>
</g>
<!-- 8 -->
<g id="node9" class="node">
<title>8</title>
<ellipse fill="none" stroke="black" cx="1695" cy="-394" rx="55.79" ry="18"/>
<text text-anchor="middle" x="1695" y="-390.3" font-family="Times,serif" font-size="14.00">V1639 (a)</text>
</g>
<!-- 10 -->
<g id="node11" class="node">
<title>10</title>
<ellipse fill="none" stroke="black" cx="971" cy="-538" rx="52.79" ry="18"/>
<text text-anchor="middle" x="971" y="-534.3" font-family="Times,serif" font-size="14.00">LaSM (a)</text>
</g>
<!-- 25 -->
<g id="node24" class="node">
<title>25</title>
<ellipse fill="none" stroke="black" cx="1087" cy="-466" rx="44.39" ry="18"/>
<text text-anchor="middle" x="1087" y="-462.3" font-family="Times,serif" font-size="14.00">B39 (a)</text>
</g>
<!-- 10&#45;&gt;25 -->
<g id="edge22" class="edge">
<title>10&#45;&gt;25</title>
<path fill="none" stroke="black" stroke-dasharray="5,2" d="M995.88,-521.98C1013.05,-511.63 1036.03,-497.76 1054.62,-486.54"/>
<polygon fill="black" stroke="black" points="1056.59,-489.44 1063.34,-481.27 1052.97,-483.45 1056.59,-489.44"/>
</g>
<!-- 11 -->
<g id="node12" class="node">
<title>11</title>
<ellipse fill="none" stroke="black" cx="1583" cy="-466" rx="44.39" ry="18"/>
<text text-anchor="middle" x="1583" y="-462.3" font-family="Times,serif" font-size="14.00">S32 (a)</text>
</g>
<!-- 12 -->
<g id="node13" class="node">
<title>12</title>
<ellipse fill="none" stroke="black" cx="1695" cy="-466" rx="50.09" ry="18"/>
<text text-anchor="middle" x="1695" y="-462.3" font-family="Times,serif" font-size="14.00">V566 (a)</text>
</g>
<!-- 12&#45;&gt;8 -->
<g id="edge8" class="edge">
<title>12&#45;&gt;8</title>
<path fill="none" stroke="black" stroke-dasharray="1,5" d="M1695,-447.7C1695,-439.98 1695,-430.71 1695,-422.11"/>
<polygon fill="black" stroke="black" points="1698.5,-422.1 1695,-412.1 1691.5,-422.1 1698.5,-422.1"/>
</g>
<!-- 13 -->
<g id="node14" class="node">
<title>13</title>
<ellipse fill="none" stroke="black" cx="1098" cy="-538" rx="55.79" ry="18"/>
<text text-anchor="middle" x="1098" y="-534.3" font-family="Times,serif" font-size="14.00">V2036 (a)</text>
</g>
<!-- 15 -->
<g id="node16" class="node">
<title>15</title>
<ellipse fill="none" stroke="black" cx="1222" cy="-538" rx="50.09" ry="18"/>
<text text-anchor="middle" x="1222" y="-534.3" font-family="Times,serif" font-size="14.00">V560 (a)</text>
</g>
<!-- 18 -->
<g id="node18" class="node">
<title>18</title>
<ellipse fill="none" stroke="black" cx="1205" cy="-466" rx="55.79" ry="18"/>
<text text-anchor="middle" x="1205" y="-462.3" font-family="Times,serif" font-size="14.00">V1920 (a)</text>
</g>
<!-- 15&#45;&gt;18 -->
<g id="edge17" class="edge">
<title>15&#45;&gt;18</title>
<path fill="none" stroke="black" stroke-dasharray="5,2" d="M1217.88,-520.05C1215.99,-512.26 1213.7,-502.82 1211.58,-494.08"/>
<polygon fill="black" stroke="black" points="1214.96,-493.17 1209.2,-484.28 1208.15,-494.82 1214.96,-493.17"/>
</g>
<!-- 17 -->
<g id="node17" class="node">
<title>17</title>
<ellipse fill="none" stroke="black" cx="1807" cy="-466" rx="44.39" ry="18"/>
<text text-anchor="middle" x="1807" y="-462.3" font-family="Times,serif" font-size="14.00">P01 (a)</text>
</g>
<!-- 34 -->
<g id="node32" class="node">
<title>34</title>
<ellipse fill="none" stroke="black" cx="276" cy="-394" rx="50.09" ry="18"/>
<text text-anchor="middle" x="276" y="-390.3" font-family="Times,serif" font-size="14.00">V536 (a)</text>
</g>
<!-- 19&#45;&gt;34 -->
<g id="edge30" class="edge">
<title>19&#45;&gt;34</title>
<path fill="none" stroke="black" stroke-dasharray="5,2" d="M276,-447.7C276,-439.98 276,-430.71 276,-422.11"/>
<polygon fill="black" stroke="black" points="279.5,-422.1 276,-412.1 272.5,-422.1 279.5,-422.1"/>
</g>
<!-- 20 -->
<g id="node20" class="node">
<title>20</title>
<ellipse fill="none" stroke="black" cx="1160" cy="-611" rx="53.89" ry="18"/>
<text text-anchor="middle" x="1160" y="-607.3" font-family="Times,serif" font-size="14.00">aBase (a)</text>
</g>
<!-- 20&#45;&gt;0 -->
<g id="edge1" class="edge">
<title>20&#45;&gt;0</title>
<path fill="none" stroke="black" stroke-width="2" d="M1109,-605.12C975.64,-592.36 617.16,-558.06 476.13,-544.56"/>
<polygon fill="black" stroke="black" stroke-width="2" points="476.25,-541.06 465.96,-543.59 475.58,-548.03 476.25,-541.06"/>
</g>
<!-- 20&#45;&gt;1 -->
<g id="edge2" class="edge">
<title>20&#45;&gt;1</title>
<path fill="none" stroke="black" d="M1107.93,-605.92C1027.83,-599.07 869.82,-583.26 738,-556 733.83,-555.14 729.53,-554.13 725.23,-553.05"/>
<polygon fill="black" stroke="black" points="725.85,-549.59 715.29,-550.4 724.05,-556.35 725.85,-549.59"/>
</g>
<!-- 20&#45;&gt;5 -->
<g id="edge6" class="edge">
<title>20&#45;&gt;5</title>
<path fill="none" stroke="black" stroke-dasharray="5,2" d="M1114.64,-601.15C1046.88,-587.94 919.59,-563.11 848.11,-549.16"/>
<polygon fill="black" stroke="black" points="848.47,-545.67 837.98,-547.19 847.13,-552.54 848.47,-545.67"/>
</g>
<!-- 20&#45;&gt;10 -->
<g id="edge10" class="edge">
<title>20&#45;&gt;10</title>
<path fill="none" stroke="black" d="M1125.33,-596.98C1094.2,-585.28 1048.34,-568.06 1014.71,-555.42"/>
<polygon fill="black" stroke="black" points="1015.72,-552.06 1005.13,-551.82 1013.26,-558.61 1015.72,-552.06"/>
</g>
<!-- 20&#45;&gt;13 -->
<g id="edge13" class="edge">
<title>20&#45;&gt;13</title>
<path fill="none" stroke="black" d="M1145.62,-593.53C1137.83,-584.61 1128.05,-573.41 1119.38,-563.49"/>
<polygon fill="black" stroke="black" points="1121.95,-561.1 1112.73,-555.87 1116.67,-565.71 1121.95,-561.1"/>
</g>
<!-- 20&#45;&gt;15 -->
<g id="edge15" class="edge">
<title>20&#45;&gt;15</title>
<path fill="none" stroke="black" stroke-width="2" d="M1174.38,-593.53C1182.28,-584.48 1192.23,-573.09 1200.99,-563.06"/>
<polygon fill="black" stroke="black" stroke-width="2" points="1203.76,-565.21 1207.7,-555.38 1198.48,-560.61 1203.76,-565.21"/>
</g>
<!-- 22 -->
<g id="node22" class="node">
<title>22</title>
<ellipse fill="none" stroke="black" cx="1335" cy="-538" rx="44.69" ry="18"/>
<text text-anchor="middle" x="1335" y="-534.3" font-family="Times,serif" font-size="14.00">Nan (a)</text>
</g>
<!-- 20&#45;&gt;22 -->
<g id="edge20" class="edge">
<title>20&#45;&gt;22</title>
<path fill="none" stroke="black" d="M1192.92,-596.65C1221.86,-584.9 1264.08,-567.77 1294.97,-555.24"/>
<polygon fill="black" stroke="black" points="1296.62,-558.35 1304.57,-551.34 1293.99,-551.86 1296.62,-558.35"/>
</g>
<!-- 29 -->
<g id="node27" class="node">
<title>29</title>
<ellipse fill="none" stroke="black" cx="1441" cy="-538" rx="42.79" ry="18"/>
<text text-anchor="middle" x="1441" y="-534.3" font-family="Times,serif" font-size="14.00">La2 (a)</text>
</g>
<!-- 20&#45;&gt;29 -->
<g id="edge25" class="edge">
<title>20&#45;&gt;29</title>
<path fill="none" stroke="black" stroke-width="2" d="M1204.61,-600.65C1250.97,-590.66 1325.49,-573.84 1389,-556 1392.3,-555.07 1395.7,-554.07 1399.12,-553.03"/>
<polygon fill="black" stroke="black" stroke-width="2" points="1400.18,-556.36 1408.67,-550.04 1398.09,-549.68 1400.18,-556.36"/>
</g>
<!-- 33 -->
<g id="node31" class="node">
<title>33</title>
<ellipse fill="none" stroke="black" cx="1639" cy="-538" rx="44.39" ry="18"/>
<text text-anchor="middle" x="1639" y="-534.3" font-family="Times,serif" font-size="14.00">A25 (a)</text>
</g>
<!-- 20&#45;&gt;33 -->
<g id="edge29" class="edge">
<title>20&#45;&gt;33</title>
<path fill="none" stroke="black" stroke-dasharray="5,2" d="M1208.57,-602.8C1299.69,-589.29 1495.47,-560.28 1588.24,-546.52"/>
<polygon fill="black" stroke="black" points="1588.85,-549.97 1598.23,-545.04 1587.83,-543.05 1588.85,-549.97"/>
</g>
<!-- 42 -->
<g id="node38" class="node">
<title>42</title>
<ellipse fill="none" stroke="black" cx="1751" cy="-538" rx="50.09" ry="18"/>
<text text-anchor="middle" x="1751" y="-534.3" font-family="Times,serif" font-size="14.00">S249 (a)</text>
</g>
<!-- 20&#45;&gt;42 -->
<g id="edge36" class="edge">
<title>20&#45;&gt;42</title>
<path fill="none" stroke="black" d="M1213.32,-607.75C1309.65,-603 1518.81,-589.46 1692,-556 1696.18,-555.19 1700.49,-554.22 1704.79,-553.16"/>
<polygon fill="black" stroke="black" points="1705.95,-556.48 1714.74,-550.55 1704.18,-549.7 1705.95,-556.48"/>
</g>
<!-- 30 -->
<g id="node28" class="node">
<title>30</title>
<ellipse fill="none" stroke="black" cx="273" cy="-178" rx="50.09" ry="18"/>
<text text-anchor="middle" x="273" y="-174.3" font-family="Times,serif" font-size="14.00">Marc (a)</text>
</g>
<!-- 21&#45;&gt;30 -->
<g id="edge26" class="edge">
<title>21&#45;&gt;30</title>
<path fill="none" stroke="black" stroke-dasharray="1,5" d="M275.26,-231.7C274.93,-223.98 274.53,-214.71 274.16,-206.11"/>
<polygon fill="black" stroke="black" points="277.66,-205.95 273.73,-196.1 270.66,-206.25 277.66,-205.95"/>
</g>
<!-- 39 -->
<g id="node35" class="node">
<title>39</title>
<ellipse fill="none" stroke="black" cx="394" cy="-178" rx="52.79" ry="18"/>
<text text-anchor="middle" x="394" y="-174.3" font-family="Times,serif" font-size="14.00">M118 (a)</text>
</g>
<!-- 21&#45;&gt;39 -->
<g id="edge33" class="edge">
<title>21&#45;&gt;39</title>
<path fill="none" stroke="black" stroke-dasharray="5,2" d="M300.45,-234.5C317.7,-224.26 341.03,-210.42 360.08,-199.12"/>
<polygon fill="black" stroke="black" points="361.95,-202.08 368.77,-193.97 358.38,-196.06 361.95,-202.08"/>
</g>
<!-- 26 -->
<g id="node25" class="node">
<title>26</title>
<ellipse fill="none" stroke="black" cx="1335" cy="-466" rx="55.79" ry="18"/>
<text text-anchor="middle" x="1335" y="-462.3" font-family="Times,serif" font-size="14.00">V1897 (a)</text>
</g>
<!-- 22&#45;&gt;26 -->
<g id="edge23" class="edge">
<title>22&#45;&gt;26</title>
<path fill="none" stroke="black" stroke-dasharray="1,5" d="M1335,-519.7C1335,-511.98 1335,-502.71 1335,-494.11"/>
<polygon fill="black" stroke="black" points="1338.5,-494.1 1335,-484.1 1331.5,-494.1 1338.5,-494.1"/>
</g>
<!-- 27 -->
<g id="node26" class="node">
<title>27</title>
<ellipse fill="none" stroke="black" cx="1465" cy="-466" rx="55.79" ry="18"/>
<text text-anchor="middle" x="1465" y="-462.3" font-family="Times,serif" font-size="14.00">V2250 (a)</text>
</g>
<!-- 22&#45;&gt;27 -->
<g id="edge24" class="edge">
<title>22&#45;&gt;27</title>
<path fill="none" stroke="black" stroke-dasharray="5,2" d="M1360.68,-523.17C1380.11,-512.71 1407.03,-498.21 1428.67,-486.56"/>
<polygon fill="black" stroke="black" points="1430.43,-489.59 1437.57,-481.77 1427.11,-483.43 1430.43,-489.59"/>
</g>
<!-- 35 -->
<g id="node33" class="node">
<title>35</title>
<ellipse fill="none" stroke="black" cx="1284" cy="-394" rx="41.69" ry="18"/>
<text text-anchor="middle" x="1284" y="-390.3" font-family="Times,serif" font-size="14.00">Est (a)</text>
</g>
<!-- 26&#45;&gt;35 -->
<g id="edge31" class="edge">
<title>26&#45;&gt;35</title>
<path fill="none" stroke="black" stroke-dasharray="1,5" d="M1322.91,-448.41C1316.69,-439.87 1308.97,-429.28 1302.06,-419.79"/>
<polygon fill="black" stroke="black" points="1304.72,-417.49 1296,-411.47 1299.06,-421.61 1304.72,-417.49"/>
</g>
<!-- 40 -->
<g id="node36" class="node">
<title>40</title>
<ellipse fill="none" stroke="black" cx="1386" cy="-394" rx="42.79" ry="18"/>
<text text-anchor="middle" x="1386" y="-390.3" font-family="Times,serif" font-size="14.00">Bas (a)</text>
</g>
<!-- 26&#45;&gt;40 -->
<g id="edge34" class="edge">
<title>26&#45;&gt;40</title>
<path fill="none" stroke="black" d="M1347.09,-448.41C1353.31,-439.87 1361.03,-429.28 1367.94,-419.79"/>
<polygon fill="black" stroke="black" points="1370.94,-421.61 1374,-411.47 1365.28,-417.49 1370.94,-421.61"/>
</g>
<!-- 30&#45;&gt;4 -->
<g id="edge5" class="edge">
<title>30&#45;&gt;4</title>
<path fill="none" stroke="black" stroke-dasharray="1,5" d="M273,-159.7C273,-151.98 273,-142.71 273,-134.11"/>
<polygon fill="black" stroke="black" points="276.5,-134.1 273,-124.1 269.5,-134.1 276.5,-134.1"/>
</g>
<!-- 31 -->
<g id="node29" class="node">
<title>31</title>
<ellipse fill="none" stroke="black" cx="1909" cy="-466" rx="40.09" ry="18"/>
<text text-anchor="middle" x="1909" y="-462.3" font-family="Times,serif" font-size="14.00">Pal (a)</text>
</g>
<!-- 33&#45;&gt;11 -->
<g id="edge11" class="edge">
<title>33&#45;&gt;11</title>
<path fill="none" stroke="black" stroke-dasharray="5,2" d="M1626.01,-520.76C1619.11,-512.14 1610.49,-501.36 1602.78,-491.73"/>
<polygon fill="black" stroke="black" points="1605.29,-489.26 1596.31,-483.63 1599.82,-493.63 1605.29,-489.26"/>
</g>
<!-- 33&#45;&gt;12 -->
<g id="edge12" class="edge">
<title>33&#45;&gt;12</title>
<path fill="none" stroke="black" stroke-dasharray="5,2" d="M1651.99,-520.76C1658.89,-512.14 1667.51,-501.36 1675.22,-491.73"/>
<polygon fill="black" stroke="black" points="1678.18,-493.63 1681.69,-483.63 1672.71,-489.26 1678.18,-493.63"/>
</g>
<!-- 33&#45;&gt;17 -->
<g id="edge16" class="edge">
<title>33&#45;&gt;17</title>
<path fill="none" stroke="black" stroke-dasharray="5,2" d="M1668.65,-524.65C1696.19,-513.17 1737.39,-496.01 1767.67,-483.39"/>
<polygon fill="black" stroke="black" points="1769.2,-486.54 1777.08,-479.47 1766.51,-480.08 1769.2,-486.54"/>
</g>
<!-- 33&#45;&gt;31 -->
<g id="edge27" class="edge">
<title>33&#45;&gt;31</title>
<path fill="none" stroke="black" stroke-dasharray="5,2" d="M1671.93,-525.88C1678.54,-523.8 1685.46,-521.74 1692,-520 1765.78,-500.31 1786.46,-504.55 1860,-484 1862.98,-483.17 1866.05,-482.25 1869.12,-481.29"/>
<polygon fill="black" stroke="black" points="1870.44,-484.54 1878.86,-478.11 1868.27,-477.88 1870.44,-484.54"/>
</g>
<!-- 34&#45;&gt;2 -->
<g id="edge3" class="edge">
<title>34&#45;&gt;2</title>
<path fill="none" stroke="black" stroke-dasharray="1,5" d="M276,-375.7C276,-367.98 276,-358.71 276,-350.11"/>
<polygon fill="black" stroke="black" points="279.5,-350.1 276,-340.1 272.5,-350.1 279.5,-350.1"/>
</g>
<!-- 41 -->
<g id="node37" class="node">
<title>41</title>
<ellipse fill="none" stroke="black" cx="972" cy="-394" rx="50.09" ry="18"/>
<text text-anchor="middle" x="972" y="-390.3" font-family="Times,serif" font-size="14.00">A336 (a)</text>
</g>
<!-- 37&#45;&gt;41 -->
<g id="edge35" class="edge">
<title>37&#45;&gt;41</title>
<path fill="none" stroke="black" stroke-dasharray="5,2" d="M972,-447.7C972,-439.98 972,-430.71 972,-422.11"/>
<polygon fill="black" stroke="black" points="975.5,-422.1 972,-412.1 968.5,-422.1 975.5,-422.1"/>
</g>
</g>
</svg>
