<?xml version="1.0" encoding="UTF-8" standalone="no"?>
<!DOCTYPE svg PUBLIC "-//W3C//DTD SVG 1.1//EN"
 "http://www.w3.org/Graphics/SVG/1.1/DTD/svg11.dtd">
<!-- Generated by graphviz version 2.43.0 (0)
 -->
<!-- Title: textual_flow_diagram Pages: 1 -->
<svg width="599pt" height="682pt"
 viewBox="0.00 0.00 599.00 682.00" xmlns="http://www.w3.org/2000/svg" xmlns:xlink="http://www.w3.org/1999/xlink">
<g id="graph0" class="graph" transform="scale(1 1) rotate(0) translate(4 678)">
<title>textual_flow_diagram</title>
<polygon fill="white" stroke="transparent" points="-4,4 -4,-678 595,-678 595,4 -4,4"/>
<g id="clust1" class="cluster">
<title>cluster_legend</title>
<polygon fill="none" stroke="black" points="8,-612 8,-666 204,-666 204,-612 8,-612"/>
</g>
<g id="clust2" class="cluster">
<title>cluster_plot</title>
</g>
<!-- label -->
<g id="node1" class="node">
<title>label</title>
<text text-anchor="middle" x="106" y="-642.8" font-family="Times,serif" font-size="14.00">adstag1.3.43U16&#45;18, c</text>
<text text-anchor="middle" x="106" y="-627.8" font-family="Times,serif" font-size="14.00">Con = 10</text>
</g>
<!-- 0 -->
<g id="node2" class="node">
<title>0</title>
<ellipse fill="none" stroke="black" cx="275" cy="-399" rx="55.49" ry="18"/>
<text text-anchor="middle" x="275" y="-395.3" font-family="Times,serif" font-size="14.00">V2250 (c)</text>
</g>
<!-- 8 -->
<g id="node3" class="node">
<title>8</title>
<ellipse fill="none" stroke="black" cx="455" cy="-565" rx="49.29" ry="18"/>
<text text-anchor="middle" x="455" y="-561.3" font-family="Times,serif" font-size="14.00">V571 (c)</text>
</g>
<!-- 9 -->
<g id="node4" class="node">
<title>9</title>
<ellipse fill="none" stroke="black" cx="403" cy="-482" rx="44.39" ry="18"/>
<text text-anchor="middle" x="403" y="-478.3" font-family="Times,serif" font-size="14.00">Nan (c)</text>
</g>
<!-- 8&#45;&gt;9 -->
<g id="edge3" class="edge">
<title>8&#45;&gt;9</title>
<path fill="none" stroke="black" stroke-dasharray="5,2" d="M444.23,-547.22C437,-535.96 427.34,-520.92 419.19,-508.22"/>
<polygon fill="black" stroke="black" points="421.93,-506.01 413.58,-499.48 416.04,-509.79 421.93,-506.01"/>
<text text-anchor="middle" x="435.5" y="-521" font-family="Times,serif" font-size="10.00">6</text>
</g>
<!-- 30 -->
<g id="node12" class="node">
<title>30</title>
<ellipse fill="none" stroke="black" cx="507" cy="-482" rx="42.49" ry="18"/>
<text text-anchor="middle" x="507" y="-478.3" font-family="Times,serif" font-size="14.00">La2 (c)</text>
</g>
<!-- 8&#45;&gt;30 -->
<g id="edge11" class="edge">
<title>8&#45;&gt;30</title>
<path fill="none" stroke="black" d="M465.77,-547.22C473,-535.96 482.66,-520.92 490.81,-508.22"/>
<polygon fill="black" stroke="black" points="493.96,-509.79 496.42,-499.48 488.07,-506.01 493.96,-509.79"/>
<text text-anchor="middle" x="487.5" y="-521" font-family="Times,serif" font-size="10.00">4</text>
</g>
<!-- 9&#45;&gt;0 -->
<g id="edge1" class="edge">
<title>9&#45;&gt;0</title>
<path fill="none" stroke="black" stroke-dasharray="5,2" d="M380.12,-466.52C360.06,-453.82 330.65,-435.22 308.04,-420.91"/>
<polygon fill="black" stroke="black" points="309.75,-417.85 299.43,-415.46 306.01,-423.76 309.75,-417.85"/>
</g>
<!-- 12 -->
<g id="node6" class="node">
<title>12</title>
<ellipse fill="none" stroke="black" cx="403" cy="-399" rx="55.49" ry="18"/>
<text text-anchor="middle" x="403" y="-395.3" font-family="Times,serif" font-size="14.00">V1897 (c)</text>
</g>
<!-- 9&#45;&gt;12 -->
<g id="edge5" class="edge">
<title>9&#45;&gt;12</title>
<path fill="none" stroke="black" stroke-dasharray="1,5" d="M403,-463.82C403,-453.19 403,-439.31 403,-427.2"/>
<polygon fill="black" stroke="black" points="406.5,-427.15 403,-417.15 399.5,-427.15 406.5,-427.15"/>
</g>
<!-- 41 -->
<g id="node14" class="node">
<title>41</title>
<ellipse fill="none" stroke="black" cx="526" cy="-399" rx="49.29" ry="18"/>
<text text-anchor="middle" x="526" y="-395.3" font-family="Times,serif" font-size="14.00">V536 (c)</text>
</g>
<!-- 9&#45;&gt;41 -->
<g id="edge13" class="edge">
<title>9&#45;&gt;41</title>
<path fill="none" stroke="black" stroke-width="2" d="M425.27,-466.33C444.62,-453.59 472.86,-434.99 494.52,-420.73"/>
<polygon fill="black" stroke="black" stroke-width="2" points="496.63,-423.53 503.06,-415.11 492.78,-417.69 496.63,-423.53"/>
<text text-anchor="middle" x="474.5" y="-438" font-family="Times,serif" font-size="10.00">3</text>
</g>
<!-- 10 -->
<g id="node5" class="node">
<title>10</title>
<ellipse fill="none" stroke="black" cx="448" cy="-253" rx="46.29" ry="18"/>
<text text-anchor="middle" x="448" y="-249.3" font-family="Times,serif" font-size="14.00">Taur (c)</text>
</g>
<!-- 15 -->
<g id="node7" class="node">
<title>15</title>
<ellipse fill="none" stroke="black" cx="287" cy="-180" rx="49.29" ry="18"/>
<text text-anchor="middle" x="287" y="-176.3" font-family="Times,serif" font-size="14.00">Marc (c)</text>
</g>
<!-- 10&#45;&gt;15 -->
<g id="edge6" class="edge">
<title>10&#45;&gt;15</title>
<path fill="none" stroke="black" stroke-dasharray="1,5" d="M418.47,-238.98C392.62,-227.58 354.84,-210.92 326.41,-198.38"/>
<polygon fill="black" stroke="black" points="327.72,-195.13 317.16,-194.3 324.9,-201.54 327.72,-195.13"/>
</g>
<!-- 18 -->
<g id="node8" class="node">
<title>18</title>
<ellipse fill="none" stroke="black" cx="404" cy="-180" rx="49.29" ry="18"/>
<text text-anchor="middle" x="404" y="-176.3" font-family="Times,serif" font-size="14.00">V569 (c)</text>
</g>
<!-- 10&#45;&gt;18 -->
<g id="edge7" class="edge">
<title>10&#45;&gt;18</title>
<path fill="none" stroke="black" stroke-dasharray="5,2" d="M437.57,-235.17C432.26,-226.6 425.68,-215.99 419.76,-206.44"/>
<polygon fill="black" stroke="black" points="422.6,-204.36 414.35,-197.71 416.65,-208.05 422.6,-204.36"/>
</g>
<!-- 20 -->
<g id="node9" class="node">
<title>20</title>
<ellipse fill="none" stroke="black" cx="523" cy="-180" rx="51.99" ry="18"/>
<text text-anchor="middle" x="523" y="-176.3" font-family="Times,serif" font-size="14.00">M118 (c)</text>
</g>
<!-- 10&#45;&gt;20 -->
<g id="edge8" class="edge">
<title>10&#45;&gt;20</title>
<path fill="none" stroke="black" stroke-dasharray="5,2" d="M465.02,-235.89C474.99,-226.45 487.75,-214.37 498.76,-203.95"/>
<polygon fill="black" stroke="black" points="501.19,-206.46 506.05,-197.05 496.38,-201.38 501.19,-206.46"/>
</g>
<!-- 39 -->
<g id="node13" class="node">
<title>39</title>
<ellipse fill="none" stroke="black" cx="287" cy="-107" rx="46.29" ry="18"/>
<text text-anchor="middle" x="287" y="-103.3" font-family="Times,serif" font-size="14.00">Mon (c)</text>
</g>
<!-- 15&#45;&gt;39 -->
<g id="edge12" class="edge">
<title>15&#45;&gt;39</title>
<path fill="none" stroke="black" stroke-dasharray="1,5" d="M287,-161.81C287,-153.79 287,-144.05 287,-135.07"/>
<polygon fill="black" stroke="black" points="290.5,-135.03 287,-125.03 283.5,-135.03 290.5,-135.03"/>
</g>
<!-- 25 -->
<g id="node10" class="node">
<title>25</title>
<ellipse fill="none" stroke="black" cx="287" cy="-34" rx="40.09" ry="18"/>
<text text-anchor="middle" x="287" y="-30.3" font-family="Times,serif" font-size="14.00">Sin (c)</text>
</g>
<!-- 26 -->
<g id="node11" class="node">
<title>26</title>
<ellipse fill="none" stroke="black" cx="517" cy="-326" rx="49.29" ry="18"/>
<text text-anchor="middle" x="517" y="-322.3" font-family="Times,serif" font-size="14.00">V568 (c)</text>
</g>
<!-- 26&#45;&gt;10 -->
<g id="edge4" class="edge">
<title>26&#45;&gt;10</title>
<path fill="none" stroke="black" stroke-dasharray="1,5" d="M501.34,-308.89C492.26,-299.54 480.65,-287.6 470.59,-277.25"/>
<polygon fill="black" stroke="black" points="473.07,-274.78 463.6,-270.05 468.05,-279.66 473.07,-274.78"/>
</g>
<!-- 39&#45;&gt;25 -->
<g id="edge9" class="edge">
<title>39&#45;&gt;25</title>
<path fill="none" stroke="black" stroke-dasharray="1,5" d="M287,-88.81C287,-80.79 287,-71.05 287,-62.07"/>
<polygon fill="black" stroke="black" points="290.5,-62.03 287,-52.03 283.5,-62.03 290.5,-62.03"/>
</g>
<!-- 41&#45;&gt;26 -->
<g id="edge10" class="edge">
<title>41&#45;&gt;26</title>
<path fill="none" stroke="black" stroke-dasharray="1,5" d="M523.82,-380.81C522.8,-372.79 521.57,-363.05 520.43,-354.07"/>
<polygon fill="black" stroke="black" points="523.89,-353.51 519.16,-344.03 516.94,-354.39 523.89,-353.51"/>
</g>
<!-- 36 -->
<g id="node15" class="node">
<title>36</title>
<ellipse fill="none" stroke="blue" stroke-dasharray="5,2" cx="455" cy="-639" rx="48.99" ry="18"/>
<text text-anchor="middle" x="455" y="-635.3" font-family="Times,serif" font-size="14.00">La22 (a)</text>
</g>
<!-- 36&#45;&gt;8 -->
<g id="edge2" class="edge">
<title>36&#45;&gt;8</title>
<path fill="none" stroke="blue" stroke-dasharray="1,5" d="M455,-620.94C455,-612.81 455,-602.88 455,-593.7"/>
<polygon fill="blue" stroke="blue" points="458.5,-593.44 455,-583.44 451.5,-593.44 458.5,-593.44"/>
</g>
</g>
</svg>
