<?xml version="1.0" encoding="UTF-8" standalone="no"?>
<!DOCTYPE svg PUBLIC "-//W3C//DTD SVG 1.1//EN"
 "http://www.w3.org/Graphics/SVG/1.1/DTD/svg11.dtd">
<!-- Generated by graphviz version 2.43.0 (0)
 -->
<!-- Title: textual_flow_diagram Pages: 1 -->
<svg width="356pt" height="234pt"
 viewBox="0.00 0.00 356.00 234.00" xmlns="http://www.w3.org/2000/svg" xmlns:xlink="http://www.w3.org/1999/xlink">
<g id="graph0" class="graph" transform="scale(1 1) rotate(0) translate(4 230)">
<title>textual_flow_diagram</title>
<polygon fill="white" stroke="transparent" points="-4,4 -4,-230 352,-230 352,4 -4,4"/>
<g id="clust1" class="cluster">
<title>cluster_legend</title>
<polygon fill="none" stroke="black" points="8,-164 8,-218 204,-218 204,-164 8,-164"/>
</g>
<g id="clust2" class="cluster">
<title>cluster_plot</title>
</g>
<!-- label -->
<g id="node1" class="node">
<title>label</title>
<text text-anchor="middle" x="106" y="-194.8" font-family="Times,serif" font-size="14.00">adstag1.3.72U30&#45;36, b</text>
<text text-anchor="middle" x="106" y="-179.8" font-family="Times,serif" font-size="14.00">Con = 5</text>
</g>
<!-- 27 -->
<g id="node2" class="node">
<title>27</title>
<ellipse fill="none" stroke="black" cx="276" cy="-117" rx="55.79" ry="18"/>
<text text-anchor="middle" x="276" y="-113.3" font-family="Times,serif" font-size="14.00">V2250 (b)</text>
</g>
<!-- 40 -->
<g id="node3" class="node">
<title>40</title>
<ellipse fill="none" stroke="black" cx="276" cy="-34" rx="43.59" ry="18"/>
<text text-anchor="middle" x="276" y="-30.3" font-family="Times,serif" font-size="14.00">Bas (b)</text>
</g>
<!-- 27&#45;&gt;40 -->
<g id="edge2" class="edge">
<title>27&#45;&gt;40</title>
<path fill="none" stroke="black" stroke-dasharray="5,2" d="M276,-98.82C276,-88.19 276,-74.31 276,-62.2"/>
<polygon fill="black" stroke="black" points="279.5,-62.15 276,-52.15 272.5,-62.15 279.5,-62.15"/>
<text text-anchor="middle" x="279.5" y="-73" font-family="Times,serif" font-size="10.00">5</text>
</g>
<!-- 22 -->
<g id="node4" class="node">
<title>22</title>
<ellipse fill="none" stroke="blue" stroke-dasharray="5,2" cx="276" cy="-191" rx="44.69" ry="18"/>
<text text-anchor="middle" x="276" y="-187.3" font-family="Times,serif" font-size="14.00">Nan (a)</text>
</g>
<!-- 22&#45;&gt;27 -->
<g id="edge1" class="edge">
<title>22&#45;&gt;27</title>
<path fill="none" stroke="blue" stroke-dasharray="5,2" d="M276,-172.94C276,-164.81 276,-154.88 276,-145.7"/>
<polygon fill="blue" stroke="blue" points="279.5,-145.44 276,-135.44 272.5,-145.44 279.5,-145.44"/>
</g>
</g>
</svg>
