<?xml version="1.0" encoding="UTF-8" standalone="no"?>
<!DOCTYPE svg PUBLIC "-//W3C//DTD SVG 1.1//EN"
 "http://www.w3.org/Graphics/SVG/1.1/DTD/svg11.dtd">
<!-- Generated by graphviz version 2.43.0 (0)
 -->
<!-- Title: textual_flow_diagram Pages: 1 -->
<svg width="557pt" height="380pt"
 viewBox="0.00 0.00 557.00 380.00" xmlns="http://www.w3.org/2000/svg" xmlns:xlink="http://www.w3.org/1999/xlink">
<g id="graph0" class="graph" transform="scale(1 1) rotate(0) translate(4 376)">
<title>textual_flow_diagram</title>
<polygon fill="white" stroke="transparent" points="-4,4 -4,-376 553,-376 553,4 -4,4"/>
<g id="clust1" class="cluster">
<title>cluster_legend</title>
<polygon fill="none" stroke="black" points="8,-310 8,-364 182,-364 182,-310 8,-310"/>
</g>
<g id="clust2" class="cluster">
<title>cluster_plot</title>
</g>
<!-- label -->
<g id="node1" class="node">
<title>label</title>
<text text-anchor="middle" x="95" y="-340.8" font-family="Times,serif" font-size="14.00">adstag1.3.11U30, b</text>
<text text-anchor="middle" x="95" y="-325.8" font-family="Times,serif" font-size="14.00">Con = 5</text>
</g>
<!-- 11 -->
<g id="node2" class="node">
<title>11</title>
<ellipse fill="none" stroke="black" cx="482" cy="-107" rx="47.39" ry="18"/>
<text text-anchor="middle" x="482" y="-103.3" font-family="Times,serif" font-size="14.00">Taur (b)</text>
</g>
<!-- 29 -->
<g id="node4" class="node">
<title>29</title>
<ellipse fill="none" stroke="black" cx="480" cy="-34" rx="53.09" ry="18"/>
<text text-anchor="middle" x="480" y="-30.3" font-family="Times,serif" font-size="14.00">M118 (b)</text>
</g>
<!-- 11&#45;&gt;29 -->
<g id="edge3" class="edge">
<title>11&#45;&gt;29</title>
<path fill="none" stroke="black" stroke-dasharray="5,2" d="M481.52,-88.81C481.29,-80.79 481.02,-71.05 480.76,-62.07"/>
<polygon fill="black" stroke="black" points="484.26,-61.93 480.48,-52.03 477.26,-62.12 484.26,-61.93"/>
</g>
<!-- 27 -->
<g id="node3" class="node">
<title>27</title>
<ellipse fill="none" stroke="black" cx="254" cy="-263" rx="50.09" ry="18"/>
<text text-anchor="middle" x="254" y="-259.3" font-family="Times,serif" font-size="14.00">V560 (b)</text>
</g>
<!-- 41 -->
<g id="node7" class="node">
<title>41</title>
<ellipse fill="none" stroke="black" cx="254" cy="-180" rx="55.79" ry="18"/>
<text text-anchor="middle" x="254" y="-176.3" font-family="Times,serif" font-size="14.00">V1920 (b)</text>
</g>
<!-- 27&#45;&gt;41 -->
<g id="edge6" class="edge">
<title>27&#45;&gt;41</title>
<path fill="none" stroke="black" stroke-dasharray="5,2" d="M254,-244.82C254,-234.19 254,-220.31 254,-208.2"/>
<polygon fill="black" stroke="black" points="257.5,-208.15 254,-198.15 250.5,-208.15 257.5,-208.15"/>
</g>
<!-- 35 -->
<g id="node5" class="node">
<title>35</title>
<ellipse fill="none" stroke="black" cx="371" cy="-180" rx="43.59" ry="18"/>
<text text-anchor="middle" x="371" y="-176.3" font-family="Times,serif" font-size="14.00">Bas (b)</text>
</g>
<!-- 38 -->
<g id="node6" class="node">
<title>38</title>
<ellipse fill="none" stroke="black" cx="483" cy="-180" rx="50.09" ry="18"/>
<text text-anchor="middle" x="483" y="-176.3" font-family="Times,serif" font-size="14.00">V568 (b)</text>
</g>
<!-- 38&#45;&gt;11 -->
<g id="edge1" class="edge">
<title>38&#45;&gt;11</title>
<path fill="none" stroke="black" stroke-dasharray="1,5" d="M482.76,-161.81C482.64,-153.79 482.51,-144.05 482.38,-135.07"/>
<polygon fill="black" stroke="black" points="485.88,-134.98 482.24,-125.03 478.88,-135.08 485.88,-134.98"/>
</g>
<!-- 42 -->
<g id="node8" class="node">
<title>42</title>
<ellipse fill="none" stroke="black" cx="386" cy="-263" rx="55.79" ry="18"/>
<text text-anchor="middle" x="386" y="-259.3" font-family="Times,serif" font-size="14.00">V1897 (b)</text>
</g>
<!-- 42&#45;&gt;35 -->
<g id="edge4" class="edge">
<title>42&#45;&gt;35</title>
<path fill="none" stroke="black" d="M382.82,-244.82C380.85,-234.19 378.28,-220.31 376.04,-208.2"/>
<polygon fill="black" stroke="black" points="379.44,-207.35 374.18,-198.15 372.56,-208.62 379.44,-207.35"/>
</g>
<!-- 42&#45;&gt;38 -->
<g id="edge5" class="edge">
<title>42&#45;&gt;38</title>
<path fill="none" stroke="black" stroke-width="2" d="M405.16,-246C419.74,-233.83 439.98,-216.93 456.16,-203.41"/>
<polygon fill="black" stroke="black" stroke-width="2" points="458.77,-205.79 464.21,-196.69 454.29,-200.42 458.77,-205.79"/>
<text text-anchor="middle" x="443.5" y="-219" font-family="Times,serif" font-size="10.00">4</text>
</g>
<!-- 23 -->
<g id="node9" class="node">
<title>23</title>
<ellipse fill="none" stroke="blue" stroke-dasharray="5,2" cx="386" cy="-337" rx="44.39" ry="18"/>
<text text-anchor="middle" x="386" y="-333.3" font-family="Times,serif" font-size="14.00">Nan (c)</text>
</g>
<!-- 23&#45;&gt;42 -->
<g id="edge7" class="edge">
<title>23&#45;&gt;42</title>
<path fill="none" stroke="blue" stroke-dasharray="1,5" d="M386,-318.94C386,-310.81 386,-300.88 386,-291.7"/>
<polygon fill="blue" stroke="blue" points="389.5,-291.44 386,-281.44 382.5,-291.44 389.5,-291.44"/>
</g>
<!-- 40 -->
<g id="node10" class="node">
<title>40</title>
<ellipse fill="none" stroke="blue" stroke-dasharray="5,2" cx="254" cy="-337" rx="53.89" ry="18"/>
<text text-anchor="middle" x="254" y="-333.3" font-family="Times,serif" font-size="14.00">aBase (a)</text>
</g>
<!-- 40&#45;&gt;27 -->
<g id="edge2" class="edge">
<title>40&#45;&gt;27</title>
<path fill="none" stroke="blue" stroke-width="2" d="M254,-318.94C254,-310.81 254,-300.88 254,-291.7"/>
<polygon fill="blue" stroke="blue" stroke-width="2" points="257.5,-291.44 254,-281.44 250.5,-291.44 257.5,-291.44"/>
</g>
</g>
</svg>
