<?xml version="1.0" encoding="UTF-8" standalone="no"?>
<!DOCTYPE svg PUBLIC "-//W3C//DTD SVG 1.1//EN"
 "http://www.w3.org/Graphics/SVG/1.1/DTD/svg11.dtd">
<!-- Generated by graphviz version 2.43.0 (0)
 -->
<!-- Title: textual_flow_diagram Pages: 1 -->
<svg width="1608pt" height="654pt"
 viewBox="0.00 0.00 1608.00 654.00" xmlns="http://www.w3.org/2000/svg" xmlns:xlink="http://www.w3.org/1999/xlink">
<g id="graph0" class="graph" transform="scale(1 1) rotate(0) translate(4 650)">
<title>textual_flow_diagram</title>
<polygon fill="white" stroke="transparent" points="-4,4 -4,-650 1604,-650 1604,4 -4,4"/>
<g id="clust1" class="cluster">
<title>cluster_legend</title>
<polygon fill="none" stroke="black" points="8,-584 8,-638 172,-638 172,-584 8,-584"/>
</g>
<g id="clust2" class="cluster">
<title>cluster_plot</title>
</g>
<!-- label -->
<g id="node1" class="node">
<title>label</title>
<text text-anchor="middle" x="90" y="-614.8" font-family="Times,serif" font-size="14.00">adstag1.1.21U8, a</text>
<text text-anchor="middle" x="90" y="-599.8" font-family="Times,serif" font-size="14.00">Con = 1</text>
</g>
<!-- 0 -->
<g id="node2" class="node">
<title>0</title>
<ellipse fill="none" stroke="black" cx="1426" cy="-322" rx="50.09" ry="18"/>
<text text-anchor="middle" x="1426" y="-318.3" font-family="Times,serif" font-size="14.00">V568 (a)</text>
</g>
<!-- 38 -->
<g id="node31" class="node">
<title>38</title>
<ellipse fill="none" stroke="black" cx="1415" cy="-250" rx="46.59" ry="18"/>
<text text-anchor="middle" x="1415" y="-246.3" font-family="Times,serif" font-size="14.00">Taur (a)</text>
</g>
<!-- 0&#45;&gt;38 -->
<g id="edge29" class="edge">
<title>0&#45;&gt;38</title>
<path fill="none" stroke="black" stroke-dasharray="1,5" d="M1423.28,-303.7C1422.07,-295.98 1420.61,-286.71 1419.26,-278.11"/>
<polygon fill="black" stroke="black" points="1422.7,-277.44 1417.69,-268.1 1415.78,-278.53 1422.7,-277.44"/>
</g>
<!-- 3 -->
<g id="node3" class="node">
<title>3</title>
<ellipse fill="none" stroke="black" cx="244" cy="-394" rx="55.79" ry="18"/>
<text text-anchor="middle" x="244" y="-390.3" font-family="Times,serif" font-size="14.00">V2036 (a)</text>
</g>
<!-- 5 -->
<g id="node4" class="node">
<title>5</title>
<ellipse fill="none" stroke="black" cx="371" cy="-466" rx="50.09" ry="18"/>
<text text-anchor="middle" x="371" y="-462.3" font-family="Times,serif" font-size="14.00">Patm (a)</text>
</g>
<!-- 5&#45;&gt;3 -->
<g id="edge2" class="edge">
<title>5&#45;&gt;3</title>
<path fill="none" stroke="black" stroke-dasharray="1,5" d="M344.69,-450.5C325.95,-440.17 300.55,-426.17 279.95,-414.82"/>
<polygon fill="black" stroke="black" points="281.6,-411.73 271.16,-409.97 278.23,-417.86 281.6,-411.73"/>
</g>
<!-- 21 -->
<g id="node18" class="node">
<title>21</title>
<ellipse fill="none" stroke="black" cx="371" cy="-394" rx="52.79" ry="18"/>
<text text-anchor="middle" x="371" y="-390.3" font-family="Times,serif" font-size="14.00">LaSM (a)</text>
</g>
<!-- 5&#45;&gt;21 -->
<g id="edge17" class="edge">
<title>5&#45;&gt;21</title>
<path fill="none" stroke="black" stroke-dasharray="5,2" d="M371,-447.7C371,-439.98 371,-430.71 371,-422.11"/>
<polygon fill="black" stroke="black" points="374.5,-422.1 371,-412.1 367.5,-422.1 374.5,-422.1"/>
</g>
<!-- 6 -->
<g id="node5" class="node">
<title>6</title>
<ellipse fill="none" stroke="black" cx="490" cy="-394" rx="48.99" ry="18"/>
<text text-anchor="middle" x="490" y="-390.3" font-family="Times,serif" font-size="14.00">La35 (a)</text>
</g>
<!-- 7 -->
<g id="node6" class="node">
<title>7</title>
<ellipse fill="none" stroke="black" cx="842" cy="-466" rx="44.39" ry="18"/>
<text text-anchor="middle" x="842" y="-462.3" font-family="Times,serif" font-size="14.00">S32 (a)</text>
</g>
<!-- 9 -->
<g id="node7" class="node">
<title>9</title>
<ellipse fill="none" stroke="black" cx="609" cy="-394" rx="52.79" ry="18"/>
<text text-anchor="middle" x="609" y="-390.3" font-family="Times,serif" font-size="14.00">M111 (a)</text>
</g>
<!-- 10 -->
<g id="node8" class="node">
<title>10</title>
<ellipse fill="none" stroke="black" cx="1432" cy="-394" rx="50.09" ry="18"/>
<text text-anchor="middle" x="1432" y="-390.3" font-family="Times,serif" font-size="14.00">V536 (a)</text>
</g>
<!-- 10&#45;&gt;0 -->
<g id="edge1" class="edge">
<title>10&#45;&gt;0</title>
<path fill="none" stroke="black" stroke-dasharray="1,5" d="M1430.52,-375.7C1429.86,-367.98 1429.06,-358.71 1428.32,-350.11"/>
<polygon fill="black" stroke="black" points="1431.81,-349.77 1427.47,-340.1 1424.83,-350.37 1431.81,-349.77"/>
</g>
<!-- 11 -->
<g id="node9" class="node">
<title>11</title>
<ellipse fill="none" stroke="black" cx="882" cy="-538" rx="42.79" ry="18"/>
<text text-anchor="middle" x="882" y="-534.3" font-family="Times,serif" font-size="14.00">La2 (a)</text>
</g>
<!-- 12 -->
<g id="node10" class="node">
<title>12</title>
<ellipse fill="none" stroke="black" cx="730" cy="-394" rx="50.09" ry="18"/>
<text text-anchor="middle" x="730" y="-390.3" font-family="Times,serif" font-size="14.00">A116 (a)</text>
</g>
<!-- 13 -->
<g id="node11" class="node">
<title>13</title>
<ellipse fill="none" stroke="black" cx="953" cy="-466" rx="48.99" ry="18"/>
<text text-anchor="middle" x="953" y="-462.3" font-family="Times,serif" font-size="14.00">La22 (a)</text>
</g>
<!-- 13&#45;&gt;6 -->
<g id="edge4" class="edge">
<title>13&#45;&gt;6</title>
<path fill="none" stroke="black" stroke-dasharray="1,5" d="M917.67,-453.54C910.24,-451.44 902.41,-449.46 895,-448 742.43,-418.01 699.5,-442.35 547,-412 543.07,-411.22 539.02,-410.28 534.97,-409.26"/>
<polygon fill="black" stroke="black" points="535.58,-405.79 525.01,-406.56 533.75,-412.55 535.58,-405.79"/>
</g>
<!-- 13&#45;&gt;9 -->
<g id="edge6" class="edge">
<title>13&#45;&gt;9</title>
<path fill="none" stroke="black" stroke-dasharray="1,5" d="M916.98,-453.68C909.75,-451.62 902.16,-449.62 895,-448 796.65,-425.78 769.54,-433.36 671,-412 666.65,-411.06 662.15,-409.99 657.65,-408.87"/>
<polygon fill="black" stroke="black" points="658.43,-405.46 647.87,-406.35 656.68,-412.24 658.43,-405.46"/>
</g>
<!-- 13&#45;&gt;12 -->
<g id="edge9" class="edge">
<title>13&#45;&gt;12</title>
<path fill="none" stroke="black" stroke-dasharray="5,2" d="M917.17,-453.75C878.87,-441.73 818.02,-422.63 776.16,-409.49"/>
<polygon fill="black" stroke="black" points="777.07,-406.11 766.48,-406.45 774.97,-412.79 777.07,-406.11"/>
</g>
<!-- 15 -->
<g id="node13" class="node">
<title>15</title>
<ellipse fill="none" stroke="black" cx="848" cy="-394" rx="50.09" ry="18"/>
<text text-anchor="middle" x="848" y="-390.3" font-family="Times,serif" font-size="14.00">V571 (a)</text>
</g>
<!-- 13&#45;&gt;15 -->
<g id="edge12" class="edge">
<title>13&#45;&gt;15</title>
<path fill="none" stroke="black" stroke-dasharray="1,5" d="M930.47,-449.98C915.63,-440.09 895.97,-426.98 879.57,-416.05"/>
<polygon fill="black" stroke="black" points="881.11,-412.87 870.85,-410.23 877.23,-418.69 881.11,-412.87"/>
</g>
<!-- 23 -->
<g id="node20" class="node">
<title>23</title>
<ellipse fill="none" stroke="black" cx="966" cy="-394" rx="50.09" ry="18"/>
<text text-anchor="middle" x="966" y="-390.3" font-family="Times,serif" font-size="14.00">V565 (a)</text>
</g>
<!-- 13&#45;&gt;23 -->
<g id="edge19" class="edge">
<title>13&#45;&gt;23</title>
<path fill="none" stroke="black" stroke-dasharray="5,2" d="M956.21,-447.7C957.65,-439.98 959.37,-430.71 960.96,-422.11"/>
<polygon fill="black" stroke="black" points="964.44,-422.58 962.82,-412.1 957.56,-421.3 964.44,-422.58"/>
</g>
<!-- 36 -->
<g id="node29" class="node">
<title>36</title>
<ellipse fill="none" stroke="black" cx="1078" cy="-394" rx="44.39" ry="18"/>
<text text-anchor="middle" x="1078" y="-390.3" font-family="Times,serif" font-size="14.00">P74 (a)</text>
</g>
<!-- 13&#45;&gt;36 -->
<g id="edge27" class="edge">
<title>13&#45;&gt;36</title>
<path fill="none" stroke="black" stroke-dasharray="1,5" d="M978.6,-450.67C997.51,-440.07 1023.45,-425.55 1044.09,-413.99"/>
<polygon fill="black" stroke="black" points="1045.85,-417.02 1052.86,-409.08 1042.43,-410.91 1045.85,-417.02"/>
</g>
<!-- 41 -->
<g id="node34" class="node">
<title>41</title>
<ellipse fill="none" stroke="black" cx="1187" cy="-394" rx="46.59" ry="18"/>
<text text-anchor="middle" x="1187" y="-390.3" font-family="Times,serif" font-size="14.00">Bodl (a)</text>
</g>
<!-- 13&#45;&gt;41 -->
<g id="edge32" class="edge">
<title>13&#45;&gt;41</title>
<path fill="none" stroke="black" stroke-dasharray="5,2" d="M989.84,-454.09C1025.84,-443.42 1082.21,-426.67 1131,-412 1134.51,-410.94 1138.15,-409.85 1141.81,-408.74"/>
<polygon fill="black" stroke="black" points="1142.9,-412.07 1151.46,-405.82 1140.87,-405.37 1142.9,-412.07"/>
</g>
<!-- 14 -->
<g id="node12" class="node">
<title>14</title>
<ellipse fill="none" stroke="black" cx="1060" cy="-466" rx="40.09" ry="18"/>
<text text-anchor="middle" x="1060" y="-462.3" font-family="Times,serif" font-size="14.00">Pal (a)</text>
</g>
<!-- 16 -->
<g id="node14" class="node">
<title>16</title>
<ellipse fill="none" stroke="black" cx="1301" cy="-178" rx="40.89" ry="18"/>
<text text-anchor="middle" x="1301" y="-174.3" font-family="Times,serif" font-size="14.00">Sin (a)</text>
</g>
<!-- 31 -->
<g id="node25" class="node">
<title>31</title>
<ellipse fill="none" stroke="black" cx="1301" cy="-106" rx="50.09" ry="18"/>
<text text-anchor="middle" x="1301" y="-102.3" font-family="Times,serif" font-size="14.00">Marc (a)</text>
</g>
<!-- 16&#45;&gt;31 -->
<g id="edge24" class="edge">
<title>16&#45;&gt;31</title>
<path fill="none" stroke="black" stroke-dasharray="1,5" d="M1301,-159.7C1301,-151.98 1301,-142.71 1301,-134.11"/>
<polygon fill="black" stroke="black" points="1304.5,-134.1 1301,-124.1 1297.5,-134.1 1304.5,-134.1"/>
</g>
<!-- 17 -->
<g id="node15" class="node">
<title>17</title>
<ellipse fill="none" stroke="black" cx="996" cy="-538" rx="52.79" ry="18"/>
<text text-anchor="middle" x="996" y="-534.3" font-family="Times,serif" font-size="14.00">M136 (a)</text>
</g>
<!-- 19 -->
<g id="node16" class="node">
<title>19</title>
<ellipse fill="none" stroke="black" cx="479" cy="-538" rx="55.79" ry="18"/>
<text text-anchor="middle" x="479" y="-534.3" font-family="Times,serif" font-size="14.00">V1920 (a)</text>
</g>
<!-- 20 -->
<g id="node17" class="node">
<title>20</title>
<ellipse fill="none" stroke="black" cx="1111" cy="-538" rx="44.39" ry="18"/>
<text text-anchor="middle" x="1111" y="-534.3" font-family="Times,serif" font-size="14.00">A25 (a)</text>
</g>
<!-- 20&#45;&gt;5 -->
<g id="edge3" class="edge">
<title>20&#45;&gt;5</title>
<path fill="none" stroke="black" stroke-dasharray="1,5" d="M1079.08,-525.44C1072.21,-523.32 1064.92,-521.36 1058,-520 938.61,-496.58 575.22,-476.92 430.95,-469.83"/>
<polygon fill="black" stroke="black" points="430.7,-466.31 420.54,-469.32 430.36,-473.3 430.7,-466.31"/>
</g>
<!-- 20&#45;&gt;7 -->
<g id="edge5" class="edge">
<title>20&#45;&gt;7</title>
<path fill="none" stroke="black" stroke-dasharray="5,2" d="M1078.06,-525.91C1071.45,-523.83 1064.53,-521.76 1058,-520 986.38,-500.65 966.62,-503.35 895,-484 891.63,-483.09 888.16,-482.1 884.68,-481.07"/>
<polygon fill="black" stroke="black" points="885.52,-477.66 874.94,-478.09 883.48,-484.36 885.52,-477.66"/>
</g>
<!-- 20&#45;&gt;13 -->
<g id="edge10" class="edge">
<title>20&#45;&gt;13</title>
<path fill="none" stroke="black" stroke-dasharray="1,5" d="M1082.02,-524.16C1056.84,-513 1020.13,-496.74 992.31,-484.42"/>
<polygon fill="black" stroke="black" points="993.43,-481.08 982.87,-480.23 990.59,-487.48 993.43,-481.08"/>
</g>
<!-- 20&#45;&gt;14 -->
<g id="edge11" class="edge">
<title>20&#45;&gt;14</title>
<path fill="none" stroke="black" stroke-dasharray="5,2" d="M1098.91,-520.41C1092.69,-511.87 1084.97,-501.28 1078.06,-491.79"/>
<polygon fill="black" stroke="black" points="1080.72,-489.49 1072,-483.47 1075.06,-493.61 1080.72,-489.49"/>
</g>
<!-- 30 -->
<g id="node24" class="node">
<title>30</title>
<ellipse fill="none" stroke="black" cx="1162" cy="-466" rx="44.39" ry="18"/>
<text text-anchor="middle" x="1162" y="-462.3" font-family="Times,serif" font-size="14.00">P01 (a)</text>
</g>
<!-- 20&#45;&gt;30 -->
<g id="edge23" class="edge">
<title>20&#45;&gt;30</title>
<path fill="none" stroke="black" stroke-dasharray="5,2" d="M1123.09,-520.41C1129.31,-511.87 1137.03,-501.28 1143.94,-491.79"/>
<polygon fill="black" stroke="black" points="1146.94,-493.61 1150,-483.47 1141.28,-489.49 1146.94,-493.61"/>
</g>
<!-- 39 -->
<g id="node32" class="node">
<title>39</title>
<ellipse fill="none" stroke="black" cx="1274" cy="-466" rx="50.09" ry="18"/>
<text text-anchor="middle" x="1274" y="-462.3" font-family="Times,serif" font-size="14.00">V566 (a)</text>
</g>
<!-- 20&#45;&gt;39 -->
<g id="edge30" class="edge">
<title>20&#45;&gt;39</title>
<path fill="none" stroke="black" stroke-dasharray="5,2" d="M1140.52,-524.32C1166.56,-513.14 1204.77,-496.73 1233.64,-484.33"/>
<polygon fill="black" stroke="black" points="1235.23,-487.46 1243.04,-480.3 1232.47,-481.03 1235.23,-487.46"/>
</g>
<!-- 28 -->
<g id="node23" class="node">
<title>28</title>
<ellipse fill="none" stroke="black" cx="371" cy="-322" rx="44.39" ry="18"/>
<text text-anchor="middle" x="371" y="-318.3" font-family="Times,serif" font-size="14.00">B39 (a)</text>
</g>
<!-- 21&#45;&gt;28 -->
<g id="edge22" class="edge">
<title>21&#45;&gt;28</title>
<path fill="none" stroke="black" stroke-dasharray="5,2" d="M371,-375.7C371,-367.98 371,-358.71 371,-350.11"/>
<polygon fill="black" stroke="black" points="374.5,-350.1 371,-340.1 367.5,-350.1 374.5,-350.1"/>
</g>
<!-- 22 -->
<g id="node19" class="node">
<title>22</title>
<ellipse fill="none" stroke="black" cx="1223" cy="-538" rx="50.09" ry="18"/>
<text text-anchor="middle" x="1223" y="-534.3" font-family="Times,serif" font-size="14.00">Neap (a)</text>
</g>
<!-- 34 -->
<g id="node27" class="node">
<title>34</title>
<ellipse fill="none" stroke="black" cx="1398" cy="-466" rx="55.79" ry="18"/>
<text text-anchor="middle" x="1398" y="-462.3" font-family="Times,serif" font-size="14.00">V1629 (a)</text>
</g>
<!-- 22&#45;&gt;34 -->
<g id="edge25" class="edge">
<title>22&#45;&gt;34</title>
<path fill="none" stroke="black" stroke-dasharray="1,5" d="M1255.1,-524.16C1283.06,-512.98 1323.83,-496.67 1354.68,-484.33"/>
<polygon fill="black" stroke="black" points="1356.33,-487.44 1364.32,-480.47 1353.73,-480.94 1356.33,-487.44"/>
</g>
<!-- 24 -->
<g id="node21" class="node">
<title>24</title>
<ellipse fill="none" stroke="black" cx="1542" cy="-394" rx="41.69" ry="18"/>
<text text-anchor="middle" x="1542" y="-390.3" font-family="Times,serif" font-size="14.00">Est (a)</text>
</g>
<!-- 27 -->
<g id="node22" class="node">
<title>27</title>
<ellipse fill="none" stroke="black" cx="1336" cy="-538" rx="44.69" ry="18"/>
<text text-anchor="middle" x="1336" y="-534.3" font-family="Times,serif" font-size="14.00">Nan (a)</text>
</g>
<!-- 35 -->
<g id="node28" class="node">
<title>35</title>
<ellipse fill="none" stroke="black" cx="1528" cy="-466" rx="55.79" ry="18"/>
<text text-anchor="middle" x="1528" y="-462.3" font-family="Times,serif" font-size="14.00">V1897 (a)</text>
</g>
<!-- 27&#45;&gt;35 -->
<g id="edge26" class="edge">
<title>27&#45;&gt;35</title>
<path fill="none" stroke="black" stroke-dasharray="1,5" d="M1368.14,-525.28C1399.56,-513.83 1447.68,-496.28 1482.92,-483.43"/>
<polygon fill="black" stroke="black" points="1484.3,-486.66 1492.5,-479.94 1481.9,-480.08 1484.3,-486.66"/>
</g>
<!-- 42 -->
<g id="node35" class="node">
<title>42</title>
<ellipse fill="none" stroke="black" cx="1301" cy="-34" rx="46.29" ry="18"/>
<text text-anchor="middle" x="1301" y="-30.3" font-family="Times,serif" font-size="14.00">Mon (a)</text>
</g>
<!-- 31&#45;&gt;42 -->
<g id="edge33" class="edge">
<title>31&#45;&gt;42</title>
<path fill="none" stroke="black" stroke-dasharray="1,5" d="M1301,-87.7C1301,-79.98 1301,-70.71 1301,-62.11"/>
<polygon fill="black" stroke="black" points="1304.5,-62.1 1301,-52.1 1297.5,-62.1 1304.5,-62.1"/>
</g>
<!-- 32 -->
<g id="node26" class="node">
<title>32</title>
<ellipse fill="none" stroke="black" cx="1167" cy="-611" rx="53.89" ry="18"/>
<text text-anchor="middle" x="1167" y="-607.3" font-family="Times,serif" font-size="14.00">aBase (a)</text>
</g>
<!-- 32&#45;&gt;11 -->
<g id="edge8" class="edge">
<title>32&#45;&gt;11</title>
<path fill="none" stroke="black" stroke-width="2" d="M1122.04,-600.81C1074.89,-590.89 998.8,-574.06 934,-556 930.7,-555.08 927.29,-554.08 923.88,-553.04"/>
<polygon fill="black" stroke="black" stroke-width="2" points="924.91,-549.7 914.32,-550.05 922.82,-556.38 924.91,-549.7"/>
</g>
<!-- 32&#45;&gt;17 -->
<g id="edge14" class="edge">
<title>32&#45;&gt;17</title>
<path fill="none" stroke="black" stroke-width="2" d="M1134.43,-596.48C1106.89,-585.04 1067.26,-568.59 1037.46,-556.21"/>
<polygon fill="black" stroke="black" stroke-width="2" points="1038.73,-552.95 1028.16,-552.35 1036.05,-559.42 1038.73,-552.95"/>
</g>
<!-- 32&#45;&gt;20 -->
<g id="edge16" class="edge">
<title>32&#45;&gt;20</title>
<path fill="none" stroke="black" stroke-dasharray="5,2" d="M1153.73,-593.17C1146.82,-584.42 1138.25,-573.55 1130.6,-563.85"/>
<polygon fill="black" stroke="black" points="1133.12,-561.39 1124.18,-555.71 1127.62,-565.72 1133.12,-561.39"/>
</g>
<!-- 32&#45;&gt;22 -->
<g id="edge18" class="edge">
<title>32&#45;&gt;22</title>
<path fill="none" stroke="black" stroke-width="2" d="M1180.27,-593.17C1187.18,-584.42 1195.75,-573.55 1203.4,-563.85"/>
<polygon fill="black" stroke="black" stroke-width="2" points="1206.38,-565.72 1209.82,-555.71 1200.88,-561.39 1206.38,-565.72"/>
</g>
<!-- 32&#45;&gt;27 -->
<g id="edge21" class="edge">
<title>32&#45;&gt;27</title>
<path fill="none" stroke="black" d="M1199.19,-596.48C1227.01,-584.79 1267.32,-567.86 1296.97,-555.4"/>
<polygon fill="black" stroke="black" points="1298.34,-558.62 1306.2,-551.52 1295.63,-552.17 1298.34,-558.62"/>
</g>
<!-- 43 -->
<g id="node36" class="node">
<title>43</title>
<ellipse fill="none" stroke="black" cx="1449" cy="-538" rx="50.09" ry="18"/>
<text text-anchor="middle" x="1449" y="-534.3" font-family="Times,serif" font-size="14.00">S249 (a)</text>
</g>
<!-- 32&#45;&gt;43 -->
<g id="edge34" class="edge">
<title>32&#45;&gt;43</title>
<path fill="none" stroke="black" d="M1210.31,-600.09C1255.34,-589.66 1327.81,-572.48 1390,-556 1393.83,-554.98 1397.8,-553.91 1401.77,-552.8"/>
<polygon fill="black" stroke="black" points="1402.93,-556.11 1411.61,-550.03 1401.04,-549.37 1402.93,-556.11"/>
</g>
<!-- 34&#45;&gt;10 -->
<g id="edge7" class="edge">
<title>34&#45;&gt;10</title>
<path fill="none" stroke="black" stroke-dasharray="5,2" d="M1406.23,-448.05C1410.2,-439.89 1415.04,-429.91 1419.46,-420.82"/>
<polygon fill="black" stroke="black" points="1422.62,-422.31 1423.85,-411.79 1416.33,-419.25 1422.62,-422.31"/>
</g>
<!-- 35&#45;&gt;24 -->
<g id="edge20" class="edge">
<title>35&#45;&gt;24</title>
<path fill="none" stroke="black" stroke-dasharray="1,5" d="M1531.46,-447.7C1533,-439.98 1534.86,-430.71 1536.58,-422.11"/>
<polygon fill="black" stroke="black" points="1540.05,-422.6 1538.58,-412.1 1533.19,-421.22 1540.05,-422.6"/>
</g>
<!-- 37 -->
<g id="node30" class="node">
<title>37</title>
<ellipse fill="none" stroke="black" cx="1410" cy="-178" rx="50.09" ry="18"/>
<text text-anchor="middle" x="1410" y="-174.3" font-family="Times,serif" font-size="14.00">V569 (a)</text>
</g>
<!-- 38&#45;&gt;16 -->
<g id="edge13" class="edge">
<title>38&#45;&gt;16</title>
<path fill="none" stroke="black" stroke-dasharray="1,5" d="M1391.1,-234.33C1374.16,-223.92 1351.24,-209.85 1332.76,-198.5"/>
<polygon fill="black" stroke="black" points="1334.44,-195.43 1324.09,-193.18 1330.78,-201.39 1334.44,-195.43"/>
</g>
<!-- 38&#45;&gt;37 -->
<g id="edge28" class="edge">
<title>38&#45;&gt;37</title>
<path fill="none" stroke="black" stroke-dasharray="5,2" d="M1413.76,-231.7C1413.21,-223.98 1412.55,-214.71 1411.94,-206.11"/>
<polygon fill="black" stroke="black" points="1415.43,-205.83 1411.22,-196.1 1408.44,-206.33 1415.43,-205.83"/>
</g>
<!-- 44 -->
<g id="node37" class="node">
<title>44</title>
<ellipse fill="none" stroke="black" cx="1531" cy="-178" rx="52.79" ry="18"/>
<text text-anchor="middle" x="1531" y="-174.3" font-family="Times,serif" font-size="14.00">M118 (a)</text>
</g>
<!-- 38&#45;&gt;44 -->
<g id="edge35" class="edge">
<title>38&#45;&gt;44</title>
<path fill="none" stroke="black" stroke-dasharray="5,2" d="M1439.04,-234.5C1455.92,-224.31 1478.72,-210.55 1497.4,-199.27"/>
<polygon fill="black" stroke="black" points="1499.44,-202.13 1506.2,-193.97 1495.82,-196.14 1499.44,-202.13"/>
</g>
<!-- 45 -->
<g id="node38" class="node">
<title>45</title>
<ellipse fill="none" stroke="black" cx="1308" cy="-394" rx="55.79" ry="18"/>
<text text-anchor="middle" x="1308" y="-390.3" font-family="Times,serif" font-size="14.00">V1639 (a)</text>
</g>
<!-- 39&#45;&gt;45 -->
<g id="edge36" class="edge">
<title>39&#45;&gt;45</title>
<path fill="none" stroke="black" stroke-dasharray="1,5" d="M1282.23,-448.05C1286.1,-440.09 1290.8,-430.41 1295.12,-421.51"/>
<polygon fill="black" stroke="black" points="1298.39,-422.8 1299.61,-412.28 1292.09,-419.74 1298.39,-422.8"/>
</g>
<!-- 40 -->
<g id="node33" class="node">
<title>40</title>
<ellipse fill="none" stroke="black" cx="1531" cy="-106" rx="44.39" ry="18"/>
<text text-anchor="middle" x="1531" y="-102.3" font-family="Times,serif" font-size="14.00">P18 (a)</text>
</g>
<!-- 44&#45;&gt;40 -->
<g id="edge31" class="edge">
<title>44&#45;&gt;40</title>
<path fill="none" stroke="black" stroke-dasharray="5,2" d="M1531,-159.7C1531,-151.98 1531,-142.71 1531,-134.11"/>
<polygon fill="black" stroke="black" points="1534.5,-134.1 1531,-124.1 1527.5,-134.1 1534.5,-134.1"/>
</g>
<!-- 25 -->
<g id="node39" class="node">
<title>25</title>
<ellipse fill="none" stroke="blue" stroke-dasharray="5,2" cx="479" cy="-611" rx="49.29" ry="18"/>
<text text-anchor="middle" x="479" y="-607.3" font-family="Times,serif" font-size="14.00">V560 (c)</text>
</g>
<!-- 25&#45;&gt;19 -->
<g id="edge15" class="edge">
<title>25&#45;&gt;19</title>
<path fill="none" stroke="blue" stroke-dasharray="5,2" d="M479,-592.81C479,-584.79 479,-575.05 479,-566.07"/>
<polygon fill="blue" stroke="blue" points="482.5,-566.03 479,-556.03 475.5,-566.03 482.5,-566.03"/>
</g>
</g>
</svg>
