<?xml version="1.0" encoding="UTF-8" standalone="no"?>
<!DOCTYPE svg PUBLIC "-//W3C//DTD SVG 1.1//EN"
 "http://www.w3.org/Graphics/SVG/1.1/DTD/svg11.dtd">
<!-- Generated by graphviz version 2.43.0 (0)
 -->
<!-- Title: textual_flow_diagram Pages: 1 -->
<svg width="1018pt" height="317pt"
 viewBox="0.00 0.00 1018.00 317.00" xmlns="http://www.w3.org/2000/svg" xmlns:xlink="http://www.w3.org/1999/xlink">
<g id="graph0" class="graph" transform="scale(1 1) rotate(0) translate(4 313)">
<title>textual_flow_diagram</title>
<polygon fill="white" stroke="transparent" points="-4,4 -4,-313 1014,-313 1014,4 -4,4"/>
<g id="clust1" class="cluster">
<title>cluster_legend</title>
<polygon fill="none" stroke="black" points="8,-247 8,-301 196,-301 196,-247 8,-247"/>
</g>
<g id="clust2" class="cluster">
<title>cluster_plot</title>
</g>
<!-- label -->
<g id="node1" class="node">
<title>label</title>
<text text-anchor="middle" x="102" y="-277.8" font-family="Times,serif" font-size="14.00">adstag1.1.5U12&#45;14, b</text>
<text text-anchor="middle" x="102" y="-262.8" font-family="Times,serif" font-size="14.00">Con = 10</text>
</g>
<!-- 5 -->
<g id="node2" class="node">
<title>5</title>
<ellipse fill="none" stroke="black" cx="262" cy="-117" rx="50.09" ry="18"/>
<text text-anchor="middle" x="262" y="-113.3" font-family="Times,serif" font-size="14.00">Patm (b)</text>
</g>
<!-- 6 -->
<g id="node3" class="node">
<title>6</title>
<ellipse fill="none" stroke="black" cx="443" cy="-34" rx="49.29" ry="18"/>
<text text-anchor="middle" x="443" y="-30.3" font-family="Times,serif" font-size="14.00">La35 (b)</text>
</g>
<!-- 7 -->
<g id="node4" class="node">
<title>7</title>
<ellipse fill="none" stroke="black" cx="374" cy="-117" rx="44.39" ry="18"/>
<text text-anchor="middle" x="374" y="-113.3" font-family="Times,serif" font-size="14.00">S32 (b)</text>
</g>
<!-- 9 -->
<g id="node5" class="node">
<title>9</title>
<ellipse fill="none" stroke="black" cx="489" cy="-117" rx="53.09" ry="18"/>
<text text-anchor="middle" x="489" y="-113.3" font-family="Times,serif" font-size="14.00">M111 (b)</text>
</g>
<!-- 9&#45;&gt;6 -->
<g id="edge2" class="edge">
<title>9&#45;&gt;6</title>
<path fill="none" stroke="black" stroke-dasharray="1,5" d="M479.47,-99.22C473.12,-88.03 464.65,-73.12 457.47,-60.48"/>
<polygon fill="black" stroke="black" points="460.5,-58.73 452.52,-51.76 454.41,-62.19 460.5,-58.73"/>
<text text-anchor="middle" x="471.5" y="-73" font-family="Times,serif" font-size="10.00">2</text>
</g>
<!-- 29 -->
<g id="node8" class="node">
<title>29</title>
<ellipse fill="none" stroke="black" cx="560" cy="-34" rx="50.09" ry="18"/>
<text text-anchor="middle" x="560" y="-30.3" font-family="Times,serif" font-size="14.00">A336 (b)</text>
</g>
<!-- 9&#45;&gt;29 -->
<g id="edge7" class="edge">
<title>9&#45;&gt;29</title>
<path fill="none" stroke="black" stroke-dasharray="5,2" d="M503.37,-99.61C513.57,-87.97 527.43,-72.16 538.89,-59.09"/>
<polygon fill="black" stroke="black" points="541.69,-61.19 545.65,-51.37 536.43,-56.58 541.69,-61.19"/>
</g>
<!-- 20 -->
<g id="node6" class="node">
<title>20</title>
<ellipse fill="none" stroke="black" cx="606" cy="-200" rx="44.39" ry="18"/>
<text text-anchor="middle" x="606" y="-196.3" font-family="Times,serif" font-size="14.00">A25 (b)</text>
</g>
<!-- 20&#45;&gt;5 -->
<g id="edge1" class="edge">
<title>20&#45;&gt;5</title>
<path fill="none" stroke="black" stroke-dasharray="1,5" d="M567.1,-191.03C512.07,-179.59 408.44,-157.39 321,-135 317.16,-134.02 313.19,-132.96 309.21,-131.87"/>
<polygon fill="black" stroke="black" points="309.93,-128.44 299.36,-129.13 308.06,-135.18 309.93,-128.44"/>
</g>
<!-- 20&#45;&gt;7 -->
<g id="edge3" class="edge">
<title>20&#45;&gt;7</title>
<path fill="none" stroke="black" stroke-dasharray="5,2" d="M573.25,-187.57C532.06,-173.18 461.26,-148.47 416.09,-132.69"/>
<polygon fill="black" stroke="black" points="417.18,-129.37 406.58,-129.38 414.87,-135.98 417.18,-129.37"/>
</g>
<!-- 20&#45;&gt;9 -->
<g id="edge4" class="edge">
<title>20&#45;&gt;9</title>
<path fill="none" stroke="black" stroke-dasharray="5,2" d="M584.54,-184.14C566.41,-171.59 540.23,-153.47 519.86,-139.36"/>
<polygon fill="black" stroke="black" points="521.73,-136.41 511.52,-133.59 517.75,-142.16 521.73,-136.41"/>
<text text-anchor="middle" x="557.5" y="-156" font-family="Times,serif" font-size="10.00">2</text>
</g>
<!-- 27 -->
<g id="node7" class="node">
<title>27</title>
<ellipse fill="none" stroke="black" cx="606" cy="-117" rx="45.49" ry="18"/>
<text text-anchor="middle" x="606" y="-113.3" font-family="Times,serif" font-size="14.00">Nan (b)</text>
</g>
<!-- 20&#45;&gt;27 -->
<g id="edge6" class="edge">
<title>20&#45;&gt;27</title>
<path fill="none" stroke="black" stroke-dasharray="5,2" d="M606,-181.82C606,-171.19 606,-157.31 606,-145.2"/>
<polygon fill="black" stroke="black" points="609.5,-145.15 606,-135.15 602.5,-145.15 609.5,-145.15"/>
<text text-anchor="middle" x="609.5" y="-156" font-family="Times,serif" font-size="10.00">2</text>
</g>
<!-- 30 -->
<g id="node9" class="node">
<title>30</title>
<ellipse fill="none" stroke="black" cx="714" cy="-117" rx="44.39" ry="18"/>
<text text-anchor="middle" x="714" y="-113.3" font-family="Times,serif" font-size="14.00">P01 (b)</text>
</g>
<!-- 20&#45;&gt;30 -->
<g id="edge8" class="edge">
<title>20&#45;&gt;30</title>
<path fill="none" stroke="black" stroke-dasharray="5,2" d="M626.06,-183.95C642.78,-171.42 666.79,-153.41 685.5,-139.37"/>
<polygon fill="black" stroke="black" points="687.78,-142.04 693.68,-133.24 683.58,-136.44 687.78,-142.04"/>
</g>
<!-- 39 -->
<g id="node10" class="node">
<title>39</title>
<ellipse fill="none" stroke="black" cx="826" cy="-117" rx="50.09" ry="18"/>
<text text-anchor="middle" x="826" y="-113.3" font-family="Times,serif" font-size="14.00">V566 (b)</text>
</g>
<!-- 20&#45;&gt;39 -->
<g id="edge9" class="edge">
<title>20&#45;&gt;39</title>
<path fill="none" stroke="black" stroke-dasharray="5,2" d="M637.99,-187.22C676.13,-173.18 740.06,-149.64 782.63,-133.97"/>
<polygon fill="black" stroke="black" points="783.99,-137.2 792.16,-130.46 781.57,-130.63 783.99,-137.2"/>
</g>
<!-- 43 -->
<g id="node11" class="node">
<title>43</title>
<ellipse fill="none" stroke="black" cx="944" cy="-117" rx="50.09" ry="18"/>
<text text-anchor="middle" x="944" y="-113.3" font-family="Times,serif" font-size="14.00">S249 (b)</text>
</g>
<!-- 20&#45;&gt;43 -->
<g id="edge10" class="edge">
<title>20&#45;&gt;43</title>
<path fill="none" stroke="black" stroke-dasharray="5,2" d="M644.52,-190.87C698.5,-179.31 799.6,-157.08 885,-135 888.84,-134.01 892.81,-132.94 896.78,-131.85"/>
<polygon fill="black" stroke="black" points="897.94,-135.16 906.63,-129.1 896.06,-128.42 897.94,-135.16"/>
<text text-anchor="middle" x="811.5" y="-156" font-family="Times,serif" font-size="10.00">2</text>
</g>
<!-- 32 -->
<g id="node12" class="node">
<title>32</title>
<ellipse fill="none" stroke="blue" stroke-dasharray="5,2" cx="606" cy="-274" rx="53.89" ry="18"/>
<text text-anchor="middle" x="606" y="-270.3" font-family="Times,serif" font-size="14.00">aBase (a)</text>
</g>
<!-- 32&#45;&gt;20 -->
<g id="edge5" class="edge">
<title>32&#45;&gt;20</title>
<path fill="none" stroke="blue" stroke-dasharray="5,2" d="M606,-255.94C606,-247.81 606,-237.88 606,-228.7"/>
<polygon fill="blue" stroke="blue" points="609.5,-228.44 606,-218.44 602.5,-228.44 609.5,-228.44"/>
</g>
</g>
</svg>
