<?xml version="1.0" encoding="UTF-8" standalone="no"?>
<!DOCTYPE svg PUBLIC "-//W3C//DTD SVG 1.1//EN"
 "http://www.w3.org/Graphics/SVG/1.1/DTD/svg11.dtd">
<!-- Generated by graphviz version 2.43.0 (0)
 -->
<!-- Title: textual_flow_diagram Pages: 1 -->
<svg width="676pt" height="234pt"
 viewBox="0.00 0.00 676.00 234.00" xmlns="http://www.w3.org/2000/svg" xmlns:xlink="http://www.w3.org/1999/xlink">
<g id="graph0" class="graph" transform="scale(1 1) rotate(0) translate(4 230)">
<title>textual_flow_diagram</title>
<polygon fill="white" stroke="transparent" points="-4,4 -4,-230 672,-230 672,4 -4,4"/>
<g id="clust1" class="cluster">
<title>cluster_legend</title>
<polygon fill="none" stroke="black" points="8,-164 8,-218 182,-218 182,-164 8,-164"/>
</g>
<g id="clust2" class="cluster">
<title>cluster_plot</title>
</g>
<!-- label -->
<g id="node1" class="node">
<title>label</title>
<text text-anchor="middle" x="95" y="-194.8" font-family="Times,serif" font-size="14.00">adstag1.2.40U10, b</text>
<text text-anchor="middle" x="95" y="-179.8" font-family="Times,serif" font-size="14.00">Con = 5</text>
</g>
<!-- 2 -->
<g id="node2" class="node">
<title>2</title>
<ellipse fill="none" stroke="black" cx="496" cy="-117" rx="50.09" ry="18"/>
<text text-anchor="middle" x="496" y="-113.3" font-family="Times,serif" font-size="14.00">V560 (b)</text>
</g>
<!-- 12 -->
<g id="node3" class="node">
<title>12</title>
<ellipse fill="none" stroke="black" cx="496" cy="-34" rx="55.79" ry="18"/>
<text text-anchor="middle" x="496" y="-30.3" font-family="Times,serif" font-size="14.00">V1920 (b)</text>
</g>
<!-- 2&#45;&gt;12 -->
<g id="edge2" class="edge">
<title>2&#45;&gt;12</title>
<path fill="none" stroke="black" stroke-dasharray="5,2" d="M496,-98.82C496,-88.19 496,-74.31 496,-62.2"/>
<polygon fill="black" stroke="black" points="499.5,-62.15 496,-52.15 492.5,-62.15 499.5,-62.15"/>
</g>
<!-- 19 -->
<g id="node4" class="node">
<title>19</title>
<ellipse fill="none" stroke="black" cx="608" cy="-117" rx="43.59" ry="18"/>
<text text-anchor="middle" x="608" y="-113.3" font-family="Times,serif" font-size="14.00">La2 (b)</text>
</g>
<!-- 30 -->
<g id="node5" class="node">
<title>30</title>
<ellipse fill="none" stroke="black" cx="254" cy="-117" rx="55.79" ry="18"/>
<text text-anchor="middle" x="254" y="-113.3" font-family="Times,serif" font-size="14.00">V2250 (b)</text>
</g>
<!-- 42 -->
<g id="node7" class="node">
<title>42</title>
<ellipse fill="none" stroke="black" cx="254" cy="-34" rx="43.59" ry="18"/>
<text text-anchor="middle" x="254" y="-30.3" font-family="Times,serif" font-size="14.00">Bas (b)</text>
</g>
<!-- 30&#45;&gt;42 -->
<g id="edge6" class="edge">
<title>30&#45;&gt;42</title>
<path fill="none" stroke="black" stroke-dasharray="5,2" d="M254,-98.82C254,-88.19 254,-74.31 254,-62.2"/>
<polygon fill="black" stroke="black" points="257.5,-62.15 254,-52.15 250.5,-62.15 257.5,-62.15"/>
<text text-anchor="middle" x="257.5" y="-73" font-family="Times,serif" font-size="10.00">5</text>
</g>
<!-- 40 -->
<g id="node6" class="node">
<title>40</title>
<ellipse fill="none" stroke="black" cx="378" cy="-117" rx="50.09" ry="18"/>
<text text-anchor="middle" x="378" y="-113.3" font-family="Times,serif" font-size="14.00">V536 (b)</text>
</g>
<!-- 11 -->
<g id="node8" class="node">
<title>11</title>
<ellipse fill="none" stroke="blue" stroke-dasharray="5,2" cx="552" cy="-191" rx="53.89" ry="18"/>
<text text-anchor="middle" x="552" y="-187.3" font-family="Times,serif" font-size="14.00">aBase (a)</text>
</g>
<!-- 11&#45;&gt;2 -->
<g id="edge1" class="edge">
<title>11&#45;&gt;2</title>
<path fill="none" stroke="blue" stroke-width="2" d="M539.01,-173.3C531.94,-164.21 523.06,-152.8 515.21,-142.7"/>
<polygon fill="blue" stroke="blue" stroke-width="2" points="517.82,-140.35 508.92,-134.61 512.29,-144.65 517.82,-140.35"/>
</g>
<!-- 11&#45;&gt;19 -->
<g id="edge3" class="edge">
<title>11&#45;&gt;19</title>
<path fill="none" stroke="blue" stroke-width="2" d="M564.99,-173.3C572.06,-164.21 580.94,-152.8 588.79,-142.7"/>
<polygon fill="blue" stroke="blue" stroke-width="2" points="591.71,-144.65 595.08,-134.61 586.18,-140.35 591.71,-144.65"/>
</g>
<!-- 23 -->
<g id="node9" class="node">
<title>23</title>
<ellipse fill="none" stroke="blue" stroke-dasharray="5,2" cx="378" cy="-191" rx="55.79" ry="18"/>
<text text-anchor="middle" x="378" y="-187.3" font-family="Times,serif" font-size="14.00">V1629 (a)</text>
</g>
<!-- 23&#45;&gt;40 -->
<g id="edge5" class="edge">
<title>23&#45;&gt;40</title>
<path fill="none" stroke="blue" stroke-dasharray="5,2" d="M378,-172.94C378,-164.81 378,-154.88 378,-145.7"/>
<polygon fill="blue" stroke="blue" points="381.5,-145.44 378,-135.44 374.5,-145.44 381.5,-145.44"/>
</g>
<!-- 36 -->
<g id="node10" class="node">
<title>36</title>
<ellipse fill="none" stroke="blue" stroke-dasharray="5,2" cx="254" cy="-191" rx="44.69" ry="18"/>
<text text-anchor="middle" x="254" y="-187.3" font-family="Times,serif" font-size="14.00">Nan (a)</text>
</g>
<!-- 36&#45;&gt;30 -->
<g id="edge4" class="edge">
<title>36&#45;&gt;30</title>
<path fill="none" stroke="blue" stroke-dasharray="5,2" d="M254,-172.94C254,-164.81 254,-154.88 254,-145.7"/>
<polygon fill="blue" stroke="blue" points="257.5,-145.44 254,-135.44 250.5,-145.44 257.5,-145.44"/>
</g>
</g>
</svg>
