<?xml version="1.0" encoding="UTF-8" standalone="no"?>
<!DOCTYPE svg PUBLIC "-//W3C//DTD SVG 1.1//EN"
 "http://www.w3.org/Graphics/SVG/1.1/DTD/svg11.dtd">
<!-- Generated by graphviz version 2.43.0 (0)
 -->
<!-- Title: textual_flow_diagram Pages: 1 -->
<svg width="1083pt" height="390pt"
 viewBox="0.00 0.00 1083.00 390.00" xmlns="http://www.w3.org/2000/svg" xmlns:xlink="http://www.w3.org/1999/xlink">
<g id="graph0" class="graph" transform="scale(1 1) rotate(0) translate(4 386)">
<title>textual_flow_diagram</title>
<polygon fill="white" stroke="transparent" points="-4,4 -4,-386 1079,-386 1079,4 -4,4"/>
<g id="clust1" class="cluster">
<title>cluster_legend</title>
<polygon fill="none" stroke="black" points="8,-320 8,-374 182,-374 182,-320 8,-320"/>
</g>
<g id="clust2" class="cluster">
<title>cluster_plot</title>
</g>
<!-- label -->
<g id="node1" class="node">
<title>label</title>
<text text-anchor="middle" x="95" y="-350.8" font-family="Times,serif" font-size="14.00">adstag1.3.19U13, b</text>
<text text-anchor="middle" x="95" y="-335.8" font-family="Times,serif" font-size="14.00">Con = 5</text>
</g>
<!-- 0 -->
<g id="node2" class="node">
<title>0</title>
<ellipse fill="none" stroke="black" cx="242" cy="-190" rx="44.39" ry="18"/>
<text text-anchor="middle" x="242" y="-186.3" font-family="Times,serif" font-size="14.00">P01 (b)</text>
</g>
<!-- 33 -->
<g id="node13" class="node">
<title>33</title>
<ellipse fill="none" stroke="black" cx="251" cy="-107" rx="53.09" ry="18"/>
<text text-anchor="middle" x="251" y="-103.3" font-family="Times,serif" font-size="14.00">LaSM (b)</text>
</g>
<!-- 0&#45;&gt;33 -->
<g id="edge12" class="edge">
<title>0&#45;&gt;33</title>
<path fill="none" stroke="black" stroke-dasharray="5,2" d="M243.91,-171.82C245.09,-161.19 246.63,-147.31 247.98,-135.2"/>
<polygon fill="black" stroke="black" points="251.47,-135.48 249.09,-125.15 244.51,-134.71 251.47,-135.48"/>
<text text-anchor="middle" x="250.5" y="-146" font-family="Times,serif" font-size="10.00">2</text>
</g>
<!-- 1 -->
<g id="node3" class="node">
<title>1</title>
<ellipse fill="none" stroke="black" cx="1003" cy="-107" rx="55.79" ry="18"/>
<text text-anchor="middle" x="1003" y="-103.3" font-family="Times,serif" font-size="14.00">V2036 (b)</text>
</g>
<!-- 3 -->
<g id="node4" class="node">
<title>3</title>
<ellipse fill="none" stroke="black" cx="348" cy="-190" rx="44.39" ry="18"/>
<text text-anchor="middle" x="348" y="-186.3" font-family="Times,serif" font-size="14.00">S32 (b)</text>
</g>
<!-- 13 -->
<g id="node5" class="node">
<title>13</title>
<ellipse fill="none" stroke="black" cx="460" cy="-190" rx="50.09" ry="18"/>
<text text-anchor="middle" x="460" y="-186.3" font-family="Times,serif" font-size="14.00">V566 (b)</text>
</g>
<!-- 34 -->
<g id="node14" class="node">
<title>34</title>
<ellipse fill="none" stroke="black" cx="432" cy="-107" rx="55.79" ry="18"/>
<text text-anchor="middle" x="432" y="-103.3" font-family="Times,serif" font-size="14.00">V1639 (b)</text>
</g>
<!-- 13&#45;&gt;34 -->
<g id="edge13" class="edge">
<title>13&#45;&gt;34</title>
<path fill="none" stroke="black" stroke-dasharray="1,5" d="M454.06,-171.82C450.35,-161.08 445.49,-147.03 441.28,-134.84"/>
<polygon fill="black" stroke="black" points="444.5,-133.46 437.93,-125.15 437.89,-135.75 444.5,-133.46"/>
</g>
<!-- 17 -->
<g id="node6" class="node">
<title>17</title>
<ellipse fill="none" stroke="black" cx="568" cy="-190" rx="40.09" ry="18"/>
<text text-anchor="middle" x="568" y="-186.3" font-family="Times,serif" font-size="14.00">Pal (b)</text>
</g>
<!-- 22 -->
<g id="node7" class="node">
<title>22</title>
<ellipse fill="none" stroke="black" cx="672" cy="-190" rx="45.49" ry="18"/>
<text text-anchor="middle" x="672" y="-186.3" font-family="Times,serif" font-size="14.00">Nan (b)</text>
</g>
<!-- 36 -->
<g id="node15" class="node">
<title>36</title>
<ellipse fill="none" stroke="black" cx="557" cy="-107" rx="50.89" ry="18"/>
<text text-anchor="middle" x="557" y="-103.3" font-family="Times,serif" font-size="14.00">Neap (b)</text>
</g>
<!-- 22&#45;&gt;36 -->
<g id="edge14" class="edge">
<title>22&#45;&gt;36</title>
<path fill="none" stroke="black" d="M650.64,-173.95C632.87,-161.44 607.36,-143.47 587.46,-129.45"/>
<polygon fill="black" stroke="black" points="589.22,-126.41 579.03,-123.52 585.19,-132.14 589.22,-126.41"/>
<text text-anchor="middle" x="624.5" y="-146" font-family="Times,serif" font-size="10.00">2</text>
</g>
<!-- 37 -->
<g id="node16" class="node">
<title>37</title>
<ellipse fill="none" stroke="black" cx="682" cy="-107" rx="55.79" ry="18"/>
<text text-anchor="middle" x="682" y="-103.3" font-family="Times,serif" font-size="14.00">V2250 (b)</text>
</g>
<!-- 22&#45;&gt;37 -->
<g id="edge15" class="edge">
<title>22&#45;&gt;37</title>
<path fill="none" stroke="black" stroke-dasharray="5,2" d="M674.12,-171.82C675.43,-161.19 677.15,-147.31 678.64,-135.2"/>
<polygon fill="black" stroke="black" points="682.13,-135.51 679.88,-125.15 675.18,-134.65 682.13,-135.51"/>
</g>
<!-- 39 -->
<g id="node17" class="node">
<title>39</title>
<ellipse fill="none" stroke="black" cx="812" cy="-107" rx="55.79" ry="18"/>
<text text-anchor="middle" x="812" y="-103.3" font-family="Times,serif" font-size="14.00">V1897 (b)</text>
</g>
<!-- 22&#45;&gt;39 -->
<g id="edge16" class="edge">
<title>22&#45;&gt;39</title>
<path fill="none" stroke="black" stroke-dasharray="1,5" d="M696.71,-174.71C719.08,-161.76 752.27,-142.56 777.3,-128.08"/>
<polygon fill="black" stroke="black" points="779.21,-131.01 786.12,-122.97 775.71,-124.95 779.21,-131.01"/>
</g>
<!-- 23 -->
<g id="node8" class="node">
<title>23</title>
<ellipse fill="none" stroke="black" cx="772" cy="-34" rx="43.59" ry="18"/>
<text text-anchor="middle" x="772" y="-30.3" font-family="Times,serif" font-size="14.00">Bas (b)</text>
</g>
<!-- 25 -->
<g id="node9" class="node">
<title>25</title>
<ellipse fill="none" stroke="black" cx="600" cy="-273" rx="44.39" ry="18"/>
<text text-anchor="middle" x="600" y="-269.3" font-family="Times,serif" font-size="14.00">A25 (b)</text>
</g>
<!-- 25&#45;&gt;0 -->
<g id="edge1" class="edge">
<title>25&#45;&gt;0</title>
<path fill="none" stroke="black" stroke-dasharray="5,2" d="M560.21,-265.01C501.69,-254.43 389.15,-232.91 295,-208 291.63,-207.11 288.15,-206.13 284.67,-205.11"/>
<polygon fill="black" stroke="black" points="285.51,-201.7 274.92,-202.14 283.47,-208.4 285.51,-201.7"/>
</g>
<!-- 25&#45;&gt;3 -->
<g id="edge3" class="edge">
<title>25&#45;&gt;3</title>
<path fill="none" stroke="black" stroke-dasharray="5,2" d="M566.28,-261.16C521.11,-246.64 440.91,-220.86 391.32,-204.92"/>
<polygon fill="black" stroke="black" points="392.12,-201.5 381.52,-201.78 389.97,-208.17 392.12,-201.5"/>
</g>
<!-- 25&#45;&gt;13 -->
<g id="edge4" class="edge">
<title>25&#45;&gt;13</title>
<path fill="none" stroke="black" stroke-dasharray="5,2" d="M575.61,-257.89C553.15,-244.89 519.58,-225.47 494.39,-210.9"/>
<polygon fill="black" stroke="black" points="495.93,-207.75 485.53,-205.77 492.43,-213.81 495.93,-207.75"/>
</g>
<!-- 25&#45;&gt;17 -->
<g id="edge5" class="edge">
<title>25&#45;&gt;17</title>
<path fill="none" stroke="black" stroke-dasharray="5,2" d="M593.21,-254.82C588.9,-243.9 583.23,-229.55 578.36,-217.22"/>
<polygon fill="black" stroke="black" points="581.6,-215.89 574.67,-207.88 575.09,-218.46 581.6,-215.89"/>
</g>
<!-- 25&#45;&gt;22 -->
<g id="edge6" class="edge">
<title>25&#45;&gt;22</title>
<path fill="none" stroke="black" stroke-dasharray="5,2" d="M614.57,-255.61C624.98,-243.89 639.16,-227.95 650.82,-214.83"/>
<polygon fill="black" stroke="black" points="653.67,-216.89 657.7,-207.09 648.44,-212.24 653.67,-216.89"/>
<text text-anchor="middle" x="643.5" y="-229" font-family="Times,serif" font-size="10.00">2</text>
</g>
<!-- 26 -->
<g id="node10" class="node">
<title>26</title>
<ellipse fill="none" stroke="black" cx="779" cy="-190" rx="43.59" ry="18"/>
<text text-anchor="middle" x="779" y="-186.3" font-family="Times,serif" font-size="14.00">La2 (b)</text>
</g>
<!-- 25&#45;&gt;26 -->
<g id="edge9" class="edge">
<title>25&#45;&gt;26</title>
<path fill="none" stroke="black" d="M628.36,-259.17C658.87,-245.36 707.53,-223.34 741.25,-208.08"/>
<polygon fill="black" stroke="black" points="743.1,-211.09 750.77,-203.77 740.22,-204.71 743.1,-211.09"/>
<text text-anchor="middle" x="703.5" y="-229" font-family="Times,serif" font-size="10.00">3</text>
</g>
<!-- 28 -->
<g id="node12" class="node">
<title>28</title>
<ellipse fill="none" stroke="black" cx="891" cy="-190" rx="50.09" ry="18"/>
<text text-anchor="middle" x="891" y="-186.3" font-family="Times,serif" font-size="14.00">S249 (b)</text>
</g>
<!-- 25&#45;&gt;28 -->
<g id="edge11" class="edge">
<title>25&#45;&gt;28</title>
<path fill="none" stroke="black" stroke-dasharray="5,2" d="M635.8,-262.26C681.41,-249.82 762.63,-227.56 832,-208 835.76,-206.94 839.65,-205.84 843.56,-204.72"/>
<polygon fill="black" stroke="black" points="844.6,-208.06 853.25,-201.95 842.67,-201.33 844.6,-208.06"/>
<text text-anchor="middle" x="764.5" y="-229" font-family="Times,serif" font-size="10.00">2</text>
</g>
<!-- 42 -->
<g id="node18" class="node">
<title>42</title>
<ellipse fill="none" stroke="black" cx="1009" cy="-190" rx="50.09" ry="18"/>
<text text-anchor="middle" x="1009" y="-186.3" font-family="Times,serif" font-size="14.00">Patm (b)</text>
</g>
<!-- 25&#45;&gt;42 -->
<g id="edge17" class="edge">
<title>25&#45;&gt;42</title>
<path fill="none" stroke="black" stroke-dasharray="1,5" d="M640.69,-265.91C706.23,-255.8 839.05,-234.06 950,-208 954.03,-207.05 958.19,-206 962.35,-204.9"/>
<polygon fill="black" stroke="black" points="963.28,-208.28 972.01,-202.27 961.44,-201.52 963.28,-208.28"/>
</g>
<!-- 27 -->
<g id="node11" class="node">
<title>27</title>
<ellipse fill="none" stroke="black" cx="876" cy="-34" rx="42.49" ry="18"/>
<text text-anchor="middle" x="876" y="-30.3" font-family="Times,serif" font-size="14.00">Est (b)</text>
</g>
<!-- 39&#45;&gt;23 -->
<g id="edge7" class="edge">
<title>39&#45;&gt;23</title>
<path fill="none" stroke="black" d="M802.52,-89.17C797.69,-80.6 791.71,-69.99 786.33,-60.44"/>
<polygon fill="black" stroke="black" points="789.37,-58.7 781.41,-51.71 783.27,-62.14 789.37,-58.7"/>
</g>
<!-- 39&#45;&gt;27 -->
<g id="edge10" class="edge">
<title>39&#45;&gt;27</title>
<path fill="none" stroke="black" stroke-dasharray="1,5" d="M826.84,-89.53C835,-80.48 845.27,-69.09 854.31,-59.06"/>
<polygon fill="black" stroke="black" points="857.14,-61.15 861.24,-51.38 851.94,-56.46 857.14,-61.15"/>
</g>
<!-- 42&#45;&gt;1 -->
<g id="edge2" class="edge">
<title>42&#45;&gt;1</title>
<path fill="none" stroke="black" stroke-dasharray="1,5" d="M1007.73,-171.82C1006.94,-161.19 1005.91,-147.31 1005.02,-135.2"/>
<polygon fill="black" stroke="black" points="1008.5,-134.87 1004.27,-125.15 1001.52,-135.38 1008.5,-134.87"/>
<text text-anchor="middle" x="1009.5" y="-146" font-family="Times,serif" font-size="10.00">2</text>
</g>
<!-- 10 -->
<g id="node19" class="node">
<title>10</title>
<ellipse fill="none" stroke="blue" stroke-dasharray="5,2" cx="600" cy="-347" rx="53.89" ry="18"/>
<text text-anchor="middle" x="600" y="-343.3" font-family="Times,serif" font-size="14.00">aBase (a)</text>
</g>
<!-- 10&#45;&gt;25 -->
<g id="edge8" class="edge">
<title>10&#45;&gt;25</title>
<path fill="none" stroke="blue" stroke-dasharray="5,2" d="M600,-328.94C600,-320.81 600,-310.88 600,-301.7"/>
<polygon fill="blue" stroke="blue" points="603.5,-301.44 600,-291.44 596.5,-301.44 603.5,-301.44"/>
</g>
</g>
</svg>
