<?xml version="1.0" encoding="UTF-8" standalone="no"?>
<!DOCTYPE svg PUBLIC "-//W3C//DTD SVG 1.1//EN"
 "http://www.w3.org/Graphics/SVG/1.1/DTD/svg11.dtd">
<!-- Generated by graphviz version 2.43.0 (0)
 -->
<!-- Title: textual_flow_diagram Pages: 1 -->
<svg width="328pt" height="222pt"
 viewBox="0.00 0.00 328.00 222.00" xmlns="http://www.w3.org/2000/svg" xmlns:xlink="http://www.w3.org/1999/xlink">
<g id="graph0" class="graph" transform="scale(1 1) rotate(0) translate(4 218)">
<title>textual_flow_diagram</title>
<polygon fill="white" stroke="transparent" points="-4,4 -4,-218 324,-218 324,4 -4,4"/>
<g id="clust1" class="cluster">
<title>cluster_legend</title>
<polygon fill="none" stroke="black" points="8,-152 8,-206 182,-206 182,-152 8,-152"/>
</g>
<g id="clust2" class="cluster">
<title>cluster_plot</title>
</g>
<!-- label -->
<g id="node1" class="node">
<title>label</title>
<text text-anchor="middle" x="95" y="-182.8" font-family="Times,serif" font-size="14.00">adstag1.2.10U36, b</text>
<text text-anchor="middle" x="95" y="-167.8" font-family="Times,serif" font-size="14.00">Con = 3</text>
</g>
<!-- 21 -->
<g id="node2" class="node">
<title>21</title>
<ellipse fill="none" stroke="black" cx="251" cy="-106" rx="53.09" ry="18"/>
<text text-anchor="middle" x="251" y="-102.3" font-family="Times,serif" font-size="14.00">LaSM (b)</text>
</g>
<!-- 28 -->
<g id="node3" class="node">
<title>28</title>
<ellipse fill="none" stroke="black" cx="251" cy="-34" rx="44.69" ry="18"/>
<text text-anchor="middle" x="251" y="-30.3" font-family="Times,serif" font-size="14.00">B39 (b)</text>
</g>
<!-- 21&#45;&gt;28 -->
<g id="edge2" class="edge">
<title>21&#45;&gt;28</title>
<path fill="none" stroke="black" stroke-dasharray="5,2" d="M251,-87.7C251,-79.98 251,-70.71 251,-62.11"/>
<polygon fill="black" stroke="black" points="254.5,-62.1 251,-52.1 247.5,-62.1 254.5,-62.1"/>
</g>
<!-- 5 -->
<g id="node4" class="node">
<title>5</title>
<ellipse fill="none" stroke="blue" stroke-dasharray="5,2" cx="251" cy="-179" rx="50.09" ry="18"/>
<text text-anchor="middle" x="251" y="-175.3" font-family="Times,serif" font-size="14.00">Patm (a)</text>
</g>
<!-- 5&#45;&gt;21 -->
<g id="edge1" class="edge">
<title>5&#45;&gt;21</title>
<path fill="none" stroke="blue" stroke-dasharray="5,2" d="M251,-160.81C251,-152.79 251,-143.05 251,-134.07"/>
<polygon fill="blue" stroke="blue" points="254.5,-134.03 251,-124.03 247.5,-134.03 254.5,-134.03"/>
</g>
</g>
</svg>
