<?xml version="1.0" encoding="UTF-8" standalone="no"?>
<!DOCTYPE svg PUBLIC "-//W3C//DTD SVG 1.1//EN"
 "http://www.w3.org/Graphics/SVG/1.1/DTD/svg11.dtd">
<!-- Generated by graphviz version 2.43.0 (0)
 -->
<!-- Title: textual_flow_diagram Pages: 1 -->
<svg width="588pt" height="222pt"
 viewBox="0.00 0.00 588.00 222.00" xmlns="http://www.w3.org/2000/svg" xmlns:xlink="http://www.w3.org/1999/xlink">
<g id="graph0" class="graph" transform="scale(1 1) rotate(0) translate(4 218)">
<title>textual_flow_diagram</title>
<polygon fill="white" stroke="transparent" points="-4,4 -4,-218 584,-218 584,4 -4,4"/>
<g id="clust1" class="cluster">
<title>cluster_legend</title>
<polygon fill="none" stroke="black" points="8,-152 8,-206 204,-206 204,-152 8,-152"/>
</g>
<g id="clust2" class="cluster">
<title>cluster_plot</title>
</g>
<!-- label -->
<g id="node1" class="node">
<title>label</title>
<text text-anchor="middle" x="106" y="-182.8" font-family="Times,serif" font-size="14.00">adstag1.3.40U16&#45;24, c</text>
<text text-anchor="middle" x="106" y="-167.8" font-family="Times,serif" font-size="14.00">Con = 5</text>
</g>
<!-- 6 -->
<g id="node2" class="node">
<title>6</title>
<ellipse fill="none" stroke="black" cx="269" cy="-106" rx="49.29" ry="18"/>
<text text-anchor="middle" x="269" y="-102.3" font-family="Times,serif" font-size="14.00">V569 (c)</text>
</g>
<!-- 12 -->
<g id="node3" class="node">
<title>12</title>
<ellipse fill="none" stroke="black" cx="392" cy="-106" rx="55.49" ry="18"/>
<text text-anchor="middle" x="392" y="-102.3" font-family="Times,serif" font-size="14.00">V2250 (c)</text>
</g>
<!-- 24 -->
<g id="node4" class="node">
<title>24</title>
<ellipse fill="none" stroke="black" cx="509" cy="-34" rx="55.49" ry="18"/>
<text text-anchor="middle" x="509" y="-30.3" font-family="Times,serif" font-size="14.00">V1920 (c)</text>
</g>
<!-- 29 -->
<g id="node5" class="node">
<title>29</title>
<ellipse fill="none" stroke="black" cx="515" cy="-106" rx="49.29" ry="18"/>
<text text-anchor="middle" x="515" y="-102.3" font-family="Times,serif" font-size="14.00">V560 (c)</text>
</g>
<!-- 29&#45;&gt;24 -->
<g id="edge3" class="edge">
<title>29&#45;&gt;24</title>
<path fill="none" stroke="black" stroke-dasharray="5,2" d="M513.52,-87.7C512.86,-79.98 512.06,-70.71 511.32,-62.11"/>
<polygon fill="black" stroke="black" points="514.81,-61.77 510.47,-52.1 507.83,-62.37 514.81,-61.77"/>
</g>
<!-- 0 -->
<g id="node6" class="node">
<title>0</title>
<ellipse fill="none" stroke="blue" stroke-dasharray="5,2" cx="510" cy="-179" rx="53.89" ry="18"/>
<text text-anchor="middle" x="510" y="-175.3" font-family="Times,serif" font-size="14.00">aBase (a)</text>
</g>
<!-- 0&#45;&gt;29 -->
<g id="edge4" class="edge">
<title>0&#45;&gt;29</title>
<path fill="none" stroke="blue" stroke-width="2" d="M511.21,-160.81C511.78,-152.79 512.46,-143.05 513.09,-134.07"/>
<polygon fill="blue" stroke="blue" stroke-width="2" points="516.59,-134.25 513.8,-124.03 509.61,-133.76 516.59,-134.25"/>
</g>
<!-- 3 -->
<g id="node7" class="node">
<title>3</title>
<ellipse fill="none" stroke="blue" stroke-dasharray="5,2" cx="392" cy="-179" rx="45.49" ry="18"/>
<text text-anchor="middle" x="392" y="-175.3" font-family="Times,serif" font-size="14.00">Nan (b)</text>
</g>
<!-- 3&#45;&gt;12 -->
<g id="edge2" class="edge">
<title>3&#45;&gt;12</title>
<path fill="none" stroke="blue" stroke-dasharray="5,2" d="M392,-160.81C392,-152.79 392,-143.05 392,-134.07"/>
<polygon fill="blue" stroke="blue" points="395.5,-134.03 392,-124.03 388.5,-134.03 395.5,-134.03"/>
</g>
<!-- 27 -->
<g id="node8" class="node">
<title>27</title>
<ellipse fill="none" stroke="blue" stroke-dasharray="5,2" cx="269" cy="-179" rx="47.39" ry="18"/>
<text text-anchor="middle" x="269" y="-175.3" font-family="Times,serif" font-size="14.00">Taur (b)</text>
</g>
<!-- 27&#45;&gt;6 -->
<g id="edge1" class="edge">
<title>27&#45;&gt;6</title>
<path fill="none" stroke="blue" stroke-dasharray="5,2" d="M269,-160.81C269,-152.79 269,-143.05 269,-134.07"/>
<polygon fill="blue" stroke="blue" points="272.5,-134.03 269,-124.03 265.5,-134.03 272.5,-134.03"/>
</g>
</g>
</svg>
