<?xml version="1.0" encoding="UTF-8" standalone="no"?>
<!DOCTYPE svg PUBLIC "-//W3C//DTD SVG 1.1//EN"
 "http://www.w3.org/Graphics/SVG/1.1/DTD/svg11.dtd">
<!-- Generated by graphviz version 2.43.0 (0)
 -->
<!-- Title: textual_flow_diagram Pages: 1 -->
<svg width="1299pt" height="294pt"
 viewBox="0.00 0.00 1299.00 294.00" xmlns="http://www.w3.org/2000/svg" xmlns:xlink="http://www.w3.org/1999/xlink">
<g id="graph0" class="graph" transform="scale(1 1) rotate(0) translate(4 290)">
<title>textual_flow_diagram</title>
<polygon fill="white" stroke="transparent" points="-4,4 -4,-290 1295,-290 1295,4 -4,4"/>
<g id="clust1" class="cluster">
<title>cluster_legend</title>
<polygon fill="none" stroke="black" points="8,-224 8,-278 204,-278 204,-224 8,-224"/>
</g>
<g id="clust2" class="cluster">
<title>cluster_plot</title>
</g>
<!-- label -->
<g id="node1" class="node">
<title>label</title>
<text text-anchor="middle" x="106" y="-254.8" font-family="Times,serif" font-size="14.00">adstag1.2.40U48&#45;50, b</text>
<text text-anchor="middle" x="106" y="-239.8" font-family="Times,serif" font-size="14.00">Con = 1</text>
</g>
<!-- 2 -->
<g id="node2" class="node">
<title>2</title>
<ellipse fill="none" stroke="black" cx="524" cy="-106" rx="44.39" ry="18"/>
<text text-anchor="middle" x="524" y="-102.3" font-family="Times,serif" font-size="14.00">P74 (b)</text>
</g>
<!-- 3 -->
<g id="node3" class="node">
<title>3</title>
<ellipse fill="none" stroke="black" cx="625" cy="-178" rx="44.39" ry="18"/>
<text text-anchor="middle" x="625" y="-174.3" font-family="Times,serif" font-size="14.00">S32 (b)</text>
</g>
<!-- 4 -->
<g id="node4" class="node">
<title>4</title>
<ellipse fill="none" stroke="black" cx="406" cy="-106" rx="55.79" ry="18"/>
<text text-anchor="middle" x="406" y="-102.3" font-family="Times,serif" font-size="14.00">V2036 (b)</text>
</g>
<!-- 5 -->
<g id="node5" class="node">
<title>5</title>
<ellipse fill="none" stroke="black" cx="636" cy="-106" rx="50.09" ry="18"/>
<text text-anchor="middle" x="636" y="-102.3" font-family="Times,serif" font-size="14.00">V565 (b)</text>
</g>
<!-- 7 -->
<g id="node6" class="node">
<title>7</title>
<ellipse fill="none" stroke="black" cx="1222" cy="-34" rx="50.09" ry="18"/>
<text text-anchor="middle" x="1222" y="-30.3" font-family="Times,serif" font-size="14.00">A336 (b)</text>
</g>
<!-- 10 -->
<g id="node7" class="node">
<title>10</title>
<ellipse fill="none" stroke="black" cx="376" cy="-178" rx="53.09" ry="18"/>
<text text-anchor="middle" x="376" y="-174.3" font-family="Times,serif" font-size="14.00">M136 (b)</text>
</g>
<!-- 12 -->
<g id="node8" class="node">
<title>12</title>
<ellipse fill="none" stroke="black" cx="263" cy="-178" rx="41.69" ry="18"/>
<text text-anchor="middle" x="263" y="-174.3" font-family="Times,serif" font-size="14.00">Sin (b)</text>
</g>
<!-- 14 -->
<g id="node9" class="node">
<title>14</title>
<ellipse fill="none" stroke="black" cx="497" cy="-178" rx="50.09" ry="18"/>
<text text-anchor="middle" x="497" y="-174.3" font-family="Times,serif" font-size="14.00">V560 (b)</text>
</g>
<!-- 23 -->
<g id="node14" class="node">
<title>23</title>
<ellipse fill="none" stroke="black" cx="276" cy="-106" rx="55.79" ry="18"/>
<text text-anchor="middle" x="276" y="-102.3" font-family="Times,serif" font-size="14.00">V1920 (b)</text>
</g>
<!-- 14&#45;&gt;23 -->
<g id="edge13" class="edge">
<title>14&#45;&gt;23</title>
<path fill="none" stroke="black" stroke-dasharray="5,2" d="M460.51,-165.44C423.24,-153.64 365.2,-135.25 324.18,-122.26"/>
<polygon fill="black" stroke="black" points="324.99,-118.85 314.4,-119.16 322.88,-125.52 324.99,-118.85"/>
</g>
<!-- 17 -->
<g id="node10" class="node">
<title>17</title>
<ellipse fill="none" stroke="black" cx="753" cy="-106" rx="49.29" ry="18"/>
<text text-anchor="middle" x="753" y="-102.3" font-family="Times,serif" font-size="14.00">La35 (b)</text>
</g>
<!-- 18 -->
<g id="node11" class="node">
<title>18</title>
<ellipse fill="none" stroke="black" cx="870" cy="-106" rx="50.09" ry="18"/>
<text text-anchor="middle" x="870" y="-102.3" font-family="Times,serif" font-size="14.00">V571 (b)</text>
</g>
<!-- 21 -->
<g id="node12" class="node">
<title>21</title>
<ellipse fill="none" stroke="black" cx="988" cy="-106" rx="50.09" ry="18"/>
<text text-anchor="middle" x="988" y="-102.3" font-family="Times,serif" font-size="14.00">A116 (b)</text>
</g>
<!-- 22 -->
<g id="node13" class="node">
<title>22</title>
<ellipse fill="none" stroke="black" cx="1103" cy="-106" rx="47.39" ry="18"/>
<text text-anchor="middle" x="1103" y="-102.3" font-family="Times,serif" font-size="14.00">Bodl (b)</text>
</g>
<!-- 30 -->
<g id="node15" class="node">
<title>30</title>
<ellipse fill="none" stroke="black" cx="1102" cy="-178" rx="46.59" ry="18"/>
<text text-anchor="middle" x="1102" y="-174.3" font-family="Times,serif" font-size="14.00">Mon (b)</text>
</g>
<!-- 35 -->
<g id="node16" class="node">
<title>35</title>
<ellipse fill="none" stroke="black" cx="737" cy="-178" rx="50.09" ry="18"/>
<text text-anchor="middle" x="737" y="-174.3" font-family="Times,serif" font-size="14.00">Patm (b)</text>
</g>
<!-- 35&#45;&gt;4 -->
<g id="edge3" class="edge">
<title>35&#45;&gt;4</title>
<path fill="none" stroke="black" stroke-dasharray="1,5" d="M700.02,-165.68C692.76,-163.65 685.17,-161.65 678,-160 587,-139.04 562.25,-143.83 471,-124 466.4,-123 461.63,-121.89 456.86,-120.74"/>
<polygon fill="black" stroke="black" points="457.69,-117.33 447.14,-118.31 456,-124.13 457.69,-117.33"/>
</g>
<!-- 41 -->
<g id="node17" class="node">
<title>41</title>
<ellipse fill="none" stroke="black" cx="862" cy="-178" rx="49.29" ry="18"/>
<text text-anchor="middle" x="862" y="-174.3" font-family="Times,serif" font-size="14.00">La22 (b)</text>
</g>
<!-- 41&#45;&gt;2 -->
<g id="edge1" class="edge">
<title>41&#45;&gt;2</title>
<path fill="none" stroke="black" stroke-dasharray="1,5" d="M823.75,-166.53C814.69,-164.22 805.03,-161.9 796,-160 699.48,-139.68 672.89,-147.13 577,-124 573.56,-123.17 570.02,-122.23 566.48,-121.23"/>
<polygon fill="black" stroke="black" points="567.16,-117.78 556.58,-118.28 565.17,-124.49 567.16,-117.78"/>
</g>
<!-- 41&#45;&gt;5 -->
<g id="edge4" class="edge">
<title>41&#45;&gt;5</title>
<path fill="none" stroke="black" stroke-dasharray="5,2" d="M825.69,-165.75C786.76,-153.7 724.84,-134.52 682.4,-121.37"/>
<polygon fill="black" stroke="black" points="683.18,-117.95 672.6,-118.33 681.11,-124.64 683.18,-117.95"/>
</g>
<!-- 41&#45;&gt;17 -->
<g id="edge9" class="edge">
<title>41&#45;&gt;17</title>
<path fill="none" stroke="black" stroke-dasharray="1,5" d="M838.62,-161.98C822.96,-151.93 802.14,-138.56 784.95,-127.52"/>
<polygon fill="black" stroke="black" points="786.65,-124.45 776.34,-121.99 782.87,-130.34 786.65,-124.45"/>
</g>
<!-- 41&#45;&gt;18 -->
<g id="edge10" class="edge">
<title>41&#45;&gt;18</title>
<path fill="none" stroke="black" stroke-dasharray="1,5" d="M863.98,-159.7C864.86,-151.98 865.92,-142.71 866.9,-134.11"/>
<polygon fill="black" stroke="black" points="870.39,-134.44 868.05,-124.1 863.43,-133.64 870.39,-134.44"/>
</g>
<!-- 41&#45;&gt;21 -->
<g id="edge11" class="edge">
<title>41&#45;&gt;21</title>
<path fill="none" stroke="black" stroke-dasharray="5,2" d="M888.11,-162.5C906.94,-152.03 932.58,-137.79 953.16,-126.36"/>
<polygon fill="black" stroke="black" points="954.88,-129.4 961.93,-121.49 951.48,-123.28 954.88,-129.4"/>
</g>
<!-- 41&#45;&gt;22 -->
<g id="edge12" class="edge">
<title>41&#45;&gt;22</title>
<path fill="none" stroke="black" stroke-dasharray="5,2" d="M899.96,-166.31C937.39,-155.73 996.21,-138.98 1047,-124 1050.37,-123.01 1053.84,-121.97 1057.34,-120.93"/>
<polygon fill="black" stroke="black" points="1058.61,-124.2 1067.18,-117.97 1056.59,-117.5 1058.61,-124.2"/>
</g>
<!-- 42 -->
<g id="node18" class="node">
<title>42</title>
<ellipse fill="none" stroke="black" cx="1222" cy="-106" rx="53.09" ry="18"/>
<text text-anchor="middle" x="1222" y="-102.3" font-family="Times,serif" font-size="14.00">M111 (b)</text>
</g>
<!-- 41&#45;&gt;42 -->
<g id="edge17" class="edge">
<title>41&#45;&gt;42</title>
<path fill="none" stroke="black" stroke-dasharray="1,5" d="M906.77,-170.25C965.12,-161.18 1070.19,-143.87 1159,-124 1163.41,-123.01 1167.98,-121.92 1172.54,-120.78"/>
<polygon fill="black" stroke="black" points="1173.66,-124.11 1182.47,-118.23 1171.92,-117.33 1173.66,-124.11"/>
</g>
<!-- 42&#45;&gt;7 -->
<g id="edge5" class="edge">
<title>42&#45;&gt;7</title>
<path fill="none" stroke="black" stroke-dasharray="5,2" d="M1222,-87.7C1222,-79.98 1222,-70.71 1222,-62.11"/>
<polygon fill="black" stroke="black" points="1225.5,-62.1 1222,-52.1 1218.5,-62.1 1225.5,-62.1"/>
</g>
<!-- 11 -->
<g id="node19" class="node">
<title>11</title>
<ellipse fill="none" stroke="blue" stroke-dasharray="5,2" cx="1102" cy="-251" rx="47.39" ry="18"/>
<text text-anchor="middle" x="1102" y="-247.3" font-family="Times,serif" font-size="14.00">Marc (i)</text>
</g>
<!-- 11&#45;&gt;30 -->
<g id="edge14" class="edge">
<title>11&#45;&gt;30</title>
<path fill="none" stroke="blue" stroke-dasharray="1,5" d="M1102,-232.81C1102,-224.79 1102,-215.05 1102,-206.07"/>
<polygon fill="blue" stroke="blue" points="1105.5,-206.03 1102,-196.03 1098.5,-206.03 1105.5,-206.03"/>
</g>
<!-- 25 -->
<g id="node20" class="node">
<title>25</title>
<ellipse fill="none" stroke="blue" stroke-dasharray="5,2" cx="737" cy="-251" rx="44.39" ry="18"/>
<text text-anchor="middle" x="737" y="-247.3" font-family="Times,serif" font-size="14.00">A25 (d)</text>
</g>
<!-- 25&#45;&gt;3 -->
<g id="edge2" class="edge">
<title>25&#45;&gt;3</title>
<path fill="none" stroke="blue" stroke-dasharray="5,2" d="M714.06,-235.46C697.46,-224.93 674.8,-210.57 656.5,-198.97"/>
<polygon fill="blue" stroke="blue" points="658.22,-195.92 647.9,-193.52 654.48,-201.83 658.22,-195.92"/>
</g>
<!-- 25&#45;&gt;35 -->
<g id="edge15" class="edge">
<title>25&#45;&gt;35</title>
<path fill="none" stroke="blue" stroke-dasharray="1,5" d="M737,-232.81C737,-224.79 737,-215.05 737,-206.07"/>
<polygon fill="blue" stroke="blue" points="740.5,-206.03 737,-196.03 733.5,-206.03 740.5,-206.03"/>
</g>
<!-- 25&#45;&gt;41 -->
<g id="edge16" class="edge">
<title>25&#45;&gt;41</title>
<path fill="none" stroke="blue" stroke-dasharray="1,5" d="M761.7,-235.97C780.54,-225.27 806.72,-210.4 827.61,-198.53"/>
<polygon fill="blue" stroke="blue" points="829.53,-201.47 836.5,-193.49 826.07,-195.38 829.53,-201.47"/>
</g>
<!-- 28 -->
<g id="node21" class="node">
<title>28</title>
<ellipse fill="none" stroke="blue" stroke-dasharray="5,2" cx="439" cy="-251" rx="53.89" ry="18"/>
<text text-anchor="middle" x="439" y="-247.3" font-family="Times,serif" font-size="14.00">aBase (a)</text>
</g>
<!-- 28&#45;&gt;10 -->
<g id="edge6" class="edge">
<title>28&#45;&gt;10</title>
<path fill="none" stroke="blue" stroke-width="2" d="M424.39,-233.53C416.36,-224.48 406.25,-213.09 397.35,-203.06"/>
<polygon fill="blue" stroke="blue" stroke-width="2" points="399.79,-200.53 390.53,-195.38 394.55,-205.18 399.79,-200.53"/>
</g>
<!-- 28&#45;&gt;14 -->
<g id="edge8" class="edge">
<title>28&#45;&gt;14</title>
<path fill="none" stroke="blue" stroke-width="2" d="M452.45,-233.53C459.77,-224.57 468.97,-213.31 477.1,-203.36"/>
<polygon fill="blue" stroke="blue" stroke-width="2" points="480,-205.34 483.62,-195.38 474.58,-200.91 480,-205.34"/>
</g>
<!-- 38 -->
<g id="node22" class="node">
<title>38</title>
<ellipse fill="none" stroke="blue" stroke-dasharray="5,2" cx="264" cy="-251" rx="44.39" ry="18"/>
<text text-anchor="middle" x="264" y="-247.3" font-family="Times,serif" font-size="14.00">Taur (i)</text>
</g>
<!-- 38&#45;&gt;12 -->
<g id="edge7" class="edge">
<title>38&#45;&gt;12</title>
<path fill="none" stroke="blue" stroke-dasharray="1,5" d="M263.76,-232.81C263.64,-224.79 263.51,-215.05 263.38,-206.07"/>
<polygon fill="blue" stroke="blue" points="266.88,-205.98 263.24,-196.03 259.88,-206.08 266.88,-205.98"/>
</g>
</g>
</svg>
