<?xml version="1.0" encoding="UTF-8" standalone="no"?>
<!DOCTYPE svg PUBLIC "-//W3C//DTD SVG 1.1//EN"
 "http://www.w3.org/Graphics/SVG/1.1/DTD/svg11.dtd">
<!-- Generated by graphviz version 2.43.0 (0)
 -->
<!-- Title: textual_flow_diagram Pages: 1 -->
<svg width="452pt" height="317pt"
 viewBox="0.00 0.00 452.00 317.00" xmlns="http://www.w3.org/2000/svg" xmlns:xlink="http://www.w3.org/1999/xlink">
<g id="graph0" class="graph" transform="scale(1 1) rotate(0) translate(4 313)">
<title>textual_flow_diagram</title>
<polygon fill="white" stroke="transparent" points="-4,4 -4,-313 448,-313 448,4 -4,4"/>
<g id="clust1" class="cluster">
<title>cluster_legend</title>
<polygon fill="none" stroke="black" points="8,-247 8,-301 182,-301 182,-247 8,-247"/>
</g>
<g id="clust2" class="cluster">
<title>cluster_plot</title>
</g>
<!-- label -->
<g id="node1" class="node">
<title>label</title>
<text text-anchor="middle" x="95" y="-277.8" font-family="Times,serif" font-size="14.00">adstag1.3.43U12, b</text>
<text text-anchor="middle" x="95" y="-262.8" font-family="Times,serif" font-size="14.00">Con = 10</text>
</g>
<!-- 19 -->
<g id="node2" class="node">
<title>19</title>
<ellipse fill="none" stroke="black" cx="316" cy="-200" rx="50.09" ry="18"/>
<text text-anchor="middle" x="316" y="-196.3" font-family="Times,serif" font-size="14.00">V566 (b)</text>
</g>
<!-- 36 -->
<g id="node4" class="node">
<title>36</title>
<ellipse fill="none" stroke="black" cx="254" cy="-117" rx="55.79" ry="18"/>
<text text-anchor="middle" x="254" y="-113.3" font-family="Times,serif" font-size="14.00">V1639 (b)</text>
</g>
<!-- 19&#45;&gt;36 -->
<g id="edge3" class="edge">
<title>19&#45;&gt;36</title>
<path fill="none" stroke="black" stroke-dasharray="1,5" d="M303.15,-182.22C294.42,-170.81 282.73,-155.54 272.94,-142.74"/>
<polygon fill="black" stroke="black" points="275.69,-140.58 266.83,-134.76 270.13,-144.83 275.69,-140.58"/>
</g>
<!-- 41 -->
<g id="node5" class="node">
<title>41</title>
<ellipse fill="none" stroke="black" cx="378" cy="-117" rx="50.09" ry="18"/>
<text text-anchor="middle" x="378" y="-113.3" font-family="Times,serif" font-size="14.00">A116 (b)</text>
</g>
<!-- 19&#45;&gt;41 -->
<g id="edge4" class="edge">
<title>19&#45;&gt;41</title>
<path fill="none" stroke="black" stroke-dasharray="1,5" d="M328.85,-182.22C337.63,-170.74 349.42,-155.33 359.26,-142.49"/>
<polygon fill="black" stroke="black" points="362.08,-144.55 365.38,-134.48 356.52,-140.3 362.08,-144.55"/>
<text text-anchor="middle" x="356.5" y="-156" font-family="Times,serif" font-size="10.00">10</text>
</g>
<!-- 24 -->
<g id="node3" class="node">
<title>24</title>
<ellipse fill="none" stroke="black" cx="372" cy="-34" rx="55.79" ry="18"/>
<text text-anchor="middle" x="372" y="-30.3" font-family="Times,serif" font-size="14.00">V1920 (b)</text>
</g>
<!-- 41&#45;&gt;24 -->
<g id="edge2" class="edge">
<title>41&#45;&gt;24</title>
<path fill="none" stroke="black" stroke-width="2" d="M376.73,-98.82C375.94,-88.19 374.91,-74.31 374.02,-62.2"/>
<polygon fill="black" stroke="black" stroke-width="2" points="377.5,-61.87 373.27,-52.15 370.52,-62.38 377.5,-61.87"/>
<text text-anchor="middle" x="378.5" y="-73" font-family="Times,serif" font-size="10.00">9</text>
</g>
<!-- 15 -->
<g id="node6" class="node">
<title>15</title>
<ellipse fill="none" stroke="blue" stroke-dasharray="5,2" cx="316" cy="-274" rx="44.39" ry="18"/>
<text text-anchor="middle" x="316" y="-270.3" font-family="Times,serif" font-size="14.00">A25 (a)</text>
</g>
<!-- 15&#45;&gt;19 -->
<g id="edge1" class="edge">
<title>15&#45;&gt;19</title>
<path fill="none" stroke="blue" stroke-dasharray="5,2" d="M316,-255.94C316,-247.81 316,-237.88 316,-228.7"/>
<polygon fill="blue" stroke="blue" points="319.5,-228.44 316,-218.44 312.5,-228.44 319.5,-228.44"/>
</g>
</g>
</svg>
