<?xml version="1.0" encoding="UTF-8" standalone="no"?>
<!DOCTYPE svg PUBLIC "-//W3C//DTD SVG 1.1//EN"
 "http://www.w3.org/Graphics/SVG/1.1/DTD/svg11.dtd">
<!-- Generated by graphviz version 2.43.0 (0)
 -->
<!-- Title: textual_flow_diagram Pages: 1 -->
<svg width="326pt" height="294pt"
 viewBox="0.00 0.00 326.00 294.00" xmlns="http://www.w3.org/2000/svg" xmlns:xlink="http://www.w3.org/1999/xlink">
<g id="graph0" class="graph" transform="scale(1 1) rotate(0) translate(4 290)">
<title>textual_flow_diagram</title>
<polygon fill="white" stroke="transparent" points="-4,4 -4,-290 322,-290 322,4 -4,4"/>
<g id="clust1" class="cluster">
<title>cluster_legend</title>
<polygon fill="none" stroke="black" points="8,-224 8,-278 186,-278 186,-224 8,-224"/>
</g>
<g id="clust2" class="cluster">
<title>cluster_plot</title>
</g>
<!-- label -->
<g id="node1" class="node">
<title>label</title>
<text text-anchor="middle" x="97" y="-254.8" font-family="Times,serif" font-size="14.00">adstag1.3.70U2&#45;6, d</text>
<text text-anchor="middle" x="97" y="-239.8" font-family="Times,serif" font-size="14.00">Con = 5</text>
</g>
<!-- 4 -->
<g id="node2" class="node">
<title>4</title>
<ellipse fill="none" stroke="black" cx="252" cy="-106" rx="46.59" ry="18"/>
<text text-anchor="middle" x="252" y="-102.3" font-family="Times,serif" font-size="14.00">Mon (d)</text>
</g>
<!-- 23 -->
<g id="node3" class="node">
<title>23</title>
<ellipse fill="none" stroke="black" cx="252" cy="-34" rx="41.69" ry="18"/>
<text text-anchor="middle" x="252" y="-30.3" font-family="Times,serif" font-size="14.00">Sin (d)</text>
</g>
<!-- 4&#45;&gt;23 -->
<g id="edge2" class="edge">
<title>4&#45;&gt;23</title>
<path fill="none" stroke="black" stroke-dasharray="1,5" d="M252,-87.7C252,-79.98 252,-70.71 252,-62.11"/>
<polygon fill="black" stroke="black" points="255.5,-62.1 252,-52.1 248.5,-62.1 255.5,-62.1"/>
</g>
<!-- 30 -->
<g id="node4" class="node">
<title>30</title>
<ellipse fill="none" stroke="black" cx="252" cy="-178" rx="50.09" ry="18"/>
<text text-anchor="middle" x="252" y="-174.3" font-family="Times,serif" font-size="14.00">Marc (d)</text>
</g>
<!-- 30&#45;&gt;4 -->
<g id="edge1" class="edge">
<title>30&#45;&gt;4</title>
<path fill="none" stroke="black" stroke-dasharray="1,5" d="M252,-159.7C252,-151.98 252,-142.71 252,-134.11"/>
<polygon fill="black" stroke="black" points="255.5,-134.1 252,-124.1 248.5,-134.1 255.5,-134.1"/>
</g>
<!-- 21 -->
<g id="node5" class="node">
<title>21</title>
<ellipse fill="none" stroke="blue" stroke-dasharray="5,2" cx="252" cy="-251" rx="46.59" ry="18"/>
<text text-anchor="middle" x="252" y="-247.3" font-family="Times,serif" font-size="14.00">Taur (a)</text>
</g>
<!-- 21&#45;&gt;30 -->
<g id="edge3" class="edge">
<title>21&#45;&gt;30</title>
<path fill="none" stroke="blue" stroke-dasharray="1,5" d="M252,-232.81C252,-224.79 252,-215.05 252,-206.07"/>
<polygon fill="blue" stroke="blue" points="255.5,-206.03 252,-196.03 248.5,-206.03 255.5,-206.03"/>
</g>
</g>
</svg>
