<?xml version="1.0" encoding="UTF-8" standalone="no"?>
<!DOCTYPE svg PUBLIC "-//W3C//DTD SVG 1.1//EN"
 "http://www.w3.org/Graphics/SVG/1.1/DTD/svg11.dtd">
<!-- Generated by graphviz version 2.43.0 (0)
 -->
<!-- Title: textual_flow_diagram Pages: 1 -->
<svg width="1746pt" height="654pt"
 viewBox="0.00 0.00 1746.00 654.00" xmlns="http://www.w3.org/2000/svg" xmlns:xlink="http://www.w3.org/1999/xlink">
<g id="graph0" class="graph" transform="scale(1 1) rotate(0) translate(4 650)">
<title>textual_flow_diagram</title>
<polygon fill="white" stroke="transparent" points="-4,4 -4,-650 1742,-650 1742,4 -4,4"/>
<g id="clust1" class="cluster">
<title>cluster_legend</title>
<polygon fill="none" stroke="black" points="8,-584 8,-638 182,-638 182,-584 8,-584"/>
</g>
<g id="clust2" class="cluster">
<title>cluster_plot</title>
</g>
<!-- label -->
<g id="node1" class="node">
<title>label</title>
<text text-anchor="middle" x="95" y="-614.8" font-family="Times,serif" font-size="14.00">adstag1.2.40U22, a</text>
<text text-anchor="middle" x="95" y="-599.8" font-family="Times,serif" font-size="14.00">Con = 3</text>
</g>
<!-- 0 -->
<g id="node2" class="node">
<title>0</title>
<ellipse fill="none" stroke="black" cx="1672" cy="-394" rx="50.09" ry="18"/>
<text text-anchor="middle" x="1672" y="-390.3" font-family="Times,serif" font-size="14.00">V536 (a)</text>
</g>
<!-- 32 -->
<g id="node29" class="node">
<title>32</title>
<ellipse fill="none" stroke="black" cx="1672" cy="-322" rx="50.09" ry="18"/>
<text text-anchor="middle" x="1672" y="-318.3" font-family="Times,serif" font-size="14.00">V568 (a)</text>
</g>
<!-- 0&#45;&gt;32 -->
<g id="edge27" class="edge">
<title>0&#45;&gt;32</title>
<path fill="none" stroke="black" stroke-dasharray="1,5" d="M1672,-375.7C1672,-367.98 1672,-358.71 1672,-350.11"/>
<polygon fill="black" stroke="black" points="1675.5,-350.1 1672,-340.1 1668.5,-350.1 1675.5,-350.1"/>
</g>
<!-- 1 -->
<g id="node3" class="node">
<title>1</title>
<ellipse fill="none" stroke="black" cx="242" cy="-466" rx="44.39" ry="18"/>
<text text-anchor="middle" x="242" y="-462.3" font-family="Times,serif" font-size="14.00">B39 (a)</text>
</g>
<!-- 2 -->
<g id="node4" class="node">
<title>2</title>
<ellipse fill="none" stroke="black" cx="650" cy="-394" rx="44.39" ry="18"/>
<text text-anchor="middle" x="650" y="-390.3" font-family="Times,serif" font-size="14.00">P74 (a)</text>
</g>
<!-- 3 -->
<g id="node5" class="node">
<title>3</title>
<ellipse fill="none" stroke="black" cx="478" cy="-466" rx="44.39" ry="18"/>
<text text-anchor="middle" x="478" y="-462.3" font-family="Times,serif" font-size="14.00">S32 (a)</text>
</g>
<!-- 4 -->
<g id="node6" class="node">
<title>4</title>
<ellipse fill="none" stroke="black" cx="532" cy="-394" rx="55.79" ry="18"/>
<text text-anchor="middle" x="532" y="-390.3" font-family="Times,serif" font-size="14.00">V2036 (a)</text>
</g>
<!-- 5 -->
<g id="node7" class="node">
<title>5</title>
<ellipse fill="none" stroke="black" cx="762" cy="-394" rx="50.09" ry="18"/>
<text text-anchor="middle" x="762" y="-390.3" font-family="Times,serif" font-size="14.00">V565 (a)</text>
</g>
<!-- 6 -->
<g id="node8" class="node">
<title>6</title>
<ellipse fill="none" stroke="black" cx="1460" cy="-466" rx="55.79" ry="18"/>
<text text-anchor="middle" x="1460" y="-462.3" font-family="Times,serif" font-size="14.00">V1897 (a)</text>
</g>
<!-- 13 -->
<g id="node15" class="node">
<title>13</title>
<ellipse fill="none" stroke="black" cx="1460" cy="-394" rx="42.79" ry="18"/>
<text text-anchor="middle" x="1460" y="-390.3" font-family="Times,serif" font-size="14.00">Bas (a)</text>
</g>
<!-- 6&#45;&gt;13 -->
<g id="edge14" class="edge">
<title>6&#45;&gt;13</title>
<path fill="none" stroke="black" d="M1460,-447.7C1460,-439.98 1460,-430.71 1460,-422.11"/>
<polygon fill="black" stroke="black" points="1463.5,-422.1 1460,-412.1 1456.5,-422.1 1463.5,-422.1"/>
</g>
<!-- 29 -->
<g id="node26" class="node">
<title>29</title>
<ellipse fill="none" stroke="black" cx="1562" cy="-394" rx="41.69" ry="18"/>
<text text-anchor="middle" x="1562" y="-390.3" font-family="Times,serif" font-size="14.00">Est (a)</text>
</g>
<!-- 6&#45;&gt;29 -->
<g id="edge24" class="edge">
<title>6&#45;&gt;29</title>
<path fill="none" stroke="black" stroke-dasharray="1,5" d="M1482.64,-449.46C1497.3,-439.41 1516.54,-426.2 1532.4,-415.31"/>
<polygon fill="black" stroke="black" points="1534.55,-418.08 1540.82,-409.54 1530.59,-412.31 1534.55,-418.08"/>
</g>
<!-- 7 -->
<g id="node9" class="node">
<title>7</title>
<ellipse fill="none" stroke="black" cx="1346" cy="-322" rx="50.09" ry="18"/>
<text text-anchor="middle" x="1346" y="-318.3" font-family="Times,serif" font-size="14.00">A336 (a)</text>
</g>
<!-- 8 -->
<g id="node10" class="node">
<title>8</title>
<ellipse fill="none" stroke="black" cx="1628" cy="-466" rx="55.79" ry="18"/>
<text text-anchor="middle" x="1628" y="-462.3" font-family="Times,serif" font-size="14.00">V1629 (a)</text>
</g>
<!-- 8&#45;&gt;0 -->
<g id="edge1" class="edge">
<title>8&#45;&gt;0</title>
<path fill="none" stroke="black" stroke-dasharray="5,2" d="M1638.65,-448.05C1643.84,-439.8 1650.19,-429.7 1655.95,-420.54"/>
<polygon fill="black" stroke="black" points="1659.09,-422.12 1661.45,-411.79 1653.16,-418.39 1659.09,-422.12"/>
</g>
<!-- 9 -->
<g id="node11" class="node">
<title>9</title>
<ellipse fill="none" stroke="black" cx="348" cy="-538" rx="52.79" ry="18"/>
<text text-anchor="middle" x="348" y="-534.3" font-family="Times,serif" font-size="14.00">LaSM (a)</text>
</g>
<!-- 9&#45;&gt;1 -->
<g id="edge2" class="edge">
<title>9&#45;&gt;1</title>
<path fill="none" stroke="black" stroke-dasharray="5,2" d="M324.74,-521.64C309.52,-511.59 289.46,-498.34 272.9,-487.41"/>
<polygon fill="black" stroke="black" points="274.39,-484.2 264.12,-481.61 270.54,-490.04 274.39,-484.2"/>
</g>
<!-- 10 -->
<g id="node12" class="node">
<title>10</title>
<ellipse fill="none" stroke="black" cx="516" cy="-538" rx="52.79" ry="18"/>
<text text-anchor="middle" x="516" y="-534.3" font-family="Times,serif" font-size="14.00">M136 (a)</text>
</g>
<!-- 11 -->
<g id="node13" class="node">
<title>11</title>
<ellipse fill="none" stroke="black" cx="1672" cy="-106" rx="50.09" ry="18"/>
<text text-anchor="middle" x="1672" y="-102.3" font-family="Times,serif" font-size="14.00">Marc (a)</text>
</g>
<!-- 30 -->
<g id="node27" class="node">
<title>30</title>
<ellipse fill="none" stroke="black" cx="1672" cy="-34" rx="46.29" ry="18"/>
<text text-anchor="middle" x="1672" y="-30.3" font-family="Times,serif" font-size="14.00">Mon (a)</text>
</g>
<!-- 11&#45;&gt;30 -->
<g id="edge25" class="edge">
<title>11&#45;&gt;30</title>
<path fill="none" stroke="black" stroke-dasharray="1,5" d="M1672,-87.7C1672,-79.98 1672,-70.71 1672,-62.11"/>
<polygon fill="black" stroke="black" points="1675.5,-62.1 1672,-52.1 1668.5,-62.1 1675.5,-62.1"/>
</g>
<!-- 12 -->
<g id="node14" class="node">
<title>12</title>
<ellipse fill="none" stroke="black" cx="1672" cy="-178" rx="40.89" ry="18"/>
<text text-anchor="middle" x="1672" y="-174.3" font-family="Times,serif" font-size="14.00">Sin (a)</text>
</g>
<!-- 12&#45;&gt;11 -->
<g id="edge12" class="edge">
<title>12&#45;&gt;11</title>
<path fill="none" stroke="black" stroke-dasharray="1,5" d="M1672,-159.7C1672,-151.98 1672,-142.71 1672,-134.11"/>
<polygon fill="black" stroke="black" points="1675.5,-134.1 1672,-124.1 1668.5,-134.1 1675.5,-134.1"/>
</g>
<!-- 14 -->
<g id="node16" class="node">
<title>14</title>
<ellipse fill="none" stroke="black" cx="637" cy="-538" rx="50.09" ry="18"/>
<text text-anchor="middle" x="637" y="-534.3" font-family="Times,serif" font-size="14.00">V560 (a)</text>
</g>
<!-- 23 -->
<g id="node23" class="node">
<title>23</title>
<ellipse fill="none" stroke="black" cx="360" cy="-466" rx="55.79" ry="18"/>
<text text-anchor="middle" x="360" y="-462.3" font-family="Times,serif" font-size="14.00">V1920 (a)</text>
</g>
<!-- 14&#45;&gt;23 -->
<g id="edge22" class="edge">
<title>14&#45;&gt;23</title>
<path fill="none" stroke="black" stroke-dasharray="5,2" d="M599.62,-525.93C592.46,-523.89 585.01,-521.83 578,-520 510.42,-502.32 492.8,-500.84 425,-484 420.62,-482.91 416.07,-481.76 411.51,-480.6"/>
<polygon fill="black" stroke="black" points="412.13,-477.14 401.57,-478.04 410.38,-483.92 412.13,-477.14"/>
</g>
<!-- 15 -->
<g id="node17" class="node">
<title>15</title>
<ellipse fill="none" stroke="black" cx="590" cy="-466" rx="50.09" ry="18"/>
<text text-anchor="middle" x="590" y="-462.3" font-family="Times,serif" font-size="14.00">V566 (a)</text>
</g>
<!-- 33 -->
<g id="node30" class="node">
<title>33</title>
<ellipse fill="none" stroke="black" cx="254" cy="-394" rx="55.79" ry="18"/>
<text text-anchor="middle" x="254" y="-390.3" font-family="Times,serif" font-size="14.00">V1639 (a)</text>
</g>
<!-- 15&#45;&gt;33 -->
<g id="edge28" class="edge">
<title>15&#45;&gt;33</title>
<path fill="none" stroke="black" stroke-dasharray="1,5" d="M553.03,-453.66C545.76,-451.63 538.17,-449.64 531,-448 437.82,-426.74 412.43,-432.11 319,-412 314.4,-411.01 309.63,-409.91 304.86,-408.76"/>
<polygon fill="black" stroke="black" points="305.68,-405.35 295.13,-406.34 303.99,-412.15 305.68,-405.35"/>
</g>
<!-- 17 -->
<g id="node18" class="node">
<title>17</title>
<ellipse fill="none" stroke="black" cx="879" cy="-394" rx="48.99" ry="18"/>
<text text-anchor="middle" x="879" y="-390.3" font-family="Times,serif" font-size="14.00">La35 (a)</text>
</g>
<!-- 18 -->
<g id="node19" class="node">
<title>18</title>
<ellipse fill="none" stroke="black" cx="996" cy="-394" rx="50.09" ry="18"/>
<text text-anchor="middle" x="996" y="-390.3" font-family="Times,serif" font-size="14.00">V571 (a)</text>
</g>
<!-- 20 -->
<g id="node20" class="node">
<title>20</title>
<ellipse fill="none" stroke="black" cx="698" cy="-466" rx="40.09" ry="18"/>
<text text-anchor="middle" x="698" y="-462.3" font-family="Times,serif" font-size="14.00">Pal (a)</text>
</g>
<!-- 34 -->
<g id="node31" class="node">
<title>34</title>
<ellipse fill="none" stroke="black" cx="393" cy="-394" rx="64.99" ry="18"/>
<text text-anchor="middle" x="393" y="-390.3" font-family="Times,serif" font-size="14.00">Savile&#45;Η (a)</text>
</g>
<!-- 20&#45;&gt;34 -->
<g id="edge29" class="edge">
<title>20&#45;&gt;34</title>
<path fill="none" stroke="black" d="M668.15,-453.91C661.87,-451.78 655.26,-449.7 649,-448 569.41,-426.43 547.64,-429.23 467,-412 461.76,-410.88 456.32,-409.69 450.88,-408.48"/>
<polygon fill="black" stroke="black" points="451.64,-405.06 441.12,-406.28 450.11,-411.89 451.64,-405.06"/>
</g>
<!-- 21 -->
<g id="node21" class="node">
<title>21</title>
<ellipse fill="none" stroke="black" cx="1114" cy="-394" rx="50.09" ry="18"/>
<text text-anchor="middle" x="1114" y="-390.3" font-family="Times,serif" font-size="14.00">A116 (a)</text>
</g>
<!-- 22 -->
<g id="node22" class="node">
<title>22</title>
<ellipse fill="none" stroke="black" cx="1229" cy="-394" rx="46.59" ry="18"/>
<text text-anchor="middle" x="1229" y="-390.3" font-family="Times,serif" font-size="14.00">Bodl (a)</text>
</g>
<!-- 25 -->
<g id="node24" class="node">
<title>25</title>
<ellipse fill="none" stroke="black" cx="749" cy="-538" rx="44.39" ry="18"/>
<text text-anchor="middle" x="749" y="-534.3" font-family="Times,serif" font-size="14.00">A25 (a)</text>
</g>
<!-- 25&#45;&gt;3 -->
<g id="edge4" class="edge">
<title>25&#45;&gt;3</title>
<path fill="none" stroke="black" stroke-dasharray="5,2" d="M716.07,-525.9C709.45,-523.82 702.53,-521.76 696,-520 623.51,-500.52 603.49,-503.48 531,-484 527.63,-483.09 524.16,-482.11 520.68,-481.08"/>
<polygon fill="black" stroke="black" points="521.52,-477.67 510.93,-478.1 519.48,-484.37 521.52,-477.67"/>
</g>
<!-- 25&#45;&gt;15 -->
<g id="edge16" class="edge">
<title>25&#45;&gt;15</title>
<path fill="none" stroke="black" stroke-dasharray="5,2" d="M720.21,-524.32C694.88,-513.17 657.77,-496.84 629.64,-484.45"/>
<polygon fill="black" stroke="black" points="631.04,-481.24 620.48,-480.42 628.22,-487.65 631.04,-481.24"/>
</g>
<!-- 25&#45;&gt;20 -->
<g id="edge19" class="edge">
<title>25&#45;&gt;20</title>
<path fill="none" stroke="black" stroke-dasharray="5,2" d="M736.91,-520.41C730.69,-511.87 722.97,-501.28 716.06,-491.79"/>
<polygon fill="black" stroke="black" points="718.72,-489.49 710,-483.47 713.06,-493.61 718.72,-489.49"/>
</g>
<!-- 31 -->
<g id="node28" class="node">
<title>31</title>
<ellipse fill="none" stroke="black" cx="800" cy="-466" rx="44.39" ry="18"/>
<text text-anchor="middle" x="800" y="-462.3" font-family="Times,serif" font-size="14.00">P01 (a)</text>
</g>
<!-- 25&#45;&gt;31 -->
<g id="edge26" class="edge">
<title>25&#45;&gt;31</title>
<path fill="none" stroke="black" stroke-dasharray="5,2" d="M761.09,-520.41C767.31,-511.87 775.03,-501.28 781.94,-491.79"/>
<polygon fill="black" stroke="black" points="784.94,-493.61 788,-483.47 779.28,-489.49 784.94,-493.61"/>
</g>
<!-- 35 -->
<g id="node32" class="node">
<title>35</title>
<ellipse fill="none" stroke="black" cx="912" cy="-466" rx="50.09" ry="18"/>
<text text-anchor="middle" x="912" y="-462.3" font-family="Times,serif" font-size="14.00">Patm (a)</text>
</g>
<!-- 25&#45;&gt;35 -->
<g id="edge30" class="edge">
<title>25&#45;&gt;35</title>
<path fill="none" stroke="black" stroke-dasharray="1,5" d="M778.52,-524.32C804.56,-513.14 842.77,-496.73 871.64,-484.33"/>
<polygon fill="black" stroke="black" points="873.23,-487.46 881.04,-480.3 870.47,-481.03 873.23,-487.46"/>
</g>
<!-- 41 -->
<g id="node36" class="node">
<title>41</title>
<ellipse fill="none" stroke="black" cx="1029" cy="-466" rx="48.99" ry="18"/>
<text text-anchor="middle" x="1029" y="-462.3" font-family="Times,serif" font-size="14.00">La22 (a)</text>
</g>
<!-- 25&#45;&gt;41 -->
<g id="edge34" class="edge">
<title>25&#45;&gt;41</title>
<path fill="none" stroke="black" stroke-dasharray="1,5" d="M786.86,-528.58C831.16,-518.58 906.66,-501.1 971,-484 974.83,-482.98 978.79,-481.9 982.75,-480.78"/>
<polygon fill="black" stroke="black" points="983.91,-484.09 992.57,-477.98 981.99,-477.36 983.91,-484.09"/>
</g>
<!-- 28 -->
<g id="node25" class="node">
<title>28</title>
<ellipse fill="none" stroke="black" cx="693" cy="-611" rx="53.89" ry="18"/>
<text text-anchor="middle" x="693" y="-607.3" font-family="Times,serif" font-size="14.00">aBase (a)</text>
</g>
<!-- 28&#45;&gt;9 -->
<g id="edge10" class="edge">
<title>28&#45;&gt;9</title>
<path fill="none" stroke="black" d="M648.25,-600.79C585.04,-587.78 469.76,-564.06 401.91,-550.1"/>
<polygon fill="black" stroke="black" points="402.35,-546.61 391.85,-548.02 400.94,-553.47 402.35,-546.61"/>
</g>
<!-- 28&#45;&gt;10 -->
<g id="edge11" class="edge">
<title>28&#45;&gt;10</title>
<path fill="none" stroke="black" stroke-width="2" d="M659.71,-596.65C631.06,-585.16 589.57,-568.51 558.53,-556.06"/>
<polygon fill="black" stroke="black" stroke-width="2" points="559.43,-552.65 548.84,-552.17 556.82,-559.15 559.43,-552.65"/>
</g>
<!-- 28&#45;&gt;14 -->
<g id="edge15" class="edge">
<title>28&#45;&gt;14</title>
<path fill="none" stroke="black" stroke-width="2" d="M679.73,-593.17C672.82,-584.42 664.25,-573.55 656.6,-563.85"/>
<polygon fill="black" stroke="black" stroke-width="2" points="659.12,-561.39 650.18,-555.71 653.62,-565.72 659.12,-561.39"/>
</g>
<!-- 28&#45;&gt;25 -->
<g id="edge23" class="edge">
<title>28&#45;&gt;25</title>
<path fill="none" stroke="black" stroke-dasharray="5,2" d="M706.27,-593.17C713.18,-584.42 721.75,-573.55 729.4,-563.85"/>
<polygon fill="black" stroke="black" points="732.38,-565.72 735.82,-555.71 726.88,-561.39 732.38,-565.72"/>
</g>
<!-- 37 -->
<g id="node33" class="node">
<title>37</title>
<ellipse fill="none" stroke="black" cx="1183" cy="-538" rx="44.69" ry="18"/>
<text text-anchor="middle" x="1183" y="-534.3" font-family="Times,serif" font-size="14.00">Nan (a)</text>
</g>
<!-- 28&#45;&gt;37 -->
<g id="edge31" class="edge">
<title>28&#45;&gt;37</title>
<path fill="none" stroke="black" d="M741.32,-603C834.04,-589.56 1036.13,-560.28 1131.38,-546.48"/>
<polygon fill="black" stroke="black" points="1131.96,-549.93 1141.35,-545.03 1130.95,-543 1131.96,-549.93"/>
</g>
<!-- 40 -->
<g id="node35" class="node">
<title>40</title>
<ellipse fill="none" stroke="black" cx="1468" cy="-538" rx="50.09" ry="18"/>
<text text-anchor="middle" x="1468" y="-534.3" font-family="Times,serif" font-size="14.00">Neap (a)</text>
</g>
<!-- 28&#45;&gt;40 -->
<g id="edge33" class="edge">
<title>28&#45;&gt;40</title>
<path fill="none" stroke="black" stroke-width="2" d="M744.45,-605.29C883.11,-592.58 1263.94,-557.69 1409.96,-544.32"/>
<polygon fill="black" stroke="black" stroke-width="2" points="1410.43,-547.79 1420.06,-543.39 1409.79,-540.82 1410.43,-547.79"/>
</g>
<!-- 38 -->
<g id="node34" class="node">
<title>38</title>
<ellipse fill="none" stroke="black" cx="1672" cy="-250" rx="46.59" ry="18"/>
<text text-anchor="middle" x="1672" y="-246.3" font-family="Times,serif" font-size="14.00">Taur (a)</text>
</g>
<!-- 32&#45;&gt;38 -->
<g id="edge32" class="edge">
<title>32&#45;&gt;38</title>
<path fill="none" stroke="black" stroke-dasharray="1,5" d="M1672,-303.7C1672,-295.98 1672,-286.71 1672,-278.11"/>
<polygon fill="black" stroke="black" points="1675.5,-278.1 1672,-268.1 1668.5,-278.1 1675.5,-278.1"/>
</g>
<!-- 35&#45;&gt;4 -->
<g id="edge5" class="edge">
<title>35&#45;&gt;4</title>
<path fill="none" stroke="black" stroke-dasharray="1,5" d="M875.38,-453.58C868.02,-451.53 860.3,-449.56 853,-448 740.63,-424.03 709.66,-434.57 597,-412 592.31,-411.06 587.46,-409.99 582.62,-408.85"/>
<polygon fill="black" stroke="black" points="583.29,-405.41 572.75,-406.43 581.63,-412.21 583.29,-405.41"/>
</g>
<!-- 37&#45;&gt;6 -->
<g id="edge7" class="edge">
<title>37&#45;&gt;6</title>
<path fill="none" stroke="black" stroke-dasharray="1,5" d="M1220.07,-527.63C1268.23,-515.46 1352.6,-494.14 1407.38,-480.3"/>
<polygon fill="black" stroke="black" points="1408.41,-483.65 1417.24,-477.8 1406.69,-476.86 1408.41,-483.65"/>
</g>
<!-- 38&#45;&gt;12 -->
<g id="edge13" class="edge">
<title>38&#45;&gt;12</title>
<path fill="none" stroke="black" stroke-dasharray="1,5" d="M1672,-231.7C1672,-223.98 1672,-214.71 1672,-206.11"/>
<polygon fill="black" stroke="black" points="1675.5,-206.1 1672,-196.1 1668.5,-206.1 1675.5,-206.1"/>
</g>
<!-- 40&#45;&gt;8 -->
<g id="edge9" class="edge">
<title>40&#45;&gt;8</title>
<path fill="none" stroke="black" stroke-dasharray="1,5" d="M1498.47,-523.67C1523.53,-512.7 1559.29,-497.06 1586.88,-484.99"/>
<polygon fill="black" stroke="black" points="1588.51,-488.1 1596.27,-480.88 1585.71,-481.68 1588.51,-488.1"/>
</g>
<!-- 41&#45;&gt;2 -->
<g id="edge3" class="edge">
<title>41&#45;&gt;2</title>
<path fill="none" stroke="black" stroke-dasharray="1,5" d="M993.33,-453.62C985.99,-451.55 978.29,-449.55 971,-448 853.44,-423.03 820.23,-438.46 703,-412 699.39,-411.19 695.68,-410.24 691.98,-409.21"/>
<polygon fill="black" stroke="black" points="692.84,-405.82 682.26,-406.35 690.87,-412.53 692.84,-405.82"/>
</g>
<!-- 41&#45;&gt;5 -->
<g id="edge6" class="edge">
<title>41&#45;&gt;5</title>
<path fill="none" stroke="black" stroke-dasharray="5,2" d="M992.57,-454.02C985.43,-451.96 978,-449.86 971,-448 904.75,-430.35 887.29,-429.5 821,-412 817.17,-410.99 813.2,-409.91 809.23,-408.81"/>
<polygon fill="black" stroke="black" points="809.96,-405.38 799.38,-406.05 808.06,-412.12 809.96,-405.38"/>
</g>
<!-- 41&#45;&gt;17 -->
<g id="edge17" class="edge">
<title>41&#45;&gt;17</title>
<path fill="none" stroke="black" stroke-dasharray="1,5" d="M1000.08,-451.5C976.5,-440.5 943,-424.86 917.21,-412.83"/>
<polygon fill="black" stroke="black" points="918.63,-409.63 908.09,-408.57 915.67,-415.98 918.63,-409.63"/>
</g>
<!-- 41&#45;&gt;18 -->
<g id="edge18" class="edge">
<title>41&#45;&gt;18</title>
<path fill="none" stroke="black" stroke-dasharray="1,5" d="M1021.01,-448.05C1017.2,-439.97 1012.56,-430.12 1008.31,-421.11"/>
<polygon fill="black" stroke="black" points="1011.34,-419.34 1003.91,-411.79 1005.01,-422.33 1011.34,-419.34"/>
</g>
<!-- 41&#45;&gt;21 -->
<g id="edge20" class="edge">
<title>41&#45;&gt;21</title>
<path fill="none" stroke="black" stroke-dasharray="5,2" d="M1048.29,-449.12C1059.7,-439.72 1074.33,-427.67 1086.89,-417.33"/>
<polygon fill="black" stroke="black" points="1089.29,-419.88 1094.79,-410.82 1084.84,-414.48 1089.29,-419.88"/>
</g>
<!-- 41&#45;&gt;22 -->
<g id="edge21" class="edge">
<title>41&#45;&gt;22</title>
<path fill="none" stroke="black" stroke-dasharray="5,2" d="M1063.38,-452.97C1097.17,-441.14 1148.86,-423.05 1185.49,-410.23"/>
<polygon fill="black" stroke="black" points="1187.12,-413.37 1195.4,-406.76 1184.81,-406.76 1187.12,-413.37"/>
</g>
<!-- 42 -->
<g id="node37" class="node">
<title>42</title>
<ellipse fill="none" stroke="black" cx="1346" cy="-394" rx="52.79" ry="18"/>
<text text-anchor="middle" x="1346" y="-390.3" font-family="Times,serif" font-size="14.00">M111 (a)</text>
</g>
<!-- 41&#45;&gt;42 -->
<g id="edge35" class="edge">
<title>41&#45;&gt;42</title>
<path fill="none" stroke="black" stroke-dasharray="1,5" d="M1071.78,-457.06C1122.77,-447.39 1210.46,-430.08 1285,-412 1289.03,-411.02 1293.19,-409.97 1297.36,-408.87"/>
<polygon fill="black" stroke="black" points="1298.3,-412.24 1307.05,-406.28 1296.49,-405.48 1298.3,-412.24"/>
</g>
<!-- 42&#45;&gt;7 -->
<g id="edge8" class="edge">
<title>42&#45;&gt;7</title>
<path fill="none" stroke="black" stroke-dasharray="5,2" d="M1346,-375.7C1346,-367.98 1346,-358.71 1346,-350.11"/>
<polygon fill="black" stroke="black" points="1349.5,-350.1 1346,-340.1 1342.5,-350.1 1349.5,-350.1"/>
</g>
</g>
</svg>
