<?xml version="1.0" encoding="UTF-8" standalone="no"?>
<!DOCTYPE svg PUBLIC "-//W3C//DTD SVG 1.1//EN"
 "http://www.w3.org/Graphics/SVG/1.1/DTD/svg11.dtd">
<!-- Generated by graphviz version 2.43.0 (0)
 -->
<!-- Title: textual_flow_diagram Pages: 1 -->
<svg width="460pt" height="536pt"
 viewBox="0.00 0.00 460.00 536.00" xmlns="http://www.w3.org/2000/svg" xmlns:xlink="http://www.w3.org/1999/xlink">
<g id="graph0" class="graph" transform="scale(1 1) rotate(0) translate(4 532)">
<title>textual_flow_diagram</title>
<polygon fill="white" stroke="transparent" points="-4,4 -4,-532 456,-532 456,4 -4,4"/>
<g id="clust1" class="cluster">
<title>cluster_legend</title>
<polygon fill="none" stroke="black" points="8,-466 8,-520 196,-520 196,-466 8,-466"/>
</g>
<g id="clust2" class="cluster">
<title>cluster_plot</title>
</g>
<!-- label -->
<g id="node1" class="node">
<title>label</title>
<text text-anchor="middle" x="102" y="-496.8" font-family="Times,serif" font-size="14.00">adstag1.3.55U4&#45;16, h</text>
<text text-anchor="middle" x="102" y="-481.8" font-family="Times,serif" font-size="14.00">Con = 5</text>
</g>
<!-- 4 -->
<g id="node2" class="node">
<title>4</title>
<ellipse fill="none" stroke="black" cx="262" cy="-107" rx="46.59" ry="18"/>
<text text-anchor="middle" x="262" y="-103.3" font-family="Times,serif" font-size="14.00">Mon (h)</text>
</g>
<!-- 23 -->
<g id="node5" class="node">
<title>23</title>
<ellipse fill="none" stroke="black" cx="262" cy="-34" rx="41.69" ry="18"/>
<text text-anchor="middle" x="262" y="-30.3" font-family="Times,serif" font-size="14.00">Sin (h)</text>
</g>
<!-- 4&#45;&gt;23 -->
<g id="edge4" class="edge">
<title>4&#45;&gt;23</title>
<path fill="none" stroke="black" stroke-dasharray="1,5" d="M262,-88.81C262,-80.79 262,-71.05 262,-62.07"/>
<polygon fill="black" stroke="black" points="265.5,-62.03 262,-52.03 258.5,-62.03 265.5,-62.03"/>
</g>
<!-- 21 -->
<g id="node3" class="node">
<title>21</title>
<ellipse fill="none" stroke="black" cx="273" cy="-253" rx="47.39" ry="18"/>
<text text-anchor="middle" x="273" y="-249.3" font-family="Times,serif" font-size="14.00">Taur (h)</text>
</g>
<!-- 30 -->
<g id="node6" class="node">
<title>30</title>
<ellipse fill="none" stroke="black" cx="262" cy="-180" rx="50.09" ry="18"/>
<text text-anchor="middle" x="262" y="-176.3" font-family="Times,serif" font-size="14.00">Marc (h)</text>
</g>
<!-- 21&#45;&gt;30 -->
<g id="edge5" class="edge">
<title>21&#45;&gt;30</title>
<path fill="none" stroke="black" stroke-dasharray="1,5" d="M270.34,-234.81C269.09,-226.79 267.58,-217.05 266.19,-208.07"/>
<polygon fill="black" stroke="black" points="269.63,-207.38 264.64,-198.03 262.71,-208.45 269.63,-207.38"/>
</g>
<!-- 39 -->
<g id="node9" class="node">
<title>39</title>
<ellipse fill="none" stroke="black" cx="383" cy="-180" rx="53.09" ry="18"/>
<text text-anchor="middle" x="383" y="-176.3" font-family="Times,serif" font-size="14.00">M118 (h)</text>
</g>
<!-- 21&#45;&gt;39 -->
<g id="edge8" class="edge">
<title>21&#45;&gt;39</title>
<path fill="none" stroke="black" stroke-dasharray="5,2" d="M296.06,-237.12C311.83,-226.94 332.97,-213.29 350.45,-202.01"/>
<polygon fill="black" stroke="black" points="352.71,-204.72 359.21,-196.35 348.91,-198.84 352.71,-204.72"/>
</g>
<!-- 22 -->
<g id="node4" class="node">
<title>22</title>
<ellipse fill="none" stroke="black" cx="308" cy="-419" rx="45.49" ry="18"/>
<text text-anchor="middle" x="308" y="-415.3" font-family="Times,serif" font-size="14.00">Nan (h)</text>
</g>
<!-- 34 -->
<g id="node7" class="node">
<title>34</title>
<ellipse fill="none" stroke="black" cx="273" cy="-336" rx="50.09" ry="18"/>
<text text-anchor="middle" x="273" y="-332.3" font-family="Times,serif" font-size="14.00">V536 (h)</text>
</g>
<!-- 22&#45;&gt;34 -->
<g id="edge6" class="edge">
<title>22&#45;&gt;34</title>
<path fill="none" stroke="black" stroke-width="2" d="M300.75,-401.22C296.04,-390.32 289.8,-375.89 284.44,-363.47"/>
<polygon fill="black" stroke="black" stroke-width="2" points="287.54,-361.83 280.36,-354.04 281.12,-364.61 287.54,-361.83"/>
<text text-anchor="middle" x="295.5" y="-375" font-family="Times,serif" font-size="10.00">3</text>
</g>
<!-- 35 -->
<g id="node8" class="node">
<title>35</title>
<ellipse fill="none" stroke="black" cx="383" cy="-336" rx="42.49" ry="18"/>
<text text-anchor="middle" x="383" y="-332.3" font-family="Times,serif" font-size="14.00">Est (h)</text>
</g>
<!-- 22&#45;&gt;35 -->
<g id="edge7" class="edge">
<title>22&#45;&gt;35</title>
<path fill="none" stroke="black" stroke-dasharray="5,2" d="M323.18,-401.61C334.13,-389.78 349.07,-373.65 361.28,-360.46"/>
<polygon fill="black" stroke="black" points="363.88,-362.81 368.1,-353.09 358.74,-358.05 363.88,-362.81"/>
<text text-anchor="middle" x="352.5" y="-375" font-family="Times,serif" font-size="10.00">2</text>
</g>
<!-- 30&#45;&gt;4 -->
<g id="edge1" class="edge">
<title>30&#45;&gt;4</title>
<path fill="none" stroke="black" stroke-dasharray="1,5" d="M262,-161.81C262,-153.79 262,-144.05 262,-135.07"/>
<polygon fill="black" stroke="black" points="265.5,-135.03 262,-125.03 258.5,-135.03 265.5,-135.03"/>
</g>
<!-- 34&#45;&gt;21 -->
<g id="edge2" class="edge">
<title>34&#45;&gt;21</title>
<path fill="none" stroke="black" stroke-dasharray="1,5" d="M273,-317.82C273,-307.19 273,-293.31 273,-281.2"/>
<polygon fill="black" stroke="black" points="276.5,-281.15 273,-271.15 269.5,-281.15 276.5,-281.15"/>
<text text-anchor="middle" x="276.5" y="-292" font-family="Times,serif" font-size="10.00">2</text>
</g>
<!-- 20 -->
<g id="node10" class="node">
<title>20</title>
<ellipse fill="none" stroke="blue" stroke-dasharray="5,2" cx="308" cy="-493" rx="53.89" ry="18"/>
<text text-anchor="middle" x="308" y="-489.3" font-family="Times,serif" font-size="14.00">aBase (a)</text>
</g>
<!-- 20&#45;&gt;22 -->
<g id="edge3" class="edge">
<title>20&#45;&gt;22</title>
<path fill="none" stroke="blue" d="M308,-474.94C308,-466.81 308,-456.88 308,-447.7"/>
<polygon fill="blue" stroke="blue" points="311.5,-447.44 308,-437.44 304.5,-447.44 311.5,-447.44"/>
</g>
</g>
</svg>
