<?xml version="1.0" encoding="UTF-8" standalone="no"?>
<!DOCTYPE svg PUBLIC "-//W3C//DTD SVG 1.1//EN"
 "http://www.w3.org/Graphics/SVG/1.1/DTD/svg11.dtd">
<!-- Generated by graphviz version 2.43.0 (0)
 -->
<!-- Title: textual_flow_diagram Pages: 1 -->
<svg width="471pt" height="234pt"
 viewBox="0.00 0.00 471.00 234.00" xmlns="http://www.w3.org/2000/svg" xmlns:xlink="http://www.w3.org/1999/xlink">
<g id="graph0" class="graph" transform="scale(1 1) rotate(0) translate(4 230)">
<title>textual_flow_diagram</title>
<polygon fill="white" stroke="transparent" points="-4,4 -4,-230 467,-230 467,4 -4,4"/>
<g id="clust1" class="cluster">
<title>cluster_legend</title>
<polygon fill="none" stroke="black" points="8,-164 8,-218 204,-218 204,-164 8,-164"/>
</g>
<g id="clust2" class="cluster">
<title>cluster_plot</title>
</g>
<!-- label -->
<g id="node1" class="node">
<title>label</title>
<text text-anchor="middle" x="106" y="-194.8" font-family="Times,serif" font-size="14.00">adstag1.3.66U18&#45;28, c</text>
<text text-anchor="middle" x="106" y="-179.8" font-family="Times,serif" font-size="14.00">Con = 5</text>
</g>
<!-- 27 -->
<g id="node2" class="node">
<title>27</title>
<ellipse fill="none" stroke="black" cx="392" cy="-117" rx="55.49" ry="18"/>
<text text-anchor="middle" x="392" y="-113.3" font-family="Times,serif" font-size="14.00">V2250 (c)</text>
</g>
<!-- 40 -->
<g id="node3" class="node">
<title>40</title>
<ellipse fill="none" stroke="black" cx="392" cy="-34" rx="42.49" ry="18"/>
<text text-anchor="middle" x="392" y="-30.3" font-family="Times,serif" font-size="14.00">Bas (c)</text>
</g>
<!-- 27&#45;&gt;40 -->
<g id="edge2" class="edge">
<title>27&#45;&gt;40</title>
<path fill="none" stroke="black" stroke-dasharray="5,2" d="M392,-98.82C392,-88.19 392,-74.31 392,-62.2"/>
<polygon fill="black" stroke="black" points="395.5,-62.15 392,-52.15 388.5,-62.15 395.5,-62.15"/>
<text text-anchor="middle" x="395.5" y="-73" font-family="Times,serif" font-size="10.00">5</text>
</g>
<!-- 41 -->
<g id="node4" class="node">
<title>41</title>
<ellipse fill="none" stroke="black" cx="269" cy="-117" rx="49.29" ry="18"/>
<text text-anchor="middle" x="269" y="-113.3" font-family="Times,serif" font-size="14.00">A336 (c)</text>
</g>
<!-- 22 -->
<g id="node5" class="node">
<title>22</title>
<ellipse fill="none" stroke="blue" stroke-dasharray="5,2" cx="392" cy="-191" rx="44.69" ry="18"/>
<text text-anchor="middle" x="392" y="-187.3" font-family="Times,serif" font-size="14.00">Nan (a)</text>
</g>
<!-- 22&#45;&gt;27 -->
<g id="edge1" class="edge">
<title>22&#45;&gt;27</title>
<path fill="none" stroke="blue" stroke-dasharray="5,2" d="M392,-172.94C392,-164.81 392,-154.88 392,-145.7"/>
<polygon fill="blue" stroke="blue" points="395.5,-145.44 392,-135.44 388.5,-145.44 395.5,-145.44"/>
</g>
<!-- 37 -->
<g id="node6" class="node">
<title>37</title>
<ellipse fill="none" stroke="blue" stroke-dasharray="5,2" cx="273" cy="-191" rx="52.79" ry="18"/>
<text text-anchor="middle" x="273" y="-187.3" font-family="Times,serif" font-size="14.00">M111 (a)</text>
</g>
<!-- 37&#45;&gt;41 -->
<g id="edge3" class="edge">
<title>37&#45;&gt;41</title>
<path fill="none" stroke="blue" stroke-dasharray="5,2" d="M272.05,-172.94C271.6,-164.81 271.05,-154.88 270.54,-145.7"/>
<polygon fill="blue" stroke="blue" points="274.02,-145.23 269.97,-135.44 267.03,-145.62 274.02,-145.23"/>
</g>
</g>
</svg>
