<?xml version="1.0" encoding="UTF-8" standalone="no"?>
<!DOCTYPE svg PUBLIC "-//W3C//DTD SVG 1.1//EN"
 "http://www.w3.org/Graphics/SVG/1.1/DTD/svg11.dtd">
<!-- Generated by graphviz version 2.43.0 (0)
 -->
<!-- Title: textual_flow_diagram Pages: 1 -->
<svg width="552pt" height="222pt"
 viewBox="0.00 0.00 552.00 222.00" xmlns="http://www.w3.org/2000/svg" xmlns:xlink="http://www.w3.org/1999/xlink">
<g id="graph0" class="graph" transform="scale(1 1) rotate(0) translate(4 218)">
<title>textual_flow_diagram</title>
<polygon fill="white" stroke="transparent" points="-4,4 -4,-218 548,-218 548,4 -4,4"/>
<g id="clust1" class="cluster">
<title>cluster_legend</title>
<polygon fill="none" stroke="black" points="8,-152 8,-206 182,-206 182,-152 8,-152"/>
</g>
<g id="clust2" class="cluster">
<title>cluster_plot</title>
</g>
<!-- label -->
<g id="node1" class="node">
<title>label</title>
<text text-anchor="middle" x="95" y="-182.8" font-family="Times,serif" font-size="14.00">adstag1.3.59U74, g</text>
<text text-anchor="middle" x="95" y="-167.8" font-family="Times,serif" font-size="14.00">Con = 3</text>
</g>
<!-- 0 -->
<g id="node2" class="node">
<title>0</title>
<ellipse fill="none" stroke="black" cx="358" cy="-106" rx="50.89" ry="18"/>
<text text-anchor="middle" x="358" y="-102.3" font-family="Times,serif" font-size="14.00">Neap (g)</text>
</g>
<!-- 19 -->
<g id="node4" class="node">
<title>19</title>
<ellipse fill="none" stroke="black" cx="358" cy="-34" rx="55.79" ry="18"/>
<text text-anchor="middle" x="358" y="-30.3" font-family="Times,serif" font-size="14.00">V1629 (g)</text>
</g>
<!-- 0&#45;&gt;19 -->
<g id="edge3" class="edge">
<title>0&#45;&gt;19</title>
<path fill="none" stroke="black" stroke-dasharray="1,5" d="M358,-87.7C358,-79.98 358,-70.71 358,-62.11"/>
<polygon fill="black" stroke="black" points="361.5,-62.1 358,-52.1 354.5,-62.1 361.5,-62.1"/>
</g>
<!-- 11 -->
<g id="node3" class="node">
<title>11</title>
<ellipse fill="none" stroke="black" cx="242" cy="-106" rx="44.39" ry="18"/>
<text text-anchor="middle" x="242" y="-102.3" font-family="Times,serif" font-size="14.00">S32 (g)</text>
</g>
<!-- 32 -->
<g id="node5" class="node">
<title>32</title>
<ellipse fill="none" stroke="black" cx="479" cy="-106" rx="47.39" ry="18"/>
<text text-anchor="middle" x="479" y="-102.3" font-family="Times,serif" font-size="14.00">Bodl (g)</text>
</g>
<!-- 5 -->
<g id="node6" class="node">
<title>5</title>
<ellipse fill="none" stroke="blue" stroke-dasharray="5,2" cx="479" cy="-179" rx="48.99" ry="18"/>
<text text-anchor="middle" x="479" y="-175.3" font-family="Times,serif" font-size="14.00">La22 (a)</text>
</g>
<!-- 5&#45;&gt;32 -->
<g id="edge4" class="edge">
<title>5&#45;&gt;32</title>
<path fill="none" stroke="blue" stroke-dasharray="5,2" d="M479,-160.81C479,-152.79 479,-143.05 479,-134.07"/>
<polygon fill="blue" stroke="blue" points="482.5,-134.03 479,-124.03 475.5,-134.03 482.5,-134.03"/>
</g>
<!-- 20 -->
<g id="node7" class="node">
<title>20</title>
<ellipse fill="none" stroke="blue" stroke-dasharray="5,2" cx="358" cy="-179" rx="53.89" ry="18"/>
<text text-anchor="middle" x="358" y="-175.3" font-family="Times,serif" font-size="14.00">aBase (a)</text>
</g>
<!-- 20&#45;&gt;0 -->
<g id="edge1" class="edge">
<title>20&#45;&gt;0</title>
<path fill="none" stroke="blue" stroke-width="2" d="M358,-160.81C358,-152.79 358,-143.05 358,-134.07"/>
<polygon fill="blue" stroke="blue" stroke-width="2" points="361.5,-134.03 358,-124.03 354.5,-134.03 361.5,-134.03"/>
</g>
<!-- 33 -->
<g id="node8" class="node">
<title>33</title>
<ellipse fill="none" stroke="blue" stroke-dasharray="5,2" cx="242" cy="-179" rx="44.39" ry="18"/>
<text text-anchor="middle" x="242" y="-175.3" font-family="Times,serif" font-size="14.00">A25 (a)</text>
</g>
<!-- 33&#45;&gt;11 -->
<g id="edge2" class="edge">
<title>33&#45;&gt;11</title>
<path fill="none" stroke="blue" stroke-dasharray="5,2" d="M242,-160.81C242,-152.79 242,-143.05 242,-134.07"/>
<polygon fill="blue" stroke="blue" points="245.5,-134.03 242,-124.03 238.5,-134.03 245.5,-134.03"/>
</g>
</g>
</svg>
