<?xml version="1.0" encoding="UTF-8" standalone="no"?>
<!DOCTYPE svg PUBLIC "-//W3C//DTD SVG 1.1//EN"
 "http://www.w3.org/Graphics/SVG/1.1/DTD/svg11.dtd">
<!-- Generated by graphviz version 2.43.0 (0)
 -->
<!-- Title: textual_flow_diagram Pages: 1 -->
<svg width="1941pt" height="536pt"
 viewBox="0.00 0.00 1941.00 536.00" xmlns="http://www.w3.org/2000/svg" xmlns:xlink="http://www.w3.org/1999/xlink">
<g id="graph0" class="graph" transform="scale(1 1) rotate(0) translate(4 532)">
<title>textual_flow_diagram</title>
<polygon fill="white" stroke="transparent" points="-4,4 -4,-532 1937,-532 1937,4 -4,4"/>
<g id="clust1" class="cluster">
<title>cluster_legend</title>
<polygon fill="none" stroke="black" points="8,-466 8,-520 190,-520 190,-466 8,-466"/>
</g>
<g id="clust2" class="cluster">
<title>cluster_plot</title>
</g>
<!-- label -->
<g id="node1" class="node">
<title>label</title>
<text text-anchor="middle" x="99" y="-496.8" font-family="Times,serif" font-size="14.00">adstag1.2.40U118, a</text>
<text text-anchor="middle" x="99" y="-481.8" font-family="Times,serif" font-size="14.00">Con = 5</text>
</g>
<!-- 0 -->
<g id="node2" class="node">
<title>0</title>
<ellipse fill="none" stroke="black" cx="916" cy="-336" rx="52.79" ry="18"/>
<text text-anchor="middle" x="916" y="-332.3" font-family="Times,serif" font-size="14.00">M111 (a)</text>
</g>
<!-- 3 -->
<g id="node3" class="node">
<title>3</title>
<ellipse fill="none" stroke="black" cx="917" cy="-253" rx="50.09" ry="18"/>
<text text-anchor="middle" x="917" y="-249.3" font-family="Times,serif" font-size="14.00">A336 (a)</text>
</g>
<!-- 0&#45;&gt;3 -->
<g id="edge2" class="edge">
<title>0&#45;&gt;3</title>
<path fill="none" stroke="black" stroke-dasharray="5,2" d="M916.21,-317.82C916.34,-307.19 916.51,-293.31 916.66,-281.2"/>
<polygon fill="black" stroke="black" points="920.16,-281.2 916.79,-271.15 913.16,-281.11 920.16,-281.2"/>
</g>
<!-- 4 -->
<g id="node4" class="node">
<title>4</title>
<ellipse fill="none" stroke="black" cx="1031" cy="-336" rx="44.39" ry="18"/>
<text text-anchor="middle" x="1031" y="-332.3" font-family="Times,serif" font-size="14.00">P74 (a)</text>
</g>
<!-- 5 -->
<g id="node5" class="node">
<title>5</title>
<ellipse fill="none" stroke="black" cx="248" cy="-336" rx="41.69" ry="18"/>
<text text-anchor="middle" x="248" y="-332.3" font-family="Times,serif" font-size="14.00">Est (a)</text>
</g>
<!-- 6 -->
<g id="node6" class="node">
<title>6</title>
<ellipse fill="none" stroke="black" cx="467" cy="-253" rx="46.59" ry="18"/>
<text text-anchor="middle" x="467" y="-249.3" font-family="Times,serif" font-size="14.00">Taur (a)</text>
</g>
<!-- 8 -->
<g id="node8" class="node">
<title>8</title>
<ellipse fill="none" stroke="black" cx="421" cy="-180" rx="50.09" ry="18"/>
<text text-anchor="middle" x="421" y="-176.3" font-family="Times,serif" font-size="14.00">Marc (a)</text>
</g>
<!-- 6&#45;&gt;8 -->
<g id="edge7" class="edge">
<title>6&#45;&gt;8</title>
<path fill="none" stroke="black" stroke-dasharray="1,5" d="M456.1,-235.17C450.48,-226.51 443.53,-215.77 437.29,-206.14"/>
<polygon fill="black" stroke="black" points="440.2,-204.19 431.82,-197.71 434.32,-208 440.2,-204.19"/>
</g>
<!-- 10 -->
<g id="node10" class="node">
<title>10</title>
<ellipse fill="none" stroke="black" cx="542" cy="-180" rx="52.79" ry="18"/>
<text text-anchor="middle" x="542" y="-176.3" font-family="Times,serif" font-size="14.00">M118 (a)</text>
</g>
<!-- 6&#45;&gt;10 -->
<g id="edge9" class="edge">
<title>6&#45;&gt;10</title>
<path fill="none" stroke="black" stroke-dasharray="5,2" d="M484.02,-235.89C493.99,-226.45 506.75,-214.37 517.76,-203.95"/>
<polygon fill="black" stroke="black" points="520.19,-206.46 525.05,-197.05 515.38,-201.38 520.19,-206.46"/>
</g>
<!-- 7 -->
<g id="node7" class="node">
<title>7</title>
<ellipse fill="none" stroke="black" cx="262" cy="-409" rx="55.79" ry="18"/>
<text text-anchor="middle" x="262" y="-405.3" font-family="Times,serif" font-size="14.00">V1897 (a)</text>
</g>
<!-- 7&#45;&gt;5 -->
<g id="edge4" class="edge">
<title>7&#45;&gt;5</title>
<path fill="none" stroke="black" stroke-dasharray="1,5" d="M258.61,-390.81C257.03,-382.79 255.11,-373.05 253.34,-364.07"/>
<polygon fill="black" stroke="black" points="256.73,-363.16 251.36,-354.03 249.86,-364.52 256.73,-363.16"/>
</g>
<!-- 42 -->
<g id="node34" class="node">
<title>42</title>
<ellipse fill="none" stroke="black" cx="350" cy="-336" rx="42.79" ry="18"/>
<text text-anchor="middle" x="350" y="-332.3" font-family="Times,serif" font-size="14.00">Bas (a)</text>
</g>
<!-- 7&#45;&gt;42 -->
<g id="edge32" class="edge">
<title>7&#45;&gt;42</title>
<path fill="none" stroke="black" d="M281.97,-391.89C294.15,-382.06 309.87,-369.38 323.13,-358.68"/>
<polygon fill="black" stroke="black" points="325.43,-361.32 331.02,-352.32 321.03,-355.87 325.43,-361.32"/>
</g>
<!-- 13 -->
<g id="node13" class="node">
<title>13</title>
<ellipse fill="none" stroke="black" cx="421" cy="-107" rx="46.29" ry="18"/>
<text text-anchor="middle" x="421" y="-103.3" font-family="Times,serif" font-size="14.00">Mon (a)</text>
</g>
<!-- 8&#45;&gt;13 -->
<g id="edge11" class="edge">
<title>8&#45;&gt;13</title>
<path fill="none" stroke="black" stroke-dasharray="1,5" d="M421,-161.81C421,-153.79 421,-144.05 421,-135.07"/>
<polygon fill="black" stroke="black" points="424.5,-135.03 421,-125.03 417.5,-135.03 424.5,-135.03"/>
</g>
<!-- 9 -->
<g id="node9" class="node">
<title>9</title>
<ellipse fill="none" stroke="black" cx="380" cy="-409" rx="44.39" ry="18"/>
<text text-anchor="middle" x="380" y="-405.3" font-family="Times,serif" font-size="14.00">B39 (a)</text>
</g>
<!-- 11 -->
<g id="node11" class="node">
<title>11</title>
<ellipse fill="none" stroke="black" cx="801" cy="-493" rx="53.89" ry="18"/>
<text text-anchor="middle" x="801" y="-489.3" font-family="Times,serif" font-size="14.00">aBase (a)</text>
</g>
<!-- 11&#45;&gt;7 -->
<g id="edge6" class="edge">
<title>11&#45;&gt;7</title>
<path fill="none" stroke="black" d="M749.77,-487.23C662.42,-478.61 479.34,-458.34 327,-427 322.32,-426.04 317.47,-424.95 312.63,-423.8"/>
<polygon fill="black" stroke="black" points="313.31,-420.36 302.76,-421.37 311.63,-427.15 313.31,-420.36"/>
</g>
<!-- 11&#45;&gt;9 -->
<g id="edge8" class="edge">
<title>11&#45;&gt;9</title>
<path fill="none" stroke="black" stroke-width="2" d="M751.75,-485.47C680.73,-475.56 545.73,-454.9 433,-427 429.57,-426.15 426.03,-425.2 422.49,-424.18"/>
<polygon fill="black" stroke="black" stroke-width="2" points="423.18,-420.74 412.6,-421.22 421.17,-427.44 423.18,-420.74"/>
<text text-anchor="middle" x="566.5" y="-448" font-family="Times,serif" font-size="10.00">2</text>
</g>
<!-- 12 -->
<g id="node12" class="node">
<title>12</title>
<ellipse fill="none" stroke="black" cx="498" cy="-409" rx="55.79" ry="18"/>
<text text-anchor="middle" x="498" y="-405.3" font-family="Times,serif" font-size="14.00">V1920 (a)</text>
</g>
<!-- 11&#45;&gt;12 -->
<g id="edge10" class="edge">
<title>11&#45;&gt;12</title>
<path fill="none" stroke="black" stroke-width="2" d="M760.45,-481.03C705.88,-466.26 608.78,-439.98 549.22,-423.86"/>
<polygon fill="black" stroke="black" stroke-width="2" points="549.85,-420.41 539.28,-421.17 548.02,-427.16 549.85,-420.41"/>
<text text-anchor="middle" x="670.5" y="-448" font-family="Times,serif" font-size="10.00">2</text>
</g>
<!-- 16 -->
<g id="node15" class="node">
<title>16</title>
<ellipse fill="none" stroke="black" cx="625" cy="-409" rx="52.79" ry="18"/>
<text text-anchor="middle" x="625" y="-405.3" font-family="Times,serif" font-size="14.00">M136 (a)</text>
</g>
<!-- 11&#45;&gt;16 -->
<g id="edge13" class="edge">
<title>11&#45;&gt;16</title>
<path fill="none" stroke="black" stroke-width="2" d="M770.74,-477.9C741.23,-464.15 696.18,-443.17 663.99,-428.17"/>
<polygon fill="black" stroke="black" stroke-width="2" points="665.4,-424.96 654.86,-423.91 662.45,-431.31 665.4,-424.96"/>
</g>
<!-- 17 -->
<g id="node16" class="node">
<title>17</title>
<ellipse fill="none" stroke="black" cx="746" cy="-409" rx="50.09" ry="18"/>
<text text-anchor="middle" x="746" y="-405.3" font-family="Times,serif" font-size="14.00">Neap (a)</text>
</g>
<!-- 11&#45;&gt;17 -->
<g id="edge14" class="edge">
<title>11&#45;&gt;17</title>
<path fill="none" stroke="black" stroke-width="2" d="M789.6,-475.01C781.88,-463.5 771.55,-448.09 762.88,-435.16"/>
<polygon fill="black" stroke="black" stroke-width="2" points="765.67,-433.04 757.19,-426.69 759.86,-436.94 765.67,-433.04"/>
</g>
<!-- 19 -->
<g id="node18" class="node">
<title>19</title>
<ellipse fill="none" stroke="black" cx="857" cy="-409" rx="42.79" ry="18"/>
<text text-anchor="middle" x="857" y="-405.3" font-family="Times,serif" font-size="14.00">La2 (a)</text>
</g>
<!-- 11&#45;&gt;19 -->
<g id="edge16" class="edge">
<title>11&#45;&gt;19</title>
<path fill="none" stroke="black" stroke-width="2" d="M812.6,-475.01C820.52,-463.42 831.13,-447.89 839.99,-434.91"/>
<polygon fill="black" stroke="black" stroke-width="2" points="843.04,-436.64 845.79,-426.41 837.26,-432.69 843.04,-436.64"/>
</g>
<!-- 20 -->
<g id="node19" class="node">
<title>20</title>
<ellipse fill="none" stroke="black" cx="983" cy="-409" rx="64.99" ry="18"/>
<text text-anchor="middle" x="983" y="-405.3" font-family="Times,serif" font-size="14.00">Savile&#45;Η (a)</text>
</g>
<!-- 11&#45;&gt;20 -->
<g id="edge17" class="edge">
<title>11&#45;&gt;20</title>
<path fill="none" stroke="black" stroke-width="2" d="M831.87,-478.09C861.87,-464.57 907.65,-443.95 940.96,-428.94"/>
<polygon fill="black" stroke="black" stroke-width="2" points="942.76,-431.97 950.44,-424.67 939.88,-425.59 942.76,-431.97"/>
</g>
<!-- 22 -->
<g id="node20" class="node">
<title>22</title>
<ellipse fill="none" stroke="black" cx="1110" cy="-409" rx="44.39" ry="18"/>
<text text-anchor="middle" x="1110" y="-405.3" font-family="Times,serif" font-size="14.00">A25 (a)</text>
</g>
<!-- 11&#45;&gt;22 -->
<g id="edge18" class="edge">
<title>11&#45;&gt;22</title>
<path fill="none" stroke="black" stroke-dasharray="5,2" d="M843.8,-481.99C894.81,-469.86 982.51,-448.38 1057,-427 1060.3,-426.05 1063.71,-425.04 1067.14,-424"/>
<polygon fill="black" stroke="black" points="1068.22,-427.32 1076.73,-421.02 1066.15,-420.64 1068.22,-427.32"/>
</g>
<!-- 26 -->
<g id="node23" class="node">
<title>26</title>
<ellipse fill="none" stroke="black" cx="1273" cy="-409" rx="48.99" ry="18"/>
<text text-anchor="middle" x="1273" y="-405.3" font-family="Times,serif" font-size="14.00">La22 (a)</text>
</g>
<!-- 11&#45;&gt;26 -->
<g id="edge21" class="edge">
<title>11&#45;&gt;26</title>
<path fill="none" stroke="black" stroke-dasharray="5,2" d="M847.98,-483.84C936.42,-468.47 1127.07,-435.35 1219.96,-419.21"/>
<polygon fill="black" stroke="black" points="1220.73,-422.63 1229.98,-417.47 1219.53,-415.74 1220.73,-422.63"/>
</g>
<!-- 36 -->
<g id="node30" class="node">
<title>36</title>
<ellipse fill="none" stroke="black" cx="1402" cy="-409" rx="44.69" ry="18"/>
<text text-anchor="middle" x="1402" y="-405.3" font-family="Times,serif" font-size="14.00">Nan (a)</text>
</g>
<!-- 11&#45;&gt;36 -->
<g id="edge28" class="edge">
<title>11&#45;&gt;36</title>
<path fill="none" stroke="black" d="M852.83,-487.6C948.03,-479.1 1156.98,-458.4 1331,-427 1338.98,-425.56 1347.41,-423.78 1355.56,-421.91"/>
<polygon fill="black" stroke="black" points="1356.38,-425.32 1365.32,-419.62 1354.78,-418.5 1356.38,-425.32"/>
</g>
<!-- 35 -->
<g id="node29" class="node">
<title>35</title>
<ellipse fill="none" stroke="black" cx="421" cy="-34" rx="40.89" ry="18"/>
<text text-anchor="middle" x="421" y="-30.3" font-family="Times,serif" font-size="14.00">Sin (a)</text>
</g>
<!-- 13&#45;&gt;35 -->
<g id="edge27" class="edge">
<title>13&#45;&gt;35</title>
<path fill="none" stroke="black" stroke-dasharray="1,5" d="M421,-88.81C421,-80.79 421,-71.05 421,-62.07"/>
<polygon fill="black" stroke="black" points="424.5,-62.03 421,-52.03 417.5,-62.03 424.5,-62.03"/>
</g>
<!-- 15 -->
<g id="node14" class="node">
<title>15</title>
<ellipse fill="none" stroke="black" cx="1149" cy="-336" rx="55.79" ry="18"/>
<text text-anchor="middle" x="1149" y="-332.3" font-family="Times,serif" font-size="14.00">V2036 (a)</text>
</g>
<!-- 23 -->
<g id="node21" class="node">
<title>23</title>
<ellipse fill="none" stroke="black" cx="467" cy="-336" rx="55.79" ry="18"/>
<text text-anchor="middle" x="467" y="-332.3" font-family="Times,serif" font-size="14.00">V1629 (a)</text>
</g>
<!-- 17&#45;&gt;23 -->
<g id="edge19" class="edge">
<title>17&#45;&gt;23</title>
<path fill="none" stroke="black" stroke-dasharray="1,5" d="M708.62,-396.95C701.46,-394.91 694.01,-392.85 687,-391 618.51,-372.97 600.71,-371.18 532,-354 527.68,-352.92 523.21,-351.78 518.72,-350.63"/>
<polygon fill="black" stroke="black" points="519.48,-347.22 508.92,-348.11 517.73,-353.99 519.48,-347.22"/>
</g>
<!-- 18 -->
<g id="node17" class="node">
<title>18</title>
<ellipse fill="none" stroke="black" cx="1273" cy="-336" rx="50.09" ry="18"/>
<text text-anchor="middle" x="1273" y="-332.3" font-family="Times,serif" font-size="14.00">V565 (a)</text>
</g>
<!-- 28 -->
<g id="node25" class="node">
<title>28</title>
<ellipse fill="none" stroke="black" cx="585" cy="-336" rx="44.39" ry="18"/>
<text text-anchor="middle" x="585" y="-332.3" font-family="Times,serif" font-size="14.00">S32 (a)</text>
</g>
<!-- 22&#45;&gt;28 -->
<g id="edge23" class="edge">
<title>22&#45;&gt;28</title>
<path fill="none" stroke="black" stroke-dasharray="5,2" d="M1078.07,-396.5C1071.2,-394.38 1063.91,-392.4 1057,-391 965.38,-372.5 729.62,-372.5 638,-354 634.33,-353.26 630.55,-352.35 626.79,-351.35"/>
<polygon fill="black" stroke="black" points="627.51,-347.91 616.93,-348.5 625.57,-354.64 627.51,-347.91"/>
</g>
<!-- 32 -->
<g id="node28" class="node">
<title>32</title>
<ellipse fill="none" stroke="black" cx="687" cy="-336" rx="40.09" ry="18"/>
<text text-anchor="middle" x="687" y="-332.3" font-family="Times,serif" font-size="14.00">Pal (a)</text>
</g>
<!-- 22&#45;&gt;32 -->
<g id="edge26" class="edge">
<title>22&#45;&gt;32</title>
<path fill="none" stroke="black" stroke-dasharray="5,2" d="M1077.76,-396.55C1070.97,-394.45 1063.8,-392.47 1057,-391 916.62,-360.7 876.01,-385.95 736,-354 732.8,-353.27 729.51,-352.4 726.23,-351.45"/>
<polygon fill="black" stroke="black" points="727.08,-348.05 716.49,-348.4 724.99,-354.73 727.08,-348.05"/>
</g>
<!-- 37 -->
<g id="node31" class="node">
<title>37</title>
<ellipse fill="none" stroke="black" cx="795" cy="-336" rx="50.09" ry="18"/>
<text text-anchor="middle" x="795" y="-332.3" font-family="Times,serif" font-size="14.00">V566 (a)</text>
</g>
<!-- 22&#45;&gt;37 -->
<g id="edge29" class="edge">
<title>22&#45;&gt;37</title>
<path fill="none" stroke="black" stroke-dasharray="5,2" d="M1077.4,-396.81C1070.7,-394.72 1063.66,-392.67 1057,-391 968.04,-368.73 943.28,-374.94 854,-354 849.97,-353.06 845.81,-352.01 841.65,-350.91"/>
<polygon fill="black" stroke="black" points="842.56,-347.53 831.99,-348.27 840.72,-354.28 842.56,-347.53"/>
</g>
<!-- 23&#45;&gt;6 -->
<g id="edge5" class="edge">
<title>23&#45;&gt;6</title>
<path fill="none" stroke="black" stroke-dasharray="5,2" d="M467,-317.82C467,-307.19 467,-293.31 467,-281.2"/>
<polygon fill="black" stroke="black" points="470.5,-281.15 467,-271.15 463.5,-281.15 470.5,-281.15"/>
<text text-anchor="middle" x="470.5" y="-292" font-family="Times,serif" font-size="10.00">2</text>
</g>
<!-- 25 -->
<g id="node22" class="node">
<title>25</title>
<ellipse fill="none" stroke="black" cx="1391" cy="-336" rx="50.09" ry="18"/>
<text text-anchor="middle" x="1391" y="-332.3" font-family="Times,serif" font-size="14.00">V571 (a)</text>
</g>
<!-- 26&#45;&gt;0 -->
<g id="edge1" class="edge">
<title>26&#45;&gt;0</title>
<path fill="none" stroke="black" stroke-dasharray="1,5" d="M1228.78,-401.13C1170.87,-391.86 1066.33,-374.15 978,-354 973.66,-353.01 969.17,-351.92 964.67,-350.77"/>
<polygon fill="black" stroke="black" points="965.46,-347.36 954.9,-348.22 963.69,-354.13 965.46,-347.36"/>
</g>
<!-- 26&#45;&gt;4 -->
<g id="edge3" class="edge">
<title>26&#45;&gt;4</title>
<path fill="none" stroke="black" stroke-dasharray="1,5" d="M1235.24,-397.6C1197.02,-386.97 1136.25,-369.84 1084,-354 1080.71,-353 1077.31,-351.95 1073.9,-350.89"/>
<polygon fill="black" stroke="black" points="1074.9,-347.53 1064.31,-347.86 1072.79,-354.21 1074.9,-347.53"/>
</g>
<!-- 26&#45;&gt;15 -->
<g id="edge12" class="edge">
<title>26&#45;&gt;15</title>
<path fill="none" stroke="black" stroke-dasharray="5,2" d="M1247.61,-393.46C1229.3,-382.98 1204.35,-368.69 1184.13,-357.11"/>
<polygon fill="black" stroke="black" points="1185.63,-353.94 1175.21,-352.01 1182.15,-360.02 1185.63,-353.94"/>
</g>
<!-- 26&#45;&gt;18 -->
<g id="edge15" class="edge">
<title>26&#45;&gt;18</title>
<path fill="none" stroke="black" stroke-dasharray="5,2" d="M1273,-390.81C1273,-382.79 1273,-373.05 1273,-364.07"/>
<polygon fill="black" stroke="black" points="1276.5,-364.03 1273,-354.03 1269.5,-364.03 1276.5,-364.03"/>
</g>
<!-- 26&#45;&gt;25 -->
<g id="edge20" class="edge">
<title>26&#45;&gt;25</title>
<path fill="none" stroke="black" stroke-dasharray="1,5" d="M1297.45,-393.29C1314.82,-382.84 1338.35,-368.68 1357.47,-357.18"/>
<polygon fill="black" stroke="black" points="1359.41,-360.09 1366.18,-351.94 1355.8,-354.09 1359.41,-360.09"/>
</g>
<!-- 27 -->
<g id="node24" class="node">
<title>27</title>
<ellipse fill="none" stroke="black" cx="1508" cy="-336" rx="48.99" ry="18"/>
<text text-anchor="middle" x="1508" y="-332.3" font-family="Times,serif" font-size="14.00">La35 (a)</text>
</g>
<!-- 26&#45;&gt;27 -->
<g id="edge22" class="edge">
<title>26&#45;&gt;27</title>
<path fill="none" stroke="black" stroke-dasharray="1,5" d="M1309.46,-396.98C1350.45,-384.6 1417.1,-364.46 1461.73,-350.98"/>
<polygon fill="black" stroke="black" points="1462.89,-354.28 1471.45,-348.04 1460.87,-347.58 1462.89,-354.28"/>
</g>
<!-- 38 -->
<g id="node32" class="node">
<title>38</title>
<ellipse fill="none" stroke="black" cx="1625" cy="-336" rx="50.09" ry="18"/>
<text text-anchor="middle" x="1625" y="-332.3" font-family="Times,serif" font-size="14.00">A116 (a)</text>
</g>
<!-- 26&#45;&gt;38 -->
<g id="edge30" class="edge">
<title>26&#45;&gt;38</title>
<path fill="none" stroke="black" stroke-dasharray="5,2" d="M1313.46,-398.75C1324.65,-396.21 1336.79,-393.48 1348,-391 1387.07,-382.36 1396.6,-378.97 1436,-372 1493.44,-361.84 1508.94,-366.11 1566,-354 1570.11,-353.13 1574.34,-352.12 1578.58,-351.05"/>
<polygon fill="black" stroke="black" points="1579.62,-354.39 1588.38,-348.43 1577.82,-347.63 1579.62,-354.39"/>
</g>
<!-- 41 -->
<g id="node33" class="node">
<title>41</title>
<ellipse fill="none" stroke="black" cx="1740" cy="-336" rx="46.59" ry="18"/>
<text text-anchor="middle" x="1740" y="-332.3" font-family="Times,serif" font-size="14.00">Bodl (a)</text>
</g>
<!-- 26&#45;&gt;41 -->
<g id="edge31" class="edge">
<title>26&#45;&gt;41</title>
<path fill="none" stroke="black" stroke-dasharray="5,2" d="M1312.15,-398.25C1323.65,-395.62 1336.28,-392.97 1348,-391 1496.16,-366.13 1536.82,-384.17 1684,-354 1687.92,-353.2 1691.96,-352.24 1695.99,-351.19"/>
<polygon fill="black" stroke="black" points="1697.2,-354.49 1705.9,-348.45 1695.33,-347.74 1697.2,-354.49"/>
</g>
<!-- 30 -->
<g id="node26" class="node">
<title>30</title>
<ellipse fill="none" stroke="black" cx="1861" cy="-336" rx="55.79" ry="18"/>
<text text-anchor="middle" x="1861" y="-332.3" font-family="Times,serif" font-size="14.00">V2250 (a)</text>
</g>
<!-- 31 -->
<g id="node27" class="node">
<title>31</title>
<ellipse fill="none" stroke="black" cx="793" cy="-253" rx="55.79" ry="18"/>
<text text-anchor="middle" x="793" y="-249.3" font-family="Times,serif" font-size="14.00">V1639 (a)</text>
</g>
<!-- 36&#45;&gt;30 -->
<g id="edge24" class="edge">
<title>36&#45;&gt;30</title>
<path fill="none" stroke="black" stroke-dasharray="5,2" d="M1445.13,-403.8C1517.91,-396.32 1669.53,-379.11 1796,-354 1800.69,-353.07 1805.54,-352 1810.38,-350.86"/>
<polygon fill="black" stroke="black" points="1811.37,-354.22 1820.26,-348.45 1809.71,-347.42 1811.37,-354.22"/>
</g>
<!-- 37&#45;&gt;31 -->
<g id="edge25" class="edge">
<title>37&#45;&gt;31</title>
<path fill="none" stroke="black" stroke-dasharray="1,5" d="M794.58,-317.82C794.31,-307.19 793.97,-293.31 793.67,-281.2"/>
<polygon fill="black" stroke="black" points="797.17,-281.06 793.42,-271.15 790.17,-281.24 797.17,-281.06"/>
</g>
</g>
</svg>
