<?xml version="1.0" encoding="UTF-8" standalone="no"?>
<!DOCTYPE svg PUBLIC "-//W3C//DTD SVG 1.1//EN"
 "http://www.w3.org/Graphics/SVG/1.1/DTD/svg11.dtd">
<!-- Generated by graphviz version 2.43.0 (0)
 -->
<!-- Title: textual_flow_diagram Pages: 1 -->
<svg width="552pt" height="150pt"
 viewBox="0.00 0.00 552.00 150.00" xmlns="http://www.w3.org/2000/svg" xmlns:xlink="http://www.w3.org/1999/xlink">
<g id="graph0" class="graph" transform="scale(1 1) rotate(0) translate(4 146)">
<title>textual_flow_diagram</title>
<polygon fill="white" stroke="transparent" points="-4,4 -4,-146 548,-146 548,4 -4,4"/>
<g id="clust1" class="cluster">
<title>cluster_legend</title>
<polygon fill="none" stroke="black" points="8,-80 8,-134 182,-134 182,-80 8,-80"/>
</g>
<g id="clust2" class="cluster">
<title>cluster_plot</title>
</g>
<!-- label -->
<g id="node1" class="node">
<title>label</title>
<text text-anchor="middle" x="95" y="-110.8" font-family="Times,serif" font-size="14.00">adstag1.2.40U22, b</text>
<text text-anchor="middle" x="95" y="-95.8" font-family="Times,serif" font-size="14.00">Con = 3</text>
</g>
<!-- 24 -->
<g id="node2" class="node">
<title>24</title>
<ellipse fill="none" stroke="black" cx="248" cy="-34" rx="50.09" ry="18"/>
<text text-anchor="middle" x="248" y="-30.3" font-family="Times,serif" font-size="14.00">V569 (b)</text>
</g>
<!-- 27 -->
<g id="node3" class="node">
<title>27</title>
<ellipse fill="none" stroke="black" cx="369" cy="-34" rx="53.09" ry="18"/>
<text text-anchor="middle" x="369" y="-30.3" font-family="Times,serif" font-size="14.00">M118 (b)</text>
</g>
<!-- 36 -->
<g id="node4" class="node">
<title>36</title>
<ellipse fill="none" stroke="black" cx="484" cy="-34" rx="43.59" ry="18"/>
<text text-anchor="middle" x="484" y="-30.3" font-family="Times,serif" font-size="14.00">La2 (b)</text>
</g>
<!-- 28 -->
<g id="node5" class="node">
<title>28</title>
<ellipse fill="none" stroke="blue" stroke-dasharray="5,2" cx="474" cy="-107" rx="53.89" ry="18"/>
<text text-anchor="middle" x="474" y="-103.3" font-family="Times,serif" font-size="14.00">aBase (a)</text>
</g>
<!-- 28&#45;&gt;36 -->
<g id="edge3" class="edge">
<title>28&#45;&gt;36</title>
<path fill="none" stroke="blue" stroke-width="2" d="M476.42,-88.81C477.55,-80.79 478.92,-71.05 480.19,-62.07"/>
<polygon fill="blue" stroke="blue" stroke-width="2" points="483.67,-62.42 481.6,-52.03 476.74,-61.44 483.67,-62.42"/>
</g>
<!-- 38 -->
<g id="node6" class="node">
<title>38</title>
<ellipse fill="none" stroke="blue" stroke-dasharray="5,2" cx="301" cy="-107" rx="46.59" ry="18"/>
<text text-anchor="middle" x="301" y="-103.3" font-family="Times,serif" font-size="14.00">Taur (a)</text>
</g>
<!-- 38&#45;&gt;24 -->
<g id="edge1" class="edge">
<title>38&#45;&gt;24</title>
<path fill="none" stroke="blue" stroke-dasharray="5,2" d="M288.71,-89.53C282.18,-80.79 274.02,-69.86 266.72,-60.08"/>
<polygon fill="blue" stroke="blue" points="269.38,-57.79 260.59,-51.87 263.77,-61.98 269.38,-57.79"/>
</g>
<!-- 38&#45;&gt;27 -->
<g id="edge2" class="edge">
<title>38&#45;&gt;27</title>
<path fill="none" stroke="blue" stroke-dasharray="5,2" d="M316.43,-89.89C325.17,-80.76 336.28,-69.16 346.03,-58.98"/>
<polygon fill="blue" stroke="blue" points="348.77,-61.18 353.16,-51.54 343.71,-56.34 348.77,-61.18"/>
</g>
</g>
</svg>
