<?xml version="1.0" encoding="UTF-8" standalone="no"?>
<!DOCTYPE svg PUBLIC "-//W3C//DTD SVG 1.1//EN"
 "http://www.w3.org/Graphics/SVG/1.1/DTD/svg11.dtd">
<!-- Generated by graphviz version 2.43.0 (0)
 -->
<!-- Title: textual_flow_diagram Pages: 1 -->
<svg width="1831pt" height="654pt"
 viewBox="0.00 0.00 1831.00 654.00" xmlns="http://www.w3.org/2000/svg" xmlns:xlink="http://www.w3.org/1999/xlink">
<g id="graph0" class="graph" transform="scale(1 1) rotate(0) translate(4 650)">
<title>textual_flow_diagram</title>
<polygon fill="white" stroke="transparent" points="-4,4 -4,-650 1827,-650 1827,4 -4,4"/>
<g id="clust1" class="cluster">
<title>cluster_legend</title>
<polygon fill="none" stroke="black" points="8,-584 8,-638 204,-638 204,-584 8,-584"/>
</g>
<g id="clust2" class="cluster">
<title>cluster_plot</title>
</g>
<!-- label -->
<g id="node1" class="node">
<title>label</title>
<text text-anchor="middle" x="106" y="-614.8" font-family="Times,serif" font-size="14.00">adstag1.3.29U32&#45;40, a</text>
<text text-anchor="middle" x="106" y="-599.8" font-family="Times,serif" font-size="14.00">Con = 5</text>
</g>
<!-- 1 -->
<g id="node2" class="node">
<title>1</title>
<ellipse fill="none" stroke="black" cx="928" cy="-466" rx="44.39" ry="18"/>
<text text-anchor="middle" x="928" y="-462.3" font-family="Times,serif" font-size="14.00">P74 (a)</text>
</g>
<!-- 2 -->
<g id="node3" class="node">
<title>2</title>
<ellipse fill="none" stroke="black" cx="264" cy="-466" rx="44.39" ry="18"/>
<text text-anchor="middle" x="264" y="-462.3" font-family="Times,serif" font-size="14.00">S32 (a)</text>
</g>
<!-- 4 -->
<g id="node4" class="node">
<title>4</title>
<ellipse fill="none" stroke="black" cx="376" cy="-394" rx="55.79" ry="18"/>
<text text-anchor="middle" x="376" y="-390.3" font-family="Times,serif" font-size="14.00">V1639 (a)</text>
</g>
<!-- 7 -->
<g id="node5" class="node">
<title>7</title>
<ellipse fill="none" stroke="black" cx="1040" cy="-466" rx="50.09" ry="18"/>
<text text-anchor="middle" x="1040" y="-462.3" font-family="Times,serif" font-size="14.00">A116 (a)</text>
</g>
<!-- 10 -->
<g id="node6" class="node">
<title>10</title>
<ellipse fill="none" stroke="black" cx="1515" cy="-178" rx="50.09" ry="18"/>
<text text-anchor="middle" x="1515" y="-174.3" font-family="Times,serif" font-size="14.00">Marc (a)</text>
</g>
<!-- 26 -->
<g id="node20" class="node">
<title>26</title>
<ellipse fill="none" stroke="black" cx="1515" cy="-106" rx="46.29" ry="18"/>
<text text-anchor="middle" x="1515" y="-102.3" font-family="Times,serif" font-size="14.00">Mon (a)</text>
</g>
<!-- 10&#45;&gt;26 -->
<g id="edge19" class="edge">
<title>10&#45;&gt;26</title>
<path fill="none" stroke="black" stroke-dasharray="1,5" d="M1515,-159.7C1515,-151.98 1515,-142.71 1515,-134.11"/>
<polygon fill="black" stroke="black" points="1518.5,-134.1 1515,-124.1 1511.5,-134.1 1518.5,-134.1"/>
</g>
<!-- 11 -->
<g id="node7" class="node">
<title>11</title>
<ellipse fill="none" stroke="black" cx="376" cy="-466" rx="50.09" ry="18"/>
<text text-anchor="middle" x="376" y="-462.3" font-family="Times,serif" font-size="14.00">V566 (a)</text>
</g>
<!-- 11&#45;&gt;4 -->
<g id="edge3" class="edge">
<title>11&#45;&gt;4</title>
<path fill="none" stroke="black" stroke-dasharray="1,5" d="M376,-447.7C376,-439.98 376,-430.71 376,-422.11"/>
<polygon fill="black" stroke="black" points="379.5,-422.1 376,-412.1 372.5,-422.1 379.5,-422.1"/>
</g>
<!-- 12 -->
<g id="node8" class="node">
<title>12</title>
<ellipse fill="none" stroke="black" cx="1157" cy="-466" rx="48.99" ry="18"/>
<text text-anchor="middle" x="1157" y="-462.3" font-family="Times,serif" font-size="14.00">La35 (a)</text>
</g>
<!-- 13 -->
<g id="node9" class="node">
<title>13</title>
<ellipse fill="none" stroke="black" cx="488" cy="-538" rx="44.39" ry="18"/>
<text text-anchor="middle" x="488" y="-534.3" font-family="Times,serif" font-size="14.00">A25 (a)</text>
</g>
<!-- 13&#45;&gt;2 -->
<g id="edge2" class="edge">
<title>13&#45;&gt;2</title>
<path fill="none" stroke="black" stroke-dasharray="5,2" d="M453.9,-526.54C419.37,-515.92 364.43,-498.96 317,-484 313.87,-483.01 310.63,-481.99 307.37,-480.95"/>
<polygon fill="black" stroke="black" points="308.22,-477.55 297.63,-477.84 306.09,-484.22 308.22,-477.55"/>
</g>
<!-- 13&#45;&gt;11 -->
<g id="edge6" class="edge">
<title>13&#45;&gt;11</title>
<path fill="none" stroke="black" stroke-dasharray="5,2" d="M464.79,-522.5C448.49,-512.31 426.47,-498.55 408.44,-487.27"/>
<polygon fill="black" stroke="black" points="410.28,-484.3 399.95,-481.97 406.57,-490.24 410.28,-484.3"/>
</g>
<!-- 25 -->
<g id="node19" class="node">
<title>25</title>
<ellipse fill="none" stroke="black" cx="488" cy="-466" rx="44.39" ry="18"/>
<text text-anchor="middle" x="488" y="-462.3" font-family="Times,serif" font-size="14.00">P01 (a)</text>
</g>
<!-- 13&#45;&gt;25 -->
<g id="edge18" class="edge">
<title>13&#45;&gt;25</title>
<path fill="none" stroke="black" stroke-dasharray="5,2" d="M488,-519.7C488,-511.98 488,-502.71 488,-494.11"/>
<polygon fill="black" stroke="black" points="491.5,-494.1 488,-484.1 484.5,-494.1 491.5,-494.1"/>
</g>
<!-- 40 -->
<g id="node31" class="node">
<title>40</title>
<ellipse fill="none" stroke="black" cx="590" cy="-466" rx="40.09" ry="18"/>
<text text-anchor="middle" x="590" y="-462.3" font-family="Times,serif" font-size="14.00">Pal (a)</text>
</g>
<!-- 13&#45;&gt;40 -->
<g id="edge29" class="edge">
<title>13&#45;&gt;40</title>
<path fill="none" stroke="black" stroke-dasharray="5,2" d="M509.63,-522.15C524.34,-512.06 543.98,-498.58 560.17,-487.47"/>
<polygon fill="black" stroke="black" points="562.48,-490.13 568.75,-481.58 558.52,-484.36 562.48,-490.13"/>
</g>
<!-- 14 -->
<g id="node10" class="node">
<title>14</title>
<ellipse fill="none" stroke="black" cx="1395" cy="-394" rx="50.09" ry="18"/>
<text text-anchor="middle" x="1395" y="-390.3" font-family="Times,serif" font-size="14.00">A336 (a)</text>
</g>
<!-- 15 -->
<g id="node11" class="node">
<title>15</title>
<ellipse fill="none" stroke="black" cx="1636" cy="-178" rx="52.79" ry="18"/>
<text text-anchor="middle" x="1636" y="-174.3" font-family="Times,serif" font-size="14.00">M118 (a)</text>
</g>
<!-- 16 -->
<g id="node12" class="node">
<title>16</title>
<ellipse fill="none" stroke="black" cx="693" cy="-538" rx="52.79" ry="18"/>
<text text-anchor="middle" x="693" y="-534.3" font-family="Times,serif" font-size="14.00">LaSM (a)</text>
</g>
<!-- 23 -->
<g id="node17" class="node">
<title>23</title>
<ellipse fill="none" stroke="black" cx="692" cy="-466" rx="44.39" ry="18"/>
<text text-anchor="middle" x="692" y="-462.3" font-family="Times,serif" font-size="14.00">B39 (a)</text>
</g>
<!-- 16&#45;&gt;23 -->
<g id="edge16" class="edge">
<title>16&#45;&gt;23</title>
<path fill="none" stroke="black" stroke-dasharray="5,2" d="M692.75,-519.7C692.64,-511.98 692.51,-502.71 692.39,-494.11"/>
<polygon fill="black" stroke="black" points="695.89,-494.05 692.24,-484.1 688.89,-494.15 695.89,-494.05"/>
</g>
<!-- 17 -->
<g id="node13" class="node">
<title>17</title>
<ellipse fill="none" stroke="black" cx="810" cy="-538" rx="44.69" ry="18"/>
<text text-anchor="middle" x="810" y="-534.3" font-family="Times,serif" font-size="14.00">Nan (a)</text>
</g>
<!-- 30 -->
<g id="node24" class="node">
<title>30</title>
<ellipse fill="none" stroke="black" cx="810" cy="-466" rx="55.79" ry="18"/>
<text text-anchor="middle" x="810" y="-462.3" font-family="Times,serif" font-size="14.00">V1897 (a)</text>
</g>
<!-- 17&#45;&gt;30 -->
<g id="edge23" class="edge">
<title>17&#45;&gt;30</title>
<path fill="none" stroke="black" stroke-dasharray="1,5" d="M810,-519.7C810,-511.98 810,-502.71 810,-494.11"/>
<polygon fill="black" stroke="black" points="813.5,-494.1 810,-484.1 806.5,-494.1 813.5,-494.1"/>
</g>
<!-- 18 -->
<g id="node14" class="node">
<title>18</title>
<ellipse fill="none" stroke="black" cx="923" cy="-538" rx="50.09" ry="18"/>
<text text-anchor="middle" x="923" y="-534.3" font-family="Times,serif" font-size="14.00">S249 (a)</text>
</g>
<!-- 21 -->
<g id="node15" class="node">
<title>21</title>
<ellipse fill="none" stroke="black" cx="1650" cy="-250" rx="46.59" ry="18"/>
<text text-anchor="middle" x="1650" y="-246.3" font-family="Times,serif" font-size="14.00">Taur (a)</text>
</g>
<!-- 21&#45;&gt;10 -->
<g id="edge5" class="edge">
<title>21&#45;&gt;10</title>
<path fill="none" stroke="black" stroke-dasharray="1,5" d="M1623.33,-235.17C1602.8,-224.52 1574.19,-209.69 1551.53,-197.94"/>
<polygon fill="black" stroke="black" points="1553.03,-194.78 1542.54,-193.28 1549.81,-200.99 1553.03,-194.78"/>
</g>
<!-- 21&#45;&gt;15 -->
<g id="edge10" class="edge">
<title>21&#45;&gt;15</title>
<path fill="none" stroke="black" stroke-dasharray="5,2" d="M1646.54,-231.7C1645,-223.98 1643.14,-214.71 1641.42,-206.11"/>
<polygon fill="black" stroke="black" points="1644.81,-205.22 1639.42,-196.1 1637.95,-206.6 1644.81,-205.22"/>
</g>
<!-- 22 -->
<g id="node16" class="node">
<title>22</title>
<ellipse fill="none" stroke="black" cx="1757" cy="-178" rx="50.09" ry="18"/>
<text text-anchor="middle" x="1757" y="-174.3" font-family="Times,serif" font-size="14.00">V569 (a)</text>
</g>
<!-- 21&#45;&gt;22 -->
<g id="edge15" class="edge">
<title>21&#45;&gt;22</title>
<path fill="none" stroke="black" stroke-dasharray="5,2" d="M1672.69,-234.15C1688.05,-224.11 1708.55,-210.7 1725.48,-199.62"/>
<polygon fill="black" stroke="black" points="1727.52,-202.47 1733.97,-194.07 1723.69,-196.61 1727.52,-202.47"/>
</g>
<!-- 24 -->
<g id="node18" class="node">
<title>24</title>
<ellipse fill="none" stroke="black" cx="1679" cy="-322" rx="50.09" ry="18"/>
<text text-anchor="middle" x="1679" y="-318.3" font-family="Times,serif" font-size="14.00">V568 (a)</text>
</g>
<!-- 24&#45;&gt;21 -->
<g id="edge14" class="edge">
<title>24&#45;&gt;21</title>
<path fill="none" stroke="black" stroke-dasharray="1,5" d="M1671.98,-304.05C1668.72,-296.18 1664.76,-286.62 1661.1,-277.79"/>
<polygon fill="black" stroke="black" points="1664.22,-276.17 1657.16,-268.28 1657.75,-278.85 1664.22,-276.17"/>
</g>
<!-- 29 -->
<g id="node23" class="node">
<title>29</title>
<ellipse fill="none" stroke="black" cx="1515" cy="-34" rx="40.89" ry="18"/>
<text text-anchor="middle" x="1515" y="-30.3" font-family="Times,serif" font-size="14.00">Sin (a)</text>
</g>
<!-- 26&#45;&gt;29 -->
<g id="edge22" class="edge">
<title>26&#45;&gt;29</title>
<path fill="none" stroke="black" stroke-dasharray="1,5" d="M1515,-87.7C1515,-79.98 1515,-70.71 1515,-62.11"/>
<polygon fill="black" stroke="black" points="1518.5,-62.1 1515,-52.1 1511.5,-62.1 1518.5,-62.1"/>
</g>
<!-- 27 -->
<g id="node21" class="node">
<title>27</title>
<ellipse fill="none" stroke="black" cx="1274" cy="-466" rx="50.09" ry="18"/>
<text text-anchor="middle" x="1274" y="-462.3" font-family="Times,serif" font-size="14.00">V565 (a)</text>
</g>
<!-- 28 -->
<g id="node22" class="node">
<title>28</title>
<ellipse fill="none" stroke="black" cx="1395" cy="-466" rx="52.79" ry="18"/>
<text text-anchor="middle" x="1395" y="-462.3" font-family="Times,serif" font-size="14.00">M111 (a)</text>
</g>
<!-- 28&#45;&gt;14 -->
<g id="edge9" class="edge">
<title>28&#45;&gt;14</title>
<path fill="none" stroke="black" stroke-dasharray="5,2" d="M1395,-447.7C1395,-439.98 1395,-430.71 1395,-422.11"/>
<polygon fill="black" stroke="black" points="1398.5,-422.1 1395,-412.1 1391.5,-422.1 1398.5,-422.1"/>
</g>
<!-- 31 -->
<g id="node25" class="node">
<title>31</title>
<ellipse fill="none" stroke="black" cx="1215" cy="-538" rx="48.99" ry="18"/>
<text text-anchor="middle" x="1215" y="-534.3" font-family="Times,serif" font-size="14.00">La22 (a)</text>
</g>
<!-- 31&#45;&gt;1 -->
<g id="edge1" class="edge">
<title>31&#45;&gt;1</title>
<path fill="none" stroke="black" stroke-dasharray="1,5" d="M1172.88,-528.62C1125.82,-518.99 1047.5,-502.16 981,-484 977.64,-483.08 974.17,-482.08 970.69,-481.05"/>
<polygon fill="black" stroke="black" points="971.53,-477.65 960.95,-478.06 969.48,-484.34 971.53,-477.65"/>
</g>
<!-- 31&#45;&gt;7 -->
<g id="edge4" class="edge">
<title>31&#45;&gt;7</title>
<path fill="none" stroke="black" stroke-dasharray="5,2" d="M1182.9,-524.16C1154.5,-512.8 1112.87,-496.15 1081.85,-483.74"/>
<polygon fill="black" stroke="black" points="1082.77,-480.34 1072.19,-479.88 1080.17,-486.84 1082.77,-480.34"/>
</g>
<!-- 31&#45;&gt;12 -->
<g id="edge7" class="edge">
<title>31&#45;&gt;12</title>
<path fill="none" stroke="black" stroke-dasharray="1,5" d="M1201.25,-520.41C1194.03,-511.69 1185.04,-500.85 1177.06,-491.21"/>
<polygon fill="black" stroke="black" points="1179.72,-488.94 1170.65,-483.47 1174.33,-493.4 1179.72,-488.94"/>
</g>
<!-- 31&#45;&gt;27 -->
<g id="edge20" class="edge">
<title>31&#45;&gt;27</title>
<path fill="none" stroke="black" stroke-dasharray="5,2" d="M1228.98,-520.41C1236.33,-511.69 1245.47,-500.85 1253.6,-491.21"/>
<polygon fill="black" stroke="black" points="1256.35,-493.37 1260.12,-483.47 1251,-488.86 1256.35,-493.37"/>
</g>
<!-- 31&#45;&gt;28 -->
<g id="edge21" class="edge">
<title>31&#45;&gt;28</title>
<path fill="none" stroke="black" stroke-dasharray="1,5" d="M1247.6,-524.32C1276.79,-512.97 1319.82,-496.24 1351.86,-483.78"/>
<polygon fill="black" stroke="black" points="1353.37,-486.94 1361.43,-480.06 1350.84,-480.42 1353.37,-486.94"/>
</g>
<!-- 33 -->
<g id="node27" class="node">
<title>33</title>
<ellipse fill="none" stroke="black" cx="1512" cy="-466" rx="46.59" ry="18"/>
<text text-anchor="middle" x="1512" y="-462.3" font-family="Times,serif" font-size="14.00">Bodl (a)</text>
</g>
<!-- 31&#45;&gt;33 -->
<g id="edge26" class="edge">
<title>31&#45;&gt;33</title>
<path fill="none" stroke="black" stroke-dasharray="5,2" d="M1257.23,-528.87C1305.72,-519.28 1387.55,-502.3 1457,-484 1460.39,-483.11 1463.88,-482.14 1467.38,-481.14"/>
<polygon fill="black" stroke="black" points="1468.61,-484.42 1477.21,-478.24 1466.63,-477.71 1468.61,-484.42"/>
</g>
<!-- 36 -->
<g id="node28" class="node">
<title>36</title>
<ellipse fill="none" stroke="black" cx="1627" cy="-466" rx="50.09" ry="18"/>
<text text-anchor="middle" x="1627" y="-462.3" font-family="Times,serif" font-size="14.00">V571 (a)</text>
</g>
<!-- 31&#45;&gt;36 -->
<g id="edge27" class="edge">
<title>31&#45;&gt;36</title>
<path fill="none" stroke="black" stroke-dasharray="1,5" d="M1261.05,-532.05C1328.77,-524.32 1459.01,-507.77 1568,-484 1572.1,-483.11 1576.34,-482.08 1580.57,-481"/>
<polygon fill="black" stroke="black" points="1581.62,-484.34 1590.37,-478.36 1579.8,-477.58 1581.62,-484.34"/>
</g>
<!-- 32 -->
<g id="node26" class="node">
<title>32</title>
<ellipse fill="none" stroke="black" cx="1570" cy="-538" rx="50.09" ry="18"/>
<text text-anchor="middle" x="1570" y="-534.3" font-family="Times,serif" font-size="14.00">Neap (a)</text>
</g>
<!-- 38 -->
<g id="node30" class="node">
<title>38</title>
<ellipse fill="none" stroke="black" cx="1751" cy="-466" rx="55.79" ry="18"/>
<text text-anchor="middle" x="1751" y="-462.3" font-family="Times,serif" font-size="14.00">V1629 (a)</text>
</g>
<!-- 32&#45;&gt;38 -->
<g id="edge28" class="edge">
<title>32&#45;&gt;38</title>
<path fill="none" stroke="black" stroke-dasharray="1,5" d="M1602.78,-524.32C1631.95,-513.04 1674.86,-496.45 1707.01,-484.01"/>
<polygon fill="black" stroke="black" points="1708.55,-487.17 1716.62,-480.3 1706.03,-480.64 1708.55,-487.17"/>
</g>
<!-- 37 -->
<g id="node29" class="node">
<title>37</title>
<ellipse fill="none" stroke="black" cx="866" cy="-611" rx="53.89" ry="18"/>
<text text-anchor="middle" x="866" y="-607.3" font-family="Times,serif" font-size="14.00">aBase (a)</text>
</g>
<!-- 37&#45;&gt;13 -->
<g id="edge8" class="edge">
<title>37&#45;&gt;13</title>
<path fill="none" stroke="black" stroke-dasharray="5,2" d="M820.03,-601.36C748.43,-587.92 610.89,-562.08 537.31,-548.26"/>
<polygon fill="black" stroke="black" points="537.84,-544.8 527.36,-546.39 536.54,-551.68 537.84,-544.8"/>
</g>
<!-- 37&#45;&gt;16 -->
<g id="edge11" class="edge">
<title>37&#45;&gt;16</title>
<path fill="none" stroke="black" d="M833.05,-596.48C805.1,-585.01 764.84,-568.48 734.66,-556.1"/>
<polygon fill="black" stroke="black" points="735.82,-552.79 725.24,-552.23 733.16,-559.27 735.82,-552.79"/>
</g>
<!-- 37&#45;&gt;17 -->
<g id="edge12" class="edge">
<title>37&#45;&gt;17</title>
<path fill="none" stroke="black" d="M852.73,-593.17C845.82,-584.42 837.25,-573.55 829.6,-563.85"/>
<polygon fill="black" stroke="black" points="832.12,-561.39 823.18,-555.71 826.62,-565.72 832.12,-561.39"/>
</g>
<!-- 37&#45;&gt;18 -->
<g id="edge13" class="edge">
<title>37&#45;&gt;18</title>
<path fill="none" stroke="black" d="M879.22,-593.53C886.41,-584.57 895.45,-573.31 903.45,-563.36"/>
<polygon fill="black" stroke="black" points="906.32,-565.37 909.85,-555.38 900.86,-560.98 906.32,-565.37"/>
</g>
<!-- 37&#45;&gt;31 -->
<g id="edge24" class="edge">
<title>37&#45;&gt;31</title>
<path fill="none" stroke="black" stroke-dasharray="5,2" d="M910.91,-600.86C975.61,-587.7 1094.78,-563.46 1163.14,-549.55"/>
<polygon fill="black" stroke="black" points="1164.15,-552.92 1173.25,-547.49 1162.76,-546.06 1164.15,-552.92"/>
</g>
<!-- 37&#45;&gt;32 -->
<g id="edge25" class="edge">
<title>37&#45;&gt;32</title>
<path fill="none" stroke="black" stroke-width="2" d="M916.91,-604.87C1044.51,-592 1377.33,-558.43 1512.09,-544.84"/>
<polygon fill="black" stroke="black" stroke-width="2" points="1512.61,-548.31 1522.21,-543.82 1511.91,-541.34 1512.61,-548.31"/>
</g>
<!-- 42 -->
<g id="node32" class="node">
<title>42</title>
<ellipse fill="none" stroke="black" cx="1736" cy="-394" rx="50.09" ry="18"/>
<text text-anchor="middle" x="1736" y="-390.3" font-family="Times,serif" font-size="14.00">V536 (a)</text>
</g>
<!-- 38&#45;&gt;42 -->
<g id="edge30" class="edge">
<title>38&#45;&gt;42</title>
<path fill="none" stroke="black" stroke-dasharray="5,2" d="M1747.29,-447.7C1745.64,-439.98 1743.65,-430.71 1741.81,-422.11"/>
<polygon fill="black" stroke="black" points="1745.18,-421.15 1739.67,-412.1 1738.34,-422.62 1745.18,-421.15"/>
</g>
<!-- 42&#45;&gt;24 -->
<g id="edge17" class="edge">
<title>42&#45;&gt;24</title>
<path fill="none" stroke="black" stroke-dasharray="1,5" d="M1722.49,-376.41C1715.46,-367.78 1706.74,-357.06 1698.95,-347.5"/>
<polygon fill="black" stroke="black" points="1701.44,-345.01 1692.41,-339.47 1696.01,-349.43 1701.44,-345.01"/>
</g>
</g>
</svg>
