<?xml version="1.0" encoding="UTF-8" standalone="no"?>
<!DOCTYPE svg PUBLIC "-//W3C//DTD SVG 1.1//EN"
 "http://www.w3.org/Graphics/SVG/1.1/DTD/svg11.dtd">
<!-- Generated by graphviz version 2.43.0 (0)
 -->
<!-- Title: textual_flow_diagram Pages: 1 -->
<svg width="334pt" height="222pt"
 viewBox="0.00 0.00 334.00 222.00" xmlns="http://www.w3.org/2000/svg" xmlns:xlink="http://www.w3.org/1999/xlink">
<g id="graph0" class="graph" transform="scale(1 1) rotate(0) translate(4 218)">
<title>textual_flow_diagram</title>
<polygon fill="white" stroke="transparent" points="-4,4 -4,-218 330,-218 330,4 -4,4"/>
<g id="clust1" class="cluster">
<title>cluster_legend</title>
<polygon fill="none" stroke="black" points="8,-152 8,-206 182,-206 182,-152 8,-152"/>
</g>
<g id="clust2" class="cluster">
<title>cluster_plot</title>
</g>
<!-- label -->
<g id="node1" class="node">
<title>label</title>
<text text-anchor="middle" x="95" y="-182.8" font-family="Times,serif" font-size="14.00">adstag1.4.17U18, b</text>
<text text-anchor="middle" x="95" y="-167.8" font-family="Times,serif" font-size="14.00">Con = 3</text>
</g>
<!-- 20 -->
<g id="node2" class="node">
<title>20</title>
<ellipse fill="none" stroke="black" cx="254" cy="-34" rx="55.79" ry="18"/>
<text text-anchor="middle" x="254" y="-30.3" font-family="Times,serif" font-size="14.00">V1639 (b)</text>
</g>
<!-- 22 -->
<g id="node3" class="node">
<title>22</title>
<ellipse fill="none" stroke="black" cx="254" cy="-106" rx="50.09" ry="18"/>
<text text-anchor="middle" x="254" y="-102.3" font-family="Times,serif" font-size="14.00">V566 (b)</text>
</g>
<!-- 22&#45;&gt;20 -->
<g id="edge1" class="edge">
<title>22&#45;&gt;20</title>
<path fill="none" stroke="black" stroke-dasharray="1,5" d="M254,-87.7C254,-79.98 254,-70.71 254,-62.11"/>
<polygon fill="black" stroke="black" points="257.5,-62.1 254,-52.1 250.5,-62.1 257.5,-62.1"/>
</g>
<!-- 14 -->
<g id="node4" class="node">
<title>14</title>
<ellipse fill="none" stroke="blue" stroke-dasharray="5,2" cx="254" cy="-179" rx="44.39" ry="18"/>
<text text-anchor="middle" x="254" y="-175.3" font-family="Times,serif" font-size="14.00">A25 (a)</text>
</g>
<!-- 14&#45;&gt;22 -->
<g id="edge2" class="edge">
<title>14&#45;&gt;22</title>
<path fill="none" stroke="blue" stroke-dasharray="5,2" d="M254,-160.81C254,-152.79 254,-143.05 254,-134.07"/>
<polygon fill="blue" stroke="blue" points="257.5,-134.03 254,-124.03 250.5,-134.03 257.5,-134.03"/>
</g>
</g>
</svg>
