<?xml version="1.0" encoding="UTF-8" standalone="no"?>
<!DOCTYPE svg PUBLIC "-//W3C//DTD SVG 1.1//EN"
 "http://www.w3.org/Graphics/SVG/1.1/DTD/svg11.dtd">
<!-- Generated by graphviz version 2.43.0 (0)
 -->
<!-- Title: textual_flow_diagram Pages: 1 -->
<svg width="652pt" height="161pt"
 viewBox="0.00 0.00 652.00 161.00" xmlns="http://www.w3.org/2000/svg" xmlns:xlink="http://www.w3.org/1999/xlink">
<g id="graph0" class="graph" transform="scale(1 1) rotate(0) translate(4 157)">
<title>textual_flow_diagram</title>
<polygon fill="white" stroke="transparent" points="-4,4 -4,-157 648,-157 648,4 -4,4"/>
<g id="clust1" class="cluster">
<title>cluster_legend</title>
<polygon fill="none" stroke="black" points="8,-91 8,-145 204,-145 204,-91 8,-91"/>
</g>
<g id="clust2" class="cluster">
<title>cluster_plot</title>
</g>
<!-- label -->
<g id="node1" class="node">
<title>label</title>
<text text-anchor="middle" x="106" y="-121.8" font-family="Times,serif" font-size="14.00">adstag1.2.40U48&#45;50, a</text>
<text text-anchor="middle" x="106" y="-106.8" font-family="Times,serif" font-size="14.00">Con = 3</text>
</g>
<!-- 11 -->
<g id="node2" class="node">
<title>11</title>
<ellipse fill="none" stroke="black" cx="484" cy="-118" rx="53.89" ry="18"/>
<text text-anchor="middle" x="484" y="-114.3" font-family="Times,serif" font-size="14.00">aBase (a)</text>
</g>
<!-- 21 -->
<g id="node3" class="node">
<title>21</title>
<ellipse fill="none" stroke="black" cx="382" cy="-34" rx="44.39" ry="18"/>
<text text-anchor="middle" x="382" y="-30.3" font-family="Times,serif" font-size="14.00">P01 (a)</text>
</g>
<!-- 11&#45;&gt;21 -->
<g id="edge1" class="edge">
<title>11&#45;&gt;21</title>
<path fill="none" stroke="black" d="M464.33,-101.19C448.71,-88.63 426.69,-70.92 409.35,-56.99"/>
<polygon fill="black" stroke="black" points="411.25,-54.02 401.26,-50.48 406.86,-59.48 411.25,-54.02"/>
<text text-anchor="middle" x="442.5" y="-73" font-family="Times,serif" font-size="10.00">3</text>
</g>
<!-- 32 -->
<g id="node4" class="node">
<title>32</title>
<ellipse fill="none" stroke="black" cx="484" cy="-34" rx="40.09" ry="18"/>
<text text-anchor="middle" x="484" y="-30.3" font-family="Times,serif" font-size="14.00">Pal (a)</text>
</g>
<!-- 11&#45;&gt;32 -->
<g id="edge2" class="edge">
<title>11&#45;&gt;32</title>
<path fill="none" stroke="black" d="M484,-99.61C484,-88.77 484,-74.6 484,-62.29"/>
<polygon fill="black" stroke="black" points="487.5,-62.08 484,-52.08 480.5,-62.08 487.5,-62.08"/>
<text text-anchor="middle" x="487.5" y="-73" font-family="Times,serif" font-size="10.00">2</text>
</g>
<!-- 42 -->
<g id="node6" class="node">
<title>42</title>
<ellipse fill="none" stroke="black" cx="585" cy="-34" rx="42.79" ry="18"/>
<text text-anchor="middle" x="585" y="-30.3" font-family="Times,serif" font-size="14.00">Bas (a)</text>
</g>
<!-- 11&#45;&gt;42 -->
<g id="edge4" class="edge">
<title>11&#45;&gt;42</title>
<path fill="none" stroke="black" stroke-width="2" d="M503.47,-101.19C519.04,-88.55 541.03,-70.7 558.25,-56.72"/>
<polygon fill="black" stroke="black" stroke-width="2" points="560.71,-59.23 566.27,-50.21 556.3,-53.79 560.71,-59.23"/>
<text text-anchor="middle" x="543.5" y="-73" font-family="Times,serif" font-size="10.00">3</text>
</g>
<!-- 40 -->
<g id="node5" class="node">
<title>40</title>
<ellipse fill="none" stroke="black" cx="270" cy="-34" rx="50.09" ry="18"/>
<text text-anchor="middle" x="270" y="-30.3" font-family="Times,serif" font-size="14.00">V536 (a)</text>
</g>
<!-- 23 -->
<g id="node7" class="node">
<title>23</title>
<ellipse fill="none" stroke="blue" stroke-dasharray="5,2" cx="273" cy="-118" rx="53.09" ry="18"/>
<text text-anchor="middle" x="273" y="-114.3" font-family="Times,serif" font-size="14.00">V1629 (i)</text>
</g>
<!-- 23&#45;&gt;40 -->
<g id="edge3" class="edge">
<title>23&#45;&gt;40</title>
<path fill="none" stroke="blue" stroke-dasharray="5,2" d="M272.36,-99.61C271.97,-88.77 271.45,-74.6 271,-62.29"/>
<polygon fill="blue" stroke="blue" points="274.49,-61.95 270.63,-52.08 267.49,-62.21 274.49,-61.95"/>
</g>
</g>
</svg>
