<?xml version="1.0" encoding="UTF-8" standalone="no"?>
<!DOCTYPE svg PUBLIC "-//W3C//DTD SVG 1.1//EN"
 "http://www.w3.org/Graphics/SVG/1.1/DTD/svg11.dtd">
<!-- Generated by graphviz version 2.43.0 (0)
 -->
<!-- Title: textual_flow_diagram Pages: 1 -->
<svg width="1880pt" height="848pt"
 viewBox="0.00 0.00 1880.00 848.00" xmlns="http://www.w3.org/2000/svg" xmlns:xlink="http://www.w3.org/1999/xlink">
<g id="graph0" class="graph" transform="scale(1 1) rotate(0) translate(4 844)">
<title>textual_flow_diagram</title>
<polygon fill="white" stroke="transparent" points="-4,4 -4,-844 1876,-844 1876,4 -4,4"/>
<g id="clust1" class="cluster">
<title>cluster_legend</title>
<polygon fill="none" stroke="black" points="8,-778 8,-832 182,-832 182,-778 8,-778"/>
</g>
<g id="clust2" class="cluster">
<title>cluster_plot</title>
</g>
<!-- label -->
<g id="node1" class="node">
<title>label</title>
<text text-anchor="middle" x="95" y="-808.8" font-family="Times,serif" font-size="14.00">adstag1.3.34U30, b</text>
<text text-anchor="middle" x="95" y="-793.8" font-family="Times,serif" font-size="14.00">Con = 5</text>
</g>
<!-- 0 -->
<g id="node2" class="node">
<title>0</title>
<ellipse fill="none" stroke="black" cx="884" cy="-565" rx="53.09" ry="18"/>
<text text-anchor="middle" x="884" y="-561.3" font-family="Times,serif" font-size="14.00">M136 (b)</text>
</g>
<!-- 32 -->
<g id="node31" class="node">
<title>32</title>
<ellipse fill="none" stroke="black" cx="884" cy="-482" rx="50.89" ry="18"/>
<text text-anchor="middle" x="884" y="-478.3" font-family="Times,serif" font-size="14.00">Neap (b)</text>
</g>
<!-- 0&#45;&gt;32 -->
<g id="edge30" class="edge">
<title>0&#45;&gt;32</title>
<path fill="none" stroke="black" stroke-dasharray="5,2" d="M884,-546.82C884,-536.19 884,-522.31 884,-510.2"/>
<polygon fill="black" stroke="black" points="887.5,-510.15 884,-500.15 880.5,-510.15 887.5,-510.15"/>
<text text-anchor="middle" x="887.5" y="-521" font-family="Times,serif" font-size="10.00">2</text>
</g>
<!-- 1 -->
<g id="node3" class="node">
<title>1</title>
<ellipse fill="none" stroke="black" cx="999" cy="-565" rx="44.39" ry="18"/>
<text text-anchor="middle" x="999" y="-561.3" font-family="Times,serif" font-size="14.00">P74 (b)</text>
</g>
<!-- 2 -->
<g id="node4" class="node">
<title>2</title>
<ellipse fill="none" stroke="black" cx="242" cy="-648" rx="44.39" ry="18"/>
<text text-anchor="middle" x="242" y="-644.3" font-family="Times,serif" font-size="14.00">S32 (b)</text>
</g>
<!-- 3 -->
<g id="node5" class="node">
<title>3</title>
<ellipse fill="none" stroke="black" cx="632" cy="-482" rx="42.49" ry="18"/>
<text text-anchor="middle" x="632" y="-478.3" font-family="Times,serif" font-size="14.00">Est (b)</text>
</g>
<!-- 4 -->
<g id="node6" class="node">
<title>4</title>
<ellipse fill="none" stroke="black" cx="372" cy="-565" rx="55.79" ry="18"/>
<text text-anchor="middle" x="372" y="-561.3" font-family="Times,serif" font-size="14.00">V1639 (b)</text>
</g>
<!-- 7 -->
<g id="node7" class="node">
<title>7</title>
<ellipse fill="none" stroke="black" cx="1111" cy="-565" rx="50.09" ry="18"/>
<text text-anchor="middle" x="1111" y="-561.3" font-family="Times,serif" font-size="14.00">A116 (b)</text>
</g>
<!-- 8 -->
<g id="node8" class="node">
<title>8</title>
<ellipse fill="none" stroke="black" cx="254" cy="-482" rx="55.79" ry="18"/>
<text text-anchor="middle" x="254" y="-478.3" font-family="Times,serif" font-size="14.00">V1920 (b)</text>
</g>
<!-- 9 -->
<g id="node9" class="node">
<title>9</title>
<ellipse fill="none" stroke="black" cx="354" cy="-648" rx="50.09" ry="18"/>
<text text-anchor="middle" x="354" y="-644.3" font-family="Times,serif" font-size="14.00">Patm (b)</text>
</g>
<!-- 39 -->
<g id="node35" class="node">
<title>39</title>
<ellipse fill="none" stroke="black" cx="248" cy="-565" rx="50.09" ry="18"/>
<text text-anchor="middle" x="248" y="-561.3" font-family="Times,serif" font-size="14.00">V560 (b)</text>
</g>
<!-- 9&#45;&gt;39 -->
<g id="edge34" class="edge">
<title>9&#45;&gt;39</title>
<path fill="none" stroke="black" stroke-width="2" d="M333.56,-631.38C317.43,-619.06 294.73,-601.71 276.76,-587.98"/>
<polygon fill="black" stroke="black" stroke-width="2" points="278.45,-584.86 268.38,-581.57 274.2,-590.42 278.45,-584.86"/>
<text text-anchor="middle" x="310.5" y="-604" font-family="Times,serif" font-size="10.00">2</text>
</g>
<!-- 10 -->
<g id="node10" class="node">
<title>10</title>
<ellipse fill="none" stroke="black" cx="763" cy="-180" rx="50.09" ry="18"/>
<text text-anchor="middle" x="763" y="-176.3" font-family="Times,serif" font-size="14.00">Marc (b)</text>
</g>
<!-- 26 -->
<g id="node25" class="node">
<title>26</title>
<ellipse fill="none" stroke="black" cx="763" cy="-107" rx="46.59" ry="18"/>
<text text-anchor="middle" x="763" y="-103.3" font-family="Times,serif" font-size="14.00">Mon (b)</text>
</g>
<!-- 10&#45;&gt;26 -->
<g id="edge24" class="edge">
<title>10&#45;&gt;26</title>
<path fill="none" stroke="black" stroke-dasharray="1,5" d="M763,-161.81C763,-153.79 763,-144.05 763,-135.07"/>
<polygon fill="black" stroke="black" points="766.5,-135.03 763,-125.03 759.5,-135.03 766.5,-135.03"/>
</g>
<!-- 11 -->
<g id="node11" class="node">
<title>11</title>
<ellipse fill="none" stroke="black" cx="472" cy="-648" rx="50.09" ry="18"/>
<text text-anchor="middle" x="472" y="-644.3" font-family="Times,serif" font-size="14.00">V566 (b)</text>
</g>
<!-- 11&#45;&gt;4 -->
<g id="edge5" class="edge">
<title>11&#45;&gt;4</title>
<path fill="none" stroke="black" stroke-dasharray="1,5" d="M452.72,-631.38C437.7,-619.21 416.63,-602.15 399.79,-588.51"/>
<polygon fill="black" stroke="black" points="401.88,-585.7 391.91,-582.12 397.47,-591.14 401.88,-585.7"/>
</g>
<!-- 12 -->
<g id="node12" class="node">
<title>12</title>
<ellipse fill="none" stroke="black" cx="1228" cy="-565" rx="49.29" ry="18"/>
<text text-anchor="middle" x="1228" y="-561.3" font-family="Times,serif" font-size="14.00">La35 (b)</text>
</g>
<!-- 13 -->
<g id="node13" class="node">
<title>13</title>
<ellipse fill="none" stroke="black" cx="622" cy="-731" rx="44.39" ry="18"/>
<text text-anchor="middle" x="622" y="-727.3" font-family="Times,serif" font-size="14.00">A25 (b)</text>
</g>
<!-- 13&#45;&gt;2 -->
<g id="edge3" class="edge">
<title>13&#45;&gt;2</title>
<path fill="none" stroke="black" stroke-dasharray="5,2" d="M581.39,-723.62C519.22,-713.51 396.96,-692.23 295,-666 291.62,-665.13 288.14,-664.17 284.66,-663.16"/>
<polygon fill="black" stroke="black" points="285.49,-659.75 274.9,-660.21 283.47,-666.45 285.49,-659.75"/>
</g>
<!-- 13&#45;&gt;9 -->
<g id="edge8" class="edge">
<title>13&#45;&gt;9</title>
<path fill="none" stroke="black" stroke-dasharray="1,5" d="M587.51,-719.58C539.97,-705.21 454.12,-679.26 400.82,-663.15"/>
<polygon fill="black" stroke="black" points="401.52,-659.71 390.93,-660.16 399.49,-666.41 401.52,-659.71"/>
</g>
<!-- 13&#45;&gt;11 -->
<g id="edge10" class="edge">
<title>13&#45;&gt;11</title>
<path fill="none" stroke="black" stroke-dasharray="5,2" d="M596.55,-716.26C572.07,-703.04 534.84,-682.93 507.46,-668.15"/>
<polygon fill="black" stroke="black" points="509.04,-665.03 498.58,-663.35 505.72,-671.19 509.04,-665.03"/>
</g>
<!-- 17 -->
<g id="node17" class="node">
<title>17</title>
<ellipse fill="none" stroke="black" cx="586" cy="-648" rx="45.49" ry="18"/>
<text text-anchor="middle" x="586" y="-644.3" font-family="Times,serif" font-size="14.00">Nan (b)</text>
</g>
<!-- 13&#45;&gt;17 -->
<g id="edge16" class="edge">
<title>13&#45;&gt;17</title>
<path fill="none" stroke="black" stroke-dasharray="5,2" d="M614.54,-713.22C609.67,-702.25 603.2,-687.69 597.65,-675.22"/>
<polygon fill="black" stroke="black" points="600.71,-673.48 593.45,-665.76 594.31,-676.32 600.71,-673.48"/>
<text text-anchor="middle" x="609.5" y="-687" font-family="Times,serif" font-size="10.00">2</text>
</g>
<!-- 18 -->
<g id="node18" class="node">
<title>18</title>
<ellipse fill="none" stroke="black" cx="700" cy="-648" rx="50.09" ry="18"/>
<text text-anchor="middle" x="700" y="-644.3" font-family="Times,serif" font-size="14.00">S249 (b)</text>
</g>
<!-- 13&#45;&gt;18 -->
<g id="edge17" class="edge">
<title>13&#45;&gt;18</title>
<path fill="none" stroke="black" stroke-dasharray="5,2" d="M637.41,-714C648.77,-702.2 664.4,-685.97 677.2,-672.68"/>
<polygon fill="black" stroke="black" points="679.94,-674.88 684.35,-665.25 674.9,-670.02 679.94,-674.88"/>
<text text-anchor="middle" x="668.5" y="-687" font-family="Times,serif" font-size="10.00">2</text>
</g>
<!-- 25 -->
<g id="node24" class="node">
<title>25</title>
<ellipse fill="none" stroke="black" cx="812" cy="-648" rx="44.39" ry="18"/>
<text text-anchor="middle" x="812" y="-644.3" font-family="Times,serif" font-size="14.00">P01 (b)</text>
</g>
<!-- 13&#45;&gt;25 -->
<g id="edge23" class="edge">
<title>13&#45;&gt;25</title>
<path fill="none" stroke="black" stroke-dasharray="5,2" d="M651.69,-717.34C684.45,-703.37 737.31,-680.84 773.3,-665.5"/>
<polygon fill="black" stroke="black" points="774.69,-668.71 782.52,-661.57 771.95,-662.27 774.69,-668.71"/>
</g>
<!-- 31 -->
<g id="node30" class="node">
<title>31</title>
<ellipse fill="none" stroke="black" cx="1228" cy="-648" rx="49.29" ry="18"/>
<text text-anchor="middle" x="1228" y="-644.3" font-family="Times,serif" font-size="14.00">La22 (b)</text>
</g>
<!-- 13&#45;&gt;31 -->
<g id="edge29" class="edge">
<title>13&#45;&gt;31</title>
<path fill="none" stroke="black" stroke-dasharray="1,5" d="M663.65,-724.43C770.06,-710.21 1051.92,-672.54 1172.27,-656.45"/>
<polygon fill="black" stroke="black" points="1172.92,-659.89 1182.37,-655.1 1171.99,-652.96 1172.92,-659.89"/>
<text text-anchor="middle" x="964.5" y="-687" font-family="Times,serif" font-size="10.00">2</text>
</g>
<!-- 40 -->
<g id="node36" class="node">
<title>40</title>
<ellipse fill="none" stroke="black" cx="1336" cy="-648" rx="40.09" ry="18"/>
<text text-anchor="middle" x="1336" y="-644.3" font-family="Times,serif" font-size="14.00">Pal (b)</text>
</g>
<!-- 13&#45;&gt;40 -->
<g id="edge35" class="edge">
<title>13&#45;&gt;40</title>
<path fill="none" stroke="black" stroke-dasharray="5,2" d="M666.04,-729.26C773.31,-726.72 1056.16,-715.45 1286,-666 1289.47,-665.25 1293.03,-664.35 1296.57,-663.34"/>
<polygon fill="black" stroke="black" points="1297.91,-666.59 1306.44,-660.31 1295.85,-659.9 1297.91,-666.59"/>
</g>
<!-- 14 -->
<g id="node14" class="node">
<title>14</title>
<ellipse fill="none" stroke="black" cx="1466" cy="-482" rx="50.09" ry="18"/>
<text text-anchor="middle" x="1466" y="-478.3" font-family="Times,serif" font-size="14.00">A336 (b)</text>
</g>
<!-- 15 -->
<g id="node15" class="node">
<title>15</title>
<ellipse fill="none" stroke="black" cx="884" cy="-180" rx="53.09" ry="18"/>
<text text-anchor="middle" x="884" y="-176.3" font-family="Times,serif" font-size="14.00">M118 (b)</text>
</g>
<!-- 16 -->
<g id="node16" class="node">
<title>16</title>
<ellipse fill="none" stroke="black" cx="759" cy="-565" rx="53.09" ry="18"/>
<text text-anchor="middle" x="759" y="-561.3" font-family="Times,serif" font-size="14.00">LaSM (b)</text>
</g>
<!-- 23 -->
<g id="node22" class="node">
<title>23</title>
<ellipse fill="none" stroke="black" cx="759" cy="-482" rx="44.69" ry="18"/>
<text text-anchor="middle" x="759" y="-478.3" font-family="Times,serif" font-size="14.00">B39 (b)</text>
</g>
<!-- 16&#45;&gt;23 -->
<g id="edge21" class="edge">
<title>16&#45;&gt;23</title>
<path fill="none" stroke="black" stroke-dasharray="5,2" d="M759,-546.82C759,-536.19 759,-522.31 759,-510.2"/>
<polygon fill="black" stroke="black" points="762.5,-510.15 759,-500.15 755.5,-510.15 762.5,-510.15"/>
</g>
<!-- 20 -->
<g id="node19" class="node">
<title>20</title>
<ellipse fill="none" stroke="black" cx="502" cy="-565" rx="55.79" ry="18"/>
<text text-anchor="middle" x="502" y="-561.3" font-family="Times,serif" font-size="14.00">V2250 (b)</text>
</g>
<!-- 17&#45;&gt;20 -->
<g id="edge18" class="edge">
<title>17&#45;&gt;20</title>
<path fill="none" stroke="black" stroke-dasharray="5,2" d="M569.4,-631C557.06,-619.09 540.02,-602.67 526.17,-589.31"/>
<polygon fill="black" stroke="black" points="528.48,-586.67 518.85,-582.25 523.62,-591.71 528.48,-586.67"/>
</g>
<!-- 30 -->
<g id="node29" class="node">
<title>30</title>
<ellipse fill="none" stroke="black" cx="632" cy="-565" rx="55.79" ry="18"/>
<text text-anchor="middle" x="632" y="-561.3" font-family="Times,serif" font-size="14.00">V1897 (b)</text>
</g>
<!-- 17&#45;&gt;30 -->
<g id="edge28" class="edge">
<title>17&#45;&gt;30</title>
<path fill="none" stroke="black" stroke-dasharray="1,5" d="M595.53,-630.22C601.88,-619.03 610.35,-604.12 617.53,-591.48"/>
<polygon fill="black" stroke="black" points="620.59,-593.19 622.48,-582.76 614.5,-589.73 620.59,-593.19"/>
</g>
<!-- 21 -->
<g id="node20" class="node">
<title>21</title>
<ellipse fill="none" stroke="black" cx="884" cy="-253" rx="47.39" ry="18"/>
<text text-anchor="middle" x="884" y="-249.3" font-family="Times,serif" font-size="14.00">Taur (b)</text>
</g>
<!-- 21&#45;&gt;10 -->
<g id="edge9" class="edge">
<title>21&#45;&gt;10</title>
<path fill="none" stroke="black" stroke-dasharray="1,5" d="M859.22,-237.46C841.23,-226.91 816.68,-212.5 796.88,-200.88"/>
<polygon fill="black" stroke="black" points="798.56,-197.81 788.16,-195.76 795.01,-203.84 798.56,-197.81"/>
</g>
<!-- 21&#45;&gt;15 -->
<g id="edge14" class="edge">
<title>21&#45;&gt;15</title>
<path fill="none" stroke="black" stroke-dasharray="5,2" d="M884,-234.81C884,-226.79 884,-217.05 884,-208.07"/>
<polygon fill="black" stroke="black" points="887.5,-208.03 884,-198.03 880.5,-208.03 887.5,-208.03"/>
</g>
<!-- 22 -->
<g id="node21" class="node">
<title>22</title>
<ellipse fill="none" stroke="black" cx="1005" cy="-180" rx="50.09" ry="18"/>
<text text-anchor="middle" x="1005" y="-176.3" font-family="Times,serif" font-size="14.00">V569 (b)</text>
</g>
<!-- 21&#45;&gt;22 -->
<g id="edge20" class="edge">
<title>21&#45;&gt;22</title>
<path fill="none" stroke="black" stroke-dasharray="5,2" d="M908.78,-237.46C926.77,-226.91 951.32,-212.5 971.12,-200.88"/>
<polygon fill="black" stroke="black" points="972.99,-203.84 979.84,-195.76 969.44,-197.81 972.99,-203.84"/>
</g>
<!-- 24 -->
<g id="node23" class="node">
<title>24</title>
<ellipse fill="none" stroke="black" cx="884" cy="-326" rx="50.09" ry="18"/>
<text text-anchor="middle" x="884" y="-322.3" font-family="Times,serif" font-size="14.00">V568 (b)</text>
</g>
<!-- 24&#45;&gt;21 -->
<g id="edge19" class="edge">
<title>24&#45;&gt;21</title>
<path fill="none" stroke="black" stroke-dasharray="1,5" d="M884,-307.81C884,-299.79 884,-290.05 884,-281.07"/>
<polygon fill="black" stroke="black" points="887.5,-281.03 884,-271.03 880.5,-281.03 887.5,-281.03"/>
</g>
<!-- 25&#45;&gt;16 -->
<g id="edge15" class="edge">
<title>25&#45;&gt;16</title>
<path fill="none" stroke="black" stroke-dasharray="5,2" d="M801.02,-630.22C793.7,-619.03 783.94,-604.12 775.67,-591.48"/>
<polygon fill="black" stroke="black" points="778.37,-589.21 769.97,-582.76 772.51,-593.05 778.37,-589.21"/>
<text text-anchor="middle" x="791.5" y="-604" font-family="Times,serif" font-size="10.00">2</text>
</g>
<!-- 29 -->
<g id="node28" class="node">
<title>29</title>
<ellipse fill="none" stroke="black" cx="763" cy="-34" rx="41.69" ry="18"/>
<text text-anchor="middle" x="763" y="-30.3" font-family="Times,serif" font-size="14.00">Sin (b)</text>
</g>
<!-- 26&#45;&gt;29 -->
<g id="edge27" class="edge">
<title>26&#45;&gt;29</title>
<path fill="none" stroke="black" stroke-dasharray="1,5" d="M763,-88.81C763,-80.79 763,-71.05 763,-62.07"/>
<polygon fill="black" stroke="black" points="766.5,-62.03 763,-52.03 759.5,-62.03 766.5,-62.03"/>
</g>
<!-- 27 -->
<g id="node26" class="node">
<title>27</title>
<ellipse fill="none" stroke="black" cx="1345" cy="-565" rx="50.09" ry="18"/>
<text text-anchor="middle" x="1345" y="-561.3" font-family="Times,serif" font-size="14.00">V565 (b)</text>
</g>
<!-- 28 -->
<g id="node27" class="node">
<title>28</title>
<ellipse fill="none" stroke="black" cx="1466" cy="-565" rx="53.09" ry="18"/>
<text text-anchor="middle" x="1466" y="-561.3" font-family="Times,serif" font-size="14.00">M111 (b)</text>
</g>
<!-- 28&#45;&gt;14 -->
<g id="edge13" class="edge">
<title>28&#45;&gt;14</title>
<path fill="none" stroke="black" stroke-dasharray="5,2" d="M1466,-546.82C1466,-536.19 1466,-522.31 1466,-510.2"/>
<polygon fill="black" stroke="black" points="1469.5,-510.15 1466,-500.15 1462.5,-510.15 1469.5,-510.15"/>
</g>
<!-- 30&#45;&gt;3 -->
<g id="edge4" class="edge">
<title>30&#45;&gt;3</title>
<path fill="none" stroke="black" stroke-dasharray="1,5" d="M632,-546.82C632,-536.19 632,-522.31 632,-510.2"/>
<polygon fill="black" stroke="black" points="635.5,-510.15 632,-500.15 628.5,-510.15 635.5,-510.15"/>
</g>
<!-- 31&#45;&gt;0 -->
<g id="edge1" class="edge">
<title>31&#45;&gt;0</title>
<path fill="none" stroke="black" d="M1186.29,-638.14C1131.14,-626.29 1030.98,-604.28 946,-583 941.92,-581.98 937.7,-580.89 933.46,-579.77"/>
<polygon fill="black" stroke="black" points="934.19,-576.34 923.62,-577.15 932.38,-583.11 934.19,-576.34"/>
<text text-anchor="middle" x="1064.5" y="-604" font-family="Times,serif" font-size="10.00">2</text>
</g>
<!-- 31&#45;&gt;1 -->
<g id="edge2" class="edge">
<title>31&#45;&gt;1</title>
<path fill="none" stroke="black" stroke-dasharray="1,5" d="M1193.72,-634.87C1152.88,-620.43 1084.7,-596.31 1040.81,-580.79"/>
<polygon fill="black" stroke="black" points="1041.89,-577.46 1031.29,-577.42 1039.55,-584.06 1041.89,-577.46"/>
</g>
<!-- 31&#45;&gt;7 -->
<g id="edge6" class="edge">
<title>31&#45;&gt;7</title>
<path fill="none" stroke="black" stroke-dasharray="5,2" d="M1205.99,-631.76C1187.81,-619.17 1161.78,-601.16 1141.57,-587.17"/>
<polygon fill="black" stroke="black" points="1143.52,-584.26 1133.31,-581.44 1139.54,-590.01 1143.52,-584.26"/>
</g>
<!-- 31&#45;&gt;12 -->
<g id="edge11" class="edge">
<title>31&#45;&gt;12</title>
<path fill="none" stroke="black" stroke-dasharray="1,5" d="M1228,-629.82C1228,-619.19 1228,-605.31 1228,-593.2"/>
<polygon fill="black" stroke="black" points="1231.5,-593.15 1228,-583.15 1224.5,-593.15 1231.5,-593.15"/>
</g>
<!-- 31&#45;&gt;27 -->
<g id="edge25" class="edge">
<title>31&#45;&gt;27</title>
<path fill="none" stroke="black" stroke-dasharray="5,2" d="M1250.01,-631.76C1268.19,-619.17 1294.22,-601.16 1314.43,-587.17"/>
<polygon fill="black" stroke="black" points="1316.46,-590.01 1322.69,-581.44 1312.48,-584.26 1316.46,-590.01"/>
</g>
<!-- 31&#45;&gt;28 -->
<g id="edge26" class="edge">
<title>31&#45;&gt;28</title>
<path fill="none" stroke="black" stroke-dasharray="1,5" d="M1262.86,-635.14C1304.48,-620.97 1374.21,-597.24 1420.16,-581.6"/>
<polygon fill="black" stroke="black" points="1421.54,-584.83 1429.87,-578.29 1419.28,-578.2 1421.54,-584.83"/>
</g>
<!-- 33 -->
<g id="node32" class="node">
<title>33</title>
<ellipse fill="none" stroke="black" cx="1585" cy="-565" rx="47.39" ry="18"/>
<text text-anchor="middle" x="1585" y="-561.3" font-family="Times,serif" font-size="14.00">Bodl (b)</text>
</g>
<!-- 31&#45;&gt;33 -->
<g id="edge31" class="edge">
<title>31&#45;&gt;33</title>
<path fill="none" stroke="black" stroke-dasharray="5,2" d="M1264.69,-635.89C1272.05,-633.81 1279.75,-631.75 1287,-630 1393.09,-604.42 1422.03,-609.07 1528,-583 1531.84,-582.06 1535.8,-581.01 1539.77,-579.92"/>
<polygon fill="black" stroke="black" points="1540.9,-583.24 1549.57,-577.15 1539,-576.51 1540.9,-583.24"/>
</g>
<!-- 35 -->
<g id="node33" class="node">
<title>35</title>
<ellipse fill="none" stroke="black" cx="1694" cy="-565" rx="43.59" ry="18"/>
<text text-anchor="middle" x="1694" y="-561.3" font-family="Times,serif" font-size="14.00">La2 (b)</text>
</g>
<!-- 31&#45;&gt;35 -->
<g id="edge32" class="edge">
<title>31&#45;&gt;35</title>
<path fill="none" stroke="black" d="M1264.3,-635.63C1271.75,-633.55 1279.59,-631.55 1287,-630 1364.67,-613.75 1563.58,-600.41 1641,-583 1644.66,-582.18 1648.42,-581.21 1652.18,-580.17"/>
<polygon fill="black" stroke="black" points="1653.42,-583.45 1662.02,-577.27 1651.44,-576.74 1653.42,-583.45"/>
<text text-anchor="middle" x="1516.5" y="-604" font-family="Times,serif" font-size="10.00">2</text>
</g>
<!-- 36 -->
<g id="node34" class="node">
<title>36</title>
<ellipse fill="none" stroke="black" cx="1806" cy="-565" rx="50.09" ry="18"/>
<text text-anchor="middle" x="1806" y="-561.3" font-family="Times,serif" font-size="14.00">V571 (b)</text>
</g>
<!-- 31&#45;&gt;36 -->
<g id="edge33" class="edge">
<title>31&#45;&gt;36</title>
<path fill="none" stroke="black" stroke-dasharray="1,5" d="M1263.6,-635.47C1271.25,-633.35 1279.34,-631.38 1287,-630 1390.96,-611.28 1418.92,-622.82 1524,-612 1623.42,-601.77 1649.15,-603.34 1747,-583 1751.11,-582.15 1755.35,-581.15 1759.59,-580.08"/>
<polygon fill="black" stroke="black" points="1760.63,-583.43 1769.39,-577.48 1758.83,-576.66 1760.63,-583.43"/>
</g>
<!-- 42 -->
<g id="node37" class="node">
<title>42</title>
<ellipse fill="none" stroke="black" cx="884" cy="-399" rx="50.09" ry="18"/>
<text text-anchor="middle" x="884" y="-395.3" font-family="Times,serif" font-size="14.00">V536 (b)</text>
</g>
<!-- 32&#45;&gt;42 -->
<g id="edge36" class="edge">
<title>32&#45;&gt;42</title>
<path fill="none" stroke="black" stroke-dasharray="5,2" d="M884,-463.82C884,-453.19 884,-439.31 884,-427.2"/>
<polygon fill="black" stroke="black" points="887.5,-427.15 884,-417.15 880.5,-427.15 887.5,-427.15"/>
<text text-anchor="middle" x="887.5" y="-438" font-family="Times,serif" font-size="10.00">2</text>
</g>
<!-- 39&#45;&gt;8 -->
<g id="edge7" class="edge">
<title>39&#45;&gt;8</title>
<path fill="none" stroke="black" stroke-dasharray="5,2" d="M249.27,-546.82C250.06,-536.19 251.09,-522.31 251.98,-510.2"/>
<polygon fill="black" stroke="black" points="255.48,-510.38 252.73,-500.15 248.5,-509.87 255.48,-510.38"/>
</g>
<!-- 42&#45;&gt;24 -->
<g id="edge22" class="edge">
<title>42&#45;&gt;24</title>
<path fill="none" stroke="black" stroke-dasharray="1,5" d="M884,-380.81C884,-372.79 884,-363.05 884,-354.07"/>
<polygon fill="black" stroke="black" points="887.5,-354.03 884,-344.03 880.5,-354.03 887.5,-354.03"/>
</g>
<!-- 37 -->
<g id="node38" class="node">
<title>37</title>
<ellipse fill="none" stroke="blue" stroke-dasharray="5,2" cx="622" cy="-805" rx="53.89" ry="18"/>
<text text-anchor="middle" x="622" y="-801.3" font-family="Times,serif" font-size="14.00">aBase (a)</text>
</g>
<!-- 37&#45;&gt;13 -->
<g id="edge12" class="edge">
<title>37&#45;&gt;13</title>
<path fill="none" stroke="blue" stroke-dasharray="5,2" d="M622,-786.94C622,-778.81 622,-768.88 622,-759.7"/>
<polygon fill="blue" stroke="blue" points="625.5,-759.44 622,-749.44 618.5,-759.44 625.5,-759.44"/>
</g>
</g>
</svg>
