<?xml version="1.0" encoding="UTF-8" standalone="no"?>
<!DOCTYPE svg PUBLIC "-//W3C//DTD SVG 1.1//EN"
 "http://www.w3.org/Graphics/SVG/1.1/DTD/svg11.dtd">
<!-- Generated by graphviz version 2.43.0 (0)
 -->
<!-- Title: textual_flow_diagram Pages: 1 -->
<svg width="1940pt" height="526pt"
 viewBox="0.00 0.00 1940.00 526.00" xmlns="http://www.w3.org/2000/svg" xmlns:xlink="http://www.w3.org/1999/xlink">
<g id="graph0" class="graph" transform="scale(1 1) rotate(0) translate(4 522)">
<title>textual_flow_diagram</title>
<polygon fill="white" stroke="transparent" points="-4,4 -4,-522 1936,-522 1936,4 -4,4"/>
<g id="clust1" class="cluster">
<title>cluster_legend</title>
<polygon fill="none" stroke="black" points="8,-456 8,-510 194,-510 194,-456 8,-456"/>
</g>
<g id="clust2" class="cluster">
<title>cluster_plot</title>
</g>
<!-- label -->
<g id="node1" class="node">
<title>label</title>
<text text-anchor="middle" x="101" y="-486.8" font-family="Times,serif" font-size="14.00">adstag1.3.5U12&#45;14, a</text>
<text text-anchor="middle" x="101" y="-471.8" font-family="Times,serif" font-size="14.00">Con = 5</text>
</g>
<!-- 0 -->
<g id="node2" class="node">
<title>0</title>
<ellipse fill="none" stroke="black" cx="1151" cy="-326" rx="52.79" ry="18"/>
<text text-anchor="middle" x="1151" y="-322.3" font-family="Times,serif" font-size="14.00">M111 (a)</text>
</g>
<!-- 18 -->
<g id="node14" class="node">
<title>18</title>
<ellipse fill="none" stroke="black" cx="1151" cy="-253" rx="50.09" ry="18"/>
<text text-anchor="middle" x="1151" y="-249.3" font-family="Times,serif" font-size="14.00">A336 (a)</text>
</g>
<!-- 0&#45;&gt;18 -->
<g id="edge13" class="edge">
<title>0&#45;&gt;18</title>
<path fill="none" stroke="black" stroke-dasharray="5,2" d="M1151,-307.81C1151,-299.79 1151,-290.05 1151,-281.07"/>
<polygon fill="black" stroke="black" points="1154.5,-281.03 1151,-271.03 1147.5,-281.03 1154.5,-281.03"/>
</g>
<!-- 1 -->
<g id="node3" class="node">
<title>1</title>
<ellipse fill="none" stroke="black" cx="912" cy="-180" rx="50.09" ry="18"/>
<text text-anchor="middle" x="912" y="-176.3" font-family="Times,serif" font-size="14.00">Marc (a)</text>
</g>
<!-- 28 -->
<g id="node22" class="node">
<title>28</title>
<ellipse fill="none" stroke="black" cx="912" cy="-107" rx="46.29" ry="18"/>
<text text-anchor="middle" x="912" y="-103.3" font-family="Times,serif" font-size="14.00">Mon (a)</text>
</g>
<!-- 1&#45;&gt;28 -->
<g id="edge21" class="edge">
<title>1&#45;&gt;28</title>
<path fill="none" stroke="black" stroke-dasharray="1,5" d="M912,-161.81C912,-153.79 912,-144.05 912,-135.07"/>
<polygon fill="black" stroke="black" points="915.5,-135.03 912,-125.03 908.5,-135.03 915.5,-135.03"/>
</g>
<!-- 2 -->
<g id="node4" class="node">
<title>2</title>
<ellipse fill="none" stroke="black" cx="1272" cy="-326" rx="50.09" ry="18"/>
<text text-anchor="middle" x="1272" y="-322.3" font-family="Times,serif" font-size="14.00">A116 (a)</text>
</g>
<!-- 3 -->
<g id="node5" class="node">
<title>3</title>
<ellipse fill="none" stroke="black" cx="1390" cy="-326" rx="50.09" ry="18"/>
<text text-anchor="middle" x="1390" y="-322.3" font-family="Times,serif" font-size="14.00">V565 (a)</text>
</g>
<!-- 4 -->
<g id="node6" class="node">
<title>4</title>
<ellipse fill="none" stroke="black" cx="912" cy="-34" rx="40.89" ry="18"/>
<text text-anchor="middle" x="912" y="-30.3" font-family="Times,serif" font-size="14.00">Sin (a)</text>
</g>
<!-- 5 -->
<g id="node7" class="node">
<title>5</title>
<ellipse fill="none" stroke="black" cx="369" cy="-399" rx="52.79" ry="18"/>
<text text-anchor="middle" x="369" y="-395.3" font-family="Times,serif" font-size="14.00">LaSM (a)</text>
</g>
<!-- 20 -->
<g id="node16" class="node">
<title>20</title>
<ellipse fill="none" stroke="black" cx="254" cy="-326" rx="44.39" ry="18"/>
<text text-anchor="middle" x="254" y="-322.3" font-family="Times,serif" font-size="14.00">B39 (a)</text>
</g>
<!-- 5&#45;&gt;20 -->
<g id="edge15" class="edge">
<title>5&#45;&gt;20</title>
<path fill="none" stroke="black" stroke-dasharray="5,2" d="M344.61,-382.94C327.61,-372.45 304.76,-358.34 286.26,-346.91"/>
<polygon fill="black" stroke="black" points="287.91,-343.83 277.57,-341.55 284.24,-349.78 287.91,-343.83"/>
</g>
<!-- 6 -->
<g id="node8" class="node">
<title>6</title>
<ellipse fill="none" stroke="black" cx="1514" cy="-326" rx="55.79" ry="18"/>
<text text-anchor="middle" x="1514" y="-322.3" font-family="Times,serif" font-size="14.00">V2036 (a)</text>
</g>
<!-- 8 -->
<g id="node9" class="node">
<title>8</title>
<ellipse fill="none" stroke="black" cx="366" cy="-326" rx="50.09" ry="18"/>
<text text-anchor="middle" x="366" y="-322.3" font-family="Times,serif" font-size="14.00">V566 (a)</text>
</g>
<!-- 12 -->
<g id="node11" class="node">
<title>12</title>
<ellipse fill="none" stroke="black" cx="366" cy="-253" rx="55.79" ry="18"/>
<text text-anchor="middle" x="366" y="-249.3" font-family="Times,serif" font-size="14.00">V1639 (a)</text>
</g>
<!-- 8&#45;&gt;12 -->
<g id="edge10" class="edge">
<title>8&#45;&gt;12</title>
<path fill="none" stroke="black" stroke-dasharray="1,5" d="M366,-307.81C366,-299.79 366,-290.05 366,-281.07"/>
<polygon fill="black" stroke="black" points="369.5,-281.03 366,-271.03 362.5,-281.03 369.5,-281.03"/>
</g>
<!-- 11 -->
<g id="node10" class="node">
<title>11</title>
<ellipse fill="none" stroke="black" cx="1030" cy="-253" rx="46.59" ry="18"/>
<text text-anchor="middle" x="1030" y="-249.3" font-family="Times,serif" font-size="14.00">Taur (a)</text>
</g>
<!-- 11&#45;&gt;1 -->
<g id="edge2" class="edge">
<title>11&#45;&gt;1</title>
<path fill="none" stroke="black" stroke-dasharray="1,5" d="M1005.84,-237.46C988.37,-226.95 964.57,-212.63 945.3,-201.04"/>
<polygon fill="black" stroke="black" points="946.91,-197.92 936.54,-195.76 943.3,-203.92 946.91,-197.92"/>
</g>
<!-- 22 -->
<g id="node18" class="node">
<title>22</title>
<ellipse fill="none" stroke="black" cx="1030" cy="-180" rx="50.09" ry="18"/>
<text text-anchor="middle" x="1030" y="-176.3" font-family="Times,serif" font-size="14.00">V569 (a)</text>
</g>
<!-- 11&#45;&gt;22 -->
<g id="edge17" class="edge">
<title>11&#45;&gt;22</title>
<path fill="none" stroke="black" stroke-dasharray="5,2" d="M1030,-234.81C1030,-226.79 1030,-217.05 1030,-208.07"/>
<polygon fill="black" stroke="black" points="1033.5,-208.03 1030,-198.03 1026.5,-208.03 1033.5,-208.03"/>
</g>
<!-- 29 -->
<g id="node23" class="node">
<title>29</title>
<ellipse fill="none" stroke="black" cx="1151" cy="-180" rx="52.79" ry="18"/>
<text text-anchor="middle" x="1151" y="-176.3" font-family="Times,serif" font-size="14.00">M118 (a)</text>
</g>
<!-- 11&#45;&gt;29 -->
<g id="edge22" class="edge">
<title>11&#45;&gt;29</title>
<path fill="none" stroke="black" stroke-dasharray="5,2" d="M1054.49,-237.63C1072.45,-227.09 1097.08,-212.64 1116.96,-200.97"/>
<polygon fill="black" stroke="black" points="1118.86,-203.91 1125.72,-195.84 1115.32,-197.88 1118.86,-203.91"/>
</g>
<!-- 13 -->
<g id="node12" class="node">
<title>13</title>
<ellipse fill="none" stroke="black" cx="478" cy="-326" rx="44.39" ry="18"/>
<text text-anchor="middle" x="478" y="-322.3" font-family="Times,serif" font-size="14.00">S32 (a)</text>
</g>
<!-- 17 -->
<g id="node13" class="node">
<title>17</title>
<ellipse fill="none" stroke="black" cx="1637" cy="-326" rx="48.99" ry="18"/>
<text text-anchor="middle" x="1637" y="-322.3" font-family="Times,serif" font-size="14.00">La35 (a)</text>
</g>
<!-- 19 -->
<g id="node15" class="node">
<title>19</title>
<ellipse fill="none" stroke="black" cx="1754" cy="-326" rx="50.09" ry="18"/>
<text text-anchor="middle" x="1754" y="-322.3" font-family="Times,serif" font-size="14.00">V571 (a)</text>
</g>
<!-- 21 -->
<g id="node17" class="node">
<title>21</title>
<ellipse fill="none" stroke="black" cx="626" cy="-399" rx="44.39" ry="18"/>
<text text-anchor="middle" x="626" y="-395.3" font-family="Times,serif" font-size="14.00">A25 (a)</text>
</g>
<!-- 21&#45;&gt;8 -->
<g id="edge8" class="edge">
<title>21&#45;&gt;8</title>
<path fill="none" stroke="black" stroke-dasharray="5,2" d="M590,-388.54C549.74,-377.91 482.61,-360.04 425,-344 421.24,-342.95 417.34,-341.86 413.43,-340.75"/>
<polygon fill="black" stroke="black" points="414.32,-337.36 403.74,-337.98 412.4,-344.09 414.32,-337.36"/>
</g>
<!-- 21&#45;&gt;13 -->
<g id="edge11" class="edge">
<title>21&#45;&gt;13</title>
<path fill="none" stroke="black" stroke-dasharray="5,2" d="M598.51,-384.81C574.91,-373.49 540.69,-357.08 514.74,-344.63"/>
<polygon fill="black" stroke="black" points="516.12,-341.41 505.59,-340.24 513.1,-347.72 516.12,-341.41"/>
</g>
<!-- 34 -->
<g id="node25" class="node">
<title>34</title>
<ellipse fill="none" stroke="black" cx="590" cy="-326" rx="50.09" ry="18"/>
<text text-anchor="middle" x="590" y="-322.3" font-family="Times,serif" font-size="14.00">Patm (a)</text>
</g>
<!-- 21&#45;&gt;34 -->
<g id="edge24" class="edge">
<title>21&#45;&gt;34</title>
<path fill="none" stroke="black" stroke-dasharray="1,5" d="M617.47,-381.17C613.23,-372.81 608,-362.51 603.26,-353.14"/>
<polygon fill="black" stroke="black" points="606.36,-351.53 598.72,-344.2 600.12,-354.7 606.36,-351.53"/>
</g>
<!-- 36 -->
<g id="node26" class="node">
<title>36</title>
<ellipse fill="none" stroke="black" cx="698" cy="-326" rx="40.09" ry="18"/>
<text text-anchor="middle" x="698" y="-322.3" font-family="Times,serif" font-size="14.00">Pal (a)</text>
</g>
<!-- 21&#45;&gt;36 -->
<g id="edge25" class="edge">
<title>21&#45;&gt;36</title>
<path fill="none" stroke="black" stroke-dasharray="5,2" d="M642.34,-381.89C651.82,-372.54 663.93,-360.6 674.43,-350.25"/>
<polygon fill="black" stroke="black" points="677.06,-352.56 681.73,-343.05 672.15,-347.58 677.06,-352.56"/>
</g>
<!-- 37 -->
<g id="node27" class="node">
<title>37</title>
<ellipse fill="none" stroke="black" cx="800" cy="-326" rx="44.39" ry="18"/>
<text text-anchor="middle" x="800" y="-322.3" font-family="Times,serif" font-size="14.00">P01 (a)</text>
</g>
<!-- 21&#45;&gt;37 -->
<g id="edge26" class="edge">
<title>21&#45;&gt;37</title>
<path fill="none" stroke="black" stroke-dasharray="5,2" d="M656.31,-385.63C685.16,-373.86 728.75,-356.07 760.35,-343.18"/>
<polygon fill="black" stroke="black" points="761.81,-346.36 769.75,-339.34 759.17,-339.88 761.81,-346.36"/>
</g>
<!-- 23 -->
<g id="node19" class="node">
<title>23</title>
<ellipse fill="none" stroke="black" cx="781" cy="-399" rx="44.69" ry="18"/>
<text text-anchor="middle" x="781" y="-395.3" font-family="Times,serif" font-size="14.00">Nan (a)</text>
</g>
<!-- 24 -->
<g id="node20" class="node">
<title>24</title>
<ellipse fill="none" stroke="black" cx="912" cy="-399" rx="55.79" ry="18"/>
<text text-anchor="middle" x="912" y="-395.3" font-family="Times,serif" font-size="14.00">V1629 (a)</text>
</g>
<!-- 32 -->
<g id="node24" class="node">
<title>32</title>
<ellipse fill="none" stroke="black" cx="912" cy="-326" rx="50.09" ry="18"/>
<text text-anchor="middle" x="912" y="-322.3" font-family="Times,serif" font-size="14.00">V536 (a)</text>
</g>
<!-- 24&#45;&gt;32 -->
<g id="edge23" class="edge">
<title>24&#45;&gt;32</title>
<path fill="none" stroke="black" stroke-dasharray="5,2" d="M912,-380.81C912,-372.79 912,-363.05 912,-354.07"/>
<polygon fill="black" stroke="black" points="915.5,-354.03 912,-344.03 908.5,-354.03 915.5,-354.03"/>
</g>
<!-- 38 -->
<g id="node28" class="node">
<title>38</title>
<ellipse fill="none" stroke="black" cx="1030" cy="-326" rx="50.09" ry="18"/>
<text text-anchor="middle" x="1030" y="-322.3" font-family="Times,serif" font-size="14.00">V568 (a)</text>
</g>
<!-- 24&#45;&gt;38 -->
<g id="edge27" class="edge">
<title>24&#45;&gt;38</title>
<path fill="none" stroke="black" stroke-dasharray="5,2" d="M937.31,-382.77C954.74,-372.29 978.05,-358.26 996.94,-346.89"/>
<polygon fill="black" stroke="black" points="998.77,-349.87 1005.54,-341.72 995.16,-343.88 998.77,-349.87"/>
</g>
<!-- 26 -->
<g id="node21" class="node">
<title>26</title>
<ellipse fill="none" stroke="black" cx="1452" cy="-399" rx="48.99" ry="18"/>
<text text-anchor="middle" x="1452" y="-395.3" font-family="Times,serif" font-size="14.00">La22 (a)</text>
</g>
<!-- 26&#45;&gt;0 -->
<g id="edge1" class="edge">
<title>26&#45;&gt;0</title>
<path fill="none" stroke="black" stroke-dasharray="1,5" d="M1410.84,-389.3C1363.11,-379.06 1282.13,-361.28 1213,-344 1208.86,-342.96 1204.57,-341.86 1200.27,-340.73"/>
<polygon fill="black" stroke="black" points="1200.85,-337.26 1190.29,-338.06 1199.05,-344.02 1200.85,-337.26"/>
</g>
<!-- 26&#45;&gt;2 -->
<g id="edge3" class="edge">
<title>26&#45;&gt;2</title>
<path fill="none" stroke="black" stroke-dasharray="5,2" d="M1419.82,-385.31C1390.31,-373.67 1346.42,-356.36 1314.13,-343.62"/>
<polygon fill="black" stroke="black" points="1315.1,-340.24 1304.51,-339.82 1312.53,-346.75 1315.1,-340.24"/>
</g>
<!-- 26&#45;&gt;3 -->
<g id="edge4" class="edge">
<title>26&#45;&gt;3</title>
<path fill="none" stroke="black" stroke-dasharray="5,2" d="M1437.62,-381.53C1429.72,-372.48 1419.77,-361.09 1411.01,-351.06"/>
<polygon fill="black" stroke="black" points="1413.52,-348.61 1404.3,-343.38 1408.24,-353.21 1413.52,-348.61"/>
</g>
<!-- 26&#45;&gt;6 -->
<g id="edge7" class="edge">
<title>26&#45;&gt;6</title>
<path fill="none" stroke="black" stroke-dasharray="5,2" d="M1466.38,-381.53C1474.17,-372.61 1483.95,-361.41 1492.62,-351.49"/>
<polygon fill="black" stroke="black" points="1495.33,-353.71 1499.27,-343.87 1490.05,-349.1 1495.33,-353.71"/>
</g>
<!-- 26&#45;&gt;17 -->
<g id="edge12" class="edge">
<title>26&#45;&gt;17</title>
<path fill="none" stroke="black" stroke-dasharray="1,5" d="M1484.65,-385.47C1515.33,-373.69 1561.41,-356.01 1594.86,-343.17"/>
<polygon fill="black" stroke="black" points="1596.29,-346.37 1604.37,-339.52 1593.78,-339.84 1596.29,-346.37"/>
</g>
<!-- 26&#45;&gt;19 -->
<g id="edge14" class="edge">
<title>26&#45;&gt;19</title>
<path fill="none" stroke="black" stroke-dasharray="1,5" d="M1493.9,-389.51C1542.47,-379.48 1624.86,-361.88 1695,-344 1698.84,-343.02 1702.81,-341.97 1706.79,-340.88"/>
<polygon fill="black" stroke="black" points="1707.95,-344.19 1716.64,-338.14 1706.07,-337.45 1707.95,-344.19"/>
</g>
<!-- 39 -->
<g id="node29" class="node">
<title>39</title>
<ellipse fill="none" stroke="black" cx="1869" cy="-326" rx="46.59" ry="18"/>
<text text-anchor="middle" x="1869" y="-322.3" font-family="Times,serif" font-size="14.00">Bodl (a)</text>
</g>
<!-- 26&#45;&gt;39 -->
<g id="edge28" class="edge">
<title>26&#45;&gt;39</title>
<path fill="none" stroke="black" stroke-dasharray="5,2" d="M1498.27,-393.27C1567.34,-385.72 1701.26,-369.18 1813,-344 1816.85,-343.13 1820.82,-342.14 1824.78,-341.07"/>
<polygon fill="black" stroke="black" points="1825.88,-344.4 1834.56,-338.32 1823.98,-337.66 1825.88,-344.4"/>
</g>
<!-- 28&#45;&gt;4 -->
<g id="edge5" class="edge">
<title>28&#45;&gt;4</title>
<path fill="none" stroke="black" stroke-dasharray="1,5" d="M912,-88.81C912,-80.79 912,-71.05 912,-62.07"/>
<polygon fill="black" stroke="black" points="915.5,-62.03 912,-52.03 908.5,-62.03 915.5,-62.03"/>
</g>
<!-- 38&#45;&gt;11 -->
<g id="edge9" class="edge">
<title>38&#45;&gt;11</title>
<path fill="none" stroke="black" stroke-dasharray="1,5" d="M1030,-307.81C1030,-299.79 1030,-290.05 1030,-281.07"/>
<polygon fill="black" stroke="black" points="1033.5,-281.03 1030,-271.03 1026.5,-281.03 1033.5,-281.03"/>
</g>
<!-- 40 -->
<g id="node30" class="node">
<title>40</title>
<ellipse fill="none" stroke="black" cx="781" cy="-483" rx="53.89" ry="18"/>
<text text-anchor="middle" x="781" y="-479.3" font-family="Times,serif" font-size="14.00">aBase (a)</text>
</g>
<!-- 40&#45;&gt;5 -->
<g id="edge6" class="edge">
<title>40&#45;&gt;5</title>
<path fill="none" stroke="black" d="M735.73,-472.99C659.38,-457.79 505.32,-427.13 423.29,-410.8"/>
<polygon fill="black" stroke="black" points="423.9,-407.36 413.41,-408.84 422.53,-414.22 423.9,-407.36"/>
</g>
<!-- 40&#45;&gt;21 -->
<g id="edge16" class="edge">
<title>40&#45;&gt;21</title>
<path fill="none" stroke="black" stroke-dasharray="5,2" d="M753.29,-467.34C727.47,-453.68 688.87,-433.26 660.95,-418.49"/>
<polygon fill="black" stroke="black" points="662.4,-415.3 651.92,-413.71 659.13,-421.48 662.4,-415.3"/>
</g>
<!-- 40&#45;&gt;23 -->
<g id="edge18" class="edge">
<title>40&#45;&gt;23</title>
<path fill="none" stroke="black" d="M781,-464.61C781,-453.77 781,-439.6 781,-427.29"/>
<polygon fill="black" stroke="black" points="784.5,-427.08 781,-417.08 777.5,-427.08 784.5,-427.08"/>
</g>
<!-- 40&#45;&gt;24 -->
<g id="edge19" class="edge">
<title>40&#45;&gt;24</title>
<path fill="none" stroke="black" stroke-width="2" d="M805.33,-466.77C825.97,-453.85 855.79,-435.19 878.65,-420.87"/>
<polygon fill="black" stroke="black" stroke-width="2" points="880.73,-423.7 887.35,-415.43 877.02,-417.77 880.73,-423.7"/>
<text text-anchor="middle" x="857.5" y="-438" font-family="Times,serif" font-size="10.00">3</text>
</g>
<!-- 40&#45;&gt;26 -->
<g id="edge20" class="edge">
<title>40&#45;&gt;26</title>
<path fill="none" stroke="black" stroke-dasharray="5,2" d="M830.89,-475.9C953.31,-460.94 1267.94,-422.49 1396.26,-406.81"/>
<polygon fill="black" stroke="black" points="1396.76,-410.28 1406.27,-405.59 1395.91,-403.33 1396.76,-410.28"/>
</g>
</g>
</svg>
