<?xml version="1.0" encoding="UTF-8" standalone="no"?>
<!DOCTYPE svg PUBLIC "-//W3C//DTD SVG 1.1//EN"
 "http://www.w3.org/Graphics/SVG/1.1/DTD/svg11.dtd">
<!-- Generated by graphviz version 2.43.0 (0)
 -->
<!-- Title: textual_flow_diagram Pages: 1 -->
<svg width="1280pt" height="244pt"
 viewBox="0.00 0.00 1280.00 244.00" xmlns="http://www.w3.org/2000/svg" xmlns:xlink="http://www.w3.org/1999/xlink">
<g id="graph0" class="graph" transform="scale(1 1) rotate(0) translate(4 240)">
<title>textual_flow_diagram</title>
<polygon fill="white" stroke="transparent" points="-4,4 -4,-240 1276,-240 1276,4 -4,4"/>
<g id="clust1" class="cluster">
<title>cluster_legend</title>
<polygon fill="none" stroke="black" points="8,-174 8,-228 182,-228 182,-174 8,-174"/>
</g>
<g id="clust2" class="cluster">
<title>cluster_plot</title>
</g>
<!-- label -->
<g id="node1" class="node">
<title>label</title>
<text text-anchor="middle" x="95" y="-204.8" font-family="Times,serif" font-size="14.00">adstag1.2.40U84, a</text>
<text text-anchor="middle" x="95" y="-189.8" font-family="Times,serif" font-size="14.00">Con = 5</text>
</g>
<!-- 1 -->
<g id="node2" class="node">
<title>1</title>
<ellipse fill="none" stroke="black" cx="366" cy="-117" rx="50.09" ry="18"/>
<text text-anchor="middle" x="366" y="-113.3" font-family="Times,serif" font-size="14.00">Patm (a)</text>
</g>
<!-- 21 -->
<g id="node10" class="node">
<title>21</title>
<ellipse fill="none" stroke="black" cx="594" cy="-34" rx="44.39" ry="18"/>
<text text-anchor="middle" x="594" y="-30.3" font-family="Times,serif" font-size="14.00">P01 (a)</text>
</g>
<!-- 1&#45;&gt;21 -->
<g id="edge8" class="edge">
<title>1&#45;&gt;21</title>
<path fill="none" stroke="black" stroke-dasharray="1,5" d="M400.63,-103.7C441.28,-89.26 508.66,-65.32 552.19,-49.85"/>
<polygon fill="black" stroke="black" points="553.38,-53.14 561.63,-46.5 551.04,-46.55 553.38,-53.14"/>
<text text-anchor="middle" x="496.5" y="-73" font-family="Times,serif" font-size="10.00">2</text>
</g>
<!-- 2 -->
<g id="node3" class="node">
<title>2</title>
<ellipse fill="none" stroke="black" cx="484" cy="-117" rx="50.09" ry="18"/>
<text text-anchor="middle" x="484" y="-113.3" font-family="Times,serif" font-size="14.00">V560 (a)</text>
</g>
<!-- 12 -->
<g id="node7" class="node">
<title>12</title>
<ellipse fill="none" stroke="black" cx="712" cy="-34" rx="55.79" ry="18"/>
<text text-anchor="middle" x="712" y="-30.3" font-family="Times,serif" font-size="14.00">V1920 (a)</text>
</g>
<!-- 2&#45;&gt;12 -->
<g id="edge5" class="edge">
<title>2&#45;&gt;12</title>
<path fill="none" stroke="black" stroke-dasharray="5,2" d="M518.63,-103.7C558.12,-89.67 622.84,-66.67 666.41,-51.2"/>
<polygon fill="black" stroke="black" points="667.66,-54.47 675.91,-47.82 665.32,-47.87 667.66,-54.47"/>
</g>
<!-- 9 -->
<g id="node4" class="node">
<title>9</title>
<ellipse fill="none" stroke="black" cx="1099" cy="-34" rx="44.39" ry="18"/>
<text text-anchor="middle" x="1099" y="-30.3" font-family="Times,serif" font-size="14.00">B39 (a)</text>
</g>
<!-- 10 -->
<g id="node5" class="node">
<title>10</title>
<ellipse fill="none" stroke="black" cx="251" cy="-34" rx="52.79" ry="18"/>
<text text-anchor="middle" x="251" y="-30.3" font-family="Times,serif" font-size="14.00">M118 (a)</text>
</g>
<!-- 11 -->
<g id="node6" class="node">
<title>11</title>
<ellipse fill="none" stroke="black" cx="813" cy="-201" rx="53.89" ry="18"/>
<text text-anchor="middle" x="813" y="-197.3" font-family="Times,serif" font-size="14.00">aBase (a)</text>
</g>
<!-- 11&#45;&gt;1 -->
<g id="edge1" class="edge">
<title>11&#45;&gt;1</title>
<path fill="none" stroke="black" d="M763.65,-193.58C689.6,-183.53 545.55,-162.37 425,-135 420.91,-134.07 416.68,-133.03 412.45,-131.92"/>
<polygon fill="black" stroke="black" points="413.22,-128.5 402.65,-129.27 411.39,-135.26 413.22,-128.5"/>
<text text-anchor="middle" x="565.5" y="-156" font-family="Times,serif" font-size="10.00">2</text>
</g>
<!-- 11&#45;&gt;2 -->
<g id="edge2" class="edge">
<title>11&#45;&gt;2</title>
<path fill="none" stroke="black" stroke-width="2" d="M769.36,-190.12C715.85,-177.86 622.48,-156.01 543,-135 539.17,-133.99 535.2,-132.91 531.23,-131.81"/>
<polygon fill="black" stroke="black" stroke-width="2" points="531.96,-128.38 521.38,-129.04 530.06,-135.12 531.96,-128.38"/>
</g>
<!-- 20 -->
<g id="node9" class="node">
<title>20</title>
<ellipse fill="none" stroke="black" cx="617" cy="-117" rx="64.99" ry="18"/>
<text text-anchor="middle" x="617" y="-113.3" font-family="Times,serif" font-size="14.00">Savile&#45;Η (a)</text>
</g>
<!-- 11&#45;&gt;20 -->
<g id="edge7" class="edge">
<title>11&#45;&gt;20</title>
<path fill="none" stroke="black" stroke-width="2" d="M780.63,-186.46C747.9,-172.76 697.07,-151.5 660.76,-136.31"/>
<polygon fill="black" stroke="black" stroke-width="2" points="661.97,-133.02 651.39,-132.39 659.27,-139.48 661.97,-133.02"/>
</g>
<!-- 30 -->
<g id="node12" class="node">
<title>30</title>
<ellipse fill="none" stroke="black" cx="756" cy="-117" rx="55.79" ry="18"/>
<text text-anchor="middle" x="756" y="-113.3" font-family="Times,serif" font-size="14.00">V2250 (a)</text>
</g>
<!-- 11&#45;&gt;30 -->
<g id="edge10" class="edge">
<title>11&#45;&gt;30</title>
<path fill="none" stroke="black" stroke-width="2" d="M801.47,-183.41C793.48,-171.92 782.71,-156.42 773.65,-143.4"/>
<polygon fill="black" stroke="black" stroke-width="2" points="776.29,-141.06 767.71,-134.85 770.55,-145.06 776.29,-141.06"/>
<text text-anchor="middle" x="790.5" y="-156" font-family="Times,serif" font-size="10.00">3</text>
</g>
<!-- 32 -->
<g id="node13" class="node">
<title>32</title>
<ellipse fill="none" stroke="black" cx="870" cy="-117" rx="40.09" ry="18"/>
<text text-anchor="middle" x="870" y="-113.3" font-family="Times,serif" font-size="14.00">Pal (a)</text>
</g>
<!-- 11&#45;&gt;32 -->
<g id="edge11" class="edge">
<title>11&#45;&gt;32</title>
<path fill="none" stroke="black" d="M824.53,-183.41C832.7,-171.66 843.79,-155.71 852.97,-142.5"/>
<polygon fill="black" stroke="black" points="855.84,-144.5 858.68,-134.29 850.1,-140.5 855.84,-144.5"/>
<text text-anchor="middle" x="847.5" y="-156" font-family="Times,serif" font-size="10.00">2</text>
</g>
<!-- 38 -->
<g id="node15" class="node">
<title>38</title>
<ellipse fill="none" stroke="black" cx="978" cy="-117" rx="50.09" ry="18"/>
<text text-anchor="middle" x="978" y="-113.3" font-family="Times,serif" font-size="14.00">A116 (a)</text>
</g>
<!-- 11&#45;&gt;38 -->
<g id="edge13" class="edge">
<title>11&#45;&gt;38</title>
<path fill="none" stroke="black" d="M841.74,-185.72C869.15,-172.09 910.59,-151.5 940.57,-136.6"/>
<polygon fill="black" stroke="black" points="942.47,-139.57 949.86,-131.98 939.35,-133.3 942.47,-139.57"/>
<text text-anchor="middle" x="908.5" y="-156" font-family="Times,serif" font-size="10.00">5</text>
</g>
<!-- 39 -->
<g id="node16" class="node">
<title>39</title>
<ellipse fill="none" stroke="black" cx="1099" cy="-117" rx="52.79" ry="18"/>
<text text-anchor="middle" x="1099" y="-113.3" font-family="Times,serif" font-size="14.00">LaSM (a)</text>
</g>
<!-- 11&#45;&gt;39 -->
<g id="edge14" class="edge">
<title>11&#45;&gt;39</title>
<path fill="none" stroke="black" d="M852.47,-188.68C904.07,-173.89 994.46,-147.97 1050.27,-131.97"/>
<polygon fill="black" stroke="black" points="1051.29,-135.32 1059.94,-129.2 1049.36,-128.59 1051.29,-135.32"/>
</g>
<!-- 42 -->
<g id="node17" class="node">
<title>42</title>
<ellipse fill="none" stroke="black" cx="1213" cy="-117" rx="42.79" ry="18"/>
<text text-anchor="middle" x="1213" y="-113.3" font-family="Times,serif" font-size="14.00">Bas (a)</text>
</g>
<!-- 11&#45;&gt;42 -->
<g id="edge15" class="edge">
<title>11&#45;&gt;42</title>
<path fill="none" stroke="black" stroke-width="2" d="M861.57,-192.99C929.24,-182.76 1055.45,-161.99 1161,-135 1164.37,-134.14 1167.84,-133.18 1171.31,-132.16"/>
<polygon fill="black" stroke="black" stroke-width="2" points="1172.48,-135.46 1181.02,-129.19 1170.43,-128.77 1172.48,-135.46"/>
<text text-anchor="middle" x="1078.5" y="-156" font-family="Times,serif" font-size="10.00">3</text>
</g>
<!-- 13 -->
<g id="node8" class="node">
<title>13</title>
<ellipse fill="none" stroke="black" cx="368" cy="-34" rx="46.29" ry="18"/>
<text text-anchor="middle" x="368" y="-30.3" font-family="Times,serif" font-size="14.00">Mon (a)</text>
</g>
<!-- 29 -->
<g id="node11" class="node">
<title>29</title>
<ellipse fill="none" stroke="black" cx="482" cy="-34" rx="50.09" ry="18"/>
<text text-anchor="middle" x="482" y="-30.3" font-family="Times,serif" font-size="14.00">V569 (a)</text>
</g>
<!-- 33 -->
<g id="node14" class="node">
<title>33</title>
<ellipse fill="none" stroke="black" cx="248" cy="-117" rx="50.09" ry="18"/>
<text text-anchor="middle" x="248" y="-113.3" font-family="Times,serif" font-size="14.00">V568 (a)</text>
</g>
<!-- 33&#45;&gt;10 -->
<g id="edge4" class="edge">
<title>33&#45;&gt;10</title>
<path fill="none" stroke="black" stroke-dasharray="5,2" d="M248.64,-98.82C249.03,-88.19 249.54,-74.31 249.99,-62.2"/>
<polygon fill="black" stroke="black" points="253.49,-62.28 250.36,-52.15 246.5,-62.02 253.49,-62.28"/>
<text text-anchor="middle" x="252.5" y="-73" font-family="Times,serif" font-size="10.00">2</text>
</g>
<!-- 33&#45;&gt;13 -->
<g id="edge6" class="edge">
<title>33&#45;&gt;13</title>
<path fill="none" stroke="black" stroke-dasharray="1,5" d="M270.57,-100.76C289.46,-88.01 316.6,-69.7 337.43,-55.63"/>
<polygon fill="black" stroke="black" points="339.61,-58.39 345.94,-49.89 335.69,-52.59 339.61,-58.39"/>
<text text-anchor="middle" x="318.5" y="-73" font-family="Times,serif" font-size="10.00">3</text>
</g>
<!-- 33&#45;&gt;29 -->
<g id="edge9" class="edge">
<title>33&#45;&gt;29</title>
<path fill="none" stroke="black" stroke-dasharray="5,2" d="M282.78,-103.96C323.94,-89.71 392.54,-65.97 437.53,-50.39"/>
<polygon fill="black" stroke="black" points="438.72,-53.68 447.03,-47.11 436.43,-47.07 438.72,-53.68"/>
<text text-anchor="middle" x="382.5" y="-73" font-family="Times,serif" font-size="10.00">2</text>
</g>
<!-- 39&#45;&gt;9 -->
<g id="edge3" class="edge">
<title>39&#45;&gt;9</title>
<path fill="none" stroke="black" stroke-dasharray="5,2" d="M1099,-98.82C1099,-88.19 1099,-74.31 1099,-62.2"/>
<polygon fill="black" stroke="black" points="1102.5,-62.15 1099,-52.15 1095.5,-62.15 1102.5,-62.15"/>
</g>
<!-- 23 -->
<g id="node18" class="node">
<title>23</title>
<ellipse fill="none" stroke="blue" stroke-dasharray="5,2" cx="254" cy="-201" rx="55.79" ry="18"/>
<text text-anchor="middle" x="254" y="-197.3" font-family="Times,serif" font-size="14.00">V1629 (b)</text>
</g>
<!-- 23&#45;&gt;33 -->
<g id="edge12" class="edge">
<title>23&#45;&gt;33</title>
<path fill="none" stroke="blue" stroke-dasharray="5,2" d="M252.73,-182.61C251.93,-171.77 250.9,-157.6 250,-145.29"/>
<polygon fill="blue" stroke="blue" points="253.47,-144.8 249.25,-135.08 246.49,-145.31 253.47,-144.8"/>
</g>
</g>
</svg>
