<?xml version="1.0" encoding="UTF-8" standalone="no"?>
<!DOCTYPE svg PUBLIC "-//W3C//DTD SVG 1.1//EN"
 "http://www.w3.org/Graphics/SVG/1.1/DTD/svg11.dtd">
<!-- Generated by graphviz version 2.43.0 (0)
 -->
<!-- Title: textual_flow_diagram Pages: 1 -->
<svg width="453pt" height="150pt"
 viewBox="0.00 0.00 453.00 150.00" xmlns="http://www.w3.org/2000/svg" xmlns:xlink="http://www.w3.org/1999/xlink">
<g id="graph0" class="graph" transform="scale(1 1) rotate(0) translate(4 146)">
<title>textual_flow_diagram</title>
<polygon fill="white" stroke="transparent" points="-4,4 -4,-146 449,-146 449,4 -4,4"/>
<g id="clust1" class="cluster">
<title>cluster_legend</title>
<polygon fill="none" stroke="black" points="8,-80 8,-134 186,-134 186,-80 8,-80"/>
</g>
<g id="clust2" class="cluster">
<title>cluster_plot</title>
</g>
<!-- label -->
<g id="node1" class="node">
<title>label</title>
<text text-anchor="middle" x="97" y="-110.8" font-family="Times,serif" font-size="14.00">adstag1.3.8U2&#45;18, c</text>
<text text-anchor="middle" x="97" y="-95.8" font-family="Times,serif" font-size="14.00">Con = 5</text>
</g>
<!-- 12 -->
<g id="node2" class="node">
<title>12</title>
<ellipse fill="none" stroke="black" cx="374" cy="-34" rx="55.49" ry="18"/>
<text text-anchor="middle" x="374" y="-30.3" font-family="Times,serif" font-size="14.00">V1639 (c)</text>
</g>
<!-- 19 -->
<g id="node3" class="node">
<title>19</title>
<ellipse fill="none" stroke="black" cx="251" cy="-34" rx="49.29" ry="18"/>
<text text-anchor="middle" x="251" y="-30.3" font-family="Times,serif" font-size="14.00">V571 (c)</text>
</g>
<!-- 8 -->
<g id="node4" class="node">
<title>8</title>
<ellipse fill="none" stroke="blue" stroke-dasharray="5,2" cx="374" cy="-107" rx="50.09" ry="18"/>
<text text-anchor="middle" x="374" y="-103.3" font-family="Times,serif" font-size="14.00">V566 (a)</text>
</g>
<!-- 8&#45;&gt;12 -->
<g id="edge1" class="edge">
<title>8&#45;&gt;12</title>
<path fill="none" stroke="blue" stroke-dasharray="1,5" d="M374,-88.81C374,-80.79 374,-71.05 374,-62.07"/>
<polygon fill="blue" stroke="blue" points="377.5,-62.03 374,-52.03 370.5,-62.03 377.5,-62.03"/>
</g>
<!-- 26 -->
<g id="node5" class="node">
<title>26</title>
<ellipse fill="none" stroke="blue" stroke-dasharray="5,2" cx="251" cy="-107" rx="48.99" ry="18"/>
<text text-anchor="middle" x="251" y="-103.3" font-family="Times,serif" font-size="14.00">La22 (a)</text>
</g>
<!-- 26&#45;&gt;19 -->
<g id="edge2" class="edge">
<title>26&#45;&gt;19</title>
<path fill="none" stroke="blue" stroke-dasharray="1,5" d="M251,-88.81C251,-80.79 251,-71.05 251,-62.07"/>
<polygon fill="blue" stroke="blue" points="254.5,-62.03 251,-52.03 247.5,-62.03 254.5,-62.03"/>
</g>
</g>
</svg>
