<?xml version="1.0" encoding="UTF-8" standalone="no"?>
<!DOCTYPE svg PUBLIC "-//W3C//DTD SVG 1.1//EN"
 "http://www.w3.org/Graphics/SVG/1.1/DTD/svg11.dtd">
<!-- Generated by graphviz version 2.43.0 (0)
 -->
<!-- Title: textual_flow_diagram Pages: 1 -->
<svg width="552pt" height="234pt"
 viewBox="0.00 0.00 552.00 234.00" xmlns="http://www.w3.org/2000/svg" xmlns:xlink="http://www.w3.org/1999/xlink">
<g id="graph0" class="graph" transform="scale(1 1) rotate(0) translate(4 230)">
<title>textual_flow_diagram</title>
<polygon fill="white" stroke="transparent" points="-4,4 -4,-230 548,-230 548,4 -4,4"/>
<g id="clust1" class="cluster">
<title>cluster_legend</title>
<polygon fill="none" stroke="black" points="8,-164 8,-218 204,-218 204,-164 8,-164"/>
</g>
<g id="clust2" class="cluster">
<title>cluster_plot</title>
</g>
<!-- label -->
<g id="node1" class="node">
<title>label</title>
<text text-anchor="middle" x="106" y="-194.8" font-family="Times,serif" font-size="14.00">adstag1.3.71U58&#45;62, a</text>
<text text-anchor="middle" x="106" y="-179.8" font-family="Times,serif" font-size="14.00">Con = 5</text>
</g>
<!-- 15 -->
<g id="node2" class="node">
<title>15</title>
<ellipse fill="none" stroke="black" cx="270" cy="-107" rx="50.09" ry="18"/>
<text text-anchor="middle" x="270" y="-103.3" font-family="Times,serif" font-size="14.00">V560 (a)</text>
</g>
<!-- 18 -->
<g id="node3" class="node">
<title>18</title>
<ellipse fill="none" stroke="black" cx="276" cy="-34" rx="55.79" ry="18"/>
<text text-anchor="middle" x="276" y="-30.3" font-family="Times,serif" font-size="14.00">V1920 (a)</text>
</g>
<!-- 15&#45;&gt;18 -->
<g id="edge2" class="edge">
<title>15&#45;&gt;18</title>
<path fill="none" stroke="black" stroke-dasharray="5,2" d="M271.45,-88.81C272.13,-80.79 272.95,-71.05 273.71,-62.07"/>
<polygon fill="black" stroke="black" points="277.21,-62.29 274.56,-52.03 270.23,-61.7 277.21,-62.29"/>
</g>
<!-- 20 -->
<g id="node4" class="node">
<title>20</title>
<ellipse fill="none" stroke="black" cx="381" cy="-191" rx="53.89" ry="18"/>
<text text-anchor="middle" x="381" y="-187.3" font-family="Times,serif" font-size="14.00">aBase (a)</text>
</g>
<!-- 20&#45;&gt;15 -->
<g id="edge1" class="edge">
<title>20&#45;&gt;15</title>
<path fill="none" stroke="black" stroke-width="2" d="M359.86,-174.38C342.66,-161.67 318.19,-143.6 299.13,-129.52"/>
<polygon fill="black" stroke="black" stroke-width="2" points="301.18,-126.69 291.06,-123.56 297.02,-132.32 301.18,-126.69"/>
</g>
<!-- 29 -->
<g id="node5" class="node">
<title>29</title>
<ellipse fill="none" stroke="black" cx="381" cy="-107" rx="42.79" ry="18"/>
<text text-anchor="middle" x="381" y="-103.3" font-family="Times,serif" font-size="14.00">La2 (a)</text>
</g>
<!-- 20&#45;&gt;29 -->
<g id="edge3" class="edge">
<title>20&#45;&gt;29</title>
<path fill="none" stroke="black" stroke-width="2" d="M381,-172.61C381,-161.77 381,-147.6 381,-135.29"/>
<polygon fill="black" stroke="black" stroke-width="2" points="384.5,-135.08 381,-125.08 377.5,-135.08 384.5,-135.08"/>
</g>
<!-- 40 -->
<g id="node6" class="node">
<title>40</title>
<ellipse fill="none" stroke="black" cx="485" cy="-107" rx="42.79" ry="18"/>
<text text-anchor="middle" x="485" y="-103.3" font-family="Times,serif" font-size="14.00">Bas (a)</text>
</g>
<!-- 20&#45;&gt;40 -->
<g id="edge4" class="edge">
<title>20&#45;&gt;40</title>
<path fill="none" stroke="black" stroke-width="2" d="M401.05,-174.19C417.08,-161.55 439.72,-143.7 457.45,-129.72"/>
<polygon fill="black" stroke="black" stroke-width="2" points="460.03,-132.15 465.71,-123.21 455.69,-126.65 460.03,-132.15"/>
<text text-anchor="middle" x="442.5" y="-146" font-family="Times,serif" font-size="10.00">3</text>
</g>
</g>
</svg>
