<?xml version="1.0" encoding="UTF-8" standalone="no"?>
<!DOCTYPE svg PUBLIC "-//W3C//DTD SVG 1.1//EN"
 "http://www.w3.org/Graphics/SVG/1.1/DTD/svg11.dtd">
<!-- Generated by graphviz version 2.43.0 (0)
 -->
<!-- Title: textual_flow_diagram Pages: 1 -->
<svg width="777pt" height="619pt"
 viewBox="0.00 0.00 777.00 619.00" xmlns="http://www.w3.org/2000/svg" xmlns:xlink="http://www.w3.org/1999/xlink">
<g id="graph0" class="graph" transform="scale(1 1) rotate(0) translate(4 615)">
<title>textual_flow_diagram</title>
<polygon fill="white" stroke="transparent" points="-4,4 -4,-615 773,-615 773,4 -4,4"/>
<g id="clust1" class="cluster">
<title>cluster_legend</title>
<polygon fill="none" stroke="black" points="8,-549 8,-603 172,-603 172,-549 8,-549"/>
</g>
<g id="clust2" class="cluster">
<title>cluster_plot</title>
</g>
<!-- label -->
<g id="node1" class="node">
<title>label</title>
<text text-anchor="middle" x="90" y="-579.8" font-family="Times,serif" font-size="14.00">adstag1.1.7U33, b</text>
<text text-anchor="middle" x="90" y="-564.8" font-family="Times,serif" font-size="14.00">Con = 3</text>
</g>
<!-- 0 -->
<g id="node2" class="node">
<title>0</title>
<ellipse fill="none" stroke="black" cx="450" cy="-263" rx="50.09" ry="18"/>
<text text-anchor="middle" x="450" y="-259.3" font-family="Times,serif" font-size="14.00">V568 (b)</text>
</g>
<!-- 16 -->
<g id="node6" class="node">
<title>16</title>
<ellipse fill="none" stroke="black" cx="403" cy="-180" rx="41.69" ry="18"/>
<text text-anchor="middle" x="403" y="-176.3" font-family="Times,serif" font-size="14.00">Sin (b)</text>
</g>
<!-- 0&#45;&gt;16 -->
<g id="edge5" class="edge">
<title>0&#45;&gt;16</title>
<path fill="none" stroke="black" stroke-dasharray="1,5" d="M440.26,-245.22C433.77,-234.03 425.12,-219.12 417.78,-206.48"/>
<polygon fill="black" stroke="black" points="420.77,-204.65 412.73,-197.76 414.72,-208.17 420.77,-204.65"/>
<text text-anchor="middle" x="432.5" y="-219" font-family="Times,serif" font-size="10.00">2</text>
</g>
<!-- 44 -->
<g id="node14" class="node">
<title>44</title>
<ellipse fill="none" stroke="black" cx="516" cy="-180" rx="53.09" ry="18"/>
<text text-anchor="middle" x="516" y="-176.3" font-family="Times,serif" font-size="14.00">M118 (b)</text>
</g>
<!-- 0&#45;&gt;44 -->
<g id="edge13" class="edge">
<title>0&#45;&gt;44</title>
<path fill="none" stroke="black" stroke-dasharray="5,2" d="M463.36,-245.61C472.69,-234.16 485.31,-218.66 495.86,-205.72"/>
<polygon fill="black" stroke="black" points="498.83,-207.61 502.44,-197.65 493.41,-203.19 498.83,-207.61"/>
<text text-anchor="middle" x="489.5" y="-219" font-family="Times,serif" font-size="10.00">2</text>
</g>
<!-- 8 -->
<g id="node3" class="node">
<title>8</title>
<ellipse fill="none" stroke="black" cx="697" cy="-502" rx="55.79" ry="18"/>
<text text-anchor="middle" x="697" y="-498.3" font-family="Times,serif" font-size="14.00">V2250 (b)</text>
</g>
<!-- 10 -->
<g id="node4" class="node">
<title>10</title>
<ellipse fill="none" stroke="black" cx="450" cy="-336" rx="50.09" ry="18"/>
<text text-anchor="middle" x="450" y="-332.3" font-family="Times,serif" font-size="14.00">V536 (b)</text>
</g>
<!-- 10&#45;&gt;0 -->
<g id="edge1" class="edge">
<title>10&#45;&gt;0</title>
<path fill="none" stroke="black" stroke-dasharray="1,5" d="M450,-317.81C450,-309.79 450,-300.05 450,-291.07"/>
<polygon fill="black" stroke="black" points="453.5,-291.03 450,-281.03 446.5,-291.03 453.5,-291.03"/>
</g>
<!-- 11 -->
<g id="node5" class="node">
<title>11</title>
<ellipse fill="none" stroke="black" cx="337" cy="-502" rx="43.59" ry="18"/>
<text text-anchor="middle" x="337" y="-498.3" font-family="Times,serif" font-size="14.00">La2 (b)</text>
</g>
<!-- 31 -->
<g id="node12" class="node">
<title>31</title>
<ellipse fill="none" stroke="black" cx="403" cy="-107" rx="50.09" ry="18"/>
<text text-anchor="middle" x="403" y="-103.3" font-family="Times,serif" font-size="14.00">Marc (b)</text>
</g>
<!-- 16&#45;&gt;31 -->
<g id="edge11" class="edge">
<title>16&#45;&gt;31</title>
<path fill="none" stroke="black" stroke-dasharray="1,5" d="M403,-161.81C403,-153.79 403,-144.05 403,-135.07"/>
<polygon fill="black" stroke="black" points="406.5,-135.03 403,-125.03 399.5,-135.03 406.5,-135.03"/>
</g>
<!-- 17 -->
<g id="node7" class="node">
<title>17</title>
<ellipse fill="none" stroke="black" cx="452" cy="-502" rx="53.09" ry="18"/>
<text text-anchor="middle" x="452" y="-498.3" font-family="Times,serif" font-size="14.00">M136 (b)</text>
</g>
<!-- 22 -->
<g id="node10" class="node">
<title>22</title>
<ellipse fill="none" stroke="black" cx="450" cy="-419" rx="50.89" ry="18"/>
<text text-anchor="middle" x="450" y="-415.3" font-family="Times,serif" font-size="14.00">Neap (b)</text>
</g>
<!-- 17&#45;&gt;22 -->
<g id="edge9" class="edge">
<title>17&#45;&gt;22</title>
<path fill="none" stroke="black" stroke-dasharray="5,2" d="M451.58,-483.82C451.31,-473.19 450.97,-459.31 450.67,-447.2"/>
<polygon fill="black" stroke="black" points="454.17,-447.06 450.42,-437.15 447.17,-447.24 454.17,-447.06"/>
<text text-anchor="middle" x="454.5" y="-458" font-family="Times,serif" font-size="10.00">2</text>
</g>
<!-- 18 -->
<g id="node8" class="node">
<title>18</title>
<ellipse fill="none" stroke="black" cx="232" cy="-502" rx="43.59" ry="18"/>
<text text-anchor="middle" x="232" y="-498.3" font-family="Times,serif" font-size="14.00">Bas (b)</text>
</g>
<!-- 19 -->
<g id="node9" class="node">
<title>19</title>
<ellipse fill="none" stroke="black" cx="575" cy="-419" rx="55.79" ry="18"/>
<text text-anchor="middle" x="575" y="-415.3" font-family="Times,serif" font-size="14.00">V1920 (b)</text>
</g>
<!-- 22&#45;&gt;10 -->
<g id="edge3" class="edge">
<title>22&#45;&gt;10</title>
<path fill="none" stroke="black" stroke-dasharray="5,2" d="M450,-400.82C450,-390.19 450,-376.31 450,-364.2"/>
<polygon fill="black" stroke="black" points="453.5,-364.15 450,-354.15 446.5,-364.15 453.5,-364.15"/>
<text text-anchor="middle" x="453.5" y="-375" font-family="Times,serif" font-size="10.00">2</text>
</g>
<!-- 25 -->
<g id="node11" class="node">
<title>25</title>
<ellipse fill="none" stroke="black" cx="573" cy="-502" rx="50.09" ry="18"/>
<text text-anchor="middle" x="573" y="-498.3" font-family="Times,serif" font-size="14.00">V560 (b)</text>
</g>
<!-- 25&#45;&gt;19 -->
<g id="edge8" class="edge">
<title>25&#45;&gt;19</title>
<path fill="none" stroke="black" stroke-dasharray="5,2" d="M573.42,-483.82C573.69,-473.19 574.03,-459.31 574.33,-447.2"/>
<polygon fill="black" stroke="black" points="577.83,-447.24 574.58,-437.15 570.83,-447.06 577.83,-447.24"/>
</g>
<!-- 42 -->
<g id="node13" class="node">
<title>42</title>
<ellipse fill="none" stroke="black" cx="403" cy="-34" rx="46.59" ry="18"/>
<text text-anchor="middle" x="403" y="-30.3" font-family="Times,serif" font-size="14.00">Mon (b)</text>
</g>
<!-- 31&#45;&gt;42 -->
<g id="edge12" class="edge">
<title>31&#45;&gt;42</title>
<path fill="none" stroke="black" stroke-dasharray="1,5" d="M403,-88.81C403,-80.79 403,-71.05 403,-62.07"/>
<polygon fill="black" stroke="black" points="406.5,-62.03 403,-52.03 399.5,-62.03 406.5,-62.03"/>
</g>
<!-- 27 -->
<g id="node15" class="node">
<title>27</title>
<ellipse fill="none" stroke="blue" stroke-dasharray="5,2" cx="697" cy="-576" rx="44.69" ry="18"/>
<text text-anchor="middle" x="697" y="-572.3" font-family="Times,serif" font-size="14.00">Nan (a)</text>
</g>
<!-- 27&#45;&gt;8 -->
<g id="edge2" class="edge">
<title>27&#45;&gt;8</title>
<path fill="none" stroke="blue" stroke-dasharray="5,2" d="M697,-557.94C697,-549.81 697,-539.88 697,-530.7"/>
<polygon fill="blue" stroke="blue" points="700.5,-530.44 697,-520.44 693.5,-530.44 700.5,-530.44"/>
</g>
<!-- 32 -->
<g id="node16" class="node">
<title>32</title>
<ellipse fill="none" stroke="blue" stroke-dasharray="5,2" cx="452" cy="-576" rx="53.89" ry="18"/>
<text text-anchor="middle" x="452" y="-572.3" font-family="Times,serif" font-size="14.00">aBase (a)</text>
</g>
<!-- 32&#45;&gt;11 -->
<g id="edge4" class="edge">
<title>32&#45;&gt;11</title>
<path fill="none" stroke="blue" stroke-width="2" d="M427.61,-559.73C410.5,-549.02 387.45,-534.59 368.89,-522.96"/>
<polygon fill="blue" stroke="blue" stroke-width="2" points="370.51,-519.85 360.18,-517.51 366.8,-525.78 370.51,-519.85"/>
</g>
<!-- 32&#45;&gt;17 -->
<g id="edge6" class="edge">
<title>32&#45;&gt;17</title>
<path fill="none" stroke="blue" stroke-width="2" d="M452,-557.94C452,-549.81 452,-539.88 452,-530.7"/>
<polygon fill="blue" stroke="blue" stroke-width="2" points="455.5,-530.44 452,-520.44 448.5,-530.44 455.5,-530.44"/>
</g>
<!-- 32&#45;&gt;25 -->
<g id="edge10" class="edge">
<title>32&#45;&gt;25</title>
<path fill="none" stroke="blue" stroke-width="2" d="M477.37,-559.91C495.39,-549.18 519.79,-534.66 539.43,-522.97"/>
<polygon fill="blue" stroke="blue" stroke-width="2" points="541.28,-525.95 548.08,-517.83 537.7,-519.93 541.28,-525.95"/>
</g>
<!-- 35 -->
<g id="node17" class="node">
<title>35</title>
<ellipse fill="none" stroke="blue" stroke-dasharray="5,2" cx="244" cy="-576" rx="55.79" ry="18"/>
<text text-anchor="middle" x="244" y="-572.3" font-family="Times,serif" font-size="14.00">V1897 (a)</text>
</g>
<!-- 35&#45;&gt;18 -->
<g id="edge7" class="edge">
<title>35&#45;&gt;18</title>
<path fill="none" stroke="blue" d="M241.16,-557.94C239.79,-549.72 238.11,-539.66 236.57,-530.41"/>
<polygon fill="blue" stroke="blue" points="240,-529.73 234.91,-520.44 233.1,-530.88 240,-529.73"/>
</g>
</g>
</svg>
