<?xml version="1.0" encoding="UTF-8" standalone="no"?>
<!DOCTYPE svg PUBLIC "-//W3C//DTD SVG 1.1//EN"
 "http://www.w3.org/Graphics/SVG/1.1/DTD/svg11.dtd">
<!-- Generated by graphviz version 2.43.0 (0)
 -->
<!-- Title: textual_flow_diagram Pages: 1 -->
<svg width="538pt" height="483pt"
 viewBox="0.00 0.00 538.00 483.00" xmlns="http://www.w3.org/2000/svg" xmlns:xlink="http://www.w3.org/1999/xlink">
<g id="graph0" class="graph" transform="scale(1 1) rotate(0) translate(4 479)">
<title>textual_flow_diagram</title>
<polygon fill="white" stroke="transparent" points="-4,4 -4,-479 534,-479 534,4 -4,4"/>
<g id="clust1" class="cluster">
<title>cluster_legend</title>
<polygon fill="none" stroke="black" points="8,-413 8,-467 182,-467 182,-413 8,-413"/>
</g>
<g id="clust2" class="cluster">
<title>cluster_plot</title>
</g>
<!-- label -->
<g id="node1" class="node">
<title>label</title>
<text text-anchor="middle" x="95" y="-443.8" font-family="Times,serif" font-size="14.00">adstag1.2.22U31, b</text>
<text text-anchor="middle" x="95" y="-428.8" font-family="Times,serif" font-size="14.00">Con = 3</text>
</g>
<!-- 0 -->
<g id="node2" class="node">
<title>0</title>
<ellipse fill="none" stroke="black" cx="352" cy="-366" rx="44.39" ry="18"/>
<text text-anchor="middle" x="352" y="-362.3" font-family="Times,serif" font-size="14.00">A25 (b)</text>
</g>
<!-- 19 -->
<g id="node7" class="node">
<title>19</title>
<ellipse fill="none" stroke="black" cx="248" cy="-283" rx="50.09" ry="18"/>
<text text-anchor="middle" x="248" y="-279.3" font-family="Times,serif" font-size="14.00">V566 (b)</text>
</g>
<!-- 0&#45;&gt;19 -->
<g id="edge6" class="edge">
<title>0&#45;&gt;19</title>
<path fill="none" stroke="black" stroke-dasharray="5,2" d="M332.44,-349.76C316.66,-337.48 294.25,-320.02 276.48,-306.18"/>
<polygon fill="black" stroke="black" points="278.22,-303.1 268.18,-299.72 273.92,-308.63 278.22,-303.1"/>
</g>
<!-- 30 -->
<g id="node9" class="node">
<title>30</title>
<ellipse fill="none" stroke="black" cx="361" cy="-283" rx="44.69" ry="18"/>
<text text-anchor="middle" x="361" y="-279.3" font-family="Times,serif" font-size="14.00">B39 (b)</text>
</g>
<!-- 0&#45;&gt;30 -->
<g id="edge8" class="edge">
<title>0&#45;&gt;30</title>
<path fill="none" stroke="black" d="M353.91,-347.82C355.09,-337.19 356.63,-323.31 357.98,-311.2"/>
<polygon fill="black" stroke="black" points="361.47,-311.48 359.09,-301.15 354.51,-310.71 361.47,-311.48"/>
<text text-anchor="middle" x="360.5" y="-322" font-family="Times,serif" font-size="10.00">3</text>
</g>
<!-- 42 -->
<g id="node11" class="node">
<title>42</title>
<ellipse fill="none" stroke="black" cx="469" cy="-283" rx="45.49" ry="18"/>
<text text-anchor="middle" x="469" y="-279.3" font-family="Times,serif" font-size="14.00">Nan (b)</text>
</g>
<!-- 0&#45;&gt;42 -->
<g id="edge10" class="edge">
<title>0&#45;&gt;42</title>
<path fill="none" stroke="black" stroke-dasharray="5,2" d="M373.46,-350.14C391.82,-337.44 418.44,-319 438.92,-304.82"/>
<polygon fill="black" stroke="black" points="441.05,-307.61 447.28,-299.04 437.07,-301.85 441.05,-307.61"/>
<text text-anchor="middle" x="420.5" y="-322" font-family="Times,serif" font-size="10.00">2</text>
</g>
<!-- 3 -->
<g id="node3" class="node">
<title>3</title>
<ellipse fill="none" stroke="black" cx="461" cy="-34" rx="53.09" ry="18"/>
<text text-anchor="middle" x="461" y="-30.3" font-family="Times,serif" font-size="14.00">M118 (b)</text>
</g>
<!-- 10 -->
<g id="node4" class="node">
<title>10</title>
<ellipse fill="none" stroke="black" cx="338" cy="-117" rx="43.59" ry="18"/>
<text text-anchor="middle" x="338" y="-113.3" font-family="Times,serif" font-size="14.00">Bas (b)</text>
</g>
<!-- 17 -->
<g id="node5" class="node">
<title>17</title>
<ellipse fill="none" stroke="black" cx="338" cy="-200" rx="55.79" ry="18"/>
<text text-anchor="middle" x="338" y="-196.3" font-family="Times,serif" font-size="14.00">V1897 (b)</text>
</g>
<!-- 17&#45;&gt;10 -->
<g id="edge3" class="edge">
<title>17&#45;&gt;10</title>
<path fill="none" stroke="black" d="M338,-181.82C338,-171.19 338,-157.31 338,-145.2"/>
<polygon fill="black" stroke="black" points="341.5,-145.15 338,-135.15 334.5,-145.15 341.5,-145.15"/>
</g>
<!-- 18 -->
<g id="node6" class="node">
<title>18</title>
<ellipse fill="none" stroke="black" cx="462" cy="-117" rx="50.09" ry="18"/>
<text text-anchor="middle" x="462" y="-113.3" font-family="Times,serif" font-size="14.00">V568 (b)</text>
</g>
<!-- 18&#45;&gt;3 -->
<g id="edge2" class="edge">
<title>18&#45;&gt;3</title>
<path fill="none" stroke="black" stroke-dasharray="5,2" d="M461.79,-98.82C461.66,-88.19 461.49,-74.31 461.34,-62.2"/>
<polygon fill="black" stroke="black" points="464.84,-62.11 461.21,-52.15 457.84,-62.2 464.84,-62.11"/>
<text text-anchor="middle" x="464.5" y="-73" font-family="Times,serif" font-size="10.00">2</text>
</g>
<!-- 23 -->
<g id="node8" class="node">
<title>23</title>
<ellipse fill="none" stroke="black" cx="463" cy="-200" rx="50.89" ry="18"/>
<text text-anchor="middle" x="463" y="-196.3" font-family="Times,serif" font-size="14.00">Neap (b)</text>
</g>
<!-- 23&#45;&gt;18 -->
<g id="edge5" class="edge">
<title>23&#45;&gt;18</title>
<path fill="none" stroke="black" stroke-dasharray="5,2" d="M462.79,-181.82C462.66,-171.19 462.49,-157.31 462.34,-145.2"/>
<polygon fill="black" stroke="black" points="465.84,-145.11 462.21,-135.15 458.84,-145.2 465.84,-145.11"/>
<text text-anchor="middle" x="465.5" y="-156" font-family="Times,serif" font-size="10.00">3</text>
</g>
<!-- 33 -->
<g id="node10" class="node">
<title>33</title>
<ellipse fill="none" stroke="black" cx="464" cy="-366" rx="50.09" ry="18"/>
<text text-anchor="middle" x="464" y="-362.3" font-family="Times,serif" font-size="14.00">V560 (b)</text>
</g>
<!-- 42&#45;&gt;17 -->
<g id="edge4" class="edge">
<title>42&#45;&gt;17</title>
<path fill="none" stroke="black" stroke-dasharray="1,5" d="M445.58,-267.52C424.83,-254.69 394.3,-235.81 371.07,-221.44"/>
<polygon fill="black" stroke="black" points="372.9,-218.46 362.55,-216.18 369.22,-224.42 372.9,-218.46"/>
</g>
<!-- 42&#45;&gt;23 -->
<g id="edge7" class="edge">
<title>42&#45;&gt;23</title>
<path fill="none" stroke="black" d="M467.73,-264.82C466.94,-254.19 465.91,-240.31 465.02,-228.2"/>
<polygon fill="black" stroke="black" points="468.5,-227.87 464.27,-218.15 461.52,-228.38 468.5,-227.87"/>
<text text-anchor="middle" x="469.5" y="-239" font-family="Times,serif" font-size="10.00">2</text>
</g>
<!-- 11 -->
<g id="node12" class="node">
<title>11</title>
<ellipse fill="none" stroke="blue" stroke-dasharray="5,2" cx="406" cy="-440" rx="53.89" ry="18"/>
<text text-anchor="middle" x="406" y="-436.3" font-family="Times,serif" font-size="14.00">aBase (a)</text>
</g>
<!-- 11&#45;&gt;0 -->
<g id="edge1" class="edge">
<title>11&#45;&gt;0</title>
<path fill="none" stroke="blue" stroke-dasharray="5,2" d="M393.48,-422.3C386.66,-413.21 378.1,-401.8 370.52,-391.7"/>
<polygon fill="blue" stroke="blue" points="373.26,-389.51 364.46,-383.61 367.66,-393.71 373.26,-389.51"/>
</g>
<!-- 11&#45;&gt;33 -->
<g id="edge9" class="edge">
<title>11&#45;&gt;33</title>
<path fill="none" stroke="blue" stroke-width="2" d="M419.45,-422.3C426.85,-413.12 436.15,-401.57 444.35,-391.4"/>
<polygon fill="blue" stroke="blue" stroke-width="2" points="447.07,-393.59 450.62,-383.61 441.62,-389.2 447.07,-393.59"/>
</g>
</g>
</svg>
