<?xml version="1.0" encoding="UTF-8" standalone="no"?>
<!DOCTYPE svg PUBLIC "-//W3C//DTD SVG 1.1//EN"
 "http://www.w3.org/Graphics/SVG/1.1/DTD/svg11.dtd">
<!-- Generated by graphviz version 2.43.0 (0)
 -->
<!-- Title: textual_flow_diagram Pages: 1 -->
<svg width="1831pt" height="654pt"
 viewBox="0.00 0.00 1831.00 654.00" xmlns="http://www.w3.org/2000/svg" xmlns:xlink="http://www.w3.org/1999/xlink">
<g id="graph0" class="graph" transform="scale(1 1) rotate(0) translate(4 650)">
<title>textual_flow_diagram</title>
<polygon fill="white" stroke="transparent" points="-4,4 -4,-650 1827,-650 1827,4 -4,4"/>
<g id="clust1" class="cluster">
<title>cluster_legend</title>
<polygon fill="none" stroke="black" points="8,-584 8,-638 204,-638 204,-584 8,-584"/>
</g>
<g id="clust2" class="cluster">
<title>cluster_plot</title>
</g>
<!-- label -->
<g id="node1" class="node">
<title>label</title>
<text text-anchor="middle" x="106" y="-614.8" font-family="Times,serif" font-size="14.00">adstag1.3.66U18&#45;28, a</text>
<text text-anchor="middle" x="106" y="-599.8" font-family="Times,serif" font-size="14.00">Con = 5</text>
</g>
<!-- 0 -->
<g id="node2" class="node">
<title>0</title>
<ellipse fill="none" stroke="black" cx="438" cy="-538" rx="50.09" ry="18"/>
<text text-anchor="middle" x="438" y="-534.3" font-family="Times,serif" font-size="14.00">Neap (a)</text>
</g>
<!-- 19 -->
<g id="node18" class="node">
<title>19</title>
<ellipse fill="none" stroke="black" cx="276" cy="-466" rx="55.79" ry="18"/>
<text text-anchor="middle" x="276" y="-462.3" font-family="Times,serif" font-size="14.00">V1629 (a)</text>
</g>
<!-- 0&#45;&gt;19 -->
<g id="edge17" class="edge">
<title>0&#45;&gt;19</title>
<path fill="none" stroke="black" stroke-dasharray="1,5" d="M407.15,-523.67C381.77,-512.7 345.57,-497.06 317.63,-484.99"/>
<polygon fill="black" stroke="black" points="318.69,-481.63 308.12,-480.88 315.91,-488.06 318.69,-481.63"/>
</g>
<!-- 1 -->
<g id="node3" class="node">
<title>1</title>
<ellipse fill="none" stroke="black" cx="729" cy="-538" rx="50.09" ry="18"/>
<text text-anchor="middle" x="729" y="-534.3" font-family="Times,serif" font-size="14.00">Patm (a)</text>
</g>
<!-- 2 -->
<g id="node4" class="node">
<title>2</title>
<ellipse fill="none" stroke="black" cx="276" cy="-322" rx="50.09" ry="18"/>
<text text-anchor="middle" x="276" y="-318.3" font-family="Times,serif" font-size="14.00">V568 (a)</text>
</g>
<!-- 21 -->
<g id="node20" class="node">
<title>21</title>
<ellipse fill="none" stroke="black" cx="276" cy="-250" rx="46.59" ry="18"/>
<text text-anchor="middle" x="276" y="-246.3" font-family="Times,serif" font-size="14.00">Taur (a)</text>
</g>
<!-- 2&#45;&gt;21 -->
<g id="edge18" class="edge">
<title>2&#45;&gt;21</title>
<path fill="none" stroke="black" stroke-dasharray="1,5" d="M276,-303.7C276,-295.98 276,-286.71 276,-278.11"/>
<polygon fill="black" stroke="black" points="279.5,-278.1 276,-268.1 272.5,-278.1 279.5,-278.1"/>
</g>
<!-- 3 -->
<g id="node5" class="node">
<title>3</title>
<ellipse fill="none" stroke="black" cx="394" cy="-466" rx="44.39" ry="18"/>
<text text-anchor="middle" x="394" y="-462.3" font-family="Times,serif" font-size="14.00">P74 (a)</text>
</g>
<!-- 4 -->
<g id="node6" class="node">
<title>4</title>
<ellipse fill="none" stroke="black" cx="273" cy="-106" rx="46.29" ry="18"/>
<text text-anchor="middle" x="273" y="-102.3" font-family="Times,serif" font-size="14.00">Mon (a)</text>
</g>
<!-- 23 -->
<g id="node22" class="node">
<title>23</title>
<ellipse fill="none" stroke="black" cx="273" cy="-34" rx="40.89" ry="18"/>
<text text-anchor="middle" x="273" y="-30.3" font-family="Times,serif" font-size="14.00">Sin (a)</text>
</g>
<!-- 4&#45;&gt;23 -->
<g id="edge20" class="edge">
<title>4&#45;&gt;23</title>
<path fill="none" stroke="black" stroke-dasharray="1,5" d="M273,-87.7C273,-79.98 273,-70.71 273,-62.11"/>
<polygon fill="black" stroke="black" points="276.5,-62.1 273,-52.1 269.5,-62.1 276.5,-62.1"/>
</g>
<!-- 5 -->
<g id="node7" class="node">
<title>5</title>
<ellipse fill="none" stroke="black" cx="846" cy="-538" rx="48.99" ry="18"/>
<text text-anchor="middle" x="846" y="-534.3" font-family="Times,serif" font-size="14.00">La22 (a)</text>
</g>
<!-- 5&#45;&gt;3 -->
<g id="edge4" class="edge">
<title>5&#45;&gt;3</title>
<path fill="none" stroke="black" stroke-dasharray="1,5" d="M810.67,-525.55C803.24,-523.45 795.41,-521.47 788,-520 638.49,-490.45 596.12,-515.44 447,-484 443.38,-483.24 439.66,-482.32 435.95,-481.32"/>
<polygon fill="black" stroke="black" points="436.81,-477.92 426.23,-478.5 434.86,-484.65 436.81,-477.92"/>
</g>
<!-- 6 -->
<g id="node8" class="node">
<title>6</title>
<ellipse fill="none" stroke="black" cx="506" cy="-466" rx="50.09" ry="18"/>
<text text-anchor="middle" x="506" y="-462.3" font-family="Times,serif" font-size="14.00">V565 (a)</text>
</g>
<!-- 5&#45;&gt;6 -->
<g id="edge7" class="edge">
<title>5&#45;&gt;6</title>
<path fill="none" stroke="black" stroke-dasharray="5,2" d="M809.98,-525.69C802.75,-523.63 795.16,-521.62 788,-520 690.08,-497.84 662.97,-505.94 565,-484 560.9,-483.08 556.67,-482.05 552.44,-480.95"/>
<polygon fill="black" stroke="black" points="553.21,-477.53 542.65,-478.3 551.39,-484.29 553.21,-477.53"/>
</g>
<!-- 9 -->
<g id="node10" class="node">
<title>9</title>
<ellipse fill="none" stroke="black" cx="623" cy="-466" rx="48.99" ry="18"/>
<text text-anchor="middle" x="623" y="-462.3" font-family="Times,serif" font-size="14.00">La35 (a)</text>
</g>
<!-- 5&#45;&gt;9 -->
<g id="edge9" class="edge">
<title>5&#45;&gt;9</title>
<path fill="none" stroke="black" stroke-dasharray="1,5" d="M810.17,-525.75C771.76,-513.7 710.66,-494.52 668.79,-481.37"/>
<polygon fill="black" stroke="black" points="669.7,-477.99 659.11,-478.33 667.6,-484.67 669.7,-477.99"/>
</g>
<!-- 14 -->
<g id="node15" class="node">
<title>14</title>
<ellipse fill="none" stroke="black" cx="740" cy="-466" rx="50.09" ry="18"/>
<text text-anchor="middle" x="740" y="-462.3" font-family="Times,serif" font-size="14.00">V571 (a)</text>
</g>
<!-- 5&#45;&gt;14 -->
<g id="edge14" class="edge">
<title>5&#45;&gt;14</title>
<path fill="none" stroke="black" stroke-dasharray="1,5" d="M823.26,-521.98C808.13,-511.99 788.06,-498.74 771.42,-487.75"/>
<polygon fill="black" stroke="black" points="773.34,-484.82 763.07,-482.23 769.48,-490.66 773.34,-484.82"/>
</g>
<!-- 24 -->
<g id="node23" class="node">
<title>24</title>
<ellipse fill="none" stroke="black" cx="858" cy="-466" rx="50.09" ry="18"/>
<text text-anchor="middle" x="858" y="-462.3" font-family="Times,serif" font-size="14.00">A116 (a)</text>
</g>
<!-- 5&#45;&gt;24 -->
<g id="edge21" class="edge">
<title>5&#45;&gt;24</title>
<path fill="none" stroke="black" stroke-dasharray="5,2" d="M848.97,-519.7C850.29,-511.98 851.88,-502.71 853.35,-494.11"/>
<polygon fill="black" stroke="black" points="856.83,-494.55 855.07,-484.1 849.93,-493.37 856.83,-494.55"/>
</g>
<!-- 32 -->
<g id="node28" class="node">
<title>32</title>
<ellipse fill="none" stroke="black" cx="973" cy="-466" rx="46.59" ry="18"/>
<text text-anchor="middle" x="973" y="-462.3" font-family="Times,serif" font-size="14.00">Bodl (a)</text>
</g>
<!-- 5&#45;&gt;32 -->
<g id="edge26" class="edge">
<title>5&#45;&gt;32</title>
<path fill="none" stroke="black" stroke-dasharray="5,2" d="M872.01,-522.67C891.1,-512.14 917.23,-497.74 938.13,-486.22"/>
<polygon fill="black" stroke="black" points="939.96,-489.21 947.03,-481.32 936.58,-483.08 939.96,-489.21"/>
</g>
<!-- 37 -->
<g id="node32" class="node">
<title>37</title>
<ellipse fill="none" stroke="black" cx="1090" cy="-466" rx="52.79" ry="18"/>
<text text-anchor="middle" x="1090" y="-462.3" font-family="Times,serif" font-size="14.00">M111 (a)</text>
</g>
<!-- 5&#45;&gt;37 -->
<g id="edge30" class="edge">
<title>5&#45;&gt;37</title>
<path fill="none" stroke="black" stroke-dasharray="1,5" d="M882.47,-526.04C889.29,-524.02 896.36,-521.93 903,-520 949.7,-506.42 1003.08,-491.33 1040.83,-480.74"/>
<polygon fill="black" stroke="black" points="1041.87,-484.08 1050.56,-478.01 1039.98,-477.34 1041.87,-484.08"/>
</g>
<!-- 8 -->
<g id="node9" class="node">
<title>8</title>
<ellipse fill="none" stroke="black" cx="1553" cy="-394" rx="55.79" ry="18"/>
<text text-anchor="middle" x="1553" y="-390.3" font-family="Times,serif" font-size="14.00">V1639 (a)</text>
</g>
<!-- 10 -->
<g id="node11" class="node">
<title>10</title>
<ellipse fill="none" stroke="black" cx="965" cy="-538" rx="52.79" ry="18"/>
<text text-anchor="middle" x="965" y="-534.3" font-family="Times,serif" font-size="14.00">LaSM (a)</text>
</g>
<!-- 25 -->
<g id="node24" class="node">
<title>25</title>
<ellipse fill="none" stroke="black" cx="1205" cy="-466" rx="44.39" ry="18"/>
<text text-anchor="middle" x="1205" y="-462.3" font-family="Times,serif" font-size="14.00">B39 (a)</text>
</g>
<!-- 10&#45;&gt;25 -->
<g id="edge22" class="edge">
<title>10&#45;&gt;25</title>
<path fill="none" stroke="black" stroke-dasharray="5,2" d="M1004.88,-526.12C1042.82,-515.68 1101.45,-499.27 1152,-484 1155.29,-483.01 1158.69,-481.96 1162.11,-480.9"/>
<polygon fill="black" stroke="black" points="1163.21,-484.22 1171.69,-477.88 1161.1,-477.54 1163.21,-484.22"/>
</g>
<!-- 11 -->
<g id="node12" class="node">
<title>11</title>
<ellipse fill="none" stroke="black" cx="1441" cy="-466" rx="44.39" ry="18"/>
<text text-anchor="middle" x="1441" y="-462.3" font-family="Times,serif" font-size="14.00">S32 (a)</text>
</g>
<!-- 12 -->
<g id="node13" class="node">
<title>12</title>
<ellipse fill="none" stroke="black" cx="1553" cy="-466" rx="50.09" ry="18"/>
<text text-anchor="middle" x="1553" y="-462.3" font-family="Times,serif" font-size="14.00">V566 (a)</text>
</g>
<!-- 12&#45;&gt;8 -->
<g id="edge8" class="edge">
<title>12&#45;&gt;8</title>
<path fill="none" stroke="black" stroke-dasharray="1,5" d="M1553,-447.7C1553,-439.98 1553,-430.71 1553,-422.11"/>
<polygon fill="black" stroke="black" points="1556.5,-422.1 1553,-412.1 1549.5,-422.1 1556.5,-422.1"/>
</g>
<!-- 13 -->
<g id="node14" class="node">
<title>13</title>
<ellipse fill="none" stroke="black" cx="1092" cy="-538" rx="55.79" ry="18"/>
<text text-anchor="middle" x="1092" y="-534.3" font-family="Times,serif" font-size="14.00">V2036 (a)</text>
</g>
<!-- 16 -->
<g id="node16" class="node">
<title>16</title>
<ellipse fill="none" stroke="black" cx="1219" cy="-538" rx="52.79" ry="18"/>
<text text-anchor="middle" x="1219" y="-534.3" font-family="Times,serif" font-size="14.00">M136 (a)</text>
</g>
<!-- 17 -->
<g id="node17" class="node">
<title>17</title>
<ellipse fill="none" stroke="black" cx="1665" cy="-466" rx="44.39" ry="18"/>
<text text-anchor="middle" x="1665" y="-462.3" font-family="Times,serif" font-size="14.00">P01 (a)</text>
</g>
<!-- 34 -->
<g id="node30" class="node">
<title>34</title>
<ellipse fill="none" stroke="black" cx="276" cy="-394" rx="50.09" ry="18"/>
<text text-anchor="middle" x="276" y="-390.3" font-family="Times,serif" font-size="14.00">V536 (a)</text>
</g>
<!-- 19&#45;&gt;34 -->
<g id="edge28" class="edge">
<title>19&#45;&gt;34</title>
<path fill="none" stroke="black" stroke-dasharray="5,2" d="M276,-447.7C276,-439.98 276,-430.71 276,-422.11"/>
<polygon fill="black" stroke="black" points="279.5,-422.1 276,-412.1 272.5,-422.1 279.5,-422.1"/>
</g>
<!-- 20 -->
<g id="node19" class="node">
<title>20</title>
<ellipse fill="none" stroke="black" cx="1092" cy="-611" rx="53.89" ry="18"/>
<text text-anchor="middle" x="1092" y="-607.3" font-family="Times,serif" font-size="14.00">aBase (a)</text>
</g>
<!-- 20&#45;&gt;0 -->
<g id="edge1" class="edge">
<title>20&#45;&gt;0</title>
<path fill="none" stroke="black" stroke-width="2" d="M1041.5,-604.52C921.87,-591.53 621.81,-558.95 495.48,-545.24"/>
<polygon fill="black" stroke="black" stroke-width="2" points="495.57,-541.73 485.25,-544.13 494.81,-548.69 495.57,-541.73"/>
</g>
<!-- 20&#45;&gt;1 -->
<g id="edge2" class="edge">
<title>20&#45;&gt;1</title>
<path fill="none" stroke="black" d="M1043.51,-602.99C983.24,-593.91 877.42,-576.76 788,-556 783.97,-555.06 779.81,-554.02 775.64,-552.93"/>
<polygon fill="black" stroke="black" points="776.55,-549.55 765.98,-550.3 774.71,-556.3 776.55,-549.55"/>
</g>
<!-- 20&#45;&gt;5 -->
<g id="edge6" class="edge">
<title>20&#45;&gt;5</title>
<path fill="none" stroke="black" stroke-dasharray="5,2" d="M1052.14,-598.76C1013.86,-587.92 954.43,-571.02 903,-556 899.47,-554.97 895.82,-553.9 892.15,-552.81"/>
<polygon fill="black" stroke="black" points="893.05,-549.43 882.47,-549.95 891.06,-556.14 893.05,-549.43"/>
</g>
<!-- 20&#45;&gt;10 -->
<g id="edge10" class="edge">
<title>20&#45;&gt;10</title>
<path fill="none" stroke="black" d="M1065.38,-595.12C1046.5,-584.56 1020.96,-570.28 1000.37,-558.77"/>
<polygon fill="black" stroke="black" points="1002.02,-555.69 991.59,-553.86 998.61,-561.8 1002.02,-555.69"/>
</g>
<!-- 20&#45;&gt;13 -->
<g id="edge13" class="edge">
<title>20&#45;&gt;13</title>
<path fill="none" stroke="black" d="M1092,-592.81C1092,-584.79 1092,-575.05 1092,-566.07"/>
<polygon fill="black" stroke="black" points="1095.5,-566.03 1092,-556.03 1088.5,-566.03 1095.5,-566.03"/>
</g>
<!-- 20&#45;&gt;16 -->
<g id="edge15" class="edge">
<title>20&#45;&gt;16</title>
<path fill="none" stroke="black" stroke-width="2" d="M1118.62,-595.12C1137.5,-584.56 1163.04,-570.28 1183.63,-558.77"/>
<polygon fill="black" stroke="black" stroke-width="2" points="1185.39,-561.8 1192.41,-553.86 1181.98,-555.69 1185.39,-561.8"/>
</g>
<!-- 22 -->
<g id="node21" class="node">
<title>22</title>
<ellipse fill="none" stroke="black" cx="1334" cy="-538" rx="44.69" ry="18"/>
<text text-anchor="middle" x="1334" y="-534.3" font-family="Times,serif" font-size="14.00">Nan (a)</text>
</g>
<!-- 20&#45;&gt;22 -->
<g id="edge19" class="edge">
<title>20&#45;&gt;22</title>
<path fill="none" stroke="black" d="M1132.3,-598.89C1170.64,-588.23 1229.89,-571.49 1281,-556 1284.14,-555.05 1287.39,-554.05 1290.65,-553.03"/>
<polygon fill="black" stroke="black" points="1291.92,-556.3 1300.41,-549.95 1289.82,-549.62 1291.92,-556.3"/>
</g>
<!-- 33 -->
<g id="node29" class="node">
<title>33</title>
<ellipse fill="none" stroke="black" cx="1497" cy="-538" rx="44.39" ry="18"/>
<text text-anchor="middle" x="1497" y="-534.3" font-family="Times,serif" font-size="14.00">A25 (a)</text>
</g>
<!-- 20&#45;&gt;33 -->
<g id="edge27" class="edge">
<title>20&#45;&gt;33</title>
<path fill="none" stroke="black" stroke-dasharray="5,2" d="M1138.85,-601.79C1215.77,-588.3 1368.14,-561.59 1447.04,-547.76"/>
<polygon fill="black" stroke="black" points="1447.96,-551.15 1457.21,-545.98 1446.75,-544.26 1447.96,-551.15"/>
</g>
<!-- 42 -->
<g id="node34" class="node">
<title>42</title>
<ellipse fill="none" stroke="black" cx="1609" cy="-538" rx="50.09" ry="18"/>
<text text-anchor="middle" x="1609" y="-534.3" font-family="Times,serif" font-size="14.00">S249 (a)</text>
</g>
<!-- 20&#45;&gt;42 -->
<g id="edge32" class="edge">
<title>20&#45;&gt;42</title>
<path fill="none" stroke="black" d="M1144.64,-606.6C1230.28,-600.44 1404.8,-585.27 1550,-556 1554.17,-555.16 1558.48,-554.17 1562.78,-553.09"/>
<polygon fill="black" stroke="black" points="1563.95,-556.4 1572.72,-550.46 1562.16,-549.63 1563.95,-556.4"/>
</g>
<!-- 30 -->
<g id="node26" class="node">
<title>30</title>
<ellipse fill="none" stroke="black" cx="273" cy="-178" rx="50.09" ry="18"/>
<text text-anchor="middle" x="273" y="-174.3" font-family="Times,serif" font-size="14.00">Marc (a)</text>
</g>
<!-- 21&#45;&gt;30 -->
<g id="edge24" class="edge">
<title>21&#45;&gt;30</title>
<path fill="none" stroke="black" stroke-dasharray="1,5" d="M275.26,-231.7C274.93,-223.98 274.53,-214.71 274.16,-206.11"/>
<polygon fill="black" stroke="black" points="277.66,-205.95 273.73,-196.1 270.66,-206.25 277.66,-205.95"/>
</g>
<!-- 39 -->
<g id="node33" class="node">
<title>39</title>
<ellipse fill="none" stroke="black" cx="394" cy="-178" rx="52.79" ry="18"/>
<text text-anchor="middle" x="394" y="-174.3" font-family="Times,serif" font-size="14.00">M118 (a)</text>
</g>
<!-- 21&#45;&gt;39 -->
<g id="edge31" class="edge">
<title>21&#45;&gt;39</title>
<path fill="none" stroke="black" stroke-dasharray="5,2" d="M300.45,-234.5C317.7,-224.26 341.03,-210.42 360.08,-199.12"/>
<polygon fill="black" stroke="black" points="361.95,-202.08 368.77,-193.97 358.38,-196.06 361.95,-202.08"/>
</g>
<!-- 26 -->
<g id="node25" class="node">
<title>26</title>
<ellipse fill="none" stroke="black" cx="1323" cy="-466" rx="55.79" ry="18"/>
<text text-anchor="middle" x="1323" y="-462.3" font-family="Times,serif" font-size="14.00">V1897 (a)</text>
</g>
<!-- 22&#45;&gt;26 -->
<g id="edge23" class="edge">
<title>22&#45;&gt;26</title>
<path fill="none" stroke="black" stroke-dasharray="1,5" d="M1331.28,-519.7C1330.07,-511.98 1328.61,-502.71 1327.26,-494.11"/>
<polygon fill="black" stroke="black" points="1330.7,-493.44 1325.69,-484.1 1323.78,-494.53 1330.7,-493.44"/>
</g>
<!-- 35 -->
<g id="node31" class="node">
<title>35</title>
<ellipse fill="none" stroke="black" cx="1323" cy="-394" rx="41.69" ry="18"/>
<text text-anchor="middle" x="1323" y="-390.3" font-family="Times,serif" font-size="14.00">Est (a)</text>
</g>
<!-- 26&#45;&gt;35 -->
<g id="edge29" class="edge">
<title>26&#45;&gt;35</title>
<path fill="none" stroke="black" stroke-dasharray="1,5" d="M1323,-447.7C1323,-439.98 1323,-430.71 1323,-422.11"/>
<polygon fill="black" stroke="black" points="1326.5,-422.1 1323,-412.1 1319.5,-422.1 1326.5,-422.1"/>
</g>
<!-- 30&#45;&gt;4 -->
<g id="edge5" class="edge">
<title>30&#45;&gt;4</title>
<path fill="none" stroke="black" stroke-dasharray="1,5" d="M273,-159.7C273,-151.98 273,-142.71 273,-134.11"/>
<polygon fill="black" stroke="black" points="276.5,-134.1 273,-124.1 269.5,-134.1 276.5,-134.1"/>
</g>
<!-- 31 -->
<g id="node27" class="node">
<title>31</title>
<ellipse fill="none" stroke="black" cx="1767" cy="-466" rx="40.09" ry="18"/>
<text text-anchor="middle" x="1767" y="-462.3" font-family="Times,serif" font-size="14.00">Pal (a)</text>
</g>
<!-- 33&#45;&gt;11 -->
<g id="edge11" class="edge">
<title>33&#45;&gt;11</title>
<path fill="none" stroke="black" stroke-dasharray="5,2" d="M1484.01,-520.76C1477.11,-512.14 1468.49,-501.36 1460.78,-491.73"/>
<polygon fill="black" stroke="black" points="1463.29,-489.26 1454.31,-483.63 1457.82,-493.63 1463.29,-489.26"/>
</g>
<!-- 33&#45;&gt;12 -->
<g id="edge12" class="edge">
<title>33&#45;&gt;12</title>
<path fill="none" stroke="black" stroke-dasharray="5,2" d="M1509.99,-520.76C1516.89,-512.14 1525.51,-501.36 1533.22,-491.73"/>
<polygon fill="black" stroke="black" points="1536.18,-493.63 1539.69,-483.63 1530.71,-489.26 1536.18,-493.63"/>
</g>
<!-- 33&#45;&gt;17 -->
<g id="edge16" class="edge">
<title>33&#45;&gt;17</title>
<path fill="none" stroke="black" stroke-dasharray="5,2" d="M1526.65,-524.65C1554.19,-513.17 1595.39,-496.01 1625.67,-483.39"/>
<polygon fill="black" stroke="black" points="1627.2,-486.54 1635.08,-479.47 1624.51,-480.08 1627.2,-486.54"/>
</g>
<!-- 33&#45;&gt;31 -->
<g id="edge25" class="edge">
<title>33&#45;&gt;31</title>
<path fill="none" stroke="black" stroke-dasharray="5,2" d="M1529.93,-525.88C1536.54,-523.8 1543.46,-521.74 1550,-520 1623.78,-500.31 1644.46,-504.55 1718,-484 1720.98,-483.17 1724.05,-482.25 1727.12,-481.29"/>
<polygon fill="black" stroke="black" points="1728.44,-484.54 1736.86,-478.11 1726.27,-477.88 1728.44,-484.54"/>
</g>
<!-- 34&#45;&gt;2 -->
<g id="edge3" class="edge">
<title>34&#45;&gt;2</title>
<path fill="none" stroke="black" stroke-dasharray="1,5" d="M276,-375.7C276,-367.98 276,-358.71 276,-350.11"/>
<polygon fill="black" stroke="black" points="279.5,-350.1 276,-340.1 272.5,-350.1 279.5,-350.1"/>
</g>
</g>
</svg>
