<?xml version="1.0" encoding="UTF-8" standalone="no"?>
<!DOCTYPE svg PUBLIC "-//W3C//DTD SVG 1.1//EN"
 "http://www.w3.org/Graphics/SVG/1.1/DTD/svg11.dtd">
<!-- Generated by graphviz version 2.43.0 (0)
 -->
<!-- Title: textual_flow_diagram Pages: 1 -->
<svg width="338pt" height="234pt"
 viewBox="0.00 0.00 338.00 234.00" xmlns="http://www.w3.org/2000/svg" xmlns:xlink="http://www.w3.org/1999/xlink">
<g id="graph0" class="graph" transform="scale(1 1) rotate(0) translate(4 230)">
<title>textual_flow_diagram</title>
<polygon fill="white" stroke="transparent" points="-4,4 -4,-230 334,-230 334,4 -4,4"/>
<g id="clust1" class="cluster">
<title>cluster_legend</title>
<polygon fill="none" stroke="black" points="8,-164 8,-218 194,-218 194,-164 8,-164"/>
</g>
<g id="clust2" class="cluster">
<title>cluster_plot</title>
</g>
<!-- label -->
<g id="node1" class="node">
<title>label</title>
<text text-anchor="middle" x="101" y="-194.8" font-family="Times,serif" font-size="14.00">adstag1.3.20U6&#45;10, c</text>
<text text-anchor="middle" x="101" y="-179.8" font-family="Times,serif" font-size="14.00">Con = 5</text>
</g>
<!-- 21 -->
<g id="node2" class="node">
<title>21</title>
<ellipse fill="none" stroke="black" cx="262" cy="-34" rx="51.99" ry="18"/>
<text text-anchor="middle" x="262" y="-30.3" font-family="Times,serif" font-size="14.00">M118 (c)</text>
</g>
<!-- 41 -->
<g id="node3" class="node">
<title>41</title>
<ellipse fill="none" stroke="black" cx="262" cy="-117" rx="49.29" ry="18"/>
<text text-anchor="middle" x="262" y="-113.3" font-family="Times,serif" font-size="14.00">V568 (c)</text>
</g>
<!-- 41&#45;&gt;21 -->
<g id="edge1" class="edge">
<title>41&#45;&gt;21</title>
<path fill="none" stroke="black" stroke-dasharray="5,2" d="M262,-98.82C262,-88.19 262,-74.31 262,-62.2"/>
<polygon fill="black" stroke="black" points="265.5,-62.15 262,-52.15 258.5,-62.15 265.5,-62.15"/>
<text text-anchor="middle" x="265.5" y="-73" font-family="Times,serif" font-size="10.00">2</text>
</g>
<!-- 30 -->
<g id="node4" class="node">
<title>30</title>
<ellipse fill="none" stroke="blue" stroke-dasharray="5,2" cx="262" cy="-191" rx="50.09" ry="18"/>
<text text-anchor="middle" x="262" y="-187.3" font-family="Times,serif" font-size="14.00">V536 (a)</text>
</g>
<!-- 30&#45;&gt;41 -->
<g id="edge2" class="edge">
<title>30&#45;&gt;41</title>
<path fill="none" stroke="blue" stroke-dasharray="1,5" d="M262,-172.94C262,-164.81 262,-154.88 262,-145.7"/>
<polygon fill="blue" stroke="blue" points="265.5,-145.44 262,-135.44 258.5,-145.44 265.5,-145.44"/>
</g>
</g>
</svg>
