<?xml version="1.0" encoding="UTF-8" standalone="no"?>
<!DOCTYPE svg PUBLIC "-//W3C//DTD SVG 1.1//EN"
 "http://www.w3.org/Graphics/SVG/1.1/DTD/svg11.dtd">
<!-- Generated by graphviz version 2.43.0 (0)
 -->
<!-- Title: textual_flow_diagram Pages: 1 -->
<svg width="1679pt" height="473pt"
 viewBox="0.00 0.00 1679.00 473.00" xmlns="http://www.w3.org/2000/svg" xmlns:xlink="http://www.w3.org/1999/xlink">
<g id="graph0" class="graph" transform="scale(1 1) rotate(0) translate(4 469)">
<title>textual_flow_diagram</title>
<polygon fill="white" stroke="transparent" points="-4,4 -4,-469 1675,-469 1675,4 -4,4"/>
<g id="clust1" class="cluster">
<title>cluster_legend</title>
<polygon fill="none" stroke="black" points="8,-403 8,-457 182,-457 182,-403 8,-403"/>
</g>
<g id="clust2" class="cluster">
<title>cluster_plot</title>
</g>
<!-- label -->
<g id="node1" class="node">
<title>label</title>
<text text-anchor="middle" x="95" y="-433.8" font-family="Times,serif" font-size="14.00">adstag1.3.40U56, a</text>
<text text-anchor="middle" x="95" y="-418.8" font-family="Times,serif" font-size="14.00">Con = 10</text>
</g>
<!-- 0 -->
<g id="node2" class="node">
<title>0</title>
<ellipse fill="none" stroke="black" cx="763" cy="-430" rx="53.89" ry="18"/>
<text text-anchor="middle" x="763" y="-426.3" font-family="Times,serif" font-size="14.00">aBase (a)</text>
</g>
<!-- 2 -->
<g id="node4" class="node">
<title>2</title>
<ellipse fill="none" stroke="black" cx="254" cy="-346" rx="55.79" ry="18"/>
<text text-anchor="middle" x="254" y="-342.3" font-family="Times,serif" font-size="14.00">V2036 (a)</text>
</g>
<!-- 0&#45;&gt;2 -->
<g id="edge2" class="edge">
<title>0&#45;&gt;2</title>
<path fill="none" stroke="black" d="M712.38,-423.6C629.59,-414.33 460.28,-393.47 319,-364 314.32,-363.02 309.48,-361.93 304.64,-360.77"/>
<polygon fill="black" stroke="black" points="305.31,-357.33 294.77,-358.33 303.64,-364.13 305.31,-357.33"/>
</g>
<!-- 3 -->
<g id="node5" class="node">
<title>3</title>
<ellipse fill="none" stroke="black" cx="373" cy="-346" rx="44.69" ry="18"/>
<text text-anchor="middle" x="373" y="-342.3" font-family="Times,serif" font-size="14.00">Nan (a)</text>
</g>
<!-- 0&#45;&gt;3 -->
<g id="edge3" class="edge">
<title>0&#45;&gt;3</title>
<path fill="none" stroke="black" d="M715.16,-421.63C649.47,-411.09 527.89,-390.07 426,-364 422.67,-363.15 419.24,-362.2 415.81,-361.21"/>
<polygon fill="black" stroke="black" points="416.77,-357.85 406.18,-358.32 414.75,-364.55 416.77,-357.85"/>
</g>
<!-- 10 -->
<g id="node10" class="node">
<title>10</title>
<ellipse fill="none" stroke="black" cx="488" cy="-346" rx="52.79" ry="18"/>
<text text-anchor="middle" x="488" y="-342.3" font-family="Times,serif" font-size="14.00">M136 (a)</text>
</g>
<!-- 0&#45;&gt;10 -->
<g id="edge8" class="edge">
<title>0&#45;&gt;10</title>
<path fill="none" stroke="black" stroke-width="2" d="M724.18,-417.43C674.84,-402.71 589.67,-377.32 536.22,-361.38"/>
<polygon fill="black" stroke="black" stroke-width="2" points="537.2,-358.02 526.62,-358.52 535.2,-364.73 537.2,-358.02"/>
</g>
<!-- 14 -->
<g id="node12" class="node">
<title>14</title>
<ellipse fill="none" stroke="black" cx="602" cy="-346" rx="42.79" ry="18"/>
<text text-anchor="middle" x="602" y="-342.3" font-family="Times,serif" font-size="14.00">La2 (a)</text>
</g>
<!-- 0&#45;&gt;14 -->
<g id="edge10" class="edge">
<title>0&#45;&gt;14</title>
<path fill="none" stroke="black" stroke-width="2" d="M734.59,-414.53C707.46,-400.71 666.51,-379.86 637.3,-364.98"/>
<polygon fill="black" stroke="black" stroke-width="2" points="638.76,-361.8 628.26,-360.38 635.59,-368.03 638.76,-361.8"/>
</g>
<!-- 15 -->
<g id="node13" class="node">
<title>15</title>
<ellipse fill="none" stroke="black" cx="707" cy="-346" rx="44.39" ry="18"/>
<text text-anchor="middle" x="707" y="-342.3" font-family="Times,serif" font-size="14.00">A25 (a)</text>
</g>
<!-- 0&#45;&gt;15 -->
<g id="edge11" class="edge">
<title>0&#45;&gt;15</title>
<path fill="none" stroke="black" stroke-dasharray="5,2" d="M751.4,-412.01C743.54,-400.5 733.01,-385.09 724.18,-372.16"/>
<polygon fill="black" stroke="black" points="726.93,-369.97 718.4,-363.69 721.15,-373.92 726.93,-369.97"/>
</g>
<!-- 23 -->
<g id="node19" class="node">
<title>23</title>
<ellipse fill="none" stroke="black" cx="819" cy="-346" rx="50.09" ry="18"/>
<text text-anchor="middle" x="819" y="-342.3" font-family="Times,serif" font-size="14.00">Patm (a)</text>
</g>
<!-- 0&#45;&gt;23 -->
<g id="edge17" class="edge">
<title>0&#45;&gt;23</title>
<path fill="none" stroke="black" d="M774.6,-412.01C782.46,-400.5 792.99,-385.09 801.82,-372.16"/>
<polygon fill="black" stroke="black" points="804.85,-373.92 807.6,-363.69 799.07,-369.97 804.85,-373.92"/>
</g>
<!-- 24 -->
<g id="node20" class="node">
<title>24</title>
<ellipse fill="none" stroke="black" cx="943" cy="-346" rx="55.79" ry="18"/>
<text text-anchor="middle" x="943" y="-342.3" font-family="Times,serif" font-size="14.00">V1920 (a)</text>
</g>
<!-- 0&#45;&gt;24 -->
<g id="edge18" class="edge">
<title>0&#45;&gt;24</title>
<path fill="none" stroke="black" stroke-width="2" d="M793.53,-415.09C823.57,-401.41 869.6,-380.44 902.64,-365.39"/>
<polygon fill="black" stroke="black" stroke-width="2" points="904.36,-368.45 912.01,-361.12 901.46,-362.08 904.36,-368.45"/>
<text text-anchor="middle" x="866.5" y="-385" font-family="Times,serif" font-size="10.00">2</text>
</g>
<!-- 25 -->
<g id="node21" class="node">
<title>25</title>
<ellipse fill="none" stroke="black" cx="1070" cy="-346" rx="52.79" ry="18"/>
<text text-anchor="middle" x="1070" y="-342.3" font-family="Times,serif" font-size="14.00">LaSM (a)</text>
</g>
<!-- 0&#45;&gt;25 -->
<g id="edge19" class="edge">
<title>0&#45;&gt;25</title>
<path fill="none" stroke="black" d="M804.21,-418.18C852.92,-405.36 936.41,-383.31 1008,-364 1012.06,-362.9 1016.27,-361.76 1020.5,-360.61"/>
<polygon fill="black" stroke="black" points="1021.6,-363.94 1030.32,-357.93 1019.75,-357.19 1021.6,-363.94"/>
</g>
<!-- 30 -->
<g id="node22" class="node">
<title>30</title>
<ellipse fill="none" stroke="black" cx="1191" cy="-346" rx="50.09" ry="18"/>
<text text-anchor="middle" x="1191" y="-342.3" font-family="Times,serif" font-size="14.00">Neap (a)</text>
</g>
<!-- 0&#45;&gt;30 -->
<g id="edge20" class="edge">
<title>0&#45;&gt;30</title>
<path fill="none" stroke="black" stroke-width="2" d="M811.69,-422.11C882.6,-411.69 1018.24,-390.33 1132,-364 1136.03,-363.07 1140.2,-362.03 1144.36,-360.93"/>
<polygon fill="black" stroke="black" stroke-width="2" points="1145.29,-364.31 1154.02,-358.31 1143.45,-357.55 1145.29,-364.31"/>
</g>
<!-- 38 -->
<g id="node27" class="node">
<title>38</title>
<ellipse fill="none" stroke="black" cx="1308" cy="-346" rx="48.99" ry="18"/>
<text text-anchor="middle" x="1308" y="-342.3" font-family="Times,serif" font-size="14.00">La22 (a)</text>
</g>
<!-- 0&#45;&gt;38 -->
<g id="edge25" class="edge">
<title>0&#45;&gt;38</title>
<path fill="none" stroke="black" stroke-dasharray="5,2" d="M814.62,-424.72C904.02,-416.72 1093.13,-397.26 1250,-364 1254.1,-363.13 1258.33,-362.12 1262.56,-361.03"/>
<polygon fill="black" stroke="black" points="1263.59,-364.38 1272.33,-358.38 1261.76,-357.62 1263.59,-364.38"/>
</g>
<!-- 1 -->
<g id="node3" class="node">
<title>1</title>
<ellipse fill="none" stroke="black" cx="372" cy="-263" rx="44.39" ry="18"/>
<text text-anchor="middle" x="372" y="-259.3" font-family="Times,serif" font-size="14.00">P01 (a)</text>
</g>
<!-- 37 -->
<g id="node26" class="node">
<title>37</title>
<ellipse fill="none" stroke="black" cx="254" cy="-263" rx="55.79" ry="18"/>
<text text-anchor="middle" x="254" y="-259.3" font-family="Times,serif" font-size="14.00">V1897 (a)</text>
</g>
<!-- 3&#45;&gt;37 -->
<g id="edge24" class="edge">
<title>3&#45;&gt;37</title>
<path fill="none" stroke="black" stroke-dasharray="1,5" d="M351.17,-330.14C332.74,-317.59 306.11,-299.47 285.38,-285.36"/>
<polygon fill="black" stroke="black" points="287.14,-282.32 276.9,-279.59 283.2,-288.11 287.14,-282.32"/>
</g>
<!-- 4 -->
<g id="node6" class="node">
<title>4</title>
<ellipse fill="none" stroke="black" cx="906" cy="-263" rx="44.39" ry="18"/>
<text text-anchor="middle" x="906" y="-259.3" font-family="Times,serif" font-size="14.00">P74 (a)</text>
</g>
<!-- 7 -->
<g id="node7" class="node">
<title>7</title>
<ellipse fill="none" stroke="black" cx="478" cy="-263" rx="44.39" ry="18"/>
<text text-anchor="middle" x="478" y="-259.3" font-family="Times,serif" font-size="14.00">S32 (a)</text>
</g>
<!-- 8 -->
<g id="node8" class="node">
<title>8</title>
<ellipse fill="none" stroke="black" cx="254" cy="-180" rx="42.79" ry="18"/>
<text text-anchor="middle" x="254" y="-176.3" font-family="Times,serif" font-size="14.00">Bas (a)</text>
</g>
<!-- 9 -->
<g id="node9" class="node">
<title>9</title>
<ellipse fill="none" stroke="black" cx="744" cy="-107" rx="46.29" ry="18"/>
<text text-anchor="middle" x="744" y="-103.3" font-family="Times,serif" font-size="14.00">Mon (a)</text>
</g>
<!-- 18 -->
<g id="node15" class="node">
<title>18</title>
<ellipse fill="none" stroke="black" cx="744" cy="-34" rx="40.89" ry="18"/>
<text text-anchor="middle" x="744" y="-30.3" font-family="Times,serif" font-size="14.00">Sin (a)</text>
</g>
<!-- 9&#45;&gt;18 -->
<g id="edge13" class="edge">
<title>9&#45;&gt;18</title>
<path fill="none" stroke="black" stroke-dasharray="1,5" d="M744,-88.81C744,-80.79 744,-71.05 744,-62.07"/>
<polygon fill="black" stroke="black" points="747.5,-62.03 744,-52.03 740.5,-62.03 747.5,-62.03"/>
</g>
<!-- 13 -->
<g id="node11" class="node">
<title>13</title>
<ellipse fill="none" stroke="black" cx="1017" cy="-263" rx="48.99" ry="18"/>
<text text-anchor="middle" x="1017" y="-259.3" font-family="Times,serif" font-size="14.00">La35 (a)</text>
</g>
<!-- 15&#45;&gt;1 -->
<g id="edge1" class="edge">
<title>15&#45;&gt;1</title>
<path fill="none" stroke="black" stroke-dasharray="5,2" d="M674.08,-333.83C667.47,-331.76 660.54,-329.72 654,-328 553.5,-301.65 525.5,-307.35 425,-281 421.63,-280.12 418.15,-279.14 414.67,-278.12"/>
<polygon fill="black" stroke="black" points="415.5,-274.72 404.92,-275.17 413.47,-281.42 415.5,-274.72"/>
</g>
<!-- 15&#45;&gt;7 -->
<g id="edge5" class="edge">
<title>15&#45;&gt;7</title>
<path fill="none" stroke="black" stroke-dasharray="5,2" d="M674.68,-333.57C634.1,-319.21 564.43,-294.57 519.83,-278.79"/>
<polygon fill="black" stroke="black" points="520.75,-275.41 510.16,-275.38 518.42,-282.01 520.75,-275.41"/>
</g>
<!-- 21 -->
<g id="node17" class="node">
<title>21</title>
<ellipse fill="none" stroke="black" cx="580" cy="-263" rx="40.09" ry="18"/>
<text text-anchor="middle" x="580" y="-259.3" font-family="Times,serif" font-size="14.00">Pal (a)</text>
</g>
<!-- 15&#45;&gt;21 -->
<g id="edge15" class="edge">
<title>15&#45;&gt;21</title>
<path fill="none" stroke="black" stroke-dasharray="5,2" d="M684.29,-330.52C663.76,-317.42 633.36,-298.03 610.67,-283.56"/>
<polygon fill="black" stroke="black" points="612.4,-280.51 602.08,-278.08 608.63,-286.41 612.4,-280.51"/>
</g>
<!-- 16 -->
<g id="node14" class="node">
<title>16</title>
<ellipse fill="none" stroke="black" cx="1134" cy="-263" rx="50.09" ry="18"/>
<text text-anchor="middle" x="1134" y="-259.3" font-family="Times,serif" font-size="14.00">V571 (a)</text>
</g>
<!-- 20 -->
<g id="node16" class="node">
<title>20</title>
<ellipse fill="none" stroke="black" cx="1252" cy="-263" rx="50.09" ry="18"/>
<text text-anchor="middle" x="1252" y="-259.3" font-family="Times,serif" font-size="14.00">V565 (a)</text>
</g>
<!-- 22 -->
<g id="node18" class="node">
<title>22</title>
<ellipse fill="none" stroke="black" cx="744" cy="-180" rx="50.09" ry="18"/>
<text text-anchor="middle" x="744" y="-176.3" font-family="Times,serif" font-size="14.00">Marc (a)</text>
</g>
<!-- 22&#45;&gt;9 -->
<g id="edge7" class="edge">
<title>22&#45;&gt;9</title>
<path fill="none" stroke="black" stroke-dasharray="1,5" d="M744,-161.81C744,-153.79 744,-144.05 744,-135.07"/>
<polygon fill="black" stroke="black" points="747.5,-135.03 744,-125.03 740.5,-135.03 747.5,-135.03"/>
</g>
<!-- 42 -->
<g id="node31" class="node">
<title>42</title>
<ellipse fill="none" stroke="black" cx="682" cy="-263" rx="44.39" ry="18"/>
<text text-anchor="middle" x="682" y="-259.3" font-family="Times,serif" font-size="14.00">B39 (a)</text>
</g>
<!-- 25&#45;&gt;42 -->
<g id="edge29" class="edge">
<title>25&#45;&gt;42</title>
<path fill="none" stroke="black" stroke-dasharray="5,2" d="M1031.5,-333.55C1023.77,-331.51 1015.66,-329.54 1008,-328 946.93,-315.73 930.39,-320.6 869,-310 808.95,-299.63 793.86,-296.77 735,-281 731.63,-280.1 728.16,-279.11 724.68,-278.08"/>
<polygon fill="black" stroke="black" points="725.52,-274.68 714.93,-275.11 723.47,-281.38 725.52,-274.68"/>
</g>
<!-- 35 -->
<g id="node25" class="node">
<title>35</title>
<ellipse fill="none" stroke="black" cx="794" cy="-263" rx="50.09" ry="18"/>
<text text-anchor="middle" x="794" y="-259.3" font-family="Times,serif" font-size="14.00">V568 (a)</text>
</g>
<!-- 30&#45;&gt;35 -->
<g id="edge23" class="edge">
<title>30&#45;&gt;35</title>
<path fill="none" stroke="black" stroke-dasharray="5,2" d="M1154.71,-333.59C1147.25,-331.52 1139.41,-329.53 1132,-328 1069.69,-315.15 1052.73,-320.6 990,-310 928.63,-299.63 913.39,-296.07 853,-281 848.99,-280 844.83,-278.91 840.67,-277.78"/>
<polygon fill="black" stroke="black" points="841.6,-274.41 831.03,-275.11 839.73,-281.15 841.6,-274.41"/>
<text text-anchor="middle" x="993.5" y="-302" font-family="Times,serif" font-size="10.00">3</text>
</g>
<!-- 31 -->
<g id="node23" class="node">
<title>31</title>
<ellipse fill="none" stroke="black" cx="1367" cy="-263" rx="46.59" ry="18"/>
<text text-anchor="middle" x="1367" y="-259.3" font-family="Times,serif" font-size="14.00">Bodl (a)</text>
</g>
<!-- 34 -->
<g id="node24" class="node">
<title>34</title>
<ellipse fill="none" stroke="black" cx="1484" cy="-180" rx="50.09" ry="18"/>
<text text-anchor="middle" x="1484" y="-176.3" font-family="Times,serif" font-size="14.00">A336 (a)</text>
</g>
<!-- 35&#45;&gt;22 -->
<g id="edge16" class="edge">
<title>35&#45;&gt;22</title>
<path fill="none" stroke="black" stroke-dasharray="1,5" d="M783.64,-245.22C776.73,-234.03 767.53,-219.12 759.73,-206.48"/>
<polygon fill="black" stroke="black" points="762.58,-204.43 754.35,-197.76 756.62,-208.11 762.58,-204.43"/>
<text text-anchor="middle" x="774.5" y="-219" font-family="Times,serif" font-size="10.00">2</text>
</g>
<!-- 39 -->
<g id="node28" class="node">
<title>39</title>
<ellipse fill="none" stroke="black" cx="865" cy="-180" rx="52.79" ry="18"/>
<text text-anchor="middle" x="865" y="-176.3" font-family="Times,serif" font-size="14.00">M118 (a)</text>
</g>
<!-- 35&#45;&gt;39 -->
<g id="edge26" class="edge">
<title>35&#45;&gt;39</title>
<path fill="none" stroke="black" stroke-dasharray="5,2" d="M808.37,-245.61C818.57,-233.97 832.43,-218.16 843.89,-205.09"/>
<polygon fill="black" stroke="black" points="846.69,-207.19 850.65,-197.37 841.43,-202.58 846.69,-207.19"/>
<text text-anchor="middle" x="836.5" y="-219" font-family="Times,serif" font-size="10.00">2</text>
</g>
<!-- 37&#45;&gt;8 -->
<g id="edge6" class="edge">
<title>37&#45;&gt;8</title>
<path fill="none" stroke="black" d="M254,-244.82C254,-234.19 254,-220.31 254,-208.2"/>
<polygon fill="black" stroke="black" points="257.5,-208.15 254,-198.15 250.5,-208.15 257.5,-208.15"/>
</g>
<!-- 38&#45;&gt;4 -->
<g id="edge4" class="edge">
<title>38&#45;&gt;4</title>
<path fill="none" stroke="black" stroke-dasharray="1,5" d="M1271.99,-333.67C1264.75,-331.62 1257.17,-329.61 1250,-328 1200.39,-316.83 1187.21,-318.09 1137,-310 1057.87,-297.25 1036.93,-299.74 959,-281 955.56,-280.17 952.02,-279.23 948.48,-278.23"/>
<polygon fill="black" stroke="black" points="949.16,-274.79 938.58,-275.29 947.17,-281.5 949.16,-274.79"/>
</g>
<!-- 38&#45;&gt;13 -->
<g id="edge9" class="edge">
<title>38&#45;&gt;13</title>
<path fill="none" stroke="black" stroke-dasharray="1,5" d="M1271.22,-334.08C1264.18,-332.03 1256.87,-329.93 1250,-328 1172.46,-306.23 1152.54,-302.77 1075,-281 1071.24,-279.95 1067.35,-278.84 1063.45,-277.72"/>
<polygon fill="black" stroke="black" points="1064.36,-274.34 1053.78,-274.92 1062.42,-281.06 1064.36,-274.34"/>
</g>
<!-- 38&#45;&gt;16 -->
<g id="edge12" class="edge">
<title>38&#45;&gt;16</title>
<path fill="none" stroke="black" stroke-dasharray="1,5" d="M1278.88,-331.44C1249.73,-317.87 1204.73,-296.92 1172.61,-281.98"/>
<polygon fill="black" stroke="black" points="1174.05,-278.78 1163.51,-277.74 1171.1,-285.13 1174.05,-278.78"/>
</g>
<!-- 38&#45;&gt;20 -->
<g id="edge14" class="edge">
<title>38&#45;&gt;20</title>
<path fill="none" stroke="black" stroke-dasharray="5,2" d="M1296.4,-328.22C1288.59,-316.92 1278.15,-301.83 1269.36,-289.11"/>
<polygon fill="black" stroke="black" points="1272.15,-287 1263.59,-280.76 1266.4,-290.98 1272.15,-287"/>
</g>
<!-- 38&#45;&gt;31 -->
<g id="edge21" class="edge">
<title>38&#45;&gt;31</title>
<path fill="none" stroke="black" stroke-dasharray="5,2" d="M1320.22,-328.22C1328.51,-316.85 1339.59,-301.63 1348.9,-288.86"/>
<polygon fill="black" stroke="black" points="1351.93,-290.63 1354.99,-280.48 1346.28,-286.51 1351.93,-290.63"/>
</g>
<!-- 40 -->
<g id="node29" class="node">
<title>40</title>
<ellipse fill="none" stroke="black" cx="1484" cy="-263" rx="52.79" ry="18"/>
<text text-anchor="middle" x="1484" y="-259.3" font-family="Times,serif" font-size="14.00">M111 (a)</text>
</g>
<!-- 38&#45;&gt;40 -->
<g id="edge27" class="edge">
<title>38&#45;&gt;40</title>
<path fill="none" stroke="black" stroke-dasharray="1,5" d="M1337.46,-331.44C1366.85,-317.92 1412.19,-297.05 1444.65,-282.11"/>
<polygon fill="black" stroke="black" points="1446.23,-285.23 1453.86,-277.87 1443.31,-278.87 1446.23,-285.23"/>
</g>
<!-- 41 -->
<g id="node30" class="node">
<title>41</title>
<ellipse fill="none" stroke="black" cx="1605" cy="-263" rx="50.09" ry="18"/>
<text text-anchor="middle" x="1605" y="-259.3" font-family="Times,serif" font-size="14.00">A116 (a)</text>
</g>
<!-- 38&#45;&gt;41 -->
<g id="edge28" class="edge">
<title>38&#45;&gt;41</title>
<path fill="none" stroke="black" stroke-dasharray="5,2" d="M1346.39,-334.9C1393.49,-322.46 1475.72,-300.57 1546,-281 1549.76,-279.95 1553.66,-278.86 1557.57,-277.75"/>
<polygon fill="black" stroke="black" points="1558.6,-281.09 1567.26,-274.98 1556.68,-274.36 1558.6,-281.09"/>
</g>
<!-- 40&#45;&gt;34 -->
<g id="edge22" class="edge">
<title>40&#45;&gt;34</title>
<path fill="none" stroke="black" stroke-dasharray="5,2" d="M1484,-244.82C1484,-234.19 1484,-220.31 1484,-208.2"/>
<polygon fill="black" stroke="black" points="1487.5,-208.15 1484,-198.15 1480.5,-208.15 1487.5,-208.15"/>
</g>
</g>
</svg>
