<?xml version="1.0" encoding="UTF-8" standalone="no"?>
<!DOCTYPE svg PUBLIC "-//W3C//DTD SVG 1.1//EN"
 "http://www.w3.org/Graphics/SVG/1.1/DTD/svg11.dtd">
<!-- Generated by graphviz version 2.43.0 (0)
 -->
<!-- Title: textual_flow_diagram Pages: 1 -->
<svg width="1484pt" height="222pt"
 viewBox="0.00 0.00 1484.00 222.00" xmlns="http://www.w3.org/2000/svg" xmlns:xlink="http://www.w3.org/1999/xlink">
<g id="graph0" class="graph" transform="scale(1 1) rotate(0) translate(4 218)">
<title>textual_flow_diagram</title>
<polygon fill="white" stroke="transparent" points="-4,4 -4,-218 1480,-218 1480,4 -4,4"/>
<g id="clust1" class="cluster">
<title>cluster_legend</title>
<polygon fill="none" stroke="black" points="8,-152 8,-206 218,-206 218,-152 8,-152"/>
</g>
<g id="clust2" class="cluster">
<title>cluster_plot</title>
</g>
<!-- label -->
<g id="node1" class="node">
<title>label</title>
<text text-anchor="middle" x="113" y="-182.8" font-family="Times,serif" font-size="14.00">adstag1.3.47U54&#45;60, ar1</text>
<text text-anchor="middle" x="113" y="-167.8" font-family="Times,serif" font-size="14.00">Con = 5</text>
</g>
<!-- 1 -->
<g id="node2" class="node">
<title>1</title>
<ellipse fill="none" stroke="black" cx="582" cy="-106" rx="65.79" ry="18"/>
<text text-anchor="middle" x="582" y="-102.3" font-family="Times,serif" font-size="14.00">V2036 (ar1)</text>
</g>
<!-- 3 -->
<g id="node3" class="node">
<title>3</title>
<ellipse fill="none" stroke="black" cx="729" cy="-106" rx="63.09" ry="18"/>
<text text-anchor="middle" x="729" y="-102.3" font-family="Times,serif" font-size="14.00">LaSM (ar1)</text>
</g>
<!-- 9 -->
<g id="node4" class="node">
<title>9</title>
<ellipse fill="none" stroke="black" cx="865" cy="-106" rx="55.49" ry="18"/>
<text text-anchor="middle" x="865" y="-102.3" font-family="Times,serif" font-size="14.00">Nan (ar1)</text>
</g>
<!-- 11 -->
<g id="node5" class="node">
<title>11</title>
<ellipse fill="none" stroke="black" cx="998" cy="-106" rx="59.59" ry="18"/>
<text text-anchor="middle" x="998" y="-102.3" font-family="Times,serif" font-size="14.00">V560 (ar1)</text>
</g>
<!-- 28 -->
<g id="node8" class="node">
<title>28</title>
<ellipse fill="none" stroke="black" cx="997" cy="-34" rx="65.79" ry="18"/>
<text text-anchor="middle" x="997" y="-30.3" font-family="Times,serif" font-size="14.00">V1920 (ar1)</text>
</g>
<!-- 11&#45;&gt;28 -->
<g id="edge7" class="edge">
<title>11&#45;&gt;28</title>
<path fill="none" stroke="black" stroke-dasharray="5,2" d="M997.75,-87.7C997.64,-79.98 997.51,-70.71 997.39,-62.11"/>
<polygon fill="black" stroke="black" points="1000.89,-62.05 997.24,-52.1 993.89,-62.15 1000.89,-62.05"/>
</g>
<!-- 18 -->
<g id="node6" class="node">
<title>18</title>
<ellipse fill="none" stroke="black" cx="1130" cy="-106" rx="53.89" ry="18"/>
<text text-anchor="middle" x="1130" y="-102.3" font-family="Times,serif" font-size="14.00">A25 (ar1)</text>
</g>
<!-- 29 -->
<g id="node9" class="node">
<title>29</title>
<ellipse fill="none" stroke="black" cx="1131" cy="-34" rx="50.09" ry="18"/>
<text text-anchor="middle" x="1131" y="-30.3" font-family="Times,serif" font-size="14.00">Pal (ar1)</text>
</g>
<!-- 18&#45;&gt;29 -->
<g id="edge8" class="edge">
<title>18&#45;&gt;29</title>
<path fill="none" stroke="black" stroke-dasharray="5,2" d="M1130.25,-87.7C1130.36,-79.98 1130.49,-70.71 1130.61,-62.11"/>
<polygon fill="black" stroke="black" points="1134.11,-62.15 1130.76,-52.1 1127.11,-62.05 1134.11,-62.15"/>
</g>
<!-- 19 -->
<g id="node7" class="node">
<title>19</title>
<ellipse fill="none" stroke="black" cx="1262" cy="-106" rx="59.59" ry="18"/>
<text text-anchor="middle" x="1262" y="-102.3" font-family="Times,serif" font-size="14.00">S249 (ar1)</text>
</g>
<!-- 31 -->
<g id="node10" class="node">
<title>31</title>
<ellipse fill="none" stroke="black" cx="294" cy="-106" rx="59.59" ry="18"/>
<text text-anchor="middle" x="294" y="-102.3" font-family="Times,serif" font-size="14.00">A336 (ar1)</text>
</g>
<!-- 39 -->
<g id="node11" class="node">
<title>39</title>
<ellipse fill="none" stroke="black" cx="1400" cy="-106" rx="59.59" ry="18"/>
<text text-anchor="middle" x="1400" y="-102.3" font-family="Times,serif" font-size="14.00">Patm (ar1)</text>
</g>
<!-- 42 -->
<g id="node12" class="node">
<title>42</title>
<ellipse fill="none" stroke="black" cx="435" cy="-106" rx="63.09" ry="18"/>
<text text-anchor="middle" x="435" y="-102.3" font-family="Times,serif" font-size="14.00">M118 (ar1)</text>
</g>
<!-- 2 -->
<g id="node13" class="node">
<title>2</title>
<ellipse fill="none" stroke="blue" stroke-dasharray="5,2" cx="998" cy="-179" rx="53.89" ry="18"/>
<text text-anchor="middle" x="998" y="-175.3" font-family="Times,serif" font-size="14.00">aBase (a)</text>
</g>
<!-- 2&#45;&gt;1 -->
<g id="edge1" class="edge">
<title>2&#45;&gt;1</title>
<path fill="none" stroke="black" d="M948.98,-171.27C882.58,-161.92 760.45,-143.89 657,-124 651.37,-122.92 645.52,-121.72 639.69,-120.48"/>
<polygon fill="black" stroke="black" points="640.43,-117.06 629.91,-118.35 638.94,-123.9 640.43,-117.06"/>
</g>
<!-- 2&#45;&gt;3 -->
<g id="edge2" class="edge">
<title>2&#45;&gt;3</title>
<path fill="none" stroke="black" d="M957.14,-167.22C910.85,-155 835.16,-135.02 783.77,-121.46"/>
<polygon fill="black" stroke="black" points="784.4,-118 773.84,-118.83 782.61,-124.77 784.4,-118"/>
</g>
<!-- 2&#45;&gt;9 -->
<g id="edge3" class="edge">
<title>2&#45;&gt;9</title>
<path fill="none" stroke="black" d="M970.76,-163.46C950.82,-152.81 923.52,-138.24 901.66,-126.57"/>
<polygon fill="black" stroke="black" points="903.13,-123.39 892.66,-121.76 899.83,-129.56 903.13,-123.39"/>
</g>
<!-- 2&#45;&gt;11 -->
<g id="edge4" class="edge">
<title>2&#45;&gt;11</title>
<path fill="none" stroke="black" stroke-width="2" d="M998,-160.81C998,-152.79 998,-143.05 998,-134.07"/>
<polygon fill="black" stroke="black" stroke-width="2" points="1001.5,-134.03 998,-124.03 994.5,-134.03 1001.5,-134.03"/>
</g>
<!-- 2&#45;&gt;18 -->
<g id="edge5" class="edge">
<title>2&#45;&gt;18</title>
<path fill="none" stroke="black" stroke-dasharray="5,2" d="M1025.35,-163.29C1045.17,-152.63 1072.18,-138.1 1093.79,-126.48"/>
<polygon fill="black" stroke="black" points="1095.54,-129.51 1102.68,-121.69 1092.22,-123.35 1095.54,-129.51"/>
</g>
<!-- 2&#45;&gt;19 -->
<g id="edge6" class="edge">
<title>2&#45;&gt;19</title>
<path fill="none" stroke="black" d="M1038.67,-167.06C1084.5,-154.74 1159.15,-134.66 1209.38,-121.15"/>
<polygon fill="black" stroke="black" points="1210.34,-124.52 1219.09,-118.54 1208.52,-117.76 1210.34,-124.52"/>
</g>
<!-- 2&#45;&gt;39 -->
<g id="edge10" class="edge">
<title>2&#45;&gt;39</title>
<path fill="none" stroke="black" d="M1047.03,-171.31C1112.18,-162.14 1230.72,-144.45 1331,-124 1336.01,-122.98 1341.2,-121.84 1346.39,-120.66"/>
<polygon fill="black" stroke="black" points="1347.38,-124.02 1356.32,-118.33 1345.78,-117.2 1347.38,-124.02"/>
</g>
<!-- 15 -->
<g id="node14" class="node">
<title>15</title>
<ellipse fill="none" stroke="blue" stroke-dasharray="5,2" cx="435" cy="-179" rx="46.59" ry="18"/>
<text text-anchor="middle" x="435" y="-175.3" font-family="Times,serif" font-size="14.00">Taur (a)</text>
</g>
<!-- 15&#45;&gt;42 -->
<g id="edge11" class="edge">
<title>15&#45;&gt;42</title>
<path fill="none" stroke="black" stroke-dasharray="5,2" d="M435,-160.81C435,-152.79 435,-143.05 435,-134.07"/>
<polygon fill="black" stroke="black" points="438.5,-134.03 435,-124.03 431.5,-134.03 438.5,-134.03"/>
</g>
<!-- 20 -->
<g id="node15" class="node">
<title>20</title>
<ellipse fill="none" stroke="blue" stroke-dasharray="5,2" cx="294" cy="-179" rx="52.79" ry="18"/>
<text text-anchor="middle" x="294" y="-175.3" font-family="Times,serif" font-size="14.00">M111 (a)</text>
</g>
<!-- 20&#45;&gt;31 -->
<g id="edge9" class="edge">
<title>20&#45;&gt;31</title>
<path fill="none" stroke="black" stroke-dasharray="5,2" d="M294,-160.81C294,-152.79 294,-143.05 294,-134.07"/>
<polygon fill="black" stroke="black" points="297.5,-134.03 294,-124.03 290.5,-134.03 297.5,-134.03"/>
</g>
</g>
</svg>
