<?xml version="1.0" encoding="UTF-8" standalone="no"?>
<!DOCTYPE svg PUBLIC "-//W3C//DTD SVG 1.1//EN"
 "http://www.w3.org/Graphics/SVG/1.1/DTD/svg11.dtd">
<!-- Generated by graphviz version 2.43.0 (0)
 -->
<!-- Title: textual_flow_diagram Pages: 1 -->
<svg width="570pt" height="222pt"
 viewBox="0.00 0.00 570.00 222.00" xmlns="http://www.w3.org/2000/svg" xmlns:xlink="http://www.w3.org/1999/xlink">
<g id="graph0" class="graph" transform="scale(1 1) rotate(0) translate(4 218)">
<title>textual_flow_diagram</title>
<polygon fill="white" stroke="transparent" points="-4,4 -4,-218 566,-218 566,4 -4,4"/>
<g id="clust1" class="cluster">
<title>cluster_legend</title>
<polygon fill="none" stroke="black" points="8,-152 8,-206 182,-206 182,-152 8,-152"/>
</g>
<g id="clust2" class="cluster">
<title>cluster_plot</title>
</g>
<!-- label -->
<g id="node1" class="node">
<title>label</title>
<text text-anchor="middle" x="95" y="-182.8" font-family="Times,serif" font-size="14.00">adstag1.3.43U12, b</text>
<text text-anchor="middle" x="95" y="-167.8" font-family="Times,serif" font-size="14.00">Con = 5</text>
</g>
<!-- 2 -->
<g id="node2" class="node">
<title>2</title>
<ellipse fill="none" stroke="black" cx="378" cy="-106" rx="50.09" ry="18"/>
<text text-anchor="middle" x="378" y="-102.3" font-family="Times,serif" font-size="14.00">V566 (b)</text>
</g>
<!-- 3 -->
<g id="node3" class="node">
<title>3</title>
<ellipse fill="none" stroke="black" cx="378" cy="-34" rx="55.79" ry="18"/>
<text text-anchor="middle" x="378" y="-30.3" font-family="Times,serif" font-size="14.00">V1639 (b)</text>
</g>
<!-- 2&#45;&gt;3 -->
<g id="edge2" class="edge">
<title>2&#45;&gt;3</title>
<path fill="none" stroke="black" stroke-dasharray="1,5" d="M378,-87.7C378,-79.98 378,-70.71 378,-62.11"/>
<polygon fill="black" stroke="black" points="381.5,-62.1 378,-52.1 374.5,-62.1 381.5,-62.1"/>
</g>
<!-- 22 -->
<g id="node4" class="node">
<title>22</title>
<ellipse fill="none" stroke="black" cx="254" cy="-106" rx="55.79" ry="18"/>
<text text-anchor="middle" x="254" y="-102.3" font-family="Times,serif" font-size="14.00">V1920 (b)</text>
</g>
<!-- 30 -->
<g id="node5" class="node">
<title>30</title>
<ellipse fill="none" stroke="black" cx="496" cy="-106" rx="50.09" ry="18"/>
<text text-anchor="middle" x="496" y="-102.3" font-family="Times,serif" font-size="14.00">A116 (b)</text>
</g>
<!-- 4 -->
<g id="node6" class="node">
<title>4</title>
<ellipse fill="none" stroke="blue" stroke-dasharray="5,2" cx="496" cy="-179" rx="48.99" ry="18"/>
<text text-anchor="middle" x="496" y="-175.3" font-family="Times,serif" font-size="14.00">La22 (a)</text>
</g>
<!-- 4&#45;&gt;30 -->
<g id="edge4" class="edge">
<title>4&#45;&gt;30</title>
<path fill="none" stroke="blue" stroke-dasharray="5,2" d="M496,-160.81C496,-152.79 496,-143.05 496,-134.07"/>
<polygon fill="blue" stroke="blue" points="499.5,-134.03 496,-124.03 492.5,-134.03 499.5,-134.03"/>
</g>
<!-- 8 -->
<g id="node7" class="node">
<title>8</title>
<ellipse fill="none" stroke="blue" stroke-dasharray="5,2" cx="378" cy="-179" rx="44.39" ry="18"/>
<text text-anchor="middle" x="378" y="-175.3" font-family="Times,serif" font-size="14.00">A25 (a)</text>
</g>
<!-- 8&#45;&gt;2 -->
<g id="edge1" class="edge">
<title>8&#45;&gt;2</title>
<path fill="none" stroke="blue" stroke-dasharray="5,2" d="M378,-160.81C378,-152.79 378,-143.05 378,-134.07"/>
<polygon fill="blue" stroke="blue" points="381.5,-134.03 378,-124.03 374.5,-134.03 381.5,-134.03"/>
</g>
<!-- 37 -->
<g id="node8" class="node">
<title>37</title>
<ellipse fill="none" stroke="blue" stroke-dasharray="5,2" cx="254" cy="-179" rx="50.09" ry="18"/>
<text text-anchor="middle" x="254" y="-175.3" font-family="Times,serif" font-size="14.00">V560 (a)</text>
</g>
<!-- 37&#45;&gt;22 -->
<g id="edge3" class="edge">
<title>37&#45;&gt;22</title>
<path fill="none" stroke="blue" stroke-dasharray="5,2" d="M254,-160.81C254,-152.79 254,-143.05 254,-134.07"/>
<polygon fill="blue" stroke="blue" points="257.5,-134.03 254,-124.03 250.5,-134.03 257.5,-134.03"/>
</g>
</g>
</svg>
