<?xml version="1.0" encoding="UTF-8" standalone="no"?>
<!DOCTYPE svg PUBLIC "-//W3C//DTD SVG 1.1//EN"
 "http://www.w3.org/Graphics/SVG/1.1/DTD/svg11.dtd">
<!-- Generated by graphviz version 2.43.0 (0)
 -->
<!-- Title: textual_flow_diagram Pages: 1 -->
<svg width="555pt" height="682pt"
 viewBox="0.00 0.00 555.00 682.00" xmlns="http://www.w3.org/2000/svg" xmlns:xlink="http://www.w3.org/1999/xlink">
<g id="graph0" class="graph" transform="scale(1 1) rotate(0) translate(4 678)">
<title>textual_flow_diagram</title>
<polygon fill="white" stroke="transparent" points="-4,4 -4,-678 551,-678 551,4 -4,4"/>
<g id="clust1" class="cluster">
<title>cluster_legend</title>
<polygon fill="none" stroke="black" points="8,-612 8,-666 182,-666 182,-612 8,-612"/>
</g>
<g id="clust2" class="cluster">
<title>cluster_plot</title>
</g>
<!-- label -->
<g id="node1" class="node">
<title>label</title>
<text text-anchor="middle" x="95" y="-642.8" font-family="Times,serif" font-size="14.00">adstag1.1.12U24, b</text>
<text text-anchor="middle" x="95" y="-627.8" font-family="Times,serif" font-size="14.00">Con = 5</text>
</g>
<!-- 1 -->
<g id="node2" class="node">
<title>1</title>
<ellipse fill="none" stroke="black" cx="291" cy="-180" rx="41.69" ry="18"/>
<text text-anchor="middle" x="291" y="-176.3" font-family="Times,serif" font-size="14.00">Sin (b)</text>
</g>
<!-- 6 -->
<g id="node4" class="node">
<title>6</title>
<ellipse fill="none" stroke="black" cx="291" cy="-107" rx="50.09" ry="18"/>
<text text-anchor="middle" x="291" y="-103.3" font-family="Times,serif" font-size="14.00">Marc (b)</text>
</g>
<!-- 1&#45;&gt;6 -->
<g id="edge3" class="edge">
<title>1&#45;&gt;6</title>
<path fill="none" stroke="black" stroke-dasharray="1,5" d="M291,-161.81C291,-153.79 291,-144.05 291,-135.07"/>
<polygon fill="black" stroke="black" points="294.5,-135.03 291,-125.03 287.5,-135.03 294.5,-135.03"/>
</g>
<!-- 4 -->
<g id="node3" class="node">
<title>4</title>
<ellipse fill="none" stroke="black" cx="291" cy="-34" rx="46.59" ry="18"/>
<text text-anchor="middle" x="291" y="-30.3" font-family="Times,serif" font-size="14.00">Mon (b)</text>
</g>
<!-- 6&#45;&gt;4 -->
<g id="edge2" class="edge">
<title>6&#45;&gt;4</title>
<path fill="none" stroke="black" stroke-dasharray="1,5" d="M291,-88.81C291,-80.79 291,-71.05 291,-62.07"/>
<polygon fill="black" stroke="black" points="294.5,-62.03 291,-52.03 287.5,-62.03 294.5,-62.03"/>
</g>
<!-- 8 -->
<g id="node5" class="node">
<title>8</title>
<ellipse fill="none" stroke="black" cx="265" cy="-253" rx="44.39" ry="18"/>
<text text-anchor="middle" x="265" y="-249.3" font-family="Times,serif" font-size="14.00">P18 (b)</text>
</g>
<!-- 10 -->
<g id="node6" class="node">
<title>10</title>
<ellipse fill="none" stroke="black" cx="475" cy="-409" rx="43.59" ry="18"/>
<text text-anchor="middle" x="475" y="-405.3" font-family="Times,serif" font-size="14.00">Bas (b)</text>
</g>
<!-- 14 -->
<g id="node7" class="node">
<title>14</title>
<ellipse fill="none" stroke="black" cx="375" cy="-253" rx="47.39" ry="18"/>
<text text-anchor="middle" x="375" y="-249.3" font-family="Times,serif" font-size="14.00">Taur (b)</text>
</g>
<!-- 14&#45;&gt;1 -->
<g id="edge1" class="edge">
<title>14&#45;&gt;1</title>
<path fill="none" stroke="black" stroke-dasharray="1,5" d="M356.36,-236.24C344.78,-226.46 329.73,-213.74 316.99,-202.97"/>
<polygon fill="black" stroke="black" points="318.91,-200.01 309.01,-196.23 314.39,-205.35 318.91,-200.01"/>
</g>
<!-- 40 -->
<g id="node14" class="node">
<title>40</title>
<ellipse fill="none" stroke="black" cx="401" cy="-180" rx="50.09" ry="18"/>
<text text-anchor="middle" x="401" y="-176.3" font-family="Times,serif" font-size="14.00">V569 (b)</text>
</g>
<!-- 14&#45;&gt;40 -->
<g id="edge13" class="edge">
<title>14&#45;&gt;40</title>
<path fill="none" stroke="black" stroke-dasharray="5,2" d="M381.29,-234.81C384.3,-226.62 387.95,-216.62 391.3,-207.48"/>
<polygon fill="black" stroke="black" points="394.61,-208.62 394.76,-198.03 388.04,-206.22 394.61,-208.62"/>
</g>
<!-- 17 -->
<g id="node8" class="node">
<title>17</title>
<ellipse fill="none" stroke="black" cx="475" cy="-482" rx="55.79" ry="18"/>
<text text-anchor="middle" x="475" y="-478.3" font-family="Times,serif" font-size="14.00">V1897 (b)</text>
</g>
<!-- 17&#45;&gt;10 -->
<g id="edge5" class="edge">
<title>17&#45;&gt;10</title>
<path fill="none" stroke="black" d="M475,-463.81C475,-455.79 475,-446.05 475,-437.07"/>
<polygon fill="black" stroke="black" points="478.5,-437.03 475,-427.03 471.5,-437.03 478.5,-437.03"/>
</g>
<!-- 18 -->
<g id="node9" class="node">
<title>18</title>
<ellipse fill="none" stroke="black" cx="345" cy="-336" rx="50.09" ry="18"/>
<text text-anchor="middle" x="345" y="-332.3" font-family="Times,serif" font-size="14.00">V568 (b)</text>
</g>
<!-- 18&#45;&gt;8 -->
<g id="edge4" class="edge">
<title>18&#45;&gt;8</title>
<path fill="none" stroke="black" stroke-dasharray="5,2" d="M328.81,-318.61C317.13,-306.78 301.2,-290.65 288.17,-277.46"/>
<polygon fill="black" stroke="black" points="290.41,-274.75 280.89,-270.09 285.43,-279.67 290.41,-274.75"/>
<text text-anchor="middle" x="312.5" y="-292" font-family="Times,serif" font-size="10.00">2</text>
</g>
<!-- 18&#45;&gt;14 -->
<g id="edge6" class="edge">
<title>18&#45;&gt;14</title>
<path fill="none" stroke="black" stroke-dasharray="1,5" d="M351.36,-317.82C355.37,-307.01 360.62,-292.84 365.15,-280.59"/>
<polygon fill="black" stroke="black" points="368.56,-281.47 368.75,-270.88 361.99,-279.04 368.56,-281.47"/>
</g>
<!-- 24 -->
<g id="node10" class="node">
<title>24</title>
<ellipse fill="none" stroke="black" cx="345" cy="-409" rx="50.09" ry="18"/>
<text text-anchor="middle" x="345" y="-405.3" font-family="Times,serif" font-size="14.00">V536 (b)</text>
</g>
<!-- 24&#45;&gt;18 -->
<g id="edge8" class="edge">
<title>24&#45;&gt;18</title>
<path fill="none" stroke="black" stroke-dasharray="1,5" d="M345,-390.81C345,-382.79 345,-373.05 345,-364.07"/>
<polygon fill="black" stroke="black" points="348.5,-364.03 345,-354.03 341.5,-364.03 348.5,-364.03"/>
</g>
<!-- 28 -->
<g id="node11" class="node">
<title>28</title>
<ellipse fill="none" stroke="black" cx="345" cy="-482" rx="55.79" ry="18"/>
<text text-anchor="middle" x="345" y="-478.3" font-family="Times,serif" font-size="14.00">V1629 (b)</text>
</g>
<!-- 28&#45;&gt;24 -->
<g id="edge9" class="edge">
<title>28&#45;&gt;24</title>
<path fill="none" stroke="black" stroke-dasharray="5,2" d="M345,-463.81C345,-455.79 345,-446.05 345,-437.07"/>
<polygon fill="black" stroke="black" points="348.5,-437.03 345,-427.03 341.5,-437.03 348.5,-437.03"/>
</g>
<!-- 29 -->
<g id="node12" class="node">
<title>29</title>
<ellipse fill="none" stroke="black" cx="248" cy="-565" rx="50.09" ry="18"/>
<text text-anchor="middle" x="248" y="-561.3" font-family="Times,serif" font-size="14.00">V565 (b)</text>
</g>
<!-- 38 -->
<g id="node13" class="node">
<title>38</title>
<ellipse fill="none" stroke="black" cx="369" cy="-565" rx="53.09" ry="18"/>
<text text-anchor="middle" x="369" y="-561.3" font-family="Times,serif" font-size="14.00">M136 (b)</text>
</g>
<!-- 38&#45;&gt;28 -->
<g id="edge10" class="edge">
<title>38&#45;&gt;28</title>
<path fill="none" stroke="black" stroke-dasharray="5,2" d="M363.91,-546.82C360.73,-536.08 356.56,-522.03 352.95,-509.84"/>
<polygon fill="black" stroke="black" points="356.28,-508.75 350.08,-500.15 349.57,-510.74 356.28,-508.75"/>
<text text-anchor="middle" x="361.5" y="-521" font-family="Times,serif" font-size="10.00">2</text>
</g>
<!-- 42 -->
<g id="node15" class="node">
<title>42</title>
<ellipse fill="none" stroke="black" cx="486" cy="-565" rx="45.49" ry="18"/>
<text text-anchor="middle" x="486" y="-561.3" font-family="Times,serif" font-size="14.00">Nan (b)</text>
</g>
<!-- 42&#45;&gt;17 -->
<g id="edge7" class="edge">
<title>42&#45;&gt;17</title>
<path fill="none" stroke="black" stroke-dasharray="1,5" d="M483.67,-546.82C482.22,-536.19 480.34,-522.31 478.69,-510.2"/>
<polygon fill="black" stroke="black" points="482.14,-509.59 477.33,-500.15 475.21,-510.53 482.14,-509.59"/>
</g>
<!-- 11 -->
<g id="node16" class="node">
<title>11</title>
<ellipse fill="none" stroke="blue" stroke-dasharray="5,2" cx="423" cy="-639" rx="53.89" ry="18"/>
<text text-anchor="middle" x="423" y="-635.3" font-family="Times,serif" font-size="14.00">aBase (a)</text>
</g>
<!-- 11&#45;&gt;38 -->
<g id="edge12" class="edge">
<title>11&#45;&gt;38</title>
<path fill="none" stroke="blue" stroke-width="2" d="M410.48,-621.3C403.66,-612.21 395.1,-600.8 387.52,-590.7"/>
<polygon fill="blue" stroke="blue" stroke-width="2" points="390.26,-588.51 381.46,-582.61 384.66,-592.71 390.26,-588.51"/>
</g>
<!-- 11&#45;&gt;42 -->
<g id="edge14" class="edge">
<title>11&#45;&gt;42</title>
<path fill="none" stroke="blue" d="M437.61,-621.3C445.64,-612.12 455.75,-600.57 464.65,-590.4"/>
<polygon fill="blue" stroke="blue" points="467.52,-592.44 471.47,-582.61 462.25,-587.83 467.52,-592.44"/>
</g>
<!-- 27 -->
<g id="node17" class="node">
<title>27</title>
<ellipse fill="none" stroke="blue" stroke-dasharray="5,2" cx="248" cy="-639" rx="48.99" ry="18"/>
<text text-anchor="middle" x="248" y="-635.3" font-family="Times,serif" font-size="14.00">La22 (a)</text>
</g>
<!-- 27&#45;&gt;29 -->
<g id="edge11" class="edge">
<title>27&#45;&gt;29</title>
<path fill="none" stroke="blue" stroke-dasharray="5,2" d="M248,-620.94C248,-612.81 248,-602.88 248,-593.7"/>
<polygon fill="blue" stroke="blue" points="251.5,-593.44 248,-583.44 244.5,-593.44 251.5,-593.44"/>
</g>
</g>
</svg>
