<?xml version="1.0" encoding="UTF-8" standalone="no"?>
<!DOCTYPE svg PUBLIC "-//W3C//DTD SVG 1.1//EN"
 "http://www.w3.org/Graphics/SVG/1.1/DTD/svg11.dtd">
<!-- Generated by graphviz version 2.43.0 (0)
 -->
<!-- Title: textual_flow_diagram Pages: 1 -->
<svg width="442pt" height="222pt"
 viewBox="0.00 0.00 442.00 222.00" xmlns="http://www.w3.org/2000/svg" xmlns:xlink="http://www.w3.org/1999/xlink">
<g id="graph0" class="graph" transform="scale(1 1) rotate(0) translate(4 218)">
<title>textual_flow_diagram</title>
<polygon fill="white" stroke="transparent" points="-4,4 -4,-218 438,-218 438,4 -4,4"/>
<g id="clust1" class="cluster">
<title>cluster_legend</title>
<polygon fill="none" stroke="black" points="8,-152 8,-206 196,-206 196,-152 8,-152"/>
</g>
<g id="clust2" class="cluster">
<title>cluster_plot</title>
</g>
<!-- label -->
<g id="node1" class="node">
<title>label</title>
<text text-anchor="middle" x="102" y="-182.8" font-family="Times,serif" font-size="14.00">adstag1.3.55U4&#45;16, d</text>
<text text-anchor="middle" x="102" y="-167.8" font-family="Times,serif" font-size="14.00">Con = 5</text>
</g>
<!-- 15 -->
<g id="node2" class="node">
<title>15</title>
<ellipse fill="none" stroke="black" cx="262" cy="-106" rx="50.09" ry="18"/>
<text text-anchor="middle" x="262" y="-102.3" font-family="Times,serif" font-size="14.00">V560 (d)</text>
</g>
<!-- 18 -->
<g id="node3" class="node">
<title>18</title>
<ellipse fill="none" stroke="black" cx="268" cy="-34" rx="55.79" ry="18"/>
<text text-anchor="middle" x="268" y="-30.3" font-family="Times,serif" font-size="14.00">V1920 (d)</text>
</g>
<!-- 15&#45;&gt;18 -->
<g id="edge2" class="edge">
<title>15&#45;&gt;18</title>
<path fill="none" stroke="black" stroke-dasharray="5,2" d="M263.48,-87.7C264.14,-79.98 264.94,-70.71 265.68,-62.11"/>
<polygon fill="black" stroke="black" points="269.17,-62.37 266.53,-52.1 262.19,-61.77 269.17,-62.37"/>
</g>
<!-- 29 -->
<g id="node4" class="node">
<title>29</title>
<ellipse fill="none" stroke="black" cx="374" cy="-106" rx="43.59" ry="18"/>
<text text-anchor="middle" x="374" y="-102.3" font-family="Times,serif" font-size="14.00">La2 (d)</text>
</g>
<!-- 20 -->
<g id="node5" class="node">
<title>20</title>
<ellipse fill="none" stroke="blue" stroke-dasharray="5,2" cx="315" cy="-179" rx="53.89" ry="18"/>
<text text-anchor="middle" x="315" y="-175.3" font-family="Times,serif" font-size="14.00">aBase (a)</text>
</g>
<!-- 20&#45;&gt;15 -->
<g id="edge1" class="edge">
<title>20&#45;&gt;15</title>
<path fill="none" stroke="blue" stroke-width="2" d="M302.44,-161.17C295.91,-152.42 287.79,-141.55 280.55,-131.85"/>
<polygon fill="blue" stroke="blue" stroke-width="2" points="283.26,-129.63 274.47,-123.71 277.65,-133.81 283.26,-129.63"/>
</g>
<!-- 20&#45;&gt;29 -->
<g id="edge3" class="edge">
<title>20&#45;&gt;29</title>
<path fill="none" stroke="blue" stroke-width="2" d="M328.68,-161.53C336.13,-152.57 345.49,-141.31 353.76,-131.36"/>
<polygon fill="blue" stroke="blue" stroke-width="2" points="356.69,-133.31 360.39,-123.38 351.31,-128.83 356.69,-133.31"/>
</g>
</g>
</svg>
