<?xml version="1.0" encoding="UTF-8" standalone="no"?>
<!DOCTYPE svg PUBLIC "-//W3C//DTD SVG 1.1//EN"
 "http://www.w3.org/Graphics/SVG/1.1/DTD/svg11.dtd">
<!-- Generated by graphviz version 2.43.0 (0)
 -->
<!-- Title: textual_flow_diagram Pages: 1 -->
<svg width="2094pt" height="294pt"
 viewBox="0.00 0.00 2094.00 294.00" xmlns="http://www.w3.org/2000/svg" xmlns:xlink="http://www.w3.org/1999/xlink">
<g id="graph0" class="graph" transform="scale(1 1) rotate(0) translate(4 290)">
<title>textual_flow_diagram</title>
<polygon fill="white" stroke="transparent" points="-4,4 -4,-290 2090,-290 2090,4 -4,4"/>
<g id="clust1" class="cluster">
<title>cluster_legend</title>
<polygon fill="none" stroke="black" points="8,-224 8,-278 194,-278 194,-224 8,-224"/>
</g>
<g id="clust2" class="cluster">
<title>cluster_plot</title>
</g>
<!-- label -->
<g id="node1" class="node">
<title>label</title>
<text text-anchor="middle" x="101" y="-254.8" font-family="Times,serif" font-size="14.00">adstag1.3.12U8&#45;10, a</text>
<text text-anchor="middle" x="101" y="-239.8" font-family="Times,serif" font-size="14.00">Con = 10</text>
</g>
<!-- 0 -->
<g id="node2" class="node">
<title>0</title>
<ellipse fill="none" stroke="black" cx="1199" cy="-106" rx="52.79" ry="18"/>
<text text-anchor="middle" x="1199" y="-102.3" font-family="Times,serif" font-size="14.00">M111 (a)</text>
</g>
<!-- 18 -->
<g id="node14" class="node">
<title>18</title>
<ellipse fill="none" stroke="black" cx="1199" cy="-34" rx="50.09" ry="18"/>
<text text-anchor="middle" x="1199" y="-30.3" font-family="Times,serif" font-size="14.00">A336 (a)</text>
</g>
<!-- 0&#45;&gt;18 -->
<g id="edge13" class="edge">
<title>0&#45;&gt;18</title>
<path fill="none" stroke="black" stroke-dasharray="5,2" d="M1199,-87.7C1199,-79.98 1199,-70.71 1199,-62.11"/>
<polygon fill="black" stroke="black" points="1202.5,-62.1 1199,-52.1 1195.5,-62.1 1202.5,-62.1"/>
</g>
<!-- 2 -->
<g id="node3" class="node">
<title>2</title>
<ellipse fill="none" stroke="black" cx="1320" cy="-106" rx="50.09" ry="18"/>
<text text-anchor="middle" x="1320" y="-102.3" font-family="Times,serif" font-size="14.00">A116 (a)</text>
</g>
<!-- 3 -->
<g id="node4" class="node">
<title>3</title>
<ellipse fill="none" stroke="black" cx="1438" cy="-106" rx="50.09" ry="18"/>
<text text-anchor="middle" x="1438" y="-102.3" font-family="Times,serif" font-size="14.00">V565 (a)</text>
</g>
<!-- 6 -->
<g id="node5" class="node">
<title>6</title>
<ellipse fill="none" stroke="black" cx="1562" cy="-106" rx="55.79" ry="18"/>
<text text-anchor="middle" x="1562" y="-102.3" font-family="Times,serif" font-size="14.00">V2036 (a)</text>
</g>
<!-- 7 -->
<g id="node6" class="node">
<title>7</title>
<ellipse fill="none" stroke="black" cx="1680" cy="-106" rx="44.39" ry="18"/>
<text text-anchor="middle" x="1680" y="-102.3" font-family="Times,serif" font-size="14.00">P74 (a)</text>
</g>
<!-- 8 -->
<g id="node7" class="node">
<title>8</title>
<ellipse fill="none" stroke="black" cx="390" cy="-106" rx="50.09" ry="18"/>
<text text-anchor="middle" x="390" y="-102.3" font-family="Times,serif" font-size="14.00">V566 (a)</text>
</g>
<!-- 12 -->
<g id="node9" class="node">
<title>12</title>
<ellipse fill="none" stroke="black" cx="390" cy="-34" rx="55.79" ry="18"/>
<text text-anchor="middle" x="390" y="-30.3" font-family="Times,serif" font-size="14.00">V1639 (a)</text>
</g>
<!-- 8&#45;&gt;12 -->
<g id="edge8" class="edge">
<title>8&#45;&gt;12</title>
<path fill="none" stroke="black" stroke-dasharray="1,5" d="M390,-87.7C390,-79.98 390,-70.71 390,-62.11"/>
<polygon fill="black" stroke="black" points="393.5,-62.1 390,-52.1 386.5,-62.1 393.5,-62.1"/>
</g>
<!-- 10 -->
<g id="node8" class="node">
<title>10</title>
<ellipse fill="none" stroke="black" cx="324" cy="-178" rx="50.09" ry="18"/>
<text text-anchor="middle" x="324" y="-174.3" font-family="Times,serif" font-size="14.00">Neap (a)</text>
</g>
<!-- 24 -->
<g id="node18" class="node">
<title>24</title>
<ellipse fill="none" stroke="black" cx="266" cy="-106" rx="55.79" ry="18"/>
<text text-anchor="middle" x="266" y="-102.3" font-family="Times,serif" font-size="14.00">V1629 (a)</text>
</g>
<!-- 10&#45;&gt;24 -->
<g id="edge17" class="edge">
<title>10&#45;&gt;24</title>
<path fill="none" stroke="black" stroke-dasharray="1,5" d="M310.25,-160.41C303.03,-151.69 294.04,-140.85 286.06,-131.21"/>
<polygon fill="black" stroke="black" points="288.72,-128.94 279.65,-123.47 283.33,-133.4 288.72,-128.94"/>
</g>
<!-- 13 -->
<g id="node10" class="node">
<title>13</title>
<ellipse fill="none" stroke="black" cx="502" cy="-106" rx="44.39" ry="18"/>
<text text-anchor="middle" x="502" y="-102.3" font-family="Times,serif" font-size="14.00">S32 (a)</text>
</g>
<!-- 14 -->
<g id="node11" class="node">
<title>14</title>
<ellipse fill="none" stroke="black" cx="439" cy="-178" rx="42.79" ry="18"/>
<text text-anchor="middle" x="439" y="-174.3" font-family="Times,serif" font-size="14.00">La2 (a)</text>
</g>
<!-- 16 -->
<g id="node12" class="node">
<title>16</title>
<ellipse fill="none" stroke="black" cx="553" cy="-178" rx="52.79" ry="18"/>
<text text-anchor="middle" x="553" y="-174.3" font-family="Times,serif" font-size="14.00">M136 (a)</text>
</g>
<!-- 17 -->
<g id="node13" class="node">
<title>17</title>
<ellipse fill="none" stroke="black" cx="1791" cy="-106" rx="48.99" ry="18"/>
<text text-anchor="middle" x="1791" y="-102.3" font-family="Times,serif" font-size="14.00">La35 (a)</text>
</g>
<!-- 19 -->
<g id="node15" class="node">
<title>19</title>
<ellipse fill="none" stroke="black" cx="1908" cy="-106" rx="50.09" ry="18"/>
<text text-anchor="middle" x="1908" y="-102.3" font-family="Times,serif" font-size="14.00">V571 (a)</text>
</g>
<!-- 21 -->
<g id="node16" class="node">
<title>21</title>
<ellipse fill="none" stroke="black" cx="668" cy="-178" rx="44.39" ry="18"/>
<text text-anchor="middle" x="668" y="-174.3" font-family="Times,serif" font-size="14.00">A25 (a)</text>
</g>
<!-- 21&#45;&gt;8 -->
<g id="edge6" class="edge">
<title>21&#45;&gt;8</title>
<path fill="none" stroke="black" stroke-dasharray="5,2" d="M635.07,-165.89C628.46,-163.82 621.53,-161.75 615,-160 542.08,-140.45 522.2,-142.46 449,-124 445.16,-123.03 441.18,-121.98 437.2,-120.9"/>
<polygon fill="black" stroke="black" points="437.92,-117.47 427.35,-118.17 436.05,-124.22 437.92,-117.47"/>
</g>
<!-- 21&#45;&gt;13 -->
<g id="edge9" class="edge">
<title>21&#45;&gt;13</title>
<path fill="none" stroke="black" stroke-dasharray="5,2" d="M638.32,-164.49C611.14,-153.02 570.73,-135.98 540.96,-123.43"/>
<polygon fill="black" stroke="black" points="542.27,-120.18 531.7,-119.52 539.55,-126.63 542.27,-120.18"/>
</g>
<!-- 34 -->
<g id="node22" class="node">
<title>34</title>
<ellipse fill="none" stroke="black" cx="614" cy="-106" rx="50.09" ry="18"/>
<text text-anchor="middle" x="614" y="-102.3" font-family="Times,serif" font-size="14.00">Patm (a)</text>
</g>
<!-- 21&#45;&gt;34 -->
<g id="edge21" class="edge">
<title>21&#45;&gt;34</title>
<path fill="none" stroke="black" stroke-dasharray="1,5" d="M655.2,-160.41C648.54,-151.78 640.28,-141.06 632.9,-131.5"/>
<polygon fill="black" stroke="black" points="635.58,-129.25 626.71,-123.47 630.04,-133.53 635.58,-129.25"/>
</g>
<!-- 36 -->
<g id="node24" class="node">
<title>36</title>
<ellipse fill="none" stroke="black" cx="722" cy="-106" rx="40.09" ry="18"/>
<text text-anchor="middle" x="722" y="-102.3" font-family="Times,serif" font-size="14.00">Pal (a)</text>
</g>
<!-- 21&#45;&gt;36 -->
<g id="edge23" class="edge">
<title>21&#45;&gt;36</title>
<path fill="none" stroke="black" stroke-dasharray="5,2" d="M680.8,-160.41C687.46,-151.78 695.72,-141.06 703.1,-131.5"/>
<polygon fill="black" stroke="black" points="705.96,-133.53 709.29,-123.47 700.42,-129.25 705.96,-133.53"/>
</g>
<!-- 37 -->
<g id="node25" class="node">
<title>37</title>
<ellipse fill="none" stroke="black" cx="824" cy="-106" rx="44.39" ry="18"/>
<text text-anchor="middle" x="824" y="-102.3" font-family="Times,serif" font-size="14.00">P01 (a)</text>
</g>
<!-- 21&#45;&gt;37 -->
<g id="edge24" class="edge">
<title>21&#45;&gt;37</title>
<path fill="none" stroke="black" stroke-dasharray="5,2" d="M696.61,-164.16C721.71,-152.9 758.4,-136.43 785.97,-124.07"/>
<polygon fill="black" stroke="black" points="787.61,-127.16 795.3,-119.88 784.75,-120.78 787.61,-127.16"/>
</g>
<!-- 23 -->
<g id="node17" class="node">
<title>23</title>
<ellipse fill="none" stroke="black" cx="942" cy="-178" rx="44.69" ry="18"/>
<text text-anchor="middle" x="942" y="-174.3" font-family="Times,serif" font-size="14.00">Nan (a)</text>
</g>
<!-- 25 -->
<g id="node19" class="node">
<title>25</title>
<ellipse fill="none" stroke="black" cx="942" cy="-106" rx="55.79" ry="18"/>
<text text-anchor="middle" x="942" y="-102.3" font-family="Times,serif" font-size="14.00">V2250 (a)</text>
</g>
<!-- 23&#45;&gt;25 -->
<g id="edge18" class="edge">
<title>23&#45;&gt;25</title>
<path fill="none" stroke="black" stroke-dasharray="5,2" d="M942,-159.7C942,-151.98 942,-142.71 942,-134.11"/>
<polygon fill="black" stroke="black" points="945.5,-134.1 942,-124.1 938.5,-134.1 945.5,-134.1"/>
</g>
<!-- 42 -->
<g id="node28" class="node">
<title>42</title>
<ellipse fill="none" stroke="black" cx="1072" cy="-106" rx="55.79" ry="18"/>
<text text-anchor="middle" x="1072" y="-102.3" font-family="Times,serif" font-size="14.00">V1897 (a)</text>
</g>
<!-- 23&#45;&gt;42 -->
<g id="edge26" class="edge">
<title>23&#45;&gt;42</title>
<path fill="none" stroke="black" stroke-dasharray="1,5" d="M967.68,-163.17C987.11,-152.71 1014.03,-138.21 1035.67,-126.56"/>
<polygon fill="black" stroke="black" points="1037.43,-129.59 1044.57,-121.77 1034.11,-123.43 1037.43,-129.59"/>
</g>
<!-- 26 -->
<g id="node20" class="node">
<title>26</title>
<ellipse fill="none" stroke="black" cx="1562" cy="-178" rx="48.99" ry="18"/>
<text text-anchor="middle" x="1562" y="-174.3" font-family="Times,serif" font-size="14.00">La22 (a)</text>
</g>
<!-- 26&#45;&gt;0 -->
<g id="edge1" class="edge">
<title>26&#45;&gt;0</title>
<path fill="none" stroke="black" stroke-dasharray="1,5" d="M1517.62,-170.51C1458.68,-161.6 1351.47,-144.32 1261,-124 1256.66,-123.02 1252.16,-121.94 1247.67,-120.8"/>
<polygon fill="black" stroke="black" points="1248.45,-117.39 1237.89,-118.26 1246.68,-124.17 1248.45,-117.39"/>
</g>
<!-- 26&#45;&gt;2 -->
<g id="edge2" class="edge">
<title>26&#45;&gt;2</title>
<path fill="none" stroke="black" stroke-dasharray="5,2" d="M1524.72,-166.22C1482.47,-154 1413.53,-134.05 1367.47,-120.73"/>
<polygon fill="black" stroke="black" points="1368.3,-117.33 1357.72,-117.91 1366.36,-124.05 1368.3,-117.33"/>
</g>
<!-- 26&#45;&gt;3 -->
<g id="edge3" class="edge">
<title>26&#45;&gt;3</title>
<path fill="none" stroke="black" stroke-dasharray="5,2" d="M1536.31,-162.5C1517.85,-152.08 1492.77,-137.92 1472.56,-126.51"/>
<polygon fill="black" stroke="black" points="1474.09,-123.35 1463.66,-121.49 1470.65,-129.45 1474.09,-123.35"/>
</g>
<!-- 26&#45;&gt;6 -->
<g id="edge4" class="edge">
<title>26&#45;&gt;6</title>
<path fill="none" stroke="black" stroke-dasharray="5,2" d="M1562,-159.7C1562,-151.98 1562,-142.71 1562,-134.11"/>
<polygon fill="black" stroke="black" points="1565.5,-134.1 1562,-124.1 1558.5,-134.1 1565.5,-134.1"/>
</g>
<!-- 26&#45;&gt;7 -->
<g id="edge5" class="edge">
<title>26&#45;&gt;7</title>
<path fill="none" stroke="black" stroke-dasharray="1,5" d="M1586.74,-162.33C1604.36,-151.87 1628.21,-137.72 1647.39,-126.35"/>
<polygon fill="black" stroke="black" points="1649.29,-129.29 1656.1,-121.18 1645.72,-123.27 1649.29,-129.29"/>
</g>
<!-- 26&#45;&gt;17 -->
<g id="edge12" class="edge">
<title>26&#45;&gt;17</title>
<path fill="none" stroke="black" stroke-dasharray="1,5" d="M1598.29,-165.91C1637.95,-153.78 1701.6,-134.33 1744.8,-121.12"/>
<polygon fill="black" stroke="black" points="1745.97,-124.43 1754.51,-118.16 1743.92,-117.73 1745.97,-124.43"/>
</g>
<!-- 26&#45;&gt;19 -->
<g id="edge14" class="edge">
<title>26&#45;&gt;19</title>
<path fill="none" stroke="black" stroke-dasharray="1,5" d="M1606.04,-170.24C1662.61,-161.25 1763.68,-144.12 1849,-124 1853.03,-123.05 1857.19,-122 1861.35,-120.9"/>
<polygon fill="black" stroke="black" points="1862.28,-124.27 1871.01,-118.26 1860.44,-117.52 1862.28,-124.27"/>
</g>
<!-- 39 -->
<g id="node26" class="node">
<title>39</title>
<ellipse fill="none" stroke="black" cx="2023" cy="-106" rx="46.59" ry="18"/>
<text text-anchor="middle" x="2023" y="-102.3" font-family="Times,serif" font-size="14.00">Bodl (a)</text>
</g>
<!-- 26&#45;&gt;39 -->
<g id="edge25" class="edge">
<title>26&#45;&gt;39</title>
<path fill="none" stroke="black" stroke-dasharray="5,2" d="M1609.2,-173.36C1685.2,-166.94 1839.11,-151.58 1967,-124 1970.91,-123.16 1974.94,-122.17 1978.97,-121.11"/>
<polygon fill="black" stroke="black" points="1980.19,-124.4 1988.88,-118.33 1978.31,-117.66 1980.19,-124.4"/>
</g>
<!-- 33 -->
<g id="node21" class="node">
<title>33</title>
<ellipse fill="none" stroke="black" cx="978" cy="-34" rx="41.69" ry="18"/>
<text text-anchor="middle" x="978" y="-30.3" font-family="Times,serif" font-size="14.00">Est (a)</text>
</g>
<!-- 35 -->
<g id="node23" class="node">
<title>35</title>
<ellipse fill="none" stroke="black" cx="1080" cy="-34" rx="42.79" ry="18"/>
<text text-anchor="middle" x="1080" y="-30.3" font-family="Times,serif" font-size="14.00">Bas (a)</text>
</g>
<!-- 40 -->
<g id="node27" class="node">
<title>40</title>
<ellipse fill="none" stroke="black" cx="610" cy="-251" rx="53.89" ry="18"/>
<text text-anchor="middle" x="610" y="-247.3" font-family="Times,serif" font-size="14.00">aBase (a)</text>
</g>
<!-- 40&#45;&gt;10 -->
<g id="edge7" class="edge">
<title>40&#45;&gt;10</title>
<path fill="none" stroke="black" stroke-width="2" d="M567.17,-239.98C522.21,-229.38 449.52,-212 387,-196 382.31,-194.8 377.43,-193.53 372.55,-192.24"/>
<polygon fill="black" stroke="black" stroke-width="2" points="373.17,-188.78 362.61,-189.59 371.37,-195.54 373.17,-188.78"/>
</g>
<!-- 40&#45;&gt;14 -->
<g id="edge10" class="edge">
<title>40&#45;&gt;14</title>
<path fill="none" stroke="black" stroke-width="2" d="M577.43,-236.48C549.02,-224.68 507.74,-207.54 477.65,-195.05"/>
<polygon fill="black" stroke="black" stroke-width="2" points="478.88,-191.77 468.31,-191.17 476.2,-198.24 478.88,-191.77"/>
</g>
<!-- 40&#45;&gt;16 -->
<g id="edge11" class="edge">
<title>40&#45;&gt;16</title>
<path fill="none" stroke="black" stroke-width="2" d="M596.78,-233.53C589.69,-224.7 580.81,-213.63 572.9,-203.78"/>
<polygon fill="black" stroke="black" stroke-width="2" points="575.53,-201.48 566.54,-195.87 570.08,-205.86 575.53,-201.48"/>
</g>
<!-- 40&#45;&gt;21 -->
<g id="edge15" class="edge">
<title>40&#45;&gt;21</title>
<path fill="none" stroke="black" stroke-dasharray="5,2" d="M623.45,-233.53C630.77,-224.57 639.97,-213.31 648.1,-203.36"/>
<polygon fill="black" stroke="black" points="651,-205.34 654.62,-195.38 645.58,-200.91 651,-205.34"/>
</g>
<!-- 40&#45;&gt;23 -->
<g id="edge16" class="edge">
<title>40&#45;&gt;23</title>
<path fill="none" stroke="black" d="M654.09,-240.57C716.2,-227.29 829.08,-203.15 893.5,-189.37"/>
<polygon fill="black" stroke="black" points="894.36,-192.77 903.41,-187.25 892.9,-185.92 894.36,-192.77"/>
</g>
<!-- 40&#45;&gt;26 -->
<g id="edge19" class="edge">
<title>40&#45;&gt;26</title>
<path fill="none" stroke="black" stroke-dasharray="5,2" d="M662.2,-246.11C826.65,-233.84 1333.23,-196.06 1504.63,-183.28"/>
<polygon fill="black" stroke="black" points="1505,-186.76 1514.71,-182.53 1504.48,-179.78 1505,-186.76"/>
</g>
<!-- 42&#45;&gt;33 -->
<g id="edge20" class="edge">
<title>42&#45;&gt;33</title>
<path fill="none" stroke="black" stroke-dasharray="1,5" d="M1050.67,-89.12C1037.45,-79.27 1020.32,-66.51 1006.01,-55.86"/>
<polygon fill="black" stroke="black" points="1008.07,-53.03 997.96,-49.86 1003.89,-58.64 1008.07,-53.03"/>
</g>
<!-- 42&#45;&gt;35 -->
<g id="edge22" class="edge">
<title>42&#45;&gt;35</title>
<path fill="none" stroke="black" d="M1073.98,-87.7C1074.86,-79.98 1075.92,-70.71 1076.9,-62.11"/>
<polygon fill="black" stroke="black" points="1080.39,-62.44 1078.05,-52.1 1073.43,-61.64 1080.39,-62.44"/>
</g>
</g>
</svg>
