<?xml version="1.0" encoding="UTF-8" standalone="no"?>
<!DOCTYPE svg PUBLIC "-//W3C//DTD SVG 1.1//EN"
 "http://www.w3.org/Graphics/SVG/1.1/DTD/svg11.dtd">
<!-- Generated by graphviz version 2.43.0 (0)
 -->
<!-- Title: textual_flow_diagram Pages: 1 -->
<svg width="334pt" height="161pt"
 viewBox="0.00 0.00 334.00 161.00" xmlns="http://www.w3.org/2000/svg" xmlns:xlink="http://www.w3.org/1999/xlink">
<g id="graph0" class="graph" transform="scale(1 1) rotate(0) translate(4 157)">
<title>textual_flow_diagram</title>
<polygon fill="white" stroke="transparent" points="-4,4 -4,-157 330,-157 330,4 -4,4"/>
<g id="clust1" class="cluster">
<title>cluster_legend</title>
<polygon fill="none" stroke="black" points="8,-91 8,-145 186,-145 186,-91 8,-91"/>
</g>
<g id="clust2" class="cluster">
<title>cluster_plot</title>
</g>
<!-- label -->
<g id="node1" class="node">
<title>label</title>
<text text-anchor="middle" x="97" y="-121.8" font-family="Times,serif" font-size="14.00">adstag1.3.22U4&#45;6, a</text>
<text text-anchor="middle" x="97" y="-106.8" font-family="Times,serif" font-size="14.00">Con = 5</text>
</g>
<!-- 9 -->
<g id="node2" class="node">
<title>9</title>
<ellipse fill="none" stroke="black" cx="256" cy="-34" rx="42.79" ry="18"/>
<text text-anchor="middle" x="256" y="-30.3" font-family="Times,serif" font-size="14.00">Bas (a)</text>
</g>
<!-- 36 -->
<g id="node3" class="node">
<title>36</title>
<ellipse fill="none" stroke="black" cx="256" cy="-118" rx="53.89" ry="18"/>
<text text-anchor="middle" x="256" y="-114.3" font-family="Times,serif" font-size="14.00">aBase (a)</text>
</g>
<!-- 36&#45;&gt;9 -->
<g id="edge1" class="edge">
<title>36&#45;&gt;9</title>
<path fill="none" stroke="black" stroke-width="2" d="M256,-99.61C256,-88.77 256,-74.6 256,-62.29"/>
<polygon fill="black" stroke="black" stroke-width="2" points="259.5,-62.08 256,-52.08 252.5,-62.08 259.5,-62.08"/>
<text text-anchor="middle" x="259.5" y="-73" font-family="Times,serif" font-size="10.00">3</text>
</g>
</g>
</svg>
