<?xml version="1.0" encoding="UTF-8" standalone="no"?>
<!DOCTYPE svg PUBLIC "-//W3C//DTD SVG 1.1//EN"
 "http://www.w3.org/Graphics/SVG/1.1/DTD/svg11.dtd">
<!-- Generated by graphviz version 2.43.0 (0)
 -->
<!-- Title: textual_flow_diagram Pages: 1 -->
<svg width="1247pt" height="380pt"
 viewBox="0.00 0.00 1247.00 380.00" xmlns="http://www.w3.org/2000/svg" xmlns:xlink="http://www.w3.org/1999/xlink">
<g id="graph0" class="graph" transform="scale(1 1) rotate(0) translate(4 376)">
<title>textual_flow_diagram</title>
<polygon fill="white" stroke="transparent" points="-4,4 -4,-376 1243,-376 1243,4 -4,4"/>
<g id="clust1" class="cluster">
<title>cluster_legend</title>
<polygon fill="none" stroke="black" points="8,-310 8,-364 182,-364 182,-310 8,-310"/>
</g>
<g id="clust2" class="cluster">
<title>cluster_plot</title>
</g>
<!-- label -->
<g id="node1" class="node">
<title>label</title>
<text text-anchor="middle" x="95" y="-340.8" font-family="Times,serif" font-size="14.00">adstag1.1.12U24, a</text>
<text text-anchor="middle" x="95" y="-325.8" font-family="Times,serif" font-size="14.00">Con = 5</text>
</g>
<!-- 0 -->
<g id="node2" class="node">
<title>0</title>
<ellipse fill="none" stroke="black" cx="366" cy="-253" rx="44.39" ry="18"/>
<text text-anchor="middle" x="366" y="-249.3" font-family="Times,serif" font-size="14.00">A25 (a)</text>
</g>
<!-- 15 -->
<g id="node10" class="node">
<title>15</title>
<ellipse fill="none" stroke="black" cx="238" cy="-180" rx="40.09" ry="18"/>
<text text-anchor="middle" x="238" y="-176.3" font-family="Times,serif" font-size="14.00">Pal (a)</text>
</g>
<!-- 0&#45;&gt;15 -->
<g id="edge8" class="edge">
<title>0&#45;&gt;15</title>
<path fill="none" stroke="black" stroke-dasharray="5,2" d="M341.02,-238.14C321.15,-227.12 293.19,-211.61 271.4,-199.53"/>
<polygon fill="black" stroke="black" points="272.93,-196.37 262.49,-194.58 269.53,-202.49 272.93,-196.37"/>
</g>
<!-- 19 -->
<g id="node12" class="node">
<title>19</title>
<ellipse fill="none" stroke="black" cx="346" cy="-180" rx="50.09" ry="18"/>
<text text-anchor="middle" x="346" y="-176.3" font-family="Times,serif" font-size="14.00">V566 (a)</text>
</g>
<!-- 0&#45;&gt;19 -->
<g id="edge10" class="edge">
<title>0&#45;&gt;19</title>
<path fill="none" stroke="black" stroke-dasharray="5,2" d="M361.16,-234.81C358.87,-226.7 356.09,-216.84 353.54,-207.78"/>
<polygon fill="black" stroke="black" points="356.88,-206.71 350.8,-198.03 350.14,-208.6 356.88,-206.71"/>
</g>
<!-- 22 -->
<g id="node14" class="node">
<title>22</title>
<ellipse fill="none" stroke="black" cx="458" cy="-180" rx="44.39" ry="18"/>
<text text-anchor="middle" x="458" y="-176.3" font-family="Times,serif" font-size="14.00">S32 (a)</text>
</g>
<!-- 0&#45;&gt;22 -->
<g id="edge12" class="edge">
<title>0&#45;&gt;22</title>
<path fill="none" stroke="black" stroke-dasharray="5,2" d="M385.96,-236.59C398.95,-226.57 416.07,-213.36 430.36,-202.33"/>
<polygon fill="black" stroke="black" points="432.61,-205.01 438.39,-196.13 428.34,-199.47 432.61,-205.01"/>
</g>
<!-- 27 -->
<g id="node18" class="node">
<title>27</title>
<ellipse fill="none" stroke="black" cx="569" cy="-180" rx="48.99" ry="18"/>
<text text-anchor="middle" x="569" y="-176.3" font-family="Times,serif" font-size="14.00">La22 (a)</text>
</g>
<!-- 0&#45;&gt;27 -->
<g id="edge16" class="edge">
<title>0&#45;&gt;27</title>
<path fill="none" stroke="black" stroke-dasharray="1,5" d="M398.62,-240.59C432.88,-228.61 486.96,-209.69 524.99,-196.39"/>
<polygon fill="black" stroke="black" points="526.49,-199.58 534.77,-192.97 524.18,-192.97 526.49,-199.58"/>
</g>
<!-- 34 -->
<g id="node22" class="node">
<title>34</title>
<ellipse fill="none" stroke="black" cx="686" cy="-180" rx="50.09" ry="18"/>
<text text-anchor="middle" x="686" y="-176.3" font-family="Times,serif" font-size="14.00">Patm (a)</text>
</g>
<!-- 0&#45;&gt;34 -->
<g id="edge20" class="edge">
<title>0&#45;&gt;34</title>
<path fill="none" stroke="black" stroke-dasharray="1,5" d="M398.6,-240.79C405.3,-238.7 412.34,-236.65 419,-235 510.13,-212.39 535.54,-219.25 627,-198 631.03,-197.06 635.19,-196.02 639.36,-194.92"/>
<polygon fill="black" stroke="black" points="640.29,-198.3 649.02,-192.3 638.45,-191.55 640.29,-198.3"/>
</g>
<!-- 39 -->
<g id="node24" class="node">
<title>39</title>
<ellipse fill="none" stroke="black" cx="798" cy="-180" rx="44.39" ry="18"/>
<text text-anchor="middle" x="798" y="-176.3" font-family="Times,serif" font-size="14.00">P01 (a)</text>
</g>
<!-- 0&#45;&gt;39 -->
<g id="edge22" class="edge">
<title>0&#45;&gt;39</title>
<path fill="none" stroke="black" stroke-dasharray="5,2" d="M398.24,-240.54C405.03,-238.45 412.2,-236.46 419,-235 561.56,-204.36 602.44,-228.64 745,-198 748.61,-197.22 752.33,-196.3 756.04,-195.29"/>
<polygon fill="black" stroke="black" points="757.14,-198.61 765.76,-192.46 755.18,-191.89 757.14,-198.61"/>
</g>
<!-- 2 -->
<g id="node3" class="node">
<title>2</title>
<ellipse fill="none" stroke="black" cx="481" cy="-253" rx="52.79" ry="18"/>
<text text-anchor="middle" x="481" y="-249.3" font-family="Times,serif" font-size="14.00">LaSM (a)</text>
</g>
<!-- 30 -->
<g id="node19" class="node">
<title>30</title>
<ellipse fill="none" stroke="black" cx="904" cy="-180" rx="44.39" ry="18"/>
<text text-anchor="middle" x="904" y="-176.3" font-family="Times,serif" font-size="14.00">B39 (a)</text>
</g>
<!-- 2&#45;&gt;30 -->
<g id="edge17" class="edge">
<title>2&#45;&gt;30</title>
<path fill="none" stroke="black" stroke-dasharray="5,2" d="M519.15,-240.59C526.99,-238.51 535.22,-236.52 543,-235 678.3,-208.48 716.3,-227.41 851,-198 854.61,-197.21 858.33,-196.28 862.03,-195.26"/>
<polygon fill="black" stroke="black" points="863.14,-198.59 871.75,-192.42 861.17,-191.87 863.14,-198.59"/>
</g>
<!-- 3 -->
<g id="node4" class="node">
<title>3</title>
<ellipse fill="none" stroke="black" cx="251" cy="-253" rx="52.79" ry="18"/>
<text text-anchor="middle" x="251" y="-249.3" font-family="Times,serif" font-size="14.00">M118 (a)</text>
</g>
<!-- 7 -->
<g id="node5" class="node">
<title>7</title>
<ellipse fill="none" stroke="black" cx="611" cy="-34" rx="50.09" ry="18"/>
<text text-anchor="middle" x="611" y="-30.3" font-family="Times,serif" font-size="14.00">A336 (a)</text>
</g>
<!-- 9 -->
<g id="node6" class="node">
<title>9</title>
<ellipse fill="none" stroke="black" cx="608" cy="-253" rx="55.79" ry="18"/>
<text text-anchor="middle" x="608" y="-249.3" font-family="Times,serif" font-size="14.00">V2250 (a)</text>
</g>
<!-- 11 -->
<g id="node7" class="node">
<title>11</title>
<ellipse fill="none" stroke="black" cx="778" cy="-337" rx="53.89" ry="18"/>
<text text-anchor="middle" x="778" y="-333.3" font-family="Times,serif" font-size="14.00">aBase (a)</text>
</g>
<!-- 11&#45;&gt;0 -->
<g id="edge1" class="edge">
<title>11&#45;&gt;0</title>
<path fill="none" stroke="black" stroke-dasharray="5,2" d="M729.08,-329.23C659.59,-319.13 528.54,-298.36 419,-271 415.57,-270.14 412.03,-269.18 408.5,-268.17"/>
<polygon fill="black" stroke="black" points="409.19,-264.72 398.6,-265.2 407.17,-271.43 409.19,-264.72"/>
</g>
<!-- 11&#45;&gt;2 -->
<g id="edge2" class="edge">
<title>11&#45;&gt;2</title>
<path fill="none" stroke="black" d="M737.95,-324.94C684.21,-310.11 588.82,-283.77 530.61,-267.7"/>
<polygon fill="black" stroke="black" points="531.46,-264.3 520.89,-265.01 529.6,-271.05 531.46,-264.3"/>
</g>
<!-- 11&#45;&gt;9 -->
<g id="edge5" class="edge">
<title>11&#45;&gt;9</title>
<path fill="none" stroke="black" stroke-width="2" d="M748.39,-321.72C720.28,-308.16 677.87,-287.7 647.02,-272.82"/>
<polygon fill="black" stroke="black" stroke-width="2" points="648.37,-269.59 637.84,-268.39 645.33,-275.89 648.37,-269.59"/>
<text text-anchor="middle" x="706.5" y="-292" font-family="Times,serif" font-size="10.00">3</text>
</g>
<!-- 16 -->
<g id="node11" class="node">
<title>16</title>
<ellipse fill="none" stroke="black" cx="723" cy="-253" rx="41.69" ry="18"/>
<text text-anchor="middle" x="723" y="-249.3" font-family="Times,serif" font-size="14.00">Est (a)</text>
</g>
<!-- 11&#45;&gt;16 -->
<g id="edge9" class="edge">
<title>11&#45;&gt;16</title>
<path fill="none" stroke="black" d="M766.6,-319.01C758.83,-307.42 748.41,-291.89 739.71,-278.91"/>
<polygon fill="black" stroke="black" points="742.48,-276.76 734.01,-270.41 736.67,-280.66 742.48,-276.76"/>
<text text-anchor="middle" x="756.5" y="-292" font-family="Times,serif" font-size="10.00">3</text>
</g>
<!-- 23 -->
<g id="node15" class="node">
<title>23</title>
<ellipse fill="none" stroke="black" cx="833" cy="-253" rx="50.09" ry="18"/>
<text text-anchor="middle" x="833" y="-249.3" font-family="Times,serif" font-size="14.00">Neap (a)</text>
</g>
<!-- 11&#45;&gt;23 -->
<g id="edge13" class="edge">
<title>11&#45;&gt;23</title>
<path fill="none" stroke="black" stroke-width="2" d="M789.4,-319.01C797.12,-307.5 807.45,-292.09 816.12,-279.16"/>
<polygon fill="black" stroke="black" stroke-width="2" points="819.14,-280.94 821.81,-270.69 813.33,-277.04 819.14,-280.94"/>
</g>
<!-- 31 -->
<g id="node20" class="node">
<title>31</title>
<ellipse fill="none" stroke="black" cx="951" cy="-253" rx="50.09" ry="18"/>
<text text-anchor="middle" x="951" y="-249.3" font-family="Times,serif" font-size="14.00">S249 (a)</text>
</g>
<!-- 11&#45;&gt;31 -->
<g id="edge18" class="edge">
<title>11&#45;&gt;31</title>
<path fill="none" stroke="black" d="M807.74,-321.9C836.72,-308.17 880.92,-287.22 912.55,-272.22"/>
<polygon fill="black" stroke="black" points="914.4,-275.22 921.94,-267.78 911.4,-268.9 914.4,-275.22"/>
</g>
<!-- 33 -->
<g id="node21" class="node">
<title>33</title>
<ellipse fill="none" stroke="black" cx="1069" cy="-253" rx="50.09" ry="18"/>
<text text-anchor="middle" x="1069" y="-249.3" font-family="Times,serif" font-size="14.00">V560 (a)</text>
</g>
<!-- 11&#45;&gt;33 -->
<g id="edge19" class="edge">
<title>11&#45;&gt;33</title>
<path fill="none" stroke="black" stroke-width="2" d="M818.26,-324.82C864.55,-311.94 942.81,-290.09 1010,-271 1013.76,-269.93 1017.65,-268.82 1021.56,-267.7"/>
<polygon fill="black" stroke="black" stroke-width="2" points="1022.6,-271.05 1031.24,-264.92 1020.66,-264.32 1022.6,-271.05"/>
</g>
<!-- 44 -->
<g id="node27" class="node">
<title>44</title>
<ellipse fill="none" stroke="black" cx="1180" cy="-253" rx="42.79" ry="18"/>
<text text-anchor="middle" x="1180" y="-249.3" font-family="Times,serif" font-size="14.00">La2 (a)</text>
</g>
<!-- 11&#45;&gt;44 -->
<g id="edge25" class="edge">
<title>11&#45;&gt;44</title>
<path fill="none" stroke="black" stroke-width="2" d="M826.56,-329.06C894.55,-318.88 1021.7,-298.12 1128,-271 1131.37,-270.14 1134.84,-269.18 1138.31,-268.16"/>
<polygon fill="black" stroke="black" stroke-width="2" points="1139.48,-271.46 1148.02,-265.19 1137.43,-264.77 1139.48,-271.46"/>
</g>
<!-- 12 -->
<g id="node8" class="node">
<title>12</title>
<ellipse fill="none" stroke="black" cx="375" cy="-107" rx="46.59" ry="18"/>
<text text-anchor="middle" x="375" y="-103.3" font-family="Times,serif" font-size="14.00">Bodl (a)</text>
</g>
<!-- 13 -->
<g id="node9" class="node">
<title>13</title>
<ellipse fill="none" stroke="black" cx="490" cy="-107" rx="50.09" ry="18"/>
<text text-anchor="middle" x="490" y="-103.3" font-family="Times,serif" font-size="14.00">V571 (a)</text>
</g>
<!-- 35 -->
<g id="node23" class="node">
<title>35</title>
<ellipse fill="none" stroke="black" cx="254" cy="-107" rx="55.79" ry="18"/>
<text text-anchor="middle" x="254" y="-103.3" font-family="Times,serif" font-size="14.00">V1639 (a)</text>
</g>
<!-- 19&#45;&gt;35 -->
<g id="edge21" class="edge">
<title>19&#45;&gt;35</title>
<path fill="none" stroke="black" stroke-dasharray="1,5" d="M325.58,-163.24C313.04,-153.57 296.79,-141.02 282.94,-130.33"/>
<polygon fill="black" stroke="black" points="284.73,-127.3 274.68,-123.96 280.46,-132.84 284.73,-127.3"/>
</g>
<!-- 21 -->
<g id="node13" class="node">
<title>21</title>
<ellipse fill="none" stroke="black" cx="611" cy="-107" rx="52.79" ry="18"/>
<text text-anchor="middle" x="611" y="-103.3" font-family="Times,serif" font-size="14.00">M111 (a)</text>
</g>
<!-- 21&#45;&gt;7 -->
<g id="edge4" class="edge">
<title>21&#45;&gt;7</title>
<path fill="none" stroke="black" stroke-dasharray="5,2" d="M611,-88.81C611,-80.79 611,-71.05 611,-62.07"/>
<polygon fill="black" stroke="black" points="614.5,-62.03 611,-52.03 607.5,-62.03 614.5,-62.03"/>
</g>
<!-- 25 -->
<g id="node16" class="node">
<title>25</title>
<ellipse fill="none" stroke="black" cx="738" cy="-107" rx="55.79" ry="18"/>
<text text-anchor="middle" x="738" y="-103.3" font-family="Times,serif" font-size="14.00">V2036 (a)</text>
</g>
<!-- 26 -->
<g id="node17" class="node">
<title>26</title>
<ellipse fill="none" stroke="black" cx="861" cy="-107" rx="48.99" ry="18"/>
<text text-anchor="middle" x="861" y="-103.3" font-family="Times,serif" font-size="14.00">La35 (a)</text>
</g>
<!-- 27&#45;&gt;12 -->
<g id="edge6" class="edge">
<title>27&#45;&gt;12</title>
<path fill="none" stroke="black" stroke-dasharray="5,2" d="M535.65,-166.79C502.87,-154.8 452.74,-136.45 417.2,-123.44"/>
<polygon fill="black" stroke="black" points="418.19,-120.08 407.59,-119.93 415.78,-126.65 418.19,-120.08"/>
</g>
<!-- 27&#45;&gt;13 -->
<g id="edge7" class="edge">
<title>27&#45;&gt;13</title>
<path fill="none" stroke="black" stroke-dasharray="1,5" d="M551.07,-162.89C540.57,-153.45 527.13,-141.37 515.53,-130.95"/>
<polygon fill="black" stroke="black" points="517.63,-128.13 507.86,-124.05 512.95,-133.33 517.63,-128.13"/>
</g>
<!-- 27&#45;&gt;21 -->
<g id="edge11" class="edge">
<title>27&#45;&gt;21</title>
<path fill="none" stroke="black" stroke-dasharray="1,5" d="M578.95,-162.17C584.03,-153.6 590.3,-142.99 595.95,-133.44"/>
<polygon fill="black" stroke="black" points="599.04,-135.09 601.12,-124.71 593.01,-131.53 599.04,-135.09"/>
</g>
<!-- 27&#45;&gt;25 -->
<g id="edge14" class="edge">
<title>27&#45;&gt;25</title>
<path fill="none" stroke="black" stroke-dasharray="5,2" d="M600,-165.98C627,-154.63 666.38,-138.09 696.16,-125.58"/>
<polygon fill="black" stroke="black" points="697.61,-128.77 705.47,-121.67 694.9,-122.31 697.61,-128.77"/>
</g>
<!-- 27&#45;&gt;26 -->
<g id="edge15" class="edge">
<title>27&#45;&gt;26</title>
<path fill="none" stroke="black" stroke-dasharray="1,5" d="M605.39,-167.86C612.53,-165.81 619.98,-163.76 627,-162 704.52,-142.52 725.48,-144.48 803,-125 806.84,-124.04 810.81,-122.99 814.78,-121.9"/>
<polygon fill="black" stroke="black" points="815.93,-125.21 824.61,-119.14 814.04,-118.47 815.93,-125.21"/>
</g>
<!-- 41 -->
<g id="node25" class="node">
<title>41</title>
<ellipse fill="none" stroke="black" cx="972" cy="-107" rx="44.39" ry="18"/>
<text text-anchor="middle" x="972" y="-103.3" font-family="Times,serif" font-size="14.00">P74 (a)</text>
</g>
<!-- 27&#45;&gt;41 -->
<g id="edge23" class="edge">
<title>27&#45;&gt;41</title>
<path fill="none" stroke="black" stroke-dasharray="1,5" d="M604.66,-167.58C612,-165.51 619.71,-163.52 627,-162 755.06,-135.3 791.29,-153.32 919,-125 922.61,-124.2 926.32,-123.26 930.03,-122.24"/>
<polygon fill="black" stroke="black" points="931.14,-125.56 939.75,-119.39 929.17,-118.84 931.14,-125.56"/>
</g>
<!-- 45 -->
<g id="node28" class="node">
<title>45</title>
<ellipse fill="none" stroke="black" cx="1084" cy="-107" rx="50.09" ry="18"/>
<text text-anchor="middle" x="1084" y="-103.3" font-family="Times,serif" font-size="14.00">A116 (a)</text>
</g>
<!-- 27&#45;&gt;45 -->
<g id="edge26" class="edge">
<title>27&#45;&gt;45</title>
<path fill="none" stroke="black" stroke-dasharray="5,2" d="M604.32,-167.48C611.74,-165.38 619.58,-163.42 627,-162 801.49,-128.64 850.43,-157.96 1025,-125 1029.18,-124.21 1033.5,-123.25 1037.8,-122.2"/>
<polygon fill="black" stroke="black" points="1038.96,-125.51 1047.75,-119.6 1037.19,-118.74 1038.96,-125.51"/>
</g>
<!-- 43 -->
<g id="node26" class="node">
<title>43</title>
<ellipse fill="none" stroke="black" cx="1069" cy="-180" rx="55.79" ry="18"/>
<text text-anchor="middle" x="1069" y="-176.3" font-family="Times,serif" font-size="14.00">V1920 (a)</text>
</g>
<!-- 33&#45;&gt;43 -->
<g id="edge24" class="edge">
<title>33&#45;&gt;43</title>
<path fill="none" stroke="black" stroke-dasharray="5,2" d="M1069,-234.81C1069,-226.79 1069,-217.05 1069,-208.07"/>
<polygon fill="black" stroke="black" points="1072.5,-208.03 1069,-198.03 1065.5,-208.03 1072.5,-208.03"/>
</g>
<!-- 14 -->
<g id="node29" class="node">
<title>14</title>
<ellipse fill="none" stroke="blue" stroke-dasharray="5,2" cx="251" cy="-337" rx="47.39" ry="18"/>
<text text-anchor="middle" x="251" y="-333.3" font-family="Times,serif" font-size="14.00">Taur (b)</text>
</g>
<!-- 14&#45;&gt;3 -->
<g id="edge3" class="edge">
<title>14&#45;&gt;3</title>
<path fill="none" stroke="blue" stroke-dasharray="5,2" d="M251,-318.61C251,-307.77 251,-293.6 251,-281.29"/>
<polygon fill="blue" stroke="blue" points="254.5,-281.08 251,-271.08 247.5,-281.08 254.5,-281.08"/>
</g>
</g>
</svg>
