<?xml version="1.0" encoding="UTF-8" standalone="no"?>
<!DOCTYPE svg PUBLIC "-//W3C//DTD SVG 1.1//EN"
 "http://www.w3.org/Graphics/SVG/1.1/DTD/svg11.dtd">
<!-- Generated by graphviz version 2.43.0 (0)
 -->
<!-- Title: textual_flow_diagram Pages: 1 -->
<svg width="1618pt" height="654pt"
 viewBox="0.00 0.00 1618.00 654.00" xmlns="http://www.w3.org/2000/svg" xmlns:xlink="http://www.w3.org/1999/xlink">
<g id="graph0" class="graph" transform="scale(1 1) rotate(0) translate(4 650)">
<title>textual_flow_diagram</title>
<polygon fill="white" stroke="transparent" points="-4,4 -4,-650 1614,-650 1614,4 -4,4"/>
<g id="clust1" class="cluster">
<title>cluster_legend</title>
<polygon fill="none" stroke="black" points="8,-584 8,-638 182,-638 182,-584 8,-584"/>
</g>
<g id="clust2" class="cluster">
<title>cluster_plot</title>
</g>
<!-- label -->
<g id="node1" class="node">
<title>label</title>
<text text-anchor="middle" x="95" y="-614.8" font-family="Times,serif" font-size="14.00">adstag1.2.18U14, a</text>
<text text-anchor="middle" x="95" y="-599.8" font-family="Times,serif" font-size="14.00">Con = 3</text>
</g>
<!-- 0 -->
<g id="node2" class="node">
<title>0</title>
<ellipse fill="none" stroke="black" cx="1436" cy="-322" rx="50.09" ry="18"/>
<text text-anchor="middle" x="1436" y="-318.3" font-family="Times,serif" font-size="14.00">V568 (a)</text>
</g>
<!-- 38 -->
<g id="node31" class="node">
<title>38</title>
<ellipse fill="none" stroke="black" cx="1425" cy="-250" rx="46.59" ry="18"/>
<text text-anchor="middle" x="1425" y="-246.3" font-family="Times,serif" font-size="14.00">Taur (a)</text>
</g>
<!-- 0&#45;&gt;38 -->
<g id="edge29" class="edge">
<title>0&#45;&gt;38</title>
<path fill="none" stroke="black" stroke-dasharray="1,5" d="M1433.28,-303.7C1432.07,-295.98 1430.61,-286.71 1429.26,-278.11"/>
<polygon fill="black" stroke="black" points="1432.7,-277.44 1427.69,-268.1 1425.78,-278.53 1432.7,-277.44"/>
</g>
<!-- 3 -->
<g id="node3" class="node">
<title>3</title>
<ellipse fill="none" stroke="black" cx="254" cy="-394" rx="55.79" ry="18"/>
<text text-anchor="middle" x="254" y="-390.3" font-family="Times,serif" font-size="14.00">V2036 (a)</text>
</g>
<!-- 5 -->
<g id="node4" class="node">
<title>5</title>
<ellipse fill="none" stroke="black" cx="381" cy="-466" rx="50.09" ry="18"/>
<text text-anchor="middle" x="381" y="-462.3" font-family="Times,serif" font-size="14.00">Patm (a)</text>
</g>
<!-- 5&#45;&gt;3 -->
<g id="edge2" class="edge">
<title>5&#45;&gt;3</title>
<path fill="none" stroke="black" stroke-dasharray="1,5" d="M354.69,-450.5C335.95,-440.17 310.55,-426.17 289.95,-414.82"/>
<polygon fill="black" stroke="black" points="291.6,-411.73 281.16,-409.97 288.23,-417.86 291.6,-411.73"/>
</g>
<!-- 21 -->
<g id="node16" class="node">
<title>21</title>
<ellipse fill="none" stroke="black" cx="381" cy="-394" rx="52.79" ry="18"/>
<text text-anchor="middle" x="381" y="-390.3" font-family="Times,serif" font-size="14.00">LaSM (a)</text>
</g>
<!-- 5&#45;&gt;21 -->
<g id="edge15" class="edge">
<title>5&#45;&gt;21</title>
<path fill="none" stroke="black" stroke-dasharray="5,2" d="M381,-447.7C381,-439.98 381,-430.71 381,-422.11"/>
<polygon fill="black" stroke="black" points="384.5,-422.1 381,-412.1 377.5,-422.1 384.5,-422.1"/>
</g>
<!-- 6 -->
<g id="node5" class="node">
<title>6</title>
<ellipse fill="none" stroke="black" cx="500" cy="-394" rx="48.99" ry="18"/>
<text text-anchor="middle" x="500" y="-390.3" font-family="Times,serif" font-size="14.00">La35 (a)</text>
</g>
<!-- 7 -->
<g id="node6" class="node">
<title>7</title>
<ellipse fill="none" stroke="black" cx="852" cy="-466" rx="44.39" ry="18"/>
<text text-anchor="middle" x="852" y="-462.3" font-family="Times,serif" font-size="14.00">S32 (a)</text>
</g>
<!-- 9 -->
<g id="node7" class="node">
<title>9</title>
<ellipse fill="none" stroke="black" cx="619" cy="-394" rx="52.79" ry="18"/>
<text text-anchor="middle" x="619" y="-390.3" font-family="Times,serif" font-size="14.00">M111 (a)</text>
</g>
<!-- 29 -->
<g id="node23" class="node">
<title>29</title>
<ellipse fill="none" stroke="black" cx="619" cy="-322" rx="50.09" ry="18"/>
<text text-anchor="middle" x="619" y="-318.3" font-family="Times,serif" font-size="14.00">A336 (a)</text>
</g>
<!-- 9&#45;&gt;29 -->
<g id="edge22" class="edge">
<title>9&#45;&gt;29</title>
<path fill="none" stroke="black" stroke-dasharray="5,2" d="M619,-375.7C619,-367.98 619,-358.71 619,-350.11"/>
<polygon fill="black" stroke="black" points="622.5,-350.1 619,-340.1 615.5,-350.1 622.5,-350.1"/>
</g>
<!-- 10 -->
<g id="node8" class="node">
<title>10</title>
<ellipse fill="none" stroke="black" cx="1442" cy="-394" rx="50.09" ry="18"/>
<text text-anchor="middle" x="1442" y="-390.3" font-family="Times,serif" font-size="14.00">V536 (a)</text>
</g>
<!-- 10&#45;&gt;0 -->
<g id="edge1" class="edge">
<title>10&#45;&gt;0</title>
<path fill="none" stroke="black" stroke-dasharray="1,5" d="M1440.52,-375.7C1439.86,-367.98 1439.06,-358.71 1438.32,-350.11"/>
<polygon fill="black" stroke="black" points="1441.81,-349.77 1437.47,-340.1 1434.83,-350.37 1441.81,-349.77"/>
</g>
<!-- 12 -->
<g id="node9" class="node">
<title>12</title>
<ellipse fill="none" stroke="black" cx="740" cy="-394" rx="50.09" ry="18"/>
<text text-anchor="middle" x="740" y="-390.3" font-family="Times,serif" font-size="14.00">A116 (a)</text>
</g>
<!-- 13 -->
<g id="node10" class="node">
<title>13</title>
<ellipse fill="none" stroke="black" cx="963" cy="-466" rx="48.99" ry="18"/>
<text text-anchor="middle" x="963" y="-462.3" font-family="Times,serif" font-size="14.00">La22 (a)</text>
</g>
<!-- 13&#45;&gt;6 -->
<g id="edge4" class="edge">
<title>13&#45;&gt;6</title>
<path fill="none" stroke="black" stroke-dasharray="1,5" d="M927.67,-453.54C920.24,-451.44 912.41,-449.46 905,-448 752.43,-418.01 709.5,-442.35 557,-412 553.07,-411.22 549.02,-410.28 544.97,-409.26"/>
<polygon fill="black" stroke="black" points="545.58,-405.79 535.01,-406.56 543.75,-412.55 545.58,-405.79"/>
</g>
<!-- 13&#45;&gt;9 -->
<g id="edge6" class="edge">
<title>13&#45;&gt;9</title>
<path fill="none" stroke="black" stroke-dasharray="1,5" d="M926.98,-453.68C919.75,-451.62 912.16,-449.62 905,-448 806.65,-425.78 779.54,-433.36 681,-412 676.65,-411.06 672.15,-409.99 667.65,-408.87"/>
<polygon fill="black" stroke="black" points="668.43,-405.46 657.87,-406.35 666.68,-412.24 668.43,-405.46"/>
</g>
<!-- 13&#45;&gt;12 -->
<g id="edge8" class="edge">
<title>13&#45;&gt;12</title>
<path fill="none" stroke="black" stroke-dasharray="5,2" d="M927.17,-453.75C888.87,-441.73 828.02,-422.63 786.16,-409.49"/>
<polygon fill="black" stroke="black" points="787.07,-406.11 776.48,-406.45 784.97,-412.79 787.07,-406.11"/>
</g>
<!-- 15 -->
<g id="node12" class="node">
<title>15</title>
<ellipse fill="none" stroke="black" cx="858" cy="-394" rx="50.09" ry="18"/>
<text text-anchor="middle" x="858" y="-390.3" font-family="Times,serif" font-size="14.00">V571 (a)</text>
</g>
<!-- 13&#45;&gt;15 -->
<g id="edge11" class="edge">
<title>13&#45;&gt;15</title>
<path fill="none" stroke="black" stroke-dasharray="1,5" d="M940.47,-449.98C925.63,-440.09 905.97,-426.98 889.57,-416.05"/>
<polygon fill="black" stroke="black" points="891.11,-412.87 880.85,-410.23 887.23,-418.69 891.11,-412.87"/>
</g>
<!-- 23 -->
<g id="node18" class="node">
<title>23</title>
<ellipse fill="none" stroke="black" cx="976" cy="-394" rx="50.09" ry="18"/>
<text text-anchor="middle" x="976" y="-390.3" font-family="Times,serif" font-size="14.00">V565 (a)</text>
</g>
<!-- 13&#45;&gt;23 -->
<g id="edge17" class="edge">
<title>13&#45;&gt;23</title>
<path fill="none" stroke="black" stroke-dasharray="5,2" d="M966.21,-447.7C967.65,-439.98 969.37,-430.71 970.96,-422.11"/>
<polygon fill="black" stroke="black" points="974.44,-422.58 972.82,-412.1 967.56,-421.3 974.44,-422.58"/>
</g>
<!-- 36 -->
<g id="node29" class="node">
<title>36</title>
<ellipse fill="none" stroke="black" cx="1088" cy="-394" rx="44.39" ry="18"/>
<text text-anchor="middle" x="1088" y="-390.3" font-family="Times,serif" font-size="14.00">P74 (a)</text>
</g>
<!-- 13&#45;&gt;36 -->
<g id="edge27" class="edge">
<title>13&#45;&gt;36</title>
<path fill="none" stroke="black" stroke-dasharray="1,5" d="M988.6,-450.67C1007.51,-440.07 1033.45,-425.55 1054.09,-413.99"/>
<polygon fill="black" stroke="black" points="1055.85,-417.02 1062.86,-409.08 1052.43,-410.91 1055.85,-417.02"/>
</g>
<!-- 41 -->
<g id="node33" class="node">
<title>41</title>
<ellipse fill="none" stroke="black" cx="1197" cy="-394" rx="46.59" ry="18"/>
<text text-anchor="middle" x="1197" y="-390.3" font-family="Times,serif" font-size="14.00">Bodl (a)</text>
</g>
<!-- 13&#45;&gt;41 -->
<g id="edge31" class="edge">
<title>13&#45;&gt;41</title>
<path fill="none" stroke="black" stroke-dasharray="5,2" d="M999.84,-454.09C1035.84,-443.42 1092.21,-426.67 1141,-412 1144.51,-410.94 1148.15,-409.85 1151.81,-408.74"/>
<polygon fill="black" stroke="black" points="1152.9,-412.07 1161.46,-405.82 1150.87,-405.37 1152.9,-412.07"/>
</g>
<!-- 14 -->
<g id="node11" class="node">
<title>14</title>
<ellipse fill="none" stroke="black" cx="1070" cy="-466" rx="40.09" ry="18"/>
<text text-anchor="middle" x="1070" y="-462.3" font-family="Times,serif" font-size="14.00">Pal (a)</text>
</g>
<!-- 16 -->
<g id="node13" class="node">
<title>16</title>
<ellipse fill="none" stroke="black" cx="1311" cy="-178" rx="40.89" ry="18"/>
<text text-anchor="middle" x="1311" y="-174.3" font-family="Times,serif" font-size="14.00">Sin (a)</text>
</g>
<!-- 31 -->
<g id="node25" class="node">
<title>31</title>
<ellipse fill="none" stroke="black" cx="1311" cy="-106" rx="50.09" ry="18"/>
<text text-anchor="middle" x="1311" y="-102.3" font-family="Times,serif" font-size="14.00">Marc (a)</text>
</g>
<!-- 16&#45;&gt;31 -->
<g id="edge24" class="edge">
<title>16&#45;&gt;31</title>
<path fill="none" stroke="black" stroke-dasharray="1,5" d="M1311,-159.7C1311,-151.98 1311,-142.71 1311,-134.11"/>
<polygon fill="black" stroke="black" points="1314.5,-134.1 1311,-124.1 1307.5,-134.1 1314.5,-134.1"/>
</g>
<!-- 17 -->
<g id="node14" class="node">
<title>17</title>
<ellipse fill="none" stroke="black" cx="959" cy="-538" rx="52.79" ry="18"/>
<text text-anchor="middle" x="959" y="-534.3" font-family="Times,serif" font-size="14.00">M136 (a)</text>
</g>
<!-- 20 -->
<g id="node15" class="node">
<title>20</title>
<ellipse fill="none" stroke="black" cx="1074" cy="-538" rx="44.39" ry="18"/>
<text text-anchor="middle" x="1074" y="-534.3" font-family="Times,serif" font-size="14.00">A25 (a)</text>
</g>
<!-- 20&#45;&gt;5 -->
<g id="edge3" class="edge">
<title>20&#45;&gt;5</title>
<path fill="none" stroke="black" stroke-dasharray="1,5" d="M1042.08,-525.47C1035.2,-523.35 1027.92,-521.38 1021,-520 810.78,-478.15 555.37,-469.27 441.19,-467.44"/>
<polygon fill="black" stroke="black" points="440.97,-463.93 430.92,-467.29 440.87,-470.93 440.97,-463.93"/>
</g>
<!-- 20&#45;&gt;7 -->
<g id="edge5" class="edge">
<title>20&#45;&gt;7</title>
<path fill="none" stroke="black" stroke-dasharray="5,2" d="M1040.37,-526.16C1033.94,-524.1 1027.27,-521.98 1021,-520 969.52,-503.76 956.48,-500.24 905,-484 901.87,-483.01 898.63,-481.99 895.38,-480.95"/>
<polygon fill="black" stroke="black" points="896.22,-477.55 885.63,-477.84 894.09,-484.21 896.22,-477.55"/>
</g>
<!-- 20&#45;&gt;13 -->
<g id="edge9" class="edge">
<title>20&#45;&gt;13</title>
<path fill="none" stroke="black" stroke-dasharray="1,5" d="M1051,-522.5C1034.99,-512.4 1013.42,-498.8 995.64,-487.58"/>
<polygon fill="black" stroke="black" points="997.06,-484.34 986.74,-481.97 993.33,-490.26 997.06,-484.34"/>
</g>
<!-- 20&#45;&gt;14 -->
<g id="edge10" class="edge">
<title>20&#45;&gt;14</title>
<path fill="none" stroke="black" stroke-dasharray="5,2" d="M1073.01,-519.7C1072.57,-511.98 1072.04,-502.71 1071.55,-494.11"/>
<polygon fill="black" stroke="black" points="1075.04,-493.89 1070.98,-484.1 1068.05,-494.29 1075.04,-493.89"/>
</g>
<!-- 30 -->
<g id="node24" class="node">
<title>30</title>
<ellipse fill="none" stroke="black" cx="1172" cy="-466" rx="44.39" ry="18"/>
<text text-anchor="middle" x="1172" y="-462.3" font-family="Times,serif" font-size="14.00">P01 (a)</text>
</g>
<!-- 20&#45;&gt;30 -->
<g id="edge23" class="edge">
<title>20&#45;&gt;30</title>
<path fill="none" stroke="black" stroke-dasharray="5,2" d="M1095.26,-521.81C1109.1,-511.93 1127.33,-498.9 1142.56,-488.03"/>
<polygon fill="black" stroke="black" points="1145.01,-490.58 1151.11,-481.92 1140.94,-484.88 1145.01,-490.58"/>
</g>
<!-- 39 -->
<g id="node32" class="node">
<title>39</title>
<ellipse fill="none" stroke="black" cx="1284" cy="-466" rx="50.09" ry="18"/>
<text text-anchor="middle" x="1284" y="-462.3" font-family="Times,serif" font-size="14.00">V566 (a)</text>
</g>
<!-- 20&#45;&gt;39 -->
<g id="edge30" class="edge">
<title>20&#45;&gt;39</title>
<path fill="none" stroke="black" stroke-dasharray="5,2" d="M1107.28,-525.91C1142.78,-514.07 1199.24,-495.25 1238.76,-482.08"/>
<polygon fill="black" stroke="black" points="1240.04,-485.34 1248.42,-478.86 1237.83,-478.7 1240.04,-485.34"/>
</g>
<!-- 28 -->
<g id="node22" class="node">
<title>28</title>
<ellipse fill="none" stroke="black" cx="381" cy="-322" rx="44.39" ry="18"/>
<text text-anchor="middle" x="381" y="-318.3" font-family="Times,serif" font-size="14.00">B39 (a)</text>
</g>
<!-- 21&#45;&gt;28 -->
<g id="edge21" class="edge">
<title>21&#45;&gt;28</title>
<path fill="none" stroke="black" stroke-dasharray="5,2" d="M381,-375.7C381,-367.98 381,-358.71 381,-350.11"/>
<polygon fill="black" stroke="black" points="384.5,-350.1 381,-340.1 377.5,-350.1 384.5,-350.1"/>
</g>
<!-- 22 -->
<g id="node17" class="node">
<title>22</title>
<ellipse fill="none" stroke="black" cx="1195" cy="-538" rx="50.09" ry="18"/>
<text text-anchor="middle" x="1195" y="-534.3" font-family="Times,serif" font-size="14.00">Neap (a)</text>
</g>
<!-- 34 -->
<g id="node27" class="node">
<title>34</title>
<ellipse fill="none" stroke="black" cx="1408" cy="-466" rx="55.79" ry="18"/>
<text text-anchor="middle" x="1408" y="-462.3" font-family="Times,serif" font-size="14.00">V1629 (a)</text>
</g>
<!-- 22&#45;&gt;34 -->
<g id="edge25" class="edge">
<title>22&#45;&gt;34</title>
<path fill="none" stroke="black" stroke-dasharray="1,5" d="M1230.65,-525.28C1266.35,-513.55 1321.49,-495.43 1360.81,-482.51"/>
<polygon fill="black" stroke="black" points="1362.03,-485.79 1370.44,-479.34 1359.84,-479.14 1362.03,-485.79"/>
</g>
<!-- 24 -->
<g id="node19" class="node">
<title>24</title>
<ellipse fill="none" stroke="black" cx="1552" cy="-394" rx="41.69" ry="18"/>
<text text-anchor="middle" x="1552" y="-390.3" font-family="Times,serif" font-size="14.00">Est (a)</text>
</g>
<!-- 25 -->
<g id="node20" class="node">
<title>25</title>
<ellipse fill="none" stroke="black" cx="1313" cy="-538" rx="50.09" ry="18"/>
<text text-anchor="middle" x="1313" y="-534.3" font-family="Times,serif" font-size="14.00">V560 (a)</text>
</g>
<!-- 27 -->
<g id="node21" class="node">
<title>27</title>
<ellipse fill="none" stroke="black" cx="1426" cy="-538" rx="44.69" ry="18"/>
<text text-anchor="middle" x="1426" y="-534.3" font-family="Times,serif" font-size="14.00">Nan (a)</text>
</g>
<!-- 35 -->
<g id="node28" class="node">
<title>35</title>
<ellipse fill="none" stroke="black" cx="1538" cy="-466" rx="55.79" ry="18"/>
<text text-anchor="middle" x="1538" y="-462.3" font-family="Times,serif" font-size="14.00">V1897 (a)</text>
</g>
<!-- 27&#45;&gt;35 -->
<g id="edge26" class="edge">
<title>27&#45;&gt;35</title>
<path fill="none" stroke="black" stroke-dasharray="1,5" d="M1449.21,-522.5C1465.25,-512.47 1486.83,-498.98 1504.7,-487.81"/>
<polygon fill="black" stroke="black" points="1507.04,-490.48 1513.66,-482.21 1503.33,-484.54 1507.04,-490.48"/>
</g>
<!-- 42 -->
<g id="node34" class="node">
<title>42</title>
<ellipse fill="none" stroke="black" cx="1311" cy="-34" rx="46.29" ry="18"/>
<text text-anchor="middle" x="1311" y="-30.3" font-family="Times,serif" font-size="14.00">Mon (a)</text>
</g>
<!-- 31&#45;&gt;42 -->
<g id="edge32" class="edge">
<title>31&#45;&gt;42</title>
<path fill="none" stroke="black" stroke-dasharray="1,5" d="M1311,-87.7C1311,-79.98 1311,-70.71 1311,-62.11"/>
<polygon fill="black" stroke="black" points="1314.5,-62.1 1311,-52.1 1307.5,-62.1 1314.5,-62.1"/>
</g>
<!-- 32 -->
<g id="node26" class="node">
<title>32</title>
<ellipse fill="none" stroke="black" cx="1254" cy="-611" rx="53.89" ry="18"/>
<text text-anchor="middle" x="1254" y="-607.3" font-family="Times,serif" font-size="14.00">aBase (a)</text>
</g>
<!-- 32&#45;&gt;17 -->
<g id="edge13" class="edge">
<title>32&#45;&gt;17</title>
<path fill="none" stroke="black" stroke-width="2" d="M1210.07,-600.37C1163.14,-589.95 1086.62,-572.59 1021,-556 1016.86,-554.95 1012.57,-553.84 1008.28,-552.7"/>
<polygon fill="black" stroke="black" stroke-width="2" points="1008.86,-549.24 998.3,-550.03 1007.05,-556 1008.86,-549.24"/>
</g>
<!-- 32&#45;&gt;20 -->
<g id="edge14" class="edge">
<title>32&#45;&gt;20</title>
<path fill="none" stroke="black" stroke-dasharray="5,2" d="M1220.57,-596.81C1190.44,-584.93 1146.08,-567.43 1114.07,-554.8"/>
<polygon fill="black" stroke="black" points="1115.14,-551.47 1104.56,-551.05 1112.57,-557.98 1115.14,-551.47"/>
</g>
<!-- 32&#45;&gt;22 -->
<g id="edge16" class="edge">
<title>32&#45;&gt;22</title>
<path fill="none" stroke="black" stroke-width="2" d="M1240.32,-593.53C1232.87,-584.57 1223.51,-573.31 1215.24,-563.36"/>
<polygon fill="black" stroke="black" stroke-width="2" points="1217.69,-560.83 1208.61,-555.38 1212.31,-565.31 1217.69,-560.83"/>
</g>
<!-- 32&#45;&gt;25 -->
<g id="edge19" class="edge">
<title>32&#45;&gt;25</title>
<path fill="none" stroke="black" stroke-width="2" d="M1267.68,-593.53C1275.13,-584.57 1284.49,-573.31 1292.76,-563.36"/>
<polygon fill="black" stroke="black" stroke-width="2" points="1295.69,-565.31 1299.39,-555.38 1290.31,-560.83 1295.69,-565.31"/>
</g>
<!-- 32&#45;&gt;27 -->
<g id="edge20" class="edge">
<title>32&#45;&gt;27</title>
<path fill="none" stroke="black" d="M1286.76,-596.48C1315.16,-584.75 1356.35,-567.75 1386.56,-555.28"/>
<polygon fill="black" stroke="black" points="1388.05,-558.45 1395.96,-551.4 1385.38,-551.98 1388.05,-558.45"/>
</g>
<!-- 43 -->
<g id="node35" class="node">
<title>43</title>
<ellipse fill="none" stroke="black" cx="1539" cy="-538" rx="50.09" ry="18"/>
<text text-anchor="middle" x="1539" y="-534.3" font-family="Times,serif" font-size="14.00">S249 (a)</text>
</g>
<!-- 32&#45;&gt;43 -->
<g id="edge33" class="edge">
<title>32&#45;&gt;43</title>
<path fill="none" stroke="black" d="M1297.47,-600.24C1343.09,-589.85 1416.8,-572.65 1480,-556 1483.83,-554.99 1487.8,-553.92 1491.77,-552.82"/>
<polygon fill="black" stroke="black" points="1492.94,-556.12 1501.62,-550.05 1491.04,-549.39 1492.94,-556.12"/>
</g>
<!-- 34&#45;&gt;10 -->
<g id="edge7" class="edge">
<title>34&#45;&gt;10</title>
<path fill="none" stroke="black" stroke-dasharray="5,2" d="M1416.23,-448.05C1420.2,-439.89 1425.04,-429.91 1429.46,-420.82"/>
<polygon fill="black" stroke="black" points="1432.62,-422.31 1433.85,-411.79 1426.33,-419.25 1432.62,-422.31"/>
</g>
<!-- 35&#45;&gt;24 -->
<g id="edge18" class="edge">
<title>35&#45;&gt;24</title>
<path fill="none" stroke="black" stroke-dasharray="1,5" d="M1541.46,-447.7C1543,-439.98 1544.86,-430.71 1546.58,-422.11"/>
<polygon fill="black" stroke="black" points="1550.05,-422.6 1548.58,-412.1 1543.19,-421.22 1550.05,-422.6"/>
</g>
<!-- 37 -->
<g id="node30" class="node">
<title>37</title>
<ellipse fill="none" stroke="black" cx="1420" cy="-178" rx="50.09" ry="18"/>
<text text-anchor="middle" x="1420" y="-174.3" font-family="Times,serif" font-size="14.00">V569 (a)</text>
</g>
<!-- 38&#45;&gt;16 -->
<g id="edge12" class="edge">
<title>38&#45;&gt;16</title>
<path fill="none" stroke="black" stroke-dasharray="1,5" d="M1401.1,-234.33C1384.16,-223.92 1361.24,-209.85 1342.76,-198.5"/>
<polygon fill="black" stroke="black" points="1344.44,-195.43 1334.09,-193.18 1340.78,-201.39 1344.44,-195.43"/>
</g>
<!-- 38&#45;&gt;37 -->
<g id="edge28" class="edge">
<title>38&#45;&gt;37</title>
<path fill="none" stroke="black" stroke-dasharray="5,2" d="M1423.76,-231.7C1423.21,-223.98 1422.55,-214.71 1421.94,-206.11"/>
<polygon fill="black" stroke="black" points="1425.43,-205.83 1421.22,-196.1 1418.44,-206.33 1425.43,-205.83"/>
</g>
<!-- 44 -->
<g id="node36" class="node">
<title>44</title>
<ellipse fill="none" stroke="black" cx="1541" cy="-178" rx="52.79" ry="18"/>
<text text-anchor="middle" x="1541" y="-174.3" font-family="Times,serif" font-size="14.00">M118 (a)</text>
</g>
<!-- 38&#45;&gt;44 -->
<g id="edge34" class="edge">
<title>38&#45;&gt;44</title>
<path fill="none" stroke="black" stroke-dasharray="5,2" d="M1449.04,-234.5C1465.92,-224.31 1488.72,-210.55 1507.4,-199.27"/>
<polygon fill="black" stroke="black" points="1509.44,-202.13 1516.2,-193.97 1505.82,-196.14 1509.44,-202.13"/>
</g>
<!-- 45 -->
<g id="node37" class="node">
<title>45</title>
<ellipse fill="none" stroke="black" cx="1318" cy="-394" rx="55.79" ry="18"/>
<text text-anchor="middle" x="1318" y="-390.3" font-family="Times,serif" font-size="14.00">V1639 (a)</text>
</g>
<!-- 39&#45;&gt;45 -->
<g id="edge35" class="edge">
<title>39&#45;&gt;45</title>
<path fill="none" stroke="black" stroke-dasharray="1,5" d="M1292.23,-448.05C1296.1,-440.09 1300.8,-430.41 1305.12,-421.51"/>
<polygon fill="black" stroke="black" points="1308.39,-422.8 1309.61,-412.28 1302.09,-419.74 1308.39,-422.8"/>
</g>
</g>
</svg>
