<?xml version="1.0" encoding="UTF-8" standalone="no"?>
<!DOCTYPE svg PUBLIC "-//W3C//DTD SVG 1.1//EN"
 "http://www.w3.org/Graphics/SVG/1.1/DTD/svg11.dtd">
<!-- Generated by graphviz version 2.43.0 (0)
 -->
<!-- Title: textual_flow_diagram Pages: 1 -->
<svg width="1030pt" height="294pt"
 viewBox="0.00 0.00 1030.00 294.00" xmlns="http://www.w3.org/2000/svg" xmlns:xlink="http://www.w3.org/1999/xlink">
<g id="graph0" class="graph" transform="scale(1 1) rotate(0) translate(4 290)">
<title>textual_flow_diagram</title>
<polygon fill="white" stroke="transparent" points="-4,4 -4,-290 1026,-290 1026,4 -4,4"/>
<g id="clust1" class="cluster">
<title>cluster_legend</title>
<polygon fill="none" stroke="black" points="8,-224 8,-278 196,-278 196,-224 8,-224"/>
</g>
<g id="clust2" class="cluster">
<title>cluster_plot</title>
</g>
<!-- label -->
<g id="node1" class="node">
<title>label</title>
<text text-anchor="middle" x="102" y="-254.8" font-family="Times,serif" font-size="14.00">adstag1.3.2U14&#45;16, b</text>
<text text-anchor="middle" x="102" y="-239.8" font-family="Times,serif" font-size="14.00">Con = 5</text>
</g>
<!-- 0 -->
<g id="node2" class="node">
<title>0</title>
<ellipse fill="none" stroke="black" cx="265" cy="-106" rx="53.09" ry="18"/>
<text text-anchor="middle" x="265" y="-102.3" font-family="Times,serif" font-size="14.00">M111 (b)</text>
</g>
<!-- 3 -->
<g id="node3" class="node">
<title>3</title>
<ellipse fill="none" stroke="black" cx="265" cy="-34" rx="50.09" ry="18"/>
<text text-anchor="middle" x="265" y="-30.3" font-family="Times,serif" font-size="14.00">A336 (b)</text>
</g>
<!-- 0&#45;&gt;3 -->
<g id="edge2" class="edge">
<title>0&#45;&gt;3</title>
<path fill="none" stroke="black" stroke-dasharray="5,2" d="M265,-87.7C265,-79.98 265,-70.71 265,-62.11"/>
<polygon fill="black" stroke="black" points="268.5,-62.1 265,-52.1 261.5,-62.1 268.5,-62.1"/>
</g>
<!-- 4 -->
<g id="node4" class="node">
<title>4</title>
<ellipse fill="none" stroke="black" cx="380" cy="-106" rx="44.39" ry="18"/>
<text text-anchor="middle" x="380" y="-102.3" font-family="Times,serif" font-size="14.00">P74 (b)</text>
</g>
<!-- 18 -->
<g id="node5" class="node">
<title>18</title>
<ellipse fill="none" stroke="black" cx="492" cy="-106" rx="50.09" ry="18"/>
<text text-anchor="middle" x="492" y="-102.3" font-family="Times,serif" font-size="14.00">V565 (b)</text>
</g>
<!-- 25 -->
<g id="node6" class="node">
<title>25</title>
<ellipse fill="none" stroke="black" cx="610" cy="-106" rx="50.09" ry="18"/>
<text text-anchor="middle" x="610" y="-102.3" font-family="Times,serif" font-size="14.00">V571 (b)</text>
</g>
<!-- 26 -->
<g id="node7" class="node">
<title>26</title>
<ellipse fill="none" stroke="black" cx="610" cy="-178" rx="49.29" ry="18"/>
<text text-anchor="middle" x="610" y="-174.3" font-family="Times,serif" font-size="14.00">La22 (b)</text>
</g>
<!-- 26&#45;&gt;0 -->
<g id="edge1" class="edge">
<title>26&#45;&gt;0</title>
<path fill="none" stroke="black" stroke-dasharray="1,5" d="M565.65,-169.86C509.73,-160.59 410.78,-143.3 327,-124 322.84,-123.04 318.54,-121.99 314.23,-120.9"/>
<polygon fill="black" stroke="black" points="314.79,-117.42 304.23,-118.28 313.02,-124.2 314.79,-117.42"/>
</g>
<!-- 26&#45;&gt;4 -->
<g id="edge3" class="edge">
<title>26&#45;&gt;4</title>
<path fill="none" stroke="black" stroke-dasharray="1,5" d="M572.64,-166.04C536.78,-155.47 481.1,-138.91 433,-124 429.86,-123.03 426.62,-122.01 423.36,-120.98"/>
<polygon fill="black" stroke="black" points="424.2,-117.58 413.61,-117.89 422.09,-124.25 424.2,-117.58"/>
</g>
<!-- 26&#45;&gt;18 -->
<g id="edge4" class="edge">
<title>26&#45;&gt;18</title>
<path fill="none" stroke="black" stroke-dasharray="5,2" d="M585.26,-162.33C567.88,-152.01 544.42,-138.1 525.38,-126.8"/>
<polygon fill="black" stroke="black" points="527.09,-123.75 516.7,-121.65 523.52,-129.77 527.09,-123.75"/>
</g>
<!-- 26&#45;&gt;25 -->
<g id="edge5" class="edge">
<title>26&#45;&gt;25</title>
<path fill="none" stroke="black" stroke-dasharray="1,5" d="M610,-159.7C610,-151.98 610,-142.71 610,-134.11"/>
<polygon fill="black" stroke="black" points="613.5,-134.1 610,-124.1 606.5,-134.1 613.5,-134.1"/>
</g>
<!-- 27 -->
<g id="node8" class="node">
<title>27</title>
<ellipse fill="none" stroke="black" cx="727" cy="-106" rx="49.29" ry="18"/>
<text text-anchor="middle" x="727" y="-102.3" font-family="Times,serif" font-size="14.00">La35 (b)</text>
</g>
<!-- 26&#45;&gt;27 -->
<g id="edge7" class="edge">
<title>26&#45;&gt;27</title>
<path fill="none" stroke="black" stroke-dasharray="1,5" d="M634.53,-162.33C651.77,-152.01 675.03,-138.1 693.91,-126.8"/>
<polygon fill="black" stroke="black" points="695.72,-129.79 702.51,-121.65 692.13,-123.79 695.72,-129.79"/>
</g>
<!-- 38 -->
<g id="node9" class="node">
<title>38</title>
<ellipse fill="none" stroke="black" cx="844" cy="-106" rx="50.09" ry="18"/>
<text text-anchor="middle" x="844" y="-102.3" font-family="Times,serif" font-size="14.00">A116 (b)</text>
</g>
<!-- 26&#45;&gt;38 -->
<g id="edge8" class="edge">
<title>26&#45;&gt;38</title>
<path fill="none" stroke="black" stroke-dasharray="5,2" d="M646.82,-165.99C687.38,-153.85 752.72,-134.31 796.96,-121.07"/>
<polygon fill="black" stroke="black" points="798.04,-124.4 806.62,-118.18 796.04,-117.69 798.04,-124.4"/>
</g>
<!-- 41 -->
<g id="node10" class="node">
<title>41</title>
<ellipse fill="none" stroke="black" cx="959" cy="-106" rx="47.39" ry="18"/>
<text text-anchor="middle" x="959" y="-102.3" font-family="Times,serif" font-size="14.00">Bodl (b)</text>
</g>
<!-- 26&#45;&gt;41 -->
<g id="edge9" class="edge">
<title>26&#45;&gt;41</title>
<path fill="none" stroke="black" stroke-dasharray="5,2" d="M655.01,-170.52C712.82,-161.81 816.07,-144.98 903,-124 906.62,-123.13 910.35,-122.15 914.09,-121.13"/>
<polygon fill="black" stroke="black" points="915.26,-124.43 923.92,-118.33 913.34,-117.7 915.26,-124.43"/>
</g>
<!-- 11 -->
<g id="node11" class="node">
<title>11</title>
<ellipse fill="none" stroke="blue" stroke-dasharray="5,2" cx="610" cy="-251" rx="53.89" ry="18"/>
<text text-anchor="middle" x="610" y="-247.3" font-family="Times,serif" font-size="14.00">aBase (a)</text>
</g>
<!-- 11&#45;&gt;26 -->
<g id="edge6" class="edge">
<title>11&#45;&gt;26</title>
<path fill="none" stroke="blue" stroke-dasharray="5,2" d="M610,-232.81C610,-224.79 610,-215.05 610,-206.07"/>
<polygon fill="blue" stroke="blue" points="613.5,-206.03 610,-196.03 606.5,-206.03 613.5,-206.03"/>
</g>
</g>
</svg>
