<?xml version="1.0" encoding="UTF-8" standalone="no"?>
<!DOCTYPE svg PUBLIC "-//W3C//DTD SVG 1.1//EN"
 "http://www.w3.org/Graphics/SVG/1.1/DTD/svg11.dtd">
<!-- Generated by graphviz version 2.43.0 (0)
 -->
<!-- Title: textual_flow_diagram Pages: 1 -->
<svg width="1961pt" height="294pt"
 viewBox="0.00 0.00 1961.00 294.00" xmlns="http://www.w3.org/2000/svg" xmlns:xlink="http://www.w3.org/1999/xlink">
<g id="graph0" class="graph" transform="scale(1 1) rotate(0) translate(4 290)">
<title>textual_flow_diagram</title>
<polygon fill="white" stroke="transparent" points="-4,4 -4,-290 1957,-290 1957,4 -4,4"/>
<g id="clust1" class="cluster">
<title>cluster_legend</title>
<polygon fill="none" stroke="black" points="8,-224 8,-278 204,-278 204,-224 8,-224"/>
</g>
<g id="clust2" class="cluster">
<title>cluster_plot</title>
</g>
<!-- label -->
<g id="node1" class="node">
<title>label</title>
<text text-anchor="middle" x="106" y="-254.8" font-family="Times,serif" font-size="14.00">adstag1.3.67U12&#45;22, a</text>
<text text-anchor="middle" x="106" y="-239.8" font-family="Times,serif" font-size="14.00">Con = 5</text>
</g>
<!-- 0 -->
<g id="node2" class="node">
<title>0</title>
<ellipse fill="none" stroke="black" cx="540" cy="-178" rx="50.09" ry="18"/>
<text text-anchor="middle" x="540" y="-174.3" font-family="Times,serif" font-size="14.00">Neap (a)</text>
</g>
<!-- 1 -->
<g id="node3" class="node">
<title>1</title>
<ellipse fill="none" stroke="black" cx="658" cy="-178" rx="50.09" ry="18"/>
<text text-anchor="middle" x="658" y="-174.3" font-family="Times,serif" font-size="14.00">Patm (a)</text>
</g>
<!-- 3 -->
<g id="node4" class="node">
<title>3</title>
<ellipse fill="none" stroke="black" cx="264" cy="-106" rx="44.39" ry="18"/>
<text text-anchor="middle" x="264" y="-102.3" font-family="Times,serif" font-size="14.00">P74 (a)</text>
</g>
<!-- 5 -->
<g id="node5" class="node">
<title>5</title>
<ellipse fill="none" stroke="black" cx="775" cy="-178" rx="48.99" ry="18"/>
<text text-anchor="middle" x="775" y="-174.3" font-family="Times,serif" font-size="14.00">La22 (a)</text>
</g>
<!-- 5&#45;&gt;3 -->
<g id="edge3" class="edge">
<title>5&#45;&gt;3</title>
<path fill="none" stroke="black" stroke-dasharray="1,5" d="M739.69,-165.46C732.26,-163.37 724.42,-161.41 717,-160 541.63,-126.74 491.94,-159.47 317,-124 313.33,-123.26 309.55,-122.35 305.79,-121.34"/>
<polygon fill="black" stroke="black" points="306.51,-117.9 295.93,-118.49 304.57,-124.63 306.51,-117.9"/>
</g>
<!-- 6 -->
<g id="node6" class="node">
<title>6</title>
<ellipse fill="none" stroke="black" cx="376" cy="-106" rx="50.09" ry="18"/>
<text text-anchor="middle" x="376" y="-102.3" font-family="Times,serif" font-size="14.00">V565 (a)</text>
</g>
<!-- 5&#45;&gt;6 -->
<g id="edge5" class="edge">
<title>5&#45;&gt;6</title>
<path fill="none" stroke="black" stroke-dasharray="5,2" d="M739.33,-165.59C732,-163.51 724.29,-161.52 717,-160 593.32,-134.15 558.74,-149.57 435,-124 430.83,-123.14 426.53,-122.13 422.23,-121.05"/>
<polygon fill="black" stroke="black" points="422.85,-117.59 412.29,-118.4 421.05,-124.36 422.85,-117.59"/>
</g>
<!-- 9 -->
<g id="node8" class="node">
<title>9</title>
<ellipse fill="none" stroke="black" cx="493" cy="-106" rx="48.99" ry="18"/>
<text text-anchor="middle" x="493" y="-102.3" font-family="Times,serif" font-size="14.00">La35 (a)</text>
</g>
<!-- 5&#45;&gt;9 -->
<g id="edge7" class="edge">
<title>5&#45;&gt;9</title>
<path fill="none" stroke="black" stroke-dasharray="1,5" d="M738.6,-165.9C731.46,-163.85 724.02,-161.79 717,-160 643.84,-141.37 624.16,-142.63 551,-124 547.16,-123.02 543.2,-121.96 539.22,-120.87"/>
<polygon fill="black" stroke="black" points="539.97,-117.45 529.4,-118.1 538.07,-124.18 539.97,-117.45"/>
</g>
<!-- 14 -->
<g id="node13" class="node">
<title>14</title>
<ellipse fill="none" stroke="black" cx="610" cy="-106" rx="50.09" ry="18"/>
<text text-anchor="middle" x="610" y="-102.3" font-family="Times,serif" font-size="14.00">V571 (a)</text>
</g>
<!-- 5&#45;&gt;14 -->
<g id="edge12" class="edge">
<title>5&#45;&gt;14</title>
<path fill="none" stroke="black" stroke-dasharray="1,5" d="M744.35,-164C717.89,-152.77 679.47,-136.47 650.48,-124.17"/>
<polygon fill="black" stroke="black" points="651.62,-120.85 641.04,-120.17 648.88,-127.3 651.62,-120.85"/>
</g>
<!-- 24 -->
<g id="node20" class="node">
<title>24</title>
<ellipse fill="none" stroke="black" cx="728" cy="-106" rx="50.09" ry="18"/>
<text text-anchor="middle" x="728" y="-102.3" font-family="Times,serif" font-size="14.00">A116 (a)</text>
</g>
<!-- 5&#45;&gt;24 -->
<g id="edge18" class="edge">
<title>5&#45;&gt;24</title>
<path fill="none" stroke="black" stroke-dasharray="5,2" d="M763.86,-160.41C758.27,-152.08 751.36,-141.8 745.11,-132.49"/>
<polygon fill="black" stroke="black" points="747.87,-130.31 739.38,-123.96 742.05,-134.21 747.87,-130.31"/>
</g>
<!-- 32 -->
<g id="node26" class="node">
<title>32</title>
<ellipse fill="none" stroke="black" cx="843" cy="-106" rx="46.59" ry="18"/>
<text text-anchor="middle" x="843" y="-102.3" font-family="Times,serif" font-size="14.00">Bodl (a)</text>
</g>
<!-- 5&#45;&gt;32 -->
<g id="edge24" class="edge">
<title>5&#45;&gt;32</title>
<path fill="none" stroke="black" stroke-dasharray="5,2" d="M790.77,-160.76C799.53,-151.75 810.57,-140.39 820.24,-130.43"/>
<polygon fill="black" stroke="black" points="822.86,-132.76 827.31,-123.15 817.84,-127.88 822.86,-132.76"/>
</g>
<!-- 37 -->
<g id="node29" class="node">
<title>37</title>
<ellipse fill="none" stroke="black" cx="960" cy="-106" rx="52.79" ry="18"/>
<text text-anchor="middle" x="960" y="-102.3" font-family="Times,serif" font-size="14.00">M111 (a)</text>
</g>
<!-- 5&#45;&gt;37 -->
<g id="edge27" class="edge">
<title>5&#45;&gt;37</title>
<path fill="none" stroke="black" stroke-dasharray="1,5" d="M808.07,-164.49C838.34,-153.03 883.34,-136.01 916.51,-123.46"/>
<polygon fill="black" stroke="black" points="917.85,-126.69 925.96,-119.88 915.37,-120.15 917.85,-126.69"/>
</g>
<!-- 8 -->
<g id="node7" class="node">
<title>8</title>
<ellipse fill="none" stroke="black" cx="1683" cy="-34" rx="55.79" ry="18"/>
<text text-anchor="middle" x="1683" y="-30.3" font-family="Times,serif" font-size="14.00">V1639 (a)</text>
</g>
<!-- 10 -->
<g id="node9" class="node">
<title>10</title>
<ellipse fill="none" stroke="black" cx="942" cy="-178" rx="52.79" ry="18"/>
<text text-anchor="middle" x="942" y="-174.3" font-family="Times,serif" font-size="14.00">LaSM (a)</text>
</g>
<!-- 25 -->
<g id="node21" class="node">
<title>25</title>
<ellipse fill="none" stroke="black" cx="1075" cy="-106" rx="44.39" ry="18"/>
<text text-anchor="middle" x="1075" y="-102.3" font-family="Times,serif" font-size="14.00">B39 (a)</text>
</g>
<!-- 10&#45;&gt;25 -->
<g id="edge19" class="edge">
<title>10&#45;&gt;25</title>
<path fill="none" stroke="black" stroke-dasharray="5,2" d="M969.56,-162.5C989.93,-151.77 1017.83,-137.09 1039.81,-125.52"/>
<polygon fill="black" stroke="black" points="1041.62,-128.53 1048.84,-120.77 1038.36,-122.33 1041.62,-128.53"/>
</g>
<!-- 11 -->
<g id="node10" class="node">
<title>11</title>
<ellipse fill="none" stroke="black" cx="1571" cy="-106" rx="44.39" ry="18"/>
<text text-anchor="middle" x="1571" y="-102.3" font-family="Times,serif" font-size="14.00">S32 (a)</text>
</g>
<!-- 12 -->
<g id="node11" class="node">
<title>12</title>
<ellipse fill="none" stroke="black" cx="1683" cy="-106" rx="50.09" ry="18"/>
<text text-anchor="middle" x="1683" y="-102.3" font-family="Times,serif" font-size="14.00">V566 (a)</text>
</g>
<!-- 12&#45;&gt;8 -->
<g id="edge6" class="edge">
<title>12&#45;&gt;8</title>
<path fill="none" stroke="black" stroke-dasharray="1,5" d="M1683,-87.7C1683,-79.98 1683,-70.71 1683,-62.11"/>
<polygon fill="black" stroke="black" points="1686.5,-62.1 1683,-52.1 1679.5,-62.1 1686.5,-62.1"/>
</g>
<!-- 13 -->
<g id="node12" class="node">
<title>13</title>
<ellipse fill="none" stroke="black" cx="1069" cy="-178" rx="55.79" ry="18"/>
<text text-anchor="middle" x="1069" y="-174.3" font-family="Times,serif" font-size="14.00">V2036 (a)</text>
</g>
<!-- 15 -->
<g id="node14" class="node">
<title>15</title>
<ellipse fill="none" stroke="black" cx="1193" cy="-178" rx="50.09" ry="18"/>
<text text-anchor="middle" x="1193" y="-174.3" font-family="Times,serif" font-size="14.00">V560 (a)</text>
</g>
<!-- 18 -->
<g id="node17" class="node">
<title>18</title>
<ellipse fill="none" stroke="black" cx="1193" cy="-106" rx="55.79" ry="18"/>
<text text-anchor="middle" x="1193" y="-102.3" font-family="Times,serif" font-size="14.00">V1920 (a)</text>
</g>
<!-- 15&#45;&gt;18 -->
<g id="edge16" class="edge">
<title>15&#45;&gt;18</title>
<path fill="none" stroke="black" stroke-dasharray="5,2" d="M1193,-159.7C1193,-151.98 1193,-142.71 1193,-134.11"/>
<polygon fill="black" stroke="black" points="1196.5,-134.1 1193,-124.1 1189.5,-134.1 1196.5,-134.1"/>
</g>
<!-- 16 -->
<g id="node15" class="node">
<title>16</title>
<ellipse fill="none" stroke="black" cx="1314" cy="-178" rx="52.79" ry="18"/>
<text text-anchor="middle" x="1314" y="-174.3" font-family="Times,serif" font-size="14.00">M136 (a)</text>
</g>
<!-- 17 -->
<g id="node16" class="node">
<title>17</title>
<ellipse fill="none" stroke="black" cx="1795" cy="-106" rx="44.39" ry="18"/>
<text text-anchor="middle" x="1795" y="-102.3" font-family="Times,serif" font-size="14.00">P01 (a)</text>
</g>
<!-- 20 -->
<g id="node18" class="node">
<title>20</title>
<ellipse fill="none" stroke="black" cx="1193" cy="-251" rx="53.89" ry="18"/>
<text text-anchor="middle" x="1193" y="-247.3" font-family="Times,serif" font-size="14.00">aBase (a)</text>
</g>
<!-- 20&#45;&gt;0 -->
<g id="edge1" class="edge">
<title>20&#45;&gt;0</title>
<path fill="none" stroke="black" stroke-width="2" d="M1139.29,-248.53C1034.52,-244.91 795.93,-232.98 599,-196 594.82,-195.21 590.5,-194.26 586.2,-193.21"/>
<polygon fill="black" stroke="black" stroke-width="2" points="586.81,-189.75 576.25,-190.61 585.04,-196.52 586.81,-189.75"/>
</g>
<!-- 20&#45;&gt;1 -->
<g id="edge2" class="edge">
<title>20&#45;&gt;1</title>
<path fill="none" stroke="black" d="M1140.43,-246.93C1052.22,-241.12 869.12,-226.32 717,-196 712.82,-195.17 708.52,-194.18 704.22,-193.11"/>
<polygon fill="black" stroke="black" points="704.84,-189.65 694.27,-190.48 703.05,-196.42 704.84,-189.65"/>
</g>
<!-- 20&#45;&gt;5 -->
<g id="edge4" class="edge">
<title>20&#45;&gt;5</title>
<path fill="none" stroke="black" stroke-dasharray="5,2" d="M1145.86,-241.99C1067.46,-228.68 910.77,-202.06 828.41,-188.07"/>
<polygon fill="black" stroke="black" points="828.95,-184.61 818.5,-186.39 827.77,-191.51 828.95,-184.61"/>
</g>
<!-- 20&#45;&gt;10 -->
<g id="edge8" class="edge">
<title>20&#45;&gt;10</title>
<path fill="none" stroke="black" d="M1153.23,-238.75C1109.22,-226.3 1038.28,-206.23 990.9,-192.83"/>
<polygon fill="black" stroke="black" points="991.75,-189.43 981.17,-190.08 989.84,-196.17 991.75,-189.43"/>
</g>
<!-- 20&#45;&gt;13 -->
<g id="edge11" class="edge">
<title>20&#45;&gt;13</title>
<path fill="none" stroke="black" d="M1167.01,-235.12C1148.78,-224.68 1124.19,-210.6 1104.21,-199.16"/>
<polygon fill="black" stroke="black" points="1105.8,-196.04 1095.39,-194.11 1102.33,-202.12 1105.8,-196.04"/>
</g>
<!-- 20&#45;&gt;15 -->
<g id="edge13" class="edge">
<title>20&#45;&gt;15</title>
<path fill="none" stroke="black" stroke-width="2" d="M1193,-232.81C1193,-224.79 1193,-215.05 1193,-206.07"/>
<polygon fill="black" stroke="black" stroke-width="2" points="1196.5,-206.03 1193,-196.03 1189.5,-206.03 1196.5,-206.03"/>
</g>
<!-- 20&#45;&gt;16 -->
<g id="edge14" class="edge">
<title>20&#45;&gt;16</title>
<path fill="none" stroke="black" stroke-width="2" d="M1218.66,-234.94C1236.39,-224.54 1260.17,-210.59 1279.54,-199.22"/>
<polygon fill="black" stroke="black" stroke-width="2" points="1281.52,-202.12 1288.38,-194.04 1277.98,-196.08 1281.52,-202.12"/>
</g>
<!-- 22 -->
<g id="node19" class="node">
<title>22</title>
<ellipse fill="none" stroke="black" cx="1429" cy="-178" rx="44.69" ry="18"/>
<text text-anchor="middle" x="1429" y="-174.3" font-family="Times,serif" font-size="14.00">Nan (a)</text>
</g>
<!-- 20&#45;&gt;22 -->
<g id="edge17" class="edge">
<title>20&#45;&gt;22</title>
<path fill="none" stroke="black" d="M1232.35,-238.68C1269.46,-227.93 1326.61,-211.21 1376,-196 1379.09,-195.05 1382.29,-194.05 1385.5,-193.04"/>
<polygon fill="black" stroke="black" points="1386.63,-196.36 1395.11,-190 1384.52,-189.68 1386.63,-196.36"/>
</g>
<!-- 29 -->
<g id="node24" class="node">
<title>29</title>
<ellipse fill="none" stroke="black" cx="1535" cy="-178" rx="42.79" ry="18"/>
<text text-anchor="middle" x="1535" y="-174.3" font-family="Times,serif" font-size="14.00">La2 (a)</text>
</g>
<!-- 20&#45;&gt;29 -->
<g id="edge22" class="edge">
<title>20&#45;&gt;29</title>
<path fill="none" stroke="black" stroke-width="2" d="M1241.4,-242.99C1299.32,-234.14 1399.02,-217.45 1483,-196 1486.37,-195.14 1489.84,-194.18 1493.31,-193.16"/>
<polygon fill="black" stroke="black" stroke-width="2" points="1494.48,-196.46 1503.02,-190.19 1492.43,-189.77 1494.48,-196.46"/>
</g>
<!-- 33 -->
<g id="node27" class="node">
<title>33</title>
<ellipse fill="none" stroke="black" cx="1661" cy="-178" rx="44.39" ry="18"/>
<text text-anchor="middle" x="1661" y="-174.3" font-family="Times,serif" font-size="14.00">A25 (a)</text>
</g>
<!-- 20&#45;&gt;33 -->
<g id="edge25" class="edge">
<title>20&#45;&gt;33</title>
<path fill="none" stroke="black" stroke-dasharray="5,2" d="M1243.61,-244.53C1318.82,-236.08 1464.41,-218.43 1587,-196 1595.86,-194.38 1605.25,-192.41 1614.27,-190.4"/>
<polygon fill="black" stroke="black" points="1615.28,-193.76 1624.25,-188.13 1613.72,-186.94 1615.28,-193.76"/>
</g>
<!-- 42 -->
<g id="node32" class="node">
<title>42</title>
<ellipse fill="none" stroke="black" cx="1773" cy="-178" rx="50.09" ry="18"/>
<text text-anchor="middle" x="1773" y="-174.3" font-family="Times,serif" font-size="14.00">S249 (a)</text>
</g>
<!-- 20&#45;&gt;42 -->
<g id="edge30" class="edge">
<title>20&#45;&gt;42</title>
<path fill="none" stroke="black" d="M1246.34,-247.6C1341.17,-242.63 1545.06,-228.82 1714,-196 1718.18,-195.19 1722.49,-194.22 1726.79,-193.15"/>
<polygon fill="black" stroke="black" points="1727.95,-196.47 1736.74,-190.54 1726.18,-189.7 1727.95,-196.47"/>
</g>
<!-- 26 -->
<g id="node22" class="node">
<title>26</title>
<ellipse fill="none" stroke="black" cx="1323" cy="-106" rx="55.79" ry="18"/>
<text text-anchor="middle" x="1323" y="-102.3" font-family="Times,serif" font-size="14.00">V1897 (a)</text>
</g>
<!-- 22&#45;&gt;26 -->
<g id="edge20" class="edge">
<title>22&#45;&gt;26</title>
<path fill="none" stroke="black" stroke-dasharray="1,5" d="M1406.78,-162.33C1391.68,-152.36 1371.49,-139.02 1354.71,-127.94"/>
<polygon fill="black" stroke="black" points="1356.57,-124.97 1346.29,-122.38 1352.71,-130.81 1356.57,-124.97"/>
</g>
<!-- 27 -->
<g id="node23" class="node">
<title>27</title>
<ellipse fill="none" stroke="black" cx="1453" cy="-106" rx="55.79" ry="18"/>
<text text-anchor="middle" x="1453" y="-102.3" font-family="Times,serif" font-size="14.00">V2250 (a)</text>
</g>
<!-- 22&#45;&gt;27 -->
<g id="edge21" class="edge">
<title>22&#45;&gt;27</title>
<path fill="none" stroke="black" stroke-dasharray="5,2" d="M1434.81,-160.05C1437.51,-152.18 1440.79,-142.62 1443.81,-133.79"/>
<polygon fill="black" stroke="black" points="1447.14,-134.87 1447.08,-124.28 1440.52,-132.6 1447.14,-134.87"/>
</g>
<!-- 35 -->
<g id="node28" class="node">
<title>35</title>
<ellipse fill="none" stroke="black" cx="1272" cy="-34" rx="41.69" ry="18"/>
<text text-anchor="middle" x="1272" y="-30.3" font-family="Times,serif" font-size="14.00">Est (a)</text>
</g>
<!-- 26&#45;&gt;35 -->
<g id="edge26" class="edge">
<title>26&#45;&gt;35</title>
<path fill="none" stroke="black" stroke-dasharray="1,5" d="M1310.91,-88.41C1304.69,-79.87 1296.97,-69.28 1290.06,-59.79"/>
<polygon fill="black" stroke="black" points="1292.72,-57.49 1284,-51.47 1287.06,-61.61 1292.72,-57.49"/>
</g>
<!-- 40 -->
<g id="node30" class="node">
<title>40</title>
<ellipse fill="none" stroke="black" cx="1374" cy="-34" rx="42.79" ry="18"/>
<text text-anchor="middle" x="1374" y="-30.3" font-family="Times,serif" font-size="14.00">Bas (a)</text>
</g>
<!-- 26&#45;&gt;40 -->
<g id="edge28" class="edge">
<title>26&#45;&gt;40</title>
<path fill="none" stroke="black" d="M1335.09,-88.41C1341.31,-79.87 1349.03,-69.28 1355.94,-59.79"/>
<polygon fill="black" stroke="black" points="1358.94,-61.61 1362,-51.47 1353.28,-57.49 1358.94,-61.61"/>
</g>
<!-- 31 -->
<g id="node25" class="node">
<title>31</title>
<ellipse fill="none" stroke="black" cx="1897" cy="-106" rx="40.09" ry="18"/>
<text text-anchor="middle" x="1897" y="-102.3" font-family="Times,serif" font-size="14.00">Pal (a)</text>
</g>
<!-- 33&#45;&gt;11 -->
<g id="edge9" class="edge">
<title>33&#45;&gt;11</title>
<path fill="none" stroke="black" stroke-dasharray="5,2" d="M1641.47,-161.81C1628.97,-152.09 1612.56,-139.32 1598.72,-128.56"/>
<polygon fill="black" stroke="black" points="1600.53,-125.54 1590.49,-122.16 1596.24,-131.06 1600.53,-125.54"/>
</g>
<!-- 33&#45;&gt;12 -->
<g id="edge10" class="edge">
<title>33&#45;&gt;12</title>
<path fill="none" stroke="black" stroke-dasharray="5,2" d="M1666.33,-160.05C1668.78,-152.26 1671.74,-142.82 1674.49,-134.08"/>
<polygon fill="black" stroke="black" points="1677.91,-134.86 1677.57,-124.28 1671.23,-132.77 1677.91,-134.86"/>
</g>
<!-- 33&#45;&gt;17 -->
<g id="edge15" class="edge">
<title>33&#45;&gt;17</title>
<path fill="none" stroke="black" stroke-dasharray="5,2" d="M1687.15,-163.34C1707.91,-152.5 1737.11,-137.24 1759.9,-125.34"/>
<polygon fill="black" stroke="black" points="1761.67,-128.36 1768.91,-120.63 1758.43,-122.16 1761.67,-128.36"/>
</g>
<!-- 33&#45;&gt;31 -->
<g id="edge23" class="edge">
<title>33&#45;&gt;31</title>
<path fill="none" stroke="black" stroke-dasharray="5,2" d="M1694.29,-166.05C1700.81,-163.99 1707.6,-161.88 1714,-160 1773.16,-142.58 1789.05,-142.12 1848,-124 1850.92,-123.1 1853.92,-122.15 1856.94,-121.16"/>
<polygon fill="black" stroke="black" points="1858.16,-124.44 1866.53,-117.95 1855.93,-117.8 1858.16,-124.44"/>
</g>
<!-- 41 -->
<g id="node31" class="node">
<title>41</title>
<ellipse fill="none" stroke="black" cx="960" cy="-34" rx="50.09" ry="18"/>
<text text-anchor="middle" x="960" y="-30.3" font-family="Times,serif" font-size="14.00">A336 (a)</text>
</g>
<!-- 37&#45;&gt;41 -->
<g id="edge29" class="edge">
<title>37&#45;&gt;41</title>
<path fill="none" stroke="black" stroke-dasharray="5,2" d="M960,-87.7C960,-79.98 960,-70.71 960,-62.11"/>
<polygon fill="black" stroke="black" points="963.5,-62.1 960,-52.1 956.5,-62.1 963.5,-62.1"/>
</g>
</g>
</svg>
