<?xml version="1.0" encoding="UTF-8" standalone="no"?>
<!DOCTYPE svg PUBLIC "-//W3C//DTD SVG 1.1//EN"
 "http://www.w3.org/Graphics/SVG/1.1/DTD/svg11.dtd">
<!-- Generated by graphviz version 2.43.0 (0)
 -->
<!-- Title: textual_flow_diagram Pages: 1 -->
<svg width="1524pt" height="654pt"
 viewBox="0.00 0.00 1524.00 654.00" xmlns="http://www.w3.org/2000/svg" xmlns:xlink="http://www.w3.org/1999/xlink">
<g id="graph0" class="graph" transform="scale(1 1) rotate(0) translate(4 650)">
<title>textual_flow_diagram</title>
<polygon fill="white" stroke="transparent" points="-4,4 -4,-650 1520,-650 1520,4 -4,4"/>
<g id="clust1" class="cluster">
<title>cluster_legend</title>
<polygon fill="none" stroke="black" points="8,-584 8,-638 204,-638 204,-584 8,-584"/>
</g>
<g id="clust2" class="cluster">
<title>cluster_plot</title>
</g>
<!-- label -->
<g id="node1" class="node">
<title>label</title>
<text text-anchor="middle" x="106" y="-614.8" font-family="Times,serif" font-size="14.00">adstag1.2.26U60&#45;62, c</text>
<text text-anchor="middle" x="106" y="-599.8" font-family="Times,serif" font-size="14.00">Con = 1</text>
</g>
<!-- 1 -->
<g id="node2" class="node">
<title>1</title>
<ellipse fill="none" stroke="black" cx="890" cy="-178" rx="40.09" ry="18"/>
<text text-anchor="middle" x="890" y="-174.3" font-family="Times,serif" font-size="14.00">Sin (c)</text>
</g>
<!-- 6 -->
<g id="node5" class="node">
<title>6</title>
<ellipse fill="none" stroke="black" cx="890" cy="-106" rx="49.29" ry="18"/>
<text text-anchor="middle" x="890" y="-102.3" font-family="Times,serif" font-size="14.00">Marc (c)</text>
</g>
<!-- 1&#45;&gt;6 -->
<g id="edge4" class="edge">
<title>1&#45;&gt;6</title>
<path fill="none" stroke="black" stroke-dasharray="1,5" d="M890,-159.7C890,-151.98 890,-142.71 890,-134.11"/>
<polygon fill="black" stroke="black" points="893.5,-134.1 890,-124.1 886.5,-134.1 893.5,-134.1"/>
</g>
<!-- 3 -->
<g id="node3" class="node">
<title>3</title>
<ellipse fill="none" stroke="black" cx="1000" cy="-178" rx="51.99" ry="18"/>
<text text-anchor="middle" x="1000" y="-174.3" font-family="Times,serif" font-size="14.00">M118 (c)</text>
</g>
<!-- 4 -->
<g id="node4" class="node">
<title>4</title>
<ellipse fill="none" stroke="black" cx="890" cy="-34" rx="46.29" ry="18"/>
<text text-anchor="middle" x="890" y="-30.3" font-family="Times,serif" font-size="14.00">Mon (c)</text>
</g>
<!-- 6&#45;&gt;4 -->
<g id="edge3" class="edge">
<title>6&#45;&gt;4</title>
<path fill="none" stroke="black" stroke-dasharray="1,5" d="M890,-87.7C890,-79.98 890,-70.71 890,-62.11"/>
<polygon fill="black" stroke="black" points="893.5,-62.1 890,-52.1 886.5,-62.1 893.5,-62.1"/>
</g>
<!-- 9 -->
<g id="node6" class="node">
<title>9</title>
<ellipse fill="none" stroke="black" cx="1269" cy="-466" rx="55.49" ry="18"/>
<text text-anchor="middle" x="1269" y="-462.3" font-family="Times,serif" font-size="14.00">V2250 (c)</text>
</g>
<!-- 12 -->
<g id="node7" class="node">
<title>12</title>
<ellipse fill="none" stroke="black" cx="394" cy="-538" rx="46.29" ry="18"/>
<text text-anchor="middle" x="394" y="-534.3" font-family="Times,serif" font-size="14.00">Bodl (c)</text>
</g>
<!-- 14 -->
<g id="node8" class="node">
<title>14</title>
<ellipse fill="none" stroke="black" cx="1000" cy="-250" rx="46.29" ry="18"/>
<text text-anchor="middle" x="1000" y="-246.3" font-family="Times,serif" font-size="14.00">Taur (c)</text>
</g>
<!-- 14&#45;&gt;1 -->
<g id="edge1" class="edge">
<title>14&#45;&gt;1</title>
<path fill="none" stroke="black" stroke-dasharray="1,5" d="M976.94,-234.33C960.74,-224.02 938.88,-210.1 921.13,-198.81"/>
<polygon fill="black" stroke="black" points="922.59,-195.59 912.28,-193.18 918.84,-201.5 922.59,-195.59"/>
</g>
<!-- 14&#45;&gt;3 -->
<g id="edge2" class="edge">
<title>14&#45;&gt;3</title>
<path fill="none" stroke="black" stroke-dasharray="5,2" d="M1000,-231.7C1000,-223.98 1000,-214.71 1000,-206.11"/>
<polygon fill="black" stroke="black" points="1003.5,-206.1 1000,-196.1 996.5,-206.1 1003.5,-206.1"/>
</g>
<!-- 40 -->
<g id="node22" class="node">
<title>40</title>
<ellipse fill="none" stroke="black" cx="1119" cy="-178" rx="49.29" ry="18"/>
<text text-anchor="middle" x="1119" y="-174.3" font-family="Times,serif" font-size="14.00">V569 (c)</text>
</g>
<!-- 14&#45;&gt;40 -->
<g id="edge21" class="edge">
<title>14&#45;&gt;40</title>
<path fill="none" stroke="black" stroke-dasharray="5,2" d="M1024.37,-234.67C1041.86,-224.38 1065.67,-210.37 1085.02,-198.99"/>
<polygon fill="black" stroke="black" points="1087,-201.88 1093.84,-193.8 1083.45,-195.85 1087,-201.88"/>
</g>
<!-- 16 -->
<g id="node9" class="node">
<title>16</title>
<ellipse fill="none" stroke="black" cx="1397" cy="-394" rx="40.89" ry="18"/>
<text text-anchor="middle" x="1397" y="-390.3" font-family="Times,serif" font-size="14.00">Est (c)</text>
</g>
<!-- 17 -->
<g id="node10" class="node">
<title>17</title>
<ellipse fill="none" stroke="black" cx="1397" cy="-466" rx="55.49" ry="18"/>
<text text-anchor="middle" x="1397" y="-462.3" font-family="Times,serif" font-size="14.00">V1897 (c)</text>
</g>
<!-- 17&#45;&gt;16 -->
<g id="edge8" class="edge">
<title>17&#45;&gt;16</title>
<path fill="none" stroke="black" stroke-dasharray="1,5" d="M1397,-447.7C1397,-439.98 1397,-430.71 1397,-422.11"/>
<polygon fill="black" stroke="black" points="1400.5,-422.1 1397,-412.1 1393.5,-422.1 1400.5,-422.1"/>
</g>
<!-- 18 -->
<g id="node11" class="node">
<title>18</title>
<ellipse fill="none" stroke="black" cx="1000" cy="-322" rx="49.29" ry="18"/>
<text text-anchor="middle" x="1000" y="-318.3" font-family="Times,serif" font-size="14.00">V568 (c)</text>
</g>
<!-- 18&#45;&gt;14 -->
<g id="edge7" class="edge">
<title>18&#45;&gt;14</title>
<path fill="none" stroke="black" stroke-dasharray="1,5" d="M1000,-303.7C1000,-295.98 1000,-286.71 1000,-278.11"/>
<polygon fill="black" stroke="black" points="1003.5,-278.1 1000,-268.1 996.5,-278.1 1003.5,-278.1"/>
</g>
<!-- 21 -->
<g id="node12" class="node">
<title>21</title>
<ellipse fill="none" stroke="black" cx="510" cy="-538" rx="51.99" ry="18"/>
<text text-anchor="middle" x="510" y="-534.3" font-family="Times,serif" font-size="14.00">M111 (c)</text>
</g>
<!-- 22 -->
<g id="node13" class="node">
<title>22</title>
<ellipse fill="none" stroke="black" cx="1456" cy="-538" rx="43.59" ry="18"/>
<text text-anchor="middle" x="1456" y="-534.3" font-family="Times,serif" font-size="14.00">S32 (c)</text>
</g>
<!-- 23 -->
<g id="node14" class="node">
<title>23</title>
<ellipse fill="none" stroke="black" cx="1000" cy="-538" rx="50.09" ry="18"/>
<text text-anchor="middle" x="1000" y="-534.3" font-family="Times,serif" font-size="14.00">Neap (c)</text>
</g>
<!-- 28 -->
<g id="node18" class="node">
<title>28</title>
<ellipse fill="none" stroke="black" cx="1000" cy="-466" rx="55.49" ry="18"/>
<text text-anchor="middle" x="1000" y="-462.3" font-family="Times,serif" font-size="14.00">V1629 (c)</text>
</g>
<!-- 23&#45;&gt;28 -->
<g id="edge17" class="edge">
<title>23&#45;&gt;28</title>
<path fill="none" stroke="black" stroke-dasharray="1,5" d="M1000,-519.7C1000,-511.98 1000,-502.71 1000,-494.11"/>
<polygon fill="black" stroke="black" points="1003.5,-494.1 1000,-484.1 996.5,-494.1 1003.5,-494.1"/>
</g>
<!-- 24 -->
<g id="node15" class="node">
<title>24</title>
<ellipse fill="none" stroke="black" cx="1000" cy="-394" rx="49.29" ry="18"/>
<text text-anchor="middle" x="1000" y="-390.3" font-family="Times,serif" font-size="14.00">V536 (c)</text>
</g>
<!-- 24&#45;&gt;18 -->
<g id="edge10" class="edge">
<title>24&#45;&gt;18</title>
<path fill="none" stroke="black" stroke-dasharray="1,5" d="M1000,-375.7C1000,-367.98 1000,-358.71 1000,-350.11"/>
<polygon fill="black" stroke="black" points="1003.5,-350.1 1000,-340.1 996.5,-350.1 1003.5,-350.1"/>
</g>
<!-- 25 -->
<g id="node16" class="node">
<title>25</title>
<ellipse fill="none" stroke="black" cx="635" cy="-538" rx="55.49" ry="18"/>
<text text-anchor="middle" x="635" y="-534.3" font-family="Times,serif" font-size="14.00">V2036 (c)</text>
</g>
<!-- 26 -->
<g id="node17" class="node">
<title>26</title>
<ellipse fill="none" stroke="black" cx="756" cy="-538" rx="48.19" ry="18"/>
<text text-anchor="middle" x="756" y="-534.3" font-family="Times,serif" font-size="14.00">La35 (c)</text>
</g>
<!-- 28&#45;&gt;24 -->
<g id="edge14" class="edge">
<title>28&#45;&gt;24</title>
<path fill="none" stroke="black" stroke-dasharray="5,2" d="M1000,-447.7C1000,-439.98 1000,-430.71 1000,-422.11"/>
<polygon fill="black" stroke="black" points="1003.5,-422.1 1000,-412.1 996.5,-422.1 1003.5,-422.1"/>
</g>
<!-- 31 -->
<g id="node19" class="node">
<title>31</title>
<ellipse fill="none" stroke="black" cx="1117" cy="-538" rx="49.29" ry="18"/>
<text text-anchor="middle" x="1117" y="-534.3" font-family="Times,serif" font-size="14.00">S249 (c)</text>
</g>
<!-- 35 -->
<g id="node20" class="node">
<title>35</title>
<ellipse fill="none" stroke="black" cx="877" cy="-538" rx="55.49" ry="18"/>
<text text-anchor="middle" x="877" y="-534.3" font-family="Times,serif" font-size="14.00">V1639 (c)</text>
</g>
<!-- 38 -->
<g id="node21" class="node">
<title>38</title>
<ellipse fill="none" stroke="black" cx="1236" cy="-538" rx="51.99" ry="18"/>
<text text-anchor="middle" x="1236" y="-534.3" font-family="Times,serif" font-size="14.00">M136 (c)</text>
</g>
<!-- 42 -->
<g id="node23" class="node">
<title>42</title>
<ellipse fill="none" stroke="black" cx="1350" cy="-538" rx="44.39" ry="18"/>
<text text-anchor="middle" x="1350" y="-534.3" font-family="Times,serif" font-size="14.00">Nan (c)</text>
</g>
<!-- 42&#45;&gt;9 -->
<g id="edge5" class="edge">
<title>42&#45;&gt;9</title>
<path fill="none" stroke="black" stroke-dasharray="5,2" d="M1332.02,-521.46C1321.17,-512.08 1307.14,-499.96 1295.08,-489.54"/>
<polygon fill="black" stroke="black" points="1297.34,-486.87 1287.49,-482.98 1292.77,-492.16 1297.34,-486.87"/>
</g>
<!-- 42&#45;&gt;17 -->
<g id="edge9" class="edge">
<title>42&#45;&gt;17</title>
<path fill="none" stroke="black" stroke-dasharray="1,5" d="M1361.14,-520.41C1366.73,-512.08 1373.64,-501.8 1379.89,-492.49"/>
<polygon fill="black" stroke="black" points="1382.95,-494.21 1385.62,-483.96 1377.13,-490.31 1382.95,-494.21"/>
</g>
<!-- 43 -->
<g id="node24" class="node">
<title>43</title>
<ellipse fill="none" stroke="black" cx="275" cy="-538" rx="55.49" ry="18"/>
<text text-anchor="middle" x="275" y="-534.3" font-family="Times,serif" font-size="14.00">V1920 (c)</text>
</g>
<!-- 0 -->
<g id="node25" class="node">
<title>0</title>
<ellipse fill="none" stroke="blue" stroke-dasharray="5,2" cx="1456" cy="-611" rx="44.39" ry="18"/>
<text text-anchor="middle" x="1456" y="-607.3" font-family="Times,serif" font-size="14.00">A25 (a)</text>
</g>
<!-- 0&#45;&gt;22 -->
<g id="edge12" class="edge">
<title>0&#45;&gt;22</title>
<path fill="none" stroke="blue" stroke-dasharray="5,2" d="M1456,-592.81C1456,-584.79 1456,-575.05 1456,-566.07"/>
<polygon fill="blue" stroke="blue" points="1459.5,-566.03 1456,-556.03 1452.5,-566.03 1459.5,-566.03"/>
</g>
<!-- 11 -->
<g id="node26" class="node">
<title>11</title>
<ellipse fill="none" stroke="blue" stroke-dasharray="5,2" cx="1176" cy="-611" rx="53.89" ry="18"/>
<text text-anchor="middle" x="1176" y="-607.3" font-family="Times,serif" font-size="14.00">aBase (a)</text>
</g>
<!-- 11&#45;&gt;23 -->
<g id="edge13" class="edge">
<title>11&#45;&gt;23</title>
<path fill="none" stroke="blue" stroke-width="2" d="M1142.9,-596.65C1114.23,-585.08 1072.63,-568.3 1041.7,-555.82"/>
<polygon fill="blue" stroke="blue" stroke-width="2" points="1042.65,-552.43 1032.07,-551.94 1040.03,-558.92 1042.65,-552.43"/>
</g>
<!-- 11&#45;&gt;31 -->
<g id="edge18" class="edge">
<title>11&#45;&gt;31</title>
<path fill="none" stroke="blue" d="M1162.32,-593.53C1154.87,-584.57 1145.51,-573.31 1137.24,-563.36"/>
<polygon fill="blue" stroke="blue" points="1139.69,-560.83 1130.61,-555.38 1134.31,-565.31 1139.69,-560.83"/>
</g>
<!-- 11&#45;&gt;38 -->
<g id="edge20" class="edge">
<title>11&#45;&gt;38</title>
<path fill="none" stroke="blue" stroke-width="2" d="M1189.92,-593.53C1197.56,-584.48 1207.19,-573.09 1215.67,-563.06"/>
<polygon fill="blue" stroke="blue" stroke-width="2" points="1218.38,-565.28 1222.16,-555.38 1213.03,-560.76 1218.38,-565.28"/>
</g>
<!-- 11&#45;&gt;42 -->
<g id="edge22" class="edge">
<title>11&#45;&gt;42</title>
<path fill="none" stroke="blue" d="M1208.73,-596.65C1237.51,-584.9 1279.48,-567.77 1310.2,-555.24"/>
<polygon fill="blue" stroke="blue" points="1311.81,-558.36 1319.75,-551.34 1309.17,-551.88 1311.81,-558.36"/>
</g>
<!-- 19 -->
<g id="node27" class="node">
<title>19</title>
<ellipse fill="none" stroke="blue" stroke-dasharray="5,2" cx="877" cy="-611" rx="50.09" ry="18"/>
<text text-anchor="middle" x="877" y="-607.3" font-family="Times,serif" font-size="14.00">V566 (a)</text>
</g>
<!-- 19&#45;&gt;35 -->
<g id="edge19" class="edge">
<title>19&#45;&gt;35</title>
<path fill="none" stroke="blue" stroke-dasharray="1,5" d="M877,-592.81C877,-584.79 877,-575.05 877,-566.07"/>
<polygon fill="blue" stroke="blue" points="880.5,-566.03 877,-556.03 873.5,-566.03 880.5,-566.03"/>
</g>
<!-- 27 -->
<g id="node28" class="node">
<title>27</title>
<ellipse fill="none" stroke="blue" stroke-dasharray="5,2" cx="572" cy="-611" rx="48.99" ry="18"/>
<text text-anchor="middle" x="572" y="-607.3" font-family="Times,serif" font-size="14.00">La22 (a)</text>
</g>
<!-- 27&#45;&gt;12 -->
<g id="edge6" class="edge">
<title>27&#45;&gt;12</title>
<path fill="none" stroke="blue" stroke-dasharray="5,2" d="M540.18,-597.31C510.72,-585.56 466.78,-568.03 434.77,-555.26"/>
<polygon fill="blue" stroke="blue" points="435.83,-551.92 425.25,-551.46 433.24,-558.42 435.83,-551.92"/>
</g>
<!-- 27&#45;&gt;21 -->
<g id="edge11" class="edge">
<title>27&#45;&gt;21</title>
<path fill="none" stroke="blue" stroke-dasharray="1,5" d="M557.62,-593.53C549.72,-584.48 539.77,-573.09 531.01,-563.06"/>
<polygon fill="blue" stroke="blue" points="533.52,-560.61 524.3,-555.38 528.24,-565.21 533.52,-560.61"/>
</g>
<!-- 27&#45;&gt;25 -->
<g id="edge15" class="edge">
<title>27&#45;&gt;25</title>
<path fill="none" stroke="blue" stroke-dasharray="5,2" d="M586.61,-593.53C594.64,-584.48 604.75,-573.09 613.65,-563.06"/>
<polygon fill="blue" stroke="blue" points="616.45,-565.18 620.47,-555.38 611.21,-560.53 616.45,-565.18"/>
</g>
<!-- 27&#45;&gt;26 -->
<g id="edge16" class="edge">
<title>27&#45;&gt;26</title>
<path fill="none" stroke="blue" stroke-dasharray="1,5" d="M604.47,-597.47C635.08,-585.66 681.1,-567.9 714.39,-555.05"/>
<polygon fill="blue" stroke="blue" points="715.78,-558.27 723.85,-551.4 713.26,-551.74 715.78,-558.27"/>
</g>
<!-- 33 -->
<g id="node29" class="node">
<title>33</title>
<ellipse fill="none" stroke="blue" stroke-dasharray="5,2" cx="275" cy="-611" rx="50.09" ry="18"/>
<text text-anchor="middle" x="275" y="-607.3" font-family="Times,serif" font-size="14.00">V560 (b)</text>
</g>
<!-- 33&#45;&gt;43 -->
<g id="edge23" class="edge">
<title>33&#45;&gt;43</title>
<path fill="none" stroke="blue" stroke-dasharray="5,2" d="M275,-592.81C275,-584.79 275,-575.05 275,-566.07"/>
<polygon fill="blue" stroke="blue" points="278.5,-566.03 275,-556.03 271.5,-566.03 278.5,-566.03"/>
</g>
</g>
</svg>
