<?xml version="1.0" encoding="UTF-8" standalone="no"?>
<!DOCTYPE svg PUBLIC "-//W3C//DTD SVG 1.1//EN"
 "http://www.w3.org/Graphics/SVG/1.1/DTD/svg11.dtd">
<!-- Generated by graphviz version 2.43.0 (0)
 -->
<!-- Title: textual_flow_diagram Pages: 1 -->
<svg width="1604pt" height="294pt"
 viewBox="0.00 0.00 1604.00 294.00" xmlns="http://www.w3.org/2000/svg" xmlns:xlink="http://www.w3.org/1999/xlink">
<g id="graph0" class="graph" transform="scale(1 1) rotate(0) translate(4 290)">
<title>textual_flow_diagram</title>
<polygon fill="white" stroke="transparent" points="-4,4 -4,-290 1600,-290 1600,4 -4,4"/>
<g id="clust1" class="cluster">
<title>cluster_legend</title>
<polygon fill="none" stroke="black" points="8,-224 8,-278 204,-278 204,-224 8,-224"/>
</g>
<g id="clust2" class="cluster">
<title>cluster_plot</title>
</g>
<!-- label -->
<g id="node1" class="node">
<title>label</title>
<text text-anchor="middle" x="106" y="-254.8" font-family="Times,serif" font-size="14.00">adstag1.3.46U54&#45;58, a</text>
<text text-anchor="middle" x="106" y="-239.8" font-family="Times,serif" font-size="14.00">Con = 5</text>
</g>
<!-- 0 -->
<g id="node2" class="node">
<title>0</title>
<ellipse fill="none" stroke="black" cx="276" cy="-178" rx="55.79" ry="18"/>
<text text-anchor="middle" x="276" y="-174.3" font-family="Times,serif" font-size="14.00">V2036 (a)</text>
</g>
<!-- 1 -->
<g id="node3" class="node">
<title>1</title>
<ellipse fill="none" stroke="black" cx="1424" cy="-34" rx="55.79" ry="18"/>
<text text-anchor="middle" x="1424" y="-30.3" font-family="Times,serif" font-size="14.00">V1639 (a)</text>
</g>
<!-- 5 -->
<g id="node4" class="node">
<title>5</title>
<ellipse fill="none" stroke="black" cx="373" cy="-106" rx="46.59" ry="18"/>
<text text-anchor="middle" x="373" y="-102.3" font-family="Times,serif" font-size="14.00">Bodl (a)</text>
</g>
<!-- 6 -->
<g id="node5" class="node">
<title>6</title>
<ellipse fill="none" stroke="black" cx="400" cy="-178" rx="50.09" ry="18"/>
<text text-anchor="middle" x="400" y="-174.3" font-family="Times,serif" font-size="14.00">S249 (a)</text>
</g>
<!-- 7 -->
<g id="node6" class="node">
<title>7</title>
<ellipse fill="none" stroke="black" cx="1312" cy="-106" rx="44.39" ry="18"/>
<text text-anchor="middle" x="1312" y="-102.3" font-family="Times,serif" font-size="14.00">P01 (a)</text>
</g>
<!-- 9 -->
<g id="node7" class="node">
<title>9</title>
<ellipse fill="none" stroke="black" cx="1194" cy="-106" rx="55.79" ry="18"/>
<text text-anchor="middle" x="1194" y="-102.3" font-family="Times,serif" font-size="14.00">V1629 (a)</text>
</g>
<!-- 13 -->
<g id="node8" class="node">
<title>13</title>
<ellipse fill="none" stroke="black" cx="482" cy="-106" rx="44.39" ry="18"/>
<text text-anchor="middle" x="482" y="-102.3" font-family="Times,serif" font-size="14.00">P74 (a)</text>
</g>
<!-- 15 -->
<g id="node9" class="node">
<title>15</title>
<ellipse fill="none" stroke="black" cx="697" cy="-251" rx="53.89" ry="18"/>
<text text-anchor="middle" x="697" y="-247.3" font-family="Times,serif" font-size="14.00">aBase (a)</text>
</g>
<!-- 15&#45;&gt;0 -->
<g id="edge1" class="edge">
<title>15&#45;&gt;0</title>
<path fill="none" stroke="black" d="M646.89,-244.09C577.71,-235.54 449.22,-218.29 341,-196 336.32,-195.04 331.47,-193.94 326.63,-192.79"/>
<polygon fill="black" stroke="black" points="327.31,-189.35 316.76,-190.36 325.63,-196.15 327.31,-189.35"/>
</g>
<!-- 15&#45;&gt;6 -->
<g id="edge4" class="edge">
<title>15&#45;&gt;6</title>
<path fill="none" stroke="black" d="M652.51,-240.71C604.56,-230.5 526.09,-213.26 459,-196 455.16,-195.01 451.19,-193.95 447.21,-192.86"/>
<polygon fill="black" stroke="black" points="447.94,-189.43 437.37,-190.12 446.06,-196.17 447.94,-189.43"/>
</g>
<!-- 19 -->
<g id="node11" class="node">
<title>19</title>
<ellipse fill="none" stroke="black" cx="521" cy="-178" rx="52.79" ry="18"/>
<text text-anchor="middle" x="521" y="-174.3" font-family="Times,serif" font-size="14.00">LaSM (a)</text>
</g>
<!-- 15&#45;&gt;19 -->
<g id="edge9" class="edge">
<title>15&#45;&gt;19</title>
<path fill="none" stroke="black" d="M663.9,-236.65C635.41,-225.16 594.15,-208.51 563.29,-196.06"/>
<polygon fill="black" stroke="black" points="564.24,-192.67 553.66,-192.17 561.62,-199.16 564.24,-192.67"/>
</g>
<!-- 21 -->
<g id="node13" class="node">
<title>21</title>
<ellipse fill="none" stroke="black" cx="642" cy="-178" rx="50.09" ry="18"/>
<text text-anchor="middle" x="642" y="-174.3" font-family="Times,serif" font-size="14.00">Patm (a)</text>
</g>
<!-- 15&#45;&gt;21 -->
<g id="edge11" class="edge">
<title>15&#45;&gt;21</title>
<path fill="none" stroke="black" d="M683.97,-233.17C677.18,-224.42 668.76,-213.55 661.25,-203.85"/>
<polygon fill="black" stroke="black" points="663.83,-201.47 654.94,-195.71 658.3,-205.75 663.83,-201.47"/>
</g>
<!-- 22 -->
<g id="node14" class="node">
<title>22</title>
<ellipse fill="none" stroke="black" cx="753" cy="-178" rx="42.79" ry="18"/>
<text text-anchor="middle" x="753" y="-174.3" font-family="Times,serif" font-size="14.00">La2 (a)</text>
</g>
<!-- 15&#45;&gt;22 -->
<g id="edge12" class="edge">
<title>15&#45;&gt;22</title>
<path fill="none" stroke="black" stroke-width="2" d="M710.27,-233.17C717.35,-224.2 726.18,-213.01 733.97,-203.13"/>
<polygon fill="black" stroke="black" stroke-width="2" points="736.76,-205.24 740.21,-195.22 731.27,-200.9 736.76,-205.24"/>
</g>
<!-- 25 -->
<g id="node16" class="node">
<title>25</title>
<ellipse fill="none" stroke="black" cx="863" cy="-178" rx="48.99" ry="18"/>
<text text-anchor="middle" x="863" y="-174.3" font-family="Times,serif" font-size="14.00">La22 (a)</text>
</g>
<!-- 15&#45;&gt;25 -->
<g id="edge14" class="edge">
<title>15&#45;&gt;25</title>
<path fill="none" stroke="black" stroke-dasharray="5,2" d="M729.01,-236.31C755.84,-224.83 794.28,-208.39 823.11,-196.06"/>
<polygon fill="black" stroke="black" points="824.67,-199.2 832.49,-192.05 821.92,-192.76 824.67,-199.2"/>
</g>
<!-- 33 -->
<g id="node20" class="node">
<title>33</title>
<ellipse fill="none" stroke="black" cx="1087" cy="-178" rx="50.09" ry="18"/>
<text text-anchor="middle" x="1087" y="-174.3" font-family="Times,serif" font-size="14.00">Neap (a)</text>
</g>
<!-- 15&#45;&gt;33 -->
<g id="edge18" class="edge">
<title>15&#45;&gt;33</title>
<path fill="none" stroke="black" stroke-width="2" d="M743.27,-241.58C815.97,-228.34 956.58,-202.74 1033.52,-188.74"/>
<polygon fill="black" stroke="black" stroke-width="2" points="1034.27,-192.16 1043.48,-186.92 1033.02,-185.27 1034.27,-192.16"/>
</g>
<!-- 37 -->
<g id="node22" class="node">
<title>37</title>
<ellipse fill="none" stroke="black" cx="1368" cy="-178" rx="44.39" ry="18"/>
<text text-anchor="middle" x="1368" y="-174.3" font-family="Times,serif" font-size="14.00">A25 (a)</text>
</g>
<!-- 15&#45;&gt;37 -->
<g id="edge20" class="edge">
<title>15&#45;&gt;37</title>
<path fill="none" stroke="black" stroke-dasharray="5,2" d="M747.71,-244.63C871.84,-231.5 1189.97,-197.84 1315.72,-184.53"/>
<polygon fill="black" stroke="black" points="1316.28,-187.99 1325.86,-183.46 1315.55,-181.03 1316.28,-187.99"/>
</g>
<!-- 16 -->
<g id="node10" class="node">
<title>16</title>
<ellipse fill="none" stroke="black" cx="831" cy="-34" rx="50.09" ry="18"/>
<text text-anchor="middle" x="831" y="-30.3" font-family="Times,serif" font-size="14.00">A336 (a)</text>
</g>
<!-- 26 -->
<g id="node17" class="node">
<title>26</title>
<ellipse fill="none" stroke="black" cx="264" cy="-106" rx="44.39" ry="18"/>
<text text-anchor="middle" x="264" y="-102.3" font-family="Times,serif" font-size="14.00">B39 (a)</text>
</g>
<!-- 19&#45;&gt;26 -->
<g id="edge15" class="edge">
<title>19&#45;&gt;26</title>
<path fill="none" stroke="black" stroke-dasharray="5,2" d="M481.34,-166C473.92,-163.98 466.23,-161.91 459,-160 396.05,-143.39 379.58,-141.95 317,-124 313.7,-123.05 310.29,-122.04 306.86,-121"/>
<polygon fill="black" stroke="black" points="307.85,-117.64 297.27,-118.02 305.78,-124.33 307.85,-117.64"/>
</g>
<!-- 20 -->
<g id="node12" class="node">
<title>20</title>
<ellipse fill="none" stroke="black" cx="593" cy="-106" rx="48.99" ry="18"/>
<text text-anchor="middle" x="593" y="-102.3" font-family="Times,serif" font-size="14.00">La35 (a)</text>
</g>
<!-- 24 -->
<g id="node15" class="node">
<title>24</title>
<ellipse fill="none" stroke="black" cx="710" cy="-106" rx="50.09" ry="18"/>
<text text-anchor="middle" x="710" y="-102.3" font-family="Times,serif" font-size="14.00">A116 (a)</text>
</g>
<!-- 25&#45;&gt;5 -->
<g id="edge3" class="edge">
<title>25&#45;&gt;5</title>
<path fill="none" stroke="black" stroke-dasharray="5,2" d="M827.68,-165.49C820.25,-163.4 812.42,-161.43 805,-160 640.15,-128.25 593.69,-156.54 429,-124 425.08,-123.22 421.03,-122.29 417,-121.25"/>
<polygon fill="black" stroke="black" points="417.65,-117.8 407.08,-118.52 415.8,-124.55 417.65,-117.8"/>
</g>
<!-- 25&#45;&gt;13 -->
<g id="edge7" class="edge">
<title>25&#45;&gt;13</title>
<path fill="none" stroke="black" stroke-dasharray="1,5" d="M827.33,-165.62C820,-163.54 812.29,-161.54 805,-160 686.57,-134.9 653.11,-150.59 535,-124 531.39,-123.19 527.68,-122.24 523.98,-121.21"/>
<polygon fill="black" stroke="black" points="524.84,-117.82 514.26,-118.35 522.87,-124.53 524.84,-117.82"/>
</g>
<!-- 25&#45;&gt;20 -->
<g id="edge10" class="edge">
<title>25&#45;&gt;20</title>
<path fill="none" stroke="black" stroke-dasharray="1,5" d="M826.58,-165.99C819.44,-163.93 812,-161.84 805,-160 737.03,-142.11 718.97,-141.89 651,-124 647.17,-122.99 643.21,-121.91 639.24,-120.8"/>
<polygon fill="black" stroke="black" points="640,-117.38 629.42,-118.01 638.08,-124.11 640,-117.38"/>
</g>
<!-- 25&#45;&gt;24 -->
<g id="edge13" class="edge">
<title>25&#45;&gt;24</title>
<path fill="none" stroke="black" stroke-dasharray="5,2" d="M833.5,-163.5C809.45,-152.5 775.28,-136.86 748.97,-124.83"/>
<polygon fill="black" stroke="black" points="750.22,-121.55 739.67,-120.57 747.31,-127.92 750.22,-121.55"/>
</g>
<!-- 30 -->
<g id="node18" class="node">
<title>30</title>
<ellipse fill="none" stroke="black" cx="831" cy="-106" rx="52.79" ry="18"/>
<text text-anchor="middle" x="831" y="-102.3" font-family="Times,serif" font-size="14.00">M111 (a)</text>
</g>
<!-- 25&#45;&gt;30 -->
<g id="edge16" class="edge">
<title>25&#45;&gt;30</title>
<path fill="none" stroke="black" stroke-dasharray="1,5" d="M855.25,-160.05C851.61,-152.09 847.19,-142.41 843.12,-133.51"/>
<polygon fill="black" stroke="black" points="846.24,-131.91 838.9,-124.28 839.87,-134.83 846.24,-131.91"/>
</g>
<!-- 32 -->
<g id="node19" class="node">
<title>32</title>
<ellipse fill="none" stroke="black" cx="952" cy="-106" rx="50.09" ry="18"/>
<text text-anchor="middle" x="952" y="-102.3" font-family="Times,serif" font-size="14.00">V571 (a)</text>
</g>
<!-- 25&#45;&gt;32 -->
<g id="edge17" class="edge">
<title>25&#45;&gt;32</title>
<path fill="none" stroke="black" stroke-dasharray="1,5" d="M882.75,-161.46C894.88,-151.93 910.61,-139.56 924.01,-129.02"/>
<polygon fill="black" stroke="black" points="926.3,-131.67 932,-122.73 921.97,-126.17 926.3,-131.67"/>
</g>
<!-- 38 -->
<g id="node23" class="node">
<title>38</title>
<ellipse fill="none" stroke="black" cx="1070" cy="-106" rx="50.09" ry="18"/>
<text text-anchor="middle" x="1070" y="-102.3" font-family="Times,serif" font-size="14.00">V565 (a)</text>
</g>
<!-- 25&#45;&gt;38 -->
<g id="edge21" class="edge">
<title>25&#45;&gt;38</title>
<path fill="none" stroke="black" stroke-dasharray="5,2" d="M897.65,-165.28C932.62,-153.46 986.78,-135.14 1025.04,-122.2"/>
<polygon fill="black" stroke="black" points="1026.54,-125.39 1034.89,-118.87 1024.3,-118.76 1026.54,-125.39"/>
</g>
<!-- 30&#45;&gt;16 -->
<g id="edge8" class="edge">
<title>30&#45;&gt;16</title>
<path fill="none" stroke="black" stroke-dasharray="5,2" d="M831,-87.7C831,-79.98 831,-70.71 831,-62.11"/>
<polygon fill="black" stroke="black" points="834.5,-62.1 831,-52.1 827.5,-62.1 834.5,-62.1"/>
</g>
<!-- 33&#45;&gt;9 -->
<g id="edge6" class="edge">
<title>33&#45;&gt;9</title>
<path fill="none" stroke="black" stroke-dasharray="1,5" d="M1109.95,-161.98C1125.12,-152.06 1145.21,-138.92 1161.94,-127.97"/>
<polygon fill="black" stroke="black" points="1163.89,-130.88 1170.34,-122.48 1160.06,-125.02 1163.89,-130.88"/>
</g>
<!-- 34 -->
<g id="node21" class="node">
<title>34</title>
<ellipse fill="none" stroke="black" cx="1424" cy="-106" rx="50.09" ry="18"/>
<text text-anchor="middle" x="1424" y="-102.3" font-family="Times,serif" font-size="14.00">V566 (a)</text>
</g>
<!-- 34&#45;&gt;1 -->
<g id="edge2" class="edge">
<title>34&#45;&gt;1</title>
<path fill="none" stroke="black" stroke-dasharray="1,5" d="M1424,-87.7C1424,-79.98 1424,-70.71 1424,-62.11"/>
<polygon fill="black" stroke="black" points="1427.5,-62.1 1424,-52.1 1420.5,-62.1 1427.5,-62.1"/>
</g>
<!-- 37&#45;&gt;7 -->
<g id="edge5" class="edge">
<title>37&#45;&gt;7</title>
<path fill="none" stroke="black" stroke-dasharray="5,2" d="M1355.01,-160.76C1348.11,-152.14 1339.49,-141.36 1331.78,-131.73"/>
<polygon fill="black" stroke="black" points="1334.29,-129.26 1325.31,-123.63 1328.82,-133.63 1334.29,-129.26"/>
</g>
<!-- 37&#45;&gt;34 -->
<g id="edge19" class="edge">
<title>37&#45;&gt;34</title>
<path fill="none" stroke="black" stroke-dasharray="5,2" d="M1380.99,-160.76C1387.89,-152.14 1396.51,-141.36 1404.22,-131.73"/>
<polygon fill="black" stroke="black" points="1407.18,-133.63 1410.69,-123.63 1401.71,-129.26 1407.18,-133.63"/>
</g>
<!-- 39 -->
<g id="node24" class="node">
<title>39</title>
<ellipse fill="none" stroke="black" cx="1536" cy="-106" rx="44.39" ry="18"/>
<text text-anchor="middle" x="1536" y="-102.3" font-family="Times,serif" font-size="14.00">S32 (a)</text>
</g>
<!-- 37&#45;&gt;39 -->
<g id="edge22" class="edge">
<title>37&#45;&gt;39</title>
<path fill="none" stroke="black" stroke-dasharray="5,2" d="M1397.65,-164.65C1425.19,-153.17 1466.39,-136.01 1496.67,-123.39"/>
<polygon fill="black" stroke="black" points="1498.2,-126.54 1506.08,-119.47 1495.51,-120.08 1498.2,-126.54"/>
</g>
</g>
</svg>
