<?xml version="1.0" encoding="UTF-8" standalone="no"?>
<!DOCTYPE svg PUBLIC "-//W3C//DTD SVG 1.1//EN"
 "http://www.w3.org/Graphics/SVG/1.1/DTD/svg11.dtd">
<!-- Generated by graphviz version 2.43.0 (0)
 -->
<!-- Title: textual_flow_diagram Pages: 1 -->
<svg width="480pt" height="222pt"
 viewBox="0.00 0.00 480.00 222.00" xmlns="http://www.w3.org/2000/svg" xmlns:xlink="http://www.w3.org/1999/xlink">
<g id="graph0" class="graph" transform="scale(1 1) rotate(0) translate(4 218)">
<title>textual_flow_diagram</title>
<polygon fill="white" stroke="transparent" points="-4,4 -4,-218 476,-218 476,4 -4,4"/>
<g id="clust1" class="cluster">
<title>cluster_legend</title>
<polygon fill="none" stroke="black" points="8,-152 8,-206 204,-206 204,-152 8,-152"/>
</g>
<g id="clust2" class="cluster">
<title>cluster_plot</title>
</g>
<!-- label -->
<g id="node1" class="node">
<title>label</title>
<text text-anchor="middle" x="106" y="-182.8" font-family="Times,serif" font-size="14.00">adstag1.3.43U16&#45;18, b</text>
<text text-anchor="middle" x="106" y="-167.8" font-family="Times,serif" font-size="14.00">Con = 10</text>
</g>
<!-- 3 -->
<g id="node2" class="node">
<title>3</title>
<ellipse fill="none" stroke="black" cx="400" cy="-34" rx="55.79" ry="18"/>
<text text-anchor="middle" x="400" y="-30.3" font-family="Times,serif" font-size="14.00">V1920 (b)</text>
</g>
<!-- 14 -->
<g id="node3" class="node">
<title>14</title>
<ellipse fill="none" stroke="black" cx="275" cy="-106" rx="43.59" ry="18"/>
<text text-anchor="middle" x="275" y="-102.3" font-family="Times,serif" font-size="14.00">Bas (b)</text>
</g>
<!-- 42 -->
<g id="node4" class="node">
<title>42</title>
<ellipse fill="none" stroke="black" cx="401" cy="-106" rx="50.09" ry="18"/>
<text text-anchor="middle" x="401" y="-102.3" font-family="Times,serif" font-size="14.00">V560 (b)</text>
</g>
<!-- 42&#45;&gt;3 -->
<g id="edge1" class="edge">
<title>42&#45;&gt;3</title>
<path fill="none" stroke="black" stroke-dasharray="5,2" d="M400.75,-87.7C400.64,-79.98 400.51,-70.71 400.39,-62.11"/>
<polygon fill="black" stroke="black" points="403.89,-62.05 400.24,-52.1 396.89,-62.15 403.89,-62.05"/>
</g>
<!-- 11 -->
<g id="node5" class="node">
<title>11</title>
<ellipse fill="none" stroke="blue" stroke-dasharray="5,2" cx="402" cy="-179" rx="53.89" ry="18"/>
<text text-anchor="middle" x="402" y="-175.3" font-family="Times,serif" font-size="14.00">aBase (a)</text>
</g>
<!-- 11&#45;&gt;42 -->
<g id="edge3" class="edge">
<title>11&#45;&gt;42</title>
<path fill="none" stroke="blue" stroke-width="2" d="M401.76,-160.81C401.64,-152.79 401.51,-143.05 401.38,-134.07"/>
<polygon fill="blue" stroke="blue" stroke-width="2" points="404.88,-133.98 401.24,-124.03 397.88,-134.08 404.88,-133.98"/>
</g>
<!-- 12 -->
<g id="node6" class="node">
<title>12</title>
<ellipse fill="none" stroke="blue" stroke-dasharray="5,2" cx="275" cy="-179" rx="55.49" ry="18"/>
<text text-anchor="middle" x="275" y="-175.3" font-family="Times,serif" font-size="14.00">V1897 (c)</text>
</g>
<!-- 12&#45;&gt;14 -->
<g id="edge2" class="edge">
<title>12&#45;&gt;14</title>
<path fill="none" stroke="blue" d="M275,-160.81C275,-152.79 275,-143.05 275,-134.07"/>
<polygon fill="blue" stroke="blue" points="278.5,-134.03 275,-124.03 271.5,-134.03 278.5,-134.03"/>
</g>
</g>
</svg>
