<?xml version="1.0" encoding="UTF-8" standalone="no"?>
<!DOCTYPE svg PUBLIC "-//W3C//DTD SVG 1.1//EN"
 "http://www.w3.org/Graphics/SVG/1.1/DTD/svg11.dtd">
<!-- Generated by graphviz version 2.43.0 (0)
 -->
<!-- Title: textual_flow_diagram Pages: 1 -->
<svg width="1471pt" height="366pt"
 viewBox="0.00 0.00 1471.00 366.00" xmlns="http://www.w3.org/2000/svg" xmlns:xlink="http://www.w3.org/1999/xlink">
<g id="graph0" class="graph" transform="scale(1 1) rotate(0) translate(4 362)">
<title>textual_flow_diagram</title>
<polygon fill="white" stroke="transparent" points="-4,4 -4,-362 1467,-362 1467,4 -4,4"/>
<g id="clust1" class="cluster">
<title>cluster_legend</title>
<polygon fill="none" stroke="black" points="8,-296 8,-350 172,-350 172,-296 8,-296"/>
</g>
<g id="clust2" class="cluster">
<title>cluster_plot</title>
</g>
<!-- label -->
<g id="node1" class="node">
<title>label</title>
<text text-anchor="middle" x="90" y="-326.8" font-family="Times,serif" font-size="14.00">adstag1.2.24U3, a</text>
<text text-anchor="middle" x="90" y="-311.8" font-family="Times,serif" font-size="14.00">Con = 1</text>
</g>
<!-- 0 -->
<g id="node2" class="node">
<title>0</title>
<ellipse fill="none" stroke="black" cx="678" cy="-250" rx="44.39" ry="18"/>
<text text-anchor="middle" x="678" y="-246.3" font-family="Times,serif" font-size="14.00">A25 (a)</text>
</g>
<!-- 15 -->
<g id="node10" class="node">
<title>15</title>
<ellipse fill="none" stroke="black" cx="347" cy="-178" rx="40.09" ry="18"/>
<text text-anchor="middle" x="347" y="-174.3" font-family="Times,serif" font-size="14.00">Pal (a)</text>
</g>
<!-- 0&#45;&gt;15 -->
<g id="edge8" class="edge">
<title>0&#45;&gt;15</title>
<path fill="none" stroke="black" stroke-dasharray="5,2" d="M636.95,-243.24C581.67,-235.04 480.49,-218.46 396,-196 392.87,-195.17 389.65,-194.23 386.42,-193.24"/>
<polygon fill="black" stroke="black" points="387.43,-189.89 376.84,-190.14 385.28,-196.55 387.43,-189.89"/>
</g>
<!-- 19 -->
<g id="node13" class="node">
<title>19</title>
<ellipse fill="none" stroke="black" cx="455" cy="-178" rx="50.09" ry="18"/>
<text text-anchor="middle" x="455" y="-174.3" font-family="Times,serif" font-size="14.00">V566 (a)</text>
</g>
<!-- 0&#45;&gt;19 -->
<g id="edge11" class="edge">
<title>0&#45;&gt;19</title>
<path fill="none" stroke="black" stroke-dasharray="5,2" d="M644.13,-238.37C605.92,-226.38 543.57,-206.8 500.99,-193.44"/>
<polygon fill="black" stroke="black" points="502,-190.09 491.41,-190.43 499.91,-196.76 502,-190.09"/>
</g>
<!-- 22 -->
<g id="node15" class="node">
<title>22</title>
<ellipse fill="none" stroke="black" cx="567" cy="-178" rx="44.39" ry="18"/>
<text text-anchor="middle" x="567" y="-174.3" font-family="Times,serif" font-size="14.00">S32 (a)</text>
</g>
<!-- 0&#45;&gt;22 -->
<g id="edge13" class="edge">
<title>0&#45;&gt;22</title>
<path fill="none" stroke="black" stroke-dasharray="5,2" d="M655,-234.5C638.78,-224.27 616.84,-210.43 598.92,-199.13"/>
<polygon fill="black" stroke="black" points="600.3,-195.86 589.97,-193.49 596.56,-201.78 600.3,-195.86"/>
</g>
<!-- 27 -->
<g id="node18" class="node">
<title>27</title>
<ellipse fill="none" stroke="black" cx="678" cy="-178" rx="48.99" ry="18"/>
<text text-anchor="middle" x="678" y="-174.3" font-family="Times,serif" font-size="14.00">La22 (a)</text>
</g>
<!-- 0&#45;&gt;27 -->
<g id="edge16" class="edge">
<title>0&#45;&gt;27</title>
<path fill="none" stroke="black" stroke-dasharray="1,5" d="M678,-231.7C678,-223.98 678,-214.71 678,-206.11"/>
<polygon fill="black" stroke="black" points="681.5,-206.1 678,-196.1 674.5,-206.1 681.5,-206.1"/>
</g>
<!-- 34 -->
<g id="node23" class="node">
<title>34</title>
<ellipse fill="none" stroke="black" cx="795" cy="-178" rx="50.09" ry="18"/>
<text text-anchor="middle" x="795" y="-174.3" font-family="Times,serif" font-size="14.00">Patm (a)</text>
</g>
<!-- 0&#45;&gt;34 -->
<g id="edge21" class="edge">
<title>0&#45;&gt;34</title>
<path fill="none" stroke="black" stroke-dasharray="1,5" d="M701.96,-234.67C719.16,-224.38 742.56,-210.37 761.6,-198.99"/>
<polygon fill="black" stroke="black" points="763.48,-201.94 770.27,-193.8 759.89,-195.93 763.48,-201.94"/>
</g>
<!-- 39 -->
<g id="node25" class="node">
<title>39</title>
<ellipse fill="none" stroke="black" cx="907" cy="-178" rx="44.39" ry="18"/>
<text text-anchor="middle" x="907" y="-174.3" font-family="Times,serif" font-size="14.00">P01 (a)</text>
</g>
<!-- 0&#45;&gt;39 -->
<g id="edge23" class="edge">
<title>0&#45;&gt;39</title>
<path fill="none" stroke="black" stroke-dasharray="5,2" d="M712.79,-238.72C748.33,-228.18 805.09,-211.21 854,-196 857.14,-195.02 860.38,-194.01 863.63,-192.98"/>
<polygon fill="black" stroke="black" points="864.91,-196.25 873.38,-189.88 862.79,-189.57 864.91,-196.25"/>
</g>
<!-- 2 -->
<g id="node3" class="node">
<title>2</title>
<ellipse fill="none" stroke="black" cx="909" cy="-250" rx="52.79" ry="18"/>
<text text-anchor="middle" x="909" y="-246.3" font-family="Times,serif" font-size="14.00">LaSM (a)</text>
</g>
<!-- 30 -->
<g id="node20" class="node">
<title>30</title>
<ellipse fill="none" stroke="black" cx="1013" cy="-178" rx="44.39" ry="18"/>
<text text-anchor="middle" x="1013" y="-174.3" font-family="Times,serif" font-size="14.00">B39 (a)</text>
</g>
<!-- 2&#45;&gt;30 -->
<g id="edge18" class="edge">
<title>2&#45;&gt;30</title>
<path fill="none" stroke="black" stroke-dasharray="5,2" d="M931.82,-233.64C946.66,-223.65 966.17,-210.52 982.35,-199.63"/>
<polygon fill="black" stroke="black" points="984.6,-202.33 990.94,-193.85 980.69,-196.53 984.6,-202.33"/>
</g>
<!-- 7 -->
<g id="node4" class="node">
<title>7</title>
<ellipse fill="none" stroke="black" cx="601" cy="-34" rx="50.09" ry="18"/>
<text text-anchor="middle" x="601" y="-30.3" font-family="Times,serif" font-size="14.00">A336 (a)</text>
</g>
<!-- 9 -->
<g id="node5" class="node">
<title>9</title>
<ellipse fill="none" stroke="black" cx="1261" cy="-178" rx="55.79" ry="18"/>
<text text-anchor="middle" x="1261" y="-174.3" font-family="Times,serif" font-size="14.00">V2250 (a)</text>
</g>
<!-- 10 -->
<g id="node6" class="node">
<title>10</title>
<ellipse fill="none" stroke="black" cx="1303" cy="-106" rx="42.79" ry="18"/>
<text text-anchor="middle" x="1303" y="-102.3" font-family="Times,serif" font-size="14.00">Bas (a)</text>
</g>
<!-- 11 -->
<g id="node7" class="node">
<title>11</title>
<ellipse fill="none" stroke="black" cx="1089" cy="-323" rx="53.89" ry="18"/>
<text text-anchor="middle" x="1089" y="-319.3" font-family="Times,serif" font-size="14.00">aBase (a)</text>
</g>
<!-- 11&#45;&gt;0 -->
<g id="edge1" class="edge">
<title>11&#45;&gt;0</title>
<path fill="none" stroke="black" stroke-dasharray="5,2" d="M1042.25,-313.92C964.33,-300.46 808.54,-273.55 728.31,-259.69"/>
<polygon fill="black" stroke="black" points="728.42,-256.16 717.97,-257.91 727.23,-263.06 728.42,-256.16"/>
</g>
<!-- 11&#45;&gt;2 -->
<g id="edge2" class="edge">
<title>11&#45;&gt;2</title>
<path fill="none" stroke="black" d="M1055.57,-308.81C1026.27,-297.25 983.51,-280.39 951.74,-267.86"/>
<polygon fill="black" stroke="black" points="952.84,-264.53 942.26,-264.12 950.27,-271.04 952.84,-264.53"/>
</g>
<!-- 31 -->
<g id="node21" class="node">
<title>31</title>
<ellipse fill="none" stroke="black" cx="1030" cy="-250" rx="50.09" ry="18"/>
<text text-anchor="middle" x="1030" y="-246.3" font-family="Times,serif" font-size="14.00">S249 (a)</text>
</g>
<!-- 11&#45;&gt;31 -->
<g id="edge19" class="edge">
<title>11&#45;&gt;31</title>
<path fill="none" stroke="black" d="M1075.32,-305.53C1067.87,-296.57 1058.51,-285.31 1050.24,-275.36"/>
<polygon fill="black" stroke="black" points="1052.69,-272.83 1043.61,-267.38 1047.31,-277.31 1052.69,-272.83"/>
</g>
<!-- 33 -->
<g id="node22" class="node">
<title>33</title>
<ellipse fill="none" stroke="black" cx="1148" cy="-250" rx="50.09" ry="18"/>
<text text-anchor="middle" x="1148" y="-246.3" font-family="Times,serif" font-size="14.00">V560 (a)</text>
</g>
<!-- 11&#45;&gt;33 -->
<g id="edge20" class="edge">
<title>11&#45;&gt;33</title>
<path fill="none" stroke="black" stroke-width="2" d="M1102.68,-305.53C1110.13,-296.57 1119.49,-285.31 1127.76,-275.36"/>
<polygon fill="black" stroke="black" stroke-width="2" points="1130.69,-277.31 1134.39,-267.38 1125.31,-272.83 1130.69,-277.31"/>
</g>
<!-- 42 -->
<g id="node27" class="node">
<title>42</title>
<ellipse fill="none" stroke="black" cx="1261" cy="-250" rx="44.69" ry="18"/>
<text text-anchor="middle" x="1261" y="-246.3" font-family="Times,serif" font-size="14.00">Nan (a)</text>
</g>
<!-- 11&#45;&gt;42 -->
<g id="edge25" class="edge">
<title>11&#45;&gt;42</title>
<path fill="none" stroke="black" d="M1121.76,-308.48C1150.16,-296.75 1191.35,-279.75 1221.56,-267.28"/>
<polygon fill="black" stroke="black" points="1223.05,-270.45 1230.96,-263.4 1220.38,-263.98 1223.05,-270.45"/>
</g>
<!-- 44 -->
<g id="node29" class="node">
<title>44</title>
<ellipse fill="none" stroke="black" cx="1367" cy="-250" rx="42.79" ry="18"/>
<text text-anchor="middle" x="1367" y="-246.3" font-family="Times,serif" font-size="14.00">La2 (a)</text>
</g>
<!-- 11&#45;&gt;44 -->
<g id="edge27" class="edge">
<title>11&#45;&gt;44</title>
<path fill="none" stroke="black" stroke-width="2" d="M1133.45,-312.5C1179.22,-302.46 1252.5,-285.65 1315,-268 1318.3,-267.07 1321.7,-266.06 1325.11,-265.02"/>
<polygon fill="black" stroke="black" stroke-width="2" points="1326.18,-268.35 1334.67,-262.02 1324.08,-261.67 1326.18,-268.35"/>
</g>
<!-- 12 -->
<g id="node8" class="node">
<title>12</title>
<ellipse fill="none" stroke="black" cx="365" cy="-106" rx="46.59" ry="18"/>
<text text-anchor="middle" x="365" y="-102.3" font-family="Times,serif" font-size="14.00">Bodl (a)</text>
</g>
<!-- 13 -->
<g id="node9" class="node">
<title>13</title>
<ellipse fill="none" stroke="black" cx="480" cy="-106" rx="50.09" ry="18"/>
<text text-anchor="middle" x="480" y="-102.3" font-family="Times,serif" font-size="14.00">V571 (a)</text>
</g>
<!-- 16 -->
<g id="node11" class="node">
<title>16</title>
<ellipse fill="none" stroke="black" cx="1405" cy="-106" rx="41.69" ry="18"/>
<text text-anchor="middle" x="1405" y="-102.3" font-family="Times,serif" font-size="14.00">Est (a)</text>
</g>
<!-- 17 -->
<g id="node12" class="node">
<title>17</title>
<ellipse fill="none" stroke="black" cx="1391" cy="-178" rx="55.79" ry="18"/>
<text text-anchor="middle" x="1391" y="-174.3" font-family="Times,serif" font-size="14.00">V1897 (a)</text>
</g>
<!-- 17&#45;&gt;10 -->
<g id="edge5" class="edge">
<title>17&#45;&gt;10</title>
<path fill="none" stroke="black" d="M1371.03,-161.12C1358.94,-151.5 1343.35,-139.1 1330.14,-128.59"/>
<polygon fill="black" stroke="black" points="1332.29,-125.83 1322.28,-122.34 1327.93,-131.3 1332.29,-125.83"/>
</g>
<!-- 17&#45;&gt;16 -->
<g id="edge9" class="edge">
<title>17&#45;&gt;16</title>
<path fill="none" stroke="black" stroke-dasharray="1,5" d="M1394.46,-159.7C1396,-151.98 1397.86,-142.71 1399.58,-134.11"/>
<polygon fill="black" stroke="black" points="1403.05,-134.6 1401.58,-124.1 1396.19,-133.22 1403.05,-134.6"/>
</g>
<!-- 35 -->
<g id="node24" class="node">
<title>35</title>
<ellipse fill="none" stroke="black" cx="244" cy="-106" rx="55.79" ry="18"/>
<text text-anchor="middle" x="244" y="-102.3" font-family="Times,serif" font-size="14.00">V1639 (a)</text>
</g>
<!-- 19&#45;&gt;35 -->
<g id="edge22" class="edge">
<title>19&#45;&gt;35</title>
<path fill="none" stroke="black" stroke-dasharray="1,5" d="M419.21,-165.13C383.87,-153.4 329.65,-135.42 290.89,-122.56"/>
<polygon fill="black" stroke="black" points="291.99,-119.23 281.39,-119.4 289.78,-125.88 291.99,-119.23"/>
</g>
<!-- 21 -->
<g id="node14" class="node">
<title>21</title>
<ellipse fill="none" stroke="black" cx="601" cy="-106" rx="52.79" ry="18"/>
<text text-anchor="middle" x="601" y="-102.3" font-family="Times,serif" font-size="14.00">M111 (a)</text>
</g>
<!-- 21&#45;&gt;7 -->
<g id="edge3" class="edge">
<title>21&#45;&gt;7</title>
<path fill="none" stroke="black" stroke-dasharray="5,2" d="M601,-87.7C601,-79.98 601,-70.71 601,-62.11"/>
<polygon fill="black" stroke="black" points="604.5,-62.1 601,-52.1 597.5,-62.1 604.5,-62.1"/>
</g>
<!-- 25 -->
<g id="node16" class="node">
<title>25</title>
<ellipse fill="none" stroke="black" cx="728" cy="-106" rx="55.79" ry="18"/>
<text text-anchor="middle" x="728" y="-102.3" font-family="Times,serif" font-size="14.00">V2036 (a)</text>
</g>
<!-- 26 -->
<g id="node17" class="node">
<title>26</title>
<ellipse fill="none" stroke="black" cx="851" cy="-106" rx="48.99" ry="18"/>
<text text-anchor="middle" x="851" y="-102.3" font-family="Times,serif" font-size="14.00">La35 (a)</text>
</g>
<!-- 27&#45;&gt;12 -->
<g id="edge6" class="edge">
<title>27&#45;&gt;12</title>
<path fill="none" stroke="black" stroke-dasharray="5,2" d="M641.96,-165.79C634.72,-163.73 627.15,-161.69 620,-160 532.53,-139.33 508.37,-145.09 421,-124 417.22,-123.09 413.32,-122.07 409.41,-120.99"/>
<polygon fill="black" stroke="black" points="410.36,-117.62 399.78,-118.24 408.43,-124.35 410.36,-117.62"/>
</g>
<!-- 27&#45;&gt;13 -->
<g id="edge7" class="edge">
<title>27&#45;&gt;13</title>
<path fill="none" stroke="black" stroke-dasharray="1,5" d="M643.96,-164.97C610.91,-153.28 560.57,-135.49 524.39,-122.69"/>
<polygon fill="black" stroke="black" points="525.18,-119.26 514.59,-119.23 522.85,-125.86 525.18,-119.26"/>
</g>
<!-- 27&#45;&gt;21 -->
<g id="edge12" class="edge">
<title>27&#45;&gt;21</title>
<path fill="none" stroke="black" stroke-dasharray="1,5" d="M660.53,-161.12C650.36,-151.87 637.37,-140.07 626.12,-129.84"/>
<polygon fill="black" stroke="black" points="628.42,-127.2 618.67,-123.06 623.71,-132.38 628.42,-127.2"/>
</g>
<!-- 27&#45;&gt;25 -->
<g id="edge14" class="edge">
<title>27&#45;&gt;25</title>
<path fill="none" stroke="black" stroke-dasharray="5,2" d="M689.85,-160.41C695.86,-151.99 703.3,-141.58 710,-132.2"/>
<polygon fill="black" stroke="black" points="712.92,-134.13 715.89,-123.96 707.23,-130.06 712.92,-134.13"/>
</g>
<!-- 27&#45;&gt;26 -->
<g id="edge15" class="edge">
<title>27&#45;&gt;26</title>
<path fill="none" stroke="black" stroke-dasharray="1,5" d="M709.73,-164.16C737.9,-152.76 779.23,-136.04 809.91,-123.63"/>
<polygon fill="black" stroke="black" points="811.51,-126.75 819.47,-119.76 808.89,-120.26 811.51,-126.75"/>
</g>
<!-- 29 -->
<g id="node19" class="node">
<title>29</title>
<ellipse fill="none" stroke="black" cx="968" cy="-106" rx="50.09" ry="18"/>
<text text-anchor="middle" x="968" y="-102.3" font-family="Times,serif" font-size="14.00">V565 (a)</text>
</g>
<!-- 27&#45;&gt;29 -->
<g id="edge17" class="edge">
<title>27&#45;&gt;29</title>
<path fill="none" stroke="black" stroke-dasharray="5,2" d="M714.39,-165.85C721.53,-163.8 728.98,-161.76 736,-160 812.19,-140.94 832.77,-142.89 909,-124 913.02,-123.01 917.17,-121.92 921.33,-120.8"/>
<polygon fill="black" stroke="black" points="922.27,-124.17 930.98,-118.13 920.41,-117.42 922.27,-124.17"/>
</g>
<!-- 41 -->
<g id="node26" class="node">
<title>41</title>
<ellipse fill="none" stroke="black" cx="1080" cy="-106" rx="44.39" ry="18"/>
<text text-anchor="middle" x="1080" y="-102.3" font-family="Times,serif" font-size="14.00">P74 (a)</text>
</g>
<!-- 27&#45;&gt;41 -->
<g id="edge24" class="edge">
<title>27&#45;&gt;41</title>
<path fill="none" stroke="black" stroke-dasharray="1,5" d="M713.66,-165.56C720.99,-163.49 728.7,-161.51 736,-160 863.61,-133.59 899.73,-152.02 1027,-124 1030.61,-123.21 1034.32,-122.27 1038.03,-121.25"/>
<polygon fill="black" stroke="black" points="1039.14,-124.57 1047.75,-118.4 1037.17,-117.86 1039.14,-124.57"/>
</g>
<!-- 45 -->
<g id="node30" class="node">
<title>45</title>
<ellipse fill="none" stroke="black" cx="1192" cy="-106" rx="50.09" ry="18"/>
<text text-anchor="middle" x="1192" y="-102.3" font-family="Times,serif" font-size="14.00">A116 (a)</text>
</g>
<!-- 27&#45;&gt;45 -->
<g id="edge28" class="edge">
<title>27&#45;&gt;45</title>
<path fill="none" stroke="black" stroke-dasharray="5,2" d="M713.31,-165.46C720.74,-163.37 728.58,-161.41 736,-160 910.05,-126.93 958.87,-156.67 1133,-124 1137.36,-123.18 1141.86,-122.18 1146.35,-121.08"/>
<polygon fill="black" stroke="black" points="1147.28,-124.45 1156.07,-118.53 1145.51,-117.68 1147.28,-124.45"/>
</g>
<!-- 43 -->
<g id="node28" class="node">
<title>43</title>
<ellipse fill="none" stroke="black" cx="1131" cy="-178" rx="55.79" ry="18"/>
<text text-anchor="middle" x="1131" y="-174.3" font-family="Times,serif" font-size="14.00">V1920 (a)</text>
</g>
<!-- 33&#45;&gt;43 -->
<g id="edge26" class="edge">
<title>33&#45;&gt;43</title>
<path fill="none" stroke="black" stroke-dasharray="5,2" d="M1143.88,-232.05C1141.99,-224.26 1139.7,-214.82 1137.58,-206.08"/>
<polygon fill="black" stroke="black" points="1140.96,-205.17 1135.2,-196.28 1134.15,-206.82 1140.96,-205.17"/>
</g>
<!-- 42&#45;&gt;9 -->
<g id="edge4" class="edge">
<title>42&#45;&gt;9</title>
<path fill="none" stroke="black" stroke-dasharray="5,2" d="M1261,-231.7C1261,-223.98 1261,-214.71 1261,-206.11"/>
<polygon fill="black" stroke="black" points="1264.5,-206.1 1261,-196.1 1257.5,-206.1 1264.5,-206.1"/>
</g>
<!-- 42&#45;&gt;17 -->
<g id="edge10" class="edge">
<title>42&#45;&gt;17</title>
<path fill="none" stroke="black" stroke-dasharray="1,5" d="M1286.68,-235.17C1306.11,-224.71 1333.03,-210.21 1354.67,-198.56"/>
<polygon fill="black" stroke="black" points="1356.43,-201.59 1363.57,-193.77 1353.11,-195.43 1356.43,-201.59"/>
</g>
</g>
</svg>
