<?xml version="1.0" encoding="UTF-8" standalone="no"?>
<!DOCTYPE svg PUBLIC "-//W3C//DTD SVG 1.1//EN"
 "http://www.w3.org/Graphics/SVG/1.1/DTD/svg11.dtd">
<!-- Generated by graphviz version 2.43.0 (0)
 -->
<!-- Title: textual_flow_diagram Pages: 1 -->
<svg width="464pt" height="222pt"
 viewBox="0.00 0.00 464.00 222.00" xmlns="http://www.w3.org/2000/svg" xmlns:xlink="http://www.w3.org/1999/xlink">
<g id="graph0" class="graph" transform="scale(1 1) rotate(0) translate(4 218)">
<title>textual_flow_diagram</title>
<polygon fill="white" stroke="transparent" points="-4,4 -4,-218 460,-218 460,4 -4,4"/>
<g id="clust1" class="cluster">
<title>cluster_legend</title>
<polygon fill="none" stroke="black" points="8,-152 8,-206 204,-206 204,-152 8,-152"/>
</g>
<g id="clust2" class="cluster">
<title>cluster_plot</title>
</g>
<!-- label -->
<g id="node1" class="node">
<title>label</title>
<text text-anchor="middle" x="106" y="-182.8" font-family="Times,serif" font-size="14.00">adstag1.3.72U30&#45;36, c</text>
<text text-anchor="middle" x="106" y="-167.8" font-family="Times,serif" font-size="14.00">Con = 5</text>
</g>
<!-- 15 -->
<g id="node2" class="node">
<title>15</title>
<ellipse fill="none" stroke="black" cx="269" cy="-106" rx="49.29" ry="18"/>
<text text-anchor="middle" x="269" y="-102.3" font-family="Times,serif" font-size="14.00">V560 (c)</text>
</g>
<!-- 18 -->
<g id="node4" class="node">
<title>18</title>
<ellipse fill="none" stroke="black" cx="275" cy="-34" rx="55.49" ry="18"/>
<text text-anchor="middle" x="275" y="-30.3" font-family="Times,serif" font-size="14.00">V1920 (c)</text>
</g>
<!-- 15&#45;&gt;18 -->
<g id="edge3" class="edge">
<title>15&#45;&gt;18</title>
<path fill="none" stroke="black" stroke-dasharray="5,2" d="M270.48,-87.7C271.14,-79.98 271.94,-70.71 272.68,-62.11"/>
<polygon fill="black" stroke="black" points="276.17,-62.37 273.53,-52.1 269.19,-61.77 276.17,-62.37"/>
</g>
<!-- 16 -->
<g id="node3" class="node">
<title>16</title>
<ellipse fill="none" stroke="black" cx="388" cy="-106" rx="51.99" ry="18"/>
<text text-anchor="middle" x="388" y="-102.3" font-family="Times,serif" font-size="14.00">M136 (c)</text>
</g>
<!-- 20 -->
<g id="node5" class="node">
<title>20</title>
<ellipse fill="none" stroke="blue" stroke-dasharray="5,2" cx="330" cy="-179" rx="53.89" ry="18"/>
<text text-anchor="middle" x="330" y="-175.3" font-family="Times,serif" font-size="14.00">aBase (a)</text>
</g>
<!-- 20&#45;&gt;15 -->
<g id="edge1" class="edge">
<title>20&#45;&gt;15</title>
<path fill="none" stroke="blue" stroke-width="2" d="M315.85,-161.53C308.08,-152.48 298.29,-141.09 289.67,-131.06"/>
<polygon fill="blue" stroke="blue" stroke-width="2" points="292.24,-128.68 283.07,-123.38 286.93,-133.24 292.24,-128.68"/>
</g>
<!-- 20&#45;&gt;16 -->
<g id="edge2" class="edge">
<title>20&#45;&gt;16</title>
<path fill="none" stroke="blue" stroke-width="2" d="M343.45,-161.53C350.67,-152.7 359.71,-141.63 367.75,-131.78"/>
<polygon fill="blue" stroke="blue" stroke-width="2" points="370.6,-133.83 374.22,-123.87 365.18,-129.4 370.6,-133.83"/>
</g>
</g>
</svg>
