<?xml version="1.0" encoding="UTF-8" standalone="no"?>
<!DOCTYPE svg PUBLIC "-//W3C//DTD SVG 1.1//EN"
 "http://www.w3.org/Graphics/SVG/1.1/DTD/svg11.dtd">
<!-- Generated by graphviz version 2.43.0 (0)
 -->
<!-- Title: textual_flow_diagram Pages: 1 -->
<svg width="604pt" height="599pt"
 viewBox="0.00 0.00 604.00 599.00" xmlns="http://www.w3.org/2000/svg" xmlns:xlink="http://www.w3.org/1999/xlink">
<g id="graph0" class="graph" transform="scale(1 1) rotate(0) translate(4 595)">
<title>textual_flow_diagram</title>
<polygon fill="white" stroke="transparent" points="-4,4 -4,-595 600,-595 600,4 -4,4"/>
<g id="clust1" class="cluster">
<title>cluster_legend</title>
<polygon fill="none" stroke="black" points="8,-529 8,-583 204,-583 204,-529 8,-529"/>
</g>
<g id="clust2" class="cluster">
<title>cluster_plot</title>
</g>
<!-- label -->
<g id="node1" class="node">
<title>label</title>
<text text-anchor="middle" x="106" y="-559.8" font-family="Times,serif" font-size="14.00">adstag1.3.46U54&#45;58, b</text>
<text text-anchor="middle" x="106" y="-544.8" font-family="Times,serif" font-size="14.00">Con = 5</text>
</g>
<!-- 2 -->
<g id="node2" class="node">
<title>2</title>
<ellipse fill="none" stroke="black" cx="270" cy="-399" rx="50.09" ry="18"/>
<text text-anchor="middle" x="270" y="-395.3" font-family="Times,serif" font-size="14.00">V536 (b)</text>
</g>
<!-- 14 -->
<g id="node7" class="node">
<title>14</title>
<ellipse fill="none" stroke="black" cx="281" cy="-326" rx="50.09" ry="18"/>
<text text-anchor="middle" x="281" y="-322.3" font-family="Times,serif" font-size="14.00">V568 (b)</text>
</g>
<!-- 2&#45;&gt;14 -->
<g id="edge6" class="edge">
<title>2&#45;&gt;14</title>
<path fill="none" stroke="black" stroke-dasharray="1,5" d="M272.66,-380.81C273.91,-372.79 275.42,-363.05 276.81,-354.07"/>
<polygon fill="black" stroke="black" points="280.29,-354.45 278.36,-344.03 273.37,-353.38 280.29,-354.45"/>
</g>
<!-- 3 -->
<g id="node3" class="node">
<title>3</title>
<ellipse fill="none" stroke="black" cx="394" cy="-482" rx="45.49" ry="18"/>
<text text-anchor="middle" x="394" y="-478.3" font-family="Times,serif" font-size="14.00">Nan (b)</text>
</g>
<!-- 3&#45;&gt;2 -->
<g id="edge1" class="edge">
<title>3&#45;&gt;2</title>
<path fill="none" stroke="black" stroke-width="2" d="M371.54,-466.33C352.04,-453.59 323.57,-434.99 301.74,-420.73"/>
<polygon fill="black" stroke="black" stroke-width="2" points="303.42,-417.65 293.13,-415.11 299.59,-423.51 303.42,-417.65"/>
<text text-anchor="middle" x="342.5" y="-438" font-family="Times,serif" font-size="10.00">3</text>
</g>
<!-- 11 -->
<g id="node5" class="node">
<title>11</title>
<ellipse fill="none" stroke="black" cx="394" cy="-399" rx="55.79" ry="18"/>
<text text-anchor="middle" x="394" y="-395.3" font-family="Times,serif" font-size="14.00">V2250 (b)</text>
</g>
<!-- 3&#45;&gt;11 -->
<g id="edge4" class="edge">
<title>3&#45;&gt;11</title>
<path fill="none" stroke="black" stroke-dasharray="5,2" d="M394,-463.82C394,-453.19 394,-439.31 394,-427.2"/>
<polygon fill="black" stroke="black" points="397.5,-427.15 394,-417.15 390.5,-427.15 397.5,-427.15"/>
</g>
<!-- 29 -->
<g id="node11" class="node">
<title>29</title>
<ellipse fill="none" stroke="black" cx="524" cy="-399" rx="55.79" ry="18"/>
<text text-anchor="middle" x="524" y="-395.3" font-family="Times,serif" font-size="14.00">V1897 (b)</text>
</g>
<!-- 3&#45;&gt;29 -->
<g id="edge10" class="edge">
<title>3&#45;&gt;29</title>
<path fill="none" stroke="black" stroke-dasharray="1,5" d="M417.24,-466.52C437.62,-453.82 467.48,-435.22 490.45,-420.91"/>
<polygon fill="black" stroke="black" points="492.55,-423.72 499.19,-415.46 488.85,-417.78 492.55,-423.72"/>
</g>
<!-- 10 -->
<g id="node4" class="node">
<title>10</title>
<ellipse fill="none" stroke="black" cx="270" cy="-180" rx="50.09" ry="18"/>
<text text-anchor="middle" x="270" y="-176.3" font-family="Times,serif" font-size="14.00">V569 (b)</text>
</g>
<!-- 12 -->
<g id="node6" class="node">
<title>12</title>
<ellipse fill="none" stroke="black" cx="429" cy="-326" rx="42.49" ry="18"/>
<text text-anchor="middle" x="429" y="-322.3" font-family="Times,serif" font-size="14.00">Est (b)</text>
</g>
<!-- 31 -->
<g id="node12" class="node">
<title>31</title>
<ellipse fill="none" stroke="black" cx="294" cy="-253" rx="47.39" ry="18"/>
<text text-anchor="middle" x="294" y="-249.3" font-family="Times,serif" font-size="14.00">Taur (b)</text>
</g>
<!-- 14&#45;&gt;31 -->
<g id="edge11" class="edge">
<title>14&#45;&gt;31</title>
<path fill="none" stroke="black" stroke-dasharray="1,5" d="M284.15,-307.81C285.62,-299.79 287.4,-290.05 289.04,-281.07"/>
<polygon fill="black" stroke="black" points="292.52,-281.5 290.88,-271.03 285.64,-280.23 292.52,-281.5"/>
</g>
<!-- 18 -->
<g id="node8" class="node">
<title>18</title>
<ellipse fill="none" stroke="black" cx="533" cy="-326" rx="43.59" ry="18"/>
<text text-anchor="middle" x="533" y="-322.3" font-family="Times,serif" font-size="14.00">Bas (b)</text>
</g>
<!-- 27 -->
<g id="node9" class="node">
<title>27</title>
<ellipse fill="none" stroke="black" cx="508" cy="-482" rx="50.09" ry="18"/>
<text text-anchor="middle" x="508" y="-478.3" font-family="Times,serif" font-size="14.00">V560 (b)</text>
</g>
<!-- 28 -->
<g id="node10" class="node">
<title>28</title>
<ellipse fill="none" stroke="black" cx="388" cy="-107" rx="46.59" ry="18"/>
<text text-anchor="middle" x="388" y="-103.3" font-family="Times,serif" font-size="14.00">Mon (b)</text>
</g>
<!-- 36 -->
<g id="node13" class="node">
<title>36</title>
<ellipse fill="none" stroke="black" cx="388" cy="-34" rx="41.69" ry="18"/>
<text text-anchor="middle" x="388" y="-30.3" font-family="Times,serif" font-size="14.00">Sin (b)</text>
</g>
<!-- 28&#45;&gt;36 -->
<g id="edge12" class="edge">
<title>28&#45;&gt;36</title>
<path fill="none" stroke="black" stroke-dasharray="1,5" d="M388,-88.81C388,-80.79 388,-71.05 388,-62.07"/>
<polygon fill="black" stroke="black" points="391.5,-62.03 388,-52.03 384.5,-62.03 391.5,-62.03"/>
</g>
<!-- 29&#45;&gt;12 -->
<g id="edge5" class="edge">
<title>29&#45;&gt;12</title>
<path fill="none" stroke="black" stroke-dasharray="1,5" d="M502.92,-382.24C489.48,-372.2 471.91,-359.07 457.28,-348.13"/>
<polygon fill="black" stroke="black" points="459.15,-345.17 449.05,-341.98 454.96,-350.77 459.15,-345.17"/>
</g>
<!-- 29&#45;&gt;18 -->
<g id="edge7" class="edge">
<title>29&#45;&gt;18</title>
<path fill="none" stroke="black" d="M526.18,-380.81C527.2,-372.79 528.43,-363.05 529.57,-354.07"/>
<polygon fill="black" stroke="black" points="533.06,-354.39 530.84,-344.03 526.11,-353.51 533.06,-354.39"/>
</g>
<!-- 31&#45;&gt;10 -->
<g id="edge3" class="edge">
<title>31&#45;&gt;10</title>
<path fill="none" stroke="black" stroke-dasharray="5,2" d="M288.19,-234.81C285.45,-226.7 282.11,-216.84 279.05,-207.78"/>
<polygon fill="black" stroke="black" points="282.27,-206.38 275.76,-198.03 275.64,-208.62 282.27,-206.38"/>
</g>
<!-- 41 -->
<g id="node14" class="node">
<title>41</title>
<ellipse fill="none" stroke="black" cx="388" cy="-180" rx="50.09" ry="18"/>
<text text-anchor="middle" x="388" y="-176.3" font-family="Times,serif" font-size="14.00">Marc (b)</text>
</g>
<!-- 31&#45;&gt;41 -->
<g id="edge13" class="edge">
<title>31&#45;&gt;41</title>
<path fill="none" stroke="black" stroke-dasharray="1,5" d="M314.4,-236.59C327.49,-226.71 344.68,-213.72 359.16,-202.78"/>
<polygon fill="black" stroke="black" points="361.45,-205.44 367.32,-196.62 357.23,-199.86 361.45,-205.44"/>
</g>
<!-- 42 -->
<g id="node15" class="node">
<title>42</title>
<ellipse fill="none" stroke="black" cx="509" cy="-180" rx="53.09" ry="18"/>
<text text-anchor="middle" x="509" y="-176.3" font-family="Times,serif" font-size="14.00">M118 (b)</text>
</g>
<!-- 31&#45;&gt;42 -->
<g id="edge14" class="edge">
<title>31&#45;&gt;42</title>
<path fill="none" stroke="black" stroke-dasharray="5,2" d="M328.54,-240.59C364.95,-228.57 422.5,-209.57 462.79,-196.26"/>
<polygon fill="black" stroke="black" points="463.99,-199.55 472.38,-193.09 461.79,-192.9 463.99,-199.55"/>
</g>
<!-- 41&#45;&gt;28 -->
<g id="edge9" class="edge">
<title>41&#45;&gt;28</title>
<path fill="none" stroke="black" stroke-dasharray="1,5" d="M388,-161.81C388,-153.79 388,-144.05 388,-135.07"/>
<polygon fill="black" stroke="black" points="391.5,-135.03 388,-125.03 384.5,-135.03 391.5,-135.03"/>
</g>
<!-- 15 -->
<g id="node16" class="node">
<title>15</title>
<ellipse fill="none" stroke="blue" stroke-dasharray="5,2" cx="451" cy="-556" rx="53.89" ry="18"/>
<text text-anchor="middle" x="451" y="-552.3" font-family="Times,serif" font-size="14.00">aBase (a)</text>
</g>
<!-- 15&#45;&gt;3 -->
<g id="edge2" class="edge">
<title>15&#45;&gt;3</title>
<path fill="none" stroke="blue" d="M437.78,-538.3C430.59,-529.21 421.55,-517.8 413.55,-507.7"/>
<polygon fill="blue" stroke="blue" points="416.1,-505.28 407.15,-499.61 410.61,-509.62 416.1,-505.28"/>
</g>
<!-- 15&#45;&gt;27 -->
<g id="edge8" class="edge">
<title>15&#45;&gt;27</title>
<path fill="none" stroke="blue" stroke-width="2" d="M464.22,-538.3C471.41,-529.21 480.45,-517.8 488.45,-507.7"/>
<polygon fill="blue" stroke="blue" stroke-width="2" points="491.39,-509.62 494.85,-499.61 485.9,-505.28 491.39,-509.62"/>
</g>
</g>
</svg>
