<?xml version="1.0" encoding="UTF-8" standalone="no"?>
<!DOCTYPE svg PUBLIC "-//W3C//DTD SVG 1.1//EN"
 "http://www.w3.org/Graphics/SVG/1.1/DTD/svg11.dtd">
<!-- Generated by graphviz version 2.43.0 (0)
 -->
<!-- Title: textual_flow_diagram Pages: 1 -->
<svg width="344pt" height="222pt"
 viewBox="0.00 0.00 344.00 222.00" xmlns="http://www.w3.org/2000/svg" xmlns:xlink="http://www.w3.org/1999/xlink">
<g id="graph0" class="graph" transform="scale(1 1) rotate(0) translate(4 218)">
<title>textual_flow_diagram</title>
<polygon fill="white" stroke="transparent" points="-4,4 -4,-218 340,-218 340,4 -4,4"/>
<g id="clust1" class="cluster">
<title>cluster_legend</title>
<polygon fill="none" stroke="black" points="8,-152 8,-206 204,-206 204,-152 8,-152"/>
</g>
<g id="clust2" class="cluster">
<title>cluster_plot</title>
</g>
<!-- label -->
<g id="node1" class="node">
<title>label</title>
<text text-anchor="middle" x="106" y="-182.8" font-family="Times,serif" font-size="14.00">adstag1.3.67U12&#45;22, c</text>
<text text-anchor="middle" x="106" y="-167.8" font-family="Times,serif" font-size="14.00">Con = 3</text>
</g>
<!-- 12 -->
<g id="node2" class="node">
<title>12</title>
<ellipse fill="none" stroke="black" cx="270" cy="-34" rx="40.09" ry="18"/>
<text text-anchor="middle" x="270" y="-30.3" font-family="Times,serif" font-size="14.00">Sin (c)</text>
</g>
<!-- 27 -->
<g id="node3" class="node">
<title>27</title>
<ellipse fill="none" stroke="black" cx="270" cy="-106" rx="46.29" ry="18"/>
<text text-anchor="middle" x="270" y="-102.3" font-family="Times,serif" font-size="14.00">Mon (c)</text>
</g>
<!-- 27&#45;&gt;12 -->
<g id="edge1" class="edge">
<title>27&#45;&gt;12</title>
<path fill="none" stroke="black" stroke-dasharray="1,5" d="M270,-87.7C270,-79.98 270,-70.71 270,-62.11"/>
<polygon fill="black" stroke="black" points="273.5,-62.1 270,-52.1 266.5,-62.1 273.5,-62.1"/>
</g>
<!-- 40 -->
<g id="node4" class="node">
<title>40</title>
<ellipse fill="none" stroke="blue" stroke-dasharray="5,2" cx="270" cy="-179" rx="50.09" ry="18"/>
<text text-anchor="middle" x="270" y="-175.3" font-family="Times,serif" font-size="14.00">Marc (b)</text>
</g>
<!-- 40&#45;&gt;27 -->
<g id="edge2" class="edge">
<title>40&#45;&gt;27</title>
<path fill="none" stroke="blue" stroke-dasharray="1,5" d="M270,-160.81C270,-152.79 270,-143.05 270,-134.07"/>
<polygon fill="blue" stroke="blue" points="273.5,-134.03 270,-124.03 266.5,-134.03 273.5,-134.03"/>
</g>
</g>
</svg>
