<?xml version="1.0" encoding="UTF-8" standalone="no"?>
<!DOCTYPE svg PUBLIC "-//W3C//DTD SVG 1.1//EN"
 "http://www.w3.org/Graphics/SVG/1.1/DTD/svg11.dtd">
<!-- Generated by graphviz version 2.43.0 (0)
 -->
<!-- Title: textual_flow_diagram Pages: 1 -->
<svg width="1923pt" height="526pt"
 viewBox="0.00 0.00 1923.00 526.00" xmlns="http://www.w3.org/2000/svg" xmlns:xlink="http://www.w3.org/1999/xlink">
<g id="graph0" class="graph" transform="scale(1 1) rotate(0) translate(4 522)">
<title>textual_flow_diagram</title>
<polygon fill="white" stroke="transparent" points="-4,4 -4,-522 1919,-522 1919,4 -4,4"/>
<g id="clust1" class="cluster">
<title>cluster_legend</title>
<polygon fill="none" stroke="black" points="8,-456 8,-510 182,-510 182,-456 8,-456"/>
</g>
<g id="clust2" class="cluster">
<title>cluster_plot</title>
</g>
<!-- label -->
<g id="node1" class="node">
<title>label</title>
<text text-anchor="middle" x="95" y="-486.8" font-family="Times,serif" font-size="14.00">adstag1.2.40U24, a</text>
<text text-anchor="middle" x="95" y="-471.8" font-family="Times,serif" font-size="14.00">Con = 5</text>
</g>
<!-- 0 -->
<g id="node2" class="node">
<title>0</title>
<ellipse fill="none" stroke="black" cx="1028" cy="-326" rx="52.79" ry="18"/>
<text text-anchor="middle" x="1028" y="-322.3" font-family="Times,serif" font-size="14.00">M111 (a)</text>
</g>
<!-- 3 -->
<g id="node4" class="node">
<title>3</title>
<ellipse fill="none" stroke="black" cx="1029" cy="-253" rx="50.09" ry="18"/>
<text text-anchor="middle" x="1029" y="-249.3" font-family="Times,serif" font-size="14.00">A336 (a)</text>
</g>
<!-- 0&#45;&gt;3 -->
<g id="edge3" class="edge">
<title>0&#45;&gt;3</title>
<path fill="none" stroke="black" stroke-dasharray="5,2" d="M1028.24,-307.81C1028.36,-299.79 1028.49,-290.05 1028.62,-281.07"/>
<polygon fill="black" stroke="black" points="1032.12,-281.08 1028.76,-271.03 1025.12,-280.98 1032.12,-281.08"/>
</g>
<!-- 1 -->
<g id="node3" class="node">
<title>1</title>
<ellipse fill="none" stroke="black" cx="479" cy="-326" rx="50.09" ry="18"/>
<text text-anchor="middle" x="479" y="-322.3" font-family="Times,serif" font-size="14.00">Patm (a)</text>
</g>
<!-- 4 -->
<g id="node5" class="node">
<title>4</title>
<ellipse fill="none" stroke="black" cx="1143" cy="-326" rx="44.39" ry="18"/>
<text text-anchor="middle" x="1143" y="-322.3" font-family="Times,serif" font-size="14.00">P74 (a)</text>
</g>
<!-- 5 -->
<g id="node6" class="node">
<title>5</title>
<ellipse fill="none" stroke="black" cx="240" cy="-326" rx="41.69" ry="18"/>
<text text-anchor="middle" x="240" y="-322.3" font-family="Times,serif" font-size="14.00">Est (a)</text>
</g>
<!-- 6 -->
<g id="node7" class="node">
<title>6</title>
<ellipse fill="none" stroke="black" cx="355" cy="-180" rx="46.59" ry="18"/>
<text text-anchor="middle" x="355" y="-176.3" font-family="Times,serif" font-size="14.00">Taur (a)</text>
</g>
<!-- 8 -->
<g id="node9" class="node">
<title>8</title>
<ellipse fill="none" stroke="black" cx="298" cy="-107" rx="50.09" ry="18"/>
<text text-anchor="middle" x="298" y="-103.3" font-family="Times,serif" font-size="14.00">Marc (a)</text>
</g>
<!-- 6&#45;&gt;8 -->
<g id="edge8" class="edge">
<title>6&#45;&gt;8</title>
<path fill="none" stroke="black" stroke-dasharray="1,5" d="M341.78,-162.53C334.59,-153.57 325.55,-142.31 317.55,-132.36"/>
<polygon fill="black" stroke="black" points="320.14,-129.98 311.15,-124.38 314.68,-134.37 320.14,-129.98"/>
</g>
<!-- 29 -->
<g id="node24" class="node">
<title>29</title>
<ellipse fill="none" stroke="black" cx="416" cy="-107" rx="50.09" ry="18"/>
<text text-anchor="middle" x="416" y="-103.3" font-family="Times,serif" font-size="14.00">V569 (a)</text>
</g>
<!-- 6&#45;&gt;29 -->
<g id="edge22" class="edge">
<title>6&#45;&gt;29</title>
<path fill="none" stroke="black" stroke-dasharray="5,2" d="M369.15,-162.53C376.92,-153.48 386.71,-142.09 395.33,-132.06"/>
<polygon fill="black" stroke="black" points="398.07,-134.24 401.93,-124.38 392.76,-129.68 398.07,-134.24"/>
</g>
<!-- 7 -->
<g id="node8" class="node">
<title>7</title>
<ellipse fill="none" stroke="black" cx="254" cy="-399" rx="55.79" ry="18"/>
<text text-anchor="middle" x="254" y="-395.3" font-family="Times,serif" font-size="14.00">V1897 (a)</text>
</g>
<!-- 7&#45;&gt;5 -->
<g id="edge5" class="edge">
<title>7&#45;&gt;5</title>
<path fill="none" stroke="black" stroke-dasharray="1,5" d="M250.61,-380.81C249.03,-372.79 247.11,-363.05 245.34,-354.07"/>
<polygon fill="black" stroke="black" points="248.73,-353.16 243.36,-344.03 241.86,-354.52 248.73,-353.16"/>
</g>
<!-- 13 -->
<g id="node12" class="node">
<title>13</title>
<ellipse fill="none" stroke="black" cx="298" cy="-34" rx="46.29" ry="18"/>
<text text-anchor="middle" x="298" y="-30.3" font-family="Times,serif" font-size="14.00">Mon (a)</text>
</g>
<!-- 8&#45;&gt;13 -->
<g id="edge10" class="edge">
<title>8&#45;&gt;13</title>
<path fill="none" stroke="black" stroke-dasharray="1,5" d="M298,-88.81C298,-80.79 298,-71.05 298,-62.07"/>
<polygon fill="black" stroke="black" points="301.5,-62.03 298,-52.03 294.5,-62.03 301.5,-62.03"/>
</g>
<!-- 9 -->
<g id="node10" class="node">
<title>9</title>
<ellipse fill="none" stroke="black" cx="372" cy="-399" rx="44.39" ry="18"/>
<text text-anchor="middle" x="372" y="-395.3" font-family="Times,serif" font-size="14.00">B39 (a)</text>
</g>
<!-- 11 -->
<g id="node11" class="node">
<title>11</title>
<ellipse fill="none" stroke="black" cx="550" cy="-483" rx="53.89" ry="18"/>
<text text-anchor="middle" x="550" y="-479.3" font-family="Times,serif" font-size="14.00">aBase (a)</text>
</g>
<!-- 11&#45;&gt;7 -->
<g id="edge7" class="edge">
<title>11&#45;&gt;7</title>
<path fill="none" stroke="black" d="M509.77,-470.86C456.58,-456.12 362.81,-430.14 304.79,-414.07"/>
<polygon fill="black" stroke="black" points="305.66,-410.68 295.09,-411.38 303.79,-417.43 305.66,-410.68"/>
</g>
<!-- 11&#45;&gt;9 -->
<g id="edge9" class="edge">
<title>11&#45;&gt;9</title>
<path fill="none" stroke="black" stroke-width="2" d="M519.4,-467.9C488.91,-453.86 442.05,-432.27 409.38,-417.22"/>
<polygon fill="black" stroke="black" stroke-width="2" points="410.7,-413.97 400.15,-412.97 407.77,-420.33 410.7,-413.97"/>
<text text-anchor="middle" x="474.5" y="-438" font-family="Times,serif" font-size="10.00">2</text>
</g>
<!-- 17 -->
<g id="node14" class="node">
<title>17</title>
<ellipse fill="none" stroke="black" cx="484" cy="-399" rx="50.09" ry="18"/>
<text text-anchor="middle" x="484" y="-395.3" font-family="Times,serif" font-size="14.00">Neap (a)</text>
</g>
<!-- 11&#45;&gt;17 -->
<g id="edge12" class="edge">
<title>11&#45;&gt;17</title>
<path fill="none" stroke="black" stroke-width="2" d="M536.64,-465.41C527.16,-453.62 514.28,-437.62 503.63,-424.39"/>
<polygon fill="black" stroke="black" stroke-width="2" points="506.33,-422.16 497.34,-416.57 500.88,-426.55 506.33,-422.16"/>
</g>
<!-- 20 -->
<g id="node16" class="node">
<title>20</title>
<ellipse fill="none" stroke="black" cx="617" cy="-399" rx="64.99" ry="18"/>
<text text-anchor="middle" x="617" y="-395.3" font-family="Times,serif" font-size="14.00">Savile&#45;Η (a)</text>
</g>
<!-- 11&#45;&gt;20 -->
<g id="edge14" class="edge">
<title>11&#45;&gt;20</title>
<path fill="none" stroke="black" stroke-width="2" d="M563.56,-465.41C573.12,-453.7 586.09,-437.83 596.86,-424.65"/>
<polygon fill="black" stroke="black" stroke-width="2" points="599.61,-426.81 603.23,-416.85 594.19,-422.38 599.61,-426.81"/>
</g>
<!-- 22 -->
<g id="node18" class="node">
<title>22</title>
<ellipse fill="none" stroke="black" cx="744" cy="-399" rx="44.39" ry="18"/>
<text text-anchor="middle" x="744" y="-395.3" font-family="Times,serif" font-size="14.00">A25 (a)</text>
</g>
<!-- 11&#45;&gt;22 -->
<g id="edge16" class="edge">
<title>11&#45;&gt;22</title>
<path fill="none" stroke="black" stroke-dasharray="5,2" d="M582.04,-468.46C615.82,-454.18 669.07,-431.67 705.21,-416.4"/>
<polygon fill="black" stroke="black" points="706.61,-419.6 714.46,-412.48 703.89,-413.15 706.61,-419.6"/>
</g>
<!-- 26 -->
<g id="node21" class="node">
<title>26</title>
<ellipse fill="none" stroke="black" cx="1385" cy="-399" rx="48.99" ry="18"/>
<text text-anchor="middle" x="1385" y="-395.3" font-family="Times,serif" font-size="14.00">La22 (a)</text>
</g>
<!-- 11&#45;&gt;26 -->
<g id="edge19" class="edge">
<title>11&#45;&gt;26</title>
<path fill="none" stroke="black" stroke-dasharray="5,2" d="M600.98,-476.99C748.34,-462.52 1174.17,-420.7 1328.39,-405.56"/>
<polygon fill="black" stroke="black" points="1328.97,-409.02 1338.58,-404.56 1328.29,-402.05 1328.97,-409.02"/>
</g>
<!-- 15 -->
<g id="node13" class="node">
<title>15</title>
<ellipse fill="none" stroke="black" cx="1261" cy="-326" rx="55.79" ry="18"/>
<text text-anchor="middle" x="1261" y="-322.3" font-family="Times,serif" font-size="14.00">V2036 (a)</text>
</g>
<!-- 23 -->
<g id="node19" class="node">
<title>23</title>
<ellipse fill="none" stroke="black" cx="355" cy="-326" rx="55.79" ry="18"/>
<text text-anchor="middle" x="355" y="-322.3" font-family="Times,serif" font-size="14.00">V1629 (a)</text>
</g>
<!-- 17&#45;&gt;23 -->
<g id="edge17" class="edge">
<title>17&#45;&gt;23</title>
<path fill="none" stroke="black" stroke-dasharray="1,5" d="M457.89,-383.63C438.57,-373 412.01,-358.38 390.72,-346.66"/>
<polygon fill="black" stroke="black" points="392.4,-343.59 381.95,-341.84 389.03,-349.72 392.4,-343.59"/>
</g>
<!-- 18 -->
<g id="node15" class="node">
<title>18</title>
<ellipse fill="none" stroke="black" cx="1385" cy="-326" rx="50.09" ry="18"/>
<text text-anchor="middle" x="1385" y="-322.3" font-family="Times,serif" font-size="14.00">V565 (a)</text>
</g>
<!-- 21 -->
<g id="node17" class="node">
<title>21</title>
<ellipse fill="none" stroke="black" cx="591" cy="-326" rx="44.39" ry="18"/>
<text text-anchor="middle" x="591" y="-322.3" font-family="Times,serif" font-size="14.00">P01 (a)</text>
</g>
<!-- 22&#45;&gt;1 -->
<g id="edge2" class="edge">
<title>22&#45;&gt;1</title>
<path fill="none" stroke="black" stroke-dasharray="1,5" d="M710.75,-386.93C704.23,-384.87 697.42,-382.8 691,-381 623.65,-362.08 605.63,-361.91 538,-344 534.17,-342.99 530.2,-341.91 526.23,-340.8"/>
<polygon fill="black" stroke="black" points="526.96,-337.37 516.39,-338.04 525.07,-344.11 526.96,-337.37"/>
</g>
<!-- 22&#45;&gt;21 -->
<g id="edge15" class="edge">
<title>22&#45;&gt;21</title>
<path fill="none" stroke="black" stroke-dasharray="5,2" d="M715.94,-384.98C691.32,-373.55 655.33,-356.85 628.3,-344.31"/>
<polygon fill="black" stroke="black" points="629.69,-341.09 619.14,-340.06 626.74,-347.44 629.69,-341.09"/>
</g>
<!-- 28 -->
<g id="node23" class="node">
<title>28</title>
<ellipse fill="none" stroke="black" cx="697" cy="-326" rx="44.39" ry="18"/>
<text text-anchor="middle" x="697" y="-322.3" font-family="Times,serif" font-size="14.00">S32 (a)</text>
</g>
<!-- 22&#45;&gt;28 -->
<g id="edge21" class="edge">
<title>22&#45;&gt;28</title>
<path fill="none" stroke="black" stroke-dasharray="5,2" d="M733.1,-381.53C727.37,-372.88 720.22,-362.08 713.8,-352.38"/>
<polygon fill="black" stroke="black" points="716.61,-350.28 708.17,-343.87 710.77,-354.14 716.61,-350.28"/>
</g>
<!-- 32 -->
<g id="node26" class="node">
<title>32</title>
<ellipse fill="none" stroke="black" cx="799" cy="-326" rx="40.09" ry="18"/>
<text text-anchor="middle" x="799" y="-322.3" font-family="Times,serif" font-size="14.00">Pal (a)</text>
</g>
<!-- 22&#45;&gt;32 -->
<g id="edge24" class="edge">
<title>22&#45;&gt;32</title>
<path fill="none" stroke="black" stroke-dasharray="5,2" d="M756.76,-381.53C763.7,-372.57 772.42,-361.31 780.13,-351.36"/>
<polygon fill="black" stroke="black" points="782.96,-353.43 786.31,-343.38 777.42,-349.14 782.96,-353.43"/>
</g>
<!-- 37 -->
<g id="node28" class="node">
<title>37</title>
<ellipse fill="none" stroke="black" cx="907" cy="-326" rx="50.09" ry="18"/>
<text text-anchor="middle" x="907" y="-322.3" font-family="Times,serif" font-size="14.00">V566 (a)</text>
</g>
<!-- 22&#45;&gt;37 -->
<g id="edge26" class="edge">
<title>22&#45;&gt;37</title>
<path fill="none" stroke="black" stroke-dasharray="5,2" d="M773.14,-385.31C799.3,-373.91 837.95,-357.08 867,-344.42"/>
<polygon fill="black" stroke="black" points="868.68,-347.51 876.45,-340.31 865.89,-341.09 868.68,-347.51"/>
</g>
<!-- 33 -->
<g id="node27" class="node">
<title>33</title>
<ellipse fill="none" stroke="black" cx="355" cy="-253" rx="50.09" ry="18"/>
<text text-anchor="middle" x="355" y="-249.3" font-family="Times,serif" font-size="14.00">V568 (a)</text>
</g>
<!-- 23&#45;&gt;33 -->
<g id="edge25" class="edge">
<title>23&#45;&gt;33</title>
<path fill="none" stroke="black" stroke-dasharray="5,2" d="M355,-307.81C355,-299.79 355,-290.05 355,-281.07"/>
<polygon fill="black" stroke="black" points="358.5,-281.03 355,-271.03 351.5,-281.03 358.5,-281.03"/>
</g>
<!-- 25 -->
<g id="node20" class="node">
<title>25</title>
<ellipse fill="none" stroke="black" cx="1503" cy="-326" rx="50.09" ry="18"/>
<text text-anchor="middle" x="1503" y="-322.3" font-family="Times,serif" font-size="14.00">V571 (a)</text>
</g>
<!-- 26&#45;&gt;0 -->
<g id="edge1" class="edge">
<title>26&#45;&gt;0</title>
<path fill="none" stroke="black" stroke-dasharray="1,5" d="M1340.78,-391.13C1282.87,-381.86 1178.33,-364.15 1090,-344 1085.66,-343.01 1081.17,-341.92 1076.67,-340.77"/>
<polygon fill="black" stroke="black" points="1077.46,-337.36 1066.9,-338.22 1075.69,-344.13 1077.46,-337.36"/>
</g>
<!-- 26&#45;&gt;4 -->
<g id="edge4" class="edge">
<title>26&#45;&gt;4</title>
<path fill="none" stroke="black" stroke-dasharray="1,5" d="M1347.24,-387.6C1309.02,-376.97 1248.25,-359.84 1196,-344 1192.71,-343 1189.31,-341.95 1185.9,-340.89"/>
<polygon fill="black" stroke="black" points="1186.9,-337.53 1176.31,-337.86 1184.79,-344.21 1186.9,-337.53"/>
</g>
<!-- 26&#45;&gt;15 -->
<g id="edge11" class="edge">
<title>26&#45;&gt;15</title>
<path fill="none" stroke="black" stroke-dasharray="5,2" d="M1359.61,-383.46C1341.3,-372.98 1316.35,-358.69 1296.13,-347.11"/>
<polygon fill="black" stroke="black" points="1297.63,-343.94 1287.21,-342.01 1294.15,-350.02 1297.63,-343.94"/>
</g>
<!-- 26&#45;&gt;18 -->
<g id="edge13" class="edge">
<title>26&#45;&gt;18</title>
<path fill="none" stroke="black" stroke-dasharray="5,2" d="M1385,-380.81C1385,-372.79 1385,-363.05 1385,-354.07"/>
<polygon fill="black" stroke="black" points="1388.5,-354.03 1385,-344.03 1381.5,-354.03 1388.5,-354.03"/>
</g>
<!-- 26&#45;&gt;25 -->
<g id="edge18" class="edge">
<title>26&#45;&gt;25</title>
<path fill="none" stroke="black" stroke-dasharray="1,5" d="M1409.45,-383.29C1426.82,-372.84 1450.35,-358.68 1469.47,-347.18"/>
<polygon fill="black" stroke="black" points="1471.41,-350.09 1478.18,-341.94 1467.8,-344.09 1471.41,-350.09"/>
</g>
<!-- 27 -->
<g id="node22" class="node">
<title>27</title>
<ellipse fill="none" stroke="black" cx="1620" cy="-326" rx="48.99" ry="18"/>
<text text-anchor="middle" x="1620" y="-322.3" font-family="Times,serif" font-size="14.00">La35 (a)</text>
</g>
<!-- 26&#45;&gt;27 -->
<g id="edge20" class="edge">
<title>26&#45;&gt;27</title>
<path fill="none" stroke="black" stroke-dasharray="1,5" d="M1421.46,-386.98C1462.45,-374.6 1529.1,-354.46 1573.73,-340.98"/>
<polygon fill="black" stroke="black" points="1574.89,-344.28 1583.45,-338.04 1572.87,-337.58 1574.89,-344.28"/>
</g>
<!-- 38 -->
<g id="node29" class="node">
<title>38</title>
<ellipse fill="none" stroke="black" cx="1737" cy="-326" rx="50.09" ry="18"/>
<text text-anchor="middle" x="1737" y="-322.3" font-family="Times,serif" font-size="14.00">A116 (a)</text>
</g>
<!-- 26&#45;&gt;38 -->
<g id="edge27" class="edge">
<title>26&#45;&gt;38</title>
<path fill="none" stroke="black" stroke-dasharray="5,2" d="M1429.46,-391.2C1487.12,-382.07 1590.65,-364.58 1678,-344 1682.03,-343.05 1686.19,-342 1690.35,-340.9"/>
<polygon fill="black" stroke="black" points="1691.28,-344.27 1700.01,-338.26 1689.44,-337.52 1691.28,-344.27"/>
</g>
<!-- 41 -->
<g id="node30" class="node">
<title>41</title>
<ellipse fill="none" stroke="black" cx="1852" cy="-326" rx="46.59" ry="18"/>
<text text-anchor="middle" x="1852" y="-322.3" font-family="Times,serif" font-size="14.00">Bodl (a)</text>
</g>
<!-- 26&#45;&gt;41 -->
<g id="edge28" class="edge">
<title>26&#45;&gt;41</title>
<path fill="none" stroke="black" stroke-dasharray="5,2" d="M1432.28,-394.33C1509.18,-387.79 1665.86,-372.1 1796,-344 1799.91,-343.16 1803.94,-342.17 1807.97,-341.1"/>
<polygon fill="black" stroke="black" points="1809.19,-344.39 1817.88,-338.33 1807.31,-337.65 1809.19,-344.39"/>
</g>
<!-- 31 -->
<g id="node25" class="node">
<title>31</title>
<ellipse fill="none" stroke="black" cx="905" cy="-253" rx="55.79" ry="18"/>
<text text-anchor="middle" x="905" y="-249.3" font-family="Times,serif" font-size="14.00">V1639 (a)</text>
</g>
<!-- 33&#45;&gt;6 -->
<g id="edge6" class="edge">
<title>33&#45;&gt;6</title>
<path fill="none" stroke="black" stroke-dasharray="1,5" d="M355,-234.81C355,-226.79 355,-217.05 355,-208.07"/>
<polygon fill="black" stroke="black" points="358.5,-208.03 355,-198.03 351.5,-208.03 358.5,-208.03"/>
</g>
<!-- 37&#45;&gt;31 -->
<g id="edge23" class="edge">
<title>37&#45;&gt;31</title>
<path fill="none" stroke="black" stroke-dasharray="1,5" d="M906.52,-307.81C906.29,-299.79 906.02,-290.05 905.76,-281.07"/>
<polygon fill="black" stroke="black" points="909.26,-280.93 905.48,-271.03 902.26,-281.12 909.26,-280.93"/>
</g>
</g>
</svg>
