<?xml version="1.0" encoding="UTF-8" standalone="no"?>
<!DOCTYPE svg PUBLIC "-//W3C//DTD SVG 1.1//EN"
 "http://www.w3.org/Graphics/SVG/1.1/DTD/svg11.dtd">
<!-- Generated by graphviz version 2.43.0 (0)
 -->
<!-- Title: textual_flow_diagram Pages: 1 -->
<svg width="888pt" height="682pt"
 viewBox="0.00 0.00 888.00 682.00" xmlns="http://www.w3.org/2000/svg" xmlns:xlink="http://www.w3.org/1999/xlink">
<g id="graph0" class="graph" transform="scale(1 1) rotate(0) translate(4 678)">
<title>textual_flow_diagram</title>
<polygon fill="white" stroke="transparent" points="-4,4 -4,-678 884,-678 884,4 -4,4"/>
<g id="clust1" class="cluster">
<title>cluster_legend</title>
<polygon fill="none" stroke="black" points="8,-612 8,-666 182,-666 182,-612 8,-612"/>
</g>
<g id="clust2" class="cluster">
<title>cluster_plot</title>
</g>
<!-- label -->
<g id="node1" class="node">
<title>label</title>
<text text-anchor="middle" x="95" y="-642.8" font-family="Times,serif" font-size="14.00">adstag1.3.38U24, a</text>
<text text-anchor="middle" x="95" y="-627.8" font-family="Times,serif" font-size="14.00">Con = 5</text>
</g>
<!-- 3 -->
<g id="node2" class="node">
<title>3</title>
<ellipse fill="none" stroke="black" cx="292" cy="-399" rx="41.69" ry="18"/>
<text text-anchor="middle" x="292" y="-395.3" font-family="Times,serif" font-size="14.00">Est (a)</text>
</g>
<!-- 6 -->
<g id="node3" class="node">
<title>6</title>
<ellipse fill="none" stroke="black" cx="394" cy="-399" rx="42.79" ry="18"/>
<text text-anchor="middle" x="394" y="-395.3" font-family="Times,serif" font-size="14.00">Bas (a)</text>
</g>
<!-- 8 -->
<g id="node4" class="node">
<title>8</title>
<ellipse fill="none" stroke="black" cx="808" cy="-472" rx="55.79" ry="18"/>
<text text-anchor="middle" x="808" y="-468.3" font-family="Times,serif" font-size="14.00">V1920 (a)</text>
</g>
<!-- 9 -->
<g id="node5" class="node">
<title>9</title>
<ellipse fill="none" stroke="black" cx="248" cy="-555" rx="50.09" ry="18"/>
<text text-anchor="middle" x="248" y="-551.3" font-family="Times,serif" font-size="14.00">Patm (a)</text>
</g>
<!-- 10 -->
<g id="node6" class="node">
<title>10</title>
<ellipse fill="none" stroke="black" cx="393" cy="-180" rx="50.09" ry="18"/>
<text text-anchor="middle" x="393" y="-176.3" font-family="Times,serif" font-size="14.00">Marc (a)</text>
</g>
<!-- 26 -->
<g id="node14" class="node">
<title>26</title>
<ellipse fill="none" stroke="black" cx="393" cy="-107" rx="46.29" ry="18"/>
<text text-anchor="middle" x="393" y="-103.3" font-family="Times,serif" font-size="14.00">Mon (a)</text>
</g>
<!-- 10&#45;&gt;26 -->
<g id="edge13" class="edge">
<title>10&#45;&gt;26</title>
<path fill="none" stroke="black" stroke-dasharray="1,5" d="M393,-161.81C393,-153.79 393,-144.05 393,-135.07"/>
<polygon fill="black" stroke="black" points="396.5,-135.03 393,-125.03 389.5,-135.03 396.5,-135.03"/>
</g>
<!-- 14 -->
<g id="node7" class="node">
<title>14</title>
<ellipse fill="none" stroke="black" cx="684" cy="-472" rx="50.09" ry="18"/>
<text text-anchor="middle" x="684" y="-468.3" font-family="Times,serif" font-size="14.00">A336 (a)</text>
</g>
<!-- 15 -->
<g id="node8" class="node">
<title>15</title>
<ellipse fill="none" stroke="black" cx="514" cy="-180" rx="52.79" ry="18"/>
<text text-anchor="middle" x="514" y="-176.3" font-family="Times,serif" font-size="14.00">M118 (a)</text>
</g>
<!-- 17 -->
<g id="node9" class="node">
<title>17</title>
<ellipse fill="none" stroke="black" cx="361" cy="-555" rx="44.69" ry="18"/>
<text text-anchor="middle" x="361" y="-551.3" font-family="Times,serif" font-size="14.00">Nan (a)</text>
</g>
<!-- 20 -->
<g id="node10" class="node">
<title>20</title>
<ellipse fill="none" stroke="black" cx="254" cy="-472" rx="55.79" ry="18"/>
<text text-anchor="middle" x="254" y="-468.3" font-family="Times,serif" font-size="14.00">V2250 (a)</text>
</g>
<!-- 17&#45;&gt;20 -->
<g id="edge9" class="edge">
<title>17&#45;&gt;20</title>
<path fill="none" stroke="black" stroke-dasharray="5,2" d="M340.87,-538.76C324.49,-526.37 301.17,-508.71 282.81,-494.81"/>
<polygon fill="black" stroke="black" points="284.85,-491.96 274.77,-488.72 280.63,-497.55 284.85,-491.96"/>
</g>
<!-- 30 -->
<g id="node16" class="node">
<title>30</title>
<ellipse fill="none" stroke="black" cx="384" cy="-472" rx="55.79" ry="18"/>
<text text-anchor="middle" x="384" y="-468.3" font-family="Times,serif" font-size="14.00">V1897 (a)</text>
</g>
<!-- 17&#45;&gt;30 -->
<g id="edge15" class="edge">
<title>17&#45;&gt;30</title>
<path fill="none" stroke="black" stroke-dasharray="1,5" d="M365.88,-536.82C368.93,-526.08 372.92,-512.03 376.38,-499.84"/>
<polygon fill="black" stroke="black" points="379.76,-500.73 379.13,-490.15 373.03,-498.82 379.76,-500.73"/>
</g>
<!-- 21 -->
<g id="node11" class="node">
<title>21</title>
<ellipse fill="none" stroke="black" cx="514" cy="-253" rx="46.59" ry="18"/>
<text text-anchor="middle" x="514" y="-249.3" font-family="Times,serif" font-size="14.00">Taur (a)</text>
</g>
<!-- 21&#45;&gt;10 -->
<g id="edge5" class="edge">
<title>21&#45;&gt;10</title>
<path fill="none" stroke="black" stroke-dasharray="1,5" d="M489.51,-237.63C471.55,-227.09 446.92,-212.64 427.04,-200.97"/>
<polygon fill="black" stroke="black" points="428.68,-197.88 418.28,-195.84 425.14,-203.91 428.68,-197.88"/>
</g>
<!-- 21&#45;&gt;15 -->
<g id="edge7" class="edge">
<title>21&#45;&gt;15</title>
<path fill="none" stroke="black" stroke-dasharray="5,2" d="M514,-234.81C514,-226.79 514,-217.05 514,-208.07"/>
<polygon fill="black" stroke="black" points="517.5,-208.03 514,-198.03 510.5,-208.03 517.5,-208.03"/>
</g>
<!-- 22 -->
<g id="node12" class="node">
<title>22</title>
<ellipse fill="none" stroke="black" cx="635" cy="-180" rx="50.09" ry="18"/>
<text text-anchor="middle" x="635" y="-176.3" font-family="Times,serif" font-size="14.00">V569 (a)</text>
</g>
<!-- 21&#45;&gt;22 -->
<g id="edge11" class="edge">
<title>21&#45;&gt;22</title>
<path fill="none" stroke="black" stroke-dasharray="5,2" d="M538.49,-237.63C556.45,-227.09 581.08,-212.64 600.96,-200.97"/>
<polygon fill="black" stroke="black" points="602.86,-203.91 609.72,-195.84 599.32,-197.88 602.86,-203.91"/>
</g>
<!-- 24 -->
<g id="node13" class="node">
<title>24</title>
<ellipse fill="none" stroke="black" cx="514" cy="-326" rx="50.09" ry="18"/>
<text text-anchor="middle" x="514" y="-322.3" font-family="Times,serif" font-size="14.00">V568 (a)</text>
</g>
<!-- 24&#45;&gt;21 -->
<g id="edge10" class="edge">
<title>24&#45;&gt;21</title>
<path fill="none" stroke="black" stroke-dasharray="1,5" d="M514,-307.81C514,-299.79 514,-290.05 514,-281.07"/>
<polygon fill="black" stroke="black" points="517.5,-281.03 514,-271.03 510.5,-281.03 517.5,-281.03"/>
</g>
<!-- 29 -->
<g id="node15" class="node">
<title>29</title>
<ellipse fill="none" stroke="black" cx="393" cy="-34" rx="40.89" ry="18"/>
<text text-anchor="middle" x="393" y="-30.3" font-family="Times,serif" font-size="14.00">Sin (a)</text>
</g>
<!-- 26&#45;&gt;29 -->
<g id="edge14" class="edge">
<title>26&#45;&gt;29</title>
<path fill="none" stroke="black" stroke-dasharray="1,5" d="M393,-88.81C393,-80.79 393,-71.05 393,-62.07"/>
<polygon fill="black" stroke="black" points="396.5,-62.03 393,-52.03 389.5,-62.03 396.5,-62.03"/>
</g>
<!-- 30&#45;&gt;3 -->
<g id="edge1" class="edge">
<title>30&#45;&gt;3</title>
<path fill="none" stroke="black" stroke-dasharray="1,5" d="M363.58,-455.24C350.57,-445.2 333.56,-432.07 319.38,-421.13"/>
<polygon fill="black" stroke="black" points="321.47,-418.32 311.42,-414.98 317.19,-423.86 321.47,-418.32"/>
</g>
<!-- 30&#45;&gt;6 -->
<g id="edge2" class="edge">
<title>30&#45;&gt;6</title>
<path fill="none" stroke="black" d="M386.42,-453.81C387.55,-445.79 388.92,-436.05 390.19,-427.07"/>
<polygon fill="black" stroke="black" points="393.67,-427.42 391.6,-417.03 386.74,-426.44 393.67,-427.42"/>
</g>
<!-- 32 -->
<g id="node17" class="node">
<title>32</title>
<ellipse fill="none" stroke="black" cx="474" cy="-555" rx="50.09" ry="18"/>
<text text-anchor="middle" x="474" y="-551.3" font-family="Times,serif" font-size="14.00">Neap (a)</text>
</g>
<!-- 38 -->
<g id="node21" class="node">
<title>38</title>
<ellipse fill="none" stroke="black" cx="514" cy="-472" rx="55.79" ry="18"/>
<text text-anchor="middle" x="514" y="-468.3" font-family="Times,serif" font-size="14.00">V1629 (a)</text>
</g>
<!-- 32&#45;&gt;38 -->
<g id="edge19" class="edge">
<title>32&#45;&gt;38</title>
<path fill="none" stroke="black" stroke-dasharray="1,5" d="M482.29,-537.22C487.72,-526.21 494.94,-511.6 501.11,-499.1"/>
<polygon fill="black" stroke="black" points="504.3,-500.56 505.58,-490.04 498.02,-497.46 504.3,-500.56"/>
</g>
<!-- 35 -->
<g id="node18" class="node">
<title>35</title>
<ellipse fill="none" stroke="black" cx="585" cy="-555" rx="42.79" ry="18"/>
<text text-anchor="middle" x="585" y="-551.3" font-family="Times,serif" font-size="14.00">La2 (a)</text>
</g>
<!-- 36 -->
<g id="node19" class="node">
<title>36</title>
<ellipse fill="none" stroke="black" cx="696" cy="-555" rx="50.09" ry="18"/>
<text text-anchor="middle" x="696" y="-551.3" font-family="Times,serif" font-size="14.00">V571 (a)</text>
</g>
<!-- 36&#45;&gt;14 -->
<g id="edge6" class="edge">
<title>36&#45;&gt;14</title>
<path fill="none" stroke="black" stroke-dasharray="5,2" d="M693.46,-536.82C691.88,-526.19 689.82,-512.31 688.03,-500.2"/>
<polygon fill="black" stroke="black" points="691.47,-499.53 686.54,-490.15 684.54,-500.56 691.47,-499.53"/>
<text text-anchor="middle" x="693.5" y="-511" font-family="Times,serif" font-size="10.00">3</text>
</g>
<!-- 37 -->
<g id="node20" class="node">
<title>37</title>
<ellipse fill="none" stroke="black" cx="530" cy="-639" rx="53.89" ry="18"/>
<text text-anchor="middle" x="530" y="-635.3" font-family="Times,serif" font-size="14.00">aBase (a)</text>
</g>
<!-- 37&#45;&gt;9 -->
<g id="edge4" class="edge">
<title>37&#45;&gt;9</title>
<path fill="none" stroke="black" d="M490.79,-626.6C439.64,-611.73 350.23,-585.73 295.36,-569.77"/>
<polygon fill="black" stroke="black" points="296.11,-566.34 285.53,-566.91 294.15,-573.07 296.11,-566.34"/>
</g>
<!-- 37&#45;&gt;17 -->
<g id="edge8" class="edge">
<title>37&#45;&gt;17</title>
<path fill="none" stroke="black" d="M500.56,-623.72C471.94,-609.83 428.38,-588.69 397.55,-573.73"/>
<polygon fill="black" stroke="black" points="398.95,-570.52 388.42,-569.31 395.89,-576.82 398.95,-570.52"/>
</g>
<!-- 37&#45;&gt;32 -->
<g id="edge16" class="edge">
<title>37&#45;&gt;32</title>
<path fill="none" stroke="black" stroke-width="2" d="M518.4,-621.01C510.54,-609.5 500.01,-594.09 491.18,-581.16"/>
<polygon fill="black" stroke="black" stroke-width="2" points="493.93,-578.97 485.4,-572.69 488.15,-582.92 493.93,-578.97"/>
</g>
<!-- 37&#45;&gt;35 -->
<g id="edge17" class="edge">
<title>37&#45;&gt;35</title>
<path fill="none" stroke="black" stroke-width="2" d="M541.4,-621.01C549.17,-609.42 559.59,-593.89 568.29,-580.91"/>
<polygon fill="black" stroke="black" stroke-width="2" points="571.33,-582.66 573.99,-572.41 565.52,-578.76 571.33,-582.66"/>
</g>
<!-- 37&#45;&gt;36 -->
<g id="edge18" class="edge">
<title>37&#45;&gt;36</title>
<path fill="none" stroke="black" d="M558.91,-623.72C586.49,-610.09 628.18,-589.5 658.34,-574.6"/>
<polygon fill="black" stroke="black" points="660.28,-577.55 667.69,-569.98 657.18,-571.27 660.28,-577.55"/>
<text text-anchor="middle" x="625.5" y="-594" font-family="Times,serif" font-size="10.00">4</text>
</g>
<!-- 39 -->
<g id="node22" class="node">
<title>39</title>
<ellipse fill="none" stroke="black" cx="814" cy="-555" rx="50.09" ry="18"/>
<text text-anchor="middle" x="814" y="-551.3" font-family="Times,serif" font-size="14.00">V560 (a)</text>
</g>
<!-- 37&#45;&gt;39 -->
<g id="edge20" class="edge">
<title>37&#45;&gt;39</title>
<path fill="none" stroke="black" stroke-width="2" d="M569.49,-626.6C621,-611.73 711.04,-585.73 766.31,-569.77"/>
<polygon fill="black" stroke="black" stroke-width="2" points="767.57,-573.05 776.2,-566.91 765.63,-566.32 767.57,-573.05"/>
</g>
<!-- 42 -->
<g id="node23" class="node">
<title>42</title>
<ellipse fill="none" stroke="black" cx="514" cy="-399" rx="50.09" ry="18"/>
<text text-anchor="middle" x="514" y="-395.3" font-family="Times,serif" font-size="14.00">V536 (a)</text>
</g>
<!-- 38&#45;&gt;42 -->
<g id="edge21" class="edge">
<title>38&#45;&gt;42</title>
<path fill="none" stroke="black" stroke-dasharray="5,2" d="M514,-453.81C514,-445.79 514,-436.05 514,-427.07"/>
<polygon fill="black" stroke="black" points="517.5,-427.03 514,-417.03 510.5,-427.03 517.5,-427.03"/>
</g>
<!-- 39&#45;&gt;8 -->
<g id="edge3" class="edge">
<title>39&#45;&gt;8</title>
<path fill="none" stroke="black" stroke-dasharray="5,2" d="M812.73,-536.82C811.94,-526.19 810.91,-512.31 810.02,-500.2"/>
<polygon fill="black" stroke="black" points="813.5,-499.87 809.27,-490.15 806.52,-500.38 813.5,-499.87"/>
</g>
<!-- 42&#45;&gt;24 -->
<g id="edge12" class="edge">
<title>42&#45;&gt;24</title>
<path fill="none" stroke="black" stroke-dasharray="1,5" d="M514,-380.81C514,-372.79 514,-363.05 514,-354.07"/>
<polygon fill="black" stroke="black" points="517.5,-354.03 514,-344.03 510.5,-354.03 517.5,-354.03"/>
</g>
</g>
</svg>
