<?xml version="1.0" encoding="UTF-8" standalone="no"?>
<!DOCTYPE svg PUBLIC "-//W3C//DTD SVG 1.1//EN"
 "http://www.w3.org/Graphics/SVG/1.1/DTD/svg11.dtd">
<!-- Generated by graphviz version 2.43.0 (0)
 -->
<!-- Title: textual_flow_diagram Pages: 1 -->
<svg width="675pt" height="745pt"
 viewBox="0.00 0.00 675.00 745.00" xmlns="http://www.w3.org/2000/svg" xmlns:xlink="http://www.w3.org/1999/xlink">
<g id="graph0" class="graph" transform="scale(1 1) rotate(0) translate(4 741)">
<title>textual_flow_diagram</title>
<polygon fill="white" stroke="transparent" points="-4,4 -4,-741 671,-741 671,4 -4,4"/>
<g id="clust1" class="cluster">
<title>cluster_legend</title>
<polygon fill="none" stroke="black" points="8,-675 8,-729 196,-729 196,-675 8,-675"/>
</g>
<g id="clust2" class="cluster">
<title>cluster_plot</title>
</g>
<!-- label -->
<g id="node1" class="node">
<title>label</title>
<text text-anchor="middle" x="102" y="-705.8" font-family="Times,serif" font-size="14.00">adstag1.2.14U4&#45;12, b</text>
<text text-anchor="middle" x="102" y="-690.8" font-family="Times,serif" font-size="14.00">Con = 3</text>
</g>
<!-- 0 -->
<g id="node2" class="node">
<title>0</title>
<ellipse fill="none" stroke="black" cx="268" cy="-326" rx="50.09" ry="18"/>
<text text-anchor="middle" x="268" y="-322.3" font-family="Times,serif" font-size="14.00">V568 (b)</text>
</g>
<!-- 38 -->
<g id="node13" class="node">
<title>38</title>
<ellipse fill="none" stroke="black" cx="268" cy="-253" rx="47.39" ry="18"/>
<text text-anchor="middle" x="268" y="-249.3" font-family="Times,serif" font-size="14.00">Taur (b)</text>
</g>
<!-- 0&#45;&gt;38 -->
<g id="edge12" class="edge">
<title>0&#45;&gt;38</title>
<path fill="none" stroke="black" stroke-dasharray="1,5" d="M268,-307.81C268,-299.79 268,-290.05 268,-281.07"/>
<polygon fill="black" stroke="black" points="271.5,-281.03 268,-271.03 264.5,-281.03 271.5,-281.03"/>
</g>
<!-- 8 -->
<g id="node3" class="node">
<title>8</title>
<ellipse fill="none" stroke="black" cx="388" cy="-545" rx="55.79" ry="18"/>
<text text-anchor="middle" x="388" y="-541.3" font-family="Times,serif" font-size="14.00">V2250 (b)</text>
</g>
<!-- 10 -->
<g id="node4" class="node">
<title>10</title>
<ellipse fill="none" stroke="black" cx="268" cy="-399" rx="50.09" ry="18"/>
<text text-anchor="middle" x="268" y="-395.3" font-family="Times,serif" font-size="14.00">V536 (b)</text>
</g>
<!-- 10&#45;&gt;0 -->
<g id="edge1" class="edge">
<title>10&#45;&gt;0</title>
<path fill="none" stroke="black" stroke-dasharray="1,5" d="M268,-380.81C268,-372.79 268,-363.05 268,-354.07"/>
<polygon fill="black" stroke="black" points="271.5,-354.03 268,-344.03 264.5,-354.03 271.5,-354.03"/>
</g>
<!-- 16 -->
<g id="node5" class="node">
<title>16</title>
<ellipse fill="none" stroke="black" cx="265" cy="-180" rx="41.69" ry="18"/>
<text text-anchor="middle" x="265" y="-176.3" font-family="Times,serif" font-size="14.00">Sin (b)</text>
</g>
<!-- 31 -->
<g id="node11" class="node">
<title>31</title>
<ellipse fill="none" stroke="black" cx="265" cy="-107" rx="50.09" ry="18"/>
<text text-anchor="middle" x="265" y="-103.3" font-family="Times,serif" font-size="14.00">Marc (b)</text>
</g>
<!-- 16&#45;&gt;31 -->
<g id="edge10" class="edge">
<title>16&#45;&gt;31</title>
<path fill="none" stroke="black" stroke-dasharray="1,5" d="M265,-161.81C265,-153.79 265,-144.05 265,-135.07"/>
<polygon fill="black" stroke="black" points="268.5,-135.03 265,-125.03 261.5,-135.03 268.5,-135.03"/>
</g>
<!-- 17 -->
<g id="node6" class="node">
<title>17</title>
<ellipse fill="none" stroke="black" cx="328" cy="-628" rx="53.09" ry="18"/>
<text text-anchor="middle" x="328" y="-624.3" font-family="Times,serif" font-size="14.00">M136 (b)</text>
</g>
<!-- 22 -->
<g id="node8" class="node">
<title>22</title>
<ellipse fill="none" stroke="black" cx="263" cy="-545" rx="50.89" ry="18"/>
<text text-anchor="middle" x="263" y="-541.3" font-family="Times,serif" font-size="14.00">Neap (b)</text>
</g>
<!-- 17&#45;&gt;22 -->
<g id="edge7" class="edge">
<title>17&#45;&gt;22</title>
<path fill="none" stroke="black" stroke-dasharray="5,2" d="M314.53,-610.22C305.32,-598.74 292.96,-583.33 282.65,-570.49"/>
<polygon fill="black" stroke="black" points="285.22,-568.09 276.23,-562.48 279.76,-572.47 285.22,-568.09"/>
<text text-anchor="middle" x="302.5" y="-584" font-family="Times,serif" font-size="10.00">2</text>
</g>
<!-- 18 -->
<g id="node7" class="node">
<title>18</title>
<ellipse fill="none" stroke="black" cx="505" cy="-545" rx="43.59" ry="18"/>
<text text-anchor="middle" x="505" y="-541.3" font-family="Times,serif" font-size="14.00">Bas (b)</text>
</g>
<!-- 34 -->
<g id="node12" class="node">
<title>34</title>
<ellipse fill="none" stroke="black" cx="268" cy="-472" rx="55.79" ry="18"/>
<text text-anchor="middle" x="268" y="-468.3" font-family="Times,serif" font-size="14.00">V1629 (b)</text>
</g>
<!-- 22&#45;&gt;34 -->
<g id="edge11" class="edge">
<title>22&#45;&gt;34</title>
<path fill="none" stroke="black" stroke-dasharray="1,5" d="M264.21,-526.81C264.78,-518.79 265.46,-509.05 266.09,-500.07"/>
<polygon fill="black" stroke="black" points="269.59,-500.25 266.8,-490.03 262.61,-499.76 269.59,-500.25"/>
</g>
<!-- 24 -->
<g id="node9" class="node">
<title>24</title>
<ellipse fill="none" stroke="black" cx="609" cy="-545" rx="42.49" ry="18"/>
<text text-anchor="middle" x="609" y="-541.3" font-family="Times,serif" font-size="14.00">Est (b)</text>
</g>
<!-- 27 -->
<g id="node10" class="node">
<title>27</title>
<ellipse fill="none" stroke="black" cx="460" cy="-628" rx="45.49" ry="18"/>
<text text-anchor="middle" x="460" y="-624.3" font-family="Times,serif" font-size="14.00">Nan (b)</text>
</g>
<!-- 27&#45;&gt;8 -->
<g id="edge2" class="edge">
<title>27&#45;&gt;8</title>
<path fill="none" stroke="black" stroke-dasharray="5,2" d="M445.43,-610.61C435.15,-599.05 421.21,-583.37 409.64,-570.35"/>
<polygon fill="black" stroke="black" points="412.06,-567.79 402.8,-562.65 406.82,-572.44 412.06,-567.79"/>
</g>
<!-- 27&#45;&gt;18 -->
<g id="edge6" class="edge">
<title>27&#45;&gt;18</title>
<path fill="none" stroke="black" d="M469.32,-610.22C475.48,-599.14 483.66,-584.41 490.64,-571.85"/>
<polygon fill="black" stroke="black" points="493.89,-573.2 495.69,-562.76 487.77,-569.8 493.89,-573.2"/>
<text text-anchor="middle" x="488.5" y="-584" font-family="Times,serif" font-size="10.00">2</text>
</g>
<!-- 27&#45;&gt;24 -->
<g id="edge8" class="edge">
<title>27&#45;&gt;24</title>
<path fill="none" stroke="black" stroke-dasharray="1,5" d="M485.61,-613.08C510.28,-599.66 547.76,-579.29 574.93,-564.52"/>
<polygon fill="black" stroke="black" points="576.61,-567.59 583.72,-559.74 573.26,-561.44 576.61,-567.59"/>
<text text-anchor="middle" x="546.5" y="-584" font-family="Times,serif" font-size="10.00">2</text>
</g>
<!-- 42 -->
<g id="node15" class="node">
<title>42</title>
<ellipse fill="none" stroke="black" cx="265" cy="-34" rx="46.59" ry="18"/>
<text text-anchor="middle" x="265" y="-30.3" font-family="Times,serif" font-size="14.00">Mon (b)</text>
</g>
<!-- 31&#45;&gt;42 -->
<g id="edge14" class="edge">
<title>31&#45;&gt;42</title>
<path fill="none" stroke="black" stroke-dasharray="1,5" d="M265,-88.81C265,-80.79 265,-71.05 265,-62.07"/>
<polygon fill="black" stroke="black" points="268.5,-62.03 265,-52.03 261.5,-62.03 268.5,-62.03"/>
</g>
<!-- 34&#45;&gt;10 -->
<g id="edge3" class="edge">
<title>34&#45;&gt;10</title>
<path fill="none" stroke="black" stroke-dasharray="5,2" d="M268,-453.81C268,-445.79 268,-436.05 268,-427.07"/>
<polygon fill="black" stroke="black" points="271.5,-427.03 268,-417.03 264.5,-427.03 271.5,-427.03"/>
</g>
<!-- 38&#45;&gt;16 -->
<g id="edge4" class="edge">
<title>38&#45;&gt;16</title>
<path fill="none" stroke="black" stroke-dasharray="1,5" d="M267.27,-234.81C266.93,-226.79 266.52,-217.05 266.14,-208.07"/>
<polygon fill="black" stroke="black" points="269.64,-207.87 265.72,-198.03 262.64,-208.17 269.64,-207.87"/>
</g>
<!-- 44 -->
<g id="node16" class="node">
<title>44</title>
<ellipse fill="none" stroke="black" cx="378" cy="-180" rx="53.09" ry="18"/>
<text text-anchor="middle" x="378" y="-176.3" font-family="Times,serif" font-size="14.00">M118 (b)</text>
</g>
<!-- 38&#45;&gt;44 -->
<g id="edge15" class="edge">
<title>38&#45;&gt;44</title>
<path fill="none" stroke="black" stroke-dasharray="5,2" d="M291.06,-237.12C306.83,-226.94 327.97,-213.29 345.45,-202.01"/>
<polygon fill="black" stroke="black" points="347.71,-204.72 354.21,-196.35 343.91,-198.84 347.71,-204.72"/>
</g>
<!-- 40 -->
<g id="node14" class="node">
<title>40</title>
<ellipse fill="none" stroke="black" cx="378" cy="-107" rx="44.39" ry="18"/>
<text text-anchor="middle" x="378" y="-103.3" font-family="Times,serif" font-size="14.00">P18 (b)</text>
</g>
<!-- 44&#45;&gt;40 -->
<g id="edge13" class="edge">
<title>44&#45;&gt;40</title>
<path fill="none" stroke="black" stroke-dasharray="5,2" d="M378,-161.81C378,-153.79 378,-144.05 378,-135.07"/>
<polygon fill="black" stroke="black" points="381.5,-135.03 378,-125.03 374.5,-135.03 381.5,-135.03"/>
</g>
<!-- 32 -->
<g id="node17" class="node">
<title>32</title>
<ellipse fill="none" stroke="blue" stroke-dasharray="5,2" cx="394" cy="-702" rx="53.89" ry="18"/>
<text text-anchor="middle" x="394" y="-698.3" font-family="Times,serif" font-size="14.00">aBase (a)</text>
</g>
<!-- 32&#45;&gt;17 -->
<g id="edge5" class="edge">
<title>32&#45;&gt;17</title>
<path fill="none" stroke="blue" stroke-width="2" d="M379.02,-684.66C370.54,-675.4 359.76,-663.64 350.29,-653.32"/>
<polygon fill="blue" stroke="blue" stroke-width="2" points="352.71,-650.78 343.38,-645.77 347.55,-655.51 352.71,-650.78"/>
</g>
<!-- 32&#45;&gt;27 -->
<g id="edge9" class="edge">
<title>32&#45;&gt;27</title>
<path fill="none" stroke="blue" d="M408.98,-684.66C417.58,-675.27 428.55,-663.31 438.11,-652.88"/>
<polygon fill="blue" stroke="blue" points="440.91,-655.01 445.08,-645.27 435.75,-650.28 440.91,-655.01"/>
</g>
</g>
</svg>
