<?xml version="1.0" encoding="UTF-8" standalone="no"?>
<!DOCTYPE svg PUBLIC "-//W3C//DTD SVG 1.1//EN"
 "http://www.w3.org/Graphics/SVG/1.1/DTD/svg11.dtd">
<!-- Generated by graphviz version 2.43.0 (0)
 -->
<!-- Title: textual_flow_diagram Pages: 1 -->
<svg width="330pt" height="161pt"
 viewBox="0.00 0.00 330.00 161.00" xmlns="http://www.w3.org/2000/svg" xmlns:xlink="http://www.w3.org/1999/xlink">
<g id="graph0" class="graph" transform="scale(1 1) rotate(0) translate(4 157)">
<title>textual_flow_diagram</title>
<polygon fill="white" stroke="transparent" points="-4,4 -4,-157 326,-157 326,4 -4,4"/>
<g id="clust1" class="cluster">
<title>cluster_legend</title>
<polygon fill="none" stroke="black" points="8,-91 8,-145 182,-145 182,-91 8,-91"/>
</g>
<g id="clust2" class="cluster">
<title>cluster_plot</title>
</g>
<!-- label -->
<g id="node1" class="node">
<title>label</title>
<text text-anchor="middle" x="95" y="-121.8" font-family="Times,serif" font-size="14.00">adstag1.2.10U39, a</text>
<text text-anchor="middle" x="95" y="-106.8" font-family="Times,serif" font-size="14.00">Con = 10</text>
</g>
<!-- 18 -->
<g id="node2" class="node">
<title>18</title>
<ellipse fill="none" stroke="black" cx="252" cy="-34" rx="42.79" ry="18"/>
<text text-anchor="middle" x="252" y="-30.3" font-family="Times,serif" font-size="14.00">Bas (a)</text>
</g>
<!-- 32 -->
<g id="node3" class="node">
<title>32</title>
<ellipse fill="none" stroke="black" cx="252" cy="-118" rx="53.89" ry="18"/>
<text text-anchor="middle" x="252" y="-114.3" font-family="Times,serif" font-size="14.00">aBase (a)</text>
</g>
<!-- 32&#45;&gt;18 -->
<g id="edge1" class="edge">
<title>32&#45;&gt;18</title>
<path fill="none" stroke="black" stroke-width="2" d="M252,-99.61C252,-88.77 252,-74.6 252,-62.29"/>
<polygon fill="black" stroke="black" stroke-width="2" points="255.5,-62.08 252,-52.08 248.5,-62.08 255.5,-62.08"/>
<text text-anchor="middle" x="255.5" y="-73" font-family="Times,serif" font-size="10.00">3</text>
</g>
</g>
</svg>
