<?xml version="1.0" encoding="UTF-8" standalone="no"?>
<!DOCTYPE svg PUBLIC "-//W3C//DTD SVG 1.1//EN"
 "http://www.w3.org/Graphics/SVG/1.1/DTD/svg11.dtd">
<!-- Generated by graphviz version 2.43.0 (0)
 -->
<!-- Title: textual_flow_diagram Pages: 1 -->
<svg width="476pt" height="222pt"
 viewBox="0.00 0.00 476.00 222.00" xmlns="http://www.w3.org/2000/svg" xmlns:xlink="http://www.w3.org/1999/xlink">
<g id="graph0" class="graph" transform="scale(1 1) rotate(0) translate(4 218)">
<title>textual_flow_diagram</title>
<polygon fill="white" stroke="transparent" points="-4,4 -4,-218 472,-218 472,4 -4,4"/>
<g id="clust1" class="cluster">
<title>cluster_legend</title>
<polygon fill="none" stroke="black" points="8,-152 8,-206 204,-206 204,-152 8,-152"/>
</g>
<g id="clust2" class="cluster">
<title>cluster_plot</title>
</g>
<!-- label -->
<g id="node1" class="node">
<title>label</title>
<text text-anchor="middle" x="106" y="-182.8" font-family="Times,serif" font-size="14.00">adstag1.3.71U16&#45;26, d</text>
<text text-anchor="middle" x="106" y="-167.8" font-family="Times,serif" font-size="14.00">Con = 5</text>
</g>
<!-- 15 -->
<g id="node2" class="node">
<title>15</title>
<ellipse fill="none" stroke="black" cx="275" cy="-106" rx="50.09" ry="18"/>
<text text-anchor="middle" x="275" y="-102.3" font-family="Times,serif" font-size="14.00">V560 (d)</text>
</g>
<!-- 18 -->
<g id="node3" class="node">
<title>18</title>
<ellipse fill="none" stroke="black" cx="276" cy="-34" rx="55.79" ry="18"/>
<text text-anchor="middle" x="276" y="-30.3" font-family="Times,serif" font-size="14.00">V1920 (d)</text>
</g>
<!-- 15&#45;&gt;18 -->
<g id="edge2" class="edge">
<title>15&#45;&gt;18</title>
<path fill="none" stroke="black" stroke-dasharray="5,2" d="M275.25,-87.7C275.36,-79.98 275.49,-70.71 275.61,-62.11"/>
<polygon fill="black" stroke="black" points="279.11,-62.15 275.76,-52.1 272.11,-62.05 279.11,-62.15"/>
</g>
<!-- 25 -->
<g id="node4" class="node">
<title>25</title>
<ellipse fill="none" stroke="black" cx="399" cy="-106" rx="44.69" ry="18"/>
<text text-anchor="middle" x="399" y="-102.3" font-family="Times,serif" font-size="14.00">B39 (d)</text>
</g>
<!-- 10 -->
<g id="node5" class="node">
<title>10</title>
<ellipse fill="none" stroke="blue" stroke-dasharray="5,2" cx="399" cy="-179" rx="52.79" ry="18"/>
<text text-anchor="middle" x="399" y="-175.3" font-family="Times,serif" font-size="14.00">LaSM (a)</text>
</g>
<!-- 10&#45;&gt;25 -->
<g id="edge3" class="edge">
<title>10&#45;&gt;25</title>
<path fill="none" stroke="blue" stroke-dasharray="5,2" d="M399,-160.81C399,-152.79 399,-143.05 399,-134.07"/>
<polygon fill="blue" stroke="blue" points="402.5,-134.03 399,-124.03 395.5,-134.03 402.5,-134.03"/>
</g>
<!-- 20 -->
<g id="node6" class="node">
<title>20</title>
<ellipse fill="none" stroke="blue" stroke-dasharray="5,2" cx="274" cy="-179" rx="53.89" ry="18"/>
<text text-anchor="middle" x="274" y="-175.3" font-family="Times,serif" font-size="14.00">aBase (a)</text>
</g>
<!-- 20&#45;&gt;15 -->
<g id="edge1" class="edge">
<title>20&#45;&gt;15</title>
<path fill="none" stroke="blue" stroke-width="2" d="M274.24,-160.81C274.36,-152.79 274.49,-143.05 274.62,-134.07"/>
<polygon fill="blue" stroke="blue" stroke-width="2" points="278.12,-134.08 274.76,-124.03 271.12,-133.98 278.12,-134.08"/>
</g>
</g>
</svg>
