<?xml version="1.0" encoding="UTF-8" standalone="no"?>
<!DOCTYPE svg PUBLIC "-//W3C//DTD SVG 1.1//EN"
 "http://www.w3.org/Graphics/SVG/1.1/DTD/svg11.dtd">
<!-- Generated by graphviz version 2.43.0 (0)
 -->
<!-- Title: textual_flow_diagram Pages: 1 -->
<svg width="1584pt" height="307pt"
 viewBox="0.00 0.00 1584.00 307.00" xmlns="http://www.w3.org/2000/svg" xmlns:xlink="http://www.w3.org/1999/xlink">
<g id="graph0" class="graph" transform="scale(1 1) rotate(0) translate(4 303)">
<title>textual_flow_diagram</title>
<polygon fill="white" stroke="transparent" points="-4,4 -4,-303 1580,-303 1580,4 -4,4"/>
<g id="clust1" class="cluster">
<title>cluster_legend</title>
<polygon fill="none" stroke="black" points="8,-237 8,-291 204,-291 204,-237 8,-237"/>
</g>
<g id="clust2" class="cluster">
<title>cluster_plot</title>
</g>
<!-- label -->
<g id="node1" class="node">
<title>label</title>
<text text-anchor="middle" x="106" y="-267.8" font-family="Times,serif" font-size="14.00">adstag1.3.43U16&#45;18, a</text>
<text text-anchor="middle" x="106" y="-252.8" font-family="Times,serif" font-size="14.00">Con = 10</text>
</g>
<!-- 1 -->
<g id="node2" class="node">
<title>1</title>
<ellipse fill="none" stroke="black" cx="934" cy="-107" rx="50.09" ry="18"/>
<text text-anchor="middle" x="934" y="-103.3" font-family="Times,serif" font-size="14.00">V565 (a)</text>
</g>
<!-- 2 -->
<g id="node3" class="node">
<title>2</title>
<ellipse fill="none" stroke="black" cx="822" cy="-107" rx="44.39" ry="18"/>
<text text-anchor="middle" x="822" y="-103.3" font-family="Times,serif" font-size="14.00">B39 (a)</text>
</g>
<!-- 4 -->
<g id="node4" class="node">
<title>4</title>
<ellipse fill="none" stroke="black" cx="1046" cy="-107" rx="44.39" ry="18"/>
<text text-anchor="middle" x="1046" y="-103.3" font-family="Times,serif" font-size="14.00">P74 (a)</text>
</g>
<!-- 5 -->
<g id="node5" class="node">
<title>5</title>
<ellipse fill="none" stroke="black" cx="1155" cy="-107" rx="46.59" ry="18"/>
<text text-anchor="middle" x="1155" y="-103.3" font-family="Times,serif" font-size="14.00">Bodl (a)</text>
</g>
<!-- 6 -->
<g id="node6" class="node">
<title>6</title>
<ellipse fill="none" stroke="black" cx="270" cy="-180" rx="50.09" ry="18"/>
<text text-anchor="middle" x="270" y="-176.3" font-family="Times,serif" font-size="14.00">Neap (a)</text>
</g>
<!-- 29 -->
<g id="node18" class="node">
<title>29</title>
<ellipse fill="none" stroke="black" cx="276" cy="-107" rx="55.79" ry="18"/>
<text text-anchor="middle" x="276" y="-103.3" font-family="Times,serif" font-size="14.00">V1629 (a)</text>
</g>
<!-- 6&#45;&gt;29 -->
<g id="edge16" class="edge">
<title>6&#45;&gt;29</title>
<path fill="none" stroke="black" stroke-dasharray="1,5" d="M271.45,-161.81C272.13,-153.79 272.95,-144.05 273.71,-135.07"/>
<polygon fill="black" stroke="black" points="277.21,-135.29 274.56,-125.03 270.23,-134.7 277.21,-135.29"/>
</g>
<!-- 7 -->
<g id="node7" class="node">
<title>7</title>
<ellipse fill="none" stroke="black" cx="380" cy="-180" rx="41.69" ry="18"/>
<text text-anchor="middle" x="380" y="-176.3" font-family="Times,serif" font-size="14.00">Est (a)</text>
</g>
<!-- 11 -->
<g id="node8" class="node">
<title>11</title>
<ellipse fill="none" stroke="black" cx="785" cy="-264" rx="53.89" ry="18"/>
<text text-anchor="middle" x="785" y="-260.3" font-family="Times,serif" font-size="14.00">aBase (a)</text>
</g>
<!-- 11&#45;&gt;6 -->
<g id="edge5" class="edge">
<title>11&#45;&gt;6</title>
<path fill="none" stroke="black" stroke-width="2" d="M733.55,-258.43C648.57,-250.27 473.85,-230.9 329,-198 324.91,-197.07 320.68,-196.02 316.45,-194.92"/>
<polygon fill="black" stroke="black" stroke-width="2" points="317.22,-191.5 306.65,-192.26 315.39,-198.26 317.22,-191.5"/>
</g>
<!-- 11&#45;&gt;7 -->
<g id="edge6" class="edge">
<title>11&#45;&gt;7</title>
<path fill="none" stroke="black" d="M735.98,-256.35C667.04,-246.47 537.79,-226.03 430,-198 426.85,-197.18 423.61,-196.26 420.37,-195.29"/>
<polygon fill="black" stroke="black" points="421.31,-191.91 410.72,-192.24 419.2,-198.59 421.31,-191.91"/>
<text text-anchor="middle" x="558.5" y="-219" font-family="Times,serif" font-size="10.00">3</text>
</g>
<!-- 13 -->
<g id="node9" class="node">
<title>13</title>
<ellipse fill="none" stroke="black" cx="495" cy="-180" rx="55.79" ry="18"/>
<text text-anchor="middle" x="495" y="-176.3" font-family="Times,serif" font-size="14.00">V2036 (a)</text>
</g>
<!-- 11&#45;&gt;13 -->
<g id="edge7" class="edge">
<title>11&#45;&gt;13</title>
<path fill="none" stroke="black" d="M745.28,-251.77C693.33,-237.08 602.27,-211.33 545.48,-195.27"/>
<polygon fill="black" stroke="black" points="546.21,-191.84 535.63,-192.49 544.3,-198.58 546.21,-191.84"/>
</g>
<!-- 16 -->
<g id="node10" class="node">
<title>16</title>
<ellipse fill="none" stroke="black" cx="619" cy="-180" rx="50.09" ry="18"/>
<text text-anchor="middle" x="619" y="-176.3" font-family="Times,serif" font-size="14.00">Patm (a)</text>
</g>
<!-- 11&#45;&gt;16 -->
<g id="edge8" class="edge">
<title>11&#45;&gt;16</title>
<path fill="none" stroke="black" d="M756.09,-248.72C728.51,-235.09 686.82,-214.5 656.66,-199.6"/>
<polygon fill="black" stroke="black" points="657.82,-196.27 647.31,-194.98 654.72,-202.55 657.82,-196.27"/>
</g>
<!-- 19 -->
<g id="node12" class="node">
<title>19</title>
<ellipse fill="none" stroke="black" cx="752" cy="-180" rx="64.99" ry="18"/>
<text text-anchor="middle" x="752" y="-176.3" font-family="Times,serif" font-size="14.00">Savile&#45;Η (a)</text>
</g>
<!-- 11&#45;&gt;19 -->
<g id="edge10" class="edge">
<title>11&#45;&gt;19</title>
<path fill="none" stroke="black" stroke-width="2" d="M778.16,-246.01C773.69,-234.9 767.76,-220.17 762.68,-207.54"/>
<polygon fill="black" stroke="black" stroke-width="2" points="765.81,-205.94 758.83,-197.97 759.32,-208.55 765.81,-205.94"/>
</g>
<!-- 27 -->
<g id="node16" class="node">
<title>27</title>
<ellipse fill="none" stroke="black" cx="879" cy="-180" rx="44.39" ry="18"/>
<text text-anchor="middle" x="879" y="-176.3" font-family="Times,serif" font-size="14.00">A25 (a)</text>
</g>
<!-- 11&#45;&gt;27 -->
<g id="edge14" class="edge">
<title>11&#45;&gt;27</title>
<path fill="none" stroke="black" stroke-dasharray="5,2" d="M803.57,-246.8C817.79,-234.4 837.56,-217.15 853.3,-203.42"/>
<polygon fill="black" stroke="black" points="855.87,-205.82 861.1,-196.61 851.27,-200.55 855.87,-205.82"/>
</g>
<!-- 28 -->
<g id="node17" class="node">
<title>28</title>
<ellipse fill="none" stroke="black" cx="991" cy="-180" rx="50.09" ry="18"/>
<text text-anchor="middle" x="991" y="-176.3" font-family="Times,serif" font-size="14.00">S249 (a)</text>
</g>
<!-- 11&#45;&gt;28 -->
<g id="edge15" class="edge">
<title>11&#45;&gt;28</title>
<path fill="none" stroke="black" d="M818.56,-249.64C854.29,-235.42 910.9,-212.88 949.43,-197.55"/>
<polygon fill="black" stroke="black" points="950.82,-200.76 958.82,-193.81 948.23,-194.26 950.82,-200.76"/>
</g>
<!-- 35 -->
<g id="node22" class="node">
<title>35</title>
<ellipse fill="none" stroke="black" cx="1112" cy="-180" rx="52.79" ry="18"/>
<text text-anchor="middle" x="1112" y="-176.3" font-family="Times,serif" font-size="14.00">LaSM (a)</text>
</g>
<!-- 11&#45;&gt;35 -->
<g id="edge20" class="edge">
<title>11&#45;&gt;35</title>
<path fill="none" stroke="black" d="M827.77,-252.89C880.23,-240.39 971.83,-218.3 1050,-198 1054.07,-196.94 1058.29,-195.83 1062.52,-194.7"/>
<polygon fill="black" stroke="black" points="1063.61,-198.03 1072.35,-192.04 1061.79,-191.27 1063.61,-198.03"/>
</g>
<!-- 36 -->
<g id="node23" class="node">
<title>36</title>
<ellipse fill="none" stroke="black" cx="1231" cy="-180" rx="48.99" ry="18"/>
<text text-anchor="middle" x="1231" y="-176.3" font-family="Times,serif" font-size="14.00">La22 (a)</text>
</g>
<!-- 11&#45;&gt;36 -->
<g id="edge21" class="edge">
<title>11&#45;&gt;36</title>
<path fill="none" stroke="black" stroke-dasharray="5,2" d="M834.51,-256.74C908.8,-246.89 1053.27,-225.98 1174,-198 1177.8,-197.12 1181.71,-196.13 1185.63,-195.08"/>
<polygon fill="black" stroke="black" points="1186.61,-198.44 1195.3,-192.39 1184.73,-191.7 1186.61,-198.44"/>
</g>
<!-- 40 -->
<g id="node26" class="node">
<title>40</title>
<ellipse fill="none" stroke="black" cx="1350" cy="-180" rx="52.79" ry="18"/>
<text text-anchor="middle" x="1350" y="-176.3" font-family="Times,serif" font-size="14.00">M136 (a)</text>
</g>
<!-- 11&#45;&gt;40 -->
<g id="edge24" class="edge">
<title>11&#45;&gt;40</title>
<path fill="none" stroke="black" stroke-width="2" d="M836.92,-258.78C928.75,-250.77 1125.58,-231.13 1289,-198 1293.18,-197.15 1297.5,-196.17 1301.81,-195.12"/>
<polygon fill="black" stroke="black" stroke-width="2" points="1302.99,-198.43 1311.81,-192.55 1301.25,-191.65 1302.99,-198.43"/>
</g>
<!-- 17 -->
<g id="node11" class="node">
<title>17</title>
<ellipse fill="none" stroke="black" cx="390" cy="-107" rx="40.09" ry="18"/>
<text text-anchor="middle" x="390" y="-103.3" font-family="Times,serif" font-size="14.00">Pal (a)</text>
</g>
<!-- 21 -->
<g id="node13" class="node">
<title>21</title>
<ellipse fill="none" stroke="black" cx="492" cy="-107" rx="44.39" ry="18"/>
<text text-anchor="middle" x="492" y="-103.3" font-family="Times,serif" font-size="14.00">P01 (a)</text>
</g>
<!-- 23 -->
<g id="node14" class="node">
<title>23</title>
<ellipse fill="none" stroke="black" cx="1269" cy="-107" rx="48.99" ry="18"/>
<text text-anchor="middle" x="1269" y="-103.3" font-family="Times,serif" font-size="14.00">La35 (a)</text>
</g>
<!-- 24 -->
<g id="node15" class="node">
<title>24</title>
<ellipse fill="none" stroke="black" cx="604" cy="-107" rx="50.09" ry="18"/>
<text text-anchor="middle" x="604" y="-103.3" font-family="Times,serif" font-size="14.00">V566 (a)</text>
</g>
<!-- 37 -->
<g id="node24" class="node">
<title>37</title>
<ellipse fill="none" stroke="black" cx="604" cy="-34" rx="55.79" ry="18"/>
<text text-anchor="middle" x="604" y="-30.3" font-family="Times,serif" font-size="14.00">V1639 (a)</text>
</g>
<!-- 24&#45;&gt;37 -->
<g id="edge22" class="edge">
<title>24&#45;&gt;37</title>
<path fill="none" stroke="black" stroke-dasharray="1,5" d="M604,-88.81C604,-80.79 604,-71.05 604,-62.07"/>
<polygon fill="black" stroke="black" points="607.5,-62.03 604,-52.03 600.5,-62.03 607.5,-62.03"/>
</g>
<!-- 27&#45;&gt;17 -->
<g id="edge9" class="edge">
<title>27&#45;&gt;17</title>
<path fill="none" stroke="black" stroke-dasharray="5,2" d="M847.06,-167.54C840.19,-165.41 832.91,-163.42 826,-162 656.76,-127.19 607.82,-161.8 439,-125 435.64,-124.27 432.2,-123.38 428.77,-122.39"/>
<polygon fill="black" stroke="black" points="429.8,-119.05 419.21,-119.41 427.72,-125.73 429.8,-119.05"/>
</g>
<!-- 27&#45;&gt;21 -->
<g id="edge11" class="edge">
<title>27&#45;&gt;21</title>
<path fill="none" stroke="black" stroke-dasharray="5,2" d="M846.74,-167.64C839.95,-165.53 832.79,-163.52 826,-162 703.09,-134.43 667.91,-152.57 545,-125 541.39,-124.19 537.68,-123.24 533.98,-122.22"/>
<polygon fill="black" stroke="black" points="534.84,-118.83 524.26,-119.36 532.87,-125.54 534.84,-118.83"/>
</g>
<!-- 27&#45;&gt;24 -->
<g id="edge13" class="edge">
<title>27&#45;&gt;24</title>
<path fill="none" stroke="black" stroke-dasharray="5,2" d="M846.05,-167.94C839.44,-165.86 832.52,-163.78 826,-162 754.34,-142.41 734.94,-143.51 663,-125 659.16,-124.01 655.19,-122.95 651.21,-121.86"/>
<polygon fill="black" stroke="black" points="651.94,-118.43 641.37,-119.12 650.06,-125.17 651.94,-118.43"/>
</g>
<!-- 31 -->
<g id="node19" class="node">
<title>31</title>
<ellipse fill="none" stroke="black" cx="716" cy="-107" rx="44.39" ry="18"/>
<text text-anchor="middle" x="716" y="-103.3" font-family="Times,serif" font-size="14.00">S32 (a)</text>
</g>
<!-- 27&#45;&gt;31 -->
<g id="edge17" class="edge">
<title>27&#45;&gt;31</title>
<path fill="none" stroke="black" stroke-dasharray="5,2" d="M849.86,-166.31C823.29,-154.73 783.83,-137.55 754.64,-124.83"/>
<polygon fill="black" stroke="black" points="755.73,-121.49 745.16,-120.7 752.93,-127.91 755.73,-121.49"/>
</g>
<!-- 32 -->
<g id="node20" class="node">
<title>32</title>
<ellipse fill="none" stroke="black" cx="1386" cy="-107" rx="50.09" ry="18"/>
<text text-anchor="middle" x="1386" y="-103.3" font-family="Times,serif" font-size="14.00">A116 (a)</text>
</g>
<!-- 34 -->
<g id="node21" class="node">
<title>34</title>
<ellipse fill="none" stroke="black" cx="1507" cy="-34" rx="50.09" ry="18"/>
<text text-anchor="middle" x="1507" y="-30.3" font-family="Times,serif" font-size="14.00">A336 (a)</text>
</g>
<!-- 35&#45;&gt;2 -->
<g id="edge2" class="edge">
<title>35&#45;&gt;2</title>
<path fill="none" stroke="black" stroke-dasharray="5,2" d="M1072.73,-167.86C1065.21,-165.83 1057.38,-163.79 1050,-162 972.74,-143.26 951.84,-145.39 875,-125 871.63,-124.11 868.15,-123.13 864.67,-122.1"/>
<polygon fill="black" stroke="black" points="865.51,-118.7 854.92,-119.13 863.47,-125.39 865.51,-118.7"/>
</g>
<!-- 36&#45;&gt;1 -->
<g id="edge1" class="edge">
<title>36&#45;&gt;1</title>
<path fill="none" stroke="black" stroke-dasharray="5,2" d="M1194.95,-167.73C1188.03,-165.71 1180.81,-163.71 1174,-162 1094.36,-142.02 1072.73,-144.6 993,-125 988.98,-124.01 984.83,-122.93 980.67,-121.81"/>
<polygon fill="black" stroke="black" points="981.59,-118.44 971.02,-119.15 979.73,-125.18 981.59,-118.44"/>
</g>
<!-- 36&#45;&gt;4 -->
<g id="edge3" class="edge">
<title>36&#45;&gt;4</title>
<path fill="none" stroke="black" stroke-dasharray="1,5" d="M1198.35,-166.47C1167.2,-154.51 1120.17,-136.46 1086.61,-123.58"/>
<polygon fill="black" stroke="black" points="1087.68,-120.25 1077.09,-119.93 1085.17,-126.78 1087.68,-120.25"/>
</g>
<!-- 36&#45;&gt;5 -->
<g id="edge4" class="edge">
<title>36&#45;&gt;5</title>
<path fill="none" stroke="black" stroke-dasharray="5,2" d="M1213.75,-162.89C1203.58,-153.38 1190.54,-141.2 1179.33,-130.73"/>
<polygon fill="black" stroke="black" points="1181.61,-128.07 1171.92,-123.8 1176.83,-133.19 1181.61,-128.07"/>
</g>
<!-- 36&#45;&gt;23 -->
<g id="edge12" class="edge">
<title>36&#45;&gt;23</title>
<path fill="none" stroke="black" stroke-dasharray="1,5" d="M1240.01,-162.17C1244.55,-153.69 1250.16,-143.21 1255.23,-133.73"/>
<polygon fill="black" stroke="black" points="1258.43,-135.17 1260.06,-124.71 1252.25,-131.87 1258.43,-135.17"/>
</g>
<!-- 36&#45;&gt;32 -->
<g id="edge18" class="edge">
<title>36&#45;&gt;32</title>
<path fill="none" stroke="black" stroke-dasharray="5,2" d="M1260.52,-165.48C1285.11,-154.21 1320.33,-138.08 1347.2,-125.77"/>
<polygon fill="black" stroke="black" points="1348.69,-128.94 1356.33,-121.59 1345.78,-122.57 1348.69,-128.94"/>
</g>
<!-- 38 -->
<g id="node25" class="node">
<title>38</title>
<ellipse fill="none" stroke="black" cx="1507" cy="-107" rx="52.79" ry="18"/>
<text text-anchor="middle" x="1507" y="-103.3" font-family="Times,serif" font-size="14.00">M111 (a)</text>
</g>
<!-- 36&#45;&gt;38 -->
<g id="edge23" class="edge">
<title>36&#45;&gt;38</title>
<path fill="none" stroke="black" stroke-dasharray="1,5" d="M1267.09,-167.89C1274.01,-165.86 1281.22,-163.81 1288,-162 1357.27,-143.53 1375.53,-142.7 1445,-125 1449.14,-123.95 1453.42,-122.83 1457.72,-121.69"/>
<polygon fill="black" stroke="black" points="1458.95,-124.98 1467.7,-119.01 1457.13,-118.22 1458.95,-124.98"/>
</g>
<!-- 38&#45;&gt;34 -->
<g id="edge19" class="edge">
<title>38&#45;&gt;34</title>
<path fill="none" stroke="black" stroke-dasharray="5,2" d="M1507,-88.81C1507,-80.79 1507,-71.05 1507,-62.07"/>
<polygon fill="black" stroke="black" points="1510.5,-62.03 1507,-52.03 1503.5,-62.03 1510.5,-62.03"/>
</g>
</g>
</svg>
