<?xml version="1.0" encoding="UTF-8" standalone="no"?>
<!DOCTYPE svg PUBLIC "-//W3C//DTD SVG 1.1//EN"
 "http://www.w3.org/Graphics/SVG/1.1/DTD/svg11.dtd">
<!-- Generated by graphviz version 2.43.0 (0)
 -->
<!-- Title: textual_flow_diagram Pages: 1 -->
<svg width="466pt" height="599pt"
 viewBox="0.00 0.00 466.00 599.00" xmlns="http://www.w3.org/2000/svg" xmlns:xlink="http://www.w3.org/1999/xlink">
<g id="graph0" class="graph" transform="scale(1 1) rotate(0) translate(4 595)">
<title>textual_flow_diagram</title>
<polygon fill="white" stroke="transparent" points="-4,4 -4,-595 462,-595 462,4 -4,4"/>
<g id="clust1" class="cluster">
<title>cluster_legend</title>
<polygon fill="none" stroke="black" points="8,-529 8,-583 196,-583 196,-529 8,-529"/>
</g>
<g id="clust2" class="cluster">
<title>cluster_plot</title>
</g>
<!-- label -->
<g id="node1" class="node">
<title>label</title>
<text text-anchor="middle" x="102" y="-559.8" font-family="Times,serif" font-size="14.00">adstag1.4.4U38&#45;46, d</text>
<text text-anchor="middle" x="102" y="-544.8" font-family="Times,serif" font-size="14.00">Con = 5</text>
</g>
<!-- 0 -->
<g id="node2" class="node">
<title>0</title>
<ellipse fill="none" stroke="black" cx="262" cy="-180" rx="50.09" ry="18"/>
<text text-anchor="middle" x="262" y="-176.3" font-family="Times,serif" font-size="14.00">Marc (d)</text>
</g>
<!-- 9 -->
<g id="node6" class="node">
<title>9</title>
<ellipse fill="none" stroke="black" cx="262" cy="-107" rx="46.59" ry="18"/>
<text text-anchor="middle" x="262" y="-103.3" font-family="Times,serif" font-size="14.00">Mon (d)</text>
</g>
<!-- 0&#45;&gt;9 -->
<g id="edge5" class="edge">
<title>0&#45;&gt;9</title>
<path fill="none" stroke="black" stroke-dasharray="1,5" d="M262,-161.81C262,-153.79 262,-144.05 262,-135.07"/>
<polygon fill="black" stroke="black" points="265.5,-135.03 262,-125.03 258.5,-135.03 265.5,-135.03"/>
</g>
<!-- 3 -->
<g id="node3" class="node">
<title>3</title>
<ellipse fill="none" stroke="black" cx="262" cy="-399" rx="50.09" ry="18"/>
<text text-anchor="middle" x="262" y="-395.3" font-family="Times,serif" font-size="14.00">V536 (d)</text>
</g>
<!-- 36 -->
<g id="node9" class="node">
<title>36</title>
<ellipse fill="none" stroke="black" cx="262" cy="-326" rx="50.09" ry="18"/>
<text text-anchor="middle" x="262" y="-322.3" font-family="Times,serif" font-size="14.00">V568 (d)</text>
</g>
<!-- 3&#45;&gt;36 -->
<g id="edge8" class="edge">
<title>3&#45;&gt;36</title>
<path fill="none" stroke="black" stroke-dasharray="1,5" d="M262,-380.81C262,-372.79 262,-363.05 262,-354.07"/>
<polygon fill="black" stroke="black" points="265.5,-354.03 262,-344.03 258.5,-354.03 265.5,-354.03"/>
</g>
<!-- 6 -->
<g id="node4" class="node">
<title>6</title>
<ellipse fill="none" stroke="black" cx="262" cy="-253" rx="47.39" ry="18"/>
<text text-anchor="middle" x="262" y="-249.3" font-family="Times,serif" font-size="14.00">Taur (d)</text>
</g>
<!-- 6&#45;&gt;0 -->
<g id="edge1" class="edge">
<title>6&#45;&gt;0</title>
<path fill="none" stroke="black" stroke-dasharray="1,5" d="M262,-234.81C262,-226.79 262,-217.05 262,-208.07"/>
<polygon fill="black" stroke="black" points="265.5,-208.03 262,-198.03 258.5,-208.03 265.5,-208.03"/>
</g>
<!-- 11 -->
<g id="node7" class="node">
<title>11</title>
<ellipse fill="none" stroke="black" cx="383" cy="-180" rx="53.09" ry="18"/>
<text text-anchor="middle" x="383" y="-176.3" font-family="Times,serif" font-size="14.00">M118 (d)</text>
</g>
<!-- 6&#45;&gt;11 -->
<g id="edge6" class="edge">
<title>6&#45;&gt;11</title>
<path fill="none" stroke="black" stroke-dasharray="5,2" d="M286.78,-237.46C304.65,-226.98 328.99,-212.69 348.72,-201.11"/>
<polygon fill="black" stroke="black" points="350.57,-204.09 357.42,-196.01 347.02,-198.05 350.57,-204.09"/>
</g>
<!-- 8 -->
<g id="node5" class="node">
<title>8</title>
<ellipse fill="none" stroke="black" cx="262" cy="-34" rx="41.69" ry="18"/>
<text text-anchor="middle" x="262" y="-30.3" font-family="Times,serif" font-size="14.00">Sin (d)</text>
</g>
<!-- 9&#45;&gt;8 -->
<g id="edge4" class="edge">
<title>9&#45;&gt;8</title>
<path fill="none" stroke="black" stroke-dasharray="1,5" d="M262,-88.81C262,-80.79 262,-71.05 262,-62.07"/>
<polygon fill="black" stroke="black" points="265.5,-62.03 262,-52.03 258.5,-62.03 265.5,-62.03"/>
</g>
<!-- 17 -->
<g id="node8" class="node">
<title>17</title>
<ellipse fill="none" stroke="black" cx="324" cy="-482" rx="45.49" ry="18"/>
<text text-anchor="middle" x="324" y="-478.3" font-family="Times,serif" font-size="14.00">Nan (d)</text>
</g>
<!-- 17&#45;&gt;3 -->
<g id="edge2" class="edge">
<title>17&#45;&gt;3</title>
<path fill="none" stroke="black" stroke-width="2" d="M311.45,-464.61C302.69,-453.16 290.83,-437.66 280.92,-424.72"/>
<polygon fill="black" stroke="black" stroke-width="2" points="283.6,-422.46 274.74,-416.65 278.04,-426.71 283.6,-422.46"/>
<text text-anchor="middle" x="299.5" y="-438" font-family="Times,serif" font-size="10.00">3</text>
</g>
<!-- 41 -->
<g id="node10" class="node">
<title>41</title>
<ellipse fill="none" stroke="black" cx="386" cy="-399" rx="55.79" ry="18"/>
<text text-anchor="middle" x="386" y="-395.3" font-family="Times,serif" font-size="14.00">V1897 (d)</text>
</g>
<!-- 17&#45;&gt;41 -->
<g id="edge9" class="edge">
<title>17&#45;&gt;41</title>
<path fill="none" stroke="black" stroke-dasharray="1,5" d="M336.55,-464.61C345.31,-453.16 357.17,-437.66 367.08,-424.72"/>
<polygon fill="black" stroke="black" points="369.96,-426.71 373.26,-416.65 364.4,-422.46 369.96,-426.71"/>
</g>
<!-- 36&#45;&gt;6 -->
<g id="edge3" class="edge">
<title>36&#45;&gt;6</title>
<path fill="none" stroke="black" stroke-dasharray="1,5" d="M262,-307.81C262,-299.79 262,-290.05 262,-281.07"/>
<polygon fill="black" stroke="black" points="265.5,-281.03 262,-271.03 258.5,-281.03 265.5,-281.03"/>
</g>
<!-- 16 -->
<g id="node11" class="node">
<title>16</title>
<ellipse fill="none" stroke="blue" stroke-dasharray="5,2" cx="324" cy="-556" rx="53.89" ry="18"/>
<text text-anchor="middle" x="324" y="-552.3" font-family="Times,serif" font-size="14.00">aBase (a)</text>
</g>
<!-- 16&#45;&gt;17 -->
<g id="edge7" class="edge">
<title>16&#45;&gt;17</title>
<path fill="none" stroke="blue" d="M324,-537.94C324,-529.81 324,-519.88 324,-510.7"/>
<polygon fill="blue" stroke="blue" points="327.5,-510.44 324,-500.44 320.5,-510.44 327.5,-510.44"/>
</g>
</g>
</svg>
