<?xml version="1.0" encoding="UTF-8" standalone="no"?>
<!DOCTYPE svg PUBLIC "-//W3C//DTD SVG 1.1//EN"
 "http://www.w3.org/Graphics/SVG/1.1/DTD/svg11.dtd">
<!-- Generated by graphviz version 2.43.0 (0)
 -->
<!-- Title: textual_flow_diagram Pages: 1 -->
<svg width="570pt" height="463pt"
 viewBox="0.00 0.00 570.00 463.00" xmlns="http://www.w3.org/2000/svg" xmlns:xlink="http://www.w3.org/1999/xlink">
<g id="graph0" class="graph" transform="scale(1 1) rotate(0) translate(4 459)">
<title>textual_flow_diagram</title>
<polygon fill="white" stroke="transparent" points="-4,4 -4,-459 566,-459 566,4 -4,4"/>
<g id="clust1" class="cluster">
<title>cluster_legend</title>
<polygon fill="none" stroke="black" points="8,-393 8,-447 204,-447 204,-393 8,-393"/>
</g>
<g id="clust2" class="cluster">
<title>cluster_plot</title>
</g>
<!-- label -->
<g id="node1" class="node">
<title>label</title>
<text text-anchor="middle" x="106" y="-423.8" font-family="Times,serif" font-size="14.00">adstag1.3.46U62&#45;66, d</text>
<text text-anchor="middle" x="106" y="-408.8" font-family="Times,serif" font-size="14.00">Con = 5</text>
</g>
<!-- 9 -->
<g id="node2" class="node">
<title>9</title>
<ellipse fill="none" stroke="black" cx="380" cy="-273" rx="55.79" ry="18"/>
<text text-anchor="middle" x="380" y="-269.3" font-family="Times,serif" font-size="14.00">V1629 (d)</text>
</g>
<!-- 14 -->
<g id="node4" class="node">
<title>14</title>
<ellipse fill="none" stroke="black" cx="380" cy="-190" rx="50.09" ry="18"/>
<text text-anchor="middle" x="380" y="-186.3" font-family="Times,serif" font-size="14.00">V568 (d)</text>
</g>
<!-- 9&#45;&gt;14 -->
<g id="edge3" class="edge">
<title>9&#45;&gt;14</title>
<path fill="none" stroke="black" stroke-dasharray="5,2" d="M380,-254.82C380,-244.19 380,-230.31 380,-218.2"/>
<polygon fill="black" stroke="black" points="383.5,-218.15 380,-208.15 376.5,-218.15 383.5,-218.15"/>
<text text-anchor="middle" x="383.5" y="-229" font-family="Times,serif" font-size="10.00">2</text>
</g>
<!-- 10 -->
<g id="node3" class="node">
<title>10</title>
<ellipse fill="none" stroke="black" cx="270" cy="-34" rx="50.09" ry="18"/>
<text text-anchor="middle" x="270" y="-30.3" font-family="Times,serif" font-size="14.00">V569 (d)</text>
</g>
<!-- 31 -->
<g id="node5" class="node">
<title>31</title>
<ellipse fill="none" stroke="black" cx="380" cy="-117" rx="47.39" ry="18"/>
<text text-anchor="middle" x="380" y="-113.3" font-family="Times,serif" font-size="14.00">Taur (d)</text>
</g>
<!-- 14&#45;&gt;31 -->
<g id="edge4" class="edge">
<title>14&#45;&gt;31</title>
<path fill="none" stroke="black" stroke-dasharray="1,5" d="M380,-171.81C380,-163.79 380,-154.05 380,-145.07"/>
<polygon fill="black" stroke="black" points="383.5,-145.03 380,-135.03 376.5,-145.03 383.5,-145.03"/>
</g>
<!-- 31&#45;&gt;10 -->
<g id="edge2" class="edge">
<title>31&#45;&gt;10</title>
<path fill="none" stroke="black" stroke-dasharray="5,2" d="M359.31,-100.76C342.36,-88.29 318.18,-70.48 299.25,-56.54"/>
<polygon fill="black" stroke="black" points="301.1,-53.55 290.97,-50.44 296.95,-59.19 301.1,-53.55"/>
</g>
<!-- 36 -->
<g id="node7" class="node">
<title>36</title>
<ellipse fill="none" stroke="black" cx="380" cy="-34" rx="41.69" ry="18"/>
<text text-anchor="middle" x="380" y="-30.3" font-family="Times,serif" font-size="14.00">Sin (d)</text>
</g>
<!-- 31&#45;&gt;36 -->
<g id="edge6" class="edge">
<title>31&#45;&gt;36</title>
<path fill="none" stroke="black" stroke-dasharray="1,5" d="M380,-98.82C380,-88.19 380,-74.31 380,-62.2"/>
<polygon fill="black" stroke="black" points="383.5,-62.15 380,-52.15 376.5,-62.15 383.5,-62.15"/>
<text text-anchor="middle" x="383.5" y="-73" font-family="Times,serif" font-size="10.00">3</text>
</g>
<!-- 42 -->
<g id="node8" class="node">
<title>42</title>
<ellipse fill="none" stroke="black" cx="493" cy="-34" rx="53.09" ry="18"/>
<text text-anchor="middle" x="493" y="-30.3" font-family="Times,serif" font-size="14.00">M118 (d)</text>
</g>
<!-- 31&#45;&gt;42 -->
<g id="edge7" class="edge">
<title>31&#45;&gt;42</title>
<path fill="none" stroke="black" stroke-dasharray="5,2" d="M401.25,-100.76C418.63,-88.31 443.41,-70.55 462.84,-56.62"/>
<polygon fill="black" stroke="black" points="464.98,-59.39 471.07,-50.72 460.9,-53.7 464.98,-59.39"/>
</g>
<!-- 33 -->
<g id="node6" class="node">
<title>33</title>
<ellipse fill="none" stroke="black" cx="380" cy="-346" rx="50.89" ry="18"/>
<text text-anchor="middle" x="380" y="-342.3" font-family="Times,serif" font-size="14.00">Neap (d)</text>
</g>
<!-- 33&#45;&gt;9 -->
<g id="edge1" class="edge">
<title>33&#45;&gt;9</title>
<path fill="none" stroke="black" stroke-dasharray="1,5" d="M380,-327.81C380,-319.79 380,-310.05 380,-301.07"/>
<polygon fill="black" stroke="black" points="383.5,-301.03 380,-291.03 376.5,-301.03 383.5,-301.03"/>
</g>
<!-- 15 -->
<g id="node9" class="node">
<title>15</title>
<ellipse fill="none" stroke="blue" stroke-dasharray="5,2" cx="380" cy="-420" rx="53.89" ry="18"/>
<text text-anchor="middle" x="380" y="-416.3" font-family="Times,serif" font-size="14.00">aBase (a)</text>
</g>
<!-- 15&#45;&gt;33 -->
<g id="edge5" class="edge">
<title>15&#45;&gt;33</title>
<path fill="none" stroke="blue" stroke-width="2" d="M380,-401.94C380,-393.81 380,-383.88 380,-374.7"/>
<polygon fill="blue" stroke="blue" stroke-width="2" points="383.5,-374.44 380,-364.44 376.5,-374.44 383.5,-374.44"/>
</g>
</g>
</svg>
