<?xml version="1.0" encoding="UTF-8" standalone="no"?>
<!DOCTYPE svg PUBLIC "-//W3C//DTD SVG 1.1//EN"
 "http://www.w3.org/Graphics/SVG/1.1/DTD/svg11.dtd">
<!-- Generated by graphviz version 2.43.0 (0)
 -->
<!-- Title: textual_flow_diagram Pages: 1 -->
<svg width="2263pt" height="582pt"
 viewBox="0.00 0.00 2263.00 582.00" xmlns="http://www.w3.org/2000/svg" xmlns:xlink="http://www.w3.org/1999/xlink">
<g id="graph0" class="graph" transform="scale(1 1) rotate(0) translate(4 578)">
<title>textual_flow_diagram</title>
<polygon fill="white" stroke="transparent" points="-4,4 -4,-578 2259,-578 2259,4 -4,4"/>
<g id="clust1" class="cluster">
<title>cluster_legend</title>
<polygon fill="none" stroke="black" points="8,-512 8,-566 182,-566 182,-512 8,-512"/>
</g>
<g id="clust2" class="cluster">
<title>cluster_plot</title>
</g>
<!-- label -->
<g id="node1" class="node">
<title>label</title>
<text text-anchor="middle" x="95" y="-542.8" font-family="Times,serif" font-size="14.00">adstag1.2.40U90, a</text>
<text text-anchor="middle" x="95" y="-527.8" font-family="Times,serif" font-size="14.00">Con = 3</text>
</g>
<!-- 0 -->
<g id="node2" class="node">
<title>0</title>
<ellipse fill="none" stroke="black" cx="1132" cy="-394" rx="52.79" ry="18"/>
<text text-anchor="middle" x="1132" y="-390.3" font-family="Times,serif" font-size="14.00">M111 (a)</text>
</g>
<!-- 3 -->
<g id="node4" class="node">
<title>3</title>
<ellipse fill="none" stroke="black" cx="1133" cy="-322" rx="50.09" ry="18"/>
<text text-anchor="middle" x="1133" y="-318.3" font-family="Times,serif" font-size="14.00">A336 (a)</text>
</g>
<!-- 0&#45;&gt;3 -->
<g id="edge3" class="edge">
<title>0&#45;&gt;3</title>
<path fill="none" stroke="black" stroke-dasharray="5,2" d="M1132.25,-375.7C1132.36,-367.98 1132.49,-358.71 1132.61,-350.11"/>
<polygon fill="black" stroke="black" points="1136.11,-350.15 1132.76,-340.1 1129.11,-350.05 1136.11,-350.15"/>
</g>
<!-- 1 -->
<g id="node3" class="node">
<title>1</title>
<ellipse fill="none" stroke="black" cx="583" cy="-394" rx="50.09" ry="18"/>
<text text-anchor="middle" x="583" y="-390.3" font-family="Times,serif" font-size="14.00">Patm (a)</text>
</g>
<!-- 4 -->
<g id="node5" class="node">
<title>4</title>
<ellipse fill="none" stroke="black" cx="1247" cy="-394" rx="44.39" ry="18"/>
<text text-anchor="middle" x="1247" y="-390.3" font-family="Times,serif" font-size="14.00">P74 (a)</text>
</g>
<!-- 5 -->
<g id="node6" class="node">
<title>5</title>
<ellipse fill="none" stroke="black" cx="240" cy="-394" rx="41.69" ry="18"/>
<text text-anchor="middle" x="240" y="-390.3" font-family="Times,serif" font-size="14.00">Est (a)</text>
</g>
<!-- 6 -->
<g id="node7" class="node">
<title>6</title>
<ellipse fill="none" stroke="black" cx="459" cy="-250" rx="46.59" ry="18"/>
<text text-anchor="middle" x="459" y="-246.3" font-family="Times,serif" font-size="14.00">Taur (a)</text>
</g>
<!-- 8 -->
<g id="node9" class="node">
<title>8</title>
<ellipse fill="none" stroke="black" cx="338" cy="-178" rx="50.09" ry="18"/>
<text text-anchor="middle" x="338" y="-174.3" font-family="Times,serif" font-size="14.00">Marc (a)</text>
</g>
<!-- 6&#45;&gt;8 -->
<g id="edge8" class="edge">
<title>6&#45;&gt;8</title>
<path fill="none" stroke="black" stroke-dasharray="1,5" d="M434.22,-234.67C416.35,-224.33 392.01,-210.25 372.28,-198.83"/>
<polygon fill="black" stroke="black" points="373.99,-195.78 363.58,-193.8 370.48,-201.83 373.99,-195.78"/>
</g>
<!-- 10 -->
<g id="node11" class="node">
<title>10</title>
<ellipse fill="none" stroke="black" cx="459" cy="-178" rx="52.79" ry="18"/>
<text text-anchor="middle" x="459" y="-174.3" font-family="Times,serif" font-size="14.00">M118 (a)</text>
</g>
<!-- 6&#45;&gt;10 -->
<g id="edge10" class="edge">
<title>6&#45;&gt;10</title>
<path fill="none" stroke="black" stroke-dasharray="5,2" d="M459,-231.7C459,-223.98 459,-214.71 459,-206.11"/>
<polygon fill="black" stroke="black" points="462.5,-206.1 459,-196.1 455.5,-206.1 462.5,-206.1"/>
</g>
<!-- 29 -->
<g id="node27" class="node">
<title>29</title>
<ellipse fill="none" stroke="black" cx="580" cy="-178" rx="50.09" ry="18"/>
<text text-anchor="middle" x="580" y="-174.3" font-family="Times,serif" font-size="14.00">V569 (a)</text>
</g>
<!-- 6&#45;&gt;29 -->
<g id="edge25" class="edge">
<title>6&#45;&gt;29</title>
<path fill="none" stroke="black" stroke-dasharray="5,2" d="M483.78,-234.67C501.65,-224.33 525.99,-210.25 545.72,-198.83"/>
<polygon fill="black" stroke="black" points="547.52,-201.83 554.42,-193.8 544.01,-195.78 547.52,-201.83"/>
</g>
<!-- 7 -->
<g id="node8" class="node">
<title>7</title>
<ellipse fill="none" stroke="black" cx="291" cy="-466" rx="55.79" ry="18"/>
<text text-anchor="middle" x="291" y="-462.3" font-family="Times,serif" font-size="14.00">V1897 (a)</text>
</g>
<!-- 7&#45;&gt;5 -->
<g id="edge5" class="edge">
<title>7&#45;&gt;5</title>
<path fill="none" stroke="black" stroke-dasharray="1,5" d="M278.91,-448.41C272.69,-439.87 264.97,-429.28 258.06,-419.79"/>
<polygon fill="black" stroke="black" points="260.72,-417.49 252,-411.47 255.06,-421.61 260.72,-417.49"/>
</g>
<!-- 42 -->
<g id="node38" class="node">
<title>42</title>
<ellipse fill="none" stroke="black" cx="342" cy="-394" rx="42.79" ry="18"/>
<text text-anchor="middle" x="342" y="-390.3" font-family="Times,serif" font-size="14.00">Bas (a)</text>
</g>
<!-- 7&#45;&gt;42 -->
<g id="edge36" class="edge">
<title>7&#45;&gt;42</title>
<path fill="none" stroke="black" d="M303.09,-448.41C309.31,-439.87 317.03,-429.28 323.94,-419.79"/>
<polygon fill="black" stroke="black" points="326.94,-421.61 330,-411.47 321.28,-417.49 326.94,-421.61"/>
</g>
<!-- 13 -->
<g id="node13" class="node">
<title>13</title>
<ellipse fill="none" stroke="black" cx="338" cy="-106" rx="46.29" ry="18"/>
<text text-anchor="middle" x="338" y="-102.3" font-family="Times,serif" font-size="14.00">Mon (a)</text>
</g>
<!-- 8&#45;&gt;13 -->
<g id="edge11" class="edge">
<title>8&#45;&gt;13</title>
<path fill="none" stroke="black" stroke-dasharray="1,5" d="M338,-159.7C338,-151.98 338,-142.71 338,-134.11"/>
<polygon fill="black" stroke="black" points="341.5,-134.1 338,-124.1 334.5,-134.1 341.5,-134.1"/>
</g>
<!-- 9 -->
<g id="node10" class="node">
<title>9</title>
<ellipse fill="none" stroke="black" cx="2195" cy="-394" rx="44.39" ry="18"/>
<text text-anchor="middle" x="2195" y="-390.3" font-family="Times,serif" font-size="14.00">B39 (a)</text>
</g>
<!-- 11 -->
<g id="node12" class="node">
<title>11</title>
<ellipse fill="none" stroke="black" cx="776" cy="-539" rx="53.89" ry="18"/>
<text text-anchor="middle" x="776" y="-535.3" font-family="Times,serif" font-size="14.00">aBase (a)</text>
</g>
<!-- 11&#45;&gt;7 -->
<g id="edge7" class="edge">
<title>11&#45;&gt;7</title>
<path fill="none" stroke="black" d="M724.59,-533.53C645.08,-526.13 487.71,-509.58 356,-484 351.31,-483.09 346.45,-482.03 341.61,-480.9"/>
<polygon fill="black" stroke="black" points="342.28,-477.46 331.73,-478.5 340.62,-484.27 342.28,-477.46"/>
</g>
<!-- 16 -->
<g id="node15" class="node">
<title>16</title>
<ellipse fill="none" stroke="black" cx="418" cy="-466" rx="52.79" ry="18"/>
<text text-anchor="middle" x="418" y="-462.3" font-family="Times,serif" font-size="14.00">M136 (a)</text>
</g>
<!-- 11&#45;&gt;16 -->
<g id="edge13" class="edge">
<title>11&#45;&gt;16</title>
<path fill="none" stroke="black" stroke-width="2" d="M728.06,-530.57C669.3,-521.17 566.84,-503.79 480,-484 475.66,-483.01 471.17,-481.92 466.67,-480.78"/>
<polygon fill="black" stroke="black" stroke-width="2" points="467.46,-477.36 456.9,-478.22 465.69,-484.14 467.46,-477.36"/>
</g>
<!-- 17 -->
<g id="node16" class="node">
<title>17</title>
<ellipse fill="none" stroke="black" cx="539" cy="-466" rx="50.09" ry="18"/>
<text text-anchor="middle" x="539" y="-462.3" font-family="Times,serif" font-size="14.00">Neap (a)</text>
</g>
<!-- 11&#45;&gt;17 -->
<g id="edge14" class="edge">
<title>11&#45;&gt;17</title>
<path fill="none" stroke="black" stroke-width="2" d="M737.13,-526.36C695.74,-513.96 630.23,-494.33 585.98,-481.08"/>
<polygon fill="black" stroke="black" stroke-width="2" points="586.91,-477.7 576.33,-478.18 584.9,-484.41 586.91,-477.7"/>
</g>
<!-- 19 -->
<g id="node18" class="node">
<title>19</title>
<ellipse fill="none" stroke="black" cx="650" cy="-466" rx="42.79" ry="18"/>
<text text-anchor="middle" x="650" y="-462.3" font-family="Times,serif" font-size="14.00">La2 (a)</text>
</g>
<!-- 11&#45;&gt;19 -->
<g id="edge16" class="edge">
<title>11&#45;&gt;19</title>
<path fill="none" stroke="black" stroke-width="2" d="M749.59,-523.12C730.35,-512.28 704.15,-497.51 683.45,-485.85"/>
<polygon fill="black" stroke="black" stroke-width="2" points="685.1,-482.76 674.67,-480.9 681.66,-488.86 685.1,-482.76"/>
</g>
<!-- 20 -->
<g id="node19" class="node">
<title>20</title>
<ellipse fill="none" stroke="black" cx="776" cy="-466" rx="64.99" ry="18"/>
<text text-anchor="middle" x="776" y="-462.3" font-family="Times,serif" font-size="14.00">Savile&#45;Η (a)</text>
</g>
<!-- 11&#45;&gt;20 -->
<g id="edge17" class="edge">
<title>11&#45;&gt;20</title>
<path fill="none" stroke="black" stroke-width="2" d="M776,-520.81C776,-512.79 776,-503.05 776,-494.07"/>
<polygon fill="black" stroke="black" stroke-width="2" points="779.5,-494.03 776,-484.03 772.5,-494.03 779.5,-494.03"/>
</g>
<!-- 22 -->
<g id="node21" class="node">
<title>22</title>
<ellipse fill="none" stroke="black" cx="903" cy="-466" rx="44.39" ry="18"/>
<text text-anchor="middle" x="903" y="-462.3" font-family="Times,serif" font-size="14.00">A25 (a)</text>
</g>
<!-- 11&#45;&gt;22 -->
<g id="edge19" class="edge">
<title>11&#45;&gt;22</title>
<path fill="none" stroke="black" stroke-dasharray="5,2" d="M802.62,-523.12C822.01,-512.28 848.42,-497.51 869.28,-485.85"/>
<polygon fill="black" stroke="black" points="871.12,-488.83 878.14,-480.9 867.7,-482.72 871.12,-488.83"/>
</g>
<!-- 26 -->
<g id="node24" class="node">
<title>26</title>
<ellipse fill="none" stroke="black" cx="1489" cy="-466" rx="48.99" ry="18"/>
<text text-anchor="middle" x="1489" y="-462.3" font-family="Times,serif" font-size="14.00">La22 (a)</text>
</g>
<!-- 11&#45;&gt;26 -->
<g id="edge22" class="edge">
<title>11&#45;&gt;26</title>
<path fill="none" stroke="black" stroke-dasharray="5,2" d="M826.99,-532.92C956.37,-520.04 1296.72,-486.15 1432.19,-472.66"/>
<polygon fill="black" stroke="black" points="1432.75,-476.12 1442.35,-471.65 1432.05,-469.15 1432.75,-476.12"/>
</g>
<!-- 36 -->
<g id="node33" class="node">
<title>36</title>
<ellipse fill="none" stroke="black" cx="1836" cy="-466" rx="44.69" ry="18"/>
<text text-anchor="middle" x="1836" y="-462.3" font-family="Times,serif" font-size="14.00">Nan (a)</text>
</g>
<!-- 11&#45;&gt;36 -->
<g id="edge31" class="edge">
<title>11&#45;&gt;36</title>
<path fill="none" stroke="black" d="M828.57,-534.48C1008.67,-522.42 1599.78,-482.82 1782.02,-470.62"/>
<polygon fill="black" stroke="black" points="1782.42,-474.1 1792.16,-469.94 1781.95,-467.11 1782.42,-474.1"/>
</g>
<!-- 39 -->
<g id="node36" class="node">
<title>39</title>
<ellipse fill="none" stroke="black" cx="2068" cy="-466" rx="52.79" ry="18"/>
<text text-anchor="middle" x="2068" y="-462.3" font-family="Times,serif" font-size="14.00">LaSM (a)</text>
</g>
<!-- 11&#45;&gt;39 -->
<g id="edge34" class="edge">
<title>11&#45;&gt;39</title>
<path fill="none" stroke="black" d="M829.39,-536.3C989.96,-530.99 1482.49,-513.32 1890,-484 1929.43,-481.16 1973.67,-476.94 2008.18,-473.42"/>
<polygon fill="black" stroke="black" points="2008.97,-476.85 2018.56,-472.35 2008.26,-469.89 2008.97,-476.85"/>
</g>
<!-- 35 -->
<g id="node32" class="node">
<title>35</title>
<ellipse fill="none" stroke="black" cx="338" cy="-34" rx="40.89" ry="18"/>
<text text-anchor="middle" x="338" y="-30.3" font-family="Times,serif" font-size="14.00">Sin (a)</text>
</g>
<!-- 13&#45;&gt;35 -->
<g id="edge30" class="edge">
<title>13&#45;&gt;35</title>
<path fill="none" stroke="black" stroke-dasharray="1,5" d="M338,-87.7C338,-79.98 338,-70.71 338,-62.11"/>
<polygon fill="black" stroke="black" points="341.5,-62.1 338,-52.1 334.5,-62.1 341.5,-62.1"/>
</g>
<!-- 15 -->
<g id="node14" class="node">
<title>15</title>
<ellipse fill="none" stroke="black" cx="1365" cy="-394" rx="55.79" ry="18"/>
<text text-anchor="middle" x="1365" y="-390.3" font-family="Times,serif" font-size="14.00">V2036 (a)</text>
</g>
<!-- 23 -->
<g id="node22" class="node">
<title>23</title>
<ellipse fill="none" stroke="black" cx="459" cy="-394" rx="55.79" ry="18"/>
<text text-anchor="middle" x="459" y="-390.3" font-family="Times,serif" font-size="14.00">V1629 (a)</text>
</g>
<!-- 17&#45;&gt;23 -->
<g id="edge20" class="edge">
<title>17&#45;&gt;23</title>
<path fill="none" stroke="black" stroke-dasharray="1,5" d="M520.85,-449.12C510.28,-439.87 496.79,-428.07 485.1,-417.84"/>
<polygon fill="black" stroke="black" points="487.19,-415.01 477.36,-411.06 482.58,-420.28 487.19,-415.01"/>
</g>
<!-- 18 -->
<g id="node17" class="node">
<title>18</title>
<ellipse fill="none" stroke="black" cx="1489" cy="-394" rx="50.09" ry="18"/>
<text text-anchor="middle" x="1489" y="-390.3" font-family="Times,serif" font-size="14.00">V565 (a)</text>
</g>
<!-- 21 -->
<g id="node20" class="node">
<title>21</title>
<ellipse fill="none" stroke="black" cx="695" cy="-394" rx="44.39" ry="18"/>
<text text-anchor="middle" x="695" y="-390.3" font-family="Times,serif" font-size="14.00">P01 (a)</text>
</g>
<!-- 22&#45;&gt;1 -->
<g id="edge2" class="edge">
<title>22&#45;&gt;1</title>
<path fill="none" stroke="black" stroke-dasharray="1,5" d="M870.41,-453.76C863.71,-451.67 856.66,-449.64 850,-448 758.89,-425.62 733.43,-433.02 642,-412 637.97,-411.07 633.8,-410.04 629.64,-408.94"/>
<polygon fill="black" stroke="black" points="630.55,-405.56 619.98,-406.32 628.71,-412.32 630.55,-405.56"/>
</g>
<!-- 22&#45;&gt;21 -->
<g id="edge18" class="edge">
<title>22&#45;&gt;21</title>
<path fill="none" stroke="black" stroke-dasharray="5,2" d="M870.04,-453.91C834.24,-441.86 776.93,-422.57 737.71,-409.37"/>
<polygon fill="black" stroke="black" points="738.74,-406.03 728.15,-406.16 736.51,-412.66 738.74,-406.03"/>
</g>
<!-- 28 -->
<g id="node26" class="node">
<title>28</title>
<ellipse fill="none" stroke="black" cx="801" cy="-394" rx="44.39" ry="18"/>
<text text-anchor="middle" x="801" y="-390.3" font-family="Times,serif" font-size="14.00">S32 (a)</text>
</g>
<!-- 22&#45;&gt;28 -->
<g id="edge24" class="edge">
<title>22&#45;&gt;28</title>
<path fill="none" stroke="black" stroke-dasharray="5,2" d="M881.37,-450.15C866.76,-440.13 847.28,-426.76 831.16,-415.7"/>
<polygon fill="black" stroke="black" points="832.83,-412.6 822.6,-409.82 828.87,-418.37 832.83,-412.6"/>
</g>
<!-- 32 -->
<g id="node30" class="node">
<title>32</title>
<ellipse fill="none" stroke="black" cx="903" cy="-394" rx="40.09" ry="18"/>
<text text-anchor="middle" x="903" y="-390.3" font-family="Times,serif" font-size="14.00">Pal (a)</text>
</g>
<!-- 22&#45;&gt;32 -->
<g id="edge28" class="edge">
<title>22&#45;&gt;32</title>
<path fill="none" stroke="black" stroke-dasharray="5,2" d="M903,-447.7C903,-439.98 903,-430.71 903,-422.11"/>
<polygon fill="black" stroke="black" points="906.5,-422.1 903,-412.1 899.5,-422.1 906.5,-422.1"/>
</g>
<!-- 37 -->
<g id="node34" class="node">
<title>37</title>
<ellipse fill="none" stroke="black" cx="1011" cy="-394" rx="50.09" ry="18"/>
<text text-anchor="middle" x="1011" y="-390.3" font-family="Times,serif" font-size="14.00">V566 (a)</text>
</g>
<!-- 22&#45;&gt;37 -->
<g id="edge32" class="edge">
<title>22&#45;&gt;37</title>
<path fill="none" stroke="black" stroke-dasharray="5,2" d="M925.64,-450.33C941.13,-440.29 961.88,-426.84 979.04,-415.71"/>
<polygon fill="black" stroke="black" points="981.16,-418.51 987.64,-410.14 977.35,-412.64 981.16,-418.51"/>
</g>
<!-- 33 -->
<g id="node31" class="node">
<title>33</title>
<ellipse fill="none" stroke="black" cx="459" cy="-322" rx="50.09" ry="18"/>
<text text-anchor="middle" x="459" y="-318.3" font-family="Times,serif" font-size="14.00">V568 (a)</text>
</g>
<!-- 23&#45;&gt;33 -->
<g id="edge29" class="edge">
<title>23&#45;&gt;33</title>
<path fill="none" stroke="black" stroke-dasharray="5,2" d="M459,-375.7C459,-367.98 459,-358.71 459,-350.11"/>
<polygon fill="black" stroke="black" points="462.5,-350.1 459,-340.1 455.5,-350.1 462.5,-350.1"/>
</g>
<!-- 25 -->
<g id="node23" class="node">
<title>25</title>
<ellipse fill="none" stroke="black" cx="1607" cy="-394" rx="50.09" ry="18"/>
<text text-anchor="middle" x="1607" y="-390.3" font-family="Times,serif" font-size="14.00">V571 (a)</text>
</g>
<!-- 26&#45;&gt;0 -->
<g id="edge1" class="edge">
<title>26&#45;&gt;0</title>
<path fill="none" stroke="black" stroke-dasharray="1,5" d="M1444.77,-458.33C1386.85,-449.29 1282.31,-432 1194,-412 1189.66,-411.02 1185.16,-409.93 1180.67,-408.79"/>
<polygon fill="black" stroke="black" points="1181.45,-405.38 1170.89,-406.24 1179.69,-412.15 1181.45,-405.38"/>
</g>
<!-- 26&#45;&gt;4 -->
<g id="edge4" class="edge">
<title>26&#45;&gt;4</title>
<path fill="none" stroke="black" stroke-dasharray="1,5" d="M1450.87,-454.75C1412.61,-444.37 1352.06,-427.64 1300,-412 1296.71,-411.01 1293.31,-409.97 1289.89,-408.91"/>
<polygon fill="black" stroke="black" points="1290.89,-405.55 1280.3,-405.89 1288.79,-412.23 1290.89,-405.55"/>
</g>
<!-- 26&#45;&gt;15 -->
<g id="edge12" class="edge">
<title>26&#45;&gt;15</title>
<path fill="none" stroke="black" stroke-dasharray="5,2" d="M1463.31,-450.5C1445.1,-440.22 1420.44,-426.3 1400.37,-414.97"/>
<polygon fill="black" stroke="black" points="1401.94,-411.84 1391.52,-409.97 1398.5,-417.93 1401.94,-411.84"/>
</g>
<!-- 26&#45;&gt;18 -->
<g id="edge15" class="edge">
<title>26&#45;&gt;18</title>
<path fill="none" stroke="black" stroke-dasharray="5,2" d="M1489,-447.7C1489,-439.98 1489,-430.71 1489,-422.11"/>
<polygon fill="black" stroke="black" points="1492.5,-422.1 1489,-412.1 1485.5,-422.1 1492.5,-422.1"/>
</g>
<!-- 26&#45;&gt;25 -->
<g id="edge21" class="edge">
<title>26&#45;&gt;25</title>
<path fill="none" stroke="black" stroke-dasharray="1,5" d="M1513.74,-450.33C1531.12,-440.01 1554.58,-426.1 1573.62,-414.8"/>
<polygon fill="black" stroke="black" points="1575.48,-417.77 1582.3,-409.65 1571.91,-411.75 1575.48,-417.77"/>
</g>
<!-- 27 -->
<g id="node25" class="node">
<title>27</title>
<ellipse fill="none" stroke="black" cx="1724" cy="-394" rx="48.99" ry="18"/>
<text text-anchor="middle" x="1724" y="-390.3" font-family="Times,serif" font-size="14.00">La35 (a)</text>
</g>
<!-- 26&#45;&gt;27 -->
<g id="edge23" class="edge">
<title>26&#45;&gt;27</title>
<path fill="none" stroke="black" stroke-dasharray="1,5" d="M1525.72,-454.06C1566.64,-441.87 1632.91,-422.13 1677.44,-408.87"/>
<polygon fill="black" stroke="black" points="1678.57,-412.19 1687.15,-405.98 1676.57,-405.48 1678.57,-412.19"/>
</g>
<!-- 38 -->
<g id="node35" class="node">
<title>38</title>
<ellipse fill="none" stroke="black" cx="1841" cy="-394" rx="50.09" ry="18"/>
<text text-anchor="middle" x="1841" y="-390.3" font-family="Times,serif" font-size="14.00">A116 (a)</text>
</g>
<!-- 26&#45;&gt;38 -->
<g id="edge33" class="edge">
<title>26&#45;&gt;38</title>
<path fill="none" stroke="black" stroke-dasharray="5,2" d="M1533.47,-458.4C1591.13,-449.51 1694.67,-432.42 1782,-412 1786.03,-411.06 1790.19,-410.01 1794.36,-408.91"/>
<polygon fill="black" stroke="black" points="1795.29,-412.29 1804.01,-406.28 1793.44,-405.53 1795.29,-412.29"/>
</g>
<!-- 41 -->
<g id="node37" class="node">
<title>41</title>
<ellipse fill="none" stroke="black" cx="1956" cy="-394" rx="46.59" ry="18"/>
<text text-anchor="middle" x="1956" y="-390.3" font-family="Times,serif" font-size="14.00">Bodl (a)</text>
</g>
<!-- 26&#45;&gt;41 -->
<g id="edge35" class="edge">
<title>26&#45;&gt;41</title>
<path fill="none" stroke="black" stroke-dasharray="5,2" d="M1536.28,-461.48C1613.18,-455.18 1769.87,-439.94 1900,-412 1903.91,-411.16 1907.94,-410.18 1911.97,-409.11"/>
<polygon fill="black" stroke="black" points="1913.19,-412.41 1921.88,-406.34 1911.31,-405.66 1913.19,-412.41"/>
</g>
<!-- 30 -->
<g id="node28" class="node">
<title>30</title>
<ellipse fill="none" stroke="black" cx="2077" cy="-394" rx="55.79" ry="18"/>
<text text-anchor="middle" x="2077" y="-390.3" font-family="Times,serif" font-size="14.00">V2250 (a)</text>
</g>
<!-- 31 -->
<g id="node29" class="node">
<title>31</title>
<ellipse fill="none" stroke="black" cx="1009" cy="-322" rx="55.79" ry="18"/>
<text text-anchor="middle" x="1009" y="-318.3" font-family="Times,serif" font-size="14.00">V1639 (a)</text>
</g>
<!-- 33&#45;&gt;6 -->
<g id="edge6" class="edge">
<title>33&#45;&gt;6</title>
<path fill="none" stroke="black" stroke-dasharray="1,5" d="M459,-303.7C459,-295.98 459,-286.71 459,-278.11"/>
<polygon fill="black" stroke="black" points="462.5,-278.1 459,-268.1 455.5,-278.1 462.5,-278.1"/>
</g>
<!-- 36&#45;&gt;30 -->
<g id="edge26" class="edge">
<title>36&#45;&gt;30</title>
<path fill="none" stroke="black" stroke-dasharray="5,2" d="M1871.3,-454.75C1912.35,-442.82 1980.4,-423.06 2026.91,-409.55"/>
<polygon fill="black" stroke="black" points="2028.15,-412.83 2036.78,-406.68 2026.2,-406.11 2028.15,-412.83"/>
</g>
<!-- 37&#45;&gt;31 -->
<g id="edge27" class="edge">
<title>37&#45;&gt;31</title>
<path fill="none" stroke="black" stroke-dasharray="1,5" d="M1010.51,-375.7C1010.29,-367.98 1010.02,-358.71 1009.77,-350.11"/>
<polygon fill="black" stroke="black" points="1013.27,-350 1009.49,-340.1 1006.28,-350.2 1013.27,-350"/>
</g>
<!-- 39&#45;&gt;9 -->
<g id="edge9" class="edge">
<title>39&#45;&gt;9</title>
<path fill="none" stroke="black" stroke-dasharray="5,2" d="M2094.62,-450.33C2113.88,-439.71 2140.07,-425.27 2160.87,-413.81"/>
<polygon fill="black" stroke="black" points="2162.64,-416.83 2169.71,-408.94 2159.26,-410.7 2162.64,-416.83"/>
</g>
</g>
</svg>
