<?xml version="1.0" encoding="UTF-8" standalone="no"?>
<!DOCTYPE svg PUBLIC "-//W3C//DTD SVG 1.1//EN"
 "http://www.w3.org/Graphics/SVG/1.1/DTD/svg11.dtd">
<!-- Generated by graphviz version 2.43.0 (0)
 -->
<!-- Title: textual_flow_diagram Pages: 1 -->
<svg width="1487pt" height="317pt"
 viewBox="0.00 0.00 1487.00 317.00" xmlns="http://www.w3.org/2000/svg" xmlns:xlink="http://www.w3.org/1999/xlink">
<g id="graph0" class="graph" transform="scale(1 1) rotate(0) translate(4 313)">
<title>textual_flow_diagram</title>
<polygon fill="white" stroke="transparent" points="-4,4 -4,-313 1483,-313 1483,4 -4,4"/>
<g id="clust1" class="cluster">
<title>cluster_legend</title>
<polygon fill="none" stroke="black" points="8,-247 8,-301 194,-301 194,-247 8,-247"/>
</g>
<g id="clust2" class="cluster">
<title>cluster_plot</title>
</g>
<!-- label -->
<g id="node1" class="node">
<title>label</title>
<text text-anchor="middle" x="101" y="-277.8" font-family="Times,serif" font-size="14.00">adstag1.3.55U4&#45;16, a</text>
<text text-anchor="middle" x="101" y="-262.8" font-family="Times,serif" font-size="14.00">Con = 5</text>
</g>
<!-- 0 -->
<g id="node2" class="node">
<title>0</title>
<ellipse fill="none" stroke="black" cx="436" cy="-190" rx="50.09" ry="18"/>
<text text-anchor="middle" x="436" y="-186.3" font-family="Times,serif" font-size="14.00">Neap (a)</text>
</g>
<!-- 19 -->
<g id="node16" class="node">
<title>19</title>
<ellipse fill="none" stroke="black" cx="266" cy="-117" rx="55.79" ry="18"/>
<text text-anchor="middle" x="266" y="-113.3" font-family="Times,serif" font-size="14.00">V1629 (a)</text>
</g>
<!-- 0&#45;&gt;19 -->
<g id="edge15" class="edge">
<title>0&#45;&gt;19</title>
<path fill="none" stroke="black" stroke-dasharray="1,5" d="M404.42,-175.81C377.3,-164.49 337.98,-148.06 308.17,-135.61"/>
<polygon fill="black" stroke="black" points="309.43,-132.35 298.86,-131.72 306.74,-138.81 309.43,-132.35"/>
</g>
<!-- 1 -->
<g id="node3" class="node">
<title>1</title>
<ellipse fill="none" stroke="black" cx="613" cy="-190" rx="50.09" ry="18"/>
<text text-anchor="middle" x="613" y="-186.3" font-family="Times,serif" font-size="14.00">Patm (a)</text>
</g>
<!-- 2 -->
<g id="node4" class="node">
<title>2</title>
<ellipse fill="none" stroke="black" cx="266" cy="-34" rx="50.09" ry="18"/>
<text text-anchor="middle" x="266" y="-30.3" font-family="Times,serif" font-size="14.00">V568 (a)</text>
</g>
<!-- 3 -->
<g id="node5" class="node">
<title>3</title>
<ellipse fill="none" stroke="black" cx="384" cy="-117" rx="44.39" ry="18"/>
<text text-anchor="middle" x="384" y="-113.3" font-family="Times,serif" font-size="14.00">P74 (a)</text>
</g>
<!-- 5 -->
<g id="node6" class="node">
<title>5</title>
<ellipse fill="none" stroke="black" cx="730" cy="-190" rx="48.99" ry="18"/>
<text text-anchor="middle" x="730" y="-186.3" font-family="Times,serif" font-size="14.00">La22 (a)</text>
</g>
<!-- 5&#45;&gt;3 -->
<g id="edge4" class="edge">
<title>5&#45;&gt;3</title>
<path fill="none" stroke="black" stroke-dasharray="1,5" d="M693.99,-177.66C686.75,-175.61 679.17,-173.61 672,-172 568.83,-148.86 539.87,-159.44 437,-135 433.56,-134.18 430.02,-133.25 426.47,-132.25"/>
<polygon fill="black" stroke="black" points="427.16,-128.81 416.57,-129.32 425.17,-135.52 427.16,-128.81"/>
</g>
<!-- 6 -->
<g id="node7" class="node">
<title>6</title>
<ellipse fill="none" stroke="black" cx="496" cy="-117" rx="50.09" ry="18"/>
<text text-anchor="middle" x="496" y="-113.3" font-family="Times,serif" font-size="14.00">V565 (a)</text>
</g>
<!-- 5&#45;&gt;6 -->
<g id="edge6" class="edge">
<title>5&#45;&gt;6</title>
<path fill="none" stroke="black" stroke-dasharray="5,2" d="M693.69,-177.98C653.12,-165.67 587.29,-145.7 542.86,-132.22"/>
<polygon fill="black" stroke="black" points="543.75,-128.83 533.16,-129.28 541.72,-135.53 543.75,-128.83"/>
</g>
<!-- 9 -->
<g id="node9" class="node">
<title>9</title>
<ellipse fill="none" stroke="black" cx="613" cy="-117" rx="48.99" ry="18"/>
<text text-anchor="middle" x="613" y="-113.3" font-family="Times,serif" font-size="14.00">La35 (a)</text>
</g>
<!-- 5&#45;&gt;9 -->
<g id="edge8" class="edge">
<title>5&#45;&gt;9</title>
<path fill="none" stroke="black" stroke-dasharray="1,5" d="M705.76,-174.29C688.42,-163.77 664.89,-149.49 645.87,-137.95"/>
<polygon fill="black" stroke="black" points="647.58,-134.89 637.21,-132.69 643.94,-140.87 647.58,-134.89"/>
</g>
<!-- 14 -->
<g id="node13" class="node">
<title>14</title>
<ellipse fill="none" stroke="black" cx="730" cy="-117" rx="50.09" ry="18"/>
<text text-anchor="middle" x="730" y="-113.3" font-family="Times,serif" font-size="14.00">V571 (a)</text>
</g>
<!-- 5&#45;&gt;14 -->
<g id="edge12" class="edge">
<title>5&#45;&gt;14</title>
<path fill="none" stroke="black" stroke-dasharray="1,5" d="M730,-171.81C730,-163.79 730,-154.05 730,-145.07"/>
<polygon fill="black" stroke="black" points="733.5,-145.03 730,-135.03 726.5,-145.03 733.5,-145.03"/>
</g>
<!-- 24 -->
<g id="node18" class="node">
<title>24</title>
<ellipse fill="none" stroke="black" cx="848" cy="-117" rx="50.09" ry="18"/>
<text text-anchor="middle" x="848" y="-113.3" font-family="Times,serif" font-size="14.00">A116 (a)</text>
</g>
<!-- 5&#45;&gt;24 -->
<g id="edge16" class="edge">
<title>5&#45;&gt;24</title>
<path fill="none" stroke="black" stroke-dasharray="5,2" d="M754.45,-174.29C771.82,-163.84 795.35,-149.68 814.47,-138.18"/>
<polygon fill="black" stroke="black" points="816.41,-141.09 823.18,-132.94 812.8,-135.09 816.41,-141.09"/>
</g>
<!-- 32 -->
<g id="node20" class="node">
<title>32</title>
<ellipse fill="none" stroke="black" cx="963" cy="-117" rx="46.59" ry="18"/>
<text text-anchor="middle" x="963" y="-113.3" font-family="Times,serif" font-size="14.00">Bodl (a)</text>
</g>
<!-- 5&#45;&gt;32 -->
<g id="edge18" class="edge">
<title>5&#45;&gt;32</title>
<path fill="none" stroke="black" stroke-dasharray="5,2" d="M766.41,-177.91C807.34,-165.43 873.84,-145.17 918,-131.71"/>
<polygon fill="black" stroke="black" points="919.07,-135.05 927.61,-128.78 917.03,-128.35 919.07,-135.05"/>
</g>
<!-- 37 -->
<g id="node22" class="node">
<title>37</title>
<ellipse fill="none" stroke="black" cx="1080" cy="-117" rx="52.79" ry="18"/>
<text text-anchor="middle" x="1080" y="-113.3" font-family="Times,serif" font-size="14.00">M111 (a)</text>
</g>
<!-- 5&#45;&gt;37 -->
<g id="edge20" class="edge">
<title>5&#45;&gt;37</title>
<path fill="none" stroke="black" stroke-dasharray="1,5" d="M766.01,-177.68C773.25,-175.62 780.84,-173.62 788,-172 889.42,-149.11 917.43,-157.21 1019,-135 1023.11,-134.1 1027.35,-133.09 1031.59,-132.02"/>
<polygon fill="black" stroke="black" points="1032.65,-135.37 1041.44,-129.45 1030.88,-128.59 1032.65,-135.37"/>
</g>
<!-- 8 -->
<g id="node8" class="node">
<title>8</title>
<ellipse fill="none" stroke="black" cx="1307" cy="-34" rx="55.79" ry="18"/>
<text text-anchor="middle" x="1307" y="-30.3" font-family="Times,serif" font-size="14.00">V1639 (a)</text>
</g>
<!-- 11 -->
<g id="node10" class="node">
<title>11</title>
<ellipse fill="none" stroke="black" cx="1195" cy="-117" rx="44.39" ry="18"/>
<text text-anchor="middle" x="1195" y="-113.3" font-family="Times,serif" font-size="14.00">S32 (a)</text>
</g>
<!-- 12 -->
<g id="node11" class="node">
<title>12</title>
<ellipse fill="none" stroke="black" cx="1307" cy="-117" rx="50.09" ry="18"/>
<text text-anchor="middle" x="1307" y="-113.3" font-family="Times,serif" font-size="14.00">V566 (a)</text>
</g>
<!-- 12&#45;&gt;8 -->
<g id="edge7" class="edge">
<title>12&#45;&gt;8</title>
<path fill="none" stroke="black" stroke-dasharray="1,5" d="M1307,-98.82C1307,-88.19 1307,-74.31 1307,-62.2"/>
<polygon fill="black" stroke="black" points="1310.5,-62.15 1307,-52.15 1303.5,-62.15 1310.5,-62.15"/>
</g>
<!-- 13 -->
<g id="node12" class="node">
<title>13</title>
<ellipse fill="none" stroke="black" cx="853" cy="-190" rx="55.79" ry="18"/>
<text text-anchor="middle" x="853" y="-186.3" font-family="Times,serif" font-size="14.00">V2036 (a)</text>
</g>
<!-- 16 -->
<g id="node14" class="node">
<title>16</title>
<ellipse fill="none" stroke="black" cx="980" cy="-190" rx="52.79" ry="18"/>
<text text-anchor="middle" x="980" y="-186.3" font-family="Times,serif" font-size="14.00">M136 (a)</text>
</g>
<!-- 17 -->
<g id="node15" class="node">
<title>17</title>
<ellipse fill="none" stroke="black" cx="1419" cy="-117" rx="44.39" ry="18"/>
<text text-anchor="middle" x="1419" y="-113.3" font-family="Times,serif" font-size="14.00">P01 (a)</text>
</g>
<!-- 19&#45;&gt;2 -->
<g id="edge3" class="edge">
<title>19&#45;&gt;2</title>
<path fill="none" stroke="black" stroke-dasharray="5,2" d="M266,-98.82C266,-88.19 266,-74.31 266,-62.2"/>
<polygon fill="black" stroke="black" points="269.5,-62.15 266,-52.15 262.5,-62.15 269.5,-62.15"/>
<text text-anchor="middle" x="269.5" y="-73" font-family="Times,serif" font-size="10.00">2</text>
</g>
<!-- 20 -->
<g id="node17" class="node">
<title>20</title>
<ellipse fill="none" stroke="black" cx="917" cy="-274" rx="53.89" ry="18"/>
<text text-anchor="middle" x="917" y="-270.3" font-family="Times,serif" font-size="14.00">aBase (a)</text>
</g>
<!-- 20&#45;&gt;0 -->
<g id="edge1" class="edge">
<title>20&#45;&gt;0</title>
<path fill="none" stroke="black" stroke-width="2" d="M870,-264.99C780.37,-249.71 585.46,-216.48 490.37,-200.27"/>
<polygon fill="black" stroke="black" stroke-width="2" points="490.83,-196.8 480.38,-198.57 489.65,-203.7 490.83,-196.8"/>
</g>
<!-- 20&#45;&gt;1 -->
<g id="edge2" class="edge">
<title>20&#45;&gt;1</title>
<path fill="none" stroke="black" d="M875.75,-262.34C826.99,-249.68 743.47,-227.77 672,-208 668.24,-206.96 664.34,-205.87 660.43,-204.76"/>
<polygon fill="black" stroke="black" points="661.31,-201.37 650.74,-202 659.4,-208.11 661.31,-201.37"/>
</g>
<!-- 20&#45;&gt;5 -->
<g id="edge5" class="edge">
<title>20&#45;&gt;5</title>
<path fill="none" stroke="black" stroke-dasharray="5,2" d="M885.7,-259.28C853.77,-245.27 804.12,-223.5 769.5,-208.32"/>
<polygon fill="black" stroke="black" points="770.73,-205.04 760.16,-204.23 767.91,-211.45 770.73,-205.04"/>
</g>
<!-- 20&#45;&gt;13 -->
<g id="edge11" class="edge">
<title>20&#45;&gt;13</title>
<path fill="none" stroke="black" d="M904.05,-256.41C894.94,-244.74 882.59,-228.92 872.33,-215.76"/>
<polygon fill="black" stroke="black" points="874.84,-213.3 865.93,-207.57 869.33,-217.61 874.84,-213.3"/>
</g>
<!-- 20&#45;&gt;16 -->
<g id="edge13" class="edge">
<title>20&#45;&gt;16</title>
<path fill="none" stroke="black" stroke-width="2" d="M929.75,-256.41C938.72,-244.74 950.87,-228.92 960.98,-215.76"/>
<polygon fill="black" stroke="black" stroke-width="2" points="963.95,-217.63 967.27,-207.57 958.4,-213.37 963.95,-217.63"/>
</g>
<!-- 27 -->
<g id="node19" class="node">
<title>27</title>
<ellipse fill="none" stroke="black" cx="1107" cy="-190" rx="55.79" ry="18"/>
<text text-anchor="middle" x="1107" y="-186.3" font-family="Times,serif" font-size="14.00">V2250 (a)</text>
</g>
<!-- 20&#45;&gt;27 -->
<g id="edge17" class="edge">
<title>20&#45;&gt;27</title>
<path fill="none" stroke="black" stroke-width="2" d="M948.8,-259.28C980.76,-245.48 1030.19,-224.15 1065.29,-209"/>
<polygon fill="black" stroke="black" stroke-width="2" points="1066.98,-212.08 1074.78,-204.91 1064.21,-205.66 1066.98,-212.08"/>
<text text-anchor="middle" x="1026.5" y="-229" font-family="Times,serif" font-size="10.00">3</text>
</g>
<!-- 33 -->
<g id="node21" class="node">
<title>33</title>
<ellipse fill="none" stroke="black" cx="1225" cy="-190" rx="44.39" ry="18"/>
<text text-anchor="middle" x="1225" y="-186.3" font-family="Times,serif" font-size="14.00">A25 (a)</text>
</g>
<!-- 20&#45;&gt;33 -->
<g id="edge19" class="edge">
<title>20&#45;&gt;33</title>
<path fill="none" stroke="black" stroke-dasharray="5,2" d="M960.08,-262.87C1010.95,-250.7 1098.02,-229.27 1172,-208 1175.3,-207.05 1178.71,-206.04 1182.14,-204.99"/>
<polygon fill="black" stroke="black" points="1183.22,-208.32 1191.73,-202.01 1181.14,-201.64 1183.22,-208.32"/>
</g>
<!-- 42 -->
<g id="node24" class="node">
<title>42</title>
<ellipse fill="none" stroke="black" cx="1337" cy="-190" rx="50.09" ry="18"/>
<text text-anchor="middle" x="1337" y="-186.3" font-family="Times,serif" font-size="14.00">S249 (a)</text>
</g>
<!-- 20&#45;&gt;42 -->
<g id="edge22" class="edge">
<title>20&#45;&gt;42</title>
<path fill="none" stroke="black" d="M965.5,-265.88C1035.1,-255.31 1167.15,-233.88 1278,-208 1282.03,-207.06 1286.19,-206.01 1290.36,-204.92"/>
<polygon fill="black" stroke="black" points="1291.29,-208.29 1300.01,-202.28 1289.45,-201.54 1291.29,-208.29"/>
</g>
<!-- 33&#45;&gt;11 -->
<g id="edge9" class="edge">
<title>33&#45;&gt;11</title>
<path fill="none" stroke="black" stroke-dasharray="5,2" d="M1217.89,-172.17C1214.39,-163.9 1210.09,-153.72 1206.17,-144.44"/>
<polygon fill="black" stroke="black" points="1209.38,-143.05 1202.27,-135.2 1202.94,-145.77 1209.38,-143.05"/>
</g>
<!-- 33&#45;&gt;12 -->
<g id="edge10" class="edge">
<title>33&#45;&gt;12</title>
<path fill="none" stroke="black" stroke-dasharray="5,2" d="M1243.2,-173.24C1254.27,-163.66 1268.59,-151.26 1280.86,-140.64"/>
<polygon fill="black" stroke="black" points="1283.3,-143.15 1288.57,-133.96 1278.72,-137.86 1283.3,-143.15"/>
</g>
<!-- 33&#45;&gt;17 -->
<g id="edge14" class="edge">
<title>33&#45;&gt;17</title>
<path fill="none" stroke="black" stroke-dasharray="5,2" d="M1257.04,-177.28C1289.99,-165.22 1341.46,-146.38 1377.51,-133.18"/>
<polygon fill="black" stroke="black" points="1379.05,-136.35 1387.24,-129.62 1376.65,-129.77 1379.05,-136.35"/>
</g>
<!-- 41 -->
<g id="node23" class="node">
<title>41</title>
<ellipse fill="none" stroke="black" cx="1080" cy="-34" rx="50.09" ry="18"/>
<text text-anchor="middle" x="1080" y="-30.3" font-family="Times,serif" font-size="14.00">A336 (a)</text>
</g>
<!-- 37&#45;&gt;41 -->
<g id="edge21" class="edge">
<title>37&#45;&gt;41</title>
<path fill="none" stroke="black" stroke-dasharray="5,2" d="M1080,-98.82C1080,-88.19 1080,-74.31 1080,-62.2"/>
<polygon fill="black" stroke="black" points="1083.5,-62.15 1080,-52.15 1076.5,-62.15 1083.5,-62.15"/>
</g>
</g>
</svg>
