<?xml version="1.0" encoding="UTF-8" standalone="no"?>
<!DOCTYPE svg PUBLIC "-//W3C//DTD SVG 1.1//EN"
 "http://www.w3.org/Graphics/SVG/1.1/DTD/svg11.dtd">
<!-- Generated by graphviz version 2.43.0 (0)
 -->
<!-- Title: textual_flow_diagram Pages: 1 -->
<svg width="1404pt" height="654pt"
 viewBox="0.00 0.00 1404.00 654.00" xmlns="http://www.w3.org/2000/svg" xmlns:xlink="http://www.w3.org/1999/xlink">
<g id="graph0" class="graph" transform="scale(1 1) rotate(0) translate(4 650)">
<title>textual_flow_diagram</title>
<polygon fill="white" stroke="transparent" points="-4,4 -4,-650 1400,-650 1400,4 -4,4"/>
<g id="clust1" class="cluster">
<title>cluster_legend</title>
<polygon fill="none" stroke="black" points="8,-584 8,-638 182,-638 182,-584 8,-584"/>
</g>
<g id="clust2" class="cluster">
<title>cluster_plot</title>
</g>
<!-- label -->
<g id="node1" class="node">
<title>label</title>
<text text-anchor="middle" x="95" y="-614.8" font-family="Times,serif" font-size="14.00">adstag1.2.40U16, a</text>
<text text-anchor="middle" x="95" y="-599.8" font-family="Times,serif" font-size="14.00">Con = 1</text>
</g>
<!-- 0 -->
<g id="node2" class="node">
<title>0</title>
<ellipse fill="none" stroke="black" cx="1330" cy="-394" rx="50.09" ry="18"/>
<text text-anchor="middle" x="1330" y="-390.3" font-family="Times,serif" font-size="14.00">V536 (a)</text>
</g>
<!-- 32 -->
<g id="node28" class="node">
<title>32</title>
<ellipse fill="none" stroke="black" cx="1276" cy="-322" rx="50.09" ry="18"/>
<text text-anchor="middle" x="1276" y="-318.3" font-family="Times,serif" font-size="14.00">V568 (a)</text>
</g>
<!-- 0&#45;&gt;32 -->
<g id="edge26" class="edge">
<title>0&#45;&gt;32</title>
<path fill="none" stroke="black" stroke-dasharray="1,5" d="M1317.2,-376.41C1310.54,-367.78 1302.28,-357.06 1294.9,-347.5"/>
<polygon fill="black" stroke="black" points="1297.58,-345.25 1288.71,-339.47 1292.04,-349.53 1297.58,-345.25"/>
</g>
<!-- 1 -->
<g id="node3" class="node">
<title>1</title>
<ellipse fill="none" stroke="black" cx="242" cy="-466" rx="44.39" ry="18"/>
<text text-anchor="middle" x="242" y="-462.3" font-family="Times,serif" font-size="14.00">B39 (a)</text>
</g>
<!-- 2 -->
<g id="node4" class="node">
<title>2</title>
<ellipse fill="none" stroke="black" cx="520" cy="-394" rx="44.39" ry="18"/>
<text text-anchor="middle" x="520" y="-390.3" font-family="Times,serif" font-size="14.00">P74 (a)</text>
</g>
<!-- 3 -->
<g id="node5" class="node">
<title>3</title>
<ellipse fill="none" stroke="black" cx="478" cy="-466" rx="44.39" ry="18"/>
<text text-anchor="middle" x="478" y="-462.3" font-family="Times,serif" font-size="14.00">S32 (a)</text>
</g>
<!-- 5 -->
<g id="node6" class="node">
<title>5</title>
<ellipse fill="none" stroke="black" cx="632" cy="-394" rx="50.09" ry="18"/>
<text text-anchor="middle" x="632" y="-390.3" font-family="Times,serif" font-size="14.00">V565 (a)</text>
</g>
<!-- 6 -->
<g id="node7" class="node">
<title>6</title>
<ellipse fill="none" stroke="black" cx="1049" cy="-466" rx="55.79" ry="18"/>
<text text-anchor="middle" x="1049" y="-462.3" font-family="Times,serif" font-size="14.00">V1897 (a)</text>
</g>
<!-- 13 -->
<g id="node14" class="node">
<title>13</title>
<ellipse fill="none" stroke="black" cx="1219" cy="-394" rx="42.79" ry="18"/>
<text text-anchor="middle" x="1219" y="-390.3" font-family="Times,serif" font-size="14.00">Bas (a)</text>
</g>
<!-- 6&#45;&gt;13 -->
<g id="edge13" class="edge">
<title>6&#45;&gt;13</title>
<path fill="none" stroke="black" d="M1082.18,-451.34C1110.22,-439.79 1150.43,-423.24 1180,-411.06"/>
<polygon fill="black" stroke="black" points="1181.68,-414.15 1189.59,-407.11 1179.01,-407.68 1181.68,-414.15"/>
</g>
<!-- 7 -->
<g id="node8" class="node">
<title>7</title>
<ellipse fill="none" stroke="black" cx="1105" cy="-322" rx="50.09" ry="18"/>
<text text-anchor="middle" x="1105" y="-318.3" font-family="Times,serif" font-size="14.00">A336 (a)</text>
</g>
<!-- 8 -->
<g id="node9" class="node">
<title>8</title>
<ellipse fill="none" stroke="black" cx="1316" cy="-466" rx="55.79" ry="18"/>
<text text-anchor="middle" x="1316" y="-462.3" font-family="Times,serif" font-size="14.00">V1629 (a)</text>
</g>
<!-- 8&#45;&gt;0 -->
<g id="edge1" class="edge">
<title>8&#45;&gt;0</title>
<path fill="none" stroke="black" stroke-dasharray="5,2" d="M1319.46,-447.7C1321,-439.98 1322.86,-430.71 1324.58,-422.11"/>
<polygon fill="black" stroke="black" points="1328.05,-422.6 1326.58,-412.1 1321.19,-421.22 1328.05,-422.6"/>
</g>
<!-- 9 -->
<g id="node10" class="node">
<title>9</title>
<ellipse fill="none" stroke="black" cx="297" cy="-538" rx="52.79" ry="18"/>
<text text-anchor="middle" x="297" y="-534.3" font-family="Times,serif" font-size="14.00">LaSM (a)</text>
</g>
<!-- 9&#45;&gt;1 -->
<g id="edge2" class="edge">
<title>9&#45;&gt;1</title>
<path fill="none" stroke="black" stroke-dasharray="5,2" d="M283.97,-520.41C277.18,-511.78 268.76,-501.06 261.25,-491.5"/>
<polygon fill="black" stroke="black" points="263.87,-489.17 254.94,-483.47 258.37,-493.5 263.87,-489.17"/>
</g>
<!-- 10 -->
<g id="node11" class="node">
<title>10</title>
<ellipse fill="none" stroke="black" cx="465" cy="-538" rx="52.79" ry="18"/>
<text text-anchor="middle" x="465" y="-534.3" font-family="Times,serif" font-size="14.00">M136 (a)</text>
</g>
<!-- 11 -->
<g id="node12" class="node">
<title>11</title>
<ellipse fill="none" stroke="black" cx="1097" cy="-106" rx="50.09" ry="18"/>
<text text-anchor="middle" x="1097" y="-102.3" font-family="Times,serif" font-size="14.00">Marc (a)</text>
</g>
<!-- 30 -->
<g id="node26" class="node">
<title>30</title>
<ellipse fill="none" stroke="black" cx="1097" cy="-34" rx="46.29" ry="18"/>
<text text-anchor="middle" x="1097" y="-30.3" font-family="Times,serif" font-size="14.00">Mon (a)</text>
</g>
<!-- 11&#45;&gt;30 -->
<g id="edge24" class="edge">
<title>11&#45;&gt;30</title>
<path fill="none" stroke="black" stroke-dasharray="1,5" d="M1097,-87.7C1097,-79.98 1097,-70.71 1097,-62.11"/>
<polygon fill="black" stroke="black" points="1100.5,-62.1 1097,-52.1 1093.5,-62.1 1100.5,-62.1"/>
</g>
<!-- 12 -->
<g id="node13" class="node">
<title>12</title>
<ellipse fill="none" stroke="black" cx="1097" cy="-178" rx="40.89" ry="18"/>
<text text-anchor="middle" x="1097" y="-174.3" font-family="Times,serif" font-size="14.00">Sin (a)</text>
</g>
<!-- 12&#45;&gt;11 -->
<g id="edge11" class="edge">
<title>12&#45;&gt;11</title>
<path fill="none" stroke="black" stroke-dasharray="1,5" d="M1097,-159.7C1097,-151.98 1097,-142.71 1097,-134.11"/>
<polygon fill="black" stroke="black" points="1100.5,-134.1 1097,-124.1 1093.5,-134.1 1100.5,-134.1"/>
</g>
<!-- 14 -->
<g id="node15" class="node">
<title>14</title>
<ellipse fill="none" stroke="black" cx="586" cy="-538" rx="50.09" ry="18"/>
<text text-anchor="middle" x="586" y="-534.3" font-family="Times,serif" font-size="14.00">V560 (a)</text>
</g>
<!-- 23 -->
<g id="node21" class="node">
<title>23</title>
<ellipse fill="none" stroke="black" cx="360" cy="-466" rx="55.79" ry="18"/>
<text text-anchor="middle" x="360" y="-462.3" font-family="Times,serif" font-size="14.00">V1920 (a)</text>
</g>
<!-- 14&#45;&gt;23 -->
<g id="edge20" class="edge">
<title>14&#45;&gt;23</title>
<path fill="none" stroke="black" stroke-dasharray="5,2" d="M549.44,-525.68C511.16,-513.82 450.84,-495.14 408.58,-482.05"/>
<polygon fill="black" stroke="black" points="409.37,-478.63 398.78,-479.01 407.3,-485.31 409.37,-478.63"/>
</g>
<!-- 15 -->
<g id="node16" class="node">
<title>15</title>
<ellipse fill="none" stroke="black" cx="590" cy="-466" rx="50.09" ry="18"/>
<text text-anchor="middle" x="590" y="-462.3" font-family="Times,serif" font-size="14.00">V566 (a)</text>
</g>
<!-- 33 -->
<g id="node29" class="node">
<title>33</title>
<ellipse fill="none" stroke="black" cx="254" cy="-394" rx="55.79" ry="18"/>
<text text-anchor="middle" x="254" y="-390.3" font-family="Times,serif" font-size="14.00">V1639 (a)</text>
</g>
<!-- 15&#45;&gt;33 -->
<g id="edge27" class="edge">
<title>15&#45;&gt;33</title>
<path fill="none" stroke="black" stroke-dasharray="1,5" d="M553.03,-453.66C545.76,-451.63 538.17,-449.64 531,-448 437.82,-426.74 412.43,-432.11 319,-412 314.4,-411.01 309.63,-409.91 304.86,-408.76"/>
<polygon fill="black" stroke="black" points="305.68,-405.35 295.13,-406.34 303.99,-412.15 305.68,-405.35"/>
</g>
<!-- 17 -->
<g id="node17" class="node">
<title>17</title>
<ellipse fill="none" stroke="black" cx="749" cy="-394" rx="48.99" ry="18"/>
<text text-anchor="middle" x="749" y="-390.3" font-family="Times,serif" font-size="14.00">La35 (a)</text>
</g>
<!-- 18 -->
<g id="node18" class="node">
<title>18</title>
<ellipse fill="none" stroke="black" cx="866" cy="-394" rx="50.09" ry="18"/>
<text text-anchor="middle" x="866" y="-390.3" font-family="Times,serif" font-size="14.00">V571 (a)</text>
</g>
<!-- 20 -->
<g id="node19" class="node">
<title>20</title>
<ellipse fill="none" stroke="black" cx="698" cy="-466" rx="40.09" ry="18"/>
<text text-anchor="middle" x="698" y="-462.3" font-family="Times,serif" font-size="14.00">Pal (a)</text>
</g>
<!-- 34 -->
<g id="node30" class="node">
<title>34</title>
<ellipse fill="none" stroke="black" cx="393" cy="-394" rx="64.99" ry="18"/>
<text text-anchor="middle" x="393" y="-390.3" font-family="Times,serif" font-size="14.00">Savile&#45;Η (a)</text>
</g>
<!-- 20&#45;&gt;34 -->
<g id="edge28" class="edge">
<title>20&#45;&gt;34</title>
<path fill="none" stroke="black" d="M668.15,-453.91C661.87,-451.78 655.26,-449.7 649,-448 569.41,-426.43 547.64,-429.23 467,-412 461.76,-410.88 456.32,-409.69 450.88,-408.48"/>
<polygon fill="black" stroke="black" points="451.64,-405.06 441.12,-406.28 450.11,-411.89 451.64,-405.06"/>
</g>
<!-- 21 -->
<g id="node20" class="node">
<title>21</title>
<ellipse fill="none" stroke="black" cx="984" cy="-394" rx="50.09" ry="18"/>
<text text-anchor="middle" x="984" y="-390.3" font-family="Times,serif" font-size="14.00">A116 (a)</text>
</g>
<!-- 24 -->
<g id="node22" class="node">
<title>24</title>
<ellipse fill="none" stroke="black" cx="1206" cy="-178" rx="50.09" ry="18"/>
<text text-anchor="middle" x="1206" y="-174.3" font-family="Times,serif" font-size="14.00">V569 (a)</text>
</g>
<!-- 25 -->
<g id="node23" class="node">
<title>25</title>
<ellipse fill="none" stroke="black" cx="698" cy="-538" rx="44.39" ry="18"/>
<text text-anchor="middle" x="698" y="-534.3" font-family="Times,serif" font-size="14.00">A25 (a)</text>
</g>
<!-- 25&#45;&gt;3 -->
<g id="edge4" class="edge">
<title>25&#45;&gt;3</title>
<path fill="none" stroke="black" stroke-dasharray="5,2" d="M664.36,-526.19C657.94,-524.13 651.26,-521.99 645,-520 594.37,-503.89 581.63,-500.11 531,-484 527.87,-483 524.64,-481.97 521.38,-480.93"/>
<polygon fill="black" stroke="black" points="522.23,-477.53 511.64,-477.81 520.1,-484.2 522.23,-477.53"/>
</g>
<!-- 25&#45;&gt;15 -->
<g id="edge15" class="edge">
<title>25&#45;&gt;15</title>
<path fill="none" stroke="black" stroke-dasharray="5,2" d="M675.36,-522.33C659.87,-512.29 639.12,-498.84 621.96,-487.71"/>
<polygon fill="black" stroke="black" points="623.65,-484.64 613.36,-482.14 619.84,-490.51 623.65,-484.64"/>
</g>
<!-- 25&#45;&gt;20 -->
<g id="edge18" class="edge">
<title>25&#45;&gt;20</title>
<path fill="none" stroke="black" stroke-dasharray="5,2" d="M698,-519.7C698,-511.98 698,-502.71 698,-494.11"/>
<polygon fill="black" stroke="black" points="701.5,-494.1 698,-484.1 694.5,-494.1 701.5,-494.1"/>
</g>
<!-- 31 -->
<g id="node27" class="node">
<title>31</title>
<ellipse fill="none" stroke="black" cx="800" cy="-466" rx="44.39" ry="18"/>
<text text-anchor="middle" x="800" y="-462.3" font-family="Times,serif" font-size="14.00">P01 (a)</text>
</g>
<!-- 25&#45;&gt;31 -->
<g id="edge25" class="edge">
<title>25&#45;&gt;31</title>
<path fill="none" stroke="black" stroke-dasharray="5,2" d="M719.63,-522.15C734.24,-512.13 753.72,-498.76 769.84,-487.7"/>
<polygon fill="black" stroke="black" points="772.13,-490.37 778.4,-481.82 768.17,-484.6 772.13,-490.37"/>
</g>
<!-- 41 -->
<g id="node36" class="node">
<title>41</title>
<ellipse fill="none" stroke="black" cx="911" cy="-466" rx="48.99" ry="18"/>
<text text-anchor="middle" x="911" y="-462.3" font-family="Times,serif" font-size="14.00">La22 (a)</text>
</g>
<!-- 25&#45;&gt;41 -->
<g id="edge34" class="edge">
<title>25&#45;&gt;41</title>
<path fill="none" stroke="black" stroke-dasharray="1,5" d="M731.28,-526.06C767.6,-514.13 825.94,-494.95 866.25,-481.71"/>
<polygon fill="black" stroke="black" points="867.42,-485.01 875.83,-478.56 865.23,-478.36 867.42,-485.01"/>
</g>
<!-- 27 -->
<g id="node24" class="node">
<title>27</title>
<ellipse fill="none" stroke="black" cx="1327" cy="-178" rx="52.79" ry="18"/>
<text text-anchor="middle" x="1327" y="-174.3" font-family="Times,serif" font-size="14.00">M118 (a)</text>
</g>
<!-- 28 -->
<g id="node25" class="node">
<title>28</title>
<ellipse fill="none" stroke="black" cx="698" cy="-611" rx="53.89" ry="18"/>
<text text-anchor="middle" x="698" y="-607.3" font-family="Times,serif" font-size="14.00">aBase (a)</text>
</g>
<!-- 28&#45;&gt;9 -->
<g id="edge9" class="edge">
<title>28&#45;&gt;9</title>
<path fill="none" stroke="black" d="M651.61,-601.79C577.37,-588.64 432.15,-562.93 352.51,-548.83"/>
<polygon fill="black" stroke="black" points="353.12,-545.38 342.67,-547.09 351.9,-552.28 353.12,-545.38"/>
</g>
<!-- 28&#45;&gt;10 -->
<g id="edge10" class="edge">
<title>28&#45;&gt;10</title>
<path fill="none" stroke="black" stroke-width="2" d="M659.52,-598.28C619.35,-586.03 556.28,-566.81 512.9,-553.6"/>
<polygon fill="black" stroke="black" stroke-width="2" points="513.73,-550.19 503.15,-550.62 511.69,-556.89 513.73,-550.19"/>
</g>
<!-- 28&#45;&gt;14 -->
<g id="edge14" class="edge">
<title>28&#45;&gt;14</title>
<path fill="none" stroke="black" stroke-width="2" d="M673.97,-594.77C657.77,-584.5 636.2,-570.82 618.47,-559.59"/>
<polygon fill="black" stroke="black" stroke-width="2" points="619.92,-556.36 609.6,-553.96 616.17,-562.27 619.92,-556.36"/>
</g>
<!-- 28&#45;&gt;25 -->
<g id="edge22" class="edge">
<title>28&#45;&gt;25</title>
<path fill="none" stroke="black" stroke-dasharray="5,2" d="M698,-592.81C698,-584.79 698,-575.05 698,-566.07"/>
<polygon fill="black" stroke="black" points="701.5,-566.03 698,-556.03 694.5,-566.03 701.5,-566.03"/>
</g>
<!-- 36 -->
<g id="node31" class="node">
<title>36</title>
<ellipse fill="none" stroke="black" cx="803" cy="-538" rx="42.79" ry="18"/>
<text text-anchor="middle" x="803" y="-534.3" font-family="Times,serif" font-size="14.00">La2 (a)</text>
</g>
<!-- 28&#45;&gt;36 -->
<g id="edge29" class="edge">
<title>28&#45;&gt;36</title>
<path fill="none" stroke="black" stroke-width="2" d="M720.78,-594.59C736.09,-584.24 756.42,-570.5 773.03,-559.26"/>
<polygon fill="black" stroke="black" stroke-width="2" points="775.01,-562.15 781.34,-553.65 771.09,-556.35 775.01,-562.15"/>
</g>
<!-- 37 -->
<g id="node32" class="node">
<title>37</title>
<ellipse fill="none" stroke="black" cx="1049" cy="-538" rx="44.69" ry="18"/>
<text text-anchor="middle" x="1049" y="-534.3" font-family="Times,serif" font-size="14.00">Nan (a)</text>
</g>
<!-- 28&#45;&gt;37 -->
<g id="edge30" class="edge">
<title>28&#45;&gt;37</title>
<path fill="none" stroke="black" d="M742.81,-600.94C808.73,-587.6 931.41,-562.79 999.77,-548.96"/>
<polygon fill="black" stroke="black" points="1000.74,-552.33 1009.85,-546.92 999.36,-545.47 1000.74,-552.33"/>
</g>
<!-- 40 -->
<g id="node35" class="node">
<title>40</title>
<ellipse fill="none" stroke="black" cx="1235" cy="-538" rx="50.09" ry="18"/>
<text text-anchor="middle" x="1235" y="-534.3" font-family="Times,serif" font-size="14.00">Neap (a)</text>
</g>
<!-- 28&#45;&gt;40 -->
<g id="edge33" class="edge">
<title>28&#45;&gt;40</title>
<path fill="none" stroke="black" stroke-width="2" d="M747.08,-603.51C846.93,-590.31 1073.19,-560.39 1178.77,-546.43"/>
<polygon fill="black" stroke="black" stroke-width="2" points="1179.45,-549.87 1188.91,-545.09 1178.54,-542.93 1179.45,-549.87"/>
</g>
<!-- 38 -->
<g id="node33" class="node">
<title>38</title>
<ellipse fill="none" stroke="black" cx="1241" cy="-250" rx="46.59" ry="18"/>
<text text-anchor="middle" x="1241" y="-246.3" font-family="Times,serif" font-size="14.00">Taur (a)</text>
</g>
<!-- 32&#45;&gt;38 -->
<g id="edge31" class="edge">
<title>32&#45;&gt;38</title>
<path fill="none" stroke="black" stroke-dasharray="1,5" d="M1267.53,-304.05C1263.44,-295.89 1258.46,-285.91 1253.91,-276.82"/>
<polygon fill="black" stroke="black" points="1257,-275.17 1249.39,-267.79 1250.74,-278.3 1257,-275.17"/>
</g>
<!-- 37&#45;&gt;6 -->
<g id="edge6" class="edge">
<title>37&#45;&gt;6</title>
<path fill="none" stroke="black" stroke-dasharray="1,5" d="M1049,-519.7C1049,-511.98 1049,-502.71 1049,-494.11"/>
<polygon fill="black" stroke="black" points="1052.5,-494.1 1049,-484.1 1045.5,-494.1 1052.5,-494.1"/>
</g>
<!-- 39 -->
<g id="node34" class="node">
<title>39</title>
<ellipse fill="none" stroke="black" cx="1179" cy="-466" rx="55.79" ry="18"/>
<text text-anchor="middle" x="1179" y="-462.3" font-family="Times,serif" font-size="14.00">V2250 (a)</text>
</g>
<!-- 37&#45;&gt;39 -->
<g id="edge32" class="edge">
<title>37&#45;&gt;39</title>
<path fill="none" stroke="black" stroke-dasharray="5,2" d="M1074.68,-523.17C1094.11,-512.71 1121.03,-498.21 1142.67,-486.56"/>
<polygon fill="black" stroke="black" points="1144.43,-489.59 1151.57,-481.77 1141.11,-483.43 1144.43,-489.59"/>
</g>
<!-- 38&#45;&gt;12 -->
<g id="edge12" class="edge">
<title>38&#45;&gt;12</title>
<path fill="none" stroke="black" stroke-dasharray="1,5" d="M1213.24,-235.5C1190.33,-224.37 1157.69,-208.5 1132.82,-196.41"/>
<polygon fill="black" stroke="black" points="1134.23,-193.21 1123.71,-191.98 1131.17,-199.5 1134.23,-193.21"/>
</g>
<!-- 38&#45;&gt;24 -->
<g id="edge21" class="edge">
<title>38&#45;&gt;24</title>
<path fill="none" stroke="black" stroke-dasharray="5,2" d="M1232.53,-232.05C1228.44,-223.89 1223.46,-213.91 1218.91,-204.82"/>
<polygon fill="black" stroke="black" points="1222,-203.17 1214.39,-195.79 1215.74,-206.3 1222,-203.17"/>
</g>
<!-- 38&#45;&gt;27 -->
<g id="edge23" class="edge">
<title>38&#45;&gt;27</title>
<path fill="none" stroke="black" stroke-dasharray="5,2" d="M1260.09,-233.46C1271.61,-224.08 1286.51,-211.96 1299.31,-201.54"/>
<polygon fill="black" stroke="black" points="1301.82,-204 1307.37,-194.98 1297.41,-198.58 1301.82,-204"/>
</g>
<!-- 40&#45;&gt;8 -->
<g id="edge8" class="edge">
<title>40&#45;&gt;8</title>
<path fill="none" stroke="black" stroke-dasharray="1,5" d="M1253.38,-521.12C1264.07,-511.87 1277.74,-500.07 1289.57,-489.84"/>
<polygon fill="black" stroke="black" points="1292.13,-492.25 1297.41,-483.06 1287.56,-486.95 1292.13,-492.25"/>
</g>
<!-- 41&#45;&gt;2 -->
<g id="edge3" class="edge">
<title>41&#45;&gt;2</title>
<path fill="none" stroke="black" stroke-dasharray="1,5" d="M875.33,-453.59C868,-451.52 860.29,-449.53 853,-448 730.2,-422.28 695.47,-439.27 573,-412 569.39,-411.2 565.68,-410.25 561.97,-409.23"/>
<polygon fill="black" stroke="black" points="562.84,-405.84 552.26,-406.38 560.87,-412.55 562.84,-405.84"/>
</g>
<!-- 41&#45;&gt;5 -->
<g id="edge5" class="edge">
<title>41&#45;&gt;5</title>
<path fill="none" stroke="black" stroke-dasharray="5,2" d="M874.59,-453.93C867.46,-451.87 860.01,-449.8 853,-448 781.57,-429.62 762.47,-430.22 691,-412 687.16,-411.02 683.19,-409.97 679.21,-408.88"/>
<polygon fill="black" stroke="black" points="679.93,-405.45 669.36,-406.14 678.05,-412.19 679.93,-405.45"/>
</g>
<!-- 41&#45;&gt;17 -->
<g id="edge16" class="edge">
<title>41&#45;&gt;17</title>
<path fill="none" stroke="black" stroke-dasharray="1,5" d="M880.53,-451.83C854.51,-440.59 816.9,-424.34 788.56,-412.09"/>
<polygon fill="black" stroke="black" points="789.9,-408.86 779.33,-408.11 787.13,-415.29 789.9,-408.86"/>
</g>
<!-- 41&#45;&gt;18 -->
<g id="edge17" class="edge">
<title>41&#45;&gt;18</title>
<path fill="none" stroke="black" stroke-dasharray="1,5" d="M900.34,-448.41C894.98,-440.08 888.37,-429.8 882.39,-420.49"/>
<polygon fill="black" stroke="black" points="885.25,-418.48 876.9,-411.96 879.36,-422.26 885.25,-418.48"/>
</g>
<!-- 41&#45;&gt;21 -->
<g id="edge19" class="edge">
<title>41&#45;&gt;21</title>
<path fill="none" stroke="black" stroke-dasharray="5,2" d="M927.93,-448.76C937.42,-439.66 949.42,-428.16 959.87,-418.13"/>
<polygon fill="black" stroke="black" points="962.37,-420.59 967.16,-411.15 957.52,-415.54 962.37,-420.59"/>
</g>
<!-- 42 -->
<g id="node37" class="node">
<title>42</title>
<ellipse fill="none" stroke="black" cx="1105" cy="-394" rx="52.79" ry="18"/>
<text text-anchor="middle" x="1105" y="-390.3" font-family="Times,serif" font-size="14.00">M111 (a)</text>
</g>
<!-- 41&#45;&gt;42 -->
<g id="edge35" class="edge">
<title>41&#45;&gt;42</title>
<path fill="none" stroke="black" stroke-dasharray="1,5" d="M944.79,-452.81C976.84,-441.24 1025.2,-423.79 1060.4,-411.09"/>
<polygon fill="black" stroke="black" points="1061.74,-414.33 1069.96,-407.64 1059.37,-407.75 1061.74,-414.33"/>
</g>
<!-- 42&#45;&gt;7 -->
<g id="edge7" class="edge">
<title>42&#45;&gt;7</title>
<path fill="none" stroke="black" stroke-dasharray="5,2" d="M1105,-375.7C1105,-367.98 1105,-358.71 1105,-350.11"/>
<polygon fill="black" stroke="black" points="1108.5,-350.1 1105,-340.1 1101.5,-350.1 1108.5,-350.1"/>
</g>
</g>
</svg>
