<?xml version="1.0" encoding="UTF-8" standalone="no"?>
<!DOCTYPE svg PUBLIC "-//W3C//DTD SVG 1.1//EN"
 "http://www.w3.org/Graphics/SVG/1.1/DTD/svg11.dtd">
<!-- Generated by graphviz version 2.43.0 (0)
 -->
<!-- Title: textual_flow_diagram Pages: 1 -->
<svg width="1242pt" height="702pt"
 viewBox="0.00 0.00 1242.00 702.00" xmlns="http://www.w3.org/2000/svg" xmlns:xlink="http://www.w3.org/1999/xlink">
<g id="graph0" class="graph" transform="scale(1 1) rotate(0) translate(4 698)">
<title>textual_flow_diagram</title>
<polygon fill="white" stroke="transparent" points="-4,4 -4,-698 1238,-698 1238,4 -4,4"/>
<g id="clust1" class="cluster">
<title>cluster_legend</title>
<polygon fill="none" stroke="black" points="8,-632 8,-686 172,-686 172,-632 8,-632"/>
</g>
<g id="clust2" class="cluster">
<title>cluster_plot</title>
</g>
<!-- label -->
<g id="node1" class="node">
<title>label</title>
<text text-anchor="middle" x="90" y="-662.8" font-family="Times,serif" font-size="14.00">adstag1.1.8U88, a</text>
<text text-anchor="middle" x="90" y="-647.8" font-family="Times,serif" font-size="14.00">Con = 5</text>
</g>
<!-- 0 -->
<g id="node2" class="node">
<title>0</title>
<ellipse fill="none" stroke="black" cx="914" cy="-326" rx="50.09" ry="18"/>
<text text-anchor="middle" x="914" y="-322.3" font-family="Times,serif" font-size="14.00">V568 (a)</text>
</g>
<!-- 38 -->
<g id="node28" class="node">
<title>38</title>
<ellipse fill="none" stroke="black" cx="914" cy="-253" rx="46.59" ry="18"/>
<text text-anchor="middle" x="914" y="-249.3" font-family="Times,serif" font-size="14.00">Taur (a)</text>
</g>
<!-- 0&#45;&gt;38 -->
<g id="edge26" class="edge">
<title>0&#45;&gt;38</title>
<path fill="none" stroke="black" stroke-dasharray="1,5" d="M914,-307.81C914,-299.79 914,-290.05 914,-281.07"/>
<polygon fill="black" stroke="black" points="917.5,-281.03 914,-271.03 910.5,-281.03 917.5,-281.03"/>
</g>
<!-- 5 -->
<g id="node3" class="node">
<title>5</title>
<ellipse fill="none" stroke="black" cx="238" cy="-492" rx="50.09" ry="18"/>
<text text-anchor="middle" x="238" y="-488.3" font-family="Times,serif" font-size="14.00">Patm (a)</text>
</g>
<!-- 21 -->
<g id="node15" class="node">
<title>21</title>
<ellipse fill="none" stroke="black" cx="241" cy="-409" rx="52.79" ry="18"/>
<text text-anchor="middle" x="241" y="-405.3" font-family="Times,serif" font-size="14.00">LaSM (a)</text>
</g>
<!-- 5&#45;&gt;21 -->
<g id="edge14" class="edge">
<title>5&#45;&gt;21</title>
<path fill="none" stroke="black" stroke-dasharray="5,2" d="M238.64,-473.82C239.03,-463.19 239.54,-449.31 239.99,-437.2"/>
<polygon fill="black" stroke="black" points="243.49,-437.28 240.36,-427.15 236.5,-437.02 243.49,-437.28"/>
</g>
<!-- 6 -->
<g id="node4" class="node">
<title>6</title>
<ellipse fill="none" stroke="black" cx="421" cy="-409" rx="48.99" ry="18"/>
<text text-anchor="middle" x="421" y="-405.3" font-family="Times,serif" font-size="14.00">La35 (a)</text>
</g>
<!-- 12 -->
<g id="node9" class="node">
<title>12</title>
<ellipse fill="none" stroke="black" cx="387" cy="-326" rx="50.09" ry="18"/>
<text text-anchor="middle" x="387" y="-322.3" font-family="Times,serif" font-size="14.00">A116 (a)</text>
</g>
<!-- 6&#45;&gt;12 -->
<g id="edge8" class="edge">
<title>6&#45;&gt;12</title>
<path fill="none" stroke="black" stroke-dasharray="1,5" d="M413.79,-390.82C409.21,-379.9 403.18,-365.55 398.01,-353.22"/>
<polygon fill="black" stroke="black" points="401.18,-351.74 394.08,-343.88 394.73,-354.45 401.18,-351.74"/>
<text text-anchor="middle" x="409.5" y="-365" font-family="Times,serif" font-size="10.00">2</text>
</g>
<!-- 41 -->
<g id="node31" class="node">
<title>41</title>
<ellipse fill="none" stroke="black" cx="502" cy="-326" rx="46.59" ry="18"/>
<text text-anchor="middle" x="502" y="-322.3" font-family="Times,serif" font-size="14.00">Bodl (a)</text>
</g>
<!-- 6&#45;&gt;41 -->
<g id="edge29" class="edge">
<title>6&#45;&gt;41</title>
<path fill="none" stroke="black" stroke-dasharray="1,5" d="M437,-392C448.98,-380.02 465.55,-363.45 478.96,-350.04"/>
<polygon fill="black" stroke="black" points="481.43,-352.52 486.03,-342.97 476.48,-347.57 481.43,-352.52"/>
<text text-anchor="middle" x="469.5" y="-365" font-family="Times,serif" font-size="10.00">2</text>
</g>
<!-- 7 -->
<g id="node5" class="node">
<title>7</title>
<ellipse fill="none" stroke="black" cx="350" cy="-492" rx="44.39" ry="18"/>
<text text-anchor="middle" x="350" y="-488.3" font-family="Times,serif" font-size="14.00">S32 (a)</text>
</g>
<!-- 9 -->
<g id="node6" class="node">
<title>9</title>
<ellipse fill="none" stroke="black" cx="465" cy="-492" rx="52.79" ry="18"/>
<text text-anchor="middle" x="465" y="-488.3" font-family="Times,serif" font-size="14.00">M111 (a)</text>
</g>
<!-- 9&#45;&gt;6 -->
<g id="edge3" class="edge">
<title>9&#45;&gt;6</title>
<path fill="none" stroke="black" stroke-dasharray="1,5" d="M455.88,-474.22C449.87,-463.14 441.86,-448.41 435.04,-435.85"/>
<polygon fill="black" stroke="black" points="437.95,-433.88 430.11,-426.76 431.8,-437.22 437.95,-433.88"/>
<text text-anchor="middle" x="448.5" y="-448" font-family="Times,serif" font-size="10.00">2</text>
</g>
<!-- 29 -->
<g id="node20" class="node">
<title>29</title>
<ellipse fill="none" stroke="black" cx="538" cy="-409" rx="50.09" ry="18"/>
<text text-anchor="middle" x="538" y="-405.3" font-family="Times,serif" font-size="14.00">A336 (a)</text>
</g>
<!-- 9&#45;&gt;29 -->
<g id="edge19" class="edge">
<title>9&#45;&gt;29</title>
<path fill="none" stroke="black" stroke-dasharray="5,2" d="M479.77,-474.61C490.26,-462.97 504.51,-447.16 516.29,-434.09"/>
<polygon fill="black" stroke="black" points="519.15,-436.14 523.25,-426.37 513.95,-431.45 519.15,-436.14"/>
</g>
<!-- 10 -->
<g id="node7" class="node">
<title>10</title>
<ellipse fill="none" stroke="black" cx="914" cy="-409" rx="50.09" ry="18"/>
<text text-anchor="middle" x="914" y="-405.3" font-family="Times,serif" font-size="14.00">V536 (a)</text>
</g>
<!-- 10&#45;&gt;0 -->
<g id="edge1" class="edge">
<title>10&#45;&gt;0</title>
<path fill="none" stroke="black" stroke-dasharray="1,5" d="M914,-390.82C914,-380.19 914,-366.31 914,-354.2"/>
<polygon fill="black" stroke="black" points="917.5,-354.15 914,-344.15 910.5,-354.15 917.5,-354.15"/>
</g>
<!-- 11 -->
<g id="node8" class="node">
<title>11</title>
<ellipse fill="none" stroke="black" cx="449" cy="-575" rx="42.79" ry="18"/>
<text text-anchor="middle" x="449" y="-571.3" font-family="Times,serif" font-size="14.00">La2 (a)</text>
</g>
<!-- 14 -->
<g id="node10" class="node">
<title>14</title>
<ellipse fill="none" stroke="black" cx="576" cy="-492" rx="40.09" ry="18"/>
<text text-anchor="middle" x="576" y="-488.3" font-family="Times,serif" font-size="14.00">Pal (a)</text>
</g>
<!-- 15 -->
<g id="node11" class="node">
<title>15</title>
<ellipse fill="none" stroke="black" cx="1168" cy="-492" rx="50.09" ry="18"/>
<text text-anchor="middle" x="1168" y="-488.3" font-family="Times,serif" font-size="14.00">V571 (a)</text>
</g>
<!-- 16 -->
<g id="node12" class="node">
<title>16</title>
<ellipse fill="none" stroke="black" cx="805" cy="-180" rx="40.89" ry="18"/>
<text text-anchor="middle" x="805" y="-176.3" font-family="Times,serif" font-size="14.00">Sin (a)</text>
</g>
<!-- 31 -->
<g id="node22" class="node">
<title>31</title>
<ellipse fill="none" stroke="black" cx="805" cy="-107" rx="50.09" ry="18"/>
<text text-anchor="middle" x="805" y="-103.3" font-family="Times,serif" font-size="14.00">Marc (a)</text>
</g>
<!-- 16&#45;&gt;31 -->
<g id="edge21" class="edge">
<title>16&#45;&gt;31</title>
<path fill="none" stroke="black" stroke-dasharray="1,5" d="M805,-161.81C805,-153.79 805,-144.05 805,-135.07"/>
<polygon fill="black" stroke="black" points="808.5,-135.03 805,-125.03 801.5,-135.03 808.5,-135.03"/>
</g>
<!-- 17 -->
<g id="node13" class="node">
<title>17</title>
<ellipse fill="none" stroke="black" cx="563" cy="-575" rx="52.79" ry="18"/>
<text text-anchor="middle" x="563" y="-571.3" font-family="Times,serif" font-size="14.00">M136 (a)</text>
</g>
<!-- 20 -->
<g id="node14" class="node">
<title>20</title>
<ellipse fill="none" stroke="black" cx="678" cy="-575" rx="44.39" ry="18"/>
<text text-anchor="middle" x="678" y="-571.3" font-family="Times,serif" font-size="14.00">A25 (a)</text>
</g>
<!-- 20&#45;&gt;5 -->
<g id="edge2" class="edge">
<title>20&#45;&gt;5</title>
<path fill="none" stroke="black" stroke-dasharray="1,5" d="M645.75,-562.59C638.96,-560.49 631.79,-558.49 625,-557 561.15,-542.95 543.74,-548.15 479,-539 397.9,-527.54 376.95,-527.82 297,-510 292.9,-509.09 288.67,-508.05 284.44,-506.96"/>
<polygon fill="black" stroke="black" points="285.21,-503.54 274.64,-504.31 283.39,-510.3 285.21,-503.54"/>
</g>
<!-- 20&#45;&gt;7 -->
<g id="edge4" class="edge">
<title>20&#45;&gt;7</title>
<path fill="none" stroke="black" stroke-dasharray="5,2" d="M645.07,-562.87C638.46,-560.79 631.54,-558.74 625,-557 527.52,-531.12 500.48,-535.88 403,-510 399.63,-509.11 396.15,-508.12 392.67,-507.1"/>
<polygon fill="black" stroke="black" points="393.51,-503.7 382.93,-504.13 391.47,-510.39 393.51,-503.7"/>
</g>
<!-- 20&#45;&gt;9 -->
<g id="edge5" class="edge">
<title>20&#45;&gt;9</title>
<path fill="none" stroke="black" stroke-dasharray="5,2" d="M646.57,-562.05C610.04,-548.16 549.53,-525.14 508.5,-509.54"/>
<polygon fill="black" stroke="black" points="509.62,-506.22 499.03,-505.94 507.13,-512.77 509.62,-506.22"/>
<text text-anchor="middle" x="587.5" y="-531" font-family="Times,serif" font-size="10.00">2</text>
</g>
<!-- 20&#45;&gt;14 -->
<g id="edge9" class="edge">
<title>20&#45;&gt;14</title>
<path fill="none" stroke="black" stroke-dasharray="5,2" d="M658.81,-558.76C643.14,-546.32 620.8,-528.58 603.27,-514.65"/>
<polygon fill="black" stroke="black" points="605.11,-511.65 595.1,-508.17 600.75,-517.13 605.11,-511.65"/>
</g>
<!-- 30 -->
<g id="node21" class="node">
<title>30</title>
<ellipse fill="none" stroke="black" cx="678" cy="-492" rx="44.39" ry="18"/>
<text text-anchor="middle" x="678" y="-488.3" font-family="Times,serif" font-size="14.00">P01 (a)</text>
</g>
<!-- 20&#45;&gt;30 -->
<g id="edge20" class="edge">
<title>20&#45;&gt;30</title>
<path fill="none" stroke="black" stroke-dasharray="5,2" d="M678,-556.82C678,-546.19 678,-532.31 678,-520.2"/>
<polygon fill="black" stroke="black" points="681.5,-520.15 678,-510.15 674.5,-520.15 681.5,-520.15"/>
</g>
<!-- 39 -->
<g id="node29" class="node">
<title>39</title>
<ellipse fill="none" stroke="black" cx="790" cy="-492" rx="50.09" ry="18"/>
<text text-anchor="middle" x="790" y="-488.3" font-family="Times,serif" font-size="14.00">V566 (a)</text>
</g>
<!-- 20&#45;&gt;39 -->
<g id="edge27" class="edge">
<title>20&#45;&gt;39</title>
<path fill="none" stroke="black" stroke-dasharray="5,2" d="M698.8,-558.95C716.11,-546.44 740.95,-528.47 760.34,-514.45"/>
<polygon fill="black" stroke="black" points="762.49,-517.21 768.55,-508.52 758.39,-511.54 762.49,-517.21"/>
</g>
<!-- 28 -->
<g id="node19" class="node">
<title>28</title>
<ellipse fill="none" stroke="black" cx="241" cy="-326" rx="44.39" ry="18"/>
<text text-anchor="middle" x="241" y="-322.3" font-family="Times,serif" font-size="14.00">B39 (a)</text>
</g>
<!-- 21&#45;&gt;28 -->
<g id="edge18" class="edge">
<title>21&#45;&gt;28</title>
<path fill="none" stroke="black" stroke-dasharray="5,2" d="M241,-390.82C241,-380.19 241,-366.31 241,-354.2"/>
<polygon fill="black" stroke="black" points="244.5,-354.15 241,-344.15 237.5,-354.15 244.5,-354.15"/>
</g>
<!-- 22 -->
<g id="node16" class="node">
<title>22</title>
<ellipse fill="none" stroke="black" cx="813" cy="-575" rx="50.09" ry="18"/>
<text text-anchor="middle" x="813" y="-571.3" font-family="Times,serif" font-size="14.00">Neap (a)</text>
</g>
<!-- 34 -->
<g id="node24" class="node">
<title>34</title>
<ellipse fill="none" stroke="black" cx="914" cy="-492" rx="55.79" ry="18"/>
<text text-anchor="middle" x="914" y="-488.3" font-family="Times,serif" font-size="14.00">V1629 (a)</text>
</g>
<!-- 22&#45;&gt;34 -->
<g id="edge22" class="edge">
<title>22&#45;&gt;34</title>
<path fill="none" stroke="black" stroke-dasharray="1,5" d="M832.47,-558.38C847.75,-546.14 869.2,-528.93 886.26,-515.25"/>
<polygon fill="black" stroke="black" points="888.63,-517.83 894.24,-508.85 884.25,-512.37 888.63,-517.83"/>
</g>
<!-- 24 -->
<g id="node17" class="node">
<title>24</title>
<ellipse fill="none" stroke="black" cx="1044" cy="-409" rx="41.69" ry="18"/>
<text text-anchor="middle" x="1044" y="-405.3" font-family="Times,serif" font-size="14.00">Est (a)</text>
</g>
<!-- 27 -->
<g id="node18" class="node">
<title>27</title>
<ellipse fill="none" stroke="black" cx="926" cy="-575" rx="44.69" ry="18"/>
<text text-anchor="middle" x="926" y="-571.3" font-family="Times,serif" font-size="14.00">Nan (a)</text>
</g>
<!-- 35 -->
<g id="node25" class="node">
<title>35</title>
<ellipse fill="none" stroke="black" cx="1044" cy="-492" rx="55.79" ry="18"/>
<text text-anchor="middle" x="1044" y="-488.3" font-family="Times,serif" font-size="14.00">V1897 (a)</text>
</g>
<!-- 27&#45;&gt;35 -->
<g id="edge23" class="edge">
<title>27&#45;&gt;35</title>
<path fill="none" stroke="black" stroke-dasharray="1,5" d="M947.64,-559.14C965.92,-546.59 992.33,-528.47 1012.88,-514.36"/>
<polygon fill="black" stroke="black" points="1015.02,-517.14 1021.29,-508.59 1011.06,-511.36 1015.02,-517.14"/>
</g>
<!-- 42 -->
<g id="node32" class="node">
<title>42</title>
<ellipse fill="none" stroke="black" cx="805" cy="-34" rx="46.29" ry="18"/>
<text text-anchor="middle" x="805" y="-30.3" font-family="Times,serif" font-size="14.00">Mon (a)</text>
</g>
<!-- 31&#45;&gt;42 -->
<g id="edge30" class="edge">
<title>31&#45;&gt;42</title>
<path fill="none" stroke="black" stroke-dasharray="1,5" d="M805,-88.81C805,-80.79 805,-71.05 805,-62.07"/>
<polygon fill="black" stroke="black" points="808.5,-62.03 805,-52.03 801.5,-62.03 808.5,-62.03"/>
</g>
<!-- 32 -->
<g id="node23" class="node">
<title>32</title>
<ellipse fill="none" stroke="black" cx="813" cy="-659" rx="53.89" ry="18"/>
<text text-anchor="middle" x="813" y="-655.3" font-family="Times,serif" font-size="14.00">aBase (a)</text>
</g>
<!-- 32&#45;&gt;11 -->
<g id="edge7" class="edge">
<title>32&#45;&gt;11</title>
<path fill="none" stroke="black" stroke-width="2" d="M766.11,-649.9C704.73,-638.92 594.02,-617.81 501,-593 497.64,-592.1 494.18,-591.12 490.71,-590.08"/>
<polygon fill="black" stroke="black" stroke-width="2" points="491.6,-586.69 481.01,-587.08 489.53,-593.38 491.6,-586.69"/>
</g>
<!-- 32&#45;&gt;17 -->
<g id="edge12" class="edge">
<title>32&#45;&gt;17</title>
<path fill="none" stroke="black" stroke-width="2" d="M775.84,-645.81C731.43,-631.25 657.11,-606.87 609.08,-591.11"/>
<polygon fill="black" stroke="black" stroke-width="2" points="610.14,-587.78 599.55,-587.99 607.96,-594.43 610.14,-587.78"/>
</g>
<!-- 32&#45;&gt;20 -->
<g id="edge13" class="edge">
<title>32&#45;&gt;20</title>
<path fill="none" stroke="black" stroke-dasharray="5,2" d="M788.24,-642.96C766.37,-629.68 734.33,-610.22 710.43,-595.7"/>
<polygon fill="black" stroke="black" points="712.06,-592.59 701.7,-590.39 708.43,-598.58 712.06,-592.59"/>
</g>
<!-- 32&#45;&gt;22 -->
<g id="edge15" class="edge">
<title>32&#45;&gt;22</title>
<path fill="none" stroke="black" stroke-width="2" d="M813,-640.61C813,-629.77 813,-615.6 813,-603.29"/>
<polygon fill="black" stroke="black" stroke-width="2" points="816.5,-603.08 813,-593.08 809.5,-603.08 816.5,-603.08"/>
</g>
<!-- 32&#45;&gt;27 -->
<g id="edge17" class="edge">
<title>32&#45;&gt;27</title>
<path fill="none" stroke="black" d="M834.52,-642.38C852.26,-629.51 877.58,-611.14 897.09,-596.98"/>
<polygon fill="black" stroke="black" points="899.28,-599.71 905.32,-591.01 895.17,-594.05 899.28,-599.71"/>
</g>
<!-- 36 -->
<g id="node26" class="node">
<title>36</title>
<ellipse fill="none" stroke="black" cx="1033" cy="-575" rx="44.39" ry="18"/>
<text text-anchor="middle" x="1033" y="-571.3" font-family="Times,serif" font-size="14.00">P74 (a)</text>
</g>
<!-- 32&#45;&gt;36 -->
<g id="edge24" class="edge">
<title>32&#45;&gt;36</title>
<path fill="none" stroke="black" d="M847.86,-645.01C887.01,-630.42 950.47,-606.76 991.98,-591.29"/>
<polygon fill="black" stroke="black" points="993.36,-594.51 1001.51,-587.74 990.92,-587.95 993.36,-594.51"/>
<text text-anchor="middle" x="939.5" y="-614" font-family="Times,serif" font-size="10.00">2</text>
</g>
<!-- 43 -->
<g id="node33" class="node">
<title>43</title>
<ellipse fill="none" stroke="black" cx="1145" cy="-575" rx="50.09" ry="18"/>
<text text-anchor="middle" x="1145" y="-571.3" font-family="Times,serif" font-size="14.00">S249 (a)</text>
</g>
<!-- 32&#45;&gt;43 -->
<g id="edge31" class="edge">
<title>32&#45;&gt;43</title>
<path fill="none" stroke="black" d="M856.66,-648.27C910.69,-636.07 1005.43,-614.19 1086,-593 1089.83,-591.99 1093.8,-590.92 1097.78,-589.82"/>
<polygon fill="black" stroke="black" points="1098.94,-593.13 1107.62,-587.06 1097.05,-586.39 1098.94,-593.13"/>
</g>
<!-- 34&#45;&gt;10 -->
<g id="edge6" class="edge">
<title>34&#45;&gt;10</title>
<path fill="none" stroke="black" stroke-dasharray="5,2" d="M914,-473.82C914,-463.19 914,-449.31 914,-437.2"/>
<polygon fill="black" stroke="black" points="917.5,-437.15 914,-427.15 910.5,-437.15 917.5,-437.15"/>
</g>
<!-- 35&#45;&gt;24 -->
<g id="edge16" class="edge">
<title>35&#45;&gt;24</title>
<path fill="none" stroke="black" stroke-dasharray="1,5" d="M1044,-473.82C1044,-463.19 1044,-449.31 1044,-437.2"/>
<polygon fill="black" stroke="black" points="1047.5,-437.15 1044,-427.15 1040.5,-437.15 1047.5,-437.15"/>
</g>
<!-- 36&#45;&gt;15 -->
<g id="edge10" class="edge">
<title>36&#45;&gt;15</title>
<path fill="none" stroke="black" stroke-dasharray="1,5" d="M1056.82,-559.71C1078.44,-546.74 1110.52,-527.49 1134.67,-513"/>
<polygon fill="black" stroke="black" points="1136.73,-515.84 1143.5,-507.7 1133.13,-509.84 1136.73,-515.84"/>
<text text-anchor="middle" x="1111.5" y="-531" font-family="Times,serif" font-size="10.00">2</text>
</g>
<!-- 37 -->
<g id="node27" class="node">
<title>37</title>
<ellipse fill="none" stroke="black" cx="914" cy="-180" rx="50.09" ry="18"/>
<text text-anchor="middle" x="914" y="-176.3" font-family="Times,serif" font-size="14.00">V569 (a)</text>
</g>
<!-- 38&#45;&gt;16 -->
<g id="edge11" class="edge">
<title>38&#45;&gt;16</title>
<path fill="none" stroke="black" stroke-dasharray="1,5" d="M891.15,-237.12C875.1,-226.66 853.43,-212.55 835.85,-201.09"/>
<polygon fill="black" stroke="black" points="837.36,-197.9 827.08,-195.38 833.54,-203.77 837.36,-197.9"/>
</g>
<!-- 38&#45;&gt;37 -->
<g id="edge25" class="edge">
<title>38&#45;&gt;37</title>
<path fill="none" stroke="black" stroke-dasharray="5,2" d="M914,-234.81C914,-226.79 914,-217.05 914,-208.07"/>
<polygon fill="black" stroke="black" points="917.5,-208.03 914,-198.03 910.5,-208.03 917.5,-208.03"/>
</g>
<!-- 44 -->
<g id="node34" class="node">
<title>44</title>
<ellipse fill="none" stroke="black" cx="1035" cy="-180" rx="52.79" ry="18"/>
<text text-anchor="middle" x="1035" y="-176.3" font-family="Times,serif" font-size="14.00">M118 (a)</text>
</g>
<!-- 38&#45;&gt;44 -->
<g id="edge32" class="edge">
<title>38&#45;&gt;44</title>
<path fill="none" stroke="black" stroke-dasharray="5,2" d="M938.49,-237.63C956.45,-227.09 981.08,-212.64 1000.96,-200.97"/>
<polygon fill="black" stroke="black" points="1002.86,-203.91 1009.72,-195.84 999.32,-197.88 1002.86,-203.91"/>
</g>
<!-- 45 -->
<g id="node35" class="node">
<title>45</title>
<ellipse fill="none" stroke="black" cx="790" cy="-409" rx="55.79" ry="18"/>
<text text-anchor="middle" x="790" y="-405.3" font-family="Times,serif" font-size="14.00">V1639 (a)</text>
</g>
<!-- 39&#45;&gt;45 -->
<g id="edge33" class="edge">
<title>39&#45;&gt;45</title>
<path fill="none" stroke="black" stroke-dasharray="1,5" d="M790,-473.82C790,-463.19 790,-449.31 790,-437.2"/>
<polygon fill="black" stroke="black" points="793.5,-437.15 790,-427.15 786.5,-437.15 793.5,-437.15"/>
</g>
<!-- 40 -->
<g id="node30" class="node">
<title>40</title>
<ellipse fill="none" stroke="black" cx="1035" cy="-107" rx="44.39" ry="18"/>
<text text-anchor="middle" x="1035" y="-103.3" font-family="Times,serif" font-size="14.00">P18 (a)</text>
</g>
<!-- 44&#45;&gt;40 -->
<g id="edge28" class="edge">
<title>44&#45;&gt;40</title>
<path fill="none" stroke="black" stroke-dasharray="5,2" d="M1035,-161.81C1035,-153.79 1035,-144.05 1035,-135.07"/>
<polygon fill="black" stroke="black" points="1038.5,-135.03 1035,-125.03 1031.5,-135.03 1038.5,-135.03"/>
</g>
</g>
</svg>
