<?xml version="1.0" encoding="UTF-8" standalone="no"?>
<!DOCTYPE svg PUBLIC "-//W3C//DTD SVG 1.1//EN"
 "http://www.w3.org/Graphics/SVG/1.1/DTD/svg11.dtd">
<!-- Generated by graphviz version 2.43.0 (0)
 -->
<!-- Title: textual_flow_diagram Pages: 1 -->
<svg width="2041pt" height="775pt"
 viewBox="0.00 0.00 2041.00 775.00" xmlns="http://www.w3.org/2000/svg" xmlns:xlink="http://www.w3.org/1999/xlink">
<g id="graph0" class="graph" transform="scale(1 1) rotate(0) translate(4 771)">
<title>textual_flow_diagram</title>
<polygon fill="white" stroke="transparent" points="-4,4 -4,-771 2037,-771 2037,4 -4,4"/>
<g id="clust1" class="cluster">
<title>cluster_legend</title>
<polygon fill="none" stroke="black" points="8,-705 8,-759 182,-759 182,-705 8,-705"/>
</g>
<g id="clust2" class="cluster">
<title>cluster_plot</title>
</g>
<!-- label -->
<g id="node1" class="node">
<title>label</title>
<text text-anchor="middle" x="95" y="-735.8" font-family="Times,serif" font-size="14.00">adstag1.2.40U18, b</text>
<text text-anchor="middle" x="95" y="-720.8" font-family="Times,serif" font-size="14.00">Con = 5</text>
</g>
<!-- 0 -->
<g id="node2" class="node">
<title>0</title>
<ellipse fill="none" stroke="black" cx="1269" cy="-263" rx="50.09" ry="18"/>
<text text-anchor="middle" x="1269" y="-259.3" font-family="Times,serif" font-size="14.00">V536 (b)</text>
</g>
<!-- 32 -->
<g id="node25" class="node">
<title>32</title>
<ellipse fill="none" stroke="black" cx="1269" cy="-190" rx="50.09" ry="18"/>
<text text-anchor="middle" x="1269" y="-186.3" font-family="Times,serif" font-size="14.00">V568 (b)</text>
</g>
<!-- 0&#45;&gt;32 -->
<g id="edge24" class="edge">
<title>0&#45;&gt;32</title>
<path fill="none" stroke="black" stroke-dasharray="1,5" d="M1269,-244.81C1269,-236.79 1269,-227.05 1269,-218.07"/>
<polygon fill="black" stroke="black" points="1272.5,-218.03 1269,-208.03 1265.5,-218.03 1272.5,-218.03"/>
</g>
<!-- 1 -->
<g id="node3" class="node">
<title>1</title>
<ellipse fill="none" stroke="black" cx="661" cy="-409" rx="44.69" ry="18"/>
<text text-anchor="middle" x="661" y="-405.3" font-family="Times,serif" font-size="14.00">B39 (b)</text>
</g>
<!-- 2 -->
<g id="node4" class="node">
<title>2</title>
<ellipse fill="none" stroke="black" cx="1036" cy="-492" rx="44.39" ry="18"/>
<text text-anchor="middle" x="1036" y="-488.3" font-family="Times,serif" font-size="14.00">P74 (b)</text>
</g>
<!-- 3 -->
<g id="node5" class="node">
<title>3</title>
<ellipse fill="none" stroke="black" cx="242" cy="-575" rx="44.39" ry="18"/>
<text text-anchor="middle" x="242" y="-571.3" font-family="Times,serif" font-size="14.00">S32 (b)</text>
</g>
<!-- 4 -->
<g id="node6" class="node">
<title>4</title>
<ellipse fill="none" stroke="black" cx="534" cy="-492" rx="55.79" ry="18"/>
<text text-anchor="middle" x="534" y="-488.3" font-family="Times,serif" font-size="14.00">V2036 (b)</text>
</g>
<!-- 5 -->
<g id="node7" class="node">
<title>5</title>
<ellipse fill="none" stroke="black" cx="1148" cy="-492" rx="50.09" ry="18"/>
<text text-anchor="middle" x="1148" y="-488.3" font-family="Times,serif" font-size="14.00">V565 (b)</text>
</g>
<!-- 6 -->
<g id="node8" class="node">
<title>6</title>
<ellipse fill="none" stroke="black" cx="788" cy="-492" rx="55.79" ry="18"/>
<text text-anchor="middle" x="788" y="-488.3" font-family="Times,serif" font-size="14.00">V1897 (b)</text>
</g>
<!-- 29 -->
<g id="node22" class="node">
<title>29</title>
<ellipse fill="none" stroke="black" cx="788" cy="-409" rx="42.49" ry="18"/>
<text text-anchor="middle" x="788" y="-405.3" font-family="Times,serif" font-size="14.00">Est (b)</text>
</g>
<!-- 6&#45;&gt;29 -->
<g id="edge21" class="edge">
<title>6&#45;&gt;29</title>
<path fill="none" stroke="black" stroke-dasharray="1,5" d="M788,-473.82C788,-463.19 788,-449.31 788,-437.2"/>
<polygon fill="black" stroke="black" points="791.5,-437.15 788,-427.15 784.5,-437.15 791.5,-437.15"/>
</g>
<!-- 7 -->
<g id="node9" class="node">
<title>7</title>
<ellipse fill="none" stroke="black" cx="1964" cy="-409" rx="50.09" ry="18"/>
<text text-anchor="middle" x="1964" y="-405.3" font-family="Times,serif" font-size="14.00">A336 (b)</text>
</g>
<!-- 8 -->
<g id="node10" class="node">
<title>8</title>
<ellipse fill="none" stroke="black" cx="1269" cy="-336" rx="55.79" ry="18"/>
<text text-anchor="middle" x="1269" y="-332.3" font-family="Times,serif" font-size="14.00">V1629 (b)</text>
</g>
<!-- 8&#45;&gt;0 -->
<g id="edge1" class="edge">
<title>8&#45;&gt;0</title>
<path fill="none" stroke="black" stroke-dasharray="5,2" d="M1269,-317.81C1269,-309.79 1269,-300.05 1269,-291.07"/>
<polygon fill="black" stroke="black" points="1272.5,-291.03 1269,-281.03 1265.5,-291.03 1272.5,-291.03"/>
</g>
<!-- 9 -->
<g id="node11" class="node">
<title>9</title>
<ellipse fill="none" stroke="black" cx="661" cy="-492" rx="53.09" ry="18"/>
<text text-anchor="middle" x="661" y="-488.3" font-family="Times,serif" font-size="14.00">LaSM (b)</text>
</g>
<!-- 9&#45;&gt;1 -->
<g id="edge2" class="edge">
<title>9&#45;&gt;1</title>
<path fill="none" stroke="black" stroke-dasharray="5,2" d="M661,-473.82C661,-463.19 661,-449.31 661,-437.2"/>
<polygon fill="black" stroke="black" points="664.5,-437.15 661,-427.15 657.5,-437.15 664.5,-437.15"/>
</g>
<!-- 10 -->
<g id="node12" class="node">
<title>10</title>
<ellipse fill="none" stroke="black" cx="1269" cy="-492" rx="53.09" ry="18"/>
<text text-anchor="middle" x="1269" y="-488.3" font-family="Times,serif" font-size="14.00">M136 (b)</text>
</g>
<!-- 40 -->
<g id="node33" class="node">
<title>40</title>
<ellipse fill="none" stroke="black" cx="1269" cy="-409" rx="50.89" ry="18"/>
<text text-anchor="middle" x="1269" y="-405.3" font-family="Times,serif" font-size="14.00">Neap (b)</text>
</g>
<!-- 10&#45;&gt;40 -->
<g id="edge32" class="edge">
<title>10&#45;&gt;40</title>
<path fill="none" stroke="black" stroke-dasharray="5,2" d="M1269,-473.82C1269,-463.19 1269,-449.31 1269,-437.2"/>
<polygon fill="black" stroke="black" points="1272.5,-437.15 1269,-427.15 1265.5,-437.15 1272.5,-437.15"/>
<text text-anchor="middle" x="1272.5" y="-448" font-family="Times,serif" font-size="10.00">2</text>
</g>
<!-- 15 -->
<g id="node13" class="node">
<title>15</title>
<ellipse fill="none" stroke="black" cx="354" cy="-575" rx="50.09" ry="18"/>
<text text-anchor="middle" x="354" y="-571.3" font-family="Times,serif" font-size="14.00">V566 (b)</text>
</g>
<!-- 33 -->
<g id="node26" class="node">
<title>33</title>
<ellipse fill="none" stroke="black" cx="254" cy="-492" rx="55.79" ry="18"/>
<text text-anchor="middle" x="254" y="-488.3" font-family="Times,serif" font-size="14.00">V1639 (b)</text>
</g>
<!-- 15&#45;&gt;33 -->
<g id="edge25" class="edge">
<title>15&#45;&gt;33</title>
<path fill="none" stroke="black" stroke-dasharray="1,5" d="M334.72,-558.38C319.7,-546.21 298.63,-529.15 281.79,-515.51"/>
<polygon fill="black" stroke="black" points="283.88,-512.7 273.91,-509.12 279.47,-518.14 283.88,-512.7"/>
</g>
<!-- 17 -->
<g id="node14" class="node">
<title>17</title>
<ellipse fill="none" stroke="black" cx="1390" cy="-492" rx="49.29" ry="18"/>
<text text-anchor="middle" x="1390" y="-488.3" font-family="Times,serif" font-size="14.00">La35 (b)</text>
</g>
<!-- 18 -->
<g id="node15" class="node">
<title>18</title>
<ellipse fill="none" stroke="black" cx="1507" cy="-492" rx="50.09" ry="18"/>
<text text-anchor="middle" x="1507" y="-488.3" font-family="Times,serif" font-size="14.00">V571 (b)</text>
</g>
<!-- 20 -->
<g id="node16" class="node">
<title>20</title>
<ellipse fill="none" stroke="black" cx="462" cy="-575" rx="40.09" ry="18"/>
<text text-anchor="middle" x="462" y="-571.3" font-family="Times,serif" font-size="14.00">Pal (b)</text>
</g>
<!-- 34 -->
<g id="node27" class="node">
<title>34</title>
<ellipse fill="none" stroke="black" cx="394" cy="-492" rx="65.79" ry="18"/>
<text text-anchor="middle" x="394" y="-488.3" font-family="Times,serif" font-size="14.00">Savile&#45;Η (b)</text>
</g>
<!-- 20&#45;&gt;34 -->
<g id="edge26" class="edge">
<title>20&#45;&gt;34</title>
<path fill="none" stroke="black" d="M448.57,-558C438.89,-546.47 425.64,-530.69 414.63,-517.57"/>
<polygon fill="black" stroke="black" points="417.22,-515.21 408.11,-509.81 411.86,-519.72 417.22,-515.21"/>
</g>
<!-- 21 -->
<g id="node17" class="node">
<title>21</title>
<ellipse fill="none" stroke="black" cx="1625" cy="-492" rx="50.09" ry="18"/>
<text text-anchor="middle" x="1625" y="-488.3" font-family="Times,serif" font-size="14.00">A116 (b)</text>
</g>
<!-- 22 -->
<g id="node18" class="node">
<title>22</title>
<ellipse fill="none" stroke="black" cx="1740" cy="-492" rx="47.39" ry="18"/>
<text text-anchor="middle" x="1740" y="-488.3" font-family="Times,serif" font-size="14.00">Bodl (b)</text>
</g>
<!-- 24 -->
<g id="node19" class="node">
<title>24</title>
<ellipse fill="none" stroke="black" cx="1148" cy="-34" rx="50.09" ry="18"/>
<text text-anchor="middle" x="1148" y="-30.3" font-family="Times,serif" font-size="14.00">V569 (b)</text>
</g>
<!-- 25 -->
<g id="node20" class="node">
<title>25</title>
<ellipse fill="none" stroke="black" cx="564" cy="-658" rx="44.39" ry="18"/>
<text text-anchor="middle" x="564" y="-654.3" font-family="Times,serif" font-size="14.00">A25 (b)</text>
</g>
<!-- 25&#45;&gt;3 -->
<g id="edge4" class="edge">
<title>25&#45;&gt;3</title>
<path fill="none" stroke="black" stroke-dasharray="5,2" d="M525.45,-648.81C473.01,-637.44 376.38,-615.7 295,-593 291.64,-592.06 288.17,-591.05 284.7,-590.01"/>
<polygon fill="black" stroke="black" points="285.55,-586.61 274.96,-587 283.49,-593.3 285.55,-586.61"/>
</g>
<!-- 25&#45;&gt;15 -->
<g id="edge12" class="edge">
<title>25&#45;&gt;15</title>
<path fill="none" stroke="black" stroke-dasharray="5,2" d="M533.01,-645.05C496.86,-631.1 436.89,-607.97 396.43,-592.37"/>
<polygon fill="black" stroke="black" points="397.43,-589 386.84,-588.67 394.92,-595.53 397.43,-589"/>
</g>
<!-- 25&#45;&gt;20 -->
<g id="edge15" class="edge">
<title>25&#45;&gt;20</title>
<path fill="none" stroke="black" stroke-dasharray="5,2" d="M544.81,-641.76C529.14,-629.32 506.8,-611.58 489.27,-597.65"/>
<polygon fill="black" stroke="black" points="491.11,-594.65 481.1,-591.17 486.75,-600.13 491.11,-594.65"/>
</g>
<!-- 31 -->
<g id="node24" class="node">
<title>31</title>
<ellipse fill="none" stroke="black" cx="564" cy="-575" rx="44.39" ry="18"/>
<text text-anchor="middle" x="564" y="-571.3" font-family="Times,serif" font-size="14.00">P01 (b)</text>
</g>
<!-- 25&#45;&gt;31 -->
<g id="edge23" class="edge">
<title>25&#45;&gt;31</title>
<path fill="none" stroke="black" stroke-dasharray="5,2" d="M564,-639.82C564,-629.19 564,-615.31 564,-603.2"/>
<polygon fill="black" stroke="black" points="567.5,-603.15 564,-593.15 560.5,-603.15 567.5,-603.15"/>
</g>
<!-- 35 -->
<g id="node28" class="node">
<title>35</title>
<ellipse fill="none" stroke="black" cx="676" cy="-575" rx="50.09" ry="18"/>
<text text-anchor="middle" x="676" y="-571.3" font-family="Times,serif" font-size="14.00">Patm (b)</text>
</g>
<!-- 25&#45;&gt;35 -->
<g id="edge27" class="edge">
<title>25&#45;&gt;35</title>
<path fill="none" stroke="black" stroke-dasharray="1,5" d="M584.8,-641.95C602.11,-629.44 626.95,-611.47 646.34,-597.45"/>
<polygon fill="black" stroke="black" points="648.49,-600.21 654.55,-591.52 644.39,-594.54 648.49,-600.21"/>
</g>
<!-- 37 -->
<g id="node30" class="node">
<title>37</title>
<ellipse fill="none" stroke="black" cx="790" cy="-575" rx="45.49" ry="18"/>
<text text-anchor="middle" x="790" y="-571.3" font-family="Times,serif" font-size="14.00">Nan (b)</text>
</g>
<!-- 25&#45;&gt;37 -->
<g id="edge29" class="edge">
<title>25&#45;&gt;37</title>
<path fill="none" stroke="black" stroke-dasharray="5,2" d="M596.38,-645.39C636.21,-631.12 703.92,-606.85 747.79,-591.13"/>
<polygon fill="black" stroke="black" points="749.08,-594.38 757.31,-587.72 746.72,-587.79 749.08,-594.38"/>
<text text-anchor="middle" x="693.5" y="-614" font-family="Times,serif" font-size="10.00">2</text>
</g>
<!-- 41 -->
<g id="node34" class="node">
<title>41</title>
<ellipse fill="none" stroke="black" cx="1448" cy="-575" rx="49.29" ry="18"/>
<text text-anchor="middle" x="1448" y="-571.3" font-family="Times,serif" font-size="14.00">La22 (b)</text>
</g>
<!-- 25&#45;&gt;41 -->
<g id="edge33" class="edge">
<title>25&#45;&gt;41</title>
<path fill="none" stroke="black" stroke-dasharray="1,5" d="M606.64,-653.09C751.5,-639.82 1224.92,-596.44 1390.33,-581.28"/>
<polygon fill="black" stroke="black" points="1391.13,-584.73 1400.77,-580.33 1390.49,-577.75 1391.13,-584.73"/>
</g>
<!-- 27 -->
<g id="node21" class="node">
<title>27</title>
<ellipse fill="none" stroke="black" cx="1269" cy="-34" rx="53.09" ry="18"/>
<text text-anchor="middle" x="1269" y="-30.3" font-family="Times,serif" font-size="14.00">M118 (b)</text>
</g>
<!-- 30 -->
<g id="node23" class="node">
<title>30</title>
<ellipse fill="none" stroke="black" cx="1387" cy="-34" rx="46.59" ry="18"/>
<text text-anchor="middle" x="1387" y="-30.3" font-family="Times,serif" font-size="14.00">Mon (b)</text>
</g>
<!-- 38 -->
<g id="node31" class="node">
<title>38</title>
<ellipse fill="none" stroke="black" cx="1269" cy="-117" rx="47.39" ry="18"/>
<text text-anchor="middle" x="1269" y="-113.3" font-family="Times,serif" font-size="14.00">Taur (b)</text>
</g>
<!-- 32&#45;&gt;38 -->
<g id="edge30" class="edge">
<title>32&#45;&gt;38</title>
<path fill="none" stroke="black" stroke-dasharray="1,5" d="M1269,-171.81C1269,-163.79 1269,-154.05 1269,-145.07"/>
<polygon fill="black" stroke="black" points="1272.5,-145.03 1269,-135.03 1265.5,-145.03 1272.5,-145.03"/>
</g>
<!-- 35&#45;&gt;4 -->
<g id="edge5" class="edge">
<title>35&#45;&gt;4</title>
<path fill="none" stroke="black" stroke-dasharray="1,5" d="M650.28,-559.33C627.65,-546.42 594.47,-527.5 569.35,-513.16"/>
<polygon fill="black" stroke="black" points="570.91,-510.02 560.49,-508.11 567.44,-516.1 570.91,-510.02"/>
</g>
<!-- 35&#45;&gt;9 -->
<g id="edge10" class="edge">
<title>35&#45;&gt;9</title>
<path fill="none" stroke="black" stroke-dasharray="5,2" d="M672.82,-556.82C670.85,-546.19 668.28,-532.31 666.04,-520.2"/>
<polygon fill="black" stroke="black" points="669.44,-519.35 664.18,-510.15 662.56,-520.62 669.44,-519.35"/>
</g>
<!-- 36 -->
<g id="node29" class="node">
<title>36</title>
<ellipse fill="none" stroke="black" cx="1849" cy="-492" rx="43.59" ry="18"/>
<text text-anchor="middle" x="1849" y="-488.3" font-family="Times,serif" font-size="14.00">La2 (b)</text>
</g>
<!-- 37&#45;&gt;6 -->
<g id="edge7" class="edge">
<title>37&#45;&gt;6</title>
<path fill="none" stroke="black" stroke-dasharray="1,5" d="M789.58,-556.82C789.31,-546.19 788.97,-532.31 788.67,-520.2"/>
<polygon fill="black" stroke="black" points="792.17,-520.06 788.42,-510.15 785.17,-520.24 792.17,-520.06"/>
</g>
<!-- 39 -->
<g id="node32" class="node">
<title>39</title>
<ellipse fill="none" stroke="black" cx="918" cy="-492" rx="55.79" ry="18"/>
<text text-anchor="middle" x="918" y="-488.3" font-family="Times,serif" font-size="14.00">V2250 (b)</text>
</g>
<!-- 37&#45;&gt;39 -->
<g id="edge31" class="edge">
<title>37&#45;&gt;39</title>
<path fill="none" stroke="black" stroke-dasharray="5,2" d="M813.18,-559.33C833.28,-546.61 862.59,-528.06 885.11,-513.81"/>
<polygon fill="black" stroke="black" points="887.11,-516.69 893.69,-508.39 883.36,-510.78 887.11,-516.69"/>
</g>
<!-- 38&#45;&gt;24 -->
<g id="edge18" class="edge">
<title>38&#45;&gt;24</title>
<path fill="none" stroke="black" stroke-dasharray="5,2" d="M1246.52,-100.95C1227.54,-88.25 1200.16,-69.92 1179.08,-55.81"/>
<polygon fill="black" stroke="black" points="1181.02,-52.89 1170.77,-50.24 1177.13,-58.71 1181.02,-52.89"/>
</g>
<!-- 38&#45;&gt;27 -->
<g id="edge20" class="edge">
<title>38&#45;&gt;27</title>
<path fill="none" stroke="black" stroke-dasharray="5,2" d="M1269,-98.82C1269,-88.19 1269,-74.31 1269,-62.2"/>
<polygon fill="black" stroke="black" points="1272.5,-62.15 1269,-52.15 1265.5,-62.15 1272.5,-62.15"/>
</g>
<!-- 38&#45;&gt;30 -->
<g id="edge22" class="edge">
<title>38&#45;&gt;30</title>
<path fill="none" stroke="black" stroke-dasharray="1,5" d="M1290.92,-100.95C1309.46,-88.22 1336.23,-69.85 1356.8,-55.73"/>
<polygon fill="black" stroke="black" points="1358.94,-58.51 1365.2,-49.97 1354.97,-52.74 1358.94,-58.51"/>
<text text-anchor="middle" x="1338.5" y="-73" font-family="Times,serif" font-size="10.00">3</text>
</g>
<!-- 40&#45;&gt;8 -->
<g id="edge9" class="edge">
<title>40&#45;&gt;8</title>
<path fill="none" stroke="black" stroke-dasharray="1,5" d="M1269,-390.81C1269,-382.79 1269,-373.05 1269,-364.07"/>
<polygon fill="black" stroke="black" points="1272.5,-364.03 1269,-354.03 1265.5,-364.03 1272.5,-364.03"/>
</g>
<!-- 41&#45;&gt;2 -->
<g id="edge3" class="edge">
<title>41&#45;&gt;2</title>
<path fill="none" stroke="black" stroke-dasharray="1,5" d="M1402.54,-567.89C1333.99,-558.23 1200.37,-537.66 1089,-510 1085.57,-509.15 1082.03,-508.19 1078.49,-507.18"/>
<polygon fill="black" stroke="black" points="1079.18,-503.73 1068.6,-504.21 1077.17,-510.44 1079.18,-503.73"/>
</g>
<!-- 41&#45;&gt;5 -->
<g id="edge6" class="edge">
<title>41&#45;&gt;5</title>
<path fill="none" stroke="black" stroke-dasharray="5,2" d="M1408.69,-563.83C1360.93,-551.41 1277.93,-529.63 1207,-510 1203.24,-508.96 1199.34,-507.87 1195.43,-506.76"/>
<polygon fill="black" stroke="black" points="1196.31,-503.37 1185.74,-504 1194.4,-510.1 1196.31,-503.37"/>
</g>
<!-- 41&#45;&gt;10 -->
<g id="edge11" class="edge">
<title>41&#45;&gt;10</title>
<path fill="none" stroke="black" d="M1418.04,-560.44C1388.15,-546.92 1342.04,-526.05 1309.02,-511.11"/>
<polygon fill="black" stroke="black" points="1310.21,-507.81 1299.66,-506.87 1307.33,-514.18 1310.21,-507.81"/>
<text text-anchor="middle" x="1372.5" y="-531" font-family="Times,serif" font-size="10.00">2</text>
</g>
<!-- 41&#45;&gt;17 -->
<g id="edge13" class="edge">
<title>41&#45;&gt;17</title>
<path fill="none" stroke="black" stroke-dasharray="1,5" d="M1435.98,-557.22C1427.84,-545.85 1416.94,-530.63 1407.8,-517.86"/>
<polygon fill="black" stroke="black" points="1410.47,-515.58 1401.8,-509.48 1404.78,-519.65 1410.47,-515.58"/>
</g>
<!-- 41&#45;&gt;18 -->
<g id="edge14" class="edge">
<title>41&#45;&gt;18</title>
<path fill="none" stroke="black" stroke-dasharray="1,5" d="M1460.22,-557.22C1468.51,-545.85 1479.59,-530.63 1488.9,-517.86"/>
<polygon fill="black" stroke="black" points="1491.93,-519.63 1494.99,-509.48 1486.28,-515.51 1491.93,-519.63"/>
</g>
<!-- 41&#45;&gt;21 -->
<g id="edge16" class="edge">
<title>41&#45;&gt;21</title>
<path fill="none" stroke="black" stroke-dasharray="5,2" d="M1477.63,-560.44C1507.36,-546.83 1553.33,-525.8 1586.02,-510.84"/>
<polygon fill="black" stroke="black" points="1587.64,-513.95 1595.28,-506.6 1584.73,-507.58 1587.64,-513.95"/>
</g>
<!-- 41&#45;&gt;22 -->
<g id="edge17" class="edge">
<title>41&#45;&gt;22</title>
<path fill="none" stroke="black" stroke-dasharray="5,2" d="M1486.94,-563.82C1533.8,-551.48 1614.84,-529.87 1684,-510 1687.53,-508.99 1691.17,-507.92 1694.84,-506.84"/>
<polygon fill="black" stroke="black" points="1695.92,-510.17 1704.5,-503.95 1693.91,-503.46 1695.92,-510.17"/>
</g>
<!-- 41&#45;&gt;36 -->
<g id="edge28" class="edge">
<title>41&#45;&gt;36</title>
<path fill="none" stroke="black" d="M1493.17,-567.59C1559.92,-557.69 1688.61,-536.98 1796,-510 1799.58,-509.1 1803.28,-508.09 1806.98,-507.02"/>
<polygon fill="black" stroke="black" points="1808.11,-510.33 1816.68,-504.09 1806.09,-503.63 1808.11,-510.33"/>
<text text-anchor="middle" x="1713.5" y="-531" font-family="Times,serif" font-size="10.00">2</text>
</g>
<!-- 42 -->
<g id="node35" class="node">
<title>42</title>
<ellipse fill="none" stroke="black" cx="1964" cy="-492" rx="53.09" ry="18"/>
<text text-anchor="middle" x="1964" y="-488.3" font-family="Times,serif" font-size="14.00">M111 (b)</text>
</g>
<!-- 41&#45;&gt;42 -->
<g id="edge34" class="edge">
<title>41&#45;&gt;42</title>
<path fill="none" stroke="black" stroke-dasharray="1,5" d="M1495.46,-569.62C1578.52,-561.44 1755.35,-541.75 1902,-510 1906.35,-509.06 1910.85,-508 1915.35,-506.88"/>
<polygon fill="black" stroke="black" points="1916.32,-510.24 1925.13,-504.35 1914.58,-503.46 1916.32,-510.24"/>
</g>
<!-- 42&#45;&gt;7 -->
<g id="edge8" class="edge">
<title>42&#45;&gt;7</title>
<path fill="none" stroke="black" stroke-dasharray="5,2" d="M1964,-473.82C1964,-463.19 1964,-449.31 1964,-437.2"/>
<polygon fill="black" stroke="black" points="1967.5,-437.15 1964,-427.15 1960.5,-437.15 1967.5,-437.15"/>
</g>
<!-- 28 -->
<g id="node36" class="node">
<title>28</title>
<ellipse fill="none" stroke="blue" stroke-dasharray="5,2" cx="564" cy="-732" rx="53.89" ry="18"/>
<text text-anchor="middle" x="564" y="-728.3" font-family="Times,serif" font-size="14.00">aBase (a)</text>
</g>
<!-- 28&#45;&gt;25 -->
<g id="edge19" class="edge">
<title>28&#45;&gt;25</title>
<path fill="none" stroke="blue" stroke-dasharray="5,2" d="M564,-713.94C564,-705.81 564,-695.88 564,-686.7"/>
<polygon fill="blue" stroke="blue" points="567.5,-686.44 564,-676.44 560.5,-686.44 567.5,-686.44"/>
</g>
</g>
</svg>
