<?xml version="1.0" encoding="UTF-8" standalone="no"?>
<!DOCTYPE svg PUBLIC "-//W3C//DTD SVG 1.1//EN"
 "http://www.w3.org/Graphics/SVG/1.1/DTD/svg11.dtd">
<!-- Generated by graphviz version 2.43.0 (0)
 -->
<!-- Title: textual_flow_diagram Pages: 1 -->
<svg width="1944pt" height="294pt"
 viewBox="0.00 0.00 1944.00 294.00" xmlns="http://www.w3.org/2000/svg" xmlns:xlink="http://www.w3.org/1999/xlink">
<g id="graph0" class="graph" transform="scale(1 1) rotate(0) translate(4 290)">
<title>textual_flow_diagram</title>
<polygon fill="white" stroke="transparent" points="-4,4 -4,-290 1940,-290 1940,4 -4,4"/>
<g id="clust1" class="cluster">
<title>cluster_legend</title>
<polygon fill="none" stroke="black" points="8,-224 8,-278 186,-278 186,-224 8,-224"/>
</g>
<g id="clust2" class="cluster">
<title>cluster_plot</title>
</g>
<!-- label -->
<g id="node1" class="node">
<title>label</title>
<text text-anchor="middle" x="97" y="-254.8" font-family="Times,serif" font-size="14.00">adstag1.3.8U2&#45;18, a</text>
<text text-anchor="middle" x="97" y="-239.8" font-family="Times,serif" font-size="14.00">Con = 5</text>
</g>
<!-- 0 -->
<g id="node2" class="node">
<title>0</title>
<ellipse fill="none" stroke="black" cx="1297" cy="-106" rx="52.79" ry="18"/>
<text text-anchor="middle" x="1297" y="-102.3" font-family="Times,serif" font-size="14.00">M111 (a)</text>
</g>
<!-- 18 -->
<g id="node13" class="node">
<title>18</title>
<ellipse fill="none" stroke="black" cx="1297" cy="-34" rx="50.09" ry="18"/>
<text text-anchor="middle" x="1297" y="-30.3" font-family="Times,serif" font-size="14.00">A336 (a)</text>
</g>
<!-- 0&#45;&gt;18 -->
<g id="edge12" class="edge">
<title>0&#45;&gt;18</title>
<path fill="none" stroke="black" stroke-dasharray="5,2" d="M1297,-87.7C1297,-79.98 1297,-70.71 1297,-62.11"/>
<polygon fill="black" stroke="black" points="1300.5,-62.1 1297,-52.1 1293.5,-62.1 1300.5,-62.1"/>
</g>
<!-- 2 -->
<g id="node3" class="node">
<title>2</title>
<ellipse fill="none" stroke="black" cx="1418" cy="-106" rx="50.09" ry="18"/>
<text text-anchor="middle" x="1418" y="-102.3" font-family="Times,serif" font-size="14.00">A116 (a)</text>
</g>
<!-- 3 -->
<g id="node4" class="node">
<title>3</title>
<ellipse fill="none" stroke="black" cx="1536" cy="-106" rx="50.09" ry="18"/>
<text text-anchor="middle" x="1536" y="-102.3" font-family="Times,serif" font-size="14.00">V565 (a)</text>
</g>
<!-- 5 -->
<g id="node5" class="node">
<title>5</title>
<ellipse fill="none" stroke="black" cx="255" cy="-178" rx="52.79" ry="18"/>
<text text-anchor="middle" x="255" y="-174.3" font-family="Times,serif" font-size="14.00">LaSM (a)</text>
</g>
<!-- 20 -->
<g id="node14" class="node">
<title>20</title>
<ellipse fill="none" stroke="black" cx="246" cy="-106" rx="44.39" ry="18"/>
<text text-anchor="middle" x="246" y="-102.3" font-family="Times,serif" font-size="14.00">B39 (a)</text>
</g>
<!-- 5&#45;&gt;20 -->
<g id="edge13" class="edge">
<title>5&#45;&gt;20</title>
<path fill="none" stroke="black" stroke-dasharray="5,2" d="M252.78,-159.7C251.78,-151.98 250.59,-142.71 249.49,-134.11"/>
<polygon fill="black" stroke="black" points="252.95,-133.58 248.2,-124.1 246,-134.47 252.95,-133.58"/>
</g>
<!-- 7 -->
<g id="node6" class="node">
<title>7</title>
<ellipse fill="none" stroke="black" cx="1648" cy="-106" rx="44.39" ry="18"/>
<text text-anchor="middle" x="1648" y="-102.3" font-family="Times,serif" font-size="14.00">P74 (a)</text>
</g>
<!-- 8 -->
<g id="node7" class="node">
<title>8</title>
<ellipse fill="none" stroke="black" cx="488" cy="-106" rx="50.09" ry="18"/>
<text text-anchor="middle" x="488" y="-102.3" font-family="Times,serif" font-size="14.00">V566 (a)</text>
</g>
<!-- 10 -->
<g id="node8" class="node">
<title>10</title>
<ellipse fill="none" stroke="black" cx="376" cy="-178" rx="50.09" ry="18"/>
<text text-anchor="middle" x="376" y="-174.3" font-family="Times,serif" font-size="14.00">Neap (a)</text>
</g>
<!-- 24 -->
<g id="node17" class="node">
<title>24</title>
<ellipse fill="none" stroke="black" cx="364" cy="-106" rx="55.79" ry="18"/>
<text text-anchor="middle" x="364" y="-102.3" font-family="Times,serif" font-size="14.00">V1629 (a)</text>
</g>
<!-- 10&#45;&gt;24 -->
<g id="edge16" class="edge">
<title>10&#45;&gt;24</title>
<path fill="none" stroke="black" stroke-dasharray="1,5" d="M373.03,-159.7C371.71,-151.98 370.12,-142.71 368.65,-134.11"/>
<polygon fill="black" stroke="black" points="372.07,-133.37 366.93,-124.1 365.17,-134.55 372.07,-133.37"/>
</g>
<!-- 13 -->
<g id="node9" class="node">
<title>13</title>
<ellipse fill="none" stroke="black" cx="600" cy="-106" rx="44.39" ry="18"/>
<text text-anchor="middle" x="600" y="-102.3" font-family="Times,serif" font-size="14.00">S32 (a)</text>
</g>
<!-- 14 -->
<g id="node10" class="node">
<title>14</title>
<ellipse fill="none" stroke="black" cx="487" cy="-178" rx="42.79" ry="18"/>
<text text-anchor="middle" x="487" y="-174.3" font-family="Times,serif" font-size="14.00">La2 (a)</text>
</g>
<!-- 16 -->
<g id="node11" class="node">
<title>16</title>
<ellipse fill="none" stroke="black" cx="601" cy="-178" rx="52.79" ry="18"/>
<text text-anchor="middle" x="601" y="-174.3" font-family="Times,serif" font-size="14.00">M136 (a)</text>
</g>
<!-- 17 -->
<g id="node12" class="node">
<title>17</title>
<ellipse fill="none" stroke="black" cx="1759" cy="-106" rx="48.99" ry="18"/>
<text text-anchor="middle" x="1759" y="-102.3" font-family="Times,serif" font-size="14.00">La35 (a)</text>
</g>
<!-- 21 -->
<g id="node15" class="node">
<title>21</title>
<ellipse fill="none" stroke="black" cx="716" cy="-178" rx="44.39" ry="18"/>
<text text-anchor="middle" x="716" y="-174.3" font-family="Times,serif" font-size="14.00">A25 (a)</text>
</g>
<!-- 21&#45;&gt;8 -->
<g id="edge6" class="edge">
<title>21&#45;&gt;8</title>
<path fill="none" stroke="black" stroke-dasharray="5,2" d="M682.38,-166.13C675.95,-164.07 669.27,-161.96 663,-160 619.83,-146.54 570.52,-131.65 535.27,-121.09"/>
<polygon fill="black" stroke="black" points="535.85,-117.61 525.26,-118.09 533.84,-124.31 535.85,-117.61"/>
</g>
<!-- 21&#45;&gt;13 -->
<g id="edge8" class="edge">
<title>21&#45;&gt;13</title>
<path fill="none" stroke="black" stroke-dasharray="5,2" d="M692.25,-162.67C674.96,-152.24 651.36,-138 632.36,-126.53"/>
<polygon fill="black" stroke="black" points="634.09,-123.49 623.72,-121.32 630.48,-129.48 634.09,-123.49"/>
</g>
<!-- 34 -->
<g id="node20" class="node">
<title>34</title>
<ellipse fill="none" stroke="black" cx="712" cy="-106" rx="50.09" ry="18"/>
<text text-anchor="middle" x="712" y="-102.3" font-family="Times,serif" font-size="14.00">Patm (a)</text>
</g>
<!-- 21&#45;&gt;34 -->
<g id="edge19" class="edge">
<title>21&#45;&gt;34</title>
<path fill="none" stroke="black" stroke-dasharray="1,5" d="M715.01,-159.7C714.57,-151.98 714.04,-142.71 713.55,-134.11"/>
<polygon fill="black" stroke="black" points="717.04,-133.89 712.98,-124.1 710.05,-134.29 717.04,-133.89"/>
</g>
<!-- 36 -->
<g id="node22" class="node">
<title>36</title>
<ellipse fill="none" stroke="black" cx="820" cy="-106" rx="40.09" ry="18"/>
<text text-anchor="middle" x="820" y="-102.3" font-family="Times,serif" font-size="14.00">Pal (a)</text>
</g>
<!-- 21&#45;&gt;36 -->
<g id="edge21" class="edge">
<title>21&#45;&gt;36</title>
<path fill="none" stroke="black" stroke-dasharray="5,2" d="M737.8,-162.33C753.02,-152.08 773.51,-138.29 790.23,-127.04"/>
<polygon fill="black" stroke="black" points="792.24,-129.9 798.58,-121.42 788.33,-124.1 792.24,-129.9"/>
</g>
<!-- 37 -->
<g id="node23" class="node">
<title>37</title>
<ellipse fill="none" stroke="black" cx="922" cy="-106" rx="44.39" ry="18"/>
<text text-anchor="middle" x="922" y="-102.3" font-family="Times,serif" font-size="14.00">P01 (a)</text>
</g>
<!-- 21&#45;&gt;37 -->
<g id="edge22" class="edge">
<title>21&#45;&gt;37</title>
<path fill="none" stroke="black" stroke-dasharray="5,2" d="M749.1,-165.75C784.39,-153.76 840.4,-134.73 879.06,-121.59"/>
<polygon fill="black" stroke="black" points="880.64,-124.75 888.98,-118.22 878.39,-118.12 880.64,-124.75"/>
</g>
<!-- 23 -->
<g id="node16" class="node">
<title>23</title>
<ellipse fill="none" stroke="black" cx="1040" cy="-178" rx="44.69" ry="18"/>
<text text-anchor="middle" x="1040" y="-174.3" font-family="Times,serif" font-size="14.00">Nan (a)</text>
</g>
<!-- 25 -->
<g id="node18" class="node">
<title>25</title>
<ellipse fill="none" stroke="black" cx="1040" cy="-106" rx="55.79" ry="18"/>
<text text-anchor="middle" x="1040" y="-102.3" font-family="Times,serif" font-size="14.00">V2250 (a)</text>
</g>
<!-- 23&#45;&gt;25 -->
<g id="edge17" class="edge">
<title>23&#45;&gt;25</title>
<path fill="none" stroke="black" stroke-dasharray="5,2" d="M1040,-159.7C1040,-151.98 1040,-142.71 1040,-134.11"/>
<polygon fill="black" stroke="black" points="1043.5,-134.1 1040,-124.1 1036.5,-134.1 1043.5,-134.1"/>
</g>
<!-- 42 -->
<g id="node26" class="node">
<title>42</title>
<ellipse fill="none" stroke="black" cx="1170" cy="-106" rx="55.79" ry="18"/>
<text text-anchor="middle" x="1170" y="-102.3" font-family="Times,serif" font-size="14.00">V1897 (a)</text>
</g>
<!-- 23&#45;&gt;42 -->
<g id="edge24" class="edge">
<title>23&#45;&gt;42</title>
<path fill="none" stroke="black" stroke-dasharray="1,5" d="M1065.68,-163.17C1085.11,-152.71 1112.03,-138.21 1133.67,-126.56"/>
<polygon fill="black" stroke="black" points="1135.43,-129.59 1142.57,-121.77 1132.11,-123.43 1135.43,-129.59"/>
</g>
<!-- 26 -->
<g id="node19" class="node">
<title>26</title>
<ellipse fill="none" stroke="black" cx="1536" cy="-178" rx="48.99" ry="18"/>
<text text-anchor="middle" x="1536" y="-174.3" font-family="Times,serif" font-size="14.00">La22 (a)</text>
</g>
<!-- 26&#45;&gt;0 -->
<g id="edge1" class="edge">
<title>26&#45;&gt;0</title>
<path fill="none" stroke="black" stroke-dasharray="1,5" d="M1498.92,-166.14C1457.63,-154.05 1390.75,-134.46 1345.38,-121.17"/>
<polygon fill="black" stroke="black" points="1346.34,-117.8 1335.76,-118.35 1344.37,-124.52 1346.34,-117.8"/>
</g>
<!-- 26&#45;&gt;2 -->
<g id="edge2" class="edge">
<title>26&#45;&gt;2</title>
<path fill="none" stroke="black" stroke-dasharray="5,2" d="M1511.26,-162.33C1493.88,-152.01 1470.42,-138.1 1451.38,-126.8"/>
<polygon fill="black" stroke="black" points="1453.09,-123.75 1442.7,-121.65 1449.52,-129.77 1453.09,-123.75"/>
</g>
<!-- 26&#45;&gt;3 -->
<g id="edge3" class="edge">
<title>26&#45;&gt;3</title>
<path fill="none" stroke="black" stroke-dasharray="5,2" d="M1536,-159.7C1536,-151.98 1536,-142.71 1536,-134.11"/>
<polygon fill="black" stroke="black" points="1539.5,-134.1 1536,-124.1 1532.5,-134.1 1539.5,-134.1"/>
</g>
<!-- 26&#45;&gt;7 -->
<g id="edge5" class="edge">
<title>26&#45;&gt;7</title>
<path fill="none" stroke="black" stroke-dasharray="1,5" d="M1559.75,-162.15C1576.05,-151.97 1597.87,-138.33 1615.73,-127.17"/>
<polygon fill="black" stroke="black" points="1618.04,-129.85 1624.67,-121.58 1614.33,-123.92 1618.04,-129.85"/>
</g>
<!-- 26&#45;&gt;17 -->
<g id="edge11" class="edge">
<title>26&#45;&gt;17</title>
<path fill="none" stroke="black" stroke-dasharray="1,5" d="M1571.83,-165.75C1610.24,-153.7 1671.34,-134.52 1713.21,-121.37"/>
<polygon fill="black" stroke="black" points="1714.4,-124.67 1722.89,-118.33 1712.3,-117.99 1714.4,-124.67"/>
</g>
<!-- 39 -->
<g id="node24" class="node">
<title>39</title>
<ellipse fill="none" stroke="black" cx="1873" cy="-106" rx="46.59" ry="18"/>
<text text-anchor="middle" x="1873" y="-102.3" font-family="Times,serif" font-size="14.00">Bodl (a)</text>
</g>
<!-- 26&#45;&gt;39 -->
<g id="edge23" class="edge">
<title>26&#45;&gt;39</title>
<path fill="none" stroke="black" stroke-dasharray="5,2" d="M1580.12,-170.2C1635.73,-161.28 1734.07,-144.35 1817,-124 1820.78,-123.07 1824.68,-122.04 1828.58,-120.96"/>
<polygon fill="black" stroke="black" points="1829.56,-124.32 1838.21,-118.2 1827.63,-117.59 1829.56,-124.32"/>
</g>
<!-- 35 -->
<g id="node21" class="node">
<title>35</title>
<ellipse fill="none" stroke="black" cx="1170" cy="-34" rx="42.79" ry="18"/>
<text text-anchor="middle" x="1170" y="-30.3" font-family="Times,serif" font-size="14.00">Bas (a)</text>
</g>
<!-- 40 -->
<g id="node25" class="node">
<title>40</title>
<ellipse fill="none" stroke="black" cx="601" cy="-251" rx="53.89" ry="18"/>
<text text-anchor="middle" x="601" y="-247.3" font-family="Times,serif" font-size="14.00">aBase (a)</text>
</g>
<!-- 40&#45;&gt;5 -->
<g id="edge4" class="edge">
<title>40&#45;&gt;5</title>
<path fill="none" stroke="black" d="M553.77,-242.21C497.22,-232.6 399.75,-215.18 317,-196 312.66,-194.99 308.17,-193.89 303.68,-192.74"/>
<polygon fill="black" stroke="black" points="304.47,-189.33 293.91,-190.18 302.69,-196.1 304.47,-189.33"/>
</g>
<!-- 40&#45;&gt;10 -->
<g id="edge7" class="edge">
<title>40&#45;&gt;10</title>
<path fill="none" stroke="black" stroke-width="2" d="M563.09,-238.04C524.24,-225.78 463.81,-206.71 422.2,-193.58"/>
<polygon fill="black" stroke="black" stroke-width="2" points="423.16,-190.21 412.57,-190.54 421.06,-196.89 423.16,-190.21"/>
</g>
<!-- 40&#45;&gt;14 -->
<g id="edge9" class="edge">
<title>40&#45;&gt;14</title>
<path fill="none" stroke="black" stroke-width="2" d="M576.54,-234.77C559.56,-224.19 536.79,-210.01 518.46,-198.59"/>
<polygon fill="black" stroke="black" stroke-width="2" points="520.2,-195.55 509.86,-193.24 516.5,-201.5 520.2,-195.55"/>
</g>
<!-- 40&#45;&gt;16 -->
<g id="edge10" class="edge">
<title>40&#45;&gt;16</title>
<path fill="none" stroke="black" stroke-width="2" d="M601,-232.81C601,-224.79 601,-215.05 601,-206.07"/>
<polygon fill="black" stroke="black" stroke-width="2" points="604.5,-206.03 601,-196.03 597.5,-206.03 604.5,-206.03"/>
</g>
<!-- 40&#45;&gt;21 -->
<g id="edge14" class="edge">
<title>40&#45;&gt;21</title>
<path fill="none" stroke="black" stroke-dasharray="5,2" d="M625.39,-234.94C642.39,-224.45 665.24,-210.34 683.74,-198.91"/>
<polygon fill="black" stroke="black" points="685.76,-201.78 692.43,-193.55 682.09,-195.83 685.76,-201.78"/>
</g>
<!-- 40&#45;&gt;23 -->
<g id="edge15" class="edge">
<title>40&#45;&gt;23</title>
<path fill="none" stroke="black" d="M648.4,-242.33C731.7,-228.86 903.63,-201.06 989.25,-187.21"/>
<polygon fill="black" stroke="black" points="989.94,-190.64 999.25,-185.59 988.82,-183.73 989.94,-190.64"/>
</g>
<!-- 40&#45;&gt;26 -->
<g id="edge18" class="edge">
<title>40&#45;&gt;26</title>
<path fill="none" stroke="black" stroke-dasharray="5,2" d="M652.94,-246.06C814.83,-233.76 1309.56,-196.19 1478.64,-183.36"/>
<polygon fill="black" stroke="black" points="1479.12,-186.83 1488.83,-182.58 1478.59,-179.85 1479.12,-186.83"/>
</g>
<!-- 42&#45;&gt;35 -->
<g id="edge20" class="edge">
<title>42&#45;&gt;35</title>
<path fill="none" stroke="black" d="M1170,-87.7C1170,-79.98 1170,-70.71 1170,-62.11"/>
<polygon fill="black" stroke="black" points="1173.5,-62.1 1170,-52.1 1166.5,-62.1 1173.5,-62.1"/>
</g>
</g>
</svg>
