<?xml version="1.0" encoding="UTF-8" standalone="no"?>
<!DOCTYPE svg PUBLIC "-//W3C//DTD SVG 1.1//EN"
 "http://www.w3.org/Graphics/SVG/1.1/DTD/svg11.dtd">
<!-- Generated by graphviz version 2.43.0 (0)
 -->
<!-- Title: textual_flow_diagram Pages: 1 -->
<svg width="545pt" height="234pt"
 viewBox="0.00 0.00 545.00 234.00" xmlns="http://www.w3.org/2000/svg" xmlns:xlink="http://www.w3.org/1999/xlink">
<g id="graph0" class="graph" transform="scale(1 1) rotate(0) translate(4 230)">
<title>textual_flow_diagram</title>
<polygon fill="white" stroke="transparent" points="-4,4 -4,-230 541,-230 541,4 -4,4"/>
<g id="clust1" class="cluster">
<title>cluster_legend</title>
<polygon fill="none" stroke="black" points="8,-164 8,-218 204,-218 204,-164 8,-164"/>
</g>
<g id="clust2" class="cluster">
<title>cluster_plot</title>
</g>
<!-- label -->
<g id="node1" class="node">
<title>label</title>
<text text-anchor="middle" x="106" y="-194.8" font-family="Times,serif" font-size="14.00">adstag1.2.18U24&#45;28, c</text>
<text text-anchor="middle" x="106" y="-179.8" font-family="Times,serif" font-size="14.00">Con = 5</text>
</g>
<!-- 0 -->
<g id="node2" class="node">
<title>0</title>
<ellipse fill="none" stroke="black" cx="376" cy="-117" rx="43.59" ry="18"/>
<text text-anchor="middle" x="376" y="-113.3" font-family="Times,serif" font-size="14.00">A25 (c)</text>
</g>
<!-- 7 -->
<g id="node3" class="node">
<title>7</title>
<ellipse fill="none" stroke="black" cx="269" cy="-34" rx="49.29" ry="18"/>
<text text-anchor="middle" x="269" y="-30.3" font-family="Times,serif" font-size="14.00">A336 (c)</text>
</g>
<!-- 0&#45;&gt;7 -->
<g id="edge2" class="edge">
<title>0&#45;&gt;7</title>
<path fill="none" stroke="black" stroke-dasharray="5,2" d="M356.12,-100.95C339.67,-88.5 316.07,-70.63 297.59,-56.64"/>
<polygon fill="black" stroke="black" points="299.58,-53.76 289.5,-50.52 295.36,-59.34 299.58,-53.76"/>
<text text-anchor="middle" x="331.5" y="-73" font-family="Times,serif" font-size="10.00">4</text>
</g>
<!-- 15 -->
<g id="node4" class="node">
<title>15</title>
<ellipse fill="none" stroke="black" cx="376" cy="-34" rx="39.79" ry="18"/>
<text text-anchor="middle" x="376" y="-30.3" font-family="Times,serif" font-size="14.00">Pal (c)</text>
</g>
<!-- 0&#45;&gt;15 -->
<g id="edge3" class="edge">
<title>0&#45;&gt;15</title>
<path fill="none" stroke="black" stroke-dasharray="5,2" d="M376,-98.82C376,-88.19 376,-74.31 376,-62.2"/>
<polygon fill="black" stroke="black" points="379.5,-62.15 376,-52.15 372.5,-62.15 379.5,-62.15"/>
</g>
<!-- 22 -->
<g id="node5" class="node">
<title>22</title>
<ellipse fill="none" stroke="black" cx="477" cy="-34" rx="43.59" ry="18"/>
<text text-anchor="middle" x="477" y="-30.3" font-family="Times,serif" font-size="14.00">S32 (c)</text>
</g>
<!-- 0&#45;&gt;22 -->
<g id="edge4" class="edge">
<title>0&#45;&gt;22</title>
<path fill="none" stroke="black" stroke-dasharray="5,2" d="M395,-100.76C410.42,-88.4 432.36,-70.8 449.67,-56.92"/>
<polygon fill="black" stroke="black" points="452.13,-59.43 457.74,-50.44 447.75,-53.97 452.13,-59.43"/>
</g>
<!-- 11 -->
<g id="node6" class="node">
<title>11</title>
<ellipse fill="none" stroke="blue" stroke-dasharray="5,2" cx="376" cy="-191" rx="53.89" ry="18"/>
<text text-anchor="middle" x="376" y="-187.3" font-family="Times,serif" font-size="14.00">aBase (a)</text>
</g>
<!-- 11&#45;&gt;0 -->
<g id="edge1" class="edge">
<title>11&#45;&gt;0</title>
<path fill="none" stroke="blue" stroke-dasharray="5,2" d="M376,-172.94C376,-164.81 376,-154.88 376,-145.7"/>
<polygon fill="blue" stroke="blue" points="379.5,-145.44 376,-135.44 372.5,-145.44 379.5,-145.44"/>
</g>
</g>
</svg>
