<?xml version="1.0" encoding="UTF-8" standalone="no"?>
<!DOCTYPE svg PUBLIC "-//W3C//DTD SVG 1.1//EN"
 "http://www.w3.org/Graphics/SVG/1.1/DTD/svg11.dtd">
<!-- Generated by graphviz version 2.43.0 (0)
 -->
<!-- Title: textual_flow_diagram Pages: 1 -->
<svg width="395pt" height="199pt"
 viewBox="0.00 0.00 395.00 199.00" xmlns="http://www.w3.org/2000/svg" xmlns:xlink="http://www.w3.org/1999/xlink">
<g id="graph0" class="graph" transform="scale(1 1) rotate(0) translate(4 195)">
<title>textual_flow_diagram</title>
<polygon fill="white" stroke="transparent" points="-4,4 -4,-195 391,-195 391,4 -4,4"/>
<g id="clust1" class="cluster">
<title>cluster_legend</title>
<polygon fill="none" stroke="black" points="8,-99 8,-153 164,-153 164,-99 8,-99"/>
</g>
<g id="clust2" class="cluster">
<title>cluster_plot</title>
</g>
<g id="clust3" class="cluster">
<title>cluster_a</title>
<polygon fill="none" stroke="black" points="180,-100 180,-175 371,-175 371,-100 180,-100"/>
<text text-anchor="middle" x="275.5" y="-159.8" font-family="Times,serif" font-size="14.00">a</text>
</g>
<g id="clust4" class="cluster">
<title>cluster_b</title>
<polygon fill="none" stroke="black" points="200,-16 200,-91 358,-91 358,-16 200,-16"/>
<text text-anchor="middle" x="279" y="-75.8" font-family="Times,serif" font-size="14.00">b</text>
</g>
<!-- label -->
<g id="node1" class="node">
<title>label</title>
<text text-anchor="middle" x="86" y="-129.8" font-family="Times,serif" font-size="14.00">adstag1.3.75U38</text>
<text text-anchor="middle" x="86" y="-114.8" font-family="Times,serif" font-size="14.00">Con = 5</text>
</g>
<!-- 20 -->
<g id="node2" class="node">
<title>20</title>
<ellipse fill="none" stroke="black" cx="325" cy="-126" rx="38.19" ry="18"/>
<text text-anchor="middle" x="325" y="-122.3" font-family="Times,serif" font-size="14.00">aBase</text>
</g>
<!-- 15 -->
<g id="node4" class="node">
<title>15</title>
<ellipse fill="none" stroke="black" cx="316" cy="-42" rx="34.39" ry="18"/>
<text text-anchor="middle" x="316" y="-38.3" font-family="Times,serif" font-size="14.00">V560</text>
</g>
<!-- 20&#45;&gt;15 -->
<g id="edge1" class="edge">
<title>20&#45;&gt;15</title>
<path fill="none" stroke="blue" stroke-width="2" d="M323.14,-108.01C321.95,-97.2 320.38,-82.95 319.02,-70.54"/>
<polygon fill="blue" stroke="blue" stroke-width="2" points="322.46,-69.81 317.89,-60.25 315.51,-70.57 322.46,-69.81"/>
</g>
<!-- 26 -->
<g id="node3" class="node">
<title>26</title>
<ellipse fill="none" stroke="black" cx="228" cy="-126" rx="40.09" ry="18"/>
<text text-anchor="middle" x="228" y="-122.3" font-family="Times,serif" font-size="14.00">V1897</text>
</g>
<!-- 40 -->
<g id="node5" class="node">
<title>40</title>
<ellipse fill="none" stroke="black" cx="236" cy="-42" rx="27.9" ry="18"/>
<text text-anchor="middle" x="236" y="-38.3" font-family="Times,serif" font-size="14.00">Bas</text>
</g>
<!-- 26&#45;&gt;40 -->
<g id="edge2" class="edge">
<title>26&#45;&gt;40</title>
<path fill="none" stroke="blue" d="M229.66,-108.01C230.72,-97.12 232.12,-82.75 233.34,-70.29"/>
<polygon fill="blue" stroke="blue" points="236.86,-70.26 234.34,-59.97 229.89,-69.58 236.86,-70.26"/>
</g>
</g>
</svg>
