<?xml version="1.0" encoding="UTF-8" standalone="no"?>
<!DOCTYPE svg PUBLIC "-//W3C//DTD SVG 1.1//EN"
 "http://www.w3.org/Graphics/SVG/1.1/DTD/svg11.dtd">
<!-- Generated by graphviz version 2.43.0 (0)
 -->
<!-- Title: textual_flow_diagram Pages: 1 -->
<svg width="296pt" height="199pt"
 viewBox="0.00 0.00 296.00 199.00" xmlns="http://www.w3.org/2000/svg" xmlns:xlink="http://www.w3.org/1999/xlink">
<g id="graph0" class="graph" transform="scale(1 1) rotate(0) translate(4 195)">
<title>textual_flow_diagram</title>
<polygon fill="white" stroke="transparent" points="-4,4 -4,-195 292,-195 292,4 -4,4"/>
<g id="clust1" class="cluster">
<title>cluster_legend</title>
<polygon fill="none" stroke="black" points="8,-99 8,-153 172,-153 172,-99 8,-99"/>
</g>
<g id="clust2" class="cluster">
<title>cluster_plot</title>
</g>
<g id="clust3" class="cluster">
<title>cluster_a</title>
<polygon fill="none" stroke="black" points="190,-100 190,-175 270,-175 270,-100 190,-100"/>
<text text-anchor="middle" x="230" y="-159.8" font-family="Times,serif" font-size="14.00">a</text>
</g>
<g id="clust4" class="cluster">
<title>cluster_b</title>
<polygon fill="none" stroke="black" points="188,-16 188,-91 272,-91 272,-16 188,-16"/>
<text text-anchor="middle" x="230" y="-75.8" font-family="Times,serif" font-size="14.00">b</text>
</g>
<!-- label -->
<g id="node1" class="node">
<title>label</title>
<text text-anchor="middle" x="90" y="-129.8" font-family="Times,serif" font-size="14.00">adstag1.2.40U100</text>
<text text-anchor="middle" x="90" y="-114.8" font-family="Times,serif" font-size="14.00">Con = 5</text>
</g>
<!-- 6 -->
<g id="node2" class="node">
<title>6</title>
<ellipse fill="none" stroke="black" cx="230" cy="-126" rx="31.7" ry="18"/>
<text text-anchor="middle" x="230" y="-122.3" font-family="Times,serif" font-size="14.00">Taur</text>
</g>
<!-- 8 -->
<g id="node3" class="node">
<title>8</title>
<ellipse fill="none" stroke="black" cx="230" cy="-42" rx="34.39" ry="18"/>
<text text-anchor="middle" x="230" y="-38.3" font-family="Times,serif" font-size="14.00">Marc</text>
</g>
<!-- 6&#45;&gt;8 -->
<g id="edge1" class="edge">
<title>6&#45;&gt;8</title>
<path fill="none" stroke="blue" stroke-dasharray="1,5" d="M230,-107.61C230,-96.77 230,-82.6 230,-70.29"/>
<polygon fill="blue" stroke="blue" points="233.5,-70.08 230,-60.08 226.5,-70.08 233.5,-70.08"/>
</g>
</g>
</svg>
