<?xml version="1.0" encoding="UTF-8" standalone="no"?>
<!DOCTYPE svg PUBLIC "-//W3C//DTD SVG 1.1//EN"
 "http://www.w3.org/Graphics/SVG/1.1/DTD/svg11.dtd">
<!-- Generated by graphviz version 2.43.0 (0)
 -->
<!-- Title: textual_flow_diagram Pages: 1 -->
<svg width="551pt" height="314pt"
 viewBox="0.00 0.00 551.00 314.00" xmlns="http://www.w3.org/2000/svg" xmlns:xlink="http://www.w3.org/1999/xlink">
<g id="graph0" class="graph" transform="scale(1 1) rotate(0) translate(4 310)">
<title>textual_flow_diagram</title>
<polygon fill="white" stroke="transparent" points="-4,4 -4,-310 547,-310 547,4 -4,4"/>
<g id="clust1" class="cluster">
<title>cluster_legend</title>
<polygon fill="none" stroke="black" points="8,-214 8,-268 164,-268 164,-214 8,-214"/>
</g>
<g id="clust2" class="cluster">
<title>cluster_plot</title>
</g>
<g id="clust3" class="cluster">
<title>cluster_a</title>
<polygon fill="none" stroke="black" points="180,-215 180,-290 527,-290 527,-215 180,-215"/>
<text text-anchor="middle" x="353.5" y="-274.8" font-family="Times,serif" font-size="14.00">a</text>
</g>
<g id="clust4" class="cluster">
<title>cluster_b</title>
<polygon fill="none" stroke="black" points="192,-120 192,-195 375,-195 375,-120 192,-120"/>
<text text-anchor="middle" x="283.5" y="-179.8" font-family="Times,serif" font-size="14.00">b</text>
</g>
<g id="clust5" class="cluster">
<title>cluster_c</title>
<polygon fill="none" stroke="black" points="198,-16 198,-91 364,-91 364,-16 198,-16"/>
<text text-anchor="middle" x="281" y="-75.8" font-family="Times,serif" font-size="14.00">c</text>
</g>
<g id="clust6" class="cluster">
<title>cluster_d</title>
<polygon fill="none" stroke="black" points="383,-120 383,-195 475,-195 475,-120 383,-120"/>
<text text-anchor="middle" x="429" y="-179.8" font-family="Times,serif" font-size="14.00">d</text>
</g>
<!-- label -->
<g id="node1" class="node">
<title>label</title>
<text text-anchor="middle" x="86" y="-244.8" font-family="Times,serif" font-size="14.00">adstag1.3.43U12</text>
<text text-anchor="middle" x="86" y="-229.8" font-family="Times,serif" font-size="14.00">Con = 10</text>
</g>
<!-- 0 -->
<g id="node2" class="node">
<title>0</title>
<ellipse fill="none" stroke="black" cx="226" cy="-241" rx="38.19" ry="18"/>
<text text-anchor="middle" x="226" y="-237.3" font-family="Times,serif" font-size="14.00">aBase</text>
</g>
<!-- 25 -->
<g id="node9" class="node">
<title>25</title>
<ellipse fill="none" stroke="black" cx="244" cy="-42" rx="37.89" ry="18"/>
<text text-anchor="middle" x="244" y="-38.3" font-family="Times,serif" font-size="14.00">LaSM</text>
</g>
<!-- 0&#45;&gt;25 -->
<g id="edge4" class="edge">
<title>0&#45;&gt;25</title>
<path fill="none" stroke="blue" d="M208.39,-224.75C200.54,-216.78 192.14,-206.33 188,-195 176.55,-163.69 177.69,-151.7 188,-120 194.58,-99.76 208.7,-80.41 221.12,-66.17"/>
<polygon fill="blue" stroke="blue" points="224.04,-68.16 228.16,-58.4 218.85,-63.46 224.04,-68.16"/>
</g>
<!-- 15 -->
<g id="node3" class="node">
<title>15</title>
<ellipse fill="none" stroke="black" cx="311" cy="-241" rx="28.7" ry="18"/>
<text text-anchor="middle" x="311" y="-237.3" font-family="Times,serif" font-size="14.00">A25</text>
</g>
<!-- 19 -->
<g id="node6" class="node">
<title>19</title>
<ellipse fill="none" stroke="black" cx="333" cy="-146" rx="34.39" ry="18"/>
<text text-anchor="middle" x="333" y="-142.3" font-family="Times,serif" font-size="14.00">V566</text>
</g>
<!-- 15&#45;&gt;19 -->
<g id="edge3" class="edge">
<title>15&#45;&gt;19</title>
<path fill="none" stroke="blue" stroke-dasharray="5,2" d="M315.04,-222.94C318.29,-209.18 322.93,-189.56 326.68,-173.72"/>
<polygon fill="blue" stroke="blue" points="330.09,-174.49 328.99,-163.95 323.28,-172.88 330.09,-174.49"/>
</g>
<!-- 27 -->
<g id="node4" class="node">
<title>27</title>
<ellipse fill="none" stroke="black" cx="389" cy="-241" rx="31.7" ry="18"/>
<text text-anchor="middle" x="389" y="-237.3" font-family="Times,serif" font-size="14.00">Taur</text>
</g>
<!-- 39 -->
<g id="node10" class="node">
<title>39</title>
<ellipse fill="none" stroke="black" cx="429" cy="-146" rx="37.89" ry="18"/>
<text text-anchor="middle" x="429" y="-142.3" font-family="Times,serif" font-size="14.00">M118</text>
</g>
<!-- 27&#45;&gt;39 -->
<g id="edge6" class="edge">
<title>27&#45;&gt;39</title>
<path fill="none" stroke="blue" stroke-dasharray="5,2" d="M396.15,-223.37C402.14,-209.44 410.8,-189.31 417.73,-173.21"/>
<polygon fill="blue" stroke="blue" points="421.04,-174.37 421.78,-163.8 414.61,-171.6 421.04,-174.37"/>
</g>
<!-- 37 -->
<g id="node5" class="node">
<title>37</title>
<ellipse fill="none" stroke="black" cx="479" cy="-241" rx="40.09" ry="18"/>
<text text-anchor="middle" x="479" y="-237.3" font-family="Times,serif" font-size="14.00">V1897</text>
</g>
<!-- 8 -->
<g id="node8" class="node">
<title>8</title>
<ellipse fill="none" stroke="black" cx="328" cy="-42" rx="27.9" ry="18"/>
<text text-anchor="middle" x="328" y="-38.3" font-family="Times,serif" font-size="14.00">Bas</text>
</g>
<!-- 37&#45;&gt;8 -->
<g id="edge1" class="edge">
<title>37&#45;&gt;8</title>
<path fill="none" stroke="blue" d="M484.18,-223.01C490.63,-198.31 498.59,-151.98 479,-120 454.24,-79.58 400.84,-59.54 364.66,-50.23"/>
<polygon fill="blue" stroke="blue" points="365.03,-46.72 354.49,-47.78 363.39,-53.53 365.03,-46.72"/>
</g>
<!-- 19&#45;&gt;8 -->
<g id="edge2" class="edge">
<title>19&#45;&gt;8</title>
<path fill="none" stroke="blue" stroke-width="2" d="M332.15,-127.7C331.38,-111.92 330.22,-88.36 329.33,-70.09"/>
<polygon fill="blue" stroke="blue" stroke-width="2" points="332.82,-69.86 328.84,-60.05 325.83,-70.21 332.82,-69.86"/>
<text text-anchor="middle" x="337.5" y="-102" font-family="Times,serif" font-size="10.00">10</text>
</g>
<!-- 36 -->
<g id="node7" class="node">
<title>36</title>
<ellipse fill="none" stroke="black" cx="240" cy="-146" rx="40.09" ry="18"/>
<text text-anchor="middle" x="240" y="-142.3" font-family="Times,serif" font-size="14.00">V1639</text>
</g>
<!-- 36&#45;&gt;25 -->
<g id="edge5" class="edge">
<title>36&#45;&gt;25</title>
<path fill="none" stroke="blue" stroke-dasharray="5,2" d="M240.68,-127.7C241.3,-111.92 242.22,-88.36 242.94,-70.09"/>
<polygon fill="blue" stroke="blue" points="246.44,-70.18 243.33,-60.05 239.44,-69.9 246.44,-70.18"/>
<text text-anchor="middle" x="244.5" y="-102" font-family="Times,serif" font-size="10.00">6</text>
</g>
</g>
</svg>
