<?xml version="1.0" encoding="UTF-8" standalone="no"?>
<!DOCTYPE svg PUBLIC "-//W3C//DTD SVG 1.1//EN"
 "http://www.w3.org/Graphics/SVG/1.1/DTD/svg11.dtd">
<!-- Generated by graphviz version 2.43.0 (0)
 -->
<!-- Title: textual_flow_diagram Pages: 1 -->
<svg width="517pt" height="314pt"
 viewBox="0.00 0.00 517.00 314.00" xmlns="http://www.w3.org/2000/svg" xmlns:xlink="http://www.w3.org/1999/xlink">
<g id="graph0" class="graph" transform="scale(1 1) rotate(0) translate(4 310)">
<title>textual_flow_diagram</title>
<polygon fill="white" stroke="transparent" points="-4,4 -4,-310 513,-310 513,4 -4,4"/>
<g id="clust1" class="cluster">
<title>cluster_legend</title>
<polygon fill="none" stroke="black" points="8,-214 8,-268 164,-268 164,-214 8,-214"/>
</g>
<g id="clust2" class="cluster">
<title>cluster_plot</title>
</g>
<g id="clust3" class="cluster">
<title>cluster_a</title>
<polygon fill="none" stroke="black" points="325,-215 325,-290 493,-290 493,-215 325,-215"/>
<text text-anchor="middle" x="409" y="-274.8" font-family="Times,serif" font-size="14.00">a</text>
</g>
<g id="clust4" class="cluster">
<title>cluster_b</title>
<polygon fill="none" stroke="black" points="258,-120 258,-195 441,-195 441,-120 258,-120"/>
<text text-anchor="middle" x="349.5" y="-179.8" font-family="Times,serif" font-size="14.00">b</text>
</g>
<g id="clust5" class="cluster">
<title>cluster_c</title>
<polygon fill="none" stroke="black" points="323,-16 323,-91 493,-91 493,-16 323,-16"/>
<text text-anchor="middle" x="408" y="-75.8" font-family="Times,serif" font-size="14.00">c</text>
</g>
<g id="clust6" class="cluster">
<title>cluster_d</title>
<polygon fill="none" stroke="black" points="180,-120 180,-195 250,-195 250,-120 180,-120"/>
<text text-anchor="middle" x="215" y="-179.8" font-family="Times,serif" font-size="14.00">d</text>
</g>
<g id="clust7" class="cluster">
<title>cluster_e</title>
<polygon fill="none" stroke="black" points="199,-16 199,-91 315,-91 315,-16 199,-16"/>
<text text-anchor="middle" x="257" y="-75.8" font-family="Times,serif" font-size="14.00">e</text>
</g>
<!-- label -->
<g id="node1" class="node">
<title>label</title>
<text text-anchor="middle" x="86" y="-244.8" font-family="Times,serif" font-size="14.00">adstag1.4.17U18</text>
<text text-anchor="middle" x="86" y="-229.8" font-family="Times,serif" font-size="14.00">Con = 3</text>
</g>
<!-- 14 -->
<g id="node2" class="node">
<title>14</title>
<ellipse fill="none" stroke="black" cx="362" cy="-241" rx="28.7" ry="18"/>
<text text-anchor="middle" x="362" y="-237.3" font-family="Times,serif" font-size="14.00">A25</text>
</g>
<!-- 22 -->
<g id="node5" class="node">
<title>22</title>
<ellipse fill="none" stroke="black" cx="399" cy="-146" rx="34.39" ry="18"/>
<text text-anchor="middle" x="399" y="-142.3" font-family="Times,serif" font-size="14.00">V566</text>
</g>
<!-- 14&#45;&gt;22 -->
<g id="edge7" class="edge">
<title>14&#45;&gt;22</title>
<path fill="none" stroke="blue" stroke-dasharray="5,2" d="M368.61,-223.37C374.16,-209.44 382.17,-189.31 388.57,-173.21"/>
<polygon fill="blue" stroke="blue" points="391.87,-174.38 392.32,-163.8 385.37,-171.79 391.87,-174.38"/>
</g>
<!-- 29 -->
<g id="node8" class="node">
<title>29</title>
<ellipse fill="none" stroke="black" cx="215" cy="-146" rx="27" ry="18"/>
<text text-anchor="middle" x="215" y="-142.3" font-family="Times,serif" font-size="14.00">Pal</text>
</g>
<!-- 14&#45;&gt;29 -->
<g id="edge8" class="edge">
<title>14&#45;&gt;29</title>
<path fill="none" stroke="blue" stroke-dasharray="5,2" d="M336.16,-233.18C313.05,-226.2 279.06,-213.72 254,-195 245.23,-188.45 237.25,-179.49 230.83,-171.1"/>
<polygon fill="blue" stroke="blue" points="233.66,-169.04 224.96,-162.99 228,-173.14 233.66,-169.04"/>
</g>
<!-- 16 -->
<g id="node3" class="node">
<title>16</title>
<ellipse fill="none" stroke="black" cx="447" cy="-241" rx="38.19" ry="18"/>
<text text-anchor="middle" x="447" y="-237.3" font-family="Times,serif" font-size="14.00">aBase</text>
</g>
<!-- 7 -->
<g id="node6" class="node">
<title>7</title>
<ellipse fill="none" stroke="black" cx="447" cy="-42" rx="37.89" ry="18"/>
<text text-anchor="middle" x="447" y="-38.3" font-family="Times,serif" font-size="14.00">LaSM</text>
</g>
<!-- 16&#45;&gt;7 -->
<g id="edge1" class="edge">
<title>16&#45;&gt;7</title>
<path fill="none" stroke="blue" d="M463.76,-224.71C469.05,-218.82 474.23,-211.65 477,-204 492.89,-160.12 488.36,-144.26 477,-99 474.3,-88.25 469.1,-77.31 463.77,-67.98"/>
<polygon fill="blue" stroke="blue" points="466.67,-66.01 458.49,-59.27 460.68,-69.63 466.67,-66.01"/>
</g>
<!-- 17 -->
<g id="node7" class="node">
<title>17</title>
<ellipse fill="none" stroke="black" cx="361" cy="-42" rx="29.8" ry="18"/>
<text text-anchor="middle" x="361" y="-38.3" font-family="Times,serif" font-size="14.00">Nan</text>
</g>
<!-- 16&#45;&gt;17 -->
<g id="edge5" class="edge">
<title>16&#45;&gt;17</title>
<path fill="none" stroke="blue" d="M454.95,-223.27C467.48,-194.17 487.43,-134 457,-99 440.22,-79.69 422.28,-103.58 400,-91 390.32,-85.54 382.1,-76.64 375.73,-67.99"/>
<polygon fill="blue" stroke="blue" points="378.51,-65.86 370,-59.55 372.72,-69.79 378.51,-65.86"/>
</g>
<!-- 13 -->
<g id="node9" class="node">
<title>13</title>
<ellipse fill="none" stroke="black" cx="257" cy="-42" rx="50.09" ry="18"/>
<text text-anchor="middle" x="257" y="-38.3" font-family="Times,serif" font-size="14.00">Savile&#45;Η</text>
</g>
<!-- 16&#45;&gt;13 -->
<g id="edge2" class="edge">
<title>16&#45;&gt;13</title>
<path fill="none" stroke="blue" stroke-width="2" d="M452.1,-222.78C458.4,-197.81 465.91,-151.14 445,-120 412.97,-72.29 372.34,-112.38 319,-91 304.9,-85.35 291.32,-75.51 280.48,-66.2"/>
<polygon fill="blue" stroke="blue" stroke-width="2" points="282.54,-63.35 272.76,-59.27 277.86,-68.55 282.54,-63.35"/>
</g>
<!-- 20 -->
<g id="node4" class="node">
<title>20</title>
<ellipse fill="none" stroke="black" cx="306" cy="-146" rx="40.09" ry="18"/>
<text text-anchor="middle" x="306" y="-142.3" font-family="Times,serif" font-size="14.00">V1639</text>
</g>
<!-- 20&#45;&gt;13 -->
<g id="edge3" class="edge">
<title>20&#45;&gt;13</title>
<path fill="none" stroke="blue" d="M297.91,-128.16C290.18,-112.06 278.41,-87.57 269.48,-68.98"/>
<polygon fill="blue" stroke="blue" points="272.59,-67.37 265.1,-59.87 266.28,-70.4 272.59,-67.37"/>
<text text-anchor="middle" x="291.5" y="-102" font-family="Times,serif" font-size="10.00">2</text>
</g>
<!-- 22&#45;&gt;17 -->
<g id="edge6" class="edge">
<title>22&#45;&gt;17</title>
<path fill="none" stroke="blue" stroke-dasharray="5,2" d="M392.73,-128.16C386.78,-112.21 377.77,-88.02 370.87,-69.49"/>
<polygon fill="blue" stroke="blue" points="374.06,-68.02 367.28,-59.87 367.5,-70.46 374.06,-68.02"/>
<text text-anchor="middle" x="388.5" y="-102" font-family="Times,serif" font-size="10.00">3</text>
</g>
<!-- 29&#45;&gt;13 -->
<g id="edge4" class="edge">
<title>29&#45;&gt;13</title>
<path fill="none" stroke="blue" d="M221.94,-128.16C228.53,-112.14 238.55,-87.8 246.2,-69.23"/>
<polygon fill="blue" stroke="blue" points="249.48,-70.45 250.05,-59.87 243.01,-67.78 249.48,-70.45"/>
<text text-anchor="middle" x="236.5" y="-102" font-family="Times,serif" font-size="10.00">2</text>
</g>
</g>
</svg>
