<?xml version="1.0" encoding="UTF-8" standalone="no"?>
<!DOCTYPE svg PUBLIC "-//W3C//DTD SVG 1.1//EN"
 "http://www.w3.org/Graphics/SVG/1.1/DTD/svg11.dtd">
<!-- Generated by graphviz version 2.43.0 (0)
 -->
<!-- Title: textual_flow_diagram Pages: 1 -->
<svg width="1144pt" height="454pt"
 viewBox="0.00 0.00 1144.00 453.50" xmlns="http://www.w3.org/2000/svg" xmlns:xlink="http://www.w3.org/1999/xlink">
<g id="graph0" class="graph" transform="scale(1 1) rotate(0) translate(4 449.5)">
<title>textual_flow_diagram</title>
<polygon fill="white" stroke="transparent" points="-4,4 -4,-449.5 1140,-449.5 1140,4 -4,4"/>
<g id="clust1" class="cluster">
<title>cluster_legend</title>
<polygon fill="none" stroke="black" points="8,-260 8,-314 186,-314 186,-260 8,-260"/>
</g>
<g id="clust2" class="cluster">
<title>cluster_plot</title>
</g>
<g id="clust3" class="cluster">
<title>cluster_a</title>
<polygon fill="none" stroke="black" points="835,-261 835,-359 1014,-359 1014,-261 835,-261"/>
<text text-anchor="middle" x="924.5" y="-343.8" font-family="Times,serif" font-size="14.00">a</text>
</g>
<g id="clust4" class="cluster">
<title>cluster_b</title>
<polygon fill="none" stroke="black" points="735,-261 735,-359 809,-359 809,-261 735,-261"/>
<text text-anchor="middle" x="772" y="-343.8" font-family="Times,serif" font-size="14.00">b</text>
</g>
<g id="clust5" class="cluster">
<title>cluster_c</title>
<polygon fill="none" stroke="black" points="384,-261 384,-359 727,-359 727,-261 384,-261"/>
<text text-anchor="middle" x="555.5" y="-343.8" font-family="Times,serif" font-size="14.00">c</text>
</g>
<g id="clust6" class="cluster">
<title>cluster_d</title>
<polygon fill="none" stroke="black" points="680,-133 680,-231 858,-231 858,-133 680,-133"/>
<text text-anchor="middle" x="769" y="-215.8" font-family="Times,serif" font-size="14.00">d</text>
</g>
<g id="clust7" class="cluster">
<title>cluster_e</title>
<polygon fill="none" stroke="black" points="563,-133 563,-231 635,-231 635,-133 563,-133"/>
<text text-anchor="middle" x="599" y="-215.8" font-family="Times,serif" font-size="14.00">e</text>
</g>
<g id="clust8" class="cluster">
<title>cluster_f</title>
<polygon fill="none" stroke="black" points="775,-16 775,-114 849,-114 849,-16 775,-16"/>
<text text-anchor="middle" x="812" y="-98.8" font-family="Times,serif" font-size="14.00">f</text>
</g>
<g id="clust9" class="cluster">
<title>cluster_g</title>
<polygon fill="none" stroke="black" points="919,-16 919,-114 1015,-114 1015,-16 919,-16"/>
<text text-anchor="middle" x="967" y="-98.8" font-family="Times,serif" font-size="14.00">g</text>
</g>
<g id="clust10" class="cluster">
<title>cluster_h</title>
<polygon fill="none" stroke="black" points="946,-133 946,-231 1120,-231 1120,-133 946,-133"/>
<text text-anchor="middle" x="1033" y="-215.8" font-family="Times,serif" font-size="14.00">h</text>
</g>
<g id="clust11" class="cluster">
<title>cluster_i</title>
<polygon fill="none" stroke="black" points="202,-133 202,-231 555,-231 555,-133 202,-133"/>
<text text-anchor="middle" x="378.5" y="-215.8" font-family="Times,serif" font-size="14.00">i</text>
</g>
<g id="clust12" class="cluster">
<title>cluster_j</title>
<polygon fill="none" stroke="black" points="473,-16 473,-114 557,-114 557,-16 473,-16"/>
<text text-anchor="middle" x="515" y="-98.8" font-family="Times,serif" font-size="14.00">j</text>
</g>
<!-- label -->
<g id="node1" class="node">
<title>label</title>
<text text-anchor="middle" x="97" y="-290.8" font-family="Times,serif" font-size="14.00">adstag1.2.40U48&#45;50</text>
<text text-anchor="middle" x="97" y="-275.8" font-family="Times,serif" font-size="14.00">Con = 3</text>
</g>
<!-- 11 -->
<g id="node2" class="node">
<title>11</title>
<ellipse fill="none" stroke="black" cx="881" cy="-287" rx="38.19" ry="18"/>
<text text-anchor="middle" x="881" y="-283.3" font-family="Times,serif" font-size="14.00">aBase</text>
</g>
<!-- 22 -->
<g id="node4" class="node">
<title>22</title>
<ellipse fill="none" stroke="black" cx="772" cy="-287" rx="28.7" ry="18"/>
<text text-anchor="middle" x="772" y="-283.3" font-family="Times,serif" font-size="14.00">A25</text>
</g>
<!-- 11&#45;&gt;22 -->
<g id="edge15" class="edge">
<title>11&#45;&gt;22</title>
<path fill="none" stroke="blue" stroke-dasharray="5,2" d="M842.54,-287C832.03,-287 821.53,-287 811.02,-287"/>
<polygon fill="blue" stroke="blue" points="810.95,-283.5 800.95,-287 810.95,-290.5 810.95,-283.5"/>
</g>
<!-- 26 -->
<g id="node8" class="node">
<title>26</title>
<ellipse fill="none" stroke="black" cx="599" cy="-287" rx="33.6" ry="18"/>
<text text-anchor="middle" x="599" y="-283.3" font-family="Times,serif" font-size="14.00">La22</text>
</g>
<!-- 11&#45;&gt;26 -->
<g id="edge16" class="edge">
<title>11&#45;&gt;26</title>
<path fill="none" stroke="blue" stroke-dasharray="5,2" d="M872.26,-304.73C860.34,-326.58 836.66,-362.47 804,-376 788.29,-382.51 666.71,-382.51 651,-376 626.31,-365.77 612.73,-337.19 605.7,-315.15"/>
<polygon fill="blue" stroke="blue" points="608.98,-313.89 602.83,-305.26 602.26,-315.84 608.98,-313.89"/>
</g>
<!-- 37 -->
<g id="node9" class="node">
<title>37</title>
<ellipse fill="none" stroke="black" cx="722" cy="-159" rx="34.39" ry="18"/>
<text text-anchor="middle" x="722" y="-155.3" font-family="Times,serif" font-size="14.00">V566</text>
</g>
<!-- 11&#45;&gt;37 -->
<g id="edge25" class="edge">
<title>11&#45;&gt;37</title>
<path fill="none" stroke="blue" d="M872.05,-269.18C865.49,-258.64 855.55,-245.8 843,-239 812.36,-222.4 794.45,-249.64 765,-231 748.92,-220.82 737.98,-202.25 731.17,-186.65"/>
<polygon fill="blue" stroke="blue" points="734.25,-184.92 727.27,-176.95 727.75,-187.53 734.25,-184.92"/>
<text text-anchor="middle" x="860.5" y="-242" font-family="Times,serif" font-size="10.00">2</text>
</g>
<!-- 39 -->
<g id="node10" class="node">
<title>39</title>
<ellipse fill="none" stroke="black" cx="812" cy="-159" rx="37.89" ry="18"/>
<text text-anchor="middle" x="812" y="-155.3" font-family="Times,serif" font-size="14.00">LaSM</text>
</g>
<!-- 11&#45;&gt;39 -->
<g id="edge27" class="edge">
<title>11&#45;&gt;39</title>
<path fill="none" stroke="blue" d="M881.43,-268.92C880.96,-259.54 879.18,-248.01 874,-239 871.16,-234.07 867.94,-235.11 864,-231 850.43,-216.84 837.4,-199.03 827.77,-184.79"/>
<polygon fill="blue" stroke="blue" points="830.69,-182.85 822.24,-176.45 824.85,-186.72 830.69,-182.85"/>
</g>
<!-- 19 -->
<g id="node11" class="node">
<title>19</title>
<ellipse fill="none" stroke="black" cx="599" cy="-159" rx="27.9" ry="18"/>
<text text-anchor="middle" x="599" y="-155.3" font-family="Times,serif" font-size="14.00">La2</text>
</g>
<!-- 11&#45;&gt;19 -->
<g id="edge12" class="edge">
<title>11&#45;&gt;19</title>
<path fill="none" stroke="blue" stroke-width="2" d="M853.6,-274.17C841.36,-269.24 826.64,-263.79 813,-260 788.64,-253.23 781.77,-255.05 757,-250 735.55,-245.63 730.57,-242.73 709,-239 694.01,-236.41 653.75,-239.3 641,-231 625.15,-220.68 614.47,-202.12 607.85,-186.55"/>
<polygon fill="blue" stroke="blue" stroke-width="2" points="610.97,-184.92 604.07,-176.88 604.45,-187.47 610.97,-184.92"/>
</g>
<!-- 9 -->
<g id="node12" class="node">
<title>9</title>
<ellipse fill="none" stroke="black" cx="812" cy="-42" rx="29.5" ry="18"/>
<text text-anchor="middle" x="812" y="-38.3" font-family="Times,serif" font-size="14.00">B39</text>
</g>
<!-- 11&#45;&gt;9 -->
<g id="edge5" class="edge">
<title>11&#45;&gt;9</title>
<path fill="none" stroke="blue" stroke-width="2" d="M881.72,-269C881.92,-260.05 881.88,-248.92 881,-239 876.76,-191.33 878.06,-178.09 862,-133 853.62,-109.48 839.51,-84.84 828.4,-67.3"/>
<polygon fill="blue" stroke="blue" stroke-width="2" points="831.29,-65.31 822.92,-58.82 825.41,-69.12 831.29,-65.31"/>
<text text-anchor="middle" x="883.5" y="-156.5" font-family="Times,serif" font-size="10.00">2</text>
</g>
<!-- 30 -->
<g id="node13" class="node">
<title>30</title>
<ellipse fill="none" stroke="black" cx="967" cy="-42" rx="40.09" ry="18"/>
<text text-anchor="middle" x="967" y="-38.3" font-family="Times,serif" font-size="14.00">V2250</text>
</g>
<!-- 11&#45;&gt;30 -->
<g id="edge20" class="edge">
<title>11&#45;&gt;30</title>
<path fill="none" stroke="blue" stroke-width="2" d="M903.95,-272.14C911.62,-266.29 919.38,-258.79 924,-250 936.15,-226.88 929.36,-158.5 935,-133 939.85,-111.07 948.52,-87.16 955.62,-69.5"/>
<polygon fill="blue" stroke="blue" stroke-width="2" points="959.01,-70.46 959.57,-59.88 952.53,-67.8 959.01,-70.46"/>
<text text-anchor="middle" x="938.5" y="-156.5" font-family="Times,serif" font-size="10.00">3</text>
</g>
<!-- 7 -->
<g id="node14" class="node">
<title>7</title>
<ellipse fill="none" stroke="black" cx="994" cy="-159" rx="40.09" ry="18"/>
<text text-anchor="middle" x="994" y="-155.3" font-family="Times,serif" font-size="14.00">V1897</text>
</g>
<!-- 11&#45;&gt;7 -->
<g id="edge1" class="edge">
<title>11&#45;&gt;7</title>
<path fill="none" stroke="blue" d="M903.99,-272.38C911.77,-268.08 920.62,-263.54 929,-260 942.73,-254.2 950.21,-260.28 961,-250 978.36,-233.46 986.64,-207.02 990.55,-187.07"/>
<polygon fill="blue" stroke="blue" points="994.03,-187.49 992.27,-177.04 987.13,-186.31 994.03,-187.49"/>
</g>
<!-- 36 -->
<g id="node15" class="node">
<title>36</title>
<ellipse fill="none" stroke="black" cx="1082" cy="-159" rx="29.8" ry="18"/>
<text text-anchor="middle" x="1082" y="-155.3" font-family="Times,serif" font-size="14.00">Nan</text>
</g>
<!-- 11&#45;&gt;36 -->
<g id="edge21" class="edge">
<title>11&#45;&gt;36</title>
<path fill="none" stroke="blue" d="M903.38,-272.33C911.27,-267.93 920.33,-263.34 929,-260 941.2,-255.3 1032.69,-239.03 1043,-231 1057.47,-219.73 1067.32,-201.51 1073.5,-186.36"/>
<polygon fill="blue" stroke="blue" points="1076.8,-187.53 1077.04,-176.94 1070.25,-185.07 1076.8,-187.53"/>
</g>
<!-- 17 -->
<g id="node18" class="node">
<title>17</title>
<ellipse fill="none" stroke="black" cx="332" cy="-159" rx="35.19" ry="18"/>
<text text-anchor="middle" x="332" y="-155.3" font-family="Times,serif" font-size="14.00">Neap</text>
</g>
<!-- 11&#45;&gt;17 -->
<g id="edge8" class="edge">
<title>11&#45;&gt;17</title>
<path fill="none" stroke="blue" stroke-width="2" d="M854.41,-273.82C842.07,-268.7 827.05,-263.19 813,-260 759.95,-247.94 744.66,-259 691,-250 671.55,-246.74 667.53,-241.75 648,-239 633.03,-236.89 389.1,-238.55 376,-231 359.14,-221.29 347.87,-202.26 340.96,-186.34"/>
<polygon fill="blue" stroke="blue" stroke-width="2" points="344.17,-184.93 337.21,-176.94 337.66,-187.53 344.17,-184.93"/>
</g>
<!-- 40 -->
<g id="node3" class="node">
<title>40</title>
<ellipse fill="none" stroke="black" cx="972" cy="-287" rx="34.39" ry="18"/>
<text text-anchor="middle" x="972" y="-283.3" font-family="Times,serif" font-size="14.00">V536</text>
</g>
<!-- 22&#45;&gt;26 -->
<g id="edge17" class="edge">
<title>22&#45;&gt;26</title>
<path fill="none" stroke="blue" stroke-dasharray="1,5" d="M767.84,-304.95C762.6,-322.96 751.68,-349.74 731,-362 696.98,-382.18 676.23,-381.83 642,-362 624.41,-351.81 613.4,-331.41 606.93,-314.46"/>
<polygon fill="blue" stroke="blue" points="610.22,-313.27 603.63,-304.98 603.61,-315.57 610.22,-313.27"/>
<text text-anchor="middle" x="688" y="-378" font-family="Times,serif" font-size="10.00">2</text>
</g>
<!-- 22&#45;&gt;37 -->
<g id="edge24" class="edge">
<title>22&#45;&gt;37</title>
<path fill="none" stroke="blue" stroke-dasharray="5,2" d="M765.36,-269.27C756.96,-248.09 742.38,-211.36 732.47,-186.38"/>
<polygon fill="blue" stroke="blue" points="735.61,-184.8 728.67,-176.8 729.1,-187.39 735.61,-184.8"/>
</g>
<!-- 22&#45;&gt;19 -->
<g id="edge14" class="edge">
<title>22&#45;&gt;19</title>
<path fill="none" stroke="blue" d="M754.53,-272.52C747.56,-267.81 739.25,-262.96 731,-260 697.28,-247.89 680.86,-269.8 651,-250 628.64,-235.17 614.71,-207.21 606.97,-186.37"/>
<polygon fill="blue" stroke="blue" points="610.23,-185.11 603.65,-176.81 603.62,-187.4 610.23,-185.11"/>
<text text-anchor="middle" x="654.5" y="-242" font-family="Times,serif" font-size="10.00">3</text>
</g>
<!-- 22&#45;&gt;9 -->
<g id="edge6" class="edge">
<title>22&#45;&gt;9</title>
<path fill="none" stroke="blue" d="M753.92,-272.77C747.02,-268.2 738.9,-263.39 731,-260 703.04,-248.01 681.66,-258.66 669,-231 650.87,-191.4 647.95,-171.13 669,-133 691.71,-91.87 741.99,-66.97 776.45,-54.1"/>
<polygon fill="blue" stroke="blue" points="777.91,-57.29 786.15,-50.63 775.55,-50.7 777.91,-57.29"/>
<text text-anchor="middle" x="672.5" y="-156.5" font-family="Times,serif" font-size="10.00">3</text>
</g>
<!-- 22&#45;&gt;7 -->
<g id="edge2" class="edge">
<title>22&#45;&gt;7</title>
<path fill="none" stroke="blue" stroke-dasharray="5,2" d="M794.09,-275.29C805.03,-270.24 818.54,-264.37 831,-260 854.65,-251.7 919.18,-244.95 940,-231 957.05,-219.58 970.91,-200.96 980.33,-185.65"/>
<polygon fill="blue" stroke="blue" points="983.57,-187.04 985.6,-176.65 977.53,-183.51 983.57,-187.04"/>
<text text-anchor="middle" x="923.5" y="-242" font-family="Times,serif" font-size="10.00">2</text>
</g>
<!-- 22&#45;&gt;36 -->
<g id="edge22" class="edge">
<title>22&#45;&gt;36</title>
<path fill="none" stroke="blue" stroke-dasharray="5,2" d="M793.26,-274.68C804.23,-269.35 818.01,-263.42 831,-260 874.19,-248.63 887.37,-259.55 931,-250 945.69,-246.79 948.31,-242.21 963,-239 980.45,-235.18 1028.1,-240.85 1043,-231 1058.49,-220.76 1068.38,-202.19 1074.32,-186.61"/>
<polygon fill="blue" stroke="blue" points="1077.71,-187.51 1077.68,-176.92 1071.1,-185.22 1077.71,-187.51"/>
<text text-anchor="middle" x="966.5" y="-242" font-family="Times,serif" font-size="10.00">2</text>
</g>
<!-- 22&#45;&gt;17 -->
<g id="edge11" class="edge">
<title>22&#45;&gt;17</title>
<path fill="none" stroke="blue" d="M754.61,-272.28C747.66,-267.54 739.33,-262.74 731,-260 700.74,-250.06 619.75,-252.53 588,-250 576.21,-249.06 386.06,-237.21 376,-231 359.54,-220.85 348.29,-202.01 341.29,-186.29"/>
<polygon fill="blue" stroke="blue" points="344.51,-184.93 337.47,-177.01 338.04,-187.59 344.51,-184.93"/>
<text text-anchor="middle" x="591.5" y="-242" font-family="Times,serif" font-size="10.00">3</text>
</g>
<!-- 1 -->
<g id="node5" class="node">
<title>1</title>
<ellipse fill="none" stroke="black" cx="685" cy="-287" rx="34.39" ry="18"/>
<text text-anchor="middle" x="685" y="-283.3" font-family="Times,serif" font-size="14.00">Patm</text>
</g>
<!-- 1&#45;&gt;37 -->
<g id="edge26" class="edge">
<title>1&#45;&gt;37</title>
<path fill="none" stroke="blue" stroke-dasharray="1,5" d="M689.99,-269.01C696.17,-247.97 706.77,-211.87 714.07,-187.01"/>
<polygon fill="blue" stroke="blue" points="717.51,-187.71 716.97,-177.13 710.8,-185.73 717.51,-187.71"/>
<text text-anchor="middle" x="701.5" y="-242" font-family="Times,serif" font-size="10.00">3</text>
</g>
<!-- 1&#45;&gt;39 -->
<g id="edge28" class="edge">
<title>1&#45;&gt;39</title>
<path fill="none" stroke="blue" stroke-dasharray="5,2" d="M708.13,-273.36C725.12,-263.34 748.11,-248.19 765,-231 778.17,-217.59 789.86,-199.99 798.28,-185.67"/>
<polygon fill="blue" stroke="blue" points="801.42,-187.22 803.32,-176.8 795.33,-183.76 801.42,-187.22"/>
<text text-anchor="middle" x="758.5" y="-242" font-family="Times,serif" font-size="10.00">3</text>
</g>
<!-- 13 -->
<g id="node6" class="node">
<title>13</title>
<ellipse fill="none" stroke="black" cx="423" cy="-287" rx="31.4" ry="18"/>
<text text-anchor="middle" x="423" y="-283.3" font-family="Times,serif" font-size="14.00">Mon</text>
</g>
<!-- 16 -->
<g id="node7" class="node">
<title>16</title>
<ellipse fill="none" stroke="black" cx="510" cy="-287" rx="37.89" ry="18"/>
<text text-anchor="middle" x="510" y="-283.3" font-family="Times,serif" font-size="14.00">M136</text>
</g>
<!-- 16&#45;&gt;17 -->
<g id="edge9" class="edge">
<title>16&#45;&gt;17</title>
<path fill="none" stroke="blue" stroke-dasharray="5,2" d="M487.48,-272.44C479.86,-268.15 471.2,-263.6 463,-260 425.68,-243.62 407.98,-256.27 376,-231 361.25,-219.34 350.16,-201.29 342.8,-186.31"/>
<polygon fill="blue" stroke="blue" points="345.88,-184.61 338.5,-177 339.52,-187.55 345.88,-184.61"/>
<text text-anchor="middle" x="428.5" y="-242" font-family="Times,serif" font-size="10.00">2</text>
</g>
<!-- 26&#45;&gt;19 -->
<g id="edge13" class="edge">
<title>26&#45;&gt;19</title>
<path fill="none" stroke="blue" d="M599,-268.74C599,-247.73 599,-211.97 599,-187.23"/>
<polygon fill="blue" stroke="blue" points="602.5,-187.05 599,-177.05 595.5,-187.05 602.5,-187.05"/>
<text text-anchor="middle" x="602.5" y="-242" font-family="Times,serif" font-size="10.00">2</text>
</g>
<!-- 37&#45;&gt;7 -->
<g id="edge3" class="edge">
<title>37&#45;&gt;7</title>
<path fill="none" stroke="blue" stroke-dasharray="5,2" d="M727.43,-177.08C733.56,-193.91 745.33,-218 765,-229 798.94,-247.98 905.1,-246.16 940,-229 958.31,-220 972.16,-201.48 981.25,-185.74"/>
<polygon fill="blue" stroke="blue" points="984.36,-187.36 986.05,-176.9 978.21,-184.02 984.36,-187.36"/>
<text text-anchor="middle" x="822" y="-242" font-family="Times,serif" font-size="10.00">3</text>
</g>
<!-- 37&#45;&gt;36 -->
<g id="edge23" class="edge">
<title>37&#45;&gt;36</title>
<path fill="none" stroke="blue" stroke-dasharray="5,2" d="M727.43,-177.08C733.56,-193.91 745.33,-218 765,-229 791.96,-244.08 1016.37,-244.65 1043,-229 1058.55,-219.87 1068.35,-202.04 1074.24,-186.66"/>
<polygon fill="blue" stroke="blue" points="1077.61,-187.62 1077.56,-177.03 1070.99,-185.34 1077.61,-187.62"/>
<text text-anchor="middle" x="804" y="-242" font-family="Times,serif" font-size="10.00">3</text>
</g>
<!-- 39&#45;&gt;9 -->
<g id="edge4" class="edge">
<title>39&#45;&gt;9</title>
<path fill="none" stroke="blue" stroke-dasharray="5,2" d="M812,-140.53C812,-121.94 812,-92.24 812,-70.5"/>
<polygon fill="blue" stroke="blue" points="815.5,-70.25 812,-60.25 808.5,-70.25 815.5,-70.25"/>
</g>
<!-- 36&#45;&gt;40 -->
<g id="edge30" class="edge">
<title>36&#45;&gt;40</title>
<path fill="none" stroke="blue" stroke-width="2" d="M1074.55,-176.58C1067.47,-191.5 1056,-213.68 1043,-231 1035.83,-240.55 1033.17,-242.35 1024,-250 1017.03,-255.82 1009.14,-261.63 1001.65,-266.83"/>
<polygon fill="blue" stroke="blue" stroke-width="2" points="999.43,-264.11 993.12,-272.63 1003.36,-269.9 999.43,-264.11"/>
<text text-anchor="middle" x="1039.5" y="-242" font-family="Times,serif" font-size="10.00">3</text>
</g>
<!-- 36&#45;&gt;30 -->
<g id="edge19" class="edge">
<title>36&#45;&gt;30</title>
<path fill="none" stroke="blue" stroke-dasharray="5,2" d="M1066.97,-142.97C1047.38,-123.38 1012.95,-88.95 990.06,-66.06"/>
<polygon fill="blue" stroke="blue" points="992.32,-63.37 982.78,-58.78 987.37,-68.32 992.32,-63.37"/>
</g>
<!-- 36&#45;&gt;17 -->
<g id="edge10" class="edge">
<title>36&#45;&gt;17</title>
<path fill="none" stroke="blue" d="M1077.56,-177.03C1072.37,-193.81 1061.95,-217.86 1043,-229 1011.05,-247.77 408.43,-246.92 376,-229 359.61,-219.95 348.5,-201.95 341.55,-186.47"/>
<polygon fill="blue" stroke="blue" points="344.6,-184.7 337.56,-176.78 338.13,-187.36 344.6,-184.7"/>
<text text-anchor="middle" x="837" y="-242" font-family="Times,serif" font-size="10.00">2</text>
</g>
<!-- 6 -->
<g id="node16" class="node">
<title>6</title>
<ellipse fill="none" stroke="black" cx="515" cy="-159" rx="31.7" ry="18"/>
<text text-anchor="middle" x="515" y="-155.3" font-family="Times,serif" font-size="14.00">Taur</text>
</g>
<!-- 29 -->
<g id="node20" class="node">
<title>29</title>
<ellipse fill="none" stroke="black" cx="515" cy="-42" rx="34.39" ry="18"/>
<text text-anchor="middle" x="515" y="-38.3" font-family="Times,serif" font-size="14.00">V569</text>
</g>
<!-- 6&#45;&gt;29 -->
<g id="edge18" class="edge">
<title>6&#45;&gt;29</title>
<path fill="none" stroke="blue" stroke-dasharray="5,2" d="M515,-140.53C515,-121.94 515,-92.24 515,-70.5"/>
<polygon fill="blue" stroke="blue" points="518.5,-70.25 515,-60.25 511.5,-70.25 518.5,-70.25"/>
</g>
<!-- 8 -->
<g id="node17" class="node">
<title>8</title>
<ellipse fill="none" stroke="black" cx="244" cy="-159" rx="34.39" ry="18"/>
<text text-anchor="middle" x="244" y="-155.3" font-family="Times,serif" font-size="14.00">Marc</text>
</g>
<!-- 8&#45;&gt;13 -->
<g id="edge7" class="edge">
<title>8&#45;&gt;13</title>
<path fill="none" stroke="blue" stroke-dasharray="1,5" d="M250.71,-176.75C257.84,-192.63 270.5,-216.21 288,-231 315.93,-254.59 355.33,-269.07 384.36,-277.21"/>
<polygon fill="blue" stroke="blue" points="383.59,-280.63 394.16,-279.83 385.4,-273.87 383.59,-280.63"/>
</g>
<!-- 23 -->
<g id="node19" class="node">
<title>23</title>
<ellipse fill="none" stroke="black" cx="425" cy="-159" rx="40.09" ry="18"/>
<text text-anchor="middle" x="425" y="-155.3" font-family="Times,serif" font-size="14.00">V1629</text>
</g>
<!-- 23&#45;&gt;40 -->
<g id="edge29" class="edge">
<title>23&#45;&gt;40</title>
<path fill="none" stroke="blue" stroke-dasharray="5,2" d="M431.32,-177.06C438.67,-194.16 452.61,-219.55 474,-231 498.2,-243.95 947.94,-220.27 968,-239 973.37,-244.01 975.47,-251.29 975.93,-258.62"/>
<polygon fill="blue" stroke="blue" points="972.42,-258.7 975.66,-268.79 979.42,-258.89 972.42,-258.7"/>
</g>
</g>
</svg>
