<?xml version="1.0" encoding="UTF-8" standalone="no"?>
<!DOCTYPE svg PUBLIC "-//W3C//DTD SVG 1.1//EN"
 "http://www.w3.org/Graphics/SVG/1.1/DTD/svg11.dtd">
<!-- Generated by graphviz version 2.43.0 (0)
 -->
<!-- Title: textual_flow_diagram Pages: 1 -->
<svg width="656pt" height="314pt"
 viewBox="0.00 0.00 656.00 314.00" xmlns="http://www.w3.org/2000/svg" xmlns:xlink="http://www.w3.org/1999/xlink">
<g id="graph0" class="graph" transform="scale(1 1) rotate(0) translate(4 310)">
<title>textual_flow_diagram</title>
<polygon fill="white" stroke="transparent" points="-4,4 -4,-310 652,-310 652,4 -4,4"/>
<g id="clust1" class="cluster">
<title>cluster_legend</title>
<polygon fill="none" stroke="black" points="8,-214 8,-268 178,-268 178,-214 8,-214"/>
</g>
<g id="clust2" class="cluster">
<title>cluster_plot</title>
</g>
<g id="clust3" class="cluster">
<title>cluster_a</title>
<polygon fill="none" stroke="black" points="234,-215 234,-290 490,-290 490,-215 234,-215"/>
<text text-anchor="middle" x="362" y="-274.8" font-family="Times,serif" font-size="14.00">a</text>
</g>
<g id="clust4" class="cluster">
<title>cluster_b</title>
<polygon fill="none" stroke="black" points="194,-120 194,-195 620,-195 620,-120 194,-120"/>
<text text-anchor="middle" x="407" y="-179.8" font-family="Times,serif" font-size="14.00">b</text>
</g>
<g id="clust5" class="cluster">
<title>cluster_c</title>
<polygon fill="none" stroke="black" points="496,-16 496,-91 582,-91 582,-16 496,-16"/>
<text text-anchor="middle" x="539" y="-75.8" font-family="Times,serif" font-size="14.00">c</text>
</g>
<!-- label -->
<g id="node1" class="node">
<title>label</title>
<text text-anchor="middle" x="93" y="-244.8" font-family="Times,serif" font-size="14.00">adstag1.3.5U12&#45;14</text>
<text text-anchor="middle" x="93" y="-229.8" font-family="Times,serif" font-size="14.00">Con = 5</text>
</g>
<!-- 23 -->
<g id="node2" class="node">
<title>23</title>
<ellipse fill="none" stroke="black" cx="272" cy="-241" rx="29.8" ry="18"/>
<text text-anchor="middle" x="272" y="-237.3" font-family="Times,serif" font-size="14.00">Nan</text>
</g>
<!-- 42 -->
<g id="node9" class="node">
<title>42</title>
<ellipse fill="none" stroke="black" cx="242" cy="-146" rx="40.09" ry="18"/>
<text text-anchor="middle" x="242" y="-142.3" font-family="Times,serif" font-size="14.00">V1897</text>
</g>
<!-- 23&#45;&gt;42 -->
<g id="edge7" class="edge">
<title>23&#45;&gt;42</title>
<path fill="none" stroke="blue" stroke-dasharray="1,5" d="M266.5,-222.94C262.06,-209.18 255.73,-189.56 250.62,-173.72"/>
<polygon fill="blue" stroke="blue" points="253.87,-172.39 247.47,-163.95 247.21,-174.54 253.87,-172.39"/>
</g>
<!-- 26 -->
<g id="node3" class="node">
<title>26</title>
<ellipse fill="none" stroke="black" cx="354" cy="-241" rx="33.6" ry="18"/>
<text text-anchor="middle" x="354" y="-237.3" font-family="Times,serif" font-size="14.00">La22</text>
</g>
<!-- 7 -->
<g id="node5" class="node">
<title>7</title>
<ellipse fill="none" stroke="black" cx="329" cy="-146" rx="28.7" ry="18"/>
<text text-anchor="middle" x="329" y="-142.3" font-family="Times,serif" font-size="14.00">P74</text>
</g>
<!-- 26&#45;&gt;7 -->
<g id="edge1" class="edge">
<title>26&#45;&gt;7</title>
<path fill="none" stroke="blue" stroke-dasharray="1,5" d="M349.41,-222.94C345.71,-209.18 340.44,-189.56 336.18,-173.72"/>
<polygon fill="blue" stroke="blue" points="339.53,-172.7 333.56,-163.95 332.77,-174.52 339.53,-172.7"/>
</g>
<!-- 40 -->
<g id="node4" class="node">
<title>40</title>
<ellipse fill="none" stroke="black" cx="444" cy="-241" rx="38.19" ry="18"/>
<text text-anchor="middle" x="444" y="-237.3" font-family="Times,serif" font-size="14.00">aBase</text>
</g>
<!-- 14 -->
<g id="node6" class="node">
<title>14</title>
<ellipse fill="none" stroke="black" cx="404" cy="-146" rx="27.9" ry="18"/>
<text text-anchor="middle" x="404" y="-142.3" font-family="Times,serif" font-size="14.00">La2</text>
</g>
<!-- 40&#45;&gt;14 -->
<g id="edge4" class="edge">
<title>40&#45;&gt;14</title>
<path fill="none" stroke="blue" stroke-width="2" d="M436.66,-222.94C430.65,-208.96 422.04,-188.94 415.17,-172.97"/>
<polygon fill="blue" stroke="blue" stroke-width="2" points="418.32,-171.44 411.16,-163.64 411.89,-174.21 418.32,-171.44"/>
</g>
<!-- 16 -->
<g id="node7" class="node">
<title>16</title>
<ellipse fill="none" stroke="black" cx="488" cy="-146" rx="37.89" ry="18"/>
<text text-anchor="middle" x="488" y="-142.3" font-family="Times,serif" font-size="14.00">M136</text>
</g>
<!-- 40&#45;&gt;16 -->
<g id="edge5" class="edge">
<title>40&#45;&gt;16</title>
<path fill="none" stroke="blue" stroke-width="2" d="M451.87,-223.37C458.46,-209.44 467.98,-189.31 475.6,-173.21"/>
<polygon fill="blue" stroke="blue" stroke-width="2" points="478.94,-174.33 480.05,-163.8 472.61,-171.34 478.94,-174.33"/>
</g>
<!-- 27 -->
<g id="node8" class="node">
<title>27</title>
<ellipse fill="none" stroke="black" cx="578" cy="-146" rx="34.39" ry="18"/>
<text text-anchor="middle" x="578" y="-142.3" font-family="Times,serif" font-size="14.00">V560</text>
</g>
<!-- 40&#45;&gt;27 -->
<g id="edge6" class="edge">
<title>40&#45;&gt;27</title>
<path fill="none" stroke="blue" stroke-width="2" d="M473.07,-228.99C491.78,-221.12 516.06,-209.39 535,-195 543.95,-188.2 552.5,-179.34 559.59,-171.09"/>
<polygon fill="blue" stroke="blue" stroke-width="2" points="562.48,-173.08 566.14,-163.13 557.08,-168.62 562.48,-173.08"/>
</g>
<!-- 10 -->
<g id="node10" class="node">
<title>10</title>
<ellipse fill="none" stroke="black" cx="539" cy="-42" rx="35.19" ry="18"/>
<text text-anchor="middle" x="539" y="-38.3" font-family="Times,serif" font-size="14.00">Neap</text>
</g>
<!-- 40&#45;&gt;10 -->
<g id="edge2" class="edge">
<title>40&#45;&gt;10</title>
<path fill="none" stroke="blue" stroke-width="2" d="M481.04,-236.06C528.46,-230.16 606.6,-217.28 624,-195 644.51,-168.73 637.51,-150.47 624,-120 612.96,-95.11 589.46,-74.83 569.96,-61.35"/>
<polygon fill="blue" stroke="blue" stroke-width="2" points="571.89,-58.43 561.62,-55.82 568.02,-64.26 571.89,-58.43"/>
</g>
<!-- 16&#45;&gt;10 -->
<g id="edge3" class="edge">
<title>16&#45;&gt;10</title>
<path fill="none" stroke="blue" stroke-dasharray="5,2" d="M496.42,-128.16C504.52,-111.97 516.86,-87.28 526.18,-68.64"/>
<polygon fill="blue" stroke="blue" points="529.39,-70.04 530.74,-59.53 523.13,-66.91 529.39,-70.04"/>
<text text-anchor="middle" x="513.5" y="-102" font-family="Times,serif" font-size="10.00">2</text>
</g>
</g>
</svg>
