<?xml version="1.0" encoding="UTF-8" standalone="no"?>
<!DOCTYPE svg PUBLIC "-//W3C//DTD SVG 1.1//EN"
 "http://www.w3.org/Graphics/SVG/1.1/DTD/svg11.dtd">
<!-- Generated by graphviz version 2.43.0 (0)
 -->
<!-- Title: textual_flow_diagram Pages: 1 -->
<svg width="594pt" height="314pt"
 viewBox="0.00 0.00 594.00 314.00" xmlns="http://www.w3.org/2000/svg" xmlns:xlink="http://www.w3.org/1999/xlink">
<g id="graph0" class="graph" transform="scale(1 1) rotate(0) translate(4 310)">
<title>textual_flow_diagram</title>
<polygon fill="white" stroke="transparent" points="-4,4 -4,-310 590,-310 590,4 -4,4"/>
<g id="clust1" class="cluster">
<title>cluster_legend</title>
<polygon fill="none" stroke="black" points="8,-214 8,-268 186,-268 186,-214 8,-214"/>
</g>
<g id="clust2" class="cluster">
<title>cluster_plot</title>
</g>
<g id="clust3" class="cluster">
<title>cluster_a</title>
<polygon fill="none" stroke="black" points="202,-215 202,-290 570,-290 570,-215 202,-215"/>
<text text-anchor="middle" x="386" y="-274.8" font-family="Times,serif" font-size="14.00">a</text>
</g>
<g id="clust4" class="cluster">
<title>cluster_b</title>
<polygon fill="none" stroke="black" points="249,-16 249,-91 481,-91 481,-16 249,-16"/>
<text text-anchor="middle" x="365" y="-75.8" font-family="Times,serif" font-size="14.00">b</text>
</g>
<g id="clust5" class="cluster">
<title>cluster_c</title>
<polygon fill="none" stroke="black" points="471,-120 471,-195 567,-195 567,-120 471,-120"/>
<text text-anchor="middle" x="519" y="-179.8" font-family="Times,serif" font-size="14.00">c</text>
</g>
<!-- label -->
<g id="node1" class="node">
<title>label</title>
<text text-anchor="middle" x="97" y="-244.8" font-family="Times,serif" font-size="14.00">adstag1.2.40U26&#45;28</text>
<text text-anchor="middle" x="97" y="-229.8" font-family="Times,serif" font-size="14.00">Con = 5</text>
</g>
<!-- 7 -->
<g id="node2" class="node">
<title>7</title>
<ellipse fill="none" stroke="black" cx="345" cy="-241" rx="40.09" ry="18"/>
<text text-anchor="middle" x="345" y="-237.3" font-family="Times,serif" font-size="14.00">V1897</text>
</g>
<!-- 42 -->
<g id="node8" class="node">
<title>42</title>
<ellipse fill="none" stroke="black" cx="359" cy="-42" rx="27.9" ry="18"/>
<text text-anchor="middle" x="359" y="-38.3" font-family="Times,serif" font-size="14.00">Bas</text>
</g>
<!-- 7&#45;&gt;42 -->
<g id="edge4" class="edge">
<title>7&#45;&gt;42</title>
<path fill="none" stroke="blue" d="M346.22,-222.86C348.65,-188.66 354.12,-111.69 357.05,-70.4"/>
<polygon fill="blue" stroke="blue" points="360.56,-70.46 357.77,-60.24 353.57,-69.97 360.56,-70.46"/>
</g>
<!-- 11 -->
<g id="node3" class="node">
<title>11</title>
<ellipse fill="none" stroke="black" cx="248" cy="-241" rx="38.19" ry="18"/>
<text text-anchor="middle" x="248" y="-237.3" font-family="Times,serif" font-size="14.00">aBase</text>
</g>
<!-- 19 -->
<g id="node6" class="node">
<title>19</title>
<ellipse fill="none" stroke="black" cx="285" cy="-42" rx="27.9" ry="18"/>
<text text-anchor="middle" x="285" y="-38.3" font-family="Times,serif" font-size="14.00">La2</text>
</g>
<!-- 11&#45;&gt;19 -->
<g id="edge1" class="edge">
<title>11&#45;&gt;19</title>
<path fill="none" stroke="blue" stroke-width="2" d="M251.22,-222.86C257.67,-188.5 272.23,-110.97 279.96,-69.82"/>
<polygon fill="blue" stroke="blue" stroke-width="2" points="283.41,-70.43 281.82,-59.96 276.53,-69.14 283.41,-70.43"/>
</g>
<!-- 23 -->
<g id="node4" class="node">
<title>23</title>
<ellipse fill="none" stroke="black" cx="444" cy="-241" rx="40.09" ry="18"/>
<text text-anchor="middle" x="444" y="-237.3" font-family="Times,serif" font-size="14.00">V1629</text>
</g>
<!-- 40 -->
<g id="node7" class="node">
<title>40</title>
<ellipse fill="none" stroke="black" cx="439" cy="-42" rx="34.39" ry="18"/>
<text text-anchor="middle" x="439" y="-38.3" font-family="Times,serif" font-size="14.00">V536</text>
</g>
<!-- 23&#45;&gt;40 -->
<g id="edge3" class="edge">
<title>23&#45;&gt;40</title>
<path fill="none" stroke="blue" stroke-dasharray="5,2" d="M443.57,-222.86C442.7,-188.66 440.74,-111.69 439.7,-70.4"/>
<polygon fill="blue" stroke="blue" points="443.19,-70.15 439.44,-60.24 436.19,-70.32 443.19,-70.15"/>
</g>
<!-- 36 -->
<g id="node5" class="node">
<title>36</title>
<ellipse fill="none" stroke="black" cx="532" cy="-241" rx="29.8" ry="18"/>
<text text-anchor="middle" x="532" y="-237.3" font-family="Times,serif" font-size="14.00">Nan</text>
</g>
<!-- 30 -->
<g id="node9" class="node">
<title>30</title>
<ellipse fill="none" stroke="black" cx="519" cy="-146" rx="40.09" ry="18"/>
<text text-anchor="middle" x="519" y="-142.3" font-family="Times,serif" font-size="14.00">V2250</text>
</g>
<!-- 36&#45;&gt;30 -->
<g id="edge2" class="edge">
<title>36&#45;&gt;30</title>
<path fill="none" stroke="blue" stroke-dasharray="5,2" d="M529.62,-222.94C527.72,-209.39 525.04,-190.18 522.84,-174.47"/>
<polygon fill="blue" stroke="blue" points="526.26,-173.68 521.41,-164.26 519.33,-174.65 526.26,-173.68"/>
</g>
<!-- 30&#45;&gt;42 -->
<g id="edge5" class="edge">
<title>30&#45;&gt;42</title>
<path fill="none" stroke="blue" stroke-dasharray="5,2" d="M486.05,-135.54C459.8,-126.89 423.09,-112.2 396,-91 387.76,-84.55 380.34,-75.87 374.34,-67.66"/>
<polygon fill="blue" stroke="blue" points="377.2,-65.64 368.63,-59.39 371.43,-69.61 377.2,-65.64"/>
<text text-anchor="middle" x="426.5" y="-102" font-family="Times,serif" font-size="10.00">5</text>
</g>
</g>
</svg>
