<?xml version="1.0" encoding="UTF-8" standalone="no"?>
<!DOCTYPE svg PUBLIC "-//W3C//DTD SVG 1.1//EN"
 "http://www.w3.org/Graphics/SVG/1.1/DTD/svg11.dtd">
<!-- Generated by graphviz version 2.43.0 (0)
 -->
<!-- Title: textual_flow_diagram Pages: 1 -->
<svg width="377pt" height="282pt"
 viewBox="0.00 0.00 377.00 282.00" xmlns="http://www.w3.org/2000/svg" xmlns:xlink="http://www.w3.org/1999/xlink">
<g id="graph0" class="graph" transform="scale(1 1) rotate(0) translate(4 278)">
<title>textual_flow_diagram</title>
<polygon fill="white" stroke="transparent" points="-4,4 -4,-278 373,-278 373,4 -4,4"/>
<g id="clust1" class="cluster">
<title>cluster_legend</title>
<polygon fill="none" stroke="black" points="8,-182 8,-236 164,-236 164,-182 8,-182"/>
</g>
<g id="clust2" class="cluster">
<title>cluster_plot</title>
</g>
<g id="clust3" class="cluster">
<title>cluster_a</title>
<polygon fill="none" stroke="black" points="180,-183 180,-258 272,-258 272,-183 180,-183"/>
<text text-anchor="middle" x="226" y="-242.8" font-family="Times,serif" font-size="14.00">a</text>
</g>
<g id="clust4" class="cluster">
<title>cluster_b</title>
<polygon fill="none" stroke="black" points="180,-99 180,-174 353,-174 353,-99 180,-99"/>
<text text-anchor="middle" x="266.5" y="-158.8" font-family="Times,serif" font-size="14.00">b</text>
</g>
<g id="clust5" class="cluster">
<title>cluster_c</title>
<polygon fill="none" stroke="black" points="272,-16 272,-91 350,-91 350,-16 272,-16"/>
<text text-anchor="middle" x="311" y="-75.8" font-family="Times,serif" font-size="14.00">c</text>
</g>
<!-- label -->
<g id="node1" class="node">
<title>label</title>
<text text-anchor="middle" x="86" y="-212.8" font-family="Times,serif" font-size="14.00">adstag1.2.40U70</text>
<text text-anchor="middle" x="86" y="-197.8" font-family="Times,serif" font-size="14.00">Con = 3</text>
</g>
<!-- 11 -->
<g id="node2" class="node">
<title>11</title>
<ellipse fill="none" stroke="black" cx="226" cy="-209" rx="38.19" ry="18"/>
<text text-anchor="middle" x="226" y="-205.3" font-family="Times,serif" font-size="14.00">aBase</text>
</g>
<!-- 17 -->
<g id="node4" class="node">
<title>17</title>
<ellipse fill="none" stroke="black" cx="223" cy="-125" rx="35.19" ry="18"/>
<text text-anchor="middle" x="223" y="-121.3" font-family="Times,serif" font-size="14.00">Neap</text>
</g>
<!-- 11&#45;&gt;17 -->
<g id="edge2" class="edge">
<title>11&#45;&gt;17</title>
<path fill="none" stroke="blue" stroke-width="2" d="M225.36,-190.61C224.97,-179.77 224.45,-165.6 224,-153.29"/>
<polygon fill="blue" stroke="blue" stroke-width="2" points="227.49,-152.95 223.63,-143.08 220.49,-153.21 227.49,-152.95"/>
</g>
<!-- 8 -->
<g id="node3" class="node">
<title>8</title>
<ellipse fill="none" stroke="black" cx="311" cy="-125" rx="34.39" ry="18"/>
<text text-anchor="middle" x="311" y="-121.3" font-family="Times,serif" font-size="14.00">Marc</text>
</g>
<!-- 13 -->
<g id="node5" class="node">
<title>13</title>
<ellipse fill="none" stroke="black" cx="311" cy="-42" rx="31.4" ry="18"/>
<text text-anchor="middle" x="311" y="-38.3" font-family="Times,serif" font-size="14.00">Mon</text>
</g>
<!-- 8&#45;&gt;13 -->
<g id="edge1" class="edge">
<title>8&#45;&gt;13</title>
<path fill="none" stroke="blue" stroke-dasharray="1,5" d="M311,-106.82C311,-96.19 311,-82.31 311,-70.2"/>
<polygon fill="blue" stroke="blue" points="314.5,-70.15 311,-60.15 307.5,-70.15 314.5,-70.15"/>
</g>
</g>
</svg>
