<?xml version="1.0" encoding="UTF-8" standalone="no"?>
<!DOCTYPE svg PUBLIC "-//W3C//DTD SVG 1.1//EN"
 "http://www.w3.org/Graphics/SVG/1.1/DTD/svg11.dtd">
<!-- Generated by graphviz version 2.43.0 (0)
 -->
<!-- Title: textual_flow_diagram Pages: 1 -->
<svg width="505pt" height="304pt"
 viewBox="0.00 0.00 505.00 304.00" xmlns="http://www.w3.org/2000/svg" xmlns:xlink="http://www.w3.org/1999/xlink">
<g id="graph0" class="graph" transform="scale(1 1) rotate(0) translate(4 300)">
<title>textual_flow_diagram</title>
<polygon fill="white" stroke="transparent" points="-4,4 -4,-300 501,-300 501,4 -4,4"/>
<g id="clust1" class="cluster">
<title>cluster_legend</title>
<polygon fill="none" stroke="black" points="8,-204 8,-258 178,-258 178,-204 8,-204"/>
</g>
<g id="clust2" class="cluster">
<title>cluster_plot</title>
</g>
<g id="clust3" class="cluster">
<title>cluster_a</title>
<polygon fill="none" stroke="black" points="362,-205 362,-280 454,-280 454,-205 362,-205"/>
<text text-anchor="middle" x="408" y="-264.8" font-family="Times,serif" font-size="14.00">a</text>
</g>
<g id="clust4" class="cluster">
<title>cluster_b</title>
<polygon fill="none" stroke="black" points="194,-110 194,-185 446,-185 446,-110 194,-110"/>
<text text-anchor="middle" x="320" y="-169.8" font-family="Times,serif" font-size="14.00">b</text>
</g>
<g id="clust5" class="cluster">
<title>cluster_c</title>
<polygon fill="none" stroke="black" points="194,-16 194,-91 278,-91 278,-16 194,-16"/>
<text text-anchor="middle" x="236" y="-75.8" font-family="Times,serif" font-size="14.00">c</text>
</g>
<g id="clust6" class="cluster">
<title>cluster_d</title>
<polygon fill="none" stroke="black" points="373,-16 373,-91 469,-91 469,-16 373,-16"/>
<text text-anchor="middle" x="421" y="-75.8" font-family="Times,serif" font-size="14.00">d</text>
</g>
<!-- label -->
<g id="node1" class="node">
<title>label</title>
<text text-anchor="middle" x="93" y="-234.8" font-family="Times,serif" font-size="14.00">adstag1.2.14U4&#45;12</text>
<text text-anchor="middle" x="93" y="-219.8" font-family="Times,serif" font-size="14.00">Con = 3</text>
</g>
<!-- 32 -->
<g id="node2" class="node">
<title>32</title>
<ellipse fill="none" stroke="black" cx="408" cy="-231" rx="38.19" ry="18"/>
<text text-anchor="middle" x="408" y="-227.3" font-family="Times,serif" font-size="14.00">aBase</text>
</g>
<!-- 17 -->
<g id="node3" class="node">
<title>17</title>
<ellipse fill="none" stroke="black" cx="322" cy="-136" rx="37.89" ry="18"/>
<text text-anchor="middle" x="322" y="-132.3" font-family="Times,serif" font-size="14.00">M136</text>
</g>
<!-- 32&#45;&gt;17 -->
<g id="edge1" class="edge">
<title>32&#45;&gt;17</title>
<path fill="none" stroke="blue" stroke-width="2" d="M393.41,-214.22C379.82,-199.53 359.38,-177.42 343.84,-160.62"/>
<polygon fill="blue" stroke="blue" stroke-width="2" points="346.02,-157.82 336.66,-152.85 340.88,-162.57 346.02,-157.82"/>
</g>
<!-- 27 -->
<g id="node4" class="node">
<title>27</title>
<ellipse fill="none" stroke="black" cx="408" cy="-136" rx="29.8" ry="18"/>
<text text-anchor="middle" x="408" y="-132.3" font-family="Times,serif" font-size="14.00">Nan</text>
</g>
<!-- 32&#45;&gt;27 -->
<g id="edge2" class="edge">
<title>32&#45;&gt;27</title>
<path fill="none" stroke="blue" d="M408,-212.94C408,-199.39 408,-180.18 408,-164.47"/>
<polygon fill="blue" stroke="blue" points="411.5,-164.26 408,-154.26 404.5,-164.26 411.5,-164.26"/>
</g>
<!-- 35 -->
<g id="node7" class="node">
<title>35</title>
<ellipse fill="none" stroke="black" cx="421" cy="-42" rx="40.09" ry="18"/>
<text text-anchor="middle" x="421" y="-38.3" font-family="Times,serif" font-size="14.00">V1897</text>
</g>
<!-- 32&#45;&gt;35 -->
<g id="edge4" class="edge">
<title>32&#45;&gt;35</title>
<path fill="none" stroke="blue" d="M427.42,-215.1C436.09,-207.21 445.38,-196.73 450,-185 465.34,-146.09 448.53,-97.85 434.86,-68.79"/>
<polygon fill="blue" stroke="blue" points="437.95,-67.14 430.39,-59.72 431.67,-70.23 437.95,-67.14"/>
<text text-anchor="middle" x="459.5" y="-133.5" font-family="Times,serif" font-size="10.00">2</text>
</g>
<!-- 27&#45;&gt;35 -->
<g id="edge3" class="edge">
<title>27&#45;&gt;35</title>
<path fill="none" stroke="blue" stroke-dasharray="1,5" d="M410.45,-117.7C412.33,-104.33 414.98,-85.59 417.15,-70.22"/>
<polygon fill="blue" stroke="blue" points="420.63,-70.62 418.57,-60.23 413.7,-69.64 420.63,-70.62"/>
</g>
<!-- 38 -->
<g id="node5" class="node">
<title>38</title>
<ellipse fill="none" stroke="black" cx="234" cy="-136" rx="31.7" ry="18"/>
<text text-anchor="middle" x="234" y="-132.3" font-family="Times,serif" font-size="14.00">Taur</text>
</g>
<!-- 37 -->
<g id="node6" class="node">
<title>37</title>
<ellipse fill="none" stroke="black" cx="236" cy="-42" rx="34.39" ry="18"/>
<text text-anchor="middle" x="236" y="-38.3" font-family="Times,serif" font-size="14.00">V569</text>
</g>
<!-- 38&#45;&gt;37 -->
<g id="edge5" class="edge">
<title>38&#45;&gt;37</title>
<path fill="none" stroke="blue" stroke-dasharray="5,2" d="M234.38,-117.7C234.66,-104.46 235.07,-85.95 235.4,-70.66"/>
<polygon fill="blue" stroke="blue" points="238.91,-70.3 235.63,-60.23 231.91,-70.15 238.91,-70.3"/>
</g>
</g>
</svg>
