<?xml version="1.0" encoding="UTF-8" standalone="no"?>
<!DOCTYPE svg PUBLIC "-//W3C//DTD SVG 1.1//EN"
 "http://www.w3.org/Graphics/SVG/1.1/DTD/svg11.dtd">
<!-- Generated by graphviz version 2.43.0 (0)
 -->
<!-- Title: textual_flow_diagram Pages: 1 -->
<svg width="748pt" height="199pt"
 viewBox="0.00 0.00 748.00 199.00" xmlns="http://www.w3.org/2000/svg" xmlns:xlink="http://www.w3.org/1999/xlink">
<g id="graph0" class="graph" transform="scale(1 1) rotate(0) translate(4 195)">
<title>textual_flow_diagram</title>
<polygon fill="white" stroke="transparent" points="-4,4 -4,-195 744,-195 744,4 -4,4"/>
<g id="clust1" class="cluster">
<title>cluster_legend</title>
<polygon fill="none" stroke="black" points="8,-99 8,-153 164,-153 164,-99 8,-99"/>
</g>
<g id="clust2" class="cluster">
<title>cluster_plot</title>
</g>
<g id="clust3" class="cluster">
<title>cluster_a</title>
<polygon fill="none" stroke="black" points="198,-100 198,-175 718,-175 718,-100 198,-100"/>
<text text-anchor="middle" x="458" y="-159.8" font-family="Times,serif" font-size="14.00">a</text>
</g>
<g id="clust4" class="cluster">
<title>cluster_b</title>
<polygon fill="none" stroke="black" points="180,-16 180,-91 450,-91 450,-16 180,-16"/>
<text text-anchor="middle" x="315" y="-75.8" font-family="Times,serif" font-size="14.00">b</text>
</g>
<g id="clust5" class="cluster">
<title>cluster_c</title>
<polygon fill="none" stroke="black" points="458,-16 458,-91 624,-91 624,-16 458,-16"/>
<text text-anchor="middle" x="541" y="-75.8" font-family="Times,serif" font-size="14.00">c</text>
</g>
<g id="clust6" class="cluster">
<title>cluster_d</title>
<polygon fill="none" stroke="black" points="632,-16 632,-91 724,-91 724,-16 632,-16"/>
<text text-anchor="middle" x="678" y="-75.8" font-family="Times,serif" font-size="14.00">d</text>
</g>
<!-- label -->
<g id="node1" class="node">
<title>label</title>
<text text-anchor="middle" x="86" y="-129.8" font-family="Times,serif" font-size="14.00">adstag1.3.43U12</text>
<text text-anchor="middle" x="86" y="-114.8" font-family="Times,serif" font-size="14.00">Con = 5</text>
</g>
<!-- 4 -->
<g id="node2" class="node">
<title>4</title>
<ellipse fill="none" stroke="black" cx="401" cy="-126" rx="33.6" ry="18"/>
<text text-anchor="middle" x="401" y="-122.3" font-family="Times,serif" font-size="14.00">La22</text>
</g>
<!-- 30 -->
<g id="node10" class="node">
<title>30</title>
<ellipse fill="none" stroke="black" cx="408" cy="-42" rx="34.39" ry="18"/>
<text text-anchor="middle" x="408" y="-38.3" font-family="Times,serif" font-size="14.00">A116</text>
</g>
<!-- 4&#45;&gt;30 -->
<g id="edge6" class="edge">
<title>4&#45;&gt;30</title>
<path fill="none" stroke="blue" stroke-dasharray="5,2" d="M402.45,-108.01C403.37,-97.2 404.59,-82.95 405.65,-70.54"/>
<polygon fill="blue" stroke="blue" points="409.16,-70.51 406.53,-60.25 402.19,-69.92 409.16,-70.51"/>
</g>
<!-- 8 -->
<g id="node3" class="node">
<title>8</title>
<ellipse fill="none" stroke="black" cx="321" cy="-126" rx="28.7" ry="18"/>
<text text-anchor="middle" x="321" y="-122.3" font-family="Times,serif" font-size="14.00">A25</text>
</g>
<!-- 2 -->
<g id="node8" class="node">
<title>2</title>
<ellipse fill="none" stroke="black" cx="321" cy="-42" rx="34.39" ry="18"/>
<text text-anchor="middle" x="321" y="-38.3" font-family="Times,serif" font-size="14.00">V566</text>
</g>
<!-- 8&#45;&gt;2 -->
<g id="edge1" class="edge">
<title>8&#45;&gt;2</title>
<path fill="none" stroke="blue" stroke-dasharray="5,2" d="M321,-107.61C321,-96.77 321,-82.6 321,-70.29"/>
<polygon fill="blue" stroke="blue" points="324.5,-70.08 321,-60.08 317.5,-70.08 324.5,-70.08"/>
</g>
<!-- 9 -->
<g id="node4" class="node">
<title>9</title>
<ellipse fill="none" stroke="black" cx="491" cy="-126" rx="38.19" ry="18"/>
<text text-anchor="middle" x="491" y="-122.3" font-family="Times,serif" font-size="14.00">aBase</text>
</g>
<!-- 18 -->
<g id="node12" class="node">
<title>18</title>
<ellipse fill="none" stroke="black" cx="504" cy="-42" rx="37.89" ry="18"/>
<text text-anchor="middle" x="504" y="-38.3" font-family="Times,serif" font-size="14.00">LaSM</text>
</g>
<!-- 9&#45;&gt;18 -->
<g id="edge3" class="edge">
<title>9&#45;&gt;18</title>
<path fill="none" stroke="blue" d="M493.69,-108.01C495.44,-97.01 497.74,-82.46 499.73,-69.92"/>
<polygon fill="blue" stroke="blue" points="503.2,-70.39 501.31,-59.97 496.29,-69.3 503.2,-70.39"/>
</g>
<!-- 16 -->
<g id="node5" class="node">
<title>16</title>
<ellipse fill="none" stroke="black" cx="678" cy="-126" rx="31.7" ry="18"/>
<text text-anchor="middle" x="678" y="-122.3" font-family="Times,serif" font-size="14.00">Taur</text>
</g>
<!-- 24 -->
<g id="node13" class="node">
<title>24</title>
<ellipse fill="none" stroke="black" cx="678" cy="-42" rx="37.89" ry="18"/>
<text text-anchor="middle" x="678" y="-38.3" font-family="Times,serif" font-size="14.00">M118</text>
</g>
<!-- 16&#45;&gt;24 -->
<g id="edge5" class="edge">
<title>16&#45;&gt;24</title>
<path fill="none" stroke="blue" stroke-dasharray="5,2" d="M678,-107.61C678,-96.77 678,-82.6 678,-70.29"/>
<polygon fill="blue" stroke="blue" points="681.5,-70.08 678,-60.08 674.5,-70.08 681.5,-70.08"/>
</g>
<!-- 23 -->
<g id="node6" class="node">
<title>23</title>
<ellipse fill="none" stroke="black" cx="588" cy="-126" rx="40.09" ry="18"/>
<text text-anchor="middle" x="588" y="-122.3" font-family="Times,serif" font-size="14.00">V1897</text>
</g>
<!-- 14 -->
<g id="node11" class="node">
<title>14</title>
<ellipse fill="none" stroke="black" cx="588" cy="-42" rx="27.9" ry="18"/>
<text text-anchor="middle" x="588" y="-38.3" font-family="Times,serif" font-size="14.00">Bas</text>
</g>
<!-- 23&#45;&gt;14 -->
<g id="edge2" class="edge">
<title>23&#45;&gt;14</title>
<path fill="none" stroke="blue" d="M588,-107.61C588,-96.77 588,-82.6 588,-70.29"/>
<polygon fill="blue" stroke="blue" points="591.5,-70.08 588,-60.08 584.5,-70.08 591.5,-70.08"/>
</g>
<!-- 37 -->
<g id="node7" class="node">
<title>37</title>
<ellipse fill="none" stroke="black" cx="240" cy="-126" rx="34.39" ry="18"/>
<text text-anchor="middle" x="240" y="-122.3" font-family="Times,serif" font-size="14.00">V560</text>
</g>
<!-- 22 -->
<g id="node9" class="node">
<title>22</title>
<ellipse fill="none" stroke="black" cx="228" cy="-42" rx="40.09" ry="18"/>
<text text-anchor="middle" x="228" y="-38.3" font-family="Times,serif" font-size="14.00">V1920</text>
</g>
<!-- 37&#45;&gt;22 -->
<g id="edge4" class="edge">
<title>37&#45;&gt;22</title>
<path fill="none" stroke="blue" stroke-dasharray="5,2" d="M237.51,-108.01C235.9,-97.01 233.78,-82.46 231.94,-69.92"/>
<polygon fill="blue" stroke="blue" points="235.39,-69.36 230.48,-59.97 228.47,-70.37 235.39,-69.36"/>
</g>
</g>
</svg>
