<?xml version="1.0" encoding="UTF-8" standalone="no"?>
<!DOCTYPE svg PUBLIC "-//W3C//DTD SVG 1.1//EN"
 "http://www.w3.org/Graphics/SVG/1.1/DTD/svg11.dtd">
<!-- Generated by graphviz version 2.43.0 (0)
 -->
<!-- Title: textual_flow_diagram Pages: 1 -->
<svg width="1058pt" height="520pt"
 viewBox="0.00 0.00 1058.50 520.00" xmlns="http://www.w3.org/2000/svg" xmlns:xlink="http://www.w3.org/1999/xlink">
<g id="graph0" class="graph" transform="scale(1 1) rotate(0) translate(4 516)">
<title>textual_flow_diagram</title>
<polygon fill="white" stroke="transparent" points="-4,4 -4,-516 1054.5,-516 1054.5,4 -4,4"/>
<g id="clust1" class="cluster">
<title>cluster_legend</title>
<polygon fill="none" stroke="black" points="8,-397 8,-451 164,-451 164,-397 8,-397"/>
</g>
<g id="clust2" class="cluster">
<title>cluster_plot</title>
</g>
<g id="clust3" class="cluster">
<title>cluster_a</title>
<polygon fill="none" stroke="black" points="400,-398 400,-496 740,-496 740,-398 400,-398"/>
<text text-anchor="middle" x="570" y="-480.8" font-family="Times,serif" font-size="14.00">a</text>
</g>
<g id="clust4" class="cluster">
<title>cluster_b</title>
<polygon fill="none" stroke="black" points="284,-143 284,-241 724,-241 724,-143 284,-143"/>
<text text-anchor="middle" x="504" y="-225.8" font-family="Times,serif" font-size="14.00">b</text>
</g>
<g id="clust5" class="cluster">
<title>cluster_c</title>
<polygon fill="none" stroke="black" points="490,-270 490,-368 574,-368 574,-270 490,-270"/>
<text text-anchor="middle" x="532" y="-352.8" font-family="Times,serif" font-size="14.00">c</text>
</g>
<g id="clust6" class="cluster">
<title>cluster_d</title>
<polygon fill="none" stroke="black" points="582,-270 582,-368 950,-368 950,-270 582,-270"/>
<text text-anchor="middle" x="766" y="-352.8" font-family="Times,serif" font-size="14.00">d</text>
</g>
<g id="clust7" class="cluster">
<title>cluster_e</title>
<polygon fill="none" stroke="black" points="209,-16 209,-114 281,-114 281,-16 209,-16"/>
<text text-anchor="middle" x="245" y="-98.8" font-family="Times,serif" font-size="14.00">e</text>
</g>
<g id="clust8" class="cluster">
<title>cluster_f</title>
<polygon fill="none" stroke="black" points="315,-270 315,-368 482,-368 482,-270 315,-270"/>
<text text-anchor="middle" x="398.5" y="-352.8" font-family="Times,serif" font-size="14.00">f</text>
</g>
<g id="clust9" class="cluster">
<title>cluster_g</title>
<polygon fill="none" stroke="black" points="779,-16 779,-114 1022,-114 1022,-16 779,-16"/>
<text text-anchor="middle" x="900.5" y="-98.8" font-family="Times,serif" font-size="14.00">g</text>
</g>
<g id="clust10" class="cluster">
<title>cluster_h</title>
<polygon fill="none" stroke="black" points="192,-143 192,-241 276,-241 276,-143 192,-143"/>
<text text-anchor="middle" x="234" y="-225.8" font-family="Times,serif" font-size="14.00">h</text>
</g>
<g id="clust11" class="cluster">
<title>cluster_i</title>
<polygon fill="none" stroke="black" points="888,-143 888,-241 980,-241 980,-143 888,-143"/>
<text text-anchor="middle" x="934" y="-225.8" font-family="Times,serif" font-size="14.00">i</text>
</g>
<!-- label -->
<g id="node1" class="node">
<title>label</title>
<text text-anchor="middle" x="86" y="-427.8" font-family="Times,serif" font-size="14.00">adstag1.3.59U74</text>
<text text-anchor="middle" x="86" y="-412.8" font-family="Times,serif" font-size="14.00">Con = 3</text>
</g>
<!-- 5 -->
<g id="node2" class="node">
<title>5</title>
<ellipse fill="none" stroke="black" cx="442" cy="-424" rx="33.6" ry="18"/>
<text text-anchor="middle" x="442" y="-420.3" font-family="Times,serif" font-size="14.00">La22</text>
</g>
<!-- 6 -->
<g id="node6" class="node">
<title>6</title>
<ellipse fill="none" stroke="black" cx="682" cy="-169" rx="34.39" ry="18"/>
<text text-anchor="middle" x="682" y="-165.3" font-family="Times,serif" font-size="14.00">V565</text>
</g>
<!-- 5&#45;&gt;6 -->
<g id="edge4" class="edge">
<title>5&#45;&gt;6</title>
<path fill="none" stroke="blue" stroke-dasharray="5,2" d="M408.3,-421.37C360.49,-418.27 276.67,-409.68 258,-387 242.72,-368.45 182.85,-360 311,-270 327.3,-258.55 469.16,-250.7 489,-249 505.63,-247.58 624.68,-249.58 639,-241 655.58,-231.06 666.6,-212.04 673.32,-196.19"/>
<polygon fill="blue" stroke="blue" points="676.6,-197.42 676.97,-186.84 670.07,-194.88 676.6,-197.42"/>
</g>
<!-- 24 -->
<g id="node9" class="node">
<title>24</title>
<ellipse fill="none" stroke="black" cx="502" cy="-169" rx="34.39" ry="18"/>
<text text-anchor="middle" x="502" y="-165.3" font-family="Times,serif" font-size="14.00">A116</text>
</g>
<!-- 5&#45;&gt;24 -->
<g id="edge19" class="edge">
<title>5&#45;&gt;24</title>
<path fill="none" stroke="blue" stroke-dasharray="5,2" d="M408.42,-421.97C356.57,-419.6 260.71,-411.88 239,-387 218.83,-363.88 212.69,-271.08 234,-249 251.37,-231 437.43,-253.67 459,-241 475.67,-231.21 486.68,-212.18 493.38,-196.29"/>
<polygon fill="blue" stroke="blue" points="496.67,-197.5 497.01,-186.91 490.14,-194.97 496.67,-197.5"/>
</g>
<!-- 9 -->
<g id="node13" class="node">
<title>9</title>
<ellipse fill="none" stroke="black" cx="624" cy="-296" rx="33.6" ry="18"/>
<text text-anchor="middle" x="624" y="-292.3" font-family="Times,serif" font-size="14.00">La35</text>
</g>
<!-- 5&#45;&gt;9 -->
<g id="edge8" class="edge">
<title>5&#45;&gt;9</title>
<path fill="none" stroke="blue" stroke-dasharray="1,5" d="M445.45,-405.81C448.49,-395.39 454.05,-382.83 464,-376 484.94,-361.63 556.13,-380.9 578,-368 594.97,-357.99 606.79,-338.97 614.19,-323.14"/>
<polygon fill="blue" stroke="blue" points="617.47,-324.37 618.24,-313.8 611.05,-321.58 617.47,-324.37"/>
</g>
<!-- 37 -->
<g id="node18" class="node">
<title>37</title>
<ellipse fill="none" stroke="black" cx="361" cy="-296" rx="37.89" ry="18"/>
<text text-anchor="middle" x="361" y="-292.3" font-family="Times,serif" font-size="14.00">M111</text>
</g>
<!-- 5&#45;&gt;37 -->
<g id="edge24" class="edge">
<title>5&#45;&gt;37</title>
<path fill="none" stroke="blue" stroke-dasharray="1,5" d="M408.59,-420.97C363.12,-417.43 285.38,-408.35 268,-387 244.82,-358.53 289.12,-329.74 324.2,-312.63"/>
<polygon fill="blue" stroke="blue" points="325.77,-315.76 333.33,-308.34 322.79,-309.43 325.77,-315.76"/>
</g>
<!-- 32 -->
<g id="node21" class="node">
<title>32</title>
<ellipse fill="none" stroke="black" cx="907" cy="-42" rx="31.7" ry="18"/>
<text text-anchor="middle" x="907" y="-38.3" font-family="Times,serif" font-size="14.00">Bodl</text>
</g>
<!-- 5&#45;&gt;32 -->
<g id="edge22" class="edge">
<title>5&#45;&gt;32</title>
<path fill="none" stroke="blue" stroke-dasharray="5,2" d="M460.74,-408.97C467.95,-404.32 476.51,-399.65 485,-397 534.84,-381.43 914.08,-401.65 954,-368 1031.14,-302.99 1028.15,-233.71 984,-143 974.86,-124.21 960.61,-129.85 947,-114 935.39,-100.48 925.52,-83.08 918.49,-68.89"/>
<polygon fill="blue" stroke="blue" points="921.56,-67.18 914.09,-59.67 915.24,-70.2 921.56,-67.18"/>
</g>
<!-- 41 -->
<g id="node22" class="node">
<title>41</title>
<ellipse fill="none" stroke="black" cx="234" cy="-169" rx="34.39" ry="18"/>
<text text-anchor="middle" x="234" y="-165.3" font-family="Times,serif" font-size="14.00">A336</text>
</g>
<!-- 5&#45;&gt;41 -->
<g id="edge28" class="edge">
<title>5&#45;&gt;41</title>
<path fill="none" stroke="blue" stroke-dasharray="5,2" d="M408.13,-423.53C364.19,-422.88 286.27,-417.04 228,-387 217.39,-381.53 213.57,-379.03 209,-368 185.02,-310.11 207.4,-235.21 222.6,-196.21"/>
<polygon fill="blue" stroke="blue" points="225.96,-197.24 226.47,-186.65 219.47,-194.61 225.96,-197.24"/>
<text text-anchor="middle" x="212.5" y="-293.5" font-family="Times,serif" font-size="10.00">2</text>
</g>
<!-- 12 -->
<g id="node3" class="node">
<title>12</title>
<ellipse fill="none" stroke="black" cx="698" cy="-424" rx="34.39" ry="18"/>
<text text-anchor="middle" x="698" y="-420.3" font-family="Times,serif" font-size="14.00">V566</text>
</g>
<!-- 8 -->
<g id="node12" class="node">
<title>8</title>
<ellipse fill="none" stroke="black" cx="902" cy="-296" rx="40.09" ry="18"/>
<text text-anchor="middle" x="902" y="-292.3" font-family="Times,serif" font-size="14.00">V1639</text>
</g>
<!-- 12&#45;&gt;8 -->
<g id="edge7" class="edge">
<title>12&#45;&gt;8</title>
<path fill="none" stroke="blue" stroke-dasharray="1,5" d="M730.23,-417.46C763.45,-410.47 815.39,-395.84 852,-368 867.7,-356.06 880.41,-337.78 889.09,-322.76"/>
<polygon fill="blue" stroke="blue" points="892.21,-324.36 893.96,-313.91 886.07,-320.98 892.21,-324.36"/>
</g>
<!-- 20 -->
<g id="node4" class="node">
<title>20</title>
<ellipse fill="none" stroke="black" cx="532" cy="-424" rx="38.19" ry="18"/>
<text text-anchor="middle" x="532" y="-420.3" font-family="Times,serif" font-size="14.00">aBase</text>
</g>
<!-- 10 -->
<g id="node7" class="node">
<title>10</title>
<ellipse fill="none" stroke="black" cx="592" cy="-169" rx="37.89" ry="18"/>
<text text-anchor="middle" x="592" y="-165.3" font-family="Times,serif" font-size="14.00">LaSM</text>
</g>
<!-- 20&#45;&gt;10 -->
<g id="edge10" class="edge">
<title>20&#45;&gt;10</title>
<path fill="none" stroke="blue" d="M510.25,-408.95C502.54,-404.52 493.63,-400.01 485,-397 410.96,-371.21 361.68,-427.82 311,-368 282.85,-334.77 283.21,-303.54 311,-270 343.03,-231.34 372.19,-255.31 422,-249 449.17,-245.56 521.3,-254.74 545,-241 562.16,-231.05 574.24,-212.03 581.85,-196.18"/>
<polygon fill="blue" stroke="blue" points="585.15,-197.39 586.02,-186.83 578.75,-194.54 585.15,-197.39"/>
</g>
<!-- 22 -->
<g id="node8" class="node">
<title>22</title>
<ellipse fill="none" stroke="black" cx="420" cy="-169" rx="29.8" ry="18"/>
<text text-anchor="middle" x="420" y="-165.3" font-family="Times,serif" font-size="14.00">Nan</text>
</g>
<!-- 20&#45;&gt;22 -->
<g id="edge18" class="edge">
<title>20&#45;&gt;22</title>
<path fill="none" stroke="blue" d="M510.89,-408.69C503.09,-404.13 493.96,-399.6 485,-397 412.3,-375.94 386.23,-412.59 315,-387 301.53,-382.16 295.48,-380.76 289,-368 269.28,-329.16 269.52,-308.96 289,-270 295.96,-256.09 302.58,-254.83 317,-249 343.58,-238.26 357.28,-257.1 381,-241 396.37,-230.57 406.26,-212 412.23,-196.47"/>
<polygon fill="blue" stroke="blue" points="415.61,-197.42 415.61,-186.82 409,-195.1 415.61,-197.42"/>
</g>
<!-- 15 -->
<g id="node11" class="node">
<title>15</title>
<ellipse fill="none" stroke="black" cx="532" cy="-296" rx="34.39" ry="18"/>
<text text-anchor="middle" x="532" y="-292.3" font-family="Times,serif" font-size="14.00">V560</text>
</g>
<!-- 20&#45;&gt;15 -->
<g id="edge14" class="edge">
<title>20&#45;&gt;15</title>
<path fill="none" stroke="blue" stroke-width="2" d="M532,-405.74C532,-384.73 532,-348.97 532,-324.23"/>
<polygon fill="blue" stroke="blue" stroke-width="2" points="535.5,-324.05 532,-314.05 528.5,-324.05 535.5,-324.05"/>
</g>
<!-- 13 -->
<g id="node14" class="node">
<title>13</title>
<ellipse fill="none" stroke="black" cx="716" cy="-296" rx="40.09" ry="18"/>
<text text-anchor="middle" x="716" y="-292.3" font-family="Times,serif" font-size="14.00">V2036</text>
</g>
<!-- 20&#45;&gt;13 -->
<g id="edge13" class="edge">
<title>20&#45;&gt;13</title>
<path fill="none" stroke="blue" d="M554.52,-409.43C562.14,-405.14 570.8,-400.58 579,-397 616.74,-380.52 634.03,-392.68 667,-368 682.79,-356.18 695.3,-337.74 703.73,-322.61"/>
<polygon fill="blue" stroke="blue" points="706.85,-324.19 708.44,-313.71 700.67,-320.91 706.85,-324.19"/>
</g>
<!-- 42 -->
<g id="node15" class="node">
<title>42</title>
<ellipse fill="none" stroke="black" cx="809" cy="-296" rx="34.39" ry="18"/>
<text text-anchor="middle" x="809" y="-292.3" font-family="Times,serif" font-size="14.00">S249</text>
</g>
<!-- 20&#45;&gt;42 -->
<g id="edge29" class="edge">
<title>20&#45;&gt;42</title>
<path fill="none" stroke="blue" d="M553.73,-408.9C561.44,-404.47 570.35,-399.96 579,-397 658.15,-369.89 695.26,-414.22 765,-368 780.86,-357.48 792.03,-339.09 799.14,-323.66"/>
<polygon fill="blue" stroke="blue" points="802.53,-324.63 803.24,-314.06 796.09,-321.88 802.53,-324.63"/>
</g>
<!-- 40 -->
<g id="node16" class="node">
<title>40</title>
<ellipse fill="none" stroke="black" cx="245" cy="-42" rx="27.9" ry="18"/>
<text text-anchor="middle" x="245" y="-38.3" font-family="Times,serif" font-size="14.00">Bas</text>
</g>
<!-- 20&#45;&gt;40 -->
<g id="edge26" class="edge">
<title>20&#45;&gt;40</title>
<path fill="none" stroke="blue" stroke-width="2" d="M510.9,-408.66C503.1,-404.09 493.97,-399.56 485,-397 443.28,-385.08 329.87,-404.12 290,-387 278.73,-382.16 277.34,-377.82 270,-368 240.74,-328.82 249.71,-308.83 220,-270 208.34,-254.76 195.78,-258.55 188,-241 170.35,-201.18 176.84,-185.1 188,-143 195.5,-114.69 213.09,-86.02 226.77,-66.68"/>
<polygon fill="blue" stroke="blue" stroke-width="2" points="229.67,-68.63 232.72,-58.49 224.01,-64.52 229.67,-68.63"/>
<text text-anchor="middle" x="211.5" y="-252" font-family="Times,serif" font-size="10.00">3</text>
</g>
<!-- 0 -->
<g id="node19" class="node">
<title>0</title>
<ellipse fill="none" stroke="black" cx="822" cy="-42" rx="35.19" ry="18"/>
<text text-anchor="middle" x="822" y="-38.3" font-family="Times,serif" font-size="14.00">Neap</text>
</g>
<!-- 20&#45;&gt;0 -->
<g id="edge1" class="edge">
<title>20&#45;&gt;0</title>
<path fill="none" stroke="blue" stroke-width="2" d="M553.11,-408.71C560.92,-404.14 570.05,-399.61 579,-397 619.13,-385.32 925.8,-398.84 954,-368 983.39,-335.86 978.2,-306.22 954,-270 935.29,-242 904.38,-267.81 884,-241 870.72,-223.53 878.33,-164.01 872,-143 863.88,-116.05 848.91,-87.54 837.46,-67.89"/>
<polygon fill="blue" stroke="blue" stroke-width="2" points="840.45,-66.06 832.33,-59.26 834.43,-69.64 840.45,-66.06"/>
</g>
<!-- 16 -->
<g id="node23" class="node">
<title>16</title>
<ellipse fill="none" stroke="black" cx="934" cy="-169" rx="37.89" ry="18"/>
<text text-anchor="middle" x="934" y="-165.3" font-family="Times,serif" font-size="14.00">M136</text>
</g>
<!-- 20&#45;&gt;16 -->
<g id="edge15" class="edge">
<title>20&#45;&gt;16</title>
<path fill="none" stroke="blue" stroke-width="2" d="M552.6,-408.8C560.49,-404.12 569.82,-399.49 579,-397 600.83,-391.08 970.2,-403.19 986,-387 1037.74,-333.97 983.15,-239.06 952.23,-194.45"/>
<polygon fill="blue" stroke="blue" stroke-width="2" points="955.04,-192.36 946.4,-186.22 949.32,-196.4 955.04,-192.36"/>
</g>
<!-- 33 -->
<g id="node5" class="node">
<title>33</title>
<ellipse fill="none" stroke="black" cx="617" cy="-424" rx="28.7" ry="18"/>
<text text-anchor="middle" x="617" y="-420.3" font-family="Times,serif" font-size="14.00">A25</text>
</g>
<!-- 17 -->
<g id="node17" class="node">
<title>17</title>
<ellipse fill="none" stroke="black" cx="445" cy="-296" rx="28.7" ry="18"/>
<text text-anchor="middle" x="445" y="-292.3" font-family="Times,serif" font-size="14.00">P01</text>
</g>
<!-- 33&#45;&gt;17 -->
<g id="edge17" class="edge">
<title>33&#45;&gt;17</title>
<path fill="none" stroke="blue" stroke-dasharray="5,2" d="M599.5,-409.42C593.27,-405.03 586.05,-400.42 579,-397 540.04,-378.12 519.81,-395.05 486,-368 471.5,-356.4 461.13,-338.19 454.45,-323.12"/>
<polygon fill="blue" stroke="blue" points="457.64,-321.67 450.59,-313.77 451.17,-324.35 457.64,-321.67"/>
</g>
<!-- 11 -->
<g id="node20" class="node">
<title>11</title>
<ellipse fill="none" stroke="black" cx="985" cy="-42" rx="28.7" ry="18"/>
<text text-anchor="middle" x="985" y="-38.3" font-family="Times,serif" font-size="14.00">S32</text>
</g>
<!-- 33&#45;&gt;11 -->
<g id="edge12" class="edge">
<title>33&#45;&gt;11</title>
<path fill="none" stroke="blue" stroke-dasharray="5,2" d="M633.29,-408.83C639.64,-404.16 647.25,-399.52 655,-397 690.94,-385.3 962.94,-407.01 995,-387 1100.08,-321.43 1028.42,-136.48 997.35,-68.49"/>
<polygon fill="blue" stroke="blue" points="1000.49,-66.92 993.09,-59.33 994.14,-69.88 1000.49,-66.92"/>
</g>
<!-- 22&#45;&gt;0 -->
<g id="edge3" class="edge">
<title>22&#45;&gt;0</title>
<path fill="none" stroke="blue" d="M438.4,-154.59C444.7,-150.45 451.95,-146.14 459,-143 569.45,-93.75 709.84,-63.46 779.21,-50.44"/>
<polygon fill="blue" stroke="blue" points="780.12,-53.84 789.32,-48.58 778.85,-46.95 780.12,-53.84"/>
<text text-anchor="middle" x="509.5" y="-125" font-family="Times,serif" font-size="10.00">3</text>
</g>
<!-- 26 -->
<g id="node10" class="node">
<title>26</title>
<ellipse fill="none" stroke="black" cx="332" cy="-169" rx="40.09" ry="18"/>
<text text-anchor="middle" x="332" y="-165.3" font-family="Times,serif" font-size="14.00">V1897</text>
</g>
<!-- 26&#45;&gt;40 -->
<g id="edge25" class="edge">
<title>26&#45;&gt;40</title>
<path fill="none" stroke="blue" d="M320.63,-151.66C305.69,-130.2 279.35,-92.36 262.04,-67.48"/>
<polygon fill="blue" stroke="blue" points="264.69,-65.16 256.1,-58.95 258.94,-69.16 264.69,-65.16"/>
</g>
<!-- 9&#45;&gt;6 -->
<g id="edge6" class="edge">
<title>9&#45;&gt;6</title>
<path fill="none" stroke="blue" stroke-dasharray="1,5" d="M631.7,-278.4C641.5,-257.29 658.51,-220.62 670.01,-195.84"/>
<polygon fill="blue" stroke="blue" points="673.23,-197.21 674.27,-186.67 666.88,-194.27 673.23,-197.21"/>
<text text-anchor="middle" x="647.5" y="-252" font-family="Times,serif" font-size="10.00">3</text>
</g>
<!-- 9&#45;&gt;24 -->
<g id="edge20" class="edge">
<title>9&#45;&gt;24</title>
<path fill="none" stroke="blue" stroke-dasharray="1,5" d="M602.59,-281.78C595.03,-277.54 586.33,-273.14 578,-270 559.24,-262.92 548.99,-273.32 534,-260 516.13,-244.13 508.24,-217.61 504.76,-197.46"/>
<polygon fill="blue" stroke="blue" points="508.18,-196.7 503.27,-187.31 501.26,-197.71 508.18,-196.7"/>
<text text-anchor="middle" x="537.5" y="-252" font-family="Times,serif" font-size="10.00">2</text>
</g>
<!-- 9&#45;&gt;32 -->
<g id="edge23" class="edge">
<title>9&#45;&gt;32</title>
<path fill="none" stroke="blue" stroke-dasharray="5,2" d="M645.68,-281.93C652.44,-277.98 659.97,-273.71 667,-270 693.55,-256 702.26,-256.44 728,-241 797.21,-199.48 825.63,-197.61 874,-133 888.05,-114.23 896.63,-88.86 901.51,-69.83"/>
<polygon fill="blue" stroke="blue" points="904.94,-70.54 903.85,-60 898.13,-68.92 904.94,-70.54"/>
<text text-anchor="middle" x="869.5" y="-166.5" font-family="Times,serif" font-size="10.00">2</text>
</g>
<!-- 17&#45;&gt;10 -->
<g id="edge11" class="edge">
<title>17&#45;&gt;10</title>
<path fill="none" stroke="blue" stroke-dasharray="5,2" d="M461.92,-281.36C475.34,-271.14 494.94,-257.52 514,-249 526.99,-243.19 533.41,-249.26 545,-241 560.85,-229.7 572.83,-211.24 580.73,-195.98"/>
<polygon fill="blue" stroke="blue" points="583.88,-197.5 585.11,-186.98 577.58,-194.43 583.88,-197.5"/>
<text text-anchor="middle" x="517.5" y="-252" font-family="Times,serif" font-size="10.00">2</text>
</g>
<!-- 37&#45;&gt;6 -->
<g id="edge5" class="edge">
<title>37&#45;&gt;6</title>
<path fill="none" stroke="blue" stroke-dasharray="1,5" d="M382.17,-281.06C389.71,-276.77 398.45,-272.51 407,-270 506.69,-240.67 553.76,-300.43 639,-241 654.52,-230.18 665.42,-211.79 672.37,-196.44"/>
<polygon fill="blue" stroke="blue" points="675.73,-197.48 676.37,-186.9 669.28,-194.77 675.73,-197.48"/>
<text text-anchor="middle" x="627.5" y="-252" font-family="Times,serif" font-size="10.00">2</text>
</g>
<!-- 37&#45;&gt;24 -->
<g id="edge21" class="edge">
<title>37&#45;&gt;24</title>
<path fill="none" stroke="blue" stroke-dasharray="5,2" d="M384.99,-281.88C413.75,-266.13 458.24,-241.73 459,-241 472.3,-228.23 483.05,-210.49 490.48,-195.93"/>
<polygon fill="blue" stroke="blue" points="493.64,-197.43 494.87,-186.91 487.34,-194.37 493.64,-197.43"/>
<text text-anchor="middle" x="447.5" y="-252" font-family="Times,serif" font-size="10.00">3</text>
</g>
<!-- 37&#45;&gt;9 -->
<g id="edge9" class="edge">
<title>37&#45;&gt;9</title>
<path fill="none" stroke="blue" stroke-dasharray="1,5" d="M367.04,-313.81C373.83,-330.68 386.65,-355.02 407,-366 440.44,-384.04 544.56,-384.04 578,-366 594.85,-356.91 606.54,-338.65 613.91,-323.06"/>
<polygon fill="blue" stroke="blue" points="617.16,-324.37 617.96,-313.81 610.75,-321.57 617.16,-324.37"/>
<text text-anchor="middle" x="471" y="-379" font-family="Times,serif" font-size="10.00">2</text>
</g>
<!-- 37&#45;&gt;41 -->
<g id="edge27" class="edge">
<title>37&#45;&gt;41</title>
<path fill="none" stroke="blue" stroke-dasharray="5,2" d="M336.42,-282.16C319.29,-272.41 296.62,-257.84 280,-241 266.8,-227.62 255.3,-209.88 247.1,-195.48"/>
<polygon fill="blue" stroke="blue" points="250.09,-193.65 242.21,-186.57 243.96,-197.02 250.09,-193.65"/>
</g>
<!-- 32&#45;&gt;16 -->
<g id="edge16" class="edge">
<title>32&#45;&gt;16</title>
<path fill="none" stroke="blue" stroke-dasharray="5,2" d="M910.65,-59.91C915.16,-80.76 922.86,-116.45 928.18,-141.08"/>
<polygon fill="blue" stroke="blue" points="924.77,-141.85 930.3,-150.88 931.61,-140.37 924.77,-141.85"/>
<text text-anchor="middle" x="929.5" y="-125" font-family="Times,serif" font-size="10.00">3</text>
</g>
<!-- 16&#45;&gt;0 -->
<g id="edge2" class="edge">
<title>16&#45;&gt;0</title>
<path fill="none" stroke="blue" stroke-dasharray="5,2" d="M912.79,-154.06C898.51,-144.02 879.83,-129.54 866,-114 853.86,-100.36 843.01,-82.95 835.13,-68.79"/>
<polygon fill="blue" stroke="blue" points="837.99,-66.73 830.16,-59.59 831.83,-70.06 837.99,-66.73"/>
<text text-anchor="middle" x="887.5" y="-125" font-family="Times,serif" font-size="10.00">2</text>
</g>
</g>
</svg>
