<?xml version="1.0" encoding="UTF-8" standalone="no"?>
<!DOCTYPE svg PUBLIC "-//W3C//DTD SVG 1.1//EN"
 "http://www.w3.org/Graphics/SVG/1.1/DTD/svg11.dtd">
<!-- Generated by graphviz version 2.43.0 (0)
 -->
<!-- Title: textual_flow_diagram Pages: 1 -->
<svg width="490pt" height="199pt"
 viewBox="0.00 0.00 490.00 199.00" xmlns="http://www.w3.org/2000/svg" xmlns:xlink="http://www.w3.org/1999/xlink">
<g id="graph0" class="graph" transform="scale(1 1) rotate(0) translate(4 195)">
<title>textual_flow_diagram</title>
<polygon fill="white" stroke="transparent" points="-4,4 -4,-195 486,-195 486,4 -4,4"/>
<g id="clust1" class="cluster">
<title>cluster_legend</title>
<polygon fill="none" stroke="black" points="8,-99 8,-153 186,-153 186,-99 8,-99"/>
</g>
<g id="clust2" class="cluster">
<title>cluster_plot</title>
</g>
<g id="clust3" class="cluster">
<title>cluster_a</title>
<polygon fill="none" stroke="black" points="275,-100 275,-175 466,-175 466,-100 275,-100"/>
<text text-anchor="middle" x="370.5" y="-159.8" font-family="Times,serif" font-size="14.00">a</text>
</g>
<g id="clust4" class="cluster">
<title>cluster_b</title>
<polygon fill="none" stroke="black" points="394,-16 394,-91 466,-91 466,-16 394,-16"/>
<text text-anchor="middle" x="430" y="-75.8" font-family="Times,serif" font-size="14.00">b</text>
</g>
<g id="clust5" class="cluster">
<title>cluster_c</title>
<polygon fill="none" stroke="black" points="202,-16 202,-91 294,-91 294,-16 202,-16"/>
<text text-anchor="middle" x="248" y="-75.8" font-family="Times,serif" font-size="14.00">c</text>
</g>
<g id="clust6" class="cluster">
<title>cluster_d</title>
<polygon fill="none" stroke="black" points="302,-16 302,-91 386,-91 386,-16 302,-16"/>
<text text-anchor="middle" x="344" y="-75.8" font-family="Times,serif" font-size="14.00">d</text>
</g>
<!-- label -->
<g id="node1" class="node">
<title>label</title>
<text text-anchor="middle" x="97" y="-129.8" font-family="Times,serif" font-size="14.00">adstag1.2.32U18&#45;20</text>
<text text-anchor="middle" x="97" y="-114.8" font-family="Times,serif" font-size="14.00">Con = 10</text>
</g>
<!-- 11 -->
<g id="node2" class="node">
<title>11</title>
<ellipse fill="none" stroke="black" cx="321" cy="-126" rx="38.19" ry="18"/>
<text text-anchor="middle" x="321" y="-122.3" font-family="Times,serif" font-size="14.00">aBase</text>
</g>
<!-- 2 -->
<g id="node5" class="node">
<title>2</title>
<ellipse fill="none" stroke="black" cx="248" cy="-42" rx="37.89" ry="18"/>
<text text-anchor="middle" x="248" y="-38.3" font-family="Times,serif" font-size="14.00">LaSM</text>
</g>
<!-- 11&#45;&gt;2 -->
<g id="edge1" class="edge">
<title>11&#45;&gt;2</title>
<path fill="none" stroke="blue" d="M306.92,-109.19C296.12,-97.05 281.03,-80.1 268.83,-66.4"/>
<polygon fill="blue" stroke="blue" points="271.3,-63.9 262.03,-58.76 266.07,-68.56 271.3,-63.9"/>
</g>
<!-- 31 -->
<g id="node6" class="node">
<title>31</title>
<ellipse fill="none" stroke="black" cx="344" cy="-42" rx="34.39" ry="18"/>
<text text-anchor="middle" x="344" y="-38.3" font-family="Times,serif" font-size="14.00">S249</text>
</g>
<!-- 11&#45;&gt;31 -->
<g id="edge3" class="edge">
<title>11&#45;&gt;31</title>
<path fill="none" stroke="blue" d="M325.77,-108.01C328.85,-97.01 332.93,-82.46 336.45,-69.92"/>
<polygon fill="blue" stroke="blue" points="339.91,-70.54 339.24,-59.97 333.17,-68.65 339.91,-70.54"/>
</g>
<!-- 17 -->
<g id="node3" class="node">
<title>17</title>
<ellipse fill="none" stroke="black" cx="418" cy="-126" rx="40.09" ry="18"/>
<text text-anchor="middle" x="418" y="-122.3" font-family="Times,serif" font-size="14.00">V1897</text>
</g>
<!-- 10 -->
<g id="node4" class="node">
<title>10</title>
<ellipse fill="none" stroke="black" cx="430" cy="-42" rx="27.9" ry="18"/>
<text text-anchor="middle" x="430" y="-38.3" font-family="Times,serif" font-size="14.00">Bas</text>
</g>
<!-- 17&#45;&gt;10 -->
<g id="edge2" class="edge">
<title>17&#45;&gt;10</title>
<path fill="none" stroke="blue" d="M420.49,-108.01C422.1,-97.01 424.22,-82.46 426.06,-69.92"/>
<polygon fill="blue" stroke="blue" points="429.53,-70.37 427.52,-59.97 422.61,-69.36 429.53,-70.37"/>
</g>
</g>
</svg>
