<?xml version="1.0" encoding="UTF-8" standalone="no"?>
<!DOCTYPE svg PUBLIC "-//W3C//DTD SVG 1.1//EN"
 "http://www.w3.org/Graphics/SVG/1.1/DTD/svg11.dtd">
<!-- Generated by graphviz version 2.43.0 (0)
 -->
<!-- Title: textual_flow_diagram Pages: 1 -->
<svg width="381pt" height="314pt"
 viewBox="0.00 0.00 381.00 314.00" xmlns="http://www.w3.org/2000/svg" xmlns:xlink="http://www.w3.org/1999/xlink">
<g id="graph0" class="graph" transform="scale(1 1) rotate(0) translate(4 310)">
<title>textual_flow_diagram</title>
<polygon fill="white" stroke="transparent" points="-4,4 -4,-310 377,-310 377,4 -4,4"/>
<g id="clust1" class="cluster">
<title>cluster_legend</title>
<polygon fill="none" stroke="black" points="8,-214 8,-268 178,-268 178,-214 8,-214"/>
</g>
<g id="clust2" class="cluster">
<title>cluster_plot</title>
</g>
<g id="clust3" class="cluster">
<title>cluster_a</title>
<polygon fill="none" stroke="black" points="264,-215 264,-290 356,-290 356,-215 264,-215"/>
<text text-anchor="middle" x="310" y="-274.8" font-family="Times,serif" font-size="14.00">a</text>
</g>
<g id="clust4" class="cluster">
<title>cluster_b</title>
<polygon fill="none" stroke="black" points="194,-120 194,-195 345,-195 345,-120 194,-120"/>
<text text-anchor="middle" x="269.5" y="-179.8" font-family="Times,serif" font-size="14.00">b</text>
</g>
<g id="clust5" class="cluster">
<title>cluster_c</title>
<polygon fill="none" stroke="black" points="233,-16 233,-91 319,-91 319,-16 233,-16"/>
<text text-anchor="middle" x="276" y="-75.8" font-family="Times,serif" font-size="14.00">c</text>
</g>
<!-- label -->
<g id="node1" class="node">
<title>label</title>
<text text-anchor="middle" x="93" y="-244.8" font-family="Times,serif" font-size="14.00">adstag1.3.5U12&#45;14</text>
<text text-anchor="middle" x="93" y="-229.8" font-family="Times,serif" font-size="14.00">Con = 5</text>
</g>
<!-- 11 -->
<g id="node2" class="node">
<title>11</title>
<ellipse fill="none" stroke="black" cx="310" cy="-241" rx="38.19" ry="18"/>
<text text-anchor="middle" x="310" y="-237.3" font-family="Times,serif" font-size="14.00">aBase</text>
</g>
<!-- 22 -->
<g id="node3" class="node">
<title>22</title>
<ellipse fill="none" stroke="black" cx="308" cy="-146" rx="28.7" ry="18"/>
<text text-anchor="middle" x="308" y="-142.3" font-family="Times,serif" font-size="14.00">A25</text>
</g>
<!-- 11&#45;&gt;22 -->
<g id="edge3" class="edge">
<title>11&#45;&gt;22</title>
<path fill="none" stroke="blue" stroke-dasharray="5,2" d="M309.63,-222.94C309.34,-209.39 308.93,-190.18 308.59,-174.47"/>
<polygon fill="blue" stroke="blue" points="312.09,-174.19 308.37,-164.26 305.09,-174.34 312.09,-174.19"/>
</g>
<!-- 17 -->
<g id="node5" class="node">
<title>17</title>
<ellipse fill="none" stroke="black" cx="276" cy="-42" rx="35.19" ry="18"/>
<text text-anchor="middle" x="276" y="-38.3" font-family="Times,serif" font-size="14.00">Neap</text>
</g>
<!-- 11&#45;&gt;17 -->
<g id="edge1" class="edge">
<title>11&#45;&gt;17</title>
<path fill="none" stroke="blue" stroke-width="2" d="M328.06,-224.83C336.12,-216.88 344.74,-206.43 349,-195 360.65,-163.77 361.34,-150.96 349,-120 339.85,-97.06 320.27,-77.03 303.68,-63.15"/>
<polygon fill="blue" stroke="blue" stroke-width="2" points="305.83,-60.39 295.84,-56.85 301.44,-65.84 305.83,-60.39"/>
</g>
<!-- 36 -->
<g id="node4" class="node">
<title>36</title>
<ellipse fill="none" stroke="black" cx="232" cy="-146" rx="29.8" ry="18"/>
<text text-anchor="middle" x="232" y="-142.3" font-family="Times,serif" font-size="14.00">Nan</text>
</g>
<!-- 36&#45;&gt;17 -->
<g id="edge2" class="edge">
<title>36&#45;&gt;17</title>
<path fill="none" stroke="blue" d="M239.27,-128.16C246.18,-112.14 256.68,-87.8 264.68,-69.23"/>
<polygon fill="blue" stroke="blue" points="267.98,-70.44 268.72,-59.87 261.55,-67.66 267.98,-70.44"/>
<text text-anchor="middle" x="254.5" y="-102" font-family="Times,serif" font-size="10.00">2</text>
</g>
</g>
</svg>
