<?xml version="1.0" encoding="UTF-8" standalone="no"?>
<!DOCTYPE svg PUBLIC "-//W3C//DTD SVG 1.1//EN"
 "http://www.w3.org/Graphics/SVG/1.1/DTD/svg11.dtd">
<!-- Generated by graphviz version 2.43.0 (0)
 -->
<!-- Title: textual_flow_diagram Pages: 1 -->
<svg width="470pt" height="314pt"
 viewBox="0.00 0.00 470.00 314.00" xmlns="http://www.w3.org/2000/svg" xmlns:xlink="http://www.w3.org/1999/xlink">
<g id="graph0" class="graph" transform="scale(1 1) rotate(0) translate(4 310)">
<title>textual_flow_diagram</title>
<polygon fill="white" stroke="transparent" points="-4,4 -4,-310 466,-310 466,4 -4,4"/>
<g id="clust1" class="cluster">
<title>cluster_legend</title>
<polygon fill="none" stroke="black" points="8,-214 8,-268 172,-268 172,-214 8,-214"/>
</g>
<g id="clust2" class="cluster">
<title>cluster_plot</title>
</g>
<g id="clust3" class="cluster">
<title>cluster_a</title>
<polygon fill="none" stroke="black" points="193,-215 193,-290 446,-290 446,-215 193,-215"/>
<text text-anchor="middle" x="319.5" y="-274.8" font-family="Times,serif" font-size="14.00">a</text>
</g>
<g id="clust4" class="cluster">
<title>cluster_b</title>
<polygon fill="none" stroke="black" points="188,-16 188,-91 446,-91 446,-16 188,-16"/>
<text text-anchor="middle" x="317" y="-75.8" font-family="Times,serif" font-size="14.00">b</text>
</g>
<g id="clust5" class="cluster">
<title>cluster_c</title>
<polygon fill="none" stroke="black" points="361,-120 361,-195 445,-195 445,-120 361,-120"/>
<text text-anchor="middle" x="403" y="-179.8" font-family="Times,serif" font-size="14.00">c</text>
</g>
<!-- label -->
<g id="node1" class="node">
<title>label</title>
<text text-anchor="middle" x="90" y="-244.8" font-family="Times,serif" font-size="14.00">adstag1.2.40U118</text>
<text text-anchor="middle" x="90" y="-229.8" font-family="Times,serif" font-size="14.00">Con = 5</text>
</g>
<!-- 6 -->
<g id="node2" class="node">
<title>6</title>
<ellipse fill="none" stroke="black" cx="308" cy="-241" rx="31.7" ry="18"/>
<text text-anchor="middle" x="308" y="-237.3" font-family="Times,serif" font-size="14.00">Taur</text>
</g>
<!-- 29 -->
<g id="node6" class="node">
<title>29</title>
<ellipse fill="none" stroke="black" cx="317" cy="-42" rx="34.39" ry="18"/>
<text text-anchor="middle" x="317" y="-38.3" font-family="Times,serif" font-size="14.00">V569</text>
</g>
<!-- 6&#45;&gt;29 -->
<g id="edge2" class="edge">
<title>6&#45;&gt;29</title>
<path fill="none" stroke="blue" stroke-dasharray="5,2" d="M308.78,-222.86C310.35,-188.66 313.86,-111.69 315.75,-70.4"/>
<polygon fill="blue" stroke="blue" points="319.25,-70.39 316.21,-60.24 312.26,-70.07 319.25,-70.39"/>
</g>
<!-- 22 -->
<g id="node3" class="node">
<title>22</title>
<ellipse fill="none" stroke="black" cx="230" cy="-241" rx="28.7" ry="18"/>
<text text-anchor="middle" x="230" y="-237.3" font-family="Times,serif" font-size="14.00">A25</text>
</g>
<!-- 1 -->
<g id="node5" class="node">
<title>1</title>
<ellipse fill="none" stroke="black" cx="230" cy="-42" rx="34.39" ry="18"/>
<text text-anchor="middle" x="230" y="-38.3" font-family="Times,serif" font-size="14.00">Patm</text>
</g>
<!-- 22&#45;&gt;1 -->
<g id="edge1" class="edge">
<title>22&#45;&gt;1</title>
<path fill="none" stroke="blue" stroke-dasharray="1,5" d="M230,-222.86C230,-188.66 230,-111.69 230,-70.4"/>
<polygon fill="blue" stroke="blue" points="233.5,-70.24 230,-60.24 226.5,-70.24 233.5,-70.24"/>
</g>
<!-- 23 -->
<g id="node4" class="node">
<title>23</title>
<ellipse fill="none" stroke="black" cx="398" cy="-241" rx="40.09" ry="18"/>
<text text-anchor="middle" x="398" y="-237.3" font-family="Times,serif" font-size="14.00">V1629</text>
</g>
<!-- 40 -->
<g id="node7" class="node">
<title>40</title>
<ellipse fill="none" stroke="black" cx="404" cy="-42" rx="34.39" ry="18"/>
<text text-anchor="middle" x="404" y="-38.3" font-family="Times,serif" font-size="14.00">V536</text>
</g>
<!-- 23&#45;&gt;40 -->
<g id="edge5" class="edge">
<title>23&#45;&gt;40</title>
<path fill="none" stroke="blue" stroke-dasharray="5,2" d="M379.03,-225.01C370.57,-217.1 361.5,-206.63 357,-195 344.96,-163.92 347.98,-152.09 357,-120 362.4,-100.77 374.09,-81.59 384.45,-67.18"/>
<polygon fill="blue" stroke="blue" points="387.48,-68.98 390.67,-58.87 381.88,-64.78 387.48,-68.98"/>
</g>
<!-- 33 -->
<g id="node8" class="node">
<title>33</title>
<ellipse fill="none" stroke="black" cx="403" cy="-146" rx="34.39" ry="18"/>
<text text-anchor="middle" x="403" y="-142.3" font-family="Times,serif" font-size="14.00">V568</text>
</g>
<!-- 23&#45;&gt;33 -->
<g id="edge4" class="edge">
<title>23&#45;&gt;33</title>
<path fill="none" stroke="blue" stroke-dasharray="5,2" d="M398.92,-222.94C399.65,-209.39 400.68,-190.18 401.52,-174.47"/>
<polygon fill="blue" stroke="blue" points="405.03,-174.44 402.07,-164.26 398.04,-174.06 405.03,-174.44"/>
</g>
<!-- 33&#45;&gt;29 -->
<g id="edge3" class="edge">
<title>33&#45;&gt;29</title>
<path fill="none" stroke="blue" stroke-dasharray="5,2" d="M389.56,-129.06C375.43,-112.3 353.03,-85.73 336.85,-66.54"/>
<polygon fill="blue" stroke="blue" points="339.46,-64.21 330.34,-58.83 334.11,-68.73 339.46,-64.21"/>
<text text-anchor="middle" x="375.5" y="-102" font-family="Times,serif" font-size="10.00">2</text>
</g>
</g>
</svg>
