<?xml version="1.0" encoding="UTF-8" standalone="no"?>
<!DOCTYPE svg PUBLIC "-//W3C//DTD SVG 1.1//EN"
 "http://www.w3.org/Graphics/SVG/1.1/DTD/svg11.dtd">
<!-- Generated by graphviz version 2.43.0 (0)
 -->
<!-- Title: textual_flow_diagram Pages: 1 -->
<svg width="468pt" height="314pt"
 viewBox="0.00 0.00 468.00 314.00" xmlns="http://www.w3.org/2000/svg" xmlns:xlink="http://www.w3.org/1999/xlink">
<g id="graph0" class="graph" transform="scale(1 1) rotate(0) translate(4 310)">
<title>textual_flow_diagram</title>
<polygon fill="white" stroke="transparent" points="-4,4 -4,-310 464,-310 464,4 -4,4"/>
<g id="clust1" class="cluster">
<title>cluster_legend</title>
<polygon fill="none" stroke="black" points="8,-214 8,-268 168,-268 168,-214 8,-214"/>
</g>
<g id="clust2" class="cluster">
<title>cluster_plot</title>
</g>
<g id="clust3" class="cluster">
<title>cluster_a</title>
<polygon fill="none" stroke="black" points="184,-215 184,-290 444,-290 444,-215 184,-215"/>
<text text-anchor="middle" x="314" y="-274.8" font-family="Times,serif" font-size="14.00">a</text>
</g>
<g id="clust4" class="cluster">
<title>cluster_b</title>
<polygon fill="none" stroke="black" points="352,-120 352,-195 436,-195 436,-120 352,-120"/>
<text text-anchor="middle" x="394" y="-179.8" font-family="Times,serif" font-size="14.00">b</text>
</g>
<g id="clust5" class="cluster">
<title>cluster_c</title>
<polygon fill="none" stroke="black" points="188,-120 188,-195 272,-195 272,-120 188,-120"/>
<text text-anchor="middle" x="230" y="-179.8" font-family="Times,serif" font-size="14.00">c</text>
</g>
<g id="clust6" class="cluster">
<title>cluster_d</title>
<polygon fill="none" stroke="black" points="303,-16 303,-91 387,-91 387,-16 303,-16"/>
<text text-anchor="middle" x="345" y="-75.8" font-family="Times,serif" font-size="14.00">d</text>
</g>
<!-- label -->
<g id="node1" class="node">
<title>label</title>
<text text-anchor="middle" x="88" y="-244.8" font-family="Times,serif" font-size="14.00">adstag1.3.70U2&#45;6</text>
<text text-anchor="middle" x="88" y="-229.8" font-family="Times,serif" font-size="14.00">Con = 5</text>
</g>
<!-- 20 -->
<g id="node2" class="node">
<title>20</title>
<ellipse fill="none" stroke="black" cx="230" cy="-241" rx="38.19" ry="18"/>
<text text-anchor="middle" x="230" y="-237.3" font-family="Times,serif" font-size="14.00">aBase</text>
</g>
<!-- 15 -->
<g id="node6" class="node">
<title>15</title>
<ellipse fill="none" stroke="black" cx="230" cy="-146" rx="34.39" ry="18"/>
<text text-anchor="middle" x="230" y="-142.3" font-family="Times,serif" font-size="14.00">V560</text>
</g>
<!-- 20&#45;&gt;15 -->
<g id="edge2" class="edge">
<title>20&#45;&gt;15</title>
<path fill="none" stroke="blue" stroke-width="2" d="M230,-222.94C230,-209.39 230,-190.18 230,-174.47"/>
<polygon fill="blue" stroke="blue" stroke-width="2" points="233.5,-174.26 230,-164.26 226.5,-174.26 233.5,-174.26"/>
</g>
<!-- 21 -->
<g id="node3" class="node">
<title>21</title>
<ellipse fill="none" stroke="black" cx="318" cy="-241" rx="31.7" ry="18"/>
<text text-anchor="middle" x="318" y="-237.3" font-family="Times,serif" font-size="14.00">Taur</text>
</g>
<!-- 30 -->
<g id="node7" class="node">
<title>30</title>
<ellipse fill="none" stroke="black" cx="345" cy="-42" rx="34.39" ry="18"/>
<text text-anchor="middle" x="345" y="-38.3" font-family="Times,serif" font-size="14.00">Marc</text>
</g>
<!-- 21&#45;&gt;30 -->
<g id="edge3" class="edge">
<title>21&#45;&gt;30</title>
<path fill="none" stroke="blue" stroke-dasharray="1,5" d="M320.35,-222.86C325.04,-188.66 335.59,-111.69 341.25,-70.4"/>
<polygon fill="blue" stroke="blue" points="344.75,-70.62 342.64,-60.24 337.81,-69.67 344.75,-70.62"/>
</g>
<!-- 34 -->
<g id="node4" class="node">
<title>34</title>
<ellipse fill="none" stroke="black" cx="402" cy="-241" rx="34.39" ry="18"/>
<text text-anchor="middle" x="402" y="-237.3" font-family="Times,serif" font-size="14.00">V536</text>
</g>
<!-- 2 -->
<g id="node5" class="node">
<title>2</title>
<ellipse fill="none" stroke="black" cx="394" cy="-146" rx="34.39" ry="18"/>
<text text-anchor="middle" x="394" y="-142.3" font-family="Times,serif" font-size="14.00">V568</text>
</g>
<!-- 34&#45;&gt;2 -->
<g id="edge1" class="edge">
<title>34&#45;&gt;2</title>
<path fill="none" stroke="blue" stroke-dasharray="1,5" d="M400.53,-222.94C399.37,-209.39 397.71,-190.18 396.36,-174.47"/>
<polygon fill="blue" stroke="blue" points="399.83,-173.93 395.49,-164.26 392.86,-174.53 399.83,-173.93"/>
</g>
<!-- 2&#45;&gt;30 -->
<g id="edge4" class="edge">
<title>2&#45;&gt;30</title>
<path fill="none" stroke="blue" stroke-dasharray="1,5" d="M385.91,-128.16C378.13,-111.97 366.27,-87.28 357.32,-68.64"/>
<polygon fill="blue" stroke="blue" points="360.43,-67.03 352.94,-59.53 354.12,-70.06 360.43,-67.03"/>
<text text-anchor="middle" x="379.5" y="-102" font-family="Times,serif" font-size="10.00">2</text>
</g>
</g>
</svg>
