<?xml version="1.0" encoding="UTF-8" standalone="no"?>
<!DOCTYPE svg PUBLIC "-//W3C//DTD SVG 1.1//EN"
 "http://www.w3.org/Graphics/SVG/1.1/DTD/svg11.dtd">
<!-- Generated by graphviz version 2.43.0 (0)
 -->
<!-- Title: textual_flow_diagram Pages: 1 -->
<svg width="575pt" height="199pt"
 viewBox="0.00 0.00 575.00 199.00" xmlns="http://www.w3.org/2000/svg" xmlns:xlink="http://www.w3.org/1999/xlink">
<g id="graph0" class="graph" transform="scale(1 1) rotate(0) translate(4 195)">
<title>textual_flow_diagram</title>
<polygon fill="white" stroke="transparent" points="-4,4 -4,-195 571,-195 571,4 -4,4"/>
<g id="clust1" class="cluster">
<title>cluster_legend</title>
<polygon fill="none" stroke="black" points="8,-99 8,-153 178,-153 178,-99 8,-99"/>
</g>
<g id="clust2" class="cluster">
<title>cluster_plot</title>
</g>
<g id="clust3" class="cluster">
<title>cluster_a</title>
<polygon fill="none" stroke="black" points="271,-100 271,-175 462,-175 462,-100 271,-100"/>
<text text-anchor="middle" x="366.5" y="-159.8" font-family="Times,serif" font-size="14.00">a</text>
</g>
<g id="clust4" class="cluster">
<title>cluster_b</title>
<polygon fill="none" stroke="black" points="467,-16 467,-91 551,-91 551,-16 467,-16"/>
<text text-anchor="middle" x="509" y="-75.8" font-family="Times,serif" font-size="14.00">b</text>
</g>
<g id="clust5" class="cluster">
<title>cluster_c</title>
<polygon fill="none" stroke="black" points="194,-16 194,-91 459,-91 459,-16 194,-16"/>
<text text-anchor="middle" x="326.5" y="-75.8" font-family="Times,serif" font-size="14.00">c</text>
</g>
<!-- label -->
<g id="node1" class="node">
<title>label</title>
<text text-anchor="middle" x="93" y="-129.8" font-family="Times,serif" font-size="14.00">adstag1.3.12U8&#45;10</text>
<text text-anchor="middle" x="93" y="-114.8" font-family="Times,serif" font-size="14.00">Con = 10</text>
</g>
<!-- 24 -->
<g id="node2" class="node">
<title>24</title>
<ellipse fill="none" stroke="black" cx="319" cy="-126" rx="40.09" ry="18"/>
<text text-anchor="middle" x="319" y="-122.3" font-family="Times,serif" font-size="14.00">V1629</text>
</g>
<!-- 32 -->
<g id="node6" class="node">
<title>32</title>
<ellipse fill="none" stroke="black" cx="323" cy="-42" rx="34.39" ry="18"/>
<text text-anchor="middle" x="323" y="-38.3" font-family="Times,serif" font-size="14.00">V536</text>
</g>
<!-- 24&#45;&gt;32 -->
<g id="edge3" class="edge">
<title>24&#45;&gt;32</title>
<path fill="none" stroke="blue" stroke-dasharray="5,2" d="M319.85,-107.61C320.38,-96.77 321.07,-82.6 321.67,-70.29"/>
<polygon fill="blue" stroke="blue" points="325.18,-70.24 322.17,-60.08 318.18,-69.9 325.18,-70.24"/>
</g>
<!-- 38 -->
<g id="node7" class="node">
<title>38</title>
<ellipse fill="none" stroke="black" cx="236" cy="-42" rx="34.39" ry="18"/>
<text text-anchor="middle" x="236" y="-38.3" font-family="Times,serif" font-size="14.00">V568</text>
</g>
<!-- 24&#45;&gt;38 -->
<g id="edge4" class="edge">
<title>24&#45;&gt;38</title>
<path fill="none" stroke="blue" stroke-dasharray="5,2" d="M300.76,-109.84C294.08,-104.09 286.56,-97.4 280,-91 272.11,-83.3 263.85,-74.51 256.64,-66.57"/>
<polygon fill="blue" stroke="blue" points="259.12,-64.09 249.84,-58.98 253.91,-68.76 259.12,-64.09"/>
</g>
<!-- 40 -->
<g id="node3" class="node">
<title>40</title>
<ellipse fill="none" stroke="black" cx="416" cy="-126" rx="38.19" ry="18"/>
<text text-anchor="middle" x="416" y="-122.3" font-family="Times,serif" font-size="14.00">aBase</text>
</g>
<!-- 27 -->
<g id="node4" class="node">
<title>27</title>
<ellipse fill="none" stroke="black" cx="509" cy="-42" rx="34.39" ry="18"/>
<text text-anchor="middle" x="509" y="-38.3" font-family="Times,serif" font-size="14.00">V560</text>
</g>
<!-- 40&#45;&gt;27 -->
<g id="edge2" class="edge">
<title>40&#45;&gt;27</title>
<path fill="none" stroke="blue" stroke-width="2" d="M437.21,-110.88C445.51,-105.04 454.95,-98.01 463,-91 471.71,-83.42 480.63,-74.43 488.28,-66.3"/>
<polygon fill="blue" stroke="blue" stroke-width="2" points="490.96,-68.56 495.16,-58.83 485.81,-63.81 490.96,-68.56"/>
</g>
<!-- 5 -->
<g id="node5" class="node">
<title>5</title>
<ellipse fill="none" stroke="black" cx="413" cy="-42" rx="37.89" ry="18"/>
<text text-anchor="middle" x="413" y="-38.3" font-family="Times,serif" font-size="14.00">LaSM</text>
</g>
<!-- 40&#45;&gt;5 -->
<g id="edge1" class="edge">
<title>40&#45;&gt;5</title>
<path fill="none" stroke="blue" d="M415.36,-107.61C414.97,-96.77 414.45,-82.6 414,-70.29"/>
<polygon fill="blue" stroke="blue" points="417.49,-69.95 413.63,-60.08 410.49,-70.21 417.49,-69.95"/>
</g>
</g>
</svg>
