<?xml version="1.0" encoding="UTF-8" standalone="no"?>
<!DOCTYPE svg PUBLIC "-//W3C//DTD SVG 1.1//EN"
 "http://www.w3.org/Graphics/SVG/1.1/DTD/svg11.dtd">
<!-- Generated by graphviz version 2.43.0 (0)
 -->
<!-- Title: textual_flow_diagram Pages: 1 -->
<svg width="354pt" height="199pt"
 viewBox="0.00 0.00 354.00 199.00" xmlns="http://www.w3.org/2000/svg" xmlns:xlink="http://www.w3.org/1999/xlink">
<g id="graph0" class="graph" transform="scale(1 1) rotate(0) translate(4 195)">
<title>textual_flow_diagram</title>
<polygon fill="white" stroke="transparent" points="-4,4 -4,-195 350,-195 350,4 -4,4"/>
<g id="clust1" class="cluster">
<title>cluster_legend</title>
<polygon fill="none" stroke="black" points="8,-99 8,-153 164,-153 164,-99 8,-99"/>
</g>
<g id="clust2" class="cluster">
<title>cluster_plot</title>
</g>
<g id="clust3" class="cluster">
<title>cluster_a</title>
<polygon fill="none" stroke="black" points="209,-100 209,-175 301,-175 301,-100 209,-100"/>
<text text-anchor="middle" x="255" y="-159.8" font-family="Times,serif" font-size="14.00">a</text>
</g>
<g id="clust4" class="cluster">
<title>cluster_b</title>
<polygon fill="none" stroke="black" points="180,-16 180,-91 330,-91 330,-16 180,-16"/>
<text text-anchor="middle" x="255" y="-75.8" font-family="Times,serif" font-size="14.00">b</text>
</g>
<!-- label -->
<g id="node1" class="node">
<title>label</title>
<text text-anchor="middle" x="86" y="-129.8" font-family="Times,serif" font-size="14.00">adstag1.3.11U34</text>
<text text-anchor="middle" x="86" y="-114.8" font-family="Times,serif" font-size="14.00">Con = 15</text>
</g>
<!-- 40 -->
<g id="node2" class="node">
<title>40</title>
<ellipse fill="none" stroke="black" cx="255" cy="-126" rx="38.19" ry="18"/>
<text text-anchor="middle" x="255" y="-122.3" font-family="Times,serif" font-size="14.00">aBase</text>
</g>
<!-- 14 -->
<g id="node3" class="node">
<title>14</title>
<ellipse fill="none" stroke="black" cx="294" cy="-42" rx="27.9" ry="18"/>
<text text-anchor="middle" x="294" y="-38.3" font-family="Times,serif" font-size="14.00">La2</text>
</g>
<!-- 40&#45;&gt;14 -->
<g id="edge1" class="edge">
<title>40&#45;&gt;14</title>
<path fill="none" stroke="blue" stroke-width="2" d="M263.08,-108.01C268.49,-96.65 275.7,-81.48 281.8,-68.66"/>
<polygon fill="blue" stroke="blue" stroke-width="2" points="285.06,-69.94 286.2,-59.41 278.74,-66.94 285.06,-69.94"/>
</g>
<!-- 23 -->
<g id="node4" class="node">
<title>23</title>
<ellipse fill="none" stroke="black" cx="218" cy="-42" rx="29.8" ry="18"/>
<text text-anchor="middle" x="218" y="-38.3" font-family="Times,serif" font-size="14.00">Nan</text>
</g>
<!-- 40&#45;&gt;23 -->
<g id="edge2" class="edge">
<title>40&#45;&gt;23</title>
<path fill="none" stroke="blue" d="M247.33,-108.01C242.24,-96.72 235.45,-81.68 229.69,-68.91"/>
<polygon fill="blue" stroke="blue" points="232.83,-67.36 225.53,-59.69 226.45,-70.24 232.83,-67.36"/>
</g>
</g>
</svg>
