<?xml version="1.0" encoding="UTF-8" standalone="no"?>
<!DOCTYPE svg PUBLIC "-//W3C//DTD SVG 1.1//EN"
 "http://www.w3.org/Graphics/SVG/1.1/DTD/svg11.dtd">
<!-- Generated by graphviz version 2.43.0 (0)
 -->
<!-- Title: textual_flow_diagram Pages: 1 -->
<svg width="537pt" height="304pt"
 viewBox="0.00 0.00 537.00 304.00" xmlns="http://www.w3.org/2000/svg" xmlns:xlink="http://www.w3.org/1999/xlink">
<g id="graph0" class="graph" transform="scale(1 1) rotate(0) translate(4 300)">
<title>textual_flow_diagram</title>
<polygon fill="white" stroke="transparent" points="-4,4 -4,-300 533,-300 533,4 -4,4"/>
<g id="clust1" class="cluster">
<title>cluster_legend</title>
<polygon fill="none" stroke="black" points="8,-204 8,-258 186,-258 186,-204 8,-204"/>
</g>
<g id="clust2" class="cluster">
<title>cluster_plot</title>
</g>
<g id="clust3" class="cluster">
<title>cluster_a</title>
<polygon fill="none" stroke="black" points="211,-205 211,-280 475,-280 475,-205 211,-205"/>
<text text-anchor="middle" x="343" y="-264.8" font-family="Times,serif" font-size="14.00">a</text>
</g>
<g id="clust4" class="cluster">
<title>cluster_b</title>
<polygon fill="none" stroke="black" points="237,-110 237,-185 309,-185 309,-110 237,-110"/>
<text text-anchor="middle" x="273" y="-169.8" font-family="Times,serif" font-size="14.00">b</text>
</g>
<g id="clust5" class="cluster">
<title>cluster_c</title>
<polygon fill="none" stroke="black" points="342,-16 342,-91 513,-91 513,-16 342,-16"/>
<text text-anchor="middle" x="427.5" y="-75.8" font-family="Times,serif" font-size="14.00">c</text>
</g>
<g id="clust6" class="cluster">
<title>cluster_d</title>
<polygon fill="none" stroke="black" points="317,-110 317,-185 501,-185 501,-110 317,-110"/>
<text text-anchor="middle" x="409" y="-169.8" font-family="Times,serif" font-size="14.00">d</text>
</g>
<!-- label -->
<g id="node1" class="node">
<title>label</title>
<text text-anchor="middle" x="97" y="-234.8" font-family="Times,serif" font-size="14.00">adstag1.3.46U62&#45;66</text>
<text text-anchor="middle" x="97" y="-219.8" font-family="Times,serif" font-size="14.00">Con = 5</text>
</g>
<!-- 3 -->
<g id="node2" class="node">
<title>3</title>
<ellipse fill="none" stroke="black" cx="249" cy="-231" rx="29.8" ry="18"/>
<text text-anchor="middle" x="249" y="-227.3" font-family="Times,serif" font-size="14.00">Nan</text>
</g>
<!-- 2 -->
<g id="node6" class="node">
<title>2</title>
<ellipse fill="none" stroke="black" cx="384" cy="-42" rx="34.39" ry="18"/>
<text text-anchor="middle" x="384" y="-38.3" font-family="Times,serif" font-size="14.00">V536</text>
</g>
<!-- 3&#45;&gt;2 -->
<g id="edge2" class="edge">
<title>3&#45;&gt;2</title>
<path fill="none" stroke="blue" stroke-width="2" d="M239,-213.79C225.3,-189.26 204.69,-142.19 226,-110 251.26,-71.85 303.07,-55.36 340.48,-48.27"/>
<polygon fill="blue" stroke="blue" stroke-width="2" points="341.37,-51.67 350.62,-46.51 340.17,-44.78 341.37,-51.67"/>
<text text-anchor="middle" x="229.5" y="-133.5" font-family="Times,serif" font-size="10.00">3</text>
</g>
<!-- 15 -->
<g id="node3" class="node">
<title>15</title>
<ellipse fill="none" stroke="black" cx="335" cy="-231" rx="38.19" ry="18"/>
<text text-anchor="middle" x="335" y="-227.3" font-family="Times,serif" font-size="14.00">aBase</text>
</g>
<!-- 22 -->
<g id="node5" class="node">
<title>22</title>
<ellipse fill="none" stroke="black" cx="273" cy="-136" rx="27.9" ry="18"/>
<text text-anchor="middle" x="273" y="-132.3" font-family="Times,serif" font-size="14.00">La2</text>
</g>
<!-- 15&#45;&gt;22 -->
<g id="edge4" class="edge">
<title>15&#45;&gt;22</title>
<path fill="none" stroke="blue" stroke-width="2" d="M323.92,-213.37C314.28,-198.91 300.18,-177.77 289.26,-161.4"/>
<polygon fill="blue" stroke="blue" stroke-width="2" points="292.03,-159.24 283.57,-152.86 286.21,-163.12 292.03,-159.24"/>
</g>
<!-- 33 -->
<g id="node9" class="node">
<title>33</title>
<ellipse fill="none" stroke="black" cx="360" cy="-136" rx="35.19" ry="18"/>
<text text-anchor="middle" x="360" y="-132.3" font-family="Times,serif" font-size="14.00">Neap</text>
</g>
<!-- 15&#45;&gt;33 -->
<g id="edge5" class="edge">
<title>15&#45;&gt;33</title>
<path fill="none" stroke="blue" stroke-width="2" d="M339.59,-212.94C343.29,-199.18 348.56,-179.56 352.82,-163.72"/>
<polygon fill="blue" stroke="blue" stroke-width="2" points="356.23,-164.52 355.44,-153.95 349.47,-162.7 356.23,-164.52"/>
</g>
<!-- 30 -->
<g id="node4" class="node">
<title>30</title>
<ellipse fill="none" stroke="black" cx="429" cy="-231" rx="37.89" ry="18"/>
<text text-anchor="middle" x="429" y="-227.3" font-family="Times,serif" font-size="14.00">M111</text>
</g>
<!-- 16 -->
<g id="node7" class="node">
<title>16</title>
<ellipse fill="none" stroke="black" cx="471" cy="-42" rx="34.39" ry="18"/>
<text text-anchor="middle" x="471" y="-38.3" font-family="Times,serif" font-size="14.00">A336</text>
</g>
<!-- 30&#45;&gt;16 -->
<g id="edge3" class="edge">
<title>30&#45;&gt;16</title>
<path fill="none" stroke="blue" stroke-dasharray="5,2" d="M459.71,-220.29C476.28,-213.3 495.28,-202.05 505,-185 526.18,-147.84 504.67,-97.97 487.54,-68.3"/>
<polygon fill="blue" stroke="blue" points="490.35,-66.17 482.19,-59.41 484.35,-69.78 490.35,-66.17"/>
</g>
<!-- 9 -->
<g id="node8" class="node">
<title>9</title>
<ellipse fill="none" stroke="black" cx="453" cy="-136" rx="40.09" ry="18"/>
<text text-anchor="middle" x="453" y="-132.3" font-family="Times,serif" font-size="14.00">V1629</text>
</g>
<!-- 9&#45;&gt;2 -->
<g id="edge1" class="edge">
<title>9&#45;&gt;2</title>
<path fill="none" stroke="blue" stroke-dasharray="5,2" d="M440.66,-118.55C430,-104.34 414.44,-83.59 402.32,-67.43"/>
<polygon fill="blue" stroke="blue" points="404.8,-64.9 396,-59 399.2,-69.1 404.8,-64.9"/>
</g>
</g>
</svg>
