<?xml version="1.0" encoding="UTF-8" standalone="no"?>
<!DOCTYPE svg PUBLIC "-//W3C//DTD SVG 1.1//EN"
 "http://www.w3.org/Graphics/SVG/1.1/DTD/svg11.dtd">
<!-- Generated by graphviz version 2.43.0 (0)
 -->
<!-- Title: textual_flow_diagram Pages: 1 -->
<svg width="806pt" height="408pt"
 viewBox="0.00 0.00 806.00 408.00" xmlns="http://www.w3.org/2000/svg" xmlns:xlink="http://www.w3.org/1999/xlink">
<g id="graph0" class="graph" transform="scale(1 1) rotate(0) translate(4 404)">
<title>textual_flow_diagram</title>
<polygon fill="white" stroke="transparent" points="-4,4 -4,-404 802,-404 802,4 -4,4"/>
<g id="clust1" class="cluster">
<title>cluster_legend</title>
<polygon fill="none" stroke="black" points="8,-308 8,-362 178,-362 178,-308 8,-308"/>
</g>
<g id="clust2" class="cluster">
<title>cluster_plot</title>
</g>
<g id="clust3" class="cluster">
<title>cluster_a</title>
<polygon fill="none" stroke="black" points="307,-309 307,-384 562,-384 562,-309 307,-309"/>
<text text-anchor="middle" x="434.5" y="-368.8" font-family="Times,serif" font-size="14.00">a</text>
</g>
<g id="clust4" class="cluster">
<title>cluster_b</title>
<polygon fill="none" stroke="black" points="206,-214 206,-289 298,-289 298,-214 206,-214"/>
<text text-anchor="middle" x="252" y="-273.8" font-family="Times,serif" font-size="14.00">b</text>
</g>
<g id="clust5" class="cluster">
<title>cluster_c</title>
<polygon fill="none" stroke="black" points="508,-16 508,-91 580,-91 580,-16 508,-16"/>
<text text-anchor="middle" x="544" y="-75.8" font-family="Times,serif" font-size="14.00">c</text>
</g>
<g id="clust6" class="cluster">
<title>cluster_d</title>
<polygon fill="none" stroke="black" points="343,-214 343,-289 501,-289 501,-214 343,-214"/>
<text text-anchor="middle" x="422" y="-273.8" font-family="Times,serif" font-size="14.00">d</text>
</g>
<g id="clust7" class="cluster">
<title>cluster_e</title>
<polygon fill="none" stroke="black" points="712,-214 712,-289 782,-289 782,-214 712,-214"/>
<text text-anchor="middle" x="747" y="-273.8" font-family="Times,serif" font-size="14.00">e</text>
</g>
<g id="clust9" class="cluster">
<title>cluster_g</title>
<polygon fill="none" stroke="black" points="496,-110 496,-185 592,-185 592,-110 496,-110"/>
<text text-anchor="middle" x="544" y="-169.8" font-family="Times,serif" font-size="14.00">g</text>
</g>
<g id="clust10" class="cluster">
<title>cluster_h</title>
<polygon fill="none" stroke="black" points="546,-214 546,-289 704,-289 704,-214 546,-214"/>
<text text-anchor="middle" x="625" y="-273.8" font-family="Times,serif" font-size="14.00">h</text>
</g>
<g id="clust11" class="cluster">
<title>cluster_i</title>
<polygon fill="none" stroke="black" points="344,-110 344,-185 428,-185 428,-110 344,-110"/>
<text text-anchor="middle" x="386" y="-169.8" font-family="Times,serif" font-size="14.00">i</text>
</g>
<!-- label -->
<g id="node1" class="node">
<title>label</title>
<text text-anchor="middle" x="93" y="-338.8" font-family="Times,serif" font-size="14.00">adstag1.3.55U4&#45;16</text>
<text text-anchor="middle" x="93" y="-323.8" font-family="Times,serif" font-size="14.00">Con = 5</text>
</g>
<!-- 2 -->
<g id="node2" class="node">
<title>2</title>
<ellipse fill="none" stroke="black" cx="349" cy="-335" rx="34.39" ry="18"/>
<text text-anchor="middle" x="349" y="-331.3" font-family="Times,serif" font-size="14.00">V568</text>
</g>
<!-- 7 -->
<g id="node13" class="node">
<title>7</title>
<ellipse fill="none" stroke="black" cx="386" cy="-136" rx="34.39" ry="18"/>
<text text-anchor="middle" x="386" y="-132.3" font-family="Times,serif" font-size="14.00">V569</text>
</g>
<!-- 2&#45;&gt;7 -->
<g id="edge2" class="edge">
<title>2&#45;&gt;7</title>
<path fill="none" stroke="blue" stroke-dasharray="5,2" d="M341.05,-317.32C337.52,-309.01 333.77,-298.69 332,-289 326.01,-256.21 321.96,-245.79 332,-214 338.37,-193.83 352.12,-174.35 364.16,-160.03"/>
<polygon fill="blue" stroke="blue" points="367.03,-162.06 370.97,-152.23 361.76,-157.46 367.03,-162.06"/>
<text text-anchor="middle" x="335.5" y="-237.5" font-family="Times,serif" font-size="10.00">2</text>
</g>
<!-- 20 -->
<g id="node3" class="node">
<title>20</title>
<ellipse fill="none" stroke="black" cx="440" cy="-335" rx="38.19" ry="18"/>
<text text-anchor="middle" x="440" y="-331.3" font-family="Times,serif" font-size="14.00">aBase</text>
</g>
<!-- 10 -->
<g id="node5" class="node">
<title>10</title>
<ellipse fill="none" stroke="black" cx="252" cy="-240" rx="37.89" ry="18"/>
<text text-anchor="middle" x="252" y="-236.3" font-family="Times,serif" font-size="14.00">LaSM</text>
</g>
<!-- 20&#45;&gt;10 -->
<g id="edge3" class="edge">
<title>20&#45;&gt;10</title>
<path fill="none" stroke="blue" d="M417.67,-320.2C409.79,-315.79 400.71,-311.22 392,-308 354.48,-294.11 339.51,-307.44 304,-289 292.25,-282.89 281.17,-273.42 272.28,-264.49"/>
<polygon fill="blue" stroke="blue" points="274.79,-262.05 265.37,-257.21 269.72,-266.87 274.79,-262.05"/>
</g>
<!-- 40 -->
<g id="node6" class="node">
<title>40</title>
<ellipse fill="none" stroke="black" cx="544" cy="-42" rx="27.9" ry="18"/>
<text text-anchor="middle" x="544" y="-38.3" font-family="Times,serif" font-size="14.00">Bas</text>
</g>
<!-- 20&#45;&gt;40 -->
<g id="edge12" class="edge">
<title>20&#45;&gt;40</title>
<path fill="none" stroke="blue" stroke-width="2" d="M418.34,-319.9C410.37,-315.36 401.06,-310.78 392,-308 351.44,-295.54 230.47,-320.46 202,-289 179.63,-264.28 187.13,-243.83 202,-214 260.2,-97.26 430.57,-58.98 506.6,-47.5"/>
<polygon fill="blue" stroke="blue" stroke-width="2" points="507.29,-50.94 516.69,-46.05 506.29,-44.01 507.29,-50.94"/>
<text text-anchor="middle" x="216.5" y="-196" font-family="Times,serif" font-size="10.00">3</text>
</g>
<!-- 15 -->
<g id="node7" class="node">
<title>15</title>
<ellipse fill="none" stroke="black" cx="385" cy="-240" rx="34.39" ry="18"/>
<text text-anchor="middle" x="385" y="-236.3" font-family="Times,serif" font-size="14.00">V560</text>
</g>
<!-- 20&#45;&gt;15 -->
<g id="edge4" class="edge">
<title>20&#45;&gt;15</title>
<path fill="none" stroke="blue" stroke-width="2" d="M430.17,-317.37C421.8,-303.22 409.64,-282.67 400.05,-266.45"/>
<polygon fill="blue" stroke="blue" stroke-width="2" points="402.85,-264.31 394.75,-257.48 396.83,-267.87 402.85,-264.31"/>
</g>
<!-- 29 -->
<g id="node8" class="node">
<title>29</title>
<ellipse fill="none" stroke="black" cx="465" cy="-240" rx="27.9" ry="18"/>
<text text-anchor="middle" x="465" y="-236.3" font-family="Times,serif" font-size="14.00">La2</text>
</g>
<!-- 20&#45;&gt;29 -->
<g id="edge8" class="edge">
<title>20&#45;&gt;29</title>
<path fill="none" stroke="blue" stroke-width="2" d="M444.59,-316.94C448.29,-303.18 453.56,-283.56 457.82,-267.72"/>
<polygon fill="blue" stroke="blue" stroke-width="2" points="461.23,-268.52 460.44,-257.95 454.47,-266.7 461.23,-268.52"/>
</g>
<!-- 26 -->
<g id="node10" class="node">
<title>26</title>
<ellipse fill="none" stroke="black" cx="544" cy="-136" rx="40.09" ry="18"/>
<text text-anchor="middle" x="544" y="-132.3" font-family="Times,serif" font-size="14.00">V1897</text>
</g>
<!-- 20&#45;&gt;26 -->
<g id="edge7" class="edge">
<title>20&#45;&gt;26</title>
<path fill="none" stroke="blue" d="M466.27,-321.59C479.72,-313.96 495.28,-302.97 505,-289 519.02,-268.87 532.61,-201.85 539.44,-163.87"/>
<polygon fill="blue" stroke="blue" points="542.89,-164.45 541.18,-153.99 536,-163.23 542.89,-164.45"/>
<text text-anchor="middle" x="531.5" y="-237.5" font-family="Times,serif" font-size="10.00">2</text>
</g>
<!-- 22 -->
<g id="node12" class="node">
<title>22</title>
<ellipse fill="none" stroke="black" cx="666" cy="-240" rx="29.8" ry="18"/>
<text text-anchor="middle" x="666" y="-236.3" font-family="Times,serif" font-size="14.00">Nan</text>
</g>
<!-- 20&#45;&gt;22 -->
<g id="edge5" class="edge">
<title>20&#45;&gt;22</title>
<path fill="none" stroke="blue" d="M461.7,-319.8C469.4,-315.36 478.33,-310.88 487,-308 546.6,-288.24 572.25,-319.75 627,-289 636.69,-283.56 644.92,-274.67 651.29,-266.01"/>
<polygon fill="blue" stroke="blue" points="654.3,-267.81 657.02,-257.57 648.5,-263.88 654.3,-267.81"/>
</g>
<!-- 33 -->
<g id="node4" class="node">
<title>33</title>
<ellipse fill="none" stroke="black" cx="525" cy="-335" rx="28.7" ry="18"/>
<text text-anchor="middle" x="525" y="-331.3" font-family="Times,serif" font-size="14.00">A25</text>
</g>
<!-- 31 -->
<g id="node9" class="node">
<title>31</title>
<ellipse fill="none" stroke="black" cx="747" cy="-240" rx="27" ry="18"/>
<text text-anchor="middle" x="747" y="-236.3" font-family="Times,serif" font-size="14.00">Pal</text>
</g>
<!-- 33&#45;&gt;31 -->
<g id="edge9" class="edge">
<title>33&#45;&gt;31</title>
<path fill="none" stroke="blue" stroke-dasharray="5,2" d="M553.52,-332.57C591.49,-329.48 659.5,-319.73 708,-289 717.39,-283.05 725.56,-274.07 731.96,-265.47"/>
<polygon fill="blue" stroke="blue" points="734.92,-267.35 737.76,-257.14 729.18,-263.35 734.92,-267.35"/>
</g>
<!-- 26&#45;&gt;40 -->
<g id="edge10" class="edge">
<title>26&#45;&gt;40</title>
<path fill="none" stroke="blue" d="M544,-117.7C544,-104.46 544,-85.95 544,-70.66"/>
<polygon fill="blue" stroke="blue" points="547.5,-70.23 544,-60.23 540.5,-70.23 547.5,-70.23"/>
</g>
<!-- 21 -->
<g id="node11" class="node">
<title>21</title>
<ellipse fill="none" stroke="black" cx="586" cy="-240" rx="31.7" ry="18"/>
<text text-anchor="middle" x="586" y="-236.3" font-family="Times,serif" font-size="14.00">Taur</text>
</g>
<!-- 21&#45;&gt;7 -->
<g id="edge1" class="edge">
<title>21&#45;&gt;7</title>
<path fill="none" stroke="blue" stroke-dasharray="5,2" d="M564.09,-226.89C556.49,-222.75 547.9,-218.12 540,-214 498.81,-192.52 450.87,-168.74 419.56,-153.37"/>
<polygon fill="blue" stroke="blue" points="420.92,-150.14 410.4,-148.88 417.84,-156.42 420.92,-150.14"/>
</g>
<!-- 22&#45;&gt;40 -->
<g id="edge11" class="edge">
<title>22&#45;&gt;40</title>
<path fill="none" stroke="blue" d="M657.99,-222.21C645.77,-197.11 621.22,-148.61 596,-110 586.03,-94.73 573.53,-78.55 563.29,-65.92"/>
<polygon fill="blue" stroke="blue" points="565.98,-63.68 556.93,-58.17 560.57,-68.12 565.98,-63.68"/>
<text text-anchor="middle" x="641.5" y="-133.5" font-family="Times,serif" font-size="10.00">2</text>
</g>
<!-- 22&#45;&gt;26 -->
<g id="edge6" class="edge">
<title>22&#45;&gt;26</title>
<path fill="none" stroke="blue" stroke-dasharray="1,5" d="M649.29,-225.03C628.86,-207.95 594.04,-178.84 570.08,-158.8"/>
<polygon fill="blue" stroke="blue" points="572.01,-155.86 562.09,-152.13 567.52,-161.23 572.01,-155.86"/>
</g>
</g>
</svg>
