<?xml version="1.0" encoding="UTF-8" standalone="no"?>
<!DOCTYPE svg PUBLIC "-//W3C//DTD SVG 1.1//EN"
 "http://www.w3.org/Graphics/SVG/1.1/DTD/svg11.dtd">
<!-- Generated by graphviz version 2.43.0 (0)
 -->
<!-- Title: textual_flow_diagram Pages: 1 -->
<svg width="296pt" height="199pt"
 viewBox="0.00 0.00 296.00 199.00" xmlns="http://www.w3.org/2000/svg" xmlns:xlink="http://www.w3.org/1999/xlink">
<g id="graph0" class="graph" transform="scale(1 1) rotate(0) translate(4 195)">
<title>textual_flow_diagram</title>
<polygon fill="white" stroke="transparent" points="-4,4 -4,-195 292,-195 292,4 -4,4"/>
<g id="clust1" class="cluster">
<title>cluster_legend</title>
<polygon fill="none" stroke="black" points="8,-99 8,-153 164,-153 164,-99 8,-99"/>
</g>
<g id="clust2" class="cluster">
<title>cluster_plot</title>
</g>
<g id="clust3" class="cluster">
<title>cluster_a</title>
<polygon fill="none" stroke="black" points="180,-100 180,-175 272,-175 272,-100 180,-100"/>
<text text-anchor="middle" x="226" y="-159.8" font-family="Times,serif" font-size="14.00">a</text>
</g>
<g id="clust4" class="cluster">
<title>cluster_b</title>
<polygon fill="none" stroke="black" points="189,-16 189,-91 263,-91 263,-16 189,-16"/>
<text text-anchor="middle" x="226" y="-75.8" font-family="Times,serif" font-size="14.00">b</text>
</g>
<!-- label -->
<g id="node1" class="node">
<title>label</title>
<text text-anchor="middle" x="86" y="-129.8" font-family="Times,serif" font-size="14.00">adstag1.3.19U13</text>
<text text-anchor="middle" x="86" y="-114.8" font-family="Times,serif" font-size="14.00">Con = 5</text>
</g>
<!-- 10 -->
<g id="node2" class="node">
<title>10</title>
<ellipse fill="none" stroke="black" cx="226" cy="-126" rx="38.19" ry="18"/>
<text text-anchor="middle" x="226" y="-122.3" font-family="Times,serif" font-size="14.00">aBase</text>
</g>
<!-- 25 -->
<g id="node3" class="node">
<title>25</title>
<ellipse fill="none" stroke="black" cx="226" cy="-42" rx="28.7" ry="18"/>
<text text-anchor="middle" x="226" y="-38.3" font-family="Times,serif" font-size="14.00">A25</text>
</g>
<!-- 10&#45;&gt;25 -->
<g id="edge1" class="edge">
<title>10&#45;&gt;25</title>
<path fill="none" stroke="blue" stroke-dasharray="5,2" d="M226,-107.61C226,-96.77 226,-82.6 226,-70.29"/>
<polygon fill="blue" stroke="blue" points="229.5,-70.08 226,-60.08 222.5,-70.08 229.5,-70.08"/>
</g>
</g>
</svg>
