<?xml version="1.0" encoding="UTF-8" standalone="no"?>
<!DOCTYPE svg PUBLIC "-//W3C//DTD SVG 1.1//EN"
 "http://www.w3.org/Graphics/SVG/1.1/DTD/svg11.dtd">
<!-- Generated by graphviz version 2.43.0 (0)
 -->
<!-- Title: textual_flow_diagram Pages: 1 -->
<svg width="556pt" height="199pt"
 viewBox="0.00 0.00 556.00 199.00" xmlns="http://www.w3.org/2000/svg" xmlns:xlink="http://www.w3.org/1999/xlink">
<g id="graph0" class="graph" transform="scale(1 1) rotate(0) translate(4 195)">
<title>textual_flow_diagram</title>
<polygon fill="white" stroke="transparent" points="-4,4 -4,-195 552,-195 552,4 -4,4"/>
<g id="clust1" class="cluster">
<title>cluster_legend</title>
<polygon fill="none" stroke="black" points="8,-99 8,-153 164,-153 164,-99 8,-99"/>
</g>
<g id="clust2" class="cluster">
<title>cluster_plot</title>
</g>
<g id="clust3" class="cluster">
<title>cluster_a</title>
<polygon fill="none" stroke="black" points="297,-100 297,-175 476,-175 476,-100 297,-100"/>
<text text-anchor="middle" x="386.5" y="-159.8" font-family="Times,serif" font-size="14.00">a</text>
</g>
<g id="clust4" class="cluster">
<title>cluster_b</title>
<polygon fill="none" stroke="black" points="180,-16 180,-91 532,-91 532,-16 180,-16"/>
<text text-anchor="middle" x="356" y="-75.8" font-family="Times,serif" font-size="14.00">b</text>
</g>
<!-- label -->
<g id="node1" class="node">
<title>label</title>
<text text-anchor="middle" x="86" y="-129.8" font-family="Times,serif" font-size="14.00">adstag1.2.14U22</text>
<text text-anchor="middle" x="86" y="-114.8" font-family="Times,serif" font-size="14.00">Con = 1</text>
</g>
<!-- 25 -->
<g id="node2" class="node">
<title>25</title>
<ellipse fill="none" stroke="black" cx="434" cy="-126" rx="34.39" ry="18"/>
<text text-anchor="middle" x="434" y="-122.3" font-family="Times,serif" font-size="14.00">V560</text>
</g>
<!-- 19 -->
<g id="node5" class="node">
<title>19</title>
<ellipse fill="none" stroke="black" cx="484" cy="-42" rx="40.09" ry="18"/>
<text text-anchor="middle" x="484" y="-38.3" font-family="Times,serif" font-size="14.00">V1920</text>
</g>
<!-- 25&#45;&gt;19 -->
<g id="edge2" class="edge">
<title>25&#45;&gt;19</title>
<path fill="none" stroke="blue" stroke-dasharray="5,2" d="M444.12,-108.41C451.17,-96.85 460.7,-81.22 468.67,-68.14"/>
<polygon fill="blue" stroke="blue" points="471.68,-69.93 473.9,-59.57 465.7,-66.29 471.68,-69.93"/>
</g>
<!-- 32 -->
<g id="node3" class="node">
<title>32</title>
<ellipse fill="none" stroke="black" cx="343" cy="-126" rx="38.19" ry="18"/>
<text text-anchor="middle" x="343" y="-122.3" font-family="Times,serif" font-size="14.00">aBase</text>
</g>
<!-- 17 -->
<g id="node4" class="node">
<title>17</title>
<ellipse fill="none" stroke="black" cx="388" cy="-42" rx="37.89" ry="18"/>
<text text-anchor="middle" x="388" y="-38.3" font-family="Times,serif" font-size="14.00">M136</text>
</g>
<!-- 32&#45;&gt;17 -->
<g id="edge1" class="edge">
<title>32&#45;&gt;17</title>
<path fill="none" stroke="blue" stroke-width="2" d="M352.11,-108.41C358.39,-96.96 366.86,-81.52 374,-68.52"/>
<polygon fill="blue" stroke="blue" stroke-width="2" points="377.16,-70.02 378.91,-59.57 371.03,-66.65 377.16,-70.02"/>
</g>
<!-- 20 -->
<g id="node6" class="node">
<title>20</title>
<ellipse fill="none" stroke="black" cx="217" cy="-42" rx="28.7" ry="18"/>
<text text-anchor="middle" x="217" y="-38.3" font-family="Times,serif" font-size="14.00">A25</text>
</g>
<!-- 32&#45;&gt;20 -->
<g id="edge3" class="edge">
<title>32&#45;&gt;20</title>
<path fill="none" stroke="blue" stroke-dasharray="5,2" d="M309.98,-116.81C292.51,-111.4 271.35,-103.05 255,-91 246.36,-84.64 238.63,-75.83 232.43,-67.49"/>
<polygon fill="blue" stroke="blue" points="235.15,-65.28 226.55,-59.1 229.42,-69.3 235.15,-65.28"/>
</g>
<!-- 43 -->
<g id="node7" class="node">
<title>43</title>
<ellipse fill="none" stroke="black" cx="298" cy="-42" rx="34.39" ry="18"/>
<text text-anchor="middle" x="298" y="-38.3" font-family="Times,serif" font-size="14.00">S249</text>
</g>
<!-- 32&#45;&gt;43 -->
<g id="edge4" class="edge">
<title>32&#45;&gt;43</title>
<path fill="none" stroke="blue" d="M333.89,-108.41C327.61,-96.96 319.14,-81.52 312,-68.52"/>
<polygon fill="blue" stroke="blue" points="314.97,-66.65 307.09,-59.57 308.84,-70.02 314.97,-66.65"/>
</g>
</g>
</svg>
