<?xml version="1.0" encoding="UTF-8" standalone="no"?>
<!DOCTYPE svg PUBLIC "-//W3C//DTD SVG 1.1//EN"
 "http://www.w3.org/Graphics/SVG/1.1/DTD/svg11.dtd">
<!-- Generated by graphviz version 2.43.0 (0)
 -->
<!-- Title: textual_flow_diagram Pages: 1 -->
<svg width="397pt" height="502pt"
 viewBox="0.00 0.00 397.00 502.00" xmlns="http://www.w3.org/2000/svg" xmlns:xlink="http://www.w3.org/1999/xlink">
<g id="graph0" class="graph" transform="scale(1 1) rotate(0) translate(4 498)">
<title>textual_flow_diagram</title>
<polygon fill="white" stroke="transparent" points="-4,4 -4,-498 393,-498 393,4 -4,4"/>
<g id="clust1" class="cluster">
<title>cluster_legend</title>
<polygon fill="none" stroke="black" points="8,-402 8,-456 186,-456 186,-402 8,-402"/>
</g>
<g id="clust2" class="cluster">
<title>cluster_plot</title>
</g>
<g id="clust3" class="cluster">
<title>cluster_a</title>
<polygon fill="none" stroke="black" points="241,-403 241,-478 327,-478 327,-403 241,-403"/>
<text text-anchor="middle" x="284" y="-462.8" font-family="Times,serif" font-size="14.00">a</text>
</g>
<g id="clust4" class="cluster">
<title>cluster_b</title>
<polygon fill="none" stroke="black" points="202,-110 202,-185 373,-185 373,-110 202,-110"/>
<text text-anchor="middle" x="287.5" y="-169.8" font-family="Times,serif" font-size="14.00">b</text>
</g>
<g id="clust5" class="cluster">
<title>cluster_c</title>
<polygon fill="none" stroke="black" points="205,-16 205,-91 283,-91 283,-16 205,-16"/>
<text text-anchor="middle" x="244" y="-75.8" font-family="Times,serif" font-size="14.00">c</text>
</g>
<g id="clust6" class="cluster">
<title>cluster_d</title>
<polygon fill="none" stroke="black" points="236,-308 236,-383 332,-383 332,-308 236,-308"/>
<text text-anchor="middle" x="284" y="-367.8" font-family="Times,serif" font-size="14.00">d</text>
</g>
<g id="clust7" class="cluster">
<title>cluster_e</title>
<polygon fill="none" stroke="black" points="289,-204 289,-279 373,-279 373,-204 289,-204"/>
<text text-anchor="middle" x="331" y="-263.8" font-family="Times,serif" font-size="14.00">e</text>
</g>
<!-- label -->
<g id="node1" class="node">
<title>label</title>
<text text-anchor="middle" x="97" y="-432.8" font-family="Times,serif" font-size="14.00">adstag1.3.67U12&#45;22</text>
<text text-anchor="middle" x="97" y="-417.8" font-family="Times,serif" font-size="14.00">Con = 3</text>
</g>
<!-- 37 -->
<g id="node2" class="node">
<title>37</title>
<ellipse fill="none" stroke="black" cx="284" cy="-429" rx="35.19" ry="18"/>
<text text-anchor="middle" x="284" y="-425.3" font-family="Times,serif" font-size="14.00">Neap</text>
</g>
<!-- 21 -->
<g id="node3" class="node">
<title>21</title>
<ellipse fill="none" stroke="black" cx="331" cy="-136" rx="34.39" ry="18"/>
<text text-anchor="middle" x="331" y="-132.3" font-family="Times,serif" font-size="14.00">V568</text>
</g>
<!-- 37&#45;&gt;21 -->
<g id="edge6" class="edge">
<title>37&#45;&gt;21</title>
<path fill="none" stroke="blue" d="M261.42,-415C250.35,-407.27 238.1,-396.36 232,-383 218.14,-352.68 226.76,-340.92 232,-308 239.65,-259.98 239.66,-244.88 266,-204 272.82,-193.42 278.03,-193.83 287,-185 294.85,-177.27 303.11,-168.46 310.32,-160.52"/>
<polygon fill="blue" stroke="blue" points="313.05,-162.72 317.13,-152.94 307.84,-158.04 313.05,-162.72"/>
<text text-anchor="middle" x="238.5" y="-290" font-family="Times,serif" font-size="10.00">3</text>
</g>
<!-- 1 -->
<g id="node6" class="node">
<title>1</title>
<ellipse fill="none" stroke="black" cx="284" cy="-334" rx="40.09" ry="18"/>
<text text-anchor="middle" x="284" y="-330.3" font-family="Times,serif" font-size="14.00">V1629</text>
</g>
<!-- 37&#45;&gt;1 -->
<g id="edge1" class="edge">
<title>37&#45;&gt;1</title>
<path fill="none" stroke="blue" stroke-dasharray="1,5" d="M284,-410.94C284,-397.39 284,-378.18 284,-362.47"/>
<polygon fill="blue" stroke="blue" points="287.5,-362.26 284,-352.26 280.5,-362.26 287.5,-362.26"/>
</g>
<!-- 19 -->
<g id="node7" class="node">
<title>19</title>
<ellipse fill="none" stroke="black" cx="331" cy="-230" rx="34.39" ry="18"/>
<text text-anchor="middle" x="331" y="-226.3" font-family="Times,serif" font-size="14.00">V536</text>
</g>
<!-- 37&#45;&gt;19 -->
<g id="edge3" class="edge">
<title>37&#45;&gt;19</title>
<path fill="none" stroke="blue" d="M306.58,-415C317.65,-407.27 329.9,-396.36 336,-383 354.54,-342.44 346.44,-289.23 338.78,-257.72"/>
<polygon fill="blue" stroke="blue" points="342.14,-256.72 336.24,-247.92 335.36,-258.48 342.14,-256.72"/>
<text text-anchor="middle" x="350.5" y="-331.5" font-family="Times,serif" font-size="10.00">2</text>
</g>
<!-- 40 -->
<g id="node4" class="node">
<title>40</title>
<ellipse fill="none" stroke="black" cx="244" cy="-136" rx="34.39" ry="18"/>
<text text-anchor="middle" x="244" y="-132.3" font-family="Times,serif" font-size="14.00">Marc</text>
</g>
<!-- 27 -->
<g id="node5" class="node">
<title>27</title>
<ellipse fill="none" stroke="black" cx="244" cy="-42" rx="31.4" ry="18"/>
<text text-anchor="middle" x="244" y="-38.3" font-family="Times,serif" font-size="14.00">Mon</text>
</g>
<!-- 40&#45;&gt;27 -->
<g id="edge7" class="edge">
<title>40&#45;&gt;27</title>
<path fill="none" stroke="blue" stroke-dasharray="1,5" d="M244,-117.7C244,-104.46 244,-85.95 244,-70.66"/>
<polygon fill="blue" stroke="blue" points="247.5,-70.23 244,-60.23 240.5,-70.23 247.5,-70.23"/>
</g>
<!-- 1&#45;&gt;21 -->
<g id="edge5" class="edge">
<title>1&#45;&gt;21</title>
<path fill="none" stroke="blue" stroke-dasharray="5,2" d="M279.22,-315.72C273.1,-290.41 264.75,-242.12 278,-204 283.87,-187.11 295.97,-171.26 307.13,-159.23"/>
<polygon fill="blue" stroke="blue" points="309.79,-161.51 314.25,-151.9 304.77,-156.63 309.79,-161.51"/>
<text text-anchor="middle" x="281.5" y="-227.5" font-family="Times,serif" font-size="10.00">2</text>
</g>
<!-- 1&#45;&gt;19 -->
<g id="edge2" class="edge">
<title>1&#45;&gt;19</title>
<path fill="none" stroke="blue" stroke-dasharray="5,2" d="M291.76,-316.16C299.18,-300.06 310.46,-275.57 319.03,-256.98"/>
<polygon fill="blue" stroke="blue" points="322.22,-258.42 323.23,-247.87 315.86,-255.49 322.22,-258.42"/>
</g>
<!-- 19&#45;&gt;21 -->
<g id="edge4" class="edge">
<title>19&#45;&gt;21</title>
<path fill="none" stroke="blue" stroke-dasharray="1,5" d="M331,-211.7C331,-198.46 331,-179.95 331,-164.66"/>
<polygon fill="blue" stroke="blue" points="334.5,-164.23 331,-154.23 327.5,-164.23 334.5,-164.23"/>
</g>
</g>
</svg>
