<?xml version="1.0" encoding="UTF-8" standalone="no"?>
<!DOCTYPE svg PUBLIC "-//W3C//DTD SVG 1.1//EN"
 "http://www.w3.org/Graphics/SVG/1.1/DTD/svg11.dtd">
<!-- Generated by graphviz version 2.43.0 (0)
 -->
<!-- Title: textual_flow_diagram Pages: 1 -->
<svg width="560pt" height="199pt"
 viewBox="0.00 0.00 560.00 199.00" xmlns="http://www.w3.org/2000/svg" xmlns:xlink="http://www.w3.org/1999/xlink">
<g id="graph0" class="graph" transform="scale(1 1) rotate(0) translate(4 195)">
<title>textual_flow_diagram</title>
<polygon fill="white" stroke="transparent" points="-4,4 -4,-195 556,-195 556,4 -4,4"/>
<g id="clust1" class="cluster">
<title>cluster_legend</title>
<polygon fill="none" stroke="black" points="8,-99 8,-153 164,-153 164,-99 8,-99"/>
</g>
<g id="clust2" class="cluster">
<title>cluster_plot</title>
</g>
<g id="clust3" class="cluster">
<title>cluster_a</title>
<polygon fill="none" stroke="black" points="271,-100 271,-175 523,-175 523,-100 271,-100"/>
<text text-anchor="middle" x="397" y="-159.8" font-family="Times,serif" font-size="14.00">a</text>
</g>
<g id="clust4" class="cluster">
<title>cluster_b</title>
<polygon fill="none" stroke="black" points="180,-16 180,-91 432,-91 432,-16 180,-16"/>
<text text-anchor="middle" x="306" y="-75.8" font-family="Times,serif" font-size="14.00">b</text>
</g>
<g id="clust5" class="cluster">
<title>cluster_c</title>
<polygon fill="none" stroke="black" points="440,-16 440,-91 536,-91 536,-16 440,-16"/>
<text text-anchor="middle" x="488" y="-75.8" font-family="Times,serif" font-size="14.00">c</text>
</g>
<!-- label -->
<g id="node1" class="node">
<title>label</title>
<text text-anchor="middle" x="86" y="-129.8" font-family="Times,serif" font-size="14.00">adstag1.2.40U22</text>
<text text-anchor="middle" x="86" y="-114.8" font-family="Times,serif" font-size="14.00">Con = 3</text>
</g>
<!-- 28 -->
<g id="node2" class="node">
<title>28</title>
<ellipse fill="none" stroke="black" cx="399" cy="-126" rx="38.19" ry="18"/>
<text text-anchor="middle" x="399" y="-122.3" font-family="Times,serif" font-size="14.00">aBase</text>
</g>
<!-- 36 -->
<g id="node7" class="node">
<title>36</title>
<ellipse fill="none" stroke="black" cx="396" cy="-42" rx="27.9" ry="18"/>
<text text-anchor="middle" x="396" y="-38.3" font-family="Times,serif" font-size="14.00">La2</text>
</g>
<!-- 28&#45;&gt;36 -->
<g id="edge3" class="edge">
<title>28&#45;&gt;36</title>
<path fill="none" stroke="blue" stroke-width="2" d="M398.36,-107.61C397.97,-96.77 397.45,-82.6 397,-70.29"/>
<polygon fill="blue" stroke="blue" stroke-width="2" points="400.49,-69.95 396.63,-60.08 393.49,-70.21 400.49,-69.95"/>
</g>
<!-- 37 -->
<g id="node3" class="node">
<title>37</title>
<ellipse fill="none" stroke="black" cx="485" cy="-126" rx="29.8" ry="18"/>
<text text-anchor="middle" x="485" y="-122.3" font-family="Times,serif" font-size="14.00">Nan</text>
</g>
<!-- 39 -->
<g id="node8" class="node">
<title>39</title>
<ellipse fill="none" stroke="black" cx="488" cy="-42" rx="40.09" ry="18"/>
<text text-anchor="middle" x="488" y="-38.3" font-family="Times,serif" font-size="14.00">V2250</text>
</g>
<!-- 37&#45;&gt;39 -->
<g id="edge4" class="edge">
<title>37&#45;&gt;39</title>
<path fill="none" stroke="blue" stroke-dasharray="5,2" d="M485.64,-107.61C486.03,-96.77 486.55,-82.6 487,-70.29"/>
<polygon fill="blue" stroke="blue" points="490.51,-70.21 487.37,-60.08 483.51,-69.95 490.51,-70.21"/>
</g>
<!-- 38 -->
<g id="node4" class="node">
<title>38</title>
<ellipse fill="none" stroke="black" cx="311" cy="-126" rx="31.7" ry="18"/>
<text text-anchor="middle" x="311" y="-122.3" font-family="Times,serif" font-size="14.00">Taur</text>
</g>
<!-- 24 -->
<g id="node5" class="node">
<title>24</title>
<ellipse fill="none" stroke="black" cx="316" cy="-42" rx="34.39" ry="18"/>
<text text-anchor="middle" x="316" y="-38.3" font-family="Times,serif" font-size="14.00">V569</text>
</g>
<!-- 38&#45;&gt;24 -->
<g id="edge1" class="edge">
<title>38&#45;&gt;24</title>
<path fill="none" stroke="blue" stroke-dasharray="5,2" d="M312.06,-107.61C312.72,-96.77 313.59,-82.6 314.34,-70.29"/>
<polygon fill="blue" stroke="blue" points="317.84,-70.28 314.96,-60.08 310.86,-69.85 317.84,-70.28"/>
</g>
<!-- 27 -->
<g id="node6" class="node">
<title>27</title>
<ellipse fill="none" stroke="black" cx="226" cy="-42" rx="37.89" ry="18"/>
<text text-anchor="middle" x="226" y="-38.3" font-family="Times,serif" font-size="14.00">M118</text>
</g>
<!-- 38&#45;&gt;27 -->
<g id="edge2" class="edge">
<title>38&#45;&gt;27</title>
<path fill="none" stroke="blue" stroke-dasharray="5,2" d="M294.14,-110.34C287.46,-104.43 279.78,-97.48 273,-91 264.78,-83.14 256,-74.31 248.29,-66.38"/>
<polygon fill="blue" stroke="blue" points="250.45,-63.58 240.98,-58.82 245.42,-68.45 250.45,-63.58"/>
</g>
</g>
</svg>
