<?xml version="1.0" encoding="UTF-8" standalone="no"?>
<!DOCTYPE svg PUBLIC "-//W3C//DTD SVG 1.1//EN"
 "http://www.w3.org/Graphics/SVG/1.1/DTD/svg11.dtd">
<!-- Generated by graphviz version 2.43.0 (0)
 -->
<!-- Title: textual_flow_diagram Pages: 1 -->
<svg width="620pt" height="418pt"
 viewBox="0.00 0.00 620.00 418.00" xmlns="http://www.w3.org/2000/svg" xmlns:xlink="http://www.w3.org/1999/xlink">
<g id="graph0" class="graph" transform="scale(1 1) rotate(0) translate(4 414)">
<title>textual_flow_diagram</title>
<polygon fill="white" stroke="transparent" points="-4,4 -4,-414 616,-414 616,4 -4,4"/>
<g id="clust1" class="cluster">
<title>cluster_legend</title>
<polygon fill="none" stroke="black" points="8,-318 8,-372 186,-372 186,-318 8,-318"/>
</g>
<g id="clust2" class="cluster">
<title>cluster_plot</title>
</g>
<g id="clust3" class="cluster">
<title>cluster_a</title>
<polygon fill="none" stroke="black" points="339,-319 339,-394 521,-394 521,-319 339,-319"/>
<text text-anchor="middle" x="430" y="-378.8" font-family="Times,serif" font-size="14.00">a</text>
</g>
<g id="clust5" class="cluster">
<title>cluster_b</title>
<polygon fill="none" stroke="black" points="512,-224 512,-299 596,-299 596,-224 512,-224"/>
<text text-anchor="middle" x="554" y="-283.8" font-family="Times,serif" font-size="14.00">b</text>
</g>
<g id="clust6" class="cluster">
<title>cluster_c</title>
<polygon fill="none" stroke="black" points="208,-16 208,-91 300,-91 300,-16 208,-16"/>
<text text-anchor="middle" x="254" y="-75.8" font-family="Times,serif" font-size="14.00">c</text>
</g>
<g id="clust7" class="cluster">
<title>cluster_d</title>
<polygon fill="none" stroke="black" points="214,-224 214,-299 467,-299 467,-224 214,-224"/>
<text text-anchor="middle" x="340.5" y="-283.8" font-family="Times,serif" font-size="14.00">d</text>
</g>
<g id="clust9" class="cluster">
<title>cluster_f</title>
<polygon fill="none" stroke="black" points="314,-120 314,-195 464,-195 464,-120 314,-120"/>
<text text-anchor="middle" x="389" y="-179.8" font-family="Times,serif" font-size="14.00">f</text>
</g>
<!-- label -->
<g id="node1" class="node">
<title>label</title>
<text text-anchor="middle" x="97" y="-348.8" font-family="Times,serif" font-size="14.00">adstag1.3.18U22&#45;28</text>
<text text-anchor="middle" x="97" y="-333.8" font-family="Times,serif" font-size="14.00">Con = 10</text>
</g>
<!-- 12 -->
<g id="node2" class="node">
<title>12</title>
<ellipse fill="none" stroke="black" cx="387" cy="-345" rx="40.09" ry="18"/>
<text text-anchor="middle" x="387" y="-341.3" font-family="Times,serif" font-size="14.00">V1629</text>
</g>
<!-- 21 -->
<g id="node5" class="node">
<title>21</title>
<ellipse fill="none" stroke="black" cx="254" cy="-42" rx="37.89" ry="18"/>
<text text-anchor="middle" x="254" y="-38.3" font-family="Times,serif" font-size="14.00">M118</text>
</g>
<!-- 12&#45;&gt;21 -->
<g id="edge6" class="edge">
<title>12&#45;&gt;21</title>
<path fill="none" stroke="blue" d="M348.15,-339.65C301.32,-333.52 226.79,-320.59 210,-299 156.17,-229.77 209.51,-117.99 238.27,-68.26"/>
<polygon fill="blue" stroke="blue" points="241.4,-69.84 243.48,-59.45 235.38,-66.27 241.4,-69.84"/>
<text text-anchor="middle" x="192.5" y="-206" font-family="Times,serif" font-size="10.00">7</text>
</g>
<!-- 30 -->
<g id="node7" class="node">
<title>30</title>
<ellipse fill="none" stroke="black" cx="338" cy="-250" rx="34.39" ry="18"/>
<text text-anchor="middle" x="338" y="-246.3" font-family="Times,serif" font-size="14.00">V536</text>
</g>
<!-- 12&#45;&gt;30 -->
<g id="edge7" class="edge">
<title>12&#45;&gt;30</title>
<path fill="none" stroke="blue" stroke-dasharray="5,2" d="M378.24,-327.37C370.78,-313.22 359.96,-292.67 351.41,-276.45"/>
<polygon fill="blue" stroke="blue" points="354.44,-274.7 346.68,-267.48 348.25,-277.96 354.44,-274.7"/>
</g>
<!-- 19 -->
<g id="node9" class="node">
<title>19</title>
<ellipse fill="none" stroke="black" cx="425" cy="-146" rx="31.4" ry="18"/>
<text text-anchor="middle" x="425" y="-142.3" font-family="Times,serif" font-size="14.00">Mon</text>
</g>
<!-- 12&#45;&gt;19 -->
<g id="edge3" class="edge">
<title>12&#45;&gt;19</title>
<path fill="none" stroke="blue" stroke-dasharray="5,2" d="M412.12,-330.64C436.79,-317.51 470.78,-299.36 471,-299 495.73,-257.7 465.33,-202.04 443.5,-170.81"/>
<polygon fill="blue" stroke="blue" points="446.32,-168.74 437.62,-162.68 440.65,-172.84 446.32,-168.74"/>
<text text-anchor="middle" x="483.5" y="-247.5" font-family="Times,serif" font-size="10.00">5</text>
</g>
<!-- 24 -->
<g id="node3" class="node">
<title>24</title>
<ellipse fill="none" stroke="black" cx="479" cy="-345" rx="33.6" ry="18"/>
<text text-anchor="middle" x="479" y="-341.3" font-family="Times,serif" font-size="14.00">La22</text>
</g>
<!-- 5 -->
<g id="node4" class="node">
<title>5</title>
<ellipse fill="none" stroke="black" cx="554" cy="-250" rx="33.6" ry="18"/>
<text text-anchor="middle" x="554" y="-246.3" font-family="Times,serif" font-size="14.00">La35</text>
</g>
<!-- 24&#45;&gt;5 -->
<g id="edge1" class="edge">
<title>24&#45;&gt;5</title>
<path fill="none" stroke="blue" stroke-dasharray="1,5" d="M491.72,-328.22C503.47,-313.66 521.08,-291.82 534.58,-275.08"/>
<polygon fill="blue" stroke="blue" points="537.66,-276.83 541.21,-266.85 532.21,-272.44 537.66,-276.83"/>
</g>
<!-- 2 -->
<g id="node6" class="node">
<title>2</title>
<ellipse fill="none" stroke="black" cx="254" cy="-250" rx="31.7" ry="18"/>
<text text-anchor="middle" x="254" y="-246.3" font-family="Times,serif" font-size="14.00">Taur</text>
</g>
<!-- 2&#45;&gt;21 -->
<g id="edge4" class="edge">
<title>2&#45;&gt;21</title>
<path fill="none" stroke="blue" stroke-dasharray="5,2" d="M254,-231.79C254,-195.95 254,-113.09 254,-70.05"/>
<polygon fill="blue" stroke="blue" points="257.5,-70.02 254,-60.02 250.5,-70.02 257.5,-70.02"/>
</g>
<!-- 40 -->
<g id="node8" class="node">
<title>40</title>
<ellipse fill="none" stroke="black" cx="425" cy="-250" rx="34.39" ry="18"/>
<text text-anchor="middle" x="425" y="-246.3" font-family="Times,serif" font-size="14.00">Marc</text>
</g>
<!-- 40&#45;&gt;19 -->
<g id="edge2" class="edge">
<title>40&#45;&gt;19</title>
<path fill="none" stroke="blue" stroke-dasharray="1,5" d="M425,-231.7C425,-215.92 425,-192.36 425,-174.09"/>
<polygon fill="blue" stroke="blue" points="428.5,-174.05 425,-164.05 421.5,-174.05 428.5,-174.05"/>
</g>
<!-- 31 -->
<g id="node10" class="node">
<title>31</title>
<ellipse fill="none" stroke="black" cx="349" cy="-146" rx="27" ry="18"/>
<text text-anchor="middle" x="349" y="-142.3" font-family="Times,serif" font-size="14.00">Sin</text>
</g>
<!-- 31&#45;&gt;21 -->
<g id="edge5" class="edge">
<title>31&#45;&gt;21</title>
<path fill="none" stroke="blue" stroke-dasharray="5,2" d="M335.39,-130.39C319.81,-113.66 294.08,-86.03 275.72,-66.32"/>
<polygon fill="blue" stroke="blue" points="278.21,-63.86 268.84,-58.93 273.09,-68.63 278.21,-63.86"/>
<text text-anchor="middle" x="318.5" y="-102" font-family="Times,serif" font-size="10.00">4</text>
</g>
</g>
</svg>
