<?xml version="1.0" encoding="UTF-8" standalone="no"?>
<!DOCTYPE svg PUBLIC "-//W3C//DTD SVG 1.1//EN"
 "http://www.w3.org/Graphics/SVG/1.1/DTD/svg11.dtd">
<!-- Generated by graphviz version 2.43.0 (0)
 -->
<!-- Title: textual_flow_diagram Pages: 1 -->
<svg width="400pt" height="220pt"
 viewBox="0.00 0.00 400.00 220.00" xmlns="http://www.w3.org/2000/svg" xmlns:xlink="http://www.w3.org/1999/xlink">
<g id="graph0" class="graph" transform="scale(1 1) rotate(0) translate(4 216)">
<title>textual_flow_diagram</title>
<polygon fill="white" stroke="transparent" points="-4,4 -4,-216 396,-216 396,4 -4,4"/>
<g id="clust1" class="cluster">
<title>cluster_legend</title>
<polygon fill="none" stroke="black" points="8,-120 8,-174 168,-174 168,-120 8,-120"/>
</g>
<g id="clust2" class="cluster">
<title>cluster_plot</title>
</g>
<g id="clust3" class="cluster">
<title>cluster_a</title>
<polygon fill="none" stroke="black" points="284,-121 284,-196 376,-196 376,-121 284,-121"/>
<text text-anchor="middle" x="330" y="-180.8" font-family="Times,serif" font-size="14.00">a</text>
</g>
<g id="clust4" class="cluster">
<title>cluster_ar1</title>
<polygon fill="none" stroke="black" points="184,-121 184,-196 276,-196 276,-121 184,-121"/>
<text text-anchor="middle" x="230" y="-180.8" font-family="Times,serif" font-size="14.00">ar1</text>
</g>
<g id="clust6" class="cluster">
<title>cluster_b</title>
<polygon fill="none" stroke="black" points="189,-16 189,-91 363,-91 363,-16 189,-16"/>
<text text-anchor="middle" x="276" y="-75.8" font-family="Times,serif" font-size="14.00">b</text>
</g>
<!-- label -->
<g id="node1" class="node">
<title>label</title>
<text text-anchor="middle" x="88" y="-150.8" font-family="Times,serif" font-size="14.00">adstag1.3.2U6&#45;12</text>
<text text-anchor="middle" x="88" y="-135.8" font-family="Times,serif" font-size="14.00">Con = 10</text>
</g>
<!-- 11 -->
<g id="node2" class="node">
<title>11</title>
<ellipse fill="none" stroke="black" cx="330" cy="-147" rx="38.19" ry="18"/>
<text text-anchor="middle" x="330" y="-143.3" font-family="Times,serif" font-size="14.00">aBase</text>
</g>
<!-- 7 -->
<g id="node4" class="node">
<title>7</title>
<ellipse fill="none" stroke="black" cx="237" cy="-42" rx="40.09" ry="18"/>
<text text-anchor="middle" x="237" y="-38.3" font-family="Times,serif" font-size="14.00">V1897</text>
</g>
<!-- 11&#45;&gt;7 -->
<g id="edge1" class="edge">
<title>11&#45;&gt;7</title>
<path fill="none" stroke="blue" d="M315.65,-129.87C307.55,-120.78 297.24,-109.24 288,-99 278.41,-88.37 267.75,-76.65 258.67,-66.69"/>
<polygon fill="blue" stroke="blue" points="261.1,-64.16 251.77,-59.14 255.93,-68.88 261.1,-64.16"/>
</g>
<!-- 36 -->
<g id="node5" class="node">
<title>36</title>
<ellipse fill="none" stroke="black" cx="325" cy="-42" rx="29.8" ry="18"/>
<text text-anchor="middle" x="325" y="-38.3" font-family="Times,serif" font-size="14.00">Nan</text>
</g>
<!-- 11&#45;&gt;36 -->
<g id="edge3" class="edge">
<title>11&#45;&gt;36</title>
<path fill="none" stroke="blue" d="M329.17,-128.99C328.4,-113.04 327.23,-88.91 326.32,-70.27"/>
<polygon fill="blue" stroke="blue" points="329.81,-69.85 325.83,-60.03 322.82,-70.19 329.81,-69.85"/>
</g>
<!-- 0 -->
<g id="node3" class="node">
<title>0</title>
<ellipse fill="none" stroke="black" cx="230" cy="-147" rx="37.89" ry="18"/>
<text text-anchor="middle" x="230" y="-143.3" font-family="Times,serif" font-size="14.00">M111</text>
</g>
<!-- 0&#45;&gt;7 -->
<g id="edge2" class="edge">
<title>0&#45;&gt;7</title>
<path fill="none" stroke="blue" stroke-dasharray="5,2" d="M231.16,-128.99C232.25,-112.96 233.9,-88.69 235.16,-70.01"/>
<polygon fill="blue" stroke="blue" points="238.66,-70.25 235.84,-60.03 231.67,-69.77 238.66,-70.25"/>
<text text-anchor="middle" x="236.5" y="-102" font-family="Times,serif" font-size="10.00">8</text>
</g>
<!-- 0&#45;&gt;36 -->
<g id="edge4" class="edge">
<title>0&#45;&gt;36</title>
<path fill="none" stroke="blue" stroke-dasharray="5,2" d="M246.66,-130.58C258.06,-119.8 273.34,-104.91 286,-91 292.9,-83.42 300.08,-74.82 306.37,-67.01"/>
<polygon fill="blue" stroke="blue" points="309.3,-68.94 312.78,-58.94 303.82,-64.58 309.3,-68.94"/>
<text text-anchor="middle" x="280.5" y="-102" font-family="Times,serif" font-size="10.00">9</text>
</g>
</g>
</svg>
