<?xml version="1.0" encoding="UTF-8" standalone="no"?>
<!DOCTYPE svg PUBLIC "-//W3C//DTD SVG 1.1//EN"
 "http://www.w3.org/Graphics/SVG/1.1/DTD/svg11.dtd">
<!-- Generated by graphviz version 2.43.0 (0)
 -->
<!-- Title: textual_flow_diagram Pages: 1 -->
<svg width="498pt" height="314pt"
 viewBox="0.00 0.00 498.00 314.00" xmlns="http://www.w3.org/2000/svg" xmlns:xlink="http://www.w3.org/1999/xlink">
<g id="graph0" class="graph" transform="scale(1 1) rotate(0) translate(4 310)">
<title>textual_flow_diagram</title>
<polygon fill="white" stroke="transparent" points="-4,4 -4,-310 494,-310 494,4 -4,4"/>
<g id="clust1" class="cluster">
<title>cluster_legend</title>
<polygon fill="none" stroke="black" points="8,-214 8,-268 186,-268 186,-214 8,-214"/>
</g>
<g id="clust2" class="cluster">
<title>cluster_plot</title>
</g>
<g id="clust3" class="cluster">
<title>cluster_a</title>
<polygon fill="none" stroke="black" points="334,-215 334,-290 426,-290 426,-215 334,-215"/>
<text text-anchor="middle" x="380" y="-274.8" font-family="Times,serif" font-size="14.00">a</text>
</g>
<g id="clust4" class="cluster">
<title>cluster_b</title>
<polygon fill="none" stroke="black" points="202,-120 202,-195 462,-195 462,-120 202,-120"/>
<text text-anchor="middle" x="332" y="-179.8" font-family="Times,serif" font-size="14.00">b</text>
</g>
<g id="clust5" class="cluster">
<title>cluster_c</title>
<polygon fill="none" stroke="black" points="206,-16 206,-91 290,-91 290,-16 206,-16"/>
<text text-anchor="middle" x="248" y="-75.8" font-family="Times,serif" font-size="14.00">c</text>
</g>
<g id="clust6" class="cluster">
<title>cluster_d</title>
<polygon fill="none" stroke="black" points="381,-16 381,-91 467,-91 467,-16 381,-16"/>
<text text-anchor="middle" x="424" y="-75.8" font-family="Times,serif" font-size="14.00">d</text>
</g>
<!-- label -->
<g id="node1" class="node">
<title>label</title>
<text text-anchor="middle" x="97" y="-244.8" font-family="Times,serif" font-size="14.00">adstag1.3.33U38&#45;40</text>
<text text-anchor="middle" x="97" y="-229.8" font-family="Times,serif" font-size="14.00">Con = 3</text>
</g>
<!-- 37 -->
<g id="node2" class="node">
<title>37</title>
<ellipse fill="none" stroke="black" cx="380" cy="-241" rx="38.19" ry="18"/>
<text text-anchor="middle" x="380" y="-237.3" font-family="Times,serif" font-size="14.00">aBase</text>
</g>
<!-- 13 -->
<g id="node4" class="node">
<title>13</title>
<ellipse fill="none" stroke="black" cx="332" cy="-146" rx="28.7" ry="18"/>
<text text-anchor="middle" x="332" y="-142.3" font-family="Times,serif" font-size="14.00">A25</text>
</g>
<!-- 37&#45;&gt;13 -->
<g id="edge1" class="edge">
<title>37&#45;&gt;13</title>
<path fill="none" stroke="blue" stroke-dasharray="5,2" d="M371.42,-223.37C364.12,-209.22 353.51,-188.67 345.14,-172.45"/>
<polygon fill="blue" stroke="blue" points="348.2,-170.76 340.51,-163.48 341.98,-173.97 348.2,-170.76"/>
</g>
<!-- 32 -->
<g id="node7" class="node">
<title>32</title>
<ellipse fill="none" stroke="black" cx="424" cy="-42" rx="35.19" ry="18"/>
<text text-anchor="middle" x="424" y="-38.3" font-family="Times,serif" font-size="14.00">Neap</text>
</g>
<!-- 37&#45;&gt;32 -->
<g id="edge3" class="edge">
<title>37&#45;&gt;32</title>
<path fill="none" stroke="blue" stroke-width="2" d="M413.31,-231.8C432.32,-225.23 454.57,-213.88 466,-195 490.52,-154.5 462.75,-99.36 442.14,-67.83"/>
<polygon fill="blue" stroke="blue" stroke-width="2" points="444.82,-65.54 436.31,-59.23 439.02,-69.47 444.82,-65.54"/>
</g>
<!-- 0 -->
<g id="node3" class="node">
<title>0</title>
<ellipse fill="none" stroke="black" cx="416" cy="-146" rx="37.89" ry="18"/>
<text text-anchor="middle" x="416" y="-142.3" font-family="Times,serif" font-size="14.00">M136</text>
</g>
<!-- 0&#45;&gt;32 -->
<g id="edge4" class="edge">
<title>0&#45;&gt;32</title>
<path fill="none" stroke="blue" stroke-dasharray="5,2" d="M417.36,-127.7C418.59,-111.92 420.44,-88.36 421.87,-70.09"/>
<polygon fill="blue" stroke="blue" points="425.37,-70.29 422.66,-60.05 418.39,-69.74 425.37,-70.29"/>
<text text-anchor="middle" x="422.5" y="-102" font-family="Times,serif" font-size="10.00">2</text>
</g>
<!-- 28 -->
<g id="node5" class="node">
<title>28</title>
<ellipse fill="none" stroke="black" cx="248" cy="-146" rx="37.89" ry="18"/>
<text text-anchor="middle" x="248" y="-142.3" font-family="Times,serif" font-size="14.00">M111</text>
</g>
<!-- 14 -->
<g id="node6" class="node">
<title>14</title>
<ellipse fill="none" stroke="black" cx="248" cy="-42" rx="34.39" ry="18"/>
<text text-anchor="middle" x="248" y="-38.3" font-family="Times,serif" font-size="14.00">A336</text>
</g>
<!-- 28&#45;&gt;14 -->
<g id="edge2" class="edge">
<title>28&#45;&gt;14</title>
<path fill="none" stroke="blue" stroke-dasharray="5,2" d="M248,-127.7C248,-111.92 248,-88.36 248,-70.09"/>
<polygon fill="blue" stroke="blue" points="251.5,-70.05 248,-60.05 244.5,-70.05 251.5,-70.05"/>
</g>
</g>
</svg>
