<?xml version="1.0" encoding="UTF-8" standalone="no"?>
<!DOCTYPE svg PUBLIC "-//W3C//DTD SVG 1.1//EN"
 "http://www.w3.org/Graphics/SVG/1.1/DTD/svg11.dtd">
<!-- Generated by graphviz version 2.43.0 (0)
 -->
<!-- Title: textual_flow_diagram Pages: 1 -->
<svg width="523pt" height="304pt"
 viewBox="0.00 0.00 523.00 304.00" xmlns="http://www.w3.org/2000/svg" xmlns:xlink="http://www.w3.org/1999/xlink">
<g id="graph0" class="graph" transform="scale(1 1) rotate(0) translate(4 300)">
<title>textual_flow_diagram</title>
<polygon fill="white" stroke="transparent" points="-4,4 -4,-300 519,-300 519,4 -4,4"/>
<g id="clust1" class="cluster">
<title>cluster_legend</title>
<polygon fill="none" stroke="black" points="8,-204 8,-258 186,-258 186,-204 8,-204"/>
</g>
<g id="clust2" class="cluster">
<title>cluster_plot</title>
</g>
<g id="clust3" class="cluster">
<title>cluster_a</title>
<polygon fill="none" stroke="black" points="321,-205 321,-280 499,-280 499,-205 321,-205"/>
<text text-anchor="middle" x="410" y="-264.8" font-family="Times,serif" font-size="14.00">a</text>
</g>
<g id="clust4" class="cluster">
<title>cluster_b</title>
<polygon fill="none" stroke="black" points="202,-110 202,-185 360,-185 360,-110 202,-110"/>
<text text-anchor="middle" x="281" y="-169.8" font-family="Times,serif" font-size="14.00">b</text>
</g>
<g id="clust5" class="cluster">
<title>cluster_c</title>
<polygon fill="none" stroke="black" points="202,-16 202,-91 472,-91 472,-16 202,-16"/>
<text text-anchor="middle" x="337" y="-75.8" font-family="Times,serif" font-size="14.00">c</text>
</g>
<g id="clust6" class="cluster">
<title>cluster_d</title>
<polygon fill="none" stroke="black" points="425,-110 425,-185 499,-185 499,-110 425,-110"/>
<text text-anchor="middle" x="462" y="-169.8" font-family="Times,serif" font-size="14.00">d</text>
</g>
<!-- label -->
<g id="node1" class="node">
<title>label</title>
<text text-anchor="middle" x="97" y="-234.8" font-family="Times,serif" font-size="14.00">adstag1.3.40U16&#45;24</text>
<text text-anchor="middle" x="97" y="-219.8" font-family="Times,serif" font-size="14.00">Con = 5</text>
</g>
<!-- 0 -->
<g id="node2" class="node">
<title>0</title>
<ellipse fill="none" stroke="black" cx="367" cy="-231" rx="38.19" ry="18"/>
<text text-anchor="middle" x="367" y="-227.3" font-family="Times,serif" font-size="14.00">aBase</text>
</g>
<!-- 3 -->
<g id="node4" class="node">
<title>3</title>
<ellipse fill="none" stroke="black" cx="322" cy="-136" rx="29.8" ry="18"/>
<text text-anchor="middle" x="322" y="-132.3" font-family="Times,serif" font-size="14.00">Nan</text>
</g>
<!-- 0&#45;&gt;3 -->
<g id="edge1" class="edge">
<title>0&#45;&gt;3</title>
<path fill="none" stroke="blue" d="M358.95,-213.37C352.17,-199.36 342.35,-179.06 334.54,-162.91"/>
<polygon fill="blue" stroke="blue" points="337.48,-160.96 329.98,-153.48 331.18,-164.01 337.48,-160.96"/>
</g>
<!-- 12 -->
<g id="node7" class="node">
<title>12</title>
<ellipse fill="none" stroke="black" cx="337" cy="-42" rx="40.09" ry="18"/>
<text text-anchor="middle" x="337" y="-38.3" font-family="Times,serif" font-size="14.00">V2250</text>
</g>
<!-- 0&#45;&gt;12 -->
<g id="edge5" class="edge">
<title>0&#45;&gt;12</title>
<path fill="none" stroke="blue" stroke-width="2" d="M368.48,-212.69C370.06,-189.17 371.43,-145.92 364,-110 361.09,-95.95 355.39,-81.07 349.97,-68.92"/>
<polygon fill="blue" stroke="blue" stroke-width="2" points="353.13,-67.42 345.75,-59.82 346.79,-70.37 353.13,-67.42"/>
<text text-anchor="middle" x="372.5" y="-133.5" font-family="Times,serif" font-size="10.00">3</text>
</g>
<!-- 29 -->
<g id="node8" class="node">
<title>29</title>
<ellipse fill="none" stroke="black" cx="430" cy="-42" rx="34.39" ry="18"/>
<text text-anchor="middle" x="430" y="-38.3" font-family="Times,serif" font-size="14.00">V560</text>
</g>
<!-- 0&#45;&gt;29 -->
<g id="edge6" class="edge">
<title>0&#45;&gt;29</title>
<path fill="none" stroke="blue" stroke-width="2" d="M372.7,-213.08C383.68,-180.48 407.85,-108.75 421.02,-69.67"/>
<polygon fill="blue" stroke="blue" stroke-width="2" points="424.39,-70.62 424.27,-60.02 417.76,-68.38 424.39,-70.62"/>
</g>
<!-- 38 -->
<g id="node3" class="node">
<title>38</title>
<ellipse fill="none" stroke="black" cx="457" cy="-231" rx="33.6" ry="18"/>
<text text-anchor="middle" x="457" y="-227.3" font-family="Times,serif" font-size="14.00">La22</text>
</g>
<!-- 4 -->
<g id="node9" class="node">
<title>4</title>
<ellipse fill="none" stroke="black" cx="462" cy="-136" rx="28.7" ry="18"/>
<text text-anchor="middle" x="462" y="-132.3" font-family="Times,serif" font-size="14.00">P74</text>
</g>
<!-- 38&#45;&gt;4 -->
<g id="edge2" class="edge">
<title>38&#45;&gt;4</title>
<path fill="none" stroke="blue" stroke-dasharray="1,5" d="M457.92,-212.94C458.65,-199.39 459.68,-180.18 460.52,-164.47"/>
<polygon fill="blue" stroke="blue" points="464.03,-164.44 461.07,-154.26 457.04,-164.06 464.03,-164.44"/>
</g>
<!-- 3&#45;&gt;12 -->
<g id="edge4" class="edge">
<title>3&#45;&gt;12</title>
<path fill="none" stroke="blue" stroke-dasharray="5,2" d="M324.82,-117.7C327,-104.33 330.06,-85.59 332.56,-70.22"/>
<polygon fill="blue" stroke="blue" points="336.04,-70.66 334.19,-60.23 329.13,-69.53 336.04,-70.66"/>
</g>
<!-- 27 -->
<g id="node5" class="node">
<title>27</title>
<ellipse fill="none" stroke="black" cx="242" cy="-136" rx="31.7" ry="18"/>
<text text-anchor="middle" x="242" y="-132.3" font-family="Times,serif" font-size="14.00">Taur</text>
</g>
<!-- 6 -->
<g id="node6" class="node">
<title>6</title>
<ellipse fill="none" stroke="black" cx="244" cy="-42" rx="34.39" ry="18"/>
<text text-anchor="middle" x="244" y="-38.3" font-family="Times,serif" font-size="14.00">V569</text>
</g>
<!-- 27&#45;&gt;6 -->
<g id="edge3" class="edge">
<title>27&#45;&gt;6</title>
<path fill="none" stroke="blue" stroke-dasharray="5,2" d="M242.38,-117.7C242.66,-104.46 243.07,-85.95 243.4,-70.66"/>
<polygon fill="blue" stroke="blue" points="246.91,-70.3 243.63,-60.23 239.91,-70.15 246.91,-70.3"/>
</g>
</g>
</svg>
