<?xml version="1.0" encoding="UTF-8" standalone="no"?>
<!DOCTYPE svg PUBLIC "-//W3C//DTD SVG 1.1//EN"
 "http://www.w3.org/Graphics/SVG/1.1/DTD/svg11.dtd">
<!-- Generated by graphviz version 2.43.0 (0)
 -->
<!-- Title: textual_flow_diagram Pages: 1 -->
<svg width="811pt" height="199pt"
 viewBox="0.00 0.00 811.00 199.00" xmlns="http://www.w3.org/2000/svg" xmlns:xlink="http://www.w3.org/1999/xlink">
<g id="graph0" class="graph" transform="scale(1 1) rotate(0) translate(4 195)">
<title>textual_flow_diagram</title>
<polygon fill="white" stroke="transparent" points="-4,4 -4,-195 807,-195 807,4 -4,4"/>
<g id="clust1" class="cluster">
<title>cluster_legend</title>
<polygon fill="none" stroke="black" points="8,-99 8,-153 156,-153 156,-99 8,-99"/>
</g>
<g id="clust2" class="cluster">
<title>cluster_plot</title>
</g>
<g id="clust3" class="cluster">
<title>cluster_a</title>
<polygon fill="none" stroke="black" points="314,-100 314,-175 564,-175 564,-100 314,-100"/>
<text text-anchor="middle" x="439" y="-159.8" font-family="Times,serif" font-size="14.00">a</text>
</g>
<g id="clust4" class="cluster">
<title>cluster_b</title>
<polygon fill="none" stroke="black" points="172,-16 172,-91 606,-91 606,-16 172,-16"/>
<text text-anchor="middle" x="389" y="-75.8" font-family="Times,serif" font-size="14.00">b</text>
</g>
<g id="clust6" class="cluster">
<title>cluster_c</title>
<polygon fill="none" stroke="black" points="614,-16 614,-91 787,-91 787,-16 614,-16"/>
<text text-anchor="middle" x="700.5" y="-75.8" font-family="Times,serif" font-size="14.00">c</text>
</g>
<!-- label -->
<g id="node1" class="node">
<title>label</title>
<text text-anchor="middle" x="82" y="-129.8" font-family="Times,serif" font-size="14.00">adstag1.2.24U4</text>
<text text-anchor="middle" x="82" y="-114.8" font-family="Times,serif" font-size="14.00">Con = 1</text>
</g>
<!-- 0 -->
<g id="node2" class="node">
<title>0</title>
<ellipse fill="none" stroke="black" cx="351" cy="-126" rx="28.7" ry="18"/>
<text text-anchor="middle" x="351" y="-122.3" font-family="Times,serif" font-size="14.00">A25</text>
</g>
<!-- 19 -->
<g id="node7" class="node">
<title>19</title>
<ellipse fill="none" stroke="black" cx="214" cy="-42" rx="34.39" ry="18"/>
<text text-anchor="middle" x="214" y="-38.3" font-family="Times,serif" font-size="14.00">V566</text>
</g>
<!-- 0&#45;&gt;19 -->
<g id="edge3" class="edge">
<title>0&#45;&gt;19</title>
<path fill="none" stroke="blue" stroke-dasharray="5,2" d="M324.25,-119.09C304.49,-113.86 277.57,-104.88 257,-91 247.44,-84.55 238.61,-75.51 231.47,-67.02"/>
<polygon fill="blue" stroke="blue" points="234.15,-64.77 225.17,-59.14 228.68,-69.14 234.15,-64.77"/>
</g>
<!-- 11 -->
<g id="node3" class="node">
<title>11</title>
<ellipse fill="none" stroke="black" cx="436" cy="-126" rx="38.19" ry="18"/>
<text text-anchor="middle" x="436" y="-122.3" font-family="Times,serif" font-size="14.00">aBase</text>
</g>
<!-- 38 -->
<g id="node9" class="node">
<title>38</title>
<ellipse fill="none" stroke="black" cx="304" cy="-42" rx="37.89" ry="18"/>
<text text-anchor="middle" x="304" y="-38.3" font-family="Times,serif" font-size="14.00">M136</text>
</g>
<!-- 11&#45;&gt;38 -->
<g id="edge6" class="edge">
<title>11&#45;&gt;38</title>
<path fill="none" stroke="blue" stroke-width="2" d="M414.18,-111.16C406.46,-106.75 397.56,-102.19 389,-99 372.83,-92.98 366.13,-99.3 351,-91 340.2,-85.07 330.3,-75.86 322.41,-67.09"/>
<polygon fill="blue" stroke="blue" stroke-width="2" points="324.9,-64.61 315.76,-59.26 319.57,-69.15 324.9,-64.61"/>
</g>
<!-- 23 -->
<g id="node10" class="node">
<title>23</title>
<ellipse fill="none" stroke="black" cx="657" cy="-42" rx="35.19" ry="18"/>
<text text-anchor="middle" x="657" y="-38.3" font-family="Times,serif" font-size="14.00">Neap</text>
</g>
<!-- 11&#45;&gt;23 -->
<g id="edge4" class="edge">
<title>11&#45;&gt;23</title>
<path fill="none" stroke="blue" stroke-width="2" d="M457.12,-110.71C464.92,-106.15 474.05,-101.61 483,-99 510.14,-91.07 584.29,-102.77 610,-91 621.48,-85.74 631.66,-76.34 639.58,-67.25"/>
<polygon fill="blue" stroke="blue" stroke-width="2" points="642.34,-69.41 645.94,-59.45 636.91,-64.99 642.34,-69.41"/>
</g>
<!-- 14 -->
<g id="node4" class="node">
<title>14</title>
<ellipse fill="none" stroke="black" cx="524" cy="-126" rx="31.7" ry="18"/>
<text text-anchor="middle" x="524" y="-122.3" font-family="Times,serif" font-size="14.00">Taur</text>
</g>
<!-- 1 -->
<g id="node5" class="node">
<title>1</title>
<ellipse fill="none" stroke="black" cx="485" cy="-42" rx="27" ry="18"/>
<text text-anchor="middle" x="485" y="-38.3" font-family="Times,serif" font-size="14.00">Sin</text>
</g>
<!-- 14&#45;&gt;1 -->
<g id="edge1" class="edge">
<title>14&#45;&gt;1</title>
<path fill="none" stroke="blue" stroke-dasharray="1,5" d="M516.11,-108.41C510.68,-96.99 503.37,-81.62 497.19,-68.64"/>
<polygon fill="blue" stroke="blue" points="500.2,-66.82 492.75,-59.29 493.88,-69.82 500.2,-66.82"/>
</g>
<!-- 40 -->
<g id="node11" class="node">
<title>40</title>
<ellipse fill="none" stroke="black" cx="745" cy="-42" rx="34.39" ry="18"/>
<text text-anchor="middle" x="745" y="-38.3" font-family="Times,serif" font-size="14.00">V569</text>
</g>
<!-- 14&#45;&gt;40 -->
<g id="edge7" class="edge">
<title>14&#45;&gt;40</title>
<path fill="none" stroke="blue" stroke-dasharray="5,2" d="M556.1,-124.8C593.22,-123.26 655.1,-116.63 701,-91 711.32,-85.24 720.55,-76.17 727.86,-67.46"/>
<polygon fill="blue" stroke="blue" points="730.82,-69.37 734.25,-59.34 725.32,-65.04 730.82,-69.37"/>
</g>
<!-- 18 -->
<g id="node6" class="node">
<title>18</title>
<ellipse fill="none" stroke="black" cx="564" cy="-42" rx="34.39" ry="18"/>
<text text-anchor="middle" x="564" y="-38.3" font-family="Times,serif" font-size="14.00">V568</text>
</g>
<!-- 18&#45;&gt;14 -->
<g id="edge2" class="edge">
<title>18&#45;&gt;14</title>
<path fill="none" stroke="blue" stroke-dasharray="1,5" d="M555.92,-59.57C550.39,-70.9 542.95,-86.15 536.65,-99.08"/>
<polygon fill="blue" stroke="blue" points="533.33,-97.88 532.09,-108.41 539.62,-100.95 533.33,-97.88"/>
</g>
<!-- 28 -->
<g id="node8" class="node">
<title>28</title>
<ellipse fill="none" stroke="black" cx="400" cy="-42" rx="40.09" ry="18"/>
<text text-anchor="middle" x="400" y="-38.3" font-family="Times,serif" font-size="14.00">V1629</text>
</g>
<!-- 23&#45;&gt;28 -->
<g id="edge5" class="edge">
<title>23&#45;&gt;28</title>
<path fill="none" stroke="blue" stroke-dasharray="1,5" d="M646.44,-59.32C636.7,-73.12 620.77,-90.8 601,-95 585.46,-98.3 473.54,-98.3 458,-95 441.74,-91.55 427.81,-79.37 417.69,-67.56"/>
<polygon fill="blue" stroke="blue" points="420.27,-65.19 411.3,-59.55 414.8,-69.55 420.27,-65.19"/>
</g>
</g>
</svg>
