<?xml version="1.0" encoding="UTF-8" standalone="no"?>
<!DOCTYPE svg PUBLIC "-//W3C//DTD SVG 1.1//EN"
 "http://www.w3.org/Graphics/SVG/1.1/DTD/svg11.dtd">
<!-- Generated by graphviz version 2.43.0 (0)
 -->
<!-- Title: textual_flow_diagram Pages: 1 -->
<svg width="481pt" height="199pt"
 viewBox="0.00 0.00 481.00 199.00" xmlns="http://www.w3.org/2000/svg" xmlns:xlink="http://www.w3.org/1999/xlink">
<g id="graph0" class="graph" transform="scale(1 1) rotate(0) translate(4 195)">
<title>textual_flow_diagram</title>
<polygon fill="white" stroke="transparent" points="-4,4 -4,-195 477,-195 477,4 -4,4"/>
<g id="clust1" class="cluster">
<title>cluster_legend</title>
<polygon fill="none" stroke="black" points="8,-99 8,-153 164,-153 164,-99 8,-99"/>
</g>
<g id="clust2" class="cluster">
<title>cluster_plot</title>
</g>
<g id="clust3" class="cluster">
<title>cluster_a</title>
<polygon fill="none" stroke="black" points="187,-100 187,-175 452,-175 452,-100 187,-100"/>
<text text-anchor="middle" x="319.5" y="-159.8" font-family="Times,serif" font-size="14.00">a</text>
</g>
<g id="clust4" class="cluster">
<title>cluster_b</title>
<polygon fill="none" stroke="black" points="180,-16 180,-91 457,-91 457,-16 180,-16"/>
<text text-anchor="middle" x="318.5" y="-75.8" font-family="Times,serif" font-size="14.00">b</text>
</g>
<!-- label -->
<g id="node1" class="node">
<title>label</title>
<text text-anchor="middle" x="86" y="-129.8" font-family="Times,serif" font-size="14.00">adstag1.1.14U54</text>
<text text-anchor="middle" x="86" y="-114.8" font-family="Times,serif" font-size="14.00">Con = 5</text>
</g>
<!-- 11 -->
<g id="node2" class="node">
<title>11</title>
<ellipse fill="none" stroke="black" cx="406" cy="-126" rx="38.19" ry="18"/>
<text text-anchor="middle" x="406" y="-122.3" font-family="Times,serif" font-size="14.00">aBase</text>
</g>
<!-- 38 -->
<g id="node7" class="node">
<title>38</title>
<ellipse fill="none" stroke="black" cx="411" cy="-42" rx="37.89" ry="18"/>
<text text-anchor="middle" x="411" y="-38.3" font-family="Times,serif" font-size="14.00">M136</text>
</g>
<!-- 11&#45;&gt;38 -->
<g id="edge3" class="edge">
<title>11&#45;&gt;38</title>
<path fill="none" stroke="blue" stroke-width="2" d="M407.06,-107.61C407.72,-96.77 408.59,-82.6 409.34,-70.29"/>
<polygon fill="blue" stroke="blue" stroke-width="2" points="412.84,-70.28 409.96,-60.08 405.86,-69.85 412.84,-70.28"/>
</g>
<!-- 19 -->
<g id="node3" class="node">
<title>19</title>
<ellipse fill="none" stroke="black" cx="315" cy="-126" rx="34.39" ry="18"/>
<text text-anchor="middle" x="315" y="-122.3" font-family="Times,serif" font-size="14.00">V566</text>
</g>
<!-- 35 -->
<g id="node6" class="node">
<title>35</title>
<ellipse fill="none" stroke="black" cx="315" cy="-42" rx="40.09" ry="18"/>
<text text-anchor="middle" x="315" y="-38.3" font-family="Times,serif" font-size="14.00">V1639</text>
</g>
<!-- 19&#45;&gt;35 -->
<g id="edge2" class="edge">
<title>19&#45;&gt;35</title>
<path fill="none" stroke="blue" stroke-dasharray="1,5" d="M315,-107.61C315,-96.77 315,-82.6 315,-70.29"/>
<polygon fill="blue" stroke="blue" points="318.5,-70.08 315,-60.08 311.5,-70.08 318.5,-70.08"/>
</g>
<!-- 27 -->
<g id="node4" class="node">
<title>27</title>
<ellipse fill="none" stroke="black" cx="229" cy="-126" rx="33.6" ry="18"/>
<text text-anchor="middle" x="229" y="-122.3" font-family="Times,serif" font-size="14.00">La22</text>
</g>
<!-- 13 -->
<g id="node5" class="node">
<title>13</title>
<ellipse fill="none" stroke="black" cx="222" cy="-42" rx="34.39" ry="18"/>
<text text-anchor="middle" x="222" y="-38.3" font-family="Times,serif" font-size="14.00">V571</text>
</g>
<!-- 27&#45;&gt;13 -->
<g id="edge1" class="edge">
<title>27&#45;&gt;13</title>
<path fill="none" stroke="blue" stroke-dasharray="1,5" d="M227.55,-108.01C226.63,-97.2 225.41,-82.95 224.35,-70.54"/>
<polygon fill="blue" stroke="blue" points="227.81,-69.92 223.47,-60.25 220.84,-70.51 227.81,-69.92"/>
</g>
</g>
</svg>
