<?xml version="1.0" encoding="UTF-8" standalone="no"?>
<!DOCTYPE svg PUBLIC "-//W3C//DTD SVG 1.1//EN"
 "http://www.w3.org/Graphics/SVG/1.1/DTD/svg11.dtd">
<!-- Generated by graphviz version 2.43.0 (0)
 -->
<!-- Title: textual_flow_diagram Pages: 1 -->
<svg width="691pt" height="304pt"
 viewBox="0.00 0.00 691.00 304.00" xmlns="http://www.w3.org/2000/svg" xmlns:xlink="http://www.w3.org/1999/xlink">
<g id="graph0" class="graph" transform="scale(1 1) rotate(0) translate(4 300)">
<title>textual_flow_diagram</title>
<polygon fill="white" stroke="transparent" points="-4,4 -4,-300 687,-300 687,4 -4,4"/>
<g id="clust1" class="cluster">
<title>cluster_legend</title>
<polygon fill="none" stroke="black" points="8,-204 8,-258 186,-258 186,-204 8,-204"/>
</g>
<g id="clust2" class="cluster">
<title>cluster_plot</title>
</g>
<g id="clust3" class="cluster">
<title>cluster_a</title>
<polygon fill="none" stroke="black" points="365,-205 365,-280 636,-280 636,-205 365,-205"/>
<text text-anchor="middle" x="500.5" y="-264.8" font-family="Times,serif" font-size="14.00">a</text>
</g>
<g id="clust4" class="cluster">
<title>cluster_b</title>
<polygon fill="none" stroke="black" points="202,-110 202,-185 632,-185 632,-110 202,-110"/>
<text text-anchor="middle" x="417" y="-169.8" font-family="Times,serif" font-size="14.00">b</text>
</g>
<g id="clust5" class="cluster">
<title>cluster_c</title>
<polygon fill="none" stroke="black" points="429,-16 429,-91 525,-91 525,-16 429,-16"/>
<text text-anchor="middle" x="477" y="-75.8" font-family="Times,serif" font-size="14.00">c</text>
</g>
<!-- label -->
<g id="node1" class="node">
<title>label</title>
<text text-anchor="middle" x="97" y="-234.8" font-family="Times,serif" font-size="14.00">adstag1.1.12U18&#45;20</text>
<text text-anchor="middle" x="97" y="-219.8" font-family="Times,serif" font-size="14.00">Con = 5</text>
</g>
<!-- 11 -->
<g id="node2" class="node">
<title>11</title>
<ellipse fill="none" stroke="black" cx="411" cy="-231" rx="38.19" ry="18"/>
<text text-anchor="middle" x="411" y="-227.3" font-family="Times,serif" font-size="14.00">aBase</text>
</g>
<!-- 33 -->
<g id="node7" class="node">
<title>33</title>
<ellipse fill="none" stroke="black" cx="416" cy="-136" rx="34.39" ry="18"/>
<text text-anchor="middle" x="416" y="-132.3" font-family="Times,serif" font-size="14.00">V560</text>
</g>
<!-- 11&#45;&gt;33 -->
<g id="edge5" class="edge">
<title>11&#45;&gt;33</title>
<path fill="none" stroke="blue" stroke-width="2" d="M411.92,-212.94C412.65,-199.39 413.68,-180.18 414.52,-164.47"/>
<polygon fill="blue" stroke="blue" stroke-width="2" points="418.03,-164.44 415.07,-154.26 411.04,-164.06 418.03,-164.44"/>
</g>
<!-- 38 -->
<g id="node8" class="node">
<title>38</title>
<ellipse fill="none" stroke="black" cx="248" cy="-136" rx="37.89" ry="18"/>
<text text-anchor="middle" x="248" y="-132.3" font-family="Times,serif" font-size="14.00">M136</text>
</g>
<!-- 11&#45;&gt;38 -->
<g id="edge6" class="edge">
<title>11&#45;&gt;38</title>
<path fill="none" stroke="blue" stroke-width="2" d="M378.48,-221.45C354.19,-214.14 320.88,-202.06 295,-185 284.86,-178.31 275.2,-169.13 267.29,-160.58"/>
<polygon fill="blue" stroke="blue" stroke-width="2" points="269.82,-158.16 260.57,-153 264.59,-162.8 269.82,-158.16"/>
</g>
<!-- 42 -->
<g id="node9" class="node">
<title>42</title>
<ellipse fill="none" stroke="black" cx="334" cy="-136" rx="29.8" ry="18"/>
<text text-anchor="middle" x="334" y="-132.3" font-family="Times,serif" font-size="14.00">Nan</text>
</g>
<!-- 11&#45;&gt;42 -->
<g id="edge7" class="edge">
<title>11&#45;&gt;42</title>
<path fill="none" stroke="blue" d="M397.21,-213.82C389.96,-205.28 380.96,-194.61 373,-185 366.46,-177.11 359.38,-168.42 353.06,-160.64"/>
<polygon fill="blue" stroke="blue" points="355.58,-158.2 346.57,-152.63 350.14,-162.6 355.58,-158.2"/>
</g>
<!-- 17 -->
<g id="node10" class="node">
<title>17</title>
<ellipse fill="none" stroke="black" cx="477" cy="-42" rx="40.09" ry="18"/>
<text text-anchor="middle" x="477" y="-38.3" font-family="Times,serif" font-size="14.00">V1897</text>
</g>
<!-- 11&#45;&gt;17 -->
<g id="edge3" class="edge">
<title>11&#45;&gt;17</title>
<path fill="none" stroke="blue" d="M432.18,-215.93C439.99,-211.39 449.11,-206.81 458,-204 495.93,-192.02 609.41,-214.58 636,-185 658.28,-160.21 654.43,-137.77 636,-110 611.7,-73.39 563.03,-56.73 525.91,-49.19"/>
<polygon fill="blue" stroke="blue" points="526.25,-45.69 515.77,-47.29 524.96,-52.57 526.25,-45.69"/>
<text text-anchor="middle" x="654.5" y="-133.5" font-family="Times,serif" font-size="10.00">2</text>
</g>
<!-- 21 -->
<g id="node3" class="node">
<title>21</title>
<ellipse fill="none" stroke="black" cx="505" cy="-231" rx="37.89" ry="18"/>
<text text-anchor="middle" x="505" y="-227.3" font-family="Times,serif" font-size="14.00">M111</text>
</g>
<!-- 7 -->
<g id="node5" class="node">
<title>7</title>
<ellipse fill="none" stroke="black" cx="503" cy="-136" rx="34.39" ry="18"/>
<text text-anchor="middle" x="503" y="-132.3" font-family="Times,serif" font-size="14.00">A336</text>
</g>
<!-- 21&#45;&gt;7 -->
<g id="edge1" class="edge">
<title>21&#45;&gt;7</title>
<path fill="none" stroke="blue" stroke-dasharray="5,2" d="M504.63,-212.94C504.34,-199.39 503.93,-180.18 503.59,-164.47"/>
<polygon fill="blue" stroke="blue" points="507.09,-164.19 503.37,-154.26 500.09,-164.34 507.09,-164.19"/>
</g>
<!-- 27 -->
<g id="node4" class="node">
<title>27</title>
<ellipse fill="none" stroke="black" cx="594" cy="-231" rx="33.6" ry="18"/>
<text text-anchor="middle" x="594" y="-227.3" font-family="Times,serif" font-size="14.00">La22</text>
</g>
<!-- 29 -->
<g id="node6" class="node">
<title>29</title>
<ellipse fill="none" stroke="black" cx="590" cy="-136" rx="34.39" ry="18"/>
<text text-anchor="middle" x="590" y="-132.3" font-family="Times,serif" font-size="14.00">V565</text>
</g>
<!-- 27&#45;&gt;29 -->
<g id="edge4" class="edge">
<title>27&#45;&gt;29</title>
<path fill="none" stroke="blue" stroke-dasharray="5,2" d="M593.27,-212.94C592.68,-199.39 591.86,-180.18 591.18,-164.47"/>
<polygon fill="blue" stroke="blue" points="594.67,-164.1 590.74,-154.26 587.68,-164.41 594.67,-164.1"/>
</g>
<!-- 42&#45;&gt;17 -->
<g id="edge2" class="edge">
<title>42&#45;&gt;17</title>
<path fill="none" stroke="blue" stroke-dasharray="1,5" d="M353.88,-122.21C377.84,-106.79 418.36,-80.72 446.34,-62.73"/>
<polygon fill="blue" stroke="blue" points="448.42,-65.55 454.94,-57.19 444.64,-59.66 448.42,-65.55"/>
</g>
</g>
</svg>
