<?xml version="1.0" encoding="UTF-8" standalone="no"?>
<!DOCTYPE svg PUBLIC "-//W3C//DTD SVG 1.1//EN"
 "http://www.w3.org/Graphics/SVG/1.1/DTD/svg11.dtd">
<!-- Generated by graphviz version 2.43.0 (0)
 -->
<!-- Title: textual_flow_diagram Pages: 1 -->
<svg width="577pt" height="314pt"
 viewBox="0.00 0.00 577.00 314.00" xmlns="http://www.w3.org/2000/svg" xmlns:xlink="http://www.w3.org/1999/xlink">
<g id="graph0" class="graph" transform="scale(1 1) rotate(0) translate(4 310)">
<title>textual_flow_diagram</title>
<polygon fill="white" stroke="transparent" points="-4,4 -4,-310 573,-310 573,4 -4,4"/>
<g id="clust1" class="cluster">
<title>cluster_legend</title>
<polygon fill="none" stroke="black" points="8,-214 8,-268 186,-268 186,-214 8,-214"/>
</g>
<g id="clust2" class="cluster">
<title>cluster_plot</title>
</g>
<g id="clust3" class="cluster">
<title>cluster_a</title>
<polygon fill="none" stroke="black" points="202,-215 202,-290 546,-290 546,-215 202,-215"/>
<text text-anchor="middle" x="374" y="-274.8" font-family="Times,serif" font-size="14.00">a</text>
</g>
<g id="clust4" class="cluster">
<title>cluster_b</title>
<polygon fill="none" stroke="black" points="206,-120 206,-195 290,-195 290,-120 206,-120"/>
<text text-anchor="middle" x="248" y="-179.8" font-family="Times,serif" font-size="14.00">b</text>
</g>
<g id="clust5" class="cluster">
<title>cluster_c</title>
<polygon fill="none" stroke="black" points="326,-120 326,-195 396,-195 396,-120 326,-120"/>
<text text-anchor="middle" x="361" y="-179.8" font-family="Times,serif" font-size="14.00">c</text>
</g>
<g id="clust6" class="cluster">
<title>cluster_d</title>
<polygon fill="none" stroke="black" points="202,-16 202,-91 553,-91 553,-16 202,-16"/>
<text text-anchor="middle" x="377.5" y="-75.8" font-family="Times,serif" font-size="14.00">d</text>
</g>
<!-- label -->
<g id="node1" class="node">
<title>label</title>
<text text-anchor="middle" x="97" y="-244.8" font-family="Times,serif" font-size="14.00">adstag1.3.29U32&#45;40</text>
<text text-anchor="middle" x="97" y="-229.8" font-family="Times,serif" font-size="14.00">Con = 5</text>
</g>
<!-- 13 -->
<g id="node2" class="node">
<title>13</title>
<ellipse fill="none" stroke="black" cx="239" cy="-241" rx="28.7" ry="18"/>
<text text-anchor="middle" x="239" y="-237.3" font-family="Times,serif" font-size="14.00">A25</text>
</g>
<!-- 9 -->
<g id="node6" class="node">
<title>9</title>
<ellipse fill="none" stroke="black" cx="248" cy="-146" rx="34.39" ry="18"/>
<text text-anchor="middle" x="248" y="-142.3" font-family="Times,serif" font-size="14.00">Patm</text>
</g>
<!-- 13&#45;&gt;9 -->
<g id="edge4" class="edge">
<title>13&#45;&gt;9</title>
<path fill="none" stroke="blue" stroke-dasharray="1,5" d="M240.65,-222.94C241.96,-209.39 243.82,-190.18 245.34,-174.47"/>
<polygon fill="blue" stroke="blue" points="248.85,-174.56 246.33,-164.26 241.88,-173.88 248.85,-174.56"/>
</g>
<!-- 17 -->
<g id="node3" class="node">
<title>17</title>
<ellipse fill="none" stroke="black" cx="315" cy="-241" rx="29.8" ry="18"/>
<text text-anchor="middle" x="315" y="-237.3" font-family="Times,serif" font-size="14.00">Nan</text>
</g>
<!-- 20 -->
<g id="node9" class="node">
<title>20</title>
<ellipse fill="none" stroke="black" cx="431" cy="-42" rx="40.09" ry="18"/>
<text text-anchor="middle" x="431" y="-38.3" font-family="Times,serif" font-size="14.00">V2250</text>
</g>
<!-- 17&#45;&gt;20 -->
<g id="edge5" class="edge">
<title>17&#45;&gt;20</title>
<path fill="none" stroke="blue" stroke-dasharray="5,2" d="M310.99,-222.83C306.2,-197.91 301.22,-151.29 322,-120 338.16,-95.66 357.07,-107.76 381,-91 391.11,-83.92 401.15,-74.8 409.55,-66.42"/>
<polygon fill="blue" stroke="blue" points="412.29,-68.62 416.76,-59.01 407.27,-63.74 412.29,-68.62"/>
</g>
<!-- 30 -->
<g id="node4" class="node">
<title>30</title>
<ellipse fill="none" stroke="black" cx="403" cy="-241" rx="40.09" ry="18"/>
<text text-anchor="middle" x="403" y="-237.3" font-family="Times,serif" font-size="14.00">V1897</text>
</g>
<!-- 3 -->
<g id="node7" class="node">
<title>3</title>
<ellipse fill="none" stroke="black" cx="361" cy="-146" rx="27" ry="18"/>
<text text-anchor="middle" x="361" y="-142.3" font-family="Times,serif" font-size="14.00">Est</text>
</g>
<!-- 30&#45;&gt;3 -->
<g id="edge3" class="edge">
<title>30&#45;&gt;3</title>
<path fill="none" stroke="blue" stroke-dasharray="1,5" d="M395.3,-222.94C388.94,-208.87 379.83,-188.69 372.59,-172.67"/>
<polygon fill="blue" stroke="blue" points="375.68,-171 368.37,-163.33 369.3,-173.88 375.68,-171"/>
</g>
<!-- 37 -->
<g id="node5" class="node">
<title>37</title>
<ellipse fill="none" stroke="black" cx="500" cy="-241" rx="38.19" ry="18"/>
<text text-anchor="middle" x="500" y="-237.3" font-family="Times,serif" font-size="14.00">aBase</text>
</g>
<!-- 0 -->
<g id="node8" class="node">
<title>0</title>
<ellipse fill="none" stroke="black" cx="248" cy="-42" rx="37.89" ry="18"/>
<text text-anchor="middle" x="248" y="-38.3" font-family="Times,serif" font-size="14.00">M136</text>
</g>
<!-- 37&#45;&gt;0 -->
<g id="edge1" class="edge">
<title>37&#45;&gt;0</title>
<path fill="none" stroke="blue" stroke-width="2" d="M476.2,-226.79C468.52,-222.61 459.94,-218.03 452,-214 434.45,-205.09 423.8,-210.75 412,-195 391.76,-167.98 422.51,-145.16 400,-120 395.96,-115.49 300.21,-94.07 295,-91 284.54,-84.83 274.81,-75.74 266.95,-67.12"/>
<polygon fill="blue" stroke="blue" stroke-width="2" points="269.49,-64.71 260.29,-59.44 264.2,-69.29 269.49,-64.71"/>
</g>
<!-- 35 -->
<g id="node10" class="node">
<title>35</title>
<ellipse fill="none" stroke="black" cx="517" cy="-42" rx="27.9" ry="18"/>
<text text-anchor="middle" x="517" y="-38.3" font-family="Times,serif" font-size="14.00">La2</text>
</g>
<!-- 37&#45;&gt;35 -->
<g id="edge7" class="edge">
<title>37&#45;&gt;35</title>
<path fill="none" stroke="blue" stroke-width="2" d="M501.48,-222.86C504.43,-188.66 511.07,-111.69 514.64,-70.4"/>
<polygon fill="blue" stroke="blue" stroke-width="2" points="518.14,-70.5 515.51,-60.24 511.17,-69.9 518.14,-70.5"/>
</g>
<!-- 39 -->
<g id="node11" class="node">
<title>39</title>
<ellipse fill="none" stroke="black" cx="338" cy="-42" rx="34.39" ry="18"/>
<text text-anchor="middle" x="338" y="-38.3" font-family="Times,serif" font-size="14.00">V560</text>
</g>
<!-- 37&#45;&gt;39 -->
<g id="edge8" class="edge">
<title>37&#45;&gt;39</title>
<path fill="none" stroke="blue" stroke-width="2" d="M489.16,-223.42C473.32,-199.63 442.41,-154.84 412,-120 399.81,-106.03 394.94,-104.29 382,-91 374.31,-83.1 366.1,-74.26 358.87,-66.33"/>
<polygon fill="blue" stroke="blue" stroke-width="2" points="361.34,-63.85 352.03,-58.79 356.15,-68.55 361.34,-63.85"/>
</g>
<!-- 9&#45;&gt;0 -->
<g id="edge2" class="edge">
<title>9&#45;&gt;0</title>
<path fill="none" stroke="blue" d="M248,-127.7C248,-111.92 248,-88.36 248,-70.09"/>
<polygon fill="blue" stroke="blue" points="251.5,-70.05 248,-60.05 244.5,-70.05 251.5,-70.05"/>
<text text-anchor="middle" x="251.5" y="-102" font-family="Times,serif" font-size="10.00">3</text>
</g>
<!-- 9&#45;&gt;39 -->
<g id="edge9" class="edge">
<title>9&#45;&gt;39</title>
<path fill="none" stroke="blue" stroke-width="2" d="M262.06,-129.06C276.86,-112.3 300.3,-85.73 317.23,-66.54"/>
<polygon fill="blue" stroke="blue" stroke-width="2" points="320.04,-68.64 324.04,-58.83 314.8,-64.01 320.04,-68.64"/>
<text text-anchor="middle" x="290.5" y="-102" font-family="Times,serif" font-size="10.00">2</text>
</g>
<!-- 3&#45;&gt;20 -->
<g id="edge6" class="edge">
<title>3&#45;&gt;20</title>
<path fill="none" stroke="blue" stroke-dasharray="5,2" d="M381.56,-134.03C391.08,-128.05 401.84,-119.84 409,-110 417.58,-98.2 422.94,-82.88 426.22,-69.86"/>
<polygon fill="blue" stroke="blue" points="429.65,-70.55 428.42,-60.02 422.82,-69.02 429.65,-70.55"/>
<text text-anchor="middle" x="418.5" y="-102" font-family="Times,serif" font-size="10.00">4</text>
</g>
</g>
</svg>
