<?xml version="1.0" encoding="UTF-8" standalone="no"?>
<!DOCTYPE svg PUBLIC "-//W3C//DTD SVG 1.1//EN"
 "http://www.w3.org/Graphics/SVG/1.1/DTD/svg11.dtd">
<!-- Generated by graphviz version 2.43.0 (0)
 -->
<!-- Title: textual_flow_diagram Pages: 1 -->
<svg width="684pt" height="314pt"
 viewBox="0.00 0.00 684.00 314.00" xmlns="http://www.w3.org/2000/svg" xmlns:xlink="http://www.w3.org/1999/xlink">
<g id="graph0" class="graph" transform="scale(1 1) rotate(0) translate(4 310)">
<title>textual_flow_diagram</title>
<polygon fill="white" stroke="transparent" points="-4,4 -4,-310 680,-310 680,4 -4,4"/>
<g id="clust1" class="cluster">
<title>cluster_legend</title>
<polygon fill="none" stroke="black" points="8,-214 8,-268 186,-268 186,-214 8,-214"/>
</g>
<g id="clust2" class="cluster">
<title>cluster_plot</title>
</g>
<g id="clust3" class="cluster">
<title>cluster_a</title>
<polygon fill="none" stroke="black" points="300,-215 300,-290 655,-290 655,-215 300,-215"/>
<text text-anchor="middle" x="477.5" y="-274.8" font-family="Times,serif" font-size="14.00">a</text>
</g>
<g id="clust4" class="cluster">
<title>cluster_b</title>
<polygon fill="none" stroke="black" points="564,-16 564,-91 660,-91 660,-16 564,-16"/>
<text text-anchor="middle" x="612" y="-75.8" font-family="Times,serif" font-size="14.00">b</text>
</g>
<g id="clust5" class="cluster">
<title>cluster_c</title>
<polygon fill="none" stroke="black" points="294,-120 294,-195 472,-195 472,-120 294,-120"/>
<text text-anchor="middle" x="383" y="-179.8" font-family="Times,serif" font-size="14.00">c</text>
</g>
<g id="clust6" class="cluster">
<title>cluster_d</title>
<polygon fill="none" stroke="black" points="480,-120 480,-195 648,-195 648,-120 480,-120"/>
<text text-anchor="middle" x="564" y="-179.8" font-family="Times,serif" font-size="14.00">d</text>
</g>
<g id="clust7" class="cluster">
<title>cluster_e</title>
<polygon fill="none" stroke="black" points="202,-120 202,-195 286,-195 286,-120 202,-120"/>
<text text-anchor="middle" x="244" y="-179.8" font-family="Times,serif" font-size="14.00">e</text>
</g>
<!-- label -->
<g id="node1" class="node">
<title>label</title>
<text text-anchor="middle" x="97" y="-244.8" font-family="Times,serif" font-size="14.00">adstag1.3.72U30&#45;36</text>
<text text-anchor="middle" x="97" y="-229.8" font-family="Times,serif" font-size="14.00">Con = 5</text>
</g>
<!-- 5 -->
<g id="node2" class="node">
<title>5</title>
<ellipse fill="none" stroke="black" cx="342" cy="-241" rx="33.6" ry="18"/>
<text text-anchor="middle" x="342" y="-237.3" font-family="Times,serif" font-size="14.00">La22</text>
</g>
<!-- 24 -->
<g id="node11" class="node">
<title>24</title>
<ellipse fill="none" stroke="black" cx="244" cy="-146" rx="34.39" ry="18"/>
<text text-anchor="middle" x="244" y="-142.3" font-family="Times,serif" font-size="14.00">A116</text>
</g>
<!-- 5&#45;&gt;24 -->
<g id="edge4" class="edge">
<title>5&#45;&gt;24</title>
<path fill="none" stroke="blue" stroke-dasharray="5,2" d="M324.31,-225.4C314.08,-216.78 301.08,-205.53 290,-195 281.72,-187.13 272.96,-178.17 265.34,-170.13"/>
<polygon fill="blue" stroke="blue" points="267.55,-167.38 258.15,-162.49 262.45,-172.17 267.55,-167.38"/>
</g>
<!-- 20 -->
<g id="node3" class="node">
<title>20</title>
<ellipse fill="none" stroke="black" cx="432" cy="-241" rx="38.19" ry="18"/>
<text text-anchor="middle" x="432" y="-237.3" font-family="Times,serif" font-size="14.00">aBase</text>
</g>
<!-- 15 -->
<g id="node7" class="node">
<title>15</title>
<ellipse fill="none" stroke="black" cx="336" cy="-146" rx="34.39" ry="18"/>
<text text-anchor="middle" x="336" y="-142.3" font-family="Times,serif" font-size="14.00">V560</text>
</g>
<!-- 20&#45;&gt;15 -->
<g id="edge2" class="edge">
<title>20&#45;&gt;15</title>
<path fill="none" stroke="blue" stroke-width="2" d="M413.31,-225.18C402.91,-216.68 389.9,-205.61 379,-195 371.18,-187.39 363.09,-178.61 356.05,-170.66"/>
<polygon fill="blue" stroke="blue" stroke-width="2" points="358.63,-168.3 349.42,-163.06 353.36,-172.9 358.63,-168.3"/>
</g>
<!-- 16 -->
<g id="node8" class="node">
<title>16</title>
<ellipse fill="none" stroke="black" cx="426" cy="-146" rx="37.89" ry="18"/>
<text text-anchor="middle" x="426" y="-142.3" font-family="Times,serif" font-size="14.00">M136</text>
</g>
<!-- 20&#45;&gt;16 -->
<g id="edge3" class="edge">
<title>20&#45;&gt;16</title>
<path fill="none" stroke="blue" stroke-width="2" d="M430.9,-222.94C430.03,-209.39 428.79,-190.18 427.77,-174.47"/>
<polygon fill="blue" stroke="blue" stroke-width="2" points="431.25,-174.02 427.11,-164.26 424.27,-174.47 431.25,-174.02"/>
</g>
<!-- 13 -->
<g id="node9" class="node">
<title>13</title>
<ellipse fill="none" stroke="black" cx="528" cy="-146" rx="40.09" ry="18"/>
<text text-anchor="middle" x="528" y="-142.3" font-family="Times,serif" font-size="14.00">V2036</text>
</g>
<!-- 20&#45;&gt;13 -->
<g id="edge1" class="edge">
<title>20&#45;&gt;13</title>
<path fill="none" stroke="blue" d="M448.29,-224.22C463.69,-209.3 486.97,-186.75 504.41,-169.86"/>
<polygon fill="blue" stroke="blue" points="507.21,-172.02 511.96,-162.54 502.34,-166.99 507.21,-172.02"/>
</g>
<!-- 22 -->
<g id="node4" class="node">
<title>22</title>
<ellipse fill="none" stroke="black" cx="617" cy="-241" rx="29.8" ry="18"/>
<text text-anchor="middle" x="617" y="-237.3" font-family="Times,serif" font-size="14.00">Nan</text>
</g>
<!-- 27 -->
<g id="node6" class="node">
<title>27</title>
<ellipse fill="none" stroke="black" cx="612" cy="-42" rx="40.09" ry="18"/>
<text text-anchor="middle" x="612" y="-38.3" font-family="Times,serif" font-size="14.00">V2250</text>
</g>
<!-- 22&#45;&gt;27 -->
<g id="edge5" class="edge">
<title>22&#45;&gt;27</title>
<path fill="none" stroke="blue" stroke-dasharray="5,2" d="M632.51,-225.31C639.95,-217.18 648.08,-206.42 652,-195 662.82,-163.47 659.91,-152.38 652,-120 647.51,-101.63 637.81,-82.77 629.09,-68.31"/>
<polygon fill="blue" stroke="blue" points="631.84,-66.1 623.56,-59.49 625.91,-69.82 631.84,-66.1"/>
</g>
<!-- 26 -->
<g id="node5" class="node">
<title>26</title>
<ellipse fill="none" stroke="black" cx="529" cy="-241" rx="40.09" ry="18"/>
<text text-anchor="middle" x="529" y="-237.3" font-family="Times,serif" font-size="14.00">V1897</text>
</g>
<!-- 35 -->
<g id="node10" class="node">
<title>35</title>
<ellipse fill="none" stroke="black" cx="613" cy="-146" rx="27" ry="18"/>
<text text-anchor="middle" x="613" y="-142.3" font-family="Times,serif" font-size="14.00">Est</text>
</g>
<!-- 26&#45;&gt;35 -->
<g id="edge7" class="edge">
<title>26&#45;&gt;35</title>
<path fill="none" stroke="blue" stroke-dasharray="1,5" d="M547.04,-224.45C556.36,-216.09 567.7,-205.38 577,-195 583.74,-187.48 590.54,-178.77 596.38,-170.85"/>
<polygon fill="blue" stroke="blue" points="599.28,-172.82 602.3,-162.67 593.61,-168.72 599.28,-172.82"/>
</g>
<!-- 35&#45;&gt;27 -->
<g id="edge6" class="edge">
<title>35&#45;&gt;27</title>
<path fill="none" stroke="blue" stroke-dasharray="5,2" d="M612.83,-127.7C612.68,-111.92 612.44,-88.36 612.27,-70.09"/>
<polygon fill="blue" stroke="blue" points="615.77,-70.01 612.17,-60.05 608.77,-70.08 615.77,-70.01"/>
<text text-anchor="middle" x="615.5" y="-102" font-family="Times,serif" font-size="10.00">4</text>
</g>
</g>
</svg>
