<?xml version="1.0" encoding="UTF-8" standalone="no"?>
<!DOCTYPE svg PUBLIC "-//W3C//DTD SVG 1.1//EN"
 "http://www.w3.org/Graphics/SVG/1.1/DTD/svg11.dtd">
<!-- Generated by graphviz version 2.43.0 (0)
 -->
<!-- Title: textual_flow_diagram Pages: 1 -->
<svg width="414pt" height="314pt"
 viewBox="0.00 0.00 414.00 314.00" xmlns="http://www.w3.org/2000/svg" xmlns:xlink="http://www.w3.org/1999/xlink">
<g id="graph0" class="graph" transform="scale(1 1) rotate(0) translate(4 310)">
<title>textual_flow_diagram</title>
<polygon fill="white" stroke="transparent" points="-4,4 -4,-310 410,-310 410,4 -4,4"/>
<g id="clust1" class="cluster">
<title>cluster_legend</title>
<polygon fill="none" stroke="black" points="8,-214 8,-268 178,-268 178,-214 8,-214"/>
</g>
<g id="clust2" class="cluster">
<title>cluster_plot</title>
</g>
<g id="clust3" class="cluster">
<title>cluster_a</title>
<polygon fill="none" stroke="black" points="208,-215 208,-290 382,-290 382,-215 208,-215"/>
<text text-anchor="middle" x="295" y="-274.8" font-family="Times,serif" font-size="14.00">a</text>
</g>
<g id="clust4" class="cluster">
<title>cluster_b</title>
<polygon fill="none" stroke="black" points="294,-120 294,-195 378,-195 378,-120 294,-120"/>
<text text-anchor="middle" x="336" y="-179.8" font-family="Times,serif" font-size="14.00">b</text>
</g>
<g id="clust5" class="cluster">
<title>cluster_c</title>
<polygon fill="none" stroke="black" points="300,-16 300,-91 384,-91 384,-16 300,-16"/>
<text text-anchor="middle" x="342" y="-75.8" font-family="Times,serif" font-size="14.00">c</text>
</g>
<g id="clust6" class="cluster">
<title>cluster_d</title>
<polygon fill="none" stroke="black" points="194,-120 194,-195 286,-195 286,-120 194,-120"/>
<text text-anchor="middle" x="240" y="-179.8" font-family="Times,serif" font-size="14.00">d</text>
</g>
<!-- label -->
<g id="node1" class="node">
<title>label</title>
<text text-anchor="middle" x="93" y="-244.8" font-family="Times,serif" font-size="14.00">adstag1.3.2U14&#45;16</text>
<text text-anchor="middle" x="93" y="-229.8" font-family="Times,serif" font-size="14.00">Con = 5</text>
</g>
<!-- 6 -->
<g id="node2" class="node">
<title>6</title>
<ellipse fill="none" stroke="black" cx="248" cy="-241" rx="31.7" ry="18"/>
<text text-anchor="middle" x="248" y="-237.3" font-family="Times,serif" font-size="14.00">Taur</text>
</g>
<!-- 10 -->
<g id="node6" class="node">
<title>10</title>
<ellipse fill="none" stroke="black" cx="240" cy="-146" rx="37.89" ry="18"/>
<text text-anchor="middle" x="240" y="-142.3" font-family="Times,serif" font-size="14.00">M118</text>
</g>
<!-- 6&#45;&gt;10 -->
<g id="edge3" class="edge">
<title>6&#45;&gt;10</title>
<path fill="none" stroke="blue" stroke-dasharray="5,2" d="M246.53,-222.94C245.37,-209.39 243.71,-190.18 242.36,-174.47"/>
<polygon fill="blue" stroke="blue" points="245.83,-173.93 241.49,-164.26 238.86,-174.53 245.83,-173.93"/>
</g>
<!-- 11 -->
<g id="node3" class="node">
<title>11</title>
<ellipse fill="none" stroke="black" cx="336" cy="-241" rx="38.19" ry="18"/>
<text text-anchor="middle" x="336" y="-237.3" font-family="Times,serif" font-size="14.00">aBase</text>
</g>
<!-- 26 -->
<g id="node4" class="node">
<title>26</title>
<ellipse fill="none" stroke="black" cx="336" cy="-146" rx="33.6" ry="18"/>
<text text-anchor="middle" x="336" y="-142.3" font-family="Times,serif" font-size="14.00">La22</text>
</g>
<!-- 11&#45;&gt;26 -->
<g id="edge4" class="edge">
<title>11&#45;&gt;26</title>
<path fill="none" stroke="blue" stroke-dasharray="5,2" d="M336,-222.94C336,-209.39 336,-190.18 336,-174.47"/>
<polygon fill="blue" stroke="blue" points="339.5,-174.26 336,-164.26 332.5,-174.26 339.5,-174.26"/>
</g>
<!-- 2 -->
<g id="node5" class="node">
<title>2</title>
<ellipse fill="none" stroke="black" cx="342" cy="-42" rx="34.39" ry="18"/>
<text text-anchor="middle" x="342" y="-38.3" font-family="Times,serif" font-size="14.00">V560</text>
</g>
<!-- 11&#45;&gt;2 -->
<g id="edge1" class="edge">
<title>11&#45;&gt;2</title>
<path fill="none" stroke="blue" stroke-width="2" d="M356.75,-225.86C366.37,-218.02 376.8,-207.36 382,-195 394.93,-164.27 389.91,-152.38 382,-120 377.48,-101.51 367.69,-82.52 358.92,-68.02"/>
<polygon fill="blue" stroke="blue" stroke-width="2" points="361.65,-65.8 353.37,-59.2 355.73,-69.53 361.65,-65.8"/>
</g>
<!-- 26&#45;&gt;2 -->
<g id="edge2" class="edge">
<title>26&#45;&gt;2</title>
<path fill="none" stroke="blue" stroke-width="2" d="M337.02,-127.7C337.95,-111.92 339.33,-88.36 340.41,-70.09"/>
<polygon fill="blue" stroke="blue" stroke-width="2" points="343.9,-70.24 341,-60.05 336.92,-69.82 343.9,-70.24"/>
<text text-anchor="middle" x="341.5" y="-102" font-family="Times,serif" font-size="10.00">3</text>
</g>
</g>
</svg>
