<?xml version="1.0" encoding="UTF-8" standalone="no"?>
<!DOCTYPE svg PUBLIC "-//W3C//DTD SVG 1.1//EN"
 "http://www.w3.org/Graphics/SVG/1.1/DTD/svg11.dtd">
<!-- Generated by graphviz version 2.43.0 (0)
 -->
<!-- Title: textual_flow_diagram Pages: 1 -->
<svg width="400pt" height="304pt"
 viewBox="0.00 0.00 400.00 304.00" xmlns="http://www.w3.org/2000/svg" xmlns:xlink="http://www.w3.org/1999/xlink">
<g id="graph0" class="graph" transform="scale(1 1) rotate(0) translate(4 300)">
<title>textual_flow_diagram</title>
<polygon fill="white" stroke="transparent" points="-4,4 -4,-300 396,-300 396,4 -4,4"/>
<g id="clust1" class="cluster">
<title>cluster_legend</title>
<polygon fill="none" stroke="black" points="8,-204 8,-258 186,-258 186,-204 8,-204"/>
</g>
<g id="clust2" class="cluster">
<title>cluster_plot</title>
</g>
<g id="clust3" class="cluster">
<title>cluster_a</title>
<polygon fill="none" stroke="black" points="202,-205 202,-280 376,-280 376,-205 202,-205"/>
<text text-anchor="middle" x="289" y="-264.8" font-family="Times,serif" font-size="14.00">a</text>
</g>
<g id="clust4" class="cluster">
<title>cluster_b</title>
<polygon fill="none" stroke="black" points="215,-16 215,-91 371,-91 371,-16 215,-16"/>
<text text-anchor="middle" x="293" y="-75.8" font-family="Times,serif" font-size="14.00">b</text>
</g>
<g id="clust5" class="cluster">
<title>cluster_c</title>
<polygon fill="none" stroke="black" points="244,-110 244,-185 318,-185 318,-110 244,-110"/>
<text text-anchor="middle" x="281" y="-169.8" font-family="Times,serif" font-size="14.00">c</text>
</g>
<!-- label -->
<g id="node1" class="node">
<title>label</title>
<text text-anchor="middle" x="97" y="-234.8" font-family="Times,serif" font-size="14.00">adstag1.2.18U24&#45;28</text>
<text text-anchor="middle" x="97" y="-219.8" font-family="Times,serif" font-size="14.00">Con = 5</text>
</g>
<!-- 11 -->
<g id="node2" class="node">
<title>11</title>
<ellipse fill="none" stroke="black" cx="248" cy="-231" rx="38.19" ry="18"/>
<text text-anchor="middle" x="248" y="-227.3" font-family="Times,serif" font-size="14.00">aBase</text>
</g>
<!-- 27 -->
<g id="node5" class="node">
<title>27</title>
<ellipse fill="none" stroke="black" cx="257" cy="-42" rx="33.6" ry="18"/>
<text text-anchor="middle" x="257" y="-38.3" font-family="Times,serif" font-size="14.00">La22</text>
</g>
<!-- 11&#45;&gt;27 -->
<g id="edge4" class="edge">
<title>11&#45;&gt;27</title>
<path fill="none" stroke="blue" d="M240.98,-213.23C237.87,-204.9 234.56,-194.59 233,-185 227.66,-152.1 227.3,-142.84 233,-110 235.41,-96.11 240.44,-81.3 245.27,-69.14"/>
<polygon fill="blue" stroke="blue" points="248.62,-70.21 249.22,-59.64 242.15,-67.53 248.62,-70.21"/>
<text text-anchor="middle" x="236.5" y="-133.5" font-family="Times,serif" font-size="10.00">2</text>
</g>
<!-- 0 -->
<g id="node6" class="node">
<title>0</title>
<ellipse fill="none" stroke="black" cx="281" cy="-136" rx="28.7" ry="18"/>
<text text-anchor="middle" x="281" y="-132.3" font-family="Times,serif" font-size="14.00">A25</text>
</g>
<!-- 11&#45;&gt;0 -->
<g id="edge1" class="edge">
<title>11&#45;&gt;0</title>
<path fill="none" stroke="blue" stroke-dasharray="5,2" d="M254.05,-212.94C258.97,-199.09 265.98,-179.32 271.62,-163.42"/>
<polygon fill="blue" stroke="blue" points="275.05,-164.23 275.1,-153.64 268.45,-161.89 275.05,-164.23"/>
</g>
<!-- 14 -->
<g id="node3" class="node">
<title>14</title>
<ellipse fill="none" stroke="black" cx="336" cy="-231" rx="31.7" ry="18"/>
<text text-anchor="middle" x="336" y="-227.3" font-family="Times,serif" font-size="14.00">Taur</text>
</g>
<!-- 1 -->
<g id="node4" class="node">
<title>1</title>
<ellipse fill="none" stroke="black" cx="336" cy="-42" rx="27" ry="18"/>
<text text-anchor="middle" x="336" y="-38.3" font-family="Times,serif" font-size="14.00">Sin</text>
</g>
<!-- 14&#45;&gt;1 -->
<g id="edge2" class="edge">
<title>14&#45;&gt;1</title>
<path fill="none" stroke="blue" stroke-dasharray="1,5" d="M336,-212.74C336,-180.18 336,-109.44 336,-70.35"/>
<polygon fill="blue" stroke="blue" points="339.5,-70.22 336,-60.22 332.5,-70.22 339.5,-70.22"/>
</g>
<!-- 0&#45;&gt;27 -->
<g id="edge3" class="edge">
<title>0&#45;&gt;27</title>
<path fill="none" stroke="blue" stroke-dasharray="1,5" d="M276.6,-118.13C273.1,-104.72 268.14,-85.72 264.09,-70.17"/>
<polygon fill="blue" stroke="blue" points="267.37,-68.87 261.46,-60.08 260.59,-70.64 267.37,-68.87"/>
</g>
</g>
</svg>
