<?xml version="1.0" encoding="UTF-8" standalone="no"?>
<!DOCTYPE svg PUBLIC "-//W3C//DTD SVG 1.1//EN"
 "http://www.w3.org/Graphics/SVG/1.1/DTD/svg11.dtd">
<!-- Generated by graphviz version 2.43.0 (0)
 -->
<!-- Title: textual_flow_diagram Pages: 1 -->
<svg width="545pt" height="304pt"
 viewBox="0.00 0.00 545.00 304.00" xmlns="http://www.w3.org/2000/svg" xmlns:xlink="http://www.w3.org/1999/xlink">
<g id="graph0" class="graph" transform="scale(1 1) rotate(0) translate(4 300)">
<title>textual_flow_diagram</title>
<polygon fill="white" stroke="transparent" points="-4,4 -4,-300 541,-300 541,4 -4,4"/>
<g id="clust1" class="cluster">
<title>cluster_legend</title>
<polygon fill="none" stroke="black" points="8,-204 8,-258 186,-258 186,-204 8,-204"/>
</g>
<g id="clust2" class="cluster">
<title>cluster_plot</title>
</g>
<g id="clust3" class="cluster">
<title>cluster_a</title>
<polygon fill="none" stroke="black" points="257,-205 257,-280 521,-280 521,-205 257,-205"/>
<text text-anchor="middle" x="389" y="-264.8" font-family="Times,serif" font-size="14.00">a</text>
</g>
<g id="clust4" class="cluster">
<title>cluster_b</title>
<polygon fill="none" stroke="black" points="202,-110 202,-185 274,-185 274,-110 202,-110"/>
<text text-anchor="middle" x="238" y="-169.8" font-family="Times,serif" font-size="14.00">b</text>
</g>
<g id="clust5" class="cluster">
<title>cluster_c</title>
<polygon fill="none" stroke="black" points="350,-16 350,-91 521,-91 521,-16 350,-16"/>
<text text-anchor="middle" x="435.5" y="-75.8" font-family="Times,serif" font-size="14.00">c</text>
</g>
<g id="clust6" class="cluster">
<title>cluster_d</title>
<polygon fill="none" stroke="black" points="282,-110 282,-185 466,-185 466,-110 282,-110"/>
<text text-anchor="middle" x="374" y="-169.8" font-family="Times,serif" font-size="14.00">d</text>
</g>
<!-- label -->
<g id="node1" class="node">
<title>label</title>
<text text-anchor="middle" x="97" y="-234.8" font-family="Times,serif" font-size="14.00">adstag1.3.46U62&#45;66</text>
<text text-anchor="middle" x="97" y="-219.8" font-family="Times,serif" font-size="14.00">Con = 5</text>
</g>
<!-- 20 -->
<g id="node2" class="node">
<title>20</title>
<ellipse fill="none" stroke="black" cx="303" cy="-231" rx="38.19" ry="18"/>
<text text-anchor="middle" x="303" y="-227.3" font-family="Times,serif" font-size="14.00">aBase</text>
</g>
<!-- 29 -->
<g id="node5" class="node">
<title>29</title>
<ellipse fill="none" stroke="black" cx="238" cy="-136" rx="27.9" ry="18"/>
<text text-anchor="middle" x="238" y="-132.3" font-family="Times,serif" font-size="14.00">La2</text>
</g>
<!-- 20&#45;&gt;29 -->
<g id="edge2" class="edge">
<title>20&#45;&gt;29</title>
<path fill="none" stroke="blue" stroke-width="2" d="M291.68,-213.8C281.55,-199.31 266.56,-177.87 255,-161.32"/>
<polygon fill="blue" stroke="blue" stroke-width="2" points="257.57,-158.9 248.98,-152.7 251.84,-162.91 257.57,-158.9"/>
</g>
<!-- 0 -->
<g id="node8" class="node">
<title>0</title>
<ellipse fill="none" stroke="black" cx="423" cy="-136" rx="35.19" ry="18"/>
<text text-anchor="middle" x="423" y="-132.3" font-family="Times,serif" font-size="14.00">Neap</text>
</g>
<!-- 20&#45;&gt;0 -->
<g id="edge1" class="edge">
<title>20&#45;&gt;0</title>
<path fill="none" stroke="blue" stroke-width="2" d="M327.08,-216.76C345.84,-206.26 370.13,-192.2 379,-185 387.69,-177.95 396.24,-169.17 403.46,-161.06"/>
<polygon fill="blue" stroke="blue" stroke-width="2" points="406.31,-163.12 410.19,-153.26 401,-158.54 406.31,-163.12"/>
</g>
<!-- 22 -->
<g id="node3" class="node">
<title>22</title>
<ellipse fill="none" stroke="black" cx="389" cy="-231" rx="29.8" ry="18"/>
<text text-anchor="middle" x="389" y="-227.3" font-family="Times,serif" font-size="14.00">Nan</text>
</g>
<!-- 34 -->
<g id="node6" class="node">
<title>34</title>
<ellipse fill="none" stroke="black" cx="392" cy="-42" rx="34.39" ry="18"/>
<text text-anchor="middle" x="392" y="-38.3" font-family="Times,serif" font-size="14.00">V536</text>
</g>
<!-- 22&#45;&gt;34 -->
<g id="edge4" class="edge">
<title>22&#45;&gt;34</title>
<path fill="none" stroke="blue" stroke-width="2" d="M407.65,-216.67C413.98,-212.39 421.17,-207.79 428,-204 445.92,-194.06 458.89,-202.22 470,-185 488.07,-156.99 486.87,-138.75 470,-110 461.24,-95.07 449.58,-101.74 436,-91 427,-83.88 418.21,-74.85 410.89,-66.56"/>
<polygon fill="blue" stroke="blue" stroke-width="2" points="413.52,-64.24 404.36,-58.91 408.19,-68.79 413.52,-64.24"/>
<text text-anchor="middle" x="486.5" y="-133.5" font-family="Times,serif" font-size="10.00">3</text>
</g>
<!-- 37 -->
<g id="node4" class="node">
<title>37</title>
<ellipse fill="none" stroke="black" cx="475" cy="-231" rx="37.89" ry="18"/>
<text text-anchor="middle" x="475" y="-227.3" font-family="Times,serif" font-size="14.00">M111</text>
</g>
<!-- 41 -->
<g id="node7" class="node">
<title>41</title>
<ellipse fill="none" stroke="black" cx="479" cy="-42" rx="34.39" ry="18"/>
<text text-anchor="middle" x="479" y="-38.3" font-family="Times,serif" font-size="14.00">A336</text>
</g>
<!-- 37&#45;&gt;41 -->
<g id="edge5" class="edge">
<title>37&#45;&gt;41</title>
<path fill="none" stroke="blue" stroke-dasharray="5,2" d="M483.88,-213.42C487.82,-205.13 492.01,-194.81 494,-185 502.02,-145.4 493.75,-98.67 486.68,-69.93"/>
<polygon fill="blue" stroke="blue" points="490.05,-69.01 484.16,-60.21 483.28,-70.77 490.05,-69.01"/>
</g>
<!-- 19 -->
<g id="node9" class="node">
<title>19</title>
<ellipse fill="none" stroke="black" cx="330" cy="-136" rx="40.09" ry="18"/>
<text text-anchor="middle" x="330" y="-132.3" font-family="Times,serif" font-size="14.00">V1629</text>
</g>
<!-- 19&#45;&gt;34 -->
<g id="edge3" class="edge">
<title>19&#45;&gt;34</title>
<path fill="none" stroke="blue" stroke-dasharray="5,2" d="M341.08,-118.55C350.61,-104.42 364.48,-83.84 375.33,-67.73"/>
<polygon fill="blue" stroke="blue" points="378.33,-69.55 381.01,-59.31 372.52,-65.64 378.33,-69.55"/>
</g>
</g>
</svg>
