<?xml version="1.0" encoding="UTF-8" standalone="no"?>
<!DOCTYPE svg PUBLIC "-//W3C//DTD SVG 1.1//EN"
 "http://www.w3.org/Graphics/SVG/1.1/DTD/svg11.dtd">
<!-- Generated by graphviz version 2.43.0 (0)
 -->
<!-- Title: textual_flow_diagram Pages: 1 -->
<svg width="527pt" height="512pt"
 viewBox="0.00 0.00 527.00 512.00" xmlns="http://www.w3.org/2000/svg" xmlns:xlink="http://www.w3.org/1999/xlink">
<g id="graph0" class="graph" transform="scale(1 1) rotate(0) translate(4 508)">
<title>textual_flow_diagram</title>
<polygon fill="white" stroke="transparent" points="-4,4 -4,-508 523,-508 523,4 -4,4"/>
<g id="clust1" class="cluster">
<title>cluster_legend</title>
<polygon fill="none" stroke="black" points="8,-412 8,-466 156,-466 156,-412 8,-412"/>
</g>
<g id="clust2" class="cluster">
<title>cluster_plot</title>
</g>
<g id="clust3" class="cluster">
<title>cluster_a</title>
<polygon fill="none" stroke="black" points="217,-413 217,-488 463,-488 463,-413 217,-413"/>
<text text-anchor="middle" x="340" y="-472.8" font-family="Times,serif" font-size="14.00">a</text>
</g>
<g id="clust4" class="cluster">
<title>cluster_b</title>
<polygon fill="none" stroke="black" points="207,-318 207,-393 460,-393 460,-318 207,-318"/>
<text text-anchor="middle" x="333.5" y="-377.8" font-family="Times,serif" font-size="14.00">b</text>
</g>
<g id="clust5" class="cluster">
<title>cluster_c</title>
<polygon fill="none" stroke="black" points="290,-214 290,-289 374,-289 374,-214 290,-214"/>
<text text-anchor="middle" x="332" y="-273.8" font-family="Times,serif" font-size="14.00">c</text>
</g>
<g id="clust6" class="cluster">
<title>cluster_d</title>
<polygon fill="none" stroke="black" points="365,-16 365,-91 435,-91 435,-16 365,-16"/>
<text text-anchor="middle" x="400" y="-75.8" font-family="Times,serif" font-size="14.00">d</text>
</g>
<g id="clust7" class="cluster">
<title>cluster_e</title>
<polygon fill="none" stroke="black" points="396,-110 396,-185 474,-185 474,-110 396,-110"/>
<text text-anchor="middle" x="435" y="-169.8" font-family="Times,serif" font-size="14.00">e</text>
</g>
<!-- label -->
<g id="node1" class="node">
<title>label</title>
<text text-anchor="middle" x="82" y="-442.8" font-family="Times,serif" font-size="14.00">adstag1.3.1U20</text>
<text text-anchor="middle" x="82" y="-427.8" font-family="Times,serif" font-size="14.00">Con = 5</text>
</g>
<!-- 22 -->
<g id="node2" class="node">
<title>22</title>
<ellipse fill="none" stroke="black" cx="340" cy="-439" rx="28.7" ry="18"/>
<text text-anchor="middle" x="340" y="-435.3" font-family="Times,serif" font-size="14.00">A25</text>
</g>
<!-- 28 -->
<g id="node6" class="node">
<title>28</title>
<ellipse fill="none" stroke="black" cx="342" cy="-344" rx="28.7" ry="18"/>
<text text-anchor="middle" x="342" y="-340.3" font-family="Times,serif" font-size="14.00">S32</text>
</g>
<!-- 22&#45;&gt;28 -->
<g id="edge7" class="edge">
<title>22&#45;&gt;28</title>
<path fill="none" stroke="blue" stroke-dasharray="5,2" d="M340.37,-420.94C340.66,-407.39 341.07,-388.18 341.41,-372.47"/>
<polygon fill="blue" stroke="blue" points="344.91,-372.34 341.63,-362.26 337.91,-372.19 344.91,-372.34"/>
</g>
<!-- 33 -->
<g id="node3" class="node">
<title>33</title>
<ellipse fill="none" stroke="black" cx="421" cy="-439" rx="34.39" ry="18"/>
<text text-anchor="middle" x="421" y="-435.3" font-family="Times,serif" font-size="14.00">V568</text>
</g>
<!-- 6 -->
<g id="node5" class="node">
<title>6</title>
<ellipse fill="none" stroke="black" cx="420" cy="-344" rx="31.7" ry="18"/>
<text text-anchor="middle" x="420" y="-340.3" font-family="Times,serif" font-size="14.00">Taur</text>
</g>
<!-- 33&#45;&gt;6 -->
<g id="edge1" class="edge">
<title>33&#45;&gt;6</title>
<path fill="none" stroke="blue" stroke-dasharray="1,5" d="M420.82,-420.94C420.67,-407.39 420.46,-388.18 420.3,-372.47"/>
<polygon fill="blue" stroke="blue" points="423.79,-372.23 420.19,-362.26 416.79,-372.3 423.79,-372.23"/>
</g>
<!-- 8 -->
<g id="node8" class="node">
<title>8</title>
<ellipse fill="none" stroke="black" cx="332" cy="-240" rx="34.39" ry="18"/>
<text text-anchor="middle" x="332" y="-236.3" font-family="Times,serif" font-size="14.00">Marc</text>
</g>
<!-- 33&#45;&gt;8 -->
<g id="edge3" class="edge">
<title>33&#45;&gt;8</title>
<path fill="none" stroke="blue" stroke-dasharray="1,5" d="M401.77,-423.9C394.64,-419.35 386.27,-414.78 378,-412 339.45,-399.06 223.22,-423.21 196,-393 173.69,-368.24 179.21,-346.8 196,-318 216.5,-282.84 259.66,-262.45 291.89,-251.59"/>
<polygon fill="blue" stroke="blue" points="293.05,-254.9 301.51,-248.52 290.92,-248.23 293.05,-254.9"/>
<text text-anchor="middle" x="199.5" y="-341.5" font-family="Times,serif" font-size="10.00">2</text>
</g>
<!-- 35 -->
<g id="node9" class="node">
<title>35</title>
<ellipse fill="none" stroke="black" cx="400" cy="-42" rx="27" ry="18"/>
<text text-anchor="middle" x="400" y="-38.3" font-family="Times,serif" font-size="14.00">Sin</text>
</g>
<!-- 33&#45;&gt;35 -->
<g id="edge12" class="edge">
<title>33&#45;&gt;35</title>
<path fill="none" stroke="blue" stroke-dasharray="1,5" d="M443.39,-425.3C454.47,-417.59 466.6,-406.61 472,-393 518.4,-276.06 530.51,-224.32 478,-110 468.04,-88.31 447.21,-71 429.58,-59.41"/>
<polygon fill="blue" stroke="blue" points="431.06,-56.21 420.72,-53.88 427.35,-62.15 431.06,-56.21"/>
<text text-anchor="middle" x="515.5" y="-237.5" font-family="Times,serif" font-size="10.00">4</text>
</g>
<!-- 13 -->
<g id="node10" class="node">
<title>13</title>
<ellipse fill="none" stroke="black" cx="435" cy="-136" rx="31.4" ry="18"/>
<text text-anchor="middle" x="435" y="-132.3" font-family="Times,serif" font-size="14.00">Mon</text>
</g>
<!-- 33&#45;&gt;13 -->
<g id="edge6" class="edge">
<title>33&#45;&gt;13</title>
<path fill="none" stroke="blue" stroke-dasharray="1,5" d="M439.98,-423.98C449.1,-416.03 459.09,-405.24 464,-393 476.41,-362.06 466.65,-351.23 464,-318 459.62,-262.94 447.85,-199.35 440.72,-164.1"/>
<polygon fill="blue" stroke="blue" points="444.11,-163.2 438.67,-154.11 437.26,-164.61 444.11,-163.2"/>
<text text-anchor="middle" x="466.5" y="-300" font-family="Times,serif" font-size="10.00">3</text>
</g>
<!-- 37 -->
<g id="node4" class="node">
<title>37</title>
<ellipse fill="none" stroke="black" cx="259" cy="-439" rx="34.39" ry="18"/>
<text text-anchor="middle" x="259" y="-435.3" font-family="Times,serif" font-size="14.00">V566</text>
</g>
<!-- 31 -->
<g id="node7" class="node">
<title>31</title>
<ellipse fill="none" stroke="black" cx="255" cy="-344" rx="40.09" ry="18"/>
<text text-anchor="middle" x="255" y="-340.3" font-family="Times,serif" font-size="14.00">V1639</text>
</g>
<!-- 37&#45;&gt;31 -->
<g id="edge8" class="edge">
<title>37&#45;&gt;31</title>
<path fill="none" stroke="blue" stroke-dasharray="1,5" d="M258.27,-420.94C257.68,-407.39 256.86,-388.18 256.18,-372.47"/>
<polygon fill="blue" stroke="blue" points="259.67,-372.1 255.74,-362.26 252.68,-372.41 259.67,-372.1"/>
</g>
<!-- 6&#45;&gt;8 -->
<g id="edge2" class="edge">
<title>6&#45;&gt;8</title>
<path fill="none" stroke="blue" stroke-dasharray="1,5" d="M402.06,-328.83C394.86,-322.76 386.7,-315.38 380,-308 368.13,-294.91 356.54,-278.86 347.72,-265.75"/>
<polygon fill="blue" stroke="blue" points="350.52,-263.63 342.09,-257.21 344.68,-267.49 350.52,-263.63"/>
</g>
<!-- 6&#45;&gt;35 -->
<g id="edge11" class="edge">
<title>6&#45;&gt;35</title>
<path fill="none" stroke="blue" stroke-dasharray="1,5" d="M415.99,-326.06C409.4,-297.28 396.56,-236.89 392,-185 389.08,-151.79 390.02,-143.27 392,-110 392.79,-96.8 394.43,-82.2 396.03,-70.02"/>
<polygon fill="blue" stroke="blue" points="399.51,-70.41 397.4,-60.02 392.58,-69.46 399.51,-70.41"/>
<text text-anchor="middle" x="396.5" y="-196" font-family="Times,serif" font-size="10.00">3</text>
</g>
<!-- 6&#45;&gt;13 -->
<g id="edge5" class="edge">
<title>6&#45;&gt;13</title>
<path fill="none" stroke="blue" stroke-dasharray="1,5" d="M421.25,-325.79C423.86,-289.95 429.9,-207.09 433.03,-164.05"/>
<polygon fill="blue" stroke="blue" points="436.53,-164.24 433.76,-154.02 429.54,-163.73 436.53,-164.24"/>
<text text-anchor="middle" x="432.5" y="-237.5" font-family="Times,serif" font-size="10.00">2</text>
</g>
<!-- 8&#45;&gt;35 -->
<g id="edge10" class="edge">
<title>8&#45;&gt;35</title>
<path fill="none" stroke="blue" stroke-dasharray="1,5" d="M336.91,-222.17C344.23,-197.41 358.68,-149.8 373,-110 377.96,-96.22 384.01,-81.07 389.13,-68.67"/>
<polygon fill="blue" stroke="blue" points="392.38,-69.96 392.99,-59.39 385.92,-67.27 392.38,-69.96"/>
<text text-anchor="middle" x="376.5" y="-133.5" font-family="Times,serif" font-size="10.00">2</text>
</g>
<!-- 8&#45;&gt;13 -->
<g id="edge4" class="edge">
<title>8&#45;&gt;13</title>
<path fill="none" stroke="blue" stroke-dasharray="1,5" d="M358.73,-228.39C371.1,-222.54 385.38,-214.34 396,-204 407.87,-192.44 417.35,-176.5 423.98,-163.07"/>
<polygon fill="blue" stroke="blue" points="427.24,-164.37 428.31,-153.83 420.9,-161.41 427.24,-164.37"/>
</g>
<!-- 13&#45;&gt;35 -->
<g id="edge9" class="edge">
<title>13&#45;&gt;35</title>
<path fill="none" stroke="blue" stroke-dasharray="1,5" d="M428.58,-118.13C423.4,-104.51 416.02,-85.11 410.06,-69.43"/>
<polygon fill="blue" stroke="blue" points="413.21,-67.87 406.38,-59.77 406.66,-70.36 413.21,-67.87"/>
</g>
</g>
</svg>
