<?xml version="1.0" encoding="UTF-8" standalone="no"?>
<!DOCTYPE svg PUBLIC "-//W3C//DTD SVG 1.1//EN"
 "http://www.w3.org/Graphics/SVG/1.1/DTD/svg11.dtd">
<!-- Generated by graphviz version 2.43.0 (0)
 -->
<!-- Title: textual_flow_diagram Pages: 1 -->
<svg width="719pt" height="324pt"
 viewBox="0.00 0.00 719.00 324.00" xmlns="http://www.w3.org/2000/svg" xmlns:xlink="http://www.w3.org/1999/xlink">
<g id="graph0" class="graph" transform="scale(1 1) rotate(0) translate(4 320)">
<title>textual_flow_diagram</title>
<polygon fill="white" stroke="transparent" points="-4,4 -4,-320 715,-320 715,4 -4,4"/>
<g id="clust1" class="cluster">
<title>cluster_legend</title>
<polygon fill="none" stroke="black" points="8,-224 8,-278 164,-278 164,-224 8,-224"/>
</g>
<g id="clust2" class="cluster">
<title>cluster_plot</title>
</g>
<g id="clust3" class="cluster">
<title>cluster_a</title>
<polygon fill="none" stroke="black" points="325,-225 325,-300 695,-300 695,-225 325,-225"/>
<text text-anchor="middle" x="510" y="-284.8" font-family="Times,serif" font-size="14.00">a</text>
</g>
<g id="clust4" class="cluster">
<title>cluster_b</title>
<polygon fill="none" stroke="black" points="308,-120 308,-195 643,-195 643,-120 308,-120"/>
<text text-anchor="middle" x="475.5" y="-179.8" font-family="Times,serif" font-size="14.00">b</text>
</g>
<g id="clust5" class="cluster">
<title>cluster_c</title>
<polygon fill="none" stroke="black" points="343,-16 343,-91 662,-91 662,-16 343,-16"/>
<text text-anchor="middle" x="502.5" y="-75.8" font-family="Times,serif" font-size="14.00">c</text>
</g>
<g id="clust6" class="cluster">
<title>cluster_d</title>
<polygon fill="none" stroke="black" points="192,-120 192,-195 288,-195 288,-120 192,-120"/>
<text text-anchor="middle" x="240" y="-179.8" font-family="Times,serif" font-size="14.00">d</text>
</g>
<!-- label -->
<g id="node1" class="node">
<title>label</title>
<text text-anchor="middle" x="86" y="-254.8" font-family="Times,serif" font-size="14.00">adstag1.2.40U24</text>
<text text-anchor="middle" x="86" y="-239.8" font-family="Times,serif" font-size="14.00">Con = 5</text>
</g>
<!-- 7 -->
<g id="node2" class="node">
<title>7</title>
<ellipse fill="none" stroke="black" cx="373" cy="-251" rx="40.09" ry="18"/>
<text text-anchor="middle" x="373" y="-247.3" font-family="Times,serif" font-size="14.00">V1897</text>
</g>
<!-- 42 -->
<g id="node13" class="node">
<title>42</title>
<ellipse fill="none" stroke="black" cx="379" cy="-42" rx="27.9" ry="18"/>
<text text-anchor="middle" x="379" y="-38.3" font-family="Times,serif" font-size="14.00">Bas</text>
</g>
<!-- 7&#45;&gt;42 -->
<g id="edge12" class="edge">
<title>7&#45;&gt;42</title>
<path fill="none" stroke="blue" d="M335.26,-244.17C286.46,-235.77 205.63,-218.63 188,-195 168.07,-168.28 169.35,-147.63 188,-120 222.24,-69.28 296.08,-51.96 341.26,-46.05"/>
<polygon fill="blue" stroke="blue" points="341.74,-49.52 351.26,-44.87 340.92,-42.57 341.74,-49.52"/>
</g>
<!-- 30 -->
<g id="node14" class="node">
<title>30</title>
<ellipse fill="none" stroke="black" cx="240" cy="-146" rx="40.09" ry="18"/>
<text text-anchor="middle" x="240" y="-142.3" font-family="Times,serif" font-size="14.00">V2250</text>
</g>
<!-- 7&#45;&gt;30 -->
<g id="edge5" class="edge">
<title>7&#45;&gt;30</title>
<path fill="none" stroke="blue" stroke-dasharray="5,2" d="M353.66,-235.02C331.01,-217.48 293.31,-188.28 267.59,-168.36"/>
<polygon fill="blue" stroke="blue" points="269.41,-165.35 259.36,-162 265.13,-170.89 269.41,-165.35"/>
<text text-anchor="middle" x="329.5" y="-206" font-family="Times,serif" font-size="10.00">2</text>
</g>
<!-- 11 -->
<g id="node3" class="node">
<title>11</title>
<ellipse fill="none" stroke="black" cx="470" cy="-251" rx="38.19" ry="18"/>
<text text-anchor="middle" x="470" y="-247.3" font-family="Times,serif" font-size="14.00">aBase</text>
</g>
<!-- 16 -->
<g id="node6" class="node">
<title>16</title>
<ellipse fill="none" stroke="black" cx="525" cy="-146" rx="37.89" ry="18"/>
<text text-anchor="middle" x="525" y="-142.3" font-family="Times,serif" font-size="14.00">M136</text>
</g>
<!-- 11&#45;&gt;16 -->
<g id="edge2" class="edge">
<title>11&#45;&gt;16</title>
<path fill="none" stroke="blue" stroke-width="2" d="M478.84,-233.45C487.62,-217.01 501.2,-191.57 511.37,-172.53"/>
<polygon fill="blue" stroke="blue" stroke-width="2" points="514.56,-173.98 516.19,-163.51 508.39,-170.68 514.56,-173.98"/>
</g>
<!-- 36 -->
<g id="node8" class="node">
<title>36</title>
<ellipse fill="none" stroke="black" cx="346" cy="-146" rx="29.8" ry="18"/>
<text text-anchor="middle" x="346" y="-142.3" font-family="Times,serif" font-size="14.00">Nan</text>
</g>
<!-- 11&#45;&gt;36 -->
<g id="edge8" class="edge">
<title>11&#45;&gt;36</title>
<path fill="none" stroke="blue" d="M445.5,-236.91C427.7,-226.77 403.58,-211.67 385,-195 377.17,-187.97 369.62,-179.3 363.29,-171.26"/>
<polygon fill="blue" stroke="blue" points="366,-169.05 357.16,-163.21 360.43,-173.29 366,-169.05"/>
</g>
<!-- 39 -->
<g id="node9" class="node">
<title>39</title>
<ellipse fill="none" stroke="black" cx="432" cy="-146" rx="37.89" ry="18"/>
<text text-anchor="middle" x="432" y="-142.3" font-family="Times,serif" font-size="14.00">LaSM</text>
</g>
<!-- 11&#45;&gt;39 -->
<g id="edge9" class="edge">
<title>11&#45;&gt;39</title>
<path fill="none" stroke="blue" d="M463.73,-232.99C457.76,-216.81 448.69,-192.23 441.77,-173.49"/>
<polygon fill="blue" stroke="blue" points="445.03,-172.2 438.28,-164.03 438.46,-174.63 445.03,-172.2"/>
</g>
<!-- 2 -->
<g id="node10" class="node">
<title>2</title>
<ellipse fill="none" stroke="black" cx="546" cy="-42" rx="34.39" ry="18"/>
<text text-anchor="middle" x="546" y="-38.3" font-family="Times,serif" font-size="14.00">V560</text>
</g>
<!-- 11&#45;&gt;2 -->
<g id="edge1" class="edge">
<title>11&#45;&gt;2</title>
<path fill="none" stroke="blue" stroke-width="2" d="M492.35,-236.24C500.23,-231.84 509.3,-227.26 518,-224 573.02,-203.37 610.29,-240.88 647,-195 667.83,-168.97 664.52,-148.36 647,-120 631.85,-95.48 611.91,-108.49 589,-91 580.06,-84.18 571.51,-75.31 564.43,-67.06"/>
<polygon fill="blue" stroke="blue" stroke-width="2" points="566.93,-64.6 557.87,-59.12 561.54,-69.06 566.93,-64.6"/>
</g>
<!-- 19 -->
<g id="node11" class="node">
<title>19</title>
<ellipse fill="none" stroke="black" cx="626" cy="-42" rx="27.9" ry="18"/>
<text text-anchor="middle" x="626" y="-38.3" font-family="Times,serif" font-size="14.00">La2</text>
</g>
<!-- 11&#45;&gt;19 -->
<g id="edge3" class="edge">
<title>11&#45;&gt;19</title>
<path fill="none" stroke="blue" stroke-width="2" d="M491.63,-235.82C499.61,-231.27 508.92,-226.71 518,-224 568.86,-208.82 588.08,-234.58 637,-214 648.91,-208.99 653.62,-206.75 659,-195 678.25,-152.94 656.97,-99.12 640.77,-68.1"/>
<polygon fill="blue" stroke="blue" stroke-width="2" points="643.81,-66.36 635.96,-59.25 637.66,-69.71 643.81,-66.36"/>
</g>
<!-- 13 -->
<g id="node4" class="node">
<title>13</title>
<ellipse fill="none" stroke="black" cx="558" cy="-251" rx="31.4" ry="18"/>
<text text-anchor="middle" x="558" y="-247.3" font-family="Times,serif" font-size="14.00">Mon</text>
</g>
<!-- 35 -->
<g id="node7" class="node">
<title>35</title>
<ellipse fill="none" stroke="black" cx="608" cy="-146" rx="27" ry="18"/>
<text text-anchor="middle" x="608" y="-142.3" font-family="Times,serif" font-size="14.00">Sin</text>
</g>
<!-- 13&#45;&gt;35 -->
<g id="edge6" class="edge">
<title>13&#45;&gt;35</title>
<path fill="none" stroke="blue" stroke-dasharray="1,5" d="M566.03,-233.45C574.02,-217.01 586.37,-191.57 595.61,-172.53"/>
<polygon fill="blue" stroke="blue" points="598.77,-174.03 599.99,-163.51 592.47,-170.98 598.77,-174.03"/>
</g>
<!-- 23 -->
<g id="node5" class="node">
<title>23</title>
<ellipse fill="none" stroke="black" cx="647" cy="-251" rx="40.09" ry="18"/>
<text text-anchor="middle" x="647" y="-247.3" font-family="Times,serif" font-size="14.00">V1629</text>
</g>
<!-- 40 -->
<g id="node12" class="node">
<title>40</title>
<ellipse fill="none" stroke="black" cx="459" cy="-42" rx="34.39" ry="18"/>
<text text-anchor="middle" x="459" y="-38.3" font-family="Times,serif" font-size="14.00">V536</text>
</g>
<!-- 23&#45;&gt;40 -->
<g id="edge10" class="edge">
<title>23&#45;&gt;40</title>
<path fill="none" stroke="blue" stroke-dasharray="5,2" d="M652.97,-233.11C661.35,-206.07 672.87,-152.77 647,-120 622.09,-88.44 598.5,-106.52 559,-99 534.3,-94.3 525.24,-102.73 503,-91 492.44,-85.43 483.1,-76.28 475.77,-67.45"/>
<polygon fill="blue" stroke="blue" points="478.53,-65.3 469.63,-59.55 473,-69.6 478.53,-65.3"/>
</g>
<!-- 36&#45;&gt;40 -->
<g id="edge11" class="edge">
<title>36&#45;&gt;40</title>
<path fill="none" stroke="blue" stroke-width="2" d="M364.87,-131.89C379.4,-121.46 399.7,-106.15 416,-91 424.11,-83.46 432.38,-74.57 439.47,-66.51"/>
<polygon fill="blue" stroke="blue" stroke-width="2" points="442.24,-68.66 446.12,-58.8 436.94,-64.09 442.24,-68.66"/>
<text text-anchor="middle" x="410.5" y="-102" font-family="Times,serif" font-size="10.00">3</text>
</g>
<!-- 36&#45;&gt;42 -->
<g id="edge13" class="edge">
<title>36&#45;&gt;42</title>
<path fill="none" stroke="blue" d="M351.45,-128.16C356.61,-112.21 364.43,-88.02 370.43,-69.49"/>
<polygon fill="blue" stroke="blue" points="373.79,-70.46 373.54,-59.87 367.13,-68.31 373.79,-70.46"/>
<text text-anchor="middle" x="363.5" y="-102" font-family="Times,serif" font-size="10.00">2</text>
</g>
<!-- 36&#45;&gt;30 -->
<g id="edge4" class="edge">
<title>36&#45;&gt;30</title>
<path fill="none" stroke="blue" stroke-dasharray="5,2" d="M316.1,-146C307.68,-146 299.26,-146 290.85,-146"/>
<polygon fill="blue" stroke="blue" points="290.58,-142.5 280.58,-146 290.58,-149.5 290.58,-142.5"/>
</g>
<!-- 40&#45;&gt;35 -->
<g id="edge7" class="edge">
<title>40&#45;&gt;35</title>
<path fill="none" stroke="blue" stroke-dasharray="1,5" d="M471.01,-59.37C479.14,-69.54 490.61,-82.28 503,-91 530.2,-110.15 542.85,-103.98 572,-120 575.5,-121.92 579.08,-124.11 582.56,-126.37"/>
<polygon fill="blue" stroke="blue" points="580.65,-129.31 590.89,-132.03 584.59,-123.52 580.65,-129.31"/>
<text text-anchor="middle" x="551.5" y="-102" font-family="Times,serif" font-size="10.00">5</text>
</g>
<!-- 30&#45;&gt;42 -->
<g id="edge14" class="edge">
<title>30&#45;&gt;42</title>
<path fill="none" stroke="blue" stroke-dasharray="5,2" d="M260.21,-130.17C284.67,-112.22 325.91,-81.96 352.79,-62.23"/>
<polygon fill="blue" stroke="blue" points="354.98,-64.96 360.98,-56.23 350.84,-59.32 354.98,-64.96"/>
<text text-anchor="middle" x="304.5" y="-102" font-family="Times,serif" font-size="10.00">5</text>
</g>
</g>
</svg>
