<?xml version="1.0" encoding="UTF-8" standalone="no"?>
<!DOCTYPE svg PUBLIC "-//W3C//DTD SVG 1.1//EN"
 "http://www.w3.org/Graphics/SVG/1.1/DTD/svg11.dtd">
<!-- Generated by graphviz version 2.43.0 (0)
 -->
<!-- Title: textual_flow_diagram Pages: 1 -->
<svg width="1151pt" height="393pt"
 viewBox="0.00 0.00 1151.00 393.00" xmlns="http://www.w3.org/2000/svg" xmlns:xlink="http://www.w3.org/1999/xlink">
<g id="graph0" class="graph" transform="scale(1 1) rotate(0) translate(4 389)">
<title>textual_flow_diagram</title>
<polygon fill="white" stroke="transparent" points="-4,4 -4,-389 1147,-389 1147,4 -4,4"/>
<g id="clust1" class="cluster">
<title>cluster_legend</title>
<polygon fill="none" stroke="black" points="8,-270 8,-324 186,-324 186,-270 8,-270"/>
</g>
<g id="clust2" class="cluster">
<title>cluster_plot</title>
</g>
<g id="clust3" class="cluster">
<title>cluster_a</title>
<polygon fill="none" stroke="black" points="382,-271 382,-369 888,-369 888,-271 382,-271"/>
<text text-anchor="middle" x="635" y="-353.8" font-family="Times,serif" font-size="14.00">a</text>
</g>
<g id="clust4" class="cluster">
<title>cluster_b</title>
<polygon fill="none" stroke="black" points="304,-143 304,-241 884,-241 884,-143 304,-143"/>
<text text-anchor="middle" x="594" y="-225.8" font-family="Times,serif" font-size="14.00">b</text>
</g>
<g id="clust5" class="cluster">
<title>cluster_c</title>
<polygon fill="none" stroke="black" points="853,-16 853,-114 1011,-114 1011,-16 853,-16"/>
<text text-anchor="middle" x="932" y="-98.8" font-family="Times,serif" font-size="14.00">c</text>
</g>
<g id="clust6" class="cluster">
<title>cluster_d</title>
<polygon fill="none" stroke="black" points="202,-143 202,-241 282,-241 282,-143 202,-143"/>
<text text-anchor="middle" x="242" y="-225.8" font-family="Times,serif" font-size="14.00">d</text>
</g>
<g id="clust7" class="cluster">
<title>cluster_e</title>
<polygon fill="none" stroke="black" points="906,-143 906,-241 998,-241 998,-143 906,-143"/>
<text text-anchor="middle" x="952" y="-225.8" font-family="Times,serif" font-size="14.00">e</text>
</g>
<g id="clust8" class="cluster">
<title>cluster_f</title>
<polygon fill="none" stroke="black" points="289,-16 289,-114 373,-114 373,-16 289,-16"/>
<text text-anchor="middle" x="331" y="-98.8" font-family="Times,serif" font-size="14.00">f</text>
</g>
<g id="clust9" class="cluster">
<title>cluster_g</title>
<polygon fill="none" stroke="black" points="1043,-143 1043,-241 1127,-241 1127,-143 1043,-143"/>
<text text-anchor="middle" x="1085" y="-225.8" font-family="Times,serif" font-size="14.00">g</text>
</g>
<!-- label -->
<g id="node1" class="node">
<title>label</title>
<text text-anchor="middle" x="97" y="-300.8" font-family="Times,serif" font-size="14.00">adstag1.4.13U12&#45;14</text>
<text text-anchor="middle" x="97" y="-285.8" font-family="Times,serif" font-size="14.00">Con = 3</text>
</g>
<!-- 4 -->
<g id="node2" class="node">
<title>4</title>
<ellipse fill="none" stroke="black" cx="424" cy="-297" rx="33.6" ry="18"/>
<text text-anchor="middle" x="424" y="-293.3" font-family="Times,serif" font-size="14.00">La22</text>
</g>
<!-- 18 -->
<g id="node9" class="node">
<title>18</title>
<ellipse fill="none" stroke="black" cx="341" cy="-169" rx="28.7" ry="18"/>
<text text-anchor="middle" x="341" y="-165.3" font-family="Times,serif" font-size="14.00">P74</text>
</g>
<!-- 4&#45;&gt;18 -->
<g id="edge6" class="edge">
<title>4&#45;&gt;18</title>
<path fill="none" stroke="blue" stroke-dasharray="1,5" d="M394.97,-287.75C380.73,-282.2 364.61,-273.4 355,-260 342.08,-241.98 339.11,-216.69 339.07,-197.5"/>
<polygon fill="blue" stroke="blue" points="342.58,-197.37 339.32,-187.29 335.58,-197.2 342.58,-197.37"/>
</g>
<!-- 35 -->
<g id="node12" class="node">
<title>35</title>
<ellipse fill="none" stroke="black" cx="421" cy="-169" rx="33.6" ry="18"/>
<text text-anchor="middle" x="421" y="-165.3" font-family="Times,serif" font-size="14.00">La35</text>
</g>
<!-- 4&#45;&gt;35 -->
<g id="edge15" class="edge">
<title>4&#45;&gt;35</title>
<path fill="none" stroke="blue" stroke-dasharray="1,5" d="M395.32,-287.1C382.43,-281.51 368.46,-272.86 361,-260 358.55,-255.77 358.34,-253.1 361,-249 365.77,-241.66 372.46,-246.82 379,-241 392.78,-228.74 403.32,-210.84 410.4,-196.09"/>
<polygon fill="blue" stroke="blue" points="413.61,-197.49 414.55,-186.93 407.23,-194.6 413.61,-197.49"/>
</g>
<!-- 33 -->
<g id="node17" class="node">
<title>33</title>
<ellipse fill="none" stroke="black" cx="242" cy="-169" rx="31.7" ry="18"/>
<text text-anchor="middle" x="242" y="-165.3" font-family="Times,serif" font-size="14.00">Bodl</text>
</g>
<!-- 4&#45;&gt;33 -->
<g id="edge12" class="edge">
<title>4&#45;&gt;33</title>
<path fill="none" stroke="blue" stroke-dasharray="5,2" d="M390.38,-294.65C360.55,-291.84 317.28,-283.61 288,-260 268.02,-243.89 255.85,-216.8 249.09,-196.55"/>
<polygon fill="blue" stroke="blue" points="252.42,-195.46 246.12,-186.95 245.74,-197.54 252.42,-195.46"/>
</g>
<!-- 12 -->
<g id="node19" class="node">
<title>12</title>
<ellipse fill="none" stroke="black" cx="331" cy="-42" rx="34.39" ry="18"/>
<text text-anchor="middle" x="331" y="-38.3" font-family="Times,serif" font-size="14.00">V565</text>
</g>
<!-- 4&#45;&gt;12 -->
<g id="edge4" class="edge">
<title>4&#45;&gt;12</title>
<path fill="none" stroke="blue" stroke-dasharray="5,2" d="M391.75,-291.59C362.23,-285.66 320.16,-271.99 300,-241 276.25,-204.49 293.48,-186.06 300,-143 303.87,-117.44 313.01,-89.42 320.36,-69.56"/>
<polygon fill="blue" stroke="blue" points="323.73,-70.56 324.01,-59.97 317.18,-68.07 323.73,-70.56"/>
</g>
<!-- 6 -->
<g id="node3" class="node">
<title>6</title>
<ellipse fill="none" stroke="black" cx="582" cy="-297" rx="31.7" ry="18"/>
<text text-anchor="middle" x="582" y="-293.3" font-family="Times,serif" font-size="14.00">Taur</text>
</g>
<!-- 14 -->
<g id="node4" class="node">
<title>14</title>
<ellipse fill="none" stroke="black" cx="504" cy="-297" rx="28.7" ry="18"/>
<text text-anchor="middle" x="504" y="-293.3" font-family="Times,serif" font-size="14.00">A25</text>
</g>
<!-- 34 -->
<g id="node11" class="node">
<title>34</title>
<ellipse fill="none" stroke="black" cx="501" cy="-169" rx="28.7" ry="18"/>
<text text-anchor="middle" x="501" y="-165.3" font-family="Times,serif" font-size="14.00">P01</text>
</g>
<!-- 14&#45;&gt;34 -->
<g id="edge14" class="edge">
<title>14&#45;&gt;34</title>
<path fill="none" stroke="blue" stroke-dasharray="5,2" d="M503.59,-278.74C503.09,-257.73 502.24,-221.97 501.65,-197.23"/>
<polygon fill="blue" stroke="blue" points="505.14,-196.96 501.41,-187.05 498.15,-197.13 505.14,-196.96"/>
</g>
<!-- 16 -->
<g id="node5" class="node">
<title>16</title>
<ellipse fill="none" stroke="black" cx="670" cy="-297" rx="38.19" ry="18"/>
<text text-anchor="middle" x="670" y="-293.3" font-family="Times,serif" font-size="14.00">aBase</text>
</g>
<!-- 5 -->
<g id="node8" class="node">
<title>5</title>
<ellipse fill="none" stroke="black" cx="662" cy="-169" rx="27.9" ry="18"/>
<text text-anchor="middle" x="662" y="-165.3" font-family="Times,serif" font-size="14.00">La2</text>
</g>
<!-- 16&#45;&gt;5 -->
<g id="edge1" class="edge">
<title>16&#45;&gt;5</title>
<path fill="none" stroke="blue" stroke-width="2" d="M668.92,-279.01C667.59,-258.06 665.31,-222.19 663.74,-197.35"/>
<polygon fill="blue" stroke="blue" stroke-width="2" points="667.21,-196.88 663.09,-187.13 660.23,-197.33 667.21,-196.88"/>
</g>
<!-- 31 -->
<g id="node10" class="node">
<title>31</title>
<ellipse fill="none" stroke="black" cx="743" cy="-169" rx="35.19" ry="18"/>
<text text-anchor="middle" x="743" y="-165.3" font-family="Times,serif" font-size="14.00">Neap</text>
</g>
<!-- 16&#45;&gt;31 -->
<g id="edge8" class="edge">
<title>16&#45;&gt;31</title>
<path fill="none" stroke="blue" stroke-width="2" d="M679.54,-279.53C691.95,-258.12 713.74,-220.5 728.27,-195.42"/>
<polygon fill="blue" stroke="blue" stroke-width="2" points="731.47,-196.88 733.45,-186.48 725.41,-193.37 731.47,-196.88"/>
</g>
<!-- 10 -->
<g id="node15" class="node">
<title>10</title>
<ellipse fill="none" stroke="black" cx="895" cy="-42" rx="34.39" ry="18"/>
<text text-anchor="middle" x="895" y="-38.3" font-family="Times,serif" font-size="14.00">V560</text>
</g>
<!-- 16&#45;&gt;10 -->
<g id="edge3" class="edge">
<title>16&#45;&gt;10</title>
<path fill="none" stroke="blue" stroke-width="2" d="M691.75,-281.96C699.47,-277.54 708.37,-273.02 717,-270 789.76,-244.54 837.23,-299 888,-241 898.97,-228.47 897.35,-121.52 895.91,-70.23"/>
<polygon fill="blue" stroke="blue" stroke-width="2" points="899.4,-70.07 895.61,-60.18 892.41,-70.28 899.4,-70.07"/>
</g>
<!-- 32 -->
<g id="node18" class="node">
<title>32</title>
<ellipse fill="none" stroke="black" cx="952" cy="-169" rx="37.89" ry="18"/>
<text text-anchor="middle" x="952" y="-165.3" font-family="Times,serif" font-size="14.00">M136</text>
</g>
<!-- 16&#45;&gt;32 -->
<g id="edge10" class="edge">
<title>16&#45;&gt;32</title>
<path fill="none" stroke="blue" stroke-width="2" d="M691.1,-281.67C698.91,-277.11 708.04,-272.58 717,-270 756.36,-258.69 866.19,-281.57 901,-260 923.7,-245.94 937.23,-217.85 944.59,-196.78"/>
<polygon fill="blue" stroke="blue" stroke-width="2" points="947.98,-197.68 947.72,-187.09 941.32,-195.53 947.98,-197.68"/>
</g>
<!-- 17 -->
<g id="node6" class="node">
<title>17</title>
<ellipse fill="none" stroke="black" cx="756" cy="-297" rx="29.8" ry="18"/>
<text text-anchor="middle" x="756" y="-293.3" font-family="Times,serif" font-size="14.00">Nan</text>
</g>
<!-- 41 -->
<g id="node14" class="node">
<title>41</title>
<ellipse fill="none" stroke="black" cx="836" cy="-169" rx="40.09" ry="18"/>
<text text-anchor="middle" x="836" y="-165.3" font-family="Times,serif" font-size="14.00">V1897</text>
</g>
<!-- 17&#45;&gt;41 -->
<g id="edge18" class="edge">
<title>17&#45;&gt;41</title>
<path fill="none" stroke="blue" stroke-dasharray="1,5" d="M772.87,-282.12C779.4,-277.48 787.18,-272.79 795,-270 816.66,-262.28 882.54,-277.03 898,-260 908.31,-248.64 880.85,-215.72 859.23,-193.01"/>
<polygon fill="blue" stroke="blue" points="861.66,-190.48 852.18,-185.74 856.63,-195.36 861.66,-190.48"/>
</g>
<!-- 39 -->
<g id="node16" class="node">
<title>39</title>
<ellipse fill="none" stroke="black" cx="975" cy="-42" rx="27.9" ry="18"/>
<text text-anchor="middle" x="975" y="-38.3" font-family="Times,serif" font-size="14.00">Bas</text>
</g>
<!-- 17&#45;&gt;39 -->
<g id="edge17" class="edge">
<title>17&#45;&gt;39</title>
<path fill="none" stroke="blue" d="M772.85,-282.07C779.38,-277.43 787.17,-272.74 795,-270 838.84,-254.66 972.74,-277.08 1002,-241 1042.66,-190.86 1009.95,-109 989.04,-68.02"/>
<polygon fill="blue" stroke="blue" points="992.04,-66.21 984.29,-58.99 985.85,-69.47 992.04,-66.21"/>
<text text-anchor="middle" x="1024.5" y="-166.5" font-family="Times,serif" font-size="10.00">2</text>
</g>
<!-- 38 -->
<g id="node7" class="node">
<title>38</title>
<ellipse fill="none" stroke="black" cx="842" cy="-297" rx="37.89" ry="18"/>
<text text-anchor="middle" x="842" y="-293.3" font-family="Times,serif" font-size="14.00">M111</text>
</g>
<!-- 24 -->
<g id="node20" class="node">
<title>24</title>
<ellipse fill="none" stroke="black" cx="1085" cy="-169" rx="34.39" ry="18"/>
<text text-anchor="middle" x="1085" y="-165.3" font-family="Times,serif" font-size="14.00">A336</text>
</g>
<!-- 38&#45;&gt;24 -->
<g id="edge7" class="edge">
<title>38&#45;&gt;24</title>
<path fill="none" stroke="blue" stroke-dasharray="5,2" d="M878.77,-292.58C926.6,-287.53 1006.9,-276.82 1031,-260 1053.09,-244.59 1067.67,-216.97 1076.05,-196.38"/>
<polygon fill="blue" stroke="blue" points="1079.37,-197.51 1079.68,-186.92 1072.83,-195 1079.37,-197.51"/>
</g>
<!-- 35&#45;&gt;33 -->
<g id="edge13" class="edge">
<title>35&#45;&gt;33</title>
<path fill="none" stroke="blue" stroke-dasharray="5,2" d="M415.81,-187.07C409.92,-203.89 398.49,-227.97 379,-239 348.45,-256.3 331.78,-253.94 300,-239 280.9,-230.02 265.92,-211.32 255.98,-195.5"/>
<polygon fill="blue" stroke="blue" points="258.82,-193.43 250.71,-186.62 252.8,-197 258.82,-193.43"/>
<text text-anchor="middle" x="366" y="-252" font-family="Times,serif" font-size="10.00">2</text>
</g>
<!-- 35&#45;&gt;12 -->
<g id="edge5" class="edge">
<title>35&#45;&gt;12</title>
<path fill="none" stroke="blue" stroke-dasharray="1,5" d="M409.42,-151.91C393.96,-130.44 366.45,-92.23 348.47,-67.26"/>
<polygon fill="blue" stroke="blue" points="351.22,-65.09 342.54,-59.02 345.54,-69.18 351.22,-65.09"/>
<text text-anchor="middle" x="397.5" y="-125" font-family="Times,serif" font-size="10.00">3</text>
</g>
<!-- 36 -->
<g id="node13" class="node">
<title>36</title>
<ellipse fill="none" stroke="black" cx="582" cy="-169" rx="34.39" ry="18"/>
<text text-anchor="middle" x="582" y="-165.3" font-family="Times,serif" font-size="14.00">V568</text>
</g>
<!-- 36&#45;&gt;6 -->
<g id="edge2" class="edge">
<title>36&#45;&gt;6</title>
<path fill="none" stroke="blue" stroke-dasharray="1,5" d="M582,-187.05C582,-207.97 582,-243.71 582,-268.53"/>
<polygon fill="blue" stroke="blue" points="578.5,-268.74 582,-278.74 585.5,-268.74 578.5,-268.74"/>
</g>
<!-- 41&#45;&gt;39 -->
<g id="edge16" class="edge">
<title>41&#45;&gt;39</title>
<path fill="none" stroke="blue" d="M867.2,-157.23C889.17,-148.39 918.09,-134.04 938,-114 950.5,-101.42 959.73,-83.75 965.84,-69.18"/>
<polygon fill="blue" stroke="blue" points="969.17,-70.28 969.58,-59.7 962.66,-67.72 969.17,-70.28"/>
</g>
<!-- 33&#45;&gt;32 -->
<g id="edge11" class="edge">
<title>33&#45;&gt;32</title>
<path fill="none" stroke="blue" stroke-dasharray="5,2" d="M250.71,-186.62C260.2,-203.6 277.15,-228.26 300,-239 330.17,-253.18 870.22,-253.98 900,-239 917.81,-230.04 931.05,-211.78 939.72,-196.16"/>
<polygon fill="blue" stroke="blue" points="943.04,-197.37 944.52,-186.88 936.82,-194.15 943.04,-197.37"/>
<text text-anchor="middle" x="626" y="-252" font-family="Times,serif" font-size="10.00">3</text>
</g>
<!-- 32&#45;&gt;31 -->
<g id="edge9" class="edge">
<title>32&#45;&gt;31</title>
<path fill="none" stroke="blue" stroke-dasharray="5,2" d="M944.52,-186.88C936.36,-203.8 921.51,-228.19 900,-239 855.13,-261.56 830.96,-263.29 787,-239 770.61,-229.95 759.5,-211.95 752.55,-196.47"/>
<polygon fill="blue" stroke="blue" points="755.6,-194.7 748.56,-186.78 749.13,-197.36 755.6,-194.7"/>
<text text-anchor="middle" x="893" y="-252" font-family="Times,serif" font-size="10.00">2</text>
</g>
</g>
</svg>
