<?xml version="1.0" encoding="UTF-8" standalone="no"?>
<!DOCTYPE svg PUBLIC "-//W3C//DTD SVG 1.1//EN"
 "http://www.w3.org/Graphics/SVG/1.1/DTD/svg11.dtd">
<!-- Generated by graphviz version 2.43.0 (0)
 -->
<!-- Title: textual_flow_diagram Pages: 1 -->
<svg width="364pt" height="199pt"
 viewBox="0.00 0.00 364.00 199.00" xmlns="http://www.w3.org/2000/svg" xmlns:xlink="http://www.w3.org/1999/xlink">
<g id="graph0" class="graph" transform="scale(1 1) rotate(0) translate(4 195)">
<title>textual_flow_diagram</title>
<polygon fill="white" stroke="transparent" points="-4,4 -4,-195 360,-195 360,4 -4,4"/>
<g id="clust1" class="cluster">
<title>cluster_legend</title>
<polygon fill="none" stroke="black" points="8,-99 8,-153 164,-153 164,-99 8,-99"/>
</g>
<g id="clust2" class="cluster">
<title>cluster_plot</title>
</g>
<g id="clust3" class="cluster">
<title>cluster_a</title>
<polygon fill="none" stroke="black" points="214,-100 214,-175 306,-175 306,-100 214,-100"/>
<text text-anchor="middle" x="260" y="-159.8" font-family="Times,serif" font-size="14.00">a</text>
</g>
<g id="clust4" class="cluster">
<title>cluster_b</title>
<polygon fill="none" stroke="black" points="180,-16 180,-91 340,-91 340,-16 180,-16"/>
<text text-anchor="middle" x="260" y="-75.8" font-family="Times,serif" font-size="14.00">b</text>
</g>
<!-- label -->
<g id="node1" class="node">
<title>label</title>
<text text-anchor="middle" x="86" y="-129.8" font-family="Times,serif" font-size="14.00">adstag1.2.22U31</text>
<text text-anchor="middle" x="86" y="-114.8" font-family="Times,serif" font-size="14.00">Con = 3</text>
</g>
<!-- 11 -->
<g id="node2" class="node">
<title>11</title>
<ellipse fill="none" stroke="black" cx="260" cy="-126" rx="38.19" ry="18"/>
<text text-anchor="middle" x="260" y="-122.3" font-family="Times,serif" font-size="14.00">aBase</text>
</g>
<!-- 0 -->
<g id="node3" class="node">
<title>0</title>
<ellipse fill="none" stroke="black" cx="303" cy="-42" rx="28.7" ry="18"/>
<text text-anchor="middle" x="303" y="-38.3" font-family="Times,serif" font-size="14.00">A25</text>
</g>
<!-- 11&#45;&gt;0 -->
<g id="edge1" class="edge">
<title>11&#45;&gt;0</title>
<path fill="none" stroke="blue" stroke-dasharray="5,2" d="M268.7,-108.41C274.74,-96.88 282.91,-81.32 289.75,-68.26"/>
<polygon fill="blue" stroke="blue" points="292.91,-69.77 294.46,-59.29 286.71,-66.52 292.91,-69.77"/>
</g>
<!-- 33 -->
<g id="node4" class="node">
<title>33</title>
<ellipse fill="none" stroke="black" cx="222" cy="-42" rx="34.39" ry="18"/>
<text text-anchor="middle" x="222" y="-38.3" font-family="Times,serif" font-size="14.00">V560</text>
</g>
<!-- 11&#45;&gt;33 -->
<g id="edge2" class="edge">
<title>11&#45;&gt;33</title>
<path fill="none" stroke="blue" stroke-width="2" d="M252.13,-108.01C246.89,-96.72 239.93,-81.68 234.01,-68.91"/>
<polygon fill="blue" stroke="blue" stroke-width="2" points="237.11,-67.29 229.73,-59.69 230.76,-70.23 237.11,-67.29"/>
</g>
</g>
</svg>
