<?xml version="1.0" encoding="UTF-8" standalone="no"?>
<!DOCTYPE svg PUBLIC "-//W3C//DTD SVG 1.1//EN"
 "http://www.w3.org/Graphics/SVG/1.1/DTD/svg11.dtd">
<!-- Generated by graphviz version 2.43.0 (0)
 -->
<!-- Title: textual_flow_diagram Pages: 1 -->
<svg width="821pt" height="199pt"
 viewBox="0.00 0.00 821.00 199.00" xmlns="http://www.w3.org/2000/svg" xmlns:xlink="http://www.w3.org/1999/xlink">
<g id="graph0" class="graph" transform="scale(1 1) rotate(0) translate(4 195)">
<title>textual_flow_diagram</title>
<polygon fill="white" stroke="transparent" points="-4,4 -4,-195 817,-195 817,4 -4,4"/>
<g id="clust1" class="cluster">
<title>cluster_legend</title>
<polygon fill="none" stroke="black" points="8,-99 8,-153 164,-153 164,-99 8,-99"/>
</g>
<g id="clust2" class="cluster">
<title>cluster_plot</title>
</g>
<g id="clust3" class="cluster">
<title>cluster_a</title>
<polygon fill="none" stroke="black" points="280,-100 280,-175 631,-175 631,-100 280,-100"/>
<text text-anchor="middle" x="455.5" y="-159.8" font-family="Times,serif" font-size="14.00">a</text>
</g>
<g id="clust4" class="cluster">
<title>cluster_b</title>
<polygon fill="none" stroke="black" points="180,-16 180,-91 797,-91 797,-16 180,-16"/>
<text text-anchor="middle" x="488.5" y="-75.8" font-family="Times,serif" font-size="14.00">b</text>
</g>
<!-- label -->
<g id="node1" class="node">
<title>label</title>
<text text-anchor="middle" x="86" y="-129.8" font-family="Times,serif" font-size="14.00">adstag1.2.40U10</text>
<text text-anchor="middle" x="86" y="-114.8" font-family="Times,serif" font-size="14.00">Con = 1</text>
</g>
<!-- 0 -->
<g id="node2" class="node">
<title>0</title>
<ellipse fill="none" stroke="black" cx="589" cy="-126" rx="34.39" ry="18"/>
<text text-anchor="middle" x="589" y="-122.3" font-family="Times,serif" font-size="14.00">V536</text>
</g>
<!-- 32 -->
<g id="node10" class="node">
<title>32</title>
<ellipse fill="none" stroke="black" cx="755" cy="-42" rx="34.39" ry="18"/>
<text text-anchor="middle" x="755" y="-38.3" font-family="Times,serif" font-size="14.00">V568</text>
</g>
<!-- 0&#45;&gt;32 -->
<g id="edge5" class="edge">
<title>0&#45;&gt;32</title>
<path fill="none" stroke="blue" stroke-dasharray="1,5" d="M622.06,-120.86C647.8,-116.49 683.64,-107.79 711,-91 720.93,-84.91 730,-75.94 737.29,-67.4"/>
<polygon fill="blue" stroke="blue" points="740.14,-69.43 743.7,-59.45 734.69,-65.04 740.14,-69.43"/>
</g>
<!-- 13 -->
<g id="node3" class="node">
<title>13</title>
<ellipse fill="none" stroke="black" cx="509" cy="-126" rx="27.9" ry="18"/>
<text text-anchor="middle" x="509" y="-122.3" font-family="Times,serif" font-size="14.00">Bas</text>
</g>
<!-- 28 -->
<g id="node4" class="node">
<title>28</title>
<ellipse fill="none" stroke="black" cx="425" cy="-126" rx="38.19" ry="18"/>
<text text-anchor="middle" x="425" y="-122.3" font-family="Times,serif" font-size="14.00">aBase</text>
</g>
<!-- 10 -->
<g id="node8" class="node">
<title>10</title>
<ellipse fill="none" stroke="black" cx="467" cy="-42" rx="37.89" ry="18"/>
<text text-anchor="middle" x="467" y="-38.3" font-family="Times,serif" font-size="14.00">M136</text>
</g>
<!-- 28&#45;&gt;10 -->
<g id="edge2" class="edge">
<title>28&#45;&gt;10</title>
<path fill="none" stroke="blue" stroke-width="2" d="M433.5,-108.41C439.36,-96.96 447.27,-81.52 453.93,-68.52"/>
<polygon fill="blue" stroke="blue" stroke-width="2" points="457.07,-70.07 458.51,-59.57 450.84,-66.87 457.07,-70.07"/>
</g>
<!-- 25 -->
<g id="node9" class="node">
<title>25</title>
<ellipse fill="none" stroke="black" cx="383" cy="-42" rx="28.7" ry="18"/>
<text text-anchor="middle" x="383" y="-38.3" font-family="Times,serif" font-size="14.00">A25</text>
</g>
<!-- 28&#45;&gt;25 -->
<g id="edge4" class="edge">
<title>28&#45;&gt;25</title>
<path fill="none" stroke="blue" stroke-dasharray="5,2" d="M416.5,-108.41C410.6,-96.88 402.62,-81.32 395.94,-68.26"/>
<polygon fill="blue" stroke="blue" points="399.02,-66.59 391.34,-59.29 392.79,-69.79 399.02,-66.59"/>
</g>
<!-- 37 -->
<g id="node11" class="node">
<title>37</title>
<ellipse fill="none" stroke="black" cx="218" cy="-42" rx="29.8" ry="18"/>
<text text-anchor="middle" x="218" y="-38.3" font-family="Times,serif" font-size="14.00">Nan</text>
</g>
<!-- 28&#45;&gt;37 -->
<g id="edge6" class="edge">
<title>28&#45;&gt;37</title>
<path fill="none" stroke="blue" d="M403.39,-110.74C395.42,-106.18 386.1,-101.63 377,-99 351.33,-91.58 280.74,-103.28 257,-91 246.99,-85.82 238.63,-76.81 232.25,-67.99"/>
<polygon fill="blue" stroke="blue" points="234.98,-65.78 226.54,-59.38 229.15,-69.65 234.98,-65.78"/>
</g>
<!-- 40 -->
<g id="node12" class="node">
<title>40</title>
<ellipse fill="none" stroke="black" cx="301" cy="-42" rx="35.19" ry="18"/>
<text text-anchor="middle" x="301" y="-38.3" font-family="Times,serif" font-size="14.00">Neap</text>
</g>
<!-- 28&#45;&gt;40 -->
<g id="edge8" class="edge">
<title>28&#45;&gt;40</title>
<path fill="none" stroke="blue" stroke-width="2" d="M402.61,-111.36C394.72,-106.96 385.66,-102.36 377,-99 363.34,-93.69 357.6,-98.5 345,-91 334.99,-85.04 325.91,-76.1 318.63,-67.54"/>
<polygon fill="blue" stroke="blue" stroke-width="2" points="321.22,-65.18 312.23,-59.57 315.76,-69.56 321.22,-65.18"/>
</g>
<!-- 39 -->
<g id="node5" class="node">
<title>39</title>
<ellipse fill="none" stroke="black" cx="328" cy="-126" rx="40.09" ry="18"/>
<text text-anchor="middle" x="328" y="-122.3" font-family="Times,serif" font-size="14.00">V2250</text>
</g>
<!-- 6 -->
<g id="node6" class="node">
<title>6</title>
<ellipse fill="none" stroke="black" cx="563" cy="-42" rx="40.09" ry="18"/>
<text text-anchor="middle" x="563" y="-38.3" font-family="Times,serif" font-size="14.00">V1897</text>
</g>
<!-- 6&#45;&gt;13 -->
<g id="edge3" class="edge">
<title>6&#45;&gt;13</title>
<path fill="none" stroke="blue" d="M552.06,-59.61C544.32,-71.37 533.79,-87.35 525.09,-100.57"/>
<polygon fill="blue" stroke="blue" points="521.99,-98.91 519.41,-109.19 527.83,-102.76 521.99,-98.91"/>
</g>
<!-- 8 -->
<g id="node7" class="node">
<title>8</title>
<ellipse fill="none" stroke="black" cx="662" cy="-42" rx="40.09" ry="18"/>
<text text-anchor="middle" x="662" y="-38.3" font-family="Times,serif" font-size="14.00">V1629</text>
</g>
<!-- 8&#45;&gt;0 -->
<g id="edge1" class="edge">
<title>8&#45;&gt;0</title>
<path fill="none" stroke="blue" stroke-dasharray="5,2" d="M647.72,-59.04C636.93,-71.16 621.96,-87.98 609.83,-101.6"/>
<polygon fill="blue" stroke="blue" points="607.11,-99.39 603.08,-109.19 612.34,-104.05 607.11,-99.39"/>
</g>
<!-- 37&#45;&gt;39 -->
<g id="edge7" class="edge">
<title>37&#45;&gt;39</title>
<path fill="none" stroke="blue" stroke-dasharray="5,2" d="M228.43,-59.25C235.54,-69.36 245.7,-82.09 257,-91 266.38,-98.39 277.63,-104.7 288.38,-109.8"/>
<polygon fill="blue" stroke="blue" points="287.09,-113.06 297.64,-113.97 289.96,-106.68 287.09,-113.06"/>
</g>
</g>
</svg>
