<?xml version="1.0" encoding="UTF-8" standalone="no"?>
<!DOCTYPE svg PUBLIC "-//W3C//DTD SVG 1.1//EN"
 "http://www.w3.org/Graphics/SVG/1.1/DTD/svg11.dtd">
<!-- Generated by graphviz version 2.43.0 (0)
 -->
<!-- Title: textual_flow_diagram Pages: 1 -->
<svg width="1048pt" height="531pt"
 viewBox="0.00 0.00 1048.00 531.00" xmlns="http://www.w3.org/2000/svg" xmlns:xlink="http://www.w3.org/1999/xlink">
<g id="graph0" class="graph" transform="scale(1 1) rotate(0) translate(4 527)">
<title>textual_flow_diagram</title>
<polygon fill="white" stroke="transparent" points="-4,4 -4,-527 1044,-527 1044,4 -4,4"/>
<g id="clust1" class="cluster">
<title>cluster_legend</title>
<polygon fill="none" stroke="black" points="8,-431 8,-485 186,-485 186,-431 8,-431"/>
</g>
<g id="clust2" class="cluster">
<title>cluster_plot</title>
</g>
<g id="clust3" class="cluster">
<title>cluster_a</title>
<polygon fill="none" stroke="black" points="468,-348 468,-423 868,-423 868,-348 468,-348"/>
<text text-anchor="middle" x="668" y="-407.8" font-family="Times,serif" font-size="14.00">a</text>
</g>
<g id="clust4" class="cluster">
<title>cluster_b</title>
<polygon fill="none" stroke="black" points="434,-182 434,-257 1012,-257 1012,-182 434,-182"/>
<text text-anchor="middle" x="723" y="-241.8" font-family="Times,serif" font-size="14.00">b</text>
</g>
<g id="clust5" class="cluster">
<title>cluster_c</title>
<polygon fill="none" stroke="black" points="880,-265 880,-340 952,-340 952,-265 880,-265"/>
<text text-anchor="middle" x="916" y="-324.8" font-family="Times,serif" font-size="14.00">c</text>
</g>
<g id="clust6" class="cluster">
<title>cluster_d</title>
<polygon fill="none" stroke="black" points="926,-432 926,-507 1000,-507 1000,-432 926,-432"/>
<text text-anchor="middle" x="963" y="-491.8" font-family="Times,serif" font-size="14.00">d</text>
</g>
<g id="clust7" class="cluster">
<title>cluster_e</title>
<polygon fill="none" stroke="black" points="847,-16 847,-91 921,-91 921,-16 847,-16"/>
<text text-anchor="middle" x="884" y="-75.8" font-family="Times,serif" font-size="14.00">e</text>
</g>
<g id="clust8" class="cluster">
<title>cluster_f</title>
<polygon fill="none" stroke="black" points="202,-265 202,-340 376,-340 376,-265 202,-265"/>
<text text-anchor="middle" x="289" y="-324.8" font-family="Times,serif" font-size="14.00">f</text>
</g>
<g id="clust9" class="cluster">
<title>cluster_g</title>
<polygon fill="none" stroke="black" points="224,-182 224,-257 320,-257 320,-182 224,-182"/>
<text text-anchor="middle" x="272" y="-241.8" font-family="Times,serif" font-size="14.00">g</text>
</g>
<g id="clust10" class="cluster">
<title>cluster_h</title>
<polygon fill="none" stroke="black" points="838,-99 838,-174 1016,-174 1016,-99 838,-99"/>
<text text-anchor="middle" x="927" y="-158.8" font-family="Times,serif" font-size="14.00">h</text>
</g>
<g id="clust11" class="cluster">
<title>cluster_i</title>
<polygon fill="none" stroke="black" points="398,-265 398,-340 838,-340 838,-265 398,-265"/>
<text text-anchor="middle" x="618" y="-324.8" font-family="Times,serif" font-size="14.00">i</text>
</g>
<g id="clust12" class="cluster">
<title>cluster_j</title>
<polygon fill="none" stroke="black" points="342,-182 342,-257 426,-257 426,-182 342,-182"/>
<text text-anchor="middle" x="384" y="-241.8" font-family="Times,serif" font-size="14.00">j</text>
</g>
<!-- label -->
<g id="node1" class="node">
<title>label</title>
<text text-anchor="middle" x="97" y="-461.8" font-family="Times,serif" font-size="14.00">adstag1.2.40U48&#45;50</text>
<text text-anchor="middle" x="97" y="-446.8" font-family="Times,serif" font-size="14.00">Con = 1</text>
</g>
<!-- 0 -->
<g id="node2" class="node">
<title>0</title>
<ellipse fill="none" stroke="black" cx="660" cy="-374" rx="34.39" ry="18"/>
<text text-anchor="middle" x="660" y="-370.3" font-family="Times,serif" font-size="14.00">V536</text>
</g>
<!-- 32 -->
<g id="node24" class="node">
<title>32</title>
<ellipse fill="none" stroke="black" cx="440" cy="-291" rx="34.39" ry="18"/>
<text text-anchor="middle" x="440" y="-287.3" font-family="Times,serif" font-size="14.00">V568</text>
</g>
<!-- 0&#45;&gt;32 -->
<g id="edge17" class="edge">
<title>0&#45;&gt;32</title>
<path fill="none" stroke="blue" stroke-dasharray="1,5" d="M640.34,-358.98C633.3,-354.68 625.1,-350.45 617,-348 588.44,-339.38 509.86,-352.97 483,-340 472.2,-334.78 462.91,-325.52 455.75,-316.51"/>
<polygon fill="blue" stroke="blue" points="458.55,-314.41 449.8,-308.44 452.91,-318.56 458.55,-314.41"/>
</g>
<!-- 13 -->
<g id="node3" class="node">
<title>13</title>
<ellipse fill="none" stroke="black" cx="504" cy="-374" rx="27.9" ry="18"/>
<text text-anchor="middle" x="504" y="-370.3" font-family="Times,serif" font-size="14.00">Bas</text>
</g>
<!-- 20 -->
<g id="node4" class="node">
<title>20</title>
<ellipse fill="none" stroke="black" cx="739" cy="-374" rx="27" ry="18"/>
<text text-anchor="middle" x="739" y="-370.3" font-family="Times,serif" font-size="14.00">Pal</text>
</g>
<!-- 28 -->
<g id="node5" class="node">
<title>28</title>
<ellipse fill="none" stroke="black" cx="822" cy="-374" rx="38.19" ry="18"/>
<text text-anchor="middle" x="822" y="-370.3" font-family="Times,serif" font-size="14.00">aBase</text>
</g>
<!-- 10 -->
<g id="node8" class="node">
<title>10</title>
<ellipse fill="none" stroke="black" cx="632" cy="-208" rx="37.89" ry="18"/>
<text text-anchor="middle" x="632" y="-204.3" font-family="Times,serif" font-size="14.00">M136</text>
</g>
<!-- 28&#45;&gt;10 -->
<g id="edge6" class="edge">
<title>28&#45;&gt;10</title>
<path fill="none" stroke="blue" stroke-width="2" d="M834.28,-356.69C837.42,-351.61 840.38,-345.81 842,-340 846.48,-323.95 853.49,-277.07 842,-265 829.5,-251.87 695.54,-264.43 679,-257 667.48,-251.82 657.3,-242.44 649.38,-233.33"/>
<polygon fill="blue" stroke="blue" stroke-width="2" points="652.05,-231.07 643.03,-225.51 646.62,-235.48 652.05,-231.07"/>
</g>
<!-- 14 -->
<g id="node10" class="node">
<title>14</title>
<ellipse fill="none" stroke="black" cx="722" cy="-208" rx="34.39" ry="18"/>
<text text-anchor="middle" x="722" y="-204.3" font-family="Times,serif" font-size="14.00">V560</text>
</g>
<!-- 28&#45;&gt;14 -->
<g id="edge10" class="edge">
<title>28&#45;&gt;14</title>
<path fill="none" stroke="blue" stroke-width="2" d="M841.18,-358.1C846.33,-352.98 851.24,-346.8 854,-340 866.52,-309.11 876.49,-289.6 854,-265 840.6,-250.34 782.75,-265.9 765,-257 754.28,-251.62 745,-242.33 737.83,-233.35"/>
<polygon fill="blue" stroke="blue" stroke-width="2" points="740.63,-231.25 731.86,-225.31 735.01,-235.42 740.63,-231.25"/>
</g>
<!-- 36 -->
<g id="node14" class="node">
<title>36</title>
<ellipse fill="none" stroke="black" cx="916" cy="-291" rx="27.9" ry="18"/>
<text text-anchor="middle" x="916" y="-287.3" font-family="Times,serif" font-size="14.00">La2</text>
</g>
<!-- 28&#45;&gt;36 -->
<g id="edge19" class="edge">
<title>28&#45;&gt;36</title>
<path fill="none" stroke="blue" stroke-width="2" d="M846.04,-359.73C855.2,-354.17 865.48,-347.31 874,-340 882.45,-332.76 890.74,-323.8 897.69,-315.6"/>
<polygon fill="blue" stroke="blue" stroke-width="2" points="900.51,-317.68 904.15,-307.73 895.1,-313.24 900.51,-317.68"/>
</g>
<!-- 25 -->
<g id="node15" class="node">
<title>25</title>
<ellipse fill="none" stroke="black" cx="963" cy="-458" rx="28.7" ry="18"/>
<text text-anchor="middle" x="963" y="-454.3" font-family="Times,serif" font-size="14.00">A25</text>
</g>
<!-- 28&#45;&gt;25 -->
<g id="edge14" class="edge">
<title>28&#45;&gt;25</title>
<path fill="none" stroke="blue" stroke-dasharray="5,2" d="M845.45,-388.64C869.79,-402.79 907.89,-424.95 934.07,-440.18"/>
<polygon fill="blue" stroke="blue" points="932.39,-443.25 942.8,-445.25 935.91,-437.2 932.39,-443.25"/>
</g>
<!-- 37 -->
<g id="node18" class="node">
<title>37</title>
<ellipse fill="none" stroke="black" cx="338" cy="-291" rx="29.8" ry="18"/>
<text text-anchor="middle" x="338" y="-287.3" font-family="Times,serif" font-size="14.00">Nan</text>
</g>
<!-- 28&#45;&gt;37 -->
<g id="edge20" class="edge">
<title>28&#45;&gt;37</title>
<path fill="none" stroke="blue" d="M800.41,-358.79C792.71,-354.48 783.77,-350.28 775,-348 732.73,-337 421.8,-357.99 382,-340 370.8,-334.94 361.18,-325.52 353.81,-316.35"/>
<polygon fill="blue" stroke="blue" points="356.48,-314.08 347.7,-308.14 350.87,-318.26 356.48,-314.08"/>
</g>
<!-- 9 -->
<g id="node20" class="node">
<title>9</title>
<ellipse fill="none" stroke="black" cx="884" cy="-125" rx="37.89" ry="18"/>
<text text-anchor="middle" x="884" y="-121.3" font-family="Times,serif" font-size="14.00">LaSM</text>
</g>
<!-- 28&#45;&gt;9 -->
<g id="edge4" class="edge">
<title>28&#45;&gt;9</title>
<path fill="none" stroke="blue" d="M800.41,-358.8C792.71,-354.48 783.76,-350.28 775,-348 754.51,-342.66 410.14,-353.7 394,-340 368.14,-318.06 403.93,-289.02 380,-265 366.59,-251.54 350.11,-271.64 338,-257 327.37,-244.16 326.83,-194.37 338,-182 371.11,-145.32 709,-131.32 836.05,-127.32"/>
<polygon fill="blue" stroke="blue" points="836.37,-130.81 846.26,-127.01 836.15,-123.82 836.37,-130.81"/>
</g>
<!-- 40 -->
<g id="node26" class="node">
<title>40</title>
<ellipse fill="none" stroke="black" cx="795" cy="-291" rx="35.19" ry="18"/>
<text text-anchor="middle" x="795" y="-287.3" font-family="Times,serif" font-size="14.00">Neap</text>
</g>
<!-- 28&#45;&gt;40 -->
<g id="edge22" class="edge">
<title>28&#45;&gt;40</title>
<path fill="none" stroke="blue" stroke-width="2" d="M816.27,-355.82C812.67,-345.01 807.95,-330.84 803.86,-318.59"/>
<polygon fill="blue" stroke="blue" stroke-width="2" points="807.11,-317.26 800.63,-308.88 800.47,-319.47 807.11,-317.26"/>
</g>
<!-- 31 -->
<g id="node6" class="node">
<title>31</title>
<ellipse fill="none" stroke="black" cx="579" cy="-374" rx="28.7" ry="18"/>
<text text-anchor="middle" x="579" y="-370.3" font-family="Times,serif" font-size="14.00">P01</text>
</g>
<!-- 3 -->
<g id="node7" class="node">
<title>3</title>
<ellipse fill="none" stroke="black" cx="803" cy="-208" rx="28.7" ry="18"/>
<text text-anchor="middle" x="803" y="-204.3" font-family="Times,serif" font-size="14.00">S32</text>
</g>
<!-- 12 -->
<g id="node9" class="node">
<title>12</title>
<ellipse fill="none" stroke="black" cx="469" cy="-208" rx="27" ry="18"/>
<text text-anchor="middle" x="469" y="-204.3" font-family="Times,serif" font-size="14.00">Sin</text>
</g>
<!-- 11 -->
<g id="node23" class="node">
<title>11</title>
<ellipse fill="none" stroke="black" cx="707" cy="-291" rx="34.39" ry="18"/>
<text text-anchor="middle" x="707" y="-287.3" font-family="Times,serif" font-size="14.00">Marc</text>
</g>
<!-- 12&#45;&gt;11 -->
<g id="edge7" class="edge">
<title>12&#45;&gt;11</title>
<path fill="none" stroke="blue" stroke-dasharray="1,5" d="M476.55,-225.42C482.57,-236.44 492.13,-250.15 505,-257 536.04,-273.51 629.25,-255.16 663,-265 668.14,-266.5 673.33,-268.7 678.24,-271.18"/>
<polygon fill="blue" stroke="blue" points="676.85,-274.41 687.29,-276.2 680.25,-268.29 676.85,-274.41"/>
</g>
<!-- 30 -->
<g id="node11" class="node">
<title>30</title>
<ellipse fill="none" stroke="black" cx="545" cy="-208" rx="31.4" ry="18"/>
<text text-anchor="middle" x="545" y="-204.3" font-family="Times,serif" font-size="14.00">Mon</text>
</g>
<!-- 35 -->
<g id="node12" class="node">
<title>35</title>
<ellipse fill="none" stroke="black" cx="884" cy="-208" rx="34.39" ry="18"/>
<text text-anchor="middle" x="884" y="-204.3" font-family="Times,serif" font-size="14.00">Patm</text>
</g>
<!-- 35&#45;&gt;9 -->
<g id="edge5" class="edge">
<title>35&#45;&gt;9</title>
<path fill="none" stroke="blue" stroke-dasharray="5,2" d="M884,-189.82C884,-179.19 884,-165.31 884,-153.2"/>
<polygon fill="blue" stroke="blue" points="887.5,-153.15 884,-143.15 880.5,-153.15 887.5,-153.15"/>
</g>
<!-- 41 -->
<g id="node13" class="node">
<title>41</title>
<ellipse fill="none" stroke="black" cx="970" cy="-208" rx="33.6" ry="18"/>
<text text-anchor="middle" x="970" y="-204.3" font-family="Times,serif" font-size="14.00">La22</text>
</g>
<!-- 25&#45;&gt;20 -->
<g id="edge12" class="edge">
<title>25&#45;&gt;20</title>
<path fill="none" stroke="blue" stroke-dasharray="5,2" d="M934.77,-454.44C889.07,-449.87 801.32,-439.25 775,-423 765.92,-417.4 758.35,-408.59 752.52,-400.05"/>
<polygon fill="blue" stroke="blue" points="755.37,-398 747.1,-391.38 749.44,-401.71 755.37,-398"/>
</g>
<!-- 25&#45;&gt;31 -->
<g id="edge16" class="edge">
<title>25&#45;&gt;31</title>
<path fill="none" stroke="blue" stroke-dasharray="5,2" d="M934.27,-457.02C861.43,-456.63 671.44,-452.71 617,-423 607.2,-417.65 599.05,-408.62 592.84,-399.82"/>
<polygon fill="blue" stroke="blue" points="595.66,-397.74 587.29,-391.24 589.79,-401.54 595.66,-397.74"/>
</g>
<!-- 25&#45;&gt;3 -->
<g id="edge3" class="edge">
<title>25&#45;&gt;3</title>
<path fill="none" stroke="blue" stroke-dasharray="5,2" d="M963.65,-439.95C965.17,-395.28 968,-277.41 956,-265 938.19,-246.59 863.66,-268.95 841,-257 831.13,-251.79 822.96,-242.78 816.76,-233.97"/>
<polygon fill="blue" stroke="blue" points="819.58,-231.88 811.23,-225.36 813.69,-235.66 819.58,-231.88"/>
</g>
<!-- 25&#45;&gt;35 -->
<g id="edge18" class="edge">
<title>25&#45;&gt;35</title>
<path fill="none" stroke="blue" stroke-dasharray="1,5" d="M966.16,-440.01C973.53,-398.11 989.68,-291.32 968,-265 956.2,-250.67 943.14,-266.17 927,-257 916.83,-251.22 907.79,-242.15 900.66,-233.45"/>
<polygon fill="blue" stroke="blue" points="903.29,-231.14 894.43,-225.33 897.74,-235.4 903.29,-231.14"/>
</g>
<!-- 25&#45;&gt;41 -->
<g id="edge23" class="edge">
<title>25&#45;&gt;41</title>
<path fill="none" stroke="blue" stroke-dasharray="1,5" d="M976.99,-442.27C981.4,-436.67 985.72,-429.96 988,-423 1009.89,-356.28 998.88,-334.37 988,-265 986.44,-255.07 983.42,-244.5 980.3,-235.25"/>
<polygon fill="blue" stroke="blue" points="983.59,-234.06 976.92,-225.82 977,-236.42 983.59,-234.06"/>
</g>
<!-- 15 -->
<g id="node21" class="node">
<title>15</title>
<ellipse fill="none" stroke="black" cx="974" cy="-125" rx="34.39" ry="18"/>
<text text-anchor="middle" x="974" y="-121.3" font-family="Times,serif" font-size="14.00">V566</text>
</g>
<!-- 25&#45;&gt;15 -->
<g id="edge11" class="edge">
<title>25&#45;&gt;15</title>
<path fill="none" stroke="blue" stroke-dasharray="5,2" d="M981.44,-444.08C988.11,-438.41 994.97,-431.17 999,-423 1046.48,-326.69 1049.96,-283.87 1016,-182 1012.02,-170.05 1004.38,-158.6 996.69,-149.2"/>
<polygon fill="blue" stroke="blue" points="999.21,-146.77 990.02,-141.51 993.93,-151.35 999.21,-146.77"/>
</g>
<!-- 1 -->
<g id="node16" class="node">
<title>1</title>
<ellipse fill="none" stroke="black" cx="884" cy="-42" rx="29.5" ry="18"/>
<text text-anchor="middle" x="884" y="-38.3" font-family="Times,serif" font-size="14.00">B39</text>
</g>
<!-- 6 -->
<g id="node17" class="node">
<title>6</title>
<ellipse fill="none" stroke="black" cx="250" cy="-291" rx="40.09" ry="18"/>
<text text-anchor="middle" x="250" y="-287.3" font-family="Times,serif" font-size="14.00">V1897</text>
</g>
<!-- 6&#45;&gt;13 -->
<g id="edge9" class="edge">
<title>6&#45;&gt;13</title>
<path fill="none" stroke="blue" d="M262.28,-308.47C271.24,-319.23 284.33,-332.6 299,-340 352.52,-367.01 423.01,-372.85 465.84,-373.63"/>
<polygon fill="blue" stroke="blue" points="465.81,-377.13 475.84,-373.73 465.88,-370.13 465.81,-377.13"/>
</g>
<!-- 39 -->
<g id="node19" class="node">
<title>39</title>
<ellipse fill="none" stroke="black" cx="272" cy="-208" rx="40.09" ry="18"/>
<text text-anchor="middle" x="272" y="-204.3" font-family="Times,serif" font-size="14.00">V2250</text>
</g>
<!-- 37&#45;&gt;39 -->
<g id="edge21" class="edge">
<title>37&#45;&gt;39</title>
<path fill="none" stroke="blue" stroke-dasharray="5,2" d="M325.27,-274.38C315.72,-262.66 302.46,-246.39 291.57,-233.01"/>
<polygon fill="blue" stroke="blue" points="294.17,-230.67 285.14,-225.12 288.74,-235.09 294.17,-230.67"/>
</g>
<!-- 9&#45;&gt;1 -->
<g id="edge2" class="edge">
<title>9&#45;&gt;1</title>
<path fill="none" stroke="blue" stroke-dasharray="5,2" d="M884,-106.82C884,-96.19 884,-82.31 884,-70.2"/>
<polygon fill="blue" stroke="blue" points="887.5,-70.15 884,-60.15 880.5,-70.15 887.5,-70.15"/>
</g>
<!-- 8 -->
<g id="node22" class="node">
<title>8</title>
<ellipse fill="none" stroke="black" cx="614" cy="-291" rx="40.09" ry="18"/>
<text text-anchor="middle" x="614" y="-287.3" font-family="Times,serif" font-size="14.00">V1629</text>
</g>
<!-- 8&#45;&gt;0 -->
<g id="edge1" class="edge">
<title>8&#45;&gt;0</title>
<path fill="none" stroke="blue" stroke-dasharray="5,2" d="M623.45,-308.65C629.87,-319.94 638.46,-335.07 645.71,-347.83"/>
<polygon fill="blue" stroke="blue" points="642.71,-349.64 650.69,-356.61 648.8,-346.18 642.71,-349.64"/>
</g>
<!-- 11&#45;&gt;30 -->
<g id="edge15" class="edge">
<title>11&#45;&gt;30</title>
<path fill="none" stroke="blue" stroke-dasharray="1,5" d="M686.78,-276.18C679.57,-271.9 671.2,-267.62 663,-265 629.81,-254.39 615.76,-273.37 585,-257 575.09,-251.72 566.65,-242.87 560.12,-234.19"/>
<polygon fill="blue" stroke="blue" points="562.81,-231.93 554.24,-225.71 557.06,-235.92 562.81,-231.93"/>
</g>
<!-- 38 -->
<g id="node25" class="node">
<title>38</title>
<ellipse fill="none" stroke="black" cx="524" cy="-291" rx="31.7" ry="18"/>
<text text-anchor="middle" x="524" y="-287.3" font-family="Times,serif" font-size="14.00">Taur</text>
</g>
<!-- 38&#45;&gt;12 -->
<g id="edge8" class="edge">
<title>38&#45;&gt;12</title>
<path fill="none" stroke="blue" stroke-dasharray="1,5" d="M513.13,-274C505.25,-262.38 494.44,-246.47 485.49,-233.29"/>
<polygon fill="blue" stroke="blue" points="488.17,-231 479.66,-224.69 482.38,-234.93 488.17,-231"/>
</g>
<!-- 24 -->
<g id="node27" class="node">
<title>24</title>
<ellipse fill="none" stroke="black" cx="384" cy="-208" rx="34.39" ry="18"/>
<text text-anchor="middle" x="384" y="-204.3" font-family="Times,serif" font-size="14.00">V569</text>
</g>
<!-- 38&#45;&gt;24 -->
<g id="edge13" class="edge">
<title>38&#45;&gt;24</title>
<path fill="none" stroke="blue" stroke-dasharray="5,2" d="M505.2,-276.38C498.49,-272.11 490.68,-267.79 483,-265 460.61,-256.86 451.15,-267.96 430,-257 419.17,-251.39 409.45,-242.23 401.76,-233.41"/>
<polygon fill="blue" stroke="blue" points="404.34,-231.04 395.3,-225.52 398.92,-235.48 404.34,-231.04"/>
</g>
</g>
</svg>
