<?xml version="1.0" encoding="UTF-8" standalone="no"?>
<!DOCTYPE svg PUBLIC "-//W3C//DTD SVG 1.1//EN"
 "http://www.w3.org/Graphics/SVG/1.1/DTD/svg11.dtd">
<!-- Generated by graphviz version 2.43.0 (0)
 -->
<!-- Title: textual_flow_diagram Pages: 1 -->
<svg width="618pt" height="418pt"
 viewBox="0.00 0.00 618.00 418.00" xmlns="http://www.w3.org/2000/svg" xmlns:xlink="http://www.w3.org/1999/xlink">
<g id="graph0" class="graph" transform="scale(1 1) rotate(0) translate(4 414)">
<title>textual_flow_diagram</title>
<polygon fill="white" stroke="transparent" points="-4,4 -4,-414 614,-414 614,4 -4,4"/>
<g id="clust1" class="cluster">
<title>cluster_legend</title>
<polygon fill="none" stroke="black" points="8,-318 8,-372 186,-372 186,-318 8,-318"/>
</g>
<g id="clust2" class="cluster">
<title>cluster_plot</title>
</g>
<g id="clust3" class="cluster">
<title>cluster_a</title>
<polygon fill="none" stroke="black" points="467,-224 467,-299 559,-299 559,-224 467,-224"/>
<text text-anchor="middle" x="513" y="-283.8" font-family="Times,serif" font-size="14.00">a</text>
</g>
<g id="clust4" class="cluster">
<title>cluster_ar1</title>
<polygon fill="none" stroke="black" points="336,-319 336,-394 487,-394 487,-319 336,-319"/>
<text text-anchor="middle" x="411.5" y="-378.8" font-family="Times,serif" font-size="14.00">ar1</text>
</g>
<g id="clust5" class="cluster">
<title>cluster_ar2</title>
<polygon fill="none" stroke="black" points="234,-224 234,-299 318,-299 318,-224 234,-224"/>
<text text-anchor="middle" x="276" y="-283.8" font-family="Times,serif" font-size="14.00">ar2</text>
</g>
<g id="clust7" class="cluster">
<title>cluster_b</title>
<polygon fill="none" stroke="black" points="326,-224 326,-299 422,-299 422,-224 326,-224"/>
<text text-anchor="middle" x="374" y="-283.8" font-family="Times,serif" font-size="14.00">b</text>
</g>
<g id="clust8" class="cluster">
<title>cluster_br1</title>
<polygon fill="none" stroke="black" points="500,-120 500,-195 572,-195 572,-120 500,-120"/>
<text text-anchor="middle" x="536" y="-179.8" font-family="Times,serif" font-size="14.00">br1</text>
</g>
<g id="clust9" class="cluster">
<title>cluster_c</title>
<polygon fill="none" stroke="black" points="268,-16 268,-91 340,-91 340,-16 268,-16"/>
<text text-anchor="middle" x="304" y="-75.8" font-family="Times,serif" font-size="14.00">c</text>
</g>
<g id="clust10" class="cluster">
<title>cluster_d</title>
<polygon fill="none" stroke="black" points="256,-120 256,-195 446,-195 446,-120 256,-120"/>
<text text-anchor="middle" x="351" y="-179.8" font-family="Times,serif" font-size="14.00">d</text>
</g>
<!-- label -->
<g id="node1" class="node">
<title>label</title>
<text text-anchor="middle" x="97" y="-348.8" font-family="Times,serif" font-size="14.00">adstag1.3.47U54&#45;60</text>
<text text-anchor="middle" x="97" y="-333.8" font-family="Times,serif" font-size="14.00">Con = 5</text>
</g>
<!-- 2 -->
<g id="node2" class="node">
<title>2</title>
<ellipse fill="none" stroke="black" cx="513" cy="-250" rx="38.19" ry="18"/>
<text text-anchor="middle" x="513" y="-246.3" font-family="Times,serif" font-size="14.00">aBase</text>
</g>
<!-- 14 -->
<g id="node7" class="node">
<title>14</title>
<ellipse fill="none" stroke="black" cx="536" cy="-146" rx="27.9" ry="18"/>
<text text-anchor="middle" x="536" y="-142.3" font-family="Times,serif" font-size="14.00">La2</text>
</g>
<!-- 2&#45;&gt;14 -->
<g id="edge3" class="edge">
<title>2&#45;&gt;14</title>
<path fill="none" stroke="blue" stroke-width="2" d="M516.9,-231.7C520.48,-215.85 525.82,-192.14 529.95,-173.84"/>
<polygon fill="blue" stroke="blue" stroke-width="2" points="533.37,-174.57 532.16,-164.05 526.54,-173.03 533.37,-174.57"/>
</g>
<!-- 30 -->
<g id="node10" class="node">
<title>30</title>
<ellipse fill="none" stroke="black" cx="400" cy="-146" rx="37.89" ry="18"/>
<text text-anchor="middle" x="400" y="-142.3" font-family="Times,serif" font-size="14.00">M136</text>
</g>
<!-- 2&#45;&gt;30 -->
<g id="edge8" class="edge">
<title>2&#45;&gt;30</title>
<path fill="none" stroke="blue" stroke-width="2" d="M495.84,-233.51C476.81,-216.33 445.97,-188.5 424.43,-169.05"/>
<polygon fill="blue" stroke="blue" stroke-width="2" points="426.72,-166.41 416.95,-162.3 422.03,-171.6 426.72,-166.41"/>
</g>
<!-- 9 -->
<g id="node3" class="node">
<title>9</title>
<ellipse fill="none" stroke="black" cx="374" cy="-345" rx="29.8" ry="18"/>
<text text-anchor="middle" x="374" y="-341.3" font-family="Times,serif" font-size="14.00">Nan</text>
</g>
<!-- 32 -->
<g id="node6" class="node">
<title>32</title>
<ellipse fill="none" stroke="black" cx="374" cy="-250" rx="40.09" ry="18"/>
<text text-anchor="middle" x="374" y="-246.3" font-family="Times,serif" font-size="14.00">V1897</text>
</g>
<!-- 9&#45;&gt;32 -->
<g id="edge11" class="edge">
<title>9&#45;&gt;32</title>
<path fill="none" stroke="blue" stroke-dasharray="1,5" d="M374,-326.94C374,-313.39 374,-294.18 374,-278.47"/>
<polygon fill="blue" stroke="blue" points="377.5,-278.26 374,-268.26 370.5,-278.26 377.5,-278.26"/>
</g>
<!-- 17 -->
<g id="node8" class="node">
<title>17</title>
<ellipse fill="none" stroke="black" cx="304" cy="-42" rx="27.9" ry="18"/>
<text text-anchor="middle" x="304" y="-38.3" font-family="Times,serif" font-size="14.00">Bas</text>
</g>
<!-- 9&#45;&gt;17 -->
<g id="edge6" class="edge">
<title>9&#45;&gt;17</title>
<path fill="none" stroke="blue" d="M345.01,-340.45C302.67,-334.57 227.34,-321.18 213,-299 162.75,-221.28 242.99,-112.3 283.21,-65.65"/>
<polygon fill="blue" stroke="blue" points="286.01,-67.76 289.98,-57.94 280.75,-63.14 286.01,-67.76"/>
<text text-anchor="middle" x="206.5" y="-206" font-family="Times,serif" font-size="10.00">2</text>
</g>
<!-- 13 -->
<g id="node9" class="node">
<title>13</title>
<ellipse fill="none" stroke="black" cx="304" cy="-146" rx="40.09" ry="18"/>
<text text-anchor="middle" x="304" y="-142.3" font-family="Times,serif" font-size="14.00">V2250</text>
</g>
<!-- 9&#45;&gt;13 -->
<g id="edge1" class="edge">
<title>9&#45;&gt;13</title>
<path fill="none" stroke="blue" stroke-dasharray="5,2" d="M343.89,-344.27C309.94,-342.75 256.06,-334.45 230,-299 210.26,-272.14 217.55,-254.92 230,-224 239.1,-201.39 258.38,-181.69 274.97,-167.88"/>
<polygon fill="blue" stroke="blue" points="277.22,-170.56 282.85,-161.58 272.85,-165.09 277.22,-170.56"/>
</g>
<!-- 18 -->
<g id="node4" class="node">
<title>18</title>
<ellipse fill="none" stroke="black" cx="450" cy="-345" rx="28.7" ry="18"/>
<text text-anchor="middle" x="450" y="-341.3" font-family="Times,serif" font-size="14.00">A25</text>
</g>
<!-- 18&#45;&gt;14 -->
<g id="edge4" class="edge">
<title>18&#45;&gt;14</title>
<path fill="none" stroke="blue" d="M478.26,-341.48C505.13,-337.42 544.16,-326.79 563,-299 589.04,-260.6 567.52,-204.64 550.85,-172.42"/>
<polygon fill="blue" stroke="blue" points="553.72,-170.37 545.89,-163.23 547.56,-173.69 553.72,-170.37"/>
<text text-anchor="middle" x="578.5" y="-247.5" font-family="Times,serif" font-size="10.00">3</text>
</g>
<!-- 18&#45;&gt;30 -->
<g id="edge9" class="edge">
<title>18&#45;&gt;30</title>
<path fill="none" stroke="blue" d="M447.27,-326.75C443.39,-303.29 435.67,-260.12 426,-224 421.44,-206.95 415.12,-188.17 409.86,-173.43"/>
<polygon fill="blue" stroke="blue" points="413.12,-172.14 406.42,-163.93 406.54,-174.53 413.12,-172.14"/>
<text text-anchor="middle" x="445.5" y="-247.5" font-family="Times,serif" font-size="10.00">3</text>
</g>
<!-- 37 -->
<g id="node5" class="node">
<title>37</title>
<ellipse fill="none" stroke="black" cx="276" cy="-250" rx="33.6" ry="18"/>
<text text-anchor="middle" x="276" y="-246.3" font-family="Times,serif" font-size="14.00">La35</text>
</g>
<!-- 37&#45;&gt;30 -->
<g id="edge10" class="edge">
<title>37&#45;&gt;30</title>
<path fill="none" stroke="blue" d="M291.62,-233.81C302.32,-224.03 317.2,-211.59 332,-203 340.64,-197.99 344.65,-200.47 353,-195 363.16,-188.35 372.83,-179.16 380.73,-170.61"/>
<polygon fill="blue" stroke="blue" points="383.44,-172.83 387.45,-163.02 378.2,-168.19 383.44,-172.83"/>
<text text-anchor="middle" x="335.5" y="-206" font-family="Times,serif" font-size="10.00">4</text>
</g>
<!-- 32&#45;&gt;17 -->
<g id="edge5" class="edge">
<title>32&#45;&gt;17</title>
<path fill="none" stroke="blue" d="M397.86,-235.39C417.94,-223.37 444.28,-206.07 450,-195 465.29,-165.38 467.22,-148.54 450,-120 426.36,-80.8 375.38,-60.54 340.38,-50.85"/>
<polygon fill="blue" stroke="blue" points="341.08,-47.42 330.53,-48.28 339.32,-54.19 341.08,-47.42"/>
</g>
<!-- 32&#45;&gt;13 -->
<g id="edge2" class="edge">
<title>32&#45;&gt;13</title>
<path fill="none" stroke="blue" stroke-dasharray="5,2" d="M362.75,-232.61C351.48,-216.18 333.97,-190.67 321,-171.77"/>
<polygon fill="blue" stroke="blue" points="323.76,-169.61 315.22,-163.35 317.99,-173.57 323.76,-169.61"/>
<text text-anchor="middle" x="352.5" y="-206" font-family="Times,serif" font-size="10.00">2</text>
</g>
<!-- 13&#45;&gt;17 -->
<g id="edge7" class="edge">
<title>13&#45;&gt;17</title>
<path fill="none" stroke="blue" stroke-dasharray="5,2" d="M304,-127.7C304,-111.92 304,-88.36 304,-70.09"/>
<polygon fill="blue" stroke="blue" points="307.5,-70.05 304,-60.05 300.5,-70.05 307.5,-70.05"/>
<text text-anchor="middle" x="307.5" y="-102" font-family="Times,serif" font-size="10.00">5</text>
</g>
</g>
</svg>
