<?xml version="1.0" encoding="UTF-8" standalone="no"?>
<!DOCTYPE svg PUBLIC "-//W3C//DTD SVG 1.1//EN"
 "http://www.w3.org/Graphics/SVG/1.1/DTD/svg11.dtd">
<!-- Generated by graphviz version 2.43.0 (0)
 -->
<!-- Title: textual_flow_diagram Pages: 1 -->
<svg width="670pt" height="512pt"
 viewBox="0.00 0.00 670.00 512.00" xmlns="http://www.w3.org/2000/svg" xmlns:xlink="http://www.w3.org/1999/xlink">
<g id="graph0" class="graph" transform="scale(1 1) rotate(0) translate(4 508)">
<title>textual_flow_diagram</title>
<polygon fill="white" stroke="transparent" points="-4,4 -4,-508 666,-508 666,4 -4,4"/>
<g id="clust1" class="cluster">
<title>cluster_legend</title>
<polygon fill="none" stroke="black" points="8,-412 8,-466 168,-466 168,-412 8,-412"/>
</g>
<g id="clust2" class="cluster">
<title>cluster_plot</title>
</g>
<g id="clust3" class="cluster">
<title>cluster_a</title>
<polygon fill="none" stroke="black" points="184,-413 184,-488 646,-488 646,-413 184,-413"/>
<text text-anchor="middle" x="415" y="-472.8" font-family="Times,serif" font-size="14.00">a</text>
</g>
<g id="clust4" class="cluster">
<title>cluster_b</title>
<polygon fill="none" stroke="black" points="374,-214 374,-289 458,-289 458,-214 374,-214"/>
<text text-anchor="middle" x="416" y="-273.8" font-family="Times,serif" font-size="14.00">b</text>
</g>
<g id="clust5" class="cluster">
<title>cluster_c</title>
<polygon fill="none" stroke="black" points="370,-318 370,-393 553,-393 553,-318 370,-318"/>
<text text-anchor="middle" x="461.5" y="-377.8" font-family="Times,serif" font-size="14.00">c</text>
</g>
<g id="clust6" class="cluster">
<title>cluster_d</title>
<polygon fill="none" stroke="black" points="469,-214 469,-289 539,-289 539,-214 469,-214"/>
<text text-anchor="middle" x="504" y="-273.8" font-family="Times,serif" font-size="14.00">d</text>
</g>
<g id="clust7" class="cluster">
<title>cluster_e</title>
<polygon fill="none" stroke="black" points="270,-214 270,-289 366,-289 366,-214 270,-214"/>
<text text-anchor="middle" x="318" y="-273.8" font-family="Times,serif" font-size="14.00">e</text>
</g>
<g id="clust8" class="cluster">
<title>cluster_f</title>
<polygon fill="none" stroke="black" points="283,-110 283,-185 536,-185 536,-110 283,-110"/>
<text text-anchor="middle" x="409.5" y="-169.8" font-family="Times,serif" font-size="14.00">f</text>
</g>
<g id="clust9" class="cluster">
<title>cluster_g</title>
<polygon fill="none" stroke="black" points="454,-16 454,-91 538,-91 538,-16 454,-16"/>
<text text-anchor="middle" x="496" y="-75.8" font-family="Times,serif" font-size="14.00">g</text>
</g>
<!-- label -->
<g id="node1" class="node">
<title>label</title>
<text text-anchor="middle" x="88" y="-442.8" font-family="Times,serif" font-size="14.00">adstag1.3.8U2&#45;18</text>
<text text-anchor="middle" x="88" y="-427.8" font-family="Times,serif" font-size="14.00">Con = 5</text>
</g>
<!-- 8 -->
<g id="node2" class="node">
<title>8</title>
<ellipse fill="none" stroke="black" cx="505" cy="-439" rx="34.39" ry="18"/>
<text text-anchor="middle" x="505" y="-435.3" font-family="Times,serif" font-size="14.00">V566</text>
</g>
<!-- 12 -->
<g id="node8" class="node">
<title>12</title>
<ellipse fill="none" stroke="black" cx="505" cy="-344" rx="40.09" ry="18"/>
<text text-anchor="middle" x="505" y="-340.3" font-family="Times,serif" font-size="14.00">V1639</text>
</g>
<!-- 8&#45;&gt;12 -->
<g id="edge3" class="edge">
<title>8&#45;&gt;12</title>
<path fill="none" stroke="blue" stroke-dasharray="1,5" d="M505,-420.94C505,-407.39 505,-388.18 505,-372.47"/>
<polygon fill="blue" stroke="blue" points="508.5,-372.26 505,-362.26 501.5,-372.26 508.5,-372.26"/>
</g>
<!-- 24 -->
<g id="node3" class="node">
<title>24</title>
<ellipse fill="none" stroke="black" cx="232" cy="-439" rx="40.09" ry="18"/>
<text text-anchor="middle" x="232" y="-435.3" font-family="Times,serif" font-size="14.00">V1629</text>
</g>
<!-- 32 -->
<g id="node13" class="node">
<title>32</title>
<ellipse fill="none" stroke="black" cx="325" cy="-136" rx="34.39" ry="18"/>
<text text-anchor="middle" x="325" y="-132.3" font-family="Times,serif" font-size="14.00">V536</text>
</g>
<!-- 24&#45;&gt;32 -->
<g id="edge8" class="edge">
<title>24&#45;&gt;32</title>
<path fill="none" stroke="blue" stroke-dasharray="5,2" d="M228.58,-420.91C221.12,-379 207.21,-269.04 249,-193 258.3,-176.07 275.15,-162.86 290.62,-153.53"/>
<polygon fill="blue" stroke="blue" points="292.54,-156.47 299.51,-148.49 289.08,-150.38 292.54,-156.47"/>
</g>
<!-- 38 -->
<g id="node14" class="node">
<title>38</title>
<ellipse fill="none" stroke="black" cx="412" cy="-136" rx="34.39" ry="18"/>
<text text-anchor="middle" x="412" y="-132.3" font-family="Times,serif" font-size="14.00">V568</text>
</g>
<!-- 24&#45;&gt;38 -->
<g id="edge12" class="edge">
<title>24&#45;&gt;38</title>
<path fill="none" stroke="blue" stroke-dasharray="5,2" d="M232.28,-420.9C233.39,-374 238.89,-244.77 266,-214 297.16,-178.64 327.89,-209.75 368,-185 377.91,-178.88 386.98,-169.91 394.27,-161.37"/>
<polygon fill="blue" stroke="blue" points="397.12,-163.41 400.68,-153.43 391.68,-159.01 397.12,-163.41"/>
</g>
<!-- 26 -->
<g id="node4" class="node">
<title>26</title>
<ellipse fill="none" stroke="black" cx="419" cy="-439" rx="33.6" ry="18"/>
<text text-anchor="middle" x="419" y="-435.3" font-family="Times,serif" font-size="14.00">La22</text>
</g>
<!-- 19 -->
<g id="node9" class="node">
<title>19</title>
<ellipse fill="none" stroke="black" cx="412" cy="-344" rx="34.39" ry="18"/>
<text text-anchor="middle" x="412" y="-340.3" font-family="Times,serif" font-size="14.00">V571</text>
</g>
<!-- 26&#45;&gt;19 -->
<g id="edge4" class="edge">
<title>26&#45;&gt;19</title>
<path fill="none" stroke="blue" stroke-dasharray="1,5" d="M417.72,-420.94C416.7,-407.39 415.25,-388.18 414.07,-372.47"/>
<polygon fill="blue" stroke="blue" points="417.54,-371.97 413.3,-362.26 410.56,-372.5 417.54,-371.97"/>
</g>
<!-- 6 -->
<g id="node11" class="node">
<title>6</title>
<ellipse fill="none" stroke="black" cx="318" cy="-240" rx="40.09" ry="18"/>
<text text-anchor="middle" x="318" y="-236.3" font-family="Times,serif" font-size="14.00">V2036</text>
</g>
<!-- 26&#45;&gt;6 -->
<g id="edge1" class="edge">
<title>26&#45;&gt;6</title>
<path fill="none" stroke="blue" stroke-dasharray="5,2" d="M398.13,-424.58C387.18,-416.59 374.35,-405.57 366,-393 340.14,-354.07 327.51,-300.34 321.91,-268.29"/>
<polygon fill="blue" stroke="blue" points="325.34,-267.6 320.27,-258.3 318.43,-268.74 325.34,-267.6"/>
</g>
<!-- 40 -->
<g id="node5" class="node">
<title>40</title>
<ellipse fill="none" stroke="black" cx="329" cy="-439" rx="38.19" ry="18"/>
<text text-anchor="middle" x="329" y="-435.3" font-family="Times,serif" font-size="14.00">aBase</text>
</g>
<!-- 27 -->
<g id="node7" class="node">
<title>27</title>
<ellipse fill="none" stroke="black" cx="416" cy="-240" rx="34.39" ry="18"/>
<text text-anchor="middle" x="416" y="-236.3" font-family="Times,serif" font-size="14.00">V560</text>
</g>
<!-- 40&#45;&gt;27 -->
<g id="edge6" class="edge">
<title>40&#45;&gt;27</title>
<path fill="none" stroke="blue" stroke-width="2" d="M330.85,-421C334.39,-393.52 343.85,-338.25 366,-297 372.62,-284.68 382.47,-272.85 391.69,-263.26"/>
<polygon fill="blue" stroke="blue" stroke-width="2" points="394.27,-265.63 398.87,-256.08 389.32,-260.68 394.27,-265.63"/>
</g>
<!-- 42 -->
<g id="node6" class="node">
<title>42</title>
<ellipse fill="none" stroke="black" cx="598" cy="-439" rx="40.09" ry="18"/>
<text text-anchor="middle" x="598" y="-435.3" font-family="Times,serif" font-size="14.00">V1897</text>
</g>
<!-- 33 -->
<g id="node10" class="node">
<title>33</title>
<ellipse fill="none" stroke="black" cx="504" cy="-240" rx="27" ry="18"/>
<text text-anchor="middle" x="504" y="-236.3" font-family="Times,serif" font-size="14.00">Est</text>
</g>
<!-- 42&#45;&gt;33 -->
<g id="edge10" class="edge">
<title>42&#45;&gt;33</title>
<path fill="none" stroke="blue" stroke-dasharray="1,5" d="M593.7,-420.72C587.41,-396.85 574.51,-352.81 557,-318 547.37,-298.85 533.57,-278.97 522.46,-264.2"/>
<polygon fill="blue" stroke="blue" points="525.15,-261.95 516.29,-256.14 519.59,-266.21 525.15,-261.95"/>
</g>
<!-- 12&#45;&gt;33 -->
<g id="edge11" class="edge">
<title>12&#45;&gt;33</title>
<path fill="none" stroke="blue" stroke-dasharray="5,2" d="M504.83,-325.7C504.68,-309.92 504.44,-286.36 504.27,-268.09"/>
<polygon fill="blue" stroke="blue" points="507.77,-268.01 504.17,-258.05 500.77,-268.08 507.77,-268.01"/>
<text text-anchor="middle" x="507.5" y="-300" font-family="Times,serif" font-size="10.00">5</text>
</g>
<!-- 19&#45;&gt;27 -->
<g id="edge7" class="edge">
<title>19&#45;&gt;27</title>
<path fill="none" stroke="blue" stroke-width="2" d="M412.68,-325.7C413.3,-309.92 414.22,-286.36 414.94,-268.09"/>
<polygon fill="blue" stroke="blue" stroke-width="2" points="418.44,-268.18 415.33,-258.05 411.44,-267.9 418.44,-268.18"/>
<text text-anchor="middle" x="416.5" y="-300" font-family="Times,serif" font-size="10.00">4</text>
</g>
<!-- 19&#45;&gt;6 -->
<g id="edge2" class="edge">
<title>19&#45;&gt;6</title>
<path fill="none" stroke="blue" stroke-dasharray="1,5" d="M397.72,-327.51C382.29,-310.76 357.5,-283.86 339.66,-264.5"/>
<polygon fill="blue" stroke="blue" points="342.07,-261.96 332.72,-256.97 336.92,-266.7 342.07,-261.96"/>
<text text-anchor="middle" x="381.5" y="-300" font-family="Times,serif" font-size="10.00">3</text>
</g>
<!-- 33&#45;&gt;32 -->
<g id="edge9" class="edge">
<title>33&#45;&gt;32</title>
<path fill="none" stroke="blue" d="M485.27,-226.57C478.18,-222.21 469.9,-217.53 462,-214 422.46,-196.36 405.55,-208.2 369,-185 359.16,-178.76 350.12,-169.76 342.82,-161.24"/>
<polygon fill="blue" stroke="blue" points="345.41,-158.88 336.38,-153.32 339.97,-163.29 345.41,-158.88"/>
<text text-anchor="middle" x="430.5" y="-196" font-family="Times,serif" font-size="10.00">5</text>
</g>
<!-- 33&#45;&gt;38 -->
<g id="edge13" class="edge">
<title>33&#45;&gt;38</title>
<path fill="none" stroke="blue" d="M490.25,-223.89C480.41,-213.08 466.87,-198.16 455,-185 447.7,-176.9 439.72,-168.01 432.64,-160.1"/>
<polygon fill="blue" stroke="blue" points="435.19,-157.71 425.92,-152.59 429.98,-162.37 435.19,-157.71"/>
<text text-anchor="middle" x="474.5" y="-196" font-family="Times,serif" font-size="10.00">5</text>
</g>
<!-- 11 -->
<g id="node12" class="node">
<title>11</title>
<ellipse fill="none" stroke="black" cx="496" cy="-136" rx="31.7" ry="18"/>
<text text-anchor="middle" x="496" y="-132.3" font-family="Times,serif" font-size="14.00">Taur</text>
</g>
<!-- 22 -->
<g id="node15" class="node">
<title>22</title>
<ellipse fill="none" stroke="black" cx="496" cy="-42" rx="34.39" ry="18"/>
<text text-anchor="middle" x="496" y="-38.3" font-family="Times,serif" font-size="14.00">V569</text>
</g>
<!-- 11&#45;&gt;22 -->
<g id="edge5" class="edge">
<title>11&#45;&gt;22</title>
<path fill="none" stroke="blue" stroke-dasharray="5,2" d="M496,-117.7C496,-104.46 496,-85.95 496,-70.66"/>
<polygon fill="blue" stroke="blue" points="499.5,-70.23 496,-60.23 492.5,-70.23 499.5,-70.23"/>
</g>
</g>
</svg>
