<?xml version="1.0" encoding="UTF-8" standalone="no"?>
<!DOCTYPE svg PUBLIC "-//W3C//DTD SVG 1.1//EN"
 "http://www.w3.org/Graphics/SVG/1.1/DTD/svg11.dtd">
<!-- Generated by graphviz version 2.43.0 (0)
 -->
<!-- Title: textual_flow_diagram Pages: 1 -->
<svg width="406pt" height="304pt"
 viewBox="0.00 0.00 406.00 304.00" xmlns="http://www.w3.org/2000/svg" xmlns:xlink="http://www.w3.org/1999/xlink">
<g id="graph0" class="graph" transform="scale(1 1) rotate(0) translate(4 300)">
<title>textual_flow_diagram</title>
<polygon fill="white" stroke="transparent" points="-4,4 -4,-300 402,-300 402,4 -4,4"/>
<g id="clust1" class="cluster">
<title>cluster_legend</title>
<polygon fill="none" stroke="black" points="8,-204 8,-258 164,-258 164,-204 8,-204"/>
</g>
<g id="clust2" class="cluster">
<title>cluster_plot</title>
</g>
<g id="clust3" class="cluster">
<title>cluster_a</title>
<polygon fill="none" stroke="black" points="277,-205 277,-280 369,-280 369,-205 277,-205"/>
<text text-anchor="middle" x="323" y="-264.8" font-family="Times,serif" font-size="14.00">a</text>
</g>
<g id="clust4" class="cluster">
<title>cluster_b</title>
<polygon fill="none" stroke="black" points="180,-110 180,-185 347,-185 347,-110 180,-110"/>
<text text-anchor="middle" x="263.5" y="-169.8" font-family="Times,serif" font-size="14.00">b</text>
</g>
<g id="clust5" class="cluster">
<title>cluster_c</title>
<polygon fill="none" stroke="black" points="249,-16 249,-91 323,-91 323,-16 249,-16"/>
<text text-anchor="middle" x="286" y="-75.8" font-family="Times,serif" font-size="14.00">c</text>
</g>
<!-- label -->
<g id="node1" class="node">
<title>label</title>
<text text-anchor="middle" x="86" y="-234.8" font-family="Times,serif" font-size="14.00">adstag1.3.38U24</text>
<text text-anchor="middle" x="86" y="-219.8" font-family="Times,serif" font-size="14.00">Con = 5</text>
</g>
<!-- 37 -->
<g id="node2" class="node">
<title>37</title>
<ellipse fill="none" stroke="black" cx="323" cy="-231" rx="38.19" ry="18"/>
<text text-anchor="middle" x="323" y="-227.3" font-family="Times,serif" font-size="14.00">aBase</text>
</g>
<!-- 13 -->
<g id="node3" class="node">
<title>13</title>
<ellipse fill="none" stroke="black" cx="310" cy="-136" rx="28.7" ry="18"/>
<text text-anchor="middle" x="310" y="-132.3" font-family="Times,serif" font-size="14.00">A25</text>
</g>
<!-- 37&#45;&gt;13 -->
<g id="edge1" class="edge">
<title>37&#45;&gt;13</title>
<path fill="none" stroke="blue" stroke-dasharray="5,2" d="M320.62,-212.94C318.71,-199.31 316,-179.94 313.8,-164.17"/>
<polygon fill="blue" stroke="blue" points="317.22,-163.37 312.37,-153.95 310.29,-164.34 317.22,-163.37"/>
</g>
<!-- 23 -->
<g id="node5" class="node">
<title>23</title>
<ellipse fill="none" stroke="black" cx="286" cy="-42" rx="29.5" ry="18"/>
<text text-anchor="middle" x="286" y="-38.3" font-family="Times,serif" font-size="14.00">B39</text>
</g>
<!-- 37&#45;&gt;23 -->
<g id="edge3" class="edge">
<title>37&#45;&gt;23</title>
<path fill="none" stroke="blue" stroke-width="2" d="M336.04,-213.97C341.84,-205.82 348.02,-195.44 351,-185 360.16,-152.95 363.52,-140.89 351,-110 343.26,-90.92 327.19,-74.27 312.97,-62.34"/>
<polygon fill="blue" stroke="blue" stroke-width="2" points="314.88,-59.39 304.88,-55.89 310.51,-64.86 314.88,-59.39"/>
<text text-anchor="middle" x="362.5" y="-133.5" font-family="Times,serif" font-size="10.00">2</text>
</g>
<!-- 16 -->
<g id="node4" class="node">
<title>16</title>
<ellipse fill="none" stroke="black" cx="226" cy="-136" rx="37.89" ry="18"/>
<text text-anchor="middle" x="226" y="-132.3" font-family="Times,serif" font-size="14.00">LaSM</text>
</g>
<!-- 16&#45;&gt;23 -->
<g id="edge2" class="edge">
<title>16&#45;&gt;23</title>
<path fill="none" stroke="blue" stroke-dasharray="5,2" d="M236.73,-118.55C246,-104.34 259.53,-83.59 270.07,-67.43"/>
<polygon fill="blue" stroke="blue" points="273.04,-69.29 275.57,-59 267.17,-65.46 273.04,-69.29"/>
</g>
</g>
</svg>
