<?xml version="1.0" encoding="UTF-8" standalone="no"?>
<!DOCTYPE svg PUBLIC "-//W3C//DTD SVG 1.1//EN"
 "http://www.w3.org/Graphics/SVG/1.1/DTD/svg11.dtd">
<!-- Generated by graphviz version 2.43.0 (0)
 -->
<!-- Title: textual_flow_diagram Pages: 1 -->
<svg width="300pt" height="199pt"
 viewBox="0.00 0.00 300.00 199.00" xmlns="http://www.w3.org/2000/svg" xmlns:xlink="http://www.w3.org/1999/xlink">
<g id="graph0" class="graph" transform="scale(1 1) rotate(0) translate(4 195)">
<title>textual_flow_diagram</title>
<polygon fill="white" stroke="transparent" points="-4,4 -4,-195 296,-195 296,4 -4,4"/>
<g id="clust1" class="cluster">
<title>cluster_legend</title>
<polygon fill="none" stroke="black" points="8,-99 8,-153 164,-153 164,-99 8,-99"/>
</g>
<g id="clust2" class="cluster">
<title>cluster_plot</title>
</g>
<g id="clust3" class="cluster">
<title>cluster_a</title>
<polygon fill="none" stroke="black" points="180,-100 180,-175 276,-175 276,-100 180,-100"/>
<text text-anchor="middle" x="228" y="-159.8" font-family="Times,serif" font-size="14.00">a</text>
</g>
<g id="clust4" class="cluster">
<title>cluster_b</title>
<polygon fill="none" stroke="black" points="186,-16 186,-91 270,-91 270,-16 186,-16"/>
<text text-anchor="middle" x="228" y="-75.8" font-family="Times,serif" font-size="14.00">b</text>
</g>
<!-- label -->
<g id="node1" class="node">
<title>label</title>
<text text-anchor="middle" x="86" y="-129.8" font-family="Times,serif" font-size="14.00">adstag1.2.40U94</text>
<text text-anchor="middle" x="86" y="-114.8" font-family="Times,serif" font-size="14.00">Con = 3</text>
</g>
<!-- 23 -->
<g id="node2" class="node">
<title>23</title>
<ellipse fill="none" stroke="black" cx="228" cy="-126" rx="40.09" ry="18"/>
<text text-anchor="middle" x="228" y="-122.3" font-family="Times,serif" font-size="14.00">V1629</text>
</g>
<!-- 40 -->
<g id="node3" class="node">
<title>40</title>
<ellipse fill="none" stroke="black" cx="228" cy="-42" rx="34.39" ry="18"/>
<text text-anchor="middle" x="228" y="-38.3" font-family="Times,serif" font-size="14.00">V536</text>
</g>
<!-- 23&#45;&gt;40 -->
<g id="edge1" class="edge">
<title>23&#45;&gt;40</title>
<path fill="none" stroke="blue" stroke-dasharray="5,2" d="M228,-107.61C228,-96.77 228,-82.6 228,-70.29"/>
<polygon fill="blue" stroke="blue" points="231.5,-70.08 228,-60.08 224.5,-70.08 231.5,-70.08"/>
</g>
</g>
</svg>
