<?xml version="1.0" encoding="UTF-8" standalone="no"?>
<!DOCTYPE svg PUBLIC "-//W3C//DTD SVG 1.1//EN"
 "http://www.w3.org/Graphics/SVG/1.1/DTD/svg11.dtd">
<!-- Generated by graphviz version 2.43.0 (0)
 -->
<!-- Title: textual_flow_diagram Pages: 1 -->
<svg width="671pt" height="199pt"
 viewBox="0.00 0.00 671.00 199.00" xmlns="http://www.w3.org/2000/svg" xmlns:xlink="http://www.w3.org/1999/xlink">
<g id="graph0" class="graph" transform="scale(1 1) rotate(0) translate(4 195)">
<title>textual_flow_diagram</title>
<polygon fill="white" stroke="transparent" points="-4,4 -4,-195 667,-195 667,4 -4,4"/>
<g id="clust1" class="cluster">
<title>cluster_legend</title>
<polygon fill="none" stroke="black" points="8,-99 8,-153 186,-153 186,-99 8,-99"/>
</g>
<g id="clust2" class="cluster">
<title>cluster_plot</title>
</g>
<g id="clust3" class="cluster">
<title>cluster_a</title>
<polygon fill="none" stroke="black" points="267,-100 267,-175 613,-175 613,-100 267,-100"/>
<text text-anchor="middle" x="440" y="-159.8" font-family="Times,serif" font-size="14.00">a</text>
</g>
<g id="clust4" class="cluster">
<title>cluster_b</title>
<polygon fill="none" stroke="black" points="451,-16 451,-91 543,-91 543,-16 451,-16"/>
<text text-anchor="middle" x="497" y="-75.8" font-family="Times,serif" font-size="14.00">b</text>
</g>
<g id="clust5" class="cluster">
<title>cluster_c</title>
<polygon fill="none" stroke="black" points="551,-16 551,-91 647,-91 647,-16 551,-16"/>
<text text-anchor="middle" x="599" y="-75.8" font-family="Times,serif" font-size="14.00">c</text>
</g>
<g id="clust6" class="cluster">
<title>cluster_d</title>
<polygon fill="none" stroke="black" points="202,-16 202,-91 363,-91 363,-16 202,-16"/>
<text text-anchor="middle" x="282.5" y="-75.8" font-family="Times,serif" font-size="14.00">d</text>
</g>
<g id="clust7" class="cluster">
<title>cluster_e</title>
<polygon fill="none" stroke="black" points="371,-16 371,-91 443,-91 443,-16 371,-16"/>
<text text-anchor="middle" x="407" y="-75.8" font-family="Times,serif" font-size="14.00">e</text>
</g>
<!-- label -->
<g id="node1" class="node">
<title>label</title>
<text text-anchor="middle" x="97" y="-129.8" font-family="Times,serif" font-size="14.00">adstag1.3.71U16&#45;26</text>
<text text-anchor="middle" x="97" y="-114.8" font-family="Times,serif" font-size="14.00">Con = 5</text>
</g>
<!-- 10 -->
<g id="node2" class="node">
<title>10</title>
<ellipse fill="none" stroke="black" cx="313" cy="-126" rx="37.89" ry="18"/>
<text text-anchor="middle" x="313" y="-122.3" font-family="Times,serif" font-size="14.00">LaSM</text>
</g>
<!-- 25 -->
<g id="node9" class="node">
<title>25</title>
<ellipse fill="none" stroke="black" cx="239" cy="-42" rx="29.5" ry="18"/>
<text text-anchor="middle" x="239" y="-38.3" font-family="Times,serif" font-size="14.00">B39</text>
</g>
<!-- 10&#45;&gt;25 -->
<g id="edge2" class="edge">
<title>10&#45;&gt;25</title>
<path fill="none" stroke="blue" stroke-dasharray="5,2" d="M296.22,-109.47C290.31,-103.8 283.72,-97.25 278,-91 270.9,-83.24 263.52,-74.39 257.12,-66.42"/>
<polygon fill="blue" stroke="blue" points="259.81,-64.18 250.85,-58.52 254.32,-68.53 259.81,-64.18"/>
</g>
<!-- 20 -->
<g id="node3" class="node">
<title>20</title>
<ellipse fill="none" stroke="black" cx="407" cy="-126" rx="38.19" ry="18"/>
<text text-anchor="middle" x="407" y="-122.3" font-family="Times,serif" font-size="14.00">aBase</text>
</g>
<!-- 15 -->
<g id="node8" class="node">
<title>15</title>
<ellipse fill="none" stroke="black" cx="321" cy="-42" rx="34.39" ry="18"/>
<text text-anchor="middle" x="321" y="-38.3" font-family="Times,serif" font-size="14.00">V560</text>
</g>
<!-- 20&#45;&gt;15 -->
<g id="edge1" class="edge">
<title>20&#45;&gt;15</title>
<path fill="none" stroke="blue" stroke-width="2" d="M388.74,-110.15C381.79,-104.33 373.9,-97.5 367,-91 358.68,-83.16 349.92,-74.21 342.3,-66.18"/>
<polygon fill="blue" stroke="blue" stroke-width="2" points="344.51,-63.42 335.12,-58.52 339.41,-68.21 344.51,-63.42"/>
</g>
<!-- 29 -->
<g id="node10" class="node">
<title>29</title>
<ellipse fill="none" stroke="black" cx="407" cy="-42" rx="27.9" ry="18"/>
<text text-anchor="middle" x="407" y="-38.3" font-family="Times,serif" font-size="14.00">La2</text>
</g>
<!-- 20&#45;&gt;29 -->
<g id="edge4" class="edge">
<title>20&#45;&gt;29</title>
<path fill="none" stroke="blue" stroke-width="2" d="M407,-107.61C407,-96.77 407,-82.6 407,-70.29"/>
<polygon fill="blue" stroke="blue" stroke-width="2" points="410.5,-70.08 407,-60.08 403.5,-70.08 410.5,-70.08"/>
</g>
<!-- 21 -->
<g id="node4" class="node">
<title>21</title>
<ellipse fill="none" stroke="black" cx="495" cy="-126" rx="31.7" ry="18"/>
<text text-anchor="middle" x="495" y="-122.3" font-family="Times,serif" font-size="14.00">Taur</text>
</g>
<!-- 39 -->
<g id="node6" class="node">
<title>39</title>
<ellipse fill="none" stroke="black" cx="497" cy="-42" rx="37.89" ry="18"/>
<text text-anchor="middle" x="497" y="-38.3" font-family="Times,serif" font-size="14.00">M118</text>
</g>
<!-- 21&#45;&gt;39 -->
<g id="edge5" class="edge">
<title>21&#45;&gt;39</title>
<path fill="none" stroke="blue" stroke-dasharray="5,2" d="M495.42,-107.61C495.69,-96.77 496.03,-82.6 496.33,-70.29"/>
<polygon fill="blue" stroke="blue" points="499.84,-70.17 496.58,-60.08 492.84,-70 499.84,-70.17"/>
</g>
<!-- 22 -->
<g id="node5" class="node">
<title>22</title>
<ellipse fill="none" stroke="black" cx="575" cy="-126" rx="29.8" ry="18"/>
<text text-anchor="middle" x="575" y="-122.3" font-family="Times,serif" font-size="14.00">Nan</text>
</g>
<!-- 27 -->
<g id="node7" class="node">
<title>27</title>
<ellipse fill="none" stroke="black" cx="599" cy="-42" rx="40.09" ry="18"/>
<text text-anchor="middle" x="599" y="-38.3" font-family="Times,serif" font-size="14.00">V2250</text>
</g>
<!-- 22&#45;&gt;27 -->
<g id="edge3" class="edge">
<title>22&#45;&gt;27</title>
<path fill="none" stroke="blue" stroke-dasharray="5,2" d="M579.97,-108.01C583.19,-97.01 587.45,-82.46 591.12,-69.92"/>
<polygon fill="blue" stroke="blue" points="594.58,-70.55 594.03,-59.97 587.87,-68.58 594.58,-70.55"/>
</g>
</g>
</svg>
