<?xml version="1.0" encoding="UTF-8" standalone="no"?>
<!DOCTYPE svg PUBLIC "-//W3C//DTD SVG 1.1//EN"
 "http://www.w3.org/Graphics/SVG/1.1/DTD/svg11.dtd">
<!-- Generated by graphviz version 2.43.0 (0)
 -->
<!-- Title: textual_flow_diagram Pages: 1 -->
<svg width="462pt" height="408pt"
 viewBox="0.00 0.00 462.00 408.00" xmlns="http://www.w3.org/2000/svg" xmlns:xlink="http://www.w3.org/1999/xlink">
<g id="graph0" class="graph" transform="scale(1 1) rotate(0) translate(4 404)">
<title>textual_flow_diagram</title>
<polygon fill="white" stroke="transparent" points="-4,4 -4,-404 458,-404 458,4 -4,4"/>
<g id="clust1" class="cluster">
<title>cluster_legend</title>
<polygon fill="none" stroke="black" points="8,-308 8,-362 178,-362 178,-308 8,-308"/>
</g>
<g id="clust2" class="cluster">
<title>cluster_plot</title>
</g>
<g id="clust3" class="cluster">
<title>cluster_a</title>
<polygon fill="none" stroke="black" points="230,-309 230,-384 421,-384 421,-309 230,-309"/>
<text text-anchor="middle" x="325.5" y="-368.8" font-family="Times,serif" font-size="14.00">a</text>
</g>
<g id="clust4" class="cluster">
<title>cluster_b</title>
<polygon fill="none" stroke="black" points="280,-16 280,-91 438,-91 438,-16 280,-16"/>
<text text-anchor="middle" x="359" y="-75.8" font-family="Times,serif" font-size="14.00">b</text>
</g>
<g id="clust5" class="cluster">
<title>cluster_c</title>
<polygon fill="none" stroke="black" points="204,-214 204,-289 370,-289 370,-214 204,-214"/>
<text text-anchor="middle" x="287" y="-273.8" font-family="Times,serif" font-size="14.00">c</text>
</g>
<g id="clust6" class="cluster">
<title>cluster_d</title>
<polygon fill="none" stroke="black" points="194,-16 194,-91 272,-91 272,-16 194,-16"/>
<text text-anchor="middle" x="233" y="-75.8" font-family="Times,serif" font-size="14.00">d</text>
</g>
<g id="clust7" class="cluster">
<title>cluster_e</title>
<polygon fill="none" stroke="black" points="250,-120 250,-195 334,-195 334,-120 250,-120"/>
<text text-anchor="middle" x="292" y="-179.8" font-family="Times,serif" font-size="14.00">e</text>
</g>
<!-- label -->
<g id="node1" class="node">
<title>label</title>
<text text-anchor="middle" x="93" y="-338.8" font-family="Times,serif" font-size="14.00">adstag1.3.23U2&#45;12</text>
<text text-anchor="middle" x="93" y="-323.8" font-family="Times,serif" font-size="14.00">Con = 3</text>
</g>
<!-- 8 -->
<g id="node2" class="node">
<title>8</title>
<ellipse fill="none" stroke="black" cx="278" cy="-335" rx="40.09" ry="18"/>
<text text-anchor="middle" x="278" y="-331.3" font-family="Times,serif" font-size="14.00">V1629</text>
</g>
<!-- 40 -->
<g id="node7" class="node">
<title>40</title>
<ellipse fill="none" stroke="black" cx="246" cy="-240" rx="34.39" ry="18"/>
<text text-anchor="middle" x="246" y="-236.3" font-family="Times,serif" font-size="14.00">V536</text>
</g>
<!-- 8&#45;&gt;40 -->
<g id="edge7" class="edge">
<title>8&#45;&gt;40</title>
<path fill="none" stroke="blue" stroke-dasharray="5,2" d="M272.13,-316.94C267.39,-303.18 260.65,-283.56 255.19,-267.72"/>
<polygon fill="blue" stroke="blue" points="258.4,-266.27 251.83,-257.95 251.78,-268.54 258.4,-266.27"/>
</g>
<!-- 14 -->
<g id="node3" class="node">
<title>14</title>
<ellipse fill="none" stroke="black" cx="375" cy="-335" rx="38.19" ry="18"/>
<text text-anchor="middle" x="375" y="-331.3" font-family="Times,serif" font-size="14.00">aBase</text>
</g>
<!-- 35 -->
<g id="node5" class="node">
<title>35</title>
<ellipse fill="none" stroke="black" cx="402" cy="-42" rx="27.9" ry="18"/>
<text text-anchor="middle" x="402" y="-38.3" font-family="Times,serif" font-size="14.00">La2</text>
</g>
<!-- 14&#45;&gt;35 -->
<g id="edge6" class="edge">
<title>14&#45;&gt;35</title>
<path fill="none" stroke="blue" stroke-width="2" d="M376.61,-316.67C381.13,-267.94 393.98,-129.47 399.46,-70.32"/>
<polygon fill="blue" stroke="blue" stroke-width="2" points="402.96,-70.52 400.4,-60.24 395.99,-69.87 402.96,-70.52"/>
</g>
<!-- 29 -->
<g id="node4" class="node">
<title>29</title>
<ellipse fill="none" stroke="black" cx="322" cy="-42" rx="34.39" ry="18"/>
<text text-anchor="middle" x="322" y="-38.3" font-family="Times,serif" font-size="14.00">V569</text>
</g>
<!-- 25 -->
<g id="node6" class="node">
<title>25</title>
<ellipse fill="none" stroke="black" cx="330" cy="-240" rx="31.7" ry="18"/>
<text text-anchor="middle" x="330" y="-236.3" font-family="Times,serif" font-size="14.00">Taur</text>
</g>
<!-- 25&#45;&gt;29 -->
<g id="edge4" class="edge">
<title>25&#45;&gt;29</title>
<path fill="none" stroke="blue" stroke-dasharray="5,2" d="M333.84,-221.96C335.47,-213.85 337.19,-203.97 338,-195 340.99,-161.8 341.41,-153.16 338,-120 336.27,-103.17 332.47,-84.59 329,-69.9"/>
<polygon fill="blue" stroke="blue" points="332.35,-68.85 326.57,-59.97 325.55,-70.51 332.35,-68.85"/>
</g>
<!-- 21 -->
<g id="node8" class="node">
<title>21</title>
<ellipse fill="none" stroke="black" cx="233" cy="-42" rx="31.4" ry="18"/>
<text text-anchor="middle" x="233" y="-38.3" font-family="Times,serif" font-size="14.00">Mon</text>
</g>
<!-- 25&#45;&gt;21 -->
<g id="edge3" class="edge">
<title>25&#45;&gt;21</title>
<path fill="none" stroke="blue" stroke-dasharray="1,5" d="M309.98,-225.78C303.44,-221.73 296.04,-217.45 289,-214 267.65,-203.55 252.88,-214.3 239,-195 212.56,-158.24 218.84,-102.55 225.88,-69.76"/>
<polygon fill="blue" stroke="blue" points="229.3,-70.51 228.15,-59.98 222.48,-68.93 229.3,-70.51"/>
<text text-anchor="middle" x="242.5" y="-143.5" font-family="Times,serif" font-size="10.00">2</text>
</g>
<!-- 10 -->
<g id="node9" class="node">
<title>10</title>
<ellipse fill="none" stroke="black" cx="292" cy="-146" rx="34.39" ry="18"/>
<text text-anchor="middle" x="292" y="-142.3" font-family="Times,serif" font-size="14.00">Marc</text>
</g>
<!-- 25&#45;&gt;10 -->
<g id="edge1" class="edge">
<title>25&#45;&gt;10</title>
<path fill="none" stroke="blue" stroke-dasharray="1,5" d="M323.03,-222.13C317.41,-208.51 309.39,-189.11 302.92,-173.43"/>
<polygon fill="blue" stroke="blue" points="305.98,-171.67 298.93,-163.77 299.51,-174.35 305.98,-171.67"/>
</g>
<!-- 10&#45;&gt;29 -->
<g id="edge5" class="edge">
<title>10&#45;&gt;29</title>
<path fill="none" stroke="blue" stroke-dasharray="5,2" d="M296.95,-128.16C301.64,-112.21 308.76,-88.02 314.21,-69.49"/>
<polygon fill="blue" stroke="blue" points="317.57,-70.45 317.04,-59.87 310.86,-68.47 317.57,-70.45"/>
<text text-anchor="middle" x="308.5" y="-102" font-family="Times,serif" font-size="10.00">3</text>
</g>
<!-- 10&#45;&gt;21 -->
<g id="edge2" class="edge">
<title>10&#45;&gt;21</title>
<path fill="none" stroke="blue" stroke-dasharray="1,5" d="M282.52,-128.61C273.06,-112.25 258.39,-86.9 247.48,-68.03"/>
<polygon fill="blue" stroke="blue" points="250.49,-66.25 242.46,-59.35 244.43,-69.76 250.49,-66.25"/>
</g>
</g>
</svg>
