<?xml version="1.0" encoding="UTF-8" standalone="no"?>
<!DOCTYPE svg PUBLIC "-//W3C//DTD SVG 1.1//EN"
 "http://www.w3.org/Graphics/SVG/1.1/DTD/svg11.dtd">
<!-- Generated by graphviz version 2.43.0 (0)
 -->
<!-- Title: textual_flow_diagram Pages: 1 -->
<svg width="504pt" height="314pt"
 viewBox="0.00 0.00 504.00 314.00" xmlns="http://www.w3.org/2000/svg" xmlns:xlink="http://www.w3.org/1999/xlink">
<g id="graph0" class="graph" transform="scale(1 1) rotate(0) translate(4 310)">
<title>textual_flow_diagram</title>
<polygon fill="white" stroke="transparent" points="-4,4 -4,-310 500,-310 500,4 -4,4"/>
<g id="clust1" class="cluster">
<title>cluster_legend</title>
<polygon fill="none" stroke="black" points="8,-214 8,-268 186,-268 186,-214 8,-214"/>
</g>
<g id="clust2" class="cluster">
<title>cluster_plot</title>
</g>
<g id="clust3" class="cluster">
<title>cluster_a</title>
<polygon fill="none" stroke="black" points="202,-215 202,-290 480,-290 480,-215 202,-215"/>
<text text-anchor="middle" x="341" y="-274.8" font-family="Times,serif" font-size="14.00">a</text>
</g>
<g id="clust4" class="cluster">
<title>cluster_b</title>
<polygon fill="none" stroke="black" points="293,-120 293,-195 377,-195 377,-120 293,-120"/>
<text text-anchor="middle" x="335" y="-179.8" font-family="Times,serif" font-size="14.00">b</text>
</g>
<g id="clust5" class="cluster">
<title>cluster_c</title>
<polygon fill="none" stroke="black" points="287,-16 287,-91 470,-91 470,-16 287,-16"/>
<text text-anchor="middle" x="378.5" y="-75.8" font-family="Times,serif" font-size="14.00">c</text>
</g>
<!-- label -->
<g id="node1" class="node">
<title>label</title>
<text text-anchor="middle" x="97" y="-244.8" font-family="Times,serif" font-size="14.00">adstag1.3.20U30&#45;34</text>
<text text-anchor="middle" x="97" y="-229.8" font-family="Times,serif" font-size="14.00">Con = 5</text>
</g>
<!-- 7 -->
<g id="node2" class="node">
<title>7</title>
<ellipse fill="none" stroke="black" cx="244" cy="-241" rx="34.39" ry="18"/>
<text text-anchor="middle" x="244" y="-237.3" font-family="Times,serif" font-size="14.00">V560</text>
</g>
<!-- 35 -->
<g id="node7" class="node">
<title>35</title>
<ellipse fill="none" stroke="black" cx="335" cy="-42" rx="40.09" ry="18"/>
<text text-anchor="middle" x="335" y="-38.3" font-family="Times,serif" font-size="14.00">V1920</text>
</g>
<!-- 7&#45;&gt;35 -->
<g id="edge3" class="edge">
<title>7&#45;&gt;35</title>
<path fill="none" stroke="blue" stroke-dasharray="5,2" d="M249.33,-222.91C256.95,-199.27 271.92,-155.49 289,-120 297.67,-101.99 309.21,-82.68 318.56,-67.91"/>
<polygon fill="blue" stroke="blue" points="321.6,-69.65 324.06,-59.34 315.71,-65.87 321.6,-69.65"/>
</g>
<!-- 10 -->
<g id="node3" class="node">
<title>10</title>
<ellipse fill="none" stroke="black" cx="335" cy="-241" rx="38.19" ry="18"/>
<text text-anchor="middle" x="335" y="-237.3" font-family="Times,serif" font-size="14.00">aBase</text>
</g>
<!-- 24 -->
<g id="node5" class="node">
<title>24</title>
<ellipse fill="none" stroke="black" cx="335" cy="-146" rx="33.6" ry="18"/>
<text text-anchor="middle" x="335" y="-142.3" font-family="Times,serif" font-size="14.00">La22</text>
</g>
<!-- 10&#45;&gt;24 -->
<g id="edge1" class="edge">
<title>10&#45;&gt;24</title>
<path fill="none" stroke="blue" stroke-dasharray="5,2" d="M335,-222.94C335,-209.39 335,-190.18 335,-174.47"/>
<polygon fill="blue" stroke="blue" points="338.5,-174.26 335,-164.26 331.5,-174.26 338.5,-174.26"/>
</g>
<!-- 12 -->
<g id="node4" class="node">
<title>12</title>
<ellipse fill="none" stroke="black" cx="432" cy="-241" rx="40.09" ry="18"/>
<text text-anchor="middle" x="432" y="-237.3" font-family="Times,serif" font-size="14.00">V1629</text>
</g>
<!-- 30 -->
<g id="node6" class="node">
<title>30</title>
<ellipse fill="none" stroke="black" cx="428" cy="-42" rx="34.39" ry="18"/>
<text text-anchor="middle" x="428" y="-38.3" font-family="Times,serif" font-size="14.00">V536</text>
</g>
<!-- 12&#45;&gt;30 -->
<g id="edge2" class="edge">
<title>12&#45;&gt;30</title>
<path fill="none" stroke="blue" stroke-dasharray="5,2" d="M431.65,-222.86C430.96,-188.66 429.39,-111.69 428.56,-70.4"/>
<polygon fill="blue" stroke="blue" points="432.05,-70.17 428.35,-60.24 425.05,-70.31 432.05,-70.17"/>
</g>
<!-- 24&#45;&gt;35 -->
<g id="edge4" class="edge">
<title>24&#45;&gt;35</title>
<path fill="none" stroke="blue" stroke-width="2" d="M335,-127.7C335,-111.92 335,-88.36 335,-70.09"/>
<polygon fill="blue" stroke="blue" stroke-width="2" points="338.5,-70.05 335,-60.05 331.5,-70.05 338.5,-70.05"/>
<text text-anchor="middle" x="338.5" y="-102" font-family="Times,serif" font-size="10.00">3</text>
</g>
</g>
</svg>
