<?xml version="1.0" encoding="UTF-8" standalone="no"?>
<!DOCTYPE svg PUBLIC "-//W3C//DTD SVG 1.1//EN"
 "http://www.w3.org/Graphics/SVG/1.1/DTD/svg11.dtd">
<!-- Generated by graphviz version 2.43.0 (0)
 -->
<!-- Title: textual_flow_diagram Pages: 1 -->
<svg width="482pt" height="199pt"
 viewBox="0.00 0.00 482.00 199.00" xmlns="http://www.w3.org/2000/svg" xmlns:xlink="http://www.w3.org/1999/xlink">
<g id="graph0" class="graph" transform="scale(1 1) rotate(0) translate(4 195)">
<title>textual_flow_diagram</title>
<polygon fill="white" stroke="transparent" points="-4,4 -4,-195 478,-195 478,4 -4,4"/>
<g id="clust1" class="cluster">
<title>cluster_legend</title>
<polygon fill="none" stroke="black" points="8,-99 8,-153 178,-153 178,-99 8,-99"/>
</g>
<g id="clust2" class="cluster">
<title>cluster_plot</title>
</g>
<g id="clust3" class="cluster">
<title>cluster_a</title>
<polygon fill="none" stroke="black" points="274,-100 274,-175 453,-175 453,-100 274,-100"/>
<text text-anchor="middle" x="363.5" y="-159.8" font-family="Times,serif" font-size="14.00">a</text>
</g>
<g id="clust4" class="cluster">
<title>cluster_b</title>
<polygon fill="none" stroke="black" points="194,-16 194,-91 266,-91 266,-16 194,-16"/>
<text text-anchor="middle" x="230" y="-75.8" font-family="Times,serif" font-size="14.00">b</text>
</g>
<g id="clust5" class="cluster">
<title>cluster_c</title>
<polygon fill="none" stroke="black" points="374,-16 374,-91 458,-91 458,-16 374,-16"/>
<text text-anchor="middle" x="416" y="-75.8" font-family="Times,serif" font-size="14.00">c</text>
</g>
<g id="clust6" class="cluster">
<title>cluster_e</title>
<polygon fill="none" stroke="black" points="274,-16 274,-91 366,-91 366,-16 274,-16"/>
<text text-anchor="middle" x="320" y="-75.8" font-family="Times,serif" font-size="14.00">e</text>
</g>
<!-- label -->
<g id="node1" class="node">
<title>label</title>
<text text-anchor="middle" x="93" y="-129.8" font-family="Times,serif" font-size="14.00">adstag1.3.20U6&#45;10</text>
<text text-anchor="middle" x="93" y="-114.8" font-family="Times,serif" font-size="14.00">Con = 5</text>
</g>
<!-- 10 -->
<g id="node2" class="node">
<title>10</title>
<ellipse fill="none" stroke="black" cx="320" cy="-126" rx="38.19" ry="18"/>
<text text-anchor="middle" x="320" y="-122.3" font-family="Times,serif" font-size="14.00">aBase</text>
</g>
<!-- 26 -->
<g id="node4" class="node">
<title>26</title>
<ellipse fill="none" stroke="black" cx="230" cy="-42" rx="27.9" ry="18"/>
<text text-anchor="middle" x="230" y="-38.3" font-family="Times,serif" font-size="14.00">La2</text>
</g>
<!-- 10&#45;&gt;26 -->
<g id="edge1" class="edge">
<title>10&#45;&gt;26</title>
<path fill="none" stroke="blue" stroke-width="2" d="M297.11,-111.36C288.23,-105.59 278.24,-98.48 270,-91 262.01,-83.75 254.19,-74.89 247.61,-66.77"/>
<polygon fill="blue" stroke="blue" stroke-width="2" points="250.18,-64.37 241.26,-58.66 244.68,-68.69 250.18,-64.37"/>
</g>
<!-- 32 -->
<g id="node6" class="node">
<title>32</title>
<ellipse fill="none" stroke="black" cx="320" cy="-42" rx="37.89" ry="18"/>
<text text-anchor="middle" x="320" y="-38.3" font-family="Times,serif" font-size="14.00">M136</text>
</g>
<!-- 10&#45;&gt;32 -->
<g id="edge2" class="edge">
<title>10&#45;&gt;32</title>
<path fill="none" stroke="blue" stroke-width="2" d="M320,-107.61C320,-96.77 320,-82.6 320,-70.29"/>
<polygon fill="blue" stroke="blue" stroke-width="2" points="323.5,-70.08 320,-60.08 316.5,-70.08 323.5,-70.08"/>
</g>
<!-- 30 -->
<g id="node3" class="node">
<title>30</title>
<ellipse fill="none" stroke="black" cx="411" cy="-126" rx="34.39" ry="18"/>
<text text-anchor="middle" x="411" y="-122.3" font-family="Times,serif" font-size="14.00">V536</text>
</g>
<!-- 41 -->
<g id="node5" class="node">
<title>41</title>
<ellipse fill="none" stroke="black" cx="416" cy="-42" rx="34.39" ry="18"/>
<text text-anchor="middle" x="416" y="-38.3" font-family="Times,serif" font-size="14.00">V568</text>
</g>
<!-- 30&#45;&gt;41 -->
<g id="edge3" class="edge">
<title>30&#45;&gt;41</title>
<path fill="none" stroke="blue" stroke-dasharray="1,5" d="M412.06,-107.61C412.72,-96.77 413.59,-82.6 414.34,-70.29"/>
<polygon fill="blue" stroke="blue" points="417.84,-70.28 414.96,-60.08 410.86,-69.85 417.84,-70.28"/>
</g>
</g>
</svg>
