<?xml version="1.0" encoding="UTF-8" standalone="no"?>
<!DOCTYPE svg PUBLIC "-//W3C//DTD SVG 1.1//EN"
 "http://www.w3.org/Graphics/SVG/1.1/DTD/svg11.dtd">
<!-- Generated by graphviz version 2.43.0 (0)
 -->
<!-- Title: textual_flow_diagram Pages: 1 -->
<svg width="409pt" height="304pt"
 viewBox="0.00 0.00 409.00 304.00" xmlns="http://www.w3.org/2000/svg" xmlns:xlink="http://www.w3.org/1999/xlink">
<g id="graph0" class="graph" transform="scale(1 1) rotate(0) translate(4 300)">
<title>textual_flow_diagram</title>
<polygon fill="white" stroke="transparent" points="-4,4 -4,-300 405,-300 405,4 -4,4"/>
<g id="clust1" class="cluster">
<title>cluster_legend</title>
<polygon fill="none" stroke="black" points="8,-204 8,-258 164,-258 164,-204 8,-204"/>
</g>
<g id="clust2" class="cluster">
<title>cluster_plot</title>
</g>
<g id="clust3" class="cluster">
<title>cluster_a</title>
<polygon fill="none" stroke="black" points="202,-205 202,-280 294,-280 294,-205 202,-205"/>
<text text-anchor="middle" x="248" y="-264.8" font-family="Times,serif" font-size="14.00">a</text>
</g>
<g id="clust4" class="cluster">
<title>cluster_b</title>
<polygon fill="none" stroke="black" points="180,-16 180,-91 363,-91 363,-16 180,-16"/>
<text text-anchor="middle" x="271.5" y="-75.8" font-family="Times,serif" font-size="14.00">b</text>
</g>
<g id="clust5" class="cluster">
<title>cluster_c</title>
<polygon fill="none" stroke="black" points="235,-110 235,-185 385,-185 385,-110 235,-110"/>
<text text-anchor="middle" x="310" y="-169.8" font-family="Times,serif" font-size="14.00">c</text>
</g>
<!-- label -->
<g id="node1" class="node">
<title>label</title>
<text text-anchor="middle" x="86" y="-234.8" font-family="Times,serif" font-size="14.00">adstag1.3.11U30</text>
<text text-anchor="middle" x="86" y="-219.8" font-family="Times,serif" font-size="14.00">Con = 5</text>
</g>
<!-- 40 -->
<g id="node2" class="node">
<title>40</title>
<ellipse fill="none" stroke="black" cx="248" cy="-231" rx="38.19" ry="18"/>
<text text-anchor="middle" x="248" y="-227.3" font-family="Times,serif" font-size="14.00">aBase</text>
</g>
<!-- 27 -->
<g id="node3" class="node">
<title>27</title>
<ellipse fill="none" stroke="black" cx="222" cy="-42" rx="34.39" ry="18"/>
<text text-anchor="middle" x="222" y="-38.3" font-family="Times,serif" font-size="14.00">V560</text>
</g>
<!-- 40&#45;&gt;27 -->
<g id="edge3" class="edge">
<title>40&#45;&gt;27</title>
<path fill="none" stroke="blue" stroke-width="2" d="M224.88,-216.62C213.95,-208.91 202.01,-198.14 196,-185 178.59,-146.91 194.99,-98.04 208.48,-68.69"/>
<polygon fill="blue" stroke="blue" stroke-width="2" points="211.7,-70.06 212.88,-59.54 205.39,-67.03 211.7,-70.06"/>
</g>
<!-- 42 -->
<g id="node4" class="node">
<title>42</title>
<ellipse fill="none" stroke="black" cx="315" cy="-42" rx="40.09" ry="18"/>
<text text-anchor="middle" x="315" y="-38.3" font-family="Times,serif" font-size="14.00">V1897</text>
</g>
<!-- 40&#45;&gt;42 -->
<g id="edge5" class="edge">
<title>40&#45;&gt;42</title>
<path fill="none" stroke="blue" d="M236.81,-213.7C231.83,-205.49 226.53,-195.14 224,-185 215.92,-152.66 206.06,-138.09 224,-110 234.81,-93.07 248.42,-102.33 265,-91 275.19,-84.03 285.25,-74.94 293.63,-66.55"/>
<polygon fill="blue" stroke="blue" points="296.39,-68.74 300.83,-59.12 291.36,-63.87 296.39,-68.74"/>
<text text-anchor="middle" x="227.5" y="-133.5" font-family="Times,serif" font-size="10.00">2</text>
</g>
<!-- 14 -->
<g id="node5" class="node">
<title>14</title>
<ellipse fill="none" stroke="black" cx="271" cy="-136" rx="27.9" ry="18"/>
<text text-anchor="middle" x="271" y="-132.3" font-family="Times,serif" font-size="14.00">La2</text>
</g>
<!-- 40&#45;&gt;14 -->
<g id="edge1" class="edge">
<title>40&#45;&gt;14</title>
<path fill="none" stroke="blue" stroke-width="2" d="M252.22,-212.94C255.62,-199.18 260.47,-179.56 264.39,-163.72"/>
<polygon fill="blue" stroke="blue" stroke-width="2" points="267.8,-164.5 266.81,-153.95 261.01,-162.82 267.8,-164.5"/>
</g>
<!-- 23 -->
<g id="node6" class="node">
<title>23</title>
<ellipse fill="none" stroke="black" cx="347" cy="-136" rx="29.8" ry="18"/>
<text text-anchor="middle" x="347" y="-132.3" font-family="Times,serif" font-size="14.00">Nan</text>
</g>
<!-- 40&#45;&gt;23 -->
<g id="edge2" class="edge">
<title>40&#45;&gt;23</title>
<path fill="none" stroke="blue" d="M269.27,-215.97C281.22,-207.63 296.08,-196.46 308,-185 315.58,-177.71 323.07,-168.97 329.43,-160.95"/>
<polygon fill="blue" stroke="blue" points="332.26,-163.01 335.6,-152.96 326.72,-158.74 332.26,-163.01"/>
</g>
<!-- 23&#45;&gt;42 -->
<g id="edge4" class="edge">
<title>23&#45;&gt;42</title>
<path fill="none" stroke="blue" stroke-dasharray="1,5" d="M341.13,-118.13C336.42,-104.59 329.73,-85.35 324.3,-69.73"/>
<polygon fill="blue" stroke="blue" points="327.53,-68.37 320.94,-60.08 320.92,-70.67 327.53,-68.37"/>
</g>
</g>
</svg>
