<?xml version="1.0" encoding="UTF-8" standalone="no"?>
<!DOCTYPE svg PUBLIC "-//W3C//DTD SVG 1.1//EN"
 "http://www.w3.org/Graphics/SVG/1.1/DTD/svg11.dtd">
<!-- Generated by graphviz version 2.43.0 (0)
 -->
<!-- Title: textual_flow_diagram Pages: 1 -->
<svg width="662pt" height="226pt"
 viewBox="0.00 0.00 662.00 226.29" xmlns="http://www.w3.org/2000/svg" xmlns:xlink="http://www.w3.org/1999/xlink">
<g id="graph0" class="graph" transform="scale(1 1) rotate(0) translate(4 222.29)">
<title>textual_flow_diagram</title>
<polygon fill="white" stroke="transparent" points="-4,4 -4,-222.29 658,-222.29 658,4 -4,4"/>
<g id="clust1" class="cluster">
<title>cluster_legend</title>
<polygon fill="none" stroke="black" points="8,-120 8,-174 186,-174 186,-120 8,-120"/>
</g>
<g id="clust2" class="cluster">
<title>cluster_plot</title>
</g>
<g id="clust3" class="cluster">
<title>cluster_a</title>
<polygon fill="none" stroke="black" points="459,-121 459,-196 638,-196 638,-121 459,-121"/>
<text text-anchor="middle" x="548.5" y="-180.8" font-family="Times,serif" font-size="14.00">a</text>
</g>
<g id="clust4" class="cluster">
<title>cluster_b</title>
<polygon fill="none" stroke="black" points="202,-121 202,-196 451,-196 451,-121 202,-121"/>
<text text-anchor="middle" x="326.5" y="-180.8" font-family="Times,serif" font-size="14.00">b</text>
</g>
<g id="clust5" class="cluster">
<title>cluster_c</title>
<polygon fill="none" stroke="black" points="324,-16 324,-91 420,-91 420,-16 324,-16"/>
<text text-anchor="middle" x="372" y="-75.8" font-family="Times,serif" font-size="14.00">c</text>
</g>
<!-- label -->
<g id="node1" class="node">
<title>label</title>
<text text-anchor="middle" x="97" y="-150.8" font-family="Times,serif" font-size="14.00">adstag1.2.40U26&#45;28</text>
<text text-anchor="middle" x="97" y="-135.8" font-family="Times,serif" font-size="14.00">Con = 5</text>
</g>
<!-- 0 -->
<g id="node2" class="node">
<title>0</title>
<ellipse fill="none" stroke="black" cx="596" cy="-147" rx="34.39" ry="18"/>
<text text-anchor="middle" x="596" y="-143.3" font-family="Times,serif" font-size="14.00">V536</text>
</g>
<!-- 28 -->
<g id="node3" class="node">
<title>28</title>
<ellipse fill="none" stroke="black" cx="505" cy="-147" rx="38.19" ry="18"/>
<text text-anchor="middle" x="505" y="-143.3" font-family="Times,serif" font-size="14.00">aBase</text>
</g>
<!-- 25 -->
<g id="node5" class="node">
<title>25</title>
<ellipse fill="none" stroke="black" cx="316" cy="-147" rx="28.7" ry="18"/>
<text text-anchor="middle" x="316" y="-143.3" font-family="Times,serif" font-size="14.00">A25</text>
</g>
<!-- 28&#45;&gt;25 -->
<g id="edge2" class="edge">
<title>28&#45;&gt;25</title>
<path fill="none" stroke="blue" stroke-dasharray="5,2" d="M495.54,-164.53C485.65,-180.74 468.43,-203.71 446,-213 428.96,-220.06 380.04,-220.06 363,-213 346.16,-206.02 334.32,-189.19 326.74,-174.28"/>
<polygon fill="blue" stroke="blue" points="329.76,-172.46 322.36,-164.87 323.41,-175.41 329.76,-172.46"/>
</g>
<!-- 39 -->
<g id="node7" class="node">
<title>39</title>
<ellipse fill="none" stroke="black" cx="372" cy="-42" rx="40.09" ry="18"/>
<text text-anchor="middle" x="372" y="-38.3" font-family="Times,serif" font-size="14.00">V2250</text>
</g>
<!-- 28&#45;&gt;39 -->
<g id="edge4" class="edge">
<title>28&#45;&gt;39</title>
<path fill="none" stroke="blue" stroke-width="2" d="M485.94,-131.24C463.26,-113.67 425.21,-84.2 399.38,-64.2"/>
<polygon fill="blue" stroke="blue" stroke-width="2" points="401.5,-61.42 391.45,-58.06 397.22,-66.96 401.5,-61.42"/>
<text text-anchor="middle" x="461.5" y="-102" font-family="Times,serif" font-size="10.00">3</text>
</g>
<!-- 8 -->
<g id="node4" class="node">
<title>8</title>
<ellipse fill="none" stroke="black" cx="403" cy="-147" rx="40.09" ry="18"/>
<text text-anchor="middle" x="403" y="-143.3" font-family="Times,serif" font-size="14.00">V1629</text>
</g>
<!-- 8&#45;&gt;0 -->
<g id="edge1" class="edge">
<title>8&#45;&gt;0</title>
<path fill="none" stroke="blue" stroke-dasharray="5,2" d="M412.96,-164.46C423.33,-180.64 441.22,-203.57 464,-213 480.22,-219.72 526.78,-219.72 543,-213 560.76,-205.64 574.22,-188.56 583.12,-173.62"/>
<polygon fill="blue" stroke="blue" points="586.28,-175.15 588.08,-164.7 580.16,-171.75 586.28,-175.15"/>
</g>
<!-- 37 -->
<g id="node6" class="node">
<title>37</title>
<ellipse fill="none" stroke="black" cx="240" cy="-147" rx="29.8" ry="18"/>
<text text-anchor="middle" x="240" y="-143.3" font-family="Times,serif" font-size="14.00">Nan</text>
</g>
<!-- 37&#45;&gt;39 -->
<g id="edge3" class="edge">
<title>37&#45;&gt;39</title>
<path fill="none" stroke="blue" stroke-dasharray="5,2" d="M257.53,-132.32C279.8,-114.94 318.5,-84.75 344.66,-64.33"/>
<polygon fill="blue" stroke="blue" points="346.95,-66.98 352.68,-58.07 342.65,-61.47 346.95,-66.98"/>
</g>
</g>
</svg>
