<?xml version="1.0" encoding="UTF-8" standalone="no"?>
<!DOCTYPE svg PUBLIC "-//W3C//DTD SVG 1.1//EN"
 "http://www.w3.org/Graphics/SVG/1.1/DTD/svg11.dtd">
<!-- Generated by graphviz version 2.43.0 (0)
 -->
<!-- Title: textual_flow_diagram Pages: 1 -->
<svg width="368pt" height="199pt"
 viewBox="0.00 0.00 368.00 199.00" xmlns="http://www.w3.org/2000/svg" xmlns:xlink="http://www.w3.org/1999/xlink">
<g id="graph0" class="graph" transform="scale(1 1) rotate(0) translate(4 195)">
<title>textual_flow_diagram</title>
<polygon fill="white" stroke="transparent" points="-4,4 -4,-195 364,-195 364,4 -4,4"/>
<g id="clust1" class="cluster">
<title>cluster_legend</title>
<polygon fill="none" stroke="black" points="8,-99 8,-153 164,-153 164,-99 8,-99"/>
</g>
<g id="clust2" class="cluster">
<title>cluster_plot</title>
</g>
<g id="clust3" class="cluster">
<title>cluster_a</title>
<polygon fill="none" stroke="black" points="180,-100 180,-175 344,-175 344,-100 180,-100"/>
<text text-anchor="middle" x="262" y="-159.8" font-family="Times,serif" font-size="14.00">a</text>
</g>
<g id="clust4" class="cluster">
<title>cluster_b</title>
<polygon fill="none" stroke="black" points="189,-16 189,-91 344,-91 344,-16 189,-16"/>
<text text-anchor="middle" x="266.5" y="-75.8" font-family="Times,serif" font-size="14.00">b</text>
</g>
<!-- label -->
<g id="node1" class="node">
<title>label</title>
<text text-anchor="middle" x="86" y="-129.8" font-family="Times,serif" font-size="14.00">adstag1.2.40U18</text>
<text text-anchor="middle" x="86" y="-114.8" font-family="Times,serif" font-size="14.00">Con = 5</text>
</g>
<!-- 12 -->
<g id="node2" class="node">
<title>12</title>
<ellipse fill="none" stroke="black" cx="309" cy="-126" rx="27" ry="18"/>
<text text-anchor="middle" x="309" y="-122.3" font-family="Times,serif" font-size="14.00">Sin</text>
</g>
<!-- 28 -->
<g id="node3" class="node">
<title>28</title>
<ellipse fill="none" stroke="black" cx="226" cy="-126" rx="38.19" ry="18"/>
<text text-anchor="middle" x="226" y="-122.3" font-family="Times,serif" font-size="14.00">aBase</text>
</g>
<!-- 25 -->
<g id="node4" class="node">
<title>25</title>
<ellipse fill="none" stroke="black" cx="226" cy="-42" rx="28.7" ry="18"/>
<text text-anchor="middle" x="226" y="-38.3" font-family="Times,serif" font-size="14.00">A25</text>
</g>
<!-- 28&#45;&gt;25 -->
<g id="edge2" class="edge">
<title>28&#45;&gt;25</title>
<path fill="none" stroke="blue" stroke-dasharray="5,2" d="M226,-107.61C226,-96.77 226,-82.6 226,-70.29"/>
<polygon fill="blue" stroke="blue" points="229.5,-70.08 226,-60.08 222.5,-70.08 229.5,-70.08"/>
</g>
<!-- 38 -->
<g id="node5" class="node">
<title>38</title>
<ellipse fill="none" stroke="black" cx="304" cy="-42" rx="31.7" ry="18"/>
<text text-anchor="middle" x="304" y="-38.3" font-family="Times,serif" font-size="14.00">Taur</text>
</g>
<!-- 38&#45;&gt;12 -->
<g id="edge1" class="edge">
<title>38&#45;&gt;12</title>
<path fill="none" stroke="blue" stroke-dasharray="1,5" d="M305.05,-60.25C305.71,-71.12 306.58,-85.38 307.34,-97.76"/>
<polygon fill="blue" stroke="blue" points="303.86,-98.24 307.96,-108.01 310.85,-97.82 303.86,-98.24"/>
</g>
</g>
</svg>
