<?xml version="1.0" encoding="UTF-8" standalone="no"?>
<!DOCTYPE svg PUBLIC "-//W3C//DTD SVG 1.1//EN"
 "http://www.w3.org/Graphics/SVG/1.1/DTD/svg11.dtd">
<!-- Generated by graphviz version 2.43.0 (0)
 -->
<!-- Title: textual_flow_diagram Pages: 1 -->
<svg width="721pt" height="199pt"
 viewBox="0.00 0.00 721.00 199.00" xmlns="http://www.w3.org/2000/svg" xmlns:xlink="http://www.w3.org/1999/xlink">
<g id="graph0" class="graph" transform="scale(1 1) rotate(0) translate(4 195)">
<title>textual_flow_diagram</title>
<polygon fill="white" stroke="transparent" points="-4,4 -4,-195 717,-195 717,4 -4,4"/>
<g id="clust1" class="cluster">
<title>cluster_legend</title>
<polygon fill="none" stroke="black" points="8,-99 8,-153 164,-153 164,-99 8,-99"/>
</g>
<g id="clust2" class="cluster">
<title>cluster_plot</title>
</g>
<g id="clust3" class="cluster">
<title>cluster_a</title>
<polygon fill="none" stroke="black" points="258,-100 258,-175 697,-175 697,-100 258,-100"/>
<text text-anchor="middle" x="477.5" y="-159.8" font-family="Times,serif" font-size="14.00">a</text>
</g>
<g id="clust4" class="cluster">
<title>cluster_b</title>
<polygon fill="none" stroke="black" points="180,-16 180,-91 697,-91 697,-16 180,-16"/>
<text text-anchor="middle" x="438.5" y="-75.8" font-family="Times,serif" font-size="14.00">b</text>
</g>
<!-- label -->
<g id="node1" class="node">
<title>label</title>
<text text-anchor="middle" x="86" y="-129.8" font-family="Times,serif" font-size="14.00">adstag1.2.40U58</text>
<text text-anchor="middle" x="86" y="-114.8" font-family="Times,serif" font-size="14.00">Con = 3</text>
</g>
<!-- 2 -->
<g id="node2" class="node">
<title>2</title>
<ellipse fill="none" stroke="black" cx="655" cy="-126" rx="34.39" ry="18"/>
<text text-anchor="middle" x="655" y="-122.3" font-family="Times,serif" font-size="14.00">V560</text>
</g>
<!-- 12 -->
<g id="node9" class="node">
<title>12</title>
<ellipse fill="none" stroke="black" cx="649" cy="-42" rx="40.09" ry="18"/>
<text text-anchor="middle" x="649" y="-38.3" font-family="Times,serif" font-size="14.00">V1920</text>
</g>
<!-- 2&#45;&gt;12 -->
<g id="edge3" class="edge">
<title>2&#45;&gt;12</title>
<path fill="none" stroke="blue" stroke-dasharray="5,2" d="M653.76,-108.01C652.97,-97.2 651.92,-82.95 651.02,-70.54"/>
<polygon fill="blue" stroke="blue" points="654.48,-69.97 650.26,-60.25 647.5,-70.48 654.48,-69.97"/>
</g>
<!-- 7 -->
<g id="node3" class="node">
<title>7</title>
<ellipse fill="none" stroke="black" cx="562" cy="-126" rx="40.09" ry="18"/>
<text text-anchor="middle" x="562" y="-122.3" font-family="Times,serif" font-size="14.00">V1897</text>
</g>
<!-- 5 -->
<g id="node8" class="node">
<title>5</title>
<ellipse fill="none" stroke="black" cx="564" cy="-42" rx="27" ry="18"/>
<text text-anchor="middle" x="564" y="-38.3" font-family="Times,serif" font-size="14.00">Est</text>
</g>
<!-- 7&#45;&gt;5 -->
<g id="edge2" class="edge">
<title>7&#45;&gt;5</title>
<path fill="none" stroke="blue" stroke-dasharray="1,5" d="M562.42,-107.61C562.69,-96.77 563.03,-82.6 563.33,-70.29"/>
<polygon fill="blue" stroke="blue" points="566.84,-70.17 563.58,-60.08 559.84,-70 566.84,-70.17"/>
</g>
<!-- 11 -->
<g id="node4" class="node">
<title>11</title>
<ellipse fill="none" stroke="black" cx="465" cy="-126" rx="38.19" ry="18"/>
<text text-anchor="middle" x="465" y="-122.3" font-family="Times,serif" font-size="14.00">aBase</text>
</g>
<!-- 17 -->
<g id="node10" class="node">
<title>17</title>
<ellipse fill="none" stroke="black" cx="484" cy="-42" rx="35.19" ry="18"/>
<text text-anchor="middle" x="484" y="-38.3" font-family="Times,serif" font-size="14.00">Neap</text>
</g>
<!-- 11&#45;&gt;17 -->
<g id="edge4" class="edge">
<title>11&#45;&gt;17</title>
<path fill="none" stroke="blue" stroke-width="2" d="M468.94,-108.01C471.48,-97.01 474.86,-82.46 477.76,-69.92"/>
<polygon fill="blue" stroke="blue" stroke-width="2" points="481.22,-70.5 480.07,-59.97 474.4,-68.92 481.22,-70.5"/>
</g>
<!-- 22 -->
<g id="node5" class="node">
<title>22</title>
<ellipse fill="none" stroke="black" cx="380" cy="-126" rx="28.7" ry="18"/>
<text text-anchor="middle" x="380" y="-122.3" font-family="Times,serif" font-size="14.00">A25</text>
</g>
<!-- 1 -->
<g id="node7" class="node">
<title>1</title>
<ellipse fill="none" stroke="black" cx="396" cy="-42" rx="34.39" ry="18"/>
<text text-anchor="middle" x="396" y="-38.3" font-family="Times,serif" font-size="14.00">Patm</text>
</g>
<!-- 22&#45;&gt;1 -->
<g id="edge1" class="edge">
<title>22&#45;&gt;1</title>
<path fill="none" stroke="blue" stroke-dasharray="1,5" d="M383.32,-108.01C385.46,-97.01 388.3,-82.46 390.75,-69.92"/>
<polygon fill="blue" stroke="blue" points="394.21,-70.45 392.69,-59.97 387.34,-69.11 394.21,-70.45"/>
</g>
<!-- 26 -->
<g id="node6" class="node">
<title>26</title>
<ellipse fill="none" stroke="black" cx="300" cy="-126" rx="33.6" ry="18"/>
<text text-anchor="middle" x="300" y="-122.3" font-family="Times,serif" font-size="14.00">La22</text>
</g>
<!-- 18 -->
<g id="node11" class="node">
<title>18</title>
<ellipse fill="none" stroke="black" cx="309" cy="-42" rx="34.39" ry="18"/>
<text text-anchor="middle" x="309" y="-38.3" font-family="Times,serif" font-size="14.00">V565</text>
</g>
<!-- 26&#45;&gt;18 -->
<g id="edge5" class="edge">
<title>26&#45;&gt;18</title>
<path fill="none" stroke="blue" stroke-dasharray="5,2" d="M301.86,-108.01C303.05,-97.2 304.62,-82.95 305.98,-70.54"/>
<polygon fill="blue" stroke="blue" points="309.49,-70.57 307.11,-60.25 302.54,-69.81 309.49,-70.57"/>
</g>
<!-- 38 -->
<g id="node12" class="node">
<title>38</title>
<ellipse fill="none" stroke="black" cx="222" cy="-42" rx="34.39" ry="18"/>
<text text-anchor="middle" x="222" y="-38.3" font-family="Times,serif" font-size="14.00">A116</text>
</g>
<!-- 26&#45;&gt;38 -->
<g id="edge6" class="edge">
<title>26&#45;&gt;38</title>
<path fill="none" stroke="blue" stroke-dasharray="5,2" d="M284.62,-109.91C278.74,-104.06 272,-97.27 266,-91 258.38,-83.04 250.18,-74.18 242.95,-66.26"/>
<polygon fill="blue" stroke="blue" points="245.41,-63.77 236.1,-58.72 240.23,-68.48 245.41,-63.77"/>
</g>
</g>
</svg>
