<?xml version="1.0" encoding="UTF-8" standalone="no"?>
<!DOCTYPE svg PUBLIC "-//W3C//DTD SVG 1.1//EN"
 "http://www.w3.org/Graphics/SVG/1.1/DTD/svg11.dtd">
<!-- Generated by graphviz version 2.43.0 (0)
 -->
<!-- Title: textual_flow_diagram Pages: 1 -->
<svg width="1040pt" height="520pt"
 viewBox="0.00 0.00 1040.00 520.00" xmlns="http://www.w3.org/2000/svg" xmlns:xlink="http://www.w3.org/1999/xlink">
<g id="graph0" class="graph" transform="scale(1 1) rotate(0) translate(4 516)">
<title>textual_flow_diagram</title>
<polygon fill="white" stroke="transparent" points="-4,4 -4,-516 1036,-516 1036,4 -4,4"/>
<g id="clust1" class="cluster">
<title>cluster_legend</title>
<polygon fill="none" stroke="black" points="8,-397 8,-451 164,-451 164,-397 8,-397"/>
</g>
<g id="clust2" class="cluster">
<title>cluster_plot</title>
</g>
<g id="clust3" class="cluster">
<title>cluster_a</title>
<polygon fill="none" stroke="black" points="411,-398 411,-496 751,-496 751,-398 411,-398"/>
<text text-anchor="middle" x="581" y="-480.8" font-family="Times,serif" font-size="14.00">a</text>
</g>
<g id="clust4" class="cluster">
<title>cluster_b</title>
<polygon fill="none" stroke="black" points="421,-143 421,-241 862,-241 862,-143 421,-143"/>
<text text-anchor="middle" x="641.5" y="-225.8" font-family="Times,serif" font-size="14.00">b</text>
</g>
<g id="clust5" class="cluster">
<title>cluster_c</title>
<polygon fill="none" stroke="black" points="484,-270 484,-368 568,-368 568,-270 484,-270"/>
<text text-anchor="middle" x="526" y="-352.8" font-family="Times,serif" font-size="14.00">c</text>
</g>
<g id="clust6" class="cluster">
<title>cluster_d</title>
<polygon fill="none" stroke="black" points="576,-270 576,-368 944,-368 944,-270 576,-270"/>
<text text-anchor="middle" x="760" y="-352.8" font-family="Times,serif" font-size="14.00">d</text>
</g>
<g id="clust7" class="cluster">
<title>cluster_e</title>
<polygon fill="none" stroke="black" points="944,-16 944,-114 1016,-114 1016,-16 944,-16"/>
<text text-anchor="middle" x="980" y="-98.8" font-family="Times,serif" font-size="14.00">e</text>
</g>
<g id="clust8" class="cluster">
<title>cluster_f</title>
<polygon fill="none" stroke="black" points="255,-270 255,-368 422,-368 422,-270 255,-270"/>
<text text-anchor="middle" x="338.5" y="-352.8" font-family="Times,serif" font-size="14.00">f</text>
</g>
<g id="clust9" class="cluster">
<title>cluster_g</title>
<polygon fill="none" stroke="black" points="692,-16 692,-114 936,-114 936,-16 692,-16"/>
<text text-anchor="middle" x="814" y="-98.8" font-family="Times,serif" font-size="14.00">g</text>
</g>
<g id="clust10" class="cluster">
<title>cluster_h</title>
<polygon fill="none" stroke="black" points="292,-143 292,-241 376,-241 376,-143 292,-143"/>
<text text-anchor="middle" x="334" y="-225.8" font-family="Times,serif" font-size="14.00">h</text>
</g>
<g id="clust11" class="cluster">
<title>cluster_i</title>
<polygon fill="none" stroke="black" points="192,-143 192,-241 284,-241 284,-143 192,-143"/>
<text text-anchor="middle" x="238" y="-225.8" font-family="Times,serif" font-size="14.00">i</text>
</g>
<!-- label -->
<g id="node1" class="node">
<title>label</title>
<text text-anchor="middle" x="86" y="-427.8" font-family="Times,serif" font-size="14.00">adstag1.3.59U74</text>
<text text-anchor="middle" x="86" y="-412.8" font-family="Times,serif" font-size="14.00">Con = 5</text>
</g>
<!-- 5 -->
<g id="node2" class="node">
<title>5</title>
<ellipse fill="none" stroke="black" cx="453" cy="-424" rx="33.6" ry="18"/>
<text text-anchor="middle" x="453" y="-420.3" font-family="Times,serif" font-size="14.00">La22</text>
</g>
<!-- 6 -->
<g id="node6" class="node">
<title>6</title>
<ellipse fill="none" stroke="black" cx="463" cy="-169" rx="34.39" ry="18"/>
<text text-anchor="middle" x="463" y="-165.3" font-family="Times,serif" font-size="14.00">V565</text>
</g>
<!-- 5&#45;&gt;6 -->
<g id="edge4" class="edge">
<title>5&#45;&gt;6</title>
<path fill="none" stroke="blue" stroke-dasharray="5,2" d="M450.12,-405.84C449.26,-399.89 448.43,-393.17 448,-387 443.77,-325.81 442.18,-309.95 449,-249 450.93,-231.73 454.31,-212.54 457.26,-197.4"/>
<polygon fill="blue" stroke="blue" points="460.77,-197.66 459.3,-187.17 453.91,-196.29 460.77,-197.66"/>
</g>
<!-- 24 -->
<g id="node9" class="node">
<title>24</title>
<ellipse fill="none" stroke="black" cx="550" cy="-169" rx="34.39" ry="18"/>
<text text-anchor="middle" x="550" y="-165.3" font-family="Times,serif" font-size="14.00">A116</text>
</g>
<!-- 5&#45;&gt;24 -->
<g id="edge25" class="edge">
<title>5&#45;&gt;24</title>
<path fill="none" stroke="blue" stroke-dasharray="5,2" d="M452.43,-405.73C451.34,-367.94 449.75,-280.42 458,-270 468.57,-256.65 481.37,-270.22 495,-260 516.53,-243.86 531.47,-216.6 540.29,-196.29"/>
<polygon fill="blue" stroke="blue" points="543.55,-197.55 544.12,-186.97 537.08,-194.88 543.55,-197.55"/>
</g>
<!-- 9 -->
<g id="node13" class="node">
<title>9</title>
<ellipse fill="none" stroke="black" cx="618" cy="-296" rx="33.6" ry="18"/>
<text text-anchor="middle" x="618" y="-292.3" font-family="Times,serif" font-size="14.00">La35</text>
</g>
<!-- 5&#45;&gt;9 -->
<g id="edge9" class="edge">
<title>5&#45;&gt;9</title>
<path fill="none" stroke="blue" stroke-dasharray="1,5" d="M472.33,-409.07C479.21,-404.66 487.19,-400.12 495,-397 515.24,-388.92 522.87,-395.34 543,-387 557.24,-381.1 561.13,-378.92 572,-368 585.26,-354.68 596.75,-336.93 604.94,-322.52"/>
<polygon fill="blue" stroke="blue" points="608.09,-324.05 609.82,-313.6 601.95,-320.69 608.09,-324.05"/>
</g>
<!-- 37 -->
<g id="node18" class="node">
<title>37</title>
<ellipse fill="none" stroke="black" cx="301" cy="-296" rx="37.89" ry="18"/>
<text text-anchor="middle" x="301" y="-292.3" font-family="Times,serif" font-size="14.00">M111</text>
</g>
<!-- 5&#45;&gt;37 -->
<g id="edge31" class="edge">
<title>5&#45;&gt;37</title>
<path fill="none" stroke="blue" stroke-dasharray="1,5" d="M425.37,-413.27C402.46,-404.2 370.02,-388.91 347,-368 333,-355.28 321.44,-337.39 313.41,-322.75"/>
<polygon fill="blue" stroke="blue" points="316.4,-320.92 308.66,-313.69 310.2,-324.17 316.4,-320.92"/>
</g>
<!-- 32 -->
<g id="node21" class="node">
<title>32</title>
<ellipse fill="none" stroke="black" cx="732" cy="-42" rx="31.7" ry="18"/>
<text text-anchor="middle" x="732" y="-38.3" font-family="Times,serif" font-size="14.00">Bodl</text>
</g>
<!-- 5&#45;&gt;32 -->
<g id="edge28" class="edge">
<title>5&#45;&gt;32</title>
<path fill="none" stroke="blue" stroke-dasharray="5,2" d="M419.37,-421.61C354.69,-418.08 217.28,-406.16 194,-368 141.9,-282.6 123.98,-219.86 188,-143 252.14,-65.99 573.35,-48.08 689.77,-44.09"/>
<polygon fill="blue" stroke="blue" points="690.18,-47.58 700.06,-43.76 689.96,-40.59 690.18,-47.58"/>
</g>
<!-- 41 -->
<g id="node22" class="node">
<title>41</title>
<ellipse fill="none" stroke="black" cx="334" cy="-169" rx="34.39" ry="18"/>
<text text-anchor="middle" x="334" y="-165.3" font-family="Times,serif" font-size="14.00">A336</text>
</g>
<!-- 5&#45;&gt;41 -->
<g id="edge35" class="edge">
<title>5&#45;&gt;41</title>
<path fill="none" stroke="blue" stroke-dasharray="5,2" d="M420.3,-419.22C367.07,-412.32 265.42,-395.78 244,-368 217.41,-333.5 221.49,-307.29 244,-270 248.93,-261.83 254.95,-265.13 263,-260 274.77,-252.5 278.51,-251.23 288,-241 300.7,-227.31 312.13,-209.7 320.42,-195.45"/>
<polygon fill="blue" stroke="blue" points="323.53,-197.07 325.4,-186.64 317.43,-193.63 323.53,-197.07"/>
<text text-anchor="middle" x="247.5" y="-293.5" font-family="Times,serif" font-size="10.00">2</text>
</g>
<!-- 12 -->
<g id="node3" class="node">
<title>12</title>
<ellipse fill="none" stroke="black" cx="709" cy="-424" rx="34.39" ry="18"/>
<text text-anchor="middle" x="709" y="-420.3" font-family="Times,serif" font-size="14.00">V566</text>
</g>
<!-- 8 -->
<g id="node12" class="node">
<title>8</title>
<ellipse fill="none" stroke="black" cx="896" cy="-296" rx="40.09" ry="18"/>
<text text-anchor="middle" x="896" y="-292.3" font-family="Times,serif" font-size="14.00">V1639</text>
</g>
<!-- 12&#45;&gt;8 -->
<g id="edge7" class="edge">
<title>12&#45;&gt;8</title>
<path fill="none" stroke="blue" stroke-dasharray="1,5" d="M739.9,-416.04C769.5,-408.19 814.25,-393.13 846,-368 861.47,-355.76 874.19,-337.48 882.92,-322.54"/>
<polygon fill="blue" stroke="blue" points="886.01,-324.19 887.84,-313.75 879.9,-320.77 886.01,-324.19"/>
</g>
<!-- 20 -->
<g id="node4" class="node">
<title>20</title>
<ellipse fill="none" stroke="black" cx="618" cy="-424" rx="38.19" ry="18"/>
<text text-anchor="middle" x="618" y="-420.3" font-family="Times,serif" font-size="14.00">aBase</text>
</g>
<!-- 10 -->
<g id="node7" class="node">
<title>10</title>
<ellipse fill="none" stroke="black" cx="816" cy="-169" rx="37.89" ry="18"/>
<text text-anchor="middle" x="816" y="-165.3" font-family="Times,serif" font-size="14.00">LaSM</text>
</g>
<!-- 20&#45;&gt;10 -->
<g id="edge11" class="edge">
<title>20&#45;&gt;10</title>
<path fill="none" stroke="blue" d="M639.66,-408.92C647.64,-404.37 656.94,-399.8 666,-397 726.19,-378.42 905.79,-414.77 948,-368 977.18,-335.66 973.41,-305.38 948,-270 936.24,-253.62 877.93,-253.37 862,-241 846.97,-229.32 835.37,-211.27 827.57,-196.29"/>
<polygon fill="blue" stroke="blue" points="830.56,-194.42 823.01,-186.99 824.27,-197.51 830.56,-194.42"/>
</g>
<!-- 22 -->
<g id="node8" class="node">
<title>22</title>
<ellipse fill="none" stroke="black" cx="632" cy="-169" rx="29.8" ry="18"/>
<text text-anchor="middle" x="632" y="-165.3" font-family="Times,serif" font-size="14.00">Nan</text>
</g>
<!-- 20&#45;&gt;22 -->
<g id="edge23" class="edge">
<title>20&#45;&gt;22</title>
<path fill="none" stroke="blue" d="M596.25,-408.96C588.54,-404.54 579.63,-400.02 571,-397 530.93,-382.98 501,-404.89 480,-368 458.45,-330.15 452.26,-303.58 480,-270 494.99,-251.86 509.17,-265.73 532,-260 559.54,-253.09 571.01,-258.97 593,-241 607.2,-229.39 617.06,-211.18 623.31,-196.11"/>
<polygon fill="blue" stroke="blue" points="626.58,-197.35 626.9,-186.76 620.05,-194.84 626.58,-197.35"/>
</g>
<!-- 15 -->
<g id="node11" class="node">
<title>15</title>
<ellipse fill="none" stroke="black" cx="526" cy="-296" rx="34.39" ry="18"/>
<text text-anchor="middle" x="526" y="-292.3" font-family="Times,serif" font-size="14.00">V560</text>
</g>
<!-- 20&#45;&gt;15 -->
<g id="edge16" class="edge">
<title>20&#45;&gt;15</title>
<path fill="none" stroke="blue" stroke-width="2" d="M603.78,-407.05C594.41,-396.29 582.05,-381.62 572,-368 561.06,-353.17 549.79,-335.81 541.14,-321.97"/>
<polygon fill="blue" stroke="blue" stroke-width="2" points="544.1,-320.11 535.87,-313.45 538.15,-323.8 544.1,-320.11"/>
</g>
<!-- 13 -->
<g id="node14" class="node">
<title>13</title>
<ellipse fill="none" stroke="black" cx="797" cy="-296" rx="40.09" ry="18"/>
<text text-anchor="middle" x="797" y="-292.3" font-family="Times,serif" font-size="14.00">V2036</text>
</g>
<!-- 20&#45;&gt;13 -->
<g id="edge15" class="edge">
<title>20&#45;&gt;13</title>
<path fill="none" stroke="blue" d="M641.08,-409.58C648.87,-405.29 657.69,-400.71 666,-397 700.91,-381.4 716.57,-391.16 747,-368 762.7,-356.05 775.41,-337.77 784.09,-322.75"/>
<polygon fill="blue" stroke="blue" points="787.2,-324.35 788.96,-313.91 781.07,-320.98 787.2,-324.35"/>
</g>
<!-- 42 -->
<g id="node15" class="node">
<title>42</title>
<ellipse fill="none" stroke="black" cx="704" cy="-296" rx="34.39" ry="18"/>
<text text-anchor="middle" x="704" y="-292.3" font-family="Times,serif" font-size="14.00">S249</text>
</g>
<!-- 20&#45;&gt;42 -->
<g id="edge37" class="edge">
<title>20&#45;&gt;42</title>
<path fill="none" stroke="blue" d="M631.32,-407.02C640.09,-396.24 651.64,-381.57 661,-368 671.18,-353.26 681.61,-336.09 689.65,-322.33"/>
<polygon fill="blue" stroke="blue" points="692.82,-323.83 694.8,-313.42 686.76,-320.32 692.82,-323.83"/>
</g>
<!-- 40 -->
<g id="node16" class="node">
<title>40</title>
<ellipse fill="none" stroke="black" cx="980" cy="-42" rx="27.9" ry="18"/>
<text text-anchor="middle" x="980" y="-38.3" font-family="Times,serif" font-size="14.00">Bas</text>
</g>
<!-- 20&#45;&gt;40 -->
<g id="edge33" class="edge">
<title>20&#45;&gt;40</title>
<path fill="none" stroke="blue" stroke-width="2" d="M639.09,-408.85C647.16,-404.18 656.67,-399.54 666,-397 726.29,-380.57 887.77,-406.92 947,-387 960.91,-382.32 967.12,-380.96 974,-368 1026.56,-268.99 1001.17,-127.96 987.15,-69.73"/>
<polygon fill="blue" stroke="blue" stroke-width="2" points="990.5,-68.7 984.68,-59.85 983.71,-70.4 990.5,-68.7"/>
<text text-anchor="middle" x="1007.5" y="-252" font-family="Times,serif" font-size="10.00">3</text>
</g>
<!-- 0 -->
<g id="node19" class="node">
<title>0</title>
<ellipse fill="none" stroke="black" cx="817" cy="-42" rx="35.19" ry="18"/>
<text text-anchor="middle" x="817" y="-38.3" font-family="Times,serif" font-size="14.00">Neap</text>
</g>
<!-- 20&#45;&gt;0 -->
<g id="edge1" class="edge">
<title>20&#45;&gt;0</title>
<path fill="none" stroke="blue" stroke-width="2" d="M639.09,-408.86C647.16,-404.2 656.68,-399.55 666,-397 722.41,-381.56 872.69,-402.81 929,-387 945.67,-382.32 954.24,-382.93 963,-368 985.04,-330.43 973.34,-312.31 963,-270 947.9,-208.21 937.29,-192.22 897,-143 883.99,-127.1 874.61,-129.4 861,-114 848.91,-100.32 838.06,-82.91 830.17,-68.76"/>
<polygon fill="blue" stroke="blue" stroke-width="2" points="833.03,-66.7 825.19,-59.57 826.87,-70.03 833.03,-66.7"/>
</g>
<!-- 16 -->
<g id="node23" class="node">
<title>16</title>
<ellipse fill="none" stroke="black" cx="238" cy="-169" rx="37.89" ry="18"/>
<text text-anchor="middle" x="238" y="-165.3" font-family="Times,serif" font-size="14.00">M136</text>
</g>
<!-- 20&#45;&gt;16 -->
<g id="edge17" class="edge">
<title>20&#45;&gt;16</title>
<path fill="none" stroke="blue" stroke-width="2" d="M596.85,-408.81C589.05,-404.26 579.92,-399.7 571,-397 496.3,-374.39 274.39,-424.93 221,-368 177.19,-321.29 205.85,-238.22 224.92,-196.08"/>
<polygon fill="blue" stroke="blue" stroke-width="2" points="228.21,-197.31 229.28,-186.77 221.87,-194.34 228.21,-197.31"/>
</g>
<!-- 33 -->
<g id="node5" class="node">
<title>33</title>
<ellipse fill="none" stroke="black" cx="533" cy="-424" rx="28.7" ry="18"/>
<text text-anchor="middle" x="533" y="-420.3" font-family="Times,serif" font-size="14.00">A25</text>
</g>
<!-- 17 -->
<g id="node17" class="node">
<title>17</title>
<ellipse fill="none" stroke="black" cx="385" cy="-296" rx="28.7" ry="18"/>
<text text-anchor="middle" x="385" y="-292.3" font-family="Times,serif" font-size="14.00">P01</text>
</g>
<!-- 33&#45;&gt;17 -->
<g id="edge21" class="edge">
<title>33&#45;&gt;17</title>
<path fill="none" stroke="blue" stroke-dasharray="5,2" d="M516.11,-409.17C510.06,-404.76 503,-400.2 496,-397 479.33,-389.38 471.39,-396.95 456,-387 430.93,-370.79 410.86,-342.67 398.54,-322.17"/>
<polygon fill="blue" stroke="blue" points="401.47,-320.25 393.43,-313.35 395.42,-323.76 401.47,-320.25"/>
</g>
<!-- 11 -->
<g id="node20" class="node">
<title>11</title>
<ellipse fill="none" stroke="black" cx="899" cy="-42" rx="28.7" ry="18"/>
<text text-anchor="middle" x="899" y="-38.3" font-family="Times,serif" font-size="14.00">S32</text>
</g>
<!-- 33&#45;&gt;11 -->
<g id="edge14" class="edge">
<title>33&#45;&gt;11</title>
<path fill="none" stroke="blue" stroke-dasharray="5,2" d="M549.36,-409.03C555.71,-404.38 563.31,-399.71 571,-397 650.26,-369.1 890.91,-429.65 948,-368 988.1,-324.69 931.39,-139.13 908.15,-69.52"/>
<polygon fill="blue" stroke="blue" points="911.37,-68.11 904.85,-59.75 904.73,-70.35 911.37,-68.11"/>
</g>
<!-- 22&#45;&gt;0 -->
<g id="edge3" class="edge">
<title>22&#45;&gt;0</title>
<path fill="none" stroke="blue" d="M649.28,-154.26C655.74,-149.87 663.36,-145.51 671,-143 687.29,-137.65 813.27,-145.51 825,-133 840.69,-116.26 835.84,-89.26 828.8,-69.2"/>
<polygon fill="blue" stroke="blue" points="832,-67.77 825.13,-59.7 825.47,-70.29 832,-67.77"/>
<text text-anchor="middle" x="834.5" y="-125" font-family="Times,serif" font-size="10.00">3</text>
</g>
<!-- 26 -->
<g id="node10" class="node">
<title>26</title>
<ellipse fill="none" stroke="black" cx="720" cy="-169" rx="40.09" ry="18"/>
<text text-anchor="middle" x="720" y="-165.3" font-family="Times,serif" font-size="14.00">V1897</text>
</g>
<!-- 26&#45;&gt;40 -->
<g id="edge32" class="edge">
<title>26&#45;&gt;40</title>
<path fill="none" stroke="blue" d="M743.24,-154.13C751.17,-149.95 760.25,-145.74 769,-143 842.55,-119.93 877.47,-159.08 940,-114 955.06,-103.14 965.19,-84.75 971.49,-69.41"/>
<polygon fill="blue" stroke="blue" points="974.83,-70.47 975.09,-59.88 968.28,-68 974.83,-70.47"/>
</g>
<!-- 8&#45;&gt;22 -->
<g id="edge24" class="edge">
<title>8&#45;&gt;22</title>
<path fill="none" stroke="blue" stroke-dasharray="5,2" d="M872.85,-281.07C864.65,-276.78 855.17,-272.53 846,-270 769.99,-249.06 728.36,-295.08 671,-241 657.95,-228.69 648.22,-211.02 641.74,-196.39"/>
<polygon fill="blue" stroke="blue" points="644.85,-194.74 637.78,-186.85 638.38,-197.42 644.85,-194.74"/>
<text text-anchor="middle" x="700.5" y="-252" font-family="Times,serif" font-size="10.00">4</text>
</g>
<!-- 9&#45;&gt;6 -->
<g id="edge6" class="edge">
<title>9&#45;&gt;6</title>
<path fill="none" stroke="blue" stroke-dasharray="1,5" d="M597.27,-281.39C589.62,-277.02 580.7,-272.63 572,-270 548.08,-262.77 476.87,-278.44 460,-260 444.63,-243.2 447.72,-216.39 453.24,-196.4"/>
<polygon fill="blue" stroke="blue" points="456.64,-197.24 456.26,-186.65 449.96,-195.17 456.64,-197.24"/>
<text text-anchor="middle" x="463.5" y="-252" font-family="Times,serif" font-size="10.00">3</text>
</g>
<!-- 9&#45;&gt;10 -->
<g id="edge13" class="edge">
<title>9&#45;&gt;10</title>
<path fill="none" stroke="blue" stroke-dasharray="5,2" d="M637.74,-281.22C644.78,-276.94 652.96,-272.65 661,-270 699.22,-257.39 714.96,-277.92 751,-260 777.19,-246.97 795.17,-217.76 805.47,-196.14"/>
<polygon fill="blue" stroke="blue" points="808.75,-197.37 809.67,-186.82 802.37,-194.5 808.75,-197.37"/>
<text text-anchor="middle" x="768.5" y="-252" font-family="Times,serif" font-size="10.00">5</text>
</g>
<!-- 9&#45;&gt;24 -->
<g id="edge26" class="edge">
<title>9&#45;&gt;24</title>
<path fill="none" stroke="blue" stroke-dasharray="1,5" d="M608.97,-278.4C597.44,-257.2 577.36,-220.3 563.88,-195.52"/>
<polygon fill="blue" stroke="blue" points="566.92,-193.78 559.07,-186.67 560.77,-197.12 566.92,-193.78"/>
<text text-anchor="middle" x="600.5" y="-252" font-family="Times,serif" font-size="10.00">2</text>
</g>
<!-- 9&#45;&gt;17 -->
<g id="edge22" class="edge">
<title>9&#45;&gt;17</title>
<path fill="none" stroke="blue" stroke-dasharray="1,5" d="M611.96,-313.81C605.17,-330.68 592.35,-355.02 572,-366 523.5,-392.17 498.34,-388.42 448,-366 427.58,-356.91 411.01,-337.57 399.99,-321.52"/>
<polygon fill="blue" stroke="blue" points="402.85,-319.49 394.46,-313.02 396.99,-323.31 402.85,-319.49"/>
<text text-anchor="middle" x="475" y="-379" font-family="Times,serif" font-size="10.00">5</text>
</g>
<!-- 9&#45;&gt;32 -->
<g id="edge29" class="edge">
<title>9&#45;&gt;32</title>
<path fill="none" stroke="blue" stroke-dasharray="5,2" d="M637.7,-281.11C644.74,-276.82 652.93,-272.55 661,-270 704.86,-256.11 837.02,-276.74 866,-241 893.43,-207.17 894.47,-175.96 866,-143 856.02,-131.44 812.08,-138.92 798,-133 785.13,-127.59 782.23,-124.47 773,-114 761.15,-100.55 751.04,-83.15 743.82,-68.94"/>
<polygon fill="blue" stroke="blue" points="746.84,-67.15 739.3,-59.7 740.55,-70.23 746.84,-67.15"/>
<text text-anchor="middle" x="889.5" y="-166.5" font-family="Times,serif" font-size="10.00">2</text>
</g>
<!-- 9&#45;&gt;41 -->
<g id="edge36" class="edge">
<title>9&#45;&gt;41</title>
<path fill="none" stroke="blue" stroke-dasharray="5,2" d="M597.77,-281.49C590.04,-277.01 580.92,-272.53 572,-270 532.39,-258.78 422.18,-281.39 387,-260 363.96,-245.99 349.81,-217.9 341.99,-196.81"/>
<polygon fill="blue" stroke="blue" points="345.21,-195.42 338.65,-187.11 338.6,-197.7 345.21,-195.42"/>
<text text-anchor="middle" x="390.5" y="-252" font-family="Times,serif" font-size="10.00">5</text>
</g>
<!-- 9&#45;&gt;16 -->
<g id="edge19" class="edge">
<title>9&#45;&gt;16</title>
<path fill="none" stroke="blue" d="M597.78,-281.45C590.04,-276.97 580.93,-272.5 572,-270 510.91,-252.91 340.2,-277.04 288,-241 271.56,-229.65 258.75,-211.03 250.21,-195.7"/>
<polygon fill="blue" stroke="blue" points="253.21,-193.89 245.45,-186.68 247.02,-197.16 253.21,-193.89"/>
<text text-anchor="middle" x="363.5" y="-252" font-family="Times,serif" font-size="10.00">4</text>
</g>
<!-- 17&#45;&gt;10 -->
<g id="edge12" class="edge">
<title>17&#45;&gt;10</title>
<path fill="none" stroke="blue" stroke-dasharray="5,2" d="M410.09,-286.83C429.07,-281.03 455.89,-273.66 480,-270 580.28,-254.78 608.1,-277.58 708,-260 724.06,-257.17 727.43,-253.84 743,-249 754.54,-245.41 759.32,-248.24 769,-241 784.44,-229.45 796.35,-211.24 804.31,-196.15"/>
<polygon fill="blue" stroke="blue" points="807.65,-197.3 808.98,-186.79 801.38,-194.18 807.65,-197.3"/>
<text text-anchor="middle" x="746.5" y="-252" font-family="Times,serif" font-size="10.00">2</text>
</g>
<!-- 17&#45;&gt;8 -->
<g id="edge8" class="edge">
<title>17&#45;&gt;8</title>
<path fill="none" stroke="blue" stroke-dasharray="1,5" d="M397.93,-312.2C412.75,-329.33 438.79,-355.33 468,-366 507.45,-380.41 808.65,-385.22 846,-366 863.49,-357 876.21,-338.74 884.45,-323.13"/>
<polygon fill="blue" stroke="blue" points="887.74,-324.37 889,-313.85 881.45,-321.29 887.74,-324.37"/>
<text text-anchor="middle" x="535" y="-379" font-family="Times,serif" font-size="10.00">4</text>
</g>
<!-- 17&#45;&gt;42 -->
<g id="edge38" class="edge">
<title>17&#45;&gt;42</title>
<path fill="none" stroke="blue" stroke-dasharray="5,2" d="M394.46,-313.02C405,-330.05 423.8,-355.22 448,-366 491.24,-385.26 619.69,-389.11 661,-366 677.13,-356.98 687.95,-339.15 694.7,-323.74"/>
<polygon fill="blue" stroke="blue" points="698.1,-324.67 698.57,-314.08 691.6,-322.07 698.1,-324.67"/>
<text text-anchor="middle" x="519" y="-379" font-family="Times,serif" font-size="10.00">4</text>
</g>
<!-- 37&#45;&gt;6 -->
<g id="edge5" class="edge">
<title>37&#45;&gt;6</title>
<path fill="none" stroke="blue" stroke-dasharray="1,5" d="M323.29,-281.12C330.62,-277.04 338.96,-272.9 347,-270 368.73,-262.17 377.92,-271.42 398,-260 423.28,-245.62 441.34,-216.92 451.91,-195.78"/>
<polygon fill="blue" stroke="blue" points="455.1,-197.22 456.24,-186.68 448.78,-194.21 455.1,-197.22"/>
<text text-anchor="middle" x="415.5" y="-252" font-family="Times,serif" font-size="10.00">2</text>
</g>
<!-- 37&#45;&gt;24 -->
<g id="edge27" class="edge">
<title>37&#45;&gt;24</title>
<path fill="none" stroke="blue" stroke-dasharray="5,2" d="M322.19,-281.11C329.73,-276.82 338.47,-272.56 347,-270 397.42,-254.89 414.13,-273.49 465,-260 467.43,-259.36 504.12,-242.66 506,-241 519.98,-228.62 531.03,-210.72 538.56,-196"/>
<polygon fill="blue" stroke="blue" points="541.77,-197.39 542.99,-186.87 535.48,-194.33 541.77,-197.39"/>
<text text-anchor="middle" x="492.5" y="-252" font-family="Times,serif" font-size="10.00">3</text>
</g>
<!-- 37&#45;&gt;9 -->
<g id="edge10" class="edge">
<title>37&#45;&gt;9</title>
<path fill="none" stroke="blue" stroke-dasharray="1,5" d="M307.04,-313.81C313.83,-330.68 326.65,-355.02 347,-366 391.01,-389.74 527.99,-389.74 572,-366 588.85,-356.91 600.54,-338.65 607.91,-323.06"/>
<polygon fill="blue" stroke="blue" points="611.16,-324.37 611.96,-313.81 604.75,-321.57 611.16,-324.37"/>
<text text-anchor="middle" x="463" y="-379" font-family="Times,serif" font-size="10.00">2</text>
</g>
<!-- 37&#45;&gt;32 -->
<g id="edge30" class="edge">
<title>37&#45;&gt;32</title>
<path fill="none" stroke="blue" stroke-dasharray="5,2" d="M323.34,-281.26C330.68,-277.19 339.01,-273.02 347,-270 365.76,-262.92 377.27,-274.62 391,-260 427.07,-221.6 375.45,-182.77 410,-143 481.76,-60.41 620.38,-45.11 689.97,-42.87"/>
<polygon fill="blue" stroke="blue" points="690.22,-46.37 700.13,-42.62 690.05,-39.37 690.22,-46.37"/>
<text text-anchor="middle" x="413.5" y="-166.5" font-family="Times,serif" font-size="10.00">4</text>
</g>
<!-- 37&#45;&gt;41 -->
<g id="edge34" class="edge">
<title>37&#45;&gt;41</title>
<path fill="none" stroke="blue" stroke-dasharray="5,2" d="M305.52,-277.88C311.05,-256.94 320.47,-221.24 326.96,-196.68"/>
<polygon fill="blue" stroke="blue" points="330.37,-197.47 329.54,-186.91 323.6,-195.69 330.37,-197.47"/>
</g>
<!-- 37&#45;&gt;16 -->
<g id="edge20" class="edge">
<title>37&#45;&gt;16</title>
<path fill="none" stroke="blue" d="M275.35,-282.65C266.96,-278.61 257.58,-274.11 249,-270 239.67,-265.54 233.52,-268.74 228,-260 216.05,-241.07 220.49,-215.35 226.78,-196.25"/>
<polygon fill="blue" stroke="blue" points="230.13,-197.27 230.27,-186.68 223.56,-194.87 230.13,-197.27"/>
<text text-anchor="middle" x="231.5" y="-252" font-family="Times,serif" font-size="10.00">4</text>
</g>
<!-- 32&#45;&gt;16 -->
<g id="edge18" class="edge">
<title>32&#45;&gt;16</title>
<path fill="none" stroke="blue" stroke-dasharray="5,2" d="M701.41,-47.27C628.33,-58.04 438.52,-89.32 288,-143 282.26,-145.05 276.33,-147.59 270.65,-150.27"/>
<polygon fill="blue" stroke="blue" points="268.81,-147.27 261.39,-154.84 271.91,-153.55 268.81,-147.27"/>
<text text-anchor="middle" x="349.5" y="-125" font-family="Times,serif" font-size="10.00">3</text>
</g>
<!-- 16&#45;&gt;0 -->
<g id="edge2" class="edge">
<title>16&#45;&gt;0</title>
<path fill="none" stroke="blue" stroke-dasharray="5,2" d="M260.63,-154.26C268.95,-149.87 278.63,-145.51 288,-143 392.29,-115.07 680.27,-169.31 773,-114 789.71,-104.03 800.99,-85.01 807.94,-69.17"/>
<polygon fill="blue" stroke="blue" points="811.22,-70.4 811.72,-59.82 804.73,-67.78 811.22,-70.4"/>
<text text-anchor="middle" x="757.5" y="-125" font-family="Times,serif" font-size="10.00">2</text>
</g>
</g>
</svg>
