<?xml version="1.0" encoding="UTF-8" standalone="no"?>
<!DOCTYPE svg PUBLIC "-//W3C//DTD SVG 1.1//EN"
 "http://www.w3.org/Graphics/SVG/1.1/DTD/svg11.dtd">
<!-- Generated by graphviz version 2.43.0 (0)
 -->
<!-- Title: textual_flow_diagram Pages: 1 -->
<svg width="499pt" height="199pt"
 viewBox="0.00 0.00 499.00 199.00" xmlns="http://www.w3.org/2000/svg" xmlns:xlink="http://www.w3.org/1999/xlink">
<g id="graph0" class="graph" transform="scale(1 1) rotate(0) translate(4 195)">
<title>textual_flow_diagram</title>
<polygon fill="white" stroke="transparent" points="-4,4 -4,-195 495,-195 495,4 -4,4"/>
<g id="clust1" class="cluster">
<title>cluster_legend</title>
<polygon fill="none" stroke="black" points="8,-99 8,-153 186,-153 186,-99 8,-99"/>
</g>
<g id="clust2" class="cluster">
<title>cluster_plot</title>
</g>
<g id="clust3" class="cluster">
<title>cluster_a</title>
<polygon fill="none" stroke="black" points="202,-100 202,-175 475,-175 475,-100 202,-100"/>
<text text-anchor="middle" x="338.5" y="-159.8" font-family="Times,serif" font-size="14.00">a</text>
</g>
<g id="clust4" class="cluster">
<title>cluster_b</title>
<polygon fill="none" stroke="black" points="202,-16 202,-91 444,-91 444,-16 202,-16"/>
<text text-anchor="middle" x="323" y="-75.8" font-family="Times,serif" font-size="14.00">b</text>
</g>
<!-- label -->
<g id="node1" class="node">
<title>label</title>
<text text-anchor="middle" x="97" y="-129.8" font-family="Times,serif" font-size="14.00">adstag1.3.28U24&#45;28</text>
<text text-anchor="middle" x="97" y="-114.8" font-family="Times,serif" font-size="14.00">Con = 3</text>
</g>
<!-- 7 -->
<g id="node2" class="node">
<title>7</title>
<ellipse fill="none" stroke="black" cx="427" cy="-126" rx="40.09" ry="18"/>
<text text-anchor="middle" x="427" y="-122.3" font-family="Times,serif" font-size="14.00">V1897</text>
</g>
<!-- 38 -->
<g id="node7" class="node">
<title>38</title>
<ellipse fill="none" stroke="black" cx="409" cy="-42" rx="27" ry="18"/>
<text text-anchor="middle" x="409" y="-38.3" font-family="Times,serif" font-size="14.00">Est</text>
</g>
<!-- 7&#45;&gt;38 -->
<g id="edge3" class="edge">
<title>7&#45;&gt;38</title>
<path fill="none" stroke="blue" stroke-dasharray="1,5" d="M423.27,-108.01C420.86,-97.01 417.66,-82.46 414.91,-69.92"/>
<polygon fill="blue" stroke="blue" points="418.29,-68.99 412.72,-59.97 411.45,-70.49 418.29,-68.99"/>
</g>
<!-- 14 -->
<g id="node3" class="node">
<title>14</title>
<ellipse fill="none" stroke="black" cx="330" cy="-126" rx="38.19" ry="18"/>
<text text-anchor="middle" x="330" y="-122.3" font-family="Times,serif" font-size="14.00">aBase</text>
</g>
<!-- 37 -->
<g id="node6" class="node">
<title>37</title>
<ellipse fill="none" stroke="black" cx="330" cy="-42" rx="33.6" ry="18"/>
<text text-anchor="middle" x="330" y="-38.3" font-family="Times,serif" font-size="14.00">La22</text>
</g>
<!-- 14&#45;&gt;37 -->
<g id="edge2" class="edge">
<title>14&#45;&gt;37</title>
<path fill="none" stroke="blue" stroke-dasharray="5,2" d="M330,-107.61C330,-96.77 330,-82.6 330,-70.29"/>
<polygon fill="blue" stroke="blue" points="333.5,-70.08 330,-60.08 326.5,-70.08 333.5,-70.08"/>
</g>
<!-- 25 -->
<g id="node4" class="node">
<title>25</title>
<ellipse fill="none" stroke="black" cx="242" cy="-126" rx="31.7" ry="18"/>
<text text-anchor="middle" x="242" y="-122.3" font-family="Times,serif" font-size="14.00">Taur</text>
</g>
<!-- 10 -->
<g id="node5" class="node">
<title>10</title>
<ellipse fill="none" stroke="black" cx="244" cy="-42" rx="34.39" ry="18"/>
<text text-anchor="middle" x="244" y="-38.3" font-family="Times,serif" font-size="14.00">Marc</text>
</g>
<!-- 25&#45;&gt;10 -->
<g id="edge1" class="edge">
<title>25&#45;&gt;10</title>
<path fill="none" stroke="blue" stroke-dasharray="1,5" d="M242.42,-107.61C242.69,-96.77 243.03,-82.6 243.33,-70.29"/>
<polygon fill="blue" stroke="blue" points="246.84,-70.17 243.58,-60.08 239.84,-70 246.84,-70.17"/>
</g>
</g>
</svg>
