<?xml version="1.0" encoding="UTF-8" standalone="no"?>
<!DOCTYPE svg PUBLIC "-//W3C//DTD SVG 1.1//EN"
 "http://www.w3.org/Graphics/SVG/1.1/DTD/svg11.dtd">
<!-- Generated by graphviz version 2.43.0 (0)
 -->
<!-- Title: textual_flow_diagram Pages: 1 -->
<svg width="576pt" height="314pt"
 viewBox="0.00 0.00 576.00 314.00" xmlns="http://www.w3.org/2000/svg" xmlns:xlink="http://www.w3.org/1999/xlink">
<g id="graph0" class="graph" transform="scale(1 1) rotate(0) translate(4 310)">
<title>textual_flow_diagram</title>
<polygon fill="white" stroke="transparent" points="-4,4 -4,-310 572,-310 572,4 -4,4"/>
<g id="clust1" class="cluster">
<title>cluster_legend</title>
<polygon fill="none" stroke="black" points="8,-214 8,-268 186,-268 186,-214 8,-214"/>
</g>
<g id="clust2" class="cluster">
<title>cluster_plot</title>
</g>
<g id="clust3" class="cluster">
<title>cluster_a</title>
<polygon fill="none" stroke="black" points="202,-215 202,-290 470,-290 470,-215 202,-215"/>
<text text-anchor="middle" x="336" y="-274.8" font-family="Times,serif" font-size="14.00">a</text>
</g>
<g id="clust4" class="cluster">
<title>cluster_b</title>
<polygon fill="none" stroke="black" points="321,-120 321,-195 405,-195 405,-120 321,-120"/>
<text text-anchor="middle" x="363" y="-179.8" font-family="Times,serif" font-size="14.00">b</text>
</g>
<g id="clust5" class="cluster">
<title>cluster_c</title>
<polygon fill="none" stroke="black" points="215,-120 215,-195 285,-195 285,-120 215,-120"/>
<text text-anchor="middle" x="250" y="-179.8" font-family="Times,serif" font-size="14.00">c</text>
</g>
<g id="clust6" class="cluster">
<title>cluster_d</title>
<polygon fill="none" stroke="black" points="202,-16 202,-91 552,-91 552,-16 202,-16"/>
<text text-anchor="middle" x="377" y="-75.8" font-family="Times,serif" font-size="14.00">d</text>
</g>
<!-- label -->
<g id="node1" class="node">
<title>label</title>
<text text-anchor="middle" x="97" y="-244.8" font-family="Times,serif" font-size="14.00">adstag1.3.29U32&#45;40</text>
<text text-anchor="middle" x="97" y="-229.8" font-family="Times,serif" font-size="14.00">Con = 5</text>
</g>
<!-- 7 -->
<g id="node2" class="node">
<title>7</title>
<ellipse fill="none" stroke="black" cx="250" cy="-241" rx="40.09" ry="18"/>
<text text-anchor="middle" x="250" y="-237.3" font-family="Times,serif" font-size="14.00">V1897</text>
</g>
<!-- 38 -->
<g id="node6" class="node">
<title>38</title>
<ellipse fill="none" stroke="black" cx="250" cy="-146" rx="27" ry="18"/>
<text text-anchor="middle" x="250" y="-142.3" font-family="Times,serif" font-size="14.00">Est</text>
</g>
<!-- 7&#45;&gt;38 -->
<g id="edge9" class="edge">
<title>7&#45;&gt;38</title>
<path fill="none" stroke="blue" stroke-dasharray="1,5" d="M250,-222.94C250,-209.39 250,-190.18 250,-174.47"/>
<polygon fill="blue" stroke="blue" points="253.5,-174.26 250,-164.26 246.5,-174.26 253.5,-174.26"/>
</g>
<!-- 11 -->
<g id="node3" class="node">
<title>11</title>
<ellipse fill="none" stroke="black" cx="338" cy="-241" rx="29.8" ry="18"/>
<text text-anchor="middle" x="338" y="-237.3" font-family="Times,serif" font-size="14.00">Nan</text>
</g>
<!-- 32 -->
<g id="node9" class="node">
<title>32</title>
<ellipse fill="none" stroke="black" cx="250" cy="-42" rx="40.09" ry="18"/>
<text text-anchor="middle" x="250" y="-38.3" font-family="Times,serif" font-size="14.00">V2250</text>
</g>
<!-- 11&#45;&gt;32 -->
<g id="edge6" class="edge">
<title>11&#45;&gt;32</title>
<path fill="none" stroke="blue" stroke-dasharray="5,2" d="M329.9,-223.47C325.86,-215.03 321,-204.54 317,-195 303.24,-162.19 303.28,-152.59 289,-120 281.35,-102.55 271.68,-83.44 263.88,-68.62"/>
<polygon fill="blue" stroke="blue" points="266.85,-66.75 259.07,-59.57 260.67,-70.04 266.85,-66.75"/>
</g>
<!-- 14 -->
<g id="node4" class="node">
<title>14</title>
<ellipse fill="none" stroke="black" cx="424" cy="-241" rx="38.19" ry="18"/>
<text text-anchor="middle" x="424" y="-237.3" font-family="Times,serif" font-size="14.00">aBase</text>
</g>
<!-- 24 -->
<g id="node5" class="node">
<title>24</title>
<ellipse fill="none" stroke="black" cx="363" cy="-146" rx="34.39" ry="18"/>
<text text-anchor="middle" x="363" y="-142.3" font-family="Times,serif" font-size="14.00">Patm</text>
</g>
<!-- 14&#45;&gt;24 -->
<g id="edge3" class="edge">
<title>14&#45;&gt;24</title>
<path fill="none" stroke="blue" d="M413.09,-223.37C403.67,-209 389.91,-188.03 379.2,-171.7"/>
<polygon fill="blue" stroke="blue" points="382.02,-169.61 373.61,-163.17 376.16,-173.45 382.02,-169.61"/>
</g>
<!-- 13 -->
<g id="node7" class="node">
<title>13</title>
<ellipse fill="none" stroke="black" cx="346" cy="-42" rx="37.89" ry="18"/>
<text text-anchor="middle" x="346" y="-38.3" font-family="Times,serif" font-size="14.00">M136</text>
</g>
<!-- 14&#45;&gt;13 -->
<g id="edge1" class="edge">
<title>14&#45;&gt;13</title>
<path fill="none" stroke="blue" stroke-width="2" d="M422.66,-222.87C419.77,-187.58 412.68,-109.19 406,-99 402.28,-93.33 398.3,-95.23 393,-91 383.88,-83.72 374.71,-74.8 366.93,-66.63"/>
<polygon fill="blue" stroke="blue" stroke-width="2" points="369.3,-64.05 359.93,-59.11 364.18,-68.82 369.3,-64.05"/>
</g>
<!-- 27 -->
<g id="node8" class="node">
<title>27</title>
<ellipse fill="none" stroke="black" cx="436" cy="-42" rx="34.39" ry="18"/>
<text text-anchor="middle" x="436" y="-38.3" font-family="Times,serif" font-size="14.00">V560</text>
</g>
<!-- 14&#45;&gt;27 -->
<g id="edge4" class="edge">
<title>14&#45;&gt;27</title>
<path fill="none" stroke="blue" stroke-width="2" d="M425.04,-222.86C427.13,-188.66 431.82,-111.69 434.33,-70.4"/>
<polygon fill="blue" stroke="blue" stroke-width="2" points="437.84,-70.43 434.95,-60.24 430.85,-70.01 437.84,-70.43"/>
</g>
<!-- 35 -->
<g id="node10" class="node">
<title>35</title>
<ellipse fill="none" stroke="black" cx="516" cy="-42" rx="27.9" ry="18"/>
<text text-anchor="middle" x="516" y="-38.3" font-family="Times,serif" font-size="14.00">La2</text>
</g>
<!-- 14&#45;&gt;35 -->
<g id="edge8" class="edge">
<title>14&#45;&gt;35</title>
<path fill="none" stroke="blue" stroke-width="2" d="M431.84,-223.2C447.98,-188.66 484.96,-109.47 504.07,-68.54"/>
<polygon fill="blue" stroke="blue" stroke-width="2" points="507.25,-70.02 508.31,-59.48 500.9,-67.06 507.25,-70.02"/>
</g>
<!-- 24&#45;&gt;13 -->
<g id="edge2" class="edge">
<title>24&#45;&gt;13</title>
<path fill="none" stroke="blue" d="M360.12,-127.7C357.49,-111.92 353.56,-88.36 350.52,-70.09"/>
<polygon fill="blue" stroke="blue" points="353.94,-69.34 348.84,-60.05 347.03,-70.49 353.94,-69.34"/>
<text text-anchor="middle" x="360.5" y="-102" font-family="Times,serif" font-size="10.00">3</text>
</g>
<!-- 24&#45;&gt;27 -->
<g id="edge5" class="edge">
<title>24&#45;&gt;27</title>
<path fill="none" stroke="blue" stroke-width="2" d="M374.73,-128.61C386.61,-112.01 405.13,-86.14 418.7,-67.18"/>
<polygon fill="blue" stroke="blue" stroke-width="2" points="421.57,-69.18 424.54,-59.01 415.87,-65.11 421.57,-69.18"/>
<text text-anchor="middle" x="398.5" y="-102" font-family="Times,serif" font-size="10.00">2</text>
</g>
<!-- 38&#45;&gt;32 -->
<g id="edge7" class="edge">
<title>38&#45;&gt;32</title>
<path fill="none" stroke="blue" stroke-dasharray="5,2" d="M250,-127.7C250,-111.92 250,-88.36 250,-70.09"/>
<polygon fill="blue" stroke="blue" points="253.5,-70.05 250,-60.05 246.5,-70.05 253.5,-70.05"/>
<text text-anchor="middle" x="253.5" y="-102" font-family="Times,serif" font-size="10.00">4</text>
</g>
</g>
</svg>
