<?xml version="1.0" encoding="UTF-8" standalone="no"?>
<!DOCTYPE svg PUBLIC "-//W3C//DTD SVG 1.1//EN"
 "http://www.w3.org/Graphics/SVG/1.1/DTD/svg11.dtd">
<!-- Generated by graphviz version 2.43.0 (0)
 -->
<!-- Title: textual_flow_diagram Pages: 1 -->
<svg width="406pt" height="304pt"
 viewBox="0.00 0.00 406.00 304.00" xmlns="http://www.w3.org/2000/svg" xmlns:xlink="http://www.w3.org/1999/xlink">
<g id="graph0" class="graph" transform="scale(1 1) rotate(0) translate(4 300)">
<title>textual_flow_diagram</title>
<polygon fill="white" stroke="transparent" points="-4,4 -4,-300 402,-300 402,4 -4,4"/>
<g id="clust1" class="cluster">
<title>cluster_legend</title>
<polygon fill="none" stroke="black" points="8,-204 8,-258 164,-258 164,-204 8,-204"/>
</g>
<g id="clust2" class="cluster">
<title>cluster_plot</title>
</g>
<g id="clust3" class="cluster">
<title>cluster_a</title>
<polygon fill="none" stroke="black" points="186,-205 186,-280 360,-280 360,-205 186,-205"/>
<text text-anchor="middle" x="273" y="-264.8" font-family="Times,serif" font-size="14.00">a</text>
</g>
<g id="clust4" class="cluster">
<title>cluster_b</title>
<polygon fill="none" stroke="black" points="180,-110 180,-185 347,-185 347,-110 180,-110"/>
<text text-anchor="middle" x="263.5" y="-169.8" font-family="Times,serif" font-size="14.00">b</text>
</g>
<g id="clust5" class="cluster">
<title>cluster_c</title>
<polygon fill="none" stroke="black" points="294,-16 294,-91 364,-91 364,-16 294,-16"/>
<text text-anchor="middle" x="329" y="-75.8" font-family="Times,serif" font-size="14.00">c</text>
</g>
<!-- label -->
<g id="node1" class="node">
<title>label</title>
<text text-anchor="middle" x="86" y="-234.8" font-family="Times,serif" font-size="14.00">adstag1.3.32U20</text>
<text text-anchor="middle" x="86" y="-219.8" font-family="Times,serif" font-size="14.00">Con = 5</text>
</g>
<!-- 21 -->
<g id="node2" class="node">
<title>21</title>
<ellipse fill="none" stroke="black" cx="226" cy="-231" rx="31.7" ry="18"/>
<text text-anchor="middle" x="226" y="-227.3" font-family="Times,serif" font-size="14.00">Taur</text>
</g>
<!-- 15 -->
<g id="node5" class="node">
<title>15</title>
<ellipse fill="none" stroke="black" cx="226" cy="-136" rx="37.89" ry="18"/>
<text text-anchor="middle" x="226" y="-132.3" font-family="Times,serif" font-size="14.00">M118</text>
</g>
<!-- 21&#45;&gt;15 -->
<g id="edge2" class="edge">
<title>21&#45;&gt;15</title>
<path fill="none" stroke="blue" stroke-dasharray="5,2" d="M226,-212.94C226,-199.39 226,-180.18 226,-164.47"/>
<polygon fill="blue" stroke="blue" points="229.5,-164.26 226,-154.26 222.5,-164.26 229.5,-164.26"/>
</g>
<!-- 37 -->
<g id="node3" class="node">
<title>37</title>
<ellipse fill="none" stroke="black" cx="314" cy="-231" rx="38.19" ry="18"/>
<text text-anchor="middle" x="314" y="-227.3" font-family="Times,serif" font-size="14.00">aBase</text>
</g>
<!-- 13 -->
<g id="node4" class="node">
<title>13</title>
<ellipse fill="none" stroke="black" cx="310" cy="-136" rx="28.7" ry="18"/>
<text text-anchor="middle" x="310" y="-132.3" font-family="Times,serif" font-size="14.00">A25</text>
</g>
<!-- 37&#45;&gt;13 -->
<g id="edge1" class="edge">
<title>37&#45;&gt;13</title>
<path fill="none" stroke="blue" stroke-dasharray="5,2" d="M313.27,-212.94C312.68,-199.39 311.86,-180.18 311.18,-164.47"/>
<polygon fill="blue" stroke="blue" points="314.67,-164.1 310.74,-154.26 307.68,-164.41 314.67,-164.1"/>
</g>
<!-- 40 -->
<g id="node6" class="node">
<title>40</title>
<ellipse fill="none" stroke="black" cx="329" cy="-42" rx="27" ry="18"/>
<text text-anchor="middle" x="329" y="-38.3" font-family="Times,serif" font-size="14.00">Pal</text>
</g>
<!-- 37&#45;&gt;40 -->
<g id="edge4" class="edge">
<title>37&#45;&gt;40</title>
<path fill="none" stroke="blue" d="M331.15,-214.66C338.8,-206.67 346.97,-196.24 351,-185 364.93,-146.14 351.65,-98.18 340.53,-69.13"/>
<polygon fill="blue" stroke="blue" points="343.71,-67.66 336.73,-59.68 337.21,-70.27 343.71,-67.66"/>
<text text-anchor="middle" x="359.5" y="-133.5" font-family="Times,serif" font-size="10.00">2</text>
</g>
<!-- 13&#45;&gt;40 -->
<g id="edge3" class="edge">
<title>13&#45;&gt;40</title>
<path fill="none" stroke="blue" stroke-dasharray="5,2" d="M313.48,-118.13C316.25,-104.72 320.18,-85.72 323.39,-70.17"/>
<polygon fill="blue" stroke="blue" points="326.88,-70.58 325.47,-60.08 320.02,-69.16 326.88,-70.58"/>
</g>
</g>
</svg>
