<?xml version="1.0" encoding="UTF-8" standalone="no"?>
<!DOCTYPE svg PUBLIC "-//W3C//DTD SVG 1.1//EN"
 "http://www.w3.org/Graphics/SVG/1.1/DTD/svg11.dtd">
<!-- Generated by graphviz version 2.43.0 (0)
 -->
<!-- Title: textual_flow_diagram Pages: 1 -->
<svg width="542pt" height="199pt"
 viewBox="0.00 0.00 542.00 199.00" xmlns="http://www.w3.org/2000/svg" xmlns:xlink="http://www.w3.org/1999/xlink">
<g id="graph0" class="graph" transform="scale(1 1) rotate(0) translate(4 195)">
<title>textual_flow_diagram</title>
<polygon fill="white" stroke="transparent" points="-4,4 -4,-195 538,-195 538,4 -4,4"/>
<g id="clust1" class="cluster">
<title>cluster_legend</title>
<polygon fill="none" stroke="black" points="8,-99 8,-153 164,-153 164,-99 8,-99"/>
</g>
<g id="clust2" class="cluster">
<title>cluster_plot</title>
</g>
<g id="clust3" class="cluster">
<title>cluster_a</title>
<polygon fill="none" stroke="black" points="213,-100 213,-175 485,-175 485,-100 213,-100"/>
<text text-anchor="middle" x="349" y="-159.8" font-family="Times,serif" font-size="14.00">a</text>
</g>
<g id="clust4" class="cluster">
<title>cluster_b</title>
<polygon fill="none" stroke="black" points="180,-16 180,-91 518,-91 518,-16 180,-16"/>
<text text-anchor="middle" x="349" y="-75.8" font-family="Times,serif" font-size="14.00">b</text>
</g>
<!-- label -->
<g id="node1" class="node">
<title>label</title>
<text text-anchor="middle" x="86" y="-129.8" font-family="Times,serif" font-size="14.00">adstag1.1.12U24</text>
<text text-anchor="middle" x="86" y="-114.8" font-family="Times,serif" font-size="14.00">Con = 5</text>
</g>
<!-- 3 -->
<g id="node2" class="node">
<title>3</title>
<ellipse fill="none" stroke="black" cx="439" cy="-126" rx="37.89" ry="18"/>
<text text-anchor="middle" x="439" y="-122.3" font-family="Times,serif" font-size="14.00">M118</text>
</g>
<!-- 11 -->
<g id="node3" class="node">
<title>11</title>
<ellipse fill="none" stroke="black" cx="345" cy="-126" rx="38.19" ry="18"/>
<text text-anchor="middle" x="345" y="-122.3" font-family="Times,serif" font-size="14.00">aBase</text>
</g>
<!-- 38 -->
<g id="node7" class="node">
<title>38</title>
<ellipse fill="none" stroke="black" cx="390" cy="-42" rx="37.89" ry="18"/>
<text text-anchor="middle" x="390" y="-38.3" font-family="Times,serif" font-size="14.00">M136</text>
</g>
<!-- 11&#45;&gt;38 -->
<g id="edge3" class="edge">
<title>11&#45;&gt;38</title>
<path fill="none" stroke="blue" stroke-width="2" d="M354.11,-108.41C360.39,-96.96 368.86,-81.52 376,-68.52"/>
<polygon fill="blue" stroke="blue" stroke-width="2" points="379.16,-70.02 380.91,-59.57 373.03,-66.65 379.16,-70.02"/>
</g>
<!-- 42 -->
<g id="node8" class="node">
<title>42</title>
<ellipse fill="none" stroke="black" cx="304" cy="-42" rx="29.8" ry="18"/>
<text text-anchor="middle" x="304" y="-38.3" font-family="Times,serif" font-size="14.00">Nan</text>
</g>
<!-- 11&#45;&gt;42 -->
<g id="edge4" class="edge">
<title>11&#45;&gt;42</title>
<path fill="none" stroke="blue" d="M336.7,-108.41C330.98,-96.96 323.26,-81.52 316.76,-68.52"/>
<polygon fill="blue" stroke="blue" points="319.89,-66.95 312.28,-59.57 313.63,-70.08 319.89,-66.95"/>
</g>
<!-- 27 -->
<g id="node4" class="node">
<title>27</title>
<ellipse fill="none" stroke="black" cx="255" cy="-126" rx="33.6" ry="18"/>
<text text-anchor="middle" x="255" y="-122.3" font-family="Times,serif" font-size="14.00">La22</text>
</g>
<!-- 29 -->
<g id="node6" class="node">
<title>29</title>
<ellipse fill="none" stroke="black" cx="222" cy="-42" rx="34.39" ry="18"/>
<text text-anchor="middle" x="222" y="-38.3" font-family="Times,serif" font-size="14.00">V565</text>
</g>
<!-- 27&#45;&gt;29 -->
<g id="edge2" class="edge">
<title>27&#45;&gt;29</title>
<path fill="none" stroke="blue" stroke-dasharray="5,2" d="M248.16,-108.01C243.66,-96.83 237.69,-81.98 232.58,-69.29"/>
<polygon fill="blue" stroke="blue" points="235.7,-67.66 228.72,-59.69 229.2,-70.27 235.7,-67.66"/>
</g>
<!-- 14 -->
<g id="node5" class="node">
<title>14</title>
<ellipse fill="none" stroke="black" cx="478" cy="-42" rx="31.7" ry="18"/>
<text text-anchor="middle" x="478" y="-38.3" font-family="Times,serif" font-size="14.00">Taur</text>
</g>
<!-- 14&#45;&gt;3 -->
<g id="edge1" class="edge">
<title>14&#45;&gt;3</title>
<path fill="none" stroke="blue" stroke-dasharray="5,2" d="M470.06,-59.69C464.73,-70.91 457.58,-85.94 451.49,-98.75"/>
<polygon fill="blue" stroke="blue" points="448.22,-97.48 447.08,-108.01 454.54,-100.48 448.22,-97.48"/>
</g>
</g>
</svg>
