<?xml version="1.0" encoding="UTF-8" standalone="no"?>
<!DOCTYPE svg PUBLIC "-//W3C//DTD SVG 1.1//EN"
 "http://www.w3.org/Graphics/SVG/1.1/DTD/svg11.dtd">
<!-- Generated by graphviz version 2.43.0 (0)
 -->
<!-- Title: local_stemma Pages: 1 -->
<svg width="406pt" height="159pt"
 viewBox="0.00 0.00 406.00 159.00" xmlns="http://www.w3.org/2000/svg" xmlns:xlink="http://www.w3.org/1999/xlink">
<g id="graph0" class="graph" transform="scale(1 1) rotate(0) translate(4 155)">
<title>local_stemma</title>
<polygon fill="white" stroke="transparent" points="-4,4 -4,-155 402,-155 402,4 -4,4"/>
<g id="clust1" class="cluster">
<title>cluster_legend</title>
<polygon fill="none" stroke="black" points="8,-91 8,-143 168,-143 168,-91 8,-91"/>
</g>
<g id="clust2" class="cluster">
<title>cluster_plot</title>
</g>
<!-- label -->
<g id="node1" class="node">
<title>label</title>
<text text-anchor="middle" x="88" y="-113.3" font-family="Times,serif" font-size="14.00">adstag1.3.2U6&#45;12</text>
</g>
<!-- 0 -->
<g id="node2" class="node">
<title>0</title>
<text text-anchor="middle" x="283" y="-113.3" font-family="Times,serif" font-size="14.00">a</text>
</g>
<!-- 1 -->
<g id="node3" class="node">
<title>1</title>
<text text-anchor="middle" x="211" y="-30.3" font-family="Times,serif" font-size="14.00">ar1</text>
</g>
<!-- 0&#45;&gt;1 -->
<g id="edge1" class="edge">
<title>0&#45;&gt;1</title>
<path fill="none" stroke="black" stroke-dasharray="5,2" d="M267.29,-98.99C262.08,-93.3 256.26,-86.9 251,-81 244.93,-74.19 238.4,-66.74 232.43,-59.87"/>
<polygon fill="black" stroke="black" points="234.91,-57.39 225.72,-52.13 229.62,-61.98 234.91,-57.39"/>
<text text-anchor="middle" x="265" y="-73" font-family="Times,serif" font-size="10.00">0.000</text>
</g>
<!-- 2 -->
<g id="node4" class="node">
<title>2</title>
<text text-anchor="middle" x="283" y="-30.3" font-family="Times,serif" font-size="14.00">ar2</text>
</g>
<!-- 0&#45;&gt;2 -->
<g id="edge2" class="edge">
<title>0&#45;&gt;2</title>
<path fill="none" stroke="black" stroke-dasharray="5,2" d="M283,-98.82C283,-88.19 283,-74.31 283,-62.2"/>
<polygon fill="black" stroke="black" points="286.5,-62.15 283,-52.15 279.5,-62.15 286.5,-62.15"/>
<text text-anchor="middle" x="297" y="-73" font-family="Times,serif" font-size="10.00">0.000</text>
</g>
<!-- 3 -->
<g id="node5" class="node">
<title>3</title>
<text text-anchor="middle" x="355" y="-30.3" font-family="Times,serif" font-size="14.00">b</text>
</g>
<!-- 0&#45;&gt;3 -->
<g id="edge3" class="edge">
<title>0&#45;&gt;3</title>
<path fill="none" stroke="black" d="M298.71,-98.99C303.92,-93.3 309.74,-86.9 315,-81 321.07,-74.19 327.6,-66.74 333.57,-59.87"/>
<polygon fill="black" stroke="black" points="336.38,-61.98 340.28,-52.13 331.09,-57.39 336.38,-61.98"/>
<text text-anchor="middle" x="337" y="-73" font-family="Times,serif" font-size="10.00">1.000</text>
</g>
</g>
</svg>
