<?xml version="1.0" encoding="UTF-8" standalone="no"?>
<!DOCTYPE svg PUBLIC "-//W3C//DTD SVG 1.1//EN"
 "http://www.w3.org/Graphics/SVG/1.1/DTD/svg11.dtd">
<!-- Generated by graphviz version 2.43.0 (0)
 -->
<!-- Title: local_stemma Pages: 1 -->
<svg width="416pt" height="159pt"
 viewBox="0.00 0.00 416.00 159.00" xmlns="http://www.w3.org/2000/svg" xmlns:xlink="http://www.w3.org/1999/xlink">
<g id="graph0" class="graph" transform="scale(1 1) rotate(0) translate(4 155)">
<title>local_stemma</title>
<polygon fill="white" stroke="transparent" points="-4,4 -4,-155 412,-155 412,4 -4,4"/>
<g id="clust1" class="cluster">
<title>cluster_legend</title>
<polygon fill="none" stroke="black" points="8,-91 8,-143 178,-143 178,-91 8,-91"/>
</g>
<g id="clust2" class="cluster">
<title>cluster_plot</title>
</g>
<!-- label -->
<g id="node1" class="node">
<title>label</title>
<text text-anchor="middle" x="93" y="-113.3" font-family="Times,serif" font-size="14.00">adstag1.3.2U14&#45;16</text>
</g>
<!-- 0 -->
<g id="node2" class="node">
<title>0</title>
<text text-anchor="middle" x="293" y="-113.3" font-family="Times,serif" font-size="14.00">a</text>
</g>
<!-- 1 -->
<g id="node3" class="node">
<title>1</title>
<text text-anchor="middle" x="221" y="-30.3" font-family="Times,serif" font-size="14.00">b</text>
</g>
<!-- 0&#45;&gt;1 -->
<g id="edge1" class="edge">
<title>0&#45;&gt;1</title>
<path fill="none" stroke="black" d="M277.29,-98.99C272.08,-93.3 266.26,-86.9 261,-81 254.93,-74.19 248.4,-66.74 242.43,-59.87"/>
<polygon fill="black" stroke="black" points="244.91,-57.39 235.72,-52.13 239.62,-61.98 244.91,-57.39"/>
<text text-anchor="middle" x="275" y="-73" font-family="Times,serif" font-size="10.00">1.000</text>
</g>
<!-- 2 -->
<g id="node4" class="node">
<title>2</title>
<text text-anchor="middle" x="293" y="-30.3" font-family="Times,serif" font-size="14.00">c</text>
</g>
<!-- 0&#45;&gt;2 -->
<g id="edge2" class="edge">
<title>0&#45;&gt;2</title>
<path fill="none" stroke="black" d="M293,-98.82C293,-88.19 293,-74.31 293,-62.2"/>
<polygon fill="black" stroke="black" points="296.5,-62.15 293,-52.15 289.5,-62.15 296.5,-62.15"/>
<text text-anchor="middle" x="307" y="-73" font-family="Times,serif" font-size="10.00">1.000</text>
</g>
<!-- 3 -->
<g id="node5" class="node">
<title>3</title>
<text text-anchor="middle" x="365" y="-30.3" font-family="Times,serif" font-size="14.00">d</text>
</g>
<!-- 0&#45;&gt;3 -->
<g id="edge3" class="edge">
<title>0&#45;&gt;3</title>
<path fill="none" stroke="black" d="M308.71,-98.99C313.92,-93.3 319.74,-86.9 325,-81 331.07,-74.19 337.6,-66.74 343.57,-59.87"/>
<polygon fill="black" stroke="black" points="346.38,-61.98 350.28,-52.13 341.09,-57.39 346.38,-61.98"/>
<text text-anchor="middle" x="347" y="-73" font-family="Times,serif" font-size="10.00">1.000</text>
</g>
</g>
</svg>
