<?xml version="1.0" encoding="UTF-8" standalone="no"?>
<!DOCTYPE svg PUBLIC "-//W3C//DTD SVG 1.1//EN"
 "http://www.w3.org/Graphics/SVG/1.1/DTD/svg11.dtd">
<!-- Generated by graphviz version 2.43.0 (0)
 -->
<!-- Title: local_stemma Pages: 1 -->
<svg width="334pt" height="159pt"
 viewBox="0.00 0.00 334.00 159.00" xmlns="http://www.w3.org/2000/svg" xmlns:xlink="http://www.w3.org/1999/xlink">
<g id="graph0" class="graph" transform="scale(1 1) rotate(0) translate(4 155)">
<title>local_stemma</title>
<polygon fill="white" stroke="transparent" points="-4,4 -4,-155 330,-155 330,4 -4,4"/>
<g id="clust1" class="cluster">
<title>cluster_legend</title>
<polygon fill="none" stroke="black" points="8,-91 8,-143 168,-143 168,-91 8,-91"/>
</g>
<g id="clust2" class="cluster">
<title>cluster_plot</title>
</g>
<!-- label -->
<g id="node1" class="node">
<title>label</title>
<text text-anchor="middle" x="88" y="-113.3" font-family="Times,serif" font-size="14.00">adstag1.4.1U8&#45;14</text>
</g>
<!-- 0 -->
<g id="node2" class="node">
<title>0</title>
<text text-anchor="middle" x="236" y="-113.3" font-family="Times,serif" font-size="14.00">a</text>
</g>
<!-- 1 -->
<g id="node3" class="node">
<title>1</title>
<text text-anchor="middle" x="211" y="-30.3" font-family="Times,serif" font-size="14.00">b</text>
</g>
<!-- 0&#45;&gt;1 -->
<g id="edge2" class="edge">
<title>0&#45;&gt;1</title>
<path fill="none" stroke="black" d="M230.7,-98.82C227.38,-88.08 223.04,-74.03 219.28,-61.84"/>
<polygon fill="black" stroke="black" points="222.59,-60.68 216.29,-52.15 215.9,-62.74 222.59,-60.68"/>
<text text-anchor="middle" x="238" y="-73" font-family="Times,serif" font-size="10.00">1.000</text>
</g>
<!-- 2 -->
<g id="node4" class="node">
<title>2</title>
<text text-anchor="middle" x="283" y="-30.3" font-family="Times,serif" font-size="14.00">c</text>
</g>
<!-- 0&#45;&gt;2 -->
<g id="edge1" class="edge">
<title>0&#45;&gt;2</title>
<path fill="none" stroke="black" d="M245.97,-98.82C252.32,-87.87 260.68,-73.46 267.85,-61.11"/>
<polygon fill="black" stroke="black" points="271.06,-62.56 273.05,-52.15 265,-59.05 271.06,-62.56"/>
<text text-anchor="middle" x="276" y="-73" font-family="Times,serif" font-size="10.00">1.000</text>
</g>
</g>
</svg>
