<?xml version="1.0" encoding="UTF-8" standalone="no"?>
<!DOCTYPE svg PUBLIC "-//W3C//DTD SVG 1.1//EN"
 "http://www.w3.org/Graphics/SVG/1.1/DTD/svg11.dtd">
<!-- Generated by graphviz version 2.43.0 (0)
 -->
<!-- Title: local_stemma Pages: 1 -->
<svg width="776pt" height="159pt"
 viewBox="0.00 0.00 776.00 159.00" xmlns="http://www.w3.org/2000/svg" xmlns:xlink="http://www.w3.org/1999/xlink">
<g id="graph0" class="graph" transform="scale(1 1) rotate(0) translate(4 155)">
<title>local_stemma</title>
<polygon fill="white" stroke="transparent" points="-4,4 -4,-155 772,-155 772,4 -4,4"/>
<g id="clust1" class="cluster">
<title>cluster_legend</title>
<polygon fill="none" stroke="black" points="8,-91 8,-143 178,-143 178,-91 8,-91"/>
</g>
<g id="clust2" class="cluster">
<title>cluster_plot</title>
</g>
<!-- label -->
<g id="node1" class="node">
<title>label</title>
<text text-anchor="middle" x="93" y="-113.3" font-family="Times,serif" font-size="14.00">adstag1.3.55U4&#45;16</text>
</g>
<!-- 0 -->
<g id="node2" class="node">
<title>0</title>
<text text-anchor="middle" x="472" y="-113.3" font-family="Times,serif" font-size="14.00">a</text>
</g>
<!-- 1 -->
<g id="node3" class="node">
<title>1</title>
<text text-anchor="middle" x="221" y="-30.3" font-family="Times,serif" font-size="14.00">b</text>
</g>
<!-- 0&#45;&gt;1 -->
<g id="edge1" class="edge">
<title>0&#45;&gt;1</title>
<path fill="none" stroke="black" d="M444.79,-111.68C413.62,-106.31 361.27,-95.97 318,-81 297.3,-73.84 275.17,-63.56 257.27,-54.53"/>
<polygon fill="black" stroke="black" points="258.83,-51.4 248.34,-49.95 255.64,-57.63 258.83,-51.4"/>
<text text-anchor="middle" x="332" y="-73" font-family="Times,serif" font-size="10.00">1.000</text>
</g>
<!-- 2 -->
<g id="node4" class="node">
<title>2</title>
<text text-anchor="middle" x="293" y="-30.3" font-family="Times,serif" font-size="14.00">c</text>
</g>
<!-- 0&#45;&gt;2 -->
<g id="edge2" class="edge">
<title>0&#45;&gt;2</title>
<path fill="none" stroke="black" d="M444.99,-108.41C424.08,-102.14 394.62,-92.43 370,-81 355.54,-74.29 340.33,-65.59 327.28,-57.56"/>
<polygon fill="black" stroke="black" points="328.97,-54.49 318.63,-52.15 325.25,-60.42 328.97,-54.49"/>
<text text-anchor="middle" x="384" y="-73" font-family="Times,serif" font-size="10.00">1.000</text>
</g>
<!-- 3 -->
<g id="node5" class="node">
<title>3</title>
<text text-anchor="middle" x="365" y="-30.3" font-family="Times,serif" font-size="14.00">d</text>
</g>
<!-- 0&#45;&gt;3 -->
<g id="edge3" class="edge">
<title>0&#45;&gt;3</title>
<path fill="none" stroke="black" d="M444.87,-100.37C435.49,-94.62 425.06,-87.84 416,-81 407.29,-74.43 398.29,-66.68 390.32,-59.43"/>
<polygon fill="black" stroke="black" points="392.46,-56.64 382.75,-52.42 387.7,-61.78 392.46,-56.64"/>
<text text-anchor="middle" x="430" y="-73" font-family="Times,serif" font-size="10.00">1.000</text>
</g>
<!-- 4 -->
<g id="node6" class="node">
<title>4</title>
<text text-anchor="middle" x="437" y="-30.3" font-family="Times,serif" font-size="14.00">e</text>
</g>
<!-- 0&#45;&gt;4 -->
<g id="edge4" class="edge">
<title>0&#45;&gt;4</title>
<path fill="none" stroke="black" d="M461.96,-98.83C458.89,-93.24 455.63,-86.94 453,-81 450.31,-74.91 447.76,-68.21 445.52,-61.86"/>
<polygon fill="black" stroke="black" points="448.8,-60.64 442.28,-52.3 442.17,-62.89 448.8,-60.64"/>
<text text-anchor="middle" x="467" y="-73" font-family="Times,serif" font-size="10.00">1.000</text>
</g>
<!-- 5 -->
<g id="node7" class="node">
<title>5</title>
<text text-anchor="middle" x="509" y="-30.3" font-family="Times,serif" font-size="14.00">f</text>
</g>
<!-- 0&#45;&gt;5 -->
<g id="edge5" class="edge">
<title>0&#45;&gt;5</title>
<path fill="none" stroke="black" d="M479.85,-98.82C484.8,-87.98 491.3,-73.74 496.91,-61.47"/>
<polygon fill="black" stroke="black" points="500.19,-62.7 501.16,-52.15 493.83,-59.79 500.19,-62.7"/>
<text text-anchor="middle" x="506" y="-73" font-family="Times,serif" font-size="10.00">1.000</text>
</g>
<!-- 6 -->
<g id="node8" class="node">
<title>6</title>
<text text-anchor="middle" x="581" y="-30.3" font-family="Times,serif" font-size="14.00">g</text>
</g>
<!-- 0&#45;&gt;6 -->
<g id="edge6" class="edge">
<title>0&#45;&gt;6</title>
<path fill="none" stroke="black" d="M498.23,-98.99C506.57,-93.41 515.77,-87.07 524,-81 533.56,-73.95 543.73,-65.92 552.79,-58.56"/>
<polygon fill="black" stroke="black" points="555.24,-61.09 560.76,-52.04 550.8,-55.67 555.24,-61.09"/>
<text text-anchor="middle" x="552" y="-73" font-family="Times,serif" font-size="10.00">1.000</text>
</g>
<!-- 7 -->
<g id="node9" class="node">
<title>7</title>
<text text-anchor="middle" x="653" y="-30.3" font-family="Times,serif" font-size="14.00">h</text>
</g>
<!-- 0&#45;&gt;7 -->
<g id="edge7" class="edge">
<title>0&#45;&gt;7</title>
<path fill="none" stroke="black" d="M499.09,-107.65C519.03,-101.18 546.62,-91.57 570,-81 585.76,-73.87 602.56,-64.86 616.89,-56.7"/>
<polygon fill="black" stroke="black" points="619,-59.52 625.91,-51.49 615.5,-53.45 619,-59.52"/>
<text text-anchor="middle" x="605" y="-73" font-family="Times,serif" font-size="10.00">1.000</text>
</g>
<!-- 8 -->
<g id="node10" class="node">
<title>8</title>
<text text-anchor="middle" x="725" y="-30.3" font-family="Times,serif" font-size="14.00">i</text>
</g>
<!-- 0&#45;&gt;8 -->
<g id="edge8" class="edge">
<title>0&#45;&gt;8</title>
<path fill="none" stroke="black" d="M499.15,-111.29C529.7,-105.62 580.61,-95.09 623,-81 650.79,-71.76 658.56,-66.28 688.76,-52.12"/>
<polygon fill="black" stroke="black" points="690.31,-55.27 697.91,-47.89 687.36,-48.91 690.31,-55.27"/>
<text text-anchor="middle" x="664" y="-73" font-family="Times,serif" font-size="10.00">1.000</text>
</g>
</g>
</svg>
