<?xml version="1.0" encoding="UTF-8" standalone="no"?>
<!DOCTYPE svg PUBLIC "-//W3C//DTD SVG 1.1//EN"
 "http://www.w3.org/Graphics/SVG/1.1/DTD/svg11.dtd">
<!-- Generated by graphviz version 2.43.0 (0)
 -->
<!-- Title: local_stemma Pages: 1 -->
<svg width="488pt" height="325pt"
 viewBox="0.00 0.00 488.00 325.00" xmlns="http://www.w3.org/2000/svg" xmlns:xlink="http://www.w3.org/1999/xlink">
<g id="graph0" class="graph" transform="scale(1 1) rotate(0) translate(4 321)">
<title>local_stemma</title>
<polygon fill="white" stroke="transparent" points="-4,4 -4,-321 484,-321 484,4 -4,4"/>
<g id="clust1" class="cluster">
<title>cluster_legend</title>
<polygon fill="none" stroke="black" points="8,-257 8,-309 186,-309 186,-257 8,-257"/>
</g>
<g id="clust2" class="cluster">
<title>cluster_plot</title>
</g>
<!-- label -->
<g id="node1" class="node">
<title>label</title>
<text text-anchor="middle" x="97" y="-279.3" font-family="Times,serif" font-size="14.00">adstag1.3.18U22&#45;28</text>
</g>
<!-- 0 -->
<g id="node2" class="node">
<title>0</title>
<text text-anchor="middle" x="334" y="-279.3" font-family="Times,serif" font-size="14.00">a</text>
</g>
<!-- 1 -->
<g id="node3" class="node">
<title>1</title>
<text text-anchor="middle" x="229" y="-196.3" font-family="Times,serif" font-size="14.00">ar1</text>
</g>
<!-- 0&#45;&gt;1 -->
<g id="edge2" class="edge">
<title>0&#45;&gt;1</title>
<path fill="none" stroke="black" stroke-dasharray="5,2" d="M306.83,-266.93C297.11,-261.13 286.28,-254.17 277,-247 268.5,-240.44 259.84,-232.58 252.26,-225.22"/>
<polygon fill="black" stroke="black" points="254.65,-222.66 245.09,-218.1 249.72,-227.63 254.65,-222.66"/>
<text text-anchor="middle" x="291" y="-239" font-family="Times,serif" font-size="10.00">0.000</text>
</g>
<!-- 2 -->
<g id="node4" class="node">
<title>2</title>
<text text-anchor="middle" x="301" y="-196.3" font-family="Times,serif" font-size="14.00">b</text>
</g>
<!-- 0&#45;&gt;2 -->
<g id="edge1" class="edge">
<title>0&#45;&gt;2</title>
<path fill="none" stroke="black" d="M322.3,-264.71C318.95,-259.22 315.53,-253.01 313,-247 310.54,-241.15 308.48,-234.67 306.79,-228.46"/>
<polygon fill="black" stroke="black" points="310.11,-227.29 304.31,-218.42 303.32,-228.97 310.11,-227.29"/>
<text text-anchor="middle" x="327" y="-239" font-family="Times,serif" font-size="10.00">1.000</text>
</g>
<!-- 4 -->
<g id="node6" class="node">
<title>4</title>
<text text-anchor="middle" x="373" y="-196.3" font-family="Times,serif" font-size="14.00">d</text>
</g>
<!-- 0&#45;&gt;4 -->
<g id="edge4" class="edge">
<title>0&#45;&gt;4</title>
<path fill="none" stroke="black" d="M342.27,-264.82C347.49,-253.98 354.35,-239.74 360.25,-227.47"/>
<polygon fill="black" stroke="black" points="363.56,-228.68 364.74,-218.15 357.25,-225.64 363.56,-228.68"/>
<text text-anchor="middle" x="369" y="-239" font-family="Times,serif" font-size="10.00">1.000</text>
</g>
<!-- 6 -->
<g id="node8" class="node">
<title>6</title>
<text text-anchor="middle" x="435" y="-113.3" font-family="Times,serif" font-size="14.00">f</text>
</g>
<!-- 0&#45;&gt;6 -->
<g id="edge7" class="edge">
<title>0&#45;&gt;6</title>
<path fill="none" stroke="black" d="M361.18,-266.55C369.89,-260.97 379.27,-254.24 387,-247 398.81,-235.94 400.99,-232.06 409,-218 421.83,-195.48 424.92,-189.19 431,-164 432.45,-158.01 433.38,-151.47 433.99,-145.25"/>
<polygon fill="black" stroke="black" points="437.48,-145.47 434.72,-135.24 430.5,-144.95 437.48,-145.47"/>
<text text-anchor="middle" x="439" y="-197.5" font-family="Times,serif" font-size="10.00">1.000</text>
</g>
<!-- 3 -->
<g id="node5" class="node">
<title>3</title>
<text text-anchor="middle" x="363" y="-30.3" font-family="Times,serif" font-size="14.00">c</text>
</g>
<!-- 4&#45;&gt;3 -->
<g id="edge3" class="edge">
<title>4&#45;&gt;3</title>
<path fill="none" stroke="black" d="M371.95,-181.76C370.21,-153.26 366.73,-96.12 364.66,-62.16"/>
<polygon fill="black" stroke="black" points="368.14,-61.78 364.04,-52.01 361.15,-62.2 368.14,-61.78"/>
<text text-anchor="middle" x="382" y="-114.5" font-family="Times,serif" font-size="10.00">1.000</text>
</g>
<!-- 4&#45;&gt;6 -->
<g id="edge5" class="edge">
<title>4&#45;&gt;6</title>
<path fill="none" stroke="black" d="M383.2,-181.94C388.73,-173.07 395.87,-162.19 403,-153 405.61,-149.63 408.47,-146.2 411.38,-142.86"/>
<polygon fill="black" stroke="black" points="414.07,-145.1 418.14,-135.32 408.86,-140.42 414.07,-145.1"/>
<text text-anchor="middle" x="417" y="-156" font-family="Times,serif" font-size="10.00">1.000</text>
</g>
<!-- 5 -->
<g id="node7" class="node">
<title>5</title>
<text text-anchor="middle" x="436" y="-30.3" font-family="Times,serif" font-size="14.00">e</text>
</g>
<!-- 6&#45;&gt;3 -->
<g id="edge8" class="edge">
<title>6&#45;&gt;3</title>
<path fill="none" stroke="black" d="M419.29,-98.99C414.08,-93.3 408.26,-86.9 403,-81 396.93,-74.19 390.4,-66.74 384.43,-59.87"/>
<polygon fill="black" stroke="black" points="386.91,-57.39 377.72,-52.13 381.62,-61.98 386.91,-57.39"/>
<text text-anchor="middle" x="417" y="-73" font-family="Times,serif" font-size="10.00">1.000</text>
</g>
<!-- 6&#45;&gt;5 -->
<g id="edge6" class="edge">
<title>6&#45;&gt;5</title>
<path fill="none" stroke="black" d="M435.21,-98.82C435.34,-88.19 435.51,-74.31 435.66,-62.2"/>
<polygon fill="black" stroke="black" points="439.16,-62.2 435.79,-52.15 432.16,-62.11 439.16,-62.2"/>
<text text-anchor="middle" x="449" y="-73" font-family="Times,serif" font-size="10.00">1.000</text>
</g>
</g>
</svg>
