<?xml version="1.0" encoding="UTF-8" standalone="no"?>
<!DOCTYPE svg PUBLIC "-//W3C//DTD SVG 1.1//EN"
 "http://www.w3.org/Graphics/SVG/1.1/DTD/svg11.dtd">
<!-- Generated by graphviz version 2.43.0 (0)
 -->
<!-- Title: local_stemma Pages: 1 -->
<svg width="416pt" height="242pt"
 viewBox="0.00 0.00 416.00 242.00" xmlns="http://www.w3.org/2000/svg" xmlns:xlink="http://www.w3.org/1999/xlink">
<g id="graph0" class="graph" transform="scale(1 1) rotate(0) translate(4 238)">
<title>local_stemma</title>
<polygon fill="white" stroke="transparent" points="-4,4 -4,-238 412,-238 412,4 -4,4"/>
<g id="clust1" class="cluster">
<title>cluster_legend</title>
<polygon fill="none" stroke="black" points="8,-174 8,-226 186,-226 186,-174 8,-174"/>
</g>
<g id="clust2" class="cluster">
<title>cluster_plot</title>
</g>
<!-- label -->
<g id="node1" class="node">
<title>label</title>
<text text-anchor="middle" x="97" y="-196.3" font-family="Times,serif" font-size="14.00">adstag1.3.46U62&#45;66</text>
</g>
<!-- 0 -->
<g id="node2" class="node">
<title>0</title>
<text text-anchor="middle" x="292" y="-196.3" font-family="Times,serif" font-size="14.00">a</text>
</g>
<!-- 1 -->
<g id="node3" class="node">
<title>1</title>
<text text-anchor="middle" x="229" y="-113.3" font-family="Times,serif" font-size="14.00">b</text>
</g>
<!-- 0&#45;&gt;1 -->
<g id="edge4" class="edge">
<title>0&#45;&gt;1</title>
<path fill="none" stroke="black" d="M274.57,-181.74C269.35,-176.25 263.75,-170.04 259,-164 254.05,-157.72 249.13,-150.61 244.74,-143.9"/>
<polygon fill="black" stroke="black" points="247.46,-141.66 239.14,-135.1 241.56,-145.42 247.46,-141.66"/>
<text text-anchor="middle" x="273" y="-156" font-family="Times,serif" font-size="10.00">1.000</text>
</g>
<!-- 2 -->
<g id="node4" class="node">
<title>2</title>
<text text-anchor="middle" x="316" y="-30.3" font-family="Times,serif" font-size="14.00">c</text>
</g>
<!-- 0&#45;&gt;2 -->
<g id="edge1" class="edge">
<title>0&#45;&gt;2</title>
<path fill="none" stroke="black" d="M292.81,-181.92C293.92,-161.94 296.33,-127.91 301,-99 302.98,-86.75 305.98,-73.36 308.78,-62.01"/>
<polygon fill="black" stroke="black" points="312.19,-62.81 311.26,-52.25 305.41,-61.08 312.19,-62.81"/>
<text text-anchor="middle" x="315" y="-114.5" font-family="Times,serif" font-size="10.00">1.000</text>
</g>
<!-- 3 -->
<g id="node5" class="node">
<title>3</title>
<text text-anchor="middle" x="365" y="-113.3" font-family="Times,serif" font-size="14.00">d</text>
</g>
<!-- 0&#45;&gt;3 -->
<g id="edge3" class="edge">
<title>0&#45;&gt;3</title>
<path fill="none" stroke="black" d="M307.48,-181.82C317.74,-170.44 331.36,-155.33 342.77,-142.66"/>
<polygon fill="black" stroke="black" points="345.45,-144.92 349.54,-135.15 340.25,-140.24 345.45,-144.92"/>
<text text-anchor="middle" x="346" y="-156" font-family="Times,serif" font-size="10.00">1.000</text>
</g>
<!-- 3&#45;&gt;2 -->
<g id="edge2" class="edge">
<title>3&#45;&gt;2</title>
<path fill="none" stroke="black" d="M354.61,-98.82C347.92,-87.76 339.1,-73.18 331.57,-60.75"/>
<polygon fill="black" stroke="black" points="334.55,-58.9 326.38,-52.15 328.56,-62.52 334.55,-58.9"/>
<text text-anchor="middle" x="357" y="-73" font-family="Times,serif" font-size="10.00">1.000</text>
</g>
</g>
</svg>
