<?xml version="1.0" encoding="UTF-8" standalone="no"?>
<!DOCTYPE svg PUBLIC "-//W3C//DTD SVG 1.1//EN"
 "http://www.w3.org/Graphics/SVG/1.1/DTD/svg11.dtd">
<!-- Generated by graphviz version 2.43.0 (0)
 -->
<!-- Title: local_stemma Pages: 1 -->
<svg width="402pt" height="159pt"
 viewBox="0.00 0.00 402.00 159.00" xmlns="http://www.w3.org/2000/svg" xmlns:xlink="http://www.w3.org/1999/xlink">
<g id="graph0" class="graph" transform="scale(1 1) rotate(0) translate(4 155)">
<title>local_stemma</title>
<polygon fill="white" stroke="transparent" points="-4,4 -4,-155 398,-155 398,4 -4,4"/>
<g id="clust1" class="cluster">
<title>cluster_legend</title>
<polygon fill="none" stroke="black" points="8,-91 8,-143 164,-143 164,-91 8,-91"/>
</g>
<g id="clust2" class="cluster">
<title>cluster_plot</title>
</g>
<!-- label -->
<g id="node1" class="node">
<title>label</title>
<text text-anchor="middle" x="86" y="-113.3" font-family="Times,serif" font-size="14.00">adstag1.2.40U24</text>
</g>
<!-- 0 -->
<g id="node2" class="node">
<title>0</title>
<text text-anchor="middle" x="279" y="-113.3" font-family="Times,serif" font-size="14.00">a</text>
</g>
<!-- 1 -->
<g id="node3" class="node">
<title>1</title>
<text text-anchor="middle" x="207" y="-30.3" font-family="Times,serif" font-size="14.00">b</text>
</g>
<!-- 0&#45;&gt;1 -->
<g id="edge1" class="edge">
<title>0&#45;&gt;1</title>
<path fill="none" stroke="black" d="M263.29,-98.99C258.08,-93.3 252.26,-86.9 247,-81 240.93,-74.19 234.4,-66.74 228.43,-59.87"/>
<polygon fill="black" stroke="black" points="230.91,-57.39 221.72,-52.13 225.62,-61.98 230.91,-57.39"/>
<text text-anchor="middle" x="261" y="-73" font-family="Times,serif" font-size="10.00">1.000</text>
</g>
<!-- 2 -->
<g id="node4" class="node">
<title>2</title>
<text text-anchor="middle" x="279" y="-30.3" font-family="Times,serif" font-size="14.00">c</text>
</g>
<!-- 0&#45;&gt;2 -->
<g id="edge2" class="edge">
<title>0&#45;&gt;2</title>
<path fill="none" stroke="black" d="M279,-98.82C279,-88.19 279,-74.31 279,-62.2"/>
<polygon fill="black" stroke="black" points="282.5,-62.15 279,-52.15 275.5,-62.15 282.5,-62.15"/>
<text text-anchor="middle" x="293" y="-73" font-family="Times,serif" font-size="10.00">1.000</text>
</g>
<!-- 3 -->
<g id="node5" class="node">
<title>3</title>
<text text-anchor="middle" x="351" y="-30.3" font-family="Times,serif" font-size="14.00">d</text>
</g>
<!-- 0&#45;&gt;3 -->
<g id="edge3" class="edge">
<title>0&#45;&gt;3</title>
<path fill="none" stroke="black" d="M294.71,-98.99C299.92,-93.3 305.74,-86.9 311,-81 317.07,-74.19 323.6,-66.74 329.57,-59.87"/>
<polygon fill="black" stroke="black" points="332.38,-61.98 336.28,-52.13 327.09,-57.39 332.38,-61.98"/>
<text text-anchor="middle" x="333" y="-73" font-family="Times,serif" font-size="10.00">1.000</text>
</g>
</g>
</svg>
