<?xml version="1.0" encoding="UTF-8" standalone="no"?>
<!DOCTYPE svg PUBLIC "-//W3C//DTD SVG 1.1//EN"
 "http://www.w3.org/Graphics/SVG/1.1/DTD/svg11.dtd">
<!-- Generated by graphviz version 2.43.0 (0)
 -->
<!-- Title: local_stemma Pages: 1 -->
<svg width="488pt" height="325pt"
 viewBox="0.00 0.00 488.00 325.00" xmlns="http://www.w3.org/2000/svg" xmlns:xlink="http://www.w3.org/1999/xlink">
<g id="graph0" class="graph" transform="scale(1 1) rotate(0) translate(4 321)">
<title>local_stemma</title>
<polygon fill="white" stroke="transparent" points="-4,4 -4,-321 484,-321 484,4 -4,4"/>
<g id="clust1" class="cluster">
<title>cluster_legend</title>
<polygon fill="none" stroke="black" points="8,-257 8,-309 178,-309 178,-257 8,-257"/>
</g>
<g id="clust2" class="cluster">
<title>cluster_plot</title>
</g>
<!-- label -->
<g id="node1" class="node">
<title>label</title>
<text text-anchor="middle" x="93" y="-279.3" font-family="Times,serif" font-size="14.00">adstag1.3.55U4&#45;16</text>
</g>
<!-- 0 -->
<g id="node2" class="node">
<title>0</title>
<text text-anchor="middle" x="331" y="-279.3" font-family="Times,serif" font-size="14.00">a</text>
</g>
<!-- 1 -->
<g id="node3" class="node">
<title>1</title>
<text text-anchor="middle" x="221" y="-196.3" font-family="Times,serif" font-size="14.00">b</text>
</g>
<!-- 0&#45;&gt;1 -->
<g id="edge3" class="edge">
<title>0&#45;&gt;1</title>
<path fill="none" stroke="black" d="M303.96,-265.77C294.9,-260.08 284.86,-253.48 276,-247 266.54,-240.08 256.6,-232.02 247.81,-224.61"/>
<polygon fill="black" stroke="black" points="249.98,-221.86 240.1,-218.03 245.43,-227.18 249.98,-221.86"/>
<text text-anchor="middle" x="290" y="-239" font-family="Times,serif" font-size="10.00">1.000</text>
</g>
<!-- 3 -->
<g id="node5" class="node">
<title>3</title>
<text text-anchor="middle" x="293" y="-196.3" font-family="Times,serif" font-size="14.00">d</text>
</g>
<!-- 0&#45;&gt;3 -->
<g id="edge2" class="edge">
<title>0&#45;&gt;3</title>
<path fill="none" stroke="black" d="M321.8,-264.66C318.91,-259.06 315.75,-252.8 313,-247 310.06,-240.8 307.04,-234.07 304.26,-227.71"/>
<polygon fill="black" stroke="black" points="307.32,-225.96 300.15,-218.16 300.89,-228.73 307.32,-225.96"/>
<text text-anchor="middle" x="327" y="-239" font-family="Times,serif" font-size="10.00">1.000</text>
</g>
<!-- 4 -->
<g id="node6" class="node">
<title>4</title>
<text text-anchor="middle" x="365" y="-196.3" font-family="Times,serif" font-size="14.00">e</text>
</g>
<!-- 0&#45;&gt;4 -->
<g id="edge4" class="edge">
<title>0&#45;&gt;4</title>
<path fill="none" stroke="black" d="M338.21,-264.82C342.76,-253.98 348.74,-239.74 353.89,-227.47"/>
<polygon fill="black" stroke="black" points="357.16,-228.73 357.8,-218.15 350.7,-226.02 357.16,-228.73"/>
<text text-anchor="middle" x="364" y="-239" font-family="Times,serif" font-size="10.00">1.000</text>
</g>
<!-- 7 -->
<g id="node9" class="node">
<title>7</title>
<text text-anchor="middle" x="437" y="-196.3" font-family="Times,serif" font-size="14.00">h</text>
</g>
<!-- 0&#45;&gt;7 -->
<g id="edge6" class="edge">
<title>0&#45;&gt;7</title>
<path fill="none" stroke="black" d="M357.02,-264.84C365.14,-259.31 374.04,-253.04 382,-247 391.26,-239.97 401.09,-231.95 409.83,-224.59"/>
<polygon fill="black" stroke="black" points="412.16,-227.21 417.51,-218.07 407.62,-221.88 412.16,-227.21"/>
<text text-anchor="middle" x="409" y="-239" font-family="Times,serif" font-size="10.00">1.000</text>
</g>
<!-- 2 -->
<g id="node4" class="node">
<title>2</title>
<text text-anchor="middle" x="364" y="-30.3" font-family="Times,serif" font-size="14.00">c</text>
</g>
<!-- 5 -->
<g id="node7" class="node">
<title>5</title>
<text text-anchor="middle" x="246" y="-279.3" font-family="Times,serif" font-size="14.00">f</text>
</g>
<!-- 6 -->
<g id="node8" class="node">
<title>6</title>
<text text-anchor="middle" x="364" y="-113.3" font-family="Times,serif" font-size="14.00">g</text>
</g>
<!-- 6&#45;&gt;2 -->
<g id="edge1" class="edge">
<title>6&#45;&gt;2</title>
<path fill="none" stroke="black" d="M364,-98.82C364,-88.19 364,-74.31 364,-62.2"/>
<polygon fill="black" stroke="black" points="367.5,-62.15 364,-52.15 360.5,-62.15 367.5,-62.15"/>
<text text-anchor="middle" x="378" y="-73" font-family="Times,serif" font-size="10.00">1.000</text>
</g>
<!-- 7&#45;&gt;6 -->
<g id="edge5" class="edge">
<title>7&#45;&gt;6</title>
<path fill="none" stroke="black" d="M420.41,-181.68C415.12,-176.08 409.27,-169.82 404,-164 397.87,-157.23 391.33,-149.81 385.36,-142.93"/>
<polygon fill="black" stroke="black" points="387.84,-140.46 378.66,-135.18 382.55,-145.04 387.84,-140.46"/>
<text text-anchor="middle" x="418" y="-156" font-family="Times,serif" font-size="10.00">1.000</text>
</g>
<!-- 8 -->
<g id="node10" class="node">
<title>8</title>
<text text-anchor="middle" x="436" y="-113.3" font-family="Times,serif" font-size="14.00">i</text>
</g>
<!-- 7&#45;&gt;8 -->
<g id="edge7" class="edge">
<title>7&#45;&gt;8</title>
<path fill="none" stroke="black" d="M436.79,-181.82C436.66,-171.19 436.49,-157.31 436.34,-145.2"/>
<polygon fill="black" stroke="black" points="439.84,-145.11 436.21,-135.15 432.84,-145.2 439.84,-145.11"/>
<text text-anchor="middle" x="450" y="-156" font-family="Times,serif" font-size="10.00">1.000</text>
</g>
</g>
</svg>
