<?xml version="1.0" encoding="UTF-8" standalone="no"?>
<!DOCTYPE svg PUBLIC "-//W3C//DTD SVG 1.1//EN"
 "http://www.w3.org/Graphics/SVG/1.1/DTD/svg11.dtd">
<!-- Generated by graphviz version 2.43.0 (0)
 -->
<!-- Title: local_stemma Pages: 1 -->
<svg width="568pt" height="242pt"
 viewBox="0.00 0.00 568.00 242.00" xmlns="http://www.w3.org/2000/svg" xmlns:xlink="http://www.w3.org/1999/xlink">
<g id="graph0" class="graph" transform="scale(1 1) rotate(0) translate(4 238)">
<title>local_stemma</title>
<polygon fill="white" stroke="transparent" points="-4,4 -4,-238 564,-238 564,4 -4,4"/>
<g id="clust1" class="cluster">
<title>cluster_legend</title>
<polygon fill="none" stroke="black" points="8,-174 8,-226 186,-226 186,-174 8,-174"/>
</g>
<g id="clust2" class="cluster">
<title>cluster_plot</title>
</g>
<!-- label -->
<g id="node1" class="node">
<title>label</title>
<text text-anchor="middle" x="97" y="-196.3" font-family="Times,serif" font-size="14.00">adstag1.3.47U54&#45;60</text>
</g>
<!-- 0 -->
<g id="node2" class="node">
<title>0</title>
<text text-anchor="middle" x="373" y="-196.3" font-family="Times,serif" font-size="14.00">a</text>
</g>
<!-- 1 -->
<g id="node3" class="node">
<title>1</title>
<text text-anchor="middle" x="229" y="-113.3" font-family="Times,serif" font-size="14.00">ar1</text>
</g>
<!-- 0&#45;&gt;1 -->
<g id="edge1" class="edge">
<title>0&#45;&gt;1</title>
<path fill="none" stroke="black" stroke-dasharray="5,2" d="M345.88,-187C331.95,-180.59 314.83,-172.32 300,-164 287.44,-156.96 274.09,-148.57 262.4,-140.89"/>
<polygon fill="black" stroke="black" points="264.09,-137.81 253.82,-135.19 260.21,-143.64 264.09,-137.81"/>
<text text-anchor="middle" x="314" y="-156" font-family="Times,serif" font-size="10.00">0.000</text>
</g>
<!-- 2 -->
<g id="node4" class="node">
<title>2</title>
<text text-anchor="middle" x="301" y="-113.3" font-family="Times,serif" font-size="14.00">ar2</text>
</g>
<!-- 0&#45;&gt;2 -->
<g id="edge2" class="edge">
<title>0&#45;&gt;2</title>
<path fill="none" stroke="black" stroke-dasharray="5,2" d="M357.29,-181.99C352.08,-176.3 346.26,-169.9 341,-164 334.93,-157.19 328.4,-149.74 322.43,-142.87"/>
<polygon fill="black" stroke="black" points="324.91,-140.39 315.72,-135.13 319.62,-144.98 324.91,-140.39"/>
<text text-anchor="middle" x="355" y="-156" font-family="Times,serif" font-size="10.00">0.000</text>
</g>
<!-- 3 -->
<g id="node5" class="node">
<title>3</title>
<text text-anchor="middle" x="373" y="-113.3" font-family="Times,serif" font-size="14.00">ar3</text>
</g>
<!-- 0&#45;&gt;3 -->
<g id="edge3" class="edge">
<title>0&#45;&gt;3</title>
<path fill="none" stroke="black" stroke-dasharray="5,2" d="M373,-181.82C373,-171.19 373,-157.31 373,-145.2"/>
<polygon fill="black" stroke="black" points="376.5,-145.15 373,-135.15 369.5,-145.15 376.5,-145.15"/>
<text text-anchor="middle" x="387" y="-156" font-family="Times,serif" font-size="10.00">0.000</text>
</g>
<!-- 4 -->
<g id="node6" class="node">
<title>4</title>
<text text-anchor="middle" x="445" y="-113.3" font-family="Times,serif" font-size="14.00">b</text>
</g>
<!-- 0&#45;&gt;4 -->
<g id="edge5" class="edge">
<title>0&#45;&gt;4</title>
<path fill="none" stroke="black" d="M388.71,-181.99C393.92,-176.3 399.74,-169.9 405,-164 411.07,-157.19 417.6,-149.74 423.57,-142.87"/>
<polygon fill="black" stroke="black" points="426.38,-144.98 430.28,-135.13 421.09,-140.39 426.38,-144.98"/>
<text text-anchor="middle" x="427" y="-156" font-family="Times,serif" font-size="10.00">1.000</text>
</g>
<!-- 6 -->
<g id="node8" class="node">
<title>6</title>
<text text-anchor="middle" x="517" y="-113.3" font-family="Times,serif" font-size="14.00">c</text>
</g>
<!-- 0&#45;&gt;6 -->
<g id="edge6" class="edge">
<title>0&#45;&gt;6</title>
<path fill="none" stroke="black" d="M400.05,-186.76C413.72,-180.35 430.45,-172.15 445,-164 457.69,-156.9 471.21,-148.49 483.08,-140.82"/>
<polygon fill="black" stroke="black" points="485.32,-143.53 491.78,-135.13 481.5,-137.67 485.32,-143.53"/>
<text text-anchor="middle" x="477" y="-156" font-family="Times,serif" font-size="10.00">1.000</text>
</g>
<!-- 5 -->
<g id="node7" class="node">
<title>5</title>
<text text-anchor="middle" x="444" y="-30.3" font-family="Times,serif" font-size="14.00">br1</text>
</g>
<!-- 4&#45;&gt;5 -->
<g id="edge4" class="edge">
<title>4&#45;&gt;5</title>
<path fill="none" stroke="black" stroke-dasharray="5,2" d="M444.79,-98.82C444.66,-88.19 444.49,-74.31 444.34,-62.2"/>
<polygon fill="black" stroke="black" points="447.84,-62.11 444.21,-52.15 440.84,-62.2 447.84,-62.11"/>
<text text-anchor="middle" x="458" y="-73" font-family="Times,serif" font-size="10.00">0.000</text>
</g>
<!-- 7 -->
<g id="node9" class="node">
<title>7</title>
<text text-anchor="middle" x="516" y="-30.3" font-family="Times,serif" font-size="14.00">d</text>
</g>
<!-- 6&#45;&gt;7 -->
<g id="edge7" class="edge">
<title>6&#45;&gt;7</title>
<path fill="none" stroke="black" d="M516.79,-98.82C516.66,-88.19 516.49,-74.31 516.34,-62.2"/>
<polygon fill="black" stroke="black" points="519.84,-62.11 516.21,-52.15 512.84,-62.2 519.84,-62.11"/>
<text text-anchor="middle" x="530" y="-73" font-family="Times,serif" font-size="10.00">1.000</text>
</g>
<!-- 8 -->
<g id="node10" class="node">
<title>8</title>
<text text-anchor="middle" x="265" y="-196.3" font-family="Times,serif" font-size="14.00">e</text>
</g>
</g>
</svg>
