<?xml version="1.0" encoding="UTF-8" standalone="no"?>
<!DOCTYPE svg PUBLIC "-//W3C//DTD SVG 1.1//EN"
 "http://www.w3.org/Graphics/SVG/1.1/DTD/svg11.dtd">
<!-- Generated by graphviz version 2.43.0 (0)
 -->
<!-- Title: local_stemma Pages: 1 -->
<svg width="322pt" height="242pt"
 viewBox="0.00 0.00 322.00 242.00" xmlns="http://www.w3.org/2000/svg" xmlns:xlink="http://www.w3.org/1999/xlink">
<g id="graph0" class="graph" transform="scale(1 1) rotate(0) translate(4 238)">
<title>local_stemma</title>
<polygon fill="white" stroke="transparent" points="-4,4 -4,-238 318,-238 318,4 -4,4"/>
<g id="clust1" class="cluster">
<title>cluster_legend</title>
<polygon fill="none" stroke="black" points="8,-174 8,-226 156,-226 156,-174 8,-174"/>
</g>
<g id="clust2" class="cluster">
<title>cluster_plot</title>
</g>
<!-- label -->
<g id="node1" class="node">
<title>label</title>
<text text-anchor="middle" x="82" y="-196.3" font-family="Times,serif" font-size="14.00">adstag1.2.24U4</text>
</g>
<!-- 0 -->
<g id="node2" class="node">
<title>0</title>
<text text-anchor="middle" x="224" y="-196.3" font-family="Times,serif" font-size="14.00">a</text>
</g>
<!-- 1 -->
<g id="node3" class="node">
<title>1</title>
<text text-anchor="middle" x="224" y="-113.3" font-family="Times,serif" font-size="14.00">b</text>
</g>
<!-- 0&#45;&gt;1 -->
<g id="edge1" class="edge">
<title>0&#45;&gt;1</title>
<path fill="none" stroke="black" d="M224,-181.82C224,-171.19 224,-157.31 224,-145.2"/>
<polygon fill="black" stroke="black" points="227.5,-145.15 224,-135.15 220.5,-145.15 227.5,-145.15"/>
<text text-anchor="middle" x="238" y="-156" font-family="Times,serif" font-size="10.00">1.000</text>
</g>
<!-- 2 -->
<g id="node4" class="node">
<title>2</title>
<text text-anchor="middle" x="199" y="-30.3" font-family="Times,serif" font-size="14.00">br1</text>
</g>
<!-- 1&#45;&gt;2 -->
<g id="edge3" class="edge">
<title>1&#45;&gt;2</title>
<path fill="none" stroke="black" stroke-dasharray="5,2" d="M218.7,-98.82C215.38,-88.08 211.04,-74.03 207.28,-61.84"/>
<polygon fill="black" stroke="black" points="210.59,-60.68 204.29,-52.15 203.9,-62.74 210.59,-60.68"/>
<text text-anchor="middle" x="226" y="-73" font-family="Times,serif" font-size="10.00">0.000</text>
</g>
<!-- 3 -->
<g id="node5" class="node">
<title>3</title>
<text text-anchor="middle" x="271" y="-30.3" font-family="Times,serif" font-size="14.00">c</text>
</g>
<!-- 1&#45;&gt;3 -->
<g id="edge2" class="edge">
<title>1&#45;&gt;3</title>
<path fill="none" stroke="black" d="M233.97,-98.82C240.32,-87.87 248.68,-73.46 255.85,-61.11"/>
<polygon fill="black" stroke="black" points="259.06,-62.56 261.05,-52.15 253,-59.05 259.06,-62.56"/>
<text text-anchor="middle" x="264" y="-73" font-family="Times,serif" font-size="10.00">1.000</text>
</g>
</g>
</svg>
