<?xml version="1.0" encoding="UTF-8" standalone="no"?>
<!DOCTYPE svg PUBLIC "-//W3C//DTD SVG 1.1//EN"
 "http://www.w3.org/Graphics/SVG/1.1/DTD/svg11.dtd">
<!-- Generated by graphviz version 2.43.0 (0)
 -->
<!-- Title: local_stemma Pages: 1 -->
<svg width="334pt" height="242pt"
 viewBox="0.00 0.00 334.00 242.00" xmlns="http://www.w3.org/2000/svg" xmlns:xlink="http://www.w3.org/1999/xlink">
<g id="graph0" class="graph" transform="scale(1 1) rotate(0) translate(4 238)">
<title>local_stemma</title>
<polygon fill="white" stroke="transparent" points="-4,4 -4,-238 330,-238 330,4 -4,4"/>
<g id="clust1" class="cluster">
<title>cluster_legend</title>
<polygon fill="none" stroke="black" points="8,-174 8,-226 168,-226 168,-174 8,-174"/>
</g>
<g id="clust2" class="cluster">
<title>cluster_plot</title>
</g>
<!-- label -->
<g id="node1" class="node">
<title>label</title>
<text text-anchor="middle" x="88" y="-196.3" font-family="Times,serif" font-size="14.00">adstag1.3.70U2&#45;6</text>
</g>
<!-- 0 -->
<g id="node2" class="node">
<title>0</title>
<text text-anchor="middle" x="236" y="-196.3" font-family="Times,serif" font-size="14.00">a</text>
</g>
<!-- 1 -->
<g id="node3" class="node">
<title>1</title>
<text text-anchor="middle" x="211" y="-113.3" font-family="Times,serif" font-size="14.00">b</text>
</g>
<!-- 0&#45;&gt;1 -->
<g id="edge1" class="edge">
<title>0&#45;&gt;1</title>
<path fill="none" stroke="black" d="M230.7,-181.82C227.38,-171.08 223.04,-157.03 219.28,-144.84"/>
<polygon fill="black" stroke="black" points="222.59,-143.68 216.29,-135.15 215.9,-145.74 222.59,-143.68"/>
<text text-anchor="middle" x="238" y="-156" font-family="Times,serif" font-size="10.00">1.000</text>
</g>
<!-- 2 -->
<g id="node4" class="node">
<title>2</title>
<text text-anchor="middle" x="283" y="-113.3" font-family="Times,serif" font-size="14.00">c</text>
</g>
<!-- 0&#45;&gt;2 -->
<g id="edge2" class="edge">
<title>0&#45;&gt;2</title>
<path fill="none" stroke="black" d="M245.97,-181.82C252.32,-170.87 260.68,-156.46 267.85,-144.11"/>
<polygon fill="black" stroke="black" points="271.06,-145.56 273.05,-135.15 265,-142.05 271.06,-145.56"/>
<text text-anchor="middle" x="276" y="-156" font-family="Times,serif" font-size="10.00">1.000</text>
</g>
<!-- 3 -->
<g id="node5" class="node">
<title>3</title>
<text text-anchor="middle" x="282" y="-30.3" font-family="Times,serif" font-size="14.00">d</text>
</g>
<!-- 2&#45;&gt;3 -->
<g id="edge3" class="edge">
<title>2&#45;&gt;3</title>
<path fill="none" stroke="black" d="M282.79,-98.82C282.66,-88.19 282.49,-74.31 282.34,-62.2"/>
<polygon fill="black" stroke="black" points="285.84,-62.11 282.21,-52.15 278.84,-62.2 285.84,-62.11"/>
<text text-anchor="middle" x="296" y="-73" font-family="Times,serif" font-size="10.00">1.000</text>
</g>
</g>
</svg>
