<?xml version="1.0" encoding="UTF-8" standalone="no"?>
<!DOCTYPE svg PUBLIC "-//W3C//DTD SVG 1.1//EN"
 "http://www.w3.org/Graphics/SVG/1.1/DTD/svg11.dtd">
<!-- Generated by graphviz version 2.43.0 (0)
 -->
<!-- Title: local_stemma Pages: 1 -->
<svg width="424pt" height="242pt"
 viewBox="0.00 0.00 424.00 242.00" xmlns="http://www.w3.org/2000/svg" xmlns:xlink="http://www.w3.org/1999/xlink">
<g id="graph0" class="graph" transform="scale(1 1) rotate(0) translate(4 238)">
<title>local_stemma</title>
<polygon fill="white" stroke="transparent" points="-4,4 -4,-238 420,-238 420,4 -4,4"/>
<g id="clust1" class="cluster">
<title>cluster_legend</title>
<polygon fill="none" stroke="black" points="8,-174 8,-226 186,-226 186,-174 8,-174"/>
</g>
<g id="clust2" class="cluster">
<title>cluster_plot</title>
</g>
<!-- label -->
<g id="node1" class="node">
<title>label</title>
<text text-anchor="middle" x="97" y="-196.3" font-family="Times,serif" font-size="14.00">adstag1.3.47U54&#45;60</text>
</g>
<!-- 0 -->
<g id="node2" class="node">
<title>0</title>
<text text-anchor="middle" x="301" y="-196.3" font-family="Times,serif" font-size="14.00">a</text>
</g>
<!-- 1 -->
<g id="node3" class="node">
<title>1</title>
<text text-anchor="middle" x="229" y="-113.3" font-family="Times,serif" font-size="14.00">ar1</text>
</g>
<!-- 0&#45;&gt;1 -->
<g id="edge1" class="edge">
<title>0&#45;&gt;1</title>
<path fill="none" stroke="black" stroke-dasharray="5,2" d="M285.29,-181.99C280.08,-176.3 274.26,-169.9 269,-164 262.93,-157.19 256.4,-149.74 250.43,-142.87"/>
<polygon fill="black" stroke="black" points="252.91,-140.39 243.72,-135.13 247.62,-144.98 252.91,-140.39"/>
<text text-anchor="middle" x="283" y="-156" font-family="Times,serif" font-size="10.00">0.000</text>
</g>
<!-- 2 -->
<g id="node4" class="node">
<title>2</title>
<text text-anchor="middle" x="301" y="-113.3" font-family="Times,serif" font-size="14.00">b</text>
</g>
<!-- 0&#45;&gt;2 -->
<g id="edge3" class="edge">
<title>0&#45;&gt;2</title>
<path fill="none" stroke="black" d="M301,-181.82C301,-171.19 301,-157.31 301,-145.2"/>
<polygon fill="black" stroke="black" points="304.5,-145.15 301,-135.15 297.5,-145.15 304.5,-145.15"/>
<text text-anchor="middle" x="315" y="-156" font-family="Times,serif" font-size="10.00">1.000</text>
</g>
<!-- 4 -->
<g id="node6" class="node">
<title>4</title>
<text text-anchor="middle" x="373" y="-113.3" font-family="Times,serif" font-size="14.00">c</text>
</g>
<!-- 0&#45;&gt;4 -->
<g id="edge4" class="edge">
<title>0&#45;&gt;4</title>
<path fill="none" stroke="black" d="M316.71,-181.99C321.92,-176.3 327.74,-169.9 333,-164 339.07,-157.19 345.6,-149.74 351.57,-142.87"/>
<polygon fill="black" stroke="black" points="354.38,-144.98 358.28,-135.13 349.09,-140.39 354.38,-144.98"/>
<text text-anchor="middle" x="355" y="-156" font-family="Times,serif" font-size="10.00">1.000</text>
</g>
<!-- 3 -->
<g id="node5" class="node">
<title>3</title>
<text text-anchor="middle" x="300" y="-30.3" font-family="Times,serif" font-size="14.00">br1</text>
</g>
<!-- 2&#45;&gt;3 -->
<g id="edge2" class="edge">
<title>2&#45;&gt;3</title>
<path fill="none" stroke="black" stroke-dasharray="5,2" d="M300.79,-98.82C300.66,-88.19 300.49,-74.31 300.34,-62.2"/>
<polygon fill="black" stroke="black" points="303.84,-62.11 300.21,-52.15 296.84,-62.2 303.84,-62.11"/>
<text text-anchor="middle" x="314" y="-73" font-family="Times,serif" font-size="10.00">0.000</text>
</g>
<!-- 5 -->
<g id="node7" class="node">
<title>5</title>
<text text-anchor="middle" x="372" y="-30.3" font-family="Times,serif" font-size="14.00">d</text>
</g>
<!-- 4&#45;&gt;5 -->
<g id="edge5" class="edge">
<title>4&#45;&gt;5</title>
<path fill="none" stroke="black" d="M372.79,-98.82C372.66,-88.19 372.49,-74.31 372.34,-62.2"/>
<polygon fill="black" stroke="black" points="375.84,-62.11 372.21,-52.15 368.84,-62.2 375.84,-62.11"/>
<text text-anchor="middle" x="386" y="-73" font-family="Times,serif" font-size="10.00">1.000</text>
</g>
<!-- 6 -->
<g id="node8" class="node">
<title>6</title>
<text text-anchor="middle" x="229" y="-196.3" font-family="Times,serif" font-size="14.00">e</text>
</g>
</g>
</svg>
