<?xml version="1.0" encoding="UTF-8" standalone="no"?>
<!DOCTYPE svg PUBLIC "-//W3C//DTD SVG 1.1//EN"
 "http://www.w3.org/Graphics/SVG/1.1/DTD/svg11.dtd">
<!-- Generated by graphviz version 2.43.0 (0)
 -->
<!-- Title: local_stemma Pages: 1 -->
<svg width="640pt" height="159pt"
 viewBox="0.00 0.00 640.00 159.00" xmlns="http://www.w3.org/2000/svg" xmlns:xlink="http://www.w3.org/1999/xlink">
<g id="graph0" class="graph" transform="scale(1 1) rotate(0) translate(4 155)">
<title>local_stemma</title>
<polygon fill="white" stroke="transparent" points="-4,4 -4,-155 636,-155 636,4 -4,4"/>
<g id="clust1" class="cluster">
<title>cluster_legend</title>
<polygon fill="none" stroke="black" points="8,-91 8,-143 186,-143 186,-91 8,-91"/>
</g>
<g id="clust2" class="cluster">
<title>cluster_plot</title>
</g>
<!-- label -->
<g id="node1" class="node">
<title>label</title>
<text text-anchor="middle" x="97" y="-113.3" font-family="Times,serif" font-size="14.00">adstag1.4.13U12&#45;14</text>
</g>
<!-- 0 -->
<g id="node2" class="node">
<title>0</title>
<text text-anchor="middle" x="408" y="-113.3" font-family="Times,serif" font-size="14.00">a</text>
</g>
<!-- 1 -->
<g id="node3" class="node">
<title>1</title>
<text text-anchor="middle" x="229" y="-30.3" font-family="Times,serif" font-size="14.00">b</text>
</g>
<!-- 0&#45;&gt;1 -->
<g id="edge3" class="edge">
<title>0&#45;&gt;1</title>
<path fill="none" stroke="black" d="M380.99,-108.41C360.08,-102.14 330.62,-92.43 306,-81 291.54,-74.29 276.33,-65.59 263.28,-57.56"/>
<polygon fill="black" stroke="black" points="264.97,-54.49 254.63,-52.15 261.25,-60.42 264.97,-54.49"/>
<text text-anchor="middle" x="320" y="-73" font-family="Times,serif" font-size="10.00">1.000</text>
</g>
<!-- 2 -->
<g id="node4" class="node">
<title>2</title>
<text text-anchor="middle" x="301" y="-30.3" font-family="Times,serif" font-size="14.00">c</text>
</g>
<!-- 0&#45;&gt;2 -->
<g id="edge4" class="edge">
<title>0&#45;&gt;2</title>
<path fill="none" stroke="black" d="M380.87,-100.37C371.49,-94.62 361.06,-87.84 352,-81 343.29,-74.43 334.29,-66.68 326.32,-59.43"/>
<polygon fill="black" stroke="black" points="328.46,-56.64 318.75,-52.42 323.7,-61.78 328.46,-56.64"/>
<text text-anchor="middle" x="366" y="-73" font-family="Times,serif" font-size="10.00">1.000</text>
</g>
<!-- 3 -->
<g id="node5" class="node">
<title>3</title>
<text text-anchor="middle" x="373" y="-30.3" font-family="Times,serif" font-size="14.00">d</text>
</g>
<!-- 0&#45;&gt;3 -->
<g id="edge1" class="edge">
<title>0&#45;&gt;3</title>
<path fill="none" stroke="black" d="M397.96,-98.83C394.89,-93.24 391.63,-86.94 389,-81 386.31,-74.91 383.76,-68.21 381.52,-61.86"/>
<polygon fill="black" stroke="black" points="384.8,-60.64 378.28,-52.3 378.17,-62.89 384.8,-60.64"/>
<text text-anchor="middle" x="403" y="-73" font-family="Times,serif" font-size="10.00">1.000</text>
</g>
<!-- 4 -->
<g id="node6" class="node">
<title>4</title>
<text text-anchor="middle" x="445" y="-30.3" font-family="Times,serif" font-size="14.00">e</text>
</g>
<!-- 0&#45;&gt;4 -->
<g id="edge5" class="edge">
<title>0&#45;&gt;4</title>
<path fill="none" stroke="black" d="M415.85,-98.82C420.8,-87.98 427.3,-73.74 432.91,-61.47"/>
<polygon fill="black" stroke="black" points="436.19,-62.7 437.16,-52.15 429.83,-59.79 436.19,-62.7"/>
<text text-anchor="middle" x="442" y="-73" font-family="Times,serif" font-size="10.00">1.000</text>
</g>
<!-- 5 -->
<g id="node7" class="node">
<title>5</title>
<text text-anchor="middle" x="517" y="-30.3" font-family="Times,serif" font-size="14.00">f</text>
</g>
<!-- 0&#45;&gt;5 -->
<g id="edge6" class="edge">
<title>0&#45;&gt;5</title>
<path fill="none" stroke="black" d="M434.23,-98.99C442.57,-93.41 451.77,-87.07 460,-81 469.56,-73.95 479.73,-65.92 488.79,-58.56"/>
<polygon fill="black" stroke="black" points="491.24,-61.09 496.76,-52.04 486.8,-55.67 491.24,-61.09"/>
<text text-anchor="middle" x="488" y="-73" font-family="Times,serif" font-size="10.00">1.000</text>
</g>
<!-- 6 -->
<g id="node8" class="node">
<title>6</title>
<text text-anchor="middle" x="589" y="-30.3" font-family="Times,serif" font-size="14.00">g</text>
</g>
<!-- 0&#45;&gt;6 -->
<g id="edge2" class="edge">
<title>0&#45;&gt;6</title>
<path fill="none" stroke="black" d="M435.09,-107.65C455.03,-101.18 482.62,-91.57 506,-81 521.76,-73.87 538.56,-64.86 552.89,-56.7"/>
<polygon fill="black" stroke="black" points="555,-59.52 561.91,-51.49 551.5,-53.45 555,-59.52"/>
<text text-anchor="middle" x="541" y="-73" font-family="Times,serif" font-size="10.00">1.000</text>
</g>
</g>
</svg>
