<?xml version="1.0" encoding="UTF-8" standalone="no"?>
<!DOCTYPE svg PUBLIC "-//W3C//DTD SVG 1.1//EN"
 "http://www.w3.org/Graphics/SVG/1.1/DTD/svg11.dtd">
<!-- Generated by graphviz version 2.43.0 (0)
 -->
<!-- Title: local_stemma Pages: 1 -->
<svg width="488pt" height="159pt"
 viewBox="0.00 0.00 488.00 159.00" xmlns="http://www.w3.org/2000/svg" xmlns:xlink="http://www.w3.org/1999/xlink">
<g id="graph0" class="graph" transform="scale(1 1) rotate(0) translate(4 155)">
<title>local_stemma</title>
<polygon fill="white" stroke="transparent" points="-4,4 -4,-155 484,-155 484,4 -4,4"/>
<g id="clust1" class="cluster">
<title>cluster_legend</title>
<polygon fill="none" stroke="black" points="8,-91 8,-143 178,-143 178,-91 8,-91"/>
</g>
<g id="clust2" class="cluster">
<title>cluster_plot</title>
</g>
<!-- label -->
<g id="node1" class="node">
<title>label</title>
<text text-anchor="middle" x="93" y="-113.3" font-family="Times,serif" font-size="14.00">adstag1.3.62U8&#45;16</text>
</g>
<!-- 0 -->
<g id="node2" class="node">
<title>0</title>
<text text-anchor="middle" x="328" y="-113.3" font-family="Times,serif" font-size="14.00">a</text>
</g>
<!-- 1 -->
<g id="node3" class="node">
<title>1</title>
<text text-anchor="middle" x="221" y="-30.3" font-family="Times,serif" font-size="14.00">b</text>
</g>
<!-- 0&#45;&gt;1 -->
<g id="edge2" class="edge">
<title>0&#45;&gt;1</title>
<path fill="none" stroke="black" d="M300.87,-100.37C291.49,-94.62 281.06,-87.84 272,-81 263.29,-74.43 254.29,-66.68 246.32,-59.43"/>
<polygon fill="black" stroke="black" points="248.46,-56.64 238.75,-52.42 243.7,-61.78 248.46,-56.64"/>
<text text-anchor="middle" x="286" y="-73" font-family="Times,serif" font-size="10.00">1.000</text>
</g>
<!-- 2 -->
<g id="node4" class="node">
<title>2</title>
<text text-anchor="middle" x="293" y="-30.3" font-family="Times,serif" font-size="14.00">c</text>
</g>
<!-- 0&#45;&gt;2 -->
<g id="edge1" class="edge">
<title>0&#45;&gt;2</title>
<path fill="none" stroke="black" d="M317.96,-98.83C314.89,-93.24 311.63,-86.94 309,-81 306.31,-74.91 303.76,-68.21 301.52,-61.86"/>
<polygon fill="black" stroke="black" points="304.8,-60.64 298.28,-52.3 298.17,-62.89 304.8,-60.64"/>
<text text-anchor="middle" x="323" y="-73" font-family="Times,serif" font-size="10.00">1.000</text>
</g>
<!-- 3 -->
<g id="node5" class="node">
<title>3</title>
<text text-anchor="middle" x="365" y="-30.3" font-family="Times,serif" font-size="14.00">d</text>
</g>
<!-- 0&#45;&gt;3 -->
<g id="edge3" class="edge">
<title>0&#45;&gt;3</title>
<path fill="none" stroke="black" d="M335.85,-98.82C340.8,-87.98 347.3,-73.74 352.91,-61.47"/>
<polygon fill="black" stroke="black" points="356.19,-62.7 357.16,-52.15 349.83,-59.79 356.19,-62.7"/>
<text text-anchor="middle" x="362" y="-73" font-family="Times,serif" font-size="10.00">1.000</text>
</g>
<!-- 4 -->
<g id="node6" class="node">
<title>4</title>
<text text-anchor="middle" x="437" y="-30.3" font-family="Times,serif" font-size="14.00">e</text>
</g>
<!-- 0&#45;&gt;4 -->
<g id="edge4" class="edge">
<title>0&#45;&gt;4</title>
<path fill="none" stroke="black" d="M354.23,-98.99C362.57,-93.41 371.77,-87.07 380,-81 389.56,-73.95 399.73,-65.92 408.79,-58.56"/>
<polygon fill="black" stroke="black" points="411.24,-61.09 416.76,-52.04 406.8,-55.67 411.24,-61.09"/>
<text text-anchor="middle" x="408" y="-73" font-family="Times,serif" font-size="10.00">1.000</text>
</g>
</g>
</svg>
