<?xml version="1.0" encoding="UTF-8" standalone="no"?>
<!DOCTYPE svg PUBLIC "-//W3C//DTD SVG 1.1//EN"
 "http://www.w3.org/Graphics/SVG/1.1/DTD/svg11.dtd">
<!-- Generated by graphviz version 2.43.0 (0)
 -->
<!-- Title: local_stemma Pages: 1 -->
<svg width="394pt" height="242pt"
 viewBox="0.00 0.00 394.00 242.00" xmlns="http://www.w3.org/2000/svg" xmlns:xlink="http://www.w3.org/1999/xlink">
<g id="graph0" class="graph" transform="scale(1 1) rotate(0) translate(4 238)">
<title>local_stemma</title>
<polygon fill="white" stroke="transparent" points="-4,4 -4,-238 390,-238 390,4 -4,4"/>
<g id="clust1" class="cluster">
<title>cluster_legend</title>
<polygon fill="none" stroke="black" points="8,-174 8,-226 164,-226 164,-174 8,-174"/>
</g>
<g id="clust2" class="cluster">
<title>cluster_plot</title>
</g>
<!-- label -->
<g id="node1" class="node">
<title>label</title>
<text text-anchor="middle" x="86" y="-196.3" font-family="Times,serif" font-size="14.00">adstag1.3.43U12</text>
</g>
<!-- 0 -->
<g id="node2" class="node">
<title>0</title>
<text text-anchor="middle" x="270" y="-196.3" font-family="Times,serif" font-size="14.00">a</text>
</g>
<!-- 1 -->
<g id="node3" class="node">
<title>1</title>
<text text-anchor="middle" x="207" y="-113.3" font-family="Times,serif" font-size="14.00">b</text>
</g>
<!-- 0&#45;&gt;1 -->
<g id="edge2" class="edge">
<title>0&#45;&gt;1</title>
<path fill="none" stroke="black" d="M252.57,-181.74C247.35,-176.25 241.75,-170.04 237,-164 232.05,-157.72 227.13,-150.61 222.74,-143.9"/>
<polygon fill="black" stroke="black" points="225.46,-141.66 217.14,-135.1 219.56,-145.42 225.46,-141.66"/>
<text text-anchor="middle" x="251" y="-156" font-family="Times,serif" font-size="10.00">1.000</text>
</g>
<!-- 2 -->
<g id="node4" class="node">
<title>2</title>
<text text-anchor="middle" x="252" y="-30.3" font-family="Times,serif" font-size="14.00">c</text>
</g>
<!-- 0&#45;&gt;2 -->
<g id="edge4" class="edge">
<title>0&#45;&gt;2</title>
<path fill="none" stroke="black" d="M270.74,-181.71C271.45,-156.78 271.52,-109.42 264,-70 263.49,-67.31 262.81,-64.55 262.05,-61.81"/>
<polygon fill="black" stroke="black" points="265.35,-60.65 258.98,-52.18 258.68,-62.77 265.35,-60.65"/>
<text text-anchor="middle" x="284" y="-114.5" font-family="Times,serif" font-size="10.00">1.000</text>
</g>
<!-- 3 -->
<g id="node5" class="node">
<title>3</title>
<text text-anchor="middle" x="343" y="-113.3" font-family="Times,serif" font-size="14.00">d</text>
</g>
<!-- 0&#45;&gt;3 -->
<g id="edge1" class="edge">
<title>0&#45;&gt;3</title>
<path fill="none" stroke="black" d="M285.48,-181.82C295.74,-170.44 309.36,-155.33 320.77,-142.66"/>
<polygon fill="black" stroke="black" points="323.45,-144.92 327.54,-135.15 318.25,-140.24 323.45,-144.92"/>
<text text-anchor="middle" x="324" y="-156" font-family="Times,serif" font-size="10.00">1.000</text>
</g>
<!-- 1&#45;&gt;2 -->
<g id="edge3" class="edge">
<title>1&#45;&gt;2</title>
<path fill="none" stroke="black" d="M216.54,-98.82C222.63,-87.87 230.63,-73.46 237.5,-61.11"/>
<polygon fill="black" stroke="black" points="240.67,-62.59 242.47,-52.15 234.55,-59.2 240.67,-62.59"/>
<text text-anchor="middle" x="246" y="-73" font-family="Times,serif" font-size="10.00">1.000</text>
</g>
</g>
</svg>
