<?xml version="1.0" encoding="UTF-8" standalone="no"?>
<!DOCTYPE svg PUBLIC "-//W3C//DTD SVG 1.1//EN"
 "http://www.w3.org/Graphics/SVG/1.1/DTD/svg11.dtd">
<!-- Generated by graphviz version 2.43.0 (0)
 -->
<!-- Title: local_stemma Pages: 1 -->
<svg width="272pt" height="242pt"
 viewBox="0.00 0.00 272.00 242.00" xmlns="http://www.w3.org/2000/svg" xmlns:xlink="http://www.w3.org/1999/xlink">
<g id="graph0" class="graph" transform="scale(1 1) rotate(0) translate(4 238)">
<title>local_stemma</title>
<polygon fill="white" stroke="transparent" points="-4,4 -4,-238 268,-238 268,4 -4,4"/>
<g id="clust1" class="cluster">
<title>cluster_legend</title>
<polygon fill="none" stroke="black" points="8,-174 8,-226 178,-226 178,-174 8,-174"/>
</g>
<g id="clust2" class="cluster">
<title>cluster_plot</title>
</g>
<!-- label -->
<g id="node1" class="node">
<title>label</title>
<text text-anchor="middle" x="93" y="-196.3" font-family="Times,serif" font-size="14.00">adstag1.3.5U12&#45;14</text>
</g>
<!-- 0 -->
<g id="node2" class="node">
<title>0</title>
<text text-anchor="middle" x="221" y="-196.3" font-family="Times,serif" font-size="14.00">a</text>
</g>
<!-- 1 -->
<g id="node3" class="node">
<title>1</title>
<text text-anchor="middle" x="221" y="-113.3" font-family="Times,serif" font-size="14.00">b</text>
</g>
<!-- 0&#45;&gt;1 -->
<g id="edge1" class="edge">
<title>0&#45;&gt;1</title>
<path fill="none" stroke="black" d="M221,-181.82C221,-171.19 221,-157.31 221,-145.2"/>
<polygon fill="black" stroke="black" points="224.5,-145.15 221,-135.15 217.5,-145.15 224.5,-145.15"/>
<text text-anchor="middle" x="235" y="-156" font-family="Times,serif" font-size="10.00">1.000</text>
</g>
<!-- 2 -->
<g id="node4" class="node">
<title>2</title>
<text text-anchor="middle" x="221" y="-30.3" font-family="Times,serif" font-size="14.00">c</text>
</g>
<!-- 1&#45;&gt;2 -->
<g id="edge2" class="edge">
<title>1&#45;&gt;2</title>
<path fill="none" stroke="black" d="M221,-98.82C221,-88.19 221,-74.31 221,-62.2"/>
<polygon fill="black" stroke="black" points="224.5,-62.15 221,-52.15 217.5,-62.15 224.5,-62.15"/>
<text text-anchor="middle" x="235" y="-73" font-family="Times,serif" font-size="10.00">1.000</text>
</g>
</g>
</svg>
