<?xml version="1.0" encoding="UTF-8" standalone="no"?>
<!DOCTYPE svg PUBLIC "-//W3C//DTD SVG 1.1//EN"
 "http://www.w3.org/Graphics/SVG/1.1/DTD/svg11.dtd">
<!-- Generated by graphviz version 2.43.0 (0)
 -->
<!-- Title: local_stemma Pages: 1 -->
<svg width="416pt" height="242pt"
 viewBox="0.00 0.00 416.00 242.00" xmlns="http://www.w3.org/2000/svg" xmlns:xlink="http://www.w3.org/1999/xlink">
<g id="graph0" class="graph" transform="scale(1 1) rotate(0) translate(4 238)">
<title>local_stemma</title>
<polygon fill="white" stroke="transparent" points="-4,4 -4,-238 412,-238 412,4 -4,4"/>
<g id="clust1" class="cluster">
<title>cluster_legend</title>
<polygon fill="none" stroke="black" points="8,-174 8,-226 186,-226 186,-174 8,-174"/>
</g>
<g id="clust2" class="cluster">
<title>cluster_plot</title>
</g>
<!-- label -->
<g id="node1" class="node">
<title>label</title>
<text text-anchor="middle" x="97" y="-196.3" font-family="Times,serif" font-size="14.00">adstag1.3.29U32&#45;40</text>
</g>
<!-- 0 -->
<g id="node2" class="node">
<title>0</title>
<text text-anchor="middle" x="301" y="-196.3" font-family="Times,serif" font-size="14.00">a</text>
</g>
<!-- 1 -->
<g id="node3" class="node">
<title>1</title>
<text text-anchor="middle" x="229" y="-113.3" font-family="Times,serif" font-size="14.00">b</text>
</g>
<!-- 0&#45;&gt;1 -->
<g id="edge4" class="edge">
<title>0&#45;&gt;1</title>
<path fill="none" stroke="black" d="M285.29,-181.99C280.08,-176.3 274.26,-169.9 269,-164 262.93,-157.19 256.4,-149.74 250.43,-142.87"/>
<polygon fill="black" stroke="black" points="252.91,-140.39 243.72,-135.13 247.62,-144.98 252.91,-140.39"/>
<text text-anchor="middle" x="283" y="-156" font-family="Times,serif" font-size="10.00">1.000</text>
</g>
<!-- 2 -->
<g id="node4" class="node">
<title>2</title>
<text text-anchor="middle" x="301" y="-113.3" font-family="Times,serif" font-size="14.00">c</text>
</g>
<!-- 0&#45;&gt;2 -->
<g id="edge1" class="edge">
<title>0&#45;&gt;2</title>
<path fill="none" stroke="black" d="M301,-181.82C301,-171.19 301,-157.31 301,-145.2"/>
<polygon fill="black" stroke="black" points="304.5,-145.15 301,-135.15 297.5,-145.15 304.5,-145.15"/>
<text text-anchor="middle" x="315" y="-156" font-family="Times,serif" font-size="10.00">1.000</text>
</g>
<!-- 3 -->
<g id="node5" class="node">
<title>3</title>
<text text-anchor="middle" x="301" y="-30.3" font-family="Times,serif" font-size="14.00">d</text>
</g>
<!-- 0&#45;&gt;3 -->
<g id="edge5" class="edge">
<title>0&#45;&gt;3</title>
<path fill="none" stroke="black" d="M320.61,-181.68C325.39,-176.46 329.99,-170.41 333,-164 338.53,-152.22 336.11,-147.98 337,-135 338.98,-106.12 345.3,-96.2 333,-70 331.4,-66.59 329.35,-63.29 327.07,-60.16"/>
<polygon fill="black" stroke="black" points="329.67,-57.81 320.61,-52.32 324.27,-62.27 329.67,-57.81"/>
<text text-anchor="middle" x="354" y="-114.5" font-family="Times,serif" font-size="10.00">1.000</text>
</g>
<!-- 1&#45;&gt;3 -->
<g id="edge2" class="edge">
<title>1&#45;&gt;3</title>
<path fill="none" stroke="black" d="M243.72,-98.87C251.23,-90.18 260.55,-79.48 269,-70 272.04,-66.59 275.27,-63.01 278.46,-59.5"/>
<polygon fill="black" stroke="black" points="281.13,-61.76 285.29,-52.01 275.96,-57.04 281.13,-61.76"/>
<text text-anchor="middle" x="283" y="-73" font-family="Times,serif" font-size="10.00">1.000</text>
</g>
<!-- 2&#45;&gt;3 -->
<g id="edge3" class="edge">
<title>2&#45;&gt;3</title>
<path fill="none" stroke="black" d="M301,-98.82C301,-88.19 301,-74.31 301,-62.2"/>
<polygon fill="black" stroke="black" points="304.5,-62.15 301,-52.15 297.5,-62.15 304.5,-62.15"/>
<text text-anchor="middle" x="315" y="-73" font-family="Times,serif" font-size="10.00">1.000</text>
</g>
</g>
</svg>
