<?xml version="1.0" encoding="UTF-8" standalone="no"?>
<!DOCTYPE svg PUBLIC "-//W3C//DTD SVG 1.1//EN"
 "http://www.w3.org/Graphics/SVG/1.1/DTD/svg11.dtd">
<!-- Generated by graphviz version 2.43.0 (0)
 -->
<!-- Title: local_stemma Pages: 1 -->
<svg width="550pt" height="242pt"
 viewBox="0.00 0.00 550.00 242.00" xmlns="http://www.w3.org/2000/svg" xmlns:xlink="http://www.w3.org/1999/xlink">
<g id="graph0" class="graph" transform="scale(1 1) rotate(0) translate(4 238)">
<title>local_stemma</title>
<polygon fill="white" stroke="transparent" points="-4,4 -4,-238 546,-238 546,4 -4,4"/>
<g id="clust1" class="cluster">
<title>cluster_legend</title>
<polygon fill="none" stroke="black" points="8,-174 8,-226 168,-226 168,-174 8,-174"/>
</g>
<g id="clust2" class="cluster">
<title>cluster_plot</title>
</g>
<!-- label -->
<g id="node1" class="node">
<title>label</title>
<text text-anchor="middle" x="88" y="-196.3" font-family="Times,serif" font-size="14.00">adstag1.3.8U2&#45;18</text>
</g>
<!-- 0 -->
<g id="node2" class="node">
<title>0</title>
<text text-anchor="middle" x="355" y="-196.3" font-family="Times,serif" font-size="14.00">a</text>
</g>
<!-- 1 -->
<g id="node3" class="node">
<title>1</title>
<text text-anchor="middle" x="211" y="-113.3" font-family="Times,serif" font-size="14.00">b</text>
</g>
<!-- 0&#45;&gt;1 -->
<g id="edge2" class="edge">
<title>0&#45;&gt;1</title>
<path fill="none" stroke="black" d="M327.88,-187C313.95,-180.59 296.83,-172.32 282,-164 269.44,-156.96 256.09,-148.57 244.4,-140.89"/>
<polygon fill="black" stroke="black" points="246.09,-137.81 235.82,-135.19 242.21,-143.64 246.09,-137.81"/>
<text text-anchor="middle" x="296" y="-156" font-family="Times,serif" font-size="10.00">1.000</text>
</g>
<!-- 2 -->
<g id="node4" class="node">
<title>2</title>
<text text-anchor="middle" x="283" y="-113.3" font-family="Times,serif" font-size="14.00">c</text>
</g>
<!-- 0&#45;&gt;2 -->
<g id="edge1" class="edge">
<title>0&#45;&gt;2</title>
<path fill="none" stroke="black" d="M339.29,-181.99C334.08,-176.3 328.26,-169.9 323,-164 316.93,-157.19 310.4,-149.74 304.43,-142.87"/>
<polygon fill="black" stroke="black" points="306.91,-140.39 297.72,-135.13 301.62,-144.98 306.91,-140.39"/>
<text text-anchor="middle" x="337" y="-156" font-family="Times,serif" font-size="10.00">1.000</text>
</g>
<!-- 3 -->
<g id="node5" class="node">
<title>3</title>
<text text-anchor="middle" x="355" y="-113.3" font-family="Times,serif" font-size="14.00">d</text>
</g>
<!-- 0&#45;&gt;3 -->
<g id="edge6" class="edge">
<title>0&#45;&gt;3</title>
<path fill="none" stroke="black" d="M355,-181.82C355,-171.19 355,-157.31 355,-145.2"/>
<polygon fill="black" stroke="black" points="358.5,-145.15 355,-135.15 351.5,-145.15 358.5,-145.15"/>
<text text-anchor="middle" x="369" y="-156" font-family="Times,serif" font-size="10.00">1.000</text>
</g>
<!-- 4 -->
<g id="node6" class="node">
<title>4</title>
<text text-anchor="middle" x="427" y="-113.3" font-family="Times,serif" font-size="14.00">e</text>
</g>
<!-- 0&#45;&gt;4 -->
<g id="edge3" class="edge">
<title>0&#45;&gt;4</title>
<path fill="none" stroke="black" d="M370.71,-181.99C375.92,-176.3 381.74,-169.9 387,-164 393.07,-157.19 399.6,-149.74 405.57,-142.87"/>
<polygon fill="black" stroke="black" points="408.38,-144.98 412.28,-135.13 403.09,-140.39 408.38,-144.98"/>
<text text-anchor="middle" x="409" y="-156" font-family="Times,serif" font-size="10.00">1.000</text>
</g>
<!-- 5 -->
<g id="node7" class="node">
<title>5</title>
<text text-anchor="middle" x="499" y="-113.3" font-family="Times,serif" font-size="14.00">f</text>
</g>
<!-- 0&#45;&gt;5 -->
<g id="edge4" class="edge">
<title>0&#45;&gt;5</title>
<path fill="none" stroke="black" d="M382.05,-186.76C395.72,-180.35 412.45,-172.15 427,-164 439.69,-156.9 453.21,-148.49 465.08,-140.82"/>
<polygon fill="black" stroke="black" points="467.32,-143.53 473.78,-135.13 463.5,-137.67 467.32,-143.53"/>
<text text-anchor="middle" x="459" y="-156" font-family="Times,serif" font-size="10.00">1.000</text>
</g>
<!-- 6 -->
<g id="node8" class="node">
<title>6</title>
<text text-anchor="middle" x="498" y="-30.3" font-family="Times,serif" font-size="14.00">g</text>
</g>
<!-- 5&#45;&gt;6 -->
<g id="edge5" class="edge">
<title>5&#45;&gt;6</title>
<path fill="none" stroke="black" d="M498.79,-98.82C498.66,-88.19 498.49,-74.31 498.34,-62.2"/>
<polygon fill="black" stroke="black" points="501.84,-62.11 498.21,-52.15 494.84,-62.2 501.84,-62.11"/>
<text text-anchor="middle" x="512" y="-73" font-family="Times,serif" font-size="10.00">1.000</text>
</g>
</g>
</svg>
