<?xml version="1.0" encoding="UTF-8" standalone="no"?>
<!DOCTYPE svg PUBLIC "-//W3C//DTD SVG 1.1//EN"
 "http://www.w3.org/Graphics/SVG/1.1/DTD/svg11.dtd">
<!-- Generated by graphviz version 2.43.0 (0)
 -->
<!-- Title: local_stemma Pages: 1 -->
<svg width="496pt" height="159pt"
 viewBox="0.00 0.00 496.00 159.00" xmlns="http://www.w3.org/2000/svg" xmlns:xlink="http://www.w3.org/1999/xlink">
<g id="graph0" class="graph" transform="scale(1 1) rotate(0) translate(4 155)">
<title>local_stemma</title>
<polygon fill="white" stroke="transparent" points="-4,4 -4,-155 492,-155 492,4 -4,4"/>
<g id="clust1" class="cluster">
<title>cluster_legend</title>
<polygon fill="none" stroke="black" points="8,-91 8,-143 186,-143 186,-91 8,-91"/>
</g>
<g id="clust2" class="cluster">
<title>cluster_plot</title>
</g>
<!-- label -->
<g id="node1" class="node">
<title>label</title>
<text text-anchor="middle" x="97" y="-113.3" font-family="Times,serif" font-size="14.00">adstag1.3.71U16&#45;26</text>
</g>
<!-- 0 -->
<g id="node2" class="node">
<title>0</title>
<text text-anchor="middle" x="336" y="-113.3" font-family="Times,serif" font-size="14.00">a</text>
</g>
<!-- 1 -->
<g id="node3" class="node">
<title>1</title>
<text text-anchor="middle" x="229" y="-30.3" font-family="Times,serif" font-size="14.00">b</text>
</g>
<!-- 0&#45;&gt;1 -->
<g id="edge1" class="edge">
<title>0&#45;&gt;1</title>
<path fill="none" stroke="black" d="M308.87,-100.37C299.49,-94.62 289.06,-87.84 280,-81 271.29,-74.43 262.29,-66.68 254.32,-59.43"/>
<polygon fill="black" stroke="black" points="256.46,-56.64 246.75,-52.42 251.7,-61.78 256.46,-56.64"/>
<text text-anchor="middle" x="294" y="-73" font-family="Times,serif" font-size="10.00">1.000</text>
</g>
<!-- 2 -->
<g id="node4" class="node">
<title>2</title>
<text text-anchor="middle" x="301" y="-30.3" font-family="Times,serif" font-size="14.00">c</text>
</g>
<!-- 0&#45;&gt;2 -->
<g id="edge4" class="edge">
<title>0&#45;&gt;2</title>
<path fill="none" stroke="black" d="M325.96,-98.83C322.89,-93.24 319.63,-86.94 317,-81 314.31,-74.91 311.76,-68.21 309.52,-61.86"/>
<polygon fill="black" stroke="black" points="312.8,-60.64 306.28,-52.3 306.17,-62.89 312.8,-60.64"/>
<text text-anchor="middle" x="331" y="-73" font-family="Times,serif" font-size="10.00">1.000</text>
</g>
<!-- 3 -->
<g id="node5" class="node">
<title>3</title>
<text text-anchor="middle" x="373" y="-30.3" font-family="Times,serif" font-size="14.00">d</text>
</g>
<!-- 0&#45;&gt;3 -->
<g id="edge2" class="edge">
<title>0&#45;&gt;3</title>
<path fill="none" stroke="black" d="M343.85,-98.82C348.8,-87.98 355.3,-73.74 360.91,-61.47"/>
<polygon fill="black" stroke="black" points="364.19,-62.7 365.16,-52.15 357.83,-59.79 364.19,-62.7"/>
<text text-anchor="middle" x="370" y="-73" font-family="Times,serif" font-size="10.00">1.000</text>
</g>
<!-- 4 -->
<g id="node6" class="node">
<title>4</title>
<text text-anchor="middle" x="445" y="-30.3" font-family="Times,serif" font-size="14.00">e</text>
</g>
<!-- 0&#45;&gt;4 -->
<g id="edge3" class="edge">
<title>0&#45;&gt;4</title>
<path fill="none" stroke="black" d="M362.23,-98.99C370.57,-93.41 379.77,-87.07 388,-81 397.56,-73.95 407.73,-65.92 416.79,-58.56"/>
<polygon fill="black" stroke="black" points="419.24,-61.09 424.76,-52.04 414.8,-55.67 419.24,-61.09"/>
<text text-anchor="middle" x="416" y="-73" font-family="Times,serif" font-size="10.00">1.000</text>
</g>
</g>
</svg>
