<?xml version="1.0" encoding="UTF-8" standalone="no"?>
<!DOCTYPE svg PUBLIC "-//W3C//DTD SVG 1.1//EN"
 "http://www.w3.org/Graphics/SVG/1.1/DTD/svg11.dtd">
<!-- Generated by graphviz version 2.43.0 (0)
 -->
<!-- Title: local_stemma Pages: 1 -->
<svg width="352pt" height="242pt"
 viewBox="0.00 0.00 352.00 242.00" xmlns="http://www.w3.org/2000/svg" xmlns:xlink="http://www.w3.org/1999/xlink">
<g id="graph0" class="graph" transform="scale(1 1) rotate(0) translate(4 238)">
<title>local_stemma</title>
<polygon fill="white" stroke="transparent" points="-4,4 -4,-238 348,-238 348,4 -4,4"/>
<g id="clust1" class="cluster">
<title>cluster_legend</title>
<polygon fill="none" stroke="black" points="8,-174 8,-226 186,-226 186,-174 8,-174"/>
</g>
<g id="clust2" class="cluster">
<title>cluster_plot</title>
</g>
<!-- label -->
<g id="node1" class="node">
<title>label</title>
<text text-anchor="middle" x="97" y="-196.3" font-family="Times,serif" font-size="14.00">adstag1.2.26U60&#45;62</text>
</g>
<!-- 0 -->
<g id="node2" class="node">
<title>0</title>
<text text-anchor="middle" x="254" y="-196.3" font-family="Times,serif" font-size="14.00">a</text>
</g>
<!-- 1 -->
<g id="node3" class="node">
<title>1</title>
<text text-anchor="middle" x="229" y="-113.3" font-family="Times,serif" font-size="14.00">b</text>
</g>
<!-- 0&#45;&gt;1 -->
<g id="edge2" class="edge">
<title>0&#45;&gt;1</title>
<path fill="none" stroke="black" d="M248.7,-181.82C245.38,-171.08 241.04,-157.03 237.28,-144.84"/>
<polygon fill="black" stroke="black" points="240.59,-143.68 234.29,-135.15 233.9,-145.74 240.59,-143.68"/>
<text text-anchor="middle" x="256" y="-156" font-family="Times,serif" font-size="10.00">1.000</text>
</g>
<!-- 2 -->
<g id="node4" class="node">
<title>2</title>
<text text-anchor="middle" x="301" y="-113.3" font-family="Times,serif" font-size="14.00">c</text>
</g>
<!-- 0&#45;&gt;2 -->
<g id="edge3" class="edge">
<title>0&#45;&gt;2</title>
<path fill="none" stroke="black" d="M263.97,-181.82C270.32,-170.87 278.68,-156.46 285.85,-144.11"/>
<polygon fill="black" stroke="black" points="289.06,-145.56 291.05,-135.15 283,-142.05 289.06,-145.56"/>
<text text-anchor="middle" x="294" y="-156" font-family="Times,serif" font-size="10.00">1.000</text>
</g>
<!-- 3 -->
<g id="node5" class="node">
<title>3</title>
<text text-anchor="middle" x="300" y="-30.3" font-family="Times,serif" font-size="14.00">cr1</text>
</g>
<!-- 2&#45;&gt;3 -->
<g id="edge1" class="edge">
<title>2&#45;&gt;3</title>
<path fill="none" stroke="black" stroke-dasharray="5,2" d="M300.79,-98.82C300.66,-88.19 300.49,-74.31 300.34,-62.2"/>
<polygon fill="black" stroke="black" points="303.84,-62.11 300.21,-52.15 296.84,-62.2 303.84,-62.11"/>
<text text-anchor="middle" x="314" y="-73" font-family="Times,serif" font-size="10.00">0.000</text>
</g>
</g>
</svg>
