<?xml version="1.0" encoding="UTF-8" standalone="no"?>
<!DOCTYPE svg PUBLIC "-//W3C//DTD SVG 1.1//EN"
 "http://www.w3.org/Graphics/SVG/1.1/DTD/svg11.dtd">
<!-- Generated by graphviz version 2.43.0 (0)
 -->
<!-- Title: local_stemma Pages: 1 -->
<svg width="568pt" height="159pt"
 viewBox="0.00 0.00 568.00 159.00" xmlns="http://www.w3.org/2000/svg" xmlns:xlink="http://www.w3.org/1999/xlink">
<g id="graph0" class="graph" transform="scale(1 1) rotate(0) translate(4 155)">
<title>local_stemma</title>
<polygon fill="white" stroke="transparent" points="-4,4 -4,-155 564,-155 564,4 -4,4"/>
<g id="clust1" class="cluster">
<title>cluster_legend</title>
<polygon fill="none" stroke="black" points="8,-91 8,-143 186,-143 186,-91 8,-91"/>
</g>
<g id="clust2" class="cluster">
<title>cluster_plot</title>
</g>
<!-- label -->
<g id="node1" class="node">
<title>label</title>
<text text-anchor="middle" x="97" y="-113.3" font-family="Times,serif" font-size="14.00">adstag1.2.23U20&#45;26</text>
</g>
<!-- 0 -->
<g id="node2" class="node">
<title>0</title>
<text text-anchor="middle" x="373" y="-113.3" font-family="Times,serif" font-size="14.00">a</text>
</g>
<!-- 1 -->
<g id="node3" class="node">
<title>1</title>
<text text-anchor="middle" x="229" y="-30.3" font-family="Times,serif" font-size="14.00">ar1</text>
</g>
<!-- 0&#45;&gt;1 -->
<g id="edge3" class="edge">
<title>0&#45;&gt;1</title>
<path fill="none" stroke="black" stroke-dasharray="5,2" d="M345.88,-104C331.95,-97.59 314.83,-89.32 300,-81 287.44,-73.96 274.09,-65.57 262.4,-57.89"/>
<polygon fill="black" stroke="black" points="264.09,-54.81 253.82,-52.19 260.21,-60.64 264.09,-54.81"/>
<text text-anchor="middle" x="314" y="-73" font-family="Times,serif" font-size="10.00">0.000</text>
</g>
<!-- 2 -->
<g id="node4" class="node">
<title>2</title>
<text text-anchor="middle" x="301" y="-30.3" font-family="Times,serif" font-size="14.00">ar2</text>
</g>
<!-- 0&#45;&gt;2 -->
<g id="edge4" class="edge">
<title>0&#45;&gt;2</title>
<path fill="none" stroke="black" stroke-dasharray="5,2" d="M357.29,-98.99C352.08,-93.3 346.26,-86.9 341,-81 334.93,-74.19 328.4,-66.74 322.43,-59.87"/>
<polygon fill="black" stroke="black" points="324.91,-57.39 315.72,-52.13 319.62,-61.98 324.91,-57.39"/>
<text text-anchor="middle" x="355" y="-73" font-family="Times,serif" font-size="10.00">0.000</text>
</g>
<!-- 3 -->
<g id="node5" class="node">
<title>3</title>
<text text-anchor="middle" x="373" y="-30.3" font-family="Times,serif" font-size="14.00">ar3</text>
</g>
<!-- 0&#45;&gt;3 -->
<g id="edge5" class="edge">
<title>0&#45;&gt;3</title>
<path fill="none" stroke="black" stroke-dasharray="5,2" d="M373,-98.82C373,-88.19 373,-74.31 373,-62.2"/>
<polygon fill="black" stroke="black" points="376.5,-62.15 373,-52.15 369.5,-62.15 376.5,-62.15"/>
<text text-anchor="middle" x="387" y="-73" font-family="Times,serif" font-size="10.00">0.000</text>
</g>
<!-- 4 -->
<g id="node6" class="node">
<title>4</title>
<text text-anchor="middle" x="445" y="-30.3" font-family="Times,serif" font-size="14.00">b</text>
</g>
<!-- 0&#45;&gt;4 -->
<g id="edge2" class="edge">
<title>0&#45;&gt;4</title>
<path fill="none" stroke="black" d="M388.71,-98.99C393.92,-93.3 399.74,-86.9 405,-81 411.07,-74.19 417.6,-66.74 423.57,-59.87"/>
<polygon fill="black" stroke="black" points="426.38,-61.98 430.28,-52.13 421.09,-57.39 426.38,-61.98"/>
<text text-anchor="middle" x="427" y="-73" font-family="Times,serif" font-size="10.00">1.000</text>
</g>
<!-- 5 -->
<g id="node7" class="node">
<title>5</title>
<text text-anchor="middle" x="517" y="-30.3" font-family="Times,serif" font-size="14.00">c</text>
</g>
<!-- 0&#45;&gt;5 -->
<g id="edge1" class="edge">
<title>0&#45;&gt;5</title>
<path fill="none" stroke="black" d="M400.05,-103.76C413.72,-97.35 430.45,-89.15 445,-81 457.69,-73.9 471.21,-65.49 483.08,-57.82"/>
<polygon fill="black" stroke="black" points="485.32,-60.53 491.78,-52.13 481.5,-54.67 485.32,-60.53"/>
<text text-anchor="middle" x="477" y="-73" font-family="Times,serif" font-size="10.00">1.000</text>
</g>
</g>
</svg>
