<?xml version="1.0" encoding="UTF-8" standalone="no"?>
<!DOCTYPE svg PUBLIC "-//W3C//DTD SVG 1.1//EN"
 "http://www.w3.org/Graphics/SVG/1.1/DTD/svg11.dtd">
<!-- Generated by graphviz version 2.43.0 (0)
 -->
<!-- Title: local_stemma Pages: 1 -->
<svg width="488pt" height="242pt"
 viewBox="0.00 0.00 488.00 242.00" xmlns="http://www.w3.org/2000/svg" xmlns:xlink="http://www.w3.org/1999/xlink">
<g id="graph0" class="graph" transform="scale(1 1) rotate(0) translate(4 238)">
<title>local_stemma</title>
<polygon fill="white" stroke="transparent" points="-4,4 -4,-238 484,-238 484,4 -4,4"/>
<g id="clust1" class="cluster">
<title>cluster_legend</title>
<polygon fill="none" stroke="black" points="8,-174 8,-226 186,-226 186,-174 8,-174"/>
</g>
<g id="clust2" class="cluster">
<title>cluster_plot</title>
</g>
<!-- label -->
<g id="node1" class="node">
<title>label</title>
<text text-anchor="middle" x="97" y="-196.3" font-family="Times,serif" font-size="14.00">adstag1.3.46U54&#45;58</text>
</g>
<!-- 0 -->
<g id="node2" class="node">
<title>0</title>
<text text-anchor="middle" x="316" y="-196.3" font-family="Times,serif" font-size="14.00">a</text>
</g>
<!-- 1 -->
<g id="node3" class="node">
<title>1</title>
<text text-anchor="middle" x="229" y="-113.3" font-family="Times,serif" font-size="14.00">b</text>
</g>
<!-- 0&#45;&gt;1 -->
<g id="edge4" class="edge">
<title>0&#45;&gt;1</title>
<path fill="none" stroke="black" d="M288.73,-185.54C278.69,-179.78 267.66,-172.42 259,-164 252.95,-158.11 247.49,-150.79 242.94,-143.73"/>
<polygon fill="black" stroke="black" points="245.86,-141.8 237.69,-135.06 239.88,-145.42 245.86,-141.8"/>
<text text-anchor="middle" x="273" y="-156" font-family="Times,serif" font-size="10.00">1.000</text>
</g>
<!-- 2 -->
<g id="node4" class="node">
<title>2</title>
<text text-anchor="middle" x="274" y="-30.3" font-family="Times,serif" font-size="14.00">c</text>
</g>
<!-- 0&#45;&gt;2 -->
<g id="edge1" class="edge">
<title>0&#45;&gt;2</title>
<path fill="none" stroke="black" d="M311.97,-181.89C308.94,-169 304.7,-150.9 301,-135 294.28,-106.12 294.15,-98.51 286,-70 285.25,-67.37 284.41,-64.65 283.55,-61.93"/>
<polygon fill="black" stroke="black" points="286.83,-60.71 280.34,-52.33 280.19,-62.93 286.83,-60.71"/>
<text text-anchor="middle" x="315" y="-114.5" font-family="Times,serif" font-size="10.00">1.000</text>
</g>
<!-- 3 -->
<g id="node5" class="node">
<title>3</title>
<text text-anchor="middle" x="365" y="-113.3" font-family="Times,serif" font-size="14.00">d</text>
</g>
<!-- 0&#45;&gt;3 -->
<g id="edge5" class="edge">
<title>0&#45;&gt;3</title>
<path fill="none" stroke="black" d="M326.39,-181.82C333.08,-170.76 341.9,-156.18 349.43,-143.75"/>
<polygon fill="black" stroke="black" points="352.44,-145.52 354.62,-135.15 346.45,-141.9 352.44,-145.52"/>
<text text-anchor="middle" x="357" y="-156" font-family="Times,serif" font-size="10.00">1.000</text>
</g>
<!-- 4 -->
<g id="node6" class="node">
<title>4</title>
<text text-anchor="middle" x="437" y="-113.3" font-family="Times,serif" font-size="14.00">e</text>
</g>
<!-- 0&#45;&gt;4 -->
<g id="edge2" class="edge">
<title>0&#45;&gt;4</title>
<path fill="none" stroke="black" d="M343.09,-183.72C353.24,-177.79 364.79,-170.79 375,-164 385.64,-156.93 396.95,-148.74 406.96,-141.26"/>
<polygon fill="black" stroke="black" points="409.14,-143.99 415.01,-135.17 404.92,-138.41 409.14,-143.99"/>
<text text-anchor="middle" x="404" y="-156" font-family="Times,serif" font-size="10.00">1.000</text>
</g>
<!-- 1&#45;&gt;2 -->
<g id="edge3" class="edge">
<title>1&#45;&gt;2</title>
<path fill="none" stroke="black" d="M238.54,-98.82C244.63,-87.87 252.63,-73.46 259.5,-61.11"/>
<polygon fill="black" stroke="black" points="262.67,-62.59 264.47,-52.15 256.55,-59.2 262.67,-62.59"/>
<text text-anchor="middle" x="268" y="-73" font-family="Times,serif" font-size="10.00">1.000</text>
</g>
</g>
</svg>
