<?xml version="1.0" encoding="UTF-8" standalone="no"?>
<!DOCTYPE svg PUBLIC "-//W3C//DTD SVG 1.1//EN"
 "http://www.w3.org/Graphics/SVG/1.1/DTD/svg11.dtd">
<!-- Generated by graphviz version 2.43.0 (0)
 -->
<!-- Title: local_stemma Pages: 1 -->
<svg width="344pt" height="242pt"
 viewBox="0.00 0.00 344.00 242.00" xmlns="http://www.w3.org/2000/svg" xmlns:xlink="http://www.w3.org/1999/xlink">
<g id="graph0" class="graph" transform="scale(1 1) rotate(0) translate(4 238)">
<title>local_stemma</title>
<polygon fill="white" stroke="transparent" points="-4,4 -4,-238 340,-238 340,4 -4,4"/>
<g id="clust1" class="cluster">
<title>cluster_legend</title>
<polygon fill="none" stroke="black" points="8,-174 8,-226 186,-226 186,-174 8,-174"/>
</g>
<g id="clust2" class="cluster">
<title>cluster_plot</title>
</g>
<!-- label -->
<g id="node1" class="node">
<title>label</title>
<text text-anchor="middle" x="97" y="-196.3" font-family="Times,serif" font-size="14.00">adstag1.3.43U16&#45;18</text>
</g>
<!-- 0 -->
<g id="node2" class="node">
<title>0</title>
<text text-anchor="middle" x="249" y="-196.3" font-family="Times,serif" font-size="14.00">a</text>
</g>
<!-- 1 -->
<g id="node3" class="node">
<title>1</title>
<text text-anchor="middle" x="249" y="-30.3" font-family="Times,serif" font-size="14.00">b</text>
</g>
<!-- 0&#45;&gt;1 -->
<g id="edge3" class="edge">
<title>0&#45;&gt;1</title>
<path fill="none" stroke="black" d="M242.12,-181.95C237.37,-169.25 231.49,-151.34 229,-135 226.59,-119.18 226.59,-114.82 229,-99 230.91,-86.49 234.8,-73.06 238.65,-61.75"/>
<polygon fill="black" stroke="black" points="242.05,-62.64 242.12,-52.05 235.46,-60.29 242.05,-62.64"/>
<text text-anchor="middle" x="243" y="-114.5" font-family="Times,serif" font-size="10.00">1.000</text>
</g>
<!-- 2 -->
<g id="node4" class="node">
<title>2</title>
<text text-anchor="middle" x="293" y="-113.3" font-family="Times,serif" font-size="14.00">c</text>
</g>
<!-- 0&#45;&gt;2 -->
<g id="edge1" class="edge">
<title>0&#45;&gt;2</title>
<path fill="none" stroke="black" d="M258.33,-181.82C264.28,-170.87 272.11,-156.46 278.82,-144.11"/>
<polygon fill="black" stroke="black" points="281.98,-145.61 283.68,-135.15 275.83,-142.27 281.98,-145.61"/>
<text text-anchor="middle" x="287" y="-156" font-family="Times,serif" font-size="10.00">1.000</text>
</g>
<!-- 2&#45;&gt;1 -->
<g id="edge2" class="edge">
<title>2&#45;&gt;1</title>
<path fill="none" stroke="black" d="M283.67,-98.82C277.72,-87.87 269.89,-73.46 263.18,-61.11"/>
<polygon fill="black" stroke="black" points="266.17,-59.27 258.32,-52.15 260.02,-62.61 266.17,-59.27"/>
<text text-anchor="middle" x="287" y="-73" font-family="Times,serif" font-size="10.00">1.000</text>
</g>
</g>
</svg>
