<?xml version="1.0" encoding="UTF-8" standalone="no"?>
<!DOCTYPE svg PUBLIC "-//W3C//DTD SVG 1.1//EN"
 "http://www.w3.org/Graphics/SVG/1.1/DTD/svg11.dtd">
<!-- Generated by graphviz version 2.43.0 (0)
 -->
<!-- Title: local_stemma Pages: 1 -->
<svg width="330pt" height="325pt"
 viewBox="0.00 0.00 330.00 325.00" xmlns="http://www.w3.org/2000/svg" xmlns:xlink="http://www.w3.org/1999/xlink">
<g id="graph0" class="graph" transform="scale(1 1) rotate(0) translate(4 321)">
<title>local_stemma</title>
<polygon fill="white" stroke="transparent" points="-4,4 -4,-321 326,-321 326,4 -4,4"/>
<g id="clust1" class="cluster">
<title>cluster_legend</title>
<polygon fill="none" stroke="black" points="8,-257 8,-309 164,-309 164,-257 8,-257"/>
</g>
<g id="clust2" class="cluster">
<title>cluster_plot</title>
</g>
<!-- label -->
<g id="node1" class="node">
<title>label</title>
<text text-anchor="middle" x="86" y="-279.3" font-family="Times,serif" font-size="14.00">adstag1.4.17U18</text>
</g>
<!-- 0 -->
<g id="node2" class="node">
<title>0</title>
<text text-anchor="middle" x="232" y="-279.3" font-family="Times,serif" font-size="14.00">a</text>
</g>
<!-- 1 -->
<g id="node3" class="node">
<title>1</title>
<text text-anchor="middle" x="207" y="-196.3" font-family="Times,serif" font-size="14.00">b</text>
</g>
<!-- 0&#45;&gt;1 -->
<g id="edge1" class="edge">
<title>0&#45;&gt;1</title>
<path fill="none" stroke="black" d="M226.7,-264.82C223.38,-254.08 219.04,-240.03 215.28,-227.84"/>
<polygon fill="black" stroke="black" points="218.59,-226.68 212.29,-218.15 211.9,-228.74 218.59,-226.68"/>
<text text-anchor="middle" x="234" y="-239" font-family="Times,serif" font-size="10.00">1.000</text>
</g>
<!-- 2 -->
<g id="node4" class="node">
<title>2</title>
<text text-anchor="middle" x="279" y="-196.3" font-family="Times,serif" font-size="14.00">c</text>
</g>
<!-- 0&#45;&gt;2 -->
<g id="edge2" class="edge">
<title>0&#45;&gt;2</title>
<path fill="none" stroke="black" d="M241.97,-264.82C248.32,-253.87 256.68,-239.46 263.85,-227.11"/>
<polygon fill="black" stroke="black" points="267.06,-228.56 269.05,-218.15 261,-225.05 267.06,-228.56"/>
<text text-anchor="middle" x="272" y="-239" font-family="Times,serif" font-size="10.00">1.000</text>
</g>
<!-- 3 -->
<g id="node5" class="node">
<title>3</title>
<text text-anchor="middle" x="278" y="-113.3" font-family="Times,serif" font-size="14.00">d</text>
</g>
<!-- 2&#45;&gt;3 -->
<g id="edge3" class="edge">
<title>2&#45;&gt;3</title>
<path fill="none" stroke="black" d="M278.79,-181.82C278.66,-171.19 278.49,-157.31 278.34,-145.2"/>
<polygon fill="black" stroke="black" points="281.84,-145.11 278.21,-135.15 274.84,-145.2 281.84,-145.11"/>
<text text-anchor="middle" x="292" y="-156" font-family="Times,serif" font-size="10.00">1.000</text>
</g>
<!-- 4 -->
<g id="node6" class="node">
<title>4</title>
<text text-anchor="middle" x="278" y="-30.3" font-family="Times,serif" font-size="14.00">e</text>
</g>
<!-- 3&#45;&gt;4 -->
<g id="edge4" class="edge">
<title>3&#45;&gt;4</title>
<path fill="none" stroke="black" d="M278,-98.82C278,-88.19 278,-74.31 278,-62.2"/>
<polygon fill="black" stroke="black" points="281.5,-62.15 278,-52.15 274.5,-62.15 281.5,-62.15"/>
<text text-anchor="middle" x="292" y="-73" font-family="Times,serif" font-size="10.00">1.000</text>
</g>
</g>
</svg>
