<?xml version="1.0" encoding="UTF-8" standalone="no"?>
<!DOCTYPE svg PUBLIC "-//W3C//DTD SVG 1.1//EN"
 "http://www.w3.org/Graphics/SVG/1.1/DTD/svg11.dtd">
<!-- Generated by graphviz version 2.43.0 (0)
 -->
<!-- Title: textual_flow Pages: 1 -->
<svg width="2163pt" height="682pt"
 viewBox="0.00 0.00 2163.00 682.00" xmlns="http://www.w3.org/2000/svg" xmlns:xlink="http://www.w3.org/1999/xlink">
<g id="graph0" class="graph" transform="scale(1 1) rotate(0) translate(4 678)">
<title>textual_flow</title>
<polygon fill="white" stroke="transparent" points="-4,4 -4,-678 2159,-678 2159,4 -4,4"/>
<g id="clust1" class="cluster">
<title>cluster_legend</title>
<polygon fill="none" stroke="black" points="8,-612 8,-666 186,-666 186,-612 8,-612"/>
</g>
<g id="clust2" class="cluster">
<title>cluster_plot</title>
</g>
<!-- label -->
<g id="node1" class="node">
<title>label</title>
<text text-anchor="middle" x="97" y="-642.8" font-family="Times,serif" font-size="14.00">adstag1.3.33U38&#45;40</text>
<text text-anchor="middle" x="97" y="-627.8" font-family="Times,serif" font-size="14.00">Con = 3</text>
</g>
<!-- 0 -->
<g id="node2" class="node">
<title>0</title>
<ellipse fill="none" stroke="black" cx="860" cy="-399" rx="53.09" ry="18"/>
<text text-anchor="middle" x="860" y="-395.3" font-family="Times,serif" font-size="14.00">M136 (b)</text>
</g>
<!-- 1 -->
<g id="node3" class="node">
<title>1</title>
<ellipse fill="none" stroke="black" cx="975" cy="-399" rx="44.39" ry="18"/>
<text text-anchor="middle" x="975" y="-395.3" font-family="Times,serif" font-size="14.00">P74 (b)</text>
</g>
<!-- 2 -->
<g id="node4" class="node">
<title>2</title>
<ellipse fill="none" stroke="black" cx="246" cy="-482" rx="44.39" ry="18"/>
<text text-anchor="middle" x="246" y="-478.3" font-family="Times,serif" font-size="14.00">S32 (b)</text>
</g>
<!-- 3 -->
<g id="node5" class="node">
<title>3</title>
<ellipse fill="none" stroke="black" cx="617" cy="-399" rx="42.49" ry="18"/>
<text text-anchor="middle" x="617" y="-395.3" font-family="Times,serif" font-size="14.00">Est (b)</text>
</g>
<!-- 4 -->
<g id="node6" class="node">
<title>4</title>
<ellipse fill="none" stroke="black" cx="376" cy="-399" rx="55.79" ry="18"/>
<text text-anchor="middle" x="376" y="-395.3" font-family="Times,serif" font-size="14.00">V1639 (b)</text>
</g>
<!-- 5 -->
<g id="node7" class="node">
<title>5</title>
<ellipse fill="none" stroke="gray" stroke-dasharray="5,2" cx="1968" cy="-107" rx="28.7" ry="18"/>
<text text-anchor="middle" x="1968" y="-103.3" font-family="Times,serif" font-size="14.00">P18</text>
</g>
<!-- 6 -->
<g id="node8" class="node">
<title>6</title>
<ellipse fill="none" stroke="black" cx="1684" cy="-482" rx="42.79" ry="18"/>
<text text-anchor="middle" x="1684" y="-478.3" font-family="Times,serif" font-size="14.00">Bas (a)</text>
</g>
<!-- 7 -->
<g id="node9" class="node">
<title>7</title>
<ellipse fill="none" stroke="black" cx="1087" cy="-399" rx="50.09" ry="18"/>
<text text-anchor="middle" x="1087" y="-395.3" font-family="Times,serif" font-size="14.00">A116 (b)</text>
</g>
<!-- 8 -->
<g id="node10" class="node">
<title>8</title>
<ellipse fill="none" stroke="black" cx="258" cy="-326" rx="55.79" ry="18"/>
<text text-anchor="middle" x="258" y="-322.3" font-family="Times,serif" font-size="14.00">V1920 (b)</text>
</g>
<!-- 9 -->
<g id="node11" class="node">
<title>9</title>
<ellipse fill="none" stroke="black" cx="358" cy="-482" rx="50.09" ry="18"/>
<text text-anchor="middle" x="358" y="-478.3" font-family="Times,serif" font-size="14.00">Patm (b)</text>
</g>
<!-- 39 -->
<g id="node41" class="node">
<title>39</title>
<ellipse fill="none" stroke="black" cx="252" cy="-399" rx="50.09" ry="18"/>
<text text-anchor="middle" x="252" y="-395.3" font-family="Times,serif" font-size="14.00">V560 (b)</text>
</g>
<!-- 9&#45;&gt;39 -->
<g id="edge39" class="edge">
<title>9&#45;&gt;39</title>
<path fill="none" stroke="black" stroke-width="2" d="M337.56,-465.38C321.43,-453.06 298.73,-435.71 280.76,-421.98"/>
<polygon fill="black" stroke="black" stroke-width="2" points="282.45,-418.86 272.38,-415.57 278.2,-424.42 282.45,-418.86"/>
<text text-anchor="middle" x="314.5" y="-438" font-family="Times,serif" font-size="10.00">2</text>
</g>
<!-- 10 -->
<g id="node12" class="node">
<title>10</title>
<ellipse fill="none" stroke="black" cx="1847" cy="-180" rx="50.09" ry="18"/>
<text text-anchor="middle" x="1847" y="-176.3" font-family="Times,serif" font-size="14.00">Marc (d)</text>
</g>
<!-- 26 -->
<g id="node28" class="node">
<title>26</title>
<ellipse fill="none" stroke="black" cx="1847" cy="-107" rx="46.59" ry="18"/>
<text text-anchor="middle" x="1847" y="-103.3" font-family="Times,serif" font-size="14.00">Mon (d)</text>
</g>
<!-- 10&#45;&gt;26 -->
<g id="edge27" class="edge">
<title>10&#45;&gt;26</title>
<path fill="none" stroke="black" stroke-dasharray="1,5" d="M1847,-161.81C1847,-153.79 1847,-144.05 1847,-135.07"/>
<polygon fill="black" stroke="black" points="1850.5,-135.03 1847,-125.03 1843.5,-135.03 1850.5,-135.03"/>
</g>
<!-- 11 -->
<g id="node13" class="node">
<title>11</title>
<ellipse fill="none" stroke="black" cx="476" cy="-482" rx="50.09" ry="18"/>
<text text-anchor="middle" x="476" y="-478.3" font-family="Times,serif" font-size="14.00">V566 (b)</text>
</g>
<!-- 11&#45;&gt;4 -->
<g id="edge5" class="edge">
<title>11&#45;&gt;4</title>
<path fill="none" stroke="black" stroke-dasharray="1,5" d="M456.72,-465.38C441.7,-453.21 420.63,-436.15 403.79,-422.51"/>
<polygon fill="black" stroke="black" points="405.88,-419.7 395.91,-416.12 401.47,-425.14 405.88,-419.7"/>
</g>
<!-- 12 -->
<g id="node14" class="node">
<title>12</title>
<ellipse fill="none" stroke="black" cx="1204" cy="-399" rx="49.29" ry="18"/>
<text text-anchor="middle" x="1204" y="-395.3" font-family="Times,serif" font-size="14.00">La35 (b)</text>
</g>
<!-- 13 -->
<g id="node15" class="node">
<title>13</title>
<ellipse fill="none" stroke="black" cx="706" cy="-565" rx="44.39" ry="18"/>
<text text-anchor="middle" x="706" y="-561.3" font-family="Times,serif" font-size="14.00">A25 (b)</text>
</g>
<!-- 13&#45;&gt;2 -->
<g id="edge3" class="edge">
<title>13&#45;&gt;2</title>
<path fill="none" stroke="black" stroke-dasharray="5,2" d="M663.69,-559.53C589.27,-551.18 430.36,-531.2 299,-500 295.56,-499.18 292.02,-498.25 288.47,-497.26"/>
<polygon fill="black" stroke="black" points="289.16,-493.81 278.57,-494.32 287.17,-500.52 289.16,-493.81"/>
</g>
<!-- 13&#45;&gt;9 -->
<g id="edge10" class="edge">
<title>13&#45;&gt;9</title>
<path fill="none" stroke="black" stroke-dasharray="1,5" d="M667.02,-556.18C611.33,-544.82 505.9,-522.63 417,-500 413.16,-499.02 409.19,-497.97 405.21,-496.88"/>
<polygon fill="black" stroke="black" points="405.93,-493.45 395.36,-494.15 404.05,-500.2 405.93,-493.45"/>
</g>
<!-- 13&#45;&gt;11 -->
<g id="edge12" class="edge">
<title>13&#45;&gt;11</title>
<path fill="none" stroke="black" stroke-dasharray="5,2" d="M673.53,-552.57C633.39,-538.43 564.88,-514.3 520.02,-498.5"/>
<polygon fill="black" stroke="black" points="521.15,-495.19 510.55,-495.17 518.82,-501.79 521.15,-495.19"/>
</g>
<!-- 18 -->
<g id="node20" class="node">
<title>18</title>
<ellipse fill="none" stroke="black" cx="594" cy="-482" rx="50.09" ry="18"/>
<text text-anchor="middle" x="594" y="-478.3" font-family="Times,serif" font-size="14.00">S249 (b)</text>
</g>
<!-- 13&#45;&gt;18 -->
<g id="edge19" class="edge">
<title>13&#45;&gt;18</title>
<path fill="none" stroke="black" stroke-dasharray="5,2" d="M685.2,-548.95C667.89,-536.44 643.05,-518.47 623.66,-504.45"/>
<polygon fill="black" stroke="black" points="625.61,-501.54 615.45,-498.52 621.51,-507.21 625.61,-501.54"/>
<text text-anchor="middle" x="659.5" y="-521" font-family="Times,serif" font-size="10.00">2</text>
</g>
<!-- 25 -->
<g id="node27" class="node">
<title>25</title>
<ellipse fill="none" stroke="black" cx="706" cy="-482" rx="44.39" ry="18"/>
<text text-anchor="middle" x="706" y="-478.3" font-family="Times,serif" font-size="14.00">P01 (b)</text>
</g>
<!-- 13&#45;&gt;25 -->
<g id="edge26" class="edge">
<title>13&#45;&gt;25</title>
<path fill="none" stroke="black" stroke-dasharray="5,2" d="M706,-546.82C706,-536.19 706,-522.31 706,-510.2"/>
<polygon fill="black" stroke="black" points="709.5,-510.15 706,-500.15 702.5,-510.15 709.5,-510.15"/>
</g>
<!-- 30 -->
<g id="node32" class="node">
<title>30</title>
<ellipse fill="none" stroke="black" cx="824" cy="-482" rx="55.79" ry="18"/>
<text text-anchor="middle" x="824" y="-478.3" font-family="Times,serif" font-size="14.00">V1897 (b)</text>
</g>
<!-- 13&#45;&gt;30 -->
<g id="edge31" class="edge">
<title>13&#45;&gt;30</title>
<path fill="none" stroke="black" stroke-dasharray="5,2" d="M727.64,-549.14C745.92,-536.59 772.33,-518.47 792.88,-504.36"/>
<polygon fill="black" stroke="black" points="795.02,-507.14 801.29,-498.59 791.06,-501.36 795.02,-507.14"/>
<text text-anchor="middle" x="775.5" y="-521" font-family="Times,serif" font-size="10.00">3</text>
</g>
<!-- 31 -->
<g id="node33" class="node">
<title>31</title>
<ellipse fill="none" stroke="black" cx="1254" cy="-482" rx="49.29" ry="18"/>
<text text-anchor="middle" x="1254" y="-478.3" font-family="Times,serif" font-size="14.00">La22 (b)</text>
</g>
<!-- 13&#45;&gt;31 -->
<g id="edge32" class="edge">
<title>13&#45;&gt;31</title>
<path fill="none" stroke="black" stroke-dasharray="1,5" d="M746.74,-557.98C843.82,-543.63 1088.88,-507.41 1198.97,-491.13"/>
<polygon fill="black" stroke="black" points="1199.81,-494.55 1209.19,-489.62 1198.78,-487.62 1199.81,-494.55"/>
<text text-anchor="middle" x="1015.5" y="-521" font-family="Times,serif" font-size="10.00">2</text>
</g>
<!-- 40 -->
<g id="node42" class="node">
<title>40</title>
<ellipse fill="none" stroke="black" cx="1362" cy="-482" rx="40.09" ry="18"/>
<text text-anchor="middle" x="1362" y="-478.3" font-family="Times,serif" font-size="14.00">Pal (b)</text>
</g>
<!-- 13&#45;&gt;40 -->
<g id="edge40" class="edge">
<title>13&#45;&gt;40</title>
<path fill="none" stroke="black" stroke-dasharray="5,2" d="M749.89,-562.7C850.45,-559.01 1104.84,-545.56 1312,-500 1315.46,-499.24 1319.02,-498.32 1322.57,-497.31"/>
<polygon fill="black" stroke="black" points="1323.91,-500.56 1332.43,-494.26 1321.84,-493.87 1323.91,-500.56"/>
</g>
<!-- 14 -->
<g id="node16" class="node">
<title>14</title>
<ellipse fill="none" stroke="black" cx="1541" cy="-326" rx="49.29" ry="18"/>
<text text-anchor="middle" x="1541" y="-322.3" font-family="Times,serif" font-size="14.00">A336 (c)</text>
</g>
<!-- 15 -->
<g id="node17" class="node">
<title>15</title>
<ellipse fill="none" stroke="black" cx="1968" cy="-180" rx="53.09" ry="18"/>
<text text-anchor="middle" x="1968" y="-176.3" font-family="Times,serif" font-size="14.00">M118 (d)</text>
</g>
<!-- 15&#45;&gt;5 -->
<g id="edge6" class="edge">
<title>15&#45;&gt;5</title>
<path fill="none" stroke="gray" stroke-dasharray="5,2" d="M1968,-161.81C1968,-153.79 1968,-144.05 1968,-135.07"/>
<polygon fill="gray" stroke="gray" points="1971.5,-135.03 1968,-125.03 1964.5,-135.03 1971.5,-135.03"/>
</g>
<!-- 16 -->
<g id="node18" class="node">
<title>16</title>
<ellipse fill="none" stroke="black" cx="503" cy="-399" rx="53.09" ry="18"/>
<text text-anchor="middle" x="503" y="-395.3" font-family="Times,serif" font-size="14.00">LaSM (b)</text>
</g>
<!-- 23 -->
<g id="node25" class="node">
<title>23</title>
<ellipse fill="none" stroke="black" cx="503" cy="-326" rx="44.69" ry="18"/>
<text text-anchor="middle" x="503" y="-322.3" font-family="Times,serif" font-size="14.00">B39 (b)</text>
</g>
<!-- 16&#45;&gt;23 -->
<g id="edge24" class="edge">
<title>16&#45;&gt;23</title>
<path fill="none" stroke="black" stroke-dasharray="5,2" d="M503,-380.81C503,-372.79 503,-363.05 503,-354.07"/>
<polygon fill="black" stroke="black" points="506.5,-354.03 503,-344.03 499.5,-354.03 506.5,-354.03"/>
</g>
<!-- 17 -->
<g id="node19" class="node">
<title>17</title>
<ellipse fill="none" stroke="black" cx="1684" cy="-565" rx="44.69" ry="18"/>
<text text-anchor="middle" x="1684" y="-561.3" font-family="Times,serif" font-size="14.00">Nan (a)</text>
</g>
<!-- 17&#45;&gt;6 -->
<g id="edge7" class="edge">
<title>17&#45;&gt;6</title>
<path fill="none" stroke="black" d="M1684,-546.82C1684,-536.19 1684,-522.31 1684,-510.2"/>
<polygon fill="black" stroke="black" points="1687.5,-510.15 1684,-500.15 1680.5,-510.15 1687.5,-510.15"/>
<text text-anchor="middle" x="1687.5" y="-521" font-family="Times,serif" font-size="10.00">2</text>
</g>
<!-- 19 -->
<g id="node21" class="node">
<title>19</title>
<ellipse fill="none" stroke="gray" stroke-dasharray="5,2" cx="1312" cy="-399" rx="40.09" ry="18"/>
<text text-anchor="middle" x="1312" y="-395.3" font-family="Times,serif" font-size="14.00">V2036</text>
</g>
<!-- 20 -->
<g id="node22" class="node">
<title>20</title>
<ellipse fill="none" stroke="black" cx="733" cy="-399" rx="55.79" ry="18"/>
<text text-anchor="middle" x="733" y="-395.3" font-family="Times,serif" font-size="14.00">V2250 (b)</text>
</g>
<!-- 21 -->
<g id="node23" class="node">
<title>21</title>
<ellipse fill="none" stroke="black" cx="2012" cy="-253" rx="47.39" ry="18"/>
<text text-anchor="middle" x="2012" y="-249.3" font-family="Times,serif" font-size="14.00">Taur (d)</text>
</g>
<!-- 21&#45;&gt;10 -->
<g id="edge11" class="edge">
<title>21&#45;&gt;10</title>
<path fill="none" stroke="black" stroke-dasharray="1,5" d="M1981.74,-238.98C1955.24,-227.58 1916.53,-210.92 1887.39,-198.38"/>
<polygon fill="black" stroke="black" points="1888.48,-195.04 1877.91,-194.3 1885.71,-201.47 1888.48,-195.04"/>
</g>
<!-- 21&#45;&gt;15 -->
<g id="edge16" class="edge">
<title>21&#45;&gt;15</title>
<path fill="none" stroke="black" stroke-dasharray="5,2" d="M2001.57,-235.17C1996.26,-226.6 1989.68,-215.99 1983.76,-206.44"/>
<polygon fill="black" stroke="black" points="1986.6,-204.36 1978.35,-197.71 1980.65,-208.05 1986.6,-204.36"/>
</g>
<!-- 22 -->
<g id="node24" class="node">
<title>22</title>
<ellipse fill="none" stroke="black" cx="2089" cy="-180" rx="50.09" ry="18"/>
<text text-anchor="middle" x="2089" y="-176.3" font-family="Times,serif" font-size="14.00">V569 (d)</text>
</g>
<!-- 21&#45;&gt;22 -->
<g id="edge23" class="edge">
<title>21&#45;&gt;22</title>
<path fill="none" stroke="black" stroke-dasharray="5,2" d="M2029.47,-235.89C2039.71,-226.45 2052.81,-214.37 2064.12,-203.95"/>
<polygon fill="black" stroke="black" points="2066.62,-206.4 2071.6,-197.05 2061.87,-201.25 2066.62,-206.4"/>
</g>
<!-- 24 -->
<g id="node26" class="node">
<title>24</title>
<ellipse fill="none" stroke="black" cx="2080" cy="-326" rx="50.09" ry="18"/>
<text text-anchor="middle" x="2080" y="-322.3" font-family="Times,serif" font-size="14.00">V568 (d)</text>
</g>
<!-- 24&#45;&gt;21 -->
<g id="edge22" class="edge">
<title>24&#45;&gt;21</title>
<path fill="none" stroke="black" stroke-dasharray="1,5" d="M2064.23,-308.53C2055.47,-299.39 2044.43,-287.86 2034.76,-277.76"/>
<polygon fill="black" stroke="black" points="2037.13,-275.18 2027.69,-270.38 2032.08,-280.02 2037.13,-275.18"/>
</g>
<!-- 25&#45;&gt;16 -->
<g id="edge17" class="edge">
<title>25&#45;&gt;16</title>
<path fill="none" stroke="black" stroke-dasharray="5,2" d="M675.61,-468.87C641.04,-455.08 584.37,-432.47 545.45,-416.94"/>
<polygon fill="black" stroke="black" points="546.55,-413.61 535.96,-413.15 543.95,-420.11 546.55,-413.61"/>
<text text-anchor="middle" x="619.5" y="-438" font-family="Times,serif" font-size="10.00">2</text>
</g>
<!-- 29 -->
<g id="node31" class="node">
<title>29</title>
<ellipse fill="none" stroke="black" cx="1847" cy="-34" rx="41.69" ry="18"/>
<text text-anchor="middle" x="1847" y="-30.3" font-family="Times,serif" font-size="14.00">Sin (d)</text>
</g>
<!-- 26&#45;&gt;29 -->
<g id="edge30" class="edge">
<title>26&#45;&gt;29</title>
<path fill="none" stroke="black" stroke-dasharray="1,5" d="M1847,-88.81C1847,-80.79 1847,-71.05 1847,-62.07"/>
<polygon fill="black" stroke="black" points="1850.5,-62.03 1847,-52.03 1843.5,-62.03 1850.5,-62.03"/>
</g>
<!-- 27 -->
<g id="node29" class="node">
<title>27</title>
<ellipse fill="none" stroke="black" cx="1420" cy="-399" rx="50.09" ry="18"/>
<text text-anchor="middle" x="1420" y="-395.3" font-family="Times,serif" font-size="14.00">V565 (b)</text>
</g>
<!-- 28 -->
<g id="node30" class="node">
<title>28</title>
<ellipse fill="none" stroke="black" cx="1541" cy="-399" rx="53.09" ry="18"/>
<text text-anchor="middle" x="1541" y="-395.3" font-family="Times,serif" font-size="14.00">M111 (b)</text>
</g>
<!-- 28&#45;&gt;14 -->
<g id="edge15" class="edge">
<title>28&#45;&gt;14</title>
<path fill="none" stroke="blue" stroke-dasharray="5,2" d="M1541,-380.81C1541,-372.79 1541,-363.05 1541,-354.07"/>
<polygon fill="blue" stroke="blue" points="1544.5,-354.03 1541,-344.03 1537.5,-354.03 1544.5,-354.03"/>
</g>
<!-- 30&#45;&gt;3 -->
<g id="edge4" class="edge">
<title>30&#45;&gt;3</title>
<path fill="none" stroke="black" stroke-dasharray="1,5" d="M789.82,-467.62C753.19,-453.29 695.13,-430.57 656.55,-415.48"/>
<polygon fill="black" stroke="black" points="657.78,-412.2 647.19,-411.81 655.23,-418.72 657.78,-412.2"/>
</g>
<!-- 30&#45;&gt;20 -->
<g id="edge21" class="edge">
<title>30&#45;&gt;20</title>
<path fill="none" stroke="black" stroke-dasharray="5,2" d="M805.58,-464.61C792.18,-452.67 773.83,-436.35 758.94,-423.09"/>
<polygon fill="black" stroke="black" points="760.87,-420.13 751.08,-416.09 756.22,-425.35 760.87,-420.13"/>
<text text-anchor="middle" x="786.5" y="-438" font-family="Times,serif" font-size="10.00">2</text>
</g>
<!-- 31&#45;&gt;0 -->
<g id="edge1" class="edge">
<title>31&#45;&gt;0</title>
<path fill="none" stroke="black" d="M1210,-473.63C1146.21,-462.7 1024.47,-440.89 922,-417 917.84,-416.03 913.54,-414.97 909.24,-413.87"/>
<polygon fill="black" stroke="black" points="909.8,-410.4 899.24,-411.25 908.03,-417.17 909.8,-410.4"/>
<text text-anchor="middle" x="1061.5" y="-438" font-family="Times,serif" font-size="10.00">2</text>
</g>
<!-- 31&#45;&gt;1 -->
<g id="edge2" class="edge">
<title>31&#45;&gt;1</title>
<path fill="none" stroke="black" stroke-dasharray="1,5" d="M1215.49,-470.53C1170.42,-458.17 1093.59,-436.8 1028,-417 1024.71,-416.01 1021.31,-414.96 1017.89,-413.9"/>
<polygon fill="black" stroke="black" points="1018.9,-410.54 1008.31,-410.88 1016.79,-417.22 1018.9,-410.54"/>
</g>
<!-- 31&#45;&gt;7 -->
<g id="edge8" class="edge">
<title>31&#45;&gt;7</title>
<path fill="none" stroke="black" stroke-dasharray="5,2" d="M1225.29,-467.08C1197.49,-453.59 1155.17,-433.06 1124.67,-418.27"/>
<polygon fill="black" stroke="black" points="1126.14,-415.09 1115.61,-413.88 1123.08,-421.39 1126.14,-415.09"/>
</g>
<!-- 31&#45;&gt;12 -->
<g id="edge13" class="edge">
<title>31&#45;&gt;12</title>
<path fill="none" stroke="black" stroke-dasharray="1,5" d="M1243.64,-464.22C1236.73,-453.03 1227.53,-438.12 1219.73,-425.48"/>
<polygon fill="black" stroke="black" points="1222.58,-423.43 1214.35,-416.76 1216.62,-427.11 1222.58,-423.43"/>
</g>
<!-- 31&#45;&gt;19 -->
<g id="edge20" class="edge">
<title>31&#45;&gt;19</title>
<path fill="none" stroke="gray" stroke-dasharray="5,2" d="M1266.02,-464.22C1274.16,-452.85 1285.06,-437.63 1294.2,-424.86"/>
<polygon fill="gray" stroke="gray" points="1297.22,-426.65 1300.2,-416.48 1291.53,-422.58 1297.22,-426.65"/>
</g>
<!-- 31&#45;&gt;27 -->
<g id="edge28" class="edge">
<title>31&#45;&gt;27</title>
<path fill="none" stroke="black" stroke-dasharray="5,2" d="M1282.54,-467.08C1310.18,-453.59 1352.24,-433.06 1382.56,-418.27"/>
<polygon fill="black" stroke="black" points="1384.11,-421.41 1391.56,-413.88 1381.04,-415.12 1384.11,-421.41"/>
</g>
<!-- 31&#45;&gt;28 -->
<g id="edge29" class="edge">
<title>31&#45;&gt;28</title>
<path fill="none" stroke="black" stroke-dasharray="1,5" d="M1291.44,-470.17C1298.6,-468.11 1306.03,-465.98 1313,-464 1374.34,-446.55 1445.06,-426.75 1491.26,-413.86"/>
<polygon fill="black" stroke="black" points="1492.33,-417.19 1501.03,-411.13 1490.45,-410.45 1492.33,-417.19"/>
</g>
<!-- 33 -->
<g id="node35" class="node">
<title>33</title>
<ellipse fill="none" stroke="black" cx="1660" cy="-399" rx="47.39" ry="18"/>
<text text-anchor="middle" x="1660" y="-395.3" font-family="Times,serif" font-size="14.00">Bodl (b)</text>
</g>
<!-- 31&#45;&gt;33 -->
<g id="edge34" class="edge">
<title>31&#45;&gt;33</title>
<path fill="none" stroke="black" stroke-dasharray="5,2" d="M1290.33,-469.79C1297.79,-467.7 1305.61,-465.66 1313,-464 1440.41,-435.43 1475.73,-446.16 1603,-417 1606.91,-416.1 1610.94,-415.09 1614.97,-414.01"/>
<polygon fill="black" stroke="black" points="1616.23,-417.3 1624.92,-411.24 1614.35,-410.55 1616.23,-417.3"/>
</g>
<!-- 35 -->
<g id="node37" class="node">
<title>35</title>
<ellipse fill="none" stroke="black" cx="1769" cy="-399" rx="43.59" ry="18"/>
<text text-anchor="middle" x="1769" y="-395.3" font-family="Times,serif" font-size="14.00">La2 (b)</text>
</g>
<!-- 31&#45;&gt;35 -->
<g id="edge36" class="edge">
<title>31&#45;&gt;35</title>
<path fill="none" stroke="black" d="M1289.96,-469.62C1297.52,-467.52 1305.48,-465.51 1313,-464 1335.1,-459.56 1693.97,-421.77 1716,-417 1719.66,-416.21 1723.43,-415.26 1727.19,-414.23"/>
<polygon fill="black" stroke="black" points="1728.43,-417.52 1737.04,-411.35 1726.46,-410.8 1728.43,-417.52"/>
<text text-anchor="middle" x="1562.5" y="-438" font-family="Times,serif" font-size="10.00">2</text>
</g>
<!-- 36 -->
<g id="node38" class="node">
<title>36</title>
<ellipse fill="none" stroke="black" cx="1881" cy="-399" rx="50.09" ry="18"/>
<text text-anchor="middle" x="1881" y="-395.3" font-family="Times,serif" font-size="14.00">V571 (b)</text>
</g>
<!-- 31&#45;&gt;36 -->
<g id="edge37" class="edge">
<title>31&#45;&gt;36</title>
<path fill="none" stroke="black" stroke-dasharray="1,5" d="M1289.6,-469.44C1297.25,-467.32 1305.34,-465.36 1313,-464 1425.75,-444.04 1455.98,-456.55 1570,-446 1682.26,-435.61 1711.45,-439.13 1822,-417 1826.17,-416.16 1830.48,-415.18 1834.78,-414.1"/>
<polygon fill="black" stroke="black" points="1835.95,-417.41 1844.72,-411.48 1834.16,-410.65 1835.95,-417.41"/>
</g>
<!-- 32 -->
<g id="node34" class="node">
<title>32</title>
<ellipse fill="none" stroke="black" cx="1798" cy="-565" rx="50.89" ry="18"/>
<text text-anchor="middle" x="1798" y="-561.3" font-family="Times,serif" font-size="14.00">Neap (d)</text>
</g>
<!-- 38 -->
<g id="node40" class="node">
<title>38</title>
<ellipse fill="none" stroke="black" cx="1985" cy="-482" rx="55.79" ry="18"/>
<text text-anchor="middle" x="1985" y="-478.3" font-family="Times,serif" font-size="14.00">V1629 (d)</text>
</g>
<!-- 32&#45;&gt;38 -->
<g id="edge38" class="edge">
<title>32&#45;&gt;38</title>
<path fill="none" stroke="black" stroke-dasharray="1,5" d="M1828.88,-550.62C1860.27,-537.03 1909.07,-515.89 1943.75,-500.87"/>
<polygon fill="black" stroke="black" points="1945.35,-503.99 1953.14,-496.8 1942.57,-497.57 1945.35,-503.99"/>
</g>
<!-- 34 -->
<g id="node36" class="node">
<title>34</title>
<ellipse fill="none" stroke="gray" stroke-dasharray="5,2" cx="1917" cy="-565" rx="50.09" ry="18"/>
<text text-anchor="middle" x="1917" y="-561.3" font-family="Times,serif" font-size="14.00">Savile&#45;Η</text>
</g>
<!-- 37 -->
<g id="node39" class="node">
<title>37</title>
<ellipse fill="none" stroke="black" cx="1741" cy="-639" rx="53.89" ry="18"/>
<text text-anchor="middle" x="1741" y="-635.3" font-family="Times,serif" font-size="14.00">aBase (a)</text>
</g>
<!-- 37&#45;&gt;13 -->
<g id="edge14" class="edge">
<title>37&#45;&gt;13</title>
<path fill="none" stroke="blue" stroke-dasharray="5,2" d="M1688.61,-634.36C1511.73,-622.05 937.8,-582.13 759.41,-569.72"/>
<polygon fill="blue" stroke="blue" points="759.45,-566.21 749.23,-569.01 758.96,-573.19 759.45,-566.21"/>
</g>
<!-- 37&#45;&gt;17 -->
<g id="edge18" class="edge">
<title>37&#45;&gt;17</title>
<path fill="none" stroke="black" d="M1727.78,-621.3C1720.59,-612.21 1711.55,-600.8 1703.55,-590.7"/>
<polygon fill="black" stroke="black" points="1706.1,-588.28 1697.15,-582.61 1700.61,-592.62 1706.1,-588.28"/>
</g>
<!-- 37&#45;&gt;32 -->
<g id="edge33" class="edge">
<title>37&#45;&gt;32</title>
<path fill="none" stroke="blue" stroke-width="2" d="M1754.22,-621.3C1761.41,-612.21 1770.45,-600.8 1778.45,-590.7"/>
<polygon fill="blue" stroke="blue" stroke-width="2" points="1781.39,-592.62 1784.85,-582.61 1775.9,-588.28 1781.39,-592.62"/>
</g>
<!-- 37&#45;&gt;34 -->
<g id="edge35" class="edge">
<title>37&#45;&gt;34</title>
<path fill="none" stroke="gray" stroke-width="2" d="M1773.69,-624.63C1802.52,-612.83 1844.67,-595.59 1875.8,-582.86"/>
<polygon fill="gray" stroke="gray" stroke-width="2" points="1877.15,-586.09 1885.08,-579.06 1874.5,-579.61 1877.15,-586.09"/>
</g>
<!-- 41 -->
<g id="node43" class="node">
<title>41</title>
<ellipse fill="none" stroke="gray" stroke-dasharray="5,2" cx="1985" cy="-399" rx="36" ry="18"/>
<text text-anchor="middle" x="1985" y="-395.3" font-family="Times,serif" font-size="14.00">La2&#45;c</text>
</g>
<!-- 38&#45;&gt;41 -->
<g id="edge41" class="edge">
<title>38&#45;&gt;41</title>
<path fill="none" stroke="gray" stroke-width="2" d="M1985,-463.82C1985,-453.19 1985,-439.31 1985,-427.2"/>
<polygon fill="gray" stroke="gray" stroke-width="2" points="1988.5,-427.15 1985,-417.15 1981.5,-427.15 1988.5,-427.15"/>
</g>
<!-- 42 -->
<g id="node44" class="node">
<title>42</title>
<ellipse fill="none" stroke="black" cx="2089" cy="-399" rx="50.09" ry="18"/>
<text text-anchor="middle" x="2089" y="-395.3" font-family="Times,serif" font-size="14.00">V536 (d)</text>
</g>
<!-- 38&#45;&gt;42 -->
<g id="edge42" class="edge">
<title>38&#45;&gt;42</title>
<path fill="none" stroke="black" stroke-dasharray="5,2" d="M2005.55,-465C2021.32,-452.71 2043.27,-435.62 2060.7,-422.04"/>
<polygon fill="black" stroke="black" points="2063.11,-424.6 2068.85,-415.69 2058.81,-419.08 2063.11,-424.6"/>
</g>
<!-- 39&#45;&gt;8 -->
<g id="edge9" class="edge">
<title>39&#45;&gt;8</title>
<path fill="none" stroke="black" stroke-dasharray="5,2" d="M253.45,-380.81C254.13,-372.79 254.95,-363.05 255.71,-354.07"/>
<polygon fill="black" stroke="black" points="259.21,-354.29 256.56,-344.03 252.23,-353.7 259.21,-354.29"/>
</g>
<!-- 42&#45;&gt;24 -->
<g id="edge25" class="edge">
<title>42&#45;&gt;24</title>
<path fill="none" stroke="black" stroke-dasharray="1,5" d="M2086.82,-380.81C2085.8,-372.79 2084.57,-363.05 2083.43,-354.07"/>
<polygon fill="black" stroke="black" points="2086.89,-353.51 2082.16,-344.03 2079.94,-354.39 2086.89,-353.51"/>
</g>
</g>
</svg>
