<?xml version="1.0" encoding="UTF-8" standalone="no"?>
<!DOCTYPE svg PUBLIC "-//W3C//DTD SVG 1.1//EN"
 "http://www.w3.org/Graphics/SVG/1.1/DTD/svg11.dtd">
<!-- Generated by graphviz version 2.43.0 (0)
 -->
<!-- Title: textual_flow Pages: 1 -->
<svg width="2073pt" height="546pt"
 viewBox="0.00 0.00 2073.00 546.00" xmlns="http://www.w3.org/2000/svg" xmlns:xlink="http://www.w3.org/1999/xlink">
<g id="graph0" class="graph" transform="scale(1 1) rotate(0) translate(4 542)">
<title>textual_flow</title>
<polygon fill="white" stroke="transparent" points="-4,4 -4,-542 2069,-542 2069,4 -4,4"/>
<g id="clust1" class="cluster">
<title>cluster_legend</title>
<polygon fill="none" stroke="black" points="8,-476 8,-530 186,-530 186,-476 8,-476"/>
</g>
<g id="clust2" class="cluster">
<title>cluster_plot</title>
</g>
<!-- label -->
<g id="node1" class="node">
<title>label</title>
<text text-anchor="middle" x="97" y="-506.8" font-family="Times,serif" font-size="14.00">adstag1.3.46U62&#45;66</text>
<text text-anchor="middle" x="97" y="-491.8" font-family="Times,serif" font-size="14.00">Con = 5</text>
</g>
<!-- 0 -->
<g id="node2" class="node">
<title>0</title>
<ellipse fill="none" stroke="black" cx="487" cy="-429" rx="50.89" ry="18"/>
<text text-anchor="middle" x="487" y="-425.3" font-family="Times,serif" font-size="14.00">Neap (d)</text>
</g>
<!-- 19 -->
<g id="node21" class="node">
<title>19</title>
<ellipse fill="none" stroke="black" cx="258" cy="-356" rx="55.79" ry="18"/>
<text text-anchor="middle" x="258" y="-352.3" font-family="Times,serif" font-size="14.00">V1629 (d)</text>
</g>
<!-- 0&#45;&gt;19 -->
<g id="edge20" class="edge">
<title>0&#45;&gt;19</title>
<path fill="none" stroke="black" stroke-dasharray="1,5" d="M450.21,-416.59C411.27,-404.52 349.62,-385.41 306.68,-372.09"/>
<polygon fill="black" stroke="black" points="307.59,-368.71 297,-369.09 305.52,-375.4 307.59,-368.71"/>
</g>
<!-- 1 -->
<g id="node3" class="node">
<title>1</title>
<ellipse fill="none" stroke="black" cx="723" cy="-429" rx="50.09" ry="18"/>
<text text-anchor="middle" x="723" y="-425.3" font-family="Times,serif" font-size="14.00">Patm (a)</text>
</g>
<!-- 2 -->
<g id="node4" class="node">
<title>2</title>
<ellipse fill="none" stroke="black" cx="258" cy="-273" rx="50.09" ry="18"/>
<text text-anchor="middle" x="258" y="-269.3" font-family="Times,serif" font-size="14.00">V568 (d)</text>
</g>
<!-- 21 -->
<g id="node23" class="node">
<title>21</title>
<ellipse fill="none" stroke="black" cx="259" cy="-190" rx="47.39" ry="18"/>
<text text-anchor="middle" x="259" y="-186.3" font-family="Times,serif" font-size="14.00">Taur (d)</text>
</g>
<!-- 2&#45;&gt;21 -->
<g id="edge21" class="edge">
<title>2&#45;&gt;21</title>
<path fill="none" stroke="black" stroke-dasharray="1,5" d="M258.21,-254.82C258.34,-244.19 258.51,-230.31 258.66,-218.2"/>
<polygon fill="black" stroke="black" points="262.16,-218.2 258.79,-208.15 255.16,-218.11 262.16,-218.2"/>
</g>
<!-- 3 -->
<g id="node5" class="node">
<title>3</title>
<ellipse fill="none" stroke="black" cx="376" cy="-356" rx="44.39" ry="18"/>
<text text-anchor="middle" x="376" y="-352.3" font-family="Times,serif" font-size="14.00">P74 (a)</text>
</g>
<!-- 4 -->
<g id="node6" class="node">
<title>4</title>
<ellipse fill="none" stroke="black" cx="592" cy="-107" rx="46.29" ry="18"/>
<text text-anchor="middle" x="592" y="-103.3" font-family="Times,serif" font-size="14.00">Mon (c)</text>
</g>
<!-- 5 -->
<g id="node7" class="node">
<title>5</title>
<ellipse fill="none" stroke="black" cx="840" cy="-429" rx="48.99" ry="18"/>
<text text-anchor="middle" x="840" y="-425.3" font-family="Times,serif" font-size="14.00">La22 (a)</text>
</g>
<!-- 5&#45;&gt;3 -->
<g id="edge4" class="edge">
<title>5&#45;&gt;3</title>
<path fill="none" stroke="black" stroke-dasharray="1,5" d="M804.67,-416.54C797.24,-414.45 789.41,-412.46 782,-411 627.23,-380.47 583.37,-406.48 429,-374 425.38,-373.24 421.66,-372.33 417.95,-371.32"/>
<polygon fill="black" stroke="black" points="418.81,-367.93 408.23,-368.5 416.86,-374.65 418.81,-367.93"/>
</g>
<!-- 6 -->
<g id="node8" class="node">
<title>6</title>
<ellipse fill="none" stroke="black" cx="488" cy="-356" rx="50.09" ry="18"/>
<text text-anchor="middle" x="488" y="-352.3" font-family="Times,serif" font-size="14.00">V565 (a)</text>
</g>
<!-- 5&#45;&gt;6 -->
<g id="edge7" class="edge">
<title>5&#45;&gt;6</title>
<path fill="none" stroke="black" stroke-dasharray="5,2" d="M803.99,-416.66C796.75,-414.61 789.17,-412.61 782,-411 678.83,-387.86 650.22,-396.9 547,-374 542.9,-373.09 538.67,-372.06 534.44,-370.96"/>
<polygon fill="black" stroke="black" points="535.21,-367.55 524.64,-368.32 533.39,-374.3 535.21,-367.55"/>
</g>
<!-- 9 -->
<g id="node11" class="node">
<title>9</title>
<ellipse fill="none" stroke="black" cx="605" cy="-356" rx="48.99" ry="18"/>
<text text-anchor="middle" x="605" y="-352.3" font-family="Times,serif" font-size="14.00">La35 (a)</text>
</g>
<!-- 5&#45;&gt;9 -->
<g id="edge10" class="edge">
<title>5&#45;&gt;9</title>
<path fill="none" stroke="black" stroke-dasharray="1,5" d="M803.54,-416.98C762.55,-404.6 695.9,-384.46 651.27,-370.98"/>
<polygon fill="black" stroke="black" points="652.13,-367.58 641.55,-368.04 650.11,-374.28 652.13,-367.58"/>
</g>
<!-- 14 -->
<g id="node16" class="node">
<title>14</title>
<ellipse fill="none" stroke="black" cx="722" cy="-356" rx="50.09" ry="18"/>
<text text-anchor="middle" x="722" y="-352.3" font-family="Times,serif" font-size="14.00">V571 (a)</text>
</g>
<!-- 5&#45;&gt;14 -->
<g id="edge15" class="edge">
<title>5&#45;&gt;14</title>
<path fill="none" stroke="black" stroke-dasharray="1,5" d="M815.55,-413.29C798.18,-402.84 774.65,-388.68 755.53,-377.18"/>
<polygon fill="black" stroke="black" points="757.2,-374.09 746.82,-371.94 753.59,-380.09 757.2,-374.09"/>
</g>
<!-- 24 -->
<g id="node26" class="node">
<title>24</title>
<ellipse fill="none" stroke="black" cx="840" cy="-356" rx="50.09" ry="18"/>
<text text-anchor="middle" x="840" y="-352.3" font-family="Times,serif" font-size="14.00">A116 (a)</text>
</g>
<!-- 5&#45;&gt;24 -->
<g id="edge24" class="edge">
<title>5&#45;&gt;24</title>
<path fill="none" stroke="black" stroke-dasharray="5,2" d="M840,-410.81C840,-402.79 840,-393.05 840,-384.07"/>
<polygon fill="black" stroke="black" points="843.5,-384.03 840,-374.03 836.5,-384.03 843.5,-384.03"/>
</g>
<!-- 32 -->
<g id="node34" class="node">
<title>32</title>
<ellipse fill="none" stroke="black" cx="955" cy="-356" rx="46.59" ry="18"/>
<text text-anchor="middle" x="955" y="-352.3" font-family="Times,serif" font-size="14.00">Bodl (a)</text>
</g>
<!-- 5&#45;&gt;32 -->
<g id="edge32" class="edge">
<title>5&#45;&gt;32</title>
<path fill="none" stroke="black" stroke-dasharray="5,2" d="M863.83,-413.29C880.79,-402.82 903.79,-388.62 922.44,-377.1"/>
<polygon fill="black" stroke="black" points="924.53,-379.92 931.2,-371.69 920.85,-373.97 924.53,-379.92"/>
</g>
<!-- 37 -->
<g id="node39" class="node">
<title>37</title>
<ellipse fill="none" stroke="black" cx="1072" cy="-356" rx="52.79" ry="18"/>
<text text-anchor="middle" x="1072" y="-352.3" font-family="Times,serif" font-size="14.00">M111 (a)</text>
</g>
<!-- 5&#45;&gt;37 -->
<g id="edge37" class="edge">
<title>5&#45;&gt;37</title>
<path fill="none" stroke="black" stroke-dasharray="1,5" d="M876.25,-416.91C916.18,-404.69 980.54,-384.99 1024.48,-371.54"/>
<polygon fill="black" stroke="black" points="1025.54,-374.88 1034.08,-368.61 1023.49,-368.18 1025.54,-374.88"/>
</g>
<!-- 7 -->
<g id="node9" class="node">
<title>7</title>
<ellipse fill="none" stroke="black" cx="252" cy="-107" rx="50.09" ry="18"/>
<text text-anchor="middle" x="252" y="-103.3" font-family="Times,serif" font-size="14.00">V569 (d)</text>
</g>
<!-- 8 -->
<g id="node10" class="node">
<title>8</title>
<ellipse fill="none" stroke="black" cx="1795" cy="-273" rx="55.79" ry="18"/>
<text text-anchor="middle" x="1795" y="-269.3" font-family="Times,serif" font-size="14.00">V1639 (a)</text>
</g>
<!-- 10 -->
<g id="node12" class="node">
<title>10</title>
<ellipse fill="none" stroke="black" cx="1054" cy="-429" rx="52.79" ry="18"/>
<text text-anchor="middle" x="1054" y="-425.3" font-family="Times,serif" font-size="14.00">LaSM (a)</text>
</g>
<!-- 25 -->
<g id="node27" class="node">
<title>25</title>
<ellipse fill="none" stroke="black" cx="1187" cy="-356" rx="44.39" ry="18"/>
<text text-anchor="middle" x="1187" y="-352.3" font-family="Times,serif" font-size="14.00">B39 (a)</text>
</g>
<!-- 10&#45;&gt;25 -->
<g id="edge25" class="edge">
<title>10&#45;&gt;25</title>
<path fill="none" stroke="black" stroke-dasharray="5,2" d="M1081.24,-413.46C1101.72,-402.53 1129.94,-387.46 1152.08,-375.64"/>
<polygon fill="black" stroke="black" points="1153.98,-378.59 1161.16,-370.8 1150.69,-372.42 1153.98,-378.59"/>
</g>
<!-- 11 -->
<g id="node13" class="node">
<title>11</title>
<ellipse fill="none" stroke="black" cx="1683" cy="-356" rx="44.39" ry="18"/>
<text text-anchor="middle" x="1683" y="-352.3" font-family="Times,serif" font-size="14.00">S32 (a)</text>
</g>
<!-- 12 -->
<g id="node14" class="node">
<title>12</title>
<ellipse fill="none" stroke="black" cx="1795" cy="-356" rx="50.09" ry="18"/>
<text text-anchor="middle" x="1795" y="-352.3" font-family="Times,serif" font-size="14.00">V566 (a)</text>
</g>
<!-- 12&#45;&gt;8 -->
<g id="edge9" class="edge">
<title>12&#45;&gt;8</title>
<path fill="none" stroke="black" stroke-dasharray="1,5" d="M1795,-337.82C1795,-327.19 1795,-313.31 1795,-301.2"/>
<polygon fill="black" stroke="black" points="1798.5,-301.15 1795,-291.15 1791.5,-301.15 1798.5,-301.15"/>
</g>
<!-- 13 -->
<g id="node15" class="node">
<title>13</title>
<ellipse fill="none" stroke="black" cx="1181" cy="-429" rx="55.79" ry="18"/>
<text text-anchor="middle" x="1181" y="-425.3" font-family="Times,serif" font-size="14.00">V2036 (a)</text>
</g>
<!-- 15 -->
<g id="node17" class="node">
<title>15</title>
<ellipse fill="none" stroke="black" cx="1305" cy="-429" rx="50.09" ry="18"/>
<text text-anchor="middle" x="1305" y="-425.3" font-family="Times,serif" font-size="14.00">V560 (a)</text>
</g>
<!-- 18 -->
<g id="node20" class="node">
<title>18</title>
<ellipse fill="none" stroke="black" cx="1305" cy="-356" rx="55.79" ry="18"/>
<text text-anchor="middle" x="1305" y="-352.3" font-family="Times,serif" font-size="14.00">V1920 (a)</text>
</g>
<!-- 15&#45;&gt;18 -->
<g id="edge19" class="edge">
<title>15&#45;&gt;18</title>
<path fill="none" stroke="black" stroke-dasharray="5,2" d="M1305,-410.81C1305,-402.79 1305,-393.05 1305,-384.07"/>
<polygon fill="black" stroke="black" points="1308.5,-384.03 1305,-374.03 1301.5,-384.03 1308.5,-384.03"/>
</g>
<!-- 16 -->
<g id="node18" class="node">
<title>16</title>
<ellipse fill="none" stroke="black" cx="1426" cy="-429" rx="52.79" ry="18"/>
<text text-anchor="middle" x="1426" y="-425.3" font-family="Times,serif" font-size="14.00">M136 (a)</text>
</g>
<!-- 17 -->
<g id="node19" class="node">
<title>17</title>
<ellipse fill="none" stroke="black" cx="1907" cy="-356" rx="44.39" ry="18"/>
<text text-anchor="middle" x="1907" y="-352.3" font-family="Times,serif" font-size="14.00">P01 (a)</text>
</g>
<!-- 19&#45;&gt;2 -->
<g id="edge3" class="edge">
<title>19&#45;&gt;2</title>
<path fill="none" stroke="black" stroke-dasharray="5,2" d="M258,-337.82C258,-327.19 258,-313.31 258,-301.2"/>
<polygon fill="black" stroke="black" points="261.5,-301.15 258,-291.15 254.5,-301.15 261.5,-301.15"/>
<text text-anchor="middle" x="261.5" y="-312" font-family="Times,serif" font-size="10.00">2</text>
</g>
<!-- 34 -->
<g id="node36" class="node">
<title>34</title>
<ellipse fill="none" stroke="black" cx="375" cy="-273" rx="49.29" ry="18"/>
<text text-anchor="middle" x="375" y="-269.3" font-family="Times,serif" font-size="14.00">V536 (c)</text>
</g>
<!-- 19&#45;&gt;34 -->
<g id="edge34" class="edge">
<title>19&#45;&gt;34</title>
<path fill="none" stroke="blue" stroke-dasharray="5,2" d="M280.56,-339.38C298.72,-326.81 324.43,-309.01 344.44,-295.16"/>
<polygon fill="blue" stroke="blue" points="346.68,-297.86 352.91,-289.29 342.69,-292.11 346.68,-297.86"/>
</g>
<!-- 36 -->
<g id="node38" class="node">
<title>36</title>
<ellipse fill="none" stroke="gray" stroke-dasharray="5,2" cx="478" cy="-273" rx="36" ry="18"/>
<text text-anchor="middle" x="478" y="-269.3" font-family="Times,serif" font-size="14.00">La2&#45;c</text>
</g>
<!-- 19&#45;&gt;36 -->
<g id="edge36" class="edge">
<title>19&#45;&gt;36</title>
<path fill="none" stroke="gray" stroke-width="2" d="M293.9,-342C329.31,-329.14 384.94,-308.87 433,-291 435.55,-290.05 438.19,-289.07 440.84,-288.07"/>
<polygon fill="gray" stroke="gray" stroke-width="2" points="442.28,-291.27 450.41,-284.48 439.82,-284.72 442.28,-291.27"/>
</g>
<!-- 20 -->
<g id="node22" class="node">
<title>20</title>
<ellipse fill="none" stroke="black" cx="1365" cy="-503" rx="53.89" ry="18"/>
<text text-anchor="middle" x="1365" y="-499.3" font-family="Times,serif" font-size="14.00">aBase (a)</text>
</g>
<!-- 20&#45;&gt;0 -->
<g id="edge1" class="edge">
<title>20&#45;&gt;0</title>
<path fill="none" stroke="blue" stroke-width="2" d="M1312.64,-498.29C1196.06,-489.95 906.26,-468.73 664,-447 624.43,-443.45 579.92,-439.17 545.43,-435.8"/>
<polygon fill="blue" stroke="blue" stroke-width="2" points="545.36,-432.27 535.06,-434.78 544.67,-439.24 545.36,-432.27"/>
</g>
<!-- 20&#45;&gt;1 -->
<g id="edge2" class="edge">
<title>20&#45;&gt;1</title>
<path fill="none" stroke="black" d="M1311.48,-500.28C1208.25,-496.24 974.78,-483.54 782,-447 777.82,-446.21 773.5,-445.25 769.2,-444.19"/>
<polygon fill="black" stroke="black" points="769.81,-440.74 759.25,-441.59 768.04,-447.51 769.81,-440.74"/>
</g>
<!-- 20&#45;&gt;5 -->
<g id="edge6" class="edge">
<title>20&#45;&gt;5</title>
<path fill="none" stroke="black" stroke-dasharray="5,2" d="M1316.08,-495.29C1218.01,-481.84 997.96,-451.66 895.04,-437.55"/>
<polygon fill="black" stroke="black" points="895.24,-434.04 884.86,-436.15 894.29,-440.98 895.24,-434.04"/>
</g>
<!-- 20&#45;&gt;10 -->
<g id="edge11" class="edge">
<title>20&#45;&gt;10</title>
<path fill="none" stroke="black" d="M1320.31,-492.84C1270.36,-482.43 1187.12,-464.59 1116,-447 1111.86,-445.97 1107.57,-444.88 1103.27,-443.75"/>
<polygon fill="black" stroke="black" points="1103.84,-440.28 1093.28,-441.09 1102.04,-447.05 1103.84,-440.28"/>
</g>
<!-- 20&#45;&gt;13 -->
<g id="edge14" class="edge">
<title>20&#45;&gt;13</title>
<path fill="none" stroke="black" d="M1331.25,-488.79C1301.22,-477.04 1257.13,-459.79 1224.47,-447.01"/>
<polygon fill="black" stroke="black" points="1225.75,-443.75 1215.16,-443.37 1223.19,-450.27 1225.75,-443.75"/>
</g>
<!-- 20&#45;&gt;15 -->
<g id="edge16" class="edge">
<title>20&#45;&gt;15</title>
<path fill="none" stroke="black" stroke-width="2" d="M1351.08,-485.3C1343.44,-476.12 1333.81,-464.57 1325.33,-454.4"/>
<polygon fill="black" stroke="black" stroke-width="2" points="1327.93,-452.05 1318.84,-446.61 1322.55,-456.53 1327.93,-452.05"/>
</g>
<!-- 20&#45;&gt;16 -->
<g id="edge17" class="edge">
<title>20&#45;&gt;16</title>
<path fill="none" stroke="black" stroke-width="2" d="M1379.15,-485.3C1386.92,-476.12 1396.71,-464.57 1405.33,-454.4"/>
<polygon fill="black" stroke="black" stroke-width="2" points="1408.14,-456.5 1411.93,-446.61 1402.79,-451.98 1408.14,-456.5"/>
</g>
<!-- 22 -->
<g id="node24" class="node">
<title>22</title>
<ellipse fill="none" stroke="black" cx="1541" cy="-429" rx="44.69" ry="18"/>
<text text-anchor="middle" x="1541" y="-425.3" font-family="Times,serif" font-size="14.00">Nan (a)</text>
</g>
<!-- 20&#45;&gt;22 -->
<g id="edge22" class="edge">
<title>20&#45;&gt;22</title>
<path fill="none" stroke="black" d="M1397.69,-488.63C1427.06,-476.61 1470.25,-458.94 1501.54,-446.14"/>
<polygon fill="black" stroke="black" points="1502.9,-449.37 1510.83,-442.34 1500.25,-442.89 1502.9,-449.37"/>
</g>
<!-- 29 -->
<g id="node31" class="node">
<title>29</title>
<ellipse fill="none" stroke="black" cx="1647" cy="-429" rx="43.59" ry="18"/>
<text text-anchor="middle" x="1647" y="-425.3" font-family="Times,serif" font-size="14.00">La2 (b)</text>
</g>
<!-- 20&#45;&gt;29 -->
<g id="edge29" class="edge">
<title>20&#45;&gt;29</title>
<path fill="none" stroke="blue" stroke-width="2" d="M1409.37,-492.51C1455.89,-482.3 1530.99,-465.08 1595,-447 1598.15,-446.11 1601.4,-445.15 1604.66,-444.16"/>
<polygon fill="blue" stroke="blue" stroke-width="2" points="1605.9,-447.44 1614.39,-441.11 1603.8,-440.76 1605.9,-447.44"/>
</g>
<!-- 33 -->
<g id="node35" class="node">
<title>33</title>
<ellipse fill="none" stroke="black" cx="1753" cy="-429" rx="44.39" ry="18"/>
<text text-anchor="middle" x="1753" y="-425.3" font-family="Times,serif" font-size="14.00">A25 (a)</text>
</g>
<!-- 20&#45;&gt;33 -->
<g id="edge33" class="edge">
<title>20&#45;&gt;33</title>
<path fill="none" stroke="black" stroke-dasharray="5,2" d="M1415.12,-496.12C1481.03,-487.85 1600.16,-471.07 1700,-447 1703.44,-446.17 1706.98,-445.23 1710.52,-444.23"/>
<polygon fill="black" stroke="black" points="1711.83,-447.49 1720.42,-441.28 1709.84,-440.78 1711.83,-447.49"/>
</g>
<!-- 38 -->
<g id="node40" class="node">
<title>38</title>
<ellipse fill="none" stroke="gray" stroke-dasharray="5,2" cx="1865" cy="-429" rx="50.09" ry="18"/>
<text text-anchor="middle" x="1865" y="-425.3" font-family="Times,serif" font-size="14.00">Savile&#45;Η</text>
</g>
<!-- 20&#45;&gt;38 -->
<g id="edge38" class="edge">
<title>20&#45;&gt;38</title>
<path fill="none" stroke="gray" stroke-width="2" d="M1417.03,-498.16C1499.95,-491.46 1666.93,-475.53 1806,-447 1810.17,-446.14 1814.48,-445.14 1818.77,-444.06"/>
<polygon fill="gray" stroke="gray" stroke-width="2" points="1819.95,-447.37 1828.71,-441.42 1818.15,-440.6 1819.95,-447.37"/>
</g>
<!-- 42 -->
<g id="node44" class="node">
<title>42</title>
<ellipse fill="none" stroke="black" cx="1983" cy="-429" rx="50.09" ry="18"/>
<text text-anchor="middle" x="1983" y="-425.3" font-family="Times,serif" font-size="14.00">S249 (a)</text>
</g>
<!-- 20&#45;&gt;42 -->
<g id="edge42" class="edge">
<title>20&#45;&gt;42</title>
<path fill="none" stroke="black" d="M1418.26,-499.99C1518.2,-495.52 1740.35,-482.19 1924,-447 1928.18,-446.2 1932.49,-445.23 1936.79,-444.18"/>
<polygon fill="black" stroke="black" points="1937.96,-447.49 1946.74,-441.57 1936.18,-440.72 1937.96,-447.49"/>
</g>
<!-- 21&#45;&gt;7 -->
<g id="edge8" class="edge">
<title>21&#45;&gt;7</title>
<path fill="none" stroke="black" stroke-dasharray="5,2" d="M257.52,-171.82C256.6,-161.19 255.4,-147.31 254.35,-135.2"/>
<polygon fill="black" stroke="black" points="257.83,-134.81 253.48,-125.15 250.86,-135.42 257.83,-134.81"/>
</g>
<!-- 23 -->
<g id="node25" class="node">
<title>23</title>
<ellipse fill="none" stroke="black" cx="362" cy="-107" rx="41.69" ry="18"/>
<text text-anchor="middle" x="362" y="-103.3" font-family="Times,serif" font-size="14.00">Sin (d)</text>
</g>
<!-- 21&#45;&gt;23 -->
<g id="edge23" class="edge">
<title>21&#45;&gt;23</title>
<path fill="none" stroke="black" stroke-dasharray="1,5" d="M278.86,-173.38C294.73,-160.9 317.16,-143.26 334.72,-129.45"/>
<polygon fill="black" stroke="black" points="337.2,-131.95 342.9,-123.02 332.87,-126.45 337.2,-131.95"/>
<text text-anchor="middle" x="319.5" y="-146" font-family="Times,serif" font-size="10.00">3</text>
</g>
<!-- 39 -->
<g id="node41" class="node">
<title>39</title>
<ellipse fill="none" stroke="black" cx="475" cy="-107" rx="53.09" ry="18"/>
<text text-anchor="middle" x="475" y="-103.3" font-family="Times,serif" font-size="14.00">M118 (d)</text>
</g>
<!-- 21&#45;&gt;39 -->
<g id="edge39" class="edge">
<title>21&#45;&gt;39</title>
<path fill="none" stroke="black" stroke-dasharray="5,2" d="M291.81,-176.7C329.06,-162.73 390.02,-139.87 431.29,-124.39"/>
<polygon fill="black" stroke="black" points="432.68,-127.61 440.81,-120.82 430.22,-121.05 432.68,-127.61"/>
</g>
<!-- 26 -->
<g id="node28" class="node">
<title>26</title>
<ellipse fill="none" stroke="black" cx="1435" cy="-356" rx="55.79" ry="18"/>
<text text-anchor="middle" x="1435" y="-352.3" font-family="Times,serif" font-size="14.00">V1897 (a)</text>
</g>
<!-- 22&#45;&gt;26 -->
<g id="edge26" class="edge">
<title>22&#45;&gt;26</title>
<path fill="none" stroke="black" stroke-dasharray="1,5" d="M1519.04,-413.29C1503.85,-403.12 1483.43,-389.44 1466.51,-378.11"/>
<polygon fill="black" stroke="black" points="1468.29,-375.09 1458.04,-372.43 1464.4,-380.9 1468.29,-375.09"/>
</g>
<!-- 27 -->
<g id="node29" class="node">
<title>27</title>
<ellipse fill="none" stroke="black" cx="1565" cy="-356" rx="55.79" ry="18"/>
<text text-anchor="middle" x="1565" y="-352.3" font-family="Times,serif" font-size="14.00">V2250 (a)</text>
</g>
<!-- 22&#45;&gt;27 -->
<g id="edge27" class="edge">
<title>22&#45;&gt;27</title>
<path fill="none" stroke="black" stroke-dasharray="5,2" d="M1546.81,-410.81C1549.55,-402.7 1552.89,-392.84 1555.95,-383.78"/>
<polygon fill="black" stroke="black" points="1559.36,-384.62 1559.24,-374.03 1552.73,-382.38 1559.36,-384.62"/>
</g>
<!-- 35 -->
<g id="node37" class="node">
<title>35</title>
<ellipse fill="none" stroke="black" cx="1384" cy="-273" rx="41.69" ry="18"/>
<text text-anchor="middle" x="1384" y="-269.3" font-family="Times,serif" font-size="14.00">Est (a)</text>
</g>
<!-- 26&#45;&gt;35 -->
<g id="edge35" class="edge">
<title>26&#45;&gt;35</title>
<path fill="none" stroke="black" stroke-dasharray="1,5" d="M1424.43,-338.22C1417.34,-326.96 1407.87,-311.92 1399.88,-299.22"/>
<polygon fill="black" stroke="black" points="1402.67,-297.08 1394.38,-290.48 1396.75,-300.81 1402.67,-297.08"/>
</g>
<!-- 40 -->
<g id="node42" class="node">
<title>40</title>
<ellipse fill="none" stroke="black" cx="1486" cy="-273" rx="42.79" ry="18"/>
<text text-anchor="middle" x="1486" y="-269.3" font-family="Times,serif" font-size="14.00">Bas (a)</text>
</g>
<!-- 26&#45;&gt;40 -->
<g id="edge40" class="edge">
<title>26&#45;&gt;40</title>
<path fill="none" stroke="black" d="M1445.57,-338.22C1452.66,-326.96 1462.13,-311.92 1470.12,-299.22"/>
<polygon fill="black" stroke="black" points="1473.25,-300.81 1475.62,-290.48 1467.33,-297.08 1473.25,-300.81"/>
</g>
<!-- 28 -->
<g id="node30" class="node">
<title>28</title>
<ellipse fill="none" stroke="gray" stroke-dasharray="5,2" cx="475" cy="-34" rx="28.7" ry="18"/>
<text text-anchor="middle" x="475" y="-30.3" font-family="Times,serif" font-size="14.00">P18</text>
</g>
<!-- 30 -->
<g id="node32" class="node">
<title>30</title>
<ellipse fill="none" stroke="black" cx="393" cy="-190" rx="49.29" ry="18"/>
<text text-anchor="middle" x="393" y="-186.3" font-family="Times,serif" font-size="14.00">Marc (c)</text>
</g>
<!-- 30&#45;&gt;4 -->
<g id="edge5" class="edge">
<title>30&#45;&gt;4</title>
<path fill="none" stroke="black" stroke-dasharray="1,5" d="M424.97,-175.99C459.36,-161.99 514.14,-139.69 551.51,-124.48"/>
<polygon fill="black" stroke="black" points="553.15,-127.59 561.09,-120.58 550.51,-121.11 553.15,-127.59"/>
</g>
<!-- 31 -->
<g id="node33" class="node">
<title>31</title>
<ellipse fill="none" stroke="black" cx="2009" cy="-356" rx="40.09" ry="18"/>
<text text-anchor="middle" x="2009" y="-352.3" font-family="Times,serif" font-size="14.00">Pal (a)</text>
</g>
<!-- 33&#45;&gt;11 -->
<g id="edge12" class="edge">
<title>33&#45;&gt;11</title>
<path fill="none" stroke="black" stroke-dasharray="5,2" d="M1737.12,-411.89C1727.9,-402.54 1716.13,-390.6 1705.92,-380.25"/>
<polygon fill="black" stroke="black" points="1708.33,-377.71 1698.82,-373.05 1703.35,-382.63 1708.33,-377.71"/>
</g>
<!-- 33&#45;&gt;12 -->
<g id="edge13" class="edge">
<title>33&#45;&gt;12</title>
<path fill="none" stroke="black" stroke-dasharray="5,2" d="M1762.95,-411.17C1768.03,-402.6 1774.3,-391.99 1779.95,-382.44"/>
<polygon fill="black" stroke="black" points="1783.04,-384.09 1785.12,-373.71 1777.01,-380.53 1783.04,-384.09"/>
</g>
<!-- 33&#45;&gt;17 -->
<g id="edge18" class="edge">
<title>33&#45;&gt;17</title>
<path fill="none" stroke="black" stroke-dasharray="5,2" d="M1781.25,-414.98C1806.1,-403.52 1842.47,-386.75 1869.71,-374.19"/>
<polygon fill="black" stroke="black" points="1871.32,-377.31 1878.93,-369.94 1868.39,-370.95 1871.32,-377.31"/>
</g>
<!-- 33&#45;&gt;31 -->
<g id="edge31" class="edge">
<title>33&#45;&gt;31</title>
<path fill="none" stroke="black" stroke-dasharray="5,2" d="M1785.96,-417.01C1792.57,-414.92 1799.49,-412.82 1806,-411 1873.78,-392.01 1892.44,-393.78 1960,-374 1962.97,-373.13 1966.03,-372.19 1969.1,-371.21"/>
<polygon fill="black" stroke="black" points="1970.43,-374.45 1978.83,-367.99 1968.24,-367.8 1970.43,-374.45"/>
</g>
<!-- 34&#45;&gt;30 -->
<g id="edge30" class="edge">
<title>34&#45;&gt;30</title>
<path fill="none" stroke="black" stroke-dasharray="1,5" d="M378.82,-254.82C381.18,-244.19 384.27,-230.31 386.95,-218.2"/>
<polygon fill="black" stroke="black" points="390.44,-218.67 389.19,-208.15 383.6,-217.16 390.44,-218.67"/>
<text text-anchor="middle" x="388.5" y="-229" font-family="Times,serif" font-size="10.00">3</text>
</g>
<!-- 41 -->
<g id="node43" class="node">
<title>41</title>
<ellipse fill="none" stroke="black" cx="1072" cy="-273" rx="49.29" ry="18"/>
<text text-anchor="middle" x="1072" y="-269.3" font-family="Times,serif" font-size="14.00">A336 (c)</text>
</g>
<!-- 37&#45;&gt;41 -->
<g id="edge41" class="edge">
<title>37&#45;&gt;41</title>
<path fill="none" stroke="blue" stroke-dasharray="5,2" d="M1072,-337.82C1072,-327.19 1072,-313.31 1072,-301.2"/>
<polygon fill="blue" stroke="blue" points="1075.5,-301.15 1072,-291.15 1068.5,-301.15 1075.5,-301.15"/>
</g>
<!-- 39&#45;&gt;28 -->
<g id="edge28" class="edge">
<title>39&#45;&gt;28</title>
<path fill="none" stroke="gray" stroke-dasharray="5,2" d="M475,-88.81C475,-80.79 475,-71.05 475,-62.07"/>
<polygon fill="gray" stroke="gray" points="478.5,-62.03 475,-52.03 471.5,-62.03 478.5,-62.03"/>
</g>
</g>
</svg>
