<?xml version="1.0" encoding="UTF-8" standalone="no"?>
<!DOCTYPE svg PUBLIC "-//W3C//DTD SVG 1.1//EN"
 "http://www.w3.org/Graphics/SVG/1.1/DTD/svg11.dtd">
<!-- Generated by graphviz version 2.43.0 (0)
 -->
<!-- Title: textual_flow Pages: 1 -->
<svg width="1782pt" height="702pt"
 viewBox="0.00 0.00 1782.00 702.00" xmlns="http://www.w3.org/2000/svg" xmlns:xlink="http://www.w3.org/1999/xlink">
<g id="graph0" class="graph" transform="scale(1 1) rotate(0) translate(4 698)">
<title>textual_flow</title>
<polygon fill="white" stroke="transparent" points="-4,4 -4,-698 1778,-698 1778,4 -4,4"/>
<g id="clust1" class="cluster">
<title>cluster_legend</title>
<polygon fill="none" stroke="black" points="8,-632 8,-686 156,-686 156,-632 8,-632"/>
</g>
<g id="clust2" class="cluster">
<title>cluster_plot</title>
</g>
<!-- label -->
<g id="node1" class="node">
<title>label</title>
<text text-anchor="middle" x="82" y="-662.8" font-family="Times,serif" font-size="14.00">adstag1.1.8U88</text>
<text text-anchor="middle" x="82" y="-647.8" font-family="Times,serif" font-size="14.00">Con = 5</text>
</g>
<!-- 0 -->
<g id="node2" class="node">
<title>0</title>
<ellipse fill="none" stroke="black" cx="1244" cy="-326" rx="50.09" ry="18"/>
<text text-anchor="middle" x="1244" y="-322.3" font-family="Times,serif" font-size="14.00">V568 (a)</text>
</g>
<!-- 38 -->
<g id="node40" class="node">
<title>38</title>
<ellipse fill="none" stroke="black" cx="1244" cy="-253" rx="46.59" ry="18"/>
<text text-anchor="middle" x="1244" y="-249.3" font-family="Times,serif" font-size="14.00">Taur (a)</text>
</g>
<!-- 0&#45;&gt;38 -->
<g id="edge38" class="edge">
<title>0&#45;&gt;38</title>
<path fill="none" stroke="black" stroke-dasharray="1,5" d="M1244,-307.81C1244,-299.79 1244,-290.05 1244,-281.07"/>
<polygon fill="black" stroke="black" points="1247.5,-281.03 1244,-271.03 1240.5,-281.03 1247.5,-281.03"/>
</g>
<!-- 1 -->
<g id="node3" class="node">
<title>1</title>
<ellipse fill="none" stroke="gray" stroke-dasharray="5,2" cx="914" cy="-409" rx="50.09" ry="18"/>
<text text-anchor="middle" x="914" y="-405.3" font-family="Times,serif" font-size="14.00">Savile&#45;Η</text>
</g>
<!-- 2 -->
<g id="node4" class="node">
<title>2</title>
<ellipse fill="none" stroke="gray" stroke-dasharray="5,2" cx="1110" cy="-492" rx="42.49" ry="18"/>
<text text-anchor="middle" x="1110" y="-488.3" font-family="Times,serif" font-size="14.00">Marc&#45;c</text>
</g>
<!-- 3 -->
<g id="node5" class="node">
<title>3</title>
<ellipse fill="none" stroke="gray" stroke-dasharray="5,2" cx="213" cy="-409" rx="40.09" ry="18"/>
<text text-anchor="middle" x="213" y="-405.3" font-family="Times,serif" font-size="14.00">V2036</text>
</g>
<!-- 4 -->
<g id="node6" class="node">
<title>4</title>
<ellipse fill="none" stroke="gray" stroke-dasharray="5,2" cx="217" cy="-492" rx="45.49" ry="18"/>
<text text-anchor="middle" x="217" y="-488.3" font-family="Times,serif" font-size="14.00">LaSM&#45;c</text>
</g>
<!-- 5 -->
<g id="node7" class="node">
<title>5</title>
<ellipse fill="none" stroke="black" cx="331" cy="-492" rx="50.09" ry="18"/>
<text text-anchor="middle" x="331" y="-488.3" font-family="Times,serif" font-size="14.00">Patm (a)</text>
</g>
<!-- 5&#45;&gt;3 -->
<g id="edge4" class="edge">
<title>5&#45;&gt;3</title>
<path fill="none" stroke="gray" stroke-dasharray="1,5" d="M308.81,-475.76C290.11,-462.93 263.21,-444.47 242.67,-430.37"/>
<polygon fill="gray" stroke="gray" points="244.53,-427.4 234.3,-424.62 240.56,-433.17 244.53,-427.4"/>
</g>
<!-- 21 -->
<g id="node23" class="node">
<title>21</title>
<ellipse fill="none" stroke="black" cx="324" cy="-409" rx="52.79" ry="18"/>
<text text-anchor="middle" x="324" y="-405.3" font-family="Times,serif" font-size="14.00">LaSM (a)</text>
</g>
<!-- 5&#45;&gt;21 -->
<g id="edge22" class="edge">
<title>5&#45;&gt;21</title>
<path fill="none" stroke="black" stroke-dasharray="5,2" d="M329.52,-473.82C328.6,-463.19 327.4,-449.31 326.35,-437.2"/>
<polygon fill="black" stroke="black" points="329.83,-436.81 325.48,-427.15 322.86,-437.42 329.83,-436.81"/>
</g>
<!-- 6 -->
<g id="node8" class="node">
<title>6</title>
<ellipse fill="none" stroke="black" cx="443" cy="-409" rx="48.99" ry="18"/>
<text text-anchor="middle" x="443" y="-405.3" font-family="Times,serif" font-size="14.00">La35 (a)</text>
</g>
<!-- 12 -->
<g id="node14" class="node">
<title>12</title>
<ellipse fill="none" stroke="black" cx="438" cy="-326" rx="50.09" ry="18"/>
<text text-anchor="middle" x="438" y="-322.3" font-family="Times,serif" font-size="14.00">A116 (a)</text>
</g>
<!-- 6&#45;&gt;12 -->
<g id="edge13" class="edge">
<title>6&#45;&gt;12</title>
<path fill="none" stroke="black" stroke-dasharray="1,5" d="M441.94,-390.82C441.28,-380.19 440.43,-366.31 439.68,-354.2"/>
<polygon fill="black" stroke="black" points="443.17,-353.92 439.06,-344.15 436.18,-354.35 443.17,-353.92"/>
<text text-anchor="middle" x="443.5" y="-365" font-family="Times,serif" font-size="10.00">2</text>
</g>
<!-- 41 -->
<g id="node43" class="node">
<title>41</title>
<ellipse fill="none" stroke="black" cx="553" cy="-326" rx="46.59" ry="18"/>
<text text-anchor="middle" x="553" y="-322.3" font-family="Times,serif" font-size="14.00">Bodl (a)</text>
</g>
<!-- 6&#45;&gt;41 -->
<g id="edge41" class="edge">
<title>6&#45;&gt;41</title>
<path fill="none" stroke="black" stroke-dasharray="1,5" d="M463.95,-392.57C480.92,-380.08 505.03,-362.32 523.88,-348.44"/>
<polygon fill="black" stroke="black" points="526.15,-351.12 532.13,-342.37 522,-345.48 526.15,-351.12"/>
<text text-anchor="middle" x="507.5" y="-365" font-family="Times,serif" font-size="10.00">2</text>
</g>
<!-- 7 -->
<g id="node9" class="node">
<title>7</title>
<ellipse fill="none" stroke="black" cx="443" cy="-492" rx="44.39" ry="18"/>
<text text-anchor="middle" x="443" y="-488.3" font-family="Times,serif" font-size="14.00">S32 (a)</text>
</g>
<!-- 8 -->
<g id="node10" class="node">
<title>8</title>
<ellipse fill="none" stroke="black" cx="1454" cy="-492" rx="55.79" ry="18"/>
<text text-anchor="middle" x="1454" y="-488.3" font-family="Times,serif" font-size="14.00">V2250 (b)</text>
</g>
<!-- 18 -->
<g id="node20" class="node">
<title>18</title>
<ellipse fill="none" stroke="black" cx="1454" cy="-409" rx="43.59" ry="18"/>
<text text-anchor="middle" x="1454" y="-405.3" font-family="Times,serif" font-size="14.00">Bas (b)</text>
</g>
<!-- 8&#45;&gt;18 -->
<g id="edge19" class="edge">
<title>8&#45;&gt;18</title>
<path fill="none" stroke="black" stroke-dasharray="5,2" d="M1454,-473.82C1454,-463.19 1454,-449.31 1454,-437.2"/>
<polygon fill="black" stroke="black" points="1457.5,-437.15 1454,-427.15 1450.5,-437.15 1457.5,-437.15"/>
<text text-anchor="middle" x="1457.5" y="-448" font-family="Times,serif" font-size="10.00">5</text>
</g>
<!-- 9 -->
<g id="node11" class="node">
<title>9</title>
<ellipse fill="none" stroke="black" cx="558" cy="-492" rx="52.79" ry="18"/>
<text text-anchor="middle" x="558" y="-488.3" font-family="Times,serif" font-size="14.00">M111 (a)</text>
</g>
<!-- 9&#45;&gt;6 -->
<g id="edge7" class="edge">
<title>9&#45;&gt;6</title>
<path fill="none" stroke="black" stroke-dasharray="1,5" d="M536.1,-475.57C518.27,-463.02 492.92,-445.16 473.18,-431.25"/>
<polygon fill="black" stroke="black" points="475.01,-428.27 464.82,-425.37 470.98,-433.99 475.01,-428.27"/>
<text text-anchor="middle" x="510.5" y="-448" font-family="Times,serif" font-size="10.00">2</text>
</g>
<!-- 29 -->
<g id="node31" class="node">
<title>29</title>
<ellipse fill="none" stroke="black" cx="560" cy="-409" rx="50.09" ry="18"/>
<text text-anchor="middle" x="560" y="-405.3" font-family="Times,serif" font-size="14.00">A336 (a)</text>
</g>
<!-- 9&#45;&gt;29 -->
<g id="edge30" class="edge">
<title>9&#45;&gt;29</title>
<path fill="none" stroke="black" stroke-dasharray="5,2" d="M558.42,-473.82C558.69,-463.19 559.03,-449.31 559.33,-437.2"/>
<polygon fill="black" stroke="black" points="562.83,-437.24 559.58,-427.15 555.83,-437.06 562.83,-437.24"/>
</g>
<!-- 10 -->
<g id="node12" class="node">
<title>10</title>
<ellipse fill="none" stroke="black" cx="1244" cy="-409" rx="50.09" ry="18"/>
<text text-anchor="middle" x="1244" y="-405.3" font-family="Times,serif" font-size="14.00">V536 (a)</text>
</g>
<!-- 10&#45;&gt;0 -->
<g id="edge1" class="edge">
<title>10&#45;&gt;0</title>
<path fill="none" stroke="black" stroke-dasharray="1,5" d="M1244,-390.82C1244,-380.19 1244,-366.31 1244,-354.2"/>
<polygon fill="black" stroke="black" points="1247.5,-354.15 1244,-344.15 1240.5,-354.15 1247.5,-354.15"/>
</g>
<!-- 11 -->
<g id="node13" class="node">
<title>11</title>
<ellipse fill="none" stroke="black" cx="557" cy="-575" rx="42.79" ry="18"/>
<text text-anchor="middle" x="557" y="-571.3" font-family="Times,serif" font-size="14.00">La2 (a)</text>
</g>
<!-- 13 -->
<g id="node15" class="node">
<title>13</title>
<ellipse fill="none" stroke="black" cx="678" cy="-492" rx="49.29" ry="18"/>
<text text-anchor="middle" x="678" y="-488.3" font-family="Times,serif" font-size="14.00">La22 (b)</text>
</g>
<!-- 23 -->
<g id="node25" class="node">
<title>23</title>
<ellipse fill="none" stroke="black" cx="678" cy="-409" rx="50.09" ry="18"/>
<text text-anchor="middle" x="678" y="-405.3" font-family="Times,serif" font-size="14.00">V565 (b)</text>
</g>
<!-- 13&#45;&gt;23 -->
<g id="edge24" class="edge">
<title>13&#45;&gt;23</title>
<path fill="none" stroke="black" stroke-dasharray="5,2" d="M678,-473.82C678,-463.19 678,-449.31 678,-437.2"/>
<polygon fill="black" stroke="black" points="681.5,-437.15 678,-427.15 674.5,-437.15 681.5,-437.15"/>
</g>
<!-- 25 -->
<g id="node27" class="node">
<title>25</title>
<ellipse fill="none" stroke="black" cx="796" cy="-409" rx="50.09" ry="18"/>
<text text-anchor="middle" x="796" y="-405.3" font-family="Times,serif" font-size="14.00">V560 (b)</text>
</g>
<!-- 13&#45;&gt;25 -->
<g id="edge26" class="edge">
<title>13&#45;&gt;25</title>
<path fill="none" stroke="black" stroke-width="2" d="M700.19,-475.76C718.65,-463.09 745.12,-444.93 765.56,-430.9"/>
<polygon fill="black" stroke="black" stroke-width="2" points="767.64,-433.71 773.9,-425.17 763.68,-427.94 767.64,-433.71"/>
<text text-anchor="middle" x="747.5" y="-448" font-family="Times,serif" font-size="10.00">3</text>
</g>
<!-- 14 -->
<g id="node16" class="node">
<title>14</title>
<ellipse fill="none" stroke="black" cx="786" cy="-492" rx="40.09" ry="18"/>
<text text-anchor="middle" x="786" y="-488.3" font-family="Times,serif" font-size="14.00">Pal (a)</text>
</g>
<!-- 14&#45;&gt;1 -->
<g id="edge2" class="edge">
<title>14&#45;&gt;1</title>
<path fill="none" stroke="gray" d="M808.3,-476.89C828.53,-464.09 858.62,-445.05 881.52,-430.55"/>
<polygon fill="gray" stroke="gray" points="883.65,-433.35 890.22,-425.05 879.9,-427.44 883.65,-433.35"/>
</g>
<!-- 15 -->
<g id="node17" class="node">
<title>15</title>
<ellipse fill="none" stroke="black" cx="1708" cy="-492" rx="50.09" ry="18"/>
<text text-anchor="middle" x="1708" y="-488.3" font-family="Times,serif" font-size="14.00">V571 (a)</text>
</g>
<!-- 16 -->
<g id="node18" class="node">
<title>16</title>
<ellipse fill="none" stroke="black" cx="1135" cy="-180" rx="40.89" ry="18"/>
<text text-anchor="middle" x="1135" y="-176.3" font-family="Times,serif" font-size="14.00">Sin (a)</text>
</g>
<!-- 31 -->
<g id="node33" class="node">
<title>31</title>
<ellipse fill="none" stroke="black" cx="1135" cy="-107" rx="50.09" ry="18"/>
<text text-anchor="middle" x="1135" y="-103.3" font-family="Times,serif" font-size="14.00">Marc (a)</text>
</g>
<!-- 16&#45;&gt;31 -->
<g id="edge32" class="edge">
<title>16&#45;&gt;31</title>
<path fill="none" stroke="black" stroke-dasharray="1,5" d="M1135,-161.81C1135,-153.79 1135,-144.05 1135,-135.07"/>
<polygon fill="black" stroke="black" points="1138.5,-135.03 1135,-125.03 1131.5,-135.03 1138.5,-135.03"/>
</g>
<!-- 17 -->
<g id="node19" class="node">
<title>17</title>
<ellipse fill="none" stroke="black" cx="671" cy="-575" rx="52.79" ry="18"/>
<text text-anchor="middle" x="671" y="-571.3" font-family="Times,serif" font-size="14.00">M136 (a)</text>
</g>
<!-- 17&#45;&gt;4 -->
<g id="edge5" class="edge">
<title>17&#45;&gt;4</title>
<path fill="none" stroke="gray" stroke-dasharray="5,2" d="M632.49,-562.61C624.76,-560.56 616.65,-558.58 609,-557 460.88,-526.5 419.61,-542.88 272,-510 268.16,-509.14 264.2,-508.15 260.25,-507.08"/>
<polygon fill="gray" stroke="gray" points="261.09,-503.68 250.51,-504.3 259.16,-510.41 261.09,-503.68"/>
</g>
<!-- 19 -->
<g id="node21" class="node">
<title>19</title>
<ellipse fill="none" stroke="black" cx="796" cy="-326" rx="55.79" ry="18"/>
<text text-anchor="middle" x="796" y="-322.3" font-family="Times,serif" font-size="14.00">V1920 (b)</text>
</g>
<!-- 20 -->
<g id="node22" class="node">
<title>20</title>
<ellipse fill="none" stroke="black" cx="786" cy="-575" rx="44.39" ry="18"/>
<text text-anchor="middle" x="786" y="-571.3" font-family="Times,serif" font-size="14.00">A25 (a)</text>
</g>
<!-- 20&#45;&gt;5 -->
<g id="edge6" class="edge">
<title>20&#45;&gt;5</title>
<path fill="none" stroke="black" stroke-dasharray="1,5" d="M753.76,-562.55C746.97,-560.46 739.8,-558.47 733,-557 664.78,-542.27 646.16,-548.35 577,-539 493.65,-527.73 472.13,-528.12 390,-510 385.9,-509.1 381.67,-508.07 377.44,-506.97"/>
<polygon fill="black" stroke="black" points="378.21,-503.56 367.64,-504.34 376.38,-510.32 378.21,-503.56"/>
</g>
<!-- 20&#45;&gt;7 -->
<g id="edge8" class="edge">
<title>20&#45;&gt;7</title>
<path fill="none" stroke="black" stroke-dasharray="5,2" d="M753.09,-562.8C746.48,-560.73 739.55,-558.69 733,-557 629.04,-530.11 599.96,-536.89 496,-510 492.62,-509.13 489.15,-508.16 485.66,-507.15"/>
<polygon fill="black" stroke="black" points="486.49,-503.74 475.91,-504.2 484.47,-510.44 486.49,-503.74"/>
</g>
<!-- 20&#45;&gt;9 -->
<g id="edge10" class="edge">
<title>20&#45;&gt;9</title>
<path fill="none" stroke="black" stroke-dasharray="5,2" d="M753.82,-562.57C714.45,-548.58 647.56,-524.82 603.08,-509.01"/>
<polygon fill="black" stroke="black" points="603.99,-505.62 593.39,-505.57 601.64,-512.22 603.99,-505.62"/>
<text text-anchor="middle" x="688.5" y="-531" font-family="Times,serif" font-size="10.00">2</text>
</g>
<!-- 20&#45;&gt;13 -->
<g id="edge14" class="edge">
<title>20&#45;&gt;13</title>
<path fill="none" stroke="blue" stroke-dasharray="1,5" d="M782,-556.82C779.01,-547.26 774.01,-535.76 766,-528 759.42,-521.63 741.91,-514.18 724.23,-507.79"/>
<polygon fill="blue" stroke="blue" points="725.05,-504.37 714.45,-504.37 722.73,-510.97 725.05,-504.37"/>
</g>
<!-- 20&#45;&gt;14 -->
<g id="edge15" class="edge">
<title>20&#45;&gt;14</title>
<path fill="none" stroke="black" stroke-dasharray="5,2" d="M786,-556.82C786,-546.19 786,-532.31 786,-520.2"/>
<polygon fill="black" stroke="black" points="789.5,-520.15 786,-510.15 782.5,-520.15 789.5,-520.15"/>
</g>
<!-- 30 -->
<g id="node32" class="node">
<title>30</title>
<ellipse fill="none" stroke="black" cx="888" cy="-492" rx="44.39" ry="18"/>
<text text-anchor="middle" x="888" y="-488.3" font-family="Times,serif" font-size="14.00">P01 (a)</text>
</g>
<!-- 20&#45;&gt;30 -->
<g id="edge31" class="edge">
<title>20&#45;&gt;30</title>
<path fill="none" stroke="black" stroke-dasharray="5,2" d="M805.19,-558.76C820.76,-546.4 842.92,-528.8 860.4,-514.92"/>
<polygon fill="black" stroke="black" points="862.9,-517.4 868.55,-508.44 858.55,-511.92 862.9,-517.4"/>
</g>
<!-- 39 -->
<g id="node41" class="node">
<title>39</title>
<ellipse fill="none" stroke="black" cx="1000" cy="-492" rx="50.09" ry="18"/>
<text text-anchor="middle" x="1000" y="-488.3" font-family="Times,serif" font-size="14.00">V566 (a)</text>
</g>
<!-- 20&#45;&gt;39 -->
<g id="edge39" class="edge">
<title>20&#45;&gt;39</title>
<path fill="none" stroke="black" stroke-dasharray="5,2" d="M817.58,-562.05C854.6,-548.03 916.15,-524.74 957.38,-509.13"/>
<polygon fill="black" stroke="black" points="958.77,-512.35 966.89,-505.53 956.29,-505.8 958.77,-512.35"/>
</g>
<!-- 28 -->
<g id="node30" class="node">
<title>28</title>
<ellipse fill="none" stroke="black" cx="324" cy="-326" rx="44.39" ry="18"/>
<text text-anchor="middle" x="324" y="-322.3" font-family="Times,serif" font-size="14.00">B39 (a)</text>
</g>
<!-- 21&#45;&gt;28 -->
<g id="edge29" class="edge">
<title>21&#45;&gt;28</title>
<path fill="none" stroke="black" stroke-dasharray="5,2" d="M324,-390.82C324,-380.19 324,-366.31 324,-354.2"/>
<polygon fill="black" stroke="black" points="327.5,-354.15 324,-344.15 320.5,-354.15 327.5,-354.15"/>
</g>
<!-- 22 -->
<g id="node24" class="node">
<title>22</title>
<ellipse fill="none" stroke="black" cx="1210" cy="-575" rx="50.09" ry="18"/>
<text text-anchor="middle" x="1210" y="-571.3" font-family="Times,serif" font-size="14.00">Neap (a)</text>
</g>
<!-- 22&#45;&gt;2 -->
<g id="edge3" class="edge">
<title>22&#45;&gt;2</title>
<path fill="none" stroke="gray" stroke-dasharray="5,2" d="M1190.72,-558.38C1175.4,-545.98 1153.81,-528.49 1136.81,-514.72"/>
<polygon fill="gray" stroke="gray" points="1138.86,-511.87 1128.88,-508.29 1134.45,-517.31 1138.86,-511.87"/>
</g>
<!-- 33 -->
<g id="node35" class="node">
<title>33</title>
<ellipse fill="none" stroke="gray" stroke-dasharray="5,2" cx="1210" cy="-492" rx="39.79" ry="18"/>
<text text-anchor="middle" x="1210" y="-488.3" font-family="Times,serif" font-size="14.00">Taur&#45;c</text>
</g>
<!-- 22&#45;&gt;33 -->
<g id="edge33" class="edge">
<title>22&#45;&gt;33</title>
<path fill="none" stroke="gray" stroke-width="2" d="M1210,-556.82C1210,-546.19 1210,-532.31 1210,-520.2"/>
<polygon fill="gray" stroke="gray" stroke-width="2" points="1213.5,-520.15 1210,-510.15 1206.5,-520.15 1213.5,-520.15"/>
</g>
<!-- 34 -->
<g id="node36" class="node">
<title>34</title>
<ellipse fill="none" stroke="black" cx="1324" cy="-492" rx="55.79" ry="18"/>
<text text-anchor="middle" x="1324" y="-488.3" font-family="Times,serif" font-size="14.00">V1629 (a)</text>
</g>
<!-- 22&#45;&gt;34 -->
<g id="edge34" class="edge">
<title>22&#45;&gt;34</title>
<path fill="none" stroke="black" stroke-dasharray="1,5" d="M1231.71,-558.57C1249.27,-546.1 1274.19,-528.39 1293.71,-514.52"/>
<polygon fill="black" stroke="black" points="1295.86,-517.29 1301.98,-508.64 1291.8,-511.58 1295.86,-517.29"/>
</g>
<!-- 24 -->
<g id="node26" class="node">
<title>24</title>
<ellipse fill="none" stroke="black" cx="1584" cy="-409" rx="41.69" ry="18"/>
<text text-anchor="middle" x="1584" y="-405.3" font-family="Times,serif" font-size="14.00">Est (a)</text>
</g>
<!-- 25&#45;&gt;19 -->
<g id="edge20" class="edge">
<title>25&#45;&gt;19</title>
<path fill="none" stroke="black" stroke-dasharray="5,2" d="M796,-390.82C796,-380.19 796,-366.31 796,-354.2"/>
<polygon fill="black" stroke="black" points="799.5,-354.15 796,-344.15 792.5,-354.15 799.5,-354.15"/>
</g>
<!-- 26 -->
<g id="node28" class="node">
<title>26</title>
<ellipse fill="none" stroke="gray" stroke-dasharray="5,2" cx="1348" cy="-409" rx="36" ry="18"/>
<text text-anchor="middle" x="1348" y="-405.3" font-family="Times,serif" font-size="14.00">La2&#45;c</text>
</g>
<!-- 27 -->
<g id="node29" class="node">
<title>27</title>
<ellipse fill="none" stroke="black" cx="1350" cy="-575" rx="44.69" ry="18"/>
<text text-anchor="middle" x="1350" y="-571.3" font-family="Times,serif" font-size="14.00">Nan (a)</text>
</g>
<!-- 27&#45;&gt;8 -->
<g id="edge9" class="edge">
<title>27&#45;&gt;8</title>
<path fill="none" stroke="blue" stroke-dasharray="5,2" d="M1369.56,-558.76C1385.24,-546.56 1407.46,-529.25 1425.17,-515.45"/>
<polygon fill="blue" stroke="blue" points="1427.72,-517.9 1433.46,-509 1423.42,-512.38 1427.72,-517.9"/>
</g>
<!-- 35 -->
<g id="node37" class="node">
<title>35</title>
<ellipse fill="none" stroke="black" cx="1584" cy="-492" rx="55.79" ry="18"/>
<text text-anchor="middle" x="1584" y="-488.3" font-family="Times,serif" font-size="14.00">V1897 (a)</text>
</g>
<!-- 27&#45;&gt;35 -->
<g id="edge35" class="edge">
<title>27&#45;&gt;35</title>
<path fill="none" stroke="black" stroke-dasharray="1,5" d="M1381.74,-562.19C1407.37,-552.73 1444.41,-539.23 1477,-528 1496.27,-521.36 1517.59,-514.33 1536.09,-508.32"/>
<polygon fill="black" stroke="black" points="1537.34,-511.59 1545.77,-505.18 1535.18,-504.93 1537.34,-511.59"/>
</g>
<!-- 42 -->
<g id="node44" class="node">
<title>42</title>
<ellipse fill="none" stroke="black" cx="1135" cy="-34" rx="46.29" ry="18"/>
<text text-anchor="middle" x="1135" y="-30.3" font-family="Times,serif" font-size="14.00">Mon (a)</text>
</g>
<!-- 31&#45;&gt;42 -->
<g id="edge42" class="edge">
<title>31&#45;&gt;42</title>
<path fill="none" stroke="black" stroke-dasharray="1,5" d="M1135,-88.81C1135,-80.79 1135,-71.05 1135,-62.07"/>
<polygon fill="black" stroke="black" points="1138.5,-62.03 1135,-52.03 1131.5,-62.03 1138.5,-62.03"/>
</g>
<!-- 32 -->
<g id="node34" class="node">
<title>32</title>
<ellipse fill="none" stroke="black" cx="1210" cy="-659" rx="53.89" ry="18"/>
<text text-anchor="middle" x="1210" y="-655.3" font-family="Times,serif" font-size="14.00">aBase (a)</text>
</g>
<!-- 32&#45;&gt;11 -->
<g id="edge12" class="edge">
<title>32&#45;&gt;11</title>
<path fill="none" stroke="black" stroke-width="2" d="M1156.26,-656.32C1050.33,-652.1 807.58,-637.96 609,-593 605.41,-592.19 601.71,-591.23 598.02,-590.19"/>
<polygon fill="black" stroke="black" stroke-width="2" points="598.94,-586.81 588.36,-587.29 596.93,-593.52 598.94,-586.81"/>
</g>
<!-- 32&#45;&gt;17 -->
<g id="edge18" class="edge">
<title>32&#45;&gt;17</title>
<path fill="none" stroke="black" stroke-width="2" d="M1158.8,-653.27C1071.05,-644.66 886.54,-624.37 733,-593 728.57,-592.1 724,-591.05 719.43,-589.94"/>
<polygon fill="black" stroke="black" stroke-width="2" points="720.06,-586.49 709.51,-587.41 718.33,-593.27 720.06,-586.49"/>
</g>
<!-- 32&#45;&gt;20 -->
<g id="edge21" class="edge">
<title>32&#45;&gt;20</title>
<path fill="none" stroke="black" stroke-dasharray="5,2" d="M1164.62,-649.22C1084.34,-633.7 917.91,-601.51 835.06,-585.49"/>
<polygon fill="black" stroke="black" points="835.63,-582.03 825.15,-583.57 834.3,-588.91 835.63,-582.03"/>
</g>
<!-- 32&#45;&gt;22 -->
<g id="edge23" class="edge">
<title>32&#45;&gt;22</title>
<path fill="none" stroke="black" stroke-width="2" d="M1210,-640.61C1210,-629.77 1210,-615.6 1210,-603.29"/>
<polygon fill="black" stroke="black" stroke-width="2" points="1213.5,-603.08 1210,-593.08 1206.5,-603.08 1213.5,-603.08"/>
</g>
<!-- 32&#45;&gt;27 -->
<g id="edge28" class="edge">
<title>32&#45;&gt;27</title>
<path fill="none" stroke="black" d="M1235.68,-642.96C1258.46,-629.62 1291.87,-610.05 1316.7,-595.5"/>
<polygon fill="black" stroke="black" points="1318.56,-598.47 1325.42,-590.39 1315.03,-592.43 1318.56,-598.47"/>
</g>
<!-- 36 -->
<g id="node38" class="node">
<title>36</title>
<ellipse fill="none" stroke="black" cx="1457" cy="-575" rx="44.39" ry="18"/>
<text text-anchor="middle" x="1457" y="-571.3" font-family="Times,serif" font-size="14.00">P74 (a)</text>
</g>
<!-- 32&#45;&gt;36 -->
<g id="edge36" class="edge">
<title>32&#45;&gt;36</title>
<path fill="none" stroke="black" d="M1246.98,-645.72C1291.71,-630.87 1366.86,-605.92 1414.1,-590.24"/>
<polygon fill="black" stroke="black" points="1415.34,-593.52 1423.73,-587.04 1413.14,-586.87 1415.34,-593.52"/>
<text text-anchor="middle" x="1351.5" y="-614" font-family="Times,serif" font-size="10.00">2</text>
</g>
<!-- 43 -->
<g id="node45" class="node">
<title>43</title>
<ellipse fill="none" stroke="black" cx="1569" cy="-575" rx="50.09" ry="18"/>
<text text-anchor="middle" x="1569" y="-571.3" font-family="Times,serif" font-size="14.00">S249 (a)</text>
</g>
<!-- 32&#45;&gt;43 -->
<g id="edge43" class="edge">
<title>32&#45;&gt;43</title>
<path fill="none" stroke="black" d="M1255.45,-649.14C1314.42,-637.42 1420.34,-615.6 1510,-593 1513.84,-592.03 1517.82,-590.98 1521.8,-589.9"/>
<polygon fill="black" stroke="black" points="1522.95,-593.22 1531.65,-587.17 1521.08,-586.47 1522.95,-593.22"/>
</g>
<!-- 34&#45;&gt;10 -->
<g id="edge11" class="edge">
<title>34&#45;&gt;10</title>
<path fill="none" stroke="black" stroke-dasharray="5,2" d="M1307.81,-474.61C1296.13,-462.78 1280.2,-446.65 1267.17,-433.46"/>
<polygon fill="black" stroke="black" points="1269.41,-430.75 1259.89,-426.09 1264.43,-435.67 1269.41,-430.75"/>
</g>
<!-- 34&#45;&gt;26 -->
<g id="edge27" class="edge">
<title>34&#45;&gt;26</title>
<path fill="none" stroke="gray" stroke-width="2" d="M1329.09,-473.82C1332.29,-463.01 1336.49,-448.84 1340.12,-436.59"/>
<polygon fill="gray" stroke="gray" stroke-width="2" points="1343.51,-437.46 1343,-426.88 1336.8,-435.47 1343.51,-437.46"/>
</g>
<!-- 35&#45;&gt;24 -->
<g id="edge25" class="edge">
<title>35&#45;&gt;24</title>
<path fill="none" stroke="black" stroke-dasharray="1,5" d="M1584,-473.82C1584,-463.19 1584,-449.31 1584,-437.2"/>
<polygon fill="black" stroke="black" points="1587.5,-437.15 1584,-427.15 1580.5,-437.15 1587.5,-437.15"/>
</g>
<!-- 36&#45;&gt;15 -->
<g id="edge16" class="edge">
<title>36&#45;&gt;15</title>
<path fill="none" stroke="black" stroke-dasharray="1,5" d="M1490.59,-563.16C1534.71,-548.92 1612.36,-523.86 1661.94,-507.86"/>
<polygon fill="black" stroke="black" points="1663.32,-511.1 1671.76,-504.69 1661.17,-504.43 1663.32,-511.1"/>
<text text-anchor="middle" x="1600.5" y="-531" font-family="Times,serif" font-size="10.00">2</text>
</g>
<!-- 37 -->
<g id="node39" class="node">
<title>37</title>
<ellipse fill="none" stroke="black" cx="1244" cy="-180" rx="50.09" ry="18"/>
<text text-anchor="middle" x="1244" y="-176.3" font-family="Times,serif" font-size="14.00">V569 (a)</text>
</g>
<!-- 38&#45;&gt;16 -->
<g id="edge17" class="edge">
<title>38&#45;&gt;16</title>
<path fill="none" stroke="black" stroke-dasharray="1,5" d="M1221.15,-237.12C1205.1,-226.66 1183.43,-212.55 1165.85,-201.09"/>
<polygon fill="black" stroke="black" points="1167.36,-197.9 1157.08,-195.38 1163.54,-203.77 1167.36,-197.9"/>
</g>
<!-- 38&#45;&gt;37 -->
<g id="edge37" class="edge">
<title>38&#45;&gt;37</title>
<path fill="none" stroke="black" stroke-dasharray="5,2" d="M1244,-234.81C1244,-226.79 1244,-217.05 1244,-208.07"/>
<polygon fill="black" stroke="black" points="1247.5,-208.03 1244,-198.03 1240.5,-208.03 1247.5,-208.03"/>
</g>
<!-- 44 -->
<g id="node46" class="node">
<title>44</title>
<ellipse fill="none" stroke="black" cx="1365" cy="-180" rx="52.79" ry="18"/>
<text text-anchor="middle" x="1365" y="-176.3" font-family="Times,serif" font-size="14.00">M118 (a)</text>
</g>
<!-- 38&#45;&gt;44 -->
<g id="edge44" class="edge">
<title>38&#45;&gt;44</title>
<path fill="none" stroke="black" stroke-dasharray="5,2" d="M1268.49,-237.63C1286.45,-227.09 1311.08,-212.64 1330.96,-200.97"/>
<polygon fill="black" stroke="black" points="1332.86,-203.91 1339.72,-195.84 1329.32,-197.88 1332.86,-203.91"/>
</g>
<!-- 45 -->
<g id="node47" class="node">
<title>45</title>
<ellipse fill="none" stroke="black" cx="1038" cy="-409" rx="55.79" ry="18"/>
<text text-anchor="middle" x="1038" y="-405.3" font-family="Times,serif" font-size="14.00">V1639 (a)</text>
</g>
<!-- 39&#45;&gt;45 -->
<g id="edge45" class="edge">
<title>39&#45;&gt;45</title>
<path fill="none" stroke="black" stroke-dasharray="1,5" d="M1007.87,-474.22C1013.04,-463.21 1019.89,-448.6 1025.76,-436.1"/>
<polygon fill="black" stroke="black" points="1028.93,-437.58 1030.01,-427.04 1022.59,-434.61 1028.93,-437.58"/>
</g>
<!-- 40 -->
<g id="node42" class="node">
<title>40</title>
<ellipse fill="none" stroke="black" cx="1365" cy="-107" rx="44.39" ry="18"/>
<text text-anchor="middle" x="1365" y="-103.3" font-family="Times,serif" font-size="14.00">P18 (a)</text>
</g>
<!-- 44&#45;&gt;40 -->
<g id="edge40" class="edge">
<title>44&#45;&gt;40</title>
<path fill="none" stroke="black" stroke-dasharray="5,2" d="M1365,-161.81C1365,-153.79 1365,-144.05 1365,-135.07"/>
<polygon fill="black" stroke="black" points="1368.5,-135.03 1365,-125.03 1361.5,-135.03 1368.5,-135.03"/>
</g>
</g>
</svg>
