<?xml version="1.0" encoding="UTF-8" standalone="no"?>
<!DOCTYPE svg PUBLIC "-//W3C//DTD SVG 1.1//EN"
 "http://www.w3.org/Graphics/SVG/1.1/DTD/svg11.dtd">
<!-- Generated by graphviz version 2.43.0 (0)
 -->
<!-- Title: textual_flow Pages: 1 -->
<svg width="1783pt" height="838pt"
 viewBox="0.00 0.00 1783.00 838.00" xmlns="http://www.w3.org/2000/svg" xmlns:xlink="http://www.w3.org/1999/xlink">
<g id="graph0" class="graph" transform="scale(1 1) rotate(0) translate(4 834)">
<title>textual_flow</title>
<polygon fill="white" stroke="transparent" points="-4,4 -4,-834 1779,-834 1779,4 -4,4"/>
<g id="clust1" class="cluster">
<title>cluster_legend</title>
<polygon fill="none" stroke="black" points="8,-768 8,-822 186,-822 186,-768 8,-768"/>
</g>
<g id="clust2" class="cluster">
<title>cluster_plot</title>
</g>
<!-- label -->
<g id="node1" class="node">
<title>label</title>
<text text-anchor="middle" x="97" y="-798.8" font-family="Times,serif" font-size="14.00">adstag1.3.71U58&#45;62</text>
<text text-anchor="middle" x="97" y="-783.8" font-family="Times,serif" font-size="14.00">Con = 5</text>
</g>
<!-- 0 -->
<g id="node2" class="node">
<title>0</title>
<ellipse fill="none" stroke="black" cx="1450" cy="-545" rx="50.89" ry="18"/>
<text text-anchor="middle" x="1450" y="-541.3" font-family="Times,serif" font-size="14.00">Neap (b)</text>
</g>
<!-- 19 -->
<g id="node21" class="node">
<title>19</title>
<ellipse fill="none" stroke="black" cx="1450" cy="-472" rx="55.79" ry="18"/>
<text text-anchor="middle" x="1450" y="-468.3" font-family="Times,serif" font-size="14.00">V1629 (b)</text>
</g>
<!-- 0&#45;&gt;19 -->
<g id="edge20" class="edge">
<title>0&#45;&gt;19</title>
<path fill="none" stroke="black" stroke-dasharray="1,5" d="M1450,-526.81C1450,-518.79 1450,-509.05 1450,-500.07"/>
<polygon fill="black" stroke="black" points="1453.5,-500.03 1450,-490.03 1446.5,-500.03 1453.5,-500.03"/>
</g>
<!-- 1 -->
<g id="node3" class="node">
<title>1</title>
<ellipse fill="none" stroke="black" cx="723" cy="-628" rx="50.09" ry="18"/>
<text text-anchor="middle" x="723" y="-624.3" font-family="Times,serif" font-size="14.00">Patm (b)</text>
</g>
<!-- 2 -->
<g id="node4" class="node">
<title>2</title>
<ellipse fill="none" stroke="black" cx="1410" cy="-326" rx="50.09" ry="18"/>
<text text-anchor="middle" x="1410" y="-322.3" font-family="Times,serif" font-size="14.00">V568 (b)</text>
</g>
<!-- 21 -->
<g id="node23" class="node">
<title>21</title>
<ellipse fill="none" stroke="black" cx="1410" cy="-253" rx="47.39" ry="18"/>
<text text-anchor="middle" x="1410" y="-249.3" font-family="Times,serif" font-size="14.00">Taur (b)</text>
</g>
<!-- 2&#45;&gt;21 -->
<g id="edge21" class="edge">
<title>2&#45;&gt;21</title>
<path fill="none" stroke="black" stroke-dasharray="1,5" d="M1410,-307.81C1410,-299.79 1410,-290.05 1410,-281.07"/>
<polygon fill="black" stroke="black" points="1413.5,-281.03 1410,-271.03 1406.5,-281.03 1413.5,-281.03"/>
</g>
<!-- 3 -->
<g id="node5" class="node">
<title>3</title>
<ellipse fill="none" stroke="black" cx="246" cy="-545" rx="44.39" ry="18"/>
<text text-anchor="middle" x="246" y="-541.3" font-family="Times,serif" font-size="14.00">P74 (b)</text>
</g>
<!-- 4 -->
<g id="node6" class="node">
<title>4</title>
<ellipse fill="none" stroke="black" cx="1410" cy="-107" rx="46.59" ry="18"/>
<text text-anchor="middle" x="1410" y="-103.3" font-family="Times,serif" font-size="14.00">Mon (b)</text>
</g>
<!-- 23 -->
<g id="node25" class="node">
<title>23</title>
<ellipse fill="none" stroke="black" cx="1410" cy="-34" rx="41.69" ry="18"/>
<text text-anchor="middle" x="1410" y="-30.3" font-family="Times,serif" font-size="14.00">Sin (b)</text>
</g>
<!-- 4&#45;&gt;23 -->
<g id="edge23" class="edge">
<title>4&#45;&gt;23</title>
<path fill="none" stroke="black" stroke-dasharray="1,5" d="M1410,-88.81C1410,-80.79 1410,-71.05 1410,-62.07"/>
<polygon fill="black" stroke="black" points="1413.5,-62.03 1410,-52.03 1406.5,-62.03 1413.5,-62.03"/>
</g>
<!-- 5 -->
<g id="node7" class="node">
<title>5</title>
<ellipse fill="none" stroke="black" cx="840" cy="-628" rx="49.29" ry="18"/>
<text text-anchor="middle" x="840" y="-624.3" font-family="Times,serif" font-size="14.00">La22 (b)</text>
</g>
<!-- 5&#45;&gt;3 -->
<g id="edge4" class="edge">
<title>5&#45;&gt;3</title>
<path fill="none" stroke="black" stroke-dasharray="1,5" d="M804.71,-615.34C797.28,-613.26 789.44,-611.33 782,-610 667.1,-589.46 636.14,-603.6 520,-592 421.43,-582.16 395.67,-584.66 299,-563 295.39,-562.19 291.68,-561.25 287.98,-560.22"/>
<polygon fill="black" stroke="black" points="288.84,-556.83 278.26,-557.36 286.87,-563.54 288.84,-556.83"/>
</g>
<!-- 6 -->
<g id="node8" class="node">
<title>6</title>
<ellipse fill="none" stroke="black" cx="358" cy="-545" rx="50.09" ry="18"/>
<text text-anchor="middle" x="358" y="-541.3" font-family="Times,serif" font-size="14.00">V565 (b)</text>
</g>
<!-- 5&#45;&gt;6 -->
<g id="edge7" class="edge">
<title>5&#45;&gt;6</title>
<path fill="none" stroke="black" stroke-dasharray="5,2" d="M804.35,-615.49C797.02,-613.42 789.31,-611.46 782,-610 710.53,-595.7 691.3,-601.18 619,-592 529.02,-580.58 505.68,-582.05 417,-563 412.9,-562.12 408.66,-561.11 404.43,-560.02"/>
<polygon fill="black" stroke="black" points="405.19,-556.6 394.62,-557.4 403.38,-563.37 405.19,-556.6"/>
</g>
<!-- 9 -->
<g id="node11" class="node">
<title>9</title>
<ellipse fill="none" stroke="black" cx="475" cy="-545" rx="49.29" ry="18"/>
<text text-anchor="middle" x="475" y="-541.3" font-family="Times,serif" font-size="14.00">La35 (b)</text>
</g>
<!-- 5&#45;&gt;9 -->
<g id="edge10" class="edge">
<title>5&#45;&gt;9</title>
<path fill="none" stroke="black" stroke-dasharray="1,5" d="M803.64,-615.75C796.5,-613.71 789.04,-611.69 782,-610 672.5,-583.69 642.5,-589.31 533,-563 529.15,-562.07 525.18,-561.05 521.2,-559.98"/>
<polygon fill="black" stroke="black" points="521.93,-556.56 511.36,-557.25 520.06,-563.3 521.93,-556.56"/>
</g>
<!-- 13 -->
<g id="node15" class="node">
<title>13</title>
<ellipse fill="none" stroke="black" cx="598" cy="-545" rx="55.79" ry="18"/>
<text text-anchor="middle" x="598" y="-541.3" font-family="Times,serif" font-size="14.00">V2036 (b)</text>
</g>
<!-- 5&#45;&gt;13 -->
<g id="edge14" class="edge">
<title>5&#45;&gt;13</title>
<path fill="none" stroke="black" stroke-dasharray="5,2" d="M804.81,-615.22C762.59,-601.09 691.64,-577.34 644.82,-561.67"/>
<polygon fill="black" stroke="black" points="645.81,-558.31 635.22,-558.46 643.59,-564.95 645.81,-558.31"/>
<text text-anchor="middle" x="736.5" y="-584" font-family="Times,serif" font-size="10.00">2</text>
</g>
<!-- 14 -->
<g id="node16" class="node">
<title>14</title>
<ellipse fill="none" stroke="black" cx="722" cy="-545" rx="50.09" ry="18"/>
<text text-anchor="middle" x="722" y="-541.3" font-family="Times,serif" font-size="14.00">V571 (b)</text>
</g>
<!-- 5&#45;&gt;14 -->
<g id="edge15" class="edge">
<title>5&#45;&gt;14</title>
<path fill="none" stroke="black" stroke-dasharray="1,5" d="M817.81,-611.76C799.35,-599.09 772.88,-580.93 752.44,-566.9"/>
<polygon fill="black" stroke="black" points="754.32,-563.94 744.1,-561.17 750.36,-569.71 754.32,-563.94"/>
</g>
<!-- 24 -->
<g id="node26" class="node">
<title>24</title>
<ellipse fill="none" stroke="black" cx="840" cy="-545" rx="50.09" ry="18"/>
<text text-anchor="middle" x="840" y="-541.3" font-family="Times,serif" font-size="14.00">A116 (b)</text>
</g>
<!-- 5&#45;&gt;24 -->
<g id="edge24" class="edge">
<title>5&#45;&gt;24</title>
<path fill="none" stroke="black" stroke-dasharray="5,2" d="M840,-609.82C840,-599.19 840,-585.31 840,-573.2"/>
<polygon fill="black" stroke="black" points="843.5,-573.15 840,-563.15 836.5,-573.15 843.5,-573.15"/>
</g>
<!-- 32 -->
<g id="node34" class="node">
<title>32</title>
<ellipse fill="none" stroke="black" cx="955" cy="-545" rx="47.39" ry="18"/>
<text text-anchor="middle" x="955" y="-541.3" font-family="Times,serif" font-size="14.00">Bodl (b)</text>
</g>
<!-- 5&#45;&gt;32 -->
<g id="edge32" class="edge">
<title>5&#45;&gt;32</title>
<path fill="none" stroke="black" stroke-dasharray="5,2" d="M861.63,-611.76C879.54,-599.15 905.18,-581.09 925.06,-567.09"/>
<polygon fill="black" stroke="black" points="927.31,-569.79 933.47,-561.17 923.28,-564.06 927.31,-569.79"/>
</g>
<!-- 37 -->
<g id="node39" class="node">
<title>37</title>
<ellipse fill="none" stroke="black" cx="1074" cy="-545" rx="53.09" ry="18"/>
<text text-anchor="middle" x="1074" y="-541.3" font-family="Times,serif" font-size="14.00">M111 (b)</text>
</g>
<!-- 5&#45;&gt;37 -->
<g id="edge37" class="edge">
<title>5&#45;&gt;37</title>
<path fill="none" stroke="black" stroke-dasharray="1,5" d="M874.53,-615.05C915.39,-600.9 983.56,-577.31 1028.65,-561.7"/>
<polygon fill="black" stroke="black" points="1029.87,-564.98 1038.18,-558.4 1027.58,-558.36 1029.87,-564.98"/>
</g>
<!-- 7 -->
<g id="node9" class="node">
<title>7</title>
<ellipse fill="none" stroke="black" cx="1292" cy="-180" rx="50.09" ry="18"/>
<text text-anchor="middle" x="1292" y="-176.3" font-family="Times,serif" font-size="14.00">V569 (b)</text>
</g>
<!-- 8 -->
<g id="node10" class="node">
<title>8</title>
<ellipse fill="none" stroke="black" cx="1201" cy="-545" rx="55.79" ry="18"/>
<text text-anchor="middle" x="1201" y="-541.3" font-family="Times,serif" font-size="14.00">V1639 (b)</text>
</g>
<!-- 10 -->
<g id="node12" class="node">
<title>10</title>
<ellipse fill="none" stroke="black" cx="1328" cy="-545" rx="53.09" ry="18"/>
<text text-anchor="middle" x="1328" y="-541.3" font-family="Times,serif" font-size="14.00">LaSM (b)</text>
</g>
<!-- 25 -->
<g id="node27" class="node">
<title>25</title>
<ellipse fill="none" stroke="black" cx="1328" cy="-472" rx="44.69" ry="18"/>
<text text-anchor="middle" x="1328" y="-468.3" font-family="Times,serif" font-size="14.00">B39 (b)</text>
</g>
<!-- 10&#45;&gt;25 -->
<g id="edge25" class="edge">
<title>10&#45;&gt;25</title>
<path fill="none" stroke="black" stroke-dasharray="5,2" d="M1328,-526.81C1328,-518.79 1328,-509.05 1328,-500.07"/>
<polygon fill="black" stroke="black" points="1331.5,-500.03 1328,-490.03 1324.5,-500.03 1331.5,-500.03"/>
</g>
<!-- 11 -->
<g id="node13" class="node">
<title>11</title>
<ellipse fill="none" stroke="black" cx="1095" cy="-628" rx="44.39" ry="18"/>
<text text-anchor="middle" x="1095" y="-624.3" font-family="Times,serif" font-size="14.00">S32 (b)</text>
</g>
<!-- 12 -->
<g id="node14" class="node">
<title>12</title>
<ellipse fill="none" stroke="black" cx="1207" cy="-628" rx="50.09" ry="18"/>
<text text-anchor="middle" x="1207" y="-624.3" font-family="Times,serif" font-size="14.00">V566 (b)</text>
</g>
<!-- 12&#45;&gt;8 -->
<g id="edge9" class="edge">
<title>12&#45;&gt;8</title>
<path fill="none" stroke="black" stroke-dasharray="1,5" d="M1205.73,-609.82C1204.94,-599.19 1203.91,-585.31 1203.02,-573.2"/>
<polygon fill="black" stroke="black" points="1206.5,-572.87 1202.27,-563.15 1199.52,-573.38 1206.5,-572.87"/>
</g>
<!-- 15 -->
<g id="node17" class="node">
<title>15</title>
<ellipse fill="none" stroke="black" cx="737" cy="-711" rx="50.09" ry="18"/>
<text text-anchor="middle" x="737" y="-707.3" font-family="Times,serif" font-size="14.00">V560 (a)</text>
</g>
<!-- 18 -->
<g id="node20" class="node">
<title>18</title>
<ellipse fill="none" stroke="black" cx="599" cy="-628" rx="55.79" ry="18"/>
<text text-anchor="middle" x="599" y="-624.3" font-family="Times,serif" font-size="14.00">V1920 (a)</text>
</g>
<!-- 15&#45;&gt;18 -->
<g id="edge19" class="edge">
<title>15&#45;&gt;18</title>
<path fill="none" stroke="black" stroke-dasharray="5,2" d="M712.01,-695.33C690.11,-682.48 658.05,-663.66 633.67,-649.35"/>
<polygon fill="black" stroke="black" points="635.14,-646.15 624.74,-644.11 631.59,-652.19 635.14,-646.15"/>
</g>
<!-- 16 -->
<g id="node18" class="node">
<title>16</title>
<ellipse fill="none" stroke="black" cx="989" cy="-711" rx="51.99" ry="18"/>
<text text-anchor="middle" x="989" y="-707.3" font-family="Times,serif" font-size="14.00">M136 (c)</text>
</g>
<!-- 17 -->
<g id="node19" class="node">
<title>17</title>
<ellipse fill="none" stroke="black" cx="1326" cy="-628" rx="44.39" ry="18"/>
<text text-anchor="middle" x="1326" y="-624.3" font-family="Times,serif" font-size="14.00">P01 (b)</text>
</g>
<!-- 17&#45;&gt;10 -->
<g id="edge11" class="edge">
<title>17&#45;&gt;10</title>
<path fill="none" stroke="black" stroke-dasharray="5,2" d="M1326.42,-609.82C1326.69,-599.19 1327.03,-585.31 1327.33,-573.2"/>
<polygon fill="black" stroke="black" points="1330.83,-573.24 1327.58,-563.15 1323.83,-573.06 1330.83,-573.24"/>
<text text-anchor="middle" x="1330.5" y="-584" font-family="Times,serif" font-size="10.00">2</text>
</g>
<!-- 34 -->
<g id="node36" class="node">
<title>34</title>
<ellipse fill="none" stroke="black" cx="1410" cy="-399" rx="50.09" ry="18"/>
<text text-anchor="middle" x="1410" y="-395.3" font-family="Times,serif" font-size="14.00">V536 (b)</text>
</g>
<!-- 19&#45;&gt;34 -->
<g id="edge34" class="edge">
<title>19&#45;&gt;34</title>
<path fill="none" stroke="black" stroke-dasharray="5,2" d="M1440.52,-454.17C1435.69,-445.6 1429.71,-434.99 1424.33,-425.44"/>
<polygon fill="black" stroke="black" points="1427.37,-423.7 1419.41,-416.71 1421.27,-427.14 1427.37,-423.7"/>
</g>
<!-- 36 -->
<g id="node38" class="node">
<title>36</title>
<ellipse fill="none" stroke="gray" stroke-dasharray="5,2" cx="1514" cy="-399" rx="36" ry="18"/>
<text text-anchor="middle" x="1514" y="-395.3" font-family="Times,serif" font-size="14.00">La2&#45;c</text>
</g>
<!-- 19&#45;&gt;36 -->
<g id="edge36" class="edge">
<title>19&#45;&gt;36</title>
<path fill="none" stroke="gray" stroke-width="2" d="M1464.84,-454.53C1473.2,-445.26 1483.77,-433.53 1492.97,-423.33"/>
<polygon fill="gray" stroke="gray" stroke-width="2" points="1495.58,-425.66 1499.68,-415.89 1490.38,-420.97 1495.58,-425.66"/>
</g>
<!-- 20 -->
<g id="node22" class="node">
<title>20</title>
<ellipse fill="none" stroke="black" cx="1154" cy="-795" rx="53.89" ry="18"/>
<text text-anchor="middle" x="1154" y="-791.3" font-family="Times,serif" font-size="14.00">aBase (a)</text>
</g>
<!-- 20&#45;&gt;15 -->
<g id="edge16" class="edge">
<title>20&#45;&gt;15</title>
<path fill="none" stroke="black" stroke-width="2" d="M1108.58,-785.07C1030.77,-769.77 872.39,-738.62 789.79,-722.38"/>
<polygon fill="black" stroke="black" stroke-width="2" points="790.35,-718.92 779.86,-720.43 789,-725.79 790.35,-718.92"/>
</g>
<!-- 20&#45;&gt;16 -->
<g id="edge17" class="edge">
<title>20&#45;&gt;16</title>
<path fill="none" stroke="blue" stroke-width="2" d="M1125.26,-779.72C1097.93,-766.14 1056.67,-745.63 1026.71,-730.74"/>
<polygon fill="blue" stroke="blue" stroke-width="2" points="1027.92,-727.44 1017.41,-726.12 1024.81,-733.7 1027.92,-727.44"/>
</g>
<!-- 29 -->
<g id="node31" class="node">
<title>29</title>
<ellipse fill="none" stroke="black" cx="1102" cy="-711" rx="42.79" ry="18"/>
<text text-anchor="middle" x="1102" y="-707.3" font-family="Times,serif" font-size="14.00">La2 (a)</text>
</g>
<!-- 20&#45;&gt;29 -->
<g id="edge29" class="edge">
<title>20&#45;&gt;29</title>
<path fill="none" stroke="black" stroke-width="2" d="M1143.23,-777.01C1135.93,-765.5 1126.15,-750.09 1117.96,-737.16"/>
<polygon fill="black" stroke="black" stroke-width="2" points="1120.89,-735.26 1112.58,-728.69 1114.98,-739.01 1120.89,-735.26"/>
</g>
<!-- 33 -->
<g id="node35" class="node">
<title>33</title>
<ellipse fill="none" stroke="black" cx="1207" cy="-711" rx="44.39" ry="18"/>
<text text-anchor="middle" x="1207" y="-707.3" font-family="Times,serif" font-size="14.00">A25 (b)</text>
</g>
<!-- 20&#45;&gt;33 -->
<g id="edge33" class="edge">
<title>20&#45;&gt;33</title>
<path fill="none" stroke="blue" stroke-dasharray="5,2" d="M1164.98,-777.01C1172.42,-765.5 1182.38,-750.09 1190.74,-737.16"/>
<polygon fill="blue" stroke="blue" points="1193.72,-738.99 1196.21,-728.69 1187.85,-735.19 1193.72,-738.99"/>
</g>
<!-- 38 -->
<g id="node40" class="node">
<title>38</title>
<ellipse fill="none" stroke="gray" stroke-dasharray="5,2" cx="1319" cy="-711" rx="50.09" ry="18"/>
<text text-anchor="middle" x="1319" y="-707.3" font-family="Times,serif" font-size="14.00">Savile&#45;Η</text>
</g>
<!-- 20&#45;&gt;38 -->
<g id="edge38" class="edge">
<title>20&#45;&gt;38</title>
<path fill="none" stroke="gray" stroke-width="2" d="M1182.74,-779.72C1210.15,-766.09 1251.59,-745.5 1281.57,-730.6"/>
<polygon fill="gray" stroke="gray" stroke-width="2" points="1283.47,-733.57 1290.86,-725.98 1280.35,-727.3 1283.47,-733.57"/>
</g>
<!-- 40 -->
<g id="node42" class="node">
<title>40</title>
<ellipse fill="none" stroke="black" cx="1430" cy="-711" rx="42.79" ry="18"/>
<text text-anchor="middle" x="1430" y="-707.3" font-family="Times,serif" font-size="14.00">Bas (a)</text>
</g>
<!-- 20&#45;&gt;40 -->
<g id="edge40" class="edge">
<title>20&#45;&gt;40</title>
<path fill="none" stroke="black" stroke-width="2" d="M1194.18,-782.78C1239.1,-770.13 1313.96,-748.75 1378,-729 1381.13,-728.03 1384.36,-727.02 1387.61,-725.99"/>
<polygon fill="black" stroke="black" stroke-width="2" points="1388.87,-729.26 1397.32,-722.87 1386.73,-722.59 1388.87,-729.26"/>
<text text-anchor="middle" x="1319.5" y="-750" font-family="Times,serif" font-size="10.00">3</text>
</g>
<!-- 21&#45;&gt;7 -->
<g id="edge8" class="edge">
<title>21&#45;&gt;7</title>
<path fill="none" stroke="black" stroke-dasharray="5,2" d="M1385.84,-237.46C1368.37,-226.95 1344.57,-212.63 1325.3,-201.04"/>
<polygon fill="black" stroke="black" points="1326.91,-197.92 1316.54,-195.76 1323.3,-203.92 1326.91,-197.92"/>
</g>
<!-- 30 -->
<g id="node32" class="node">
<title>30</title>
<ellipse fill="none" stroke="black" cx="1410" cy="-180" rx="50.09" ry="18"/>
<text text-anchor="middle" x="1410" y="-176.3" font-family="Times,serif" font-size="14.00">Marc (b)</text>
</g>
<!-- 21&#45;&gt;30 -->
<g id="edge30" class="edge">
<title>21&#45;&gt;30</title>
<path fill="none" stroke="black" stroke-dasharray="1,5" d="M1410,-234.81C1410,-226.79 1410,-217.05 1410,-208.07"/>
<polygon fill="black" stroke="black" points="1413.5,-208.03 1410,-198.03 1406.5,-208.03 1413.5,-208.03"/>
</g>
<!-- 39 -->
<g id="node41" class="node">
<title>39</title>
<ellipse fill="none" stroke="black" cx="1531" cy="-180" rx="53.09" ry="18"/>
<text text-anchor="middle" x="1531" y="-176.3" font-family="Times,serif" font-size="14.00">M118 (b)</text>
</g>
<!-- 21&#45;&gt;39 -->
<g id="edge39" class="edge">
<title>21&#45;&gt;39</title>
<path fill="none" stroke="black" stroke-dasharray="5,2" d="M1434.78,-237.46C1452.65,-226.98 1476.99,-212.69 1496.72,-201.11"/>
<polygon fill="black" stroke="black" points="1498.57,-204.09 1505.42,-196.01 1495.02,-198.05 1498.57,-204.09"/>
</g>
<!-- 22 -->
<g id="node24" class="node">
<title>22</title>
<ellipse fill="none" stroke="black" cx="1445" cy="-628" rx="45.49" ry="18"/>
<text text-anchor="middle" x="1445" y="-624.3" font-family="Times,serif" font-size="14.00">Nan (b)</text>
</g>
<!-- 22&#45;&gt;0 -->
<g id="edge1" class="edge">
<title>22&#45;&gt;0</title>
<path fill="none" stroke="black" d="M1446.06,-609.82C1446.72,-599.19 1447.57,-585.31 1448.32,-573.2"/>
<polygon fill="black" stroke="black" points="1451.82,-573.35 1448.94,-563.15 1444.83,-572.92 1451.82,-573.35"/>
<text text-anchor="middle" x="1450.5" y="-584" font-family="Times,serif" font-size="10.00">3</text>
</g>
<!-- 26 -->
<g id="node28" class="node">
<title>26</title>
<ellipse fill="none" stroke="black" cx="1575" cy="-545" rx="55.79" ry="18"/>
<text text-anchor="middle" x="1575" y="-541.3" font-family="Times,serif" font-size="14.00">V1897 (b)</text>
</g>
<!-- 22&#45;&gt;26 -->
<g id="edge26" class="edge">
<title>22&#45;&gt;26</title>
<path fill="none" stroke="black" stroke-dasharray="1,5" d="M1468.24,-612.52C1488.62,-599.82 1518.48,-581.22 1541.45,-566.91"/>
<polygon fill="black" stroke="black" points="1543.55,-569.72 1550.19,-561.46 1539.85,-563.78 1543.55,-569.72"/>
</g>
<!-- 27 -->
<g id="node29" class="node">
<title>27</title>
<ellipse fill="none" stroke="black" cx="1704" cy="-545" rx="55.49" ry="18"/>
<text text-anchor="middle" x="1704" y="-541.3" font-family="Times,serif" font-size="14.00">V2250 (c)</text>
</g>
<!-- 22&#45;&gt;27 -->
<g id="edge27" class="edge">
<title>22&#45;&gt;27</title>
<path fill="none" stroke="blue" stroke-dasharray="5,2" d="M1479.66,-616.16C1524.89,-602.01 1604.29,-577.18 1655.48,-561.17"/>
<polygon fill="blue" stroke="blue" points="1656.83,-564.42 1665.32,-558.1 1654.74,-557.74 1656.83,-564.42"/>
</g>
<!-- 35 -->
<g id="node37" class="node">
<title>35</title>
<ellipse fill="none" stroke="black" cx="1575" cy="-472" rx="42.49" ry="18"/>
<text text-anchor="middle" x="1575" y="-468.3" font-family="Times,serif" font-size="14.00">Est (b)</text>
</g>
<!-- 26&#45;&gt;35 -->
<g id="edge35" class="edge">
<title>26&#45;&gt;35</title>
<path fill="none" stroke="black" stroke-dasharray="1,5" d="M1575,-526.81C1575,-518.79 1575,-509.05 1575,-500.07"/>
<polygon fill="black" stroke="black" points="1578.5,-500.03 1575,-490.03 1571.5,-500.03 1578.5,-500.03"/>
</g>
<!-- 28 -->
<g id="node30" class="node">
<title>28</title>
<ellipse fill="none" stroke="gray" stroke-dasharray="5,2" cx="1531" cy="-107" rx="28.7" ry="18"/>
<text text-anchor="middle" x="1531" y="-103.3" font-family="Times,serif" font-size="14.00">P18</text>
</g>
<!-- 30&#45;&gt;4 -->
<g id="edge5" class="edge">
<title>30&#45;&gt;4</title>
<path fill="none" stroke="black" stroke-dasharray="1,5" d="M1410,-161.81C1410,-153.79 1410,-144.05 1410,-135.07"/>
<polygon fill="black" stroke="black" points="1413.5,-135.03 1410,-125.03 1406.5,-135.03 1413.5,-135.03"/>
</g>
<!-- 31 -->
<g id="node33" class="node">
<title>31</title>
<ellipse fill="none" stroke="black" cx="1549" cy="-628" rx="40.09" ry="18"/>
<text text-anchor="middle" x="1549" y="-624.3" font-family="Times,serif" font-size="14.00">Pal (b)</text>
</g>
<!-- 33&#45;&gt;1 -->
<g id="edge2" class="edge">
<title>33&#45;&gt;1</title>
<path fill="none" stroke="black" stroke-dasharray="1,5" d="M1174.75,-698.61C1167.96,-696.51 1160.79,-694.5 1154,-693 1113.32,-683.99 822.81,-654.4 782,-646 777.83,-645.14 773.53,-644.14 769.23,-643.05"/>
<polygon fill="black" stroke="black" points="769.85,-639.6 759.29,-640.41 768.05,-646.36 769.85,-639.6"/>
<text text-anchor="middle" x="1020.5" y="-667" font-family="Times,serif" font-size="10.00">2</text>
</g>
<!-- 33&#45;&gt;5 -->
<g id="edge6" class="edge">
<title>33&#45;&gt;5</title>
<path fill="none" stroke="black" stroke-dasharray="1,5" d="M1174.08,-698.83C1167.47,-696.76 1160.54,-694.71 1154,-693 1063.63,-669.37 956.73,-649.21 893.86,-638.13"/>
<polygon fill="black" stroke="black" points="894.23,-634.64 883.78,-636.36 893.02,-641.53 894.23,-634.64"/>
<text text-anchor="middle" x="1080.5" y="-667" font-family="Times,serif" font-size="10.00">2</text>
</g>
<!-- 33&#45;&gt;11 -->
<g id="edge12" class="edge">
<title>33&#45;&gt;11</title>
<path fill="none" stroke="black" stroke-dasharray="5,2" d="M1186.2,-694.95C1168.67,-682.28 1143.42,-664.02 1123.92,-649.92"/>
<polygon fill="black" stroke="black" points="1125.85,-646.99 1115.69,-643.97 1121.74,-652.66 1125.85,-646.99"/>
</g>
<!-- 33&#45;&gt;12 -->
<g id="edge13" class="edge">
<title>33&#45;&gt;12</title>
<path fill="none" stroke="black" stroke-dasharray="5,2" d="M1207,-692.82C1207,-682.19 1207,-668.31 1207,-656.2"/>
<polygon fill="black" stroke="black" points="1210.5,-656.15 1207,-646.15 1203.5,-656.15 1210.5,-656.15"/>
</g>
<!-- 33&#45;&gt;17 -->
<g id="edge18" class="edge">
<title>33&#45;&gt;17</title>
<path fill="none" stroke="black" stroke-dasharray="5,2" d="M1228.83,-695.14C1247.61,-682.36 1274.91,-663.77 1295.8,-649.56"/>
<polygon fill="black" stroke="black" points="1298.01,-652.28 1304.31,-643.76 1294.08,-646.5 1298.01,-652.28"/>
</g>
<!-- 33&#45;&gt;22 -->
<g id="edge22" class="edge">
<title>33&#45;&gt;22</title>
<path fill="none" stroke="black" stroke-dasharray="5,2" d="M1240.09,-698.74C1282.31,-684.37 1355.4,-659.49 1401.92,-643.66"/>
<polygon fill="black" stroke="black" points="1403.08,-646.96 1411.42,-640.43 1400.83,-640.34 1403.08,-646.96"/>
<text text-anchor="middle" x="1343.5" y="-667" font-family="Times,serif" font-size="10.00">2</text>
</g>
<!-- 33&#45;&gt;31 -->
<g id="edge31" class="edge">
<title>33&#45;&gt;31</title>
<path fill="none" stroke="black" stroke-dasharray="5,2" d="M1239.91,-698.79C1246.52,-696.72 1253.45,-694.69 1260,-693 1273.1,-689.62 1485.93,-649.49 1499,-646 1502.33,-645.11 1505.77,-644.11 1509.2,-643.06"/>
<polygon fill="black" stroke="black" points="1510.33,-646.38 1518.79,-639.99 1508.2,-639.71 1510.33,-646.38"/>
</g>
<!-- 42 -->
<g id="node44" class="node">
<title>42</title>
<ellipse fill="none" stroke="black" cx="1657" cy="-628" rx="50.09" ry="18"/>
<text text-anchor="middle" x="1657" y="-624.3" font-family="Times,serif" font-size="14.00">S249 (b)</text>
</g>
<!-- 33&#45;&gt;42 -->
<g id="edge42" class="edge">
<title>33&#45;&gt;42</title>
<path fill="none" stroke="black" stroke-dasharray="5,2" d="M1239.27,-698.68C1246.06,-696.57 1253.22,-694.55 1260,-693 1296.97,-684.57 1560.91,-653.88 1598,-646 1602.11,-645.13 1606.34,-644.12 1610.58,-643.04"/>
<polygon fill="black" stroke="black" points="1611.62,-646.39 1620.38,-640.43 1609.82,-639.62 1611.62,-646.39"/>
<text text-anchor="middle" x="1467.5" y="-667" font-family="Times,serif" font-size="10.00">2</text>
</g>
<!-- 34&#45;&gt;2 -->
<g id="edge3" class="edge">
<title>34&#45;&gt;2</title>
<path fill="none" stroke="black" stroke-dasharray="1,5" d="M1410,-380.81C1410,-372.79 1410,-363.05 1410,-354.07"/>
<polygon fill="black" stroke="black" points="1413.5,-354.03 1410,-344.03 1406.5,-354.03 1413.5,-354.03"/>
</g>
<!-- 41 -->
<g id="node43" class="node">
<title>41</title>
<ellipse fill="none" stroke="black" cx="1074" cy="-472" rx="50.09" ry="18"/>
<text text-anchor="middle" x="1074" y="-468.3" font-family="Times,serif" font-size="14.00">A336 (b)</text>
</g>
<!-- 37&#45;&gt;41 -->
<g id="edge41" class="edge">
<title>37&#45;&gt;41</title>
<path fill="none" stroke="black" stroke-dasharray="5,2" d="M1074,-526.81C1074,-518.79 1074,-509.05 1074,-500.07"/>
<polygon fill="black" stroke="black" points="1077.5,-500.03 1074,-490.03 1070.5,-500.03 1077.5,-500.03"/>
</g>
<!-- 39&#45;&gt;28 -->
<g id="edge28" class="edge">
<title>39&#45;&gt;28</title>
<path fill="none" stroke="gray" stroke-dasharray="5,2" d="M1531,-161.81C1531,-153.79 1531,-144.05 1531,-135.07"/>
<polygon fill="gray" stroke="gray" points="1534.5,-135.03 1531,-125.03 1527.5,-135.03 1534.5,-135.03"/>
</g>
</g>
</svg>
