<?xml version="1.0" encoding="UTF-8" standalone="no"?>
<!DOCTYPE svg PUBLIC "-//W3C//DTD SVG 1.1//EN"
 "http://www.w3.org/Graphics/SVG/1.1/DTD/svg11.dtd">
<!-- Generated by graphviz version 2.43.0 (0)
 -->
<!-- Title: textual_flow Pages: 1 -->
<svg width="1835pt" height="848pt"
 viewBox="0.00 0.00 1835.00 848.00" xmlns="http://www.w3.org/2000/svg" xmlns:xlink="http://www.w3.org/1999/xlink">
<g id="graph0" class="graph" transform="scale(1 1) rotate(0) translate(4 844)">
<title>textual_flow</title>
<polygon fill="white" stroke="transparent" points="-4,4 -4,-844 1831,-844 1831,4 -4,4"/>
<g id="clust1" class="cluster">
<title>cluster_legend</title>
<polygon fill="none" stroke="black" points="8,-778 8,-832 168,-832 168,-778 8,-778"/>
</g>
<g id="clust2" class="cluster">
<title>cluster_plot</title>
</g>
<!-- label -->
<g id="node1" class="node">
<title>label</title>
<text text-anchor="middle" x="88" y="-808.8" font-family="Times,serif" font-size="14.00">adstag1.3.22U4&#45;6</text>
<text text-anchor="middle" x="88" y="-793.8" font-family="Times,serif" font-size="14.00">Con = 3</text>
</g>
<!-- 0 -->
<g id="node2" class="node">
<title>0</title>
<ellipse fill="none" stroke="black" cx="479" cy="-555" rx="53.09" ry="18"/>
<text text-anchor="middle" x="479" y="-551.3" font-family="Times,serif" font-size="14.00">M136 (d)</text>
</g>
<!-- 34 -->
<g id="node36" class="node">
<title>34</title>
<ellipse fill="none" stroke="black" cx="480" cy="-472" rx="50.89" ry="18"/>
<text text-anchor="middle" x="480" y="-468.3" font-family="Times,serif" font-size="14.00">Neap (d)</text>
</g>
<!-- 0&#45;&gt;34 -->
<g id="edge34" class="edge">
<title>0&#45;&gt;34</title>
<path fill="none" stroke="black" stroke-dasharray="5,2" d="M479.21,-536.82C479.34,-526.19 479.51,-512.31 479.66,-500.2"/>
<polygon fill="black" stroke="black" points="483.16,-500.2 479.79,-490.15 476.16,-500.11 483.16,-500.2"/>
<text text-anchor="middle" x="482.5" y="-511" font-family="Times,serif" font-size="10.00">2</text>
</g>
<!-- 1 -->
<g id="node3" class="node">
<title>1</title>
<ellipse fill="none" stroke="gray" stroke-dasharray="5,2" cx="635" cy="-721" rx="50.09" ry="18"/>
<text text-anchor="middle" x="635" y="-717.3" font-family="Times,serif" font-size="14.00">Savile&#45;Η</text>
</g>
<!-- 2 -->
<g id="node4" class="node">
<title>2</title>
<ellipse fill="none" stroke="black" cx="747" cy="-721" rx="44.39" ry="18"/>
<text text-anchor="middle" x="747" y="-717.3" font-family="Times,serif" font-size="14.00">Nan (c)</text>
</g>
<!-- 22 -->
<g id="node24" class="node">
<title>22</title>
<ellipse fill="none" stroke="black" cx="465" cy="-638" rx="55.49" ry="18"/>
<text text-anchor="middle" x="465" y="-634.3" font-family="Times,serif" font-size="14.00">V2250 (c)</text>
</g>
<!-- 2&#45;&gt;22 -->
<g id="edge22" class="edge">
<title>2&#45;&gt;22</title>
<path fill="none" stroke="black" stroke-dasharray="5,2" d="M713.7,-709.11C707.18,-707.03 700.39,-704.92 694,-703 633.22,-684.77 562.86,-665.35 516.35,-652.75"/>
<polygon fill="black" stroke="black" points="517.07,-649.32 506.51,-650.09 515.25,-656.08 517.07,-649.32"/>
</g>
<!-- 3 -->
<g id="node5" class="node">
<title>3</title>
<ellipse fill="none" stroke="black" cx="582" cy="-638" rx="44.39" ry="18"/>
<text text-anchor="middle" x="582" y="-634.3" font-family="Times,serif" font-size="14.00">S32 (d)</text>
</g>
<!-- 4 -->
<g id="node6" class="node">
<title>4</title>
<ellipse fill="none" stroke="gray" stroke-dasharray="5,2" cx="440" cy="-326" rx="36" ry="18"/>
<text text-anchor="middle" x="440" y="-322.3" font-family="Times,serif" font-size="14.00">La2&#45;c</text>
</g>
<!-- 5 -->
<g id="node7" class="node">
<title>5</title>
<ellipse fill="none" stroke="black" cx="602" cy="-555" rx="51.99" ry="18"/>
<text text-anchor="middle" x="602" y="-551.3" font-family="Times,serif" font-size="14.00">M111 (c)</text>
</g>
<!-- 33 -->
<g id="node35" class="node">
<title>33</title>
<ellipse fill="none" stroke="black" cx="602" cy="-472" rx="49.29" ry="18"/>
<text text-anchor="middle" x="602" y="-468.3" font-family="Times,serif" font-size="14.00">A336 (c)</text>
</g>
<!-- 5&#45;&gt;33 -->
<g id="edge33" class="edge">
<title>5&#45;&gt;33</title>
<path fill="none" stroke="black" stroke-dasharray="5,2" d="M602,-536.82C602,-526.19 602,-512.31 602,-500.2"/>
<polygon fill="black" stroke="black" points="605.5,-500.15 602,-490.15 598.5,-500.15 605.5,-500.15"/>
</g>
<!-- 6 -->
<g id="node8" class="node">
<title>6</title>
<ellipse fill="none" stroke="black" cx="688" cy="-638" rx="44.39" ry="18"/>
<text text-anchor="middle" x="688" y="-634.3" font-family="Times,serif" font-size="14.00">P01 (d)</text>
</g>
<!-- 15 -->
<g id="node17" class="node">
<title>15</title>
<ellipse fill="none" stroke="black" cx="237" cy="-555" rx="53.09" ry="18"/>
<text text-anchor="middle" x="237" y="-551.3" font-family="Times,serif" font-size="14.00">LaSM (d)</text>
</g>
<!-- 6&#45;&gt;15 -->
<g id="edge16" class="edge">
<title>6&#45;&gt;15</title>
<path fill="none" stroke="black" stroke-dasharray="5,2" d="M655.74,-625.62C648.95,-623.52 641.79,-621.51 635,-620 573.77,-606.36 557.14,-610.59 495,-602 407.77,-589.94 385.17,-591.12 299,-573 294.64,-572.08 290.14,-571.04 285.64,-569.93"/>
<polygon fill="black" stroke="black" points="286.41,-566.52 275.85,-567.42 284.67,-573.3 286.41,-566.52"/>
<text text-anchor="middle" x="498.5" y="-594" font-family="Times,serif" font-size="10.00">2</text>
</g>
<!-- 7 -->
<g id="node9" class="node">
<title>7</title>
<ellipse fill="none" stroke="black" cx="800" cy="-638" rx="50.09" ry="18"/>
<text text-anchor="middle" x="800" y="-634.3" font-family="Times,serif" font-size="14.00">Patm (d)</text>
</g>
<!-- 16 -->
<g id="node18" class="node">
<title>16</title>
<ellipse fill="none" stroke="black" cx="358" cy="-555" rx="50.09" ry="18"/>
<text text-anchor="middle" x="358" y="-551.3" font-family="Times,serif" font-size="14.00">V560 (d)</text>
</g>
<!-- 7&#45;&gt;16 -->
<g id="edge17" class="edge">
<title>7&#45;&gt;16</title>
<path fill="none" stroke="black" stroke-width="2" d="M763.73,-625.51C756.27,-623.44 748.42,-621.48 741,-620 670.81,-606.04 651.82,-612.24 581,-602 507.74,-591.41 489.11,-589.71 417,-573 412.97,-572.07 408.81,-571.02 404.64,-569.93"/>
<polygon fill="black" stroke="black" stroke-width="2" points="405.55,-566.55 394.98,-567.3 403.71,-573.3 405.55,-566.55"/>
<text text-anchor="middle" x="584.5" y="-594" font-family="Times,serif" font-size="10.00">2</text>
</g>
<!-- 8 -->
<g id="node10" class="node">
<title>8</title>
<ellipse fill="none" stroke="gray" stroke-dasharray="5,2" cx="366" cy="-34" rx="28.7" ry="18"/>
<text text-anchor="middle" x="366" y="-30.3" font-family="Times,serif" font-size="14.00">P18</text>
</g>
<!-- 9 -->
<g id="node11" class="node">
<title>9</title>
<ellipse fill="none" stroke="black" cx="237" cy="-472" rx="44.69" ry="18"/>
<text text-anchor="middle" x="237" y="-468.3" font-family="Times,serif" font-size="14.00">B39 (d)</text>
</g>
<!-- 10 -->
<g id="node12" class="node">
<title>10</title>
<ellipse fill="none" stroke="black" cx="480" cy="-399" rx="55.79" ry="18"/>
<text text-anchor="middle" x="480" y="-395.3" font-family="Times,serif" font-size="14.00">V1629 (d)</text>
</g>
<!-- 10&#45;&gt;4 -->
<g id="edge5" class="edge">
<title>10&#45;&gt;4</title>
<path fill="none" stroke="gray" stroke-width="2" d="M470.52,-381.17C465.69,-372.6 459.71,-361.99 454.33,-352.44"/>
<polygon fill="gray" stroke="gray" stroke-width="2" points="457.37,-350.7 449.41,-343.71 451.27,-354.14 457.37,-350.7"/>
</g>
<!-- 27 -->
<g id="node29" class="node">
<title>27</title>
<ellipse fill="none" stroke="black" cx="544" cy="-326" rx="50.09" ry="18"/>
<text text-anchor="middle" x="544" y="-322.3" font-family="Times,serif" font-size="14.00">V536 (e)</text>
</g>
<!-- 10&#45;&gt;27 -->
<g id="edge27" class="edge">
<title>10&#45;&gt;27</title>
<path fill="none" stroke="blue" stroke-dasharray="5,2" d="M494.84,-381.53C503,-372.48 513.27,-361.09 522.31,-351.06"/>
<polygon fill="blue" stroke="blue" points="525.14,-353.15 529.24,-343.38 519.94,-348.46 525.14,-353.15"/>
</g>
<!-- 11 -->
<g id="node13" class="node">
<title>11</title>
<ellipse fill="none" stroke="black" cx="722" cy="-555" rx="50.09" ry="18"/>
<text text-anchor="middle" x="722" y="-551.3" font-family="Times,serif" font-size="14.00">A116 (d)</text>
</g>
<!-- 12 -->
<g id="node14" class="node">
<title>12</title>
<ellipse fill="none" stroke="black" cx="366" cy="-107" rx="52.79" ry="18"/>
<text text-anchor="middle" x="366" y="-103.3" font-family="Times,serif" font-size="14.00">M118 (e)</text>
</g>
<!-- 12&#45;&gt;8 -->
<g id="edge9" class="edge">
<title>12&#45;&gt;8</title>
<path fill="none" stroke="gray" stroke-dasharray="5,2" d="M366,-88.81C366,-80.79 366,-71.05 366,-62.07"/>
<polygon fill="gray" stroke="gray" points="369.5,-62.03 366,-52.03 362.5,-62.03 369.5,-62.03"/>
</g>
<!-- 13 -->
<g id="node15" class="node">
<title>13</title>
<ellipse fill="none" stroke="black" cx="1639" cy="-555" rx="42.49" ry="18"/>
<text text-anchor="middle" x="1639" y="-551.3" font-family="Times,serif" font-size="14.00">Est (d)</text>
</g>
<!-- 14 -->
<g id="node16" class="node">
<title>14</title>
<ellipse fill="none" stroke="black" cx="908" cy="-638" rx="40.09" ry="18"/>
<text text-anchor="middle" x="908" y="-634.3" font-family="Times,serif" font-size="14.00">Pal (d)</text>
</g>
<!-- 15&#45;&gt;9 -->
<g id="edge10" class="edge">
<title>15&#45;&gt;9</title>
<path fill="none" stroke="black" stroke-dasharray="5,2" d="M237,-536.82C237,-526.19 237,-512.31 237,-500.2"/>
<polygon fill="black" stroke="black" points="240.5,-500.15 237,-490.15 233.5,-500.15 240.5,-500.15"/>
</g>
<!-- 17 -->
<g id="node19" class="node">
<title>17</title>
<ellipse fill="none" stroke="black" cx="356" cy="-472" rx="55.49" ry="18"/>
<text text-anchor="middle" x="356" y="-468.3" font-family="Times,serif" font-size="14.00">V1920 (c)</text>
</g>
<!-- 16&#45;&gt;17 -->
<g id="edge18" class="edge">
<title>16&#45;&gt;17</title>
<path fill="none" stroke="blue" stroke-dasharray="5,2" d="M357.58,-536.82C357.31,-526.19 356.97,-512.31 356.67,-500.2"/>
<polygon fill="blue" stroke="blue" points="360.17,-500.06 356.42,-490.15 353.17,-500.24 360.17,-500.06"/>
</g>
<!-- 18 -->
<g id="node20" class="node">
<title>18</title>
<ellipse fill="none" stroke="black" cx="834" cy="-555" rx="43.59" ry="18"/>
<text text-anchor="middle" x="834" y="-551.3" font-family="Times,serif" font-size="14.00">La2 (d)</text>
</g>
<!-- 19 -->
<g id="node21" class="node">
<title>19</title>
<ellipse fill="none" stroke="black" cx="853" cy="-721" rx="44.39" ry="18"/>
<text text-anchor="middle" x="853" y="-717.3" font-family="Times,serif" font-size="14.00">A25 (d)</text>
</g>
<!-- 19&#45;&gt;3 -->
<g id="edge4" class="edge">
<title>19&#45;&gt;3</title>
<path fill="none" stroke="black" stroke-dasharray="5,2" d="M819.69,-709.13C813.17,-707.06 806.38,-704.93 800,-703 727.02,-680.91 707.98,-678.09 635,-656 631.71,-655 628.31,-653.96 624.9,-652.89"/>
<polygon fill="black" stroke="black" points="625.9,-649.54 615.31,-649.87 623.79,-656.21 625.9,-649.54"/>
</g>
<!-- 19&#45;&gt;6 -->
<g id="edge7" class="edge">
<title>19&#45;&gt;6</title>
<path fill="none" stroke="black" stroke-dasharray="5,2" d="M825.75,-706.62C797.96,-692.98 754.7,-671.74 724.08,-656.71"/>
<polygon fill="black" stroke="black" points="725.53,-653.53 715.01,-652.26 722.45,-659.81 725.53,-653.53"/>
</g>
<!-- 19&#45;&gt;7 -->
<g id="edge8" class="edge">
<title>19&#45;&gt;7</title>
<path fill="none" stroke="black" stroke-dasharray="1,5" d="M842.02,-703.22C834.7,-692.03 824.94,-677.12 816.67,-664.48"/>
<polygon fill="black" stroke="black" points="819.37,-662.21 810.97,-655.76 813.51,-666.05 819.37,-662.21"/>
</g>
<!-- 19&#45;&gt;14 -->
<g id="edge15" class="edge">
<title>19&#45;&gt;14</title>
<path fill="none" stroke="black" stroke-dasharray="5,2" d="M864.4,-703.22C872.12,-691.85 882.45,-676.63 891.12,-663.86"/>
<polygon fill="black" stroke="black" points="894.08,-665.72 896.81,-655.48 888.29,-661.79 894.08,-665.72"/>
</g>
<!-- 26 -->
<g id="node28" class="node">
<title>26</title>
<ellipse fill="none" stroke="black" cx="1016" cy="-638" rx="49.29" ry="18"/>
<text text-anchor="middle" x="1016" y="-634.3" font-family="Times,serif" font-size="14.00">La22 (d)</text>
</g>
<!-- 19&#45;&gt;26 -->
<g id="edge26" class="edge">
<title>19&#45;&gt;26</title>
<path fill="none" stroke="black" stroke-dasharray="1,5" d="M879.92,-706.62C906.84,-693.24 948.48,-672.55 978.61,-657.58"/>
<polygon fill="black" stroke="black" points="980.55,-660.52 987.95,-652.94 977.44,-654.25 980.55,-660.52"/>
<text text-anchor="middle" x="947.5" y="-677" font-family="Times,serif" font-size="10.00">2</text>
</g>
<!-- 30 -->
<g id="node32" class="node">
<title>30</title>
<ellipse fill="none" stroke="black" cx="1152" cy="-638" rx="55.79" ry="18"/>
<text text-anchor="middle" x="1152" y="-634.3" font-family="Times,serif" font-size="14.00">V1897 (d)</text>
</g>
<!-- 19&#45;&gt;30 -->
<g id="edge30" class="edge">
<title>19&#45;&gt;30</title>
<path fill="none" stroke="black" stroke-dasharray="5,2" d="M886.27,-709.01C892.79,-706.95 899.6,-704.86 906,-703 972.02,-683.84 1048.77,-664.3 1098.76,-651.94"/>
<polygon fill="black" stroke="black" points="1099.82,-655.28 1108.7,-649.49 1098.15,-648.48 1099.82,-655.28"/>
<text text-anchor="middle" x="1009.5" y="-677" font-family="Times,serif" font-size="10.00">3</text>
</g>
<!-- 35 -->
<g id="node37" class="node">
<title>35</title>
<ellipse fill="none" stroke="black" cx="1282" cy="-638" rx="50.09" ry="18"/>
<text text-anchor="middle" x="1282" y="-634.3" font-family="Times,serif" font-size="14.00">V566 (d)</text>
</g>
<!-- 19&#45;&gt;35 -->
<g id="edge35" class="edge">
<title>19&#45;&gt;35</title>
<path fill="none" stroke="black" stroke-dasharray="5,2" d="M885.57,-708.65C892.27,-706.57 899.32,-704.57 906,-703 940.03,-695.03 1182.77,-663.04 1217,-656 1222.43,-654.88 1228.08,-653.6 1233.68,-652.24"/>
<polygon fill="black" stroke="black" points="1234.81,-655.57 1243.66,-649.75 1233.11,-648.77 1234.81,-655.57"/>
</g>
<!-- 20 -->
<g id="node22" class="node">
<title>20</title>
<ellipse fill="none" stroke="black" cx="853" cy="-805" rx="53.89" ry="18"/>
<text text-anchor="middle" x="853" y="-801.3" font-family="Times,serif" font-size="14.00">aBase (a)</text>
</g>
<!-- 20&#45;&gt;1 -->
<g id="edge2" class="edge">
<title>20&#45;&gt;1</title>
<path fill="none" stroke="gray" stroke-width="2" d="M818.46,-791.01C780.33,-776.67 718.93,-753.57 677.79,-738.1"/>
<polygon fill="gray" stroke="gray" stroke-width="2" points="678.9,-734.77 668.31,-734.53 676.44,-741.33 678.9,-734.77"/>
</g>
<!-- 20&#45;&gt;2 -->
<g id="edge3" class="edge">
<title>20&#45;&gt;2</title>
<path fill="none" stroke="blue" d="M832.56,-788.19C816.08,-775.44 792.73,-757.37 774.58,-743.34"/>
<polygon fill="blue" stroke="blue" points="776.71,-740.56 766.66,-737.21 772.43,-746.09 776.71,-740.56"/>
</g>
<!-- 20&#45;&gt;19 -->
<g id="edge20" class="edge">
<title>20&#45;&gt;19</title>
<path fill="none" stroke="blue" stroke-dasharray="5,2" d="M853,-786.61C853,-775.77 853,-761.6 853,-749.29"/>
<polygon fill="blue" stroke="blue" points="856.5,-749.08 853,-739.08 849.5,-749.08 856.5,-749.08"/>
</g>
<!-- 38 -->
<g id="node40" class="node">
<title>38</title>
<ellipse fill="none" stroke="black" cx="965" cy="-721" rx="50.09" ry="18"/>
<text text-anchor="middle" x="965" y="-717.3" font-family="Times,serif" font-size="14.00">S249 (b)</text>
</g>
<!-- 20&#45;&gt;38 -->
<g id="edge38" class="edge">
<title>20&#45;&gt;38</title>
<path fill="none" stroke="blue" d="M874.33,-788.38C891.69,-775.67 916.38,-757.6 935.61,-743.52"/>
<polygon fill="blue" stroke="blue" points="937.75,-746.29 943.75,-737.56 933.61,-740.64 937.75,-746.29"/>
</g>
<!-- 41 -->
<g id="node43" class="node">
<title>41</title>
<ellipse fill="none" stroke="black" cx="1076" cy="-721" rx="42.79" ry="18"/>
<text text-anchor="middle" x="1076" y="-717.3" font-family="Times,serif" font-size="14.00">Bas (a)</text>
</g>
<!-- 20&#45;&gt;41 -->
<g id="edge41" class="edge">
<title>20&#45;&gt;41</title>
<path fill="none" stroke="black" stroke-width="2" d="M887.84,-791.19C927.73,-776.52 992.99,-752.52 1035.22,-737"/>
<polygon fill="black" stroke="black" stroke-width="2" points="1036.46,-740.27 1044.64,-733.53 1034.05,-733.7 1036.46,-740.27"/>
<text text-anchor="middle" x="980.5" y="-760" font-family="Times,serif" font-size="10.00">3</text>
</g>
<!-- 21 -->
<g id="node23" class="node">
<title>21</title>
<ellipse fill="none" stroke="black" cx="544" cy="-253" rx="50.09" ry="18"/>
<text text-anchor="middle" x="544" y="-249.3" font-family="Times,serif" font-size="14.00">V568 (e)</text>
</g>
<!-- 25 -->
<g id="node27" class="node">
<title>25</title>
<ellipse fill="none" stroke="black" cx="544" cy="-180" rx="46.59" ry="18"/>
<text text-anchor="middle" x="544" y="-176.3" font-family="Times,serif" font-size="14.00">Taur (e)</text>
</g>
<!-- 21&#45;&gt;25 -->
<g id="edge25" class="edge">
<title>21&#45;&gt;25</title>
<path fill="none" stroke="black" stroke-dasharray="1,5" d="M544,-234.81C544,-226.79 544,-217.05 544,-208.07"/>
<polygon fill="black" stroke="black" points="547.5,-208.03 544,-198.03 540.5,-208.03 547.5,-208.03"/>
</g>
<!-- 23 -->
<g id="node25" class="node">
<title>23</title>
<ellipse fill="none" stroke="black" cx="951" cy="-555" rx="55.79" ry="18"/>
<text text-anchor="middle" x="951" y="-551.3" font-family="Times,serif" font-size="14.00">V2036 (d)</text>
</g>
<!-- 24 -->
<g id="node26" class="node">
<title>24</title>
<ellipse fill="none" stroke="black" cx="1074" cy="-555" rx="49.29" ry="18"/>
<text text-anchor="middle" x="1074" y="-551.3" font-family="Times,serif" font-size="14.00">La35 (d)</text>
</g>
<!-- 25&#45;&gt;12 -->
<g id="edge13" class="edge">
<title>25&#45;&gt;12</title>
<path fill="none" stroke="black" stroke-dasharray="5,2" d="M512.59,-166.47C483.64,-154.93 440.46,-137.7 408.45,-124.93"/>
<polygon fill="black" stroke="black" points="409.49,-121.58 398.91,-121.13 406.9,-128.08 409.49,-121.58"/>
</g>
<!-- 28 -->
<g id="node30" class="node">
<title>28</title>
<ellipse fill="none" stroke="black" cx="485" cy="-107" rx="48.19" ry="18"/>
<text text-anchor="middle" x="485" y="-103.3" font-family="Times,serif" font-size="14.00">Marc (f)</text>
</g>
<!-- 25&#45;&gt;28 -->
<g id="edge28" class="edge">
<title>25&#45;&gt;28</title>
<path fill="none" stroke="blue" stroke-dasharray="1,5" d="M530.32,-162.53C522.87,-153.57 513.51,-142.31 505.24,-132.36"/>
<polygon fill="blue" stroke="blue" points="507.69,-129.83 498.61,-124.38 502.31,-134.31 507.69,-129.83"/>
</g>
<!-- 32 -->
<g id="node34" class="node">
<title>32</title>
<ellipse fill="none" stroke="black" cx="601" cy="-107" rx="50.09" ry="18"/>
<text text-anchor="middle" x="601" y="-103.3" font-family="Times,serif" font-size="14.00">V569 (e)</text>
</g>
<!-- 25&#45;&gt;32 -->
<g id="edge32" class="edge">
<title>25&#45;&gt;32</title>
<path fill="none" stroke="black" stroke-dasharray="5,2" d="M557.22,-162.53C564.41,-153.57 573.45,-142.31 581.45,-132.36"/>
<polygon fill="black" stroke="black" points="584.32,-134.37 587.85,-124.38 578.86,-129.98 584.32,-134.37"/>
</g>
<!-- 39 -->
<g id="node41" class="node">
<title>39</title>
<ellipse fill="none" stroke="black" cx="713" cy="-107" rx="44.39" ry="18"/>
<text text-anchor="middle" x="713" y="-103.3" font-family="Times,serif" font-size="14.00">Mon (f)</text>
</g>
<!-- 25&#45;&gt;39 -->
<g id="edge39" class="edge">
<title>25&#45;&gt;39</title>
<path fill="none" stroke="blue" stroke-dasharray="1,5" d="M574.6,-166.14C602.5,-154.42 643.84,-137.05 674.08,-124.35"/>
<polygon fill="blue" stroke="blue" points="675.61,-127.51 683.47,-120.4 672.9,-121.05 675.61,-127.51"/>
</g>
<!-- 26&#45;&gt;0 -->
<g id="edge1" class="edge">
<title>26&#45;&gt;0</title>
<path fill="none" stroke="black" d="M980.07,-625.47C972.51,-623.38 964.54,-621.41 957,-620 869.28,-603.57 845.69,-611.94 757,-602 660.74,-591.21 635.92,-592.29 541,-573 536.64,-572.11 532.13,-571.09 527.63,-569.99"/>
<polygon fill="black" stroke="black" points="528.39,-566.58 517.83,-567.51 526.66,-573.36 528.39,-566.58"/>
<text text-anchor="middle" x="760.5" y="-594" font-family="Times,serif" font-size="10.00">2</text>
</g>
<!-- 26&#45;&gt;5 -->
<g id="edge6" class="edge">
<title>26&#45;&gt;5</title>
<path fill="none" stroke="blue" stroke-dasharray="1,5" d="M979.67,-625.78C972.22,-623.69 964.39,-621.65 957,-620 907.36,-608.94 894.22,-610.02 844,-602 763.55,-589.15 742.59,-590.41 663,-573 658.83,-572.09 654.52,-571.06 650.22,-569.98"/>
<polygon fill="blue" stroke="blue" points="650.79,-566.51 640.23,-567.37 649.02,-573.28 650.79,-566.51"/>
</g>
<!-- 26&#45;&gt;11 -->
<g id="edge12" class="edge">
<title>26&#45;&gt;11</title>
<path fill="none" stroke="black" stroke-dasharray="5,2" d="M978.58,-626.1C971.42,-624.05 963.98,-621.94 957,-620 878.99,-598.35 859.01,-594.65 781,-573 777.24,-571.96 773.34,-570.86 769.43,-569.75"/>
<polygon fill="black" stroke="black" points="770.31,-566.37 759.74,-566.99 768.4,-573.1 770.31,-566.37"/>
</g>
<!-- 26&#45;&gt;18 -->
<g id="edge19" class="edge">
<title>26&#45;&gt;18</title>
<path fill="none" stroke="black" d="M985.95,-623.62C954.79,-609.76 906.01,-588.05 872.15,-572.98"/>
<polygon fill="black" stroke="black" points="873.16,-569.6 862.6,-568.73 870.31,-575.99 873.16,-569.6"/>
<text text-anchor="middle" x="938.5" y="-594" font-family="Times,serif" font-size="10.00">2</text>
</g>
<!-- 26&#45;&gt;23 -->
<g id="edge23" class="edge">
<title>26&#45;&gt;23</title>
<path fill="none" stroke="black" stroke-dasharray="5,2" d="M1002.85,-620.61C993.66,-609.16 981.22,-593.66 970.83,-580.72"/>
<polygon fill="black" stroke="black" points="973.35,-578.25 964.36,-572.65 967.89,-582.64 973.35,-578.25"/>
</g>
<!-- 26&#45;&gt;24 -->
<g id="edge24" class="edge">
<title>26&#45;&gt;24</title>
<path fill="none" stroke="black" stroke-dasharray="1,5" d="M1028.02,-620.22C1036.16,-608.85 1047.06,-593.63 1056.2,-580.86"/>
<polygon fill="black" stroke="black" points="1059.22,-582.65 1062.2,-572.48 1053.53,-578.58 1059.22,-582.65"/>
</g>
<!-- 29 -->
<g id="node31" class="node">
<title>29</title>
<ellipse fill="none" stroke="black" cx="1189" cy="-555" rx="47.39" ry="18"/>
<text text-anchor="middle" x="1189" y="-551.3" font-family="Times,serif" font-size="14.00">Bodl (d)</text>
</g>
<!-- 26&#45;&gt;29 -->
<g id="edge29" class="edge">
<title>26&#45;&gt;29</title>
<path fill="none" stroke="black" stroke-dasharray="5,2" d="M1045.35,-623.26C1074.44,-609.64 1119.14,-588.71 1150.95,-573.82"/>
<polygon fill="black" stroke="black" points="1152.8,-576.81 1160.37,-569.4 1149.83,-570.47 1152.8,-576.81"/>
</g>
<!-- 36 -->
<g id="node38" class="node">
<title>36</title>
<ellipse fill="none" stroke="black" cx="1299" cy="-555" rx="44.39" ry="18"/>
<text text-anchor="middle" x="1299" y="-551.3" font-family="Times,serif" font-size="14.00">P74 (d)</text>
</g>
<!-- 26&#45;&gt;36 -->
<g id="edge36" class="edge">
<title>26&#45;&gt;36</title>
<path fill="none" stroke="black" stroke-dasharray="1,5" d="M1054.6,-626.62C1100.21,-614.27 1178.32,-592.81 1245,-573 1248.5,-571.96 1252.13,-570.86 1255.77,-569.75"/>
<polygon fill="black" stroke="black" points="1256.83,-573.08 1265.35,-566.78 1254.76,-566.39 1256.83,-573.08"/>
</g>
<!-- 37 -->
<g id="node39" class="node">
<title>37</title>
<ellipse fill="none" stroke="black" cx="1411" cy="-555" rx="50.09" ry="18"/>
<text text-anchor="middle" x="1411" y="-551.3" font-family="Times,serif" font-size="14.00">V571 (d)</text>
</g>
<!-- 26&#45;&gt;37 -->
<g id="edge37" class="edge">
<title>26&#45;&gt;37</title>
<path fill="none" stroke="black" stroke-dasharray="1,5" d="M1055.71,-627.05C1065.88,-624.62 1076.82,-622.12 1087,-620 1204.1,-595.62 1235.48,-600.04 1352,-573 1356.03,-572.06 1360.19,-571.02 1364.36,-569.93"/>
<polygon fill="black" stroke="black" points="1365.29,-573.3 1374.02,-567.3 1363.45,-566.55 1365.29,-573.3"/>
</g>
<!-- 40 -->
<g id="node42" class="node">
<title>40</title>
<ellipse fill="none" stroke="black" cx="1529" cy="-555" rx="50.09" ry="18"/>
<text text-anchor="middle" x="1529" y="-551.3" font-family="Times,serif" font-size="14.00">V565 (d)</text>
</g>
<!-- 26&#45;&gt;40 -->
<g id="edge40" class="edge">
<title>26&#45;&gt;40</title>
<path fill="none" stroke="black" stroke-dasharray="5,2" d="M1054.89,-626.85C1065.28,-624.37 1076.52,-621.89 1087,-620 1171.39,-604.77 1385.98,-590.15 1470,-573 1474.17,-572.15 1478.48,-571.15 1482.77,-570.07"/>
<polygon fill="black" stroke="black" points="1483.95,-573.38 1492.72,-567.43 1482.15,-566.61 1483.95,-573.38"/>
</g>
<!-- 27&#45;&gt;21 -->
<g id="edge21" class="edge">
<title>27&#45;&gt;21</title>
<path fill="none" stroke="black" stroke-dasharray="1,5" d="M544,-307.81C544,-299.79 544,-290.05 544,-281.07"/>
<polygon fill="black" stroke="black" points="547.5,-281.03 544,-271.03 540.5,-281.03 547.5,-281.03"/>
</g>
<!-- 30&#45;&gt;13 -->
<g id="edge14" class="edge">
<title>30&#45;&gt;13</title>
<path fill="none" stroke="black" stroke-dasharray="1,5" d="M1194.27,-626.1C1203.68,-623.89 1213.65,-621.72 1223,-620 1383.87,-590.47 1428.56,-609.48 1588,-573 1591.38,-572.23 1594.85,-571.32 1598.31,-570.34"/>
<polygon fill="black" stroke="black" points="1599.43,-573.65 1607.99,-567.4 1597.4,-566.96 1599.43,-573.65"/>
</g>
<!-- 31 -->
<g id="node33" class="node">
<title>31</title>
<ellipse fill="none" stroke="black" cx="713" cy="-34" rx="41.69" ry="18"/>
<text text-anchor="middle" x="713" y="-30.3" font-family="Times,serif" font-size="14.00">Sin (g)</text>
</g>
<!-- 34&#45;&gt;10 -->
<g id="edge11" class="edge">
<title>34&#45;&gt;10</title>
<path fill="none" stroke="black" stroke-dasharray="1,5" d="M480,-453.81C480,-445.79 480,-436.05 480,-427.07"/>
<polygon fill="black" stroke="black" points="483.5,-427.03 480,-417.03 476.5,-427.03 483.5,-427.03"/>
</g>
<!-- 42 -->
<g id="node44" class="node">
<title>42</title>
<ellipse fill="none" stroke="black" cx="1755" cy="-555" rx="55.79" ry="18"/>
<text text-anchor="middle" x="1755" y="-551.3" font-family="Times,serif" font-size="14.00">V1639 (d)</text>
</g>
<!-- 35&#45;&gt;42 -->
<g id="edge42" class="edge">
<title>35&#45;&gt;42</title>
<path fill="none" stroke="black" stroke-dasharray="1,5" d="M1328.47,-631.25C1404.48,-621.51 1559.98,-600.13 1690,-573 1694.68,-572.02 1699.52,-570.92 1704.36,-569.77"/>
<polygon fill="black" stroke="black" points="1705.36,-573.13 1714.23,-567.33 1703.68,-566.33 1705.36,-573.13"/>
</g>
<!-- 39&#45;&gt;31 -->
<g id="edge31" class="edge">
<title>39&#45;&gt;31</title>
<path fill="none" stroke="blue" stroke-dasharray="1,5" d="M713,-88.81C713,-80.79 713,-71.05 713,-62.07"/>
<polygon fill="blue" stroke="blue" points="716.5,-62.03 713,-52.03 709.5,-62.03 716.5,-62.03"/>
</g>
</g>
</svg>
