<?xml version="1.0" encoding="UTF-8" standalone="no"?>
<!DOCTYPE svg PUBLIC "-//W3C//DTD SVG 1.1//EN"
 "http://www.w3.org/Graphics/SVG/1.1/DTD/svg11.dtd">
<!-- Generated by graphviz version 2.43.0 (0)
 -->
<!-- Title: textual_flow Pages: 1 -->
<svg width="1834pt" height="921pt"
 viewBox="0.00 0.00 1834.00 921.00" xmlns="http://www.w3.org/2000/svg" xmlns:xlink="http://www.w3.org/1999/xlink">
<g id="graph0" class="graph" transform="scale(1 1) rotate(0) translate(4 917)">
<title>textual_flow</title>
<polygon fill="white" stroke="transparent" points="-4,4 -4,-917 1830,-917 1830,4 -4,4"/>
<g id="clust1" class="cluster">
<title>cluster_legend</title>
<polygon fill="none" stroke="black" points="8,-851 8,-905 168,-905 168,-851 8,-851"/>
</g>
<g id="clust2" class="cluster">
<title>cluster_plot</title>
</g>
<!-- label -->
<g id="node1" class="node">
<title>label</title>
<text text-anchor="middle" x="88" y="-881.8" font-family="Times,serif" font-size="14.00">adstag1.3.22U4&#45;6</text>
<text text-anchor="middle" x="88" y="-866.8" font-family="Times,serif" font-size="14.00">Con = 5</text>
</g>
<!-- 0 -->
<g id="node2" class="node">
<title>0</title>
<ellipse fill="none" stroke="black" cx="1287" cy="-472" rx="55.79" ry="18"/>
<text text-anchor="middle" x="1287" y="-468.3" font-family="Times,serif" font-size="14.00">V1629 (d)</text>
</g>
<!-- 19 -->
<g id="node21" class="node">
<title>19</title>
<ellipse fill="none" stroke="black" cx="1247" cy="-399" rx="50.09" ry="18"/>
<text text-anchor="middle" x="1247" y="-395.3" font-family="Times,serif" font-size="14.00">V536 (e)</text>
</g>
<!-- 0&#45;&gt;19 -->
<g id="edge20" class="edge">
<title>0&#45;&gt;19</title>
<path fill="none" stroke="blue" stroke-dasharray="5,2" d="M1277.52,-454.17C1272.69,-445.6 1266.71,-434.99 1261.33,-425.44"/>
<polygon fill="blue" stroke="blue" points="1264.37,-423.7 1256.41,-416.71 1258.27,-427.14 1264.37,-423.7"/>
</g>
<!-- 20 -->
<g id="node22" class="node">
<title>20</title>
<ellipse fill="none" stroke="gray" stroke-dasharray="5,2" cx="1351" cy="-399" rx="36" ry="18"/>
<text text-anchor="middle" x="1351" y="-395.3" font-family="Times,serif" font-size="14.00">La2&#45;c</text>
</g>
<!-- 0&#45;&gt;20 -->
<g id="edge21" class="edge">
<title>0&#45;&gt;20</title>
<path fill="none" stroke="gray" stroke-width="2" d="M1301.84,-454.53C1310.2,-445.26 1320.77,-433.53 1329.97,-423.33"/>
<polygon fill="gray" stroke="gray" stroke-width="2" points="1332.58,-425.66 1336.68,-415.89 1327.38,-420.97 1332.58,-425.66"/>
</g>
<!-- 1 -->
<g id="node3" class="node">
<title>1</title>
<ellipse fill="none" stroke="black" cx="1247" cy="-253" rx="46.59" ry="18"/>
<text text-anchor="middle" x="1247" y="-249.3" font-family="Times,serif" font-size="14.00">Taur (e)</text>
</g>
<!-- 12 -->
<g id="node14" class="node">
<title>12</title>
<ellipse fill="none" stroke="black" cx="1128" cy="-180" rx="52.79" ry="18"/>
<text text-anchor="middle" x="1128" y="-176.3" font-family="Times,serif" font-size="14.00">M118 (e)</text>
</g>
<!-- 1&#45;&gt;12 -->
<g id="edge13" class="edge">
<title>1&#45;&gt;12</title>
<path fill="none" stroke="black" stroke-dasharray="5,2" d="M1222.63,-237.46C1205.14,-227.02 1181.33,-212.82 1161.98,-201.27"/>
<polygon fill="black" stroke="black" points="1163.54,-198.13 1153.16,-196.01 1159.95,-204.14 1163.54,-198.13"/>
</g>
<!-- 23 -->
<g id="node25" class="node">
<title>23</title>
<ellipse fill="none" stroke="black" cx="1247" cy="-180" rx="48.19" ry="18"/>
<text text-anchor="middle" x="1247" y="-176.3" font-family="Times,serif" font-size="14.00">Marc (f)</text>
</g>
<!-- 1&#45;&gt;23 -->
<g id="edge24" class="edge">
<title>1&#45;&gt;23</title>
<path fill="none" stroke="blue" stroke-dasharray="1,5" d="M1247,-234.81C1247,-226.79 1247,-217.05 1247,-208.07"/>
<polygon fill="blue" stroke="blue" points="1250.5,-208.03 1247,-198.03 1243.5,-208.03 1250.5,-208.03"/>
</g>
<!-- 27 -->
<g id="node29" class="node">
<title>27</title>
<ellipse fill="none" stroke="black" cx="1363" cy="-180" rx="50.09" ry="18"/>
<text text-anchor="middle" x="1363" y="-176.3" font-family="Times,serif" font-size="14.00">V569 (e)</text>
</g>
<!-- 1&#45;&gt;27 -->
<g id="edge28" class="edge">
<title>1&#45;&gt;27</title>
<path fill="none" stroke="black" stroke-dasharray="5,2" d="M1270.75,-237.46C1287.81,-227.02 1311.01,-212.82 1329.88,-201.27"/>
<polygon fill="black" stroke="black" points="1331.78,-204.21 1338.48,-196.01 1328.12,-198.24 1331.78,-204.21"/>
</g>
<!-- 2 -->
<g id="node4" class="node">
<title>2</title>
<ellipse fill="none" stroke="black" cx="362" cy="-711" rx="50.09" ry="18"/>
<text text-anchor="middle" x="362" y="-707.3" font-family="Times,serif" font-size="14.00">V566 (d)</text>
</g>
<!-- 4 -->
<g id="node6" class="node">
<title>4</title>
<ellipse fill="none" stroke="black" cx="240" cy="-628" rx="55.79" ry="18"/>
<text text-anchor="middle" x="240" y="-624.3" font-family="Times,serif" font-size="14.00">V1639 (d)</text>
</g>
<!-- 2&#45;&gt;4 -->
<g id="edge5" class="edge">
<title>2&#45;&gt;4</title>
<path fill="none" stroke="black" stroke-dasharray="1,5" d="M339.05,-694.76C320,-682.12 292.71,-664 271.6,-649.98"/>
<polygon fill="black" stroke="black" points="273.53,-647.06 263.26,-644.44 269.65,-652.89 273.53,-647.06"/>
</g>
<!-- 3 -->
<g id="node5" class="node">
<title>3</title>
<ellipse fill="none" stroke="black" cx="1247" cy="-326" rx="50.09" ry="18"/>
<text text-anchor="middle" x="1247" y="-322.3" font-family="Times,serif" font-size="14.00">V568 (e)</text>
</g>
<!-- 3&#45;&gt;1 -->
<g id="edge2" class="edge">
<title>3&#45;&gt;1</title>
<path fill="none" stroke="black" stroke-dasharray="1,5" d="M1247,-307.81C1247,-299.79 1247,-290.05 1247,-281.07"/>
<polygon fill="black" stroke="black" points="1250.5,-281.03 1247,-271.03 1243.5,-281.03 1250.5,-281.03"/>
</g>
<!-- 5 -->
<g id="node7" class="node">
<title>5</title>
<ellipse fill="none" stroke="black" cx="703" cy="-628" rx="44.39" ry="18"/>
<text text-anchor="middle" x="703" y="-624.3" font-family="Times,serif" font-size="14.00">P74 (d)</text>
</g>
<!-- 6 -->
<g id="node8" class="node">
<title>6</title>
<ellipse fill="none" stroke="black" cx="1287" cy="-545" rx="50.89" ry="18"/>
<text text-anchor="middle" x="1287" y="-541.3" font-family="Times,serif" font-size="14.00">Neap (d)</text>
</g>
<!-- 6&#45;&gt;0 -->
<g id="edge1" class="edge">
<title>6&#45;&gt;0</title>
<path fill="none" stroke="black" stroke-dasharray="1,5" d="M1287,-526.81C1287,-518.79 1287,-509.05 1287,-500.07"/>
<polygon fill="black" stroke="black" points="1290.5,-500.03 1287,-490.03 1283.5,-500.03 1290.5,-500.03"/>
</g>
<!-- 7 -->
<g id="node9" class="node">
<title>7</title>
<ellipse fill="none" stroke="black" cx="1247" cy="-107" rx="44.39" ry="18"/>
<text text-anchor="middle" x="1247" y="-103.3" font-family="Times,serif" font-size="14.00">Mon (f)</text>
</g>
<!-- 21 -->
<g id="node23" class="node">
<title>21</title>
<ellipse fill="none" stroke="black" cx="1247" cy="-34" rx="41.69" ry="18"/>
<text text-anchor="middle" x="1247" y="-30.3" font-family="Times,serif" font-size="14.00">Sin (g)</text>
</g>
<!-- 7&#45;&gt;21 -->
<g id="edge22" class="edge">
<title>7&#45;&gt;21</title>
<path fill="none" stroke="blue" stroke-dasharray="1,5" d="M1247,-88.81C1247,-80.79 1247,-71.05 1247,-62.07"/>
<polygon fill="blue" stroke="blue" points="1250.5,-62.03 1247,-52.03 1243.5,-62.03 1250.5,-62.03"/>
</g>
<!-- 8 -->
<g id="node10" class="node">
<title>8</title>
<ellipse fill="none" stroke="black" cx="474" cy="-711" rx="44.39" ry="18"/>
<text text-anchor="middle" x="474" y="-707.3" font-family="Times,serif" font-size="14.00">S32 (d)</text>
</g>
<!-- 9 -->
<g id="node11" class="node">
<title>9</title>
<ellipse fill="none" stroke="black" cx="319" cy="-794" rx="42.79" ry="18"/>
<text text-anchor="middle" x="319" y="-790.3" font-family="Times,serif" font-size="14.00">Bas (a)</text>
</g>
<!-- 10 -->
<g id="node12" class="node">
<title>10</title>
<ellipse fill="none" stroke="black" cx="588" cy="-545" rx="44.69" ry="18"/>
<text text-anchor="middle" x="588" y="-541.3" font-family="Times,serif" font-size="14.00">B39 (d)</text>
</g>
<!-- 11 -->
<g id="node13" class="node">
<title>11</title>
<ellipse fill="none" stroke="black" cx="364" cy="-545" rx="55.49" ry="18"/>
<text text-anchor="middle" x="364" y="-541.3" font-family="Times,serif" font-size="14.00">V1920 (c)</text>
</g>
<!-- 13 -->
<g id="node15" class="node">
<title>13</title>
<ellipse fill="none" stroke="gray" stroke-dasharray="5,2" cx="1128" cy="-107" rx="28.7" ry="18"/>
<text text-anchor="middle" x="1128" y="-103.3" font-family="Times,serif" font-size="14.00">P18</text>
</g>
<!-- 12&#45;&gt;13 -->
<g id="edge14" class="edge">
<title>12&#45;&gt;13</title>
<path fill="none" stroke="gray" stroke-dasharray="5,2" d="M1128,-161.81C1128,-153.79 1128,-144.05 1128,-135.07"/>
<polygon fill="gray" stroke="gray" points="1131.5,-135.03 1128,-125.03 1124.5,-135.03 1131.5,-135.03"/>
</g>
<!-- 14 -->
<g id="node16" class="node">
<title>14</title>
<ellipse fill="none" stroke="black" cx="821" cy="-628" rx="55.79" ry="18"/>
<text text-anchor="middle" x="821" y="-624.3" font-family="Times,serif" font-size="14.00">V2036 (d)</text>
</g>
<!-- 15 -->
<g id="node17" class="node">
<title>15</title>
<ellipse fill="none" stroke="black" cx="588" cy="-628" rx="53.09" ry="18"/>
<text text-anchor="middle" x="588" y="-624.3" font-family="Times,serif" font-size="14.00">LaSM (d)</text>
</g>
<!-- 15&#45;&gt;10 -->
<g id="edge11" class="edge">
<title>15&#45;&gt;10</title>
<path fill="none" stroke="black" stroke-dasharray="5,2" d="M588,-609.82C588,-599.19 588,-585.31 588,-573.2"/>
<polygon fill="black" stroke="black" points="591.5,-573.15 588,-563.15 584.5,-573.15 591.5,-573.15"/>
</g>
<!-- 16 -->
<g id="node18" class="node">
<title>16</title>
<ellipse fill="none" stroke="black" cx="474" cy="-628" rx="42.49" ry="18"/>
<text text-anchor="middle" x="474" y="-624.3" font-family="Times,serif" font-size="14.00">Est (d)</text>
</g>
<!-- 17 -->
<g id="node19" class="node">
<title>17</title>
<ellipse fill="none" stroke="black" cx="364" cy="-628" rx="50.09" ry="18"/>
<text text-anchor="middle" x="364" y="-624.3" font-family="Times,serif" font-size="14.00">V560 (d)</text>
</g>
<!-- 17&#45;&gt;11 -->
<g id="edge12" class="edge">
<title>17&#45;&gt;11</title>
<path fill="none" stroke="blue" stroke-dasharray="5,2" d="M364,-609.82C364,-599.19 364,-585.31 364,-573.2"/>
<polygon fill="blue" stroke="blue" points="367.5,-573.15 364,-563.15 360.5,-573.15 367.5,-573.15"/>
</g>
<!-- 18 -->
<g id="node20" class="node">
<title>18</title>
<ellipse fill="none" stroke="black" cx="938" cy="-628" rx="43.59" ry="18"/>
<text text-anchor="middle" x="938" y="-624.3" font-family="Times,serif" font-size="14.00">La2 (d)</text>
</g>
<!-- 19&#45;&gt;3 -->
<g id="edge4" class="edge">
<title>19&#45;&gt;3</title>
<path fill="none" stroke="black" stroke-dasharray="1,5" d="M1247,-380.81C1247,-372.79 1247,-363.05 1247,-354.07"/>
<polygon fill="black" stroke="black" points="1250.5,-354.03 1247,-344.03 1243.5,-354.03 1250.5,-354.03"/>
</g>
<!-- 22 -->
<g id="node24" class="node">
<title>22</title>
<ellipse fill="none" stroke="black" cx="1047" cy="-628" rx="47.39" ry="18"/>
<text text-anchor="middle" x="1047" y="-624.3" font-family="Times,serif" font-size="14.00">Bodl (d)</text>
</g>
<!-- 23&#45;&gt;7 -->
<g id="edge8" class="edge">
<title>23&#45;&gt;7</title>
<path fill="none" stroke="black" stroke-dasharray="1,5" d="M1247,-161.81C1247,-153.79 1247,-144.05 1247,-135.07"/>
<polygon fill="black" stroke="black" points="1250.5,-135.03 1247,-125.03 1243.5,-135.03 1250.5,-135.03"/>
</g>
<!-- 24 -->
<g id="node26" class="node">
<title>24</title>
<ellipse fill="none" stroke="black" cx="1164" cy="-628" rx="51.99" ry="18"/>
<text text-anchor="middle" x="1164" y="-624.3" font-family="Times,serif" font-size="14.00">M111 (c)</text>
</g>
<!-- 35 -->
<g id="node37" class="node">
<title>35</title>
<ellipse fill="none" stroke="black" cx="1164" cy="-545" rx="49.29" ry="18"/>
<text text-anchor="middle" x="1164" y="-541.3" font-family="Times,serif" font-size="14.00">A336 (c)</text>
</g>
<!-- 24&#45;&gt;35 -->
<g id="edge36" class="edge">
<title>24&#45;&gt;35</title>
<path fill="none" stroke="black" stroke-dasharray="5,2" d="M1164,-609.82C1164,-599.19 1164,-585.31 1164,-573.2"/>
<polygon fill="black" stroke="black" points="1167.5,-573.15 1164,-563.15 1160.5,-573.15 1167.5,-573.15"/>
</g>
<!-- 25 -->
<g id="node27" class="node">
<title>25</title>
<ellipse fill="none" stroke="black" cx="424" cy="-794" rx="44.39" ry="18"/>
<text text-anchor="middle" x="424" y="-790.3" font-family="Times,serif" font-size="14.00">Nan (c)</text>
</g>
<!-- 29 -->
<g id="node31" class="node">
<title>29</title>
<ellipse fill="none" stroke="black" cx="239" cy="-711" rx="55.49" ry="18"/>
<text text-anchor="middle" x="239" y="-707.3" font-family="Times,serif" font-size="14.00">V2250 (c)</text>
</g>
<!-- 25&#45;&gt;29 -->
<g id="edge30" class="edge">
<title>25&#45;&gt;29</title>
<path fill="none" stroke="black" stroke-dasharray="5,2" d="M395.09,-780.34C364.25,-766.84 315.14,-745.34 280.24,-730.06"/>
<polygon fill="black" stroke="black" points="281.37,-726.73 270.8,-725.92 278.56,-733.14 281.37,-726.73"/>
</g>
<!-- 26 -->
<g id="node28" class="node">
<title>26</title>
<ellipse fill="none" stroke="gray" stroke-dasharray="5,2" cx="536" cy="-794" rx="50.09" ry="18"/>
<text text-anchor="middle" x="536" y="-790.3" font-family="Times,serif" font-size="14.00">Savile&#45;Η</text>
</g>
<!-- 28 -->
<g id="node30" class="node">
<title>28</title>
<ellipse fill="none" stroke="black" cx="1287" cy="-628" rx="53.09" ry="18"/>
<text text-anchor="middle" x="1287" y="-624.3" font-family="Times,serif" font-size="14.00">M136 (d)</text>
</g>
<!-- 28&#45;&gt;6 -->
<g id="edge7" class="edge">
<title>28&#45;&gt;6</title>
<path fill="none" stroke="black" stroke-dasharray="5,2" d="M1287,-609.82C1287,-599.19 1287,-585.31 1287,-573.2"/>
<polygon fill="black" stroke="black" points="1290.5,-573.15 1287,-563.15 1283.5,-573.15 1290.5,-573.15"/>
<text text-anchor="middle" x="1290.5" y="-584" font-family="Times,serif" font-size="10.00">2</text>
</g>
<!-- 30 -->
<g id="node32" class="node">
<title>30</title>
<ellipse fill="none" stroke="black" cx="1408" cy="-628" rx="50.09" ry="18"/>
<text text-anchor="middle" x="1408" y="-624.3" font-family="Times,serif" font-size="14.00">V565 (d)</text>
</g>
<!-- 31 -->
<g id="node33" class="node">
<title>31</title>
<ellipse fill="none" stroke="black" cx="586" cy="-711" rx="50.09" ry="18"/>
<text text-anchor="middle" x="586" y="-707.3" font-family="Times,serif" font-size="14.00">Patm (d)</text>
</g>
<!-- 31&#45;&gt;17 -->
<g id="edge18" class="edge">
<title>31&#45;&gt;17</title>
<path fill="none" stroke="black" stroke-width="2" d="M552.28,-697.7C513.57,-683.57 449.97,-660.37 407.54,-644.89"/>
<polygon fill="black" stroke="black" stroke-width="2" points="408.63,-641.56 398.03,-641.42 406.23,-648.13 408.63,-641.56"/>
<text text-anchor="middle" x="491.5" y="-667" font-family="Times,serif" font-size="10.00">2</text>
</g>
<!-- 32 -->
<g id="node34" class="node">
<title>32</title>
<ellipse fill="none" stroke="black" cx="710" cy="-711" rx="55.79" ry="18"/>
<text text-anchor="middle" x="710" y="-707.3" font-family="Times,serif" font-size="14.00">V1897 (d)</text>
</g>
<!-- 32&#45;&gt;16 -->
<g id="edge17" class="edge">
<title>32&#45;&gt;16</title>
<path fill="none" stroke="black" stroke-dasharray="1,5" d="M673.12,-697.34C630.46,-682.7 560.37,-658.64 515.74,-643.33"/>
<polygon fill="black" stroke="black" points="516.67,-639.94 506.07,-640.01 514.4,-646.57 516.67,-639.94"/>
</g>
<!-- 33 -->
<g id="node35" class="node">
<title>33</title>
<ellipse fill="none" stroke="black" cx="1526" cy="-628" rx="50.09" ry="18"/>
<text text-anchor="middle" x="1526" y="-624.3" font-family="Times,serif" font-size="14.00">A116 (d)</text>
</g>
<!-- 34 -->
<g id="node36" class="node">
<title>34</title>
<ellipse fill="none" stroke="black" cx="828" cy="-711" rx="44.39" ry="18"/>
<text text-anchor="middle" x="828" y="-707.3" font-family="Times,serif" font-size="14.00">P01 (d)</text>
</g>
<!-- 34&#45;&gt;15 -->
<g id="edge16" class="edge">
<title>34&#45;&gt;15</title>
<path fill="none" stroke="black" stroke-dasharray="5,2" d="M795.13,-698.91C753.42,-684.83 681.24,-660.47 634.06,-644.54"/>
<polygon fill="black" stroke="black" points="634.98,-641.16 624.39,-641.28 632.75,-647.8 634.98,-641.16"/>
<text text-anchor="middle" x="725.5" y="-667" font-family="Times,serif" font-size="10.00">2</text>
</g>
<!-- 36 -->
<g id="node38" class="node">
<title>36</title>
<ellipse fill="none" stroke="black" cx="536" cy="-878" rx="53.89" ry="18"/>
<text text-anchor="middle" x="536" y="-874.3" font-family="Times,serif" font-size="14.00">aBase (a)</text>
</g>
<!-- 36&#45;&gt;9 -->
<g id="edge10" class="edge">
<title>36&#45;&gt;9</title>
<path fill="none" stroke="black" stroke-width="2" d="M501.62,-864.01C462.89,-849.37 400.04,-825.62 359.11,-810.16"/>
<polygon fill="black" stroke="black" stroke-width="2" points="360.31,-806.87 349.71,-806.61 357.83,-813.42 360.31,-806.87"/>
<text text-anchor="middle" x="443.5" y="-833" font-family="Times,serif" font-size="10.00">3</text>
</g>
<!-- 36&#45;&gt;25 -->
<g id="edge26" class="edge">
<title>36&#45;&gt;25</title>
<path fill="none" stroke="blue" d="M514.67,-861.38C497.09,-848.51 471.99,-830.14 452.66,-815.98"/>
<polygon fill="blue" stroke="blue" points="454.63,-813.09 444.49,-810.01 450.5,-818.74 454.63,-813.09"/>
</g>
<!-- 36&#45;&gt;26 -->
<g id="edge27" class="edge">
<title>36&#45;&gt;26</title>
<path fill="none" stroke="gray" stroke-width="2" d="M536,-859.61C536,-848.77 536,-834.6 536,-822.29"/>
<polygon fill="gray" stroke="gray" stroke-width="2" points="539.5,-822.08 536,-812.08 532.5,-822.08 539.5,-822.08"/>
</g>
<!-- 39 -->
<g id="node41" class="node">
<title>39</title>
<ellipse fill="none" stroke="black" cx="648" cy="-794" rx="44.39" ry="18"/>
<text text-anchor="middle" x="648" y="-790.3" font-family="Times,serif" font-size="14.00">A25 (d)</text>
</g>
<!-- 36&#45;&gt;39 -->
<g id="edge39" class="edge">
<title>36&#45;&gt;39</title>
<path fill="none" stroke="blue" stroke-dasharray="5,2" d="M557.33,-861.38C574.91,-848.51 600.01,-830.14 619.34,-815.98"/>
<polygon fill="blue" stroke="blue" points="621.5,-818.74 627.51,-810.01 617.37,-813.09 621.5,-818.74"/>
</g>
<!-- 40 -->
<g id="node42" class="node">
<title>40</title>
<ellipse fill="none" stroke="black" cx="760" cy="-794" rx="50.09" ry="18"/>
<text text-anchor="middle" x="760" y="-790.3" font-family="Times,serif" font-size="14.00">S249 (b)</text>
</g>
<!-- 36&#45;&gt;40 -->
<g id="edge40" class="edge">
<title>36&#45;&gt;40</title>
<path fill="none" stroke="blue" d="M571,-864.19C610.27,-849.81 674.02,-826.48 716.47,-810.94"/>
<polygon fill="blue" stroke="blue" points="717.79,-814.18 725.98,-807.45 715.39,-807.61 717.79,-814.18"/>
</g>
<!-- 37 -->
<g id="node39" class="node">
<title>37</title>
<ellipse fill="none" stroke="black" cx="1644" cy="-628" rx="50.09" ry="18"/>
<text text-anchor="middle" x="1644" y="-624.3" font-family="Times,serif" font-size="14.00">V571 (d)</text>
</g>
<!-- 38 -->
<g id="node40" class="node">
<title>38</title>
<ellipse fill="none" stroke="black" cx="1105" cy="-711" rx="49.29" ry="18"/>
<text text-anchor="middle" x="1105" y="-707.3" font-family="Times,serif" font-size="14.00">La22 (d)</text>
</g>
<!-- 38&#45;&gt;5 -->
<g id="edge6" class="edge">
<title>38&#45;&gt;5</title>
<path fill="none" stroke="black" stroke-dasharray="1,5" d="M1059.7,-703.6C992.75,-693.72 863.7,-673.03 756,-646 752.57,-645.14 749.04,-644.18 745.5,-643.16"/>
<polygon fill="black" stroke="black" points="746.19,-639.71 735.61,-640.19 744.18,-646.42 746.19,-639.71"/>
</g>
<!-- 38&#45;&gt;14 -->
<g id="edge15" class="edge">
<title>38&#45;&gt;14</title>
<path fill="none" stroke="black" stroke-dasharray="5,2" d="M1067.29,-699.24C1016.9,-684.87 927.47,-659.37 871.36,-643.36"/>
<polygon fill="black" stroke="black" points="872.2,-639.96 861.63,-640.59 870.28,-646.7 872.2,-639.96"/>
</g>
<!-- 38&#45;&gt;18 -->
<g id="edge19" class="edge">
<title>38&#45;&gt;18</title>
<path fill="none" stroke="black" d="M1076.29,-696.08C1048.06,-682.38 1004.88,-661.44 974.29,-646.6"/>
<polygon fill="black" stroke="black" points="975.75,-643.42 965.23,-642.21 972.7,-649.72 975.75,-643.42"/>
<text text-anchor="middle" x="1034.5" y="-667" font-family="Times,serif" font-size="10.00">2</text>
</g>
<!-- 38&#45;&gt;22 -->
<g id="edge23" class="edge">
<title>38&#45;&gt;22</title>
<path fill="none" stroke="black" stroke-dasharray="5,2" d="M1092.98,-693.22C1084.84,-681.85 1073.94,-666.63 1064.8,-653.86"/>
<polygon fill="black" stroke="black" points="1067.47,-651.58 1058.8,-645.48 1061.78,-655.65 1067.47,-651.58"/>
</g>
<!-- 38&#45;&gt;24 -->
<g id="edge25" class="edge">
<title>38&#45;&gt;24</title>
<path fill="none" stroke="blue" stroke-dasharray="1,5" d="M1117.22,-693.22C1125.45,-681.92 1136.45,-666.83 1145.71,-654.11"/>
<polygon fill="blue" stroke="blue" points="1148.73,-655.91 1151.79,-645.76 1143.07,-651.78 1148.73,-655.91"/>
</g>
<!-- 38&#45;&gt;28 -->
<g id="edge29" class="edge">
<title>38&#45;&gt;28</title>
<path fill="none" stroke="black" d="M1135.05,-696.62C1165.47,-683.09 1212.7,-662.07 1246.42,-647.06"/>
<polygon fill="black" stroke="black" points="1248.27,-650.07 1255.99,-642.8 1245.43,-643.67 1248.27,-650.07"/>
<text text-anchor="middle" x="1209.5" y="-667" font-family="Times,serif" font-size="10.00">2</text>
</g>
<!-- 38&#45;&gt;30 -->
<g id="edge31" class="edge">
<title>38&#45;&gt;30</title>
<path fill="none" stroke="black" stroke-dasharray="5,2" d="M1142.4,-699.03C1149.56,-696.98 1157,-694.9 1164,-693 1245.88,-670.81 1267.12,-668.19 1349,-646 1352.83,-644.96 1356.79,-643.87 1360.76,-642.76"/>
<polygon fill="black" stroke="black" points="1361.93,-646.06 1370.6,-639.97 1360.02,-639.33 1361.93,-646.06"/>
</g>
<!-- 38&#45;&gt;33 -->
<g id="edge34" class="edge">
<title>38&#45;&gt;33</title>
<path fill="none" stroke="black" stroke-dasharray="5,2" d="M1141.32,-698.75C1148.78,-696.67 1156.61,-694.63 1164,-693 1297.07,-663.63 1333.93,-675.37 1467,-646 1471.1,-645.1 1475.33,-644.07 1479.56,-642.97"/>
<polygon fill="black" stroke="black" points="1480.62,-646.32 1489.36,-640.34 1478.79,-639.56 1480.62,-646.32"/>
</g>
<!-- 38&#45;&gt;37 -->
<g id="edge37" class="edge">
<title>38&#45;&gt;37</title>
<path fill="none" stroke="black" stroke-dasharray="1,5" d="M1140.96,-698.59C1148.51,-696.49 1156.47,-694.49 1164,-693 1210.17,-683.84 1538.83,-655.16 1585,-646 1589.18,-645.17 1593.48,-644.19 1597.78,-643.12"/>
<polygon fill="black" stroke="black" points="1598.95,-646.43 1607.73,-640.49 1597.17,-639.66 1598.95,-646.43"/>
</g>
<!-- 42 -->
<g id="node44" class="node">
<title>42</title>
<ellipse fill="none" stroke="black" cx="1761" cy="-628" rx="49.29" ry="18"/>
<text text-anchor="middle" x="1761" y="-624.3" font-family="Times,serif" font-size="14.00">La35 (d)</text>
</g>
<!-- 38&#45;&gt;42 -->
<g id="edge42" class="edge">
<title>38&#45;&gt;42</title>
<path fill="none" stroke="black" stroke-dasharray="1,5" d="M1140.61,-698.52C1148.26,-696.4 1156.35,-694.41 1164,-693 1258.31,-675.64 1283.47,-683.27 1379,-675 1523.04,-662.52 1560.95,-672.91 1703,-646 1707.12,-645.22 1711.36,-644.27 1715.59,-643.22"/>
<polygon fill="black" stroke="black" points="1716.61,-646.57 1725.38,-640.63 1714.81,-639.81 1716.61,-646.57"/>
</g>
<!-- 39&#45;&gt;2 -->
<g id="edge3" class="edge">
<title>39&#45;&gt;2</title>
<path fill="none" stroke="black" stroke-dasharray="5,2" d="M614.71,-782.06C608.19,-779.99 601.39,-777.89 595,-776 518.17,-753.32 498.16,-750.53 421,-729 417.24,-727.95 413.34,-726.85 409.43,-725.74"/>
<polygon fill="black" stroke="black" points="410.32,-722.36 399.74,-722.98 408.4,-729.09 410.32,-722.36"/>
</g>
<!-- 39&#45;&gt;8 -->
<g id="edge9" class="edge">
<title>39&#45;&gt;8</title>
<path fill="none" stroke="black" stroke-dasharray="5,2" d="M620.04,-779.99C590.49,-766.23 543.73,-744.46 511.1,-729.27"/>
<polygon fill="black" stroke="black" points="512.43,-726.03 501.89,-724.98 509.48,-732.38 512.43,-726.03"/>
</g>
<!-- 39&#45;&gt;31 -->
<g id="edge32" class="edge">
<title>39&#45;&gt;31</title>
<path fill="none" stroke="black" stroke-dasharray="1,5" d="M635.45,-776.61C626.69,-765.16 614.83,-749.66 604.92,-736.72"/>
<polygon fill="black" stroke="black" points="607.6,-734.46 598.74,-728.65 602.04,-738.71 607.6,-734.46"/>
</g>
<!-- 39&#45;&gt;32 -->
<g id="edge33" class="edge">
<title>39&#45;&gt;32</title>
<path fill="none" stroke="black" stroke-dasharray="5,2" d="M660.55,-776.61C669.31,-765.16 681.17,-749.66 691.08,-736.72"/>
<polygon fill="black" stroke="black" points="693.96,-738.71 697.26,-728.65 688.4,-734.46 693.96,-738.71"/>
<text text-anchor="middle" x="685.5" y="-750" font-family="Times,serif" font-size="10.00">3</text>
</g>
<!-- 39&#45;&gt;34 -->
<g id="edge35" class="edge">
<title>39&#45;&gt;34</title>
<path fill="none" stroke="black" stroke-dasharray="5,2" d="M676.52,-780.17C707.24,-766.34 756.26,-744.28 790.18,-729.02"/>
<polygon fill="black" stroke="black" points="791.63,-732.2 799.31,-724.91 788.76,-725.82 791.63,-732.2"/>
</g>
<!-- 39&#45;&gt;38 -->
<g id="edge38" class="edge">
<title>39&#45;&gt;38</title>
<path fill="none" stroke="black" stroke-dasharray="1,5" d="M680.57,-781.69C687.28,-779.6 694.33,-777.59 701,-776 823.15,-746.92 969.28,-727.48 1048.01,-718.23"/>
<polygon fill="black" stroke="black" points="1048.67,-721.68 1058.2,-717.05 1047.86,-714.73 1048.67,-721.68"/>
<text text-anchor="middle" x="847.5" y="-750" font-family="Times,serif" font-size="10.00">2</text>
</g>
<!-- 41 -->
<g id="node43" class="node">
<title>41</title>
<ellipse fill="none" stroke="black" cx="1213" cy="-711" rx="40.09" ry="18"/>
<text text-anchor="middle" x="1213" y="-707.3" font-family="Times,serif" font-size="14.00">Pal (d)</text>
</g>
<!-- 39&#45;&gt;41 -->
<g id="edge41" class="edge">
<title>39&#45;&gt;41</title>
<path fill="none" stroke="black" stroke-dasharray="5,2" d="M680.23,-781.48C687.02,-779.39 694.19,-777.42 701,-776 802.02,-754.9 1062.17,-750.97 1163,-729 1166.46,-728.25 1170.02,-727.33 1173.57,-726.32"/>
<polygon fill="black" stroke="black" points="1174.91,-729.57 1183.44,-723.28 1172.85,-722.88 1174.91,-729.57"/>
</g>
</g>
</svg>
