<?xml version="1.0" encoding="UTF-8" standalone="no"?>
<!DOCTYPE svg PUBLIC "-//W3C//DTD SVG 1.1//EN"
 "http://www.w3.org/Graphics/SVG/1.1/DTD/svg11.dtd">
<!-- Generated by graphviz version 2.43.0 (0)
 -->
<!-- Title: textual_flow Pages: 1 -->
<svg width="1474pt" height="732pt"
 viewBox="0.00 0.00 1474.00 732.00" xmlns="http://www.w3.org/2000/svg" xmlns:xlink="http://www.w3.org/1999/xlink">
<g id="graph0" class="graph" transform="scale(1 1) rotate(0) translate(4 728)">
<title>textual_flow</title>
<polygon fill="white" stroke="transparent" points="-4,4 -4,-728 1470,-728 1470,4 -4,4"/>
<g id="clust1" class="cluster">
<title>cluster_legend</title>
<polygon fill="none" stroke="black" points="8,-662 8,-716 164,-716 164,-662 8,-662"/>
</g>
<g id="clust2" class="cluster">
<title>cluster_plot</title>
</g>
<!-- label -->
<g id="node1" class="node">
<title>label</title>
<text text-anchor="middle" x="86" y="-692.8" font-family="Times,serif" font-size="14.00">adstag1.2.40U84</text>
<text text-anchor="middle" x="86" y="-677.8" font-family="Times,serif" font-size="14.00">Con = 5</text>
</g>
<!-- 0 -->
<g id="node2" class="node">
<title>0</title>
<ellipse fill="none" stroke="black" cx="336" cy="-439" rx="53.09" ry="18"/>
<text text-anchor="middle" x="336" y="-435.3" font-family="Times,serif" font-size="14.00">M111 (b)</text>
</g>
<!-- 3 -->
<g id="node5" class="node">
<title>3</title>
<ellipse fill="none" stroke="black" cx="336" cy="-356" rx="50.09" ry="18"/>
<text text-anchor="middle" x="336" y="-352.3" font-family="Times,serif" font-size="14.00">A336 (b)</text>
</g>
<!-- 0&#45;&gt;3 -->
<g id="edge4" class="edge">
<title>0&#45;&gt;3</title>
<path fill="none" stroke="black" stroke-dasharray="5,2" d="M336,-420.82C336,-410.19 336,-396.31 336,-384.2"/>
<polygon fill="black" stroke="black" points="339.5,-384.15 336,-374.15 332.5,-384.15 339.5,-384.15"/>
</g>
<!-- 1 -->
<g id="node3" class="node">
<title>1</title>
<ellipse fill="none" stroke="black" cx="367" cy="-605" rx="50.09" ry="18"/>
<text text-anchor="middle" x="367" y="-601.3" font-family="Times,serif" font-size="14.00">Patm (a)</text>
</g>
<!-- 21 -->
<g id="node23" class="node">
<title>21</title>
<ellipse fill="none" stroke="black" cx="367" cy="-522" rx="44.39" ry="18"/>
<text text-anchor="middle" x="367" y="-518.3" font-family="Times,serif" font-size="14.00">P01 (a)</text>
</g>
<!-- 1&#45;&gt;21 -->
<g id="edge21" class="edge">
<title>1&#45;&gt;21</title>
<path fill="none" stroke="black" stroke-dasharray="1,5" d="M367,-586.82C367,-576.19 367,-562.31 367,-550.2"/>
<polygon fill="black" stroke="black" points="370.5,-550.15 367,-540.15 363.5,-550.15 370.5,-550.15"/>
<text text-anchor="middle" x="370.5" y="-561" font-family="Times,serif" font-size="10.00">2</text>
</g>
<!-- 2 -->
<g id="node4" class="node">
<title>2</title>
<ellipse fill="none" stroke="black" cx="485" cy="-605" rx="50.09" ry="18"/>
<text text-anchor="middle" x="485" y="-601.3" font-family="Times,serif" font-size="14.00">V560 (a)</text>
</g>
<!-- 12 -->
<g id="node14" class="node">
<title>12</title>
<ellipse fill="none" stroke="black" cx="485" cy="-522" rx="55.79" ry="18"/>
<text text-anchor="middle" x="485" y="-518.3" font-family="Times,serif" font-size="14.00">V1920 (a)</text>
</g>
<!-- 2&#45;&gt;12 -->
<g id="edge12" class="edge">
<title>2&#45;&gt;12</title>
<path fill="none" stroke="black" stroke-dasharray="5,2" d="M485,-586.82C485,-576.19 485,-562.31 485,-550.2"/>
<polygon fill="black" stroke="black" points="488.5,-550.15 485,-540.15 481.5,-550.15 488.5,-550.15"/>
</g>
<!-- 4 -->
<g id="node6" class="node">
<title>4</title>
<ellipse fill="none" stroke="black" cx="451" cy="-439" rx="44.39" ry="18"/>
<text text-anchor="middle" x="451" y="-435.3" font-family="Times,serif" font-size="14.00">P74 (b)</text>
</g>
<!-- 5 -->
<g id="node7" class="node">
<title>5</title>
<ellipse fill="none" stroke="black" cx="222" cy="-439" rx="42.49" ry="18"/>
<text text-anchor="middle" x="222" y="-435.3" font-family="Times,serif" font-size="14.00">Est (b)</text>
</g>
<!-- 6 -->
<g id="node8" class="node">
<title>6</title>
<ellipse fill="none" stroke="black" cx="541" cy="-200" rx="47.39" ry="18"/>
<text text-anchor="middle" x="541" y="-196.3" font-family="Times,serif" font-size="14.00">Taur (b)</text>
</g>
<!-- 8 -->
<g id="node10" class="node">
<title>8</title>
<ellipse fill="none" stroke="black" cx="529" cy="-117" rx="50.09" ry="18"/>
<text text-anchor="middle" x="529" y="-113.3" font-family="Times,serif" font-size="14.00">Marc (b)</text>
</g>
<!-- 6&#45;&gt;8 -->
<g id="edge9" class="edge">
<title>6&#45;&gt;8</title>
<path fill="none" stroke="black" stroke-dasharray="1,5" d="M538.46,-181.82C536.88,-171.19 534.82,-157.31 533.03,-145.2"/>
<polygon fill="black" stroke="black" points="536.47,-144.53 531.54,-135.15 529.54,-145.56 536.47,-144.53"/>
</g>
<!-- 7 -->
<g id="node9" class="node">
<title>7</title>
<ellipse fill="none" stroke="black" cx="616" cy="-522" rx="55.79" ry="18"/>
<text text-anchor="middle" x="616" y="-518.3" font-family="Times,serif" font-size="14.00">V1897 (b)</text>
</g>
<!-- 7&#45;&gt;5 -->
<g id="edge6" class="edge">
<title>7&#45;&gt;5</title>
<path fill="none" stroke="black" stroke-dasharray="1,5" d="M574.58,-509.77C566.46,-507.73 557.98,-505.7 550,-504 428.31,-478.01 394.8,-486.86 274,-457 270.42,-456.12 266.74,-455.11 263.06,-454.04"/>
<polygon fill="black" stroke="black" points="263.99,-450.67 253.41,-451.09 261.95,-457.36 263.99,-450.67"/>
</g>
<!-- 35 -->
<g id="node37" class="node">
<title>35</title>
<ellipse fill="none" stroke="black" cx="529" cy="-34" rx="41.69" ry="18"/>
<text text-anchor="middle" x="529" y="-30.3" font-family="Times,serif" font-size="14.00">Sin (b)</text>
</g>
<!-- 8&#45;&gt;35 -->
<g id="edge35" class="edge">
<title>8&#45;&gt;35</title>
<path fill="none" stroke="black" stroke-dasharray="1,5" d="M529,-98.82C529,-88.19 529,-74.31 529,-62.2"/>
<polygon fill="black" stroke="black" points="532.5,-62.15 529,-52.15 525.5,-62.15 532.5,-62.15"/>
<text text-anchor="middle" x="532.5" y="-73" font-family="Times,serif" font-size="10.00">2</text>
</g>
<!-- 9 -->
<g id="node11" class="node">
<title>9</title>
<ellipse fill="none" stroke="black" cx="1293" cy="-522" rx="44.39" ry="18"/>
<text text-anchor="middle" x="1293" y="-518.3" font-family="Times,serif" font-size="14.00">B39 (a)</text>
</g>
<!-- 10 -->
<g id="node12" class="node">
<title>10</title>
<ellipse fill="none" stroke="black" cx="650" cy="-117" rx="52.79" ry="18"/>
<text text-anchor="middle" x="650" y="-113.3" font-family="Times,serif" font-size="14.00">M118 (a)</text>
</g>
<!-- 34 -->
<g id="node36" class="node">
<title>34</title>
<ellipse fill="none" stroke="gray" stroke-dasharray="5,2" cx="650" cy="-34" rx="28.7" ry="18"/>
<text text-anchor="middle" x="650" y="-30.3" font-family="Times,serif" font-size="14.00">P18</text>
</g>
<!-- 10&#45;&gt;34 -->
<g id="edge34" class="edge">
<title>10&#45;&gt;34</title>
<path fill="none" stroke="gray" stroke-dasharray="5,2" d="M650,-98.82C650,-88.19 650,-74.31 650,-62.2"/>
<polygon fill="gray" stroke="gray" points="653.5,-62.15 650,-52.15 646.5,-62.15 653.5,-62.15"/>
</g>
<!-- 11 -->
<g id="node13" class="node">
<title>11</title>
<ellipse fill="none" stroke="black" cx="875" cy="-689" rx="53.89" ry="18"/>
<text text-anchor="middle" x="875" y="-685.3" font-family="Times,serif" font-size="14.00">aBase (a)</text>
</g>
<!-- 11&#45;&gt;1 -->
<g id="edge2" class="edge">
<title>11&#45;&gt;1</title>
<path fill="none" stroke="black" d="M823.72,-683.04C739.88,-674.38 568.49,-654.39 426,-623 421.9,-622.1 417.67,-621.07 413.44,-619.98"/>
<polygon fill="black" stroke="black" points="414.2,-616.56 403.64,-617.34 412.38,-623.32 414.2,-616.56"/>
<text text-anchor="middle" x="576.5" y="-644" font-family="Times,serif" font-size="10.00">2</text>
</g>
<!-- 11&#45;&gt;2 -->
<g id="edge3" class="edge">
<title>11&#45;&gt;2</title>
<path fill="none" stroke="black" stroke-width="2" d="M827.86,-680.07C763.4,-668.92 644.33,-647.26 544,-623 539.98,-622.03 535.82,-620.96 531.66,-619.85"/>
<polygon fill="black" stroke="black" stroke-width="2" points="532.58,-616.47 522.01,-617.19 530.72,-623.22 532.58,-616.47"/>
</g>
<!-- 20 -->
<g id="node22" class="node">
<title>20</title>
<ellipse fill="none" stroke="black" cx="618" cy="-605" rx="64.99" ry="18"/>
<text text-anchor="middle" x="618" y="-601.3" font-family="Times,serif" font-size="14.00">Savile&#45;Η (a)</text>
</g>
<!-- 11&#45;&gt;20 -->
<g id="edge20" class="edge">
<title>11&#45;&gt;20</title>
<path fill="none" stroke="black" stroke-width="2" d="M837.35,-675.99C792.78,-661.77 718.35,-638.02 668.73,-622.19"/>
<polygon fill="black" stroke="black" stroke-width="2" points="669.74,-618.84 659.15,-619.13 667.61,-625.5 669.74,-618.84"/>
</g>
<!-- 22 -->
<g id="node24" class="node">
<title>22</title>
<ellipse fill="none" stroke="black" cx="745" cy="-605" rx="44.39" ry="18"/>
<text text-anchor="middle" x="745" y="-601.3" font-family="Times,serif" font-size="14.00">A25 (b)</text>
</g>
<!-- 11&#45;&gt;22 -->
<g id="edge22" class="edge">
<title>11&#45;&gt;22</title>
<path fill="none" stroke="blue" stroke-dasharray="5,2" d="M850.85,-672.77C829.98,-659.6 799.65,-640.47 776.81,-626.06"/>
<polygon fill="blue" stroke="blue" points="778.47,-622.97 768.14,-620.6 774.73,-628.89 778.47,-622.97"/>
</g>
<!-- 24 -->
<g id="node26" class="node">
<title>24</title>
<ellipse fill="none" stroke="gray" stroke-dasharray="5,2" cx="842" cy="-605" rx="34.39" ry="18"/>
<text text-anchor="middle" x="842" y="-601.3" font-family="Times,serif" font-size="14.00">S249</text>
</g>
<!-- 11&#45;&gt;24 -->
<g id="edge24" class="edge">
<title>11&#45;&gt;24</title>
<path fill="none" stroke="gray" d="M868.16,-671.01C863.66,-659.83 857.69,-644.98 852.58,-632.29"/>
<polygon fill="gray" stroke="gray" points="855.7,-630.66 848.72,-622.69 849.2,-633.27 855.7,-630.66"/>
</g>
<!-- 30 -->
<g id="node32" class="node">
<title>30</title>
<ellipse fill="none" stroke="black" cx="950" cy="-605" rx="55.79" ry="18"/>
<text text-anchor="middle" x="950" y="-601.3" font-family="Times,serif" font-size="14.00">V2250 (a)</text>
</g>
<!-- 11&#45;&gt;30 -->
<g id="edge30" class="edge">
<title>11&#45;&gt;30</title>
<path fill="none" stroke="black" stroke-width="2" d="M890.18,-671.41C901.05,-659.51 915.87,-643.31 928.04,-630.01"/>
<polygon fill="black" stroke="black" stroke-width="2" points="930.68,-632.31 934.85,-622.57 925.51,-627.59 930.68,-632.31"/>
<text text-anchor="middle" x="919.5" y="-644" font-family="Times,serif" font-size="10.00">3</text>
</g>
<!-- 32 -->
<g id="node34" class="node">
<title>32</title>
<ellipse fill="none" stroke="black" cx="1064" cy="-605" rx="40.09" ry="18"/>
<text text-anchor="middle" x="1064" y="-601.3" font-family="Times,serif" font-size="14.00">Pal (a)</text>
</g>
<!-- 11&#45;&gt;32 -->
<g id="edge32" class="edge">
<title>11&#45;&gt;32</title>
<path fill="none" stroke="black" d="M906.63,-674.28C939.68,-659.94 991.49,-637.46 1026.55,-622.25"/>
<polygon fill="black" stroke="black" points="1028.19,-625.35 1035.97,-618.16 1025.4,-618.93 1028.19,-625.35"/>
<text text-anchor="middle" x="983.5" y="-644" font-family="Times,serif" font-size="10.00">2</text>
</g>
<!-- 38 -->
<g id="node40" class="node">
<title>38</title>
<ellipse fill="none" stroke="black" cx="1172" cy="-605" rx="50.09" ry="18"/>
<text text-anchor="middle" x="1172" y="-601.3" font-family="Times,serif" font-size="14.00">A116 (a)</text>
</g>
<!-- 11&#45;&gt;38 -->
<g id="edge38" class="edge">
<title>11&#45;&gt;38</title>
<path fill="none" stroke="black" d="M915.9,-677.02C963.35,-664.23 1043.92,-642.38 1113,-623 1116.76,-621.94 1120.65,-620.84 1124.56,-619.73"/>
<polygon fill="black" stroke="black" points="1125.6,-623.07 1134.25,-616.96 1123.68,-616.34 1125.6,-623.07"/>
<text text-anchor="middle" x="1050.5" y="-644" font-family="Times,serif" font-size="10.00">5</text>
</g>
<!-- 39 -->
<g id="node41" class="node">
<title>39</title>
<ellipse fill="none" stroke="black" cx="1293" cy="-605" rx="52.79" ry="18"/>
<text text-anchor="middle" x="1293" y="-601.3" font-family="Times,serif" font-size="14.00">LaSM (a)</text>
</g>
<!-- 11&#45;&gt;39 -->
<g id="edge39" class="edge">
<title>11&#45;&gt;39</title>
<path fill="none" stroke="black" d="M922.77,-680.63C991.35,-669.75 1121.5,-647.96 1231,-623 1235.34,-622.01 1239.83,-620.92 1244.33,-619.77"/>
<polygon fill="black" stroke="black" points="1245.31,-623.14 1254.1,-617.22 1243.54,-616.36 1245.31,-623.14"/>
</g>
<!-- 42 -->
<g id="node44" class="node">
<title>42</title>
<ellipse fill="none" stroke="black" cx="1407" cy="-605" rx="42.79" ry="18"/>
<text text-anchor="middle" x="1407" y="-601.3" font-family="Times,serif" font-size="14.00">Bas (a)</text>
</g>
<!-- 11&#45;&gt;42 -->
<g id="edge42" class="edge">
<title>11&#45;&gt;42</title>
<path fill="none" stroke="black" stroke-width="2" d="M927.05,-684.06C1015.75,-676.67 1201.51,-658.18 1355,-623 1358.44,-622.21 1361.97,-621.3 1365.5,-620.3"/>
<polygon fill="black" stroke="black" stroke-width="2" points="1366.78,-623.57 1375.36,-617.35 1364.77,-616.87 1366.78,-623.57"/>
<text text-anchor="middle" x="1267.5" y="-644" font-family="Times,serif" font-size="10.00">3</text>
</g>
<!-- 13 -->
<g id="node15" class="node">
<title>13</title>
<ellipse fill="none" stroke="black" cx="767" cy="-117" rx="46.29" ry="18"/>
<text text-anchor="middle" x="767" y="-113.3" font-family="Times,serif" font-size="14.00">Mon (a)</text>
</g>
<!-- 14 -->
<g id="node16" class="node">
<title>14</title>
<ellipse fill="none" stroke="gray" stroke-dasharray="5,2" cx="645" cy="-200" rx="36" ry="18"/>
<text text-anchor="middle" x="645" y="-196.3" font-family="Times,serif" font-size="14.00">La2&#45;c</text>
</g>
<!-- 15 -->
<g id="node17" class="node">
<title>15</title>
<ellipse fill="none" stroke="black" cx="569" cy="-439" rx="55.79" ry="18"/>
<text text-anchor="middle" x="569" y="-435.3" font-family="Times,serif" font-size="14.00">V2036 (b)</text>
</g>
<!-- 16 -->
<g id="node18" class="node">
<title>16</title>
<ellipse fill="none" stroke="black" cx="696" cy="-439" rx="53.09" ry="18"/>
<text text-anchor="middle" x="696" y="-435.3" font-family="Times,serif" font-size="14.00">M136 (b)</text>
</g>
<!-- 17 -->
<g id="node19" class="node">
<title>17</title>
<ellipse fill="none" stroke="black" cx="696" cy="-356" rx="50.89" ry="18"/>
<text text-anchor="middle" x="696" y="-352.3" font-family="Times,serif" font-size="14.00">Neap (b)</text>
</g>
<!-- 16&#45;&gt;17 -->
<g id="edge17" class="edge">
<title>16&#45;&gt;17</title>
<path fill="none" stroke="black" stroke-dasharray="5,2" d="M696,-420.82C696,-410.19 696,-396.31 696,-384.2"/>
<polygon fill="black" stroke="black" points="699.5,-384.15 696,-374.15 692.5,-384.15 699.5,-384.15"/>
<text text-anchor="middle" x="699.5" y="-395" font-family="Times,serif" font-size="10.00">2</text>
</g>
<!-- 23 -->
<g id="node25" class="node">
<title>23</title>
<ellipse fill="none" stroke="black" cx="696" cy="-283" rx="55.79" ry="18"/>
<text text-anchor="middle" x="696" y="-279.3" font-family="Times,serif" font-size="14.00">V1629 (b)</text>
</g>
<!-- 17&#45;&gt;23 -->
<g id="edge23" class="edge">
<title>17&#45;&gt;23</title>
<path fill="none" stroke="black" stroke-dasharray="1,5" d="M696,-337.81C696,-329.79 696,-320.05 696,-311.07"/>
<polygon fill="black" stroke="black" points="699.5,-311.03 696,-301.03 692.5,-311.03 699.5,-311.03"/>
</g>
<!-- 18 -->
<g id="node20" class="node">
<title>18</title>
<ellipse fill="none" stroke="black" cx="817" cy="-439" rx="50.09" ry="18"/>
<text text-anchor="middle" x="817" y="-435.3" font-family="Times,serif" font-size="14.00">V565 (b)</text>
</g>
<!-- 19 -->
<g id="node21" class="node">
<title>19</title>
<ellipse fill="none" stroke="black" cx="929" cy="-439" rx="43.59" ry="18"/>
<text text-anchor="middle" x="929" y="-435.3" font-family="Times,serif" font-size="14.00">La2 (b)</text>
</g>
<!-- 22&#45;&gt;7 -->
<g id="edge8" class="edge">
<title>22&#45;&gt;7</title>
<path fill="none" stroke="black" stroke-dasharray="5,2" d="M721.94,-589.52C701.72,-576.82 672.08,-558.22 649.3,-543.91"/>
<polygon fill="black" stroke="black" points="650.95,-540.81 640.62,-538.46 647.23,-546.74 650.95,-540.81"/>
<text text-anchor="middle" x="691.5" y="-561" font-family="Times,serif" font-size="10.00">2</text>
</g>
<!-- 26 -->
<g id="node28" class="node">
<title>26</title>
<ellipse fill="none" stroke="black" cx="742" cy="-522" rx="49.29" ry="18"/>
<text text-anchor="middle" x="742" y="-518.3" font-family="Times,serif" font-size="14.00">La22 (b)</text>
</g>
<!-- 22&#45;&gt;26 -->
<g id="edge26" class="edge">
<title>22&#45;&gt;26</title>
<path fill="none" stroke="black" stroke-dasharray="1,5" d="M744.36,-586.82C743.97,-576.19 743.46,-562.31 743.01,-550.2"/>
<polygon fill="black" stroke="black" points="746.5,-550.02 742.64,-540.15 739.51,-550.28 746.5,-550.02"/>
<text text-anchor="middle" x="746.5" y="-561" font-family="Times,serif" font-size="10.00">2</text>
</g>
<!-- 28 -->
<g id="node30" class="node">
<title>28</title>
<ellipse fill="none" stroke="black" cx="854" cy="-522" rx="44.39" ry="18"/>
<text text-anchor="middle" x="854" y="-518.3" font-family="Times,serif" font-size="14.00">S32 (b)</text>
</g>
<!-- 22&#45;&gt;28 -->
<g id="edge28" class="edge">
<title>22&#45;&gt;28</title>
<path fill="none" stroke="black" stroke-dasharray="5,2" d="M765.25,-588.95C782.12,-576.42 806.35,-558.41 825.24,-544.37"/>
<polygon fill="black" stroke="black" points="827.55,-547.01 833.49,-538.24 823.38,-541.4 827.55,-547.01"/>
</g>
<!-- 36 -->
<g id="node38" class="node">
<title>36</title>
<ellipse fill="none" stroke="black" cx="962" cy="-522" rx="45.49" ry="18"/>
<text text-anchor="middle" x="962" y="-518.3" font-family="Times,serif" font-size="14.00">Nan (b)</text>
</g>
<!-- 22&#45;&gt;36 -->
<g id="edge36" class="edge">
<title>22&#45;&gt;36</title>
<path fill="none" stroke="black" stroke-dasharray="5,2" d="M776.55,-592.22C814.61,-578.02 878.7,-554.09 920.67,-538.43"/>
<polygon fill="black" stroke="black" points="921.91,-541.7 930.05,-534.92 919.46,-535.14 921.91,-541.7"/>
<text text-anchor="middle" x="869.5" y="-561" font-family="Times,serif" font-size="10.00">2</text>
</g>
<!-- 37 -->
<g id="node39" class="node">
<title>37</title>
<ellipse fill="none" stroke="black" cx="1130" cy="-522" rx="50.09" ry="18"/>
<text text-anchor="middle" x="1130" y="-518.3" font-family="Times,serif" font-size="14.00">V566 (b)</text>
</g>
<!-- 22&#45;&gt;37 -->
<g id="edge37" class="edge">
<title>22&#45;&gt;37</title>
<path fill="none" stroke="black" stroke-dasharray="5,2" d="M777.96,-592.97C784.87,-590.84 792.14,-588.74 799,-587 850.69,-573.91 996.48,-547.03 1076.23,-532.62"/>
<polygon fill="black" stroke="black" points="1076.87,-536.07 1086.09,-530.85 1075.63,-529.18 1076.87,-536.07"/>
</g>
<!-- 23&#45;&gt;6 -->
<g id="edge7" class="edge">
<title>23&#45;&gt;6</title>
<path fill="none" stroke="black" stroke-dasharray="5,2" d="M667.93,-267.33C642.38,-253.98 604.52,-234.2 576.8,-219.71"/>
<polygon fill="black" stroke="black" points="578.31,-216.55 567.82,-215.02 575.07,-222.75 578.31,-216.55"/>
<text text-anchor="middle" x="630.5" y="-239" font-family="Times,serif" font-size="10.00">2</text>
</g>
<!-- 23&#45;&gt;14 -->
<g id="edge14" class="edge">
<title>23&#45;&gt;14</title>
<path fill="none" stroke="gray" stroke-width="2" d="M685.43,-265.22C678.34,-253.96 668.87,-238.92 660.88,-226.22"/>
<polygon fill="gray" stroke="gray" stroke-width="2" points="663.67,-224.08 655.38,-217.48 657.75,-227.81 663.67,-224.08"/>
</g>
<!-- 33 -->
<g id="node35" class="node">
<title>33</title>
<ellipse fill="none" stroke="black" cx="749" cy="-200" rx="50.09" ry="18"/>
<text text-anchor="middle" x="749" y="-196.3" font-family="Times,serif" font-size="14.00">V568 (a)</text>
</g>
<!-- 23&#45;&gt;33 -->
<g id="edge33" class="edge">
<title>23&#45;&gt;33</title>
<path fill="none" stroke="blue" stroke-dasharray="5,2" d="M706.98,-265.22C714.3,-254.03 724.06,-239.12 732.33,-226.48"/>
<polygon fill="blue" stroke="blue" points="735.49,-228.05 738.03,-217.76 729.63,-224.21 735.49,-228.05"/>
</g>
<!-- 40 -->
<g id="node42" class="node">
<title>40</title>
<ellipse fill="none" stroke="black" cx="867" cy="-200" rx="50.09" ry="18"/>
<text text-anchor="middle" x="867" y="-196.3" font-family="Times,serif" font-size="14.00">V536 (b)</text>
</g>
<!-- 23&#45;&gt;40 -->
<g id="edge40" class="edge">
<title>23&#45;&gt;40</title>
<path fill="none" stroke="black" stroke-dasharray="5,2" d="M726.18,-267.71C754.77,-254.16 797.81,-233.77 828.78,-219.1"/>
<polygon fill="black" stroke="black" points="830.44,-222.19 837.98,-214.75 827.44,-215.86 830.44,-222.19"/>
</g>
<!-- 25 -->
<g id="node27" class="node">
<title>25</title>
<ellipse fill="none" stroke="black" cx="1041" cy="-439" rx="50.09" ry="18"/>
<text text-anchor="middle" x="1041" y="-435.3" font-family="Times,serif" font-size="14.00">V571 (b)</text>
</g>
<!-- 26&#45;&gt;0 -->
<g id="edge1" class="edge">
<title>26&#45;&gt;0</title>
<path fill="none" stroke="black" stroke-dasharray="1,5" d="M705.07,-509.97C697.17,-507.82 688.84,-505.71 681,-504 630.88,-493.1 617.61,-494.34 567,-486 491.8,-473.61 472.39,-473.54 398,-457 393.83,-456.07 389.53,-455.04 385.22,-453.96"/>
<polygon fill="black" stroke="black" points="385.77,-450.49 375.21,-451.37 384.02,-457.27 385.77,-450.49"/>
</g>
<!-- 26&#45;&gt;4 -->
<g id="edge5" class="edge">
<title>26&#45;&gt;4</title>
<path fill="none" stroke="black" stroke-dasharray="1,5" d="M703.95,-510.32C696.35,-508.21 688.43,-506.02 681,-504 602.46,-482.63 582.11,-479.88 504,-457 500.7,-456.03 497.29,-455.01 493.88,-453.96"/>
<polygon fill="black" stroke="black" points="494.87,-450.6 484.28,-450.96 492.78,-457.28 494.87,-450.6"/>
</g>
<!-- 26&#45;&gt;15 -->
<g id="edge15" class="edge">
<title>26&#45;&gt;15</title>
<path fill="none" stroke="black" stroke-dasharray="5,2" d="M712.65,-507.26C684.08,-493.88 640.46,-473.46 608.78,-458.63"/>
<polygon fill="black" stroke="black" points="609.91,-455.29 599.36,-454.22 606.94,-461.63 609.91,-455.29"/>
</g>
<!-- 26&#45;&gt;16 -->
<g id="edge16" class="edge">
<title>26&#45;&gt;16</title>
<path fill="none" stroke="black" d="M732.47,-504.22C726.12,-493.03 717.65,-478.12 710.47,-465.48"/>
<polygon fill="black" stroke="black" points="713.5,-463.73 705.52,-456.76 707.41,-467.19 713.5,-463.73"/>
<text text-anchor="middle" x="724.5" y="-478" font-family="Times,serif" font-size="10.00">2</text>
</g>
<!-- 26&#45;&gt;18 -->
<g id="edge18" class="edge">
<title>26&#45;&gt;18</title>
<path fill="none" stroke="black" stroke-dasharray="5,2" d="M757.18,-504.61C768.05,-492.86 782.87,-476.86 795.04,-463.72"/>
<polygon fill="black" stroke="black" points="797.62,-466.08 801.85,-456.37 792.48,-461.33 797.62,-466.08"/>
</g>
<!-- 26&#45;&gt;19 -->
<g id="edge19" class="edge">
<title>26&#45;&gt;19</title>
<path fill="none" stroke="black" d="M772.46,-507.81C804.72,-493.83 855.72,-471.74 890.68,-456.6"/>
<polygon fill="black" stroke="black" points="892.3,-459.71 900.09,-452.52 889.52,-453.29 892.3,-459.71"/>
<text text-anchor="middle" x="849.5" y="-478" font-family="Times,serif" font-size="10.00">2</text>
</g>
<!-- 26&#45;&gt;25 -->
<g id="edge25" class="edge">
<title>26&#45;&gt;25</title>
<path fill="none" stroke="black" stroke-dasharray="1,5" d="M779.41,-510.06C786.57,-508.01 794.01,-505.91 801,-504 881.16,-482.05 901.84,-478.95 982,-457 985.77,-455.97 989.66,-454.88 993.58,-453.78"/>
<polygon fill="black" stroke="black" points="994.61,-457.13 1003.27,-451.03 992.7,-450.39 994.61,-457.13"/>
</g>
<!-- 27 -->
<g id="node29" class="node">
<title>27</title>
<ellipse fill="none" stroke="black" cx="1158" cy="-439" rx="49.29" ry="18"/>
<text text-anchor="middle" x="1158" y="-435.3" font-family="Times,serif" font-size="14.00">La35 (b)</text>
</g>
<!-- 26&#45;&gt;27 -->
<g id="edge27" class="edge">
<title>26&#45;&gt;27</title>
<path fill="none" stroke="black" stroke-dasharray="1,5" d="M778.33,-509.76C785.78,-507.68 793.61,-505.64 801,-504 932.33,-474.88 968.74,-486.42 1100,-457 1103.92,-456.12 1107.96,-455.13 1112.01,-454.07"/>
<polygon fill="black" stroke="black" points="1113.27,-457.35 1121.99,-451.34 1111.42,-450.6 1113.27,-457.35"/>
</g>
<!-- 41 -->
<g id="node43" class="node">
<title>41</title>
<ellipse fill="none" stroke="black" cx="1273" cy="-439" rx="47.39" ry="18"/>
<text text-anchor="middle" x="1273" y="-435.3" font-family="Times,serif" font-size="14.00">Bodl (b)</text>
</g>
<!-- 26&#45;&gt;41 -->
<g id="edge41" class="edge">
<title>26&#45;&gt;41</title>
<path fill="none" stroke="black" stroke-dasharray="5,2" d="M777.96,-509.6C785.51,-507.5 793.47,-505.5 801,-504 846.51,-494.93 1170.53,-466.28 1216,-457 1220.1,-456.16 1224.33,-455.17 1228.54,-454.08"/>
<polygon fill="black" stroke="black" points="1229.56,-457.43 1238.28,-451.42 1227.71,-450.68 1229.56,-457.43"/>
</g>
<!-- 29 -->
<g id="node31" class="node">
<title>29</title>
<ellipse fill="none" stroke="black" cx="881" cy="-117" rx="50.09" ry="18"/>
<text text-anchor="middle" x="881" y="-113.3" font-family="Times,serif" font-size="14.00">V569 (a)</text>
</g>
<!-- 31 -->
<g id="node33" class="node">
<title>31</title>
<ellipse fill="none" stroke="black" cx="1394" cy="-439" rx="55.79" ry="18"/>
<text text-anchor="middle" x="1394" y="-435.3" font-family="Times,serif" font-size="14.00">V1639 (b)</text>
</g>
<!-- 33&#45;&gt;10 -->
<g id="edge11" class="edge">
<title>33&#45;&gt;10</title>
<path fill="none" stroke="black" stroke-dasharray="5,2" d="M729.44,-183C714.53,-170.79 693.8,-153.84 677.26,-140.3"/>
<polygon fill="black" stroke="black" points="679.47,-137.59 669.52,-133.97 675.04,-143.01 679.47,-137.59"/>
<text text-anchor="middle" x="708.5" y="-156" font-family="Times,serif" font-size="10.00">2</text>
</g>
<!-- 33&#45;&gt;13 -->
<g id="edge13" class="edge">
<title>33&#45;&gt;13</title>
<path fill="none" stroke="black" stroke-dasharray="1,5" d="M752.82,-181.82C755.18,-171.19 758.27,-157.31 760.95,-145.2"/>
<polygon fill="black" stroke="black" points="764.44,-145.67 763.19,-135.15 757.6,-144.16 764.44,-145.67"/>
<text text-anchor="middle" x="762.5" y="-156" font-family="Times,serif" font-size="10.00">3</text>
</g>
<!-- 33&#45;&gt;29 -->
<g id="edge29" class="edge">
<title>33&#45;&gt;29</title>
<path fill="none" stroke="black" stroke-dasharray="5,2" d="M773.21,-184.14C794.11,-171.32 824.49,-152.67 847.68,-138.45"/>
<polygon fill="black" stroke="black" points="849.8,-141.25 856.5,-133.04 846.14,-135.28 849.8,-141.25"/>
<text text-anchor="middle" x="825.5" y="-156" font-family="Times,serif" font-size="10.00">2</text>
</g>
<!-- 37&#45;&gt;31 -->
<g id="edge31" class="edge">
<title>37&#45;&gt;31</title>
<path fill="none" stroke="black" stroke-dasharray="1,5" d="M1166.71,-509.74C1213.29,-495.44 1293.79,-470.75 1345.42,-454.9"/>
<polygon fill="black" stroke="black" points="1346.49,-458.24 1355.03,-451.96 1344.44,-451.54 1346.49,-458.24"/>
</g>
<!-- 39&#45;&gt;9 -->
<g id="edge10" class="edge">
<title>39&#45;&gt;9</title>
<path fill="none" stroke="black" stroke-dasharray="5,2" d="M1293,-586.82C1293,-576.19 1293,-562.31 1293,-550.2"/>
<polygon fill="black" stroke="black" points="1296.5,-550.15 1293,-540.15 1289.5,-550.15 1296.5,-550.15"/>
</g>
</g>
</svg>
