<?xml version="1.0" encoding="UTF-8" standalone="no"?>
<!DOCTYPE svg PUBLIC "-//W3C//DTD SVG 1.1//EN"
 "http://www.w3.org/Graphics/SVG/1.1/DTD/svg11.dtd">
<!-- Generated by graphviz version 2.43.0 (0)
 -->
<!-- Title: textual_flow Pages: 1 -->
<svg width="2366pt" height="599pt"
 viewBox="0.00 0.00 2366.00 599.00" xmlns="http://www.w3.org/2000/svg" xmlns:xlink="http://www.w3.org/1999/xlink">
<g id="graph0" class="graph" transform="scale(1 1) rotate(0) translate(4 595)">
<title>textual_flow</title>
<polygon fill="white" stroke="transparent" points="-4,4 -4,-595 2362,-595 2362,4 -4,4"/>
<g id="clust1" class="cluster">
<title>cluster_legend</title>
<polygon fill="none" stroke="black" points="8,-529 8,-583 156,-583 156,-529 8,-529"/>
</g>
<g id="clust2" class="cluster">
<title>cluster_plot</title>
</g>
<!-- label -->
<g id="node1" class="node">
<title>label</title>
<text text-anchor="middle" x="82" y="-559.8" font-family="Times,serif" font-size="14.00">adstag1.3.1U20</text>
<text text-anchor="middle" x="82" y="-544.8" font-family="Times,serif" font-size="14.00">Con = 5</text>
</g>
<!-- 0 -->
<g id="node2" class="node">
<title>0</title>
<ellipse fill="none" stroke="black" cx="1235" cy="-409" rx="52.79" ry="18"/>
<text text-anchor="middle" x="1235" y="-405.3" font-family="Times,serif" font-size="14.00">M111 (a)</text>
</g>
<!-- 3 -->
<g id="node5" class="node">
<title>3</title>
<ellipse fill="none" stroke="black" cx="1236" cy="-336" rx="50.09" ry="18"/>
<text text-anchor="middle" x="1236" y="-332.3" font-family="Times,serif" font-size="14.00">A336 (a)</text>
</g>
<!-- 0&#45;&gt;3 -->
<g id="edge4" class="edge">
<title>0&#45;&gt;3</title>
<path fill="none" stroke="black" stroke-dasharray="5,2" d="M1235.24,-390.81C1235.36,-382.79 1235.49,-373.05 1235.62,-364.07"/>
<polygon fill="black" stroke="black" points="1239.12,-364.08 1235.76,-354.03 1232.12,-363.98 1239.12,-364.08"/>
</g>
<!-- 1 -->
<g id="node3" class="node">
<title>1</title>
<ellipse fill="none" stroke="black" cx="686" cy="-409" rx="50.09" ry="18"/>
<text text-anchor="middle" x="686" y="-405.3" font-family="Times,serif" font-size="14.00">Patm (a)</text>
</g>
<!-- 2 -->
<g id="node4" class="node">
<title>2</title>
<ellipse fill="none" stroke="black" cx="251" cy="-482" rx="50.09" ry="18"/>
<text text-anchor="middle" x="251" y="-478.3" font-family="Times,serif" font-size="14.00">V560 (a)</text>
</g>
<!-- 12 -->
<g id="node14" class="node">
<title>12</title>
<ellipse fill="none" stroke="black" cx="228" cy="-409" rx="55.79" ry="18"/>
<text text-anchor="middle" x="228" y="-405.3" font-family="Times,serif" font-size="14.00">V1920 (a)</text>
</g>
<!-- 2&#45;&gt;12 -->
<g id="edge12" class="edge">
<title>2&#45;&gt;12</title>
<path fill="none" stroke="black" stroke-dasharray="5,2" d="M245.43,-463.81C242.8,-455.7 239.61,-445.84 236.67,-436.78"/>
<polygon fill="black" stroke="black" points="239.93,-435.46 233.52,-427.03 233.27,-437.62 239.93,-435.46"/>
</g>
<!-- 4 -->
<g id="node6" class="node">
<title>4</title>
<ellipse fill="none" stroke="black" cx="1350" cy="-409" rx="44.39" ry="18"/>
<text text-anchor="middle" x="1350" y="-405.3" font-family="Times,serif" font-size="14.00">P74 (a)</text>
</g>
<!-- 5 -->
<g id="node7" class="node">
<title>5</title>
<ellipse fill="none" stroke="black" cx="343" cy="-409" rx="41.69" ry="18"/>
<text text-anchor="middle" x="343" y="-405.3" font-family="Times,serif" font-size="14.00">Est (a)</text>
</g>
<!-- 6 -->
<g id="node8" class="node">
<title>6</title>
<ellipse fill="none" stroke="black" cx="515" cy="-253" rx="47.39" ry="18"/>
<text text-anchor="middle" x="515" y="-249.3" font-family="Times,serif" font-size="14.00">Taur (b)</text>
</g>
<!-- 8 -->
<g id="node10" class="node">
<title>8</title>
<ellipse fill="none" stroke="black" cx="413" cy="-180" rx="49.29" ry="18"/>
<text text-anchor="middle" x="413" y="-176.3" font-family="Times,serif" font-size="14.00">Marc (c)</text>
</g>
<!-- 6&#45;&gt;8 -->
<g id="edge9" class="edge">
<title>6&#45;&gt;8</title>
<path fill="none" stroke="blue" stroke-dasharray="1,5" d="M493.37,-236.94C478.86,-226.85 459.55,-213.4 443.49,-202.22"/>
<polygon fill="blue" stroke="blue" points="445.16,-199.12 434.95,-196.28 441.16,-204.87 445.16,-199.12"/>
</g>
<!-- 29 -->
<g id="node31" class="node">
<title>29</title>
<ellipse fill="none" stroke="black" cx="530" cy="-180" rx="50.09" ry="18"/>
<text text-anchor="middle" x="530" y="-176.3" font-family="Times,serif" font-size="14.00">V569 (b)</text>
</g>
<!-- 6&#45;&gt;29 -->
<g id="edge29" class="edge">
<title>6&#45;&gt;29</title>
<path fill="none" stroke="black" stroke-dasharray="5,2" d="M518.63,-234.81C520.33,-226.79 522.38,-217.05 524.28,-208.07"/>
<polygon fill="black" stroke="black" points="527.76,-208.54 526.4,-198.03 520.91,-207.09 527.76,-208.54"/>
</g>
<!-- 7 -->
<g id="node9" class="node">
<title>7</title>
<ellipse fill="none" stroke="black" cx="411" cy="-482" rx="55.79" ry="18"/>
<text text-anchor="middle" x="411" y="-478.3" font-family="Times,serif" font-size="14.00">V1897 (a)</text>
</g>
<!-- 7&#45;&gt;5 -->
<g id="edge6" class="edge">
<title>7&#45;&gt;5</title>
<path fill="none" stroke="black" stroke-dasharray="1,5" d="M395.23,-464.53C386.35,-455.26 375.12,-443.53 365.34,-433.33"/>
<polygon fill="black" stroke="black" points="367.66,-430.69 358.22,-425.89 362.61,-435.53 367.66,-430.69"/>
</g>
<!-- 42 -->
<g id="node44" class="node">
<title>42</title>
<ellipse fill="none" stroke="black" cx="445" cy="-409" rx="42.79" ry="18"/>
<text text-anchor="middle" x="445" y="-405.3" font-family="Times,serif" font-size="14.00">Bas (a)</text>
</g>
<!-- 7&#45;&gt;42 -->
<g id="edge42" class="edge">
<title>7&#45;&gt;42</title>
<path fill="none" stroke="black" d="M419.06,-464.17C423.12,-455.69 428.14,-445.21 432.68,-435.73"/>
<polygon fill="black" stroke="black" points="435.84,-437.24 437,-426.71 429.52,-434.21 435.84,-437.24"/>
</g>
<!-- 13 -->
<g id="node15" class="node">
<title>13</title>
<ellipse fill="none" stroke="black" cx="413" cy="-107" rx="46.29" ry="18"/>
<text text-anchor="middle" x="413" y="-103.3" font-family="Times,serif" font-size="14.00">Mon (e)</text>
</g>
<!-- 8&#45;&gt;13 -->
<g id="edge13" class="edge">
<title>8&#45;&gt;13</title>
<path fill="none" stroke="blue" stroke-dasharray="1,5" d="M413,-161.81C413,-153.79 413,-144.05 413,-135.07"/>
<polygon fill="blue" stroke="blue" points="416.5,-135.03 413,-125.03 409.5,-135.03 416.5,-135.03"/>
</g>
<!-- 9 -->
<g id="node11" class="node">
<title>9</title>
<ellipse fill="none" stroke="black" cx="2298" cy="-409" rx="44.39" ry="18"/>
<text text-anchor="middle" x="2298" y="-405.3" font-family="Times,serif" font-size="14.00">B39 (a)</text>
</g>
<!-- 10 -->
<g id="node12" class="node">
<title>10</title>
<ellipse fill="none" stroke="black" cx="633" cy="-253" rx="52.79" ry="18"/>
<text text-anchor="middle" x="633" y="-249.3" font-family="Times,serif" font-size="14.00">M118 (a)</text>
</g>
<!-- 34 -->
<g id="node36" class="node">
<title>34</title>
<ellipse fill="none" stroke="gray" stroke-dasharray="5,2" cx="633" cy="-180" rx="28.7" ry="18"/>
<text text-anchor="middle" x="633" y="-176.3" font-family="Times,serif" font-size="14.00">P18</text>
</g>
<!-- 10&#45;&gt;34 -->
<g id="edge34" class="edge">
<title>10&#45;&gt;34</title>
<path fill="none" stroke="gray" stroke-dasharray="5,2" d="M633,-234.81C633,-226.79 633,-217.05 633,-208.07"/>
<polygon fill="gray" stroke="gray" points="636.5,-208.03 633,-198.03 629.5,-208.03 636.5,-208.03"/>
</g>
<!-- 11 -->
<g id="node13" class="node">
<title>11</title>
<ellipse fill="none" stroke="black" cx="881" cy="-556" rx="53.89" ry="18"/>
<text text-anchor="middle" x="881" y="-552.3" font-family="Times,serif" font-size="14.00">aBase (a)</text>
</g>
<!-- 11&#45;&gt;2 -->
<g id="edge3" class="edge">
<title>11&#45;&gt;2</title>
<path fill="none" stroke="black" stroke-width="2" d="M829.2,-550.97C733.49,-543.23 522.6,-524.84 346,-500 332.38,-498.08 317.73,-495.65 304.11,-493.23"/>
<polygon fill="black" stroke="black" stroke-width="2" points="304.39,-489.72 293.93,-491.38 303.14,-496.61 304.39,-489.72"/>
</g>
<!-- 11&#45;&gt;7 -->
<g id="edge8" class="edge">
<title>11&#45;&gt;7</title>
<path fill="none" stroke="black" d="M829.84,-550.06C752.69,-542.15 602.16,-524.97 476,-500 471.31,-499.07 466.46,-498.01 461.62,-496.87"/>
<polygon fill="black" stroke="black" points="462.29,-493.43 451.74,-494.46 460.63,-500.23 462.29,-493.43"/>
</g>
<!-- 16 -->
<g id="node18" class="node">
<title>16</title>
<ellipse fill="none" stroke="black" cx="538" cy="-482" rx="52.79" ry="18"/>
<text text-anchor="middle" x="538" y="-478.3" font-family="Times,serif" font-size="14.00">M136 (a)</text>
</g>
<!-- 11&#45;&gt;16 -->
<g id="edge16" class="edge">
<title>11&#45;&gt;16</title>
<path fill="none" stroke="black" stroke-width="2" d="M834.04,-546.91C778.05,-537.01 681.79,-519.19 600,-500 595.67,-498.98 591.18,-497.87 586.69,-496.72"/>
<polygon fill="black" stroke="black" stroke-width="2" points="587.48,-493.3 576.91,-494.14 585.69,-500.07 587.48,-493.3"/>
</g>
<!-- 17 -->
<g id="node19" class="node">
<title>17</title>
<ellipse fill="none" stroke="black" cx="659" cy="-482" rx="50.09" ry="18"/>
<text text-anchor="middle" x="659" y="-478.3" font-family="Times,serif" font-size="14.00">Neap (a)</text>
</g>
<!-- 11&#45;&gt;17 -->
<g id="edge17" class="edge">
<title>11&#45;&gt;17</title>
<path fill="none" stroke="black" stroke-width="2" d="M843.84,-542.95C805.45,-530.5 745.48,-511.05 704.32,-497.7"/>
<polygon fill="black" stroke="black" stroke-width="2" points="705.4,-494.37 694.81,-494.61 703.24,-501.03 705.4,-494.37"/>
</g>
<!-- 19 -->
<g id="node21" class="node">
<title>19</title>
<ellipse fill="none" stroke="black" cx="770" cy="-482" rx="42.79" ry="18"/>
<text text-anchor="middle" x="770" y="-478.3" font-family="Times,serif" font-size="14.00">La2 (a)</text>
</g>
<!-- 11&#45;&gt;19 -->
<g id="edge19" class="edge">
<title>11&#45;&gt;19</title>
<path fill="none" stroke="black" stroke-width="2" d="M857.46,-539.73C840.94,-529.02 818.7,-514.59 800.78,-502.96"/>
<polygon fill="black" stroke="black" stroke-width="2" points="802.66,-500.02 792.37,-497.51 798.86,-505.89 802.66,-500.02"/>
</g>
<!-- 20 -->
<g id="node22" class="node">
<title>20</title>
<ellipse fill="none" stroke="gray" stroke-dasharray="5,2" cx="881" cy="-482" rx="50.09" ry="18"/>
<text text-anchor="middle" x="881" y="-478.3" font-family="Times,serif" font-size="14.00">Savile&#45;Η</text>
</g>
<!-- 11&#45;&gt;20 -->
<g id="edge20" class="edge">
<title>11&#45;&gt;20</title>
<path fill="none" stroke="gray" stroke-width="2" d="M881,-537.94C881,-529.81 881,-519.88 881,-510.7"/>
<polygon fill="gray" stroke="gray" stroke-width="2" points="884.5,-510.44 881,-500.44 877.5,-510.44 884.5,-510.44"/>
</g>
<!-- 22 -->
<g id="node24" class="node">
<title>22</title>
<ellipse fill="none" stroke="black" cx="993" cy="-482" rx="44.39" ry="18"/>
<text text-anchor="middle" x="993" y="-478.3" font-family="Times,serif" font-size="14.00">A25 (a)</text>
</g>
<!-- 11&#45;&gt;22 -->
<g id="edge22" class="edge">
<title>11&#45;&gt;22</title>
<path fill="none" stroke="black" stroke-dasharray="5,2" d="M904.75,-539.73C921.42,-529.02 943.86,-514.59 961.95,-502.96"/>
<polygon fill="black" stroke="black" points="963.91,-505.86 970.43,-497.51 960.12,-499.97 963.91,-505.86"/>
</g>
<!-- 24 -->
<g id="node26" class="node">
<title>24</title>
<ellipse fill="none" stroke="gray" stroke-dasharray="5,2" cx="1090" cy="-482" rx="34.39" ry="18"/>
<text text-anchor="middle" x="1090" y="-478.3" font-family="Times,serif" font-size="14.00">S249</text>
</g>
<!-- 11&#45;&gt;24 -->
<g id="edge24" class="edge">
<title>11&#45;&gt;24</title>
<path fill="none" stroke="gray" d="M918.53,-543.05C952.08,-532.23 1002.53,-515.63 1046,-500 1048.51,-499.1 1051.1,-498.15 1053.7,-497.18"/>
<polygon fill="gray" stroke="gray" points="1054.97,-500.44 1063.08,-493.63 1052.49,-493.89 1054.97,-500.44"/>
</g>
<!-- 26 -->
<g id="node28" class="node">
<title>26</title>
<ellipse fill="none" stroke="black" cx="1592" cy="-482" rx="48.99" ry="18"/>
<text text-anchor="middle" x="1592" y="-478.3" font-family="Times,serif" font-size="14.00">La22 (a)</text>
</g>
<!-- 11&#45;&gt;26 -->
<g id="edge26" class="edge">
<title>11&#45;&gt;26</title>
<path fill="none" stroke="black" stroke-dasharray="5,2" d="M931.85,-549.85C1060.86,-536.79 1400.26,-502.42 1535.35,-488.74"/>
<polygon fill="black" stroke="black" points="1535.89,-492.2 1545.48,-487.71 1535.18,-485.24 1535.89,-492.2"/>
</g>
<!-- 36 -->
<g id="node38" class="node">
<title>36</title>
<ellipse fill="none" stroke="black" cx="1722" cy="-482" rx="44.69" ry="18"/>
<text text-anchor="middle" x="1722" y="-478.3" font-family="Times,serif" font-size="14.00">Nan (a)</text>
</g>
<!-- 11&#45;&gt;36 -->
<g id="edge36" class="edge">
<title>11&#45;&gt;36</title>
<path fill="none" stroke="black" d="M934.94,-554.11C1060.86,-551.39 1383.72,-540.69 1650,-500 1658.4,-498.72 1667.26,-496.96 1675.79,-495.07"/>
<polygon fill="black" stroke="black" points="1676.64,-498.46 1685.59,-492.79 1675.06,-491.64 1676.64,-498.46"/>
</g>
<!-- 39 -->
<g id="node41" class="node">
<title>39</title>
<ellipse fill="none" stroke="black" cx="1846" cy="-482" rx="52.79" ry="18"/>
<text text-anchor="middle" x="1846" y="-478.3" font-family="Times,serif" font-size="14.00">LaSM (a)</text>
</g>
<!-- 11&#45;&gt;39 -->
<g id="edge39" class="edge">
<title>11&#45;&gt;39</title>
<path fill="none" stroke="black" d="M933.95,-552.27C1042.68,-546.6 1298.98,-532.91 1514,-519 1630.51,-511.46 1660.66,-518.06 1776,-500 1782.64,-498.96 1789.58,-497.61 1796.4,-496.12"/>
<polygon fill="black" stroke="black" points="1797.28,-499.51 1806.25,-493.86 1795.72,-492.68 1797.28,-499.51"/>
</g>
<!-- 35 -->
<g id="node37" class="node">
<title>35</title>
<ellipse fill="none" stroke="black" cx="413" cy="-34" rx="41.69" ry="18"/>
<text text-anchor="middle" x="413" y="-30.3" font-family="Times,serif" font-size="14.00">Sin (d)</text>
</g>
<!-- 13&#45;&gt;35 -->
<g id="edge35" class="edge">
<title>13&#45;&gt;35</title>
<path fill="none" stroke="blue" stroke-dasharray="1,5" d="M413,-88.81C413,-80.79 413,-71.05 413,-62.07"/>
<polygon fill="blue" stroke="blue" points="416.5,-62.03 413,-52.03 409.5,-62.03 416.5,-62.03"/>
</g>
<!-- 14 -->
<g id="node16" class="node">
<title>14</title>
<ellipse fill="none" stroke="gray" stroke-dasharray="5,2" cx="458" cy="-336" rx="36" ry="18"/>
<text text-anchor="middle" x="458" y="-332.3" font-family="Times,serif" font-size="14.00">La2&#45;c</text>
</g>
<!-- 15 -->
<g id="node17" class="node">
<title>15</title>
<ellipse fill="none" stroke="black" cx="1468" cy="-409" rx="55.79" ry="18"/>
<text text-anchor="middle" x="1468" y="-405.3" font-family="Times,serif" font-size="14.00">V2036 (a)</text>
</g>
<!-- 23 -->
<g id="node25" class="node">
<title>23</title>
<ellipse fill="none" stroke="black" cx="562" cy="-409" rx="55.79" ry="18"/>
<text text-anchor="middle" x="562" y="-405.3" font-family="Times,serif" font-size="14.00">V1629 (a)</text>
</g>
<!-- 17&#45;&gt;23 -->
<g id="edge23" class="edge">
<title>17&#45;&gt;23</title>
<path fill="none" stroke="black" stroke-dasharray="1,5" d="M637.95,-465.59C624.54,-455.78 606.95,-442.9 592.07,-432.01"/>
<polygon fill="black" stroke="black" points="593.81,-428.95 583.68,-425.87 589.68,-434.6 593.81,-428.95"/>
</g>
<!-- 18 -->
<g id="node20" class="node">
<title>18</title>
<ellipse fill="none" stroke="black" cx="1592" cy="-409" rx="50.09" ry="18"/>
<text text-anchor="middle" x="1592" y="-405.3" font-family="Times,serif" font-size="14.00">V565 (a)</text>
</g>
<!-- 21 -->
<g id="node23" class="node">
<title>21</title>
<ellipse fill="none" stroke="black" cx="798" cy="-409" rx="44.39" ry="18"/>
<text text-anchor="middle" x="798" y="-405.3" font-family="Times,serif" font-size="14.00">P01 (a)</text>
</g>
<!-- 22&#45;&gt;1 -->
<g id="edge2" class="edge">
<title>22&#45;&gt;1</title>
<path fill="none" stroke="black" stroke-dasharray="1,5" d="M960.39,-469.85C953.69,-467.75 946.65,-465.69 940,-464 854.51,-442.27 830.81,-447.46 745,-427 740.98,-426.04 736.82,-424.98 732.65,-423.87"/>
<polygon fill="black" stroke="black" points="733.57,-420.5 723,-421.23 731.72,-427.25 733.57,-420.5"/>
</g>
<!-- 22&#45;&gt;21 -->
<g id="edge21" class="edge">
<title>22&#45;&gt;21</title>
<path fill="none" stroke="black" stroke-dasharray="5,2" d="M961.24,-469.43C928.09,-457.37 875.97,-438.39 839.57,-425.14"/>
<polygon fill="black" stroke="black" points="840.34,-421.69 829.75,-421.56 837.95,-428.27 840.34,-421.69"/>
</g>
<!-- 28 -->
<g id="node30" class="node">
<title>28</title>
<ellipse fill="none" stroke="black" cx="904" cy="-409" rx="44.39" ry="18"/>
<text text-anchor="middle" x="904" y="-405.3" font-family="Times,serif" font-size="14.00">S32 (b)</text>
</g>
<!-- 22&#45;&gt;28 -->
<g id="edge28" class="edge">
<title>22&#45;&gt;28</title>
<path fill="none" stroke="blue" stroke-dasharray="5,2" d="M973.69,-465.59C961.33,-455.73 945.1,-442.78 931.41,-431.87"/>
<polygon fill="blue" stroke="blue" points="933.27,-428.88 923.27,-425.38 928.91,-434.35 933.27,-428.88"/>
</g>
<!-- 32 -->
<g id="node34" class="node">
<title>32</title>
<ellipse fill="none" stroke="black" cx="1006" cy="-409" rx="40.09" ry="18"/>
<text text-anchor="middle" x="1006" y="-405.3" font-family="Times,serif" font-size="14.00">Pal (a)</text>
</g>
<!-- 22&#45;&gt;32 -->
<g id="edge32" class="edge">
<title>22&#45;&gt;32</title>
<path fill="none" stroke="black" stroke-dasharray="5,2" d="M996.15,-463.81C997.62,-455.79 999.4,-446.05 1001.04,-437.07"/>
<polygon fill="black" stroke="black" points="1004.52,-437.5 1002.88,-427.03 997.64,-436.23 1004.52,-437.5"/>
</g>
<!-- 37 -->
<g id="node39" class="node">
<title>37</title>
<ellipse fill="none" stroke="black" cx="1114" cy="-409" rx="50.09" ry="18"/>
<text text-anchor="middle" x="1114" y="-405.3" font-family="Times,serif" font-size="14.00">V566 (a)</text>
</g>
<!-- 22&#45;&gt;37 -->
<g id="edge37" class="edge">
<title>22&#45;&gt;37</title>
<path fill="none" stroke="black" stroke-dasharray="5,2" d="M1017.2,-466.8C1035.26,-456.2 1060.17,-441.59 1080.2,-429.83"/>
<polygon fill="black" stroke="black" points="1082.16,-432.74 1089.01,-424.66 1078.62,-426.7 1082.16,-432.74"/>
</g>
<!-- 23&#45;&gt;14 -->
<g id="edge14" class="edge">
<title>23&#45;&gt;14</title>
<path fill="none" stroke="gray" stroke-width="2" d="M539.18,-392.42C523.84,-381.95 503.5,-368.06 487.01,-356.81"/>
<polygon fill="gray" stroke="gray" stroke-width="2" points="488.54,-353.61 478.31,-350.86 484.59,-359.39 488.54,-353.61"/>
</g>
<!-- 33 -->
<g id="node35" class="node">
<title>33</title>
<ellipse fill="none" stroke="black" cx="562" cy="-336" rx="50.09" ry="18"/>
<text text-anchor="middle" x="562" y="-332.3" font-family="Times,serif" font-size="14.00">V568 (a)</text>
</g>
<!-- 23&#45;&gt;33 -->
<g id="edge33" class="edge">
<title>23&#45;&gt;33</title>
<path fill="none" stroke="black" stroke-dasharray="5,2" d="M562,-390.81C562,-382.79 562,-373.05 562,-364.07"/>
<polygon fill="black" stroke="black" points="565.5,-364.03 562,-354.03 558.5,-364.03 565.5,-364.03"/>
</g>
<!-- 40 -->
<g id="node42" class="node">
<title>40</title>
<ellipse fill="none" stroke="black" cx="680" cy="-336" rx="50.09" ry="18"/>
<text text-anchor="middle" x="680" y="-332.3" font-family="Times,serif" font-size="14.00">V536 (a)</text>
</g>
<!-- 23&#45;&gt;40 -->
<g id="edge40" class="edge">
<title>23&#45;&gt;40</title>
<path fill="none" stroke="black" stroke-dasharray="5,2" d="M587.31,-392.77C604.74,-382.29 628.05,-368.26 646.94,-356.89"/>
<polygon fill="black" stroke="black" points="648.77,-359.87 655.54,-351.72 645.16,-353.88 648.77,-359.87"/>
</g>
<!-- 25 -->
<g id="node27" class="node">
<title>25</title>
<ellipse fill="none" stroke="black" cx="1710" cy="-409" rx="50.09" ry="18"/>
<text text-anchor="middle" x="1710" y="-405.3" font-family="Times,serif" font-size="14.00">V571 (a)</text>
</g>
<!-- 26&#45;&gt;0 -->
<g id="edge1" class="edge">
<title>26&#45;&gt;0</title>
<path fill="none" stroke="black" stroke-dasharray="1,5" d="M1547.78,-474.13C1489.87,-464.86 1385.33,-447.15 1297,-427 1292.66,-426.01 1288.17,-424.92 1283.67,-423.77"/>
<polygon fill="black" stroke="black" points="1284.46,-420.36 1273.9,-421.22 1282.69,-427.13 1284.46,-420.36"/>
</g>
<!-- 26&#45;&gt;4 -->
<g id="edge5" class="edge">
<title>26&#45;&gt;4</title>
<path fill="none" stroke="black" stroke-dasharray="1,5" d="M1554.24,-470.6C1516.02,-459.97 1455.25,-442.84 1403,-427 1399.71,-426 1396.31,-424.95 1392.9,-423.89"/>
<polygon fill="black" stroke="black" points="1393.9,-420.53 1383.31,-420.86 1391.79,-427.21 1393.9,-420.53"/>
</g>
<!-- 26&#45;&gt;15 -->
<g id="edge15" class="edge">
<title>26&#45;&gt;15</title>
<path fill="none" stroke="black" stroke-dasharray="5,2" d="M1566.61,-466.46C1548.3,-455.98 1523.35,-441.69 1503.13,-430.11"/>
<polygon fill="black" stroke="black" points="1504.63,-426.94 1494.21,-425.01 1501.15,-433.02 1504.63,-426.94"/>
</g>
<!-- 26&#45;&gt;18 -->
<g id="edge18" class="edge">
<title>26&#45;&gt;18</title>
<path fill="none" stroke="black" stroke-dasharray="5,2" d="M1592,-463.81C1592,-455.79 1592,-446.05 1592,-437.07"/>
<polygon fill="black" stroke="black" points="1595.5,-437.03 1592,-427.03 1588.5,-437.03 1595.5,-437.03"/>
</g>
<!-- 26&#45;&gt;25 -->
<g id="edge25" class="edge">
<title>26&#45;&gt;25</title>
<path fill="none" stroke="black" stroke-dasharray="1,5" d="M1616.45,-466.29C1633.82,-455.84 1657.35,-441.68 1676.47,-430.18"/>
<polygon fill="black" stroke="black" points="1678.41,-433.09 1685.18,-424.94 1674.8,-427.09 1678.41,-433.09"/>
</g>
<!-- 27 -->
<g id="node29" class="node">
<title>27</title>
<ellipse fill="none" stroke="black" cx="1827" cy="-409" rx="48.99" ry="18"/>
<text text-anchor="middle" x="1827" y="-405.3" font-family="Times,serif" font-size="14.00">La35 (a)</text>
</g>
<!-- 26&#45;&gt;27 -->
<g id="edge27" class="edge">
<title>26&#45;&gt;27</title>
<path fill="none" stroke="black" stroke-dasharray="1,5" d="M1628.46,-469.98C1669.45,-457.6 1736.1,-437.46 1780.73,-423.98"/>
<polygon fill="black" stroke="black" points="1781.89,-427.28 1790.45,-421.04 1779.87,-420.58 1781.89,-427.28"/>
</g>
<!-- 38 -->
<g id="node40" class="node">
<title>38</title>
<ellipse fill="none" stroke="black" cx="1944" cy="-409" rx="50.09" ry="18"/>
<text text-anchor="middle" x="1944" y="-405.3" font-family="Times,serif" font-size="14.00">A116 (a)</text>
</g>
<!-- 26&#45;&gt;38 -->
<g id="edge38" class="edge">
<title>26&#45;&gt;38</title>
<path fill="none" stroke="black" stroke-dasharray="5,2" d="M1632.15,-471.62C1643.7,-469.03 1656.33,-466.3 1668,-464 1763.99,-445.09 1789.62,-448.8 1885,-427 1889.03,-426.08 1893.2,-425.04 1897.37,-423.96"/>
<polygon fill="black" stroke="black" points="1898.29,-427.33 1907.03,-421.34 1896.46,-420.58 1898.29,-427.33"/>
</g>
<!-- 41 -->
<g id="node43" class="node">
<title>41</title>
<ellipse fill="none" stroke="black" cx="2059" cy="-409" rx="46.59" ry="18"/>
<text text-anchor="middle" x="2059" y="-405.3" font-family="Times,serif" font-size="14.00">Bodl (a)</text>
</g>
<!-- 26&#45;&gt;41 -->
<g id="edge41" class="edge">
<title>26&#45;&gt;41</title>
<path fill="none" stroke="black" stroke-dasharray="5,2" d="M1631.68,-471.26C1643.33,-468.63 1656.13,-465.98 1668,-464 1815.76,-439.39 1856.26,-457.11 2003,-427 2006.92,-426.2 2010.96,-425.24 2014.99,-424.19"/>
<polygon fill="black" stroke="black" points="2016.2,-427.49 2024.9,-421.44 2014.33,-420.74 2016.2,-427.49"/>
</g>
<!-- 30 -->
<g id="node32" class="node">
<title>30</title>
<ellipse fill="none" stroke="black" cx="2180" cy="-409" rx="55.79" ry="18"/>
<text text-anchor="middle" x="2180" y="-405.3" font-family="Times,serif" font-size="14.00">V2250 (a)</text>
</g>
<!-- 31 -->
<g id="node33" class="node">
<title>31</title>
<ellipse fill="none" stroke="black" cx="1112" cy="-336" rx="55.79" ry="18"/>
<text text-anchor="middle" x="1112" y="-332.3" font-family="Times,serif" font-size="14.00">V1639 (b)</text>
</g>
<!-- 33&#45;&gt;6 -->
<g id="edge7" class="edge">
<title>33&#45;&gt;6</title>
<path fill="none" stroke="blue" stroke-dasharray="1,5" d="M552.26,-318.22C545.77,-307.03 537.12,-292.12 529.78,-279.48"/>
<polygon fill="blue" stroke="blue" points="532.77,-277.65 524.73,-270.76 526.72,-281.17 532.77,-277.65"/>
</g>
<!-- 33&#45;&gt;10 -->
<g id="edge11" class="edge">
<title>33&#45;&gt;10</title>
<path fill="none" stroke="black" stroke-dasharray="5,2" d="M576.37,-318.61C586.57,-306.97 600.43,-291.16 611.89,-278.09"/>
<polygon fill="black" stroke="black" points="614.69,-280.19 618.65,-270.37 609.43,-275.58 614.69,-280.19"/>
<text text-anchor="middle" x="604.5" y="-292" font-family="Times,serif" font-size="10.00">2</text>
</g>
<!-- 36&#45;&gt;30 -->
<g id="edge30" class="edge">
<title>36&#45;&gt;30</title>
<path fill="none" stroke="black" stroke-dasharray="5,2" d="M1756.53,-470.5C1765.42,-468.09 1775.01,-465.72 1784,-464 1929.38,-436.12 1969.46,-454.02 2115,-427 2119.77,-426.12 2124.7,-425.07 2129.62,-423.94"/>
<polygon fill="black" stroke="black" points="2130.74,-427.27 2139.64,-421.52 2129.09,-420.46 2130.74,-427.27"/>
</g>
<!-- 37&#45;&gt;31 -->
<g id="edge31" class="edge">
<title>37&#45;&gt;31</title>
<path fill="none" stroke="blue" stroke-dasharray="1,5" d="M1113.52,-390.81C1113.29,-382.79 1113.02,-373.05 1112.76,-364.07"/>
<polygon fill="blue" stroke="blue" points="1116.26,-363.93 1112.48,-354.03 1109.26,-364.12 1116.26,-363.93"/>
</g>
<!-- 39&#45;&gt;9 -->
<g id="edge10" class="edge">
<title>39&#45;&gt;9</title>
<path fill="none" stroke="black" stroke-dasharray="5,2" d="M1896.9,-477C1973.23,-470.35 2121.59,-454.91 2245,-427 2248.61,-426.18 2252.32,-425.23 2256.02,-424.2"/>
<polygon fill="black" stroke="black" points="2257.13,-427.53 2265.74,-421.34 2255.15,-420.81 2257.13,-427.53"/>
</g>
</g>
</svg>
