<?xml version="1.0" encoding="UTF-8" standalone="no"?>
<!DOCTYPE svg PUBLIC "-//W3C//DTD SVG 1.1//EN"
 "http://www.w3.org/Graphics/SVG/1.1/DTD/svg11.dtd">
<!-- Generated by graphviz version 2.43.0 (0)
 -->
<!-- Title: textual_flow Pages: 1 -->
<svg width="1809pt" height="654pt"
 viewBox="0.00 0.00 1809.00 654.00" xmlns="http://www.w3.org/2000/svg" xmlns:xlink="http://www.w3.org/1999/xlink">
<g id="graph0" class="graph" transform="scale(1 1) rotate(0) translate(4 650)">
<title>textual_flow</title>
<polygon fill="white" stroke="transparent" points="-4,4 -4,-650 1805,-650 1805,4 -4,4"/>
<g id="clust1" class="cluster">
<title>cluster_legend</title>
<polygon fill="none" stroke="black" points="8,-584 8,-638 186,-638 186,-584 8,-584"/>
</g>
<g id="clust2" class="cluster">
<title>cluster_plot</title>
</g>
<!-- label -->
<g id="node1" class="node">
<title>label</title>
<text text-anchor="middle" x="97" y="-614.8" font-family="Times,serif" font-size="14.00">adstag1.1.20U12&#45;20</text>
<text text-anchor="middle" x="97" y="-599.8" font-family="Times,serif" font-size="14.00">Con = 5</text>
</g>
<!-- 0 -->
<g id="node2" class="node">
<title>0</title>
<ellipse fill="none" stroke="black" cx="549" cy="-538" rx="50.09" ry="18"/>
<text text-anchor="middle" x="549" y="-534.3" font-family="Times,serif" font-size="14.00">S249 (a)</text>
</g>
<!-- 1 -->
<g id="node3" class="node">
<title>1</title>
<ellipse fill="none" stroke="black" cx="912" cy="-466" rx="44.39" ry="18"/>
<text text-anchor="middle" x="912" y="-462.3" font-family="Times,serif" font-size="14.00">B39 (a)</text>
</g>
<!-- 2 -->
<g id="node4" class="node">
<title>2</title>
<ellipse fill="none" stroke="black" cx="250" cy="-466" rx="44.39" ry="18"/>
<text text-anchor="middle" x="250" y="-462.3" font-family="Times,serif" font-size="14.00">P01 (a)</text>
</g>
<!-- 5 -->
<g id="node7" class="node">
<title>5</title>
<ellipse fill="none" stroke="gray" stroke-dasharray="5,2" cx="252" cy="-394" rx="50.09" ry="18"/>
<text text-anchor="middle" x="252" y="-390.3" font-family="Times,serif" font-size="14.00">Savile&#45;Η</text>
</g>
<!-- 2&#45;&gt;5 -->
<g id="edge6" class="edge">
<title>2&#45;&gt;5</title>
<path fill="none" stroke="gray" d="M250.49,-447.7C250.71,-439.98 250.98,-430.71 251.23,-422.11"/>
<polygon fill="gray" stroke="gray" points="254.72,-422.2 251.51,-412.1 247.73,-422 254.72,-422.2"/>
</g>
<!-- 3 -->
<g id="node5" class="node">
<title>3</title>
<ellipse fill="none" stroke="black" cx="1645" cy="-394" rx="50.09" ry="18"/>
<text text-anchor="middle" x="1645" y="-390.3" font-family="Times,serif" font-size="14.00">V536 (a)</text>
</g>
<!-- 41 -->
<g id="node43" class="node">
<title>41</title>
<ellipse fill="none" stroke="black" cx="1637" cy="-322" rx="50.09" ry="18"/>
<text text-anchor="middle" x="1637" y="-318.3" font-family="Times,serif" font-size="14.00">V568 (a)</text>
</g>
<!-- 3&#45;&gt;41 -->
<g id="edge42" class="edge">
<title>3&#45;&gt;41</title>
<path fill="none" stroke="black" stroke-dasharray="1,5" d="M1643.02,-375.7C1642.14,-367.98 1641.08,-358.71 1640.1,-350.11"/>
<polygon fill="black" stroke="black" points="1643.57,-349.64 1638.95,-340.1 1636.61,-350.44 1643.57,-349.64"/>
</g>
<!-- 4 -->
<g id="node6" class="node">
<title>4</title>
<ellipse fill="none" stroke="black" cx="661" cy="-538" rx="44.39" ry="18"/>
<text text-anchor="middle" x="661" y="-534.3" font-family="Times,serif" font-size="14.00">A25 (a)</text>
</g>
<!-- 4&#45;&gt;2 -->
<g id="edge3" class="edge">
<title>4&#45;&gt;2</title>
<path fill="none" stroke="black" stroke-dasharray="5,2" d="M628.76,-525.57C621.97,-523.47 614.8,-521.48 608,-520 474.62,-491.02 436.38,-512.98 303,-484 299.39,-483.22 295.67,-482.29 291.96,-481.27"/>
<polygon fill="black" stroke="black" points="292.82,-477.88 282.24,-478.43 290.86,-484.6 292.82,-477.88"/>
</g>
<!-- 6 -->
<g id="node8" class="node">
<title>6</title>
<ellipse fill="none" stroke="black" cx="362" cy="-466" rx="50.09" ry="18"/>
<text text-anchor="middle" x="362" y="-462.3" font-family="Times,serif" font-size="14.00">V566 (a)</text>
</g>
<!-- 4&#45;&gt;6 -->
<g id="edge7" class="edge">
<title>4&#45;&gt;6</title>
<path fill="none" stroke="black" stroke-dasharray="5,2" d="M628.1,-525.77C621.49,-523.71 614.55,-521.68 608,-520 526,-499.04 503.3,-503.74 421,-484 416.98,-483.04 412.82,-481.97 408.66,-480.86"/>
<polygon fill="black" stroke="black" points="409.57,-477.49 399,-478.22 407.72,-484.24 409.57,-477.49"/>
</g>
<!-- 11 -->
<g id="node13" class="node">
<title>11</title>
<ellipse fill="none" stroke="black" cx="479" cy="-466" rx="48.99" ry="18"/>
<text text-anchor="middle" x="479" y="-462.3" font-family="Times,serif" font-size="14.00">La22 (a)</text>
</g>
<!-- 4&#45;&gt;11 -->
<g id="edge12" class="edge">
<title>4&#45;&gt;11</title>
<path fill="none" stroke="black" stroke-dasharray="1,5" d="M629.71,-524.97C599.65,-513.4 554.02,-495.85 520.84,-483.09"/>
<polygon fill="black" stroke="black" points="522,-479.79 511.41,-479.47 519.49,-486.32 522,-479.79"/>
</g>
<!-- 30 -->
<g id="node32" class="node">
<title>30</title>
<ellipse fill="none" stroke="black" cx="586" cy="-466" rx="40.09" ry="18"/>
<text text-anchor="middle" x="586" y="-462.3" font-family="Times,serif" font-size="14.00">Pal (a)</text>
</g>
<!-- 4&#45;&gt;30 -->
<g id="edge31" class="edge">
<title>4&#45;&gt;30</title>
<path fill="none" stroke="black" stroke-dasharray="5,2" d="M643.98,-521.12C633.94,-511.74 621.07,-499.73 610.01,-489.41"/>
<polygon fill="black" stroke="black" points="612.39,-486.84 602.69,-482.58 607.62,-491.96 612.39,-486.84"/>
</g>
<!-- 39 -->
<g id="node41" class="node">
<title>39</title>
<ellipse fill="none" stroke="black" cx="688" cy="-466" rx="44.39" ry="18"/>
<text text-anchor="middle" x="688" y="-462.3" font-family="Times,serif" font-size="14.00">S32 (a)</text>
</g>
<!-- 4&#45;&gt;39 -->
<g id="edge40" class="edge">
<title>4&#45;&gt;39</title>
<path fill="none" stroke="black" stroke-dasharray="5,2" d="M667.54,-520.05C670.57,-512.18 674.26,-502.62 677.67,-493.79"/>
<polygon fill="black" stroke="black" points="681,-494.86 681.34,-484.28 674.47,-492.35 681,-494.86"/>
</g>
<!-- 44 -->
<g id="node46" class="node">
<title>44</title>
<ellipse fill="none" stroke="black" cx="800" cy="-466" rx="50.09" ry="18"/>
<text text-anchor="middle" x="800" y="-462.3" font-family="Times,serif" font-size="14.00">Patm (a)</text>
</g>
<!-- 4&#45;&gt;44 -->
<g id="edge45" class="edge">
<title>4&#45;&gt;44</title>
<path fill="none" stroke="black" stroke-dasharray="1,5" d="M687.8,-523.5C709.11,-512.77 739.17,-497.63 762.81,-485.73"/>
<polygon fill="black" stroke="black" points="764.49,-488.8 771.85,-481.18 761.34,-482.55 764.49,-488.8"/>
</g>
<!-- 34 -->
<g id="node36" class="node">
<title>34</title>
<ellipse fill="none" stroke="black" cx="376" cy="-394" rx="55.79" ry="18"/>
<text text-anchor="middle" x="376" y="-390.3" font-family="Times,serif" font-size="14.00">V1639 (a)</text>
</g>
<!-- 6&#45;&gt;34 -->
<g id="edge35" class="edge">
<title>6&#45;&gt;34</title>
<path fill="none" stroke="black" stroke-dasharray="1,5" d="M365.46,-447.7C367,-439.98 368.86,-430.71 370.58,-422.11"/>
<polygon fill="black" stroke="black" points="374.05,-422.6 372.58,-412.1 367.19,-421.22 374.05,-422.6"/>
</g>
<!-- 7 -->
<g id="node9" class="node">
<title>7</title>
<ellipse fill="none" stroke="black" cx="823" cy="-538" rx="52.79" ry="18"/>
<text text-anchor="middle" x="823" y="-534.3" font-family="Times,serif" font-size="14.00">LaSM (a)</text>
</g>
<!-- 7&#45;&gt;1 -->
<g id="edge2" class="edge">
<title>7&#45;&gt;1</title>
<path fill="none" stroke="black" stroke-dasharray="5,2" d="M843.2,-521.12C855.43,-511.5 871.19,-499.1 884.55,-488.59"/>
<polygon fill="black" stroke="black" points="886.8,-491.27 892.5,-482.34 882.47,-485.77 886.8,-491.27"/>
</g>
<!-- 8 -->
<g id="node10" class="node">
<title>8</title>
<ellipse fill="none" stroke="gray" stroke-dasharray="5,2" cx="1513" cy="-466" rx="39.79" ry="18"/>
<text text-anchor="middle" x="1513" y="-462.3" font-family="Times,serif" font-size="14.00">Taur&#45;c</text>
</g>
<!-- 9 -->
<g id="node11" class="node">
<title>9</title>
<ellipse fill="none" stroke="black" cx="500" cy="-394" rx="50.09" ry="18"/>
<text text-anchor="middle" x="500" y="-390.3" font-family="Times,serif" font-size="14.00">V571 (a)</text>
</g>
<!-- 10 -->
<g id="node12" class="node">
<title>10</title>
<ellipse fill="none" stroke="black" cx="1502" cy="-34" rx="46.29" ry="18"/>
<text text-anchor="middle" x="1502" y="-30.3" font-family="Times,serif" font-size="14.00">Mon (a)</text>
</g>
<!-- 11&#45;&gt;9 -->
<g id="edge10" class="edge">
<title>11&#45;&gt;9</title>
<path fill="none" stroke="black" stroke-dasharray="1,5" d="M484.08,-448.05C486.42,-440.26 489.25,-430.82 491.88,-422.08"/>
<polygon fill="black" stroke="black" points="495.3,-422.86 494.82,-412.28 488.59,-420.85 495.3,-422.86"/>
</g>
<!-- 12 -->
<g id="node14" class="node">
<title>12</title>
<ellipse fill="none" stroke="black" cx="617" cy="-394" rx="48.99" ry="18"/>
<text text-anchor="middle" x="617" y="-390.3" font-family="Times,serif" font-size="14.00">La35 (a)</text>
</g>
<!-- 11&#45;&gt;12 -->
<g id="edge13" class="edge">
<title>11&#45;&gt;12</title>
<path fill="none" stroke="black" stroke-dasharray="1,5" d="M506.59,-451C527.75,-440.27 557.14,-425.36 580.28,-413.62"/>
<polygon fill="black" stroke="black" points="582.12,-416.62 589.45,-408.97 578.95,-410.38 582.12,-416.62"/>
</g>
<!-- 17 -->
<g id="node19" class="node">
<title>17</title>
<ellipse fill="none" stroke="black" cx="736" cy="-394" rx="52.79" ry="18"/>
<text text-anchor="middle" x="736" y="-390.3" font-family="Times,serif" font-size="14.00">M111 (a)</text>
</g>
<!-- 11&#45;&gt;17 -->
<g id="edge18" class="edge">
<title>11&#45;&gt;17</title>
<path fill="none" stroke="black" stroke-dasharray="1,5" d="M515.77,-454.04C522.81,-452 530.12,-449.9 537,-448 598.09,-431.08 613.8,-428.51 675,-412 678.83,-410.97 682.79,-409.89 686.78,-408.79"/>
<polygon fill="black" stroke="black" points="687.94,-412.1 696.65,-406.07 686.08,-405.36 687.94,-412.1"/>
</g>
<!-- 18 -->
<g id="node20" class="node">
<title>18</title>
<ellipse fill="none" stroke="black" cx="853" cy="-394" rx="46.59" ry="18"/>
<text text-anchor="middle" x="853" y="-390.3" font-family="Times,serif" font-size="14.00">Bodl (a)</text>
</g>
<!-- 11&#45;&gt;18 -->
<g id="edge19" class="edge">
<title>11&#45;&gt;18</title>
<path fill="none" stroke="black" stroke-dasharray="5,2" d="M514.68,-453.64C522.01,-451.56 529.72,-449.56 537,-448 651.5,-423.46 683.68,-437.37 798,-412 801.63,-411.19 805.36,-410.26 809.1,-409.26"/>
<polygon fill="black" stroke="black" points="810.24,-412.58 818.9,-406.48 808.33,-405.84 810.24,-412.58"/>
</g>
<!-- 22 -->
<g id="node24" class="node">
<title>22</title>
<ellipse fill="none" stroke="black" cx="962" cy="-394" rx="44.39" ry="18"/>
<text text-anchor="middle" x="962" y="-390.3" font-family="Times,serif" font-size="14.00">P74 (a)</text>
</g>
<!-- 11&#45;&gt;22 -->
<g id="edge23" class="edge">
<title>11&#45;&gt;22</title>
<path fill="none" stroke="black" stroke-dasharray="1,5" d="M514.32,-453.5C521.75,-451.4 529.58,-449.43 537,-448 700.09,-416.5 746.32,-445.56 909,-412 912.67,-411.24 916.44,-410.33 920.21,-409.31"/>
<polygon fill="black" stroke="black" points="921.43,-412.6 930.06,-406.46 919.48,-405.88 921.43,-412.6"/>
</g>
<!-- 37 -->
<g id="node39" class="node">
<title>37</title>
<ellipse fill="none" stroke="black" cx="1074" cy="-394" rx="50.09" ry="18"/>
<text text-anchor="middle" x="1074" y="-390.3" font-family="Times,serif" font-size="14.00">A116 (a)</text>
</g>
<!-- 11&#45;&gt;37 -->
<g id="edge38" class="edge">
<title>11&#45;&gt;37</title>
<path fill="none" stroke="black" stroke-dasharray="5,2" d="M513.99,-453.46C521.51,-451.34 529.46,-449.37 537,-448 746.6,-409.83 805.31,-449.69 1015,-412 1019.37,-411.21 1023.87,-410.24 1028.36,-409.15"/>
<polygon fill="black" stroke="black" points="1029.29,-412.52 1038.08,-406.62 1027.52,-405.75 1029.29,-412.52"/>
</g>
<!-- 43 -->
<g id="node45" class="node">
<title>43</title>
<ellipse fill="none" stroke="black" cx="1192" cy="-394" rx="50.09" ry="18"/>
<text text-anchor="middle" x="1192" y="-390.3" font-family="Times,serif" font-size="14.00">V565 (a)</text>
</g>
<!-- 11&#45;&gt;43 -->
<g id="edge44" class="edge">
<title>11&#45;&gt;43</title>
<path fill="none" stroke="black" stroke-dasharray="5,2" d="M513.97,-453.38C521.5,-451.26 529.45,-449.32 537,-448 798.42,-402.39 871.47,-457.01 1133,-412 1137.37,-411.25 1141.88,-410.29 1146.37,-409.21"/>
<polygon fill="black" stroke="black" points="1147.29,-412.59 1156.1,-406.7 1145.54,-405.81 1147.29,-412.59"/>
</g>
<!-- 13 -->
<g id="node15" class="node">
<title>13</title>
<ellipse fill="none" stroke="black" cx="937" cy="-538" rx="42.79" ry="18"/>
<text text-anchor="middle" x="937" y="-534.3" font-family="Times,serif" font-size="14.00">La2 (a)</text>
</g>
<!-- 14 -->
<g id="node16" class="node">
<title>14</title>
<ellipse fill="none" stroke="black" cx="1139" cy="-466" rx="55.79" ry="18"/>
<text text-anchor="middle" x="1139" y="-462.3" font-family="Times,serif" font-size="14.00">V2250 (d)</text>
</g>
<!-- 15 -->
<g id="node17" class="node">
<title>15</title>
<ellipse fill="none" stroke="black" cx="1051" cy="-538" rx="52.79" ry="18"/>
<text text-anchor="middle" x="1051" y="-534.3" font-family="Times,serif" font-size="14.00">M136 (a)</text>
</g>
<!-- 38 -->
<g id="node40" class="node">
<title>38</title>
<ellipse fill="none" stroke="gray" stroke-dasharray="5,2" cx="1020" cy="-466" rx="45.49" ry="18"/>
<text text-anchor="middle" x="1020" y="-462.3" font-family="Times,serif" font-size="14.00">LaSM&#45;c</text>
</g>
<!-- 15&#45;&gt;38 -->
<g id="edge39" class="edge">
<title>15&#45;&gt;38</title>
<path fill="none" stroke="gray" stroke-dasharray="5,2" d="M1043.5,-520.05C1039.92,-511.97 1035.55,-502.12 1031.56,-493.11"/>
<polygon fill="gray" stroke="gray" points="1034.68,-491.52 1027.44,-483.79 1028.28,-494.35 1034.68,-491.52"/>
</g>
<!-- 16 -->
<g id="node18" class="node">
<title>16</title>
<ellipse fill="none" stroke="black" cx="1433" cy="-394" rx="42.79" ry="18"/>
<text text-anchor="middle" x="1433" y="-390.3" font-family="Times,serif" font-size="14.00">Bas (a)</text>
</g>
<!-- 35 -->
<g id="node37" class="node">
<title>35</title>
<ellipse fill="none" stroke="black" cx="736" cy="-322" rx="49.29" ry="18"/>
<text text-anchor="middle" x="736" y="-318.3" font-family="Times,serif" font-size="14.00">A336 (c)</text>
</g>
<!-- 17&#45;&gt;35 -->
<g id="edge36" class="edge">
<title>17&#45;&gt;35</title>
<path fill="none" stroke="blue" stroke-dasharray="5,2" d="M736,-375.7C736,-367.98 736,-358.71 736,-350.11"/>
<polygon fill="blue" stroke="blue" points="739.5,-350.1 736,-340.1 732.5,-350.1 739.5,-350.1"/>
</g>
<!-- 19 -->
<g id="node21" class="node">
<title>19</title>
<ellipse fill="none" stroke="black" cx="1622" cy="-250" rx="46.59" ry="18"/>
<text text-anchor="middle" x="1622" y="-246.3" font-family="Times,serif" font-size="14.00">Taur (a)</text>
</g>
<!-- 25 -->
<g id="node27" class="node">
<title>25</title>
<ellipse fill="none" stroke="black" cx="1502" cy="-178" rx="40.89" ry="18"/>
<text text-anchor="middle" x="1502" y="-174.3" font-family="Times,serif" font-size="14.00">Sin (a)</text>
</g>
<!-- 19&#45;&gt;25 -->
<g id="edge26" class="edge">
<title>19&#45;&gt;25</title>
<path fill="none" stroke="black" stroke-dasharray="1,5" d="M1597.43,-234.67C1579.23,-224.05 1554.26,-209.49 1534.43,-197.92"/>
<polygon fill="black" stroke="black" points="1536.12,-194.85 1525.72,-192.84 1532.6,-200.9 1536.12,-194.85"/>
</g>
<!-- 26 -->
<g id="node28" class="node">
<title>26</title>
<ellipse fill="none" stroke="black" cx="1614" cy="-178" rx="52.79" ry="18"/>
<text text-anchor="middle" x="1614" y="-174.3" font-family="Times,serif" font-size="14.00">M118 (a)</text>
</g>
<!-- 19&#45;&gt;26 -->
<g id="edge27" class="edge">
<title>19&#45;&gt;26</title>
<path fill="none" stroke="black" stroke-dasharray="5,2" d="M1620.02,-231.7C1619.14,-223.98 1618.08,-214.71 1617.1,-206.11"/>
<polygon fill="black" stroke="black" points="1620.57,-205.64 1615.95,-196.1 1613.61,-206.44 1620.57,-205.64"/>
</g>
<!-- 40 -->
<g id="node42" class="node">
<title>40</title>
<ellipse fill="none" stroke="black" cx="1735" cy="-178" rx="50.09" ry="18"/>
<text text-anchor="middle" x="1735" y="-174.3" font-family="Times,serif" font-size="14.00">V569 (a)</text>
</g>
<!-- 19&#45;&gt;40 -->
<g id="edge41" class="edge">
<title>19&#45;&gt;40</title>
<path fill="none" stroke="black" stroke-dasharray="5,2" d="M1645.69,-234.33C1662.15,-224.13 1684.3,-210.41 1702.42,-199.18"/>
<polygon fill="black" stroke="black" points="1704.3,-202.14 1710.95,-193.9 1700.61,-196.19 1704.3,-202.14"/>
</g>
<!-- 20 -->
<g id="node22" class="node">
<title>20</title>
<ellipse fill="none" stroke="black" cx="1627" cy="-466" rx="55.79" ry="18"/>
<text text-anchor="middle" x="1627" y="-462.3" font-family="Times,serif" font-size="14.00">V1629 (a)</text>
</g>
<!-- 20&#45;&gt;3 -->
<g id="edge4" class="edge">
<title>20&#45;&gt;3</title>
<path fill="none" stroke="black" stroke-dasharray="5,2" d="M1631.45,-447.7C1633.45,-439.9 1635.87,-430.51 1638.1,-421.83"/>
<polygon fill="black" stroke="black" points="1641.5,-422.66 1640.6,-412.1 1634.72,-420.92 1641.5,-422.66"/>
</g>
<!-- 42 -->
<g id="node44" class="node">
<title>42</title>
<ellipse fill="none" stroke="gray" stroke-dasharray="5,2" cx="1749" cy="-394" rx="36" ry="18"/>
<text text-anchor="middle" x="1749" y="-390.3" font-family="Times,serif" font-size="14.00">La2&#45;c</text>
</g>
<!-- 20&#45;&gt;42 -->
<g id="edge43" class="edge">
<title>20&#45;&gt;42</title>
<path fill="none" stroke="gray" stroke-width="2" d="M1653.17,-449.98C1671.99,-439.18 1697.47,-424.57 1717.42,-413.12"/>
<polygon fill="gray" stroke="gray" stroke-width="2" points="1719.22,-416.12 1726.16,-408.11 1715.74,-410.05 1719.22,-416.12"/>
</g>
<!-- 21 -->
<g id="node23" class="node">
<title>21</title>
<ellipse fill="none" stroke="black" cx="1166" cy="-538" rx="44.69" ry="18"/>
<text text-anchor="middle" x="1166" y="-534.3" font-family="Times,serif" font-size="14.00">Nan (a)</text>
</g>
<!-- 21&#45;&gt;14 -->
<g id="edge15" class="edge">
<title>21&#45;&gt;14</title>
<path fill="none" stroke="blue" stroke-dasharray="5,2" d="M1159.46,-520.05C1156.43,-512.18 1152.74,-502.62 1149.33,-493.79"/>
<polygon fill="blue" stroke="blue" points="1152.53,-492.35 1145.66,-484.28 1146,-494.86 1152.53,-492.35"/>
</g>
<!-- 23 -->
<g id="node25" class="node">
<title>23</title>
<ellipse fill="none" stroke="black" cx="1269" cy="-466" rx="55.79" ry="18"/>
<text text-anchor="middle" x="1269" y="-462.3" font-family="Times,serif" font-size="14.00">V1897 (a)</text>
</g>
<!-- 21&#45;&gt;23 -->
<g id="edge24" class="edge">
<title>21&#45;&gt;23</title>
<path fill="none" stroke="black" stroke-dasharray="1,5" d="M1187.84,-522.15C1202.29,-512.33 1221.47,-499.3 1237.55,-488.37"/>
<polygon fill="black" stroke="black" points="1239.81,-491.07 1246.12,-482.55 1235.88,-485.28 1239.81,-491.07"/>
</g>
<!-- 23&#45;&gt;16 -->
<g id="edge17" class="edge">
<title>23&#45;&gt;16</title>
<path fill="none" stroke="black" d="M1301.4,-451.17C1328.24,-439.72 1366.43,-423.41 1394.76,-411.32"/>
<polygon fill="black" stroke="black" points="1396.14,-414.54 1403.96,-407.39 1393.39,-408.1 1396.14,-414.54"/>
</g>
<!-- 33 -->
<g id="node35" class="node">
<title>33</title>
<ellipse fill="none" stroke="black" cx="1535" cy="-394" rx="41.69" ry="18"/>
<text text-anchor="middle" x="1535" y="-390.3" font-family="Times,serif" font-size="14.00">Est (a)</text>
</g>
<!-- 23&#45;&gt;33 -->
<g id="edge34" class="edge">
<title>23&#45;&gt;33</title>
<path fill="none" stroke="black" stroke-dasharray="1,5" d="M1310.92,-453.89C1318.59,-451.9 1326.53,-449.87 1334,-448 1400.93,-431.27 1418.71,-431.13 1485,-412 1487.99,-411.14 1491.06,-410.21 1494.14,-409.24"/>
<polygon fill="black" stroke="black" points="1495.5,-412.48 1503.94,-406.06 1493.34,-405.82 1495.5,-412.48"/>
</g>
<!-- 24 -->
<g id="node26" class="node">
<title>24</title>
<ellipse fill="none" stroke="gray" stroke-dasharray="5,2" cx="1743" cy="-466" rx="42.49" ry="18"/>
<text text-anchor="middle" x="1743" y="-462.3" font-family="Times,serif" font-size="14.00">Marc&#45;c</text>
</g>
<!-- 28 -->
<g id="node30" class="node">
<title>28</title>
<ellipse fill="none" stroke="black" cx="1502" cy="-106" rx="50.09" ry="18"/>
<text text-anchor="middle" x="1502" y="-102.3" font-family="Times,serif" font-size="14.00">Marc (a)</text>
</g>
<!-- 25&#45;&gt;28 -->
<g id="edge29" class="edge">
<title>25&#45;&gt;28</title>
<path fill="none" stroke="black" stroke-dasharray="1,5" d="M1502,-159.7C1502,-151.98 1502,-142.71 1502,-134.11"/>
<polygon fill="black" stroke="black" points="1505.5,-134.1 1502,-124.1 1498.5,-134.1 1505.5,-134.1"/>
</g>
<!-- 31 -->
<g id="node33" class="node">
<title>31</title>
<ellipse fill="none" stroke="black" cx="1614" cy="-106" rx="44.39" ry="18"/>
<text text-anchor="middle" x="1614" y="-102.3" font-family="Times,serif" font-size="14.00">P18 (a)</text>
</g>
<!-- 26&#45;&gt;31 -->
<g id="edge32" class="edge">
<title>26&#45;&gt;31</title>
<path fill="none" stroke="black" stroke-dasharray="5,2" d="M1614,-159.7C1614,-151.98 1614,-142.71 1614,-134.11"/>
<polygon fill="black" stroke="black" points="1617.5,-134.1 1614,-124.1 1610.5,-134.1 1617.5,-134.1"/>
</g>
<!-- 27 -->
<g id="node29" class="node">
<title>27</title>
<ellipse fill="none" stroke="black" cx="1399" cy="-466" rx="55.79" ry="18"/>
<text text-anchor="middle" x="1399" y="-462.3" font-family="Times,serif" font-size="14.00">V1920 (b)</text>
</g>
<!-- 28&#45;&gt;10 -->
<g id="edge11" class="edge">
<title>28&#45;&gt;10</title>
<path fill="none" stroke="black" stroke-dasharray="1,5" d="M1502,-87.7C1502,-79.98 1502,-70.71 1502,-62.11"/>
<polygon fill="black" stroke="black" points="1505.5,-62.1 1502,-52.1 1498.5,-62.1 1505.5,-62.1"/>
</g>
<!-- 29 -->
<g id="node31" class="node">
<title>29</title>
<ellipse fill="none" stroke="black" cx="1361" cy="-538" rx="50.09" ry="18"/>
<text text-anchor="middle" x="1361" y="-534.3" font-family="Times,serif" font-size="14.00">V560 (b)</text>
</g>
<!-- 29&#45;&gt;27 -->
<g id="edge28" class="edge">
<title>29&#45;&gt;27</title>
<path fill="none" stroke="black" stroke-dasharray="5,2" d="M1370.2,-520.05C1374.63,-511.89 1380.05,-501.91 1384.98,-492.82"/>
<polygon fill="black" stroke="black" points="1388.19,-494.25 1389.89,-483.79 1382.04,-490.91 1388.19,-494.25"/>
</g>
<!-- 32 -->
<g id="node34" class="node">
<title>32</title>
<ellipse fill="none" stroke="black" cx="1316" cy="-394" rx="55.79" ry="18"/>
<text text-anchor="middle" x="1316" y="-390.3" font-family="Times,serif" font-size="14.00">V2036 (a)</text>
</g>
<!-- 36 -->
<g id="node38" class="node">
<title>36</title>
<ellipse fill="none" stroke="black" cx="1550" cy="-538" rx="50.09" ry="18"/>
<text text-anchor="middle" x="1550" y="-534.3" font-family="Times,serif" font-size="14.00">Neap (a)</text>
</g>
<!-- 36&#45;&gt;8 -->
<g id="edge9" class="edge">
<title>36&#45;&gt;8</title>
<path fill="none" stroke="gray" stroke-width="2" d="M1541.04,-520.05C1536.73,-511.89 1531.45,-501.91 1526.65,-492.82"/>
<polygon fill="gray" stroke="gray" stroke-width="2" points="1529.64,-490.99 1521.87,-483.79 1523.45,-494.27 1529.64,-490.99"/>
</g>
<!-- 36&#45;&gt;20 -->
<g id="edge21" class="edge">
<title>36&#45;&gt;20</title>
<path fill="none" stroke="black" stroke-dasharray="1,5" d="M1567.47,-521.12C1577.57,-511.94 1590.44,-500.23 1601.64,-490.06"/>
<polygon fill="black" stroke="black" points="1604.02,-492.62 1609.06,-483.31 1599.31,-487.44 1604.02,-492.62"/>
</g>
<!-- 36&#45;&gt;24 -->
<g id="edge25" class="edge">
<title>36&#45;&gt;24</title>
<path fill="none" stroke="gray" stroke-dasharray="5,2" d="M1584.06,-524.65C1617.1,-512.66 1667.25,-494.47 1702.36,-481.74"/>
<polygon fill="gray" stroke="gray" points="1703.62,-485 1711.83,-478.3 1701.24,-478.42 1703.62,-485"/>
</g>
<!-- 41&#45;&gt;19 -->
<g id="edge20" class="edge">
<title>41&#45;&gt;19</title>
<path fill="none" stroke="black" stroke-dasharray="1,5" d="M1633.29,-303.7C1631.64,-295.98 1629.65,-286.71 1627.81,-278.11"/>
<polygon fill="black" stroke="black" points="1631.18,-277.15 1625.67,-268.1 1624.34,-278.62 1631.18,-277.15"/>
</g>
<!-- 44&#45;&gt;32 -->
<g id="edge33" class="edge">
<title>44&#45;&gt;32</title>
<path fill="none" stroke="black" stroke-dasharray="1,5" d="M836.25,-453.39C843.71,-451.33 851.56,-449.4 859,-448 1030.94,-415.64 1078.68,-442.24 1251,-412 1255.78,-411.16 1260.71,-410.15 1265.63,-409.04"/>
<polygon fill="black" stroke="black" points="1266.74,-412.37 1275.66,-406.65 1265.12,-405.56 1266.74,-412.37"/>
</g>
<!-- 45 -->
<g id="node47" class="node">
<title>45</title>
<ellipse fill="none" stroke="black" cx="994" cy="-611" rx="53.89" ry="18"/>
<text text-anchor="middle" x="994" y="-607.3" font-family="Times,serif" font-size="14.00">aBase (a)</text>
</g>
<!-- 45&#45;&gt;0 -->
<g id="edge1" class="edge">
<title>45&#45;&gt;0</title>
<path fill="none" stroke="black" d="M942.71,-605.16C868.38,-597.62 726.63,-581.26 608,-556 603.89,-555.13 599.66,-554.12 595.42,-553.04"/>
<polygon fill="black" stroke="black" points="596.18,-549.62 585.62,-550.42 594.38,-556.38 596.18,-549.62"/>
</g>
<!-- 45&#45;&gt;4 -->
<g id="edge5" class="edge">
<title>45&#45;&gt;4</title>
<path fill="none" stroke="black" stroke-dasharray="5,2" d="M949.78,-600.57C887.31,-587.25 773.65,-563.02 709.12,-549.26"/>
<polygon fill="black" stroke="black" points="709.71,-545.81 699.2,-547.15 708.25,-552.65 709.71,-545.81"/>
</g>
<!-- 45&#45;&gt;7 -->
<g id="edge8" class="edge">
<title>45&#45;&gt;7</title>
<path fill="none" stroke="black" d="M961.43,-596.48C933.89,-585.04 894.26,-568.59 864.46,-556.21"/>
<polygon fill="black" stroke="black" points="865.73,-552.95 855.16,-552.35 863.05,-559.42 865.73,-552.95"/>
</g>
<!-- 45&#45;&gt;13 -->
<g id="edge14" class="edge">
<title>45&#45;&gt;13</title>
<path fill="none" stroke="black" stroke-width="2" d="M980.78,-593.53C973.59,-584.57 964.55,-573.31 956.55,-563.36"/>
<polygon fill="black" stroke="black" stroke-width="2" points="959.14,-560.98 950.15,-555.38 953.68,-565.37 959.14,-560.98"/>
</g>
<!-- 45&#45;&gt;15 -->
<g id="edge16" class="edge">
<title>45&#45;&gt;15</title>
<path fill="none" stroke="black" stroke-width="2" d="M1007.22,-593.53C1014.31,-584.7 1023.19,-573.63 1031.1,-563.78"/>
<polygon fill="black" stroke="black" stroke-width="2" points="1033.92,-565.86 1037.46,-555.87 1028.47,-561.48 1033.92,-565.86"/>
</g>
<!-- 45&#45;&gt;21 -->
<g id="edge22" class="edge">
<title>45&#45;&gt;21</title>
<path fill="none" stroke="black" d="M1026.76,-596.48C1055.16,-584.75 1096.35,-567.75 1126.56,-555.28"/>
<polygon fill="black" stroke="black" points="1128.05,-558.45 1135.96,-551.4 1125.38,-551.98 1128.05,-558.45"/>
</g>
<!-- 45&#45;&gt;29 -->
<g id="edge30" class="edge">
<title>45&#45;&gt;29</title>
<path fill="none" stroke="blue" stroke-width="2" d="M1039.37,-601.22C1107.37,-588.07 1235.43,-563.29 1307.76,-549.3"/>
<polygon fill="blue" stroke="blue" stroke-width="2" points="1308.86,-552.65 1318.01,-547.32 1307.53,-545.78 1308.86,-552.65"/>
</g>
<!-- 45&#45;&gt;36 -->
<g id="edge37" class="edge">
<title>45&#45;&gt;36</title>
<path fill="none" stroke="black" stroke-width="2" d="M1043.53,-603.79C1122.96,-593.81 1283.77,-573.54 1420,-556 1444.08,-552.9 1470.66,-549.43 1493.48,-546.44"/>
<polygon fill="black" stroke="black" stroke-width="2" points="1494.22,-549.87 1503.68,-545.1 1493.31,-542.93 1494.22,-549.87"/>
</g>
</g>
</svg>
