<?xml version="1.0" encoding="UTF-8" standalone="no"?>
<!DOCTYPE svg PUBLIC "-//W3C//DTD SVG 1.1//EN"
 "http://www.w3.org/Graphics/SVG/1.1/DTD/svg11.dtd">
<!-- Generated by graphviz version 2.43.0 (0)
 -->
<!-- Title: textual_flow Pages: 1 -->
<svg width="1364pt" height="931pt"
 viewBox="0.00 0.00 1364.00 931.00" xmlns="http://www.w3.org/2000/svg" xmlns:xlink="http://www.w3.org/1999/xlink">
<g id="graph0" class="graph" transform="scale(1 1) rotate(0) translate(4 927)">
<title>textual_flow</title>
<polygon fill="white" stroke="transparent" points="-4,4 -4,-927 1360,-927 1360,4 -4,4"/>
<g id="clust1" class="cluster">
<title>cluster_legend</title>
<polygon fill="none" stroke="black" points="8,-861 8,-915 164,-915 164,-861 8,-861"/>
</g>
<g id="clust2" class="cluster">
<title>cluster_plot</title>
</g>
<!-- label -->
<g id="node1" class="node">
<title>label</title>
<text text-anchor="middle" x="86" y="-891.8" font-family="Times,serif" font-size="14.00">adstag1.2.21U40</text>
<text text-anchor="middle" x="86" y="-876.8" font-family="Times,serif" font-size="14.00">Con = 10</text>
</g>
<!-- 0 -->
<g id="node2" class="node">
<title>0</title>
<ellipse fill="none" stroke="black" cx="693" cy="-804" rx="44.39" ry="18"/>
<text text-anchor="middle" x="693" y="-800.3" font-family="Times,serif" font-size="14.00">A25 (a)</text>
</g>
<!-- 15 -->
<g id="node17" class="node">
<title>15</title>
<ellipse fill="none" stroke="black" cx="352" cy="-721" rx="40.09" ry="18"/>
<text text-anchor="middle" x="352" y="-717.3" font-family="Times,serif" font-size="14.00">Pal (a)</text>
</g>
<!-- 0&#45;&gt;15 -->
<g id="edge15" class="edge">
<title>0&#45;&gt;15</title>
<path fill="none" stroke="black" stroke-dasharray="5,2" d="M655.86,-794.18C592.73,-779.18 464.75,-748.78 396.77,-732.64"/>
<polygon fill="black" stroke="black" points="397.34,-729.17 386.8,-730.27 395.72,-735.98 397.34,-729.17"/>
</g>
<!-- 21 -->
<g id="node23" class="node">
<title>21</title>
<ellipse fill="none" stroke="black" cx="525" cy="-721" rx="52.79" ry="18"/>
<text text-anchor="middle" x="525" y="-717.3" font-family="Times,serif" font-size="14.00">M111 (a)</text>
</g>
<!-- 0&#45;&gt;21 -->
<g id="edge21" class="edge">
<title>0&#45;&gt;21</title>
<path fill="none" stroke="black" stroke-dasharray="5,2" d="M665.63,-789.81C637.91,-776.44 594.79,-755.65 563.6,-740.61"/>
<polygon fill="black" stroke="black" points="564.86,-737.33 554.33,-736.14 561.82,-743.64 564.86,-737.33"/>
<text text-anchor="middle" x="622.5" y="-760" font-family="Times,serif" font-size="10.00">2</text>
</g>
<!-- 22 -->
<g id="node24" class="node">
<title>22</title>
<ellipse fill="none" stroke="black" cx="693" cy="-721" rx="44.39" ry="18"/>
<text text-anchor="middle" x="693" y="-717.3" font-family="Times,serif" font-size="14.00">S32 (a)</text>
</g>
<!-- 0&#45;&gt;22 -->
<g id="edge22" class="edge">
<title>0&#45;&gt;22</title>
<path fill="none" stroke="black" stroke-dasharray="5,2" d="M693,-785.82C693,-775.19 693,-761.31 693,-749.2"/>
<polygon fill="black" stroke="black" points="696.5,-749.15 693,-739.15 689.5,-749.15 696.5,-749.15"/>
</g>
<!-- 27 -->
<g id="node29" class="node">
<title>27</title>
<ellipse fill="none" stroke="black" cx="881" cy="-721" rx="49.29" ry="18"/>
<text text-anchor="middle" x="881" y="-717.3" font-family="Times,serif" font-size="14.00">La22 (b)</text>
</g>
<!-- 0&#45;&gt;27 -->
<g id="edge27" class="edge">
<title>0&#45;&gt;27</title>
<path fill="none" stroke="blue" stroke-dasharray="1,5" d="M722.38,-790.34C754.19,-776.64 805.14,-754.69 840.68,-739.37"/>
<polygon fill="blue" stroke="blue" points="842.47,-742.41 850.27,-735.24 839.7,-735.98 842.47,-742.41"/>
</g>
<!-- 1 -->
<g id="node3" class="node">
<title>1</title>
<ellipse fill="none" stroke="black" cx="902" cy="-180" rx="41.69" ry="18"/>
<text text-anchor="middle" x="902" y="-176.3" font-family="Times,serif" font-size="14.00">Sin (b)</text>
</g>
<!-- 6 -->
<g id="node8" class="node">
<title>6</title>
<ellipse fill="none" stroke="black" cx="902" cy="-107" rx="50.09" ry="18"/>
<text text-anchor="middle" x="902" y="-103.3" font-family="Times,serif" font-size="14.00">Marc (b)</text>
</g>
<!-- 1&#45;&gt;6 -->
<g id="edge7" class="edge">
<title>1&#45;&gt;6</title>
<path fill="none" stroke="black" stroke-dasharray="1,5" d="M902,-161.81C902,-153.79 902,-144.05 902,-135.07"/>
<polygon fill="black" stroke="black" points="905.5,-135.03 902,-125.03 898.5,-135.03 905.5,-135.03"/>
</g>
<!-- 2 -->
<g id="node4" class="node">
<title>2</title>
<ellipse fill="none" stroke="black" cx="598" cy="-555" rx="53.09" ry="18"/>
<text text-anchor="middle" x="598" y="-551.3" font-family="Times,serif" font-size="14.00">LaSM (b)</text>
</g>
<!-- 3 -->
<g id="node5" class="node">
<title>3</title>
<ellipse fill="none" stroke="black" cx="1015" cy="-180" rx="53.09" ry="18"/>
<text text-anchor="middle" x="1015" y="-176.3" font-family="Times,serif" font-size="14.00">M118 (b)</text>
</g>
<!-- 8 -->
<g id="node10" class="node">
<title>8</title>
<ellipse fill="none" stroke="gray" stroke-dasharray="5,2" cx="1015" cy="-107" rx="28.7" ry="18"/>
<text text-anchor="middle" x="1015" y="-103.3" font-family="Times,serif" font-size="14.00">P18</text>
</g>
<!-- 3&#45;&gt;8 -->
<g id="edge9" class="edge">
<title>3&#45;&gt;8</title>
<path fill="none" stroke="gray" stroke-dasharray="5,2" d="M1015,-161.81C1015,-153.79 1015,-144.05 1015,-135.07"/>
<polygon fill="gray" stroke="gray" points="1018.5,-135.03 1015,-125.03 1011.5,-135.03 1018.5,-135.03"/>
</g>
<!-- 4 -->
<g id="node6" class="node">
<title>4</title>
<ellipse fill="none" stroke="black" cx="902" cy="-34" rx="46.59" ry="18"/>
<text text-anchor="middle" x="902" y="-30.3" font-family="Times,serif" font-size="14.00">Mon (b)</text>
</g>
<!-- 5 -->
<g id="node7" class="node">
<title>5</title>
<ellipse fill="none" stroke="gray" stroke-dasharray="5,2" cx="230" cy="-638" rx="50.09" ry="18"/>
<text text-anchor="middle" x="230" y="-634.3" font-family="Times,serif" font-size="14.00">Savile&#45;Η</text>
</g>
<!-- 6&#45;&gt;4 -->
<g id="edge5" class="edge">
<title>6&#45;&gt;4</title>
<path fill="none" stroke="black" stroke-dasharray="1,5" d="M902,-88.81C902,-80.79 902,-71.05 902,-62.07"/>
<polygon fill="black" stroke="black" points="905.5,-62.03 902,-52.03 898.5,-62.03 905.5,-62.03"/>
</g>
<!-- 7 -->
<g id="node9" class="node">
<title>7</title>
<ellipse fill="none" stroke="black" cx="348" cy="-638" rx="50.09" ry="18"/>
<text text-anchor="middle" x="348" y="-634.3" font-family="Times,serif" font-size="14.00">A336 (a)</text>
</g>
<!-- 9 -->
<g id="node11" class="node">
<title>9</title>
<ellipse fill="none" stroke="black" cx="720" cy="-399" rx="55.79" ry="18"/>
<text text-anchor="middle" x="720" y="-395.3" font-family="Times,serif" font-size="14.00">V2250 (b)</text>
</g>
<!-- 10 -->
<g id="node12" class="node">
<title>10</title>
<ellipse fill="none" stroke="black" cx="774" cy="-326" rx="43.59" ry="18"/>
<text text-anchor="middle" x="774" y="-322.3" font-family="Times,serif" font-size="14.00">Bas (b)</text>
</g>
<!-- 11 -->
<g id="node13" class="node">
<title>11</title>
<ellipse fill="none" stroke="black" cx="824" cy="-888" rx="53.89" ry="18"/>
<text text-anchor="middle" x="824" y="-884.3" font-family="Times,serif" font-size="14.00">aBase (a)</text>
</g>
<!-- 11&#45;&gt;0 -->
<g id="edge1" class="edge">
<title>11&#45;&gt;0</title>
<path fill="none" stroke="black" stroke-dasharray="5,2" d="M799.67,-871.77C778.63,-858.6 748.08,-839.47 725.05,-825.06"/>
<polygon fill="black" stroke="black" points="726.66,-821.94 716.32,-819.6 722.94,-827.87 726.66,-821.94"/>
</g>
<!-- 30 -->
<g id="node32" class="node">
<title>30</title>
<ellipse fill="none" stroke="black" cx="824" cy="-804" rx="44.39" ry="18"/>
<text text-anchor="middle" x="824" y="-800.3" font-family="Times,serif" font-size="14.00">B39 (a)</text>
</g>
<!-- 11&#45;&gt;30 -->
<g id="edge30" class="edge">
<title>11&#45;&gt;30</title>
<path fill="none" stroke="black" stroke-width="2" d="M824,-869.61C824,-858.77 824,-844.6 824,-832.29"/>
<polygon fill="black" stroke="black" stroke-width="2" points="827.5,-832.08 824,-822.08 820.5,-832.08 827.5,-832.08"/>
<text text-anchor="middle" x="827.5" y="-843" font-family="Times,serif" font-size="10.00">2</text>
</g>
<!-- 41 -->
<g id="node43" class="node">
<title>41</title>
<ellipse fill="none" stroke="black" cx="943" cy="-804" rx="44.39" ry="18"/>
<text text-anchor="middle" x="943" y="-800.3" font-family="Times,serif" font-size="14.00">P74 (a)</text>
</g>
<!-- 11&#45;&gt;41 -->
<g id="edge41" class="edge">
<title>11&#45;&gt;41</title>
<path fill="none" stroke="black" d="M846.38,-871.58C865.23,-858.59 892.36,-839.89 913.08,-825.62"/>
<polygon fill="black" stroke="black" points="915.27,-828.36 921.52,-819.8 911.3,-822.59 915.27,-828.36"/>
<text text-anchor="middle" x="893.5" y="-843" font-family="Times,serif" font-size="10.00">2</text>
</g>
<!-- 12 -->
<g id="node14" class="node">
<title>12</title>
<ellipse fill="none" stroke="black" cx="699" cy="-638" rx="47.39" ry="18"/>
<text text-anchor="middle" x="699" y="-634.3" font-family="Times,serif" font-size="14.00">Bodl (b)</text>
</g>
<!-- 13 -->
<g id="node15" class="node">
<title>13</title>
<ellipse fill="none" stroke="black" cx="998" cy="-721" rx="50.09" ry="18"/>
<text text-anchor="middle" x="998" y="-717.3" font-family="Times,serif" font-size="14.00">V571 (a)</text>
</g>
<!-- 14 -->
<g id="node16" class="node">
<title>14</title>
<ellipse fill="none" stroke="black" cx="1015" cy="-253" rx="47.39" ry="18"/>
<text text-anchor="middle" x="1015" y="-249.3" font-family="Times,serif" font-size="14.00">Taur (b)</text>
</g>
<!-- 14&#45;&gt;1 -->
<g id="edge2" class="edge">
<title>14&#45;&gt;1</title>
<path fill="none" stroke="black" stroke-dasharray="1,5" d="M991.59,-237.29C974.7,-226.68 951.72,-212.24 933.26,-200.64"/>
<polygon fill="black" stroke="black" points="934.94,-197.56 924.61,-195.21 931.22,-203.49 934.94,-197.56"/>
</g>
<!-- 14&#45;&gt;3 -->
<g id="edge4" class="edge">
<title>14&#45;&gt;3</title>
<path fill="none" stroke="black" stroke-dasharray="5,2" d="M1015,-234.81C1015,-226.79 1015,-217.05 1015,-208.07"/>
<polygon fill="black" stroke="black" points="1018.5,-208.03 1015,-198.03 1011.5,-208.03 1018.5,-208.03"/>
</g>
<!-- 40 -->
<g id="node42" class="node">
<title>40</title>
<ellipse fill="none" stroke="black" cx="1136" cy="-180" rx="50.09" ry="18"/>
<text text-anchor="middle" x="1136" y="-176.3" font-family="Times,serif" font-size="14.00">V569 (b)</text>
</g>
<!-- 14&#45;&gt;40 -->
<g id="edge40" class="edge">
<title>14&#45;&gt;40</title>
<path fill="none" stroke="black" stroke-dasharray="5,2" d="M1039.78,-237.46C1057.77,-226.91 1082.32,-212.5 1102.12,-200.88"/>
<polygon fill="black" stroke="black" points="1103.99,-203.84 1110.84,-195.76 1100.44,-197.81 1103.99,-203.84"/>
</g>
<!-- 15&#45;&gt;5 -->
<g id="edge6" class="edge">
<title>15&#45;&gt;5</title>
<path fill="none" stroke="gray" d="M330.47,-705.71C311.35,-693.01 283.17,-674.3 261.51,-659.92"/>
<polygon fill="gray" stroke="gray" points="263.24,-656.87 252.97,-654.25 259.37,-662.7 263.24,-656.87"/>
</g>
<!-- 16 -->
<g id="node18" class="node">
<title>16</title>
<ellipse fill="none" stroke="black" cx="878" cy="-326" rx="42.49" ry="18"/>
<text text-anchor="middle" x="878" y="-322.3" font-family="Times,serif" font-size="14.00">Est (b)</text>
</g>
<!-- 17 -->
<g id="node19" class="node">
<title>17</title>
<ellipse fill="none" stroke="black" cx="850" cy="-399" rx="55.79" ry="18"/>
<text text-anchor="middle" x="850" y="-395.3" font-family="Times,serif" font-size="14.00">V1897 (b)</text>
</g>
<!-- 17&#45;&gt;10 -->
<g id="edge11" class="edge">
<title>17&#45;&gt;10</title>
<path fill="none" stroke="black" d="M832.37,-381.53C822.18,-372.01 809.22,-359.9 798.1,-349.51"/>
<polygon fill="black" stroke="black" points="800.45,-346.92 790.75,-342.65 795.67,-352.03 800.45,-346.92"/>
</g>
<!-- 17&#45;&gt;16 -->
<g id="edge16" class="edge">
<title>17&#45;&gt;16</title>
<path fill="none" stroke="black" stroke-dasharray="1,5" d="M856.78,-380.81C860.01,-372.62 863.95,-362.62 867.56,-353.48"/>
<polygon fill="black" stroke="black" points="870.87,-354.62 871.28,-344.03 864.36,-352.05 870.87,-354.62"/>
</g>
<!-- 18 -->
<g id="node20" class="node">
<title>18</title>
<ellipse fill="none" stroke="black" cx="1015" cy="-326" rx="50.09" ry="18"/>
<text text-anchor="middle" x="1015" y="-322.3" font-family="Times,serif" font-size="14.00">V568 (b)</text>
</g>
<!-- 18&#45;&gt;14 -->
<g id="edge14" class="edge">
<title>18&#45;&gt;14</title>
<path fill="none" stroke="black" stroke-dasharray="1,5" d="M1015,-307.81C1015,-299.79 1015,-290.05 1015,-281.07"/>
<polygon fill="black" stroke="black" points="1018.5,-281.03 1015,-271.03 1011.5,-281.03 1018.5,-281.03"/>
</g>
<!-- 19 -->
<g id="node21" class="node">
<title>19</title>
<ellipse fill="none" stroke="black" cx="719" cy="-555" rx="50.09" ry="18"/>
<text text-anchor="middle" x="719" y="-551.3" font-family="Times,serif" font-size="14.00">V566 (b)</text>
</g>
<!-- 35 -->
<g id="node37" class="node">
<title>35</title>
<ellipse fill="none" stroke="black" cx="668" cy="-472" rx="55.79" ry="18"/>
<text text-anchor="middle" x="668" y="-468.3" font-family="Times,serif" font-size="14.00">V1639 (b)</text>
</g>
<!-- 19&#45;&gt;35 -->
<g id="edge35" class="edge">
<title>19&#45;&gt;35</title>
<path fill="none" stroke="black" stroke-dasharray="1,5" d="M708.43,-537.22C701.39,-526.03 692,-511.12 684.04,-498.48"/>
<polygon fill="black" stroke="black" points="686.84,-496.36 678.55,-489.76 680.92,-500.09 686.84,-496.36"/>
</g>
<!-- 42 -->
<g id="node44" class="node">
<title>42</title>
<ellipse fill="none" stroke="black" cx="787" cy="-472" rx="45.49" ry="18"/>
<text text-anchor="middle" x="787" y="-468.3" font-family="Times,serif" font-size="14.00">Nan (b)</text>
</g>
<!-- 19&#45;&gt;42 -->
<g id="edge42" class="edge">
<title>19&#45;&gt;42</title>
<path fill="none" stroke="black" stroke-dasharray="5,2" d="M732.76,-537.61C742.53,-525.97 755.81,-510.16 766.78,-497.09"/>
<polygon fill="black" stroke="black" points="769.51,-499.28 773.26,-489.37 764.15,-494.78 769.51,-499.28"/>
<text text-anchor="middle" x="760.5" y="-511" font-family="Times,serif" font-size="10.00">3</text>
</g>
<!-- 20 -->
<g id="node22" class="node">
<title>20</title>
<ellipse fill="none" stroke="gray" stroke-dasharray="5,2" cx="1175" cy="-555" rx="45.49" ry="18"/>
<text text-anchor="middle" x="1175" y="-551.3" font-family="Times,serif" font-size="14.00">LaSM&#45;c</text>
</g>
<!-- 21&#45;&gt;7 -->
<g id="edge8" class="edge">
<title>21&#45;&gt;7</title>
<path fill="none" stroke="black" stroke-dasharray="5,2" d="M494.57,-706.08C464.8,-692.45 419.31,-671.64 386.92,-656.81"/>
<polygon fill="black" stroke="black" points="388.29,-653.59 377.74,-652.61 385.37,-659.95 388.29,-653.59"/>
</g>
<!-- 29 -->
<g id="node31" class="node">
<title>29</title>
<ellipse fill="none" stroke="black" cx="466" cy="-638" rx="50.09" ry="18"/>
<text text-anchor="middle" x="466" y="-634.3" font-family="Times,serif" font-size="14.00">V565 (a)</text>
</g>
<!-- 21&#45;&gt;29 -->
<g id="edge29" class="edge">
<title>21&#45;&gt;29</title>
<path fill="none" stroke="black" stroke-dasharray="1,5" d="M512.78,-703.22C504.49,-691.85 493.41,-676.63 484.1,-663.86"/>
<polygon fill="black" stroke="black" points="486.72,-661.51 478.01,-655.48 481.07,-665.63 486.72,-661.51"/>
<text text-anchor="middle" x="502.5" y="-677" font-family="Times,serif" font-size="10.00">2</text>
</g>
<!-- 45 -->
<g id="node47" class="node">
<title>45</title>
<ellipse fill="none" stroke="black" cx="584" cy="-638" rx="50.09" ry="18"/>
<text text-anchor="middle" x="584" y="-634.3" font-family="Times,serif" font-size="14.00">A116 (a)</text>
</g>
<!-- 21&#45;&gt;45 -->
<g id="edge45" class="edge">
<title>21&#45;&gt;45</title>
<path fill="none" stroke="black" stroke-dasharray="5,2" d="M537.22,-703.22C545.51,-691.85 556.59,-676.63 565.9,-663.86"/>
<polygon fill="black" stroke="black" points="568.93,-665.63 571.99,-655.48 563.28,-661.51 568.93,-665.63"/>
<text text-anchor="middle" x="561.5" y="-677" font-family="Times,serif" font-size="10.00">3</text>
</g>
<!-- 23 -->
<g id="node25" class="node">
<title>23</title>
<ellipse fill="none" stroke="black" cx="1289" cy="-555" rx="50.89" ry="18"/>
<text text-anchor="middle" x="1289" y="-551.3" font-family="Times,serif" font-size="14.00">Neap (b)</text>
</g>
<!-- 28 -->
<g id="node30" class="node">
<title>28</title>
<ellipse fill="none" stroke="black" cx="1084" cy="-472" rx="55.79" ry="18"/>
<text text-anchor="middle" x="1084" y="-468.3" font-family="Times,serif" font-size="14.00">V1629 (b)</text>
</g>
<!-- 23&#45;&gt;28 -->
<g id="edge28" class="edge">
<title>23&#45;&gt;28</title>
<path fill="none" stroke="black" stroke-dasharray="1,5" d="M1256.52,-541.17C1221.65,-527.39 1166.08,-505.43 1127.47,-490.17"/>
<polygon fill="black" stroke="black" points="1128.62,-486.87 1118.04,-486.45 1126.05,-493.38 1128.62,-486.87"/>
</g>
<!-- 32 -->
<g id="node34" class="node">
<title>32</title>
<ellipse fill="none" stroke="gray" stroke-dasharray="5,2" cx="1198" cy="-472" rx="39.79" ry="18"/>
<text text-anchor="middle" x="1198" y="-468.3" font-family="Times,serif" font-size="14.00">Taur&#45;c</text>
</g>
<!-- 23&#45;&gt;32 -->
<g id="edge32" class="edge">
<title>23&#45;&gt;32</title>
<path fill="none" stroke="gray" stroke-width="2" d="M1271.02,-538C1257.26,-525.75 1238.12,-508.71 1222.88,-495.15"/>
<polygon fill="gray" stroke="gray" stroke-width="2" points="1225.12,-492.45 1215.32,-488.42 1220.47,-497.68 1225.12,-492.45"/>
</g>
<!-- 36 -->
<g id="node38" class="node">
<title>36</title>
<ellipse fill="none" stroke="gray" stroke-dasharray="5,2" cx="1298" cy="-472" rx="42.49" ry="18"/>
<text text-anchor="middle" x="1298" y="-468.3" font-family="Times,serif" font-size="14.00">Marc&#45;c</text>
</g>
<!-- 23&#45;&gt;36 -->
<g id="edge36" class="edge">
<title>23&#45;&gt;36</title>
<path fill="none" stroke="gray" stroke-dasharray="5,2" d="M1290.91,-536.82C1292.09,-526.19 1293.63,-512.31 1294.98,-500.2"/>
<polygon fill="gray" stroke="gray" points="1298.47,-500.48 1296.09,-490.15 1291.51,-499.71 1298.47,-500.48"/>
</g>
<!-- 24 -->
<g id="node26" class="node">
<title>24</title>
<ellipse fill="none" stroke="black" cx="1015" cy="-399" rx="50.09" ry="18"/>
<text text-anchor="middle" x="1015" y="-395.3" font-family="Times,serif" font-size="14.00">V536 (b)</text>
</g>
<!-- 24&#45;&gt;18 -->
<g id="edge18" class="edge">
<title>24&#45;&gt;18</title>
<path fill="none" stroke="black" stroke-dasharray="1,5" d="M1015,-380.81C1015,-372.79 1015,-363.05 1015,-354.07"/>
<polygon fill="black" stroke="black" points="1018.5,-354.03 1015,-344.03 1011.5,-354.03 1018.5,-354.03"/>
</g>
<!-- 25 -->
<g id="node27" class="node">
<title>25</title>
<ellipse fill="none" stroke="black" cx="820" cy="-638" rx="55.79" ry="18"/>
<text text-anchor="middle" x="820" y="-634.3" font-family="Times,serif" font-size="14.00">V2036 (b)</text>
</g>
<!-- 26 -->
<g id="node28" class="node">
<title>26</title>
<ellipse fill="none" stroke="black" cx="943" cy="-638" rx="49.29" ry="18"/>
<text text-anchor="middle" x="943" y="-634.3" font-family="Times,serif" font-size="14.00">La35 (b)</text>
</g>
<!-- 27&#45;&gt;12 -->
<g id="edge12" class="edge">
<title>27&#45;&gt;12</title>
<path fill="none" stroke="black" stroke-dasharray="5,2" d="M850.95,-706.62C820.07,-692.88 771.87,-671.43 738.06,-656.38"/>
<polygon fill="black" stroke="black" points="739.05,-653 728.49,-652.13 736.21,-659.39 739.05,-653"/>
</g>
<!-- 27&#45;&gt;25 -->
<g id="edge25" class="edge">
<title>27&#45;&gt;25</title>
<path fill="none" stroke="black" stroke-dasharray="5,2" d="M868.36,-703.22C859.85,-691.92 848.49,-676.83 838.91,-664.11"/>
<polygon fill="black" stroke="black" points="841.43,-661.64 832.62,-655.76 835.84,-665.86 841.43,-661.64"/>
</g>
<!-- 27&#45;&gt;26 -->
<g id="edge26" class="edge">
<title>27&#45;&gt;26</title>
<path fill="none" stroke="black" stroke-dasharray="1,5" d="M893.85,-703.22C902.63,-691.74 914.42,-676.33 924.26,-663.49"/>
<polygon fill="black" stroke="black" points="927.08,-665.55 930.38,-655.48 921.52,-661.3 927.08,-665.55"/>
</g>
<!-- 34 -->
<g id="node36" class="node">
<title>34</title>
<ellipse fill="none" stroke="black" cx="1060" cy="-638" rx="50.09" ry="18"/>
<text text-anchor="middle" x="1060" y="-634.3" font-family="Times,serif" font-size="14.00">Patm (b)</text>
</g>
<!-- 27&#45;&gt;34 -->
<g id="edge34" class="edge">
<title>27&#45;&gt;34</title>
<path fill="none" stroke="black" stroke-dasharray="1,5" d="M910.96,-706.44C941.03,-692.83 987.52,-671.8 1020.58,-656.84"/>
<polygon fill="black" stroke="black" points="1022.27,-659.91 1029.94,-652.6 1019.39,-653.54 1022.27,-659.91"/>
<text text-anchor="middle" x="984.5" y="-677" font-family="Times,serif" font-size="10.00">2</text>
</g>
<!-- 38 -->
<g id="node40" class="node">
<title>38</title>
<ellipse fill="none" stroke="black" cx="1181" cy="-638" rx="53.09" ry="18"/>
<text text-anchor="middle" x="1181" y="-634.3" font-family="Times,serif" font-size="14.00">M136 (b)</text>
</g>
<!-- 27&#45;&gt;38 -->
<g id="edge38" class="edge">
<title>27&#45;&gt;38</title>
<path fill="none" stroke="black" d="M918.08,-708.95C925.02,-706.94 932.22,-704.88 939,-703 1018.68,-680.93 1039.13,-677.38 1119,-656 1123,-654.93 1127.15,-653.81 1131.31,-652.68"/>
<polygon fill="black" stroke="black" points="1132.27,-656.05 1141,-650.05 1130.43,-649.29 1132.27,-656.05"/>
<text text-anchor="middle" x="1050.5" y="-677" font-family="Times,serif" font-size="10.00">2</text>
</g>
<!-- 44 -->
<g id="node46" class="node">
<title>44</title>
<ellipse fill="none" stroke="black" cx="1296" cy="-638" rx="43.59" ry="18"/>
<text text-anchor="middle" x="1296" y="-634.3" font-family="Times,serif" font-size="14.00">La2 (b)</text>
</g>
<!-- 27&#45;&gt;44 -->
<g id="edge44" class="edge">
<title>27&#45;&gt;44</title>
<path fill="none" stroke="black" d="M917,-708.63C924.24,-706.58 931.83,-704.59 939,-703 991.23,-691.45 1005.13,-693.14 1058,-685 1140.26,-672.33 1162.02,-675.21 1243,-656 1246.6,-655.15 1250.3,-654.17 1254,-653.12"/>
<polygon fill="black" stroke="black" points="1255.12,-656.44 1263.71,-650.23 1253.13,-649.73 1255.12,-656.44"/>
<text text-anchor="middle" x="1144.5" y="-677" font-family="Times,serif" font-size="10.00">2</text>
</g>
<!-- 28&#45;&gt;24 -->
<g id="edge24" class="edge">
<title>28&#45;&gt;24</title>
<path fill="none" stroke="black" stroke-dasharray="5,2" d="M1068,-454.53C1059.11,-445.39 1047.91,-433.86 1038.09,-423.76"/>
<polygon fill="black" stroke="black" points="1040.4,-421.11 1030.92,-416.38 1035.38,-425.99 1040.4,-421.11"/>
</g>
<!-- 37 -->
<g id="node39" class="node">
<title>37</title>
<ellipse fill="none" stroke="gray" stroke-dasharray="5,2" cx="1119" cy="-399" rx="36" ry="18"/>
<text text-anchor="middle" x="1119" y="-395.3" font-family="Times,serif" font-size="14.00">La2&#45;c</text>
</g>
<!-- 28&#45;&gt;37 -->
<g id="edge37" class="edge">
<title>28&#45;&gt;37</title>
<path fill="none" stroke="gray" stroke-width="2" d="M1092.29,-454.17C1096.48,-445.69 1101.65,-435.21 1106.32,-425.73"/>
<polygon fill="gray" stroke="gray" stroke-width="2" points="1109.48,-427.22 1110.77,-416.71 1103.2,-424.13 1109.48,-427.22"/>
</g>
<!-- 31 -->
<g id="node33" class="node">
<title>31</title>
<ellipse fill="none" stroke="black" cx="837" cy="-555" rx="50.09" ry="18"/>
<text text-anchor="middle" x="837" y="-551.3" font-family="Times,serif" font-size="14.00">S249 (b)</text>
</g>
<!-- 33 -->
<g id="node35" class="node">
<title>33</title>
<ellipse fill="none" stroke="black" cx="955" cy="-555" rx="50.09" ry="18"/>
<text text-anchor="middle" x="955" y="-551.3" font-family="Times,serif" font-size="14.00">V560 (b)</text>
</g>
<!-- 43 -->
<g id="node45" class="node">
<title>43</title>
<ellipse fill="none" stroke="black" cx="954" cy="-472" rx="55.79" ry="18"/>
<text text-anchor="middle" x="954" y="-468.3" font-family="Times,serif" font-size="14.00">V1920 (b)</text>
</g>
<!-- 33&#45;&gt;43 -->
<g id="edge43" class="edge">
<title>33&#45;&gt;43</title>
<path fill="none" stroke="black" stroke-dasharray="5,2" d="M954.79,-536.82C954.66,-526.19 954.49,-512.31 954.34,-500.2"/>
<polygon fill="black" stroke="black" points="957.84,-500.11 954.21,-490.15 950.84,-500.2 957.84,-500.11"/>
</g>
<!-- 34&#45;&gt;2 -->
<g id="edge3" class="edge">
<title>34&#45;&gt;2</title>
<path fill="none" stroke="black" stroke-dasharray="5,2" d="M1023.71,-625.59C1016.25,-623.51 1008.41,-621.52 1001,-620 938.26,-607.09 921.47,-610.64 858,-602 769.87,-590 747.05,-591.24 660,-573 655.64,-572.09 651.14,-571.05 646.64,-569.94"/>
<polygon fill="black" stroke="black" points="647.41,-566.52 636.85,-567.43 645.67,-573.3 647.41,-566.52"/>
</g>
<!-- 34&#45;&gt;19 -->
<g id="edge19" class="edge">
<title>34&#45;&gt;19</title>
<path fill="none" stroke="black" stroke-dasharray="1,5" d="M1022.97,-625.89C1015.71,-623.83 1008.14,-621.78 1001,-620 902.71,-595.52 876.29,-597.48 778,-573 773.99,-572 769.83,-570.91 765.67,-569.79"/>
<polygon fill="black" stroke="black" points="766.6,-566.41 756.03,-567.11 764.73,-573.16 766.6,-566.41"/>
<text text-anchor="middle" x="919.5" y="-594" font-family="Times,serif" font-size="10.00">3</text>
</g>
<!-- 34&#45;&gt;31 -->
<g id="edge31" class="edge">
<title>34&#45;&gt;31</title>
<path fill="none" stroke="black" stroke-dasharray="5,2" d="M1026.13,-624.7C987.13,-610.53 922.98,-587.23 880.37,-571.75"/>
<polygon fill="black" stroke="black" points="881.42,-568.41 870.82,-568.28 879.03,-574.99 881.42,-568.41"/>
<text text-anchor="middle" x="964.5" y="-594" font-family="Times,serif" font-size="10.00">3</text>
</g>
<!-- 34&#45;&gt;33 -->
<g id="edge33" class="edge">
<title>34&#45;&gt;33</title>
<path fill="none" stroke="black" stroke-width="2" d="M1039.75,-621.38C1023.78,-609.06 1001.29,-591.71 983.49,-577.98"/>
<polygon fill="black" stroke="black" stroke-width="2" points="985.24,-574.91 975.18,-571.57 980.96,-580.45 985.24,-574.91"/>
<text text-anchor="middle" x="1016.5" y="-594" font-family="Times,serif" font-size="10.00">2</text>
</g>
<!-- 39 -->
<g id="node41" class="node">
<title>39</title>
<ellipse fill="none" stroke="black" cx="1067" cy="-555" rx="44.39" ry="18"/>
<text text-anchor="middle" x="1067" y="-551.3" font-family="Times,serif" font-size="14.00">P01 (b)</text>
</g>
<!-- 34&#45;&gt;39 -->
<g id="edge39" class="edge">
<title>34&#45;&gt;39</title>
<path fill="none" stroke="black" stroke-dasharray="1,5" d="M1061.48,-619.82C1062.4,-609.19 1063.6,-595.31 1064.65,-583.2"/>
<polygon fill="black" stroke="black" points="1068.14,-583.42 1065.52,-573.15 1061.17,-582.81 1068.14,-583.42"/>
<text text-anchor="middle" x="1066.5" y="-594" font-family="Times,serif" font-size="10.00">2</text>
</g>
<!-- 38&#45;&gt;20 -->
<g id="edge20" class="edge">
<title>38&#45;&gt;20</title>
<path fill="none" stroke="gray" stroke-dasharray="5,2" d="M1179.73,-619.82C1178.94,-609.19 1177.91,-595.31 1177.02,-583.2"/>
<polygon fill="gray" stroke="gray" points="1180.5,-582.87 1176.27,-573.15 1173.52,-583.38 1180.5,-582.87"/>
</g>
<!-- 38&#45;&gt;23 -->
<g id="edge23" class="edge">
<title>38&#45;&gt;23</title>
<path fill="none" stroke="black" stroke-dasharray="5,2" d="M1201.82,-621.38C1218.41,-608.94 1241.81,-591.39 1260.19,-577.61"/>
<polygon fill="black" stroke="black" points="1262.34,-580.37 1268.24,-571.57 1258.14,-574.77 1262.34,-580.37"/>
<text text-anchor="middle" x="1244.5" y="-594" font-family="Times,serif" font-size="10.00">2</text>
</g>
<!-- 41&#45;&gt;13 -->
<g id="edge13" class="edge">
<title>41&#45;&gt;13</title>
<path fill="none" stroke="black" stroke-dasharray="1,5" d="M954.4,-786.22C962.07,-774.92 972.32,-759.83 980.95,-747.11"/>
<polygon fill="black" stroke="black" points="983.9,-749 986.62,-738.76 978.11,-745.07 983.9,-749"/>
<text text-anchor="middle" x="976.5" y="-760" font-family="Times,serif" font-size="10.00">2</text>
</g>
<!-- 42&#45;&gt;9 -->
<g id="edge10" class="edge">
<title>42&#45;&gt;9</title>
<path fill="none" stroke="black" stroke-dasharray="5,2" d="M771.8,-454.89C763.18,-445.76 752.24,-434.16 742.63,-423.98"/>
<polygon fill="black" stroke="black" points="745.02,-421.41 735.61,-416.54 739.93,-426.22 745.02,-421.41"/>
</g>
<!-- 42&#45;&gt;17 -->
<g id="edge17" class="edge">
<title>42&#45;&gt;17</title>
<path fill="none" stroke="black" stroke-dasharray="1,5" d="M801.3,-454.89C809.32,-445.85 819.48,-434.39 828.45,-424.28"/>
<polygon fill="black" stroke="black" points="831.3,-426.34 835.32,-416.54 826.07,-421.7 831.3,-426.34"/>
</g>
</g>
</svg>
