<?xml version="1.0" encoding="UTF-8" standalone="no"?>
<!DOCTYPE svg PUBLIC "-//W3C//DTD SVG 1.1//EN"
 "http://www.w3.org/Graphics/SVG/1.1/DTD/svg11.dtd">
<!-- Generated by graphviz version 2.43.0 (0)
 -->
<!-- Title: textual_flow Pages: 1 -->
<svg width="1826pt" height="672pt"
 viewBox="0.00 0.00 1826.00 672.00" xmlns="http://www.w3.org/2000/svg" xmlns:xlink="http://www.w3.org/1999/xlink">
<g id="graph0" class="graph" transform="scale(1 1) rotate(0) translate(4 668)">
<title>textual_flow</title>
<polygon fill="white" stroke="transparent" points="-4,4 -4,-668 1822,-668 1822,4 -4,4"/>
<g id="clust1" class="cluster">
<title>cluster_legend</title>
<polygon fill="none" stroke="black" points="8,-602 8,-656 186,-656 186,-602 8,-602"/>
</g>
<g id="clust2" class="cluster">
<title>cluster_plot</title>
</g>
<!-- label -->
<g id="node1" class="node">
<title>label</title>
<text text-anchor="middle" x="97" y="-632.8" font-family="Times,serif" font-size="14.00">adstag1.3.18U22&#45;28</text>
<text text-anchor="middle" x="97" y="-617.8" font-family="Times,serif" font-size="14.00">Con = 10</text>
</g>
<!-- 0 -->
<g id="node2" class="node">
<title>0</title>
<ellipse fill="none" stroke="black" cx="1200" cy="-482" rx="44.39" ry="18"/>
<text text-anchor="middle" x="1200" y="-478.3" font-family="Times,serif" font-size="14.00">P01 (a)</text>
</g>
<!-- 1 -->
<g id="node3" class="node">
<title>1</title>
<ellipse fill="none" stroke="black" cx="455" cy="-555" rx="55.79" ry="18"/>
<text text-anchor="middle" x="455" y="-551.3" font-family="Times,serif" font-size="14.00">V2036 (a)</text>
</g>
<!-- 2 -->
<g id="node4" class="node">
<title>2</title>
<ellipse fill="none" stroke="black" cx="1674" cy="-253" rx="47.39" ry="18"/>
<text text-anchor="middle" x="1674" y="-249.3" font-family="Times,serif" font-size="14.00">Taur (d)</text>
</g>
<!-- 8 -->
<g id="node10" class="node">
<title>8</title>
<ellipse fill="none" stroke="black" cx="1512" cy="-180" rx="50.09" ry="18"/>
<text text-anchor="middle" x="1512" y="-176.3" font-family="Times,serif" font-size="14.00">V569 (d)</text>
</g>
<!-- 2&#45;&gt;8 -->
<g id="edge9" class="edge">
<title>2&#45;&gt;8</title>
<path fill="none" stroke="black" stroke-dasharray="5,2" d="M1643.91,-238.81C1617.93,-227.43 1580.2,-210.89 1551.75,-198.42"/>
<polygon fill="black" stroke="black" points="1553.04,-195.17 1542.48,-194.36 1550.23,-201.58 1553.04,-195.17"/>
</g>
<!-- 21 -->
<g id="node23" class="node">
<title>21</title>
<ellipse fill="none" stroke="black" cx="1632" cy="-180" rx="51.99" ry="18"/>
<text text-anchor="middle" x="1632" y="-176.3" font-family="Times,serif" font-size="14.00">M118 (c)</text>
</g>
<!-- 2&#45;&gt;21 -->
<g id="edge21" class="edge">
<title>2&#45;&gt;21</title>
<path fill="none" stroke="blue" stroke-dasharray="5,2" d="M1664.05,-235.17C1658.97,-226.6 1652.7,-215.99 1647.05,-206.44"/>
<polygon fill="blue" stroke="blue" points="1649.99,-204.53 1641.88,-197.71 1643.96,-208.09 1649.99,-204.53"/>
</g>
<!-- 40 -->
<g id="node42" class="node">
<title>40</title>
<ellipse fill="none" stroke="black" cx="1752" cy="-180" rx="50.09" ry="18"/>
<text text-anchor="middle" x="1752" y="-176.3" font-family="Times,serif" font-size="14.00">Marc (d)</text>
</g>
<!-- 2&#45;&gt;40 -->
<g id="edge40" class="edge">
<title>2&#45;&gt;40</title>
<path fill="none" stroke="black" stroke-dasharray="1,5" d="M1691.7,-235.89C1702.07,-226.45 1715.34,-214.37 1726.79,-203.95"/>
<polygon fill="black" stroke="black" points="1729.33,-206.37 1734.37,-197.05 1724.62,-201.19 1729.33,-206.37"/>
</g>
<!-- 3 -->
<g id="node5" class="node">
<title>3</title>
<ellipse fill="none" stroke="black" cx="1306" cy="-482" rx="44.39" ry="18"/>
<text text-anchor="middle" x="1306" y="-478.3" font-family="Times,serif" font-size="14.00">S32 (a)</text>
</g>
<!-- 4 -->
<g id="node6" class="node">
<title>4</title>
<ellipse fill="none" stroke="black" cx="507" cy="-399" rx="50.09" ry="18"/>
<text text-anchor="middle" x="507" y="-395.3" font-family="Times,serif" font-size="14.00">V565 (b)</text>
</g>
<!-- 5 -->
<g id="node7" class="node">
<title>5</title>
<ellipse fill="none" stroke="black" cx="511" cy="-482" rx="49.29" ry="18"/>
<text text-anchor="middle" x="511" y="-478.3" font-family="Times,serif" font-size="14.00">La35 (b)</text>
</g>
<!-- 5&#45;&gt;4 -->
<g id="edge5" class="edge">
<title>5&#45;&gt;4</title>
<path fill="none" stroke="black" stroke-dasharray="1,5" d="M510.15,-463.82C509.63,-453.19 508.94,-439.31 508.34,-427.2"/>
<polygon fill="black" stroke="black" points="511.84,-426.97 507.85,-417.15 504.84,-427.31 511.84,-426.97"/>
<text text-anchor="middle" x="512.5" y="-438" font-family="Times,serif" font-size="10.00">3</text>
</g>
<!-- 37 -->
<g id="node39" class="node">
<title>37</title>
<ellipse fill="none" stroke="black" cx="631" cy="-399" rx="55.79" ry="18"/>
<text text-anchor="middle" x="631" y="-395.3" font-family="Times,serif" font-size="14.00">V2250 (b)</text>
</g>
<!-- 5&#45;&gt;37 -->
<g id="edge37" class="edge">
<title>5&#45;&gt;37</title>
<path fill="none" stroke="black" d="M533.57,-465.76C552.22,-453.17 578.91,-435.16 599.64,-421.17"/>
<polygon fill="black" stroke="black" points="601.79,-423.94 608.12,-415.44 597.88,-418.14 601.79,-423.94"/>
<text text-anchor="middle" x="581.5" y="-438" font-family="Times,serif" font-size="10.00">9</text>
</g>
<!-- 6 -->
<g id="node8" class="node">
<title>6</title>
<ellipse fill="none" stroke="gray" stroke-dasharray="5,2" cx="1632" cy="-107" rx="28.7" ry="18"/>
<text text-anchor="middle" x="1632" y="-103.3" font-family="Times,serif" font-size="14.00">P18</text>
</g>
<!-- 7 -->
<g id="node9" class="node">
<title>7</title>
<ellipse fill="none" stroke="black" cx="579" cy="-555" rx="50.09" ry="18"/>
<text text-anchor="middle" x="579" y="-551.3" font-family="Times,serif" font-size="14.00">V560 (a)</text>
</g>
<!-- 35 -->
<g id="node37" class="node">
<title>35</title>
<ellipse fill="none" stroke="black" cx="258" cy="-482" rx="55.79" ry="18"/>
<text text-anchor="middle" x="258" y="-478.3" font-family="Times,serif" font-size="14.00">V1920 (a)</text>
</g>
<!-- 7&#45;&gt;35 -->
<g id="edge35" class="edge">
<title>7&#45;&gt;35</title>
<path fill="none" stroke="black" stroke-dasharray="5,2" d="M542,-542.76C534.74,-540.72 527.16,-538.7 520,-537 433.32,-516.42 409.92,-519.5 323,-500 318.4,-498.97 313.64,-497.84 308.88,-496.67"/>
<polygon fill="black" stroke="black" points="309.71,-493.27 299.16,-494.23 308,-500.06 309.71,-493.27"/>
</g>
<!-- 9 -->
<g id="node11" class="node">
<title>9</title>
<ellipse fill="none" stroke="black" cx="1628" cy="-482" rx="44.39" ry="18"/>
<text text-anchor="middle" x="1628" y="-478.3" font-family="Times,serif" font-size="14.00">B39 (a)</text>
</g>
<!-- 10 -->
<g id="node12" class="node">
<title>10</title>
<ellipse fill="none" stroke="black" cx="1090" cy="-629" rx="53.89" ry="18"/>
<text text-anchor="middle" x="1090" y="-625.3" font-family="Times,serif" font-size="14.00">aBase (a)</text>
</g>
<!-- 10&#45;&gt;1 -->
<g id="edge2" class="edge">
<title>10&#45;&gt;1</title>
<path fill="none" stroke="black" d="M1036.57,-625.69C935.18,-620.69 708.18,-606.47 520,-573 515.23,-572.15 510.29,-571.13 505.37,-570.01"/>
<polygon fill="black" stroke="black" points="505.89,-566.54 495.35,-567.62 504.26,-573.35 505.89,-566.54"/>
</g>
<!-- 10&#45;&gt;7 -->
<g id="edge8" class="edge">
<title>10&#45;&gt;7</title>
<path fill="none" stroke="black" stroke-width="2" d="M1037.71,-624.36C953.07,-617.86 781.11,-602.13 638,-573 633.83,-572.15 629.52,-571.15 625.23,-570.07"/>
<polygon fill="black" stroke="black" stroke-width="2" points="625.85,-566.62 615.28,-567.44 624.05,-573.38 625.85,-566.62"/>
</g>
<!-- 15 -->
<g id="node17" class="node">
<title>15</title>
<ellipse fill="none" stroke="gray" stroke-dasharray="5,2" cx="697" cy="-555" rx="50.09" ry="18"/>
<text text-anchor="middle" x="697" y="-551.3" font-family="Times,serif" font-size="14.00">Savile&#45;Η</text>
</g>
<!-- 10&#45;&gt;15 -->
<g id="edge15" class="edge">
<title>10&#45;&gt;15</title>
<path fill="none" stroke="gray" stroke-width="2" d="M1040.42,-621.69C974.88,-612.92 856.03,-595.57 756,-573 751.91,-572.08 747.67,-571.03 743.45,-569.93"/>
<polygon fill="gray" stroke="gray" stroke-width="2" points="744.22,-566.52 733.65,-567.28 742.39,-573.27 744.22,-566.52"/>
</g>
<!-- 22 -->
<g id="node24" class="node">
<title>22</title>
<ellipse fill="none" stroke="black" cx="810" cy="-555" rx="44.69" ry="18"/>
<text text-anchor="middle" x="810" y="-551.3" font-family="Times,serif" font-size="14.00">Nan (a)</text>
</g>
<!-- 10&#45;&gt;22 -->
<g id="edge22" class="edge">
<title>10&#45;&gt;22</title>
<path fill="none" stroke="black" d="M1046.45,-618.3C1000.78,-607.92 927.02,-590.57 864,-573 860.48,-572.02 856.84,-570.96 853.2,-569.88"/>
<polygon fill="black" stroke="black" points="854.19,-566.52 843.6,-566.96 852.15,-573.22 854.19,-566.52"/>
</g>
<!-- 24 -->
<g id="node26" class="node">
<title>24</title>
<ellipse fill="none" stroke="black" cx="922" cy="-555" rx="48.99" ry="18"/>
<text text-anchor="middle" x="922" y="-551.3" font-family="Times,serif" font-size="14.00">La22 (a)</text>
</g>
<!-- 10&#45;&gt;24 -->
<g id="edge24" class="edge">
<title>10&#45;&gt;24</title>
<path fill="none" stroke="black" stroke-dasharray="5,2" d="M1058.01,-614.29C1030.72,-602.59 991.37,-585.73 962,-573.14"/>
<polygon fill="black" stroke="black" points="963.03,-569.78 952.46,-569.05 960.27,-576.21 963.03,-569.78"/>
</g>
<!-- 25 -->
<g id="node27" class="node">
<title>25</title>
<ellipse fill="none" stroke="black" cx="1033" cy="-555" rx="44.39" ry="18"/>
<text text-anchor="middle" x="1033" y="-551.3" font-family="Times,serif" font-size="14.00">A25 (a)</text>
</g>
<!-- 10&#45;&gt;25 -->
<g id="edge25" class="edge">
<title>10&#45;&gt;25</title>
<path fill="none" stroke="black" stroke-dasharray="5,2" d="M1076.78,-611.3C1069.59,-602.21 1060.55,-590.8 1052.55,-580.7"/>
<polygon fill="black" stroke="black" points="1055.1,-578.28 1046.15,-572.61 1049.61,-582.62 1055.1,-578.28"/>
</g>
<!-- 26 -->
<g id="node28" class="node">
<title>26</title>
<ellipse fill="none" stroke="black" cx="1148" cy="-555" rx="53.09" ry="18"/>
<text text-anchor="middle" x="1148" y="-551.3" font-family="Times,serif" font-size="14.00">La2 (ar1)</text>
</g>
<!-- 10&#45;&gt;26 -->
<g id="edge26" class="edge">
<title>10&#45;&gt;26</title>
<path fill="none" stroke="black" stroke-width="2" d="M1103.45,-611.3C1110.85,-602.12 1120.15,-590.57 1128.35,-580.4"/>
<polygon fill="black" stroke="black" stroke-width="2" points="1131.07,-582.59 1134.62,-572.61 1125.62,-578.2 1131.07,-582.59"/>
</g>
<!-- 28 -->
<g id="node30" class="node">
<title>28</title>
<ellipse fill="none" stroke="black" cx="1269" cy="-555" rx="50.09" ry="18"/>
<text text-anchor="middle" x="1269" y="-551.3" font-family="Times,serif" font-size="14.00">S249 (a)</text>
</g>
<!-- 10&#45;&gt;28 -->
<g id="edge28" class="edge">
<title>10&#45;&gt;28</title>
<path fill="none" stroke="black" d="M1123.25,-614.63C1152.66,-602.8 1195.7,-585.48 1227.39,-572.74"/>
<polygon fill="black" stroke="black" points="1228.86,-575.92 1236.83,-568.94 1226.25,-569.42 1228.86,-575.92"/>
</g>
<!-- 32 -->
<g id="node34" class="node">
<title>32</title>
<ellipse fill="none" stroke="black" cx="1390" cy="-555" rx="52.79" ry="18"/>
<text text-anchor="middle" x="1390" y="-551.3" font-family="Times,serif" font-size="14.00">M136 (a)</text>
</g>
<!-- 10&#45;&gt;32 -->
<g id="edge32" class="edge">
<title>10&#45;&gt;32</title>
<path fill="none" stroke="black" stroke-width="2" d="M1133.99,-618.39C1181.86,-607.81 1260.57,-590.03 1328,-573 1332.14,-571.95 1336.43,-570.84 1340.72,-569.71"/>
<polygon fill="black" stroke="black" stroke-width="2" points="1341.95,-573 1350.71,-567.03 1340.14,-566.24 1341.95,-573"/>
</g>
<!-- 33 -->
<g id="node35" class="node">
<title>33</title>
<ellipse fill="none" stroke="black" cx="1513" cy="-555" rx="52.79" ry="18"/>
<text text-anchor="middle" x="1513" y="-551.3" font-family="Times,serif" font-size="14.00">LaSM (a)</text>
</g>
<!-- 10&#45;&gt;33 -->
<g id="edge33" class="edge">
<title>10&#45;&gt;33</title>
<path fill="none" stroke="black" d="M1140.12,-622.33C1210.31,-613.95 1341.68,-596.66 1452,-573 1456.17,-572.11 1460.48,-571.09 1464.79,-570.01"/>
<polygon fill="black" stroke="black" points="1465.98,-573.32 1474.78,-567.41 1464.22,-566.55 1465.98,-573.32"/>
</g>
<!-- 36 -->
<g id="node38" class="node">
<title>36</title>
<ellipse fill="none" stroke="black" cx="1634" cy="-555" rx="50.09" ry="18"/>
<text text-anchor="middle" x="1634" y="-551.3" font-family="Times,serif" font-size="14.00">Neap (a)</text>
</g>
<!-- 10&#45;&gt;36 -->
<g id="edge36" class="edge">
<title>10&#45;&gt;36</title>
<path fill="none" stroke="black" stroke-width="2" d="M1142.84,-624.92C1232.44,-619.04 1419.59,-603.97 1575,-573 1579.18,-572.17 1583.48,-571.18 1587.78,-570.11"/>
<polygon fill="black" stroke="black" stroke-width="2" points="1588.95,-573.42 1597.73,-567.48 1587.16,-566.65 1588.95,-573.42"/>
</g>
<!-- 42 -->
<g id="node44" class="node">
<title>42</title>
<ellipse fill="none" stroke="black" cx="1752" cy="-555" rx="50.09" ry="18"/>
<text text-anchor="middle" x="1752" y="-551.3" font-family="Times,serif" font-size="14.00">Patm (a)</text>
</g>
<!-- 10&#45;&gt;42 -->
<g id="edge42" class="edge">
<title>10&#45;&gt;42</title>
<path fill="none" stroke="black" d="M1143.71,-626.51C1249.63,-622.83 1492.57,-610.66 1693,-573 1697.18,-572.21 1701.5,-571.26 1705.8,-570.21"/>
<polygon fill="black" stroke="black" points="1706.96,-573.52 1715.75,-567.61 1705.19,-566.75 1706.96,-573.52"/>
</g>
<!-- 11 -->
<g id="node13" class="node">
<title>11</title>
<ellipse fill="none" stroke="black" cx="625" cy="-482" rx="46.59" ry="18"/>
<text text-anchor="middle" x="625" y="-478.3" font-family="Times,serif" font-size="14.00">Bodl (a)</text>
</g>
<!-- 12 -->
<g id="node14" class="node">
<title>12</title>
<ellipse fill="none" stroke="black" cx="1746" cy="-482" rx="55.79" ry="18"/>
<text text-anchor="middle" x="1746" y="-478.3" font-family="Times,serif" font-size="14.00">V1629 (a)</text>
</g>
<!-- 18 -->
<g id="node20" class="node">
<title>18</title>
<ellipse fill="none" stroke="gray" stroke-dasharray="5,2" cx="1642" cy="-399" rx="36" ry="18"/>
<text text-anchor="middle" x="1642" y="-395.3" font-family="Times,serif" font-size="14.00">La2&#45;c</text>
</g>
<!-- 12&#45;&gt;18 -->
<g id="edge18" class="edge">
<title>12&#45;&gt;18</title>
<path fill="none" stroke="gray" stroke-width="2" d="M1725.45,-465C1709.28,-452.4 1686.59,-434.73 1668.96,-421"/>
<polygon fill="gray" stroke="gray" stroke-width="2" points="1670.8,-417.99 1660.76,-414.61 1666.5,-423.51 1670.8,-417.99"/>
</g>
<!-- 30 -->
<g id="node32" class="node">
<title>30</title>
<ellipse fill="none" stroke="black" cx="1746" cy="-399" rx="50.09" ry="18"/>
<text text-anchor="middle" x="1746" y="-395.3" font-family="Times,serif" font-size="14.00">V536 (d)</text>
</g>
<!-- 12&#45;&gt;30 -->
<g id="edge30" class="edge">
<title>12&#45;&gt;30</title>
<path fill="none" stroke="blue" stroke-dasharray="5,2" d="M1746,-463.82C1746,-453.19 1746,-439.31 1746,-427.2"/>
<polygon fill="blue" stroke="blue" points="1749.5,-427.15 1746,-417.15 1742.5,-427.15 1749.5,-427.15"/>
</g>
<!-- 13 -->
<g id="node15" class="node">
<title>13</title>
<ellipse fill="none" stroke="black" cx="1418" cy="-482" rx="50.09" ry="18"/>
<text text-anchor="middle" x="1418" y="-478.3" font-family="Times,serif" font-size="14.00">V566 (a)</text>
</g>
<!-- 34 -->
<g id="node36" class="node">
<title>34</title>
<ellipse fill="none" stroke="black" cx="1418" cy="-399" rx="55.79" ry="18"/>
<text text-anchor="middle" x="1418" y="-395.3" font-family="Times,serif" font-size="14.00">V1639 (a)</text>
</g>
<!-- 13&#45;&gt;34 -->
<g id="edge34" class="edge">
<title>13&#45;&gt;34</title>
<path fill="none" stroke="black" stroke-dasharray="1,5" d="M1418,-463.82C1418,-453.19 1418,-439.31 1418,-427.2"/>
<polygon fill="black" stroke="black" points="1421.5,-427.15 1418,-417.15 1414.5,-427.15 1421.5,-427.15"/>
</g>
<!-- 14 -->
<g id="node16" class="node">
<title>14</title>
<ellipse fill="none" stroke="black" cx="740" cy="-482" rx="50.09" ry="18"/>
<text text-anchor="middle" x="740" y="-478.3" font-family="Times,serif" font-size="14.00">A116 (a)</text>
</g>
<!-- 16 -->
<g id="node18" class="node">
<title>16</title>
<ellipse fill="none" stroke="black" cx="967" cy="-399" rx="50.09" ry="18"/>
<text text-anchor="middle" x="967" y="-395.3" font-family="Times,serif" font-size="14.00">A336 (a)</text>
</g>
<!-- 17 -->
<g id="node19" class="node">
<title>17</title>
<ellipse fill="none" stroke="black" cx="1526" cy="-482" rx="40.09" ry="18"/>
<text text-anchor="middle" x="1526" y="-478.3" font-family="Times,serif" font-size="14.00">Pal (a)</text>
</g>
<!-- 19 -->
<g id="node21" class="node">
<title>19</title>
<ellipse fill="none" stroke="black" cx="1752" cy="-107" rx="44.39" ry="18"/>
<text text-anchor="middle" x="1752" y="-103.3" font-family="Times,serif" font-size="14.00">Mon (f)</text>
</g>
<!-- 31 -->
<g id="node33" class="node">
<title>31</title>
<ellipse fill="none" stroke="black" cx="1752" cy="-34" rx="38.99" ry="18"/>
<text text-anchor="middle" x="1752" y="-30.3" font-family="Times,serif" font-size="14.00">Sin (f)</text>
</g>
<!-- 19&#45;&gt;31 -->
<g id="edge31" class="edge">
<title>19&#45;&gt;31</title>
<path fill="none" stroke="black" stroke-dasharray="1,5" d="M1752,-88.81C1752,-80.79 1752,-71.05 1752,-62.07"/>
<polygon fill="black" stroke="black" points="1755.5,-62.03 1752,-52.03 1748.5,-62.03 1755.5,-62.03"/>
</g>
<!-- 20 -->
<g id="node22" class="node">
<title>20</title>
<ellipse fill="none" stroke="black" cx="852" cy="-482" rx="44.39" ry="18"/>
<text text-anchor="middle" x="852" y="-478.3" font-family="Times,serif" font-size="14.00">P74 (a)</text>
</g>
<!-- 21&#45;&gt;6 -->
<g id="edge7" class="edge">
<title>21&#45;&gt;6</title>
<path fill="none" stroke="gray" stroke-dasharray="5,2" d="M1632,-161.81C1632,-153.79 1632,-144.05 1632,-135.07"/>
<polygon fill="gray" stroke="gray" points="1635.5,-135.03 1632,-125.03 1628.5,-135.03 1635.5,-135.03"/>
</g>
<!-- 39 -->
<g id="node41" class="node">
<title>39</title>
<ellipse fill="none" stroke="black" cx="388" cy="-482" rx="55.79" ry="18"/>
<text text-anchor="middle" x="388" y="-478.3" font-family="Times,serif" font-size="14.00">V1897 (a)</text>
</g>
<!-- 22&#45;&gt;39 -->
<g id="edge39" class="edge">
<title>22&#45;&gt;39</title>
<path fill="none" stroke="black" stroke-dasharray="1,5" d="M777.13,-542.6C770.21,-540.5 762.92,-538.5 756,-537 623.41,-508.29 586.26,-525.44 453,-500 448.24,-499.09 443.31,-498.03 438.39,-496.89"/>
<polygon fill="black" stroke="black" points="438.92,-493.41 428.38,-494.46 437.27,-500.22 438.92,-493.41"/>
</g>
<!-- 23 -->
<g id="node25" class="node">
<title>23</title>
<ellipse fill="none" stroke="black" cx="293" cy="-399" rx="42.79" ry="18"/>
<text text-anchor="middle" x="293" y="-395.3" font-family="Times,serif" font-size="14.00">Bas (a)</text>
</g>
<!-- 24&#45;&gt;5 -->
<g id="edge6" class="edge">
<title>24&#45;&gt;5</title>
<path fill="none" stroke="blue" stroke-dasharray="1,5" d="M886.34,-542.57C879,-540.5 871.29,-538.52 864,-537 734.63,-510.11 698.37,-526.89 569,-500 565.07,-499.18 561.01,-498.23 556.96,-497.2"/>
<polygon fill="blue" stroke="blue" points="557.54,-493.73 546.97,-494.51 555.72,-500.49 557.54,-493.73"/>
</g>
<!-- 24&#45;&gt;11 -->
<g id="edge11" class="edge">
<title>24&#45;&gt;11</title>
<path fill="none" stroke="black" stroke-dasharray="5,2" d="M885.62,-542.82C878.48,-540.77 871.03,-538.74 864,-537 783.44,-517.09 761.46,-520.3 681,-500 677.23,-499.05 673.33,-498 669.43,-496.91"/>
<polygon fill="black" stroke="black" points="670.39,-493.54 659.81,-494.13 668.44,-500.27 670.39,-493.54"/>
</g>
<!-- 24&#45;&gt;14 -->
<g id="edge14" class="edge">
<title>24&#45;&gt;14</title>
<path fill="none" stroke="black" stroke-dasharray="5,2" d="M889.46,-541.31C859.53,-529.63 814.97,-512.25 782.29,-499.5"/>
<polygon fill="black" stroke="black" points="783.15,-496.08 772.56,-495.7 780.61,-502.6 783.15,-496.08"/>
</g>
<!-- 24&#45;&gt;20 -->
<g id="edge20" class="edge">
<title>24&#45;&gt;20</title>
<path fill="none" stroke="black" stroke-dasharray="1,5" d="M906.12,-537.89C896.9,-528.54 885.13,-516.6 874.92,-506.25"/>
<polygon fill="black" stroke="black" points="877.33,-503.71 867.82,-499.05 872.35,-508.63 877.33,-503.71"/>
</g>
<!-- 29 -->
<g id="node31" class="node">
<title>29</title>
<ellipse fill="none" stroke="black" cx="967" cy="-482" rx="52.79" ry="18"/>
<text text-anchor="middle" x="967" y="-478.3" font-family="Times,serif" font-size="14.00">M111 (a)</text>
</g>
<!-- 24&#45;&gt;29 -->
<g id="edge29" class="edge">
<title>24&#45;&gt;29</title>
<path fill="none" stroke="black" stroke-dasharray="1,5" d="M932.66,-537.17C938.1,-528.6 944.83,-517.99 950.88,-508.44"/>
<polygon fill="black" stroke="black" points="954.02,-510.03 956.41,-499.71 948.1,-506.28 954.02,-510.03"/>
</g>
<!-- 38 -->
<g id="node40" class="node">
<title>38</title>
<ellipse fill="none" stroke="black" cx="1088" cy="-482" rx="50.09" ry="18"/>
<text text-anchor="middle" x="1088" y="-478.3" font-family="Times,serif" font-size="14.00">V571 (a)</text>
</g>
<!-- 24&#45;&gt;38 -->
<g id="edge38" class="edge">
<title>24&#45;&gt;38</title>
<path fill="none" stroke="black" stroke-dasharray="1,5" d="M952.83,-540.81C979.54,-529.39 1018.36,-512.79 1047.55,-500.3"/>
<polygon fill="black" stroke="black" points="1049.23,-503.39 1057.05,-496.24 1046.48,-496.95 1049.23,-503.39"/>
</g>
<!-- 25&#45;&gt;0 -->
<g id="edge1" class="edge">
<title>25&#45;&gt;0</title>
<path fill="none" stroke="black" stroke-dasharray="5,2" d="M1062.47,-541.47C1089.93,-529.8 1131.05,-512.31 1161.18,-499.5"/>
<polygon fill="black" stroke="black" points="1162.71,-502.66 1170.54,-495.52 1159.97,-496.22 1162.71,-502.66"/>
</g>
<!-- 25&#45;&gt;3 -->
<g id="edge4" class="edge">
<title>25&#45;&gt;3</title>
<path fill="none" stroke="black" stroke-dasharray="5,2" d="M1065.94,-542.92C1072.55,-540.84 1079.47,-538.77 1086,-537 1159.38,-517.15 1179.62,-519.85 1253,-500 1256.37,-499.09 1259.84,-498.1 1263.32,-497.07"/>
<polygon fill="black" stroke="black" points="1264.52,-500.36 1273.06,-494.08 1262.48,-493.66 1264.52,-500.36"/>
</g>
<!-- 25&#45;&gt;13 -->
<g id="edge13" class="edge">
<title>25&#45;&gt;13</title>
<path fill="none" stroke="black" stroke-dasharray="5,2" d="M1065.26,-542.66C1072.05,-540.55 1079.21,-538.54 1086,-537 1205.42,-509.97 1239.19,-525.24 1359,-500 1363.11,-499.13 1367.35,-498.13 1371.58,-497.06"/>
<polygon fill="black" stroke="black" points="1372.62,-500.4 1381.38,-494.45 1370.82,-493.64 1372.62,-500.4"/>
</g>
<!-- 25&#45;&gt;17 -->
<g id="edge17" class="edge">
<title>25&#45;&gt;17</title>
<path fill="none" stroke="black" stroke-dasharray="5,2" d="M1064.94,-542.53C1071.81,-540.41 1079.09,-538.42 1086,-537 1256.99,-501.92 1306.43,-537.1 1477,-500 1480.36,-499.27 1483.8,-498.38 1487.23,-497.39"/>
<polygon fill="black" stroke="black" points="1488.28,-500.73 1496.79,-494.41 1486.2,-494.05 1488.28,-500.73"/>
</g>
<!-- 27 -->
<g id="node29" class="node">
<title>27</title>
<ellipse fill="none" stroke="black" cx="395" cy="-399" rx="41.69" ry="18"/>
<text text-anchor="middle" x="395" y="-395.3" font-family="Times,serif" font-size="14.00">Est (a)</text>
</g>
<!-- 29&#45;&gt;16 -->
<g id="edge16" class="edge">
<title>29&#45;&gt;16</title>
<path fill="none" stroke="black" stroke-dasharray="5,2" d="M967,-463.82C967,-453.19 967,-439.31 967,-427.2"/>
<polygon fill="black" stroke="black" points="970.5,-427.15 967,-417.15 963.5,-427.15 970.5,-427.15"/>
</g>
<!-- 41 -->
<g id="node43" class="node">
<title>41</title>
<ellipse fill="none" stroke="black" cx="1738" cy="-326" rx="50.09" ry="18"/>
<text text-anchor="middle" x="1738" y="-322.3" font-family="Times,serif" font-size="14.00">V568 (d)</text>
</g>
<!-- 30&#45;&gt;41 -->
<g id="edge41" class="edge">
<title>30&#45;&gt;41</title>
<path fill="none" stroke="black" stroke-dasharray="1,5" d="M1744.06,-380.81C1743.16,-372.79 1742.06,-363.05 1741.05,-354.07"/>
<polygon fill="black" stroke="black" points="1744.52,-353.57 1739.92,-344.03 1737.56,-354.36 1744.52,-353.57"/>
</g>
<!-- 33&#45;&gt;9 -->
<g id="edge10" class="edge">
<title>33&#45;&gt;9</title>
<path fill="none" stroke="black" stroke-dasharray="5,2" d="M1537.39,-538.94C1554.39,-528.45 1577.24,-514.34 1595.74,-502.91"/>
<polygon fill="black" stroke="black" points="1597.76,-505.78 1604.43,-497.55 1594.09,-499.83 1597.76,-505.78"/>
</g>
<!-- 36&#45;&gt;12 -->
<g id="edge12" class="edge">
<title>36&#45;&gt;12</title>
<path fill="none" stroke="black" stroke-dasharray="1,5" d="M1657.75,-538.94C1673.83,-528.75 1695.28,-515.15 1713.01,-503.91"/>
<polygon fill="black" stroke="black" points="1715.32,-506.59 1721.9,-498.28 1711.58,-500.68 1715.32,-506.59"/>
</g>
<!-- 39&#45;&gt;23 -->
<g id="edge23" class="edge">
<title>39&#45;&gt;23</title>
<path fill="none" stroke="black" d="M369.23,-465C354.86,-452.75 334.88,-435.71 318.98,-422.15"/>
<polygon fill="black" stroke="black" points="320.97,-419.24 311.09,-415.42 316.42,-424.57 320.97,-419.24"/>
</g>
<!-- 39&#45;&gt;27 -->
<g id="edge27" class="edge">
<title>39&#45;&gt;27</title>
<path fill="none" stroke="black" stroke-dasharray="1,5" d="M389.48,-463.82C390.4,-453.19 391.6,-439.31 392.65,-427.2"/>
<polygon fill="black" stroke="black" points="396.14,-427.42 393.52,-417.15 389.17,-426.81 396.14,-427.42"/>
</g>
<!-- 40&#45;&gt;19 -->
<g id="edge19" class="edge">
<title>40&#45;&gt;19</title>
<path fill="none" stroke="blue" stroke-dasharray="1,5" d="M1752,-161.81C1752,-153.79 1752,-144.05 1752,-135.07"/>
<polygon fill="blue" stroke="blue" points="1755.5,-135.03 1752,-125.03 1748.5,-135.03 1755.5,-135.03"/>
</g>
<!-- 41&#45;&gt;2 -->
<g id="edge3" class="edge">
<title>41&#45;&gt;2</title>
<path fill="none" stroke="black" stroke-dasharray="1,5" d="M1723.16,-308.53C1715,-299.48 1704.73,-288.09 1695.69,-278.06"/>
<polygon fill="black" stroke="black" points="1698.06,-275.46 1688.76,-270.38 1692.86,-280.15 1698.06,-275.46"/>
</g>
</g>
</svg>
