<?xml version="1.0" encoding="UTF-8" standalone="no"?>
<!DOCTYPE svg PUBLIC "-//W3C//DTD SVG 1.1//EN"
 "http://www.w3.org/Graphics/SVG/1.1/DTD/svg11.dtd">
<!-- Generated by graphviz version 2.43.0 (0)
 -->
<!-- Title: textual_flow Pages: 1 -->
<svg width="1228pt" height="984pt"
 viewBox="0.00 0.00 1228.00 984.00" xmlns="http://www.w3.org/2000/svg" xmlns:xlink="http://www.w3.org/1999/xlink">
<g id="graph0" class="graph" transform="scale(1 1) rotate(0) translate(4 980)">
<title>textual_flow</title>
<polygon fill="white" stroke="transparent" points="-4,4 -4,-980 1224,-980 1224,4 -4,4"/>
<g id="clust1" class="cluster">
<title>cluster_legend</title>
<polygon fill="none" stroke="black" points="8,-914 8,-968 164,-968 164,-914 8,-914"/>
</g>
<g id="clust2" class="cluster">
<title>cluster_plot</title>
</g>
<!-- label -->
<g id="node1" class="node">
<title>label</title>
<text text-anchor="middle" x="86" y="-944.8" font-family="Times,serif" font-size="14.00">adstag1.1.14U54</text>
<text text-anchor="middle" x="86" y="-929.8" font-family="Times,serif" font-size="14.00">Con = 5</text>
</g>
<!-- 0 -->
<g id="node2" class="node">
<title>0</title>
<ellipse fill="none" stroke="black" cx="1027" cy="-253" rx="47.39" ry="18"/>
<text text-anchor="middle" x="1027" y="-249.3" font-family="Times,serif" font-size="14.00">Taur (b)</text>
</g>
<!-- 8 -->
<g id="node10" class="node">
<title>8</title>
<ellipse fill="none" stroke="black" cx="914" cy="-180" rx="41.69" ry="18"/>
<text text-anchor="middle" x="914" y="-176.3" font-family="Times,serif" font-size="14.00">Sin (b)</text>
</g>
<!-- 0&#45;&gt;8 -->
<g id="edge8" class="edge">
<title>0&#45;&gt;8</title>
<path fill="none" stroke="black" stroke-dasharray="1,5" d="M1003.59,-237.29C986.7,-226.68 963.72,-212.24 945.26,-200.64"/>
<polygon fill="black" stroke="black" points="946.94,-197.56 936.61,-195.21 943.22,-203.49 946.94,-197.56"/>
</g>
<!-- 29 -->
<g id="node31" class="node">
<title>29</title>
<ellipse fill="none" stroke="black" cx="1027" cy="-180" rx="53.09" ry="18"/>
<text text-anchor="middle" x="1027" y="-176.3" font-family="Times,serif" font-size="14.00">M118 (b)</text>
</g>
<!-- 0&#45;&gt;29 -->
<g id="edge29" class="edge">
<title>0&#45;&gt;29</title>
<path fill="none" stroke="black" stroke-dasharray="5,2" d="M1027,-234.81C1027,-226.79 1027,-217.05 1027,-208.07"/>
<polygon fill="black" stroke="black" points="1030.5,-208.03 1027,-198.03 1023.5,-208.03 1030.5,-208.03"/>
</g>
<!-- 35 -->
<g id="node37" class="node">
<title>35</title>
<ellipse fill="none" stroke="black" cx="1148" cy="-180" rx="50.09" ry="18"/>
<text text-anchor="middle" x="1148" y="-176.3" font-family="Times,serif" font-size="14.00">V569 (b)</text>
</g>
<!-- 0&#45;&gt;35 -->
<g id="edge35" class="edge">
<title>0&#45;&gt;35</title>
<path fill="none" stroke="black" stroke-dasharray="5,2" d="M1051.78,-237.46C1069.77,-226.91 1094.32,-212.5 1114.12,-200.88"/>
<polygon fill="black" stroke="black" points="1115.99,-203.84 1122.84,-195.76 1112.44,-197.81 1115.99,-203.84"/>
</g>
<!-- 1 -->
<g id="node3" class="node">
<title>1</title>
<ellipse fill="none" stroke="black" cx="230" cy="-711" rx="50.09" ry="18"/>
<text text-anchor="middle" x="230" y="-707.3" font-family="Times,serif" font-size="14.00">V565 (a)</text>
</g>
<!-- 2 -->
<g id="node4" class="node">
<title>2</title>
<ellipse fill="none" stroke="black" cx="754" cy="-472" rx="42.49" ry="18"/>
<text text-anchor="middle" x="754" y="-468.3" font-family="Times,serif" font-size="14.00">Est (b)</text>
</g>
<!-- 3 -->
<g id="node5" class="node">
<title>3</title>
<ellipse fill="none" stroke="black" cx="754" cy="-545" rx="55.79" ry="18"/>
<text text-anchor="middle" x="754" y="-541.3" font-family="Times,serif" font-size="14.00">V1897 (b)</text>
</g>
<!-- 3&#45;&gt;2 -->
<g id="edge3" class="edge">
<title>3&#45;&gt;2</title>
<path fill="none" stroke="black" stroke-dasharray="1,5" d="M754,-526.81C754,-518.79 754,-509.05 754,-500.07"/>
<polygon fill="black" stroke="black" points="757.5,-500.03 754,-490.03 750.5,-500.03 757.5,-500.03"/>
</g>
<!-- 4 -->
<g id="node6" class="node">
<title>4</title>
<ellipse fill="none" stroke="black" cx="406" cy="-857" rx="42.79" ry="18"/>
<text text-anchor="middle" x="406" y="-853.3" font-family="Times,serif" font-size="14.00">Bas (a)</text>
</g>
<!-- 5 -->
<g id="node7" class="node">
<title>5</title>
<ellipse fill="none" stroke="black" cx="1027" cy="-107" rx="44.39" ry="18"/>
<text text-anchor="middle" x="1027" y="-103.3" font-family="Times,serif" font-size="14.00">P18 (b)</text>
</g>
<!-- 6 -->
<g id="node8" class="node">
<title>6</title>
<ellipse fill="none" stroke="black" cx="638" cy="-941" rx="53.89" ry="18"/>
<text text-anchor="middle" x="638" y="-937.3" font-family="Times,serif" font-size="14.00">aBase (a)</text>
</g>
<!-- 6&#45;&gt;4 -->
<g id="edge5" class="edge">
<title>6&#45;&gt;4</title>
<path fill="none" stroke="black" stroke-width="2" d="M602.26,-927.37C560.43,-912.58 491.28,-888.14 447.22,-872.57"/>
<polygon fill="black" stroke="black" stroke-width="2" points="448.27,-869.23 437.68,-869.2 445.94,-875.83 448.27,-869.23"/>
<text text-anchor="middle" x="538.5" y="-896" font-family="Times,serif" font-size="10.00">3</text>
</g>
<!-- 11 -->
<g id="node13" class="node">
<title>11</title>
<ellipse fill="none" stroke="black" cx="517" cy="-857" rx="50.09" ry="18"/>
<text text-anchor="middle" x="517" y="-853.3" font-family="Times,serif" font-size="14.00">S249 (a)</text>
</g>
<!-- 6&#45;&gt;11 -->
<g id="edge11" class="edge">
<title>6&#45;&gt;11</title>
<path fill="none" stroke="black" d="M615.24,-924.58C596.23,-911.69 568.93,-893.2 547.94,-878.97"/>
<polygon fill="black" stroke="black" points="549.9,-876.07 539.66,-873.35 545.97,-881.86 549.9,-876.07"/>
</g>
<!-- 18 -->
<g id="node20" class="node">
<title>18</title>
<ellipse fill="none" stroke="black" cx="638" cy="-857" rx="53.09" ry="18"/>
<text text-anchor="middle" x="638" y="-853.3" font-family="Times,serif" font-size="14.00">M136 (b)</text>
</g>
<!-- 6&#45;&gt;18 -->
<g id="edge18" class="edge">
<title>6&#45;&gt;18</title>
<path fill="none" stroke="blue" stroke-width="2" d="M638,-922.61C638,-911.77 638,-897.6 638,-885.29"/>
<polygon fill="blue" stroke="blue" stroke-width="2" points="641.5,-885.08 638,-875.08 634.5,-885.08 641.5,-885.08"/>
</g>
<!-- 21 -->
<g id="node23" class="node">
<title>21</title>
<ellipse fill="none" stroke="black" cx="753" cy="-857" rx="44.39" ry="18"/>
<text text-anchor="middle" x="753" y="-853.3" font-family="Times,serif" font-size="14.00">A25 (a)</text>
</g>
<!-- 6&#45;&gt;21 -->
<g id="edge21" class="edge">
<title>6&#45;&gt;21</title>
<path fill="none" stroke="black" stroke-dasharray="5,2" d="M659.9,-924.38C677.95,-911.51 703.72,-893.14 723.58,-878.98"/>
<polygon fill="black" stroke="black" points="725.85,-881.66 731.96,-873.01 721.78,-875.96 725.85,-881.66"/>
</g>
<!-- 32 -->
<g id="node34" class="node">
<title>32</title>
<ellipse fill="none" stroke="black" cx="859" cy="-857" rx="44.39" ry="18"/>
<text text-anchor="middle" x="859" y="-853.3" font-family="Times,serif" font-size="14.00">B39 (a)</text>
</g>
<!-- 6&#45;&gt;32 -->
<g id="edge32" class="edge">
<title>6&#45;&gt;32</title>
<path fill="none" stroke="black" stroke-width="2" d="M673.02,-927.01C712.34,-912.42 776.1,-888.76 817.79,-873.29"/>
<polygon fill="black" stroke="black" stroke-width="2" points="819.21,-876.5 827.37,-869.74 816.78,-869.93 819.21,-876.5"/>
<text text-anchor="middle" x="764.5" y="-896" font-family="Times,serif" font-size="10.00">2</text>
</g>
<!-- 7 -->
<g id="node9" class="node">
<title>7</title>
<ellipse fill="none" stroke="black" cx="348" cy="-711" rx="50.09" ry="18"/>
<text text-anchor="middle" x="348" y="-707.3" font-family="Times,serif" font-size="14.00">V571 (b)</text>
</g>
<!-- 12 -->
<g id="node14" class="node">
<title>12</title>
<ellipse fill="none" stroke="black" cx="224" cy="-628" rx="43.59" ry="18"/>
<text text-anchor="middle" x="224" y="-624.3" font-family="Times,serif" font-size="14.00">La2 (b)</text>
</g>
<!-- 7&#45;&gt;12 -->
<g id="edge12" class="edge">
<title>7&#45;&gt;12</title>
<path fill="none" stroke="black" d="M324.97,-694.95C305.27,-682.09 276.74,-663.45 255.04,-649.27"/>
<polygon fill="black" stroke="black" points="256.78,-646.23 246.49,-643.69 252.95,-652.09 256.78,-646.23"/>
<text text-anchor="middle" x="296.5" y="-667" font-family="Times,serif" font-size="10.00">5</text>
</g>
<!-- 13 -->
<g id="node15" class="node">
<title>13</title>
<ellipse fill="none" stroke="black" cx="341" cy="-628" rx="55.79" ry="18"/>
<text text-anchor="middle" x="341" y="-624.3" font-family="Times,serif" font-size="14.00">V2036 (b)</text>
</g>
<!-- 7&#45;&gt;13 -->
<g id="edge13" class="edge">
<title>7&#45;&gt;13</title>
<path fill="none" stroke="black" stroke-dasharray="1,5" d="M346.52,-692.82C345.6,-682.19 344.4,-668.31 343.35,-656.2"/>
<polygon fill="black" stroke="black" points="346.83,-655.81 342.48,-646.15 339.86,-656.42 346.83,-655.81"/>
<text text-anchor="middle" x="347.5" y="-667" font-family="Times,serif" font-size="10.00">3</text>
</g>
<!-- 22 -->
<g id="node24" class="node">
<title>22</title>
<ellipse fill="none" stroke="black" cx="465" cy="-628" rx="50.09" ry="18"/>
<text text-anchor="middle" x="465" y="-624.3" font-family="Times,serif" font-size="14.00">V560 (b)</text>
</g>
<!-- 7&#45;&gt;22 -->
<g id="edge22" class="edge">
<title>7&#45;&gt;22</title>
<path fill="none" stroke="black" stroke-width="2" d="M370.01,-694.76C388.19,-682.17 414.22,-664.16 434.43,-650.17"/>
<polygon fill="black" stroke="black" stroke-width="2" points="436.46,-653.01 442.69,-644.44 432.48,-647.26 436.46,-653.01"/>
<text text-anchor="middle" x="416.5" y="-667" font-family="Times,serif" font-size="10.00">4</text>
</g>
<!-- 37 -->
<g id="node39" class="node">
<title>37</title>
<ellipse fill="none" stroke="black" cx="577" cy="-628" rx="44.39" ry="18"/>
<text text-anchor="middle" x="577" y="-624.3" font-family="Times,serif" font-size="14.00">S32 (b)</text>
</g>
<!-- 7&#45;&gt;37 -->
<g id="edge37" class="edge">
<title>7&#45;&gt;37</title>
<path fill="none" stroke="black" stroke-dasharray="5,2" d="M382.28,-697.87C423.12,-683.43 491.3,-659.31 535.19,-643.79"/>
<polygon fill="black" stroke="black" points="536.45,-647.06 544.71,-640.42 534.11,-640.46 536.45,-647.06"/>
<text text-anchor="middle" x="479.5" y="-667" font-family="Times,serif" font-size="10.00">4</text>
</g>
<!-- 24 -->
<g id="node26" class="node">
<title>24</title>
<ellipse fill="none" stroke="black" cx="914" cy="-107" rx="50.09" ry="18"/>
<text text-anchor="middle" x="914" y="-103.3" font-family="Times,serif" font-size="14.00">Marc (b)</text>
</g>
<!-- 8&#45;&gt;24 -->
<g id="edge24" class="edge">
<title>8&#45;&gt;24</title>
<path fill="none" stroke="black" stroke-dasharray="1,5" d="M914,-161.81C914,-153.79 914,-144.05 914,-135.07"/>
<polygon fill="black" stroke="black" points="917.5,-135.03 914,-125.03 910.5,-135.03 917.5,-135.03"/>
</g>
<!-- 9 -->
<g id="node11" class="node">
<title>9</title>
<ellipse fill="none" stroke="black" cx="584" cy="-784" rx="44.39" ry="18"/>
<text text-anchor="middle" x="584" y="-780.3" font-family="Times,serif" font-size="14.00">P01 (a)</text>
</g>
<!-- 10 -->
<g id="node12" class="node">
<title>10</title>
<ellipse fill="none" stroke="black" cx="884" cy="-628" rx="45.49" ry="18"/>
<text text-anchor="middle" x="884" y="-624.3" font-family="Times,serif" font-size="14.00">Nan (b)</text>
</g>
<!-- 10&#45;&gt;3 -->
<g id="edge4" class="edge">
<title>10&#45;&gt;3</title>
<path fill="none" stroke="black" stroke-dasharray="1,5" d="M860.76,-612.52C840.38,-599.82 810.52,-581.22 787.55,-566.91"/>
<polygon fill="black" stroke="black" points="789.15,-563.78 778.81,-561.46 785.45,-569.72 789.15,-563.78"/>
</g>
<!-- 34 -->
<g id="node36" class="node">
<title>34</title>
<ellipse fill="none" stroke="black" cx="884" cy="-545" rx="55.79" ry="18"/>
<text text-anchor="middle" x="884" y="-541.3" font-family="Times,serif" font-size="14.00">V2250 (b)</text>
</g>
<!-- 10&#45;&gt;34 -->
<g id="edge34" class="edge">
<title>10&#45;&gt;34</title>
<path fill="none" stroke="black" stroke-dasharray="5,2" d="M884,-609.82C884,-599.19 884,-585.31 884,-573.2"/>
<polygon fill="black" stroke="black" points="887.5,-573.15 884,-563.15 880.5,-573.15 887.5,-573.15"/>
</g>
<!-- 42 -->
<g id="node44" class="node">
<title>42</title>
<ellipse fill="none" stroke="black" cx="1009" cy="-545" rx="50.89" ry="18"/>
<text text-anchor="middle" x="1009" y="-541.3" font-family="Times,serif" font-size="14.00">Neap (b)</text>
</g>
<!-- 10&#45;&gt;42 -->
<g id="edge42" class="edge">
<title>10&#45;&gt;42</title>
<path fill="none" stroke="black" d="M906.64,-612.33C926.3,-599.59 955,-580.99 977.01,-566.73"/>
<polygon fill="black" stroke="black" points="979.2,-569.48 985.68,-561.11 975.39,-563.61 979.2,-569.48"/>
<text text-anchor="middle" x="956.5" y="-584" font-family="Times,serif" font-size="10.00">2</text>
</g>
<!-- 14 -->
<g id="node16" class="node">
<title>14</title>
<ellipse fill="none" stroke="gray" stroke-dasharray="5,2" cx="923" cy="-399" rx="36" ry="18"/>
<text text-anchor="middle" x="923" y="-395.3" font-family="Times,serif" font-size="14.00">La2&#45;c</text>
</g>
<!-- 15 -->
<g id="node17" class="node">
<title>15</title>
<ellipse fill="none" stroke="black" cx="689" cy="-628" rx="50.09" ry="18"/>
<text text-anchor="middle" x="689" y="-624.3" font-family="Times,serif" font-size="14.00">A336 (a)</text>
</g>
<!-- 16 -->
<g id="node18" class="node">
<title>16</title>
<ellipse fill="none" stroke="black" cx="465" cy="-545" rx="55.79" ry="18"/>
<text text-anchor="middle" x="465" y="-541.3" font-family="Times,serif" font-size="14.00">V1920 (b)</text>
</g>
<!-- 17 -->
<g id="node19" class="node">
<title>17</title>
<ellipse fill="none" stroke="black" cx="695" cy="-784" rx="48.99" ry="18"/>
<text text-anchor="middle" x="695" y="-780.3" font-family="Times,serif" font-size="14.00">La22 (a)</text>
</g>
<!-- 17&#45;&gt;1 -->
<g id="edge2" class="edge">
<title>17&#45;&gt;1</title>
<path fill="none" stroke="black" stroke-dasharray="5,2" d="M659.67,-771.55C652.24,-769.45 644.41,-767.47 637,-766 484.43,-735.78 441.64,-758.87 289,-729 284.82,-728.18 280.51,-727.21 276.21,-726.14"/>
<polygon fill="black" stroke="black" points="276.83,-722.68 266.27,-723.53 275.05,-729.45 276.83,-722.68"/>
</g>
<!-- 17&#45;&gt;7 -->
<g id="edge7" class="edge">
<title>17&#45;&gt;7</title>
<path fill="none" stroke="blue" stroke-dasharray="1,5" d="M658.98,-771.68C651.75,-769.62 644.16,-767.62 637,-766 536.01,-743.17 508.04,-751.6 407,-729 402.9,-728.08 398.67,-727.05 394.44,-725.95"/>
<polygon fill="blue" stroke="blue" points="395.21,-722.53 384.65,-723.3 393.39,-729.29 395.21,-722.53"/>
</g>
<!-- 20 -->
<g id="node22" class="node">
<title>20</title>
<ellipse fill="none" stroke="black" cx="463" cy="-711" rx="46.59" ry="18"/>
<text text-anchor="middle" x="463" y="-707.3" font-family="Times,serif" font-size="14.00">Bodl (a)</text>
</g>
<!-- 17&#45;&gt;20 -->
<g id="edge20" class="edge">
<title>17&#45;&gt;20</title>
<path fill="none" stroke="black" stroke-dasharray="5,2" d="M658.72,-771.97C622.93,-761.09 566.68,-743.95 518,-729 514.7,-727.99 511.29,-726.94 507.86,-725.88"/>
<polygon fill="black" stroke="black" points="508.79,-722.5 498.2,-722.9 506.73,-729.19 508.79,-722.5"/>
</g>
<!-- 27 -->
<g id="node29" class="node">
<title>27</title>
<ellipse fill="none" stroke="black" cx="580" cy="-711" rx="52.79" ry="18"/>
<text text-anchor="middle" x="580" y="-707.3" font-family="Times,serif" font-size="14.00">M111 (a)</text>
</g>
<!-- 17&#45;&gt;27 -->
<g id="edge27" class="edge">
<title>17&#45;&gt;27</title>
<path fill="none" stroke="black" stroke-dasharray="1,5" d="M671.17,-768.29C654.44,-757.96 631.83,-744 613.31,-732.56"/>
<polygon fill="black" stroke="black" points="614.94,-729.46 604.59,-727.18 611.26,-735.41 614.94,-729.46"/>
</g>
<!-- 33 -->
<g id="node35" class="node">
<title>33</title>
<ellipse fill="none" stroke="black" cx="695" cy="-711" rx="44.39" ry="18"/>
<text text-anchor="middle" x="695" y="-707.3" font-family="Times,serif" font-size="14.00">P74 (a)</text>
</g>
<!-- 17&#45;&gt;33 -->
<g id="edge33" class="edge">
<title>17&#45;&gt;33</title>
<path fill="none" stroke="black" stroke-dasharray="1,5" d="M695,-765.81C695,-757.79 695,-748.05 695,-739.07"/>
<polygon fill="black" stroke="black" points="698.5,-739.03 695,-729.03 691.5,-739.03 698.5,-739.03"/>
</g>
<!-- 36 -->
<g id="node38" class="node">
<title>36</title>
<ellipse fill="none" stroke="black" cx="807" cy="-711" rx="50.09" ry="18"/>
<text text-anchor="middle" x="807" y="-707.3" font-family="Times,serif" font-size="14.00">A116 (a)</text>
</g>
<!-- 17&#45;&gt;36 -->
<g id="edge36" class="edge">
<title>17&#45;&gt;36</title>
<path fill="none" stroke="black" stroke-dasharray="5,2" d="M718.48,-768.12C734.8,-757.77 756.75,-743.86 774.71,-732.47"/>
<polygon fill="black" stroke="black" points="776.59,-735.42 783.17,-727.11 772.85,-729.51 776.59,-735.42"/>
</g>
<!-- 41 -->
<g id="node43" class="node">
<title>41</title>
<ellipse fill="none" stroke="black" cx="924" cy="-711" rx="48.99" ry="18"/>
<text text-anchor="middle" x="924" y="-707.3" font-family="Times,serif" font-size="14.00">La35 (a)</text>
</g>
<!-- 17&#45;&gt;41 -->
<g id="edge41" class="edge">
<title>17&#45;&gt;41</title>
<path fill="none" stroke="black" stroke-dasharray="1,5" d="M731.03,-771.83C770.76,-759.51 834.78,-739.66 878.08,-726.24"/>
<polygon fill="black" stroke="black" points="879.28,-729.53 887.8,-723.22 877.21,-722.84 879.28,-729.53"/>
</g>
<!-- 45 -->
<g id="node47" class="node">
<title>45</title>
<ellipse fill="none" stroke="gray" stroke-dasharray="5,2" cx="476" cy="-784" rx="45.49" ry="18"/>
<text text-anchor="middle" x="476" y="-780.3" font-family="Times,serif" font-size="14.00">LaSM&#45;c</text>
</g>
<!-- 18&#45;&gt;45 -->
<g id="edge45" class="edge">
<title>18&#45;&gt;45</title>
<path fill="none" stroke="gray" stroke-dasharray="5,2" d="M606.76,-842.31C580.41,-830.76 542.59,-814.18 514.39,-801.83"/>
<polygon fill="gray" stroke="gray" points="515.8,-798.62 505.23,-797.81 512.99,-805.03 515.8,-798.62"/>
</g>
<!-- 19 -->
<g id="node21" class="node">
<title>19</title>
<ellipse fill="none" stroke="gray" stroke-dasharray="5,2" cx="895" cy="-472" rx="39.79" ry="18"/>
<text text-anchor="middle" x="895" y="-468.3" font-family="Times,serif" font-size="14.00">Taur&#45;c</text>
</g>
<!-- 21&#45;&gt;9 -->
<g id="edge9" class="edge">
<title>21&#45;&gt;9</title>
<path fill="none" stroke="black" stroke-dasharray="5,2" d="M723.18,-843.47C695.3,-831.76 653.51,-814.2 623,-801.39"/>
<polygon fill="black" stroke="black" points="624.1,-798.05 613.53,-797.4 621.39,-804.5 624.1,-798.05"/>
</g>
<!-- 21&#45;&gt;17 -->
<g id="edge17" class="edge">
<title>21&#45;&gt;17</title>
<path fill="none" stroke="black" stroke-dasharray="1,5" d="M739.55,-839.53C732.23,-830.57 723.03,-819.31 714.9,-809.36"/>
<polygon fill="black" stroke="black" points="717.42,-806.91 708.38,-801.38 712,-811.34 717.42,-806.91"/>
</g>
<!-- 31 -->
<g id="node33" class="node">
<title>31</title>
<ellipse fill="none" stroke="black" cx="812" cy="-784" rx="50.09" ry="18"/>
<text text-anchor="middle" x="812" y="-780.3" font-family="Times,serif" font-size="14.00">V566 (a)</text>
</g>
<!-- 21&#45;&gt;31 -->
<g id="edge31" class="edge">
<title>21&#45;&gt;31</title>
<path fill="none" stroke="black" stroke-dasharray="5,2" d="M766.68,-839.53C774.13,-830.57 783.49,-819.31 791.76,-809.36"/>
<polygon fill="black" stroke="black" points="794.69,-811.31 798.39,-801.38 789.31,-806.83 794.69,-811.31"/>
</g>
<!-- 38 -->
<g id="node40" class="node">
<title>38</title>
<ellipse fill="none" stroke="black" cx="920" cy="-784" rx="40.09" ry="18"/>
<text text-anchor="middle" x="920" y="-780.3" font-family="Times,serif" font-size="14.00">Pal (a)</text>
</g>
<!-- 21&#45;&gt;38 -->
<g id="edge38" class="edge">
<title>21&#45;&gt;38</title>
<path fill="none" stroke="black" stroke-dasharray="5,2" d="M782.47,-843.47C810.35,-831.62 852.32,-813.77 882.56,-800.92"/>
<polygon fill="black" stroke="black" points="884.1,-804.07 891.93,-796.93 881.36,-797.62 884.1,-804.07"/>
</g>
<!-- 43 -->
<g id="node45" class="node">
<title>43</title>
<ellipse fill="none" stroke="black" cx="1028" cy="-784" rx="50.09" ry="18"/>
<text text-anchor="middle" x="1028" y="-780.3" font-family="Times,serif" font-size="14.00">Patm (a)</text>
</g>
<!-- 21&#45;&gt;43 -->
<g id="edge43" class="edge">
<title>21&#45;&gt;43</title>
<path fill="none" stroke="black" stroke-dasharray="1,5" d="M785.95,-844.94C792.56,-842.86 799.48,-840.78 806,-839 877.66,-819.41 897.06,-820.51 969,-802 972.84,-801.01 976.81,-799.95 980.79,-798.86"/>
<polygon fill="black" stroke="black" points="981.94,-802.17 990.63,-796.12 980.06,-795.43 981.94,-802.17"/>
</g>
<!-- 22&#45;&gt;16 -->
<g id="edge16" class="edge">
<title>22&#45;&gt;16</title>
<path fill="none" stroke="black" stroke-dasharray="5,2" d="M465,-609.82C465,-599.19 465,-585.31 465,-573.2"/>
<polygon fill="black" stroke="black" points="468.5,-573.15 465,-563.15 461.5,-573.15 468.5,-573.15"/>
</g>
<!-- 23 -->
<g id="node25" class="node">
<title>23</title>
<ellipse fill="none" stroke="black" cx="1027" cy="-399" rx="50.09" ry="18"/>
<text text-anchor="middle" x="1027" y="-395.3" font-family="Times,serif" font-size="14.00">V536 (b)</text>
</g>
<!-- 39 -->
<g id="node41" class="node">
<title>39</title>
<ellipse fill="none" stroke="black" cx="1027" cy="-326" rx="50.09" ry="18"/>
<text text-anchor="middle" x="1027" y="-322.3" font-family="Times,serif" font-size="14.00">V568 (b)</text>
</g>
<!-- 23&#45;&gt;39 -->
<g id="edge39" class="edge">
<title>23&#45;&gt;39</title>
<path fill="none" stroke="black" stroke-dasharray="1,5" d="M1027,-380.81C1027,-372.79 1027,-363.05 1027,-354.07"/>
<polygon fill="black" stroke="black" points="1030.5,-354.03 1027,-344.03 1023.5,-354.03 1030.5,-354.03"/>
</g>
<!-- 28 -->
<g id="node30" class="node">
<title>28</title>
<ellipse fill="none" stroke="black" cx="914" cy="-34" rx="46.59" ry="18"/>
<text text-anchor="middle" x="914" y="-30.3" font-family="Times,serif" font-size="14.00">Mon (b)</text>
</g>
<!-- 24&#45;&gt;28 -->
<g id="edge28" class="edge">
<title>24&#45;&gt;28</title>
<path fill="none" stroke="black" stroke-dasharray="1,5" d="M914,-88.81C914,-80.79 914,-71.05 914,-62.07"/>
<polygon fill="black" stroke="black" points="917.5,-62.03 914,-52.03 910.5,-62.03 917.5,-62.03"/>
</g>
<!-- 25 -->
<g id="node27" class="node">
<title>25</title>
<ellipse fill="none" stroke="black" cx="1001" cy="-628" rx="53.09" ry="18"/>
<text text-anchor="middle" x="1001" y="-624.3" font-family="Times,serif" font-size="14.00">LaSM (b)</text>
</g>
<!-- 26 -->
<g id="node28" class="node">
<title>26</title>
<ellipse fill="none" stroke="black" cx="1009" cy="-472" rx="55.79" ry="18"/>
<text text-anchor="middle" x="1009" y="-468.3" font-family="Times,serif" font-size="14.00">V1629 (b)</text>
</g>
<!-- 26&#45;&gt;14 -->
<g id="edge14" class="edge">
<title>26&#45;&gt;14</title>
<path fill="none" stroke="gray" stroke-width="2" d="M989.49,-454.89C977.42,-444.93 961.79,-432.03 948.72,-421.24"/>
<polygon fill="gray" stroke="gray" stroke-width="2" points="950.91,-418.5 940.97,-414.84 946.45,-423.9 950.91,-418.5"/>
</g>
<!-- 26&#45;&gt;23 -->
<g id="edge23" class="edge">
<title>26&#45;&gt;23</title>
<path fill="none" stroke="black" stroke-dasharray="5,2" d="M1013.36,-453.81C1015.41,-445.7 1017.91,-435.84 1020.21,-426.78"/>
<polygon fill="black" stroke="black" points="1023.62,-427.58 1022.68,-417.03 1016.83,-425.86 1023.62,-427.58"/>
</g>
<!-- 27&#45;&gt;15 -->
<g id="edge15" class="edge">
<title>27&#45;&gt;15</title>
<path fill="none" stroke="black" stroke-dasharray="5,2" d="M601.02,-694.38C617.75,-681.94 641.37,-664.39 659.92,-650.61"/>
<polygon fill="black" stroke="black" points="662.11,-653.34 668.05,-644.57 657.93,-647.73 662.11,-653.34"/>
</g>
<!-- 29&#45;&gt;5 -->
<g id="edge6" class="edge">
<title>29&#45;&gt;5</title>
<path fill="none" stroke="black" stroke-dasharray="5,2" d="M1027,-161.81C1027,-153.79 1027,-144.05 1027,-135.07"/>
<polygon fill="black" stroke="black" points="1030.5,-135.03 1027,-125.03 1023.5,-135.03 1030.5,-135.03"/>
</g>
<!-- 30 -->
<g id="node32" class="node">
<title>30</title>
<ellipse fill="none" stroke="gray" stroke-dasharray="5,2" cx="1125" cy="-472" rx="42.49" ry="18"/>
<text text-anchor="middle" x="1125" y="-468.3" font-family="Times,serif" font-size="14.00">Marc&#45;c</text>
</g>
<!-- 44 -->
<g id="node46" class="node">
<title>44</title>
<ellipse fill="none" stroke="black" cx="1047" cy="-711" rx="55.79" ry="18"/>
<text text-anchor="middle" x="1047" y="-707.3" font-family="Times,serif" font-size="14.00">V1639 (b)</text>
</g>
<!-- 31&#45;&gt;44 -->
<g id="edge44" class="edge">
<title>31&#45;&gt;44</title>
<path fill="none" stroke="blue" stroke-dasharray="1,5" d="M848.98,-771.83C889.11,-759.7 953.4,-740.28 997.78,-726.87"/>
<polygon fill="blue" stroke="blue" points="998.93,-730.18 1007.49,-723.94 996.91,-723.48 998.93,-730.18"/>
</g>
<!-- 46 -->
<g id="node48" class="node">
<title>46</title>
<ellipse fill="none" stroke="gray" stroke-dasharray="5,2" cx="1162" cy="-711" rx="41.69" ry="18"/>
<text text-anchor="middle" x="1162" y="-707.3" font-family="Times,serif" font-size="14.00">La22&#45;c</text>
</g>
<!-- 31&#45;&gt;46 -->
<g id="edge46" class="edge">
<title>31&#45;&gt;46</title>
<path fill="none" stroke="gray" stroke-dasharray="5,2" d="M848.64,-771.66C856,-769.6 863.71,-767.6 871,-766 976.84,-742.73 1006.74,-754.76 1112,-729 1115.21,-728.22 1118.5,-727.32 1121.79,-726.35"/>
<polygon fill="gray" stroke="gray" points="1123.08,-729.61 1131.58,-723.29 1120.99,-722.93 1123.08,-729.61"/>
</g>
<!-- 39&#45;&gt;0 -->
<g id="edge1" class="edge">
<title>39&#45;&gt;0</title>
<path fill="none" stroke="black" stroke-dasharray="1,5" d="M1027,-307.81C1027,-299.79 1027,-290.05 1027,-281.07"/>
<polygon fill="black" stroke="black" points="1030.5,-281.03 1027,-271.03 1023.5,-281.03 1030.5,-281.03"/>
</g>
<!-- 40 -->
<g id="node42" class="node">
<title>40</title>
<ellipse fill="none" stroke="black" cx="1138" cy="-628" rx="65.79" ry="18"/>
<text text-anchor="middle" x="1138" y="-624.3" font-family="Times,serif" font-size="14.00">Savile&#45;Η (b)</text>
</g>
<!-- 42&#45;&gt;19 -->
<g id="edge19" class="edge">
<title>42&#45;&gt;19</title>
<path fill="none" stroke="gray" stroke-width="2" d="M985.1,-529.12C967.93,-518.42 944.63,-503.91 926.03,-492.32"/>
<polygon fill="gray" stroke="gray" stroke-width="2" points="927.66,-489.22 917.32,-486.9 923.96,-495.16 927.66,-489.22"/>
</g>
<!-- 42&#45;&gt;26 -->
<g id="edge26" class="edge">
<title>42&#45;&gt;26</title>
<path fill="none" stroke="black" stroke-dasharray="1,5" d="M1009,-526.81C1009,-518.79 1009,-509.05 1009,-500.07"/>
<polygon fill="black" stroke="black" points="1012.5,-500.03 1009,-490.03 1005.5,-500.03 1012.5,-500.03"/>
</g>
<!-- 42&#45;&gt;30 -->
<g id="edge30" class="edge">
<title>42&#45;&gt;30</title>
<path fill="none" stroke="gray" stroke-dasharray="5,2" d="M1033.32,-529.12C1050.75,-518.44 1074.4,-503.97 1093.31,-492.39"/>
<polygon fill="gray" stroke="gray" points="1095.2,-495.34 1101.9,-487.14 1091.54,-489.37 1095.2,-495.34"/>
</g>
<!-- 44&#45;&gt;10 -->
<g id="edge10" class="edge">
<title>44&#45;&gt;10</title>
<path fill="none" stroke="black" stroke-dasharray="5,2" d="M1017.86,-695.52C990.59,-681.97 949.76,-661.68 920.37,-647.07"/>
<polygon fill="black" stroke="black" points="921.78,-643.86 911.26,-642.55 918.66,-650.13 921.78,-643.86"/>
<text text-anchor="middle" x="978.5" y="-667" font-family="Times,serif" font-size="10.00">5</text>
</g>
<!-- 44&#45;&gt;25 -->
<g id="edge25" class="edge">
<title>44&#45;&gt;25</title>
<path fill="none" stroke="black" stroke-dasharray="5,2" d="M1037.47,-693.22C1031.12,-682.03 1022.65,-667.12 1015.47,-654.48"/>
<polygon fill="black" stroke="black" points="1018.5,-652.73 1010.52,-645.76 1012.41,-656.19 1018.5,-652.73"/>
<text text-anchor="middle" x="1029.5" y="-667" font-family="Times,serif" font-size="10.00">5</text>
</g>
<!-- 44&#45;&gt;40 -->
<g id="edge40" class="edge">
<title>44&#45;&gt;40</title>
<path fill="none" stroke="black" d="M1065.42,-693.61C1078.74,-681.75 1096.93,-665.56 1111.77,-652.35"/>
<polygon fill="black" stroke="black" points="1114.47,-654.63 1119.61,-645.37 1109.82,-649.4 1114.47,-654.63"/>
</g>
</g>
</svg>
