<?xml version="1.0" encoding="UTF-8" standalone="no"?>
<!DOCTYPE svg PUBLIC "-//W3C//DTD SVG 1.1//EN"
 "http://www.w3.org/Graphics/SVG/1.1/DTD/svg11.dtd">
<!-- Generated by graphviz version 2.43.0 (0)
 -->
<!-- Title: textual_flow Pages: 1 -->
<svg width="1858pt" height="654pt"
 viewBox="0.00 0.00 1858.00 654.00" xmlns="http://www.w3.org/2000/svg" xmlns:xlink="http://www.w3.org/1999/xlink">
<g id="graph0" class="graph" transform="scale(1 1) rotate(0) translate(4 650)">
<title>textual_flow</title>
<polygon fill="white" stroke="transparent" points="-4,4 -4,-650 1854,-650 1854,4 -4,4"/>
<g id="clust1" class="cluster">
<title>cluster_legend</title>
<polygon fill="none" stroke="black" points="8,-584 8,-638 164,-638 164,-584 8,-584"/>
</g>
<g id="clust2" class="cluster">
<title>cluster_plot</title>
</g>
<!-- label -->
<g id="node1" class="node">
<title>label</title>
<text text-anchor="middle" x="86" y="-614.8" font-family="Times,serif" font-size="14.00">adstag1.2.40U16</text>
<text text-anchor="middle" x="86" y="-599.8" font-family="Times,serif" font-size="14.00">Con = 1</text>
</g>
<!-- 0 -->
<g id="node2" class="node">
<title>0</title>
<ellipse fill="none" stroke="black" cx="1694" cy="-394" rx="50.09" ry="18"/>
<text text-anchor="middle" x="1694" y="-390.3" font-family="Times,serif" font-size="14.00">V536 (a)</text>
</g>
<!-- 32 -->
<g id="node34" class="node">
<title>32</title>
<ellipse fill="none" stroke="black" cx="1685" cy="-322" rx="50.09" ry="18"/>
<text text-anchor="middle" x="1685" y="-318.3" font-family="Times,serif" font-size="14.00">V568 (a)</text>
</g>
<!-- 0&#45;&gt;32 -->
<g id="edge32" class="edge">
<title>0&#45;&gt;32</title>
<path fill="none" stroke="black" stroke-dasharray="1,5" d="M1691.78,-375.7C1690.78,-367.98 1689.59,-358.71 1688.49,-350.11"/>
<polygon fill="black" stroke="black" points="1691.95,-349.58 1687.2,-340.1 1685,-350.47 1691.95,-349.58"/>
</g>
<!-- 1 -->
<g id="node3" class="node">
<title>1</title>
<ellipse fill="none" stroke="black" cx="224" cy="-466" rx="44.39" ry="18"/>
<text text-anchor="middle" x="224" y="-462.3" font-family="Times,serif" font-size="14.00">B39 (a)</text>
</g>
<!-- 2 -->
<g id="node4" class="node">
<title>2</title>
<ellipse fill="none" stroke="black" cx="630" cy="-394" rx="44.39" ry="18"/>
<text text-anchor="middle" x="630" y="-390.3" font-family="Times,serif" font-size="14.00">P74 (a)</text>
</g>
<!-- 3 -->
<g id="node5" class="node">
<title>3</title>
<ellipse fill="none" stroke="black" cx="460" cy="-466" rx="44.39" ry="18"/>
<text text-anchor="middle" x="460" y="-462.3" font-family="Times,serif" font-size="14.00">S32 (a)</text>
</g>
<!-- 4 -->
<g id="node6" class="node">
<title>4</title>
<ellipse fill="none" stroke="black" cx="513" cy="-394" rx="55.49" ry="18"/>
<text text-anchor="middle" x="513" y="-390.3" font-family="Times,serif" font-size="14.00">V2036 (c)</text>
</g>
<!-- 5 -->
<g id="node7" class="node">
<title>5</title>
<ellipse fill="none" stroke="black" cx="742" cy="-394" rx="50.09" ry="18"/>
<text text-anchor="middle" x="742" y="-390.3" font-family="Times,serif" font-size="14.00">V565 (a)</text>
</g>
<!-- 6 -->
<g id="node8" class="node">
<title>6</title>
<ellipse fill="none" stroke="black" cx="1447" cy="-466" rx="55.79" ry="18"/>
<text text-anchor="middle" x="1447" y="-462.3" font-family="Times,serif" font-size="14.00">V1897 (a)</text>
</g>
<!-- 13 -->
<g id="node15" class="node">
<title>13</title>
<ellipse fill="none" stroke="black" cx="1461" cy="-394" rx="42.79" ry="18"/>
<text text-anchor="middle" x="1461" y="-390.3" font-family="Times,serif" font-size="14.00">Bas (a)</text>
</g>
<!-- 6&#45;&gt;13 -->
<g id="edge14" class="edge">
<title>6&#45;&gt;13</title>
<path fill="none" stroke="black" d="M1450.46,-447.7C1452,-439.98 1453.86,-430.71 1455.58,-422.11"/>
<polygon fill="black" stroke="black" points="1459.05,-422.6 1457.58,-412.1 1452.19,-421.22 1459.05,-422.6"/>
</g>
<!-- 29 -->
<g id="node31" class="node">
<title>29</title>
<ellipse fill="none" stroke="black" cx="1574" cy="-394" rx="51.99" ry="18"/>
<text text-anchor="middle" x="1574" y="-390.3" font-family="Times,serif" font-size="14.00">Est (ar1)</text>
</g>
<!-- 6&#45;&gt;29 -->
<g id="edge29" class="edge">
<title>6&#45;&gt;29</title>
<path fill="none" stroke="black" stroke-dasharray="1,5" d="M1473.93,-450.15C1492.75,-439.78 1518.06,-425.83 1538.52,-414.55"/>
<polygon fill="black" stroke="black" points="1540.47,-417.48 1547.54,-409.58 1537.09,-411.35 1540.47,-417.48"/>
</g>
<!-- 7 -->
<g id="node9" class="node">
<title>7</title>
<ellipse fill="none" stroke="black" cx="1347" cy="-322" rx="50.09" ry="18"/>
<text text-anchor="middle" x="1347" y="-318.3" font-family="Times,serif" font-size="14.00">A336 (a)</text>
</g>
<!-- 8 -->
<g id="node10" class="node">
<title>8</title>
<ellipse fill="none" stroke="black" cx="1707" cy="-466" rx="55.79" ry="18"/>
<text text-anchor="middle" x="1707" y="-462.3" font-family="Times,serif" font-size="14.00">V1629 (a)</text>
</g>
<!-- 8&#45;&gt;0 -->
<g id="edge1" class="edge">
<title>8&#45;&gt;0</title>
<path fill="none" stroke="black" stroke-dasharray="5,2" d="M1703.79,-447.7C1702.35,-439.98 1700.63,-430.71 1699.04,-422.11"/>
<polygon fill="black" stroke="black" points="1702.44,-421.3 1697.18,-412.1 1695.56,-422.58 1702.44,-421.3"/>
</g>
<!-- 16 -->
<g id="node18" class="node">
<title>16</title>
<ellipse fill="none" stroke="gray" stroke-dasharray="5,2" cx="1798" cy="-394" rx="36" ry="18"/>
<text text-anchor="middle" x="1798" y="-390.3" font-family="Times,serif" font-size="14.00">La2&#45;c</text>
</g>
<!-- 8&#45;&gt;16 -->
<g id="edge17" class="edge">
<title>8&#45;&gt;16</title>
<path fill="none" stroke="gray" stroke-width="2" d="M1727.65,-449.12C1740.5,-439.23 1757.17,-426.4 1771.06,-415.72"/>
<polygon fill="gray" stroke="gray" stroke-width="2" points="1773.5,-418.26 1779.29,-409.39 1769.23,-412.72 1773.5,-418.26"/>
</g>
<!-- 9 -->
<g id="node11" class="node">
<title>9</title>
<ellipse fill="none" stroke="black" cx="286" cy="-538" rx="52.79" ry="18"/>
<text text-anchor="middle" x="286" y="-534.3" font-family="Times,serif" font-size="14.00">LaSM (a)</text>
</g>
<!-- 9&#45;&gt;1 -->
<g id="edge2" class="edge">
<title>9&#45;&gt;1</title>
<path fill="none" stroke="black" stroke-dasharray="5,2" d="M271.31,-520.41C263.59,-511.69 253.98,-500.85 245.44,-491.21"/>
<polygon fill="black" stroke="black" points="247.84,-488.64 238.59,-483.47 242.6,-493.28 247.84,-488.64"/>
</g>
<!-- 10 -->
<g id="node12" class="node">
<title>10</title>
<ellipse fill="none" stroke="black" cx="411" cy="-538" rx="52.79" ry="18"/>
<text text-anchor="middle" x="411" y="-534.3" font-family="Times,serif" font-size="14.00">M136 (a)</text>
</g>
<!-- 11 -->
<g id="node13" class="node">
<title>11</title>
<ellipse fill="none" stroke="black" cx="1551" cy="-106" rx="50.09" ry="18"/>
<text text-anchor="middle" x="1551" y="-102.3" font-family="Times,serif" font-size="14.00">Marc (a)</text>
</g>
<!-- 30 -->
<g id="node32" class="node">
<title>30</title>
<ellipse fill="none" stroke="black" cx="1551" cy="-34" rx="46.29" ry="18"/>
<text text-anchor="middle" x="1551" y="-30.3" font-family="Times,serif" font-size="14.00">Mon (a)</text>
</g>
<!-- 11&#45;&gt;30 -->
<g id="edge30" class="edge">
<title>11&#45;&gt;30</title>
<path fill="none" stroke="black" stroke-dasharray="1,5" d="M1551,-87.7C1551,-79.98 1551,-70.71 1551,-62.11"/>
<polygon fill="black" stroke="black" points="1554.5,-62.1 1551,-52.1 1547.5,-62.1 1554.5,-62.1"/>
</g>
<!-- 12 -->
<g id="node14" class="node">
<title>12</title>
<ellipse fill="none" stroke="black" cx="1551" cy="-178" rx="40.89" ry="18"/>
<text text-anchor="middle" x="1551" y="-174.3" font-family="Times,serif" font-size="14.00">Sin (a)</text>
</g>
<!-- 12&#45;&gt;11 -->
<g id="edge12" class="edge">
<title>12&#45;&gt;11</title>
<path fill="none" stroke="black" stroke-dasharray="1,5" d="M1551,-159.7C1551,-151.98 1551,-142.71 1551,-134.11"/>
<polygon fill="black" stroke="black" points="1554.5,-134.1 1551,-124.1 1547.5,-134.1 1554.5,-134.1"/>
</g>
<!-- 14 -->
<g id="node16" class="node">
<title>14</title>
<ellipse fill="none" stroke="black" cx="532" cy="-538" rx="50.09" ry="18"/>
<text text-anchor="middle" x="532" y="-534.3" font-family="Times,serif" font-size="14.00">V560 (a)</text>
</g>
<!-- 23 -->
<g id="node25" class="node">
<title>23</title>
<ellipse fill="none" stroke="black" cx="342" cy="-466" rx="55.79" ry="18"/>
<text text-anchor="middle" x="342" y="-462.3" font-family="Times,serif" font-size="14.00">V1920 (a)</text>
</g>
<!-- 14&#45;&gt;23 -->
<g id="edge24" class="edge">
<title>14&#45;&gt;23</title>
<path fill="none" stroke="black" stroke-dasharray="5,2" d="M498.03,-524.49C467.04,-513.07 421.02,-496.11 386.99,-483.57"/>
<polygon fill="black" stroke="black" points="387.88,-480.17 377.28,-480 385.46,-486.74 387.88,-480.17"/>
</g>
<!-- 15 -->
<g id="node17" class="node">
<title>15</title>
<ellipse fill="none" stroke="black" cx="572" cy="-466" rx="50.09" ry="18"/>
<text text-anchor="middle" x="572" y="-462.3" font-family="Times,serif" font-size="14.00">V566 (a)</text>
</g>
<!-- 33 -->
<g id="node35" class="node">
<title>33</title>
<ellipse fill="none" stroke="black" cx="236" cy="-394" rx="55.79" ry="18"/>
<text text-anchor="middle" x="236" y="-390.3" font-family="Times,serif" font-size="14.00">V1639 (a)</text>
</g>
<!-- 15&#45;&gt;33 -->
<g id="edge33" class="edge">
<title>15&#45;&gt;33</title>
<path fill="none" stroke="black" stroke-dasharray="1,5" d="M535.03,-453.66C527.76,-451.63 520.17,-449.64 513,-448 419.82,-426.74 394.43,-432.11 301,-412 296.4,-411.01 291.63,-409.91 286.86,-408.76"/>
<polygon fill="black" stroke="black" points="287.68,-405.35 277.13,-406.34 285.99,-412.15 287.68,-405.35"/>
</g>
<!-- 17 -->
<g id="node19" class="node">
<title>17</title>
<ellipse fill="none" stroke="black" cx="859" cy="-394" rx="48.99" ry="18"/>
<text text-anchor="middle" x="859" y="-390.3" font-family="Times,serif" font-size="14.00">La35 (a)</text>
</g>
<!-- 18 -->
<g id="node20" class="node">
<title>18</title>
<ellipse fill="none" stroke="black" cx="976" cy="-394" rx="50.09" ry="18"/>
<text text-anchor="middle" x="976" y="-390.3" font-family="Times,serif" font-size="14.00">V571 (a)</text>
</g>
<!-- 19 -->
<g id="node21" class="node">
<title>19</title>
<ellipse fill="none" stroke="gray" stroke-dasharray="5,2" cx="634" cy="-538" rx="34.39" ry="18"/>
<text text-anchor="middle" x="634" y="-534.3" font-family="Times,serif" font-size="14.00">S249</text>
</g>
<!-- 20 -->
<g id="node22" class="node">
<title>20</title>
<ellipse fill="none" stroke="black" cx="680" cy="-466" rx="40.09" ry="18"/>
<text text-anchor="middle" x="680" y="-462.3" font-family="Times,serif" font-size="14.00">Pal (a)</text>
</g>
<!-- 34 -->
<g id="node36" class="node">
<title>34</title>
<ellipse fill="none" stroke="black" cx="375" cy="-394" rx="64.99" ry="18"/>
<text text-anchor="middle" x="375" y="-390.3" font-family="Times,serif" font-size="14.00">Savile&#45;Η (a)</text>
</g>
<!-- 20&#45;&gt;34 -->
<g id="edge34" class="edge">
<title>20&#45;&gt;34</title>
<path fill="none" stroke="black" d="M650.15,-453.91C643.87,-451.78 637.26,-449.7 631,-448 551.41,-426.43 529.64,-429.23 449,-412 443.76,-410.88 438.32,-409.69 432.88,-408.48"/>
<polygon fill="black" stroke="black" points="433.64,-405.06 423.12,-406.28 432.11,-411.89 433.64,-405.06"/>
</g>
<!-- 21 -->
<g id="node23" class="node">
<title>21</title>
<ellipse fill="none" stroke="black" cx="1094" cy="-394" rx="50.09" ry="18"/>
<text text-anchor="middle" x="1094" y="-390.3" font-family="Times,serif" font-size="14.00">A116 (a)</text>
</g>
<!-- 22 -->
<g id="node24" class="node">
<title>22</title>
<ellipse fill="none" stroke="black" cx="1219" cy="-394" rx="57.39" ry="18"/>
<text text-anchor="middle" x="1219" y="-390.3" font-family="Times,serif" font-size="14.00">Bodl (ar1)</text>
</g>
<!-- 24 -->
<g id="node26" class="node">
<title>24</title>
<ellipse fill="none" stroke="black" cx="1660" cy="-178" rx="50.09" ry="18"/>
<text text-anchor="middle" x="1660" y="-174.3" font-family="Times,serif" font-size="14.00">V569 (a)</text>
</g>
<!-- 25 -->
<g id="node27" class="node">
<title>25</title>
<ellipse fill="none" stroke="black" cx="731" cy="-538" rx="44.39" ry="18"/>
<text text-anchor="middle" x="731" y="-534.3" font-family="Times,serif" font-size="14.00">A25 (a)</text>
</g>
<!-- 25&#45;&gt;3 -->
<g id="edge4" class="edge">
<title>25&#45;&gt;3</title>
<path fill="none" stroke="black" stroke-dasharray="5,2" d="M697.72,-526.01C690.9,-523.91 683.74,-521.8 677,-520 604.89,-500.78 585.05,-503.42 513,-484 509.63,-483.09 506.16,-482.1 502.68,-481.07"/>
<polygon fill="black" stroke="black" points="503.52,-477.67 492.94,-478.09 501.48,-484.36 503.52,-477.67"/>
</g>
<!-- 25&#45;&gt;15 -->
<g id="edge16" class="edge">
<title>25&#45;&gt;15</title>
<path fill="none" stroke="black" stroke-dasharray="5,2" d="M702.21,-524.32C676.88,-513.17 639.77,-496.84 611.64,-484.45"/>
<polygon fill="black" stroke="black" points="613.04,-481.24 602.48,-480.42 610.22,-487.65 613.04,-481.24"/>
</g>
<!-- 25&#45;&gt;20 -->
<g id="edge21" class="edge">
<title>25&#45;&gt;20</title>
<path fill="none" stroke="black" stroke-dasharray="5,2" d="M718.91,-520.41C712.69,-511.87 704.97,-501.28 698.06,-491.79"/>
<polygon fill="black" stroke="black" points="700.72,-489.49 692,-483.47 695.06,-493.61 700.72,-489.49"/>
</g>
<!-- 31 -->
<g id="node33" class="node">
<title>31</title>
<ellipse fill="none" stroke="black" cx="782" cy="-466" rx="44.39" ry="18"/>
<text text-anchor="middle" x="782" y="-462.3" font-family="Times,serif" font-size="14.00">P01 (a)</text>
</g>
<!-- 25&#45;&gt;31 -->
<g id="edge31" class="edge">
<title>25&#45;&gt;31</title>
<path fill="none" stroke="black" stroke-dasharray="5,2" d="M743.09,-520.41C749.31,-511.87 757.03,-501.28 763.94,-491.79"/>
<polygon fill="black" stroke="black" points="766.94,-493.61 770,-483.47 761.28,-489.49 766.94,-493.61"/>
</g>
<!-- 35 -->
<g id="node37" class="node">
<title>35</title>
<ellipse fill="none" stroke="black" cx="904" cy="-466" rx="59.59" ry="18"/>
<text text-anchor="middle" x="904" y="-462.3" font-family="Times,serif" font-size="14.00">Patm (ar1)</text>
</g>
<!-- 25&#45;&gt;35 -->
<g id="edge35" class="edge">
<title>25&#45;&gt;35</title>
<path fill="none" stroke="black" stroke-dasharray="1,5" d="M761.13,-524.81C788.59,-513.7 829.48,-497.15 860.48,-484.61"/>
<polygon fill="black" stroke="black" points="861.81,-487.85 869.76,-480.85 859.18,-481.36 861.81,-487.85"/>
</g>
<!-- 41 -->
<g id="node43" class="node">
<title>41</title>
<ellipse fill="none" stroke="black" cx="1031" cy="-466" rx="48.99" ry="18"/>
<text text-anchor="middle" x="1031" y="-462.3" font-family="Times,serif" font-size="14.00">La22 (a)</text>
</g>
<!-- 25&#45;&gt;41 -->
<g id="edge41" class="edge">
<title>25&#45;&gt;41</title>
<path fill="none" stroke="black" stroke-dasharray="1,5" d="M763.61,-525.85C770.31,-523.75 777.35,-521.69 784,-520 866.87,-498.9 889.87,-504.05 973,-484 976.9,-483.06 980.94,-482.02 984.98,-480.93"/>
<polygon fill="black" stroke="black" points="986.25,-484.21 994.95,-478.15 984.37,-477.46 986.25,-484.21"/>
</g>
<!-- 26 -->
<g id="node28" class="node">
<title>26</title>
<ellipse fill="none" stroke="gray" stroke-dasharray="5,2" cx="1781" cy="-106" rx="28.7" ry="18"/>
<text text-anchor="middle" x="1781" y="-102.3" font-family="Times,serif" font-size="14.00">P18</text>
</g>
<!-- 27 -->
<g id="node29" class="node">
<title>27</title>
<ellipse fill="none" stroke="black" cx="1781" cy="-178" rx="52.79" ry="18"/>
<text text-anchor="middle" x="1781" y="-174.3" font-family="Times,serif" font-size="14.00">M118 (a)</text>
</g>
<!-- 27&#45;&gt;26 -->
<g id="edge27" class="edge">
<title>27&#45;&gt;26</title>
<path fill="none" stroke="gray" stroke-dasharray="5,2" d="M1781,-159.7C1781,-151.98 1781,-142.71 1781,-134.11"/>
<polygon fill="gray" stroke="gray" points="1784.5,-134.1 1781,-124.1 1777.5,-134.1 1784.5,-134.1"/>
</g>
<!-- 28 -->
<g id="node30" class="node">
<title>28</title>
<ellipse fill="none" stroke="black" cx="682" cy="-611" rx="53.89" ry="18"/>
<text text-anchor="middle" x="682" y="-607.3" font-family="Times,serif" font-size="14.00">aBase (a)</text>
</g>
<!-- 28&#45;&gt;9 -->
<g id="edge10" class="edge">
<title>28&#45;&gt;9</title>
<path fill="none" stroke="black" d="M632.62,-603.61C567.34,-594.79 448.91,-577.52 349,-556 344.4,-555.01 339.63,-553.89 334.87,-552.71"/>
<polygon fill="black" stroke="black" points="335.72,-549.32 325.17,-550.24 333.99,-556.1 335.72,-549.32"/>
</g>
<!-- 28&#45;&gt;10 -->
<g id="edge11" class="edge">
<title>28&#45;&gt;10</title>
<path fill="none" stroke="black" stroke-width="2" d="M640.32,-599.42C598.1,-588.67 530.94,-571.43 473,-556 468.94,-554.92 464.72,-553.79 460.5,-552.64"/>
<polygon fill="black" stroke="black" stroke-width="2" points="461.23,-549.22 450.67,-549.97 459.4,-555.97 461.23,-549.22"/>
</g>
<!-- 28&#45;&gt;14 -->
<g id="edge15" class="edge">
<title>28&#45;&gt;14</title>
<path fill="none" stroke="black" stroke-width="2" d="M652.01,-595.8C628.5,-584.68 595.65,-569.13 570.25,-557.11"/>
<polygon fill="black" stroke="black" stroke-width="2" points="571.46,-553.8 560.92,-552.69 568.46,-560.13 571.46,-553.8"/>
</g>
<!-- 28&#45;&gt;19 -->
<g id="edge20" class="edge">
<title>28&#45;&gt;19</title>
<path fill="none" stroke="gray" d="M670.62,-593.17C664.68,-584.38 657.29,-573.46 650.71,-563.72"/>
<polygon fill="gray" stroke="gray" points="653.46,-561.54 644.96,-555.22 647.66,-565.46 653.46,-561.54"/>
</g>
<!-- 28&#45;&gt;25 -->
<g id="edge26" class="edge">
<title>28&#45;&gt;25</title>
<path fill="none" stroke="black" stroke-dasharray="5,2" d="M693.61,-593.17C699.59,-584.51 707.01,-573.77 713.65,-564.14"/>
<polygon fill="black" stroke="black" points="716.67,-565.92 719.47,-555.71 710.91,-561.95 716.67,-565.92"/>
</g>
<!-- 36 -->
<g id="node38" class="node">
<title>36</title>
<ellipse fill="none" stroke="black" cx="836" cy="-538" rx="42.79" ry="18"/>
<text text-anchor="middle" x="836" y="-534.3" font-family="Times,serif" font-size="14.00">La2 (a)</text>
</g>
<!-- 28&#45;&gt;36 -->
<g id="edge36" class="edge">
<title>28&#45;&gt;36</title>
<path fill="none" stroke="black" stroke-width="2" d="M712.43,-595.97C737.25,-584.53 772.42,-568.31 798.9,-556.1"/>
<polygon fill="black" stroke="black" stroke-width="2" points="800.61,-559.17 808.23,-551.8 797.68,-552.81 800.61,-559.17"/>
</g>
<!-- 37 -->
<g id="node39" class="node">
<title>37</title>
<ellipse fill="none" stroke="black" cx="1447" cy="-538" rx="44.69" ry="18"/>
<text text-anchor="middle" x="1447" y="-534.3" font-family="Times,serif" font-size="14.00">Nan (a)</text>
</g>
<!-- 28&#45;&gt;37 -->
<g id="edge37" class="edge">
<title>28&#45;&gt;37</title>
<path fill="none" stroke="black" d="M733.38,-605.23C871.96,-592.37 1252.41,-557.06 1393.46,-543.97"/>
<polygon fill="black" stroke="black" points="1393.96,-547.44 1403.59,-543.03 1393.31,-540.47 1393.96,-547.44"/>
</g>
<!-- 40 -->
<g id="node42" class="node">
<title>40</title>
<ellipse fill="none" stroke="black" cx="1633" cy="-538" rx="50.09" ry="18"/>
<text text-anchor="middle" x="1633" y="-534.3" font-family="Times,serif" font-size="14.00">Neap (a)</text>
</g>
<!-- 28&#45;&gt;40 -->
<g id="edge40" class="edge">
<title>28&#45;&gt;40</title>
<path fill="none" stroke="black" stroke-width="2" d="M735.27,-607.64C865.95,-601.59 1212.74,-584.04 1501,-556 1526.14,-553.55 1553.88,-550.1 1577.42,-546.94"/>
<polygon fill="black" stroke="black" stroke-width="2" points="1578.13,-550.37 1587.57,-545.56 1577.19,-543.44 1578.13,-550.37"/>
</g>
<!-- 38 -->
<g id="node40" class="node">
<title>38</title>
<ellipse fill="none" stroke="black" cx="1668" cy="-250" rx="46.59" ry="18"/>
<text text-anchor="middle" x="1668" y="-246.3" font-family="Times,serif" font-size="14.00">Taur (a)</text>
</g>
<!-- 32&#45;&gt;38 -->
<g id="edge38" class="edge">
<title>32&#45;&gt;38</title>
<path fill="none" stroke="black" stroke-dasharray="1,5" d="M1680.88,-304.05C1678.99,-296.26 1676.7,-286.82 1674.58,-278.08"/>
<polygon fill="black" stroke="black" points="1677.96,-277.17 1672.2,-268.28 1671.15,-278.82 1677.96,-277.17"/>
</g>
<!-- 35&#45;&gt;4 -->
<g id="edge5" class="edge">
<title>35&#45;&gt;4</title>
<path fill="none" stroke="blue" stroke-dasharray="1,5" d="M860.35,-453.53C851.97,-451.53 843.24,-449.59 835,-448 721.31,-426.12 690.49,-434.9 577,-412 572.38,-411.07 567.6,-410 562.84,-408.86"/>
<polygon fill="blue" stroke="blue" points="563.66,-405.46 553.11,-406.45 561.97,-412.25 563.66,-405.46"/>
</g>
<!-- 37&#45;&gt;6 -->
<g id="edge7" class="edge">
<title>37&#45;&gt;6</title>
<path fill="none" stroke="black" stroke-dasharray="1,5" d="M1447,-519.7C1447,-511.98 1447,-502.71 1447,-494.11"/>
<polygon fill="black" stroke="black" points="1450.5,-494.1 1447,-484.1 1443.5,-494.1 1450.5,-494.1"/>
</g>
<!-- 39 -->
<g id="node41" class="node">
<title>39</title>
<ellipse fill="none" stroke="black" cx="1577" cy="-466" rx="55.79" ry="18"/>
<text text-anchor="middle" x="1577" y="-462.3" font-family="Times,serif" font-size="14.00">V2250 (a)</text>
</g>
<!-- 37&#45;&gt;39 -->
<g id="edge39" class="edge">
<title>37&#45;&gt;39</title>
<path fill="none" stroke="black" stroke-dasharray="5,2" d="M1472.68,-523.17C1492.11,-512.71 1519.03,-498.21 1540.67,-486.56"/>
<polygon fill="black" stroke="black" points="1542.43,-489.59 1549.57,-481.77 1539.11,-483.43 1542.43,-489.59"/>
</g>
<!-- 38&#45;&gt;12 -->
<g id="edge13" class="edge">
<title>38&#45;&gt;12</title>
<path fill="none" stroke="black" stroke-dasharray="1,5" d="M1643.76,-234.5C1626.19,-223.99 1602.26,-209.67 1583.11,-198.21"/>
<polygon fill="black" stroke="black" points="1584.79,-195.14 1574.41,-193.01 1581.2,-201.15 1584.79,-195.14"/>
</g>
<!-- 38&#45;&gt;24 -->
<g id="edge25" class="edge">
<title>38&#45;&gt;24</title>
<path fill="none" stroke="black" stroke-dasharray="5,2" d="M1666.02,-231.7C1665.14,-223.98 1664.08,-214.71 1663.1,-206.11"/>
<polygon fill="black" stroke="black" points="1666.57,-205.64 1661.95,-196.1 1659.61,-206.44 1666.57,-205.64"/>
</g>
<!-- 38&#45;&gt;27 -->
<g id="edge28" class="edge">
<title>38&#45;&gt;27</title>
<path fill="none" stroke="black" stroke-dasharray="5,2" d="M1691.69,-234.33C1708.04,-224.2 1730,-210.59 1748.06,-199.41"/>
<polygon fill="black" stroke="black" points="1749.9,-202.38 1756.56,-194.14 1746.22,-196.43 1749.9,-202.38"/>
</g>
<!-- 40&#45;&gt;8 -->
<g id="edge9" class="edge">
<title>40&#45;&gt;8</title>
<path fill="none" stroke="black" stroke-dasharray="1,5" d="M1650.16,-520.76C1659.78,-511.66 1671.94,-500.16 1682.54,-490.13"/>
<polygon fill="black" stroke="black" points="1685.07,-492.56 1689.93,-483.15 1680.26,-487.48 1685.07,-492.56"/>
</g>
<!-- 41&#45;&gt;2 -->
<g id="edge3" class="edge">
<title>41&#45;&gt;2</title>
<path fill="none" stroke="black" stroke-dasharray="1,5" d="M995.34,-453.57C988.01,-451.49 980.3,-449.51 973,-448 845.82,-421.65 809.83,-439.96 683,-412 679.39,-411.2 675.68,-410.27 671.97,-409.25"/>
<polygon fill="black" stroke="black" points="672.83,-405.85 662.25,-406.4 670.86,-412.57 672.83,-405.85"/>
</g>
<!-- 41&#45;&gt;5 -->
<g id="edge6" class="edge">
<title>41&#45;&gt;5</title>
<path fill="none" stroke="black" stroke-dasharray="5,2" d="M994.61,-453.86C987.47,-451.81 980.02,-449.76 973,-448 897.25,-429 876.8,-430.82 801,-412 796.98,-411 792.83,-409.92 788.67,-408.79"/>
<polygon fill="black" stroke="black" points="789.6,-405.42 779.03,-406.12 787.73,-412.16 789.6,-405.42"/>
</g>
<!-- 41&#45;&gt;17 -->
<g id="edge18" class="edge">
<title>41&#45;&gt;17</title>
<path fill="none" stroke="black" stroke-dasharray="1,5" d="M999.45,-452.16C971.54,-440.8 930.62,-424.15 900.14,-411.74"/>
<polygon fill="black" stroke="black" points="901.22,-408.4 890.64,-407.88 898.58,-414.89 901.22,-408.4"/>
</g>
<!-- 41&#45;&gt;18 -->
<g id="edge19" class="edge">
<title>41&#45;&gt;18</title>
<path fill="none" stroke="black" stroke-dasharray="1,5" d="M1017.97,-448.41C1011.18,-439.78 1002.76,-429.06 995.25,-419.5"/>
<polygon fill="black" stroke="black" points="997.87,-417.17 988.94,-411.47 992.37,-421.5 997.87,-417.17"/>
</g>
<!-- 41&#45;&gt;21 -->
<g id="edge22" class="edge">
<title>41&#45;&gt;21</title>
<path fill="none" stroke="black" stroke-dasharray="5,2" d="M1045.61,-448.76C1053.53,-439.97 1063.46,-428.93 1072.27,-419.14"/>
<polygon fill="black" stroke="black" points="1074.94,-421.41 1079.03,-411.63 1069.74,-416.72 1074.94,-421.41"/>
</g>
<!-- 41&#45;&gt;22 -->
<g id="edge23" class="edge">
<title>41&#45;&gt;22</title>
<path fill="none" stroke="black" stroke-dasharray="5,2" d="M1064.18,-452.65C1094.69,-441.29 1140.18,-424.35 1173.96,-411.77"/>
<polygon fill="black" stroke="black" points="1175.45,-414.95 1183.6,-408.18 1173.01,-408.39 1175.45,-414.95"/>
</g>
<!-- 42 -->
<g id="node44" class="node">
<title>42</title>
<ellipse fill="none" stroke="black" cx="1347" cy="-394" rx="52.79" ry="18"/>
<text text-anchor="middle" x="1347" y="-390.3" font-family="Times,serif" font-size="14.00">M111 (a)</text>
</g>
<!-- 41&#45;&gt;42 -->
<g id="edge42" class="edge">
<title>41&#45;&gt;42</title>
<path fill="none" stroke="black" stroke-dasharray="1,5" d="M1073.43,-456.98C1124,-447.23 1210.99,-429.85 1285,-412 1289.15,-411 1293.44,-409.92 1297.75,-408.8"/>
<polygon fill="black" stroke="black" points="1298.96,-412.1 1307.74,-406.16 1297.17,-405.33 1298.96,-412.1"/>
</g>
<!-- 42&#45;&gt;7 -->
<g id="edge8" class="edge">
<title>42&#45;&gt;7</title>
<path fill="none" stroke="black" stroke-dasharray="5,2" d="M1347,-375.7C1347,-367.98 1347,-358.71 1347,-350.11"/>
<polygon fill="black" stroke="black" points="1350.5,-350.1 1347,-340.1 1343.5,-350.1 1350.5,-350.1"/>
</g>
</g>
</svg>
