<?xml version="1.0" encoding="UTF-8" standalone="no"?>
<!DOCTYPE svg PUBLIC "-//W3C//DTD SVG 1.1//EN"
 "http://www.w3.org/Graphics/SVG/1.1/DTD/svg11.dtd">
<!-- Generated by graphviz version 2.43.0 (0)
 -->
<!-- Title: textual_flow Pages: 1 -->
<svg width="1689pt" height="692pt"
 viewBox="0.00 0.00 1689.00 692.00" xmlns="http://www.w3.org/2000/svg" xmlns:xlink="http://www.w3.org/1999/xlink">
<g id="graph0" class="graph" transform="scale(1 1) rotate(0) translate(4 688)">
<title>textual_flow</title>
<polygon fill="white" stroke="transparent" points="-4,4 -4,-688 1685,-688 1685,4 -4,4"/>
<g id="clust1" class="cluster">
<title>cluster_legend</title>
<polygon fill="none" stroke="black" points="8,-622 8,-676 164,-676 164,-622 8,-622"/>
</g>
<g id="clust2" class="cluster">
<title>cluster_plot</title>
</g>
<!-- label -->
<g id="node1" class="node">
<title>label</title>
<text text-anchor="middle" x="86" y="-652.8" font-family="Times,serif" font-size="14.00">adstag1.1.12U24</text>
<text text-anchor="middle" x="86" y="-637.8" font-family="Times,serif" font-size="14.00">Con = 5</text>
</g>
<!-- 0 -->
<g id="node2" class="node">
<title>0</title>
<ellipse fill="none" stroke="black" cx="575" cy="-565" rx="44.39" ry="18"/>
<text text-anchor="middle" x="575" y="-561.3" font-family="Times,serif" font-size="14.00">A25 (a)</text>
</g>
<!-- 15 -->
<g id="node17" class="node">
<title>15</title>
<ellipse fill="none" stroke="black" cx="246" cy="-482" rx="40.09" ry="18"/>
<text text-anchor="middle" x="246" y="-478.3" font-family="Times,serif" font-size="14.00">Pal (a)</text>
</g>
<!-- 0&#45;&gt;15 -->
<g id="edge15" class="edge">
<title>0&#45;&gt;15</title>
<path fill="none" stroke="black" stroke-dasharray="5,2" d="M536.98,-555.79C484.24,-544.24 385.97,-522.11 303,-500 298.07,-498.69 292.93,-497.25 287.83,-495.78"/>
<polygon fill="black" stroke="black" points="288.74,-492.4 278.16,-492.95 286.78,-499.12 288.74,-492.4"/>
</g>
<!-- 19 -->
<g id="node21" class="node">
<title>19</title>
<ellipse fill="none" stroke="black" cx="362" cy="-482" rx="50.09" ry="18"/>
<text text-anchor="middle" x="362" y="-478.3" font-family="Times,serif" font-size="14.00">V566 (a)</text>
</g>
<!-- 0&#45;&gt;19 -->
<g id="edge19" class="edge">
<title>0&#45;&gt;19</title>
<path fill="none" stroke="black" stroke-dasharray="5,2" d="M543.57,-552.05C506.82,-538.07 445.82,-514.87 404.78,-499.27"/>
<polygon fill="black" stroke="black" points="405.91,-495.95 395.31,-495.67 403.42,-502.49 405.91,-495.95"/>
</g>
<!-- 22 -->
<g id="node24" class="node">
<title>22</title>
<ellipse fill="none" stroke="black" cx="477" cy="-482" rx="44.39" ry="18"/>
<text text-anchor="middle" x="477" y="-478.3" font-family="Times,serif" font-size="14.00">S32 (a)</text>
</g>
<!-- 0&#45;&gt;22 -->
<g id="edge22" class="edge">
<title>0&#45;&gt;22</title>
<path fill="none" stroke="black" stroke-dasharray="5,2" d="M556.1,-548.38C541.19,-536.06 520.2,-518.71 503.59,-504.98"/>
<polygon fill="black" stroke="black" points="505.78,-502.24 495.84,-498.57 501.32,-507.64 505.78,-502.24"/>
</g>
<!-- 27 -->
<g id="node29" class="node">
<title>27</title>
<ellipse fill="none" stroke="black" cx="588" cy="-482" rx="48.99" ry="18"/>
<text text-anchor="middle" x="588" y="-478.3" font-family="Times,serif" font-size="14.00">La22 (a)</text>
</g>
<!-- 0&#45;&gt;27 -->
<g id="edge27" class="edge">
<title>0&#45;&gt;27</title>
<path fill="none" stroke="black" stroke-dasharray="1,5" d="M577.76,-546.82C579.46,-536.19 581.69,-522.31 583.63,-510.2"/>
<polygon fill="black" stroke="black" points="587.12,-510.58 585.25,-500.15 580.21,-509.47 587.12,-510.58"/>
</g>
<!-- 34 -->
<g id="node36" class="node">
<title>34</title>
<ellipse fill="none" stroke="black" cx="705" cy="-482" rx="50.09" ry="18"/>
<text text-anchor="middle" x="705" y="-478.3" font-family="Times,serif" font-size="14.00">Patm (a)</text>
</g>
<!-- 0&#45;&gt;34 -->
<g id="edge34" class="edge">
<title>0&#45;&gt;34</title>
<path fill="none" stroke="black" stroke-dasharray="1,5" d="M598.24,-549.52C618.87,-536.66 649.24,-517.74 672.32,-503.36"/>
<polygon fill="black" stroke="black" points="674.44,-506.16 681.08,-497.9 670.74,-500.22 674.44,-506.16"/>
</g>
<!-- 39 -->
<g id="node41" class="node">
<title>39</title>
<ellipse fill="none" stroke="black" cx="817" cy="-482" rx="44.39" ry="18"/>
<text text-anchor="middle" x="817" y="-478.3" font-family="Times,serif" font-size="14.00">P01 (a)</text>
</g>
<!-- 0&#45;&gt;39 -->
<g id="edge39" class="edge">
<title>0&#45;&gt;39</title>
<path fill="none" stroke="black" stroke-dasharray="5,2" d="M608.14,-552.91C651.29,-538.47 726.76,-513.2 774.2,-497.33"/>
<polygon fill="black" stroke="black" points="775.5,-500.58 783.87,-494.09 773.28,-493.94 775.5,-500.58"/>
</g>
<!-- 1 -->
<g id="node3" class="node">
<title>1</title>
<ellipse fill="none" stroke="black" cx="1363" cy="-180" rx="41.69" ry="18"/>
<text text-anchor="middle" x="1363" y="-176.3" font-family="Times,serif" font-size="14.00">Sin (b)</text>
</g>
<!-- 6 -->
<g id="node8" class="node">
<title>6</title>
<ellipse fill="none" stroke="black" cx="1363" cy="-107" rx="50.09" ry="18"/>
<text text-anchor="middle" x="1363" y="-103.3" font-family="Times,serif" font-size="14.00">Marc (b)</text>
</g>
<!-- 1&#45;&gt;6 -->
<g id="edge7" class="edge">
<title>1&#45;&gt;6</title>
<path fill="none" stroke="black" stroke-dasharray="1,5" d="M1363,-161.81C1363,-153.79 1363,-144.05 1363,-135.07"/>
<polygon fill="black" stroke="black" points="1366.5,-135.03 1363,-125.03 1359.5,-135.03 1366.5,-135.03"/>
</g>
<!-- 2 -->
<g id="node4" class="node">
<title>2</title>
<ellipse fill="none" stroke="black" cx="690" cy="-565" rx="52.79" ry="18"/>
<text text-anchor="middle" x="690" y="-561.3" font-family="Times,serif" font-size="14.00">LaSM (a)</text>
</g>
<!-- 30 -->
<g id="node32" class="node">
<title>30</title>
<ellipse fill="none" stroke="black" cx="923" cy="-482" rx="44.39" ry="18"/>
<text text-anchor="middle" x="923" y="-478.3" font-family="Times,serif" font-size="14.00">B39 (a)</text>
</g>
<!-- 2&#45;&gt;30 -->
<g id="edge30" class="edge">
<title>2&#45;&gt;30</title>
<path fill="none" stroke="black" stroke-dasharray="5,2" d="M725.64,-551.61C767.36,-537.11 836.37,-513.11 880.75,-497.69"/>
<polygon fill="black" stroke="black" points="882.08,-500.93 890.37,-494.34 879.78,-494.32 882.08,-500.93"/>
</g>
<!-- 3 -->
<g id="node5" class="node">
<title>3</title>
<ellipse fill="none" stroke="black" cx="1475" cy="-180" rx="52.79" ry="18"/>
<text text-anchor="middle" x="1475" y="-176.3" font-family="Times,serif" font-size="14.00">M118 (a)</text>
</g>
<!-- 4 -->
<g id="node6" class="node">
<title>4</title>
<ellipse fill="none" stroke="black" cx="1363" cy="-34" rx="46.59" ry="18"/>
<text text-anchor="middle" x="1363" y="-30.3" font-family="Times,serif" font-size="14.00">Mon (b)</text>
</g>
<!-- 5 -->
<g id="node7" class="node">
<title>5</title>
<ellipse fill="none" stroke="gray" stroke-dasharray="5,2" cx="230" cy="-409" rx="50.09" ry="18"/>
<text text-anchor="middle" x="230" y="-405.3" font-family="Times,serif" font-size="14.00">Savile&#45;Η</text>
</g>
<!-- 6&#45;&gt;4 -->
<g id="edge5" class="edge">
<title>6&#45;&gt;4</title>
<path fill="none" stroke="black" stroke-dasharray="1,5" d="M1363,-88.81C1363,-80.79 1363,-71.05 1363,-62.07"/>
<polygon fill="black" stroke="black" points="1366.5,-62.03 1363,-52.03 1359.5,-62.03 1366.5,-62.03"/>
</g>
<!-- 7 -->
<g id="node9" class="node">
<title>7</title>
<ellipse fill="none" stroke="black" cx="711" cy="-336" rx="50.09" ry="18"/>
<text text-anchor="middle" x="711" y="-332.3" font-family="Times,serif" font-size="14.00">A336 (a)</text>
</g>
<!-- 8 -->
<g id="node10" class="node">
<title>8</title>
<ellipse fill="none" stroke="black" cx="1365" cy="-253" rx="44.39" ry="18"/>
<text text-anchor="middle" x="1365" y="-249.3" font-family="Times,serif" font-size="14.00">P18 (b)</text>
</g>
<!-- 9 -->
<g id="node11" class="node">
<title>9</title>
<ellipse fill="none" stroke="black" cx="817" cy="-565" rx="55.79" ry="18"/>
<text text-anchor="middle" x="817" y="-561.3" font-family="Times,serif" font-size="14.00">V2250 (a)</text>
</g>
<!-- 10 -->
<g id="node12" class="node">
<title>10</title>
<ellipse fill="none" stroke="black" cx="1621" cy="-409" rx="43.59" ry="18"/>
<text text-anchor="middle" x="1621" y="-405.3" font-family="Times,serif" font-size="14.00">Bas (b)</text>
</g>
<!-- 11 -->
<g id="node13" class="node">
<title>11</title>
<ellipse fill="none" stroke="black" cx="1101" cy="-649" rx="53.89" ry="18"/>
<text text-anchor="middle" x="1101" y="-645.3" font-family="Times,serif" font-size="14.00">aBase (a)</text>
</g>
<!-- 11&#45;&gt;0 -->
<g id="edge1" class="edge">
<title>11&#45;&gt;0</title>
<path fill="none" stroke="black" stroke-dasharray="5,2" d="M1049.01,-643.9C961.34,-636.31 778.88,-617.61 628,-583 624.4,-582.17 620.69,-581.21 616.98,-580.18"/>
<polygon fill="black" stroke="black" points="617.85,-576.79 607.27,-577.31 615.87,-583.5 617.85,-576.79"/>
</g>
<!-- 11&#45;&gt;2 -->
<g id="edge3" class="edge">
<title>11&#45;&gt;2</title>
<path fill="none" stroke="black" d="M1053.32,-640.42C985.88,-629.4 858.92,-607.57 752,-583 747.66,-582 743.17,-580.9 738.68,-579.76"/>
<polygon fill="black" stroke="black" points="739.46,-576.35 728.9,-577.2 737.69,-583.12 739.46,-576.35"/>
</g>
<!-- 11&#45;&gt;9 -->
<g id="edge10" class="edge">
<title>11&#45;&gt;9</title>
<path fill="none" stroke="black" stroke-width="2" d="M1061.51,-636.6C1010.61,-621.9 922.09,-596.34 866.68,-580.34"/>
<polygon fill="black" stroke="black" stroke-width="2" points="867.65,-576.98 857.07,-577.57 865.71,-583.71 867.65,-576.98"/>
<text text-anchor="middle" x="979.5" y="-604" font-family="Times,serif" font-size="10.00">3</text>
</g>
<!-- 16 -->
<g id="node18" class="node">
<title>16</title>
<ellipse fill="none" stroke="black" cx="932" cy="-565" rx="41.69" ry="18"/>
<text text-anchor="middle" x="932" y="-561.3" font-family="Times,serif" font-size="14.00">Est (a)</text>
</g>
<!-- 11&#45;&gt;16 -->
<g id="edge16" class="edge">
<title>11&#45;&gt;16</title>
<path fill="none" stroke="black" d="M1071.56,-633.72C1042.68,-619.7 998.6,-598.31 967.72,-583.33"/>
<polygon fill="black" stroke="black" points="969.12,-580.12 958.6,-578.91 966.07,-586.42 969.12,-580.12"/>
<text text-anchor="middle" x="1029.5" y="-604" font-family="Times,serif" font-size="10.00">3</text>
</g>
<!-- 23 -->
<g id="node25" class="node">
<title>23</title>
<ellipse fill="none" stroke="black" cx="1042" cy="-565" rx="50.09" ry="18"/>
<text text-anchor="middle" x="1042" y="-561.3" font-family="Times,serif" font-size="14.00">Neap (a)</text>
</g>
<!-- 11&#45;&gt;23 -->
<g id="edge23" class="edge">
<title>11&#45;&gt;23</title>
<path fill="none" stroke="black" stroke-width="2" d="M1089.06,-631.41C1080.66,-619.74 1069.28,-603.92 1059.82,-590.76"/>
<polygon fill="black" stroke="black" stroke-width="2" points="1062.6,-588.64 1053.92,-582.57 1056.92,-592.73 1062.6,-588.64"/>
</g>
<!-- 31 -->
<g id="node33" class="node">
<title>31</title>
<ellipse fill="none" stroke="black" cx="1160" cy="-565" rx="50.09" ry="18"/>
<text text-anchor="middle" x="1160" y="-561.3" font-family="Times,serif" font-size="14.00">S249 (a)</text>
</g>
<!-- 11&#45;&gt;31 -->
<g id="edge31" class="edge">
<title>11&#45;&gt;31</title>
<path fill="none" stroke="black" d="M1112.94,-631.41C1121.34,-619.74 1132.72,-603.92 1142.18,-590.76"/>
<polygon fill="black" stroke="black" points="1145.08,-592.73 1148.08,-582.57 1139.4,-588.64 1145.08,-592.73"/>
</g>
<!-- 33 -->
<g id="node35" class="node">
<title>33</title>
<ellipse fill="none" stroke="black" cx="1278" cy="-565" rx="50.09" ry="18"/>
<text text-anchor="middle" x="1278" y="-561.3" font-family="Times,serif" font-size="14.00">V560 (a)</text>
</g>
<!-- 11&#45;&gt;33 -->
<g id="edge33" class="edge">
<title>11&#45;&gt;33</title>
<path fill="none" stroke="black" stroke-width="2" d="M1131.43,-633.9C1161.29,-620.07 1206.96,-598.91 1239.37,-583.89"/>
<polygon fill="black" stroke="black" stroke-width="2" points="1240.96,-587.02 1248.56,-579.64 1238.01,-580.67 1240.96,-587.02"/>
</g>
<!-- 38 -->
<g id="node40" class="node">
<title>38</title>
<ellipse fill="none" stroke="black" cx="1399" cy="-565" rx="53.09" ry="18"/>
<text text-anchor="middle" x="1399" y="-561.3" font-family="Times,serif" font-size="14.00">M136 (b)</text>
</g>
<!-- 11&#45;&gt;38 -->
<g id="edge38" class="edge">
<title>11&#45;&gt;38</title>
<path fill="none" stroke="blue" stroke-width="2" d="M1141.19,-636.94C1195.1,-622.11 1290.81,-595.77 1349.22,-579.7"/>
<polygon fill="blue" stroke="blue" stroke-width="2" points="1350.26,-583.04 1358.97,-577.01 1348.4,-576.29 1350.26,-583.04"/>
</g>
<!-- 42 -->
<g id="node44" class="node">
<title>42</title>
<ellipse fill="none" stroke="black" cx="1516" cy="-565" rx="45.49" ry="18"/>
<text text-anchor="middle" x="1516" y="-561.3" font-family="Times,serif" font-size="14.00">Nan (b)</text>
</g>
<!-- 11&#45;&gt;42 -->
<g id="edge42" class="edge">
<title>11&#45;&gt;42</title>
<path fill="none" stroke="blue" d="M1149.72,-641.12C1219.29,-630.86 1350.86,-609.86 1461,-583 1464.66,-582.11 1468.44,-581.11 1472.22,-580.05"/>
<polygon fill="blue" stroke="blue" points="1473.52,-583.32 1482.15,-577.17 1471.57,-576.6 1473.52,-583.32"/>
</g>
<!-- 44 -->
<g id="node46" class="node">
<title>44</title>
<ellipse fill="none" stroke="black" cx="1622" cy="-565" rx="42.79" ry="18"/>
<text text-anchor="middle" x="1622" y="-561.3" font-family="Times,serif" font-size="14.00">La2 (a)</text>
</g>
<!-- 11&#45;&gt;44 -->
<g id="edge44" class="edge">
<title>11&#45;&gt;44</title>
<path fill="none" stroke="black" stroke-width="2" d="M1152.9,-643.85C1239.98,-636.22 1420.62,-617.48 1570,-583 1573.44,-582.21 1576.97,-581.29 1580.5,-580.29"/>
<polygon fill="black" stroke="black" stroke-width="2" points="1581.78,-583.56 1590.35,-577.34 1579.77,-576.86 1581.78,-583.56"/>
</g>
<!-- 12 -->
<g id="node14" class="node">
<title>12</title>
<ellipse fill="none" stroke="black" cx="475" cy="-409" rx="46.59" ry="18"/>
<text text-anchor="middle" x="475" y="-405.3" font-family="Times,serif" font-size="14.00">Bodl (a)</text>
</g>
<!-- 13 -->
<g id="node15" class="node">
<title>13</title>
<ellipse fill="none" stroke="black" cx="590" cy="-409" rx="50.09" ry="18"/>
<text text-anchor="middle" x="590" y="-405.3" font-family="Times,serif" font-size="14.00">V571 (a)</text>
</g>
<!-- 14 -->
<g id="node16" class="node">
<title>14</title>
<ellipse fill="none" stroke="black" cx="1475" cy="-253" rx="47.39" ry="18"/>
<text text-anchor="middle" x="1475" y="-249.3" font-family="Times,serif" font-size="14.00">Taur (b)</text>
</g>
<!-- 14&#45;&gt;1 -->
<g id="edge2" class="edge">
<title>14&#45;&gt;1</title>
<path fill="none" stroke="black" stroke-dasharray="1,5" d="M1451.79,-237.29C1435.05,-226.68 1412.28,-212.24 1393.99,-200.64"/>
<polygon fill="black" stroke="black" points="1395.73,-197.61 1385.41,-195.21 1391.98,-203.52 1395.73,-197.61"/>
</g>
<!-- 14&#45;&gt;3 -->
<g id="edge4" class="edge">
<title>14&#45;&gt;3</title>
<path fill="none" stroke="blue" stroke-dasharray="5,2" d="M1475,-234.81C1475,-226.79 1475,-217.05 1475,-208.07"/>
<polygon fill="blue" stroke="blue" points="1478.5,-208.03 1475,-198.03 1471.5,-208.03 1478.5,-208.03"/>
</g>
<!-- 40 -->
<g id="node42" class="node">
<title>40</title>
<ellipse fill="none" stroke="black" cx="1596" cy="-180" rx="50.09" ry="18"/>
<text text-anchor="middle" x="1596" y="-176.3" font-family="Times,serif" font-size="14.00">V569 (b)</text>
</g>
<!-- 14&#45;&gt;40 -->
<g id="edge40" class="edge">
<title>14&#45;&gt;40</title>
<path fill="none" stroke="black" stroke-dasharray="5,2" d="M1499.78,-237.46C1517.77,-226.91 1542.32,-212.5 1562.12,-200.88"/>
<polygon fill="black" stroke="black" points="1563.99,-203.84 1570.84,-195.76 1560.44,-197.81 1563.99,-203.84"/>
</g>
<!-- 15&#45;&gt;5 -->
<g id="edge6" class="edge">
<title>15&#45;&gt;5</title>
<path fill="none" stroke="gray" d="M242.13,-463.81C240.32,-455.79 238.12,-446.05 236.1,-437.07"/>
<polygon fill="gray" stroke="gray" points="239.45,-436.01 233.84,-427.03 232.62,-437.55 239.45,-436.01"/>
</g>
<!-- 17 -->
<g id="node19" class="node">
<title>17</title>
<ellipse fill="none" stroke="black" cx="1609" cy="-482" rx="55.79" ry="18"/>
<text text-anchor="middle" x="1609" y="-478.3" font-family="Times,serif" font-size="14.00">V1897 (b)</text>
</g>
<!-- 17&#45;&gt;10 -->
<g id="edge11" class="edge">
<title>17&#45;&gt;10</title>
<path fill="none" stroke="black" d="M1611.9,-463.81C1613.26,-455.79 1614.91,-446.05 1616.42,-437.07"/>
<polygon fill="black" stroke="black" points="1619.91,-437.47 1618.12,-427.03 1613,-436.31 1619.91,-437.47"/>
</g>
<!-- 18 -->
<g id="node20" class="node">
<title>18</title>
<ellipse fill="none" stroke="black" cx="1420" cy="-336" rx="50.09" ry="18"/>
<text text-anchor="middle" x="1420" y="-332.3" font-family="Times,serif" font-size="14.00">V568 (b)</text>
</g>
<!-- 18&#45;&gt;8 -->
<g id="edge9" class="edge">
<title>18&#45;&gt;8</title>
<path fill="none" stroke="black" stroke-dasharray="5,2" d="M1408.6,-318.22C1400.88,-306.85 1390.55,-291.63 1381.88,-278.86"/>
<polygon fill="black" stroke="black" points="1384.71,-276.79 1376.19,-270.48 1378.92,-280.72 1384.71,-276.79"/>
<text text-anchor="middle" x="1398.5" y="-292" font-family="Times,serif" font-size="10.00">2</text>
</g>
<!-- 18&#45;&gt;14 -->
<g id="edge14" class="edge">
<title>18&#45;&gt;14</title>
<path fill="none" stroke="black" stroke-dasharray="1,5" d="M1431.4,-318.22C1439.07,-306.92 1449.32,-291.83 1457.95,-279.11"/>
<polygon fill="black" stroke="black" points="1460.9,-281 1463.62,-270.76 1455.11,-277.07 1460.9,-281"/>
</g>
<!-- 35 -->
<g id="node37" class="node">
<title>35</title>
<ellipse fill="none" stroke="black" cx="354" cy="-409" rx="55.79" ry="18"/>
<text text-anchor="middle" x="354" y="-405.3" font-family="Times,serif" font-size="14.00">V1639 (a)</text>
</g>
<!-- 19&#45;&gt;35 -->
<g id="edge35" class="edge">
<title>19&#45;&gt;35</title>
<path fill="none" stroke="black" stroke-dasharray="1,5" d="M360.06,-463.81C359.16,-455.79 358.06,-446.05 357.05,-437.07"/>
<polygon fill="black" stroke="black" points="360.52,-436.57 355.92,-427.03 353.56,-437.36 360.52,-436.57"/>
</g>
<!-- 20 -->
<g id="node22" class="node">
<title>20</title>
<ellipse fill="none" stroke="gray" stroke-dasharray="5,2" cx="1360" cy="-482" rx="45.49" ry="18"/>
<text text-anchor="middle" x="1360" y="-478.3" font-family="Times,serif" font-size="14.00">LaSM&#45;c</text>
</g>
<!-- 21 -->
<g id="node23" class="node">
<title>21</title>
<ellipse fill="none" stroke="black" cx="711" cy="-409" rx="52.79" ry="18"/>
<text text-anchor="middle" x="711" y="-405.3" font-family="Times,serif" font-size="14.00">M111 (a)</text>
</g>
<!-- 21&#45;&gt;7 -->
<g id="edge8" class="edge">
<title>21&#45;&gt;7</title>
<path fill="none" stroke="black" stroke-dasharray="5,2" d="M711,-390.81C711,-382.79 711,-373.05 711,-364.07"/>
<polygon fill="black" stroke="black" points="714.5,-364.03 711,-354.03 707.5,-364.03 714.5,-364.03"/>
</g>
<!-- 32 -->
<g id="node34" class="node">
<title>32</title>
<ellipse fill="none" stroke="gray" stroke-dasharray="5,2" cx="1025" cy="-482" rx="39.79" ry="18"/>
<text text-anchor="middle" x="1025" y="-478.3" font-family="Times,serif" font-size="14.00">Taur&#45;c</text>
</g>
<!-- 23&#45;&gt;32 -->
<g id="edge32" class="edge">
<title>23&#45;&gt;32</title>
<path fill="none" stroke="gray" stroke-width="2" d="M1038.39,-546.82C1036.16,-536.19 1033.25,-522.31 1030.71,-510.2"/>
<polygon fill="gray" stroke="gray" stroke-width="2" points="1034.08,-509.22 1028.6,-500.15 1027.23,-510.66 1034.08,-509.22"/>
</g>
<!-- 36 -->
<g id="node38" class="node">
<title>36</title>
<ellipse fill="none" stroke="gray" stroke-dasharray="5,2" cx="1125" cy="-482" rx="42.49" ry="18"/>
<text text-anchor="middle" x="1125" y="-478.3" font-family="Times,serif" font-size="14.00">Marc&#45;c</text>
</g>
<!-- 23&#45;&gt;36 -->
<g id="edge36" class="edge">
<title>23&#45;&gt;36</title>
<path fill="none" stroke="gray" stroke-dasharray="5,2" d="M1058.8,-547.61C1071.11,-535.6 1087.98,-519.13 1101.6,-505.83"/>
<polygon fill="gray" stroke="gray" points="1104.08,-508.31 1108.79,-498.82 1099.19,-503.3 1104.08,-508.31"/>
</g>
<!-- 24 -->
<g id="node26" class="node">
<title>24</title>
<ellipse fill="none" stroke="black" cx="1420" cy="-409" rx="50.09" ry="18"/>
<text text-anchor="middle" x="1420" y="-405.3" font-family="Times,serif" font-size="14.00">V536 (b)</text>
</g>
<!-- 24&#45;&gt;18 -->
<g id="edge18" class="edge">
<title>24&#45;&gt;18</title>
<path fill="none" stroke="black" stroke-dasharray="1,5" d="M1420,-390.81C1420,-382.79 1420,-373.05 1420,-364.07"/>
<polygon fill="black" stroke="black" points="1423.5,-364.03 1420,-354.03 1416.5,-364.03 1423.5,-364.03"/>
</g>
<!-- 25 -->
<g id="node27" class="node">
<title>25</title>
<ellipse fill="none" stroke="black" cx="838" cy="-409" rx="55.79" ry="18"/>
<text text-anchor="middle" x="838" y="-405.3" font-family="Times,serif" font-size="14.00">V2036 (a)</text>
</g>
<!-- 26 -->
<g id="node28" class="node">
<title>26</title>
<ellipse fill="none" stroke="black" cx="961" cy="-409" rx="48.99" ry="18"/>
<text text-anchor="middle" x="961" y="-405.3" font-family="Times,serif" font-size="14.00">La35 (a)</text>
</g>
<!-- 27&#45;&gt;12 -->
<g id="edge12" class="edge">
<title>27&#45;&gt;12</title>
<path fill="none" stroke="black" stroke-dasharray="5,2" d="M564.31,-466.12C547.63,-455.63 525.1,-441.48 506.84,-430.01"/>
<polygon fill="black" stroke="black" points="508.6,-426.98 498.27,-424.62 504.88,-432.9 508.6,-426.98"/>
</g>
<!-- 27&#45;&gt;13 -->
<g id="edge13" class="edge">
<title>27&#45;&gt;13</title>
<path fill="none" stroke="black" stroke-dasharray="1,5" d="M588.48,-463.81C588.71,-455.79 588.98,-446.05 589.24,-437.07"/>
<polygon fill="black" stroke="black" points="592.74,-437.12 589.52,-427.03 585.74,-436.93 592.74,-437.12"/>
</g>
<!-- 27&#45;&gt;21 -->
<g id="edge21" class="edge">
<title>27&#45;&gt;21</title>
<path fill="none" stroke="black" stroke-dasharray="1,5" d="M613.19,-466.46C631.47,-455.91 656.43,-441.5 676.56,-429.88"/>
<polygon fill="black" stroke="black" points="678.51,-432.79 685.42,-424.76 675.01,-426.73 678.51,-432.79"/>
</g>
<!-- 27&#45;&gt;25 -->
<g id="edge25" class="edge">
<title>27&#45;&gt;25</title>
<path fill="none" stroke="black" stroke-dasharray="5,2" d="M624.8,-470.15C631.83,-468.09 639.14,-465.97 646,-464 693.81,-450.27 748.43,-434.94 787.15,-424.14"/>
<polygon fill="black" stroke="black" points="788.45,-427.41 797.14,-421.35 786.57,-420.67 788.45,-427.41"/>
</g>
<!-- 27&#45;&gt;26 -->
<g id="edge26" class="edge">
<title>27&#45;&gt;26</title>
<path fill="none" stroke="black" stroke-dasharray="1,5" d="M623.69,-469.68C631.02,-467.59 638.72,-465.58 646,-464 758.77,-439.49 790.23,-451.51 903,-427 907.1,-426.11 911.32,-425.08 915.55,-423.99"/>
<polygon fill="black" stroke="black" points="916.59,-427.33 925.31,-421.32 914.75,-420.58 916.59,-427.33"/>
</g>
<!-- 29 -->
<g id="node31" class="node">
<title>29</title>
<ellipse fill="none" stroke="black" cx="1078" cy="-409" rx="50.09" ry="18"/>
<text text-anchor="middle" x="1078" y="-405.3" font-family="Times,serif" font-size="14.00">V565 (b)</text>
</g>
<!-- 27&#45;&gt;29 -->
<g id="edge29" class="edge">
<title>27&#45;&gt;29</title>
<path fill="none" stroke="blue" stroke-dasharray="5,2" d="M623.32,-469.51C630.75,-467.42 638.58,-465.44 646,-464 809.53,-432.21 855.4,-458.41 1019,-427 1023.18,-426.2 1027.49,-425.23 1031.79,-424.17"/>
<polygon fill="blue" stroke="blue" points="1032.96,-427.49 1041.74,-421.57 1031.18,-420.71 1032.96,-427.49"/>
</g>
<!-- 41 -->
<g id="node43" class="node">
<title>41</title>
<ellipse fill="none" stroke="black" cx="1190" cy="-409" rx="44.39" ry="18"/>
<text text-anchor="middle" x="1190" y="-405.3" font-family="Times,serif" font-size="14.00">P74 (a)</text>
</g>
<!-- 27&#45;&gt;41 -->
<g id="edge41" class="edge">
<title>27&#45;&gt;41</title>
<path fill="none" stroke="black" stroke-dasharray="1,5" d="M622.99,-469.46C630.51,-467.34 638.46,-465.37 646,-464 861.3,-424.79 922.21,-468.93 1137,-427 1140.68,-426.28 1144.46,-425.39 1148.22,-424.4"/>
<polygon fill="black" stroke="black" points="1149.44,-427.69 1158.08,-421.57 1147.51,-420.96 1149.44,-427.69"/>
</g>
<!-- 45 -->
<g id="node47" class="node">
<title>45</title>
<ellipse fill="none" stroke="black" cx="1302" cy="-409" rx="50.09" ry="18"/>
<text text-anchor="middle" x="1302" y="-405.3" font-family="Times,serif" font-size="14.00">A116 (a)</text>
</g>
<!-- 27&#45;&gt;45 -->
<g id="edge45" class="edge">
<title>27&#45;&gt;45</title>
<path fill="none" stroke="black" stroke-dasharray="5,2" d="M622.96,-469.33C630.49,-467.22 638.45,-465.28 646,-464 799.12,-437.98 840,-455.93 995,-446 1105.32,-438.93 1134.21,-446.63 1243,-427 1247.37,-426.21 1251.87,-425.23 1256.36,-424.14"/>
<polygon fill="black" stroke="black" points="1257.29,-427.52 1266.08,-421.61 1255.52,-420.74 1257.29,-427.52"/>
</g>
<!-- 28 -->
<g id="node30" class="node">
<title>28</title>
<ellipse fill="none" stroke="black" cx="1479" cy="-482" rx="55.79" ry="18"/>
<text text-anchor="middle" x="1479" y="-478.3" font-family="Times,serif" font-size="14.00">V1629 (b)</text>
</g>
<!-- 28&#45;&gt;24 -->
<g id="edge24" class="edge">
<title>28&#45;&gt;24</title>
<path fill="none" stroke="black" stroke-dasharray="5,2" d="M1465.32,-464.53C1457.87,-455.57 1448.51,-444.31 1440.24,-434.36"/>
<polygon fill="black" stroke="black" points="1442.69,-431.83 1433.61,-426.38 1437.31,-436.31 1442.69,-431.83"/>
</g>
<!-- 37 -->
<g id="node39" class="node">
<title>37</title>
<ellipse fill="none" stroke="gray" stroke-dasharray="5,2" cx="1524" cy="-409" rx="36" ry="18"/>
<text text-anchor="middle" x="1524" y="-405.3" font-family="Times,serif" font-size="14.00">La2&#45;c</text>
</g>
<!-- 28&#45;&gt;37 -->
<g id="edge37" class="edge">
<title>28&#45;&gt;37</title>
<path fill="none" stroke="gray" stroke-width="2" d="M1489.66,-464.17C1495.1,-455.6 1501.83,-444.99 1507.88,-435.44"/>
<polygon fill="gray" stroke="gray" stroke-width="2" points="1511.02,-437.03 1513.41,-426.71 1505.1,-433.28 1511.02,-437.03"/>
</g>
<!-- 43 -->
<g id="node45" class="node">
<title>43</title>
<ellipse fill="none" stroke="black" cx="1241" cy="-482" rx="55.79" ry="18"/>
<text text-anchor="middle" x="1241" y="-478.3" font-family="Times,serif" font-size="14.00">V1920 (a)</text>
</g>
<!-- 33&#45;&gt;43 -->
<g id="edge43" class="edge">
<title>33&#45;&gt;43</title>
<path fill="none" stroke="black" stroke-dasharray="5,2" d="M1270.15,-546.82C1265.17,-535.9 1258.61,-521.55 1252.98,-509.22"/>
<polygon fill="black" stroke="black" points="1256.05,-507.52 1248.71,-499.88 1249.68,-510.43 1256.05,-507.52"/>
</g>
<!-- 38&#45;&gt;20 -->
<g id="edge20" class="edge">
<title>38&#45;&gt;20</title>
<path fill="none" stroke="gray" stroke-dasharray="5,2" d="M1390.73,-546.82C1385.47,-535.9 1378.56,-521.55 1372.63,-509.22"/>
<polygon fill="gray" stroke="gray" points="1375.62,-507.37 1368.13,-499.88 1369.31,-510.4 1375.62,-507.37"/>
</g>
<!-- 38&#45;&gt;28 -->
<g id="edge28" class="edge">
<title>38&#45;&gt;28</title>
<path fill="none" stroke="black" stroke-dasharray="5,2" d="M1415.19,-547.61C1426.79,-535.86 1442.6,-519.86 1455.57,-506.72"/>
<polygon fill="black" stroke="black" points="1458.3,-508.94 1462.83,-499.37 1453.32,-504.02 1458.3,-508.94"/>
<text text-anchor="middle" x="1446.5" y="-521" font-family="Times,serif" font-size="10.00">2</text>
</g>
<!-- 42&#45;&gt;17 -->
<g id="edge17" class="edge">
<title>42&#45;&gt;17</title>
<path fill="none" stroke="black" stroke-dasharray="1,5" d="M1533.93,-548.38C1547.78,-536.32 1567.13,-519.46 1582.73,-505.88"/>
<polygon fill="black" stroke="black" points="1585.25,-508.33 1590.49,-499.12 1580.65,-503.05 1585.25,-508.33"/>
</g>
</g>
</svg>
