<?xml version="1.0" encoding="UTF-8" standalone="no"?>
<!DOCTYPE svg PUBLIC "-//W3C//DTD SVG 1.1//EN"
 "http://www.w3.org/Graphics/SVG/1.1/DTD/svg11.dtd">
<!-- Generated by graphviz version 2.43.0 (0)
 -->
<!-- Title: textual_flow Pages: 1 -->
<svg width="2066pt" height="654pt"
 viewBox="0.00 0.00 2066.00 654.00" xmlns="http://www.w3.org/2000/svg" xmlns:xlink="http://www.w3.org/1999/xlink">
<g id="graph0" class="graph" transform="scale(1 1) rotate(0) translate(4 650)">
<title>textual_flow</title>
<polygon fill="white" stroke="transparent" points="-4,4 -4,-650 2062,-650 2062,4 -4,4"/>
<g id="clust1" class="cluster">
<title>cluster_legend</title>
<polygon fill="none" stroke="black" points="8,-584 8,-638 178,-638 178,-584 8,-584"/>
</g>
<g id="clust2" class="cluster">
<title>cluster_plot</title>
</g>
<!-- label -->
<g id="node1" class="node">
<title>label</title>
<text text-anchor="middle" x="93" y="-614.8" font-family="Times,serif" font-size="14.00">adstag1.3.23U2&#45;12</text>
<text text-anchor="middle" x="93" y="-599.8" font-family="Times,serif" font-size="14.00">Con = 3</text>
</g>
<!-- 0 -->
<g id="node2" class="node">
<title>0</title>
<ellipse fill="none" stroke="black" cx="1107" cy="-34" rx="41.69" ry="18"/>
<text text-anchor="middle" x="1107" y="-30.3" font-family="Times,serif" font-size="14.00">Sin (d)</text>
</g>
<!-- 1 -->
<g id="node3" class="node">
<title>1</title>
<ellipse fill="none" stroke="black" cx="498" cy="-466" rx="44.39" ry="18"/>
<text text-anchor="middle" x="498" y="-462.3" font-family="Times,serif" font-size="14.00">S32 (a)</text>
</g>
<!-- 2 -->
<g id="node4" class="node">
<title>2</title>
<ellipse fill="none" stroke="black" cx="1297" cy="-466" rx="48.99" ry="18"/>
<text text-anchor="middle" x="1297" y="-462.3" font-family="Times,serif" font-size="14.00">La35 (a)</text>
</g>
<!-- 3 -->
<g id="node5" class="node">
<title>3</title>
<ellipse fill="none" stroke="black" cx="1411" cy="-466" rx="46.59" ry="18"/>
<text text-anchor="middle" x="1411" y="-462.3" font-family="Times,serif" font-size="14.00">Bodl (a)</text>
</g>
<!-- 4 -->
<g id="node6" class="node">
<title>4</title>
<ellipse fill="none" stroke="black" cx="600" cy="-466" rx="40.09" ry="18"/>
<text text-anchor="middle" x="600" y="-462.3" font-family="Times,serif" font-size="14.00">Pal (a)</text>
</g>
<!-- 5 -->
<g id="node7" class="node">
<title>5</title>
<ellipse fill="none" stroke="black" cx="702" cy="-466" rx="44.39" ry="18"/>
<text text-anchor="middle" x="702" y="-462.3" font-family="Times,serif" font-size="14.00">P01 (a)</text>
</g>
<!-- 6 -->
<g id="node8" class="node">
<title>6</title>
<ellipse fill="none" stroke="black" cx="814" cy="-394" rx="55.79" ry="18"/>
<text text-anchor="middle" x="814" y="-390.3" font-family="Times,serif" font-size="14.00">V1639 (a)</text>
</g>
<!-- 7 -->
<g id="node9" class="node">
<title>7</title>
<ellipse fill="none" stroke="black" cx="250" cy="-466" rx="55.79" ry="18"/>
<text text-anchor="middle" x="250" y="-462.3" font-family="Times,serif" font-size="14.00">V1897 (a)</text>
</g>
<!-- 12 -->
<g id="node14" class="node">
<title>12</title>
<ellipse fill="none" stroke="black" cx="244" cy="-394" rx="42.79" ry="18"/>
<text text-anchor="middle" x="244" y="-390.3" font-family="Times,serif" font-size="14.00">Bas (a)</text>
</g>
<!-- 7&#45;&gt;12 -->
<g id="edge13" class="edge">
<title>7&#45;&gt;12</title>
<path fill="none" stroke="black" d="M248.52,-447.7C247.86,-439.98 247.06,-430.71 246.32,-422.11"/>
<polygon fill="black" stroke="black" points="249.81,-421.77 245.47,-412.1 242.83,-422.37 249.81,-421.77"/>
</g>
<!-- 38 -->
<g id="node40" class="node">
<title>38</title>
<ellipse fill="none" stroke="black" cx="346" cy="-394" rx="41.69" ry="18"/>
<text text-anchor="middle" x="346" y="-390.3" font-family="Times,serif" font-size="14.00">Est (a)</text>
</g>
<!-- 7&#45;&gt;38 -->
<g id="edge38" class="edge">
<title>7&#45;&gt;38</title>
<path fill="none" stroke="black" stroke-dasharray="1,5" d="M271.78,-449.12C285.29,-439.27 302.78,-426.51 317.4,-415.86"/>
<polygon fill="black" stroke="black" points="319.6,-418.58 325.62,-409.86 315.47,-412.93 319.6,-418.58"/>
</g>
<!-- 8 -->
<g id="node10" class="node">
<title>8</title>
<ellipse fill="none" stroke="black" cx="1174" cy="-466" rx="55.79" ry="18"/>
<text text-anchor="middle" x="1174" y="-462.3" font-family="Times,serif" font-size="14.00">V1629 (a)</text>
</g>
<!-- 9 -->
<g id="node11" class="node">
<title>9</title>
<ellipse fill="none" stroke="gray" stroke-dasharray="5,2" cx="1122" cy="-394" rx="36" ry="18"/>
<text text-anchor="middle" x="1122" y="-390.3" font-family="Times,serif" font-size="14.00">La2&#45;c</text>
</g>
<!-- 8&#45;&gt;9 -->
<g id="edge10" class="edge">
<title>8&#45;&gt;9</title>
<path fill="none" stroke="gray" stroke-width="2" d="M1161.68,-448.41C1155.17,-439.66 1147.07,-428.75 1139.89,-419.08"/>
<polygon fill="gray" stroke="gray" stroke-width="2" points="1142.65,-416.93 1133.88,-410.99 1137.03,-421.1 1142.65,-416.93"/>
</g>
<!-- 40 -->
<g id="node42" class="node">
<title>40</title>
<ellipse fill="none" stroke="black" cx="1225" cy="-394" rx="49.29" ry="18"/>
<text text-anchor="middle" x="1225" y="-390.3" font-family="Times,serif" font-size="14.00">V536 (c)</text>
</g>
<!-- 8&#45;&gt;40 -->
<g id="edge40" class="edge">
<title>8&#45;&gt;40</title>
<path fill="none" stroke="blue" stroke-dasharray="5,2" d="M1186.09,-448.41C1192.31,-439.87 1200.03,-429.28 1206.94,-419.79"/>
<polygon fill="blue" stroke="blue" points="1209.94,-421.61 1213,-411.47 1204.28,-417.49 1209.94,-421.61"/>
</g>
<!-- 10 -->
<g id="node12" class="node">
<title>10</title>
<ellipse fill="none" stroke="black" cx="1107" cy="-178" rx="50.09" ry="18"/>
<text text-anchor="middle" x="1107" y="-174.3" font-family="Times,serif" font-size="14.00">Marc (e)</text>
</g>
<!-- 21 -->
<g id="node23" class="node">
<title>21</title>
<ellipse fill="none" stroke="black" cx="1107" cy="-106" rx="46.59" ry="18"/>
<text text-anchor="middle" x="1107" y="-102.3" font-family="Times,serif" font-size="14.00">Mon (d)</text>
</g>
<!-- 10&#45;&gt;21 -->
<g id="edge21" class="edge">
<title>10&#45;&gt;21</title>
<path fill="none" stroke="blue" stroke-dasharray="1,5" d="M1107,-159.7C1107,-151.98 1107,-142.71 1107,-134.11"/>
<polygon fill="blue" stroke="blue" points="1110.5,-134.1 1107,-124.1 1103.5,-134.1 1110.5,-134.1"/>
</g>
<!-- 11 -->
<g id="node13" class="node">
<title>11</title>
<ellipse fill="none" stroke="black" cx="359" cy="-538" rx="44.69" ry="18"/>
<text text-anchor="middle" x="359" y="-534.3" font-family="Times,serif" font-size="14.00">Nan (a)</text>
</g>
<!-- 11&#45;&gt;7 -->
<g id="edge8" class="edge">
<title>11&#45;&gt;7</title>
<path fill="none" stroke="black" stroke-dasharray="1,5" d="M336.15,-522.33C320.63,-512.36 299.86,-499.02 282.61,-487.94"/>
<polygon fill="black" stroke="black" points="284.26,-484.84 273.95,-482.38 280.48,-490.73 284.26,-484.84"/>
</g>
<!-- 32 -->
<g id="node34" class="node">
<title>32</title>
<ellipse fill="none" stroke="black" cx="380" cy="-466" rx="55.79" ry="18"/>
<text text-anchor="middle" x="380" y="-462.3" font-family="Times,serif" font-size="14.00">V2250 (a)</text>
</g>
<!-- 11&#45;&gt;32 -->
<g id="edge32" class="edge">
<title>11&#45;&gt;32</title>
<path fill="none" stroke="black" stroke-dasharray="5,2" d="M364.08,-520.05C366.42,-512.26 369.25,-502.82 371.88,-494.08"/>
<polygon fill="black" stroke="black" points="375.3,-494.86 374.82,-484.28 368.59,-492.85 375.3,-494.86"/>
</g>
<!-- 13 -->
<g id="node15" class="node">
<title>13</title>
<ellipse fill="none" stroke="black" cx="474" cy="-538" rx="52.79" ry="18"/>
<text text-anchor="middle" x="474" y="-534.3" font-family="Times,serif" font-size="14.00">M136 (a)</text>
</g>
<!-- 14 -->
<g id="node16" class="node">
<title>14</title>
<ellipse fill="none" stroke="black" cx="1009" cy="-611" rx="53.89" ry="18"/>
<text text-anchor="middle" x="1009" y="-607.3" font-family="Times,serif" font-size="14.00">aBase (a)</text>
</g>
<!-- 14&#45;&gt;11 -->
<g id="edge12" class="edge">
<title>14&#45;&gt;11</title>
<path fill="none" stroke="black" d="M955.32,-609.09C850.06,-606.44 609.6,-596.12 412,-556 408.38,-555.26 404.65,-554.37 400.94,-553.38"/>
<polygon fill="black" stroke="black" points="401.79,-549.98 391.21,-550.58 399.85,-556.71 401.79,-549.98"/>
</g>
<!-- 14&#45;&gt;13 -->
<g id="edge14" class="edge">
<title>14&#45;&gt;13</title>
<path fill="none" stroke="black" stroke-width="2" d="M956.46,-606.65C868.73,-600.48 687.15,-585.17 536,-556 531.5,-555.13 526.85,-554.11 522.21,-552.99"/>
<polygon fill="black" stroke="black" stroke-width="2" points="522.7,-549.51 512.15,-550.45 520.99,-556.29 522.7,-549.51"/>
</g>
<!-- 17 -->
<g id="node19" class="node">
<title>17</title>
<ellipse fill="none" stroke="black" cx="589" cy="-538" rx="44.39" ry="18"/>
<text text-anchor="middle" x="589" y="-534.3" font-family="Times,serif" font-size="14.00">A25 (a)</text>
</g>
<!-- 14&#45;&gt;17 -->
<g id="edge17" class="edge">
<title>14&#45;&gt;17</title>
<path fill="none" stroke="black" stroke-dasharray="5,2" d="M957.75,-605.15C886.35,-597.78 753.19,-581.83 642,-556 638.55,-555.2 635.01,-554.28 631.47,-553.29"/>
<polygon fill="black" stroke="black" points="632.14,-549.84 621.56,-550.37 630.16,-556.56 632.14,-549.84"/>
</g>
<!-- 18 -->
<g id="node20" class="node">
<title>18</title>
<ellipse fill="none" stroke="black" cx="707" cy="-538" rx="55.79" ry="18"/>
<text text-anchor="middle" x="707" y="-534.3" font-family="Times,serif" font-size="14.00">V2036 (a)</text>
</g>
<!-- 14&#45;&gt;18 -->
<g id="edge18" class="edge">
<title>14&#45;&gt;18</title>
<path fill="none" stroke="black" d="M965.22,-600.46C917.58,-589.98 839.23,-572.45 772,-556 767.61,-554.93 763.06,-553.79 758.5,-552.63"/>
<polygon fill="black" stroke="black" points="759.12,-549.17 748.56,-550.08 757.38,-555.95 759.12,-549.17"/>
</g>
<!-- 24 -->
<g id="node26" class="node">
<title>24</title>
<ellipse fill="none" stroke="black" cx="831" cy="-538" rx="50.09" ry="18"/>
<text text-anchor="middle" x="831" y="-534.3" font-family="Times,serif" font-size="14.00">Patm (a)</text>
</g>
<!-- 14&#45;&gt;24 -->
<g id="edge24" class="edge">
<title>14&#45;&gt;24</title>
<path fill="none" stroke="black" d="M975.52,-596.65C946.31,-585 903.83,-568.05 872.48,-555.54"/>
<polygon fill="black" stroke="black" points="873.72,-552.27 863.13,-551.82 871.12,-558.77 873.72,-552.27"/>
</g>
<!-- 27 -->
<g id="node29" class="node">
<title>27</title>
<ellipse fill="none" stroke="black" cx="949" cy="-538" rx="50.09" ry="18"/>
<text text-anchor="middle" x="949" y="-534.3" font-family="Times,serif" font-size="14.00">V560 (a)</text>
</g>
<!-- 14&#45;&gt;27 -->
<g id="edge27" class="edge">
<title>14&#45;&gt;27</title>
<path fill="none" stroke="black" stroke-width="2" d="M995.08,-593.53C987.44,-584.48 977.81,-573.09 969.33,-563.06"/>
<polygon fill="black" stroke="black" stroke-width="2" points="971.97,-560.76 962.84,-555.38 966.62,-565.28 971.97,-560.76"/>
</g>
<!-- 30 -->
<g id="node32" class="node">
<title>30</title>
<ellipse fill="none" stroke="black" cx="1070" cy="-538" rx="52.79" ry="18"/>
<text text-anchor="middle" x="1070" y="-534.3" font-family="Times,serif" font-size="14.00">LaSM (a)</text>
</g>
<!-- 14&#45;&gt;30 -->
<g id="edge30" class="edge">
<title>14&#45;&gt;30</title>
<path fill="none" stroke="black" d="M1023.15,-593.53C1030.92,-584.48 1040.71,-573.09 1049.33,-563.06"/>
<polygon fill="black" stroke="black" points="1052.07,-565.24 1055.93,-555.38 1046.76,-560.68 1052.07,-565.24"/>
</g>
<!-- 31 -->
<g id="node33" class="node">
<title>31</title>
<ellipse fill="none" stroke="black" cx="1191" cy="-538" rx="50.09" ry="18"/>
<text text-anchor="middle" x="1191" y="-534.3" font-family="Times,serif" font-size="14.00">Neap (a)</text>
</g>
<!-- 14&#45;&gt;31 -->
<g id="edge31" class="edge">
<title>14&#45;&gt;31</title>
<path fill="none" stroke="black" stroke-width="2" d="M1042.81,-596.81C1072.71,-585.15 1116.47,-568.07 1148.69,-555.5"/>
<polygon fill="black" stroke="black" stroke-width="2" points="1150.25,-558.65 1158.29,-551.76 1147.71,-552.13 1150.25,-558.65"/>
</g>
<!-- 33 -->
<g id="node35" class="node">
<title>33</title>
<ellipse fill="none" stroke="gray" stroke-dasharray="5,2" cx="1309" cy="-538" rx="50.09" ry="18"/>
<text text-anchor="middle" x="1309" y="-534.3" font-family="Times,serif" font-size="14.00">Savile&#45;Η</text>
</g>
<!-- 14&#45;&gt;33 -->
<g id="edge33" class="edge">
<title>14&#45;&gt;33</title>
<path fill="none" stroke="gray" stroke-width="2" d="M1053.61,-600.84C1102.13,-590.69 1181.87,-573.43 1250,-556 1253.84,-555.02 1257.81,-553.96 1261.79,-552.87"/>
<polygon fill="gray" stroke="gray" stroke-width="2" points="1262.94,-556.19 1271.64,-550.13 1261.07,-549.44 1262.94,-556.19"/>
</g>
<!-- 35 -->
<g id="node37" class="node">
<title>35</title>
<ellipse fill="none" stroke="black" cx="1421" cy="-538" rx="43.59" ry="18"/>
<text text-anchor="middle" x="1421" y="-534.3" font-family="Times,serif" font-size="14.00">La2 (b)</text>
</g>
<!-- 14&#45;&gt;35 -->
<g id="edge35" class="edge">
<title>14&#45;&gt;35</title>
<path fill="none" stroke="blue" stroke-width="2" d="M1060.02,-604.94C1130.08,-597.41 1259.68,-581.34 1368,-556 1371.6,-555.16 1375.31,-554.19 1379.01,-553.15"/>
<polygon fill="blue" stroke="blue" stroke-width="2" points="1380.13,-556.47 1388.72,-550.27 1378.14,-549.76 1380.13,-556.47"/>
</g>
<!-- 37 -->
<g id="node39" class="node">
<title>37</title>
<ellipse fill="none" stroke="black" cx="1531" cy="-538" rx="48.99" ry="18"/>
<text text-anchor="middle" x="1531" y="-534.3" font-family="Times,serif" font-size="14.00">La22 (a)</text>
</g>
<!-- 14&#45;&gt;37 -->
<g id="edge37" class="edge">
<title>14&#45;&gt;37</title>
<path fill="none" stroke="black" stroke-dasharray="5,2" d="M1061.77,-606.88C1148.51,-601.07 1326.33,-586.35 1474,-556 1477.87,-555.2 1481.86,-554.27 1485.84,-553.25"/>
<polygon fill="black" stroke="black" points="1486.94,-556.58 1495.67,-550.58 1485.1,-549.82 1486.94,-556.58"/>
</g>
<!-- 42 -->
<g id="node44" class="node">
<title>42</title>
<ellipse fill="none" stroke="black" cx="1648" cy="-538" rx="50.09" ry="18"/>
<text text-anchor="middle" x="1648" y="-534.3" font-family="Times,serif" font-size="14.00">S249 (a)</text>
</g>
<!-- 14&#45;&gt;42 -->
<g id="edge42" class="edge">
<title>14&#45;&gt;42</title>
<path fill="none" stroke="black" d="M1062.64,-608.37C1165.55,-604.49 1397.46,-592.18 1589,-556 1593.18,-555.21 1597.5,-554.25 1601.8,-553.2"/>
<polygon fill="black" stroke="black" points="1602.96,-556.51 1611.75,-550.6 1601.19,-549.74 1602.96,-556.51"/>
</g>
<!-- 15 -->
<g id="node17" class="node">
<title>15</title>
<ellipse fill="none" stroke="black" cx="1225" cy="-322" rx="49.29" ry="18"/>
<text text-anchor="middle" x="1225" y="-318.3" font-family="Times,serif" font-size="14.00">V568 (c)</text>
</g>
<!-- 25 -->
<g id="node27" class="node">
<title>25</title>
<ellipse fill="none" stroke="black" cx="1225" cy="-250" rx="46.29" ry="18"/>
<text text-anchor="middle" x="1225" y="-246.3" font-family="Times,serif" font-size="14.00">Taur (c)</text>
</g>
<!-- 15&#45;&gt;25 -->
<g id="edge25" class="edge">
<title>15&#45;&gt;25</title>
<path fill="none" stroke="black" stroke-dasharray="1,5" d="M1225,-303.7C1225,-295.98 1225,-286.71 1225,-278.11"/>
<polygon fill="black" stroke="black" points="1228.5,-278.1 1225,-268.1 1221.5,-278.1 1228.5,-278.1"/>
</g>
<!-- 16 -->
<g id="node18" class="node">
<title>16</title>
<ellipse fill="none" stroke="black" cx="1520" cy="-466" rx="44.39" ry="18"/>
<text text-anchor="middle" x="1520" y="-462.3" font-family="Times,serif" font-size="14.00">P74 (a)</text>
</g>
<!-- 17&#45;&gt;1 -->
<g id="edge2" class="edge">
<title>17&#45;&gt;1</title>
<path fill="none" stroke="black" stroke-dasharray="5,2" d="M569.25,-521.81C556.61,-512.09 540.02,-499.32 526.03,-488.56"/>
<polygon fill="black" stroke="black" points="527.77,-485.48 517.71,-482.16 523.5,-491.03 527.77,-485.48"/>
</g>
<!-- 17&#45;&gt;4 -->
<g id="edge5" class="edge">
<title>17&#45;&gt;4</title>
<path fill="none" stroke="black" stroke-dasharray="5,2" d="M591.72,-519.7C592.93,-511.98 594.39,-502.71 595.74,-494.11"/>
<polygon fill="black" stroke="black" points="599.22,-494.53 597.31,-484.1 592.3,-493.44 599.22,-494.53"/>
</g>
<!-- 17&#45;&gt;5 -->
<g id="edge6" class="edge">
<title>17&#45;&gt;5</title>
<path fill="none" stroke="black" stroke-dasharray="5,2" d="M612.41,-522.5C629.08,-512.17 651.68,-498.17 670.01,-486.82"/>
<polygon fill="black" stroke="black" points="671.96,-489.73 678.62,-481.49 668.27,-483.78 671.96,-489.73"/>
</g>
<!-- 36 -->
<g id="node38" class="node">
<title>36</title>
<ellipse fill="none" stroke="black" cx="814" cy="-466" rx="50.09" ry="18"/>
<text text-anchor="middle" x="814" y="-462.3" font-family="Times,serif" font-size="14.00">V566 (a)</text>
</g>
<!-- 17&#45;&gt;36 -->
<g id="edge36" class="edge">
<title>17&#45;&gt;36</title>
<path fill="none" stroke="black" stroke-dasharray="5,2" d="M622.63,-526.15C629.05,-524.09 635.73,-521.97 642,-520 684.32,-506.69 732.61,-491.84 767.22,-481.26"/>
<polygon fill="black" stroke="black" points="768.51,-484.52 777.05,-478.25 766.47,-477.83 768.51,-484.52"/>
</g>
<!-- 19 -->
<g id="node21" class="node">
<title>19</title>
<ellipse fill="none" stroke="black" cx="1871" cy="-394" rx="50.09" ry="18"/>
<text text-anchor="middle" x="1871" y="-390.3" font-family="Times,serif" font-size="14.00">A336 (a)</text>
</g>
<!-- 20 -->
<g id="node22" class="node">
<title>20</title>
<ellipse fill="none" stroke="black" cx="1632" cy="-466" rx="50.09" ry="18"/>
<text text-anchor="middle" x="1632" y="-462.3" font-family="Times,serif" font-size="14.00">A116 (a)</text>
</g>
<!-- 21&#45;&gt;0 -->
<g id="edge1" class="edge">
<title>21&#45;&gt;0</title>
<path fill="none" stroke="black" stroke-dasharray="1,5" d="M1107,-87.7C1107,-79.98 1107,-70.71 1107,-62.11"/>
<polygon fill="black" stroke="black" points="1110.5,-62.1 1107,-52.1 1103.5,-62.1 1110.5,-62.1"/>
</g>
<!-- 22 -->
<g id="node24" class="node">
<title>22</title>
<ellipse fill="none" stroke="black" cx="1056" cy="-466" rx="44.39" ry="18"/>
<text text-anchor="middle" x="1056" y="-462.3" font-family="Times,serif" font-size="14.00">B39 (a)</text>
</g>
<!-- 23 -->
<g id="node25" class="node">
<title>23</title>
<ellipse fill="none" stroke="black" cx="938" cy="-466" rx="55.79" ry="18"/>
<text text-anchor="middle" x="938" y="-462.3" font-family="Times,serif" font-size="14.00">V1920 (a)</text>
</g>
<!-- 25&#45;&gt;10 -->
<g id="edge11" class="edge">
<title>25&#45;&gt;10</title>
<path fill="none" stroke="blue" stroke-dasharray="1,5" d="M1200.55,-234.5C1183.18,-224.19 1159.65,-210.23 1140.53,-198.89"/>
<polygon fill="blue" stroke="blue" points="1142.21,-195.82 1131.82,-193.73 1138.64,-201.84 1142.21,-195.82"/>
</g>
<!-- 29 -->
<g id="node31" class="node">
<title>29</title>
<ellipse fill="none" stroke="black" cx="1225" cy="-178" rx="50.09" ry="18"/>
<text text-anchor="middle" x="1225" y="-174.3" font-family="Times,serif" font-size="14.00">V569 (b)</text>
</g>
<!-- 25&#45;&gt;29 -->
<g id="edge29" class="edge">
<title>25&#45;&gt;29</title>
<path fill="none" stroke="blue" stroke-dasharray="5,2" d="M1225,-231.7C1225,-223.98 1225,-214.71 1225,-206.11"/>
<polygon fill="blue" stroke="blue" points="1228.5,-206.1 1225,-196.1 1221.5,-206.1 1228.5,-206.1"/>
</g>
<!-- 34 -->
<g id="node36" class="node">
<title>34</title>
<ellipse fill="none" stroke="black" cx="1345" cy="-178" rx="51.99" ry="18"/>
<text text-anchor="middle" x="1345" y="-174.3" font-family="Times,serif" font-size="14.00">M118 (c)</text>
</g>
<!-- 25&#45;&gt;34 -->
<g id="edge34" class="edge">
<title>25&#45;&gt;34</title>
<path fill="none" stroke="black" stroke-dasharray="5,2" d="M1249.57,-234.67C1267.21,-224.38 1291.22,-210.37 1310.74,-198.99"/>
<polygon fill="black" stroke="black" points="1312.76,-201.86 1319.63,-193.8 1309.23,-195.81 1312.76,-201.86"/>
</g>
<!-- 26 -->
<g id="node28" class="node">
<title>26</title>
<ellipse fill="none" stroke="black" cx="1750" cy="-466" rx="50.09" ry="18"/>
<text text-anchor="middle" x="1750" y="-462.3" font-family="Times,serif" font-size="14.00">V565 (a)</text>
</g>
<!-- 27&#45;&gt;23 -->
<g id="edge23" class="edge">
<title>27&#45;&gt;23</title>
<path fill="none" stroke="black" stroke-dasharray="5,2" d="M946.28,-519.7C945.07,-511.98 943.61,-502.71 942.26,-494.11"/>
<polygon fill="black" stroke="black" points="945.7,-493.44 940.69,-484.1 938.78,-494.53 945.7,-493.44"/>
</g>
<!-- 28 -->
<g id="node30" class="node">
<title>28</title>
<ellipse fill="none" stroke="gray" stroke-dasharray="5,2" cx="1345" cy="-106" rx="28.7" ry="18"/>
<text text-anchor="middle" x="1345" y="-102.3" font-family="Times,serif" font-size="14.00">P18</text>
</g>
<!-- 30&#45;&gt;22 -->
<g id="edge22" class="edge">
<title>30&#45;&gt;22</title>
<path fill="none" stroke="black" stroke-dasharray="5,2" d="M1066.54,-519.7C1065,-511.98 1063.14,-502.71 1061.42,-494.11"/>
<polygon fill="black" stroke="black" points="1064.81,-493.22 1059.42,-484.1 1057.95,-494.6 1064.81,-493.22"/>
</g>
<!-- 31&#45;&gt;8 -->
<g id="edge9" class="edge">
<title>31&#45;&gt;8</title>
<path fill="none" stroke="black" stroke-dasharray="1,5" d="M1186.88,-520.05C1184.99,-512.26 1182.7,-502.82 1180.58,-494.08"/>
<polygon fill="black" stroke="black" points="1183.96,-493.17 1178.2,-484.28 1177.15,-494.82 1183.96,-493.17"/>
</g>
<!-- 34&#45;&gt;28 -->
<g id="edge28" class="edge">
<title>34&#45;&gt;28</title>
<path fill="none" stroke="gray" stroke-dasharray="5,2" d="M1345,-159.7C1345,-151.98 1345,-142.71 1345,-134.11"/>
<polygon fill="gray" stroke="gray" points="1348.5,-134.1 1345,-124.1 1341.5,-134.1 1348.5,-134.1"/>
</g>
<!-- 36&#45;&gt;6 -->
<g id="edge7" class="edge">
<title>36&#45;&gt;6</title>
<path fill="none" stroke="black" stroke-dasharray="1,5" d="M814,-447.7C814,-439.98 814,-430.71 814,-422.11"/>
<polygon fill="black" stroke="black" points="817.5,-422.1 814,-412.1 810.5,-422.1 817.5,-422.1"/>
</g>
<!-- 37&#45;&gt;2 -->
<g id="edge3" class="edge">
<title>37&#45;&gt;2</title>
<path fill="none" stroke="black" stroke-dasharray="1,5" d="M1494.44,-526.06C1453.69,-513.87 1387.71,-494.13 1343.36,-480.87"/>
<polygon fill="black" stroke="black" points="1344.27,-477.49 1333.69,-477.98 1342.27,-484.2 1344.27,-477.49"/>
</g>
<!-- 37&#45;&gt;3 -->
<g id="edge4" class="edge">
<title>37&#45;&gt;3</title>
<path fill="none" stroke="black" stroke-dasharray="5,2" d="M1506.14,-522.5C1488.36,-512.12 1464.22,-498.05 1444.71,-486.66"/>
<polygon fill="black" stroke="black" points="1446.23,-483.5 1435.83,-481.49 1442.71,-489.55 1446.23,-483.5"/>
</g>
<!-- 37&#45;&gt;16 -->
<g id="edge16" class="edge">
<title>37&#45;&gt;16</title>
<path fill="none" stroke="black" stroke-dasharray="1,5" d="M1528.28,-519.7C1527.07,-511.98 1525.61,-502.71 1524.26,-494.11"/>
<polygon fill="black" stroke="black" points="1527.7,-493.44 1522.69,-484.1 1520.78,-494.53 1527.7,-493.44"/>
</g>
<!-- 37&#45;&gt;20 -->
<g id="edge20" class="edge">
<title>37&#45;&gt;20</title>
<path fill="none" stroke="black" stroke-dasharray="5,2" d="M1552.92,-521.81C1567.11,-511.97 1585.8,-499.02 1601.45,-488.18"/>
<polygon fill="black" stroke="black" points="1603.55,-490.97 1609.78,-482.4 1599.57,-485.22 1603.55,-490.97"/>
</g>
<!-- 37&#45;&gt;26 -->
<g id="edge26" class="edge">
<title>37&#45;&gt;26</title>
<path fill="none" stroke="black" stroke-dasharray="5,2" d="M1566.67,-525.6C1604.18,-513.61 1663.33,-494.7 1704.25,-481.62"/>
<polygon fill="black" stroke="black" points="1705.52,-484.89 1713.98,-478.51 1703.39,-478.22 1705.52,-484.89"/>
</g>
<!-- 39 -->
<g id="node41" class="node">
<title>39</title>
<ellipse fill="none" stroke="black" cx="1871" cy="-466" rx="52.79" ry="18"/>
<text text-anchor="middle" x="1871" y="-462.3" font-family="Times,serif" font-size="14.00">M111 (a)</text>
</g>
<!-- 37&#45;&gt;39 -->
<g id="edge39" class="edge">
<title>37&#45;&gt;39</title>
<path fill="none" stroke="black" stroke-dasharray="1,5" d="M1567.02,-525.7C1574.26,-523.64 1581.84,-521.63 1589,-520 1685.61,-498.02 1712.2,-505.13 1809,-484 1813.35,-483.05 1817.85,-481.98 1822.35,-480.86"/>
<polygon fill="black" stroke="black" points="1823.32,-484.22 1832.13,-478.33 1821.57,-477.45 1823.32,-484.22"/>
</g>
<!-- 41 -->
<g id="node43" class="node">
<title>41</title>
<ellipse fill="none" stroke="black" cx="1992" cy="-466" rx="50.09" ry="18"/>
<text text-anchor="middle" x="1992" y="-462.3" font-family="Times,serif" font-size="14.00">V571 (a)</text>
</g>
<!-- 37&#45;&gt;41 -->
<g id="edge41" class="edge">
<title>37&#45;&gt;41</title>
<path fill="none" stroke="black" stroke-dasharray="1,5" d="M1566.33,-525.54C1573.76,-523.45 1581.59,-521.46 1589,-520 1739.82,-490.26 1782.11,-513.39 1933,-484 1937.18,-483.19 1941.49,-482.21 1945.79,-481.15"/>
<polygon fill="black" stroke="black" points="1946.95,-484.46 1955.74,-478.54 1945.17,-477.69 1946.95,-484.46"/>
</g>
<!-- 39&#45;&gt;19 -->
<g id="edge19" class="edge">
<title>39&#45;&gt;19</title>
<path fill="none" stroke="black" stroke-dasharray="5,2" d="M1871,-447.7C1871,-439.98 1871,-430.71 1871,-422.11"/>
<polygon fill="black" stroke="black" points="1874.5,-422.1 1871,-412.1 1867.5,-422.1 1874.5,-422.1"/>
</g>
<!-- 40&#45;&gt;15 -->
<g id="edge15" class="edge">
<title>40&#45;&gt;15</title>
<path fill="none" stroke="black" stroke-dasharray="1,5" d="M1225,-375.7C1225,-367.98 1225,-358.71 1225,-350.11"/>
<polygon fill="black" stroke="black" points="1228.5,-350.1 1225,-340.1 1221.5,-350.1 1228.5,-350.1"/>
</g>
</g>
</svg>
