<?xml version="1.0" encoding="UTF-8" standalone="no"?>
<!DOCTYPE svg PUBLIC "-//W3C//DTD SVG 1.1//EN"
 "http://www.w3.org/Graphics/SVG/1.1/DTD/svg11.dtd">
<!-- Generated by graphviz version 2.43.0 (0)
 -->
<!-- Title: textual_flow Pages: 1 -->
<svg width="2073pt" height="654pt"
 viewBox="0.00 0.00 2073.00 654.00" xmlns="http://www.w3.org/2000/svg" xmlns:xlink="http://www.w3.org/1999/xlink">
<g id="graph0" class="graph" transform="scale(1 1) rotate(0) translate(4 650)">
<title>textual_flow</title>
<polygon fill="white" stroke="transparent" points="-4,4 -4,-650 2069,-650 2069,4 -4,4"/>
<g id="clust1" class="cluster">
<title>cluster_legend</title>
<polygon fill="none" stroke="black" points="8,-584 8,-638 186,-638 186,-584 8,-584"/>
</g>
<g id="clust2" class="cluster">
<title>cluster_plot</title>
</g>
<!-- label -->
<g id="node1" class="node">
<title>label</title>
<text text-anchor="middle" x="97" y="-614.8" font-family="Times,serif" font-size="14.00">adstag1.3.67U12&#45;22</text>
<text text-anchor="middle" x="97" y="-599.8" font-family="Times,serif" font-size="14.00">Con = 5</text>
</g>
<!-- 0 -->
<g id="node2" class="node">
<title>0</title>
<ellipse fill="none" stroke="black" cx="431" cy="-538" rx="50.09" ry="18"/>
<text text-anchor="middle" x="431" y="-534.3" font-family="Times,serif" font-size="14.00">Neap (a)</text>
</g>
<!-- 19 -->
<g id="node21" class="node">
<title>19</title>
<ellipse fill="none" stroke="black" cx="258" cy="-466" rx="55.79" ry="18"/>
<text text-anchor="middle" x="258" y="-462.3" font-family="Times,serif" font-size="14.00">V1629 (d)</text>
</g>
<!-- 0&#45;&gt;19 -->
<g id="edge20" class="edge">
<title>0&#45;&gt;19</title>
<path fill="none" stroke="blue" stroke-dasharray="1,5" d="M398.87,-524C371.27,-512.83 331.25,-496.64 300.92,-484.37"/>
<polygon fill="blue" stroke="blue" points="302.02,-481.04 291.44,-480.53 299.39,-487.52 302.02,-481.04"/>
</g>
<!-- 1 -->
<g id="node3" class="node">
<title>1</title>
<ellipse fill="none" stroke="black" cx="723" cy="-538" rx="50.09" ry="18"/>
<text text-anchor="middle" x="723" y="-534.3" font-family="Times,serif" font-size="14.00">Patm (a)</text>
</g>
<!-- 2 -->
<g id="node4" class="node">
<title>2</title>
<ellipse fill="none" stroke="black" cx="314" cy="-322" rx="50.09" ry="18"/>
<text text-anchor="middle" x="314" y="-318.3" font-family="Times,serif" font-size="14.00">V568 (b)</text>
</g>
<!-- 21 -->
<g id="node23" class="node">
<title>21</title>
<ellipse fill="none" stroke="black" cx="342" cy="-250" rx="47.39" ry="18"/>
<text text-anchor="middle" x="342" y="-246.3" font-family="Times,serif" font-size="14.00">Taur (b)</text>
</g>
<!-- 2&#45;&gt;21 -->
<g id="edge21" class="edge">
<title>2&#45;&gt;21</title>
<path fill="none" stroke="black" stroke-dasharray="1,5" d="M320.78,-304.05C323.93,-296.18 327.75,-286.62 331.28,-277.79"/>
<polygon fill="black" stroke="black" points="334.63,-278.86 335.09,-268.28 328.13,-276.26 334.63,-278.86"/>
</g>
<!-- 3 -->
<g id="node5" class="node">
<title>3</title>
<ellipse fill="none" stroke="black" cx="376" cy="-466" rx="44.39" ry="18"/>
<text text-anchor="middle" x="376" y="-462.3" font-family="Times,serif" font-size="14.00">P74 (a)</text>
</g>
<!-- 4 -->
<g id="node6" class="node">
<title>4</title>
<ellipse fill="none" stroke="black" cx="370" cy="-106" rx="46.29" ry="18"/>
<text text-anchor="middle" x="370" y="-102.3" font-family="Times,serif" font-size="14.00">Mon (c)</text>
</g>
<!-- 23 -->
<g id="node25" class="node">
<title>23</title>
<ellipse fill="none" stroke="black" cx="370" cy="-34" rx="40.09" ry="18"/>
<text text-anchor="middle" x="370" y="-30.3" font-family="Times,serif" font-size="14.00">Sin (c)</text>
</g>
<!-- 4&#45;&gt;23 -->
<g id="edge23" class="edge">
<title>4&#45;&gt;23</title>
<path fill="none" stroke="black" stroke-dasharray="1,5" d="M370,-87.7C370,-79.98 370,-70.71 370,-62.11"/>
<polygon fill="black" stroke="black" points="373.5,-62.1 370,-52.1 366.5,-62.1 373.5,-62.1"/>
</g>
<!-- 5 -->
<g id="node7" class="node">
<title>5</title>
<ellipse fill="none" stroke="black" cx="840" cy="-538" rx="48.99" ry="18"/>
<text text-anchor="middle" x="840" y="-534.3" font-family="Times,serif" font-size="14.00">La22 (a)</text>
</g>
<!-- 5&#45;&gt;3 -->
<g id="edge4" class="edge">
<title>5&#45;&gt;3</title>
<path fill="none" stroke="black" stroke-dasharray="1,5" d="M804.67,-525.53C797.25,-523.43 789.41,-521.45 782,-520 627.24,-489.69 583.37,-516.26 429,-484 425.38,-483.24 421.66,-482.33 417.95,-481.33"/>
<polygon fill="black" stroke="black" points="418.81,-477.94 408.23,-478.52 416.86,-484.66 418.81,-477.94"/>
</g>
<!-- 6 -->
<g id="node8" class="node">
<title>6</title>
<ellipse fill="none" stroke="black" cx="488" cy="-466" rx="50.09" ry="18"/>
<text text-anchor="middle" x="488" y="-462.3" font-family="Times,serif" font-size="14.00">V565 (a)</text>
</g>
<!-- 5&#45;&gt;6 -->
<g id="edge7" class="edge">
<title>5&#45;&gt;6</title>
<path fill="none" stroke="black" stroke-dasharray="5,2" d="M804.3,-525.73C796.97,-523.64 789.27,-521.62 782,-520 678.85,-497.09 650.2,-506.67 547,-484 542.9,-483.1 538.67,-482.07 534.44,-480.98"/>
<polygon fill="black" stroke="black" points="535.2,-477.56 524.64,-478.35 533.38,-484.32 535.2,-477.56"/>
</g>
<!-- 9 -->
<g id="node11" class="node">
<title>9</title>
<ellipse fill="none" stroke="black" cx="605" cy="-466" rx="48.99" ry="18"/>
<text text-anchor="middle" x="605" y="-462.3" font-family="Times,serif" font-size="14.00">La35 (a)</text>
</g>
<!-- 5&#45;&gt;9 -->
<g id="edge10" class="edge">
<title>5&#45;&gt;9</title>
<path fill="none" stroke="black" stroke-dasharray="1,5" d="M803.28,-526.06C762.36,-513.87 696.09,-494.13 651.56,-480.87"/>
<polygon fill="black" stroke="black" points="652.43,-477.48 641.85,-477.98 650.43,-484.19 652.43,-477.48"/>
</g>
<!-- 14 -->
<g id="node16" class="node">
<title>14</title>
<ellipse fill="none" stroke="black" cx="722" cy="-466" rx="50.09" ry="18"/>
<text text-anchor="middle" x="722" y="-462.3" font-family="Times,serif" font-size="14.00">V571 (a)</text>
</g>
<!-- 5&#45;&gt;14 -->
<g id="edge15" class="edge">
<title>5&#45;&gt;14</title>
<path fill="none" stroke="black" stroke-dasharray="1,5" d="M815.26,-522.33C797.88,-512.01 774.42,-498.1 755.38,-486.8"/>
<polygon fill="black" stroke="black" points="757.09,-483.75 746.7,-481.65 753.52,-489.77 757.09,-483.75"/>
</g>
<!-- 24 -->
<g id="node26" class="node">
<title>24</title>
<ellipse fill="none" stroke="black" cx="840" cy="-466" rx="50.09" ry="18"/>
<text text-anchor="middle" x="840" y="-462.3" font-family="Times,serif" font-size="14.00">A116 (a)</text>
</g>
<!-- 5&#45;&gt;24 -->
<g id="edge24" class="edge">
<title>5&#45;&gt;24</title>
<path fill="none" stroke="black" stroke-dasharray="5,2" d="M840,-519.7C840,-511.98 840,-502.71 840,-494.11"/>
<polygon fill="black" stroke="black" points="843.5,-494.1 840,-484.1 836.5,-494.1 843.5,-494.1"/>
</g>
<!-- 32 -->
<g id="node34" class="node">
<title>32</title>
<ellipse fill="none" stroke="black" cx="955" cy="-466" rx="46.59" ry="18"/>
<text text-anchor="middle" x="955" y="-462.3" font-family="Times,serif" font-size="14.00">Bodl (a)</text>
</g>
<!-- 5&#45;&gt;32 -->
<g id="edge32" class="edge">
<title>5&#45;&gt;32</title>
<path fill="none" stroke="black" stroke-dasharray="5,2" d="M864.11,-522.33C880.97,-512.06 903.71,-498.22 922.22,-486.95"/>
<polygon fill="black" stroke="black" points="924.2,-489.84 930.92,-481.65 920.56,-483.86 924.2,-489.84"/>
</g>
<!-- 37 -->
<g id="node39" class="node">
<title>37</title>
<ellipse fill="none" stroke="black" cx="1072" cy="-466" rx="52.79" ry="18"/>
<text text-anchor="middle" x="1072" y="-462.3" font-family="Times,serif" font-size="14.00">M111 (a)</text>
</g>
<!-- 5&#45;&gt;37 -->
<g id="edge37" class="edge">
<title>5&#45;&gt;37</title>
<path fill="none" stroke="black" stroke-dasharray="1,5" d="M876.51,-525.99C916.37,-513.96 980.36,-494.65 1024.2,-481.42"/>
<polygon fill="black" stroke="black" points="1025.22,-484.77 1033.78,-478.53 1023.19,-478.07 1025.22,-484.77"/>
</g>
<!-- 7 -->
<g id="node9" class="node">
<title>7</title>
<ellipse fill="none" stroke="black" cx="252" cy="-178" rx="50.09" ry="18"/>
<text text-anchor="middle" x="252" y="-174.3" font-family="Times,serif" font-size="14.00">V569 (b)</text>
</g>
<!-- 8 -->
<g id="node10" class="node">
<title>8</title>
<ellipse fill="none" stroke="black" cx="1795" cy="-394" rx="55.79" ry="18"/>
<text text-anchor="middle" x="1795" y="-390.3" font-family="Times,serif" font-size="14.00">V1639 (a)</text>
</g>
<!-- 10 -->
<g id="node12" class="node">
<title>10</title>
<ellipse fill="none" stroke="black" cx="1054" cy="-538" rx="52.79" ry="18"/>
<text text-anchor="middle" x="1054" y="-534.3" font-family="Times,serif" font-size="14.00">LaSM (a)</text>
</g>
<!-- 25 -->
<g id="node27" class="node">
<title>25</title>
<ellipse fill="none" stroke="black" cx="1187" cy="-466" rx="44.39" ry="18"/>
<text text-anchor="middle" x="1187" y="-462.3" font-family="Times,serif" font-size="14.00">B39 (a)</text>
</g>
<!-- 10&#45;&gt;25 -->
<g id="edge25" class="edge">
<title>10&#45;&gt;25</title>
<path fill="none" stroke="black" stroke-dasharray="5,2" d="M1081.56,-522.5C1101.93,-511.77 1129.83,-497.09 1151.81,-485.52"/>
<polygon fill="black" stroke="black" points="1153.62,-488.53 1160.84,-480.77 1150.36,-482.33 1153.62,-488.53"/>
</g>
<!-- 11 -->
<g id="node13" class="node">
<title>11</title>
<ellipse fill="none" stroke="black" cx="1683" cy="-466" rx="44.39" ry="18"/>
<text text-anchor="middle" x="1683" y="-462.3" font-family="Times,serif" font-size="14.00">S32 (a)</text>
</g>
<!-- 12 -->
<g id="node14" class="node">
<title>12</title>
<ellipse fill="none" stroke="black" cx="1795" cy="-466" rx="50.09" ry="18"/>
<text text-anchor="middle" x="1795" y="-462.3" font-family="Times,serif" font-size="14.00">V566 (a)</text>
</g>
<!-- 12&#45;&gt;8 -->
<g id="edge9" class="edge">
<title>12&#45;&gt;8</title>
<path fill="none" stroke="black" stroke-dasharray="1,5" d="M1795,-447.7C1795,-439.98 1795,-430.71 1795,-422.11"/>
<polygon fill="black" stroke="black" points="1798.5,-422.1 1795,-412.1 1791.5,-422.1 1798.5,-422.1"/>
</g>
<!-- 13 -->
<g id="node15" class="node">
<title>13</title>
<ellipse fill="none" stroke="black" cx="1181" cy="-538" rx="55.79" ry="18"/>
<text text-anchor="middle" x="1181" y="-534.3" font-family="Times,serif" font-size="14.00">V2036 (a)</text>
</g>
<!-- 15 -->
<g id="node17" class="node">
<title>15</title>
<ellipse fill="none" stroke="black" cx="1305" cy="-538" rx="50.09" ry="18"/>
<text text-anchor="middle" x="1305" y="-534.3" font-family="Times,serif" font-size="14.00">V560 (a)</text>
</g>
<!-- 18 -->
<g id="node20" class="node">
<title>18</title>
<ellipse fill="none" stroke="black" cx="1305" cy="-466" rx="55.79" ry="18"/>
<text text-anchor="middle" x="1305" y="-462.3" font-family="Times,serif" font-size="14.00">V1920 (a)</text>
</g>
<!-- 15&#45;&gt;18 -->
<g id="edge19" class="edge">
<title>15&#45;&gt;18</title>
<path fill="none" stroke="black" stroke-dasharray="5,2" d="M1305,-519.7C1305,-511.98 1305,-502.71 1305,-494.11"/>
<polygon fill="black" stroke="black" points="1308.5,-494.1 1305,-484.1 1301.5,-494.1 1308.5,-494.1"/>
</g>
<!-- 16 -->
<g id="node18" class="node">
<title>16</title>
<ellipse fill="none" stroke="black" cx="1426" cy="-538" rx="52.79" ry="18"/>
<text text-anchor="middle" x="1426" y="-534.3" font-family="Times,serif" font-size="14.00">M136 (a)</text>
</g>
<!-- 17 -->
<g id="node19" class="node">
<title>17</title>
<ellipse fill="none" stroke="black" cx="1907" cy="-466" rx="44.39" ry="18"/>
<text text-anchor="middle" x="1907" y="-462.3" font-family="Times,serif" font-size="14.00">P01 (a)</text>
</g>
<!-- 34 -->
<g id="node36" class="node">
<title>34</title>
<ellipse fill="none" stroke="black" cx="258" cy="-394" rx="50.09" ry="18"/>
<text text-anchor="middle" x="258" y="-390.3" font-family="Times,serif" font-size="14.00">V536 (e)</text>
</g>
<!-- 19&#45;&gt;34 -->
<g id="edge34" class="edge">
<title>19&#45;&gt;34</title>
<path fill="none" stroke="blue" stroke-dasharray="5,2" d="M258,-447.7C258,-439.98 258,-430.71 258,-422.11"/>
<polygon fill="blue" stroke="blue" points="261.5,-422.1 258,-412.1 254.5,-422.1 261.5,-422.1"/>
</g>
<!-- 36 -->
<g id="node38" class="node">
<title>36</title>
<ellipse fill="none" stroke="gray" stroke-dasharray="5,2" cx="362" cy="-394" rx="36" ry="18"/>
<text text-anchor="middle" x="362" y="-390.3" font-family="Times,serif" font-size="14.00">La2&#45;c</text>
</g>
<!-- 19&#45;&gt;36 -->
<g id="edge36" class="edge">
<title>19&#45;&gt;36</title>
<path fill="none" stroke="gray" stroke-width="2" d="M281.08,-449.46C296.33,-439.2 316.44,-425.66 332.8,-414.65"/>
<polygon fill="gray" stroke="gray" stroke-width="2" points="335.11,-417.32 341.45,-408.83 331.2,-411.51 335.11,-417.32"/>
</g>
<!-- 20 -->
<g id="node22" class="node">
<title>20</title>
<ellipse fill="none" stroke="black" cx="1365" cy="-611" rx="53.89" ry="18"/>
<text text-anchor="middle" x="1365" y="-607.3" font-family="Times,serif" font-size="14.00">aBase (a)</text>
</g>
<!-- 20&#45;&gt;0 -->
<g id="edge1" class="edge">
<title>20&#45;&gt;0</title>
<path fill="none" stroke="black" stroke-width="2" d="M1313.12,-606.06C1151.79,-593.79 659.57,-556.38 489.52,-543.45"/>
<polygon fill="black" stroke="black" stroke-width="2" points="489.74,-539.96 479.51,-542.69 489.21,-546.94 489.74,-539.96"/>
</g>
<!-- 20&#45;&gt;1 -->
<g id="edge2" class="edge">
<title>20&#45;&gt;1</title>
<path fill="none" stroke="black" d="M1311.48,-608.41C1208.25,-604.59 974.78,-592.37 782,-556 777.82,-555.21 773.5,-554.25 769.2,-553.2"/>
<polygon fill="black" stroke="black" points="769.81,-549.74 759.25,-550.6 768.04,-556.52 769.81,-549.74"/>
</g>
<!-- 20&#45;&gt;5 -->
<g id="edge6" class="edge">
<title>20&#45;&gt;5</title>
<path fill="none" stroke="black" stroke-dasharray="5,2" d="M1316.08,-603.38C1218.01,-590.12 997.96,-560.36 895.04,-546.44"/>
<polygon fill="black" stroke="black" points="895.24,-542.94 884.86,-545.07 894.3,-549.88 895.24,-542.94"/>
</g>
<!-- 20&#45;&gt;10 -->
<g id="edge11" class="edge">
<title>20&#45;&gt;10</title>
<path fill="none" stroke="black" d="M1319.85,-600.97C1269.83,-590.8 1186.88,-573.39 1116,-556 1111.85,-554.98 1107.56,-553.89 1103.26,-552.77"/>
<polygon fill="black" stroke="black" points="1103.84,-549.3 1093.27,-550.11 1102.04,-556.06 1103.84,-549.3"/>
</g>
<!-- 20&#45;&gt;13 -->
<g id="edge14" class="edge">
<title>20&#45;&gt;13</title>
<path fill="none" stroke="black" d="M1330.82,-596.81C1300.97,-585.29 1257.45,-568.5 1224.99,-555.98"/>
<polygon fill="black" stroke="black" points="1225.9,-552.57 1215.31,-552.24 1223.38,-559.1 1225.9,-552.57"/>
</g>
<!-- 20&#45;&gt;15 -->
<g id="edge16" class="edge">
<title>20&#45;&gt;15</title>
<path fill="none" stroke="black" stroke-width="2" d="M1351.08,-593.53C1343.44,-584.48 1333.81,-573.09 1325.33,-563.06"/>
<polygon fill="black" stroke="black" stroke-width="2" points="1327.97,-560.76 1318.84,-555.38 1322.62,-565.28 1327.97,-560.76"/>
</g>
<!-- 20&#45;&gt;16 -->
<g id="edge17" class="edge">
<title>20&#45;&gt;16</title>
<path fill="none" stroke="black" stroke-width="2" d="M1379.15,-593.53C1386.92,-584.48 1396.71,-573.09 1405.33,-563.06"/>
<polygon fill="black" stroke="black" stroke-width="2" points="1408.07,-565.24 1411.93,-555.38 1402.76,-560.68 1408.07,-565.24"/>
</g>
<!-- 22 -->
<g id="node24" class="node">
<title>22</title>
<ellipse fill="none" stroke="black" cx="1541" cy="-538" rx="44.69" ry="18"/>
<text text-anchor="middle" x="1541" y="-534.3" font-family="Times,serif" font-size="14.00">Nan (a)</text>
</g>
<!-- 20&#45;&gt;22 -->
<g id="edge22" class="edge">
<title>20&#45;&gt;22</title>
<path fill="none" stroke="black" d="M1398.1,-596.65C1427.22,-584.9 1469.67,-567.77 1500.74,-555.24"/>
<polygon fill="black" stroke="black" points="1502.44,-558.33 1510.4,-551.34 1499.82,-551.84 1502.44,-558.33"/>
</g>
<!-- 29 -->
<g id="node31" class="node">
<title>29</title>
<ellipse fill="none" stroke="black" cx="1647" cy="-538" rx="42.79" ry="18"/>
<text text-anchor="middle" x="1647" y="-534.3" font-family="Times,serif" font-size="14.00">La2 (a)</text>
</g>
<!-- 20&#45;&gt;29 -->
<g id="edge29" class="edge">
<title>20&#45;&gt;29</title>
<path fill="none" stroke="black" stroke-width="2" d="M1409.38,-600.76C1455.91,-590.79 1531.02,-573.93 1595,-556 1598.3,-555.07 1601.7,-554.07 1605.12,-553.03"/>
<polygon fill="black" stroke="black" stroke-width="2" points="1606.18,-556.37 1614.68,-550.04 1604.09,-549.69 1606.18,-556.37"/>
</g>
<!-- 33 -->
<g id="node35" class="node">
<title>33</title>
<ellipse fill="none" stroke="black" cx="1752" cy="-538" rx="44.39" ry="18"/>
<text text-anchor="middle" x="1752" y="-534.3" font-family="Times,serif" font-size="14.00">A25 (a)</text>
</g>
<!-- 20&#45;&gt;33 -->
<g id="edge33" class="edge">
<title>20&#45;&gt;33</title>
<path fill="none" stroke="black" stroke-dasharray="5,2" d="M1415.26,-604.26C1481.03,-596.21 1599.61,-579.83 1699,-556 1702.44,-555.18 1705.98,-554.24 1709.52,-553.24"/>
<polygon fill="black" stroke="black" points="1710.83,-556.5 1719.42,-550.3 1708.84,-549.79 1710.83,-556.5"/>
</g>
<!-- 38 -->
<g id="node40" class="node">
<title>38</title>
<ellipse fill="none" stroke="gray" stroke-dasharray="5,2" cx="1864" cy="-538" rx="50.09" ry="18"/>
<text text-anchor="middle" x="1864" y="-534.3" font-family="Times,serif" font-size="14.00">Savile&#45;Η</text>
</g>
<!-- 20&#45;&gt;38 -->
<g id="edge38" class="edge">
<title>20&#45;&gt;38</title>
<path fill="none" stroke="gray" stroke-width="2" d="M1417.25,-606.28C1500.1,-599.78 1666.44,-584.28 1805,-556 1809.17,-555.15 1813.48,-554.15 1817.77,-553.07"/>
<polygon fill="gray" stroke="gray" stroke-width="2" points="1818.95,-556.38 1827.72,-550.43 1817.15,-549.61 1818.95,-556.38"/>
</g>
<!-- 42 -->
<g id="node44" class="node">
<title>42</title>
<ellipse fill="none" stroke="black" cx="1982" cy="-538" rx="50.09" ry="18"/>
<text text-anchor="middle" x="1982" y="-534.3" font-family="Times,serif" font-size="14.00">S249 (a)</text>
</g>
<!-- 20&#45;&gt;42 -->
<g id="edge42" class="edge">
<title>20&#45;&gt;42</title>
<path fill="none" stroke="black" d="M1418.55,-608.09C1518.5,-603.82 1739.92,-590.93 1923,-556 1927.18,-555.2 1931.49,-554.24 1935.8,-553.18"/>
<polygon fill="black" stroke="black" points="1936.96,-556.5 1945.74,-550.58 1935.18,-549.73 1936.96,-556.5"/>
</g>
<!-- 21&#45;&gt;7 -->
<g id="edge8" class="edge">
<title>21&#45;&gt;7</title>
<path fill="none" stroke="black" stroke-dasharray="5,2" d="M322.03,-233.46C309.76,-223.93 293.86,-211.56 280.31,-201.02"/>
<polygon fill="black" stroke="black" points="282.27,-198.11 272.23,-194.73 277.97,-203.64 282.27,-198.11"/>
</g>
<!-- 30 -->
<g id="node32" class="node">
<title>30</title>
<ellipse fill="none" stroke="black" cx="370" cy="-178" rx="50.09" ry="18"/>
<text text-anchor="middle" x="370" y="-174.3" font-family="Times,serif" font-size="14.00">Marc (b)</text>
</g>
<!-- 21&#45;&gt;30 -->
<g id="edge30" class="edge">
<title>21&#45;&gt;30</title>
<path fill="none" stroke="black" stroke-dasharray="1,5" d="M348.78,-232.05C351.93,-224.18 355.75,-214.62 359.28,-205.79"/>
<polygon fill="black" stroke="black" points="362.63,-206.86 363.09,-196.28 356.13,-204.26 362.63,-206.86"/>
</g>
<!-- 39 -->
<g id="node41" class="node">
<title>39</title>
<ellipse fill="none" stroke="black" cx="491" cy="-178" rx="53.09" ry="18"/>
<text text-anchor="middle" x="491" y="-174.3" font-family="Times,serif" font-size="14.00">M118 (b)</text>
</g>
<!-- 21&#45;&gt;39 -->
<g id="edge39" class="edge">
<title>21&#45;&gt;39</title>
<path fill="none" stroke="black" stroke-dasharray="5,2" d="M370.73,-235.5C393.75,-224.69 426.29,-209.4 451.72,-197.45"/>
<polygon fill="black" stroke="black" points="453.52,-200.48 461.08,-193.06 450.54,-194.14 453.52,-200.48"/>
</g>
<!-- 26 -->
<g id="node28" class="node">
<title>26</title>
<ellipse fill="none" stroke="black" cx="1435" cy="-466" rx="55.79" ry="18"/>
<text text-anchor="middle" x="1435" y="-462.3" font-family="Times,serif" font-size="14.00">V1897 (a)</text>
</g>
<!-- 22&#45;&gt;26 -->
<g id="edge26" class="edge">
<title>22&#45;&gt;26</title>
<path fill="none" stroke="black" stroke-dasharray="1,5" d="M1518.78,-522.33C1503.68,-512.36 1483.49,-499.02 1466.71,-487.94"/>
<polygon fill="black" stroke="black" points="1468.57,-484.97 1458.29,-482.38 1464.71,-490.81 1468.57,-484.97"/>
</g>
<!-- 27 -->
<g id="node29" class="node">
<title>27</title>
<ellipse fill="none" stroke="black" cx="1565" cy="-466" rx="55.79" ry="18"/>
<text text-anchor="middle" x="1565" y="-462.3" font-family="Times,serif" font-size="14.00">V2250 (a)</text>
</g>
<!-- 22&#45;&gt;27 -->
<g id="edge27" class="edge">
<title>22&#45;&gt;27</title>
<path fill="none" stroke="black" stroke-dasharray="5,2" d="M1546.81,-520.05C1549.51,-512.18 1552.79,-502.62 1555.81,-493.79"/>
<polygon fill="black" stroke="black" points="1559.14,-494.87 1559.08,-484.28 1552.52,-492.6 1559.14,-494.87"/>
</g>
<!-- 35 -->
<g id="node37" class="node">
<title>35</title>
<ellipse fill="none" stroke="black" cx="1384" cy="-394" rx="41.69" ry="18"/>
<text text-anchor="middle" x="1384" y="-390.3" font-family="Times,serif" font-size="14.00">Est (a)</text>
</g>
<!-- 26&#45;&gt;35 -->
<g id="edge35" class="edge">
<title>26&#45;&gt;35</title>
<path fill="none" stroke="black" stroke-dasharray="1,5" d="M1422.91,-448.41C1416.69,-439.87 1408.97,-429.28 1402.06,-419.79"/>
<polygon fill="black" stroke="black" points="1404.72,-417.49 1396,-411.47 1399.06,-421.61 1404.72,-417.49"/>
</g>
<!-- 40 -->
<g id="node42" class="node">
<title>40</title>
<ellipse fill="none" stroke="black" cx="1486" cy="-394" rx="42.79" ry="18"/>
<text text-anchor="middle" x="1486" y="-390.3" font-family="Times,serif" font-size="14.00">Bas (a)</text>
</g>
<!-- 26&#45;&gt;40 -->
<g id="edge40" class="edge">
<title>26&#45;&gt;40</title>
<path fill="none" stroke="black" d="M1447.09,-448.41C1453.31,-439.87 1461.03,-429.28 1467.94,-419.79"/>
<polygon fill="black" stroke="black" points="1470.94,-421.61 1474,-411.47 1465.28,-417.49 1470.94,-421.61"/>
</g>
<!-- 28 -->
<g id="node30" class="node">
<title>28</title>
<ellipse fill="none" stroke="gray" stroke-dasharray="5,2" cx="491" cy="-106" rx="28.7" ry="18"/>
<text text-anchor="middle" x="491" y="-102.3" font-family="Times,serif" font-size="14.00">P18</text>
</g>
<!-- 30&#45;&gt;4 -->
<g id="edge5" class="edge">
<title>30&#45;&gt;4</title>
<path fill="none" stroke="blue" stroke-dasharray="1,5" d="M370,-159.7C370,-151.98 370,-142.71 370,-134.11"/>
<polygon fill="blue" stroke="blue" points="373.5,-134.1 370,-124.1 366.5,-134.1 373.5,-134.1"/>
</g>
<!-- 31 -->
<g id="node33" class="node">
<title>31</title>
<ellipse fill="none" stroke="black" cx="2009" cy="-466" rx="40.09" ry="18"/>
<text text-anchor="middle" x="2009" y="-462.3" font-family="Times,serif" font-size="14.00">Pal (a)</text>
</g>
<!-- 33&#45;&gt;11 -->
<g id="edge12" class="edge">
<title>33&#45;&gt;11</title>
<path fill="none" stroke="black" stroke-dasharray="5,2" d="M1736.34,-521.12C1727.47,-512.12 1716.2,-500.68 1706.31,-490.65"/>
<polygon fill="black" stroke="black" points="1708.59,-487.97 1699.07,-483.31 1703.6,-492.89 1708.59,-487.97"/>
</g>
<!-- 33&#45;&gt;12 -->
<g id="edge13" class="edge">
<title>33&#45;&gt;12</title>
<path fill="none" stroke="black" stroke-dasharray="5,2" d="M1762.19,-520.41C1767.31,-512.08 1773.62,-501.8 1779.34,-492.49"/>
<polygon fill="black" stroke="black" points="1782.33,-494.31 1784.58,-483.96 1776.37,-490.65 1782.33,-494.31"/>
</g>
<!-- 33&#45;&gt;17 -->
<g id="edge18" class="edge">
<title>33&#45;&gt;17</title>
<path fill="none" stroke="black" stroke-dasharray="5,2" d="M1780.43,-524.16C1805.37,-512.9 1841.82,-496.43 1869.21,-484.07"/>
<polygon fill="black" stroke="black" points="1870.82,-487.18 1878.49,-479.88 1867.93,-480.8 1870.82,-487.18"/>
</g>
<!-- 33&#45;&gt;31 -->
<g id="edge31" class="edge">
<title>33&#45;&gt;31</title>
<path fill="none" stroke="black" stroke-dasharray="5,2" d="M1784.95,-525.97C1791.56,-523.89 1798.48,-521.8 1805,-520 1873.17,-501.18 1892.05,-503.62 1960,-484 1962.98,-483.14 1966.04,-482.21 1969.1,-481.23"/>
<polygon fill="black" stroke="black" points="1970.44,-484.48 1978.84,-478.02 1968.25,-477.83 1970.44,-484.48"/>
</g>
<!-- 34&#45;&gt;2 -->
<g id="edge3" class="edge">
<title>34&#45;&gt;2</title>
<path fill="none" stroke="blue" stroke-dasharray="1,5" d="M271.27,-376.41C278.18,-367.78 286.75,-357.06 294.4,-347.5"/>
<polygon fill="blue" stroke="blue" points="297.31,-349.47 300.82,-339.47 291.84,-345.09 297.31,-349.47"/>
</g>
<!-- 41 -->
<g id="node43" class="node">
<title>41</title>
<ellipse fill="none" stroke="black" cx="1072" cy="-394" rx="50.09" ry="18"/>
<text text-anchor="middle" x="1072" y="-390.3" font-family="Times,serif" font-size="14.00">A336 (a)</text>
</g>
<!-- 37&#45;&gt;41 -->
<g id="edge41" class="edge">
<title>37&#45;&gt;41</title>
<path fill="none" stroke="black" stroke-dasharray="5,2" d="M1072,-447.7C1072,-439.98 1072,-430.71 1072,-422.11"/>
<polygon fill="black" stroke="black" points="1075.5,-422.1 1072,-412.1 1068.5,-422.1 1075.5,-422.1"/>
</g>
<!-- 39&#45;&gt;28 -->
<g id="edge28" class="edge">
<title>39&#45;&gt;28</title>
<path fill="none" stroke="gray" stroke-dasharray="5,2" d="M491,-159.7C491,-151.98 491,-142.71 491,-134.11"/>
<polygon fill="gray" stroke="gray" points="494.5,-134.1 491,-124.1 487.5,-134.1 494.5,-134.1"/>
</g>
</g>
</svg>
