<?xml version="1.0" encoding="UTF-8" standalone="no"?>
<!DOCTYPE svg PUBLIC "-//W3C//DTD SVG 1.1//EN"
 "http://www.w3.org/Graphics/SVG/1.1/DTD/svg11.dtd">
<!-- Generated by graphviz version 2.43.0 (0)
 -->
<!-- Title: textual_flow Pages: 1 -->
<svg width="2314pt" height="582pt"
 viewBox="0.00 0.00 2314.00 582.00" xmlns="http://www.w3.org/2000/svg" xmlns:xlink="http://www.w3.org/1999/xlink">
<g id="graph0" class="graph" transform="scale(1 1) rotate(0) translate(4 578)">
<title>textual_flow</title>
<polygon fill="white" stroke="transparent" points="-4,4 -4,-578 2310,-578 2310,4 -4,4"/>
<g id="clust1" class="cluster">
<title>cluster_legend</title>
<polygon fill="none" stroke="black" points="8,-512 8,-566 178,-566 178,-512 8,-512"/>
</g>
<g id="clust2" class="cluster">
<title>cluster_plot</title>
</g>
<!-- label -->
<g id="node1" class="node">
<title>label</title>
<text text-anchor="middle" x="93" y="-542.8" font-family="Times,serif" font-size="14.00">adstag1.3.12U8&#45;10</text>
<text text-anchor="middle" x="93" y="-527.8" font-family="Times,serif" font-size="14.00">Con = 10</text>
</g>
<!-- 0 -->
<g id="node2" class="node">
<title>0</title>
<ellipse fill="none" stroke="black" cx="1289" cy="-394" rx="52.79" ry="18"/>
<text text-anchor="middle" x="1289" y="-390.3" font-family="Times,serif" font-size="14.00">M111 (a)</text>
</g>
<!-- 18 -->
<g id="node20" class="node">
<title>18</title>
<ellipse fill="none" stroke="black" cx="1289" cy="-322" rx="50.09" ry="18"/>
<text text-anchor="middle" x="1289" y="-318.3" font-family="Times,serif" font-size="14.00">A336 (a)</text>
</g>
<!-- 0&#45;&gt;18 -->
<g id="edge19" class="edge">
<title>0&#45;&gt;18</title>
<path fill="none" stroke="black" stroke-dasharray="5,2" d="M1289,-375.7C1289,-367.98 1289,-358.71 1289,-350.11"/>
<polygon fill="black" stroke="black" points="1292.5,-350.1 1289,-340.1 1285.5,-350.1 1292.5,-350.1"/>
</g>
<!-- 1 -->
<g id="node3" class="node">
<title>1</title>
<ellipse fill="none" stroke="black" cx="344" cy="-178" rx="49.29" ry="18"/>
<text text-anchor="middle" x="344" y="-174.3" font-family="Times,serif" font-size="14.00">Marc (c)</text>
</g>
<!-- 28 -->
<g id="node30" class="node">
<title>28</title>
<ellipse fill="none" stroke="black" cx="344" cy="-106" rx="46.29" ry="18"/>
<text text-anchor="middle" x="344" y="-102.3" font-family="Times,serif" font-size="14.00">Mon (c)</text>
</g>
<!-- 1&#45;&gt;28 -->
<g id="edge29" class="edge">
<title>1&#45;&gt;28</title>
<path fill="none" stroke="black" stroke-dasharray="1,5" d="M344,-159.7C344,-151.98 344,-142.71 344,-134.11"/>
<polygon fill="black" stroke="black" points="347.5,-134.1 344,-124.1 340.5,-134.1 347.5,-134.1"/>
</g>
<!-- 2 -->
<g id="node4" class="node">
<title>2</title>
<ellipse fill="none" stroke="black" cx="1410" cy="-394" rx="50.09" ry="18"/>
<text text-anchor="middle" x="1410" y="-390.3" font-family="Times,serif" font-size="14.00">A116 (a)</text>
</g>
<!-- 3 -->
<g id="node5" class="node">
<title>3</title>
<ellipse fill="none" stroke="black" cx="1528" cy="-394" rx="50.09" ry="18"/>
<text text-anchor="middle" x="1528" y="-390.3" font-family="Times,serif" font-size="14.00">V565 (a)</text>
</g>
<!-- 4 -->
<g id="node6" class="node">
<title>4</title>
<ellipse fill="none" stroke="black" cx="344" cy="-34" rx="40.09" ry="18"/>
<text text-anchor="middle" x="344" y="-30.3" font-family="Times,serif" font-size="14.00">Sin (c)</text>
</g>
<!-- 5 -->
<g id="node7" class="node">
<title>5</title>
<ellipse fill="none" stroke="black" cx="251" cy="-466" rx="51.99" ry="18"/>
<text text-anchor="middle" x="251" y="-462.3" font-family="Times,serif" font-size="14.00">LaSM (c)</text>
</g>
<!-- 20 -->
<g id="node22" class="node">
<title>20</title>
<ellipse fill="none" stroke="black" cx="238" cy="-394" rx="44.39" ry="18"/>
<text text-anchor="middle" x="238" y="-390.3" font-family="Times,serif" font-size="14.00">B39 (c)</text>
</g>
<!-- 5&#45;&gt;20 -->
<g id="edge21" class="edge">
<title>5&#45;&gt;20</title>
<path fill="none" stroke="black" stroke-dasharray="5,2" d="M247.79,-447.7C246.35,-439.98 244.63,-430.71 243.04,-422.11"/>
<polygon fill="black" stroke="black" points="246.44,-421.3 241.18,-412.1 239.56,-422.58 246.44,-421.3"/>
</g>
<!-- 6 -->
<g id="node8" class="node">
<title>6</title>
<ellipse fill="none" stroke="black" cx="1652" cy="-394" rx="55.79" ry="18"/>
<text text-anchor="middle" x="1652" y="-390.3" font-family="Times,serif" font-size="14.00">V2036 (a)</text>
</g>
<!-- 7 -->
<g id="node9" class="node">
<title>7</title>
<ellipse fill="none" stroke="black" cx="1770" cy="-394" rx="44.39" ry="18"/>
<text text-anchor="middle" x="1770" y="-390.3" font-family="Times,serif" font-size="14.00">P74 (a)</text>
</g>
<!-- 8 -->
<g id="node10" class="node">
<title>8</title>
<ellipse fill="none" stroke="black" cx="480" cy="-394" rx="50.09" ry="18"/>
<text text-anchor="middle" x="480" y="-390.3" font-family="Times,serif" font-size="14.00">V566 (a)</text>
</g>
<!-- 12 -->
<g id="node14" class="node">
<title>12</title>
<ellipse fill="none" stroke="black" cx="584" cy="-322" rx="55.79" ry="18"/>
<text text-anchor="middle" x="584" y="-318.3" font-family="Times,serif" font-size="14.00">V1639 (a)</text>
</g>
<!-- 8&#45;&gt;12 -->
<g id="edge13" class="edge">
<title>8&#45;&gt;12</title>
<path fill="none" stroke="black" stroke-dasharray="1,5" d="M502.57,-377.81C517.08,-368.04 536.16,-355.2 552.21,-344.4"/>
<polygon fill="black" stroke="black" points="554.42,-347.13 560.76,-338.64 550.51,-341.32 554.42,-347.13"/>
</g>
<!-- 9 -->
<g id="node11" class="node">
<title>9</title>
<ellipse fill="none" stroke="gray" stroke-dasharray="5,2" cx="241" cy="-322" rx="36" ry="18"/>
<text text-anchor="middle" x="241" y="-318.3" font-family="Times,serif" font-size="14.00">La2&#45;c</text>
</g>
<!-- 10 -->
<g id="node12" class="node">
<title>10</title>
<ellipse fill="none" stroke="black" cx="381" cy="-466" rx="50.09" ry="18"/>
<text text-anchor="middle" x="381" y="-462.3" font-family="Times,serif" font-size="14.00">Neap (a)</text>
</g>
<!-- 24 -->
<g id="node26" class="node">
<title>24</title>
<ellipse fill="none" stroke="black" cx="356" cy="-394" rx="55.79" ry="18"/>
<text text-anchor="middle" x="356" y="-390.3" font-family="Times,serif" font-size="14.00">V1629 (a)</text>
</g>
<!-- 10&#45;&gt;24 -->
<g id="edge25" class="edge">
<title>10&#45;&gt;24</title>
<path fill="none" stroke="black" stroke-dasharray="1,5" d="M374.95,-448.05C372.13,-440.18 368.72,-430.62 365.57,-421.79"/>
<polygon fill="black" stroke="black" points="368.83,-420.52 362.17,-412.28 362.24,-422.87 368.83,-420.52"/>
</g>
<!-- 11 -->
<g id="node13" class="node">
<title>11</title>
<ellipse fill="none" stroke="black" cx="461" cy="-250" rx="46.29" ry="18"/>
<text text-anchor="middle" x="461" y="-246.3" font-family="Times,serif" font-size="14.00">Taur (c)</text>
</g>
<!-- 11&#45;&gt;1 -->
<g id="edge2" class="edge">
<title>11&#45;&gt;1</title>
<path fill="none" stroke="black" stroke-dasharray="1,5" d="M436.76,-234.5C419.54,-224.19 396.21,-210.23 377.25,-198.89"/>
<polygon fill="black" stroke="black" points="378.99,-195.86 368.61,-193.73 375.4,-201.86 378.99,-195.86"/>
</g>
<!-- 22 -->
<g id="node24" class="node">
<title>22</title>
<ellipse fill="none" stroke="black" cx="461" cy="-178" rx="49.29" ry="18"/>
<text text-anchor="middle" x="461" y="-174.3" font-family="Times,serif" font-size="14.00">V569 (c)</text>
</g>
<!-- 11&#45;&gt;22 -->
<g id="edge23" class="edge">
<title>11&#45;&gt;22</title>
<path fill="none" stroke="black" stroke-dasharray="5,2" d="M461,-231.7C461,-223.98 461,-214.71 461,-206.11"/>
<polygon fill="black" stroke="black" points="464.5,-206.1 461,-196.1 457.5,-206.1 464.5,-206.1"/>
</g>
<!-- 29 -->
<g id="node31" class="node">
<title>29</title>
<ellipse fill="none" stroke="black" cx="580" cy="-178" rx="51.99" ry="18"/>
<text text-anchor="middle" x="580" y="-174.3" font-family="Times,serif" font-size="14.00">M118 (c)</text>
</g>
<!-- 11&#45;&gt;29 -->
<g id="edge30" class="edge">
<title>11&#45;&gt;29</title>
<path fill="none" stroke="black" stroke-dasharray="5,2" d="M485.37,-234.67C502.86,-224.38 526.67,-210.37 546.02,-198.99"/>
<polygon fill="black" stroke="black" points="548,-201.88 554.84,-193.8 544.45,-195.85 548,-201.88"/>
</g>
<!-- 13 -->
<g id="node15" class="node">
<title>13</title>
<ellipse fill="none" stroke="black" cx="592" cy="-394" rx="44.39" ry="18"/>
<text text-anchor="middle" x="592" y="-390.3" font-family="Times,serif" font-size="14.00">S32 (a)</text>
</g>
<!-- 14 -->
<g id="node16" class="node">
<title>14</title>
<ellipse fill="none" stroke="black" cx="497" cy="-466" rx="42.79" ry="18"/>
<text text-anchor="middle" x="497" y="-462.3" font-family="Times,serif" font-size="14.00">La2 (a)</text>
</g>
<!-- 15 -->
<g id="node17" class="node">
<title>15</title>
<ellipse fill="none" stroke="gray" stroke-dasharray="5,2" cx="592" cy="-466" rx="34.39" ry="18"/>
<text text-anchor="middle" x="592" y="-462.3" font-family="Times,serif" font-size="14.00">S249</text>
</g>
<!-- 16 -->
<g id="node18" class="node">
<title>16</title>
<ellipse fill="none" stroke="black" cx="697" cy="-466" rx="52.79" ry="18"/>
<text text-anchor="middle" x="697" y="-462.3" font-family="Times,serif" font-size="14.00">M136 (a)</text>
</g>
<!-- 17 -->
<g id="node19" class="node">
<title>17</title>
<ellipse fill="none" stroke="black" cx="1881" cy="-394" rx="48.99" ry="18"/>
<text text-anchor="middle" x="1881" y="-390.3" font-family="Times,serif" font-size="14.00">La35 (a)</text>
</g>
<!-- 19 -->
<g id="node21" class="node">
<title>19</title>
<ellipse fill="none" stroke="black" cx="1998" cy="-394" rx="50.09" ry="18"/>
<text text-anchor="middle" x="1998" y="-390.3" font-family="Times,serif" font-size="14.00">V571 (a)</text>
</g>
<!-- 21 -->
<g id="node23" class="node">
<title>21</title>
<ellipse fill="none" stroke="black" cx="812" cy="-466" rx="44.39" ry="18"/>
<text text-anchor="middle" x="812" y="-462.3" font-family="Times,serif" font-size="14.00">A25 (a)</text>
</g>
<!-- 21&#45;&gt;8 -->
<g id="edge9" class="edge">
<title>21&#45;&gt;8</title>
<path fill="none" stroke="black" stroke-dasharray="5,2" d="M779.42,-453.71C772.72,-451.63 765.67,-449.61 759,-448 662.67,-424.81 635.66,-433.75 539,-412 534.91,-411.08 530.67,-410.04 526.45,-408.94"/>
<polygon fill="black" stroke="black" points="527.22,-405.52 516.65,-406.29 525.39,-412.28 527.22,-405.52"/>
</g>
<!-- 21&#45;&gt;13 -->
<g id="edge14" class="edge">
<title>21&#45;&gt;13</title>
<path fill="none" stroke="black" stroke-dasharray="5,2" d="M778.36,-454.19C771.94,-452.13 765.26,-449.99 759,-448 708.37,-431.89 695.63,-428.11 645,-412 641.87,-411 638.64,-409.97 635.38,-408.93"/>
<polygon fill="black" stroke="black" points="636.23,-405.53 625.64,-405.81 634.1,-412.2 636.23,-405.53"/>
</g>
<!-- 34 -->
<g id="node36" class="node">
<title>34</title>
<ellipse fill="none" stroke="black" cx="704" cy="-394" rx="50.09" ry="18"/>
<text text-anchor="middle" x="704" y="-390.3" font-family="Times,serif" font-size="14.00">Patm (a)</text>
</g>
<!-- 21&#45;&gt;34 -->
<g id="edge35" class="edge">
<title>21&#45;&gt;34</title>
<path fill="none" stroke="black" stroke-dasharray="1,5" d="M789.36,-450.33C773.87,-440.29 753.12,-426.84 735.96,-415.71"/>
<polygon fill="black" stroke="black" points="737.65,-412.64 727.36,-410.14 733.84,-418.51 737.65,-412.64"/>
</g>
<!-- 36 -->
<g id="node38" class="node">
<title>36</title>
<ellipse fill="none" stroke="black" cx="812" cy="-394" rx="40.09" ry="18"/>
<text text-anchor="middle" x="812" y="-390.3" font-family="Times,serif" font-size="14.00">Pal (a)</text>
</g>
<!-- 21&#45;&gt;36 -->
<g id="edge37" class="edge">
<title>21&#45;&gt;36</title>
<path fill="none" stroke="black" stroke-dasharray="5,2" d="M812,-447.7C812,-439.98 812,-430.71 812,-422.11"/>
<polygon fill="black" stroke="black" points="815.5,-422.1 812,-412.1 808.5,-422.1 815.5,-422.1"/>
</g>
<!-- 37 -->
<g id="node39" class="node">
<title>37</title>
<ellipse fill="none" stroke="black" cx="914" cy="-394" rx="44.39" ry="18"/>
<text text-anchor="middle" x="914" y="-390.3" font-family="Times,serif" font-size="14.00">P01 (a)</text>
</g>
<!-- 21&#45;&gt;37 -->
<g id="edge38" class="edge">
<title>21&#45;&gt;37</title>
<path fill="none" stroke="black" stroke-dasharray="5,2" d="M833.63,-450.15C848.24,-440.13 867.72,-426.76 883.84,-415.7"/>
<polygon fill="black" stroke="black" points="886.13,-418.37 892.4,-409.82 882.17,-412.6 886.13,-418.37"/>
</g>
<!-- 23 -->
<g id="node25" class="node">
<title>23</title>
<ellipse fill="none" stroke="black" cx="1032" cy="-466" rx="44.69" ry="18"/>
<text text-anchor="middle" x="1032" y="-462.3" font-family="Times,serif" font-size="14.00">Nan (a)</text>
</g>
<!-- 25 -->
<g id="node27" class="node">
<title>25</title>
<ellipse fill="none" stroke="black" cx="1032" cy="-394" rx="55.79" ry="18"/>
<text text-anchor="middle" x="1032" y="-390.3" font-family="Times,serif" font-size="14.00">V2250 (a)</text>
</g>
<!-- 23&#45;&gt;25 -->
<g id="edge26" class="edge">
<title>23&#45;&gt;25</title>
<path fill="none" stroke="black" stroke-dasharray="5,2" d="M1032,-447.7C1032,-439.98 1032,-430.71 1032,-422.11"/>
<polygon fill="black" stroke="black" points="1035.5,-422.1 1032,-412.1 1028.5,-422.1 1035.5,-422.1"/>
</g>
<!-- 42 -->
<g id="node44" class="node">
<title>42</title>
<ellipse fill="none" stroke="black" cx="1162" cy="-394" rx="55.79" ry="18"/>
<text text-anchor="middle" x="1162" y="-390.3" font-family="Times,serif" font-size="14.00">V1897 (a)</text>
</g>
<!-- 23&#45;&gt;42 -->
<g id="edge42" class="edge">
<title>23&#45;&gt;42</title>
<path fill="none" stroke="black" stroke-dasharray="1,5" d="M1057.68,-451.17C1077.11,-440.71 1104.03,-426.21 1125.67,-414.56"/>
<polygon fill="black" stroke="black" points="1127.43,-417.59 1134.57,-409.77 1124.11,-411.43 1127.43,-417.59"/>
</g>
<!-- 24&#45;&gt;9 -->
<g id="edge10" class="edge">
<title>24&#45;&gt;9</title>
<path fill="none" stroke="gray" stroke-width="2" d="M331.05,-377.81C313.56,-367.17 290.09,-352.88 271.49,-341.56"/>
<polygon fill="gray" stroke="gray" stroke-width="2" points="273.17,-338.48 262.8,-336.27 269.53,-344.46 273.17,-338.48"/>
</g>
<!-- 32 -->
<g id="node34" class="node">
<title>32</title>
<ellipse fill="none" stroke="black" cx="344" cy="-322" rx="49.29" ry="18"/>
<text text-anchor="middle" x="344" y="-318.3" font-family="Times,serif" font-size="14.00">V536 (c)</text>
</g>
<!-- 24&#45;&gt;32 -->
<g id="edge33" class="edge">
<title>24&#45;&gt;32</title>
<path fill="none" stroke="blue" stroke-dasharray="5,2" d="M353.03,-375.7C351.71,-367.98 350.12,-358.71 348.65,-350.11"/>
<polygon fill="blue" stroke="blue" points="352.07,-349.37 346.93,-340.1 345.17,-350.55 352.07,-349.37"/>
</g>
<!-- 38 -->
<g id="node40" class="node">
<title>38</title>
<ellipse fill="none" stroke="black" cx="461" cy="-322" rx="49.29" ry="18"/>
<text text-anchor="middle" x="461" y="-318.3" font-family="Times,serif" font-size="14.00">V568 (c)</text>
</g>
<!-- 24&#45;&gt;38 -->
<g id="edge39" class="edge">
<title>24&#45;&gt;38</title>
<path fill="none" stroke="blue" stroke-dasharray="5,2" d="M379.3,-377.46C394.09,-367.61 413.4,-354.73 429.53,-343.98"/>
<polygon fill="blue" stroke="blue" points="431.74,-346.71 438.12,-338.25 427.86,-340.89 431.74,-346.71"/>
</g>
<!-- 26 -->
<g id="node28" class="node">
<title>26</title>
<ellipse fill="none" stroke="black" cx="1590" cy="-466" rx="48.99" ry="18"/>
<text text-anchor="middle" x="1590" y="-462.3" font-family="Times,serif" font-size="14.00">La22 (a)</text>
</g>
<!-- 26&#45;&gt;0 -->
<g id="edge1" class="edge">
<title>26&#45;&gt;0</title>
<path fill="none" stroke="black" stroke-dasharray="1,5" d="M1548.41,-456.43C1500.61,-446.43 1419.89,-429.07 1351,-412 1346.86,-410.97 1342.57,-409.87 1338.27,-408.75"/>
<polygon fill="black" stroke="black" points="1338.85,-405.28 1328.28,-406.09 1337.04,-412.04 1338.85,-405.28"/>
</g>
<!-- 26&#45;&gt;2 -->
<g id="edge3" class="edge">
<title>26&#45;&gt;2</title>
<path fill="none" stroke="black" stroke-dasharray="5,2" d="M1557.4,-452.32C1527.93,-440.86 1484.36,-423.92 1452.23,-411.42"/>
<polygon fill="black" stroke="black" points="1453.25,-408.06 1442.66,-407.7 1450.71,-414.59 1453.25,-408.06"/>
</g>
<!-- 26&#45;&gt;3 -->
<g id="edge4" class="edge">
<title>26&#45;&gt;3</title>
<path fill="none" stroke="black" stroke-dasharray="5,2" d="M1575.62,-448.76C1567.83,-439.97 1558.05,-428.93 1549.38,-419.14"/>
<polygon fill="black" stroke="black" points="1551.98,-416.8 1542.73,-411.63 1546.74,-421.44 1551.98,-416.8"/>
</g>
<!-- 26&#45;&gt;6 -->
<g id="edge7" class="edge">
<title>26&#45;&gt;6</title>
<path fill="none" stroke="black" stroke-dasharray="5,2" d="M1604.38,-448.76C1612.17,-439.97 1621.95,-428.93 1630.62,-419.14"/>
<polygon fill="black" stroke="black" points="1633.26,-421.44 1637.27,-411.63 1628.02,-416.8 1633.26,-421.44"/>
</g>
<!-- 26&#45;&gt;7 -->
<g id="edge8" class="edge">
<title>26&#45;&gt;7</title>
<path fill="none" stroke="black" stroke-dasharray="1,5" d="M1622.6,-452.32C1652.62,-440.65 1697.27,-423.28 1729.56,-410.73"/>
<polygon fill="black" stroke="black" points="1731.1,-413.88 1739.15,-407 1728.56,-407.36 1731.1,-413.88"/>
</g>
<!-- 26&#45;&gt;17 -->
<g id="edge18" class="edge">
<title>26&#45;&gt;17</title>
<path fill="none" stroke="black" stroke-dasharray="1,5" d="M1626.38,-453.84C1633.52,-451.79 1640.97,-449.75 1648,-448 1725.05,-428.82 1745.95,-431.18 1823,-412 1826.84,-411.04 1830.81,-410 1834.79,-408.91"/>
<polygon fill="black" stroke="black" points="1835.93,-412.23 1844.62,-406.16 1834.04,-405.49 1835.93,-412.23"/>
</g>
<!-- 26&#45;&gt;19 -->
<g id="edge20" class="edge">
<title>26&#45;&gt;19</title>
<path fill="none" stroke="black" stroke-dasharray="1,5" d="M1625.66,-453.56C1632.99,-451.49 1640.7,-449.51 1648,-448 1775.61,-421.59 1811.33,-438.12 1939,-412 1943.17,-411.15 1947.48,-410.15 1951.77,-409.06"/>
<polygon fill="black" stroke="black" points="1952.95,-412.37 1961.71,-406.43 1951.15,-405.61 1952.95,-412.37"/>
</g>
<!-- 39 -->
<g id="node41" class="node">
<title>39</title>
<ellipse fill="none" stroke="black" cx="2113" cy="-394" rx="46.59" ry="18"/>
<text text-anchor="middle" x="2113" y="-390.3" font-family="Times,serif" font-size="14.00">Bodl (a)</text>
</g>
<!-- 26&#45;&gt;39 -->
<g id="edge40" class="edge">
<title>26&#45;&gt;39</title>
<path fill="none" stroke="black" stroke-dasharray="5,2" d="M1625.31,-453.45C1632.74,-451.36 1640.58,-449.4 1648,-448 1827.32,-414.17 1877.85,-446.69 2057,-412 2061.1,-411.21 2065.32,-410.23 2069.52,-409.15"/>
<polygon fill="black" stroke="black" points="2070.51,-412.51 2079.23,-406.48 2068.66,-405.76 2070.51,-412.51"/>
</g>
<!-- 27 -->
<g id="node29" class="node">
<title>27</title>
<ellipse fill="none" stroke="black" cx="1707" cy="-466" rx="50.09" ry="18"/>
<text text-anchor="middle" x="1707" y="-462.3" font-family="Times,serif" font-size="14.00">V560 (b)</text>
</g>
<!-- 41 -->
<g id="node43" class="node">
<title>41</title>
<ellipse fill="none" stroke="black" cx="2234" cy="-394" rx="55.79" ry="18"/>
<text text-anchor="middle" x="2234" y="-390.3" font-family="Times,serif" font-size="14.00">V1920 (b)</text>
</g>
<!-- 27&#45;&gt;41 -->
<g id="edge41" class="edge">
<title>27&#45;&gt;41</title>
<path fill="none" stroke="black" stroke-dasharray="5,2" d="M1742.93,-453.46C1750.49,-451.37 1758.46,-449.41 1766,-448 1942.76,-414.95 1991.84,-442.86 2169,-412 2173.97,-411.13 2179.12,-410.08 2184.24,-408.91"/>
<polygon fill="black" stroke="black" points="2185.1,-412.31 2194.01,-406.58 2183.47,-405.5 2185.1,-412.31"/>
</g>
<!-- 28&#45;&gt;4 -->
<g id="edge5" class="edge">
<title>28&#45;&gt;4</title>
<path fill="none" stroke="black" stroke-dasharray="1,5" d="M344,-87.7C344,-79.98 344,-70.71 344,-62.11"/>
<polygon fill="black" stroke="black" points="347.5,-62.1 344,-52.1 340.5,-62.1 347.5,-62.1"/>
</g>
<!-- 31 -->
<g id="node33" class="node">
<title>31</title>
<ellipse fill="none" stroke="gray" stroke-dasharray="5,2" cx="580" cy="-106" rx="28.7" ry="18"/>
<text text-anchor="middle" x="580" y="-102.3" font-family="Times,serif" font-size="14.00">P18</text>
</g>
<!-- 29&#45;&gt;31 -->
<g id="edge32" class="edge">
<title>29&#45;&gt;31</title>
<path fill="none" stroke="gray" stroke-dasharray="5,2" d="M580,-159.7C580,-151.98 580,-142.71 580,-134.11"/>
<polygon fill="gray" stroke="gray" points="583.5,-134.1 580,-124.1 576.5,-134.1 583.5,-134.1"/>
</g>
<!-- 30 -->
<g id="node32" class="node">
<title>30</title>
<ellipse fill="none" stroke="gray" stroke-dasharray="5,2" cx="1825" cy="-466" rx="50.09" ry="18"/>
<text text-anchor="middle" x="1825" y="-462.3" font-family="Times,serif" font-size="14.00">Savile&#45;Η</text>
</g>
<!-- 33 -->
<g id="node35" class="node">
<title>33</title>
<ellipse fill="none" stroke="black" cx="1068" cy="-322" rx="41.69" ry="18"/>
<text text-anchor="middle" x="1068" y="-318.3" font-family="Times,serif" font-size="14.00">Est (a)</text>
</g>
<!-- 35 -->
<g id="node37" class="node">
<title>35</title>
<ellipse fill="none" stroke="black" cx="1170" cy="-322" rx="42.79" ry="18"/>
<text text-anchor="middle" x="1170" y="-318.3" font-family="Times,serif" font-size="14.00">Bas (a)</text>
</g>
<!-- 38&#45;&gt;11 -->
<g id="edge12" class="edge">
<title>38&#45;&gt;11</title>
<path fill="none" stroke="black" stroke-dasharray="1,5" d="M461,-303.7C461,-295.98 461,-286.71 461,-278.11"/>
<polygon fill="black" stroke="black" points="464.5,-278.1 461,-268.1 457.5,-278.1 464.5,-278.1"/>
</g>
<!-- 40 -->
<g id="node42" class="node">
<title>40</title>
<ellipse fill="none" stroke="black" cx="754" cy="-539" rx="53.89" ry="18"/>
<text text-anchor="middle" x="754" y="-535.3" font-family="Times,serif" font-size="14.00">aBase (a)</text>
</g>
<!-- 40&#45;&gt;5 -->
<g id="edge6" class="edge">
<title>40&#45;&gt;5</title>
<path fill="none" stroke="blue" d="M702.52,-533.42C621.25,-525.78 458.46,-508.79 322,-484 315.3,-482.78 308.28,-481.33 301.37,-479.79"/>
<polygon fill="blue" stroke="blue" points="301.92,-476.32 291.39,-477.49 300.35,-483.14 301.92,-476.32"/>
</g>
<!-- 40&#45;&gt;10 -->
<g id="edge11" class="edge">
<title>40&#45;&gt;10</title>
<path fill="none" stroke="black" stroke-width="2" d="M705.58,-530.87C644.53,-521.57 536.49,-504.1 445,-484 439.74,-482.84 434.26,-481.54 428.81,-480.18"/>
<polygon fill="black" stroke="black" stroke-width="2" points="429.67,-476.79 419.11,-477.7 427.93,-483.57 429.67,-476.79"/>
</g>
<!-- 40&#45;&gt;14 -->
<g id="edge15" class="edge">
<title>40&#45;&gt;14</title>
<path fill="none" stroke="black" stroke-width="2" d="M711.79,-527.65C670.2,-517.27 604.95,-500.5 549,-484 545.71,-483.03 542.32,-482 538.91,-480.93"/>
<polygon fill="black" stroke="black" stroke-width="2" points="539.95,-477.59 529.36,-477.9 537.84,-484.27 539.95,-477.59"/>
</g>
<!-- 40&#45;&gt;15 -->
<g id="edge16" class="edge">
<title>40&#45;&gt;15</title>
<path fill="none" stroke="gray" d="M722.76,-524.31C695.26,-512.25 655.25,-494.72 626.74,-482.23"/>
<polygon fill="gray" stroke="gray" points="628.11,-479 617.55,-478.2 625.3,-485.42 628.11,-479"/>
</g>
<!-- 40&#45;&gt;16 -->
<g id="edge17" class="edge">
<title>40&#45;&gt;16</title>
<path fill="none" stroke="black" stroke-width="2" d="M740.78,-521.53C733.69,-512.7 724.81,-501.63 716.9,-491.78"/>
<polygon fill="black" stroke="black" stroke-width="2" points="719.53,-489.48 710.54,-483.87 714.08,-493.86 719.53,-489.48"/>
</g>
<!-- 40&#45;&gt;21 -->
<g id="edge22" class="edge">
<title>40&#45;&gt;21</title>
<path fill="none" stroke="black" stroke-dasharray="5,2" d="M767.45,-521.53C774.77,-512.57 783.97,-501.31 792.1,-491.36"/>
<polygon fill="black" stroke="black" points="795,-493.34 798.62,-483.38 789.58,-488.91 795,-493.34"/>
</g>
<!-- 40&#45;&gt;23 -->
<g id="edge24" class="edge">
<title>40&#45;&gt;23</title>
<path fill="none" stroke="black" d="M795.62,-527.37C846.42,-514.4 932.1,-492.52 985.16,-478.96"/>
<polygon fill="black" stroke="black" points="986.17,-482.32 994.99,-476.45 984.44,-475.53 986.17,-482.32"/>
</g>
<!-- 40&#45;&gt;26 -->
<g id="edge27" class="edge">
<title>40&#45;&gt;26</title>
<path fill="none" stroke="black" stroke-dasharray="5,2" d="M805.66,-533.61C953.65,-521.04 1378.37,-484.97 1532.9,-471.85"/>
<polygon fill="black" stroke="black" points="1533.45,-475.32 1543.12,-470.98 1532.86,-468.34 1533.45,-475.32"/>
</g>
<!-- 40&#45;&gt;27 -->
<g id="edge28" class="edge">
<title>40&#45;&gt;27</title>
<path fill="none" stroke="blue" stroke-width="2" d="M807.38,-536.32C974.28,-530.82 1484.8,-512.09 1648,-484 1652.37,-483.25 1656.88,-482.29 1661.37,-481.21"/>
<polygon fill="blue" stroke="blue" stroke-width="2" points="1662.29,-484.59 1671.1,-478.7 1660.54,-477.81 1662.29,-484.59"/>
</g>
<!-- 40&#45;&gt;30 -->
<g id="edge31" class="edge">
<title>40&#45;&gt;30</title>
<path fill="none" stroke="gray" stroke-width="2" d="M807.62,-536.75C989.04,-532.25 1578.95,-515.52 1766,-484 1770.44,-483.25 1775.01,-482.29 1779.56,-481.2"/>
<polygon fill="gray" stroke="gray" stroke-width="2" points="1780.61,-484.55 1789.42,-478.66 1778.86,-477.77 1780.61,-484.55"/>
</g>
<!-- 42&#45;&gt;33 -->
<g id="edge34" class="edge">
<title>42&#45;&gt;33</title>
<path fill="none" stroke="black" stroke-dasharray="1,5" d="M1140.67,-377.12C1127.45,-367.27 1110.32,-354.51 1096.01,-343.86"/>
<polygon fill="black" stroke="black" points="1098.07,-341.03 1087.96,-337.86 1093.89,-346.64 1098.07,-341.03"/>
</g>
<!-- 42&#45;&gt;35 -->
<g id="edge36" class="edge">
<title>42&#45;&gt;35</title>
<path fill="none" stroke="black" d="M1163.98,-375.7C1164.86,-367.98 1165.92,-358.71 1166.9,-350.11"/>
<polygon fill="black" stroke="black" points="1170.39,-350.44 1168.05,-340.1 1163.43,-349.64 1170.39,-350.44"/>
</g>
</g>
</svg>
