<?xml version="1.0" encoding="UTF-8" standalone="no"?>
<!DOCTYPE svg PUBLIC "-//W3C//DTD SVG 1.1//EN"
 "http://www.w3.org/Graphics/SVG/1.1/DTD/svg11.dtd">
<!-- Generated by graphviz version 2.43.0 (0)
 -->
<!-- Title: textual_flow Pages: 1 -->
<svg width="2289pt" height="672pt"
 viewBox="0.00 0.00 2289.00 672.00" xmlns="http://www.w3.org/2000/svg" xmlns:xlink="http://www.w3.org/1999/xlink">
<g id="graph0" class="graph" transform="scale(1 1) rotate(0) translate(4 668)">
<title>textual_flow</title>
<polygon fill="white" stroke="transparent" points="-4,4 -4,-668 2285,-668 2285,4 -4,4"/>
<g id="clust1" class="cluster">
<title>cluster_legend</title>
<polygon fill="none" stroke="black" points="8,-602 8,-656 186,-656 186,-602 8,-602"/>
</g>
<g id="clust2" class="cluster">
<title>cluster_plot</title>
</g>
<!-- label -->
<g id="node1" class="node">
<title>label</title>
<text text-anchor="middle" x="97" y="-632.8" font-family="Times,serif" font-size="14.00">adstag1.3.29U32&#45;40</text>
<text text-anchor="middle" x="97" y="-617.8" font-family="Times,serif" font-size="14.00">Con = 5</text>
</g>
<!-- 0 -->
<g id="node2" class="node">
<title>0</title>
<ellipse fill="none" stroke="black" cx="473" cy="-555" rx="53.09" ry="18"/>
<text text-anchor="middle" x="473" y="-551.3" font-family="Times,serif" font-size="14.00">M136 (d)</text>
</g>
<!-- 1 -->
<g id="node3" class="node">
<title>1</title>
<ellipse fill="none" stroke="black" cx="1158" cy="-482" rx="44.39" ry="18"/>
<text text-anchor="middle" x="1158" y="-478.3" font-family="Times,serif" font-size="14.00">P74 (a)</text>
</g>
<!-- 2 -->
<g id="node4" class="node">
<title>2</title>
<ellipse fill="none" stroke="black" cx="246" cy="-482" rx="44.39" ry="18"/>
<text text-anchor="middle" x="246" y="-478.3" font-family="Times,serif" font-size="14.00">S32 (a)</text>
</g>
<!-- 3 -->
<g id="node5" class="node">
<title>3</title>
<ellipse fill="none" stroke="black" cx="1040" cy="-399" rx="40.89" ry="18"/>
<text text-anchor="middle" x="1040" y="-395.3" font-family="Times,serif" font-size="14.00">Est (c)</text>
</g>
<!-- 4 -->
<g id="node6" class="node">
<title>4</title>
<ellipse fill="none" stroke="black" cx="476" cy="-399" rx="55.79" ry="18"/>
<text text-anchor="middle" x="476" y="-395.3" font-family="Times,serif" font-size="14.00">V1639 (a)</text>
</g>
<!-- 5 -->
<g id="node7" class="node">
<title>5</title>
<ellipse fill="none" stroke="gray" stroke-dasharray="5,2" cx="2090" cy="-107" rx="28.7" ry="18"/>
<text text-anchor="middle" x="2090" y="-103.3" font-family="Times,serif" font-size="14.00">P18</text>
</g>
<!-- 6 -->
<g id="node8" class="node">
<title>6</title>
<ellipse fill="none" stroke="black" cx="910" cy="-399" rx="43.59" ry="18"/>
<text text-anchor="middle" x="910" y="-395.3" font-family="Times,serif" font-size="14.00">Bas (d)</text>
</g>
<!-- 7 -->
<g id="node9" class="node">
<title>7</title>
<ellipse fill="none" stroke="black" cx="1270" cy="-482" rx="50.09" ry="18"/>
<text text-anchor="middle" x="1270" y="-478.3" font-family="Times,serif" font-size="14.00">A116 (a)</text>
</g>
<!-- 8 -->
<g id="node10" class="node">
<title>8</title>
<ellipse fill="none" stroke="black" cx="2209" cy="-482" rx="55.79" ry="18"/>
<text text-anchor="middle" x="2209" y="-478.3" font-family="Times,serif" font-size="14.00">V1920 (d)</text>
</g>
<!-- 9 -->
<g id="node11" class="node">
<title>9</title>
<ellipse fill="none" stroke="black" cx="358" cy="-482" rx="50.09" ry="18"/>
<text text-anchor="middle" x="358" y="-478.3" font-family="Times,serif" font-size="14.00">Patm (b)</text>
</g>
<!-- 10 -->
<g id="node12" class="node">
<title>10</title>
<ellipse fill="none" stroke="black" cx="1969" cy="-180" rx="50.09" ry="18"/>
<text text-anchor="middle" x="1969" y="-176.3" font-family="Times,serif" font-size="14.00">Marc (a)</text>
</g>
<!-- 26 -->
<g id="node28" class="node">
<title>26</title>
<ellipse fill="none" stroke="black" cx="1969" cy="-107" rx="46.29" ry="18"/>
<text text-anchor="middle" x="1969" y="-103.3" font-family="Times,serif" font-size="14.00">Mon (a)</text>
</g>
<!-- 10&#45;&gt;26 -->
<g id="edge27" class="edge">
<title>10&#45;&gt;26</title>
<path fill="none" stroke="black" stroke-dasharray="1,5" d="M1969,-161.81C1969,-153.79 1969,-144.05 1969,-135.07"/>
<polygon fill="black" stroke="black" points="1972.5,-135.03 1969,-125.03 1965.5,-135.03 1972.5,-135.03"/>
</g>
<!-- 11 -->
<g id="node13" class="node">
<title>11</title>
<ellipse fill="none" stroke="black" cx="476" cy="-482" rx="50.09" ry="18"/>
<text text-anchor="middle" x="476" y="-478.3" font-family="Times,serif" font-size="14.00">V566 (a)</text>
</g>
<!-- 11&#45;&gt;4 -->
<g id="edge5" class="edge">
<title>11&#45;&gt;4</title>
<path fill="none" stroke="black" stroke-dasharray="1,5" d="M476,-463.82C476,-453.19 476,-439.31 476,-427.2"/>
<polygon fill="black" stroke="black" points="479.5,-427.15 476,-417.15 472.5,-427.15 479.5,-427.15"/>
</g>
<!-- 12 -->
<g id="node14" class="node">
<title>12</title>
<ellipse fill="none" stroke="black" cx="1387" cy="-482" rx="48.99" ry="18"/>
<text text-anchor="middle" x="1387" y="-478.3" font-family="Times,serif" font-size="14.00">La35 (a)</text>
</g>
<!-- 13 -->
<g id="node15" class="node">
<title>13</title>
<ellipse fill="none" stroke="black" cx="588" cy="-555" rx="44.39" ry="18"/>
<text text-anchor="middle" x="588" y="-551.3" font-family="Times,serif" font-size="14.00">A25 (a)</text>
</g>
<!-- 13&#45;&gt;2 -->
<g id="edge3" class="edge">
<title>13&#45;&gt;2</title>
<path fill="none" stroke="black" stroke-dasharray="5,2" d="M555.43,-542.68C548.72,-540.6 541.68,-538.58 535,-537 431.7,-512.49 402.3,-524.51 299,-500 295.56,-499.18 292.02,-498.25 288.47,-497.26"/>
<polygon fill="black" stroke="black" points="289.16,-493.81 278.57,-494.32 287.17,-500.52 289.16,-493.81"/>
</g>
<!-- 13&#45;&gt;9 -->
<g id="edge10" class="edge">
<title>13&#45;&gt;9</title>
<path fill="none" stroke="blue" stroke-dasharray="1,5" d="M554.38,-543.14C547.95,-541.08 541.27,-538.96 535,-537 491,-523.23 440.71,-507.93 405.01,-497.14"/>
<polygon fill="blue" stroke="blue" points="405.93,-493.76 395.34,-494.22 403.9,-500.46 405.93,-493.76"/>
</g>
<!-- 13&#45;&gt;11 -->
<g id="edge12" class="edge">
<title>13&#45;&gt;11</title>
<path fill="none" stroke="black" stroke-dasharray="5,2" d="M565.06,-539.46C548.68,-529.07 526.4,-514.95 508.22,-503.43"/>
<polygon fill="black" stroke="black" points="510,-500.41 499.68,-498.01 506.25,-506.32 510,-500.41"/>
</g>
<!-- 25 -->
<g id="node27" class="node">
<title>25</title>
<ellipse fill="none" stroke="black" cx="588" cy="-482" rx="44.39" ry="18"/>
<text text-anchor="middle" x="588" y="-478.3" font-family="Times,serif" font-size="14.00">P01 (a)</text>
</g>
<!-- 13&#45;&gt;25 -->
<g id="edge26" class="edge">
<title>13&#45;&gt;25</title>
<path fill="none" stroke="black" stroke-dasharray="5,2" d="M588,-536.81C588,-528.79 588,-519.05 588,-510.07"/>
<polygon fill="black" stroke="black" points="591.5,-510.03 588,-500.03 584.5,-510.03 591.5,-510.03"/>
</g>
<!-- 40 -->
<g id="node42" class="node">
<title>40</title>
<ellipse fill="none" stroke="black" cx="690" cy="-482" rx="40.09" ry="18"/>
<text text-anchor="middle" x="690" y="-478.3" font-family="Times,serif" font-size="14.00">Pal (a)</text>
</g>
<!-- 13&#45;&gt;40 -->
<g id="edge40" class="edge">
<title>13&#45;&gt;40</title>
<path fill="none" stroke="black" stroke-dasharray="5,2" d="M609.63,-538.94C624.43,-528.64 644.24,-514.85 660.49,-503.54"/>
<polygon fill="black" stroke="black" points="662.89,-506.14 669.1,-497.55 658.89,-500.39 662.89,-506.14"/>
</g>
<!-- 14 -->
<g id="node16" class="node">
<title>14</title>
<ellipse fill="none" stroke="black" cx="1723" cy="-399" rx="50.09" ry="18"/>
<text text-anchor="middle" x="1723" y="-395.3" font-family="Times,serif" font-size="14.00">A336 (a)</text>
</g>
<!-- 15 -->
<g id="node17" class="node">
<title>15</title>
<ellipse fill="none" stroke="black" cx="2090" cy="-180" rx="52.79" ry="18"/>
<text text-anchor="middle" x="2090" y="-176.3" font-family="Times,serif" font-size="14.00">M118 (a)</text>
</g>
<!-- 15&#45;&gt;5 -->
<g id="edge6" class="edge">
<title>15&#45;&gt;5</title>
<path fill="none" stroke="gray" stroke-dasharray="5,2" d="M2090,-161.81C2090,-153.79 2090,-144.05 2090,-135.07"/>
<polygon fill="gray" stroke="gray" points="2093.5,-135.03 2090,-125.03 2086.5,-135.03 2093.5,-135.03"/>
</g>
<!-- 16 -->
<g id="node18" class="node">
<title>16</title>
<ellipse fill="none" stroke="black" cx="859" cy="-555" rx="52.79" ry="18"/>
<text text-anchor="middle" x="859" y="-551.3" font-family="Times,serif" font-size="14.00">LaSM (a)</text>
</g>
<!-- 23 -->
<g id="node25" class="node">
<title>23</title>
<ellipse fill="none" stroke="black" cx="792" cy="-482" rx="44.39" ry="18"/>
<text text-anchor="middle" x="792" y="-478.3" font-family="Times,serif" font-size="14.00">B39 (a)</text>
</g>
<!-- 16&#45;&gt;23 -->
<g id="edge24" class="edge">
<title>16&#45;&gt;23</title>
<path fill="none" stroke="black" stroke-dasharray="5,2" d="M843.46,-537.53C834.84,-528.39 823.95,-516.86 814.42,-506.76"/>
<polygon fill="black" stroke="black" points="816.86,-504.25 807.46,-499.38 811.77,-509.05 816.86,-504.25"/>
</g>
<!-- 17 -->
<g id="node19" class="node">
<title>17</title>
<ellipse fill="none" stroke="black" cx="1040" cy="-555" rx="44.69" ry="18"/>
<text text-anchor="middle" x="1040" y="-551.3" font-family="Times,serif" font-size="14.00">Nan (a)</text>
</g>
<!-- 20 -->
<g id="node22" class="node">
<title>20</title>
<ellipse fill="none" stroke="black" cx="910" cy="-482" rx="55.79" ry="18"/>
<text text-anchor="middle" x="910" y="-478.3" font-family="Times,serif" font-size="14.00">V2250 (d)</text>
</g>
<!-- 17&#45;&gt;20 -->
<g id="edge21" class="edge">
<title>17&#45;&gt;20</title>
<path fill="none" stroke="blue" stroke-dasharray="5,2" d="M1014.63,-540.14C995.1,-529.48 967.86,-514.6 946.07,-502.7"/>
<polygon fill="blue" stroke="blue" points="947.56,-499.52 937.1,-497.8 944.2,-505.67 947.56,-499.52"/>
</g>
<!-- 30 -->
<g id="node32" class="node">
<title>30</title>
<ellipse fill="none" stroke="black" cx="1040" cy="-482" rx="55.79" ry="18"/>
<text text-anchor="middle" x="1040" y="-478.3" font-family="Times,serif" font-size="14.00">V1897 (a)</text>
</g>
<!-- 17&#45;&gt;30 -->
<g id="edge31" class="edge">
<title>17&#45;&gt;30</title>
<path fill="none" stroke="black" stroke-dasharray="1,5" d="M1040,-536.81C1040,-528.79 1040,-519.05 1040,-510.07"/>
<polygon fill="black" stroke="black" points="1043.5,-510.03 1040,-500.03 1036.5,-510.03 1043.5,-510.03"/>
</g>
<!-- 18 -->
<g id="node20" class="node">
<title>18</title>
<ellipse fill="none" stroke="black" cx="1324" cy="-555" rx="50.09" ry="18"/>
<text text-anchor="middle" x="1324" y="-551.3" font-family="Times,serif" font-size="14.00">S249 (a)</text>
</g>
<!-- 19 -->
<g id="node21" class="node">
<title>19</title>
<ellipse fill="none" stroke="gray" stroke-dasharray="5,2" cx="1494" cy="-482" rx="40.09" ry="18"/>
<text text-anchor="middle" x="1494" y="-478.3" font-family="Times,serif" font-size="14.00">V2036</text>
</g>
<!-- 20&#45;&gt;6 -->
<g id="edge7" class="edge">
<title>20&#45;&gt;6</title>
<path fill="none" stroke="black" stroke-dasharray="5,2" d="M910,-463.82C910,-453.19 910,-439.31 910,-427.2"/>
<polygon fill="black" stroke="black" points="913.5,-427.15 910,-417.15 906.5,-427.15 913.5,-427.15"/>
<text text-anchor="middle" x="913.5" y="-438" font-family="Times,serif" font-size="10.00">5</text>
</g>
<!-- 21 -->
<g id="node23" class="node">
<title>21</title>
<ellipse fill="none" stroke="black" cx="2090" cy="-253" rx="46.59" ry="18"/>
<text text-anchor="middle" x="2090" y="-249.3" font-family="Times,serif" font-size="14.00">Taur (a)</text>
</g>
<!-- 21&#45;&gt;10 -->
<g id="edge11" class="edge">
<title>21&#45;&gt;10</title>
<path fill="none" stroke="black" stroke-dasharray="1,5" d="M2065.51,-237.63C2047.55,-227.09 2022.92,-212.64 2003.04,-200.97"/>
<polygon fill="black" stroke="black" points="2004.68,-197.88 1994.28,-195.84 2001.14,-203.91 2004.68,-197.88"/>
</g>
<!-- 21&#45;&gt;15 -->
<g id="edge16" class="edge">
<title>21&#45;&gt;15</title>
<path fill="none" stroke="black" stroke-dasharray="5,2" d="M2090,-234.81C2090,-226.79 2090,-217.05 2090,-208.07"/>
<polygon fill="black" stroke="black" points="2093.5,-208.03 2090,-198.03 2086.5,-208.03 2093.5,-208.03"/>
</g>
<!-- 22 -->
<g id="node24" class="node">
<title>22</title>
<ellipse fill="none" stroke="black" cx="2211" cy="-180" rx="50.09" ry="18"/>
<text text-anchor="middle" x="2211" y="-176.3" font-family="Times,serif" font-size="14.00">V569 (a)</text>
</g>
<!-- 21&#45;&gt;22 -->
<g id="edge23" class="edge">
<title>21&#45;&gt;22</title>
<path fill="none" stroke="black" stroke-dasharray="5,2" d="M2114.49,-237.63C2132.45,-227.09 2157.08,-212.64 2176.96,-200.97"/>
<polygon fill="black" stroke="black" points="2178.86,-203.91 2185.72,-195.84 2175.32,-197.88 2178.86,-203.91"/>
</g>
<!-- 24 -->
<g id="node26" class="node">
<title>24</title>
<ellipse fill="none" stroke="black" cx="2090" cy="-326" rx="50.09" ry="18"/>
<text text-anchor="middle" x="2090" y="-322.3" font-family="Times,serif" font-size="14.00">V568 (a)</text>
</g>
<!-- 24&#45;&gt;21 -->
<g id="edge22" class="edge">
<title>24&#45;&gt;21</title>
<path fill="none" stroke="black" stroke-dasharray="1,5" d="M2090,-307.81C2090,-299.79 2090,-290.05 2090,-281.07"/>
<polygon fill="black" stroke="black" points="2093.5,-281.03 2090,-271.03 2086.5,-281.03 2093.5,-281.03"/>
</g>
<!-- 29 -->
<g id="node31" class="node">
<title>29</title>
<ellipse fill="none" stroke="black" cx="1969" cy="-34" rx="40.89" ry="18"/>
<text text-anchor="middle" x="1969" y="-30.3" font-family="Times,serif" font-size="14.00">Sin (a)</text>
</g>
<!-- 26&#45;&gt;29 -->
<g id="edge30" class="edge">
<title>26&#45;&gt;29</title>
<path fill="none" stroke="black" stroke-dasharray="1,5" d="M1969,-88.81C1969,-80.79 1969,-71.05 1969,-62.07"/>
<polygon fill="black" stroke="black" points="1972.5,-62.03 1969,-52.03 1965.5,-62.03 1972.5,-62.03"/>
</g>
<!-- 27 -->
<g id="node29" class="node">
<title>27</title>
<ellipse fill="none" stroke="black" cx="1602" cy="-482" rx="50.09" ry="18"/>
<text text-anchor="middle" x="1602" y="-478.3" font-family="Times,serif" font-size="14.00">V565 (a)</text>
</g>
<!-- 28 -->
<g id="node30" class="node">
<title>28</title>
<ellipse fill="none" stroke="black" cx="1723" cy="-482" rx="52.79" ry="18"/>
<text text-anchor="middle" x="1723" y="-478.3" font-family="Times,serif" font-size="14.00">M111 (a)</text>
</g>
<!-- 28&#45;&gt;14 -->
<g id="edge15" class="edge">
<title>28&#45;&gt;14</title>
<path fill="none" stroke="black" stroke-dasharray="5,2" d="M1723,-463.82C1723,-453.19 1723,-439.31 1723,-427.2"/>
<polygon fill="black" stroke="black" points="1726.5,-427.15 1723,-417.15 1719.5,-427.15 1726.5,-427.15"/>
</g>
<!-- 30&#45;&gt;3 -->
<g id="edge4" class="edge">
<title>30&#45;&gt;3</title>
<path fill="none" stroke="blue" stroke-dasharray="1,5" d="M1040,-463.82C1040,-453.19 1040,-439.31 1040,-427.2"/>
<polygon fill="blue" stroke="blue" points="1043.5,-427.15 1040,-417.15 1036.5,-427.15 1043.5,-427.15"/>
</g>
<!-- 31 -->
<g id="node33" class="node">
<title>31</title>
<ellipse fill="none" stroke="black" cx="1441" cy="-555" rx="48.99" ry="18"/>
<text text-anchor="middle" x="1441" y="-551.3" font-family="Times,serif" font-size="14.00">La22 (a)</text>
</g>
<!-- 31&#45;&gt;1 -->
<g id="edge2" class="edge">
<title>31&#45;&gt;1</title>
<path fill="none" stroke="black" stroke-dasharray="1,5" d="M1404.6,-542.89C1397.47,-540.84 1390.02,-538.78 1383,-537 1307.21,-517.77 1286.54,-520.19 1211,-500 1207.63,-499.1 1204.16,-498.12 1200.68,-497.09"/>
<polygon fill="black" stroke="black" points="1201.52,-493.68 1190.93,-494.12 1199.47,-500.38 1201.52,-493.68"/>
</g>
<!-- 31&#45;&gt;7 -->
<g id="edge8" class="edge">
<title>31&#45;&gt;7</title>
<path fill="none" stroke="black" stroke-dasharray="5,2" d="M1409.64,-540.98C1381.88,-529.45 1341.2,-512.56 1310.9,-499.98"/>
<polygon fill="black" stroke="black" points="1312.03,-496.66 1301.45,-496.06 1309.35,-503.13 1312.03,-496.66"/>
</g>
<!-- 31&#45;&gt;12 -->
<g id="edge13" class="edge">
<title>31&#45;&gt;12</title>
<path fill="none" stroke="black" stroke-dasharray="1,5" d="M1428.48,-537.53C1421.82,-528.79 1413.51,-517.86 1406.07,-508.08"/>
<polygon fill="black" stroke="black" points="1408.67,-505.71 1399.83,-499.87 1403.1,-509.95 1408.67,-505.71"/>
</g>
<!-- 31&#45;&gt;19 -->
<g id="edge20" class="edge">
<title>31&#45;&gt;19</title>
<path fill="none" stroke="gray" stroke-dasharray="5,2" d="M1453.29,-537.53C1459.91,-528.66 1468.22,-517.54 1475.6,-507.66"/>
<polygon fill="gray" stroke="gray" points="1478.6,-509.49 1481.77,-499.38 1472.99,-505.3 1478.6,-509.49"/>
</g>
<!-- 31&#45;&gt;27 -->
<g id="edge28" class="edge">
<title>31&#45;&gt;27</title>
<path fill="none" stroke="black" stroke-dasharray="5,2" d="M1471.28,-540.65C1497.06,-529.28 1534.28,-512.86 1562.42,-500.46"/>
<polygon fill="black" stroke="black" points="1563.84,-503.65 1571.58,-496.42 1561.02,-497.25 1563.84,-503.65"/>
</g>
<!-- 31&#45;&gt;28 -->
<g id="edge29" class="edge">
<title>31&#45;&gt;28</title>
<path fill="none" stroke="black" stroke-dasharray="1,5" d="M1477.42,-542.96C1484.55,-540.9 1491.99,-538.83 1499,-537 1570.47,-518.38 1589.37,-517.99 1661,-500 1665.14,-498.96 1669.43,-497.85 1673.73,-496.72"/>
<polygon fill="black" stroke="black" points="1674.95,-500.01 1683.71,-494.05 1673.14,-493.25 1674.95,-500.01"/>
</g>
<!-- 33 -->
<g id="node35" class="node">
<title>33</title>
<ellipse fill="none" stroke="black" cx="1840" cy="-482" rx="46.59" ry="18"/>
<text text-anchor="middle" x="1840" y="-478.3" font-family="Times,serif" font-size="14.00">Bodl (a)</text>
</g>
<!-- 31&#45;&gt;33 -->
<g id="edge34" class="edge">
<title>31&#45;&gt;33</title>
<path fill="none" stroke="black" stroke-dasharray="5,2" d="M1476.67,-542.6C1484,-540.52 1491.71,-538.53 1499,-537 1624.44,-510.67 1659.76,-527.25 1785,-500 1788.63,-499.21 1792.37,-498.29 1796.1,-497.3"/>
<polygon fill="black" stroke="black" points="1797.24,-500.61 1805.91,-494.53 1795.34,-493.88 1797.24,-500.61"/>
</g>
<!-- 36 -->
<g id="node38" class="node">
<title>36</title>
<ellipse fill="none" stroke="black" cx="1955" cy="-482" rx="50.09" ry="18"/>
<text text-anchor="middle" x="1955" y="-478.3" font-family="Times,serif" font-size="14.00">V571 (a)</text>
</g>
<!-- 31&#45;&gt;36 -->
<g id="edge37" class="edge">
<title>31&#45;&gt;36</title>
<path fill="none" stroke="black" stroke-dasharray="1,5" d="M1476.32,-542.48C1483.75,-540.39 1491.58,-538.42 1499,-537 1673.05,-503.7 1721.87,-532.9 1896,-500 1900.18,-499.21 1904.5,-498.25 1908.8,-497.2"/>
<polygon fill="black" stroke="black" points="1909.96,-500.51 1918.75,-494.6 1908.19,-493.74 1909.96,-500.51"/>
</g>
<!-- 32 -->
<g id="node34" class="node">
<title>32</title>
<ellipse fill="none" stroke="black" cx="1558" cy="-555" rx="50.09" ry="18"/>
<text text-anchor="middle" x="1558" y="-551.3" font-family="Times,serif" font-size="14.00">Neap (a)</text>
</g>
<!-- 38 -->
<g id="node40" class="node">
<title>38</title>
<ellipse fill="none" stroke="black" cx="2079" cy="-482" rx="55.79" ry="18"/>
<text text-anchor="middle" x="2079" y="-478.3" font-family="Times,serif" font-size="14.00">V1629 (a)</text>
</g>
<!-- 32&#45;&gt;38 -->
<g id="edge38" class="edge">
<title>32&#45;&gt;38</title>
<path fill="none" stroke="black" stroke-dasharray="1,5" d="M1594.25,-542.4C1601.71,-540.34 1609.56,-538.41 1617,-537 1791.13,-504.1 1839.48,-530.74 2014,-500 2018.77,-499.16 2023.71,-498.14 2028.63,-497.03"/>
<polygon fill="black" stroke="black" points="2029.74,-500.36 2038.66,-494.64 2028.12,-493.56 2029.74,-500.36"/>
</g>
<!-- 34 -->
<g id="node36" class="node">
<title>34</title>
<ellipse fill="none" stroke="gray" stroke-dasharray="5,2" cx="1676" cy="-555" rx="50.09" ry="18"/>
<text text-anchor="middle" x="1676" y="-551.3" font-family="Times,serif" font-size="14.00">Savile&#45;Η</text>
</g>
<!-- 35 -->
<g id="node37" class="node">
<title>35</title>
<ellipse fill="none" stroke="black" cx="1788" cy="-555" rx="43.59" ry="18"/>
<text text-anchor="middle" x="1788" y="-551.3" font-family="Times,serif" font-size="14.00">La2 (d)</text>
</g>
<!-- 37 -->
<g id="node39" class="node">
<title>37</title>
<ellipse fill="none" stroke="black" cx="1382" cy="-629" rx="53.89" ry="18"/>
<text text-anchor="middle" x="1382" y="-625.3" font-family="Times,serif" font-size="14.00">aBase (a)</text>
</g>
<!-- 37&#45;&gt;0 -->
<g id="edge1" class="edge">
<title>37&#45;&gt;0</title>
<path fill="none" stroke="blue" stroke-width="2" d="M1328.05,-628.27C1193.29,-628.13 831.47,-622.74 535,-573 530.48,-572.24 525.82,-571.29 521.17,-570.23"/>
<polygon fill="blue" stroke="blue" stroke-width="2" points="521.64,-566.74 511.09,-567.75 519.97,-573.53 521.64,-566.74"/>
</g>
<!-- 37&#45;&gt;13 -->
<g id="edge14" class="edge">
<title>37&#45;&gt;13</title>
<path fill="none" stroke="black" stroke-dasharray="5,2" d="M1330.52,-623.33C1187.39,-610.35 785.76,-573.93 640.92,-560.8"/>
<polygon fill="black" stroke="black" points="641.22,-557.31 630.94,-559.89 640.58,-564.28 641.22,-557.31"/>
</g>
<!-- 37&#45;&gt;16 -->
<g id="edge17" class="edge">
<title>37&#45;&gt;16</title>
<path fill="none" stroke="black" d="M1332.8,-621.23C1235.84,-607.88 1020.52,-578.24 916.9,-563.97"/>
<polygon fill="black" stroke="black" points="917.32,-560.5 906.93,-562.6 916.36,-567.43 917.32,-560.5"/>
</g>
<!-- 37&#45;&gt;17 -->
<g id="edge18" class="edge">
<title>37&#45;&gt;17</title>
<path fill="none" stroke="black" d="M1337.64,-618.66C1273.43,-605.14 1155.03,-580.22 1088.55,-566.22"/>
<polygon fill="black" stroke="black" points="1089.24,-562.79 1078.74,-564.16 1087.8,-569.64 1089.24,-562.79"/>
</g>
<!-- 37&#45;&gt;18 -->
<g id="edge19" class="edge">
<title>37&#45;&gt;18</title>
<path fill="none" stroke="black" d="M1368.55,-611.3C1361.15,-602.12 1351.85,-590.57 1343.65,-580.4"/>
<polygon fill="black" stroke="black" points="1346.38,-578.2 1337.38,-572.61 1340.93,-582.59 1346.38,-578.2"/>
</g>
<!-- 37&#45;&gt;31 -->
<g id="edge32" class="edge">
<title>37&#45;&gt;31</title>
<path fill="none" stroke="black" stroke-dasharray="5,2" d="M1395.68,-611.3C1403.21,-602.12 1412.67,-590.57 1421.01,-580.4"/>
<polygon fill="black" stroke="black" points="1423.76,-582.56 1427.39,-572.61 1418.34,-578.13 1423.76,-582.56"/>
</g>
<!-- 37&#45;&gt;32 -->
<g id="edge33" class="edge">
<title>37&#45;&gt;32</title>
<path fill="none" stroke="black" stroke-width="2" d="M1414.69,-614.63C1443.52,-602.83 1485.67,-585.59 1516.8,-572.86"/>
<polygon fill="black" stroke="black" stroke-width="2" points="1518.15,-576.09 1526.08,-569.06 1515.5,-569.61 1518.15,-576.09"/>
</g>
<!-- 37&#45;&gt;34 -->
<g id="edge35" class="edge">
<title>37&#45;&gt;34</title>
<path fill="none" stroke="gray" stroke-width="2" d="M1425.91,-618.42C1473.24,-607.93 1550.71,-590.3 1617,-573 1620.84,-572 1624.8,-570.93 1628.78,-569.83"/>
<polygon fill="gray" stroke="gray" stroke-width="2" points="1629.94,-573.14 1638.62,-567.08 1628.05,-566.4 1629.94,-573.14"/>
</g>
<!-- 37&#45;&gt;35 -->
<g id="edge36" class="edge">
<title>37&#45;&gt;35</title>
<path fill="none" stroke="blue" stroke-width="2" d="M1432.75,-622.61C1501.76,-614.71 1628.77,-598.15 1735,-573 1738.6,-572.15 1742.3,-571.17 1746,-570.13"/>
<polygon fill="blue" stroke="blue" stroke-width="2" points="1747.12,-573.44 1755.71,-567.24 1745.13,-566.74 1747.12,-573.44"/>
</g>
<!-- 39 -->
<g id="node41" class="node">
<title>39</title>
<ellipse fill="none" stroke="black" cx="1907" cy="-555" rx="50.09" ry="18"/>
<text text-anchor="middle" x="1907" y="-551.3" font-family="Times,serif" font-size="14.00">V560 (d)</text>
</g>
<!-- 37&#45;&gt;39 -->
<g id="edge39" class="edge">
<title>37&#45;&gt;39</title>
<path fill="none" stroke="blue" stroke-width="2" d="M1433.97,-624.04C1519.41,-617.02 1694.68,-600.48 1841,-573 1846.81,-571.91 1852.87,-570.6 1858.85,-569.19"/>
<polygon fill="blue" stroke="blue" stroke-width="2" points="1859.92,-572.53 1868.8,-566.76 1858.26,-565.73 1859.92,-572.53"/>
</g>
<!-- 41 -->
<g id="node43" class="node">
<title>41</title>
<ellipse fill="none" stroke="gray" stroke-dasharray="5,2" cx="1986" cy="-399" rx="36" ry="18"/>
<text text-anchor="middle" x="1986" y="-395.3" font-family="Times,serif" font-size="14.00">La2&#45;c</text>
</g>
<!-- 38&#45;&gt;41 -->
<g id="edge41" class="edge">
<title>38&#45;&gt;41</title>
<path fill="none" stroke="gray" stroke-width="2" d="M2060.63,-465C2046.38,-452.59 2026.5,-435.27 2010.83,-421.63"/>
<polygon fill="gray" stroke="gray" stroke-width="2" points="2012.92,-418.81 2003.08,-414.88 2008.32,-424.08 2012.92,-418.81"/>
</g>
<!-- 42 -->
<g id="node44" class="node">
<title>42</title>
<ellipse fill="none" stroke="black" cx="2090" cy="-399" rx="50.09" ry="18"/>
<text text-anchor="middle" x="2090" y="-395.3" font-family="Times,serif" font-size="14.00">V536 (a)</text>
</g>
<!-- 38&#45;&gt;42 -->
<g id="edge42" class="edge">
<title>38&#45;&gt;42</title>
<path fill="none" stroke="black" stroke-dasharray="5,2" d="M2081.33,-463.82C2082.78,-453.19 2084.66,-439.31 2086.31,-427.2"/>
<polygon fill="black" stroke="black" points="2089.79,-427.53 2087.67,-417.15 2082.86,-426.59 2089.79,-427.53"/>
</g>
<!-- 39&#45;&gt;8 -->
<g id="edge9" class="edge">
<title>39&#45;&gt;8</title>
<path fill="none" stroke="black" stroke-dasharray="5,2" d="M1948.62,-544.94C1996.02,-534.52 2075.75,-516.7 2144,-500 2148.39,-498.93 2152.94,-497.79 2157.5,-496.63"/>
<polygon fill="black" stroke="black" points="2158.62,-499.95 2167.44,-494.08 2156.88,-493.17 2158.62,-499.95"/>
</g>
<!-- 42&#45;&gt;24 -->
<g id="edge25" class="edge">
<title>42&#45;&gt;24</title>
<path fill="none" stroke="black" stroke-dasharray="1,5" d="M2090,-380.81C2090,-372.79 2090,-363.05 2090,-354.07"/>
<polygon fill="black" stroke="black" points="2093.5,-354.03 2090,-344.03 2086.5,-354.03 2093.5,-354.03"/>
</g>
</g>
</svg>
