<?xml version="1.0" encoding="UTF-8" standalone="no"?>
<!DOCTYPE svg PUBLIC "-//W3C//DTD SVG 1.1//EN"
 "http://www.w3.org/Graphics/SVG/1.1/DTD/svg11.dtd">
<!-- Generated by graphviz version 2.43.0 (0)
 -->
<!-- Title: textual_flow Pages: 1 -->
<svg width="2421pt" height="582pt"
 viewBox="0.00 0.00 2421.00 582.00" xmlns="http://www.w3.org/2000/svg" xmlns:xlink="http://www.w3.org/1999/xlink">
<g id="graph0" class="graph" transform="scale(1 1) rotate(0) translate(4 578)">
<title>textual_flow</title>
<polygon fill="white" stroke="transparent" points="-4,4 -4,-578 2417,-578 2417,4 -4,4"/>
<g id="clust1" class="cluster">
<title>cluster_legend</title>
<polygon fill="none" stroke="black" points="8,-512 8,-566 168,-566 168,-512 8,-512"/>
</g>
<g id="clust2" class="cluster">
<title>cluster_plot</title>
</g>
<!-- label -->
<g id="node1" class="node">
<title>label</title>
<text text-anchor="middle" x="88" y="-542.8" font-family="Times,serif" font-size="14.00">adstag1.3.2U6&#45;12</text>
<text text-anchor="middle" x="88" y="-527.8" font-family="Times,serif" font-size="14.00">Con = 10</text>
</g>
<!-- 0 -->
<g id="node2" class="node">
<title>0</title>
<ellipse fill="none" stroke="black" cx="1260" cy="-394" rx="63.09" ry="18"/>
<text text-anchor="middle" x="1260" y="-390.3" font-family="Times,serif" font-size="14.00">M111 (ar1)</text>
</g>
<!-- 3 -->
<g id="node5" class="node">
<title>3</title>
<ellipse fill="none" stroke="black" cx="1261" cy="-322" rx="59.59" ry="18"/>
<text text-anchor="middle" x="1261" y="-318.3" font-family="Times,serif" font-size="14.00">A336 (ar1)</text>
</g>
<!-- 0&#45;&gt;3 -->
<g id="edge4" class="edge">
<title>0&#45;&gt;3</title>
<path fill="none" stroke="black" stroke-dasharray="5,2" d="M1260.25,-375.7C1260.36,-367.98 1260.49,-358.71 1260.61,-350.11"/>
<polygon fill="black" stroke="black" points="1264.11,-350.15 1260.76,-340.1 1257.11,-350.05 1264.11,-350.15"/>
</g>
<!-- 1 -->
<g id="node3" class="node">
<title>1</title>
<ellipse fill="none" stroke="black" cx="701" cy="-394" rx="50.09" ry="18"/>
<text text-anchor="middle" x="701" y="-390.3" font-family="Times,serif" font-size="14.00">Patm (a)</text>
</g>
<!-- 2 -->
<g id="node4" class="node">
<title>2</title>
<ellipse fill="none" stroke="black" cx="259" cy="-466" rx="50.09" ry="18"/>
<text text-anchor="middle" x="259" y="-462.3" font-family="Times,serif" font-size="14.00">V560 (a)</text>
</g>
<!-- 12 -->
<g id="node14" class="node">
<title>12</title>
<ellipse fill="none" stroke="black" cx="240" cy="-394" rx="55.79" ry="18"/>
<text text-anchor="middle" x="240" y="-390.3" font-family="Times,serif" font-size="14.00">V1920 (a)</text>
</g>
<!-- 2&#45;&gt;12 -->
<g id="edge12" class="edge">
<title>2&#45;&gt;12</title>
<path fill="none" stroke="black" stroke-dasharray="5,2" d="M254.4,-448.05C252.29,-440.26 249.72,-430.82 247.35,-422.08"/>
<polygon fill="black" stroke="black" points="250.69,-421.01 244.69,-412.28 243.93,-422.84 250.69,-421.01"/>
</g>
<!-- 4 -->
<g id="node6" class="node">
<title>4</title>
<ellipse fill="none" stroke="black" cx="1395" cy="-394" rx="53.89" ry="18"/>
<text text-anchor="middle" x="1395" y="-390.3" font-family="Times,serif" font-size="14.00">P74 (ar2)</text>
</g>
<!-- 5 -->
<g id="node7" class="node">
<title>5</title>
<ellipse fill="none" stroke="black" cx="356" cy="-394" rx="42.49" ry="18"/>
<text text-anchor="middle" x="356" y="-390.3" font-family="Times,serif" font-size="14.00">Est (b)</text>
</g>
<!-- 6 -->
<g id="node8" class="node">
<title>6</title>
<ellipse fill="none" stroke="black" cx="577" cy="-250" rx="46.59" ry="18"/>
<text text-anchor="middle" x="577" y="-246.3" font-family="Times,serif" font-size="14.00">Taur (a)</text>
</g>
<!-- 8 -->
<g id="node10" class="node">
<title>8</title>
<ellipse fill="none" stroke="black" cx="456" cy="-178" rx="50.09" ry="18"/>
<text text-anchor="middle" x="456" y="-174.3" font-family="Times,serif" font-size="14.00">Marc (a)</text>
</g>
<!-- 6&#45;&gt;8 -->
<g id="edge9" class="edge">
<title>6&#45;&gt;8</title>
<path fill="none" stroke="black" stroke-dasharray="1,5" d="M552.22,-234.67C534.35,-224.33 510.01,-210.25 490.28,-198.83"/>
<polygon fill="black" stroke="black" points="491.99,-195.78 481.58,-193.8 488.48,-201.83 491.99,-195.78"/>
</g>
<!-- 10 -->
<g id="node12" class="node">
<title>10</title>
<ellipse fill="none" stroke="black" cx="577" cy="-178" rx="52.79" ry="18"/>
<text text-anchor="middle" x="577" y="-174.3" font-family="Times,serif" font-size="14.00">M118 (a)</text>
</g>
<!-- 6&#45;&gt;10 -->
<g id="edge11" class="edge">
<title>6&#45;&gt;10</title>
<path fill="none" stroke="black" stroke-dasharray="5,2" d="M577,-231.7C577,-223.98 577,-214.71 577,-206.11"/>
<polygon fill="black" stroke="black" points="580.5,-206.1 577,-196.1 573.5,-206.1 580.5,-206.1"/>
</g>
<!-- 29 -->
<g id="node31" class="node">
<title>29</title>
<ellipse fill="none" stroke="black" cx="698" cy="-178" rx="50.09" ry="18"/>
<text text-anchor="middle" x="698" y="-174.3" font-family="Times,serif" font-size="14.00">V569 (a)</text>
</g>
<!-- 6&#45;&gt;29 -->
<g id="edge29" class="edge">
<title>6&#45;&gt;29</title>
<path fill="none" stroke="black" stroke-dasharray="5,2" d="M601.78,-234.67C619.65,-224.33 643.99,-210.25 663.72,-198.83"/>
<polygon fill="black" stroke="black" points="665.52,-201.83 672.42,-193.8 662.01,-195.78 665.52,-201.83"/>
</g>
<!-- 7 -->
<g id="node9" class="node">
<title>7</title>
<ellipse fill="none" stroke="black" cx="402" cy="-466" rx="55.79" ry="18"/>
<text text-anchor="middle" x="402" y="-462.3" font-family="Times,serif" font-size="14.00">V1897 (b)</text>
</g>
<!-- 7&#45;&gt;5 -->
<g id="edge6" class="edge">
<title>7&#45;&gt;5</title>
<path fill="none" stroke="black" stroke-dasharray="1,5" d="M390.86,-448.05C385.38,-439.71 378.67,-429.49 372.59,-420.25"/>
<polygon fill="black" stroke="black" points="375.45,-418.22 367.03,-411.79 369.6,-422.07 375.45,-418.22"/>
</g>
<!-- 42 -->
<g id="node44" class="node">
<title>42</title>
<ellipse fill="none" stroke="black" cx="460" cy="-394" rx="43.59" ry="18"/>
<text text-anchor="middle" x="460" y="-390.3" font-family="Times,serif" font-size="14.00">Bas (b)</text>
</g>
<!-- 7&#45;&gt;42 -->
<g id="edge42" class="edge">
<title>7&#45;&gt;42</title>
<path fill="none" stroke="black" d="M415.75,-448.41C422.97,-439.69 431.96,-428.85 439.94,-419.21"/>
<polygon fill="black" stroke="black" points="442.67,-421.4 446.35,-411.47 437.28,-416.94 442.67,-421.4"/>
</g>
<!-- 13 -->
<g id="node15" class="node">
<title>13</title>
<ellipse fill="none" stroke="black" cx="456" cy="-106" rx="46.29" ry="18"/>
<text text-anchor="middle" x="456" y="-102.3" font-family="Times,serif" font-size="14.00">Mon (a)</text>
</g>
<!-- 8&#45;&gt;13 -->
<g id="edge13" class="edge">
<title>8&#45;&gt;13</title>
<path fill="none" stroke="black" stroke-dasharray="1,5" d="M456,-159.7C456,-151.98 456,-142.71 456,-134.11"/>
<polygon fill="black" stroke="black" points="459.5,-134.1 456,-124.1 452.5,-134.1 459.5,-134.1"/>
</g>
<!-- 9 -->
<g id="node11" class="node">
<title>9</title>
<ellipse fill="none" stroke="black" cx="2353" cy="-394" rx="44.39" ry="18"/>
<text text-anchor="middle" x="2353" y="-390.3" font-family="Times,serif" font-size="14.00">B39 (a)</text>
</g>
<!-- 34 -->
<g id="node36" class="node">
<title>34</title>
<ellipse fill="none" stroke="gray" stroke-dasharray="5,2" cx="577" cy="-106" rx="28.7" ry="18"/>
<text text-anchor="middle" x="577" y="-102.3" font-family="Times,serif" font-size="14.00">P18</text>
</g>
<!-- 10&#45;&gt;34 -->
<g id="edge34" class="edge">
<title>10&#45;&gt;34</title>
<path fill="none" stroke="gray" stroke-dasharray="5,2" d="M577,-159.7C577,-151.98 577,-142.71 577,-134.11"/>
<polygon fill="gray" stroke="gray" points="580.5,-134.1 577,-124.1 573.5,-134.1 580.5,-134.1"/>
</g>
<!-- 11 -->
<g id="node13" class="node">
<title>11</title>
<ellipse fill="none" stroke="black" cx="872" cy="-539" rx="53.89" ry="18"/>
<text text-anchor="middle" x="872" y="-535.3" font-family="Times,serif" font-size="14.00">aBase (a)</text>
</g>
<!-- 11&#45;&gt;2 -->
<g id="edge3" class="edge">
<title>11&#45;&gt;2</title>
<path fill="none" stroke="black" stroke-width="2" d="M819.35,-534.69C723.13,-528.18 512.64,-511.91 337,-484 327.95,-482.56 318.38,-480.73 309.15,-478.81"/>
<polygon fill="black" stroke="black" stroke-width="2" points="309.83,-475.38 299.32,-476.7 308.36,-482.22 309.83,-475.38"/>
</g>
<!-- 11&#45;&gt;7 -->
<g id="edge8" class="edge">
<title>11&#45;&gt;7</title>
<path fill="none" stroke="blue" d="M820.84,-533.22C743.69,-525.56 593.15,-508.81 467,-484 462.31,-483.08 457.46,-482.02 452.61,-480.88"/>
<polygon fill="blue" stroke="blue" points="453.28,-477.44 442.74,-478.47 451.62,-484.24 453.28,-477.44"/>
</g>
<!-- 16 -->
<g id="node18" class="node">
<title>16</title>
<ellipse fill="none" stroke="black" cx="529" cy="-466" rx="52.79" ry="18"/>
<text text-anchor="middle" x="529" y="-462.3" font-family="Times,serif" font-size="14.00">M136 (a)</text>
</g>
<!-- 11&#45;&gt;16 -->
<g id="edge16" class="edge">
<title>11&#45;&gt;16</title>
<path fill="none" stroke="black" stroke-width="2" d="M825.03,-530.12C769.04,-520.47 672.77,-503.04 591,-484 586.66,-482.99 582.17,-481.88 577.68,-480.73"/>
<polygon fill="black" stroke="black" stroke-width="2" points="578.47,-477.32 567.91,-478.17 576.69,-484.09 578.47,-477.32"/>
</g>
<!-- 17 -->
<g id="node19" class="node">
<title>17</title>
<ellipse fill="none" stroke="black" cx="650" cy="-466" rx="50.09" ry="18"/>
<text text-anchor="middle" x="650" y="-462.3" font-family="Times,serif" font-size="14.00">Neap (a)</text>
</g>
<!-- 11&#45;&gt;17 -->
<g id="edge17" class="edge">
<title>11&#45;&gt;17</title>
<path fill="none" stroke="black" stroke-width="2" d="M834.34,-525.96C796.06,-513.71 736.7,-494.73 695.74,-481.63"/>
<polygon fill="black" stroke="black" stroke-width="2" points="696.59,-478.23 686,-478.51 694.46,-484.89 696.59,-478.23"/>
</g>
<!-- 19 -->
<g id="node21" class="node">
<title>19</title>
<ellipse fill="none" stroke="black" cx="761" cy="-466" rx="42.79" ry="18"/>
<text text-anchor="middle" x="761" y="-462.3" font-family="Times,serif" font-size="14.00">La2 (a)</text>
</g>
<!-- 11&#45;&gt;19 -->
<g id="edge19" class="edge">
<title>11&#45;&gt;19</title>
<path fill="none" stroke="black" stroke-width="2" d="M848.19,-522.77C831.91,-512.36 810.17,-498.45 792.47,-487.13"/>
<polygon fill="black" stroke="black" stroke-width="2" points="793.95,-483.92 783.64,-481.48 790.17,-489.82 793.95,-483.92"/>
</g>
<!-- 20 -->
<g id="node22" class="node">
<title>20</title>
<ellipse fill="none" stroke="gray" stroke-dasharray="5,2" cx="872" cy="-466" rx="50.09" ry="18"/>
<text text-anchor="middle" x="872" y="-462.3" font-family="Times,serif" font-size="14.00">Savile&#45;Η</text>
</g>
<!-- 11&#45;&gt;20 -->
<g id="edge20" class="edge">
<title>11&#45;&gt;20</title>
<path fill="none" stroke="gray" stroke-width="2" d="M872,-520.81C872,-512.79 872,-503.05 872,-494.07"/>
<polygon fill="gray" stroke="gray" stroke-width="2" points="875.5,-494.03 872,-484.03 868.5,-494.03 875.5,-494.03"/>
</g>
<!-- 22 -->
<g id="node24" class="node">
<title>22</title>
<ellipse fill="none" stroke="black" cx="984" cy="-466" rx="44.39" ry="18"/>
<text text-anchor="middle" x="984" y="-462.3" font-family="Times,serif" font-size="14.00">A25 (a)</text>
</g>
<!-- 11&#45;&gt;22 -->
<g id="edge22" class="edge">
<title>11&#45;&gt;22</title>
<path fill="none" stroke="black" stroke-dasharray="5,2" d="M896.03,-522.77C912.45,-512.36 934.38,-498.45 952.24,-487.13"/>
<polygon fill="black" stroke="black" points="954.59,-489.79 961.16,-481.48 950.84,-483.88 954.59,-489.79"/>
</g>
<!-- 24 -->
<g id="node26" class="node">
<title>24</title>
<ellipse fill="none" stroke="gray" stroke-dasharray="5,2" cx="1081" cy="-466" rx="34.39" ry="18"/>
<text text-anchor="middle" x="1081" y="-462.3" font-family="Times,serif" font-size="14.00">S249</text>
</g>
<!-- 11&#45;&gt;24 -->
<g id="edge24" class="edge">
<title>11&#45;&gt;24</title>
<path fill="none" stroke="gray" d="M910.2,-526.12C943.77,-515.54 993.85,-499.39 1037,-484 1039.52,-483.1 1042.11,-482.16 1044.71,-481.19"/>
<polygon fill="gray" stroke="gray" points="1045.97,-484.46 1054.09,-477.65 1043.5,-477.91 1045.97,-484.46"/>
</g>
<!-- 26 -->
<g id="node28" class="node">
<title>26</title>
<ellipse fill="none" stroke="black" cx="1647" cy="-466" rx="48.99" ry="18"/>
<text text-anchor="middle" x="1647" y="-462.3" font-family="Times,serif" font-size="14.00">La22 (a)</text>
</g>
<!-- 11&#45;&gt;26 -->
<g id="edge26" class="edge">
<title>11&#45;&gt;26</title>
<path fill="none" stroke="black" stroke-dasharray="5,2" d="M923.45,-533.29C1062.44,-520.55 1444.76,-485.53 1590,-472.22"/>
<polygon fill="black" stroke="black" points="1590.4,-475.7 1600.04,-471.3 1589.77,-468.73 1590.4,-475.7"/>
</g>
<!-- 36 -->
<g id="node38" class="node">
<title>36</title>
<ellipse fill="none" stroke="black" cx="1993" cy="-466" rx="45.49" ry="18"/>
<text text-anchor="middle" x="1993" y="-462.3" font-family="Times,serif" font-size="14.00">Nan (b)</text>
</g>
<!-- 11&#45;&gt;36 -->
<g id="edge36" class="edge">
<title>11&#45;&gt;36</title>
<path fill="none" stroke="blue" d="M924.56,-534.67C1112.11,-522.79 1747.38,-482.56 1938.29,-470.46"/>
<polygon fill="blue" stroke="blue" points="1938.62,-473.95 1948.38,-469.83 1938.17,-466.97 1938.62,-473.95"/>
</g>
<!-- 39 -->
<g id="node41" class="node">
<title>39</title>
<ellipse fill="none" stroke="black" cx="2226" cy="-466" rx="52.79" ry="18"/>
<text text-anchor="middle" x="2226" y="-462.3" font-family="Times,serif" font-size="14.00">LaSM (a)</text>
</g>
<!-- 11&#45;&gt;39 -->
<g id="edge39" class="edge">
<title>11&#45;&gt;39</title>
<path fill="none" stroke="black" d="M925.63,-536.47C1092.13,-531.51 1614.89,-514.43 2047,-484 2086.96,-481.19 2131.84,-476.92 2166.66,-473.37"/>
<polygon fill="black" stroke="black" points="2167.08,-476.84 2176.67,-472.34 2166.36,-469.88 2167.08,-476.84"/>
</g>
<!-- 35 -->
<g id="node37" class="node">
<title>35</title>
<ellipse fill="none" stroke="black" cx="456" cy="-34" rx="40.89" ry="18"/>
<text text-anchor="middle" x="456" y="-30.3" font-family="Times,serif" font-size="14.00">Sin (a)</text>
</g>
<!-- 13&#45;&gt;35 -->
<g id="edge35" class="edge">
<title>13&#45;&gt;35</title>
<path fill="none" stroke="black" stroke-dasharray="1,5" d="M456,-87.7C456,-79.98 456,-70.71 456,-62.11"/>
<polygon fill="black" stroke="black" points="459.5,-62.1 456,-52.1 452.5,-62.1 459.5,-62.1"/>
</g>
<!-- 14 -->
<g id="node16" class="node">
<title>14</title>
<ellipse fill="none" stroke="gray" stroke-dasharray="5,2" cx="473" cy="-322" rx="36" ry="18"/>
<text text-anchor="middle" x="473" y="-318.3" font-family="Times,serif" font-size="14.00">La2&#45;c</text>
</g>
<!-- 15 -->
<g id="node17" class="node">
<title>15</title>
<ellipse fill="none" stroke="black" cx="1523" cy="-394" rx="55.79" ry="18"/>
<text text-anchor="middle" x="1523" y="-390.3" font-family="Times,serif" font-size="14.00">V2036 (a)</text>
</g>
<!-- 23 -->
<g id="node25" class="node">
<title>23</title>
<ellipse fill="none" stroke="black" cx="577" cy="-394" rx="55.79" ry="18"/>
<text text-anchor="middle" x="577" y="-390.3" font-family="Times,serif" font-size="14.00">V1629 (a)</text>
</g>
<!-- 17&#45;&gt;23 -->
<g id="edge23" class="edge">
<title>17&#45;&gt;23</title>
<path fill="none" stroke="black" stroke-dasharray="1,5" d="M633.07,-448.76C623.65,-439.73 611.75,-428.33 601.35,-418.35"/>
<polygon fill="black" stroke="black" points="603.73,-415.78 594.09,-411.39 598.89,-420.84 603.73,-415.78"/>
</g>
<!-- 18 -->
<g id="node20" class="node">
<title>18</title>
<ellipse fill="none" stroke="black" cx="1647" cy="-394" rx="50.09" ry="18"/>
<text text-anchor="middle" x="1647" y="-390.3" font-family="Times,serif" font-size="14.00">V565 (a)</text>
</g>
<!-- 21 -->
<g id="node23" class="node">
<title>21</title>
<ellipse fill="none" stroke="black" cx="813" cy="-394" rx="44.39" ry="18"/>
<text text-anchor="middle" x="813" y="-390.3" font-family="Times,serif" font-size="14.00">P01 (a)</text>
</g>
<!-- 22&#45;&gt;1 -->
<g id="edge2" class="edge">
<title>22&#45;&gt;1</title>
<path fill="none" stroke="black" stroke-dasharray="1,5" d="M951.08,-453.86C944.46,-451.79 937.54,-449.73 931,-448 855.92,-428.11 835.37,-430.76 760,-412 755.99,-411 751.83,-409.91 747.67,-408.79"/>
<polygon fill="black" stroke="black" points="748.6,-405.41 738.03,-406.12 746.73,-412.16 748.6,-405.41"/>
</g>
<!-- 22&#45;&gt;21 -->
<g id="edge21" class="edge">
<title>22&#45;&gt;21</title>
<path fill="none" stroke="black" stroke-dasharray="5,2" d="M953.82,-452.65C925.7,-441.14 883.6,-423.9 852.75,-411.27"/>
<polygon fill="black" stroke="black" points="853.74,-407.9 843.16,-407.35 851.09,-414.38 853.74,-407.9"/>
</g>
<!-- 28 -->
<g id="node30" class="node">
<title>28</title>
<ellipse fill="none" stroke="black" cx="919" cy="-394" rx="44.39" ry="18"/>
<text text-anchor="middle" x="919" y="-390.3" font-family="Times,serif" font-size="14.00">S32 (a)</text>
</g>
<!-- 22&#45;&gt;28 -->
<g id="edge28" class="edge">
<title>22&#45;&gt;28</title>
<path fill="none" stroke="black" stroke-dasharray="5,2" d="M968.92,-448.76C960.64,-439.84 950.21,-428.61 941.03,-418.72"/>
<polygon fill="black" stroke="black" points="943.36,-416.09 933.99,-411.15 938.23,-420.86 943.36,-416.09"/>
</g>
<!-- 32 -->
<g id="node34" class="node">
<title>32</title>
<ellipse fill="none" stroke="black" cx="1021" cy="-394" rx="40.09" ry="18"/>
<text text-anchor="middle" x="1021" y="-390.3" font-family="Times,serif" font-size="14.00">Pal (a)</text>
</g>
<!-- 22&#45;&gt;32 -->
<g id="edge32" class="edge">
<title>22&#45;&gt;32</title>
<path fill="none" stroke="black" stroke-dasharray="5,2" d="M992.96,-448.05C997.27,-439.89 1002.55,-429.91 1007.35,-420.82"/>
<polygon fill="black" stroke="black" points="1010.55,-422.27 1012.13,-411.79 1004.36,-418.99 1010.55,-422.27"/>
</g>
<!-- 37 -->
<g id="node39" class="node">
<title>37</title>
<ellipse fill="none" stroke="black" cx="1129" cy="-394" rx="50.09" ry="18"/>
<text text-anchor="middle" x="1129" y="-390.3" font-family="Times,serif" font-size="14.00">V566 (a)</text>
</g>
<!-- 22&#45;&gt;37 -->
<g id="edge37" class="edge">
<title>22&#45;&gt;37</title>
<path fill="none" stroke="black" stroke-dasharray="5,2" d="M1011.27,-451.83C1033.82,-440.95 1066.09,-425.37 1091.15,-413.27"/>
<polygon fill="black" stroke="black" points="1092.88,-416.33 1100.36,-408.83 1089.83,-410.02 1092.88,-416.33"/>
</g>
<!-- 23&#45;&gt;14 -->
<g id="edge14" class="edge">
<title>23&#45;&gt;14</title>
<path fill="none" stroke="gray" stroke-width="2" d="M553.92,-377.46C538.67,-367.2 518.56,-353.66 502.2,-342.65"/>
<polygon fill="gray" stroke="gray" stroke-width="2" points="503.8,-339.51 493.55,-336.83 499.89,-345.32 503.8,-339.51"/>
</g>
<!-- 33 -->
<g id="node35" class="node">
<title>33</title>
<ellipse fill="none" stroke="black" cx="577" cy="-322" rx="50.09" ry="18"/>
<text text-anchor="middle" x="577" y="-318.3" font-family="Times,serif" font-size="14.00">V568 (a)</text>
</g>
<!-- 23&#45;&gt;33 -->
<g id="edge33" class="edge">
<title>23&#45;&gt;33</title>
<path fill="none" stroke="black" stroke-dasharray="5,2" d="M577,-375.7C577,-367.98 577,-358.71 577,-350.11"/>
<polygon fill="black" stroke="black" points="580.5,-350.1 577,-340.1 573.5,-350.1 580.5,-350.1"/>
</g>
<!-- 40 -->
<g id="node42" class="node">
<title>40</title>
<ellipse fill="none" stroke="black" cx="695" cy="-322" rx="50.09" ry="18"/>
<text text-anchor="middle" x="695" y="-318.3" font-family="Times,serif" font-size="14.00">V536 (a)</text>
</g>
<!-- 23&#45;&gt;40 -->
<g id="edge40" class="edge">
<title>23&#45;&gt;40</title>
<path fill="none" stroke="black" stroke-dasharray="5,2" d="M602.6,-377.81C619.85,-367.58 642.76,-353.99 661.46,-342.9"/>
<polygon fill="black" stroke="black" points="663.44,-345.79 670.25,-337.68 659.87,-339.77 663.44,-345.79"/>
</g>
<!-- 25 -->
<g id="node27" class="node">
<title>25</title>
<ellipse fill="none" stroke="black" cx="1765" cy="-394" rx="50.09" ry="18"/>
<text text-anchor="middle" x="1765" y="-390.3" font-family="Times,serif" font-size="14.00">V571 (a)</text>
</g>
<!-- 26&#45;&gt;0 -->
<g id="edge1" class="edge">
<title>26&#45;&gt;0</title>
<path fill="none" stroke="black" stroke-dasharray="1,5" d="M1602.49,-458.45C1541.32,-449.23 1427.94,-431.38 1332,-412 1326.73,-410.94 1321.25,-409.76 1315.79,-408.55"/>
<polygon fill="black" stroke="black" points="1316.52,-405.13 1305.99,-406.33 1314.97,-411.95 1316.52,-405.13"/>
</g>
<!-- 26&#45;&gt;4 -->
<g id="edge5" class="edge">
<title>26&#45;&gt;4</title>
<path fill="none" stroke="black" stroke-dasharray="1,5" d="M1609.27,-454.52C1565.56,-442.38 1493.37,-422.32 1445.01,-408.89"/>
<polygon fill="black" stroke="black" points="1445.64,-405.43 1435.07,-406.13 1443.77,-412.18 1445.64,-405.43"/>
</g>
<!-- 26&#45;&gt;15 -->
<g id="edge15" class="edge">
<title>26&#45;&gt;15</title>
<path fill="none" stroke="black" stroke-dasharray="5,2" d="M1621.31,-450.5C1603.1,-440.22 1578.44,-426.3 1558.37,-414.97"/>
<polygon fill="black" stroke="black" points="1559.94,-411.84 1549.52,-409.97 1556.5,-417.93 1559.94,-411.84"/>
</g>
<!-- 26&#45;&gt;18 -->
<g id="edge18" class="edge">
<title>26&#45;&gt;18</title>
<path fill="none" stroke="black" stroke-dasharray="5,2" d="M1647,-447.7C1647,-439.98 1647,-430.71 1647,-422.11"/>
<polygon fill="black" stroke="black" points="1650.5,-422.1 1647,-412.1 1643.5,-422.1 1650.5,-422.1"/>
</g>
<!-- 26&#45;&gt;25 -->
<g id="edge25" class="edge">
<title>26&#45;&gt;25</title>
<path fill="none" stroke="black" stroke-dasharray="1,5" d="M1671.74,-450.33C1689.12,-440.01 1712.58,-426.1 1731.62,-414.8"/>
<polygon fill="black" stroke="black" points="1733.48,-417.77 1740.3,-409.65 1729.91,-411.75 1733.48,-417.77"/>
</g>
<!-- 27 -->
<g id="node29" class="node">
<title>27</title>
<ellipse fill="none" stroke="black" cx="1882" cy="-394" rx="48.99" ry="18"/>
<text text-anchor="middle" x="1882" y="-390.3" font-family="Times,serif" font-size="14.00">La35 (a)</text>
</g>
<!-- 26&#45;&gt;27 -->
<g id="edge27" class="edge">
<title>26&#45;&gt;27</title>
<path fill="none" stroke="black" stroke-dasharray="1,5" d="M1683.72,-454.06C1724.64,-441.87 1790.91,-422.13 1835.44,-408.87"/>
<polygon fill="black" stroke="black" points="1836.57,-412.19 1845.15,-405.98 1834.57,-405.48 1836.57,-412.19"/>
</g>
<!-- 38 -->
<g id="node40" class="node">
<title>38</title>
<ellipse fill="none" stroke="black" cx="1999" cy="-394" rx="50.09" ry="18"/>
<text text-anchor="middle" x="1999" y="-390.3" font-family="Times,serif" font-size="14.00">A116 (a)</text>
</g>
<!-- 26&#45;&gt;38 -->
<g id="edge38" class="edge">
<title>26&#45;&gt;38</title>
<path fill="none" stroke="black" stroke-dasharray="5,2" d="M1691.47,-458.4C1749.13,-449.51 1852.67,-432.42 1940,-412 1944.03,-411.06 1948.19,-410.01 1952.36,-408.91"/>
<polygon fill="black" stroke="black" points="1953.29,-412.29 1962.01,-406.28 1951.44,-405.53 1953.29,-412.29"/>
</g>
<!-- 41 -->
<g id="node43" class="node">
<title>41</title>
<ellipse fill="none" stroke="black" cx="2114" cy="-394" rx="46.59" ry="18"/>
<text text-anchor="middle" x="2114" y="-390.3" font-family="Times,serif" font-size="14.00">Bodl (a)</text>
</g>
<!-- 26&#45;&gt;41 -->
<g id="edge41" class="edge">
<title>26&#45;&gt;41</title>
<path fill="none" stroke="black" stroke-dasharray="5,2" d="M1694.28,-461.48C1771.18,-455.18 1927.87,-439.94 2058,-412 2061.91,-411.16 2065.94,-410.18 2069.97,-409.11"/>
<polygon fill="black" stroke="black" points="2071.19,-412.41 2079.88,-406.34 2069.31,-405.66 2071.19,-412.41"/>
</g>
<!-- 30 -->
<g id="node32" class="node">
<title>30</title>
<ellipse fill="none" stroke="black" cx="2235" cy="-394" rx="55.79" ry="18"/>
<text text-anchor="middle" x="2235" y="-390.3" font-family="Times,serif" font-size="14.00">V2250 (b)</text>
</g>
<!-- 31 -->
<g id="node33" class="node">
<title>31</title>
<ellipse fill="none" stroke="black" cx="1127" cy="-322" rx="55.79" ry="18"/>
<text text-anchor="middle" x="1127" y="-318.3" font-family="Times,serif" font-size="14.00">V1639 (a)</text>
</g>
<!-- 33&#45;&gt;6 -->
<g id="edge7" class="edge">
<title>33&#45;&gt;6</title>
<path fill="none" stroke="black" stroke-dasharray="1,5" d="M577,-303.7C577,-295.98 577,-286.71 577,-278.11"/>
<polygon fill="black" stroke="black" points="580.5,-278.1 577,-268.1 573.5,-278.1 580.5,-278.1"/>
</g>
<!-- 36&#45;&gt;30 -->
<g id="edge30" class="edge">
<title>36&#45;&gt;30</title>
<path fill="none" stroke="black" stroke-dasharray="5,2" d="M2028.71,-454.67C2069.99,-442.73 2138.21,-423 2184.81,-409.52"/>
<polygon fill="black" stroke="black" points="2186.07,-412.8 2194.7,-406.66 2184.12,-406.07 2186.07,-412.8"/>
</g>
<!-- 37&#45;&gt;31 -->
<g id="edge31" class="edge">
<title>37&#45;&gt;31</title>
<path fill="none" stroke="black" stroke-dasharray="1,5" d="M1128.51,-375.7C1128.29,-367.98 1128.02,-358.71 1127.77,-350.11"/>
<polygon fill="black" stroke="black" points="1131.27,-350 1127.49,-340.1 1124.28,-350.2 1131.27,-350"/>
</g>
<!-- 39&#45;&gt;9 -->
<g id="edge10" class="edge">
<title>39&#45;&gt;9</title>
<path fill="none" stroke="black" stroke-dasharray="5,2" d="M2252.62,-450.33C2271.88,-439.71 2298.07,-425.27 2318.87,-413.81"/>
<polygon fill="black" stroke="black" points="2320.64,-416.83 2327.71,-408.94 2317.26,-410.7 2320.64,-416.83"/>
</g>
</g>
</svg>
