<?xml version="1.0" encoding="UTF-8" standalone="no"?>
<!DOCTYPE svg PUBLIC "-//W3C//DTD SVG 1.1//EN"
 "http://www.w3.org/Graphics/SVG/1.1/DTD/svg11.dtd">
<!-- Generated by graphviz version 2.43.0 (0)
 -->
<!-- Title: textual_flow Pages: 1 -->
<svg width="1818pt" height="654pt"
 viewBox="0.00 0.00 1818.00 654.00" xmlns="http://www.w3.org/2000/svg" xmlns:xlink="http://www.w3.org/1999/xlink">
<g id="graph0" class="graph" transform="scale(1 1) rotate(0) translate(4 650)">
<title>textual_flow</title>
<polygon fill="white" stroke="transparent" points="-4,4 -4,-650 1814,-650 1814,4 -4,4"/>
<g id="clust1" class="cluster">
<title>cluster_legend</title>
<polygon fill="none" stroke="black" points="8,-584 8,-638 164,-638 164,-584 8,-584"/>
</g>
<g id="clust2" class="cluster">
<title>cluster_plot</title>
</g>
<!-- label -->
<g id="node1" class="node">
<title>label</title>
<text text-anchor="middle" x="86" y="-614.8" font-family="Times,serif" font-size="14.00">adstag1.2.40U22</text>
<text text-anchor="middle" x="86" y="-599.8" font-family="Times,serif" font-size="14.00">Con = 3</text>
</g>
<!-- 0 -->
<g id="node2" class="node">
<title>0</title>
<ellipse fill="none" stroke="black" cx="1654" cy="-394" rx="50.09" ry="18"/>
<text text-anchor="middle" x="1654" y="-390.3" font-family="Times,serif" font-size="14.00">V536 (a)</text>
</g>
<!-- 32 -->
<g id="node34" class="node">
<title>32</title>
<ellipse fill="none" stroke="black" cx="1645" cy="-322" rx="50.09" ry="18"/>
<text text-anchor="middle" x="1645" y="-318.3" font-family="Times,serif" font-size="14.00">V568 (a)</text>
</g>
<!-- 0&#45;&gt;32 -->
<g id="edge32" class="edge">
<title>0&#45;&gt;32</title>
<path fill="none" stroke="black" stroke-dasharray="1,5" d="M1651.78,-375.7C1650.78,-367.98 1649.59,-358.71 1648.49,-350.11"/>
<polygon fill="black" stroke="black" points="1651.95,-349.58 1647.2,-340.1 1645,-350.47 1651.95,-349.58"/>
</g>
<!-- 1 -->
<g id="node3" class="node">
<title>1</title>
<ellipse fill="none" stroke="black" cx="224" cy="-466" rx="44.39" ry="18"/>
<text text-anchor="middle" x="224" y="-462.3" font-family="Times,serif" font-size="14.00">B39 (a)</text>
</g>
<!-- 2 -->
<g id="node4" class="node">
<title>2</title>
<ellipse fill="none" stroke="black" cx="632" cy="-394" rx="44.39" ry="18"/>
<text text-anchor="middle" x="632" y="-390.3" font-family="Times,serif" font-size="14.00">P74 (a)</text>
</g>
<!-- 3 -->
<g id="node5" class="node">
<title>3</title>
<ellipse fill="none" stroke="black" cx="460" cy="-466" rx="44.39" ry="18"/>
<text text-anchor="middle" x="460" y="-462.3" font-family="Times,serif" font-size="14.00">S32 (a)</text>
</g>
<!-- 4 -->
<g id="node6" class="node">
<title>4</title>
<ellipse fill="none" stroke="black" cx="514" cy="-394" rx="55.79" ry="18"/>
<text text-anchor="middle" x="514" y="-390.3" font-family="Times,serif" font-size="14.00">V2036 (a)</text>
</g>
<!-- 5 -->
<g id="node7" class="node">
<title>5</title>
<ellipse fill="none" stroke="black" cx="744" cy="-394" rx="50.09" ry="18"/>
<text text-anchor="middle" x="744" y="-390.3" font-family="Times,serif" font-size="14.00">V565 (a)</text>
</g>
<!-- 6 -->
<g id="node8" class="node">
<title>6</title>
<ellipse fill="none" stroke="black" cx="1419" cy="-466" rx="55.79" ry="18"/>
<text text-anchor="middle" x="1419" y="-462.3" font-family="Times,serif" font-size="14.00">V1897 (a)</text>
</g>
<!-- 13 -->
<g id="node15" class="node">
<title>13</title>
<ellipse fill="none" stroke="black" cx="1442" cy="-394" rx="42.79" ry="18"/>
<text text-anchor="middle" x="1442" y="-390.3" font-family="Times,serif" font-size="14.00">Bas (a)</text>
</g>
<!-- 6&#45;&gt;13 -->
<g id="edge14" class="edge">
<title>6&#45;&gt;13</title>
<path fill="none" stroke="black" d="M1424.57,-448.05C1427.16,-440.18 1430.3,-430.62 1433.2,-421.79"/>
<polygon fill="black" stroke="black" points="1436.53,-422.87 1436.32,-412.28 1429.88,-420.68 1436.53,-422.87"/>
</g>
<!-- 29 -->
<g id="node31" class="node">
<title>29</title>
<ellipse fill="none" stroke="black" cx="1544" cy="-394" rx="41.69" ry="18"/>
<text text-anchor="middle" x="1544" y="-390.3" font-family="Times,serif" font-size="14.00">Est (a)</text>
</g>
<!-- 6&#45;&gt;29 -->
<g id="edge29" class="edge">
<title>6&#45;&gt;29</title>
<path fill="none" stroke="black" stroke-dasharray="1,5" d="M1445.82,-449.98C1464.73,-439.39 1490.19,-425.13 1510.45,-413.79"/>
<polygon fill="black" stroke="black" points="1512.34,-416.74 1519.35,-408.8 1508.92,-410.64 1512.34,-416.74"/>
</g>
<!-- 7 -->
<g id="node9" class="node">
<title>7</title>
<ellipse fill="none" stroke="black" cx="1328" cy="-322" rx="50.09" ry="18"/>
<text text-anchor="middle" x="1328" y="-318.3" font-family="Times,serif" font-size="14.00">A336 (a)</text>
</g>
<!-- 8 -->
<g id="node10" class="node">
<title>8</title>
<ellipse fill="none" stroke="black" cx="1677" cy="-466" rx="55.79" ry="18"/>
<text text-anchor="middle" x="1677" y="-462.3" font-family="Times,serif" font-size="14.00">V1629 (a)</text>
</g>
<!-- 8&#45;&gt;0 -->
<g id="edge1" class="edge">
<title>8&#45;&gt;0</title>
<path fill="none" stroke="black" stroke-dasharray="5,2" d="M1671.43,-448.05C1668.84,-440.18 1665.7,-430.62 1662.8,-421.79"/>
<polygon fill="black" stroke="black" points="1666.12,-420.68 1659.68,-412.28 1659.47,-422.87 1666.12,-420.68"/>
</g>
<!-- 16 -->
<g id="node18" class="node">
<title>16</title>
<ellipse fill="none" stroke="gray" stroke-dasharray="5,2" cx="1758" cy="-394" rx="36" ry="18"/>
<text text-anchor="middle" x="1758" y="-390.3" font-family="Times,serif" font-size="14.00">La2&#45;c</text>
</g>
<!-- 8&#45;&gt;16 -->
<g id="edge17" class="edge">
<title>8&#45;&gt;16</title>
<path fill="none" stroke="gray" stroke-width="2" d="M1695.79,-448.76C1706.8,-439.25 1720.85,-427.1 1732.81,-416.77"/>
<polygon fill="gray" stroke="gray" stroke-width="2" points="1735.42,-419.14 1740.7,-409.95 1730.84,-413.84 1735.42,-419.14"/>
</g>
<!-- 9 -->
<g id="node11" class="node">
<title>9</title>
<ellipse fill="none" stroke="black" cx="286" cy="-538" rx="52.79" ry="18"/>
<text text-anchor="middle" x="286" y="-534.3" font-family="Times,serif" font-size="14.00">LaSM (a)</text>
</g>
<!-- 9&#45;&gt;1 -->
<g id="edge2" class="edge">
<title>9&#45;&gt;1</title>
<path fill="none" stroke="black" stroke-dasharray="5,2" d="M271.31,-520.41C263.59,-511.69 253.98,-500.85 245.44,-491.21"/>
<polygon fill="black" stroke="black" points="247.84,-488.64 238.59,-483.47 242.6,-493.28 247.84,-488.64"/>
</g>
<!-- 10 -->
<g id="node12" class="node">
<title>10</title>
<ellipse fill="none" stroke="black" cx="411" cy="-538" rx="52.79" ry="18"/>
<text text-anchor="middle" x="411" y="-534.3" font-family="Times,serif" font-size="14.00">M136 (a)</text>
</g>
<!-- 11 -->
<g id="node13" class="node">
<title>11</title>
<ellipse fill="none" stroke="black" cx="1511" cy="-106" rx="50.09" ry="18"/>
<text text-anchor="middle" x="1511" y="-102.3" font-family="Times,serif" font-size="14.00">Marc (a)</text>
</g>
<!-- 30 -->
<g id="node32" class="node">
<title>30</title>
<ellipse fill="none" stroke="black" cx="1511" cy="-34" rx="46.29" ry="18"/>
<text text-anchor="middle" x="1511" y="-30.3" font-family="Times,serif" font-size="14.00">Mon (a)</text>
</g>
<!-- 11&#45;&gt;30 -->
<g id="edge30" class="edge">
<title>11&#45;&gt;30</title>
<path fill="none" stroke="black" stroke-dasharray="1,5" d="M1511,-87.7C1511,-79.98 1511,-70.71 1511,-62.11"/>
<polygon fill="black" stroke="black" points="1514.5,-62.1 1511,-52.1 1507.5,-62.1 1514.5,-62.1"/>
</g>
<!-- 12 -->
<g id="node14" class="node">
<title>12</title>
<ellipse fill="none" stroke="black" cx="1511" cy="-178" rx="40.89" ry="18"/>
<text text-anchor="middle" x="1511" y="-174.3" font-family="Times,serif" font-size="14.00">Sin (a)</text>
</g>
<!-- 12&#45;&gt;11 -->
<g id="edge12" class="edge">
<title>12&#45;&gt;11</title>
<path fill="none" stroke="black" stroke-dasharray="1,5" d="M1511,-159.7C1511,-151.98 1511,-142.71 1511,-134.11"/>
<polygon fill="black" stroke="black" points="1514.5,-134.1 1511,-124.1 1507.5,-134.1 1514.5,-134.1"/>
</g>
<!-- 14 -->
<g id="node16" class="node">
<title>14</title>
<ellipse fill="none" stroke="black" cx="532" cy="-538" rx="50.09" ry="18"/>
<text text-anchor="middle" x="532" y="-534.3" font-family="Times,serif" font-size="14.00">V560 (a)</text>
</g>
<!-- 23 -->
<g id="node25" class="node">
<title>23</title>
<ellipse fill="none" stroke="black" cx="342" cy="-466" rx="55.79" ry="18"/>
<text text-anchor="middle" x="342" y="-462.3" font-family="Times,serif" font-size="14.00">V1920 (a)</text>
</g>
<!-- 14&#45;&gt;23 -->
<g id="edge24" class="edge">
<title>14&#45;&gt;23</title>
<path fill="none" stroke="black" stroke-dasharray="5,2" d="M498.03,-524.49C467.04,-513.07 421.02,-496.11 386.99,-483.57"/>
<polygon fill="black" stroke="black" points="387.88,-480.17 377.28,-480 385.46,-486.74 387.88,-480.17"/>
</g>
<!-- 15 -->
<g id="node17" class="node">
<title>15</title>
<ellipse fill="none" stroke="black" cx="572" cy="-466" rx="50.09" ry="18"/>
<text text-anchor="middle" x="572" y="-462.3" font-family="Times,serif" font-size="14.00">V566 (a)</text>
</g>
<!-- 33 -->
<g id="node35" class="node">
<title>33</title>
<ellipse fill="none" stroke="black" cx="236" cy="-394" rx="55.79" ry="18"/>
<text text-anchor="middle" x="236" y="-390.3" font-family="Times,serif" font-size="14.00">V1639 (a)</text>
</g>
<!-- 15&#45;&gt;33 -->
<g id="edge33" class="edge">
<title>15&#45;&gt;33</title>
<path fill="none" stroke="black" stroke-dasharray="1,5" d="M535.03,-453.66C527.76,-451.63 520.17,-449.64 513,-448 419.82,-426.74 394.43,-432.11 301,-412 296.4,-411.01 291.63,-409.91 286.86,-408.76"/>
<polygon fill="black" stroke="black" points="287.68,-405.35 277.13,-406.34 285.99,-412.15 287.68,-405.35"/>
</g>
<!-- 17 -->
<g id="node19" class="node">
<title>17</title>
<ellipse fill="none" stroke="black" cx="861" cy="-394" rx="48.99" ry="18"/>
<text text-anchor="middle" x="861" y="-390.3" font-family="Times,serif" font-size="14.00">La35 (a)</text>
</g>
<!-- 18 -->
<g id="node20" class="node">
<title>18</title>
<ellipse fill="none" stroke="black" cx="978" cy="-394" rx="50.09" ry="18"/>
<text text-anchor="middle" x="978" y="-390.3" font-family="Times,serif" font-size="14.00">V571 (a)</text>
</g>
<!-- 19 -->
<g id="node21" class="node">
<title>19</title>
<ellipse fill="none" stroke="gray" stroke-dasharray="5,2" cx="634" cy="-538" rx="34.39" ry="18"/>
<text text-anchor="middle" x="634" y="-534.3" font-family="Times,serif" font-size="14.00">S249</text>
</g>
<!-- 20 -->
<g id="node22" class="node">
<title>20</title>
<ellipse fill="none" stroke="black" cx="680" cy="-466" rx="40.09" ry="18"/>
<text text-anchor="middle" x="680" y="-462.3" font-family="Times,serif" font-size="14.00">Pal (a)</text>
</g>
<!-- 34 -->
<g id="node36" class="node">
<title>34</title>
<ellipse fill="none" stroke="black" cx="375" cy="-394" rx="64.99" ry="18"/>
<text text-anchor="middle" x="375" y="-390.3" font-family="Times,serif" font-size="14.00">Savile&#45;Η (a)</text>
</g>
<!-- 20&#45;&gt;34 -->
<g id="edge34" class="edge">
<title>20&#45;&gt;34</title>
<path fill="none" stroke="black" d="M650.15,-453.91C643.87,-451.78 637.26,-449.7 631,-448 551.41,-426.43 529.64,-429.23 449,-412 443.76,-410.88 438.32,-409.69 432.88,-408.48"/>
<polygon fill="black" stroke="black" points="433.64,-405.06 423.12,-406.28 432.11,-411.89 433.64,-405.06"/>
</g>
<!-- 21 -->
<g id="node23" class="node">
<title>21</title>
<ellipse fill="none" stroke="black" cx="1096" cy="-394" rx="50.09" ry="18"/>
<text text-anchor="middle" x="1096" y="-390.3" font-family="Times,serif" font-size="14.00">A116 (a)</text>
</g>
<!-- 22 -->
<g id="node24" class="node">
<title>22</title>
<ellipse fill="none" stroke="black" cx="1211" cy="-394" rx="46.59" ry="18"/>
<text text-anchor="middle" x="1211" y="-390.3" font-family="Times,serif" font-size="14.00">Bodl (a)</text>
</g>
<!-- 24 -->
<g id="node26" class="node">
<title>24</title>
<ellipse fill="none" stroke="black" cx="1620" cy="-178" rx="50.09" ry="18"/>
<text text-anchor="middle" x="1620" y="-174.3" font-family="Times,serif" font-size="14.00">V569 (b)</text>
</g>
<!-- 25 -->
<g id="node27" class="node">
<title>25</title>
<ellipse fill="none" stroke="black" cx="731" cy="-538" rx="44.39" ry="18"/>
<text text-anchor="middle" x="731" y="-534.3" font-family="Times,serif" font-size="14.00">A25 (a)</text>
</g>
<!-- 25&#45;&gt;3 -->
<g id="edge4" class="edge">
<title>25&#45;&gt;3</title>
<path fill="none" stroke="black" stroke-dasharray="5,2" d="M697.72,-526.01C690.9,-523.91 683.74,-521.8 677,-520 604.89,-500.78 585.05,-503.42 513,-484 509.63,-483.09 506.16,-482.1 502.68,-481.07"/>
<polygon fill="black" stroke="black" points="503.52,-477.67 492.94,-478.09 501.48,-484.36 503.52,-477.67"/>
</g>
<!-- 25&#45;&gt;15 -->
<g id="edge16" class="edge">
<title>25&#45;&gt;15</title>
<path fill="none" stroke="black" stroke-dasharray="5,2" d="M702.21,-524.32C676.88,-513.17 639.77,-496.84 611.64,-484.45"/>
<polygon fill="black" stroke="black" points="613.04,-481.24 602.48,-480.42 610.22,-487.65 613.04,-481.24"/>
</g>
<!-- 25&#45;&gt;20 -->
<g id="edge21" class="edge">
<title>25&#45;&gt;20</title>
<path fill="none" stroke="black" stroke-dasharray="5,2" d="M718.91,-520.41C712.69,-511.87 704.97,-501.28 698.06,-491.79"/>
<polygon fill="black" stroke="black" points="700.72,-489.49 692,-483.47 695.06,-493.61 700.72,-489.49"/>
</g>
<!-- 31 -->
<g id="node33" class="node">
<title>31</title>
<ellipse fill="none" stroke="black" cx="782" cy="-466" rx="44.39" ry="18"/>
<text text-anchor="middle" x="782" y="-462.3" font-family="Times,serif" font-size="14.00">P01 (a)</text>
</g>
<!-- 25&#45;&gt;31 -->
<g id="edge31" class="edge">
<title>25&#45;&gt;31</title>
<path fill="none" stroke="black" stroke-dasharray="5,2" d="M743.09,-520.41C749.31,-511.87 757.03,-501.28 763.94,-491.79"/>
<polygon fill="black" stroke="black" points="766.94,-493.61 770,-483.47 761.28,-489.49 766.94,-493.61"/>
</g>
<!-- 35 -->
<g id="node37" class="node">
<title>35</title>
<ellipse fill="none" stroke="black" cx="894" cy="-466" rx="50.09" ry="18"/>
<text text-anchor="middle" x="894" y="-462.3" font-family="Times,serif" font-size="14.00">Patm (a)</text>
</g>
<!-- 25&#45;&gt;35 -->
<g id="edge35" class="edge">
<title>25&#45;&gt;35</title>
<path fill="none" stroke="black" stroke-dasharray="1,5" d="M760.52,-524.32C786.56,-513.14 824.77,-496.73 853.64,-484.33"/>
<polygon fill="black" stroke="black" points="855.23,-487.46 863.04,-480.3 852.47,-481.03 855.23,-487.46"/>
</g>
<!-- 41 -->
<g id="node43" class="node">
<title>41</title>
<ellipse fill="none" stroke="black" cx="1011" cy="-466" rx="48.99" ry="18"/>
<text text-anchor="middle" x="1011" y="-462.3" font-family="Times,serif" font-size="14.00">La22 (a)</text>
</g>
<!-- 25&#45;&gt;41 -->
<g id="edge41" class="edge">
<title>25&#45;&gt;41</title>
<path fill="none" stroke="black" stroke-dasharray="1,5" d="M763.93,-525.87C770.54,-523.8 777.46,-521.74 784,-520 858.21,-500.25 878.54,-502.81 953,-484 956.84,-483.03 960.81,-481.98 964.78,-480.89"/>
<polygon fill="black" stroke="black" points="965.93,-484.2 974.61,-478.12 964.03,-477.46 965.93,-484.2"/>
</g>
<!-- 26 -->
<g id="node28" class="node">
<title>26</title>
<ellipse fill="none" stroke="gray" stroke-dasharray="5,2" cx="1741" cy="-106" rx="28.7" ry="18"/>
<text text-anchor="middle" x="1741" y="-102.3" font-family="Times,serif" font-size="14.00">P18</text>
</g>
<!-- 27 -->
<g id="node29" class="node">
<title>27</title>
<ellipse fill="none" stroke="black" cx="1741" cy="-178" rx="53.09" ry="18"/>
<text text-anchor="middle" x="1741" y="-174.3" font-family="Times,serif" font-size="14.00">M118 (b)</text>
</g>
<!-- 27&#45;&gt;26 -->
<g id="edge27" class="edge">
<title>27&#45;&gt;26</title>
<path fill="none" stroke="gray" stroke-dasharray="5,2" d="M1741,-159.7C1741,-151.98 1741,-142.71 1741,-134.11"/>
<polygon fill="gray" stroke="gray" points="1744.5,-134.1 1741,-124.1 1737.5,-134.1 1744.5,-134.1"/>
</g>
<!-- 28 -->
<g id="node30" class="node">
<title>28</title>
<ellipse fill="none" stroke="black" cx="682" cy="-611" rx="53.89" ry="18"/>
<text text-anchor="middle" x="682" y="-607.3" font-family="Times,serif" font-size="14.00">aBase (a)</text>
</g>
<!-- 28&#45;&gt;9 -->
<g id="edge10" class="edge">
<title>28&#45;&gt;9</title>
<path fill="none" stroke="black" d="M632.62,-603.61C567.34,-594.79 448.91,-577.52 349,-556 344.4,-555.01 339.63,-553.89 334.87,-552.71"/>
<polygon fill="black" stroke="black" points="335.72,-549.32 325.17,-550.24 333.99,-556.1 335.72,-549.32"/>
</g>
<!-- 28&#45;&gt;10 -->
<g id="edge11" class="edge">
<title>28&#45;&gt;10</title>
<path fill="none" stroke="black" stroke-width="2" d="M640.32,-599.42C598.1,-588.67 530.94,-571.43 473,-556 468.94,-554.92 464.72,-553.79 460.5,-552.64"/>
<polygon fill="black" stroke="black" stroke-width="2" points="461.23,-549.22 450.67,-549.97 459.4,-555.97 461.23,-549.22"/>
</g>
<!-- 28&#45;&gt;14 -->
<g id="edge15" class="edge">
<title>28&#45;&gt;14</title>
<path fill="none" stroke="black" stroke-width="2" d="M652.01,-595.8C628.5,-584.68 595.65,-569.13 570.25,-557.11"/>
<polygon fill="black" stroke="black" stroke-width="2" points="571.46,-553.8 560.92,-552.69 568.46,-560.13 571.46,-553.8"/>
</g>
<!-- 28&#45;&gt;19 -->
<g id="edge20" class="edge">
<title>28&#45;&gt;19</title>
<path fill="none" stroke="gray" d="M670.62,-593.17C664.68,-584.38 657.29,-573.46 650.71,-563.72"/>
<polygon fill="gray" stroke="gray" points="653.46,-561.54 644.96,-555.22 647.66,-565.46 653.46,-561.54"/>
</g>
<!-- 28&#45;&gt;25 -->
<g id="edge26" class="edge">
<title>28&#45;&gt;25</title>
<path fill="none" stroke="black" stroke-dasharray="5,2" d="M693.61,-593.17C699.59,-584.51 707.01,-573.77 713.65,-564.14"/>
<polygon fill="black" stroke="black" points="716.67,-565.92 719.47,-555.71 710.91,-561.95 716.67,-565.92"/>
</g>
<!-- 36 -->
<g id="node38" class="node">
<title>36</title>
<ellipse fill="none" stroke="black" cx="837" cy="-538" rx="43.59" ry="18"/>
<text text-anchor="middle" x="837" y="-534.3" font-family="Times,serif" font-size="14.00">La2 (b)</text>
</g>
<!-- 28&#45;&gt;36 -->
<g id="edge36" class="edge">
<title>28&#45;&gt;36</title>
<path fill="none" stroke="blue" stroke-width="2" d="M712.62,-595.97C737.61,-584.53 773.01,-568.31 799.66,-556.1"/>
<polygon fill="blue" stroke="blue" stroke-width="2" points="801.41,-559.15 809.05,-551.8 798.5,-552.79 801.41,-559.15"/>
</g>
<!-- 37 -->
<g id="node39" class="node">
<title>37</title>
<ellipse fill="none" stroke="black" cx="1419" cy="-538" rx="44.69" ry="18"/>
<text text-anchor="middle" x="1419" y="-534.3" font-family="Times,serif" font-size="14.00">Nan (a)</text>
</g>
<!-- 28&#45;&gt;37 -->
<g id="edge37" class="edge">
<title>28&#45;&gt;37</title>
<path fill="none" stroke="black" d="M733.24,-605.06C867.5,-592.13 1228.56,-557.35 1365.42,-544.16"/>
<polygon fill="black" stroke="black" points="1366.03,-547.62 1375.65,-543.18 1365.36,-540.65 1366.03,-547.62"/>
</g>
<!-- 40 -->
<g id="node42" class="node">
<title>40</title>
<ellipse fill="none" stroke="black" cx="1604" cy="-538" rx="50.09" ry="18"/>
<text text-anchor="middle" x="1604" y="-534.3" font-family="Times,serif" font-size="14.00">Neap (a)</text>
</g>
<!-- 28&#45;&gt;40 -->
<g id="edge40" class="edge">
<title>28&#45;&gt;40</title>
<path fill="none" stroke="black" stroke-width="2" d="M735.33,-607.48C862.95,-601.21 1195.96,-583.41 1473,-556 1497.85,-553.54 1525.26,-550.1 1548.56,-546.95"/>
<polygon fill="black" stroke="black" stroke-width="2" points="1549.17,-550.4 1558.61,-545.58 1548.23,-543.47 1549.17,-550.4"/>
</g>
<!-- 38 -->
<g id="node40" class="node">
<title>38</title>
<ellipse fill="none" stroke="black" cx="1628" cy="-250" rx="46.59" ry="18"/>
<text text-anchor="middle" x="1628" y="-246.3" font-family="Times,serif" font-size="14.00">Taur (a)</text>
</g>
<!-- 32&#45;&gt;38 -->
<g id="edge38" class="edge">
<title>32&#45;&gt;38</title>
<path fill="none" stroke="black" stroke-dasharray="1,5" d="M1640.88,-304.05C1638.99,-296.26 1636.7,-286.82 1634.58,-278.08"/>
<polygon fill="black" stroke="black" points="1637.96,-277.17 1632.2,-268.28 1631.15,-278.82 1637.96,-277.17"/>
</g>
<!-- 35&#45;&gt;4 -->
<g id="edge5" class="edge">
<title>35&#45;&gt;4</title>
<path fill="none" stroke="black" stroke-dasharray="1,5" d="M857.38,-453.58C850.02,-451.53 842.3,-449.56 835,-448 722.63,-424.03 691.66,-434.57 579,-412 574.31,-411.06 569.46,-409.99 564.62,-408.85"/>
<polygon fill="black" stroke="black" points="565.29,-405.41 554.75,-406.43 563.63,-412.21 565.29,-405.41"/>
</g>
<!-- 37&#45;&gt;6 -->
<g id="edge7" class="edge">
<title>37&#45;&gt;6</title>
<path fill="none" stroke="black" stroke-dasharray="1,5" d="M1419,-519.7C1419,-511.98 1419,-502.71 1419,-494.11"/>
<polygon fill="black" stroke="black" points="1422.5,-494.1 1419,-484.1 1415.5,-494.1 1422.5,-494.1"/>
</g>
<!-- 39 -->
<g id="node41" class="node">
<title>39</title>
<ellipse fill="none" stroke="black" cx="1548" cy="-466" rx="55.49" ry="18"/>
<text text-anchor="middle" x="1548" y="-462.3" font-family="Times,serif" font-size="14.00">V2250 (c)</text>
</g>
<!-- 37&#45;&gt;39 -->
<g id="edge39" class="edge">
<title>37&#45;&gt;39</title>
<path fill="none" stroke="blue" stroke-dasharray="5,2" d="M1444.49,-523.17C1463.76,-512.71 1490.48,-498.21 1511.95,-486.56"/>
<polygon fill="blue" stroke="blue" points="1513.67,-489.61 1520.79,-481.77 1510.33,-483.46 1513.67,-489.61"/>
</g>
<!-- 38&#45;&gt;12 -->
<g id="edge13" class="edge">
<title>38&#45;&gt;12</title>
<path fill="none" stroke="black" stroke-dasharray="1,5" d="M1603.76,-234.5C1586.19,-223.99 1562.26,-209.67 1543.11,-198.21"/>
<polygon fill="black" stroke="black" points="1544.79,-195.14 1534.41,-193.01 1541.2,-201.15 1544.79,-195.14"/>
</g>
<!-- 38&#45;&gt;24 -->
<g id="edge25" class="edge">
<title>38&#45;&gt;24</title>
<path fill="none" stroke="blue" stroke-dasharray="5,2" d="M1626.02,-231.7C1625.14,-223.98 1624.08,-214.71 1623.1,-206.11"/>
<polygon fill="blue" stroke="blue" points="1626.57,-205.64 1621.95,-196.1 1619.61,-206.44 1626.57,-205.64"/>
</g>
<!-- 38&#45;&gt;27 -->
<g id="edge28" class="edge">
<title>38&#45;&gt;27</title>
<path fill="none" stroke="blue" stroke-dasharray="5,2" d="M1651.69,-234.33C1668.04,-224.2 1690,-210.59 1708.06,-199.41"/>
<polygon fill="blue" stroke="blue" points="1709.9,-202.38 1716.56,-194.14 1706.22,-196.43 1709.9,-202.38"/>
</g>
<!-- 40&#45;&gt;8 -->
<g id="edge9" class="edge">
<title>40&#45;&gt;8</title>
<path fill="none" stroke="black" stroke-dasharray="1,5" d="M1620.93,-520.76C1630.35,-511.73 1642.25,-500.33 1652.65,-490.35"/>
<polygon fill="black" stroke="black" points="1655.11,-492.84 1659.91,-483.39 1650.27,-487.78 1655.11,-492.84"/>
</g>
<!-- 41&#45;&gt;2 -->
<g id="edge3" class="edge">
<title>41&#45;&gt;2</title>
<path fill="none" stroke="black" stroke-dasharray="1,5" d="M975.33,-453.62C967.99,-451.55 960.29,-449.55 953,-448 835.44,-423.03 802.23,-438.46 685,-412 681.39,-411.19 677.68,-410.24 673.98,-409.21"/>
<polygon fill="black" stroke="black" points="674.84,-405.82 664.26,-406.35 672.87,-412.53 674.84,-405.82"/>
</g>
<!-- 41&#45;&gt;5 -->
<g id="edge6" class="edge">
<title>41&#45;&gt;5</title>
<path fill="none" stroke="black" stroke-dasharray="5,2" d="M974.57,-454.02C967.43,-451.96 960,-449.86 953,-448 886.75,-430.35 869.29,-429.5 803,-412 799.17,-410.99 795.2,-409.91 791.23,-408.81"/>
<polygon fill="black" stroke="black" points="791.96,-405.38 781.38,-406.05 790.06,-412.12 791.96,-405.38"/>
</g>
<!-- 41&#45;&gt;17 -->
<g id="edge18" class="edge">
<title>41&#45;&gt;17</title>
<path fill="none" stroke="black" stroke-dasharray="1,5" d="M982.08,-451.5C958.5,-440.5 925,-424.86 899.21,-412.83"/>
<polygon fill="black" stroke="black" points="900.63,-409.63 890.09,-408.57 897.67,-415.98 900.63,-409.63"/>
</g>
<!-- 41&#45;&gt;18 -->
<g id="edge19" class="edge">
<title>41&#45;&gt;18</title>
<path fill="none" stroke="black" stroke-dasharray="1,5" d="M1003.01,-448.05C999.2,-439.97 994.56,-430.12 990.31,-421.11"/>
<polygon fill="black" stroke="black" points="993.34,-419.34 985.91,-411.79 987.01,-422.33 993.34,-419.34"/>
</g>
<!-- 41&#45;&gt;21 -->
<g id="edge22" class="edge">
<title>41&#45;&gt;21</title>
<path fill="none" stroke="black" stroke-dasharray="5,2" d="M1030.29,-449.12C1041.7,-439.72 1056.33,-427.67 1068.89,-417.33"/>
<polygon fill="black" stroke="black" points="1071.29,-419.88 1076.79,-410.82 1066.84,-414.48 1071.29,-419.88"/>
</g>
<!-- 41&#45;&gt;22 -->
<g id="edge23" class="edge">
<title>41&#45;&gt;22</title>
<path fill="none" stroke="black" stroke-dasharray="5,2" d="M1045.38,-452.97C1079.17,-441.14 1130.86,-423.05 1167.49,-410.23"/>
<polygon fill="black" stroke="black" points="1169.12,-413.37 1177.4,-406.76 1166.81,-406.76 1169.12,-413.37"/>
</g>
<!-- 42 -->
<g id="node44" class="node">
<title>42</title>
<ellipse fill="none" stroke="black" cx="1328" cy="-394" rx="52.79" ry="18"/>
<text text-anchor="middle" x="1328" y="-390.3" font-family="Times,serif" font-size="14.00">M111 (a)</text>
</g>
<!-- 41&#45;&gt;42 -->
<g id="edge42" class="edge">
<title>41&#45;&gt;42</title>
<path fill="none" stroke="black" stroke-dasharray="1,5" d="M1053.78,-457.06C1104.77,-447.39 1192.46,-430.08 1267,-412 1271.03,-411.02 1275.19,-409.97 1279.36,-408.87"/>
<polygon fill="black" stroke="black" points="1280.3,-412.24 1289.05,-406.28 1278.49,-405.48 1280.3,-412.24"/>
</g>
<!-- 42&#45;&gt;7 -->
<g id="edge8" class="edge">
<title>42&#45;&gt;7</title>
<path fill="none" stroke="black" stroke-dasharray="5,2" d="M1328,-375.7C1328,-367.98 1328,-358.71 1328,-350.11"/>
<polygon fill="black" stroke="black" points="1331.5,-350.1 1328,-340.1 1324.5,-350.1 1331.5,-350.1"/>
</g>
</g>
</svg>
