<?xml version="1.0" encoding="UTF-8" standalone="no"?>
<!DOCTYPE svg PUBLIC "-//W3C//DTD SVG 1.1//EN"
 "http://www.w3.org/Graphics/SVG/1.1/DTD/svg11.dtd">
<!-- Generated by graphviz version 2.43.0 (0)
 -->
<!-- Title: textual_flow Pages: 1 -->
<svg width="1912pt" height="654pt"
 viewBox="0.00 0.00 1912.00 654.00" xmlns="http://www.w3.org/2000/svg" xmlns:xlink="http://www.w3.org/1999/xlink">
<g id="graph0" class="graph" transform="scale(1 1) rotate(0) translate(4 650)">
<title>textual_flow</title>
<polygon fill="white" stroke="transparent" points="-4,4 -4,-650 1908,-650 1908,4 -4,4"/>
<g id="clust1" class="cluster">
<title>cluster_legend</title>
<polygon fill="none" stroke="black" points="8,-584 8,-638 164,-638 164,-584 8,-584"/>
</g>
<g id="clust2" class="cluster">
<title>cluster_plot</title>
</g>
<!-- label -->
<g id="node1" class="node">
<title>label</title>
<text text-anchor="middle" x="86" y="-614.8" font-family="Times,serif" font-size="14.00">adstag1.2.18U14</text>
<text text-anchor="middle" x="86" y="-599.8" font-family="Times,serif" font-size="14.00">Con = 3</text>
</g>
<!-- 0 -->
<g id="node2" class="node">
<title>0</title>
<ellipse fill="none" stroke="black" cx="1542" cy="-322" rx="50.09" ry="18"/>
<text text-anchor="middle" x="1542" y="-318.3" font-family="Times,serif" font-size="14.00">V568 (a)</text>
</g>
<!-- 38 -->
<g id="node40" class="node">
<title>38</title>
<ellipse fill="none" stroke="black" cx="1542" cy="-250" rx="46.59" ry="18"/>
<text text-anchor="middle" x="1542" y="-246.3" font-family="Times,serif" font-size="14.00">Taur (a)</text>
</g>
<!-- 0&#45;&gt;38 -->
<g id="edge38" class="edge">
<title>0&#45;&gt;38</title>
<path fill="none" stroke="black" stroke-dasharray="1,5" d="M1542,-303.7C1542,-295.98 1542,-286.71 1542,-278.11"/>
<polygon fill="black" stroke="black" points="1545.5,-278.1 1542,-268.1 1538.5,-278.1 1545.5,-278.1"/>
</g>
<!-- 1 -->
<g id="node3" class="node">
<title>1</title>
<ellipse fill="none" stroke="gray" stroke-dasharray="5,2" cx="1294" cy="-394" rx="50.09" ry="18"/>
<text text-anchor="middle" x="1294" y="-390.3" font-family="Times,serif" font-size="14.00">Savile&#45;Η</text>
</g>
<!-- 2 -->
<g id="node4" class="node">
<title>2</title>
<ellipse fill="none" stroke="gray" stroke-dasharray="5,2" cx="1228" cy="-466" rx="42.49" ry="18"/>
<text text-anchor="middle" x="1228" y="-462.3" font-family="Times,serif" font-size="14.00">Marc&#45;c</text>
</g>
<!-- 3 -->
<g id="node5" class="node">
<title>3</title>
<ellipse fill="none" stroke="black" cx="236" cy="-394" rx="55.79" ry="18"/>
<text text-anchor="middle" x="236" y="-390.3" font-family="Times,serif" font-size="14.00">V2036 (a)</text>
</g>
<!-- 4 -->
<g id="node6" class="node">
<title>4</title>
<ellipse fill="none" stroke="gray" stroke-dasharray="5,2" cx="354" cy="-466" rx="45.49" ry="18"/>
<text text-anchor="middle" x="354" y="-462.3" font-family="Times,serif" font-size="14.00">LaSM&#45;c</text>
</g>
<!-- 5 -->
<g id="node7" class="node">
<title>5</title>
<ellipse fill="none" stroke="black" cx="468" cy="-466" rx="50.09" ry="18"/>
<text text-anchor="middle" x="468" y="-462.3" font-family="Times,serif" font-size="14.00">Patm (a)</text>
</g>
<!-- 5&#45;&gt;3 -->
<g id="edge4" class="edge">
<title>5&#45;&gt;3</title>
<path fill="none" stroke="black" stroke-dasharray="1,5" d="M430.98,-453.83C391.46,-441.91 328.64,-422.95 285.03,-409.79"/>
<polygon fill="black" stroke="black" points="285.8,-406.37 275.21,-406.83 283.77,-413.07 285.8,-406.37"/>
</g>
<!-- 21 -->
<g id="node23" class="node">
<title>21</title>
<ellipse fill="none" stroke="black" cx="363" cy="-394" rx="52.79" ry="18"/>
<text text-anchor="middle" x="363" y="-390.3" font-family="Times,serif" font-size="14.00">LaSM (a)</text>
</g>
<!-- 5&#45;&gt;21 -->
<g id="edge22" class="edge">
<title>5&#45;&gt;21</title>
<path fill="none" stroke="black" stroke-dasharray="5,2" d="M445.22,-449.81C430.46,-439.97 411.03,-427.02 394.76,-416.18"/>
<polygon fill="black" stroke="black" points="396.36,-413.04 386.1,-410.4 392.48,-418.86 396.36,-413.04"/>
</g>
<!-- 6 -->
<g id="node8" class="node">
<title>6</title>
<ellipse fill="none" stroke="black" cx="482" cy="-394" rx="48.99" ry="18"/>
<text text-anchor="middle" x="482" y="-390.3" font-family="Times,serif" font-size="14.00">La35 (a)</text>
</g>
<!-- 7 -->
<g id="node9" class="node">
<title>7</title>
<ellipse fill="none" stroke="black" cx="686" cy="-466" rx="44.39" ry="18"/>
<text text-anchor="middle" x="686" y="-462.3" font-family="Times,serif" font-size="14.00">S32 (a)</text>
</g>
<!-- 8 -->
<g id="node10" class="node">
<title>8</title>
<ellipse fill="none" stroke="black" cx="1702" cy="-466" rx="55.79" ry="18"/>
<text text-anchor="middle" x="1702" y="-462.3" font-family="Times,serif" font-size="14.00">V2250 (b)</text>
</g>
<!-- 9 -->
<g id="node11" class="node">
<title>9</title>
<ellipse fill="none" stroke="black" cx="601" cy="-394" rx="52.79" ry="18"/>
<text text-anchor="middle" x="601" y="-390.3" font-family="Times,serif" font-size="14.00">M111 (a)</text>
</g>
<!-- 29 -->
<g id="node31" class="node">
<title>29</title>
<ellipse fill="none" stroke="black" cx="601" cy="-322" rx="50.09" ry="18"/>
<text text-anchor="middle" x="601" y="-318.3" font-family="Times,serif" font-size="14.00">A336 (a)</text>
</g>
<!-- 9&#45;&gt;29 -->
<g id="edge30" class="edge">
<title>9&#45;&gt;29</title>
<path fill="none" stroke="black" stroke-dasharray="5,2" d="M601,-375.7C601,-367.98 601,-358.71 601,-350.11"/>
<polygon fill="black" stroke="black" points="604.5,-350.1 601,-340.1 597.5,-350.1 604.5,-350.1"/>
</g>
<!-- 10 -->
<g id="node12" class="node">
<title>10</title>
<ellipse fill="none" stroke="black" cx="1542" cy="-394" rx="50.09" ry="18"/>
<text text-anchor="middle" x="1542" y="-390.3" font-family="Times,serif" font-size="14.00">V536 (a)</text>
</g>
<!-- 10&#45;&gt;0 -->
<g id="edge1" class="edge">
<title>10&#45;&gt;0</title>
<path fill="none" stroke="black" stroke-dasharray="1,5" d="M1542,-375.7C1542,-367.98 1542,-358.71 1542,-350.11"/>
<polygon fill="black" stroke="black" points="1545.5,-350.1 1542,-340.1 1538.5,-350.1 1545.5,-350.1"/>
</g>
<!-- 11 -->
<g id="node13" class="node">
<title>11</title>
<ellipse fill="none" stroke="black" cx="726" cy="-538" rx="43.59" ry="18"/>
<text text-anchor="middle" x="726" y="-534.3" font-family="Times,serif" font-size="14.00">La2 (b)</text>
</g>
<!-- 12 -->
<g id="node14" class="node">
<title>12</title>
<ellipse fill="none" stroke="black" cx="722" cy="-394" rx="50.09" ry="18"/>
<text text-anchor="middle" x="722" y="-390.3" font-family="Times,serif" font-size="14.00">A116 (a)</text>
</g>
<!-- 13 -->
<g id="node15" class="node">
<title>13</title>
<ellipse fill="none" stroke="black" cx="797" cy="-466" rx="48.99" ry="18"/>
<text text-anchor="middle" x="797" y="-462.3" font-family="Times,serif" font-size="14.00">La22 (a)</text>
</g>
<!-- 13&#45;&gt;6 -->
<g id="edge7" class="edge">
<title>13&#45;&gt;6</title>
<path fill="none" stroke="black" stroke-dasharray="1,5" d="M760.96,-453.79C753.72,-451.72 746.15,-449.69 739,-448 651.09,-427.27 626.86,-432.94 539,-412 535.21,-411.1 531.3,-410.09 527.38,-409.03"/>
<polygon fill="black" stroke="black" points="528.29,-405.65 517.71,-406.32 526.4,-412.39 528.29,-405.65"/>
</g>
<!-- 13&#45;&gt;9 -->
<g id="edge10" class="edge">
<title>13&#45;&gt;9</title>
<path fill="none" stroke="black" stroke-dasharray="1,5" d="M763.31,-452.97C730.89,-441.39 681.67,-423.81 645.93,-411.05"/>
<polygon fill="black" stroke="black" points="646.83,-407.65 636.24,-407.58 644.48,-414.24 646.83,-407.65"/>
</g>
<!-- 13&#45;&gt;12 -->
<g id="edge13" class="edge">
<title>13&#45;&gt;12</title>
<path fill="none" stroke="black" stroke-dasharray="5,2" d="M779.98,-449.12C770.17,-439.96 757.67,-428.29 746.79,-418.13"/>
<polygon fill="black" stroke="black" points="748.91,-415.33 739.21,-411.06 744.13,-420.45 748.91,-415.33"/>
</g>
<!-- 15 -->
<g id="node17" class="node">
<title>15</title>
<ellipse fill="none" stroke="black" cx="840" cy="-394" rx="50.09" ry="18"/>
<text text-anchor="middle" x="840" y="-390.3" font-family="Times,serif" font-size="14.00">V571 (a)</text>
</g>
<!-- 13&#45;&gt;15 -->
<g id="edge16" class="edge">
<title>13&#45;&gt;15</title>
<path fill="none" stroke="black" stroke-dasharray="1,5" d="M807.41,-448.05C812.48,-439.8 818.68,-429.7 824.31,-420.54"/>
<polygon fill="black" stroke="black" points="827.43,-422.14 829.69,-411.79 821.47,-418.48 827.43,-422.14"/>
</g>
<!-- 23 -->
<g id="node25" class="node">
<title>23</title>
<ellipse fill="none" stroke="black" cx="958" cy="-394" rx="50.09" ry="18"/>
<text text-anchor="middle" x="958" y="-390.3" font-family="Times,serif" font-size="14.00">V565 (a)</text>
</g>
<!-- 13&#45;&gt;23 -->
<g id="edge24" class="edge">
<title>13&#45;&gt;23</title>
<path fill="none" stroke="black" stroke-dasharray="5,2" d="M827.28,-451.83C852.87,-440.71 889.72,-424.69 917.78,-412.49"/>
<polygon fill="black" stroke="black" points="919.53,-415.54 927.31,-408.35 916.74,-409.12 919.53,-415.54"/>
</g>
<!-- 36 -->
<g id="node38" class="node">
<title>36</title>
<ellipse fill="none" stroke="black" cx="1070" cy="-394" rx="44.39" ry="18"/>
<text text-anchor="middle" x="1070" y="-390.3" font-family="Times,serif" font-size="14.00">P74 (a)</text>
</g>
<!-- 13&#45;&gt;36 -->
<g id="edge36" class="edge">
<title>13&#45;&gt;36</title>
<path fill="none" stroke="black" stroke-dasharray="1,5" d="M833.41,-453.93C840.54,-451.87 847.99,-449.8 855,-448 926.43,-429.62 945.81,-431.28 1017,-412 1020.37,-411.09 1023.84,-410.1 1027.32,-409.06"/>
<polygon fill="black" stroke="black" points="1028.52,-412.35 1037.06,-406.08 1026.47,-405.66 1028.52,-412.35"/>
</g>
<!-- 41 -->
<g id="node43" class="node">
<title>41</title>
<ellipse fill="none" stroke="black" cx="1179" cy="-394" rx="46.59" ry="18"/>
<text text-anchor="middle" x="1179" y="-390.3" font-family="Times,serif" font-size="14.00">Bodl (a)</text>
</g>
<!-- 13&#45;&gt;41 -->
<g id="edge41" class="edge">
<title>13&#45;&gt;41</title>
<path fill="none" stroke="black" stroke-dasharray="5,2" d="M832.67,-453.62C840.01,-451.55 847.71,-449.55 855,-448 972.56,-423.03 1005.56,-437.54 1123,-412 1126.85,-411.16 1130.83,-410.19 1134.8,-409.14"/>
<polygon fill="black" stroke="black" points="1135.89,-412.46 1144.58,-406.4 1134,-405.72 1135.89,-412.46"/>
</g>
<!-- 14 -->
<g id="node16" class="node">
<title>14</title>
<ellipse fill="none" stroke="black" cx="904" cy="-466" rx="40.09" ry="18"/>
<text text-anchor="middle" x="904" y="-462.3" font-family="Times,serif" font-size="14.00">Pal (a)</text>
</g>
<!-- 14&#45;&gt;1 -->
<g id="edge2" class="edge">
<title>14&#45;&gt;1</title>
<path fill="none" stroke="gray" d="M933.51,-453.66C939.87,-451.53 946.6,-449.5 953,-448 1076.01,-419.14 1111.26,-437.57 1235,-412 1239.17,-411.14 1243.47,-410.13 1247.77,-409.05"/>
<polygon fill="gray" stroke="gray" points="1248.95,-412.36 1257.71,-406.4 1247.15,-405.59 1248.95,-412.36"/>
</g>
<!-- 16 -->
<g id="node18" class="node">
<title>16</title>
<ellipse fill="none" stroke="black" cx="1433" cy="-178" rx="40.89" ry="18"/>
<text text-anchor="middle" x="1433" y="-174.3" font-family="Times,serif" font-size="14.00">Sin (a)</text>
</g>
<!-- 31 -->
<g id="node33" class="node">
<title>31</title>
<ellipse fill="none" stroke="black" cx="1433" cy="-106" rx="50.09" ry="18"/>
<text text-anchor="middle" x="1433" y="-102.3" font-family="Times,serif" font-size="14.00">Marc (a)</text>
</g>
<!-- 16&#45;&gt;31 -->
<g id="edge32" class="edge">
<title>16&#45;&gt;31</title>
<path fill="none" stroke="black" stroke-dasharray="1,5" d="M1433,-159.7C1433,-151.98 1433,-142.71 1433,-134.11"/>
<polygon fill="black" stroke="black" points="1436.5,-134.1 1433,-124.1 1429.5,-134.1 1436.5,-134.1"/>
</g>
<!-- 17 -->
<g id="node19" class="node">
<title>17</title>
<ellipse fill="none" stroke="black" cx="840" cy="-538" rx="52.79" ry="18"/>
<text text-anchor="middle" x="840" y="-534.3" font-family="Times,serif" font-size="14.00">M136 (a)</text>
</g>
<!-- 17&#45;&gt;4 -->
<g id="edge5" class="edge">
<title>17&#45;&gt;4</title>
<path fill="none" stroke="gray" stroke-dasharray="5,2" d="M802.17,-525.35C794.55,-523.32 786.57,-521.41 779,-520 616.58,-489.71 570.98,-516.56 409,-484 405.09,-483.21 401.06,-482.26 397.04,-481.21"/>
<polygon fill="gray" stroke="gray" points="397.74,-477.77 387.17,-478.44 395.85,-484.51 397.74,-477.77"/>
</g>
<!-- 18 -->
<g id="node20" class="node">
<title>18</title>
<ellipse fill="none" stroke="black" cx="1743" cy="-394" rx="43.59" ry="18"/>
<text text-anchor="middle" x="1743" y="-390.3" font-family="Times,serif" font-size="14.00">Bas (b)</text>
</g>
<!-- 19 -->
<g id="node21" class="node">
<title>19</title>
<ellipse fill="none" stroke="black" cx="1572" cy="-466" rx="55.79" ry="18"/>
<text text-anchor="middle" x="1572" y="-462.3" font-family="Times,serif" font-size="14.00">V1920 (b)</text>
</g>
<!-- 20 -->
<g id="node22" class="node">
<title>20</title>
<ellipse fill="none" stroke="black" cx="955" cy="-538" rx="44.39" ry="18"/>
<text text-anchor="middle" x="955" y="-534.3" font-family="Times,serif" font-size="14.00">A25 (a)</text>
</g>
<!-- 20&#45;&gt;5 -->
<g id="edge6" class="edge">
<title>20&#45;&gt;5</title>
<path fill="none" stroke="black" stroke-dasharray="1,5" d="M922.75,-525.59C915.96,-523.49 908.8,-521.49 902,-520 866,-512.1 634.79,-485.68 525.31,-473.39"/>
<polygon fill="black" stroke="black" points="525.44,-469.88 515.11,-472.24 524.66,-476.84 525.44,-469.88"/>
</g>
<!-- 20&#45;&gt;7 -->
<g id="edge8" class="edge">
<title>20&#45;&gt;7</title>
<path fill="none" stroke="black" stroke-dasharray="5,2" d="M922.06,-525.91C915.45,-523.83 908.53,-521.76 902,-520 830.38,-500.65 810.62,-503.35 739,-484 735.63,-483.09 732.16,-482.1 728.68,-481.07"/>
<polygon fill="black" stroke="black" points="729.52,-477.66 718.94,-478.09 727.48,-484.36 729.52,-477.66"/>
</g>
<!-- 20&#45;&gt;13 -->
<g id="edge14" class="edge">
<title>20&#45;&gt;13</title>
<path fill="none" stroke="black" stroke-dasharray="1,5" d="M926.02,-524.16C900.84,-513 864.13,-496.74 836.31,-484.42"/>
<polygon fill="black" stroke="black" points="837.43,-481.08 826.87,-480.23 834.59,-487.48 837.43,-481.08"/>
</g>
<!-- 20&#45;&gt;14 -->
<g id="edge15" class="edge">
<title>20&#45;&gt;14</title>
<path fill="none" stroke="black" stroke-dasharray="5,2" d="M942.91,-520.41C936.69,-511.87 928.97,-501.28 922.06,-491.79"/>
<polygon fill="black" stroke="black" points="924.72,-489.49 916,-483.47 919.06,-493.61 924.72,-489.49"/>
</g>
<!-- 30 -->
<g id="node32" class="node">
<title>30</title>
<ellipse fill="none" stroke="black" cx="1006" cy="-466" rx="44.39" ry="18"/>
<text text-anchor="middle" x="1006" y="-462.3" font-family="Times,serif" font-size="14.00">P01 (a)</text>
</g>
<!-- 20&#45;&gt;30 -->
<g id="edge31" class="edge">
<title>20&#45;&gt;30</title>
<path fill="none" stroke="black" stroke-dasharray="5,2" d="M967.09,-520.41C973.31,-511.87 981.03,-501.28 987.94,-491.79"/>
<polygon fill="black" stroke="black" points="990.94,-493.61 994,-483.47 985.28,-489.49 990.94,-493.61"/>
</g>
<!-- 39 -->
<g id="node41" class="node">
<title>39</title>
<ellipse fill="none" stroke="black" cx="1118" cy="-466" rx="50.09" ry="18"/>
<text text-anchor="middle" x="1118" y="-462.3" font-family="Times,serif" font-size="14.00">V566 (a)</text>
</g>
<!-- 20&#45;&gt;39 -->
<g id="edge39" class="edge">
<title>20&#45;&gt;39</title>
<path fill="none" stroke="black" stroke-dasharray="5,2" d="M984.52,-524.32C1010.56,-513.14 1048.77,-496.73 1077.64,-484.33"/>
<polygon fill="black" stroke="black" points="1079.23,-487.46 1087.04,-480.3 1076.47,-481.03 1079.23,-487.46"/>
</g>
<!-- 28 -->
<g id="node30" class="node">
<title>28</title>
<ellipse fill="none" stroke="black" cx="363" cy="-322" rx="44.39" ry="18"/>
<text text-anchor="middle" x="363" y="-318.3" font-family="Times,serif" font-size="14.00">B39 (a)</text>
</g>
<!-- 21&#45;&gt;28 -->
<g id="edge29" class="edge">
<title>21&#45;&gt;28</title>
<path fill="none" stroke="black" stroke-dasharray="5,2" d="M363,-375.7C363,-367.98 363,-358.71 363,-350.11"/>
<polygon fill="black" stroke="black" points="366.5,-350.1 363,-340.1 359.5,-350.1 366.5,-350.1"/>
</g>
<!-- 22 -->
<g id="node24" class="node">
<title>22</title>
<ellipse fill="none" stroke="black" cx="1328" cy="-538" rx="50.09" ry="18"/>
<text text-anchor="middle" x="1328" y="-534.3" font-family="Times,serif" font-size="14.00">Neap (a)</text>
</g>
<!-- 22&#45;&gt;2 -->
<g id="edge3" class="edge">
<title>22&#45;&gt;2</title>
<path fill="none" stroke="gray" stroke-dasharray="5,2" d="M1305.81,-521.46C1291.53,-511.47 1272.83,-498.38 1257.33,-487.53"/>
<polygon fill="gray" stroke="gray" points="1259.3,-484.64 1249.1,-481.77 1255.29,-490.38 1259.3,-484.64"/>
</g>
<!-- 33 -->
<g id="node35" class="node">
<title>33</title>
<ellipse fill="none" stroke="gray" stroke-dasharray="5,2" cx="1328" cy="-466" rx="39.79" ry="18"/>
<text text-anchor="middle" x="1328" y="-462.3" font-family="Times,serif" font-size="14.00">Taur&#45;c</text>
</g>
<!-- 22&#45;&gt;33 -->
<g id="edge33" class="edge">
<title>22&#45;&gt;33</title>
<path fill="none" stroke="gray" stroke-width="2" d="M1328,-519.7C1328,-511.98 1328,-502.71 1328,-494.11"/>
<polygon fill="gray" stroke="gray" stroke-width="2" points="1331.5,-494.1 1328,-484.1 1324.5,-494.1 1331.5,-494.1"/>
</g>
<!-- 34 -->
<g id="node36" class="node">
<title>34</title>
<ellipse fill="none" stroke="black" cx="1442" cy="-466" rx="55.79" ry="18"/>
<text text-anchor="middle" x="1442" y="-462.3" font-family="Times,serif" font-size="14.00">V1629 (a)</text>
</g>
<!-- 22&#45;&gt;34 -->
<g id="edge34" class="edge">
<title>22&#45;&gt;34</title>
<path fill="none" stroke="black" stroke-dasharray="1,5" d="M1352.18,-522.15C1368.58,-512.08 1390.48,-498.64 1408.55,-487.54"/>
<polygon fill="black" stroke="black" points="1410.38,-490.52 1417.07,-482.31 1406.72,-484.56 1410.38,-490.52"/>
</g>
<!-- 24 -->
<g id="node26" class="node">
<title>24</title>
<ellipse fill="none" stroke="black" cx="1846" cy="-394" rx="41.69" ry="18"/>
<text text-anchor="middle" x="1846" y="-390.3" font-family="Times,serif" font-size="14.00">Est (a)</text>
</g>
<!-- 25 -->
<g id="node27" class="node">
<title>25</title>
<ellipse fill="none" stroke="black" cx="1509" cy="-538" rx="50.09" ry="18"/>
<text text-anchor="middle" x="1509" y="-534.3" font-family="Times,serif" font-size="14.00">V560 (a)</text>
</g>
<!-- 25&#45;&gt;19 -->
<g id="edge20" class="edge">
<title>25&#45;&gt;19</title>
<path fill="none" stroke="blue" stroke-dasharray="5,2" d="M1523.61,-520.76C1531.53,-511.97 1541.46,-500.93 1550.27,-491.14"/>
<polygon fill="blue" stroke="blue" points="1552.94,-493.41 1557.03,-483.63 1547.74,-488.72 1552.94,-493.41"/>
</g>
<!-- 26 -->
<g id="node28" class="node">
<title>26</title>
<ellipse fill="none" stroke="gray" stroke-dasharray="5,2" cx="1646" cy="-394" rx="36" ry="18"/>
<text text-anchor="middle" x="1646" y="-390.3" font-family="Times,serif" font-size="14.00">La2&#45;c</text>
</g>
<!-- 27 -->
<g id="node29" class="node">
<title>27</title>
<ellipse fill="none" stroke="black" cx="1662" cy="-538" rx="44.69" ry="18"/>
<text text-anchor="middle" x="1662" y="-534.3" font-family="Times,serif" font-size="14.00">Nan (a)</text>
</g>
<!-- 27&#45;&gt;8 -->
<g id="edge9" class="edge">
<title>27&#45;&gt;8</title>
<path fill="none" stroke="blue" stroke-dasharray="5,2" d="M1671.68,-520.05C1676.4,-511.8 1682.17,-501.7 1687.41,-492.54"/>
<polygon fill="blue" stroke="blue" points="1690.48,-494.21 1692.41,-483.79 1684.41,-490.73 1690.48,-494.21"/>
</g>
<!-- 35 -->
<g id="node37" class="node">
<title>35</title>
<ellipse fill="none" stroke="black" cx="1832" cy="-466" rx="55.79" ry="18"/>
<text text-anchor="middle" x="1832" y="-462.3" font-family="Times,serif" font-size="14.00">V1897 (a)</text>
</g>
<!-- 27&#45;&gt;35 -->
<g id="edge35" class="edge">
<title>27&#45;&gt;35</title>
<path fill="none" stroke="black" stroke-dasharray="1,5" d="M1692.39,-524.49C1719.45,-513.34 1759.32,-496.93 1789.53,-484.49"/>
<polygon fill="black" stroke="black" points="1791.05,-487.65 1798.97,-480.6 1788.39,-481.17 1791.05,-487.65"/>
</g>
<!-- 42 -->
<g id="node44" class="node">
<title>42</title>
<ellipse fill="none" stroke="black" cx="1433" cy="-34" rx="46.29" ry="18"/>
<text text-anchor="middle" x="1433" y="-30.3" font-family="Times,serif" font-size="14.00">Mon (a)</text>
</g>
<!-- 31&#45;&gt;42 -->
<g id="edge42" class="edge">
<title>31&#45;&gt;42</title>
<path fill="none" stroke="black" stroke-dasharray="1,5" d="M1433,-87.7C1433,-79.98 1433,-70.71 1433,-62.11"/>
<polygon fill="black" stroke="black" points="1436.5,-62.1 1433,-52.1 1429.5,-62.1 1436.5,-62.1"/>
</g>
<!-- 32 -->
<g id="node34" class="node">
<title>32</title>
<ellipse fill="none" stroke="black" cx="1328" cy="-611" rx="53.89" ry="18"/>
<text text-anchor="middle" x="1328" y="-607.3" font-family="Times,serif" font-size="14.00">aBase (a)</text>
</g>
<!-- 32&#45;&gt;11 -->
<g id="edge12" class="edge">
<title>32&#45;&gt;11</title>
<path fill="none" stroke="blue" stroke-width="2" d="M1274.32,-608.61C1175.24,-605.18 957.35,-593.65 778,-556 774.55,-555.28 771.01,-554.4 767.47,-553.44"/>
<polygon fill="blue" stroke="blue" stroke-width="2" points="768.18,-550 757.6,-550.54 766.21,-556.72 768.18,-550"/>
</g>
<!-- 32&#45;&gt;17 -->
<g id="edge18" class="edge">
<title>32&#45;&gt;17</title>
<path fill="none" stroke="black" stroke-width="2" d="M1276.14,-605.81C1195.55,-598.77 1035.61,-582.65 902,-556 897.57,-555.12 892.99,-554.09 888.42,-552.98"/>
<polygon fill="black" stroke="black" stroke-width="2" points="889.05,-549.53 878.49,-550.46 887.33,-556.31 889.05,-549.53"/>
</g>
<!-- 32&#45;&gt;20 -->
<g id="edge21" class="edge">
<title>32&#45;&gt;20</title>
<path fill="none" stroke="black" stroke-dasharray="5,2" d="M1282.26,-601.29C1211.8,-587.88 1077.26,-562.27 1004.56,-548.43"/>
<polygon fill="black" stroke="black" points="1004.78,-544.91 994.3,-546.48 1003.47,-551.79 1004.78,-544.91"/>
</g>
<!-- 32&#45;&gt;22 -->
<g id="edge23" class="edge">
<title>32&#45;&gt;22</title>
<path fill="none" stroke="black" stroke-width="2" d="M1328,-592.81C1328,-584.79 1328,-575.05 1328,-566.07"/>
<polygon fill="black" stroke="black" stroke-width="2" points="1331.5,-566.03 1328,-556.03 1324.5,-566.03 1331.5,-566.03"/>
</g>
<!-- 32&#45;&gt;25 -->
<g id="edge26" class="edge">
<title>32&#45;&gt;25</title>
<path fill="none" stroke="black" stroke-width="2" d="M1361.62,-596.81C1391.36,-585.15 1434.88,-568.07 1466.93,-555.5"/>
<polygon fill="black" stroke="black" stroke-width="2" points="1468.44,-558.67 1476.47,-551.76 1465.89,-552.15 1468.44,-558.67"/>
</g>
<!-- 32&#45;&gt;27 -->
<g id="edge28" class="edge">
<title>32&#45;&gt;27</title>
<path fill="none" stroke="black" d="M1372.35,-600.57C1434.93,-587.27 1548.7,-563.08 1613.47,-549.32"/>
<polygon fill="black" stroke="black" points="1614.38,-552.7 1623.43,-547.2 1612.92,-545.86 1614.38,-552.7"/>
</g>
<!-- 43 -->
<g id="node45" class="node">
<title>43</title>
<ellipse fill="none" stroke="black" cx="1775" cy="-538" rx="50.09" ry="18"/>
<text text-anchor="middle" x="1775" y="-534.3" font-family="Times,serif" font-size="14.00">S249 (a)</text>
</g>
<!-- 32&#45;&gt;43 -->
<g id="edge43" class="edge">
<title>32&#45;&gt;43</title>
<path fill="none" stroke="black" d="M1379.25,-605.21C1453.88,-597.72 1596.59,-581.38 1716,-556 1720.11,-555.13 1724.34,-554.12 1728.58,-553.04"/>
<polygon fill="black" stroke="black" points="1729.62,-556.39 1738.38,-550.43 1727.82,-549.62 1729.62,-556.39"/>
</g>
<!-- 34&#45;&gt;10 -->
<g id="edge11" class="edge">
<title>34&#45;&gt;10</title>
<path fill="none" stroke="black" stroke-dasharray="5,2" d="M1464.19,-449.46C1478.14,-439.7 1496.33,-426.97 1511.61,-416.28"/>
<polygon fill="black" stroke="black" points="1514.03,-418.85 1520.21,-410.25 1510.01,-413.12 1514.03,-418.85"/>
</g>
<!-- 34&#45;&gt;26 -->
<g id="edge27" class="edge">
<title>34&#45;&gt;26</title>
<path fill="none" stroke="gray" stroke-width="2" d="M1480.05,-452.78C1512.35,-442.3 1559.87,-426.62 1601,-412 1603.57,-411.09 1606.21,-410.13 1608.87,-409.16"/>
<polygon fill="gray" stroke="gray" stroke-width="2" points="1610.3,-412.36 1618.46,-405.6 1607.86,-405.8 1610.3,-412.36"/>
</g>
<!-- 35&#45;&gt;18 -->
<g id="edge19" class="edge">
<title>35&#45;&gt;18</title>
<path fill="none" stroke="blue" d="M1811.8,-449.12C1799.57,-439.5 1783.81,-427.1 1770.45,-416.59"/>
<polygon fill="blue" stroke="blue" points="1772.53,-413.77 1762.5,-410.34 1768.2,-419.27 1772.53,-413.77"/>
</g>
<!-- 35&#45;&gt;24 -->
<g id="edge25" class="edge">
<title>35&#45;&gt;24</title>
<path fill="none" stroke="black" stroke-dasharray="1,5" d="M1835.46,-447.7C1837,-439.98 1838.86,-430.71 1840.58,-422.11"/>
<polygon fill="black" stroke="black" points="1844.05,-422.6 1842.58,-412.1 1837.19,-421.22 1844.05,-422.6"/>
</g>
<!-- 37 -->
<g id="node39" class="node">
<title>37</title>
<ellipse fill="none" stroke="black" cx="1542" cy="-178" rx="50.09" ry="18"/>
<text text-anchor="middle" x="1542" y="-174.3" font-family="Times,serif" font-size="14.00">V569 (a)</text>
</g>
<!-- 38&#45;&gt;16 -->
<g id="edge17" class="edge">
<title>38&#45;&gt;16</title>
<path fill="none" stroke="black" stroke-dasharray="1,5" d="M1518.88,-234.15C1502.92,-223.9 1481.5,-210.15 1464.05,-198.94"/>
<polygon fill="black" stroke="black" points="1465.64,-195.8 1455.34,-193.35 1461.86,-201.69 1465.64,-195.8"/>
</g>
<!-- 38&#45;&gt;37 -->
<g id="edge37" class="edge">
<title>38&#45;&gt;37</title>
<path fill="none" stroke="black" stroke-dasharray="5,2" d="M1542,-231.7C1542,-223.98 1542,-214.71 1542,-206.11"/>
<polygon fill="black" stroke="black" points="1545.5,-206.1 1542,-196.1 1538.5,-206.1 1545.5,-206.1"/>
</g>
<!-- 44 -->
<g id="node46" class="node">
<title>44</title>
<ellipse fill="none" stroke="black" cx="1663" cy="-178" rx="52.79" ry="18"/>
<text text-anchor="middle" x="1663" y="-174.3" font-family="Times,serif" font-size="14.00">M118 (a)</text>
</g>
<!-- 38&#45;&gt;44 -->
<g id="edge44" class="edge">
<title>38&#45;&gt;44</title>
<path fill="none" stroke="black" stroke-dasharray="5,2" d="M1566.78,-234.67C1584.65,-224.33 1608.99,-210.25 1628.72,-198.83"/>
<polygon fill="black" stroke="black" points="1630.52,-201.83 1637.42,-193.8 1627.01,-195.78 1630.52,-201.83"/>
</g>
<!-- 45 -->
<g id="node47" class="node">
<title>45</title>
<ellipse fill="none" stroke="black" cx="1418" cy="-394" rx="55.79" ry="18"/>
<text text-anchor="middle" x="1418" y="-390.3" font-family="Times,serif" font-size="14.00">V1639 (a)</text>
</g>
<!-- 39&#45;&gt;45 -->
<g id="edge45" class="edge">
<title>39&#45;&gt;45</title>
<path fill="none" stroke="black" stroke-dasharray="1,5" d="M1155.02,-453.85C1162.28,-451.8 1169.86,-449.76 1177,-448 1254.53,-428.93 1275.24,-430.11 1353,-412 1357.4,-410.98 1361.96,-409.87 1366.52,-408.74"/>
<polygon fill="black" stroke="black" points="1367.64,-412.06 1376.47,-406.22 1365.92,-405.28 1367.64,-412.06"/>
</g>
<!-- 40 -->
<g id="node42" class="node">
<title>40</title>
<ellipse fill="none" stroke="gray" stroke-dasharray="5,2" cx="1663" cy="-106" rx="28.7" ry="18"/>
<text text-anchor="middle" x="1663" y="-102.3" font-family="Times,serif" font-size="14.00">P18</text>
</g>
<!-- 44&#45;&gt;40 -->
<g id="edge40" class="edge">
<title>44&#45;&gt;40</title>
<path fill="none" stroke="gray" stroke-dasharray="5,2" d="M1663,-159.7C1663,-151.98 1663,-142.71 1663,-134.11"/>
<polygon fill="gray" stroke="gray" points="1666.5,-134.1 1663,-124.1 1659.5,-134.1 1666.5,-134.1"/>
</g>
</g>
</svg>
