<?xml version="1.0" encoding="UTF-8" standalone="no"?>
<!DOCTYPE svg PUBLIC "-//W3C//DTD SVG 1.1//EN"
 "http://www.w3.org/Graphics/SVG/1.1/DTD/svg11.dtd">
<!-- Generated by graphviz version 2.43.0 (0)
 -->
<!-- Title: textual_flow Pages: 1 -->
<svg width="2282pt" height="619pt"
 viewBox="0.00 0.00 2282.00 619.00" xmlns="http://www.w3.org/2000/svg" xmlns:xlink="http://www.w3.org/1999/xlink">
<g id="graph0" class="graph" transform="scale(1 1) rotate(0) translate(4 615)">
<title>textual_flow</title>
<polygon fill="white" stroke="transparent" points="-4,4 -4,-615 2278,-615 2278,4 -4,4"/>
<g id="clust1" class="cluster">
<title>cluster_legend</title>
<polygon fill="none" stroke="black" points="8,-549 8,-603 164,-603 164,-549 8,-549"/>
</g>
<g id="clust2" class="cluster">
<title>cluster_plot</title>
</g>
<!-- label -->
<g id="node1" class="node">
<title>label</title>
<text text-anchor="middle" x="86" y="-579.8" font-family="Times,serif" font-size="14.00">adstag1.2.40U58</text>
<text text-anchor="middle" x="86" y="-564.8" font-family="Times,serif" font-size="14.00">Con = 3</text>
</g>
<!-- 0 -->
<g id="node2" class="node">
<title>0</title>
<ellipse fill="none" stroke="black" cx="1139" cy="-419" rx="52.79" ry="18"/>
<text text-anchor="middle" x="1139" y="-415.3" font-family="Times,serif" font-size="14.00">M111 (a)</text>
</g>
<!-- 3 -->
<g id="node5" class="node">
<title>3</title>
<ellipse fill="none" stroke="black" cx="1140" cy="-336" rx="50.09" ry="18"/>
<text text-anchor="middle" x="1140" y="-332.3" font-family="Times,serif" font-size="14.00">A336 (a)</text>
</g>
<!-- 0&#45;&gt;3 -->
<g id="edge4" class="edge">
<title>0&#45;&gt;3</title>
<path fill="none" stroke="black" stroke-dasharray="5,2" d="M1139.21,-400.82C1139.34,-390.19 1139.51,-376.31 1139.66,-364.2"/>
<polygon fill="black" stroke="black" points="1143.16,-364.2 1139.79,-354.15 1136.16,-364.11 1143.16,-364.2"/>
</g>
<!-- 1 -->
<g id="node3" class="node">
<title>1</title>
<ellipse fill="none" stroke="black" cx="696" cy="-419" rx="50.09" ry="18"/>
<text text-anchor="middle" x="696" y="-415.3" font-family="Times,serif" font-size="14.00">Patm (b)</text>
</g>
<!-- 21 -->
<g id="node23" class="node">
<title>21</title>
<ellipse fill="none" stroke="black" cx="700" cy="-336" rx="44.39" ry="18"/>
<text text-anchor="middle" x="700" y="-332.3" font-family="Times,serif" font-size="14.00">P01 (b)</text>
</g>
<!-- 1&#45;&gt;21 -->
<g id="edge21" class="edge">
<title>1&#45;&gt;21</title>
<path fill="none" stroke="black" stroke-dasharray="1,5" d="M696.85,-400.82C697.37,-390.19 698.06,-376.31 698.66,-364.2"/>
<polygon fill="black" stroke="black" points="702.16,-364.31 699.15,-354.15 695.16,-363.97 702.16,-364.31"/>
<text text-anchor="middle" x="701.5" y="-375" font-family="Times,serif" font-size="10.00">2</text>
</g>
<!-- 2 -->
<g id="node4" class="node">
<title>2</title>
<ellipse fill="none" stroke="black" cx="263" cy="-502" rx="50.09" ry="18"/>
<text text-anchor="middle" x="263" y="-498.3" font-family="Times,serif" font-size="14.00">V560 (a)</text>
</g>
<!-- 12 -->
<g id="node14" class="node">
<title>12</title>
<ellipse fill="none" stroke="black" cx="236" cy="-419" rx="55.79" ry="18"/>
<text text-anchor="middle" x="236" y="-415.3" font-family="Times,serif" font-size="14.00">V1920 (b)</text>
</g>
<!-- 2&#45;&gt;12 -->
<g id="edge12" class="edge">
<title>2&#45;&gt;12</title>
<path fill="none" stroke="blue" stroke-dasharray="5,2" d="M257.27,-483.82C253.69,-473.08 249.01,-459.03 244.95,-446.84"/>
<polygon fill="blue" stroke="blue" points="248.2,-445.53 241.72,-437.15 241.56,-447.75 248.2,-445.53"/>
</g>
<!-- 4 -->
<g id="node6" class="node">
<title>4</title>
<ellipse fill="none" stroke="black" cx="1254" cy="-419" rx="44.39" ry="18"/>
<text text-anchor="middle" x="1254" y="-415.3" font-family="Times,serif" font-size="14.00">P74 (a)</text>
</g>
<!-- 5 -->
<g id="node7" class="node">
<title>5</title>
<ellipse fill="none" stroke="black" cx="352" cy="-419" rx="42.49" ry="18"/>
<text text-anchor="middle" x="352" y="-415.3" font-family="Times,serif" font-size="14.00">Est (b)</text>
</g>
<!-- 6 -->
<g id="node8" class="node">
<title>6</title>
<ellipse fill="none" stroke="black" cx="569" cy="-253" rx="47.39" ry="18"/>
<text text-anchor="middle" x="569" y="-249.3" font-family="Times,serif" font-size="14.00">Taur (b)</text>
</g>
<!-- 8 -->
<g id="node10" class="node">
<title>8</title>
<ellipse fill="none" stroke="black" cx="448" cy="-180" rx="50.09" ry="18"/>
<text text-anchor="middle" x="448" y="-176.3" font-family="Times,serif" font-size="14.00">Marc (b)</text>
</g>
<!-- 6&#45;&gt;8 -->
<g id="edge9" class="edge">
<title>6&#45;&gt;8</title>
<path fill="none" stroke="black" stroke-dasharray="1,5" d="M544.22,-237.46C526.23,-226.91 501.68,-212.5 481.88,-200.88"/>
<polygon fill="black" stroke="black" points="483.56,-197.81 473.16,-195.76 480.01,-203.84 483.56,-197.81"/>
</g>
<!-- 10 -->
<g id="node12" class="node">
<title>10</title>
<ellipse fill="none" stroke="black" cx="569" cy="-180" rx="53.09" ry="18"/>
<text text-anchor="middle" x="569" y="-176.3" font-family="Times,serif" font-size="14.00">M118 (b)</text>
</g>
<!-- 6&#45;&gt;10 -->
<g id="edge11" class="edge">
<title>6&#45;&gt;10</title>
<path fill="none" stroke="black" stroke-dasharray="5,2" d="M569,-234.81C569,-226.79 569,-217.05 569,-208.07"/>
<polygon fill="black" stroke="black" points="572.5,-208.03 569,-198.03 565.5,-208.03 572.5,-208.03"/>
</g>
<!-- 29 -->
<g id="node31" class="node">
<title>29</title>
<ellipse fill="none" stroke="black" cx="690" cy="-180" rx="50.09" ry="18"/>
<text text-anchor="middle" x="690" y="-176.3" font-family="Times,serif" font-size="14.00">V569 (b)</text>
</g>
<!-- 6&#45;&gt;29 -->
<g id="edge29" class="edge">
<title>6&#45;&gt;29</title>
<path fill="none" stroke="black" stroke-dasharray="5,2" d="M593.78,-237.46C611.77,-226.91 636.32,-212.5 656.12,-200.88"/>
<polygon fill="black" stroke="black" points="657.99,-203.84 664.84,-195.76 654.44,-197.81 657.99,-203.84"/>
</g>
<!-- 7 -->
<g id="node9" class="node">
<title>7</title>
<ellipse fill="none" stroke="black" cx="429" cy="-502" rx="55.79" ry="18"/>
<text text-anchor="middle" x="429" y="-498.3" font-family="Times,serif" font-size="14.00">V1897 (a)</text>
</g>
<!-- 7&#45;&gt;5 -->
<g id="edge6" class="edge">
<title>7&#45;&gt;5</title>
<path fill="none" stroke="blue" stroke-dasharray="1,5" d="M413.42,-484.61C402.18,-472.78 386.84,-456.65 374.3,-443.46"/>
<polygon fill="blue" stroke="blue" points="376.72,-440.93 367.3,-436.09 371.65,-445.75 376.72,-440.93"/>
</g>
<!-- 42 -->
<g id="node44" class="node">
<title>42</title>
<ellipse fill="none" stroke="black" cx="455" cy="-419" rx="42.79" ry="18"/>
<text text-anchor="middle" x="455" y="-415.3" font-family="Times,serif" font-size="14.00">Bas (a)</text>
</g>
<!-- 7&#45;&gt;42 -->
<g id="edge42" class="edge">
<title>7&#45;&gt;42</title>
<path fill="none" stroke="black" d="M434.51,-483.82C437.98,-473.01 442.53,-458.84 446.46,-446.59"/>
<polygon fill="black" stroke="black" points="449.86,-447.47 449.58,-436.88 443.19,-445.33 449.86,-447.47"/>
</g>
<!-- 13 -->
<g id="node15" class="node">
<title>13</title>
<ellipse fill="none" stroke="black" cx="448" cy="-107" rx="46.59" ry="18"/>
<text text-anchor="middle" x="448" y="-103.3" font-family="Times,serif" font-size="14.00">Mon (b)</text>
</g>
<!-- 8&#45;&gt;13 -->
<g id="edge13" class="edge">
<title>8&#45;&gt;13</title>
<path fill="none" stroke="black" stroke-dasharray="1,5" d="M448,-161.81C448,-153.79 448,-144.05 448,-135.07"/>
<polygon fill="black" stroke="black" points="451.5,-135.03 448,-125.03 444.5,-135.03 451.5,-135.03"/>
</g>
<!-- 9 -->
<g id="node11" class="node">
<title>9</title>
<ellipse fill="none" stroke="black" cx="837" cy="-180" rx="44.69" ry="18"/>
<text text-anchor="middle" x="837" y="-176.3" font-family="Times,serif" font-size="14.00">B39 (b)</text>
</g>
<!-- 34 -->
<g id="node36" class="node">
<title>34</title>
<ellipse fill="none" stroke="gray" stroke-dasharray="5,2" cx="569" cy="-107" rx="28.7" ry="18"/>
<text text-anchor="middle" x="569" y="-103.3" font-family="Times,serif" font-size="14.00">P18</text>
</g>
<!-- 10&#45;&gt;34 -->
<g id="edge34" class="edge">
<title>10&#45;&gt;34</title>
<path fill="none" stroke="gray" stroke-dasharray="5,2" d="M569,-161.81C569,-153.79 569,-144.05 569,-135.07"/>
<polygon fill="gray" stroke="gray" points="572.5,-135.03 569,-125.03 565.5,-135.03 572.5,-135.03"/>
</g>
<!-- 11 -->
<g id="node13" class="node">
<title>11</title>
<ellipse fill="none" stroke="black" cx="789" cy="-576" rx="53.89" ry="18"/>
<text text-anchor="middle" x="789" y="-572.3" font-family="Times,serif" font-size="14.00">aBase (a)</text>
</g>
<!-- 11&#45;&gt;2 -->
<g id="edge3" class="edge">
<title>11&#45;&gt;2</title>
<path fill="none" stroke="black" stroke-width="2" d="M738.86,-569.14C659.29,-559.69 499.22,-540.12 364,-520 348.85,-517.75 332.47,-515.08 317.39,-512.54"/>
<polygon fill="black" stroke="black" stroke-width="2" points="317.63,-509.04 307.19,-510.81 316.46,-515.94 317.63,-509.04"/>
</g>
<!-- 11&#45;&gt;7 -->
<g id="edge8" class="edge">
<title>11&#45;&gt;7</title>
<path fill="none" stroke="black" d="M741.78,-567.27C683.36,-557.45 580.94,-539.45 494,-520 489.4,-518.97 484.64,-517.85 479.88,-516.68"/>
<polygon fill="black" stroke="black" points="480.71,-513.28 470.15,-514.24 479,-520.07 480.71,-513.28"/>
</g>
<!-- 16 -->
<g id="node18" class="node">
<title>16</title>
<ellipse fill="none" stroke="black" cx="556" cy="-502" rx="52.79" ry="18"/>
<text text-anchor="middle" x="556" y="-498.3" font-family="Times,serif" font-size="14.00">M136 (a)</text>
</g>
<!-- 11&#45;&gt;16 -->
<g id="edge16" class="edge">
<title>11&#45;&gt;16</title>
<path fill="none" stroke="black" stroke-width="2" d="M750.79,-563.19C710.54,-550.76 647.1,-531.15 603.62,-517.72"/>
<polygon fill="black" stroke="black" stroke-width="2" points="604.44,-514.3 593.85,-514.7 602.37,-520.99 604.44,-514.3"/>
</g>
<!-- 17 -->
<g id="node19" class="node">
<title>17</title>
<ellipse fill="none" stroke="black" cx="677" cy="-502" rx="50.89" ry="18"/>
<text text-anchor="middle" x="677" y="-498.3" font-family="Times,serif" font-size="14.00">Neap (b)</text>
</g>
<!-- 11&#45;&gt;17 -->
<g id="edge17" class="edge">
<title>11&#45;&gt;17</title>
<path fill="none" stroke="blue" stroke-width="2" d="M765.25,-559.73C748.8,-549.16 726.73,-534.97 708.78,-523.43"/>
<polygon fill="blue" stroke="blue" stroke-width="2" points="710.64,-520.46 700.33,-518 706.85,-526.35 710.64,-520.46"/>
</g>
<!-- 19 -->
<g id="node21" class="node">
<title>19</title>
<ellipse fill="none" stroke="black" cx="789" cy="-502" rx="42.79" ry="18"/>
<text text-anchor="middle" x="789" y="-498.3" font-family="Times,serif" font-size="14.00">La2 (a)</text>
</g>
<!-- 11&#45;&gt;19 -->
<g id="edge19" class="edge">
<title>11&#45;&gt;19</title>
<path fill="none" stroke="black" stroke-width="2" d="M789,-557.94C789,-549.81 789,-539.88 789,-530.7"/>
<polygon fill="black" stroke="black" stroke-width="2" points="792.5,-530.44 789,-520.44 785.5,-530.44 792.5,-530.44"/>
</g>
<!-- 22 -->
<g id="node24" class="node">
<title>22</title>
<ellipse fill="none" stroke="black" cx="894" cy="-502" rx="44.39" ry="18"/>
<text text-anchor="middle" x="894" y="-498.3" font-family="Times,serif" font-size="14.00">A25 (a)</text>
</g>
<!-- 11&#45;&gt;22 -->
<g id="edge22" class="edge">
<title>11&#45;&gt;22</title>
<path fill="none" stroke="black" stroke-dasharray="5,2" d="M811.53,-559.55C826.82,-549.07 847.21,-535.08 863.89,-523.65"/>
<polygon fill="black" stroke="black" points="865.96,-526.47 872.23,-517.93 862,-520.7 865.96,-526.47"/>
</g>
<!-- 24 -->
<g id="node26" class="node">
<title>24</title>
<ellipse fill="none" stroke="gray" stroke-dasharray="5,2" cx="991" cy="-502" rx="34.39" ry="18"/>
<text text-anchor="middle" x="991" y="-498.3" font-family="Times,serif" font-size="14.00">S249</text>
</g>
<!-- 11&#45;&gt;24 -->
<g id="edge24" class="edge">
<title>11&#45;&gt;24</title>
<path fill="none" stroke="gray" d="M825.52,-562.68C857.63,-551.75 905.56,-535.21 947,-520 949.51,-519.08 952.09,-518.12 954.69,-517.14"/>
<polygon fill="gray" stroke="gray" points="955.96,-520.4 964.06,-513.57 953.47,-513.86 955.96,-520.4"/>
</g>
<!-- 26 -->
<g id="node28" class="node">
<title>26</title>
<ellipse fill="none" stroke="black" cx="1496" cy="-502" rx="48.99" ry="18"/>
<text text-anchor="middle" x="1496" y="-498.3" font-family="Times,serif" font-size="14.00">La22 (a)</text>
</g>
<!-- 11&#45;&gt;26 -->
<g id="edge26" class="edge">
<title>11&#45;&gt;26</title>
<path fill="none" stroke="black" stroke-dasharray="5,2" d="M839.85,-569.82C968.21,-556.75 1304.73,-522.48 1439.24,-508.78"/>
<polygon fill="black" stroke="black" points="1439.74,-512.25 1449.34,-507.75 1439.04,-505.28 1439.74,-512.25"/>
</g>
<!-- 36 -->
<g id="node38" class="node">
<title>36</title>
<ellipse fill="none" stroke="black" cx="2084" cy="-502" rx="44.69" ry="18"/>
<text text-anchor="middle" x="2084" y="-498.3" font-family="Times,serif" font-size="14.00">Nan (a)</text>
</g>
<!-- 11&#45;&gt;36 -->
<g id="edge36" class="edge">
<title>11&#45;&gt;36</title>
<path fill="none" stroke="black" d="M841.77,-572.07C1050.62,-560.45 1818.16,-517.78 2029.7,-506.02"/>
<polygon fill="black" stroke="black" points="2030.15,-509.5 2039.94,-505.45 2029.76,-502.51 2030.15,-509.5"/>
</g>
<!-- 35 -->
<g id="node37" class="node">
<title>35</title>
<ellipse fill="none" stroke="black" cx="448" cy="-34" rx="41.69" ry="18"/>
<text text-anchor="middle" x="448" y="-30.3" font-family="Times,serif" font-size="14.00">Sin (b)</text>
</g>
<!-- 13&#45;&gt;35 -->
<g id="edge35" class="edge">
<title>13&#45;&gt;35</title>
<path fill="none" stroke="black" stroke-dasharray="1,5" d="M448,-88.81C448,-80.79 448,-71.05 448,-62.07"/>
<polygon fill="black" stroke="black" points="451.5,-62.03 448,-52.03 444.5,-62.03 451.5,-62.03"/>
</g>
<!-- 14 -->
<g id="node16" class="node">
<title>14</title>
<ellipse fill="none" stroke="gray" stroke-dasharray="5,2" cx="468" cy="-336" rx="36" ry="18"/>
<text text-anchor="middle" x="468" y="-332.3" font-family="Times,serif" font-size="14.00">La2&#45;c</text>
</g>
<!-- 15 -->
<g id="node17" class="node">
<title>15</title>
<ellipse fill="none" stroke="black" cx="1372" cy="-419" rx="55.79" ry="18"/>
<text text-anchor="middle" x="1372" y="-415.3" font-family="Times,serif" font-size="14.00">V2036 (a)</text>
</g>
<!-- 23 -->
<g id="node25" class="node">
<title>23</title>
<ellipse fill="none" stroke="black" cx="572" cy="-419" rx="55.79" ry="18"/>
<text text-anchor="middle" x="572" y="-415.3" font-family="Times,serif" font-size="14.00">V1629 (b)</text>
</g>
<!-- 17&#45;&gt;23 -->
<g id="edge23" class="edge">
<title>17&#45;&gt;23</title>
<path fill="none" stroke="black" stroke-dasharray="1,5" d="M656.75,-485.38C640.88,-473.14 618.58,-455.93 600.84,-442.25"/>
<polygon fill="black" stroke="black" points="602.6,-439.18 592.54,-435.85 598.32,-444.73 602.6,-439.18"/>
</g>
<!-- 18 -->
<g id="node20" class="node">
<title>18</title>
<ellipse fill="none" stroke="black" cx="1496" cy="-419" rx="50.09" ry="18"/>
<text text-anchor="middle" x="1496" y="-415.3" font-family="Times,serif" font-size="14.00">V565 (b)</text>
</g>
<!-- 20 -->
<g id="node22" class="node">
<title>20</title>
<ellipse fill="none" stroke="black" cx="700" cy="-253" rx="65.79" ry="18"/>
<text text-anchor="middle" x="700" y="-249.3" font-family="Times,serif" font-size="14.00">Savile&#45;Η (b)</text>
</g>
<!-- 21&#45;&gt;20 -->
<g id="edge20" class="edge">
<title>21&#45;&gt;20</title>
<path fill="none" stroke="black" d="M700,-317.82C700,-307.19 700,-293.31 700,-281.2"/>
<polygon fill="black" stroke="black" points="703.5,-281.15 700,-271.15 696.5,-281.15 703.5,-281.15"/>
<text text-anchor="middle" x="703.5" y="-292" font-family="Times,serif" font-size="10.00">2</text>
</g>
<!-- 39 -->
<g id="node41" class="node">
<title>39</title>
<ellipse fill="none" stroke="black" cx="837" cy="-253" rx="53.09" ry="18"/>
<text text-anchor="middle" x="837" y="-249.3" font-family="Times,serif" font-size="14.00">LaSM (b)</text>
</g>
<!-- 21&#45;&gt;39 -->
<g id="edge39" class="edge">
<title>21&#45;&gt;39</title>
<path fill="none" stroke="black" stroke-dasharray="5,2" d="M724.18,-320.71C746.07,-307.76 778.55,-288.56 803.04,-274.08"/>
<polygon fill="black" stroke="black" points="804.85,-277.08 811.67,-268.97 801.28,-271.05 804.85,-277.08"/>
<text text-anchor="middle" x="779.5" y="-292" font-family="Times,serif" font-size="10.00">2</text>
</g>
<!-- 22&#45;&gt;1 -->
<g id="edge2" class="edge">
<title>22&#45;&gt;1</title>
<path fill="none" stroke="blue" stroke-dasharray="1,5" d="M863.93,-488.7C830.16,-474.88 775.16,-452.38 737.36,-436.92"/>
<polygon fill="blue" stroke="blue" points="738.25,-433.5 727.67,-432.96 735.6,-439.98 738.25,-433.5"/>
</g>
<!-- 28 -->
<g id="node30" class="node">
<title>28</title>
<ellipse fill="none" stroke="black" cx="808" cy="-419" rx="44.39" ry="18"/>
<text text-anchor="middle" x="808" y="-415.3" font-family="Times,serif" font-size="14.00">S32 (a)</text>
</g>
<!-- 22&#45;&gt;28 -->
<g id="edge28" class="edge">
<title>22&#45;&gt;28</title>
<path fill="none" stroke="black" stroke-dasharray="5,2" d="M877.01,-485C864.21,-472.94 846.47,-456.24 832.19,-442.78"/>
<polygon fill="black" stroke="black" points="834.34,-440 824.66,-435.69 829.54,-445.1 834.34,-440"/>
</g>
<!-- 32 -->
<g id="node34" class="node">
<title>32</title>
<ellipse fill="none" stroke="black" cx="910" cy="-419" rx="40.09" ry="18"/>
<text text-anchor="middle" x="910" y="-415.3" font-family="Times,serif" font-size="14.00">Pal (a)</text>
</g>
<!-- 22&#45;&gt;32 -->
<g id="edge32" class="edge">
<title>22&#45;&gt;32</title>
<path fill="none" stroke="black" stroke-dasharray="5,2" d="M897.39,-483.82C899.49,-473.19 902.24,-459.31 904.63,-447.2"/>
<polygon fill="black" stroke="black" points="908.11,-447.64 906.61,-437.15 901.24,-446.29 908.11,-447.64"/>
</g>
<!-- 37 -->
<g id="node39" class="node">
<title>37</title>
<ellipse fill="none" stroke="black" cx="1018" cy="-419" rx="50.09" ry="18"/>
<text text-anchor="middle" x="1018" y="-415.3" font-family="Times,serif" font-size="14.00">V566 (a)</text>
</g>
<!-- 22&#45;&gt;37 -->
<g id="edge37" class="edge">
<title>22&#45;&gt;37</title>
<path fill="none" stroke="black" stroke-dasharray="5,2" d="M916.46,-486.33C935.96,-473.59 964.43,-454.99 986.26,-440.73"/>
<polygon fill="black" stroke="black" points="988.41,-443.51 994.87,-435.11 984.58,-437.65 988.41,-443.51"/>
</g>
<!-- 23&#45;&gt;14 -->
<g id="edge14" class="edge">
<title>23&#45;&gt;14</title>
<path fill="none" stroke="gray" stroke-width="2" d="M551.45,-402C535.28,-389.4 512.59,-371.73 494.96,-358"/>
<polygon fill="gray" stroke="gray" stroke-width="2" points="496.8,-354.99 486.76,-351.61 492.5,-360.51 496.8,-354.99"/>
</g>
<!-- 33 -->
<g id="node35" class="node">
<title>33</title>
<ellipse fill="none" stroke="black" cx="572" cy="-336" rx="50.09" ry="18"/>
<text text-anchor="middle" x="572" y="-332.3" font-family="Times,serif" font-size="14.00">V568 (b)</text>
</g>
<!-- 23&#45;&gt;33 -->
<g id="edge33" class="edge">
<title>23&#45;&gt;33</title>
<path fill="none" stroke="black" stroke-dasharray="5,2" d="M572,-400.82C572,-390.19 572,-376.31 572,-364.2"/>
<polygon fill="black" stroke="black" points="575.5,-364.15 572,-354.15 568.5,-364.15 575.5,-364.15"/>
</g>
<!-- 25 -->
<g id="node27" class="node">
<title>25</title>
<ellipse fill="none" stroke="black" cx="1614" cy="-419" rx="50.09" ry="18"/>
<text text-anchor="middle" x="1614" y="-415.3" font-family="Times,serif" font-size="14.00">V571 (a)</text>
</g>
<!-- 26&#45;&gt;0 -->
<g id="edge1" class="edge">
<title>26&#45;&gt;0</title>
<path fill="none" stroke="black" stroke-dasharray="1,5" d="M1453.82,-492.6C1396.42,-480.99 1290.58,-458.98 1201,-437 1196.85,-435.98 1192.56,-434.89 1188.26,-433.77"/>
<polygon fill="black" stroke="black" points="1188.84,-430.3 1178.27,-431.11 1187.04,-437.06 1188.84,-430.3"/>
</g>
<!-- 26&#45;&gt;4 -->
<g id="edge5" class="edge">
<title>26&#45;&gt;4</title>
<path fill="none" stroke="black" stroke-dasharray="1,5" d="M1461.07,-489.31C1417.57,-474.75 1343.29,-449.89 1296.52,-434.23"/>
<polygon fill="black" stroke="black" points="1297.57,-430.89 1286.98,-431.04 1295.35,-437.53 1297.57,-430.89"/>
</g>
<!-- 26&#45;&gt;15 -->
<g id="edge15" class="edge">
<title>26&#45;&gt;15</title>
<path fill="none" stroke="black" stroke-dasharray="5,2" d="M1472.97,-485.95C1453.64,-473.33 1425.81,-455.15 1404.26,-441.08"/>
<polygon fill="black" stroke="black" points="1406.04,-438.06 1395.75,-435.52 1402.21,-443.92 1406.04,-438.06"/>
</g>
<!-- 26&#45;&gt;18 -->
<g id="edge18" class="edge">
<title>26&#45;&gt;18</title>
<path fill="none" stroke="blue" stroke-dasharray="5,2" d="M1496,-483.82C1496,-473.19 1496,-459.31 1496,-447.2"/>
<polygon fill="blue" stroke="blue" points="1499.5,-447.15 1496,-437.15 1492.5,-447.15 1499.5,-447.15"/>
</g>
<!-- 26&#45;&gt;25 -->
<g id="edge25" class="edge">
<title>26&#45;&gt;25</title>
<path fill="none" stroke="black" stroke-dasharray="1,5" d="M1518.19,-485.76C1536.65,-473.09 1563.12,-454.93 1583.56,-440.9"/>
<polygon fill="black" stroke="black" points="1585.64,-443.71 1591.9,-435.17 1581.68,-437.94 1585.64,-443.71"/>
</g>
<!-- 27 -->
<g id="node29" class="node">
<title>27</title>
<ellipse fill="none" stroke="black" cx="1731" cy="-419" rx="48.99" ry="18"/>
<text text-anchor="middle" x="1731" y="-415.3" font-family="Times,serif" font-size="14.00">La35 (a)</text>
</g>
<!-- 26&#45;&gt;27 -->
<g id="edge27" class="edge">
<title>26&#45;&gt;27</title>
<path fill="none" stroke="black" stroke-dasharray="1,5" d="M1530.42,-489.14C1571.87,-474.85 1641.57,-450.83 1686.92,-435.19"/>
<polygon fill="black" stroke="black" points="1688.17,-438.46 1696.49,-431.9 1685.89,-431.85 1688.17,-438.46"/>
</g>
<!-- 38 -->
<g id="node40" class="node">
<title>38</title>
<ellipse fill="none" stroke="black" cx="1848" cy="-419" rx="50.09" ry="18"/>
<text text-anchor="middle" x="1848" y="-415.3" font-family="Times,serif" font-size="14.00">A116 (b)</text>
</g>
<!-- 26&#45;&gt;38 -->
<g id="edge38" class="edge">
<title>26&#45;&gt;38</title>
<path fill="none" stroke="blue" stroke-dasharray="5,2" d="M1537.93,-492.74C1594.99,-481.3 1700.16,-459.48 1789,-437 1792.84,-436.03 1796.81,-434.98 1800.8,-433.9"/>
<polygon fill="blue" stroke="blue" points="1801.95,-437.21 1810.65,-431.16 1800.07,-430.47 1801.95,-437.21"/>
</g>
<!-- 41 -->
<g id="node43" class="node">
<title>41</title>
<ellipse fill="none" stroke="black" cx="1963" cy="-419" rx="46.59" ry="18"/>
<text text-anchor="middle" x="1963" y="-415.3" font-family="Times,serif" font-size="14.00">Bodl (a)</text>
</g>
<!-- 26&#45;&gt;41 -->
<g id="edge41" class="edge">
<title>26&#45;&gt;41</title>
<path fill="none" stroke="black" stroke-dasharray="5,2" d="M1542.01,-495.97C1618.43,-487.15 1776.06,-466.92 1907,-437 1910.85,-436.12 1914.81,-435.12 1918.78,-434.05"/>
<polygon fill="black" stroke="black" points="1919.88,-437.37 1928.55,-431.29 1917.98,-430.64 1919.88,-437.37"/>
</g>
<!-- 30 -->
<g id="node32" class="node">
<title>30</title>
<ellipse fill="none" stroke="black" cx="2084" cy="-419" rx="55.79" ry="18"/>
<text text-anchor="middle" x="2084" y="-415.3" font-family="Times,serif" font-size="14.00">V2250 (a)</text>
</g>
<!-- 31 -->
<g id="node33" class="node">
<title>31</title>
<ellipse fill="none" stroke="black" cx="1016" cy="-336" rx="55.79" ry="18"/>
<text text-anchor="middle" x="1016" y="-332.3" font-family="Times,serif" font-size="14.00">V1639 (a)</text>
</g>
<!-- 33&#45;&gt;6 -->
<g id="edge7" class="edge">
<title>33&#45;&gt;6</title>
<path fill="none" stroke="black" stroke-dasharray="1,5" d="M571.36,-317.82C570.97,-307.19 570.46,-293.31 570.01,-281.2"/>
<polygon fill="black" stroke="black" points="573.5,-281.02 569.64,-271.15 566.51,-281.28 573.5,-281.02"/>
</g>
<!-- 36&#45;&gt;30 -->
<g id="edge30" class="edge">
<title>36&#45;&gt;30</title>
<path fill="none" stroke="black" stroke-dasharray="5,2" d="M2084,-483.82C2084,-473.19 2084,-459.31 2084,-447.2"/>
<polygon fill="black" stroke="black" points="2087.5,-447.15 2084,-437.15 2080.5,-447.15 2087.5,-447.15"/>
</g>
<!-- 40 -->
<g id="node42" class="node">
<title>40</title>
<ellipse fill="none" stroke="black" cx="2208" cy="-419" rx="50.09" ry="18"/>
<text text-anchor="middle" x="2208" y="-415.3" font-family="Times,serif" font-size="14.00">V536 (a)</text>
</g>
<!-- 36&#45;&gt;40 -->
<g id="edge40" class="edge">
<title>36&#45;&gt;40</title>
<path fill="none" stroke="black" stroke-width="2" d="M2106.46,-486.33C2125.96,-473.59 2154.43,-454.99 2176.26,-440.73"/>
<polygon fill="black" stroke="black" stroke-width="2" points="2178.41,-443.51 2184.87,-435.11 2174.58,-437.65 2178.41,-443.51"/>
<text text-anchor="middle" x="2156.5" y="-458" font-family="Times,serif" font-size="10.00">3</text>
</g>
<!-- 37&#45;&gt;31 -->
<g id="edge31" class="edge">
<title>37&#45;&gt;31</title>
<path fill="none" stroke="black" stroke-dasharray="1,5" d="M1017.58,-400.82C1017.31,-390.19 1016.97,-376.31 1016.67,-364.2"/>
<polygon fill="black" stroke="black" points="1020.17,-364.06 1016.42,-354.15 1013.17,-364.24 1020.17,-364.06"/>
</g>
<!-- 39&#45;&gt;9 -->
<g id="edge10" class="edge">
<title>39&#45;&gt;9</title>
<path fill="none" stroke="black" stroke-dasharray="5,2" d="M837,-234.81C837,-226.79 837,-217.05 837,-208.07"/>
<polygon fill="black" stroke="black" points="840.5,-208.03 837,-198.03 833.5,-208.03 840.5,-208.03"/>
</g>
</g>
</svg>
