<?xml version="1.0" encoding="UTF-8" standalone="no"?>
<!DOCTYPE svg PUBLIC "-//W3C//DTD SVG 1.1//EN"
 "http://www.w3.org/Graphics/SVG/1.1/DTD/svg11.dtd">
<!-- Generated by graphviz version 2.43.0 (0)
 -->
<!-- Title: textual_flow Pages: 1 -->
<svg width="1641pt" height="629pt"
 viewBox="0.00 0.00 1641.00 629.00" xmlns="http://www.w3.org/2000/svg" xmlns:xlink="http://www.w3.org/1999/xlink">
<g id="graph0" class="graph" transform="scale(1 1) rotate(0) translate(4 625)">
<title>textual_flow</title>
<polygon fill="white" stroke="transparent" points="-4,4 -4,-625 1637,-625 1637,4 -4,4"/>
<g id="clust1" class="cluster">
<title>cluster_legend</title>
<polygon fill="none" stroke="black" points="8,-559 8,-613 164,-613 164,-559 8,-559"/>
</g>
<g id="clust2" class="cluster">
<title>cluster_plot</title>
</g>
<!-- label -->
<g id="node1" class="node">
<title>label</title>
<text text-anchor="middle" x="86" y="-589.8" font-family="Times,serif" font-size="14.00">adstag1.2.40U24</text>
<text text-anchor="middle" x="86" y="-574.8" font-family="Times,serif" font-size="14.00">Con = 3</text>
</g>
<!-- 0 -->
<g id="node2" class="node">
<title>0</title>
<ellipse fill="none" stroke="black" cx="644" cy="-263" rx="50.09" ry="18"/>
<text text-anchor="middle" x="644" y="-259.3" font-family="Times,serif" font-size="14.00">V536 (a)</text>
</g>
<!-- 1 -->
<g id="node3" class="node">
<title>1</title>
<ellipse fill="none" stroke="black" cx="355" cy="-419" rx="44.69" ry="18"/>
<text text-anchor="middle" x="355" y="-415.3" font-family="Times,serif" font-size="14.00">B39 (b)</text>
</g>
<!-- 2 -->
<g id="node4" class="node">
<title>2</title>
<ellipse fill="none" stroke="black" cx="866" cy="-346" rx="44.39" ry="18"/>
<text text-anchor="middle" x="866" y="-342.3" font-family="Times,serif" font-size="14.00">P74 (b)</text>
</g>
<!-- 3 -->
<g id="node5" class="node">
<title>3</title>
<ellipse fill="none" stroke="black" cx="462" cy="-419" rx="44.39" ry="18"/>
<text text-anchor="middle" x="462" y="-415.3" font-family="Times,serif" font-size="14.00">S32 (b)</text>
</g>
<!-- 4 -->
<g id="node6" class="node">
<title>4</title>
<ellipse fill="none" stroke="black" cx="618" cy="-346" rx="55.79" ry="18"/>
<text text-anchor="middle" x="618" y="-342.3" font-family="Times,serif" font-size="14.00">V2036 (b)</text>
</g>
<!-- 5 -->
<g id="node7" class="node">
<title>5</title>
<ellipse fill="none" stroke="black" cx="978" cy="-346" rx="50.09" ry="18"/>
<text text-anchor="middle" x="978" y="-342.3" font-family="Times,serif" font-size="14.00">V565 (b)</text>
</g>
<!-- 6 -->
<g id="node8" class="node">
<title>6</title>
<ellipse fill="none" stroke="black" cx="580" cy="-419" rx="55.79" ry="18"/>
<text text-anchor="middle" x="580" y="-415.3" font-family="Times,serif" font-size="14.00">V1897 (b)</text>
</g>
<!-- 29 -->
<g id="node31" class="node">
<title>29</title>
<ellipse fill="none" stroke="black" cx="222" cy="-346" rx="42.49" ry="18"/>
<text text-anchor="middle" x="222" y="-342.3" font-family="Times,serif" font-size="14.00">Est (b)</text>
</g>
<!-- 6&#45;&gt;29 -->
<g id="edge29" class="edge">
<title>6&#45;&gt;29</title>
<path fill="none" stroke="black" stroke-dasharray="1,5" d="M539.24,-406.65C531.24,-404.61 522.88,-402.63 515,-401 408.45,-378.98 378.77,-389.52 273,-364 269.63,-363.19 266.17,-362.25 262.71,-361.25"/>
<polygon fill="black" stroke="black" points="263.63,-357.87 253.04,-358.28 261.57,-364.56 263.63,-357.87"/>
</g>
<!-- 7 -->
<g id="node9" class="node">
<title>7</title>
<ellipse fill="none" stroke="black" cx="1564" cy="-263" rx="50.09" ry="18"/>
<text text-anchor="middle" x="1564" y="-259.3" font-family="Times,serif" font-size="14.00">A336 (b)</text>
</g>
<!-- 8 -->
<g id="node10" class="node">
<title>8</title>
<ellipse fill="none" stroke="black" cx="748" cy="-346" rx="55.79" ry="18"/>
<text text-anchor="middle" x="748" y="-342.3" font-family="Times,serif" font-size="14.00">V1629 (b)</text>
</g>
<!-- 8&#45;&gt;0 -->
<g id="edge1" class="edge">
<title>8&#45;&gt;0</title>
<path fill="none" stroke="blue" stroke-dasharray="5,2" d="M727.45,-329C711.68,-316.71 689.73,-299.62 672.3,-286.04"/>
<polygon fill="blue" stroke="blue" points="674.19,-283.08 664.15,-279.69 669.89,-288.6 674.19,-283.08"/>
</g>
<!-- 16 -->
<g id="node18" class="node">
<title>16</title>
<ellipse fill="none" stroke="gray" stroke-dasharray="5,2" cx="748" cy="-263" rx="36" ry="18"/>
<text text-anchor="middle" x="748" y="-259.3" font-family="Times,serif" font-size="14.00">La2&#45;c</text>
</g>
<!-- 8&#45;&gt;16 -->
<g id="edge17" class="edge">
<title>8&#45;&gt;16</title>
<path fill="none" stroke="gray" stroke-width="2" d="M748,-327.82C748,-317.19 748,-303.31 748,-291.2"/>
<polygon fill="gray" stroke="gray" stroke-width="2" points="751.5,-291.15 748,-281.15 744.5,-291.15 751.5,-291.15"/>
</g>
<!-- 32 -->
<g id="node34" class="node">
<title>32</title>
<ellipse fill="none" stroke="black" cx="852" cy="-263" rx="50.09" ry="18"/>
<text text-anchor="middle" x="852" y="-259.3" font-family="Times,serif" font-size="14.00">V568 (b)</text>
</g>
<!-- 8&#45;&gt;32 -->
<g id="edge32" class="edge">
<title>8&#45;&gt;32</title>
<path fill="none" stroke="black" stroke-dasharray="5,2" d="M768.55,-329C784.32,-316.71 806.27,-299.62 823.7,-286.04"/>
<polygon fill="black" stroke="black" points="826.11,-288.6 831.85,-279.69 821.81,-283.08 826.11,-288.6"/>
<text text-anchor="middle" x="809.5" y="-302" font-family="Times,serif" font-size="10.00">2</text>
</g>
<!-- 9 -->
<g id="node11" class="node">
<title>9</title>
<ellipse fill="none" stroke="black" cx="267" cy="-502" rx="51.99" ry="18"/>
<text text-anchor="middle" x="267" y="-498.3" font-family="Times,serif" font-size="14.00">LaSM (c)</text>
</g>
<!-- 10 -->
<g id="node12" class="node">
<title>10</title>
<ellipse fill="none" stroke="black" cx="389" cy="-502" rx="51.99" ry="18"/>
<text text-anchor="middle" x="389" y="-498.3" font-family="Times,serif" font-size="14.00">M136 (c)</text>
</g>
<!-- 11 -->
<g id="node13" class="node">
<title>11</title>
<ellipse fill="none" stroke="black" cx="691" cy="-107" rx="50.09" ry="18"/>
<text text-anchor="middle" x="691" y="-103.3" font-family="Times,serif" font-size="14.00">Marc (b)</text>
</g>
<!-- 30 -->
<g id="node32" class="node">
<title>30</title>
<ellipse fill="none" stroke="black" cx="691" cy="-34" rx="46.59" ry="18"/>
<text text-anchor="middle" x="691" y="-30.3" font-family="Times,serif" font-size="14.00">Mon (b)</text>
</g>
<!-- 11&#45;&gt;30 -->
<g id="edge30" class="edge">
<title>11&#45;&gt;30</title>
<path fill="none" stroke="black" stroke-dasharray="1,5" d="M691,-88.81C691,-80.79 691,-71.05 691,-62.07"/>
<polygon fill="black" stroke="black" points="694.5,-62.03 691,-52.03 687.5,-62.03 694.5,-62.03"/>
</g>
<!-- 12 -->
<g id="node14" class="node">
<title>12</title>
<ellipse fill="none" stroke="black" cx="799" cy="-107" rx="40.09" ry="18"/>
<text text-anchor="middle" x="799" y="-103.3" font-family="Times,serif" font-size="14.00">Sin (c)</text>
</g>
<!-- 13 -->
<g id="node15" class="node">
<title>13</title>
<ellipse fill="none" stroke="black" cx="502" cy="-502" rx="42.79" ry="18"/>
<text text-anchor="middle" x="502" y="-498.3" font-family="Times,serif" font-size="14.00">Bas (a)</text>
</g>
<!-- 14 -->
<g id="node16" class="node">
<title>14</title>
<ellipse fill="none" stroke="black" cx="613" cy="-502" rx="50.09" ry="18"/>
<text text-anchor="middle" x="613" y="-498.3" font-family="Times,serif" font-size="14.00">V560 (a)</text>
</g>
<!-- 23 -->
<g id="node25" class="node">
<title>23</title>
<ellipse fill="none" stroke="black" cx="236" cy="-419" rx="55.79" ry="18"/>
<text text-anchor="middle" x="236" y="-415.3" font-family="Times,serif" font-size="14.00">V1920 (a)</text>
</g>
<!-- 14&#45;&gt;23 -->
<g id="edge24" class="edge">
<title>14&#45;&gt;23</title>
<path fill="none" stroke="black" stroke-dasharray="5,2" d="M576.01,-489.75C568.74,-487.71 561.16,-485.69 554,-484 442.7,-457.69 412.62,-461.93 301,-437 296.4,-435.97 291.64,-434.85 286.88,-433.68"/>
<polygon fill="black" stroke="black" points="287.7,-430.28 277.15,-431.24 286,-437.07 287.7,-430.28"/>
</g>
<!-- 15 -->
<g id="node17" class="node">
<title>15</title>
<ellipse fill="none" stroke="black" cx="704" cy="-419" rx="50.09" ry="18"/>
<text text-anchor="middle" x="704" y="-415.3" font-family="Times,serif" font-size="14.00">V566 (b)</text>
</g>
<!-- 33 -->
<g id="node35" class="node">
<title>33</title>
<ellipse fill="none" stroke="black" cx="338" cy="-346" rx="55.79" ry="18"/>
<text text-anchor="middle" x="338" y="-342.3" font-family="Times,serif" font-size="14.00">V1639 (b)</text>
</g>
<!-- 15&#45;&gt;33 -->
<g id="edge33" class="edge">
<title>15&#45;&gt;33</title>
<path fill="none" stroke="black" stroke-dasharray="1,5" d="M667.36,-406.65C660,-404.6 652.29,-402.6 645,-401 538.73,-377.67 509.55,-386.02 403,-364 398.32,-363.03 393.47,-361.94 388.63,-360.79"/>
<polygon fill="black" stroke="black" points="389.31,-357.35 378.76,-358.35 387.63,-364.15 389.31,-357.35"/>
</g>
<!-- 17 -->
<g id="node19" class="node">
<title>17</title>
<ellipse fill="none" stroke="black" cx="1095" cy="-346" rx="49.29" ry="18"/>
<text text-anchor="middle" x="1095" y="-342.3" font-family="Times,serif" font-size="14.00">La35 (b)</text>
</g>
<!-- 18 -->
<g id="node20" class="node">
<title>18</title>
<ellipse fill="none" stroke="black" cx="1212" cy="-346" rx="50.09" ry="18"/>
<text text-anchor="middle" x="1212" y="-342.3" font-family="Times,serif" font-size="14.00">V571 (b)</text>
</g>
<!-- 19 -->
<g id="node21" class="node">
<title>19</title>
<ellipse fill="none" stroke="gray" stroke-dasharray="5,2" cx="715" cy="-502" rx="34.39" ry="18"/>
<text text-anchor="middle" x="715" y="-498.3" font-family="Times,serif" font-size="14.00">S249</text>
</g>
<!-- 20 -->
<g id="node22" class="node">
<title>20</title>
<ellipse fill="none" stroke="black" cx="812" cy="-419" rx="40.09" ry="18"/>
<text text-anchor="middle" x="812" y="-415.3" font-family="Times,serif" font-size="14.00">Pal (b)</text>
</g>
<!-- 34 -->
<g id="node36" class="node">
<title>34</title>
<ellipse fill="none" stroke="black" cx="478" cy="-346" rx="65.79" ry="18"/>
<text text-anchor="middle" x="478" y="-342.3" font-family="Times,serif" font-size="14.00">Savile&#45;Η (b)</text>
</g>
<!-- 20&#45;&gt;34 -->
<g id="edge34" class="edge">
<title>20&#45;&gt;34</title>
<path fill="none" stroke="black" d="M782.17,-406.8C775.9,-404.69 769.27,-402.63 763,-401 671.27,-377.17 645.91,-382.7 553,-364 547.6,-362.91 541.99,-361.74 536.39,-360.52"/>
<polygon fill="black" stroke="black" points="536.86,-357.04 526.34,-358.32 535.36,-363.88 536.86,-357.04"/>
</g>
<!-- 21 -->
<g id="node23" class="node">
<title>21</title>
<ellipse fill="none" stroke="black" cx="1330" cy="-346" rx="50.09" ry="18"/>
<text text-anchor="middle" x="1330" y="-342.3" font-family="Times,serif" font-size="14.00">A116 (b)</text>
</g>
<!-- 22 -->
<g id="node24" class="node">
<title>22</title>
<ellipse fill="none" stroke="black" cx="1445" cy="-346" rx="47.39" ry="18"/>
<text text-anchor="middle" x="1445" y="-342.3" font-family="Times,serif" font-size="14.00">Bodl (b)</text>
</g>
<!-- 24 -->
<g id="node26" class="node">
<title>24</title>
<ellipse fill="none" stroke="black" cx="907" cy="-107" rx="50.09" ry="18"/>
<text text-anchor="middle" x="907" y="-103.3" font-family="Times,serif" font-size="14.00">V569 (b)</text>
</g>
<!-- 25 -->
<g id="node27" class="node">
<title>25</title>
<ellipse fill="none" stroke="black" cx="812" cy="-502" rx="44.39" ry="18"/>
<text text-anchor="middle" x="812" y="-498.3" font-family="Times,serif" font-size="14.00">A25 (b)</text>
</g>
<!-- 25&#45;&gt;1 -->
<g id="edge2" class="edge">
<title>25&#45;&gt;1</title>
<path fill="none" stroke="black" d="M779.72,-489.7C772.63,-487.54 765.12,-485.49 758,-484 685.37,-468.78 665.56,-475.81 592,-466 510.37,-455.11 489.16,-455.86 409,-437 405.39,-436.15 401.67,-435.18 397.96,-434.15"/>
<polygon fill="black" stroke="black" points="398.78,-430.74 388.2,-431.3 396.82,-437.46 398.78,-430.74"/>
<text text-anchor="middle" x="595.5" y="-458" font-family="Times,serif" font-size="10.00">3</text>
</g>
<!-- 25&#45;&gt;3 -->
<g id="edge4" class="edge">
<title>25&#45;&gt;3</title>
<path fill="none" stroke="black" stroke-dasharray="5,2" d="M779.04,-489.97C772.13,-487.84 764.86,-485.74 758,-484 651.36,-457 621.56,-464.29 515,-437 511.62,-436.13 508.14,-435.18 504.66,-434.17"/>
<polygon fill="black" stroke="black" points="505.49,-430.76 494.9,-431.22 503.47,-437.46 505.49,-430.76"/>
</g>
<!-- 25&#45;&gt;6 -->
<g id="edge7" class="edge">
<title>25&#45;&gt;6</title>
<path fill="none" stroke="black" stroke-dasharray="5,2" d="M779.25,-489.57C739.22,-475.59 671.24,-451.85 625.98,-436.05"/>
<polygon fill="black" stroke="black" points="627,-432.7 616.4,-432.71 624.69,-439.31 627,-432.7"/>
<text text-anchor="middle" x="712.5" y="-458" font-family="Times,serif" font-size="10.00">3</text>
</g>
<!-- 25&#45;&gt;15 -->
<g id="edge16" class="edge">
<title>25&#45;&gt;15</title>
<path fill="none" stroke="black" stroke-dasharray="5,2" d="M791.94,-485.95C775.33,-473.5 751.51,-455.63 732.85,-441.64"/>
<polygon fill="black" stroke="black" points="734.79,-438.72 724.69,-435.52 730.59,-444.32 734.79,-438.72"/>
</g>
<!-- 25&#45;&gt;20 -->
<g id="edge21" class="edge">
<title>25&#45;&gt;20</title>
<path fill="none" stroke="black" stroke-dasharray="5,2" d="M812,-483.82C812,-473.19 812,-459.31 812,-447.2"/>
<polygon fill="black" stroke="black" points="815.5,-447.15 812,-437.15 808.5,-447.15 815.5,-447.15"/>
</g>
<!-- 31 -->
<g id="node33" class="node">
<title>31</title>
<ellipse fill="none" stroke="black" cx="914" cy="-419" rx="44.39" ry="18"/>
<text text-anchor="middle" x="914" y="-415.3" font-family="Times,serif" font-size="14.00">P01 (b)</text>
</g>
<!-- 25&#45;&gt;31 -->
<g id="edge31" class="edge">
<title>25&#45;&gt;31</title>
<path fill="none" stroke="black" stroke-dasharray="5,2" d="M831.19,-485.76C846.76,-473.4 868.92,-455.8 886.4,-441.92"/>
<polygon fill="black" stroke="black" points="888.9,-444.4 894.55,-435.44 884.55,-438.92 888.9,-444.4"/>
</g>
<!-- 35 -->
<g id="node37" class="node">
<title>35</title>
<ellipse fill="none" stroke="black" cx="1026" cy="-419" rx="50.09" ry="18"/>
<text text-anchor="middle" x="1026" y="-415.3" font-family="Times,serif" font-size="14.00">Patm (b)</text>
</g>
<!-- 25&#45;&gt;35 -->
<g id="edge35" class="edge">
<title>25&#45;&gt;35</title>
<path fill="none" stroke="black" stroke-dasharray="1,5" d="M843.58,-489.05C880.6,-475.03 942.15,-451.74 983.38,-436.13"/>
<polygon fill="black" stroke="black" points="984.77,-439.35 992.89,-432.53 982.29,-432.8 984.77,-439.35"/>
</g>
<!-- 40 -->
<g id="node42" class="node">
<title>40</title>
<ellipse fill="none" stroke="black" cx="1145" cy="-419" rx="50.89" ry="18"/>
<text text-anchor="middle" x="1145" y="-415.3" font-family="Times,serif" font-size="14.00">Neap (b)</text>
</g>
<!-- 25&#45;&gt;40 -->
<g id="edge40" class="edge">
<title>25&#45;&gt;40</title>
<path fill="none" stroke="black" d="M844.93,-489.88C851.54,-487.8 858.46,-485.74 865,-484 961.61,-458.25 987.96,-461.09 1085,-437 1089.08,-435.99 1093.3,-434.89 1097.53,-433.76"/>
<polygon fill="black" stroke="black" points="1098.61,-437.09 1107.33,-431.08 1096.76,-430.34 1098.61,-437.09"/>
<text text-anchor="middle" x="1004.5" y="-458" font-family="Times,serif" font-size="10.00">3</text>
</g>
<!-- 41 -->
<g id="node43" class="node">
<title>41</title>
<ellipse fill="none" stroke="black" cx="1263" cy="-419" rx="49.29" ry="18"/>
<text text-anchor="middle" x="1263" y="-415.3" font-family="Times,serif" font-size="14.00">La22 (b)</text>
</g>
<!-- 25&#45;&gt;41 -->
<g id="edge41" class="edge">
<title>25&#45;&gt;41</title>
<path fill="none" stroke="black" stroke-dasharray="1,5" d="M844.25,-489.59C851.04,-487.49 858.2,-485.49 865,-484 929.29,-469.89 946.78,-474.89 1012,-466 1097.95,-454.28 1120.3,-455.69 1205,-437 1208.92,-436.13 1212.97,-435.15 1217.01,-434.1"/>
<polygon fill="black" stroke="black" points="1218.27,-437.38 1227,-431.38 1216.43,-430.63 1218.27,-437.38"/>
</g>
<!-- 26 -->
<g id="node28" class="node">
<title>26</title>
<ellipse fill="none" stroke="gray" stroke-dasharray="5,2" cx="1027" cy="-34" rx="28.7" ry="18"/>
<text text-anchor="middle" x="1027" y="-30.3" font-family="Times,serif" font-size="14.00">P18</text>
</g>
<!-- 27 -->
<g id="node29" class="node">
<title>27</title>
<ellipse fill="none" stroke="black" cx="1027" cy="-107" rx="51.99" ry="18"/>
<text text-anchor="middle" x="1027" y="-103.3" font-family="Times,serif" font-size="14.00">M118 (c)</text>
</g>
<!-- 27&#45;&gt;26 -->
<g id="edge27" class="edge">
<title>27&#45;&gt;26</title>
<path fill="none" stroke="gray" stroke-dasharray="5,2" d="M1027,-88.81C1027,-80.79 1027,-71.05 1027,-62.07"/>
<polygon fill="gray" stroke="gray" points="1030.5,-62.03 1027,-52.03 1023.5,-62.03 1030.5,-62.03"/>
</g>
<!-- 28 -->
<g id="node30" class="node">
<title>28</title>
<ellipse fill="none" stroke="black" cx="664" cy="-586" rx="53.89" ry="18"/>
<text text-anchor="middle" x="664" y="-582.3" font-family="Times,serif" font-size="14.00">aBase (a)</text>
</g>
<!-- 28&#45;&gt;9 -->
<g id="edge10" class="edge">
<title>28&#45;&gt;9</title>
<path fill="none" stroke="blue" d="M617,-577.14C551.8,-565.96 430.36,-544.12 328,-520 323.91,-519.04 319.68,-517.98 315.44,-516.88"/>
<polygon fill="blue" stroke="blue" points="316.17,-513.45 305.6,-514.26 314.37,-520.22 316.17,-513.45"/>
</g>
<!-- 28&#45;&gt;10 -->
<g id="edge11" class="edge">
<title>28&#45;&gt;10</title>
<path fill="none" stroke="blue" stroke-width="2" d="M625.18,-573.43C575.7,-558.67 490.19,-533.17 436.76,-517.24"/>
<polygon fill="blue" stroke="blue" stroke-width="2" points="437.76,-513.89 427.18,-514.38 435.76,-520.6 437.76,-513.89"/>
</g>
<!-- 28&#45;&gt;13 -->
<g id="edge14" class="edge">
<title>28&#45;&gt;13</title>
<path fill="none" stroke="black" stroke-width="2" d="M635.41,-570.53C608.12,-556.71 566.91,-535.86 537.52,-520.98"/>
<polygon fill="black" stroke="black" stroke-width="2" points="538.93,-517.77 528.43,-516.38 535.77,-524.02 538.93,-517.77"/>
<text text-anchor="middle" x="595.5" y="-541" font-family="Times,serif" font-size="10.00">3</text>
</g>
<!-- 28&#45;&gt;14 -->
<g id="edge15" class="edge">
<title>28&#45;&gt;14</title>
<path fill="none" stroke="black" stroke-width="2" d="M653.43,-568.01C646.34,-556.61 636.87,-541.39 628.88,-528.54"/>
<polygon fill="black" stroke="black" stroke-width="2" points="631.63,-526.33 623.38,-519.69 625.69,-530.03 631.63,-526.33"/>
</g>
<!-- 28&#45;&gt;19 -->
<g id="edge20" class="edge">
<title>28&#45;&gt;19</title>
<path fill="none" stroke="gray" d="M674.57,-568.01C681.77,-556.42 691.44,-540.89 699.51,-527.91"/>
<polygon fill="gray" stroke="gray" points="702.48,-529.75 704.79,-519.41 696.54,-526.05 702.48,-529.75"/>
</g>
<!-- 28&#45;&gt;25 -->
<g id="edge26" class="edge">
<title>28&#45;&gt;25</title>
<path fill="none" stroke="blue" stroke-dasharray="5,2" d="M690.8,-570.15C715.24,-556.61 751.47,-536.54 777.95,-521.86"/>
<polygon fill="blue" stroke="blue" points="779.83,-524.83 786.88,-516.92 776.43,-518.7 779.83,-524.83"/>
</g>
<!-- 36 -->
<g id="node38" class="node">
<title>36</title>
<ellipse fill="none" stroke="black" cx="917" cy="-502" rx="42.79" ry="18"/>
<text text-anchor="middle" x="917" y="-498.3" font-family="Times,serif" font-size="14.00">La2 (a)</text>
</g>
<!-- 28&#45;&gt;36 -->
<g id="edge36" class="edge">
<title>28&#45;&gt;36</title>
<path fill="none" stroke="black" stroke-width="2" d="M701.43,-572.94C741.8,-559.91 807.97,-538.54 865,-520 868.12,-518.99 871.34,-517.94 874.58,-516.88"/>
<polygon fill="black" stroke="black" stroke-width="2" points="875.85,-520.15 884.27,-513.72 873.68,-513.49 875.85,-520.15"/>
</g>
<!-- 37 -->
<g id="node39" class="node">
<title>37</title>
<ellipse fill="none" stroke="black" cx="1046" cy="-502" rx="44.39" ry="18"/>
<text text-anchor="middle" x="1046" y="-498.3" font-family="Times,serif" font-size="14.00">Nan (c)</text>
</g>
<!-- 28&#45;&gt;37 -->
<g id="edge37" class="edge">
<title>28&#45;&gt;37</title>
<path fill="none" stroke="blue" d="M708.22,-575.68C767.57,-563.15 876.28,-540.12 969,-520 978.43,-517.95 988.51,-515.74 998.16,-513.62"/>
<polygon fill="blue" stroke="blue" points="999.01,-517.02 1008.02,-511.44 997.5,-510.18 999.01,-517.02"/>
</g>
<!-- 38 -->
<g id="node40" class="node">
<title>38</title>
<ellipse fill="none" stroke="black" cx="852" cy="-190" rx="47.39" ry="18"/>
<text text-anchor="middle" x="852" y="-186.3" font-family="Times,serif" font-size="14.00">Taur (b)</text>
</g>
<!-- 32&#45;&gt;38 -->
<g id="edge38" class="edge">
<title>32&#45;&gt;38</title>
<path fill="none" stroke="black" stroke-dasharray="1,5" d="M852,-244.81C852,-236.79 852,-227.05 852,-218.07"/>
<polygon fill="black" stroke="black" points="855.5,-218.03 852,-208.03 848.5,-218.03 855.5,-218.03"/>
</g>
<!-- 35&#45;&gt;4 -->
<g id="edge5" class="edge">
<title>35&#45;&gt;4</title>
<path fill="none" stroke="black" stroke-dasharray="1,5" d="M989.39,-406.52C982.03,-404.48 974.31,-402.52 967,-401 842.38,-375.08 807.93,-388.37 683,-364 678.31,-363.08 673.46,-362.03 668.61,-360.9"/>
<polygon fill="black" stroke="black" points="669.28,-357.46 658.73,-358.49 667.62,-364.26 669.28,-357.46"/>
</g>
<!-- 39 -->
<g id="node41" class="node">
<title>39</title>
<ellipse fill="none" stroke="black" cx="1386" cy="-419" rx="55.79" ry="18"/>
<text text-anchor="middle" x="1386" y="-415.3" font-family="Times,serif" font-size="14.00">V2250 (d)</text>
</g>
<!-- 37&#45;&gt;39 -->
<g id="edge39" class="edge">
<title>37&#45;&gt;39</title>
<path fill="none" stroke="blue" stroke-dasharray="5,2" d="M1083.89,-492.52C1136.99,-480.57 1236.53,-457.87 1321,-437 1325.39,-435.92 1329.93,-434.77 1334.49,-433.61"/>
<polygon fill="blue" stroke="blue" points="1335.62,-436.93 1344.43,-431.05 1333.88,-430.15 1335.62,-436.93"/>
</g>
<!-- 38&#45;&gt;11 -->
<g id="edge12" class="edge">
<title>38&#45;&gt;11</title>
<path fill="none" stroke="black" stroke-dasharray="1,5" d="M824.69,-175.26C798.14,-161.9 757.61,-141.51 728.14,-126.68"/>
<polygon fill="black" stroke="black" points="729.49,-123.45 718.99,-122.08 726.35,-129.7 729.49,-123.45"/>
<text text-anchor="middle" x="784.5" y="-146" font-family="Times,serif" font-size="10.00">2</text>
</g>
<!-- 38&#45;&gt;12 -->
<g id="edge13" class="edge">
<title>38&#45;&gt;12</title>
<path fill="none" stroke="blue" stroke-dasharray="1,5" d="M841.02,-172.22C833.58,-160.85 823.62,-145.63 815.26,-132.86"/>
<polygon fill="blue" stroke="blue" points="818.19,-130.94 809.79,-124.48 812.33,-134.77 818.19,-130.94"/>
</g>
<!-- 38&#45;&gt;24 -->
<g id="edge25" class="edge">
<title>38&#45;&gt;24</title>
<path fill="none" stroke="black" stroke-dasharray="5,2" d="M863.4,-172.22C871.07,-160.92 881.32,-145.83 889.95,-133.11"/>
<polygon fill="black" stroke="black" points="892.9,-135 895.62,-124.76 887.11,-131.07 892.9,-135"/>
</g>
<!-- 38&#45;&gt;27 -->
<g id="edge28" class="edge">
<title>38&#45;&gt;27</title>
<path fill="none" stroke="blue" stroke-dasharray="5,2" d="M880.9,-175.62C910.14,-162.09 955.56,-141.07 987.98,-126.06"/>
<polygon fill="blue" stroke="blue" points="989.58,-129.18 997.18,-121.8 986.64,-122.83 989.58,-129.18"/>
</g>
<!-- 40&#45;&gt;8 -->
<g id="edge9" class="edge">
<title>40&#45;&gt;8</title>
<path fill="none" stroke="black" stroke-dasharray="1,5" d="M1108.07,-406.66C1100.49,-404.58 1092.52,-402.57 1085,-401 965.57,-376.09 932.68,-387.7 813,-364 808.31,-363.07 803.46,-362.01 798.62,-360.87"/>
<polygon fill="black" stroke="black" points="799.29,-357.43 788.74,-358.46 797.63,-364.23 799.29,-357.43"/>
</g>
<!-- 41&#45;&gt;2 -->
<g id="edge3" class="edge">
<title>41&#45;&gt;2</title>
<path fill="none" stroke="black" stroke-dasharray="1,5" d="M1227.02,-406.51C1219.78,-404.46 1212.19,-402.51 1205,-401 1079.56,-374.67 1044.09,-391.91 919,-364 915.39,-363.2 911.68,-362.25 907.97,-361.23"/>
<polygon fill="black" stroke="black" points="908.84,-357.83 898.26,-358.37 906.87,-364.55 908.84,-357.83"/>
</g>
<!-- 41&#45;&gt;5 -->
<g id="edge6" class="edge">
<title>41&#45;&gt;5</title>
<path fill="none" stroke="black" stroke-dasharray="5,2" d="M1226.29,-406.83C1219.24,-404.8 1211.91,-402.77 1205,-401 1130.94,-382.01 1111.1,-382.82 1037,-364 1033.16,-363.02 1029.19,-361.97 1025.21,-360.89"/>
<polygon fill="black" stroke="black" points="1025.93,-357.46 1015.36,-358.15 1024.05,-364.2 1025.93,-357.46"/>
</g>
<!-- 41&#45;&gt;17 -->
<g id="edge18" class="edge">
<title>41&#45;&gt;17</title>
<path fill="none" stroke="black" stroke-dasharray="1,5" d="M1231.79,-404.81C1204.57,-393.3 1164.89,-376.54 1135.27,-364.02"/>
<polygon fill="black" stroke="black" points="1136.61,-360.79 1126.04,-360.12 1133.89,-367.23 1136.61,-360.79"/>
</g>
<!-- 41&#45;&gt;18 -->
<g id="edge19" class="edge">
<title>41&#45;&gt;18</title>
<path fill="none" stroke="black" stroke-dasharray="1,5" d="M1250.91,-401.17C1244.63,-392.42 1236.82,-381.55 1229.85,-371.85"/>
<polygon fill="black" stroke="black" points="1232.68,-369.79 1224,-363.71 1226.99,-373.87 1232.68,-369.79"/>
</g>
<!-- 41&#45;&gt;21 -->
<g id="edge22" class="edge">
<title>41&#45;&gt;21</title>
<path fill="none" stroke="black" stroke-dasharray="5,2" d="M1278.54,-401.53C1287.16,-392.39 1298.05,-380.86 1307.58,-370.76"/>
<polygon fill="black" stroke="black" points="1310.23,-373.05 1314.54,-363.38 1305.14,-368.25 1310.23,-373.05"/>
</g>
<!-- 41&#45;&gt;22 -->
<g id="edge23" class="edge">
<title>41&#45;&gt;22</title>
<path fill="none" stroke="black" stroke-dasharray="5,2" d="M1295.54,-405.31C1325.65,-393.56 1370.58,-376.03 1403.31,-363.26"/>
<polygon fill="black" stroke="black" points="1405,-366.36 1413.05,-359.46 1402.46,-359.84 1405,-366.36"/>
</g>
<!-- 42 -->
<g id="node44" class="node">
<title>42</title>
<ellipse fill="none" stroke="black" cx="1564" cy="-346" rx="53.09" ry="18"/>
<text text-anchor="middle" x="1564" y="-342.3" font-family="Times,serif" font-size="14.00">M111 (b)</text>
</g>
<!-- 41&#45;&gt;42 -->
<g id="edge42" class="edge">
<title>41&#45;&gt;42</title>
<path fill="none" stroke="black" stroke-dasharray="1,5" d="M1299.69,-406.75C1306.74,-404.73 1314.08,-402.72 1321,-401 1400.25,-381.27 1421.54,-382.87 1501,-364 1505.4,-362.96 1509.95,-361.82 1514.51,-360.66"/>
<polygon fill="black" stroke="black" points="1515.64,-363.98 1524.44,-358.07 1513.88,-357.21 1515.64,-363.98"/>
</g>
<!-- 42&#45;&gt;7 -->
<g id="edge8" class="edge">
<title>42&#45;&gt;7</title>
<path fill="none" stroke="black" stroke-dasharray="5,2" d="M1564,-327.82C1564,-317.19 1564,-303.31 1564,-291.2"/>
<polygon fill="black" stroke="black" points="1567.5,-291.15 1564,-281.15 1560.5,-291.15 1567.5,-291.15"/>
</g>
</g>
</svg>
