<?xml version="1.0" encoding="UTF-8" standalone="no"?>
<!DOCTYPE svg PUBLIC "-//W3C//DTD SVG 1.1//EN"
 "http://www.w3.org/Graphics/SVG/1.1/DTD/svg11.dtd">
<!-- Generated by graphviz version 2.43.0 (0)
 -->
<!-- Title: textual_flow Pages: 1 -->
<svg width="2041pt" height="546pt"
 viewBox="0.00 0.00 2041.00 546.00" xmlns="http://www.w3.org/2000/svg" xmlns:xlink="http://www.w3.org/1999/xlink">
<g id="graph0" class="graph" transform="scale(1 1) rotate(0) translate(4 542)">
<title>textual_flow</title>
<polygon fill="white" stroke="transparent" points="-4,4 -4,-542 2037,-542 2037,4 -4,4"/>
<g id="clust1" class="cluster">
<title>cluster_legend</title>
<polygon fill="none" stroke="black" points="8,-476 8,-530 172,-530 172,-476 8,-476"/>
</g>
<g id="clust2" class="cluster">
<title>cluster_plot</title>
</g>
<!-- label -->
<g id="node1" class="node">
<title>label</title>
<text text-anchor="middle" x="90" y="-506.8" font-family="Times,serif" font-size="14.00">adstag1.2.40U118</text>
<text text-anchor="middle" x="90" y="-491.8" font-family="Times,serif" font-size="14.00">Con = 5</text>
</g>
<!-- 0 -->
<g id="node2" class="node">
<title>0</title>
<ellipse fill="none" stroke="black" cx="1016" cy="-346" rx="52.79" ry="18"/>
<text text-anchor="middle" x="1016" y="-342.3" font-family="Times,serif" font-size="14.00">M111 (a)</text>
</g>
<!-- 3 -->
<g id="node5" class="node">
<title>3</title>
<ellipse fill="none" stroke="black" cx="1031" cy="-263" rx="50.09" ry="18"/>
<text text-anchor="middle" x="1031" y="-259.3" font-family="Times,serif" font-size="14.00">A336 (a)</text>
</g>
<!-- 0&#45;&gt;3 -->
<g id="edge4" class="edge">
<title>0&#45;&gt;3</title>
<path fill="none" stroke="black" stroke-dasharray="5,2" d="M1019.18,-327.82C1021.15,-317.19 1023.72,-303.31 1025.96,-291.2"/>
<polygon fill="black" stroke="black" points="1029.44,-291.62 1027.82,-281.15 1022.56,-290.35 1029.44,-291.62"/>
</g>
<!-- 1 -->
<g id="node3" class="node">
<title>1</title>
<ellipse fill="none" stroke="black" cx="573" cy="-346" rx="50.09" ry="18"/>
<text text-anchor="middle" x="573" y="-342.3" font-family="Times,serif" font-size="14.00">Patm (b)</text>
</g>
<!-- 2 -->
<g id="node4" class="node">
<title>2</title>
<ellipse fill="none" stroke="black" cx="677" cy="-263" rx="50.09" ry="18"/>
<text text-anchor="middle" x="677" y="-259.3" font-family="Times,serif" font-size="14.00">V560 (b)</text>
</g>
<!-- 1&#45;&gt;2 -->
<g id="edge3" class="edge">
<title>1&#45;&gt;2</title>
<path fill="none" stroke="black" stroke-width="2" d="M593.05,-329.38C608.88,-317.06 631.15,-299.71 648.78,-285.98"/>
<polygon fill="black" stroke="black" stroke-width="2" points="651.27,-288.48 657.01,-279.57 646.97,-282.95 651.27,-288.48"/>
<text text-anchor="middle" x="634.5" y="-302" font-family="Times,serif" font-size="10.00">2</text>
</g>
<!-- 21 -->
<g id="node23" class="node">
<title>21</title>
<ellipse fill="none" stroke="black" cx="789" cy="-263" rx="44.39" ry="18"/>
<text text-anchor="middle" x="789" y="-259.3" font-family="Times,serif" font-size="14.00">P01 (b)</text>
</g>
<!-- 1&#45;&gt;21 -->
<g id="edge21" class="edge">
<title>1&#45;&gt;21</title>
<path fill="none" stroke="black" stroke-dasharray="1,5" d="M606.28,-332.52C644.4,-318.22 706.9,-294.79 748,-279.38"/>
<polygon fill="black" stroke="black" points="749.31,-282.62 757.44,-275.83 746.85,-276.07 749.31,-282.62"/>
<text text-anchor="middle" x="696.5" y="-302" font-family="Times,serif" font-size="10.00">2</text>
</g>
<!-- 4 -->
<g id="node6" class="node">
<title>4</title>
<ellipse fill="none" stroke="black" cx="1131" cy="-346" rx="44.39" ry="18"/>
<text text-anchor="middle" x="1131" y="-342.3" font-family="Times,serif" font-size="14.00">P74 (a)</text>
</g>
<!-- 5 -->
<g id="node7" class="node">
<title>5</title>
<ellipse fill="none" stroke="black" cx="230" cy="-346" rx="41.69" ry="18"/>
<text text-anchor="middle" x="230" y="-342.3" font-family="Times,serif" font-size="14.00">Est (a)</text>
</g>
<!-- 6 -->
<g id="node8" class="node">
<title>6</title>
<ellipse fill="none" stroke="black" cx="238" cy="-263" rx="46.59" ry="18"/>
<text text-anchor="middle" x="238" y="-259.3" font-family="Times,serif" font-size="14.00">Taur (a)</text>
</g>
<!-- 8 -->
<g id="node10" class="node">
<title>8</title>
<ellipse fill="none" stroke="black" cx="238" cy="-180" rx="50.09" ry="18"/>
<text text-anchor="middle" x="238" y="-176.3" font-family="Times,serif" font-size="14.00">Marc (a)</text>
</g>
<!-- 6&#45;&gt;8 -->
<g id="edge9" class="edge">
<title>6&#45;&gt;8</title>
<path fill="none" stroke="black" stroke-dasharray="1,5" d="M238,-244.82C238,-234.19 238,-220.31 238,-208.2"/>
<polygon fill="black" stroke="black" points="241.5,-208.15 238,-198.15 234.5,-208.15 241.5,-208.15"/>
</g>
<!-- 10 -->
<g id="node12" class="node">
<title>10</title>
<ellipse fill="none" stroke="black" cx="359" cy="-180" rx="52.79" ry="18"/>
<text text-anchor="middle" x="359" y="-176.3" font-family="Times,serif" font-size="14.00">M118 (a)</text>
</g>
<!-- 6&#45;&gt;10 -->
<g id="edge11" class="edge">
<title>6&#45;&gt;10</title>
<path fill="none" stroke="black" stroke-dasharray="5,2" d="M260.19,-247.14C279.14,-234.46 306.61,-216.07 327.77,-201.9"/>
<polygon fill="black" stroke="black" points="329.76,-204.78 336.13,-196.31 325.87,-198.97 329.76,-204.78"/>
</g>
<!-- 29 -->
<g id="node31" class="node">
<title>29</title>
<ellipse fill="none" stroke="black" cx="480" cy="-180" rx="50.09" ry="18"/>
<text text-anchor="middle" x="480" y="-176.3" font-family="Times,serif" font-size="14.00">V569 (b)</text>
</g>
<!-- 6&#45;&gt;29 -->
<g id="edge29" class="edge">
<title>6&#45;&gt;29</title>
<path fill="none" stroke="blue" stroke-dasharray="5,2" d="M272.16,-250.57C314.73,-236.32 387.62,-211.92 434.79,-196.13"/>
<polygon fill="blue" stroke="blue" points="436.07,-199.4 444.44,-192.9 433.85,-192.76 436.07,-199.4"/>
</g>
<!-- 7 -->
<g id="node9" class="node">
<title>7</title>
<ellipse fill="none" stroke="black" cx="244" cy="-419" rx="55.79" ry="18"/>
<text text-anchor="middle" x="244" y="-415.3" font-family="Times,serif" font-size="14.00">V1897 (a)</text>
</g>
<!-- 7&#45;&gt;5 -->
<g id="edge6" class="edge">
<title>7&#45;&gt;5</title>
<path fill="none" stroke="black" stroke-dasharray="1,5" d="M240.61,-400.81C239.03,-392.79 237.11,-383.05 235.34,-374.07"/>
<polygon fill="black" stroke="black" points="238.73,-373.16 233.36,-364.03 231.86,-374.52 238.73,-373.16"/>
</g>
<!-- 42 -->
<g id="node44" class="node">
<title>42</title>
<ellipse fill="none" stroke="black" cx="332" cy="-346" rx="42.79" ry="18"/>
<text text-anchor="middle" x="332" y="-342.3" font-family="Times,serif" font-size="14.00">Bas (a)</text>
</g>
<!-- 7&#45;&gt;42 -->
<g id="edge42" class="edge">
<title>7&#45;&gt;42</title>
<path fill="none" stroke="black" d="M263.97,-401.89C276.15,-392.06 291.87,-379.38 305.13,-368.68"/>
<polygon fill="black" stroke="black" points="307.43,-371.32 313.02,-362.32 303.03,-365.87 307.43,-371.32"/>
</g>
<!-- 13 -->
<g id="node15" class="node">
<title>13</title>
<ellipse fill="none" stroke="black" cx="238" cy="-107" rx="46.29" ry="18"/>
<text text-anchor="middle" x="238" y="-103.3" font-family="Times,serif" font-size="14.00">Mon (a)</text>
</g>
<!-- 8&#45;&gt;13 -->
<g id="edge13" class="edge">
<title>8&#45;&gt;13</title>
<path fill="none" stroke="black" stroke-dasharray="1,5" d="M238,-161.81C238,-153.79 238,-144.05 238,-135.07"/>
<polygon fill="black" stroke="black" points="241.5,-135.03 238,-125.03 234.5,-135.03 241.5,-135.03"/>
</g>
<!-- 9 -->
<g id="node11" class="node">
<title>9</title>
<ellipse fill="none" stroke="black" cx="362" cy="-419" rx="44.39" ry="18"/>
<text text-anchor="middle" x="362" y="-415.3" font-family="Times,serif" font-size="14.00">B39 (a)</text>
</g>
<!-- 34 -->
<g id="node36" class="node">
<title>34</title>
<ellipse fill="none" stroke="gray" stroke-dasharray="5,2" cx="359" cy="-107" rx="28.7" ry="18"/>
<text text-anchor="middle" x="359" y="-103.3" font-family="Times,serif" font-size="14.00">P18</text>
</g>
<!-- 10&#45;&gt;34 -->
<g id="edge34" class="edge">
<title>10&#45;&gt;34</title>
<path fill="none" stroke="gray" stroke-dasharray="5,2" d="M359,-161.81C359,-153.79 359,-144.05 359,-135.07"/>
<polygon fill="gray" stroke="gray" points="362.5,-135.03 359,-125.03 355.5,-135.03 362.5,-135.03"/>
</g>
<!-- 11 -->
<g id="node13" class="node">
<title>11</title>
<ellipse fill="none" stroke="black" cx="839" cy="-503" rx="53.89" ry="18"/>
<text text-anchor="middle" x="839" y="-499.3" font-family="Times,serif" font-size="14.00">aBase (a)</text>
</g>
<!-- 11&#45;&gt;7 -->
<g id="edge8" class="edge">
<title>11&#45;&gt;7</title>
<path fill="none" stroke="black" d="M786.64,-498.39C691.01,-491.17 481.99,-472.51 309,-437 304.32,-436.04 299.47,-434.95 294.63,-433.8"/>
<polygon fill="black" stroke="black" points="295.31,-430.36 284.76,-431.37 293.63,-437.16 295.31,-430.36"/>
</g>
<!-- 11&#45;&gt;9 -->
<g id="edge10" class="edge">
<title>11&#45;&gt;9</title>
<path fill="none" stroke="black" stroke-width="2" d="M788.25,-496.85C708.19,-488.14 548.02,-468.32 415,-437 411.56,-436.19 408.01,-435.26 404.47,-434.27"/>
<polygon fill="black" stroke="black" stroke-width="2" points="405.15,-430.82 394.57,-431.34 403.16,-437.53 405.15,-430.82"/>
<text text-anchor="middle" x="556.5" y="-458" font-family="Times,serif" font-size="10.00">2</text>
</g>
<!-- 12 -->
<g id="node14" class="node">
<title>12</title>
<ellipse fill="none" stroke="black" cx="480" cy="-419" rx="55.79" ry="18"/>
<text text-anchor="middle" x="480" y="-415.3" font-family="Times,serif" font-size="14.00">V1920 (a)</text>
</g>
<!-- 11&#45;&gt;12 -->
<g id="edge12" class="edge">
<title>11&#45;&gt;12</title>
<path fill="none" stroke="black" stroke-width="2" d="M794.55,-492.73C736.87,-480.56 633.17,-458.27 545,-437 540.61,-435.94 536.06,-434.81 531.5,-433.66"/>
<polygon fill="black" stroke="black" stroke-width="2" points="532.11,-430.2 521.55,-431.12 530.37,-436.99 532.11,-430.2"/>
<text text-anchor="middle" x="668.5" y="-458" font-family="Times,serif" font-size="10.00">2</text>
</g>
<!-- 16 -->
<g id="node18" class="node">
<title>16</title>
<ellipse fill="none" stroke="black" cx="607" cy="-419" rx="52.79" ry="18"/>
<text text-anchor="middle" x="607" y="-415.3" font-family="Times,serif" font-size="14.00">M136 (a)</text>
</g>
<!-- 11&#45;&gt;16 -->
<g id="edge16" class="edge">
<title>11&#45;&gt;16</title>
<path fill="none" stroke="black" stroke-width="2" d="M803.26,-489.37C762.61,-475 696.17,-451.52 652.02,-435.91"/>
<polygon fill="black" stroke="black" stroke-width="2" points="653,-432.55 642.4,-432.51 650.66,-439.15 653,-432.55"/>
</g>
<!-- 17 -->
<g id="node19" class="node">
<title>17</title>
<ellipse fill="none" stroke="black" cx="728" cy="-419" rx="50.09" ry="18"/>
<text text-anchor="middle" x="728" y="-415.3" font-family="Times,serif" font-size="14.00">Neap (a)</text>
</g>
<!-- 11&#45;&gt;17 -->
<g id="edge17" class="edge">
<title>11&#45;&gt;17</title>
<path fill="none" stroke="black" stroke-width="2" d="M817.86,-486.38C800.66,-473.67 776.19,-455.6 757.13,-441.52"/>
<polygon fill="black" stroke="black" stroke-width="2" points="759.18,-438.69 749.06,-435.56 755.02,-444.32 759.18,-438.69"/>
</g>
<!-- 19 -->
<g id="node21" class="node">
<title>19</title>
<ellipse fill="none" stroke="black" cx="839" cy="-419" rx="42.79" ry="18"/>
<text text-anchor="middle" x="839" y="-415.3" font-family="Times,serif" font-size="14.00">La2 (a)</text>
</g>
<!-- 11&#45;&gt;19 -->
<g id="edge19" class="edge">
<title>11&#45;&gt;19</title>
<path fill="none" stroke="black" stroke-width="2" d="M839,-484.61C839,-473.77 839,-459.6 839,-447.29"/>
<polygon fill="black" stroke="black" stroke-width="2" points="842.5,-447.08 839,-437.08 835.5,-447.08 842.5,-447.08"/>
</g>
<!-- 20 -->
<g id="node22" class="node">
<title>20</title>
<ellipse fill="none" stroke="black" cx="965" cy="-419" rx="64.99" ry="18"/>
<text text-anchor="middle" x="965" y="-415.3" font-family="Times,serif" font-size="14.00">Savile&#45;Η (a)</text>
</g>
<!-- 11&#45;&gt;20 -->
<g id="edge20" class="edge">
<title>11&#45;&gt;20</title>
<path fill="none" stroke="black" stroke-width="2" d="M862.4,-486.77C881.92,-474.07 909.96,-455.82 931.8,-441.61"/>
<polygon fill="black" stroke="black" stroke-width="2" points="933.96,-444.38 940.43,-435.99 930.14,-438.51 933.96,-444.38"/>
</g>
<!-- 22 -->
<g id="node24" class="node">
<title>22</title>
<ellipse fill="none" stroke="black" cx="1092" cy="-419" rx="44.39" ry="18"/>
<text text-anchor="middle" x="1092" y="-415.3" font-family="Times,serif" font-size="14.00">A25 (a)</text>
</g>
<!-- 11&#45;&gt;22 -->
<g id="edge22" class="edge">
<title>11&#45;&gt;22</title>
<path fill="none" stroke="black" stroke-dasharray="5,2" d="M876.33,-489.9C922.37,-474.98 1000.46,-449.67 1048.97,-433.95"/>
<polygon fill="black" stroke="black" points="1050.12,-437.25 1058.56,-430.84 1047.97,-430.59 1050.12,-437.25"/>
</g>
<!-- 24 -->
<g id="node26" class="node">
<title>24</title>
<ellipse fill="none" stroke="gray" stroke-dasharray="5,2" cx="1189" cy="-419" rx="34.39" ry="18"/>
<text text-anchor="middle" x="1189" y="-415.3" font-family="Times,serif" font-size="14.00">S249</text>
</g>
<!-- 11&#45;&gt;24 -->
<g id="edge24" class="edge">
<title>11&#45;&gt;24</title>
<path fill="none" stroke="gray" d="M886.5,-494.33C947.17,-483.99 1055.07,-463.74 1145,-437 1147.63,-436.22 1150.33,-435.35 1153.03,-434.43"/>
<polygon fill="gray" stroke="gray" points="1154.49,-437.62 1162.71,-430.94 1152.12,-431.04 1154.49,-437.62"/>
</g>
<!-- 26 -->
<g id="node28" class="node">
<title>26</title>
<ellipse fill="none" stroke="black" cx="1373" cy="-419" rx="48.99" ry="18"/>
<text text-anchor="middle" x="1373" y="-415.3" font-family="Times,serif" font-size="14.00">La22 (a)</text>
</g>
<!-- 11&#45;&gt;26 -->
<g id="edge26" class="edge">
<title>11&#45;&gt;26</title>
<path fill="none" stroke="black" stroke-dasharray="5,2" d="M886.86,-494.65C986.21,-479.4 1214.24,-444.38 1318.81,-428.32"/>
<polygon fill="black" stroke="black" points="1319.48,-431.76 1328.83,-426.78 1318.42,-424.84 1319.48,-431.76"/>
</g>
<!-- 36 -->
<g id="node38" class="node">
<title>36</title>
<ellipse fill="none" stroke="black" cx="1502" cy="-419" rx="44.69" ry="18"/>
<text text-anchor="middle" x="1502" y="-415.3" font-family="Times,serif" font-size="14.00">Nan (a)</text>
</g>
<!-- 11&#45;&gt;36 -->
<g id="edge36" class="edge">
<title>11&#45;&gt;36</title>
<path fill="none" stroke="black" d="M891.58,-498.46C995.3,-490.98 1233.38,-471.37 1431,-437 1439.08,-435.6 1447.61,-433.81 1455.85,-431.94"/>
<polygon fill="black" stroke="black" points="1456.77,-435.32 1465.7,-429.62 1455.16,-428.5 1456.77,-435.32"/>
</g>
<!-- 35 -->
<g id="node37" class="node">
<title>35</title>
<ellipse fill="none" stroke="black" cx="238" cy="-34" rx="40.89" ry="18"/>
<text text-anchor="middle" x="238" y="-30.3" font-family="Times,serif" font-size="14.00">Sin (a)</text>
</g>
<!-- 13&#45;&gt;35 -->
<g id="edge35" class="edge">
<title>13&#45;&gt;35</title>
<path fill="none" stroke="black" stroke-dasharray="1,5" d="M238,-88.81C238,-80.79 238,-71.05 238,-62.07"/>
<polygon fill="black" stroke="black" points="241.5,-62.03 238,-52.03 234.5,-62.03 241.5,-62.03"/>
</g>
<!-- 14 -->
<g id="node16" class="node">
<title>14</title>
<ellipse fill="none" stroke="gray" stroke-dasharray="5,2" cx="339" cy="-263" rx="36" ry="18"/>
<text text-anchor="middle" x="339" y="-259.3" font-family="Times,serif" font-size="14.00">La2&#45;c</text>
</g>
<!-- 15 -->
<g id="node17" class="node">
<title>15</title>
<ellipse fill="none" stroke="black" cx="1249" cy="-346" rx="55.79" ry="18"/>
<text text-anchor="middle" x="1249" y="-342.3" font-family="Times,serif" font-size="14.00">V2036 (a)</text>
</g>
<!-- 23 -->
<g id="node25" class="node">
<title>23</title>
<ellipse fill="none" stroke="black" cx="449" cy="-346" rx="55.79" ry="18"/>
<text text-anchor="middle" x="449" y="-342.3" font-family="Times,serif" font-size="14.00">V1629 (a)</text>
</g>
<!-- 17&#45;&gt;23 -->
<g id="edge23" class="edge">
<title>17&#45;&gt;23</title>
<path fill="none" stroke="black" stroke-dasharray="1,5" d="M690.62,-406.95C683.46,-404.91 676.01,-402.85 669,-401 600.51,-382.97 582.71,-381.18 514,-364 509.68,-362.92 505.21,-361.78 500.72,-360.63"/>
<polygon fill="black" stroke="black" points="501.48,-357.22 490.92,-358.11 499.73,-363.99 501.48,-357.22"/>
</g>
<!-- 18 -->
<g id="node20" class="node">
<title>18</title>
<ellipse fill="none" stroke="black" cx="1373" cy="-346" rx="50.09" ry="18"/>
<text text-anchor="middle" x="1373" y="-342.3" font-family="Times,serif" font-size="14.00">V565 (a)</text>
</g>
<!-- 39 -->
<g id="node41" class="node">
<title>39</title>
<ellipse fill="none" stroke="black" cx="789" cy="-180" rx="53.09" ry="18"/>
<text text-anchor="middle" x="789" y="-176.3" font-family="Times,serif" font-size="14.00">LaSM (b)</text>
</g>
<!-- 21&#45;&gt;39 -->
<g id="edge39" class="edge">
<title>21&#45;&gt;39</title>
<path fill="none" stroke="black" stroke-dasharray="5,2" d="M789,-244.82C789,-234.19 789,-220.31 789,-208.2"/>
<polygon fill="black" stroke="black" points="792.5,-208.15 789,-198.15 785.5,-208.15 792.5,-208.15"/>
<text text-anchor="middle" x="792.5" y="-219" font-family="Times,serif" font-size="10.00">2</text>
</g>
<!-- 22&#45;&gt;1 -->
<g id="edge2" class="edge">
<title>22&#45;&gt;1</title>
<path fill="none" stroke="blue" stroke-dasharray="1,5" d="M1060.07,-406.51C1053.19,-404.39 1045.91,-402.41 1039,-401 950,-382.91 721.26,-380.76 632,-364 627.82,-363.21 623.5,-362.26 619.2,-361.21"/>
<polygon fill="blue" stroke="blue" points="619.81,-357.75 609.25,-358.61 618.04,-364.52 619.81,-357.75"/>
</g>
<!-- 28 -->
<g id="node30" class="node">
<title>28</title>
<ellipse fill="none" stroke="black" cx="685" cy="-346" rx="44.39" ry="18"/>
<text text-anchor="middle" x="685" y="-342.3" font-family="Times,serif" font-size="14.00">S32 (a)</text>
</g>
<!-- 22&#45;&gt;28 -->
<g id="edge28" class="edge">
<title>22&#45;&gt;28</title>
<path fill="none" stroke="black" stroke-dasharray="5,2" d="M1059.75,-406.59C1052.96,-404.49 1045.8,-402.49 1039,-401 907.36,-372.07 869.64,-392.93 738,-364 734.39,-363.21 730.68,-362.27 726.97,-361.25"/>
<polygon fill="black" stroke="black" points="727.83,-357.86 717.25,-358.41 725.86,-364.58 727.83,-357.86"/>
</g>
<!-- 32 -->
<g id="node34" class="node">
<title>32</title>
<ellipse fill="none" stroke="black" cx="787" cy="-346" rx="40.09" ry="18"/>
<text text-anchor="middle" x="787" y="-342.3" font-family="Times,serif" font-size="14.00">Pal (a)</text>
</g>
<!-- 22&#45;&gt;32 -->
<g id="edge32" class="edge">
<title>22&#45;&gt;32</title>
<path fill="none" stroke="black" stroke-dasharray="5,2" d="M1059.4,-406.81C1052.7,-404.72 1045.66,-402.67 1039,-401 950.04,-378.73 924.69,-387.32 836,-364 832.86,-363.18 829.64,-362.25 826.42,-361.26"/>
<polygon fill="black" stroke="black" points="827.43,-357.91 816.83,-358.17 825.28,-364.57 827.43,-357.91"/>
</g>
<!-- 37 -->
<g id="node39" class="node">
<title>37</title>
<ellipse fill="none" stroke="black" cx="895" cy="-346" rx="50.09" ry="18"/>
<text text-anchor="middle" x="895" y="-342.3" font-family="Times,serif" font-size="14.00">V566 (a)</text>
</g>
<!-- 22&#45;&gt;37 -->
<g id="edge37" class="edge">
<title>22&#45;&gt;37</title>
<path fill="none" stroke="black" stroke-dasharray="5,2" d="M1059.91,-406.43C1026.88,-394.53 975.21,-375.91 938.51,-362.68"/>
<polygon fill="black" stroke="black" points="939.65,-359.37 929.06,-359.28 937.28,-365.96 939.65,-359.37"/>
</g>
<!-- 23&#45;&gt;6 -->
<g id="edge7" class="edge">
<title>23&#45;&gt;6</title>
<path fill="none" stroke="black" stroke-dasharray="5,2" d="M414.16,-331.62C377.25,-317.46 319,-295.1 279.69,-280"/>
<polygon fill="black" stroke="black" points="280.72,-276.65 270.13,-276.33 278.21,-283.18 280.72,-276.65"/>
<text text-anchor="middle" x="359.5" y="-302" font-family="Times,serif" font-size="10.00">2</text>
</g>
<!-- 23&#45;&gt;14 -->
<g id="edge14" class="edge">
<title>23&#45;&gt;14</title>
<path fill="none" stroke="gray" stroke-width="2" d="M427.53,-329.19C410.18,-316.41 385.63,-298.34 366.78,-284.46"/>
<polygon fill="gray" stroke="gray" stroke-width="2" points="368.7,-281.52 358.57,-278.41 364.55,-287.16 368.7,-281.52"/>
</g>
<!-- 33 -->
<g id="node35" class="node">
<title>33</title>
<ellipse fill="none" stroke="black" cx="442" cy="-263" rx="49.29" ry="18"/>
<text text-anchor="middle" x="442" y="-259.3" font-family="Times,serif" font-size="14.00">V568 (c)</text>
</g>
<!-- 23&#45;&gt;33 -->
<g id="edge33" class="edge">
<title>23&#45;&gt;33</title>
<path fill="none" stroke="blue" stroke-dasharray="5,2" d="M447.52,-327.82C446.6,-317.19 445.4,-303.31 444.35,-291.2"/>
<polygon fill="blue" stroke="blue" points="447.83,-290.81 443.48,-281.15 440.86,-291.42 447.83,-290.81"/>
</g>
<!-- 40 -->
<g id="node42" class="node">
<title>40</title>
<ellipse fill="none" stroke="black" cx="559" cy="-263" rx="50.09" ry="18"/>
<text text-anchor="middle" x="559" y="-259.3" font-family="Times,serif" font-size="14.00">V536 (b)</text>
</g>
<!-- 23&#45;&gt;40 -->
<g id="edge40" class="edge">
<title>23&#45;&gt;40</title>
<path fill="none" stroke="blue" stroke-dasharray="5,2" d="M470.47,-329.19C487.39,-316.73 511.15,-299.24 529.79,-285.51"/>
<polygon fill="blue" stroke="blue" points="531.98,-288.24 537.96,-279.49 527.83,-282.61 531.98,-288.24"/>
</g>
<!-- 25 -->
<g id="node27" class="node">
<title>25</title>
<ellipse fill="none" stroke="black" cx="1491" cy="-346" rx="50.09" ry="18"/>
<text text-anchor="middle" x="1491" y="-342.3" font-family="Times,serif" font-size="14.00">V571 (a)</text>
</g>
<!-- 26&#45;&gt;0 -->
<g id="edge1" class="edge">
<title>26&#45;&gt;0</title>
<path fill="none" stroke="black" stroke-dasharray="1,5" d="M1328.78,-411.13C1270.87,-401.86 1166.33,-384.15 1078,-364 1073.66,-363.01 1069.17,-361.92 1064.67,-360.77"/>
<polygon fill="black" stroke="black" points="1065.46,-357.36 1054.9,-358.22 1063.69,-364.13 1065.46,-357.36"/>
</g>
<!-- 26&#45;&gt;4 -->
<g id="edge5" class="edge">
<title>26&#45;&gt;4</title>
<path fill="none" stroke="black" stroke-dasharray="1,5" d="M1335.24,-407.6C1297.02,-396.97 1236.25,-379.84 1184,-364 1180.71,-363 1177.31,-361.95 1173.9,-360.89"/>
<polygon fill="black" stroke="black" points="1174.9,-357.53 1164.31,-357.86 1172.79,-364.21 1174.9,-357.53"/>
</g>
<!-- 26&#45;&gt;15 -->
<g id="edge15" class="edge">
<title>26&#45;&gt;15</title>
<path fill="none" stroke="black" stroke-dasharray="5,2" d="M1347.61,-403.46C1329.3,-392.98 1304.35,-378.69 1284.13,-367.11"/>
<polygon fill="black" stroke="black" points="1285.63,-363.94 1275.21,-362.01 1282.15,-370.02 1285.63,-363.94"/>
</g>
<!-- 26&#45;&gt;18 -->
<g id="edge18" class="edge">
<title>26&#45;&gt;18</title>
<path fill="none" stroke="black" stroke-dasharray="5,2" d="M1373,-400.81C1373,-392.79 1373,-383.05 1373,-374.07"/>
<polygon fill="black" stroke="black" points="1376.5,-374.03 1373,-364.03 1369.5,-374.03 1376.5,-374.03"/>
</g>
<!-- 26&#45;&gt;25 -->
<g id="edge25" class="edge">
<title>26&#45;&gt;25</title>
<path fill="none" stroke="black" stroke-dasharray="1,5" d="M1397.45,-403.29C1414.82,-392.84 1438.35,-378.68 1457.47,-367.18"/>
<polygon fill="black" stroke="black" points="1459.41,-370.09 1466.18,-361.94 1455.8,-364.09 1459.41,-370.09"/>
</g>
<!-- 27 -->
<g id="node29" class="node">
<title>27</title>
<ellipse fill="none" stroke="black" cx="1608" cy="-346" rx="48.99" ry="18"/>
<text text-anchor="middle" x="1608" y="-342.3" font-family="Times,serif" font-size="14.00">La35 (a)</text>
</g>
<!-- 26&#45;&gt;27 -->
<g id="edge27" class="edge">
<title>26&#45;&gt;27</title>
<path fill="none" stroke="black" stroke-dasharray="1,5" d="M1409.46,-406.98C1450.45,-394.6 1517.1,-374.46 1561.73,-360.98"/>
<polygon fill="black" stroke="black" points="1562.89,-364.28 1571.45,-358.04 1560.87,-357.58 1562.89,-364.28"/>
</g>
<!-- 38 -->
<g id="node40" class="node">
<title>38</title>
<ellipse fill="none" stroke="black" cx="1725" cy="-346" rx="50.09" ry="18"/>
<text text-anchor="middle" x="1725" y="-342.3" font-family="Times,serif" font-size="14.00">A116 (a)</text>
</g>
<!-- 26&#45;&gt;38 -->
<g id="edge38" class="edge">
<title>26&#45;&gt;38</title>
<path fill="none" stroke="black" stroke-dasharray="5,2" d="M1413.46,-408.75C1424.65,-406.21 1436.79,-403.48 1448,-401 1487.07,-392.36 1496.6,-388.97 1536,-382 1593.44,-371.84 1608.94,-376.11 1666,-364 1670.11,-363.13 1674.34,-362.12 1678.58,-361.05"/>
<polygon fill="black" stroke="black" points="1679.62,-364.39 1688.38,-358.43 1677.82,-357.63 1679.62,-364.39"/>
</g>
<!-- 41 -->
<g id="node43" class="node">
<title>41</title>
<ellipse fill="none" stroke="black" cx="1840" cy="-346" rx="46.59" ry="18"/>
<text text-anchor="middle" x="1840" y="-342.3" font-family="Times,serif" font-size="14.00">Bodl (a)</text>
</g>
<!-- 26&#45;&gt;41 -->
<g id="edge41" class="edge">
<title>26&#45;&gt;41</title>
<path fill="none" stroke="black" stroke-dasharray="5,2" d="M1412.15,-408.25C1423.65,-405.62 1436.28,-402.97 1448,-401 1596.16,-376.13 1636.82,-394.17 1784,-364 1787.92,-363.2 1791.96,-362.24 1795.99,-361.19"/>
<polygon fill="black" stroke="black" points="1797.2,-364.49 1805.9,-358.45 1795.33,-357.74 1797.2,-364.49"/>
</g>
<!-- 30 -->
<g id="node32" class="node">
<title>30</title>
<ellipse fill="none" stroke="black" cx="1961" cy="-346" rx="55.79" ry="18"/>
<text text-anchor="middle" x="1961" y="-342.3" font-family="Times,serif" font-size="14.00">V2250 (a)</text>
</g>
<!-- 31 -->
<g id="node33" class="node">
<title>31</title>
<ellipse fill="none" stroke="black" cx="907" cy="-263" rx="55.79" ry="18"/>
<text text-anchor="middle" x="907" y="-259.3" font-family="Times,serif" font-size="14.00">V1639 (a)</text>
</g>
<!-- 36&#45;&gt;30 -->
<g id="edge30" class="edge">
<title>36&#45;&gt;30</title>
<path fill="none" stroke="black" stroke-dasharray="5,2" d="M1545.13,-413.8C1617.91,-406.32 1769.53,-389.11 1896,-364 1900.69,-363.07 1905.54,-362 1910.38,-360.86"/>
<polygon fill="black" stroke="black" points="1911.37,-364.22 1920.26,-358.45 1909.71,-357.42 1911.37,-364.22"/>
</g>
<!-- 37&#45;&gt;31 -->
<g id="edge31" class="edge">
<title>37&#45;&gt;31</title>
<path fill="none" stroke="black" stroke-dasharray="1,5" d="M897.54,-327.82C899.12,-317.19 901.18,-303.31 902.97,-291.2"/>
<polygon fill="black" stroke="black" points="906.46,-291.56 904.46,-281.15 899.53,-290.53 906.46,-291.56"/>
</g>
</g>
</svg>
