<?xml version="1.0" encoding="UTF-8" standalone="no"?>
<!DOCTYPE svg PUBLIC "-//W3C//DTD SVG 1.1//EN"
 "http://www.w3.org/Graphics/SVG/1.1/DTD/svg11.dtd">
<!-- Generated by graphviz version 2.43.0 (0)
 -->
<!-- Title: textual_flow Pages: 1 -->
<svg width="2142pt" height="858pt"
 viewBox="0.00 0.00 2142.00 858.00" xmlns="http://www.w3.org/2000/svg" xmlns:xlink="http://www.w3.org/1999/xlink">
<g id="graph0" class="graph" transform="scale(1 1) rotate(0) translate(4 854)">
<title>textual_flow</title>
<polygon fill="white" stroke="transparent" points="-4,4 -4,-854 2138,-854 2138,4 -4,4"/>
<g id="clust1" class="cluster">
<title>cluster_legend</title>
<polygon fill="none" stroke="black" points="8,-788 8,-842 164,-842 164,-788 8,-788"/>
</g>
<g id="clust2" class="cluster">
<title>cluster_plot</title>
</g>
<!-- label -->
<g id="node1" class="node">
<title>label</title>
<text text-anchor="middle" x="86" y="-818.8" font-family="Times,serif" font-size="14.00">adstag1.2.10U39</text>
<text text-anchor="middle" x="86" y="-803.8" font-family="Times,serif" font-size="14.00">Con = 10</text>
</g>
<!-- 0 -->
<g id="node2" class="node">
<title>0</title>
<ellipse fill="none" stroke="black" cx="1283" cy="-253" rx="49.29" ry="18"/>
<text text-anchor="middle" x="1283" y="-249.3" font-family="Times,serif" font-size="14.00">V568 (c)</text>
</g>
<!-- 1 -->
<g id="node3" class="node">
<title>1</title>
<ellipse fill="none" stroke="black" cx="1662" cy="-565" rx="65.79" ry="18"/>
<text text-anchor="middle" x="1662" y="-561.3" font-family="Times,serif" font-size="14.00">Savile&#45;Η (d)</text>
</g>
<!-- 2 -->
<g id="node4" class="node">
<title>2</title>
<ellipse fill="none" stroke="gray" stroke-dasharray="5,2" cx="1156" cy="-409" rx="42.49" ry="18"/>
<text text-anchor="middle" x="1156" y="-405.3" font-family="Times,serif" font-size="14.00">Marc&#45;c</text>
</g>
<!-- 3 -->
<g id="node5" class="node">
<title>3</title>
<ellipse fill="none" stroke="black" cx="236" cy="-565" rx="55.79" ry="18"/>
<text text-anchor="middle" x="236" y="-561.3" font-family="Times,serif" font-size="14.00">V2036 (b)</text>
</g>
<!-- 4 -->
<g id="node6" class="node">
<title>4</title>
<ellipse fill="none" stroke="gray" stroke-dasharray="5,2" cx="1142" cy="-482" rx="45.49" ry="18"/>
<text text-anchor="middle" x="1142" y="-478.3" font-family="Times,serif" font-size="14.00">LaSM&#45;c</text>
</g>
<!-- 5 -->
<g id="node7" class="node">
<title>5</title>
<ellipse fill="none" stroke="black" cx="424" cy="-648" rx="50.09" ry="18"/>
<text text-anchor="middle" x="424" y="-644.3" font-family="Times,serif" font-size="14.00">Patm (b)</text>
</g>
<!-- 5&#45;&gt;3 -->
<g id="edge4" class="edge">
<title>5&#45;&gt;3</title>
<path fill="none" stroke="black" stroke-dasharray="1,5" d="M392.96,-633.62C361.4,-620.03 312.33,-598.89 277.47,-583.87"/>
<polygon fill="black" stroke="black" points="278.6,-580.54 268.03,-579.8 275.83,-586.97 278.6,-580.54"/>
</g>
<!-- 21 -->
<g id="node23" class="node">
<title>21</title>
<ellipse fill="none" stroke="black" cx="363" cy="-565" rx="53.09" ry="18"/>
<text text-anchor="middle" x="363" y="-561.3" font-family="Times,serif" font-size="14.00">LaSM (b)</text>
</g>
<!-- 5&#45;&gt;21 -->
<g id="edge22" class="edge">
<title>5&#45;&gt;21</title>
<path fill="none" stroke="black" stroke-dasharray="5,2" d="M411.36,-630.22C402.85,-618.92 391.49,-603.83 381.91,-591.11"/>
<polygon fill="black" stroke="black" points="384.43,-588.64 375.62,-582.76 378.84,-592.86 384.43,-588.64"/>
</g>
<!-- 25 -->
<g id="node27" class="node">
<title>25</title>
<ellipse fill="none" stroke="black" cx="484" cy="-565" rx="50.09" ry="18"/>
<text text-anchor="middle" x="484" y="-561.3" font-family="Times,serif" font-size="14.00">V560 (b)</text>
</g>
<!-- 5&#45;&gt;25 -->
<g id="edge26" class="edge">
<title>5&#45;&gt;25</title>
<path fill="none" stroke="black" stroke-width="2" d="M436.43,-630.22C444.85,-618.85 456.13,-603.63 465.59,-590.86"/>
<polygon fill="black" stroke="black" stroke-width="2" points="468.65,-592.6 471.79,-582.48 463.02,-588.44 468.65,-592.6"/>
<text text-anchor="middle" x="460.5" y="-604" font-family="Times,serif" font-size="10.00">2</text>
</g>
<!-- 6 -->
<g id="node8" class="node">
<title>6</title>
<ellipse fill="none" stroke="black" cx="601" cy="-565" rx="49.29" ry="18"/>
<text text-anchor="middle" x="601" y="-561.3" font-family="Times,serif" font-size="14.00">La35 (b)</text>
</g>
<!-- 7 -->
<g id="node9" class="node">
<title>7</title>
<ellipse fill="none" stroke="black" cx="1076" cy="-648" rx="44.39" ry="18"/>
<text text-anchor="middle" x="1076" y="-644.3" font-family="Times,serif" font-size="14.00">S32 (b)</text>
</g>
<!-- 8 -->
<g id="node10" class="node">
<title>8</title>
<ellipse fill="none" stroke="black" cx="1802" cy="-565" rx="55.79" ry="18"/>
<text text-anchor="middle" x="1802" y="-561.3" font-family="Times,serif" font-size="14.00">V2250 (b)</text>
</g>
<!-- 9 -->
<g id="node11" class="node">
<title>9</title>
<ellipse fill="none" stroke="black" cx="722" cy="-565" rx="53.09" ry="18"/>
<text text-anchor="middle" x="722" y="-561.3" font-family="Times,serif" font-size="14.00">M111 (b)</text>
</g>
<!-- 29 -->
<g id="node31" class="node">
<title>29</title>
<ellipse fill="none" stroke="black" cx="722" cy="-482" rx="50.09" ry="18"/>
<text text-anchor="middle" x="722" y="-478.3" font-family="Times,serif" font-size="14.00">A336 (b)</text>
</g>
<!-- 9&#45;&gt;29 -->
<g id="edge30" class="edge">
<title>9&#45;&gt;29</title>
<path fill="none" stroke="black" stroke-dasharray="5,2" d="M722,-546.82C722,-536.19 722,-522.31 722,-510.2"/>
<polygon fill="black" stroke="black" points="725.5,-510.15 722,-500.15 718.5,-510.15 725.5,-510.15"/>
</g>
<!-- 10 -->
<g id="node12" class="node">
<title>10</title>
<ellipse fill="none" stroke="black" cx="1330" cy="-336" rx="50.09" ry="18"/>
<text text-anchor="middle" x="1330" y="-332.3" font-family="Times,serif" font-size="14.00">V536 (d)</text>
</g>
<!-- 10&#45;&gt;0 -->
<g id="edge1" class="edge">
<title>10&#45;&gt;0</title>
<path fill="none" stroke="blue" stroke-dasharray="1,5" d="M1320.26,-318.22C1313.77,-307.03 1305.12,-292.12 1297.78,-279.48"/>
<polygon fill="blue" stroke="blue" points="1300.77,-277.65 1292.73,-270.76 1294.72,-281.17 1300.77,-277.65"/>
</g>
<!-- 38 -->
<g id="node40" class="node">
<title>38</title>
<ellipse fill="none" stroke="black" cx="1398" cy="-253" rx="47.39" ry="18"/>
<text text-anchor="middle" x="1398" y="-249.3" font-family="Times,serif" font-size="14.00">Taur (d)</text>
</g>
<!-- 10&#45;&gt;38 -->
<g id="edge38" class="edge">
<title>10&#45;&gt;38</title>
<path fill="none" stroke="black" stroke-dasharray="1,5" d="M1343.76,-318.61C1353.53,-306.97 1366.81,-291.16 1377.78,-278.09"/>
<polygon fill="black" stroke="black" points="1380.51,-280.28 1384.26,-270.37 1375.15,-275.78 1380.51,-280.28"/>
<text text-anchor="middle" x="1371.5" y="-292" font-family="Times,serif" font-size="10.00">2</text>
</g>
<!-- 11 -->
<g id="node13" class="node">
<title>11</title>
<ellipse fill="none" stroke="black" cx="837" cy="-565" rx="43.59" ry="18"/>
<text text-anchor="middle" x="837" y="-561.3" font-family="Times,serif" font-size="14.00">La2 (b)</text>
</g>
<!-- 12 -->
<g id="node14" class="node">
<title>12</title>
<ellipse fill="none" stroke="black" cx="949" cy="-565" rx="50.09" ry="18"/>
<text text-anchor="middle" x="949" y="-561.3" font-family="Times,serif" font-size="14.00">A116 (b)</text>
</g>
<!-- 13 -->
<g id="node15" class="node">
<title>13</title>
<ellipse fill="none" stroke="black" cx="1188" cy="-648" rx="49.29" ry="18"/>
<text text-anchor="middle" x="1188" y="-644.3" font-family="Times,serif" font-size="14.00">La22 (b)</text>
</g>
<!-- 13&#45;&gt;6 -->
<g id="edge7" class="edge">
<title>13&#45;&gt;6</title>
<path fill="none" stroke="black" stroke-dasharray="1,5" d="M1152.4,-635.45C1144.75,-633.33 1136.66,-631.37 1129,-630 1019.77,-610.53 990.38,-623.26 880,-612 781.89,-602 756.54,-603.15 660,-583 655.83,-582.13 651.53,-581.12 647.23,-580.03"/>
<polygon fill="black" stroke="black" points="647.86,-576.57 637.3,-577.38 646.06,-583.34 647.86,-576.57"/>
</g>
<!-- 13&#45;&gt;9 -->
<g id="edge10" class="edge">
<title>13&#45;&gt;9</title>
<path fill="none" stroke="black" stroke-dasharray="1,5" d="M1152.04,-635.59C1144.49,-633.49 1136.53,-631.49 1129,-630 1058.38,-615.98 1039.36,-621.61 968,-612 885.95,-600.95 864.93,-600.42 784,-583 779.65,-582.06 775.15,-581.01 770.65,-579.89"/>
<polygon fill="black" stroke="black" points="771.42,-576.47 760.86,-577.37 769.67,-583.25 771.42,-576.47"/>
</g>
<!-- 13&#45;&gt;11 -->
<g id="edge12" class="edge">
<title>13&#45;&gt;11</title>
<path fill="none" stroke="black" d="M1151.31,-635.9C1143.95,-633.82 1136.25,-631.75 1129,-630 1023.78,-604.55 994.83,-610.02 890,-583 886.57,-582.12 883.04,-581.14 879.51,-580.11"/>
<polygon fill="black" stroke="black" points="880.21,-576.67 869.62,-577.12 878.18,-583.37 880.21,-576.67"/>
<text text-anchor="middle" x="1040.5" y="-604" font-family="Times,serif" font-size="10.00">2</text>
</g>
<!-- 13&#45;&gt;12 -->
<g id="edge13" class="edge">
<title>13&#45;&gt;12</title>
<path fill="none" stroke="black" stroke-dasharray="5,2" d="M1152.99,-635.14C1110.83,-620.85 1039.95,-596.83 993.83,-581.19"/>
<polygon fill="black" stroke="black" points="994.7,-577.79 984.1,-577.9 992.45,-584.42 994.7,-577.79"/>
</g>
<!-- 15 -->
<g id="node17" class="node">
<title>15</title>
<ellipse fill="none" stroke="black" cx="1067" cy="-565" rx="50.09" ry="18"/>
<text text-anchor="middle" x="1067" y="-561.3" font-family="Times,serif" font-size="14.00">V571 (b)</text>
</g>
<!-- 13&#45;&gt;15 -->
<g id="edge16" class="edge">
<title>13&#45;&gt;15</title>
<path fill="none" stroke="black" stroke-dasharray="1,5" d="M1165.52,-631.95C1146.54,-619.25 1119.16,-600.92 1098.08,-586.81"/>
<polygon fill="black" stroke="black" points="1100.02,-583.89 1089.77,-581.24 1096.13,-589.71 1100.02,-583.89"/>
</g>
<!-- 17 -->
<g id="node19" class="node">
<title>17</title>
<ellipse fill="none" stroke="black" cx="1188" cy="-565" rx="53.09" ry="18"/>
<text text-anchor="middle" x="1188" y="-561.3" font-family="Times,serif" font-size="14.00">M136 (b)</text>
</g>
<!-- 13&#45;&gt;17 -->
<g id="edge18" class="edge">
<title>13&#45;&gt;17</title>
<path fill="none" stroke="black" d="M1188,-629.82C1188,-619.19 1188,-605.31 1188,-593.2"/>
<polygon fill="black" stroke="black" points="1191.5,-593.15 1188,-583.15 1184.5,-593.15 1191.5,-593.15"/>
<text text-anchor="middle" x="1191.5" y="-604" font-family="Times,serif" font-size="10.00">2</text>
</g>
<!-- 23 -->
<g id="node25" class="node">
<title>23</title>
<ellipse fill="none" stroke="black" cx="1309" cy="-565" rx="50.09" ry="18"/>
<text text-anchor="middle" x="1309" y="-561.3" font-family="Times,serif" font-size="14.00">V565 (b)</text>
</g>
<!-- 13&#45;&gt;23 -->
<g id="edge24" class="edge">
<title>13&#45;&gt;23</title>
<path fill="none" stroke="black" stroke-dasharray="5,2" d="M1210.48,-631.95C1229.46,-619.25 1256.84,-600.92 1277.92,-586.81"/>
<polygon fill="black" stroke="black" points="1279.87,-589.71 1286.23,-581.24 1275.98,-583.89 1279.87,-589.71"/>
</g>
<!-- 36 -->
<g id="node38" class="node">
<title>36</title>
<ellipse fill="none" stroke="black" cx="1421" cy="-565" rx="44.39" ry="18"/>
<text text-anchor="middle" x="1421" y="-561.3" font-family="Times,serif" font-size="14.00">P74 (b)</text>
</g>
<!-- 13&#45;&gt;36 -->
<g id="edge36" class="edge">
<title>13&#45;&gt;36</title>
<path fill="none" stroke="black" stroke-dasharray="1,5" d="M1222.38,-635.05C1263.92,-620.61 1333.81,-596.31 1378.64,-580.73"/>
<polygon fill="black" stroke="black" points="1380.06,-583.94 1388.36,-577.35 1377.77,-577.32 1380.06,-583.94"/>
</g>
<!-- 41 -->
<g id="node43" class="node">
<title>41</title>
<ellipse fill="none" stroke="black" cx="1531" cy="-565" rx="47.39" ry="18"/>
<text text-anchor="middle" x="1531" y="-561.3" font-family="Times,serif" font-size="14.00">Bodl (b)</text>
</g>
<!-- 13&#45;&gt;41 -->
<g id="edge41" class="edge">
<title>13&#45;&gt;41</title>
<path fill="none" stroke="black" stroke-dasharray="5,2" d="M1230.38,-638.48C1286.41,-627 1388.08,-605.4 1474,-583 1477.83,-582 1481.78,-580.92 1485.74,-579.81"/>
<polygon fill="black" stroke="black" points="1486.89,-583.12 1495.53,-576.99 1484.95,-576.39 1486.89,-583.12"/>
</g>
<!-- 14 -->
<g id="node16" class="node">
<title>14</title>
<ellipse fill="none" stroke="black" cx="1626" cy="-648" rx="40.09" ry="18"/>
<text text-anchor="middle" x="1626" y="-644.3" font-family="Times,serif" font-size="14.00">Pal (b)</text>
</g>
<!-- 14&#45;&gt;1 -->
<g id="edge2" class="edge">
<title>14&#45;&gt;1</title>
<path fill="none" stroke="blue" d="M1633.46,-630.22C1638.3,-619.32 1644.72,-604.89 1650.24,-592.47"/>
<polygon fill="blue" stroke="blue" points="1653.56,-593.6 1654.43,-583.04 1647.17,-590.76 1653.56,-593.6"/>
</g>
<!-- 16 -->
<g id="node18" class="node">
<title>16</title>
<ellipse fill="none" stroke="black" cx="1288" cy="-180" rx="41.69" ry="18"/>
<text text-anchor="middle" x="1288" y="-176.3" font-family="Times,serif" font-size="14.00">Sin (d)</text>
</g>
<!-- 31 -->
<g id="node33" class="node">
<title>31</title>
<ellipse fill="none" stroke="black" cx="1288" cy="-107" rx="50.09" ry="18"/>
<text text-anchor="middle" x="1288" y="-103.3" font-family="Times,serif" font-size="14.00">Marc (d)</text>
</g>
<!-- 16&#45;&gt;31 -->
<g id="edge32" class="edge">
<title>16&#45;&gt;31</title>
<path fill="none" stroke="black" stroke-dasharray="1,5" d="M1288,-161.81C1288,-153.79 1288,-144.05 1288,-135.07"/>
<polygon fill="black" stroke="black" points="1291.5,-135.03 1288,-125.03 1284.5,-135.03 1291.5,-135.03"/>
</g>
<!-- 17&#45;&gt;4 -->
<g id="edge5" class="edge">
<title>17&#45;&gt;4</title>
<path fill="none" stroke="gray" stroke-dasharray="5,2" d="M1178.47,-547.22C1172.12,-536.03 1163.65,-521.12 1156.47,-508.48"/>
<polygon fill="gray" stroke="gray" points="1159.5,-506.73 1151.52,-499.76 1153.41,-510.19 1159.5,-506.73"/>
</g>
<!-- 22 -->
<g id="node24" class="node">
<title>22</title>
<ellipse fill="none" stroke="black" cx="1256" cy="-482" rx="50.89" ry="18"/>
<text text-anchor="middle" x="1256" y="-478.3" font-family="Times,serif" font-size="14.00">Neap (b)</text>
</g>
<!-- 17&#45;&gt;22 -->
<g id="edge23" class="edge">
<title>17&#45;&gt;22</title>
<path fill="none" stroke="black" stroke-dasharray="5,2" d="M1201.76,-547.61C1211.53,-535.97 1224.81,-520.16 1235.78,-507.09"/>
<polygon fill="black" stroke="black" points="1238.51,-509.28 1242.26,-499.37 1233.15,-504.78 1238.51,-509.28"/>
<text text-anchor="middle" x="1229.5" y="-521" font-family="Times,serif" font-size="10.00">2</text>
</g>
<!-- 18 -->
<g id="node20" class="node">
<title>18</title>
<ellipse fill="none" stroke="black" cx="1573" cy="-731" rx="42.79" ry="18"/>
<text text-anchor="middle" x="1573" y="-727.3" font-family="Times,serif" font-size="14.00">Bas (a)</text>
</g>
<!-- 19 -->
<g id="node21" class="node">
<title>19</title>
<ellipse fill="none" stroke="black" cx="484" cy="-482" rx="55.79" ry="18"/>
<text text-anchor="middle" x="484" y="-478.3" font-family="Times,serif" font-size="14.00">V1920 (b)</text>
</g>
<!-- 20 -->
<g id="node22" class="node">
<title>20</title>
<ellipse fill="none" stroke="black" cx="1678" cy="-731" rx="44.39" ry="18"/>
<text text-anchor="middle" x="1678" y="-727.3" font-family="Times,serif" font-size="14.00">A25 (b)</text>
</g>
<!-- 20&#45;&gt;5 -->
<g id="edge6" class="edge">
<title>20&#45;&gt;5</title>
<path fill="none" stroke="black" stroke-dasharray="1,5" d="M1646.39,-718.4C1639.43,-716.26 1632.03,-714.29 1625,-713 1621.45,-712.35 725.28,-664.93 483.5,-652.15"/>
<polygon fill="black" stroke="black" points="483.33,-648.63 473.16,-651.6 482.96,-655.62 483.33,-648.63"/>
</g>
<!-- 20&#45;&gt;7 -->
<g id="edge8" class="edge">
<title>20&#45;&gt;7</title>
<path fill="none" stroke="black" stroke-dasharray="5,2" d="M1646.06,-718.53C1639.19,-716.41 1631.91,-714.42 1625,-713 1516.76,-690.77 1238.3,-687.93 1130,-666 1126.1,-665.21 1122.09,-664.25 1118.09,-663.18"/>
<polygon fill="black" stroke="black" points="1118.84,-659.76 1108.26,-660.37 1116.92,-666.49 1118.84,-659.76"/>
</g>
<!-- 20&#45;&gt;13 -->
<g id="edge14" class="edge">
<title>20&#45;&gt;13</title>
<path fill="none" stroke="black" stroke-dasharray="1,5" d="M1645.44,-718.63C1638.74,-716.55 1631.68,-714.55 1625,-713 1490.73,-681.86 1329.57,-662.9 1245.47,-654.36"/>
<polygon fill="black" stroke="black" points="1245.66,-650.86 1235.36,-653.35 1244.96,-657.83 1245.66,-650.86"/>
</g>
<!-- 20&#45;&gt;14 -->
<g id="edge15" class="edge">
<title>20&#45;&gt;14</title>
<path fill="none" stroke="black" stroke-dasharray="5,2" d="M1667.23,-713.22C1660,-701.96 1650.34,-686.92 1642.19,-674.22"/>
<polygon fill="black" stroke="black" points="1644.93,-672.01 1636.58,-665.48 1639.04,-675.79 1644.93,-672.01"/>
</g>
<!-- 27 -->
<g id="node29" class="node">
<title>27</title>
<ellipse fill="none" stroke="black" cx="1730" cy="-648" rx="45.49" ry="18"/>
<text text-anchor="middle" x="1730" y="-644.3" font-family="Times,serif" font-size="14.00">Nan (b)</text>
</g>
<!-- 20&#45;&gt;27 -->
<g id="edge28" class="edge">
<title>20&#45;&gt;27</title>
<path fill="none" stroke="black" stroke-dasharray="5,2" d="M1688.77,-713.22C1695.96,-702.03 1705.53,-687.12 1713.64,-674.48"/>
<polygon fill="black" stroke="black" points="1716.78,-676.07 1719.24,-665.76 1710.89,-672.29 1716.78,-676.07"/>
<text text-anchor="middle" x="1710.5" y="-687" font-family="Times,serif" font-size="10.00">2</text>
</g>
<!-- 30 -->
<g id="node32" class="node">
<title>30</title>
<ellipse fill="none" stroke="black" cx="1838" cy="-648" rx="44.39" ry="18"/>
<text text-anchor="middle" x="1838" y="-644.3" font-family="Times,serif" font-size="14.00">P01 (b)</text>
</g>
<!-- 20&#45;&gt;30 -->
<g id="edge31" class="edge">
<title>20&#45;&gt;30</title>
<path fill="none" stroke="black" stroke-dasharray="5,2" d="M1704.78,-716.44C1731.51,-702.91 1772.75,-682.03 1802.26,-667.09"/>
<polygon fill="black" stroke="black" points="1804.06,-670.11 1811.4,-662.47 1800.9,-663.86 1804.06,-670.11"/>
</g>
<!-- 39 -->
<g id="node41" class="node">
<title>39</title>
<ellipse fill="none" stroke="black" cx="1950" cy="-648" rx="50.09" ry="18"/>
<text text-anchor="middle" x="1950" y="-644.3" font-family="Times,serif" font-size="14.00">V566 (b)</text>
</g>
<!-- 20&#45;&gt;39 -->
<g id="edge39" class="edge">
<title>20&#45;&gt;39</title>
<path fill="none" stroke="black" stroke-dasharray="5,2" d="M1712.73,-719.66C1760.99,-705.29 1848.53,-679.22 1902.72,-663.08"/>
<polygon fill="black" stroke="black" points="1903.85,-666.4 1912.43,-660.19 1901.85,-659.69 1903.85,-666.4"/>
</g>
<!-- 43 -->
<g id="node45" class="node">
<title>43</title>
<ellipse fill="none" stroke="black" cx="2068" cy="-648" rx="50.09" ry="18"/>
<text text-anchor="middle" x="2068" y="-644.3" font-family="Times,serif" font-size="14.00">S249 (b)</text>
</g>
<!-- 20&#45;&gt;43 -->
<g id="edge43" class="edge">
<title>20&#45;&gt;43</title>
<path fill="none" stroke="black" stroke-dasharray="5,2" d="M1718.25,-723.42C1780.8,-712.91 1905,-690.99 2009,-666 2013.02,-665.03 2017.18,-663.97 2021.34,-662.86"/>
<polygon fill="black" stroke="black" points="2022.28,-666.23 2031,-660.21 2020.43,-659.48 2022.28,-666.23"/>
<text text-anchor="middle" x="1930.5" y="-687" font-family="Times,serif" font-size="10.00">2</text>
</g>
<!-- 28 -->
<g id="node30" class="node">
<title>28</title>
<ellipse fill="none" stroke="black" cx="363" cy="-482" rx="44.69" ry="18"/>
<text text-anchor="middle" x="363" y="-478.3" font-family="Times,serif" font-size="14.00">B39 (b)</text>
</g>
<!-- 21&#45;&gt;28 -->
<g id="edge29" class="edge">
<title>21&#45;&gt;28</title>
<path fill="none" stroke="black" stroke-dasharray="5,2" d="M363,-546.82C363,-536.19 363,-522.31 363,-510.2"/>
<polygon fill="black" stroke="black" points="366.5,-510.15 363,-500.15 359.5,-510.15 366.5,-510.15"/>
</g>
<!-- 22&#45;&gt;2 -->
<g id="edge3" class="edge">
<title>22&#45;&gt;2</title>
<path fill="none" stroke="gray" stroke-dasharray="5,2" d="M1234.3,-465.59C1219.96,-455.41 1200.97,-441.93 1185.29,-430.8"/>
<polygon fill="gray" stroke="gray" points="1187.15,-427.82 1176.97,-424.89 1183.1,-433.53 1187.15,-427.82"/>
</g>
<!-- 33 -->
<g id="node35" class="node">
<title>33</title>
<ellipse fill="none" stroke="gray" stroke-dasharray="5,2" cx="1256" cy="-409" rx="39.79" ry="18"/>
<text text-anchor="middle" x="1256" y="-405.3" font-family="Times,serif" font-size="14.00">Taur&#45;c</text>
</g>
<!-- 22&#45;&gt;33 -->
<g id="edge33" class="edge">
<title>22&#45;&gt;33</title>
<path fill="none" stroke="gray" stroke-width="2" d="M1256,-463.81C1256,-455.79 1256,-446.05 1256,-437.07"/>
<polygon fill="gray" stroke="gray" stroke-width="2" points="1259.5,-437.03 1256,-427.03 1252.5,-437.03 1259.5,-437.03"/>
</g>
<!-- 34 -->
<g id="node36" class="node">
<title>34</title>
<ellipse fill="none" stroke="black" cx="1370" cy="-409" rx="55.79" ry="18"/>
<text text-anchor="middle" x="1370" y="-405.3" font-family="Times,serif" font-size="14.00">V1629 (b)</text>
</g>
<!-- 22&#45;&gt;34 -->
<g id="edge34" class="edge">
<title>22&#45;&gt;34</title>
<path fill="none" stroke="black" stroke-dasharray="1,5" d="M1279.9,-466.12C1296.39,-455.84 1318.55,-442.04 1336.76,-430.7"/>
<polygon fill="black" stroke="black" points="1338.71,-433.61 1345.35,-425.35 1335.01,-427.67 1338.71,-433.61"/>
</g>
<!-- 24 -->
<g id="node26" class="node">
<title>24</title>
<ellipse fill="none" stroke="black" cx="1932" cy="-482" rx="42.49" ry="18"/>
<text text-anchor="middle" x="1932" y="-478.3" font-family="Times,serif" font-size="14.00">Est (b)</text>
</g>
<!-- 25&#45;&gt;19 -->
<g id="edge20" class="edge">
<title>25&#45;&gt;19</title>
<path fill="none" stroke="black" stroke-dasharray="5,2" d="M484,-546.82C484,-536.19 484,-522.31 484,-510.2"/>
<polygon fill="black" stroke="black" points="487.5,-510.15 484,-500.15 480.5,-510.15 487.5,-510.15"/>
</g>
<!-- 26 -->
<g id="node28" class="node">
<title>26</title>
<ellipse fill="none" stroke="gray" stroke-dasharray="5,2" cx="1434" cy="-336" rx="36" ry="18"/>
<text text-anchor="middle" x="1434" y="-332.3" font-family="Times,serif" font-size="14.00">La2&#45;c</text>
</g>
<!-- 27&#45;&gt;8 -->
<g id="edge9" class="edge">
<title>27&#45;&gt;8</title>
<path fill="none" stroke="black" stroke-dasharray="5,2" d="M1744.57,-630.61C1754.85,-619.05 1768.79,-603.37 1780.36,-590.35"/>
<polygon fill="black" stroke="black" points="1783.18,-592.44 1787.2,-582.65 1777.94,-587.79 1783.18,-592.44"/>
</g>
<!-- 35 -->
<g id="node37" class="node">
<title>35</title>
<ellipse fill="none" stroke="black" cx="1932" cy="-565" rx="55.79" ry="18"/>
<text text-anchor="middle" x="1932" y="-561.3" font-family="Times,serif" font-size="14.00">V1897 (b)</text>
</g>
<!-- 27&#45;&gt;35 -->
<g id="edge35" class="edge">
<title>27&#45;&gt;35</title>
<path fill="none" stroke="black" stroke-dasharray="1,5" d="M1760.68,-634.7C1794.87,-620.99 1850.39,-598.72 1888.92,-583.27"/>
<polygon fill="black" stroke="black" points="1890.35,-586.47 1898.33,-579.5 1887.75,-579.97 1890.35,-586.47"/>
</g>
<!-- 42 -->
<g id="node44" class="node">
<title>42</title>
<ellipse fill="none" stroke="black" cx="1288" cy="-34" rx="46.59" ry="18"/>
<text text-anchor="middle" x="1288" y="-30.3" font-family="Times,serif" font-size="14.00">Mon (d)</text>
</g>
<!-- 31&#45;&gt;42 -->
<g id="edge42" class="edge">
<title>31&#45;&gt;42</title>
<path fill="none" stroke="black" stroke-dasharray="1,5" d="M1288,-88.81C1288,-80.79 1288,-71.05 1288,-62.07"/>
<polygon fill="black" stroke="black" points="1291.5,-62.03 1288,-52.03 1284.5,-62.03 1291.5,-62.03"/>
</g>
<!-- 32 -->
<g id="node34" class="node">
<title>32</title>
<ellipse fill="none" stroke="black" cx="1625" cy="-815" rx="53.89" ry="18"/>
<text text-anchor="middle" x="1625" y="-811.3" font-family="Times,serif" font-size="14.00">aBase (a)</text>
</g>
<!-- 32&#45;&gt;18 -->
<g id="edge19" class="edge">
<title>32&#45;&gt;18</title>
<path fill="none" stroke="black" stroke-width="2" d="M1614.23,-797.01C1606.93,-785.5 1597.15,-770.09 1588.96,-757.16"/>
<polygon fill="black" stroke="black" stroke-width="2" points="1591.89,-755.26 1583.58,-748.69 1585.98,-759.01 1591.89,-755.26"/>
<text text-anchor="middle" x="1605.5" y="-770" font-family="Times,serif" font-size="10.00">3</text>
</g>
<!-- 32&#45;&gt;20 -->
<g id="edge21" class="edge">
<title>32&#45;&gt;20</title>
<path fill="none" stroke="blue" stroke-dasharray="5,2" d="M1635.98,-797.01C1643.42,-785.5 1653.38,-770.09 1661.74,-757.16"/>
<polygon fill="blue" stroke="blue" points="1664.72,-758.99 1667.21,-748.69 1658.85,-755.19 1664.72,-758.99"/>
</g>
<!-- 34&#45;&gt;10 -->
<g id="edge11" class="edge">
<title>34&#45;&gt;10</title>
<path fill="none" stroke="blue" stroke-dasharray="5,2" d="M1360.52,-391.17C1355.69,-382.6 1349.71,-371.99 1344.33,-362.44"/>
<polygon fill="blue" stroke="blue" points="1347.37,-360.7 1339.41,-353.71 1341.27,-364.14 1347.37,-360.7"/>
</g>
<!-- 34&#45;&gt;26 -->
<g id="edge27" class="edge">
<title>34&#45;&gt;26</title>
<path fill="none" stroke="gray" stroke-width="2" d="M1384.84,-391.53C1393.2,-382.26 1403.77,-370.53 1412.97,-360.33"/>
<polygon fill="gray" stroke="gray" stroke-width="2" points="1415.58,-362.66 1419.68,-352.89 1410.38,-357.97 1415.58,-362.66"/>
</g>
<!-- 35&#45;&gt;24 -->
<g id="edge25" class="edge">
<title>35&#45;&gt;24</title>
<path fill="none" stroke="black" stroke-dasharray="1,5" d="M1932,-546.82C1932,-536.19 1932,-522.31 1932,-510.2"/>
<polygon fill="black" stroke="black" points="1935.5,-510.15 1932,-500.15 1928.5,-510.15 1935.5,-510.15"/>
</g>
<!-- 37 -->
<g id="node39" class="node">
<title>37</title>
<ellipse fill="none" stroke="black" cx="1398" cy="-180" rx="50.09" ry="18"/>
<text text-anchor="middle" x="1398" y="-176.3" font-family="Times,serif" font-size="14.00">V569 (d)</text>
</g>
<!-- 38&#45;&gt;16 -->
<g id="edge17" class="edge">
<title>38&#45;&gt;16</title>
<path fill="none" stroke="black" stroke-dasharray="1,5" d="M1374.94,-237.12C1358.74,-226.66 1336.88,-212.55 1319.13,-201.09"/>
<polygon fill="black" stroke="black" points="1320.58,-197.86 1310.28,-195.38 1316.78,-203.74 1320.58,-197.86"/>
</g>
<!-- 38&#45;&gt;37 -->
<g id="edge37" class="edge">
<title>38&#45;&gt;37</title>
<path fill="none" stroke="black" stroke-dasharray="5,2" d="M1398,-234.81C1398,-226.79 1398,-217.05 1398,-208.07"/>
<polygon fill="black" stroke="black" points="1401.5,-208.03 1398,-198.03 1394.5,-208.03 1401.5,-208.03"/>
</g>
<!-- 44 -->
<g id="node46" class="node">
<title>44</title>
<ellipse fill="none" stroke="black" cx="1519" cy="-180" rx="53.09" ry="18"/>
<text text-anchor="middle" x="1519" y="-176.3" font-family="Times,serif" font-size="14.00">M118 (d)</text>
</g>
<!-- 38&#45;&gt;44 -->
<g id="edge44" class="edge">
<title>38&#45;&gt;44</title>
<path fill="none" stroke="black" stroke-dasharray="5,2" d="M1422.78,-237.46C1440.65,-226.98 1464.99,-212.69 1484.72,-201.11"/>
<polygon fill="black" stroke="black" points="1486.57,-204.09 1493.42,-196.01 1483.02,-198.05 1486.57,-204.09"/>
</g>
<!-- 45 -->
<g id="node47" class="node">
<title>45</title>
<ellipse fill="none" stroke="black" cx="2062" cy="-565" rx="55.79" ry="18"/>
<text text-anchor="middle" x="2062" y="-561.3" font-family="Times,serif" font-size="14.00">V1639 (b)</text>
</g>
<!-- 39&#45;&gt;45 -->
<g id="edge45" class="edge">
<title>39&#45;&gt;45</title>
<path fill="none" stroke="black" stroke-dasharray="1,5" d="M1971.33,-631.57C1988.58,-619.1 2013.06,-601.39 2032.24,-587.52"/>
<polygon fill="black" stroke="black" points="2034.32,-590.34 2040.37,-581.64 2030.21,-584.67 2034.32,-590.34"/>
</g>
<!-- 40 -->
<g id="node42" class="node">
<title>40</title>
<ellipse fill="none" stroke="black" cx="1519" cy="-107" rx="44.39" ry="18"/>
<text text-anchor="middle" x="1519" y="-103.3" font-family="Times,serif" font-size="14.00">P18 (d)</text>
</g>
<!-- 44&#45;&gt;40 -->
<g id="edge40" class="edge">
<title>44&#45;&gt;40</title>
<path fill="none" stroke="black" stroke-dasharray="5,2" d="M1519,-161.81C1519,-153.79 1519,-144.05 1519,-135.07"/>
<polygon fill="black" stroke="black" points="1522.5,-135.03 1519,-125.03 1515.5,-135.03 1522.5,-135.03"/>
</g>
</g>
</svg>
