<?xml version="1.0" encoding="UTF-8" standalone="no"?>
<!DOCTYPE svg PUBLIC "-//W3C//DTD SVG 1.1//EN"
 "http://www.w3.org/Graphics/SVG/1.1/DTD/svg11.dtd">
<!-- Generated by graphviz version 2.43.0 (0)
 -->
<!-- Title: textual_flow Pages: 1 -->
<svg width="1728pt" height="755pt"
 viewBox="0.00 0.00 1728.00 755.00" xmlns="http://www.w3.org/2000/svg" xmlns:xlink="http://www.w3.org/1999/xlink">
<g id="graph0" class="graph" transform="scale(1 1) rotate(0) translate(4 751)">
<title>textual_flow</title>
<polygon fill="white" stroke="transparent" points="-4,4 -4,-751 1724,-751 1724,4 -4,4"/>
<g id="clust1" class="cluster">
<title>cluster_legend</title>
<polygon fill="none" stroke="black" points="8,-685 8,-739 186,-739 186,-685 8,-685"/>
</g>
<g id="clust2" class="cluster">
<title>cluster_plot</title>
</g>
<!-- label -->
<g id="node1" class="node">
<title>label</title>
<text text-anchor="middle" x="97" y="-715.8" font-family="Times,serif" font-size="14.00">adstag1.1.12U18&#45;20</text>
<text text-anchor="middle" x="97" y="-700.8" font-family="Times,serif" font-size="14.00">Con = 5</text>
</g>
<!-- 0 -->
<g id="node2" class="node">
<title>0</title>
<ellipse fill="none" stroke="black" cx="712" cy="-628" rx="44.39" ry="18"/>
<text text-anchor="middle" x="712" y="-624.3" font-family="Times,serif" font-size="14.00">A25 (a)</text>
</g>
<!-- 15 -->
<g id="node17" class="node">
<title>15</title>
<ellipse fill="none" stroke="black" cx="314" cy="-545" rx="40.09" ry="18"/>
<text text-anchor="middle" x="314" y="-541.3" font-family="Times,serif" font-size="14.00">Pal (a)</text>
</g>
<!-- 0&#45;&gt;15 -->
<g id="edge15" class="edge">
<title>0&#45;&gt;15</title>
<path fill="none" stroke="black" stroke-dasharray="5,2" d="M672.5,-619.89C610.76,-608.65 487.72,-585.7 384,-563 375.57,-561.16 366.6,-559.07 357.99,-557.01"/>
<polygon fill="black" stroke="black" points="358.65,-553.57 348.11,-554.61 357,-560.37 358.65,-553.57"/>
</g>
<!-- 19 -->
<g id="node21" class="node">
<title>19</title>
<ellipse fill="none" stroke="black" cx="443" cy="-545" rx="50.09" ry="18"/>
<text text-anchor="middle" x="443" y="-541.3" font-family="Times,serif" font-size="14.00">V566 (a)</text>
</g>
<!-- 0&#45;&gt;19 -->
<g id="edge19" class="edge">
<title>0&#45;&gt;19</title>
<path fill="none" stroke="black" stroke-dasharray="5,2" d="M677.66,-616.66C629.92,-602.29 543.36,-576.22 489.76,-560.08"/>
<polygon fill="black" stroke="black" points="490.74,-556.72 480.16,-557.19 488.72,-563.42 490.74,-556.72"/>
</g>
<!-- 22 -->
<g id="node24" class="node">
<title>22</title>
<ellipse fill="none" stroke="black" cx="622" cy="-545" rx="44.39" ry="18"/>
<text text-anchor="middle" x="622" y="-541.3" font-family="Times,serif" font-size="14.00">S32 (a)</text>
</g>
<!-- 0&#45;&gt;22 -->
<g id="edge22" class="edge">
<title>0&#45;&gt;22</title>
<path fill="none" stroke="black" stroke-dasharray="5,2" d="M694.65,-611.38C681.08,-599.17 662.03,-582.02 646.84,-568.36"/>
<polygon fill="black" stroke="black" points="649.07,-565.66 639.3,-561.57 644.39,-570.86 649.07,-565.66"/>
</g>
<!-- 27 -->
<g id="node29" class="node">
<title>27</title>
<ellipse fill="none" stroke="black" cx="733" cy="-545" rx="48.99" ry="18"/>
<text text-anchor="middle" x="733" y="-541.3" font-family="Times,serif" font-size="14.00">La22 (a)</text>
</g>
<!-- 0&#45;&gt;27 -->
<g id="edge27" class="edge">
<title>0&#45;&gt;27</title>
<path fill="none" stroke="black" stroke-dasharray="1,5" d="M716.45,-609.82C719.24,-599.08 722.88,-585.03 726.04,-572.84"/>
<polygon fill="black" stroke="black" points="729.43,-573.71 728.55,-563.15 722.66,-571.95 729.43,-573.71"/>
</g>
<!-- 34 -->
<g id="node36" class="node">
<title>34</title>
<ellipse fill="none" stroke="black" cx="850" cy="-545" rx="50.09" ry="18"/>
<text text-anchor="middle" x="850" y="-541.3" font-family="Times,serif" font-size="14.00">Patm (a)</text>
</g>
<!-- 0&#45;&gt;34 -->
<g id="edge34" class="edge">
<title>0&#45;&gt;34</title>
<path fill="none" stroke="black" stroke-dasharray="1,5" d="M736.04,-612.89C758.18,-599.89 791.27,-580.47 816.1,-565.9"/>
<polygon fill="black" stroke="black" points="817.99,-568.85 824.84,-560.77 814.44,-562.81 817.99,-568.85"/>
</g>
<!-- 39 -->
<g id="node41" class="node">
<title>39</title>
<ellipse fill="none" stroke="black" cx="962" cy="-545" rx="44.39" ry="18"/>
<text text-anchor="middle" x="962" y="-541.3" font-family="Times,serif" font-size="14.00">P01 (a)</text>
</g>
<!-- 0&#45;&gt;39 -->
<g id="edge39" class="edge">
<title>0&#45;&gt;39</title>
<path fill="none" stroke="black" stroke-dasharray="5,2" d="M745.46,-616.16C790.14,-601.68 869.38,-576.01 918.62,-560.06"/>
<polygon fill="black" stroke="black" points="919.91,-563.32 928.34,-556.91 917.75,-556.66 919.91,-563.32"/>
</g>
<!-- 1 -->
<g id="node3" class="node">
<title>1</title>
<ellipse fill="none" stroke="black" cx="1295" cy="-180" rx="41.69" ry="18"/>
<text text-anchor="middle" x="1295" y="-176.3" font-family="Times,serif" font-size="14.00">Sin (b)</text>
</g>
<!-- 6 -->
<g id="node8" class="node">
<title>6</title>
<ellipse fill="none" stroke="black" cx="1295" cy="-107" rx="50.09" ry="18"/>
<text text-anchor="middle" x="1295" y="-103.3" font-family="Times,serif" font-size="14.00">Marc (b)</text>
</g>
<!-- 1&#45;&gt;6 -->
<g id="edge7" class="edge">
<title>1&#45;&gt;6</title>
<path fill="none" stroke="black" stroke-dasharray="1,5" d="M1295,-161.81C1295,-153.79 1295,-144.05 1295,-135.07"/>
<polygon fill="black" stroke="black" points="1298.5,-135.03 1295,-125.03 1291.5,-135.03 1298.5,-135.03"/>
</g>
<!-- 2 -->
<g id="node4" class="node">
<title>2</title>
<ellipse fill="none" stroke="black" cx="827" cy="-628" rx="52.79" ry="18"/>
<text text-anchor="middle" x="827" y="-624.3" font-family="Times,serif" font-size="14.00">LaSM (a)</text>
</g>
<!-- 30 -->
<g id="node32" class="node">
<title>30</title>
<ellipse fill="none" stroke="black" cx="1068" cy="-545" rx="44.39" ry="18"/>
<text text-anchor="middle" x="1068" y="-541.3" font-family="Times,serif" font-size="14.00">B39 (a)</text>
</g>
<!-- 2&#45;&gt;30 -->
<g id="edge30" class="edge">
<title>2&#45;&gt;30</title>
<path fill="none" stroke="black" stroke-dasharray="5,2" d="M863.08,-614.87C906.39,-600.32 978.93,-575.94 1025.07,-560.43"/>
<polygon fill="black" stroke="black" points="1026.42,-563.67 1034.78,-557.17 1024.19,-557.03 1026.42,-563.67"/>
</g>
<!-- 3 -->
<g id="node5" class="node">
<title>3</title>
<ellipse fill="none" stroke="black" cx="1408" cy="-180" rx="53.09" ry="18"/>
<text text-anchor="middle" x="1408" y="-176.3" font-family="Times,serif" font-size="14.00">M118 (b)</text>
</g>
<!-- 8 -->
<g id="node10" class="node">
<title>8</title>
<ellipse fill="none" stroke="black" cx="1408" cy="-107" rx="44.39" ry="18"/>
<text text-anchor="middle" x="1408" y="-103.3" font-family="Times,serif" font-size="14.00">P18 (b)</text>
</g>
<!-- 3&#45;&gt;8 -->
<g id="edge9" class="edge">
<title>3&#45;&gt;8</title>
<path fill="none" stroke="black" stroke-dasharray="5,2" d="M1408,-161.81C1408,-153.79 1408,-144.05 1408,-135.07"/>
<polygon fill="black" stroke="black" points="1411.5,-135.03 1408,-125.03 1404.5,-135.03 1411.5,-135.03"/>
</g>
<!-- 4 -->
<g id="node6" class="node">
<title>4</title>
<ellipse fill="none" stroke="black" cx="1295" cy="-34" rx="46.59" ry="18"/>
<text text-anchor="middle" x="1295" y="-30.3" font-family="Times,serif" font-size="14.00">Mon (b)</text>
</g>
<!-- 5 -->
<g id="node7" class="node">
<title>5</title>
<ellipse fill="none" stroke="gray" stroke-dasharray="5,2" cx="252" cy="-472" rx="50.09" ry="18"/>
<text text-anchor="middle" x="252" y="-468.3" font-family="Times,serif" font-size="14.00">Savile&#45;Η</text>
</g>
<!-- 6&#45;&gt;4 -->
<g id="edge5" class="edge">
<title>6&#45;&gt;4</title>
<path fill="none" stroke="black" stroke-dasharray="1,5" d="M1295,-88.81C1295,-80.79 1295,-71.05 1295,-62.07"/>
<polygon fill="black" stroke="black" points="1298.5,-62.03 1295,-52.03 1291.5,-62.03 1298.5,-62.03"/>
</g>
<!-- 7 -->
<g id="node9" class="node">
<title>7</title>
<ellipse fill="none" stroke="black" cx="733" cy="-399" rx="50.09" ry="18"/>
<text text-anchor="middle" x="733" y="-395.3" font-family="Times,serif" font-size="14.00">A336 (b)</text>
</g>
<!-- 9 -->
<g id="node11" class="node">
<title>9</title>
<ellipse fill="none" stroke="black" cx="954" cy="-628" rx="55.79" ry="18"/>
<text text-anchor="middle" x="954" y="-624.3" font-family="Times,serif" font-size="14.00">V2250 (a)</text>
</g>
<!-- 10 -->
<g id="node12" class="node">
<title>10</title>
<ellipse fill="none" stroke="black" cx="1532" cy="-545" rx="43.59" ry="18"/>
<text text-anchor="middle" x="1532" y="-541.3" font-family="Times,serif" font-size="14.00">Bas (b)</text>
</g>
<!-- 11 -->
<g id="node13" class="node">
<title>11</title>
<ellipse fill="none" stroke="black" cx="1179" cy="-712" rx="53.89" ry="18"/>
<text text-anchor="middle" x="1179" y="-708.3" font-family="Times,serif" font-size="14.00">aBase (a)</text>
</g>
<!-- 11&#45;&gt;0 -->
<g id="edge1" class="edge">
<title>11&#45;&gt;0</title>
<path fill="none" stroke="black" stroke-dasharray="5,2" d="M1128.49,-705.62C1050.01,-696.7 894.37,-676.71 765,-646 761.56,-645.18 758.02,-644.25 754.47,-643.26"/>
<polygon fill="black" stroke="black" points="755.16,-639.81 744.57,-640.32 753.17,-646.52 755.16,-639.81"/>
</g>
<!-- 11&#45;&gt;2 -->
<g id="edge3" class="edge">
<title>11&#45;&gt;2</title>
<path fill="none" stroke="black" d="M1134.63,-701.73C1077.6,-689.67 975.62,-667.57 889,-646 884.86,-644.97 880.57,-643.87 876.27,-642.74"/>
<polygon fill="black" stroke="black" points="876.85,-639.27 866.28,-640.07 875.04,-646.03 876.85,-639.27"/>
</g>
<!-- 11&#45;&gt;9 -->
<g id="edge10" class="edge">
<title>11&#45;&gt;9</title>
<path fill="none" stroke="black" stroke-width="2" d="M1143.84,-698.19C1104.86,-683.98 1041.85,-661.02 999.22,-645.48"/>
<polygon fill="black" stroke="black" stroke-width="2" points="1000.25,-642.13 989.65,-641.99 997.85,-648.71 1000.25,-642.13"/>
<text text-anchor="middle" x="1082.5" y="-667" font-family="Times,serif" font-size="10.00">3</text>
</g>
<!-- 16 -->
<g id="node18" class="node">
<title>16</title>
<ellipse fill="none" stroke="black" cx="1069" cy="-628" rx="41.69" ry="18"/>
<text text-anchor="middle" x="1069" y="-624.3" font-family="Times,serif" font-size="14.00">Est (a)</text>
</g>
<!-- 11&#45;&gt;16 -->
<g id="edge16" class="edge">
<title>11&#45;&gt;16</title>
<path fill="none" stroke="black" d="M1158.05,-695.38C1140.86,-682.57 1116.36,-664.3 1097.4,-650.17"/>
<polygon fill="black" stroke="black" points="1099.24,-647.18 1089.13,-644.01 1095.05,-652.79 1099.24,-647.18"/>
<text text-anchor="middle" x="1133.5" y="-667" font-family="Times,serif" font-size="10.00">3</text>
</g>
<!-- 31 -->
<g id="node33" class="node">
<title>31</title>
<ellipse fill="none" stroke="black" cx="1179" cy="-628" rx="50.09" ry="18"/>
<text text-anchor="middle" x="1179" y="-624.3" font-family="Times,serif" font-size="14.00">S249 (a)</text>
</g>
<!-- 11&#45;&gt;31 -->
<g id="edge31" class="edge">
<title>11&#45;&gt;31</title>
<path fill="none" stroke="black" d="M1179,-693.61C1179,-682.77 1179,-668.6 1179,-656.29"/>
<polygon fill="black" stroke="black" points="1182.5,-656.08 1179,-646.08 1175.5,-656.08 1182.5,-656.08"/>
</g>
<!-- 33 -->
<g id="node35" class="node">
<title>33</title>
<ellipse fill="none" stroke="black" cx="1297" cy="-628" rx="50.09" ry="18"/>
<text text-anchor="middle" x="1297" y="-624.3" font-family="Times,serif" font-size="14.00">V560 (b)</text>
</g>
<!-- 11&#45;&gt;33 -->
<g id="edge33" class="edge">
<title>11&#45;&gt;33</title>
<path fill="none" stroke="blue" stroke-width="2" d="M1201.19,-695.58C1219.65,-682.75 1246.12,-664.36 1266.56,-650.16"/>
<polygon fill="blue" stroke="blue" stroke-width="2" points="1268.69,-652.94 1274.9,-644.35 1264.7,-647.19 1268.69,-652.94"/>
</g>
<!-- 38 -->
<g id="node40" class="node">
<title>38</title>
<ellipse fill="none" stroke="black" cx="1418" cy="-628" rx="53.09" ry="18"/>
<text text-anchor="middle" x="1418" y="-624.3" font-family="Times,serif" font-size="14.00">M136 (b)</text>
</g>
<!-- 11&#45;&gt;38 -->
<g id="edge38" class="edge">
<title>11&#45;&gt;38</title>
<path fill="none" stroke="blue" stroke-width="2" d="M1215.3,-698.55C1257.27,-684.15 1326.43,-660.42 1372.1,-644.75"/>
<polygon fill="blue" stroke="blue" stroke-width="2" points="1373.43,-647.99 1381.75,-641.44 1371.16,-641.37 1373.43,-647.99"/>
</g>
<!-- 42 -->
<g id="node44" class="node">
<title>42</title>
<ellipse fill="none" stroke="black" cx="1535" cy="-628" rx="45.49" ry="18"/>
<text text-anchor="middle" x="1535" y="-624.3" font-family="Times,serif" font-size="14.00">Nan (b)</text>
</g>
<!-- 11&#45;&gt;42 -->
<g id="edge42" class="edge">
<title>11&#45;&gt;42</title>
<path fill="none" stroke="blue" d="M1224.68,-702.42C1283.91,-691.01 1390.27,-669.51 1480,-646 1483.6,-645.06 1487.31,-644.03 1491.02,-642.96"/>
<polygon fill="blue" stroke="blue" points="1492.21,-646.26 1500.81,-640.07 1490.22,-639.55 1492.21,-646.26"/>
</g>
<!-- 44 -->
<g id="node46" class="node">
<title>44</title>
<ellipse fill="none" stroke="black" cx="1641" cy="-628" rx="42.79" ry="18"/>
<text text-anchor="middle" x="1641" y="-624.3" font-family="Times,serif" font-size="14.00">La2 (a)</text>
</g>
<!-- 11&#45;&gt;44 -->
<g id="edge44" class="edge">
<title>11&#45;&gt;44</title>
<path fill="none" stroke="black" stroke-width="2" d="M1229.68,-705.59C1307.63,-696.68 1461.31,-676.79 1589,-646 1592.43,-645.17 1595.96,-644.23 1599.48,-643.22"/>
<polygon fill="black" stroke="black" stroke-width="2" points="1600.77,-646.48 1609.33,-640.24 1598.74,-639.78 1600.77,-646.48"/>
</g>
<!-- 12 -->
<g id="node14" class="node">
<title>12</title>
<ellipse fill="none" stroke="black" cx="497" cy="-472" rx="46.59" ry="18"/>
<text text-anchor="middle" x="497" y="-468.3" font-family="Times,serif" font-size="14.00">Bodl (a)</text>
</g>
<!-- 13 -->
<g id="node15" class="node">
<title>13</title>
<ellipse fill="none" stroke="black" cx="612" cy="-472" rx="50.09" ry="18"/>
<text text-anchor="middle" x="612" y="-468.3" font-family="Times,serif" font-size="14.00">V571 (a)</text>
</g>
<!-- 14 -->
<g id="node16" class="node">
<title>14</title>
<ellipse fill="none" stroke="black" cx="1408" cy="-253" rx="47.39" ry="18"/>
<text text-anchor="middle" x="1408" y="-249.3" font-family="Times,serif" font-size="14.00">Taur (b)</text>
</g>
<!-- 14&#45;&gt;1 -->
<g id="edge2" class="edge">
<title>14&#45;&gt;1</title>
<path fill="none" stroke="black" stroke-dasharray="1,5" d="M1384.59,-237.29C1367.7,-226.68 1344.72,-212.24 1326.26,-200.64"/>
<polygon fill="black" stroke="black" points="1327.94,-197.56 1317.61,-195.21 1324.22,-203.49 1327.94,-197.56"/>
</g>
<!-- 14&#45;&gt;3 -->
<g id="edge4" class="edge">
<title>14&#45;&gt;3</title>
<path fill="none" stroke="black" stroke-dasharray="5,2" d="M1408,-234.81C1408,-226.79 1408,-217.05 1408,-208.07"/>
<polygon fill="black" stroke="black" points="1411.5,-208.03 1408,-198.03 1404.5,-208.03 1411.5,-208.03"/>
</g>
<!-- 40 -->
<g id="node42" class="node">
<title>40</title>
<ellipse fill="none" stroke="black" cx="1529" cy="-180" rx="50.09" ry="18"/>
<text text-anchor="middle" x="1529" y="-176.3" font-family="Times,serif" font-size="14.00">V569 (b)</text>
</g>
<!-- 14&#45;&gt;40 -->
<g id="edge40" class="edge">
<title>14&#45;&gt;40</title>
<path fill="none" stroke="black" stroke-dasharray="5,2" d="M1432.78,-237.46C1450.77,-226.91 1475.32,-212.5 1495.12,-200.88"/>
<polygon fill="black" stroke="black" points="1496.99,-203.84 1503.84,-195.76 1493.44,-197.81 1496.99,-203.84"/>
</g>
<!-- 15&#45;&gt;5 -->
<g id="edge6" class="edge">
<title>15&#45;&gt;5</title>
<path fill="none" stroke="gray" d="M299.93,-527.89C292.04,-518.85 282.03,-507.39 273.21,-497.28"/>
<polygon fill="gray" stroke="gray" points="275.66,-494.77 266.44,-489.54 270.38,-499.37 275.66,-494.77"/>
</g>
<!-- 17 -->
<g id="node19" class="node">
<title>17</title>
<ellipse fill="none" stroke="black" cx="1649" cy="-545" rx="55.49" ry="18"/>
<text text-anchor="middle" x="1649" y="-541.3" font-family="Times,serif" font-size="14.00">V1897 (c)</text>
</g>
<!-- 18 -->
<g id="node20" class="node">
<title>18</title>
<ellipse fill="none" stroke="black" cx="1408" cy="-326" rx="50.09" ry="18"/>
<text text-anchor="middle" x="1408" y="-322.3" font-family="Times,serif" font-size="14.00">V568 (b)</text>
</g>
<!-- 18&#45;&gt;14 -->
<g id="edge14" class="edge">
<title>18&#45;&gt;14</title>
<path fill="none" stroke="black" stroke-dasharray="1,5" d="M1408,-307.81C1408,-299.79 1408,-290.05 1408,-281.07"/>
<polygon fill="black" stroke="black" points="1411.5,-281.03 1408,-271.03 1404.5,-281.03 1411.5,-281.03"/>
</g>
<!-- 35 -->
<g id="node37" class="node">
<title>35</title>
<ellipse fill="none" stroke="black" cx="376" cy="-472" rx="55.79" ry="18"/>
<text text-anchor="middle" x="376" y="-468.3" font-family="Times,serif" font-size="14.00">V1639 (a)</text>
</g>
<!-- 19&#45;&gt;35 -->
<g id="edge35" class="edge">
<title>19&#45;&gt;35</title>
<path fill="none" stroke="black" stroke-dasharray="1,5" d="M427.46,-527.53C418.84,-518.39 407.95,-506.86 398.42,-496.76"/>
<polygon fill="black" stroke="black" points="400.86,-494.25 391.46,-489.38 395.77,-499.05 400.86,-494.25"/>
</g>
<!-- 20 -->
<g id="node22" class="node">
<title>20</title>
<ellipse fill="none" stroke="gray" stroke-dasharray="5,2" cx="1306" cy="-545" rx="45.49" ry="18"/>
<text text-anchor="middle" x="1306" y="-541.3" font-family="Times,serif" font-size="14.00">LaSM&#45;c</text>
</g>
<!-- 21 -->
<g id="node23" class="node">
<title>21</title>
<ellipse fill="none" stroke="black" cx="733" cy="-472" rx="52.79" ry="18"/>
<text text-anchor="middle" x="733" y="-468.3" font-family="Times,serif" font-size="14.00">M111 (a)</text>
</g>
<!-- 21&#45;&gt;7 -->
<g id="edge8" class="edge">
<title>21&#45;&gt;7</title>
<path fill="none" stroke="blue" stroke-dasharray="5,2" d="M733,-453.81C733,-445.79 733,-436.05 733,-427.07"/>
<polygon fill="blue" stroke="blue" points="736.5,-427.03 733,-417.03 729.5,-427.03 736.5,-427.03"/>
</g>
<!-- 23 -->
<g id="node25" class="node">
<title>23</title>
<ellipse fill="none" stroke="black" cx="1420" cy="-545" rx="50.89" ry="18"/>
<text text-anchor="middle" x="1420" y="-541.3" font-family="Times,serif" font-size="14.00">Neap (b)</text>
</g>
<!-- 28 -->
<g id="node30" class="node">
<title>28</title>
<ellipse fill="none" stroke="black" cx="1448" cy="-472" rx="55.79" ry="18"/>
<text text-anchor="middle" x="1448" y="-468.3" font-family="Times,serif" font-size="14.00">V1629 (b)</text>
</g>
<!-- 23&#45;&gt;28 -->
<g id="edge28" class="edge">
<title>23&#45;&gt;28</title>
<path fill="none" stroke="black" stroke-dasharray="1,5" d="M1426.78,-526.81C1430.01,-518.62 1433.95,-508.62 1437.56,-499.48"/>
<polygon fill="black" stroke="black" points="1440.87,-500.62 1441.28,-490.03 1434.36,-498.05 1440.87,-500.62"/>
</g>
<!-- 32 -->
<g id="node34" class="node">
<title>32</title>
<ellipse fill="none" stroke="gray" stroke-dasharray="5,2" cx="1562" cy="-472" rx="39.79" ry="18"/>
<text text-anchor="middle" x="1562" y="-468.3" font-family="Times,serif" font-size="14.00">Taur&#45;c</text>
</g>
<!-- 23&#45;&gt;32 -->
<g id="edge32" class="edge">
<title>23&#45;&gt;32</title>
<path fill="none" stroke="gray" stroke-width="2" d="M1448.05,-529.97C1470.75,-518.63 1502.81,-502.6 1527.15,-490.43"/>
<polygon fill="gray" stroke="gray" stroke-width="2" points="1529.01,-493.41 1536.39,-485.8 1525.88,-487.15 1529.01,-493.41"/>
</g>
<!-- 36 -->
<g id="node38" class="node">
<title>36</title>
<ellipse fill="none" stroke="gray" stroke-dasharray="5,2" cx="1662" cy="-472" rx="42.49" ry="18"/>
<text text-anchor="middle" x="1662" y="-468.3" font-family="Times,serif" font-size="14.00">Marc&#45;c</text>
</g>
<!-- 23&#45;&gt;36 -->
<g id="edge36" class="edge">
<title>23&#45;&gt;36</title>
<path fill="none" stroke="gray" stroke-dasharray="5,2" d="M1458.07,-532.99C1465.03,-530.99 1472.23,-528.92 1479,-527 1537.61,-510.34 1552.75,-507.86 1611,-490 1614.08,-489.06 1617.25,-488.06 1620.44,-487.04"/>
<polygon fill="gray" stroke="gray" points="1621.55,-490.36 1629.97,-483.94 1619.38,-483.7 1621.55,-490.36"/>
</g>
<!-- 24 -->
<g id="node26" class="node">
<title>24</title>
<ellipse fill="none" stroke="black" cx="1408" cy="-399" rx="50.09" ry="18"/>
<text text-anchor="middle" x="1408" y="-395.3" font-family="Times,serif" font-size="14.00">V536 (b)</text>
</g>
<!-- 24&#45;&gt;18 -->
<g id="edge18" class="edge">
<title>24&#45;&gt;18</title>
<path fill="none" stroke="black" stroke-dasharray="1,5" d="M1408,-380.81C1408,-372.79 1408,-363.05 1408,-354.07"/>
<polygon fill="black" stroke="black" points="1411.5,-354.03 1408,-344.03 1404.5,-354.03 1411.5,-354.03"/>
</g>
<!-- 25 -->
<g id="node27" class="node">
<title>25</title>
<ellipse fill="none" stroke="black" cx="860" cy="-472" rx="55.79" ry="18"/>
<text text-anchor="middle" x="860" y="-468.3" font-family="Times,serif" font-size="14.00">V2036 (a)</text>
</g>
<!-- 26 -->
<g id="node28" class="node">
<title>26</title>
<ellipse fill="none" stroke="black" cx="983" cy="-472" rx="48.99" ry="18"/>
<text text-anchor="middle" x="983" y="-468.3" font-family="Times,serif" font-size="14.00">La35 (a)</text>
</g>
<!-- 27&#45;&gt;12 -->
<g id="edge12" class="edge">
<title>27&#45;&gt;12</title>
<path fill="none" stroke="black" stroke-dasharray="5,2" d="M696.45,-533.07C660.07,-522.19 602.66,-504.99 553,-490 549.49,-488.94 545.85,-487.84 542.19,-486.73"/>
<polygon fill="black" stroke="black" points="543.13,-483.36 532.54,-483.81 541.1,-490.06 543.13,-483.36"/>
</g>
<!-- 27&#45;&gt;13 -->
<g id="edge13" class="edge">
<title>27&#45;&gt;13</title>
<path fill="none" stroke="black" stroke-dasharray="1,5" d="M708.22,-529.46C690.23,-518.91 665.68,-504.5 645.88,-492.88"/>
<polygon fill="black" stroke="black" points="647.56,-489.81 637.16,-487.76 644.01,-495.84 647.56,-489.81"/>
</g>
<!-- 27&#45;&gt;21 -->
<g id="edge21" class="edge">
<title>27&#45;&gt;21</title>
<path fill="none" stroke="black" stroke-dasharray="1,5" d="M733,-526.81C733,-518.79 733,-509.05 733,-500.07"/>
<polygon fill="black" stroke="black" points="736.5,-500.03 733,-490.03 729.5,-500.03 736.5,-500.03"/>
</g>
<!-- 27&#45;&gt;25 -->
<g id="edge25" class="edge">
<title>27&#45;&gt;25</title>
<path fill="none" stroke="black" stroke-dasharray="5,2" d="M758.7,-529.63C777.52,-519.11 803.29,-504.7 824.13,-493.05"/>
<polygon fill="black" stroke="black" points="826,-496.02 833.02,-488.08 822.59,-489.91 826,-496.02"/>
</g>
<!-- 27&#45;&gt;26 -->
<g id="edge26" class="edge">
<title>27&#45;&gt;26</title>
<path fill="none" stroke="black" stroke-dasharray="1,5" d="M769.79,-533.12C776.83,-531.07 784.14,-528.95 791,-527 850.42,-510.09 865.58,-506.91 925,-490 928.75,-488.93 932.64,-487.82 936.54,-486.69"/>
<polygon fill="black" stroke="black" points="937.58,-490.03 946.21,-483.88 935.63,-483.31 937.58,-490.03"/>
</g>
<!-- 29 -->
<g id="node31" class="node">
<title>29</title>
<ellipse fill="none" stroke="black" cx="1100" cy="-472" rx="50.09" ry="18"/>
<text text-anchor="middle" x="1100" y="-468.3" font-family="Times,serif" font-size="14.00">V565 (b)</text>
</g>
<!-- 27&#45;&gt;29 -->
<g id="edge29" class="edge">
<title>27&#45;&gt;29</title>
<path fill="none" stroke="blue" stroke-dasharray="5,2" d="M768.69,-532.7C776.02,-530.62 783.72,-528.6 791,-527 900.71,-502.92 931.23,-513.82 1041,-490 1045.1,-489.11 1049.34,-488.09 1053.57,-487"/>
<polygon fill="blue" stroke="blue" points="1054.62,-490.35 1063.37,-484.38 1052.8,-483.59 1054.62,-490.35"/>
</g>
<!-- 41 -->
<g id="node43" class="node">
<title>41</title>
<ellipse fill="none" stroke="black" cx="1212" cy="-472" rx="44.39" ry="18"/>
<text text-anchor="middle" x="1212" y="-468.3" font-family="Times,serif" font-size="14.00">P74 (a)</text>
</g>
<!-- 27&#45;&gt;41 -->
<g id="edge41" class="edge">
<title>27&#45;&gt;41</title>
<path fill="none" stroke="black" stroke-dasharray="1,5" d="M768.32,-532.52C775.75,-530.42 783.58,-528.45 791,-527 952.34,-495.53 998.07,-523.51 1159,-490 1162.62,-489.25 1166.34,-488.34 1170.05,-487.34"/>
<polygon fill="black" stroke="black" points="1171.14,-490.67 1179.78,-484.52 1169.2,-483.94 1171.14,-490.67"/>
</g>
<!-- 45 -->
<g id="node47" class="node">
<title>45</title>
<ellipse fill="none" stroke="black" cx="1324" cy="-472" rx="50.09" ry="18"/>
<text text-anchor="middle" x="1324" y="-468.3" font-family="Times,serif" font-size="14.00">A116 (a)</text>
</g>
<!-- 27&#45;&gt;45 -->
<g id="edge45" class="edge">
<title>27&#45;&gt;45</title>
<path fill="none" stroke="black" stroke-dasharray="5,2" d="M768.3,-532.39C775.73,-530.31 783.57,-528.36 791,-527 894.92,-507.93 1161.04,-508.83 1265,-490 1269.37,-489.21 1273.87,-488.23 1278.36,-487.13"/>
<polygon fill="black" stroke="black" points="1279.28,-490.51 1288.08,-484.6 1277.52,-483.74 1279.28,-490.51"/>
</g>
<!-- 28&#45;&gt;24 -->
<g id="edge24" class="edge">
<title>28&#45;&gt;24</title>
<path fill="none" stroke="black" stroke-dasharray="5,2" d="M1438.52,-454.17C1433.69,-445.6 1427.71,-434.99 1422.33,-425.44"/>
<polygon fill="black" stroke="black" points="1425.37,-423.7 1417.41,-416.71 1419.27,-427.14 1425.37,-423.7"/>
</g>
<!-- 37 -->
<g id="node39" class="node">
<title>37</title>
<ellipse fill="none" stroke="gray" stroke-dasharray="5,2" cx="1512" cy="-399" rx="36" ry="18"/>
<text text-anchor="middle" x="1512" y="-395.3" font-family="Times,serif" font-size="14.00">La2&#45;c</text>
</g>
<!-- 28&#45;&gt;37 -->
<g id="edge37" class="edge">
<title>28&#45;&gt;37</title>
<path fill="none" stroke="gray" stroke-width="2" d="M1462.84,-454.53C1471.2,-445.26 1481.77,-433.53 1490.97,-423.33"/>
<polygon fill="gray" stroke="gray" stroke-width="2" points="1493.58,-425.66 1497.68,-415.89 1488.38,-420.97 1493.58,-425.66"/>
</g>
<!-- 43 -->
<g id="node45" class="node">
<title>43</title>
<ellipse fill="none" stroke="black" cx="1187" cy="-545" rx="55.79" ry="18"/>
<text text-anchor="middle" x="1187" y="-541.3" font-family="Times,serif" font-size="14.00">V1920 (b)</text>
</g>
<!-- 33&#45;&gt;43 -->
<g id="edge43" class="edge">
<title>33&#45;&gt;43</title>
<path fill="none" stroke="black" stroke-dasharray="5,2" d="M1276.05,-611.57C1259.29,-599.23 1235.58,-581.78 1216.84,-567.97"/>
<polygon fill="black" stroke="black" points="1218.75,-565.03 1208.62,-561.92 1214.6,-570.67 1218.75,-565.03"/>
</g>
<!-- 38&#45;&gt;20 -->
<g id="edge20" class="edge">
<title>38&#45;&gt;20</title>
<path fill="none" stroke="gray" stroke-dasharray="5,2" d="M1396.41,-611.38C1378.91,-598.73 1354.09,-580.78 1334.89,-566.89"/>
<polygon fill="gray" stroke="gray" points="1336.93,-564.05 1326.77,-561.02 1332.82,-569.72 1336.93,-564.05"/>
</g>
<!-- 38&#45;&gt;23 -->
<g id="edge23" class="edge">
<title>38&#45;&gt;23</title>
<path fill="none" stroke="black" stroke-dasharray="5,2" d="M1418.42,-609.82C1418.69,-599.19 1419.03,-585.31 1419.33,-573.2"/>
<polygon fill="black" stroke="black" points="1422.83,-573.24 1419.58,-563.15 1415.83,-573.06 1422.83,-573.24"/>
<text text-anchor="middle" x="1422.5" y="-584" font-family="Times,serif" font-size="10.00">2</text>
</g>
<!-- 42&#45;&gt;10 -->
<g id="edge11" class="edge">
<title>42&#45;&gt;10</title>
<path fill="none" stroke="black" d="M1534.36,-609.82C1533.97,-599.19 1533.46,-585.31 1533.01,-573.2"/>
<polygon fill="black" stroke="black" points="1536.5,-573.02 1532.64,-563.15 1529.51,-573.28 1536.5,-573.02"/>
<text text-anchor="middle" x="1536.5" y="-584" font-family="Times,serif" font-size="10.00">2</text>
</g>
<!-- 42&#45;&gt;17 -->
<g id="edge17" class="edge">
<title>42&#45;&gt;17</title>
<path fill="none" stroke="blue" stroke-dasharray="1,5" d="M1556.18,-611.95C1573.68,-599.52 1598.75,-581.7 1618.43,-567.72"/>
<polygon fill="blue" stroke="blue" points="1620.65,-570.44 1626.77,-561.79 1616.59,-564.73 1620.65,-570.44"/>
</g>
</g>
</svg>
