<?xml version="1.0" encoding="UTF-8" standalone="no"?>
<!DOCTYPE svg PUBLIC "-//W3C//DTD SVG 1.1//EN"
 "http://www.w3.org/Graphics/SVG/1.1/DTD/svg11.dtd">
<!-- Generated by graphviz version 2.43.0 (0)
 -->
<!-- Title: textual_flow Pages: 1 -->
<svg width="1798pt" height="654pt"
 viewBox="0.00 0.00 1798.00 654.00" xmlns="http://www.w3.org/2000/svg" xmlns:xlink="http://www.w3.org/1999/xlink">
<g id="graph0" class="graph" transform="scale(1 1) rotate(0) translate(4 650)">
<title>textual_flow</title>
<polygon fill="white" stroke="transparent" points="-4,4 -4,-650 1794,-650 1794,4 -4,4"/>
<g id="clust1" class="cluster">
<title>cluster_legend</title>
<polygon fill="none" stroke="black" points="8,-584 8,-638 186,-638 186,-584 8,-584"/>
</g>
<g id="clust2" class="cluster">
<title>cluster_plot</title>
</g>
<!-- label -->
<g id="node1" class="node">
<title>label</title>
<text text-anchor="middle" x="97" y="-614.8" font-family="Times,serif" font-size="14.00">adstag1.2.26U60&#45;62</text>
<text text-anchor="middle" x="97" y="-599.8" font-family="Times,serif" font-size="14.00">Con = 1</text>
</g>
<!-- 0 -->
<g id="node2" class="node">
<title>0</title>
<ellipse fill="none" stroke="black" cx="573" cy="-538" rx="44.39" ry="18"/>
<text text-anchor="middle" x="573" y="-534.3" font-family="Times,serif" font-size="14.00">A25 (a)</text>
</g>
<!-- 15 -->
<g id="node17" class="node">
<title>15</title>
<ellipse fill="none" stroke="black" cx="243" cy="-466" rx="40.09" ry="18"/>
<text text-anchor="middle" x="243" y="-462.3" font-family="Times,serif" font-size="14.00">Pal (a)</text>
</g>
<!-- 0&#45;&gt;15 -->
<g id="edge15" class="edge">
<title>0&#45;&gt;15</title>
<path fill="none" stroke="black" stroke-dasharray="5,2" d="M531.62,-531.15C476.44,-522.91 375.95,-506.35 292,-484 288.87,-483.17 285.65,-482.23 282.43,-481.24"/>
<polygon fill="black" stroke="black" points="283.43,-477.89 272.84,-478.14 281.28,-484.55 283.43,-477.89"/>
</g>
<!-- 19 -->
<g id="node21" class="node">
<title>19</title>
<ellipse fill="none" stroke="black" cx="351" cy="-466" rx="50.09" ry="18"/>
<text text-anchor="middle" x="351" y="-462.3" font-family="Times,serif" font-size="14.00">V566 (a)</text>
</g>
<!-- 0&#45;&gt;19 -->
<g id="edge19" class="edge">
<title>0&#45;&gt;19</title>
<path fill="none" stroke="black" stroke-dasharray="5,2" d="M538.8,-526.22C500.85,-514.25 439.42,-494.88 397.21,-481.57"/>
<polygon fill="black" stroke="black" points="398.05,-478.16 387.46,-478.5 395.94,-484.84 398.05,-478.16"/>
</g>
<!-- 22 -->
<g id="node24" class="node">
<title>22</title>
<ellipse fill="none" stroke="black" cx="463" cy="-466" rx="43.59" ry="18"/>
<text text-anchor="middle" x="463" y="-462.3" font-family="Times,serif" font-size="14.00">S32 (c)</text>
</g>
<!-- 0&#45;&gt;22 -->
<g id="edge22" class="edge">
<title>0&#45;&gt;22</title>
<path fill="none" stroke="blue" stroke-dasharray="5,2" d="M550.21,-522.5C534.13,-512.27 512.39,-498.43 494.63,-487.13"/>
<polygon fill="blue" stroke="blue" points="496.08,-483.9 485.76,-481.49 492.32,-489.81 496.08,-483.9"/>
</g>
<!-- 27 -->
<g id="node29" class="node">
<title>27</title>
<ellipse fill="none" stroke="black" cx="573" cy="-466" rx="48.99" ry="18"/>
<text text-anchor="middle" x="573" y="-462.3" font-family="Times,serif" font-size="14.00">La22 (a)</text>
</g>
<!-- 0&#45;&gt;27 -->
<g id="edge27" class="edge">
<title>0&#45;&gt;27</title>
<path fill="none" stroke="black" stroke-dasharray="1,5" d="M573,-519.7C573,-511.98 573,-502.71 573,-494.11"/>
<polygon fill="black" stroke="black" points="576.5,-494.1 573,-484.1 569.5,-494.1 576.5,-494.1"/>
</g>
<!-- 34 -->
<g id="node36" class="node">
<title>34</title>
<ellipse fill="none" stroke="black" cx="690" cy="-466" rx="50.09" ry="18"/>
<text text-anchor="middle" x="690" y="-462.3" font-family="Times,serif" font-size="14.00">Patm (a)</text>
</g>
<!-- 0&#45;&gt;34 -->
<g id="edge34" class="edge">
<title>0&#45;&gt;34</title>
<path fill="none" stroke="black" stroke-dasharray="1,5" d="M596.96,-522.67C614.16,-512.38 637.56,-498.37 656.6,-486.99"/>
<polygon fill="black" stroke="black" points="658.48,-489.94 665.27,-481.8 654.89,-483.93 658.48,-489.94"/>
</g>
<!-- 39 -->
<g id="node41" class="node">
<title>39</title>
<ellipse fill="none" stroke="black" cx="802" cy="-466" rx="44.39" ry="18"/>
<text text-anchor="middle" x="802" y="-462.3" font-family="Times,serif" font-size="14.00">P01 (a)</text>
</g>
<!-- 0&#45;&gt;39 -->
<g id="edge39" class="edge">
<title>0&#45;&gt;39</title>
<path fill="none" stroke="black" stroke-dasharray="5,2" d="M607.79,-526.72C643.33,-516.18 700.09,-499.21 749,-484 752.14,-483.02 755.38,-482.01 758.63,-480.98"/>
<polygon fill="black" stroke="black" points="759.91,-484.25 768.38,-477.88 757.79,-477.57 759.91,-484.25"/>
</g>
<!-- 1 -->
<g id="node3" class="node">
<title>1</title>
<ellipse fill="none" stroke="black" cx="1321" cy="-178" rx="40.09" ry="18"/>
<text text-anchor="middle" x="1321" y="-174.3" font-family="Times,serif" font-size="14.00">Sin (c)</text>
</g>
<!-- 6 -->
<g id="node8" class="node">
<title>6</title>
<ellipse fill="none" stroke="black" cx="1321" cy="-106" rx="49.29" ry="18"/>
<text text-anchor="middle" x="1321" y="-102.3" font-family="Times,serif" font-size="14.00">Marc (c)</text>
</g>
<!-- 1&#45;&gt;6 -->
<g id="edge7" class="edge">
<title>1&#45;&gt;6</title>
<path fill="none" stroke="black" stroke-dasharray="1,5" d="M1321,-159.7C1321,-151.98 1321,-142.71 1321,-134.11"/>
<polygon fill="black" stroke="black" points="1324.5,-134.1 1321,-124.1 1317.5,-134.1 1324.5,-134.1"/>
</g>
<!-- 2 -->
<g id="node4" class="node">
<title>2</title>
<ellipse fill="none" stroke="black" cx="948" cy="-538" rx="62.29" ry="18"/>
<text text-anchor="middle" x="948" y="-534.3" font-family="Times,serif" font-size="14.00">LaSM (cr1)</text>
</g>
<!-- 30 -->
<g id="node32" class="node">
<title>30</title>
<ellipse fill="none" stroke="black" cx="908" cy="-466" rx="44.39" ry="18"/>
<text text-anchor="middle" x="908" y="-462.3" font-family="Times,serif" font-size="14.00">B39 (a)</text>
</g>
<!-- 2&#45;&gt;30 -->
<g id="edge30" class="edge">
<title>2&#45;&gt;30</title>
<path fill="none" stroke="blue" stroke-dasharray="5,2" d="M938.32,-520.05C933.6,-511.8 927.83,-501.7 922.59,-492.54"/>
<polygon fill="blue" stroke="blue" points="925.59,-490.73 917.59,-483.79 919.52,-494.21 925.59,-490.73"/>
</g>
<!-- 3 -->
<g id="node5" class="node">
<title>3</title>
<ellipse fill="none" stroke="black" cx="1431" cy="-178" rx="51.99" ry="18"/>
<text text-anchor="middle" x="1431" y="-174.3" font-family="Times,serif" font-size="14.00">M118 (c)</text>
</g>
<!-- 8 -->
<g id="node10" class="node">
<title>8</title>
<ellipse fill="none" stroke="gray" stroke-dasharray="5,2" cx="1431" cy="-106" rx="28.7" ry="18"/>
<text text-anchor="middle" x="1431" y="-102.3" font-family="Times,serif" font-size="14.00">P18</text>
</g>
<!-- 3&#45;&gt;8 -->
<g id="edge9" class="edge">
<title>3&#45;&gt;8</title>
<path fill="none" stroke="gray" stroke-dasharray="5,2" d="M1431,-159.7C1431,-151.98 1431,-142.71 1431,-134.11"/>
<polygon fill="gray" stroke="gray" points="1434.5,-134.1 1431,-124.1 1427.5,-134.1 1434.5,-134.1"/>
</g>
<!-- 4 -->
<g id="node6" class="node">
<title>4</title>
<ellipse fill="none" stroke="black" cx="1321" cy="-34" rx="46.29" ry="18"/>
<text text-anchor="middle" x="1321" y="-30.3" font-family="Times,serif" font-size="14.00">Mon (c)</text>
</g>
<!-- 5 -->
<g id="node7" class="node">
<title>5</title>
<ellipse fill="none" stroke="gray" stroke-dasharray="5,2" cx="252" cy="-394" rx="50.09" ry="18"/>
<text text-anchor="middle" x="252" y="-390.3" font-family="Times,serif" font-size="14.00">Savile&#45;Η</text>
</g>
<!-- 6&#45;&gt;4 -->
<g id="edge5" class="edge">
<title>6&#45;&gt;4</title>
<path fill="none" stroke="black" stroke-dasharray="1,5" d="M1321,-87.7C1321,-79.98 1321,-70.71 1321,-62.11"/>
<polygon fill="black" stroke="black" points="1324.5,-62.1 1321,-52.1 1317.5,-62.1 1324.5,-62.1"/>
</g>
<!-- 7 -->
<g id="node9" class="node">
<title>7</title>
<ellipse fill="none" stroke="black" cx="728" cy="-322" rx="50.09" ry="18"/>
<text text-anchor="middle" x="728" y="-318.3" font-family="Times,serif" font-size="14.00">A336 (a)</text>
</g>
<!-- 9 -->
<g id="node11" class="node">
<title>9</title>
<ellipse fill="none" stroke="black" cx="1591" cy="-466" rx="55.49" ry="18"/>
<text text-anchor="middle" x="1591" y="-462.3" font-family="Times,serif" font-size="14.00">V2250 (c)</text>
</g>
<!-- 10 -->
<g id="node12" class="node">
<title>10</title>
<ellipse fill="none" stroke="black" cx="1631" cy="-394" rx="42.79" ry="18"/>
<text text-anchor="middle" x="1631" y="-390.3" font-family="Times,serif" font-size="14.00">Bas (a)</text>
</g>
<!-- 11 -->
<g id="node13" class="node">
<title>11</title>
<ellipse fill="none" stroke="black" cx="1294" cy="-611" rx="53.89" ry="18"/>
<text text-anchor="middle" x="1294" y="-607.3" font-family="Times,serif" font-size="14.00">aBase (a)</text>
</g>
<!-- 11&#45;&gt;0 -->
<g id="edge1" class="edge">
<title>11&#45;&gt;0</title>
<path fill="none" stroke="black" stroke-dasharray="5,2" d="M1243.01,-604.98C1111.09,-591.99 759.54,-557.37 625.72,-544.19"/>
<polygon fill="black" stroke="black" points="626.01,-540.7 615.71,-543.21 625.32,-547.67 626.01,-540.7"/>
</g>
<!-- 11&#45;&gt;2 -->
<g id="edge3" class="edge">
<title>11&#45;&gt;2</title>
<path fill="none" stroke="blue" d="M1249.12,-600.79C1187.38,-588.12 1076.1,-565.29 1007.48,-551.21"/>
<polygon fill="blue" stroke="blue" points="1007.77,-547.69 997.27,-549.11 1006.36,-554.55 1007.77,-547.69"/>
</g>
<!-- 23 -->
<g id="node25" class="node">
<title>23</title>
<ellipse fill="none" stroke="black" cx="1119" cy="-538" rx="50.09" ry="18"/>
<text text-anchor="middle" x="1119" y="-534.3" font-family="Times,serif" font-size="14.00">Neap (c)</text>
</g>
<!-- 11&#45;&gt;23 -->
<g id="edge23" class="edge">
<title>11&#45;&gt;23</title>
<path fill="none" stroke="blue" stroke-width="2" d="M1261.08,-596.65C1232.58,-585.08 1191.22,-568.3 1160.47,-555.82"/>
<polygon fill="blue" stroke="blue" stroke-width="2" points="1161.47,-552.45 1150.88,-551.94 1158.83,-558.94 1161.47,-552.45"/>
</g>
<!-- 31 -->
<g id="node33" class="node">
<title>31</title>
<ellipse fill="none" stroke="black" cx="1236" cy="-538" rx="49.29" ry="18"/>
<text text-anchor="middle" x="1236" y="-534.3" font-family="Times,serif" font-size="14.00">S249 (c)</text>
</g>
<!-- 11&#45;&gt;31 -->
<g id="edge31" class="edge">
<title>11&#45;&gt;31</title>
<path fill="none" stroke="blue" d="M1280.55,-593.53C1273.23,-584.57 1264.03,-573.31 1255.9,-563.36"/>
<polygon fill="blue" stroke="blue" points="1258.42,-560.91 1249.38,-555.38 1253,-565.34 1258.42,-560.91"/>
</g>
<!-- 33 -->
<g id="node35" class="node">
<title>33</title>
<ellipse fill="none" stroke="black" cx="1353" cy="-538" rx="50.09" ry="18"/>
<text text-anchor="middle" x="1353" y="-534.3" font-family="Times,serif" font-size="14.00">V560 (b)</text>
</g>
<!-- 11&#45;&gt;33 -->
<g id="edge33" class="edge">
<title>11&#45;&gt;33</title>
<path fill="none" stroke="blue" stroke-width="2" d="M1307.68,-593.53C1315.13,-584.57 1324.49,-573.31 1332.76,-563.36"/>
<polygon fill="blue" stroke="blue" stroke-width="2" points="1335.69,-565.31 1339.39,-555.38 1330.31,-560.83 1335.69,-565.31"/>
</g>
<!-- 38 -->
<g id="node40" class="node">
<title>38</title>
<ellipse fill="none" stroke="black" cx="1473" cy="-538" rx="51.99" ry="18"/>
<text text-anchor="middle" x="1473" y="-534.3" font-family="Times,serif" font-size="14.00">M136 (c)</text>
</g>
<!-- 11&#45;&gt;38 -->
<g id="edge38" class="edge">
<title>11&#45;&gt;38</title>
<path fill="none" stroke="blue" stroke-width="2" d="M1327.25,-596.81C1356.48,-585.22 1399.17,-568.29 1430.8,-555.74"/>
<polygon fill="blue" stroke="blue" stroke-width="2" points="1432.23,-558.94 1440.23,-552 1429.65,-552.43 1432.23,-558.94"/>
</g>
<!-- 42 -->
<g id="node44" class="node">
<title>42</title>
<ellipse fill="none" stroke="black" cx="1589" cy="-538" rx="44.39" ry="18"/>
<text text-anchor="middle" x="1589" y="-534.3" font-family="Times,serif" font-size="14.00">Nan (c)</text>
</g>
<!-- 11&#45;&gt;42 -->
<g id="edge42" class="edge">
<title>11&#45;&gt;42</title>
<path fill="none" stroke="blue" d="M1338.93,-600.99C1387.34,-591.03 1466.53,-573.99 1534,-556 1537.8,-554.99 1541.74,-553.88 1545.67,-552.74"/>
<polygon fill="blue" stroke="blue" points="1546.79,-556.06 1555.38,-549.85 1544.8,-549.35 1546.79,-556.06"/>
</g>
<!-- 44 -->
<g id="node46" class="node">
<title>44</title>
<ellipse fill="none" stroke="black" cx="1694" cy="-538" rx="42.79" ry="18"/>
<text text-anchor="middle" x="1694" y="-534.3" font-family="Times,serif" font-size="14.00">La2 (a)</text>
</g>
<!-- 11&#45;&gt;44 -->
<g id="edge44" class="edge">
<title>11&#45;&gt;44</title>
<path fill="none" stroke="black" stroke-width="2" d="M1344.64,-604.75C1412.82,-597.09 1537.65,-580.98 1642,-556 1645.43,-555.18 1648.96,-554.24 1652.48,-553.23"/>
<polygon fill="black" stroke="black" stroke-width="2" points="1653.77,-556.5 1662.33,-550.25 1651.75,-549.8 1653.77,-556.5"/>
</g>
<!-- 12 -->
<g id="node14" class="node">
<title>12</title>
<ellipse fill="none" stroke="black" cx="494" cy="-394" rx="46.29" ry="18"/>
<text text-anchor="middle" x="494" y="-390.3" font-family="Times,serif" font-size="14.00">Bodl (c)</text>
</g>
<!-- 13 -->
<g id="node15" class="node">
<title>13</title>
<ellipse fill="none" stroke="black" cx="608" cy="-394" rx="50.09" ry="18"/>
<text text-anchor="middle" x="608" y="-390.3" font-family="Times,serif" font-size="14.00">V571 (a)</text>
</g>
<!-- 14 -->
<g id="node16" class="node">
<title>14</title>
<ellipse fill="none" stroke="black" cx="1431" cy="-250" rx="46.29" ry="18"/>
<text text-anchor="middle" x="1431" y="-246.3" font-family="Times,serif" font-size="14.00">Taur (c)</text>
</g>
<!-- 14&#45;&gt;1 -->
<g id="edge2" class="edge">
<title>14&#45;&gt;1</title>
<path fill="none" stroke="black" stroke-dasharray="1,5" d="M1407.94,-234.33C1391.74,-224.02 1369.88,-210.1 1352.13,-198.81"/>
<polygon fill="black" stroke="black" points="1353.59,-195.59 1343.28,-193.18 1349.84,-201.5 1353.59,-195.59"/>
</g>
<!-- 14&#45;&gt;3 -->
<g id="edge4" class="edge">
<title>14&#45;&gt;3</title>
<path fill="none" stroke="black" stroke-dasharray="5,2" d="M1431,-231.7C1431,-223.98 1431,-214.71 1431,-206.11"/>
<polygon fill="black" stroke="black" points="1434.5,-206.1 1431,-196.1 1427.5,-206.1 1434.5,-206.1"/>
</g>
<!-- 40 -->
<g id="node42" class="node">
<title>40</title>
<ellipse fill="none" stroke="black" cx="1550" cy="-178" rx="49.29" ry="18"/>
<text text-anchor="middle" x="1550" y="-174.3" font-family="Times,serif" font-size="14.00">V569 (c)</text>
</g>
<!-- 14&#45;&gt;40 -->
<g id="edge40" class="edge">
<title>14&#45;&gt;40</title>
<path fill="none" stroke="black" stroke-dasharray="5,2" d="M1455.37,-234.67C1472.86,-224.38 1496.67,-210.37 1516.02,-198.99"/>
<polygon fill="black" stroke="black" points="1518,-201.88 1524.84,-193.8 1514.45,-195.85 1518,-201.88"/>
</g>
<!-- 15&#45;&gt;5 -->
<g id="edge6" class="edge">
<title>15&#45;&gt;5</title>
<path fill="none" stroke="gray" d="M245.22,-447.7C246.22,-439.98 247.41,-430.71 248.51,-422.11"/>
<polygon fill="gray" stroke="gray" points="252,-422.47 249.8,-412.1 245.05,-421.58 252,-422.47"/>
</g>
<!-- 16 -->
<g id="node18" class="node">
<title>16</title>
<ellipse fill="none" stroke="black" cx="1733" cy="-394" rx="40.89" ry="18"/>
<text text-anchor="middle" x="1733" y="-390.3" font-family="Times,serif" font-size="14.00">Est (c)</text>
</g>
<!-- 17 -->
<g id="node19" class="node">
<title>17</title>
<ellipse fill="none" stroke="black" cx="1719" cy="-466" rx="55.49" ry="18"/>
<text text-anchor="middle" x="1719" y="-462.3" font-family="Times,serif" font-size="14.00">V1897 (c)</text>
</g>
<!-- 17&#45;&gt;10 -->
<g id="edge11" class="edge">
<title>17&#45;&gt;10</title>
<path fill="none" stroke="blue" d="M1699.03,-449.12C1686.94,-439.5 1671.35,-427.1 1658.14,-416.59"/>
<polygon fill="blue" stroke="blue" points="1660.29,-413.83 1650.28,-410.34 1655.93,-419.3 1660.29,-413.83"/>
</g>
<!-- 17&#45;&gt;16 -->
<g id="edge16" class="edge">
<title>17&#45;&gt;16</title>
<path fill="none" stroke="black" stroke-dasharray="1,5" d="M1722.46,-447.7C1724,-439.98 1725.86,-430.71 1727.58,-422.11"/>
<polygon fill="black" stroke="black" points="1731.05,-422.6 1729.58,-412.1 1724.19,-421.22 1731.05,-422.6"/>
</g>
<!-- 18 -->
<g id="node20" class="node">
<title>18</title>
<ellipse fill="none" stroke="black" cx="1431" cy="-322" rx="49.29" ry="18"/>
<text text-anchor="middle" x="1431" y="-318.3" font-family="Times,serif" font-size="14.00">V568 (c)</text>
</g>
<!-- 18&#45;&gt;14 -->
<g id="edge14" class="edge">
<title>18&#45;&gt;14</title>
<path fill="none" stroke="black" stroke-dasharray="1,5" d="M1431,-303.7C1431,-295.98 1431,-286.71 1431,-278.11"/>
<polygon fill="black" stroke="black" points="1434.5,-278.1 1431,-268.1 1427.5,-278.1 1434.5,-278.1"/>
</g>
<!-- 35 -->
<g id="node37" class="node">
<title>35</title>
<ellipse fill="none" stroke="black" cx="375" cy="-394" rx="55.49" ry="18"/>
<text text-anchor="middle" x="375" y="-390.3" font-family="Times,serif" font-size="14.00">V1639 (c)</text>
</g>
<!-- 19&#45;&gt;35 -->
<g id="edge35" class="edge">
<title>19&#45;&gt;35</title>
<path fill="none" stroke="blue" stroke-dasharray="1,5" d="M356.81,-448.05C359.51,-440.18 362.79,-430.62 365.81,-421.79"/>
<polygon fill="blue" stroke="blue" points="369.14,-422.87 369.08,-412.28 362.52,-420.6 369.14,-422.87"/>
</g>
<!-- 20 -->
<g id="node22" class="node">
<title>20</title>
<ellipse fill="none" stroke="gray" stroke-dasharray="5,2" cx="1472" cy="-466" rx="45.49" ry="18"/>
<text text-anchor="middle" x="1472" y="-462.3" font-family="Times,serif" font-size="14.00">LaSM&#45;c</text>
</g>
<!-- 21 -->
<g id="node23" class="node">
<title>21</title>
<ellipse fill="none" stroke="black" cx="728" cy="-394" rx="51.99" ry="18"/>
<text text-anchor="middle" x="728" y="-390.3" font-family="Times,serif" font-size="14.00">M111 (c)</text>
</g>
<!-- 21&#45;&gt;7 -->
<g id="edge8" class="edge">
<title>21&#45;&gt;7</title>
<path fill="none" stroke="blue" stroke-dasharray="5,2" d="M728,-375.7C728,-367.98 728,-358.71 728,-350.11"/>
<polygon fill="blue" stroke="blue" points="731.5,-350.1 728,-340.1 724.5,-350.1 731.5,-350.1"/>
</g>
<!-- 28 -->
<g id="node30" class="node">
<title>28</title>
<ellipse fill="none" stroke="black" cx="1025" cy="-466" rx="55.49" ry="18"/>
<text text-anchor="middle" x="1025" y="-462.3" font-family="Times,serif" font-size="14.00">V1629 (c)</text>
</g>
<!-- 23&#45;&gt;28 -->
<g id="edge28" class="edge">
<title>23&#45;&gt;28</title>
<path fill="none" stroke="black" stroke-dasharray="1,5" d="M1098.14,-521.46C1085.21,-511.84 1068.41,-499.32 1054.17,-488.72"/>
<polygon fill="black" stroke="black" points="1056.24,-485.9 1046.13,-482.73 1052.06,-491.51 1056.24,-485.9"/>
</g>
<!-- 32 -->
<g id="node34" class="node">
<title>32</title>
<ellipse fill="none" stroke="gray" stroke-dasharray="5,2" cx="1138" cy="-466" rx="39.79" ry="18"/>
<text text-anchor="middle" x="1138" y="-462.3" font-family="Times,serif" font-size="14.00">Taur&#45;c</text>
</g>
<!-- 23&#45;&gt;32 -->
<g id="edge32" class="edge">
<title>23&#45;&gt;32</title>
<path fill="none" stroke="gray" stroke-width="2" d="M1123.6,-520.05C1125.71,-512.26 1128.28,-502.82 1130.65,-494.08"/>
<polygon fill="gray" stroke="gray" stroke-width="2" points="1134.07,-494.84 1133.31,-484.28 1127.31,-493.01 1134.07,-494.84"/>
</g>
<!-- 36 -->
<g id="node38" class="node">
<title>36</title>
<ellipse fill="none" stroke="gray" stroke-dasharray="5,2" cx="1238" cy="-466" rx="42.49" ry="18"/>
<text text-anchor="middle" x="1238" y="-462.3" font-family="Times,serif" font-size="14.00">Marc&#45;c</text>
</g>
<!-- 23&#45;&gt;36 -->
<g id="edge36" class="edge">
<title>23&#45;&gt;36</title>
<path fill="none" stroke="gray" stroke-dasharray="5,2" d="M1143.95,-522.33C1161.83,-511.8 1186.09,-497.53 1205.49,-486.12"/>
<polygon fill="gray" stroke="gray" points="1207.46,-489.03 1214.3,-480.94 1203.91,-482.99 1207.46,-489.03"/>
</g>
<!-- 24 -->
<g id="node26" class="node">
<title>24</title>
<ellipse fill="none" stroke="black" cx="1431" cy="-394" rx="49.29" ry="18"/>
<text text-anchor="middle" x="1431" y="-390.3" font-family="Times,serif" font-size="14.00">V536 (c)</text>
</g>
<!-- 24&#45;&gt;18 -->
<g id="edge18" class="edge">
<title>24&#45;&gt;18</title>
<path fill="none" stroke="black" stroke-dasharray="1,5" d="M1431,-375.7C1431,-367.98 1431,-358.71 1431,-350.11"/>
<polygon fill="black" stroke="black" points="1434.5,-350.1 1431,-340.1 1427.5,-350.1 1434.5,-350.1"/>
</g>
<!-- 25 -->
<g id="node27" class="node">
<title>25</title>
<ellipse fill="none" stroke="black" cx="853" cy="-394" rx="55.49" ry="18"/>
<text text-anchor="middle" x="853" y="-390.3" font-family="Times,serif" font-size="14.00">V2036 (c)</text>
</g>
<!-- 26 -->
<g id="node28" class="node">
<title>26</title>
<ellipse fill="none" stroke="black" cx="974" cy="-394" rx="48.19" ry="18"/>
<text text-anchor="middle" x="974" y="-390.3" font-family="Times,serif" font-size="14.00">La35 (c)</text>
</g>
<!-- 27&#45;&gt;12 -->
<g id="edge12" class="edge">
<title>27&#45;&gt;12</title>
<path fill="none" stroke="blue" stroke-dasharray="5,2" d="M555.07,-449.12C544.57,-439.81 531.13,-427.9 519.53,-417.62"/>
<polygon fill="blue" stroke="blue" points="521.66,-414.83 511.86,-410.82 517.02,-420.07 521.66,-414.83"/>
</g>
<!-- 27&#45;&gt;13 -->
<g id="edge13" class="edge">
<title>27&#45;&gt;13</title>
<path fill="none" stroke="black" stroke-dasharray="1,5" d="M581.47,-448.05C585.56,-439.89 590.54,-429.91 595.09,-420.82"/>
<polygon fill="black" stroke="black" points="598.26,-422.3 599.61,-411.79 592,-419.17 598.26,-422.3"/>
</g>
<!-- 27&#45;&gt;21 -->
<g id="edge21" class="edge">
<title>27&#45;&gt;21</title>
<path fill="none" stroke="blue" stroke-dasharray="1,5" d="M602.52,-451.67C626.77,-440.72 661.35,-425.1 688.08,-413.03"/>
<polygon fill="blue" stroke="blue" points="689.86,-416.07 697.53,-408.76 686.98,-409.69 689.86,-416.07"/>
</g>
<!-- 27&#45;&gt;25 -->
<g id="edge25" class="edge">
<title>27&#45;&gt;25</title>
<path fill="none" stroke="blue" stroke-dasharray="5,2" d="M609.41,-453.96C616.55,-451.9 623.99,-449.82 631,-448 700.7,-429.86 719.07,-429.25 789,-412 793.32,-410.93 797.8,-409.8 802.29,-408.65"/>
<polygon fill="blue" stroke="blue" points="803.29,-412 812.09,-406.1 801.53,-405.23 803.29,-412"/>
</g>
<!-- 27&#45;&gt;26 -->
<g id="edge26" class="edge">
<title>27&#45;&gt;26</title>
<path fill="none" stroke="blue" stroke-dasharray="1,5" d="M608.66,-453.58C616,-451.5 623.71,-449.52 631,-448 756.43,-421.9 791.63,-438.4 917,-412 920.92,-411.17 924.97,-410.21 929.01,-409.16"/>
<polygon fill="blue" stroke="blue" points="930.24,-412.45 938.96,-406.44 928.39,-405.7 930.24,-412.45"/>
</g>
<!-- 29 -->
<g id="node31" class="node">
<title>29</title>
<ellipse fill="none" stroke="black" cx="1090" cy="-394" rx="50.09" ry="18"/>
<text text-anchor="middle" x="1090" y="-390.3" font-family="Times,serif" font-size="14.00">V565 (a)</text>
</g>
<!-- 27&#45;&gt;29 -->
<g id="edge29" class="edge">
<title>27&#45;&gt;29</title>
<path fill="none" stroke="black" stroke-dasharray="5,2" d="M608.31,-453.46C615.74,-451.37 623.58,-449.41 631,-448 806.37,-414.74 855.55,-444.86 1031,-412 1035.36,-411.18 1039.86,-410.18 1044.35,-409.08"/>
<polygon fill="black" stroke="black" points="1045.28,-412.45 1054.07,-406.53 1043.51,-405.68 1045.28,-412.45"/>
</g>
<!-- 41 -->
<g id="node43" class="node">
<title>41</title>
<ellipse fill="none" stroke="black" cx="1202" cy="-394" rx="44.39" ry="18"/>
<text text-anchor="middle" x="1202" y="-390.3" font-family="Times,serif" font-size="14.00">P74 (a)</text>
</g>
<!-- 27&#45;&gt;41 -->
<g id="edge41" class="edge">
<title>27&#45;&gt;41</title>
<path fill="none" stroke="black" stroke-dasharray="1,5" d="M607.98,-453.43C615.5,-451.31 623.46,-449.35 631,-448 858.16,-407.31 922.37,-455.56 1149,-412 1152.68,-411.29 1156.46,-410.41 1160.23,-409.42"/>
<polygon fill="black" stroke="black" points="1161.44,-412.71 1170.09,-406.6 1159.51,-405.98 1161.44,-412.71"/>
</g>
<!-- 45 -->
<g id="node47" class="node">
<title>45</title>
<ellipse fill="none" stroke="black" cx="1314" cy="-394" rx="50.09" ry="18"/>
<text text-anchor="middle" x="1314" y="-390.3" font-family="Times,serif" font-size="14.00">A116 (a)</text>
</g>
<!-- 27&#45;&gt;45 -->
<g id="edge45" class="edge">
<title>27&#45;&gt;45</title>
<path fill="none" stroke="black" stroke-dasharray="5,2" d="M607.97,-453.36C615.49,-451.25 623.45,-449.31 631,-448 904.73,-400.63 981.17,-458.75 1255,-412 1259.37,-411.25 1263.89,-410.3 1268.37,-409.23"/>
<polygon fill="black" stroke="black" points="1269.29,-412.61 1278.1,-406.72 1267.54,-405.83 1269.29,-412.61"/>
</g>
<!-- 28&#45;&gt;24 -->
<g id="edge24" class="edge">
<title>28&#45;&gt;24</title>
<path fill="none" stroke="black" stroke-dasharray="5,2" d="M1065.1,-453.47C1072.98,-451.46 1081.21,-449.52 1089,-448 1213.87,-423.61 1248.45,-437.98 1373,-412 1376.93,-411.18 1380.99,-410.22 1385.04,-409.19"/>
<polygon fill="black" stroke="black" points="1386.28,-412.48 1395.03,-406.51 1384.46,-405.72 1386.28,-412.48"/>
</g>
<!-- 37 -->
<g id="node39" class="node">
<title>37</title>
<ellipse fill="none" stroke="gray" stroke-dasharray="5,2" cx="1534" cy="-394" rx="36" ry="18"/>
<text text-anchor="middle" x="1534" y="-390.3" font-family="Times,serif" font-size="14.00">La2&#45;c</text>
</g>
<!-- 28&#45;&gt;37 -->
<g id="edge37" class="edge">
<title>28&#45;&gt;37</title>
<path fill="none" stroke="gray" stroke-width="2" d="M1064.71,-453.33C1072.7,-451.3 1081.07,-449.4 1089,-448 1264.78,-416.98 1315.02,-451.91 1489,-412 1492,-411.31 1495.06,-410.47 1498.11,-409.53"/>
<polygon fill="gray" stroke="gray" stroke-width="2" points="1499.37,-412.81 1507.72,-406.29 1497.12,-406.17 1499.37,-412.81"/>
</g>
<!-- 43 -->
<g id="node45" class="node">
<title>43</title>
<ellipse fill="none" stroke="black" cx="1353" cy="-466" rx="55.49" ry="18"/>
<text text-anchor="middle" x="1353" y="-462.3" font-family="Times,serif" font-size="14.00">V1920 (c)</text>
</g>
<!-- 33&#45;&gt;43 -->
<g id="edge43" class="edge">
<title>33&#45;&gt;43</title>
<path fill="none" stroke="blue" stroke-dasharray="5,2" d="M1353,-519.7C1353,-511.98 1353,-502.71 1353,-494.11"/>
<polygon fill="blue" stroke="blue" points="1356.5,-494.1 1353,-484.1 1349.5,-494.1 1356.5,-494.1"/>
</g>
<!-- 38&#45;&gt;20 -->
<g id="edge20" class="edge">
<title>38&#45;&gt;20</title>
<path fill="none" stroke="gray" stroke-dasharray="5,2" d="M1472.75,-519.7C1472.64,-511.98 1472.51,-502.71 1472.39,-494.11"/>
<polygon fill="gray" stroke="gray" points="1475.89,-494.05 1472.24,-484.1 1468.89,-494.15 1475.89,-494.05"/>
</g>
<!-- 42&#45;&gt;9 -->
<g id="edge10" class="edge">
<title>42&#45;&gt;9</title>
<path fill="none" stroke="black" stroke-dasharray="5,2" d="M1589.49,-519.7C1589.71,-511.98 1589.98,-502.71 1590.23,-494.11"/>
<polygon fill="black" stroke="black" points="1593.72,-494.2 1590.51,-484.1 1586.73,-494 1593.72,-494.2"/>
</g>
<!-- 42&#45;&gt;17 -->
<g id="edge17" class="edge">
<title>42&#45;&gt;17</title>
<path fill="none" stroke="black" stroke-dasharray="1,5" d="M1614.68,-523.17C1634.11,-512.71 1661.03,-498.21 1682.67,-486.56"/>
<polygon fill="black" stroke="black" points="1684.43,-489.59 1691.57,-481.77 1681.11,-483.43 1684.43,-489.59"/>
</g>
</g>
</svg>
