<?xml version="1.0" encoding="UTF-8" standalone="no"?>
<!DOCTYPE svg PUBLIC "-//W3C//DTD SVG 1.1//EN"
 "http://www.w3.org/Graphics/SVG/1.1/DTD/svg11.dtd">
<!-- Generated by graphviz version 2.43.0 (0)
 -->
<!-- Title: textual_flow Pages: 1 -->
<svg width="1721pt" height="692pt"
 viewBox="0.00 0.00 1721.00 692.00" xmlns="http://www.w3.org/2000/svg" xmlns:xlink="http://www.w3.org/1999/xlink">
<g id="graph0" class="graph" transform="scale(1 1) rotate(0) translate(4 688)">
<title>textual_flow</title>
<polygon fill="white" stroke="transparent" points="-4,4 -4,-688 1717,-688 1717,4 -4,4"/>
<g id="clust1" class="cluster">
<title>cluster_legend</title>
<polygon fill="none" stroke="black" points="8,-622 8,-676 164,-676 164,-622 8,-622"/>
</g>
<g id="clust2" class="cluster">
<title>cluster_plot</title>
</g>
<!-- label -->
<g id="node1" class="node">
<title>label</title>
<text text-anchor="middle" x="86" y="-652.8" font-family="Times,serif" font-size="14.00">adstag1.3.43U12</text>
<text text-anchor="middle" x="86" y="-637.8" font-family="Times,serif" font-size="14.00">Con = 10</text>
</g>
<!-- 0 -->
<g id="node2" class="node">
<title>0</title>
<ellipse fill="none" stroke="black" cx="949" cy="-649" rx="53.89" ry="18"/>
<text text-anchor="middle" x="949" y="-645.3" font-family="Times,serif" font-size="14.00">aBase (a)</text>
</g>
<!-- 2 -->
<g id="node4" class="node">
<title>2</title>
<ellipse fill="none" stroke="black" cx="236" cy="-565" rx="55.79" ry="18"/>
<text text-anchor="middle" x="236" y="-561.3" font-family="Times,serif" font-size="14.00">V2036 (a)</text>
</g>
<!-- 0&#45;&gt;2 -->
<g id="edge2" class="edge">
<title>0&#45;&gt;2</title>
<path fill="none" stroke="black" d="M895.56,-646.19C784.04,-641.63 518.82,-626.74 301,-583 296.31,-582.06 291.46,-580.98 286.62,-579.84"/>
<polygon fill="black" stroke="black" points="287.29,-576.4 276.75,-577.42 285.63,-583.2 287.29,-576.4"/>
</g>
<!-- 3 -->
<g id="node5" class="node">
<title>3</title>
<ellipse fill="none" stroke="black" cx="355" cy="-565" rx="44.69" ry="18"/>
<text text-anchor="middle" x="355" y="-561.3" font-family="Times,serif" font-size="14.00">Nan (a)</text>
</g>
<!-- 0&#45;&gt;3 -->
<g id="edge3" class="edge">
<title>0&#45;&gt;3</title>
<path fill="none" stroke="black" d="M896.18,-645.19C798.69,-639.22 584.32,-622.46 408,-583 404.55,-582.23 401,-581.33 397.45,-580.35"/>
<polygon fill="black" stroke="black" points="398.12,-576.9 387.54,-577.46 396.16,-583.62 398.12,-576.9"/>
</g>
<!-- 10 -->
<g id="node12" class="node">
<title>10</title>
<ellipse fill="none" stroke="black" cx="470" cy="-565" rx="52.79" ry="18"/>
<text text-anchor="middle" x="470" y="-561.3" font-family="Times,serif" font-size="14.00">M136 (a)</text>
</g>
<!-- 0&#45;&gt;10 -->
<g id="edge10" class="edge">
<title>0&#45;&gt;10</title>
<path fill="none" stroke="black" stroke-width="2" d="M898.92,-642.05C820.29,-632.3 663.29,-611.14 532,-583 527.58,-582.05 523.01,-580.98 518.45,-579.85"/>
<polygon fill="black" stroke="black" stroke-width="2" points="519.09,-576.4 508.53,-577.29 517.34,-583.18 519.09,-576.4"/>
</g>
<!-- 11 -->
<g id="node13" class="node">
<title>11</title>
<ellipse fill="none" stroke="black" cx="606" cy="-565" rx="64.99" ry="18"/>
<text text-anchor="middle" x="606" y="-561.3" font-family="Times,serif" font-size="14.00">Savile&#45;Η (a)</text>
</g>
<!-- 0&#45;&gt;11 -->
<g id="edge11" class="edge">
<title>0&#45;&gt;11</title>
<path fill="none" stroke="black" stroke-width="2" d="M906.6,-637.86C845.35,-623.22 731.97,-596.12 663.32,-579.7"/>
<polygon fill="black" stroke="black" stroke-width="2" points="664.07,-576.28 653.53,-577.36 662.44,-583.09 664.07,-576.28"/>
</g>
<!-- 14 -->
<g id="node16" class="node">
<title>14</title>
<ellipse fill="none" stroke="black" cx="732" cy="-565" rx="42.79" ry="18"/>
<text text-anchor="middle" x="732" y="-561.3" font-family="Times,serif" font-size="14.00">La2 (a)</text>
</g>
<!-- 0&#45;&gt;14 -->
<g id="edge14" class="edge">
<title>0&#45;&gt;14</title>
<path fill="none" stroke="black" stroke-width="2" d="M914.62,-635.01C875.89,-620.37 813.04,-596.62 772.11,-581.16"/>
<polygon fill="black" stroke="black" stroke-width="2" points="773.31,-577.87 762.71,-577.61 770.83,-584.42 773.31,-577.87"/>
</g>
<!-- 15 -->
<g id="node17" class="node">
<title>15</title>
<ellipse fill="none" stroke="black" cx="837" cy="-565" rx="44.39" ry="18"/>
<text text-anchor="middle" x="837" y="-561.3" font-family="Times,serif" font-size="14.00">A25 (a)</text>
</g>
<!-- 0&#45;&gt;15 -->
<g id="edge15" class="edge">
<title>0&#45;&gt;15</title>
<path fill="none" stroke="black" stroke-dasharray="5,2" d="M927.67,-632.38C910.09,-619.51 884.99,-601.14 865.66,-586.98"/>
<polygon fill="black" stroke="black" points="867.63,-584.09 857.49,-581.01 863.5,-589.74 867.63,-584.09"/>
</g>
<!-- 23 -->
<g id="node25" class="node">
<title>23</title>
<ellipse fill="none" stroke="black" cx="949" cy="-565" rx="50.09" ry="18"/>
<text text-anchor="middle" x="949" y="-561.3" font-family="Times,serif" font-size="14.00">Patm (a)</text>
</g>
<!-- 0&#45;&gt;23 -->
<g id="edge23" class="edge">
<title>0&#45;&gt;23</title>
<path fill="none" stroke="black" d="M949,-630.61C949,-619.77 949,-605.6 949,-593.29"/>
<polygon fill="black" stroke="black" points="952.5,-593.08 949,-583.08 945.5,-593.08 952.5,-593.08"/>
</g>
<!-- 25 -->
<g id="node27" class="node">
<title>25</title>
<ellipse fill="none" stroke="black" cx="1069" cy="-565" rx="51.99" ry="18"/>
<text text-anchor="middle" x="1069" y="-561.3" font-family="Times,serif" font-size="14.00">LaSM (c)</text>
</g>
<!-- 0&#45;&gt;25 -->
<g id="edge25" class="edge">
<title>0&#45;&gt;25</title>
<path fill="none" stroke="blue" d="M971.57,-632.58C990.34,-619.75 1017.25,-601.36 1038.04,-587.16"/>
<polygon fill="blue" stroke="blue" points="1040.25,-589.89 1046.53,-581.35 1036.3,-584.11 1040.25,-589.89"/>
</g>
<!-- 29 -->
<g id="node31" class="node">
<title>29</title>
<ellipse fill="none" stroke="black" cx="1189" cy="-565" rx="50.09" ry="18"/>
<text text-anchor="middle" x="1189" y="-561.3" font-family="Times,serif" font-size="14.00">V560 (a)</text>
</g>
<!-- 0&#45;&gt;29 -->
<g id="edge29" class="edge">
<title>0&#45;&gt;29</title>
<path fill="none" stroke="black" stroke-width="2" d="M985.19,-635.63C1027.77,-621.09 1098.46,-596.93 1144.39,-581.24"/>
<polygon fill="black" stroke="black" stroke-width="2" points="1145.75,-584.48 1154.08,-577.93 1143.48,-577.85 1145.75,-584.48"/>
</g>
<!-- 30 -->
<g id="node32" class="node">
<title>30</title>
<ellipse fill="none" stroke="black" cx="1307" cy="-565" rx="50.09" ry="18"/>
<text text-anchor="middle" x="1307" y="-561.3" font-family="Times,serif" font-size="14.00">Neap (a)</text>
</g>
<!-- 0&#45;&gt;30 -->
<g id="edge30" class="edge">
<title>0&#45;&gt;30</title>
<path fill="none" stroke="black" stroke-width="2" d="M994.3,-639.13C1053.06,-627.4 1158.64,-605.56 1248,-583 1251.84,-582.03 1255.82,-580.98 1259.8,-579.9"/>
<polygon fill="black" stroke="black" stroke-width="2" points="1260.95,-583.21 1269.65,-577.17 1259.08,-576.47 1260.95,-583.21"/>
</g>
<!-- 32 -->
<g id="node34" class="node">
<title>32</title>
<ellipse fill="none" stroke="black" cx="1425" cy="-565" rx="50.09" ry="18"/>
<text text-anchor="middle" x="1425" y="-561.3" font-family="Times,serif" font-size="14.00">S249 (a)</text>
</g>
<!-- 0&#45;&gt;32 -->
<g id="edge32" class="edge">
<title>0&#45;&gt;32</title>
<path fill="none" stroke="black" d="M999.13,-642.26C1077.82,-632.78 1234.9,-611.98 1366,-583 1370.1,-582.09 1374.33,-581.06 1378.56,-579.97"/>
<polygon fill="black" stroke="black" points="1379.61,-583.31 1388.36,-577.33 1377.79,-576.55 1379.61,-583.31"/>
</g>
<!-- 38 -->
<g id="node40" class="node">
<title>38</title>
<ellipse fill="none" stroke="black" cx="1542" cy="-565" rx="48.99" ry="18"/>
<text text-anchor="middle" x="1542" y="-561.3" font-family="Times,serif" font-size="14.00">La22 (a)</text>
</g>
<!-- 0&#45;&gt;38 -->
<g id="edge38" class="edge">
<title>0&#45;&gt;38</title>
<path fill="none" stroke="black" stroke-dasharray="5,2" d="M1001.49,-644.55C1097.88,-637.56 1309.24,-619.24 1484,-583 1488.1,-582.15 1492.34,-581.15 1496.56,-580.07"/>
<polygon fill="black" stroke="black" points="1497.6,-583.42 1506.34,-577.43 1495.77,-576.66 1497.6,-583.42"/>
</g>
<!-- 42 -->
<g id="node44" class="node">
<title>42</title>
<ellipse fill="none" stroke="black" cx="1653" cy="-565" rx="44.39" ry="18"/>
<text text-anchor="middle" x="1653" y="-561.3" font-family="Times,serif" font-size="14.00">B39 (a)</text>
</g>
<!-- 0&#45;&gt;42 -->
<g id="edge42" class="edge">
<title>0&#45;&gt;42</title>
<path fill="none" stroke="black" stroke-width="2" d="M1002.82,-646.81C1115.08,-643.41 1381.94,-630.58 1600,-583 1603.61,-582.21 1607.33,-581.28 1611.03,-580.26"/>
<polygon fill="black" stroke="black" stroke-width="2" points="1612.14,-583.59 1620.75,-577.42 1610.17,-576.87 1612.14,-583.59"/>
<text text-anchor="middle" x="1497.5" y="-604" font-family="Times,serif" font-size="10.00">2</text>
</g>
<!-- 1 -->
<g id="node3" class="node">
<title>1</title>
<ellipse fill="none" stroke="black" cx="508" cy="-492" rx="44.39" ry="18"/>
<text text-anchor="middle" x="508" y="-488.3" font-family="Times,serif" font-size="14.00">P01 (a)</text>
</g>
<!-- 12 -->
<g id="node14" class="node">
<title>12</title>
<ellipse fill="none" stroke="black" cx="248" cy="-492" rx="55.79" ry="18"/>
<text text-anchor="middle" x="248" y="-488.3" font-family="Times,serif" font-size="14.00">V2250 (a)</text>
</g>
<!-- 3&#45;&gt;12 -->
<g id="edge12" class="edge">
<title>3&#45;&gt;12</title>
<path fill="none" stroke="black" stroke-dasharray="5,2" d="M332.83,-549.29C317.5,-539.12 296.88,-525.44 279.81,-514.11"/>
<polygon fill="black" stroke="black" points="281.52,-511.04 271.25,-508.43 277.65,-516.87 281.52,-511.04"/>
</g>
<!-- 37 -->
<g id="node39" class="node">
<title>37</title>
<ellipse fill="none" stroke="black" cx="378" cy="-492" rx="55.79" ry="18"/>
<text text-anchor="middle" x="378" y="-488.3" font-family="Times,serif" font-size="14.00">V1897 (a)</text>
</g>
<!-- 3&#45;&gt;37 -->
<g id="edge37" class="edge">
<title>3&#45;&gt;37</title>
<path fill="none" stroke="black" stroke-dasharray="1,5" d="M360.57,-546.81C363.2,-538.7 366.39,-528.84 369.33,-519.78"/>
<polygon fill="black" stroke="black" points="372.73,-520.62 372.48,-510.03 366.07,-518.46 372.73,-520.62"/>
</g>
<!-- 4 -->
<g id="node6" class="node">
<title>4</title>
<ellipse fill="none" stroke="black" cx="1066" cy="-492" rx="44.39" ry="18"/>
<text text-anchor="middle" x="1066" y="-488.3" font-family="Times,serif" font-size="14.00">P74 (a)</text>
</g>
<!-- 5 -->
<g id="node7" class="node">
<title>5</title>
<ellipse fill="none" stroke="black" cx="948" cy="-492" rx="55.79" ry="18"/>
<text text-anchor="middle" x="948" y="-488.3" font-family="Times,serif" font-size="14.00">V1629 (a)</text>
</g>
<!-- 17 -->
<g id="node19" class="node">
<title>17</title>
<ellipse fill="none" stroke="gray" stroke-dasharray="5,2" cx="908" cy="-409" rx="36" ry="18"/>
<text text-anchor="middle" x="908" y="-405.3" font-family="Times,serif" font-size="14.00">La2&#45;c</text>
</g>
<!-- 5&#45;&gt;17 -->
<g id="edge17" class="edge">
<title>5&#45;&gt;17</title>
<path fill="none" stroke="gray" stroke-width="2" d="M939.52,-473.82C934.03,-462.72 926.8,-448.07 920.65,-435.61"/>
<polygon fill="gray" stroke="gray" stroke-width="2" points="923.76,-434.02 916.2,-426.6 917.49,-437.12 923.76,-434.02"/>
</g>
<!-- 26 -->
<g id="node28" class="node">
<title>26</title>
<ellipse fill="none" stroke="black" cx="1012" cy="-409" rx="50.09" ry="18"/>
<text text-anchor="middle" x="1012" y="-405.3" font-family="Times,serif" font-size="14.00">V536 (a)</text>
</g>
<!-- 5&#45;&gt;26 -->
<g id="edge26" class="edge">
<title>5&#45;&gt;26</title>
<path fill="none" stroke="black" stroke-dasharray="5,2" d="M961.26,-474.22C970.33,-462.74 982.5,-447.33 992.65,-434.49"/>
<polygon fill="black" stroke="black" points="995.52,-436.5 998.98,-426.48 990.03,-432.16 995.52,-436.5"/>
</g>
<!-- 6 -->
<g id="node8" class="node">
<title>6</title>
<ellipse fill="none" stroke="black" cx="894" cy="-180" rx="50.09" ry="18"/>
<text text-anchor="middle" x="894" y="-176.3" font-family="Times,serif" font-size="14.00">V569 (a)</text>
</g>
<!-- 7 -->
<g id="node9" class="node">
<title>7</title>
<ellipse fill="none" stroke="black" cx="614" cy="-492" rx="44.39" ry="18"/>
<text text-anchor="middle" x="614" y="-488.3" font-family="Times,serif" font-size="14.00">S32 (a)</text>
</g>
<!-- 8 -->
<g id="node10" class="node">
<title>8</title>
<ellipse fill="none" stroke="black" cx="327" cy="-409" rx="42.49" ry="18"/>
<text text-anchor="middle" x="327" y="-405.3" font-family="Times,serif" font-size="14.00">Bas (c)</text>
</g>
<!-- 9 -->
<g id="node11" class="node">
<title>9</title>
<ellipse fill="none" stroke="black" cx="1012" cy="-107" rx="46.29" ry="18"/>
<text text-anchor="middle" x="1012" y="-103.3" font-family="Times,serif" font-size="14.00">Mon (a)</text>
</g>
<!-- 18 -->
<g id="node20" class="node">
<title>18</title>
<ellipse fill="none" stroke="black" cx="1012" cy="-34" rx="40.89" ry="18"/>
<text text-anchor="middle" x="1012" y="-30.3" font-family="Times,serif" font-size="14.00">Sin (a)</text>
</g>
<!-- 9&#45;&gt;18 -->
<g id="edge18" class="edge">
<title>9&#45;&gt;18</title>
<path fill="none" stroke="black" stroke-dasharray="1,5" d="M1012,-88.81C1012,-80.79 1012,-71.05 1012,-62.07"/>
<polygon fill="black" stroke="black" points="1015.5,-62.03 1012,-52.03 1008.5,-62.03 1015.5,-62.03"/>
</g>
<!-- 13 -->
<g id="node15" class="node">
<title>13</title>
<ellipse fill="none" stroke="black" cx="1177" cy="-492" rx="48.99" ry="18"/>
<text text-anchor="middle" x="1177" y="-488.3" font-family="Times,serif" font-size="14.00">La35 (a)</text>
</g>
<!-- 15&#45;&gt;1 -->
<g id="edge1" class="edge">
<title>15&#45;&gt;1</title>
<path fill="none" stroke="black" stroke-dasharray="5,2" d="M804.42,-552.73C797.71,-550.64 790.67,-548.61 784,-547 686.35,-523.37 658.65,-533.63 561,-510 557.56,-509.17 554.02,-508.23 550.48,-507.22"/>
<polygon fill="black" stroke="black" points="551.17,-503.78 540.58,-504.27 549.17,-510.48 551.17,-503.78"/>
</g>
<!-- 15&#45;&gt;7 -->
<g id="edge7" class="edge">
<title>15&#45;&gt;7</title>
<path fill="none" stroke="black" stroke-dasharray="5,2" d="M803.36,-553.19C796.94,-551.13 790.26,-548.99 784,-547 732.03,-530.45 718.97,-526.55 667,-510 663.87,-509 660.64,-507.97 657.38,-506.93"/>
<polygon fill="black" stroke="black" points="658.23,-503.53 647.64,-503.81 656.1,-510.19 658.23,-503.53"/>
</g>
<!-- 19 -->
<g id="node21" class="node">
<title>19</title>
<ellipse fill="none" stroke="black" cx="726" cy="-492" rx="50.09" ry="18"/>
<text text-anchor="middle" x="726" y="-488.3" font-family="Times,serif" font-size="14.00">V566 (b)</text>
</g>
<!-- 15&#45;&gt;19 -->
<g id="edge19" class="edge">
<title>15&#45;&gt;19</title>
<path fill="none" stroke="blue" stroke-dasharray="5,2" d="M814.27,-549.46C798.03,-539.07 775.95,-524.95 757.94,-513.43"/>
<polygon fill="blue" stroke="blue" points="759.78,-510.45 749.46,-508.01 756,-516.35 759.78,-510.45"/>
</g>
<!-- 21 -->
<g id="node23" class="node">
<title>21</title>
<ellipse fill="none" stroke="black" cx="834" cy="-492" rx="40.09" ry="18"/>
<text text-anchor="middle" x="834" y="-488.3" font-family="Times,serif" font-size="14.00">Pal (a)</text>
</g>
<!-- 15&#45;&gt;21 -->
<g id="edge21" class="edge">
<title>15&#45;&gt;21</title>
<path fill="none" stroke="black" stroke-dasharray="5,2" d="M836.27,-546.81C835.93,-538.79 835.52,-529.05 835.14,-520.07"/>
<polygon fill="black" stroke="black" points="838.64,-519.87 834.72,-510.03 831.64,-520.17 838.64,-519.87"/>
</g>
<!-- 16 -->
<g id="node18" class="node">
<title>16</title>
<ellipse fill="none" stroke="black" cx="1294" cy="-492" rx="50.09" ry="18"/>
<text text-anchor="middle" x="1294" y="-488.3" font-family="Times,serif" font-size="14.00">V571 (a)</text>
</g>
<!-- 36 -->
<g id="node38" class="node">
<title>36</title>
<ellipse fill="none" stroke="black" cx="653" cy="-409" rx="55.79" ry="18"/>
<text text-anchor="middle" x="653" y="-405.3" font-family="Times,serif" font-size="14.00">V1639 (b)</text>
</g>
<!-- 19&#45;&gt;36 -->
<g id="edge36" class="edge">
<title>19&#45;&gt;36</title>
<path fill="none" stroke="black" stroke-dasharray="1,5" d="M711.23,-474.61C700.74,-462.97 686.49,-447.16 674.71,-434.09"/>
<polygon fill="black" stroke="black" points="677.05,-431.45 667.75,-426.37 671.85,-436.14 677.05,-431.45"/>
</g>
<!-- 41 -->
<g id="node43" class="node">
<title>41</title>
<ellipse fill="none" stroke="black" cx="777" cy="-409" rx="50.09" ry="18"/>
<text text-anchor="middle" x="777" y="-405.3" font-family="Times,serif" font-size="14.00">A116 (b)</text>
</g>
<!-- 19&#45;&gt;41 -->
<g id="edge41" class="edge">
<title>19&#45;&gt;41</title>
<path fill="none" stroke="black" stroke-dasharray="1,5" d="M736.57,-474.22C743.61,-463.03 753,-448.12 760.96,-435.48"/>
<polygon fill="black" stroke="black" points="764.08,-437.09 766.45,-426.76 758.16,-433.36 764.08,-437.09"/>
<text text-anchor="middle" x="760.5" y="-448" font-family="Times,serif" font-size="10.00">10</text>
</g>
<!-- 20 -->
<g id="node22" class="node">
<title>20</title>
<ellipse fill="none" stroke="black" cx="1412" cy="-492" rx="50.09" ry="18"/>
<text text-anchor="middle" x="1412" y="-488.3" font-family="Times,serif" font-size="14.00">V565 (a)</text>
</g>
<!-- 22 -->
<g id="node24" class="node">
<title>22</title>
<ellipse fill="none" stroke="black" cx="1012" cy="-180" rx="50.09" ry="18"/>
<text text-anchor="middle" x="1012" y="-176.3" font-family="Times,serif" font-size="14.00">Marc (a)</text>
</g>
<!-- 22&#45;&gt;9 -->
<g id="edge9" class="edge">
<title>22&#45;&gt;9</title>
<path fill="none" stroke="black" stroke-dasharray="1,5" d="M1012,-161.81C1012,-153.79 1012,-144.05 1012,-135.07"/>
<polygon fill="black" stroke="black" points="1015.5,-135.03 1012,-125.03 1008.5,-135.03 1015.5,-135.03"/>
</g>
<!-- 24 -->
<g id="node26" class="node">
<title>24</title>
<ellipse fill="none" stroke="black" cx="777" cy="-326" rx="55.79" ry="18"/>
<text text-anchor="middle" x="777" y="-322.3" font-family="Times,serif" font-size="14.00">V1920 (b)</text>
</g>
<!-- 35 -->
<g id="node37" class="node">
<title>35</title>
<ellipse fill="none" stroke="black" cx="1012" cy="-326" rx="50.09" ry="18"/>
<text text-anchor="middle" x="1012" y="-322.3" font-family="Times,serif" font-size="14.00">V568 (a)</text>
</g>
<!-- 26&#45;&gt;35 -->
<g id="edge35" class="edge">
<title>26&#45;&gt;35</title>
<path fill="none" stroke="black" stroke-dasharray="1,5" d="M1012,-390.82C1012,-380.19 1012,-366.31 1012,-354.2"/>
<polygon fill="black" stroke="black" points="1015.5,-354.15 1012,-344.15 1008.5,-354.15 1015.5,-354.15"/>
</g>
<!-- 27 -->
<g id="node29" class="node">
<title>27</title>
<ellipse fill="none" stroke="black" cx="1012" cy="-253" rx="46.59" ry="18"/>
<text text-anchor="middle" x="1012" y="-249.3" font-family="Times,serif" font-size="14.00">Taur (a)</text>
</g>
<!-- 27&#45;&gt;6 -->
<g id="edge6" class="edge">
<title>27&#45;&gt;6</title>
<path fill="none" stroke="black" stroke-dasharray="5,2" d="M987.84,-237.46C970.37,-226.95 946.57,-212.63 927.3,-201.04"/>
<polygon fill="black" stroke="black" points="928.91,-197.92 918.54,-195.76 925.3,-203.92 928.91,-197.92"/>
</g>
<!-- 27&#45;&gt;22 -->
<g id="edge22" class="edge">
<title>27&#45;&gt;22</title>
<path fill="none" stroke="black" stroke-dasharray="1,5" d="M1012,-234.81C1012,-226.79 1012,-217.05 1012,-208.07"/>
<polygon fill="black" stroke="black" points="1015.5,-208.03 1012,-198.03 1008.5,-208.03 1015.5,-208.03"/>
</g>
<!-- 39 -->
<g id="node41" class="node">
<title>39</title>
<ellipse fill="none" stroke="black" cx="1133" cy="-180" rx="53.09" ry="18"/>
<text text-anchor="middle" x="1133" y="-176.3" font-family="Times,serif" font-size="14.00">M118 (d)</text>
</g>
<!-- 27&#45;&gt;39 -->
<g id="edge39" class="edge">
<title>27&#45;&gt;39</title>
<path fill="none" stroke="blue" stroke-dasharray="5,2" d="M1036.49,-237.63C1054.33,-227.16 1078.75,-212.83 1098.56,-201.21"/>
<polygon fill="blue" stroke="blue" points="1100.44,-204.16 1107.3,-196.08 1096.9,-198.12 1100.44,-204.16"/>
</g>
<!-- 28 -->
<g id="node30" class="node">
<title>28</title>
<ellipse fill="none" stroke="black" cx="429" cy="-409" rx="41.69" ry="18"/>
<text text-anchor="middle" x="429" y="-405.3" font-family="Times,serif" font-size="14.00">Est (a)</text>
</g>
<!-- 30&#45;&gt;5 -->
<g id="edge5" class="edge">
<title>30&#45;&gt;5</title>
<path fill="none" stroke="black" stroke-dasharray="1,5" d="M1270.36,-552.68C1263,-550.62 1255.28,-548.62 1248,-547 1144.78,-524.1 1116.5,-531.63 1013,-510 1008.32,-509.02 1003.48,-507.92 998.64,-506.76"/>
<polygon fill="black" stroke="black" points="999.32,-503.33 988.77,-504.33 997.64,-510.12 999.32,-503.33"/>
</g>
<!-- 31 -->
<g id="node33" class="node">
<title>31</title>
<ellipse fill="none" stroke="black" cx="1527" cy="-492" rx="46.59" ry="18"/>
<text text-anchor="middle" x="1527" y="-488.3" font-family="Times,serif" font-size="14.00">Bodl (a)</text>
</g>
<!-- 33 -->
<g id="node35" class="node">
<title>33</title>
<ellipse fill="none" stroke="gray" stroke-dasharray="5,2" cx="1133" cy="-107" rx="28.7" ry="18"/>
<text text-anchor="middle" x="1133" y="-103.3" font-family="Times,serif" font-size="14.00">P18</text>
</g>
<!-- 34 -->
<g id="node36" class="node">
<title>34</title>
<ellipse fill="none" stroke="black" cx="1644" cy="-409" rx="50.09" ry="18"/>
<text text-anchor="middle" x="1644" y="-405.3" font-family="Times,serif" font-size="14.00">A336 (a)</text>
</g>
<!-- 35&#45;&gt;27 -->
<g id="edge27" class="edge">
<title>35&#45;&gt;27</title>
<path fill="none" stroke="black" stroke-dasharray="1,5" d="M1012,-307.81C1012,-299.79 1012,-290.05 1012,-281.07"/>
<polygon fill="black" stroke="black" points="1015.5,-281.03 1012,-271.03 1008.5,-281.03 1015.5,-281.03"/>
</g>
<!-- 37&#45;&gt;8 -->
<g id="edge8" class="edge">
<title>37&#45;&gt;8</title>
<path fill="none" stroke="blue" d="M367.43,-474.22C360.34,-462.96 350.87,-447.92 342.88,-435.22"/>
<polygon fill="blue" stroke="blue" points="345.67,-433.08 337.38,-426.48 339.75,-436.81 345.67,-433.08"/>
</g>
<!-- 37&#45;&gt;28 -->
<g id="edge28" class="edge">
<title>37&#45;&gt;28</title>
<path fill="none" stroke="black" stroke-dasharray="1,5" d="M388.57,-474.22C395.66,-462.96 405.13,-447.92 413.12,-435.22"/>
<polygon fill="black" stroke="black" points="416.25,-436.81 418.62,-426.48 410.33,-433.08 416.25,-436.81"/>
</g>
<!-- 38&#45;&gt;4 -->
<g id="edge4" class="edge">
<title>38&#45;&gt;4</title>
<path fill="none" stroke="black" stroke-dasharray="1,5" d="M1506.67,-552.52C1499.25,-550.43 1491.41,-548.45 1484,-547 1323.98,-515.71 1278.62,-543.31 1119,-510 1115.38,-509.25 1111.66,-508.34 1107.95,-507.34"/>
<polygon fill="black" stroke="black" points="1108.8,-503.94 1098.23,-504.52 1106.86,-510.66 1108.8,-503.94"/>
</g>
<!-- 38&#45;&gt;13 -->
<g id="edge13" class="edge">
<title>38&#45;&gt;13</title>
<path fill="none" stroke="black" stroke-dasharray="1,5" d="M1506.31,-552.7C1498.98,-550.62 1491.28,-548.6 1484,-547 1374.73,-522.99 1344.27,-534.01 1235,-510 1230.91,-509.1 1226.68,-508.07 1222.46,-506.97"/>
<polygon fill="black" stroke="black" points="1223.26,-503.56 1212.69,-504.3 1221.41,-510.31 1223.26,-503.56"/>
</g>
<!-- 38&#45;&gt;16 -->
<g id="edge16" class="edge">
<title>38&#45;&gt;16</title>
<path fill="none" stroke="black" stroke-dasharray="1,5" d="M1505.2,-553.15C1498.16,-551.1 1490.86,-548.97 1484,-547 1425.86,-530.27 1411.18,-526.6 1353,-510 1349.24,-508.93 1345.35,-507.82 1341.45,-506.69"/>
<polygon fill="black" stroke="black" points="1342.34,-503.31 1331.76,-503.91 1340.41,-510.04 1342.34,-503.31"/>
</g>
<!-- 38&#45;&gt;20 -->
<g id="edge20" class="edge">
<title>38&#45;&gt;20</title>
<path fill="none" stroke="black" stroke-dasharray="5,2" d="M1515.69,-549.63C1495.96,-538.85 1468.74,-523.99 1447.14,-512.19"/>
<polygon fill="black" stroke="black" points="1448.72,-509.07 1438.27,-507.35 1445.37,-515.21 1448.72,-509.07"/>
</g>
<!-- 38&#45;&gt;31 -->
<g id="edge31" class="edge">
<title>38&#45;&gt;31</title>
<path fill="none" stroke="black" stroke-dasharray="5,2" d="M1538.37,-546.81C1536.67,-538.79 1534.62,-529.05 1532.72,-520.07"/>
<polygon fill="black" stroke="black" points="1536.09,-519.09 1530.6,-510.03 1529.24,-520.54 1536.09,-519.09"/>
</g>
<!-- 40 -->
<g id="node42" class="node">
<title>40</title>
<ellipse fill="none" stroke="black" cx="1644" cy="-492" rx="52.79" ry="18"/>
<text text-anchor="middle" x="1644" y="-488.3" font-family="Times,serif" font-size="14.00">M111 (a)</text>
</g>
<!-- 38&#45;&gt;40 -->
<g id="edge40" class="edge">
<title>38&#45;&gt;40</title>
<path fill="none" stroke="black" stroke-dasharray="1,5" d="M1563.88,-548.77C1578.3,-538.73 1597.4,-525.44 1613.33,-514.35"/>
<polygon fill="black" stroke="black" points="1615.59,-517.04 1621.8,-508.45 1611.6,-511.29 1615.59,-517.04"/>
</g>
<!-- 39&#45;&gt;33 -->
<g id="edge33" class="edge">
<title>39&#45;&gt;33</title>
<path fill="none" stroke="gray" stroke-dasharray="5,2" d="M1133,-161.81C1133,-153.79 1133,-144.05 1133,-135.07"/>
<polygon fill="gray" stroke="gray" points="1136.5,-135.03 1133,-125.03 1129.5,-135.03 1136.5,-135.03"/>
</g>
<!-- 40&#45;&gt;34 -->
<g id="edge34" class="edge">
<title>40&#45;&gt;34</title>
<path fill="none" stroke="black" stroke-dasharray="5,2" d="M1644,-473.82C1644,-463.19 1644,-449.31 1644,-437.2"/>
<polygon fill="black" stroke="black" points="1647.5,-437.15 1644,-427.15 1640.5,-437.15 1647.5,-437.15"/>
</g>
<!-- 41&#45;&gt;24 -->
<g id="edge24" class="edge">
<title>41&#45;&gt;24</title>
<path fill="none" stroke="black" stroke-width="2" d="M777,-390.82C777,-380.19 777,-366.31 777,-354.2"/>
<polygon fill="black" stroke="black" stroke-width="2" points="780.5,-354.15 777,-344.15 773.5,-354.15 780.5,-354.15"/>
<text text-anchor="middle" x="780.5" y="-365" font-family="Times,serif" font-size="10.00">9</text>
</g>
</g>
</svg>
