<?xml version="1.0" encoding="UTF-8" standalone="no"?>
<!DOCTYPE svg PUBLIC "-//W3C//DTD SVG 1.1//EN"
 "http://www.w3.org/Graphics/SVG/1.1/DTD/svg11.dtd">
<!-- Generated by graphviz version 2.43.0 (0)
 -->
<!-- Title: textual_flow Pages: 1 -->
<svg width="2270pt" height="599pt"
 viewBox="0.00 0.00 2270.00 599.00" xmlns="http://www.w3.org/2000/svg" xmlns:xlink="http://www.w3.org/1999/xlink">
<g id="graph0" class="graph" transform="scale(1 1) rotate(0) translate(4 595)">
<title>textual_flow</title>
<polygon fill="white" stroke="transparent" points="-4,4 -4,-595 2266,-595 2266,4 -4,4"/>
<g id="clust1" class="cluster">
<title>cluster_legend</title>
<polygon fill="none" stroke="black" points="8,-529 8,-583 164,-583 164,-529 8,-529"/>
</g>
<g id="clust2" class="cluster">
<title>cluster_plot</title>
</g>
<!-- label -->
<g id="node1" class="node">
<title>label</title>
<text text-anchor="middle" x="86" y="-559.8" font-family="Times,serif" font-size="14.00">adstag1.2.40U10</text>
<text text-anchor="middle" x="86" y="-544.8" font-family="Times,serif" font-size="14.00">Con = 5</text>
</g>
<!-- 0 -->
<g id="node2" class="node">
<title>0</title>
<ellipse fill="none" stroke="black" cx="1139" cy="-409" rx="52.79" ry="18"/>
<text text-anchor="middle" x="1139" y="-405.3" font-family="Times,serif" font-size="14.00">M111 (a)</text>
</g>
<!-- 3 -->
<g id="node5" class="node">
<title>3</title>
<ellipse fill="none" stroke="black" cx="1140" cy="-326" rx="50.09" ry="18"/>
<text text-anchor="middle" x="1140" y="-322.3" font-family="Times,serif" font-size="14.00">A336 (a)</text>
</g>
<!-- 0&#45;&gt;3 -->
<g id="edge4" class="edge">
<title>0&#45;&gt;3</title>
<path fill="none" stroke="black" stroke-dasharray="5,2" d="M1139.21,-390.82C1139.34,-380.19 1139.51,-366.31 1139.66,-354.2"/>
<polygon fill="black" stroke="black" points="1143.16,-354.2 1139.79,-344.15 1136.16,-354.11 1143.16,-354.2"/>
</g>
<!-- 1 -->
<g id="node3" class="node">
<title>1</title>
<ellipse fill="none" stroke="black" cx="590" cy="-409" rx="50.09" ry="18"/>
<text text-anchor="middle" x="590" y="-405.3" font-family="Times,serif" font-size="14.00">Patm (a)</text>
</g>
<!-- 2 -->
<g id="node4" class="node">
<title>2</title>
<ellipse fill="none" stroke="black" cx="230" cy="-482" rx="50.09" ry="18"/>
<text text-anchor="middle" x="230" y="-478.3" font-family="Times,serif" font-size="14.00">V560 (b)</text>
</g>
<!-- 12 -->
<g id="node14" class="node">
<title>12</title>
<ellipse fill="none" stroke="black" cx="236" cy="-409" rx="55.79" ry="18"/>
<text text-anchor="middle" x="236" y="-405.3" font-family="Times,serif" font-size="14.00">V1920 (b)</text>
</g>
<!-- 2&#45;&gt;12 -->
<g id="edge12" class="edge">
<title>2&#45;&gt;12</title>
<path fill="none" stroke="black" stroke-dasharray="5,2" d="M231.45,-463.81C232.13,-455.79 232.95,-446.05 233.71,-437.07"/>
<polygon fill="black" stroke="black" points="237.21,-437.29 234.56,-427.03 230.23,-436.7 237.21,-437.29"/>
</g>
<!-- 4 -->
<g id="node6" class="node">
<title>4</title>
<ellipse fill="none" stroke="black" cx="1254" cy="-409" rx="44.39" ry="18"/>
<text text-anchor="middle" x="1254" y="-405.3" font-family="Times,serif" font-size="14.00">P74 (a)</text>
</g>
<!-- 5 -->
<g id="node7" class="node">
<title>5</title>
<ellipse fill="none" stroke="black" cx="351" cy="-409" rx="41.69" ry="18"/>
<text text-anchor="middle" x="351" y="-405.3" font-family="Times,serif" font-size="14.00">Est (a)</text>
</g>
<!-- 6 -->
<g id="node8" class="node">
<title>6</title>
<ellipse fill="none" stroke="black" cx="466" cy="-253" rx="46.59" ry="18"/>
<text text-anchor="middle" x="466" y="-249.3" font-family="Times,serif" font-size="14.00">Taur (a)</text>
</g>
<!-- 8 -->
<g id="node10" class="node">
<title>8</title>
<ellipse fill="none" stroke="black" cx="345" cy="-180" rx="50.09" ry="18"/>
<text text-anchor="middle" x="345" y="-176.3" font-family="Times,serif" font-size="14.00">Marc (a)</text>
</g>
<!-- 6&#45;&gt;8 -->
<g id="edge9" class="edge">
<title>6&#45;&gt;8</title>
<path fill="none" stroke="black" stroke-dasharray="1,5" d="M441.51,-237.63C423.55,-227.09 398.92,-212.64 379.04,-200.97"/>
<polygon fill="black" stroke="black" points="380.68,-197.88 370.28,-195.84 377.14,-203.91 380.68,-197.88"/>
</g>
<!-- 10 -->
<g id="node12" class="node">
<title>10</title>
<ellipse fill="none" stroke="black" cx="466" cy="-180" rx="52.79" ry="18"/>
<text text-anchor="middle" x="466" y="-176.3" font-family="Times,serif" font-size="14.00">M118 (a)</text>
</g>
<!-- 6&#45;&gt;10 -->
<g id="edge11" class="edge">
<title>6&#45;&gt;10</title>
<path fill="none" stroke="black" stroke-dasharray="5,2" d="M466,-234.81C466,-226.79 466,-217.05 466,-208.07"/>
<polygon fill="black" stroke="black" points="469.5,-208.03 466,-198.03 462.5,-208.03 469.5,-208.03"/>
</g>
<!-- 29 -->
<g id="node31" class="node">
<title>29</title>
<ellipse fill="none" stroke="black" cx="587" cy="-180" rx="50.09" ry="18"/>
<text text-anchor="middle" x="587" y="-176.3" font-family="Times,serif" font-size="14.00">V569 (a)</text>
</g>
<!-- 6&#45;&gt;29 -->
<g id="edge29" class="edge">
<title>6&#45;&gt;29</title>
<path fill="none" stroke="black" stroke-dasharray="5,2" d="M490.49,-237.63C508.45,-227.09 533.08,-212.64 552.96,-200.97"/>
<polygon fill="black" stroke="black" points="554.86,-203.91 561.72,-195.84 551.32,-197.88 554.86,-203.91"/>
</g>
<!-- 7 -->
<g id="node9" class="node">
<title>7</title>
<ellipse fill="none" stroke="black" cx="354" cy="-482" rx="55.79" ry="18"/>
<text text-anchor="middle" x="354" y="-478.3" font-family="Times,serif" font-size="14.00">V1897 (a)</text>
</g>
<!-- 7&#45;&gt;5 -->
<g id="edge6" class="edge">
<title>7&#45;&gt;5</title>
<path fill="none" stroke="black" stroke-dasharray="1,5" d="M353.27,-463.81C352.93,-455.79 352.52,-446.05 352.14,-437.07"/>
<polygon fill="black" stroke="black" points="355.64,-436.87 351.72,-427.03 348.64,-437.17 355.64,-436.87"/>
</g>
<!-- 13 -->
<g id="node15" class="node">
<title>13</title>
<ellipse fill="none" stroke="black" cx="345" cy="-107" rx="46.29" ry="18"/>
<text text-anchor="middle" x="345" y="-103.3" font-family="Times,serif" font-size="14.00">Mon (a)</text>
</g>
<!-- 8&#45;&gt;13 -->
<g id="edge13" class="edge">
<title>8&#45;&gt;13</title>
<path fill="none" stroke="black" stroke-dasharray="1,5" d="M345,-161.81C345,-153.79 345,-144.05 345,-135.07"/>
<polygon fill="black" stroke="black" points="348.5,-135.03 345,-125.03 341.5,-135.03 348.5,-135.03"/>
</g>
<!-- 9 -->
<g id="node11" class="node">
<title>9</title>
<ellipse fill="none" stroke="black" cx="2202" cy="-409" rx="44.39" ry="18"/>
<text text-anchor="middle" x="2202" y="-405.3" font-family="Times,serif" font-size="14.00">B39 (a)</text>
</g>
<!-- 34 -->
<g id="node36" class="node">
<title>34</title>
<ellipse fill="none" stroke="gray" stroke-dasharray="5,2" cx="466" cy="-107" rx="28.7" ry="18"/>
<text text-anchor="middle" x="466" y="-103.3" font-family="Times,serif" font-size="14.00">P18</text>
</g>
<!-- 10&#45;&gt;34 -->
<g id="edge34" class="edge">
<title>10&#45;&gt;34</title>
<path fill="none" stroke="gray" stroke-dasharray="5,2" d="M466,-161.81C466,-153.79 466,-144.05 466,-135.07"/>
<polygon fill="gray" stroke="gray" points="469.5,-135.03 466,-125.03 462.5,-135.03 469.5,-135.03"/>
</g>
<!-- 11 -->
<g id="node13" class="node">
<title>11</title>
<ellipse fill="none" stroke="black" cx="841" cy="-556" rx="53.89" ry="18"/>
<text text-anchor="middle" x="841" y="-552.3" font-family="Times,serif" font-size="14.00">aBase (a)</text>
</g>
<!-- 11&#45;&gt;2 -->
<g id="edge3" class="edge">
<title>11&#45;&gt;2</title>
<path fill="none" stroke="blue" stroke-width="2" d="M787.64,-552.9C688.58,-548.29 469.88,-534.77 289,-500 284.82,-499.2 280.51,-498.23 276.21,-497.17"/>
<polygon fill="blue" stroke="blue" stroke-width="2" points="276.82,-493.71 266.26,-494.56 275.04,-500.48 276.82,-493.71"/>
</g>
<!-- 11&#45;&gt;7 -->
<g id="edge8" class="edge">
<title>11&#45;&gt;7</title>
<path fill="none" stroke="black" d="M789.67,-550.42C709.89,-542.83 551.52,-525.86 419,-500 414.31,-499.08 409.46,-498.03 404.61,-496.9"/>
<polygon fill="black" stroke="black" points="405.28,-493.46 394.73,-494.49 403.62,-500.26 405.28,-493.46"/>
</g>
<!-- 16 -->
<g id="node18" class="node">
<title>16</title>
<ellipse fill="none" stroke="black" cx="481" cy="-482" rx="52.79" ry="18"/>
<text text-anchor="middle" x="481" y="-478.3" font-family="Times,serif" font-size="14.00">M136 (a)</text>
</g>
<!-- 11&#45;&gt;16 -->
<g id="edge16" class="edge">
<title>11&#45;&gt;16</title>
<path fill="none" stroke="black" stroke-width="2" d="M793.26,-547.48C734.2,-537.87 630.69,-520.08 543,-500 538.66,-499.01 534.17,-497.91 529.67,-496.77"/>
<polygon fill="black" stroke="black" stroke-width="2" points="530.46,-493.35 519.9,-494.21 528.69,-500.13 530.46,-493.35"/>
</g>
<!-- 17 -->
<g id="node19" class="node">
<title>17</title>
<ellipse fill="none" stroke="black" cx="602" cy="-482" rx="50.09" ry="18"/>
<text text-anchor="middle" x="602" y="-478.3" font-family="Times,serif" font-size="14.00">Neap (a)</text>
</g>
<!-- 11&#45;&gt;17 -->
<g id="edge17" class="edge">
<title>11&#45;&gt;17</title>
<path fill="none" stroke="black" stroke-width="2" d="M802.33,-543.35C760.45,-530.73 693.63,-510.6 648.81,-497.1"/>
<polygon fill="black" stroke="black" stroke-width="2" points="649.62,-493.69 639.04,-494.16 647.6,-500.39 649.62,-493.69"/>
</g>
<!-- 19 -->
<g id="node21" class="node">
<title>19</title>
<ellipse fill="none" stroke="black" cx="714" cy="-482" rx="43.59" ry="18"/>
<text text-anchor="middle" x="714" y="-478.3" font-family="Times,serif" font-size="14.00">La2 (b)</text>
</g>
<!-- 11&#45;&gt;19 -->
<g id="edge19" class="edge">
<title>11&#45;&gt;19</title>
<path fill="none" stroke="blue" stroke-width="2" d="M814.69,-540.08C795.19,-529.03 768.48,-513.89 747.47,-501.97"/>
<polygon fill="blue" stroke="blue" stroke-width="2" points="748.98,-498.81 738.56,-496.92 745.53,-504.9 748.98,-498.81"/>
</g>
<!-- 20 -->
<g id="node22" class="node">
<title>20</title>
<ellipse fill="none" stroke="black" cx="841" cy="-482" rx="64.99" ry="18"/>
<text text-anchor="middle" x="841" y="-478.3" font-family="Times,serif" font-size="14.00">Savile&#45;Η (a)</text>
</g>
<!-- 11&#45;&gt;20 -->
<g id="edge20" class="edge">
<title>11&#45;&gt;20</title>
<path fill="none" stroke="black" stroke-width="2" d="M841,-537.94C841,-529.81 841,-519.88 841,-510.7"/>
<polygon fill="black" stroke="black" stroke-width="2" points="844.5,-510.44 841,-500.44 837.5,-510.44 844.5,-510.44"/>
</g>
<!-- 22 -->
<g id="node24" class="node">
<title>22</title>
<ellipse fill="none" stroke="black" cx="968" cy="-482" rx="44.39" ry="18"/>
<text text-anchor="middle" x="968" y="-478.3" font-family="Times,serif" font-size="14.00">A25 (a)</text>
</g>
<!-- 11&#45;&gt;22 -->
<g id="edge22" class="edge">
<title>11&#45;&gt;22</title>
<path fill="none" stroke="black" stroke-dasharray="5,2" d="M867.31,-540.08C886.68,-529.1 913.17,-514.08 934.12,-502.21"/>
<polygon fill="black" stroke="black" points="936.04,-505.14 943.02,-497.16 932.59,-499.05 936.04,-505.14"/>
</g>
<!-- 24 -->
<g id="node26" class="node">
<title>24</title>
<ellipse fill="none" stroke="gray" stroke-dasharray="5,2" cx="1065" cy="-482" rx="34.39" ry="18"/>
<text text-anchor="middle" x="1065" y="-478.3" font-family="Times,serif" font-size="14.00">S249</text>
</g>
<!-- 11&#45;&gt;24 -->
<g id="edge24" class="edge">
<title>11&#45;&gt;24</title>
<path fill="none" stroke="gray" d="M880.95,-543.69C917.6,-533.1 973.28,-516.48 1021,-500 1023.68,-499.07 1026.45,-498.08 1029.22,-497.07"/>
<polygon fill="gray" stroke="gray" points="1030.45,-500.35 1038.59,-493.56 1028,-493.79 1030.45,-500.35"/>
</g>
<!-- 26 -->
<g id="node28" class="node">
<title>26</title>
<ellipse fill="none" stroke="black" cx="1496" cy="-482" rx="48.99" ry="18"/>
<text text-anchor="middle" x="1496" y="-478.3" font-family="Times,serif" font-size="14.00">La22 (a)</text>
</g>
<!-- 11&#45;&gt;26 -->
<g id="edge26" class="edge">
<title>11&#45;&gt;26</title>
<path fill="none" stroke="black" stroke-dasharray="5,2" d="M891.31,-549.47C1011.35,-536.27 1313.92,-503.02 1439.75,-489.18"/>
<polygon fill="black" stroke="black" points="1440.38,-492.64 1449.93,-488.06 1439.61,-485.68 1440.38,-492.64"/>
</g>
<!-- 36 -->
<g id="node38" class="node">
<title>36</title>
<ellipse fill="none" stroke="black" cx="1625" cy="-482" rx="44.69" ry="18"/>
<text text-anchor="middle" x="1625" y="-478.3" font-family="Times,serif" font-size="14.00">Nan (a)</text>
</g>
<!-- 11&#45;&gt;36 -->
<g id="edge36" class="edge">
<title>11&#45;&gt;36</title>
<path fill="none" stroke="black" d="M894.55,-553.76C1013.73,-550.36 1309.63,-538.43 1554,-500 1562.1,-498.73 1570.64,-497.01 1578.88,-495.16"/>
<polygon fill="black" stroke="black" points="1579.8,-498.54 1588.74,-492.85 1578.2,-491.72 1579.8,-498.54"/>
</g>
<!-- 39 -->
<g id="node41" class="node">
<title>39</title>
<ellipse fill="none" stroke="black" cx="1966" cy="-482" rx="52.79" ry="18"/>
<text text-anchor="middle" x="1966" y="-478.3" font-family="Times,serif" font-size="14.00">LaSM (a)</text>
</g>
<!-- 11&#45;&gt;39 -->
<g id="edge39" class="edge">
<title>11&#45;&gt;39</title>
<path fill="none" stroke="black" d="M893.57,-551.83C995.64,-545.65 1227.76,-531.51 1423,-519 1597.79,-507.8 1804.18,-493.94 1904.74,-487.15"/>
<polygon fill="black" stroke="black" points="1904.98,-490.64 1914.72,-486.48 1904.51,-483.66 1904.98,-490.64"/>
</g>
<!-- 35 -->
<g id="node37" class="node">
<title>35</title>
<ellipse fill="none" stroke="black" cx="345" cy="-34" rx="40.89" ry="18"/>
<text text-anchor="middle" x="345" y="-30.3" font-family="Times,serif" font-size="14.00">Sin (a)</text>
</g>
<!-- 13&#45;&gt;35 -->
<g id="edge35" class="edge">
<title>13&#45;&gt;35</title>
<path fill="none" stroke="black" stroke-dasharray="1,5" d="M345,-88.81C345,-80.79 345,-71.05 345,-62.07"/>
<polygon fill="black" stroke="black" points="348.5,-62.03 345,-52.03 341.5,-62.03 348.5,-62.03"/>
</g>
<!-- 14 -->
<g id="node16" class="node">
<title>14</title>
<ellipse fill="none" stroke="gray" stroke-dasharray="5,2" cx="362" cy="-326" rx="36" ry="18"/>
<text text-anchor="middle" x="362" y="-322.3" font-family="Times,serif" font-size="14.00">La2&#45;c</text>
</g>
<!-- 15 -->
<g id="node17" class="node">
<title>15</title>
<ellipse fill="none" stroke="black" cx="1372" cy="-409" rx="55.79" ry="18"/>
<text text-anchor="middle" x="1372" y="-405.3" font-family="Times,serif" font-size="14.00">V2036 (a)</text>
</g>
<!-- 23 -->
<g id="node25" class="node">
<title>23</title>
<ellipse fill="none" stroke="black" cx="466" cy="-409" rx="55.79" ry="18"/>
<text text-anchor="middle" x="466" y="-405.3" font-family="Times,serif" font-size="14.00">V1629 (a)</text>
</g>
<!-- 17&#45;&gt;23 -->
<g id="edge23" class="edge">
<title>17&#45;&gt;23</title>
<path fill="none" stroke="black" stroke-dasharray="1,5" d="M574.81,-466.8C554.23,-456.06 525.75,-441.19 503.08,-429.36"/>
<polygon fill="black" stroke="black" points="504.57,-426.19 494.08,-424.66 501.33,-432.39 504.57,-426.19"/>
</g>
<!-- 18 -->
<g id="node20" class="node">
<title>18</title>
<ellipse fill="none" stroke="black" cx="1496" cy="-409" rx="50.09" ry="18"/>
<text text-anchor="middle" x="1496" y="-405.3" font-family="Times,serif" font-size="14.00">V565 (a)</text>
</g>
<!-- 21 -->
<g id="node23" class="node">
<title>21</title>
<ellipse fill="none" stroke="black" cx="702" cy="-409" rx="44.39" ry="18"/>
<text text-anchor="middle" x="702" y="-405.3" font-family="Times,serif" font-size="14.00">P01 (a)</text>
</g>
<!-- 22&#45;&gt;1 -->
<g id="edge2" class="edge">
<title>22&#45;&gt;1</title>
<path fill="none" stroke="black" stroke-dasharray="1,5" d="M935.73,-469.68C928.94,-467.57 921.78,-465.55 915,-464 798.63,-437.45 765.75,-451.81 649,-427 644.89,-426.13 640.66,-425.12 636.42,-424.04"/>
<polygon fill="black" stroke="black" points="637.18,-420.62 626.62,-421.43 635.38,-427.39 637.18,-420.62"/>
</g>
<!-- 22&#45;&gt;21 -->
<g id="edge21" class="edge">
<title>22&#45;&gt;21</title>
<path fill="none" stroke="black" stroke-dasharray="5,2" d="M935.05,-469.96C928.44,-467.88 921.52,-465.8 915,-464 844.63,-444.61 825.37,-446.39 755,-427 751.64,-426.07 748.17,-425.07 744.69,-424.03"/>
<polygon fill="black" stroke="black" points="745.54,-420.63 734.95,-421.04 743.48,-427.32 745.54,-420.63"/>
</g>
<!-- 28 -->
<g id="node30" class="node">
<title>28</title>
<ellipse fill="none" stroke="black" cx="808" cy="-409" rx="44.39" ry="18"/>
<text text-anchor="middle" x="808" y="-405.3" font-family="Times,serif" font-size="14.00">S32 (a)</text>
</g>
<!-- 22&#45;&gt;28 -->
<g id="edge28" class="edge">
<title>22&#45;&gt;28</title>
<path fill="none" stroke="black" stroke-dasharray="5,2" d="M939.03,-468.14C912.97,-456.58 874.53,-439.52 846.02,-426.87"/>
<polygon fill="black" stroke="black" points="847.32,-423.62 836.76,-422.76 844.48,-430.02 847.32,-423.62"/>
</g>
<!-- 32 -->
<g id="node34" class="node">
<title>32</title>
<ellipse fill="none" stroke="black" cx="910" cy="-409" rx="40.09" ry="18"/>
<text text-anchor="middle" x="910" y="-405.3" font-family="Times,serif" font-size="14.00">Pal (a)</text>
</g>
<!-- 22&#45;&gt;32 -->
<g id="edge32" class="edge">
<title>22&#45;&gt;32</title>
<path fill="none" stroke="black" stroke-dasharray="5,2" d="M954.55,-464.53C947.23,-455.57 938.03,-444.31 929.9,-434.36"/>
<polygon fill="black" stroke="black" points="932.42,-431.91 923.38,-426.38 927,-436.34 932.42,-431.91"/>
</g>
<!-- 37 -->
<g id="node39" class="node">
<title>37</title>
<ellipse fill="none" stroke="black" cx="1018" cy="-409" rx="50.09" ry="18"/>
<text text-anchor="middle" x="1018" y="-405.3" font-family="Times,serif" font-size="14.00">V566 (a)</text>
</g>
<!-- 22&#45;&gt;37 -->
<g id="edge37" class="edge">
<title>22&#45;&gt;37</title>
<path fill="none" stroke="black" stroke-dasharray="5,2" d="M979.6,-464.53C985.75,-455.79 993.45,-444.86 1000.34,-435.08"/>
<polygon fill="black" stroke="black" points="1003.22,-437.06 1006.12,-426.87 997.5,-433.03 1003.22,-437.06"/>
</g>
<!-- 23&#45;&gt;14 -->
<g id="edge14" class="edge">
<title>23&#45;&gt;14</title>
<path fill="none" stroke="gray" stroke-width="2" d="M445.45,-392C429.28,-379.4 406.59,-361.73 388.96,-348"/>
<polygon fill="gray" stroke="gray" stroke-width="2" points="390.8,-344.99 380.76,-341.61 386.5,-350.51 390.8,-344.99"/>
</g>
<!-- 33 -->
<g id="node35" class="node">
<title>33</title>
<ellipse fill="none" stroke="black" cx="466" cy="-326" rx="50.09" ry="18"/>
<text text-anchor="middle" x="466" y="-322.3" font-family="Times,serif" font-size="14.00">V568 (a)</text>
</g>
<!-- 23&#45;&gt;33 -->
<g id="edge33" class="edge">
<title>23&#45;&gt;33</title>
<path fill="none" stroke="black" stroke-dasharray="5,2" d="M466,-390.82C466,-380.19 466,-366.31 466,-354.2"/>
<polygon fill="black" stroke="black" points="469.5,-354.15 466,-344.15 462.5,-354.15 469.5,-354.15"/>
</g>
<!-- 40 -->
<g id="node42" class="node">
<title>40</title>
<ellipse fill="none" stroke="black" cx="584" cy="-326" rx="50.09" ry="18"/>
<text text-anchor="middle" x="584" y="-322.3" font-family="Times,serif" font-size="14.00">V536 (b)</text>
</g>
<!-- 23&#45;&gt;40 -->
<g id="edge40" class="edge">
<title>23&#45;&gt;40</title>
<path fill="none" stroke="blue" stroke-dasharray="5,2" d="M488.75,-392.38C507.15,-379.75 533.23,-361.85 553.45,-347.97"/>
<polygon fill="blue" stroke="blue" points="555.45,-350.84 561.72,-342.29 551.49,-345.07 555.45,-350.84"/>
</g>
<!-- 25 -->
<g id="node27" class="node">
<title>25</title>
<ellipse fill="none" stroke="black" cx="1614" cy="-409" rx="50.09" ry="18"/>
<text text-anchor="middle" x="1614" y="-405.3" font-family="Times,serif" font-size="14.00">V571 (a)</text>
</g>
<!-- 26&#45;&gt;0 -->
<g id="edge1" class="edge">
<title>26&#45;&gt;0</title>
<path fill="none" stroke="black" stroke-dasharray="1,5" d="M1451.78,-474.13C1393.87,-464.86 1289.33,-447.15 1201,-427 1196.66,-426.01 1192.17,-424.92 1187.67,-423.77"/>
<polygon fill="black" stroke="black" points="1188.46,-420.36 1177.9,-421.22 1186.69,-427.13 1188.46,-420.36"/>
</g>
<!-- 26&#45;&gt;4 -->
<g id="edge5" class="edge">
<title>26&#45;&gt;4</title>
<path fill="none" stroke="black" stroke-dasharray="1,5" d="M1458.24,-470.6C1420.02,-459.97 1359.25,-442.84 1307,-427 1303.71,-426 1300.31,-424.95 1296.9,-423.89"/>
<polygon fill="black" stroke="black" points="1297.9,-420.53 1287.31,-420.86 1295.79,-427.21 1297.9,-420.53"/>
</g>
<!-- 26&#45;&gt;15 -->
<g id="edge15" class="edge">
<title>26&#45;&gt;15</title>
<path fill="none" stroke="black" stroke-dasharray="5,2" d="M1470.61,-466.46C1452.3,-455.98 1427.35,-441.69 1407.13,-430.11"/>
<polygon fill="black" stroke="black" points="1408.63,-426.94 1398.21,-425.01 1405.15,-433.02 1408.63,-426.94"/>
</g>
<!-- 26&#45;&gt;18 -->
<g id="edge18" class="edge">
<title>26&#45;&gt;18</title>
<path fill="none" stroke="black" stroke-dasharray="5,2" d="M1496,-463.81C1496,-455.79 1496,-446.05 1496,-437.07"/>
<polygon fill="black" stroke="black" points="1499.5,-437.03 1496,-427.03 1492.5,-437.03 1499.5,-437.03"/>
</g>
<!-- 26&#45;&gt;25 -->
<g id="edge25" class="edge">
<title>26&#45;&gt;25</title>
<path fill="none" stroke="black" stroke-dasharray="1,5" d="M1520.45,-466.29C1537.82,-455.84 1561.35,-441.68 1580.47,-430.18"/>
<polygon fill="black" stroke="black" points="1582.41,-433.09 1589.18,-424.94 1578.8,-427.09 1582.41,-433.09"/>
</g>
<!-- 27 -->
<g id="node29" class="node">
<title>27</title>
<ellipse fill="none" stroke="black" cx="1731" cy="-409" rx="48.99" ry="18"/>
<text text-anchor="middle" x="1731" y="-405.3" font-family="Times,serif" font-size="14.00">La35 (a)</text>
</g>
<!-- 26&#45;&gt;27 -->
<g id="edge27" class="edge">
<title>26&#45;&gt;27</title>
<path fill="none" stroke="black" stroke-dasharray="1,5" d="M1532.46,-469.98C1573.45,-457.6 1640.1,-437.46 1684.73,-423.98"/>
<polygon fill="black" stroke="black" points="1685.89,-427.28 1694.45,-421.04 1683.87,-420.58 1685.89,-427.28"/>
</g>
<!-- 38 -->
<g id="node40" class="node">
<title>38</title>
<ellipse fill="none" stroke="black" cx="1848" cy="-409" rx="50.09" ry="18"/>
<text text-anchor="middle" x="1848" y="-405.3" font-family="Times,serif" font-size="14.00">A116 (a)</text>
</g>
<!-- 26&#45;&gt;38 -->
<g id="edge38" class="edge">
<title>26&#45;&gt;38</title>
<path fill="none" stroke="black" stroke-dasharray="5,2" d="M1536.46,-471.75C1547.65,-469.21 1559.79,-466.48 1571,-464 1610.07,-455.36 1619.6,-451.97 1659,-445 1716.44,-434.84 1731.94,-439.11 1789,-427 1793.11,-426.13 1797.34,-425.12 1801.58,-424.05"/>
<polygon fill="black" stroke="black" points="1802.62,-427.39 1811.38,-421.43 1800.82,-420.63 1802.62,-427.39"/>
</g>
<!-- 41 -->
<g id="node43" class="node">
<title>41</title>
<ellipse fill="none" stroke="black" cx="1963" cy="-409" rx="46.59" ry="18"/>
<text text-anchor="middle" x="1963" y="-405.3" font-family="Times,serif" font-size="14.00">Bodl (a)</text>
</g>
<!-- 26&#45;&gt;41 -->
<g id="edge41" class="edge">
<title>26&#45;&gt;41</title>
<path fill="none" stroke="black" stroke-dasharray="5,2" d="M1535.15,-471.25C1546.65,-468.62 1559.28,-465.97 1571,-464 1719.16,-439.13 1759.82,-457.17 1907,-427 1910.92,-426.2 1914.96,-425.24 1918.99,-424.19"/>
<polygon fill="black" stroke="black" points="1920.2,-427.49 1928.9,-421.45 1918.33,-420.74 1920.2,-427.49"/>
</g>
<!-- 30 -->
<g id="node32" class="node">
<title>30</title>
<ellipse fill="none" stroke="black" cx="2084" cy="-409" rx="55.79" ry="18"/>
<text text-anchor="middle" x="2084" y="-405.3" font-family="Times,serif" font-size="14.00">V2250 (b)</text>
</g>
<!-- 42 -->
<g id="node44" class="node">
<title>42</title>
<ellipse fill="none" stroke="black" cx="2084" cy="-326" rx="43.59" ry="18"/>
<text text-anchor="middle" x="2084" y="-322.3" font-family="Times,serif" font-size="14.00">Bas (b)</text>
</g>
<!-- 30&#45;&gt;42 -->
<g id="edge42" class="edge">
<title>30&#45;&gt;42</title>
<path fill="none" stroke="black" stroke-dasharray="5,2" d="M2084,-390.82C2084,-380.19 2084,-366.31 2084,-354.2"/>
<polygon fill="black" stroke="black" points="2087.5,-354.15 2084,-344.15 2080.5,-354.15 2087.5,-354.15"/>
<text text-anchor="middle" x="2087.5" y="-365" font-family="Times,serif" font-size="10.00">5</text>
</g>
<!-- 31 -->
<g id="node33" class="node">
<title>31</title>
<ellipse fill="none" stroke="black" cx="1016" cy="-326" rx="55.79" ry="18"/>
<text text-anchor="middle" x="1016" y="-322.3" font-family="Times,serif" font-size="14.00">V1639 (a)</text>
</g>
<!-- 33&#45;&gt;6 -->
<g id="edge7" class="edge">
<title>33&#45;&gt;6</title>
<path fill="none" stroke="black" stroke-dasharray="1,5" d="M466,-307.81C466,-299.79 466,-290.05 466,-281.07"/>
<polygon fill="black" stroke="black" points="469.5,-281.03 466,-271.03 462.5,-281.03 469.5,-281.03"/>
</g>
<!-- 36&#45;&gt;30 -->
<g id="edge30" class="edge">
<title>36&#45;&gt;30</title>
<path fill="none" stroke="blue" stroke-dasharray="5,2" d="M1668.13,-476.8C1740.91,-469.32 1892.53,-452.11 2019,-427 2023.69,-426.07 2028.54,-425 2033.38,-423.86"/>
<polygon fill="blue" stroke="blue" points="2034.37,-427.22 2043.26,-421.45 2032.71,-420.42 2034.37,-427.22"/>
</g>
<!-- 37&#45;&gt;31 -->
<g id="edge31" class="edge">
<title>37&#45;&gt;31</title>
<path fill="none" stroke="black" stroke-dasharray="1,5" d="M1017.58,-390.82C1017.31,-380.19 1016.97,-366.31 1016.67,-354.2"/>
<polygon fill="black" stroke="black" points="1020.17,-354.06 1016.42,-344.15 1013.17,-354.24 1020.17,-354.06"/>
</g>
<!-- 39&#45;&gt;9 -->
<g id="edge10" class="edge">
<title>39&#45;&gt;9</title>
<path fill="none" stroke="black" stroke-dasharray="5,2" d="M2004.99,-469.78C2042.09,-459.04 2099.45,-442.25 2149,-427 2152.14,-426.03 2155.38,-425.02 2158.64,-424"/>
<polygon fill="black" stroke="black" points="2159.92,-427.27 2168.39,-420.91 2157.8,-420.59 2159.92,-427.27"/>
</g>
</g>
</svg>
