<?xml version="1.0" encoding="UTF-8" standalone="no"?>
<!DOCTYPE svg PUBLIC "-//W3C//DTD SVG 1.1//EN"
 "http://www.w3.org/Graphics/SVG/1.1/DTD/svg11.dtd">
<!-- Generated by graphviz version 2.43.0 (0)
 -->
<!-- Title: textual_flow Pages: 1 -->
<svg width="2059pt" height="745pt"
 viewBox="0.00 0.00 2059.00 745.00" xmlns="http://www.w3.org/2000/svg" xmlns:xlink="http://www.w3.org/1999/xlink">
<g id="graph0" class="graph" transform="scale(1 1) rotate(0) translate(4 741)">
<title>textual_flow</title>
<polygon fill="white" stroke="transparent" points="-4,4 -4,-741 2055,-741 2055,4 -4,4"/>
<g id="clust1" class="cluster">
<title>cluster_legend</title>
<polygon fill="none" stroke="black" points="8,-675 8,-729 186,-729 186,-675 8,-675"/>
</g>
<g id="clust2" class="cluster">
<title>cluster_plot</title>
</g>
<!-- label -->
<g id="node1" class="node">
<title>label</title>
<text text-anchor="middle" x="97" y="-705.8" font-family="Times,serif" font-size="14.00">adstag1.3.40U16&#45;24</text>
<text text-anchor="middle" x="97" y="-690.8" font-family="Times,serif" font-size="14.00">Con = 5</text>
</g>
<!-- 0 -->
<g id="node2" class="node">
<title>0</title>
<ellipse fill="none" stroke="black" cx="831" cy="-702" rx="53.89" ry="18"/>
<text text-anchor="middle" x="831" y="-698.3" font-family="Times,serif" font-size="14.00">aBase (a)</text>
</g>
<!-- 2 -->
<g id="node4" class="node">
<title>2</title>
<ellipse fill="none" stroke="black" cx="259" cy="-628" rx="55.79" ry="18"/>
<text text-anchor="middle" x="259" y="-624.3" font-family="Times,serif" font-size="14.00">V2036 (a)</text>
</g>
<!-- 0&#45;&gt;2 -->
<g id="edge2" class="edge">
<title>0&#45;&gt;2</title>
<path fill="none" stroke="black" d="M778.45,-697.87C685.97,-691.78 488.36,-676.24 324,-646 319.23,-645.12 314.3,-644.08 309.38,-642.95"/>
<polygon fill="black" stroke="black" points="309.9,-639.48 299.36,-640.54 308.26,-646.29 309.9,-639.48"/>
</g>
<!-- 3 -->
<g id="node5" class="node">
<title>3</title>
<ellipse fill="none" stroke="black" cx="378" cy="-628" rx="45.49" ry="18"/>
<text text-anchor="middle" x="378" y="-624.3" font-family="Times,serif" font-size="14.00">Nan (b)</text>
</g>
<!-- 0&#45;&gt;3 -->
<g id="edge3" class="edge">
<title>0&#45;&gt;3</title>
<path fill="none" stroke="blue" d="M779.17,-696.66C702.58,-689.62 554.98,-673.63 432,-646 428.38,-645.19 424.66,-644.25 420.94,-643.23"/>
<polygon fill="blue" stroke="blue" points="421.75,-639.82 411.18,-640.41 419.81,-646.55 421.75,-639.82"/>
</g>
<!-- 10 -->
<g id="node12" class="node">
<title>10</title>
<ellipse fill="none" stroke="black" cx="494" cy="-628" rx="52.79" ry="18"/>
<text text-anchor="middle" x="494" y="-624.3" font-family="Times,serif" font-size="14.00">M136 (a)</text>
</g>
<!-- 0&#45;&gt;10 -->
<g id="edge10" class="edge">
<title>0&#45;&gt;10</title>
<path fill="none" stroke="black" stroke-width="2" d="M784.56,-692.74C729.71,-682.75 635.83,-664.9 556,-646 551.85,-645.02 547.55,-643.95 543.24,-642.84"/>
<polygon fill="black" stroke="black" stroke-width="2" points="543.81,-639.37 533.25,-640.21 542.03,-646.14 543.81,-639.37"/>
</g>
<!-- 11 -->
<g id="node13" class="node">
<title>11</title>
<ellipse fill="none" stroke="gray" stroke-dasharray="5,2" cx="615" cy="-628" rx="50.09" ry="18"/>
<text text-anchor="middle" x="615" y="-624.3" font-family="Times,serif" font-size="14.00">Savile&#45;Η</text>
</g>
<!-- 0&#45;&gt;11 -->
<g id="edge11" class="edge">
<title>0&#45;&gt;11</title>
<path fill="none" stroke="gray" stroke-width="2" d="M794.36,-688.79C757.3,-676.43 699.95,-657.32 660.11,-644.04"/>
<polygon fill="gray" stroke="gray" stroke-width="2" points="660.98,-640.64 650.38,-640.79 658.76,-647.28 660.98,-640.64"/>
</g>
<!-- 14 -->
<g id="node16" class="node">
<title>14</title>
<ellipse fill="none" stroke="black" cx="726" cy="-628" rx="42.79" ry="18"/>
<text text-anchor="middle" x="726" y="-624.3" font-family="Times,serif" font-size="14.00">La2 (a)</text>
</g>
<!-- 0&#45;&gt;14 -->
<g id="edge14" class="edge">
<title>0&#45;&gt;14</title>
<path fill="none" stroke="black" stroke-width="2" d="M808.47,-685.55C793.08,-675 772.52,-660.9 755.77,-649.42"/>
<polygon fill="black" stroke="black" stroke-width="2" points="757.64,-646.45 747.41,-643.68 753.68,-652.22 757.64,-646.45"/>
</g>
<!-- 15 -->
<g id="node17" class="node">
<title>15</title>
<ellipse fill="none" stroke="black" cx="831" cy="-628" rx="44.39" ry="18"/>
<text text-anchor="middle" x="831" y="-624.3" font-family="Times,serif" font-size="14.00">A25 (a)</text>
</g>
<!-- 0&#45;&gt;15 -->
<g id="edge15" class="edge">
<title>0&#45;&gt;15</title>
<path fill="none" stroke="black" stroke-dasharray="5,2" d="M831,-683.94C831,-675.81 831,-665.88 831,-656.7"/>
<polygon fill="black" stroke="black" points="834.5,-656.44 831,-646.44 827.5,-656.44 834.5,-656.44"/>
</g>
<!-- 23 -->
<g id="node25" class="node">
<title>23</title>
<ellipse fill="none" stroke="black" cx="943" cy="-628" rx="50.09" ry="18"/>
<text text-anchor="middle" x="943" y="-624.3" font-family="Times,serif" font-size="14.00">Patm (a)</text>
</g>
<!-- 0&#45;&gt;23 -->
<g id="edge23" class="edge">
<title>0&#45;&gt;23</title>
<path fill="none" stroke="black" d="M854.75,-685.73C871.2,-675.16 893.27,-660.97 911.22,-649.43"/>
<polygon fill="black" stroke="black" points="913.15,-652.35 919.67,-644 909.36,-646.46 913.15,-652.35"/>
</g>
<!-- 25 -->
<g id="node27" class="node">
<title>25</title>
<ellipse fill="none" stroke="black" cx="1064" cy="-628" rx="52.79" ry="18"/>
<text text-anchor="middle" x="1064" y="-624.3" font-family="Times,serif" font-size="14.00">LaSM (a)</text>
</g>
<!-- 0&#45;&gt;25 -->
<g id="edge25" class="edge">
<title>0&#45;&gt;25</title>
<path fill="none" stroke="black" d="M869.21,-689.19C909.46,-676.76 972.9,-657.15 1016.38,-643.72"/>
<polygon fill="black" stroke="black" points="1017.63,-646.99 1026.15,-640.7 1015.56,-640.3 1017.63,-646.99"/>
</g>
<!-- 29 -->
<g id="node31" class="node">
<title>29</title>
<ellipse fill="none" stroke="black" cx="1184" cy="-628" rx="49.29" ry="18"/>
<text text-anchor="middle" x="1184" y="-624.3" font-family="Times,serif" font-size="14.00">V560 (c)</text>
</g>
<!-- 0&#45;&gt;29 -->
<g id="edge29" class="edge">
<title>0&#45;&gt;29</title>
<path fill="none" stroke="blue" stroke-width="2" d="M878.83,-693.61C937.44,-684.2 1039.61,-666.66 1126,-646 1129.85,-645.08 1133.83,-644.06 1137.81,-642.99"/>
<polygon fill="blue" stroke="blue" stroke-width="2" points="1138.94,-646.31 1147.64,-640.27 1137.07,-639.57 1138.94,-646.31"/>
</g>
<!-- 32 -->
<g id="node34" class="node">
<title>32</title>
<ellipse fill="none" stroke="black" cx="1301" cy="-628" rx="50.09" ry="18"/>
<text text-anchor="middle" x="1301" y="-624.3" font-family="Times,serif" font-size="14.00">S249 (a)</text>
</g>
<!-- 0&#45;&gt;32 -->
<g id="edge32" class="edge">
<title>0&#45;&gt;32</title>
<path fill="none" stroke="black" d="M882.67,-696.55C960.98,-689.26 1114.12,-672.83 1242,-646 1246.11,-645.14 1250.35,-644.14 1254.58,-643.07"/>
<polygon fill="black" stroke="black" points="1255.62,-646.41 1264.39,-640.46 1253.82,-639.65 1255.62,-646.41"/>
</g>
<!-- 38 -->
<g id="node40" class="node">
<title>38</title>
<ellipse fill="none" stroke="black" cx="1573" cy="-628" rx="48.99" ry="18"/>
<text text-anchor="middle" x="1573" y="-624.3" font-family="Times,serif" font-size="14.00">La22 (a)</text>
</g>
<!-- 0&#45;&gt;38 -->
<g id="edge38" class="edge">
<title>0&#45;&gt;38</title>
<path fill="none" stroke="black" stroke-dasharray="5,2" d="M882,-696.05C1015.84,-683.06 1376.42,-648.08 1516.38,-634.49"/>
<polygon fill="black" stroke="black" points="1516.85,-637.96 1526.47,-633.52 1516.17,-631 1516.85,-637.96"/>
</g>
<!-- 1 -->
<g id="node3" class="node">
<title>1</title>
<ellipse fill="none" stroke="black" cx="624" cy="-545" rx="44.39" ry="18"/>
<text text-anchor="middle" x="624" y="-541.3" font-family="Times,serif" font-size="14.00">P01 (a)</text>
</g>
<!-- 12 -->
<g id="node14" class="node">
<title>12</title>
<ellipse fill="none" stroke="black" cx="257" cy="-545" rx="55.49" ry="18"/>
<text text-anchor="middle" x="257" y="-541.3" font-family="Times,serif" font-size="14.00">V2250 (c)</text>
</g>
<!-- 3&#45;&gt;12 -->
<g id="edge12" class="edge">
<title>3&#45;&gt;12</title>
<path fill="none" stroke="blue" stroke-dasharray="5,2" d="M355.81,-612.14C336.98,-599.54 309.74,-581.31 288.63,-567.17"/>
<polygon fill="blue" stroke="blue" points="290.55,-564.25 280.29,-561.59 286.65,-570.06 290.55,-564.25"/>
</g>
<!-- 30 -->
<g id="node32" class="node">
<title>30</title>
<ellipse fill="none" stroke="black" cx="381" cy="-545" rx="50.89" ry="18"/>
<text text-anchor="middle" x="381" y="-541.3" font-family="Times,serif" font-size="14.00">Neap (b)</text>
</g>
<!-- 3&#45;&gt;30 -->
<g id="edge30" class="edge">
<title>3&#45;&gt;30</title>
<path fill="none" stroke="black" d="M378.64,-609.82C379.03,-599.19 379.54,-585.31 379.99,-573.2"/>
<polygon fill="black" stroke="black" points="383.49,-573.28 380.36,-563.15 376.5,-573.02 383.49,-573.28"/>
<text text-anchor="middle" x="382.5" y="-584" font-family="Times,serif" font-size="10.00">3</text>
</g>
<!-- 37 -->
<g id="node39" class="node">
<title>37</title>
<ellipse fill="none" stroke="black" cx="506" cy="-545" rx="55.79" ry="18"/>
<text text-anchor="middle" x="506" y="-541.3" font-family="Times,serif" font-size="14.00">V1897 (b)</text>
</g>
<!-- 3&#45;&gt;37 -->
<g id="edge37" class="edge">
<title>3&#45;&gt;37</title>
<path fill="none" stroke="black" stroke-dasharray="1,5" d="M401.18,-612.33C421.28,-599.61 450.59,-581.06 473.11,-566.81"/>
<polygon fill="black" stroke="black" points="475.11,-569.69 481.69,-561.39 471.36,-563.78 475.11,-569.69"/>
</g>
<!-- 4 -->
<g id="node6" class="node">
<title>4</title>
<ellipse fill="none" stroke="black" cx="1286" cy="-545" rx="44.39" ry="18"/>
<text text-anchor="middle" x="1286" y="-541.3" font-family="Times,serif" font-size="14.00">P74 (d)</text>
</g>
<!-- 5 -->
<g id="node7" class="node">
<title>5</title>
<ellipse fill="none" stroke="black" cx="381" cy="-472" rx="55.79" ry="18"/>
<text text-anchor="middle" x="381" y="-468.3" font-family="Times,serif" font-size="14.00">V1629 (b)</text>
</g>
<!-- 17 -->
<g id="node19" class="node">
<title>17</title>
<ellipse fill="none" stroke="gray" stroke-dasharray="5,2" cx="341" cy="-399" rx="36" ry="18"/>
<text text-anchor="middle" x="341" y="-395.3" font-family="Times,serif" font-size="14.00">La2&#45;c</text>
</g>
<!-- 5&#45;&gt;17 -->
<g id="edge17" class="edge">
<title>5&#45;&gt;17</title>
<path fill="none" stroke="gray" stroke-width="2" d="M371.52,-454.17C366.69,-445.6 360.71,-434.99 355.33,-425.44"/>
<polygon fill="gray" stroke="gray" stroke-width="2" points="358.37,-423.7 350.41,-416.71 352.27,-427.14 358.37,-423.7"/>
</g>
<!-- 26 -->
<g id="node28" class="node">
<title>26</title>
<ellipse fill="none" stroke="black" cx="445" cy="-399" rx="50.09" ry="18"/>
<text text-anchor="middle" x="445" y="-395.3" font-family="Times,serif" font-size="14.00">V536 (b)</text>
</g>
<!-- 5&#45;&gt;26 -->
<g id="edge26" class="edge">
<title>5&#45;&gt;26</title>
<path fill="none" stroke="black" stroke-dasharray="5,2" d="M395.84,-454.53C404,-445.48 414.27,-434.09 423.31,-424.06"/>
<polygon fill="black" stroke="black" points="426.14,-426.15 430.24,-416.38 420.94,-421.46 426.14,-426.15"/>
</g>
<!-- 6 -->
<g id="node8" class="node">
<title>6</title>
<ellipse fill="none" stroke="black" cx="328" cy="-180" rx="49.29" ry="18"/>
<text text-anchor="middle" x="328" y="-176.3" font-family="Times,serif" font-size="14.00">V569 (c)</text>
</g>
<!-- 7 -->
<g id="node9" class="node">
<title>7</title>
<ellipse fill="none" stroke="black" cx="730" cy="-545" rx="44.39" ry="18"/>
<text text-anchor="middle" x="730" y="-541.3" font-family="Times,serif" font-size="14.00">S32 (a)</text>
</g>
<!-- 8 -->
<g id="node10" class="node">
<title>8</title>
<ellipse fill="none" stroke="black" cx="502" cy="-472" rx="43.59" ry="18"/>
<text text-anchor="middle" x="502" y="-468.3" font-family="Times,serif" font-size="14.00">Bas (b)</text>
</g>
<!-- 9 -->
<g id="node11" class="node">
<title>9</title>
<ellipse fill="none" stroke="black" cx="445" cy="-107" rx="46.59" ry="18"/>
<text text-anchor="middle" x="445" y="-103.3" font-family="Times,serif" font-size="14.00">Mon (b)</text>
</g>
<!-- 18 -->
<g id="node20" class="node">
<title>18</title>
<ellipse fill="none" stroke="black" cx="445" cy="-34" rx="41.69" ry="18"/>
<text text-anchor="middle" x="445" y="-30.3" font-family="Times,serif" font-size="14.00">Sin (b)</text>
</g>
<!-- 9&#45;&gt;18 -->
<g id="edge18" class="edge">
<title>9&#45;&gt;18</title>
<path fill="none" stroke="black" stroke-dasharray="1,5" d="M445,-88.81C445,-80.79 445,-71.05 445,-62.07"/>
<polygon fill="black" stroke="black" points="448.5,-62.03 445,-52.03 441.5,-62.03 448.5,-62.03"/>
</g>
<!-- 13 -->
<g id="node15" class="node">
<title>13</title>
<ellipse fill="none" stroke="black" cx="1397" cy="-545" rx="48.99" ry="18"/>
<text text-anchor="middle" x="1397" y="-541.3" font-family="Times,serif" font-size="14.00">La35 (a)</text>
</g>
<!-- 15&#45;&gt;1 -->
<g id="edge1" class="edge">
<title>15&#45;&gt;1</title>
<path fill="none" stroke="black" stroke-dasharray="5,2" d="M800.01,-614.87C763.85,-600.73 703.98,-577.29 664.25,-561.75"/>
<polygon fill="black" stroke="black" points="665.45,-558.46 654.86,-558.08 662.9,-564.98 665.45,-558.46"/>
</g>
<!-- 15&#45;&gt;7 -->
<g id="edge7" class="edge">
<title>15&#45;&gt;7</title>
<path fill="none" stroke="black" stroke-dasharray="5,2" d="M811.53,-611.38C796.06,-598.98 774.25,-581.49 757.08,-567.72"/>
<polygon fill="black" stroke="black" points="759.06,-564.82 749.07,-561.29 754.68,-570.28 759.06,-564.82"/>
</g>
<!-- 19 -->
<g id="node21" class="node">
<title>19</title>
<ellipse fill="none" stroke="black" cx="842" cy="-545" rx="50.09" ry="18"/>
<text text-anchor="middle" x="842" y="-541.3" font-family="Times,serif" font-size="14.00">V566 (a)</text>
</g>
<!-- 15&#45;&gt;19 -->
<g id="edge19" class="edge">
<title>15&#45;&gt;19</title>
<path fill="none" stroke="black" stroke-dasharray="5,2" d="M833.33,-609.82C834.78,-599.19 836.66,-585.31 838.31,-573.2"/>
<polygon fill="black" stroke="black" points="841.79,-573.53 839.67,-563.15 834.86,-572.59 841.79,-573.53"/>
</g>
<!-- 21 -->
<g id="node23" class="node">
<title>21</title>
<ellipse fill="none" stroke="black" cx="950" cy="-545" rx="40.09" ry="18"/>
<text text-anchor="middle" x="950" y="-541.3" font-family="Times,serif" font-size="14.00">Pal (a)</text>
</g>
<!-- 15&#45;&gt;21 -->
<g id="edge21" class="edge">
<title>15&#45;&gt;21</title>
<path fill="none" stroke="black" stroke-dasharray="5,2" d="M852.83,-612.14C871.73,-599.28 899.26,-580.54 920.19,-566.29"/>
<polygon fill="black" stroke="black" points="922.42,-569.01 928.71,-560.49 918.48,-563.22 922.42,-569.01"/>
</g>
<!-- 16 -->
<g id="node18" class="node">
<title>16</title>
<ellipse fill="none" stroke="black" cx="1514" cy="-545" rx="50.09" ry="18"/>
<text text-anchor="middle" x="1514" y="-541.3" font-family="Times,serif" font-size="14.00">V571 (a)</text>
</g>
<!-- 36 -->
<g id="node38" class="node">
<title>36</title>
<ellipse fill="none" stroke="black" cx="842" cy="-472" rx="55.79" ry="18"/>
<text text-anchor="middle" x="842" y="-468.3" font-family="Times,serif" font-size="14.00">V1639 (a)</text>
</g>
<!-- 19&#45;&gt;36 -->
<g id="edge36" class="edge">
<title>19&#45;&gt;36</title>
<path fill="none" stroke="black" stroke-dasharray="1,5" d="M842,-526.81C842,-518.79 842,-509.05 842,-500.07"/>
<polygon fill="black" stroke="black" points="845.5,-500.03 842,-490.03 838.5,-500.03 845.5,-500.03"/>
</g>
<!-- 20 -->
<g id="node22" class="node">
<title>20</title>
<ellipse fill="none" stroke="black" cx="1632" cy="-545" rx="50.09" ry="18"/>
<text text-anchor="middle" x="1632" y="-541.3" font-family="Times,serif" font-size="14.00">V565 (a)</text>
</g>
<!-- 22 -->
<g id="node24" class="node">
<title>22</title>
<ellipse fill="none" stroke="black" cx="445" cy="-180" rx="50.09" ry="18"/>
<text text-anchor="middle" x="445" y="-176.3" font-family="Times,serif" font-size="14.00">Marc (b)</text>
</g>
<!-- 22&#45;&gt;9 -->
<g id="edge9" class="edge">
<title>22&#45;&gt;9</title>
<path fill="none" stroke="black" stroke-dasharray="1,5" d="M445,-161.81C445,-153.79 445,-144.05 445,-135.07"/>
<polygon fill="black" stroke="black" points="448.5,-135.03 445,-125.03 441.5,-135.03 448.5,-135.03"/>
</g>
<!-- 24 -->
<g id="node26" class="node">
<title>24</title>
<ellipse fill="none" stroke="black" cx="1169" cy="-545" rx="55.49" ry="18"/>
<text text-anchor="middle" x="1169" y="-541.3" font-family="Times,serif" font-size="14.00">V1920 (c)</text>
</g>
<!-- 42 -->
<g id="node44" class="node">
<title>42</title>
<ellipse fill="none" stroke="black" cx="1052" cy="-545" rx="44.39" ry="18"/>
<text text-anchor="middle" x="1052" y="-541.3" font-family="Times,serif" font-size="14.00">B39 (a)</text>
</g>
<!-- 25&#45;&gt;42 -->
<g id="edge42" class="edge">
<title>25&#45;&gt;42</title>
<path fill="none" stroke="black" stroke-dasharray="5,2" d="M1061.46,-609.82C1059.88,-599.19 1057.82,-585.31 1056.03,-573.2"/>
<polygon fill="black" stroke="black" points="1059.47,-572.53 1054.54,-563.15 1052.54,-573.56 1059.47,-572.53"/>
</g>
<!-- 35 -->
<g id="node37" class="node">
<title>35</title>
<ellipse fill="none" stroke="black" cx="445" cy="-326" rx="50.09" ry="18"/>
<text text-anchor="middle" x="445" y="-322.3" font-family="Times,serif" font-size="14.00">V568 (b)</text>
</g>
<!-- 26&#45;&gt;35 -->
<g id="edge35" class="edge">
<title>26&#45;&gt;35</title>
<path fill="none" stroke="black" stroke-dasharray="1,5" d="M445,-380.81C445,-372.79 445,-363.05 445,-354.07"/>
<polygon fill="black" stroke="black" points="448.5,-354.03 445,-344.03 441.5,-354.03 448.5,-354.03"/>
</g>
<!-- 27 -->
<g id="node29" class="node">
<title>27</title>
<ellipse fill="none" stroke="black" cx="445" cy="-253" rx="47.39" ry="18"/>
<text text-anchor="middle" x="445" y="-249.3" font-family="Times,serif" font-size="14.00">Taur (b)</text>
</g>
<!-- 27&#45;&gt;6 -->
<g id="edge6" class="edge">
<title>27&#45;&gt;6</title>
<path fill="none" stroke="blue" stroke-dasharray="5,2" d="M421.04,-237.46C403.73,-226.95 380.12,-212.63 361.02,-201.04"/>
<polygon fill="blue" stroke="blue" points="362.69,-197.96 352.33,-195.76 359.06,-203.94 362.69,-197.96"/>
</g>
<!-- 27&#45;&gt;22 -->
<g id="edge22" class="edge">
<title>27&#45;&gt;22</title>
<path fill="none" stroke="black" stroke-dasharray="1,5" d="M445,-234.81C445,-226.79 445,-217.05 445,-208.07"/>
<polygon fill="black" stroke="black" points="448.5,-208.03 445,-198.03 441.5,-208.03 448.5,-208.03"/>
</g>
<!-- 39 -->
<g id="node41" class="node">
<title>39</title>
<ellipse fill="none" stroke="black" cx="566" cy="-180" rx="53.09" ry="18"/>
<text text-anchor="middle" x="566" y="-176.3" font-family="Times,serif" font-size="14.00">M118 (b)</text>
</g>
<!-- 27&#45;&gt;39 -->
<g id="edge39" class="edge">
<title>27&#45;&gt;39</title>
<path fill="none" stroke="black" stroke-dasharray="5,2" d="M469.78,-237.46C487.65,-226.98 511.99,-212.69 531.72,-201.11"/>
<polygon fill="black" stroke="black" points="533.57,-204.09 540.42,-196.01 530.02,-198.05 533.57,-204.09"/>
</g>
<!-- 28 -->
<g id="node30" class="node">
<title>28</title>
<ellipse fill="none" stroke="black" cx="606" cy="-472" rx="42.49" ry="18"/>
<text text-anchor="middle" x="606" y="-468.3" font-family="Times,serif" font-size="14.00">Est (b)</text>
</g>
<!-- 29&#45;&gt;24 -->
<g id="edge24" class="edge">
<title>29&#45;&gt;24</title>
<path fill="none" stroke="black" stroke-dasharray="5,2" d="M1180.82,-609.82C1178.85,-599.19 1176.28,-585.31 1174.04,-573.2"/>
<polygon fill="black" stroke="black" points="1177.44,-572.35 1172.18,-563.15 1170.56,-573.62 1177.44,-572.35"/>
</g>
<!-- 30&#45;&gt;5 -->
<g id="edge5" class="edge">
<title>30&#45;&gt;5</title>
<path fill="none" stroke="black" stroke-dasharray="1,5" d="M381,-526.81C381,-518.79 381,-509.05 381,-500.07"/>
<polygon fill="black" stroke="black" points="384.5,-500.03 381,-490.03 377.5,-500.03 384.5,-500.03"/>
</g>
<!-- 31 -->
<g id="node33" class="node">
<title>31</title>
<ellipse fill="none" stroke="black" cx="1747" cy="-545" rx="46.59" ry="18"/>
<text text-anchor="middle" x="1747" y="-541.3" font-family="Times,serif" font-size="14.00">Bodl (a)</text>
</g>
<!-- 33 -->
<g id="node35" class="node">
<title>33</title>
<ellipse fill="none" stroke="gray" stroke-dasharray="5,2" cx="566" cy="-107" rx="28.7" ry="18"/>
<text text-anchor="middle" x="566" y="-103.3" font-family="Times,serif" font-size="14.00">P18</text>
</g>
<!-- 34 -->
<g id="node36" class="node">
<title>34</title>
<ellipse fill="none" stroke="black" cx="1864" cy="-472" rx="50.09" ry="18"/>
<text text-anchor="middle" x="1864" y="-468.3" font-family="Times,serif" font-size="14.00">A336 (a)</text>
</g>
<!-- 35&#45;&gt;27 -->
<g id="edge27" class="edge">
<title>35&#45;&gt;27</title>
<path fill="none" stroke="black" stroke-dasharray="1,5" d="M445,-307.81C445,-299.79 445,-290.05 445,-281.07"/>
<polygon fill="black" stroke="black" points="448.5,-281.03 445,-271.03 441.5,-281.03 448.5,-281.03"/>
</g>
<!-- 37&#45;&gt;8 -->
<g id="edge8" class="edge">
<title>37&#45;&gt;8</title>
<path fill="none" stroke="black" d="M505.03,-526.81C504.58,-518.79 504.03,-509.05 503.53,-500.07"/>
<polygon fill="black" stroke="black" points="507.02,-499.82 502.96,-490.03 500.03,-500.21 507.02,-499.82"/>
</g>
<!-- 37&#45;&gt;28 -->
<g id="edge28" class="edge">
<title>37&#45;&gt;28</title>
<path fill="none" stroke="black" stroke-dasharray="1,5" d="M528.19,-528.24C542.56,-518.04 561.43,-504.65 576.98,-493.6"/>
<polygon fill="black" stroke="black" points="579.11,-496.39 585.23,-487.74 575.05,-490.68 579.11,-496.39"/>
</g>
<!-- 38&#45;&gt;4 -->
<g id="edge4" class="edge">
<title>38&#45;&gt;4</title>
<path fill="none" stroke="blue" stroke-dasharray="1,5" d="M1534.35,-616.98C1487.83,-604.79 1407.43,-583.32 1339,-563 1335.7,-562.02 1332.3,-560.99 1328.88,-559.93"/>
<polygon fill="blue" stroke="blue" points="1329.88,-556.57 1319.29,-556.92 1327.79,-563.25 1329.88,-556.57"/>
</g>
<!-- 38&#45;&gt;13 -->
<g id="edge13" class="edge">
<title>38&#45;&gt;13</title>
<path fill="none" stroke="black" stroke-dasharray="1,5" d="M1543.54,-613.44C1513.88,-599.79 1467.99,-578.67 1435.47,-563.71"/>
<polygon fill="black" stroke="black" points="1436.81,-560.47 1426.26,-559.47 1433.88,-566.83 1436.81,-560.47"/>
</g>
<!-- 38&#45;&gt;16 -->
<g id="edge16" class="edge">
<title>38&#45;&gt;16</title>
<path fill="none" stroke="black" stroke-dasharray="1,5" d="M1560.78,-610.22C1552.49,-598.85 1541.41,-583.63 1532.1,-570.86"/>
<polygon fill="black" stroke="black" points="1534.72,-568.51 1526.01,-562.48 1529.07,-572.63 1534.72,-568.51"/>
</g>
<!-- 38&#45;&gt;20 -->
<g id="edge20" class="edge">
<title>38&#45;&gt;20</title>
<path fill="none" stroke="black" stroke-dasharray="5,2" d="M1585.22,-610.22C1593.51,-598.85 1604.59,-583.63 1613.9,-570.86"/>
<polygon fill="black" stroke="black" points="1616.93,-572.63 1619.99,-562.48 1611.28,-568.51 1616.93,-572.63"/>
</g>
<!-- 38&#45;&gt;31 -->
<g id="edge31" class="edge">
<title>38&#45;&gt;31</title>
<path fill="none" stroke="black" stroke-dasharray="5,2" d="M1602.12,-613.44C1631.53,-599.75 1677.09,-578.54 1709.26,-563.57"/>
<polygon fill="black" stroke="black" points="1710.77,-566.73 1718.36,-559.33 1707.82,-560.38 1710.77,-566.73"/>
</g>
<!-- 40 -->
<g id="node42" class="node">
<title>40</title>
<ellipse fill="none" stroke="black" cx="1864" cy="-545" rx="52.79" ry="18"/>
<text text-anchor="middle" x="1864" y="-541.3" font-family="Times,serif" font-size="14.00">M111 (a)</text>
</g>
<!-- 38&#45;&gt;40 -->
<g id="edge40" class="edge">
<title>38&#45;&gt;40</title>
<path fill="none" stroke="black" stroke-dasharray="1,5" d="M1610.85,-616.47C1656.43,-603.79 1735.32,-581.85 1803,-563 1806.82,-561.94 1810.78,-560.83 1814.76,-559.72"/>
<polygon fill="black" stroke="black" points="1815.93,-563.03 1824.62,-556.98 1814.05,-556.29 1815.93,-563.03"/>
</g>
<!-- 41 -->
<g id="node43" class="node">
<title>41</title>
<ellipse fill="none" stroke="black" cx="1985" cy="-545" rx="50.09" ry="18"/>
<text text-anchor="middle" x="1985" y="-541.3" font-family="Times,serif" font-size="14.00">A116 (a)</text>
</g>
<!-- 38&#45;&gt;41 -->
<g id="edge41" class="edge">
<title>38&#45;&gt;41</title>
<path fill="none" stroke="black" stroke-dasharray="5,2" d="M1617.32,-620.44C1684.5,-610.17 1815.93,-588.77 1926,-563 1930.03,-562.06 1934.19,-561.01 1938.36,-559.91"/>
<polygon fill="black" stroke="black" points="1939.28,-563.28 1948.01,-557.28 1937.44,-556.53 1939.28,-563.28"/>
</g>
<!-- 39&#45;&gt;33 -->
<g id="edge33" class="edge">
<title>39&#45;&gt;33</title>
<path fill="none" stroke="gray" stroke-dasharray="5,2" d="M566,-161.81C566,-153.79 566,-144.05 566,-135.07"/>
<polygon fill="gray" stroke="gray" points="569.5,-135.03 566,-125.03 562.5,-135.03 569.5,-135.03"/>
</g>
<!-- 40&#45;&gt;34 -->
<g id="edge34" class="edge">
<title>40&#45;&gt;34</title>
<path fill="none" stroke="black" stroke-dasharray="5,2" d="M1864,-526.81C1864,-518.79 1864,-509.05 1864,-500.07"/>
<polygon fill="black" stroke="black" points="1867.5,-500.03 1864,-490.03 1860.5,-500.03 1867.5,-500.03"/>
</g>
</g>
</svg>
