<?xml version="1.0" encoding="UTF-8" standalone="no"?>
<!DOCTYPE svg PUBLIC "-//W3C//DTD SVG 1.1//EN"
 "http://www.w3.org/Graphics/SVG/1.1/DTD/svg11.dtd">
<!-- Generated by graphviz version 2.43.0 (0)
 -->
<!-- Title: textual_flow Pages: 1 -->
<svg width="2071pt" height="672pt"
 viewBox="0.00 0.00 2071.00 672.00" xmlns="http://www.w3.org/2000/svg" xmlns:xlink="http://www.w3.org/1999/xlink">
<g id="graph0" class="graph" transform="scale(1 1) rotate(0) translate(4 668)">
<title>textual_flow</title>
<polygon fill="white" stroke="transparent" points="-4,4 -4,-668 2067,-668 2067,4 -4,4"/>
<g id="clust1" class="cluster">
<title>cluster_legend</title>
<polygon fill="none" stroke="black" points="8,-602 8,-656 186,-656 186,-602 8,-602"/>
</g>
<g id="clust2" class="cluster">
<title>cluster_plot</title>
</g>
<!-- label -->
<g id="node1" class="node">
<title>label</title>
<text text-anchor="middle" x="97" y="-632.8" font-family="Times,serif" font-size="14.00">adstag1.3.72U30&#45;36</text>
<text text-anchor="middle" x="97" y="-617.8" font-family="Times,serif" font-size="14.00">Con = 5</text>
</g>
<!-- 0 -->
<g id="node2" class="node">
<title>0</title>
<ellipse fill="none" stroke="black" cx="487" cy="-555" rx="50.09" ry="18"/>
<text text-anchor="middle" x="487" y="-551.3" font-family="Times,serif" font-size="14.00">Neap (a)</text>
</g>
<!-- 19 -->
<g id="node21" class="node">
<title>19</title>
<ellipse fill="none" stroke="black" cx="258" cy="-482" rx="55.79" ry="18"/>
<text text-anchor="middle" x="258" y="-478.3" font-family="Times,serif" font-size="14.00">V1629 (a)</text>
</g>
<!-- 0&#45;&gt;19 -->
<g id="edge20" class="edge">
<title>0&#45;&gt;19</title>
<path fill="none" stroke="black" stroke-dasharray="1,5" d="M450.46,-542.67C411.45,-530.58 349.45,-511.35 306.4,-498.01"/>
<polygon fill="black" stroke="black" points="307.29,-494.62 296.7,-495 305.22,-501.3 307.29,-494.62"/>
</g>
<!-- 1 -->
<g id="node3" class="node">
<title>1</title>
<ellipse fill="none" stroke="black" cx="723" cy="-555" rx="50.09" ry="18"/>
<text text-anchor="middle" x="723" y="-551.3" font-family="Times,serif" font-size="14.00">Patm (a)</text>
</g>
<!-- 2 -->
<g id="node4" class="node">
<title>2</title>
<ellipse fill="none" stroke="black" cx="285" cy="-326" rx="50.09" ry="18"/>
<text text-anchor="middle" x="285" y="-322.3" font-family="Times,serif" font-size="14.00">V568 (a)</text>
</g>
<!-- 21 -->
<g id="node23" class="node">
<title>21</title>
<ellipse fill="none" stroke="black" cx="311" cy="-253" rx="46.59" ry="18"/>
<text text-anchor="middle" x="311" y="-249.3" font-family="Times,serif" font-size="14.00">Taur (a)</text>
</g>
<!-- 2&#45;&gt;21 -->
<g id="edge21" class="edge">
<title>2&#45;&gt;21</title>
<path fill="none" stroke="black" stroke-dasharray="1,5" d="M291.29,-307.81C294.3,-299.62 297.95,-289.62 301.3,-280.48"/>
<polygon fill="black" stroke="black" points="304.61,-281.62 304.76,-271.03 298.04,-279.22 304.61,-281.62"/>
</g>
<!-- 3 -->
<g id="node5" class="node">
<title>3</title>
<ellipse fill="none" stroke="black" cx="376" cy="-482" rx="44.39" ry="18"/>
<text text-anchor="middle" x="376" y="-478.3" font-family="Times,serif" font-size="14.00">P74 (a)</text>
</g>
<!-- 4 -->
<g id="node6" class="node">
<title>4</title>
<ellipse fill="none" stroke="black" cx="370" cy="-107" rx="46.29" ry="18"/>
<text text-anchor="middle" x="370" y="-103.3" font-family="Times,serif" font-size="14.00">Mon (a)</text>
</g>
<!-- 23 -->
<g id="node25" class="node">
<title>23</title>
<ellipse fill="none" stroke="black" cx="370" cy="-34" rx="40.89" ry="18"/>
<text text-anchor="middle" x="370" y="-30.3" font-family="Times,serif" font-size="14.00">Sin (a)</text>
</g>
<!-- 4&#45;&gt;23 -->
<g id="edge23" class="edge">
<title>4&#45;&gt;23</title>
<path fill="none" stroke="black" stroke-dasharray="1,5" d="M370,-88.81C370,-80.79 370,-71.05 370,-62.07"/>
<polygon fill="black" stroke="black" points="373.5,-62.03 370,-52.03 366.5,-62.03 373.5,-62.03"/>
</g>
<!-- 5 -->
<g id="node7" class="node">
<title>5</title>
<ellipse fill="none" stroke="black" cx="840" cy="-555" rx="48.99" ry="18"/>
<text text-anchor="middle" x="840" y="-551.3" font-family="Times,serif" font-size="14.00">La22 (a)</text>
</g>
<!-- 5&#45;&gt;3 -->
<g id="edge4" class="edge">
<title>5&#45;&gt;3</title>
<path fill="none" stroke="black" stroke-dasharray="1,5" d="M804.67,-542.54C797.24,-540.45 789.41,-538.46 782,-537 627.23,-506.47 583.37,-532.48 429,-500 425.38,-499.24 421.66,-498.33 417.95,-497.32"/>
<polygon fill="black" stroke="black" points="418.81,-493.93 408.23,-494.5 416.86,-500.65 418.81,-493.93"/>
</g>
<!-- 6 -->
<g id="node8" class="node">
<title>6</title>
<ellipse fill="none" stroke="black" cx="488" cy="-482" rx="50.09" ry="18"/>
<text text-anchor="middle" x="488" y="-478.3" font-family="Times,serif" font-size="14.00">V565 (a)</text>
</g>
<!-- 5&#45;&gt;6 -->
<g id="edge7" class="edge">
<title>5&#45;&gt;6</title>
<path fill="none" stroke="black" stroke-dasharray="5,2" d="M803.99,-542.66C796.75,-540.61 789.17,-538.61 782,-537 678.83,-513.86 650.22,-522.9 547,-500 542.9,-499.09 538.67,-498.06 534.44,-496.96"/>
<polygon fill="black" stroke="black" points="535.21,-493.55 524.64,-494.32 533.39,-500.3 535.21,-493.55"/>
</g>
<!-- 9 -->
<g id="node11" class="node">
<title>9</title>
<ellipse fill="none" stroke="black" cx="605" cy="-482" rx="48.99" ry="18"/>
<text text-anchor="middle" x="605" y="-478.3" font-family="Times,serif" font-size="14.00">La35 (a)</text>
</g>
<!-- 5&#45;&gt;9 -->
<g id="edge10" class="edge">
<title>5&#45;&gt;9</title>
<path fill="none" stroke="black" stroke-dasharray="1,5" d="M803.54,-542.98C762.55,-530.6 695.9,-510.46 651.27,-496.98"/>
<polygon fill="black" stroke="black" points="652.13,-493.58 641.55,-494.04 650.11,-500.28 652.13,-493.58"/>
</g>
<!-- 14 -->
<g id="node16" class="node">
<title>14</title>
<ellipse fill="none" stroke="black" cx="722" cy="-482" rx="50.09" ry="18"/>
<text text-anchor="middle" x="722" y="-478.3" font-family="Times,serif" font-size="14.00">V571 (a)</text>
</g>
<!-- 5&#45;&gt;14 -->
<g id="edge15" class="edge">
<title>5&#45;&gt;14</title>
<path fill="none" stroke="black" stroke-dasharray="1,5" d="M815.55,-539.29C798.18,-528.84 774.65,-514.68 755.53,-503.18"/>
<polygon fill="black" stroke="black" points="757.2,-500.09 746.82,-497.94 753.59,-506.09 757.2,-500.09"/>
</g>
<!-- 24 -->
<g id="node26" class="node">
<title>24</title>
<ellipse fill="none" stroke="black" cx="840" cy="-482" rx="50.09" ry="18"/>
<text text-anchor="middle" x="840" y="-478.3" font-family="Times,serif" font-size="14.00">A116 (e)</text>
</g>
<!-- 5&#45;&gt;24 -->
<g id="edge24" class="edge">
<title>5&#45;&gt;24</title>
<path fill="none" stroke="blue" stroke-dasharray="5,2" d="M840,-536.81C840,-528.79 840,-519.05 840,-510.07"/>
<polygon fill="blue" stroke="blue" points="843.5,-510.03 840,-500.03 836.5,-510.03 843.5,-510.03"/>
</g>
<!-- 32 -->
<g id="node34" class="node">
<title>32</title>
<ellipse fill="none" stroke="black" cx="955" cy="-482" rx="46.59" ry="18"/>
<text text-anchor="middle" x="955" y="-478.3" font-family="Times,serif" font-size="14.00">Bodl (a)</text>
</g>
<!-- 5&#45;&gt;32 -->
<g id="edge32" class="edge">
<title>5&#45;&gt;32</title>
<path fill="none" stroke="black" stroke-dasharray="5,2" d="M863.83,-539.29C880.79,-528.82 903.79,-514.62 922.44,-503.1"/>
<polygon fill="black" stroke="black" points="924.53,-505.92 931.2,-497.69 920.85,-499.97 924.53,-505.92"/>
</g>
<!-- 37 -->
<g id="node39" class="node">
<title>37</title>
<ellipse fill="none" stroke="black" cx="1072" cy="-482" rx="52.79" ry="18"/>
<text text-anchor="middle" x="1072" y="-478.3" font-family="Times,serif" font-size="14.00">M111 (a)</text>
</g>
<!-- 5&#45;&gt;37 -->
<g id="edge37" class="edge">
<title>5&#45;&gt;37</title>
<path fill="none" stroke="black" stroke-dasharray="1,5" d="M876.25,-542.91C916.18,-530.69 980.54,-510.99 1024.48,-497.54"/>
<polygon fill="black" stroke="black" points="1025.54,-500.88 1034.08,-494.61 1023.49,-494.18 1025.54,-500.88"/>
</g>
<!-- 7 -->
<g id="node9" class="node">
<title>7</title>
<ellipse fill="none" stroke="black" cx="252" cy="-180" rx="50.09" ry="18"/>
<text text-anchor="middle" x="252" y="-176.3" font-family="Times,serif" font-size="14.00">V569 (a)</text>
</g>
<!-- 8 -->
<g id="node10" class="node">
<title>8</title>
<ellipse fill="none" stroke="black" cx="1793" cy="-399" rx="55.79" ry="18"/>
<text text-anchor="middle" x="1793" y="-395.3" font-family="Times,serif" font-size="14.00">V1639 (a)</text>
</g>
<!-- 10 -->
<g id="node12" class="node">
<title>10</title>
<ellipse fill="none" stroke="black" cx="1054" cy="-555" rx="52.79" ry="18"/>
<text text-anchor="middle" x="1054" y="-551.3" font-family="Times,serif" font-size="14.00">LaSM (a)</text>
</g>
<!-- 25 -->
<g id="node27" class="node">
<title>25</title>
<ellipse fill="none" stroke="black" cx="1187" cy="-482" rx="44.39" ry="18"/>
<text text-anchor="middle" x="1187" y="-478.3" font-family="Times,serif" font-size="14.00">B39 (a)</text>
</g>
<!-- 10&#45;&gt;25 -->
<g id="edge25" class="edge">
<title>10&#45;&gt;25</title>
<path fill="none" stroke="black" stroke-dasharray="5,2" d="M1081.24,-539.46C1101.72,-528.53 1129.94,-513.46 1152.08,-501.64"/>
<polygon fill="black" stroke="black" points="1153.98,-504.59 1161.16,-496.8 1150.69,-498.42 1153.98,-504.59"/>
</g>
<!-- 11 -->
<g id="node13" class="node">
<title>11</title>
<ellipse fill="none" stroke="black" cx="1681" cy="-482" rx="44.39" ry="18"/>
<text text-anchor="middle" x="1681" y="-478.3" font-family="Times,serif" font-size="14.00">S32 (a)</text>
</g>
<!-- 12 -->
<g id="node14" class="node">
<title>12</title>
<ellipse fill="none" stroke="black" cx="1793" cy="-482" rx="50.09" ry="18"/>
<text text-anchor="middle" x="1793" y="-478.3" font-family="Times,serif" font-size="14.00">V566 (a)</text>
</g>
<!-- 12&#45;&gt;8 -->
<g id="edge9" class="edge">
<title>12&#45;&gt;8</title>
<path fill="none" stroke="black" stroke-dasharray="1,5" d="M1793,-463.82C1793,-453.19 1793,-439.31 1793,-427.2"/>
<polygon fill="black" stroke="black" points="1796.5,-427.15 1793,-417.15 1789.5,-427.15 1796.5,-427.15"/>
</g>
<!-- 13 -->
<g id="node15" class="node">
<title>13</title>
<ellipse fill="none" stroke="black" cx="1181" cy="-555" rx="55.79" ry="18"/>
<text text-anchor="middle" x="1181" y="-551.3" font-family="Times,serif" font-size="14.00">V2036 (d)</text>
</g>
<!-- 15 -->
<g id="node17" class="node">
<title>15</title>
<ellipse fill="none" stroke="black" cx="1304" cy="-555" rx="49.29" ry="18"/>
<text text-anchor="middle" x="1304" y="-551.3" font-family="Times,serif" font-size="14.00">V560 (c)</text>
</g>
<!-- 18 -->
<g id="node20" class="node">
<title>18</title>
<ellipse fill="none" stroke="black" cx="1304" cy="-482" rx="55.49" ry="18"/>
<text text-anchor="middle" x="1304" y="-478.3" font-family="Times,serif" font-size="14.00">V1920 (c)</text>
</g>
<!-- 15&#45;&gt;18 -->
<g id="edge19" class="edge">
<title>15&#45;&gt;18</title>
<path fill="none" stroke="black" stroke-dasharray="5,2" d="M1304,-536.81C1304,-528.79 1304,-519.05 1304,-510.07"/>
<polygon fill="black" stroke="black" points="1307.5,-510.03 1304,-500.03 1300.5,-510.03 1307.5,-510.03"/>
</g>
<!-- 16 -->
<g id="node18" class="node">
<title>16</title>
<ellipse fill="none" stroke="black" cx="1423" cy="-555" rx="51.99" ry="18"/>
<text text-anchor="middle" x="1423" y="-551.3" font-family="Times,serif" font-size="14.00">M136 (c)</text>
</g>
<!-- 17 -->
<g id="node19" class="node">
<title>17</title>
<ellipse fill="none" stroke="black" cx="1905" cy="-482" rx="44.39" ry="18"/>
<text text-anchor="middle" x="1905" y="-478.3" font-family="Times,serif" font-size="14.00">P01 (a)</text>
</g>
<!-- 34 -->
<g id="node36" class="node">
<title>34</title>
<ellipse fill="none" stroke="black" cx="258" cy="-399" rx="50.09" ry="18"/>
<text text-anchor="middle" x="258" y="-395.3" font-family="Times,serif" font-size="14.00">V536 (a)</text>
</g>
<!-- 19&#45;&gt;34 -->
<g id="edge34" class="edge">
<title>19&#45;&gt;34</title>
<path fill="none" stroke="black" stroke-dasharray="5,2" d="M258,-463.82C258,-453.19 258,-439.31 258,-427.2"/>
<polygon fill="black" stroke="black" points="261.5,-427.15 258,-417.15 254.5,-427.15 261.5,-427.15"/>
</g>
<!-- 36 -->
<g id="node38" class="node">
<title>36</title>
<ellipse fill="none" stroke="gray" stroke-dasharray="5,2" cx="362" cy="-399" rx="36" ry="18"/>
<text text-anchor="middle" x="362" y="-395.3" font-family="Times,serif" font-size="14.00">La2&#45;c</text>
</g>
<!-- 19&#45;&gt;36 -->
<g id="edge36" class="edge">
<title>19&#45;&gt;36</title>
<path fill="none" stroke="gray" stroke-width="2" d="M278.55,-465C294.72,-452.4 317.41,-434.73 335.04,-421"/>
<polygon fill="gray" stroke="gray" stroke-width="2" points="337.5,-423.51 343.24,-414.61 333.2,-417.99 337.5,-423.51"/>
</g>
<!-- 20 -->
<g id="node22" class="node">
<title>20</title>
<ellipse fill="none" stroke="black" cx="1363" cy="-629" rx="53.89" ry="18"/>
<text text-anchor="middle" x="1363" y="-625.3" font-family="Times,serif" font-size="14.00">aBase (a)</text>
</g>
<!-- 20&#45;&gt;0 -->
<g id="edge1" class="edge">
<title>20&#45;&gt;0</title>
<path fill="none" stroke="black" stroke-width="2" d="M1310.79,-624.28C1194.55,-615.92 905.58,-594.67 664,-573 624.29,-569.44 579.6,-565.14 545.07,-561.76"/>
<polygon fill="black" stroke="black" stroke-width="2" points="544.98,-558.24 534.69,-560.74 544.3,-565.2 544.98,-558.24"/>
</g>
<!-- 20&#45;&gt;1 -->
<g id="edge2" class="edge">
<title>20&#45;&gt;1</title>
<path fill="none" stroke="black" d="M1309.66,-626.27C1206.78,-622.2 974.12,-609.44 782,-573 777.82,-572.21 773.5,-571.25 769.2,-570.19"/>
<polygon fill="black" stroke="black" points="769.81,-566.73 759.25,-567.59 768.04,-573.51 769.81,-566.73"/>
</g>
<!-- 20&#45;&gt;5 -->
<g id="edge6" class="edge">
<title>20&#45;&gt;5</title>
<path fill="none" stroke="black" stroke-dasharray="5,2" d="M1313.8,-621.23C1215.95,-607.76 997.57,-577.69 895.09,-563.58"/>
<polygon fill="black" stroke="black" points="895.34,-560.09 884.95,-562.19 894.38,-567.02 895.34,-560.09"/>
</g>
<!-- 20&#45;&gt;10 -->
<g id="edge11" class="edge">
<title>20&#45;&gt;10</title>
<path fill="none" stroke="black" d="M1318.23,-618.71C1268.62,-608.27 1186.35,-590.47 1116,-573 1111.86,-571.97 1107.57,-570.87 1103.27,-569.74"/>
<polygon fill="black" stroke="black" points="1103.85,-566.27 1093.28,-567.08 1102.04,-573.04 1103.85,-566.27"/>
</g>
<!-- 20&#45;&gt;13 -->
<g id="edge14" class="edge">
<title>20&#45;&gt;13</title>
<path fill="none" stroke="blue" d="M1329.62,-614.79C1300.04,-603.09 1256.68,-585.94 1224.41,-573.18"/>
<polygon fill="blue" stroke="blue" points="1225.37,-569.79 1214.79,-569.37 1222.8,-576.3 1225.37,-569.79"/>
</g>
<!-- 20&#45;&gt;15 -->
<g id="edge16" class="edge">
<title>20&#45;&gt;15</title>
<path fill="none" stroke="blue" stroke-width="2" d="M1349.32,-611.3C1341.79,-602.12 1332.33,-590.57 1323.99,-580.4"/>
<polygon fill="blue" stroke="blue" stroke-width="2" points="1326.66,-578.13 1317.61,-572.61 1321.24,-582.56 1326.66,-578.13"/>
</g>
<!-- 20&#45;&gt;16 -->
<g id="edge17" class="edge">
<title>20&#45;&gt;16</title>
<path fill="none" stroke="blue" stroke-width="2" d="M1376.92,-611.3C1384.56,-602.12 1394.19,-590.57 1402.67,-580.4"/>
<polygon fill="blue" stroke="blue" stroke-width="2" points="1405.45,-582.53 1409.16,-572.61 1400.07,-578.05 1405.45,-582.53"/>
</g>
<!-- 22 -->
<g id="node24" class="node">
<title>22</title>
<ellipse fill="none" stroke="black" cx="1538" cy="-555" rx="44.69" ry="18"/>
<text text-anchor="middle" x="1538" y="-551.3" font-family="Times,serif" font-size="14.00">Nan (a)</text>
</g>
<!-- 20&#45;&gt;22 -->
<g id="edge22" class="edge">
<title>20&#45;&gt;22</title>
<path fill="none" stroke="black" d="M1395.51,-614.63C1424.49,-602.7 1467.02,-585.2 1498.07,-572.43"/>
<polygon fill="black" stroke="black" points="1499.8,-575.5 1507.72,-568.46 1497.14,-569.03 1499.8,-575.5"/>
</g>
<!-- 29 -->
<g id="node31" class="node">
<title>29</title>
<ellipse fill="none" stroke="black" cx="1644" cy="-555" rx="42.79" ry="18"/>
<text text-anchor="middle" x="1644" y="-551.3" font-family="Times,serif" font-size="14.00">La2 (a)</text>
</g>
<!-- 20&#45;&gt;29 -->
<g id="edge29" class="edge">
<title>20&#45;&gt;29</title>
<path fill="none" stroke="black" stroke-width="2" d="M1407.17,-618.5C1453.49,-608.27 1528.27,-591.04 1592,-573 1595.3,-572.07 1598.7,-571.06 1602.11,-570.01"/>
<polygon fill="black" stroke="black" stroke-width="2" points="1603.18,-573.35 1611.67,-567.01 1601.08,-566.67 1603.18,-573.35"/>
</g>
<!-- 33 -->
<g id="node35" class="node">
<title>33</title>
<ellipse fill="none" stroke="black" cx="1749" cy="-555" rx="44.39" ry="18"/>
<text text-anchor="middle" x="1749" y="-551.3" font-family="Times,serif" font-size="14.00">A25 (a)</text>
</g>
<!-- 20&#45;&gt;33 -->
<g id="edge33" class="edge">
<title>20&#45;&gt;33</title>
<path fill="none" stroke="black" stroke-dasharray="5,2" d="M1412.82,-622.09C1478.33,-613.79 1596.75,-596.98 1696,-573 1699.44,-572.17 1702.98,-571.23 1706.52,-570.23"/>
<polygon fill="black" stroke="black" points="1707.83,-573.49 1716.42,-567.28 1705.83,-566.78 1707.83,-573.49"/>
</g>
<!-- 38 -->
<g id="node40" class="node">
<title>38</title>
<ellipse fill="none" stroke="gray" stroke-dasharray="5,2" cx="1861" cy="-555" rx="50.09" ry="18"/>
<text text-anchor="middle" x="1861" y="-551.3" font-family="Times,serif" font-size="14.00">Savile&#45;Η</text>
</g>
<!-- 20&#45;&gt;38 -->
<g id="edge38" class="edge">
<title>20&#45;&gt;38</title>
<path fill="none" stroke="gray" stroke-width="2" d="M1415.13,-624.12C1497.79,-617.37 1663.75,-601.4 1802,-573 1806.17,-572.14 1810.48,-571.14 1814.77,-570.06"/>
<polygon fill="gray" stroke="gray" stroke-width="2" points="1815.95,-573.37 1824.71,-567.42 1814.15,-566.6 1815.95,-573.37"/>
</g>
<!-- 42 -->
<g id="node44" class="node">
<title>42</title>
<ellipse fill="none" stroke="black" cx="1979" cy="-555" rx="50.09" ry="18"/>
<text text-anchor="middle" x="1979" y="-551.3" font-family="Times,serif" font-size="14.00">S249 (a)</text>
</g>
<!-- 20&#45;&gt;42 -->
<g id="edge42" class="edge">
<title>20&#45;&gt;42</title>
<path fill="none" stroke="black" d="M1416.45,-625.96C1516.23,-621.44 1737.25,-608.05 1920,-573 1924.18,-572.2 1928.49,-571.23 1932.79,-570.17"/>
<polygon fill="black" stroke="black" points="1933.96,-573.49 1942.74,-567.57 1932.18,-566.72 1933.96,-573.49"/>
</g>
<!-- 21&#45;&gt;7 -->
<g id="edge8" class="edge">
<title>21&#45;&gt;7</title>
<path fill="none" stroke="black" stroke-dasharray="5,2" d="M297.32,-235.53C289.87,-226.57 280.51,-215.31 272.24,-205.36"/>
<polygon fill="black" stroke="black" points="274.69,-202.83 265.61,-197.38 269.31,-207.31 274.69,-202.83"/>
</g>
<!-- 30 -->
<g id="node32" class="node">
<title>30</title>
<ellipse fill="none" stroke="black" cx="370" cy="-180" rx="50.09" ry="18"/>
<text text-anchor="middle" x="370" y="-176.3" font-family="Times,serif" font-size="14.00">Marc (a)</text>
</g>
<!-- 21&#45;&gt;30 -->
<g id="edge30" class="edge">
<title>21&#45;&gt;30</title>
<path fill="none" stroke="black" stroke-dasharray="1,5" d="M324.68,-235.53C332.13,-226.57 341.49,-215.31 349.76,-205.36"/>
<polygon fill="black" stroke="black" points="352.69,-207.31 356.39,-197.38 347.31,-202.83 352.69,-207.31"/>
</g>
<!-- 39 -->
<g id="node41" class="node">
<title>39</title>
<ellipse fill="none" stroke="black" cx="491" cy="-180" rx="52.79" ry="18"/>
<text text-anchor="middle" x="491" y="-176.3" font-family="Times,serif" font-size="14.00">M118 (a)</text>
</g>
<!-- 21&#45;&gt;39 -->
<g id="edge39" class="edge">
<title>21&#45;&gt;39</title>
<path fill="none" stroke="black" stroke-dasharray="5,2" d="M342.35,-239.63C371.66,-228.07 415.65,-210.72 448.18,-197.89"/>
<polygon fill="black" stroke="black" points="449.86,-200.99 457.87,-194.07 447.29,-194.48 449.86,-200.99"/>
</g>
<!-- 26 -->
<g id="node28" class="node">
<title>26</title>
<ellipse fill="none" stroke="black" cx="1433" cy="-482" rx="55.79" ry="18"/>
<text text-anchor="middle" x="1433" y="-478.3" font-family="Times,serif" font-size="14.00">V1897 (a)</text>
</g>
<!-- 22&#45;&gt;26 -->
<g id="edge26" class="edge">
<title>22&#45;&gt;26</title>
<path fill="none" stroke="black" stroke-dasharray="1,5" d="M1515.99,-539.12C1501.04,-529 1481.03,-515.48 1464.41,-504.24"/>
<polygon fill="black" stroke="black" points="1466.32,-501.3 1456.07,-498.6 1462.4,-507.1 1466.32,-501.3"/>
</g>
<!-- 27 -->
<g id="node29" class="node">
<title>27</title>
<ellipse fill="none" stroke="black" cx="1563" cy="-482" rx="55.79" ry="18"/>
<text text-anchor="middle" x="1563" y="-478.3" font-family="Times,serif" font-size="14.00">V2250 (b)</text>
</g>
<!-- 22&#45;&gt;27 -->
<g id="edge27" class="edge">
<title>22&#45;&gt;27</title>
<path fill="none" stroke="blue" stroke-dasharray="5,2" d="M1544.05,-536.81C1546.94,-528.62 1550.46,-518.62 1553.67,-509.48"/>
<polygon fill="blue" stroke="blue" points="1556.98,-510.62 1557,-500.03 1550.38,-508.3 1556.98,-510.62"/>
</g>
<!-- 35 -->
<g id="node37" class="node">
<title>35</title>
<ellipse fill="none" stroke="black" cx="1433" cy="-399" rx="42.49" ry="18"/>
<text text-anchor="middle" x="1433" y="-395.3" font-family="Times,serif" font-size="14.00">Est (d)</text>
</g>
<!-- 26&#45;&gt;35 -->
<g id="edge35" class="edge">
<title>26&#45;&gt;35</title>
<path fill="none" stroke="blue" stroke-dasharray="1,5" d="M1433,-463.82C1433,-453.19 1433,-439.31 1433,-427.2"/>
<polygon fill="blue" stroke="blue" points="1436.5,-427.15 1433,-417.15 1429.5,-427.15 1436.5,-427.15"/>
</g>
<!-- 40 -->
<g id="node42" class="node">
<title>40</title>
<ellipse fill="none" stroke="black" cx="1563" cy="-399" rx="43.59" ry="18"/>
<text text-anchor="middle" x="1563" y="-395.3" font-family="Times,serif" font-size="14.00">Bas (b)</text>
</g>
<!-- 27&#45;&gt;40 -->
<g id="edge40" class="edge">
<title>27&#45;&gt;40</title>
<path fill="none" stroke="black" stroke-dasharray="5,2" d="M1563,-463.82C1563,-453.19 1563,-439.31 1563,-427.2"/>
<polygon fill="black" stroke="black" points="1566.5,-427.15 1563,-417.15 1559.5,-427.15 1566.5,-427.15"/>
<text text-anchor="middle" x="1566.5" y="-438" font-family="Times,serif" font-size="10.00">5</text>
</g>
<!-- 28 -->
<g id="node30" class="node">
<title>28</title>
<ellipse fill="none" stroke="gray" stroke-dasharray="5,2" cx="491" cy="-107" rx="28.7" ry="18"/>
<text text-anchor="middle" x="491" y="-103.3" font-family="Times,serif" font-size="14.00">P18</text>
</g>
<!-- 30&#45;&gt;4 -->
<g id="edge5" class="edge">
<title>30&#45;&gt;4</title>
<path fill="none" stroke="black" stroke-dasharray="1,5" d="M370,-161.81C370,-153.79 370,-144.05 370,-135.07"/>
<polygon fill="black" stroke="black" points="373.5,-135.03 370,-125.03 366.5,-135.03 373.5,-135.03"/>
</g>
<!-- 31 -->
<g id="node33" class="node">
<title>31</title>
<ellipse fill="none" stroke="black" cx="2007" cy="-482" rx="40.09" ry="18"/>
<text text-anchor="middle" x="2007" y="-478.3" font-family="Times,serif" font-size="14.00">Pal (a)</text>
</g>
<!-- 33&#45;&gt;11 -->
<g id="edge12" class="edge">
<title>33&#45;&gt;11</title>
<path fill="none" stroke="black" stroke-dasharray="5,2" d="M1733.57,-537.89C1724.7,-528.63 1713.4,-516.83 1703.55,-506.55"/>
<polygon fill="black" stroke="black" points="1705.81,-503.85 1696.37,-499.05 1700.76,-508.69 1705.81,-503.85"/>
</g>
<!-- 33&#45;&gt;12 -->
<g id="edge13" class="edge">
<title>33&#45;&gt;12</title>
<path fill="none" stroke="black" stroke-dasharray="5,2" d="M1759.43,-537.17C1764.74,-528.6 1771.32,-517.99 1777.24,-508.44"/>
<polygon fill="black" stroke="black" points="1780.35,-510.05 1782.65,-499.71 1774.4,-506.36 1780.35,-510.05"/>
</g>
<!-- 33&#45;&gt;17 -->
<g id="edge18" class="edge">
<title>33&#45;&gt;17</title>
<path fill="none" stroke="black" stroke-dasharray="5,2" d="M1777.25,-541.14C1802.46,-529.67 1839.58,-512.78 1867.31,-500.15"/>
<polygon fill="black" stroke="black" points="1869.04,-503.21 1876.7,-495.88 1866.15,-496.84 1869.04,-503.21"/>
</g>
<!-- 33&#45;&gt;31 -->
<g id="edge31" class="edge">
<title>33&#45;&gt;31</title>
<path fill="none" stroke="black" stroke-dasharray="5,2" d="M1781.96,-542.99C1788.57,-540.91 1795.48,-538.81 1802,-537 1870.64,-517.88 1889.59,-519.93 1958,-500 1960.97,-499.13 1964.03,-498.19 1967.1,-497.22"/>
<polygon fill="black" stroke="black" points="1968.43,-500.46 1976.83,-494 1966.24,-493.81 1968.43,-500.46"/>
</g>
<!-- 34&#45;&gt;2 -->
<g id="edge3" class="edge">
<title>34&#45;&gt;2</title>
<path fill="none" stroke="black" stroke-dasharray="1,5" d="M264.54,-380.81C267.65,-372.62 271.45,-362.62 274.93,-353.48"/>
<polygon fill="black" stroke="black" points="278.24,-354.62 278.52,-344.03 271.7,-352.13 278.24,-354.62"/>
</g>
<!-- 41 -->
<g id="node43" class="node">
<title>41</title>
<ellipse fill="none" stroke="black" cx="1072" cy="-399" rx="50.09" ry="18"/>
<text text-anchor="middle" x="1072" y="-395.3" font-family="Times,serif" font-size="14.00">A336 (a)</text>
</g>
<!-- 37&#45;&gt;41 -->
<g id="edge41" class="edge">
<title>37&#45;&gt;41</title>
<path fill="none" stroke="black" stroke-dasharray="5,2" d="M1072,-463.82C1072,-453.19 1072,-439.31 1072,-427.2"/>
<polygon fill="black" stroke="black" points="1075.5,-427.15 1072,-417.15 1068.5,-427.15 1075.5,-427.15"/>
</g>
<!-- 39&#45;&gt;28 -->
<g id="edge28" class="edge">
<title>39&#45;&gt;28</title>
<path fill="none" stroke="gray" stroke-dasharray="5,2" d="M491,-161.81C491,-153.79 491,-144.05 491,-135.07"/>
<polygon fill="gray" stroke="gray" points="494.5,-135.03 491,-125.03 487.5,-135.03 494.5,-135.03"/>
</g>
</g>
</svg>
