<?xml version="1.0" encoding="UTF-8" standalone="no"?>
<!DOCTYPE svg PUBLIC "-//W3C//DTD SVG 1.1//EN"
 "http://www.w3.org/Graphics/SVG/1.1/DTD/svg11.dtd">
<!-- Generated by graphviz version 2.43.0 (0)
 -->
<!-- Title: textual_flow Pages: 1 -->
<svg width="2063pt" height="672pt"
 viewBox="0.00 0.00 2063.00 672.00" xmlns="http://www.w3.org/2000/svg" xmlns:xlink="http://www.w3.org/1999/xlink">
<g id="graph0" class="graph" transform="scale(1 1) rotate(0) translate(4 668)">
<title>textual_flow</title>
<polygon fill="white" stroke="transparent" points="-4,4 -4,-668 2059,-668 2059,4 -4,4"/>
<g id="clust1" class="cluster">
<title>cluster_legend</title>
<polygon fill="none" stroke="black" points="8,-602 8,-656 178,-656 178,-602 8,-602"/>
</g>
<g id="clust2" class="cluster">
<title>cluster_plot</title>
</g>
<!-- label -->
<g id="node1" class="node">
<title>label</title>
<text text-anchor="middle" x="93" y="-632.8" font-family="Times,serif" font-size="14.00">adstag1.3.62U8&#45;16</text>
<text text-anchor="middle" x="93" y="-617.8" font-family="Times,serif" font-size="14.00">Con = 5</text>
</g>
<!-- 0 -->
<g id="node2" class="node">
<title>0</title>
<ellipse fill="none" stroke="black" cx="479" cy="-555" rx="50.09" ry="18"/>
<text text-anchor="middle" x="479" y="-551.3" font-family="Times,serif" font-size="14.00">Neap (a)</text>
</g>
<!-- 19 -->
<g id="node21" class="node">
<title>19</title>
<ellipse fill="none" stroke="black" cx="250" cy="-482" rx="55.79" ry="18"/>
<text text-anchor="middle" x="250" y="-478.3" font-family="Times,serif" font-size="14.00">V1629 (a)</text>
</g>
<!-- 0&#45;&gt;19 -->
<g id="edge20" class="edge">
<title>0&#45;&gt;19</title>
<path fill="none" stroke="black" stroke-dasharray="1,5" d="M442.46,-542.67C403.45,-530.58 341.45,-511.35 298.4,-498.01"/>
<polygon fill="black" stroke="black" points="299.29,-494.62 288.7,-495 297.22,-501.3 299.29,-494.62"/>
</g>
<!-- 1 -->
<g id="node3" class="node">
<title>1</title>
<ellipse fill="none" stroke="black" cx="715" cy="-555" rx="50.09" ry="18"/>
<text text-anchor="middle" x="715" y="-551.3" font-family="Times,serif" font-size="14.00">Patm (a)</text>
</g>
<!-- 2 -->
<g id="node4" class="node">
<title>2</title>
<ellipse fill="none" stroke="black" cx="277" cy="-326" rx="50.09" ry="18"/>
<text text-anchor="middle" x="277" y="-322.3" font-family="Times,serif" font-size="14.00">V568 (a)</text>
</g>
<!-- 21 -->
<g id="node23" class="node">
<title>21</title>
<ellipse fill="none" stroke="black" cx="303" cy="-253" rx="46.59" ry="18"/>
<text text-anchor="middle" x="303" y="-249.3" font-family="Times,serif" font-size="14.00">Taur (a)</text>
</g>
<!-- 2&#45;&gt;21 -->
<g id="edge21" class="edge">
<title>2&#45;&gt;21</title>
<path fill="none" stroke="black" stroke-dasharray="1,5" d="M283.29,-307.81C286.3,-299.62 289.95,-289.62 293.3,-280.48"/>
<polygon fill="black" stroke="black" points="296.61,-281.62 296.76,-271.03 290.04,-279.22 296.61,-281.62"/>
</g>
<!-- 3 -->
<g id="node5" class="node">
<title>3</title>
<ellipse fill="none" stroke="black" cx="368" cy="-482" rx="44.39" ry="18"/>
<text text-anchor="middle" x="368" y="-478.3" font-family="Times,serif" font-size="14.00">P74 (a)</text>
</g>
<!-- 4 -->
<g id="node6" class="node">
<title>4</title>
<ellipse fill="none" stroke="black" cx="362" cy="-107" rx="46.29" ry="18"/>
<text text-anchor="middle" x="362" y="-103.3" font-family="Times,serif" font-size="14.00">Mon (a)</text>
</g>
<!-- 23 -->
<g id="node25" class="node">
<title>23</title>
<ellipse fill="none" stroke="black" cx="362" cy="-34" rx="40.89" ry="18"/>
<text text-anchor="middle" x="362" y="-30.3" font-family="Times,serif" font-size="14.00">Sin (a)</text>
</g>
<!-- 4&#45;&gt;23 -->
<g id="edge23" class="edge">
<title>4&#45;&gt;23</title>
<path fill="none" stroke="black" stroke-dasharray="1,5" d="M362,-88.81C362,-80.79 362,-71.05 362,-62.07"/>
<polygon fill="black" stroke="black" points="365.5,-62.03 362,-52.03 358.5,-62.03 365.5,-62.03"/>
</g>
<!-- 5 -->
<g id="node7" class="node">
<title>5</title>
<ellipse fill="none" stroke="black" cx="832" cy="-555" rx="48.99" ry="18"/>
<text text-anchor="middle" x="832" y="-551.3" font-family="Times,serif" font-size="14.00">La22 (a)</text>
</g>
<!-- 5&#45;&gt;3 -->
<g id="edge4" class="edge">
<title>5&#45;&gt;3</title>
<path fill="none" stroke="black" stroke-dasharray="1,5" d="M796.67,-542.54C789.24,-540.45 781.41,-538.46 774,-537 619.23,-506.47 575.37,-532.48 421,-500 417.38,-499.24 413.66,-498.33 409.95,-497.32"/>
<polygon fill="black" stroke="black" points="410.81,-493.93 400.23,-494.5 408.86,-500.65 410.81,-493.93"/>
</g>
<!-- 6 -->
<g id="node8" class="node">
<title>6</title>
<ellipse fill="none" stroke="black" cx="480" cy="-482" rx="50.09" ry="18"/>
<text text-anchor="middle" x="480" y="-478.3" font-family="Times,serif" font-size="14.00">V565 (a)</text>
</g>
<!-- 5&#45;&gt;6 -->
<g id="edge7" class="edge">
<title>5&#45;&gt;6</title>
<path fill="none" stroke="black" stroke-dasharray="5,2" d="M795.99,-542.66C788.75,-540.61 781.17,-538.61 774,-537 670.83,-513.86 642.22,-522.9 539,-500 534.9,-499.09 530.67,-498.06 526.44,-496.96"/>
<polygon fill="black" stroke="black" points="527.21,-493.55 516.64,-494.32 525.39,-500.3 527.21,-493.55"/>
</g>
<!-- 9 -->
<g id="node11" class="node">
<title>9</title>
<ellipse fill="none" stroke="black" cx="597" cy="-482" rx="48.99" ry="18"/>
<text text-anchor="middle" x="597" y="-478.3" font-family="Times,serif" font-size="14.00">La35 (a)</text>
</g>
<!-- 5&#45;&gt;9 -->
<g id="edge10" class="edge">
<title>5&#45;&gt;9</title>
<path fill="none" stroke="black" stroke-dasharray="1,5" d="M795.54,-542.98C754.55,-530.6 687.9,-510.46 643.27,-496.98"/>
<polygon fill="black" stroke="black" points="644.13,-493.58 633.55,-494.04 642.11,-500.28 644.13,-493.58"/>
</g>
<!-- 14 -->
<g id="node16" class="node">
<title>14</title>
<ellipse fill="none" stroke="black" cx="714" cy="-482" rx="50.09" ry="18"/>
<text text-anchor="middle" x="714" y="-478.3" font-family="Times,serif" font-size="14.00">V571 (a)</text>
</g>
<!-- 5&#45;&gt;14 -->
<g id="edge15" class="edge">
<title>5&#45;&gt;14</title>
<path fill="none" stroke="black" stroke-dasharray="1,5" d="M807.55,-539.29C790.18,-528.84 766.65,-514.68 747.53,-503.18"/>
<polygon fill="black" stroke="black" points="749.2,-500.09 738.82,-497.94 745.59,-506.09 749.2,-500.09"/>
</g>
<!-- 24 -->
<g id="node26" class="node">
<title>24</title>
<ellipse fill="none" stroke="black" cx="832" cy="-482" rx="50.09" ry="18"/>
<text text-anchor="middle" x="832" y="-478.3" font-family="Times,serif" font-size="14.00">A116 (a)</text>
</g>
<!-- 5&#45;&gt;24 -->
<g id="edge24" class="edge">
<title>5&#45;&gt;24</title>
<path fill="none" stroke="black" stroke-dasharray="5,2" d="M832,-536.81C832,-528.79 832,-519.05 832,-510.07"/>
<polygon fill="black" stroke="black" points="835.5,-510.03 832,-500.03 828.5,-510.03 835.5,-510.03"/>
</g>
<!-- 32 -->
<g id="node34" class="node">
<title>32</title>
<ellipse fill="none" stroke="black" cx="947" cy="-482" rx="46.59" ry="18"/>
<text text-anchor="middle" x="947" y="-478.3" font-family="Times,serif" font-size="14.00">Bodl (a)</text>
</g>
<!-- 5&#45;&gt;32 -->
<g id="edge32" class="edge">
<title>5&#45;&gt;32</title>
<path fill="none" stroke="black" stroke-dasharray="5,2" d="M855.83,-539.29C872.79,-528.82 895.79,-514.62 914.44,-503.1"/>
<polygon fill="black" stroke="black" points="916.53,-505.92 923.2,-497.69 912.85,-499.97 916.53,-505.92"/>
</g>
<!-- 37 -->
<g id="node39" class="node">
<title>37</title>
<ellipse fill="none" stroke="black" cx="1064" cy="-482" rx="52.79" ry="18"/>
<text text-anchor="middle" x="1064" y="-478.3" font-family="Times,serif" font-size="14.00">M111 (a)</text>
</g>
<!-- 5&#45;&gt;37 -->
<g id="edge37" class="edge">
<title>5&#45;&gt;37</title>
<path fill="none" stroke="black" stroke-dasharray="1,5" d="M868.25,-542.91C908.18,-530.69 972.54,-510.99 1016.48,-497.54"/>
<polygon fill="black" stroke="black" points="1017.54,-500.88 1026.08,-494.61 1015.49,-494.18 1017.54,-500.88"/>
</g>
<!-- 7 -->
<g id="node9" class="node">
<title>7</title>
<ellipse fill="none" stroke="black" cx="244" cy="-180" rx="50.09" ry="18"/>
<text text-anchor="middle" x="244" y="-176.3" font-family="Times,serif" font-size="14.00">V569 (a)</text>
</g>
<!-- 8 -->
<g id="node10" class="node">
<title>8</title>
<ellipse fill="none" stroke="black" cx="1785" cy="-399" rx="55.79" ry="18"/>
<text text-anchor="middle" x="1785" y="-395.3" font-family="Times,serif" font-size="14.00">V1639 (a)</text>
</g>
<!-- 10 -->
<g id="node12" class="node">
<title>10</title>
<ellipse fill="none" stroke="black" cx="1045" cy="-555" rx="52.79" ry="18"/>
<text text-anchor="middle" x="1045" y="-551.3" font-family="Times,serif" font-size="14.00">LaSM (a)</text>
</g>
<!-- 25 -->
<g id="node27" class="node">
<title>25</title>
<ellipse fill="none" stroke="black" cx="1179" cy="-482" rx="44.39" ry="18"/>
<text text-anchor="middle" x="1179" y="-478.3" font-family="Times,serif" font-size="14.00">B39 (a)</text>
</g>
<!-- 10&#45;&gt;25 -->
<g id="edge25" class="edge">
<title>10&#45;&gt;25</title>
<path fill="none" stroke="black" stroke-dasharray="5,2" d="M1072.44,-539.46C1093.17,-528.48 1121.77,-513.33 1144.12,-501.48"/>
<polygon fill="black" stroke="black" points="1145.76,-504.57 1152.96,-496.8 1142.49,-498.39 1145.76,-504.57"/>
</g>
<!-- 11 -->
<g id="node13" class="node">
<title>11</title>
<ellipse fill="none" stroke="black" cx="1673" cy="-482" rx="44.39" ry="18"/>
<text text-anchor="middle" x="1673" y="-478.3" font-family="Times,serif" font-size="14.00">S32 (a)</text>
</g>
<!-- 12 -->
<g id="node14" class="node">
<title>12</title>
<ellipse fill="none" stroke="black" cx="1785" cy="-482" rx="50.09" ry="18"/>
<text text-anchor="middle" x="1785" y="-478.3" font-family="Times,serif" font-size="14.00">V566 (a)</text>
</g>
<!-- 12&#45;&gt;8 -->
<g id="edge9" class="edge">
<title>12&#45;&gt;8</title>
<path fill="none" stroke="black" stroke-dasharray="1,5" d="M1785,-463.82C1785,-453.19 1785,-439.31 1785,-427.2"/>
<polygon fill="black" stroke="black" points="1788.5,-427.15 1785,-417.15 1781.5,-427.15 1788.5,-427.15"/>
</g>
<!-- 13 -->
<g id="node15" class="node">
<title>13</title>
<ellipse fill="none" stroke="black" cx="1172" cy="-555" rx="55.79" ry="18"/>
<text text-anchor="middle" x="1172" y="-551.3" font-family="Times,serif" font-size="14.00">V2036 (a)</text>
</g>
<!-- 15 -->
<g id="node17" class="node">
<title>15</title>
<ellipse fill="none" stroke="black" cx="1296" cy="-555" rx="50.09" ry="18"/>
<text text-anchor="middle" x="1296" y="-551.3" font-family="Times,serif" font-size="14.00">V560 (a)</text>
</g>
<!-- 18 -->
<g id="node20" class="node">
<title>18</title>
<ellipse fill="none" stroke="black" cx="1296" cy="-482" rx="55.49" ry="18"/>
<text text-anchor="middle" x="1296" y="-478.3" font-family="Times,serif" font-size="14.00">V1920 (c)</text>
</g>
<!-- 15&#45;&gt;18 -->
<g id="edge19" class="edge">
<title>15&#45;&gt;18</title>
<path fill="none" stroke="blue" stroke-dasharray="5,2" d="M1296,-536.81C1296,-528.79 1296,-519.05 1296,-510.07"/>
<polygon fill="blue" stroke="blue" points="1299.5,-510.03 1296,-500.03 1292.5,-510.03 1299.5,-510.03"/>
</g>
<!-- 16 -->
<g id="node18" class="node">
<title>16</title>
<ellipse fill="none" stroke="black" cx="1417" cy="-555" rx="52.79" ry="18"/>
<text text-anchor="middle" x="1417" y="-551.3" font-family="Times,serif" font-size="14.00">M136 (a)</text>
</g>
<!-- 17 -->
<g id="node19" class="node">
<title>17</title>
<ellipse fill="none" stroke="black" cx="1897" cy="-482" rx="44.39" ry="18"/>
<text text-anchor="middle" x="1897" y="-478.3" font-family="Times,serif" font-size="14.00">P01 (a)</text>
</g>
<!-- 34 -->
<g id="node36" class="node">
<title>34</title>
<ellipse fill="none" stroke="black" cx="250" cy="-399" rx="50.09" ry="18"/>
<text text-anchor="middle" x="250" y="-395.3" font-family="Times,serif" font-size="14.00">V536 (a)</text>
</g>
<!-- 19&#45;&gt;34 -->
<g id="edge34" class="edge">
<title>19&#45;&gt;34</title>
<path fill="none" stroke="black" stroke-dasharray="5,2" d="M250,-463.82C250,-453.19 250,-439.31 250,-427.2"/>
<polygon fill="black" stroke="black" points="253.5,-427.15 250,-417.15 246.5,-427.15 253.5,-427.15"/>
</g>
<!-- 36 -->
<g id="node38" class="node">
<title>36</title>
<ellipse fill="none" stroke="gray" stroke-dasharray="5,2" cx="354" cy="-399" rx="36" ry="18"/>
<text text-anchor="middle" x="354" y="-395.3" font-family="Times,serif" font-size="14.00">La2&#45;c</text>
</g>
<!-- 19&#45;&gt;36 -->
<g id="edge36" class="edge">
<title>19&#45;&gt;36</title>
<path fill="none" stroke="gray" stroke-width="2" d="M270.55,-465C286.72,-452.4 309.41,-434.73 327.04,-421"/>
<polygon fill="gray" stroke="gray" stroke-width="2" points="329.5,-423.51 335.24,-414.61 325.2,-417.99 329.5,-423.51"/>
</g>
<!-- 20 -->
<g id="node22" class="node">
<title>20</title>
<ellipse fill="none" stroke="black" cx="1356" cy="-629" rx="53.89" ry="18"/>
<text text-anchor="middle" x="1356" y="-625.3" font-family="Times,serif" font-size="14.00">aBase (a)</text>
</g>
<!-- 20&#45;&gt;0 -->
<g id="edge1" class="edge">
<title>20&#45;&gt;0</title>
<path fill="none" stroke="black" stroke-width="2" d="M1303.72,-624.29C1187.3,-615.94 897.92,-594.7 656,-573 616.29,-569.44 571.6,-565.14 537.07,-561.76"/>
<polygon fill="black" stroke="black" stroke-width="2" points="536.98,-558.24 526.69,-560.74 536.3,-565.2 536.98,-558.24"/>
</g>
<!-- 20&#45;&gt;1 -->
<g id="edge2" class="edge">
<title>20&#45;&gt;1</title>
<path fill="none" stroke="black" d="M1302.57,-626.28C1199.52,-622.22 966.45,-609.49 774,-573 769.82,-572.21 765.5,-571.25 761.2,-570.19"/>
<polygon fill="black" stroke="black" points="761.81,-566.74 751.25,-567.59 760.04,-573.51 761.81,-566.74"/>
</g>
<!-- 20&#45;&gt;5 -->
<g id="edge6" class="edge">
<title>20&#45;&gt;5</title>
<path fill="none" stroke="black" stroke-dasharray="5,2" d="M1307.17,-621.29C1209.29,-607.84 989.66,-577.66 886.93,-563.55"/>
<polygon fill="black" stroke="black" points="887.16,-560.05 876.77,-562.15 886.2,-566.98 887.16,-560.05"/>
</g>
<!-- 20&#45;&gt;10 -->
<g id="edge11" class="edge">
<title>20&#45;&gt;10</title>
<path fill="none" stroke="black" d="M1311.31,-618.84C1261.36,-608.43 1178.12,-590.59 1107,-573 1102.86,-571.97 1098.57,-570.88 1094.27,-569.75"/>
<polygon fill="black" stroke="black" points="1094.84,-566.28 1084.28,-567.09 1093.04,-573.05 1094.84,-566.28"/>
</g>
<!-- 20&#45;&gt;13 -->
<g id="edge14" class="edge">
<title>20&#45;&gt;13</title>
<path fill="none" stroke="black" d="M1322.25,-614.79C1292.22,-603.04 1248.13,-585.79 1215.47,-573.01"/>
<polygon fill="black" stroke="black" points="1216.75,-569.75 1206.16,-569.37 1214.19,-576.27 1216.75,-569.75"/>
</g>
<!-- 20&#45;&gt;15 -->
<g id="edge16" class="edge">
<title>20&#45;&gt;15</title>
<path fill="none" stroke="black" stroke-width="2" d="M1342.08,-611.3C1334.44,-602.12 1324.81,-590.57 1316.33,-580.4"/>
<polygon fill="black" stroke="black" stroke-width="2" points="1318.93,-578.05 1309.84,-572.61 1313.55,-582.53 1318.93,-578.05"/>
</g>
<!-- 20&#45;&gt;16 -->
<g id="edge17" class="edge">
<title>20&#45;&gt;16</title>
<path fill="none" stroke="black" stroke-width="2" d="M1370.15,-611.3C1377.92,-602.12 1387.71,-590.57 1396.33,-580.4"/>
<polygon fill="black" stroke="black" stroke-width="2" points="1399.14,-582.5 1402.93,-572.61 1393.79,-577.98 1399.14,-582.5"/>
</g>
<!-- 22 -->
<g id="node24" class="node">
<title>22</title>
<ellipse fill="none" stroke="black" cx="1532" cy="-555" rx="44.69" ry="18"/>
<text text-anchor="middle" x="1532" y="-551.3" font-family="Times,serif" font-size="14.00">Nan (a)</text>
</g>
<!-- 20&#45;&gt;22 -->
<g id="edge22" class="edge">
<title>20&#45;&gt;22</title>
<path fill="none" stroke="black" d="M1388.69,-614.63C1418.06,-602.61 1461.25,-584.94 1492.54,-572.14"/>
<polygon fill="black" stroke="black" points="1493.9,-575.37 1501.83,-568.34 1491.25,-568.89 1493.9,-575.37"/>
</g>
<!-- 29 -->
<g id="node31" class="node">
<title>29</title>
<ellipse fill="none" stroke="black" cx="1638" cy="-555" rx="43.59" ry="18"/>
<text text-anchor="middle" x="1638" y="-551.3" font-family="Times,serif" font-size="14.00">La2 (d)</text>
</g>
<!-- 20&#45;&gt;29 -->
<g id="edge29" class="edge">
<title>20&#45;&gt;29</title>
<path fill="none" stroke="blue" stroke-width="2" d="M1400.37,-618.51C1446.89,-608.3 1521.99,-591.08 1586,-573 1589.15,-572.11 1592.4,-571.15 1595.66,-570.16"/>
<polygon fill="blue" stroke="blue" stroke-width="2" points="1596.9,-573.44 1605.39,-567.11 1594.8,-566.76 1596.9,-573.44"/>
</g>
<!-- 33 -->
<g id="node35" class="node">
<title>33</title>
<ellipse fill="none" stroke="black" cx="1744" cy="-555" rx="44.39" ry="18"/>
<text text-anchor="middle" x="1744" y="-551.3" font-family="Times,serif" font-size="14.00">A25 (a)</text>
</g>
<!-- 20&#45;&gt;33 -->
<g id="edge33" class="edge">
<title>20&#45;&gt;33</title>
<path fill="none" stroke="black" stroke-dasharray="5,2" d="M1406.12,-622.12C1472.03,-613.85 1591.16,-597.07 1691,-573 1694.44,-572.17 1697.98,-571.23 1701.52,-570.23"/>
<polygon fill="black" stroke="black" points="1702.83,-573.49 1711.42,-567.28 1700.84,-566.78 1702.83,-573.49"/>
</g>
<!-- 38 -->
<g id="node40" class="node">
<title>38</title>
<ellipse fill="none" stroke="gray" stroke-dasharray="5,2" cx="1856" cy="-555" rx="50.09" ry="18"/>
<text text-anchor="middle" x="1856" y="-551.3" font-family="Times,serif" font-size="14.00">Savile&#45;Η</text>
</g>
<!-- 20&#45;&gt;38 -->
<g id="edge38" class="edge">
<title>20&#45;&gt;38</title>
<path fill="none" stroke="gray" stroke-width="2" d="M1408.03,-624.16C1490.95,-617.46 1657.93,-601.53 1797,-573 1801.17,-572.14 1805.48,-571.14 1809.77,-570.06"/>
<polygon fill="gray" stroke="gray" stroke-width="2" points="1810.95,-573.37 1819.71,-567.42 1809.15,-566.6 1810.95,-573.37"/>
</g>
<!-- 42 -->
<g id="node44" class="node">
<title>42</title>
<ellipse fill="none" stroke="black" cx="1974" cy="-555" rx="50.09" ry="18"/>
<text text-anchor="middle" x="1974" y="-551.3" font-family="Times,serif" font-size="14.00">S249 (a)</text>
</g>
<!-- 20&#45;&gt;42 -->
<g id="edge42" class="edge">
<title>20&#45;&gt;42</title>
<path fill="none" stroke="black" d="M1409.26,-625.99C1509.2,-621.52 1731.35,-608.19 1915,-573 1919.18,-572.2 1923.49,-571.23 1927.79,-570.18"/>
<polygon fill="black" stroke="black" points="1928.96,-573.49 1937.74,-567.57 1927.18,-566.72 1928.96,-573.49"/>
</g>
<!-- 21&#45;&gt;7 -->
<g id="edge8" class="edge">
<title>21&#45;&gt;7</title>
<path fill="none" stroke="black" stroke-dasharray="5,2" d="M289.32,-235.53C281.87,-226.57 272.51,-215.31 264.24,-205.36"/>
<polygon fill="black" stroke="black" points="266.69,-202.83 257.61,-197.38 261.31,-207.31 266.69,-202.83"/>
</g>
<!-- 30 -->
<g id="node32" class="node">
<title>30</title>
<ellipse fill="none" stroke="black" cx="362" cy="-180" rx="50.09" ry="18"/>
<text text-anchor="middle" x="362" y="-176.3" font-family="Times,serif" font-size="14.00">Marc (a)</text>
</g>
<!-- 21&#45;&gt;30 -->
<g id="edge30" class="edge">
<title>21&#45;&gt;30</title>
<path fill="none" stroke="black" stroke-dasharray="1,5" d="M316.68,-235.53C324.13,-226.57 333.49,-215.31 341.76,-205.36"/>
<polygon fill="black" stroke="black" points="344.69,-207.31 348.39,-197.38 339.31,-202.83 344.69,-207.31"/>
</g>
<!-- 39 -->
<g id="node41" class="node">
<title>39</title>
<ellipse fill="none" stroke="black" cx="483" cy="-180" rx="52.79" ry="18"/>
<text text-anchor="middle" x="483" y="-176.3" font-family="Times,serif" font-size="14.00">M118 (a)</text>
</g>
<!-- 21&#45;&gt;39 -->
<g id="edge39" class="edge">
<title>21&#45;&gt;39</title>
<path fill="none" stroke="black" stroke-dasharray="5,2" d="M334.35,-239.63C363.66,-228.07 407.65,-210.72 440.18,-197.89"/>
<polygon fill="black" stroke="black" points="441.86,-200.99 449.87,-194.07 439.29,-194.48 441.86,-200.99"/>
</g>
<!-- 26 -->
<g id="node28" class="node">
<title>26</title>
<ellipse fill="none" stroke="black" cx="1425" cy="-482" rx="55.79" ry="18"/>
<text text-anchor="middle" x="1425" y="-478.3" font-family="Times,serif" font-size="14.00">V1897 (a)</text>
</g>
<!-- 22&#45;&gt;26 -->
<g id="edge26" class="edge">
<title>22&#45;&gt;26</title>
<path fill="none" stroke="black" stroke-dasharray="1,5" d="M1509.83,-539.29C1494.5,-529.12 1473.88,-515.44 1456.81,-504.11"/>
<polygon fill="black" stroke="black" points="1458.52,-501.04 1448.25,-498.43 1454.65,-506.87 1458.52,-501.04"/>
</g>
<!-- 27 -->
<g id="node29" class="node">
<title>27</title>
<ellipse fill="none" stroke="black" cx="1555" cy="-482" rx="55.79" ry="18"/>
<text text-anchor="middle" x="1555" y="-478.3" font-family="Times,serif" font-size="14.00">V2250 (b)</text>
</g>
<!-- 22&#45;&gt;27 -->
<g id="edge27" class="edge">
<title>22&#45;&gt;27</title>
<path fill="none" stroke="blue" stroke-dasharray="5,2" d="M1537.57,-536.81C1540.2,-528.7 1543.39,-518.84 1546.33,-509.78"/>
<polygon fill="blue" stroke="blue" points="1549.73,-510.62 1549.48,-500.03 1543.07,-508.46 1549.73,-510.62"/>
</g>
<!-- 35 -->
<g id="node37" class="node">
<title>35</title>
<ellipse fill="none" stroke="black" cx="1425" cy="-399" rx="41.69" ry="18"/>
<text text-anchor="middle" x="1425" y="-395.3" font-family="Times,serif" font-size="14.00">Est (a)</text>
</g>
<!-- 26&#45;&gt;35 -->
<g id="edge35" class="edge">
<title>26&#45;&gt;35</title>
<path fill="none" stroke="black" stroke-dasharray="1,5" d="M1425,-463.82C1425,-453.19 1425,-439.31 1425,-427.2"/>
<polygon fill="black" stroke="black" points="1428.5,-427.15 1425,-417.15 1421.5,-427.15 1428.5,-427.15"/>
</g>
<!-- 40 -->
<g id="node42" class="node">
<title>40</title>
<ellipse fill="none" stroke="black" cx="1555" cy="-399" rx="43.59" ry="18"/>
<text text-anchor="middle" x="1555" y="-395.3" font-family="Times,serif" font-size="14.00">Bas (b)</text>
</g>
<!-- 27&#45;&gt;40 -->
<g id="edge40" class="edge">
<title>27&#45;&gt;40</title>
<path fill="none" stroke="black" stroke-dasharray="5,2" d="M1555,-463.82C1555,-453.19 1555,-439.31 1555,-427.2"/>
<polygon fill="black" stroke="black" points="1558.5,-427.15 1555,-417.15 1551.5,-427.15 1558.5,-427.15"/>
<text text-anchor="middle" x="1558.5" y="-438" font-family="Times,serif" font-size="10.00">5</text>
</g>
<!-- 28 -->
<g id="node30" class="node">
<title>28</title>
<ellipse fill="none" stroke="gray" stroke-dasharray="5,2" cx="483" cy="-107" rx="28.7" ry="18"/>
<text text-anchor="middle" x="483" y="-103.3" font-family="Times,serif" font-size="14.00">P18</text>
</g>
<!-- 30&#45;&gt;4 -->
<g id="edge5" class="edge">
<title>30&#45;&gt;4</title>
<path fill="none" stroke="black" stroke-dasharray="1,5" d="M362,-161.81C362,-153.79 362,-144.05 362,-135.07"/>
<polygon fill="black" stroke="black" points="365.5,-135.03 362,-125.03 358.5,-135.03 365.5,-135.03"/>
</g>
<!-- 31 -->
<g id="node33" class="node">
<title>31</title>
<ellipse fill="none" stroke="black" cx="1999" cy="-482" rx="40.09" ry="18"/>
<text text-anchor="middle" x="1999" y="-478.3" font-family="Times,serif" font-size="14.00">Pal (a)</text>
</g>
<!-- 33&#45;&gt;11 -->
<g id="edge12" class="edge">
<title>33&#45;&gt;11</title>
<path fill="none" stroke="black" stroke-dasharray="5,2" d="M1727.89,-537.89C1718.54,-528.54 1706.6,-516.6 1696.25,-506.25"/>
<polygon fill="black" stroke="black" points="1698.59,-503.64 1689.05,-499.05 1693.64,-508.59 1698.59,-503.64"/>
</g>
<!-- 33&#45;&gt;12 -->
<g id="edge13" class="edge">
<title>33&#45;&gt;12</title>
<path fill="none" stroke="black" stroke-dasharray="5,2" d="M1753.72,-537.17C1758.67,-528.6 1764.8,-517.99 1770.31,-508.44"/>
<polygon fill="black" stroke="black" points="1773.38,-510.12 1775.35,-499.71 1767.32,-506.61 1773.38,-510.12"/>
</g>
<!-- 33&#45;&gt;17 -->
<g id="edge18" class="edge">
<title>33&#45;&gt;17</title>
<path fill="none" stroke="black" stroke-dasharray="5,2" d="M1772.06,-540.98C1796.68,-529.55 1832.67,-512.85 1859.7,-500.31"/>
<polygon fill="black" stroke="black" points="1861.26,-503.44 1868.86,-496.06 1858.31,-497.09 1861.26,-503.44"/>
</g>
<!-- 33&#45;&gt;31 -->
<g id="edge31" class="edge">
<title>33&#45;&gt;31</title>
<path fill="none" stroke="black" stroke-dasharray="5,2" d="M1777.25,-542.93C1783.77,-540.87 1790.58,-538.8 1797,-537 1864.35,-518.08 1882.87,-519.71 1950,-500 1952.97,-499.13 1956.03,-498.18 1959.09,-497.2"/>
<polygon fill="black" stroke="black" points="1960.43,-500.44 1968.83,-493.98 1958.23,-493.8 1960.43,-500.44"/>
</g>
<!-- 34&#45;&gt;2 -->
<g id="edge3" class="edge">
<title>34&#45;&gt;2</title>
<path fill="none" stroke="black" stroke-dasharray="1,5" d="M256.54,-380.81C259.65,-372.62 263.45,-362.62 266.93,-353.48"/>
<polygon fill="black" stroke="black" points="270.24,-354.62 270.52,-344.03 263.7,-352.13 270.24,-354.62"/>
</g>
<!-- 41 -->
<g id="node43" class="node">
<title>41</title>
<ellipse fill="none" stroke="black" cx="1064" cy="-399" rx="50.09" ry="18"/>
<text text-anchor="middle" x="1064" y="-395.3" font-family="Times,serif" font-size="14.00">A336 (a)</text>
</g>
<!-- 37&#45;&gt;41 -->
<g id="edge41" class="edge">
<title>37&#45;&gt;41</title>
<path fill="none" stroke="black" stroke-dasharray="5,2" d="M1064,-463.82C1064,-453.19 1064,-439.31 1064,-427.2"/>
<polygon fill="black" stroke="black" points="1067.5,-427.15 1064,-417.15 1060.5,-427.15 1067.5,-427.15"/>
</g>
<!-- 39&#45;&gt;28 -->
<g id="edge28" class="edge">
<title>39&#45;&gt;28</title>
<path fill="none" stroke="gray" stroke-dasharray="5,2" d="M483,-161.81C483,-153.79 483,-144.05 483,-135.07"/>
<polygon fill="gray" stroke="gray" points="486.5,-135.03 483,-125.03 479.5,-135.03 486.5,-135.03"/>
</g>
</g>
</svg>
