<?xml version="1.0" encoding="UTF-8" standalone="no"?>
<!DOCTYPE svg PUBLIC "-//W3C//DTD SVG 1.1//EN"
 "http://www.w3.org/Graphics/SVG/1.1/DTD/svg11.dtd">
<!-- Generated by graphviz version 2.43.0 (0)
 -->
<!-- Title: textual_flow Pages: 1 -->
<svg width="2023pt" height="858pt"
 viewBox="0.00 0.00 2023.00 858.00" xmlns="http://www.w3.org/2000/svg" xmlns:xlink="http://www.w3.org/1999/xlink">
<g id="graph0" class="graph" transform="scale(1 1) rotate(0) translate(4 854)">
<title>textual_flow</title>
<polygon fill="white" stroke="transparent" points="-4,4 -4,-854 2019,-854 2019,4 -4,4"/>
<g id="clust1" class="cluster">
<title>cluster_legend</title>
<polygon fill="none" stroke="black" points="8,-788 8,-842 164,-842 164,-788 8,-788"/>
</g>
<g id="clust2" class="cluster">
<title>cluster_plot</title>
</g>
<!-- label -->
<g id="node1" class="node">
<title>label</title>
<text text-anchor="middle" x="86" y="-818.8" font-family="Times,serif" font-size="14.00">adstag1.2.40U18</text>
<text text-anchor="middle" x="86" y="-803.8" font-family="Times,serif" font-size="14.00">Con = 5</text>
</g>
<!-- 0 -->
<g id="node2" class="node">
<title>0</title>
<ellipse fill="none" stroke="black" cx="1211" cy="-336" rx="50.09" ry="18"/>
<text text-anchor="middle" x="1211" y="-332.3" font-family="Times,serif" font-size="14.00">V536 (b)</text>
</g>
<!-- 32 -->
<g id="node34" class="node">
<title>32</title>
<ellipse fill="none" stroke="black" cx="1211" cy="-263" rx="50.09" ry="18"/>
<text text-anchor="middle" x="1211" y="-259.3" font-family="Times,serif" font-size="14.00">V568 (b)</text>
</g>
<!-- 0&#45;&gt;32 -->
<g id="edge32" class="edge">
<title>0&#45;&gt;32</title>
<path fill="none" stroke="black" stroke-dasharray="1,5" d="M1211,-317.81C1211,-309.79 1211,-300.05 1211,-291.07"/>
<polygon fill="black" stroke="black" points="1214.5,-291.03 1211,-281.03 1207.5,-291.03 1214.5,-291.03"/>
</g>
<!-- 1 -->
<g id="node3" class="node">
<title>1</title>
<ellipse fill="none" stroke="black" cx="643" cy="-482" rx="44.69" ry="18"/>
<text text-anchor="middle" x="643" y="-478.3" font-family="Times,serif" font-size="14.00">B39 (b)</text>
</g>
<!-- 2 -->
<g id="node4" class="node">
<title>2</title>
<ellipse fill="none" stroke="black" cx="1018" cy="-565" rx="44.39" ry="18"/>
<text text-anchor="middle" x="1018" y="-561.3" font-family="Times,serif" font-size="14.00">P74 (b)</text>
</g>
<!-- 3 -->
<g id="node5" class="node">
<title>3</title>
<ellipse fill="none" stroke="black" cx="354" cy="-648" rx="44.39" ry="18"/>
<text text-anchor="middle" x="354" y="-644.3" font-family="Times,serif" font-size="14.00">S32 (b)</text>
</g>
<!-- 4 -->
<g id="node6" class="node">
<title>4</title>
<ellipse fill="none" stroke="black" cx="516" cy="-565" rx="55.79" ry="18"/>
<text text-anchor="middle" x="516" y="-561.3" font-family="Times,serif" font-size="14.00">V2036 (b)</text>
</g>
<!-- 5 -->
<g id="node7" class="node">
<title>5</title>
<ellipse fill="none" stroke="black" cx="1130" cy="-565" rx="50.09" ry="18"/>
<text text-anchor="middle" x="1130" y="-561.3" font-family="Times,serif" font-size="14.00">V565 (b)</text>
</g>
<!-- 6 -->
<g id="node8" class="node">
<title>6</title>
<ellipse fill="none" stroke="black" cx="770" cy="-565" rx="55.79" ry="18"/>
<text text-anchor="middle" x="770" y="-561.3" font-family="Times,serif" font-size="14.00">V1897 (b)</text>
</g>
<!-- 29 -->
<g id="node31" class="node">
<title>29</title>
<ellipse fill="none" stroke="black" cx="770" cy="-482" rx="42.49" ry="18"/>
<text text-anchor="middle" x="770" y="-478.3" font-family="Times,serif" font-size="14.00">Est (b)</text>
</g>
<!-- 6&#45;&gt;29 -->
<g id="edge29" class="edge">
<title>6&#45;&gt;29</title>
<path fill="none" stroke="black" stroke-dasharray="1,5" d="M770,-546.82C770,-536.19 770,-522.31 770,-510.2"/>
<polygon fill="black" stroke="black" points="773.5,-510.15 770,-500.15 766.5,-510.15 773.5,-510.15"/>
</g>
<!-- 7 -->
<g id="node9" class="node">
<title>7</title>
<ellipse fill="none" stroke="black" cx="1946" cy="-482" rx="50.09" ry="18"/>
<text text-anchor="middle" x="1946" y="-478.3" font-family="Times,serif" font-size="14.00">A336 (b)</text>
</g>
<!-- 8 -->
<g id="node10" class="node">
<title>8</title>
<ellipse fill="none" stroke="black" cx="1251" cy="-409" rx="55.79" ry="18"/>
<text text-anchor="middle" x="1251" y="-405.3" font-family="Times,serif" font-size="14.00">V1629 (b)</text>
</g>
<!-- 8&#45;&gt;0 -->
<g id="edge1" class="edge">
<title>8&#45;&gt;0</title>
<path fill="none" stroke="black" stroke-dasharray="5,2" d="M1241.52,-391.17C1236.69,-382.6 1230.71,-371.99 1225.33,-362.44"/>
<polygon fill="black" stroke="black" points="1228.37,-360.7 1220.41,-353.71 1222.27,-364.14 1228.37,-360.7"/>
</g>
<!-- 16 -->
<g id="node18" class="node">
<title>16</title>
<ellipse fill="none" stroke="gray" stroke-dasharray="5,2" cx="1315" cy="-336" rx="36" ry="18"/>
<text text-anchor="middle" x="1315" y="-332.3" font-family="Times,serif" font-size="14.00">La2&#45;c</text>
</g>
<!-- 8&#45;&gt;16 -->
<g id="edge17" class="edge">
<title>8&#45;&gt;16</title>
<path fill="none" stroke="gray" stroke-width="2" d="M1265.84,-391.53C1274.2,-382.26 1284.77,-370.53 1293.97,-360.33"/>
<polygon fill="gray" stroke="gray" stroke-width="2" points="1296.58,-362.66 1300.68,-352.89 1291.38,-357.97 1296.58,-362.66"/>
</g>
<!-- 9 -->
<g id="node11" class="node">
<title>9</title>
<ellipse fill="none" stroke="black" cx="643" cy="-565" rx="53.09" ry="18"/>
<text text-anchor="middle" x="643" y="-561.3" font-family="Times,serif" font-size="14.00">LaSM (b)</text>
</g>
<!-- 9&#45;&gt;1 -->
<g id="edge2" class="edge">
<title>9&#45;&gt;1</title>
<path fill="none" stroke="black" stroke-dasharray="5,2" d="M643,-546.82C643,-536.19 643,-522.31 643,-510.2"/>
<polygon fill="black" stroke="black" points="646.5,-510.15 643,-500.15 639.5,-510.15 646.5,-510.15"/>
</g>
<!-- 10 -->
<g id="node12" class="node">
<title>10</title>
<ellipse fill="none" stroke="black" cx="1251" cy="-565" rx="53.09" ry="18"/>
<text text-anchor="middle" x="1251" y="-561.3" font-family="Times,serif" font-size="14.00">M136 (b)</text>
</g>
<!-- 40 -->
<g id="node42" class="node">
<title>40</title>
<ellipse fill="none" stroke="black" cx="1251" cy="-482" rx="50.89" ry="18"/>
<text text-anchor="middle" x="1251" y="-478.3" font-family="Times,serif" font-size="14.00">Neap (b)</text>
</g>
<!-- 10&#45;&gt;40 -->
<g id="edge40" class="edge">
<title>10&#45;&gt;40</title>
<path fill="none" stroke="black" stroke-dasharray="5,2" d="M1251,-546.82C1251,-536.19 1251,-522.31 1251,-510.2"/>
<polygon fill="black" stroke="black" points="1254.5,-510.15 1251,-500.15 1247.5,-510.15 1254.5,-510.15"/>
<text text-anchor="middle" x="1254.5" y="-521" font-family="Times,serif" font-size="10.00">2</text>
</g>
<!-- 11 -->
<g id="node13" class="node">
<title>11</title>
<ellipse fill="none" stroke="black" cx="1042" cy="-34" rx="50.09" ry="18"/>
<text text-anchor="middle" x="1042" y="-30.3" font-family="Times,serif" font-size="14.00">Marc (a)</text>
</g>
<!-- 12 -->
<g id="node14" class="node">
<title>12</title>
<ellipse fill="none" stroke="black" cx="1042" cy="-107" rx="40.89" ry="18"/>
<text text-anchor="middle" x="1042" y="-103.3" font-family="Times,serif" font-size="14.00">Sin (a)</text>
</g>
<!-- 12&#45;&gt;11 -->
<g id="edge12" class="edge">
<title>12&#45;&gt;11</title>
<path fill="none" stroke="black" stroke-dasharray="1,5" d="M1042,-88.81C1042,-80.79 1042,-71.05 1042,-62.07"/>
<polygon fill="black" stroke="black" points="1045.5,-62.03 1042,-52.03 1038.5,-62.03 1045.5,-62.03"/>
</g>
<!-- 13 -->
<g id="node15" class="node">
<title>13</title>
<ellipse fill="none" stroke="black" cx="247" cy="-731" rx="42.79" ry="18"/>
<text text-anchor="middle" x="247" y="-727.3" font-family="Times,serif" font-size="14.00">Bas (a)</text>
</g>
<!-- 14 -->
<g id="node16" class="node">
<title>14</title>
<ellipse fill="none" stroke="black" cx="358" cy="-731" rx="50.09" ry="18"/>
<text text-anchor="middle" x="358" y="-727.3" font-family="Times,serif" font-size="14.00">V560 (a)</text>
</g>
<!-- 23 -->
<g id="node25" class="node">
<title>23</title>
<ellipse fill="none" stroke="black" cx="236" cy="-648" rx="55.79" ry="18"/>
<text text-anchor="middle" x="236" y="-644.3" font-family="Times,serif" font-size="14.00">V1920 (a)</text>
</g>
<!-- 14&#45;&gt;23 -->
<g id="edge24" class="edge">
<title>14&#45;&gt;23</title>
<path fill="none" stroke="black" stroke-dasharray="5,2" d="M335.05,-714.76C316,-702.12 288.71,-684 267.6,-669.98"/>
<polygon fill="black" stroke="black" points="269.53,-667.06 259.26,-664.44 265.65,-672.89 269.53,-667.06"/>
</g>
<!-- 15 -->
<g id="node17" class="node">
<title>15</title>
<ellipse fill="none" stroke="black" cx="466" cy="-648" rx="50.09" ry="18"/>
<text text-anchor="middle" x="466" y="-644.3" font-family="Times,serif" font-size="14.00">V566 (b)</text>
</g>
<!-- 33 -->
<g id="node35" class="node">
<title>33</title>
<ellipse fill="none" stroke="black" cx="236" cy="-565" rx="55.79" ry="18"/>
<text text-anchor="middle" x="236" y="-561.3" font-family="Times,serif" font-size="14.00">V1639 (b)</text>
</g>
<!-- 15&#45;&gt;33 -->
<g id="edge33" class="edge">
<title>15&#45;&gt;33</title>
<path fill="none" stroke="black" stroke-dasharray="1,5" d="M431.57,-634.87C391.72,-620.84 325.95,-597.68 281.81,-582.13"/>
<polygon fill="black" stroke="black" points="282.78,-578.77 272.19,-578.74 280.46,-585.37 282.78,-578.77"/>
</g>
<!-- 17 -->
<g id="node19" class="node">
<title>17</title>
<ellipse fill="none" stroke="black" cx="1372" cy="-565" rx="49.29" ry="18"/>
<text text-anchor="middle" x="1372" y="-561.3" font-family="Times,serif" font-size="14.00">La35 (b)</text>
</g>
<!-- 18 -->
<g id="node20" class="node">
<title>18</title>
<ellipse fill="none" stroke="black" cx="1489" cy="-565" rx="50.09" ry="18"/>
<text text-anchor="middle" x="1489" y="-561.3" font-family="Times,serif" font-size="14.00">V571 (b)</text>
</g>
<!-- 19 -->
<g id="node21" class="node">
<title>19</title>
<ellipse fill="none" stroke="gray" stroke-dasharray="5,2" cx="460" cy="-731" rx="34.39" ry="18"/>
<text text-anchor="middle" x="460" y="-727.3" font-family="Times,serif" font-size="14.00">S249</text>
</g>
<!-- 20 -->
<g id="node22" class="node">
<title>20</title>
<ellipse fill="none" stroke="black" cx="574" cy="-648" rx="40.09" ry="18"/>
<text text-anchor="middle" x="574" y="-644.3" font-family="Times,serif" font-size="14.00">Pal (b)</text>
</g>
<!-- 34 -->
<g id="node36" class="node">
<title>34</title>
<ellipse fill="none" stroke="black" cx="376" cy="-565" rx="65.79" ry="18"/>
<text text-anchor="middle" x="376" y="-561.3" font-family="Times,serif" font-size="14.00">Savile&#45;Η (b)</text>
</g>
<!-- 20&#45;&gt;34 -->
<g id="edge34" class="edge">
<title>20&#45;&gt;34</title>
<path fill="none" stroke="black" d="M545.21,-635.22C512.48,-621.83 458.66,-599.82 420.52,-584.21"/>
<polygon fill="black" stroke="black" points="421.76,-580.94 411.18,-580.39 419.11,-587.42 421.76,-580.94"/>
</g>
<!-- 21 -->
<g id="node23" class="node">
<title>21</title>
<ellipse fill="none" stroke="black" cx="1607" cy="-565" rx="50.09" ry="18"/>
<text text-anchor="middle" x="1607" y="-561.3" font-family="Times,serif" font-size="14.00">A116 (b)</text>
</g>
<!-- 22 -->
<g id="node24" class="node">
<title>22</title>
<ellipse fill="none" stroke="black" cx="1722" cy="-565" rx="47.39" ry="18"/>
<text text-anchor="middle" x="1722" y="-561.3" font-family="Times,serif" font-size="14.00">Bodl (b)</text>
</g>
<!-- 24 -->
<g id="node26" class="node">
<title>24</title>
<ellipse fill="none" stroke="black" cx="1151" cy="-107" rx="50.09" ry="18"/>
<text text-anchor="middle" x="1151" y="-103.3" font-family="Times,serif" font-size="14.00">V569 (b)</text>
</g>
<!-- 25 -->
<g id="node27" class="node">
<title>25</title>
<ellipse fill="none" stroke="black" cx="625" cy="-731" rx="44.39" ry="18"/>
<text text-anchor="middle" x="625" y="-727.3" font-family="Times,serif" font-size="14.00">A25 (b)</text>
</g>
<!-- 25&#45;&gt;3 -->
<g id="edge4" class="edge">
<title>25&#45;&gt;3</title>
<path fill="none" stroke="black" stroke-dasharray="5,2" d="M589.81,-719.96C546.64,-707.58 471.29,-685.74 407,-666 403.71,-664.99 400.32,-663.93 396.9,-662.86"/>
<polygon fill="black" stroke="black" points="397.91,-659.51 387.32,-659.83 395.8,-666.18 397.91,-659.51"/>
</g>
<!-- 25&#45;&gt;15 -->
<g id="edge16" class="edge">
<title>25&#45;&gt;15</title>
<path fill="none" stroke="black" stroke-dasharray="5,2" d="M598.39,-716.44C572.22,-703.11 532.07,-682.66 502.84,-667.77"/>
<polygon fill="black" stroke="black" points="504.27,-664.57 493.77,-663.15 501.09,-670.8 504.27,-664.57"/>
</g>
<!-- 25&#45;&gt;20 -->
<g id="edge21" class="edge">
<title>25&#45;&gt;20</title>
<path fill="none" stroke="black" stroke-dasharray="5,2" d="M614.43,-713.22C607.34,-701.96 597.87,-686.92 589.88,-674.22"/>
<polygon fill="black" stroke="black" points="592.67,-672.08 584.38,-665.48 586.75,-675.81 592.67,-672.08"/>
</g>
<!-- 31 -->
<g id="node33" class="node">
<title>31</title>
<ellipse fill="none" stroke="black" cx="676" cy="-648" rx="44.39" ry="18"/>
<text text-anchor="middle" x="676" y="-644.3" font-family="Times,serif" font-size="14.00">P01 (b)</text>
</g>
<!-- 25&#45;&gt;31 -->
<g id="edge31" class="edge">
<title>25&#45;&gt;31</title>
<path fill="none" stroke="black" stroke-dasharray="5,2" d="M635.57,-713.22C642.61,-702.03 652,-687.12 659.96,-674.48"/>
<polygon fill="black" stroke="black" points="663.08,-676.09 665.45,-665.76 657.16,-672.36 663.08,-676.09"/>
</g>
<!-- 35 -->
<g id="node37" class="node">
<title>35</title>
<ellipse fill="none" stroke="black" cx="788" cy="-648" rx="50.09" ry="18"/>
<text text-anchor="middle" x="788" y="-644.3" font-family="Times,serif" font-size="14.00">Patm (b)</text>
</g>
<!-- 25&#45;&gt;35 -->
<g id="edge35" class="edge">
<title>25&#45;&gt;35</title>
<path fill="none" stroke="black" stroke-dasharray="1,5" d="M651.92,-716.62C678.84,-703.24 720.48,-682.55 750.61,-667.58"/>
<polygon fill="black" stroke="black" points="752.55,-670.52 759.95,-662.94 749.44,-664.25 752.55,-670.52"/>
</g>
<!-- 37 -->
<g id="node39" class="node">
<title>37</title>
<ellipse fill="none" stroke="black" cx="902" cy="-648" rx="45.49" ry="18"/>
<text text-anchor="middle" x="902" y="-644.3" font-family="Times,serif" font-size="14.00">Nan (b)</text>
</g>
<!-- 25&#45;&gt;37 -->
<g id="edge37" class="edge">
<title>25&#45;&gt;37</title>
<path fill="none" stroke="black" stroke-dasharray="5,2" d="M660.43,-720.01C704.3,-707.59 781.28,-685.63 847,-666 850.51,-664.95 854.14,-663.85 857.79,-662.75"/>
<polygon fill="black" stroke="black" points="858.87,-666.07 867.41,-659.8 856.82,-659.38 858.87,-666.07"/>
<text text-anchor="middle" x="782.5" y="-687" font-family="Times,serif" font-size="10.00">2</text>
</g>
<!-- 41 -->
<g id="node43" class="node">
<title>41</title>
<ellipse fill="none" stroke="black" cx="1430" cy="-648" rx="49.29" ry="18"/>
<text text-anchor="middle" x="1430" y="-644.3" font-family="Times,serif" font-size="14.00">La22 (b)</text>
</g>
<!-- 25&#45;&gt;41 -->
<g id="edge41" class="edge">
<title>25&#45;&gt;41</title>
<path fill="none" stroke="black" stroke-dasharray="1,5" d="M667.43,-725.73C802.07,-712.18 1219.84,-670.15 1372.98,-654.74"/>
<polygon fill="black" stroke="black" points="1373.51,-658.2 1383.11,-653.72 1372.81,-651.24 1373.51,-658.2"/>
</g>
<!-- 26 -->
<g id="node28" class="node">
<title>26</title>
<ellipse fill="none" stroke="gray" stroke-dasharray="5,2" cx="1272" cy="-34" rx="28.7" ry="18"/>
<text text-anchor="middle" x="1272" y="-30.3" font-family="Times,serif" font-size="14.00">P18</text>
</g>
<!-- 27 -->
<g id="node29" class="node">
<title>27</title>
<ellipse fill="none" stroke="black" cx="1272" cy="-107" rx="53.09" ry="18"/>
<text text-anchor="middle" x="1272" y="-103.3" font-family="Times,serif" font-size="14.00">M118 (b)</text>
</g>
<!-- 27&#45;&gt;26 -->
<g id="edge27" class="edge">
<title>27&#45;&gt;26</title>
<path fill="none" stroke="gray" stroke-dasharray="5,2" d="M1272,-88.81C1272,-80.79 1272,-71.05 1272,-62.07"/>
<polygon fill="gray" stroke="gray" points="1275.5,-62.03 1272,-52.03 1268.5,-62.03 1275.5,-62.03"/>
</g>
<!-- 28 -->
<g id="node30" class="node">
<title>28</title>
<ellipse fill="none" stroke="black" cx="409" cy="-815" rx="53.89" ry="18"/>
<text text-anchor="middle" x="409" y="-811.3" font-family="Times,serif" font-size="14.00">aBase (a)</text>
</g>
<!-- 28&#45;&gt;13 -->
<g id="edge14" class="edge">
<title>28&#45;&gt;13</title>
<path fill="none" stroke="black" stroke-width="2" d="M380.41,-799.53C353.12,-785.71 311.91,-764.86 282.52,-749.98"/>
<polygon fill="black" stroke="black" stroke-width="2" points="283.93,-746.77 273.43,-745.38 280.77,-753.02 283.93,-746.77"/>
<text text-anchor="middle" x="340.5" y="-770" font-family="Times,serif" font-size="10.00">3</text>
</g>
<!-- 28&#45;&gt;14 -->
<g id="edge15" class="edge">
<title>28&#45;&gt;14</title>
<path fill="none" stroke="black" stroke-width="2" d="M398.43,-797.01C391.34,-785.61 381.87,-770.39 373.88,-757.54"/>
<polygon fill="black" stroke="black" stroke-width="2" points="376.63,-755.33 368.38,-748.69 370.69,-759.03 376.63,-755.33"/>
</g>
<!-- 28&#45;&gt;19 -->
<g id="edge20" class="edge">
<title>28&#45;&gt;19</title>
<path fill="none" stroke="gray" d="M419.57,-797.01C426.77,-785.42 436.44,-769.89 444.51,-756.91"/>
<polygon fill="gray" stroke="gray" points="447.48,-758.75 449.79,-748.41 441.54,-755.05 447.48,-758.75"/>
</g>
<!-- 28&#45;&gt;25 -->
<g id="edge26" class="edge">
<title>28&#45;&gt;25</title>
<path fill="none" stroke="blue" stroke-dasharray="5,2" d="M443.23,-801.01C481.55,-786.46 543.62,-762.9 584.37,-747.42"/>
<polygon fill="blue" stroke="blue" points="585.63,-750.69 593.74,-743.87 583.15,-744.14 585.63,-750.69"/>
</g>
<!-- 30 -->
<g id="node32" class="node">
<title>30</title>
<ellipse fill="none" stroke="black" cx="1390" cy="-107" rx="46.59" ry="18"/>
<text text-anchor="middle" x="1390" y="-103.3" font-family="Times,serif" font-size="14.00">Mon (b)</text>
</g>
<!-- 38 -->
<g id="node40" class="node">
<title>38</title>
<ellipse fill="none" stroke="black" cx="1211" cy="-190" rx="47.39" ry="18"/>
<text text-anchor="middle" x="1211" y="-186.3" font-family="Times,serif" font-size="14.00">Taur (b)</text>
</g>
<!-- 32&#45;&gt;38 -->
<g id="edge38" class="edge">
<title>32&#45;&gt;38</title>
<path fill="none" stroke="black" stroke-dasharray="1,5" d="M1211,-244.81C1211,-236.79 1211,-227.05 1211,-218.07"/>
<polygon fill="black" stroke="black" points="1214.5,-218.03 1211,-208.03 1207.5,-218.03 1214.5,-218.03"/>
</g>
<!-- 35&#45;&gt;4 -->
<g id="edge5" class="edge">
<title>35&#45;&gt;4</title>
<path fill="none" stroke="black" stroke-dasharray="1,5" d="M750.75,-635.91C702.67,-621.59 618.88,-596.64 565.49,-580.74"/>
<polygon fill="black" stroke="black" points="566.47,-577.38 555.89,-577.88 564.47,-584.09 566.47,-577.38"/>
</g>
<!-- 35&#45;&gt;9 -->
<g id="edge10" class="edge">
<title>35&#45;&gt;9</title>
<path fill="none" stroke="black" stroke-dasharray="5,2" d="M762.08,-632.52C738.76,-619.49 704.29,-600.24 678.44,-585.79"/>
<polygon fill="black" stroke="black" points="680.12,-582.73 669.68,-580.9 676.7,-588.84 680.12,-582.73"/>
</g>
<!-- 36 -->
<g id="node38" class="node">
<title>36</title>
<ellipse fill="none" stroke="black" cx="1831" cy="-565" rx="43.59" ry="18"/>
<text text-anchor="middle" x="1831" y="-561.3" font-family="Times,serif" font-size="14.00">La2 (b)</text>
</g>
<!-- 37&#45;&gt;6 -->
<g id="edge7" class="edge">
<title>37&#45;&gt;6</title>
<path fill="none" stroke="black" stroke-dasharray="1,5" d="M878.4,-632.52C857.49,-619.69 826.73,-600.81 803.32,-586.44"/>
<polygon fill="black" stroke="black" points="805.09,-583.43 794.74,-581.18 801.43,-589.39 805.09,-583.43"/>
</g>
<!-- 39 -->
<g id="node41" class="node">
<title>39</title>
<ellipse fill="none" stroke="black" cx="900" cy="-565" rx="55.79" ry="18"/>
<text text-anchor="middle" x="900" y="-561.3" font-family="Times,serif" font-size="14.00">V2250 (b)</text>
</g>
<!-- 37&#45;&gt;39 -->
<g id="edge39" class="edge">
<title>37&#45;&gt;39</title>
<path fill="none" stroke="black" stroke-dasharray="5,2" d="M901.58,-629.82C901.31,-619.19 900.97,-605.31 900.67,-593.2"/>
<polygon fill="black" stroke="black" points="904.17,-593.06 900.42,-583.15 897.17,-593.24 904.17,-593.06"/>
</g>
<!-- 38&#45;&gt;12 -->
<g id="edge13" class="edge">
<title>38&#45;&gt;12</title>
<path fill="none" stroke="blue" stroke-dasharray="1,5" d="M1182.71,-175.44C1153.93,-161.65 1109.22,-140.22 1077.95,-125.23"/>
<polygon fill="blue" stroke="blue" points="1079.23,-121.97 1068.7,-120.8 1076.21,-128.28 1079.23,-121.97"/>
</g>
<!-- 38&#45;&gt;24 -->
<g id="edge25" class="edge">
<title>38&#45;&gt;24</title>
<path fill="none" stroke="black" stroke-dasharray="5,2" d="M1198.57,-172.22C1190.15,-160.85 1178.87,-145.63 1169.41,-132.86"/>
<polygon fill="black" stroke="black" points="1171.98,-130.44 1163.21,-124.48 1166.35,-134.6 1171.98,-130.44"/>
</g>
<!-- 38&#45;&gt;27 -->
<g id="edge28" class="edge">
<title>38&#45;&gt;27</title>
<path fill="none" stroke="black" stroke-dasharray="5,2" d="M1223.34,-172.61C1231.97,-161.16 1243.64,-145.66 1253.39,-132.72"/>
<polygon fill="black" stroke="black" points="1256.24,-134.74 1259.46,-124.65 1250.65,-130.53 1256.24,-134.74"/>
</g>
<!-- 38&#45;&gt;30 -->
<g id="edge30" class="edge">
<title>38&#45;&gt;30</title>
<path fill="none" stroke="black" stroke-dasharray="1,5" d="M1240.56,-175.62C1270.93,-161.88 1318.33,-140.43 1351.59,-125.38"/>
<polygon fill="black" stroke="black" points="1353.32,-128.44 1360.99,-121.13 1350.44,-122.06 1353.32,-128.44"/>
<text text-anchor="middle" x="1314.5" y="-146" font-family="Times,serif" font-size="10.00">3</text>
</g>
<!-- 40&#45;&gt;8 -->
<g id="edge9" class="edge">
<title>40&#45;&gt;8</title>
<path fill="none" stroke="black" stroke-dasharray="1,5" d="M1251,-463.81C1251,-455.79 1251,-446.05 1251,-437.07"/>
<polygon fill="black" stroke="black" points="1254.5,-437.03 1251,-427.03 1247.5,-437.03 1254.5,-437.03"/>
</g>
<!-- 41&#45;&gt;2 -->
<g id="edge3" class="edge">
<title>41&#45;&gt;2</title>
<path fill="none" stroke="black" stroke-dasharray="1,5" d="M1384.54,-640.89C1315.99,-631.23 1182.37,-610.66 1071,-583 1067.57,-582.15 1064.03,-581.19 1060.49,-580.18"/>
<polygon fill="black" stroke="black" points="1061.18,-576.73 1050.6,-577.21 1059.17,-583.44 1061.18,-576.73"/>
</g>
<!-- 41&#45;&gt;5 -->
<g id="edge6" class="edge">
<title>41&#45;&gt;5</title>
<path fill="none" stroke="black" stroke-dasharray="5,2" d="M1390.69,-636.83C1342.93,-624.41 1259.93,-602.63 1189,-583 1185.24,-581.96 1181.34,-580.87 1177.43,-579.76"/>
<polygon fill="black" stroke="black" points="1178.31,-576.37 1167.74,-577 1176.4,-583.1 1178.31,-576.37"/>
</g>
<!-- 41&#45;&gt;10 -->
<g id="edge11" class="edge">
<title>41&#45;&gt;10</title>
<path fill="none" stroke="black" d="M1400.04,-633.44C1370.15,-619.92 1324.04,-599.05 1291.02,-584.11"/>
<polygon fill="black" stroke="black" points="1292.21,-580.81 1281.66,-579.87 1289.33,-587.18 1292.21,-580.81"/>
<text text-anchor="middle" x="1354.5" y="-604" font-family="Times,serif" font-size="10.00">2</text>
</g>
<!-- 41&#45;&gt;17 -->
<g id="edge18" class="edge">
<title>41&#45;&gt;17</title>
<path fill="none" stroke="black" stroke-dasharray="1,5" d="M1417.98,-630.22C1409.84,-618.85 1398.94,-603.63 1389.8,-590.86"/>
<polygon fill="black" stroke="black" points="1392.47,-588.58 1383.8,-582.48 1386.78,-592.65 1392.47,-588.58"/>
</g>
<!-- 41&#45;&gt;18 -->
<g id="edge19" class="edge">
<title>41&#45;&gt;18</title>
<path fill="none" stroke="black" stroke-dasharray="1,5" d="M1442.22,-630.22C1450.51,-618.85 1461.59,-603.63 1470.9,-590.86"/>
<polygon fill="black" stroke="black" points="1473.93,-592.63 1476.99,-582.48 1468.28,-588.51 1473.93,-592.63"/>
</g>
<!-- 41&#45;&gt;21 -->
<g id="edge22" class="edge">
<title>41&#45;&gt;21</title>
<path fill="none" stroke="black" stroke-dasharray="5,2" d="M1459.63,-633.44C1489.36,-619.83 1535.33,-598.8 1568.02,-583.84"/>
<polygon fill="black" stroke="black" points="1569.64,-586.95 1577.28,-579.6 1566.73,-580.58 1569.64,-586.95"/>
</g>
<!-- 41&#45;&gt;22 -->
<g id="edge23" class="edge">
<title>41&#45;&gt;22</title>
<path fill="none" stroke="black" stroke-dasharray="5,2" d="M1468.94,-636.82C1515.8,-624.48 1596.84,-602.87 1666,-583 1669.53,-581.99 1673.17,-580.92 1676.84,-579.84"/>
<polygon fill="black" stroke="black" points="1677.92,-583.17 1686.5,-576.95 1675.91,-576.46 1677.92,-583.17"/>
</g>
<!-- 41&#45;&gt;36 -->
<g id="edge36" class="edge">
<title>41&#45;&gt;36</title>
<path fill="none" stroke="black" d="M1475.17,-640.59C1541.92,-630.69 1670.61,-609.98 1778,-583 1781.58,-582.1 1785.28,-581.09 1788.98,-580.02"/>
<polygon fill="black" stroke="black" points="1790.11,-583.33 1798.68,-577.09 1788.09,-576.63 1790.11,-583.33"/>
<text text-anchor="middle" x="1695.5" y="-604" font-family="Times,serif" font-size="10.00">2</text>
</g>
<!-- 42 -->
<g id="node44" class="node">
<title>42</title>
<ellipse fill="none" stroke="black" cx="1946" cy="-565" rx="53.09" ry="18"/>
<text text-anchor="middle" x="1946" y="-561.3" font-family="Times,serif" font-size="14.00">M111 (b)</text>
</g>
<!-- 41&#45;&gt;42 -->
<g id="edge42" class="edge">
<title>41&#45;&gt;42</title>
<path fill="none" stroke="black" stroke-dasharray="1,5" d="M1477.46,-642.62C1560.52,-634.44 1737.35,-614.75 1884,-583 1888.35,-582.06 1892.85,-581 1897.35,-579.88"/>
<polygon fill="black" stroke="black" points="1898.32,-583.24 1907.13,-577.35 1896.58,-576.46 1898.32,-583.24"/>
</g>
<!-- 42&#45;&gt;7 -->
<g id="edge8" class="edge">
<title>42&#45;&gt;7</title>
<path fill="none" stroke="black" stroke-dasharray="5,2" d="M1946,-546.82C1946,-536.19 1946,-522.31 1946,-510.2"/>
<polygon fill="black" stroke="black" points="1949.5,-510.15 1946,-500.15 1942.5,-510.15 1949.5,-510.15"/>
</g>
</g>
</svg>
