<?xml version="1.0" encoding="UTF-8" standalone="no"?>
<!DOCTYPE svg PUBLIC "-//W3C//DTD SVG 1.1//EN"
 "http://www.w3.org/Graphics/SVG/1.1/DTD/svg11.dtd">
<!-- Generated by graphviz version 2.43.0 (0)
 -->
<!-- Title: textual_flow Pages: 1 -->
<svg width="2156pt" height="546pt"
 viewBox="0.00 0.00 2156.00 546.00" xmlns="http://www.w3.org/2000/svg" xmlns:xlink="http://www.w3.org/1999/xlink">
<g id="graph0" class="graph" transform="scale(1 1) rotate(0) translate(4 542)">
<title>textual_flow</title>
<polygon fill="white" stroke="transparent" points="-4,4 -4,-542 2152,-542 2152,4 -4,4"/>
<g id="clust1" class="cluster">
<title>cluster_legend</title>
<polygon fill="none" stroke="black" points="8,-476 8,-530 178,-530 178,-476 8,-476"/>
</g>
<g id="clust2" class="cluster">
<title>cluster_plot</title>
</g>
<!-- label -->
<g id="node1" class="node">
<title>label</title>
<text text-anchor="middle" x="93" y="-506.8" font-family="Times,serif" font-size="14.00">adstag1.3.55U4&#45;16</text>
<text text-anchor="middle" x="93" y="-491.8" font-family="Times,serif" font-size="14.00">Con = 5</text>
</g>
<!-- 0 -->
<g id="node2" class="node">
<title>0</title>
<ellipse fill="none" stroke="black" cx="425" cy="-419" rx="50.09" ry="18"/>
<text text-anchor="middle" x="425" y="-415.3" font-family="Times,serif" font-size="14.00">Neap (a)</text>
</g>
<!-- 19 -->
<g id="node21" class="node">
<title>19</title>
<ellipse fill="none" stroke="black" cx="250" cy="-336" rx="55.79" ry="18"/>
<text text-anchor="middle" x="250" y="-332.3" font-family="Times,serif" font-size="14.00">V1629 (a)</text>
</g>
<!-- 0&#45;&gt;19 -->
<g id="edge20" class="edge">
<title>0&#45;&gt;19</title>
<path fill="none" stroke="black" stroke-dasharray="1,5" d="M395.31,-404.26C366.29,-390.83 321.91,-370.28 289.83,-355.44"/>
<polygon fill="black" stroke="black" points="291.26,-352.24 280.72,-351.22 288.32,-358.59 291.26,-352.24"/>
</g>
<!-- 1 -->
<g id="node3" class="node">
<title>1</title>
<ellipse fill="none" stroke="black" cx="715" cy="-419" rx="50.09" ry="18"/>
<text text-anchor="middle" x="715" y="-415.3" font-family="Times,serif" font-size="14.00">Patm (a)</text>
</g>
<!-- 2 -->
<g id="node4" class="node">
<title>2</title>
<ellipse fill="none" stroke="black" cx="246" cy="-253" rx="50.09" ry="18"/>
<text text-anchor="middle" x="246" y="-249.3" font-family="Times,serif" font-size="14.00">V568 (a)</text>
</g>
<!-- 3 -->
<g id="node5" class="node">
<title>3</title>
<ellipse fill="none" stroke="black" cx="368" cy="-336" rx="44.39" ry="18"/>
<text text-anchor="middle" x="368" y="-332.3" font-family="Times,serif" font-size="14.00">P74 (a)</text>
</g>
<!-- 4 -->
<g id="node6" class="node">
<title>4</title>
<ellipse fill="none" stroke="black" cx="1552" cy="-107" rx="46.59" ry="18"/>
<text text-anchor="middle" x="1552" y="-103.3" font-family="Times,serif" font-size="14.00">Mon (h)</text>
</g>
<!-- 23 -->
<g id="node25" class="node">
<title>23</title>
<ellipse fill="none" stroke="black" cx="1552" cy="-34" rx="41.69" ry="18"/>
<text text-anchor="middle" x="1552" y="-30.3" font-family="Times,serif" font-size="14.00">Sin (h)</text>
</g>
<!-- 4&#45;&gt;23 -->
<g id="edge23" class="edge">
<title>4&#45;&gt;23</title>
<path fill="none" stroke="black" stroke-dasharray="1,5" d="M1552,-88.81C1552,-80.79 1552,-71.05 1552,-62.07"/>
<polygon fill="black" stroke="black" points="1555.5,-62.03 1552,-52.03 1548.5,-62.03 1555.5,-62.03"/>
</g>
<!-- 5 -->
<g id="node7" class="node">
<title>5</title>
<ellipse fill="none" stroke="black" cx="832" cy="-419" rx="48.99" ry="18"/>
<text text-anchor="middle" x="832" y="-415.3" font-family="Times,serif" font-size="14.00">La22 (a)</text>
</g>
<!-- 5&#45;&gt;3 -->
<g id="edge4" class="edge">
<title>5&#45;&gt;3</title>
<path fill="none" stroke="black" stroke-dasharray="1,5" d="M796.34,-406.54C789.01,-404.47 781.3,-402.5 774,-401 708.22,-387.51 690.57,-391.75 624,-383 533.64,-371.13 509.82,-374.43 421,-354 417.4,-353.17 413.69,-352.21 409.99,-351.18"/>
<polygon fill="black" stroke="black" points="410.85,-347.78 400.27,-348.3 408.87,-354.5 410.85,-347.78"/>
</g>
<!-- 6 -->
<g id="node8" class="node">
<title>6</title>
<ellipse fill="none" stroke="black" cx="480" cy="-336" rx="50.09" ry="18"/>
<text text-anchor="middle" x="480" y="-332.3" font-family="Times,serif" font-size="14.00">V565 (a)</text>
</g>
<!-- 5&#45;&gt;6 -->
<g id="edge7" class="edge">
<title>5&#45;&gt;6</title>
<path fill="none" stroke="black" stroke-dasharray="5,2" d="M795.62,-406.81C788.48,-404.76 781.03,-402.73 774,-401 670.57,-375.55 642.49,-379.21 539,-354 534.98,-353.02 530.82,-351.95 526.66,-350.83"/>
<polygon fill="black" stroke="black" points="527.58,-347.45 517.01,-348.17 525.72,-354.2 527.58,-347.45"/>
</g>
<!-- 9 -->
<g id="node11" class="node">
<title>9</title>
<ellipse fill="none" stroke="black" cx="597" cy="-336" rx="48.99" ry="18"/>
<text text-anchor="middle" x="597" y="-332.3" font-family="Times,serif" font-size="14.00">La35 (a)</text>
</g>
<!-- 5&#45;&gt;9 -->
<g id="edge10" class="edge">
<title>5&#45;&gt;9</title>
<path fill="none" stroke="black" stroke-dasharray="1,5" d="M797.58,-406.14C756.13,-391.85 686.43,-367.83 641.08,-352.19"/>
<polygon fill="black" stroke="black" points="642.11,-348.85 631.51,-348.9 639.83,-355.46 642.11,-348.85"/>
</g>
<!-- 14 -->
<g id="node16" class="node">
<title>14</title>
<ellipse fill="none" stroke="black" cx="714" cy="-336" rx="50.09" ry="18"/>
<text text-anchor="middle" x="714" y="-332.3" font-family="Times,serif" font-size="14.00">V571 (a)</text>
</g>
<!-- 5&#45;&gt;14 -->
<g id="edge15" class="edge">
<title>5&#45;&gt;14</title>
<path fill="none" stroke="black" stroke-dasharray="1,5" d="M809.81,-402.76C791.35,-390.09 764.88,-371.93 744.44,-357.9"/>
<polygon fill="black" stroke="black" points="746.32,-354.94 736.1,-352.17 742.36,-360.71 746.32,-354.94"/>
</g>
<!-- 24 -->
<g id="node26" class="node">
<title>24</title>
<ellipse fill="none" stroke="black" cx="832" cy="-336" rx="50.09" ry="18"/>
<text text-anchor="middle" x="832" y="-332.3" font-family="Times,serif" font-size="14.00">A116 (a)</text>
</g>
<!-- 5&#45;&gt;24 -->
<g id="edge24" class="edge">
<title>5&#45;&gt;24</title>
<path fill="none" stroke="black" stroke-dasharray="5,2" d="M832,-400.82C832,-390.19 832,-376.31 832,-364.2"/>
<polygon fill="black" stroke="black" points="835.5,-364.15 832,-354.15 828.5,-364.15 835.5,-364.15"/>
</g>
<!-- 32 -->
<g id="node34" class="node">
<title>32</title>
<ellipse fill="none" stroke="black" cx="947" cy="-336" rx="46.59" ry="18"/>
<text text-anchor="middle" x="947" y="-332.3" font-family="Times,serif" font-size="14.00">Bodl (a)</text>
</g>
<!-- 5&#45;&gt;32 -->
<g id="edge32" class="edge">
<title>5&#45;&gt;32</title>
<path fill="none" stroke="black" stroke-dasharray="5,2" d="M853.63,-402.76C871.54,-390.15 897.18,-372.09 917.06,-358.09"/>
<polygon fill="black" stroke="black" points="919.31,-360.79 925.47,-352.17 915.28,-355.06 919.31,-360.79"/>
</g>
<!-- 37 -->
<g id="node39" class="node">
<title>37</title>
<ellipse fill="none" stroke="black" cx="1064" cy="-336" rx="52.79" ry="18"/>
<text text-anchor="middle" x="1064" y="-332.3" font-family="Times,serif" font-size="14.00">M111 (a)</text>
</g>
<!-- 5&#45;&gt;37 -->
<g id="edge37" class="edge">
<title>5&#45;&gt;37</title>
<path fill="none" stroke="black" stroke-dasharray="1,5" d="M866.23,-406.05C906.75,-391.9 974.33,-368.31 1019.03,-352.7"/>
<polygon fill="black" stroke="black" points="1020.2,-356 1028.48,-349.4 1017.89,-349.39 1020.2,-356"/>
</g>
<!-- 7 -->
<g id="node9" class="node">
<title>7</title>
<ellipse fill="none" stroke="black" cx="1437" cy="-180" rx="47.39" ry="18"/>
<text text-anchor="middle" x="1437" y="-176.3" font-family="Times,serif" font-size="14.00">V569 (i)</text>
</g>
<!-- 8 -->
<g id="node10" class="node">
<title>8</title>
<ellipse fill="none" stroke="black" cx="1878" cy="-253" rx="55.79" ry="18"/>
<text text-anchor="middle" x="1878" y="-249.3" font-family="Times,serif" font-size="14.00">V1639 (a)</text>
</g>
<!-- 10 -->
<g id="node12" class="node">
<title>10</title>
<ellipse fill="none" stroke="black" cx="1022" cy="-419" rx="53.09" ry="18"/>
<text text-anchor="middle" x="1022" y="-415.3" font-family="Times,serif" font-size="14.00">LaSM (b)</text>
</g>
<!-- 25 -->
<g id="node27" class="node">
<title>25</title>
<ellipse fill="none" stroke="black" cx="1179" cy="-336" rx="44.69" ry="18"/>
<text text-anchor="middle" x="1179" y="-332.3" font-family="Times,serif" font-size="14.00">B39 (b)</text>
</g>
<!-- 10&#45;&gt;25 -->
<g id="edge25" class="edge">
<title>10&#45;&gt;25</title>
<path fill="none" stroke="black" stroke-dasharray="5,2" d="M1050.07,-403.52C1076.14,-390.07 1115.08,-369.98 1143.34,-355.4"/>
<polygon fill="black" stroke="black" points="1145.2,-358.38 1152.48,-350.68 1141.99,-352.16 1145.2,-358.38"/>
</g>
<!-- 11 -->
<g id="node13" class="node">
<title>11</title>
<ellipse fill="none" stroke="black" cx="1766" cy="-336" rx="44.39" ry="18"/>
<text text-anchor="middle" x="1766" y="-332.3" font-family="Times,serif" font-size="14.00">S32 (a)</text>
</g>
<!-- 12 -->
<g id="node14" class="node">
<title>12</title>
<ellipse fill="none" stroke="black" cx="1878" cy="-336" rx="50.09" ry="18"/>
<text text-anchor="middle" x="1878" y="-332.3" font-family="Times,serif" font-size="14.00">V566 (a)</text>
</g>
<!-- 12&#45;&gt;8 -->
<g id="edge9" class="edge">
<title>12&#45;&gt;8</title>
<path fill="none" stroke="black" stroke-dasharray="1,5" d="M1878,-317.82C1878,-307.19 1878,-293.31 1878,-281.2"/>
<polygon fill="black" stroke="black" points="1881.5,-281.15 1878,-271.15 1874.5,-281.15 1881.5,-281.15"/>
</g>
<!-- 13 -->
<g id="node15" class="node">
<title>13</title>
<ellipse fill="none" stroke="black" cx="1149" cy="-419" rx="55.79" ry="18"/>
<text text-anchor="middle" x="1149" y="-415.3" font-family="Times,serif" font-size="14.00">V2036 (a)</text>
</g>
<!-- 15 -->
<g id="node17" class="node">
<title>15</title>
<ellipse fill="none" stroke="black" cx="1273" cy="-419" rx="50.09" ry="18"/>
<text text-anchor="middle" x="1273" y="-415.3" font-family="Times,serif" font-size="14.00">V560 (d)</text>
</g>
<!-- 18 -->
<g id="node20" class="node">
<title>18</title>
<ellipse fill="none" stroke="black" cx="1298" cy="-336" rx="55.79" ry="18"/>
<text text-anchor="middle" x="1298" y="-332.3" font-family="Times,serif" font-size="14.00">V1920 (d)</text>
</g>
<!-- 15&#45;&gt;18 -->
<g id="edge19" class="edge">
<title>15&#45;&gt;18</title>
<path fill="none" stroke="black" stroke-dasharray="5,2" d="M1278.3,-400.82C1281.62,-390.08 1285.96,-376.03 1289.72,-363.84"/>
<polygon fill="black" stroke="black" points="1293.1,-364.74 1292.71,-354.15 1286.41,-362.68 1293.1,-364.74"/>
</g>
<!-- 16 -->
<g id="node18" class="node">
<title>16</title>
<ellipse fill="none" stroke="black" cx="1394" cy="-419" rx="52.79" ry="18"/>
<text text-anchor="middle" x="1394" y="-415.3" font-family="Times,serif" font-size="14.00">M136 (a)</text>
</g>
<!-- 17 -->
<g id="node19" class="node">
<title>17</title>
<ellipse fill="none" stroke="black" cx="1990" cy="-336" rx="44.39" ry="18"/>
<text text-anchor="middle" x="1990" y="-332.3" font-family="Times,serif" font-size="14.00">P01 (a)</text>
</g>
<!-- 19&#45;&gt;2 -->
<g id="edge3" class="edge">
<title>19&#45;&gt;2</title>
<path fill="none" stroke="black" stroke-dasharray="5,2" d="M249.15,-317.82C248.63,-307.19 247.94,-293.31 247.34,-281.2"/>
<polygon fill="black" stroke="black" points="250.84,-280.97 246.85,-271.15 243.84,-281.31 250.84,-280.97"/>
<text text-anchor="middle" x="251.5" y="-292" font-family="Times,serif" font-size="10.00">2</text>
</g>
<!-- 36 -->
<g id="node38" class="node">
<title>36</title>
<ellipse fill="none" stroke="gray" stroke-dasharray="5,2" cx="350" cy="-253" rx="36" ry="18"/>
<text text-anchor="middle" x="350" y="-249.3" font-family="Times,serif" font-size="14.00">La2&#45;c</text>
</g>
<!-- 19&#45;&gt;36 -->
<g id="edge36" class="edge">
<title>19&#45;&gt;36</title>
<path fill="none" stroke="gray" stroke-width="2" d="M269.76,-319C285.31,-306.4 307.12,-288.73 324.08,-275"/>
<polygon fill="gray" stroke="gray" stroke-width="2" points="326.4,-277.62 331.96,-268.61 321.99,-272.18 326.4,-277.62"/>
</g>
<!-- 20 -->
<g id="node22" class="node">
<title>20</title>
<ellipse fill="none" stroke="black" cx="1394" cy="-503" rx="53.89" ry="18"/>
<text text-anchor="middle" x="1394" y="-499.3" font-family="Times,serif" font-size="14.00">aBase (a)</text>
</g>
<!-- 20&#45;&gt;0 -->
<g id="edge1" class="edge">
<title>20&#45;&gt;0</title>
<path fill="none" stroke="black" stroke-width="2" d="M1341.41,-498.76C1249.28,-492.97 1052.74,-480.13 887,-466 740.99,-453.55 569.36,-435.58 482.14,-426.22"/>
<polygon fill="black" stroke="black" stroke-width="2" points="482.5,-422.73 472.18,-425.14 481.75,-429.69 482.5,-422.73"/>
</g>
<!-- 20&#45;&gt;1 -->
<g id="edge2" class="edge">
<title>20&#45;&gt;1</title>
<path fill="none" stroke="black" d="M1340.87,-499.59C1233.1,-494 981.41,-477.43 774,-437 769.82,-436.19 765.51,-435.21 761.21,-434.15"/>
<polygon fill="black" stroke="black" points="761.83,-430.69 751.26,-431.53 760.05,-437.46 761.83,-430.69"/>
</g>
<!-- 20&#45;&gt;5 -->
<g id="edge6" class="edge">
<title>20&#45;&gt;5</title>
<path fill="none" stroke="black" stroke-dasharray="5,2" d="M1345.6,-494.94C1241.39,-479.73 996.4,-443.99 886.74,-427.99"/>
<polygon fill="black" stroke="black" points="886.96,-424.48 876.56,-426.5 885.95,-431.41 886.96,-424.48"/>
</g>
<!-- 20&#45;&gt;10 -->
<g id="edge11" class="edge">
<title>20&#45;&gt;10</title>
<path fill="none" stroke="blue" d="M1348.37,-493.34C1287.74,-481.62 1177.41,-459.58 1084,-437 1079.91,-436.01 1075.68,-434.95 1071.44,-433.85"/>
<polygon fill="blue" stroke="blue" points="1072.16,-430.42 1061.6,-431.24 1070.37,-437.18 1072.16,-430.42"/>
</g>
<!-- 20&#45;&gt;13 -->
<g id="edge14" class="edge">
<title>20&#45;&gt;13</title>
<path fill="none" stroke="black" d="M1357.32,-489.72C1314.33,-475.33 1242.98,-451.46 1195.97,-435.72"/>
<polygon fill="black" stroke="black" points="1196.93,-432.35 1186.33,-432.49 1194.7,-438.99 1196.93,-432.35"/>
</g>
<!-- 20&#45;&gt;15 -->
<g id="edge16" class="edge">
<title>20&#45;&gt;15</title>
<path fill="none" stroke="blue" stroke-width="2" d="M1371.24,-486.58C1352.23,-473.69 1324.93,-455.2 1303.94,-440.97"/>
<polygon fill="blue" stroke="blue" stroke-width="2" points="1305.9,-438.07 1295.66,-435.35 1301.97,-443.86 1305.9,-438.07"/>
</g>
<!-- 20&#45;&gt;16 -->
<g id="edge17" class="edge">
<title>20&#45;&gt;16</title>
<path fill="none" stroke="black" stroke-width="2" d="M1394,-484.61C1394,-473.77 1394,-459.6 1394,-447.29"/>
<polygon fill="black" stroke="black" stroke-width="2" points="1397.5,-447.08 1394,-437.08 1390.5,-447.08 1397.5,-447.08"/>
</g>
<!-- 22 -->
<g id="node24" class="node">
<title>22</title>
<ellipse fill="none" stroke="black" cx="1510" cy="-419" rx="45.49" ry="18"/>
<text text-anchor="middle" x="1510" y="-415.3" font-family="Times,serif" font-size="14.00">Nan (h)</text>
</g>
<!-- 20&#45;&gt;22 -->
<g id="edge22" class="edge">
<title>20&#45;&gt;22</title>
<path fill="none" stroke="blue" d="M1416.09,-486.38C1434.38,-473.45 1460.53,-454.97 1480.59,-440.79"/>
<polygon fill="blue" stroke="blue" points="1482.63,-443.64 1488.77,-435.01 1478.59,-437.92 1482.63,-443.64"/>
</g>
<!-- 27 -->
<g id="node29" class="node">
<title>27</title>
<ellipse fill="none" stroke="black" cx="1629" cy="-419" rx="55.79" ry="18"/>
<text text-anchor="middle" x="1629" y="-415.3" font-family="Times,serif" font-size="14.00">V2250 (a)</text>
</g>
<!-- 20&#45;&gt;27 -->
<g id="edge27" class="edge">
<title>20&#45;&gt;27</title>
<path fill="none" stroke="black" stroke-width="2" d="M1429.95,-489.46C1470.91,-475.16 1537.98,-451.76 1582.8,-436.12"/>
<polygon fill="black" stroke="black" stroke-width="2" points="1583.99,-439.41 1592.28,-432.81 1581.69,-432.8 1583.99,-439.41"/>
<text text-anchor="middle" x="1528.5" y="-458" font-family="Times,serif" font-size="10.00">3</text>
</g>
<!-- 29 -->
<g id="node31" class="node">
<title>29</title>
<ellipse fill="none" stroke="black" cx="1746" cy="-419" rx="43.59" ry="18"/>
<text text-anchor="middle" x="1746" y="-415.3" font-family="Times,serif" font-size="14.00">La2 (d)</text>
</g>
<!-- 20&#45;&gt;29 -->
<g id="edge29" class="edge">
<title>20&#45;&gt;29</title>
<path fill="none" stroke="blue" stroke-width="2" d="M1440.1,-493.54C1499.29,-482.32 1605.02,-461.12 1694,-437 1697.31,-436.1 1700.72,-435.12 1704.13,-434.1"/>
<polygon fill="blue" stroke="blue" stroke-width="2" points="1705.19,-437.43 1713.7,-431.13 1703.11,-430.75 1705.19,-437.43"/>
</g>
<!-- 33 -->
<g id="node35" class="node">
<title>33</title>
<ellipse fill="none" stroke="black" cx="1852" cy="-419" rx="44.39" ry="18"/>
<text text-anchor="middle" x="1852" y="-415.3" font-family="Times,serif" font-size="14.00">A25 (a)</text>
</g>
<!-- 20&#45;&gt;33 -->
<g id="edge33" class="edge">
<title>20&#45;&gt;33</title>
<path fill="none" stroke="black" stroke-dasharray="5,2" d="M1444.36,-496.4C1521.43,-487.28 1672.95,-467.15 1799,-437 1802.44,-436.18 1805.98,-435.24 1809.52,-434.24"/>
<polygon fill="black" stroke="black" points="1810.83,-437.51 1819.42,-431.3 1808.84,-430.79 1810.83,-437.51"/>
</g>
<!-- 38 -->
<g id="node40" class="node">
<title>38</title>
<ellipse fill="none" stroke="gray" stroke-dasharray="5,2" cx="1964" cy="-419" rx="50.09" ry="18"/>
<text text-anchor="middle" x="1964" y="-415.3" font-family="Times,serif" font-size="14.00">Savile&#45;Η</text>
</g>
<!-- 20&#45;&gt;38 -->
<g id="edge38" class="edge">
<title>20&#45;&gt;38</title>
<path fill="none" stroke="gray" stroke-width="2" d="M1446.33,-498.18C1539.38,-490.77 1739.41,-471.99 1905,-437 1909.11,-436.13 1913.35,-435.13 1917.58,-434.05"/>
<polygon fill="gray" stroke="gray" stroke-width="2" points="1918.62,-437.4 1927.38,-431.44 1916.82,-430.63 1918.62,-437.4"/>
</g>
<!-- 42 -->
<g id="node44" class="node">
<title>42</title>
<ellipse fill="none" stroke="black" cx="2082" cy="-419" rx="50.09" ry="18"/>
<text text-anchor="middle" x="2082" y="-415.3" font-family="Times,serif" font-size="14.00">S249 (a)</text>
</g>
<!-- 20&#45;&gt;42 -->
<g id="edge42" class="edge">
<title>20&#45;&gt;42</title>
<path fill="none" stroke="black" d="M1447.55,-499.99C1556.76,-495.13 1812.68,-479.77 2023,-437 2027.17,-436.15 2031.48,-435.15 2035.77,-434.07"/>
<polygon fill="black" stroke="black" points="2036.95,-437.38 2045.72,-431.44 2035.15,-430.62 2036.95,-437.38"/>
</g>
<!-- 21 -->
<g id="node23" class="node">
<title>21</title>
<ellipse fill="none" stroke="black" cx="1552" cy="-253" rx="47.39" ry="18"/>
<text text-anchor="middle" x="1552" y="-249.3" font-family="Times,serif" font-size="14.00">Taur (h)</text>
</g>
<!-- 21&#45;&gt;7 -->
<g id="edge8" class="edge">
<title>21&#45;&gt;7</title>
<path fill="none" stroke="blue" stroke-dasharray="5,2" d="M1528.17,-237.29C1511.21,-226.82 1488.21,-212.62 1469.56,-201.1"/>
<polygon fill="blue" stroke="blue" points="1471.15,-197.97 1460.8,-195.69 1467.47,-203.92 1471.15,-197.97"/>
</g>
<!-- 30 -->
<g id="node32" class="node">
<title>30</title>
<ellipse fill="none" stroke="black" cx="1552" cy="-180" rx="50.09" ry="18"/>
<text text-anchor="middle" x="1552" y="-176.3" font-family="Times,serif" font-size="14.00">Marc (h)</text>
</g>
<!-- 21&#45;&gt;30 -->
<g id="edge30" class="edge">
<title>21&#45;&gt;30</title>
<path fill="none" stroke="black" stroke-dasharray="1,5" d="M1552,-234.81C1552,-226.79 1552,-217.05 1552,-208.07"/>
<polygon fill="black" stroke="black" points="1555.5,-208.03 1552,-198.03 1548.5,-208.03 1555.5,-208.03"/>
</g>
<!-- 39 -->
<g id="node41" class="node">
<title>39</title>
<ellipse fill="none" stroke="black" cx="1673" cy="-180" rx="53.09" ry="18"/>
<text text-anchor="middle" x="1673" y="-176.3" font-family="Times,serif" font-size="14.00">M118 (h)</text>
</g>
<!-- 21&#45;&gt;39 -->
<g id="edge39" class="edge">
<title>21&#45;&gt;39</title>
<path fill="none" stroke="black" stroke-dasharray="5,2" d="M1576.78,-237.46C1594.65,-226.98 1618.99,-212.69 1638.72,-201.11"/>
<polygon fill="black" stroke="black" points="1640.57,-204.09 1647.42,-196.01 1637.02,-198.05 1640.57,-204.09"/>
</g>
<!-- 26 -->
<g id="node28" class="node">
<title>26</title>
<ellipse fill="none" stroke="black" cx="1428" cy="-336" rx="55.79" ry="18"/>
<text text-anchor="middle" x="1428" y="-332.3" font-family="Times,serif" font-size="14.00">V1897 (g)</text>
</g>
<!-- 22&#45;&gt;26 -->
<g id="edge26" class="edge">
<title>22&#45;&gt;26</title>
<path fill="none" stroke="blue" stroke-dasharray="1,5" d="M1493.8,-402C1481.75,-390.09 1465.12,-373.67 1451.59,-360.31"/>
<polygon fill="blue" stroke="blue" points="1454.02,-357.78 1444.45,-353.25 1449.1,-362.76 1454.02,-357.78"/>
</g>
<!-- 34 -->
<g id="node36" class="node">
<title>34</title>
<ellipse fill="none" stroke="black" cx="1552" cy="-336" rx="50.09" ry="18"/>
<text text-anchor="middle" x="1552" y="-332.3" font-family="Times,serif" font-size="14.00">V536 (h)</text>
</g>
<!-- 22&#45;&gt;34 -->
<g id="edge34" class="edge">
<title>22&#45;&gt;34</title>
<path fill="none" stroke="black" stroke-width="2" d="M1518.7,-401.22C1524.45,-390.14 1532.09,-375.41 1538.6,-362.85"/>
<polygon fill="black" stroke="black" stroke-width="2" points="1541.81,-364.25 1543.31,-353.76 1535.6,-361.03 1541.81,-364.25"/>
<text text-anchor="middle" x="1536.5" y="-375" font-family="Times,serif" font-size="10.00">3</text>
</g>
<!-- 35 -->
<g id="node37" class="node">
<title>35</title>
<ellipse fill="none" stroke="black" cx="1662" cy="-336" rx="42.49" ry="18"/>
<text text-anchor="middle" x="1662" y="-332.3" font-family="Times,serif" font-size="14.00">Est (h)</text>
</g>
<!-- 22&#45;&gt;35 -->
<g id="edge35" class="edge">
<title>22&#45;&gt;35</title>
<path fill="none" stroke="black" stroke-dasharray="5,2" d="M1536.13,-404.08C1561.45,-390.58 1599.99,-370.05 1627.75,-355.25"/>
<polygon fill="black" stroke="black" points="1629.54,-358.27 1636.72,-350.47 1626.25,-352.09 1629.54,-358.27"/>
<text text-anchor="middle" x="1598.5" y="-375" font-family="Times,serif" font-size="10.00">2</text>
</g>
<!-- 40 -->
<g id="node42" class="node">
<title>40</title>
<ellipse fill="none" stroke="black" cx="1428" cy="-253" rx="42.49" ry="18"/>
<text text-anchor="middle" x="1428" y="-249.3" font-family="Times,serif" font-size="14.00">Bas (c)</text>
</g>
<!-- 26&#45;&gt;40 -->
<g id="edge40" class="edge">
<title>26&#45;&gt;40</title>
<path fill="none" stroke="blue" d="M1428,-317.82C1428,-307.19 1428,-293.31 1428,-281.2"/>
<polygon fill="blue" stroke="blue" points="1431.5,-281.15 1428,-271.15 1424.5,-281.15 1431.5,-281.15"/>
</g>
<!-- 28 -->
<g id="node30" class="node">
<title>28</title>
<ellipse fill="none" stroke="gray" stroke-dasharray="5,2" cx="1673" cy="-107" rx="28.7" ry="18"/>
<text text-anchor="middle" x="1673" y="-103.3" font-family="Times,serif" font-size="14.00">P18</text>
</g>
<!-- 30&#45;&gt;4 -->
<g id="edge5" class="edge">
<title>30&#45;&gt;4</title>
<path fill="none" stroke="black" stroke-dasharray="1,5" d="M1552,-161.81C1552,-153.79 1552,-144.05 1552,-135.07"/>
<polygon fill="black" stroke="black" points="1555.5,-135.03 1552,-125.03 1548.5,-135.03 1555.5,-135.03"/>
</g>
<!-- 31 -->
<g id="node33" class="node">
<title>31</title>
<ellipse fill="none" stroke="black" cx="2092" cy="-336" rx="40.09" ry="18"/>
<text text-anchor="middle" x="2092" y="-332.3" font-family="Times,serif" font-size="14.00">Pal (e)</text>
</g>
<!-- 33&#45;&gt;11 -->
<g id="edge12" class="edge">
<title>33&#45;&gt;11</title>
<path fill="none" stroke="black" stroke-dasharray="5,2" d="M1835.01,-402C1822.21,-389.94 1804.47,-373.24 1790.19,-359.78"/>
<polygon fill="black" stroke="black" points="1792.34,-357 1782.66,-352.69 1787.54,-362.1 1792.34,-357"/>
</g>
<!-- 33&#45;&gt;12 -->
<g id="edge13" class="edge">
<title>33&#45;&gt;12</title>
<path fill="none" stroke="black" stroke-dasharray="5,2" d="M1857.51,-400.82C1860.96,-390.08 1865.47,-376.03 1869.39,-363.84"/>
<polygon fill="black" stroke="black" points="1872.77,-364.74 1872.49,-354.15 1866.11,-362.61 1872.77,-364.74"/>
</g>
<!-- 33&#45;&gt;17 -->
<g id="edge18" class="edge">
<title>33&#45;&gt;17</title>
<path fill="none" stroke="black" stroke-dasharray="5,2" d="M1876.04,-403.89C1898.46,-390.73 1932.1,-370.99 1957.02,-356.36"/>
<polygon fill="black" stroke="black" points="1958.92,-359.3 1965.77,-351.22 1955.38,-353.26 1958.92,-359.3"/>
</g>
<!-- 33&#45;&gt;31 -->
<g id="edge31" class="edge">
<title>33&#45;&gt;31</title>
<path fill="none" stroke="blue" stroke-dasharray="5,2" d="M1885.16,-407.01C1923.28,-394.34 1987.72,-372.85 2043,-354 2045.76,-353.06 2048.6,-352.09 2051.46,-351.1"/>
<polygon fill="blue" stroke="blue" points="2052.86,-354.32 2061.17,-347.75 2050.58,-347.7 2052.86,-354.32"/>
</g>
<!-- 34&#45;&gt;21 -->
<g id="edge21" class="edge">
<title>34&#45;&gt;21</title>
<path fill="none" stroke="black" stroke-dasharray="1,5" d="M1552,-317.82C1552,-307.19 1552,-293.31 1552,-281.2"/>
<polygon fill="black" stroke="black" points="1555.5,-281.15 1552,-271.15 1548.5,-281.15 1555.5,-281.15"/>
<text text-anchor="middle" x="1555.5" y="-292" font-family="Times,serif" font-size="10.00">2</text>
</g>
<!-- 41 -->
<g id="node43" class="node">
<title>41</title>
<ellipse fill="none" stroke="black" cx="1064" cy="-253" rx="50.09" ry="18"/>
<text text-anchor="middle" x="1064" y="-249.3" font-family="Times,serif" font-size="14.00">A336 (a)</text>
</g>
<!-- 37&#45;&gt;41 -->
<g id="edge41" class="edge">
<title>37&#45;&gt;41</title>
<path fill="none" stroke="black" stroke-dasharray="5,2" d="M1064,-317.82C1064,-307.19 1064,-293.31 1064,-281.2"/>
<polygon fill="black" stroke="black" points="1067.5,-281.15 1064,-271.15 1060.5,-281.15 1067.5,-281.15"/>
</g>
<!-- 39&#45;&gt;28 -->
<g id="edge28" class="edge">
<title>39&#45;&gt;28</title>
<path fill="none" stroke="gray" stroke-dasharray="5,2" d="M1673,-161.81C1673,-153.79 1673,-144.05 1673,-135.07"/>
<polygon fill="gray" stroke="gray" points="1676.5,-135.03 1673,-125.03 1669.5,-135.03 1676.5,-135.03"/>
</g>
</g>
</svg>
