<?xml version="1.0" encoding="UTF-8" standalone="no"?>
<!DOCTYPE svg PUBLIC "-//W3C//DTD SVG 1.1//EN"
 "http://www.w3.org/Graphics/SVG/1.1/DTD/svg11.dtd">
<!-- Generated by graphviz version 2.43.0 (0)
 -->
<!-- Title: textual_flow Pages: 1 -->
<svg width="1781pt" height="654pt"
 viewBox="0.00 0.00 1781.00 654.00" xmlns="http://www.w3.org/2000/svg" xmlns:xlink="http://www.w3.org/1999/xlink">
<g id="graph0" class="graph" transform="scale(1 1) rotate(0) translate(4 650)">
<title>textual_flow</title>
<polygon fill="white" stroke="transparent" points="-4,4 -4,-650 1777,-650 1777,4 -4,4"/>
<g id="clust1" class="cluster">
<title>cluster_legend</title>
<polygon fill="none" stroke="black" points="8,-584 8,-638 156,-638 156,-584 8,-584"/>
</g>
<g id="clust2" class="cluster">
<title>cluster_plot</title>
</g>
<!-- label -->
<g id="node1" class="node">
<title>label</title>
<text text-anchor="middle" x="82" y="-614.8" font-family="Times,serif" font-size="14.00">adstag1.2.24U3</text>
<text text-anchor="middle" x="82" y="-599.8" font-family="Times,serif" font-size="14.00">Con = 1</text>
</g>
<!-- 0 -->
<g id="node2" class="node">
<title>0</title>
<ellipse fill="none" stroke="black" cx="550" cy="-538" rx="44.39" ry="18"/>
<text text-anchor="middle" x="550" y="-534.3" font-family="Times,serif" font-size="14.00">A25 (a)</text>
</g>
<!-- 15 -->
<g id="node17" class="node">
<title>15</title>
<ellipse fill="none" stroke="black" cx="219" cy="-466" rx="40.09" ry="18"/>
<text text-anchor="middle" x="219" y="-462.3" font-family="Times,serif" font-size="14.00">Pal (a)</text>
</g>
<!-- 0&#45;&gt;15 -->
<g id="edge15" class="edge">
<title>0&#45;&gt;15</title>
<path fill="none" stroke="black" stroke-dasharray="5,2" d="M508.95,-531.24C453.67,-523.04 352.49,-506.46 268,-484 264.87,-483.17 261.65,-482.23 258.42,-481.24"/>
<polygon fill="black" stroke="black" points="259.43,-477.89 248.84,-478.14 257.28,-484.55 259.43,-477.89"/>
</g>
<!-- 19 -->
<g id="node21" class="node">
<title>19</title>
<ellipse fill="none" stroke="black" cx="327" cy="-466" rx="50.09" ry="18"/>
<text text-anchor="middle" x="327" y="-462.3" font-family="Times,serif" font-size="14.00">V566 (a)</text>
</g>
<!-- 0&#45;&gt;19 -->
<g id="edge19" class="edge">
<title>0&#45;&gt;19</title>
<path fill="none" stroke="black" stroke-dasharray="5,2" d="M516.13,-526.37C477.92,-514.38 415.57,-494.8 372.99,-481.44"/>
<polygon fill="black" stroke="black" points="374,-478.09 363.41,-478.43 371.91,-484.76 374,-478.09"/>
</g>
<!-- 22 -->
<g id="node24" class="node">
<title>22</title>
<ellipse fill="none" stroke="black" cx="439" cy="-466" rx="44.39" ry="18"/>
<text text-anchor="middle" x="439" y="-462.3" font-family="Times,serif" font-size="14.00">S32 (a)</text>
</g>
<!-- 0&#45;&gt;22 -->
<g id="edge22" class="edge">
<title>0&#45;&gt;22</title>
<path fill="none" stroke="black" stroke-dasharray="5,2" d="M527,-522.5C510.78,-512.27 488.84,-498.43 470.92,-487.13"/>
<polygon fill="black" stroke="black" points="472.3,-483.86 461.97,-481.49 468.56,-489.78 472.3,-483.86"/>
</g>
<!-- 27 -->
<g id="node29" class="node">
<title>27</title>
<ellipse fill="none" stroke="black" cx="550" cy="-466" rx="48.99" ry="18"/>
<text text-anchor="middle" x="550" y="-462.3" font-family="Times,serif" font-size="14.00">La22 (a)</text>
</g>
<!-- 0&#45;&gt;27 -->
<g id="edge27" class="edge">
<title>0&#45;&gt;27</title>
<path fill="none" stroke="black" stroke-dasharray="1,5" d="M550,-519.7C550,-511.98 550,-502.71 550,-494.11"/>
<polygon fill="black" stroke="black" points="553.5,-494.1 550,-484.1 546.5,-494.1 553.5,-494.1"/>
</g>
<!-- 34 -->
<g id="node36" class="node">
<title>34</title>
<ellipse fill="none" stroke="black" cx="667" cy="-466" rx="50.09" ry="18"/>
<text text-anchor="middle" x="667" y="-462.3" font-family="Times,serif" font-size="14.00">Patm (a)</text>
</g>
<!-- 0&#45;&gt;34 -->
<g id="edge34" class="edge">
<title>0&#45;&gt;34</title>
<path fill="none" stroke="black" stroke-dasharray="1,5" d="M573.96,-522.67C591.16,-512.38 614.56,-498.37 633.6,-486.99"/>
<polygon fill="black" stroke="black" points="635.48,-489.94 642.27,-481.8 631.89,-483.93 635.48,-489.94"/>
</g>
<!-- 39 -->
<g id="node41" class="node">
<title>39</title>
<ellipse fill="none" stroke="black" cx="779" cy="-466" rx="44.39" ry="18"/>
<text text-anchor="middle" x="779" y="-462.3" font-family="Times,serif" font-size="14.00">P01 (a)</text>
</g>
<!-- 0&#45;&gt;39 -->
<g id="edge39" class="edge">
<title>0&#45;&gt;39</title>
<path fill="none" stroke="black" stroke-dasharray="5,2" d="M584.79,-526.72C620.33,-516.18 677.09,-499.21 726,-484 729.14,-483.02 732.38,-482.01 735.63,-480.98"/>
<polygon fill="black" stroke="black" points="736.91,-484.25 745.38,-477.88 734.79,-477.57 736.91,-484.25"/>
</g>
<!-- 1 -->
<g id="node3" class="node">
<title>1</title>
<ellipse fill="none" stroke="black" cx="1299" cy="-178" rx="41.69" ry="18"/>
<text text-anchor="middle" x="1299" y="-174.3" font-family="Times,serif" font-size="14.00">Sin (b)</text>
</g>
<!-- 6 -->
<g id="node8" class="node">
<title>6</title>
<ellipse fill="none" stroke="black" cx="1299" cy="-106" rx="50.09" ry="18"/>
<text text-anchor="middle" x="1299" y="-102.3" font-family="Times,serif" font-size="14.00">Marc (b)</text>
</g>
<!-- 1&#45;&gt;6 -->
<g id="edge7" class="edge">
<title>1&#45;&gt;6</title>
<path fill="none" stroke="black" stroke-dasharray="1,5" d="M1299,-159.7C1299,-151.98 1299,-142.71 1299,-134.11"/>
<polygon fill="black" stroke="black" points="1302.5,-134.1 1299,-124.1 1295.5,-134.1 1302.5,-134.1"/>
</g>
<!-- 2 -->
<g id="node4" class="node">
<title>2</title>
<ellipse fill="none" stroke="black" cx="930" cy="-538" rx="52.79" ry="18"/>
<text text-anchor="middle" x="930" y="-534.3" font-family="Times,serif" font-size="14.00">LaSM (a)</text>
</g>
<!-- 30 -->
<g id="node32" class="node">
<title>30</title>
<ellipse fill="none" stroke="black" cx="885" cy="-466" rx="44.39" ry="18"/>
<text text-anchor="middle" x="885" y="-462.3" font-family="Times,serif" font-size="14.00">B39 (a)</text>
</g>
<!-- 2&#45;&gt;30 -->
<g id="edge30" class="edge">
<title>2&#45;&gt;30</title>
<path fill="none" stroke="black" stroke-dasharray="5,2" d="M919.11,-520.05C913.75,-511.71 907.17,-501.49 901.23,-492.25"/>
<polygon fill="black" stroke="black" points="904.14,-490.31 895.79,-483.79 898.26,-494.09 904.14,-490.31"/>
</g>
<!-- 3 -->
<g id="node5" class="node">
<title>3</title>
<ellipse fill="none" stroke="black" cx="1412" cy="-178" rx="53.09" ry="18"/>
<text text-anchor="middle" x="1412" y="-174.3" font-family="Times,serif" font-size="14.00">M118 (b)</text>
</g>
<!-- 8 -->
<g id="node10" class="node">
<title>8</title>
<ellipse fill="none" stroke="gray" stroke-dasharray="5,2" cx="1412" cy="-106" rx="28.7" ry="18"/>
<text text-anchor="middle" x="1412" y="-102.3" font-family="Times,serif" font-size="14.00">P18</text>
</g>
<!-- 3&#45;&gt;8 -->
<g id="edge9" class="edge">
<title>3&#45;&gt;8</title>
<path fill="none" stroke="gray" stroke-dasharray="5,2" d="M1412,-159.7C1412,-151.98 1412,-142.71 1412,-134.11"/>
<polygon fill="gray" stroke="gray" points="1415.5,-134.1 1412,-124.1 1408.5,-134.1 1415.5,-134.1"/>
</g>
<!-- 4 -->
<g id="node6" class="node">
<title>4</title>
<ellipse fill="none" stroke="black" cx="1299" cy="-34" rx="46.59" ry="18"/>
<text text-anchor="middle" x="1299" y="-30.3" font-family="Times,serif" font-size="14.00">Mon (b)</text>
</g>
<!-- 5 -->
<g id="node7" class="node">
<title>5</title>
<ellipse fill="none" stroke="gray" stroke-dasharray="5,2" cx="222" cy="-394" rx="50.09" ry="18"/>
<text text-anchor="middle" x="222" y="-390.3" font-family="Times,serif" font-size="14.00">Savile&#45;Η</text>
</g>
<!-- 6&#45;&gt;4 -->
<g id="edge5" class="edge">
<title>6&#45;&gt;4</title>
<path fill="none" stroke="black" stroke-dasharray="1,5" d="M1299,-87.7C1299,-79.98 1299,-70.71 1299,-62.11"/>
<polygon fill="black" stroke="black" points="1302.5,-62.1 1299,-52.1 1295.5,-62.1 1302.5,-62.1"/>
</g>
<!-- 7 -->
<g id="node9" class="node">
<title>7</title>
<ellipse fill="none" stroke="black" cx="703" cy="-322" rx="50.09" ry="18"/>
<text text-anchor="middle" x="703" y="-318.3" font-family="Times,serif" font-size="14.00">A336 (a)</text>
</g>
<!-- 9 -->
<g id="node11" class="node">
<title>9</title>
<ellipse fill="none" stroke="black" cx="1571" cy="-466" rx="55.79" ry="18"/>
<text text-anchor="middle" x="1571" y="-462.3" font-family="Times,serif" font-size="14.00">V2250 (a)</text>
</g>
<!-- 10 -->
<g id="node12" class="node">
<title>10</title>
<ellipse fill="none" stroke="black" cx="1613" cy="-394" rx="42.79" ry="18"/>
<text text-anchor="middle" x="1613" y="-390.3" font-family="Times,serif" font-size="14.00">Bas (a)</text>
</g>
<!-- 11 -->
<g id="node13" class="node">
<title>11</title>
<ellipse fill="none" stroke="black" cx="1274" cy="-611" rx="53.89" ry="18"/>
<text text-anchor="middle" x="1274" y="-607.3" font-family="Times,serif" font-size="14.00">aBase (a)</text>
</g>
<!-- 11&#45;&gt;0 -->
<g id="edge1" class="edge">
<title>11&#45;&gt;0</title>
<path fill="none" stroke="black" stroke-dasharray="5,2" d="M1223.09,-605.01C1090.71,-592.03 736.68,-557.31 602.52,-544.15"/>
<polygon fill="black" stroke="black" points="602.78,-540.66 592.49,-543.17 602.1,-547.63 602.78,-540.66"/>
</g>
<!-- 11&#45;&gt;2 -->
<g id="edge3" class="edge">
<title>11&#45;&gt;2</title>
<path fill="none" stroke="black" d="M1229.38,-600.79C1166.35,-587.78 1051.41,-564.06 983.76,-550.1"/>
<polygon fill="black" stroke="black" points="984.23,-546.62 973.73,-548.02 982.81,-553.47 984.23,-546.62"/>
</g>
<!-- 23 -->
<g id="node25" class="node">
<title>23</title>
<ellipse fill="none" stroke="black" cx="1096" cy="-538" rx="50.89" ry="18"/>
<text text-anchor="middle" x="1096" y="-534.3" font-family="Times,serif" font-size="14.00">Neap (b)</text>
</g>
<!-- 11&#45;&gt;23 -->
<g id="edge23" class="edge">
<title>11&#45;&gt;23</title>
<path fill="none" stroke="blue" stroke-width="2" d="M1240.52,-596.65C1211.41,-585.03 1169.09,-568.16 1137.77,-555.66"/>
<polygon fill="blue" stroke="blue" stroke-width="2" points="1139.01,-552.39 1128.43,-551.94 1136.42,-558.89 1139.01,-552.39"/>
</g>
<!-- 31 -->
<g id="node33" class="node">
<title>31</title>
<ellipse fill="none" stroke="black" cx="1215" cy="-538" rx="50.09" ry="18"/>
<text text-anchor="middle" x="1215" y="-534.3" font-family="Times,serif" font-size="14.00">S249 (a)</text>
</g>
<!-- 11&#45;&gt;31 -->
<g id="edge31" class="edge">
<title>11&#45;&gt;31</title>
<path fill="none" stroke="black" d="M1260.32,-593.53C1252.87,-584.57 1243.51,-573.31 1235.24,-563.36"/>
<polygon fill="black" stroke="black" points="1237.69,-560.83 1228.61,-555.38 1232.31,-565.31 1237.69,-560.83"/>
</g>
<!-- 33 -->
<g id="node35" class="node">
<title>33</title>
<ellipse fill="none" stroke="black" cx="1333" cy="-538" rx="50.09" ry="18"/>
<text text-anchor="middle" x="1333" y="-534.3" font-family="Times,serif" font-size="14.00">V560 (a)</text>
</g>
<!-- 11&#45;&gt;33 -->
<g id="edge33" class="edge">
<title>11&#45;&gt;33</title>
<path fill="none" stroke="black" stroke-width="2" d="M1287.68,-593.53C1295.13,-584.57 1304.49,-573.31 1312.76,-563.36"/>
<polygon fill="black" stroke="black" stroke-width="2" points="1315.69,-565.31 1319.39,-555.38 1310.31,-560.83 1315.69,-565.31"/>
</g>
<!-- 38 -->
<g id="node40" class="node">
<title>38</title>
<ellipse fill="none" stroke="black" cx="1454" cy="-538" rx="53.09" ry="18"/>
<text text-anchor="middle" x="1454" y="-534.3" font-family="Times,serif" font-size="14.00">M136 (b)</text>
</g>
<!-- 11&#45;&gt;38 -->
<g id="edge38" class="edge">
<title>11&#45;&gt;38</title>
<path fill="none" stroke="blue" stroke-width="2" d="M1307.43,-596.81C1336.73,-585.25 1379.49,-568.39 1411.26,-555.86"/>
<polygon fill="blue" stroke="blue" stroke-width="2" points="1412.73,-559.04 1420.74,-552.12 1410.16,-552.53 1412.73,-559.04"/>
</g>
<!-- 42 -->
<g id="node44" class="node">
<title>42</title>
<ellipse fill="none" stroke="black" cx="1570" cy="-538" rx="44.69" ry="18"/>
<text text-anchor="middle" x="1570" y="-534.3" font-family="Times,serif" font-size="14.00">Nan (a)</text>
</g>
<!-- 11&#45;&gt;42 -->
<g id="edge42" class="edge">
<title>11&#45;&gt;42</title>
<path fill="none" stroke="black" d="M1319.33,-601.09C1368.16,-591.21 1448.02,-574.25 1516,-556 1519.53,-555.05 1523.17,-554.02 1526.82,-552.95"/>
<polygon fill="black" stroke="black" points="1527.86,-556.29 1536.43,-550.06 1525.84,-549.59 1527.86,-556.29"/>
</g>
<!-- 44 -->
<g id="node46" class="node">
<title>44</title>
<ellipse fill="none" stroke="black" cx="1676" cy="-538" rx="42.79" ry="18"/>
<text text-anchor="middle" x="1676" y="-534.3" font-family="Times,serif" font-size="14.00">La2 (a)</text>
</g>
<!-- 11&#45;&gt;44 -->
<g id="edge44" class="edge">
<title>11&#45;&gt;44</title>
<path fill="none" stroke="black" stroke-width="2" d="M1324.93,-604.78C1393.51,-597.15 1519.05,-581.07 1624,-556 1627.43,-555.18 1630.96,-554.24 1634.48,-553.23"/>
<polygon fill="black" stroke="black" stroke-width="2" points="1635.77,-556.5 1644.33,-550.26 1633.75,-549.8 1635.77,-556.5"/>
</g>
<!-- 12 -->
<g id="node14" class="node">
<title>12</title>
<ellipse fill="none" stroke="black" cx="467" cy="-394" rx="46.59" ry="18"/>
<text text-anchor="middle" x="467" y="-390.3" font-family="Times,serif" font-size="14.00">Bodl (a)</text>
</g>
<!-- 13 -->
<g id="node15" class="node">
<title>13</title>
<ellipse fill="none" stroke="black" cx="582" cy="-394" rx="50.09" ry="18"/>
<text text-anchor="middle" x="582" y="-390.3" font-family="Times,serif" font-size="14.00">V571 (a)</text>
</g>
<!-- 14 -->
<g id="node16" class="node">
<title>14</title>
<ellipse fill="none" stroke="black" cx="1412" cy="-250" rx="47.39" ry="18"/>
<text text-anchor="middle" x="1412" y="-246.3" font-family="Times,serif" font-size="14.00">Taur (b)</text>
</g>
<!-- 14&#45;&gt;1 -->
<g id="edge2" class="edge">
<title>14&#45;&gt;1</title>
<path fill="none" stroke="black" stroke-dasharray="1,5" d="M1388.31,-234.33C1371.52,-223.92 1348.8,-209.85 1330.48,-198.5"/>
<polygon fill="black" stroke="black" points="1332.23,-195.47 1321.89,-193.18 1328.54,-201.42 1332.23,-195.47"/>
</g>
<!-- 14&#45;&gt;3 -->
<g id="edge4" class="edge">
<title>14&#45;&gt;3</title>
<path fill="none" stroke="black" stroke-dasharray="5,2" d="M1412,-231.7C1412,-223.98 1412,-214.71 1412,-206.11"/>
<polygon fill="black" stroke="black" points="1415.5,-206.1 1412,-196.1 1408.5,-206.1 1415.5,-206.1"/>
</g>
<!-- 40 -->
<g id="node42" class="node">
<title>40</title>
<ellipse fill="none" stroke="black" cx="1533" cy="-178" rx="50.09" ry="18"/>
<text text-anchor="middle" x="1533" y="-174.3" font-family="Times,serif" font-size="14.00">V569 (b)</text>
</g>
<!-- 14&#45;&gt;40 -->
<g id="edge40" class="edge">
<title>14&#45;&gt;40</title>
<path fill="none" stroke="black" stroke-dasharray="5,2" d="M1437.07,-234.5C1454.96,-224.15 1479.23,-210.11 1498.88,-198.74"/>
<polygon fill="black" stroke="black" points="1500.64,-201.76 1507.54,-193.73 1497.14,-195.7 1500.64,-201.76"/>
</g>
<!-- 15&#45;&gt;5 -->
<g id="edge6" class="edge">
<title>15&#45;&gt;5</title>
<path fill="none" stroke="gray" d="M219.74,-447.7C220.07,-439.98 220.47,-430.71 220.84,-422.11"/>
<polygon fill="gray" stroke="gray" points="224.34,-422.25 221.27,-412.1 217.34,-421.95 224.34,-422.25"/>
</g>
<!-- 16 -->
<g id="node18" class="node">
<title>16</title>
<ellipse fill="none" stroke="black" cx="1715" cy="-394" rx="41.69" ry="18"/>
<text text-anchor="middle" x="1715" y="-390.3" font-family="Times,serif" font-size="14.00">Est (a)</text>
</g>
<!-- 17 -->
<g id="node19" class="node">
<title>17</title>
<ellipse fill="none" stroke="black" cx="1701" cy="-466" rx="55.79" ry="18"/>
<text text-anchor="middle" x="1701" y="-462.3" font-family="Times,serif" font-size="14.00">V1897 (a)</text>
</g>
<!-- 17&#45;&gt;10 -->
<g id="edge11" class="edge">
<title>17&#45;&gt;10</title>
<path fill="none" stroke="black" d="M1681.03,-449.12C1668.94,-439.5 1653.35,-427.1 1640.14,-416.59"/>
<polygon fill="black" stroke="black" points="1642.29,-413.83 1632.28,-410.34 1637.93,-419.3 1642.29,-413.83"/>
</g>
<!-- 17&#45;&gt;16 -->
<g id="edge16" class="edge">
<title>17&#45;&gt;16</title>
<path fill="none" stroke="black" stroke-dasharray="1,5" d="M1704.46,-447.7C1706,-439.98 1707.86,-430.71 1709.58,-422.11"/>
<polygon fill="black" stroke="black" points="1713.05,-422.6 1711.58,-412.1 1706.19,-421.22 1713.05,-422.6"/>
</g>
<!-- 18 -->
<g id="node20" class="node">
<title>18</title>
<ellipse fill="none" stroke="black" cx="1412" cy="-322" rx="50.09" ry="18"/>
<text text-anchor="middle" x="1412" y="-318.3" font-family="Times,serif" font-size="14.00">V568 (b)</text>
</g>
<!-- 18&#45;&gt;14 -->
<g id="edge14" class="edge">
<title>18&#45;&gt;14</title>
<path fill="none" stroke="black" stroke-dasharray="1,5" d="M1412,-303.7C1412,-295.98 1412,-286.71 1412,-278.11"/>
<polygon fill="black" stroke="black" points="1415.5,-278.1 1412,-268.1 1408.5,-278.1 1415.5,-278.1"/>
</g>
<!-- 35 -->
<g id="node37" class="node">
<title>35</title>
<ellipse fill="none" stroke="black" cx="346" cy="-394" rx="55.79" ry="18"/>
<text text-anchor="middle" x="346" y="-390.3" font-family="Times,serif" font-size="14.00">V1639 (a)</text>
</g>
<!-- 19&#45;&gt;35 -->
<g id="edge35" class="edge">
<title>19&#45;&gt;35</title>
<path fill="none" stroke="black" stroke-dasharray="1,5" d="M331.6,-448.05C333.71,-440.26 336.28,-430.82 338.65,-422.08"/>
<polygon fill="black" stroke="black" points="342.07,-422.84 341.31,-412.28 335.31,-421.01 342.07,-422.84"/>
</g>
<!-- 20 -->
<g id="node22" class="node">
<title>20</title>
<ellipse fill="none" stroke="gray" stroke-dasharray="5,2" cx="1452" cy="-466" rx="45.49" ry="18"/>
<text text-anchor="middle" x="1452" y="-462.3" font-family="Times,serif" font-size="14.00">LaSM&#45;c</text>
</g>
<!-- 21 -->
<g id="node23" class="node">
<title>21</title>
<ellipse fill="none" stroke="black" cx="703" cy="-394" rx="52.79" ry="18"/>
<text text-anchor="middle" x="703" y="-390.3" font-family="Times,serif" font-size="14.00">M111 (a)</text>
</g>
<!-- 21&#45;&gt;7 -->
<g id="edge8" class="edge">
<title>21&#45;&gt;7</title>
<path fill="none" stroke="black" stroke-dasharray="5,2" d="M703,-375.7C703,-367.98 703,-358.71 703,-350.11"/>
<polygon fill="black" stroke="black" points="706.5,-350.1 703,-340.1 699.5,-350.1 706.5,-350.1"/>
</g>
<!-- 28 -->
<g id="node30" class="node">
<title>28</title>
<ellipse fill="none" stroke="black" cx="1003" cy="-466" rx="55.79" ry="18"/>
<text text-anchor="middle" x="1003" y="-462.3" font-family="Times,serif" font-size="14.00">V1629 (b)</text>
</g>
<!-- 23&#45;&gt;28 -->
<g id="edge28" class="edge">
<title>23&#45;&gt;28</title>
<path fill="none" stroke="black" stroke-dasharray="1,5" d="M1075.36,-521.46C1062.69,-511.93 1046.25,-499.56 1032.25,-489.02"/>
<polygon fill="black" stroke="black" points="1034,-485.95 1023.9,-482.73 1029.79,-491.54 1034,-485.95"/>
</g>
<!-- 32 -->
<g id="node34" class="node">
<title>32</title>
<ellipse fill="none" stroke="gray" stroke-dasharray="5,2" cx="1117" cy="-466" rx="39.79" ry="18"/>
<text text-anchor="middle" x="1117" y="-462.3" font-family="Times,serif" font-size="14.00">Taur&#45;c</text>
</g>
<!-- 23&#45;&gt;32 -->
<g id="edge32" class="edge">
<title>23&#45;&gt;32</title>
<path fill="none" stroke="gray" stroke-width="2" d="M1101.08,-520.05C1103.42,-512.26 1106.25,-502.82 1108.88,-494.08"/>
<polygon fill="gray" stroke="gray" stroke-width="2" points="1112.3,-494.86 1111.82,-484.28 1105.59,-492.85 1112.3,-494.86"/>
</g>
<!-- 36 -->
<g id="node38" class="node">
<title>36</title>
<ellipse fill="none" stroke="gray" stroke-dasharray="5,2" cx="1217" cy="-466" rx="42.49" ry="18"/>
<text text-anchor="middle" x="1217" y="-462.3" font-family="Times,serif" font-size="14.00">Marc&#45;c</text>
</g>
<!-- 23&#45;&gt;36 -->
<g id="edge36" class="edge">
<title>23&#45;&gt;36</title>
<path fill="none" stroke="gray" stroke-dasharray="5,2" d="M1121.37,-522.33C1139.63,-511.76 1164.44,-497.4 1184.22,-485.97"/>
<polygon fill="gray" stroke="gray" points="1186,-488.98 1192.9,-480.94 1182.5,-482.92 1186,-488.98"/>
</g>
<!-- 24 -->
<g id="node26" class="node">
<title>24</title>
<ellipse fill="none" stroke="black" cx="1412" cy="-394" rx="50.09" ry="18"/>
<text text-anchor="middle" x="1412" y="-390.3" font-family="Times,serif" font-size="14.00">V536 (b)</text>
</g>
<!-- 24&#45;&gt;18 -->
<g id="edge18" class="edge">
<title>24&#45;&gt;18</title>
<path fill="none" stroke="black" stroke-dasharray="1,5" d="M1412,-375.7C1412,-367.98 1412,-358.71 1412,-350.11"/>
<polygon fill="black" stroke="black" points="1415.5,-350.1 1412,-340.1 1408.5,-350.1 1415.5,-350.1"/>
</g>
<!-- 25 -->
<g id="node27" class="node">
<title>25</title>
<ellipse fill="none" stroke="black" cx="830" cy="-394" rx="55.79" ry="18"/>
<text text-anchor="middle" x="830" y="-390.3" font-family="Times,serif" font-size="14.00">V2036 (a)</text>
</g>
<!-- 26 -->
<g id="node28" class="node">
<title>26</title>
<ellipse fill="none" stroke="black" cx="953" cy="-394" rx="48.99" ry="18"/>
<text text-anchor="middle" x="953" y="-390.3" font-family="Times,serif" font-size="14.00">La35 (a)</text>
</g>
<!-- 27&#45;&gt;12 -->
<g id="edge12" class="edge">
<title>27&#45;&gt;12</title>
<path fill="none" stroke="black" stroke-dasharray="5,2" d="M531.17,-449.12C519.94,-439.65 505.53,-427.5 493.21,-417.11"/>
<polygon fill="black" stroke="black" points="495.37,-414.35 485.47,-410.58 490.86,-419.7 495.37,-414.35"/>
</g>
<!-- 27&#45;&gt;13 -->
<g id="edge13" class="edge">
<title>27&#45;&gt;13</title>
<path fill="none" stroke="black" stroke-dasharray="1,5" d="M557.75,-448.05C561.44,-439.97 565.94,-430.12 570.06,-421.11"/>
<polygon fill="black" stroke="black" points="573.35,-422.34 574.33,-411.79 566.98,-419.43 573.35,-422.34"/>
</g>
<!-- 27&#45;&gt;21 -->
<g id="edge21" class="edge">
<title>27&#45;&gt;21</title>
<path fill="none" stroke="black" stroke-dasharray="1,5" d="M579.5,-451.5C603.4,-440.57 637.29,-425.07 663.52,-413.06"/>
<polygon fill="black" stroke="black" points="665.17,-416.16 672.81,-408.81 662.26,-409.79 665.17,-416.16"/>
</g>
<!-- 27&#45;&gt;25 -->
<g id="edge25" class="edge">
<title>27&#45;&gt;25</title>
<path fill="none" stroke="black" stroke-dasharray="5,2" d="M586.42,-453.97C593.55,-451.91 600.99,-449.83 608,-448 677.27,-429.92 695.47,-429.06 765,-412 769.39,-410.92 773.94,-409.78 778.5,-408.62"/>
<polygon fill="black" stroke="black" points="779.62,-411.95 788.44,-406.07 777.88,-405.17 779.62,-411.95"/>
</g>
<!-- 27&#45;&gt;26 -->
<g id="edge26" class="edge">
<title>27&#45;&gt;26</title>
<path fill="none" stroke="black" stroke-dasharray="1,5" d="M585.66,-453.57C593,-451.5 600.71,-449.52 608,-448 733.86,-421.84 769.14,-438.16 895,-412 899.1,-411.15 903.34,-410.15 907.56,-409.07"/>
<polygon fill="black" stroke="black" points="908.59,-412.41 917.34,-406.43 906.77,-405.65 908.59,-412.41"/>
</g>
<!-- 29 -->
<g id="node31" class="node">
<title>29</title>
<ellipse fill="none" stroke="black" cx="1070" cy="-394" rx="50.09" ry="18"/>
<text text-anchor="middle" x="1070" y="-390.3" font-family="Times,serif" font-size="14.00">V565 (a)</text>
</g>
<!-- 27&#45;&gt;29 -->
<g id="edge29" class="edge">
<title>27&#45;&gt;29</title>
<path fill="none" stroke="black" stroke-dasharray="5,2" d="M585.31,-453.46C592.74,-451.36 600.58,-449.41 608,-448 784.69,-414.55 834.24,-445.05 1011,-412 1015.36,-411.18 1019.86,-410.18 1024.35,-409.08"/>
<polygon fill="black" stroke="black" points="1025.28,-412.46 1034.07,-406.54 1023.51,-405.68 1025.28,-412.46"/>
</g>
<!-- 41 -->
<g id="node43" class="node">
<title>41</title>
<ellipse fill="none" stroke="black" cx="1182" cy="-394" rx="44.39" ry="18"/>
<text text-anchor="middle" x="1182" y="-390.3" font-family="Times,serif" font-size="14.00">P74 (a)</text>
</g>
<!-- 27&#45;&gt;41 -->
<g id="edge41" class="edge">
<title>27&#45;&gt;41</title>
<path fill="none" stroke="black" stroke-dasharray="1,5" d="M584.98,-453.43C592.5,-451.31 600.46,-449.35 608,-448 836.48,-407.12 901.06,-455.76 1129,-412 1132.68,-411.29 1136.46,-410.41 1140.23,-409.42"/>
<polygon fill="black" stroke="black" points="1141.44,-412.72 1150.09,-406.6 1139.51,-405.99 1141.44,-412.72"/>
</g>
<!-- 45 -->
<g id="node47" class="node">
<title>45</title>
<ellipse fill="none" stroke="black" cx="1294" cy="-394" rx="50.09" ry="18"/>
<text text-anchor="middle" x="1294" y="-390.3" font-family="Times,serif" font-size="14.00">A116 (a)</text>
</g>
<!-- 27&#45;&gt;45 -->
<g id="edge45" class="edge">
<title>27&#45;&gt;45</title>
<path fill="none" stroke="black" stroke-dasharray="5,2" d="M584.97,-453.36C592.49,-451.25 600.45,-449.31 608,-448 883.04,-400.44 959.85,-458.93 1235,-412 1239.37,-411.25 1243.89,-410.3 1248.37,-409.23"/>
<polygon fill="black" stroke="black" points="1249.29,-412.61 1258.1,-406.72 1247.54,-405.83 1249.29,-412.61"/>
</g>
<!-- 28&#45;&gt;24 -->
<g id="edge24" class="edge">
<title>28&#45;&gt;24</title>
<path fill="none" stroke="black" stroke-dasharray="5,2" d="M1043.73,-453.48C1051.73,-451.46 1060.1,-449.53 1068,-448 1193.36,-423.8 1227.95,-437.75 1353,-412 1357.17,-411.14 1361.47,-410.14 1365.77,-409.05"/>
<polygon fill="black" stroke="black" points="1366.95,-412.36 1375.71,-406.41 1365.15,-405.6 1366.95,-412.36"/>
</g>
<!-- 37 -->
<g id="node39" class="node">
<title>37</title>
<ellipse fill="none" stroke="gray" stroke-dasharray="5,2" cx="1516" cy="-394" rx="36" ry="18"/>
<text text-anchor="middle" x="1516" y="-390.3" font-family="Times,serif" font-size="14.00">La2&#45;c</text>
</g>
<!-- 28&#45;&gt;37 -->
<g id="edge37" class="edge">
<title>28&#45;&gt;37</title>
<path fill="none" stroke="gray" stroke-width="2" d="M1042.99,-453.42C1051.21,-451.36 1059.84,-449.42 1068,-448 1245.16,-417.14 1295.71,-452.15 1471,-412 1474,-411.31 1477.06,-410.47 1480.11,-409.54"/>
<polygon fill="gray" stroke="gray" stroke-width="2" points="1481.37,-412.81 1489.72,-406.29 1479.13,-406.18 1481.37,-412.81"/>
</g>
<!-- 43 -->
<g id="node45" class="node">
<title>43</title>
<ellipse fill="none" stroke="black" cx="1333" cy="-466" rx="55.79" ry="18"/>
<text text-anchor="middle" x="1333" y="-462.3" font-family="Times,serif" font-size="14.00">V1920 (a)</text>
</g>
<!-- 33&#45;&gt;43 -->
<g id="edge43" class="edge">
<title>33&#45;&gt;43</title>
<path fill="none" stroke="black" stroke-dasharray="5,2" d="M1333,-519.7C1333,-511.98 1333,-502.71 1333,-494.11"/>
<polygon fill="black" stroke="black" points="1336.5,-494.1 1333,-484.1 1329.5,-494.1 1336.5,-494.1"/>
</g>
<!-- 38&#45;&gt;20 -->
<g id="edge20" class="edge">
<title>38&#45;&gt;20</title>
<path fill="none" stroke="gray" stroke-dasharray="5,2" d="M1453.51,-519.7C1453.29,-511.98 1453.02,-502.71 1452.77,-494.11"/>
<polygon fill="gray" stroke="gray" points="1456.27,-494 1452.49,-484.1 1449.28,-494.2 1456.27,-494"/>
</g>
<!-- 42&#45;&gt;9 -->
<g id="edge10" class="edge">
<title>42&#45;&gt;9</title>
<path fill="none" stroke="black" stroke-dasharray="5,2" d="M1570.25,-519.7C1570.36,-511.98 1570.49,-502.71 1570.61,-494.11"/>
<polygon fill="black" stroke="black" points="1574.11,-494.15 1570.76,-484.1 1567.11,-494.05 1574.11,-494.15"/>
</g>
<!-- 42&#45;&gt;17 -->
<g id="edge17" class="edge">
<title>42&#45;&gt;17</title>
<path fill="none" stroke="black" stroke-dasharray="1,5" d="M1595.88,-523.17C1615.45,-512.71 1642.59,-498.21 1664.39,-486.56"/>
<polygon fill="black" stroke="black" points="1666.19,-489.57 1673.36,-481.77 1662.89,-483.39 1666.19,-489.57"/>
</g>
</g>
</svg>
