<?xml version="1.0" encoding="UTF-8" standalone="no"?>
<!DOCTYPE svg PUBLIC "-//W3C//DTD SVG 1.1//EN"
 "http://www.w3.org/Graphics/SVG/1.1/DTD/svg11.dtd">
<!-- Generated by graphviz version 2.43.0 (0)
 -->
<!-- Title: textual_flow Pages: 1 -->
<svg width="2387pt" height="556pt"
 viewBox="0.00 0.00 2387.00 556.00" xmlns="http://www.w3.org/2000/svg" xmlns:xlink="http://www.w3.org/1999/xlink">
<g id="graph0" class="graph" transform="scale(1 1) rotate(0) translate(4 552)">
<title>textual_flow</title>
<polygon fill="white" stroke="transparent" points="-4,4 -4,-552 2383,-552 2383,4 -4,4"/>
<g id="clust1" class="cluster">
<title>cluster_legend</title>
<polygon fill="none" stroke="black" points="8,-486 8,-540 164,-540 164,-486 8,-486"/>
</g>
<g id="clust2" class="cluster">
<title>cluster_plot</title>
</g>
<!-- label -->
<g id="node1" class="node">
<title>label</title>
<text text-anchor="middle" x="86" y="-516.8" font-family="Times,serif" font-size="14.00">adstag1.3.11U30</text>
<text text-anchor="middle" x="86" y="-501.8" font-family="Times,serif" font-size="14.00">Con = 5</text>
</g>
<!-- 0 -->
<g id="node2" class="node">
<title>0</title>
<ellipse fill="none" stroke="black" cx="1362" cy="-346" rx="52.79" ry="18"/>
<text text-anchor="middle" x="1362" y="-342.3" font-family="Times,serif" font-size="14.00">M111 (a)</text>
</g>
<!-- 18 -->
<g id="node20" class="node">
<title>18</title>
<ellipse fill="none" stroke="black" cx="1362" cy="-263" rx="50.09" ry="18"/>
<text text-anchor="middle" x="1362" y="-259.3" font-family="Times,serif" font-size="14.00">A336 (a)</text>
</g>
<!-- 0&#45;&gt;18 -->
<g id="edge19" class="edge">
<title>0&#45;&gt;18</title>
<path fill="none" stroke="black" stroke-dasharray="5,2" d="M1362,-327.82C1362,-317.19 1362,-303.31 1362,-291.2"/>
<polygon fill="black" stroke="black" points="1365.5,-291.15 1362,-281.15 1358.5,-291.15 1365.5,-291.15"/>
</g>
<!-- 1 -->
<g id="node3" class="node">
<title>1</title>
<ellipse fill="none" stroke="black" cx="1012" cy="-263" rx="49.29" ry="18"/>
<text text-anchor="middle" x="1012" y="-259.3" font-family="Times,serif" font-size="14.00">Marc (c)</text>
</g>
<!-- 22 -->
<g id="node24" class="node">
<title>22</title>
<ellipse fill="none" stroke="black" cx="955" cy="-180" rx="49.29" ry="18"/>
<text text-anchor="middle" x="955" y="-176.3" font-family="Times,serif" font-size="14.00">V569 (c)</text>
</g>
<!-- 1&#45;&gt;22 -->
<g id="edge23" class="edge">
<title>1&#45;&gt;22</title>
<path fill="none" stroke="black" stroke-dasharray="5,2" d="M1000.19,-245.22C992.24,-233.92 981.62,-218.83 972.67,-206.11"/>
<polygon fill="black" stroke="black" points="975.41,-203.93 966.8,-197.76 969.69,-207.95 975.41,-203.93"/>
<text text-anchor="middle" x="989.5" y="-219" font-family="Times,serif" font-size="10.00">3</text>
</g>
<!-- 28 -->
<g id="node30" class="node">
<title>28</title>
<ellipse fill="none" stroke="black" cx="1069" cy="-180" rx="46.29" ry="18"/>
<text text-anchor="middle" x="1069" y="-176.3" font-family="Times,serif" font-size="14.00">Mon (c)</text>
</g>
<!-- 1&#45;&gt;28 -->
<g id="edge29" class="edge">
<title>1&#45;&gt;28</title>
<path fill="none" stroke="black" stroke-dasharray="1,5" d="M1023.81,-245.22C1031.81,-233.85 1042.52,-218.63 1051.51,-205.86"/>
<polygon fill="black" stroke="black" points="1054.51,-207.68 1057.4,-197.48 1048.78,-203.65 1054.51,-207.68"/>
</g>
<!-- 2 -->
<g id="node4" class="node">
<title>2</title>
<ellipse fill="none" stroke="black" cx="1483" cy="-346" rx="50.09" ry="18"/>
<text text-anchor="middle" x="1483" y="-342.3" font-family="Times,serif" font-size="14.00">A116 (a)</text>
</g>
<!-- 3 -->
<g id="node5" class="node">
<title>3</title>
<ellipse fill="none" stroke="black" cx="1601" cy="-346" rx="50.09" ry="18"/>
<text text-anchor="middle" x="1601" y="-342.3" font-family="Times,serif" font-size="14.00">V565 (a)</text>
</g>
<!-- 4 -->
<g id="node6" class="node">
<title>4</title>
<ellipse fill="none" stroke="black" cx="1069" cy="-107" rx="40.09" ry="18"/>
<text text-anchor="middle" x="1069" y="-103.3" font-family="Times,serif" font-size="14.00">Sin (c)</text>
</g>
<!-- 5 -->
<g id="node7" class="node">
<title>5</title>
<ellipse fill="none" stroke="black" cx="249" cy="-429" rx="52.79" ry="18"/>
<text text-anchor="middle" x="249" y="-425.3" font-family="Times,serif" font-size="14.00">LaSM (a)</text>
</g>
<!-- 20 -->
<g id="node22" class="node">
<title>20</title>
<ellipse fill="none" stroke="black" cx="224" cy="-346" rx="44.39" ry="18"/>
<text text-anchor="middle" x="224" y="-342.3" font-family="Times,serif" font-size="14.00">B39 (a)</text>
</g>
<!-- 5&#45;&gt;20 -->
<g id="edge21" class="edge">
<title>5&#45;&gt;20</title>
<path fill="none" stroke="black" stroke-dasharray="5,2" d="M243.7,-410.82C240.36,-400.01 235.99,-385.84 232.21,-373.59"/>
<polygon fill="black" stroke="black" points="235.5,-372.4 229.21,-363.88 228.81,-374.46 235.5,-372.4"/>
</g>
<!-- 6 -->
<g id="node8" class="node">
<title>6</title>
<ellipse fill="none" stroke="black" cx="1725" cy="-346" rx="55.79" ry="18"/>
<text text-anchor="middle" x="1725" y="-342.3" font-family="Times,serif" font-size="14.00">V2036 (a)</text>
</g>
<!-- 7 -->
<g id="node9" class="node">
<title>7</title>
<ellipse fill="none" stroke="black" cx="1843" cy="-346" rx="44.39" ry="18"/>
<text text-anchor="middle" x="1843" y="-342.3" font-family="Times,serif" font-size="14.00">P74 (a)</text>
</g>
<!-- 8 -->
<g id="node10" class="node">
<title>8</title>
<ellipse fill="none" stroke="black" cx="466" cy="-346" rx="50.09" ry="18"/>
<text text-anchor="middle" x="466" y="-342.3" font-family="Times,serif" font-size="14.00">V566 (a)</text>
</g>
<!-- 12 -->
<g id="node14" class="node">
<title>12</title>
<ellipse fill="none" stroke="black" cx="466" cy="-263" rx="55.79" ry="18"/>
<text text-anchor="middle" x="466" y="-259.3" font-family="Times,serif" font-size="14.00">V1639 (a)</text>
</g>
<!-- 8&#45;&gt;12 -->
<g id="edge13" class="edge">
<title>8&#45;&gt;12</title>
<path fill="none" stroke="black" stroke-dasharray="1,5" d="M466,-327.82C466,-317.19 466,-303.31 466,-291.2"/>
<polygon fill="black" stroke="black" points="469.5,-291.15 466,-281.15 462.5,-291.15 469.5,-291.15"/>
</g>
<!-- 9 -->
<g id="node11" class="node">
<title>9</title>
<ellipse fill="none" stroke="gray" stroke-dasharray="5,2" cx="342" cy="-263" rx="36" ry="18"/>
<text text-anchor="middle" x="342" y="-259.3" font-family="Times,serif" font-size="14.00">La2&#45;c</text>
</g>
<!-- 10 -->
<g id="node12" class="node">
<title>10</title>
<ellipse fill="none" stroke="black" cx="430" cy="-429" rx="50.09" ry="18"/>
<text text-anchor="middle" x="430" y="-425.3" font-family="Times,serif" font-size="14.00">Neap (a)</text>
</g>
<!-- 24 -->
<g id="node26" class="node">
<title>24</title>
<ellipse fill="none" stroke="black" cx="342" cy="-346" rx="55.79" ry="18"/>
<text text-anchor="middle" x="342" y="-342.3" font-family="Times,serif" font-size="14.00">V1629 (a)</text>
</g>
<!-- 10&#45;&gt;24 -->
<g id="edge25" class="edge">
<title>10&#45;&gt;24</title>
<path fill="none" stroke="black" stroke-dasharray="1,5" d="M412.61,-412C399.68,-400.09 381.84,-383.67 367.32,-370.31"/>
<polygon fill="black" stroke="black" points="369.38,-367.44 359.65,-363.25 364.64,-372.59 369.38,-367.44"/>
</g>
<!-- 11 -->
<g id="node13" class="node">
<title>11</title>
<ellipse fill="none" stroke="black" cx="1239" cy="-180" rx="47.39" ry="18"/>
<text text-anchor="middle" x="1239" y="-176.3" font-family="Times,serif" font-size="14.00">Taur (b)</text>
</g>
<!-- 29 -->
<g id="node31" class="node">
<title>29</title>
<ellipse fill="none" stroke="black" cx="1239" cy="-107" rx="53.09" ry="18"/>
<text text-anchor="middle" x="1239" y="-103.3" font-family="Times,serif" font-size="14.00">M118 (b)</text>
</g>
<!-- 11&#45;&gt;29 -->
<g id="edge30" class="edge">
<title>11&#45;&gt;29</title>
<path fill="none" stroke="black" stroke-dasharray="5,2" d="M1239,-161.81C1239,-153.79 1239,-144.05 1239,-135.07"/>
<polygon fill="black" stroke="black" points="1242.5,-135.03 1239,-125.03 1235.5,-135.03 1242.5,-135.03"/>
</g>
<!-- 13 -->
<g id="node15" class="node">
<title>13</title>
<ellipse fill="none" stroke="black" cx="578" cy="-346" rx="44.39" ry="18"/>
<text text-anchor="middle" x="578" y="-342.3" font-family="Times,serif" font-size="14.00">S32 (a)</text>
</g>
<!-- 14 -->
<g id="node16" class="node">
<title>14</title>
<ellipse fill="none" stroke="black" cx="570" cy="-429" rx="42.49" ry="18"/>
<text text-anchor="middle" x="570" y="-425.3" font-family="Times,serif" font-size="14.00">La2 (c)</text>
</g>
<!-- 15 -->
<g id="node17" class="node">
<title>15</title>
<ellipse fill="none" stroke="gray" stroke-dasharray="5,2" cx="665" cy="-429" rx="34.39" ry="18"/>
<text text-anchor="middle" x="665" y="-425.3" font-family="Times,serif" font-size="14.00">S249</text>
</g>
<!-- 16 -->
<g id="node18" class="node">
<title>16</title>
<ellipse fill="none" stroke="black" cx="770" cy="-429" rx="52.79" ry="18"/>
<text text-anchor="middle" x="770" y="-425.3" font-family="Times,serif" font-size="14.00">M136 (a)</text>
</g>
<!-- 17 -->
<g id="node19" class="node">
<title>17</title>
<ellipse fill="none" stroke="black" cx="1954" cy="-346" rx="48.99" ry="18"/>
<text text-anchor="middle" x="1954" y="-342.3" font-family="Times,serif" font-size="14.00">La35 (a)</text>
</g>
<!-- 19 -->
<g id="node21" class="node">
<title>19</title>
<ellipse fill="none" stroke="black" cx="2071" cy="-346" rx="50.09" ry="18"/>
<text text-anchor="middle" x="2071" y="-342.3" font-family="Times,serif" font-size="14.00">V571 (a)</text>
</g>
<!-- 21 -->
<g id="node23" class="node">
<title>21</title>
<ellipse fill="none" stroke="black" cx="885" cy="-429" rx="44.39" ry="18"/>
<text text-anchor="middle" x="885" y="-425.3" font-family="Times,serif" font-size="14.00">A25 (a)</text>
</g>
<!-- 21&#45;&gt;8 -->
<g id="edge9" class="edge">
<title>21&#45;&gt;8</title>
<path fill="none" stroke="black" stroke-dasharray="5,2" d="M852.73,-416.68C845.94,-414.57 838.78,-412.55 832,-411 775.56,-398.11 760.24,-401.65 703,-393 623.75,-381.02 603.2,-381.57 525,-364 520.9,-363.08 516.67,-362.04 512.45,-360.94"/>
<polygon fill="black" stroke="black" points="513.22,-357.52 502.65,-358.29 511.39,-364.28 513.22,-357.52"/>
</g>
<!-- 21&#45;&gt;13 -->
<g id="edge14" class="edge">
<title>21&#45;&gt;13</title>
<path fill="none" stroke="black" stroke-dasharray="5,2" d="M852.05,-416.98C845.44,-414.89 838.52,-412.8 832,-411 743.58,-386.53 719.42,-388.47 631,-364 627.64,-363.07 624.17,-362.06 620.7,-361.02"/>
<polygon fill="black" stroke="black" points="621.54,-357.62 610.95,-358.02 619.48,-364.31 621.54,-357.62"/>
</g>
<!-- 34 -->
<g id="node36" class="node">
<title>34</title>
<ellipse fill="none" stroke="black" cx="690" cy="-346" rx="50.09" ry="18"/>
<text text-anchor="middle" x="690" y="-342.3" font-family="Times,serif" font-size="14.00">Patm (a)</text>
</g>
<!-- 21&#45;&gt;34 -->
<g id="edge35" class="edge">
<title>21&#45;&gt;34</title>
<path fill="none" stroke="black" stroke-dasharray="1,5" d="M854.96,-415.52C821.71,-401.71 767.94,-379.38 730.88,-363.98"/>
<polygon fill="black" stroke="black" points="731.95,-360.63 721.37,-360.03 729.26,-367.1 731.95,-360.63"/>
</g>
<!-- 36 -->
<g id="node38" class="node">
<title>36</title>
<ellipse fill="none" stroke="black" cx="798" cy="-346" rx="40.09" ry="18"/>
<text text-anchor="middle" x="798" y="-342.3" font-family="Times,serif" font-size="14.00">Pal (a)</text>
</g>
<!-- 21&#45;&gt;36 -->
<g id="edge37" class="edge">
<title>21&#45;&gt;36</title>
<path fill="none" stroke="black" stroke-dasharray="5,2" d="M867.81,-412C854.78,-399.86 836.69,-383.02 822.19,-369.52"/>
<polygon fill="black" stroke="black" points="824.27,-366.67 814.56,-362.42 819.5,-371.8 824.27,-366.67"/>
</g>
<!-- 37 -->
<g id="node39" class="node">
<title>37</title>
<ellipse fill="none" stroke="black" cx="900" cy="-346" rx="44.39" ry="18"/>
<text text-anchor="middle" x="900" y="-342.3" font-family="Times,serif" font-size="14.00">P01 (a)</text>
</g>
<!-- 21&#45;&gt;37 -->
<g id="edge38" class="edge">
<title>21&#45;&gt;37</title>
<path fill="none" stroke="black" stroke-dasharray="5,2" d="M888.18,-410.82C890.15,-400.19 892.72,-386.31 894.96,-374.2"/>
<polygon fill="black" stroke="black" points="898.44,-374.62 896.82,-364.15 891.56,-373.35 898.44,-374.62"/>
</g>
<!-- 23 -->
<g id="node25" class="node">
<title>23</title>
<ellipse fill="none" stroke="black" cx="1012" cy="-429" rx="44.39" ry="18"/>
<text text-anchor="middle" x="1012" y="-425.3" font-family="Times,serif" font-size="14.00">Nan (c)</text>
</g>
<!-- 32 -->
<g id="node34" class="node">
<title>32</title>
<ellipse fill="none" stroke="black" cx="1012" cy="-346" rx="49.29" ry="18"/>
<text text-anchor="middle" x="1012" y="-342.3" font-family="Times,serif" font-size="14.00">V536 (c)</text>
</g>
<!-- 23&#45;&gt;32 -->
<g id="edge33" class="edge">
<title>23&#45;&gt;32</title>
<path fill="none" stroke="black" stroke-width="2" d="M1012,-410.82C1012,-400.19 1012,-386.31 1012,-374.2"/>
<polygon fill="black" stroke="black" stroke-width="2" points="1015.5,-374.15 1012,-364.15 1008.5,-374.15 1015.5,-374.15"/>
<text text-anchor="middle" x="1015.5" y="-385" font-family="Times,serif" font-size="10.00">3</text>
</g>
<!-- 33 -->
<g id="node35" class="node">
<title>33</title>
<ellipse fill="none" stroke="black" cx="1120" cy="-346" rx="40.89" ry="18"/>
<text text-anchor="middle" x="1120" y="-342.3" font-family="Times,serif" font-size="14.00">Est (c)</text>
</g>
<!-- 23&#45;&gt;33 -->
<g id="edge34" class="edge">
<title>23&#45;&gt;33</title>
<path fill="none" stroke="black" stroke-dasharray="5,2" d="M1032.06,-412.95C1048.88,-400.34 1073.09,-382.18 1091.86,-368.11"/>
<polygon fill="black" stroke="black" points="1094.15,-370.77 1100.05,-361.97 1089.95,-365.17 1094.15,-370.77"/>
<text text-anchor="middle" x="1075.5" y="-385" font-family="Times,serif" font-size="10.00">2</text>
</g>
<!-- 42 -->
<g id="node44" class="node">
<title>42</title>
<ellipse fill="none" stroke="black" cx="1235" cy="-346" rx="55.79" ry="18"/>
<text text-anchor="middle" x="1235" y="-342.3" font-family="Times,serif" font-size="14.00">V1897 (b)</text>
</g>
<!-- 23&#45;&gt;42 -->
<g id="edge42" class="edge">
<title>23&#45;&gt;42</title>
<path fill="none" stroke="blue" stroke-dasharray="1,5" d="M1043.95,-416.39C1082.24,-402.49 1146.65,-379.09 1189.98,-363.35"/>
<polygon fill="blue" stroke="blue" points="1191.22,-366.63 1199.42,-359.92 1188.83,-360.05 1191.22,-366.63"/>
</g>
<!-- 24&#45;&gt;9 -->
<g id="edge10" class="edge">
<title>24&#45;&gt;9</title>
<path fill="none" stroke="gray" stroke-width="2" d="M342,-327.82C342,-317.19 342,-303.31 342,-291.2"/>
<polygon fill="gray" stroke="gray" stroke-width="2" points="345.5,-291.15 342,-281.15 338.5,-291.15 345.5,-291.15"/>
</g>
<!-- 25 -->
<g id="node27" class="node">
<title>25</title>
<ellipse fill="none" stroke="black" cx="1130" cy="-429" rx="55.79" ry="18"/>
<text text-anchor="middle" x="1130" y="-425.3" font-family="Times,serif" font-size="14.00">V2250 (a)</text>
</g>
<!-- 26 -->
<g id="node28" class="node">
<title>26</title>
<ellipse fill="none" stroke="black" cx="1663" cy="-429" rx="48.99" ry="18"/>
<text text-anchor="middle" x="1663" y="-425.3" font-family="Times,serif" font-size="14.00">La22 (a)</text>
</g>
<!-- 26&#45;&gt;0 -->
<g id="edge1" class="edge">
<title>26&#45;&gt;0</title>
<path fill="none" stroke="black" stroke-dasharray="1,5" d="M1624.48,-417.76C1577.23,-405.18 1494.69,-383.16 1424,-364 1419.94,-362.9 1415.73,-361.76 1411.51,-360.6"/>
<polygon fill="black" stroke="black" points="1412.25,-357.18 1401.68,-357.92 1410.4,-363.93 1412.25,-357.18"/>
</g>
<!-- 26&#45;&gt;2 -->
<g id="edge3" class="edge">
<title>26&#45;&gt;2</title>
<path fill="none" stroke="black" stroke-dasharray="5,2" d="M1633.28,-414.62C1603.01,-401.01 1555.92,-379.81 1522.53,-364.79"/>
<polygon fill="black" stroke="black" points="1523.62,-361.44 1513.07,-360.53 1520.75,-367.83 1523.62,-361.44"/>
</g>
<!-- 26&#45;&gt;3 -->
<g id="edge4" class="edge">
<title>26&#45;&gt;3</title>
<path fill="none" stroke="black" stroke-dasharray="5,2" d="M1650.15,-411.22C1641.37,-399.74 1629.58,-384.33 1619.74,-371.49"/>
<polygon fill="black" stroke="black" points="1622.48,-369.3 1613.62,-363.48 1616.92,-373.55 1622.48,-369.3"/>
</g>
<!-- 26&#45;&gt;6 -->
<g id="edge7" class="edge">
<title>26&#45;&gt;6</title>
<path fill="none" stroke="black" stroke-dasharray="5,2" d="M1675.85,-411.22C1684.58,-399.81 1696.27,-384.54 1706.06,-371.74"/>
<polygon fill="black" stroke="black" points="1708.87,-373.83 1712.17,-363.76 1703.31,-369.58 1708.87,-373.83"/>
</g>
<!-- 26&#45;&gt;7 -->
<g id="edge8" class="edge">
<title>26&#45;&gt;7</title>
<path fill="none" stroke="black" stroke-dasharray="1,5" d="M1679.8,-411.89C1690.97,-401.98 1706.41,-389.73 1722,-382 1750.01,-368.11 1759.99,-372.78 1790,-364 1793.3,-363.03 1796.71,-362.01 1800.13,-360.96"/>
<polygon fill="black" stroke="black" points="1801.22,-364.29 1809.72,-357.96 1799.13,-357.6 1801.22,-364.29"/>
</g>
<!-- 26&#45;&gt;17 -->
<g id="edge18" class="edge">
<title>26&#45;&gt;17</title>
<path fill="none" stroke="black" stroke-dasharray="1,5" d="M1686.67,-413.19C1696.42,-407.03 1707.81,-399.74 1718,-393 1725.2,-388.24 1725.91,-385.01 1734,-382 1801.89,-356.72 1824.97,-378.24 1896,-364 1900.17,-363.16 1904.47,-362.17 1908.75,-361.08"/>
<polygon fill="black" stroke="black" points="1909.91,-364.39 1918.66,-358.42 1908.1,-357.63 1909.91,-364.39"/>
</g>
<!-- 26&#45;&gt;19 -->
<g id="edge20" class="edge">
<title>26&#45;&gt;19</title>
<path fill="none" stroke="black" stroke-dasharray="1,5" d="M1699.02,-416.69C1706.25,-414.63 1713.84,-412.62 1721,-411 1848.78,-382.07 1884.16,-392.63 2012,-364 2016.1,-363.08 2020.33,-362.05 2024.56,-360.95"/>
<polygon fill="black" stroke="black" points="2025.61,-364.29 2034.35,-358.3 2023.79,-357.53 2025.61,-364.29"/>
</g>
<!-- 39 -->
<g id="node41" class="node">
<title>39</title>
<ellipse fill="none" stroke="black" cx="2186" cy="-346" rx="46.59" ry="18"/>
<text text-anchor="middle" x="2186" y="-342.3" font-family="Times,serif" font-size="14.00">Bodl (a)</text>
</g>
<!-- 26&#45;&gt;39 -->
<g id="edge40" class="edge">
<title>26&#45;&gt;39</title>
<path fill="none" stroke="black" stroke-dasharray="5,2" d="M1698.34,-416.6C1705.77,-414.5 1713.6,-412.5 1721,-411 1765.83,-401.92 2085.21,-373.29 2130,-364 2133.92,-363.19 2137.95,-362.22 2141.98,-361.17"/>
<polygon fill="black" stroke="black" points="2143.2,-364.47 2151.9,-358.42 2141.33,-357.72 2143.2,-364.47"/>
</g>
<!-- 27 -->
<g id="node29" class="node">
<title>27</title>
<ellipse fill="none" stroke="black" cx="1780" cy="-429" rx="50.09" ry="18"/>
<text text-anchor="middle" x="1780" y="-425.3" font-family="Times,serif" font-size="14.00">V560 (b)</text>
</g>
<!-- 41 -->
<g id="node43" class="node">
<title>41</title>
<ellipse fill="none" stroke="black" cx="2307" cy="-346" rx="55.79" ry="18"/>
<text text-anchor="middle" x="2307" y="-342.3" font-family="Times,serif" font-size="14.00">V1920 (b)</text>
</g>
<!-- 27&#45;&gt;41 -->
<g id="edge41" class="edge">
<title>27&#45;&gt;41</title>
<path fill="none" stroke="black" stroke-dasharray="5,2" d="M1816.28,-416.53C1823.74,-414.46 1831.58,-412.49 1839,-411 2015.79,-375.47 2064.78,-397.34 2242,-364 2246.76,-363.1 2251.7,-362.05 2256.61,-360.91"/>
<polygon fill="black" stroke="black" points="2257.73,-364.24 2266.63,-358.49 2256.09,-357.44 2257.73,-364.24"/>
</g>
<!-- 28&#45;&gt;4 -->
<g id="edge5" class="edge">
<title>28&#45;&gt;4</title>
<path fill="none" stroke="black" stroke-dasharray="1,5" d="M1069,-161.81C1069,-153.79 1069,-144.05 1069,-135.07"/>
<polygon fill="black" stroke="black" points="1072.5,-135.03 1069,-125.03 1065.5,-135.03 1072.5,-135.03"/>
</g>
<!-- 31 -->
<g id="node33" class="node">
<title>31</title>
<ellipse fill="none" stroke="gray" stroke-dasharray="5,2" cx="1239" cy="-34" rx="28.7" ry="18"/>
<text text-anchor="middle" x="1239" y="-30.3" font-family="Times,serif" font-size="14.00">P18</text>
</g>
<!-- 29&#45;&gt;31 -->
<g id="edge32" class="edge">
<title>29&#45;&gt;31</title>
<path fill="none" stroke="gray" stroke-dasharray="5,2" d="M1239,-88.81C1239,-80.79 1239,-71.05 1239,-62.07"/>
<polygon fill="gray" stroke="gray" points="1242.5,-62.03 1239,-52.03 1235.5,-62.03 1242.5,-62.03"/>
</g>
<!-- 30 -->
<g id="node32" class="node">
<title>30</title>
<ellipse fill="none" stroke="gray" stroke-dasharray="5,2" cx="1898" cy="-429" rx="50.09" ry="18"/>
<text text-anchor="middle" x="1898" y="-425.3" font-family="Times,serif" font-size="14.00">Savile&#45;Η</text>
</g>
<!-- 32&#45;&gt;1 -->
<g id="edge2" class="edge">
<title>32&#45;&gt;1</title>
<path fill="none" stroke="black" stroke-dasharray="1,5" d="M1012,-327.82C1012,-317.19 1012,-303.31 1012,-291.2"/>
<polygon fill="black" stroke="black" points="1015.5,-291.15 1012,-281.15 1008.5,-291.15 1015.5,-291.15"/>
<text text-anchor="middle" x="1015.5" y="-302" font-family="Times,serif" font-size="10.00">3</text>
</g>
<!-- 35 -->
<g id="node37" class="node">
<title>35</title>
<ellipse fill="none" stroke="black" cx="1127" cy="-263" rx="43.59" ry="18"/>
<text text-anchor="middle" x="1127" y="-259.3" font-family="Times,serif" font-size="14.00">Bas (b)</text>
</g>
<!-- 38 -->
<g id="node40" class="node">
<title>38</title>
<ellipse fill="none" stroke="black" cx="1239" cy="-263" rx="50.09" ry="18"/>
<text text-anchor="middle" x="1239" y="-259.3" font-family="Times,serif" font-size="14.00">V568 (b)</text>
</g>
<!-- 38&#45;&gt;11 -->
<g id="edge12" class="edge">
<title>38&#45;&gt;11</title>
<path fill="none" stroke="black" stroke-dasharray="1,5" d="M1239,-244.82C1239,-234.19 1239,-220.31 1239,-208.2"/>
<polygon fill="black" stroke="black" points="1242.5,-208.15 1239,-198.15 1235.5,-208.15 1242.5,-208.15"/>
</g>
<!-- 40 -->
<g id="node42" class="node">
<title>40</title>
<ellipse fill="none" stroke="black" cx="885" cy="-513" rx="53.89" ry="18"/>
<text text-anchor="middle" x="885" y="-509.3" font-family="Times,serif" font-size="14.00">aBase (a)</text>
</g>
<!-- 40&#45;&gt;5 -->
<g id="edge6" class="edge">
<title>40&#45;&gt;5</title>
<path fill="none" stroke="black" d="M835.35,-505.93C743.6,-494.68 541.3,-469.63 371,-447 350.05,-444.22 327.1,-441.05 306.81,-438.21"/>
<polygon fill="black" stroke="black" points="307.17,-434.72 296.78,-436.8 306.2,-441.66 307.17,-434.72"/>
</g>
<!-- 40&#45;&gt;10 -->
<g id="edge11" class="edge">
<title>40&#45;&gt;10</title>
<path fill="none" stroke="black" stroke-width="2" d="M838.17,-503.88C768.52,-491.77 633.56,-468.11 519,-447 507.39,-444.86 494.95,-442.52 483.15,-440.27"/>
<polygon fill="black" stroke="black" stroke-width="2" points="483.46,-436.77 472.98,-438.33 482.15,-443.64 483.46,-436.77"/>
</g>
<!-- 40&#45;&gt;14 -->
<g id="edge15" class="edge">
<title>40&#45;&gt;14</title>
<path fill="none" stroke="blue" stroke-width="2" d="M841.46,-502.28C789.09,-490.34 698.64,-468.97 622,-447 618.66,-446.04 615.21,-445.01 611.75,-443.95"/>
<polygon fill="blue" stroke="blue" stroke-width="2" points="612.65,-440.56 602.06,-440.89 610.55,-447.24 612.65,-440.56"/>
</g>
<!-- 40&#45;&gt;15 -->
<g id="edge16" class="edge">
<title>40&#45;&gt;15</title>
<path fill="none" stroke="gray" d="M850.04,-499.17C798.96,-480.42 709.74,-447.67 708,-447 705.78,-446.16 703.51,-445.28 701.21,-444.39"/>
<polygon fill="gray" stroke="gray" points="702.39,-441.09 691.8,-440.71 699.84,-447.61 702.39,-441.09"/>
</g>
<!-- 40&#45;&gt;16 -->
<g id="edge17" class="edge">
<title>40&#45;&gt;16</title>
<path fill="none" stroke="black" stroke-width="2" d="M866.8,-495.84C855.87,-486.42 841.5,-474.56 828,-465 820.68,-459.81 812.57,-454.61 804.79,-449.86"/>
<polygon fill="black" stroke="black" stroke-width="2" points="806.59,-446.86 796.21,-444.72 802.99,-452.86 806.59,-446.86"/>
</g>
<!-- 40&#45;&gt;21 -->
<g id="edge22" class="edge">
<title>40&#45;&gt;21</title>
<path fill="none" stroke="black" stroke-dasharray="5,2" d="M885,-494.61C885,-483.77 885,-469.6 885,-457.29"/>
<polygon fill="black" stroke="black" points="888.5,-457.08 885,-447.08 881.5,-457.08 888.5,-457.08"/>
</g>
<!-- 40&#45;&gt;23 -->
<g id="edge24" class="edge">
<title>40&#45;&gt;23</title>
<path fill="none" stroke="blue" d="M908.59,-496.77C928.98,-483.6 958.61,-464.47 980.93,-450.06"/>
<polygon fill="blue" stroke="blue" points="982.89,-452.96 989.39,-444.6 979.09,-447.08 982.89,-452.96"/>
</g>
<!-- 40&#45;&gt;25 -->
<g id="edge26" class="edge">
<title>40&#45;&gt;25</title>
<path fill="none" stroke="black" stroke-width="2" d="M921.68,-499.72C964.67,-485.33 1036.02,-461.46 1083.03,-445.72"/>
<polygon fill="black" stroke="black" stroke-width="2" points="1084.3,-448.99 1092.67,-442.49 1082.07,-442.35 1084.3,-448.99"/>
<text text-anchor="middle" x="1025.5" y="-468" font-family="Times,serif" font-size="10.00">3</text>
</g>
<!-- 40&#45;&gt;26 -->
<g id="edge27" class="edge">
<title>40&#45;&gt;26</title>
<path fill="none" stroke="black" stroke-dasharray="5,2" d="M935.75,-506.65C1074.79,-492 1461.16,-451.27 1606.63,-435.94"/>
<polygon fill="black" stroke="black" points="1607.11,-439.41 1616.68,-434.88 1606.37,-432.45 1607.11,-439.41"/>
</g>
<!-- 40&#45;&gt;27 -->
<g id="edge28" class="edge">
<title>40&#45;&gt;27</title>
<path fill="none" stroke="blue" stroke-width="2" d="M938.79,-511.58C1072.29,-509.74 1429.13,-499.83 1721,-447 1725.37,-446.21 1729.87,-445.23 1734.36,-444.14"/>
<polygon fill="blue" stroke="blue" stroke-width="2" points="1735.29,-447.51 1744.08,-441.6 1733.52,-440.74 1735.29,-447.51"/>
</g>
<!-- 40&#45;&gt;30 -->
<g id="edge31" class="edge">
<title>40&#45;&gt;30</title>
<path fill="none" stroke="gray" stroke-width="2" d="M938.56,-510.15C1053.69,-505.95 1333.27,-494.62 1567,-476 1688.19,-466.35 1719.69,-470.36 1839,-447 1843.18,-446.18 1847.49,-445.21 1851.79,-444.14"/>
<polygon fill="gray" stroke="gray" stroke-width="2" points="1852.95,-447.45 1861.73,-441.52 1851.17,-440.68 1852.95,-447.45"/>
</g>
<!-- 42&#45;&gt;35 -->
<g id="edge36" class="edge">
<title>42&#45;&gt;35</title>
<path fill="none" stroke="black" d="M1213.92,-329.19C1197.2,-316.65 1173.68,-299.01 1155.32,-285.24"/>
<polygon fill="black" stroke="black" points="1157.4,-282.42 1147.3,-279.22 1153.2,-288.02 1157.4,-282.42"/>
</g>
<!-- 42&#45;&gt;38 -->
<g id="edge39" class="edge">
<title>42&#45;&gt;38</title>
<path fill="none" stroke="black" stroke-width="2" d="M1235.85,-327.82C1236.37,-317.19 1237.06,-303.31 1237.66,-291.2"/>
<polygon fill="black" stroke="black" stroke-width="2" points="1241.16,-291.31 1238.15,-281.15 1234.16,-290.97 1241.16,-291.31"/>
<text text-anchor="middle" x="1240.5" y="-302" font-family="Times,serif" font-size="10.00">4</text>
</g>
</g>
</svg>
