<?xml version="1.0" encoding="UTF-8" standalone="no"?>
<!DOCTYPE svg PUBLIC "-//W3C//DTD SVG 1.1//EN"
 "http://www.w3.org/Graphics/SVG/1.1/DTD/svg11.dtd">
<!-- Generated by graphviz version 2.43.0 (0)
 -->
<!-- Title: textual_flow Pages: 1 -->
<svg width="2190pt" height="599pt"
 viewBox="0.00 0.00 2190.00 599.00" xmlns="http://www.w3.org/2000/svg" xmlns:xlink="http://www.w3.org/1999/xlink">
<g id="graph0" class="graph" transform="scale(1 1) rotate(0) translate(4 595)">
<title>textual_flow</title>
<polygon fill="white" stroke="transparent" points="-4,4 -4,-595 2186,-595 2186,4 -4,4"/>
<g id="clust1" class="cluster">
<title>cluster_legend</title>
<polygon fill="none" stroke="black" points="8,-529 8,-583 186,-583 186,-529 8,-529"/>
</g>
<g id="clust2" class="cluster">
<title>cluster_plot</title>
</g>
<!-- label -->
<g id="node1" class="node">
<title>label</title>
<text text-anchor="middle" x="97" y="-559.8" font-family="Times,serif" font-size="14.00">adstag1.3.46U54&#45;58</text>
<text text-anchor="middle" x="97" y="-544.8" font-family="Times,serif" font-size="14.00">Con = 5</text>
</g>
<!-- 0 -->
<g id="node2" class="node">
<title>0</title>
<ellipse fill="none" stroke="black" cx="342" cy="-482" rx="55.79" ry="18"/>
<text text-anchor="middle" x="342" y="-478.3" font-family="Times,serif" font-size="14.00">V2036 (a)</text>
</g>
<!-- 1 -->
<g id="node3" class="node">
<title>1</title>
<ellipse fill="none" stroke="black" cx="2010" cy="-326" rx="55.79" ry="18"/>
<text text-anchor="middle" x="2010" y="-322.3" font-family="Times,serif" font-size="14.00">V1639 (a)</text>
</g>
<!-- 2 -->
<g id="node4" class="node">
<title>2</title>
<ellipse fill="none" stroke="black" cx="252" cy="-399" rx="50.09" ry="18"/>
<text text-anchor="middle" x="252" y="-395.3" font-family="Times,serif" font-size="14.00">V536 (b)</text>
</g>
<!-- 14 -->
<g id="node16" class="node">
<title>14</title>
<ellipse fill="none" stroke="black" cx="274" cy="-326" rx="50.09" ry="18"/>
<text text-anchor="middle" x="274" y="-322.3" font-family="Times,serif" font-size="14.00">V568 (b)</text>
</g>
<!-- 2&#45;&gt;14 -->
<g id="edge15" class="edge">
<title>2&#45;&gt;14</title>
<path fill="none" stroke="black" stroke-dasharray="1,5" d="M257.33,-380.81C259.84,-372.7 262.9,-362.84 265.7,-353.78"/>
<polygon fill="black" stroke="black" points="269.11,-354.62 268.72,-344.03 262.42,-352.54 269.11,-354.62"/>
</g>
<!-- 3 -->
<g id="node5" class="node">
<title>3</title>
<ellipse fill="none" stroke="black" cx="461" cy="-482" rx="45.49" ry="18"/>
<text text-anchor="middle" x="461" y="-478.3" font-family="Times,serif" font-size="14.00">Nan (b)</text>
</g>
<!-- 3&#45;&gt;2 -->
<g id="edge3" class="edge">
<title>3&#45;&gt;2</title>
<path fill="none" stroke="black" stroke-width="2" d="M429.71,-468.87C393.73,-454.93 334.49,-431.97 294.39,-416.43"/>
<polygon fill="black" stroke="black" stroke-width="2" points="295.47,-413.09 284.88,-412.74 292.94,-419.62 295.47,-413.09"/>
<text text-anchor="middle" x="372.5" y="-438" font-family="Times,serif" font-size="10.00">3</text>
</g>
<!-- 11 -->
<g id="node13" class="node">
<title>11</title>
<ellipse fill="none" stroke="black" cx="376" cy="-399" rx="55.79" ry="18"/>
<text text-anchor="middle" x="376" y="-395.3" font-family="Times,serif" font-size="14.00">V2250 (b)</text>
</g>
<!-- 3&#45;&gt;11 -->
<g id="edge12" class="edge">
<title>3&#45;&gt;11</title>
<path fill="none" stroke="black" stroke-dasharray="5,2" d="M444.21,-465C431.72,-453.09 414.48,-436.67 400.46,-423.31"/>
<polygon fill="black" stroke="black" points="402.7,-420.61 393.05,-416.25 397.87,-425.68 402.7,-420.61"/>
</g>
<!-- 29 -->
<g id="node31" class="node">
<title>29</title>
<ellipse fill="none" stroke="black" cx="506" cy="-399" rx="55.79" ry="18"/>
<text text-anchor="middle" x="506" y="-395.3" font-family="Times,serif" font-size="14.00">V1897 (b)</text>
</g>
<!-- 3&#45;&gt;29 -->
<g id="edge29" class="edge">
<title>3&#45;&gt;29</title>
<path fill="none" stroke="black" stroke-dasharray="1,5" d="M470.32,-464.22C476.48,-453.14 484.66,-438.41 491.64,-425.85"/>
<polygon fill="black" stroke="black" points="494.89,-427.2 496.69,-416.76 488.77,-423.8 494.89,-427.2"/>
</g>
<!-- 4 -->
<g id="node6" class="node">
<title>4</title>
<ellipse fill="none" stroke="gray" stroke-dasharray="5,2" cx="1682" cy="-326" rx="36" ry="18"/>
<text text-anchor="middle" x="1682" y="-322.3" font-family="Times,serif" font-size="14.00">La2&#45;c</text>
</g>
<!-- 5 -->
<g id="node7" class="node">
<title>5</title>
<ellipse fill="none" stroke="black" cx="733" cy="-399" rx="46.59" ry="18"/>
<text text-anchor="middle" x="733" y="-395.3" font-family="Times,serif" font-size="14.00">Bodl (a)</text>
</g>
<!-- 6 -->
<g id="node8" class="node">
<title>6</title>
<ellipse fill="none" stroke="black" cx="575" cy="-482" rx="50.09" ry="18"/>
<text text-anchor="middle" x="575" y="-478.3" font-family="Times,serif" font-size="14.00">S249 (a)</text>
</g>
<!-- 7 -->
<g id="node9" class="node">
<title>7</title>
<ellipse fill="none" stroke="black" cx="1800" cy="-399" rx="44.39" ry="18"/>
<text text-anchor="middle" x="1800" y="-395.3" font-family="Times,serif" font-size="14.00">P01 (a)</text>
</g>
<!-- 8 -->
<g id="node10" class="node">
<title>8</title>
<ellipse fill="none" stroke="black" cx="696" cy="-482" rx="52.79" ry="18"/>
<text text-anchor="middle" x="696" y="-478.3" font-family="Times,serif" font-size="14.00">M136 (e)</text>
</g>
<!-- 9 -->
<g id="node11" class="node">
<title>9</title>
<ellipse fill="none" stroke="black" cx="1682" cy="-399" rx="55.79" ry="18"/>
<text text-anchor="middle" x="1682" y="-395.3" font-family="Times,serif" font-size="14.00">V1629 (a)</text>
</g>
<!-- 9&#45;&gt;4 -->
<g id="edge5" class="edge">
<title>9&#45;&gt;4</title>
<path fill="none" stroke="gray" stroke-width="2" d="M1682,-380.81C1682,-372.79 1682,-363.05 1682,-354.07"/>
<polygon fill="gray" stroke="gray" stroke-width="2" points="1685.5,-354.03 1682,-344.03 1678.5,-354.03 1685.5,-354.03"/>
</g>
<!-- 10 -->
<g id="node12" class="node">
<title>10</title>
<ellipse fill="none" stroke="black" cx="252" cy="-180" rx="50.09" ry="18"/>
<text text-anchor="middle" x="252" y="-176.3" font-family="Times,serif" font-size="14.00">V569 (b)</text>
</g>
<!-- 12 -->
<g id="node14" class="node">
<title>12</title>
<ellipse fill="none" stroke="black" cx="454" cy="-326" rx="42.49" ry="18"/>
<text text-anchor="middle" x="454" y="-322.3" font-family="Times,serif" font-size="14.00">Est (b)</text>
</g>
<!-- 13 -->
<g id="node15" class="node">
<title>13</title>
<ellipse fill="none" stroke="black" cx="842" cy="-399" rx="44.39" ry="18"/>
<text text-anchor="middle" x="842" y="-395.3" font-family="Times,serif" font-size="14.00">P74 (a)</text>
</g>
<!-- 31 -->
<g id="node33" class="node">
<title>31</title>
<ellipse fill="none" stroke="black" cx="298" cy="-253" rx="47.39" ry="18"/>
<text text-anchor="middle" x="298" y="-249.3" font-family="Times,serif" font-size="14.00">Taur (b)</text>
</g>
<!-- 14&#45;&gt;31 -->
<g id="edge31" class="edge">
<title>14&#45;&gt;31</title>
<path fill="none" stroke="black" stroke-dasharray="1,5" d="M279.81,-307.81C282.55,-299.7 285.89,-289.84 288.95,-280.78"/>
<polygon fill="black" stroke="black" points="292.36,-281.62 292.24,-271.03 285.73,-279.38 292.36,-281.62"/>
</g>
<!-- 15 -->
<g id="node17" class="node">
<title>15</title>
<ellipse fill="none" stroke="black" cx="995" cy="-556" rx="53.89" ry="18"/>
<text text-anchor="middle" x="995" y="-552.3" font-family="Times,serif" font-size="14.00">aBase (a)</text>
</g>
<!-- 15&#45;&gt;0 -->
<g id="edge1" class="edge">
<title>15&#45;&gt;0</title>
<path fill="none" stroke="black" d="M941.5,-552.91C837.73,-548.21 602.13,-534.41 407,-500 402.23,-499.16 397.29,-498.14 392.37,-497.03"/>
<polygon fill="black" stroke="black" points="392.88,-493.55 382.34,-494.64 391.26,-500.36 392.88,-493.55"/>
</g>
<!-- 15&#45;&gt;3 -->
<g id="edge4" class="edge">
<title>15&#45;&gt;3</title>
<path fill="none" stroke="blue" d="M942.04,-552.14C853.18,-546.62 668.78,-532.09 516,-500 512.1,-499.18 508.07,-498.2 504.06,-497.14"/>
<polygon fill="blue" stroke="blue" points="504.76,-493.7 494.19,-494.34 502.86,-500.43 504.76,-493.7"/>
</g>
<!-- 15&#45;&gt;6 -->
<g id="edge7" class="edge">
<title>15&#45;&gt;6</title>
<path fill="none" stroke="black" d="M944.69,-549.42C874.59,-541.17 743.76,-524.07 634,-500 629.9,-499.1 625.67,-498.08 621.44,-496.99"/>
<polygon fill="black" stroke="black" points="622.2,-493.57 611.64,-494.35 620.38,-500.33 622.2,-493.57"/>
</g>
<!-- 15&#45;&gt;8 -->
<g id="edge9" class="edge">
<title>15&#45;&gt;8</title>
<path fill="none" stroke="blue" stroke-width="2" d="M950.99,-545.45C903.12,-534.91 824.4,-517.17 757,-500 752.98,-498.98 748.83,-497.89 744.66,-496.77"/>
<polygon fill="blue" stroke="blue" stroke-width="2" points="745.55,-493.39 734.98,-494.14 743.71,-500.14 745.55,-493.39"/>
</g>
<!-- 19 -->
<g id="node21" class="node">
<title>19</title>
<ellipse fill="none" stroke="black" cx="819" cy="-482" rx="52.79" ry="18"/>
<text text-anchor="middle" x="819" y="-478.3" font-family="Times,serif" font-size="14.00">LaSM (a)</text>
</g>
<!-- 15&#45;&gt;19 -->
<g id="edge19" class="edge">
<title>15&#45;&gt;19</title>
<path fill="none" stroke="black" d="M962.31,-541.63C933.66,-529.91 891.86,-512.81 860.79,-500.1"/>
<polygon fill="black" stroke="black" points="862.1,-496.85 851.52,-496.3 859.45,-503.33 862.1,-496.85"/>
</g>
<!-- 21 -->
<g id="node23" class="node">
<title>21</title>
<ellipse fill="none" stroke="black" cx="940" cy="-482" rx="50.09" ry="18"/>
<text text-anchor="middle" x="940" y="-478.3" font-family="Times,serif" font-size="14.00">Patm (a)</text>
</g>
<!-- 15&#45;&gt;21 -->
<g id="edge21" class="edge">
<title>15&#45;&gt;21</title>
<path fill="none" stroke="black" d="M982.24,-538.3C975.3,-529.21 966.58,-517.8 958.87,-507.7"/>
<polygon fill="black" stroke="black" points="961.54,-505.43 952.69,-499.61 955.98,-509.68 961.54,-505.43"/>
</g>
<!-- 22 -->
<g id="node24" class="node">
<title>22</title>
<ellipse fill="none" stroke="black" cx="1051" cy="-482" rx="42.79" ry="18"/>
<text text-anchor="middle" x="1051" y="-478.3" font-family="Times,serif" font-size="14.00">La2 (a)</text>
</g>
<!-- 15&#45;&gt;22 -->
<g id="edge22" class="edge">
<title>15&#45;&gt;22</title>
<path fill="none" stroke="black" stroke-width="2" d="M1007.99,-538.3C1015.06,-529.21 1023.94,-517.8 1031.79,-507.7"/>
<polygon fill="black" stroke="black" stroke-width="2" points="1034.71,-509.65 1038.08,-499.61 1029.18,-505.35 1034.71,-509.65"/>
</g>
<!-- 25 -->
<g id="node27" class="node">
<title>25</title>
<ellipse fill="none" stroke="black" cx="1161" cy="-482" rx="48.99" ry="18"/>
<text text-anchor="middle" x="1161" y="-478.3" font-family="Times,serif" font-size="14.00">La22 (a)</text>
</g>
<!-- 15&#45;&gt;25 -->
<g id="edge25" class="edge">
<title>15&#45;&gt;25</title>
<path fill="none" stroke="black" stroke-dasharray="5,2" d="M1026.61,-541.29C1053.49,-529.63 1092.22,-512.83 1121.2,-500.26"/>
<polygon fill="black" stroke="black" points="1122.84,-503.37 1130.62,-496.18 1120.06,-496.94 1122.84,-503.37"/>
</g>
<!-- 27 -->
<g id="node29" class="node">
<title>27</title>
<ellipse fill="none" stroke="black" cx="1278" cy="-482" rx="50.09" ry="18"/>
<text text-anchor="middle" x="1278" y="-478.3" font-family="Times,serif" font-size="14.00">V560 (b)</text>
</g>
<!-- 15&#45;&gt;27 -->
<g id="edge27" class="edge">
<title>15&#45;&gt;27</title>
<path fill="none" stroke="blue" stroke-width="2" d="M1038.07,-544.96C1083.27,-534.3 1156.32,-516.72 1219,-500 1222.83,-498.98 1226.79,-497.89 1230.77,-496.79"/>
<polygon fill="blue" stroke="blue" stroke-width="2" points="1231.93,-500.1 1240.61,-494.02 1230.03,-493.36 1231.93,-500.1"/>
</g>
<!-- 33 -->
<g id="node35" class="node">
<title>33</title>
<ellipse fill="none" stroke="black" cx="1396" cy="-482" rx="50.09" ry="18"/>
<text text-anchor="middle" x="1396" y="-478.3" font-family="Times,serif" font-size="14.00">Neap (a)</text>
</g>
<!-- 15&#45;&gt;33 -->
<g id="edge33" class="edge">
<title>15&#45;&gt;33</title>
<path fill="none" stroke="black" stroke-width="2" d="M1044.63,-548.94C1111.49,-540.33 1234,-523.03 1337,-500 1341.1,-499.08 1345.33,-498.05 1349.56,-496.95"/>
<polygon fill="black" stroke="black" stroke-width="2" points="1350.61,-500.29 1359.35,-494.3 1348.79,-493.53 1350.61,-500.29"/>
</g>
<!-- 35 -->
<g id="node37" class="node">
<title>35</title>
<ellipse fill="none" stroke="gray" stroke-dasharray="5,2" cx="1514" cy="-482" rx="50.09" ry="18"/>
<text text-anchor="middle" x="1514" y="-478.3" font-family="Times,serif" font-size="14.00">Savile&#45;Η</text>
</g>
<!-- 15&#45;&gt;35 -->
<g id="edge35" class="edge">
<title>15&#45;&gt;35</title>
<path fill="none" stroke="gray" stroke-width="2" d="M1047.52,-551.49C1133.41,-545.14 1308.97,-529.57 1455,-500 1459.17,-499.16 1463.48,-498.16 1467.78,-497.08"/>
<polygon fill="gray" stroke="gray" stroke-width="2" points="1468.95,-500.39 1477.72,-494.45 1467.16,-493.63 1468.95,-500.39"/>
</g>
<!-- 37 -->
<g id="node39" class="node">
<title>37</title>
<ellipse fill="none" stroke="black" cx="1902" cy="-482" rx="44.39" ry="18"/>
<text text-anchor="middle" x="1902" y="-478.3" font-family="Times,serif" font-size="14.00">A25 (a)</text>
</g>
<!-- 15&#45;&gt;37 -->
<g id="edge37" class="edge">
<title>15&#45;&gt;37</title>
<path fill="none" stroke="black" stroke-dasharray="5,2" d="M1047.02,-550.87C1206.6,-538.2 1688.09,-499.98 1848.99,-487.21"/>
<polygon fill="black" stroke="black" points="1849.43,-490.68 1859.12,-486.4 1848.87,-483.71 1849.43,-490.68"/>
</g>
<!-- 16 -->
<g id="node18" class="node">
<title>16</title>
<ellipse fill="none" stroke="black" cx="1191" cy="-326" rx="50.09" ry="18"/>
<text text-anchor="middle" x="1191" y="-322.3" font-family="Times,serif" font-size="14.00">A336 (a)</text>
</g>
<!-- 17 -->
<g id="node19" class="node">
<title>17</title>
<ellipse fill="none" stroke="gray" stroke-dasharray="5,2" cx="491" cy="-107" rx="28.7" ry="18"/>
<text text-anchor="middle" x="491" y="-103.3" font-family="Times,serif" font-size="14.00">P18</text>
</g>
<!-- 18 -->
<g id="node20" class="node">
<title>18</title>
<ellipse fill="none" stroke="black" cx="558" cy="-326" rx="43.59" ry="18"/>
<text text-anchor="middle" x="558" y="-322.3" font-family="Times,serif" font-size="14.00">Bas (b)</text>
</g>
<!-- 26 -->
<g id="node28" class="node">
<title>26</title>
<ellipse fill="none" stroke="black" cx="624" cy="-399" rx="44.39" ry="18"/>
<text text-anchor="middle" x="624" y="-395.3" font-family="Times,serif" font-size="14.00">B39 (a)</text>
</g>
<!-- 19&#45;&gt;26 -->
<g id="edge26" class="edge">
<title>19&#45;&gt;26</title>
<path fill="none" stroke="black" stroke-dasharray="5,2" d="M786.8,-467.62C752.94,-453.56 699.63,-431.42 663.31,-416.33"/>
<polygon fill="black" stroke="black" points="664.58,-413.07 654,-412.46 661.9,-419.53 664.58,-413.07"/>
</g>
<!-- 20 -->
<g id="node22" class="node">
<title>20</title>
<ellipse fill="none" stroke="black" cx="953" cy="-399" rx="48.99" ry="18"/>
<text text-anchor="middle" x="953" y="-395.3" font-family="Times,serif" font-size="14.00">La35 (a)</text>
</g>
<!-- 23 -->
<g id="node25" class="node">
<title>23</title>
<ellipse fill="none" stroke="black" cx="1902" cy="-399" rx="40.09" ry="18"/>
<text text-anchor="middle" x="1902" y="-395.3" font-family="Times,serif" font-size="14.00">Pal (d)</text>
</g>
<!-- 24 -->
<g id="node26" class="node">
<title>24</title>
<ellipse fill="none" stroke="black" cx="1070" cy="-399" rx="50.09" ry="18"/>
<text text-anchor="middle" x="1070" y="-395.3" font-family="Times,serif" font-size="14.00">A116 (a)</text>
</g>
<!-- 25&#45;&gt;5 -->
<g id="edge6" class="edge">
<title>25&#45;&gt;5</title>
<path fill="none" stroke="black" stroke-dasharray="5,2" d="M1125.33,-469.61C1118,-467.53 1110.29,-465.54 1103,-464 1042.91,-451.33 1026.75,-454.97 966,-446 887.14,-434.36 866.64,-435.06 789,-417 785.16,-416.11 781.19,-415.09 777.23,-414.02"/>
<polygon fill="black" stroke="black" points="778.03,-410.61 767.46,-411.24 776.12,-417.34 778.03,-410.61"/>
</g>
<!-- 25&#45;&gt;13 -->
<g id="edge14" class="edge">
<title>25&#45;&gt;13</title>
<path fill="none" stroke="black" stroke-dasharray="1,5" d="M1124.59,-469.95C1117.45,-467.89 1110.01,-465.82 1103,-464 1011.26,-440.22 986.43,-441.94 895,-417 891.64,-416.08 888.17,-415.09 884.69,-414.05"/>
<polygon fill="black" stroke="black" points="885.53,-410.65 874.94,-411.06 883.48,-417.34 885.53,-410.65"/>
</g>
<!-- 25&#45;&gt;20 -->
<g id="edge20" class="edge">
<title>25&#45;&gt;20</title>
<path fill="none" stroke="black" stroke-dasharray="1,5" d="M1128.5,-468.34C1092.48,-454.32 1034.27,-431.65 994.86,-416.3"/>
<polygon fill="black" stroke="black" points="995.86,-412.93 985.27,-412.57 993.32,-419.46 995.86,-412.93"/>
</g>
<!-- 25&#45;&gt;24 -->
<g id="edge24" class="edge">
<title>25&#45;&gt;24</title>
<path fill="none" stroke="black" stroke-dasharray="5,2" d="M1143.02,-465C1129.44,-452.9 1110.61,-436.14 1095.47,-422.67"/>
<polygon fill="black" stroke="black" points="1097.74,-420 1087.94,-415.97 1093.08,-425.23 1097.74,-420"/>
</g>
<!-- 30 -->
<g id="node32" class="node">
<title>30</title>
<ellipse fill="none" stroke="black" cx="1191" cy="-399" rx="52.79" ry="18"/>
<text text-anchor="middle" x="1191" y="-395.3" font-family="Times,serif" font-size="14.00">M111 (a)</text>
</g>
<!-- 25&#45;&gt;30 -->
<g id="edge30" class="edge">
<title>25&#45;&gt;30</title>
<path fill="none" stroke="black" stroke-dasharray="1,5" d="M1167.36,-463.82C1171.37,-453.01 1176.62,-438.84 1181.15,-426.59"/>
<polygon fill="black" stroke="black" points="1184.56,-427.47 1184.75,-416.88 1177.99,-425.04 1184.56,-427.47"/>
</g>
<!-- 32 -->
<g id="node34" class="node">
<title>32</title>
<ellipse fill="none" stroke="black" cx="1312" cy="-399" rx="50.09" ry="18"/>
<text text-anchor="middle" x="1312" y="-395.3" font-family="Times,serif" font-size="14.00">V571 (a)</text>
</g>
<!-- 25&#45;&gt;32 -->
<g id="edge32" class="edge">
<title>25&#45;&gt;32</title>
<path fill="none" stroke="black" stroke-dasharray="1,5" d="M1187.65,-466.71C1212.37,-453.44 1249.34,-433.61 1276.54,-419.02"/>
<polygon fill="black" stroke="black" points="1278.21,-422.1 1285.36,-414.29 1274.9,-415.93 1278.21,-422.1"/>
</g>
<!-- 38 -->
<g id="node40" class="node">
<title>38</title>
<ellipse fill="none" stroke="black" cx="1430" cy="-399" rx="50.09" ry="18"/>
<text text-anchor="middle" x="1430" y="-395.3" font-family="Times,serif" font-size="14.00">V565 (a)</text>
</g>
<!-- 25&#45;&gt;38 -->
<g id="edge38" class="edge">
<title>25&#45;&gt;38</title>
<path fill="none" stroke="black" stroke-dasharray="5,2" d="M1197.56,-469.99C1245.6,-455.53 1330.06,-430.09 1382.86,-414.19"/>
<polygon fill="black" stroke="black" points="1384.09,-417.48 1392.66,-411.24 1382.07,-410.78 1384.09,-417.48"/>
</g>
<!-- 40 -->
<g id="node42" class="node">
<title>40</title>
<ellipse fill="none" stroke="black" cx="1553" cy="-399" rx="55.49" ry="18"/>
<text text-anchor="middle" x="1553" y="-395.3" font-family="Times,serif" font-size="14.00">V1920 (c)</text>
</g>
<!-- 27&#45;&gt;40 -->
<g id="edge40" class="edge">
<title>27&#45;&gt;40</title>
<path fill="none" stroke="blue" stroke-dasharray="5,2" d="M1315.37,-469.99C1364.18,-455.62 1449.73,-430.42 1503.77,-414.5"/>
<polygon fill="blue" stroke="blue" points="1504.88,-417.82 1513.48,-411.64 1502.9,-411.11 1504.88,-417.82"/>
</g>
<!-- 28 -->
<g id="node30" class="node">
<title>28</title>
<ellipse fill="none" stroke="black" cx="370" cy="-107" rx="46.59" ry="18"/>
<text text-anchor="middle" x="370" y="-103.3" font-family="Times,serif" font-size="14.00">Mon (b)</text>
</g>
<!-- 36 -->
<g id="node38" class="node">
<title>36</title>
<ellipse fill="none" stroke="black" cx="370" cy="-34" rx="41.69" ry="18"/>
<text text-anchor="middle" x="370" y="-30.3" font-family="Times,serif" font-size="14.00">Sin (b)</text>
</g>
<!-- 28&#45;&gt;36 -->
<g id="edge36" class="edge">
<title>28&#45;&gt;36</title>
<path fill="none" stroke="black" stroke-dasharray="1,5" d="M370,-88.81C370,-80.79 370,-71.05 370,-62.07"/>
<polygon fill="black" stroke="black" points="373.5,-62.03 370,-52.03 366.5,-62.03 373.5,-62.03"/>
</g>
<!-- 29&#45;&gt;12 -->
<g id="edge13" class="edge">
<title>29&#45;&gt;12</title>
<path fill="none" stroke="black" stroke-dasharray="1,5" d="M493.68,-381.17C487.27,-372.42 479.3,-361.55 472.2,-351.85"/>
<polygon fill="black" stroke="black" points="474.97,-349.7 466.23,-343.71 469.32,-353.84 474.97,-349.7"/>
</g>
<!-- 29&#45;&gt;18 -->
<g id="edge18" class="edge">
<title>29&#45;&gt;18</title>
<path fill="none" stroke="black" d="M518.32,-381.17C524.73,-372.42 532.7,-361.55 539.8,-351.85"/>
<polygon fill="black" stroke="black" points="542.68,-353.84 545.77,-343.71 537.03,-349.7 542.68,-353.84"/>
</g>
<!-- 30&#45;&gt;16 -->
<g id="edge16" class="edge">
<title>30&#45;&gt;16</title>
<path fill="none" stroke="black" stroke-dasharray="5,2" d="M1191,-380.81C1191,-372.79 1191,-363.05 1191,-354.07"/>
<polygon fill="black" stroke="black" points="1194.5,-354.03 1191,-344.03 1187.5,-354.03 1194.5,-354.03"/>
</g>
<!-- 31&#45;&gt;10 -->
<g id="edge11" class="edge">
<title>31&#45;&gt;10</title>
<path fill="none" stroke="black" stroke-dasharray="5,2" d="M287.1,-235.17C281.48,-226.51 274.53,-215.77 268.29,-206.14"/>
<polygon fill="black" stroke="black" points="271.2,-204.19 262.82,-197.71 265.32,-208 271.2,-204.19"/>
</g>
<!-- 41 -->
<g id="node43" class="node">
<title>41</title>
<ellipse fill="none" stroke="black" cx="370" cy="-180" rx="50.09" ry="18"/>
<text text-anchor="middle" x="370" y="-176.3" font-family="Times,serif" font-size="14.00">Marc (b)</text>
</g>
<!-- 31&#45;&gt;41 -->
<g id="edge41" class="edge">
<title>31&#45;&gt;41</title>
<path fill="none" stroke="black" stroke-dasharray="1,5" d="M314.34,-235.89C323.82,-226.54 335.93,-214.6 346.43,-204.25"/>
<polygon fill="black" stroke="black" points="349.06,-206.56 353.73,-197.05 344.15,-201.58 349.06,-206.56"/>
</g>
<!-- 42 -->
<g id="node44" class="node">
<title>42</title>
<ellipse fill="none" stroke="black" cx="491" cy="-180" rx="53.09" ry="18"/>
<text text-anchor="middle" x="491" y="-176.3" font-family="Times,serif" font-size="14.00">M118 (b)</text>
</g>
<!-- 31&#45;&gt;42 -->
<g id="edge42" class="edge">
<title>31&#45;&gt;42</title>
<path fill="none" stroke="black" stroke-dasharray="5,2" d="M330.74,-239.96C362.59,-228.24 411.21,-210.35 446.55,-197.35"/>
<polygon fill="black" stroke="black" points="447.96,-200.56 456.14,-193.82 445.55,-193.99 447.96,-200.56"/>
</g>
<!-- 33&#45;&gt;9 -->
<g id="edge10" class="edge">
<title>33&#45;&gt;9</title>
<path fill="none" stroke="black" stroke-dasharray="1,5" d="M1433.76,-470.09C1440.82,-468.06 1448.13,-465.96 1455,-464 1515.72,-446.69 1585.64,-427.02 1631.65,-414.11"/>
<polygon fill="black" stroke="black" points="1632.7,-417.45 1641.38,-411.38 1630.81,-410.71 1632.7,-417.45"/>
</g>
<!-- 34 -->
<g id="node36" class="node">
<title>34</title>
<ellipse fill="none" stroke="black" cx="2010" cy="-399" rx="50.09" ry="18"/>
<text text-anchor="middle" x="2010" y="-395.3" font-family="Times,serif" font-size="14.00">V566 (a)</text>
</g>
<!-- 34&#45;&gt;1 -->
<g id="edge2" class="edge">
<title>34&#45;&gt;1</title>
<path fill="none" stroke="black" stroke-dasharray="1,5" d="M2010,-380.81C2010,-372.79 2010,-363.05 2010,-354.07"/>
<polygon fill="black" stroke="black" points="2013.5,-354.03 2010,-344.03 2006.5,-354.03 2013.5,-354.03"/>
</g>
<!-- 37&#45;&gt;7 -->
<g id="edge8" class="edge">
<title>37&#45;&gt;7</title>
<path fill="none" stroke="black" stroke-dasharray="5,2" d="M1882.81,-465.76C1867.24,-453.4 1845.08,-435.8 1827.6,-421.92"/>
<polygon fill="black" stroke="black" points="1829.45,-418.92 1819.45,-415.44 1825.1,-424.4 1829.45,-418.92"/>
</g>
<!-- 37&#45;&gt;23 -->
<g id="edge23" class="edge">
<title>37&#45;&gt;23</title>
<path fill="none" stroke="blue" stroke-dasharray="5,2" d="M1902,-463.82C1902,-453.19 1902,-439.31 1902,-427.2"/>
<polygon fill="blue" stroke="blue" points="1905.5,-427.15 1902,-417.15 1898.5,-427.15 1905.5,-427.15"/>
</g>
<!-- 37&#45;&gt;34 -->
<g id="edge34" class="edge">
<title>37&#45;&gt;34</title>
<path fill="none" stroke="black" stroke-dasharray="5,2" d="M1922.06,-465.95C1938.67,-453.5 1962.49,-435.63 1981.15,-421.64"/>
<polygon fill="black" stroke="black" points="1983.41,-424.32 1989.31,-415.52 1979.21,-418.72 1983.41,-424.32"/>
</g>
<!-- 39 -->
<g id="node41" class="node">
<title>39</title>
<ellipse fill="none" stroke="black" cx="2122" cy="-399" rx="44.39" ry="18"/>
<text text-anchor="middle" x="2122" y="-395.3" font-family="Times,serif" font-size="14.00">S32 (a)</text>
</g>
<!-- 37&#45;&gt;39 -->
<g id="edge39" class="edge">
<title>37&#45;&gt;39</title>
<path fill="none" stroke="black" stroke-dasharray="5,2" d="M1933.99,-469.22C1972.8,-454.93 2038.29,-430.82 2080.83,-415.16"/>
<polygon fill="black" stroke="black" points="2082.15,-418.4 2090.33,-411.66 2079.73,-411.83 2082.15,-418.4"/>
</g>
<!-- 41&#45;&gt;28 -->
<g id="edge28" class="edge">
<title>41&#45;&gt;28</title>
<path fill="none" stroke="black" stroke-dasharray="1,5" d="M370,-161.81C370,-153.79 370,-144.05 370,-135.07"/>
<polygon fill="black" stroke="black" points="373.5,-135.03 370,-125.03 366.5,-135.03 373.5,-135.03"/>
</g>
<!-- 42&#45;&gt;17 -->
<g id="edge17" class="edge">
<title>42&#45;&gt;17</title>
<path fill="none" stroke="gray" stroke-dasharray="5,2" d="M491,-161.81C491,-153.79 491,-144.05 491,-135.07"/>
<polygon fill="gray" stroke="gray" points="494.5,-135.03 491,-125.03 487.5,-135.03 494.5,-135.03"/>
</g>
</g>
</svg>
