<?xml version="1.0" encoding="UTF-8" standalone="no"?>
<!DOCTYPE svg PUBLIC "-//W3C//DTD SVG 1.1//EN"
 "http://www.w3.org/Graphics/SVG/1.1/DTD/svg11.dtd">
<!-- Generated by graphviz version 2.43.0 (0)
 -->
<!-- Title: textual_flow Pages: 1 -->
<svg width="2375pt" height="536pt"
 viewBox="0.00 0.00 2375.00 536.00" xmlns="http://www.w3.org/2000/svg" xmlns:xlink="http://www.w3.org/1999/xlink">
<g id="graph0" class="graph" transform="scale(1 1) rotate(0) translate(4 532)">
<title>textual_flow</title>
<polygon fill="white" stroke="transparent" points="-4,4 -4,-532 2371,-532 2371,4 -4,4"/>
<g id="clust1" class="cluster">
<title>cluster_legend</title>
<polygon fill="none" stroke="black" points="8,-466 8,-520 164,-520 164,-466 8,-466"/>
</g>
<g id="clust2" class="cluster">
<title>cluster_plot</title>
</g>
<!-- label -->
<g id="node1" class="node">
<title>label</title>
<text text-anchor="middle" x="86" y="-496.8" font-family="Times,serif" font-size="14.00">adstag1.2.40U18</text>
<text text-anchor="middle" x="86" y="-481.8" font-family="Times,serif" font-size="14.00">Con = 5</text>
</g>
<!-- 0 -->
<g id="node2" class="node">
<title>0</title>
<ellipse fill="none" stroke="black" cx="1244" cy="-346" rx="52.79" ry="18"/>
<text text-anchor="middle" x="1244" y="-342.3" font-family="Times,serif" font-size="14.00">M111 (a)</text>
</g>
<!-- 3 -->
<g id="node5" class="node">
<title>3</title>
<ellipse fill="none" stroke="black" cx="1245" cy="-273" rx="50.09" ry="18"/>
<text text-anchor="middle" x="1245" y="-269.3" font-family="Times,serif" font-size="14.00">A336 (a)</text>
</g>
<!-- 0&#45;&gt;3 -->
<g id="edge4" class="edge">
<title>0&#45;&gt;3</title>
<path fill="none" stroke="black" stroke-dasharray="5,2" d="M1244.24,-327.81C1244.36,-319.79 1244.49,-310.05 1244.62,-301.07"/>
<polygon fill="black" stroke="black" points="1248.12,-301.08 1244.76,-291.03 1241.12,-300.98 1248.12,-301.08"/>
</g>
<!-- 1 -->
<g id="node3" class="node">
<title>1</title>
<ellipse fill="none" stroke="black" cx="695" cy="-346" rx="50.09" ry="18"/>
<text text-anchor="middle" x="695" y="-342.3" font-family="Times,serif" font-size="14.00">Patm (a)</text>
</g>
<!-- 2 -->
<g id="node4" class="node">
<title>2</title>
<ellipse fill="none" stroke="black" cx="250" cy="-419" rx="50.09" ry="18"/>
<text text-anchor="middle" x="250" y="-415.3" font-family="Times,serif" font-size="14.00">V560 (b)</text>
</g>
<!-- 12 -->
<g id="node14" class="node">
<title>12</title>
<ellipse fill="none" stroke="black" cx="236" cy="-346" rx="55.79" ry="18"/>
<text text-anchor="middle" x="236" y="-342.3" font-family="Times,serif" font-size="14.00">V1920 (b)</text>
</g>
<!-- 2&#45;&gt;12 -->
<g id="edge12" class="edge">
<title>2&#45;&gt;12</title>
<path fill="none" stroke="black" stroke-dasharray="5,2" d="M246.61,-400.81C245.03,-392.79 243.11,-383.05 241.34,-374.07"/>
<polygon fill="black" stroke="black" points="244.73,-373.16 239.36,-364.03 237.86,-374.52 244.73,-373.16"/>
</g>
<!-- 4 -->
<g id="node6" class="node">
<title>4</title>
<ellipse fill="none" stroke="black" cx="1359" cy="-346" rx="44.39" ry="18"/>
<text text-anchor="middle" x="1359" y="-342.3" font-family="Times,serif" font-size="14.00">P74 (a)</text>
</g>
<!-- 5 -->
<g id="node7" class="node">
<title>5</title>
<ellipse fill="none" stroke="black" cx="351" cy="-346" rx="41.69" ry="18"/>
<text text-anchor="middle" x="351" y="-342.3" font-family="Times,serif" font-size="14.00">Est (a)</text>
</g>
<!-- 6 -->
<g id="node8" class="node">
<title>6</title>
<ellipse fill="none" stroke="black" cx="571" cy="-200" rx="46.59" ry="18"/>
<text text-anchor="middle" x="571" y="-196.3" font-family="Times,serif" font-size="14.00">Taur (a)</text>
</g>
<!-- 8 -->
<g id="node10" class="node">
<title>8</title>
<ellipse fill="none" stroke="black" cx="392" cy="-117" rx="50.09" ry="18"/>
<text text-anchor="middle" x="392" y="-113.3" font-family="Times,serif" font-size="14.00">Marc (b)</text>
</g>
<!-- 6&#45;&gt;8 -->
<g id="edge9" class="edge">
<title>6&#45;&gt;8</title>
<path fill="none" stroke="blue" stroke-dasharray="1,5" d="M541.84,-185.81C511.82,-172.22 464.83,-150.96 431.49,-135.87"/>
<polygon fill="blue" stroke="blue" points="432.6,-132.53 422.04,-131.59 429.71,-138.91 432.6,-132.53"/>
</g>
<!-- 10 -->
<g id="node12" class="node">
<title>10</title>
<ellipse fill="none" stroke="black" cx="513" cy="-117" rx="52.79" ry="18"/>
<text text-anchor="middle" x="513" y="-113.3" font-family="Times,serif" font-size="14.00">M118 (a)</text>
</g>
<!-- 6&#45;&gt;10 -->
<g id="edge11" class="edge">
<title>6&#45;&gt;10</title>
<path fill="none" stroke="black" stroke-dasharray="5,2" d="M558.98,-182.22C550.89,-170.92 540.09,-155.83 530.98,-143.11"/>
<polygon fill="black" stroke="black" points="533.67,-140.85 525,-134.76 527.98,-144.93 533.67,-140.85"/>
</g>
<!-- 13 -->
<g id="node15" class="node">
<title>13</title>
<ellipse fill="none" stroke="black" cx="630" cy="-117" rx="46.29" ry="18"/>
<text text-anchor="middle" x="630" y="-113.3" font-family="Times,serif" font-size="14.00">Mon (a)</text>
</g>
<!-- 6&#45;&gt;13 -->
<g id="edge13" class="edge">
<title>6&#45;&gt;13</title>
<path fill="none" stroke="black" stroke-dasharray="1,5" d="M583.22,-182.22C591.51,-170.85 602.59,-155.63 611.9,-142.86"/>
<polygon fill="black" stroke="black" points="614.93,-144.63 617.99,-134.48 609.28,-140.51 614.93,-144.63"/>
<text text-anchor="middle" x="607.5" y="-156" font-family="Times,serif" font-size="10.00">2</text>
</g>
<!-- 29 -->
<g id="node31" class="node">
<title>29</title>
<ellipse fill="none" stroke="black" cx="744" cy="-117" rx="50.09" ry="18"/>
<text text-anchor="middle" x="744" y="-113.3" font-family="Times,serif" font-size="14.00">V569 (a)</text>
</g>
<!-- 6&#45;&gt;29 -->
<g id="edge29" class="edge">
<title>6&#45;&gt;29</title>
<path fill="none" stroke="black" stroke-dasharray="5,2" d="M599.57,-185.62C628.57,-172.05 673.64,-150.94 705.72,-135.92"/>
<polygon fill="black" stroke="black" points="707.24,-139.08 714.81,-131.67 704.27,-132.74 707.24,-139.08"/>
</g>
<!-- 7 -->
<g id="node9" class="node">
<title>7</title>
<ellipse fill="none" stroke="black" cx="395" cy="-419" rx="55.79" ry="18"/>
<text text-anchor="middle" x="395" y="-415.3" font-family="Times,serif" font-size="14.00">V1897 (a)</text>
</g>
<!-- 7&#45;&gt;5 -->
<g id="edge6" class="edge">
<title>7&#45;&gt;5</title>
<path fill="none" stroke="black" stroke-dasharray="1,5" d="M384.57,-401.17C379.26,-392.6 372.68,-381.99 366.76,-372.44"/>
<polygon fill="black" stroke="black" points="369.6,-370.36 361.35,-363.71 363.65,-374.05 369.6,-370.36"/>
</g>
<!-- 42 -->
<g id="node44" class="node">
<title>42</title>
<ellipse fill="none" stroke="black" cx="454" cy="-346" rx="43.59" ry="18"/>
<text text-anchor="middle" x="454" y="-342.3" font-family="Times,serif" font-size="14.00">Bas (b)</text>
</g>
<!-- 7&#45;&gt;42 -->
<g id="edge42" class="edge">
<title>7&#45;&gt;42</title>
<path fill="none" stroke="blue" d="M408.68,-401.53C416.13,-392.57 425.49,-381.31 433.76,-371.36"/>
<polygon fill="blue" stroke="blue" points="436.69,-373.31 440.39,-363.38 431.31,-368.83 436.69,-373.31"/>
</g>
<!-- 35 -->
<g id="node37" class="node">
<title>35</title>
<ellipse fill="none" stroke="black" cx="392" cy="-34" rx="41.69" ry="18"/>
<text text-anchor="middle" x="392" y="-30.3" font-family="Times,serif" font-size="14.00">Sin (b)</text>
</g>
<!-- 8&#45;&gt;35 -->
<g id="edge35" class="edge">
<title>8&#45;&gt;35</title>
<path fill="none" stroke="black" stroke-dasharray="1,5" d="M392,-98.82C392,-88.19 392,-74.31 392,-62.2"/>
<polygon fill="black" stroke="black" points="395.5,-62.15 392,-52.15 388.5,-62.15 395.5,-62.15"/>
<text text-anchor="middle" x="395.5" y="-73" font-family="Times,serif" font-size="10.00">2</text>
</g>
<!-- 9 -->
<g id="node11" class="node">
<title>9</title>
<ellipse fill="none" stroke="black" cx="2307" cy="-346" rx="44.39" ry="18"/>
<text text-anchor="middle" x="2307" y="-342.3" font-family="Times,serif" font-size="14.00">B39 (a)</text>
</g>
<!-- 34 -->
<g id="node36" class="node">
<title>34</title>
<ellipse fill="none" stroke="gray" stroke-dasharray="5,2" cx="513" cy="-34" rx="28.7" ry="18"/>
<text text-anchor="middle" x="513" y="-30.3" font-family="Times,serif" font-size="14.00">P18</text>
</g>
<!-- 10&#45;&gt;34 -->
<g id="edge34" class="edge">
<title>10&#45;&gt;34</title>
<path fill="none" stroke="gray" stroke-dasharray="5,2" d="M513,-98.82C513,-88.19 513,-74.31 513,-62.2"/>
<polygon fill="gray" stroke="gray" points="516.5,-62.15 513,-52.15 509.5,-62.15 516.5,-62.15"/>
</g>
<!-- 11 -->
<g id="node13" class="node">
<title>11</title>
<ellipse fill="none" stroke="black" cx="880" cy="-493" rx="53.89" ry="18"/>
<text text-anchor="middle" x="880" y="-489.3" font-family="Times,serif" font-size="14.00">aBase (a)</text>
</g>
<!-- 11&#45;&gt;2 -->
<g id="edge3" class="edge">
<title>11&#45;&gt;2</title>
<path fill="none" stroke="blue" stroke-width="2" d="M827.43,-488.67C729.26,-482.03 511.58,-465.28 330,-437 320.52,-435.52 310.48,-433.64 300.83,-431.67"/>
<polygon fill="blue" stroke="blue" stroke-width="2" points="301.45,-428.23 290.95,-429.6 300.02,-435.08 301.45,-428.23"/>
</g>
<!-- 11&#45;&gt;7 -->
<g id="edge8" class="edge">
<title>11&#45;&gt;7</title>
<path fill="none" stroke="black" d="M828.59,-487.37C749.08,-479.73 591.72,-462.74 460,-437 455.31,-436.08 450.46,-435.02 445.61,-433.89"/>
<polygon fill="black" stroke="black" points="446.28,-430.45 435.74,-431.49 444.62,-437.25 446.28,-430.45"/>
</g>
<!-- 16 -->
<g id="node18" class="node">
<title>16</title>
<ellipse fill="none" stroke="black" cx="522" cy="-419" rx="52.79" ry="18"/>
<text text-anchor="middle" x="522" y="-415.3" font-family="Times,serif" font-size="14.00">M136 (a)</text>
</g>
<!-- 11&#45;&gt;16 -->
<g id="edge16" class="edge">
<title>11&#45;&gt;16</title>
<path fill="none" stroke="black" stroke-width="2" d="M832.33,-484.41C773.62,-474.77 670.99,-456.97 584,-437 579.66,-436 575.17,-434.91 570.68,-433.76"/>
<polygon fill="black" stroke="black" stroke-width="2" points="571.46,-430.35 560.9,-431.2 569.69,-437.12 571.46,-430.35"/>
</g>
<!-- 17 -->
<g id="node19" class="node">
<title>17</title>
<ellipse fill="none" stroke="black" cx="643" cy="-419" rx="50.09" ry="18"/>
<text text-anchor="middle" x="643" y="-415.3" font-family="Times,serif" font-size="14.00">Neap (a)</text>
</g>
<!-- 11&#45;&gt;17 -->
<g id="edge17" class="edge">
<title>11&#45;&gt;17</title>
<path fill="none" stroke="black" stroke-width="2" d="M841.39,-480.27C799.93,-467.68 734.05,-447.66 689.7,-434.19"/>
<polygon fill="black" stroke="black" stroke-width="2" points="690.61,-430.81 680.03,-431.25 688.58,-437.5 690.61,-430.81"/>
</g>
<!-- 19 -->
<g id="node21" class="node">
<title>19</title>
<ellipse fill="none" stroke="black" cx="754" cy="-419" rx="42.79" ry="18"/>
<text text-anchor="middle" x="754" y="-415.3" font-family="Times,serif" font-size="14.00">La2 (a)</text>
</g>
<!-- 11&#45;&gt;19 -->
<g id="edge19" class="edge">
<title>11&#45;&gt;19</title>
<path fill="none" stroke="black" stroke-width="2" d="M854.64,-476.92C843.18,-470.15 829.45,-462.11 817,-455 807.53,-449.59 797.21,-443.81 787.71,-438.53"/>
<polygon fill="black" stroke="black" stroke-width="2" points="789.36,-435.44 778.91,-433.66 785.96,-441.57 789.36,-435.44"/>
</g>
<!-- 20 -->
<g id="node22" class="node">
<title>20</title>
<ellipse fill="none" stroke="black" cx="880" cy="-419" rx="64.99" ry="18"/>
<text text-anchor="middle" x="880" y="-415.3" font-family="Times,serif" font-size="14.00">Savile&#45;Η (a)</text>
</g>
<!-- 11&#45;&gt;20 -->
<g id="edge20" class="edge">
<title>11&#45;&gt;20</title>
<path fill="none" stroke="black" stroke-width="2" d="M880,-474.94C880,-466.81 880,-456.88 880,-447.7"/>
<polygon fill="black" stroke="black" stroke-width="2" points="883.5,-447.44 880,-437.44 876.5,-447.44 883.5,-447.44"/>
</g>
<!-- 22 -->
<g id="node24" class="node">
<title>22</title>
<ellipse fill="none" stroke="black" cx="1007" cy="-419" rx="44.39" ry="18"/>
<text text-anchor="middle" x="1007" y="-415.3" font-family="Times,serif" font-size="14.00">A25 (a)</text>
</g>
<!-- 11&#45;&gt;22 -->
<g id="edge22" class="edge">
<title>11&#45;&gt;22</title>
<path fill="none" stroke="black" stroke-dasharray="5,2" d="M906.31,-477.08C925.68,-466.1 952.17,-451.08 973.12,-439.21"/>
<polygon fill="black" stroke="black" points="975.04,-442.14 982.02,-434.16 971.59,-436.05 975.04,-442.14"/>
</g>
<!-- 24 -->
<g id="node26" class="node">
<title>24</title>
<ellipse fill="none" stroke="gray" stroke-dasharray="5,2" cx="1104" cy="-419" rx="34.39" ry="18"/>
<text text-anchor="middle" x="1104" y="-415.3" font-family="Times,serif" font-size="14.00">S249</text>
</g>
<!-- 11&#45;&gt;24 -->
<g id="edge24" class="edge">
<title>11&#45;&gt;24</title>
<path fill="none" stroke="gray" d="M919.95,-480.69C956.6,-470.1 1012.28,-453.48 1060,-437 1062.68,-436.07 1065.45,-435.08 1068.22,-434.07"/>
<polygon fill="gray" stroke="gray" points="1069.45,-437.35 1077.59,-430.56 1067,-430.79 1069.45,-437.35"/>
</g>
<!-- 26 -->
<g id="node28" class="node">
<title>26</title>
<ellipse fill="none" stroke="black" cx="1601" cy="-419" rx="48.99" ry="18"/>
<text text-anchor="middle" x="1601" y="-415.3" font-family="Times,serif" font-size="14.00">La22 (a)</text>
</g>
<!-- 11&#45;&gt;26 -->
<g id="edge26" class="edge">
<title>11&#45;&gt;26</title>
<path fill="none" stroke="black" stroke-dasharray="5,2" d="M930.99,-486.91C1061.65,-473.86 1407.8,-439.29 1544.41,-425.65"/>
<polygon fill="black" stroke="black" points="1545.05,-429.1 1554.65,-424.63 1544.35,-422.14 1545.05,-429.1"/>
</g>
<!-- 36 -->
<g id="node38" class="node">
<title>36</title>
<ellipse fill="none" stroke="black" cx="1730" cy="-419" rx="44.69" ry="18"/>
<text text-anchor="middle" x="1730" y="-415.3" font-family="Times,serif" font-size="14.00">Nan (a)</text>
</g>
<!-- 11&#45;&gt;36 -->
<g id="edge36" class="edge">
<title>11&#45;&gt;36</title>
<path fill="none" stroke="black" d="M933.7,-491.24C1060.6,-488.8 1388.65,-478.62 1659,-437 1667.19,-435.74 1675.84,-434.01 1684.16,-432.14"/>
<polygon fill="black" stroke="black" points="1685.17,-435.5 1694.11,-429.81 1683.57,-428.68 1685.17,-435.5"/>
</g>
<!-- 39 -->
<g id="node41" class="node">
<title>39</title>
<ellipse fill="none" stroke="black" cx="2071" cy="-419" rx="52.79" ry="18"/>
<text text-anchor="middle" x="2071" y="-415.3" font-family="Times,serif" font-size="14.00">LaSM (a)</text>
</g>
<!-- 11&#45;&gt;39 -->
<g id="edge39" class="edge">
<title>11&#45;&gt;39</title>
<path fill="none" stroke="black" d="M932.76,-489.24C1042.98,-483.45 1305.69,-469.41 1526,-456 1701.69,-445.3 1909.14,-431.19 2009.92,-424.24"/>
<polygon fill="black" stroke="black" points="2010.18,-427.73 2019.92,-423.55 2009.7,-420.75 2010.18,-427.73"/>
</g>
<!-- 14 -->
<g id="node16" class="node">
<title>14</title>
<ellipse fill="none" stroke="gray" stroke-dasharray="5,2" cx="467" cy="-273" rx="36" ry="18"/>
<text text-anchor="middle" x="467" y="-269.3" font-family="Times,serif" font-size="14.00">La2&#45;c</text>
</g>
<!-- 15 -->
<g id="node17" class="node">
<title>15</title>
<ellipse fill="none" stroke="black" cx="1477" cy="-346" rx="55.79" ry="18"/>
<text text-anchor="middle" x="1477" y="-342.3" font-family="Times,serif" font-size="14.00">V2036 (a)</text>
</g>
<!-- 23 -->
<g id="node25" class="node">
<title>23</title>
<ellipse fill="none" stroke="black" cx="571" cy="-346" rx="55.79" ry="18"/>
<text text-anchor="middle" x="571" y="-342.3" font-family="Times,serif" font-size="14.00">V1629 (a)</text>
</g>
<!-- 17&#45;&gt;23 -->
<g id="edge23" class="edge">
<title>17&#45;&gt;23</title>
<path fill="none" stroke="black" stroke-dasharray="1,5" d="M626.66,-401.89C617.31,-392.67 605.41,-380.94 595.02,-370.68"/>
<polygon fill="black" stroke="black" points="597.35,-368.07 587.77,-363.54 592.44,-373.05 597.35,-368.07"/>
</g>
<!-- 18 -->
<g id="node20" class="node">
<title>18</title>
<ellipse fill="none" stroke="black" cx="1601" cy="-346" rx="50.09" ry="18"/>
<text text-anchor="middle" x="1601" y="-342.3" font-family="Times,serif" font-size="14.00">V565 (a)</text>
</g>
<!-- 21 -->
<g id="node23" class="node">
<title>21</title>
<ellipse fill="none" stroke="black" cx="807" cy="-346" rx="44.39" ry="18"/>
<text text-anchor="middle" x="807" y="-342.3" font-family="Times,serif" font-size="14.00">P01 (a)</text>
</g>
<!-- 22&#45;&gt;1 -->
<g id="edge2" class="edge">
<title>22&#45;&gt;1</title>
<path fill="none" stroke="black" stroke-dasharray="1,5" d="M974.39,-406.82C967.69,-404.73 960.65,-402.68 954,-401 866.34,-378.93 841.98,-384.76 754,-364 749.97,-363.05 745.81,-362 741.65,-360.89"/>
<polygon fill="black" stroke="black" points="742.56,-357.52 731.99,-358.26 740.72,-364.27 742.56,-357.52"/>
</g>
<!-- 22&#45;&gt;21 -->
<g id="edge21" class="edge">
<title>22&#45;&gt;21</title>
<path fill="none" stroke="black" stroke-dasharray="5,2" d="M974.87,-406.59C940.71,-394.47 886.54,-375.24 849.02,-361.92"/>
<polygon fill="black" stroke="black" points="849.98,-358.54 839.39,-358.5 847.64,-365.14 849.98,-358.54"/>
</g>
<!-- 28 -->
<g id="node30" class="node">
<title>28</title>
<ellipse fill="none" stroke="black" cx="913" cy="-346" rx="44.39" ry="18"/>
<text text-anchor="middle" x="913" y="-342.3" font-family="Times,serif" font-size="14.00">S32 (a)</text>
</g>
<!-- 22&#45;&gt;28 -->
<g id="edge28" class="edge">
<title>22&#45;&gt;28</title>
<path fill="none" stroke="black" stroke-dasharray="5,2" d="M986.6,-402.59C973.33,-392.57 955.84,-379.36 941.24,-368.33"/>
<polygon fill="black" stroke="black" points="943.12,-365.37 933.03,-362.13 938.9,-370.95 943.12,-365.37"/>
</g>
<!-- 32 -->
<g id="node34" class="node">
<title>32</title>
<ellipse fill="none" stroke="black" cx="1015" cy="-346" rx="40.09" ry="18"/>
<text text-anchor="middle" x="1015" y="-342.3" font-family="Times,serif" font-size="14.00">Pal (a)</text>
</g>
<!-- 22&#45;&gt;32 -->
<g id="edge32" class="edge">
<title>22&#45;&gt;32</title>
<path fill="none" stroke="black" stroke-dasharray="5,2" d="M1008.94,-400.81C1009.84,-392.79 1010.94,-383.05 1011.95,-374.07"/>
<polygon fill="black" stroke="black" points="1015.44,-374.36 1013.08,-364.03 1008.48,-373.57 1015.44,-374.36"/>
</g>
<!-- 37 -->
<g id="node39" class="node">
<title>37</title>
<ellipse fill="none" stroke="black" cx="1123" cy="-346" rx="50.09" ry="18"/>
<text text-anchor="middle" x="1123" y="-342.3" font-family="Times,serif" font-size="14.00">V566 (a)</text>
</g>
<!-- 22&#45;&gt;37 -->
<g id="edge37" class="edge">
<title>22&#45;&gt;37</title>
<path fill="none" stroke="black" stroke-dasharray="5,2" d="M1030.47,-403.63C1047.62,-393.14 1071.09,-378.77 1090.11,-367.13"/>
<polygon fill="black" stroke="black" points="1092.06,-370.04 1098.76,-361.84 1088.41,-364.07 1092.06,-370.04"/>
</g>
<!-- 23&#45;&gt;14 -->
<g id="edge14" class="edge">
<title>23&#45;&gt;14</title>
<path fill="none" stroke="gray" stroke-width="2" d="M548.18,-329.42C532.84,-318.95 512.5,-305.06 496.01,-293.81"/>
<polygon fill="gray" stroke="gray" stroke-width="2" points="497.54,-290.61 487.31,-287.86 493.59,-296.39 497.54,-290.61"/>
</g>
<!-- 33 -->
<g id="node35" class="node">
<title>33</title>
<ellipse fill="none" stroke="black" cx="571" cy="-273" rx="50.09" ry="18"/>
<text text-anchor="middle" x="571" y="-269.3" font-family="Times,serif" font-size="14.00">V568 (a)</text>
</g>
<!-- 23&#45;&gt;33 -->
<g id="edge33" class="edge">
<title>23&#45;&gt;33</title>
<path fill="none" stroke="black" stroke-dasharray="5,2" d="M571,-327.81C571,-319.79 571,-310.05 571,-301.07"/>
<polygon fill="black" stroke="black" points="574.5,-301.03 571,-291.03 567.5,-301.03 574.5,-301.03"/>
</g>
<!-- 40 -->
<g id="node42" class="node">
<title>40</title>
<ellipse fill="none" stroke="black" cx="689" cy="-273" rx="50.09" ry="18"/>
<text text-anchor="middle" x="689" y="-269.3" font-family="Times,serif" font-size="14.00">V536 (a)</text>
</g>
<!-- 23&#45;&gt;40 -->
<g id="edge40" class="edge">
<title>23&#45;&gt;40</title>
<path fill="none" stroke="black" stroke-dasharray="5,2" d="M596.31,-329.77C613.74,-319.29 637.05,-305.26 655.94,-293.89"/>
<polygon fill="black" stroke="black" points="657.77,-296.87 664.54,-288.72 654.16,-290.88 657.77,-296.87"/>
</g>
<!-- 25 -->
<g id="node27" class="node">
<title>25</title>
<ellipse fill="none" stroke="black" cx="1719" cy="-346" rx="50.09" ry="18"/>
<text text-anchor="middle" x="1719" y="-342.3" font-family="Times,serif" font-size="14.00">V571 (a)</text>
</g>
<!-- 26&#45;&gt;0 -->
<g id="edge1" class="edge">
<title>26&#45;&gt;0</title>
<path fill="none" stroke="black" stroke-dasharray="1,5" d="M1556.78,-411.13C1498.87,-401.86 1394.33,-384.15 1306,-364 1301.66,-363.01 1297.17,-361.92 1292.67,-360.77"/>
<polygon fill="black" stroke="black" points="1293.46,-357.36 1282.9,-358.22 1291.69,-364.13 1293.46,-357.36"/>
</g>
<!-- 26&#45;&gt;4 -->
<g id="edge5" class="edge">
<title>26&#45;&gt;4</title>
<path fill="none" stroke="black" stroke-dasharray="1,5" d="M1563.24,-407.6C1525.02,-396.97 1464.25,-379.84 1412,-364 1408.71,-363 1405.31,-361.95 1401.9,-360.89"/>
<polygon fill="black" stroke="black" points="1402.9,-357.53 1392.31,-357.86 1400.79,-364.21 1402.9,-357.53"/>
</g>
<!-- 26&#45;&gt;15 -->
<g id="edge15" class="edge">
<title>26&#45;&gt;15</title>
<path fill="none" stroke="black" stroke-dasharray="5,2" d="M1575.61,-403.46C1557.3,-392.98 1532.35,-378.69 1512.13,-367.11"/>
<polygon fill="black" stroke="black" points="1513.63,-363.94 1503.21,-362.01 1510.15,-370.02 1513.63,-363.94"/>
</g>
<!-- 26&#45;&gt;18 -->
<g id="edge18" class="edge">
<title>26&#45;&gt;18</title>
<path fill="none" stroke="black" stroke-dasharray="5,2" d="M1601,-400.81C1601,-392.79 1601,-383.05 1601,-374.07"/>
<polygon fill="black" stroke="black" points="1604.5,-374.03 1601,-364.03 1597.5,-374.03 1604.5,-374.03"/>
</g>
<!-- 26&#45;&gt;25 -->
<g id="edge25" class="edge">
<title>26&#45;&gt;25</title>
<path fill="none" stroke="black" stroke-dasharray="1,5" d="M1625.45,-403.29C1642.82,-392.84 1666.35,-378.68 1685.47,-367.18"/>
<polygon fill="black" stroke="black" points="1687.41,-370.09 1694.18,-361.94 1683.8,-364.09 1687.41,-370.09"/>
</g>
<!-- 27 -->
<g id="node29" class="node">
<title>27</title>
<ellipse fill="none" stroke="black" cx="1836" cy="-346" rx="48.99" ry="18"/>
<text text-anchor="middle" x="1836" y="-342.3" font-family="Times,serif" font-size="14.00">La35 (a)</text>
</g>
<!-- 26&#45;&gt;27 -->
<g id="edge27" class="edge">
<title>26&#45;&gt;27</title>
<path fill="none" stroke="black" stroke-dasharray="1,5" d="M1637.46,-406.98C1678.45,-394.6 1745.1,-374.46 1789.73,-360.98"/>
<polygon fill="black" stroke="black" points="1790.89,-364.28 1799.45,-358.04 1788.87,-357.58 1790.89,-364.28"/>
</g>
<!-- 38 -->
<g id="node40" class="node">
<title>38</title>
<ellipse fill="none" stroke="black" cx="1953" cy="-346" rx="50.09" ry="18"/>
<text text-anchor="middle" x="1953" y="-342.3" font-family="Times,serif" font-size="14.00">A116 (a)</text>
</g>
<!-- 26&#45;&gt;38 -->
<g id="edge38" class="edge">
<title>26&#45;&gt;38</title>
<path fill="none" stroke="black" stroke-dasharray="5,2" d="M1641.46,-408.75C1652.65,-406.21 1664.79,-403.48 1676,-401 1715.07,-392.36 1724.6,-388.97 1764,-382 1821.44,-371.84 1836.94,-376.11 1894,-364 1898.11,-363.13 1902.34,-362.12 1906.58,-361.05"/>
<polygon fill="black" stroke="black" points="1907.62,-364.39 1916.38,-358.43 1905.82,-357.63 1907.62,-364.39"/>
</g>
<!-- 41 -->
<g id="node43" class="node">
<title>41</title>
<ellipse fill="none" stroke="black" cx="2068" cy="-346" rx="46.59" ry="18"/>
<text text-anchor="middle" x="2068" y="-342.3" font-family="Times,serif" font-size="14.00">Bodl (a)</text>
</g>
<!-- 26&#45;&gt;41 -->
<g id="edge41" class="edge">
<title>26&#45;&gt;41</title>
<path fill="none" stroke="black" stroke-dasharray="5,2" d="M1640.15,-408.25C1651.65,-405.62 1664.28,-402.97 1676,-401 1824.16,-376.13 1864.82,-394.17 2012,-364 2015.92,-363.2 2019.96,-362.24 2023.99,-361.19"/>
<polygon fill="black" stroke="black" points="2025.2,-364.49 2033.9,-358.45 2023.33,-357.74 2025.2,-364.49"/>
</g>
<!-- 30 -->
<g id="node32" class="node">
<title>30</title>
<ellipse fill="none" stroke="black" cx="2189" cy="-346" rx="55.79" ry="18"/>
<text text-anchor="middle" x="2189" y="-342.3" font-family="Times,serif" font-size="14.00">V2250 (a)</text>
</g>
<!-- 31 -->
<g id="node33" class="node">
<title>31</title>
<ellipse fill="none" stroke="black" cx="1121" cy="-273" rx="55.79" ry="18"/>
<text text-anchor="middle" x="1121" y="-269.3" font-family="Times,serif" font-size="14.00">V1639 (a)</text>
</g>
<!-- 33&#45;&gt;6 -->
<g id="edge7" class="edge">
<title>33&#45;&gt;6</title>
<path fill="none" stroke="black" stroke-dasharray="1,5" d="M571,-254.81C571,-246.79 571,-237.05 571,-228.07"/>
<polygon fill="black" stroke="black" points="574.5,-228.03 571,-218.03 567.5,-228.03 574.5,-228.03"/>
</g>
<!-- 36&#45;&gt;30 -->
<g id="edge30" class="edge">
<title>36&#45;&gt;30</title>
<path fill="none" stroke="black" stroke-dasharray="5,2" d="M1773.13,-413.8C1845.91,-406.32 1997.53,-389.11 2124,-364 2128.69,-363.07 2133.54,-362 2138.38,-360.86"/>
<polygon fill="black" stroke="black" points="2139.37,-364.22 2148.26,-358.45 2137.71,-357.42 2139.37,-364.22"/>
</g>
<!-- 37&#45;&gt;31 -->
<g id="edge31" class="edge">
<title>37&#45;&gt;31</title>
<path fill="none" stroke="black" stroke-dasharray="1,5" d="M1122.52,-327.81C1122.29,-319.79 1122.02,-310.05 1121.76,-301.07"/>
<polygon fill="black" stroke="black" points="1125.26,-300.93 1121.48,-291.03 1118.26,-301.12 1125.26,-300.93"/>
</g>
<!-- 39&#45;&gt;9 -->
<g id="edge10" class="edge">
<title>39&#45;&gt;9</title>
<path fill="none" stroke="black" stroke-dasharray="5,2" d="M2109.99,-406.78C2147.09,-396.04 2204.45,-379.25 2254,-364 2257.14,-363.03 2260.38,-362.02 2263.64,-361"/>
<polygon fill="black" stroke="black" points="2264.92,-364.27 2273.39,-357.91 2262.8,-357.59 2264.92,-364.27"/>
</g>
</g>
</svg>
