<?xml version="1.0" encoding="UTF-8" standalone="no"?>
<!DOCTYPE svg PUBLIC "-//W3C//DTD SVG 1.1//EN"
 "http://www.w3.org/Graphics/SVG/1.1/DTD/svg11.dtd">
<!-- Generated by graphviz version 2.43.0 (0)
 -->
<!-- Title: textual_flow Pages: 1 -->
<svg width="1783pt" height="838pt"
 viewBox="0.00 0.00 1783.00 838.00" xmlns="http://www.w3.org/2000/svg" xmlns:xlink="http://www.w3.org/1999/xlink">
<g id="graph0" class="graph" transform="scale(1 1) rotate(0) translate(4 834)">
<title>textual_flow</title>
<polygon fill="white" stroke="transparent" points="-4,4 -4,-834 1779,-834 1779,4 -4,4"/>
<g id="clust1" class="cluster">
<title>cluster_legend</title>
<polygon fill="none" stroke="black" points="8,-768 8,-822 164,-822 164,-768 8,-768"/>
</g>
<g id="clust2" class="cluster">
<title>cluster_plot</title>
</g>
<!-- label -->
<g id="node1" class="node">
<title>label</title>
<text text-anchor="middle" x="86" y="-798.8" font-family="Times,serif" font-size="14.00">adstag1.3.47U41</text>
<text text-anchor="middle" x="86" y="-783.8" font-family="Times,serif" font-size="14.00">Con = 3</text>
</g>
<!-- 0 -->
<g id="node2" class="node">
<title>0</title>
<ellipse fill="none" stroke="black" cx="998" cy="-628" rx="44.39" ry="18"/>
<text text-anchor="middle" x="998" y="-624.3" font-family="Times,serif" font-size="14.00">P74 (a)</text>
</g>
<!-- 1 -->
<g id="node3" class="node">
<title>1</title>
<ellipse fill="none" stroke="black" cx="236" cy="-711" rx="55.79" ry="18"/>
<text text-anchor="middle" x="236" y="-707.3" font-family="Times,serif" font-size="14.00">V2036 (a)</text>
</g>
<!-- 2 -->
<g id="node4" class="node">
<title>2</title>
<ellipse fill="none" stroke="black" cx="905" cy="-795" rx="53.89" ry="18"/>
<text text-anchor="middle" x="905" y="-791.3" font-family="Times,serif" font-size="14.00">aBase (a)</text>
</g>
<!-- 2&#45;&gt;1 -->
<g id="edge2" class="edge">
<title>2&#45;&gt;1</title>
<path fill="none" stroke="black" d="M852.03,-791.35C746.39,-785.38 502.34,-768.26 301,-729 296.31,-728.09 291.46,-727.03 286.61,-725.9"/>
<polygon fill="black" stroke="black" points="287.28,-722.46 276.73,-723.5 285.62,-729.26 287.28,-722.46"/>
</g>
<!-- 3 -->
<g id="node5" class="node">
<title>3</title>
<ellipse fill="none" stroke="black" cx="363" cy="-711" rx="52.79" ry="18"/>
<text text-anchor="middle" x="363" y="-707.3" font-family="Times,serif" font-size="14.00">LaSM (a)</text>
</g>
<!-- 2&#45;&gt;3 -->
<g id="edge3" class="edge">
<title>2&#45;&gt;3</title>
<path fill="none" stroke="black" d="M853.26,-789.79C764.62,-781.97 578.34,-762.83 424,-729 419.89,-728.1 415.65,-727.09 411.41,-726.02"/>
<polygon fill="black" stroke="black" points="412.12,-722.59 401.56,-723.45 410.35,-729.36 412.12,-722.59"/>
</g>
<!-- 6 -->
<g id="node8" class="node">
<title>6</title>
<ellipse fill="none" stroke="black" cx="475" cy="-711" rx="41.69" ry="18"/>
<text text-anchor="middle" x="475" y="-707.3" font-family="Times,serif" font-size="14.00">Est (a)</text>
</g>
<!-- 2&#45;&gt;6 -->
<g id="edge6" class="edge">
<title>2&#45;&gt;6</title>
<path fill="none" stroke="black" d="M855.14,-787.91C782.19,-778.44 642.39,-758.2 526,-729 522.64,-728.16 519.18,-727.2 515.72,-726.18"/>
<polygon fill="black" stroke="black" points="516.65,-722.81 506.07,-723.19 514.58,-729.49 516.65,-722.81"/>
<text text-anchor="middle" x="663.5" y="-750" font-family="Times,serif" font-size="10.00">3</text>
</g>
<!-- 11 -->
<g id="node13" class="node">
<title>11</title>
<ellipse fill="none" stroke="black" cx="585" cy="-711" rx="50.09" ry="18"/>
<text text-anchor="middle" x="585" y="-707.3" font-family="Times,serif" font-size="14.00">V560 (a)</text>
</g>
<!-- 2&#45;&gt;11 -->
<g id="edge11" class="edge">
<title>2&#45;&gt;11</title>
<path fill="none" stroke="black" stroke-width="2" d="M862.38,-783.89C810.61,-771.49 720.67,-749.59 644,-729 640.17,-727.97 636.21,-726.88 632.24,-725.78"/>
<polygon fill="black" stroke="black" stroke-width="2" points="632.97,-722.35 622.4,-723 631.07,-729.08 632.97,-722.35"/>
</g>
<!-- 14 -->
<g id="node16" class="node">
<title>14</title>
<ellipse fill="none" stroke="black" cx="696" cy="-711" rx="42.79" ry="18"/>
<text text-anchor="middle" x="696" y="-707.3" font-family="Times,serif" font-size="14.00">La2 (a)</text>
</g>
<!-- 2&#45;&gt;14 -->
<g id="edge14" class="edge">
<title>2&#45;&gt;14</title>
<path fill="none" stroke="black" stroke-width="2" d="M871.42,-780.83C834.51,-766.34 775.24,-743.09 735.97,-727.68"/>
<polygon fill="black" stroke="black" stroke-width="2" points="737.03,-724.34 726.44,-723.94 734.47,-730.85 737.03,-724.34"/>
</g>
<!-- 17 -->
<g id="node19" class="node">
<title>17</title>
<ellipse fill="none" stroke="black" cx="800" cy="-711" rx="42.79" ry="18"/>
<text text-anchor="middle" x="800" y="-707.3" font-family="Times,serif" font-size="14.00">Bas (a)</text>
</g>
<!-- 2&#45;&gt;17 -->
<g id="edge17" class="edge">
<title>2&#45;&gt;17</title>
<path fill="none" stroke="black" stroke-width="2" d="M884.75,-778.19C868.57,-765.55 845.71,-747.7 827.81,-733.72"/>
<polygon fill="black" stroke="black" stroke-width="2" points="829.51,-730.6 819.47,-727.21 825.2,-736.12 829.51,-730.6"/>
<text text-anchor="middle" x="861.5" y="-750" font-family="Times,serif" font-size="10.00">3</text>
</g>
<!-- 18 -->
<g id="node20" class="node">
<title>18</title>
<ellipse fill="none" stroke="black" cx="905" cy="-711" rx="44.39" ry="18"/>
<text text-anchor="middle" x="905" y="-707.3" font-family="Times,serif" font-size="14.00">A25 (b)</text>
</g>
<!-- 2&#45;&gt;18 -->
<g id="edge18" class="edge">
<title>2&#45;&gt;18</title>
<path fill="none" stroke="blue" stroke-dasharray="5,2" d="M905,-776.61C905,-765.77 905,-751.6 905,-739.29"/>
<polygon fill="blue" stroke="blue" points="908.5,-739.08 905,-729.08 901.5,-739.08 908.5,-739.08"/>
</g>
<!-- 19 -->
<g id="node21" class="node">
<title>19</title>
<ellipse fill="none" stroke="black" cx="1017" cy="-711" rx="50.09" ry="18"/>
<text text-anchor="middle" x="1017" y="-707.3" font-family="Times,serif" font-size="14.00">S249 (a)</text>
</g>
<!-- 2&#45;&gt;19 -->
<g id="edge19" class="edge">
<title>2&#45;&gt;19</title>
<path fill="none" stroke="black" d="M926.33,-778.38C943.69,-765.67 968.38,-747.6 987.61,-733.52"/>
<polygon fill="black" stroke="black" points="989.75,-736.29 995.75,-727.56 985.61,-730.64 989.75,-736.29"/>
</g>
<!-- 21 -->
<g id="node23" class="node">
<title>21</title>
<ellipse fill="none" stroke="black" cx="1134" cy="-711" rx="48.99" ry="18"/>
<text text-anchor="middle" x="1134" y="-707.3" font-family="Times,serif" font-size="14.00">La22 (a)</text>
</g>
<!-- 2&#45;&gt;21 -->
<g id="edge21" class="edge">
<title>2&#45;&gt;21</title>
<path fill="none" stroke="black" stroke-dasharray="5,2" d="M940.28,-781.37C980.75,-766.87 1047.13,-743.11 1090.7,-727.5"/>
<polygon fill="black" stroke="black" points="1091.94,-730.78 1100.17,-724.11 1089.58,-724.19 1091.94,-730.78"/>
</g>
<!-- 23 -->
<g id="node25" class="node">
<title>23</title>
<ellipse fill="none" stroke="gray" stroke-dasharray="5,2" cx="1251" cy="-711" rx="50.09" ry="18"/>
<text text-anchor="middle" x="1251" y="-707.3" font-family="Times,serif" font-size="14.00">Savile&#45;Η</text>
</g>
<!-- 2&#45;&gt;23 -->
<g id="edge23" class="edge">
<title>2&#45;&gt;23</title>
<path fill="none" stroke="gray" stroke-width="2" d="M949.44,-784.77C1006.01,-772.83 1106.65,-750.94 1192,-729 1195.84,-728.01 1199.81,-726.95 1203.79,-725.86"/>
<polygon fill="gray" stroke="gray" stroke-width="2" points="1204.94,-729.18 1213.64,-723.12 1203.06,-722.43 1204.94,-729.18"/>
</g>
<!-- 30 -->
<g id="node32" class="node">
<title>30</title>
<ellipse fill="none" stroke="black" cx="1372" cy="-711" rx="52.79" ry="18"/>
<text text-anchor="middle" x="1372" y="-707.3" font-family="Times,serif" font-size="14.00">M136 (a)</text>
</g>
<!-- 2&#45;&gt;30 -->
<g id="edge30" class="edge">
<title>2&#45;&gt;30</title>
<path fill="none" stroke="black" stroke-width="2" d="M954.57,-787.81C1031.24,-777.84 1182.98,-756.52 1310,-729 1314.35,-728.06 1318.85,-727 1323.35,-725.87"/>
<polygon fill="black" stroke="black" stroke-width="2" points="1324.32,-729.24 1333.13,-723.35 1322.58,-722.46 1324.32,-729.24"/>
</g>
<!-- 39 -->
<g id="node41" class="node">
<title>39</title>
<ellipse fill="none" stroke="black" cx="1493" cy="-711" rx="50.09" ry="18"/>
<text text-anchor="middle" x="1493" y="-707.3" font-family="Times,serif" font-size="14.00">Patm (a)</text>
</g>
<!-- 2&#45;&gt;39 -->
<g id="edge39" class="edge">
<title>2&#45;&gt;39</title>
<path fill="none" stroke="black" d="M957.25,-790.34C1052.69,-783.04 1261.29,-764.26 1434,-729 1438.17,-728.15 1442.48,-727.15 1446.77,-726.07"/>
<polygon fill="black" stroke="black" points="1447.95,-729.38 1456.72,-723.43 1446.15,-722.61 1447.95,-729.38"/>
</g>
<!-- 41 -->
<g id="node43" class="node">
<title>41</title>
<ellipse fill="none" stroke="black" cx="1657" cy="-711" rx="50.09" ry="18"/>
<text text-anchor="middle" x="1657" y="-707.3" font-family="Times,serif" font-size="14.00">V566 (a)</text>
</g>
<!-- 2&#45;&gt;41 -->
<g id="edge41" class="edge">
<title>2&#45;&gt;41</title>
<path fill="none" stroke="black" d="M957.16,-790.17C1067.35,-781.76 1331.77,-759.96 1552,-729 1568.58,-726.67 1586.59,-723.86 1602.94,-721.2"/>
<polygon fill="black" stroke="black" points="1603.57,-724.64 1612.87,-719.56 1602.44,-717.73 1603.57,-724.64"/>
<text text-anchor="middle" x="1413.5" y="-750" font-family="Times,serif" font-size="10.00">2</text>
</g>
<!-- 34 -->
<g id="node36" class="node">
<title>34</title>
<ellipse fill="none" stroke="black" cx="224" cy="-628" rx="44.39" ry="18"/>
<text text-anchor="middle" x="224" y="-624.3" font-family="Times,serif" font-size="14.00">B39 (a)</text>
</g>
<!-- 3&#45;&gt;34 -->
<g id="edge34" class="edge">
<title>3&#45;&gt;34</title>
<path fill="none" stroke="black" stroke-dasharray="5,2" d="M337.51,-695.14C314.89,-681.96 281.71,-662.63 257.06,-648.27"/>
<polygon fill="black" stroke="black" points="258.8,-645.23 248.4,-643.22 255.28,-651.28 258.8,-645.23"/>
</g>
<!-- 4 -->
<g id="node6" class="node">
<title>4</title>
<ellipse fill="none" stroke="black" cx="269" cy="-107" rx="46.59" ry="18"/>
<text text-anchor="middle" x="269" y="-103.3" font-family="Times,serif" font-size="14.00">Mon (b)</text>
</g>
<!-- 26 -->
<g id="node28" class="node">
<title>26</title>
<ellipse fill="none" stroke="black" cx="269" cy="-34" rx="41.69" ry="18"/>
<text text-anchor="middle" x="269" y="-30.3" font-family="Times,serif" font-size="14.00">Sin (b)</text>
</g>
<!-- 4&#45;&gt;26 -->
<g id="edge26" class="edge">
<title>4&#45;&gt;26</title>
<path fill="none" stroke="black" stroke-dasharray="1,5" d="M269,-88.81C269,-80.79 269,-71.05 269,-62.07"/>
<polygon fill="black" stroke="black" points="272.5,-62.03 269,-52.03 265.5,-62.03 272.5,-62.03"/>
</g>
<!-- 5 -->
<g id="node7" class="node">
<title>5</title>
<ellipse fill="none" stroke="black" cx="344" cy="-545" rx="50.89" ry="18"/>
<text text-anchor="middle" x="344" y="-541.3" font-family="Times,serif" font-size="14.00">Neap (b)</text>
</g>
<!-- 8 -->
<g id="node10" class="node">
<title>8</title>
<ellipse fill="none" stroke="black" cx="344" cy="-472" rx="55.79" ry="18"/>
<text text-anchor="middle" x="344" y="-468.3" font-family="Times,serif" font-size="14.00">V1629 (b)</text>
</g>
<!-- 5&#45;&gt;8 -->
<g id="edge8" class="edge">
<title>5&#45;&gt;8</title>
<path fill="none" stroke="black" stroke-dasharray="1,5" d="M344,-526.81C344,-518.79 344,-509.05 344,-500.07"/>
<polygon fill="black" stroke="black" points="347.5,-500.03 344,-490.03 340.5,-500.03 347.5,-500.03"/>
</g>
<!-- 7 -->
<g id="node9" class="node">
<title>7</title>
<ellipse fill="none" stroke="black" cx="460" cy="-628" rx="44.39" ry="18"/>
<text text-anchor="middle" x="460" y="-624.3" font-family="Times,serif" font-size="14.00">S32 (b)</text>
</g>
<!-- 25 -->
<g id="node27" class="node">
<title>25</title>
<ellipse fill="none" stroke="gray" stroke-dasharray="5,2" cx="283" cy="-399" rx="36" ry="18"/>
<text text-anchor="middle" x="283" y="-395.3" font-family="Times,serif" font-size="14.00">La2&#45;c</text>
</g>
<!-- 8&#45;&gt;25 -->
<g id="edge25" class="edge">
<title>8&#45;&gt;25</title>
<path fill="none" stroke="gray" stroke-width="2" d="M329.85,-454.53C321.96,-445.35 312.01,-433.76 303.3,-423.63"/>
<polygon fill="gray" stroke="gray" stroke-width="2" points="305.82,-421.19 296.65,-415.89 300.51,-425.76 305.82,-421.19"/>
</g>
<!-- 40 -->
<g id="node42" class="node">
<title>40</title>
<ellipse fill="none" stroke="black" cx="387" cy="-399" rx="50.09" ry="18"/>
<text text-anchor="middle" x="387" y="-395.3" font-family="Times,serif" font-size="14.00">V536 (b)</text>
</g>
<!-- 8&#45;&gt;40 -->
<g id="edge40" class="edge">
<title>8&#45;&gt;40</title>
<path fill="none" stroke="black" stroke-dasharray="5,2" d="M354.19,-454.17C359.38,-445.6 365.81,-434.99 371.59,-425.44"/>
<polygon fill="black" stroke="black" points="374.7,-427.07 376.88,-416.71 368.71,-423.45 374.7,-427.07"/>
</g>
<!-- 9 -->
<g id="node11" class="node">
<title>9</title>
<ellipse fill="none" stroke="black" cx="568" cy="-628" rx="45.49" ry="18"/>
<text text-anchor="middle" x="568" y="-624.3" font-family="Times,serif" font-size="14.00">Nan (b)</text>
</g>
<!-- 9&#45;&gt;5 -->
<g id="edge5" class="edge">
<title>9&#45;&gt;5</title>
<path fill="none" stroke="black" d="M535.43,-615.22C496.51,-601.15 431.23,-577.54 387.89,-561.87"/>
<polygon fill="black" stroke="black" points="389.05,-558.57 378.45,-558.46 386.66,-565.15 389.05,-558.57"/>
<text text-anchor="middle" x="472.5" y="-584" font-family="Times,serif" font-size="10.00">3</text>
</g>
<!-- 13 -->
<g id="node15" class="node">
<title>13</title>
<ellipse fill="none" stroke="black" cx="469" cy="-545" rx="55.79" ry="18"/>
<text text-anchor="middle" x="469" y="-541.3" font-family="Times,serif" font-size="14.00">V2250 (b)</text>
</g>
<!-- 9&#45;&gt;13 -->
<g id="edge13" class="edge">
<title>9&#45;&gt;13</title>
<path fill="none" stroke="black" stroke-dasharray="5,2" d="M548.91,-611.38C534.04,-599.21 513.19,-582.15 496.51,-568.51"/>
<polygon fill="black" stroke="black" points="498.66,-565.75 488.71,-562.12 494.23,-571.17 498.66,-565.75"/>
</g>
<!-- 32 -->
<g id="node34" class="node">
<title>32</title>
<ellipse fill="none" stroke="black" cx="599" cy="-545" rx="55.79" ry="18"/>
<text text-anchor="middle" x="599" y="-541.3" font-family="Times,serif" font-size="14.00">V1897 (b)</text>
</g>
<!-- 9&#45;&gt;32 -->
<g id="edge32" class="edge">
<title>9&#45;&gt;32</title>
<path fill="none" stroke="black" stroke-dasharray="1,5" d="M574.57,-609.82C578.68,-599.08 584.06,-585.03 588.73,-572.84"/>
<polygon fill="black" stroke="black" points="592.13,-573.74 592.44,-563.15 585.59,-571.24 592.13,-573.74"/>
</g>
<!-- 10 -->
<g id="node12" class="node">
<title>10</title>
<ellipse fill="none" stroke="gray" stroke-dasharray="5,2" cx="508" cy="-107" rx="28.7" ry="18"/>
<text text-anchor="middle" x="508" y="-103.3" font-family="Times,serif" font-size="14.00">P18</text>
</g>
<!-- 28 -->
<g id="node30" class="node">
<title>28</title>
<ellipse fill="none" stroke="black" cx="342" cy="-628" rx="55.79" ry="18"/>
<text text-anchor="middle" x="342" y="-624.3" font-family="Times,serif" font-size="14.00">V1920 (a)</text>
</g>
<!-- 11&#45;&gt;28 -->
<g id="edge28" class="edge">
<title>11&#45;&gt;28</title>
<path fill="none" stroke="black" stroke-dasharray="5,2" d="M549.67,-698.22C507.27,-684.09 436.03,-660.34 389.02,-644.67"/>
<polygon fill="black" stroke="black" points="389.97,-641.3 379.37,-641.46 387.75,-647.94 389.97,-641.3"/>
</g>
<!-- 12 -->
<g id="node14" class="node">
<title>12</title>
<ellipse fill="none" stroke="black" cx="387" cy="-326" rx="50.09" ry="18"/>
<text text-anchor="middle" x="387" y="-322.3" font-family="Times,serif" font-size="14.00">V568 (b)</text>
</g>
<!-- 15 -->
<g id="node17" class="node">
<title>15</title>
<ellipse fill="none" stroke="black" cx="387" cy="-253" rx="47.39" ry="18"/>
<text text-anchor="middle" x="387" y="-249.3" font-family="Times,serif" font-size="14.00">Taur (b)</text>
</g>
<!-- 12&#45;&gt;15 -->
<g id="edge15" class="edge">
<title>12&#45;&gt;15</title>
<path fill="none" stroke="black" stroke-dasharray="1,5" d="M387,-307.81C387,-299.79 387,-290.05 387,-281.07"/>
<polygon fill="black" stroke="black" points="390.5,-281.03 387,-271.03 383.5,-281.03 390.5,-281.03"/>
</g>
<!-- 24 -->
<g id="node26" class="node">
<title>24</title>
<ellipse fill="none" stroke="black" cx="269" cy="-180" rx="50.09" ry="18"/>
<text text-anchor="middle" x="269" y="-176.3" font-family="Times,serif" font-size="14.00">Marc (b)</text>
</g>
<!-- 15&#45;&gt;24 -->
<g id="edge24" class="edge">
<title>15&#45;&gt;24</title>
<path fill="none" stroke="black" stroke-dasharray="1,5" d="M362.84,-237.46C345.37,-226.95 321.57,-212.63 302.3,-201.04"/>
<polygon fill="black" stroke="black" points="303.91,-197.92 293.54,-195.76 300.3,-203.92 303.91,-197.92"/>
</g>
<!-- 27 -->
<g id="node29" class="node">
<title>27</title>
<ellipse fill="none" stroke="black" cx="387" cy="-180" rx="50.09" ry="18"/>
<text text-anchor="middle" x="387" y="-176.3" font-family="Times,serif" font-size="14.00">V569 (b)</text>
</g>
<!-- 15&#45;&gt;27 -->
<g id="edge27" class="edge">
<title>15&#45;&gt;27</title>
<path fill="none" stroke="black" stroke-dasharray="5,2" d="M387,-234.81C387,-226.79 387,-217.05 387,-208.07"/>
<polygon fill="black" stroke="black" points="390.5,-208.03 387,-198.03 383.5,-208.03 390.5,-208.03"/>
</g>
<!-- 42 -->
<g id="node44" class="node">
<title>42</title>
<ellipse fill="none" stroke="black" cx="508" cy="-180" rx="53.09" ry="18"/>
<text text-anchor="middle" x="508" y="-176.3" font-family="Times,serif" font-size="14.00">M118 (b)</text>
</g>
<!-- 15&#45;&gt;42 -->
<g id="edge42" class="edge">
<title>15&#45;&gt;42</title>
<path fill="none" stroke="black" stroke-dasharray="5,2" d="M411.78,-237.46C429.65,-226.98 453.99,-212.69 473.72,-201.11"/>
<polygon fill="black" stroke="black" points="475.57,-204.09 482.42,-196.01 472.02,-198.05 475.57,-204.09"/>
</g>
<!-- 16 -->
<g id="node18" class="node">
<title>16</title>
<ellipse fill="none" stroke="black" cx="1703" cy="-628" rx="55.79" ry="18"/>
<text text-anchor="middle" x="1703" y="-624.3" font-family="Times,serif" font-size="14.00">V1639 (a)</text>
</g>
<!-- 18&#45;&gt;7 -->
<g id="edge7" class="edge">
<title>18&#45;&gt;7</title>
<path fill="none" stroke="black" stroke-dasharray="5,2" d="M872.75,-698.59C865.96,-696.49 858.79,-694.49 852,-693 788.15,-678.95 770.77,-683.88 706,-675 620.5,-663.27 598.08,-665.46 514,-646 510.18,-645.12 506.23,-644.09 502.3,-643"/>
<polygon fill="black" stroke="black" points="503.2,-639.61 492.62,-640.16 501.23,-646.33 503.2,-639.61"/>
</g>
<!-- 18&#45;&gt;9 -->
<g id="edge9" class="edge">
<title>18&#45;&gt;9</title>
<path fill="none" stroke="black" stroke-dasharray="5,2" d="M872.08,-698.83C865.47,-696.76 858.54,-694.72 852,-693 801.75,-679.83 673.32,-658.91 623,-646 619.35,-645.06 615.58,-644.03 611.81,-642.96"/>
<polygon fill="black" stroke="black" points="612.47,-639.51 601.89,-640.04 610.49,-646.22 612.47,-639.51"/>
<text text-anchor="middle" x="767.5" y="-667" font-family="Times,serif" font-size="10.00">2</text>
</g>
<!-- 22 -->
<g id="node24" class="node">
<title>22</title>
<ellipse fill="none" stroke="black" cx="682" cy="-628" rx="50.09" ry="18"/>
<text text-anchor="middle" x="682" y="-624.3" font-family="Times,serif" font-size="14.00">V571 (b)</text>
</g>
<!-- 18&#45;&gt;22 -->
<g id="edge22" class="edge">
<title>18&#45;&gt;22</title>
<path fill="none" stroke="black" stroke-dasharray="1,5" d="M873.05,-698.39C834.31,-684.32 768.84,-660.54 725.51,-644.81"/>
<polygon fill="black" stroke="black" points="726.68,-641.51 716.09,-641.38 724.29,-648.08 726.68,-641.51"/>
<text text-anchor="middle" x="809.5" y="-667" font-family="Times,serif" font-size="10.00">3</text>
</g>
<!-- 29 -->
<g id="node31" class="node">
<title>29</title>
<ellipse fill="none" stroke="black" cx="790" cy="-628" rx="40.09" ry="18"/>
<text text-anchor="middle" x="790" y="-624.3" font-family="Times,serif" font-size="14.00">Pal (b)</text>
</g>
<!-- 18&#45;&gt;29 -->
<g id="edge29" class="edge">
<title>18&#45;&gt;29</title>
<path fill="none" stroke="black" stroke-dasharray="5,2" d="M883.91,-695.14C865.64,-682.28 839.04,-663.54 818.81,-649.29"/>
<polygon fill="black" stroke="black" points="820.76,-646.39 810.57,-643.49 816.73,-652.11 820.76,-646.39"/>
</g>
<!-- 35 -->
<g id="node37" class="node">
<title>35</title>
<ellipse fill="none" stroke="black" cx="892" cy="-628" rx="44.39" ry="18"/>
<text text-anchor="middle" x="892" y="-624.3" font-family="Times,serif" font-size="14.00">P01 (b)</text>
</g>
<!-- 18&#45;&gt;35 -->
<g id="edge35" class="edge">
<title>18&#45;&gt;35</title>
<path fill="none" stroke="black" stroke-dasharray="5,2" d="M902.24,-692.82C900.54,-682.19 898.31,-668.31 896.37,-656.2"/>
<polygon fill="black" stroke="black" points="899.79,-655.47 894.75,-646.15 892.88,-656.58 899.79,-655.47"/>
</g>
<!-- 20 -->
<g id="node22" class="node">
<title>20</title>
<ellipse fill="none" stroke="black" cx="1113" cy="-628" rx="52.79" ry="18"/>
<text text-anchor="middle" x="1113" y="-624.3" font-family="Times,serif" font-size="14.00">M111 (a)</text>
</g>
<!-- 21&#45;&gt;0 -->
<g id="edge1" class="edge">
<title>21&#45;&gt;0</title>
<path fill="none" stroke="black" stroke-dasharray="1,5" d="M1109.37,-695.33C1087.38,-682.23 1055,-662.95 1030.82,-648.55"/>
<polygon fill="black" stroke="black" points="1032.37,-645.4 1021.99,-643.29 1028.79,-651.41 1032.37,-645.4"/>
</g>
<!-- 21&#45;&gt;20 -->
<g id="edge20" class="edge">
<title>21&#45;&gt;20</title>
<path fill="none" stroke="black" stroke-dasharray="1,5" d="M1129.55,-692.82C1126.76,-682.08 1123.12,-668.03 1119.96,-655.84"/>
<polygon fill="black" stroke="black" points="1123.34,-654.95 1117.45,-646.15 1116.57,-656.71 1123.34,-654.95"/>
</g>
<!-- 33 -->
<g id="node35" class="node">
<title>33</title>
<ellipse fill="none" stroke="black" cx="1230" cy="-628" rx="46.59" ry="18"/>
<text text-anchor="middle" x="1230" y="-624.3" font-family="Times,serif" font-size="14.00">Bodl (a)</text>
</g>
<!-- 21&#45;&gt;33 -->
<g id="edge33" class="edge">
<title>21&#45;&gt;33</title>
<path fill="none" stroke="black" stroke-dasharray="5,2" d="M1152.97,-694C1167.39,-681.83 1187.42,-664.93 1203.44,-651.41"/>
<polygon fill="black" stroke="black" points="1206.01,-653.82 1211.4,-644.69 1201.5,-648.47 1206.01,-653.82"/>
</g>
<!-- 36 -->
<g id="node38" class="node">
<title>36</title>
<ellipse fill="none" stroke="black" cx="1345" cy="-628" rx="50.09" ry="18"/>
<text text-anchor="middle" x="1345" y="-624.3" font-family="Times,serif" font-size="14.00">A116 (a)</text>
</g>
<!-- 21&#45;&gt;36 -->
<g id="edge36" class="edge">
<title>21&#45;&gt;36</title>
<path fill="none" stroke="black" stroke-dasharray="5,2" d="M1166.51,-697.52C1203.03,-683.5 1262.45,-660.69 1302.59,-645.28"/>
<polygon fill="black" stroke="black" points="1304.03,-648.48 1312.11,-641.63 1301.52,-641.94 1304.03,-648.48"/>
</g>
<!-- 37 -->
<g id="node39" class="node">
<title>37</title>
<ellipse fill="none" stroke="black" cx="1462" cy="-628" rx="48.99" ry="18"/>
<text text-anchor="middle" x="1462" y="-624.3" font-family="Times,serif" font-size="14.00">La35 (a)</text>
</g>
<!-- 21&#45;&gt;37 -->
<g id="edge37" class="edge">
<title>21&#45;&gt;37</title>
<path fill="none" stroke="black" stroke-dasharray="1,5" d="M1170.41,-698.93C1177.54,-696.87 1184.99,-694.8 1192,-693 1285.47,-668.97 1310.53,-670.03 1404,-646 1407.83,-645.01 1411.8,-643.95 1415.77,-642.85"/>
<polygon fill="black" stroke="black" points="1416.92,-646.16 1425.59,-640.07 1415.02,-639.43 1416.92,-646.16"/>
</g>
<!-- 38 -->
<g id="node40" class="node">
<title>38</title>
<ellipse fill="none" stroke="black" cx="1579" cy="-628" rx="50.09" ry="18"/>
<text text-anchor="middle" x="1579" y="-624.3" font-family="Times,serif" font-size="14.00">V565 (a)</text>
</g>
<!-- 21&#45;&gt;38 -->
<g id="edge38" class="edge">
<title>21&#45;&gt;38</title>
<path fill="none" stroke="black" stroke-dasharray="5,2" d="M1169.68,-698.67C1177.02,-696.59 1184.72,-694.58 1192,-693 1263.96,-677.38 1448.01,-661.45 1520,-646 1524.1,-645.12 1528.34,-644.11 1532.57,-643.03"/>
<polygon fill="black" stroke="black" points="1533.62,-646.37 1542.38,-640.4 1531.81,-639.61 1533.62,-646.37"/>
</g>
<!-- 31 -->
<g id="node33" class="node">
<title>31</title>
<ellipse fill="none" stroke="black" cx="723" cy="-545" rx="50.09" ry="18"/>
<text text-anchor="middle" x="723" y="-541.3" font-family="Times,serif" font-size="14.00">A336 (b)</text>
</g>
<!-- 22&#45;&gt;31 -->
<g id="edge31" class="edge">
<title>22&#45;&gt;31</title>
<path fill="none" stroke="black" stroke-dasharray="5,2" d="M690.5,-610.22C696.1,-599.14 703.56,-584.41 709.92,-571.85"/>
<polygon fill="black" stroke="black" points="713.12,-573.26 714.52,-562.76 706.88,-570.1 713.12,-573.26"/>
<text text-anchor="middle" x="707.5" y="-584" font-family="Times,serif" font-size="10.00">3</text>
</g>
<!-- 24&#45;&gt;4 -->
<g id="edge4" class="edge">
<title>24&#45;&gt;4</title>
<path fill="none" stroke="black" stroke-dasharray="1,5" d="M269,-161.81C269,-153.79 269,-144.05 269,-135.07"/>
<polygon fill="black" stroke="black" points="272.5,-135.03 269,-125.03 265.5,-135.03 272.5,-135.03"/>
</g>
<!-- 40&#45;&gt;12 -->
<g id="edge12" class="edge">
<title>40&#45;&gt;12</title>
<path fill="none" stroke="black" stroke-dasharray="1,5" d="M387,-380.81C387,-372.79 387,-363.05 387,-354.07"/>
<polygon fill="black" stroke="black" points="390.5,-354.03 387,-344.03 383.5,-354.03 390.5,-354.03"/>
</g>
<!-- 41&#45;&gt;16 -->
<g id="edge16" class="edge">
<title>41&#45;&gt;16</title>
<path fill="none" stroke="black" stroke-dasharray="1,5" d="M1666.53,-693.22C1672.88,-682.03 1681.35,-667.12 1688.53,-654.48"/>
<polygon fill="black" stroke="black" points="1691.59,-656.19 1693.48,-645.76 1685.5,-652.73 1691.59,-656.19"/>
</g>
<!-- 42&#45;&gt;10 -->
<g id="edge10" class="edge">
<title>42&#45;&gt;10</title>
<path fill="none" stroke="gray" stroke-dasharray="5,2" d="M508,-161.81C508,-153.79 508,-144.05 508,-135.07"/>
<polygon fill="gray" stroke="gray" points="511.5,-135.03 508,-125.03 504.5,-135.03 511.5,-135.03"/>
</g>
</g>
</svg>
