<?xml version="1.0" encoding="UTF-8" standalone="no"?>
<!DOCTYPE svg PUBLIC "-//W3C//DTD SVG 1.1//EN"
 "http://www.w3.org/Graphics/SVG/1.1/DTD/svg11.dtd">
<!-- Generated by graphviz version 2.43.0 (0)
 -->
<!-- Title: textual_flow Pages: 1 -->
<svg width="2056pt" height="858pt"
 viewBox="0.00 0.00 2056.00 858.00" xmlns="http://www.w3.org/2000/svg" xmlns:xlink="http://www.w3.org/1999/xlink">
<g id="graph0" class="graph" transform="scale(1 1) rotate(0) translate(4 854)">
<title>textual_flow</title>
<polygon fill="white" stroke="transparent" points="-4,4 -4,-854 2052,-854 2052,4 -4,4"/>
<g id="clust1" class="cluster">
<title>cluster_legend</title>
<polygon fill="none" stroke="black" points="8,-788 8,-842 186,-842 186,-788 8,-788"/>
</g>
<g id="clust2" class="cluster">
<title>cluster_plot</title>
</g>
<!-- label -->
<g id="node1" class="node">
<title>label</title>
<text text-anchor="middle" x="97" y="-818.8" font-family="Times,serif" font-size="14.00">adstag1.2.40U26&#45;28</text>
<text text-anchor="middle" x="97" y="-803.8" font-family="Times,serif" font-size="14.00">Con = 5</text>
</g>
<!-- 0 -->
<g id="node2" class="node">
<title>0</title>
<ellipse fill="none" stroke="black" cx="1285" cy="-326" rx="50.09" ry="18"/>
<text text-anchor="middle" x="1285" y="-322.3" font-family="Times,serif" font-size="14.00">V536 (a)</text>
</g>
<!-- 1 -->
<g id="node3" class="node">
<title>1</title>
<ellipse fill="none" stroke="black" cx="665" cy="-482" rx="44.69" ry="18"/>
<text text-anchor="middle" x="665" y="-478.3" font-family="Times,serif" font-size="14.00">B39 (b)</text>
</g>
<!-- 2 -->
<g id="node4" class="node">
<title>2</title>
<ellipse fill="none" stroke="black" cx="1156" cy="-565" rx="44.39" ry="18"/>
<text text-anchor="middle" x="1156" y="-561.3" font-family="Times,serif" font-size="14.00">P74 (b)</text>
</g>
<!-- 3 -->
<g id="node5" class="node">
<title>3</title>
<ellipse fill="none" stroke="black" cx="246" cy="-648" rx="44.39" ry="18"/>
<text text-anchor="middle" x="246" y="-644.3" font-family="Times,serif" font-size="14.00">S32 (b)</text>
</g>
<!-- 4 -->
<g id="node6" class="node">
<title>4</title>
<ellipse fill="none" stroke="black" cx="538" cy="-565" rx="55.79" ry="18"/>
<text text-anchor="middle" x="538" y="-561.3" font-family="Times,serif" font-size="14.00">V2036 (b)</text>
</g>
<!-- 5 -->
<g id="node7" class="node">
<title>5</title>
<ellipse fill="none" stroke="black" cx="1268" cy="-565" rx="50.09" ry="18"/>
<text text-anchor="middle" x="1268" y="-561.3" font-family="Times,serif" font-size="14.00">V565 (b)</text>
</g>
<!-- 6 -->
<g id="node8" class="node">
<title>6</title>
<ellipse fill="none" stroke="black" cx="910" cy="-565" rx="55.79" ry="18"/>
<text text-anchor="middle" x="910" y="-561.3" font-family="Times,serif" font-size="14.00">V1897 (b)</text>
</g>
<!-- 29 -->
<g id="node31" class="node">
<title>29</title>
<ellipse fill="none" stroke="black" cx="910" cy="-482" rx="42.49" ry="18"/>
<text text-anchor="middle" x="910" y="-478.3" font-family="Times,serif" font-size="14.00">Est (b)</text>
</g>
<!-- 6&#45;&gt;29 -->
<g id="edge29" class="edge">
<title>6&#45;&gt;29</title>
<path fill="none" stroke="black" stroke-dasharray="1,5" d="M910,-546.82C910,-536.19 910,-522.31 910,-510.2"/>
<polygon fill="black" stroke="black" points="913.5,-510.15 910,-500.15 906.5,-510.15 913.5,-510.15"/>
</g>
<!-- 7 -->
<g id="node9" class="node">
<title>7</title>
<ellipse fill="none" stroke="black" cx="1979" cy="-482" rx="50.09" ry="18"/>
<text text-anchor="middle" x="1979" y="-478.3" font-family="Times,serif" font-size="14.00">A336 (b)</text>
</g>
<!-- 8 -->
<g id="node10" class="node">
<title>8</title>
<ellipse fill="none" stroke="black" cx="1389" cy="-409" rx="55.79" ry="18"/>
<text text-anchor="middle" x="1389" y="-405.3" font-family="Times,serif" font-size="14.00">V1629 (b)</text>
</g>
<!-- 8&#45;&gt;0 -->
<g id="edge1" class="edge">
<title>8&#45;&gt;0</title>
<path fill="none" stroke="blue" stroke-dasharray="5,2" d="M1368.45,-392C1352.68,-379.71 1330.73,-362.62 1313.3,-349.04"/>
<polygon fill="blue" stroke="blue" points="1315.19,-346.08 1305.15,-342.69 1310.89,-351.6 1315.19,-346.08"/>
</g>
<!-- 16 -->
<g id="node18" class="node">
<title>16</title>
<ellipse fill="none" stroke="gray" stroke-dasharray="5,2" cx="1389" cy="-326" rx="36" ry="18"/>
<text text-anchor="middle" x="1389" y="-322.3" font-family="Times,serif" font-size="14.00">La2&#45;c</text>
</g>
<!-- 8&#45;&gt;16 -->
<g id="edge17" class="edge">
<title>8&#45;&gt;16</title>
<path fill="none" stroke="gray" stroke-width="2" d="M1389,-390.82C1389,-380.19 1389,-366.31 1389,-354.2"/>
<polygon fill="gray" stroke="gray" stroke-width="2" points="1392.5,-354.15 1389,-344.15 1385.5,-354.15 1392.5,-354.15"/>
</g>
<!-- 32 -->
<g id="node34" class="node">
<title>32</title>
<ellipse fill="none" stroke="black" cx="1493" cy="-326" rx="50.09" ry="18"/>
<text text-anchor="middle" x="1493" y="-322.3" font-family="Times,serif" font-size="14.00">V568 (b)</text>
</g>
<!-- 8&#45;&gt;32 -->
<g id="edge32" class="edge">
<title>8&#45;&gt;32</title>
<path fill="none" stroke="black" stroke-dasharray="5,2" d="M1409.55,-392C1425.32,-379.71 1447.27,-362.62 1464.7,-349.04"/>
<polygon fill="black" stroke="black" points="1467.11,-351.6 1472.85,-342.69 1462.81,-346.08 1467.11,-351.6"/>
<text text-anchor="middle" x="1450.5" y="-365" font-family="Times,serif" font-size="10.00">2</text>
</g>
<!-- 9 -->
<g id="node11" class="node">
<title>9</title>
<ellipse fill="none" stroke="black" cx="665" cy="-565" rx="53.09" ry="18"/>
<text text-anchor="middle" x="665" y="-561.3" font-family="Times,serif" font-size="14.00">LaSM (b)</text>
</g>
<!-- 9&#45;&gt;1 -->
<g id="edge2" class="edge">
<title>9&#45;&gt;1</title>
<path fill="none" stroke="black" stroke-dasharray="5,2" d="M665,-546.82C665,-536.19 665,-522.31 665,-510.2"/>
<polygon fill="black" stroke="black" points="668.5,-510.15 665,-500.15 661.5,-510.15 668.5,-510.15"/>
</g>
<!-- 10 -->
<g id="node12" class="node">
<title>10</title>
<ellipse fill="none" stroke="black" cx="1389" cy="-565" rx="53.09" ry="18"/>
<text text-anchor="middle" x="1389" y="-561.3" font-family="Times,serif" font-size="14.00">M136 (b)</text>
</g>
<!-- 40 -->
<g id="node42" class="node">
<title>40</title>
<ellipse fill="none" stroke="black" cx="1389" cy="-482" rx="50.89" ry="18"/>
<text text-anchor="middle" x="1389" y="-478.3" font-family="Times,serif" font-size="14.00">Neap (b)</text>
</g>
<!-- 10&#45;&gt;40 -->
<g id="edge40" class="edge">
<title>10&#45;&gt;40</title>
<path fill="none" stroke="black" stroke-dasharray="5,2" d="M1389,-546.82C1389,-536.19 1389,-522.31 1389,-510.2"/>
<polygon fill="black" stroke="black" points="1392.5,-510.15 1389,-500.15 1385.5,-510.15 1392.5,-510.15"/>
<text text-anchor="middle" x="1392.5" y="-521" font-family="Times,serif" font-size="10.00">2</text>
</g>
<!-- 11 -->
<g id="node13" class="node">
<title>11</title>
<ellipse fill="none" stroke="black" cx="1383" cy="-107" rx="50.09" ry="18"/>
<text text-anchor="middle" x="1383" y="-103.3" font-family="Times,serif" font-size="14.00">Marc (b)</text>
</g>
<!-- 30 -->
<g id="node32" class="node">
<title>30</title>
<ellipse fill="none" stroke="black" cx="1383" cy="-34" rx="46.59" ry="18"/>
<text text-anchor="middle" x="1383" y="-30.3" font-family="Times,serif" font-size="14.00">Mon (b)</text>
</g>
<!-- 11&#45;&gt;30 -->
<g id="edge30" class="edge">
<title>11&#45;&gt;30</title>
<path fill="none" stroke="black" stroke-dasharray="1,5" d="M1383,-88.81C1383,-80.79 1383,-71.05 1383,-62.07"/>
<polygon fill="black" stroke="black" points="1386.5,-62.03 1383,-52.03 1379.5,-62.03 1386.5,-62.03"/>
</g>
<!-- 12 -->
<g id="node14" class="node">
<title>12</title>
<ellipse fill="none" stroke="black" cx="1383" cy="-180" rx="41.69" ry="18"/>
<text text-anchor="middle" x="1383" y="-176.3" font-family="Times,serif" font-size="14.00">Sin (b)</text>
</g>
<!-- 12&#45;&gt;11 -->
<g id="edge12" class="edge">
<title>12&#45;&gt;11</title>
<path fill="none" stroke="black" stroke-dasharray="1,5" d="M1383,-161.81C1383,-153.79 1383,-144.05 1383,-135.07"/>
<polygon fill="black" stroke="black" points="1386.5,-135.03 1383,-125.03 1379.5,-135.03 1386.5,-135.03"/>
</g>
<!-- 13 -->
<g id="node15" class="node">
<title>13</title>
<ellipse fill="none" stroke="black" cx="376" cy="-731" rx="42.79" ry="18"/>
<text text-anchor="middle" x="376" y="-727.3" font-family="Times,serif" font-size="14.00">Bas (a)</text>
</g>
<!-- 14 -->
<g id="node16" class="node">
<title>14</title>
<ellipse fill="none" stroke="black" cx="786" cy="-565" rx="50.09" ry="18"/>
<text text-anchor="middle" x="786" y="-561.3" font-family="Times,serif" font-size="14.00">V560 (b)</text>
</g>
<!-- 23 -->
<g id="node25" class="node">
<title>23</title>
<ellipse fill="none" stroke="black" cx="786" cy="-482" rx="55.79" ry="18"/>
<text text-anchor="middle" x="786" y="-478.3" font-family="Times,serif" font-size="14.00">V1920 (b)</text>
</g>
<!-- 14&#45;&gt;23 -->
<g id="edge24" class="edge">
<title>14&#45;&gt;23</title>
<path fill="none" stroke="black" stroke-dasharray="5,2" d="M786,-546.82C786,-536.19 786,-522.31 786,-510.2"/>
<polygon fill="black" stroke="black" points="789.5,-510.15 786,-500.15 782.5,-510.15 789.5,-510.15"/>
</g>
<!-- 15 -->
<g id="node17" class="node">
<title>15</title>
<ellipse fill="none" stroke="black" cx="358" cy="-648" rx="50.09" ry="18"/>
<text text-anchor="middle" x="358" y="-644.3" font-family="Times,serif" font-size="14.00">V566 (b)</text>
</g>
<!-- 33 -->
<g id="node35" class="node">
<title>33</title>
<ellipse fill="none" stroke="black" cx="258" cy="-565" rx="55.79" ry="18"/>
<text text-anchor="middle" x="258" y="-561.3" font-family="Times,serif" font-size="14.00">V1639 (b)</text>
</g>
<!-- 15&#45;&gt;33 -->
<g id="edge33" class="edge">
<title>15&#45;&gt;33</title>
<path fill="none" stroke="black" stroke-dasharray="1,5" d="M338.72,-631.38C323.7,-619.21 302.63,-602.15 285.79,-588.51"/>
<polygon fill="black" stroke="black" points="287.88,-585.7 277.91,-582.12 283.47,-591.14 287.88,-585.7"/>
</g>
<!-- 17 -->
<g id="node19" class="node">
<title>17</title>
<ellipse fill="none" stroke="black" cx="1510" cy="-565" rx="49.29" ry="18"/>
<text text-anchor="middle" x="1510" y="-561.3" font-family="Times,serif" font-size="14.00">La35 (b)</text>
</g>
<!-- 18 -->
<g id="node20" class="node">
<title>18</title>
<ellipse fill="none" stroke="black" cx="1627" cy="-565" rx="50.09" ry="18"/>
<text text-anchor="middle" x="1627" y="-561.3" font-family="Times,serif" font-size="14.00">V571 (b)</text>
</g>
<!-- 19 -->
<g id="node21" class="node">
<title>19</title>
<ellipse fill="none" stroke="gray" stroke-dasharray="5,2" cx="471" cy="-731" rx="34.39" ry="18"/>
<text text-anchor="middle" x="471" y="-727.3" font-family="Times,serif" font-size="14.00">S249</text>
</g>
<!-- 20 -->
<g id="node22" class="node">
<title>20</title>
<ellipse fill="none" stroke="black" cx="466" cy="-648" rx="40.09" ry="18"/>
<text text-anchor="middle" x="466" y="-644.3" font-family="Times,serif" font-size="14.00">Pal (b)</text>
</g>
<!-- 34 -->
<g id="node36" class="node">
<title>34</title>
<ellipse fill="none" stroke="black" cx="398" cy="-565" rx="65.79" ry="18"/>
<text text-anchor="middle" x="398" y="-561.3" font-family="Times,serif" font-size="14.00">Savile&#45;Η (b)</text>
</g>
<!-- 20&#45;&gt;34 -->
<g id="edge34" class="edge">
<title>20&#45;&gt;34</title>
<path fill="none" stroke="black" d="M452.57,-631C442.89,-619.47 429.64,-603.69 418.63,-590.57"/>
<polygon fill="black" stroke="black" points="421.22,-588.21 412.11,-582.81 415.86,-592.72 421.22,-588.21"/>
</g>
<!-- 21 -->
<g id="node23" class="node">
<title>21</title>
<ellipse fill="none" stroke="black" cx="1745" cy="-565" rx="50.09" ry="18"/>
<text text-anchor="middle" x="1745" y="-561.3" font-family="Times,serif" font-size="14.00">A116 (b)</text>
</g>
<!-- 22 -->
<g id="node24" class="node">
<title>22</title>
<ellipse fill="none" stroke="black" cx="1860" cy="-565" rx="47.39" ry="18"/>
<text text-anchor="middle" x="1860" y="-561.3" font-family="Times,serif" font-size="14.00">Bodl (b)</text>
</g>
<!-- 24 -->
<g id="node26" class="node">
<title>24</title>
<ellipse fill="none" stroke="black" cx="1493" cy="-180" rx="50.09" ry="18"/>
<text text-anchor="middle" x="1493" y="-176.3" font-family="Times,serif" font-size="14.00">V569 (b)</text>
</g>
<!-- 25 -->
<g id="node27" class="node">
<title>25</title>
<ellipse fill="none" stroke="black" cx="568" cy="-731" rx="44.39" ry="18"/>
<text text-anchor="middle" x="568" y="-727.3" font-family="Times,serif" font-size="14.00">A25 (b)</text>
</g>
<!-- 25&#45;&gt;3 -->
<g id="edge4" class="edge">
<title>25&#45;&gt;3</title>
<path fill="none" stroke="black" stroke-dasharray="5,2" d="M534.72,-719.01C527.9,-716.9 520.74,-714.79 514,-713 419.48,-687.84 393.45,-691.41 299,-666 295.63,-665.09 292.16,-664.11 288.68,-663.08"/>
<polygon fill="black" stroke="black" points="289.52,-659.67 278.93,-660.1 287.48,-666.37 289.52,-659.67"/>
</g>
<!-- 25&#45;&gt;15 -->
<g id="edge16" class="edge">
<title>25&#45;&gt;15</title>
<path fill="none" stroke="black" stroke-dasharray="5,2" d="M537.01,-718.05C500.86,-704.1 440.89,-680.97 400.43,-665.37"/>
<polygon fill="black" stroke="black" points="401.43,-662 390.84,-661.67 398.92,-668.53 401.43,-662"/>
</g>
<!-- 25&#45;&gt;20 -->
<g id="edge21" class="edge">
<title>25&#45;&gt;20</title>
<path fill="none" stroke="black" stroke-dasharray="5,2" d="M548.81,-714.76C533.14,-702.32 510.8,-684.58 493.27,-670.65"/>
<polygon fill="black" stroke="black" points="495.11,-667.65 485.1,-664.17 490.75,-673.13 495.11,-667.65"/>
</g>
<!-- 31 -->
<g id="node33" class="node">
<title>31</title>
<ellipse fill="none" stroke="black" cx="568" cy="-648" rx="44.39" ry="18"/>
<text text-anchor="middle" x="568" y="-644.3" font-family="Times,serif" font-size="14.00">P01 (b)</text>
</g>
<!-- 25&#45;&gt;31 -->
<g id="edge31" class="edge">
<title>25&#45;&gt;31</title>
<path fill="none" stroke="black" stroke-dasharray="5,2" d="M568,-712.82C568,-702.19 568,-688.31 568,-676.2"/>
<polygon fill="black" stroke="black" points="571.5,-676.15 568,-666.15 564.5,-676.15 571.5,-676.15"/>
</g>
<!-- 35 -->
<g id="node37" class="node">
<title>35</title>
<ellipse fill="none" stroke="black" cx="680" cy="-648" rx="50.09" ry="18"/>
<text text-anchor="middle" x="680" y="-644.3" font-family="Times,serif" font-size="14.00">Patm (b)</text>
</g>
<!-- 25&#45;&gt;35 -->
<g id="edge35" class="edge">
<title>25&#45;&gt;35</title>
<path fill="none" stroke="black" stroke-dasharray="1,5" d="M588.8,-714.95C606.11,-702.44 630.95,-684.47 650.34,-670.45"/>
<polygon fill="black" stroke="black" points="652.49,-673.21 658.55,-664.52 648.39,-667.54 652.49,-673.21"/>
</g>
<!-- 37 -->
<g id="node39" class="node">
<title>37</title>
<ellipse fill="none" stroke="black" cx="910" cy="-648" rx="45.49" ry="18"/>
<text text-anchor="middle" x="910" y="-644.3" font-family="Times,serif" font-size="14.00">Nan (b)</text>
</g>
<!-- 25&#45;&gt;37 -->
<g id="edge37" class="edge">
<title>25&#45;&gt;37</title>
<path fill="none" stroke="black" stroke-dasharray="5,2" d="M600.94,-718.92C607.55,-716.84 614.47,-714.77 621,-713 704.06,-690.53 802.11,-670.08 860,-658.61"/>
<polygon fill="black" stroke="black" points="860.85,-662.01 869.98,-656.64 859.49,-655.14 860.85,-662.01"/>
<text text-anchor="middle" x="742.5" y="-687" font-family="Times,serif" font-size="10.00">2</text>
</g>
<!-- 41 -->
<g id="node43" class="node">
<title>41</title>
<ellipse fill="none" stroke="black" cx="1510" cy="-648" rx="49.29" ry="18"/>
<text text-anchor="middle" x="1510" y="-644.3" font-family="Times,serif" font-size="14.00">La22 (b)</text>
</g>
<!-- 25&#45;&gt;41 -->
<g id="edge41" class="edge">
<title>25&#45;&gt;41</title>
<path fill="none" stroke="black" stroke-dasharray="1,5" d="M599.91,-718.41C606.79,-716.3 614.07,-714.34 621,-713 780.95,-682.05 1279.26,-658.71 1451.07,-651.41"/>
<polygon fill="black" stroke="black" points="1451.34,-654.9 1461.18,-650.98 1451.04,-647.9 1451.34,-654.9"/>
</g>
<!-- 26 -->
<g id="node28" class="node">
<title>26</title>
<ellipse fill="none" stroke="gray" stroke-dasharray="5,2" cx="1614" cy="-107" rx="28.7" ry="18"/>
<text text-anchor="middle" x="1614" y="-103.3" font-family="Times,serif" font-size="14.00">P18</text>
</g>
<!-- 27 -->
<g id="node29" class="node">
<title>27</title>
<ellipse fill="none" stroke="black" cx="1614" cy="-180" rx="53.09" ry="18"/>
<text text-anchor="middle" x="1614" y="-176.3" font-family="Times,serif" font-size="14.00">M118 (b)</text>
</g>
<!-- 27&#45;&gt;26 -->
<g id="edge27" class="edge">
<title>27&#45;&gt;26</title>
<path fill="none" stroke="gray" stroke-dasharray="5,2" d="M1614,-161.81C1614,-153.79 1614,-144.05 1614,-135.07"/>
<polygon fill="gray" stroke="gray" points="1617.5,-135.03 1614,-125.03 1610.5,-135.03 1617.5,-135.03"/>
</g>
<!-- 28 -->
<g id="node30" class="node">
<title>28</title>
<ellipse fill="none" stroke="black" cx="519" cy="-815" rx="53.89" ry="18"/>
<text text-anchor="middle" x="519" y="-811.3" font-family="Times,serif" font-size="14.00">aBase (a)</text>
</g>
<!-- 28&#45;&gt;13 -->
<g id="edge14" class="edge">
<title>28&#45;&gt;13</title>
<path fill="none" stroke="black" stroke-width="2" d="M493.1,-799.15C469.59,-785.67 434.79,-765.71 409.23,-751.06"/>
<polygon fill="black" stroke="black" stroke-width="2" points="410.69,-747.86 400.27,-745.92 407.21,-753.93 410.69,-747.86"/>
<text text-anchor="middle" x="459.5" y="-770" font-family="Times,serif" font-size="10.00">3</text>
</g>
<!-- 28&#45;&gt;19 -->
<g id="edge20" class="edge">
<title>28&#45;&gt;19</title>
<path fill="none" stroke="gray" d="M509.05,-797.01C502.34,-785.53 493.35,-770.18 485.8,-757.28"/>
<polygon fill="gray" stroke="gray" points="488.68,-755.27 480.61,-748.41 482.64,-758.81 488.68,-755.27"/>
</g>
<!-- 28&#45;&gt;25 -->
<g id="edge26" class="edge">
<title>28&#45;&gt;25</title>
<path fill="none" stroke="blue" stroke-dasharray="5,2" d="M529.15,-797.01C535.97,-785.61 545.06,-770.39 552.74,-757.54"/>
<polygon fill="blue" stroke="blue" points="555.9,-759.07 558.03,-748.69 549.89,-755.48 555.9,-759.07"/>
</g>
<!-- 36 -->
<g id="node38" class="node">
<title>36</title>
<ellipse fill="none" stroke="black" cx="673" cy="-731" rx="42.79" ry="18"/>
<text text-anchor="middle" x="673" y="-727.3" font-family="Times,serif" font-size="14.00">La2 (a)</text>
</g>
<!-- 28&#45;&gt;36 -->
<g id="edge36" class="edge">
<title>28&#45;&gt;36</title>
<path fill="none" stroke="black" stroke-width="2" d="M546.53,-799.34C572.26,-785.64 610.77,-765.14 638.53,-750.36"/>
<polygon fill="black" stroke="black" stroke-width="2" points="640.31,-753.37 647.5,-745.58 637.02,-747.19 640.31,-753.37"/>
</g>
<!-- 38 -->
<g id="node40" class="node">
<title>38</title>
<ellipse fill="none" stroke="black" cx="1493" cy="-253" rx="47.39" ry="18"/>
<text text-anchor="middle" x="1493" y="-249.3" font-family="Times,serif" font-size="14.00">Taur (b)</text>
</g>
<!-- 32&#45;&gt;38 -->
<g id="edge38" class="edge">
<title>32&#45;&gt;38</title>
<path fill="none" stroke="black" stroke-dasharray="1,5" d="M1493,-307.81C1493,-299.79 1493,-290.05 1493,-281.07"/>
<polygon fill="black" stroke="black" points="1496.5,-281.03 1493,-271.03 1489.5,-281.03 1496.5,-281.03"/>
</g>
<!-- 35&#45;&gt;4 -->
<g id="edge5" class="edge">
<title>35&#45;&gt;4</title>
<path fill="none" stroke="black" stroke-dasharray="1,5" d="M654.28,-632.33C631.65,-619.42 598.47,-600.5 573.35,-586.16"/>
<polygon fill="black" stroke="black" points="574.91,-583.02 564.49,-581.11 571.44,-589.1 574.91,-583.02"/>
</g>
<!-- 35&#45;&gt;9 -->
<g id="edge10" class="edge">
<title>35&#45;&gt;9</title>
<path fill="none" stroke="black" stroke-dasharray="5,2" d="M676.82,-629.82C674.85,-619.19 672.28,-605.31 670.04,-593.2"/>
<polygon fill="black" stroke="black" points="673.44,-592.35 668.18,-583.15 666.56,-593.62 673.44,-592.35"/>
</g>
<!-- 35&#45;&gt;14 -->
<g id="edge15" class="edge">
<title>35&#45;&gt;14</title>
<path fill="none" stroke="black" stroke-width="2" d="M700.44,-631.38C716.57,-619.06 739.27,-601.71 757.24,-587.98"/>
<polygon fill="black" stroke="black" stroke-width="2" points="759.8,-590.42 765.62,-581.57 755.55,-584.86 759.8,-590.42"/>
<text text-anchor="middle" x="742.5" y="-604" font-family="Times,serif" font-size="10.00">2</text>
</g>
<!-- 37&#45;&gt;6 -->
<g id="edge7" class="edge">
<title>37&#45;&gt;6</title>
<path fill="none" stroke="black" stroke-dasharray="1,5" d="M910,-629.82C910,-619.19 910,-605.31 910,-593.2"/>
<polygon fill="black" stroke="black" points="913.5,-593.15 910,-583.15 906.5,-593.15 913.5,-593.15"/>
</g>
<!-- 39 -->
<g id="node41" class="node">
<title>39</title>
<ellipse fill="none" stroke="black" cx="1039" cy="-565" rx="55.49" ry="18"/>
<text text-anchor="middle" x="1039" y="-561.3" font-family="Times,serif" font-size="14.00">V2250 (c)</text>
</g>
<!-- 37&#45;&gt;39 -->
<g id="edge39" class="edge">
<title>37&#45;&gt;39</title>
<path fill="none" stroke="blue" stroke-dasharray="5,2" d="M933.36,-632.33C953.62,-619.61 983.16,-601.06 1005.86,-586.81"/>
<polygon fill="blue" stroke="blue" points="1007.89,-589.67 1014.5,-581.39 1004.17,-583.74 1007.89,-589.67"/>
</g>
<!-- 38&#45;&gt;12 -->
<g id="edge13" class="edge">
<title>38&#45;&gt;12</title>
<path fill="none" stroke="black" stroke-dasharray="1,5" d="M1469.94,-237.12C1453.74,-226.66 1431.88,-212.55 1414.13,-201.09"/>
<polygon fill="black" stroke="black" points="1415.58,-197.86 1405.28,-195.38 1411.78,-203.74 1415.58,-197.86"/>
</g>
<!-- 38&#45;&gt;24 -->
<g id="edge25" class="edge">
<title>38&#45;&gt;24</title>
<path fill="none" stroke="black" stroke-dasharray="5,2" d="M1493,-234.81C1493,-226.79 1493,-217.05 1493,-208.07"/>
<polygon fill="black" stroke="black" points="1496.5,-208.03 1493,-198.03 1489.5,-208.03 1496.5,-208.03"/>
</g>
<!-- 38&#45;&gt;27 -->
<g id="edge28" class="edge">
<title>38&#45;&gt;27</title>
<path fill="none" stroke="black" stroke-dasharray="5,2" d="M1517.78,-237.46C1535.65,-226.98 1559.99,-212.69 1579.72,-201.11"/>
<polygon fill="black" stroke="black" points="1581.57,-204.09 1588.42,-196.01 1578.02,-198.05 1581.57,-204.09"/>
</g>
<!-- 40&#45;&gt;8 -->
<g id="edge9" class="edge">
<title>40&#45;&gt;8</title>
<path fill="none" stroke="black" stroke-dasharray="1,5" d="M1389,-463.81C1389,-455.79 1389,-446.05 1389,-437.07"/>
<polygon fill="black" stroke="black" points="1392.5,-437.03 1389,-427.03 1385.5,-437.03 1392.5,-437.03"/>
</g>
<!-- 41&#45;&gt;2 -->
<g id="edge3" class="edge">
<title>41&#45;&gt;2</title>
<path fill="none" stroke="black" stroke-dasharray="1,5" d="M1466.81,-639.24C1408.06,-628.35 1299.87,-607.17 1209,-583 1205.63,-582.1 1202.16,-581.12 1198.67,-580.1"/>
<polygon fill="black" stroke="black" points="1199.51,-576.69 1188.93,-577.13 1197.47,-583.39 1199.51,-576.69"/>
</g>
<!-- 41&#45;&gt;5 -->
<g id="edge6" class="edge">
<title>41&#45;&gt;5</title>
<path fill="none" stroke="black" stroke-dasharray="5,2" d="M1474.81,-635.22C1431.98,-620.88 1359.58,-596.65 1312.8,-581"/>
<polygon fill="black" stroke="black" points="1313.83,-577.65 1303.23,-577.79 1311.6,-584.29 1313.83,-577.65"/>
</g>
<!-- 41&#45;&gt;10 -->
<g id="edge11" class="edge">
<title>41&#45;&gt;10</title>
<path fill="none" stroke="black" d="M1487.52,-631.95C1468.75,-619.38 1441.75,-601.31 1420.76,-587.26"/>
<polygon fill="black" stroke="black" points="1422.44,-584.17 1412.18,-581.52 1418.54,-589.99 1422.44,-584.17"/>
<text text-anchor="middle" x="1459.5" y="-604" font-family="Times,serif" font-size="10.00">2</text>
</g>
<!-- 41&#45;&gt;17 -->
<g id="edge18" class="edge">
<title>41&#45;&gt;17</title>
<path fill="none" stroke="black" stroke-dasharray="1,5" d="M1510,-629.82C1510,-619.19 1510,-605.31 1510,-593.2"/>
<polygon fill="black" stroke="black" points="1513.5,-593.15 1510,-583.15 1506.5,-593.15 1513.5,-593.15"/>
</g>
<!-- 41&#45;&gt;18 -->
<g id="edge19" class="edge">
<title>41&#45;&gt;18</title>
<path fill="none" stroke="black" stroke-dasharray="1,5" d="M1532.01,-631.76C1550.19,-619.17 1576.22,-601.16 1596.43,-587.17"/>
<polygon fill="black" stroke="black" points="1598.46,-590.01 1604.69,-581.44 1594.48,-584.26 1598.46,-590.01"/>
</g>
<!-- 41&#45;&gt;21 -->
<g id="edge22" class="edge">
<title>41&#45;&gt;21</title>
<path fill="none" stroke="black" stroke-dasharray="5,2" d="M1544.68,-635.05C1586.07,-620.78 1655.36,-596.9 1700.63,-581.29"/>
<polygon fill="black" stroke="black" points="1701.87,-584.57 1710.18,-578 1699.59,-577.95 1701.87,-584.57"/>
</g>
<!-- 41&#45;&gt;22 -->
<g id="edge23" class="edge">
<title>41&#45;&gt;22</title>
<path fill="none" stroke="black" stroke-dasharray="5,2" d="M1552.61,-638.84C1610.03,-627.6 1715.28,-606.08 1804,-583 1807.6,-582.06 1811.32,-581.04 1815.05,-579.99"/>
<polygon fill="black" stroke="black" points="1816.25,-583.29 1824.87,-577.14 1814.29,-576.57 1816.25,-583.29"/>
</g>
<!-- 42 -->
<g id="node44" class="node">
<title>42</title>
<ellipse fill="none" stroke="black" cx="1979" cy="-565" rx="53.09" ry="18"/>
<text text-anchor="middle" x="1979" y="-561.3" font-family="Times,serif" font-size="14.00">M111 (b)</text>
</g>
<!-- 41&#45;&gt;42 -->
<g id="edge42" class="edge">
<title>41&#45;&gt;42</title>
<path fill="none" stroke="black" stroke-dasharray="1,5" d="M1555.96,-641.39C1631.52,-631.8 1786.54,-610.59 1916,-583 1920.61,-582.02 1925.38,-580.91 1930.14,-579.74"/>
<polygon fill="black" stroke="black" points="1931.01,-583.12 1939.84,-577.26 1929.28,-576.34 1931.01,-583.12"/>
</g>
<!-- 42&#45;&gt;7 -->
<g id="edge8" class="edge">
<title>42&#45;&gt;7</title>
<path fill="none" stroke="black" stroke-dasharray="5,2" d="M1979,-546.82C1979,-536.19 1979,-522.31 1979,-510.2"/>
<polygon fill="black" stroke="black" points="1982.5,-510.15 1979,-500.15 1975.5,-510.15 1982.5,-510.15"/>
</g>
</g>
</svg>
