<?xml version="1.0" encoding="UTF-8" standalone="no"?>
<!DOCTYPE svg PUBLIC "-//W3C//DTD SVG 1.1//EN"
 "http://www.w3.org/Graphics/SVG/1.1/DTD/svg11.dtd">
<!-- Generated by graphviz version 2.43.0 (0)
 -->
<!-- Title: textual_flow Pages: 1 -->
<svg width="2071pt" height="654pt"
 viewBox="0.00 0.00 2071.00 654.00" xmlns="http://www.w3.org/2000/svg" xmlns:xlink="http://www.w3.org/1999/xlink">
<g id="graph0" class="graph" transform="scale(1 1) rotate(0) translate(4 650)">
<title>textual_flow</title>
<polygon fill="white" stroke="transparent" points="-4,4 -4,-650 2067,-650 2067,4 -4,4"/>
<g id="clust1" class="cluster">
<title>cluster_legend</title>
<polygon fill="none" stroke="black" points="8,-584 8,-638 186,-638 186,-584 8,-584"/>
</g>
<g id="clust2" class="cluster">
<title>cluster_plot</title>
</g>
<!-- label -->
<g id="node1" class="node">
<title>label</title>
<text text-anchor="middle" x="97" y="-614.8" font-family="Times,serif" font-size="14.00">adstag1.3.75U28&#45;30</text>
<text text-anchor="middle" x="97" y="-599.8" font-family="Times,serif" font-size="14.00">Con = 5</text>
</g>
<!-- 0 -->
<g id="node2" class="node">
<title>0</title>
<ellipse fill="none" stroke="black" cx="431" cy="-538" rx="50.09" ry="18"/>
<text text-anchor="middle" x="431" y="-534.3" font-family="Times,serif" font-size="14.00">Neap (a)</text>
</g>
<!-- 19 -->
<g id="node21" class="node">
<title>19</title>
<ellipse fill="none" stroke="black" cx="258" cy="-466" rx="55.79" ry="18"/>
<text text-anchor="middle" x="258" y="-462.3" font-family="Times,serif" font-size="14.00">V1629 (a)</text>
</g>
<!-- 0&#45;&gt;19 -->
<g id="edge20" class="edge">
<title>0&#45;&gt;19</title>
<path fill="none" stroke="black" stroke-dasharray="1,5" d="M398.87,-524C371.27,-512.83 331.25,-496.64 300.92,-484.37"/>
<polygon fill="black" stroke="black" points="302.02,-481.04 291.44,-480.53 299.39,-487.52 302.02,-481.04"/>
</g>
<!-- 1 -->
<g id="node3" class="node">
<title>1</title>
<ellipse fill="none" stroke="black" cx="722" cy="-538" rx="50.09" ry="18"/>
<text text-anchor="middle" x="722" y="-534.3" font-family="Times,serif" font-size="14.00">Patm (a)</text>
</g>
<!-- 2 -->
<g id="node4" class="node">
<title>2</title>
<ellipse fill="none" stroke="black" cx="314" cy="-322" rx="50.09" ry="18"/>
<text text-anchor="middle" x="314" y="-318.3" font-family="Times,serif" font-size="14.00">V568 (a)</text>
</g>
<!-- 21 -->
<g id="node23" class="node">
<title>21</title>
<ellipse fill="none" stroke="black" cx="342" cy="-250" rx="46.59" ry="18"/>
<text text-anchor="middle" x="342" y="-246.3" font-family="Times,serif" font-size="14.00">Taur (a)</text>
</g>
<!-- 2&#45;&gt;21 -->
<g id="edge21" class="edge">
<title>2&#45;&gt;21</title>
<path fill="none" stroke="black" stroke-dasharray="1,5" d="M320.78,-304.05C323.93,-296.18 327.75,-286.62 331.28,-277.79"/>
<polygon fill="black" stroke="black" points="334.63,-278.86 335.09,-268.28 328.13,-276.26 334.63,-278.86"/>
</g>
<!-- 3 -->
<g id="node5" class="node">
<title>3</title>
<ellipse fill="none" stroke="black" cx="376" cy="-466" rx="44.39" ry="18"/>
<text text-anchor="middle" x="376" y="-462.3" font-family="Times,serif" font-size="14.00">P74 (a)</text>
</g>
<!-- 4 -->
<g id="node6" class="node">
<title>4</title>
<ellipse fill="none" stroke="black" cx="370" cy="-106" rx="46.29" ry="18"/>
<text text-anchor="middle" x="370" y="-102.3" font-family="Times,serif" font-size="14.00">Mon (a)</text>
</g>
<!-- 23 -->
<g id="node25" class="node">
<title>23</title>
<ellipse fill="none" stroke="black" cx="370" cy="-34" rx="40.89" ry="18"/>
<text text-anchor="middle" x="370" y="-30.3" font-family="Times,serif" font-size="14.00">Sin (a)</text>
</g>
<!-- 4&#45;&gt;23 -->
<g id="edge23" class="edge">
<title>4&#45;&gt;23</title>
<path fill="none" stroke="black" stroke-dasharray="1,5" d="M370,-87.7C370,-79.98 370,-70.71 370,-62.11"/>
<polygon fill="black" stroke="black" points="373.5,-62.1 370,-52.1 366.5,-62.1 373.5,-62.1"/>
</g>
<!-- 5 -->
<g id="node7" class="node">
<title>5</title>
<ellipse fill="none" stroke="black" cx="839" cy="-538" rx="48.99" ry="18"/>
<text text-anchor="middle" x="839" y="-534.3" font-family="Times,serif" font-size="14.00">La22 (a)</text>
</g>
<!-- 5&#45;&gt;3 -->
<g id="edge4" class="edge">
<title>5&#45;&gt;3</title>
<path fill="none" stroke="black" stroke-dasharray="1,5" d="M803.67,-525.53C796.25,-523.43 788.41,-521.45 781,-520 626.67,-489.76 582.93,-516.19 429,-484 425.38,-483.24 421.66,-482.33 417.95,-481.33"/>
<polygon fill="black" stroke="black" points="418.81,-477.94 408.23,-478.52 416.86,-484.66 418.81,-477.94"/>
</g>
<!-- 6 -->
<g id="node8" class="node">
<title>6</title>
<ellipse fill="none" stroke="black" cx="488" cy="-466" rx="50.09" ry="18"/>
<text text-anchor="middle" x="488" y="-462.3" font-family="Times,serif" font-size="14.00">V565 (a)</text>
</g>
<!-- 5&#45;&gt;6 -->
<g id="edge7" class="edge">
<title>5&#45;&gt;6</title>
<path fill="none" stroke="black" stroke-dasharray="5,2" d="M803.3,-525.73C795.97,-523.65 788.27,-521.62 781,-520 678.29,-497.15 649.77,-506.61 547,-484 542.9,-483.1 538.67,-482.07 534.44,-480.98"/>
<polygon fill="black" stroke="black" points="535.2,-477.56 524.64,-478.34 533.38,-484.32 535.2,-477.56"/>
</g>
<!-- 9 -->
<g id="node11" class="node">
<title>9</title>
<ellipse fill="none" stroke="black" cx="605" cy="-466" rx="48.99" ry="18"/>
<text text-anchor="middle" x="605" y="-462.3" font-family="Times,serif" font-size="14.00">La35 (a)</text>
</g>
<!-- 5&#45;&gt;9 -->
<g id="edge10" class="edge">
<title>5&#45;&gt;9</title>
<path fill="none" stroke="black" stroke-dasharray="1,5" d="M802.44,-526.06C761.69,-513.87 695.71,-494.13 651.36,-480.87"/>
<polygon fill="black" stroke="black" points="652.27,-477.49 641.69,-477.98 650.27,-484.2 652.27,-477.49"/>
</g>
<!-- 14 -->
<g id="node16" class="node">
<title>14</title>
<ellipse fill="none" stroke="black" cx="722" cy="-466" rx="50.09" ry="18"/>
<text text-anchor="middle" x="722" y="-462.3" font-family="Times,serif" font-size="14.00">V571 (a)</text>
</g>
<!-- 5&#45;&gt;14 -->
<g id="edge15" class="edge">
<title>5&#45;&gt;14</title>
<path fill="none" stroke="black" stroke-dasharray="1,5" d="M814.47,-522.33C797.43,-512.13 774.49,-498.41 755.73,-487.18"/>
<polygon fill="black" stroke="black" points="757.28,-484.03 746.9,-481.9 753.68,-490.03 757.28,-484.03"/>
</g>
<!-- 24 -->
<g id="node26" class="node">
<title>24</title>
<ellipse fill="none" stroke="black" cx="839" cy="-466" rx="49.29" ry="18"/>
<text text-anchor="middle" x="839" y="-462.3" font-family="Times,serif" font-size="14.00">A116 (c)</text>
</g>
<!-- 5&#45;&gt;24 -->
<g id="edge24" class="edge">
<title>5&#45;&gt;24</title>
<path fill="none" stroke="blue" stroke-dasharray="5,2" d="M839,-519.7C839,-511.98 839,-502.71 839,-494.11"/>
<polygon fill="blue" stroke="blue" points="842.5,-494.1 839,-484.1 835.5,-494.1 842.5,-494.1"/>
</g>
<!-- 32 -->
<g id="node34" class="node">
<title>32</title>
<ellipse fill="none" stroke="black" cx="953" cy="-466" rx="46.59" ry="18"/>
<text text-anchor="middle" x="953" y="-462.3" font-family="Times,serif" font-size="14.00">Bodl (a)</text>
</g>
<!-- 5&#45;&gt;32 -->
<g id="edge32" class="edge">
<title>5&#45;&gt;32</title>
<path fill="none" stroke="black" stroke-dasharray="5,2" d="M863.18,-522.15C879.91,-511.88 902.38,-498.08 920.66,-486.86"/>
<polygon fill="black" stroke="black" points="922.56,-489.8 929.25,-481.58 918.9,-483.83 922.56,-489.8"/>
</g>
<!-- 37 -->
<g id="node39" class="node">
<title>37</title>
<ellipse fill="none" stroke="black" cx="1070" cy="-466" rx="52.79" ry="18"/>
<text text-anchor="middle" x="1070" y="-462.3" font-family="Times,serif" font-size="14.00">M111 (a)</text>
</g>
<!-- 5&#45;&gt;37 -->
<g id="edge37" class="edge">
<title>5&#45;&gt;37</title>
<path fill="none" stroke="black" stroke-dasharray="1,5" d="M875.35,-525.99C914.95,-513.98 978.48,-494.73 1022.13,-481.51"/>
<polygon fill="black" stroke="black" points="1023.39,-484.78 1031.94,-478.53 1021.36,-478.08 1023.39,-484.78"/>
</g>
<!-- 7 -->
<g id="node9" class="node">
<title>7</title>
<ellipse fill="none" stroke="black" cx="252" cy="-178" rx="50.09" ry="18"/>
<text text-anchor="middle" x="252" y="-174.3" font-family="Times,serif" font-size="14.00">V569 (b)</text>
</g>
<!-- 8 -->
<g id="node10" class="node">
<title>8</title>
<ellipse fill="none" stroke="black" cx="1793" cy="-394" rx="55.79" ry="18"/>
<text text-anchor="middle" x="1793" y="-390.3" font-family="Times,serif" font-size="14.00">V1639 (a)</text>
</g>
<!-- 10 -->
<g id="node12" class="node">
<title>10</title>
<ellipse fill="none" stroke="black" cx="1052" cy="-538" rx="52.79" ry="18"/>
<text text-anchor="middle" x="1052" y="-534.3" font-family="Times,serif" font-size="14.00">LaSM (a)</text>
</g>
<!-- 25 -->
<g id="node27" class="node">
<title>25</title>
<ellipse fill="none" stroke="black" cx="1185" cy="-466" rx="44.39" ry="18"/>
<text text-anchor="middle" x="1185" y="-462.3" font-family="Times,serif" font-size="14.00">B39 (a)</text>
</g>
<!-- 10&#45;&gt;25 -->
<g id="edge25" class="edge">
<title>10&#45;&gt;25</title>
<path fill="none" stroke="black" stroke-dasharray="5,2" d="M1079.56,-522.5C1099.93,-511.77 1127.83,-497.09 1149.81,-485.52"/>
<polygon fill="black" stroke="black" points="1151.62,-488.53 1158.84,-480.77 1148.36,-482.33 1151.62,-488.53"/>
</g>
<!-- 11 -->
<g id="node13" class="node">
<title>11</title>
<ellipse fill="none" stroke="black" cx="1681" cy="-466" rx="44.39" ry="18"/>
<text text-anchor="middle" x="1681" y="-462.3" font-family="Times,serif" font-size="14.00">S32 (a)</text>
</g>
<!-- 12 -->
<g id="node14" class="node">
<title>12</title>
<ellipse fill="none" stroke="black" cx="1793" cy="-466" rx="50.09" ry="18"/>
<text text-anchor="middle" x="1793" y="-462.3" font-family="Times,serif" font-size="14.00">V566 (a)</text>
</g>
<!-- 12&#45;&gt;8 -->
<g id="edge9" class="edge">
<title>12&#45;&gt;8</title>
<path fill="none" stroke="black" stroke-dasharray="1,5" d="M1793,-447.7C1793,-439.98 1793,-430.71 1793,-422.11"/>
<polygon fill="black" stroke="black" points="1796.5,-422.1 1793,-412.1 1789.5,-422.1 1796.5,-422.1"/>
</g>
<!-- 13 -->
<g id="node15" class="node">
<title>13</title>
<ellipse fill="none" stroke="black" cx="1179" cy="-538" rx="55.79" ry="18"/>
<text text-anchor="middle" x="1179" y="-534.3" font-family="Times,serif" font-size="14.00">V2036 (a)</text>
</g>
<!-- 15 -->
<g id="node17" class="node">
<title>15</title>
<ellipse fill="none" stroke="black" cx="1303" cy="-538" rx="50.09" ry="18"/>
<text text-anchor="middle" x="1303" y="-534.3" font-family="Times,serif" font-size="14.00">V560 (a)</text>
</g>
<!-- 18 -->
<g id="node20" class="node">
<title>18</title>
<ellipse fill="none" stroke="black" cx="1303" cy="-466" rx="55.79" ry="18"/>
<text text-anchor="middle" x="1303" y="-462.3" font-family="Times,serif" font-size="14.00">V1920 (a)</text>
</g>
<!-- 15&#45;&gt;18 -->
<g id="edge19" class="edge">
<title>15&#45;&gt;18</title>
<path fill="none" stroke="black" stroke-dasharray="5,2" d="M1303,-519.7C1303,-511.98 1303,-502.71 1303,-494.11"/>
<polygon fill="black" stroke="black" points="1306.5,-494.1 1303,-484.1 1299.5,-494.1 1306.5,-494.1"/>
</g>
<!-- 16 -->
<g id="node18" class="node">
<title>16</title>
<ellipse fill="none" stroke="black" cx="1424" cy="-538" rx="53.09" ry="18"/>
<text text-anchor="middle" x="1424" y="-534.3" font-family="Times,serif" font-size="14.00">M136 (d)</text>
</g>
<!-- 17 -->
<g id="node19" class="node">
<title>17</title>
<ellipse fill="none" stroke="black" cx="1905" cy="-466" rx="44.39" ry="18"/>
<text text-anchor="middle" x="1905" y="-462.3" font-family="Times,serif" font-size="14.00">P01 (a)</text>
</g>
<!-- 34 -->
<g id="node36" class="node">
<title>34</title>
<ellipse fill="none" stroke="black" cx="258" cy="-394" rx="50.09" ry="18"/>
<text text-anchor="middle" x="258" y="-390.3" font-family="Times,serif" font-size="14.00">V536 (a)</text>
</g>
<!-- 19&#45;&gt;34 -->
<g id="edge34" class="edge">
<title>19&#45;&gt;34</title>
<path fill="none" stroke="black" stroke-dasharray="5,2" d="M258,-447.7C258,-439.98 258,-430.71 258,-422.11"/>
<polygon fill="black" stroke="black" points="261.5,-422.1 258,-412.1 254.5,-422.1 261.5,-422.1"/>
</g>
<!-- 36 -->
<g id="node38" class="node">
<title>36</title>
<ellipse fill="none" stroke="gray" stroke-dasharray="5,2" cx="362" cy="-394" rx="36" ry="18"/>
<text text-anchor="middle" x="362" y="-390.3" font-family="Times,serif" font-size="14.00">La2&#45;c</text>
</g>
<!-- 19&#45;&gt;36 -->
<g id="edge36" class="edge">
<title>19&#45;&gt;36</title>
<path fill="none" stroke="gray" stroke-width="2" d="M281.08,-449.46C296.33,-439.2 316.44,-425.66 332.8,-414.65"/>
<polygon fill="gray" stroke="gray" stroke-width="2" points="335.11,-417.32 341.45,-408.83 331.2,-411.51 335.11,-417.32"/>
</g>
<!-- 20 -->
<g id="node22" class="node">
<title>20</title>
<ellipse fill="none" stroke="black" cx="1363" cy="-611" rx="53.89" ry="18"/>
<text text-anchor="middle" x="1363" y="-607.3" font-family="Times,serif" font-size="14.00">aBase (a)</text>
</g>
<!-- 20&#45;&gt;0 -->
<g id="edge1" class="edge">
<title>20&#45;&gt;0</title>
<path fill="none" stroke="black" stroke-width="2" d="M1310.89,-606.03C1149.54,-593.74 658.84,-556.36 489.33,-543.44"/>
<polygon fill="black" stroke="black" stroke-width="2" points="489.59,-539.95 479.35,-542.68 489.05,-546.93 489.59,-539.95"/>
</g>
<!-- 20&#45;&gt;1 -->
<g id="edge2" class="edge">
<title>20&#45;&gt;1</title>
<path fill="none" stroke="black" d="M1309.57,-608.4C1206.52,-604.57 973.45,-592.32 781,-556 776.82,-555.21 772.5,-554.25 768.2,-553.2"/>
<polygon fill="black" stroke="black" points="768.81,-549.74 758.25,-550.6 767.04,-556.52 768.81,-549.74"/>
</g>
<!-- 20&#45;&gt;5 -->
<g id="edge6" class="edge">
<title>20&#45;&gt;5</title>
<path fill="none" stroke="black" stroke-dasharray="5,2" d="M1313.7,-603.32C1215.67,-590.04 996.87,-560.39 894.2,-546.48"/>
<polygon fill="black" stroke="black" points="894.42,-542.98 884.04,-545.1 893.48,-549.91 894.42,-542.98"/>
</g>
<!-- 20&#45;&gt;10 -->
<g id="edge11" class="edge">
<title>20&#45;&gt;10</title>
<path fill="none" stroke="black" d="M1317.85,-600.97C1267.83,-590.8 1184.88,-573.39 1114,-556 1109.85,-554.98 1105.56,-553.89 1101.26,-552.77"/>
<polygon fill="black" stroke="black" points="1101.84,-549.3 1091.27,-550.11 1100.04,-556.06 1101.84,-549.3"/>
</g>
<!-- 20&#45;&gt;13 -->
<g id="edge14" class="edge">
<title>20&#45;&gt;13</title>
<path fill="none" stroke="black" d="M1328.82,-596.81C1298.97,-585.29 1255.45,-568.5 1222.99,-555.98"/>
<polygon fill="black" stroke="black" points="1223.9,-552.57 1213.31,-552.24 1221.38,-559.1 1223.9,-552.57"/>
</g>
<!-- 20&#45;&gt;15 -->
<g id="edge16" class="edge">
<title>20&#45;&gt;15</title>
<path fill="none" stroke="black" stroke-width="2" d="M1349.08,-593.53C1341.44,-584.48 1331.81,-573.09 1323.33,-563.06"/>
<polygon fill="black" stroke="black" stroke-width="2" points="1325.97,-560.76 1316.84,-555.38 1320.62,-565.28 1325.97,-560.76"/>
</g>
<!-- 20&#45;&gt;16 -->
<g id="edge17" class="edge">
<title>20&#45;&gt;16</title>
<path fill="none" stroke="blue" stroke-width="2" d="M1377.15,-593.53C1384.92,-584.48 1394.71,-573.09 1403.33,-563.06"/>
<polygon fill="blue" stroke="blue" stroke-width="2" points="1406.07,-565.24 1409.93,-555.38 1400.76,-560.68 1406.07,-565.24"/>
</g>
<!-- 22 -->
<g id="node24" class="node">
<title>22</title>
<ellipse fill="none" stroke="black" cx="1540" cy="-538" rx="44.69" ry="18"/>
<text text-anchor="middle" x="1540" y="-534.3" font-family="Times,serif" font-size="14.00">Nan (a)</text>
</g>
<!-- 20&#45;&gt;22 -->
<g id="edge22" class="edge">
<title>20&#45;&gt;22</title>
<path fill="none" stroke="black" d="M1396.29,-596.65C1425.79,-584.81 1468.9,-567.52 1500.21,-554.96"/>
<polygon fill="black" stroke="black" points="1501.54,-558.2 1509.52,-551.23 1498.93,-551.7 1501.54,-558.2"/>
</g>
<!-- 29 -->
<g id="node31" class="node">
<title>29</title>
<ellipse fill="none" stroke="black" cx="1646" cy="-538" rx="42.79" ry="18"/>
<text text-anchor="middle" x="1646" y="-534.3" font-family="Times,serif" font-size="14.00">La2 (a)</text>
</g>
<!-- 20&#45;&gt;29 -->
<g id="edge29" class="edge">
<title>20&#45;&gt;29</title>
<path fill="none" stroke="black" stroke-width="2" d="M1407.57,-600.78C1454.31,-590.83 1529.75,-573.98 1594,-556 1597.3,-555.08 1600.71,-554.08 1604.12,-553.04"/>
<polygon fill="black" stroke="black" stroke-width="2" points="1605.18,-556.37 1613.68,-550.04 1603.09,-549.69 1605.18,-556.37"/>
</g>
<!-- 33 -->
<g id="node35" class="node">
<title>33</title>
<ellipse fill="none" stroke="black" cx="1751" cy="-538" rx="44.39" ry="18"/>
<text text-anchor="middle" x="1751" y="-534.3" font-family="Times,serif" font-size="14.00">A25 (a)</text>
</g>
<!-- 20&#45;&gt;33 -->
<g id="edge33" class="edge">
<title>20&#45;&gt;33</title>
<path fill="none" stroke="black" stroke-dasharray="5,2" d="M1413.13,-604.31C1479.04,-596.29 1598.17,-579.91 1698,-556 1701.44,-555.18 1704.98,-554.24 1708.52,-553.24"/>
<polygon fill="black" stroke="black" points="1709.83,-556.5 1718.42,-550.3 1707.84,-549.79 1709.83,-556.5"/>
</g>
<!-- 38 -->
<g id="node40" class="node">
<title>38</title>
<ellipse fill="none" stroke="gray" stroke-dasharray="5,2" cx="1863" cy="-538" rx="50.09" ry="18"/>
<text text-anchor="middle" x="1863" y="-534.3" font-family="Times,serif" font-size="14.00">Savile&#45;Η</text>
</g>
<!-- 20&#45;&gt;38 -->
<g id="edge38" class="edge">
<title>20&#45;&gt;38</title>
<path fill="none" stroke="gray" stroke-width="2" d="M1415.37,-606.29C1498.41,-599.81 1665.12,-584.32 1804,-556 1808.17,-555.15 1812.48,-554.15 1816.77,-553.07"/>
<polygon fill="gray" stroke="gray" stroke-width="2" points="1817.95,-556.38 1826.72,-550.43 1816.15,-549.61 1817.95,-556.38"/>
</g>
<!-- 42 -->
<g id="node44" class="node">
<title>42</title>
<ellipse fill="none" stroke="black" cx="1981" cy="-538" rx="50.09" ry="18"/>
<text text-anchor="middle" x="1981" y="-534.3" font-family="Times,serif" font-size="14.00">S249 (a)</text>
</g>
<!-- 20&#45;&gt;42 -->
<g id="edge42" class="edge">
<title>20&#45;&gt;42</title>
<path fill="none" stroke="black" d="M1416.26,-608.12C1516.2,-603.87 1738.35,-591.02 1922,-556 1926.18,-555.2 1930.49,-554.24 1934.8,-553.18"/>
<polygon fill="black" stroke="black" points="1935.96,-556.5 1944.75,-550.58 1934.18,-549.73 1935.96,-556.5"/>
</g>
<!-- 21&#45;&gt;7 -->
<g id="edge8" class="edge">
<title>21&#45;&gt;7</title>
<path fill="none" stroke="blue" stroke-dasharray="5,2" d="M322.03,-233.46C309.76,-223.93 293.86,-211.56 280.31,-201.02"/>
<polygon fill="blue" stroke="blue" points="282.27,-198.11 272.23,-194.73 277.97,-203.64 282.27,-198.11"/>
</g>
<!-- 30 -->
<g id="node32" class="node">
<title>30</title>
<ellipse fill="none" stroke="black" cx="370" cy="-178" rx="50.09" ry="18"/>
<text text-anchor="middle" x="370" y="-174.3" font-family="Times,serif" font-size="14.00">Marc (a)</text>
</g>
<!-- 21&#45;&gt;30 -->
<g id="edge30" class="edge">
<title>21&#45;&gt;30</title>
<path fill="none" stroke="black" stroke-dasharray="1,5" d="M348.78,-232.05C351.93,-224.18 355.75,-214.62 359.28,-205.79"/>
<polygon fill="black" stroke="black" points="362.63,-206.86 363.09,-196.28 356.13,-204.26 362.63,-206.86"/>
</g>
<!-- 39 -->
<g id="node41" class="node">
<title>39</title>
<ellipse fill="none" stroke="black" cx="491" cy="-178" rx="52.79" ry="18"/>
<text text-anchor="middle" x="491" y="-174.3" font-family="Times,serif" font-size="14.00">M118 (a)</text>
</g>
<!-- 21&#45;&gt;39 -->
<g id="edge39" class="edge">
<title>21&#45;&gt;39</title>
<path fill="none" stroke="black" stroke-dasharray="5,2" d="M370.38,-235.67C393.54,-224.79 426.51,-209.3 452.12,-197.26"/>
<polygon fill="black" stroke="black" points="453.63,-200.42 461.2,-193 450.66,-194.09 453.63,-200.42"/>
</g>
<!-- 26 -->
<g id="node28" class="node">
<title>26</title>
<ellipse fill="none" stroke="black" cx="1433" cy="-466" rx="55.79" ry="18"/>
<text text-anchor="middle" x="1433" y="-462.3" font-family="Times,serif" font-size="14.00">V1897 (a)</text>
</g>
<!-- 22&#45;&gt;26 -->
<g id="edge26" class="edge">
<title>22&#45;&gt;26</title>
<path fill="none" stroke="black" stroke-dasharray="1,5" d="M1517.57,-522.33C1502.33,-512.36 1481.95,-499.02 1465.01,-487.94"/>
<polygon fill="black" stroke="black" points="1466.8,-484.93 1456.51,-482.38 1462.96,-490.79 1466.8,-484.93"/>
</g>
<!-- 27 -->
<g id="node29" class="node">
<title>27</title>
<ellipse fill="none" stroke="black" cx="1563" cy="-466" rx="55.79" ry="18"/>
<text text-anchor="middle" x="1563" y="-462.3" font-family="Times,serif" font-size="14.00">V2250 (a)</text>
</g>
<!-- 22&#45;&gt;27 -->
<g id="edge27" class="edge">
<title>22&#45;&gt;27</title>
<path fill="none" stroke="black" stroke-dasharray="5,2" d="M1545.57,-520.05C1548.16,-512.18 1551.3,-502.62 1554.2,-493.79"/>
<polygon fill="black" stroke="black" points="1557.53,-494.87 1557.32,-484.28 1550.88,-492.68 1557.53,-494.87"/>
</g>
<!-- 35 -->
<g id="node37" class="node">
<title>35</title>
<ellipse fill="none" stroke="black" cx="1382" cy="-394" rx="41.69" ry="18"/>
<text text-anchor="middle" x="1382" y="-390.3" font-family="Times,serif" font-size="14.00">Est (a)</text>
</g>
<!-- 26&#45;&gt;35 -->
<g id="edge35" class="edge">
<title>26&#45;&gt;35</title>
<path fill="none" stroke="black" stroke-dasharray="1,5" d="M1420.91,-448.41C1414.69,-439.87 1406.97,-429.28 1400.06,-419.79"/>
<polygon fill="black" stroke="black" points="1402.72,-417.49 1394,-411.47 1397.06,-421.61 1402.72,-417.49"/>
</g>
<!-- 40 -->
<g id="node42" class="node">
<title>40</title>
<ellipse fill="none" stroke="black" cx="1484" cy="-394" rx="42.79" ry="18"/>
<text text-anchor="middle" x="1484" y="-390.3" font-family="Times,serif" font-size="14.00">Bas (a)</text>
</g>
<!-- 26&#45;&gt;40 -->
<g id="edge40" class="edge">
<title>26&#45;&gt;40</title>
<path fill="none" stroke="black" d="M1445.09,-448.41C1451.31,-439.87 1459.03,-429.28 1465.94,-419.79"/>
<polygon fill="black" stroke="black" points="1468.94,-421.61 1472,-411.47 1463.28,-417.49 1468.94,-421.61"/>
</g>
<!-- 28 -->
<g id="node30" class="node">
<title>28</title>
<ellipse fill="none" stroke="gray" stroke-dasharray="5,2" cx="491" cy="-106" rx="28.7" ry="18"/>
<text text-anchor="middle" x="491" y="-102.3" font-family="Times,serif" font-size="14.00">P18</text>
</g>
<!-- 30&#45;&gt;4 -->
<g id="edge5" class="edge">
<title>30&#45;&gt;4</title>
<path fill="none" stroke="black" stroke-dasharray="1,5" d="M370,-159.7C370,-151.98 370,-142.71 370,-134.11"/>
<polygon fill="black" stroke="black" points="373.5,-134.1 370,-124.1 366.5,-134.1 373.5,-134.1"/>
</g>
<!-- 31 -->
<g id="node33" class="node">
<title>31</title>
<ellipse fill="none" stroke="black" cx="2007" cy="-466" rx="40.09" ry="18"/>
<text text-anchor="middle" x="2007" y="-462.3" font-family="Times,serif" font-size="14.00">Pal (a)</text>
</g>
<!-- 33&#45;&gt;11 -->
<g id="edge12" class="edge">
<title>33&#45;&gt;11</title>
<path fill="none" stroke="black" stroke-dasharray="5,2" d="M1735.12,-521.12C1725.9,-511.9 1714.13,-500.13 1703.92,-489.92"/>
<polygon fill="black" stroke="black" points="1706.37,-487.42 1696.82,-482.82 1701.42,-492.37 1706.37,-487.42"/>
</g>
<!-- 33&#45;&gt;12 -->
<g id="edge13" class="edge">
<title>33&#45;&gt;12</title>
<path fill="none" stroke="black" stroke-dasharray="5,2" d="M1760.95,-520.41C1765.9,-512.16 1771.99,-502.01 1777.53,-492.78"/>
<polygon fill="black" stroke="black" points="1780.68,-494.33 1782.83,-483.96 1774.68,-490.73 1780.68,-494.33"/>
</g>
<!-- 33&#45;&gt;17 -->
<g id="edge18" class="edge">
<title>33&#45;&gt;17</title>
<path fill="none" stroke="black" stroke-dasharray="5,2" d="M1779.61,-524C1804.35,-512.75 1840.3,-496.41 1867.38,-484.1"/>
<polygon fill="black" stroke="black" points="1868.89,-487.26 1876.55,-479.93 1866,-480.88 1868.89,-487.26"/>
</g>
<!-- 33&#45;&gt;31 -->
<g id="edge31" class="edge">
<title>33&#45;&gt;31</title>
<path fill="none" stroke="black" stroke-dasharray="5,2" d="M1783.95,-525.98C1790.56,-523.89 1797.48,-521.8 1804,-520 1871.74,-501.25 1890.48,-503.55 1958,-484 1960.97,-483.14 1964.03,-482.2 1967.1,-481.23"/>
<polygon fill="black" stroke="black" points="1968.44,-484.47 1976.84,-478.02 1966.24,-477.82 1968.44,-484.47"/>
</g>
<!-- 34&#45;&gt;2 -->
<g id="edge3" class="edge">
<title>34&#45;&gt;2</title>
<path fill="none" stroke="black" stroke-dasharray="1,5" d="M271.27,-376.41C278.18,-367.78 286.75,-357.06 294.4,-347.5"/>
<polygon fill="black" stroke="black" points="297.31,-349.47 300.82,-339.47 291.84,-345.09 297.31,-349.47"/>
</g>
<!-- 41 -->
<g id="node43" class="node">
<title>41</title>
<ellipse fill="none" stroke="black" cx="1070" cy="-394" rx="50.09" ry="18"/>
<text text-anchor="middle" x="1070" y="-390.3" font-family="Times,serif" font-size="14.00">A336 (a)</text>
</g>
<!-- 37&#45;&gt;41 -->
<g id="edge41" class="edge">
<title>37&#45;&gt;41</title>
<path fill="none" stroke="black" stroke-dasharray="5,2" d="M1070,-447.7C1070,-439.98 1070,-430.71 1070,-422.11"/>
<polygon fill="black" stroke="black" points="1073.5,-422.1 1070,-412.1 1066.5,-422.1 1073.5,-422.1"/>
</g>
<!-- 39&#45;&gt;28 -->
<g id="edge28" class="edge">
<title>39&#45;&gt;28</title>
<path fill="none" stroke="gray" stroke-dasharray="5,2" d="M491,-159.7C491,-151.98 491,-142.71 491,-134.11"/>
<polygon fill="gray" stroke="gray" points="494.5,-134.1 491,-124.1 487.5,-134.1 494.5,-134.1"/>
</g>
</g>
</svg>
