<?xml version="1.0" encoding="UTF-8" standalone="no"?>
<!DOCTYPE svg PUBLIC "-//W3C//DTD SVG 1.1//EN"
 "http://www.w3.org/Graphics/SVG/1.1/DTD/svg11.dtd">
<!-- Generated by graphviz version 2.43.0 (0)
 -->
<!-- Title: textual_flow Pages: 1 -->
<svg width="1812pt" height="654pt"
 viewBox="0.00 0.00 1812.00 654.00" xmlns="http://www.w3.org/2000/svg" xmlns:xlink="http://www.w3.org/1999/xlink">
<g id="graph0" class="graph" transform="scale(1 1) rotate(0) translate(4 650)">
<title>textual_flow</title>
<polygon fill="white" stroke="transparent" points="-4,4 -4,-650 1808,-650 1808,4 -4,4"/>
<g id="clust1" class="cluster">
<title>cluster_legend</title>
<polygon fill="none" stroke="black" points="8,-584 8,-638 186,-638 186,-584 8,-584"/>
</g>
<g id="clust2" class="cluster">
<title>cluster_plot</title>
</g>
<!-- label -->
<g id="node1" class="node">
<title>label</title>
<text text-anchor="middle" x="97" y="-614.8" font-family="Times,serif" font-size="14.00">adstag1.2.32U18&#45;20</text>
<text text-anchor="middle" x="97" y="-599.8" font-family="Times,serif" font-size="14.00">Con = 10</text>
</g>
<!-- 0 -->
<g id="node2" class="node">
<title>0</title>
<ellipse fill="none" stroke="black" cx="581" cy="-538" rx="44.39" ry="18"/>
<text text-anchor="middle" x="581" y="-534.3" font-family="Times,serif" font-size="14.00">A25 (a)</text>
</g>
<!-- 15 -->
<g id="node17" class="node">
<title>15</title>
<ellipse fill="none" stroke="black" cx="250" cy="-466" rx="40.09" ry="18"/>
<text text-anchor="middle" x="250" y="-462.3" font-family="Times,serif" font-size="14.00">Pal (a)</text>
</g>
<!-- 0&#45;&gt;15 -->
<g id="edge15" class="edge">
<title>0&#45;&gt;15</title>
<path fill="none" stroke="black" stroke-dasharray="5,2" d="M539.95,-531.24C484.67,-523.04 383.49,-506.46 299,-484 295.87,-483.17 292.65,-482.23 289.42,-481.24"/>
<polygon fill="black" stroke="black" points="290.43,-477.89 279.84,-478.14 288.28,-484.55 290.43,-477.89"/>
</g>
<!-- 19 -->
<g id="node21" class="node">
<title>19</title>
<ellipse fill="none" stroke="black" cx="358" cy="-466" rx="50.09" ry="18"/>
<text text-anchor="middle" x="358" y="-462.3" font-family="Times,serif" font-size="14.00">V566 (a)</text>
</g>
<!-- 0&#45;&gt;19 -->
<g id="edge19" class="edge">
<title>0&#45;&gt;19</title>
<path fill="none" stroke="black" stroke-dasharray="5,2" d="M547.13,-526.37C508.92,-514.38 446.57,-494.8 403.99,-481.44"/>
<polygon fill="black" stroke="black" points="405,-478.09 394.41,-478.43 402.91,-484.76 405,-478.09"/>
</g>
<!-- 22 -->
<g id="node24" class="node">
<title>22</title>
<ellipse fill="none" stroke="black" cx="470" cy="-466" rx="44.39" ry="18"/>
<text text-anchor="middle" x="470" y="-462.3" font-family="Times,serif" font-size="14.00">S32 (a)</text>
</g>
<!-- 0&#45;&gt;22 -->
<g id="edge22" class="edge">
<title>0&#45;&gt;22</title>
<path fill="none" stroke="black" stroke-dasharray="5,2" d="M558,-522.5C541.78,-512.27 519.84,-498.43 501.92,-487.13"/>
<polygon fill="black" stroke="black" points="503.3,-483.86 492.97,-481.49 499.56,-489.78 503.3,-483.86"/>
</g>
<!-- 27 -->
<g id="node29" class="node">
<title>27</title>
<ellipse fill="none" stroke="black" cx="581" cy="-466" rx="48.99" ry="18"/>
<text text-anchor="middle" x="581" y="-462.3" font-family="Times,serif" font-size="14.00">La22 (a)</text>
</g>
<!-- 0&#45;&gt;27 -->
<g id="edge27" class="edge">
<title>0&#45;&gt;27</title>
<path fill="none" stroke="black" stroke-dasharray="1,5" d="M581,-519.7C581,-511.98 581,-502.71 581,-494.11"/>
<polygon fill="black" stroke="black" points="584.5,-494.1 581,-484.1 577.5,-494.1 584.5,-494.1"/>
</g>
<!-- 34 -->
<g id="node36" class="node">
<title>34</title>
<ellipse fill="none" stroke="black" cx="698" cy="-466" rx="50.09" ry="18"/>
<text text-anchor="middle" x="698" y="-462.3" font-family="Times,serif" font-size="14.00">Patm (a)</text>
</g>
<!-- 0&#45;&gt;34 -->
<g id="edge34" class="edge">
<title>0&#45;&gt;34</title>
<path fill="none" stroke="black" stroke-dasharray="1,5" d="M604.96,-522.67C622.16,-512.38 645.56,-498.37 664.6,-486.99"/>
<polygon fill="black" stroke="black" points="666.48,-489.94 673.27,-481.8 662.89,-483.93 666.48,-489.94"/>
</g>
<!-- 39 -->
<g id="node41" class="node">
<title>39</title>
<ellipse fill="none" stroke="black" cx="810" cy="-466" rx="44.39" ry="18"/>
<text text-anchor="middle" x="810" y="-462.3" font-family="Times,serif" font-size="14.00">P01 (a)</text>
</g>
<!-- 0&#45;&gt;39 -->
<g id="edge39" class="edge">
<title>0&#45;&gt;39</title>
<path fill="none" stroke="black" stroke-dasharray="5,2" d="M615.79,-526.72C651.33,-516.18 708.09,-499.21 757,-484 760.14,-483.02 763.38,-482.01 766.63,-480.98"/>
<polygon fill="black" stroke="black" points="767.91,-484.25 776.38,-477.88 765.79,-477.57 767.91,-484.25"/>
</g>
<!-- 1 -->
<g id="node3" class="node">
<title>1</title>
<ellipse fill="none" stroke="black" cx="1330" cy="-178" rx="40.89" ry="18"/>
<text text-anchor="middle" x="1330" y="-174.3" font-family="Times,serif" font-size="14.00">Sin (a)</text>
</g>
<!-- 6 -->
<g id="node8" class="node">
<title>6</title>
<ellipse fill="none" stroke="black" cx="1330" cy="-106" rx="50.09" ry="18"/>
<text text-anchor="middle" x="1330" y="-102.3" font-family="Times,serif" font-size="14.00">Marc (a)</text>
</g>
<!-- 1&#45;&gt;6 -->
<g id="edge7" class="edge">
<title>1&#45;&gt;6</title>
<path fill="none" stroke="black" stroke-dasharray="1,5" d="M1330,-159.7C1330,-151.98 1330,-142.71 1330,-134.11"/>
<polygon fill="black" stroke="black" points="1333.5,-134.1 1330,-124.1 1326.5,-134.1 1333.5,-134.1"/>
</g>
<!-- 2 -->
<g id="node4" class="node">
<title>2</title>
<ellipse fill="none" stroke="black" cx="962" cy="-538" rx="51.99" ry="18"/>
<text text-anchor="middle" x="962" y="-534.3" font-family="Times,serif" font-size="14.00">LaSM (c)</text>
</g>
<!-- 30 -->
<g id="node32" class="node">
<title>30</title>
<ellipse fill="none" stroke="black" cx="916" cy="-466" rx="44.39" ry="18"/>
<text text-anchor="middle" x="916" y="-462.3" font-family="Times,serif" font-size="14.00">B39 (c)</text>
</g>
<!-- 2&#45;&gt;30 -->
<g id="edge30" class="edge">
<title>2&#45;&gt;30</title>
<path fill="none" stroke="black" stroke-dasharray="5,2" d="M950.86,-520.05C945.38,-511.71 938.67,-501.49 932.59,-492.25"/>
<polygon fill="black" stroke="black" points="935.45,-490.22 927.03,-483.79 929.6,-494.07 935.45,-490.22"/>
</g>
<!-- 3 -->
<g id="node5" class="node">
<title>3</title>
<ellipse fill="none" stroke="black" cx="1442" cy="-178" rx="52.79" ry="18"/>
<text text-anchor="middle" x="1442" y="-174.3" font-family="Times,serif" font-size="14.00">M118 (a)</text>
</g>
<!-- 8 -->
<g id="node10" class="node">
<title>8</title>
<ellipse fill="none" stroke="gray" stroke-dasharray="5,2" cx="1442" cy="-106" rx="28.7" ry="18"/>
<text text-anchor="middle" x="1442" y="-102.3" font-family="Times,serif" font-size="14.00">P18</text>
</g>
<!-- 3&#45;&gt;8 -->
<g id="edge9" class="edge">
<title>3&#45;&gt;8</title>
<path fill="none" stroke="gray" stroke-dasharray="5,2" d="M1442,-159.7C1442,-151.98 1442,-142.71 1442,-134.11"/>
<polygon fill="gray" stroke="gray" points="1445.5,-134.1 1442,-124.1 1438.5,-134.1 1445.5,-134.1"/>
</g>
<!-- 4 -->
<g id="node6" class="node">
<title>4</title>
<ellipse fill="none" stroke="black" cx="1330" cy="-34" rx="46.29" ry="18"/>
<text text-anchor="middle" x="1330" y="-30.3" font-family="Times,serif" font-size="14.00">Mon (a)</text>
</g>
<!-- 5 -->
<g id="node7" class="node">
<title>5</title>
<ellipse fill="none" stroke="gray" stroke-dasharray="5,2" cx="252" cy="-394" rx="50.09" ry="18"/>
<text text-anchor="middle" x="252" y="-390.3" font-family="Times,serif" font-size="14.00">Savile&#45;Η</text>
</g>
<!-- 6&#45;&gt;4 -->
<g id="edge5" class="edge">
<title>6&#45;&gt;4</title>
<path fill="none" stroke="black" stroke-dasharray="1,5" d="M1330,-87.7C1330,-79.98 1330,-70.71 1330,-62.11"/>
<polygon fill="black" stroke="black" points="1333.5,-62.1 1330,-52.1 1326.5,-62.1 1333.5,-62.1"/>
</g>
<!-- 7 -->
<g id="node9" class="node">
<title>7</title>
<ellipse fill="none" stroke="black" cx="733" cy="-322" rx="50.09" ry="18"/>
<text text-anchor="middle" x="733" y="-318.3" font-family="Times,serif" font-size="14.00">A336 (a)</text>
</g>
<!-- 9 -->
<g id="node11" class="node">
<title>9</title>
<ellipse fill="none" stroke="black" cx="1602" cy="-466" rx="55.79" ry="18"/>
<text text-anchor="middle" x="1602" y="-462.3" font-family="Times,serif" font-size="14.00">V2250 (a)</text>
</g>
<!-- 10 -->
<g id="node12" class="node">
<title>10</title>
<ellipse fill="none" stroke="black" cx="1643" cy="-394" rx="43.59" ry="18"/>
<text text-anchor="middle" x="1643" y="-390.3" font-family="Times,serif" font-size="14.00">Bas (b)</text>
</g>
<!-- 11 -->
<g id="node13" class="node">
<title>11</title>
<ellipse fill="none" stroke="black" cx="1305" cy="-611" rx="53.89" ry="18"/>
<text text-anchor="middle" x="1305" y="-607.3" font-family="Times,serif" font-size="14.00">aBase (a)</text>
</g>
<!-- 11&#45;&gt;0 -->
<g id="edge1" class="edge">
<title>11&#45;&gt;0</title>
<path fill="none" stroke="black" stroke-dasharray="5,2" d="M1254.09,-605.01C1121.71,-592.03 767.68,-557.31 633.52,-544.15"/>
<polygon fill="black" stroke="black" points="633.78,-540.66 623.49,-543.17 633.1,-547.63 633.78,-540.66"/>
</g>
<!-- 11&#45;&gt;2 -->
<g id="edge3" class="edge">
<title>11&#45;&gt;2</title>
<path fill="none" stroke="blue" d="M1260.51,-600.79C1197.58,-587.76 1082.74,-563.99 1015.32,-550.04"/>
<polygon fill="blue" stroke="blue" points="1015.83,-546.57 1005.33,-547.97 1014.41,-553.42 1015.83,-546.57"/>
</g>
<!-- 23 -->
<g id="node25" class="node">
<title>23</title>
<ellipse fill="none" stroke="black" cx="1128" cy="-538" rx="50.09" ry="18"/>
<text text-anchor="middle" x="1128" y="-534.3" font-family="Times,serif" font-size="14.00">Neap (a)</text>
</g>
<!-- 11&#45;&gt;23 -->
<g id="edge23" class="edge">
<title>11&#45;&gt;23</title>
<path fill="none" stroke="black" stroke-width="2" d="M1271.71,-596.65C1242.76,-585.03 1200.68,-568.16 1169.54,-555.66"/>
<polygon fill="black" stroke="black" stroke-width="2" points="1170.83,-552.41 1160.25,-551.94 1168.23,-558.91 1170.83,-552.41"/>
</g>
<!-- 31 -->
<g id="node33" class="node">
<title>31</title>
<ellipse fill="none" stroke="black" cx="1246" cy="-538" rx="50.09" ry="18"/>
<text text-anchor="middle" x="1246" y="-534.3" font-family="Times,serif" font-size="14.00">S249 (d)</text>
</g>
<!-- 11&#45;&gt;31 -->
<g id="edge31" class="edge">
<title>11&#45;&gt;31</title>
<path fill="none" stroke="blue" d="M1291.32,-593.53C1283.87,-584.57 1274.51,-573.31 1266.24,-563.36"/>
<polygon fill="blue" stroke="blue" points="1268.69,-560.83 1259.61,-555.38 1263.31,-565.31 1268.69,-560.83"/>
</g>
<!-- 33 -->
<g id="node35" class="node">
<title>33</title>
<ellipse fill="none" stroke="black" cx="1364" cy="-538" rx="50.09" ry="18"/>
<text text-anchor="middle" x="1364" y="-534.3" font-family="Times,serif" font-size="14.00">V560 (a)</text>
</g>
<!-- 11&#45;&gt;33 -->
<g id="edge33" class="edge">
<title>11&#45;&gt;33</title>
<path fill="none" stroke="black" stroke-width="2" d="M1318.68,-593.53C1326.13,-584.57 1335.49,-573.31 1343.76,-563.36"/>
<polygon fill="black" stroke="black" stroke-width="2" points="1346.69,-565.31 1350.39,-555.38 1341.31,-560.83 1346.69,-565.31"/>
</g>
<!-- 38 -->
<g id="node40" class="node">
<title>38</title>
<ellipse fill="none" stroke="black" cx="1485" cy="-538" rx="52.79" ry="18"/>
<text text-anchor="middle" x="1485" y="-534.3" font-family="Times,serif" font-size="14.00">M136 (a)</text>
</g>
<!-- 11&#45;&gt;38 -->
<g id="edge38" class="edge">
<title>11&#45;&gt;38</title>
<path fill="none" stroke="black" stroke-width="2" d="M1338.43,-596.81C1367.73,-585.25 1410.49,-568.39 1442.26,-555.86"/>
<polygon fill="black" stroke="black" stroke-width="2" points="1443.73,-559.04 1451.74,-552.12 1441.16,-552.53 1443.73,-559.04"/>
</g>
<!-- 42 -->
<g id="node44" class="node">
<title>42</title>
<ellipse fill="none" stroke="black" cx="1601" cy="-538" rx="44.69" ry="18"/>
<text text-anchor="middle" x="1601" y="-534.3" font-family="Times,serif" font-size="14.00">Nan (a)</text>
</g>
<!-- 11&#45;&gt;42 -->
<g id="edge42" class="edge">
<title>11&#45;&gt;42</title>
<path fill="none" stroke="black" d="M1350.33,-601.09C1399.16,-591.21 1479.02,-574.25 1547,-556 1550.53,-555.05 1554.17,-554.02 1557.82,-552.95"/>
<polygon fill="black" stroke="black" points="1558.86,-556.29 1567.43,-550.06 1556.84,-549.59 1558.86,-556.29"/>
</g>
<!-- 44 -->
<g id="node46" class="node">
<title>44</title>
<ellipse fill="none" stroke="black" cx="1707" cy="-538" rx="42.79" ry="18"/>
<text text-anchor="middle" x="1707" y="-534.3" font-family="Times,serif" font-size="14.00">La2 (a)</text>
</g>
<!-- 11&#45;&gt;44 -->
<g id="edge44" class="edge">
<title>11&#45;&gt;44</title>
<path fill="none" stroke="black" stroke-width="2" d="M1355.93,-604.78C1424.51,-597.15 1550.05,-581.07 1655,-556 1658.43,-555.18 1661.96,-554.24 1665.48,-553.23"/>
<polygon fill="black" stroke="black" stroke-width="2" points="1666.77,-556.5 1675.33,-550.26 1664.75,-549.8 1666.77,-556.5"/>
</g>
<!-- 12 -->
<g id="node14" class="node">
<title>12</title>
<ellipse fill="none" stroke="black" cx="497" cy="-394" rx="46.59" ry="18"/>
<text text-anchor="middle" x="497" y="-390.3" font-family="Times,serif" font-size="14.00">Bodl (a)</text>
</g>
<!-- 13 -->
<g id="node15" class="node">
<title>13</title>
<ellipse fill="none" stroke="black" cx="612" cy="-394" rx="50.09" ry="18"/>
<text text-anchor="middle" x="612" y="-390.3" font-family="Times,serif" font-size="14.00">V571 (a)</text>
</g>
<!-- 14 -->
<g id="node16" class="node">
<title>14</title>
<ellipse fill="none" stroke="black" cx="1442" cy="-250" rx="46.59" ry="18"/>
<text text-anchor="middle" x="1442" y="-246.3" font-family="Times,serif" font-size="14.00">Taur (a)</text>
</g>
<!-- 14&#45;&gt;1 -->
<g id="edge2" class="edge">
<title>14&#45;&gt;1</title>
<path fill="none" stroke="black" stroke-dasharray="1,5" d="M1418.52,-234.33C1401.87,-223.92 1379.36,-209.85 1361.2,-198.5"/>
<polygon fill="black" stroke="black" points="1363.02,-195.51 1352.68,-193.18 1359.31,-201.44 1363.02,-195.51"/>
</g>
<!-- 14&#45;&gt;3 -->
<g id="edge4" class="edge">
<title>14&#45;&gt;3</title>
<path fill="none" stroke="black" stroke-dasharray="5,2" d="M1442,-231.7C1442,-223.98 1442,-214.71 1442,-206.11"/>
<polygon fill="black" stroke="black" points="1445.5,-206.1 1442,-196.1 1438.5,-206.1 1445.5,-206.1"/>
</g>
<!-- 40 -->
<g id="node42" class="node">
<title>40</title>
<ellipse fill="none" stroke="black" cx="1563" cy="-178" rx="50.09" ry="18"/>
<text text-anchor="middle" x="1563" y="-174.3" font-family="Times,serif" font-size="14.00">V569 (a)</text>
</g>
<!-- 14&#45;&gt;40 -->
<g id="edge40" class="edge">
<title>14&#45;&gt;40</title>
<path fill="none" stroke="black" stroke-dasharray="5,2" d="M1466.78,-234.67C1484.65,-224.33 1508.99,-210.25 1528.72,-198.83"/>
<polygon fill="black" stroke="black" points="1530.52,-201.83 1537.42,-193.8 1527.01,-195.78 1530.52,-201.83"/>
</g>
<!-- 15&#45;&gt;5 -->
<g id="edge6" class="edge">
<title>15&#45;&gt;5</title>
<path fill="none" stroke="gray" d="M250.49,-447.7C250.71,-439.98 250.98,-430.71 251.23,-422.11"/>
<polygon fill="gray" stroke="gray" points="254.72,-422.2 251.51,-412.1 247.73,-422 254.72,-422.2"/>
</g>
<!-- 16 -->
<g id="node18" class="node">
<title>16</title>
<ellipse fill="none" stroke="black" cx="1746" cy="-394" rx="41.69" ry="18"/>
<text text-anchor="middle" x="1746" y="-390.3" font-family="Times,serif" font-size="14.00">Est (a)</text>
</g>
<!-- 17 -->
<g id="node19" class="node">
<title>17</title>
<ellipse fill="none" stroke="black" cx="1732" cy="-466" rx="55.79" ry="18"/>
<text text-anchor="middle" x="1732" y="-462.3" font-family="Times,serif" font-size="14.00">V1897 (a)</text>
</g>
<!-- 17&#45;&gt;10 -->
<g id="edge11" class="edge">
<title>17&#45;&gt;10</title>
<path fill="none" stroke="blue" d="M1711.8,-449.12C1699.57,-439.5 1683.81,-427.1 1670.45,-416.59"/>
<polygon fill="blue" stroke="blue" points="1672.53,-413.77 1662.5,-410.34 1668.2,-419.27 1672.53,-413.77"/>
</g>
<!-- 17&#45;&gt;16 -->
<g id="edge16" class="edge">
<title>17&#45;&gt;16</title>
<path fill="none" stroke="black" stroke-dasharray="1,5" d="M1735.46,-447.7C1737,-439.98 1738.86,-430.71 1740.58,-422.11"/>
<polygon fill="black" stroke="black" points="1744.05,-422.6 1742.58,-412.1 1737.19,-421.22 1744.05,-422.6"/>
</g>
<!-- 18 -->
<g id="node20" class="node">
<title>18</title>
<ellipse fill="none" stroke="black" cx="1442" cy="-322" rx="50.09" ry="18"/>
<text text-anchor="middle" x="1442" y="-318.3" font-family="Times,serif" font-size="14.00">V568 (a)</text>
</g>
<!-- 18&#45;&gt;14 -->
<g id="edge14" class="edge">
<title>18&#45;&gt;14</title>
<path fill="none" stroke="black" stroke-dasharray="1,5" d="M1442,-303.7C1442,-295.98 1442,-286.71 1442,-278.11"/>
<polygon fill="black" stroke="black" points="1445.5,-278.1 1442,-268.1 1438.5,-278.1 1445.5,-278.1"/>
</g>
<!-- 35 -->
<g id="node37" class="node">
<title>35</title>
<ellipse fill="none" stroke="black" cx="376" cy="-394" rx="55.79" ry="18"/>
<text text-anchor="middle" x="376" y="-390.3" font-family="Times,serif" font-size="14.00">V1639 (a)</text>
</g>
<!-- 19&#45;&gt;35 -->
<g id="edge35" class="edge">
<title>19&#45;&gt;35</title>
<path fill="none" stroke="black" stroke-dasharray="1,5" d="M362.36,-448.05C364.36,-440.26 366.79,-430.82 369.04,-422.08"/>
<polygon fill="black" stroke="black" points="372.46,-422.83 371.56,-412.28 365.68,-421.09 372.46,-422.83"/>
</g>
<!-- 20 -->
<g id="node22" class="node">
<title>20</title>
<ellipse fill="none" stroke="gray" stroke-dasharray="5,2" cx="1483" cy="-466" rx="45.49" ry="18"/>
<text text-anchor="middle" x="1483" y="-462.3" font-family="Times,serif" font-size="14.00">LaSM&#45;c</text>
</g>
<!-- 21 -->
<g id="node23" class="node">
<title>21</title>
<ellipse fill="none" stroke="black" cx="733" cy="-394" rx="52.79" ry="18"/>
<text text-anchor="middle" x="733" y="-390.3" font-family="Times,serif" font-size="14.00">M111 (a)</text>
</g>
<!-- 21&#45;&gt;7 -->
<g id="edge8" class="edge">
<title>21&#45;&gt;7</title>
<path fill="none" stroke="black" stroke-dasharray="5,2" d="M733,-375.7C733,-367.98 733,-358.71 733,-350.11"/>
<polygon fill="black" stroke="black" points="736.5,-350.1 733,-340.1 729.5,-350.1 736.5,-350.1"/>
</g>
<!-- 28 -->
<g id="node30" class="node">
<title>28</title>
<ellipse fill="none" stroke="black" cx="1034" cy="-466" rx="55.79" ry="18"/>
<text text-anchor="middle" x="1034" y="-462.3" font-family="Times,serif" font-size="14.00">V1629 (a)</text>
</g>
<!-- 23&#45;&gt;28 -->
<g id="edge28" class="edge">
<title>23&#45;&gt;28</title>
<path fill="none" stroke="black" stroke-dasharray="1,5" d="M1107.14,-521.46C1094.21,-511.84 1077.41,-499.32 1063.17,-488.72"/>
<polygon fill="black" stroke="black" points="1065.24,-485.9 1055.13,-482.73 1061.06,-491.51 1065.24,-485.9"/>
</g>
<!-- 32 -->
<g id="node34" class="node">
<title>32</title>
<ellipse fill="none" stroke="gray" stroke-dasharray="5,2" cx="1148" cy="-466" rx="39.79" ry="18"/>
<text text-anchor="middle" x="1148" y="-462.3" font-family="Times,serif" font-size="14.00">Taur&#45;c</text>
</g>
<!-- 23&#45;&gt;32 -->
<g id="edge32" class="edge">
<title>23&#45;&gt;32</title>
<path fill="none" stroke="gray" stroke-width="2" d="M1132.84,-520.05C1135.07,-512.26 1137.77,-502.82 1140.26,-494.08"/>
<polygon fill="gray" stroke="gray" stroke-width="2" points="1143.68,-494.85 1143.06,-484.28 1136.95,-492.93 1143.68,-494.85"/>
</g>
<!-- 36 -->
<g id="node38" class="node">
<title>36</title>
<ellipse fill="none" stroke="gray" stroke-dasharray="5,2" cx="1248" cy="-466" rx="42.49" ry="18"/>
<text text-anchor="middle" x="1248" y="-462.3" font-family="Times,serif" font-size="14.00">Marc&#45;c</text>
</g>
<!-- 23&#45;&gt;36 -->
<g id="edge36" class="edge">
<title>23&#45;&gt;36</title>
<path fill="none" stroke="gray" stroke-dasharray="5,2" d="M1153.16,-522.33C1171.19,-511.8 1195.66,-497.53 1215.22,-486.12"/>
<polygon fill="gray" stroke="gray" points="1217.23,-489 1224.1,-480.94 1213.7,-482.96 1217.23,-489"/>
</g>
<!-- 24 -->
<g id="node26" class="node">
<title>24</title>
<ellipse fill="none" stroke="black" cx="1442" cy="-394" rx="50.09" ry="18"/>
<text text-anchor="middle" x="1442" y="-390.3" font-family="Times,serif" font-size="14.00">V536 (a)</text>
</g>
<!-- 24&#45;&gt;18 -->
<g id="edge18" class="edge">
<title>24&#45;&gt;18</title>
<path fill="none" stroke="black" stroke-dasharray="1,5" d="M1442,-375.7C1442,-367.98 1442,-358.71 1442,-350.11"/>
<polygon fill="black" stroke="black" points="1445.5,-350.1 1442,-340.1 1438.5,-350.1 1445.5,-350.1"/>
</g>
<!-- 25 -->
<g id="node27" class="node">
<title>25</title>
<ellipse fill="none" stroke="black" cx="860" cy="-394" rx="55.79" ry="18"/>
<text text-anchor="middle" x="860" y="-390.3" font-family="Times,serif" font-size="14.00">V2036 (a)</text>
</g>
<!-- 26 -->
<g id="node28" class="node">
<title>26</title>
<ellipse fill="none" stroke="black" cx="983" cy="-394" rx="48.99" ry="18"/>
<text text-anchor="middle" x="983" y="-390.3" font-family="Times,serif" font-size="14.00">La35 (a)</text>
</g>
<!-- 27&#45;&gt;12 -->
<g id="edge12" class="edge">
<title>27&#45;&gt;12</title>
<path fill="none" stroke="black" stroke-dasharray="5,2" d="M561.94,-449.12C550.58,-439.65 536,-427.5 523.53,-417.11"/>
<polygon fill="black" stroke="black" points="525.62,-414.29 515.7,-410.58 521.14,-419.67 525.62,-414.29"/>
</g>
<!-- 27&#45;&gt;13 -->
<g id="edge13" class="edge">
<title>27&#45;&gt;13</title>
<path fill="none" stroke="black" stroke-dasharray="1,5" d="M588.5,-448.05C592.03,-440.09 596.32,-430.41 600.26,-421.51"/>
<polygon fill="black" stroke="black" points="603.5,-422.84 604.35,-412.28 597.1,-420 603.5,-422.84"/>
</g>
<!-- 27&#45;&gt;21 -->
<g id="edge21" class="edge">
<title>27&#45;&gt;21</title>
<path fill="none" stroke="black" stroke-dasharray="1,5" d="M610.31,-451.5C634.05,-440.57 667.72,-425.07 693.78,-413.06"/>
<polygon fill="black" stroke="black" points="695.38,-416.18 703,-408.81 692.46,-409.82 695.38,-416.18"/>
</g>
<!-- 27&#45;&gt;25 -->
<g id="edge25" class="edge">
<title>27&#45;&gt;25</title>
<path fill="none" stroke="black" stroke-dasharray="5,2" d="M617.42,-453.97C624.55,-451.91 632,-449.83 639,-448 707.84,-429.99 725.91,-429 795,-412 799.39,-410.92 803.93,-409.78 808.49,-408.62"/>
<polygon fill="black" stroke="black" points="809.62,-411.94 818.44,-406.06 807.88,-405.16 809.62,-411.94"/>
</g>
<!-- 27&#45;&gt;26 -->
<g id="edge26" class="edge">
<title>27&#45;&gt;26</title>
<path fill="none" stroke="black" stroke-dasharray="1,5" d="M616.66,-453.58C624,-451.5 631.71,-449.52 639,-448 764.43,-421.9 799.57,-438.1 925,-412 929.1,-411.15 933.34,-410.15 937.56,-409.06"/>
<polygon fill="black" stroke="black" points="938.59,-412.41 947.34,-406.42 936.77,-405.65 938.59,-412.41"/>
</g>
<!-- 29 -->
<g id="node31" class="node">
<title>29</title>
<ellipse fill="none" stroke="black" cx="1100" cy="-394" rx="50.09" ry="18"/>
<text text-anchor="middle" x="1100" y="-390.3" font-family="Times,serif" font-size="14.00">V565 (a)</text>
</g>
<!-- 27&#45;&gt;29 -->
<g id="edge29" class="edge">
<title>27&#45;&gt;29</title>
<path fill="none" stroke="black" stroke-dasharray="5,2" d="M616.31,-453.46C623.74,-451.37 631.58,-449.41 639,-448 815.25,-414.61 864.68,-444.98 1041,-412 1045.36,-411.18 1049.86,-410.18 1054.35,-409.08"/>
<polygon fill="black" stroke="black" points="1055.28,-412.46 1064.07,-406.54 1053.51,-405.68 1055.28,-412.46"/>
</g>
<!-- 41 -->
<g id="node43" class="node">
<title>41</title>
<ellipse fill="none" stroke="black" cx="1212" cy="-394" rx="44.39" ry="18"/>
<text text-anchor="middle" x="1212" y="-390.3" font-family="Times,serif" font-size="14.00">P74 (a)</text>
</g>
<!-- 27&#45;&gt;41 -->
<g id="edge41" class="edge">
<title>27&#45;&gt;41</title>
<path fill="none" stroke="black" stroke-dasharray="1,5" d="M615.98,-453.43C623.5,-451.31 631.46,-449.35 639,-448 867.04,-407.18 931.49,-455.7 1159,-412 1162.68,-411.29 1166.46,-410.41 1170.23,-409.42"/>
<polygon fill="black" stroke="black" points="1171.44,-412.72 1180.09,-406.6 1169.51,-405.99 1171.44,-412.72"/>
</g>
<!-- 45 -->
<g id="node47" class="node">
<title>45</title>
<ellipse fill="none" stroke="black" cx="1324" cy="-394" rx="50.09" ry="18"/>
<text text-anchor="middle" x="1324" y="-390.3" font-family="Times,serif" font-size="14.00">A116 (a)</text>
</g>
<!-- 27&#45;&gt;45 -->
<g id="edge45" class="edge">
<title>27&#45;&gt;45</title>
<path fill="none" stroke="black" stroke-dasharray="5,2" d="M615.97,-453.36C623.49,-451.25 631.45,-449.31 639,-448 913.6,-400.5 990.29,-458.87 1265,-412 1269.37,-411.25 1273.89,-410.3 1278.37,-409.23"/>
<polygon fill="black" stroke="black" points="1279.29,-412.61 1288.1,-406.72 1277.54,-405.83 1279.29,-412.61"/>
</g>
<!-- 28&#45;&gt;24 -->
<g id="edge24" class="edge">
<title>28&#45;&gt;24</title>
<path fill="none" stroke="black" stroke-dasharray="5,2" d="M1074.73,-453.48C1082.73,-451.47 1091.1,-449.53 1099,-448 1223.92,-423.85 1258.39,-437.69 1383,-412 1387.17,-411.14 1391.47,-410.14 1395.77,-409.05"/>
<polygon fill="black" stroke="black" points="1396.95,-412.36 1405.71,-406.41 1395.15,-405.6 1396.95,-412.36"/>
</g>
<!-- 37 -->
<g id="node39" class="node">
<title>37</title>
<ellipse fill="none" stroke="gray" stroke-dasharray="5,2" cx="1546" cy="-394" rx="36" ry="18"/>
<text text-anchor="middle" x="1546" y="-390.3" font-family="Times,serif" font-size="14.00">La2&#45;c</text>
</g>
<!-- 28&#45;&gt;37 -->
<g id="edge37" class="edge">
<title>28&#45;&gt;37</title>
<path fill="none" stroke="gray" stroke-width="2" d="M1074.34,-453.34C1082.45,-451.31 1090.96,-449.4 1099,-448 1275.72,-417.2 1326.15,-452.07 1501,-412 1504,-411.31 1507.06,-410.47 1510.11,-409.54"/>
<polygon fill="gray" stroke="gray" stroke-width="2" points="1511.37,-412.81 1519.72,-406.29 1509.12,-406.18 1511.37,-412.81"/>
</g>
<!-- 43 -->
<g id="node45" class="node">
<title>43</title>
<ellipse fill="none" stroke="black" cx="1364" cy="-466" rx="55.79" ry="18"/>
<text text-anchor="middle" x="1364" y="-462.3" font-family="Times,serif" font-size="14.00">V1920 (a)</text>
</g>
<!-- 33&#45;&gt;43 -->
<g id="edge43" class="edge">
<title>33&#45;&gt;43</title>
<path fill="none" stroke="black" stroke-dasharray="5,2" d="M1364,-519.7C1364,-511.98 1364,-502.71 1364,-494.11"/>
<polygon fill="black" stroke="black" points="1367.5,-494.1 1364,-484.1 1360.5,-494.1 1367.5,-494.1"/>
</g>
<!-- 38&#45;&gt;20 -->
<g id="edge20" class="edge">
<title>38&#45;&gt;20</title>
<path fill="none" stroke="gray" stroke-dasharray="5,2" d="M1484.51,-519.7C1484.29,-511.98 1484.02,-502.71 1483.77,-494.11"/>
<polygon fill="gray" stroke="gray" points="1487.27,-494 1483.49,-484.1 1480.28,-494.2 1487.27,-494"/>
</g>
<!-- 42&#45;&gt;9 -->
<g id="edge10" class="edge">
<title>42&#45;&gt;9</title>
<path fill="none" stroke="black" stroke-dasharray="5,2" d="M1601.25,-519.7C1601.36,-511.98 1601.49,-502.71 1601.61,-494.11"/>
<polygon fill="black" stroke="black" points="1605.11,-494.15 1601.76,-484.1 1598.11,-494.05 1605.11,-494.15"/>
</g>
<!-- 42&#45;&gt;17 -->
<g id="edge17" class="edge">
<title>42&#45;&gt;17</title>
<path fill="none" stroke="black" stroke-dasharray="1,5" d="M1626.88,-523.17C1646.45,-512.71 1673.59,-498.21 1695.39,-486.56"/>
<polygon fill="black" stroke="black" points="1697.19,-489.57 1704.36,-481.77 1693.89,-483.39 1697.19,-489.57"/>
</g>
</g>
</svg>
