<?xml version="1.0" encoding="UTF-8" standalone="no"?>
<!DOCTYPE svg PUBLIC "-//W3C//DTD SVG 1.1//EN"
 "http://www.w3.org/Graphics/SVG/1.1/DTD/svg11.dtd">
<!-- Generated by graphviz version 2.43.0 (0)
 -->
<!-- Title: textual_flow Pages: 1 -->
<svg width="1438pt" height="692pt"
 viewBox="0.00 0.00 1438.00 692.00" xmlns="http://www.w3.org/2000/svg" xmlns:xlink="http://www.w3.org/1999/xlink">
<g id="graph0" class="graph" transform="scale(1 1) rotate(0) translate(4 688)">
<title>textual_flow</title>
<polygon fill="white" stroke="transparent" points="-4,4 -4,-688 1434,-688 1434,4 -4,4"/>
<g id="clust1" class="cluster">
<title>cluster_legend</title>
<polygon fill="none" stroke="black" points="8,-622 8,-676 178,-676 178,-622 8,-622"/>
</g>
<g id="clust2" class="cluster">
<title>cluster_plot</title>
</g>
<!-- label -->
<g id="node1" class="node">
<title>label</title>
<text text-anchor="middle" x="93" y="-652.8" font-family="Times,serif" font-size="14.00">adstag1.3.5U12&#45;14</text>
<text text-anchor="middle" x="93" y="-637.8" font-family="Times,serif" font-size="14.00">Con = 5</text>
</g>
<!-- 0 -->
<g id="node2" class="node">
<title>0</title>
<ellipse fill="none" stroke="black" cx="389" cy="-399" rx="53.09" ry="18"/>
<text text-anchor="middle" x="389" y="-395.3" font-family="Times,serif" font-size="14.00">M111 (b)</text>
</g>
<!-- 3 -->
<g id="node5" class="node">
<title>3</title>
<ellipse fill="none" stroke="black" cx="389" cy="-326" rx="50.09" ry="18"/>
<text text-anchor="middle" x="389" y="-322.3" font-family="Times,serif" font-size="14.00">A336 (b)</text>
</g>
<!-- 0&#45;&gt;3 -->
<g id="edge4" class="edge">
<title>0&#45;&gt;3</title>
<path fill="none" stroke="black" stroke-dasharray="5,2" d="M389,-380.81C389,-372.79 389,-363.05 389,-354.07"/>
<polygon fill="black" stroke="black" points="392.5,-354.03 389,-344.03 385.5,-354.03 392.5,-354.03"/>
</g>
<!-- 1 -->
<g id="node3" class="node">
<title>1</title>
<ellipse fill="none" stroke="black" cx="708" cy="-482" rx="50.09" ry="18"/>
<text text-anchor="middle" x="708" y="-478.3" font-family="Times,serif" font-size="14.00">Patm (b)</text>
</g>
<!-- 2 -->
<g id="node4" class="node">
<title>2</title>
<ellipse fill="none" stroke="black" cx="250" cy="-565" rx="50.09" ry="18"/>
<text text-anchor="middle" x="250" y="-561.3" font-family="Times,serif" font-size="14.00">V560 (a)</text>
</g>
<!-- 12 -->
<g id="node14" class="node">
<title>12</title>
<ellipse fill="none" stroke="black" cx="250" cy="-482" rx="55.79" ry="18"/>
<text text-anchor="middle" x="250" y="-478.3" font-family="Times,serif" font-size="14.00">V1920 (a)</text>
</g>
<!-- 2&#45;&gt;12 -->
<g id="edge12" class="edge">
<title>2&#45;&gt;12</title>
<path fill="none" stroke="black" stroke-dasharray="5,2" d="M250,-546.82C250,-536.19 250,-522.31 250,-510.2"/>
<polygon fill="black" stroke="black" points="253.5,-510.15 250,-500.15 246.5,-510.15 253.5,-510.15"/>
</g>
<!-- 4 -->
<g id="node6" class="node">
<title>4</title>
<ellipse fill="none" stroke="black" cx="362" cy="-565" rx="44.39" ry="18"/>
<text text-anchor="middle" x="362" y="-561.3" font-family="Times,serif" font-size="14.00">P74 (a)</text>
</g>
<!-- 5 -->
<g id="node7" class="node">
<title>5</title>
<ellipse fill="none" stroke="black" cx="365" cy="-482" rx="41.69" ry="18"/>
<text text-anchor="middle" x="365" y="-478.3" font-family="Times,serif" font-size="14.00">Est (a)</text>
</g>
<!-- 6 -->
<g id="node8" class="node">
<title>6</title>
<ellipse fill="none" stroke="black" cx="1228" cy="-253" rx="47.39" ry="18"/>
<text text-anchor="middle" x="1228" y="-249.3" font-family="Times,serif" font-size="14.00">Taur (b)</text>
</g>
<!-- 8 -->
<g id="node10" class="node">
<title>8</title>
<ellipse fill="none" stroke="black" cx="1107" cy="-180" rx="50.09" ry="18"/>
<text text-anchor="middle" x="1107" y="-176.3" font-family="Times,serif" font-size="14.00">Marc (b)</text>
</g>
<!-- 6&#45;&gt;8 -->
<g id="edge9" class="edge">
<title>6&#45;&gt;8</title>
<path fill="none" stroke="black" stroke-dasharray="1,5" d="M1203.22,-237.46C1185.23,-226.91 1160.68,-212.5 1140.88,-200.88"/>
<polygon fill="black" stroke="black" points="1142.56,-197.81 1132.16,-195.76 1139.01,-203.84 1142.56,-197.81"/>
</g>
<!-- 10 -->
<g id="node12" class="node">
<title>10</title>
<ellipse fill="none" stroke="black" cx="1228" cy="-180" rx="53.09" ry="18"/>
<text text-anchor="middle" x="1228" y="-176.3" font-family="Times,serif" font-size="14.00">M118 (b)</text>
</g>
<!-- 6&#45;&gt;10 -->
<g id="edge11" class="edge">
<title>6&#45;&gt;10</title>
<path fill="none" stroke="black" stroke-dasharray="5,2" d="M1228,-234.81C1228,-226.79 1228,-217.05 1228,-208.07"/>
<polygon fill="black" stroke="black" points="1231.5,-208.03 1228,-198.03 1224.5,-208.03 1231.5,-208.03"/>
</g>
<!-- 29 -->
<g id="node31" class="node">
<title>29</title>
<ellipse fill="none" stroke="black" cx="1349" cy="-180" rx="50.09" ry="18"/>
<text text-anchor="middle" x="1349" y="-176.3" font-family="Times,serif" font-size="14.00">V569 (b)</text>
</g>
<!-- 6&#45;&gt;29 -->
<g id="edge29" class="edge">
<title>6&#45;&gt;29</title>
<path fill="none" stroke="black" stroke-dasharray="5,2" d="M1252.78,-237.46C1270.77,-226.91 1295.32,-212.5 1315.12,-200.88"/>
<polygon fill="black" stroke="black" points="1316.99,-203.84 1323.84,-195.76 1313.44,-197.81 1316.99,-203.84"/>
</g>
<!-- 7 -->
<g id="node9" class="node">
<title>7</title>
<ellipse fill="none" stroke="black" cx="480" cy="-565" rx="55.79" ry="18"/>
<text text-anchor="middle" x="480" y="-561.3" font-family="Times,serif" font-size="14.00">V1897 (a)</text>
</g>
<!-- 7&#45;&gt;5 -->
<g id="edge6" class="edge">
<title>7&#45;&gt;5</title>
<path fill="none" stroke="black" stroke-dasharray="1,5" d="M457.83,-548.38C439.75,-535.65 414.06,-517.55 394.29,-503.63"/>
<polygon fill="black" stroke="black" points="396.13,-500.65 385.94,-497.75 392.1,-506.37 396.13,-500.65"/>
</g>
<!-- 30 -->
<g id="node32" class="node">
<title>30</title>
<ellipse fill="none" stroke="black" cx="480" cy="-482" rx="55.79" ry="18"/>
<text text-anchor="middle" x="480" y="-478.3" font-family="Times,serif" font-size="14.00">V2250 (a)</text>
</g>
<!-- 7&#45;&gt;30 -->
<g id="edge30" class="edge">
<title>7&#45;&gt;30</title>
<path fill="none" stroke="black" stroke-dasharray="5,2" d="M480,-546.82C480,-536.19 480,-522.31 480,-510.2"/>
<polygon fill="black" stroke="black" points="483.5,-510.15 480,-500.15 476.5,-510.15 483.5,-510.15"/>
<text text-anchor="middle" x="483.5" y="-521" font-family="Times,serif" font-size="10.00">2</text>
</g>
<!-- 42 -->
<g id="node44" class="node">
<title>42</title>
<ellipse fill="none" stroke="black" cx="597" cy="-482" rx="42.79" ry="18"/>
<text text-anchor="middle" x="597" y="-478.3" font-family="Times,serif" font-size="14.00">Bas (a)</text>
</g>
<!-- 7&#45;&gt;42 -->
<g id="edge42" class="edge">
<title>7&#45;&gt;42</title>
<path fill="none" stroke="black" d="M502.56,-548.38C520.95,-535.65 547.09,-517.55 567.2,-503.63"/>
<polygon fill="black" stroke="black" points="569.46,-506.32 575.69,-497.75 565.48,-500.57 569.46,-506.32"/>
</g>
<!-- 13 -->
<g id="node15" class="node">
<title>13</title>
<ellipse fill="none" stroke="black" cx="1107" cy="-107" rx="46.59" ry="18"/>
<text text-anchor="middle" x="1107" y="-103.3" font-family="Times,serif" font-size="14.00">Mon (b)</text>
</g>
<!-- 8&#45;&gt;13 -->
<g id="edge13" class="edge">
<title>8&#45;&gt;13</title>
<path fill="none" stroke="black" stroke-dasharray="1,5" d="M1107,-161.81C1107,-153.79 1107,-144.05 1107,-135.07"/>
<polygon fill="black" stroke="black" points="1110.5,-135.03 1107,-125.03 1103.5,-135.03 1110.5,-135.03"/>
</g>
<!-- 9 -->
<g id="node11" class="node">
<title>9</title>
<ellipse fill="none" stroke="black" cx="264" cy="-326" rx="44.69" ry="18"/>
<text text-anchor="middle" x="264" y="-322.3" font-family="Times,serif" font-size="14.00">B39 (b)</text>
</g>
<!-- 34 -->
<g id="node36" class="node">
<title>34</title>
<ellipse fill="none" stroke="gray" stroke-dasharray="5,2" cx="1228" cy="-107" rx="28.7" ry="18"/>
<text text-anchor="middle" x="1228" y="-103.3" font-family="Times,serif" font-size="14.00">P18</text>
</g>
<!-- 10&#45;&gt;34 -->
<g id="edge34" class="edge">
<title>10&#45;&gt;34</title>
<path fill="none" stroke="gray" stroke-dasharray="5,2" d="M1228,-161.81C1228,-153.79 1228,-144.05 1228,-135.07"/>
<polygon fill="gray" stroke="gray" points="1231.5,-135.03 1228,-125.03 1224.5,-135.03 1231.5,-135.03"/>
</g>
<!-- 11 -->
<g id="node13" class="node">
<title>11</title>
<ellipse fill="none" stroke="black" cx="728" cy="-649" rx="53.89" ry="18"/>
<text text-anchor="middle" x="728" y="-645.3" font-family="Times,serif" font-size="14.00">aBase (a)</text>
</g>
<!-- 11&#45;&gt;2 -->
<g id="edge3" class="edge">
<title>11&#45;&gt;2</title>
<path fill="none" stroke="black" stroke-width="2" d="M677.61,-642.4C598.5,-633.11 440.61,-612.57 309,-583 304.9,-582.08 300.67,-581.04 296.45,-579.94"/>
<polygon fill="black" stroke="black" stroke-width="2" points="297.22,-576.52 286.65,-577.29 295.39,-583.28 297.22,-576.52"/>
</g>
<!-- 11&#45;&gt;4 -->
<g id="edge5" class="edge">
<title>11&#45;&gt;4</title>
<path fill="none" stroke="black" d="M681.24,-639.88C619.74,-628.85 508.52,-607.63 415,-583 411.63,-582.11 408.15,-581.14 404.67,-580.11"/>
<polygon fill="black" stroke="black" points="405.51,-576.71 394.92,-577.15 403.47,-583.41 405.51,-576.71"/>
<text text-anchor="middle" x="537.5" y="-604" font-family="Times,serif" font-size="10.00">2</text>
</g>
<!-- 11&#45;&gt;7 -->
<g id="edge8" class="edge">
<title>11&#45;&gt;7</title>
<path fill="none" stroke="black" d="M691.14,-635.81C647.55,-621.4 574.92,-597.39 527.24,-581.62"/>
<polygon fill="black" stroke="black" points="528.06,-578.21 517.47,-578.39 525.86,-584.85 528.06,-578.21"/>
</g>
<!-- 16 -->
<g id="node18" class="node">
<title>16</title>
<ellipse fill="none" stroke="black" cx="607" cy="-565" rx="52.79" ry="18"/>
<text text-anchor="middle" x="607" y="-561.3" font-family="Times,serif" font-size="14.00">M136 (a)</text>
</g>
<!-- 11&#45;&gt;16 -->
<g id="edge16" class="edge">
<title>11&#45;&gt;16</title>
<path fill="none" stroke="black" stroke-width="2" d="M705.24,-632.58C686.23,-619.69 658.93,-601.2 637.94,-586.97"/>
<polygon fill="black" stroke="black" stroke-width="2" points="639.9,-584.07 629.66,-581.35 635.97,-589.86 639.9,-584.07"/>
</g>
<!-- 17 -->
<g id="node19" class="node">
<title>17</title>
<ellipse fill="none" stroke="black" cx="728" cy="-565" rx="50.09" ry="18"/>
<text text-anchor="middle" x="728" y="-561.3" font-family="Times,serif" font-size="14.00">Neap (c)</text>
</g>
<!-- 11&#45;&gt;17 -->
<g id="edge17" class="edge">
<title>11&#45;&gt;17</title>
<path fill="none" stroke="blue" stroke-width="2" d="M728,-630.61C728,-619.77 728,-605.6 728,-593.29"/>
<polygon fill="blue" stroke="blue" stroke-width="2" points="731.5,-593.08 728,-583.08 724.5,-593.08 731.5,-593.08"/>
</g>
<!-- 19 -->
<g id="node21" class="node">
<title>19</title>
<ellipse fill="none" stroke="black" cx="839" cy="-565" rx="42.79" ry="18"/>
<text text-anchor="middle" x="839" y="-561.3" font-family="Times,serif" font-size="14.00">La2 (a)</text>
</g>
<!-- 11&#45;&gt;19 -->
<g id="edge19" class="edge">
<title>11&#45;&gt;19</title>
<path fill="none" stroke="black" stroke-width="2" d="M749.14,-632.38C766.56,-619.51 791.44,-601.14 810.6,-586.98"/>
<polygon fill="black" stroke="black" stroke-width="2" points="812.72,-589.76 818.69,-581.01 808.57,-584.13 812.72,-589.76"/>
</g>
<!-- 20 -->
<g id="node22" class="node">
<title>20</title>
<ellipse fill="none" stroke="gray" stroke-dasharray="5,2" cx="950" cy="-565" rx="50.09" ry="18"/>
<text text-anchor="middle" x="950" y="-561.3" font-family="Times,serif" font-size="14.00">Savile&#45;Η</text>
</g>
<!-- 11&#45;&gt;20 -->
<g id="edge20" class="edge">
<title>11&#45;&gt;20</title>
<path fill="none" stroke="gray" stroke-width="2" d="M762.69,-635.19C801.61,-620.81 864.78,-597.48 906.86,-581.94"/>
<polygon fill="gray" stroke="gray" stroke-width="2" points="908.12,-585.2 916.28,-578.45 905.69,-578.64 908.12,-585.2"/>
</g>
<!-- 22 -->
<g id="node24" class="node">
<title>22</title>
<ellipse fill="none" stroke="black" cx="1062" cy="-565" rx="44.39" ry="18"/>
<text text-anchor="middle" x="1062" y="-561.3" font-family="Times,serif" font-size="14.00">A25 (b)</text>
</g>
<!-- 11&#45;&gt;22 -->
<g id="edge22" class="edge">
<title>11&#45;&gt;22</title>
<path fill="none" stroke="blue" stroke-dasharray="5,2" d="M773.06,-638.78C828.81,-627.11 926.45,-605.74 1009,-583 1012.36,-582.07 1015.83,-581.07 1019.31,-580.03"/>
<polygon fill="blue" stroke="blue" points="1020.52,-583.32 1029.05,-577.04 1018.46,-576.63 1020.52,-583.32"/>
</g>
<!-- 24 -->
<g id="node26" class="node">
<title>24</title>
<ellipse fill="none" stroke="gray" stroke-dasharray="5,2" cx="1159" cy="-565" rx="34.39" ry="18"/>
<text text-anchor="middle" x="1159" y="-561.3" font-family="Times,serif" font-size="14.00">S249</text>
</g>
<!-- 11&#45;&gt;24 -->
<g id="edge24" class="edge">
<title>11&#45;&gt;24</title>
<path fill="none" stroke="gray" d="M778.8,-642.79C853.45,-634.38 996.73,-615.42 1115,-583 1117.81,-582.23 1120.7,-581.34 1123.57,-580.39"/>
<polygon fill="gray" stroke="gray" points="1124.98,-583.6 1133.23,-576.95 1122.64,-577.01 1124.98,-583.6"/>
</g>
<!-- 35 -->
<g id="node37" class="node">
<title>35</title>
<ellipse fill="none" stroke="black" cx="1107" cy="-34" rx="41.69" ry="18"/>
<text text-anchor="middle" x="1107" y="-30.3" font-family="Times,serif" font-size="14.00">Sin (b)</text>
</g>
<!-- 13&#45;&gt;35 -->
<g id="edge35" class="edge">
<title>13&#45;&gt;35</title>
<path fill="none" stroke="black" stroke-dasharray="1,5" d="M1107,-88.81C1107,-80.79 1107,-71.05 1107,-62.07"/>
<polygon fill="black" stroke="black" points="1110.5,-62.03 1107,-52.03 1103.5,-62.03 1110.5,-62.03"/>
</g>
<!-- 14 -->
<g id="node16" class="node">
<title>14</title>
<ellipse fill="none" stroke="gray" stroke-dasharray="5,2" cx="1124" cy="-326" rx="36" ry="18"/>
<text text-anchor="middle" x="1124" y="-322.3" font-family="Times,serif" font-size="14.00">La2&#45;c</text>
</g>
<!-- 15 -->
<g id="node17" class="node">
<title>15</title>
<ellipse fill="none" stroke="black" cx="516" cy="-399" rx="55.79" ry="18"/>
<text text-anchor="middle" x="516" y="-395.3" font-family="Times,serif" font-size="14.00">V2036 (b)</text>
</g>
<!-- 18 -->
<g id="node20" class="node">
<title>18</title>
<ellipse fill="none" stroke="black" cx="640" cy="-399" rx="50.09" ry="18"/>
<text text-anchor="middle" x="640" y="-395.3" font-family="Times,serif" font-size="14.00">V565 (b)</text>
</g>
<!-- 21 -->
<g id="node23" class="node">
<title>21</title>
<ellipse fill="none" stroke="black" cx="820" cy="-482" rx="44.39" ry="18"/>
<text text-anchor="middle" x="820" y="-478.3" font-family="Times,serif" font-size="14.00">P01 (b)</text>
</g>
<!-- 39 -->
<g id="node41" class="node">
<title>39</title>
<ellipse fill="none" stroke="black" cx="264" cy="-399" rx="53.09" ry="18"/>
<text text-anchor="middle" x="264" y="-395.3" font-family="Times,serif" font-size="14.00">LaSM (b)</text>
</g>
<!-- 21&#45;&gt;39 -->
<g id="edge39" class="edge">
<title>21&#45;&gt;39</title>
<path fill="none" stroke="black" stroke-dasharray="5,2" d="M787.77,-469.51C780.98,-467.41 773.81,-465.44 767,-464 693.1,-448.38 673.11,-454.02 598,-446 477.55,-433.14 446.06,-439.29 327,-417 322.31,-416.12 317.45,-415.07 312.61,-413.93"/>
<polygon fill="black" stroke="black" points="313.31,-410.5 302.76,-411.48 311.63,-417.29 313.31,-410.5"/>
<text text-anchor="middle" x="601.5" y="-438" font-family="Times,serif" font-size="10.00">2</text>
</g>
<!-- 22&#45;&gt;1 -->
<g id="edge2" class="edge">
<title>22&#45;&gt;1</title>
<path fill="none" stroke="black" stroke-dasharray="1,5" d="M1029.1,-552.78C1022.48,-550.71 1015.55,-548.68 1009,-547 955.94,-533.39 820.26,-512.82 767,-500 762.98,-499.03 758.82,-497.97 754.66,-496.86"/>
<polygon fill="black" stroke="black" points="755.57,-493.48 745,-494.21 753.72,-500.23 755.57,-493.48"/>
</g>
<!-- 22&#45;&gt;21 -->
<g id="edge21" class="edge">
<title>22&#45;&gt;21</title>
<path fill="none" stroke="black" stroke-dasharray="5,2" d="M1028.86,-552.91C985.71,-538.47 910.24,-513.2 862.8,-497.33"/>
<polygon fill="black" stroke="black" points="863.72,-493.94 853.13,-494.09 861.5,-500.58 863.72,-493.94"/>
</g>
<!-- 26 -->
<g id="node28" class="node">
<title>26</title>
<ellipse fill="none" stroke="black" cx="932" cy="-482" rx="49.29" ry="18"/>
<text text-anchor="middle" x="932" y="-478.3" font-family="Times,serif" font-size="14.00">La22 (b)</text>
</g>
<!-- 22&#45;&gt;26 -->
<g id="edge26" class="edge">
<title>22&#45;&gt;26</title>
<path fill="none" stroke="black" stroke-dasharray="1,5" d="M1038.76,-549.52C1018.13,-536.66 987.76,-517.74 964.68,-503.36"/>
<polygon fill="black" stroke="black" points="966.26,-500.22 955.92,-497.9 962.56,-506.16 966.26,-500.22"/>
<text text-anchor="middle" x="1007.5" y="-521" font-family="Times,serif" font-size="10.00">2</text>
</g>
<!-- 28 -->
<g id="node30" class="node">
<title>28</title>
<ellipse fill="none" stroke="black" cx="1044" cy="-482" rx="44.39" ry="18"/>
<text text-anchor="middle" x="1044" y="-478.3" font-family="Times,serif" font-size="14.00">S32 (b)</text>
</g>
<!-- 22&#45;&gt;28 -->
<g id="edge28" class="edge">
<title>22&#45;&gt;28</title>
<path fill="none" stroke="black" stroke-dasharray="5,2" d="M1058.18,-546.82C1055.82,-536.19 1052.73,-522.31 1050.05,-510.2"/>
<polygon fill="black" stroke="black" points="1053.4,-509.16 1047.81,-500.15 1046.56,-510.67 1053.4,-509.16"/>
</g>
<!-- 32 -->
<g id="node34" class="node">
<title>32</title>
<ellipse fill="none" stroke="black" cx="1146" cy="-482" rx="40.09" ry="18"/>
<text text-anchor="middle" x="1146" y="-478.3" font-family="Times,serif" font-size="14.00">Pal (b)</text>
</g>
<!-- 22&#45;&gt;32 -->
<g id="edge32" class="edge">
<title>22&#45;&gt;32</title>
<path fill="none" stroke="black" stroke-dasharray="5,2" d="M1078.6,-548C1091.1,-535.94 1108.42,-519.24 1122.37,-505.78"/>
<polygon fill="black" stroke="black" points="1124.96,-508.15 1129.72,-498.69 1120.1,-503.12 1124.96,-508.15"/>
</g>
<!-- 36 -->
<g id="node38" class="node">
<title>36</title>
<ellipse fill="none" stroke="black" cx="1250" cy="-482" rx="45.49" ry="18"/>
<text text-anchor="middle" x="1250" y="-478.3" font-family="Times,serif" font-size="14.00">Nan (b)</text>
</g>
<!-- 22&#45;&gt;36 -->
<g id="edge36" class="edge">
<title>22&#45;&gt;36</title>
<path fill="none" stroke="black" stroke-dasharray="5,2" d="M1091.38,-551.34C1123.47,-537.52 1175.05,-515.29 1210.63,-499.96"/>
<polygon fill="black" stroke="black" points="1212.41,-503.01 1220.21,-495.83 1209.64,-496.58 1212.41,-503.01"/>
<text text-anchor="middle" x="1170.5" y="-521" font-family="Times,serif" font-size="10.00">2</text>
</g>
<!-- 37 -->
<g id="node39" class="node">
<title>37</title>
<ellipse fill="none" stroke="black" cx="1364" cy="-482" rx="50.09" ry="18"/>
<text text-anchor="middle" x="1364" y="-478.3" font-family="Times,serif" font-size="14.00">V566 (b)</text>
</g>
<!-- 22&#45;&gt;37 -->
<g id="edge37" class="edge">
<title>22&#45;&gt;37</title>
<path fill="none" stroke="black" stroke-dasharray="5,2" d="M1095.32,-553.17C1102.14,-551.05 1109.28,-548.89 1116,-547 1198.89,-523.61 1220.78,-522.19 1304,-500 1308.06,-498.92 1312.27,-497.77 1316.49,-496.61"/>
<polygon fill="black" stroke="black" points="1317.59,-499.94 1326.28,-493.88 1315.71,-493.19 1317.59,-499.94"/>
</g>
<!-- 23 -->
<g id="node25" class="node">
<title>23</title>
<ellipse fill="none" stroke="black" cx="1228" cy="-399" rx="55.79" ry="18"/>
<text text-anchor="middle" x="1228" y="-395.3" font-family="Times,serif" font-size="14.00">V1629 (b)</text>
</g>
<!-- 23&#45;&gt;14 -->
<g id="edge14" class="edge">
<title>23&#45;&gt;14</title>
<path fill="none" stroke="gray" stroke-width="2" d="M1205.18,-382.42C1189.84,-371.95 1169.5,-358.06 1153.01,-346.81"/>
<polygon fill="gray" stroke="gray" stroke-width="2" points="1154.54,-343.61 1144.31,-340.86 1150.59,-349.39 1154.54,-343.61"/>
</g>
<!-- 33 -->
<g id="node35" class="node">
<title>33</title>
<ellipse fill="none" stroke="black" cx="1228" cy="-326" rx="50.09" ry="18"/>
<text text-anchor="middle" x="1228" y="-322.3" font-family="Times,serif" font-size="14.00">V568 (b)</text>
</g>
<!-- 23&#45;&gt;33 -->
<g id="edge33" class="edge">
<title>23&#45;&gt;33</title>
<path fill="none" stroke="black" stroke-dasharray="5,2" d="M1228,-380.81C1228,-372.79 1228,-363.05 1228,-354.07"/>
<polygon fill="black" stroke="black" points="1231.5,-354.03 1228,-344.03 1224.5,-354.03 1231.5,-354.03"/>
</g>
<!-- 40 -->
<g id="node42" class="node">
<title>40</title>
<ellipse fill="none" stroke="black" cx="1346" cy="-326" rx="50.09" ry="18"/>
<text text-anchor="middle" x="1346" y="-322.3" font-family="Times,serif" font-size="14.00">V536 (b)</text>
</g>
<!-- 23&#45;&gt;40 -->
<g id="edge40" class="edge">
<title>23&#45;&gt;40</title>
<path fill="none" stroke="black" stroke-dasharray="5,2" d="M1253.31,-382.77C1270.74,-372.29 1294.05,-358.26 1312.94,-346.89"/>
<polygon fill="black" stroke="black" points="1314.77,-349.87 1321.54,-341.72 1311.16,-343.88 1314.77,-349.87"/>
</g>
<!-- 25 -->
<g id="node27" class="node">
<title>25</title>
<ellipse fill="none" stroke="black" cx="758" cy="-399" rx="50.09" ry="18"/>
<text text-anchor="middle" x="758" y="-395.3" font-family="Times,serif" font-size="14.00">V571 (b)</text>
</g>
<!-- 26&#45;&gt;0 -->
<g id="edge1" class="edge">
<title>26&#45;&gt;0</title>
<path fill="none" stroke="black" stroke-dasharray="1,5" d="M896.06,-469.49C888.51,-467.4 880.54,-465.43 873,-464 789.66,-448.19 767.23,-456 683,-446 648.67,-441.92 640.28,-439.44 606,-435 537.22,-426.1 519.08,-430.21 451,-417 446.57,-416.14 441.98,-415.13 437.41,-414.03"/>
<polygon fill="black" stroke="black" points="438.03,-410.58 427.48,-411.53 436.32,-417.37 438.03,-410.58"/>
</g>
<!-- 26&#45;&gt;15 -->
<g id="edge15" class="edge">
<title>26&#45;&gt;15</title>
<path fill="none" stroke="black" stroke-dasharray="5,2" d="M895.67,-469.79C888.21,-467.7 880.39,-465.65 873,-464 744.72,-435.31 709.62,-444.11 581,-417 576.39,-416.03 571.62,-414.94 566.85,-413.8"/>
<polygon fill="black" stroke="black" points="567.67,-410.39 557.12,-411.39 565.99,-417.19 567.67,-410.39"/>
</g>
<!-- 26&#45;&gt;18 -->
<g id="edge18" class="edge">
<title>26&#45;&gt;18</title>
<path fill="none" stroke="black" stroke-dasharray="5,2" d="M911.28,-465.63C903.73,-459.74 895.27,-452.8 888,-446 883.18,-441.48 883.9,-437.97 878,-435 806.59,-399.03 777.51,-432.13 699,-417 694.82,-416.19 690.51,-415.23 686.21,-414.17"/>
<polygon fill="black" stroke="black" points="686.82,-410.71 676.26,-411.56 685.04,-417.48 686.82,-410.71"/>
</g>
<!-- 26&#45;&gt;25 -->
<g id="edge25" class="edge">
<title>26&#45;&gt;25</title>
<path fill="none" stroke="black" stroke-dasharray="1,5" d="M915.46,-464.78C909.57,-458.92 902.93,-452.22 897,-446 892.44,-441.22 892.66,-438.41 887,-435 859.49,-418.42 847.99,-425.45 817,-417 813.23,-415.97 809.33,-414.89 805.42,-413.79"/>
<polygon fill="black" stroke="black" points="806.3,-410.4 795.72,-411.04 804.39,-417.14 806.3,-410.4"/>
</g>
<!-- 27 -->
<g id="node29" class="node">
<title>27</title>
<ellipse fill="none" stroke="black" cx="875" cy="-399" rx="49.29" ry="18"/>
<text text-anchor="middle" x="875" y="-395.3" font-family="Times,serif" font-size="14.00">La35 (b)</text>
</g>
<!-- 26&#45;&gt;27 -->
<g id="edge27" class="edge">
<title>26&#45;&gt;27</title>
<path fill="none" stroke="black" stroke-dasharray="1,5" d="M920.19,-464.22C912.24,-452.92 901.62,-437.83 892.67,-425.11"/>
<polygon fill="black" stroke="black" points="895.41,-422.93 886.8,-416.76 889.69,-426.95 895.41,-422.93"/>
</g>
<!-- 38 -->
<g id="node40" class="node">
<title>38</title>
<ellipse fill="none" stroke="black" cx="992" cy="-399" rx="50.09" ry="18"/>
<text text-anchor="middle" x="992" y="-395.3" font-family="Times,serif" font-size="14.00">A116 (b)</text>
</g>
<!-- 26&#45;&gt;38 -->
<g id="edge38" class="edge">
<title>26&#45;&gt;38</title>
<path fill="none" stroke="black" stroke-dasharray="5,2" d="M944.43,-464.22C952.85,-452.85 964.13,-437.63 973.59,-424.86"/>
<polygon fill="black" stroke="black" points="976.65,-426.6 979.79,-416.48 971.02,-422.44 976.65,-426.6"/>
</g>
<!-- 41 -->
<g id="node43" class="node">
<title>41</title>
<ellipse fill="none" stroke="black" cx="1107" cy="-399" rx="47.39" ry="18"/>
<text text-anchor="middle" x="1107" y="-395.3" font-family="Times,serif" font-size="14.00">Bodl (b)</text>
</g>
<!-- 26&#45;&gt;41 -->
<g id="edge41" class="edge">
<title>26&#45;&gt;41</title>
<path fill="none" stroke="black" stroke-dasharray="5,2" d="M961.29,-467.44C990.87,-453.75 1036.69,-432.54 1069.04,-417.57"/>
<polygon fill="black" stroke="black" points="1070.59,-420.71 1078.2,-413.33 1067.65,-414.36 1070.59,-420.71"/>
</g>
<!-- 31 -->
<g id="node33" class="node">
<title>31</title>
<ellipse fill="none" stroke="black" cx="1358" cy="-399" rx="55.79" ry="18"/>
<text text-anchor="middle" x="1358" y="-395.3" font-family="Times,serif" font-size="14.00">V1639 (b)</text>
</g>
<!-- 33&#45;&gt;6 -->
<g id="edge7" class="edge">
<title>33&#45;&gt;6</title>
<path fill="none" stroke="black" stroke-dasharray="1,5" d="M1228,-307.81C1228,-299.79 1228,-290.05 1228,-281.07"/>
<polygon fill="black" stroke="black" points="1231.5,-281.03 1228,-271.03 1224.5,-281.03 1231.5,-281.03"/>
</g>
<!-- 36&#45;&gt;23 -->
<g id="edge23" class="edge">
<title>36&#45;&gt;23</title>
<path fill="none" stroke="black" d="M1245.33,-463.82C1242.42,-453.08 1238.6,-439.03 1235.29,-426.84"/>
<polygon fill="black" stroke="black" points="1238.66,-425.89 1232.66,-417.15 1231.9,-427.72 1238.66,-425.89"/>
<text text-anchor="middle" x="1243.5" y="-438" font-family="Times,serif" font-size="10.00">5</text>
</g>
<!-- 37&#45;&gt;31 -->
<g id="edge31" class="edge">
<title>37&#45;&gt;31</title>
<path fill="none" stroke="black" stroke-dasharray="1,5" d="M1362.73,-463.82C1361.94,-453.19 1360.91,-439.31 1360.02,-427.2"/>
<polygon fill="black" stroke="black" points="1363.5,-426.87 1359.27,-417.15 1356.52,-427.38 1363.5,-426.87"/>
</g>
<!-- 39&#45;&gt;9 -->
<g id="edge10" class="edge">
<title>39&#45;&gt;9</title>
<path fill="none" stroke="black" stroke-dasharray="5,2" d="M264,-380.81C264,-372.79 264,-363.05 264,-354.07"/>
<polygon fill="black" stroke="black" points="267.5,-354.03 264,-344.03 260.5,-354.03 267.5,-354.03"/>
</g>
</g>
</svg>
