<?xml version="1.0" encoding="UTF-8" standalone="no"?>
<!DOCTYPE svg PUBLIC "-//W3C//DTD SVG 1.1//EN"
 "http://www.w3.org/Graphics/SVG/1.1/DTD/svg11.dtd">
<!-- Generated by graphviz version 2.43.0 (0)
 -->
<!-- Title: textual_flow Pages: 1 -->
<svg width="2492pt" height="536pt"
 viewBox="0.00 0.00 2492.00 536.00" xmlns="http://www.w3.org/2000/svg" xmlns:xlink="http://www.w3.org/1999/xlink">
<g id="graph0" class="graph" transform="scale(1 1) rotate(0) translate(4 532)">
<title>textual_flow</title>
<polygon fill="white" stroke="transparent" points="-4,4 -4,-532 2488,-532 2488,4 -4,4"/>
<g id="clust1" class="cluster">
<title>cluster_legend</title>
<polygon fill="none" stroke="black" points="8,-466 8,-520 164,-520 164,-466 8,-466"/>
</g>
<g id="clust2" class="cluster">
<title>cluster_plot</title>
</g>
<!-- label -->
<g id="node1" class="node">
<title>label</title>
<text text-anchor="middle" x="86" y="-496.8" font-family="Times,serif" font-size="14.00">adstag1.2.40U70</text>
<text text-anchor="middle" x="86" y="-481.8" font-family="Times,serif" font-size="14.00">Con = 3</text>
</g>
<!-- 0 -->
<g id="node2" class="node">
<title>0</title>
<ellipse fill="none" stroke="black" cx="1243" cy="-336" rx="52.79" ry="18"/>
<text text-anchor="middle" x="1243" y="-332.3" font-family="Times,serif" font-size="14.00">M111 (a)</text>
</g>
<!-- 3 -->
<g id="node5" class="node">
<title>3</title>
<ellipse fill="none" stroke="black" cx="1244" cy="-263" rx="50.09" ry="18"/>
<text text-anchor="middle" x="1244" y="-259.3" font-family="Times,serif" font-size="14.00">A336 (a)</text>
</g>
<!-- 0&#45;&gt;3 -->
<g id="edge4" class="edge">
<title>0&#45;&gt;3</title>
<path fill="none" stroke="black" stroke-dasharray="5,2" d="M1243.24,-317.81C1243.36,-309.79 1243.49,-300.05 1243.62,-291.07"/>
<polygon fill="black" stroke="black" points="1247.12,-291.08 1243.76,-281.03 1240.12,-290.98 1247.12,-291.08"/>
</g>
<!-- 1 -->
<g id="node3" class="node">
<title>1</title>
<ellipse fill="none" stroke="black" cx="694" cy="-336" rx="50.09" ry="18"/>
<text text-anchor="middle" x="694" y="-332.3" font-family="Times,serif" font-size="14.00">Patm (a)</text>
</g>
<!-- 2 -->
<g id="node4" class="node">
<title>2</title>
<ellipse fill="none" stroke="black" cx="251" cy="-419" rx="50.09" ry="18"/>
<text text-anchor="middle" x="251" y="-415.3" font-family="Times,serif" font-size="14.00">V560 (a)</text>
</g>
<!-- 12 -->
<g id="node14" class="node">
<title>12</title>
<ellipse fill="none" stroke="black" cx="236" cy="-336" rx="55.79" ry="18"/>
<text text-anchor="middle" x="236" y="-332.3" font-family="Times,serif" font-size="14.00">V1920 (a)</text>
</g>
<!-- 2&#45;&gt;12 -->
<g id="edge12" class="edge">
<title>2&#45;&gt;12</title>
<path fill="none" stroke="black" stroke-dasharray="5,2" d="M247.82,-400.82C245.85,-390.19 243.28,-376.31 241.04,-364.2"/>
<polygon fill="black" stroke="black" points="244.44,-363.35 239.18,-354.15 237.56,-364.62 244.44,-363.35"/>
</g>
<!-- 4 -->
<g id="node6" class="node">
<title>4</title>
<ellipse fill="none" stroke="black" cx="1358" cy="-336" rx="44.39" ry="18"/>
<text text-anchor="middle" x="1358" y="-332.3" font-family="Times,serif" font-size="14.00">P74 (a)</text>
</g>
<!-- 5 -->
<g id="node7" class="node">
<title>5</title>
<ellipse fill="none" stroke="black" cx="351" cy="-336" rx="41.69" ry="18"/>
<text text-anchor="middle" x="351" y="-332.3" font-family="Times,serif" font-size="14.00">Est (a)</text>
</g>
<!-- 6 -->
<g id="node8" class="node">
<title>6</title>
<ellipse fill="none" stroke="black" cx="634" cy="-190" rx="47.39" ry="18"/>
<text text-anchor="middle" x="634" y="-186.3" font-family="Times,serif" font-size="14.00">Taur (b)</text>
</g>
<!-- 8 -->
<g id="node10" class="node">
<title>8</title>
<ellipse fill="none" stroke="black" cx="513" cy="-117" rx="50.09" ry="18"/>
<text text-anchor="middle" x="513" y="-113.3" font-family="Times,serif" font-size="14.00">Marc (b)</text>
</g>
<!-- 6&#45;&gt;8 -->
<g id="edge9" class="edge">
<title>6&#45;&gt;8</title>
<path fill="none" stroke="black" stroke-dasharray="1,5" d="M609.22,-174.46C591.23,-163.91 566.68,-149.5 546.88,-137.88"/>
<polygon fill="black" stroke="black" points="548.56,-134.81 538.16,-132.76 545.01,-140.84 548.56,-134.81"/>
</g>
<!-- 10 -->
<g id="node12" class="node">
<title>10</title>
<ellipse fill="none" stroke="black" cx="634" cy="-117" rx="53.09" ry="18"/>
<text text-anchor="middle" x="634" y="-113.3" font-family="Times,serif" font-size="14.00">M118 (b)</text>
</g>
<!-- 6&#45;&gt;10 -->
<g id="edge11" class="edge">
<title>6&#45;&gt;10</title>
<path fill="none" stroke="black" stroke-dasharray="5,2" d="M634,-171.81C634,-163.79 634,-154.05 634,-145.07"/>
<polygon fill="black" stroke="black" points="637.5,-145.03 634,-135.03 630.5,-145.03 637.5,-145.03"/>
</g>
<!-- 29 -->
<g id="node31" class="node">
<title>29</title>
<ellipse fill="none" stroke="black" cx="755" cy="-117" rx="50.09" ry="18"/>
<text text-anchor="middle" x="755" y="-113.3" font-family="Times,serif" font-size="14.00">V569 (b)</text>
</g>
<!-- 6&#45;&gt;29 -->
<g id="edge29" class="edge">
<title>6&#45;&gt;29</title>
<path fill="none" stroke="black" stroke-dasharray="5,2" d="M658.78,-174.46C676.77,-163.91 701.32,-149.5 721.12,-137.88"/>
<polygon fill="black" stroke="black" points="722.99,-140.84 729.84,-132.76 719.44,-134.81 722.99,-140.84"/>
</g>
<!-- 7 -->
<g id="node9" class="node">
<title>7</title>
<ellipse fill="none" stroke="black" cx="395" cy="-419" rx="55.79" ry="18"/>
<text text-anchor="middle" x="395" y="-415.3" font-family="Times,serif" font-size="14.00">V1897 (a)</text>
</g>
<!-- 7&#45;&gt;5 -->
<g id="edge6" class="edge">
<title>7&#45;&gt;5</title>
<path fill="none" stroke="black" stroke-dasharray="1,5" d="M385.88,-401.22C379.87,-390.14 371.86,-375.41 365.04,-362.85"/>
<polygon fill="black" stroke="black" points="367.95,-360.88 360.11,-353.76 361.8,-364.22 367.95,-360.88"/>
</g>
<!-- 42 -->
<g id="node44" class="node">
<title>42</title>
<ellipse fill="none" stroke="black" cx="453" cy="-336" rx="42.79" ry="18"/>
<text text-anchor="middle" x="453" y="-332.3" font-family="Times,serif" font-size="14.00">Bas (a)</text>
</g>
<!-- 7&#45;&gt;42 -->
<g id="edge42" class="edge">
<title>7&#45;&gt;42</title>
<path fill="none" stroke="black" d="M407.02,-401.22C415.16,-389.85 426.06,-374.63 435.2,-361.86"/>
<polygon fill="black" stroke="black" points="438.22,-363.65 441.2,-353.48 432.53,-359.58 438.22,-363.65"/>
</g>
<!-- 13 -->
<g id="node15" class="node">
<title>13</title>
<ellipse fill="none" stroke="black" cx="432" cy="-34" rx="46.29" ry="18"/>
<text text-anchor="middle" x="432" y="-30.3" font-family="Times,serif" font-size="14.00">Mon (c)</text>
</g>
<!-- 8&#45;&gt;13 -->
<g id="edge13" class="edge">
<title>8&#45;&gt;13</title>
<path fill="none" stroke="blue" stroke-dasharray="1,5" d="M496.61,-99.61C484.78,-87.78 468.65,-71.65 455.46,-58.46"/>
<polygon fill="blue" stroke="blue" points="457.64,-55.69 448.09,-51.09 452.69,-60.64 457.64,-55.69"/>
</g>
<!-- 35 -->
<g id="node37" class="node">
<title>35</title>
<ellipse fill="none" stroke="black" cx="538" cy="-34" rx="41.69" ry="18"/>
<text text-anchor="middle" x="538" y="-30.3" font-family="Times,serif" font-size="14.00">Sin (b)</text>
</g>
<!-- 8&#45;&gt;35 -->
<g id="edge35" class="edge">
<title>8&#45;&gt;35</title>
<path fill="none" stroke="black" stroke-dasharray="1,5" d="M518.3,-98.82C521.64,-88.01 526.01,-73.84 529.79,-61.59"/>
<polygon fill="black" stroke="black" points="533.19,-62.46 532.79,-51.88 526.5,-60.4 533.19,-62.46"/>
<text text-anchor="middle" x="529.5" y="-73" font-family="Times,serif" font-size="10.00">2</text>
</g>
<!-- 9 -->
<g id="node11" class="node">
<title>9</title>
<ellipse fill="none" stroke="black" cx="2424" cy="-336" rx="44.39" ry="18"/>
<text text-anchor="middle" x="2424" y="-332.3" font-family="Times,serif" font-size="14.00">B39 (a)</text>
</g>
<!-- 34 -->
<g id="node36" class="node">
<title>34</title>
<ellipse fill="none" stroke="gray" stroke-dasharray="5,2" cx="634" cy="-34" rx="28.7" ry="18"/>
<text text-anchor="middle" x="634" y="-30.3" font-family="Times,serif" font-size="14.00">P18</text>
</g>
<!-- 10&#45;&gt;34 -->
<g id="edge34" class="edge">
<title>10&#45;&gt;34</title>
<path fill="none" stroke="gray" stroke-dasharray="5,2" d="M634,-98.82C634,-88.19 634,-74.31 634,-62.2"/>
<polygon fill="gray" stroke="gray" points="637.5,-62.15 634,-52.15 630.5,-62.15 637.5,-62.15"/>
</g>
<!-- 11 -->
<g id="node13" class="node">
<title>11</title>
<ellipse fill="none" stroke="black" cx="881" cy="-493" rx="53.89" ry="18"/>
<text text-anchor="middle" x="881" y="-489.3" font-family="Times,serif" font-size="14.00">aBase (a)</text>
</g>
<!-- 11&#45;&gt;2 -->
<g id="edge3" class="edge">
<title>11&#45;&gt;2</title>
<path fill="none" stroke="black" stroke-width="2" d="M828.33,-488.72C729.97,-482.16 511.87,-465.55 330,-437 320.74,-435.55 310.93,-433.69 301.49,-431.75"/>
<polygon fill="black" stroke="black" stroke-width="2" points="301.94,-428.27 291.43,-429.62 300.49,-435.11 301.94,-428.27"/>
</g>
<!-- 11&#45;&gt;7 -->
<g id="edge8" class="edge">
<title>11&#45;&gt;7</title>
<path fill="none" stroke="black" d="M829.47,-487.38C749.77,-479.76 592.03,-462.78 460,-437 455.31,-436.08 450.46,-435.03 445.61,-433.89"/>
<polygon fill="black" stroke="black" points="446.28,-430.45 435.73,-431.49 444.62,-437.26 446.28,-430.45"/>
</g>
<!-- 16 -->
<g id="node18" class="node">
<title>16</title>
<ellipse fill="none" stroke="black" cx="522" cy="-419" rx="52.79" ry="18"/>
<text text-anchor="middle" x="522" y="-415.3" font-family="Times,serif" font-size="14.00">M136 (a)</text>
</g>
<!-- 11&#45;&gt;16 -->
<g id="edge16" class="edge">
<title>11&#45;&gt;16</title>
<path fill="none" stroke="black" stroke-width="2" d="M833.25,-484.54C774.17,-474.99 670.65,-457.26 583,-437 578.9,-436.05 574.67,-435.01 570.43,-433.92"/>
<polygon fill="black" stroke="black" stroke-width="2" points="571.15,-430.49 560.59,-431.31 569.36,-437.26 571.15,-430.49"/>
</g>
<!-- 17 -->
<g id="node19" class="node">
<title>17</title>
<ellipse fill="none" stroke="black" cx="643" cy="-419" rx="50.89" ry="18"/>
<text text-anchor="middle" x="643" y="-415.3" font-family="Times,serif" font-size="14.00">Neap (b)</text>
</g>
<!-- 11&#45;&gt;17 -->
<g id="edge17" class="edge">
<title>11&#45;&gt;17</title>
<path fill="none" stroke="blue" stroke-width="2" d="M842.5,-480.35C800.91,-467.77 734.64,-447.72 690.01,-434.22"/>
<polygon fill="blue" stroke="blue" stroke-width="2" points="690.86,-430.82 680.27,-431.28 688.83,-437.52 690.86,-430.82"/>
</g>
<!-- 19 -->
<g id="node21" class="node">
<title>19</title>
<ellipse fill="none" stroke="black" cx="755" cy="-419" rx="42.79" ry="18"/>
<text text-anchor="middle" x="755" y="-415.3" font-family="Times,serif" font-size="14.00">La2 (a)</text>
</g>
<!-- 11&#45;&gt;19 -->
<g id="edge19" class="edge">
<title>11&#45;&gt;19</title>
<path fill="none" stroke="black" stroke-width="2" d="M854.89,-477.08C835.55,-466.03 809.05,-450.89 788.21,-438.97"/>
<polygon fill="black" stroke="black" stroke-width="2" points="789.78,-435.84 779.36,-433.92 786.31,-441.92 789.78,-435.84"/>
</g>
<!-- 20 -->
<g id="node22" class="node">
<title>20</title>
<ellipse fill="none" stroke="black" cx="881" cy="-419" rx="64.99" ry="18"/>
<text text-anchor="middle" x="881" y="-415.3" font-family="Times,serif" font-size="14.00">Savile&#45;Η (a)</text>
</g>
<!-- 11&#45;&gt;20 -->
<g id="edge20" class="edge">
<title>11&#45;&gt;20</title>
<path fill="none" stroke="black" stroke-width="2" d="M881,-474.94C881,-466.81 881,-456.88 881,-447.7"/>
<polygon fill="black" stroke="black" stroke-width="2" points="884.5,-447.44 881,-437.44 877.5,-447.44 884.5,-447.44"/>
</g>
<!-- 22 -->
<g id="node24" class="node">
<title>22</title>
<ellipse fill="none" stroke="black" cx="1008" cy="-419" rx="44.39" ry="18"/>
<text text-anchor="middle" x="1008" y="-415.3" font-family="Times,serif" font-size="14.00">A25 (a)</text>
</g>
<!-- 11&#45;&gt;22 -->
<g id="edge22" class="edge">
<title>11&#45;&gt;22</title>
<path fill="none" stroke="black" stroke-dasharray="5,2" d="M907.31,-477.08C926.68,-466.1 953.17,-451.08 974.12,-439.21"/>
<polygon fill="black" stroke="black" points="976.04,-442.14 983.02,-434.16 972.59,-436.05 976.04,-442.14"/>
</g>
<!-- 24 -->
<g id="node26" class="node">
<title>24</title>
<ellipse fill="none" stroke="gray" stroke-dasharray="5,2" cx="1105" cy="-419" rx="34.39" ry="18"/>
<text text-anchor="middle" x="1105" y="-415.3" font-family="Times,serif" font-size="14.00">S249</text>
</g>
<!-- 11&#45;&gt;24 -->
<g id="edge24" class="edge">
<title>11&#45;&gt;24</title>
<path fill="none" stroke="gray" d="M920.95,-480.69C957.6,-470.1 1013.28,-453.48 1061,-437 1063.68,-436.07 1066.45,-435.08 1069.22,-434.07"/>
<polygon fill="gray" stroke="gray" points="1070.45,-437.35 1078.59,-430.56 1068,-430.79 1070.45,-437.35"/>
</g>
<!-- 26 -->
<g id="node28" class="node">
<title>26</title>
<ellipse fill="none" stroke="black" cx="1600" cy="-419" rx="48.99" ry="18"/>
<text text-anchor="middle" x="1600" y="-415.3" font-family="Times,serif" font-size="14.00">La22 (a)</text>
</g>
<!-- 11&#45;&gt;26 -->
<g id="edge26" class="edge">
<title>11&#45;&gt;26</title>
<path fill="none" stroke="black" stroke-dasharray="5,2" d="M931.85,-486.91C1061.99,-473.88 1406.51,-439.38 1543.08,-425.7"/>
<polygon fill="black" stroke="black" points="1543.72,-429.15 1553.32,-424.67 1543.02,-422.19 1543.72,-429.15"/>
</g>
<!-- 36 -->
<g id="node38" class="node">
<title>36</title>
<ellipse fill="none" stroke="black" cx="2188" cy="-419" rx="44.69" ry="18"/>
<text text-anchor="middle" x="2188" y="-415.3" font-family="Times,serif" font-size="14.00">Nan (a)</text>
</g>
<!-- 11&#45;&gt;36 -->
<g id="edge36" class="edge">
<title>11&#45;&gt;36</title>
<path fill="none" stroke="black" d="M933.85,-489.09C1144.24,-477.5 1921.06,-434.71 2133.82,-422.98"/>
<polygon fill="black" stroke="black" points="2134.02,-426.48 2143.81,-422.43 2133.63,-419.49 2134.02,-426.48"/>
</g>
<!-- 39 -->
<g id="node41" class="node">
<title>39</title>
<ellipse fill="none" stroke="black" cx="2314" cy="-419" rx="52.79" ry="18"/>
<text text-anchor="middle" x="2314" y="-415.3" font-family="Times,serif" font-size="14.00">LaSM (a)</text>
</g>
<!-- 11&#45;&gt;39 -->
<g id="edge39" class="edge">
<title>11&#45;&gt;39</title>
<path fill="none" stroke="black" d="M934.73,-491.2C1154.11,-487.74 1982.67,-472.52 2242,-437 2249.26,-436.01 2256.86,-434.61 2264.29,-433.04"/>
<polygon fill="black" stroke="black" points="2265.27,-436.41 2274.27,-430.82 2263.75,-429.58 2265.27,-436.41"/>
</g>
<!-- 14 -->
<g id="node16" class="node">
<title>14</title>
<ellipse fill="none" stroke="gray" stroke-dasharray="5,2" cx="530" cy="-263" rx="36" ry="18"/>
<text text-anchor="middle" x="530" y="-259.3" font-family="Times,serif" font-size="14.00">La2&#45;c</text>
</g>
<!-- 15 -->
<g id="node17" class="node">
<title>15</title>
<ellipse fill="none" stroke="black" cx="1476" cy="-336" rx="55.79" ry="18"/>
<text text-anchor="middle" x="1476" y="-332.3" font-family="Times,serif" font-size="14.00">V2036 (a)</text>
</g>
<!-- 23 -->
<g id="node25" class="node">
<title>23</title>
<ellipse fill="none" stroke="black" cx="570" cy="-336" rx="55.79" ry="18"/>
<text text-anchor="middle" x="570" y="-332.3" font-family="Times,serif" font-size="14.00">V1629 (b)</text>
</g>
<!-- 17&#45;&gt;23 -->
<g id="edge23" class="edge">
<title>17&#45;&gt;23</title>
<path fill="none" stroke="black" stroke-dasharray="1,5" d="M628.23,-401.61C617.74,-389.97 603.49,-374.16 591.71,-361.09"/>
<polygon fill="black" stroke="black" points="594.05,-358.45 584.75,-353.37 588.85,-363.14 594.05,-358.45"/>
</g>
<!-- 18 -->
<g id="node20" class="node">
<title>18</title>
<ellipse fill="none" stroke="black" cx="1600" cy="-336" rx="50.09" ry="18"/>
<text text-anchor="middle" x="1600" y="-332.3" font-family="Times,serif" font-size="14.00">V565 (a)</text>
</g>
<!-- 21 -->
<g id="node23" class="node">
<title>21</title>
<ellipse fill="none" stroke="black" cx="806" cy="-336" rx="44.39" ry="18"/>
<text text-anchor="middle" x="806" y="-332.3" font-family="Times,serif" font-size="14.00">P01 (a)</text>
</g>
<!-- 22&#45;&gt;1 -->
<g id="edge2" class="edge">
<title>22&#45;&gt;1</title>
<path fill="none" stroke="black" stroke-dasharray="1,5" d="M975.05,-406.97C968.44,-404.89 961.52,-402.8 955,-401 866.15,-376.46 842.21,-377.21 753,-354 749.16,-353 745.2,-351.93 741.22,-350.84"/>
<polygon fill="black" stroke="black" points="741.95,-347.41 731.37,-348.09 740.06,-354.15 741.95,-347.41"/>
</g>
<!-- 22&#45;&gt;21 -->
<g id="edge21" class="edge">
<title>22&#45;&gt;21</title>
<path fill="none" stroke="black" stroke-dasharray="5,2" d="M977.76,-405.87C942.65,-391.8 884.63,-368.53 845.86,-352.98"/>
<polygon fill="black" stroke="black" points="847.03,-349.68 836.45,-349.21 844.43,-356.18 847.03,-349.68"/>
</g>
<!-- 28 -->
<g id="node30" class="node">
<title>28</title>
<ellipse fill="none" stroke="black" cx="912" cy="-336" rx="44.39" ry="18"/>
<text text-anchor="middle" x="912" y="-332.3" font-family="Times,serif" font-size="14.00">S32 (a)</text>
</g>
<!-- 22&#45;&gt;28 -->
<g id="edge28" class="edge">
<title>22&#45;&gt;28</title>
<path fill="none" stroke="black" stroke-dasharray="5,2" d="M989.49,-402.38C975.01,-390.17 954.7,-373.02 938.5,-359.36"/>
<polygon fill="black" stroke="black" points="940.35,-356.34 930.45,-352.57 935.84,-361.69 940.35,-356.34"/>
</g>
<!-- 32 -->
<g id="node34" class="node">
<title>32</title>
<ellipse fill="none" stroke="black" cx="1014" cy="-336" rx="40.09" ry="18"/>
<text text-anchor="middle" x="1014" y="-332.3" font-family="Times,serif" font-size="14.00">Pal (a)</text>
</g>
<!-- 22&#45;&gt;32 -->
<g id="edge32" class="edge">
<title>22&#45;&gt;32</title>
<path fill="none" stroke="black" stroke-dasharray="5,2" d="M1009.27,-400.82C1010.06,-390.19 1011.09,-376.31 1011.98,-364.2"/>
<polygon fill="black" stroke="black" points="1015.48,-364.38 1012.73,-354.15 1008.5,-363.87 1015.48,-364.38"/>
</g>
<!-- 37 -->
<g id="node39" class="node">
<title>37</title>
<ellipse fill="none" stroke="black" cx="1122" cy="-336" rx="50.09" ry="18"/>
<text text-anchor="middle" x="1122" y="-332.3" font-family="Times,serif" font-size="14.00">V566 (a)</text>
</g>
<!-- 22&#45;&gt;37 -->
<g id="edge37" class="edge">
<title>22&#45;&gt;37</title>
<path fill="none" stroke="black" stroke-dasharray="5,2" d="M1029.18,-402.95C1046.79,-390.44 1072.07,-372.47 1091.81,-358.45"/>
<polygon fill="black" stroke="black" points="1094.04,-361.16 1100.16,-352.52 1089.98,-355.46 1094.04,-361.16"/>
</g>
<!-- 23&#45;&gt;14 -->
<g id="edge14" class="edge">
<title>23&#45;&gt;14</title>
<path fill="none" stroke="gray" stroke-width="2" d="M560.52,-318.17C555.69,-309.6 549.71,-298.99 544.33,-289.44"/>
<polygon fill="gray" stroke="gray" stroke-width="2" points="547.37,-287.7 539.41,-280.71 541.27,-291.14 547.37,-287.7"/>
</g>
<!-- 33 -->
<g id="node35" class="node">
<title>33</title>
<ellipse fill="none" stroke="black" cx="634" cy="-263" rx="50.09" ry="18"/>
<text text-anchor="middle" x="634" y="-259.3" font-family="Times,serif" font-size="14.00">V568 (b)</text>
</g>
<!-- 23&#45;&gt;33 -->
<g id="edge33" class="edge">
<title>23&#45;&gt;33</title>
<path fill="none" stroke="black" stroke-dasharray="5,2" d="M584.84,-318.53C593,-309.48 603.27,-298.09 612.31,-288.06"/>
<polygon fill="black" stroke="black" points="615.14,-290.15 619.24,-280.38 609.94,-285.46 615.14,-290.15"/>
</g>
<!-- 25 -->
<g id="node27" class="node">
<title>25</title>
<ellipse fill="none" stroke="black" cx="1718" cy="-336" rx="50.09" ry="18"/>
<text text-anchor="middle" x="1718" y="-332.3" font-family="Times,serif" font-size="14.00">V571 (a)</text>
</g>
<!-- 26&#45;&gt;0 -->
<g id="edge1" class="edge">
<title>26&#45;&gt;0</title>
<path fill="none" stroke="black" stroke-dasharray="1,5" d="M1557.82,-409.6C1500.42,-397.99 1394.58,-375.98 1305,-354 1300.85,-352.98 1296.56,-351.89 1292.26,-350.77"/>
<polygon fill="black" stroke="black" points="1292.84,-347.3 1282.27,-348.11 1291.04,-354.06 1292.84,-347.3"/>
</g>
<!-- 26&#45;&gt;4 -->
<g id="edge5" class="edge">
<title>26&#45;&gt;4</title>
<path fill="none" stroke="black" stroke-dasharray="1,5" d="M1565.07,-406.31C1521.57,-391.75 1447.29,-366.89 1400.52,-351.23"/>
<polygon fill="black" stroke="black" points="1401.57,-347.89 1390.98,-348.04 1399.35,-354.53 1401.57,-347.89"/>
</g>
<!-- 26&#45;&gt;15 -->
<g id="edge15" class="edge">
<title>26&#45;&gt;15</title>
<path fill="none" stroke="black" stroke-dasharray="5,2" d="M1576.97,-402.95C1557.64,-390.33 1529.81,-372.15 1508.26,-358.08"/>
<polygon fill="black" stroke="black" points="1510.04,-355.06 1499.75,-352.52 1506.21,-360.92 1510.04,-355.06"/>
</g>
<!-- 26&#45;&gt;18 -->
<g id="edge18" class="edge">
<title>26&#45;&gt;18</title>
<path fill="none" stroke="black" stroke-dasharray="5,2" d="M1600,-400.82C1600,-390.19 1600,-376.31 1600,-364.2"/>
<polygon fill="black" stroke="black" points="1603.5,-364.15 1600,-354.15 1596.5,-364.15 1603.5,-364.15"/>
</g>
<!-- 26&#45;&gt;25 -->
<g id="edge25" class="edge">
<title>26&#45;&gt;25</title>
<path fill="none" stroke="black" stroke-dasharray="1,5" d="M1622.19,-402.76C1640.65,-390.09 1667.12,-371.93 1687.56,-357.9"/>
<polygon fill="black" stroke="black" points="1689.64,-360.71 1695.9,-352.17 1685.68,-354.94 1689.64,-360.71"/>
</g>
<!-- 27 -->
<g id="node29" class="node">
<title>27</title>
<ellipse fill="none" stroke="black" cx="1835" cy="-336" rx="48.99" ry="18"/>
<text text-anchor="middle" x="1835" y="-332.3" font-family="Times,serif" font-size="14.00">La35 (a)</text>
</g>
<!-- 26&#45;&gt;27 -->
<g id="edge27" class="edge">
<title>26&#45;&gt;27</title>
<path fill="none" stroke="black" stroke-dasharray="1,5" d="M1634.42,-406.14C1675.87,-391.85 1745.57,-367.83 1790.92,-352.19"/>
<polygon fill="black" stroke="black" points="1792.17,-355.46 1800.49,-348.9 1789.89,-348.85 1792.17,-355.46"/>
</g>
<!-- 38 -->
<g id="node40" class="node">
<title>38</title>
<ellipse fill="none" stroke="black" cx="1952" cy="-336" rx="50.09" ry="18"/>
<text text-anchor="middle" x="1952" y="-332.3" font-family="Times,serif" font-size="14.00">A116 (a)</text>
</g>
<!-- 26&#45;&gt;38 -->
<g id="edge38" class="edge">
<title>26&#45;&gt;38</title>
<path fill="none" stroke="black" stroke-dasharray="5,2" d="M1641.93,-409.74C1698.99,-398.3 1804.16,-376.48 1893,-354 1896.84,-353.03 1900.81,-351.98 1904.8,-350.9"/>
<polygon fill="black" stroke="black" points="1905.95,-354.21 1914.65,-348.16 1904.07,-347.47 1905.95,-354.21"/>
</g>
<!-- 41 -->
<g id="node43" class="node">
<title>41</title>
<ellipse fill="none" stroke="black" cx="2067" cy="-336" rx="46.59" ry="18"/>
<text text-anchor="middle" x="2067" y="-332.3" font-family="Times,serif" font-size="14.00">Bodl (a)</text>
</g>
<!-- 26&#45;&gt;41 -->
<g id="edge41" class="edge">
<title>26&#45;&gt;41</title>
<path fill="none" stroke="black" stroke-dasharray="5,2" d="M1646.01,-412.97C1722.43,-404.15 1880.06,-383.92 2011,-354 2014.85,-353.12 2018.81,-352.12 2022.78,-351.05"/>
<polygon fill="black" stroke="black" points="2023.88,-354.37 2032.55,-348.29 2021.98,-347.64 2023.88,-354.37"/>
</g>
<!-- 30 -->
<g id="node32" class="node">
<title>30</title>
<ellipse fill="none" stroke="black" cx="2188" cy="-336" rx="55.79" ry="18"/>
<text text-anchor="middle" x="2188" y="-332.3" font-family="Times,serif" font-size="14.00">V2250 (a)</text>
</g>
<!-- 31 -->
<g id="node33" class="node">
<title>31</title>
<ellipse fill="none" stroke="black" cx="1120" cy="-263" rx="55.79" ry="18"/>
<text text-anchor="middle" x="1120" y="-259.3" font-family="Times,serif" font-size="14.00">V1639 (a)</text>
</g>
<!-- 33&#45;&gt;6 -->
<g id="edge7" class="edge">
<title>33&#45;&gt;6</title>
<path fill="none" stroke="black" stroke-dasharray="1,5" d="M634,-244.81C634,-236.79 634,-227.05 634,-218.07"/>
<polygon fill="black" stroke="black" points="637.5,-218.03 634,-208.03 630.5,-218.03 637.5,-218.03"/>
</g>
<!-- 36&#45;&gt;30 -->
<g id="edge30" class="edge">
<title>36&#45;&gt;30</title>
<path fill="none" stroke="black" stroke-dasharray="5,2" d="M2188,-400.82C2188,-390.19 2188,-376.31 2188,-364.2"/>
<polygon fill="black" stroke="black" points="2191.5,-364.15 2188,-354.15 2184.5,-364.15 2191.5,-364.15"/>
</g>
<!-- 40 -->
<g id="node42" class="node">
<title>40</title>
<ellipse fill="none" stroke="black" cx="2312" cy="-336" rx="50.09" ry="18"/>
<text text-anchor="middle" x="2312" y="-332.3" font-family="Times,serif" font-size="14.00">V536 (a)</text>
</g>
<!-- 36&#45;&gt;40 -->
<g id="edge40" class="edge">
<title>36&#45;&gt;40</title>
<path fill="none" stroke="black" stroke-width="2" d="M2210.46,-403.33C2229.96,-390.59 2258.43,-371.99 2280.26,-357.73"/>
<polygon fill="black" stroke="black" stroke-width="2" points="2282.41,-360.51 2288.87,-352.11 2278.58,-354.65 2282.41,-360.51"/>
<text text-anchor="middle" x="2260.5" y="-375" font-family="Times,serif" font-size="10.00">3</text>
</g>
<!-- 37&#45;&gt;31 -->
<g id="edge31" class="edge">
<title>37&#45;&gt;31</title>
<path fill="none" stroke="black" stroke-dasharray="1,5" d="M1121.52,-317.81C1121.29,-309.79 1121.02,-300.05 1120.76,-291.07"/>
<polygon fill="black" stroke="black" points="1124.26,-290.93 1120.48,-281.03 1117.26,-291.12 1124.26,-290.93"/>
</g>
<!-- 39&#45;&gt;9 -->
<g id="edge10" class="edge">
<title>39&#45;&gt;9</title>
<path fill="none" stroke="black" stroke-dasharray="5,2" d="M2335.21,-402.38C2352.32,-389.78 2376.55,-371.94 2395.37,-358.08"/>
<polygon fill="black" stroke="black" points="2397.62,-360.77 2403.6,-352.02 2393.47,-355.13 2397.62,-360.77"/>
</g>
</g>
</svg>
