<?xml version="1.0" encoding="UTF-8" standalone="no"?>
<!DOCTYPE svg PUBLIC "-//W3C//DTD SVG 1.1//EN"
 "http://www.w3.org/Graphics/SVG/1.1/DTD/svg11.dtd">
<!-- Generated by graphviz version 2.43.0 (0)
 -->
<!-- Title: textual_flow Pages: 1 -->
<svg width="2235pt" height="556pt"
 viewBox="0.00 0.00 2235.00 556.00" xmlns="http://www.w3.org/2000/svg" xmlns:xlink="http://www.w3.org/1999/xlink">
<g id="graph0" class="graph" transform="scale(1 1) rotate(0) translate(4 552)">
<title>textual_flow</title>
<polygon fill="white" stroke="transparent" points="-4,4 -4,-552 2231,-552 2231,4 -4,4"/>
<g id="clust1" class="cluster">
<title>cluster_legend</title>
<polygon fill="none" stroke="black" points="8,-486 8,-540 178,-540 178,-486 8,-486"/>
</g>
<g id="clust2" class="cluster">
<title>cluster_plot</title>
</g>
<!-- label -->
<g id="node1" class="node">
<title>label</title>
<text text-anchor="middle" x="93" y="-516.8" font-family="Times,serif" font-size="14.00">adstag1.1.5U12&#45;14</text>
<text text-anchor="middle" x="93" y="-501.8" font-family="Times,serif" font-size="14.00">Con = 10</text>
</g>
<!-- 0 -->
<g id="node2" class="node">
<title>0</title>
<ellipse fill="none" stroke="black" cx="295" cy="-190" rx="50.09" ry="18"/>
<text text-anchor="middle" x="295" y="-186.3" font-family="Times,serif" font-size="14.00">V568 (e)</text>
</g>
<!-- 16 -->
<g id="node18" class="node">
<title>16</title>
<ellipse fill="none" stroke="black" cx="239" cy="-107" rx="40.89" ry="18"/>
<text text-anchor="middle" x="239" y="-103.3" font-family="Times,serif" font-size="14.00">Sin (e)</text>
</g>
<!-- 0&#45;&gt;16 -->
<g id="edge17" class="edge">
<title>0&#45;&gt;16</title>
<path fill="none" stroke="black" stroke-dasharray="1,5" d="M283.4,-172.22C275.54,-160.85 265.01,-145.63 256.18,-132.86"/>
<polygon fill="black" stroke="black" points="258.96,-130.72 250.4,-124.48 253.2,-134.7 258.96,-130.72"/>
<text text-anchor="middle" x="273.5" y="-146" font-family="Times,serif" font-size="10.00">2</text>
</g>
<!-- 37 -->
<g id="node39" class="node">
<title>37</title>
<ellipse fill="none" stroke="black" cx="348" cy="-107" rx="50.09" ry="18"/>
<text text-anchor="middle" x="348" y="-103.3" font-family="Times,serif" font-size="14.00">V569 (e)</text>
</g>
<!-- 0&#45;&gt;37 -->
<g id="edge37" class="edge">
<title>0&#45;&gt;37</title>
<path fill="none" stroke="black" stroke-dasharray="5,2" d="M305.98,-172.22C313.3,-161.03 323.06,-146.12 331.33,-133.48"/>
<polygon fill="black" stroke="black" points="334.49,-135.05 337.03,-124.76 328.63,-131.21 334.49,-135.05"/>
<text text-anchor="middle" x="327.5" y="-146" font-family="Times,serif" font-size="10.00">2</text>
</g>
<!-- 40 -->
<g id="node42" class="node">
<title>40</title>
<ellipse fill="none" stroke="black" cx="460" cy="-107" rx="44.39" ry="18"/>
<text text-anchor="middle" x="460" y="-103.3" font-family="Times,serif" font-size="14.00">P18 (e)</text>
</g>
<!-- 0&#45;&gt;40 -->
<g id="edge40" class="edge">
<title>0&#45;&gt;40</title>
<path fill="none" stroke="black" stroke-dasharray="5,2" d="M323.36,-175.08C351.05,-161.48 393.3,-140.74 423.48,-125.93"/>
<polygon fill="black" stroke="black" points="425.39,-128.89 432.83,-121.34 422.31,-122.6 425.39,-128.89"/>
<text text-anchor="middle" x="390.5" y="-146" font-family="Times,serif" font-size="10.00">2</text>
</g>
<!-- 1 -->
<g id="node3" class="node">
<title>1</title>
<ellipse fill="none" stroke="gray" stroke-dasharray="5,2" cx="909" cy="-190" rx="50.09" ry="18"/>
<text text-anchor="middle" x="909" y="-186.3" font-family="Times,serif" font-size="14.00">Savile&#45;Η</text>
</g>
<!-- 2 -->
<g id="node4" class="node">
<title>2</title>
<ellipse fill="none" stroke="gray" stroke-dasharray="5,2" cx="1494" cy="-346" rx="42.49" ry="18"/>
<text text-anchor="middle" x="1494" y="-342.3" font-family="Times,serif" font-size="14.00">Marc&#45;c</text>
</g>
<!-- 3 -->
<g id="node5" class="node">
<title>3</title>
<ellipse fill="none" stroke="gray" stroke-dasharray="5,2" cx="460" cy="-263" rx="40.09" ry="18"/>
<text text-anchor="middle" x="460" y="-259.3" font-family="Times,serif" font-size="14.00">V2036</text>
</g>
<!-- 4 -->
<g id="node6" class="node">
<title>4</title>
<ellipse fill="none" stroke="gray" stroke-dasharray="5,2" cx="239" cy="-346" rx="45.49" ry="18"/>
<text text-anchor="middle" x="239" y="-342.3" font-family="Times,serif" font-size="14.00">LaSM&#45;c</text>
</g>
<!-- 5 -->
<g id="node7" class="node">
<title>5</title>
<ellipse fill="none" stroke="black" cx="482" cy="-346" rx="50.09" ry="18"/>
<text text-anchor="middle" x="482" y="-342.3" font-family="Times,serif" font-size="14.00">Patm (b)</text>
</g>
<!-- 5&#45;&gt;3 -->
<g id="edge4" class="edge">
<title>5&#45;&gt;3</title>
<path fill="none" stroke="gray" stroke-dasharray="1,5" d="M477.33,-327.82C474.42,-317.08 470.6,-303.03 467.29,-290.84"/>
<polygon fill="gray" stroke="gray" points="470.66,-289.89 464.66,-281.15 463.9,-291.72 470.66,-289.89"/>
</g>
<!-- 6 -->
<g id="node8" class="node">
<title>6</title>
<ellipse fill="none" stroke="black" cx="568" cy="-263" rx="49.29" ry="18"/>
<text text-anchor="middle" x="568" y="-259.3" font-family="Times,serif" font-size="14.00">La35 (b)</text>
</g>
<!-- 7 -->
<g id="node9" class="node">
<title>7</title>
<ellipse fill="none" stroke="black" cx="594" cy="-346" rx="44.39" ry="18"/>
<text text-anchor="middle" x="594" y="-342.3" font-family="Times,serif" font-size="14.00">S32 (b)</text>
</g>
<!-- 8 -->
<g id="node10" class="node">
<title>8</title>
<ellipse fill="none" stroke="black" cx="1950" cy="-346" rx="55.79" ry="18"/>
<text text-anchor="middle" x="1950" y="-342.3" font-family="Times,serif" font-size="14.00">V2250 (a)</text>
</g>
<!-- 9 -->
<g id="node11" class="node">
<title>9</title>
<ellipse fill="none" stroke="black" cx="709" cy="-346" rx="53.09" ry="18"/>
<text text-anchor="middle" x="709" y="-342.3" font-family="Times,serif" font-size="14.00">M111 (b)</text>
</g>
<!-- 9&#45;&gt;6 -->
<g id="edge7" class="edge">
<title>9&#45;&gt;6</title>
<path fill="none" stroke="black" stroke-dasharray="1,5" d="M683.14,-330.14C660.34,-317.05 626.96,-297.87 602,-283.53"/>
<polygon fill="black" stroke="black" points="603.64,-280.44 593.22,-278.49 600.15,-286.51 603.64,-280.44"/>
<text text-anchor="middle" x="649.5" y="-302" font-family="Times,serif" font-size="10.00">2</text>
</g>
<!-- 29 -->
<g id="node31" class="node">
<title>29</title>
<ellipse fill="none" stroke="black" cx="685" cy="-263" rx="50.09" ry="18"/>
<text text-anchor="middle" x="685" y="-259.3" font-family="Times,serif" font-size="14.00">A336 (b)</text>
</g>
<!-- 9&#45;&gt;29 -->
<g id="edge30" class="edge">
<title>9&#45;&gt;29</title>
<path fill="none" stroke="black" stroke-dasharray="5,2" d="M703.91,-327.82C700.73,-317.08 696.56,-303.03 692.95,-290.84"/>
<polygon fill="black" stroke="black" points="696.28,-289.75 690.08,-281.15 689.57,-291.74 696.28,-289.75"/>
</g>
<!-- 10 -->
<g id="node12" class="node">
<title>10</title>
<ellipse fill="none" stroke="black" cx="262" cy="-263" rx="50.09" ry="18"/>
<text text-anchor="middle" x="262" y="-259.3" font-family="Times,serif" font-size="14.00">V536 (e)</text>
</g>
<!-- 10&#45;&gt;0 -->
<g id="edge1" class="edge">
<title>10&#45;&gt;0</title>
<path fill="none" stroke="black" stroke-dasharray="1,5" d="M269.82,-245.17C273.67,-236.9 278.4,-226.72 282.71,-217.44"/>
<polygon fill="black" stroke="black" points="285.97,-218.74 287.01,-208.2 279.62,-215.79 285.97,-218.74"/>
</g>
<!-- 11 -->
<g id="node13" class="node">
<title>11</title>
<ellipse fill="none" stroke="black" cx="571" cy="-429" rx="42.79" ry="18"/>
<text text-anchor="middle" x="571" y="-425.3" font-family="Times,serif" font-size="14.00">La2 (a)</text>
</g>
<!-- 12 -->
<g id="node14" class="node">
<title>12</title>
<ellipse fill="none" stroke="black" cx="802" cy="-263" rx="49.29" ry="18"/>
<text text-anchor="middle" x="802" y="-259.3" font-family="Times,serif" font-size="14.00">A116 (c)</text>
</g>
<!-- 13 -->
<g id="node15" class="node">
<title>13</title>
<ellipse fill="none" stroke="black" cx="828" cy="-346" rx="48.19" ry="18"/>
<text text-anchor="middle" x="828" y="-342.3" font-family="Times,serif" font-size="14.00">La22 (c)</text>
</g>
<!-- 13&#45;&gt;12 -->
<g id="edge13" class="edge">
<title>13&#45;&gt;12</title>
<path fill="none" stroke="black" stroke-dasharray="5,2" d="M822.49,-327.82C819.04,-317.08 814.53,-303.03 810.61,-290.84"/>
<polygon fill="black" stroke="black" points="813.89,-289.61 807.51,-281.15 807.23,-291.74 813.89,-289.61"/>
</g>
<!-- 14 -->
<g id="node16" class="node">
<title>14</title>
<ellipse fill="none" stroke="black" cx="909" cy="-263" rx="39.79" ry="18"/>
<text text-anchor="middle" x="909" y="-259.3" font-family="Times,serif" font-size="14.00">Pal (c)</text>
</g>
<!-- 13&#45;&gt;14 -->
<g id="edge15" class="edge">
<title>13&#45;&gt;14</title>
<path fill="none" stroke="black" stroke-dasharray="5,2" d="M844,-329C856.06,-316.94 872.76,-300.24 886.22,-286.78"/>
<polygon fill="black" stroke="black" points="888.71,-289.24 893.31,-279.69 883.76,-284.29 888.71,-289.24"/>
<text text-anchor="middle" x="876.5" y="-302" font-family="Times,serif" font-size="10.00">3</text>
</g>
<!-- 15 -->
<g id="node17" class="node">
<title>15</title>
<ellipse fill="none" stroke="black" cx="1016" cy="-263" rx="49.29" ry="18"/>
<text text-anchor="middle" x="1016" y="-259.3" font-family="Times,serif" font-size="14.00">V571 (c)</text>
</g>
<!-- 13&#45;&gt;15 -->
<g id="edge16" class="edge">
<title>13&#45;&gt;15</title>
<path fill="none" stroke="black" stroke-dasharray="1,5" d="M858.21,-331.99C890.08,-318.25 940.5,-296.53 975.74,-281.35"/>
<polygon fill="black" stroke="black" points="977.45,-284.42 985.24,-277.25 974.68,-277.99 977.45,-284.42"/>
</g>
<!-- 36 -->
<g id="node38" class="node">
<title>36</title>
<ellipse fill="none" stroke="black" cx="1127" cy="-263" rx="43.59" ry="18"/>
<text text-anchor="middle" x="1127" y="-259.3" font-family="Times,serif" font-size="14.00">P74 (c)</text>
</g>
<!-- 13&#45;&gt;36 -->
<g id="edge36" class="edge">
<title>13&#45;&gt;36</title>
<path fill="none" stroke="black" stroke-dasharray="1,5" d="M864.45,-334.08C871.58,-332.01 879.01,-329.9 886,-328 969.12,-305.44 991.17,-304.61 1074,-281 1077.35,-280.04 1080.82,-279.02 1084.29,-277.96"/>
<polygon fill="black" stroke="black" points="1085.51,-281.25 1094.02,-274.95 1083.43,-274.57 1085.51,-281.25"/>
</g>
<!-- 41 -->
<g id="node43" class="node">
<title>41</title>
<ellipse fill="none" stroke="black" cx="1235" cy="-263" rx="46.29" ry="18"/>
<text text-anchor="middle" x="1235" y="-259.3" font-family="Times,serif" font-size="14.00">Bodl (c)</text>
</g>
<!-- 13&#45;&gt;41 -->
<g id="edge41" class="edge">
<title>13&#45;&gt;41</title>
<path fill="none" stroke="black" stroke-dasharray="5,2" d="M863.7,-333.77C871.03,-331.68 878.73,-329.64 886,-328 1015.08,-298.89 1051.13,-311.06 1180,-281 1183.67,-280.14 1187.45,-279.17 1191.24,-278.13"/>
<polygon fill="black" stroke="black" points="1192.53,-281.4 1201.17,-275.28 1190.59,-274.68 1192.53,-281.4"/>
</g>
<!-- 45 -->
<g id="node47" class="node">
<title>45</title>
<ellipse fill="none" stroke="black" cx="1354" cy="-263" rx="55.49" ry="18"/>
<text text-anchor="middle" x="1354" y="-259.3" font-family="Times,serif" font-size="14.00">V1639 (c)</text>
</g>
<!-- 13&#45;&gt;45 -->
<g id="edge45" class="edge">
<title>13&#45;&gt;45</title>
<path fill="none" stroke="black" stroke-dasharray="5,2" d="M863.34,-333.61C870.77,-331.51 878.6,-329.5 886,-328 897.07,-325.75 1278.9,-283.11 1290,-281 1294.63,-280.12 1299.41,-279.09 1304.19,-277.97"/>
<polygon fill="black" stroke="black" points="1305.04,-281.37 1313.92,-275.59 1303.37,-274.57 1305.04,-281.37"/>
<text text-anchor="middle" x="1137.5" y="-302" font-family="Times,serif" font-size="10.00">6</text>
</g>
<!-- 14&#45;&gt;1 -->
<g id="edge2" class="edge">
<title>14&#45;&gt;1</title>
<path fill="none" stroke="gray" d="M909,-244.81C909,-236.79 909,-227.05 909,-218.07"/>
<polygon fill="gray" stroke="gray" points="912.5,-218.03 909,-208.03 905.5,-218.03 912.5,-218.03"/>
</g>
<!-- 31 -->
<g id="node33" class="node">
<title>31</title>
<ellipse fill="none" stroke="black" cx="244" cy="-34" rx="50.09" ry="18"/>
<text text-anchor="middle" x="244" y="-30.3" font-family="Times,serif" font-size="14.00">Marc (e)</text>
</g>
<!-- 16&#45;&gt;31 -->
<g id="edge32" class="edge">
<title>16&#45;&gt;31</title>
<path fill="none" stroke="black" stroke-dasharray="1,5" d="M240.21,-88.81C240.78,-80.79 241.46,-71.05 242.09,-62.07"/>
<polygon fill="black" stroke="black" points="245.59,-62.25 242.8,-52.03 238.61,-61.76 245.59,-62.25"/>
</g>
<!-- 17 -->
<g id="node19" class="node">
<title>17</title>
<ellipse fill="none" stroke="black" cx="685" cy="-429" rx="52.79" ry="18"/>
<text text-anchor="middle" x="685" y="-425.3" font-family="Times,serif" font-size="14.00">M136 (e)</text>
</g>
<!-- 17&#45;&gt;4 -->
<g id="edge5" class="edge">
<title>17&#45;&gt;4</title>
<path fill="none" stroke="gray" stroke-dasharray="5,2" d="M646.49,-416.62C638.75,-414.57 630.65,-412.58 623,-411 566.74,-399.38 551.88,-401.08 495,-393 405.2,-380.24 381.44,-384.13 293,-364 289.39,-363.18 285.66,-362.23 281.94,-361.21"/>
<polygon fill="gray" stroke="gray" points="282.76,-357.8 272.18,-358.38 280.81,-364.52 282.76,-357.8"/>
</g>
<!-- 34 -->
<g id="node36" class="node">
<title>34</title>
<ellipse fill="none" stroke="black" cx="358" cy="-346" rx="55.79" ry="18"/>
<text text-anchor="middle" x="358" y="-342.3" font-family="Times,serif" font-size="14.00">V1629 (e)</text>
</g>
<!-- 17&#45;&gt;34 -->
<g id="edge34" class="edge">
<title>17&#45;&gt;34</title>
<path fill="none" stroke="black" stroke-dasharray="5,2" d="M645.7,-416.99C638.18,-414.95 630.36,-412.87 623,-411 534.51,-388.48 511.62,-386 423,-364 418.61,-362.91 414.07,-361.76 409.51,-360.6"/>
<polygon fill="black" stroke="black" points="410.13,-357.14 399.57,-358.04 408.38,-363.92 410.13,-357.14"/>
<text text-anchor="middle" x="549.5" y="-385" font-family="Times,serif" font-size="10.00">2</text>
</g>
<!-- 18 -->
<g id="node20" class="node">
<title>18</title>
<ellipse fill="none" stroke="black" cx="2067" cy="-346" rx="42.79" ry="18"/>
<text text-anchor="middle" x="2067" y="-342.3" font-family="Times,serif" font-size="14.00">Bas (a)</text>
</g>
<!-- 19 -->
<g id="node21" class="node">
<title>19</title>
<ellipse fill="none" stroke="black" cx="1820" cy="-346" rx="55.79" ry="18"/>
<text text-anchor="middle" x="1820" y="-342.3" font-family="Times,serif" font-size="14.00">V1920 (a)</text>
</g>
<!-- 20 -->
<g id="node22" class="node">
<title>20</title>
<ellipse fill="none" stroke="black" cx="940" cy="-429" rx="44.39" ry="18"/>
<text text-anchor="middle" x="940" y="-425.3" font-family="Times,serif" font-size="14.00">A25 (b)</text>
</g>
<!-- 20&#45;&gt;5 -->
<g id="edge6" class="edge">
<title>20&#45;&gt;5</title>
<path fill="none" stroke="black" stroke-dasharray="1,5" d="M898.04,-422.98C824.98,-413.85 669.89,-392.79 541,-364 536.9,-363.08 532.67,-362.05 528.44,-360.95"/>
<polygon fill="black" stroke="black" points="529.21,-357.53 518.65,-358.31 527.39,-364.29 529.21,-357.53"/>
</g>
<!-- 20&#45;&gt;7 -->
<g id="edge8" class="edge">
<title>20&#45;&gt;7</title>
<path fill="none" stroke="black" stroke-dasharray="5,2" d="M913.21,-414.59C886.7,-401.37 849.57,-383 846,-382 760.47,-358.09 734.03,-381.67 647,-364 643.33,-363.25 639.55,-362.34 635.79,-361.34"/>
<polygon fill="black" stroke="black" points="636.51,-357.9 625.93,-358.49 634.57,-364.63 636.51,-357.9"/>
</g>
<!-- 20&#45;&gt;9 -->
<g id="edge10" class="edge">
<title>20&#45;&gt;9</title>
<path fill="none" stroke="black" stroke-dasharray="5,2" d="M921.26,-412.66C907.79,-402.43 888.77,-389.51 870,-382 828.48,-365.39 814.61,-373.92 771,-364 766.84,-363.05 762.53,-362.01 758.23,-360.92"/>
<polygon fill="black" stroke="black" points="758.79,-357.45 748.23,-358.31 757.02,-364.22 758.79,-357.45"/>
<text text-anchor="middle" x="893.5" y="-385" font-family="Times,serif" font-size="10.00">2</text>
</g>
<!-- 20&#45;&gt;13 -->
<g id="edge14" class="edge">
<title>20&#45;&gt;13</title>
<path fill="none" stroke="blue" stroke-dasharray="1,5" d="M931.22,-410.93C925.62,-401.4 917.62,-389.9 908,-382 897.92,-373.72 885.59,-367.06 873.65,-361.85"/>
<polygon fill="blue" stroke="blue" points="874.79,-358.54 864.21,-357.99 872.14,-365.02 874.79,-358.54"/>
</g>
<!-- 27 -->
<g id="node29" class="node">
<title>27</title>
<ellipse fill="none" stroke="black" cx="940" cy="-346" rx="45.49" ry="18"/>
<text text-anchor="middle" x="940" y="-342.3" font-family="Times,serif" font-size="14.00">Nan (b)</text>
</g>
<!-- 20&#45;&gt;27 -->
<g id="edge28" class="edge">
<title>20&#45;&gt;27</title>
<path fill="none" stroke="black" stroke-dasharray="5,2" d="M940,-410.82C940,-400.19 940,-386.31 940,-374.2"/>
<polygon fill="black" stroke="black" points="943.5,-374.15 940,-364.15 936.5,-374.15 943.5,-374.15"/>
<text text-anchor="middle" x="943.5" y="-385" font-family="Times,serif" font-size="10.00">2</text>
</g>
<!-- 30 -->
<g id="node32" class="node">
<title>30</title>
<ellipse fill="none" stroke="black" cx="1048" cy="-346" rx="44.39" ry="18"/>
<text text-anchor="middle" x="1048" y="-342.3" font-family="Times,serif" font-size="14.00">P01 (b)</text>
</g>
<!-- 20&#45;&gt;30 -->
<g id="edge31" class="edge">
<title>20&#45;&gt;30</title>
<path fill="none" stroke="black" stroke-dasharray="5,2" d="M960.06,-412.95C976.78,-400.42 1000.79,-382.41 1019.5,-368.37"/>
<polygon fill="black" stroke="black" points="1021.78,-371.04 1027.68,-362.24 1017.58,-365.44 1021.78,-371.04"/>
</g>
<!-- 39 -->
<g id="node41" class="node">
<title>39</title>
<ellipse fill="none" stroke="black" cx="1160" cy="-346" rx="50.09" ry="18"/>
<text text-anchor="middle" x="1160" y="-342.3" font-family="Times,serif" font-size="14.00">V566 (b)</text>
</g>
<!-- 20&#45;&gt;39 -->
<g id="edge39" class="edge">
<title>20&#45;&gt;39</title>
<path fill="none" stroke="black" stroke-dasharray="5,2" d="M971.99,-416.22C1010.13,-402.18 1074.06,-378.64 1116.63,-362.97"/>
<polygon fill="black" stroke="black" points="1117.99,-366.2 1126.16,-359.46 1115.57,-359.63 1117.99,-366.2"/>
</g>
<!-- 43 -->
<g id="node45" class="node">
<title>43</title>
<ellipse fill="none" stroke="black" cx="1278" cy="-346" rx="50.09" ry="18"/>
<text text-anchor="middle" x="1278" y="-342.3" font-family="Times,serif" font-size="14.00">S249 (b)</text>
</g>
<!-- 20&#45;&gt;43 -->
<g id="edge43" class="edge">
<title>20&#45;&gt;43</title>
<path fill="none" stroke="black" stroke-dasharray="5,2" d="M978.52,-419.87C1032.5,-408.31 1133.6,-386.08 1219,-364 1222.84,-363.01 1226.81,-361.94 1230.78,-360.85"/>
<polygon fill="black" stroke="black" points="1231.94,-364.16 1240.63,-358.1 1230.06,-357.42 1231.94,-364.16"/>
<text text-anchor="middle" x="1145.5" y="-385" font-family="Times,serif" font-size="10.00">2</text>
</g>
<!-- 21 -->
<g id="node23" class="node">
<title>21</title>
<ellipse fill="none" stroke="black" cx="1390" cy="-429" rx="52.79" ry="18"/>
<text text-anchor="middle" x="1390" y="-425.3" font-family="Times,serif" font-size="14.00">LaSM (a)</text>
</g>
<!-- 28 -->
<g id="node30" class="node">
<title>28</title>
<ellipse fill="none" stroke="black" cx="1390" cy="-346" rx="44.39" ry="18"/>
<text text-anchor="middle" x="1390" y="-342.3" font-family="Times,serif" font-size="14.00">B39 (a)</text>
</g>
<!-- 21&#45;&gt;28 -->
<g id="edge29" class="edge">
<title>21&#45;&gt;28</title>
<path fill="none" stroke="black" stroke-dasharray="5,2" d="M1390,-410.82C1390,-400.19 1390,-386.31 1390,-374.2"/>
<polygon fill="black" stroke="black" points="1393.5,-374.15 1390,-364.15 1386.5,-374.15 1393.5,-374.15"/>
</g>
<!-- 22 -->
<g id="node24" class="node">
<title>22</title>
<ellipse fill="none" stroke="black" cx="1511" cy="-429" rx="50.89" ry="18"/>
<text text-anchor="middle" x="1511" y="-425.3" font-family="Times,serif" font-size="14.00">Neap (d)</text>
</g>
<!-- 22&#45;&gt;2 -->
<g id="edge3" class="edge">
<title>22&#45;&gt;2</title>
<path fill="none" stroke="gray" stroke-dasharray="5,2" d="M1507.39,-410.82C1505.16,-400.19 1502.25,-386.31 1499.71,-374.2"/>
<polygon fill="gray" stroke="gray" points="1503.08,-373.22 1497.6,-364.15 1496.23,-374.66 1503.08,-373.22"/>
</g>
<!-- 33 -->
<g id="node35" class="node">
<title>33</title>
<ellipse fill="none" stroke="gray" stroke-dasharray="5,2" cx="1594" cy="-346" rx="39.79" ry="18"/>
<text text-anchor="middle" x="1594" y="-342.3" font-family="Times,serif" font-size="14.00">Taur&#45;c</text>
</g>
<!-- 22&#45;&gt;33 -->
<g id="edge33" class="edge">
<title>22&#45;&gt;33</title>
<path fill="none" stroke="gray" stroke-width="2" d="M1527.8,-411.61C1540.19,-399.52 1557.19,-382.92 1570.87,-369.57"/>
<polygon fill="gray" stroke="gray" stroke-width="2" points="1573.36,-372.03 1578.07,-362.54 1568.47,-367.02 1573.36,-372.03"/>
</g>
<!-- 38 -->
<g id="node40" class="node">
<title>38</title>
<ellipse fill="none" stroke="black" cx="1699" cy="-346" rx="47.39" ry="18"/>
<text text-anchor="middle" x="1699" y="-342.3" font-family="Times,serif" font-size="14.00">Taur (d)</text>
</g>
<!-- 22&#45;&gt;38 -->
<g id="edge38" class="edge">
<title>22&#45;&gt;38</title>
<path fill="none" stroke="black" stroke-dasharray="5,2" d="M1542.04,-414.62C1574.17,-400.78 1624.45,-379.12 1659.42,-364.05"/>
<polygon fill="black" stroke="black" points="1661.04,-367.16 1668.84,-359.99 1658.27,-360.74 1661.04,-367.16"/>
<text text-anchor="middle" x="1619.5" y="-385" font-family="Times,serif" font-size="10.00">4</text>
</g>
<!-- 23 -->
<g id="node25" class="node">
<title>23</title>
<ellipse fill="none" stroke="black" cx="1630" cy="-429" rx="50.09" ry="18"/>
<text text-anchor="middle" x="1630" y="-425.3" font-family="Times,serif" font-size="14.00">V565 (a)</text>
</g>
<!-- 24 -->
<g id="node26" class="node">
<title>24</title>
<ellipse fill="none" stroke="black" cx="2169" cy="-346" rx="41.69" ry="18"/>
<text text-anchor="middle" x="2169" y="-342.3" font-family="Times,serif" font-size="14.00">Est (a)</text>
</g>
<!-- 25 -->
<g id="node27" class="node">
<title>25</title>
<ellipse fill="none" stroke="black" cx="1766" cy="-429" rx="50.09" ry="18"/>
<text text-anchor="middle" x="1766" y="-425.3" font-family="Times,serif" font-size="14.00">V560 (a)</text>
</g>
<!-- 25&#45;&gt;19 -->
<g id="edge20" class="edge">
<title>25&#45;&gt;19</title>
<path fill="none" stroke="black" stroke-dasharray="5,2" d="M1777.19,-411.22C1784.72,-399.92 1794.78,-384.83 1803.26,-372.11"/>
<polygon fill="black" stroke="black" points="1806.19,-374.02 1808.83,-363.76 1800.37,-370.14 1806.19,-374.02"/>
</g>
<!-- 26 -->
<g id="node28" class="node">
<title>26</title>
<ellipse fill="none" stroke="gray" stroke-dasharray="5,2" cx="366" cy="-263" rx="36" ry="18"/>
<text text-anchor="middle" x="366" y="-259.3" font-family="Times,serif" font-size="14.00">La2&#45;c</text>
</g>
<!-- 32 -->
<g id="node34" class="node">
<title>32</title>
<ellipse fill="none" stroke="black" cx="1450" cy="-513" rx="53.89" ry="18"/>
<text text-anchor="middle" x="1450" y="-509.3" font-family="Times,serif" font-size="14.00">aBase (a)</text>
</g>
<!-- 32&#45;&gt;11 -->
<g id="edge12" class="edge">
<title>32&#45;&gt;11</title>
<path fill="none" stroke="black" stroke-width="2" d="M1395.69,-512.16C1262.59,-511.61 910.05,-504.35 623,-447 619.34,-446.27 615.58,-445.36 611.83,-444.35"/>
<polygon fill="black" stroke="black" stroke-width="2" points="612.61,-440.93 602.03,-441.47 610.64,-447.65 612.61,-440.93"/>
</g>
<!-- 32&#45;&gt;17 -->
<g id="edge18" class="edge">
<title>32&#45;&gt;17</title>
<path fill="none" stroke="blue" stroke-width="2" d="M1399.51,-506.59C1263.55,-492.02 890.21,-452 744.43,-436.37"/>
<polygon fill="blue" stroke="blue" stroke-width="2" points="744.65,-432.87 734.33,-435.29 743.9,-439.83 744.65,-432.87"/>
</g>
<!-- 32&#45;&gt;20 -->
<g id="edge21" class="edge">
<title>32&#45;&gt;20</title>
<path fill="none" stroke="blue" stroke-dasharray="5,2" d="M1402.79,-504.17C1345.92,-494.76 1247.5,-478.55 1163,-465 1103.95,-455.53 1036.05,-444.91 990.84,-437.88"/>
<polygon fill="blue" stroke="blue" points="991.12,-434.38 980.71,-436.31 990.05,-441.3 991.12,-434.38"/>
</g>
<!-- 32&#45;&gt;21 -->
<g id="edge22" class="edge">
<title>32&#45;&gt;21</title>
<path fill="none" stroke="black" d="M1437.86,-495.41C1429.32,-483.74 1417.74,-467.92 1408.12,-454.76"/>
<polygon fill="black" stroke="black" points="1410.85,-452.57 1402.12,-446.57 1405.2,-456.71 1410.85,-452.57"/>
</g>
<!-- 32&#45;&gt;22 -->
<g id="edge23" class="edge">
<title>32&#45;&gt;22</title>
<path fill="none" stroke="blue" stroke-width="2" d="M1462.34,-495.41C1471.03,-483.74 1482.79,-467.92 1492.58,-454.76"/>
<polygon fill="blue" stroke="blue" stroke-width="2" points="1495.51,-456.68 1498.67,-446.57 1489.9,-452.5 1495.51,-456.68"/>
</g>
<!-- 32&#45;&gt;23 -->
<g id="edge24" class="edge">
<title>32&#45;&gt;23</title>
<path fill="none" stroke="black" d="M1480.53,-498.09C1510.93,-484.24 1557.72,-462.93 1590.84,-447.84"/>
<polygon fill="black" stroke="black" points="1592.57,-450.9 1600.22,-443.57 1589.66,-444.53 1592.57,-450.9"/>
<text text-anchor="middle" x="1553.5" y="-468" font-family="Times,serif" font-size="10.00">5</text>
</g>
<!-- 32&#45;&gt;25 -->
<g id="edge26" class="edge">
<title>32&#45;&gt;25</title>
<path fill="none" stroke="black" stroke-width="2" d="M1491.31,-501.28C1549.31,-486.23 1654.72,-458.88 1716.73,-442.79"/>
<polygon fill="black" stroke="black" stroke-width="2" points="1717.87,-446.11 1726.67,-440.21 1716.11,-439.33 1717.87,-446.11"/>
</g>
<!-- 35 -->
<g id="node37" class="node">
<title>35</title>
<ellipse fill="none" stroke="black" cx="1982" cy="-429" rx="55.79" ry="18"/>
<text text-anchor="middle" x="1982" y="-425.3" font-family="Times,serif" font-size="14.00">V1897 (a)</text>
</g>
<!-- 32&#45;&gt;35 -->
<g id="edge35" class="edge">
<title>32&#45;&gt;35</title>
<path fill="none" stroke="black" d="M1498.15,-504.58C1595.78,-489.53 1816.74,-455.47 1922.9,-439.11"/>
<polygon fill="black" stroke="black" points="1923.45,-442.57 1932.8,-437.58 1922.39,-435.65 1923.45,-442.57"/>
<text text-anchor="middle" x="1750.5" y="-468" font-family="Times,serif" font-size="10.00">2</text>
</g>
<!-- 34&#45;&gt;10 -->
<g id="edge11" class="edge">
<title>34&#45;&gt;10</title>
<path fill="none" stroke="black" stroke-dasharray="5,2" d="M339.03,-329C324.7,-316.9 304.84,-300.14 288.87,-286.67"/>
<polygon fill="black" stroke="black" points="290.83,-283.74 280.93,-279.97 286.31,-289.09 290.83,-283.74"/>
</g>
<!-- 34&#45;&gt;26 -->
<g id="edge27" class="edge">
<title>34&#45;&gt;26</title>
<path fill="none" stroke="gray" stroke-width="2" d="M359.7,-327.82C360.75,-317.19 362.12,-303.31 363.31,-291.2"/>
<polygon fill="gray" stroke="gray" stroke-width="2" points="366.81,-291.45 364.31,-281.15 359.84,-290.76 366.81,-291.45"/>
</g>
<!-- 35&#45;&gt;8 -->
<g id="edge9" class="edge">
<title>35&#45;&gt;8</title>
<path fill="none" stroke="black" stroke-dasharray="5,2" d="M1975.21,-410.82C1970.9,-399.9 1965.23,-385.55 1960.36,-373.22"/>
<polygon fill="black" stroke="black" points="1963.6,-371.89 1956.67,-363.88 1957.09,-374.46 1963.6,-371.89"/>
<text text-anchor="middle" x="1970.5" y="-385" font-family="Times,serif" font-size="10.00">2</text>
</g>
<!-- 35&#45;&gt;18 -->
<g id="edge19" class="edge">
<title>35&#45;&gt;18</title>
<path fill="none" stroke="black" d="M1999.2,-411.61C2011.81,-399.6 2029.08,-383.13 2043.04,-369.83"/>
<polygon fill="black" stroke="black" points="2045.58,-372.25 2050.4,-362.82 2040.75,-367.18 2045.58,-372.25"/>
</g>
<!-- 35&#45;&gt;24 -->
<g id="edge25" class="edge">
<title>35&#45;&gt;24</title>
<path fill="none" stroke="black" stroke-dasharray="1,5" d="M2014.15,-414.08C2046.7,-399.98 2097,-378.19 2131.39,-363.29"/>
<polygon fill="black" stroke="black" points="2132.85,-366.47 2140.63,-359.29 2130.07,-360.05 2132.85,-366.47"/>
</g>
<!-- 42 -->
<g id="node44" class="node">
<title>42</title>
<ellipse fill="none" stroke="black" cx="1642" cy="-263" rx="46.59" ry="18"/>
<text text-anchor="middle" x="1642" y="-259.3" font-family="Times,serif" font-size="14.00">Mon (d)</text>
</g>
<!-- 38&#45;&gt;42 -->
<g id="edge42" class="edge">
<title>38&#45;&gt;42</title>
<path fill="none" stroke="black" stroke-dasharray="1,5" d="M1687.19,-328.22C1679.19,-316.85 1668.48,-301.63 1659.49,-288.86"/>
<polygon fill="black" stroke="black" points="1662.22,-286.65 1653.6,-280.48 1656.49,-290.68 1662.22,-286.65"/>
<text text-anchor="middle" x="1676.5" y="-302" font-family="Times,serif" font-size="10.00">3</text>
</g>
<!-- 44 -->
<g id="node46" class="node">
<title>44</title>
<ellipse fill="none" stroke="black" cx="1757" cy="-263" rx="50.89" ry="18"/>
<text text-anchor="middle" x="1757" y="-259.3" font-family="Times,serif" font-size="14.00">M118 (f)</text>
</g>
<!-- 38&#45;&gt;44 -->
<g id="edge44" class="edge">
<title>38&#45;&gt;44</title>
<path fill="none" stroke="blue" stroke-dasharray="5,2" d="M1711.02,-328.22C1719.11,-316.92 1729.91,-301.83 1739.02,-289.11"/>
<polygon fill="blue" stroke="blue" points="1742.02,-290.93 1745,-280.76 1736.33,-286.85 1742.02,-290.93"/>
</g>
</g>
</svg>
