<?xml version="1.0" encoding="UTF-8" standalone="no"?>
<!DOCTYPE svg PUBLIC "-//W3C//DTD SVG 1.1//EN"
 "http://www.w3.org/Graphics/SVG/1.1/DTD/svg11.dtd">
<!-- Generated by graphviz version 2.43.0 (0)
 -->
<!-- Title: textual_flow Pages: 1 -->
<svg width="1961pt" height="858pt"
 viewBox="0.00 0.00 1961.00 858.00" xmlns="http://www.w3.org/2000/svg" xmlns:xlink="http://www.w3.org/1999/xlink">
<g id="graph0" class="graph" transform="scale(1 1) rotate(0) translate(4 854)">
<title>textual_flow</title>
<polygon fill="white" stroke="transparent" points="-4,4 -4,-854 1957,-854 1957,4 -4,4"/>
<g id="clust1" class="cluster">
<title>cluster_legend</title>
<polygon fill="none" stroke="black" points="8,-788 8,-842 164,-842 164,-788 8,-788"/>
</g>
<g id="clust2" class="cluster">
<title>cluster_plot</title>
</g>
<!-- label -->
<g id="node1" class="node">
<title>label</title>
<text text-anchor="middle" x="86" y="-818.8" font-family="Times,serif" font-size="14.00">adstag1.3.34U30</text>
<text text-anchor="middle" x="86" y="-803.8" font-family="Times,serif" font-size="14.00">Con = 10</text>
</g>
<!-- 0 -->
<g id="node2" class="node">
<title>0</title>
<ellipse fill="none" stroke="black" cx="866" cy="-565" rx="53.09" ry="18"/>
<text text-anchor="middle" x="866" y="-561.3" font-family="Times,serif" font-size="14.00">M136 (b)</text>
</g>
<!-- 32 -->
<g id="node34" class="node">
<title>32</title>
<ellipse fill="none" stroke="black" cx="866" cy="-482" rx="50.89" ry="18"/>
<text text-anchor="middle" x="866" y="-478.3" font-family="Times,serif" font-size="14.00">Neap (b)</text>
</g>
<!-- 0&#45;&gt;32 -->
<g id="edge33" class="edge">
<title>0&#45;&gt;32</title>
<path fill="none" stroke="black" stroke-dasharray="5,2" d="M866,-546.82C866,-536.19 866,-522.31 866,-510.2"/>
<polygon fill="black" stroke="black" points="869.5,-510.15 866,-500.15 862.5,-510.15 869.5,-510.15"/>
<text text-anchor="middle" x="869.5" y="-521" font-family="Times,serif" font-size="10.00">2</text>
</g>
<!-- 1 -->
<g id="node3" class="node">
<title>1</title>
<ellipse fill="none" stroke="black" cx="981" cy="-565" rx="44.39" ry="18"/>
<text text-anchor="middle" x="981" y="-561.3" font-family="Times,serif" font-size="14.00">P74 (b)</text>
</g>
<!-- 2 -->
<g id="node4" class="node">
<title>2</title>
<ellipse fill="none" stroke="black" cx="234" cy="-648" rx="44.39" ry="18"/>
<text text-anchor="middle" x="234" y="-644.3" font-family="Times,serif" font-size="14.00">S32 (b)</text>
</g>
<!-- 3 -->
<g id="node5" class="node">
<title>3</title>
<ellipse fill="none" stroke="black" cx="614" cy="-482" rx="42.49" ry="18"/>
<text text-anchor="middle" x="614" y="-478.3" font-family="Times,serif" font-size="14.00">Est (b)</text>
</g>
<!-- 4 -->
<g id="node6" class="node">
<title>4</title>
<ellipse fill="none" stroke="black" cx="354" cy="-565" rx="55.79" ry="18"/>
<text text-anchor="middle" x="354" y="-561.3" font-family="Times,serif" font-size="14.00">V1639 (b)</text>
</g>
<!-- 5 -->
<g id="node7" class="node">
<title>5</title>
<ellipse fill="none" stroke="gray" stroke-dasharray="5,2" cx="866" cy="-107" rx="28.7" ry="18"/>
<text text-anchor="middle" x="866" y="-103.3" font-family="Times,serif" font-size="14.00">P18</text>
</g>
<!-- 6 -->
<g id="node8" class="node">
<title>6</title>
<ellipse fill="none" stroke="black" cx="587" cy="-731" rx="42.79" ry="18"/>
<text text-anchor="middle" x="587" y="-727.3" font-family="Times,serif" font-size="14.00">Bas (a)</text>
</g>
<!-- 7 -->
<g id="node9" class="node">
<title>7</title>
<ellipse fill="none" stroke="black" cx="1093" cy="-565" rx="50.09" ry="18"/>
<text text-anchor="middle" x="1093" y="-561.3" font-family="Times,serif" font-size="14.00">A116 (b)</text>
</g>
<!-- 8 -->
<g id="node10" class="node">
<title>8</title>
<ellipse fill="none" stroke="black" cx="236" cy="-482" rx="55.79" ry="18"/>
<text text-anchor="middle" x="236" y="-478.3" font-family="Times,serif" font-size="14.00">V1920 (b)</text>
</g>
<!-- 9 -->
<g id="node11" class="node">
<title>9</title>
<ellipse fill="none" stroke="black" cx="346" cy="-648" rx="50.09" ry="18"/>
<text text-anchor="middle" x="346" y="-644.3" font-family="Times,serif" font-size="14.00">Patm (b)</text>
</g>
<!-- 39 -->
<g id="node41" class="node">
<title>39</title>
<ellipse fill="none" stroke="black" cx="230" cy="-565" rx="50.09" ry="18"/>
<text text-anchor="middle" x="230" y="-561.3" font-family="Times,serif" font-size="14.00">V560 (b)</text>
</g>
<!-- 9&#45;&gt;39 -->
<g id="edge39" class="edge">
<title>9&#45;&gt;39</title>
<path fill="none" stroke="black" stroke-width="2" d="M324.18,-631.76C306.23,-619.23 280.58,-601.32 260.58,-587.35"/>
<polygon fill="black" stroke="black" stroke-width="2" points="262.32,-584.3 252.12,-581.44 258.31,-590.04 262.32,-584.3"/>
<text text-anchor="middle" x="297.5" y="-604" font-family="Times,serif" font-size="10.00">2</text>
</g>
<!-- 10 -->
<g id="node12" class="node">
<title>10</title>
<ellipse fill="none" stroke="black" cx="745" cy="-180" rx="50.09" ry="18"/>
<text text-anchor="middle" x="745" y="-176.3" font-family="Times,serif" font-size="14.00">Marc (b)</text>
</g>
<!-- 26 -->
<g id="node28" class="node">
<title>26</title>
<ellipse fill="none" stroke="black" cx="745" cy="-107" rx="46.59" ry="18"/>
<text text-anchor="middle" x="745" y="-103.3" font-family="Times,serif" font-size="14.00">Mon (b)</text>
</g>
<!-- 10&#45;&gt;26 -->
<g id="edge27" class="edge">
<title>10&#45;&gt;26</title>
<path fill="none" stroke="black" stroke-dasharray="1,5" d="M745,-161.81C745,-153.79 745,-144.05 745,-135.07"/>
<polygon fill="black" stroke="black" points="748.5,-135.03 745,-125.03 741.5,-135.03 748.5,-135.03"/>
</g>
<!-- 11 -->
<g id="node13" class="node">
<title>11</title>
<ellipse fill="none" stroke="black" cx="464" cy="-648" rx="50.09" ry="18"/>
<text text-anchor="middle" x="464" y="-644.3" font-family="Times,serif" font-size="14.00">V566 (b)</text>
</g>
<!-- 11&#45;&gt;4 -->
<g id="edge5" class="edge">
<title>11&#45;&gt;4</title>
<path fill="none" stroke="black" stroke-dasharray="1,5" d="M443.05,-631.57C426.29,-619.23 402.58,-601.78 383.84,-587.97"/>
<polygon fill="black" stroke="black" points="385.75,-585.03 375.62,-581.92 381.6,-590.67 385.75,-585.03"/>
</g>
<!-- 12 -->
<g id="node14" class="node">
<title>12</title>
<ellipse fill="none" stroke="black" cx="1210" cy="-565" rx="49.29" ry="18"/>
<text text-anchor="middle" x="1210" y="-561.3" font-family="Times,serif" font-size="14.00">La35 (b)</text>
</g>
<!-- 13 -->
<g id="node15" class="node">
<title>13</title>
<ellipse fill="none" stroke="black" cx="692" cy="-731" rx="44.39" ry="18"/>
<text text-anchor="middle" x="692" y="-727.3" font-family="Times,serif" font-size="14.00">A25 (b)</text>
</g>
<!-- 13&#45;&gt;2 -->
<g id="edge3" class="edge">
<title>13&#45;&gt;2</title>
<path fill="none" stroke="black" stroke-dasharray="5,2" d="M659.75,-718.58C652.96,-716.48 645.8,-714.49 639,-713 573.84,-698.75 556.13,-703.72 490,-695 399.64,-683.09 375.82,-686.43 287,-666 283.4,-665.17 279.69,-664.21 275.99,-663.18"/>
<polygon fill="black" stroke="black" points="276.85,-659.78 266.27,-660.3 274.87,-666.5 276.85,-659.78"/>
</g>
<!-- 13&#45;&gt;9 -->
<g id="edge10" class="edge">
<title>13&#45;&gt;9</title>
<path fill="none" stroke="black" stroke-dasharray="1,5" d="M659.09,-718.81C652.48,-716.74 645.55,-714.7 639,-713 536.33,-686.31 508.05,-691.15 405,-666 400.98,-665.02 396.82,-663.94 392.66,-662.83"/>
<polygon fill="black" stroke="black" points="393.58,-659.45 383.01,-660.17 391.72,-666.2 393.58,-659.45"/>
</g>
<!-- 13&#45;&gt;11 -->
<g id="edge12" class="edge">
<title>13&#45;&gt;11</title>
<path fill="none" stroke="black" stroke-dasharray="5,2" d="M659.82,-718.57C620.1,-704.46 552.39,-680.4 507.92,-664.6"/>
<polygon fill="black" stroke="black" points="508.85,-661.22 498.25,-661.17 506.5,-667.81 508.85,-661.22"/>
</g>
<!-- 17 -->
<g id="node19" class="node">
<title>17</title>
<ellipse fill="none" stroke="black" cx="578" cy="-648" rx="45.49" ry="18"/>
<text text-anchor="middle" x="578" y="-644.3" font-family="Times,serif" font-size="14.00">Nan (b)</text>
</g>
<!-- 13&#45;&gt;17 -->
<g id="edge18" class="edge">
<title>13&#45;&gt;17</title>
<path fill="none" stroke="black" stroke-dasharray="5,2" d="M670.82,-714.95C652.99,-702.28 627.28,-684.02 607.44,-669.92"/>
<polygon fill="black" stroke="black" points="609.24,-666.9 599.06,-663.97 605.19,-672.61 609.24,-666.9"/>
<text text-anchor="middle" x="644.5" y="-687" font-family="Times,serif" font-size="10.00">2</text>
</g>
<!-- 18 -->
<g id="node20" class="node">
<title>18</title>
<ellipse fill="none" stroke="black" cx="692" cy="-648" rx="50.09" ry="18"/>
<text text-anchor="middle" x="692" y="-644.3" font-family="Times,serif" font-size="14.00">S249 (b)</text>
</g>
<!-- 13&#45;&gt;18 -->
<g id="edge19" class="edge">
<title>13&#45;&gt;18</title>
<path fill="none" stroke="black" stroke-dasharray="5,2" d="M692,-712.82C692,-702.19 692,-688.31 692,-676.2"/>
<polygon fill="black" stroke="black" points="695.5,-676.15 692,-666.15 688.5,-676.15 695.5,-676.15"/>
<text text-anchor="middle" x="695.5" y="-687" font-family="Times,serif" font-size="10.00">2</text>
</g>
<!-- 25 -->
<g id="node27" class="node">
<title>25</title>
<ellipse fill="none" stroke="black" cx="804" cy="-648" rx="44.39" ry="18"/>
<text text-anchor="middle" x="804" y="-644.3" font-family="Times,serif" font-size="14.00">P01 (b)</text>
</g>
<!-- 13&#45;&gt;25 -->
<g id="edge26" class="edge">
<title>13&#45;&gt;25</title>
<path fill="none" stroke="black" stroke-dasharray="5,2" d="M712.8,-714.95C730.33,-702.28 755.58,-684.02 775.08,-669.92"/>
<polygon fill="black" stroke="black" points="777.26,-672.66 783.31,-663.97 773.15,-666.99 777.26,-672.66"/>
</g>
<!-- 31 -->
<g id="node33" class="node">
<title>31</title>
<ellipse fill="none" stroke="black" cx="1210" cy="-648" rx="49.29" ry="18"/>
<text text-anchor="middle" x="1210" y="-644.3" font-family="Times,serif" font-size="14.00">La22 (b)</text>
</g>
<!-- 13&#45;&gt;31 -->
<g id="edge32" class="edge">
<title>13&#45;&gt;31</title>
<path fill="none" stroke="black" stroke-dasharray="1,5" d="M724.27,-718.67C731.06,-716.56 738.22,-714.54 745,-713 889.65,-680.11 1063.72,-661.63 1152.21,-653.7"/>
<polygon fill="black" stroke="black" points="1152.66,-657.18 1162.32,-652.81 1152.05,-650.2 1152.66,-657.18"/>
<text text-anchor="middle" x="900.5" y="-687" font-family="Times,serif" font-size="10.00">2</text>
</g>
<!-- 40 -->
<g id="node42" class="node">
<title>40</title>
<ellipse fill="none" stroke="black" cx="1318" cy="-648" rx="40.09" ry="18"/>
<text text-anchor="middle" x="1318" y="-644.3" font-family="Times,serif" font-size="14.00">Pal (b)</text>
</g>
<!-- 13&#45;&gt;40 -->
<g id="edge40" class="edge">
<title>13&#45;&gt;40</title>
<path fill="none" stroke="black" stroke-dasharray="5,2" d="M723.93,-718.51C730.81,-716.39 738.09,-714.4 745,-713 859.36,-689.82 1153.84,-690.17 1268,-666 1271.47,-665.27 1275.03,-664.36 1278.58,-663.37"/>
<polygon fill="black" stroke="black" points="1279.91,-666.62 1288.45,-660.34 1277.86,-659.92 1279.91,-666.62"/>
</g>
<!-- 14 -->
<g id="node16" class="node">
<title>14</title>
<ellipse fill="none" stroke="black" cx="1547" cy="-482" rx="50.09" ry="18"/>
<text text-anchor="middle" x="1547" y="-478.3" font-family="Times,serif" font-size="14.00">A336 (b)</text>
</g>
<!-- 15 -->
<g id="node17" class="node">
<title>15</title>
<ellipse fill="none" stroke="black" cx="866" cy="-180" rx="53.09" ry="18"/>
<text text-anchor="middle" x="866" y="-176.3" font-family="Times,serif" font-size="14.00">M118 (b)</text>
</g>
<!-- 15&#45;&gt;5 -->
<g id="edge6" class="edge">
<title>15&#45;&gt;5</title>
<path fill="none" stroke="gray" stroke-dasharray="5,2" d="M866,-161.81C866,-153.79 866,-144.05 866,-135.07"/>
<polygon fill="gray" stroke="gray" points="869.5,-135.03 866,-125.03 862.5,-135.03 869.5,-135.03"/>
</g>
<!-- 16 -->
<g id="node18" class="node">
<title>16</title>
<ellipse fill="none" stroke="black" cx="741" cy="-565" rx="53.09" ry="18"/>
<text text-anchor="middle" x="741" y="-561.3" font-family="Times,serif" font-size="14.00">LaSM (b)</text>
</g>
<!-- 23 -->
<g id="node25" class="node">
<title>23</title>
<ellipse fill="none" stroke="black" cx="741" cy="-482" rx="44.69" ry="18"/>
<text text-anchor="middle" x="741" y="-478.3" font-family="Times,serif" font-size="14.00">B39 (b)</text>
</g>
<!-- 16&#45;&gt;23 -->
<g id="edge24" class="edge">
<title>16&#45;&gt;23</title>
<path fill="none" stroke="black" stroke-dasharray="5,2" d="M741,-546.82C741,-536.19 741,-522.31 741,-510.2"/>
<polygon fill="black" stroke="black" points="744.5,-510.15 741,-500.15 737.5,-510.15 744.5,-510.15"/>
</g>
<!-- 20 -->
<g id="node22" class="node">
<title>20</title>
<ellipse fill="none" stroke="black" cx="484" cy="-565" rx="55.79" ry="18"/>
<text text-anchor="middle" x="484" y="-561.3" font-family="Times,serif" font-size="14.00">V2250 (b)</text>
</g>
<!-- 17&#45;&gt;20 -->
<g id="edge21" class="edge">
<title>17&#45;&gt;20</title>
<path fill="none" stroke="black" stroke-dasharray="5,2" d="M559.88,-631.38C545.88,-619.32 526.32,-602.46 510.56,-588.88"/>
<polygon fill="black" stroke="black" points="512.57,-586 502.71,-582.12 508,-591.3 512.57,-586"/>
</g>
<!-- 30 -->
<g id="node32" class="node">
<title>30</title>
<ellipse fill="none" stroke="black" cx="614" cy="-565" rx="55.79" ry="18"/>
<text text-anchor="middle" x="614" y="-561.3" font-family="Times,serif" font-size="14.00">V1897 (b)</text>
</g>
<!-- 17&#45;&gt;30 -->
<g id="edge31" class="edge">
<title>17&#45;&gt;30</title>
<path fill="none" stroke="black" stroke-dasharray="1,5" d="M585.46,-630.22C590.3,-619.32 596.72,-604.89 602.24,-592.47"/>
<polygon fill="black" stroke="black" points="605.56,-593.6 606.43,-583.04 599.17,-590.76 605.56,-593.6"/>
</g>
<!-- 19 -->
<g id="node21" class="node">
<title>19</title>
<ellipse fill="none" stroke="gray" stroke-dasharray="5,2" cx="1318" cy="-565" rx="40.09" ry="18"/>
<text text-anchor="middle" x="1318" y="-561.3" font-family="Times,serif" font-size="14.00">V2036</text>
</g>
<!-- 21 -->
<g id="node23" class="node">
<title>21</title>
<ellipse fill="none" stroke="black" cx="866" cy="-253" rx="47.39" ry="18"/>
<text text-anchor="middle" x="866" y="-249.3" font-family="Times,serif" font-size="14.00">Taur (b)</text>
</g>
<!-- 21&#45;&gt;10 -->
<g id="edge11" class="edge">
<title>21&#45;&gt;10</title>
<path fill="none" stroke="black" stroke-dasharray="1,5" d="M841.22,-237.46C823.23,-226.91 798.68,-212.5 778.88,-200.88"/>
<polygon fill="black" stroke="black" points="780.56,-197.81 770.16,-195.76 777.01,-203.84 780.56,-197.81"/>
</g>
<!-- 21&#45;&gt;15 -->
<g id="edge16" class="edge">
<title>21&#45;&gt;15</title>
<path fill="none" stroke="black" stroke-dasharray="5,2" d="M866,-234.81C866,-226.79 866,-217.05 866,-208.07"/>
<polygon fill="black" stroke="black" points="869.5,-208.03 866,-198.03 862.5,-208.03 869.5,-208.03"/>
</g>
<!-- 22 -->
<g id="node24" class="node">
<title>22</title>
<ellipse fill="none" stroke="black" cx="987" cy="-180" rx="50.09" ry="18"/>
<text text-anchor="middle" x="987" y="-176.3" font-family="Times,serif" font-size="14.00">V569 (b)</text>
</g>
<!-- 21&#45;&gt;22 -->
<g id="edge23" class="edge">
<title>21&#45;&gt;22</title>
<path fill="none" stroke="black" stroke-dasharray="5,2" d="M890.78,-237.46C908.77,-226.91 933.32,-212.5 953.12,-200.88"/>
<polygon fill="black" stroke="black" points="954.99,-203.84 961.84,-195.76 951.44,-197.81 954.99,-203.84"/>
</g>
<!-- 24 -->
<g id="node26" class="node">
<title>24</title>
<ellipse fill="none" stroke="black" cx="866" cy="-326" rx="50.09" ry="18"/>
<text text-anchor="middle" x="866" y="-322.3" font-family="Times,serif" font-size="14.00">V568 (b)</text>
</g>
<!-- 24&#45;&gt;21 -->
<g id="edge22" class="edge">
<title>24&#45;&gt;21</title>
<path fill="none" stroke="black" stroke-dasharray="1,5" d="M866,-307.81C866,-299.79 866,-290.05 866,-281.07"/>
<polygon fill="black" stroke="black" points="869.5,-281.03 866,-271.03 862.5,-281.03 869.5,-281.03"/>
</g>
<!-- 25&#45;&gt;16 -->
<g id="edge17" class="edge">
<title>25&#45;&gt;16</title>
<path fill="none" stroke="black" stroke-dasharray="5,2" d="M791.25,-630.61C782.34,-619.16 770.29,-603.66 760.22,-590.72"/>
<polygon fill="black" stroke="black" points="762.85,-588.39 753.95,-582.65 757.32,-592.69 762.85,-588.39"/>
<text text-anchor="middle" x="779.5" y="-604" font-family="Times,serif" font-size="10.00">2</text>
</g>
<!-- 29 -->
<g id="node31" class="node">
<title>29</title>
<ellipse fill="none" stroke="black" cx="745" cy="-34" rx="41.69" ry="18"/>
<text text-anchor="middle" x="745" y="-30.3" font-family="Times,serif" font-size="14.00">Sin (b)</text>
</g>
<!-- 26&#45;&gt;29 -->
<g id="edge30" class="edge">
<title>26&#45;&gt;29</title>
<path fill="none" stroke="black" stroke-dasharray="1,5" d="M745,-88.81C745,-80.79 745,-71.05 745,-62.07"/>
<polygon fill="black" stroke="black" points="748.5,-62.03 745,-52.03 741.5,-62.03 748.5,-62.03"/>
</g>
<!-- 27 -->
<g id="node29" class="node">
<title>27</title>
<ellipse fill="none" stroke="black" cx="1426" cy="-565" rx="50.09" ry="18"/>
<text text-anchor="middle" x="1426" y="-561.3" font-family="Times,serif" font-size="14.00">V565 (b)</text>
</g>
<!-- 28 -->
<g id="node30" class="node">
<title>28</title>
<ellipse fill="none" stroke="black" cx="1547" cy="-565" rx="53.09" ry="18"/>
<text text-anchor="middle" x="1547" y="-561.3" font-family="Times,serif" font-size="14.00">M111 (b)</text>
</g>
<!-- 28&#45;&gt;14 -->
<g id="edge15" class="edge">
<title>28&#45;&gt;14</title>
<path fill="none" stroke="black" stroke-dasharray="5,2" d="M1547,-546.82C1547,-536.19 1547,-522.31 1547,-510.2"/>
<polygon fill="black" stroke="black" points="1550.5,-510.15 1547,-500.15 1543.5,-510.15 1550.5,-510.15"/>
</g>
<!-- 30&#45;&gt;3 -->
<g id="edge4" class="edge">
<title>30&#45;&gt;3</title>
<path fill="none" stroke="black" stroke-dasharray="1,5" d="M614,-546.82C614,-536.19 614,-522.31 614,-510.2"/>
<polygon fill="black" stroke="black" points="617.5,-510.15 614,-500.15 610.5,-510.15 617.5,-510.15"/>
</g>
<!-- 31&#45;&gt;0 -->
<g id="edge1" class="edge">
<title>31&#45;&gt;0</title>
<path fill="none" stroke="black" d="M1168.29,-638.14C1113.14,-626.29 1012.98,-604.28 928,-583 923.92,-581.98 919.7,-580.89 915.46,-579.77"/>
<polygon fill="black" stroke="black" points="916.19,-576.34 905.62,-577.15 914.38,-583.11 916.19,-576.34"/>
<text text-anchor="middle" x="1046.5" y="-604" font-family="Times,serif" font-size="10.00">2</text>
</g>
<!-- 31&#45;&gt;1 -->
<g id="edge2" class="edge">
<title>31&#45;&gt;1</title>
<path fill="none" stroke="black" stroke-dasharray="1,5" d="M1175.72,-634.87C1134.88,-620.43 1066.7,-596.31 1022.81,-580.79"/>
<polygon fill="black" stroke="black" points="1023.89,-577.46 1013.29,-577.42 1021.55,-584.06 1023.89,-577.46"/>
</g>
<!-- 31&#45;&gt;7 -->
<g id="edge8" class="edge">
<title>31&#45;&gt;7</title>
<path fill="none" stroke="black" stroke-dasharray="5,2" d="M1187.99,-631.76C1169.81,-619.17 1143.78,-601.16 1123.57,-587.17"/>
<polygon fill="black" stroke="black" points="1125.52,-584.26 1115.31,-581.44 1121.54,-590.01 1125.52,-584.26"/>
</g>
<!-- 31&#45;&gt;12 -->
<g id="edge13" class="edge">
<title>31&#45;&gt;12</title>
<path fill="none" stroke="black" stroke-dasharray="1,5" d="M1210,-629.82C1210,-619.19 1210,-605.31 1210,-593.2"/>
<polygon fill="black" stroke="black" points="1213.5,-593.15 1210,-583.15 1206.5,-593.15 1213.5,-593.15"/>
</g>
<!-- 31&#45;&gt;19 -->
<g id="edge20" class="edge">
<title>31&#45;&gt;19</title>
<path fill="none" stroke="gray" stroke-dasharray="5,2" d="M1230.57,-631.57C1247.45,-618.92 1271.51,-600.87 1290.12,-586.91"/>
<polygon fill="gray" stroke="gray" points="1292.34,-589.62 1298.24,-580.82 1288.14,-584.02 1292.34,-589.62"/>
</g>
<!-- 31&#45;&gt;27 -->
<g id="edge28" class="edge">
<title>31&#45;&gt;27</title>
<path fill="none" stroke="black" stroke-dasharray="5,2" d="M1243.28,-634.52C1280.85,-620.43 1342.11,-597.46 1383.21,-582.05"/>
<polygon fill="black" stroke="black" points="1384.55,-585.28 1392.69,-578.49 1382.09,-578.73 1384.55,-585.28"/>
</g>
<!-- 31&#45;&gt;28 -->
<g id="edge29" class="edge">
<title>31&#45;&gt;28</title>
<path fill="none" stroke="black" stroke-dasharray="1,5" d="M1247.04,-635.92C1254.3,-633.87 1261.87,-631.8 1269,-630 1364.26,-605.94 1389.59,-606.44 1485,-583 1489.08,-582 1493.31,-580.92 1497.55,-579.81"/>
<polygon fill="black" stroke="black" points="1498.63,-583.15 1507.39,-577.2 1496.83,-576.38 1498.63,-583.15"/>
</g>
<!-- 33 -->
<g id="node35" class="node">
<title>33</title>
<ellipse fill="none" stroke="black" cx="1666" cy="-565" rx="47.39" ry="18"/>
<text text-anchor="middle" x="1666" y="-561.3" font-family="Times,serif" font-size="14.00">Bodl (b)</text>
</g>
<!-- 31&#45;&gt;33 -->
<g id="edge34" class="edge">
<title>31&#45;&gt;33</title>
<path fill="none" stroke="black" stroke-dasharray="5,2" d="M1246.3,-635.66C1253.76,-633.58 1261.6,-631.57 1269,-630 1343.62,-614.18 1534.46,-599.17 1609,-583 1613.09,-582.11 1617.31,-581.08 1621.52,-579.97"/>
<polygon fill="black" stroke="black" points="1622.55,-583.32 1631.25,-577.28 1620.68,-576.57 1622.55,-583.32"/>
</g>
<!-- 35 -->
<g id="node37" class="node">
<title>35</title>
<ellipse fill="none" stroke="black" cx="1775" cy="-565" rx="43.59" ry="18"/>
<text text-anchor="middle" x="1775" y="-561.3" font-family="Times,serif" font-size="14.00">La2 (b)</text>
</g>
<!-- 31&#45;&gt;35 -->
<g id="edge36" class="edge">
<title>31&#45;&gt;35</title>
<path fill="none" stroke="black" d="M1245.94,-635.53C1253.5,-633.44 1261.46,-631.45 1269,-630 1347.07,-614.93 1367.91,-620.17 1447,-612 1569.25,-599.37 1601.74,-608.35 1722,-583 1725.67,-582.23 1729.44,-581.3 1733.2,-580.28"/>
<polygon fill="black" stroke="black" points="1734.43,-583.57 1743.05,-577.41 1732.47,-576.85 1734.43,-583.57"/>
<text text-anchor="middle" x="1602.5" y="-604" font-family="Times,serif" font-size="10.00">2</text>
</g>
<!-- 36 -->
<g id="node38" class="node">
<title>36</title>
<ellipse fill="none" stroke="black" cx="1887" cy="-565" rx="50.09" ry="18"/>
<text text-anchor="middle" x="1887" y="-561.3" font-family="Times,serif" font-size="14.00">V571 (b)</text>
</g>
<!-- 31&#45;&gt;36 -->
<g id="edge37" class="edge">
<title>31&#45;&gt;36</title>
<path fill="none" stroke="black" stroke-dasharray="1,5" d="M1245.58,-635.34C1253.23,-633.23 1261.33,-631.29 1269,-630 1418.66,-604.83 1458.88,-626.02 1610,-612 1707.32,-602.97 1732.33,-603.03 1828,-583 1832.11,-582.14 1836.35,-581.14 1840.58,-580.07"/>
<polygon fill="black" stroke="black" points="1841.62,-583.41 1850.39,-577.46 1839.82,-576.65 1841.62,-583.41"/>
</g>
<!-- 42 -->
<g id="node44" class="node">
<title>42</title>
<ellipse fill="none" stroke="black" cx="866" cy="-399" rx="50.09" ry="18"/>
<text text-anchor="middle" x="866" y="-395.3" font-family="Times,serif" font-size="14.00">V536 (b)</text>
</g>
<!-- 32&#45;&gt;42 -->
<g id="edge42" class="edge">
<title>32&#45;&gt;42</title>
<path fill="none" stroke="black" stroke-dasharray="5,2" d="M866,-463.82C866,-453.19 866,-439.31 866,-427.2"/>
<polygon fill="black" stroke="black" points="869.5,-427.15 866,-417.15 862.5,-427.15 869.5,-427.15"/>
<text text-anchor="middle" x="869.5" y="-438" font-family="Times,serif" font-size="10.00">2</text>
</g>
<!-- 34 -->
<g id="node36" class="node">
<title>34</title>
<ellipse fill="none" stroke="gray" stroke-dasharray="5,2" cx="804" cy="-731" rx="50.09" ry="18"/>
<text text-anchor="middle" x="804" y="-727.3" font-family="Times,serif" font-size="14.00">Savile&#45;Η</text>
</g>
<!-- 37 -->
<g id="node39" class="node">
<title>37</title>
<ellipse fill="none" stroke="black" cx="747" cy="-815" rx="53.89" ry="18"/>
<text text-anchor="middle" x="747" y="-811.3" font-family="Times,serif" font-size="14.00">aBase (a)</text>
</g>
<!-- 37&#45;&gt;6 -->
<g id="edge7" class="edge">
<title>37&#45;&gt;6</title>
<path fill="none" stroke="black" stroke-width="2" d="M718.76,-799.53C691.81,-785.71 651.11,-764.86 622.08,-749.98"/>
<polygon fill="black" stroke="black" stroke-width="2" points="623.6,-746.82 613.1,-745.38 620.4,-753.05 623.6,-746.82"/>
<text text-anchor="middle" x="679.5" y="-770" font-family="Times,serif" font-size="10.00">3</text>
</g>
<!-- 37&#45;&gt;13 -->
<g id="edge14" class="edge">
<title>37&#45;&gt;13</title>
<path fill="none" stroke="blue" stroke-dasharray="5,2" d="M735.6,-797.01C727.88,-785.5 717.55,-770.09 708.88,-757.16"/>
<polygon fill="blue" stroke="blue" points="711.67,-755.04 703.19,-748.69 705.86,-758.94 711.67,-755.04"/>
</g>
<!-- 37&#45;&gt;34 -->
<g id="edge35" class="edge">
<title>37&#45;&gt;34</title>
<path fill="none" stroke="gray" stroke-width="2" d="M758.53,-797.41C766.57,-785.85 777.43,-770.22 786.53,-757.14"/>
<polygon fill="gray" stroke="gray" stroke-width="2" points="789.65,-758.78 792.48,-748.57 783.9,-754.78 789.65,-758.78"/>
</g>
<!-- 38 -->
<g id="node40" class="node">
<title>38</title>
<ellipse fill="none" stroke="black" cx="1084" cy="-731" rx="55.79" ry="18"/>
<text text-anchor="middle" x="1084" y="-727.3" font-family="Times,serif" font-size="14.00">V1629 (a)</text>
</g>
<!-- 37&#45;&gt;38 -->
<g id="edge38" class="edge">
<title>37&#45;&gt;38</title>
<path fill="none" stroke="black" stroke-width="2" d="M789.34,-803.7C850.63,-788.78 964.03,-761.19 1030.86,-744.93"/>
<polygon fill="black" stroke="black" stroke-width="2" points="1031.88,-748.28 1040.77,-742.52 1030.22,-741.48 1031.88,-748.28"/>
<text text-anchor="middle" x="938.5" y="-770" font-family="Times,serif" font-size="10.00">3</text>
</g>
<!-- 41 -->
<g id="node43" class="node">
<title>41</title>
<ellipse fill="none" stroke="gray" stroke-dasharray="5,2" cx="1412" cy="-648" rx="36" ry="18"/>
<text text-anchor="middle" x="1412" y="-644.3" font-family="Times,serif" font-size="14.00">La2&#45;c</text>
</g>
<!-- 38&#45;&gt;41 -->
<g id="edge41" class="edge">
<title>38&#45;&gt;41</title>
<path fill="none" stroke="gray" stroke-width="2" d="M1131.34,-721.38C1187.96,-710.6 1285.35,-690.53 1367,-666 1369.77,-665.17 1372.62,-664.25 1375.48,-663.28"/>
<polygon fill="gray" stroke="gray" stroke-width="2" points="1376.83,-666.51 1385.08,-659.86 1374.49,-659.92 1376.83,-666.51"/>
</g>
<!-- 39&#45;&gt;8 -->
<g id="edge9" class="edge">
<title>39&#45;&gt;8</title>
<path fill="none" stroke="black" stroke-dasharray="5,2" d="M231.27,-546.82C232.06,-536.19 233.09,-522.31 233.98,-510.2"/>
<polygon fill="black" stroke="black" points="237.48,-510.38 234.73,-500.15 230.5,-509.87 237.48,-510.38"/>
</g>
<!-- 42&#45;&gt;24 -->
<g id="edge25" class="edge">
<title>42&#45;&gt;24</title>
<path fill="none" stroke="black" stroke-dasharray="1,5" d="M866,-380.81C866,-372.79 866,-363.05 866,-354.07"/>
<polygon fill="black" stroke="black" points="869.5,-354.03 866,-344.03 862.5,-354.03 869.5,-354.03"/>
</g>
</g>
</svg>
