<?xml version="1.0" encoding="UTF-8" standalone="no"?>
<!DOCTYPE svg PUBLIC "-//W3C//DTD SVG 1.1//EN"
 "http://www.w3.org/Graphics/SVG/1.1/DTD/svg11.dtd">
<!-- Generated by graphviz version 2.43.0 (0)
 -->
<!-- Title: textual_flow Pages: 1 -->
<svg width="1953pt" height="629pt"
 viewBox="0.00 0.00 1953.00 629.00" xmlns="http://www.w3.org/2000/svg" xmlns:xlink="http://www.w3.org/1999/xlink">
<g id="graph0" class="graph" transform="scale(1 1) rotate(0) translate(4 625)">
<title>textual_flow</title>
<polygon fill="white" stroke="transparent" points="-4,4 -4,-625 1949,-625 1949,4 -4,4"/>
<g id="clust1" class="cluster">
<title>cluster_legend</title>
<polygon fill="none" stroke="black" points="8,-559 8,-613 186,-613 186,-559 8,-559"/>
</g>
<g id="clust2" class="cluster">
<title>cluster_plot</title>
</g>
<!-- label -->
<g id="node1" class="node">
<title>label</title>
<text text-anchor="middle" x="97" y="-589.8" font-family="Times,serif" font-size="14.00">adstag1.2.40U48&#45;50</text>
<text text-anchor="middle" x="97" y="-574.8" font-family="Times,serif" font-size="14.00">Con = 3</text>
</g>
<!-- 0 -->
<g id="node2" class="node">
<title>0</title>
<ellipse fill="none" stroke="black" cx="599" cy="-419" rx="51.99" ry="18"/>
<text text-anchor="middle" x="599" y="-415.3" font-family="Times,serif" font-size="14.00">M111 (c)</text>
</g>
<!-- 3 -->
<g id="node5" class="node">
<title>3</title>
<ellipse fill="none" stroke="black" cx="701" cy="-336" rx="49.29" ry="18"/>
<text text-anchor="middle" x="701" y="-332.3" font-family="Times,serif" font-size="14.00">A336 (c)</text>
</g>
<!-- 0&#45;&gt;3 -->
<g id="edge4" class="edge">
<title>0&#45;&gt;3</title>
<path fill="none" stroke="black" stroke-dasharray="5,2" d="M619.15,-402C634.62,-389.71 656.15,-372.62 673.25,-359.04"/>
<polygon fill="black" stroke="black" points="675.58,-361.65 681.24,-352.69 671.23,-356.17 675.58,-361.65"/>
</g>
<!-- 1 -->
<g id="node3" class="node">
<title>1</title>
<ellipse fill="none" stroke="black" cx="718" cy="-419" rx="49.29" ry="18"/>
<text text-anchor="middle" x="718" y="-415.3" font-family="Times,serif" font-size="14.00">Patm (c)</text>
</g>
<!-- 2 -->
<g id="node4" class="node">
<title>2</title>
<ellipse fill="none" stroke="black" cx="818" cy="-336" rx="49.29" ry="18"/>
<text text-anchor="middle" x="818" y="-332.3" font-family="Times,serif" font-size="14.00">V560 (c)</text>
</g>
<!-- 1&#45;&gt;2 -->
<g id="edge3" class="edge">
<title>1&#45;&gt;2</title>
<path fill="none" stroke="black" stroke-width="2" d="M737.28,-402.38C752.4,-390.14 773.64,-372.93 790.54,-359.25"/>
<polygon fill="black" stroke="black" stroke-width="2" points="792.87,-361.86 798.44,-352.85 788.46,-356.42 792.87,-361.86"/>
<text text-anchor="middle" x="776.5" y="-375" font-family="Times,serif" font-size="10.00">2</text>
</g>
<!-- 28 -->
<g id="node30" class="node">
<title>28</title>
<ellipse fill="none" stroke="black" cx="929" cy="-336" rx="43.59" ry="18"/>
<text text-anchor="middle" x="929" y="-332.3" font-family="Times,serif" font-size="14.00">S32 (c)</text>
</g>
<!-- 1&#45;&gt;28 -->
<g id="edge28" class="edge">
<title>1&#45;&gt;28</title>
<path fill="none" stroke="black" stroke-dasharray="5,2" d="M750.97,-405.34C788.23,-391.04 848.89,-367.75 888.88,-352.4"/>
<polygon fill="black" stroke="black" points="890.24,-355.63 898.32,-348.78 887.73,-349.09 890.24,-355.63"/>
<text text-anchor="middle" x="839.5" y="-375" font-family="Times,serif" font-size="10.00">2</text>
</g>
<!-- 12 -->
<g id="node14" class="node">
<title>12</title>
<ellipse fill="none" stroke="black" cx="818" cy="-253" rx="55.49" ry="18"/>
<text text-anchor="middle" x="818" y="-249.3" font-family="Times,serif" font-size="14.00">V1920 (c)</text>
</g>
<!-- 2&#45;&gt;12 -->
<g id="edge12" class="edge">
<title>2&#45;&gt;12</title>
<path fill="none" stroke="black" stroke-dasharray="5,2" d="M818,-317.82C818,-307.19 818,-293.31 818,-281.2"/>
<polygon fill="black" stroke="black" points="821.5,-281.15 818,-271.15 814.5,-281.15 821.5,-281.15"/>
</g>
<!-- 4 -->
<g id="node6" class="node">
<title>4</title>
<ellipse fill="none" stroke="black" cx="829" cy="-419" rx="43.59" ry="18"/>
<text text-anchor="middle" x="829" y="-415.3" font-family="Times,serif" font-size="14.00">P74 (c)</text>
</g>
<!-- 5 -->
<g id="node7" class="node">
<title>5</title>
<ellipse fill="none" stroke="black" cx="244" cy="-419" rx="42.49" ry="18"/>
<text text-anchor="middle" x="244" y="-415.3" font-family="Times,serif" font-size="14.00">Est (h)</text>
</g>
<!-- 6 -->
<g id="node8" class="node">
<title>6</title>
<ellipse fill="none" stroke="black" cx="346" cy="-253" rx="44.39" ry="18"/>
<text text-anchor="middle" x="346" y="-249.3" font-family="Times,serif" font-size="14.00">Taur (i)</text>
</g>
<!-- 8 -->
<g id="node10" class="node">
<title>8</title>
<ellipse fill="none" stroke="black" cx="249" cy="-180" rx="47.39" ry="18"/>
<text text-anchor="middle" x="249" y="-176.3" font-family="Times,serif" font-size="14.00">Marc (i)</text>
</g>
<!-- 6&#45;&gt;8 -->
<g id="edge9" class="edge">
<title>6&#45;&gt;8</title>
<path fill="none" stroke="black" stroke-dasharray="1,5" d="M325.43,-236.94C311.63,-226.85 293.27,-213.4 277.99,-202.22"/>
<polygon fill="black" stroke="black" points="280.01,-199.36 269.88,-196.28 275.88,-205.01 280.01,-199.36"/>
</g>
<!-- 10 -->
<g id="node12" class="node">
<title>10</title>
<ellipse fill="none" stroke="black" cx="364" cy="-180" rx="50.09" ry="18"/>
<text text-anchor="middle" x="364" y="-176.3" font-family="Times,serif" font-size="14.00">M118 (i)</text>
</g>
<!-- 6&#45;&gt;10 -->
<g id="edge11" class="edge">
<title>6&#45;&gt;10</title>
<path fill="none" stroke="black" stroke-dasharray="5,2" d="M350.36,-234.81C352.41,-226.7 354.91,-216.84 357.21,-207.78"/>
<polygon fill="black" stroke="black" points="360.62,-208.58 359.68,-198.03 353.83,-206.86 360.62,-208.58"/>
</g>
<!-- 29 -->
<g id="node31" class="node">
<title>29</title>
<ellipse fill="none" stroke="black" cx="479" cy="-180" rx="47.39" ry="18"/>
<text text-anchor="middle" x="479" y="-176.3" font-family="Times,serif" font-size="14.00">V569 (j)</text>
</g>
<!-- 6&#45;&gt;29 -->
<g id="edge29" class="edge">
<title>6&#45;&gt;29</title>
<path fill="none" stroke="blue" stroke-dasharray="5,2" d="M371.64,-238.31C392.08,-227.4 420.91,-212.01 443.56,-199.92"/>
<polygon fill="blue" stroke="blue" points="445.35,-202.93 452.52,-195.13 442.05,-196.76 445.35,-202.93"/>
</g>
<!-- 7 -->
<g id="node9" class="node">
<title>7</title>
<ellipse fill="none" stroke="black" cx="302" cy="-502" rx="55.79" ry="18"/>
<text text-anchor="middle" x="302" y="-498.3" font-family="Times,serif" font-size="14.00">V1897 (h)</text>
</g>
<!-- 7&#45;&gt;5 -->
<g id="edge6" class="edge">
<title>7&#45;&gt;5</title>
<path fill="none" stroke="black" stroke-dasharray="1,5" d="M289.98,-484.22C281.84,-472.85 270.94,-457.63 261.8,-444.86"/>
<polygon fill="black" stroke="black" points="264.47,-442.58 255.8,-436.48 258.78,-446.65 264.47,-442.58"/>
</g>
<!-- 13 -->
<g id="node15" class="node">
<title>13</title>
<ellipse fill="none" stroke="black" cx="249" cy="-107" rx="46.29" ry="18"/>
<text text-anchor="middle" x="249" y="-103.3" font-family="Times,serif" font-size="14.00">Mon (c)</text>
</g>
<!-- 8&#45;&gt;13 -->
<g id="edge13" class="edge">
<title>8&#45;&gt;13</title>
<path fill="none" stroke="blue" stroke-dasharray="1,5" d="M249,-161.81C249,-153.79 249,-144.05 249,-135.07"/>
<polygon fill="blue" stroke="blue" points="252.5,-135.03 249,-125.03 245.5,-135.03 252.5,-135.03"/>
</g>
<!-- 9 -->
<g id="node11" class="node">
<title>9</title>
<ellipse fill="none" stroke="black" cx="1887" cy="-419" rx="42.49" ry="18"/>
<text text-anchor="middle" x="1887" y="-415.3" font-family="Times,serif" font-size="14.00">B39 (f)</text>
</g>
<!-- 34 -->
<g id="node36" class="node">
<title>34</title>
<ellipse fill="none" stroke="gray" stroke-dasharray="5,2" cx="364" cy="-107" rx="28.7" ry="18"/>
<text text-anchor="middle" x="364" y="-103.3" font-family="Times,serif" font-size="14.00">P18</text>
</g>
<!-- 10&#45;&gt;34 -->
<g id="edge34" class="edge">
<title>10&#45;&gt;34</title>
<path fill="none" stroke="gray" stroke-dasharray="5,2" d="M364,-161.81C364,-153.79 364,-144.05 364,-135.07"/>
<polygon fill="gray" stroke="gray" points="367.5,-135.03 364,-125.03 360.5,-135.03 367.5,-135.03"/>
</g>
<!-- 11 -->
<g id="node13" class="node">
<title>11</title>
<ellipse fill="none" stroke="black" cx="970" cy="-586" rx="53.89" ry="18"/>
<text text-anchor="middle" x="970" y="-582.3" font-family="Times,serif" font-size="14.00">aBase (a)</text>
</g>
<!-- 11&#45;&gt;7 -->
<g id="edge8" class="edge">
<title>11&#45;&gt;7</title>
<path fill="none" stroke="blue" d="M920.34,-578.9C800.37,-564.18 495.03,-526.69 363.65,-510.57"/>
<polygon fill="blue" stroke="blue" points="363.71,-507.05 353.36,-509.3 362.86,-514 363.71,-507.05"/>
</g>
<!-- 17 -->
<g id="node19" class="node">
<title>17</title>
<ellipse fill="none" stroke="black" cx="510" cy="-502" rx="48.19" ry="18"/>
<text text-anchor="middle" x="510" y="-498.3" font-family="Times,serif" font-size="14.00">Neap (i)</text>
</g>
<!-- 11&#45;&gt;17 -->
<g id="edge17" class="edge">
<title>11&#45;&gt;17</title>
<path fill="none" stroke="blue" stroke-width="2" d="M923.36,-576.69C837.04,-561.3 652.93,-528.48 562.43,-512.35"/>
<polygon fill="blue" stroke="blue" stroke-width="2" points="562.85,-508.87 552.39,-510.56 561.62,-515.76 562.85,-508.87"/>
</g>
<!-- 19 -->
<g id="node21" class="node">
<title>19</title>
<ellipse fill="none" stroke="black" cx="662" cy="-502" rx="42.79" ry="18"/>
<text text-anchor="middle" x="662" y="-498.3" font-family="Times,serif" font-size="14.00">La2 (e)</text>
</g>
<!-- 11&#45;&gt;19 -->
<g id="edge19" class="edge">
<title>11&#45;&gt;19</title>
<path fill="none" stroke="blue" stroke-width="2" d="M926.73,-574.95C875.63,-562.87 788.21,-541.52 714,-520 710.71,-519.04 707.31,-518.02 703.9,-516.97"/>
<polygon fill="blue" stroke="blue" stroke-width="2" points="704.94,-513.62 694.35,-513.95 702.83,-520.3 704.94,-513.62"/>
</g>
<!-- 21 -->
<g id="node23" class="node">
<title>21</title>
<ellipse fill="none" stroke="black" cx="767" cy="-502" rx="44.39" ry="18"/>
<text text-anchor="middle" x="767" y="-498.3" font-family="Times,serif" font-size="14.00">P01 (a)</text>
</g>
<!-- 11&#45;&gt;21 -->
<g id="edge21" class="edge">
<title>11&#45;&gt;21</title>
<path fill="none" stroke="black" d="M936.93,-571.64C901.46,-557.31 845.1,-534.55 807.11,-519.2"/>
<polygon fill="black" stroke="black" points="807.98,-515.78 797.4,-515.28 805.36,-522.27 807.98,-515.78"/>
<text text-anchor="middle" x="883.5" y="-541" font-family="Times,serif" font-size="10.00">3</text>
</g>
<!-- 22 -->
<g id="node24" class="node">
<title>22</title>
<ellipse fill="none" stroke="black" cx="873" cy="-502" rx="44.39" ry="18"/>
<text text-anchor="middle" x="873" y="-498.3" font-family="Times,serif" font-size="14.00">A25 (b)</text>
</g>
<!-- 11&#45;&gt;22 -->
<g id="edge22" class="edge">
<title>11&#45;&gt;22</title>
<path fill="none" stroke="blue" stroke-dasharray="5,2" d="M950.84,-568.8C936.17,-556.4 915.76,-539.15 899.52,-525.42"/>
<polygon fill="blue" stroke="blue" points="901.36,-522.39 891.47,-518.61 896.84,-527.74 901.36,-522.39"/>
</g>
<!-- 24 -->
<g id="node26" class="node">
<title>24</title>
<ellipse fill="none" stroke="gray" stroke-dasharray="5,2" cx="970" cy="-502" rx="34.39" ry="18"/>
<text text-anchor="middle" x="970" y="-498.3" font-family="Times,serif" font-size="14.00">S249</text>
</g>
<!-- 11&#45;&gt;24 -->
<g id="edge24" class="edge">
<title>11&#45;&gt;24</title>
<path fill="none" stroke="gray" d="M970,-567.61C970,-556.77 970,-542.6 970,-530.29"/>
<polygon fill="gray" stroke="gray" points="973.5,-530.08 970,-520.08 966.5,-530.08 973.5,-530.08"/>
</g>
<!-- 26 -->
<g id="node28" class="node">
<title>26</title>
<ellipse fill="none" stroke="black" cx="1071" cy="-502" rx="48.19" ry="18"/>
<text text-anchor="middle" x="1071" y="-498.3" font-family="Times,serif" font-size="14.00">La22 (c)</text>
</g>
<!-- 11&#45;&gt;26 -->
<g id="edge26" class="edge">
<title>11&#45;&gt;26</title>
<path fill="none" stroke="blue" stroke-dasharray="5,2" d="M989.47,-569.19C1004.84,-556.71 1026.47,-539.15 1043.59,-525.25"/>
<polygon fill="blue" stroke="blue" points="1046.03,-527.78 1051.59,-518.76 1041.62,-522.35 1046.03,-527.78"/>
</g>
<!-- 32 -->
<g id="node34" class="node">
<title>32</title>
<ellipse fill="none" stroke="black" cx="1177" cy="-502" rx="40.09" ry="18"/>
<text text-anchor="middle" x="1177" y="-498.3" font-family="Times,serif" font-size="14.00">Pal (a)</text>
</g>
<!-- 11&#45;&gt;32 -->
<g id="edge32" class="edge">
<title>11&#45;&gt;32</title>
<path fill="none" stroke="black" d="M1003.26,-571.83C1040.13,-557.22 1099.53,-533.69 1138.42,-518.28"/>
<polygon fill="black" stroke="black" points="1139.83,-521.49 1147.84,-514.55 1137.25,-514.98 1139.83,-521.49"/>
<text text-anchor="middle" x="1088.5" y="-541" font-family="Times,serif" font-size="10.00">2</text>
</g>
<!-- 36 -->
<g id="node38" class="node">
<title>36</title>
<ellipse fill="none" stroke="black" cx="1281" cy="-502" rx="45.49" ry="18"/>
<text text-anchor="middle" x="1281" y="-498.3" font-family="Times,serif" font-size="14.00">Nan (h)</text>
</g>
<!-- 11&#45;&gt;36 -->
<g id="edge36" class="edge">
<title>11&#45;&gt;36</title>
<path fill="none" stroke="blue" d="M1012.76,-574.85C1063.73,-562.59 1151.4,-540.98 1226,-520 1229.58,-518.99 1233.28,-517.92 1236.99,-516.82"/>
<polygon fill="blue" stroke="blue" points="1238.19,-520.12 1246.75,-513.88 1236.17,-513.41 1238.19,-520.12"/>
</g>
<!-- 39 -->
<g id="node41" class="node">
<title>39</title>
<ellipse fill="none" stroke="black" cx="1398" cy="-502" rx="53.09" ry="18"/>
<text text-anchor="middle" x="1398" y="-498.3" font-family="Times,serif" font-size="14.00">LaSM (d)</text>
</g>
<!-- 11&#45;&gt;39 -->
<g id="edge39" class="edge">
<title>11&#45;&gt;39</title>
<path fill="none" stroke="blue" d="M1018.1,-577.81C1088.16,-567.02 1222.25,-545.2 1335,-520 1339.41,-519.01 1343.98,-517.92 1348.54,-516.78"/>
<polygon fill="blue" stroke="blue" points="1349.66,-520.11 1358.47,-514.23 1347.92,-513.33 1349.66,-520.11"/>
</g>
<!-- 42 -->
<g id="node44" class="node">
<title>42</title>
<ellipse fill="none" stroke="black" cx="1512" cy="-502" rx="42.79" ry="18"/>
<text text-anchor="middle" x="1512" y="-498.3" font-family="Times,serif" font-size="14.00">Bas (a)</text>
</g>
<!-- 11&#45;&gt;42 -->
<g id="edge42" class="edge">
<title>11&#45;&gt;42</title>
<path fill="none" stroke="black" stroke-width="2" d="M1022.06,-581.26C1112.17,-574.09 1302.7,-555.83 1460,-520 1463.59,-519.18 1467.29,-518.22 1470.98,-517.18"/>
<polygon fill="black" stroke="black" stroke-width="2" points="1472.07,-520.51 1480.64,-514.28 1470.05,-513.8 1472.07,-520.51"/>
<text text-anchor="middle" x="1370.5" y="-541" font-family="Times,serif" font-size="10.00">3</text>
</g>
<!-- 35 -->
<g id="node37" class="node">
<title>35</title>
<ellipse fill="none" stroke="black" cx="249" cy="-34" rx="40.09" ry="18"/>
<text text-anchor="middle" x="249" y="-30.3" font-family="Times,serif" font-size="14.00">Sin (c)</text>
</g>
<!-- 13&#45;&gt;35 -->
<g id="edge35" class="edge">
<title>13&#45;&gt;35</title>
<path fill="none" stroke="black" stroke-dasharray="1,5" d="M249,-88.81C249,-80.79 249,-71.05 249,-62.07"/>
<polygon fill="black" stroke="black" points="252.5,-62.03 249,-52.03 245.5,-62.03 252.5,-62.03"/>
</g>
<!-- 14 -->
<g id="node16" class="node">
<title>14</title>
<ellipse fill="none" stroke="gray" stroke-dasharray="5,2" cx="238" cy="-336" rx="36" ry="18"/>
<text text-anchor="middle" x="238" y="-332.3" font-family="Times,serif" font-size="14.00">La2&#45;c</text>
</g>
<!-- 15 -->
<g id="node17" class="node">
<title>15</title>
<ellipse fill="none" stroke="black" cx="946" cy="-419" rx="55.49" ry="18"/>
<text text-anchor="middle" x="946" y="-415.3" font-family="Times,serif" font-size="14.00">V2036 (c)</text>
</g>
<!-- 16 -->
<g id="node18" class="node">
<title>16</title>
<ellipse fill="none" stroke="black" cx="1071" cy="-419" rx="51.99" ry="18"/>
<text text-anchor="middle" x="1071" y="-415.3" font-family="Times,serif" font-size="14.00">M136 (c)</text>
</g>
<!-- 23 -->
<g id="node25" class="node">
<title>23</title>
<ellipse fill="none" stroke="black" cx="358" cy="-419" rx="53.09" ry="18"/>
<text text-anchor="middle" x="358" y="-415.3" font-family="Times,serif" font-size="14.00">V1629 (i)</text>
</g>
<!-- 17&#45;&gt;23 -->
<g id="edge23" class="edge">
<title>17&#45;&gt;23</title>
<path fill="none" stroke="black" stroke-dasharray="1,5" d="M483.52,-486.89C458.76,-473.7 421.58,-453.88 394.11,-439.24"/>
<polygon fill="black" stroke="black" points="395.67,-436.11 385.2,-434.49 392.38,-442.28 395.67,-436.11"/>
</g>
<!-- 18 -->
<g id="node20" class="node">
<title>18</title>
<ellipse fill="none" stroke="black" cx="1190" cy="-419" rx="49.29" ry="18"/>
<text text-anchor="middle" x="1190" y="-415.3" font-family="Times,serif" font-size="14.00">V565 (c)</text>
</g>
<!-- 20 -->
<g id="node22" class="node">
<title>20</title>
<ellipse fill="none" stroke="black" cx="578" cy="-253" rx="65.79" ry="18"/>
<text text-anchor="middle" x="578" y="-249.3" font-family="Times,serif" font-size="14.00">Savile&#45;Η (d)</text>
</g>
<!-- 37 -->
<g id="node39" class="node">
<title>37</title>
<ellipse fill="none" stroke="black" cx="479" cy="-419" rx="50.09" ry="18"/>
<text text-anchor="middle" x="479" y="-415.3" font-family="Times,serif" font-size="14.00">V566 (d)</text>
</g>
<!-- 22&#45;&gt;37 -->
<g id="edge37" class="edge">
<title>22&#45;&gt;37</title>
<path fill="none" stroke="blue" stroke-dasharray="5,2" d="M840.42,-489.73C833.71,-487.64 826.67,-485.62 820,-484 696.51,-454.07 661.92,-465.08 538,-437 533.91,-436.07 529.68,-435.03 525.45,-433.92"/>
<polygon fill="blue" stroke="blue" points="526.22,-430.51 515.65,-431.27 524.39,-437.26 526.22,-430.51"/>
</g>
<!-- 23&#45;&gt;14 -->
<g id="edge14" class="edge">
<title>23&#45;&gt;14</title>
<path fill="none" stroke="gray" stroke-width="2" d="M335.15,-402.57C315.87,-389.56 288.15,-370.85 267.26,-356.75"/>
<polygon fill="gray" stroke="gray" stroke-width="2" points="269.01,-353.71 258.76,-351.02 265.09,-359.51 269.01,-353.71"/>
</g>
<!-- 33 -->
<g id="node35" class="node">
<title>33</title>
<ellipse fill="none" stroke="black" cx="339" cy="-336" rx="47.39" ry="18"/>
<text text-anchor="middle" x="339" y="-332.3" font-family="Times,serif" font-size="14.00">V568 (i)</text>
</g>
<!-- 23&#45;&gt;33 -->
<g id="edge33" class="edge">
<title>23&#45;&gt;33</title>
<path fill="none" stroke="black" stroke-dasharray="5,2" d="M353.97,-400.82C351.48,-390.19 348.22,-376.31 345.38,-364.2"/>
<polygon fill="black" stroke="black" points="348.71,-363.09 343.02,-354.15 341.9,-364.69 348.71,-363.09"/>
</g>
<!-- 40 -->
<g id="node42" class="node">
<title>40</title>
<ellipse fill="none" stroke="black" cx="454" cy="-336" rx="50.09" ry="18"/>
<text text-anchor="middle" x="454" y="-332.3" font-family="Times,serif" font-size="14.00">V536 (a)</text>
</g>
<!-- 23&#45;&gt;40 -->
<g id="edge40" class="edge">
<title>23&#45;&gt;40</title>
<path fill="none" stroke="blue" stroke-dasharray="5,2" d="M376.97,-402C391.3,-389.9 411.16,-373.14 427.13,-359.67"/>
<polygon fill="blue" stroke="blue" points="429.69,-362.09 435.07,-352.97 425.17,-356.74 429.69,-362.09"/>
</g>
<!-- 25 -->
<g id="node27" class="node">
<title>25</title>
<ellipse fill="none" stroke="black" cx="1307" cy="-419" rx="49.29" ry="18"/>
<text text-anchor="middle" x="1307" y="-415.3" font-family="Times,serif" font-size="14.00">V571 (c)</text>
</g>
<!-- 26&#45;&gt;0 -->
<g id="edge1" class="edge">
<title>26&#45;&gt;0</title>
<path fill="none" stroke="black" stroke-dasharray="1,5" d="M1035.65,-489.64C1028.23,-487.54 1020.4,-485.52 1013,-484 948.1,-470.64 930.7,-474.64 865,-466 773.77,-454 750.07,-455.84 660,-437 655.65,-436.09 651.14,-435.04 646.65,-433.92"/>
<polygon fill="black" stroke="black" points="647.44,-430.51 636.88,-431.39 645.68,-437.29 647.44,-430.51"/>
</g>
<!-- 26&#45;&gt;1 -->
<g id="edge2" class="edge">
<title>26&#45;&gt;1</title>
<path fill="none" stroke="black" stroke-dasharray="1,5" d="M1034.94,-489.89C1027.7,-487.81 1020.13,-485.75 1013,-484 986.93,-477.61 802.07,-443.39 776,-437 772.15,-436.06 768.18,-435.02 764.2,-433.94"/>
<polygon fill="black" stroke="black" points="764.95,-430.52 754.37,-431.2 763.07,-437.26 764.95,-430.52"/>
<text text-anchor="middle" x="922.5" y="-458" font-family="Times,serif" font-size="10.00">3</text>
</g>
<!-- 26&#45;&gt;4 -->
<g id="edge5" class="edge">
<title>26&#45;&gt;4</title>
<path fill="none" stroke="black" stroke-dasharray="1,5" d="M1036.33,-489.39C992.77,-474.81 918.06,-449.81 871.22,-434.13"/>
<polygon fill="black" stroke="black" points="872.26,-430.79 861.67,-430.94 870.04,-437.43 872.26,-430.79"/>
</g>
<!-- 26&#45;&gt;15 -->
<g id="edge15" class="edge">
<title>26&#45;&gt;15</title>
<path fill="none" stroke="black" stroke-dasharray="5,2" d="M1048.07,-486.14C1028.5,-473.46 1000.12,-455.07 978.26,-440.9"/>
<polygon fill="black" stroke="black" points="979.93,-437.81 969.63,-435.31 976.12,-443.69 979.93,-437.81"/>
</g>
<!-- 26&#45;&gt;16 -->
<g id="edge16" class="edge">
<title>26&#45;&gt;16</title>
<path fill="none" stroke="black" d="M1071,-483.82C1071,-473.19 1071,-459.31 1071,-447.2"/>
<polygon fill="black" stroke="black" points="1074.5,-447.15 1071,-437.15 1067.5,-447.15 1074.5,-447.15"/>
<text text-anchor="middle" x="1074.5" y="-458" font-family="Times,serif" font-size="10.00">2</text>
</g>
<!-- 26&#45;&gt;18 -->
<g id="edge18" class="edge">
<title>26&#45;&gt;18</title>
<path fill="none" stroke="black" stroke-dasharray="5,2" d="M1093.1,-485.95C1111.69,-473.3 1138.46,-455.08 1159.15,-441"/>
<polygon fill="black" stroke="black" points="1161.31,-443.76 1167.61,-435.24 1157.37,-437.97 1161.31,-443.76"/>
</g>
<!-- 26&#45;&gt;25 -->
<g id="edge25" class="edge">
<title>26&#45;&gt;25</title>
<path fill="none" stroke="black" stroke-dasharray="1,5" d="M1105.32,-489.22C1146.88,-474.96 1216.99,-450.89 1262.63,-435.23"/>
<polygon fill="black" stroke="black" points="1263.94,-438.48 1272.26,-431.92 1261.66,-431.86 1263.94,-438.48"/>
</g>
<!-- 27 -->
<g id="node29" class="node">
<title>27</title>
<ellipse fill="none" stroke="black" cx="1422" cy="-419" rx="48.19" ry="18"/>
<text text-anchor="middle" x="1422" y="-415.3" font-family="Times,serif" font-size="14.00">La35 (c)</text>
</g>
<!-- 26&#45;&gt;27 -->
<g id="edge27" class="edge">
<title>26&#45;&gt;27</title>
<path fill="none" stroke="black" stroke-dasharray="1,5" d="M1106.74,-489.78C1113.75,-487.74 1121.08,-485.71 1128,-484 1232.23,-458.18 1260.77,-462.82 1365,-437 1368.78,-436.06 1372.69,-435.03 1376.6,-433.96"/>
<polygon fill="black" stroke="black" points="1377.6,-437.31 1386.26,-431.22 1375.69,-430.58 1377.6,-437.31"/>
</g>
<!-- 38 -->
<g id="node40" class="node">
<title>38</title>
<ellipse fill="none" stroke="black" cx="1537" cy="-419" rx="49.29" ry="18"/>
<text text-anchor="middle" x="1537" y="-415.3" font-family="Times,serif" font-size="14.00">A116 (c)</text>
</g>
<!-- 26&#45;&gt;38 -->
<g id="edge38" class="edge">
<title>26&#45;&gt;38</title>
<path fill="none" stroke="black" stroke-dasharray="5,2" d="M1106.06,-489.68C1113.27,-487.6 1120.84,-485.58 1128,-484 1181.95,-472.07 1196.4,-474.41 1251,-466 1281.26,-461.34 1288.67,-459.16 1319,-455 1389.9,-445.28 1408.85,-451.12 1479,-437 1483.11,-436.17 1487.35,-435.19 1491.57,-434.12"/>
<polygon fill="black" stroke="black" points="1492.6,-437.47 1501.35,-431.5 1490.79,-430.71 1492.6,-437.47"/>
</g>
<!-- 41 -->
<g id="node43" class="node">
<title>41</title>
<ellipse fill="none" stroke="black" cx="1651" cy="-419" rx="46.29" ry="18"/>
<text text-anchor="middle" x="1651" y="-415.3" font-family="Times,serif" font-size="14.00">Bodl (c)</text>
</g>
<!-- 26&#45;&gt;41 -->
<g id="edge41" class="edge">
<title>26&#45;&gt;41</title>
<path fill="none" stroke="black" stroke-dasharray="5,2" d="M1105.71,-489.51C1113.01,-487.42 1120.71,-485.44 1128,-484 1179.16,-473.89 1543.86,-447.23 1595,-437 1599.09,-436.18 1603.31,-435.19 1607.51,-434.1"/>
<polygon fill="black" stroke="black" points="1608.51,-437.45 1617.21,-431.41 1606.64,-430.71 1608.51,-437.45"/>
</g>
<!-- 30 -->
<g id="node32" class="node">
<title>30</title>
<ellipse fill="none" stroke="black" cx="1771" cy="-419" rx="55.79" ry="18"/>
<text text-anchor="middle" x="1771" y="-415.3" font-family="Times,serif" font-size="14.00">V2250 (g)</text>
</g>
<!-- 31 -->
<g id="node33" class="node">
<title>31</title>
<ellipse fill="none" stroke="black" cx="578" cy="-336" rx="55.79" ry="18"/>
<text text-anchor="middle" x="578" y="-332.3" font-family="Times,serif" font-size="14.00">V1639 (d)</text>
</g>
<!-- 31&#45;&gt;20 -->
<g id="edge20" class="edge">
<title>31&#45;&gt;20</title>
<path fill="none" stroke="black" d="M578,-317.82C578,-307.19 578,-293.31 578,-281.2"/>
<polygon fill="black" stroke="black" points="581.5,-281.15 578,-271.15 574.5,-281.15 581.5,-281.15"/>
<text text-anchor="middle" x="581.5" y="-292" font-family="Times,serif" font-size="10.00">2</text>
</g>
<!-- 33&#45;&gt;6 -->
<g id="edge7" class="edge">
<title>33&#45;&gt;6</title>
<path fill="none" stroke="black" stroke-dasharray="1,5" d="M340.48,-317.82C341.4,-307.19 342.6,-293.31 343.65,-281.2"/>
<polygon fill="black" stroke="black" points="347.14,-281.42 344.52,-271.15 340.17,-280.81 347.14,-281.42"/>
</g>
<!-- 36&#45;&gt;30 -->
<g id="edge30" class="edge">
<title>36&#45;&gt;30</title>
<path fill="none" stroke="blue" stroke-dasharray="5,2" d="M1314.5,-489.64C1321.54,-487.53 1328.97,-485.52 1336,-484 1498.02,-448.95 1543.25,-468.48 1706,-437 1710.69,-436.09 1715.55,-435.04 1720.39,-433.91"/>
<polygon fill="blue" stroke="blue" points="1721.38,-437.27 1730.27,-431.51 1719.73,-430.47 1721.38,-437.27"/>
</g>
<!-- 37&#45;&gt;31 -->
<g id="edge31" class="edge">
<title>37&#45;&gt;31</title>
<path fill="none" stroke="black" stroke-dasharray="1,5" d="M498.56,-402C513.47,-389.79 534.2,-372.84 550.74,-359.3"/>
<polygon fill="black" stroke="black" points="552.96,-362.01 558.48,-352.97 548.53,-356.59 552.96,-362.01"/>
</g>
<!-- 39&#45;&gt;9 -->
<g id="edge10" class="edge">
<title>39&#45;&gt;9</title>
<path fill="none" stroke="blue" stroke-dasharray="5,2" d="M1436.49,-489.53C1444.23,-487.48 1452.34,-485.52 1460,-484 1625.19,-451.2 1671.76,-474.25 1836,-437 1839.38,-436.23 1842.85,-435.33 1846.32,-434.35"/>
<polygon fill="blue" stroke="blue" points="1847.43,-437.67 1855.99,-431.42 1845.4,-430.97 1847.43,-437.67"/>
</g>
</g>
</svg>
