<?xml version="1.0" encoding="UTF-8" standalone="no"?>
<!DOCTYPE svg PUBLIC "-//W3C//DTD SVG 1.1//EN"
 "http://www.w3.org/Graphics/SVG/1.1/DTD/svg11.dtd">
<!-- Generated by graphviz version 2.43.0 (0)
 -->
<!-- Title: textual_flow Pages: 1 -->
<svg width="2266pt" height="755pt"
 viewBox="0.00 0.00 2266.00 755.00" xmlns="http://www.w3.org/2000/svg" xmlns:xlink="http://www.w3.org/1999/xlink">
<g id="graph0" class="graph" transform="scale(1 1) rotate(0) translate(4 751)">
<title>textual_flow</title>
<polygon fill="white" stroke="transparent" points="-4,4 -4,-751 2262,-751 2262,4 -4,4"/>
<g id="clust1" class="cluster">
<title>cluster_legend</title>
<polygon fill="none" stroke="black" points="8,-685 8,-739 164,-739 164,-685 8,-685"/>
</g>
<g id="clust2" class="cluster">
<title>cluster_plot</title>
</g>
<!-- label -->
<g id="node1" class="node">
<title>label</title>
<text text-anchor="middle" x="86" y="-715.8" font-family="Times,serif" font-size="14.00">adstag1.2.40U24</text>
<text text-anchor="middle" x="86" y="-700.8" font-family="Times,serif" font-size="14.00">Con = 5</text>
</g>
<!-- 0 -->
<g id="node2" class="node">
<title>0</title>
<ellipse fill="none" stroke="black" cx="1241" cy="-555" rx="52.79" ry="18"/>
<text text-anchor="middle" x="1241" y="-551.3" font-family="Times,serif" font-size="14.00">M111 (a)</text>
</g>
<!-- 3 -->
<g id="node5" class="node">
<title>3</title>
<ellipse fill="none" stroke="black" cx="1242" cy="-482" rx="50.09" ry="18"/>
<text text-anchor="middle" x="1242" y="-478.3" font-family="Times,serif" font-size="14.00">A336 (a)</text>
</g>
<!-- 0&#45;&gt;3 -->
<g id="edge4" class="edge">
<title>0&#45;&gt;3</title>
<path fill="none" stroke="black" stroke-dasharray="5,2" d="M1241.24,-536.81C1241.36,-528.79 1241.49,-519.05 1241.62,-510.07"/>
<polygon fill="black" stroke="black" points="1245.12,-510.08 1241.76,-500.03 1238.12,-509.98 1245.12,-510.08"/>
</g>
<!-- 1 -->
<g id="node3" class="node">
<title>1</title>
<ellipse fill="none" stroke="black" cx="692" cy="-555" rx="50.09" ry="18"/>
<text text-anchor="middle" x="692" y="-551.3" font-family="Times,serif" font-size="14.00">Patm (a)</text>
</g>
<!-- 2 -->
<g id="node4" class="node">
<title>2</title>
<ellipse fill="none" stroke="black" cx="231" cy="-628" rx="49.29" ry="18"/>
<text text-anchor="middle" x="231" y="-624.3" font-family="Times,serif" font-size="14.00">V560 (c)</text>
</g>
<!-- 12 -->
<g id="node14" class="node">
<title>12</title>
<ellipse fill="none" stroke="black" cx="235" cy="-555" rx="55.49" ry="18"/>
<text text-anchor="middle" x="235" y="-551.3" font-family="Times,serif" font-size="14.00">V1920 (c)</text>
</g>
<!-- 2&#45;&gt;12 -->
<g id="edge12" class="edge">
<title>2&#45;&gt;12</title>
<path fill="none" stroke="black" stroke-dasharray="5,2" d="M231.97,-609.81C232.42,-601.79 232.97,-592.05 233.47,-583.07"/>
<polygon fill="black" stroke="black" points="236.97,-583.21 234.04,-573.03 229.98,-582.82 236.97,-583.21"/>
</g>
<!-- 4 -->
<g id="node6" class="node">
<title>4</title>
<ellipse fill="none" stroke="black" cx="1356" cy="-555" rx="44.39" ry="18"/>
<text text-anchor="middle" x="1356" y="-551.3" font-family="Times,serif" font-size="14.00">P74 (a)</text>
</g>
<!-- 5 -->
<g id="node7" class="node">
<title>5</title>
<ellipse fill="none" stroke="black" cx="350" cy="-555" rx="41.69" ry="18"/>
<text text-anchor="middle" x="350" y="-551.3" font-family="Times,serif" font-size="14.00">Est (a)</text>
</g>
<!-- 6 -->
<g id="node8" class="node">
<title>6</title>
<ellipse fill="none" stroke="black" cx="568" cy="-409" rx="46.59" ry="18"/>
<text text-anchor="middle" x="568" y="-405.3" font-family="Times,serif" font-size="14.00">Taur (a)</text>
</g>
<!-- 8 -->
<g id="node10" class="node">
<title>8</title>
<ellipse fill="none" stroke="black" cx="522" cy="-336" rx="50.09" ry="18"/>
<text text-anchor="middle" x="522" y="-332.3" font-family="Times,serif" font-size="14.00">Marc (a)</text>
</g>
<!-- 6&#45;&gt;8 -->
<g id="edge9" class="edge">
<title>6&#45;&gt;8</title>
<path fill="none" stroke="black" stroke-dasharray="1,5" d="M557.1,-391.17C551.48,-382.51 544.53,-371.77 538.29,-362.14"/>
<polygon fill="black" stroke="black" points="541.2,-360.19 532.82,-353.71 535.32,-364 541.2,-360.19"/>
</g>
<!-- 29 -->
<g id="node31" class="node">
<title>29</title>
<ellipse fill="none" stroke="black" cx="640" cy="-336" rx="50.09" ry="18"/>
<text text-anchor="middle" x="640" y="-332.3" font-family="Times,serif" font-size="14.00">V569 (a)</text>
</g>
<!-- 6&#45;&gt;29 -->
<g id="edge29" class="edge">
<title>6&#45;&gt;29</title>
<path fill="none" stroke="black" stroke-dasharray="5,2" d="M584.34,-391.89C593.82,-382.54 605.93,-370.6 616.43,-360.25"/>
<polygon fill="black" stroke="black" points="619.06,-362.56 623.73,-353.05 614.15,-357.58 619.06,-362.56"/>
</g>
<!-- 7 -->
<g id="node9" class="node">
<title>7</title>
<ellipse fill="none" stroke="black" cx="354" cy="-628" rx="55.79" ry="18"/>
<text text-anchor="middle" x="354" y="-624.3" font-family="Times,serif" font-size="14.00">V1897 (a)</text>
</g>
<!-- 7&#45;&gt;5 -->
<g id="edge6" class="edge">
<title>7&#45;&gt;5</title>
<path fill="none" stroke="black" stroke-dasharray="1,5" d="M353.03,-609.81C352.58,-601.79 352.03,-592.05 351.53,-583.07"/>
<polygon fill="black" stroke="black" points="355.02,-582.82 350.96,-573.03 348.03,-583.21 355.02,-582.82"/>
</g>
<!-- 42 -->
<g id="node44" class="node">
<title>42</title>
<ellipse fill="none" stroke="black" cx="452" cy="-555" rx="42.49" ry="18"/>
<text text-anchor="middle" x="452" y="-551.3" font-family="Times,serif" font-size="14.00">Bas (c)</text>
</g>
<!-- 7&#45;&gt;42 -->
<g id="edge42" class="edge">
<title>7&#45;&gt;42</title>
<path fill="none" stroke="blue" d="M375.75,-611.24C389.61,-601.2 407.73,-588.07 422.83,-577.13"/>
<polygon fill="blue" stroke="blue" points="425.27,-579.69 431.32,-570.98 421.17,-574.02 425.27,-579.69"/>
</g>
<!-- 13 -->
<g id="node15" class="node">
<title>13</title>
<ellipse fill="none" stroke="black" cx="522" cy="-263" rx="46.29" ry="18"/>
<text text-anchor="middle" x="522" y="-259.3" font-family="Times,serif" font-size="14.00">Mon (a)</text>
</g>
<!-- 8&#45;&gt;13 -->
<g id="edge13" class="edge">
<title>8&#45;&gt;13</title>
<path fill="none" stroke="black" stroke-dasharray="1,5" d="M522,-317.81C522,-309.79 522,-300.05 522,-291.07"/>
<polygon fill="black" stroke="black" points="525.5,-291.03 522,-281.03 518.5,-291.03 525.5,-291.03"/>
</g>
<!-- 9 -->
<g id="node11" class="node">
<title>9</title>
<ellipse fill="none" stroke="black" cx="472" cy="-628" rx="44.39" ry="18"/>
<text text-anchor="middle" x="472" y="-624.3" font-family="Times,serif" font-size="14.00">B39 (a)</text>
</g>
<!-- 10 -->
<g id="node12" class="node">
<title>10</title>
<ellipse fill="none" stroke="black" cx="522" cy="-107" rx="53.09" ry="18"/>
<text text-anchor="middle" x="522" y="-103.3" font-family="Times,serif" font-size="14.00">M118 (b)</text>
</g>
<!-- 34 -->
<g id="node36" class="node">
<title>34</title>
<ellipse fill="none" stroke="gray" stroke-dasharray="5,2" cx="522" cy="-34" rx="28.7" ry="18"/>
<text text-anchor="middle" x="522" y="-30.3" font-family="Times,serif" font-size="14.00">P18</text>
</g>
<!-- 10&#45;&gt;34 -->
<g id="edge34" class="edge">
<title>10&#45;&gt;34</title>
<path fill="none" stroke="gray" stroke-dasharray="5,2" d="M522,-88.81C522,-80.79 522,-71.05 522,-62.07"/>
<polygon fill="gray" stroke="gray" points="525.5,-62.03 522,-52.03 518.5,-62.03 525.5,-62.03"/>
</g>
<!-- 11 -->
<g id="node13" class="node">
<title>11</title>
<ellipse fill="none" stroke="black" cx="880" cy="-712" rx="53.89" ry="18"/>
<text text-anchor="middle" x="880" y="-708.3" font-family="Times,serif" font-size="14.00">aBase (a)</text>
</g>
<!-- 11&#45;&gt;2 -->
<g id="edge3" class="edge">
<title>11&#45;&gt;2</title>
<path fill="none" stroke="blue" stroke-width="2" d="M826.88,-708.61C722.72,-703.16 484.75,-686.98 289,-646 285.07,-645.18 281.02,-644.22 276.97,-643.19"/>
<polygon fill="blue" stroke="blue" stroke-width="2" points="277.54,-639.72 266.98,-640.5 275.72,-646.48 277.54,-639.72"/>
</g>
<!-- 11&#45;&gt;7 -->
<g id="edge8" class="edge">
<title>11&#45;&gt;7</title>
<path fill="none" stroke="black" d="M828.81,-705.96C743.34,-697.06 566.4,-676.56 419,-646 414.32,-645.03 409.47,-643.93 404.63,-642.78"/>
<polygon fill="black" stroke="black" points="405.31,-639.34 394.76,-640.35 403.63,-646.14 405.31,-639.34"/>
</g>
<!-- 11&#45;&gt;9 -->
<g id="edge10" class="edge">
<title>11&#45;&gt;9</title>
<path fill="none" stroke="black" stroke-width="2" d="M831.34,-704.13C762.55,-693.96 633.18,-673.13 525,-646 521.57,-645.14 518.03,-644.18 514.5,-643.16"/>
<polygon fill="black" stroke="black" stroke-width="2" points="515.19,-639.71 504.61,-640.19 513.17,-646.42 515.19,-639.71"/>
<text text-anchor="middle" x="653.5" y="-667" font-family="Times,serif" font-size="10.00">2</text>
</g>
<!-- 16 -->
<g id="node18" class="node">
<title>16</title>
<ellipse fill="none" stroke="black" cx="587" cy="-628" rx="53.09" ry="18"/>
<text text-anchor="middle" x="587" y="-624.3" font-family="Times,serif" font-size="14.00">M136 (b)</text>
</g>
<!-- 11&#45;&gt;16 -->
<g id="edge16" class="edge">
<title>11&#45;&gt;16</title>
<path fill="none" stroke="blue" stroke-width="2" d="M840.7,-699.67C807.29,-690.07 758.04,-676 715,-664 685.71,-655.84 678.33,-654.02 649,-646 645,-644.91 640.86,-643.77 636.7,-642.63"/>
<polygon fill="blue" stroke="blue" stroke-width="2" points="637.59,-639.25 627.02,-639.98 635.74,-646 637.59,-639.25"/>
</g>
<!-- 17 -->
<g id="node19" class="node">
<title>17</title>
<ellipse fill="none" stroke="black" cx="708" cy="-628" rx="50.09" ry="18"/>
<text text-anchor="middle" x="708" y="-624.3" font-family="Times,serif" font-size="14.00">Neap (a)</text>
</g>
<!-- 11&#45;&gt;17 -->
<g id="edge17" class="edge">
<title>11&#45;&gt;17</title>
<path fill="none" stroke="black" stroke-width="2" d="M852.44,-696.37C834.27,-686.87 809.88,-674.37 788,-664 775.34,-658 761.39,-651.77 748.73,-646.26"/>
<polygon fill="black" stroke="black" stroke-width="2" points="749.92,-642.96 739.35,-642.2 747.14,-649.38 749.92,-642.96"/>
</g>
<!-- 19 -->
<g id="node21" class="node">
<title>19</title>
<ellipse fill="none" stroke="black" cx="818" cy="-628" rx="42.49" ry="18"/>
<text text-anchor="middle" x="818" y="-624.3" font-family="Times,serif" font-size="14.00">La2 (c)</text>
</g>
<!-- 11&#45;&gt;19 -->
<g id="edge19" class="edge">
<title>11&#45;&gt;19</title>
<path fill="none" stroke="blue" stroke-width="2" d="M867.45,-694.41C858.57,-682.66 846.51,-666.71 836.53,-653.5"/>
<polygon fill="blue" stroke="blue" stroke-width="2" points="839.14,-651.16 830.32,-645.29 833.56,-655.38 839.14,-651.16"/>
</g>
<!-- 20 -->
<g id="node22" class="node">
<title>20</title>
<ellipse fill="none" stroke="black" cx="943" cy="-628" rx="64.99" ry="18"/>
<text text-anchor="middle" x="943" y="-624.3" font-family="Times,serif" font-size="14.00">Savile&#45;Η (a)</text>
</g>
<!-- 11&#45;&gt;20 -->
<g id="edge20" class="edge">
<title>11&#45;&gt;20</title>
<path fill="none" stroke="black" stroke-width="2" d="M892.75,-694.41C901.66,-682.81 913.71,-667.13 923.78,-654.02"/>
<polygon fill="black" stroke="black" stroke-width="2" points="926.74,-655.91 930.05,-645.85 921.19,-651.65 926.74,-655.91"/>
</g>
<!-- 22 -->
<g id="node24" class="node">
<title>22</title>
<ellipse fill="none" stroke="black" cx="1070" cy="-628" rx="44.39" ry="18"/>
<text text-anchor="middle" x="1070" y="-624.3" font-family="Times,serif" font-size="14.00">A25 (a)</text>
</g>
<!-- 11&#45;&gt;22 -->
<g id="edge22" class="edge">
<title>11&#45;&gt;22</title>
<path fill="none" stroke="black" stroke-dasharray="5,2" d="M911.8,-697.28C944.73,-683.06 996.2,-660.85 1031.43,-645.65"/>
<polygon fill="black" stroke="black" points="1033.11,-648.73 1040.9,-641.56 1030.33,-642.31 1033.11,-648.73"/>
</g>
<!-- 24 -->
<g id="node26" class="node">
<title>24</title>
<ellipse fill="none" stroke="gray" stroke-dasharray="5,2" cx="1167" cy="-628" rx="34.39" ry="18"/>
<text text-anchor="middle" x="1167" y="-624.3" font-family="Times,serif" font-size="14.00">S249</text>
</g>
<!-- 11&#45;&gt;24 -->
<g id="edge24" class="edge">
<title>11&#45;&gt;24</title>
<path fill="none" stroke="gray" d="M922.99,-700.98C971.87,-689.25 1053.87,-668.53 1123,-646 1125.61,-645.15 1128.29,-644.23 1130.98,-643.27"/>
<polygon fill="gray" stroke="gray" points="1132.47,-646.46 1140.64,-639.71 1130.05,-639.89 1132.47,-646.46"/>
</g>
<!-- 26 -->
<g id="node28" class="node">
<title>26</title>
<ellipse fill="none" stroke="black" cx="1545" cy="-628" rx="48.99" ry="18"/>
<text text-anchor="middle" x="1545" y="-624.3" font-family="Times,serif" font-size="14.00">La22 (a)</text>
</g>
<!-- 11&#45;&gt;26 -->
<g id="edge26" class="edge">
<title>11&#45;&gt;26</title>
<path fill="none" stroke="black" stroke-dasharray="5,2" d="M929.71,-704.87C1051.11,-689.9 1362.03,-651.56 1489.36,-635.86"/>
<polygon fill="black" stroke="black" points="1489.79,-639.33 1499.29,-634.64 1488.94,-632.39 1489.79,-639.33"/>
</g>
<!-- 36 -->
<g id="node38" class="node">
<title>36</title>
<ellipse fill="none" stroke="black" cx="1657" cy="-628" rx="45.49" ry="18"/>
<text text-anchor="middle" x="1657" y="-624.3" font-family="Times,serif" font-size="14.00">Nan (b)</text>
</g>
<!-- 11&#45;&gt;36 -->
<g id="edge36" class="edge">
<title>11&#45;&gt;36</title>
<path fill="none" stroke="blue" d="M934.08,-710.1C1055.09,-707.23 1356.46,-695.29 1603,-646 1606.69,-645.26 1610.48,-644.37 1614.26,-643.38"/>
<polygon fill="blue" stroke="blue" points="1615.5,-646.66 1624.17,-640.57 1613.59,-639.93 1615.5,-646.66"/>
</g>
<!-- 39 -->
<g id="node41" class="node">
<title>39</title>
<ellipse fill="none" stroke="black" cx="1774" cy="-628" rx="53.09" ry="18"/>
<text text-anchor="middle" x="1774" y="-624.3" font-family="Times,serif" font-size="14.00">LaSM (b)</text>
</g>
<!-- 11&#45;&gt;39 -->
<g id="edge39" class="edge">
<title>11&#45;&gt;39</title>
<path fill="none" stroke="blue" d="M933.34,-708.65C1035.75,-703.93 1266.97,-692.25 1461,-675 1572.42,-665.09 1601.15,-667.07 1711,-646 1715.69,-645.1 1720.54,-644.04 1725.38,-642.89"/>
<polygon fill="blue" stroke="blue" points="1726.37,-646.25 1735.23,-640.43 1724.68,-639.45 1726.37,-646.25"/>
</g>
<!-- 35 -->
<g id="node37" class="node">
<title>35</title>
<ellipse fill="none" stroke="black" cx="522" cy="-190" rx="41.69" ry="18"/>
<text text-anchor="middle" x="522" y="-186.3" font-family="Times,serif" font-size="14.00">Sin (b)</text>
</g>
<!-- 13&#45;&gt;35 -->
<g id="edge35" class="edge">
<title>13&#45;&gt;35</title>
<path fill="none" stroke="blue" stroke-dasharray="1,5" d="M522,-244.81C522,-236.79 522,-227.05 522,-218.07"/>
<polygon fill="blue" stroke="blue" points="525.5,-218.03 522,-208.03 518.5,-218.03 525.5,-218.03"/>
</g>
<!-- 14 -->
<g id="node16" class="node">
<title>14</title>
<ellipse fill="none" stroke="gray" stroke-dasharray="5,2" cx="464" cy="-482" rx="36" ry="18"/>
<text text-anchor="middle" x="464" y="-478.3" font-family="Times,serif" font-size="14.00">La2&#45;c</text>
</g>
<!-- 15 -->
<g id="node17" class="node">
<title>15</title>
<ellipse fill="none" stroke="black" cx="1474" cy="-555" rx="55.79" ry="18"/>
<text text-anchor="middle" x="1474" y="-551.3" font-family="Times,serif" font-size="14.00">V2036 (a)</text>
</g>
<!-- 23 -->
<g id="node25" class="node">
<title>23</title>
<ellipse fill="none" stroke="black" cx="568" cy="-555" rx="55.79" ry="18"/>
<text text-anchor="middle" x="568" y="-551.3" font-family="Times,serif" font-size="14.00">V1629 (a)</text>
</g>
<!-- 17&#45;&gt;23 -->
<g id="edge23" class="edge">
<title>17&#45;&gt;23</title>
<path fill="none" stroke="black" stroke-dasharray="1,5" d="M680.34,-612.97C658.95,-602.13 629.12,-587 605.57,-575.06"/>
<polygon fill="black" stroke="black" points="607.06,-571.89 596.56,-570.49 603.9,-578.13 607.06,-571.89"/>
</g>
<!-- 18 -->
<g id="node20" class="node">
<title>18</title>
<ellipse fill="none" stroke="black" cx="1598" cy="-555" rx="50.09" ry="18"/>
<text text-anchor="middle" x="1598" y="-551.3" font-family="Times,serif" font-size="14.00">V565 (a)</text>
</g>
<!-- 21 -->
<g id="node23" class="node">
<title>21</title>
<ellipse fill="none" stroke="black" cx="804" cy="-555" rx="44.39" ry="18"/>
<text text-anchor="middle" x="804" y="-551.3" font-family="Times,serif" font-size="14.00">P01 (a)</text>
</g>
<!-- 22&#45;&gt;1 -->
<g id="edge2" class="edge">
<title>22&#45;&gt;1</title>
<path fill="none" stroke="black" stroke-dasharray="1,5" d="M1037.73,-615.68C1030.94,-613.57 1023.78,-611.55 1017,-610 900.63,-583.45 867.75,-597.81 751,-573 746.89,-572.13 742.66,-571.12 738.42,-570.04"/>
<polygon fill="black" stroke="black" points="739.18,-566.62 728.62,-567.43 737.38,-573.39 739.18,-566.62"/>
</g>
<!-- 22&#45;&gt;21 -->
<g id="edge21" class="edge">
<title>22&#45;&gt;21</title>
<path fill="none" stroke="black" stroke-dasharray="5,2" d="M1037.05,-615.96C1030.44,-613.88 1023.52,-611.8 1017,-610 946.63,-590.61 927.37,-592.39 857,-573 853.64,-572.07 850.17,-571.07 846.69,-570.03"/>
<polygon fill="black" stroke="black" points="847.54,-566.63 836.95,-567.04 845.48,-573.32 847.54,-566.63"/>
</g>
<!-- 28 -->
<g id="node30" class="node">
<title>28</title>
<ellipse fill="none" stroke="black" cx="910" cy="-555" rx="44.39" ry="18"/>
<text text-anchor="middle" x="910" y="-551.3" font-family="Times,serif" font-size="14.00">S32 (a)</text>
</g>
<!-- 22&#45;&gt;28 -->
<g id="edge28" class="edge">
<title>22&#45;&gt;28</title>
<path fill="none" stroke="black" stroke-dasharray="5,2" d="M1041.03,-614.14C1014.97,-602.58 976.53,-585.52 948.02,-572.87"/>
<polygon fill="black" stroke="black" points="949.32,-569.62 938.76,-568.76 946.48,-576.02 949.32,-569.62"/>
</g>
<!-- 32 -->
<g id="node34" class="node">
<title>32</title>
<ellipse fill="none" stroke="black" cx="1012" cy="-555" rx="40.09" ry="18"/>
<text text-anchor="middle" x="1012" y="-551.3" font-family="Times,serif" font-size="14.00">Pal (a)</text>
</g>
<!-- 22&#45;&gt;32 -->
<g id="edge32" class="edge">
<title>22&#45;&gt;32</title>
<path fill="none" stroke="black" stroke-dasharray="5,2" d="M1056.55,-610.53C1049.23,-601.57 1040.03,-590.31 1031.9,-580.36"/>
<polygon fill="black" stroke="black" points="1034.42,-577.91 1025.38,-572.38 1029,-582.34 1034.42,-577.91"/>
</g>
<!-- 37 -->
<g id="node39" class="node">
<title>37</title>
<ellipse fill="none" stroke="black" cx="1120" cy="-555" rx="50.09" ry="18"/>
<text text-anchor="middle" x="1120" y="-551.3" font-family="Times,serif" font-size="14.00">V566 (a)</text>
</g>
<!-- 22&#45;&gt;37 -->
<g id="edge37" class="edge">
<title>22&#45;&gt;37</title>
<path fill="none" stroke="black" stroke-dasharray="5,2" d="M1081.6,-610.53C1087.75,-601.79 1095.45,-590.86 1102.34,-581.08"/>
<polygon fill="black" stroke="black" points="1105.22,-583.06 1108.12,-572.87 1099.5,-579.03 1105.22,-583.06"/>
</g>
<!-- 23&#45;&gt;14 -->
<g id="edge14" class="edge">
<title>23&#45;&gt;14</title>
<path fill="none" stroke="gray" stroke-width="2" d="M545.18,-538.42C529.84,-527.95 509.5,-514.06 493.01,-502.81"/>
<polygon fill="gray" stroke="gray" stroke-width="2" points="494.54,-499.61 484.31,-496.86 490.59,-505.39 494.54,-499.61"/>
</g>
<!-- 33 -->
<g id="node35" class="node">
<title>33</title>
<ellipse fill="none" stroke="black" cx="568" cy="-482" rx="50.09" ry="18"/>
<text text-anchor="middle" x="568" y="-478.3" font-family="Times,serif" font-size="14.00">V568 (a)</text>
</g>
<!-- 23&#45;&gt;33 -->
<g id="edge33" class="edge">
<title>23&#45;&gt;33</title>
<path fill="none" stroke="black" stroke-dasharray="5,2" d="M568,-536.81C568,-528.79 568,-519.05 568,-510.07"/>
<polygon fill="black" stroke="black" points="571.5,-510.03 568,-500.03 564.5,-510.03 571.5,-510.03"/>
</g>
<!-- 40 -->
<g id="node42" class="node">
<title>40</title>
<ellipse fill="none" stroke="black" cx="685" cy="-482" rx="49.29" ry="18"/>
<text text-anchor="middle" x="685" y="-478.3" font-family="Times,serif" font-size="14.00">V536 (c)</text>
</g>
<!-- 23&#45;&gt;40 -->
<g id="edge40" class="edge">
<title>23&#45;&gt;40</title>
<path fill="none" stroke="blue" stroke-dasharray="5,2" d="M593.1,-538.77C610.29,-528.33 633.28,-514.39 651.96,-503.05"/>
<polygon fill="blue" stroke="blue" points="654.01,-505.9 660.74,-497.72 650.38,-499.92 654.01,-505.9"/>
</g>
<!-- 25 -->
<g id="node27" class="node">
<title>25</title>
<ellipse fill="none" stroke="black" cx="1716" cy="-555" rx="50.09" ry="18"/>
<text text-anchor="middle" x="1716" y="-551.3" font-family="Times,serif" font-size="14.00">V571 (a)</text>
</g>
<!-- 26&#45;&gt;0 -->
<g id="edge1" class="edge">
<title>26&#45;&gt;0</title>
<path fill="none" stroke="black" stroke-dasharray="1,5" d="M1503.32,-618.34C1454.98,-608.14 1372.98,-590.39 1303,-573 1298.86,-571.97 1294.57,-570.87 1290.27,-569.74"/>
<polygon fill="black" stroke="black" points="1290.85,-566.27 1280.28,-567.08 1289.04,-573.04 1290.85,-566.27"/>
</g>
<!-- 26&#45;&gt;4 -->
<g id="edge5" class="edge">
<title>26&#45;&gt;4</title>
<path fill="none" stroke="black" stroke-dasharray="1,5" d="M1512.08,-614.63C1480.12,-602.63 1431.52,-584.37 1397.05,-571.42"/>
<polygon fill="black" stroke="black" points="1397.88,-567.99 1387.29,-567.75 1395.42,-574.55 1397.88,-567.99"/>
</g>
<!-- 26&#45;&gt;15 -->
<g id="edge15" class="edge">
<title>26&#45;&gt;15</title>
<path fill="none" stroke="black" stroke-dasharray="5,2" d="M1528.89,-610.89C1519.67,-601.67 1507.94,-589.94 1497.68,-579.68"/>
<polygon fill="black" stroke="black" points="1500.09,-577.14 1490.54,-572.54 1495.14,-582.09 1500.09,-577.14"/>
</g>
<!-- 26&#45;&gt;18 -->
<g id="edge18" class="edge">
<title>26&#45;&gt;18</title>
<path fill="none" stroke="black" stroke-dasharray="5,2" d="M1557.29,-610.53C1563.82,-601.79 1571.98,-590.86 1579.28,-581.08"/>
<polygon fill="black" stroke="black" points="1582.23,-582.98 1585.41,-572.87 1576.62,-578.79 1582.23,-582.98"/>
</g>
<!-- 26&#45;&gt;25 -->
<g id="edge25" class="edge">
<title>26&#45;&gt;25</title>
<path fill="none" stroke="black" stroke-dasharray="1,5" d="M1576.36,-613.98C1604.12,-602.45 1644.8,-585.56 1675.1,-572.98"/>
<polygon fill="black" stroke="black" points="1676.65,-576.13 1684.55,-569.06 1673.97,-569.66 1676.65,-576.13"/>
</g>
<!-- 27 -->
<g id="node29" class="node">
<title>27</title>
<ellipse fill="none" stroke="black" cx="1833" cy="-555" rx="48.99" ry="18"/>
<text text-anchor="middle" x="1833" y="-551.3" font-family="Times,serif" font-size="14.00">La35 (a)</text>
</g>
<!-- 26&#45;&gt;27 -->
<g id="edge27" class="edge">
<title>26&#45;&gt;27</title>
<path fill="none" stroke="black" stroke-dasharray="1,5" d="M1578.85,-614.95C1601.57,-607.22 1632.29,-597.47 1660,-591 1710.38,-579.24 1724.52,-584.3 1775,-573 1778.92,-572.12 1782.96,-571.13 1787.01,-570.07"/>
<polygon fill="black" stroke="black" points="1788.27,-573.35 1796.99,-567.34 1786.42,-566.6 1788.27,-573.35"/>
</g>
<!-- 38 -->
<g id="node40" class="node">
<title>38</title>
<ellipse fill="none" stroke="black" cx="1950" cy="-555" rx="50.09" ry="18"/>
<text text-anchor="middle" x="1950" y="-551.3" font-family="Times,serif" font-size="14.00">A116 (a)</text>
</g>
<!-- 26&#45;&gt;38 -->
<g id="edge38" class="edge">
<title>26&#45;&gt;38</title>
<path fill="none" stroke="black" stroke-dasharray="5,2" d="M1581.8,-616.14C1588.83,-614.08 1596.14,-611.96 1603,-610 1633.17,-601.36 1640.11,-596.53 1671,-591 1767.57,-573.72 1794.5,-590.67 1891,-573 1895.36,-572.2 1899.87,-571.21 1904.35,-570.12"/>
<polygon fill="black" stroke="black" points="1905.28,-573.49 1914.08,-567.58 1903.52,-566.72 1905.28,-573.49"/>
</g>
<!-- 41 -->
<g id="node43" class="node">
<title>41</title>
<ellipse fill="none" stroke="black" cx="2065" cy="-555" rx="46.59" ry="18"/>
<text text-anchor="middle" x="2065" y="-551.3" font-family="Times,serif" font-size="14.00">Bodl (a)</text>
</g>
<!-- 26&#45;&gt;41 -->
<g id="edge41" class="edge">
<title>26&#45;&gt;41</title>
<path fill="none" stroke="black" stroke-dasharray="5,2" d="M1580.06,-615.4C1607.26,-606.97 1646.09,-596.17 1681,-591 1825.43,-569.63 1865.23,-598.39 2009,-573 2013.11,-572.27 2017.34,-571.34 2021.55,-570.29"/>
<polygon fill="black" stroke="black" points="2022.52,-573.66 2031.26,-567.66 2020.69,-566.9 2022.52,-573.66"/>
</g>
<!-- 30 -->
<g id="node32" class="node">
<title>30</title>
<ellipse fill="none" stroke="black" cx="2186" cy="-555" rx="55.79" ry="18"/>
<text text-anchor="middle" x="2186" y="-551.3" font-family="Times,serif" font-size="14.00">V2250 (d)</text>
</g>
<!-- 31 -->
<g id="node33" class="node">
<title>31</title>
<ellipse fill="none" stroke="black" cx="1118" cy="-482" rx="55.79" ry="18"/>
<text text-anchor="middle" x="1118" y="-478.3" font-family="Times,serif" font-size="14.00">V1639 (a)</text>
</g>
<!-- 33&#45;&gt;6 -->
<g id="edge7" class="edge">
<title>33&#45;&gt;6</title>
<path fill="none" stroke="black" stroke-dasharray="1,5" d="M568,-463.81C568,-455.79 568,-446.05 568,-437.07"/>
<polygon fill="black" stroke="black" points="571.5,-437.03 568,-427.03 564.5,-437.03 571.5,-437.03"/>
</g>
<!-- 35&#45;&gt;10 -->
<g id="edge11" class="edge">
<title>35&#45;&gt;10</title>
<path fill="none" stroke="black" stroke-dasharray="1,5" d="M522,-171.82C522,-161.19 522,-147.31 522,-135.2"/>
<polygon fill="black" stroke="black" points="525.5,-135.15 522,-125.15 518.5,-135.15 525.5,-135.15"/>
<text text-anchor="middle" x="525.5" y="-146" font-family="Times,serif" font-size="10.00">4</text>
</g>
<!-- 36&#45;&gt;30 -->
<g id="edge30" class="edge">
<title>36&#45;&gt;30</title>
<path fill="none" stroke="blue" stroke-dasharray="5,2" d="M1690.16,-615.53C1697.29,-613.4 1704.84,-611.41 1712,-610 1891.06,-574.63 1941.2,-604.42 2121,-573 2125.78,-572.17 2130.71,-571.15 2135.64,-570.04"/>
<polygon fill="blue" stroke="blue" points="2136.74,-573.38 2145.66,-567.66 2135.12,-566.57 2136.74,-573.38"/>
</g>
<!-- 37&#45;&gt;31 -->
<g id="edge31" class="edge">
<title>37&#45;&gt;31</title>
<path fill="none" stroke="black" stroke-dasharray="1,5" d="M1119.52,-536.81C1119.29,-528.79 1119.02,-519.05 1118.76,-510.07"/>
<polygon fill="black" stroke="black" points="1122.26,-509.93 1118.48,-500.03 1115.26,-510.12 1122.26,-509.93"/>
</g>
</g>
</svg>
