<?xml version="1.0" encoding="UTF-8" standalone="no"?>
<!DOCTYPE svg PUBLIC "-//W3C//DTD SVG 1.1//EN"
 "http://www.w3.org/Graphics/SVG/1.1/DTD/svg11.dtd">
<!-- Generated by graphviz version 2.43.0 (0)
 -->
<!-- Title: textual_flow Pages: 1 -->
<svg width="2200pt" height="672pt"
 viewBox="0.00 0.00 2200.00 672.00" xmlns="http://www.w3.org/2000/svg" xmlns:xlink="http://www.w3.org/1999/xlink">
<g id="graph0" class="graph" transform="scale(1 1) rotate(0) translate(4 668)">
<title>textual_flow</title>
<polygon fill="white" stroke="transparent" points="-4,4 -4,-668 2196,-668 2196,4 -4,4"/>
<g id="clust1" class="cluster">
<title>cluster_legend</title>
<polygon fill="none" stroke="black" points="8,-602 8,-656 186,-656 186,-602 8,-602"/>
</g>
<g id="clust2" class="cluster">
<title>cluster_plot</title>
</g>
<!-- label -->
<g id="node1" class="node">
<title>label</title>
<text text-anchor="middle" x="97" y="-632.8" font-family="Times,serif" font-size="14.00">adstag1.3.28U24&#45;28</text>
<text text-anchor="middle" x="97" y="-617.8" font-family="Times,serif" font-size="14.00">Con = 3</text>
</g>
<!-- 0 -->
<g id="node2" class="node">
<title>0</title>
<ellipse fill="none" stroke="black" cx="1128" cy="-34" rx="41.69" ry="18"/>
<text text-anchor="middle" x="1128" y="-30.3" font-family="Times,serif" font-size="14.00">Sin (b)</text>
</g>
<!-- 1 -->
<g id="node3" class="node">
<title>1</title>
<ellipse fill="none" stroke="black" cx="506" cy="-472" rx="44.39" ry="18"/>
<text text-anchor="middle" x="506" y="-468.3" font-family="Times,serif" font-size="14.00">S32 (a)</text>
</g>
<!-- 2 -->
<g id="node4" class="node">
<title>2</title>
<ellipse fill="none" stroke="black" cx="1305" cy="-472" rx="49.29" ry="18"/>
<text text-anchor="middle" x="1305" y="-468.3" font-family="Times,serif" font-size="14.00">La35 (b)</text>
</g>
<!-- 3 -->
<g id="node5" class="node">
<title>3</title>
<ellipse fill="none" stroke="black" cx="1420" cy="-472" rx="47.39" ry="18"/>
<text text-anchor="middle" x="1420" y="-468.3" font-family="Times,serif" font-size="14.00">Bodl (b)</text>
</g>
<!-- 4 -->
<g id="node6" class="node">
<title>4</title>
<ellipse fill="none" stroke="black" cx="608" cy="-472" rx="40.09" ry="18"/>
<text text-anchor="middle" x="608" y="-468.3" font-family="Times,serif" font-size="14.00">Pal (a)</text>
</g>
<!-- 5 -->
<g id="node7" class="node">
<title>5</title>
<ellipse fill="none" stroke="black" cx="710" cy="-472" rx="44.39" ry="18"/>
<text text-anchor="middle" x="710" y="-468.3" font-family="Times,serif" font-size="14.00">P01 (a)</text>
</g>
<!-- 6 -->
<g id="node8" class="node">
<title>6</title>
<ellipse fill="none" stroke="black" cx="822" cy="-399" rx="55.79" ry="18"/>
<text text-anchor="middle" x="822" y="-395.3" font-family="Times,serif" font-size="14.00">V1639 (a)</text>
</g>
<!-- 7 -->
<g id="node9" class="node">
<title>7</title>
<ellipse fill="none" stroke="black" cx="258" cy="-472" rx="55.79" ry="18"/>
<text text-anchor="middle" x="258" y="-468.3" font-family="Times,serif" font-size="14.00">V1897 (a)</text>
</g>
<!-- 12 -->
<g id="node14" class="node">
<title>12</title>
<ellipse fill="none" stroke="black" cx="252" cy="-399" rx="42.79" ry="18"/>
<text text-anchor="middle" x="252" y="-395.3" font-family="Times,serif" font-size="14.00">Bas (a)</text>
</g>
<!-- 7&#45;&gt;12 -->
<g id="edge13" class="edge">
<title>7&#45;&gt;12</title>
<path fill="none" stroke="black" d="M256.55,-453.81C255.87,-445.79 255.05,-436.05 254.29,-427.07"/>
<polygon fill="black" stroke="black" points="257.77,-426.7 253.44,-417.03 250.79,-427.29 257.77,-426.7"/>
</g>
<!-- 38 -->
<g id="node40" class="node">
<title>38</title>
<ellipse fill="none" stroke="black" cx="355" cy="-399" rx="42.49" ry="18"/>
<text text-anchor="middle" x="355" y="-395.3" font-family="Times,serif" font-size="14.00">Est (b)</text>
</g>
<!-- 7&#45;&gt;38 -->
<g id="edge38" class="edge">
<title>7&#45;&gt;38</title>
<path fill="none" stroke="blue" stroke-dasharray="1,5" d="M279.53,-455.24C293.24,-445.2 311.18,-432.07 326.13,-421.13"/>
<polygon fill="blue" stroke="blue" points="328.53,-423.71 334.53,-414.98 324.39,-418.07 328.53,-423.71"/>
</g>
<!-- 8 -->
<g id="node10" class="node">
<title>8</title>
<ellipse fill="none" stroke="black" cx="1182" cy="-472" rx="55.79" ry="18"/>
<text text-anchor="middle" x="1182" y="-468.3" font-family="Times,serif" font-size="14.00">V1629 (a)</text>
</g>
<!-- 9 -->
<g id="node11" class="node">
<title>9</title>
<ellipse fill="none" stroke="gray" stroke-dasharray="5,2" cx="1142" cy="-399" rx="36" ry="18"/>
<text text-anchor="middle" x="1142" y="-395.3" font-family="Times,serif" font-size="14.00">La2&#45;c</text>
</g>
<!-- 8&#45;&gt;9 -->
<g id="edge10" class="edge">
<title>8&#45;&gt;9</title>
<path fill="none" stroke="gray" stroke-width="2" d="M1172.52,-454.17C1167.69,-445.6 1161.71,-434.99 1156.33,-425.44"/>
<polygon fill="gray" stroke="gray" stroke-width="2" points="1159.37,-423.7 1151.41,-416.71 1153.27,-427.14 1159.37,-423.7"/>
</g>
<!-- 40 -->
<g id="node42" class="node">
<title>40</title>
<ellipse fill="none" stroke="black" cx="1246" cy="-399" rx="50.09" ry="18"/>
<text text-anchor="middle" x="1246" y="-395.3" font-family="Times,serif" font-size="14.00">V536 (a)</text>
</g>
<!-- 8&#45;&gt;40 -->
<g id="edge40" class="edge">
<title>8&#45;&gt;40</title>
<path fill="none" stroke="black" stroke-dasharray="5,2" d="M1196.84,-454.53C1205,-445.48 1215.27,-434.09 1224.31,-424.06"/>
<polygon fill="black" stroke="black" points="1227.14,-426.15 1231.24,-416.38 1221.94,-421.46 1227.14,-426.15"/>
</g>
<!-- 10 -->
<g id="node12" class="node">
<title>10</title>
<ellipse fill="none" stroke="black" cx="1128" cy="-180" rx="50.09" ry="18"/>
<text text-anchor="middle" x="1128" y="-176.3" font-family="Times,serif" font-size="14.00">Marc (b)</text>
</g>
<!-- 21 -->
<g id="node23" class="node">
<title>21</title>
<ellipse fill="none" stroke="black" cx="1128" cy="-107" rx="46.59" ry="18"/>
<text text-anchor="middle" x="1128" y="-103.3" font-family="Times,serif" font-size="14.00">Mon (b)</text>
</g>
<!-- 10&#45;&gt;21 -->
<g id="edge21" class="edge">
<title>10&#45;&gt;21</title>
<path fill="none" stroke="black" stroke-dasharray="1,5" d="M1128,-161.81C1128,-153.79 1128,-144.05 1128,-135.07"/>
<polygon fill="black" stroke="black" points="1131.5,-135.03 1128,-125.03 1124.5,-135.03 1131.5,-135.03"/>
</g>
<!-- 11 -->
<g id="node13" class="node">
<title>11</title>
<ellipse fill="none" stroke="black" cx="388" cy="-555" rx="44.69" ry="18"/>
<text text-anchor="middle" x="388" y="-551.3" font-family="Times,serif" font-size="14.00">Nan (a)</text>
</g>
<!-- 11&#45;&gt;7 -->
<g id="edge8" class="edge">
<title>11&#45;&gt;7</title>
<path fill="none" stroke="black" stroke-dasharray="1,5" d="M364.76,-539.52C344.38,-526.82 314.52,-508.22 291.55,-493.91"/>
<polygon fill="black" stroke="black" points="293.15,-490.78 282.81,-488.46 289.45,-496.72 293.15,-490.78"/>
</g>
<!-- 32 -->
<g id="node34" class="node">
<title>32</title>
<ellipse fill="none" stroke="black" cx="388" cy="-472" rx="55.79" ry="18"/>
<text text-anchor="middle" x="388" y="-468.3" font-family="Times,serif" font-size="14.00">V2250 (a)</text>
</g>
<!-- 11&#45;&gt;32 -->
<g id="edge32" class="edge">
<title>11&#45;&gt;32</title>
<path fill="none" stroke="black" stroke-dasharray="5,2" d="M388,-536.82C388,-526.19 388,-512.31 388,-500.2"/>
<polygon fill="black" stroke="black" points="391.5,-500.15 388,-490.15 384.5,-500.15 391.5,-500.15"/>
</g>
<!-- 13 -->
<g id="node15" class="node">
<title>13</title>
<ellipse fill="none" stroke="black" cx="1539" cy="-472" rx="53.09" ry="18"/>
<text text-anchor="middle" x="1539" y="-468.3" font-family="Times,serif" font-size="14.00">M136 (b)</text>
</g>
<!-- 14 -->
<g id="node16" class="node">
<title>14</title>
<ellipse fill="none" stroke="black" cx="1066" cy="-629" rx="53.89" ry="18"/>
<text text-anchor="middle" x="1066" y="-625.3" font-family="Times,serif" font-size="14.00">aBase (a)</text>
</g>
<!-- 14&#45;&gt;11 -->
<g id="edge12" class="edge">
<title>14&#45;&gt;11</title>
<path fill="none" stroke="black" d="M1015.32,-622.62C890.33,-609.34 568.28,-575.14 440.94,-561.62"/>
<polygon fill="black" stroke="black" points="440.99,-558.11 430.68,-560.53 440.25,-565.07 440.99,-558.11"/>
</g>
<!-- 17 -->
<g id="node19" class="node">
<title>17</title>
<ellipse fill="none" stroke="black" cx="617" cy="-555" rx="44.39" ry="18"/>
<text text-anchor="middle" x="617" y="-551.3" font-family="Times,serif" font-size="14.00">A25 (a)</text>
</g>
<!-- 14&#45;&gt;17 -->
<g id="edge17" class="edge">
<title>14&#45;&gt;17</title>
<path fill="none" stroke="black" stroke-dasharray="5,2" d="M1014.23,-623.68C938.1,-616.68 791.81,-600.78 670,-573 666.4,-572.18 662.69,-571.22 658.98,-570.19"/>
<polygon fill="black" stroke="black" points="659.85,-566.8 649.27,-567.32 657.87,-573.51 659.85,-566.8"/>
</g>
<!-- 18 -->
<g id="node20" class="node">
<title>18</title>
<ellipse fill="none" stroke="gray" stroke-dasharray="5,2" cx="719" cy="-555" rx="40.09" ry="18"/>
<text text-anchor="middle" x="719" y="-551.3" font-family="Times,serif" font-size="14.00">V2036</text>
</g>
<!-- 14&#45;&gt;18 -->
<g id="edge18" class="edge">
<title>14&#45;&gt;18</title>
<path fill="none" stroke="gray" d="M1016.98,-621.28C957.51,-612.6 854.47,-595.84 768,-573 764.87,-572.17 761.64,-571.24 758.42,-570.25"/>
<polygon fill="gray" stroke="gray" points="759.43,-566.9 748.84,-567.16 757.28,-573.56 759.43,-566.9"/>
</g>
<!-- 24 -->
<g id="node26" class="node">
<title>24</title>
<ellipse fill="none" stroke="black" cx="827" cy="-555" rx="50.09" ry="18"/>
<text text-anchor="middle" x="827" y="-551.3" font-family="Times,serif" font-size="14.00">Patm (a)</text>
</g>
<!-- 14&#45;&gt;24 -->
<g id="edge24" class="edge">
<title>14&#45;&gt;24</title>
<path fill="none" stroke="black" d="M1027.33,-616.35C985.45,-603.73 918.63,-583.6 873.81,-570.1"/>
<polygon fill="black" stroke="black" points="874.62,-566.69 864.04,-567.16 872.6,-573.39 874.62,-566.69"/>
</g>
<!-- 27 -->
<g id="node29" class="node">
<title>27</title>
<ellipse fill="none" stroke="black" cx="945" cy="-555" rx="50.09" ry="18"/>
<text text-anchor="middle" x="945" y="-551.3" font-family="Times,serif" font-size="14.00">V560 (a)</text>
</g>
<!-- 14&#45;&gt;27 -->
<g id="edge27" class="edge">
<title>14&#45;&gt;27</title>
<path fill="none" stroke="black" stroke-width="2" d="M1040.63,-612.91C1022.61,-602.18 998.21,-587.66 978.57,-575.97"/>
<polygon fill="black" stroke="black" stroke-width="2" points="980.3,-572.93 969.92,-570.83 976.72,-578.95 980.3,-572.93"/>
</g>
<!-- 30 -->
<g id="node32" class="node">
<title>30</title>
<ellipse fill="none" stroke="black" cx="1066" cy="-555" rx="52.79" ry="18"/>
<text text-anchor="middle" x="1066" y="-551.3" font-family="Times,serif" font-size="14.00">LaSM (a)</text>
</g>
<!-- 14&#45;&gt;30 -->
<g id="edge30" class="edge">
<title>14&#45;&gt;30</title>
<path fill="none" stroke="black" d="M1066,-610.94C1066,-602.81 1066,-592.88 1066,-583.7"/>
<polygon fill="black" stroke="black" points="1069.5,-583.44 1066,-573.44 1062.5,-583.44 1069.5,-583.44"/>
</g>
<!-- 31 -->
<g id="node33" class="node">
<title>31</title>
<ellipse fill="none" stroke="black" cx="1187" cy="-555" rx="50.09" ry="18"/>
<text text-anchor="middle" x="1187" y="-551.3" font-family="Times,serif" font-size="14.00">Neap (a)</text>
</g>
<!-- 14&#45;&gt;31 -->
<g id="edge31" class="edge">
<title>14&#45;&gt;31</title>
<path fill="none" stroke="black" stroke-width="2" d="M1091.37,-612.91C1109.39,-602.18 1133.79,-587.66 1153.43,-575.97"/>
<polygon fill="black" stroke="black" stroke-width="2" points="1155.28,-578.95 1162.08,-570.83 1151.7,-572.93 1155.28,-578.95"/>
</g>
<!-- 33 -->
<g id="node35" class="node">
<title>33</title>
<ellipse fill="none" stroke="black" cx="1320" cy="-555" rx="64.99" ry="18"/>
<text text-anchor="middle" x="1320" y="-551.3" font-family="Times,serif" font-size="14.00">Savile&#45;Η (a)</text>
</g>
<!-- 14&#45;&gt;33 -->
<g id="edge33" class="edge">
<title>14&#45;&gt;33</title>
<path fill="none" stroke="black" stroke-width="2" d="M1105.69,-616.75C1148.93,-604.49 1218.36,-584.81 1266.42,-571.19"/>
<polygon fill="black" stroke="black" stroke-width="2" points="1267.67,-574.47 1276.34,-568.38 1265.76,-567.74 1267.67,-574.47"/>
</g>
<!-- 35 -->
<g id="node37" class="node">
<title>35</title>
<ellipse fill="none" stroke="black" cx="1446" cy="-555" rx="42.79" ry="18"/>
<text text-anchor="middle" x="1446" y="-551.3" font-family="Times,serif" font-size="14.00">La2 (a)</text>
</g>
<!-- 14&#45;&gt;35 -->
<g id="edge35" class="edge">
<title>14&#45;&gt;35</title>
<path fill="none" stroke="black" stroke-width="2" d="M1115.93,-622C1180.64,-613.68 1296.72,-596.92 1394,-573 1397.42,-572.16 1400.95,-571.2 1404.47,-570.19"/>
<polygon fill="black" stroke="black" stroke-width="2" points="1405.77,-573.45 1414.32,-567.19 1403.73,-566.75 1405.77,-573.45"/>
</g>
<!-- 37 -->
<g id="node39" class="node">
<title>37</title>
<ellipse fill="none" stroke="black" cx="1606" cy="-555" rx="49.29" ry="18"/>
<text text-anchor="middle" x="1606" y="-551.3" font-family="Times,serif" font-size="14.00">La22 (b)</text>
</g>
<!-- 14&#45;&gt;37 -->
<g id="edge37" class="edge">
<title>14&#45;&gt;37</title>
<path fill="none" stroke="blue" stroke-dasharray="5,2" d="M1115.95,-622.13C1196.47,-612.55 1359.9,-592.66 1498,-573 1515.59,-570.5 1534.76,-567.55 1552,-564.82"/>
<polygon fill="blue" stroke="blue" points="1552.58,-568.27 1561.91,-563.24 1551.48,-561.36 1552.58,-568.27"/>
</g>
<!-- 42 -->
<g id="node44" class="node">
<title>42</title>
<ellipse fill="none" stroke="black" cx="1723" cy="-555" rx="50.09" ry="18"/>
<text text-anchor="middle" x="1723" y="-551.3" font-family="Times,serif" font-size="14.00">S249 (a)</text>
</g>
<!-- 14&#45;&gt;42 -->
<g id="edge42" class="edge">
<title>14&#45;&gt;42</title>
<path fill="none" stroke="black" d="M1119.67,-626.46C1224.92,-622.68 1465.49,-610.38 1664,-573 1668.18,-572.21 1672.5,-571.26 1676.8,-570.2"/>
<polygon fill="black" stroke="black" points="1677.96,-573.52 1686.75,-567.61 1676.19,-566.75 1677.96,-573.52"/>
</g>
<!-- 15 -->
<g id="node17" class="node">
<title>15</title>
<ellipse fill="none" stroke="black" cx="1246" cy="-326" rx="50.09" ry="18"/>
<text text-anchor="middle" x="1246" y="-322.3" font-family="Times,serif" font-size="14.00">V568 (a)</text>
</g>
<!-- 25 -->
<g id="node27" class="node">
<title>25</title>
<ellipse fill="none" stroke="black" cx="1246" cy="-253" rx="46.59" ry="18"/>
<text text-anchor="middle" x="1246" y="-249.3" font-family="Times,serif" font-size="14.00">Taur (a)</text>
</g>
<!-- 15&#45;&gt;25 -->
<g id="edge25" class="edge">
<title>15&#45;&gt;25</title>
<path fill="none" stroke="black" stroke-dasharray="1,5" d="M1246,-307.81C1246,-299.79 1246,-290.05 1246,-281.07"/>
<polygon fill="black" stroke="black" points="1249.5,-281.03 1246,-271.03 1242.5,-281.03 1249.5,-281.03"/>
</g>
<!-- 16 -->
<g id="node18" class="node">
<title>16</title>
<ellipse fill="none" stroke="black" cx="1654" cy="-472" rx="44.39" ry="18"/>
<text text-anchor="middle" x="1654" y="-468.3" font-family="Times,serif" font-size="14.00">P74 (b)</text>
</g>
<!-- 17&#45;&gt;1 -->
<g id="edge2" class="edge">
<title>17&#45;&gt;1</title>
<path fill="none" stroke="black" stroke-dasharray="5,2" d="M596.38,-538.95C579.01,-526.28 553.98,-508.02 534.67,-493.92"/>
<polygon fill="black" stroke="black" points="536.65,-491.03 526.51,-487.97 532.52,-496.69 536.65,-491.03"/>
</g>
<!-- 17&#45;&gt;4 -->
<g id="edge5" class="edge">
<title>17&#45;&gt;4</title>
<path fill="none" stroke="black" stroke-dasharray="5,2" d="M615.09,-536.82C613.91,-526.19 612.37,-512.31 611.02,-500.2"/>
<polygon fill="black" stroke="black" points="614.49,-499.71 609.91,-490.15 607.53,-500.48 614.49,-499.71"/>
</g>
<!-- 17&#45;&gt;5 -->
<g id="edge6" class="edge">
<title>17&#45;&gt;5</title>
<path fill="none" stroke="black" stroke-dasharray="5,2" d="M634.93,-538.38C648.96,-526.17 668.64,-509.02 684.33,-495.36"/>
<polygon fill="black" stroke="black" points="686.88,-497.78 692.12,-488.57 682.28,-492.5 686.88,-497.78"/>
</g>
<!-- 36 -->
<g id="node38" class="node">
<title>36</title>
<ellipse fill="none" stroke="black" cx="822" cy="-472" rx="50.09" ry="18"/>
<text text-anchor="middle" x="822" y="-468.3" font-family="Times,serif" font-size="14.00">V566 (a)</text>
</g>
<!-- 17&#45;&gt;36 -->
<g id="edge36" class="edge">
<title>17&#45;&gt;36</title>
<path fill="none" stroke="black" stroke-dasharray="5,2" d="M647.69,-541.87C682.8,-528 740.51,-505.2 779.83,-489.66"/>
<polygon fill="black" stroke="black" points="781.39,-492.81 789.4,-485.88 778.82,-486.3 781.39,-492.81"/>
</g>
<!-- 19 -->
<g id="node21" class="node">
<title>19</title>
<ellipse fill="none" stroke="black" cx="2005" cy="-399" rx="50.09" ry="18"/>
<text text-anchor="middle" x="2005" y="-395.3" font-family="Times,serif" font-size="14.00">A336 (b)</text>
</g>
<!-- 20 -->
<g id="node22" class="node">
<title>20</title>
<ellipse fill="none" stroke="black" cx="1766" cy="-472" rx="50.09" ry="18"/>
<text text-anchor="middle" x="1766" y="-468.3" font-family="Times,serif" font-size="14.00">A116 (b)</text>
</g>
<!-- 21&#45;&gt;0 -->
<g id="edge1" class="edge">
<title>21&#45;&gt;0</title>
<path fill="none" stroke="black" stroke-dasharray="1,5" d="M1128,-88.81C1128,-80.79 1128,-71.05 1128,-62.07"/>
<polygon fill="black" stroke="black" points="1131.5,-62.03 1128,-52.03 1124.5,-62.03 1131.5,-62.03"/>
</g>
<!-- 22 -->
<g id="node24" class="node">
<title>22</title>
<ellipse fill="none" stroke="black" cx="1064" cy="-472" rx="44.39" ry="18"/>
<text text-anchor="middle" x="1064" y="-468.3" font-family="Times,serif" font-size="14.00">B39 (a)</text>
</g>
<!-- 23 -->
<g id="node25" class="node">
<title>23</title>
<ellipse fill="none" stroke="black" cx="946" cy="-472" rx="55.79" ry="18"/>
<text text-anchor="middle" x="946" y="-468.3" font-family="Times,serif" font-size="14.00">V1920 (a)</text>
</g>
<!-- 25&#45;&gt;10 -->
<g id="edge11" class="edge">
<title>25&#45;&gt;10</title>
<path fill="none" stroke="blue" stroke-dasharray="1,5" d="M1221.84,-237.46C1204.37,-226.95 1180.57,-212.63 1161.3,-201.04"/>
<polygon fill="blue" stroke="blue" points="1162.91,-197.92 1152.54,-195.76 1159.3,-203.92 1162.91,-197.92"/>
</g>
<!-- 29 -->
<g id="node31" class="node">
<title>29</title>
<ellipse fill="none" stroke="black" cx="1246" cy="-180" rx="50.09" ry="18"/>
<text text-anchor="middle" x="1246" y="-176.3" font-family="Times,serif" font-size="14.00">V569 (a)</text>
</g>
<!-- 25&#45;&gt;29 -->
<g id="edge29" class="edge">
<title>25&#45;&gt;29</title>
<path fill="none" stroke="black" stroke-dasharray="5,2" d="M1246,-234.81C1246,-226.79 1246,-217.05 1246,-208.07"/>
<polygon fill="black" stroke="black" points="1249.5,-208.03 1246,-198.03 1242.5,-208.03 1249.5,-208.03"/>
</g>
<!-- 34 -->
<g id="node36" class="node">
<title>34</title>
<ellipse fill="none" stroke="black" cx="1367" cy="-180" rx="52.79" ry="18"/>
<text text-anchor="middle" x="1367" y="-176.3" font-family="Times,serif" font-size="14.00">M118 (a)</text>
</g>
<!-- 25&#45;&gt;34 -->
<g id="edge34" class="edge">
<title>25&#45;&gt;34</title>
<path fill="none" stroke="black" stroke-dasharray="5,2" d="M1270.49,-237.63C1288.45,-227.09 1313.08,-212.64 1332.96,-200.97"/>
<polygon fill="black" stroke="black" points="1334.86,-203.91 1341.72,-195.84 1331.32,-197.88 1334.86,-203.91"/>
</g>
<!-- 26 -->
<g id="node28" class="node">
<title>26</title>
<ellipse fill="none" stroke="black" cx="1884" cy="-472" rx="50.09" ry="18"/>
<text text-anchor="middle" x="1884" y="-468.3" font-family="Times,serif" font-size="14.00">V565 (b)</text>
</g>
<!-- 27&#45;&gt;23 -->
<g id="edge23" class="edge">
<title>27&#45;&gt;23</title>
<path fill="none" stroke="black" stroke-dasharray="5,2" d="M945.21,-536.82C945.34,-526.19 945.51,-512.31 945.66,-500.2"/>
<polygon fill="black" stroke="black" points="949.16,-500.2 945.79,-490.15 942.16,-500.11 949.16,-500.2"/>
</g>
<!-- 28 -->
<g id="node30" class="node">
<title>28</title>
<ellipse fill="none" stroke="gray" stroke-dasharray="5,2" cx="1367" cy="-107" rx="28.7" ry="18"/>
<text text-anchor="middle" x="1367" y="-103.3" font-family="Times,serif" font-size="14.00">P18</text>
</g>
<!-- 30&#45;&gt;22 -->
<g id="edge22" class="edge">
<title>30&#45;&gt;22</title>
<path fill="none" stroke="black" stroke-dasharray="5,2" d="M1065.58,-536.82C1065.31,-526.19 1064.97,-512.31 1064.67,-500.2"/>
<polygon fill="black" stroke="black" points="1068.17,-500.06 1064.42,-490.15 1061.17,-500.24 1068.17,-500.06"/>
</g>
<!-- 31&#45;&gt;8 -->
<g id="edge9" class="edge">
<title>31&#45;&gt;8</title>
<path fill="none" stroke="black" stroke-dasharray="1,5" d="M1185.94,-536.82C1185.28,-526.19 1184.43,-512.31 1183.68,-500.2"/>
<polygon fill="black" stroke="black" points="1187.17,-499.92 1183.06,-490.15 1180.18,-500.35 1187.17,-499.92"/>
</g>
<!-- 34&#45;&gt;28 -->
<g id="edge28" class="edge">
<title>34&#45;&gt;28</title>
<path fill="none" stroke="gray" stroke-dasharray="5,2" d="M1367,-161.81C1367,-153.79 1367,-144.05 1367,-135.07"/>
<polygon fill="gray" stroke="gray" points="1370.5,-135.03 1367,-125.03 1363.5,-135.03 1370.5,-135.03"/>
</g>
<!-- 36&#45;&gt;6 -->
<g id="edge7" class="edge">
<title>36&#45;&gt;6</title>
<path fill="none" stroke="black" stroke-dasharray="1,5" d="M822,-453.81C822,-445.79 822,-436.05 822,-427.07"/>
<polygon fill="black" stroke="black" points="825.5,-427.03 822,-417.03 818.5,-427.03 825.5,-427.03"/>
</g>
<!-- 37&#45;&gt;2 -->
<g id="edge3" class="edge">
<title>37&#45;&gt;2</title>
<path fill="none" stroke="black" stroke-dasharray="1,5" d="M1566.95,-543.95C1519.05,-531.57 1435.42,-509.73 1364,-490 1360.18,-488.94 1356.22,-487.84 1352.25,-486.71"/>
<polygon fill="black" stroke="black" points="1352.99,-483.29 1342.42,-483.92 1351.08,-490.02 1352.99,-483.29"/>
</g>
<!-- 37&#45;&gt;3 -->
<g id="edge4" class="edge">
<title>37&#45;&gt;3</title>
<path fill="none" stroke="black" stroke-dasharray="5,2" d="M1575.29,-540.62C1543.6,-526.82 1494.05,-505.25 1459.47,-490.19"/>
<polygon fill="black" stroke="black" points="1460.71,-486.91 1450.14,-486.13 1457.91,-493.33 1460.71,-486.91"/>
</g>
<!-- 37&#45;&gt;13 -->
<g id="edge14" class="edge">
<title>37&#45;&gt;13</title>
<path fill="none" stroke="black" d="M1592.44,-537.61C1582.97,-526.16 1570.15,-510.66 1559.44,-497.72"/>
<polygon fill="black" stroke="black" points="1561.84,-495.12 1552.77,-489.65 1556.45,-499.58 1561.84,-495.12"/>
<text text-anchor="middle" x="1579.5" y="-511" font-family="Times,serif" font-size="10.00">2</text>
</g>
<!-- 37&#45;&gt;16 -->
<g id="edge16" class="edge">
<title>37&#45;&gt;16</title>
<path fill="none" stroke="black" stroke-dasharray="1,5" d="M1615.95,-537.22C1622.57,-526.03 1631.41,-511.12 1638.9,-498.48"/>
<polygon fill="black" stroke="black" points="1641.98,-500.15 1644.07,-489.76 1635.96,-496.58 1641.98,-500.15"/>
</g>
<!-- 37&#45;&gt;20 -->
<g id="edge20" class="edge">
<title>37&#45;&gt;20</title>
<path fill="none" stroke="black" stroke-dasharray="5,2" d="M1633.87,-539.89C1660.29,-526.52 1700.14,-506.34 1729.17,-491.65"/>
<polygon fill="black" stroke="black" points="1730.84,-494.72 1738.18,-487.08 1727.68,-488.48 1730.84,-494.72"/>
</g>
<!-- 37&#45;&gt;26 -->
<g id="edge26" class="edge">
<title>37&#45;&gt;26</title>
<path fill="none" stroke="black" stroke-dasharray="5,2" d="M1643.13,-543.11C1650.06,-541.07 1657.25,-538.97 1664,-537 1723.46,-519.64 1791.99,-499.72 1836.55,-486.77"/>
<polygon fill="black" stroke="black" points="1837.61,-490.11 1846.23,-483.96 1835.65,-483.39 1837.61,-490.11"/>
</g>
<!-- 39 -->
<g id="node41" class="node">
<title>39</title>
<ellipse fill="none" stroke="black" cx="2005" cy="-472" rx="53.09" ry="18"/>
<text text-anchor="middle" x="2005" y="-468.3" font-family="Times,serif" font-size="14.00">M111 (b)</text>
</g>
<!-- 37&#45;&gt;39 -->
<g id="edge39" class="edge">
<title>37&#45;&gt;39</title>
<path fill="none" stroke="black" stroke-dasharray="1,5" d="M1642.34,-542.64C1649.48,-540.61 1656.94,-538.62 1664,-537 1786.55,-508.82 1820.21,-517.1 1943,-490 1947.17,-489.08 1951.48,-488.06 1955.79,-486.98"/>
<polygon fill="black" stroke="black" points="1956.98,-490.28 1965.79,-484.39 1955.23,-483.51 1956.98,-490.28"/>
</g>
<!-- 41 -->
<g id="node43" class="node">
<title>41</title>
<ellipse fill="none" stroke="black" cx="2126" cy="-472" rx="50.09" ry="18"/>
<text text-anchor="middle" x="2126" y="-468.3" font-family="Times,serif" font-size="14.00">V571 (b)</text>
</g>
<!-- 37&#45;&gt;41 -->
<g id="edge41" class="edge">
<title>37&#45;&gt;41</title>
<path fill="none" stroke="black" stroke-dasharray="1,5" d="M1641.65,-542.52C1648.99,-540.45 1656.7,-538.48 1664,-537 1752.35,-519.03 1978.6,-507.76 2067,-490 2071.17,-489.16 2075.48,-488.17 2079.78,-487.1"/>
<polygon fill="black" stroke="black" points="2080.95,-490.41 2089.72,-484.47 2079.16,-483.64 2080.95,-490.41"/>
</g>
<!-- 39&#45;&gt;19 -->
<g id="edge19" class="edge">
<title>39&#45;&gt;19</title>
<path fill="none" stroke="black" stroke-dasharray="5,2" d="M2005,-453.81C2005,-445.79 2005,-436.05 2005,-427.07"/>
<polygon fill="black" stroke="black" points="2008.5,-427.03 2005,-417.03 2001.5,-427.03 2008.5,-427.03"/>
</g>
<!-- 40&#45;&gt;15 -->
<g id="edge15" class="edge">
<title>40&#45;&gt;15</title>
<path fill="none" stroke="black" stroke-dasharray="1,5" d="M1246,-380.81C1246,-372.79 1246,-363.05 1246,-354.07"/>
<polygon fill="black" stroke="black" points="1249.5,-354.03 1246,-344.03 1242.5,-354.03 1249.5,-354.03"/>
</g>
</g>
</svg>
