<?xml version="1.0" encoding="UTF-8" standalone="no"?>
<!DOCTYPE svg PUBLIC "-//W3C//DTD SVG 1.1//EN"
 "http://www.w3.org/Graphics/SVG/1.1/DTD/svg11.dtd">
<!-- Generated by graphviz version 2.43.0 (0)
 -->
<!-- Title: textual_flow Pages: 1 -->
<svg width="2100pt" height="629pt"
 viewBox="0.00 0.00 2100.00 629.00" xmlns="http://www.w3.org/2000/svg" xmlns:xlink="http://www.w3.org/1999/xlink">
<g id="graph0" class="graph" transform="scale(1 1) rotate(0) translate(4 625)">
<title>textual_flow</title>
<polygon fill="white" stroke="transparent" points="-4,4 -4,-625 2096,-625 2096,4 -4,4"/>
<g id="clust1" class="cluster">
<title>cluster_legend</title>
<polygon fill="none" stroke="black" points="8,-559 8,-613 156,-613 156,-559 8,-559"/>
</g>
<g id="clust2" class="cluster">
<title>cluster_plot</title>
</g>
<!-- label -->
<g id="node1" class="node">
<title>label</title>
<text text-anchor="middle" x="82" y="-589.8" font-family="Times,serif" font-size="14.00">adstag1.1.7U33</text>
<text text-anchor="middle" x="82" y="-574.8" font-family="Times,serif" font-size="14.00">Con = 3</text>
</g>
<!-- 0 -->
<g id="node2" class="node">
<title>0</title>
<ellipse fill="none" stroke="black" cx="324" cy="-263" rx="50.09" ry="18"/>
<text text-anchor="middle" x="324" y="-259.3" font-family="Times,serif" font-size="14.00">V568 (b)</text>
</g>
<!-- 16 -->
<g id="node18" class="node">
<title>16</title>
<ellipse fill="none" stroke="black" cx="258" cy="-180" rx="41.69" ry="18"/>
<text text-anchor="middle" x="258" y="-176.3" font-family="Times,serif" font-size="14.00">Sin (b)</text>
</g>
<!-- 0&#45;&gt;16 -->
<g id="edge17" class="edge">
<title>0&#45;&gt;16</title>
<path fill="none" stroke="black" stroke-dasharray="1,5" d="M310.64,-245.61C301.19,-234 288.35,-218.25 277.72,-205.2"/>
<polygon fill="black" stroke="black" points="280.14,-202.63 271.11,-197.09 274.71,-207.05 280.14,-202.63"/>
<text text-anchor="middle" x="297.5" y="-219" font-family="Times,serif" font-size="10.00">2</text>
</g>
<!-- 44 -->
<g id="node46" class="node">
<title>44</title>
<ellipse fill="none" stroke="black" cx="371" cy="-180" rx="53.09" ry="18"/>
<text text-anchor="middle" x="371" y="-176.3" font-family="Times,serif" font-size="14.00">M118 (b)</text>
</g>
<!-- 0&#45;&gt;44 -->
<g id="edge44" class="edge">
<title>0&#45;&gt;44</title>
<path fill="none" stroke="black" stroke-dasharray="5,2" d="M333.74,-245.22C340.23,-234.03 348.88,-219.12 356.22,-206.48"/>
<polygon fill="black" stroke="black" points="359.28,-208.17 361.27,-197.76 353.23,-204.65 359.28,-208.17"/>
<text text-anchor="middle" x="353.5" y="-219" font-family="Times,serif" font-size="10.00">2</text>
</g>
<!-- 1 -->
<g id="node3" class="node">
<title>1</title>
<ellipse fill="none" stroke="gray" stroke-dasharray="5,2" cx="1572" cy="-336" rx="50.09" ry="18"/>
<text text-anchor="middle" x="1572" y="-332.3" font-family="Times,serif" font-size="14.00">Savile&#45;Η</text>
</g>
<!-- 2 -->
<g id="node4" class="node">
<title>2</title>
<ellipse fill="none" stroke="gray" stroke-dasharray="5,2" cx="214" cy="-336" rx="42.49" ry="18"/>
<text text-anchor="middle" x="214" y="-332.3" font-family="Times,serif" font-size="14.00">Marc&#45;c</text>
</g>
<!-- 3 -->
<g id="node5" class="node">
<title>3</title>
<ellipse fill="none" stroke="gray" stroke-dasharray="5,2" cx="530" cy="-336" rx="40.09" ry="18"/>
<text text-anchor="middle" x="530" y="-332.3" font-family="Times,serif" font-size="14.00">V2036</text>
</g>
<!-- 4 -->
<g id="node6" class="node">
<title>4</title>
<ellipse fill="none" stroke="gray" stroke-dasharray="5,2" cx="318" cy="-419" rx="45.49" ry="18"/>
<text text-anchor="middle" x="318" y="-415.3" font-family="Times,serif" font-size="14.00">LaSM&#45;c</text>
</g>
<!-- 5 -->
<g id="node7" class="node">
<title>5</title>
<ellipse fill="none" stroke="black" cx="641" cy="-419" rx="50.09" ry="18"/>
<text text-anchor="middle" x="641" y="-415.3" font-family="Times,serif" font-size="14.00">Patm (a)</text>
</g>
<!-- 5&#45;&gt;3 -->
<g id="edge4" class="edge">
<title>5&#45;&gt;3</title>
<path fill="none" stroke="gray" stroke-dasharray="1,5" d="M619.86,-402.57C602.44,-389.86 577.56,-371.71 558.4,-357.72"/>
<polygon fill="gray" stroke="gray" points="560.45,-354.89 550.31,-351.82 556.33,-360.54 560.45,-354.89"/>
</g>
<!-- 21 -->
<g id="node23" class="node">
<title>21</title>
<ellipse fill="none" stroke="black" cx="641" cy="-336" rx="52.79" ry="18"/>
<text text-anchor="middle" x="641" y="-332.3" font-family="Times,serif" font-size="14.00">LaSM (a)</text>
</g>
<!-- 5&#45;&gt;21 -->
<g id="edge22" class="edge">
<title>5&#45;&gt;21</title>
<path fill="none" stroke="black" stroke-dasharray="5,2" d="M641,-400.82C641,-390.19 641,-376.31 641,-364.2"/>
<polygon fill="black" stroke="black" points="644.5,-364.15 641,-354.15 637.5,-364.15 644.5,-364.15"/>
</g>
<!-- 6 -->
<g id="node8" class="node">
<title>6</title>
<ellipse fill="none" stroke="black" cx="760" cy="-336" rx="48.99" ry="18"/>
<text text-anchor="middle" x="760" y="-332.3" font-family="Times,serif" font-size="14.00">La35 (a)</text>
</g>
<!-- 7 -->
<g id="node9" class="node">
<title>7</title>
<ellipse fill="none" stroke="black" cx="999" cy="-419" rx="44.39" ry="18"/>
<text text-anchor="middle" x="999" y="-415.3" font-family="Times,serif" font-size="14.00">S32 (a)</text>
</g>
<!-- 8 -->
<g id="node10" class="node">
<title>8</title>
<ellipse fill="none" stroke="black" cx="1685" cy="-419" rx="55.79" ry="18"/>
<text text-anchor="middle" x="1685" y="-415.3" font-family="Times,serif" font-size="14.00">V2250 (b)</text>
</g>
<!-- 9 -->
<g id="node11" class="node">
<title>9</title>
<ellipse fill="none" stroke="black" cx="879" cy="-336" rx="52.79" ry="18"/>
<text text-anchor="middle" x="879" y="-332.3" font-family="Times,serif" font-size="14.00">M111 (a)</text>
</g>
<!-- 29 -->
<g id="node31" class="node">
<title>29</title>
<ellipse fill="none" stroke="black" cx="879" cy="-263" rx="50.09" ry="18"/>
<text text-anchor="middle" x="879" y="-259.3" font-family="Times,serif" font-size="14.00">A336 (a)</text>
</g>
<!-- 9&#45;&gt;29 -->
<g id="edge30" class="edge">
<title>9&#45;&gt;29</title>
<path fill="none" stroke="black" stroke-dasharray="5,2" d="M879,-317.81C879,-309.79 879,-300.05 879,-291.07"/>
<polygon fill="black" stroke="black" points="882.5,-291.03 879,-281.03 875.5,-291.03 882.5,-291.03"/>
</g>
<!-- 10 -->
<g id="node12" class="node">
<title>10</title>
<ellipse fill="none" stroke="black" cx="324" cy="-336" rx="50.09" ry="18"/>
<text text-anchor="middle" x="324" y="-332.3" font-family="Times,serif" font-size="14.00">V536 (b)</text>
</g>
<!-- 10&#45;&gt;0 -->
<g id="edge1" class="edge">
<title>10&#45;&gt;0</title>
<path fill="none" stroke="black" stroke-dasharray="1,5" d="M324,-317.81C324,-309.79 324,-300.05 324,-291.07"/>
<polygon fill="black" stroke="black" points="327.5,-291.03 324,-281.03 320.5,-291.03 327.5,-291.03"/>
</g>
<!-- 11 -->
<g id="node13" class="node">
<title>11</title>
<ellipse fill="none" stroke="black" cx="652" cy="-502" rx="43.59" ry="18"/>
<text text-anchor="middle" x="652" y="-498.3" font-family="Times,serif" font-size="14.00">La2 (b)</text>
</g>
<!-- 12 -->
<g id="node14" class="node">
<title>12</title>
<ellipse fill="none" stroke="black" cx="1000" cy="-336" rx="50.09" ry="18"/>
<text text-anchor="middle" x="1000" y="-332.3" font-family="Times,serif" font-size="14.00">A116 (a)</text>
</g>
<!-- 13 -->
<g id="node15" class="node">
<title>13</title>
<ellipse fill="none" stroke="black" cx="1110" cy="-419" rx="48.99" ry="18"/>
<text text-anchor="middle" x="1110" y="-415.3" font-family="Times,serif" font-size="14.00">La22 (a)</text>
</g>
<!-- 13&#45;&gt;6 -->
<g id="edge7" class="edge">
<title>13&#45;&gt;6</title>
<path fill="none" stroke="black" stroke-dasharray="1,5" d="M1073.62,-406.81C1066.48,-404.76 1059.03,-402.73 1052,-401 948.57,-375.55 920.37,-379.69 817,-354 813.38,-353.1 809.65,-352.12 805.9,-351.09"/>
<polygon fill="black" stroke="black" points="806.62,-347.65 796.05,-348.3 804.71,-354.39 806.62,-347.65"/>
</g>
<!-- 13&#45;&gt;9 -->
<g id="edge10" class="edge">
<title>13&#45;&gt;9</title>
<path fill="none" stroke="black" stroke-dasharray="1,5" d="M1075.92,-406.05C1035.66,-391.93 968.56,-368.41 924.05,-352.8"/>
<polygon fill="black" stroke="black" points="924.96,-349.41 914.36,-349.4 922.64,-356.01 924.96,-349.41"/>
</g>
<!-- 13&#45;&gt;12 -->
<g id="edge13" class="edge">
<title>13&#45;&gt;12</title>
<path fill="none" stroke="black" stroke-dasharray="5,2" d="M1089.05,-402.57C1072.08,-390.08 1047.97,-372.32 1029.12,-358.44"/>
<polygon fill="black" stroke="black" points="1031,-355.48 1020.87,-352.37 1026.85,-361.12 1031,-355.48"/>
</g>
<!-- 15 -->
<g id="node17" class="node">
<title>15</title>
<ellipse fill="none" stroke="black" cx="1118" cy="-336" rx="50.09" ry="18"/>
<text text-anchor="middle" x="1118" y="-332.3" font-family="Times,serif" font-size="14.00">V571 (a)</text>
</g>
<!-- 13&#45;&gt;15 -->
<g id="edge16" class="edge">
<title>13&#45;&gt;15</title>
<path fill="none" stroke="black" stroke-dasharray="1,5" d="M1111.7,-400.82C1112.75,-390.19 1114.12,-376.31 1115.31,-364.2"/>
<polygon fill="black" stroke="black" points="1118.81,-364.45 1116.31,-354.15 1111.84,-363.76 1118.81,-364.45"/>
</g>
<!-- 23 -->
<g id="node25" class="node">
<title>23</title>
<ellipse fill="none" stroke="black" cx="1236" cy="-336" rx="50.09" ry="18"/>
<text text-anchor="middle" x="1236" y="-332.3" font-family="Times,serif" font-size="14.00">V565 (a)</text>
</g>
<!-- 13&#45;&gt;23 -->
<g id="edge24" class="edge">
<title>13&#45;&gt;23</title>
<path fill="none" stroke="black" stroke-dasharray="5,2" d="M1133.11,-403.14C1153.06,-390.32 1182.06,-371.67 1204.2,-357.45"/>
<polygon fill="black" stroke="black" points="1206.09,-360.39 1212.61,-352.04 1202.31,-354.5 1206.09,-360.39"/>
</g>
<!-- 36 -->
<g id="node38" class="node">
<title>36</title>
<ellipse fill="none" stroke="black" cx="1348" cy="-336" rx="44.39" ry="18"/>
<text text-anchor="middle" x="1348" y="-332.3" font-family="Times,serif" font-size="14.00">P74 (a)</text>
</g>
<!-- 13&#45;&gt;36 -->
<g id="edge36" class="edge">
<title>13&#45;&gt;36</title>
<path fill="none" stroke="black" stroke-dasharray="1,5" d="M1144.61,-406.22C1187.25,-391.71 1259.67,-367.06 1305.6,-351.43"/>
<polygon fill="black" stroke="black" points="1306.93,-354.68 1315.27,-348.14 1304.67,-348.05 1306.93,-354.68"/>
</g>
<!-- 41 -->
<g id="node43" class="node">
<title>41</title>
<ellipse fill="none" stroke="black" cx="1457" cy="-336" rx="46.59" ry="18"/>
<text text-anchor="middle" x="1457" y="-332.3" font-family="Times,serif" font-size="14.00">Bodl (a)</text>
</g>
<!-- 13&#45;&gt;41 -->
<g id="edge41" class="edge">
<title>13&#45;&gt;41</title>
<path fill="none" stroke="black" stroke-dasharray="5,2" d="M1146.79,-407.1C1153.82,-405.05 1161.13,-402.94 1168,-401 1197.26,-392.72 1205.09,-392.4 1234,-383 1247.11,-378.74 1249.63,-375.36 1263,-372 1322.99,-356.93 1340.53,-367.03 1401,-354 1404.91,-353.16 1408.94,-352.17 1412.97,-351.11"/>
<polygon fill="black" stroke="black" points="1414.19,-354.4 1422.88,-348.33 1412.31,-347.66 1414.19,-354.4"/>
</g>
<!-- 14 -->
<g id="node16" class="node">
<title>14</title>
<ellipse fill="none" stroke="black" cx="1217" cy="-419" rx="40.09" ry="18"/>
<text text-anchor="middle" x="1217" y="-415.3" font-family="Times,serif" font-size="14.00">Pal (a)</text>
</g>
<!-- 14&#45;&gt;1 -->
<g id="edge2" class="edge">
<title>14&#45;&gt;1</title>
<path fill="none" stroke="gray" d="M1246.84,-406.87C1253.12,-404.75 1259.74,-402.67 1266,-401 1373.96,-372.16 1404.31,-379.94 1513,-354 1517.02,-353.04 1521.18,-351.98 1525.35,-350.87"/>
<polygon fill="gray" stroke="gray" points="1526.28,-354.25 1535,-348.23 1524.43,-347.49 1526.28,-354.25"/>
</g>
<!-- 31 -->
<g id="node33" class="node">
<title>31</title>
<ellipse fill="none" stroke="black" cx="258" cy="-107" rx="50.09" ry="18"/>
<text text-anchor="middle" x="258" y="-103.3" font-family="Times,serif" font-size="14.00">Marc (b)</text>
</g>
<!-- 16&#45;&gt;31 -->
<g id="edge32" class="edge">
<title>16&#45;&gt;31</title>
<path fill="none" stroke="black" stroke-dasharray="1,5" d="M258,-161.81C258,-153.79 258,-144.05 258,-135.07"/>
<polygon fill="black" stroke="black" points="261.5,-135.03 258,-125.03 254.5,-135.03 261.5,-135.03"/>
</g>
<!-- 17 -->
<g id="node19" class="node">
<title>17</title>
<ellipse fill="none" stroke="black" cx="767" cy="-502" rx="53.09" ry="18"/>
<text text-anchor="middle" x="767" y="-498.3" font-family="Times,serif" font-size="14.00">M136 (b)</text>
</g>
<!-- 17&#45;&gt;4 -->
<g id="edge5" class="edge">
<title>17&#45;&gt;4</title>
<path fill="none" stroke="gray" stroke-dasharray="5,2" d="M728.16,-489.54C720.52,-487.51 712.54,-485.56 705,-484 631.81,-468.87 444.89,-453.5 372,-437 368.38,-436.18 364.66,-435.24 360.94,-434.22"/>
<polygon fill="gray" stroke="gray" points="361.76,-430.81 351.18,-431.39 359.81,-437.53 361.76,-430.81"/>
</g>
<!-- 22 -->
<g id="node24" class="node">
<title>22</title>
<ellipse fill="none" stroke="black" cx="432" cy="-419" rx="50.89" ry="18"/>
<text text-anchor="middle" x="432" y="-415.3" font-family="Times,serif" font-size="14.00">Neap (b)</text>
</g>
<!-- 17&#45;&gt;22 -->
<g id="edge23" class="edge">
<title>17&#45;&gt;22</title>
<path fill="none" stroke="black" stroke-dasharray="5,2" d="M727.37,-489.9C719.95,-487.88 712.25,-485.84 705,-484 628.16,-464.47 538.6,-443.88 483.6,-431.49"/>
<polygon fill="black" stroke="black" points="484.27,-428.06 473.74,-429.28 482.73,-434.89 484.27,-428.06"/>
<text text-anchor="middle" x="633.5" y="-458" font-family="Times,serif" font-size="10.00">2</text>
</g>
<!-- 18 -->
<g id="node20" class="node">
<title>18</title>
<ellipse fill="none" stroke="black" cx="1813" cy="-336" rx="43.59" ry="18"/>
<text text-anchor="middle" x="1813" y="-332.3" font-family="Times,serif" font-size="14.00">Bas (b)</text>
</g>
<!-- 19 -->
<g id="node21" class="node">
<title>19</title>
<ellipse fill="none" stroke="black" cx="1555" cy="-419" rx="55.79" ry="18"/>
<text text-anchor="middle" x="1555" y="-415.3" font-family="Times,serif" font-size="14.00">V1920 (b)</text>
</g>
<!-- 20 -->
<g id="node22" class="node">
<title>20</title>
<ellipse fill="none" stroke="black" cx="1217" cy="-502" rx="44.39" ry="18"/>
<text text-anchor="middle" x="1217" y="-498.3" font-family="Times,serif" font-size="14.00">A25 (a)</text>
</g>
<!-- 20&#45;&gt;5 -->
<g id="edge6" class="edge">
<title>20&#45;&gt;5</title>
<path fill="none" stroke="black" stroke-dasharray="1,5" d="M1176.04,-495.24C1074.75,-481 812.38,-444.1 696.93,-427.86"/>
<polygon fill="black" stroke="black" points="697.27,-424.38 686.88,-426.45 696.3,-431.31 697.27,-424.38"/>
</g>
<!-- 20&#45;&gt;7 -->
<g id="edge8" class="edge">
<title>20&#45;&gt;7</title>
<path fill="none" stroke="black" stroke-dasharray="5,2" d="M1185.3,-489.22C1146.96,-474.97 1082.32,-450.96 1040.16,-435.29"/>
<polygon fill="black" stroke="black" points="1041.33,-431.99 1030.74,-431.79 1038.89,-438.56 1041.33,-431.99"/>
</g>
<!-- 20&#45;&gt;13 -->
<g id="edge14" class="edge">
<title>20&#45;&gt;13</title>
<path fill="none" stroke="black" stroke-dasharray="1,5" d="M1196.87,-485.76C1180.39,-473.29 1156.87,-455.48 1138.46,-441.54"/>
<polygon fill="black" stroke="black" points="1140.49,-438.69 1130.4,-435.44 1136.26,-444.27 1140.49,-438.69"/>
</g>
<!-- 20&#45;&gt;14 -->
<g id="edge15" class="edge">
<title>20&#45;&gt;14</title>
<path fill="none" stroke="black" stroke-dasharray="5,2" d="M1217,-483.82C1217,-473.19 1217,-459.31 1217,-447.2"/>
<polygon fill="black" stroke="black" points="1220.5,-447.15 1217,-437.15 1213.5,-447.15 1220.5,-447.15"/>
</g>
<!-- 30 -->
<g id="node32" class="node">
<title>30</title>
<ellipse fill="none" stroke="black" cx="1319" cy="-419" rx="44.39" ry="18"/>
<text text-anchor="middle" x="1319" y="-415.3" font-family="Times,serif" font-size="14.00">P01 (a)</text>
</g>
<!-- 20&#45;&gt;30 -->
<g id="edge31" class="edge">
<title>20&#45;&gt;30</title>
<path fill="none" stroke="black" stroke-dasharray="5,2" d="M1236.19,-485.76C1251.76,-473.4 1273.92,-455.8 1291.4,-441.92"/>
<polygon fill="black" stroke="black" points="1293.9,-444.4 1299.55,-435.44 1289.55,-438.92 1293.9,-444.4"/>
</g>
<!-- 39 -->
<g id="node41" class="node">
<title>39</title>
<ellipse fill="none" stroke="black" cx="1431" cy="-419" rx="50.09" ry="18"/>
<text text-anchor="middle" x="1431" y="-415.3" font-family="Times,serif" font-size="14.00">V566 (a)</text>
</g>
<!-- 20&#45;&gt;39 -->
<g id="edge39" class="edge">
<title>20&#45;&gt;39</title>
<path fill="none" stroke="black" stroke-dasharray="5,2" d="M1248.58,-489.05C1285.6,-475.03 1347.15,-451.74 1388.38,-436.13"/>
<polygon fill="black" stroke="black" points="1389.77,-439.35 1397.89,-432.53 1387.29,-432.8 1389.77,-439.35"/>
</g>
<!-- 28 -->
<g id="node30" class="node">
<title>28</title>
<ellipse fill="none" stroke="black" cx="641" cy="-263" rx="44.39" ry="18"/>
<text text-anchor="middle" x="641" y="-259.3" font-family="Times,serif" font-size="14.00">B39 (a)</text>
</g>
<!-- 21&#45;&gt;28 -->
<g id="edge29" class="edge">
<title>21&#45;&gt;28</title>
<path fill="none" stroke="black" stroke-dasharray="5,2" d="M641,-317.81C641,-309.79 641,-300.05 641,-291.07"/>
<polygon fill="black" stroke="black" points="644.5,-291.03 641,-281.03 637.5,-291.03 644.5,-291.03"/>
</g>
<!-- 22&#45;&gt;2 -->
<g id="edge3" class="edge">
<title>22&#45;&gt;2</title>
<path fill="none" stroke="gray" stroke-dasharray="5,2" d="M397.94,-405.34C359.02,-390.89 295.41,-367.25 254.13,-351.91"/>
<polygon fill="gray" stroke="gray" points="255.25,-348.59 244.66,-348.39 252.81,-355.15 255.25,-348.59"/>
</g>
<!-- 22&#45;&gt;10 -->
<g id="edge11" class="edge">
<title>22&#45;&gt;10</title>
<path fill="none" stroke="black" stroke-dasharray="5,2" d="M411.18,-402.38C394.59,-389.94 371.19,-372.39 352.81,-358.61"/>
<polygon fill="black" stroke="black" points="354.86,-355.77 344.76,-352.57 350.66,-361.37 354.86,-355.77"/>
<text text-anchor="middle" x="387.5" y="-375" font-family="Times,serif" font-size="10.00">2</text>
</g>
<!-- 33 -->
<g id="node35" class="node">
<title>33</title>
<ellipse fill="none" stroke="gray" stroke-dasharray="5,2" cx="432" cy="-336" rx="39.79" ry="18"/>
<text text-anchor="middle" x="432" y="-332.3" font-family="Times,serif" font-size="14.00">Taur&#45;c</text>
</g>
<!-- 22&#45;&gt;33 -->
<g id="edge33" class="edge">
<title>22&#45;&gt;33</title>
<path fill="none" stroke="gray" stroke-width="2" d="M432,-400.82C432,-390.19 432,-376.31 432,-364.2"/>
<polygon fill="gray" stroke="gray" stroke-width="2" points="435.5,-364.15 432,-354.15 428.5,-364.15 435.5,-364.15"/>
</g>
<!-- 24 -->
<g id="node26" class="node">
<title>24</title>
<ellipse fill="none" stroke="black" cx="1916" cy="-336" rx="41.69" ry="18"/>
<text text-anchor="middle" x="1916" y="-332.3" font-family="Times,serif" font-size="14.00">Est (a)</text>
</g>
<!-- 25 -->
<g id="node27" class="node">
<title>25</title>
<ellipse fill="none" stroke="black" cx="1555" cy="-502" rx="50.09" ry="18"/>
<text text-anchor="middle" x="1555" y="-498.3" font-family="Times,serif" font-size="14.00">V560 (b)</text>
</g>
<!-- 25&#45;&gt;19 -->
<g id="edge20" class="edge">
<title>25&#45;&gt;19</title>
<path fill="none" stroke="black" stroke-dasharray="5,2" d="M1555,-483.82C1555,-473.19 1555,-459.31 1555,-447.2"/>
<polygon fill="black" stroke="black" points="1558.5,-447.15 1555,-437.15 1551.5,-447.15 1558.5,-447.15"/>
</g>
<!-- 26 -->
<g id="node28" class="node">
<title>26</title>
<ellipse fill="none" stroke="gray" stroke-dasharray="5,2" cx="1925" cy="-419" rx="36" ry="18"/>
<text text-anchor="middle" x="1925" y="-415.3" font-family="Times,serif" font-size="14.00">La2&#45;c</text>
</g>
<!-- 27 -->
<g id="node29" class="node">
<title>27</title>
<ellipse fill="none" stroke="black" cx="1685" cy="-502" rx="44.69" ry="18"/>
<text text-anchor="middle" x="1685" y="-498.3" font-family="Times,serif" font-size="14.00">Nan (a)</text>
</g>
<!-- 27&#45;&gt;8 -->
<g id="edge9" class="edge">
<title>27&#45;&gt;8</title>
<path fill="none" stroke="blue" stroke-dasharray="5,2" d="M1685,-483.82C1685,-473.19 1685,-459.31 1685,-447.2"/>
<polygon fill="blue" stroke="blue" points="1688.5,-447.15 1685,-437.15 1681.5,-447.15 1688.5,-447.15"/>
</g>
<!-- 35 -->
<g id="node37" class="node">
<title>35</title>
<ellipse fill="none" stroke="black" cx="1815" cy="-419" rx="55.79" ry="18"/>
<text text-anchor="middle" x="1815" y="-415.3" font-family="Times,serif" font-size="14.00">V1897 (a)</text>
</g>
<!-- 27&#45;&gt;35 -->
<g id="edge35" class="edge">
<title>27&#45;&gt;35</title>
<path fill="none" stroke="black" stroke-dasharray="1,5" d="M1708.24,-486.52C1728.62,-473.82 1758.48,-455.22 1781.45,-440.91"/>
<polygon fill="black" stroke="black" points="1783.55,-443.72 1790.19,-435.46 1779.85,-437.78 1783.55,-443.72"/>
</g>
<!-- 42 -->
<g id="node44" class="node">
<title>42</title>
<ellipse fill="none" stroke="black" cx="258" cy="-34" rx="46.59" ry="18"/>
<text text-anchor="middle" x="258" y="-30.3" font-family="Times,serif" font-size="14.00">Mon (b)</text>
</g>
<!-- 31&#45;&gt;42 -->
<g id="edge42" class="edge">
<title>31&#45;&gt;42</title>
<path fill="none" stroke="black" stroke-dasharray="1,5" d="M258,-88.81C258,-80.79 258,-71.05 258,-62.07"/>
<polygon fill="black" stroke="black" points="261.5,-62.03 258,-52.03 254.5,-62.03 261.5,-62.03"/>
</g>
<!-- 32 -->
<g id="node34" class="node">
<title>32</title>
<ellipse fill="none" stroke="black" cx="1555" cy="-586" rx="53.89" ry="18"/>
<text text-anchor="middle" x="1555" y="-582.3" font-family="Times,serif" font-size="14.00">aBase (a)</text>
</g>
<!-- 32&#45;&gt;11 -->
<g id="edge12" class="edge">
<title>32&#45;&gt;11</title>
<path fill="none" stroke="blue" stroke-width="2" d="M1500.71,-585.22C1365.13,-584.84 1001.29,-578.01 705,-520 701.16,-519.25 697.21,-518.31 693.28,-517.26"/>
<polygon fill="blue" stroke="blue" stroke-width="2" points="694.21,-513.89 683.63,-514.48 692.27,-520.61 694.21,-513.89"/>
</g>
<!-- 32&#45;&gt;17 -->
<g id="edge18" class="edge">
<title>32&#45;&gt;17</title>
<path fill="none" stroke="blue" stroke-width="2" d="M1504.21,-579.71C1364.88,-565.22 977.11,-524.86 827.22,-509.27"/>
<polygon fill="blue" stroke="blue" stroke-width="2" points="827.58,-505.79 817.27,-508.23 826.85,-512.75 827.58,-505.79"/>
</g>
<!-- 32&#45;&gt;20 -->
<g id="edge21" class="edge">
<title>32&#45;&gt;20</title>
<path fill="none" stroke="black" stroke-dasharray="5,2" d="M1512.53,-574.7C1449.08,-559.3 1329.96,-530.4 1263.98,-514.4"/>
<polygon fill="black" stroke="black" points="1264.41,-510.9 1253.86,-511.94 1262.76,-517.7 1264.41,-510.9"/>
</g>
<!-- 32&#45;&gt;25 -->
<g id="edge26" class="edge">
<title>32&#45;&gt;25</title>
<path fill="none" stroke="blue" stroke-width="2" d="M1555,-567.61C1555,-556.77 1555,-542.6 1555,-530.29"/>
<polygon fill="blue" stroke="blue" stroke-width="2" points="1558.5,-530.08 1555,-520.08 1551.5,-530.08 1558.5,-530.08"/>
</g>
<!-- 32&#45;&gt;27 -->
<g id="edge28" class="edge">
<title>32&#45;&gt;27</title>
<path fill="none" stroke="black" d="M1579.15,-569.77C1600.02,-556.6 1630.35,-537.47 1653.19,-523.06"/>
<polygon fill="black" stroke="black" points="1655.27,-525.89 1661.86,-517.6 1651.53,-519.97 1655.27,-525.89"/>
</g>
<!-- 34 -->
<g id="node36" class="node">
<title>34</title>
<ellipse fill="none" stroke="black" cx="1813" cy="-502" rx="55.79" ry="18"/>
<text text-anchor="middle" x="1813" y="-498.3" font-family="Times,serif" font-size="14.00">V1629 (a)</text>
</g>
<!-- 32&#45;&gt;34 -->
<g id="edge34" class="edge">
<title>32&#45;&gt;34</title>
<path fill="none" stroke="black" stroke-width="2" d="M1592.79,-572.99C1638.46,-558.48 1715.34,-534.04 1765.11,-518.22"/>
<polygon fill="black" stroke="black" stroke-width="2" points="1766.22,-521.54 1774.69,-515.18 1764.1,-514.87 1766.22,-521.54"/>
<text text-anchor="middle" x="1702.5" y="-541" font-family="Times,serif" font-size="10.00">3</text>
</g>
<!-- 43 -->
<g id="node45" class="node">
<title>43</title>
<ellipse fill="none" stroke="black" cx="1937" cy="-502" rx="50.09" ry="18"/>
<text text-anchor="middle" x="1937" y="-498.3" font-family="Times,serif" font-size="14.00">S249 (a)</text>
</g>
<!-- 32&#45;&gt;43 -->
<g id="edge43" class="edge">
<title>32&#45;&gt;43</title>
<path fill="none" stroke="black" d="M1601.53,-576.87C1664.54,-565.59 1780.34,-543.85 1878,-520 1882.02,-519.02 1886.18,-517.94 1890.34,-516.83"/>
<polygon fill="black" stroke="black" points="1891.28,-520.2 1899.99,-514.17 1889.42,-513.45 1891.28,-520.2"/>
</g>
<!-- 34&#45;&gt;26 -->
<g id="edge27" class="edge">
<title>34&#45;&gt;26</title>
<path fill="none" stroke="gray" stroke-width="2" d="M1834.59,-485.38C1852.42,-472.49 1877.85,-454.1 1897.2,-440.1"/>
<polygon fill="gray" stroke="gray" stroke-width="2" points="1899.29,-442.91 1905.35,-434.21 1895.19,-437.24 1899.29,-442.91"/>
</g>
<!-- 38 -->
<g id="node40" class="node">
<title>38</title>
<ellipse fill="none" stroke="black" cx="2026" cy="-419" rx="46.59" ry="18"/>
<text text-anchor="middle" x="2026" y="-415.3" font-family="Times,serif" font-size="14.00">Taur (a)</text>
</g>
<!-- 34&#45;&gt;38 -->
<g id="edge38" class="edge">
<title>34&#45;&gt;38</title>
<path fill="none" stroke="black" stroke-dasharray="5,2" d="M1847.7,-487.81C1885.05,-473.6 1944.46,-451.01 1984.32,-435.85"/>
<polygon fill="black" stroke="black" points="1985.66,-439.09 1993.76,-432.26 1983.17,-432.54 1985.66,-439.09"/>
<text text-anchor="middle" x="1935.5" y="-458" font-family="Times,serif" font-size="10.00">3</text>
</g>
<!-- 35&#45;&gt;18 -->
<g id="edge19" class="edge">
<title>35&#45;&gt;18</title>
<path fill="none" stroke="blue" d="M1814.58,-400.82C1814.31,-390.19 1813.97,-376.31 1813.67,-364.2"/>
<polygon fill="blue" stroke="blue" points="1817.17,-364.06 1813.42,-354.15 1810.17,-364.24 1817.17,-364.06"/>
</g>
<!-- 35&#45;&gt;24 -->
<g id="edge25" class="edge">
<title>35&#45;&gt;24</title>
<path fill="none" stroke="black" stroke-dasharray="1,5" d="M1834.95,-402C1850.47,-389.56 1872.14,-372.17 1889.17,-358.52"/>
<polygon fill="black" stroke="black" points="1891.5,-361.13 1897.11,-352.15 1887.12,-355.67 1891.5,-361.13"/>
</g>
<!-- 37 -->
<g id="node39" class="node">
<title>37</title>
<ellipse fill="none" stroke="black" cx="2026" cy="-336" rx="50.09" ry="18"/>
<text text-anchor="middle" x="2026" y="-332.3" font-family="Times,serif" font-size="14.00">V569 (a)</text>
</g>
<!-- 38&#45;&gt;37 -->
<g id="edge37" class="edge">
<title>38&#45;&gt;37</title>
<path fill="none" stroke="black" stroke-dasharray="5,2" d="M2026,-400.82C2026,-390.19 2026,-376.31 2026,-364.2"/>
<polygon fill="black" stroke="black" points="2029.5,-364.15 2026,-354.15 2022.5,-364.15 2029.5,-364.15"/>
</g>
<!-- 45 -->
<g id="node47" class="node">
<title>45</title>
<ellipse fill="none" stroke="black" cx="1696" cy="-336" rx="55.79" ry="18"/>
<text text-anchor="middle" x="1696" y="-332.3" font-family="Times,serif" font-size="14.00">V1639 (a)</text>
</g>
<!-- 39&#45;&gt;45 -->
<g id="edge45" class="edge">
<title>39&#45;&gt;45</title>
<path fill="none" stroke="black" stroke-dasharray="1,5" d="M1467.85,-406.74C1514.61,-392.44 1595.41,-367.75 1647.24,-351.9"/>
<polygon fill="black" stroke="black" points="1648.34,-355.23 1656.88,-348.96 1646.29,-348.53 1648.34,-355.23"/>
</g>
<!-- 40 -->
<g id="node42" class="node">
<title>40</title>
<ellipse fill="none" stroke="black" cx="371" cy="-107" rx="44.39" ry="18"/>
<text text-anchor="middle" x="371" y="-103.3" font-family="Times,serif" font-size="14.00">P18 (a)</text>
</g>
<!-- 44&#45;&gt;40 -->
<g id="edge40" class="edge">
<title>44&#45;&gt;40</title>
<path fill="none" stroke="blue" stroke-dasharray="5,2" d="M371,-161.81C371,-153.79 371,-144.05 371,-135.07"/>
<polygon fill="blue" stroke="blue" points="374.5,-135.03 371,-125.03 367.5,-135.03 374.5,-135.03"/>
</g>
</g>
</svg>
