<?xml version="1.0" encoding="UTF-8" standalone="no"?>
<!DOCTYPE svg PUBLIC "-//W3C//DTD SVG 1.1//EN"
 "http://www.w3.org/Graphics/SVG/1.1/DTD/svg11.dtd">
<!-- Generated by graphviz version 2.43.0 (0)
 -->
<!-- Title: textual_flow Pages: 1 -->
<svg width="1457pt" height="765pt"
 viewBox="0.00 0.00 1457.00 765.00" xmlns="http://www.w3.org/2000/svg" xmlns:xlink="http://www.w3.org/1999/xlink">
<g id="graph0" class="graph" transform="scale(1 1) rotate(0) translate(4 761)">
<title>textual_flow</title>
<polygon fill="white" stroke="transparent" points="-4,4 -4,-761 1453,-761 1453,4 -4,4"/>
<g id="clust1" class="cluster">
<title>cluster_legend</title>
<polygon fill="none" stroke="black" points="8,-695 8,-749 164,-749 164,-695 8,-695"/>
</g>
<g id="clust2" class="cluster">
<title>cluster_plot</title>
</g>
<!-- label -->
<g id="node1" class="node">
<title>label</title>
<text text-anchor="middle" x="86" y="-725.8" font-family="Times,serif" font-size="14.00">adstag1.1.14U54</text>
<text text-anchor="middle" x="86" y="-710.8" font-family="Times,serif" font-size="14.00">Con = 5</text>
</g>
<!-- 0 -->
<g id="node2" class="node">
<title>0</title>
<ellipse fill="none" stroke="black" cx="713" cy="-638" rx="44.39" ry="18"/>
<text text-anchor="middle" x="713" y="-634.3" font-family="Times,serif" font-size="14.00">A25 (a)</text>
</g>
<!-- 15 -->
<g id="node17" class="node">
<title>15</title>
<ellipse fill="none" stroke="black" cx="487" cy="-555" rx="40.09" ry="18"/>
<text text-anchor="middle" x="487" y="-551.3" font-family="Times,serif" font-size="14.00">Pal (a)</text>
</g>
<!-- 0&#45;&gt;15 -->
<g id="edge15" class="edge">
<title>0&#45;&gt;15</title>
<path fill="none" stroke="black" stroke-dasharray="5,2" d="M680.62,-625.39C640.11,-610.88 570.76,-586.02 526.98,-570.33"/>
<polygon fill="black" stroke="black" points="528.11,-567.01 517.51,-566.94 525.74,-573.6 528.11,-567.01"/>
</g>
<!-- 19 -->
<g id="node21" class="node">
<title>19</title>
<ellipse fill="none" stroke="black" cx="595" cy="-555" rx="50.09" ry="18"/>
<text text-anchor="middle" x="595" y="-551.3" font-family="Times,serif" font-size="14.00">V566 (a)</text>
</g>
<!-- 0&#45;&gt;19 -->
<g id="edge19" class="edge">
<title>0&#45;&gt;19</title>
<path fill="none" stroke="black" stroke-dasharray="5,2" d="M691.36,-622.14C672.96,-609.52 646.33,-591.24 625.73,-577.09"/>
<polygon fill="black" stroke="black" points="627.53,-574.09 617.31,-571.31 623.57,-579.86 627.53,-574.09"/>
</g>
<!-- 27 -->
<g id="node29" class="node">
<title>27</title>
<ellipse fill="none" stroke="black" cx="712" cy="-555" rx="48.99" ry="18"/>
<text text-anchor="middle" x="712" y="-551.3" font-family="Times,serif" font-size="14.00">La22 (a)</text>
</g>
<!-- 0&#45;&gt;27 -->
<g id="edge27" class="edge">
<title>0&#45;&gt;27</title>
<path fill="none" stroke="black" stroke-dasharray="1,5" d="M712.79,-619.82C712.66,-609.19 712.49,-595.31 712.34,-583.2"/>
<polygon fill="black" stroke="black" points="715.84,-583.11 712.21,-573.15 708.84,-583.2 715.84,-583.11"/>
</g>
<!-- 34 -->
<g id="node36" class="node">
<title>34</title>
<ellipse fill="none" stroke="black" cx="829" cy="-555" rx="50.09" ry="18"/>
<text text-anchor="middle" x="829" y="-551.3" font-family="Times,serif" font-size="14.00">Patm (a)</text>
</g>
<!-- 0&#45;&gt;34 -->
<g id="edge34" class="edge">
<title>0&#45;&gt;34</title>
<path fill="none" stroke="black" stroke-dasharray="1,5" d="M734.28,-622.14C752.36,-609.52 778.54,-591.24 798.79,-577.09"/>
<polygon fill="black" stroke="black" points="800.88,-579.91 807.07,-571.31 796.87,-574.17 800.88,-579.91"/>
</g>
<!-- 39 -->
<g id="node41" class="node">
<title>39</title>
<ellipse fill="none" stroke="black" cx="941" cy="-555" rx="44.39" ry="18"/>
<text text-anchor="middle" x="941" y="-551.3" font-family="Times,serif" font-size="14.00">P01 (a)</text>
</g>
<!-- 0&#45;&gt;39 -->
<g id="edge39" class="edge">
<title>0&#45;&gt;39</title>
<path fill="none" stroke="black" stroke-dasharray="5,2" d="M745.18,-625.57C785.47,-611.25 854.56,-586.71 898.98,-570.93"/>
<polygon fill="black" stroke="black" points="900.36,-574.15 908.61,-567.51 898.02,-567.56 900.36,-574.15"/>
</g>
<!-- 1 -->
<g id="node3" class="node">
<title>1</title>
<ellipse fill="none" stroke="black" cx="1078" cy="-180" rx="41.69" ry="18"/>
<text text-anchor="middle" x="1078" y="-176.3" font-family="Times,serif" font-size="14.00">Sin (b)</text>
</g>
<!-- 6 -->
<g id="node8" class="node">
<title>6</title>
<ellipse fill="none" stroke="black" cx="1078" cy="-107" rx="50.09" ry="18"/>
<text text-anchor="middle" x="1078" y="-103.3" font-family="Times,serif" font-size="14.00">Marc (b)</text>
</g>
<!-- 1&#45;&gt;6 -->
<g id="edge7" class="edge">
<title>1&#45;&gt;6</title>
<path fill="none" stroke="black" stroke-dasharray="1,5" d="M1078,-161.81C1078,-153.79 1078,-144.05 1078,-135.07"/>
<polygon fill="black" stroke="black" points="1081.5,-135.03 1078,-125.03 1074.5,-135.03 1081.5,-135.03"/>
</g>
<!-- 2 -->
<g id="node4" class="node">
<title>2</title>
<ellipse fill="none" stroke="black" cx="233" cy="-399" rx="53.09" ry="18"/>
<text text-anchor="middle" x="233" y="-395.3" font-family="Times,serif" font-size="14.00">LaSM (b)</text>
</g>
<!-- 3 -->
<g id="node5" class="node">
<title>3</title>
<ellipse fill="none" stroke="black" cx="1191" cy="-180" rx="53.09" ry="18"/>
<text text-anchor="middle" x="1191" y="-176.3" font-family="Times,serif" font-size="14.00">M118 (b)</text>
</g>
<!-- 8 -->
<g id="node10" class="node">
<title>8</title>
<ellipse fill="none" stroke="black" cx="1191" cy="-107" rx="44.39" ry="18"/>
<text text-anchor="middle" x="1191" y="-103.3" font-family="Times,serif" font-size="14.00">P18 (b)</text>
</g>
<!-- 3&#45;&gt;8 -->
<g id="edge9" class="edge">
<title>3&#45;&gt;8</title>
<path fill="none" stroke="black" stroke-dasharray="5,2" d="M1191,-161.81C1191,-153.79 1191,-144.05 1191,-135.07"/>
<polygon fill="black" stroke="black" points="1194.5,-135.03 1191,-125.03 1187.5,-135.03 1194.5,-135.03"/>
</g>
<!-- 4 -->
<g id="node6" class="node">
<title>4</title>
<ellipse fill="none" stroke="black" cx="1078" cy="-34" rx="46.59" ry="18"/>
<text text-anchor="middle" x="1078" y="-30.3" font-family="Times,serif" font-size="14.00">Mon (b)</text>
</g>
<!-- 5 -->
<g id="node7" class="node">
<title>5</title>
<ellipse fill="none" stroke="black" cx="370" cy="-399" rx="65.79" ry="18"/>
<text text-anchor="middle" x="370" y="-395.3" font-family="Times,serif" font-size="14.00">Savile&#45;Η (b)</text>
</g>
<!-- 6&#45;&gt;4 -->
<g id="edge5" class="edge">
<title>6&#45;&gt;4</title>
<path fill="none" stroke="black" stroke-dasharray="1,5" d="M1078,-88.81C1078,-80.79 1078,-71.05 1078,-62.07"/>
<polygon fill="black" stroke="black" points="1081.5,-62.03 1078,-52.03 1074.5,-62.03 1081.5,-62.03"/>
</g>
<!-- 7 -->
<g id="node9" class="node">
<title>7</title>
<ellipse fill="none" stroke="black" cx="1073" cy="-399" rx="50.09" ry="18"/>
<text text-anchor="middle" x="1073" y="-395.3" font-family="Times,serif" font-size="14.00">A336 (a)</text>
</g>
<!-- 9 -->
<g id="node11" class="node">
<title>9</title>
<ellipse fill="none" stroke="black" cx="434" cy="-326" rx="55.79" ry="18"/>
<text text-anchor="middle" x="434" y="-322.3" font-family="Times,serif" font-size="14.00">V2250 (b)</text>
</g>
<!-- 10 -->
<g id="node12" class="node">
<title>10</title>
<ellipse fill="none" stroke="black" cx="829" cy="-638" rx="42.79" ry="18"/>
<text text-anchor="middle" x="829" y="-634.3" font-family="Times,serif" font-size="14.00">Bas (a)</text>
</g>
<!-- 11 -->
<g id="node13" class="node">
<title>11</title>
<ellipse fill="none" stroke="black" cx="934" cy="-722" rx="53.89" ry="18"/>
<text text-anchor="middle" x="934" y="-718.3" font-family="Times,serif" font-size="14.00">aBase (a)</text>
</g>
<!-- 11&#45;&gt;0 -->
<g id="edge1" class="edge">
<title>11&#45;&gt;0</title>
<path fill="none" stroke="black" stroke-dasharray="5,2" d="M898.98,-708.01C859.66,-693.42 795.9,-669.76 754.21,-654.29"/>
<polygon fill="black" stroke="black" points="755.22,-650.93 744.63,-650.74 752.79,-657.5 755.22,-650.93"/>
</g>
<!-- 11&#45;&gt;10 -->
<g id="edge11" class="edge">
<title>11&#45;&gt;10</title>
<path fill="none" stroke="black" stroke-width="2" d="M913.75,-705.19C897.57,-692.55 874.71,-674.7 856.81,-660.72"/>
<polygon fill="black" stroke="black" stroke-width="2" points="858.51,-657.6 848.47,-654.21 854.2,-663.12 858.51,-657.6"/>
<text text-anchor="middle" x="890.5" y="-677" font-family="Times,serif" font-size="10.00">3</text>
</g>
<!-- 30 -->
<g id="node32" class="node">
<title>30</title>
<ellipse fill="none" stroke="black" cx="934" cy="-638" rx="44.39" ry="18"/>
<text text-anchor="middle" x="934" y="-634.3" font-family="Times,serif" font-size="14.00">B39 (a)</text>
</g>
<!-- 11&#45;&gt;30 -->
<g id="edge30" class="edge">
<title>11&#45;&gt;30</title>
<path fill="none" stroke="black" stroke-width="2" d="M934,-703.61C934,-692.77 934,-678.6 934,-666.29"/>
<polygon fill="black" stroke="black" stroke-width="2" points="937.5,-666.08 934,-656.08 930.5,-666.08 937.5,-666.08"/>
<text text-anchor="middle" x="937.5" y="-677" font-family="Times,serif" font-size="10.00">2</text>
</g>
<!-- 31 -->
<g id="node33" class="node">
<title>31</title>
<ellipse fill="none" stroke="black" cx="1046" cy="-638" rx="50.09" ry="18"/>
<text text-anchor="middle" x="1046" y="-634.3" font-family="Times,serif" font-size="14.00">S249 (a)</text>
</g>
<!-- 11&#45;&gt;31 -->
<g id="edge31" class="edge">
<title>11&#45;&gt;31</title>
<path fill="none" stroke="black" d="M955.33,-705.38C972.69,-692.67 997.38,-674.6 1016.61,-660.52"/>
<polygon fill="black" stroke="black" points="1018.75,-663.29 1024.75,-654.56 1014.61,-657.64 1018.75,-663.29"/>
</g>
<!-- 38 -->
<g id="node40" class="node">
<title>38</title>
<ellipse fill="none" stroke="black" cx="1172" cy="-638" rx="53.09" ry="18"/>
<text text-anchor="middle" x="1172" y="-634.3" font-family="Times,serif" font-size="14.00">M136 (b)</text>
</g>
<!-- 11&#45;&gt;38 -->
<g id="edge38" class="edge">
<title>11&#45;&gt;38</title>
<path fill="none" stroke="blue" stroke-width="2" d="M970.15,-708.55C1011.94,-694.15 1080.81,-670.42 1126.29,-654.75"/>
<polygon fill="blue" stroke="blue" stroke-width="2" points="1127.59,-658 1135.9,-651.44 1125.31,-651.39 1127.59,-658"/>
</g>
<!-- 12 -->
<g id="node14" class="node">
<title>12</title>
<ellipse fill="none" stroke="black" cx="357" cy="-482" rx="46.59" ry="18"/>
<text text-anchor="middle" x="357" y="-478.3" font-family="Times,serif" font-size="14.00">Bodl (a)</text>
</g>
<!-- 13 -->
<g id="node15" class="node">
<title>13</title>
<ellipse fill="none" stroke="black" cx="472" cy="-482" rx="50.09" ry="18"/>
<text text-anchor="middle" x="472" y="-478.3" font-family="Times,serif" font-size="14.00">V571 (b)</text>
</g>
<!-- 22 -->
<g id="node24" class="node">
<title>22</title>
<ellipse fill="none" stroke="black" cx="607" cy="-399" rx="44.39" ry="18"/>
<text text-anchor="middle" x="607" y="-395.3" font-family="Times,serif" font-size="14.00">S32 (b)</text>
</g>
<!-- 13&#45;&gt;22 -->
<g id="edge22" class="edge">
<title>13&#45;&gt;22</title>
<path fill="none" stroke="black" stroke-dasharray="5,2" d="M487.02,-464.53C496.38,-454.97 509.07,-443.24 522,-435 534.9,-426.78 550.07,-419.81 563.98,-414.3"/>
<polygon fill="black" stroke="black" points="565.27,-417.55 573.38,-410.73 562.78,-411.01 565.27,-417.55"/>
<text text-anchor="middle" x="525.5" y="-438" font-family="Times,serif" font-size="10.00">4</text>
</g>
<!-- 25 -->
<g id="node27" class="node">
<title>25</title>
<ellipse fill="none" stroke="black" cx="725" cy="-399" rx="55.79" ry="18"/>
<text text-anchor="middle" x="725" y="-395.3" font-family="Times,serif" font-size="14.00">V2036 (b)</text>
</g>
<!-- 13&#45;&gt;25 -->
<g id="edge25" class="edge">
<title>13&#45;&gt;25</title>
<path fill="none" stroke="black" stroke-dasharray="1,5" d="M494.93,-465.74C511.29,-455.53 534.18,-442.62 556,-435 600.28,-419.52 614.16,-426.94 660,-417 664.6,-416 669.37,-414.9 674.14,-413.74"/>
<polygon fill="black" stroke="black" points="675.01,-417.13 683.86,-411.32 673.31,-410.34 675.01,-417.13"/>
<text text-anchor="middle" x="559.5" y="-438" font-family="Times,serif" font-size="10.00">2</text>
</g>
<!-- 33 -->
<g id="node35" class="node">
<title>33</title>
<ellipse fill="none" stroke="black" cx="849" cy="-399" rx="50.09" ry="18"/>
<text text-anchor="middle" x="849" y="-395.3" font-family="Times,serif" font-size="14.00">V560 (b)</text>
</g>
<!-- 13&#45;&gt;33 -->
<g id="edge33" class="edge">
<title>13&#45;&gt;33</title>
<path fill="none" stroke="black" stroke-width="2" d="M508.99,-469.72C516.25,-467.69 523.84,-465.68 531,-464 644.91,-437.33 676.09,-443.67 790,-417 794.03,-416.06 798.19,-415.01 802.36,-413.91"/>
<polygon fill="black" stroke="black" stroke-width="2" points="803.28,-417.28 812.01,-411.28 801.44,-410.53 803.28,-417.28"/>
<text text-anchor="middle" x="698.5" y="-438" font-family="Times,serif" font-size="10.00">4</text>
</g>
<!-- 44 -->
<g id="node46" class="node">
<title>44</title>
<ellipse fill="none" stroke="black" cx="961" cy="-399" rx="43.59" ry="18"/>
<text text-anchor="middle" x="961" y="-395.3" font-family="Times,serif" font-size="14.00">La2 (b)</text>
</g>
<!-- 13&#45;&gt;44 -->
<g id="edge44" class="edge">
<title>13&#45;&gt;44</title>
<path fill="none" stroke="black" d="M508.26,-469.45C515.72,-467.39 523.57,-465.44 531,-464 607.76,-449.12 628.41,-455.68 706,-446 739.43,-441.83 747.65,-439.81 781,-435 837.42,-426.86 852.44,-429.75 908,-417 911.65,-416.16 915.41,-415.19 919.17,-414.14"/>
<polygon fill="black" stroke="black" points="920.42,-417.42 929.01,-411.22 918.43,-410.71 920.42,-417.42"/>
<text text-anchor="middle" x="784.5" y="-438" font-family="Times,serif" font-size="10.00">5</text>
</g>
<!-- 14 -->
<g id="node16" class="node">
<title>14</title>
<ellipse fill="none" stroke="black" cx="1191" cy="-253" rx="47.39" ry="18"/>
<text text-anchor="middle" x="1191" y="-249.3" font-family="Times,serif" font-size="14.00">Taur (b)</text>
</g>
<!-- 14&#45;&gt;1 -->
<g id="edge2" class="edge">
<title>14&#45;&gt;1</title>
<path fill="none" stroke="black" stroke-dasharray="1,5" d="M1167.59,-237.29C1150.7,-226.68 1127.72,-212.24 1109.26,-200.64"/>
<polygon fill="black" stroke="black" points="1110.94,-197.56 1100.61,-195.21 1107.22,-203.49 1110.94,-197.56"/>
</g>
<!-- 14&#45;&gt;3 -->
<g id="edge4" class="edge">
<title>14&#45;&gt;3</title>
<path fill="none" stroke="black" stroke-dasharray="5,2" d="M1191,-234.81C1191,-226.79 1191,-217.05 1191,-208.07"/>
<polygon fill="black" stroke="black" points="1194.5,-208.03 1191,-198.03 1187.5,-208.03 1194.5,-208.03"/>
</g>
<!-- 40 -->
<g id="node42" class="node">
<title>40</title>
<ellipse fill="none" stroke="black" cx="1312" cy="-180" rx="50.09" ry="18"/>
<text text-anchor="middle" x="1312" y="-176.3" font-family="Times,serif" font-size="14.00">V569 (b)</text>
</g>
<!-- 14&#45;&gt;40 -->
<g id="edge40" class="edge">
<title>14&#45;&gt;40</title>
<path fill="none" stroke="black" stroke-dasharray="5,2" d="M1215.78,-237.46C1233.77,-226.91 1258.32,-212.5 1278.12,-200.88"/>
<polygon fill="black" stroke="black" points="1279.99,-203.84 1286.84,-195.76 1276.44,-197.81 1279.99,-203.84"/>
</g>
<!-- 16 -->
<g id="node18" class="node">
<title>16</title>
<ellipse fill="none" stroke="black" cx="564" cy="-253" rx="42.49" ry="18"/>
<text text-anchor="middle" x="564" y="-249.3" font-family="Times,serif" font-size="14.00">Est (b)</text>
</g>
<!-- 17 -->
<g id="node19" class="node">
<title>17</title>
<ellipse fill="none" stroke="black" cx="564" cy="-326" rx="55.79" ry="18"/>
<text text-anchor="middle" x="564" y="-322.3" font-family="Times,serif" font-size="14.00">V1897 (b)</text>
</g>
<!-- 17&#45;&gt;16 -->
<g id="edge16" class="edge">
<title>17&#45;&gt;16</title>
<path fill="none" stroke="black" stroke-dasharray="1,5" d="M564,-307.81C564,-299.79 564,-290.05 564,-281.07"/>
<polygon fill="black" stroke="black" points="567.5,-281.03 564,-271.03 560.5,-281.03 567.5,-281.03"/>
</g>
<!-- 18 -->
<g id="node20" class="node">
<title>18</title>
<ellipse fill="none" stroke="black" cx="1191" cy="-326" rx="50.09" ry="18"/>
<text text-anchor="middle" x="1191" y="-322.3" font-family="Times,serif" font-size="14.00">V568 (b)</text>
</g>
<!-- 18&#45;&gt;14 -->
<g id="edge14" class="edge">
<title>18&#45;&gt;14</title>
<path fill="none" stroke="black" stroke-dasharray="1,5" d="M1191,-307.81C1191,-299.79 1191,-290.05 1191,-281.07"/>
<polygon fill="black" stroke="black" points="1194.5,-281.03 1191,-271.03 1187.5,-281.03 1194.5,-281.03"/>
</g>
<!-- 35 -->
<g id="node37" class="node">
<title>35</title>
<ellipse fill="none" stroke="black" cx="236" cy="-482" rx="55.79" ry="18"/>
<text text-anchor="middle" x="236" y="-478.3" font-family="Times,serif" font-size="14.00">V1639 (b)</text>
</g>
<!-- 19&#45;&gt;35 -->
<g id="edge35" class="edge">
<title>19&#45;&gt;35</title>
<path fill="none" stroke="blue" stroke-dasharray="1,5" d="M558.36,-542.68C551,-540.62 543.28,-538.62 536,-537 432.78,-514.1 404.5,-521.63 301,-500 296.32,-499.02 291.48,-497.92 286.64,-496.76"/>
<polygon fill="blue" stroke="blue" points="287.32,-493.33 276.77,-494.33 285.64,-500.12 287.32,-493.33"/>
</g>
<!-- 20 -->
<g id="node22" class="node">
<title>20</title>
<ellipse fill="none" stroke="gray" stroke-dasharray="5,2" cx="1172" cy="-555" rx="45.49" ry="18"/>
<text text-anchor="middle" x="1172" y="-551.3" font-family="Times,serif" font-size="14.00">LaSM&#45;c</text>
</g>
<!-- 21 -->
<g id="node23" class="node">
<title>21</title>
<ellipse fill="none" stroke="black" cx="593" cy="-482" rx="52.79" ry="18"/>
<text text-anchor="middle" x="593" y="-478.3" font-family="Times,serif" font-size="14.00">M111 (a)</text>
</g>
<!-- 21&#45;&gt;7 -->
<g id="edge8" class="edge">
<title>21&#45;&gt;7</title>
<path fill="none" stroke="black" stroke-dasharray="5,2" d="M631.2,-469.46C638.71,-467.45 646.57,-465.51 654,-464 733.06,-447.91 935.01,-433.44 1014,-417 1018.11,-416.14 1022.35,-415.15 1026.59,-414.08"/>
<polygon fill="black" stroke="black" points="1027.63,-417.43 1036.39,-411.47 1025.83,-410.66 1027.63,-417.43"/>
</g>
<!-- 23 -->
<g id="node25" class="node">
<title>23</title>
<ellipse fill="none" stroke="black" cx="1289" cy="-555" rx="50.89" ry="18"/>
<text text-anchor="middle" x="1289" y="-551.3" font-family="Times,serif" font-size="14.00">Neap (b)</text>
</g>
<!-- 28 -->
<g id="node30" class="node">
<title>28</title>
<ellipse fill="none" stroke="black" cx="1177" cy="-482" rx="55.79" ry="18"/>
<text text-anchor="middle" x="1177" y="-478.3" font-family="Times,serif" font-size="14.00">V1629 (b)</text>
</g>
<!-- 23&#45;&gt;28 -->
<g id="edge28" class="edge">
<title>23&#45;&gt;28</title>
<path fill="none" stroke="black" stroke-dasharray="1,5" d="M1265.25,-538.94C1249.17,-528.75 1227.72,-515.15 1209.99,-503.91"/>
<polygon fill="black" stroke="black" points="1211.42,-500.68 1201.1,-498.28 1207.68,-506.59 1211.42,-500.68"/>
</g>
<!-- 32 -->
<g id="node34" class="node">
<title>32</title>
<ellipse fill="none" stroke="gray" stroke-dasharray="5,2" cx="1291" cy="-482" rx="39.79" ry="18"/>
<text text-anchor="middle" x="1291" y="-478.3" font-family="Times,serif" font-size="14.00">Taur&#45;c</text>
</g>
<!-- 23&#45;&gt;32 -->
<g id="edge32" class="edge">
<title>23&#45;&gt;32</title>
<path fill="none" stroke="gray" stroke-width="2" d="M1289.48,-536.81C1289.71,-528.79 1289.98,-519.05 1290.24,-510.07"/>
<polygon fill="gray" stroke="gray" stroke-width="2" points="1293.74,-510.12 1290.52,-500.03 1286.74,-509.93 1293.74,-510.12"/>
</g>
<!-- 36 -->
<g id="node38" class="node">
<title>36</title>
<ellipse fill="none" stroke="gray" stroke-dasharray="5,2" cx="1391" cy="-482" rx="42.49" ry="18"/>
<text text-anchor="middle" x="1391" y="-478.3" font-family="Times,serif" font-size="14.00">Marc&#45;c</text>
</g>
<!-- 23&#45;&gt;36 -->
<g id="edge36" class="edge">
<title>23&#45;&gt;36</title>
<path fill="none" stroke="gray" stroke-dasharray="5,2" d="M1311.13,-538.59C1325.86,-528.34 1345.39,-514.75 1361.45,-503.57"/>
<polygon fill="gray" stroke="gray" points="1363.75,-506.23 1369.96,-497.65 1359.75,-500.49 1363.75,-506.23"/>
</g>
<!-- 24 -->
<g id="node26" class="node">
<title>24</title>
<ellipse fill="none" stroke="black" cx="1191" cy="-399" rx="50.09" ry="18"/>
<text text-anchor="middle" x="1191" y="-395.3" font-family="Times,serif" font-size="14.00">V536 (b)</text>
</g>
<!-- 24&#45;&gt;18 -->
<g id="edge18" class="edge">
<title>24&#45;&gt;18</title>
<path fill="none" stroke="black" stroke-dasharray="1,5" d="M1191,-380.81C1191,-372.79 1191,-363.05 1191,-354.07"/>
<polygon fill="black" stroke="black" points="1194.5,-354.03 1191,-344.03 1187.5,-354.03 1194.5,-354.03"/>
</g>
<!-- 26 -->
<g id="node28" class="node">
<title>26</title>
<ellipse fill="none" stroke="black" cx="712" cy="-482" rx="48.99" ry="18"/>
<text text-anchor="middle" x="712" y="-478.3" font-family="Times,serif" font-size="14.00">La35 (a)</text>
</g>
<!-- 27&#45;&gt;12 -->
<g id="edge12" class="edge">
<title>27&#45;&gt;12</title>
<path fill="none" stroke="black" stroke-dasharray="5,2" d="M676.3,-542.73C668.97,-540.64 661.27,-538.62 654,-537 548.22,-513.49 518.67,-524.02 413,-500 409.15,-499.13 405.18,-498.13 401.22,-497.06"/>
<polygon fill="black" stroke="black" points="402.02,-493.65 391.45,-494.3 400.12,-500.38 402.02,-493.65"/>
</g>
<!-- 27&#45;&gt;13 -->
<g id="edge13" class="edge">
<title>27&#45;&gt;13</title>
<path fill="none" stroke="blue" stroke-dasharray="1,5" d="M681.45,-540.68C663.51,-533.24 640.26,-524.24 619,-518 580.7,-506.75 569.77,-509.53 531,-500 526.98,-499.01 522.83,-497.93 518.67,-496.81"/>
<polygon fill="blue" stroke="blue" points="519.59,-493.44 509.02,-494.15 517.73,-500.18 519.59,-493.44"/>
</g>
<!-- 27&#45;&gt;21 -->
<g id="edge21" class="edge">
<title>27&#45;&gt;21</title>
<path fill="none" stroke="black" stroke-dasharray="1,5" d="M695.29,-537.77C687.91,-531.13 678.91,-523.68 670,-518 659.46,-511.28 647.41,-505.15 636.02,-499.98"/>
<polygon fill="black" stroke="black" points="637.22,-496.68 626.66,-495.86 634.4,-503.09 637.22,-496.68"/>
</g>
<!-- 27&#45;&gt;26 -->
<g id="edge26" class="edge">
<title>27&#45;&gt;26</title>
<path fill="none" stroke="black" stroke-dasharray="1,5" d="M712,-536.81C712,-528.79 712,-519.05 712,-510.07"/>
<polygon fill="black" stroke="black" points="715.5,-510.03 712,-500.03 708.5,-510.03 715.5,-510.03"/>
</g>
<!-- 29 -->
<g id="node31" class="node">
<title>29</title>
<ellipse fill="none" stroke="black" cx="829" cy="-482" rx="50.09" ry="18"/>
<text text-anchor="middle" x="829" y="-478.3" font-family="Times,serif" font-size="14.00">V565 (a)</text>
</g>
<!-- 27&#45;&gt;29 -->
<g id="edge29" class="edge">
<title>27&#45;&gt;29</title>
<path fill="none" stroke="black" stroke-dasharray="5,2" d="M736.24,-539.29C753.46,-528.84 776.79,-514.68 795.75,-503.18"/>
<polygon fill="black" stroke="black" points="797.65,-506.12 804.39,-497.94 794.02,-500.13 797.65,-506.12"/>
</g>
<!-- 41 -->
<g id="node43" class="node">
<title>41</title>
<ellipse fill="none" stroke="black" cx="941" cy="-482" rx="44.39" ry="18"/>
<text text-anchor="middle" x="941" y="-478.3" font-family="Times,serif" font-size="14.00">P74 (a)</text>
</g>
<!-- 27&#45;&gt;41 -->
<g id="edge41" class="edge">
<title>27&#45;&gt;41</title>
<path fill="none" stroke="black" stroke-dasharray="1,5" d="M748.45,-542.97C784.07,-532.14 839.82,-515.12 888,-500 891.13,-499.02 894.37,-497.99 897.63,-496.96"/>
<polygon fill="black" stroke="black" points="898.91,-500.23 907.38,-493.86 896.78,-493.56 898.91,-500.23"/>
</g>
<!-- 45 -->
<g id="node47" class="node">
<title>45</title>
<ellipse fill="none" stroke="black" cx="1053" cy="-482" rx="50.09" ry="18"/>
<text text-anchor="middle" x="1053" y="-478.3" font-family="Times,serif" font-size="14.00">A116 (a)</text>
</g>
<!-- 27&#45;&gt;45 -->
<g id="edge45" class="edge">
<title>27&#45;&gt;45</title>
<path fill="none" stroke="black" stroke-dasharray="5,2" d="M748.02,-542.71C755.26,-540.65 762.84,-538.63 770,-537 868.37,-514.55 895.57,-522.23 994,-500 998.09,-499.08 1002.32,-498.03 1006.55,-496.93"/>
<polygon fill="black" stroke="black" points="1007.61,-500.27 1016.35,-494.28 1005.78,-493.51 1007.61,-500.27"/>
</g>
<!-- 28&#45;&gt;24 -->
<g id="edge24" class="edge">
<title>28&#45;&gt;24</title>
<path fill="none" stroke="black" stroke-dasharray="5,2" d="M1179.97,-463.82C1181.81,-453.19 1184.21,-439.31 1186.3,-427.2"/>
<polygon fill="black" stroke="black" points="1189.78,-427.6 1188.04,-417.15 1182.88,-426.41 1189.78,-427.6"/>
</g>
<!-- 37 -->
<g id="node39" class="node">
<title>37</title>
<ellipse fill="none" stroke="gray" stroke-dasharray="5,2" cx="1295" cy="-399" rx="36" ry="18"/>
<text text-anchor="middle" x="1295" y="-395.3" font-family="Times,serif" font-size="14.00">La2&#45;c</text>
</g>
<!-- 28&#45;&gt;37 -->
<g id="edge37" class="edge">
<title>28&#45;&gt;37</title>
<path fill="none" stroke="gray" stroke-width="2" d="M1199.75,-465.38C1218.74,-452.35 1245.9,-433.7 1266.36,-419.66"/>
<polygon fill="gray" stroke="gray" stroke-width="2" points="1268.42,-422.49 1274.68,-413.95 1264.46,-416.72 1268.42,-422.49"/>
</g>
<!-- 43 -->
<g id="node45" class="node">
<title>43</title>
<ellipse fill="none" stroke="black" cx="849" cy="-326" rx="55.79" ry="18"/>
<text text-anchor="middle" x="849" y="-322.3" font-family="Times,serif" font-size="14.00">V1920 (b)</text>
</g>
<!-- 33&#45;&gt;43 -->
<g id="edge43" class="edge">
<title>33&#45;&gt;43</title>
<path fill="none" stroke="black" stroke-dasharray="5,2" d="M849,-380.81C849,-372.79 849,-363.05 849,-354.07"/>
<polygon fill="black" stroke="black" points="852.5,-354.03 849,-344.03 845.5,-354.03 852.5,-354.03"/>
</g>
<!-- 35&#45;&gt;2 -->
<g id="edge3" class="edge">
<title>35&#45;&gt;2</title>
<path fill="none" stroke="black" stroke-dasharray="5,2" d="M235.36,-463.82C234.97,-453.19 234.46,-439.31 234.01,-427.2"/>
<polygon fill="black" stroke="black" points="237.5,-427.02 233.64,-417.15 230.51,-427.28 237.5,-427.02"/>
<text text-anchor="middle" x="237.5" y="-438" font-family="Times,serif" font-size="10.00">5</text>
</g>
<!-- 35&#45;&gt;5 -->
<g id="edge6" class="edge">
<title>35&#45;&gt;5</title>
<path fill="none" stroke="black" d="M261.2,-465.76C282.09,-453.14 311.99,-435.07 335.16,-421.06"/>
<polygon fill="black" stroke="black" points="337.25,-423.89 343.99,-415.72 333.63,-417.9 337.25,-423.89"/>
</g>
<!-- 42 -->
<g id="node44" class="node">
<title>42</title>
<ellipse fill="none" stroke="black" cx="499" cy="-399" rx="45.49" ry="18"/>
<text text-anchor="middle" x="499" y="-395.3" font-family="Times,serif" font-size="14.00">Nan (b)</text>
</g>
<!-- 35&#45;&gt;42 -->
<g id="edge42" class="edge">
<title>35&#45;&gt;42</title>
<path fill="none" stroke="black" stroke-dasharray="5,2" d="M275.32,-469.06C317.35,-456.27 385.93,-435.34 445,-417 448.14,-416.02 451.39,-415.01 454.66,-413.99"/>
<polygon fill="black" stroke="black" points="455.95,-417.25 464.44,-410.92 453.85,-410.57 455.95,-417.25"/>
<text text-anchor="middle" x="384.5" y="-438" font-family="Times,serif" font-size="10.00">5</text>
</g>
<!-- 38&#45;&gt;20 -->
<g id="edge20" class="edge">
<title>38&#45;&gt;20</title>
<path fill="none" stroke="gray" stroke-dasharray="5,2" d="M1172,-619.82C1172,-609.19 1172,-595.31 1172,-583.2"/>
<polygon fill="gray" stroke="gray" points="1175.5,-583.15 1172,-573.15 1168.5,-583.15 1175.5,-583.15"/>
</g>
<!-- 38&#45;&gt;23 -->
<g id="edge23" class="edge">
<title>38&#45;&gt;23</title>
<path fill="none" stroke="black" stroke-dasharray="5,2" d="M1194.28,-621.57C1212.5,-608.96 1238.44,-591 1258.57,-577.07"/>
<polygon fill="black" stroke="black" points="1260.57,-579.94 1266.8,-571.37 1256.59,-574.18 1260.57,-579.94"/>
<text text-anchor="middle" x="1240.5" y="-594" font-family="Times,serif" font-size="10.00">2</text>
</g>
<!-- 42&#45;&gt;9 -->
<g id="edge10" class="edge">
<title>42&#45;&gt;9</title>
<path fill="none" stroke="black" stroke-dasharray="5,2" d="M484.25,-381.89C475.89,-372.76 465.28,-361.16 455.96,-350.98"/>
<polygon fill="black" stroke="black" points="458.48,-348.55 449.14,-343.54 453.31,-353.28 458.48,-348.55"/>
</g>
<!-- 42&#45;&gt;17 -->
<g id="edge17" class="edge">
<title>42&#45;&gt;17</title>
<path fill="none" stroke="black" stroke-dasharray="1,5" d="M513.75,-381.89C522.11,-372.76 532.72,-361.16 542.04,-350.98"/>
<polygon fill="black" stroke="black" points="544.69,-353.28 548.86,-343.54 539.52,-348.55 544.69,-353.28"/>
</g>
</g>
</svg>
