<?xml version="1.0" encoding="UTF-8" standalone="no"?>
<!DOCTYPE svg PUBLIC "-//W3C//DTD SVG 1.1//EN"
 "http://www.w3.org/Graphics/SVG/1.1/DTD/svg11.dtd">
<!-- Generated by graphviz version 2.43.0 (0)
 -->
<!-- Title: textual_flow Pages: 1 -->
<svg width="1945pt" height="682pt"
 viewBox="0.00 0.00 1945.00 682.00" xmlns="http://www.w3.org/2000/svg" xmlns:xlink="http://www.w3.org/1999/xlink">
<g id="graph0" class="graph" transform="scale(1 1) rotate(0) translate(4 678)">
<title>textual_flow</title>
<polygon fill="white" stroke="transparent" points="-4,4 -4,-678 1941,-678 1941,4 -4,4"/>
<g id="clust1" class="cluster">
<title>cluster_legend</title>
<polygon fill="none" stroke="black" points="8,-612 8,-666 186,-666 186,-612 8,-612"/>
</g>
<g id="clust2" class="cluster">
<title>cluster_plot</title>
</g>
<!-- label -->
<g id="node1" class="node">
<title>label</title>
<text text-anchor="middle" x="97" y="-642.8" font-family="Times,serif" font-size="14.00">adstag1.2.18U24&#45;28</text>
<text text-anchor="middle" x="97" y="-627.8" font-family="Times,serif" font-size="14.00">Con = 5</text>
</g>
<!-- 0 -->
<g id="node2" class="node">
<title>0</title>
<ellipse fill="none" stroke="black" cx="459" cy="-555" rx="43.59" ry="18"/>
<text text-anchor="middle" x="459" y="-551.3" font-family="Times,serif" font-size="14.00">A25 (c)</text>
</g>
<!-- 7 -->
<g id="node9" class="node">
<title>7</title>
<ellipse fill="none" stroke="black" cx="251" cy="-472" rx="49.29" ry="18"/>
<text text-anchor="middle" x="251" y="-468.3" font-family="Times,serif" font-size="14.00">A336 (c)</text>
</g>
<!-- 0&#45;&gt;7 -->
<g id="edge8" class="edge">
<title>0&#45;&gt;7</title>
<path fill="none" stroke="black" stroke-dasharray="5,2" d="M428.31,-542.05C392.5,-528.1 333.1,-504.97 293.03,-489.37"/>
<polygon fill="black" stroke="black" points="294.12,-486.04 283.53,-485.67 291.58,-492.56 294.12,-486.04"/>
<text text-anchor="middle" x="370.5" y="-511" font-family="Times,serif" font-size="10.00">4</text>
</g>
<!-- 15 -->
<g id="node17" class="node">
<title>15</title>
<ellipse fill="none" stroke="black" cx="358" cy="-472" rx="39.79" ry="18"/>
<text text-anchor="middle" x="358" y="-468.3" font-family="Times,serif" font-size="14.00">Pal (c)</text>
</g>
<!-- 0&#45;&gt;15 -->
<g id="edge15" class="edge">
<title>0&#45;&gt;15</title>
<path fill="none" stroke="black" stroke-dasharray="5,2" d="M440,-538.76C424.48,-526.32 402.36,-508.58 385,-494.65"/>
<polygon fill="black" stroke="black" points="386.9,-491.69 376.91,-488.17 382.52,-497.15 386.9,-491.69"/>
</g>
<!-- 22 -->
<g id="node24" class="node">
<title>22</title>
<ellipse fill="none" stroke="black" cx="459" cy="-472" rx="43.59" ry="18"/>
<text text-anchor="middle" x="459" y="-468.3" font-family="Times,serif" font-size="14.00">S32 (c)</text>
</g>
<!-- 0&#45;&gt;22 -->
<g id="edge22" class="edge">
<title>0&#45;&gt;22</title>
<path fill="none" stroke="black" stroke-dasharray="5,2" d="M459,-536.82C459,-526.19 459,-512.31 459,-500.2"/>
<polygon fill="black" stroke="black" points="462.5,-500.15 459,-490.15 455.5,-500.15 462.5,-500.15"/>
</g>
<!-- 27 -->
<g id="node29" class="node">
<title>27</title>
<ellipse fill="none" stroke="black" cx="570" cy="-472" rx="49.29" ry="18"/>
<text text-anchor="middle" x="570" y="-468.3" font-family="Times,serif" font-size="14.00">La22 (b)</text>
</g>
<!-- 0&#45;&gt;27 -->
<g id="edge27" class="edge">
<title>0&#45;&gt;27</title>
<path fill="none" stroke="blue" stroke-dasharray="1,5" d="M479.62,-538.95C496.77,-526.44 521.39,-508.47 540.6,-494.45"/>
<polygon fill="blue" stroke="blue" points="542.72,-497.24 548.74,-488.52 538.6,-491.58 542.72,-497.24"/>
</g>
<!-- 1 -->
<g id="node3" class="node">
<title>1</title>
<ellipse fill="none" stroke="black" cx="1071" cy="-180" rx="41.69" ry="18"/>
<text text-anchor="middle" x="1071" y="-176.3" font-family="Times,serif" font-size="14.00">Sin (b)</text>
</g>
<!-- 6 -->
<g id="node8" class="node">
<title>6</title>
<ellipse fill="none" stroke="black" cx="1071" cy="-107" rx="50.09" ry="18"/>
<text text-anchor="middle" x="1071" y="-103.3" font-family="Times,serif" font-size="14.00">Marc (b)</text>
</g>
<!-- 1&#45;&gt;6 -->
<g id="edge7" class="edge">
<title>1&#45;&gt;6</title>
<path fill="none" stroke="black" stroke-dasharray="1,5" d="M1071,-161.81C1071,-153.79 1071,-144.05 1071,-135.07"/>
<polygon fill="black" stroke="black" points="1074.5,-135.03 1071,-125.03 1067.5,-135.03 1074.5,-135.03"/>
</g>
<!-- 2 -->
<g id="node4" class="node">
<title>2</title>
<ellipse fill="none" stroke="black" cx="725" cy="-555" rx="52.79" ry="18"/>
<text text-anchor="middle" x="725" y="-551.3" font-family="Times,serif" font-size="14.00">LaSM (a)</text>
</g>
<!-- 30 -->
<g id="node32" class="node">
<title>30</title>
<ellipse fill="none" stroke="black" cx="682" cy="-472" rx="44.39" ry="18"/>
<text text-anchor="middle" x="682" y="-468.3" font-family="Times,serif" font-size="14.00">B39 (a)</text>
</g>
<!-- 2&#45;&gt;30 -->
<g id="edge30" class="edge">
<title>2&#45;&gt;30</title>
<path fill="none" stroke="black" stroke-dasharray="5,2" d="M716.09,-537.22C710.21,-526.14 702.39,-511.41 695.72,-498.85"/>
<polygon fill="black" stroke="black" points="698.68,-496.95 690.9,-489.76 692.5,-500.24 698.68,-496.95"/>
</g>
<!-- 3 -->
<g id="node5" class="node">
<title>3</title>
<ellipse fill="none" stroke="black" cx="1183" cy="-180" rx="52.79" ry="18"/>
<text text-anchor="middle" x="1183" y="-176.3" font-family="Times,serif" font-size="14.00">M118 (a)</text>
</g>
<!-- 8 -->
<g id="node10" class="node">
<title>8</title>
<ellipse fill="none" stroke="gray" stroke-dasharray="5,2" cx="1183" cy="-107" rx="28.7" ry="18"/>
<text text-anchor="middle" x="1183" y="-103.3" font-family="Times,serif" font-size="14.00">P18</text>
</g>
<!-- 3&#45;&gt;8 -->
<g id="edge9" class="edge">
<title>3&#45;&gt;8</title>
<path fill="none" stroke="gray" stroke-dasharray="5,2" d="M1183,-161.81C1183,-153.79 1183,-144.05 1183,-135.07"/>
<polygon fill="gray" stroke="gray" points="1186.5,-135.03 1183,-125.03 1179.5,-135.03 1186.5,-135.03"/>
</g>
<!-- 4 -->
<g id="node6" class="node">
<title>4</title>
<ellipse fill="none" stroke="black" cx="1071" cy="-34" rx="46.59" ry="18"/>
<text text-anchor="middle" x="1071" y="-30.3" font-family="Times,serif" font-size="14.00">Mon (b)</text>
</g>
<!-- 5 -->
<g id="node7" class="node">
<title>5</title>
<ellipse fill="none" stroke="gray" stroke-dasharray="5,2" cx="252" cy="-399" rx="50.09" ry="18"/>
<text text-anchor="middle" x="252" y="-395.3" font-family="Times,serif" font-size="14.00">Savile&#45;Η</text>
</g>
<!-- 6&#45;&gt;4 -->
<g id="edge5" class="edge">
<title>6&#45;&gt;4</title>
<path fill="none" stroke="black" stroke-dasharray="1,5" d="M1071,-88.81C1071,-80.79 1071,-71.05 1071,-62.07"/>
<polygon fill="black" stroke="black" points="1074.5,-62.03 1071,-52.03 1067.5,-62.03 1074.5,-62.03"/>
</g>
<!-- 9 -->
<g id="node11" class="node">
<title>9</title>
<ellipse fill="none" stroke="black" cx="1735" cy="-472" rx="55.79" ry="18"/>
<text text-anchor="middle" x="1735" y="-468.3" font-family="Times,serif" font-size="14.00">V2250 (a)</text>
</g>
<!-- 10 -->
<g id="node12" class="node">
<title>10</title>
<ellipse fill="none" stroke="black" cx="1773" cy="-399" rx="42.79" ry="18"/>
<text text-anchor="middle" x="1773" y="-395.3" font-family="Times,serif" font-size="14.00">Bas (a)</text>
</g>
<!-- 11 -->
<g id="node13" class="node">
<title>11</title>
<ellipse fill="none" stroke="black" cx="1185" cy="-639" rx="53.89" ry="18"/>
<text text-anchor="middle" x="1185" y="-635.3" font-family="Times,serif" font-size="14.00">aBase (a)</text>
</g>
<!-- 11&#45;&gt;0 -->
<g id="edge1" class="edge">
<title>11&#45;&gt;0</title>
<path fill="none" stroke="blue" stroke-dasharray="5,2" d="M1134.81,-632.33C1002.34,-617.37 644.26,-576.92 510.41,-561.81"/>
<polygon fill="blue" stroke="blue" points="510.74,-558.32 500.41,-560.68 509.96,-565.28 510.74,-558.32"/>
</g>
<!-- 11&#45;&gt;2 -->
<g id="edge3" class="edge">
<title>11&#45;&gt;2</title>
<path fill="none" stroke="black" d="M1137.1,-630.65C1064.45,-619.32 922.14,-596.44 802,-573 793.98,-571.43 785.51,-569.67 777.23,-567.9"/>
<polygon fill="black" stroke="black" points="777.8,-564.44 767.28,-565.73 776.31,-571.28 777.8,-564.44"/>
</g>
<!-- 19 -->
<g id="node21" class="node">
<title>19</title>
<ellipse fill="none" stroke="black" cx="861" cy="-555" rx="50.09" ry="18"/>
<text text-anchor="middle" x="861" y="-551.3" font-family="Times,serif" font-size="14.00">V566 (a)</text>
</g>
<!-- 11&#45;&gt;19 -->
<g id="edge19" class="edge">
<title>11&#45;&gt;19</title>
<path fill="none" stroke="black" d="M1143.31,-627.45C1083.69,-612.36 974.26,-584.66 910.57,-568.55"/>
<polygon fill="black" stroke="black" points="911.31,-565.12 900.76,-566.06 909.59,-571.91 911.31,-565.12"/>
<text text-anchor="middle" x="1045.5" y="-594" font-family="Times,serif" font-size="10.00">2</text>
</g>
<!-- 23 -->
<g id="node25" class="node">
<title>23</title>
<ellipse fill="none" stroke="black" cx="1036" cy="-555" rx="50.09" ry="18"/>
<text text-anchor="middle" x="1036" y="-551.3" font-family="Times,serif" font-size="14.00">Neap (a)</text>
</g>
<!-- 11&#45;&gt;23 -->
<g id="edge23" class="edge">
<title>11&#45;&gt;23</title>
<path fill="none" stroke="black" stroke-width="2" d="M1158.36,-623.34C1134.1,-609.99 1098.1,-590.17 1071.42,-575.49"/>
<polygon fill="black" stroke="black" stroke-width="2" points="1072.86,-572.29 1062.41,-570.53 1069.48,-578.42 1072.86,-572.29"/>
</g>
<!-- 31 -->
<g id="node33" class="node">
<title>31</title>
<ellipse fill="none" stroke="black" cx="1154" cy="-555" rx="50.09" ry="18"/>
<text text-anchor="middle" x="1154" y="-551.3" font-family="Times,serif" font-size="14.00">S249 (a)</text>
</g>
<!-- 11&#45;&gt;31 -->
<g id="edge31" class="edge">
<title>11&#45;&gt;31</title>
<path fill="none" stroke="black" d="M1178.58,-621.01C1174.38,-609.9 1168.81,-595.17 1164.03,-582.54"/>
<polygon fill="black" stroke="black" points="1167.23,-581.08 1160.41,-572.97 1160.68,-583.56 1167.23,-581.08"/>
</g>
<!-- 33 -->
<g id="node35" class="node">
<title>33</title>
<ellipse fill="none" stroke="black" cx="1272" cy="-555" rx="50.09" ry="18"/>
<text text-anchor="middle" x="1272" y="-551.3" font-family="Times,serif" font-size="14.00">V560 (a)</text>
</g>
<!-- 11&#45;&gt;33 -->
<g id="edge33" class="edge">
<title>11&#45;&gt;33</title>
<path fill="none" stroke="black" stroke-width="2" d="M1202.19,-621.8C1215.06,-609.67 1232.85,-592.9 1247.25,-579.33"/>
<polygon fill="black" stroke="black" stroke-width="2" points="1249.97,-581.57 1254.85,-572.17 1245.17,-576.48 1249.97,-581.57"/>
</g>
<!-- 34 -->
<g id="node36" class="node">
<title>34</title>
<ellipse fill="none" stroke="black" cx="1390" cy="-555" rx="50.09" ry="18"/>
<text text-anchor="middle" x="1390" y="-551.3" font-family="Times,serif" font-size="14.00">Patm (a)</text>
</g>
<!-- 11&#45;&gt;34 -->
<g id="edge34" class="edge">
<title>11&#45;&gt;34</title>
<path fill="none" stroke="black" d="M1218.39,-624.64C1253.85,-610.46 1309.96,-588.02 1348.3,-572.68"/>
<polygon fill="black" stroke="black" points="1349.65,-575.91 1357.64,-568.95 1347.05,-569.41 1349.65,-575.91"/>
<text text-anchor="middle" x="1302.5" y="-594" font-family="Times,serif" font-size="10.00">3</text>
</g>
<!-- 38 -->
<g id="node40" class="node">
<title>38</title>
<ellipse fill="none" stroke="black" cx="1563" cy="-555" rx="52.79" ry="18"/>
<text text-anchor="middle" x="1563" y="-551.3" font-family="Times,serif" font-size="14.00">M136 (a)</text>
</g>
<!-- 11&#45;&gt;38 -->
<g id="edge38" class="edge">
<title>11&#45;&gt;38</title>
<path fill="none" stroke="black" stroke-width="2" d="M1229.1,-628.43C1298.85,-613.3 1434.4,-583.9 1509.57,-567.59"/>
<polygon fill="black" stroke="black" stroke-width="2" points="1510.73,-570.92 1519.76,-565.38 1509.25,-564.08 1510.73,-570.92"/>
</g>
<!-- 42 -->
<g id="node44" class="node">
<title>42</title>
<ellipse fill="none" stroke="black" cx="1706" cy="-555" rx="44.69" ry="18"/>
<text text-anchor="middle" x="1706" y="-551.3" font-family="Times,serif" font-size="14.00">Nan (a)</text>
</g>
<!-- 11&#45;&gt;42 -->
<g id="edge42" class="edge">
<title>11&#45;&gt;42</title>
<path fill="none" stroke="black" d="M1234.32,-631.7C1315.86,-621.06 1483.8,-598.22 1625,-573 1635.61,-571.1 1646.96,-568.86 1657.7,-566.63"/>
<polygon fill="black" stroke="black" points="1658.71,-570 1667.77,-564.52 1657.27,-563.15 1658.71,-570"/>
</g>
<!-- 44 -->
<g id="node46" class="node">
<title>44</title>
<ellipse fill="none" stroke="black" cx="1812" cy="-555" rx="42.79" ry="18"/>
<text text-anchor="middle" x="1812" y="-551.3" font-family="Times,serif" font-size="14.00">La2 (a)</text>
</g>
<!-- 11&#45;&gt;44 -->
<g id="edge44" class="edge">
<title>11&#45;&gt;44</title>
<path fill="none" stroke="black" stroke-width="2" d="M1238.31,-635.6C1340.53,-630.19 1570.79,-614.17 1760,-573 1763.6,-572.22 1767.3,-571.28 1770.99,-570.26"/>
<polygon fill="black" stroke="black" stroke-width="2" points="1772.07,-573.59 1780.66,-567.38 1770.08,-566.88 1772.07,-573.59"/>
</g>
<!-- 12 -->
<g id="node14" class="node">
<title>12</title>
<ellipse fill="none" stroke="black" cx="367" cy="-399" rx="47.39" ry="18"/>
<text text-anchor="middle" x="367" y="-395.3" font-family="Times,serif" font-size="14.00">Bodl (b)</text>
</g>
<!-- 13 -->
<g id="node15" class="node">
<title>13</title>
<ellipse fill="none" stroke="black" cx="482" cy="-399" rx="50.09" ry="18"/>
<text text-anchor="middle" x="482" y="-395.3" font-family="Times,serif" font-size="14.00">V571 (b)</text>
</g>
<!-- 14 -->
<g id="node16" class="node">
<title>14</title>
<ellipse fill="none" stroke="black" cx="1183" cy="-253" rx="46.59" ry="18"/>
<text text-anchor="middle" x="1183" y="-249.3" font-family="Times,serif" font-size="14.00">Taur (a)</text>
</g>
<!-- 14&#45;&gt;1 -->
<g id="edge2" class="edge">
<title>14&#45;&gt;1</title>
<path fill="none" stroke="blue" stroke-dasharray="1,5" d="M1159.79,-237.29C1143.05,-226.68 1120.28,-212.24 1101.99,-200.64"/>
<polygon fill="blue" stroke="blue" points="1103.73,-197.61 1093.41,-195.21 1099.98,-203.52 1103.73,-197.61"/>
</g>
<!-- 14&#45;&gt;3 -->
<g id="edge4" class="edge">
<title>14&#45;&gt;3</title>
<path fill="none" stroke="black" stroke-dasharray="5,2" d="M1183,-234.81C1183,-226.79 1183,-217.05 1183,-208.07"/>
<polygon fill="black" stroke="black" points="1186.5,-208.03 1183,-198.03 1179.5,-208.03 1186.5,-208.03"/>
</g>
<!-- 40 -->
<g id="node42" class="node">
<title>40</title>
<ellipse fill="none" stroke="black" cx="1304" cy="-180" rx="50.09" ry="18"/>
<text text-anchor="middle" x="1304" y="-176.3" font-family="Times,serif" font-size="14.00">V569 (a)</text>
</g>
<!-- 14&#45;&gt;40 -->
<g id="edge40" class="edge">
<title>14&#45;&gt;40</title>
<path fill="none" stroke="black" stroke-dasharray="5,2" d="M1207.49,-237.63C1225.45,-227.09 1250.08,-212.64 1269.96,-200.97"/>
<polygon fill="black" stroke="black" points="1271.86,-203.91 1278.72,-195.84 1268.32,-197.88 1271.86,-203.91"/>
</g>
<!-- 15&#45;&gt;5 -->
<g id="edge6" class="edge">
<title>15&#45;&gt;5</title>
<path fill="none" stroke="gray" d="M336.55,-456.63C321.2,-446.35 300.29,-432.35 283.11,-420.84"/>
<polygon fill="gray" stroke="gray" points="284.77,-417.74 274.52,-415.08 280.88,-423.55 284.77,-417.74"/>
</g>
<!-- 16 -->
<g id="node18" class="node">
<title>16</title>
<ellipse fill="none" stroke="black" cx="1875" cy="-399" rx="41.69" ry="18"/>
<text text-anchor="middle" x="1875" y="-395.3" font-family="Times,serif" font-size="14.00">Est (a)</text>
</g>
<!-- 17 -->
<g id="node19" class="node">
<title>17</title>
<ellipse fill="none" stroke="black" cx="1865" cy="-472" rx="55.79" ry="18"/>
<text text-anchor="middle" x="1865" y="-468.3" font-family="Times,serif" font-size="14.00">V1897 (a)</text>
</g>
<!-- 17&#45;&gt;10 -->
<g id="edge11" class="edge">
<title>17&#45;&gt;10</title>
<path fill="none" stroke="black" d="M1844.58,-455.24C1831.66,-445.27 1814.79,-432.25 1800.67,-421.36"/>
<polygon fill="black" stroke="black" points="1802.78,-418.56 1792.73,-415.23 1798.51,-424.11 1802.78,-418.56"/>
</g>
<!-- 17&#45;&gt;16 -->
<g id="edge16" class="edge">
<title>17&#45;&gt;16</title>
<path fill="none" stroke="black" stroke-dasharray="1,5" d="M1867.42,-453.81C1868.55,-445.79 1869.92,-436.05 1871.19,-427.07"/>
<polygon fill="black" stroke="black" points="1874.67,-427.42 1872.6,-417.03 1867.74,-426.44 1874.67,-427.42"/>
</g>
<!-- 18 -->
<g id="node20" class="node">
<title>18</title>
<ellipse fill="none" stroke="black" cx="1183" cy="-326" rx="50.09" ry="18"/>
<text text-anchor="middle" x="1183" y="-322.3" font-family="Times,serif" font-size="14.00">V568 (a)</text>
</g>
<!-- 18&#45;&gt;14 -->
<g id="edge14" class="edge">
<title>18&#45;&gt;14</title>
<path fill="none" stroke="black" stroke-dasharray="1,5" d="M1183,-307.81C1183,-299.79 1183,-290.05 1183,-281.07"/>
<polygon fill="black" stroke="black" points="1186.5,-281.03 1183,-271.03 1179.5,-281.03 1186.5,-281.03"/>
</g>
<!-- 35 -->
<g id="node37" class="node">
<title>35</title>
<ellipse fill="none" stroke="black" cx="800" cy="-472" rx="55.79" ry="18"/>
<text text-anchor="middle" x="800" y="-468.3" font-family="Times,serif" font-size="14.00">V1639 (a)</text>
</g>
<!-- 19&#45;&gt;35 -->
<g id="edge35" class="edge">
<title>19&#45;&gt;35</title>
<path fill="none" stroke="black" stroke-dasharray="1,5" d="M848.36,-537.22C839.85,-525.92 828.49,-510.83 818.91,-498.11"/>
<polygon fill="black" stroke="black" points="821.43,-495.64 812.62,-489.76 815.84,-499.86 821.43,-495.64"/>
</g>
<!-- 20 -->
<g id="node22" class="node">
<title>20</title>
<ellipse fill="none" stroke="gray" stroke-dasharray="5,2" cx="1616" cy="-472" rx="45.49" ry="18"/>
<text text-anchor="middle" x="1616" y="-468.3" font-family="Times,serif" font-size="14.00">LaSM&#45;c</text>
</g>
<!-- 21 -->
<g id="node23" class="node">
<title>21</title>
<ellipse fill="none" stroke="black" cx="603" cy="-399" rx="53.09" ry="18"/>
<text text-anchor="middle" x="603" y="-395.3" font-family="Times,serif" font-size="14.00">M111 (b)</text>
</g>
<!-- 28 -->
<g id="node30" class="node">
<title>28</title>
<ellipse fill="none" stroke="black" cx="930" cy="-472" rx="55.79" ry="18"/>
<text text-anchor="middle" x="930" y="-468.3" font-family="Times,serif" font-size="14.00">V1629 (a)</text>
</g>
<!-- 23&#45;&gt;28 -->
<g id="edge28" class="edge">
<title>23&#45;&gt;28</title>
<path fill="none" stroke="black" stroke-dasharray="1,5" d="M1015.56,-538.38C999.53,-526.14 977.02,-508.93 959.11,-495.25"/>
<polygon fill="black" stroke="black" points="960.81,-492.14 950.74,-488.85 956.56,-497.7 960.81,-492.14"/>
</g>
<!-- 32 -->
<g id="node34" class="node">
<title>32</title>
<ellipse fill="none" stroke="gray" stroke-dasharray="5,2" cx="1044" cy="-472" rx="39.79" ry="18"/>
<text text-anchor="middle" x="1044" y="-468.3" font-family="Times,serif" font-size="14.00">Taur&#45;c</text>
</g>
<!-- 23&#45;&gt;32 -->
<g id="edge32" class="edge">
<title>23&#45;&gt;32</title>
<path fill="none" stroke="gray" stroke-width="2" d="M1037.7,-536.82C1038.75,-526.19 1040.12,-512.31 1041.31,-500.2"/>
<polygon fill="gray" stroke="gray" stroke-width="2" points="1044.81,-500.45 1042.31,-490.15 1037.84,-499.76 1044.81,-500.45"/>
</g>
<!-- 36 -->
<g id="node38" class="node">
<title>36</title>
<ellipse fill="none" stroke="gray" stroke-dasharray="5,2" cx="1144" cy="-472" rx="42.49" ry="18"/>
<text text-anchor="middle" x="1144" y="-468.3" font-family="Times,serif" font-size="14.00">Marc&#45;c</text>
</g>
<!-- 23&#45;&gt;36 -->
<g id="edge36" class="edge">
<title>23&#45;&gt;36</title>
<path fill="none" stroke="gray" stroke-dasharray="5,2" d="M1056.57,-538.57C1073.34,-526 1097.2,-508.1 1115.76,-494.18"/>
<polygon fill="gray" stroke="gray" points="1117.97,-496.89 1123.87,-488.09 1113.77,-491.29 1117.97,-496.89"/>
</g>
<!-- 24 -->
<g id="node26" class="node">
<title>24</title>
<ellipse fill="none" stroke="black" cx="1183" cy="-399" rx="50.09" ry="18"/>
<text text-anchor="middle" x="1183" y="-395.3" font-family="Times,serif" font-size="14.00">V536 (a)</text>
</g>
<!-- 24&#45;&gt;18 -->
<g id="edge18" class="edge">
<title>24&#45;&gt;18</title>
<path fill="none" stroke="black" stroke-dasharray="1,5" d="M1183,-380.81C1183,-372.79 1183,-363.05 1183,-354.07"/>
<polygon fill="black" stroke="black" points="1186.5,-354.03 1183,-344.03 1179.5,-354.03 1186.5,-354.03"/>
</g>
<!-- 25 -->
<g id="node27" class="node">
<title>25</title>
<ellipse fill="none" stroke="black" cx="1390" cy="-472" rx="55.79" ry="18"/>
<text text-anchor="middle" x="1390" y="-468.3" font-family="Times,serif" font-size="14.00">V2036 (a)</text>
</g>
<!-- 26 -->
<g id="node28" class="node">
<title>26</title>
<ellipse fill="none" stroke="black" cx="724" cy="-399" rx="49.29" ry="18"/>
<text text-anchor="middle" x="724" y="-395.3" font-family="Times,serif" font-size="14.00">La35 (b)</text>
</g>
<!-- 27&#45;&gt;12 -->
<g id="edge12" class="edge">
<title>27&#45;&gt;12</title>
<path fill="none" stroke="black" stroke-dasharray="5,2" d="M535.56,-458.96C500.99,-446.86 447.61,-428.19 410.21,-415.11"/>
<polygon fill="black" stroke="black" points="411.19,-411.75 400.59,-411.75 408.87,-418.35 411.19,-411.75"/>
</g>
<!-- 27&#45;&gt;13 -->
<g id="edge13" class="edge">
<title>27&#45;&gt;13</title>
<path fill="none" stroke="black" stroke-dasharray="1,5" d="M550.47,-455.24C538.39,-445.5 522.71,-432.85 509.4,-422.11"/>
<polygon fill="black" stroke="black" points="511.46,-419.27 501.48,-415.71 507.06,-424.72 511.46,-419.27"/>
</g>
<!-- 27&#45;&gt;21 -->
<g id="edge21" class="edge">
<title>27&#45;&gt;21</title>
<path fill="none" stroke="black" stroke-dasharray="1,5" d="M577.82,-454.17C581.67,-445.9 586.4,-435.72 590.71,-426.44"/>
<polygon fill="black" stroke="black" points="593.97,-427.74 595.01,-417.2 587.62,-424.79 593.97,-427.74"/>
</g>
<!-- 27&#45;&gt;26 -->
<g id="edge26" class="edge">
<title>27&#45;&gt;26</title>
<path fill="none" stroke="black" stroke-dasharray="1,5" d="M599.33,-457.48C623.66,-446.26 658.45,-430.22 685.1,-417.93"/>
<polygon fill="black" stroke="black" points="686.9,-420.96 694.52,-413.59 683.97,-414.6 686.9,-420.96"/>
</g>
<!-- 29 -->
<g id="node31" class="node">
<title>29</title>
<ellipse fill="none" stroke="black" cx="841" cy="-399" rx="50.09" ry="18"/>
<text text-anchor="middle" x="841" y="-395.3" font-family="Times,serif" font-size="14.00">V565 (b)</text>
</g>
<!-- 27&#45;&gt;29 -->
<g id="edge29" class="edge">
<title>27&#45;&gt;29</title>
<path fill="none" stroke="black" stroke-dasharray="5,2" d="M607.07,-460.05C614.33,-457.99 621.89,-455.88 629,-454 696.63,-436.09 714.37,-434.91 782,-417 785.83,-415.99 789.8,-414.91 793.77,-413.8"/>
<polygon fill="black" stroke="black" points="794.93,-417.11 803.61,-411.04 793.04,-410.37 794.93,-417.11"/>
</g>
<!-- 41 -->
<g id="node43" class="node">
<title>41</title>
<ellipse fill="none" stroke="black" cx="953" cy="-399" rx="44.39" ry="18"/>
<text text-anchor="middle" x="953" y="-395.3" font-family="Times,serif" font-size="14.00">P74 (b)</text>
</g>
<!-- 27&#45;&gt;41 -->
<g id="edge41" class="edge">
<title>27&#45;&gt;41</title>
<path fill="none" stroke="black" stroke-dasharray="1,5" d="M606.3,-459.65C613.76,-457.57 621.59,-455.56 629,-454 747.94,-428.88 781.45,-443.89 900,-417 903.6,-416.18 907.32,-415.23 911.02,-414.2"/>
<polygon fill="black" stroke="black" points="912.13,-417.52 920.73,-411.34 910.15,-410.81 912.13,-417.52"/>
</g>
<!-- 45 -->
<g id="node47" class="node">
<title>45</title>
<ellipse fill="none" stroke="black" cx="1065" cy="-399" rx="50.09" ry="18"/>
<text text-anchor="middle" x="1065" y="-395.3" font-family="Times,serif" font-size="14.00">A116 (b)</text>
</g>
<!-- 27&#45;&gt;45 -->
<g id="edge45" class="edge">
<title>27&#45;&gt;45</title>
<path fill="none" stroke="black" stroke-dasharray="5,2" d="M605.94,-459.51C613.5,-457.42 621.46,-455.44 629,-454 794.36,-422.34 840.64,-448.66 1006,-417 1010.18,-416.2 1014.49,-415.23 1018.8,-414.18"/>
<polygon fill="black" stroke="black" points="1019.96,-417.49 1028.74,-411.57 1018.18,-410.72 1019.96,-417.49"/>
</g>
<!-- 28&#45;&gt;24 -->
<g id="edge24" class="edge">
<title>28&#45;&gt;24</title>
<path fill="none" stroke="black" stroke-dasharray="5,2" d="M970.91,-459.73C1010.19,-448.88 1071.19,-431.96 1124,-417 1127.76,-415.94 1131.65,-414.83 1135.56,-413.71"/>
<polygon fill="black" stroke="black" points="1136.6,-417.05 1145.25,-410.93 1134.67,-410.32 1136.6,-417.05"/>
</g>
<!-- 37 -->
<g id="node39" class="node">
<title>37</title>
<ellipse fill="none" stroke="gray" stroke-dasharray="5,2" cx="1287" cy="-399" rx="36" ry="18"/>
<text text-anchor="middle" x="1287" y="-395.3" font-family="Times,serif" font-size="14.00">La2&#45;c</text>
</g>
<!-- 28&#45;&gt;37 -->
<g id="edge37" class="edge">
<title>28&#45;&gt;37</title>
<path fill="none" stroke="gray" stroke-width="2" d="M970.76,-459.63C978.76,-457.6 987.12,-455.62 995,-454 1103.74,-431.7 1134.59,-444.99 1242,-417 1244.8,-416.27 1247.67,-415.42 1250.54,-414.51"/>
<polygon fill="gray" stroke="gray" stroke-width="2" points="1251.86,-417.76 1260.17,-411.2 1249.58,-411.14 1251.86,-417.76"/>
</g>
<!-- 43 -->
<g id="node45" class="node">
<title>43</title>
<ellipse fill="none" stroke="black" cx="1260" cy="-472" rx="55.79" ry="18"/>
<text text-anchor="middle" x="1260" y="-468.3" font-family="Times,serif" font-size="14.00">V1920 (a)</text>
</g>
<!-- 33&#45;&gt;43 -->
<g id="edge43" class="edge">
<title>33&#45;&gt;43</title>
<path fill="none" stroke="black" stroke-dasharray="5,2" d="M1269.46,-536.82C1267.88,-526.19 1265.82,-512.31 1264.03,-500.2"/>
<polygon fill="black" stroke="black" points="1267.47,-499.53 1262.54,-490.15 1260.54,-500.56 1267.47,-499.53"/>
</g>
<!-- 34&#45;&gt;25 -->
<g id="edge25" class="edge">
<title>34&#45;&gt;25</title>
<path fill="none" stroke="black" stroke-dasharray="1,5" d="M1390,-536.82C1390,-526.19 1390,-512.31 1390,-500.2"/>
<polygon fill="black" stroke="black" points="1393.5,-500.15 1390,-490.15 1386.5,-500.15 1393.5,-500.15"/>
</g>
<!-- 39 -->
<g id="node41" class="node">
<title>39</title>
<ellipse fill="none" stroke="black" cx="1508" cy="-472" rx="44.39" ry="18"/>
<text text-anchor="middle" x="1508" y="-468.3" font-family="Times,serif" font-size="14.00">P01 (a)</text>
</g>
<!-- 34&#45;&gt;39 -->
<g id="edge39" class="edge">
<title>34&#45;&gt;39</title>
<path fill="none" stroke="black" stroke-dasharray="1,5" d="M1412.19,-538.76C1430.77,-526.01 1457.45,-507.7 1477.94,-493.63"/>
<polygon fill="black" stroke="black" points="1480.04,-496.44 1486.3,-487.89 1476.08,-490.67 1480.04,-496.44"/>
<text text-anchor="middle" x="1459.5" y="-511" font-family="Times,serif" font-size="10.00">2</text>
</g>
<!-- 38&#45;&gt;20 -->
<g id="edge20" class="edge">
<title>38&#45;&gt;20</title>
<path fill="none" stroke="gray" stroke-dasharray="5,2" d="M1573.98,-537.22C1581.3,-526.03 1591.06,-511.12 1599.33,-498.48"/>
<polygon fill="gray" stroke="gray" points="1602.49,-500.05 1605.03,-489.76 1596.63,-496.21 1602.49,-500.05"/>
</g>
<!-- 42&#45;&gt;9 -->
<g id="edge10" class="edge">
<title>42&#45;&gt;9</title>
<path fill="none" stroke="black" stroke-dasharray="5,2" d="M1712.15,-536.82C1715.99,-526.08 1721.03,-512.03 1725.39,-499.84"/>
<polygon fill="black" stroke="black" points="1728.78,-500.75 1728.86,-490.15 1722.19,-498.39 1728.78,-500.75"/>
</g>
<!-- 42&#45;&gt;17 -->
<g id="edge17" class="edge">
<title>42&#45;&gt;17</title>
<path fill="none" stroke="black" stroke-dasharray="1,5" d="M1732.61,-540.44C1758.54,-527.23 1798.2,-507.03 1827.35,-492.18"/>
<polygon fill="black" stroke="black" points="1829.1,-495.22 1836.42,-487.56 1825.92,-488.98 1829.1,-495.22"/>
</g>
</g>
</svg>
