<?xml version="1.0" encoding="UTF-8" standalone="no"?>
<!DOCTYPE svg PUBLIC "-//W3C//DTD SVG 1.1//EN"
 "http://www.w3.org/Graphics/SVG/1.1/DTD/svg11.dtd">
<!-- Generated by graphviz version 2.43.0 (0)
 -->
<!-- Title: textual_flow Pages: 1 -->
<svg width="2406pt" height="536pt"
 viewBox="0.00 0.00 2406.00 536.00" xmlns="http://www.w3.org/2000/svg" xmlns:xlink="http://www.w3.org/1999/xlink">
<g id="graph0" class="graph" transform="scale(1 1) rotate(0) translate(4 532)">
<title>textual_flow</title>
<polygon fill="white" stroke="transparent" points="-4,4 -4,-532 2402,-532 2402,4 -4,4"/>
<g id="clust1" class="cluster">
<title>cluster_legend</title>
<polygon fill="none" stroke="black" points="8,-466 8,-520 164,-520 164,-466 8,-466"/>
</g>
<g id="clust2" class="cluster">
<title>cluster_plot</title>
</g>
<!-- label -->
<g id="node1" class="node">
<title>label</title>
<text text-anchor="middle" x="86" y="-496.8" font-family="Times,serif" font-size="14.00">adstag1.3.11U34</text>
<text text-anchor="middle" x="86" y="-481.8" font-family="Times,serif" font-size="14.00">Con = 5</text>
</g>
<!-- 0 -->
<g id="node2" class="node">
<title>0</title>
<ellipse fill="none" stroke="black" cx="1381" cy="-326" rx="52.79" ry="18"/>
<text text-anchor="middle" x="1381" y="-322.3" font-family="Times,serif" font-size="14.00">M111 (a)</text>
</g>
<!-- 18 -->
<g id="node20" class="node">
<title>18</title>
<ellipse fill="none" stroke="black" cx="1426" cy="-253" rx="50.09" ry="18"/>
<text text-anchor="middle" x="1426" y="-249.3" font-family="Times,serif" font-size="14.00">A336 (a)</text>
</g>
<!-- 0&#45;&gt;18 -->
<g id="edge19" class="edge">
<title>0&#45;&gt;18</title>
<path fill="none" stroke="black" stroke-dasharray="5,2" d="M1391.66,-308.17C1397.1,-299.6 1403.83,-288.99 1409.88,-279.44"/>
<polygon fill="black" stroke="black" points="1413.02,-281.03 1415.41,-270.71 1407.1,-277.28 1413.02,-281.03"/>
</g>
<!-- 1 -->
<g id="node3" class="node">
<title>1</title>
<ellipse fill="none" stroke="black" cx="984" cy="-180" rx="50.09" ry="18"/>
<text text-anchor="middle" x="984" y="-176.3" font-family="Times,serif" font-size="14.00">Marc (b)</text>
</g>
<!-- 28 -->
<g id="node30" class="node">
<title>28</title>
<ellipse fill="none" stroke="black" cx="984" cy="-107" rx="46.59" ry="18"/>
<text text-anchor="middle" x="984" y="-103.3" font-family="Times,serif" font-size="14.00">Mon (b)</text>
</g>
<!-- 1&#45;&gt;28 -->
<g id="edge29" class="edge">
<title>1&#45;&gt;28</title>
<path fill="none" stroke="black" stroke-dasharray="1,5" d="M984,-161.81C984,-153.79 984,-144.05 984,-135.07"/>
<polygon fill="black" stroke="black" points="987.5,-135.03 984,-125.03 980.5,-135.03 987.5,-135.03"/>
</g>
<!-- 2 -->
<g id="node4" class="node">
<title>2</title>
<ellipse fill="none" stroke="black" cx="1502" cy="-326" rx="50.09" ry="18"/>
<text text-anchor="middle" x="1502" y="-322.3" font-family="Times,serif" font-size="14.00">A116 (a)</text>
</g>
<!-- 3 -->
<g id="node5" class="node">
<title>3</title>
<ellipse fill="none" stroke="black" cx="1620" cy="-326" rx="50.09" ry="18"/>
<text text-anchor="middle" x="1620" y="-322.3" font-family="Times,serif" font-size="14.00">V565 (a)</text>
</g>
<!-- 4 -->
<g id="node6" class="node">
<title>4</title>
<ellipse fill="none" stroke="black" cx="984" cy="-34" rx="41.69" ry="18"/>
<text text-anchor="middle" x="984" y="-30.3" font-family="Times,serif" font-size="14.00">Sin (b)</text>
</g>
<!-- 5 -->
<g id="node7" class="node">
<title>5</title>
<ellipse fill="none" stroke="black" cx="248" cy="-409" rx="52.79" ry="18"/>
<text text-anchor="middle" x="248" y="-405.3" font-family="Times,serif" font-size="14.00">LaSM (a)</text>
</g>
<!-- 20 -->
<g id="node22" class="node">
<title>20</title>
<ellipse fill="none" stroke="black" cx="224" cy="-326" rx="44.39" ry="18"/>
<text text-anchor="middle" x="224" y="-322.3" font-family="Times,serif" font-size="14.00">B39 (a)</text>
</g>
<!-- 5&#45;&gt;20 -->
<g id="edge21" class="edge">
<title>5&#45;&gt;20</title>
<path fill="none" stroke="black" stroke-dasharray="5,2" d="M242.91,-390.82C239.73,-380.08 235.56,-366.03 231.95,-353.84"/>
<polygon fill="black" stroke="black" points="235.28,-352.75 229.08,-344.15 228.57,-354.74 235.28,-352.75"/>
</g>
<!-- 6 -->
<g id="node8" class="node">
<title>6</title>
<ellipse fill="none" stroke="black" cx="1744" cy="-326" rx="55.79" ry="18"/>
<text text-anchor="middle" x="1744" y="-322.3" font-family="Times,serif" font-size="14.00">V2036 (a)</text>
</g>
<!-- 7 -->
<g id="node9" class="node">
<title>7</title>
<ellipse fill="none" stroke="black" cx="1862" cy="-326" rx="44.39" ry="18"/>
<text text-anchor="middle" x="1862" y="-322.3" font-family="Times,serif" font-size="14.00">P74 (a)</text>
</g>
<!-- 8 -->
<g id="node10" class="node">
<title>8</title>
<ellipse fill="none" stroke="black" cx="466" cy="-326" rx="50.09" ry="18"/>
<text text-anchor="middle" x="466" y="-322.3" font-family="Times,serif" font-size="14.00">V566 (a)</text>
</g>
<!-- 12 -->
<g id="node14" class="node">
<title>12</title>
<ellipse fill="none" stroke="black" cx="466" cy="-253" rx="55.79" ry="18"/>
<text text-anchor="middle" x="466" y="-249.3" font-family="Times,serif" font-size="14.00">V1639 (a)</text>
</g>
<!-- 8&#45;&gt;12 -->
<g id="edge13" class="edge">
<title>8&#45;&gt;12</title>
<path fill="none" stroke="black" stroke-dasharray="1,5" d="M466,-307.81C466,-299.79 466,-290.05 466,-281.07"/>
<polygon fill="black" stroke="black" points="469.5,-281.03 466,-271.03 462.5,-281.03 469.5,-281.03"/>
</g>
<!-- 9 -->
<g id="node11" class="node">
<title>9</title>
<ellipse fill="none" stroke="gray" stroke-dasharray="5,2" cx="342" cy="-253" rx="36" ry="18"/>
<text text-anchor="middle" x="342" y="-249.3" font-family="Times,serif" font-size="14.00">La2&#45;c</text>
</g>
<!-- 10 -->
<g id="node12" class="node">
<title>10</title>
<ellipse fill="none" stroke="black" cx="428" cy="-409" rx="50.09" ry="18"/>
<text text-anchor="middle" x="428" y="-405.3" font-family="Times,serif" font-size="14.00">Neap (a)</text>
</g>
<!-- 24 -->
<g id="node26" class="node">
<title>24</title>
<ellipse fill="none" stroke="black" cx="342" cy="-326" rx="55.79" ry="18"/>
<text text-anchor="middle" x="342" y="-322.3" font-family="Times,serif" font-size="14.00">V1629 (a)</text>
</g>
<!-- 10&#45;&gt;24 -->
<g id="edge25" class="edge">
<title>10&#45;&gt;24</title>
<path fill="none" stroke="black" stroke-dasharray="1,5" d="M411.01,-392C398.37,-380.09 380.93,-363.67 366.74,-350.31"/>
<polygon fill="black" stroke="black" points="368.93,-347.56 359.25,-343.25 364.13,-352.65 368.93,-347.56"/>
</g>
<!-- 11 -->
<g id="node13" class="node">
<title>11</title>
<ellipse fill="none" stroke="black" cx="1102" cy="-253" rx="47.39" ry="18"/>
<text text-anchor="middle" x="1102" y="-249.3" font-family="Times,serif" font-size="14.00">Taur (b)</text>
</g>
<!-- 11&#45;&gt;1 -->
<g id="edge2" class="edge">
<title>11&#45;&gt;1</title>
<path fill="none" stroke="black" stroke-dasharray="1,5" d="M1077.84,-237.46C1060.37,-226.95 1036.57,-212.63 1017.3,-201.04"/>
<polygon fill="black" stroke="black" points="1018.91,-197.92 1008.54,-195.76 1015.3,-203.92 1018.91,-197.92"/>
</g>
<!-- 22 -->
<g id="node24" class="node">
<title>22</title>
<ellipse fill="none" stroke="black" cx="1102" cy="-180" rx="50.09" ry="18"/>
<text text-anchor="middle" x="1102" y="-176.3" font-family="Times,serif" font-size="14.00">V569 (b)</text>
</g>
<!-- 11&#45;&gt;22 -->
<g id="edge23" class="edge">
<title>11&#45;&gt;22</title>
<path fill="none" stroke="black" stroke-dasharray="5,2" d="M1102,-234.81C1102,-226.79 1102,-217.05 1102,-208.07"/>
<polygon fill="black" stroke="black" points="1105.5,-208.03 1102,-198.03 1098.5,-208.03 1105.5,-208.03"/>
</g>
<!-- 29 -->
<g id="node31" class="node">
<title>29</title>
<ellipse fill="none" stroke="black" cx="1223" cy="-180" rx="53.09" ry="18"/>
<text text-anchor="middle" x="1223" y="-176.3" font-family="Times,serif" font-size="14.00">M118 (b)</text>
</g>
<!-- 11&#45;&gt;29 -->
<g id="edge30" class="edge">
<title>11&#45;&gt;29</title>
<path fill="none" stroke="black" stroke-dasharray="5,2" d="M1126.78,-237.46C1144.65,-226.98 1168.99,-212.69 1188.72,-201.11"/>
<polygon fill="black" stroke="black" points="1190.57,-204.09 1197.42,-196.01 1187.02,-198.05 1190.57,-204.09"/>
</g>
<!-- 13 -->
<g id="node15" class="node">
<title>13</title>
<ellipse fill="none" stroke="black" cx="578" cy="-326" rx="44.39" ry="18"/>
<text text-anchor="middle" x="578" y="-322.3" font-family="Times,serif" font-size="14.00">S32 (a)</text>
</g>
<!-- 14 -->
<g id="node16" class="node">
<title>14</title>
<ellipse fill="none" stroke="black" cx="569" cy="-409" rx="43.59" ry="18"/>
<text text-anchor="middle" x="569" y="-405.3" font-family="Times,serif" font-size="14.00">La2 (b)</text>
</g>
<!-- 15 -->
<g id="node17" class="node">
<title>15</title>
<ellipse fill="none" stroke="gray" stroke-dasharray="5,2" cx="665" cy="-409" rx="34.39" ry="18"/>
<text text-anchor="middle" x="665" y="-405.3" font-family="Times,serif" font-size="14.00">S249</text>
</g>
<!-- 16 -->
<g id="node18" class="node">
<title>16</title>
<ellipse fill="none" stroke="black" cx="770" cy="-409" rx="52.79" ry="18"/>
<text text-anchor="middle" x="770" y="-405.3" font-family="Times,serif" font-size="14.00">M136 (a)</text>
</g>
<!-- 17 -->
<g id="node19" class="node">
<title>17</title>
<ellipse fill="none" stroke="black" cx="1973" cy="-326" rx="48.99" ry="18"/>
<text text-anchor="middle" x="1973" y="-322.3" font-family="Times,serif" font-size="14.00">La35 (a)</text>
</g>
<!-- 19 -->
<g id="node21" class="node">
<title>19</title>
<ellipse fill="none" stroke="black" cx="2090" cy="-326" rx="50.09" ry="18"/>
<text text-anchor="middle" x="2090" y="-322.3" font-family="Times,serif" font-size="14.00">V571 (a)</text>
</g>
<!-- 21 -->
<g id="node23" class="node">
<title>21</title>
<ellipse fill="none" stroke="black" cx="885" cy="-409" rx="44.39" ry="18"/>
<text text-anchor="middle" x="885" y="-405.3" font-family="Times,serif" font-size="14.00">A25 (a)</text>
</g>
<!-- 21&#45;&gt;8 -->
<g id="edge9" class="edge">
<title>21&#45;&gt;8</title>
<path fill="none" stroke="black" stroke-dasharray="5,2" d="M852.73,-396.68C845.94,-394.57 838.78,-392.55 832,-391 775.56,-378.11 760.24,-381.65 703,-373 623.75,-361.02 603.2,-361.57 525,-344 520.9,-343.08 516.67,-342.04 512.45,-340.94"/>
<polygon fill="black" stroke="black" points="513.22,-337.52 502.65,-338.29 511.39,-344.28 513.22,-337.52"/>
</g>
<!-- 21&#45;&gt;13 -->
<g id="edge14" class="edge">
<title>21&#45;&gt;13</title>
<path fill="none" stroke="black" stroke-dasharray="5,2" d="M852.05,-396.98C845.44,-394.89 838.52,-392.8 832,-391 743.58,-366.53 719.42,-368.47 631,-344 627.64,-343.07 624.17,-342.06 620.7,-341.02"/>
<polygon fill="black" stroke="black" points="621.54,-337.62 610.95,-338.02 619.48,-344.31 621.54,-337.62"/>
</g>
<!-- 34 -->
<g id="node36" class="node">
<title>34</title>
<ellipse fill="none" stroke="black" cx="690" cy="-326" rx="50.09" ry="18"/>
<text text-anchor="middle" x="690" y="-322.3" font-family="Times,serif" font-size="14.00">Patm (a)</text>
</g>
<!-- 21&#45;&gt;34 -->
<g id="edge35" class="edge">
<title>21&#45;&gt;34</title>
<path fill="none" stroke="black" stroke-dasharray="1,5" d="M854.96,-395.52C821.71,-381.71 767.94,-359.38 730.88,-343.98"/>
<polygon fill="black" stroke="black" points="731.95,-340.63 721.37,-340.03 729.26,-347.1 731.95,-340.63"/>
</g>
<!-- 36 -->
<g id="node38" class="node">
<title>36</title>
<ellipse fill="none" stroke="black" cx="798" cy="-326" rx="40.09" ry="18"/>
<text text-anchor="middle" x="798" y="-322.3" font-family="Times,serif" font-size="14.00">Pal (a)</text>
</g>
<!-- 21&#45;&gt;36 -->
<g id="edge37" class="edge">
<title>21&#45;&gt;36</title>
<path fill="none" stroke="black" stroke-dasharray="5,2" d="M867.81,-392C854.78,-379.86 836.69,-363.02 822.19,-349.52"/>
<polygon fill="black" stroke="black" points="824.27,-346.67 814.56,-342.42 819.5,-351.8 824.27,-346.67"/>
</g>
<!-- 37 -->
<g id="node39" class="node">
<title>37</title>
<ellipse fill="none" stroke="black" cx="900" cy="-326" rx="44.39" ry="18"/>
<text text-anchor="middle" x="900" y="-322.3" font-family="Times,serif" font-size="14.00">P01 (a)</text>
</g>
<!-- 21&#45;&gt;37 -->
<g id="edge38" class="edge">
<title>21&#45;&gt;37</title>
<path fill="none" stroke="black" stroke-dasharray="5,2" d="M888.18,-390.82C890.15,-380.19 892.72,-366.31 894.96,-354.2"/>
<polygon fill="black" stroke="black" points="898.44,-354.62 896.82,-344.15 891.56,-353.35 898.44,-354.62"/>
</g>
<!-- 23 -->
<g id="node25" class="node">
<title>23</title>
<ellipse fill="none" stroke="black" cx="1012" cy="-409" rx="45.49" ry="18"/>
<text text-anchor="middle" x="1012" y="-405.3" font-family="Times,serif" font-size="14.00">Nan (b)</text>
</g>
<!-- 32 -->
<g id="node34" class="node">
<title>32</title>
<ellipse fill="none" stroke="black" cx="1012" cy="-326" rx="50.09" ry="18"/>
<text text-anchor="middle" x="1012" y="-322.3" font-family="Times,serif" font-size="14.00">V536 (b)</text>
</g>
<!-- 23&#45;&gt;32 -->
<g id="edge33" class="edge">
<title>23&#45;&gt;32</title>
<path fill="none" stroke="black" stroke-width="2" d="M1012,-390.82C1012,-380.19 1012,-366.31 1012,-354.2"/>
<polygon fill="black" stroke="black" stroke-width="2" points="1015.5,-354.15 1012,-344.15 1008.5,-354.15 1015.5,-354.15"/>
<text text-anchor="middle" x="1015.5" y="-365" font-family="Times,serif" font-size="10.00">3</text>
</g>
<!-- 38 -->
<g id="node40" class="node">
<title>38</title>
<ellipse fill="none" stroke="black" cx="1130" cy="-326" rx="50.09" ry="18"/>
<text text-anchor="middle" x="1130" y="-322.3" font-family="Times,serif" font-size="14.00">V568 (b)</text>
</g>
<!-- 23&#45;&gt;38 -->
<g id="edge39" class="edge">
<title>23&#45;&gt;38</title>
<path fill="none" stroke="black" stroke-width="2" d="M1033.64,-393.14C1052.04,-380.52 1078.67,-362.24 1099.27,-348.09"/>
<polygon fill="black" stroke="black" stroke-width="2" points="1101.43,-350.86 1107.69,-342.31 1097.47,-345.09 1101.43,-350.86"/>
<text text-anchor="middle" x="1081.5" y="-365" font-family="Times,serif" font-size="10.00">3</text>
</g>
<!-- 42 -->
<g id="node44" class="node">
<title>42</title>
<ellipse fill="none" stroke="black" cx="1254" cy="-326" rx="55.79" ry="18"/>
<text text-anchor="middle" x="1254" y="-322.3" font-family="Times,serif" font-size="14.00">V1897 (b)</text>
</g>
<!-- 23&#45;&gt;42 -->
<g id="edge42" class="edge">
<title>23&#45;&gt;42</title>
<path fill="none" stroke="black" stroke-dasharray="1,5" d="M1045.65,-396.74C1087.6,-382.7 1159.55,-358.61 1206.95,-342.75"/>
<polygon fill="black" stroke="black" points="1208.3,-345.99 1216.67,-339.5 1206.07,-339.35 1208.3,-345.99"/>
</g>
<!-- 24&#45;&gt;9 -->
<g id="edge10" class="edge">
<title>24&#45;&gt;9</title>
<path fill="none" stroke="gray" stroke-width="2" d="M342,-307.81C342,-299.79 342,-290.05 342,-281.07"/>
<polygon fill="gray" stroke="gray" stroke-width="2" points="345.5,-281.03 342,-271.03 338.5,-281.03 345.5,-281.03"/>
</g>
<!-- 25 -->
<g id="node27" class="node">
<title>25</title>
<ellipse fill="none" stroke="black" cx="1131" cy="-409" rx="55.79" ry="18"/>
<text text-anchor="middle" x="1131" y="-405.3" font-family="Times,serif" font-size="14.00">V2250 (a)</text>
</g>
<!-- 26 -->
<g id="node28" class="node">
<title>26</title>
<ellipse fill="none" stroke="black" cx="1682" cy="-409" rx="48.99" ry="18"/>
<text text-anchor="middle" x="1682" y="-405.3" font-family="Times,serif" font-size="14.00">La22 (a)</text>
</g>
<!-- 26&#45;&gt;0 -->
<g id="edge1" class="edge">
<title>26&#45;&gt;0</title>
<path fill="none" stroke="black" stroke-dasharray="1,5" d="M1643.48,-397.76C1596.23,-385.18 1513.69,-363.16 1443,-344 1438.94,-342.9 1434.73,-341.76 1430.51,-340.6"/>
<polygon fill="black" stroke="black" points="1431.25,-337.18 1420.68,-337.92 1429.4,-343.93 1431.25,-337.18"/>
</g>
<!-- 26&#45;&gt;2 -->
<g id="edge3" class="edge">
<title>26&#45;&gt;2</title>
<path fill="none" stroke="black" stroke-dasharray="5,2" d="M1652.28,-394.62C1622.01,-381.01 1574.92,-359.81 1541.53,-344.79"/>
<polygon fill="black" stroke="black" points="1542.62,-341.44 1532.07,-340.53 1539.75,-347.83 1542.62,-341.44"/>
</g>
<!-- 26&#45;&gt;3 -->
<g id="edge4" class="edge">
<title>26&#45;&gt;3</title>
<path fill="none" stroke="black" stroke-dasharray="5,2" d="M1669.15,-391.22C1660.37,-379.74 1648.58,-364.33 1638.74,-351.49"/>
<polygon fill="black" stroke="black" points="1641.48,-349.3 1632.62,-343.48 1635.92,-353.55 1641.48,-349.3"/>
</g>
<!-- 26&#45;&gt;6 -->
<g id="edge7" class="edge">
<title>26&#45;&gt;6</title>
<path fill="none" stroke="black" stroke-dasharray="5,2" d="M1694.85,-391.22C1703.58,-379.81 1715.27,-364.54 1725.06,-351.74"/>
<polygon fill="black" stroke="black" points="1727.87,-353.83 1731.17,-343.76 1722.31,-349.58 1727.87,-353.83"/>
</g>
<!-- 26&#45;&gt;7 -->
<g id="edge8" class="edge">
<title>26&#45;&gt;7</title>
<path fill="none" stroke="black" stroke-dasharray="1,5" d="M1698.8,-391.89C1709.97,-381.98 1725.41,-369.73 1741,-362 1769.01,-348.11 1778.99,-352.78 1809,-344 1812.3,-343.03 1815.71,-342.01 1819.13,-340.96"/>
<polygon fill="black" stroke="black" points="1820.22,-344.29 1828.72,-337.96 1818.13,-337.6 1820.22,-344.29"/>
</g>
<!-- 26&#45;&gt;17 -->
<g id="edge18" class="edge">
<title>26&#45;&gt;17</title>
<path fill="none" stroke="black" stroke-dasharray="1,5" d="M1705.67,-393.19C1715.42,-387.03 1726.81,-379.74 1737,-373 1744.2,-368.24 1744.91,-365.01 1753,-362 1820.89,-336.72 1843.97,-358.24 1915,-344 1919.17,-343.16 1923.47,-342.17 1927.75,-341.08"/>
<polygon fill="black" stroke="black" points="1928.91,-344.39 1937.66,-338.42 1927.1,-337.63 1928.91,-344.39"/>
</g>
<!-- 26&#45;&gt;19 -->
<g id="edge20" class="edge">
<title>26&#45;&gt;19</title>
<path fill="none" stroke="black" stroke-dasharray="1,5" d="M1718.02,-396.69C1725.25,-394.63 1732.84,-392.62 1740,-391 1867.78,-362.07 1903.16,-372.63 2031,-344 2035.1,-343.08 2039.33,-342.05 2043.56,-340.95"/>
<polygon fill="black" stroke="black" points="2044.61,-344.29 2053.35,-338.3 2042.79,-337.53 2044.61,-344.29"/>
</g>
<!-- 39 -->
<g id="node41" class="node">
<title>39</title>
<ellipse fill="none" stroke="black" cx="2205" cy="-326" rx="46.59" ry="18"/>
<text text-anchor="middle" x="2205" y="-322.3" font-family="Times,serif" font-size="14.00">Bodl (a)</text>
</g>
<!-- 26&#45;&gt;39 -->
<g id="edge40" class="edge">
<title>26&#45;&gt;39</title>
<path fill="none" stroke="black" stroke-dasharray="5,2" d="M1717.34,-396.6C1724.77,-394.5 1732.6,-392.5 1740,-391 1784.83,-381.92 2104.21,-353.29 2149,-344 2152.92,-343.19 2156.95,-342.22 2160.98,-341.17"/>
<polygon fill="black" stroke="black" points="2162.2,-344.47 2170.9,-338.42 2160.33,-337.72 2162.2,-344.47"/>
</g>
<!-- 27 -->
<g id="node29" class="node">
<title>27</title>
<ellipse fill="none" stroke="black" cx="1799" cy="-409" rx="50.09" ry="18"/>
<text text-anchor="middle" x="1799" y="-405.3" font-family="Times,serif" font-size="14.00">V560 (b)</text>
</g>
<!-- 41 -->
<g id="node43" class="node">
<title>41</title>
<ellipse fill="none" stroke="black" cx="2326" cy="-326" rx="55.79" ry="18"/>
<text text-anchor="middle" x="2326" y="-322.3" font-family="Times,serif" font-size="14.00">V1920 (b)</text>
</g>
<!-- 27&#45;&gt;41 -->
<g id="edge41" class="edge">
<title>27&#45;&gt;41</title>
<path fill="none" stroke="black" stroke-dasharray="5,2" d="M1835.28,-396.53C1842.74,-394.46 1850.58,-392.49 1858,-391 2034.79,-355.47 2083.78,-377.34 2261,-344 2265.76,-343.1 2270.7,-342.05 2275.61,-340.91"/>
<polygon fill="black" stroke="black" points="2276.73,-344.24 2285.63,-338.49 2275.09,-337.44 2276.73,-344.24"/>
</g>
<!-- 28&#45;&gt;4 -->
<g id="edge5" class="edge">
<title>28&#45;&gt;4</title>
<path fill="none" stroke="black" stroke-dasharray="1,5" d="M984,-88.81C984,-80.79 984,-71.05 984,-62.07"/>
<polygon fill="black" stroke="black" points="987.5,-62.03 984,-52.03 980.5,-62.03 987.5,-62.03"/>
</g>
<!-- 31 -->
<g id="node33" class="node">
<title>31</title>
<ellipse fill="none" stroke="gray" stroke-dasharray="5,2" cx="1223" cy="-107" rx="28.7" ry="18"/>
<text text-anchor="middle" x="1223" y="-103.3" font-family="Times,serif" font-size="14.00">P18</text>
</g>
<!-- 29&#45;&gt;31 -->
<g id="edge32" class="edge">
<title>29&#45;&gt;31</title>
<path fill="none" stroke="gray" stroke-dasharray="5,2" d="M1223,-161.81C1223,-153.79 1223,-144.05 1223,-135.07"/>
<polygon fill="gray" stroke="gray" points="1226.5,-135.03 1223,-125.03 1219.5,-135.03 1226.5,-135.03"/>
</g>
<!-- 30 -->
<g id="node32" class="node">
<title>30</title>
<ellipse fill="none" stroke="gray" stroke-dasharray="5,2" cx="1917" cy="-409" rx="50.09" ry="18"/>
<text text-anchor="middle" x="1917" y="-405.3" font-family="Times,serif" font-size="14.00">Savile&#45;Η</text>
</g>
<!-- 33 -->
<g id="node35" class="node">
<title>33</title>
<ellipse fill="none" stroke="black" cx="1210" cy="-253" rx="42.49" ry="18"/>
<text text-anchor="middle" x="1210" y="-249.3" font-family="Times,serif" font-size="14.00">Est (b)</text>
</g>
<!-- 35 -->
<g id="node37" class="node">
<title>35</title>
<ellipse fill="none" stroke="black" cx="1314" cy="-253" rx="43.59" ry="18"/>
<text text-anchor="middle" x="1314" y="-249.3" font-family="Times,serif" font-size="14.00">Bas (b)</text>
</g>
<!-- 38&#45;&gt;11 -->
<g id="edge12" class="edge">
<title>38&#45;&gt;11</title>
<path fill="none" stroke="black" stroke-dasharray="1,5" d="M1123.22,-307.81C1119.99,-299.62 1116.05,-289.62 1112.44,-280.48"/>
<polygon fill="black" stroke="black" points="1115.64,-279.05 1108.72,-271.03 1109.13,-281.62 1115.64,-279.05"/>
</g>
<!-- 40 -->
<g id="node42" class="node">
<title>40</title>
<ellipse fill="none" stroke="black" cx="885" cy="-493" rx="53.89" ry="18"/>
<text text-anchor="middle" x="885" y="-489.3" font-family="Times,serif" font-size="14.00">aBase (a)</text>
</g>
<!-- 40&#45;&gt;5 -->
<g id="edge6" class="edge">
<title>40&#45;&gt;5</title>
<path fill="none" stroke="black" d="M835.16,-485.96C743.04,-474.75 539.95,-449.77 369,-427 348.31,-424.24 325.66,-421.1 305.6,-418.26"/>
<polygon fill="black" stroke="black" points="306.07,-414.8 295.68,-416.86 305.09,-421.73 306.07,-414.8"/>
</g>
<!-- 40&#45;&gt;10 -->
<g id="edge11" class="edge">
<title>40&#45;&gt;10</title>
<path fill="none" stroke="black" stroke-width="2" d="M838.06,-483.99C767.92,-471.95 631.62,-448.35 516,-427 504.64,-424.9 492.46,-422.59 480.91,-420.37"/>
<polygon fill="black" stroke="black" stroke-width="2" points="481.42,-416.9 470.94,-418.44 480.1,-423.78 481.42,-416.9"/>
</g>
<!-- 40&#45;&gt;14 -->
<g id="edge15" class="edge">
<title>40&#45;&gt;14</title>
<path fill="none" stroke="blue" stroke-width="2" d="M841.48,-482.2C789.13,-470.19 698.7,-448.75 622,-427 618.64,-426.05 615.18,-425.03 611.71,-423.97"/>
<polygon fill="blue" stroke="blue" stroke-width="2" points="612.56,-420.58 601.97,-420.96 610.49,-427.26 612.56,-420.58"/>
</g>
<!-- 40&#45;&gt;15 -->
<g id="edge16" class="edge">
<title>40&#45;&gt;15</title>
<path fill="none" stroke="gray" d="M850.04,-479.17C798.96,-460.42 709.74,-427.67 708,-427 705.78,-426.16 703.51,-425.28 701.21,-424.39"/>
<polygon fill="gray" stroke="gray" points="702.39,-421.09 691.8,-420.71 699.84,-427.61 702.39,-421.09"/>
</g>
<!-- 40&#45;&gt;16 -->
<g id="edge17" class="edge">
<title>40&#45;&gt;16</title>
<path fill="none" stroke="black" stroke-width="2" d="M866.8,-475.84C855.87,-466.42 841.5,-454.56 828,-445 820.68,-439.81 812.57,-434.61 804.79,-429.86"/>
<polygon fill="black" stroke="black" stroke-width="2" points="806.59,-426.86 796.21,-424.72 802.99,-432.86 806.59,-426.86"/>
</g>
<!-- 40&#45;&gt;21 -->
<g id="edge22" class="edge">
<title>40&#45;&gt;21</title>
<path fill="none" stroke="black" stroke-dasharray="5,2" d="M885,-474.61C885,-463.77 885,-449.6 885,-437.29"/>
<polygon fill="black" stroke="black" points="888.5,-437.08 885,-427.08 881.5,-437.08 888.5,-437.08"/>
</g>
<!-- 40&#45;&gt;23 -->
<g id="edge24" class="edge">
<title>40&#45;&gt;23</title>
<path fill="none" stroke="blue" d="M908.59,-476.77C928.85,-463.68 958.24,-444.71 980.51,-430.33"/>
<polygon fill="blue" stroke="blue" points="982.46,-433.24 988.96,-424.87 978.66,-427.36 982.46,-433.24"/>
</g>
<!-- 40&#45;&gt;25 -->
<g id="edge26" class="edge">
<title>40&#45;&gt;25</title>
<path fill="none" stroke="black" stroke-width="2" d="M921.83,-479.72C965,-465.33 1036.63,-441.46 1083.83,-425.72"/>
<polygon fill="black" stroke="black" stroke-width="2" points="1085.14,-428.98 1093.52,-422.49 1082.92,-422.34 1085.14,-428.98"/>
<text text-anchor="middle" x="1025.5" y="-448" font-family="Times,serif" font-size="10.00">3</text>
</g>
<!-- 40&#45;&gt;26 -->
<g id="edge27" class="edge">
<title>40&#45;&gt;26</title>
<path fill="none" stroke="black" stroke-dasharray="5,2" d="M935.76,-486.78C1077.4,-472.2 1476.24,-431.17 1625.07,-415.86"/>
<polygon fill="black" stroke="black" points="1625.75,-419.31 1635.34,-414.8 1625.04,-412.34 1625.75,-419.31"/>
</g>
<!-- 40&#45;&gt;27 -->
<g id="edge28" class="edge">
<title>40&#45;&gt;27</title>
<path fill="none" stroke="blue" stroke-width="2" d="M939.01,-491.71C1074.75,-490.17 1440.76,-480.9 1740,-427 1744.37,-426.21 1748.87,-425.23 1753.36,-424.14"/>
<polygon fill="blue" stroke="blue" stroke-width="2" points="1754.29,-427.52 1763.08,-421.61 1752.52,-420.74 1754.29,-427.52"/>
</g>
<!-- 40&#45;&gt;30 -->
<g id="edge31" class="edge">
<title>40&#45;&gt;30</title>
<path fill="none" stroke="gray" stroke-width="2" d="M938.43,-490.36C1056.71,-486.49 1349.52,-475.62 1594,-456 1711.66,-446.56 1742.2,-449.87 1858,-427 1862.18,-426.18 1866.49,-425.19 1870.79,-424.13"/>
<polygon fill="gray" stroke="gray" stroke-width="2" points="1871.95,-427.44 1880.73,-421.51 1870.17,-420.67 1871.95,-427.44"/>
</g>
<!-- 42&#45;&gt;33 -->
<g id="edge34" class="edge">
<title>42&#45;&gt;33</title>
<path fill="none" stroke="black" stroke-dasharray="1,5" d="M1243.57,-308.17C1238.26,-299.6 1231.68,-288.99 1225.76,-279.44"/>
<polygon fill="black" stroke="black" points="1228.6,-277.36 1220.35,-270.71 1222.65,-281.05 1228.6,-277.36"/>
</g>
<!-- 42&#45;&gt;35 -->
<g id="edge36" class="edge">
<title>42&#45;&gt;35</title>
<path fill="none" stroke="black" d="M1267.92,-308.53C1275.56,-299.48 1285.19,-288.09 1293.67,-278.06"/>
<polygon fill="black" stroke="black" points="1296.38,-280.28 1300.16,-270.38 1291.03,-275.76 1296.38,-280.28"/>
</g>
</g>
</svg>
