<?xml version="1.0" encoding="UTF-8" standalone="no"?>
<!DOCTYPE svg PUBLIC "-//W3C//DTD SVG 1.1//EN"
 "http://www.w3.org/Graphics/SVG/1.1/DTD/svg11.dtd">
<!-- Generated by graphviz version 2.43.0 (0)
 -->
<!-- Title: textual_flow Pages: 1 -->
<svg width="1721pt" height="692pt"
 viewBox="0.00 0.00 1721.00 692.00" xmlns="http://www.w3.org/2000/svg" xmlns:xlink="http://www.w3.org/1999/xlink">
<g id="graph0" class="graph" transform="scale(1 1) rotate(0) translate(4 688)">
<title>textual_flow</title>
<polygon fill="white" stroke="transparent" points="-4,4 -4,-688 1717,-688 1717,4 -4,4"/>
<g id="clust1" class="cluster">
<title>cluster_legend</title>
<polygon fill="none" stroke="black" points="8,-622 8,-676 164,-676 164,-622 8,-622"/>
</g>
<g id="clust2" class="cluster">
<title>cluster_plot</title>
</g>
<!-- label -->
<g id="node1" class="node">
<title>label</title>
<text text-anchor="middle" x="86" y="-652.8" font-family="Times,serif" font-size="14.00">adstag1.3.43U12</text>
<text text-anchor="middle" x="86" y="-637.8" font-family="Times,serif" font-size="14.00">Con = 10</text>
</g>
<!-- 0 -->
<g id="node2" class="node">
<title>0</title>
<ellipse fill="none" stroke="black" cx="390" cy="-492" rx="55.79" ry="18"/>
<text text-anchor="middle" x="390" y="-488.3" font-family="Times,serif" font-size="14.00">V2250 (a)</text>
</g>
<!-- 1 -->
<g id="node3" class="node">
<title>1</title>
<ellipse fill="none" stroke="black" cx="1072" cy="-492" rx="50.09" ry="18"/>
<text text-anchor="middle" x="1072" y="-488.3" font-family="Times,serif" font-size="14.00">V565 (a)</text>
</g>
<!-- 2 -->
<g id="node4" class="node">
<title>2</title>
<ellipse fill="none" stroke="black" cx="224" cy="-565" rx="44.39" ry="18"/>
<text text-anchor="middle" x="224" y="-561.3" font-family="Times,serif" font-size="14.00">B39 (a)</text>
</g>
<!-- 3 -->
<g id="node5" class="node">
<title>3</title>
<ellipse fill="none" stroke="black" cx="787" cy="-326" rx="55.79" ry="18"/>
<text text-anchor="middle" x="787" y="-322.3" font-family="Times,serif" font-size="14.00">V1920 (b)</text>
</g>
<!-- 4 -->
<g id="node6" class="node">
<title>4</title>
<ellipse fill="none" stroke="black" cx="1184" cy="-492" rx="44.39" ry="18"/>
<text text-anchor="middle" x="1184" y="-488.3" font-family="Times,serif" font-size="14.00">P74 (a)</text>
</g>
<!-- 5 -->
<g id="node7" class="node">
<title>5</title>
<ellipse fill="none" stroke="black" cx="1293" cy="-492" rx="46.59" ry="18"/>
<text text-anchor="middle" x="1293" y="-488.3" font-family="Times,serif" font-size="14.00">Bodl (a)</text>
</g>
<!-- 6 -->
<g id="node8" class="node">
<title>6</title>
<ellipse fill="none" stroke="black" cx="336" cy="-565" rx="50.09" ry="18"/>
<text text-anchor="middle" x="336" y="-561.3" font-family="Times,serif" font-size="14.00">Neap (a)</text>
</g>
<!-- 29 -->
<g id="node31" class="node">
<title>29</title>
<ellipse fill="none" stroke="black" cx="260" cy="-492" rx="55.79" ry="18"/>
<text text-anchor="middle" x="260" y="-488.3" font-family="Times,serif" font-size="14.00">V1629 (a)</text>
</g>
<!-- 6&#45;&gt;29 -->
<g id="edge29" class="edge">
<title>6&#45;&gt;29</title>
<path fill="none" stroke="black" stroke-dasharray="1,5" d="M318.75,-547.89C308.72,-538.51 295.9,-526.54 284.8,-516.17"/>
<polygon fill="black" stroke="black" points="287.14,-513.56 277.44,-509.29 282.36,-518.68 287.14,-513.56"/>
</g>
<!-- 7 -->
<g id="node9" class="node">
<title>7</title>
<ellipse fill="none" stroke="black" cx="481" cy="-409" rx="41.69" ry="18"/>
<text text-anchor="middle" x="481" y="-405.3" font-family="Times,serif" font-size="14.00">Est (a)</text>
</g>
<!-- 8 -->
<g id="node10" class="node">
<title>8</title>
<ellipse fill="none" stroke="black" cx="1408" cy="-492" rx="50.09" ry="18"/>
<text text-anchor="middle" x="1408" y="-488.3" font-family="Times,serif" font-size="14.00">V571 (a)</text>
</g>
<!-- 9 -->
<g id="node11" class="node">
<title>9</title>
<ellipse fill="none" stroke="black" cx="449" cy="-565" rx="44.69" ry="18"/>
<text text-anchor="middle" x="449" y="-561.3" font-family="Times,serif" font-size="14.00">Nan (a)</text>
</g>
<!-- 9&#45;&gt;0 -->
<g id="edge1" class="edge">
<title>9&#45;&gt;0</title>
<path fill="none" stroke="black" stroke-dasharray="5,2" d="M435.32,-547.53C427.98,-538.7 418.78,-527.63 410.6,-517.78"/>
<polygon fill="black" stroke="black" points="413.1,-515.33 404.02,-509.87 407.72,-519.8 413.1,-515.33"/>
</g>
<!-- 12 -->
<g id="node14" class="node">
<title>12</title>
<ellipse fill="none" stroke="black" cx="520" cy="-492" rx="55.79" ry="18"/>
<text text-anchor="middle" x="520" y="-488.3" font-family="Times,serif" font-size="14.00">V1897 (a)</text>
</g>
<!-- 9&#45;&gt;12 -->
<g id="edge12" class="edge">
<title>9&#45;&gt;12</title>
<path fill="none" stroke="black" stroke-dasharray="1,5" d="M465.11,-547.89C474.33,-538.67 486.06,-526.94 496.32,-516.68"/>
<polygon fill="black" stroke="black" points="498.86,-519.09 503.46,-509.54 493.91,-514.14 498.86,-519.09"/>
</g>
<!-- 10 -->
<g id="node12" class="node">
<title>10</title>
<ellipse fill="none" stroke="black" cx="356" cy="-253" rx="46.59" ry="18"/>
<text text-anchor="middle" x="356" y="-249.3" font-family="Times,serif" font-size="14.00">Taur (a)</text>
</g>
<!-- 15 -->
<g id="node17" class="node">
<title>15</title>
<ellipse fill="none" stroke="black" cx="238" cy="-180" rx="50.09" ry="18"/>
<text text-anchor="middle" x="238" y="-176.3" font-family="Times,serif" font-size="14.00">Marc (a)</text>
</g>
<!-- 10&#45;&gt;15 -->
<g id="edge15" class="edge">
<title>10&#45;&gt;15</title>
<path fill="none" stroke="black" stroke-dasharray="1,5" d="M331.84,-237.46C314.37,-226.95 290.57,-212.63 271.3,-201.04"/>
<polygon fill="black" stroke="black" points="272.91,-197.92 262.54,-195.76 269.3,-203.92 272.91,-197.92"/>
</g>
<!-- 18 -->
<g id="node20" class="node">
<title>18</title>
<ellipse fill="none" stroke="black" cx="356" cy="-180" rx="50.09" ry="18"/>
<text text-anchor="middle" x="356" y="-176.3" font-family="Times,serif" font-size="14.00">V569 (a)</text>
</g>
<!-- 10&#45;&gt;18 -->
<g id="edge18" class="edge">
<title>10&#45;&gt;18</title>
<path fill="none" stroke="black" stroke-dasharray="5,2" d="M356,-234.81C356,-226.79 356,-217.05 356,-208.07"/>
<polygon fill="black" stroke="black" points="359.5,-208.03 356,-198.03 352.5,-208.03 359.5,-208.03"/>
</g>
<!-- 20 -->
<g id="node22" class="node">
<title>20</title>
<ellipse fill="none" stroke="black" cx="477" cy="-180" rx="53.09" ry="18"/>
<text text-anchor="middle" x="477" y="-176.3" font-family="Times,serif" font-size="14.00">M118 (d)</text>
</g>
<!-- 10&#45;&gt;20 -->
<g id="edge20" class="edge">
<title>10&#45;&gt;20</title>
<path fill="none" stroke="blue" stroke-dasharray="5,2" d="M380.49,-237.63C398.33,-227.16 422.75,-212.83 442.56,-201.21"/>
<polygon fill="blue" stroke="blue" points="444.44,-204.16 451.3,-196.08 440.9,-198.12 444.44,-204.16"/>
</g>
<!-- 11 -->
<g id="node13" class="node">
<title>11</title>
<ellipse fill="none" stroke="black" cx="952" cy="-649" rx="53.89" ry="18"/>
<text text-anchor="middle" x="952" y="-645.3" font-family="Times,serif" font-size="14.00">aBase (a)</text>
</g>
<!-- 11&#45;&gt;2 -->
<g id="edge3" class="edge">
<title>11&#45;&gt;2</title>
<path fill="none" stroke="black" stroke-width="2" d="M899.14,-644.9C813.06,-639.62 637.31,-627.9 489,-612 394.44,-601.87 369.74,-604.05 277,-583 273.4,-582.18 269.68,-581.23 265.98,-580.2"/>
<polygon fill="black" stroke="black" stroke-width="2" points="266.85,-576.81 256.27,-577.34 264.87,-583.52 266.85,-576.81"/>
<text text-anchor="middle" x="492.5" y="-604" font-family="Times,serif" font-size="10.00">2</text>
</g>
<!-- 11&#45;&gt;6 -->
<g id="edge7" class="edge">
<title>11&#45;&gt;6</title>
<path fill="none" stroke="black" stroke-width="2" d="M899.26,-645.11C799.74,-638.94 577.86,-621.76 395,-583 390.89,-582.13 386.66,-581.12 382.42,-580.05"/>
<polygon fill="black" stroke="black" stroke-width="2" points="383.18,-576.63 372.62,-577.43 381.38,-583.39 383.18,-576.63"/>
</g>
<!-- 11&#45;&gt;9 -->
<g id="edge10" class="edge">
<title>11&#45;&gt;9</title>
<path fill="none" stroke="black" d="M902.35,-641.84C802.04,-629.23 578.35,-600.2 503,-583 499.33,-582.16 495.56,-581.2 491.79,-580.16"/>
<polygon fill="black" stroke="black" points="492.48,-576.71 481.9,-577.28 490.52,-583.44 492.48,-576.71"/>
</g>
<!-- 13 -->
<g id="node15" class="node">
<title>13</title>
<ellipse fill="none" stroke="black" cx="568" cy="-565" rx="55.79" ry="18"/>
<text text-anchor="middle" x="568" y="-561.3" font-family="Times,serif" font-size="14.00">V2036 (a)</text>
</g>
<!-- 11&#45;&gt;13 -->
<g id="edge13" class="edge">
<title>11&#45;&gt;13</title>
<path fill="none" stroke="black" d="M912.91,-636.43C876.26,-625.93 819.82,-610.67 770,-601 709.71,-589.3 693.27,-594.79 633,-583 628.31,-582.08 623.46,-581.02 618.61,-579.89"/>
<polygon fill="black" stroke="black" points="619.28,-576.45 608.74,-577.49 617.62,-583.25 619.28,-576.45"/>
</g>
<!-- 16 -->
<g id="node18" class="node">
<title>16</title>
<ellipse fill="none" stroke="black" cx="692" cy="-565" rx="50.09" ry="18"/>
<text text-anchor="middle" x="692" y="-561.3" font-family="Times,serif" font-size="14.00">Patm (a)</text>
</g>
<!-- 11&#45;&gt;16 -->
<g id="edge16" class="edge">
<title>11&#45;&gt;16</title>
<path fill="none" stroke="black" d="M928.11,-632.82C910.49,-622.3 885.58,-608.84 862,-601 814.58,-585.23 799.77,-593.94 751,-583 746.9,-582.08 742.67,-581.04 738.44,-579.94"/>
<polygon fill="black" stroke="black" points="739.21,-576.53 728.65,-577.3 737.39,-583.28 739.21,-576.53"/>
</g>
<!-- 19 -->
<g id="node21" class="node">
<title>19</title>
<ellipse fill="none" stroke="black" cx="825" cy="-565" rx="64.99" ry="18"/>
<text text-anchor="middle" x="825" y="-561.3" font-family="Times,serif" font-size="14.00">Savile&#45;Η (a)</text>
</g>
<!-- 11&#45;&gt;19 -->
<g id="edge19" class="edge">
<title>11&#45;&gt;19</title>
<path fill="none" stroke="black" stroke-width="2" d="M940.31,-630.99C932.85,-621.17 922.46,-609.18 911,-601 900.65,-593.61 888.51,-587.45 876.66,-582.46"/>
<polygon fill="black" stroke="black" stroke-width="2" points="877.85,-579.17 867.27,-578.72 875.26,-585.67 877.85,-579.17"/>
</g>
<!-- 27 -->
<g id="node29" class="node">
<title>27</title>
<ellipse fill="none" stroke="black" cx="952" cy="-565" rx="44.39" ry="18"/>
<text text-anchor="middle" x="952" y="-561.3" font-family="Times,serif" font-size="14.00">A25 (a)</text>
</g>
<!-- 11&#45;&gt;27 -->
<g id="edge27" class="edge">
<title>11&#45;&gt;27</title>
<path fill="none" stroke="black" stroke-dasharray="5,2" d="M952,-630.61C952,-619.77 952,-605.6 952,-593.29"/>
<polygon fill="black" stroke="black" points="955.5,-593.08 952,-583.08 948.5,-593.08 955.5,-593.08"/>
</g>
<!-- 28 -->
<g id="node30" class="node">
<title>28</title>
<ellipse fill="none" stroke="black" cx="1064" cy="-565" rx="50.09" ry="18"/>
<text text-anchor="middle" x="1064" y="-561.3" font-family="Times,serif" font-size="14.00">S249 (a)</text>
</g>
<!-- 11&#45;&gt;28 -->
<g id="edge28" class="edge">
<title>11&#45;&gt;28</title>
<path fill="none" stroke="black" d="M973.33,-632.38C990.69,-619.67 1015.38,-601.6 1034.61,-587.52"/>
<polygon fill="black" stroke="black" points="1036.75,-590.29 1042.75,-581.56 1032.61,-584.64 1036.75,-590.29"/>
</g>
<!-- 30 -->
<g id="node32" class="node">
<title>30</title>
<ellipse fill="none" stroke="black" cx="1175" cy="-565" rx="42.79" ry="18"/>
<text text-anchor="middle" x="1175" y="-561.3" font-family="Times,serif" font-size="14.00">La2 (a)</text>
</g>
<!-- 11&#45;&gt;30 -->
<g id="edge30" class="edge">
<title>11&#45;&gt;30</title>
<path fill="none" stroke="black" stroke-width="2" d="M986.84,-635.19C1026.73,-620.52 1091.99,-596.52 1134.22,-581"/>
<polygon fill="black" stroke="black" stroke-width="2" points="1135.46,-584.27 1143.64,-577.53 1133.05,-577.7 1135.46,-584.27"/>
</g>
<!-- 35 -->
<g id="node37" class="node">
<title>35</title>
<ellipse fill="none" stroke="black" cx="1288" cy="-565" rx="51.99" ry="18"/>
<text text-anchor="middle" x="1288" y="-561.3" font-family="Times,serif" font-size="14.00">LaSM (c)</text>
</g>
<!-- 11&#45;&gt;35 -->
<g id="edge35" class="edge">
<title>11&#45;&gt;35</title>
<path fill="none" stroke="blue" d="M995.47,-638.29C1049.79,-626.02 1145.52,-603.97 1227,-583 1231.01,-581.97 1235.17,-580.87 1239.33,-579.75"/>
<polygon fill="blue" stroke="blue" points="1240.28,-583.12 1249.01,-577.11 1238.44,-576.36 1240.28,-583.12"/>
</g>
<!-- 36 -->
<g id="node38" class="node">
<title>36</title>
<ellipse fill="none" stroke="black" cx="1407" cy="-565" rx="48.99" ry="18"/>
<text text-anchor="middle" x="1407" y="-561.3" font-family="Times,serif" font-size="14.00">La22 (a)</text>
</g>
<!-- 11&#45;&gt;36 -->
<g id="edge36" class="edge">
<title>11&#45;&gt;36</title>
<path fill="none" stroke="black" stroke-dasharray="5,2" d="M1001.58,-641.87C1077.1,-632.1 1225.23,-611.16 1349,-583 1352.92,-582.11 1356.96,-581.1 1361,-580.04"/>
<polygon fill="black" stroke="black" points="1362.26,-583.32 1370.98,-577.3 1360.41,-576.57 1362.26,-583.32"/>
</g>
<!-- 40 -->
<g id="node42" class="node">
<title>40</title>
<ellipse fill="none" stroke="black" cx="1526" cy="-565" rx="52.79" ry="18"/>
<text text-anchor="middle" x="1526" y="-561.3" font-family="Times,serif" font-size="14.00">M136 (a)</text>
</g>
<!-- 11&#45;&gt;40 -->
<g id="edge40" class="edge">
<title>11&#45;&gt;40</title>
<path fill="none" stroke="black" stroke-width="2" d="M1004.1,-643.93C1097.26,-636.08 1298.23,-616.62 1465,-583 1469.18,-582.16 1473.5,-581.18 1477.81,-580.13"/>
<polygon fill="black" stroke="black" stroke-width="2" points="1478.99,-583.44 1487.81,-577.56 1477.25,-576.66 1478.99,-583.44"/>
</g>
<!-- 42 -->
<g id="node44" class="node">
<title>42</title>
<ellipse fill="none" stroke="black" cx="1647" cy="-565" rx="50.09" ry="18"/>
<text text-anchor="middle" x="1647" y="-561.3" font-family="Times,serif" font-size="14.00">V560 (a)</text>
</g>
<!-- 11&#45;&gt;42 -->
<g id="edge42" class="edge">
<title>11&#45;&gt;42</title>
<path fill="none" stroke="black" stroke-width="2" d="M1005.27,-645.95C1115.17,-640.98 1374.63,-625.42 1588,-583 1592.18,-582.17 1596.48,-581.19 1600.78,-580.11"/>
<polygon fill="black" stroke="black" stroke-width="2" points="1601.95,-583.43 1610.73,-577.49 1600.17,-576.66 1601.95,-583.43"/>
</g>
<!-- 12&#45;&gt;7 -->
<g id="edge8" class="edge">
<title>12&#45;&gt;7</title>
<path fill="none" stroke="black" stroke-dasharray="1,5" d="M511.73,-473.82C506.47,-462.9 499.56,-448.55 493.63,-436.22"/>
<polygon fill="black" stroke="black" points="496.62,-434.37 489.13,-426.88 490.31,-437.4 496.62,-434.37"/>
</g>
<!-- 14 -->
<g id="node16" class="node">
<title>14</title>
<ellipse fill="none" stroke="black" cx="583" cy="-409" rx="42.49" ry="18"/>
<text text-anchor="middle" x="583" y="-405.3" font-family="Times,serif" font-size="14.00">Bas (c)</text>
</g>
<!-- 12&#45;&gt;14 -->
<g id="edge14" class="edge">
<title>12&#45;&gt;14</title>
<path fill="none" stroke="blue" d="M533.05,-474.22C542.04,-462.66 554.12,-447.13 564.15,-434.23"/>
<polygon fill="blue" stroke="blue" points="567.02,-436.25 570.39,-426.21 561.49,-431.95 567.02,-436.25"/>
</g>
<!-- 39 -->
<g id="node41" class="node">
<title>39</title>
<ellipse fill="none" stroke="black" cx="238" cy="-107" rx="46.29" ry="18"/>
<text text-anchor="middle" x="238" y="-103.3" font-family="Times,serif" font-size="14.00">Mon (a)</text>
</g>
<!-- 15&#45;&gt;39 -->
<g id="edge39" class="edge">
<title>15&#45;&gt;39</title>
<path fill="none" stroke="black" stroke-dasharray="1,5" d="M238,-161.81C238,-153.79 238,-144.05 238,-135.07"/>
<polygon fill="black" stroke="black" points="241.5,-135.03 238,-125.03 234.5,-135.03 241.5,-135.03"/>
</g>
<!-- 17 -->
<g id="node19" class="node">
<title>17</title>
<ellipse fill="none" stroke="black" cx="634" cy="-492" rx="40.09" ry="18"/>
<text text-anchor="middle" x="634" y="-488.3" font-family="Times,serif" font-size="14.00">Pal (a)</text>
</g>
<!-- 22 -->
<g id="node24" class="node">
<title>22</title>
<ellipse fill="none" stroke="gray" stroke-dasharray="5,2" cx="477" cy="-107" rx="28.7" ry="18"/>
<text text-anchor="middle" x="477" y="-103.3" font-family="Times,serif" font-size="14.00">P18</text>
</g>
<!-- 20&#45;&gt;22 -->
<g id="edge22" class="edge">
<title>20&#45;&gt;22</title>
<path fill="none" stroke="gray" stroke-dasharray="5,2" d="M477,-161.81C477,-153.79 477,-144.05 477,-135.07"/>
<polygon fill="gray" stroke="gray" points="480.5,-135.03 477,-125.03 473.5,-135.03 480.5,-135.03"/>
</g>
<!-- 21 -->
<g id="node23" class="node">
<title>21</title>
<ellipse fill="none" stroke="black" cx="736" cy="-492" rx="44.39" ry="18"/>
<text text-anchor="middle" x="736" y="-488.3" font-family="Times,serif" font-size="14.00">P01 (a)</text>
</g>
<!-- 23 -->
<g id="node25" class="node">
<title>23</title>
<ellipse fill="none" stroke="black" cx="1525" cy="-492" rx="48.99" ry="18"/>
<text text-anchor="middle" x="1525" y="-488.3" font-family="Times,serif" font-size="14.00">La35 (a)</text>
</g>
<!-- 24 -->
<g id="node26" class="node">
<title>24</title>
<ellipse fill="none" stroke="black" cx="848" cy="-492" rx="50.09" ry="18"/>
<text text-anchor="middle" x="848" y="-488.3" font-family="Times,serif" font-size="14.00">V566 (b)</text>
</g>
<!-- 32 -->
<g id="node34" class="node">
<title>32</title>
<ellipse fill="none" stroke="black" cx="787" cy="-409" rx="50.09" ry="18"/>
<text text-anchor="middle" x="787" y="-405.3" font-family="Times,serif" font-size="14.00">A116 (b)</text>
</g>
<!-- 24&#45;&gt;32 -->
<g id="edge32" class="edge">
<title>24&#45;&gt;32</title>
<path fill="none" stroke="black" stroke-dasharray="1,5" d="M835.36,-474.22C826.72,-462.74 815.11,-447.33 805.44,-434.49"/>
<polygon fill="black" stroke="black" points="808.23,-432.37 799.41,-426.48 802.63,-436.58 808.23,-432.37"/>
<text text-anchor="middle" x="827.5" y="-448" font-family="Times,serif" font-size="10.00">10</text>
</g>
<!-- 37 -->
<g id="node39" class="node">
<title>37</title>
<ellipse fill="none" stroke="black" cx="911" cy="-409" rx="55.79" ry="18"/>
<text text-anchor="middle" x="911" y="-405.3" font-family="Times,serif" font-size="14.00">V1639 (b)</text>
</g>
<!-- 24&#45;&gt;37 -->
<g id="edge37" class="edge">
<title>24&#45;&gt;37</title>
<path fill="none" stroke="black" stroke-dasharray="1,5" d="M861.05,-474.22C869.92,-462.81 881.81,-447.54 891.75,-434.74"/>
<polygon fill="black" stroke="black" points="894.59,-436.8 897.96,-426.76 889.06,-432.51 894.59,-436.8"/>
</g>
<!-- 25 -->
<g id="node27" class="node">
<title>25</title>
<ellipse fill="none" stroke="black" cx="238" cy="-34" rx="40.89" ry="18"/>
<text text-anchor="middle" x="238" y="-30.3" font-family="Times,serif" font-size="14.00">Sin (a)</text>
</g>
<!-- 26 -->
<g id="node28" class="node">
<title>26</title>
<ellipse fill="none" stroke="black" cx="356" cy="-326" rx="50.09" ry="18"/>
<text text-anchor="middle" x="356" y="-322.3" font-family="Times,serif" font-size="14.00">V568 (a)</text>
</g>
<!-- 26&#45;&gt;10 -->
<g id="edge11" class="edge">
<title>26&#45;&gt;10</title>
<path fill="none" stroke="black" stroke-dasharray="1,5" d="M356,-307.81C356,-299.79 356,-290.05 356,-281.07"/>
<polygon fill="black" stroke="black" points="359.5,-281.03 356,-271.03 352.5,-281.03 359.5,-281.03"/>
</g>
<!-- 27&#45;&gt;17 -->
<g id="edge17" class="edge">
<title>27&#45;&gt;17</title>
<path fill="none" stroke="black" stroke-dasharray="5,2" d="M919.41,-552.75C912.71,-550.66 905.66,-548.63 899,-547 804.39,-523.85 777.33,-534.27 683,-510 679.86,-509.19 676.64,-508.28 673.41,-507.3"/>
<polygon fill="black" stroke="black" points="674.41,-503.94 663.82,-504.22 672.27,-510.61 674.41,-503.94"/>
</g>
<!-- 27&#45;&gt;21 -->
<g id="edge21" class="edge">
<title>27&#45;&gt;21</title>
<path fill="none" stroke="black" stroke-dasharray="5,2" d="M918.72,-553.06C881.22,-540.74 820.15,-520.66 779.05,-507.15"/>
<polygon fill="black" stroke="black" points="779.91,-503.75 769.31,-503.95 777.72,-510.4 779.91,-503.75"/>
</g>
<!-- 27&#45;&gt;24 -->
<g id="edge24" class="edge">
<title>27&#45;&gt;24</title>
<path fill="none" stroke="blue" stroke-dasharray="5,2" d="M930.2,-549.12C915.29,-538.94 895.3,-525.29 878.77,-514.01"/>
<polygon fill="blue" stroke="blue" points="880.72,-511.1 870.49,-508.35 876.78,-516.88 880.72,-511.1"/>
</g>
<!-- 31 -->
<g id="node33" class="node">
<title>31</title>
<ellipse fill="none" stroke="black" cx="960" cy="-492" rx="44.39" ry="18"/>
<text text-anchor="middle" x="960" y="-488.3" font-family="Times,serif" font-size="14.00">S32 (a)</text>
</g>
<!-- 27&#45;&gt;31 -->
<g id="edge31" class="edge">
<title>27&#45;&gt;31</title>
<path fill="none" stroke="black" stroke-dasharray="5,2" d="M953.94,-546.81C954.84,-538.79 955.94,-529.05 956.95,-520.07"/>
<polygon fill="black" stroke="black" points="960.44,-520.36 958.08,-510.03 953.48,-519.57 960.44,-520.36"/>
</g>
<!-- 33 -->
<g id="node35" class="node">
<title>33</title>
<ellipse fill="none" stroke="gray" stroke-dasharray="5,2" cx="252" cy="-409" rx="36" ry="18"/>
<text text-anchor="middle" x="252" y="-405.3" font-family="Times,serif" font-size="14.00">La2&#45;c</text>
</g>
<!-- 29&#45;&gt;33 -->
<g id="edge33" class="edge">
<title>29&#45;&gt;33</title>
<path fill="none" stroke="gray" stroke-width="2" d="M258.3,-473.82C257.25,-463.19 255.88,-449.31 254.69,-437.2"/>
<polygon fill="gray" stroke="gray" stroke-width="2" points="258.16,-436.76 253.69,-427.15 251.19,-437.45 258.16,-436.76"/>
</g>
<!-- 41 -->
<g id="node43" class="node">
<title>41</title>
<ellipse fill="none" stroke="black" cx="356" cy="-409" rx="50.09" ry="18"/>
<text text-anchor="middle" x="356" y="-405.3" font-family="Times,serif" font-size="14.00">V536 (a)</text>
</g>
<!-- 29&#45;&gt;41 -->
<g id="edge41" class="edge">
<title>29&#45;&gt;41</title>
<path fill="none" stroke="black" stroke-dasharray="5,2" d="M278.97,-475C293.3,-462.9 313.16,-446.14 329.13,-432.67"/>
<polygon fill="black" stroke="black" points="331.69,-435.09 337.07,-425.97 327.17,-429.74 331.69,-435.09"/>
</g>
<!-- 32&#45;&gt;3 -->
<g id="edge4" class="edge">
<title>32&#45;&gt;3</title>
<path fill="none" stroke="black" stroke-width="2" d="M787,-390.82C787,-380.19 787,-366.31 787,-354.2"/>
<polygon fill="black" stroke="black" stroke-width="2" points="790.5,-354.15 787,-344.15 783.5,-354.15 790.5,-354.15"/>
<text text-anchor="middle" x="790.5" y="-365" font-family="Times,serif" font-size="10.00">9</text>
</g>
<!-- 34 -->
<g id="node36" class="node">
<title>34</title>
<ellipse fill="none" stroke="black" cx="1644" cy="-409" rx="50.09" ry="18"/>
<text text-anchor="middle" x="1644" y="-405.3" font-family="Times,serif" font-size="14.00">A336 (a)</text>
</g>
<!-- 36&#45;&gt;1 -->
<g id="edge2" class="edge">
<title>36&#45;&gt;1</title>
<path fill="none" stroke="black" stroke-dasharray="5,2" d="M1370.97,-552.73C1363.74,-550.67 1356.16,-548.65 1349,-547 1253.24,-524.92 1226.81,-531.86 1131,-510 1126.97,-509.08 1122.8,-508.05 1118.63,-506.96"/>
<polygon fill="black" stroke="black" points="1119.54,-503.58 1108.97,-504.34 1117.71,-510.34 1119.54,-503.58"/>
</g>
<!-- 36&#45;&gt;4 -->
<g id="edge5" class="edge">
<title>36&#45;&gt;4</title>
<path fill="none" stroke="black" stroke-dasharray="1,5" d="M1371.17,-552.65C1336.76,-541.74 1283.32,-524.78 1237,-510 1233.87,-509 1230.64,-507.97 1227.38,-506.93"/>
<polygon fill="black" stroke="black" points="1228.23,-503.52 1217.64,-503.81 1226.1,-510.19 1228.23,-503.52"/>
</g>
<!-- 36&#45;&gt;5 -->
<g id="edge6" class="edge">
<title>36&#45;&gt;5</title>
<path fill="none" stroke="black" stroke-dasharray="5,2" d="M1383.1,-549.12C1366.27,-538.63 1343.54,-524.48 1325.13,-513.01"/>
<polygon fill="black" stroke="black" points="1326.81,-509.94 1316.48,-507.62 1323.11,-515.88 1326.81,-509.94"/>
</g>
<!-- 36&#45;&gt;8 -->
<g id="edge9" class="edge">
<title>36&#45;&gt;8</title>
<path fill="none" stroke="black" stroke-dasharray="1,5" d="M1407.24,-546.81C1407.36,-538.79 1407.49,-529.05 1407.62,-520.07"/>
<polygon fill="black" stroke="black" points="1411.12,-520.08 1407.76,-510.03 1404.12,-519.98 1411.12,-520.08"/>
</g>
<!-- 36&#45;&gt;23 -->
<g id="edge23" class="edge">
<title>36&#45;&gt;23</title>
<path fill="none" stroke="black" stroke-dasharray="1,5" d="M1431.45,-549.29C1448.93,-538.77 1472.66,-524.49 1491.85,-512.95"/>
<polygon fill="black" stroke="black" points="1493.82,-515.85 1500.58,-507.69 1490.21,-509.85 1493.82,-515.85"/>
</g>
<!-- 38 -->
<g id="node40" class="node">
<title>38</title>
<ellipse fill="none" stroke="black" cx="1644" cy="-492" rx="52.79" ry="18"/>
<text text-anchor="middle" x="1644" y="-488.3" font-family="Times,serif" font-size="14.00">M111 (a)</text>
</g>
<!-- 36&#45;&gt;38 -->
<g id="edge38" class="edge">
<title>36&#45;&gt;38</title>
<path fill="none" stroke="black" stroke-dasharray="1,5" d="M1443.51,-553.06C1484.43,-540.8 1550.94,-520.88 1596.03,-507.37"/>
<polygon fill="black" stroke="black" points="1597.3,-510.64 1605.88,-504.42 1595.29,-503.94 1597.3,-510.64"/>
</g>
<!-- 38&#45;&gt;34 -->
<g id="edge34" class="edge">
<title>38&#45;&gt;34</title>
<path fill="none" stroke="black" stroke-dasharray="5,2" d="M1644,-473.82C1644,-463.19 1644,-449.31 1644,-437.2"/>
<polygon fill="black" stroke="black" points="1647.5,-437.15 1644,-427.15 1640.5,-437.15 1647.5,-437.15"/>
</g>
<!-- 39&#45;&gt;25 -->
<g id="edge25" class="edge">
<title>39&#45;&gt;25</title>
<path fill="none" stroke="black" stroke-dasharray="1,5" d="M238,-88.81C238,-80.79 238,-71.05 238,-62.07"/>
<polygon fill="black" stroke="black" points="241.5,-62.03 238,-52.03 234.5,-62.03 241.5,-62.03"/>
</g>
<!-- 41&#45;&gt;26 -->
<g id="edge26" class="edge">
<title>41&#45;&gt;26</title>
<path fill="none" stroke="black" stroke-dasharray="1,5" d="M356,-390.82C356,-380.19 356,-366.31 356,-354.2"/>
<polygon fill="black" stroke="black" points="359.5,-354.15 356,-344.15 352.5,-354.15 359.5,-354.15"/>
</g>
</g>
</svg>
