<?xml version="1.0" encoding="UTF-8" standalone="no"?>
<!DOCTYPE svg PUBLIC "-//W3C//DTD SVG 1.1//EN"
 "http://www.w3.org/Graphics/SVG/1.1/DTD/svg11.dtd">
<!-- Generated by graphviz version 2.43.0 (0)
 -->
<!-- Title: textual_flow Pages: 1 -->
<svg width="2074pt" height="672pt"
 viewBox="0.00 0.00 2074.00 672.00" xmlns="http://www.w3.org/2000/svg" xmlns:xlink="http://www.w3.org/1999/xlink">
<g id="graph0" class="graph" transform="scale(1 1) rotate(0) translate(4 668)">
<title>textual_flow</title>
<polygon fill="white" stroke="transparent" points="-4,4 -4,-668 2070,-668 2070,4 -4,4"/>
<g id="clust1" class="cluster">
<title>cluster_legend</title>
<polygon fill="none" stroke="black" points="8,-602 8,-656 186,-656 186,-602 8,-602"/>
</g>
<g id="clust2" class="cluster">
<title>cluster_plot</title>
</g>
<!-- label -->
<g id="node1" class="node">
<title>label</title>
<text text-anchor="middle" x="97" y="-632.8" font-family="Times,serif" font-size="14.00">adstag1.3.20U30&#45;34</text>
<text text-anchor="middle" x="97" y="-617.8" font-family="Times,serif" font-size="14.00">Con = 5</text>
</g>
<!-- 0 -->
<g id="node2" class="node">
<title>0</title>
<ellipse fill="none" stroke="black" cx="258" cy="-472" rx="55.79" ry="18"/>
<text text-anchor="middle" x="258" y="-468.3" font-family="Times,serif" font-size="14.00">V1629 (a)</text>
</g>
<!-- 19 -->
<g id="node21" class="node">
<title>19</title>
<ellipse fill="none" stroke="black" cx="258" cy="-399" rx="49.29" ry="18"/>
<text text-anchor="middle" x="258" y="-395.3" font-family="Times,serif" font-size="14.00">V536 (c)</text>
</g>
<!-- 0&#45;&gt;19 -->
<g id="edge20" class="edge">
<title>0&#45;&gt;19</title>
<path fill="none" stroke="blue" stroke-dasharray="5,2" d="M258,-453.81C258,-445.79 258,-436.05 258,-427.07"/>
<polygon fill="blue" stroke="blue" points="261.5,-427.03 258,-417.03 254.5,-427.03 261.5,-427.03"/>
</g>
<!-- 20 -->
<g id="node22" class="node">
<title>20</title>
<ellipse fill="none" stroke="gray" stroke-dasharray="5,2" cx="361" cy="-399" rx="36" ry="18"/>
<text text-anchor="middle" x="361" y="-395.3" font-family="Times,serif" font-size="14.00">La2&#45;c</text>
</g>
<!-- 0&#45;&gt;20 -->
<g id="edge21" class="edge">
<title>0&#45;&gt;20</title>
<path fill="none" stroke="gray" stroke-width="2" d="M280.6,-455.42C295.69,-445.02 315.68,-431.24 331.94,-420.03"/>
<polygon fill="gray" stroke="gray" stroke-width="2" points="334.3,-422.66 340.55,-414.1 330.33,-416.89 334.3,-422.66"/>
</g>
<!-- 1 -->
<g id="node3" class="node">
<title>1</title>
<ellipse fill="none" stroke="black" cx="314" cy="-253" rx="46.29" ry="18"/>
<text text-anchor="middle" x="314" y="-249.3" font-family="Times,serif" font-size="14.00">Taur (c)</text>
</g>
<!-- 12 -->
<g id="node14" class="node">
<title>12</title>
<ellipse fill="none" stroke="black" cx="254" cy="-180" rx="51.99" ry="18"/>
<text text-anchor="middle" x="254" y="-176.3" font-family="Times,serif" font-size="14.00">M118 (c)</text>
</g>
<!-- 1&#45;&gt;12 -->
<g id="edge13" class="edge">
<title>1&#45;&gt;12</title>
<path fill="none" stroke="black" stroke-dasharray="5,2" d="M300.08,-235.53C292.44,-226.48 282.81,-215.09 274.33,-205.06"/>
<polygon fill="black" stroke="black" points="276.97,-202.76 267.84,-197.38 271.62,-207.28 276.97,-202.76"/>
</g>
<!-- 23 -->
<g id="node25" class="node">
<title>23</title>
<ellipse fill="none" stroke="black" cx="373" cy="-180" rx="49.29" ry="18"/>
<text text-anchor="middle" x="373" y="-176.3" font-family="Times,serif" font-size="14.00">Marc (c)</text>
</g>
<!-- 1&#45;&gt;23 -->
<g id="edge24" class="edge">
<title>1&#45;&gt;23</title>
<path fill="none" stroke="black" stroke-dasharray="1,5" d="M327.68,-235.53C335.13,-226.57 344.49,-215.31 352.76,-205.36"/>
<polygon fill="black" stroke="black" points="355.69,-207.31 359.39,-197.38 350.31,-202.83 355.69,-207.31"/>
</g>
<!-- 27 -->
<g id="node29" class="node">
<title>27</title>
<ellipse fill="none" stroke="black" cx="490" cy="-180" rx="49.29" ry="18"/>
<text text-anchor="middle" x="490" y="-176.3" font-family="Times,serif" font-size="14.00">V569 (c)</text>
</g>
<!-- 1&#45;&gt;27 -->
<g id="edge28" class="edge">
<title>1&#45;&gt;27</title>
<path fill="none" stroke="black" stroke-dasharray="5,2" d="M345.06,-239.47C373.86,-227.85 416.91,-210.48 448.62,-197.69"/>
<polygon fill="black" stroke="black" points="450.1,-200.87 458.06,-193.88 447.48,-194.38 450.1,-200.87"/>
</g>
<!-- 2 -->
<g id="node4" class="node">
<title>2</title>
<ellipse fill="none" stroke="black" cx="1796" cy="-472" rx="50.09" ry="18"/>
<text text-anchor="middle" x="1796" y="-468.3" font-family="Times,serif" font-size="14.00">V566 (a)</text>
</g>
<!-- 4 -->
<g id="node6" class="node">
<title>4</title>
<ellipse fill="none" stroke="black" cx="1796" cy="-399" rx="55.79" ry="18"/>
<text text-anchor="middle" x="1796" y="-395.3" font-family="Times,serif" font-size="14.00">V1639 (a)</text>
</g>
<!-- 2&#45;&gt;4 -->
<g id="edge5" class="edge">
<title>2&#45;&gt;4</title>
<path fill="none" stroke="black" stroke-dasharray="1,5" d="M1796,-453.81C1796,-445.79 1796,-436.05 1796,-427.07"/>
<polygon fill="black" stroke="black" points="1799.5,-427.03 1796,-417.03 1792.5,-427.03 1799.5,-427.03"/>
</g>
<!-- 3 -->
<g id="node5" class="node">
<title>3</title>
<ellipse fill="none" stroke="black" cx="286" cy="-326" rx="49.29" ry="18"/>
<text text-anchor="middle" x="286" y="-322.3" font-family="Times,serif" font-size="14.00">V568 (c)</text>
</g>
<!-- 3&#45;&gt;1 -->
<g id="edge2" class="edge">
<title>3&#45;&gt;1</title>
<path fill="none" stroke="black" stroke-dasharray="1,5" d="M292.78,-307.81C296.01,-299.62 299.95,-289.62 303.56,-280.48"/>
<polygon fill="black" stroke="black" points="306.87,-281.62 307.28,-271.03 300.36,-279.05 306.87,-281.62"/>
</g>
<!-- 5 -->
<g id="node7" class="node">
<title>5</title>
<ellipse fill="none" stroke="black" cx="870" cy="-472" rx="44.39" ry="18"/>
<text text-anchor="middle" x="870" y="-468.3" font-family="Times,serif" font-size="14.00">P74 (b)</text>
</g>
<!-- 6 -->
<g id="node8" class="node">
<title>6</title>
<ellipse fill="none" stroke="black" cx="252" cy="-555" rx="50.09" ry="18"/>
<text text-anchor="middle" x="252" y="-551.3" font-family="Times,serif" font-size="14.00">Neap (a)</text>
</g>
<!-- 6&#45;&gt;0 -->
<g id="edge1" class="edge">
<title>6&#45;&gt;0</title>
<path fill="none" stroke="black" stroke-dasharray="1,5" d="M253.27,-536.82C254.06,-526.19 255.09,-512.31 255.98,-500.2"/>
<polygon fill="black" stroke="black" points="259.48,-500.38 256.73,-490.15 252.5,-499.87 259.48,-500.38"/>
</g>
<!-- 7 -->
<g id="node9" class="node">
<title>7</title>
<ellipse fill="none" stroke="black" cx="373" cy="-107" rx="46.29" ry="18"/>
<text text-anchor="middle" x="373" y="-103.3" font-family="Times,serif" font-size="14.00">Mon (c)</text>
</g>
<!-- 21 -->
<g id="node23" class="node">
<title>21</title>
<ellipse fill="none" stroke="black" cx="373" cy="-34" rx="40.09" ry="18"/>
<text text-anchor="middle" x="373" y="-30.3" font-family="Times,serif" font-size="14.00">Sin (c)</text>
</g>
<!-- 7&#45;&gt;21 -->
<g id="edge22" class="edge">
<title>7&#45;&gt;21</title>
<path fill="none" stroke="black" stroke-dasharray="1,5" d="M373,-88.81C373,-80.79 373,-71.05 373,-62.07"/>
<polygon fill="black" stroke="black" points="376.5,-62.03 373,-52.03 369.5,-62.03 376.5,-62.03"/>
</g>
<!-- 8 -->
<g id="node10" class="node">
<title>8</title>
<ellipse fill="none" stroke="black" cx="976" cy="-472" rx="44.39" ry="18"/>
<text text-anchor="middle" x="976" y="-468.3" font-family="Times,serif" font-size="14.00">S32 (b)</text>
</g>
<!-- 9 -->
<g id="node11" class="node">
<title>9</title>
<ellipse fill="none" stroke="black" cx="701" cy="-399" rx="42.79" ry="18"/>
<text text-anchor="middle" x="701" y="-395.3" font-family="Times,serif" font-size="14.00">Bas (a)</text>
</g>
<!-- 10 -->
<g id="node12" class="node">
<title>10</title>
<ellipse fill="none" stroke="black" cx="376" cy="-472" rx="44.39" ry="18"/>
<text text-anchor="middle" x="376" y="-468.3" font-family="Times,serif" font-size="14.00">B39 (a)</text>
</g>
<!-- 11 -->
<g id="node13" class="node">
<title>11</title>
<ellipse fill="none" stroke="black" cx="493" cy="-472" rx="55.49" ry="18"/>
<text text-anchor="middle" x="493" y="-468.3" font-family="Times,serif" font-size="14.00">V1920 (c)</text>
</g>
<!-- 13 -->
<g id="node15" class="node">
<title>13</title>
<ellipse fill="none" stroke="gray" stroke-dasharray="5,2" cx="254" cy="-107" rx="28.7" ry="18"/>
<text text-anchor="middle" x="254" y="-103.3" font-family="Times,serif" font-size="14.00">P18</text>
</g>
<!-- 12&#45;&gt;13 -->
<g id="edge14" class="edge">
<title>12&#45;&gt;13</title>
<path fill="none" stroke="gray" stroke-dasharray="5,2" d="M254,-161.81C254,-153.79 254,-144.05 254,-135.07"/>
<polygon fill="gray" stroke="gray" points="257.5,-135.03 254,-125.03 250.5,-135.03 257.5,-135.03"/>
</g>
<!-- 14 -->
<g id="node16" class="node">
<title>14</title>
<ellipse fill="none" stroke="black" cx="376" cy="-555" rx="55.79" ry="18"/>
<text text-anchor="middle" x="376" y="-551.3" font-family="Times,serif" font-size="14.00">V2036 (a)</text>
</g>
<!-- 15 -->
<g id="node17" class="node">
<title>15</title>
<ellipse fill="none" stroke="black" cx="503" cy="-555" rx="52.79" ry="18"/>
<text text-anchor="middle" x="503" y="-551.3" font-family="Times,serif" font-size="14.00">LaSM (a)</text>
</g>
<!-- 15&#45;&gt;10 -->
<g id="edge11" class="edge">
<title>15&#45;&gt;10</title>
<path fill="none" stroke="black" stroke-dasharray="5,2" d="M479.11,-538.76C458.9,-525.88 429.78,-507.3 407.64,-493.18"/>
<polygon fill="black" stroke="black" points="409.24,-490.05 398.93,-487.62 405.47,-495.95 409.24,-490.05"/>
</g>
<!-- 16 -->
<g id="node18" class="node">
<title>16</title>
<ellipse fill="none" stroke="black" cx="803" cy="-399" rx="41.69" ry="18"/>
<text text-anchor="middle" x="803" y="-395.3" font-family="Times,serif" font-size="14.00">Est (a)</text>
</g>
<!-- 17 -->
<g id="node19" class="node">
<title>17</title>
<ellipse fill="none" stroke="black" cx="624" cy="-555" rx="50.09" ry="18"/>
<text text-anchor="middle" x="624" y="-551.3" font-family="Times,serif" font-size="14.00">V560 (a)</text>
</g>
<!-- 17&#45;&gt;11 -->
<g id="edge12" class="edge">
<title>17&#45;&gt;11</title>
<path fill="none" stroke="blue" stroke-dasharray="5,2" d="M599.97,-539.14C579.37,-526.4 549.46,-507.91 526.5,-493.71"/>
<polygon fill="blue" stroke="blue" points="528.11,-490.6 517.77,-488.31 524.43,-496.55 528.11,-490.6"/>
</g>
<!-- 18 -->
<g id="node20" class="node">
<title>18</title>
<ellipse fill="none" stroke="black" cx="735" cy="-555" rx="42.79" ry="18"/>
<text text-anchor="middle" x="735" y="-551.3" font-family="Times,serif" font-size="14.00">La2 (a)</text>
</g>
<!-- 19&#45;&gt;3 -->
<g id="edge4" class="edge">
<title>19&#45;&gt;3</title>
<path fill="none" stroke="black" stroke-dasharray="1,5" d="M264.78,-380.81C268.01,-372.62 271.95,-362.62 275.56,-353.48"/>
<polygon fill="black" stroke="black" points="278.87,-354.62 279.28,-344.03 272.36,-352.05 278.87,-354.62"/>
</g>
<!-- 22 -->
<g id="node24" class="node">
<title>22</title>
<ellipse fill="none" stroke="black" cx="1086" cy="-472" rx="47.39" ry="18"/>
<text text-anchor="middle" x="1086" y="-468.3" font-family="Times,serif" font-size="14.00">Bodl (b)</text>
</g>
<!-- 23&#45;&gt;7 -->
<g id="edge8" class="edge">
<title>23&#45;&gt;7</title>
<path fill="none" stroke="black" stroke-dasharray="1,5" d="M373,-161.81C373,-153.79 373,-144.05 373,-135.07"/>
<polygon fill="black" stroke="black" points="376.5,-135.03 373,-125.03 369.5,-135.03 376.5,-135.03"/>
</g>
<!-- 24 -->
<g id="node26" class="node">
<title>24</title>
<ellipse fill="none" stroke="black" cx="1205" cy="-472" rx="53.09" ry="18"/>
<text text-anchor="middle" x="1205" y="-468.3" font-family="Times,serif" font-size="14.00">M111 (b)</text>
</g>
<!-- 35 -->
<g id="node37" class="node">
<title>35</title>
<ellipse fill="none" stroke="black" cx="1205" cy="-399" rx="50.09" ry="18"/>
<text text-anchor="middle" x="1205" y="-395.3" font-family="Times,serif" font-size="14.00">A336 (b)</text>
</g>
<!-- 24&#45;&gt;35 -->
<g id="edge36" class="edge">
<title>24&#45;&gt;35</title>
<path fill="none" stroke="black" stroke-dasharray="5,2" d="M1205,-453.81C1205,-445.79 1205,-436.05 1205,-427.07"/>
<polygon fill="black" stroke="black" points="1208.5,-427.03 1205,-417.03 1201.5,-427.03 1208.5,-427.03"/>
</g>
<!-- 25 -->
<g id="node27" class="node">
<title>25</title>
<ellipse fill="none" stroke="black" cx="841" cy="-555" rx="44.69" ry="18"/>
<text text-anchor="middle" x="841" y="-551.3" font-family="Times,serif" font-size="14.00">Nan (a)</text>
</g>
<!-- 29 -->
<g id="node31" class="node">
<title>29</title>
<ellipse fill="none" stroke="black" cx="622" cy="-472" rx="55.79" ry="18"/>
<text text-anchor="middle" x="622" y="-468.3" font-family="Times,serif" font-size="14.00">V2250 (a)</text>
</g>
<!-- 25&#45;&gt;29 -->
<g id="edge30" class="edge">
<title>25&#45;&gt;29</title>
<path fill="none" stroke="black" stroke-dasharray="5,2" d="M809.16,-542.22C771.63,-528.34 709.02,-505.19 666.66,-489.52"/>
<polygon fill="black" stroke="black" points="667.74,-486.19 657.15,-486 665.31,-492.75 667.74,-486.19"/>
</g>
<!-- 32 -->
<g id="node34" class="node">
<title>32</title>
<ellipse fill="none" stroke="black" cx="752" cy="-472" rx="55.79" ry="18"/>
<text text-anchor="middle" x="752" y="-468.3" font-family="Times,serif" font-size="14.00">V1897 (a)</text>
</g>
<!-- 25&#45;&gt;32 -->
<g id="edge33" class="edge">
<title>25&#45;&gt;32</title>
<path fill="none" stroke="black" stroke-dasharray="1,5" d="M823.42,-538C810.34,-526.09 792.29,-509.67 777.61,-496.31"/>
<polygon fill="black" stroke="black" points="779.6,-493.39 769.85,-489.25 774.89,-498.57 779.6,-493.39"/>
</g>
<!-- 26 -->
<g id="node28" class="node">
<title>26</title>
<ellipse fill="none" stroke="gray" stroke-dasharray="5,2" cx="954" cy="-555" rx="50.09" ry="18"/>
<text text-anchor="middle" x="954" y="-551.3" font-family="Times,serif" font-size="14.00">Savile&#45;Η</text>
</g>
<!-- 28 -->
<g id="node30" class="node">
<title>28</title>
<ellipse fill="none" stroke="black" cx="1075" cy="-555" rx="52.79" ry="18"/>
<text text-anchor="middle" x="1075" y="-551.3" font-family="Times,serif" font-size="14.00">M136 (a)</text>
</g>
<!-- 30 -->
<g id="node32" class="node">
<title>30</title>
<ellipse fill="none" stroke="black" cx="1326" cy="-472" rx="50.09" ry="18"/>
<text text-anchor="middle" x="1326" y="-468.3" font-family="Times,serif" font-size="14.00">V565 (b)</text>
</g>
<!-- 31 -->
<g id="node33" class="node">
<title>31</title>
<ellipse fill="none" stroke="black" cx="1196" cy="-555" rx="50.09" ry="18"/>
<text text-anchor="middle" x="1196" y="-551.3" font-family="Times,serif" font-size="14.00">Patm (a)</text>
</g>
<!-- 32&#45;&gt;9 -->
<g id="edge10" class="edge">
<title>32&#45;&gt;9</title>
<path fill="none" stroke="black" d="M739.91,-454.17C733.63,-445.42 725.82,-434.55 718.85,-424.85"/>
<polygon fill="black" stroke="black" points="721.68,-422.79 713,-416.71 715.99,-426.87 721.68,-422.79"/>
</g>
<!-- 32&#45;&gt;16 -->
<g id="edge17" class="edge">
<title>32&#45;&gt;16</title>
<path fill="none" stroke="black" stroke-dasharray="1,5" d="M764.09,-454.17C770.37,-445.42 778.18,-434.55 785.15,-424.85"/>
<polygon fill="black" stroke="black" points="788.01,-426.87 791,-416.71 782.32,-422.79 788.01,-426.87"/>
</g>
<!-- 33 -->
<g id="node35" class="node">
<title>33</title>
<ellipse fill="none" stroke="black" cx="1444" cy="-472" rx="50.09" ry="18"/>
<text text-anchor="middle" x="1444" y="-468.3" font-family="Times,serif" font-size="14.00">A116 (b)</text>
</g>
<!-- 34 -->
<g id="node36" class="node">
<title>34</title>
<ellipse fill="none" stroke="black" cx="1908" cy="-472" rx="44.39" ry="18"/>
<text text-anchor="middle" x="1908" y="-468.3" font-family="Times,serif" font-size="14.00">P01 (a)</text>
</g>
<!-- 36 -->
<g id="node38" class="node">
<title>36</title>
<ellipse fill="none" stroke="black" cx="897" cy="-629" rx="53.89" ry="18"/>
<text text-anchor="middle" x="897" y="-625.3" font-family="Times,serif" font-size="14.00">aBase (a)</text>
</g>
<!-- 36&#45;&gt;6 -->
<g id="edge7" class="edge">
<title>36&#45;&gt;6</title>
<path fill="none" stroke="black" stroke-width="2" d="M843.61,-626.33C740.05,-622.34 505.02,-609.72 311,-573 306.82,-572.21 302.5,-571.25 298.2,-570.2"/>
<polygon fill="black" stroke="black" stroke-width="2" points="298.81,-566.74 288.25,-567.6 297.04,-573.51 298.81,-566.74"/>
</g>
<!-- 36&#45;&gt;14 -->
<g id="edge15" class="edge">
<title>36&#45;&gt;14</title>
<path fill="none" stroke="black" d="M845.02,-624.04C759.99,-617.05 586.12,-600.6 441,-573 436.24,-572.09 431.31,-571.03 426.39,-569.89"/>
<polygon fill="black" stroke="black" points="426.92,-566.42 416.37,-567.47 425.27,-573.22 426.92,-566.42"/>
</g>
<!-- 36&#45;&gt;15 -->
<g id="edge16" class="edge">
<title>36&#45;&gt;15</title>
<path fill="none" stroke="black" d="M847.76,-621.47C782.67,-612.46 664.58,-594.84 565,-573 560.65,-572.05 556.15,-570.98 551.66,-569.85"/>
<polygon fill="black" stroke="black" points="552.43,-566.44 541.87,-567.32 550.68,-573.21 552.43,-566.44"/>
</g>
<!-- 36&#45;&gt;17 -->
<g id="edge18" class="edge">
<title>36&#45;&gt;17</title>
<path fill="none" stroke="black" stroke-width="2" d="M855.08,-617.61C811.87,-606.81 742.59,-589.24 683,-573 679.23,-571.97 675.33,-570.89 671.42,-569.79"/>
<polygon fill="black" stroke="black" stroke-width="2" points="672.3,-566.4 661.72,-567.05 670.39,-573.14 672.3,-566.4"/>
</g>
<!-- 36&#45;&gt;18 -->
<g id="edge19" class="edge">
<title>36&#45;&gt;18</title>
<path fill="none" stroke="black" stroke-width="2" d="M865.76,-614.12C839.17,-602.3 800.88,-585.28 772.6,-572.71"/>
<polygon fill="black" stroke="black" stroke-width="2" points="773.99,-569.5 763.43,-568.63 771.14,-575.89 773.99,-569.5"/>
</g>
<!-- 36&#45;&gt;25 -->
<g id="edge26" class="edge">
<title>36&#45;&gt;25</title>
<path fill="none" stroke="black" d="M884.01,-611.3C876.94,-602.21 868.06,-590.8 860.21,-580.7"/>
<polygon fill="black" stroke="black" points="862.82,-578.35 853.92,-572.61 857.29,-582.65 862.82,-578.35"/>
</g>
<!-- 36&#45;&gt;26 -->
<g id="edge27" class="edge">
<title>36&#45;&gt;26</title>
<path fill="none" stroke="gray" stroke-width="2" d="M910.22,-611.3C917.41,-602.21 926.45,-590.8 934.45,-580.7"/>
<polygon fill="gray" stroke="gray" stroke-width="2" points="937.39,-582.62 940.85,-572.61 931.9,-578.28 937.39,-582.62"/>
</g>
<!-- 36&#45;&gt;28 -->
<g id="edge29" class="edge">
<title>36&#45;&gt;28</title>
<path fill="none" stroke="black" stroke-width="2" d="M930.06,-614.63C959.13,-602.87 1001.58,-585.7 1033.03,-572.98"/>
<polygon fill="black" stroke="black" stroke-width="2" points="1034.46,-576.18 1042.41,-569.18 1031.83,-569.69 1034.46,-576.18"/>
</g>
<!-- 36&#45;&gt;31 -->
<g id="edge32" class="edge">
<title>36&#45;&gt;31</title>
<path fill="none" stroke="black" d="M941.41,-618.59C989.72,-608.18 1069.13,-590.54 1137,-573 1140.84,-572.01 1144.81,-570.95 1148.79,-569.85"/>
<polygon fill="black" stroke="black" points="1149.94,-573.17 1158.63,-567.1 1148.06,-566.42 1149.94,-573.17"/>
</g>
<!-- 38 -->
<g id="node40" class="node">
<title>38</title>
<ellipse fill="none" stroke="black" cx="1313" cy="-555" rx="49.29" ry="18"/>
<text text-anchor="middle" x="1313" y="-551.3" font-family="Times,serif" font-size="14.00">La22 (b)</text>
</g>
<!-- 36&#45;&gt;38 -->
<g id="edge38" class="edge">
<title>36&#45;&gt;38</title>
<path fill="none" stroke="blue" stroke-dasharray="5,2" d="M947.49,-622.39C1017.17,-614.15 1146.51,-597.12 1255,-573 1258.92,-572.13 1262.97,-571.14 1267.01,-570.08"/>
<polygon fill="blue" stroke="blue" points="1268.27,-573.37 1276.99,-567.36 1266.42,-566.61 1268.27,-573.37"/>
</g>
<!-- 39 -->
<g id="node41" class="node">
<title>39</title>
<ellipse fill="none" stroke="black" cx="1796" cy="-555" rx="44.39" ry="18"/>
<text text-anchor="middle" x="1796" y="-551.3" font-family="Times,serif" font-size="14.00">A25 (a)</text>
</g>
<!-- 36&#45;&gt;39 -->
<g id="edge39" class="edge">
<title>36&#45;&gt;39</title>
<path fill="none" stroke="black" stroke-dasharray="5,2" d="M948.89,-623.84C1107.23,-611.16 1583.1,-573.05 1742.96,-560.25"/>
<polygon fill="black" stroke="black" points="1743.34,-563.73 1753.03,-559.44 1742.78,-556.75 1743.34,-563.73"/>
</g>
<!-- 40 -->
<g id="node42" class="node">
<title>40</title>
<ellipse fill="none" stroke="black" cx="1908" cy="-555" rx="50.09" ry="18"/>
<text text-anchor="middle" x="1908" y="-551.3" font-family="Times,serif" font-size="14.00">S249 (a)</text>
</g>
<!-- 36&#45;&gt;40 -->
<g id="edge40" class="edge">
<title>36&#45;&gt;40</title>
<path fill="none" stroke="black" d="M950.45,-626.48C1124.53,-621.28 1674.08,-602.87 1849,-573 1853.37,-572.25 1857.89,-571.3 1862.37,-570.23"/>
<polygon fill="black" stroke="black" points="1863.29,-573.6 1872.1,-567.72 1861.54,-566.83 1863.29,-573.6"/>
</g>
<!-- 37 -->
<g id="node39" class="node">
<title>37</title>
<ellipse fill="none" stroke="black" cx="1562" cy="-472" rx="50.09" ry="18"/>
<text text-anchor="middle" x="1562" y="-468.3" font-family="Times,serif" font-size="14.00">V571 (b)</text>
</g>
<!-- 38&#45;&gt;5 -->
<g id="edge6" class="edge">
<title>38&#45;&gt;5</title>
<path fill="none" stroke="black" stroke-dasharray="1,5" d="M1277.03,-542.46C1269.79,-540.42 1262.19,-538.48 1255,-537 1190.1,-523.64 1172.63,-528.16 1107,-519 1025.01,-507.56 1003.54,-509.14 923,-490 919.56,-489.18 916.02,-488.25 912.48,-487.25"/>
<polygon fill="black" stroke="black" points="913.16,-483.81 902.57,-484.32 911.17,-490.52 913.16,-483.81"/>
</g>
<!-- 38&#45;&gt;8 -->
<g id="edge9" class="edge">
<title>38&#45;&gt;8</title>
<path fill="none" stroke="black" stroke-dasharray="5,2" d="M1276.3,-542.77C1269.26,-540.75 1261.92,-538.73 1255,-537 1155.91,-512.17 1128.84,-515.81 1030,-490 1026.41,-489.06 1022.71,-488.03 1019.01,-486.96"/>
<polygon fill="black" stroke="black" points="1019.85,-483.56 1009.26,-484.04 1017.84,-490.26 1019.85,-483.56"/>
<text text-anchor="middle" x="1172.5" y="-511" font-family="Times,serif" font-size="10.00">3</text>
</g>
<!-- 38&#45;&gt;22 -->
<g id="edge23" class="edge">
<title>38&#45;&gt;22</title>
<path fill="none" stroke="black" stroke-dasharray="5,2" d="M1279.02,-541.87C1239,-527.59 1172.49,-503.86 1128.94,-488.32"/>
<polygon fill="black" stroke="black" points="1130.07,-485.01 1119.48,-484.95 1127.72,-491.6 1130.07,-485.01"/>
</g>
<!-- 38&#45;&gt;24 -->
<g id="edge25" class="edge">
<title>38&#45;&gt;24</title>
<path fill="none" stroke="black" stroke-dasharray="1,5" d="M1292.43,-538.57C1275.87,-526.15 1252.4,-508.55 1233.94,-494.71"/>
<polygon fill="black" stroke="black" points="1235.96,-491.84 1225.86,-488.64 1231.76,-497.44 1235.96,-491.84"/>
</g>
<!-- 38&#45;&gt;30 -->
<g id="edge31" class="edge">
<title>38&#45;&gt;30</title>
<path fill="none" stroke="black" stroke-dasharray="5,2" d="M1315.76,-536.82C1317.46,-526.19 1319.69,-512.31 1321.63,-500.2"/>
<polygon fill="black" stroke="black" points="1325.12,-500.58 1323.25,-490.15 1318.21,-499.47 1325.12,-500.58"/>
</g>
<!-- 38&#45;&gt;33 -->
<g id="edge34" class="edge">
<title>38&#45;&gt;33</title>
<path fill="none" stroke="black" stroke-dasharray="5,2" d="M1337.03,-539.14C1357.76,-526.32 1387.92,-507.67 1410.93,-493.45"/>
<polygon fill="black" stroke="black" points="1413.02,-496.27 1419.68,-488.04 1409.34,-490.32 1413.02,-496.27"/>
</g>
<!-- 38&#45;&gt;37 -->
<g id="edge37" class="edge">
<title>38&#45;&gt;37</title>
<path fill="none" stroke="black" stroke-dasharray="1,5" d="M1348.68,-542.39C1392.83,-528.03 1468.1,-503.55 1516.41,-487.83"/>
<polygon fill="black" stroke="black" points="1517.56,-491.14 1525.99,-484.72 1515.39,-484.48 1517.56,-491.14"/>
</g>
<!-- 42 -->
<g id="node44" class="node">
<title>42</title>
<ellipse fill="none" stroke="black" cx="1679" cy="-472" rx="49.29" ry="18"/>
<text text-anchor="middle" x="1679" y="-468.3" font-family="Times,serif" font-size="14.00">La35 (b)</text>
</g>
<!-- 38&#45;&gt;42 -->
<g id="edge42" class="edge">
<title>38&#45;&gt;42</title>
<path fill="none" stroke="black" stroke-dasharray="1,5" d="M1356.1,-546.18C1415.88,-535.07 1527.22,-513.45 1621,-490 1624.79,-489.05 1628.7,-488.02 1632.61,-486.95"/>
<polygon fill="black" stroke="black" points="1633.62,-490.31 1642.3,-484.24 1631.73,-483.57 1633.62,-490.31"/>
</g>
<!-- 39&#45;&gt;2 -->
<g id="edge3" class="edge">
<title>39&#45;&gt;2</title>
<path fill="none" stroke="black" stroke-dasharray="5,2" d="M1796,-536.82C1796,-526.19 1796,-512.31 1796,-500.2"/>
<polygon fill="black" stroke="black" points="1799.5,-500.15 1796,-490.15 1792.5,-500.15 1799.5,-500.15"/>
</g>
<!-- 39&#45;&gt;34 -->
<g id="edge35" class="edge">
<title>39&#45;&gt;34</title>
<path fill="none" stroke="black" stroke-dasharray="5,2" d="M1816.8,-538.95C1834.33,-526.28 1859.58,-508.02 1879.08,-493.92"/>
<polygon fill="black" stroke="black" points="1881.26,-496.66 1887.31,-487.97 1877.15,-490.99 1881.26,-496.66"/>
</g>
<!-- 41 -->
<g id="node43" class="node">
<title>41</title>
<ellipse fill="none" stroke="black" cx="2010" cy="-472" rx="40.09" ry="18"/>
<text text-anchor="middle" x="2010" y="-468.3" font-family="Times,serif" font-size="14.00">Pal (a)</text>
</g>
<!-- 39&#45;&gt;41 -->
<g id="edge41" class="edge">
<title>39&#45;&gt;41</title>
<path fill="none" stroke="black" stroke-dasharray="5,2" d="M1827.58,-542.05C1865.68,-527.63 1929.75,-503.38 1970.93,-487.79"/>
<polygon fill="black" stroke="black" points="1972.25,-491.03 1980.36,-484.22 1969.77,-484.48 1972.25,-491.03"/>
</g>
</g>
</svg>
