<?xml version="1.0" encoding="UTF-8" standalone="no"?>
<!DOCTYPE svg PUBLIC "-//W3C//DTD SVG 1.1//EN"
 "http://www.w3.org/Graphics/SVG/1.1/DTD/svg11.dtd">
<!-- Generated by graphviz version 2.43.0 (0)
 -->
<!-- Title: textual_flow Pages: 1 -->
<svg width="2257pt" height="599pt"
 viewBox="0.00 0.00 2257.00 599.00" xmlns="http://www.w3.org/2000/svg" xmlns:xlink="http://www.w3.org/1999/xlink">
<g id="graph0" class="graph" transform="scale(1 1) rotate(0) translate(4 595)">
<title>textual_flow</title>
<polygon fill="white" stroke="transparent" points="-4,4 -4,-595 2253,-595 2253,4 -4,4"/>
<g id="clust1" class="cluster">
<title>cluster_legend</title>
<polygon fill="none" stroke="black" points="8,-529 8,-583 178,-583 178,-529 8,-529"/>
</g>
<g id="clust2" class="cluster">
<title>cluster_plot</title>
</g>
<!-- label -->
<g id="node1" class="node">
<title>label</title>
<text text-anchor="middle" x="93" y="-559.8" font-family="Times,serif" font-size="14.00">adstag1.3.2U14&#45;16</text>
<text text-anchor="middle" x="93" y="-544.8" font-family="Times,serif" font-size="14.00">Con = 5</text>
</g>
<!-- 0 -->
<g id="node2" class="node">
<title>0</title>
<ellipse fill="none" stroke="black" cx="1256" cy="-399" rx="53.09" ry="18"/>
<text text-anchor="middle" x="1256" y="-395.3" font-family="Times,serif" font-size="14.00">M111 (b)</text>
</g>
<!-- 3 -->
<g id="node5" class="node">
<title>3</title>
<ellipse fill="none" stroke="black" cx="1257" cy="-326" rx="50.09" ry="18"/>
<text text-anchor="middle" x="1257" y="-322.3" font-family="Times,serif" font-size="14.00">A336 (b)</text>
</g>
<!-- 0&#45;&gt;3 -->
<g id="edge4" class="edge">
<title>0&#45;&gt;3</title>
<path fill="none" stroke="black" stroke-dasharray="5,2" d="M1256.24,-380.81C1256.36,-372.79 1256.49,-363.05 1256.62,-354.07"/>
<polygon fill="black" stroke="black" points="1260.12,-354.08 1256.76,-344.03 1253.12,-353.98 1260.12,-354.08"/>
</g>
<!-- 1 -->
<g id="node3" class="node">
<title>1</title>
<ellipse fill="none" stroke="black" cx="707" cy="-399" rx="50.09" ry="18"/>
<text text-anchor="middle" x="707" y="-395.3" font-family="Times,serif" font-size="14.00">Patm (a)</text>
</g>
<!-- 2 -->
<g id="node4" class="node">
<title>2</title>
<ellipse fill="none" stroke="black" cx="245" cy="-472" rx="49.29" ry="18"/>
<text text-anchor="middle" x="245" y="-468.3" font-family="Times,serif" font-size="14.00">V560 (c)</text>
</g>
<!-- 12 -->
<g id="node14" class="node">
<title>12</title>
<ellipse fill="none" stroke="black" cx="249" cy="-399" rx="55.49" ry="18"/>
<text text-anchor="middle" x="249" y="-395.3" font-family="Times,serif" font-size="14.00">V1920 (c)</text>
</g>
<!-- 2&#45;&gt;12 -->
<g id="edge12" class="edge">
<title>2&#45;&gt;12</title>
<path fill="none" stroke="black" stroke-dasharray="5,2" d="M245.97,-453.81C246.42,-445.79 246.97,-436.05 247.47,-427.07"/>
<polygon fill="black" stroke="black" points="250.97,-427.21 248.04,-417.03 243.98,-426.82 250.97,-427.21"/>
</g>
<!-- 4 -->
<g id="node6" class="node">
<title>4</title>
<ellipse fill="none" stroke="black" cx="1371" cy="-399" rx="44.39" ry="18"/>
<text text-anchor="middle" x="1371" y="-395.3" font-family="Times,serif" font-size="14.00">P74 (b)</text>
</g>
<!-- 5 -->
<g id="node7" class="node">
<title>5</title>
<ellipse fill="none" stroke="black" cx="364" cy="-399" rx="41.69" ry="18"/>
<text text-anchor="middle" x="364" y="-395.3" font-family="Times,serif" font-size="14.00">Est (a)</text>
</g>
<!-- 6 -->
<g id="node8" class="node">
<title>6</title>
<ellipse fill="none" stroke="black" cx="583" cy="-253" rx="46.59" ry="18"/>
<text text-anchor="middle" x="583" y="-249.3" font-family="Times,serif" font-size="14.00">Taur (a)</text>
</g>
<!-- 8 -->
<g id="node10" class="node">
<title>8</title>
<ellipse fill="none" stroke="black" cx="462" cy="-180" rx="50.09" ry="18"/>
<text text-anchor="middle" x="462" y="-176.3" font-family="Times,serif" font-size="14.00">Marc (a)</text>
</g>
<!-- 6&#45;&gt;8 -->
<g id="edge9" class="edge">
<title>6&#45;&gt;8</title>
<path fill="none" stroke="black" stroke-dasharray="1,5" d="M558.51,-237.63C540.55,-227.09 515.92,-212.64 496.04,-200.97"/>
<polygon fill="black" stroke="black" points="497.68,-197.88 487.28,-195.84 494.14,-203.91 497.68,-197.88"/>
</g>
<!-- 10 -->
<g id="node12" class="node">
<title>10</title>
<ellipse fill="none" stroke="black" cx="583" cy="-180" rx="53.09" ry="18"/>
<text text-anchor="middle" x="583" y="-176.3" font-family="Times,serif" font-size="14.00">M118 (d)</text>
</g>
<!-- 6&#45;&gt;10 -->
<g id="edge11" class="edge">
<title>6&#45;&gt;10</title>
<path fill="none" stroke="blue" stroke-dasharray="5,2" d="M583,-234.81C583,-226.79 583,-217.05 583,-208.07"/>
<polygon fill="blue" stroke="blue" points="586.5,-208.03 583,-198.03 579.5,-208.03 586.5,-208.03"/>
</g>
<!-- 29 -->
<g id="node31" class="node">
<title>29</title>
<ellipse fill="none" stroke="black" cx="704" cy="-180" rx="50.09" ry="18"/>
<text text-anchor="middle" x="704" y="-176.3" font-family="Times,serif" font-size="14.00">V569 (a)</text>
</g>
<!-- 6&#45;&gt;29 -->
<g id="edge29" class="edge">
<title>6&#45;&gt;29</title>
<path fill="none" stroke="black" stroke-dasharray="5,2" d="M607.49,-237.63C625.45,-227.09 650.08,-212.64 669.96,-200.97"/>
<polygon fill="black" stroke="black" points="671.86,-203.91 678.72,-195.84 668.32,-197.88 671.86,-203.91"/>
</g>
<!-- 7 -->
<g id="node9" class="node">
<title>7</title>
<ellipse fill="none" stroke="black" cx="368" cy="-472" rx="55.79" ry="18"/>
<text text-anchor="middle" x="368" y="-468.3" font-family="Times,serif" font-size="14.00">V1897 (a)</text>
</g>
<!-- 7&#45;&gt;5 -->
<g id="edge6" class="edge">
<title>7&#45;&gt;5</title>
<path fill="none" stroke="black" stroke-dasharray="1,5" d="M367.03,-453.81C366.58,-445.79 366.03,-436.05 365.53,-427.07"/>
<polygon fill="black" stroke="black" points="369.02,-426.82 364.96,-417.03 362.03,-427.21 369.02,-426.82"/>
</g>
<!-- 42 -->
<g id="node44" class="node">
<title>42</title>
<ellipse fill="none" stroke="black" cx="466" cy="-399" rx="42.79" ry="18"/>
<text text-anchor="middle" x="466" y="-395.3" font-family="Times,serif" font-size="14.00">Bas (a)</text>
</g>
<!-- 7&#45;&gt;42 -->
<g id="edge42" class="edge">
<title>7&#45;&gt;42</title>
<path fill="none" stroke="black" d="M389.75,-455.24C403.61,-445.2 421.73,-432.07 436.83,-421.13"/>
<polygon fill="black" stroke="black" points="439.27,-423.69 445.32,-414.98 435.17,-418.02 439.27,-423.69"/>
</g>
<!-- 13 -->
<g id="node15" class="node">
<title>13</title>
<ellipse fill="none" stroke="black" cx="462" cy="-107" rx="46.29" ry="18"/>
<text text-anchor="middle" x="462" y="-103.3" font-family="Times,serif" font-size="14.00">Mon (a)</text>
</g>
<!-- 8&#45;&gt;13 -->
<g id="edge13" class="edge">
<title>8&#45;&gt;13</title>
<path fill="none" stroke="black" stroke-dasharray="1,5" d="M462,-161.81C462,-153.79 462,-144.05 462,-135.07"/>
<polygon fill="black" stroke="black" points="465.5,-135.03 462,-125.03 458.5,-135.03 465.5,-135.03"/>
</g>
<!-- 9 -->
<g id="node11" class="node">
<title>9</title>
<ellipse fill="none" stroke="black" cx="2189" cy="-399" rx="44.39" ry="18"/>
<text text-anchor="middle" x="2189" y="-395.3" font-family="Times,serif" font-size="14.00">B39 (a)</text>
</g>
<!-- 34 -->
<g id="node36" class="node">
<title>34</title>
<ellipse fill="none" stroke="gray" stroke-dasharray="5,2" cx="583" cy="-107" rx="28.7" ry="18"/>
<text text-anchor="middle" x="583" y="-103.3" font-family="Times,serif" font-size="14.00">P18</text>
</g>
<!-- 10&#45;&gt;34 -->
<g id="edge34" class="edge">
<title>10&#45;&gt;34</title>
<path fill="none" stroke="gray" stroke-dasharray="5,2" d="M583,-161.81C583,-153.79 583,-144.05 583,-135.07"/>
<polygon fill="gray" stroke="gray" points="586.5,-135.03 583,-125.03 579.5,-135.03 586.5,-135.03"/>
</g>
<!-- 11 -->
<g id="node13" class="node">
<title>11</title>
<ellipse fill="none" stroke="black" cx="912" cy="-556" rx="53.89" ry="18"/>
<text text-anchor="middle" x="912" y="-552.3" font-family="Times,serif" font-size="14.00">aBase (a)</text>
</g>
<!-- 11&#45;&gt;2 -->
<g id="edge3" class="edge">
<title>11&#45;&gt;2</title>
<path fill="none" stroke="blue" stroke-width="2" d="M858.5,-552.85C751.82,-547.77 505.47,-532.15 303,-490 299.07,-489.18 295.01,-488.23 290.96,-487.2"/>
<polygon fill="blue" stroke="blue" stroke-width="2" points="291.54,-483.73 280.97,-484.51 289.72,-490.49 291.54,-483.73"/>
</g>
<!-- 11&#45;&gt;7 -->
<g id="edge8" class="edge">
<title>11&#45;&gt;7</title>
<path fill="none" stroke="black" d="M860.97,-550.15C773.04,-541.34 587.54,-520.72 433,-490 428.31,-489.07 423.46,-488 418.62,-486.86"/>
<polygon fill="black" stroke="black" points="419.29,-483.42 408.74,-484.45 417.63,-490.22 419.29,-483.42"/>
</g>
<!-- 15 -->
<g id="node17" class="node">
<title>15</title>
<ellipse fill="none" stroke="black" cx="498" cy="-472" rx="55.79" ry="18"/>
<text text-anchor="middle" x="498" y="-468.3" font-family="Times,serif" font-size="14.00">V2036 (a)</text>
</g>
<!-- 11&#45;&gt;15 -->
<g id="edge15" class="edge">
<title>11&#45;&gt;15</title>
<path fill="none" stroke="black" d="M864.65,-547.29C797.32,-536.07 670.21,-513.97 563,-490 558.4,-488.97 553.64,-487.85 548.88,-486.68"/>
<polygon fill="black" stroke="black" points="549.71,-483.28 539.15,-484.24 548,-490.07 549.71,-483.28"/>
<text text-anchor="middle" x="699.5" y="-511" font-family="Times,serif" font-size="10.00">2</text>
</g>
<!-- 16 -->
<g id="node18" class="node">
<title>16</title>
<ellipse fill="none" stroke="black" cx="625" cy="-472" rx="52.79" ry="18"/>
<text text-anchor="middle" x="625" y="-468.3" font-family="Times,serif" font-size="14.00">M136 (a)</text>
</g>
<!-- 11&#45;&gt;16 -->
<g id="edge16" class="edge">
<title>11&#45;&gt;16</title>
<path fill="none" stroke="black" stroke-width="2" d="M872.4,-543.68C820.61,-528.89 729.91,-502.97 673.9,-486.97"/>
<polygon fill="black" stroke="black" stroke-width="2" points="674.78,-483.58 664.2,-484.2 672.85,-490.31 674.78,-483.58"/>
</g>
<!-- 17 -->
<g id="node19" class="node">
<title>17</title>
<ellipse fill="none" stroke="black" cx="746" cy="-472" rx="50.09" ry="18"/>
<text text-anchor="middle" x="746" y="-468.3" font-family="Times,serif" font-size="14.00">Neap (a)</text>
</g>
<!-- 11&#45;&gt;17 -->
<g id="edge17" class="edge">
<title>11&#45;&gt;17</title>
<path fill="none" stroke="black" stroke-width="2" d="M884.61,-540.24C866.87,-530.8 843.2,-518.41 822,-508 810.17,-502.19 797.17,-496.1 785.33,-490.66"/>
<polygon fill="black" stroke="black" stroke-width="2" points="786.67,-487.43 776.12,-486.46 783.76,-493.79 786.67,-487.43"/>
</g>
<!-- 19 -->
<g id="node21" class="node">
<title>19</title>
<ellipse fill="none" stroke="black" cx="857" cy="-472" rx="42.79" ry="18"/>
<text text-anchor="middle" x="857" y="-468.3" font-family="Times,serif" font-size="14.00">La2 (a)</text>
</g>
<!-- 11&#45;&gt;19 -->
<g id="edge19" class="edge">
<title>11&#45;&gt;19</title>
<path fill="none" stroke="black" stroke-width="2" d="M900.6,-538.01C892.83,-526.42 882.41,-510.89 873.71,-497.91"/>
<polygon fill="black" stroke="black" stroke-width="2" points="876.48,-495.76 868.01,-489.41 870.67,-499.66 876.48,-495.76"/>
</g>
<!-- 20 -->
<g id="node22" class="node">
<title>20</title>
<ellipse fill="none" stroke="gray" stroke-dasharray="5,2" cx="968" cy="-472" rx="50.09" ry="18"/>
<text text-anchor="middle" x="968" y="-468.3" font-family="Times,serif" font-size="14.00">Savile&#45;Η</text>
</g>
<!-- 11&#45;&gt;20 -->
<g id="edge20" class="edge">
<title>11&#45;&gt;20</title>
<path fill="none" stroke="gray" stroke-width="2" d="M923.6,-538.01C931.46,-526.5 941.99,-511.09 950.82,-498.16"/>
<polygon fill="gray" stroke="gray" stroke-width="2" points="953.85,-499.92 956.6,-489.69 948.07,-495.97 953.85,-499.92"/>
</g>
<!-- 22 -->
<g id="node24" class="node">
<title>22</title>
<ellipse fill="none" stroke="black" cx="1080" cy="-472" rx="44.39" ry="18"/>
<text text-anchor="middle" x="1080" y="-468.3" font-family="Times,serif" font-size="14.00">A25 (a)</text>
</g>
<!-- 11&#45;&gt;22 -->
<g id="edge22" class="edge">
<title>11&#45;&gt;22</title>
<path fill="none" stroke="black" stroke-dasharray="5,2" d="M941.26,-540.72C969.72,-526.83 1013.02,-505.69 1043.66,-490.73"/>
<polygon fill="black" stroke="black" points="1045.29,-493.84 1052.74,-486.31 1042.22,-487.55 1045.29,-493.84"/>
</g>
<!-- 24 -->
<g id="node26" class="node">
<title>24</title>
<ellipse fill="none" stroke="gray" stroke-dasharray="5,2" cx="1177" cy="-472" rx="34.39" ry="18"/>
<text text-anchor="middle" x="1177" y="-468.3" font-family="Times,serif" font-size="14.00">S249</text>
</g>
<!-- 11&#45;&gt;24 -->
<g id="edge24" class="edge">
<title>11&#45;&gt;24</title>
<path fill="none" stroke="gray" d="M952.64,-544.13C997.22,-531.96 1070.71,-511.15 1133,-490 1135.69,-489.09 1138.46,-488.11 1141.24,-487.1"/>
<polygon fill="gray" stroke="gray" points="1142.46,-490.38 1150.6,-483.61 1140.01,-483.82 1142.46,-490.38"/>
</g>
<!-- 26 -->
<g id="node28" class="node">
<title>26</title>
<ellipse fill="none" stroke="black" cx="1548" cy="-472" rx="49.29" ry="18"/>
<text text-anchor="middle" x="1548" y="-468.3" font-family="Times,serif" font-size="14.00">La22 (b)</text>
</g>
<!-- 11&#45;&gt;26 -->
<g id="edge26" class="edge">
<title>11&#45;&gt;26</title>
<path fill="none" stroke="blue" stroke-dasharray="5,2" d="M961.38,-548.63C1077.91,-533.61 1369.44,-496.02 1492.16,-480.2"/>
<polygon fill="blue" stroke="blue" points="1492.63,-483.67 1502.1,-478.92 1491.74,-476.73 1492.63,-483.67"/>
</g>
<!-- 36 -->
<g id="node38" class="node">
<title>36</title>
<ellipse fill="none" stroke="black" cx="1677" cy="-472" rx="44.69" ry="18"/>
<text text-anchor="middle" x="1677" y="-468.3" font-family="Times,serif" font-size="14.00">Nan (a)</text>
</g>
<!-- 11&#45;&gt;36 -->
<g id="edge36" class="edge">
<title>11&#45;&gt;36</title>
<path fill="none" stroke="black" d="M965,-552.6C1081.57,-546.76 1368.72,-529.32 1606,-490 1614.09,-488.66 1622.63,-486.91 1630.86,-485.05"/>
<polygon fill="black" stroke="black" points="1631.78,-488.43 1640.72,-482.73 1630.18,-481.61 1631.78,-488.43"/>
</g>
<!-- 39 -->
<g id="node41" class="node">
<title>39</title>
<ellipse fill="none" stroke="black" cx="2018" cy="-472" rx="52.79" ry="18"/>
<text text-anchor="middle" x="2018" y="-468.3" font-family="Times,serif" font-size="14.00">LaSM (a)</text>
</g>
<!-- 11&#45;&gt;39 -->
<g id="edge39" class="edge">
<title>11&#45;&gt;39</title>
<path fill="none" stroke="black" d="M964.47,-551.62C1059.39,-545.46 1265.9,-531.86 1440,-519 1628.72,-505.06 1851.96,-486.79 1957.25,-478.06"/>
<polygon fill="black" stroke="black" points="1957.7,-481.54 1967.37,-477.22 1957.12,-474.56 1957.7,-481.54"/>
</g>
<!-- 35 -->
<g id="node37" class="node">
<title>35</title>
<ellipse fill="none" stroke="black" cx="462" cy="-34" rx="40.89" ry="18"/>
<text text-anchor="middle" x="462" y="-30.3" font-family="Times,serif" font-size="14.00">Sin (a)</text>
</g>
<!-- 13&#45;&gt;35 -->
<g id="edge35" class="edge">
<title>13&#45;&gt;35</title>
<path fill="none" stroke="black" stroke-dasharray="1,5" d="M462,-88.81C462,-80.79 462,-71.05 462,-62.07"/>
<polygon fill="black" stroke="black" points="465.5,-62.03 462,-52.03 458.5,-62.03 465.5,-62.03"/>
</g>
<!-- 14 -->
<g id="node16" class="node">
<title>14</title>
<ellipse fill="none" stroke="gray" stroke-dasharray="5,2" cx="479" cy="-326" rx="36" ry="18"/>
<text text-anchor="middle" x="479" y="-322.3" font-family="Times,serif" font-size="14.00">La2&#45;c</text>
</g>
<!-- 23 -->
<g id="node25" class="node">
<title>23</title>
<ellipse fill="none" stroke="black" cx="583" cy="-399" rx="55.79" ry="18"/>
<text text-anchor="middle" x="583" y="-395.3" font-family="Times,serif" font-size="14.00">V1629 (a)</text>
</g>
<!-- 17&#45;&gt;23 -->
<g id="edge23" class="edge">
<title>17&#45;&gt;23</title>
<path fill="none" stroke="black" stroke-dasharray="1,5" d="M715.34,-457.65C689.57,-446.42 652.52,-430.28 624.17,-417.93"/>
<polygon fill="black" stroke="black" points="625.48,-414.69 614.91,-413.9 622.68,-421.1 625.48,-414.69"/>
</g>
<!-- 18 -->
<g id="node20" class="node">
<title>18</title>
<ellipse fill="none" stroke="black" cx="1483" cy="-399" rx="50.09" ry="18"/>
<text text-anchor="middle" x="1483" y="-395.3" font-family="Times,serif" font-size="14.00">V565 (b)</text>
</g>
<!-- 21 -->
<g id="node23" class="node">
<title>21</title>
<ellipse fill="none" stroke="black" cx="819" cy="-399" rx="44.39" ry="18"/>
<text text-anchor="middle" x="819" y="-395.3" font-family="Times,serif" font-size="14.00">P01 (a)</text>
</g>
<!-- 22&#45;&gt;1 -->
<g id="edge2" class="edge">
<title>22&#45;&gt;1</title>
<path fill="none" stroke="black" stroke-dasharray="1,5" d="M1047.73,-459.69C1040.94,-457.58 1033.78,-455.56 1027,-454 912.81,-427.79 880.57,-441.5 766,-417 761.9,-416.12 757.66,-415.11 753.43,-414.03"/>
<polygon fill="black" stroke="black" points="754.19,-410.61 743.62,-411.41 752.38,-417.38 754.19,-410.61"/>
</g>
<!-- 22&#45;&gt;21 -->
<g id="edge21" class="edge">
<title>22&#45;&gt;21</title>
<path fill="none" stroke="black" stroke-dasharray="5,2" d="M1047.04,-460C1040.43,-457.92 1033.51,-455.82 1027,-454 958.79,-434.95 940.21,-436.05 872,-417 868.64,-416.06 865.18,-415.05 861.7,-414"/>
<polygon fill="black" stroke="black" points="862.55,-410.6 851.96,-411 860.49,-417.29 862.55,-410.6"/>
</g>
<!-- 28 -->
<g id="node30" class="node">
<title>28</title>
<ellipse fill="none" stroke="black" cx="925" cy="-399" rx="44.39" ry="18"/>
<text text-anchor="middle" x="925" y="-395.3" font-family="Times,serif" font-size="14.00">S32 (a)</text>
</g>
<!-- 22&#45;&gt;28 -->
<g id="edge28" class="edge">
<title>22&#45;&gt;28</title>
<path fill="none" stroke="black" stroke-dasharray="5,2" d="M1051.57,-457.98C1026.55,-446.52 989.95,-429.75 962.53,-417.19"/>
<polygon fill="black" stroke="black" points="963.8,-413.92 953.25,-412.94 960.88,-420.29 963.8,-413.92"/>
</g>
<!-- 32 -->
<g id="node34" class="node">
<title>32</title>
<ellipse fill="none" stroke="black" cx="1027" cy="-399" rx="40.09" ry="18"/>
<text text-anchor="middle" x="1027" y="-395.3" font-family="Times,serif" font-size="14.00">Pal (a)</text>
</g>
<!-- 22&#45;&gt;32 -->
<g id="edge32" class="edge">
<title>22&#45;&gt;32</title>
<path fill="none" stroke="black" stroke-dasharray="5,2" d="M1067.71,-454.53C1061.09,-445.66 1052.78,-434.54 1045.4,-424.66"/>
<polygon fill="black" stroke="black" points="1048.01,-422.3 1039.23,-416.38 1042.4,-426.49 1048.01,-422.3"/>
</g>
<!-- 37 -->
<g id="node39" class="node">
<title>37</title>
<ellipse fill="none" stroke="black" cx="1135" cy="-399" rx="50.09" ry="18"/>
<text text-anchor="middle" x="1135" y="-395.3" font-family="Times,serif" font-size="14.00">V566 (a)</text>
</g>
<!-- 22&#45;&gt;37 -->
<g id="edge37" class="edge">
<title>22&#45;&gt;37</title>
<path fill="none" stroke="black" stroke-dasharray="5,2" d="M1092.76,-454.53C1099.6,-445.7 1108.17,-434.63 1115.8,-424.78"/>
<polygon fill="black" stroke="black" points="1118.57,-426.92 1121.93,-416.87 1113.04,-422.63 1118.57,-426.92"/>
</g>
<!-- 23&#45;&gt;14 -->
<g id="edge14" class="edge">
<title>23&#45;&gt;14</title>
<path fill="none" stroke="gray" stroke-width="2" d="M560.18,-382.42C544.84,-371.95 524.5,-358.06 508.01,-346.81"/>
<polygon fill="gray" stroke="gray" stroke-width="2" points="509.54,-343.61 499.31,-340.86 505.59,-349.39 509.54,-343.61"/>
</g>
<!-- 33 -->
<g id="node35" class="node">
<title>33</title>
<ellipse fill="none" stroke="black" cx="583" cy="-326" rx="50.09" ry="18"/>
<text text-anchor="middle" x="583" y="-322.3" font-family="Times,serif" font-size="14.00">V568 (a)</text>
</g>
<!-- 23&#45;&gt;33 -->
<g id="edge33" class="edge">
<title>23&#45;&gt;33</title>
<path fill="none" stroke="black" stroke-dasharray="5,2" d="M583,-380.81C583,-372.79 583,-363.05 583,-354.07"/>
<polygon fill="black" stroke="black" points="586.5,-354.03 583,-344.03 579.5,-354.03 586.5,-354.03"/>
</g>
<!-- 40 -->
<g id="node42" class="node">
<title>40</title>
<ellipse fill="none" stroke="black" cx="701" cy="-326" rx="50.09" ry="18"/>
<text text-anchor="middle" x="701" y="-322.3" font-family="Times,serif" font-size="14.00">V536 (a)</text>
</g>
<!-- 23&#45;&gt;40 -->
<g id="edge40" class="edge">
<title>23&#45;&gt;40</title>
<path fill="none" stroke="black" stroke-dasharray="5,2" d="M608.31,-382.77C625.74,-372.29 649.05,-358.26 667.94,-346.89"/>
<polygon fill="black" stroke="black" points="669.77,-349.87 676.54,-341.72 666.16,-343.88 669.77,-349.87"/>
</g>
<!-- 25 -->
<g id="node27" class="node">
<title>25</title>
<ellipse fill="none" stroke="black" cx="1601" cy="-399" rx="50.09" ry="18"/>
<text text-anchor="middle" x="1601" y="-395.3" font-family="Times,serif" font-size="14.00">V571 (b)</text>
</g>
<!-- 26&#45;&gt;0 -->
<g id="edge1" class="edge">
<title>26&#45;&gt;0</title>
<path fill="none" stroke="black" stroke-dasharray="1,5" d="M1506.76,-461.8C1460.64,-451.4 1383.79,-433.74 1318,-417 1313.92,-415.96 1309.7,-414.86 1305.47,-413.74"/>
<polygon fill="black" stroke="black" points="1306.2,-410.31 1295.63,-411.1 1304.38,-417.07 1306.2,-410.31"/>
</g>
<!-- 26&#45;&gt;4 -->
<g id="edge5" class="edge">
<title>26&#45;&gt;4</title>
<path fill="none" stroke="black" stroke-dasharray="1,5" d="M1515.95,-458.14C1486.42,-446.3 1442.52,-428.69 1410.77,-415.95"/>
<polygon fill="black" stroke="black" points="1411.92,-412.64 1401.34,-412.17 1409.32,-419.14 1411.92,-412.64"/>
</g>
<!-- 26&#45;&gt;18 -->
<g id="edge18" class="edge">
<title>26&#45;&gt;18</title>
<path fill="none" stroke="black" stroke-dasharray="5,2" d="M1532.92,-454.53C1524.56,-445.39 1514,-433.86 1504.75,-423.76"/>
<polygon fill="black" stroke="black" points="1507.33,-421.39 1497.99,-416.38 1502.16,-426.12 1507.33,-421.39"/>
</g>
<!-- 26&#45;&gt;25 -->
<g id="edge25" class="edge">
<title>26&#45;&gt;25</title>
<path fill="none" stroke="black" stroke-dasharray="1,5" d="M1560.29,-454.53C1566.82,-445.79 1574.98,-434.86 1582.28,-425.08"/>
<polygon fill="black" stroke="black" points="1585.23,-426.98 1588.41,-416.87 1579.62,-422.79 1585.23,-426.98"/>
</g>
<!-- 27 -->
<g id="node29" class="node">
<title>27</title>
<ellipse fill="none" stroke="black" cx="1718" cy="-399" rx="49.29" ry="18"/>
<text text-anchor="middle" x="1718" y="-395.3" font-family="Times,serif" font-size="14.00">La35 (b)</text>
</g>
<!-- 26&#45;&gt;27 -->
<g id="edge27" class="edge">
<title>26&#45;&gt;27</title>
<path fill="none" stroke="black" stroke-dasharray="1,5" d="M1579.18,-457.98C1606.77,-446.45 1647.22,-429.56 1677.34,-416.98"/>
<polygon fill="black" stroke="black" points="1678.85,-420.14 1686.73,-413.06 1676.15,-413.68 1678.85,-420.14"/>
</g>
<!-- 38 -->
<g id="node40" class="node">
<title>38</title>
<ellipse fill="none" stroke="black" cx="1835" cy="-399" rx="50.09" ry="18"/>
<text text-anchor="middle" x="1835" y="-395.3" font-family="Times,serif" font-size="14.00">A116 (b)</text>
</g>
<!-- 26&#45;&gt;38 -->
<g id="edge38" class="edge">
<title>26&#45;&gt;38</title>
<path fill="none" stroke="black" stroke-dasharray="5,2" d="M1585.94,-460.36C1613.35,-452.83 1651.33,-442.75 1685,-435 1725.18,-425.76 1735.93,-426.72 1776,-417 1780.02,-416.02 1784.18,-414.95 1788.34,-413.84"/>
<polygon fill="black" stroke="black" points="1789.28,-417.21 1797.99,-411.19 1787.42,-410.46 1789.28,-417.21"/>
</g>
<!-- 41 -->
<g id="node43" class="node">
<title>41</title>
<ellipse fill="none" stroke="black" cx="1950" cy="-399" rx="47.39" ry="18"/>
<text text-anchor="middle" x="1950" y="-395.3" font-family="Times,serif" font-size="14.00">Bodl (b)</text>
</g>
<!-- 26&#45;&gt;41 -->
<g id="edge41" class="edge">
<title>26&#45;&gt;41</title>
<path fill="none" stroke="black" stroke-dasharray="5,2" d="M1587.96,-461.26C1599.25,-458.7 1611.57,-456.07 1623,-454 1742.61,-432.32 1775.24,-442.96 1894,-417 1897.85,-416.16 1901.83,-415.18 1905.79,-414.13"/>
<polygon fill="black" stroke="black" points="1906.89,-417.46 1915.57,-411.39 1905,-410.71 1906.89,-417.46"/>
</g>
<!-- 30 -->
<g id="node32" class="node">
<title>30</title>
<ellipse fill="none" stroke="black" cx="2071" cy="-399" rx="55.79" ry="18"/>
<text text-anchor="middle" x="2071" y="-395.3" font-family="Times,serif" font-size="14.00">V2250 (a)</text>
</g>
<!-- 31 -->
<g id="node33" class="node">
<title>31</title>
<ellipse fill="none" stroke="black" cx="1133" cy="-326" rx="55.79" ry="18"/>
<text text-anchor="middle" x="1133" y="-322.3" font-family="Times,serif" font-size="14.00">V1639 (a)</text>
</g>
<!-- 33&#45;&gt;6 -->
<g id="edge7" class="edge">
<title>33&#45;&gt;6</title>
<path fill="none" stroke="black" stroke-dasharray="1,5" d="M583,-307.81C583,-299.79 583,-290.05 583,-281.07"/>
<polygon fill="black" stroke="black" points="586.5,-281.03 583,-271.03 579.5,-281.03 586.5,-281.03"/>
</g>
<!-- 36&#45;&gt;30 -->
<g id="edge30" class="edge">
<title>36&#45;&gt;30</title>
<path fill="none" stroke="black" stroke-dasharray="5,2" d="M1718.78,-465.41C1781.49,-456.75 1903.52,-438.76 2006,-417 2010.61,-416.02 2015.38,-414.93 2020.15,-413.78"/>
<polygon fill="black" stroke="black" points="2021.01,-417.17 2029.88,-411.37 2019.33,-410.38 2021.01,-417.17"/>
</g>
<!-- 37&#45;&gt;31 -->
<g id="edge31" class="edge">
<title>37&#45;&gt;31</title>
<path fill="none" stroke="black" stroke-dasharray="1,5" d="M1134.52,-380.81C1134.29,-372.79 1134.02,-363.05 1133.76,-354.07"/>
<polygon fill="black" stroke="black" points="1137.26,-353.93 1133.48,-344.03 1130.26,-354.12 1137.26,-353.93"/>
</g>
<!-- 39&#45;&gt;9 -->
<g id="edge10" class="edge">
<title>39&#45;&gt;9</title>
<path fill="none" stroke="black" stroke-dasharray="5,2" d="M2050.16,-457.65C2078.45,-445.9 2119.7,-428.77 2149.89,-416.24"/>
<polygon fill="black" stroke="black" points="2151.38,-419.41 2159.27,-412.34 2148.69,-412.95 2151.38,-419.41"/>
</g>
</g>
</svg>
