<?xml version="1.0" encoding="UTF-8" standalone="no"?>
<!DOCTYPE svg PUBLIC "-//W3C//DTD SVG 1.1//EN"
 "http://www.w3.org/Graphics/SVG/1.1/DTD/svg11.dtd">
<!-- Generated by graphviz version 2.43.0 (0)
 -->
<!-- Title: textual_flow Pages: 1 -->
<svg width="2137pt" height="692pt"
 viewBox="0.00 0.00 2137.00 692.00" xmlns="http://www.w3.org/2000/svg" xmlns:xlink="http://www.w3.org/1999/xlink">
<g id="graph0" class="graph" transform="scale(1 1) rotate(0) translate(4 688)">
<title>textual_flow</title>
<polygon fill="white" stroke="transparent" points="-4,4 -4,-688 2133,-688 2133,4 -4,4"/>
<g id="clust1" class="cluster">
<title>cluster_legend</title>
<polygon fill="none" stroke="black" points="8,-622 8,-676 164,-676 164,-622 8,-622"/>
</g>
<g id="clust2" class="cluster">
<title>cluster_plot</title>
</g>
<!-- label -->
<g id="node1" class="node">
<title>label</title>
<text text-anchor="middle" x="86" y="-652.8" font-family="Times,serif" font-size="14.00">adstag1.3.19U13</text>
<text text-anchor="middle" x="86" y="-637.8" font-family="Times,serif" font-size="14.00">Con = 5</text>
</g>
<!-- 0 -->
<g id="node2" class="node">
<title>0</title>
<ellipse fill="none" stroke="black" cx="1166" cy="-482" rx="44.39" ry="18"/>
<text text-anchor="middle" x="1166" y="-478.3" font-family="Times,serif" font-size="14.00">P01 (b)</text>
</g>
<!-- 33 -->
<g id="node35" class="node">
<title>33</title>
<ellipse fill="none" stroke="black" cx="1166" cy="-399" rx="53.09" ry="18"/>
<text text-anchor="middle" x="1166" y="-395.3" font-family="Times,serif" font-size="14.00">LaSM (b)</text>
</g>
<!-- 0&#45;&gt;33 -->
<g id="edge33" class="edge">
<title>0&#45;&gt;33</title>
<path fill="none" stroke="black" stroke-dasharray="5,2" d="M1166,-463.82C1166,-453.19 1166,-439.31 1166,-427.2"/>
<polygon fill="black" stroke="black" points="1169.5,-427.15 1166,-417.15 1162.5,-427.15 1169.5,-427.15"/>
<text text-anchor="middle" x="1169.5" y="-438" font-family="Times,serif" font-size="10.00">2</text>
</g>
<!-- 1 -->
<g id="node3" class="node">
<title>1</title>
<ellipse fill="none" stroke="black" cx="1849" cy="-399" rx="55.79" ry="18"/>
<text text-anchor="middle" x="1849" y="-395.3" font-family="Times,serif" font-size="14.00">V2036 (b)</text>
</g>
<!-- 2 -->
<g id="node4" class="node">
<title>2</title>
<ellipse fill="none" stroke="black" cx="1986" cy="-253" rx="46.59" ry="18"/>
<text text-anchor="middle" x="1986" y="-249.3" font-family="Times,serif" font-size="14.00">Taur (a)</text>
</g>
<!-- 8 -->
<g id="node10" class="node">
<title>8</title>
<ellipse fill="none" stroke="black" cx="1821" cy="-180" rx="50.09" ry="18"/>
<text text-anchor="middle" x="1821" y="-176.3" font-family="Times,serif" font-size="14.00">V569 (a)</text>
</g>
<!-- 2&#45;&gt;8 -->
<g id="edge9" class="edge">
<title>2&#45;&gt;8</title>
<path fill="none" stroke="black" stroke-dasharray="5,2" d="M1956.12,-239.14C1929.59,-227.73 1890.59,-210.95 1861.3,-198.34"/>
<polygon fill="black" stroke="black" points="1862.35,-194.98 1851.78,-194.24 1859.58,-201.41 1862.35,-194.98"/>
</g>
<!-- 21 -->
<g id="node23" class="node">
<title>21</title>
<ellipse fill="none" stroke="black" cx="1942" cy="-180" rx="52.79" ry="18"/>
<text text-anchor="middle" x="1942" y="-176.3" font-family="Times,serif" font-size="14.00">M118 (a)</text>
</g>
<!-- 2&#45;&gt;21 -->
<g id="edge21" class="edge">
<title>2&#45;&gt;21</title>
<path fill="none" stroke="black" stroke-dasharray="5,2" d="M1975.57,-235.17C1970.26,-226.6 1963.68,-215.99 1957.76,-206.44"/>
<polygon fill="black" stroke="black" points="1960.6,-204.36 1952.35,-197.71 1954.65,-208.05 1960.6,-204.36"/>
</g>
<!-- 40 -->
<g id="node42" class="node">
<title>40</title>
<ellipse fill="none" stroke="black" cx="2063" cy="-180" rx="50.09" ry="18"/>
<text text-anchor="middle" x="2063" y="-176.3" font-family="Times,serif" font-size="14.00">Marc (a)</text>
</g>
<!-- 2&#45;&gt;40 -->
<g id="edge40" class="edge">
<title>2&#45;&gt;40</title>
<path fill="none" stroke="black" stroke-dasharray="1,5" d="M2003.09,-236.24C2013.38,-226.75 2026.68,-214.49 2038.12,-203.94"/>
<polygon fill="black" stroke="black" points="2040.71,-206.31 2045.69,-196.96 2035.97,-201.16 2040.71,-206.31"/>
</g>
<!-- 3 -->
<g id="node5" class="node">
<title>3</title>
<ellipse fill="none" stroke="black" cx="1272" cy="-482" rx="44.39" ry="18"/>
<text text-anchor="middle" x="1272" y="-478.3" font-family="Times,serif" font-size="14.00">S32 (b)</text>
</g>
<!-- 4 -->
<g id="node6" class="node">
<title>4</title>
<ellipse fill="none" stroke="black" cx="360" cy="-482" rx="50.09" ry="18"/>
<text text-anchor="middle" x="360" y="-478.3" font-family="Times,serif" font-size="14.00">V565 (a)</text>
</g>
<!-- 5 -->
<g id="node7" class="node">
<title>5</title>
<ellipse fill="none" stroke="black" cx="477" cy="-482" rx="48.99" ry="18"/>
<text text-anchor="middle" x="477" y="-478.3" font-family="Times,serif" font-size="14.00">La35 (a)</text>
</g>
<!-- 6 -->
<g id="node8" class="node">
<title>6</title>
<ellipse fill="none" stroke="gray" stroke-dasharray="5,2" cx="1942" cy="-107" rx="28.7" ry="18"/>
<text text-anchor="middle" x="1942" y="-103.3" font-family="Times,serif" font-size="14.00">P18</text>
</g>
<!-- 7 -->
<g id="node9" class="node">
<title>7</title>
<ellipse fill="none" stroke="black" cx="402" cy="-565" rx="50.09" ry="18"/>
<text text-anchor="middle" x="402" y="-561.3" font-family="Times,serif" font-size="14.00">V560 (a)</text>
</g>
<!-- 35 -->
<g id="node37" class="node">
<title>35</title>
<ellipse fill="none" stroke="black" cx="236" cy="-482" rx="55.79" ry="18"/>
<text text-anchor="middle" x="236" y="-478.3" font-family="Times,serif" font-size="14.00">V1920 (a)</text>
</g>
<!-- 7&#45;&gt;35 -->
<g id="edge35" class="edge">
<title>7&#45;&gt;35</title>
<path fill="none" stroke="black" stroke-dasharray="5,2" d="M373.46,-550.08C346.16,-536.75 304.78,-516.56 274.55,-501.81"/>
<polygon fill="black" stroke="black" points="276.08,-498.66 265.56,-497.42 273.01,-504.95 276.08,-498.66"/>
</g>
<!-- 9 -->
<g id="node11" class="node">
<title>9</title>
<ellipse fill="none" stroke="black" cx="520" cy="-565" rx="44.39" ry="18"/>
<text text-anchor="middle" x="520" y="-561.3" font-family="Times,serif" font-size="14.00">B39 (a)</text>
</g>
<!-- 10 -->
<g id="node12" class="node">
<title>10</title>
<ellipse fill="none" stroke="black" cx="690" cy="-649" rx="53.89" ry="18"/>
<text text-anchor="middle" x="690" y="-645.3" font-family="Times,serif" font-size="14.00">aBase (a)</text>
</g>
<!-- 10&#45;&gt;7 -->
<g id="edge8" class="edge">
<title>10&#45;&gt;7</title>
<path fill="none" stroke="black" stroke-width="2" d="M650.26,-636.68C597.85,-621.76 505.74,-595.54 449.66,-579.57"/>
<polygon fill="black" stroke="black" stroke-width="2" points="450.54,-576.18 439.96,-576.81 448.62,-582.91 450.54,-576.18"/>
</g>
<!-- 10&#45;&gt;9 -->
<g id="edge10" class="edge">
<title>10&#45;&gt;9</title>
<path fill="none" stroke="black" stroke-width="2" d="M660.39,-633.72C631.51,-619.79 587.52,-598.57 556.49,-583.6"/>
<polygon fill="black" stroke="black" stroke-width="2" points="557.84,-580.36 547.31,-579.17 554.79,-586.67 557.84,-580.36"/>
<text text-anchor="middle" x="618.5" y="-604" font-family="Times,serif" font-size="10.00">2</text>
</g>
<!-- 15 -->
<g id="node17" class="node">
<title>15</title>
<ellipse fill="none" stroke="gray" stroke-dasharray="5,2" cx="632" cy="-565" rx="50.09" ry="18"/>
<text text-anchor="middle" x="632" y="-561.3" font-family="Times,serif" font-size="14.00">Savile&#45;Η</text>
</g>
<!-- 10&#45;&gt;15 -->
<g id="edge15" class="edge">
<title>10&#45;&gt;15</title>
<path fill="none" stroke="gray" stroke-width="2" d="M678.26,-631.41C670.01,-619.74 658.82,-603.92 649.51,-590.76"/>
<polygon fill="gray" stroke="gray" stroke-width="2" points="652.35,-588.71 643.72,-582.57 646.64,-592.75 652.35,-588.71"/>
</g>
<!-- 24 -->
<g id="node26" class="node">
<title>24</title>
<ellipse fill="none" stroke="black" cx="749" cy="-565" rx="48.99" ry="18"/>
<text text-anchor="middle" x="749" y="-561.3" font-family="Times,serif" font-size="14.00">La22 (a)</text>
</g>
<!-- 10&#45;&gt;24 -->
<g id="edge24" class="edge">
<title>10&#45;&gt;24</title>
<path fill="none" stroke="black" stroke-dasharray="5,2" d="M701.94,-631.41C710.34,-619.74 721.72,-603.92 731.18,-590.76"/>
<polygon fill="black" stroke="black" points="734.08,-592.73 737.08,-582.57 728.4,-588.64 734.08,-592.73"/>
</g>
<!-- 25 -->
<g id="node27" class="node">
<title>25</title>
<ellipse fill="none" stroke="black" cx="1492" cy="-565" rx="44.39" ry="18"/>
<text text-anchor="middle" x="1492" y="-561.3" font-family="Times,serif" font-size="14.00">A25 (b)</text>
</g>
<!-- 10&#45;&gt;25 -->
<g id="edge25" class="edge">
<title>10&#45;&gt;25</title>
<path fill="none" stroke="blue" stroke-dasharray="5,2" d="M740.78,-642.81C884.53,-628.11 1293.31,-586.31 1439.34,-571.38"/>
<polygon fill="blue" stroke="blue" points="1439.8,-574.85 1449.4,-570.36 1439.09,-567.89 1439.8,-574.85"/>
</g>
<!-- 32 -->
<g id="node34" class="node">
<title>32</title>
<ellipse fill="none" stroke="black" cx="1610" cy="-565" rx="52.79" ry="18"/>
<text text-anchor="middle" x="1610" y="-561.3" font-family="Times,serif" font-size="14.00">M136 (a)</text>
</g>
<!-- 10&#45;&gt;32 -->
<g id="edge32" class="edge">
<title>10&#45;&gt;32</title>
<path fill="none" stroke="black" stroke-width="2" d="M743.93,-647.26C879.49,-644.67 1245.11,-633.2 1545,-583 1550.39,-582.1 1555.99,-580.96 1561.54,-579.69"/>
<polygon fill="black" stroke="black" stroke-width="2" points="1562.51,-583.06 1571.41,-577.31 1560.87,-576.25 1562.51,-583.06"/>
</g>
<!-- 11 -->
<g id="node13" class="node">
<title>11</title>
<ellipse fill="none" stroke="black" cx="591" cy="-482" rx="46.59" ry="18"/>
<text text-anchor="middle" x="591" y="-478.3" font-family="Times,serif" font-size="14.00">Bodl (a)</text>
</g>
<!-- 12 -->
<g id="node14" class="node">
<title>12</title>
<ellipse fill="none" stroke="black" cx="2057" cy="-482" rx="55.79" ry="18"/>
<text text-anchor="middle" x="2057" y="-478.3" font-family="Times,serif" font-size="14.00">V1629 (a)</text>
</g>
<!-- 18 -->
<g id="node20" class="node">
<title>18</title>
<ellipse fill="none" stroke="gray" stroke-dasharray="5,2" cx="1959" cy="-399" rx="36" ry="18"/>
<text text-anchor="middle" x="1959" y="-395.3" font-family="Times,serif" font-size="14.00">La2&#45;c</text>
</g>
<!-- 12&#45;&gt;18 -->
<g id="edge18" class="edge">
<title>12&#45;&gt;18</title>
<path fill="none" stroke="gray" stroke-width="2" d="M2037.64,-465C2022.49,-452.48 2001.29,-434.95 1984.72,-421.26"/>
<polygon fill="gray" stroke="gray" stroke-width="2" points="1986.94,-418.55 1977,-414.88 1982.48,-423.95 1986.94,-418.55"/>
</g>
<!-- 30 -->
<g id="node32" class="node">
<title>30</title>
<ellipse fill="none" stroke="black" cx="2063" cy="-399" rx="50.09" ry="18"/>
<text text-anchor="middle" x="2063" y="-395.3" font-family="Times,serif" font-size="14.00">V536 (a)</text>
</g>
<!-- 12&#45;&gt;30 -->
<g id="edge30" class="edge">
<title>12&#45;&gt;30</title>
<path fill="none" stroke="black" stroke-dasharray="5,2" d="M2058.27,-463.82C2059.06,-453.19 2060.09,-439.31 2060.98,-427.2"/>
<polygon fill="black" stroke="black" points="2064.48,-427.38 2061.73,-417.15 2057.5,-426.87 2064.48,-427.38"/>
</g>
<!-- 13 -->
<g id="node15" class="node">
<title>13</title>
<ellipse fill="none" stroke="black" cx="1384" cy="-482" rx="50.09" ry="18"/>
<text text-anchor="middle" x="1384" y="-478.3" font-family="Times,serif" font-size="14.00">V566 (b)</text>
</g>
<!-- 34 -->
<g id="node36" class="node">
<title>34</title>
<ellipse fill="none" stroke="black" cx="1339" cy="-399" rx="55.79" ry="18"/>
<text text-anchor="middle" x="1339" y="-395.3" font-family="Times,serif" font-size="14.00">V1639 (b)</text>
</g>
<!-- 13&#45;&gt;34 -->
<g id="edge34" class="edge">
<title>13&#45;&gt;34</title>
<path fill="none" stroke="black" stroke-dasharray="1,5" d="M1374.68,-464.22C1368.52,-453.14 1360.34,-438.41 1353.36,-425.85"/>
<polygon fill="black" stroke="black" points="1356.23,-423.8 1348.31,-416.76 1350.11,-427.2 1356.23,-423.8"/>
</g>
<!-- 14 -->
<g id="node16" class="node">
<title>14</title>
<ellipse fill="none" stroke="black" cx="706" cy="-482" rx="50.09" ry="18"/>
<text text-anchor="middle" x="706" y="-478.3" font-family="Times,serif" font-size="14.00">A116 (a)</text>
</g>
<!-- 16 -->
<g id="node18" class="node">
<title>16</title>
<ellipse fill="none" stroke="black" cx="933" cy="-399" rx="50.09" ry="18"/>
<text text-anchor="middle" x="933" y="-395.3" font-family="Times,serif" font-size="14.00">A336 (a)</text>
</g>
<!-- 17 -->
<g id="node19" class="node">
<title>17</title>
<ellipse fill="none" stroke="black" cx="1492" cy="-482" rx="40.09" ry="18"/>
<text text-anchor="middle" x="1492" y="-478.3" font-family="Times,serif" font-size="14.00">Pal (b)</text>
</g>
<!-- 19 -->
<g id="node21" class="node">
<title>19</title>
<ellipse fill="none" stroke="black" cx="2063" cy="-107" rx="46.29" ry="18"/>
<text text-anchor="middle" x="2063" y="-103.3" font-family="Times,serif" font-size="14.00">Mon (a)</text>
</g>
<!-- 31 -->
<g id="node33" class="node">
<title>31</title>
<ellipse fill="none" stroke="black" cx="2063" cy="-34" rx="40.89" ry="18"/>
<text text-anchor="middle" x="2063" y="-30.3" font-family="Times,serif" font-size="14.00">Sin (a)</text>
</g>
<!-- 19&#45;&gt;31 -->
<g id="edge31" class="edge">
<title>19&#45;&gt;31</title>
<path fill="none" stroke="black" stroke-dasharray="1,5" d="M2063,-88.81C2063,-80.79 2063,-71.05 2063,-62.07"/>
<polygon fill="black" stroke="black" points="2066.5,-62.03 2063,-52.03 2059.5,-62.03 2066.5,-62.03"/>
</g>
<!-- 20 -->
<g id="node22" class="node">
<title>20</title>
<ellipse fill="none" stroke="black" cx="818" cy="-482" rx="44.39" ry="18"/>
<text text-anchor="middle" x="818" y="-478.3" font-family="Times,serif" font-size="14.00">P74 (a)</text>
</g>
<!-- 21&#45;&gt;6 -->
<g id="edge7" class="edge">
<title>21&#45;&gt;6</title>
<path fill="none" stroke="gray" stroke-dasharray="5,2" d="M1942,-161.81C1942,-153.79 1942,-144.05 1942,-135.07"/>
<polygon fill="gray" stroke="gray" points="1945.5,-135.03 1942,-125.03 1938.5,-135.03 1945.5,-135.03"/>
</g>
<!-- 22 -->
<g id="node24" class="node">
<title>22</title>
<ellipse fill="none" stroke="black" cx="1596" cy="-482" rx="45.49" ry="18"/>
<text text-anchor="middle" x="1596" y="-478.3" font-family="Times,serif" font-size="14.00">Nan (b)</text>
</g>
<!-- 36 -->
<g id="node38" class="node">
<title>36</title>
<ellipse fill="none" stroke="black" cx="1464" cy="-399" rx="50.89" ry="18"/>
<text text-anchor="middle" x="1464" y="-395.3" font-family="Times,serif" font-size="14.00">Neap (b)</text>
</g>
<!-- 22&#45;&gt;36 -->
<g id="edge36" class="edge">
<title>22&#45;&gt;36</title>
<path fill="none" stroke="black" d="M1572.4,-466.52C1551.36,-453.61 1520.35,-434.58 1496.88,-420.17"/>
<polygon fill="black" stroke="black" points="1498.64,-417.15 1488.29,-414.9 1494.98,-423.12 1498.64,-417.15"/>
<text text-anchor="middle" x="1540.5" y="-438" font-family="Times,serif" font-size="10.00">2</text>
</g>
<!-- 37 -->
<g id="node39" class="node">
<title>37</title>
<ellipse fill="none" stroke="black" cx="1589" cy="-399" rx="55.79" ry="18"/>
<text text-anchor="middle" x="1589" y="-395.3" font-family="Times,serif" font-size="14.00">V2250 (b)</text>
</g>
<!-- 22&#45;&gt;37 -->
<g id="edge37" class="edge">
<title>22&#45;&gt;37</title>
<path fill="none" stroke="black" stroke-dasharray="5,2" d="M1594.52,-463.82C1593.6,-453.19 1592.4,-439.31 1591.35,-427.2"/>
<polygon fill="black" stroke="black" points="1594.83,-426.81 1590.48,-417.15 1587.86,-427.42 1594.83,-426.81"/>
</g>
<!-- 39 -->
<g id="node41" class="node">
<title>39</title>
<ellipse fill="none" stroke="black" cx="1719" cy="-399" rx="55.79" ry="18"/>
<text text-anchor="middle" x="1719" y="-395.3" font-family="Times,serif" font-size="14.00">V1897 (b)</text>
</g>
<!-- 22&#45;&gt;39 -->
<g id="edge39" class="edge">
<title>22&#45;&gt;39</title>
<path fill="none" stroke="black" stroke-dasharray="1,5" d="M1618.56,-466.14C1637.7,-453.54 1665.39,-435.31 1686.85,-421.17"/>
<polygon fill="black" stroke="black" points="1688.9,-424.01 1695.33,-415.59 1685.05,-418.17 1688.9,-424.01"/>
</g>
<!-- 23 -->
<g id="node25" class="node">
<title>23</title>
<ellipse fill="none" stroke="black" cx="1667" cy="-326" rx="43.59" ry="18"/>
<text text-anchor="middle" x="1667" y="-322.3" font-family="Times,serif" font-size="14.00">Bas (b)</text>
</g>
<!-- 24&#45;&gt;4 -->
<g id="edge5" class="edge">
<title>24&#45;&gt;4</title>
<path fill="none" stroke="black" stroke-dasharray="5,2" d="M712.97,-552.75C705.73,-550.68 698.15,-548.66 691,-547 631.25,-533.13 478.78,-513.73 419,-500 414.97,-499.07 410.8,-498.04 406.64,-496.95"/>
<polygon fill="black" stroke="black" points="407.54,-493.57 396.98,-494.32 405.71,-500.32 407.54,-493.57"/>
</g>
<!-- 24&#45;&gt;5 -->
<g id="edge6" class="edge">
<title>24&#45;&gt;5</title>
<path fill="none" stroke="black" stroke-dasharray="1,5" d="M712.32,-553.08C663.55,-538.55 577.31,-512.87 523.87,-496.96"/>
<polygon fill="black" stroke="black" points="524.55,-493.51 513.97,-494.01 522.56,-500.22 524.55,-493.51"/>
</g>
<!-- 24&#45;&gt;11 -->
<g id="edge11" class="edge">
<title>24&#45;&gt;11</title>
<path fill="none" stroke="black" stroke-dasharray="5,2" d="M721.48,-549.89C695.23,-536.43 655.55,-516.09 626.85,-501.38"/>
<polygon fill="black" stroke="black" points="628.44,-498.26 617.94,-496.81 625.24,-504.49 628.44,-498.26"/>
</g>
<!-- 24&#45;&gt;14 -->
<g id="edge14" class="edge">
<title>24&#45;&gt;14</title>
<path fill="none" stroke="black" stroke-dasharray="5,2" d="M740.09,-547.22C734.21,-536.14 726.39,-521.41 719.72,-508.85"/>
<polygon fill="black" stroke="black" points="722.68,-506.95 714.9,-499.76 716.5,-510.24 722.68,-506.95"/>
</g>
<!-- 24&#45;&gt;20 -->
<g id="edge20" class="edge">
<title>24&#45;&gt;20</title>
<path fill="none" stroke="black" stroke-dasharray="1,5" d="M762.96,-547.61C772.88,-535.97 786.35,-520.16 797.48,-507.09"/>
<polygon fill="black" stroke="black" points="800.24,-509.25 804.06,-499.37 794.91,-504.71 800.24,-509.25"/>
</g>
<!-- 29 -->
<g id="node31" class="node">
<title>29</title>
<ellipse fill="none" stroke="black" cx="933" cy="-482" rx="52.79" ry="18"/>
<text text-anchor="middle" x="933" y="-478.3" font-family="Times,serif" font-size="14.00">M111 (a)</text>
</g>
<!-- 24&#45;&gt;29 -->
<g id="edge29" class="edge">
<title>24&#45;&gt;29</title>
<path fill="none" stroke="black" stroke-dasharray="1,5" d="M779.38,-550.62C810.36,-536.99 858.58,-515.76 892.73,-500.73"/>
<polygon fill="black" stroke="black" points="894.21,-503.9 901.96,-496.67 891.39,-497.49 894.21,-503.9"/>
</g>
<!-- 38 -->
<g id="node40" class="node">
<title>38</title>
<ellipse fill="none" stroke="black" cx="1054" cy="-482" rx="50.09" ry="18"/>
<text text-anchor="middle" x="1054" y="-478.3" font-family="Times,serif" font-size="14.00">V571 (a)</text>
</g>
<!-- 24&#45;&gt;38 -->
<g id="edge38" class="edge">
<title>24&#45;&gt;38</title>
<path fill="none" stroke="black" stroke-dasharray="1,5" d="M788.28,-554.12C836.91,-541.8 922.22,-519.95 995,-500 998.77,-498.97 1002.66,-497.88 1006.58,-496.78"/>
<polygon fill="black" stroke="black" points="1007.61,-500.13 1016.27,-494.03 1005.7,-493.39 1007.61,-500.13"/>
</g>
<!-- 25&#45;&gt;0 -->
<g id="edge1" class="edge">
<title>25&#45;&gt;0</title>
<path fill="none" stroke="black" stroke-dasharray="5,2" d="M1453.32,-555.96C1400.2,-544.67 1301.8,-522.95 1219,-500 1215.64,-499.07 1212.17,-498.06 1208.7,-497.02"/>
<polygon fill="black" stroke="black" points="1209.54,-493.62 1198.96,-494.02 1207.48,-500.31 1209.54,-493.62"/>
</g>
<!-- 25&#45;&gt;3 -->
<g id="edge4" class="edge">
<title>25&#45;&gt;3</title>
<path fill="none" stroke="black" stroke-dasharray="5,2" d="M1460.01,-552.22C1421.2,-537.93 1355.71,-513.82 1313.17,-498.16"/>
<polygon fill="black" stroke="black" points="1314.27,-494.83 1303.67,-494.66 1311.85,-501.4 1314.27,-494.83"/>
</g>
<!-- 25&#45;&gt;13 -->
<g id="edge13" class="edge">
<title>25&#45;&gt;13</title>
<path fill="none" stroke="black" stroke-dasharray="5,2" d="M1471.94,-548.95C1455.33,-536.5 1431.51,-518.63 1412.85,-504.64"/>
<polygon fill="black" stroke="black" points="1414.79,-501.72 1404.69,-498.52 1410.59,-507.32 1414.79,-501.72"/>
</g>
<!-- 25&#45;&gt;17 -->
<g id="edge17" class="edge">
<title>25&#45;&gt;17</title>
<path fill="none" stroke="black" stroke-dasharray="5,2" d="M1492,-546.82C1492,-536.19 1492,-522.31 1492,-510.2"/>
<polygon fill="black" stroke="black" points="1495.5,-510.15 1492,-500.15 1488.5,-510.15 1495.5,-510.15"/>
</g>
<!-- 25&#45;&gt;22 -->
<g id="edge22" class="edge">
<title>25&#45;&gt;22</title>
<path fill="none" stroke="black" stroke-dasharray="5,2" d="M1511.56,-548.76C1527.44,-536.4 1550.04,-518.8 1567.86,-504.92"/>
<polygon fill="black" stroke="black" points="1570.43,-507.35 1576.17,-498.44 1566.13,-501.83 1570.43,-507.35"/>
<text text-anchor="middle" x="1553.5" y="-521" font-family="Times,serif" font-size="10.00">2</text>
</g>
<!-- 26 -->
<g id="node28" class="node">
<title>26</title>
<ellipse fill="none" stroke="black" cx="1703" cy="-482" rx="43.59" ry="18"/>
<text text-anchor="middle" x="1703" y="-478.3" font-family="Times,serif" font-size="14.00">La2 (b)</text>
</g>
<!-- 25&#45;&gt;26 -->
<g id="edge26" class="edge">
<title>25&#45;&gt;26</title>
<path fill="none" stroke="black" d="M1523.13,-552.05C1560.17,-537.83 1622.09,-514.06 1662.74,-498.46"/>
<polygon fill="black" stroke="black" points="1664,-501.72 1672.08,-494.87 1661.49,-495.19 1664,-501.72"/>
<text text-anchor="middle" x="1613.5" y="-521" font-family="Times,serif" font-size="10.00">3</text>
</g>
<!-- 28 -->
<g id="node30" class="node">
<title>28</title>
<ellipse fill="none" stroke="black" cx="1815" cy="-482" rx="50.09" ry="18"/>
<text text-anchor="middle" x="1815" y="-478.3" font-family="Times,serif" font-size="14.00">S249 (b)</text>
</g>
<!-- 25&#45;&gt;28 -->
<g id="edge28" class="edge">
<title>25&#45;&gt;28</title>
<path fill="none" stroke="black" stroke-dasharray="5,2" d="M1525.94,-553.27C1533.19,-551.09 1540.83,-548.9 1548,-547 1639.63,-522.77 1664.2,-523.57 1756,-500 1759.84,-499.01 1763.81,-497.96 1767.79,-496.87"/>
<polygon fill="black" stroke="black" points="1768.94,-500.18 1777.64,-494.12 1767.06,-493.44 1768.94,-500.18"/>
<text text-anchor="middle" x="1679.5" y="-521" font-family="Times,serif" font-size="10.00">2</text>
</g>
<!-- 42 -->
<g id="node44" class="node">
<title>42</title>
<ellipse fill="none" stroke="black" cx="1933" cy="-482" rx="50.09" ry="18"/>
<text text-anchor="middle" x="1933" y="-478.3" font-family="Times,serif" font-size="14.00">Patm (b)</text>
</g>
<!-- 25&#45;&gt;42 -->
<g id="edge42" class="edge">
<title>25&#45;&gt;42</title>
<path fill="none" stroke="black" stroke-dasharray="1,5" d="M1525.22,-552.92C1532.66,-550.72 1540.55,-548.6 1548,-547 1608.9,-533.91 1625.33,-537.77 1687,-529 1770.27,-517.15 1791.87,-518.12 1874,-500 1878.1,-499.1 1882.33,-498.07 1886.56,-496.97"/>
<polygon fill="black" stroke="black" points="1887.62,-500.32 1896.36,-494.34 1885.79,-493.56 1887.62,-500.32"/>
</g>
<!-- 27 -->
<g id="node29" class="node">
<title>27</title>
<ellipse fill="none" stroke="black" cx="1771" cy="-326" rx="42.49" ry="18"/>
<text text-anchor="middle" x="1771" y="-322.3" font-family="Times,serif" font-size="14.00">Est (b)</text>
</g>
<!-- 29&#45;&gt;16 -->
<g id="edge16" class="edge">
<title>29&#45;&gt;16</title>
<path fill="none" stroke="black" stroke-dasharray="5,2" d="M933,-463.82C933,-453.19 933,-439.31 933,-427.2"/>
<polygon fill="black" stroke="black" points="936.5,-427.15 933,-417.15 929.5,-427.15 936.5,-427.15"/>
</g>
<!-- 41 -->
<g id="node43" class="node">
<title>41</title>
<ellipse fill="none" stroke="black" cx="2054" cy="-326" rx="50.09" ry="18"/>
<text text-anchor="middle" x="2054" y="-322.3" font-family="Times,serif" font-size="14.00">V568 (a)</text>
</g>
<!-- 30&#45;&gt;41 -->
<g id="edge41" class="edge">
<title>30&#45;&gt;41</title>
<path fill="none" stroke="black" stroke-dasharray="1,5" d="M2060.82,-380.81C2059.8,-372.79 2058.57,-363.05 2057.43,-354.07"/>
<polygon fill="black" stroke="black" points="2060.89,-353.51 2056.16,-344.03 2053.94,-354.39 2060.89,-353.51"/>
</g>
<!-- 32&#45;&gt;12 -->
<g id="edge12" class="edge">
<title>32&#45;&gt;12</title>
<path fill="none" stroke="black" stroke-dasharray="5,2" d="M1657.9,-557.39C1730.52,-547.04 1872.66,-525.55 1992,-500 1996.61,-499.01 2001.37,-497.92 2006.14,-496.77"/>
<polygon fill="black" stroke="black" points="2007.01,-500.16 2015.87,-494.35 2005.32,-493.36 2007.01,-500.16"/>
<text text-anchor="middle" x="1901.5" y="-521" font-family="Times,serif" font-size="10.00">2</text>
</g>
<!-- 39&#45;&gt;23 -->
<g id="edge23" class="edge">
<title>39&#45;&gt;23</title>
<path fill="none" stroke="black" d="M1706.68,-381.17C1700.27,-372.42 1692.3,-361.55 1685.2,-351.85"/>
<polygon fill="black" stroke="black" points="1687.97,-349.7 1679.23,-343.71 1682.32,-353.84 1687.97,-349.7"/>
</g>
<!-- 39&#45;&gt;27 -->
<g id="edge27" class="edge">
<title>39&#45;&gt;27</title>
<path fill="none" stroke="black" stroke-dasharray="1,5" d="M1731.32,-381.17C1737.73,-372.42 1745.7,-361.55 1752.8,-351.85"/>
<polygon fill="black" stroke="black" points="1755.68,-353.84 1758.77,-343.71 1750.03,-349.7 1755.68,-353.84"/>
</g>
<!-- 40&#45;&gt;19 -->
<g id="edge19" class="edge">
<title>40&#45;&gt;19</title>
<path fill="none" stroke="black" stroke-dasharray="1,5" d="M2063,-161.81C2063,-153.79 2063,-144.05 2063,-135.07"/>
<polygon fill="black" stroke="black" points="2066.5,-135.03 2063,-125.03 2059.5,-135.03 2066.5,-135.03"/>
</g>
<!-- 41&#45;&gt;2 -->
<g id="edge3" class="edge">
<title>41&#45;&gt;2</title>
<path fill="none" stroke="black" stroke-dasharray="1,5" d="M2038.23,-308.53C2029.47,-299.39 2018.43,-287.86 2008.76,-277.76"/>
<polygon fill="black" stroke="black" points="2011.13,-275.18 2001.69,-270.38 2006.08,-280.02 2011.13,-275.18"/>
</g>
<!-- 42&#45;&gt;1 -->
<g id="edge2" class="edge">
<title>42&#45;&gt;1</title>
<path fill="none" stroke="black" stroke-dasharray="1,5" d="M1916.4,-465C1904.06,-453.09 1887.02,-436.67 1873.17,-423.31"/>
<polygon fill="black" stroke="black" points="1875.48,-420.67 1865.85,-416.25 1870.62,-425.71 1875.48,-420.67"/>
<text text-anchor="middle" x="1899.5" y="-438" font-family="Times,serif" font-size="10.00">2</text>
</g>
</g>
</svg>
