<?xml version="1.0" encoding="UTF-8" standalone="no"?>
<!DOCTYPE svg PUBLIC "-//W3C//DTD SVG 1.1//EN"
 "http://www.w3.org/Graphics/SVG/1.1/DTD/svg11.dtd">
<!-- Generated by graphviz version 2.43.0 (0)
 -->
<!-- Title: textual_flow Pages: 1 -->
<svg width="1907pt" height="566pt"
 viewBox="0.00 0.00 1907.00 566.00" xmlns="http://www.w3.org/2000/svg" xmlns:xlink="http://www.w3.org/1999/xlink">
<g id="graph0" class="graph" transform="scale(1 1) rotate(0) translate(4 562)">
<title>textual_flow</title>
<polygon fill="white" stroke="transparent" points="-4,4 -4,-562 1903,-562 1903,4 -4,4"/>
<g id="clust1" class="cluster">
<title>cluster_legend</title>
<polygon fill="none" stroke="black" points="8,-496 8,-550 164,-550 164,-496 8,-496"/>
</g>
<g id="clust2" class="cluster">
<title>cluster_plot</title>
</g>
<!-- label -->
<g id="node1" class="node">
<title>label</title>
<text text-anchor="middle" x="86" y="-526.8" font-family="Times,serif" font-size="14.00">adstag1.3.40U56</text>
<text text-anchor="middle" x="86" y="-511.8" font-family="Times,serif" font-size="14.00">Con = 10</text>
</g>
<!-- 0 -->
<g id="node2" class="node">
<title>0</title>
<ellipse fill="none" stroke="black" cx="807" cy="-523" rx="53.89" ry="18"/>
<text text-anchor="middle" x="807" y="-519.3" font-family="Times,serif" font-size="14.00">aBase (a)</text>
</g>
<!-- 2 -->
<g id="node4" class="node">
<title>2</title>
<ellipse fill="none" stroke="black" cx="236" cy="-439" rx="55.79" ry="18"/>
<text text-anchor="middle" x="236" y="-435.3" font-family="Times,serif" font-size="14.00">V2036 (a)</text>
</g>
<!-- 0&#45;&gt;2 -->
<g id="edge2" class="edge">
<title>0&#45;&gt;2</title>
<path fill="none" stroke="black" d="M754.85,-517.94C662.6,-510.18 464.92,-490.92 301,-457 296.32,-456.03 291.47,-454.94 286.63,-453.78"/>
<polygon fill="black" stroke="black" points="287.31,-450.35 276.76,-451.35 285.63,-457.14 287.31,-450.35"/>
</g>
<!-- 3 -->
<g id="node5" class="node">
<title>3</title>
<ellipse fill="none" stroke="black" cx="355" cy="-439" rx="44.69" ry="18"/>
<text text-anchor="middle" x="355" y="-435.3" font-family="Times,serif" font-size="14.00">Nan (a)</text>
</g>
<!-- 0&#45;&gt;3 -->
<g id="edge3" class="edge">
<title>0&#45;&gt;3</title>
<path fill="none" stroke="black" d="M756.76,-516.25C680.65,-507 531.85,-486.78 408,-457 404.61,-456.18 401.12,-455.26 397.63,-454.28"/>
<polygon fill="black" stroke="black" points="398.45,-450.87 387.86,-451.38 396.45,-457.58 398.45,-450.87"/>
</g>
<!-- 10 -->
<g id="node12" class="node">
<title>10</title>
<ellipse fill="none" stroke="black" cx="470" cy="-439" rx="52.79" ry="18"/>
<text text-anchor="middle" x="470" y="-435.3" font-family="Times,serif" font-size="14.00">M136 (a)</text>
</g>
<!-- 0&#45;&gt;10 -->
<g id="edge10" class="edge">
<title>0&#45;&gt;10</title>
<path fill="none" stroke="black" stroke-width="2" d="M763.54,-512.23C709.24,-499.91 613.52,-477.8 532,-457 527.86,-455.94 523.58,-454.82 519.28,-453.68"/>
<polygon fill="black" stroke="black" stroke-width="2" points="519.87,-450.22 509.3,-451 518.05,-456.98 519.87,-450.22"/>
</g>
<!-- 11 -->
<g id="node13" class="node">
<title>11</title>
<ellipse fill="none" stroke="gray" stroke-dasharray="5,2" cx="591" cy="-439" rx="50.09" ry="18"/>
<text text-anchor="middle" x="591" y="-435.3" font-family="Times,serif" font-size="14.00">Savile&#45;Η</text>
</g>
<!-- 0&#45;&gt;11 -->
<g id="edge11" class="edge">
<title>0&#45;&gt;11</title>
<path fill="none" stroke="gray" stroke-width="2" d="M772.77,-509.01C735.11,-494.71 674.52,-471.71 633.75,-456.23"/>
<polygon fill="gray" stroke="gray" stroke-width="2" points="634.95,-452.94 624.36,-452.66 632.46,-459.48 634.95,-452.94"/>
</g>
<!-- 14 -->
<g id="node16" class="node">
<title>14</title>
<ellipse fill="none" stroke="black" cx="702" cy="-439" rx="42.79" ry="18"/>
<text text-anchor="middle" x="702" y="-435.3" font-family="Times,serif" font-size="14.00">La2 (a)</text>
</g>
<!-- 0&#45;&gt;14 -->
<g id="edge14" class="edge">
<title>0&#45;&gt;14</title>
<path fill="none" stroke="black" stroke-width="2" d="M786.75,-506.19C770.57,-493.55 747.71,-475.7 729.81,-461.72"/>
<polygon fill="black" stroke="black" stroke-width="2" points="731.51,-458.6 721.47,-455.21 727.2,-464.12 731.51,-458.6"/>
</g>
<!-- 15 -->
<g id="node17" class="node">
<title>15</title>
<ellipse fill="none" stroke="black" cx="807" cy="-439" rx="44.39" ry="18"/>
<text text-anchor="middle" x="807" y="-435.3" font-family="Times,serif" font-size="14.00">A25 (a)</text>
</g>
<!-- 0&#45;&gt;15 -->
<g id="edge15" class="edge">
<title>0&#45;&gt;15</title>
<path fill="none" stroke="black" stroke-dasharray="5,2" d="M807,-504.61C807,-493.77 807,-479.6 807,-467.29"/>
<polygon fill="black" stroke="black" points="810.5,-467.08 807,-457.08 803.5,-467.08 810.5,-467.08"/>
</g>
<!-- 23 -->
<g id="node25" class="node">
<title>23</title>
<ellipse fill="none" stroke="black" cx="919" cy="-439" rx="50.09" ry="18"/>
<text text-anchor="middle" x="919" y="-435.3" font-family="Times,serif" font-size="14.00">Patm (a)</text>
</g>
<!-- 0&#45;&gt;23 -->
<g id="edge23" class="edge">
<title>0&#45;&gt;23</title>
<path fill="none" stroke="black" d="M828.33,-506.38C845.69,-493.67 870.38,-475.6 889.61,-461.52"/>
<polygon fill="black" stroke="black" points="891.75,-464.29 897.75,-455.56 887.61,-458.64 891.75,-464.29"/>
</g>
<!-- 24 -->
<g id="node26" class="node">
<title>24</title>
<ellipse fill="none" stroke="black" cx="1043" cy="-439" rx="55.79" ry="18"/>
<text text-anchor="middle" x="1043" y="-435.3" font-family="Times,serif" font-size="14.00">V1920 (a)</text>
</g>
<!-- 0&#45;&gt;24 -->
<g id="edge24" class="edge">
<title>0&#45;&gt;24</title>
<path fill="none" stroke="black" stroke-width="2" d="M842.84,-509.55C884.05,-495.23 951.79,-471.69 996.89,-456.02"/>
<polygon fill="black" stroke="black" stroke-width="2" points="998.13,-459.29 1006.43,-452.71 995.84,-452.68 998.13,-459.29"/>
<text text-anchor="middle" x="942.5" y="-478" font-family="Times,serif" font-size="10.00">2</text>
</g>
<!-- 25 -->
<g id="node27" class="node">
<title>25</title>
<ellipse fill="none" stroke="black" cx="1170" cy="-439" rx="52.79" ry="18"/>
<text text-anchor="middle" x="1170" y="-435.3" font-family="Times,serif" font-size="14.00">LaSM (a)</text>
</g>
<!-- 0&#45;&gt;25 -->
<g id="edge25" class="edge">
<title>0&#45;&gt;25</title>
<path fill="none" stroke="black" d="M852.05,-513.08C911.06,-501.2 1017.65,-479.13 1108,-457 1112.15,-455.98 1116.44,-454.89 1120.74,-453.77"/>
<polygon fill="black" stroke="black" points="1121.96,-457.07 1130.73,-451.12 1120.16,-450.3 1121.96,-457.07"/>
</g>
<!-- 30 -->
<g id="node32" class="node">
<title>30</title>
<ellipse fill="none" stroke="black" cx="1291" cy="-439" rx="50.09" ry="18"/>
<text text-anchor="middle" x="1291" y="-435.3" font-family="Times,serif" font-size="14.00">Neap (a)</text>
</g>
<!-- 0&#45;&gt;30 -->
<g id="edge30" class="edge">
<title>0&#45;&gt;30</title>
<path fill="none" stroke="black" stroke-width="2" d="M857.44,-516.42C937.42,-507.09 1098.04,-486.42 1232,-457 1236.1,-456.1 1240.33,-455.07 1244.56,-453.98"/>
<polygon fill="black" stroke="black" stroke-width="2" points="1245.62,-457.33 1254.36,-451.35 1243.8,-450.57 1245.62,-457.33"/>
</g>
<!-- 38 -->
<g id="node40" class="node">
<title>38</title>
<ellipse fill="none" stroke="black" cx="1444" cy="-439" rx="48.99" ry="18"/>
<text text-anchor="middle" x="1444" y="-435.3" font-family="Times,serif" font-size="14.00">La22 (a)</text>
</g>
<!-- 0&#45;&gt;38 -->
<g id="edge38" class="edge">
<title>0&#45;&gt;38</title>
<path fill="none" stroke="black" stroke-dasharray="5,2" d="M858.05,-516.98C954.45,-507.26 1169.78,-484.39 1350,-457 1363.59,-454.93 1378.23,-452.42 1391.82,-449.97"/>
<polygon fill="black" stroke="black" points="1392.76,-453.36 1401.97,-448.12 1391.5,-446.47 1392.76,-453.36"/>
</g>
<!-- 1 -->
<g id="node3" class="node">
<title>1</title>
<ellipse fill="none" stroke="black" cx="482" cy="-356" rx="44.39" ry="18"/>
<text text-anchor="middle" x="482" y="-352.3" font-family="Times,serif" font-size="14.00">P01 (a)</text>
</g>
<!-- 12 -->
<g id="node14" class="node">
<title>12</title>
<ellipse fill="none" stroke="black" cx="235" cy="-356" rx="55.49" ry="18"/>
<text text-anchor="middle" x="235" y="-352.3" font-family="Times,serif" font-size="14.00">V2250 (c)</text>
</g>
<!-- 3&#45;&gt;12 -->
<g id="edge12" class="edge">
<title>3&#45;&gt;12</title>
<path fill="none" stroke="blue" stroke-dasharray="5,2" d="M332.99,-423.14C314.4,-410.59 287.54,-392.47 266.65,-378.36"/>
<polygon fill="blue" stroke="blue" points="268.34,-375.28 258.1,-372.59 264.43,-381.09 268.34,-375.28"/>
</g>
<!-- 37 -->
<g id="node39" class="node">
<title>37</title>
<ellipse fill="none" stroke="black" cx="364" cy="-356" rx="55.79" ry="18"/>
<text text-anchor="middle" x="364" y="-352.3" font-family="Times,serif" font-size="14.00">V1897 (a)</text>
</g>
<!-- 3&#45;&gt;37 -->
<g id="edge37" class="edge">
<title>3&#45;&gt;37</title>
<path fill="none" stroke="black" stroke-dasharray="1,5" d="M356.91,-420.82C358.09,-410.19 359.63,-396.31 360.98,-384.2"/>
<polygon fill="black" stroke="black" points="364.47,-384.48 362.09,-374.15 357.51,-383.71 364.47,-384.48"/>
</g>
<!-- 4 -->
<g id="node6" class="node">
<title>4</title>
<ellipse fill="none" stroke="black" cx="1134" cy="-356" rx="44.39" ry="18"/>
<text text-anchor="middle" x="1134" y="-352.3" font-family="Times,serif" font-size="14.00">P74 (a)</text>
</g>
<!-- 5 -->
<g id="node7" class="node">
<title>5</title>
<ellipse fill="none" stroke="black" cx="499" cy="-273" rx="55.79" ry="18"/>
<text text-anchor="middle" x="499" y="-269.3" font-family="Times,serif" font-size="14.00">V1629 (b)</text>
</g>
<!-- 17 -->
<g id="node19" class="node">
<title>17</title>
<ellipse fill="none" stroke="gray" stroke-dasharray="5,2" cx="447" cy="-190" rx="36" ry="18"/>
<text text-anchor="middle" x="447" y="-186.3" font-family="Times,serif" font-size="14.00">La2&#45;c</text>
</g>
<!-- 5&#45;&gt;17 -->
<g id="edge17" class="edge">
<title>5&#45;&gt;17</title>
<path fill="none" stroke="gray" stroke-width="2" d="M488.23,-255.22C481,-243.96 471.34,-228.92 463.19,-216.22"/>
<polygon fill="gray" stroke="gray" stroke-width="2" points="465.93,-214.01 457.58,-207.48 460.04,-217.79 465.93,-214.01"/>
</g>
<!-- 26 -->
<g id="node28" class="node">
<title>26</title>
<ellipse fill="none" stroke="black" cx="551" cy="-190" rx="50.09" ry="18"/>
<text text-anchor="middle" x="551" y="-186.3" font-family="Times,serif" font-size="14.00">V536 (b)</text>
</g>
<!-- 5&#45;&gt;26 -->
<g id="edge26" class="edge">
<title>5&#45;&gt;26</title>
<path fill="none" stroke="black" stroke-dasharray="5,2" d="M509.77,-255.22C516.96,-244.03 526.53,-229.12 534.64,-216.48"/>
<polygon fill="black" stroke="black" points="537.78,-218.07 540.24,-207.76 531.89,-214.29 537.78,-218.07"/>
</g>
<!-- 6 -->
<g id="node8" class="node">
<title>6</title>
<ellipse fill="none" stroke="black" cx="551" cy="-34" rx="50.09" ry="18"/>
<text text-anchor="middle" x="551" y="-30.3" font-family="Times,serif" font-size="14.00">V569 (b)</text>
</g>
<!-- 7 -->
<g id="node9" class="node">
<title>7</title>
<ellipse fill="none" stroke="black" cx="588" cy="-356" rx="44.39" ry="18"/>
<text text-anchor="middle" x="588" y="-352.3" font-family="Times,serif" font-size="14.00">S32 (a)</text>
</g>
<!-- 8 -->
<g id="node10" class="node">
<title>8</title>
<ellipse fill="none" stroke="black" cx="364" cy="-273" rx="42.79" ry="18"/>
<text text-anchor="middle" x="364" y="-269.3" font-family="Times,serif" font-size="14.00">Bas (a)</text>
</g>
<!-- 9 -->
<g id="node11" class="node">
<title>9</title>
<ellipse fill="none" stroke="black" cx="994" cy="-190" rx="46.29" ry="18"/>
<text text-anchor="middle" x="994" y="-186.3" font-family="Times,serif" font-size="14.00">Mon (a)</text>
</g>
<!-- 18 -->
<g id="node20" class="node">
<title>18</title>
<ellipse fill="none" stroke="black" cx="994" cy="-107" rx="40.89" ry="18"/>
<text text-anchor="middle" x="994" y="-103.3" font-family="Times,serif" font-size="14.00">Sin (a)</text>
</g>
<!-- 9&#45;&gt;18 -->
<g id="edge18" class="edge">
<title>9&#45;&gt;18</title>
<path fill="none" stroke="black" stroke-dasharray="1,5" d="M994,-171.82C994,-161.19 994,-147.31 994,-135.2"/>
<polygon fill="black" stroke="black" points="997.5,-135.15 994,-125.15 990.5,-135.15 997.5,-135.15"/>
</g>
<!-- 13 -->
<g id="node15" class="node">
<title>13</title>
<ellipse fill="none" stroke="black" cx="1245" cy="-356" rx="48.99" ry="18"/>
<text text-anchor="middle" x="1245" y="-352.3" font-family="Times,serif" font-size="14.00">La35 (a)</text>
</g>
<!-- 15&#45;&gt;1 -->
<g id="edge1" class="edge">
<title>15&#45;&gt;1</title>
<path fill="none" stroke="black" stroke-dasharray="5,2" d="M774.07,-426.88C767.46,-424.81 760.54,-422.74 754,-421 657.82,-395.32 631.18,-399.68 535,-374 531.63,-373.1 528.16,-372.12 524.68,-371.09"/>
<polygon fill="black" stroke="black" points="525.52,-367.69 514.93,-368.12 523.47,-374.38 525.52,-367.69"/>
</g>
<!-- 15&#45;&gt;7 -->
<g id="edge7" class="edge">
<title>15&#45;&gt;7</title>
<path fill="none" stroke="black" stroke-dasharray="5,2" d="M775.16,-426.22C736.53,-411.93 671.33,-387.82 628.98,-372.16"/>
<polygon fill="black" stroke="black" points="630.12,-368.85 619.53,-368.66 627.69,-375.41 630.12,-368.85"/>
</g>
<!-- 19 -->
<g id="node21" class="node">
<title>19</title>
<ellipse fill="none" stroke="black" cx="700" cy="-356" rx="50.09" ry="18"/>
<text text-anchor="middle" x="700" y="-352.3" font-family="Times,serif" font-size="14.00">V566 (b)</text>
</g>
<!-- 15&#45;&gt;19 -->
<g id="edge19" class="edge">
<title>15&#45;&gt;19</title>
<path fill="none" stroke="blue" stroke-dasharray="5,2" d="M786.87,-422.76C770.39,-410.29 746.87,-392.48 728.46,-378.54"/>
<polygon fill="blue" stroke="blue" points="730.49,-375.69 720.4,-372.44 726.26,-381.27 730.49,-375.69"/>
</g>
<!-- 21 -->
<g id="node23" class="node">
<title>21</title>
<ellipse fill="none" stroke="black" cx="808" cy="-356" rx="40.09" ry="18"/>
<text text-anchor="middle" x="808" y="-352.3" font-family="Times,serif" font-size="14.00">Pal (a)</text>
</g>
<!-- 15&#45;&gt;21 -->
<g id="edge21" class="edge">
<title>15&#45;&gt;21</title>
<path fill="none" stroke="black" stroke-dasharray="5,2" d="M807.21,-420.82C807.34,-410.19 807.51,-396.31 807.66,-384.2"/>
<polygon fill="black" stroke="black" points="811.16,-384.2 807.79,-374.15 804.16,-384.11 811.16,-384.2"/>
</g>
<!-- 16 -->
<g id="node18" class="node">
<title>16</title>
<ellipse fill="none" stroke="black" cx="1362" cy="-356" rx="50.09" ry="18"/>
<text text-anchor="middle" x="1362" y="-352.3" font-family="Times,serif" font-size="14.00">V571 (a)</text>
</g>
<!-- 19&#45;&gt;5 -->
<g id="edge5" class="edge">
<title>19&#45;&gt;5</title>
<path fill="none" stroke="black" d="M667.71,-341.99C633.68,-328.27 579.91,-306.61 542.24,-291.43"/>
<polygon fill="black" stroke="black" points="543.14,-288.01 532.55,-287.52 540.52,-294.51 543.14,-288.01"/>
<text text-anchor="middle" x="614.5" y="-312" font-family="Times,serif" font-size="10.00">6</text>
</g>
<!-- 29 -->
<g id="node31" class="node">
<title>29</title>
<ellipse fill="none" stroke="black" cx="623" cy="-273" rx="50.09" ry="18"/>
<text text-anchor="middle" x="623" y="-269.3" font-family="Times,serif" font-size="14.00">V560 (b)</text>
</g>
<!-- 19&#45;&gt;29 -->
<g id="edge29" class="edge">
<title>19&#45;&gt;29</title>
<path fill="none" stroke="black" stroke-width="2" d="M684.42,-338.61C673.25,-326.86 658.04,-310.86 645.55,-297.72"/>
<polygon fill="black" stroke="black" stroke-width="2" points="647.99,-295.2 638.56,-290.37 642.91,-300.03 647.99,-295.2"/>
<text text-anchor="middle" x="669.5" y="-312" font-family="Times,serif" font-size="10.00">6</text>
</g>
<!-- 32 -->
<g id="node34" class="node">
<title>32</title>
<ellipse fill="none" stroke="black" cx="741" cy="-273" rx="50.09" ry="18"/>
<text text-anchor="middle" x="741" y="-269.3" font-family="Times,serif" font-size="14.00">S249 (b)</text>
</g>
<!-- 19&#45;&gt;32 -->
<g id="edge32" class="edge">
<title>19&#45;&gt;32</title>
<path fill="none" stroke="black" stroke-dasharray="5,2" d="M708.5,-338.22C714.1,-327.14 721.56,-312.41 727.92,-299.85"/>
<polygon fill="black" stroke="black" points="731.12,-301.26 732.52,-290.76 724.88,-298.1 731.12,-301.26"/>
<text text-anchor="middle" x="725.5" y="-312" font-family="Times,serif" font-size="10.00">5</text>
</g>
<!-- 36 -->
<g id="node38" class="node">
<title>36</title>
<ellipse fill="none" stroke="black" cx="865" cy="-273" rx="55.79" ry="18"/>
<text text-anchor="middle" x="865" y="-269.3" font-family="Times,serif" font-size="14.00">V1639 (b)</text>
</g>
<!-- 19&#45;&gt;36 -->
<g id="edge36" class="edge">
<title>19&#45;&gt;36</title>
<path fill="none" stroke="black" stroke-dasharray="1,5" d="M728.36,-341.08C755.39,-327.81 796.28,-307.74 826.29,-293"/>
<polygon fill="black" stroke="black" points="828.18,-295.97 835.62,-288.42 825.1,-289.69 828.18,-295.97"/>
</g>
<!-- 20 -->
<g id="node22" class="node">
<title>20</title>
<ellipse fill="none" stroke="black" cx="1480" cy="-356" rx="50.09" ry="18"/>
<text text-anchor="middle" x="1480" y="-352.3" font-family="Times,serif" font-size="14.00">V565 (a)</text>
</g>
<!-- 22 -->
<g id="node24" class="node">
<title>22</title>
<ellipse fill="none" stroke="black" cx="994" cy="-273" rx="50.09" ry="18"/>
<text text-anchor="middle" x="994" y="-269.3" font-family="Times,serif" font-size="14.00">Marc (a)</text>
</g>
<!-- 22&#45;&gt;9 -->
<g id="edge9" class="edge">
<title>22&#45;&gt;9</title>
<path fill="none" stroke="black" stroke-dasharray="1,5" d="M994,-254.82C994,-244.19 994,-230.31 994,-218.2"/>
<polygon fill="black" stroke="black" points="997.5,-218.15 994,-208.15 990.5,-218.15 997.5,-218.15"/>
</g>
<!-- 42 -->
<g id="node44" class="node">
<title>42</title>
<ellipse fill="none" stroke="black" cx="910" cy="-356" rx="44.39" ry="18"/>
<text text-anchor="middle" x="910" y="-352.3" font-family="Times,serif" font-size="14.00">B39 (a)</text>
</g>
<!-- 25&#45;&gt;42 -->
<g id="edge42" class="edge">
<title>25&#45;&gt;42</title>
<path fill="none" stroke="black" stroke-dasharray="5,2" d="M1132.19,-426.44C1090.66,-413.71 1022.02,-392.59 963,-374 959.87,-373.01 956.63,-371.99 953.37,-370.95"/>
<polygon fill="black" stroke="black" points="954.22,-367.55 943.63,-367.85 952.09,-374.22 954.22,-367.55"/>
</g>
<!-- 27 -->
<g id="node29" class="node">
<title>27</title>
<ellipse fill="none" stroke="black" cx="551" cy="-107" rx="47.39" ry="18"/>
<text text-anchor="middle" x="551" y="-103.3" font-family="Times,serif" font-size="14.00">Taur (b)</text>
</g>
<!-- 26&#45;&gt;27 -->
<g id="edge27" class="edge">
<title>26&#45;&gt;27</title>
<path fill="none" stroke="black" stroke-dasharray="1,5" d="M551,-171.82C551,-161.19 551,-147.31 551,-135.2"/>
<polygon fill="black" stroke="black" points="554.5,-135.15 551,-125.15 547.5,-135.15 554.5,-135.15"/>
<text text-anchor="middle" x="554.5" y="-146" font-family="Times,serif" font-size="10.00">2</text>
</g>
<!-- 27&#45;&gt;6 -->
<g id="edge6" class="edge">
<title>27&#45;&gt;6</title>
<path fill="none" stroke="black" stroke-dasharray="5,2" d="M551,-88.81C551,-80.79 551,-71.05 551,-62.07"/>
<polygon fill="black" stroke="black" points="554.5,-62.03 551,-52.03 547.5,-62.03 554.5,-62.03"/>
</g>
<!-- 28 -->
<g id="node30" class="node">
<title>28</title>
<ellipse fill="none" stroke="black" cx="865" cy="-190" rx="42.49" ry="18"/>
<text text-anchor="middle" x="865" y="-186.3" font-family="Times,serif" font-size="14.00">Est (b)</text>
</g>
<!-- 35 -->
<g id="node37" class="node">
<title>35</title>
<ellipse fill="none" stroke="black" cx="1022" cy="-356" rx="50.09" ry="18"/>
<text text-anchor="middle" x="1022" y="-352.3" font-family="Times,serif" font-size="14.00">V568 (a)</text>
</g>
<!-- 30&#45;&gt;35 -->
<g id="edge35" class="edge">
<title>30&#45;&gt;35</title>
<path fill="none" stroke="black" stroke-dasharray="5,2" d="M1253.88,-426.82C1205.68,-412.31 1121.51,-386.96 1068.93,-371.13"/>
<polygon fill="black" stroke="black" points="1069.76,-367.72 1059.17,-368.19 1067.74,-374.43 1069.76,-367.72"/>
<text text-anchor="middle" x="1175.5" y="-395" font-family="Times,serif" font-size="10.00">3</text>
</g>
<!-- 31 -->
<g id="node33" class="node">
<title>31</title>
<ellipse fill="none" stroke="black" cx="1595" cy="-356" rx="46.59" ry="18"/>
<text text-anchor="middle" x="1595" y="-352.3" font-family="Times,serif" font-size="14.00">Bodl (a)</text>
</g>
<!-- 33 -->
<g id="node35" class="node">
<title>33</title>
<ellipse fill="none" stroke="gray" stroke-dasharray="5,2" cx="1115" cy="-190" rx="28.7" ry="18"/>
<text text-anchor="middle" x="1115" y="-186.3" font-family="Times,serif" font-size="14.00">P18</text>
</g>
<!-- 34 -->
<g id="node36" class="node">
<title>34</title>
<ellipse fill="none" stroke="black" cx="1712" cy="-273" rx="50.09" ry="18"/>
<text text-anchor="middle" x="1712" y="-269.3" font-family="Times,serif" font-size="14.00">A336 (a)</text>
</g>
<!-- 35&#45;&gt;22 -->
<g id="edge22" class="edge">
<title>35&#45;&gt;22</title>
<path fill="none" stroke="black" stroke-dasharray="1,5" d="M1014.87,-338.02C1012.57,-332.33 1010.08,-325.93 1008,-320 1005.87,-313.95 1003.76,-307.38 1001.85,-301.15"/>
<polygon fill="black" stroke="black" points="1005.07,-299.72 998.84,-291.15 998.37,-301.74 1005.07,-299.72"/>
<text text-anchor="middle" x="1011.5" y="-312" font-family="Times,serif" font-size="10.00">2</text>
</g>
<!-- 39 -->
<g id="node41" class="node">
<title>39</title>
<ellipse fill="none" stroke="black" cx="1115" cy="-273" rx="52.79" ry="18"/>
<text text-anchor="middle" x="1115" y="-269.3" font-family="Times,serif" font-size="14.00">M118 (a)</text>
</g>
<!-- 35&#45;&gt;39 -->
<g id="edge39" class="edge">
<title>35&#45;&gt;39</title>
<path fill="none" stroke="black" stroke-dasharray="5,2" d="M1040.37,-339C1054.26,-326.9 1073.5,-310.14 1088.97,-296.67"/>
<polygon fill="black" stroke="black" points="1091.42,-299.18 1096.66,-289.97 1086.82,-293.9 1091.42,-299.18"/>
<text text-anchor="middle" x="1077.5" y="-312" font-family="Times,serif" font-size="10.00">2</text>
</g>
<!-- 36&#45;&gt;28 -->
<g id="edge28" class="edge">
<title>36&#45;&gt;28</title>
<path fill="none" stroke="black" stroke-dasharray="5,2" d="M865,-254.82C865,-244.19 865,-230.31 865,-218.2"/>
<polygon fill="black" stroke="black" points="868.5,-218.15 865,-208.15 861.5,-218.15 868.5,-218.15"/>
<text text-anchor="middle" x="868.5" y="-229" font-family="Times,serif" font-size="10.00">5</text>
</g>
<!-- 37&#45;&gt;8 -->
<g id="edge8" class="edge">
<title>37&#45;&gt;8</title>
<path fill="none" stroke="black" d="M364,-337.82C364,-327.19 364,-313.31 364,-301.2"/>
<polygon fill="black" stroke="black" points="367.5,-301.15 364,-291.15 360.5,-301.15 367.5,-301.15"/>
</g>
<!-- 38&#45;&gt;4 -->
<g id="edge4" class="edge">
<title>38&#45;&gt;4</title>
<path fill="none" stroke="black" stroke-dasharray="1,5" d="M1403.72,-428.84C1352.93,-417.1 1263.07,-395.65 1187,-374 1183.69,-373.06 1180.28,-372.05 1176.86,-371.01"/>
<polygon fill="black" stroke="black" points="1177.85,-367.66 1167.26,-368.04 1175.78,-374.34 1177.85,-367.66"/>
</g>
<!-- 38&#45;&gt;13 -->
<g id="edge13" class="edge">
<title>38&#45;&gt;13</title>
<path fill="none" stroke="black" stroke-dasharray="1,5" d="M1412.47,-425.17C1378.26,-411.24 1323.53,-388.96 1286,-373.69"/>
<polygon fill="black" stroke="black" points="1286.97,-370.3 1276.38,-369.77 1284.33,-376.79 1286.97,-370.3"/>
</g>
<!-- 38&#45;&gt;16 -->
<g id="edge16" class="edge">
<title>38&#45;&gt;16</title>
<path fill="none" stroke="black" stroke-dasharray="1,5" d="M1427.8,-422C1415.75,-410.09 1399.12,-393.67 1385.59,-380.31"/>
<polygon fill="black" stroke="black" points="1388.02,-377.78 1378.45,-373.25 1383.1,-382.76 1388.02,-377.78"/>
</g>
<!-- 38&#45;&gt;20 -->
<g id="edge20" class="edge">
<title>38&#45;&gt;20</title>
<path fill="none" stroke="black" stroke-dasharray="5,2" d="M1451.63,-420.82C1456.49,-409.9 1462.87,-395.55 1468.34,-383.22"/>
<polygon fill="black" stroke="black" points="1471.64,-384.44 1472.5,-373.88 1465.24,-381.59 1471.64,-384.44"/>
</g>
<!-- 38&#45;&gt;31 -->
<g id="edge31" class="edge">
<title>38&#45;&gt;31</title>
<path fill="none" stroke="black" stroke-dasharray="5,2" d="M1470.65,-423.71C1495.52,-410.36 1532.79,-390.37 1560.05,-375.75"/>
<polygon fill="black" stroke="black" points="1561.71,-378.83 1568.87,-371.02 1558.4,-372.66 1561.71,-378.83"/>
</g>
<!-- 40 -->
<g id="node42" class="node">
<title>40</title>
<ellipse fill="none" stroke="black" cx="1712" cy="-356" rx="52.79" ry="18"/>
<text text-anchor="middle" x="1712" y="-352.3" font-family="Times,serif" font-size="14.00">M111 (a)</text>
</g>
<!-- 38&#45;&gt;40 -->
<g id="edge40" class="edge">
<title>38&#45;&gt;40</title>
<path fill="none" stroke="black" stroke-dasharray="1,5" d="M1480.42,-426.99C1528.02,-412.61 1611.49,-387.38 1664.15,-371.46"/>
<polygon fill="black" stroke="black" points="1665.37,-374.75 1673.93,-368.51 1663.34,-368.05 1665.37,-374.75"/>
</g>
<!-- 41 -->
<g id="node43" class="node">
<title>41</title>
<ellipse fill="none" stroke="black" cx="1833" cy="-356" rx="50.09" ry="18"/>
<text text-anchor="middle" x="1833" y="-352.3" font-family="Times,serif" font-size="14.00">A116 (a)</text>
</g>
<!-- 38&#45;&gt;41 -->
<g id="edge41" class="edge">
<title>38&#45;&gt;41</title>
<path fill="none" stroke="black" stroke-dasharray="5,2" d="M1487.51,-430.83C1550.89,-420.11 1672.15,-398.5 1774,-374 1778.02,-373.03 1782.18,-371.97 1786.34,-370.86"/>
<polygon fill="black" stroke="black" points="1787.28,-374.23 1796,-368.21 1785.43,-367.48 1787.28,-374.23"/>
</g>
<!-- 39&#45;&gt;33 -->
<g id="edge33" class="edge">
<title>39&#45;&gt;33</title>
<path fill="none" stroke="gray" stroke-dasharray="5,2" d="M1115,-254.82C1115,-244.19 1115,-230.31 1115,-218.2"/>
<polygon fill="gray" stroke="gray" points="1118.5,-218.15 1115,-208.15 1111.5,-218.15 1118.5,-218.15"/>
</g>
<!-- 40&#45;&gt;34 -->
<g id="edge34" class="edge">
<title>40&#45;&gt;34</title>
<path fill="none" stroke="black" stroke-dasharray="5,2" d="M1712,-337.82C1712,-327.19 1712,-313.31 1712,-301.2"/>
<polygon fill="black" stroke="black" points="1715.5,-301.15 1712,-291.15 1708.5,-301.15 1715.5,-301.15"/>
</g>
</g>
</svg>
