<?xml version="1.0" encoding="UTF-8" standalone="no"?>
<!DOCTYPE svg PUBLIC "-//W3C//DTD SVG 1.1//EN"
 "http://www.w3.org/Graphics/SVG/1.1/DTD/svg11.dtd">
<!-- Generated by graphviz version 2.43.0 (0)
 -->
<!-- Title: textual_flow Pages: 1 -->
<svg width="2302pt" height="582pt"
 viewBox="0.00 0.00 2302.00 582.00" xmlns="http://www.w3.org/2000/svg" xmlns:xlink="http://www.w3.org/1999/xlink">
<g id="graph0" class="graph" transform="scale(1 1) rotate(0) translate(4 578)">
<title>textual_flow</title>
<polygon fill="white" stroke="transparent" points="-4,4 -4,-578 2298,-578 2298,4 -4,4"/>
<g id="clust1" class="cluster">
<title>cluster_legend</title>
<polygon fill="none" stroke="black" points="8,-512 8,-566 168,-566 168,-512 8,-512"/>
</g>
<g id="clust2" class="cluster">
<title>cluster_plot</title>
</g>
<!-- label -->
<g id="node1" class="node">
<title>label</title>
<text text-anchor="middle" x="88" y="-542.8" font-family="Times,serif" font-size="14.00">adstag1.3.8U2&#45;18</text>
<text text-anchor="middle" x="88" y="-527.8" font-family="Times,serif" font-size="14.00">Con = 5</text>
</g>
<!-- 0 -->
<g id="node2" class="node">
<title>0</title>
<ellipse fill="none" stroke="black" cx="1279" cy="-394" rx="52.79" ry="18"/>
<text text-anchor="middle" x="1279" y="-390.3" font-family="Times,serif" font-size="14.00">M111 (a)</text>
</g>
<!-- 18 -->
<g id="node20" class="node">
<title>18</title>
<ellipse fill="none" stroke="black" cx="1279" cy="-322" rx="50.09" ry="18"/>
<text text-anchor="middle" x="1279" y="-318.3" font-family="Times,serif" font-size="14.00">A336 (a)</text>
</g>
<!-- 0&#45;&gt;18 -->
<g id="edge19" class="edge">
<title>0&#45;&gt;18</title>
<path fill="none" stroke="black" stroke-dasharray="5,2" d="M1279,-375.7C1279,-367.98 1279,-358.71 1279,-350.11"/>
<polygon fill="black" stroke="black" points="1282.5,-350.1 1279,-340.1 1275.5,-350.1 1282.5,-350.1"/>
</g>
<!-- 1 -->
<g id="node3" class="node">
<title>1</title>
<ellipse fill="none" stroke="black" cx="332" cy="-178" rx="48.19" ry="18"/>
<text text-anchor="middle" x="332" y="-174.3" font-family="Times,serif" font-size="14.00">Marc (f)</text>
</g>
<!-- 28 -->
<g id="node30" class="node">
<title>28</title>
<ellipse fill="none" stroke="black" cx="332" cy="-106" rx="44.39" ry="18"/>
<text text-anchor="middle" x="332" y="-102.3" font-family="Times,serif" font-size="14.00">Mon (f)</text>
</g>
<!-- 1&#45;&gt;28 -->
<g id="edge29" class="edge">
<title>1&#45;&gt;28</title>
<path fill="none" stroke="black" stroke-dasharray="1,5" d="M332,-159.7C332,-151.98 332,-142.71 332,-134.11"/>
<polygon fill="black" stroke="black" points="335.5,-134.1 332,-124.1 328.5,-134.1 335.5,-134.1"/>
</g>
<!-- 2 -->
<g id="node4" class="node">
<title>2</title>
<ellipse fill="none" stroke="black" cx="1400" cy="-394" rx="50.09" ry="18"/>
<text text-anchor="middle" x="1400" y="-390.3" font-family="Times,serif" font-size="14.00">A116 (a)</text>
</g>
<!-- 3 -->
<g id="node5" class="node">
<title>3</title>
<ellipse fill="none" stroke="black" cx="1518" cy="-394" rx="50.09" ry="18"/>
<text text-anchor="middle" x="1518" y="-390.3" font-family="Times,serif" font-size="14.00">V565 (a)</text>
</g>
<!-- 4 -->
<g id="node6" class="node">
<title>4</title>
<ellipse fill="none" stroke="black" cx="332" cy="-34" rx="38.99" ry="18"/>
<text text-anchor="middle" x="332" y="-30.3" font-family="Times,serif" font-size="14.00">Sin (f)</text>
</g>
<!-- 5 -->
<g id="node7" class="node">
<title>5</title>
<ellipse fill="none" stroke="black" cx="242" cy="-466" rx="52.79" ry="18"/>
<text text-anchor="middle" x="242" y="-462.3" font-family="Times,serif" font-size="14.00">LaSM (a)</text>
</g>
<!-- 20 -->
<g id="node22" class="node">
<title>20</title>
<ellipse fill="none" stroke="black" cx="228" cy="-394" rx="44.39" ry="18"/>
<text text-anchor="middle" x="228" y="-390.3" font-family="Times,serif" font-size="14.00">B39 (a)</text>
</g>
<!-- 5&#45;&gt;20 -->
<g id="edge21" class="edge">
<title>5&#45;&gt;20</title>
<path fill="none" stroke="black" stroke-dasharray="5,2" d="M238.54,-447.7C237,-439.98 235.14,-430.71 233.42,-422.11"/>
<polygon fill="black" stroke="black" points="236.81,-421.22 231.42,-412.1 229.95,-422.6 236.81,-421.22"/>
</g>
<!-- 6 -->
<g id="node8" class="node">
<title>6</title>
<ellipse fill="none" stroke="black" cx="1642" cy="-394" rx="55.79" ry="18"/>
<text text-anchor="middle" x="1642" y="-390.3" font-family="Times,serif" font-size="14.00">V2036 (e)</text>
</g>
<!-- 7 -->
<g id="node9" class="node">
<title>7</title>
<ellipse fill="none" stroke="black" cx="1760" cy="-394" rx="44.39" ry="18"/>
<text text-anchor="middle" x="1760" y="-390.3" font-family="Times,serif" font-size="14.00">P74 (a)</text>
</g>
<!-- 8 -->
<g id="node10" class="node">
<title>8</title>
<ellipse fill="none" stroke="black" cx="470" cy="-394" rx="50.09" ry="18"/>
<text text-anchor="middle" x="470" y="-390.3" font-family="Times,serif" font-size="14.00">V566 (a)</text>
</g>
<!-- 12 -->
<g id="node14" class="node">
<title>12</title>
<ellipse fill="none" stroke="black" cx="569" cy="-322" rx="55.49" ry="18"/>
<text text-anchor="middle" x="569" y="-318.3" font-family="Times,serif" font-size="14.00">V1639 (c)</text>
</g>
<!-- 8&#45;&gt;12 -->
<g id="edge13" class="edge">
<title>8&#45;&gt;12</title>
<path fill="none" stroke="blue" stroke-dasharray="1,5" d="M491.97,-377.46C505.59,-367.84 523.29,-355.32 538.28,-344.72"/>
<polygon fill="blue" stroke="blue" points="540.6,-347.37 546.75,-338.73 536.56,-341.65 540.6,-347.37"/>
</g>
<!-- 9 -->
<g id="node11" class="node">
<title>9</title>
<ellipse fill="none" stroke="gray" stroke-dasharray="5,2" cx="232" cy="-322" rx="36" ry="18"/>
<text text-anchor="middle" x="232" y="-318.3" font-family="Times,serif" font-size="14.00">La2&#45;c</text>
</g>
<!-- 10 -->
<g id="node12" class="node">
<title>10</title>
<ellipse fill="none" stroke="black" cx="372" cy="-466" rx="50.09" ry="18"/>
<text text-anchor="middle" x="372" y="-462.3" font-family="Times,serif" font-size="14.00">Neap (a)</text>
</g>
<!-- 24 -->
<g id="node26" class="node">
<title>24</title>
<ellipse fill="none" stroke="black" cx="346" cy="-394" rx="55.79" ry="18"/>
<text text-anchor="middle" x="346" y="-390.3" font-family="Times,serif" font-size="14.00">V1629 (a)</text>
</g>
<!-- 10&#45;&gt;24 -->
<g id="edge25" class="edge">
<title>10&#45;&gt;24</title>
<path fill="none" stroke="black" stroke-dasharray="1,5" d="M365.71,-448.05C362.78,-440.18 359.23,-430.62 355.95,-421.79"/>
<polygon fill="black" stroke="black" points="359.18,-420.43 352.42,-412.28 352.62,-422.87 359.18,-420.43"/>
</g>
<!-- 11 -->
<g id="node13" class="node">
<title>11</title>
<ellipse fill="none" stroke="black" cx="448" cy="-250" rx="44.69" ry="18"/>
<text text-anchor="middle" x="448" y="-246.3" font-family="Times,serif" font-size="14.00">Taur (f)</text>
</g>
<!-- 11&#45;&gt;1 -->
<g id="edge2" class="edge">
<title>11&#45;&gt;1</title>
<path fill="none" stroke="black" stroke-dasharray="1,5" d="M424.25,-234.67C407.19,-224.38 383.99,-210.37 365.12,-198.99"/>
<polygon fill="black" stroke="black" points="366.89,-195.97 356.52,-193.8 363.28,-201.96 366.89,-195.97"/>
</g>
<!-- 22 -->
<g id="node24" class="node">
<title>22</title>
<ellipse fill="none" stroke="black" cx="448" cy="-178" rx="50.09" ry="18"/>
<text text-anchor="middle" x="448" y="-174.3" font-family="Times,serif" font-size="14.00">V569 (g)</text>
</g>
<!-- 11&#45;&gt;22 -->
<g id="edge23" class="edge">
<title>11&#45;&gt;22</title>
<path fill="none" stroke="blue" stroke-dasharray="5,2" d="M448,-231.7C448,-223.98 448,-214.71 448,-206.11"/>
<polygon fill="blue" stroke="blue" points="451.5,-206.1 448,-196.1 444.5,-206.1 451.5,-206.1"/>
</g>
<!-- 29 -->
<g id="node31" class="node">
<title>29</title>
<ellipse fill="none" stroke="black" cx="567" cy="-178" rx="50.89" ry="18"/>
<text text-anchor="middle" x="567" y="-174.3" font-family="Times,serif" font-size="14.00">M118 (f)</text>
</g>
<!-- 11&#45;&gt;29 -->
<g id="edge30" class="edge">
<title>11&#45;&gt;29</title>
<path fill="none" stroke="black" stroke-dasharray="5,2" d="M472.37,-234.67C489.86,-224.38 513.67,-210.37 533.02,-198.99"/>
<polygon fill="black" stroke="black" points="535,-201.88 541.84,-193.8 531.45,-195.85 535,-201.88"/>
</g>
<!-- 13 -->
<g id="node15" class="node">
<title>13</title>
<ellipse fill="none" stroke="black" cx="582" cy="-394" rx="44.39" ry="18"/>
<text text-anchor="middle" x="582" y="-390.3" font-family="Times,serif" font-size="14.00">S32 (a)</text>
</g>
<!-- 14 -->
<g id="node16" class="node">
<title>14</title>
<ellipse fill="none" stroke="black" cx="487" cy="-466" rx="42.79" ry="18"/>
<text text-anchor="middle" x="487" y="-462.3" font-family="Times,serif" font-size="14.00">La2 (a)</text>
</g>
<!-- 15 -->
<g id="node17" class="node">
<title>15</title>
<ellipse fill="none" stroke="gray" stroke-dasharray="5,2" cx="582" cy="-466" rx="34.39" ry="18"/>
<text text-anchor="middle" x="582" y="-462.3" font-family="Times,serif" font-size="14.00">S249</text>
</g>
<!-- 16 -->
<g id="node18" class="node">
<title>16</title>
<ellipse fill="none" stroke="black" cx="687" cy="-466" rx="52.79" ry="18"/>
<text text-anchor="middle" x="687" y="-462.3" font-family="Times,serif" font-size="14.00">M136 (a)</text>
</g>
<!-- 17 -->
<g id="node19" class="node">
<title>17</title>
<ellipse fill="none" stroke="black" cx="1871" cy="-394" rx="48.99" ry="18"/>
<text text-anchor="middle" x="1871" y="-390.3" font-family="Times,serif" font-size="14.00">La35 (a)</text>
</g>
<!-- 19 -->
<g id="node21" class="node">
<title>19</title>
<ellipse fill="none" stroke="black" cx="1987" cy="-394" rx="49.29" ry="18"/>
<text text-anchor="middle" x="1987" y="-390.3" font-family="Times,serif" font-size="14.00">V571 (c)</text>
</g>
<!-- 21 -->
<g id="node23" class="node">
<title>21</title>
<ellipse fill="none" stroke="black" cx="802" cy="-466" rx="44.39" ry="18"/>
<text text-anchor="middle" x="802" y="-462.3" font-family="Times,serif" font-size="14.00">A25 (a)</text>
</g>
<!-- 21&#45;&gt;8 -->
<g id="edge9" class="edge">
<title>21&#45;&gt;8</title>
<path fill="none" stroke="black" stroke-dasharray="5,2" d="M769.42,-453.71C762.72,-451.63 755.67,-449.61 749,-448 652.67,-424.81 625.66,-433.75 529,-412 524.91,-411.08 520.67,-410.04 516.45,-408.94"/>
<polygon fill="black" stroke="black" points="517.22,-405.52 506.65,-406.29 515.39,-412.28 517.22,-405.52"/>
</g>
<!-- 21&#45;&gt;13 -->
<g id="edge14" class="edge">
<title>21&#45;&gt;13</title>
<path fill="none" stroke="black" stroke-dasharray="5,2" d="M768.36,-454.19C761.94,-452.13 755.26,-449.99 749,-448 698.37,-431.89 685.63,-428.11 635,-412 631.87,-411 628.64,-409.97 625.38,-408.93"/>
<polygon fill="black" stroke="black" points="626.23,-405.53 615.64,-405.81 624.1,-412.2 626.23,-405.53"/>
</g>
<!-- 34 -->
<g id="node36" class="node">
<title>34</title>
<ellipse fill="none" stroke="black" cx="694" cy="-394" rx="50.09" ry="18"/>
<text text-anchor="middle" x="694" y="-390.3" font-family="Times,serif" font-size="14.00">Patm (a)</text>
</g>
<!-- 21&#45;&gt;34 -->
<g id="edge35" class="edge">
<title>21&#45;&gt;34</title>
<path fill="none" stroke="black" stroke-dasharray="1,5" d="M779.36,-450.33C763.87,-440.29 743.12,-426.84 725.96,-415.71"/>
<polygon fill="black" stroke="black" points="727.65,-412.64 717.36,-410.14 723.84,-418.51 727.65,-412.64"/>
</g>
<!-- 36 -->
<g id="node38" class="node">
<title>36</title>
<ellipse fill="none" stroke="black" cx="802" cy="-394" rx="40.09" ry="18"/>
<text text-anchor="middle" x="802" y="-390.3" font-family="Times,serif" font-size="14.00">Pal (a)</text>
</g>
<!-- 21&#45;&gt;36 -->
<g id="edge37" class="edge">
<title>21&#45;&gt;36</title>
<path fill="none" stroke="black" stroke-dasharray="5,2" d="M802,-447.7C802,-439.98 802,-430.71 802,-422.11"/>
<polygon fill="black" stroke="black" points="805.5,-422.1 802,-412.1 798.5,-422.1 805.5,-422.1"/>
</g>
<!-- 37 -->
<g id="node39" class="node">
<title>37</title>
<ellipse fill="none" stroke="black" cx="904" cy="-394" rx="44.39" ry="18"/>
<text text-anchor="middle" x="904" y="-390.3" font-family="Times,serif" font-size="14.00">P01 (a)</text>
</g>
<!-- 21&#45;&gt;37 -->
<g id="edge38" class="edge">
<title>21&#45;&gt;37</title>
<path fill="none" stroke="black" stroke-dasharray="5,2" d="M823.63,-450.15C838.24,-440.13 857.72,-426.76 873.84,-415.7"/>
<polygon fill="black" stroke="black" points="876.13,-418.37 882.4,-409.82 872.17,-412.6 876.13,-418.37"/>
</g>
<!-- 23 -->
<g id="node25" class="node">
<title>23</title>
<ellipse fill="none" stroke="black" cx="1022" cy="-466" rx="44.69" ry="18"/>
<text text-anchor="middle" x="1022" y="-462.3" font-family="Times,serif" font-size="14.00">Nan (a)</text>
</g>
<!-- 25 -->
<g id="node27" class="node">
<title>25</title>
<ellipse fill="none" stroke="black" cx="1022" cy="-394" rx="55.79" ry="18"/>
<text text-anchor="middle" x="1022" y="-390.3" font-family="Times,serif" font-size="14.00">V2250 (a)</text>
</g>
<!-- 23&#45;&gt;25 -->
<g id="edge26" class="edge">
<title>23&#45;&gt;25</title>
<path fill="none" stroke="black" stroke-dasharray="5,2" d="M1022,-447.7C1022,-439.98 1022,-430.71 1022,-422.11"/>
<polygon fill="black" stroke="black" points="1025.5,-422.1 1022,-412.1 1018.5,-422.1 1025.5,-422.1"/>
</g>
<!-- 42 -->
<g id="node44" class="node">
<title>42</title>
<ellipse fill="none" stroke="black" cx="1152" cy="-394" rx="55.79" ry="18"/>
<text text-anchor="middle" x="1152" y="-390.3" font-family="Times,serif" font-size="14.00">V1897 (a)</text>
</g>
<!-- 23&#45;&gt;42 -->
<g id="edge42" class="edge">
<title>23&#45;&gt;42</title>
<path fill="none" stroke="black" stroke-dasharray="1,5" d="M1047.68,-451.17C1067.11,-440.71 1094.03,-426.21 1115.67,-414.56"/>
<polygon fill="black" stroke="black" points="1117.43,-417.59 1124.57,-409.77 1114.11,-411.43 1117.43,-417.59"/>
</g>
<!-- 24&#45;&gt;9 -->
<g id="edge10" class="edge">
<title>24&#45;&gt;9</title>
<path fill="none" stroke="gray" stroke-width="2" d="M321.26,-377.81C304.04,-367.24 280.96,-353.07 262.59,-341.78"/>
<polygon fill="gray" stroke="gray" stroke-width="2" points="264.34,-338.75 253.99,-336.5 260.68,-344.72 264.34,-338.75"/>
</g>
<!-- 32 -->
<g id="node34" class="node">
<title>32</title>
<ellipse fill="none" stroke="black" cx="334" cy="-322" rx="48.19" ry="18"/>
<text text-anchor="middle" x="334" y="-318.3" font-family="Times,serif" font-size="14.00">V536 (f)</text>
</g>
<!-- 24&#45;&gt;32 -->
<g id="edge33" class="edge">
<title>24&#45;&gt;32</title>
<path fill="none" stroke="blue" stroke-dasharray="5,2" d="M343.03,-375.7C341.71,-367.98 340.12,-358.71 338.65,-350.11"/>
<polygon fill="blue" stroke="blue" points="342.07,-349.37 336.93,-340.1 335.17,-350.55 342.07,-349.37"/>
</g>
<!-- 38 -->
<g id="node40" class="node">
<title>38</title>
<ellipse fill="none" stroke="black" cx="448" cy="-322" rx="48.19" ry="18"/>
<text text-anchor="middle" x="448" y="-318.3" font-family="Times,serif" font-size="14.00">V568 (f)</text>
</g>
<!-- 24&#45;&gt;38 -->
<g id="edge39" class="edge">
<title>24&#45;&gt;38</title>
<path fill="none" stroke="blue" stroke-dasharray="5,2" d="M368.64,-377.46C383,-367.61 401.76,-354.73 417.43,-343.98"/>
<polygon fill="blue" stroke="blue" points="419.51,-346.8 425.78,-338.25 415.55,-341.02 419.51,-346.8"/>
</g>
<!-- 26 -->
<g id="node28" class="node">
<title>26</title>
<ellipse fill="none" stroke="black" cx="1580" cy="-466" rx="48.99" ry="18"/>
<text text-anchor="middle" x="1580" y="-462.3" font-family="Times,serif" font-size="14.00">La22 (a)</text>
</g>
<!-- 26&#45;&gt;0 -->
<g id="edge1" class="edge">
<title>26&#45;&gt;0</title>
<path fill="none" stroke="black" stroke-dasharray="1,5" d="M1538.41,-456.43C1490.61,-446.43 1409.89,-429.07 1341,-412 1336.86,-410.97 1332.57,-409.87 1328.27,-408.75"/>
<polygon fill="black" stroke="black" points="1328.85,-405.28 1318.28,-406.09 1327.04,-412.04 1328.85,-405.28"/>
</g>
<!-- 26&#45;&gt;2 -->
<g id="edge3" class="edge">
<title>26&#45;&gt;2</title>
<path fill="none" stroke="black" stroke-dasharray="5,2" d="M1547.4,-452.32C1517.93,-440.86 1474.36,-423.92 1442.23,-411.42"/>
<polygon fill="black" stroke="black" points="1443.25,-408.06 1432.66,-407.7 1440.71,-414.59 1443.25,-408.06"/>
</g>
<!-- 26&#45;&gt;3 -->
<g id="edge4" class="edge">
<title>26&#45;&gt;3</title>
<path fill="none" stroke="black" stroke-dasharray="5,2" d="M1565.62,-448.76C1557.83,-439.97 1548.05,-428.93 1539.38,-419.14"/>
<polygon fill="black" stroke="black" points="1541.98,-416.8 1532.73,-411.63 1536.74,-421.44 1541.98,-416.8"/>
</g>
<!-- 26&#45;&gt;6 -->
<g id="edge7" class="edge">
<title>26&#45;&gt;6</title>
<path fill="none" stroke="blue" stroke-dasharray="5,2" d="M1594.38,-448.76C1602.17,-439.97 1611.95,-428.93 1620.62,-419.14"/>
<polygon fill="blue" stroke="blue" points="1623.26,-421.44 1627.27,-411.63 1618.02,-416.8 1623.26,-421.44"/>
</g>
<!-- 26&#45;&gt;7 -->
<g id="edge8" class="edge">
<title>26&#45;&gt;7</title>
<path fill="none" stroke="black" stroke-dasharray="1,5" d="M1612.6,-452.32C1642.62,-440.65 1687.27,-423.28 1719.56,-410.73"/>
<polygon fill="black" stroke="black" points="1721.1,-413.88 1729.15,-407 1718.56,-407.36 1721.1,-413.88"/>
</g>
<!-- 26&#45;&gt;17 -->
<g id="edge18" class="edge">
<title>26&#45;&gt;17</title>
<path fill="none" stroke="black" stroke-dasharray="1,5" d="M1616.38,-453.84C1623.52,-451.79 1630.97,-449.75 1638,-448 1715.05,-428.82 1735.95,-431.18 1813,-412 1816.84,-411.04 1820.81,-410 1824.79,-408.91"/>
<polygon fill="black" stroke="black" points="1825.93,-412.23 1834.62,-406.16 1824.04,-405.49 1825.93,-412.23"/>
</g>
<!-- 26&#45;&gt;19 -->
<g id="edge20" class="edge">
<title>26&#45;&gt;19</title>
<path fill="none" stroke="blue" stroke-dasharray="1,5" d="M1615.66,-453.56C1622.99,-451.49 1630.7,-449.51 1638,-448 1765.61,-421.59 1801.39,-438.41 1929,-412 1932.93,-411.19 1936.99,-410.24 1941.04,-409.21"/>
<polygon fill="blue" stroke="blue" points="1942.28,-412.5 1951.03,-406.52 1940.46,-405.74 1942.28,-412.5"/>
</g>
<!-- 39 -->
<g id="node41" class="node">
<title>39</title>
<ellipse fill="none" stroke="black" cx="2101" cy="-394" rx="46.59" ry="18"/>
<text text-anchor="middle" x="2101" y="-390.3" font-family="Times,serif" font-size="14.00">Bodl (a)</text>
</g>
<!-- 26&#45;&gt;39 -->
<g id="edge40" class="edge">
<title>26&#45;&gt;39</title>
<path fill="none" stroke="black" stroke-dasharray="5,2" d="M1615.31,-453.45C1622.74,-451.36 1630.58,-449.4 1638,-448 1816.44,-414.3 1866.72,-446.56 2045,-412 2049.1,-411.21 2053.32,-410.23 2057.52,-409.15"/>
<polygon fill="black" stroke="black" points="2058.51,-412.51 2067.23,-406.48 2056.66,-405.76 2058.51,-412.51"/>
</g>
<!-- 27 -->
<g id="node29" class="node">
<title>27</title>
<ellipse fill="none" stroke="black" cx="1697" cy="-466" rx="50.09" ry="18"/>
<text text-anchor="middle" x="1697" y="-462.3" font-family="Times,serif" font-size="14.00">V560 (b)</text>
</g>
<!-- 41 -->
<g id="node43" class="node">
<title>41</title>
<ellipse fill="none" stroke="black" cx="2222" cy="-394" rx="55.79" ry="18"/>
<text text-anchor="middle" x="2222" y="-390.3" font-family="Times,serif" font-size="14.00">V1920 (b)</text>
</g>
<!-- 27&#45;&gt;41 -->
<g id="edge41" class="edge">
<title>27&#45;&gt;41</title>
<path fill="none" stroke="black" stroke-dasharray="5,2" d="M1732.93,-453.47C1740.49,-451.37 1748.46,-449.41 1756,-448 1931.88,-415.08 1980.72,-442.74 2157,-412 2161.78,-411.17 2166.71,-410.16 2171.64,-409.05"/>
<polygon fill="black" stroke="black" points="2172.74,-412.38 2181.66,-406.66 2171.12,-405.57 2172.74,-412.38"/>
</g>
<!-- 28&#45;&gt;4 -->
<g id="edge5" class="edge">
<title>28&#45;&gt;4</title>
<path fill="none" stroke="black" stroke-dasharray="1,5" d="M332,-87.7C332,-79.98 332,-70.71 332,-62.11"/>
<polygon fill="black" stroke="black" points="335.5,-62.1 332,-52.1 328.5,-62.1 335.5,-62.1"/>
</g>
<!-- 31 -->
<g id="node33" class="node">
<title>31</title>
<ellipse fill="none" stroke="gray" stroke-dasharray="5,2" cx="567" cy="-106" rx="28.7" ry="18"/>
<text text-anchor="middle" x="567" y="-102.3" font-family="Times,serif" font-size="14.00">P18</text>
</g>
<!-- 29&#45;&gt;31 -->
<g id="edge32" class="edge">
<title>29&#45;&gt;31</title>
<path fill="none" stroke="gray" stroke-dasharray="5,2" d="M567,-159.7C567,-151.98 567,-142.71 567,-134.11"/>
<polygon fill="gray" stroke="gray" points="570.5,-134.1 567,-124.1 563.5,-134.1 570.5,-134.1"/>
</g>
<!-- 30 -->
<g id="node32" class="node">
<title>30</title>
<ellipse fill="none" stroke="gray" stroke-dasharray="5,2" cx="1815" cy="-466" rx="50.09" ry="18"/>
<text text-anchor="middle" x="1815" y="-462.3" font-family="Times,serif" font-size="14.00">Savile&#45;Η</text>
</g>
<!-- 33 -->
<g id="node35" class="node">
<title>33</title>
<ellipse fill="none" stroke="black" cx="1057" cy="-322" rx="42.49" ry="18"/>
<text text-anchor="middle" x="1057" y="-318.3" font-family="Times,serif" font-size="14.00">Est (d)</text>
</g>
<!-- 35 -->
<g id="node37" class="node">
<title>35</title>
<ellipse fill="none" stroke="black" cx="1160" cy="-322" rx="42.79" ry="18"/>
<text text-anchor="middle" x="1160" y="-318.3" font-family="Times,serif" font-size="14.00">Bas (a)</text>
</g>
<!-- 38&#45;&gt;11 -->
<g id="edge12" class="edge">
<title>38&#45;&gt;11</title>
<path fill="none" stroke="black" stroke-dasharray="1,5" d="M448,-303.7C448,-295.98 448,-286.71 448,-278.11"/>
<polygon fill="black" stroke="black" points="451.5,-278.1 448,-268.1 444.5,-278.1 451.5,-278.1"/>
</g>
<!-- 40 -->
<g id="node42" class="node">
<title>40</title>
<ellipse fill="none" stroke="black" cx="744" cy="-539" rx="53.89" ry="18"/>
<text text-anchor="middle" x="744" y="-535.3" font-family="Times,serif" font-size="14.00">aBase (a)</text>
</g>
<!-- 40&#45;&gt;5 -->
<g id="edge6" class="edge">
<title>40&#45;&gt;5</title>
<path fill="none" stroke="black" d="M692.63,-533.42C611.56,-525.76 449.15,-508.75 313,-484 306.38,-482.8 299.45,-481.36 292.63,-479.84"/>
<polygon fill="black" stroke="black" points="293.29,-476.4 282.76,-477.57 291.72,-483.22 293.29,-476.4"/>
</g>
<!-- 40&#45;&gt;10 -->
<g id="edge11" class="edge">
<title>40&#45;&gt;10</title>
<path fill="none" stroke="black" stroke-width="2" d="M695.56,-530.93C634.5,-521.69 526.45,-504.28 435,-484 430.01,-482.89 424.83,-481.65 419.67,-480.35"/>
<polygon fill="black" stroke="black" stroke-width="2" points="420.4,-476.92 409.84,-477.81 418.65,-483.7 420.4,-476.92"/>
</g>
<!-- 40&#45;&gt;14 -->
<g id="edge15" class="edge">
<title>40&#45;&gt;14</title>
<path fill="none" stroke="black" stroke-width="2" d="M701.79,-527.65C660.2,-517.27 594.95,-500.5 539,-484 535.71,-483.03 532.32,-482 528.91,-480.93"/>
<polygon fill="black" stroke="black" stroke-width="2" points="529.95,-477.59 519.36,-477.9 527.84,-484.27 529.95,-477.59"/>
</g>
<!-- 40&#45;&gt;15 -->
<g id="edge16" class="edge">
<title>40&#45;&gt;15</title>
<path fill="none" stroke="gray" d="M712.76,-524.31C685.26,-512.25 645.25,-494.72 616.74,-482.23"/>
<polygon fill="gray" stroke="gray" points="618.11,-479 607.55,-478.2 615.3,-485.42 618.11,-479"/>
</g>
<!-- 40&#45;&gt;16 -->
<g id="edge17" class="edge">
<title>40&#45;&gt;16</title>
<path fill="none" stroke="black" stroke-width="2" d="M730.78,-521.53C723.69,-512.7 714.81,-501.63 706.9,-491.78"/>
<polygon fill="black" stroke="black" stroke-width="2" points="709.53,-489.48 700.54,-483.87 704.08,-493.86 709.53,-489.48"/>
</g>
<!-- 40&#45;&gt;21 -->
<g id="edge22" class="edge">
<title>40&#45;&gt;21</title>
<path fill="none" stroke="black" stroke-dasharray="5,2" d="M757.45,-521.53C764.77,-512.57 773.97,-501.31 782.1,-491.36"/>
<polygon fill="black" stroke="black" points="785,-493.34 788.62,-483.38 779.58,-488.91 785,-493.34"/>
</g>
<!-- 40&#45;&gt;23 -->
<g id="edge24" class="edge">
<title>40&#45;&gt;23</title>
<path fill="none" stroke="black" d="M785.62,-527.37C836.42,-514.4 922.1,-492.52 975.16,-478.96"/>
<polygon fill="black" stroke="black" points="976.17,-482.32 984.99,-476.45 974.44,-475.53 976.17,-482.32"/>
</g>
<!-- 40&#45;&gt;26 -->
<g id="edge27" class="edge">
<title>40&#45;&gt;26</title>
<path fill="none" stroke="black" stroke-dasharray="5,2" d="M795.66,-533.61C943.65,-521.04 1368.37,-484.97 1522.9,-471.85"/>
<polygon fill="black" stroke="black" points="1523.45,-475.32 1533.12,-470.98 1522.86,-468.34 1523.45,-475.32"/>
</g>
<!-- 40&#45;&gt;27 -->
<g id="edge28" class="edge">
<title>40&#45;&gt;27</title>
<path fill="none" stroke="blue" stroke-width="2" d="M797.38,-536.32C964.28,-530.82 1474.8,-512.09 1638,-484 1642.37,-483.25 1646.88,-482.29 1651.37,-481.21"/>
<polygon fill="blue" stroke="blue" stroke-width="2" points="1652.29,-484.59 1661.1,-478.7 1650.54,-477.81 1652.29,-484.59"/>
</g>
<!-- 40&#45;&gt;30 -->
<g id="edge31" class="edge">
<title>40&#45;&gt;30</title>
<path fill="none" stroke="gray" stroke-width="2" d="M797.62,-536.75C979.04,-532.25 1568.95,-515.52 1756,-484 1760.44,-483.25 1765.01,-482.29 1769.56,-481.2"/>
<polygon fill="gray" stroke="gray" stroke-width="2" points="1770.61,-484.55 1779.42,-478.66 1768.86,-477.77 1770.61,-484.55"/>
</g>
<!-- 42&#45;&gt;33 -->
<g id="edge34" class="edge">
<title>42&#45;&gt;33</title>
<path fill="none" stroke="blue" stroke-dasharray="1,5" d="M1130.44,-377.12C1117.08,-367.27 1099.77,-354.51 1085.31,-343.86"/>
<polygon fill="blue" stroke="blue" points="1087.3,-340.98 1077.17,-337.86 1083.15,-346.61 1087.3,-340.98"/>
</g>
<!-- 42&#45;&gt;35 -->
<g id="edge36" class="edge">
<title>42&#45;&gt;35</title>
<path fill="none" stroke="black" d="M1153.98,-375.7C1154.86,-367.98 1155.92,-358.71 1156.9,-350.11"/>
<polygon fill="black" stroke="black" points="1160.39,-350.44 1158.05,-340.1 1153.43,-349.64 1160.39,-350.44"/>
</g>
</g>
</svg>
