<?xml version="1.0" encoding="UTF-8" standalone="no"?>
<!DOCTYPE svg PUBLIC "-//W3C//DTD SVG 1.1//EN"
 "http://www.w3.org/Graphics/SVG/1.1/DTD/svg11.dtd">
<!-- Generated by graphviz version 2.43.0 (0)
 -->
<!-- Title: textual_flow Pages: 1 -->
<svg width="2073pt" height="654pt"
 viewBox="0.00 0.00 2073.00 654.00" xmlns="http://www.w3.org/2000/svg" xmlns:xlink="http://www.w3.org/1999/xlink">
<g id="graph0" class="graph" transform="scale(1 1) rotate(0) translate(4 650)">
<title>textual_flow</title>
<polygon fill="white" stroke="transparent" points="-4,4 -4,-650 2069,-650 2069,4 -4,4"/>
<g id="clust1" class="cluster">
<title>cluster_legend</title>
<polygon fill="none" stroke="black" points="8,-584 8,-638 186,-638 186,-584 8,-584"/>
</g>
<g id="clust2" class="cluster">
<title>cluster_plot</title>
</g>
<!-- label -->
<g id="node1" class="node">
<title>label</title>
<text text-anchor="middle" x="97" y="-614.8" font-family="Times,serif" font-size="14.00">adstag1.3.67U12&#45;22</text>
<text text-anchor="middle" x="97" y="-599.8" font-family="Times,serif" font-size="14.00">Con = 3</text>
</g>
<!-- 0 -->
<g id="node2" class="node">
<title>0</title>
<ellipse fill="none" stroke="black" cx="1293" cy="-466" rx="44.39" ry="18"/>
<text text-anchor="middle" x="1293" y="-462.3" font-family="Times,serif" font-size="14.00">S32 (a)</text>
</g>
<!-- 1 -->
<g id="node3" class="node">
<title>1</title>
<ellipse fill="none" stroke="black" cx="1733" cy="-466" rx="55.79" ry="18"/>
<text text-anchor="middle" x="1733" y="-462.3" font-family="Times,serif" font-size="14.00">V1629 (d)</text>
</g>
<!-- 19 -->
<g id="node21" class="node">
<title>19</title>
<ellipse fill="none" stroke="black" cx="1663" cy="-394" rx="50.09" ry="18"/>
<text text-anchor="middle" x="1663" y="-390.3" font-family="Times,serif" font-size="14.00">V536 (e)</text>
</g>
<!-- 1&#45;&gt;19 -->
<g id="edge19" class="edge">
<title>1&#45;&gt;19</title>
<path fill="none" stroke="blue" stroke-dasharray="5,2" d="M1716.76,-448.76C1707.75,-439.75 1696.39,-428.39 1686.43,-418.43"/>
<polygon fill="blue" stroke="blue" points="1688.69,-415.74 1679.15,-411.15 1683.74,-420.69 1688.69,-415.74"/>
</g>
<!-- 30 -->
<g id="node32" class="node">
<title>30</title>
<ellipse fill="none" stroke="gray" stroke-dasharray="5,2" cx="1767" cy="-394" rx="36" ry="18"/>
<text text-anchor="middle" x="1767" y="-390.3" font-family="Times,serif" font-size="14.00">La2&#45;c</text>
</g>
<!-- 1&#45;&gt;30 -->
<g id="edge30" class="edge">
<title>1&#45;&gt;30</title>
<path fill="none" stroke="gray" stroke-width="2" d="M1741.23,-448.05C1745.2,-439.89 1750.04,-429.91 1754.46,-420.82"/>
<polygon fill="gray" stroke="gray" stroke-width="2" points="1757.62,-422.31 1758.85,-411.79 1751.33,-419.25 1757.62,-422.31"/>
</g>
<!-- 2 -->
<g id="node4" class="node">
<title>2</title>
<ellipse fill="none" stroke="gray" stroke-dasharray="5,2" cx="574" cy="-538" rx="50.09" ry="18"/>
<text text-anchor="middle" x="574" y="-534.3" font-family="Times,serif" font-size="14.00">Savile&#45;Η</text>
</g>
<!-- 3 -->
<g id="node5" class="node">
<title>3</title>
<ellipse fill="none" stroke="black" cx="692" cy="-538" rx="50.09" ry="18"/>
<text text-anchor="middle" x="692" y="-534.3" font-family="Times,serif" font-size="14.00">V560 (a)</text>
</g>
<!-- 22 -->
<g id="node24" class="node">
<title>22</title>
<ellipse fill="none" stroke="black" cx="258" cy="-466" rx="55.79" ry="18"/>
<text text-anchor="middle" x="258" y="-462.3" font-family="Times,serif" font-size="14.00">V1920 (a)</text>
</g>
<!-- 3&#45;&gt;22 -->
<g id="edge22" class="edge">
<title>3&#45;&gt;22</title>
<path fill="none" stroke="black" stroke-dasharray="5,2" d="M655.72,-525.53C648.26,-523.46 640.42,-521.49 633,-520 497.01,-492.71 459.32,-509.61 323,-484 318.24,-483.1 313.3,-482.05 308.39,-480.92"/>
<polygon fill="black" stroke="black" points="308.91,-477.44 298.37,-478.49 307.27,-484.25 308.91,-477.44"/>
</g>
<!-- 4 -->
<g id="node6" class="node">
<title>4</title>
<ellipse fill="none" stroke="black" cx="809" cy="-538" rx="48.99" ry="18"/>
<text text-anchor="middle" x="809" y="-534.3" font-family="Times,serif" font-size="14.00">La22 (a)</text>
</g>
<!-- 5 -->
<g id="node7" class="node">
<title>5</title>
<ellipse fill="none" stroke="black" cx="382" cy="-466" rx="50.09" ry="18"/>
<text text-anchor="middle" x="382" y="-462.3" font-family="Times,serif" font-size="14.00">A116 (a)</text>
</g>
<!-- 4&#45;&gt;5 -->
<g id="edge6" class="edge">
<title>4&#45;&gt;5</title>
<path fill="none" stroke="black" stroke-dasharray="5,2" d="M773.35,-525.52C766.01,-523.45 758.3,-521.48 751,-520 615.07,-492.39 576.99,-511.29 441,-484 436.83,-483.16 432.52,-482.17 428.22,-481.1"/>
<polygon fill="black" stroke="black" points="428.84,-477.64 418.28,-478.47 427.05,-484.41 428.84,-477.64"/>
</g>
<!-- 8 -->
<g id="node10" class="node">
<title>8</title>
<ellipse fill="none" stroke="black" cx="500" cy="-466" rx="50.09" ry="18"/>
<text text-anchor="middle" x="500" y="-462.3" font-family="Times,serif" font-size="14.00">V565 (a)</text>
</g>
<!-- 4&#45;&gt;8 -->
<g id="edge9" class="edge">
<title>4&#45;&gt;8</title>
<path fill="none" stroke="black" stroke-dasharray="5,2" d="M772.95,-525.83C765.72,-523.76 758.14,-521.71 751,-520 666.57,-499.76 643.48,-504.04 559,-484 554.97,-483.04 550.81,-481.99 546.65,-480.88"/>
<polygon fill="black" stroke="black" points="547.57,-477.51 537,-478.24 545.72,-484.26 547.57,-477.51"/>
</g>
<!-- 28 -->
<g id="node30" class="node">
<title>28</title>
<ellipse fill="none" stroke="black" cx="617" cy="-466" rx="48.99" ry="18"/>
<text text-anchor="middle" x="617" y="-462.3" font-family="Times,serif" font-size="14.00">La35 (a)</text>
</g>
<!-- 4&#45;&gt;28 -->
<g id="edge28" class="edge">
<title>4&#45;&gt;28</title>
<path fill="none" stroke="black" stroke-dasharray="1,5" d="M775.56,-524.81C743.44,-513.1 694.79,-495.36 659.85,-482.62"/>
<polygon fill="black" stroke="black" points="660.98,-479.31 650.38,-479.17 658.58,-485.88 660.98,-479.31"/>
</g>
<!-- 29 -->
<g id="node31" class="node">
<title>29</title>
<ellipse fill="none" stroke="black" cx="734" cy="-466" rx="50.09" ry="18"/>
<text text-anchor="middle" x="734" y="-462.3" font-family="Times,serif" font-size="14.00">V571 (a)</text>
</g>
<!-- 4&#45;&gt;29 -->
<g id="edge29" class="edge">
<title>4&#45;&gt;29</title>
<path fill="none" stroke="black" stroke-dasharray="1,5" d="M791.98,-521.12C782.17,-511.96 769.67,-500.29 758.79,-490.13"/>
<polygon fill="black" stroke="black" points="760.91,-487.33 751.21,-483.06 756.13,-492.45 760.91,-487.33"/>
</g>
<!-- 34 -->
<g id="node36" class="node">
<title>34</title>
<ellipse fill="none" stroke="black" cx="846" cy="-466" rx="44.39" ry="18"/>
<text text-anchor="middle" x="846" y="-462.3" font-family="Times,serif" font-size="14.00">P74 (a)</text>
</g>
<!-- 4&#45;&gt;34 -->
<g id="edge34" class="edge">
<title>4&#45;&gt;34</title>
<path fill="none" stroke="black" stroke-dasharray="5,2" d="M817.96,-520.05C822.27,-511.89 827.55,-501.91 832.35,-492.82"/>
<polygon fill="black" stroke="black" points="835.55,-494.27 837.13,-483.79 829.36,-490.99 835.55,-494.27"/>
</g>
<!-- 36 -->
<g id="node38" class="node">
<title>36</title>
<ellipse fill="none" stroke="black" cx="961" cy="-466" rx="52.79" ry="18"/>
<text text-anchor="middle" x="961" y="-462.3" font-family="Times,serif" font-size="14.00">M111 (a)</text>
</g>
<!-- 4&#45;&gt;36 -->
<g id="edge36" class="edge">
<title>4&#45;&gt;36</title>
<path fill="none" stroke="black" stroke-dasharray="1,5" d="M838.31,-523.5C862.05,-512.57 895.72,-497.07 921.78,-485.06"/>
<polygon fill="black" stroke="black" points="923.38,-488.18 931,-480.81 920.46,-481.82 923.38,-488.18"/>
</g>
<!-- 41 -->
<g id="node43" class="node">
<title>41</title>
<ellipse fill="none" stroke="black" cx="1078" cy="-466" rx="46.59" ry="18"/>
<text text-anchor="middle" x="1078" y="-462.3" font-family="Times,serif" font-size="14.00">Bodl (a)</text>
</g>
<!-- 4&#45;&gt;41 -->
<g id="edge41" class="edge">
<title>4&#45;&gt;41</title>
<path fill="none" stroke="black" stroke-dasharray="5,2" d="M845.09,-525.86C852,-523.83 859.21,-521.79 866,-520 935.23,-501.76 953.87,-502.58 1023,-484 1026.38,-483.09 1029.87,-482.11 1033.37,-481.1"/>
<polygon fill="black" stroke="black" points="1034.61,-484.38 1043.2,-478.18 1032.62,-477.67 1034.61,-484.38"/>
</g>
<!-- 6 -->
<g id="node8" class="node">
<title>6</title>
<ellipse fill="none" stroke="black" cx="1542" cy="-178" rx="53.09" ry="18"/>
<text text-anchor="middle" x="1542" y="-174.3" font-family="Times,serif" font-size="14.00">M118 (b)</text>
</g>
<!-- 11 -->
<g id="node13" class="node">
<title>11</title>
<ellipse fill="none" stroke="gray" stroke-dasharray="5,2" cx="1542" cy="-106" rx="28.7" ry="18"/>
<text text-anchor="middle" x="1542" y="-102.3" font-family="Times,serif" font-size="14.00">P18</text>
</g>
<!-- 6&#45;&gt;11 -->
<g id="edge12" class="edge">
<title>6&#45;&gt;11</title>
<path fill="none" stroke="gray" stroke-dasharray="5,2" d="M1542,-159.7C1542,-151.98 1542,-142.71 1542,-134.11"/>
<polygon fill="gray" stroke="gray" points="1545.5,-134.1 1542,-124.1 1538.5,-134.1 1545.5,-134.1"/>
</g>
<!-- 7 -->
<g id="node9" class="node">
<title>7</title>
<ellipse fill="none" stroke="black" cx="928" cy="-538" rx="52.79" ry="18"/>
<text text-anchor="middle" x="928" y="-534.3" font-family="Times,serif" font-size="14.00">LaSM (a)</text>
</g>
<!-- 23 -->
<g id="node25" class="node">
<title>23</title>
<ellipse fill="none" stroke="black" cx="1187" cy="-466" rx="44.39" ry="18"/>
<text text-anchor="middle" x="1187" y="-462.3" font-family="Times,serif" font-size="14.00">B39 (a)</text>
</g>
<!-- 7&#45;&gt;23 -->
<g id="edge23" class="edge">
<title>7&#45;&gt;23</title>
<path fill="none" stroke="black" stroke-dasharray="5,2" d="M967.65,-525.98C975.07,-523.96 982.77,-521.9 990,-520 1053.81,-503.28 1070.56,-502.08 1134,-484 1137.31,-483.06 1140.72,-482.05 1144.14,-481.01"/>
<polygon fill="black" stroke="black" points="1145.22,-484.34 1153.74,-478.03 1143.15,-477.65 1145.22,-484.34"/>
</g>
<!-- 9 -->
<g id="node11" class="node">
<title>9</title>
<ellipse fill="none" stroke="black" cx="1897" cy="-394" rx="41.69" ry="18"/>
<text text-anchor="middle" x="1897" y="-390.3" font-family="Times,serif" font-size="14.00">Est (a)</text>
</g>
<!-- 10 -->
<g id="node12" class="node">
<title>10</title>
<ellipse fill="none" stroke="black" cx="1405" cy="-466" rx="50.09" ry="18"/>
<text text-anchor="middle" x="1405" y="-462.3" font-family="Times,serif" font-size="14.00">V566 (a)</text>
</g>
<!-- 20 -->
<g id="node22" class="node">
<title>20</title>
<ellipse fill="none" stroke="black" cx="1405" cy="-394" rx="55.79" ry="18"/>
<text text-anchor="middle" x="1405" y="-390.3" font-family="Times,serif" font-size="14.00">V1639 (a)</text>
</g>
<!-- 10&#45;&gt;20 -->
<g id="edge20" class="edge">
<title>10&#45;&gt;20</title>
<path fill="none" stroke="black" stroke-dasharray="1,5" d="M1405,-447.7C1405,-439.98 1405,-430.71 1405,-422.11"/>
<polygon fill="black" stroke="black" points="1408.5,-422.1 1405,-412.1 1401.5,-422.1 1408.5,-422.1"/>
</g>
<!-- 12 -->
<g id="node14" class="node">
<title>12</title>
<ellipse fill="none" stroke="black" cx="1781" cy="-34" rx="40.09" ry="18"/>
<text text-anchor="middle" x="1781" y="-30.3" font-family="Times,serif" font-size="14.00">Sin (c)</text>
</g>
<!-- 13 -->
<g id="node15" class="node">
<title>13</title>
<ellipse fill="none" stroke="black" cx="1863" cy="-466" rx="55.79" ry="18"/>
<text text-anchor="middle" x="1863" y="-462.3" font-family="Times,serif" font-size="14.00">V2250 (a)</text>
</g>
<!-- 14 -->
<g id="node16" class="node">
<title>14</title>
<ellipse fill="none" stroke="black" cx="1663" cy="-178" rx="50.09" ry="18"/>
<text text-anchor="middle" x="1663" y="-174.3" font-family="Times,serif" font-size="14.00">V569 (b)</text>
</g>
<!-- 15 -->
<g id="node17" class="node">
<title>15</title>
<ellipse fill="none" stroke="black" cx="1042" cy="-538" rx="42.79" ry="18"/>
<text text-anchor="middle" x="1042" y="-534.3" font-family="Times,serif" font-size="14.00">La2 (a)</text>
</g>
<!-- 16 -->
<g id="node18" class="node">
<title>16</title>
<ellipse fill="none" stroke="black" cx="961" cy="-394" rx="50.09" ry="18"/>
<text text-anchor="middle" x="961" y="-390.3" font-family="Times,serif" font-size="14.00">A336 (a)</text>
</g>
<!-- 17 -->
<g id="node19" class="node">
<title>17</title>
<ellipse fill="none" stroke="black" cx="1212" cy="-611" rx="53.89" ry="18"/>
<text text-anchor="middle" x="1212" y="-607.3" font-family="Times,serif" font-size="14.00">aBase (a)</text>
</g>
<!-- 17&#45;&gt;2 -->
<g id="edge3" class="edge">
<title>17&#45;&gt;2</title>
<path fill="none" stroke="gray" stroke-width="2" d="M1158.45,-608.36C1055.72,-604.47 824.21,-592.13 633,-556 628.82,-555.21 624.5,-554.25 620.2,-553.2"/>
<polygon fill="gray" stroke="gray" stroke-width="2" points="620.81,-549.74 610.25,-550.6 619.04,-556.51 620.81,-549.74"/>
</g>
<!-- 17&#45;&gt;3 -->
<g id="edge4" class="edge">
<title>17&#45;&gt;3</title>
<path fill="none" stroke="black" stroke-width="2" d="M1159.36,-606.65C1073.29,-600.55 897.34,-585.45 751,-556 746.83,-555.16 742.52,-554.17 738.22,-553.09"/>
<polygon fill="black" stroke="black" stroke-width="2" points="738.84,-549.64 728.28,-550.46 737.05,-556.4 738.84,-549.64"/>
</g>
<!-- 17&#45;&gt;4 -->
<g id="edge5" class="edge">
<title>17&#45;&gt;4</title>
<path fill="none" stroke="black" stroke-dasharray="5,2" d="M1161.75,-604.32C1094.06,-596.18 970.07,-579.53 866,-556 862.2,-555.14 858.28,-554.17 854.36,-553.13"/>
<polygon fill="black" stroke="black" points="855.26,-549.74 844.68,-550.45 853.39,-556.49 855.26,-549.74"/>
</g>
<!-- 17&#45;&gt;7 -->
<g id="edge8" class="edge">
<title>17&#45;&gt;7</title>
<path fill="none" stroke="black" d="M1168.93,-599.92C1124.14,-589.33 1052.02,-572.04 990,-556 985.93,-554.95 981.71,-553.83 977.48,-552.71"/>
<polygon fill="black" stroke="black" points="978.21,-549.28 967.64,-550.05 976.39,-556.04 978.21,-549.28"/>
</g>
<!-- 17&#45;&gt;15 -->
<g id="edge16" class="edge">
<title>17&#45;&gt;15</title>
<path fill="none" stroke="black" stroke-width="2" d="M1179.62,-596.48C1151.46,-584.72 1110.59,-567.64 1080.7,-555.16"/>
<polygon fill="black" stroke="black" stroke-width="2" points="1081.99,-551.91 1071.41,-551.28 1079.29,-558.37 1081.99,-551.91"/>
</g>
<!-- 18 -->
<g id="node20" class="node">
<title>18</title>
<ellipse fill="none" stroke="black" cx="1153" cy="-538" rx="50.09" ry="18"/>
<text text-anchor="middle" x="1153" y="-534.3" font-family="Times,serif" font-size="14.00">Patm (a)</text>
</g>
<!-- 17&#45;&gt;18 -->
<g id="edge18" class="edge">
<title>17&#45;&gt;18</title>
<path fill="none" stroke="black" d="M1198.32,-593.53C1190.87,-584.57 1181.51,-573.31 1173.24,-563.36"/>
<polygon fill="black" stroke="black" points="1175.69,-560.83 1166.61,-555.38 1170.31,-565.31 1175.69,-560.83"/>
</g>
<!-- 26 -->
<g id="node28" class="node">
<title>26</title>
<ellipse fill="none" stroke="black" cx="1271" cy="-538" rx="50.09" ry="18"/>
<text text-anchor="middle" x="1271" y="-534.3" font-family="Times,serif" font-size="14.00">S249 (a)</text>
</g>
<!-- 17&#45;&gt;26 -->
<g id="edge26" class="edge">
<title>17&#45;&gt;26</title>
<path fill="none" stroke="black" d="M1225.68,-593.53C1233.13,-584.57 1242.49,-573.31 1250.76,-563.36"/>
<polygon fill="black" stroke="black" points="1253.69,-565.31 1257.39,-555.38 1248.31,-560.83 1253.69,-565.31"/>
</g>
<!-- 31 -->
<g id="node33" class="node">
<title>31</title>
<ellipse fill="none" stroke="black" cx="1395" cy="-538" rx="55.79" ry="18"/>
<text text-anchor="middle" x="1395" y="-534.3" font-family="Times,serif" font-size="14.00">V2036 (a)</text>
</g>
<!-- 17&#45;&gt;31 -->
<g id="edge31" class="edge">
<title>17&#45;&gt;31</title>
<path fill="none" stroke="black" d="M1245.99,-596.81C1275.59,-585.33 1318.7,-568.6 1350.94,-556.09"/>
<polygon fill="black" stroke="black" points="1352.51,-559.24 1360.57,-552.36 1349.98,-552.71 1352.51,-559.24"/>
</g>
<!-- 35 -->
<g id="node37" class="node">
<title>35</title>
<ellipse fill="none" stroke="black" cx="1513" cy="-538" rx="44.39" ry="18"/>
<text text-anchor="middle" x="1513" y="-534.3" font-family="Times,serif" font-size="14.00">A25 (a)</text>
</g>
<!-- 17&#45;&gt;35 -->
<g id="edge35" class="edge">
<title>17&#45;&gt;35</title>
<path fill="none" stroke="black" stroke-dasharray="5,2" d="M1258.03,-601.35C1308.06,-591.63 1390.21,-574.75 1460,-556 1463.37,-555.1 1466.84,-554.11 1470.32,-553.08"/>
<polygon fill="black" stroke="black" points="1471.52,-556.37 1480.07,-550.1 1469.48,-549.68 1471.52,-556.37"/>
</g>
<!-- 37 -->
<g id="node39" class="node">
<title>37</title>
<ellipse fill="none" stroke="black" cx="1625" cy="-538" rx="50.09" ry="18"/>
<text text-anchor="middle" x="1625" y="-534.3" font-family="Times,serif" font-size="14.00">Neap (a)</text>
</g>
<!-- 17&#45;&gt;37 -->
<g id="edge37" class="edge">
<title>17&#45;&gt;37</title>
<path fill="none" stroke="black" stroke-width="2" d="M1262.21,-604.41C1331.16,-596.27 1458.82,-579.51 1566,-556 1570.1,-555.1 1574.33,-554.08 1578.56,-552.99"/>
<polygon fill="black" stroke="black" stroke-width="2" points="1579.62,-556.33 1588.36,-550.35 1577.8,-549.57 1579.62,-556.33"/>
</g>
<!-- 38 -->
<g id="node40" class="node">
<title>38</title>
<ellipse fill="none" stroke="black" cx="1746" cy="-538" rx="52.79" ry="18"/>
<text text-anchor="middle" x="1746" y="-534.3" font-family="Times,serif" font-size="14.00">M136 (a)</text>
</g>
<!-- 17&#45;&gt;38 -->
<g id="edge38" class="edge">
<title>17&#45;&gt;38</title>
<path fill="none" stroke="black" stroke-width="2" d="M1264.43,-606.65C1351.97,-600.45 1533.17,-585.13 1684,-556 1688.5,-555.13 1693.15,-554.1 1697.78,-552.99"/>
<polygon fill="black" stroke="black" stroke-width="2" points="1699.01,-556.29 1707.85,-550.45 1697.3,-549.5 1699.01,-556.29"/>
</g>
<!-- 39 -->
<g id="node41" class="node">
<title>39</title>
<ellipse fill="none" stroke="black" cx="1863" cy="-538" rx="44.69" ry="18"/>
<text text-anchor="middle" x="1863" y="-534.3" font-family="Times,serif" font-size="14.00">Nan (a)</text>
</g>
<!-- 17&#45;&gt;39 -->
<g id="edge39" class="edge">
<title>17&#45;&gt;39</title>
<path fill="none" stroke="black" d="M1265.96,-608.88C1371.19,-605.88 1610.77,-594.97 1808,-556 1812.08,-555.19 1816.29,-554.2 1820.48,-553.1"/>
<polygon fill="black" stroke="black" points="1821.45,-556.46 1830.13,-550.39 1819.56,-549.72 1821.45,-556.46"/>
</g>
<!-- 21 -->
<g id="node23" class="node">
<title>21</title>
<ellipse fill="none" stroke="black" cx="1663" cy="-322" rx="50.09" ry="18"/>
<text text-anchor="middle" x="1663" y="-318.3" font-family="Times,serif" font-size="14.00">V568 (b)</text>
</g>
<!-- 19&#45;&gt;21 -->
<g id="edge21" class="edge">
<title>19&#45;&gt;21</title>
<path fill="none" stroke="blue" stroke-dasharray="1,5" d="M1663,-375.7C1663,-367.98 1663,-358.71 1663,-350.11"/>
<polygon fill="blue" stroke="blue" points="1666.5,-350.1 1663,-340.1 1659.5,-350.1 1666.5,-350.1"/>
</g>
<!-- 24 -->
<g id="node26" class="node">
<title>24</title>
<ellipse fill="none" stroke="black" cx="1663" cy="-250" rx="47.39" ry="18"/>
<text text-anchor="middle" x="1663" y="-246.3" font-family="Times,serif" font-size="14.00">Taur (b)</text>
</g>
<!-- 21&#45;&gt;24 -->
<g id="edge24" class="edge">
<title>21&#45;&gt;24</title>
<path fill="none" stroke="black" stroke-dasharray="1,5" d="M1663,-303.7C1663,-295.98 1663,-286.71 1663,-278.11"/>
<polygon fill="black" stroke="black" points="1666.5,-278.1 1663,-268.1 1659.5,-278.1 1666.5,-278.1"/>
</g>
<!-- 24&#45;&gt;6 -->
<g id="edge7" class="edge">
<title>24&#45;&gt;6</title>
<path fill="none" stroke="black" stroke-dasharray="5,2" d="M1637.93,-234.5C1620.24,-224.26 1596.31,-210.42 1576.78,-199.12"/>
<polygon fill="black" stroke="black" points="1578.28,-195.95 1567.87,-193.97 1574.78,-202.01 1578.28,-195.95"/>
</g>
<!-- 24&#45;&gt;14 -->
<g id="edge15" class="edge">
<title>24&#45;&gt;14</title>
<path fill="none" stroke="black" stroke-dasharray="5,2" d="M1663,-231.7C1663,-223.98 1663,-214.71 1663,-206.11"/>
<polygon fill="black" stroke="black" points="1666.5,-206.1 1663,-196.1 1659.5,-206.1 1666.5,-206.1"/>
</g>
<!-- 40 -->
<g id="node42" class="node">
<title>40</title>
<ellipse fill="none" stroke="black" cx="1781" cy="-178" rx="50.09" ry="18"/>
<text text-anchor="middle" x="1781" y="-174.3" font-family="Times,serif" font-size="14.00">Marc (b)</text>
</g>
<!-- 24&#45;&gt;40 -->
<g id="edge40" class="edge">
<title>24&#45;&gt;40</title>
<path fill="none" stroke="black" stroke-dasharray="1,5" d="M1687.45,-234.5C1704.82,-224.19 1728.35,-210.23 1747.47,-198.89"/>
<polygon fill="black" stroke="black" points="1749.36,-201.84 1756.18,-193.73 1745.79,-195.82 1749.36,-201.84"/>
</g>
<!-- 25 -->
<g id="node27" class="node">
<title>25</title>
<ellipse fill="none" stroke="black" cx="1513" cy="-466" rx="40.09" ry="18"/>
<text text-anchor="middle" x="1513" y="-462.3" font-family="Times,serif" font-size="14.00">Pal (a)</text>
</g>
<!-- 27 -->
<g id="node29" class="node">
<title>27</title>
<ellipse fill="none" stroke="black" cx="1781" cy="-106" rx="46.29" ry="18"/>
<text text-anchor="middle" x="1781" y="-102.3" font-family="Times,serif" font-size="14.00">Mon (c)</text>
</g>
<!-- 27&#45;&gt;12 -->
<g id="edge13" class="edge">
<title>27&#45;&gt;12</title>
<path fill="none" stroke="black" stroke-dasharray="1,5" d="M1781,-87.7C1781,-79.98 1781,-70.71 1781,-62.11"/>
<polygon fill="black" stroke="black" points="1784.5,-62.1 1781,-52.1 1777.5,-62.1 1784.5,-62.1"/>
</g>
<!-- 32 -->
<g id="node34" class="node">
<title>32</title>
<ellipse fill="none" stroke="black" cx="1615" cy="-466" rx="44.39" ry="18"/>
<text text-anchor="middle" x="1615" y="-462.3" font-family="Times,serif" font-size="14.00">P01 (a)</text>
</g>
<!-- 33 -->
<g id="node35" class="node">
<title>33</title>
<ellipse fill="none" stroke="black" cx="1993" cy="-466" rx="55.79" ry="18"/>
<text text-anchor="middle" x="1993" y="-462.3" font-family="Times,serif" font-size="14.00">V1897 (a)</text>
</g>
<!-- 33&#45;&gt;9 -->
<g id="edge10" class="edge">
<title>33&#45;&gt;9</title>
<path fill="none" stroke="black" stroke-dasharray="1,5" d="M1971.22,-449.12C1957.71,-439.27 1940.22,-426.51 1925.6,-415.86"/>
<polygon fill="black" stroke="black" points="1927.53,-412.93 1917.38,-409.86 1923.4,-418.58 1927.53,-412.93"/>
</g>
<!-- 42 -->
<g id="node44" class="node">
<title>42</title>
<ellipse fill="none" stroke="black" cx="1999" cy="-394" rx="42.79" ry="18"/>
<text text-anchor="middle" x="1999" y="-390.3" font-family="Times,serif" font-size="14.00">Bas (a)</text>
</g>
<!-- 33&#45;&gt;42 -->
<g id="edge42" class="edge">
<title>33&#45;&gt;42</title>
<path fill="none" stroke="black" d="M1994.48,-447.7C1995.14,-439.98 1995.94,-430.71 1996.68,-422.11"/>
<polygon fill="black" stroke="black" points="2000.17,-422.37 1997.53,-412.1 1993.19,-421.77 2000.17,-422.37"/>
</g>
<!-- 35&#45;&gt;0 -->
<g id="edge1" class="edge">
<title>35&#45;&gt;0</title>
<path fill="none" stroke="black" stroke-dasharray="5,2" d="M1479.36,-526.19C1472.94,-524.13 1466.26,-521.99 1460,-520 1409.37,-503.89 1396.63,-500.11 1346,-484 1342.87,-483 1339.64,-481.97 1336.38,-480.93"/>
<polygon fill="black" stroke="black" points="1337.23,-477.53 1326.64,-477.81 1335.1,-484.2 1337.23,-477.53"/>
</g>
<!-- 35&#45;&gt;10 -->
<g id="edge11" class="edge">
<title>35&#45;&gt;10</title>
<path fill="none" stroke="black" stroke-dasharray="5,2" d="M1490.36,-522.33C1474.87,-512.29 1454.12,-498.84 1436.96,-487.71"/>
<polygon fill="black" stroke="black" points="1438.65,-484.64 1428.36,-482.14 1434.84,-490.51 1438.65,-484.64"/>
</g>
<!-- 35&#45;&gt;25 -->
<g id="edge25" class="edge">
<title>35&#45;&gt;25</title>
<path fill="none" stroke="black" stroke-dasharray="5,2" d="M1513,-519.7C1513,-511.98 1513,-502.71 1513,-494.11"/>
<polygon fill="black" stroke="black" points="1516.5,-494.1 1513,-484.1 1509.5,-494.1 1516.5,-494.1"/>
</g>
<!-- 35&#45;&gt;32 -->
<g id="edge32" class="edge">
<title>35&#45;&gt;32</title>
<path fill="none" stroke="black" stroke-dasharray="5,2" d="M1534.63,-522.15C1549.24,-512.13 1568.72,-498.76 1584.84,-487.7"/>
<polygon fill="black" stroke="black" points="1587.13,-490.37 1593.4,-481.82 1583.17,-484.6 1587.13,-490.37"/>
</g>
<!-- 36&#45;&gt;16 -->
<g id="edge17" class="edge">
<title>36&#45;&gt;16</title>
<path fill="none" stroke="black" stroke-dasharray="5,2" d="M961,-447.7C961,-439.98 961,-430.71 961,-422.11"/>
<polygon fill="black" stroke="black" points="964.5,-422.1 961,-412.1 957.5,-422.1 964.5,-422.1"/>
</g>
<!-- 37&#45;&gt;1 -->
<g id="edge2" class="edge">
<title>37&#45;&gt;1</title>
<path fill="none" stroke="blue" stroke-dasharray="1,5" d="M1648.17,-521.98C1663.47,-512.06 1683.75,-498.92 1700.64,-487.97"/>
<polygon fill="blue" stroke="blue" points="1702.63,-490.85 1709.12,-482.48 1698.83,-484.98 1702.63,-490.85"/>
</g>
<!-- 39&#45;&gt;13 -->
<g id="edge14" class="edge">
<title>39&#45;&gt;13</title>
<path fill="none" stroke="black" d="M1863,-519.7C1863,-511.98 1863,-502.71 1863,-494.11"/>
<polygon fill="black" stroke="black" points="1866.5,-494.1 1863,-484.1 1859.5,-494.1 1866.5,-494.1"/>
</g>
<!-- 39&#45;&gt;33 -->
<g id="edge33" class="edge">
<title>39&#45;&gt;33</title>
<path fill="none" stroke="black" stroke-dasharray="1,5" d="M1888.68,-523.17C1908.11,-512.71 1935.03,-498.21 1956.67,-486.56"/>
<polygon fill="black" stroke="black" points="1958.43,-489.59 1965.57,-481.77 1955.11,-483.43 1958.43,-489.59"/>
</g>
<!-- 40&#45;&gt;27 -->
<g id="edge27" class="edge">
<title>40&#45;&gt;27</title>
<path fill="none" stroke="blue" stroke-dasharray="1,5" d="M1781,-159.7C1781,-151.98 1781,-142.71 1781,-134.11"/>
<polygon fill="blue" stroke="blue" points="1784.5,-134.1 1781,-124.1 1777.5,-134.1 1784.5,-134.1"/>
</g>
</g>
</svg>
