<?xml version="1.0" encoding="UTF-8" standalone="no"?>
<!DOCTYPE svg PUBLIC "-//W3C//DTD SVG 1.1//EN"
 "http://www.w3.org/Graphics/SVG/1.1/DTD/svg11.dtd">
<!-- Generated by graphviz version 2.43.0 (0)
 -->
<!-- Title: textual_flow Pages: 1 -->
<svg width="2636pt" height="463pt"
 viewBox="0.00 0.00 2636.00 463.00" xmlns="http://www.w3.org/2000/svg" xmlns:xlink="http://www.w3.org/1999/xlink">
<g id="graph0" class="graph" transform="scale(1 1) rotate(0) translate(4 459)">
<title>textual_flow</title>
<polygon fill="white" stroke="transparent" points="-4,4 -4,-459 2632,-459 2632,4 -4,4"/>
<g id="clust1" class="cluster">
<title>cluster_legend</title>
<polygon fill="none" stroke="black" points="8,-393 8,-447 164,-447 164,-393 8,-393"/>
</g>
<g id="clust2" class="cluster">
<title>cluster_plot</title>
</g>
<!-- label -->
<g id="node1" class="node">
<title>label</title>
<text text-anchor="middle" x="86" y="-423.8" font-family="Times,serif" font-size="14.00">adstag1.2.40U66</text>
<text text-anchor="middle" x="86" y="-408.8" font-family="Times,serif" font-size="14.00">Con = 5</text>
</g>
<!-- 0 -->
<g id="node2" class="node">
<title>0</title>
<ellipse fill="none" stroke="black" cx="1505" cy="-263" rx="52.79" ry="18"/>
<text text-anchor="middle" x="1505" y="-259.3" font-family="Times,serif" font-size="14.00">M111 (a)</text>
</g>
<!-- 3 -->
<g id="node5" class="node">
<title>3</title>
<ellipse fill="none" stroke="black" cx="1506" cy="-190" rx="50.09" ry="18"/>
<text text-anchor="middle" x="1506" y="-186.3" font-family="Times,serif" font-size="14.00">A336 (a)</text>
</g>
<!-- 0&#45;&gt;3 -->
<g id="edge4" class="edge">
<title>0&#45;&gt;3</title>
<path fill="none" stroke="black" stroke-dasharray="5,2" d="M1505.24,-244.81C1505.36,-236.79 1505.49,-227.05 1505.62,-218.07"/>
<polygon fill="black" stroke="black" points="1509.12,-218.08 1505.76,-208.03 1502.12,-217.98 1509.12,-218.08"/>
</g>
<!-- 1 -->
<g id="node3" class="node">
<title>1</title>
<ellipse fill="none" stroke="black" cx="956" cy="-263" rx="50.09" ry="18"/>
<text text-anchor="middle" x="956" y="-259.3" font-family="Times,serif" font-size="14.00">Patm (a)</text>
</g>
<!-- 2 -->
<g id="node4" class="node">
<title>2</title>
<ellipse fill="none" stroke="black" cx="283" cy="-346" rx="50.09" ry="18"/>
<text text-anchor="middle" x="283" y="-342.3" font-family="Times,serif" font-size="14.00">V560 (a)</text>
</g>
<!-- 12 -->
<g id="node14" class="node">
<title>12</title>
<ellipse fill="none" stroke="black" cx="236" cy="-263" rx="55.79" ry="18"/>
<text text-anchor="middle" x="236" y="-259.3" font-family="Times,serif" font-size="14.00">V1920 (a)</text>
</g>
<!-- 2&#45;&gt;12 -->
<g id="edge12" class="edge">
<title>2&#45;&gt;12</title>
<path fill="none" stroke="black" stroke-dasharray="5,2" d="M273.26,-328.22C266.77,-317.03 258.12,-302.12 250.78,-289.48"/>
<polygon fill="black" stroke="black" points="253.77,-287.65 245.73,-280.76 247.72,-291.17 253.77,-287.65"/>
</g>
<!-- 4 -->
<g id="node6" class="node">
<title>4</title>
<ellipse fill="none" stroke="black" cx="1620" cy="-263" rx="44.39" ry="18"/>
<text text-anchor="middle" x="1620" y="-259.3" font-family="Times,serif" font-size="14.00">P74 (a)</text>
</g>
<!-- 5 -->
<g id="node7" class="node">
<title>5</title>
<ellipse fill="none" stroke="black" cx="351" cy="-263" rx="41.69" ry="18"/>
<text text-anchor="middle" x="351" y="-259.3" font-family="Times,serif" font-size="14.00">Est (a)</text>
</g>
<!-- 6 -->
<g id="node8" class="node">
<title>6</title>
<ellipse fill="none" stroke="black" cx="691" cy="-263" rx="47.39" ry="18"/>
<text text-anchor="middle" x="691" y="-259.3" font-family="Times,serif" font-size="14.00">Taur (b)</text>
</g>
<!-- 8 -->
<g id="node10" class="node">
<title>8</title>
<ellipse fill="none" stroke="black" cx="691" cy="-190" rx="50.09" ry="18"/>
<text text-anchor="middle" x="691" y="-186.3" font-family="Times,serif" font-size="14.00">Marc (b)</text>
</g>
<!-- 6&#45;&gt;8 -->
<g id="edge9" class="edge">
<title>6&#45;&gt;8</title>
<path fill="none" stroke="black" stroke-dasharray="1,5" d="M691,-244.81C691,-236.79 691,-227.05 691,-218.07"/>
<polygon fill="black" stroke="black" points="694.5,-218.03 691,-208.03 687.5,-218.03 694.5,-218.03"/>
</g>
<!-- 29 -->
<g id="node31" class="node">
<title>29</title>
<ellipse fill="none" stroke="black" cx="809" cy="-190" rx="50.09" ry="18"/>
<text text-anchor="middle" x="809" y="-186.3" font-family="Times,serif" font-size="14.00">V569 (b)</text>
</g>
<!-- 6&#45;&gt;29 -->
<g id="edge29" class="edge">
<title>6&#45;&gt;29</title>
<path fill="none" stroke="black" stroke-dasharray="5,2" d="M715.16,-247.46C732.63,-236.95 756.43,-222.63 775.7,-211.04"/>
<polygon fill="black" stroke="black" points="777.7,-213.92 784.46,-205.76 774.09,-207.92 777.7,-213.92"/>
</g>
<!-- 7 -->
<g id="node9" class="node">
<title>7</title>
<ellipse fill="none" stroke="black" cx="453" cy="-346" rx="55.79" ry="18"/>
<text text-anchor="middle" x="453" y="-342.3" font-family="Times,serif" font-size="14.00">V1897 (a)</text>
</g>
<!-- 7&#45;&gt;5 -->
<g id="edge6" class="edge">
<title>7&#45;&gt;5</title>
<path fill="none" stroke="black" stroke-dasharray="1,5" d="M432.85,-329C417.18,-316.56 395.29,-299.17 378.09,-285.52"/>
<polygon fill="black" stroke="black" points="380.08,-282.63 370.08,-279.15 375.73,-288.11 380.08,-282.63"/>
</g>
<!-- 42 -->
<g id="node44" class="node">
<title>42</title>
<ellipse fill="none" stroke="black" cx="453" cy="-263" rx="42.79" ry="18"/>
<text text-anchor="middle" x="453" y="-259.3" font-family="Times,serif" font-size="14.00">Bas (a)</text>
</g>
<!-- 7&#45;&gt;42 -->
<g id="edge42" class="edge">
<title>7&#45;&gt;42</title>
<path fill="none" stroke="black" d="M453,-327.82C453,-317.19 453,-303.31 453,-291.2"/>
<polygon fill="black" stroke="black" points="456.5,-291.15 453,-281.15 449.5,-291.15 456.5,-291.15"/>
</g>
<!-- 13 -->
<g id="node15" class="node">
<title>13</title>
<ellipse fill="none" stroke="black" cx="691" cy="-107" rx="46.59" ry="18"/>
<text text-anchor="middle" x="691" y="-103.3" font-family="Times,serif" font-size="14.00">Mon (b)</text>
</g>
<!-- 8&#45;&gt;13 -->
<g id="edge13" class="edge">
<title>8&#45;&gt;13</title>
<path fill="none" stroke="black" stroke-dasharray="1,5" d="M691,-171.82C691,-161.19 691,-147.31 691,-135.2"/>
<polygon fill="black" stroke="black" points="694.5,-135.15 691,-125.15 687.5,-135.15 694.5,-135.15"/>
</g>
<!-- 9 -->
<g id="node11" class="node">
<title>9</title>
<ellipse fill="none" stroke="black" cx="2568" cy="-263" rx="44.39" ry="18"/>
<text text-anchor="middle" x="2568" y="-259.3" font-family="Times,serif" font-size="14.00">B39 (a)</text>
</g>
<!-- 10 -->
<g id="node12" class="node">
<title>10</title>
<ellipse fill="none" stroke="black" cx="455" cy="-107" rx="52.79" ry="18"/>
<text text-anchor="middle" x="455" y="-103.3" font-family="Times,serif" font-size="14.00">M118 (a)</text>
</g>
<!-- 34 -->
<g id="node36" class="node">
<title>34</title>
<ellipse fill="none" stroke="gray" stroke-dasharray="5,2" cx="455" cy="-34" rx="28.7" ry="18"/>
<text text-anchor="middle" x="455" y="-30.3" font-family="Times,serif" font-size="14.00">P18</text>
</g>
<!-- 10&#45;&gt;34 -->
<g id="edge34" class="edge">
<title>10&#45;&gt;34</title>
<path fill="none" stroke="gray" stroke-dasharray="5,2" d="M455,-88.81C455,-80.79 455,-71.05 455,-62.07"/>
<polygon fill="gray" stroke="gray" points="458.5,-62.03 455,-52.03 451.5,-62.03 458.5,-62.03"/>
</g>
<!-- 11 -->
<g id="node13" class="node">
<title>11</title>
<ellipse fill="none" stroke="black" cx="1066" cy="-420" rx="53.89" ry="18"/>
<text text-anchor="middle" x="1066" y="-416.3" font-family="Times,serif" font-size="14.00">aBase (a)</text>
</g>
<!-- 11&#45;&gt;2 -->
<g id="edge3" class="edge">
<title>11&#45;&gt;2</title>
<path fill="none" stroke="black" stroke-width="2" d="M1013.11,-416.15C898.77,-409.66 620.13,-392.16 388,-364 371.3,-361.97 353.19,-359.24 336.79,-356.55"/>
<polygon fill="black" stroke="black" stroke-width="2" points="337.26,-353.08 326.82,-354.89 336.11,-359.99 337.26,-353.08"/>
</g>
<!-- 11&#45;&gt;7 -->
<g id="edge8" class="edge">
<title>11&#45;&gt;7</title>
<path fill="none" stroke="black" d="M1016.1,-413.14C904.86,-400.07 636.81,-368.59 515.05,-354.29"/>
<polygon fill="black" stroke="black" points="515.12,-350.77 504.78,-353.08 514.3,-357.72 515.12,-350.77"/>
</g>
<!-- 16 -->
<g id="node18" class="node">
<title>16</title>
<ellipse fill="none" stroke="black" cx="681" cy="-346" rx="52.79" ry="18"/>
<text text-anchor="middle" x="681" y="-342.3" font-family="Times,serif" font-size="14.00">M136 (a)</text>
</g>
<!-- 11&#45;&gt;16 -->
<g id="edge16" class="edge">
<title>11&#45;&gt;16</title>
<path fill="none" stroke="black" stroke-width="2" d="M1019.31,-410.97C959.57,-400.6 852.93,-381.76 762,-364 752.99,-362.24 743.43,-360.3 734.16,-358.38"/>
<polygon fill="black" stroke="black" stroke-width="2" points="734.76,-354.93 724.25,-356.31 733.33,-361.78 734.76,-354.93"/>
</g>
<!-- 17 -->
<g id="node19" class="node">
<title>17</title>
<ellipse fill="none" stroke="black" cx="822" cy="-346" rx="50.89" ry="18"/>
<text text-anchor="middle" x="822" y="-342.3" font-family="Times,serif" font-size="14.00">Neap (b)</text>
</g>
<!-- 11&#45;&gt;17 -->
<g id="edge17" class="edge">
<title>11&#45;&gt;17</title>
<path fill="none" stroke="blue" stroke-width="2" d="M1027.07,-407.51C984.2,-394.86 915.27,-374.52 869.32,-360.96"/>
<polygon fill="blue" stroke="blue" stroke-width="2" points="870.17,-357.57 859.59,-358.09 868.19,-364.28 870.17,-357.57"/>
</g>
<!-- 19 -->
<g id="node21" class="node">
<title>19</title>
<ellipse fill="none" stroke="black" cx="1014" cy="-346" rx="42.79" ry="18"/>
<text text-anchor="middle" x="1014" y="-342.3" font-family="Times,serif" font-size="14.00">La2 (a)</text>
</g>
<!-- 11&#45;&gt;19 -->
<g id="edge19" class="edge">
<title>11&#45;&gt;19</title>
<path fill="none" stroke="black" stroke-width="2" d="M1053.94,-402.3C1047.44,-393.3 1039.3,-382.02 1032.06,-372"/>
<polygon fill="black" stroke="black" stroke-width="2" points="1034.69,-369.67 1026,-363.61 1029.01,-373.76 1034.69,-369.67"/>
</g>
<!-- 22 -->
<g id="node24" class="node">
<title>22</title>
<ellipse fill="none" stroke="black" cx="1119" cy="-346" rx="44.39" ry="18"/>
<text text-anchor="middle" x="1119" y="-342.3" font-family="Times,serif" font-size="14.00">A25 (a)</text>
</g>
<!-- 11&#45;&gt;22 -->
<g id="edge22" class="edge">
<title>11&#45;&gt;22</title>
<path fill="none" stroke="black" stroke-dasharray="5,2" d="M1078.29,-402.3C1084.98,-393.21 1093.39,-381.8 1100.82,-371.7"/>
<polygon fill="black" stroke="black" points="1103.66,-373.74 1106.77,-363.61 1098.03,-369.59 1103.66,-373.74"/>
</g>
<!-- 24 -->
<g id="node26" class="node">
<title>24</title>
<ellipse fill="none" stroke="gray" stroke-dasharray="5,2" cx="1216" cy="-346" rx="34.39" ry="18"/>
<text text-anchor="middle" x="1216" y="-342.3" font-family="Times,serif" font-size="14.00">S249</text>
</g>
<!-- 11&#45;&gt;24 -->
<g id="edge24" class="edge">
<title>11&#45;&gt;24</title>
<path fill="none" stroke="gray" d="M1095.64,-404.78C1120.58,-392.8 1156.24,-375.68 1182.27,-363.19"/>
<polygon fill="gray" stroke="gray" points="1183.89,-366.3 1191.39,-358.81 1180.86,-359.99 1183.89,-366.3"/>
</g>
<!-- 26 -->
<g id="node28" class="node">
<title>26</title>
<ellipse fill="none" stroke="black" cx="1862" cy="-346" rx="48.99" ry="18"/>
<text text-anchor="middle" x="1862" y="-342.3" font-family="Times,serif" font-size="14.00">La22 (a)</text>
</g>
<!-- 11&#45;&gt;26 -->
<g id="edge26" class="edge">
<title>11&#45;&gt;26</title>
<path fill="none" stroke="black" stroke-dasharray="5,2" d="M1117.31,-414.36C1259.17,-401.53 1656,-365.63 1804.73,-352.18"/>
<polygon fill="black" stroke="black" points="1805.36,-355.64 1815.01,-351.25 1804.73,-348.67 1805.36,-355.64"/>
</g>
<!-- 36 -->
<g id="node38" class="node">
<title>36</title>
<ellipse fill="none" stroke="black" cx="1992" cy="-346" rx="44.69" ry="18"/>
<text text-anchor="middle" x="1992" y="-342.3" font-family="Times,serif" font-size="14.00">Nan (a)</text>
</g>
<!-- 11&#45;&gt;36 -->
<g id="edge36" class="edge">
<title>11&#45;&gt;36</title>
<path fill="none" stroke="black" d="M1120.29,-418.65C1255.92,-417.09 1620.23,-408.72 1920,-364 1928.49,-362.73 1937.46,-360.97 1946.07,-359.05"/>
<polygon fill="black" stroke="black" points="1947.02,-362.43 1955.97,-356.76 1945.44,-355.61 1947.02,-362.43"/>
</g>
<!-- 39 -->
<g id="node41" class="node">
<title>39</title>
<ellipse fill="none" stroke="black" cx="2116" cy="-346" rx="52.79" ry="18"/>
<text text-anchor="middle" x="2116" y="-342.3" font-family="Times,serif" font-size="14.00">LaSM (a)</text>
</g>
<!-- 11&#45;&gt;39 -->
<g id="edge39" class="edge">
<title>11&#45;&gt;39</title>
<path fill="none" stroke="black" d="M1119.31,-416.69C1238.03,-411.48 1533.16,-398.04 1780,-383 1898.3,-375.79 1928.89,-382.27 2046,-364 2052.64,-362.96 2059.58,-361.61 2066.4,-360.13"/>
<polygon fill="black" stroke="black" points="2067.29,-363.51 2076.25,-357.87 2065.72,-356.69 2067.29,-363.51"/>
</g>
<!-- 35 -->
<g id="node37" class="node">
<title>35</title>
<ellipse fill="none" stroke="black" cx="691" cy="-34" rx="41.69" ry="18"/>
<text text-anchor="middle" x="691" y="-30.3" font-family="Times,serif" font-size="14.00">Sin (b)</text>
</g>
<!-- 13&#45;&gt;35 -->
<g id="edge35" class="edge">
<title>13&#45;&gt;35</title>
<path fill="none" stroke="black" stroke-dasharray="1,5" d="M691,-88.81C691,-80.79 691,-71.05 691,-62.07"/>
<polygon fill="black" stroke="black" points="694.5,-62.03 691,-52.03 687.5,-62.03 694.5,-62.03"/>
</g>
<!-- 14 -->
<g id="node16" class="node">
<title>14</title>
<ellipse fill="none" stroke="gray" stroke-dasharray="5,2" cx="351" cy="-190" rx="36" ry="18"/>
<text text-anchor="middle" x="351" y="-186.3" font-family="Times,serif" font-size="14.00">La2&#45;c</text>
</g>
<!-- 15 -->
<g id="node17" class="node">
<title>15</title>
<ellipse fill="none" stroke="black" cx="1738" cy="-263" rx="55.79" ry="18"/>
<text text-anchor="middle" x="1738" y="-259.3" font-family="Times,serif" font-size="14.00">V2036 (a)</text>
</g>
<!-- 23 -->
<g id="node25" class="node">
<title>23</title>
<ellipse fill="none" stroke="black" cx="570" cy="-263" rx="55.79" ry="18"/>
<text text-anchor="middle" x="570" y="-259.3" font-family="Times,serif" font-size="14.00">V1629 (a)</text>
</g>
<!-- 16&#45;&gt;23 -->
<g id="edge23" class="edge">
<title>16&#45;&gt;23</title>
<path fill="none" stroke="black" stroke-dasharray="5,2" d="M659.6,-329.38C642.66,-317.02 618.81,-299.62 599.97,-285.87"/>
<polygon fill="black" stroke="black" points="601.86,-282.91 591.71,-279.85 597.73,-288.57 601.86,-282.91"/>
<text text-anchor="middle" x="635.5" y="-302" font-family="Times,serif" font-size="10.00">2</text>
</g>
<!-- 17&#45;&gt;6 -->
<g id="edge7" class="edge">
<title>17&#45;&gt;6</title>
<path fill="none" stroke="black" stroke-dasharray="5,2" d="M797.97,-330.14C777.11,-317.24 746.7,-298.44 723.63,-284.18"/>
<polygon fill="black" stroke="black" points="725.22,-281.04 714.88,-278.76 721.54,-287 725.22,-281.04"/>
<text text-anchor="middle" x="767.5" y="-302" font-family="Times,serif" font-size="10.00">3</text>
</g>
<!-- 20 -->
<g id="node22" class="node">
<title>20</title>
<ellipse fill="none" stroke="black" cx="822" cy="-263" rx="65.79" ry="18"/>
<text text-anchor="middle" x="822" y="-259.3" font-family="Times,serif" font-size="14.00">Savile&#45;Η (b)</text>
</g>
<!-- 17&#45;&gt;20 -->
<g id="edge20" class="edge">
<title>17&#45;&gt;20</title>
<path fill="none" stroke="black" stroke-dasharray="5,2" d="M822,-327.82C822,-317.19 822,-303.31 822,-291.2"/>
<polygon fill="black" stroke="black" points="825.5,-291.15 822,-281.15 818.5,-291.15 825.5,-291.15"/>
<text text-anchor="middle" x="825.5" y="-302" font-family="Times,serif" font-size="10.00">5</text>
</g>
<!-- 18 -->
<g id="node20" class="node">
<title>18</title>
<ellipse fill="none" stroke="black" cx="1862" cy="-263" rx="50.09" ry="18"/>
<text text-anchor="middle" x="1862" y="-259.3" font-family="Times,serif" font-size="14.00">V565 (a)</text>
</g>
<!-- 21 -->
<g id="node23" class="node">
<title>21</title>
<ellipse fill="none" stroke="black" cx="1068" cy="-263" rx="44.39" ry="18"/>
<text text-anchor="middle" x="1068" y="-259.3" font-family="Times,serif" font-size="14.00">P01 (a)</text>
</g>
<!-- 22&#45;&gt;1 -->
<g id="edge2" class="edge">
<title>22&#45;&gt;1</title>
<path fill="none" stroke="black" stroke-dasharray="1,5" d="M1092.08,-331.62C1065.16,-318.24 1023.52,-297.55 993.39,-282.58"/>
<polygon fill="black" stroke="black" points="994.56,-279.25 984.05,-277.94 991.45,-285.52 994.56,-279.25"/>
</g>
<!-- 22&#45;&gt;21 -->
<g id="edge21" class="edge">
<title>22&#45;&gt;21</title>
<path fill="none" stroke="black" stroke-dasharray="5,2" d="M1108.43,-328.22C1101.39,-317.03 1092,-302.12 1084.04,-289.48"/>
<polygon fill="black" stroke="black" points="1086.84,-287.36 1078.55,-280.76 1080.92,-291.09 1086.84,-287.36"/>
</g>
<!-- 28 -->
<g id="node30" class="node">
<title>28</title>
<ellipse fill="none" stroke="black" cx="1174" cy="-263" rx="44.39" ry="18"/>
<text text-anchor="middle" x="1174" y="-259.3" font-family="Times,serif" font-size="14.00">S32 (a)</text>
</g>
<!-- 22&#45;&gt;28 -->
<g id="edge28" class="edge">
<title>22&#45;&gt;28</title>
<path fill="none" stroke="black" stroke-dasharray="5,2" d="M1130.4,-328.22C1138.12,-316.85 1148.45,-301.63 1157.12,-288.86"/>
<polygon fill="black" stroke="black" points="1160.08,-290.72 1162.81,-280.48 1154.29,-286.79 1160.08,-290.72"/>
</g>
<!-- 32 -->
<g id="node34" class="node">
<title>32</title>
<ellipse fill="none" stroke="black" cx="1276" cy="-263" rx="40.09" ry="18"/>
<text text-anchor="middle" x="1276" y="-259.3" font-family="Times,serif" font-size="14.00">Pal (a)</text>
</g>
<!-- 22&#45;&gt;32 -->
<g id="edge32" class="edge">
<title>22&#45;&gt;32</title>
<path fill="none" stroke="black" stroke-dasharray="5,2" d="M1145.28,-331.44C1171.74,-317.79 1212.7,-296.66 1241.71,-281.69"/>
<polygon fill="black" stroke="black" points="1243.39,-284.76 1250.68,-277.06 1240.19,-278.54 1243.39,-284.76"/>
</g>
<!-- 37 -->
<g id="node39" class="node">
<title>37</title>
<ellipse fill="none" stroke="black" cx="1384" cy="-263" rx="50.09" ry="18"/>
<text text-anchor="middle" x="1384" y="-259.3" font-family="Times,serif" font-size="14.00">V566 (a)</text>
</g>
<!-- 22&#45;&gt;37 -->
<g id="edge37" class="edge">
<title>22&#45;&gt;37</title>
<path fill="none" stroke="black" stroke-dasharray="5,2" d="M1152.69,-334.34C1159.41,-332.22 1166.43,-330.03 1173,-328 1229.32,-310.59 1294.24,-290.97 1337.03,-278.09"/>
<polygon fill="black" stroke="black" points="1338.04,-281.44 1346.61,-275.21 1336.03,-274.74 1338.04,-281.44"/>
</g>
<!-- 23&#45;&gt;14 -->
<g id="edge14" class="edge">
<title>23&#45;&gt;14</title>
<path fill="none" stroke="gray" stroke-width="2" d="M530.04,-250.35C494.63,-239.84 441.62,-223.68 396,-208 393.42,-207.11 390.77,-206.18 388.11,-205.22"/>
<polygon fill="gray" stroke="gray" stroke-width="2" points="389.1,-201.86 378.51,-201.69 386.69,-208.43 389.1,-201.86"/>
</g>
<!-- 33 -->
<g id="node35" class="node">
<title>33</title>
<ellipse fill="none" stroke="black" cx="455" cy="-190" rx="50.09" ry="18"/>
<text text-anchor="middle" x="455" y="-186.3" font-family="Times,serif" font-size="14.00">V568 (a)</text>
</g>
<!-- 23&#45;&gt;33 -->
<g id="edge33" class="edge">
<title>23&#45;&gt;33</title>
<path fill="none" stroke="black" stroke-dasharray="5,2" d="M545.33,-246.77C528.54,-236.4 506.14,-222.57 487.84,-211.28"/>
<polygon fill="black" stroke="black" points="489.58,-208.24 479.23,-205.96 485.91,-214.19 489.58,-208.24"/>
</g>
<!-- 40 -->
<g id="node42" class="node">
<title>40</title>
<ellipse fill="none" stroke="black" cx="573" cy="-190" rx="50.09" ry="18"/>
<text text-anchor="middle" x="573" y="-186.3" font-family="Times,serif" font-size="14.00">V536 (a)</text>
</g>
<!-- 23&#45;&gt;40 -->
<g id="edge40" class="edge">
<title>23&#45;&gt;40</title>
<path fill="none" stroke="black" stroke-dasharray="5,2" d="M570.73,-244.81C571.07,-236.79 571.48,-227.05 571.86,-218.07"/>
<polygon fill="black" stroke="black" points="575.36,-218.17 572.28,-208.03 568.36,-217.87 575.36,-218.17"/>
</g>
<!-- 25 -->
<g id="node27" class="node">
<title>25</title>
<ellipse fill="none" stroke="black" cx="1980" cy="-263" rx="50.09" ry="18"/>
<text text-anchor="middle" x="1980" y="-259.3" font-family="Times,serif" font-size="14.00">V571 (a)</text>
</g>
<!-- 26&#45;&gt;0 -->
<g id="edge1" class="edge">
<title>26&#45;&gt;0</title>
<path fill="none" stroke="black" stroke-dasharray="1,5" d="M1819.82,-336.6C1762.42,-324.99 1656.58,-302.98 1567,-281 1562.85,-279.98 1558.56,-278.89 1554.26,-277.77"/>
<polygon fill="black" stroke="black" points="1554.84,-274.3 1544.27,-275.11 1553.04,-281.06 1554.84,-274.3"/>
</g>
<!-- 26&#45;&gt;4 -->
<g id="edge5" class="edge">
<title>26&#45;&gt;4</title>
<path fill="none" stroke="black" stroke-dasharray="1,5" d="M1827.07,-333.31C1783.57,-318.75 1709.29,-293.89 1662.52,-278.23"/>
<polygon fill="black" stroke="black" points="1663.57,-274.89 1652.98,-275.04 1661.35,-281.53 1663.57,-274.89"/>
</g>
<!-- 26&#45;&gt;15 -->
<g id="edge15" class="edge">
<title>26&#45;&gt;15</title>
<path fill="none" stroke="black" stroke-dasharray="5,2" d="M1838.97,-329.95C1819.64,-317.33 1791.81,-299.15 1770.26,-285.08"/>
<polygon fill="black" stroke="black" points="1772.04,-282.06 1761.75,-279.52 1768.21,-287.92 1772.04,-282.06"/>
</g>
<!-- 26&#45;&gt;18 -->
<g id="edge18" class="edge">
<title>26&#45;&gt;18</title>
<path fill="none" stroke="black" stroke-dasharray="5,2" d="M1862,-327.82C1862,-317.19 1862,-303.31 1862,-291.2"/>
<polygon fill="black" stroke="black" points="1865.5,-291.15 1862,-281.15 1858.5,-291.15 1865.5,-291.15"/>
</g>
<!-- 26&#45;&gt;25 -->
<g id="edge25" class="edge">
<title>26&#45;&gt;25</title>
<path fill="none" stroke="black" stroke-dasharray="1,5" d="M1884.19,-329.76C1902.65,-317.09 1929.12,-298.93 1949.56,-284.9"/>
<polygon fill="black" stroke="black" points="1951.64,-287.71 1957.9,-279.17 1947.68,-281.94 1951.64,-287.71"/>
</g>
<!-- 27 -->
<g id="node29" class="node">
<title>27</title>
<ellipse fill="none" stroke="black" cx="2097" cy="-263" rx="48.99" ry="18"/>
<text text-anchor="middle" x="2097" y="-259.3" font-family="Times,serif" font-size="14.00">La35 (a)</text>
</g>
<!-- 26&#45;&gt;27 -->
<g id="edge27" class="edge">
<title>26&#45;&gt;27</title>
<path fill="none" stroke="black" stroke-dasharray="1,5" d="M1896.42,-333.14C1937.87,-318.85 2007.57,-294.83 2052.92,-279.19"/>
<polygon fill="black" stroke="black" points="2054.17,-282.46 2062.49,-275.9 2051.89,-275.85 2054.17,-282.46"/>
</g>
<!-- 38 -->
<g id="node40" class="node">
<title>38</title>
<ellipse fill="none" stroke="black" cx="2214" cy="-263" rx="50.09" ry="18"/>
<text text-anchor="middle" x="2214" y="-259.3" font-family="Times,serif" font-size="14.00">A116 (b)</text>
</g>
<!-- 26&#45;&gt;38 -->
<g id="edge38" class="edge">
<title>26&#45;&gt;38</title>
<path fill="none" stroke="blue" stroke-dasharray="5,2" d="M1902.61,-335.86C1914.06,-333.3 1926.51,-330.53 1938,-328 2034.37,-306.78 2059.31,-305.12 2155,-281 2158.84,-280.03 2162.82,-278.98 2166.8,-277.9"/>
<polygon fill="blue" stroke="blue" points="2167.95,-281.22 2176.65,-275.17 2166.08,-274.47 2167.95,-281.22"/>
</g>
<!-- 41 -->
<g id="node43" class="node">
<title>41</title>
<ellipse fill="none" stroke="black" cx="2329" cy="-263" rx="46.59" ry="18"/>
<text text-anchor="middle" x="2329" y="-259.3" font-family="Times,serif" font-size="14.00">Bodl (a)</text>
</g>
<!-- 26&#45;&gt;41 -->
<g id="edge41" class="edge">
<title>26&#45;&gt;41</title>
<path fill="none" stroke="black" stroke-dasharray="5,2" d="M1901.71,-335.48C1913.37,-332.86 1926.16,-330.15 1938,-328 2011.96,-314.56 2199.59,-297.19 2273,-281 2276.85,-280.15 2280.82,-279.17 2284.79,-278.11"/>
<polygon fill="black" stroke="black" points="2285.89,-281.44 2294.57,-275.37 2284,-274.7 2285.89,-281.44"/>
</g>
<!-- 30 -->
<g id="node32" class="node">
<title>30</title>
<ellipse fill="none" stroke="black" cx="2450" cy="-263" rx="55.79" ry="18"/>
<text text-anchor="middle" x="2450" y="-259.3" font-family="Times,serif" font-size="14.00">V2250 (a)</text>
</g>
<!-- 31 -->
<g id="node33" class="node">
<title>31</title>
<ellipse fill="none" stroke="black" cx="1382" cy="-190" rx="55.79" ry="18"/>
<text text-anchor="middle" x="1382" y="-186.3" font-family="Times,serif" font-size="14.00">V1639 (a)</text>
</g>
<!-- 33&#45;&gt;10 -->
<g id="edge11" class="edge">
<title>33&#45;&gt;10</title>
<path fill="none" stroke="black" stroke-dasharray="5,2" d="M455,-171.82C455,-161.19 455,-147.31 455,-135.2"/>
<polygon fill="black" stroke="black" points="458.5,-135.15 455,-125.15 451.5,-135.15 458.5,-135.15"/>
<text text-anchor="middle" x="458.5" y="-146" font-family="Times,serif" font-size="10.00">2</text>
</g>
<!-- 36&#45;&gt;30 -->
<g id="edge30" class="edge">
<title>36&#45;&gt;30</title>
<path fill="none" stroke="black" stroke-dasharray="5,2" d="M2026.9,-334.6C2035.69,-332.21 2045.15,-329.83 2054,-328 2199.5,-297.85 2239.33,-310.29 2385,-281 2389.68,-280.06 2394.54,-278.98 2399.38,-277.84"/>
<polygon fill="black" stroke="black" points="2400.37,-281.2 2409.25,-275.42 2398.71,-274.4 2400.37,-281.2"/>
</g>
<!-- 37&#45;&gt;31 -->
<g id="edge31" class="edge">
<title>37&#45;&gt;31</title>
<path fill="none" stroke="black" stroke-dasharray="1,5" d="M1383.52,-244.81C1383.29,-236.79 1383.02,-227.05 1382.76,-218.07"/>
<polygon fill="black" stroke="black" points="1386.26,-217.93 1382.48,-208.03 1379.26,-218.12 1386.26,-217.93"/>
</g>
<!-- 39&#45;&gt;9 -->
<g id="edge10" class="edge">
<title>39&#45;&gt;9</title>
<path fill="none" stroke="black" stroke-dasharray="5,2" d="M2165.3,-339.53C2241.13,-330.57 2390.65,-310.74 2515,-281 2518.44,-280.18 2521.98,-279.24 2525.52,-278.24"/>
<polygon fill="black" stroke="black" points="2526.83,-281.51 2535.42,-275.3 2524.84,-274.8 2526.83,-281.51"/>
</g>
</g>
</svg>
