<?xml version="1.0" encoding="UTF-8" standalone="no"?>
<!DOCTYPE svg PUBLIC "-//W3C//DTD SVG 1.1//EN"
 "http://www.w3.org/Graphics/SVG/1.1/DTD/svg11.dtd">
<!-- Generated by graphviz version 2.43.0 (0)
 -->
<!-- Title: textual_flow Pages: 1 -->
<svg width="2212pt" height="556pt"
 viewBox="0.00 0.00 2212.00 556.00" xmlns="http://www.w3.org/2000/svg" xmlns:xlink="http://www.w3.org/1999/xlink">
<g id="graph0" class="graph" transform="scale(1 1) rotate(0) translate(4 552)">
<title>textual_flow</title>
<polygon fill="white" stroke="transparent" points="-4,4 -4,-552 2208,-552 2208,4 -4,4"/>
<g id="clust1" class="cluster">
<title>cluster_legend</title>
<polygon fill="none" stroke="black" points="8,-486 8,-540 186,-540 186,-486 8,-486"/>
</g>
<g id="clust2" class="cluster">
<title>cluster_plot</title>
</g>
<!-- label -->
<g id="node1" class="node">
<title>label</title>
<text text-anchor="middle" x="97" y="-516.8" font-family="Times,serif" font-size="14.00">adstag1.3.47U54&#45;60</text>
<text text-anchor="middle" x="97" y="-501.8" font-family="Times,serif" font-size="14.00">Con = 5</text>
</g>
<!-- 0 -->
<g id="node2" class="node">
<title>0</title>
<ellipse fill="none" stroke="black" cx="1145" cy="-346" rx="44.39" ry="18"/>
<text text-anchor="middle" x="1145" y="-342.3" font-family="Times,serif" font-size="14.00">P74 (a)</text>
</g>
<!-- 1 -->
<g id="node3" class="node">
<title>1</title>
<ellipse fill="none" stroke="black" cx="268" cy="-429" rx="65.79" ry="18"/>
<text text-anchor="middle" x="268" y="-425.3" font-family="Times,serif" font-size="14.00">V2036 (ar1)</text>
</g>
<!-- 2 -->
<g id="node4" class="node">
<title>2</title>
<ellipse fill="none" stroke="black" cx="1215" cy="-513" rx="53.89" ry="18"/>
<text text-anchor="middle" x="1215" y="-509.3" font-family="Times,serif" font-size="14.00">aBase (a)</text>
</g>
<!-- 2&#45;&gt;1 -->
<g id="edge2" class="edge">
<title>2&#45;&gt;1</title>
<path fill="none" stroke="black" d="M1161.55,-509.83C1054.85,-505.28 807.93,-493.68 601,-476 486.03,-466.18 456.78,-466.23 343,-447 337.27,-446.03 331.31,-444.9 325.38,-443.69"/>
<polygon fill="black" stroke="black" points="325.96,-440.23 315.45,-441.59 324.51,-447.08 325.96,-440.23"/>
</g>
<!-- 3 -->
<g id="node5" class="node">
<title>3</title>
<ellipse fill="none" stroke="black" cx="415" cy="-429" rx="63.09" ry="18"/>
<text text-anchor="middle" x="415" y="-425.3" font-family="Times,serif" font-size="14.00">LaSM (ar1)</text>
</g>
<!-- 2&#45;&gt;3 -->
<g id="edge3" class="edge">
<title>2&#45;&gt;3</title>
<path fill="none" stroke="black" d="M1161.61,-510.35C1040.68,-505.94 736.94,-491.03 487,-447 481.62,-446.05 476.05,-444.95 470.49,-443.77"/>
<polygon fill="black" stroke="black" points="471.06,-440.32 460.54,-441.59 469.56,-447.15 471.06,-440.32"/>
</g>
<!-- 6 -->
<g id="node8" class="node">
<title>6</title>
<ellipse fill="none" stroke="black" cx="538" cy="-429" rx="41.69" ry="18"/>
<text text-anchor="middle" x="538" y="-425.3" font-family="Times,serif" font-size="14.00">Est (a)</text>
</g>
<!-- 2&#45;&gt;6 -->
<g id="edge6" class="edge">
<title>2&#45;&gt;6</title>
<path fill="none" stroke="black" d="M1163.59,-507.31C1024,-494.49 644.61,-459 589,-447 585.41,-446.23 581.73,-445.29 578.05,-444.26"/>
<polygon fill="black" stroke="black" points="579.03,-440.89 568.44,-441.35 577,-447.6 579.03,-440.89"/>
<text text-anchor="middle" x="824.5" y="-468" font-family="Times,serif" font-size="10.00">3</text>
</g>
<!-- 7 -->
<g id="node9" class="node">
<title>7</title>
<ellipse fill="none" stroke="black" cx="642" cy="-429" rx="44.39" ry="18"/>
<text text-anchor="middle" x="642" y="-425.3" font-family="Times,serif" font-size="14.00">S32 (a)</text>
</g>
<!-- 2&#45;&gt;7 -->
<g id="edge7" class="edge">
<title>2&#45;&gt;7</title>
<path fill="none" stroke="black" d="M1169.61,-502.95C1114.9,-492.35 1020.07,-474.98 938,-465 830.5,-451.93 801.3,-467.68 695,-447 691.32,-446.28 687.54,-445.4 683.77,-444.4"/>
<polygon fill="black" stroke="black" points="684.49,-440.97 673.91,-441.58 682.56,-447.7 684.49,-440.97"/>
<text text-anchor="middle" x="1017.5" y="-468" font-family="Times,serif" font-size="10.00">3</text>
</g>
<!-- 9 -->
<g id="node11" class="node">
<title>9</title>
<ellipse fill="none" stroke="black" cx="759" cy="-429" rx="55.49" ry="18"/>
<text text-anchor="middle" x="759" y="-425.3" font-family="Times,serif" font-size="14.00">Nan (ar1)</text>
</g>
<!-- 2&#45;&gt;9 -->
<g id="edge9" class="edge">
<title>2&#45;&gt;9</title>
<path fill="none" stroke="black" d="M1181.25,-498.88C1151.43,-487.89 1106.49,-472.78 1066,-465 959.65,-444.57 929.79,-464.98 823,-447 818.22,-446.2 813.28,-445.19 808.36,-444.08"/>
<polygon fill="black" stroke="black" points="808.89,-440.61 798.35,-441.68 807.26,-447.42 808.89,-440.61"/>
</g>
<!-- 11 -->
<g id="node13" class="node">
<title>11</title>
<ellipse fill="none" stroke="black" cx="892" cy="-429" rx="59.59" ry="18"/>
<text text-anchor="middle" x="892" y="-425.3" font-family="Times,serif" font-size="14.00">V560 (ar1)</text>
</g>
<!-- 2&#45;&gt;11 -->
<g id="edge11" class="edge">
<title>2&#45;&gt;11</title>
<path fill="none" stroke="black" stroke-width="2" d="M1190.74,-496.7C1172.54,-486 1146.62,-472.34 1122,-465 1053,-444.44 1031.88,-459.64 961,-447 955.89,-446.09 950.6,-445.02 945.33,-443.87"/>
<polygon fill="black" stroke="black" stroke-width="2" points="945.78,-440.38 935.25,-441.57 944.22,-447.2 945.78,-440.38"/>
</g>
<!-- 14 -->
<g id="node16" class="node">
<title>14</title>
<ellipse fill="none" stroke="black" cx="1024" cy="-429" rx="53.89" ry="18"/>
<text text-anchor="middle" x="1024" y="-425.3" font-family="Times,serif" font-size="14.00">La2 (br1)</text>
</g>
<!-- 2&#45;&gt;14 -->
<g id="edge14" class="edge">
<title>2&#45;&gt;14</title>
<path fill="none" stroke="blue" stroke-width="2" d="M1197.84,-495.79C1186.26,-485.64 1170.18,-473 1154,-465 1126.36,-451.33 1116.77,-455.02 1087,-447 1082.94,-445.91 1078.73,-444.77 1074.5,-443.63"/>
<polygon fill="blue" stroke="blue" stroke-width="2" points="1075.23,-440.2 1064.67,-440.98 1073.41,-446.96 1075.23,-440.2"/>
</g>
<!-- 18 -->
<g id="node20" class="node">
<title>18</title>
<ellipse fill="none" stroke="black" cx="1150" cy="-429" rx="53.89" ry="18"/>
<text text-anchor="middle" x="1150" y="-425.3" font-family="Times,serif" font-size="14.00">A25 (ar1)</text>
</g>
<!-- 2&#45;&gt;18 -->
<g id="edge18" class="edge">
<title>2&#45;&gt;18</title>
<path fill="none" stroke="black" stroke-dasharray="5,2" d="M1201.85,-495.41C1192.6,-483.74 1180.06,-467.92 1169.63,-454.76"/>
<polygon fill="black" stroke="black" points="1172.09,-452.23 1163.13,-446.57 1166.6,-456.58 1172.09,-452.23"/>
</g>
<!-- 19 -->
<g id="node21" class="node">
<title>19</title>
<ellipse fill="none" stroke="black" cx="1282" cy="-429" rx="59.59" ry="18"/>
<text text-anchor="middle" x="1282" y="-425.3" font-family="Times,serif" font-size="14.00">S249 (ar1)</text>
</g>
<!-- 2&#45;&gt;19 -->
<g id="edge19" class="edge">
<title>2&#45;&gt;19</title>
<path fill="none" stroke="black" d="M1228.56,-495.41C1238.18,-483.62 1251.27,-467.62 1262.08,-454.39"/>
<polygon fill="black" stroke="black" points="1264.84,-456.53 1268.46,-446.57 1259.42,-452.1 1264.84,-456.53"/>
</g>
<!-- 21 -->
<g id="node23" class="node">
<title>21</title>
<ellipse fill="none" stroke="black" cx="1409" cy="-429" rx="48.99" ry="18"/>
<text text-anchor="middle" x="1409" y="-425.3" font-family="Times,serif" font-size="14.00">La22 (a)</text>
</g>
<!-- 2&#45;&gt;21 -->
<g id="edge21" class="edge">
<title>2&#45;&gt;21</title>
<path fill="none" stroke="black" stroke-dasharray="5,2" d="M1247.04,-498.46C1280.43,-484.35 1332.83,-462.2 1368.94,-446.93"/>
<polygon fill="black" stroke="black" points="1370.35,-450.14 1378.2,-443.02 1367.63,-443.69 1370.35,-450.14"/>
</g>
<!-- 23 -->
<g id="node25" class="node">
<title>23</title>
<ellipse fill="none" stroke="gray" stroke-dasharray="5,2" cx="1526" cy="-429" rx="50.09" ry="18"/>
<text text-anchor="middle" x="1526" y="-425.3" font-family="Times,serif" font-size="14.00">Savile&#45;Η</text>
</g>
<!-- 2&#45;&gt;23 -->
<g id="edge23" class="edge">
<title>2&#45;&gt;23</title>
<path fill="none" stroke="gray" stroke-width="2" d="M1257.01,-501.55C1307.11,-488.99 1393.34,-467.11 1467,-447 1470.77,-445.97 1474.67,-444.89 1478.58,-443.79"/>
<polygon fill="gray" stroke="gray" stroke-width="2" points="1479.61,-447.14 1488.27,-441.04 1477.7,-440.4 1479.61,-447.14"/>
</g>
<!-- 30 -->
<g id="node32" class="node">
<title>30</title>
<ellipse fill="none" stroke="black" cx="1647" cy="-429" rx="53.09" ry="18"/>
<text text-anchor="middle" x="1647" y="-425.3" font-family="Times,serif" font-size="14.00">M136 (d)</text>
</g>
<!-- 2&#45;&gt;30 -->
<g id="edge30" class="edge">
<title>2&#45;&gt;30</title>
<path fill="none" stroke="blue" stroke-width="2" d="M1263.48,-504.97C1334.44,-494.34 1470.61,-472.67 1585,-447 1589.17,-446.07 1593.47,-445.03 1597.78,-443.95"/>
<polygon fill="blue" stroke="blue" stroke-width="2" points="1598.98,-447.25 1607.78,-441.35 1597.22,-440.47 1598.98,-447.25"/>
</g>
<!-- 34 -->
<g id="node36" class="node">
<title>34</title>
<ellipse fill="none" stroke="black" cx="1762" cy="-429" rx="44.39" ry="18"/>
<text text-anchor="middle" x="1762" y="-425.3" font-family="Times,serif" font-size="14.00">B39 (a)</text>
</g>
<!-- 2&#45;&gt;34 -->
<g id="edge34" class="edge">
<title>2&#45;&gt;34</title>
<path fill="none" stroke="black" stroke-width="2" d="M1267.1,-508.24C1357.77,-501.01 1550.1,-482.63 1709,-447 1712.61,-446.19 1716.32,-445.24 1720.02,-444.22"/>
<polygon fill="black" stroke="black" stroke-width="2" points="1721.13,-447.54 1729.74,-441.36 1719.16,-440.83 1721.13,-447.54"/>
<text text-anchor="middle" x="1618.5" y="-468" font-family="Times,serif" font-size="10.00">2</text>
</g>
<!-- 35 -->
<g id="node37" class="node">
<title>35</title>
<ellipse fill="none" stroke="black" cx="1878" cy="-429" rx="53.89" ry="18"/>
<text text-anchor="middle" x="1878" y="-425.3" font-family="Times,serif" font-size="14.00">P01 (ar3)</text>
</g>
<!-- 2&#45;&gt;35 -->
<g id="edge35" class="edge">
<title>2&#45;&gt;35</title>
<path fill="none" stroke="black" d="M1268.13,-509.81C1373.47,-504.69 1615.86,-489.01 1815,-447 1819.42,-446.07 1824,-445.01 1828.57,-443.9"/>
<polygon fill="black" stroke="black" points="1829.67,-447.23 1838.51,-441.38 1827.95,-440.44 1829.67,-447.23"/>
<text text-anchor="middle" x="1720.5" y="-468" font-family="Times,serif" font-size="10.00">3</text>
</g>
<!-- 39 -->
<g id="node41" class="node">
<title>39</title>
<ellipse fill="none" stroke="black" cx="2010" cy="-429" rx="59.59" ry="18"/>
<text text-anchor="middle" x="2010" y="-425.3" font-family="Times,serif" font-size="14.00">Patm (ar1)</text>
</g>
<!-- 2&#45;&gt;39 -->
<g id="edge39" class="edge">
<title>2&#45;&gt;39</title>
<path fill="none" stroke="black" d="M1267.9,-509.43C1361.05,-504.65 1560.37,-493.27 1728,-476 1823.04,-466.21 1847.15,-464.9 1941,-447 1946.02,-446.04 1951.23,-444.95 1956.42,-443.79"/>
<polygon fill="black" stroke="black" points="1957.4,-447.16 1966.35,-441.5 1955.82,-440.34 1957.4,-447.16"/>
</g>
<!-- 41 -->
<g id="node43" class="node">
<title>41</title>
<ellipse fill="none" stroke="black" cx="2138" cy="-429" rx="50.09" ry="18"/>
<text text-anchor="middle" x="2138" y="-425.3" font-family="Times,serif" font-size="14.00">V566 (a)</text>
</g>
<!-- 2&#45;&gt;41 -->
<g id="edge41" class="edge">
<title>2&#45;&gt;41</title>
<path fill="none" stroke="black" d="M1267.81,-509.25C1368.09,-503.89 1592.98,-491.22 1782,-476 1914.2,-465.35 1948.73,-471.91 2079,-447 2083.18,-446.2 2087.49,-445.24 2091.8,-444.18"/>
<polygon fill="black" stroke="black" points="2092.96,-447.49 2101.74,-441.58 2091.18,-440.72 2092.96,-447.49"/>
<text text-anchor="middle" x="1954.5" y="-468" font-family="Times,serif" font-size="10.00">2</text>
</g>
<!-- 4 -->
<g id="node6" class="node">
<title>4</title>
<ellipse fill="none" stroke="black" cx="387" cy="-107" rx="46.29" ry="18"/>
<text text-anchor="middle" x="387" y="-103.3" font-family="Times,serif" font-size="14.00">Mon (a)</text>
</g>
<!-- 26 -->
<g id="node28" class="node">
<title>26</title>
<ellipse fill="none" stroke="black" cx="387" cy="-34" rx="40.89" ry="18"/>
<text text-anchor="middle" x="387" y="-30.3" font-family="Times,serif" font-size="14.00">Sin (a)</text>
</g>
<!-- 4&#45;&gt;26 -->
<g id="edge26" class="edge">
<title>4&#45;&gt;26</title>
<path fill="none" stroke="black" stroke-dasharray="1,5" d="M387,-88.81C387,-80.79 387,-71.05 387,-62.07"/>
<polygon fill="black" stroke="black" points="390.5,-62.03 387,-52.03 383.5,-62.03 390.5,-62.03"/>
</g>
<!-- 5 -->
<g id="node7" class="node">
<title>5</title>
<ellipse fill="none" stroke="black" cx="1984" cy="-346" rx="50.89" ry="18"/>
<text text-anchor="middle" x="1984" y="-342.3" font-family="Times,serif" font-size="14.00">Neap (d)</text>
</g>
<!-- 8 -->
<g id="node10" class="node">
<title>8</title>
<ellipse fill="none" stroke="black" cx="1984" cy="-263" rx="55.79" ry="18"/>
<text text-anchor="middle" x="1984" y="-259.3" font-family="Times,serif" font-size="14.00">V1629 (d)</text>
</g>
<!-- 5&#45;&gt;8 -->
<g id="edge8" class="edge">
<title>5&#45;&gt;8</title>
<path fill="none" stroke="black" stroke-dasharray="1,5" d="M1984,-327.82C1984,-317.19 1984,-303.31 1984,-291.2"/>
<polygon fill="black" stroke="black" points="1987.5,-291.15 1984,-281.15 1980.5,-291.15 1987.5,-291.15"/>
</g>
<!-- 40 -->
<g id="node42" class="node">
<title>40</title>
<ellipse fill="none" stroke="black" cx="505" cy="-346" rx="50.09" ry="18"/>
<text text-anchor="middle" x="505" y="-342.3" font-family="Times,serif" font-size="14.00">V536 (a)</text>
</g>
<!-- 6&#45;&gt;40 -->
<g id="edge40" class="edge">
<title>6&#45;&gt;40</title>
<path fill="none" stroke="black" d="M531.16,-411.22C526.72,-400.32 520.84,-385.89 515.78,-373.47"/>
<polygon fill="black" stroke="black" points="518.96,-371.98 511.94,-364.04 512.47,-374.62 518.96,-371.98"/>
<text text-anchor="middle" x="526.5" y="-385" font-family="Times,serif" font-size="10.00">5</text>
</g>
<!-- 12 -->
<g id="node14" class="node">
<title>12</title>
<ellipse fill="none" stroke="black" cx="1943" cy="-180" rx="50.09" ry="18"/>
<text text-anchor="middle" x="1943" y="-176.3" font-family="Times,serif" font-size="14.00">V568 (d)</text>
</g>
<!-- 8&#45;&gt;12 -->
<g id="edge12" class="edge">
<title>8&#45;&gt;12</title>
<path fill="none" stroke="black" stroke-dasharray="5,2" d="M1975.3,-244.82C1969.72,-233.79 1962.37,-219.27 1956.09,-206.86"/>
<polygon fill="black" stroke="black" points="1959.18,-205.22 1951.54,-197.88 1952.94,-208.38 1959.18,-205.22"/>
<text text-anchor="middle" x="1968.5" y="-219" font-family="Times,serif" font-size="10.00">2</text>
</g>
<!-- 25 -->
<g id="node27" class="node">
<title>25</title>
<ellipse fill="none" stroke="gray" stroke-dasharray="5,2" cx="2047" cy="-180" rx="36" ry="18"/>
<text text-anchor="middle" x="2047" y="-176.3" font-family="Times,serif" font-size="14.00">La2&#45;c</text>
</g>
<!-- 8&#45;&gt;25 -->
<g id="edge25" class="edge">
<title>8&#45;&gt;25</title>
<path fill="none" stroke="gray" stroke-width="2" d="M1997.05,-245.22C2006.1,-233.59 2018.28,-217.92 2028.35,-204.98"/>
<polygon fill="gray" stroke="gray" stroke-width="2" points="2031.23,-206.98 2034.61,-196.94 2025.7,-202.68 2031.23,-206.98"/>
</g>
<!-- 13 -->
<g id="node15" class="node">
<title>13</title>
<ellipse fill="none" stroke="black" cx="629" cy="-346" rx="55.79" ry="18"/>
<text text-anchor="middle" x="629" y="-342.3" font-family="Times,serif" font-size="14.00">V2250 (d)</text>
</g>
<!-- 9&#45;&gt;13 -->
<g id="edge13" class="edge">
<title>9&#45;&gt;13</title>
<path fill="none" stroke="blue" stroke-dasharray="5,2" d="M734.55,-412.76C714.16,-400.06 684.91,-381.84 662.37,-367.79"/>
<polygon fill="blue" stroke="blue" points="664.12,-364.76 653.78,-362.44 660.42,-370.7 664.12,-364.76"/>
</g>
<!-- 32 -->
<g id="node34" class="node">
<title>32</title>
<ellipse fill="none" stroke="black" cx="759" cy="-346" rx="55.79" ry="18"/>
<text text-anchor="middle" x="759" y="-342.3" font-family="Times,serif" font-size="14.00">V1897 (b)</text>
</g>
<!-- 9&#45;&gt;32 -->
<g id="edge32" class="edge">
<title>9&#45;&gt;32</title>
<path fill="none" stroke="blue" stroke-dasharray="1,5" d="M759,-410.82C759,-400.19 759,-386.31 759,-374.2"/>
<polygon fill="blue" stroke="blue" points="762.5,-374.15 759,-364.15 755.5,-374.15 762.5,-374.15"/>
</g>
<!-- 10 -->
<g id="node12" class="node">
<title>10</title>
<ellipse fill="none" stroke="gray" stroke-dasharray="5,2" cx="636" cy="-107" rx="28.7" ry="18"/>
<text text-anchor="middle" x="636" y="-103.3" font-family="Times,serif" font-size="14.00">P18</text>
</g>
<!-- 28 -->
<g id="node30" class="node">
<title>28</title>
<ellipse fill="none" stroke="black" cx="899" cy="-346" rx="65.79" ry="18"/>
<text text-anchor="middle" x="899" y="-342.3" font-family="Times,serif" font-size="14.00">V1920 (ar1)</text>
</g>
<!-- 11&#45;&gt;28 -->
<g id="edge28" class="edge">
<title>11&#45;&gt;28</title>
<path fill="none" stroke="black" stroke-dasharray="5,2" d="M893.48,-410.82C894.4,-400.19 895.6,-386.31 896.65,-374.2"/>
<polygon fill="black" stroke="black" points="900.14,-374.42 897.52,-364.15 893.17,-373.81 900.14,-374.42"/>
</g>
<!-- 15 -->
<g id="node17" class="node">
<title>15</title>
<ellipse fill="none" stroke="black" cx="505" cy="-263" rx="46.59" ry="18"/>
<text text-anchor="middle" x="505" y="-259.3" font-family="Times,serif" font-size="14.00">Taur (a)</text>
</g>
<!-- 24 -->
<g id="node26" class="node">
<title>24</title>
<ellipse fill="none" stroke="black" cx="387" cy="-180" rx="50.09" ry="18"/>
<text text-anchor="middle" x="387" y="-176.3" font-family="Times,serif" font-size="14.00">Marc (a)</text>
</g>
<!-- 15&#45;&gt;24 -->
<g id="edge24" class="edge">
<title>15&#45;&gt;24</title>
<path fill="none" stroke="black" stroke-dasharray="1,5" d="M483.08,-246.95C464.65,-234.3 438.11,-216.08 417.59,-202"/>
<polygon fill="black" stroke="black" points="419.43,-199.01 409.2,-196.24 415.47,-204.78 419.43,-199.01"/>
</g>
<!-- 27 -->
<g id="node29" class="node">
<title>27</title>
<ellipse fill="none" stroke="black" cx="505" cy="-180" rx="50.09" ry="18"/>
<text text-anchor="middle" x="505" y="-176.3" font-family="Times,serif" font-size="14.00">V569 (a)</text>
</g>
<!-- 15&#45;&gt;27 -->
<g id="edge27" class="edge">
<title>15&#45;&gt;27</title>
<path fill="none" stroke="black" stroke-dasharray="5,2" d="M505,-244.82C505,-234.19 505,-220.31 505,-208.2"/>
<polygon fill="black" stroke="black" points="508.5,-208.15 505,-198.15 501.5,-208.15 508.5,-208.15"/>
</g>
<!-- 42 -->
<g id="node44" class="node">
<title>42</title>
<ellipse fill="none" stroke="black" cx="636" cy="-180" rx="63.09" ry="18"/>
<text text-anchor="middle" x="636" y="-176.3" font-family="Times,serif" font-size="14.00">M118 (ar1)</text>
</g>
<!-- 15&#45;&gt;42 -->
<g id="edge42" class="edge">
<title>15&#45;&gt;42</title>
<path fill="none" stroke="black" stroke-dasharray="5,2" d="M528.72,-247.33C549.16,-234.69 578.91,-216.3 601.91,-202.08"/>
<polygon fill="black" stroke="black" points="604,-204.9 610.67,-196.66 600.32,-198.95 604,-204.9"/>
</g>
<!-- 16 -->
<g id="node18" class="node">
<title>16</title>
<ellipse fill="none" stroke="black" cx="2132" cy="-346" rx="55.79" ry="18"/>
<text text-anchor="middle" x="2132" y="-342.3" font-family="Times,serif" font-size="14.00">V1639 (a)</text>
</g>
<!-- 17 -->
<g id="node19" class="node">
<title>17</title>
<ellipse fill="none" stroke="black" cx="759" cy="-263" rx="42.49" ry="18"/>
<text text-anchor="middle" x="759" y="-259.3" font-family="Times,serif" font-size="14.00">Bas (c)</text>
</g>
<!-- 29 -->
<g id="node31" class="node">
<title>29</title>
<ellipse fill="none" stroke="black" cx="1033" cy="-346" rx="50.09" ry="18"/>
<text text-anchor="middle" x="1033" y="-342.3" font-family="Times,serif" font-size="14.00">Pal (ar1)</text>
</g>
<!-- 18&#45;&gt;29 -->
<g id="edge29" class="edge">
<title>18&#45;&gt;29</title>
<path fill="none" stroke="black" stroke-dasharray="5,2" d="M1127.72,-412.57C1109.5,-399.96 1083.56,-382 1063.43,-368.07"/>
<polygon fill="black" stroke="black" points="1065.41,-365.18 1055.2,-362.37 1061.43,-370.94 1065.41,-365.18"/>
</g>
<!-- 20 -->
<g id="node22" class="node">
<title>20</title>
<ellipse fill="none" stroke="black" cx="1260" cy="-346" rx="52.79" ry="18"/>
<text text-anchor="middle" x="1260" y="-342.3" font-family="Times,serif" font-size="14.00">M111 (a)</text>
</g>
<!-- 31 -->
<g id="node33" class="node">
<title>31</title>
<ellipse fill="none" stroke="black" cx="1260" cy="-263" rx="59.59" ry="18"/>
<text text-anchor="middle" x="1260" y="-259.3" font-family="Times,serif" font-size="14.00">A336 (ar1)</text>
</g>
<!-- 20&#45;&gt;31 -->
<g id="edge31" class="edge">
<title>20&#45;&gt;31</title>
<path fill="none" stroke="black" stroke-dasharray="5,2" d="M1260,-327.82C1260,-317.19 1260,-303.31 1260,-291.2"/>
<polygon fill="black" stroke="black" points="1263.5,-291.15 1260,-281.15 1256.5,-291.15 1263.5,-291.15"/>
</g>
<!-- 21&#45;&gt;0 -->
<g id="edge1" class="edge">
<title>21&#45;&gt;0</title>
<path fill="none" stroke="black" stroke-dasharray="1,5" d="M1372.35,-417.08C1330.22,-404.47 1259.03,-383.04 1198,-364 1194.86,-363.02 1191.63,-362 1188.37,-360.97"/>
<polygon fill="black" stroke="black" points="1189.21,-357.57 1178.62,-357.87 1187.09,-364.24 1189.21,-357.57"/>
</g>
<!-- 21&#45;&gt;20 -->
<g id="edge20" class="edge">
<title>21&#45;&gt;20</title>
<path fill="none" stroke="black" stroke-dasharray="1,5" d="M1382.7,-413.71C1358.57,-400.58 1322.59,-381.03 1295.83,-366.48"/>
<polygon fill="black" stroke="black" points="1297.24,-363.26 1286.79,-361.56 1293.9,-369.41 1297.24,-363.26"/>
</g>
<!-- 22 -->
<g id="node24" class="node">
<title>22</title>
<ellipse fill="none" stroke="black" cx="1381" cy="-346" rx="50.09" ry="18"/>
<text text-anchor="middle" x="1381" y="-342.3" font-family="Times,serif" font-size="14.00">V571 (a)</text>
</g>
<!-- 21&#45;&gt;22 -->
<g id="edge22" class="edge">
<title>21&#45;&gt;22</title>
<path fill="none" stroke="black" stroke-dasharray="1,5" d="M1403.06,-410.82C1399.35,-400.08 1394.49,-386.03 1390.28,-373.84"/>
<polygon fill="black" stroke="black" points="1393.5,-372.46 1386.93,-364.15 1386.89,-374.75 1393.5,-372.46"/>
</g>
<!-- 33 -->
<g id="node35" class="node">
<title>33</title>
<ellipse fill="none" stroke="black" cx="1496" cy="-346" rx="46.59" ry="18"/>
<text text-anchor="middle" x="1496" y="-342.3" font-family="Times,serif" font-size="14.00">Bodl (a)</text>
</g>
<!-- 21&#45;&gt;33 -->
<g id="edge33" class="edge">
<title>21&#45;&gt;33</title>
<path fill="none" stroke="black" stroke-dasharray="5,2" d="M1426.19,-412C1439.06,-400.02 1456.85,-383.45 1471.25,-370.04"/>
<polygon fill="black" stroke="black" points="1473.91,-372.35 1478.85,-362.97 1469.14,-367.22 1473.91,-372.35"/>
</g>
<!-- 36 -->
<g id="node38" class="node">
<title>36</title>
<ellipse fill="none" stroke="black" cx="1611" cy="-346" rx="50.09" ry="18"/>
<text text-anchor="middle" x="1611" y="-342.3" font-family="Times,serif" font-size="14.00">A116 (a)</text>
</g>
<!-- 21&#45;&gt;36 -->
<g id="edge36" class="edge">
<title>21&#45;&gt;36</title>
<path fill="none" stroke="black" stroke-dasharray="5,2" d="M1441.01,-415.17C1475.77,-401.22 1531.43,-378.91 1569.53,-363.63"/>
<polygon fill="black" stroke="black" points="1570.83,-366.88 1578.81,-359.91 1568.22,-360.38 1570.83,-366.88"/>
</g>
<!-- 37 -->
<g id="node39" class="node">
<title>37</title>
<ellipse fill="none" stroke="black" cx="1738" cy="-346" rx="59.29" ry="18"/>
<text text-anchor="middle" x="1738" y="-342.3" font-family="Times,serif" font-size="14.00">La35 (ar2)</text>
</g>
<!-- 21&#45;&gt;37 -->
<g id="edge37" class="edge">
<title>21&#45;&gt;37</title>
<path fill="none" stroke="black" stroke-dasharray="1,5" d="M1445.42,-416.98C1452.55,-414.92 1460,-412.84 1467,-411 1556.58,-387.52 1579.96,-385.68 1670,-364 1674.64,-362.88 1679.45,-361.71 1684.27,-360.53"/>
<polygon fill="black" stroke="black" points="1685.26,-363.88 1694.13,-358.09 1683.58,-357.09 1685.26,-363.88"/>
</g>
<!-- 38 -->
<g id="node40" class="node">
<title>38</title>
<ellipse fill="none" stroke="black" cx="1865" cy="-346" rx="50.09" ry="18"/>
<text text-anchor="middle" x="1865" y="-342.3" font-family="Times,serif" font-size="14.00">V565 (a)</text>
</g>
<!-- 21&#45;&gt;38 -->
<g id="edge38" class="edge">
<title>21&#45;&gt;38</title>
<path fill="none" stroke="black" stroke-dasharray="5,2" d="M1444.68,-416.65C1452.01,-414.57 1459.72,-412.56 1467,-411 1615.72,-379.08 1657.21,-395.58 1806,-364 1810.11,-363.13 1814.34,-362.12 1818.58,-361.05"/>
<polygon fill="black" stroke="black" points="1819.62,-364.39 1828.38,-358.43 1817.82,-357.63 1819.62,-364.39"/>
</g>
<!-- 24&#45;&gt;4 -->
<g id="edge4" class="edge">
<title>24&#45;&gt;4</title>
<path fill="none" stroke="black" stroke-dasharray="1,5" d="M387,-161.81C387,-153.79 387,-144.05 387,-135.07"/>
<polygon fill="black" stroke="black" points="390.5,-135.03 387,-125.03 383.5,-135.03 390.5,-135.03"/>
</g>
<!-- 30&#45;&gt;5 -->
<g id="edge5" class="edge">
<title>30&#45;&gt;5</title>
<path fill="none" stroke="black" stroke-dasharray="5,2" d="M1686.61,-416.81C1694.03,-414.8 1701.74,-412.79 1709,-411 1803.98,-387.62 1829.12,-387.79 1924,-364 1928.08,-362.98 1932.3,-361.88 1936.52,-360.74"/>
<polygon fill="black" stroke="black" points="1937.61,-364.07 1946.33,-358.05 1935.76,-357.32 1937.61,-364.07"/>
<text text-anchor="middle" x="1845.5" y="-385" font-family="Times,serif" font-size="10.00">2</text>
</g>
<!-- 32&#45;&gt;17 -->
<g id="edge17" class="edge">
<title>32&#45;&gt;17</title>
<path fill="none" stroke="blue" d="M759,-327.82C759,-317.19 759,-303.31 759,-291.2"/>
<polygon fill="blue" stroke="blue" points="762.5,-291.15 759,-281.15 755.5,-291.15 762.5,-291.15"/>
</g>
<!-- 40&#45;&gt;15 -->
<g id="edge15" class="edge">
<title>40&#45;&gt;15</title>
<path fill="none" stroke="black" stroke-dasharray="1,5" d="M505,-327.82C505,-317.19 505,-303.31 505,-291.2"/>
<polygon fill="black" stroke="black" points="508.5,-291.15 505,-281.15 501.5,-291.15 508.5,-291.15"/>
<text text-anchor="middle" x="508.5" y="-302" font-family="Times,serif" font-size="10.00">2</text>
</g>
<!-- 41&#45;&gt;16 -->
<g id="edge16" class="edge">
<title>41&#45;&gt;16</title>
<path fill="none" stroke="black" stroke-dasharray="1,5" d="M2136.73,-410.82C2135.94,-400.19 2134.91,-386.31 2134.02,-374.2"/>
<polygon fill="black" stroke="black" points="2137.5,-373.87 2133.27,-364.15 2130.52,-374.38 2137.5,-373.87"/>
</g>
<!-- 42&#45;&gt;10 -->
<g id="edge10" class="edge">
<title>42&#45;&gt;10</title>
<path fill="none" stroke="gray" stroke-dasharray="5,2" d="M636,-161.81C636,-153.79 636,-144.05 636,-135.07"/>
<polygon fill="gray" stroke="gray" points="639.5,-135.03 636,-125.03 632.5,-135.03 639.5,-135.03"/>
</g>
</g>
</svg>
