<?xml version="1.0" encoding="UTF-8" standalone="no"?>
<!DOCTYPE svg PUBLIC "-//W3C//DTD SVG 1.1//EN"
 "http://www.w3.org/Graphics/SVG/1.1/DTD/svg11.dtd">
<!-- Generated by graphviz version 2.43.0 (0)
 -->
<!-- Title: textual_flow Pages: 1 -->
<svg width="2276pt" height="546pt"
 viewBox="0.00 0.00 2276.00 546.00" xmlns="http://www.w3.org/2000/svg" xmlns:xlink="http://www.w3.org/1999/xlink">
<g id="graph0" class="graph" transform="scale(1 1) rotate(0) translate(4 542)">
<title>textual_flow</title>
<polygon fill="white" stroke="transparent" points="-4,4 -4,-542 2272,-542 2272,4 -4,4"/>
<g id="clust1" class="cluster">
<title>cluster_legend</title>
<polygon fill="none" stroke="black" points="8,-476 8,-530 164,-530 164,-476 8,-476"/>
</g>
<g id="clust2" class="cluster">
<title>cluster_plot</title>
</g>
<!-- label -->
<g id="node1" class="node">
<title>label</title>
<text text-anchor="middle" x="86" y="-506.8" font-family="Times,serif" font-size="14.00">adstag1.3.11U34</text>
<text text-anchor="middle" x="86" y="-491.8" font-family="Times,serif" font-size="14.00">Con = 15</text>
</g>
<!-- 0 -->
<g id="node2" class="node">
<title>0</title>
<ellipse fill="none" stroke="black" cx="1381" cy="-336" rx="52.79" ry="18"/>
<text text-anchor="middle" x="1381" y="-332.3" font-family="Times,serif" font-size="14.00">M111 (a)</text>
</g>
<!-- 18 -->
<g id="node20" class="node">
<title>18</title>
<ellipse fill="none" stroke="black" cx="1432" cy="-263" rx="50.09" ry="18"/>
<text text-anchor="middle" x="1432" y="-259.3" font-family="Times,serif" font-size="14.00">A336 (a)</text>
</g>
<!-- 0&#45;&gt;18 -->
<g id="edge19" class="edge">
<title>0&#45;&gt;18</title>
<path fill="none" stroke="black" stroke-dasharray="5,2" d="M1393.09,-318.17C1399.37,-309.42 1407.18,-298.55 1414.15,-288.85"/>
<polygon fill="black" stroke="black" points="1417.01,-290.87 1420,-280.71 1411.32,-286.79 1417.01,-290.87"/>
</g>
<!-- 1 -->
<g id="node3" class="node">
<title>1</title>
<ellipse fill="none" stroke="black" cx="900" cy="-180" rx="50.09" ry="18"/>
<text text-anchor="middle" x="900" y="-176.3" font-family="Times,serif" font-size="14.00">Marc (b)</text>
</g>
<!-- 28 -->
<g id="node30" class="node">
<title>28</title>
<ellipse fill="none" stroke="black" cx="900" cy="-107" rx="46.59" ry="18"/>
<text text-anchor="middle" x="900" y="-103.3" font-family="Times,serif" font-size="14.00">Mon (b)</text>
</g>
<!-- 1&#45;&gt;28 -->
<g id="edge29" class="edge">
<title>1&#45;&gt;28</title>
<path fill="none" stroke="black" stroke-dasharray="1,5" d="M900,-161.81C900,-153.79 900,-144.05 900,-135.07"/>
<polygon fill="black" stroke="black" points="903.5,-135.03 900,-125.03 896.5,-135.03 903.5,-135.03"/>
</g>
<!-- 2 -->
<g id="node4" class="node">
<title>2</title>
<ellipse fill="none" stroke="black" cx="1502" cy="-336" rx="50.09" ry="18"/>
<text text-anchor="middle" x="1502" y="-332.3" font-family="Times,serif" font-size="14.00">A116 (a)</text>
</g>
<!-- 3 -->
<g id="node5" class="node">
<title>3</title>
<ellipse fill="none" stroke="black" cx="1620" cy="-336" rx="50.09" ry="18"/>
<text text-anchor="middle" x="1620" y="-332.3" font-family="Times,serif" font-size="14.00">V565 (a)</text>
</g>
<!-- 4 -->
<g id="node6" class="node">
<title>4</title>
<ellipse fill="none" stroke="black" cx="900" cy="-34" rx="41.69" ry="18"/>
<text text-anchor="middle" x="900" y="-30.3" font-family="Times,serif" font-size="14.00">Sin (b)</text>
</g>
<!-- 5 -->
<g id="node7" class="node">
<title>5</title>
<ellipse fill="none" stroke="black" cx="237" cy="-419" rx="52.79" ry="18"/>
<text text-anchor="middle" x="237" y="-415.3" font-family="Times,serif" font-size="14.00">LaSM (a)</text>
</g>
<!-- 20 -->
<g id="node22" class="node">
<title>20</title>
<ellipse fill="none" stroke="black" cx="224" cy="-336" rx="44.39" ry="18"/>
<text text-anchor="middle" x="224" y="-332.3" font-family="Times,serif" font-size="14.00">B39 (a)</text>
</g>
<!-- 5&#45;&gt;20 -->
<g id="edge21" class="edge">
<title>5&#45;&gt;20</title>
<path fill="none" stroke="black" stroke-dasharray="5,2" d="M234.24,-400.82C232.54,-390.19 230.31,-376.31 228.37,-364.2"/>
<polygon fill="black" stroke="black" points="231.79,-363.47 226.75,-354.15 224.88,-364.58 231.79,-363.47"/>
</g>
<!-- 6 -->
<g id="node8" class="node">
<title>6</title>
<ellipse fill="none" stroke="black" cx="1744" cy="-336" rx="55.79" ry="18"/>
<text text-anchor="middle" x="1744" y="-332.3" font-family="Times,serif" font-size="14.00">V2036 (a)</text>
</g>
<!-- 7 -->
<g id="node9" class="node">
<title>7</title>
<ellipse fill="none" stroke="black" cx="1862" cy="-336" rx="44.39" ry="18"/>
<text text-anchor="middle" x="1862" y="-332.3" font-family="Times,serif" font-size="14.00">P74 (a)</text>
</g>
<!-- 8 -->
<g id="node10" class="node">
<title>8</title>
<ellipse fill="none" stroke="black" cx="466" cy="-336" rx="50.09" ry="18"/>
<text text-anchor="middle" x="466" y="-332.3" font-family="Times,serif" font-size="14.00">V566 (a)</text>
</g>
<!-- 12 -->
<g id="node14" class="node">
<title>12</title>
<ellipse fill="none" stroke="black" cx="466" cy="-263" rx="55.79" ry="18"/>
<text text-anchor="middle" x="466" y="-259.3" font-family="Times,serif" font-size="14.00">V1639 (a)</text>
</g>
<!-- 8&#45;&gt;12 -->
<g id="edge13" class="edge">
<title>8&#45;&gt;12</title>
<path fill="none" stroke="black" stroke-dasharray="1,5" d="M466,-317.81C466,-309.79 466,-300.05 466,-291.07"/>
<polygon fill="black" stroke="black" points="469.5,-291.03 466,-281.03 462.5,-291.03 469.5,-291.03"/>
</g>
<!-- 9 -->
<g id="node11" class="node">
<title>9</title>
<ellipse fill="none" stroke="gray" stroke-dasharray="5,2" cx="342" cy="-263" rx="36" ry="18"/>
<text text-anchor="middle" x="342" y="-259.3" font-family="Times,serif" font-size="14.00">La2&#45;c</text>
</g>
<!-- 10 -->
<g id="node12" class="node">
<title>10</title>
<ellipse fill="none" stroke="black" cx="366" cy="-419" rx="50.09" ry="18"/>
<text text-anchor="middle" x="366" y="-415.3" font-family="Times,serif" font-size="14.00">Neap (a)</text>
</g>
<!-- 24 -->
<g id="node26" class="node">
<title>24</title>
<ellipse fill="none" stroke="black" cx="342" cy="-336" rx="55.79" ry="18"/>
<text text-anchor="middle" x="342" y="-332.3" font-family="Times,serif" font-size="14.00">V1629 (a)</text>
</g>
<!-- 10&#45;&gt;24 -->
<g id="edge25" class="edge">
<title>10&#45;&gt;24</title>
<path fill="none" stroke="black" stroke-dasharray="1,5" d="M360.91,-400.82C357.73,-390.08 353.56,-376.03 349.95,-363.84"/>
<polygon fill="black" stroke="black" points="353.28,-362.75 347.08,-354.15 346.57,-364.74 353.28,-362.75"/>
</g>
<!-- 11 -->
<g id="node13" class="node">
<title>11</title>
<ellipse fill="none" stroke="black" cx="1067" cy="-263" rx="47.39" ry="18"/>
<text text-anchor="middle" x="1067" y="-259.3" font-family="Times,serif" font-size="14.00">Taur (b)</text>
</g>
<!-- 11&#45;&gt;1 -->
<g id="edge2" class="edge">
<title>11&#45;&gt;1</title>
<path fill="none" stroke="black" stroke-dasharray="1,5" d="M1039.05,-248.44C1011.28,-234.97 968.51,-214.23 937.74,-199.3"/>
<polygon fill="black" stroke="black" points="939.13,-196.09 928.6,-194.87 936.07,-202.39 939.13,-196.09"/>
</g>
<!-- 22 -->
<g id="node24" class="node">
<title>22</title>
<ellipse fill="none" stroke="black" cx="1018" cy="-180" rx="50.09" ry="18"/>
<text text-anchor="middle" x="1018" y="-176.3" font-family="Times,serif" font-size="14.00">V569 (b)</text>
</g>
<!-- 11&#45;&gt;22 -->
<g id="edge23" class="edge">
<title>11&#45;&gt;22</title>
<path fill="none" stroke="black" stroke-dasharray="5,2" d="M1056.85,-245.22C1050.08,-234.03 1041.06,-219.12 1033.41,-206.48"/>
<polygon fill="black" stroke="black" points="1036.31,-204.51 1028.14,-197.76 1030.32,-208.13 1036.31,-204.51"/>
</g>
<!-- 29 -->
<g id="node31" class="node">
<title>29</title>
<ellipse fill="none" stroke="black" cx="1139" cy="-180" rx="53.09" ry="18"/>
<text text-anchor="middle" x="1139" y="-176.3" font-family="Times,serif" font-size="14.00">M118 (b)</text>
</g>
<!-- 11&#45;&gt;29 -->
<g id="edge30" class="edge">
<title>11&#45;&gt;29</title>
<path fill="none" stroke="black" stroke-dasharray="5,2" d="M1081.57,-245.61C1091.91,-233.97 1105.97,-218.16 1117.59,-205.09"/>
<polygon fill="black" stroke="black" points="1120.42,-207.17 1124.45,-197.37 1115.19,-202.52 1120.42,-207.17"/>
</g>
<!-- 13 -->
<g id="node15" class="node">
<title>13</title>
<ellipse fill="none" stroke="black" cx="578" cy="-336" rx="44.39" ry="18"/>
<text text-anchor="middle" x="578" y="-332.3" font-family="Times,serif" font-size="14.00">S32 (a)</text>
</g>
<!-- 14 -->
<g id="node16" class="node">
<title>14</title>
<ellipse fill="none" stroke="black" cx="482" cy="-419" rx="43.59" ry="18"/>
<text text-anchor="middle" x="482" y="-415.3" font-family="Times,serif" font-size="14.00">La2 (b)</text>
</g>
<!-- 15 -->
<g id="node17" class="node">
<title>15</title>
<ellipse fill="none" stroke="gray" stroke-dasharray="5,2" cx="578" cy="-419" rx="34.39" ry="18"/>
<text text-anchor="middle" x="578" y="-415.3" font-family="Times,serif" font-size="14.00">S249</text>
</g>
<!-- 16 -->
<g id="node18" class="node">
<title>16</title>
<ellipse fill="none" stroke="black" cx="683" cy="-419" rx="52.79" ry="18"/>
<text text-anchor="middle" x="683" y="-415.3" font-family="Times,serif" font-size="14.00">M136 (a)</text>
</g>
<!-- 17 -->
<g id="node19" class="node">
<title>17</title>
<ellipse fill="none" stroke="black" cx="1973" cy="-336" rx="48.99" ry="18"/>
<text text-anchor="middle" x="1973" y="-332.3" font-family="Times,serif" font-size="14.00">La35 (a)</text>
</g>
<!-- 19 -->
<g id="node21" class="node">
<title>19</title>
<ellipse fill="none" stroke="black" cx="2090" cy="-336" rx="50.09" ry="18"/>
<text text-anchor="middle" x="2090" y="-332.3" font-family="Times,serif" font-size="14.00">V571 (a)</text>
</g>
<!-- 21 -->
<g id="node23" class="node">
<title>21</title>
<ellipse fill="none" stroke="black" cx="798" cy="-419" rx="44.39" ry="18"/>
<text text-anchor="middle" x="798" y="-415.3" font-family="Times,serif" font-size="14.00">A25 (a)</text>
</g>
<!-- 21&#45;&gt;8 -->
<g id="edge9" class="edge">
<title>21&#45;&gt;8</title>
<path fill="none" stroke="black" stroke-dasharray="5,2" d="M765.07,-406.88C758.46,-404.8 751.54,-402.74 745,-401 648.39,-375.25 621.99,-378.3 525,-354 521.15,-353.04 517.18,-351.99 513.2,-350.92"/>
<polygon fill="black" stroke="black" points="513.92,-347.48 503.35,-348.19 512.05,-354.23 513.92,-347.48"/>
</g>
<!-- 21&#45;&gt;13 -->
<g id="edge14" class="edge">
<title>21&#45;&gt;13</title>
<path fill="none" stroke="black" stroke-dasharray="5,2" d="M766.01,-406.22C727.2,-391.93 661.71,-367.82 619.17,-352.16"/>
<polygon fill="black" stroke="black" points="620.27,-348.83 609.67,-348.66 617.85,-355.4 620.27,-348.83"/>
</g>
<!-- 34 -->
<g id="node36" class="node">
<title>34</title>
<ellipse fill="none" stroke="black" cx="690" cy="-336" rx="50.09" ry="18"/>
<text text-anchor="middle" x="690" y="-332.3" font-family="Times,serif" font-size="14.00">Patm (a)</text>
</g>
<!-- 21&#45;&gt;34 -->
<g id="edge35" class="edge">
<title>21&#45;&gt;34</title>
<path fill="none" stroke="black" stroke-dasharray="1,5" d="M777.94,-402.95C761.33,-390.5 737.51,-372.63 718.85,-358.64"/>
<polygon fill="black" stroke="black" points="720.79,-355.72 710.69,-352.52 716.59,-361.32 720.79,-355.72"/>
</g>
<!-- 36 -->
<g id="node38" class="node">
<title>36</title>
<ellipse fill="none" stroke="black" cx="798" cy="-336" rx="40.09" ry="18"/>
<text text-anchor="middle" x="798" y="-332.3" font-family="Times,serif" font-size="14.00">Pal (a)</text>
</g>
<!-- 21&#45;&gt;36 -->
<g id="edge37" class="edge">
<title>21&#45;&gt;36</title>
<path fill="none" stroke="black" stroke-dasharray="5,2" d="M798,-400.82C798,-390.19 798,-376.31 798,-364.2"/>
<polygon fill="black" stroke="black" points="801.5,-364.15 798,-354.15 794.5,-364.15 801.5,-364.15"/>
</g>
<!-- 37 -->
<g id="node39" class="node">
<title>37</title>
<ellipse fill="none" stroke="black" cx="900" cy="-336" rx="44.39" ry="18"/>
<text text-anchor="middle" x="900" y="-332.3" font-family="Times,serif" font-size="14.00">P01 (a)</text>
</g>
<!-- 21&#45;&gt;37 -->
<g id="edge38" class="edge">
<title>21&#45;&gt;37</title>
<path fill="none" stroke="black" stroke-dasharray="5,2" d="M817.19,-402.76C832.76,-390.4 854.92,-372.8 872.4,-358.92"/>
<polygon fill="black" stroke="black" points="874.9,-361.4 880.55,-352.44 870.55,-355.92 874.9,-361.4"/>
</g>
<!-- 23 -->
<g id="node25" class="node">
<title>23</title>
<ellipse fill="none" stroke="black" cx="1012" cy="-419" rx="45.49" ry="18"/>
<text text-anchor="middle" x="1012" y="-415.3" font-family="Times,serif" font-size="14.00">Nan (b)</text>
</g>
<!-- 32 -->
<g id="node34" class="node">
<title>32</title>
<ellipse fill="none" stroke="black" cx="1012" cy="-336" rx="50.09" ry="18"/>
<text text-anchor="middle" x="1012" y="-332.3" font-family="Times,serif" font-size="14.00">V536 (b)</text>
</g>
<!-- 23&#45;&gt;32 -->
<g id="edge33" class="edge">
<title>23&#45;&gt;32</title>
<path fill="none" stroke="black" stroke-width="2" d="M1012,-400.82C1012,-390.19 1012,-376.31 1012,-364.2"/>
<polygon fill="black" stroke="black" stroke-width="2" points="1015.5,-364.15 1012,-354.15 1008.5,-364.15 1015.5,-364.15"/>
<text text-anchor="middle" x="1015.5" y="-375" font-family="Times,serif" font-size="10.00">3</text>
</g>
<!-- 38 -->
<g id="node40" class="node">
<title>38</title>
<ellipse fill="none" stroke="black" cx="1130" cy="-336" rx="50.09" ry="18"/>
<text text-anchor="middle" x="1130" y="-332.3" font-family="Times,serif" font-size="14.00">V568 (b)</text>
</g>
<!-- 23&#45;&gt;38 -->
<g id="edge39" class="edge">
<title>23&#45;&gt;38</title>
<path fill="none" stroke="black" stroke-width="2" d="M1033.64,-403.14C1052.04,-390.52 1078.67,-372.24 1099.27,-358.09"/>
<polygon fill="black" stroke="black" stroke-width="2" points="1101.43,-360.86 1107.69,-352.31 1097.47,-355.09 1101.43,-360.86"/>
<text text-anchor="middle" x="1081.5" y="-375" font-family="Times,serif" font-size="10.00">3</text>
</g>
<!-- 42 -->
<g id="node44" class="node">
<title>42</title>
<ellipse fill="none" stroke="black" cx="1254" cy="-336" rx="55.79" ry="18"/>
<text text-anchor="middle" x="1254" y="-332.3" font-family="Times,serif" font-size="14.00">V1897 (b)</text>
</g>
<!-- 23&#45;&gt;42 -->
<g id="edge42" class="edge">
<title>23&#45;&gt;42</title>
<path fill="none" stroke="black" stroke-dasharray="1,5" d="M1045.65,-406.74C1087.6,-392.7 1159.55,-368.61 1206.95,-352.75"/>
<polygon fill="black" stroke="black" points="1208.3,-355.99 1216.67,-349.5 1206.07,-349.35 1208.3,-355.99"/>
</g>
<!-- 24&#45;&gt;9 -->
<g id="edge10" class="edge">
<title>24&#45;&gt;9</title>
<path fill="none" stroke="gray" stroke-width="2" d="M342,-317.81C342,-309.79 342,-300.05 342,-291.07"/>
<polygon fill="gray" stroke="gray" stroke-width="2" points="345.5,-291.03 342,-281.03 338.5,-291.03 345.5,-291.03"/>
</g>
<!-- 25 -->
<g id="node27" class="node">
<title>25</title>
<ellipse fill="none" stroke="black" cx="1131" cy="-419" rx="55.79" ry="18"/>
<text text-anchor="middle" x="1131" y="-415.3" font-family="Times,serif" font-size="14.00">V2250 (a)</text>
</g>
<!-- 26 -->
<g id="node28" class="node">
<title>26</title>
<ellipse fill="none" stroke="black" cx="1682" cy="-419" rx="48.99" ry="18"/>
<text text-anchor="middle" x="1682" y="-415.3" font-family="Times,serif" font-size="14.00">La22 (a)</text>
</g>
<!-- 26&#45;&gt;0 -->
<g id="edge1" class="edge">
<title>26&#45;&gt;0</title>
<path fill="none" stroke="black" stroke-dasharray="1,5" d="M1643.48,-407.76C1596.23,-395.18 1513.69,-373.16 1443,-354 1438.94,-352.9 1434.73,-351.76 1430.51,-350.6"/>
<polygon fill="black" stroke="black" points="1431.25,-347.18 1420.68,-347.92 1429.4,-353.93 1431.25,-347.18"/>
</g>
<!-- 26&#45;&gt;2 -->
<g id="edge3" class="edge">
<title>26&#45;&gt;2</title>
<path fill="none" stroke="black" stroke-dasharray="5,2" d="M1652.28,-404.62C1622.01,-391.01 1574.92,-369.81 1541.53,-354.79"/>
<polygon fill="black" stroke="black" points="1542.62,-351.44 1532.07,-350.53 1539.75,-357.83 1542.62,-351.44"/>
</g>
<!-- 26&#45;&gt;3 -->
<g id="edge4" class="edge">
<title>26&#45;&gt;3</title>
<path fill="none" stroke="black" stroke-dasharray="5,2" d="M1669.15,-401.22C1660.37,-389.74 1648.58,-374.33 1638.74,-361.49"/>
<polygon fill="black" stroke="black" points="1641.48,-359.3 1632.62,-353.48 1635.92,-363.55 1641.48,-359.3"/>
</g>
<!-- 26&#45;&gt;6 -->
<g id="edge7" class="edge">
<title>26&#45;&gt;6</title>
<path fill="none" stroke="black" stroke-dasharray="5,2" d="M1694.85,-401.22C1703.58,-389.81 1715.27,-374.54 1725.06,-361.74"/>
<polygon fill="black" stroke="black" points="1727.87,-363.83 1731.17,-353.76 1722.31,-359.58 1727.87,-363.83"/>
</g>
<!-- 26&#45;&gt;7 -->
<g id="edge8" class="edge">
<title>26&#45;&gt;7</title>
<path fill="none" stroke="black" stroke-dasharray="1,5" d="M1711.72,-404.62C1742.44,-390.8 1790.5,-369.18 1823.97,-354.11"/>
<polygon fill="black" stroke="black" points="1825.74,-357.16 1833.42,-349.86 1822.87,-350.77 1825.74,-357.16"/>
</g>
<!-- 26&#45;&gt;17 -->
<g id="edge18" class="edge">
<title>26&#45;&gt;17</title>
<path fill="none" stroke="black" stroke-dasharray="1,5" d="M1718.78,-407.08C1725.82,-405.03 1733.13,-402.93 1740,-401 1817.54,-379.23 1837.46,-375.77 1915,-354 1918.76,-352.95 1922.65,-351.84 1926.55,-350.72"/>
<polygon fill="black" stroke="black" points="1927.58,-354.06 1936.22,-347.92 1925.64,-347.34 1927.58,-354.06"/>
</g>
<!-- 26&#45;&gt;19 -->
<g id="edge20" class="edge">
<title>26&#45;&gt;19</title>
<path fill="none" stroke="black" stroke-dasharray="1,5" d="M1718.02,-406.69C1725.25,-404.63 1732.84,-402.62 1740,-401 1867.78,-372.07 1903.16,-382.63 2031,-354 2035.1,-353.08 2039.33,-352.05 2043.56,-350.95"/>
<polygon fill="black" stroke="black" points="2044.61,-354.29 2053.35,-348.3 2042.79,-347.53 2044.61,-354.29"/>
</g>
<!-- 39 -->
<g id="node41" class="node">
<title>39</title>
<ellipse fill="none" stroke="black" cx="2205" cy="-336" rx="46.59" ry="18"/>
<text text-anchor="middle" x="2205" y="-332.3" font-family="Times,serif" font-size="14.00">Bodl (a)</text>
</g>
<!-- 26&#45;&gt;39 -->
<g id="edge40" class="edge">
<title>26&#45;&gt;39</title>
<path fill="none" stroke="black" stroke-dasharray="5,2" d="M1717.34,-406.6C1724.77,-404.5 1732.6,-402.5 1740,-401 1784.83,-391.92 2104.21,-363.29 2149,-354 2152.92,-353.19 2156.95,-352.22 2160.98,-351.17"/>
<polygon fill="black" stroke="black" points="2162.2,-354.47 2170.9,-348.42 2160.33,-347.72 2162.2,-354.47"/>
</g>
<!-- 27 -->
<g id="node29" class="node">
<title>27</title>
<ellipse fill="none" stroke="black" cx="1260" cy="-180" rx="50.09" ry="18"/>
<text text-anchor="middle" x="1260" y="-176.3" font-family="Times,serif" font-size="14.00">V560 (b)</text>
</g>
<!-- 41 -->
<g id="node43" class="node">
<title>41</title>
<ellipse fill="none" stroke="black" cx="1260" cy="-107" rx="55.79" ry="18"/>
<text text-anchor="middle" x="1260" y="-103.3" font-family="Times,serif" font-size="14.00">V1920 (b)</text>
</g>
<!-- 27&#45;&gt;41 -->
<g id="edge41" class="edge">
<title>27&#45;&gt;41</title>
<path fill="none" stroke="black" stroke-dasharray="5,2" d="M1260,-161.81C1260,-153.79 1260,-144.05 1260,-135.07"/>
<polygon fill="black" stroke="black" points="1263.5,-135.03 1260,-125.03 1256.5,-135.03 1263.5,-135.03"/>
</g>
<!-- 28&#45;&gt;4 -->
<g id="edge5" class="edge">
<title>28&#45;&gt;4</title>
<path fill="none" stroke="black" stroke-dasharray="1,5" d="M900,-88.81C900,-80.79 900,-71.05 900,-62.07"/>
<polygon fill="black" stroke="black" points="903.5,-62.03 900,-52.03 896.5,-62.03 903.5,-62.03"/>
</g>
<!-- 31 -->
<g id="node33" class="node">
<title>31</title>
<ellipse fill="none" stroke="gray" stroke-dasharray="5,2" cx="1139" cy="-107" rx="28.7" ry="18"/>
<text text-anchor="middle" x="1139" y="-103.3" font-family="Times,serif" font-size="14.00">P18</text>
</g>
<!-- 29&#45;&gt;31 -->
<g id="edge32" class="edge">
<title>29&#45;&gt;31</title>
<path fill="none" stroke="gray" stroke-dasharray="5,2" d="M1139,-161.81C1139,-153.79 1139,-144.05 1139,-135.07"/>
<polygon fill="gray" stroke="gray" points="1142.5,-135.03 1139,-125.03 1135.5,-135.03 1142.5,-135.03"/>
</g>
<!-- 30 -->
<g id="node32" class="node">
<title>30</title>
<ellipse fill="none" stroke="gray" stroke-dasharray="5,2" cx="1799" cy="-419" rx="50.09" ry="18"/>
<text text-anchor="middle" x="1799" y="-415.3" font-family="Times,serif" font-size="14.00">Savile&#45;Η</text>
</g>
<!-- 33 -->
<g id="node35" class="node">
<title>33</title>
<ellipse fill="none" stroke="black" cx="1216" cy="-263" rx="42.49" ry="18"/>
<text text-anchor="middle" x="1216" y="-259.3" font-family="Times,serif" font-size="14.00">Est (b)</text>
</g>
<!-- 33&#45;&gt;27 -->
<g id="edge28" class="edge">
<title>33&#45;&gt;27</title>
<path fill="none" stroke="black" d="M1225.12,-245.22C1231.13,-234.14 1239.14,-219.41 1245.96,-206.85"/>
<polygon fill="black" stroke="black" points="1249.2,-208.22 1250.89,-197.76 1243.05,-204.88 1249.2,-208.22"/>
<text text-anchor="middle" x="1246.5" y="-219" font-family="Times,serif" font-size="10.00">14</text>
</g>
<!-- 35 -->
<g id="node37" class="node">
<title>35</title>
<ellipse fill="none" stroke="black" cx="1320" cy="-263" rx="43.59" ry="18"/>
<text text-anchor="middle" x="1320" y="-259.3" font-family="Times,serif" font-size="14.00">Bas (b)</text>
</g>
<!-- 38&#45;&gt;11 -->
<g id="edge12" class="edge">
<title>38&#45;&gt;11</title>
<path fill="none" stroke="black" stroke-dasharray="1,5" d="M1115.39,-318.53C1107.36,-309.48 1097.25,-298.09 1088.35,-288.06"/>
<polygon fill="black" stroke="black" points="1090.79,-285.53 1081.53,-280.38 1085.55,-290.18 1090.79,-285.53"/>
</g>
<!-- 40 -->
<g id="node42" class="node">
<title>40</title>
<ellipse fill="none" stroke="black" cx="740" cy="-503" rx="53.89" ry="18"/>
<text text-anchor="middle" x="740" y="-499.3" font-family="Times,serif" font-size="14.00">aBase (a)</text>
</g>
<!-- 40&#45;&gt;5 -->
<g id="edge6" class="edge">
<title>40&#45;&gt;5</title>
<path fill="none" stroke="black" d="M690.07,-495.98C609.23,-485.9 444.82,-464.02 307,-437 300.72,-435.77 294.15,-434.35 287.66,-432.87"/>
<polygon fill="black" stroke="black" points="288.12,-429.38 277.58,-430.5 286.52,-436.19 288.12,-429.38"/>
</g>
<!-- 40&#45;&gt;10 -->
<g id="edge11" class="edge">
<title>40&#45;&gt;10</title>
<path fill="none" stroke="black" stroke-width="2" d="M694.23,-493.29C633.42,-481.52 522.75,-459.43 429,-437 424.1,-435.83 419,-434.55 413.92,-433.24"/>
<polygon fill="black" stroke="black" stroke-width="2" points="414.78,-429.85 404.22,-430.69 413.01,-436.62 414.78,-429.85"/>
</g>
<!-- 40&#45;&gt;14 -->
<g id="edge15" class="edge">
<title>40&#45;&gt;14</title>
<path fill="none" stroke="blue" stroke-width="2" d="M702.2,-490.06C661.06,-477.05 593.34,-455.6 535,-437 531.72,-435.96 528.34,-434.87 524.93,-433.78"/>
<polygon fill="blue" stroke="blue" stroke-width="2" points="525.95,-430.43 515.36,-430.72 523.81,-437.1 525.95,-430.43"/>
</g>
<!-- 40&#45;&gt;15 -->
<g id="edge16" class="edge">
<title>40&#45;&gt;15</title>
<path fill="none" stroke="gray" d="M711.41,-487.53C683.3,-473.3 640.42,-451.6 610.91,-436.66"/>
<polygon fill="gray" stroke="gray" points="612.33,-433.45 601.83,-432.06 609.17,-439.7 612.33,-433.45"/>
</g>
<!-- 40&#45;&gt;16 -->
<g id="edge17" class="edge">
<title>40&#45;&gt;16</title>
<path fill="none" stroke="black" stroke-width="2" d="M728.47,-485.41C720.43,-473.85 709.57,-458.22 700.47,-445.14"/>
<polygon fill="black" stroke="black" stroke-width="2" points="703.1,-442.78 694.52,-436.57 697.35,-446.78 703.1,-442.78"/>
</g>
<!-- 40&#45;&gt;21 -->
<g id="edge22" class="edge">
<title>40&#45;&gt;21</title>
<path fill="none" stroke="black" stroke-dasharray="5,2" d="M751.74,-485.41C759.99,-473.74 771.18,-457.92 780.49,-444.76"/>
<polygon fill="black" stroke="black" points="783.36,-446.75 786.28,-436.57 777.65,-442.71 783.36,-446.75"/>
</g>
<!-- 40&#45;&gt;23 -->
<g id="edge24" class="edge">
<title>40&#45;&gt;23</title>
<path fill="none" stroke="blue" d="M778.68,-490.34C828.42,-475.34 914.64,-449.35 967.18,-433.51"/>
<polygon fill="blue" stroke="blue" points="968.34,-436.82 976.9,-430.58 966.32,-430.12 968.34,-436.82"/>
</g>
<!-- 40&#45;&gt;25 -->
<g id="edge26" class="edge">
<title>40&#45;&gt;25</title>
<path fill="none" stroke="black" stroke-width="2" d="M786.34,-493.65C849.72,-482.03 966.88,-459.82 1066,-437 1070.4,-435.99 1074.96,-434.89 1079.53,-433.76"/>
<polygon fill="black" stroke="black" stroke-width="2" points="1080.64,-437.09 1089.48,-431.25 1078.93,-430.3 1080.64,-437.09"/>
<text text-anchor="middle" x="979.5" y="-458" font-family="Times,serif" font-size="10.00">3</text>
</g>
<!-- 40&#45;&gt;26 -->
<g id="edge27" class="edge">
<title>40&#45;&gt;26</title>
<path fill="none" stroke="black" stroke-dasharray="5,2" d="M791.65,-497.5C954.38,-483.34 1455.63,-439.71 1625.23,-424.94"/>
<polygon fill="black" stroke="black" points="1625.55,-428.43 1635.21,-424.07 1624.94,-421.45 1625.55,-428.43"/>
</g>
<!-- 40&#45;&gt;30 -->
<g id="edge31" class="edge">
<title>40&#45;&gt;30</title>
<path fill="none" stroke="gray" stroke-width="2" d="M794.14,-502.56C945.11,-503.24 1383.08,-499.27 1740,-437 1744.37,-436.24 1748.88,-435.27 1753.37,-434.19"/>
<polygon fill="gray" stroke="gray" stroke-width="2" points="1754.29,-437.57 1763.09,-431.68 1752.54,-430.79 1754.29,-437.57"/>
</g>
<!-- 42&#45;&gt;33 -->
<g id="edge34" class="edge">
<title>42&#45;&gt;33</title>
<path fill="none" stroke="black" stroke-dasharray="1,5" d="M1244.99,-318.17C1240.45,-309.69 1234.84,-299.21 1229.77,-289.73"/>
<polygon fill="black" stroke="black" points="1232.75,-287.87 1224.94,-280.71 1226.57,-291.17 1232.75,-287.87"/>
</g>
<!-- 42&#45;&gt;35 -->
<g id="edge36" class="edge">
<title>42&#45;&gt;35</title>
<path fill="none" stroke="black" d="M1269.31,-318.53C1277.8,-309.39 1288.52,-297.86 1297.91,-287.76"/>
<polygon fill="black" stroke="black" points="1300.53,-290.09 1304.78,-280.38 1295.4,-285.32 1300.53,-290.09"/>
</g>
</g>
</svg>
