<?xml version="1.0" encoding="UTF-8" standalone="no"?>
<!DOCTYPE svg PUBLIC "-//W3C//DTD SVG 1.1//EN"
 "http://www.w3.org/Graphics/SVG/1.1/DTD/svg11.dtd">
<!-- Generated by graphviz version 2.43.0 (0)
 -->
<!-- Title: textual_flow Pages: 1 -->
<svg width="2074pt" height="654pt"
 viewBox="0.00 0.00 2074.00 654.00" xmlns="http://www.w3.org/2000/svg" xmlns:xlink="http://www.w3.org/1999/xlink">
<g id="graph0" class="graph" transform="scale(1 1) rotate(0) translate(4 650)">
<title>textual_flow</title>
<polygon fill="white" stroke="transparent" points="-4,4 -4,-650 2070,-650 2070,4 -4,4"/>
<g id="clust1" class="cluster">
<title>cluster_legend</title>
<polygon fill="none" stroke="black" points="8,-584 8,-638 186,-638 186,-584 8,-584"/>
</g>
<g id="clust2" class="cluster">
<title>cluster_plot</title>
</g>
<!-- label -->
<g id="node1" class="node">
<title>label</title>
<text text-anchor="middle" x="97" y="-614.8" font-family="Times,serif" font-size="14.00">adstag1.3.20U30&#45;34</text>
<text text-anchor="middle" x="97" y="-599.8" font-family="Times,serif" font-size="14.00">Con = 1</text>
</g>
<!-- 0 -->
<g id="node2" class="node">
<title>0</title>
<ellipse fill="none" stroke="black" cx="258" cy="-466" rx="55.79" ry="18"/>
<text text-anchor="middle" x="258" y="-462.3" font-family="Times,serif" font-size="14.00">V1629 (a)</text>
</g>
<!-- 19 -->
<g id="node21" class="node">
<title>19</title>
<ellipse fill="none" stroke="black" cx="258" cy="-394" rx="49.29" ry="18"/>
<text text-anchor="middle" x="258" y="-390.3" font-family="Times,serif" font-size="14.00">V536 (c)</text>
</g>
<!-- 0&#45;&gt;19 -->
<g id="edge20" class="edge">
<title>0&#45;&gt;19</title>
<path fill="none" stroke="blue" stroke-dasharray="5,2" d="M258,-447.7C258,-439.98 258,-430.71 258,-422.11"/>
<polygon fill="blue" stroke="blue" points="261.5,-422.1 258,-412.1 254.5,-422.1 261.5,-422.1"/>
</g>
<!-- 20 -->
<g id="node22" class="node">
<title>20</title>
<ellipse fill="none" stroke="gray" stroke-dasharray="5,2" cx="361" cy="-394" rx="36" ry="18"/>
<text text-anchor="middle" x="361" y="-390.3" font-family="Times,serif" font-size="14.00">La2&#45;c</text>
</g>
<!-- 0&#45;&gt;20 -->
<g id="edge21" class="edge">
<title>0&#45;&gt;20</title>
<path fill="none" stroke="gray" stroke-width="2" d="M280.86,-449.46C295.96,-439.2 315.88,-425.66 332.08,-414.65"/>
<polygon fill="gray" stroke="gray" stroke-width="2" points="334.34,-417.35 340.65,-408.83 330.41,-411.56 334.34,-417.35"/>
</g>
<!-- 1 -->
<g id="node3" class="node">
<title>1</title>
<ellipse fill="none" stroke="black" cx="344" cy="-250" rx="46.29" ry="18"/>
<text text-anchor="middle" x="344" y="-246.3" font-family="Times,serif" font-size="14.00">Taur (c)</text>
</g>
<!-- 12 -->
<g id="node14" class="node">
<title>12</title>
<ellipse fill="none" stroke="black" cx="254" cy="-178" rx="51.99" ry="18"/>
<text text-anchor="middle" x="254" y="-174.3" font-family="Times,serif" font-size="14.00">M118 (c)</text>
</g>
<!-- 1&#45;&gt;12 -->
<g id="edge13" class="edge">
<title>1&#45;&gt;12</title>
<path fill="none" stroke="black" stroke-dasharray="5,2" d="M324.03,-233.46C311.76,-223.93 295.86,-211.56 282.31,-201.02"/>
<polygon fill="black" stroke="black" points="284.27,-198.11 274.23,-194.73 279.97,-203.64 284.27,-198.11"/>
</g>
<!-- 23 -->
<g id="node25" class="node">
<title>23</title>
<ellipse fill="none" stroke="black" cx="373" cy="-178" rx="49.29" ry="18"/>
<text text-anchor="middle" x="373" y="-174.3" font-family="Times,serif" font-size="14.00">Marc (c)</text>
</g>
<!-- 1&#45;&gt;23 -->
<g id="edge24" class="edge">
<title>1&#45;&gt;23</title>
<path fill="none" stroke="black" stroke-dasharray="1,5" d="M351.02,-232.05C354.28,-224.18 358.24,-214.62 361.9,-205.79"/>
<polygon fill="black" stroke="black" points="365.25,-206.85 365.84,-196.28 358.78,-204.17 365.25,-206.85"/>
</g>
<!-- 27 -->
<g id="node29" class="node">
<title>27</title>
<ellipse fill="none" stroke="black" cx="490" cy="-178" rx="49.29" ry="18"/>
<text text-anchor="middle" x="490" y="-174.3" font-family="Times,serif" font-size="14.00">V569 (c)</text>
</g>
<!-- 1&#45;&gt;27 -->
<g id="edge28" class="edge">
<title>1&#45;&gt;27</title>
<path fill="none" stroke="black" stroke-dasharray="5,2" d="M372.15,-235.5C394.93,-224.58 427.22,-209.1 452.24,-197.1"/>
<polygon fill="black" stroke="black" points="453.93,-200.17 461.44,-192.69 450.91,-193.86 453.93,-200.17"/>
</g>
<!-- 2 -->
<g id="node4" class="node">
<title>2</title>
<ellipse fill="none" stroke="black" cx="1690" cy="-466" rx="50.09" ry="18"/>
<text text-anchor="middle" x="1690" y="-462.3" font-family="Times,serif" font-size="14.00">V566 (a)</text>
</g>
<!-- 4 -->
<g id="node6" class="node">
<title>4</title>
<ellipse fill="none" stroke="black" cx="1690" cy="-394" rx="55.79" ry="18"/>
<text text-anchor="middle" x="1690" y="-390.3" font-family="Times,serif" font-size="14.00">V1639 (a)</text>
</g>
<!-- 2&#45;&gt;4 -->
<g id="edge5" class="edge">
<title>2&#45;&gt;4</title>
<path fill="none" stroke="black" stroke-dasharray="1,5" d="M1690,-447.7C1690,-439.98 1690,-430.71 1690,-422.11"/>
<polygon fill="black" stroke="black" points="1693.5,-422.1 1690,-412.1 1686.5,-422.1 1693.5,-422.1"/>
</g>
<!-- 3 -->
<g id="node5" class="node">
<title>3</title>
<ellipse fill="none" stroke="black" cx="315" cy="-322" rx="49.29" ry="18"/>
<text text-anchor="middle" x="315" y="-318.3" font-family="Times,serif" font-size="14.00">V568 (c)</text>
</g>
<!-- 3&#45;&gt;1 -->
<g id="edge2" class="edge">
<title>3&#45;&gt;1</title>
<path fill="none" stroke="black" stroke-dasharray="1,5" d="M322.02,-304.05C325.28,-296.18 329.24,-286.62 332.9,-277.79"/>
<polygon fill="black" stroke="black" points="336.25,-278.85 336.84,-268.28 329.78,-276.17 336.25,-278.85"/>
</g>
<!-- 5 -->
<g id="node7" class="node">
<title>5</title>
<ellipse fill="none" stroke="black" cx="870" cy="-466" rx="44.39" ry="18"/>
<text text-anchor="middle" x="870" y="-462.3" font-family="Times,serif" font-size="14.00">P74 (b)</text>
</g>
<!-- 6 -->
<g id="node8" class="node">
<title>6</title>
<ellipse fill="none" stroke="black" cx="252" cy="-538" rx="50.09" ry="18"/>
<text text-anchor="middle" x="252" y="-534.3" font-family="Times,serif" font-size="14.00">Neap (a)</text>
</g>
<!-- 6&#45;&gt;0 -->
<g id="edge1" class="edge">
<title>6&#45;&gt;0</title>
<path fill="none" stroke="black" stroke-dasharray="1,5" d="M253.48,-519.7C254.14,-511.98 254.94,-502.71 255.68,-494.11"/>
<polygon fill="black" stroke="black" points="259.17,-494.37 256.53,-484.1 252.19,-493.77 259.17,-494.37"/>
</g>
<!-- 7 -->
<g id="node9" class="node">
<title>7</title>
<ellipse fill="none" stroke="black" cx="373" cy="-106" rx="46.29" ry="18"/>
<text text-anchor="middle" x="373" y="-102.3" font-family="Times,serif" font-size="14.00">Mon (c)</text>
</g>
<!-- 21 -->
<g id="node23" class="node">
<title>21</title>
<ellipse fill="none" stroke="black" cx="373" cy="-34" rx="40.09" ry="18"/>
<text text-anchor="middle" x="373" y="-30.3" font-family="Times,serif" font-size="14.00">Sin (c)</text>
</g>
<!-- 7&#45;&gt;21 -->
<g id="edge22" class="edge">
<title>7&#45;&gt;21</title>
<path fill="none" stroke="black" stroke-dasharray="1,5" d="M373,-87.7C373,-79.98 373,-70.71 373,-62.11"/>
<polygon fill="black" stroke="black" points="376.5,-62.1 373,-52.1 369.5,-62.1 376.5,-62.1"/>
</g>
<!-- 8 -->
<g id="node10" class="node">
<title>8</title>
<ellipse fill="none" stroke="black" cx="1802" cy="-466" rx="44.39" ry="18"/>
<text text-anchor="middle" x="1802" y="-462.3" font-family="Times,serif" font-size="14.00">S32 (b)</text>
</g>
<!-- 9 -->
<g id="node11" class="node">
<title>9</title>
<ellipse fill="none" stroke="black" cx="701" cy="-394" rx="42.79" ry="18"/>
<text text-anchor="middle" x="701" y="-390.3" font-family="Times,serif" font-size="14.00">Bas (a)</text>
</g>
<!-- 10 -->
<g id="node12" class="node">
<title>10</title>
<ellipse fill="none" stroke="black" cx="376" cy="-466" rx="44.39" ry="18"/>
<text text-anchor="middle" x="376" y="-462.3" font-family="Times,serif" font-size="14.00">B39 (a)</text>
</g>
<!-- 11 -->
<g id="node13" class="node">
<title>11</title>
<ellipse fill="none" stroke="black" cx="493" cy="-466" rx="55.49" ry="18"/>
<text text-anchor="middle" x="493" y="-462.3" font-family="Times,serif" font-size="14.00">V1920 (c)</text>
</g>
<!-- 13 -->
<g id="node15" class="node">
<title>13</title>
<ellipse fill="none" stroke="gray" stroke-dasharray="5,2" cx="254" cy="-106" rx="28.7" ry="18"/>
<text text-anchor="middle" x="254" y="-102.3" font-family="Times,serif" font-size="14.00">P18</text>
</g>
<!-- 12&#45;&gt;13 -->
<g id="edge14" class="edge">
<title>12&#45;&gt;13</title>
<path fill="none" stroke="gray" stroke-dasharray="5,2" d="M254,-159.7C254,-151.98 254,-142.71 254,-134.11"/>
<polygon fill="gray" stroke="gray" points="257.5,-134.1 254,-124.1 250.5,-134.1 257.5,-134.1"/>
</g>
<!-- 14 -->
<g id="node16" class="node">
<title>14</title>
<ellipse fill="none" stroke="black" cx="376" cy="-538" rx="55.79" ry="18"/>
<text text-anchor="middle" x="376" y="-534.3" font-family="Times,serif" font-size="14.00">V2036 (a)</text>
</g>
<!-- 15 -->
<g id="node17" class="node">
<title>15</title>
<ellipse fill="none" stroke="black" cx="503" cy="-538" rx="52.79" ry="18"/>
<text text-anchor="middle" x="503" y="-534.3" font-family="Times,serif" font-size="14.00">LaSM (a)</text>
</g>
<!-- 15&#45;&gt;10 -->
<g id="edge11" class="edge">
<title>15&#45;&gt;10</title>
<path fill="none" stroke="black" stroke-dasharray="5,2" d="M476.38,-522.33C457.12,-511.71 430.93,-497.27 410.13,-485.81"/>
<polygon fill="black" stroke="black" points="411.74,-482.7 401.29,-480.94 408.36,-488.83 411.74,-482.7"/>
</g>
<!-- 16 -->
<g id="node18" class="node">
<title>16</title>
<ellipse fill="none" stroke="black" cx="803" cy="-394" rx="41.69" ry="18"/>
<text text-anchor="middle" x="803" y="-390.3" font-family="Times,serif" font-size="14.00">Est (a)</text>
</g>
<!-- 17 -->
<g id="node19" class="node">
<title>17</title>
<ellipse fill="none" stroke="black" cx="624" cy="-538" rx="50.09" ry="18"/>
<text text-anchor="middle" x="624" y="-534.3" font-family="Times,serif" font-size="14.00">V560 (a)</text>
</g>
<!-- 17&#45;&gt;11 -->
<g id="edge12" class="edge">
<title>17&#45;&gt;11</title>
<path fill="none" stroke="blue" stroke-dasharray="5,2" d="M597.17,-522.67C577.66,-512.24 551,-497.99 529.54,-486.52"/>
<polygon fill="blue" stroke="blue" points="531.16,-483.42 520.69,-481.8 527.86,-489.6 531.16,-483.42"/>
</g>
<!-- 18 -->
<g id="node20" class="node">
<title>18</title>
<ellipse fill="none" stroke="black" cx="735" cy="-538" rx="42.79" ry="18"/>
<text text-anchor="middle" x="735" y="-534.3" font-family="Times,serif" font-size="14.00">La2 (a)</text>
</g>
<!-- 19&#45;&gt;3 -->
<g id="edge4" class="edge">
<title>19&#45;&gt;3</title>
<path fill="none" stroke="black" stroke-dasharray="1,5" d="M271.51,-376.41C278.54,-367.78 287.26,-357.06 295.05,-347.5"/>
<polygon fill="black" stroke="black" points="297.99,-349.43 301.59,-339.47 292.56,-345.01 297.99,-349.43"/>
</g>
<!-- 22 -->
<g id="node24" class="node">
<title>22</title>
<ellipse fill="none" stroke="black" cx="980" cy="-466" rx="47.39" ry="18"/>
<text text-anchor="middle" x="980" y="-462.3" font-family="Times,serif" font-size="14.00">Bodl (b)</text>
</g>
<!-- 23&#45;&gt;7 -->
<g id="edge8" class="edge">
<title>23&#45;&gt;7</title>
<path fill="none" stroke="black" stroke-dasharray="1,5" d="M373,-159.7C373,-151.98 373,-142.71 373,-134.11"/>
<polygon fill="black" stroke="black" points="376.5,-134.1 373,-124.1 369.5,-134.1 376.5,-134.1"/>
</g>
<!-- 24 -->
<g id="node26" class="node">
<title>24</title>
<ellipse fill="none" stroke="black" cx="1099" cy="-466" rx="53.09" ry="18"/>
<text text-anchor="middle" x="1099" y="-462.3" font-family="Times,serif" font-size="14.00">M111 (b)</text>
</g>
<!-- 35 -->
<g id="node37" class="node">
<title>35</title>
<ellipse fill="none" stroke="black" cx="1099" cy="-394" rx="50.09" ry="18"/>
<text text-anchor="middle" x="1099" y="-390.3" font-family="Times,serif" font-size="14.00">A336 (b)</text>
</g>
<!-- 24&#45;&gt;35 -->
<g id="edge36" class="edge">
<title>24&#45;&gt;35</title>
<path fill="none" stroke="black" stroke-dasharray="5,2" d="M1099,-447.7C1099,-439.98 1099,-430.71 1099,-422.11"/>
<polygon fill="black" stroke="black" points="1102.5,-422.1 1099,-412.1 1095.5,-422.1 1102.5,-422.1"/>
</g>
<!-- 25 -->
<g id="node27" class="node">
<title>25</title>
<ellipse fill="none" stroke="black" cx="841" cy="-538" rx="44.69" ry="18"/>
<text text-anchor="middle" x="841" y="-534.3" font-family="Times,serif" font-size="14.00">Nan (a)</text>
</g>
<!-- 29 -->
<g id="node31" class="node">
<title>29</title>
<ellipse fill="none" stroke="black" cx="622" cy="-466" rx="55.79" ry="18"/>
<text text-anchor="middle" x="622" y="-462.3" font-family="Times,serif" font-size="14.00">V2250 (a)</text>
</g>
<!-- 25&#45;&gt;29 -->
<g id="edge30" class="edge">
<title>25&#45;&gt;29</title>
<path fill="none" stroke="black" stroke-dasharray="5,2" d="M806.78,-526.06C770.03,-514.32 711.35,-495.56 669.99,-482.34"/>
<polygon fill="black" stroke="black" points="670.99,-478.98 660.4,-479.27 668.86,-485.65 670.99,-478.98"/>
</g>
<!-- 32 -->
<g id="node34" class="node">
<title>32</title>
<ellipse fill="none" stroke="black" cx="752" cy="-466" rx="55.79" ry="18"/>
<text text-anchor="middle" x="752" y="-462.3" font-family="Times,serif" font-size="14.00">V1897 (a)</text>
</g>
<!-- 25&#45;&gt;32 -->
<g id="edge33" class="edge">
<title>25&#45;&gt;32</title>
<path fill="none" stroke="black" stroke-dasharray="1,5" d="M821.25,-521.46C809.2,-511.99 793.61,-499.73 780.28,-489.24"/>
<polygon fill="black" stroke="black" points="782.34,-486.41 772.31,-482.98 778.01,-491.91 782.34,-486.41"/>
</g>
<!-- 26 -->
<g id="node28" class="node">
<title>26</title>
<ellipse fill="none" stroke="gray" stroke-dasharray="5,2" cx="954" cy="-538" rx="50.09" ry="18"/>
<text text-anchor="middle" x="954" y="-534.3" font-family="Times,serif" font-size="14.00">Savile&#45;Η</text>
</g>
<!-- 28 -->
<g id="node30" class="node">
<title>28</title>
<ellipse fill="none" stroke="black" cx="1075" cy="-538" rx="52.79" ry="18"/>
<text text-anchor="middle" x="1075" y="-534.3" font-family="Times,serif" font-size="14.00">M136 (a)</text>
</g>
<!-- 30 -->
<g id="node32" class="node">
<title>30</title>
<ellipse fill="none" stroke="black" cx="1220" cy="-466" rx="50.09" ry="18"/>
<text text-anchor="middle" x="1220" y="-462.3" font-family="Times,serif" font-size="14.00">V565 (b)</text>
</g>
<!-- 31 -->
<g id="node33" class="node">
<title>31</title>
<ellipse fill="none" stroke="black" cx="1196" cy="-538" rx="50.09" ry="18"/>
<text text-anchor="middle" x="1196" y="-534.3" font-family="Times,serif" font-size="14.00">Patm (a)</text>
</g>
<!-- 32&#45;&gt;9 -->
<g id="edge10" class="edge">
<title>32&#45;&gt;9</title>
<path fill="none" stroke="black" d="M739.91,-448.41C733.69,-439.87 725.97,-429.28 719.06,-419.79"/>
<polygon fill="black" stroke="black" points="721.72,-417.49 713,-411.47 716.06,-421.61 721.72,-417.49"/>
</g>
<!-- 32&#45;&gt;16 -->
<g id="edge17" class="edge">
<title>32&#45;&gt;16</title>
<path fill="none" stroke="black" stroke-dasharray="1,5" d="M764.09,-448.41C770.31,-439.87 778.03,-429.28 784.94,-419.79"/>
<polygon fill="black" stroke="black" points="787.94,-421.61 791,-411.47 782.28,-417.49 787.94,-421.61"/>
</g>
<!-- 33 -->
<g id="node35" class="node">
<title>33</title>
<ellipse fill="none" stroke="black" cx="1338" cy="-466" rx="50.09" ry="18"/>
<text text-anchor="middle" x="1338" y="-462.3" font-family="Times,serif" font-size="14.00">A116 (b)</text>
</g>
<!-- 34 -->
<g id="node36" class="node">
<title>34</title>
<ellipse fill="none" stroke="black" cx="1908" cy="-466" rx="44.39" ry="18"/>
<text text-anchor="middle" x="1908" y="-462.3" font-family="Times,serif" font-size="14.00">P01 (a)</text>
</g>
<!-- 36 -->
<g id="node38" class="node">
<title>36</title>
<ellipse fill="none" stroke="black" cx="897" cy="-611" rx="53.89" ry="18"/>
<text text-anchor="middle" x="897" y="-607.3" font-family="Times,serif" font-size="14.00">aBase (a)</text>
</g>
<!-- 36&#45;&gt;6 -->
<g id="edge7" class="edge">
<title>36&#45;&gt;6</title>
<path fill="none" stroke="black" stroke-width="2" d="M843.21,-608.43C739.44,-604.66 504.77,-592.51 311,-556 306.82,-555.21 302.5,-554.26 298.2,-553.2"/>
<polygon fill="black" stroke="black" stroke-width="2" points="298.81,-549.75 288.25,-550.61 297.04,-556.52 298.81,-549.75"/>
</g>
<!-- 36&#45;&gt;14 -->
<g id="edge15" class="edge">
<title>36&#45;&gt;14</title>
<path fill="none" stroke="black" d="M844.67,-606.16C759.52,-599.4 585.91,-583.4 441,-556 436.24,-555.1 431.31,-554.04 426.39,-552.91"/>
<polygon fill="black" stroke="black" points="426.92,-549.43 416.37,-550.48 425.27,-556.24 426.92,-549.43"/>
</g>
<!-- 36&#45;&gt;15 -->
<g id="edge16" class="edge">
<title>36&#45;&gt;15</title>
<path fill="none" stroke="black" d="M847.47,-603.62C782.32,-594.85 664.43,-577.65 565,-556 560.65,-555.05 556.15,-553.99 551.65,-552.86"/>
<polygon fill="black" stroke="black" points="552.43,-549.45 541.87,-550.34 550.68,-556.23 552.43,-549.45"/>
</g>
<!-- 36&#45;&gt;17 -->
<g id="edge18" class="edge">
<title>36&#45;&gt;17</title>
<path fill="none" stroke="black" stroke-width="2" d="M854.66,-599.76C811.41,-589.19 742.37,-572.04 683,-556 679.17,-554.97 675.21,-553.87 671.24,-552.76"/>
<polygon fill="black" stroke="black" stroke-width="2" points="671.98,-549.33 661.4,-549.98 670.07,-556.07 671.98,-549.33"/>
</g>
<!-- 36&#45;&gt;18 -->
<g id="edge19" class="edge">
<title>36&#45;&gt;18</title>
<path fill="none" stroke="black" stroke-width="2" d="M865.76,-596.31C839.25,-584.69 801.11,-567.98 772.86,-555.6"/>
<polygon fill="black" stroke="black" stroke-width="2" points="774.26,-552.38 763.69,-551.58 771.45,-558.8 774.26,-552.38"/>
</g>
<!-- 36&#45;&gt;25 -->
<g id="edge26" class="edge">
<title>36&#45;&gt;25</title>
<path fill="none" stroke="black" d="M883.73,-593.17C876.82,-584.42 868.25,-573.55 860.6,-563.85"/>
<polygon fill="black" stroke="black" points="863.12,-561.39 854.18,-555.71 857.62,-565.72 863.12,-561.39"/>
</g>
<!-- 36&#45;&gt;26 -->
<g id="edge27" class="edge">
<title>36&#45;&gt;26</title>
<path fill="none" stroke="gray" stroke-width="2" d="M910.22,-593.53C917.41,-584.57 926.45,-573.31 934.45,-563.36"/>
<polygon fill="gray" stroke="gray" stroke-width="2" points="937.32,-565.37 940.85,-555.38 931.86,-560.98 937.32,-565.37"/>
</g>
<!-- 36&#45;&gt;28 -->
<g id="edge29" class="edge">
<title>36&#45;&gt;28</title>
<path fill="none" stroke="black" stroke-width="2" d="M930.48,-596.65C959.41,-585.11 1001.38,-568.37 1032.64,-555.9"/>
<polygon fill="black" stroke="black" stroke-width="2" points="1033.98,-559.13 1041.97,-552.17 1031.39,-552.63 1033.98,-559.13"/>
</g>
<!-- 36&#45;&gt;31 -->
<g id="edge32" class="edge">
<title>36&#45;&gt;31</title>
<path fill="none" stroke="black" d="M941.86,-600.74C990.22,-590.56 1069.36,-573.34 1137,-556 1140.84,-555.02 1144.81,-553.96 1148.79,-552.87"/>
<polygon fill="black" stroke="black" points="1149.94,-556.18 1158.64,-550.13 1148.06,-549.44 1149.94,-556.18"/>
</g>
<!-- 38 -->
<g id="node40" class="node">
<title>38</title>
<ellipse fill="none" stroke="black" cx="1313" cy="-538" rx="49.29" ry="18"/>
<text text-anchor="middle" x="1313" y="-534.3" font-family="Times,serif" font-size="14.00">La22 (b)</text>
</g>
<!-- 36&#45;&gt;38 -->
<g id="edge38" class="edge">
<title>36&#45;&gt;38</title>
<path fill="none" stroke="blue" stroke-dasharray="5,2" d="M947.49,-604.57C1017.18,-596.58 1146.52,-579.96 1255,-556 1258.92,-555.13 1262.97,-554.15 1267.01,-553.09"/>
<polygon fill="blue" stroke="blue" points="1268.27,-556.38 1277,-550.37 1266.43,-549.63 1268.27,-556.38"/>
</g>
<!-- 39 -->
<g id="node41" class="node">
<title>39</title>
<ellipse fill="none" stroke="black" cx="1746" cy="-538" rx="44.39" ry="18"/>
<text text-anchor="middle" x="1746" y="-534.3" font-family="Times,serif" font-size="14.00">A25 (a)</text>
</g>
<!-- 36&#45;&gt;39 -->
<g id="edge39" class="edge">
<title>36&#45;&gt;39</title>
<path fill="none" stroke="black" stroke-dasharray="5,2" d="M948.83,-605.67C1100.16,-593.01 1540.31,-556.2 1693.05,-543.43"/>
<polygon fill="black" stroke="black" points="1693.45,-546.91 1703.12,-542.59 1692.86,-539.93 1693.45,-546.91"/>
</g>
<!-- 40 -->
<g id="node42" class="node">
<title>40</title>
<ellipse fill="none" stroke="black" cx="1858" cy="-538" rx="50.09" ry="18"/>
<text text-anchor="middle" x="1858" y="-534.3" font-family="Times,serif" font-size="14.00">S249 (a)</text>
</g>
<!-- 36&#45;&gt;40 -->
<g id="edge40" class="edge">
<title>36&#45;&gt;40</title>
<path fill="none" stroke="black" d="M950.56,-608.35C1118.65,-602.91 1634.24,-584.31 1799,-556 1803.37,-555.25 1807.88,-554.29 1812.37,-553.22"/>
<polygon fill="black" stroke="black" points="1813.29,-556.59 1822.1,-550.71 1811.54,-549.82 1813.29,-556.59"/>
</g>
<!-- 37 -->
<g id="node39" class="node">
<title>37</title>
<ellipse fill="none" stroke="black" cx="1456" cy="-466" rx="50.09" ry="18"/>
<text text-anchor="middle" x="1456" y="-462.3" font-family="Times,serif" font-size="14.00">V571 (b)</text>
</g>
<!-- 38&#45;&gt;5 -->
<g id="edge6" class="edge">
<title>38&#45;&gt;5</title>
<path fill="none" stroke="black" stroke-dasharray="1,5" d="M1277.36,-525.48C1270.02,-523.41 1262.31,-521.46 1255,-520 1109.88,-491.08 1068.83,-514.36 924,-484 920.11,-483.18 916.1,-482.2 912.1,-481.12"/>
<polygon fill="black" stroke="black" points="912.86,-477.7 902.28,-478.3 910.92,-484.43 912.86,-477.7"/>
</g>
<!-- 38&#45;&gt;22 -->
<g id="edge23" class="edge">
<title>38&#45;&gt;22</title>
<path fill="none" stroke="black" stroke-dasharray="5,2" d="M1276.67,-525.62C1269.53,-523.59 1262.06,-521.61 1255,-520 1159.26,-498.15 1132.69,-506.08 1037,-484 1033.09,-483.1 1029.06,-482.08 1025.03,-481"/>
<polygon fill="black" stroke="black" points="1025.66,-477.54 1015.09,-478.22 1023.77,-484.28 1025.66,-477.54"/>
</g>
<!-- 38&#45;&gt;24 -->
<g id="edge25" class="edge">
<title>38&#45;&gt;24</title>
<path fill="none" stroke="black" stroke-dasharray="1,5" d="M1277.18,-525.28C1241.09,-513.48 1185.24,-495.21 1145.69,-482.27"/>
<polygon fill="black" stroke="black" points="1146.61,-478.89 1136.01,-479.11 1144.43,-485.54 1146.61,-478.89"/>
</g>
<!-- 38&#45;&gt;30 -->
<g id="edge31" class="edge">
<title>38&#45;&gt;30</title>
<path fill="none" stroke="black" stroke-dasharray="5,2" d="M1292.36,-521.46C1279.6,-511.86 1263.02,-499.38 1248.96,-488.8"/>
<polygon fill="black" stroke="black" points="1250.68,-485.71 1240.58,-482.49 1246.47,-491.3 1250.68,-485.71"/>
</g>
<!-- 38&#45;&gt;33 -->
<g id="edge34" class="edge">
<title>38&#45;&gt;33</title>
<path fill="none" stroke="black" stroke-dasharray="5,2" d="M1319.05,-520.05C1321.87,-512.18 1325.28,-502.62 1328.43,-493.79"/>
<polygon fill="black" stroke="black" points="1331.76,-494.87 1331.83,-484.28 1325.17,-492.52 1331.76,-494.87"/>
</g>
<!-- 38&#45;&gt;37 -->
<g id="edge37" class="edge">
<title>38&#45;&gt;37</title>
<path fill="none" stroke="black" stroke-dasharray="1,5" d="M1341.25,-523.17C1363.24,-512.41 1393.97,-497.36 1418.09,-485.56"/>
<polygon fill="black" stroke="black" points="1419.87,-488.58 1427.32,-481.04 1416.8,-482.29 1419.87,-488.58"/>
</g>
<!-- 42 -->
<g id="node44" class="node">
<title>42</title>
<ellipse fill="none" stroke="black" cx="1573" cy="-466" rx="49.29" ry="18"/>
<text text-anchor="middle" x="1573" y="-462.3" font-family="Times,serif" font-size="14.00">La35 (b)</text>
</g>
<!-- 38&#45;&gt;42 -->
<g id="edge42" class="edge">
<title>38&#45;&gt;42</title>
<path fill="none" stroke="black" stroke-dasharray="1,5" d="M1352.57,-526.97C1393.36,-516.55 1458.76,-499.62 1515,-484 1518.6,-483 1522.32,-481.95 1526.05,-480.88"/>
<polygon fill="black" stroke="black" points="1527.28,-484.17 1535.92,-478.04 1525.34,-477.45 1527.28,-484.17"/>
</g>
<!-- 39&#45;&gt;2 -->
<g id="edge3" class="edge">
<title>39&#45;&gt;2</title>
<path fill="none" stroke="black" stroke-dasharray="5,2" d="M1733.01,-520.76C1726.11,-512.14 1717.49,-501.36 1709.78,-491.73"/>
<polygon fill="black" stroke="black" points="1712.29,-489.26 1703.31,-483.63 1706.82,-493.63 1712.29,-489.26"/>
</g>
<!-- 39&#45;&gt;8 -->
<g id="edge9" class="edge">
<title>39&#45;&gt;8</title>
<path fill="none" stroke="blue" stroke-dasharray="5,2" d="M1758.99,-520.76C1765.89,-512.14 1774.51,-501.36 1782.22,-491.73"/>
<polygon fill="blue" stroke="blue" points="1785.18,-493.63 1788.69,-483.63 1779.71,-489.26 1785.18,-493.63"/>
</g>
<!-- 39&#45;&gt;34 -->
<g id="edge35" class="edge">
<title>39&#45;&gt;34</title>
<path fill="none" stroke="black" stroke-dasharray="5,2" d="M1775.34,-524.32C1801.71,-512.93 1840.64,-496.11 1869.51,-483.63"/>
<polygon fill="black" stroke="black" points="1871.09,-486.76 1878.88,-479.58 1868.31,-480.34 1871.09,-486.76"/>
</g>
<!-- 41 -->
<g id="node43" class="node">
<title>41</title>
<ellipse fill="none" stroke="black" cx="2010" cy="-466" rx="40.09" ry="18"/>
<text text-anchor="middle" x="2010" y="-462.3" font-family="Times,serif" font-size="14.00">Pal (a)</text>
</g>
<!-- 39&#45;&gt;41 -->
<g id="edge41" class="edge">
<title>39&#45;&gt;41</title>
<path fill="none" stroke="black" stroke-dasharray="5,2" d="M1778.94,-525.92C1785.55,-523.84 1792.47,-521.77 1799,-520 1870.19,-500.72 1890.04,-504.12 1961,-484 1963.98,-483.16 1967.04,-482.23 1970.11,-481.26"/>
<polygon fill="black" stroke="black" points="1971.44,-484.51 1979.85,-478.07 1969.26,-477.86 1971.44,-484.51"/>
</g>
</g>
</svg>
