<?xml version="1.0" encoding="UTF-8" standalone="no"?>
<!DOCTYPE svg PUBLIC "-//W3C//DTD SVG 1.1//EN"
 "http://www.w3.org/Graphics/SVG/1.1/DTD/svg11.dtd">
<!-- Generated by graphviz version 2.43.0 (0)
 -->
<!-- Title: textual_flow Pages: 1 -->
<svg width="2303pt" height="546pt"
 viewBox="0.00 0.00 2303.00 546.00" xmlns="http://www.w3.org/2000/svg" xmlns:xlink="http://www.w3.org/1999/xlink">
<g id="graph0" class="graph" transform="scale(1 1) rotate(0) translate(4 542)">
<title>textual_flow</title>
<polygon fill="white" stroke="transparent" points="-4,4 -4,-542 2299,-542 2299,4 -4,4"/>
<g id="clust1" class="cluster">
<title>cluster_legend</title>
<polygon fill="none" stroke="black" points="8,-476 8,-530 186,-530 186,-476 8,-476"/>
</g>
<g id="clust2" class="cluster">
<title>cluster_plot</title>
</g>
<!-- label -->
<g id="node1" class="node">
<title>label</title>
<text text-anchor="middle" x="97" y="-506.8" font-family="Times,serif" font-size="14.00">adstag1.3.47U54&#45;60</text>
<text text-anchor="middle" x="97" y="-491.8" font-family="Times,serif" font-size="14.00">Con = 5</text>
</g>
<!-- 0 -->
<g id="node2" class="node">
<title>0</title>
<ellipse fill="none" stroke="black" cx="1300" cy="-346" rx="50.89" ry="18"/>
<text text-anchor="middle" x="1300" y="-342.3" font-family="Times,serif" font-size="14.00">Neap (d)</text>
</g>
<!-- 19 -->
<g id="node21" class="node">
<title>19</title>
<ellipse fill="none" stroke="black" cx="1300" cy="-263" rx="55.79" ry="18"/>
<text text-anchor="middle" x="1300" y="-259.3" font-family="Times,serif" font-size="14.00">V1629 (d)</text>
</g>
<!-- 0&#45;&gt;19 -->
<g id="edge20" class="edge">
<title>0&#45;&gt;19</title>
<path fill="none" stroke="black" stroke-dasharray="1,5" d="M1300,-327.82C1300,-317.19 1300,-303.31 1300,-291.2"/>
<polygon fill="black" stroke="black" points="1303.5,-291.15 1300,-281.15 1296.5,-291.15 1303.5,-291.15"/>
</g>
<!-- 1 -->
<g id="node3" class="node">
<title>1</title>
<ellipse fill="none" stroke="black" cx="593" cy="-429" rx="50.09" ry="18"/>
<text text-anchor="middle" x="593" y="-425.3" font-family="Times,serif" font-size="14.00">Patm (a)</text>
</g>
<!-- 2 -->
<g id="node4" class="node">
<title>2</title>
<ellipse fill="none" stroke="black" cx="1248" cy="-180" rx="50.09" ry="18"/>
<text text-anchor="middle" x="1248" y="-176.3" font-family="Times,serif" font-size="14.00">V568 (d)</text>
</g>
<!-- 3 -->
<g id="node5" class="node">
<title>3</title>
<ellipse fill="none" stroke="black" cx="246" cy="-346" rx="44.39" ry="18"/>
<text text-anchor="middle" x="246" y="-342.3" font-family="Times,serif" font-size="14.00">P74 (a)</text>
</g>
<!-- 4 -->
<g id="node6" class="node">
<title>4</title>
<ellipse fill="none" stroke="black" cx="1679" cy="-107" rx="46.29" ry="18"/>
<text text-anchor="middle" x="1679" y="-103.3" font-family="Times,serif" font-size="14.00">Mon (a)</text>
</g>
<!-- 23 -->
<g id="node25" class="node">
<title>23</title>
<ellipse fill="none" stroke="black" cx="1679" cy="-34" rx="40.89" ry="18"/>
<text text-anchor="middle" x="1679" y="-30.3" font-family="Times,serif" font-size="14.00">Sin (a)</text>
</g>
<!-- 4&#45;&gt;23 -->
<g id="edge23" class="edge">
<title>4&#45;&gt;23</title>
<path fill="none" stroke="black" stroke-dasharray="1,5" d="M1679,-88.81C1679,-80.79 1679,-71.05 1679,-62.07"/>
<polygon fill="black" stroke="black" points="1682.5,-62.03 1679,-52.03 1675.5,-62.03 1682.5,-62.03"/>
</g>
<!-- 5 -->
<g id="node7" class="node">
<title>5</title>
<ellipse fill="none" stroke="black" cx="710" cy="-429" rx="48.99" ry="18"/>
<text text-anchor="middle" x="710" y="-425.3" font-family="Times,serif" font-size="14.00">La22 (a)</text>
</g>
<!-- 5&#45;&gt;3 -->
<g id="edge4" class="edge">
<title>5&#45;&gt;3</title>
<path fill="none" stroke="black" stroke-dasharray="1,5" d="M674.34,-416.54C667.01,-414.47 659.3,-412.5 652,-411 586.22,-397.51 568.57,-401.75 502,-393 411.64,-381.13 387.82,-384.43 299,-364 295.4,-363.17 291.69,-362.21 287.99,-361.18"/>
<polygon fill="black" stroke="black" points="288.85,-357.78 278.27,-358.3 286.87,-364.5 288.85,-357.78"/>
</g>
<!-- 6 -->
<g id="node8" class="node">
<title>6</title>
<ellipse fill="none" stroke="black" cx="358" cy="-346" rx="50.09" ry="18"/>
<text text-anchor="middle" x="358" y="-342.3" font-family="Times,serif" font-size="14.00">V565 (a)</text>
</g>
<!-- 5&#45;&gt;6 -->
<g id="edge7" class="edge">
<title>5&#45;&gt;6</title>
<path fill="none" stroke="black" stroke-dasharray="5,2" d="M673.62,-416.81C666.48,-414.76 659.03,-412.73 652,-411 548.57,-385.55 520.49,-389.21 417,-364 412.98,-363.02 408.82,-361.95 404.66,-360.83"/>
<polygon fill="black" stroke="black" points="405.58,-357.45 395.01,-358.17 403.72,-364.2 405.58,-357.45"/>
</g>
<!-- 9 -->
<g id="node11" class="node">
<title>9</title>
<ellipse fill="none" stroke="black" cx="475" cy="-346" rx="48.99" ry="18"/>
<text text-anchor="middle" x="475" y="-342.3" font-family="Times,serif" font-size="14.00">La35 (a)</text>
</g>
<!-- 5&#45;&gt;9 -->
<g id="edge10" class="edge">
<title>5&#45;&gt;9</title>
<path fill="none" stroke="black" stroke-dasharray="1,5" d="M675.58,-416.14C634.13,-401.85 564.43,-377.83 519.08,-362.19"/>
<polygon fill="black" stroke="black" points="520.11,-358.85 509.51,-358.9 517.83,-365.46 520.11,-358.85"/>
</g>
<!-- 14 -->
<g id="node16" class="node">
<title>14</title>
<ellipse fill="none" stroke="black" cx="592" cy="-346" rx="50.09" ry="18"/>
<text text-anchor="middle" x="592" y="-342.3" font-family="Times,serif" font-size="14.00">V571 (a)</text>
</g>
<!-- 5&#45;&gt;14 -->
<g id="edge15" class="edge">
<title>5&#45;&gt;14</title>
<path fill="none" stroke="black" stroke-dasharray="1,5" d="M687.81,-412.76C669.35,-400.09 642.88,-381.93 622.44,-367.9"/>
<polygon fill="black" stroke="black" points="624.32,-364.94 614.1,-362.17 620.36,-370.71 624.32,-364.94"/>
</g>
<!-- 24 -->
<g id="node26" class="node">
<title>24</title>
<ellipse fill="none" stroke="black" cx="710" cy="-346" rx="50.09" ry="18"/>
<text text-anchor="middle" x="710" y="-342.3" font-family="Times,serif" font-size="14.00">A116 (a)</text>
</g>
<!-- 5&#45;&gt;24 -->
<g id="edge24" class="edge">
<title>5&#45;&gt;24</title>
<path fill="none" stroke="black" stroke-dasharray="5,2" d="M710,-410.82C710,-400.19 710,-386.31 710,-374.2"/>
<polygon fill="black" stroke="black" points="713.5,-374.15 710,-364.15 706.5,-374.15 713.5,-374.15"/>
</g>
<!-- 32 -->
<g id="node34" class="node">
<title>32</title>
<ellipse fill="none" stroke="black" cx="825" cy="-346" rx="46.59" ry="18"/>
<text text-anchor="middle" x="825" y="-342.3" font-family="Times,serif" font-size="14.00">Bodl (a)</text>
</g>
<!-- 5&#45;&gt;32 -->
<g id="edge32" class="edge">
<title>5&#45;&gt;32</title>
<path fill="none" stroke="black" stroke-dasharray="5,2" d="M731.63,-412.76C749.54,-400.15 775.18,-382.09 795.06,-368.09"/>
<polygon fill="black" stroke="black" points="797.31,-370.79 803.47,-362.17 793.28,-365.06 797.31,-370.79"/>
</g>
<!-- 37 -->
<g id="node39" class="node">
<title>37</title>
<ellipse fill="none" stroke="black" cx="942" cy="-346" rx="52.79" ry="18"/>
<text text-anchor="middle" x="942" y="-342.3" font-family="Times,serif" font-size="14.00">M111 (a)</text>
</g>
<!-- 5&#45;&gt;37 -->
<g id="edge37" class="edge">
<title>5&#45;&gt;37</title>
<path fill="none" stroke="black" stroke-dasharray="1,5" d="M744.23,-416.05C784.75,-401.9 852.33,-378.31 897.03,-362.7"/>
<polygon fill="black" stroke="black" points="898.2,-366 906.48,-359.4 895.89,-359.39 898.2,-366"/>
</g>
<!-- 7 -->
<g id="node9" class="node">
<title>7</title>
<ellipse fill="none" stroke="black" cx="1561" cy="-180" rx="50.09" ry="18"/>
<text text-anchor="middle" x="1561" y="-176.3" font-family="Times,serif" font-size="14.00">V569 (a)</text>
</g>
<!-- 8 -->
<g id="node10" class="node">
<title>8</title>
<ellipse fill="none" stroke="black" cx="2005" cy="-263" rx="55.79" ry="18"/>
<text text-anchor="middle" x="2005" y="-259.3" font-family="Times,serif" font-size="14.00">V1639 (a)</text>
</g>
<!-- 10 -->
<g id="node12" class="node">
<title>10</title>
<ellipse fill="none" stroke="black" cx="1057" cy="-429" rx="52.79" ry="18"/>
<text text-anchor="middle" x="1057" y="-425.3" font-family="Times,serif" font-size="14.00">LaSM (a)</text>
</g>
<!-- 25 -->
<g id="node27" class="node">
<title>25</title>
<ellipse fill="none" stroke="black" cx="1057" cy="-346" rx="44.39" ry="18"/>
<text text-anchor="middle" x="1057" y="-342.3" font-family="Times,serif" font-size="14.00">B39 (a)</text>
</g>
<!-- 10&#45;&gt;25 -->
<g id="edge25" class="edge">
<title>10&#45;&gt;25</title>
<path fill="none" stroke="black" stroke-dasharray="5,2" d="M1057,-410.82C1057,-400.19 1057,-386.31 1057,-374.2"/>
<polygon fill="black" stroke="black" points="1060.5,-374.15 1057,-364.15 1053.5,-374.15 1060.5,-374.15"/>
</g>
<!-- 11 -->
<g id="node13" class="node">
<title>11</title>
<ellipse fill="none" stroke="black" cx="1893" cy="-346" rx="44.39" ry="18"/>
<text text-anchor="middle" x="1893" y="-342.3" font-family="Times,serif" font-size="14.00">S32 (a)</text>
</g>
<!-- 12 -->
<g id="node14" class="node">
<title>12</title>
<ellipse fill="none" stroke="black" cx="2005" cy="-346" rx="50.09" ry="18"/>
<text text-anchor="middle" x="2005" y="-342.3" font-family="Times,serif" font-size="14.00">V566 (a)</text>
</g>
<!-- 12&#45;&gt;8 -->
<g id="edge9" class="edge">
<title>12&#45;&gt;8</title>
<path fill="none" stroke="black" stroke-dasharray="1,5" d="M2005,-327.82C2005,-317.19 2005,-303.31 2005,-291.2"/>
<polygon fill="black" stroke="black" points="2008.5,-291.15 2005,-281.15 2001.5,-291.15 2008.5,-291.15"/>
</g>
<!-- 13 -->
<g id="node15" class="node">
<title>13</title>
<ellipse fill="none" stroke="black" cx="1189" cy="-429" rx="55.79" ry="18"/>
<text text-anchor="middle" x="1189" y="-425.3" font-family="Times,serif" font-size="14.00">V2036 (a)</text>
</g>
<!-- 15 -->
<g id="node17" class="node">
<title>15</title>
<ellipse fill="none" stroke="black" cx="1313" cy="-429" rx="50.09" ry="18"/>
<text text-anchor="middle" x="1313" y="-425.3" font-family="Times,serif" font-size="14.00">V560 (a)</text>
</g>
<!-- 18 -->
<g id="node20" class="node">
<title>18</title>
<ellipse fill="none" stroke="black" cx="1175" cy="-346" rx="55.79" ry="18"/>
<text text-anchor="middle" x="1175" y="-342.3" font-family="Times,serif" font-size="14.00">V1920 (a)</text>
</g>
<!-- 15&#45;&gt;18 -->
<g id="edge19" class="edge">
<title>15&#45;&gt;18</title>
<path fill="none" stroke="black" stroke-dasharray="5,2" d="M1288.01,-413.33C1266.11,-400.48 1234.05,-381.66 1209.67,-367.35"/>
<polygon fill="black" stroke="black" points="1211.14,-364.15 1200.74,-362.11 1207.59,-370.19 1211.14,-364.15"/>
</g>
<!-- 16 -->
<g id="node18" class="node">
<title>16</title>
<ellipse fill="none" stroke="black" cx="1434" cy="-429" rx="53.09" ry="18"/>
<text text-anchor="middle" x="1434" y="-425.3" font-family="Times,serif" font-size="14.00">M136 (d)</text>
</g>
<!-- 16&#45;&gt;0 -->
<g id="edge1" class="edge">
<title>16&#45;&gt;0</title>
<path fill="none" stroke="black" stroke-dasharray="5,2" d="M1409.11,-412.95C1387.77,-400.05 1356.84,-381.36 1333.36,-367.16"/>
<polygon fill="black" stroke="black" points="1335.13,-364.14 1324.76,-361.97 1331.5,-370.13 1335.13,-364.14"/>
<text text-anchor="middle" x="1378.5" y="-385" font-family="Times,serif" font-size="10.00">2</text>
</g>
<!-- 17 -->
<g id="node19" class="node">
<title>17</title>
<ellipse fill="none" stroke="black" cx="2127" cy="-346" rx="53.89" ry="18"/>
<text text-anchor="middle" x="2127" y="-342.3" font-family="Times,serif" font-size="14.00">P01 (ar1)</text>
</g>
<!-- 19&#45;&gt;2 -->
<g id="edge3" class="edge">
<title>19&#45;&gt;2</title>
<path fill="none" stroke="black" stroke-dasharray="5,2" d="M1289.23,-245.22C1282.04,-234.03 1272.47,-219.12 1264.36,-206.48"/>
<polygon fill="black" stroke="black" points="1267.11,-204.29 1258.76,-197.76 1261.22,-208.07 1267.11,-204.29"/>
<text text-anchor="middle" x="1280.5" y="-219" font-family="Times,serif" font-size="10.00">2</text>
</g>
<!-- 36 -->
<g id="node38" class="node">
<title>36</title>
<ellipse fill="none" stroke="gray" stroke-dasharray="5,2" cx="1352" cy="-180" rx="36" ry="18"/>
<text text-anchor="middle" x="1352" y="-176.3" font-family="Times,serif" font-size="14.00">La2&#45;c</text>
</g>
<!-- 19&#45;&gt;36 -->
<g id="edge36" class="edge">
<title>19&#45;&gt;36</title>
<path fill="none" stroke="gray" stroke-width="2" d="M1310.77,-245.22C1318,-233.96 1327.66,-218.92 1335.81,-206.22"/>
<polygon fill="gray" stroke="gray" stroke-width="2" points="1338.96,-207.79 1341.42,-197.48 1333.07,-204.01 1338.96,-207.79"/>
</g>
<!-- 20 -->
<g id="node22" class="node">
<title>20</title>
<ellipse fill="none" stroke="black" cx="1434" cy="-503" rx="53.89" ry="18"/>
<text text-anchor="middle" x="1434" y="-499.3" font-family="Times,serif" font-size="14.00">aBase (a)</text>
</g>
<!-- 20&#45;&gt;1 -->
<g id="edge2" class="edge">
<title>20&#45;&gt;1</title>
<path fill="none" stroke="black" d="M1379.96,-502.09C1252.27,-501.46 922.37,-494.91 652,-447 647.63,-446.23 643.12,-445.25 638.64,-444.17"/>
<polygon fill="black" stroke="black" points="639.47,-440.77 628.91,-441.65 637.71,-447.55 639.47,-440.77"/>
</g>
<!-- 20&#45;&gt;5 -->
<g id="edge6" class="edge">
<title>20&#45;&gt;5</title>
<path fill="none" stroke="black" stroke-dasharray="5,2" d="M1383.09,-496.94C1252.12,-483.91 904.2,-449.31 766.89,-435.66"/>
<polygon fill="black" stroke="black" points="766.89,-432.14 756.59,-434.63 766.2,-439.11 766.89,-432.14"/>
</g>
<!-- 20&#45;&gt;10 -->
<g id="edge11" class="edge">
<title>20&#45;&gt;10</title>
<path fill="none" stroke="black" d="M1385.99,-494.6C1324.88,-484.92 1216.18,-466.84 1124,-447 1118.57,-445.83 1112.92,-444.53 1107.3,-443.18"/>
<polygon fill="black" stroke="black" points="1107.82,-439.71 1097.28,-440.73 1106.16,-446.51 1107.82,-439.71"/>
</g>
<!-- 20&#45;&gt;13 -->
<g id="edge14" class="edge">
<title>20&#45;&gt;13</title>
<path fill="none" stroke="black" d="M1394.91,-490.51C1352.49,-478.05 1284.67,-458.12 1238.55,-444.56"/>
<polygon fill="black" stroke="black" points="1239.35,-441.15 1228.77,-441.69 1237.37,-447.86 1239.35,-441.15"/>
</g>
<!-- 20&#45;&gt;15 -->
<g id="edge16" class="edge">
<title>20&#45;&gt;15</title>
<path fill="none" stroke="black" stroke-width="2" d="M1408.63,-486.91C1390.61,-476.18 1366.21,-461.66 1346.57,-449.97"/>
<polygon fill="black" stroke="black" stroke-width="2" points="1348.3,-446.93 1337.92,-444.83 1344.72,-452.95 1348.3,-446.93"/>
</g>
<!-- 20&#45;&gt;16 -->
<g id="edge17" class="edge">
<title>20&#45;&gt;16</title>
<path fill="none" stroke="blue" stroke-width="2" d="M1434,-484.94C1434,-476.81 1434,-466.88 1434,-457.7"/>
<polygon fill="blue" stroke="blue" stroke-width="2" points="1437.5,-457.44 1434,-447.44 1430.5,-457.44 1437.5,-457.44"/>
</g>
<!-- 22 -->
<g id="node24" class="node">
<title>22</title>
<ellipse fill="none" stroke="black" cx="1551" cy="-429" rx="44.69" ry="18"/>
<text text-anchor="middle" x="1551" y="-425.3" font-family="Times,serif" font-size="14.00">Nan (a)</text>
</g>
<!-- 20&#45;&gt;22 -->
<g id="edge22" class="edge">
<title>20&#45;&gt;22</title>
<path fill="none" stroke="black" d="M1458.53,-486.91C1476,-476.16 1499.65,-461.6 1518.66,-449.9"/>
<polygon fill="black" stroke="black" points="1520.62,-452.8 1527.3,-444.58 1516.95,-446.84 1520.62,-452.8"/>
</g>
<!-- 29 -->
<g id="node31" class="node">
<title>29</title>
<ellipse fill="none" stroke="black" cx="1668" cy="-429" rx="53.89" ry="18"/>
<text text-anchor="middle" x="1668" y="-425.3" font-family="Times,serif" font-size="14.00">La2 (br1)</text>
</g>
<!-- 20&#45;&gt;29 -->
<g id="edge29" class="edge">
<title>20&#45;&gt;29</title>
<path fill="none" stroke="blue" stroke-width="2" d="M1472.38,-490.19C1512.68,-477.79 1576.13,-458.27 1619.78,-444.84"/>
<polygon fill="blue" stroke="blue" stroke-width="2" points="1621.07,-448.1 1629.6,-441.82 1619.01,-441.41 1621.07,-448.1"/>
</g>
<!-- 33 -->
<g id="node35" class="node">
<title>33</title>
<ellipse fill="none" stroke="black" cx="1893" cy="-429" rx="44.39" ry="18"/>
<text text-anchor="middle" x="1893" y="-425.3" font-family="Times,serif" font-size="14.00">A25 (a)</text>
</g>
<!-- 20&#45;&gt;33 -->
<g id="edge33" class="edge">
<title>20&#45;&gt;33</title>
<path fill="none" stroke="black" stroke-dasharray="5,2" d="M1481.82,-494.5C1569.06,-480.81 1753.26,-451.92 1842.47,-437.93"/>
<polygon fill="black" stroke="black" points="1843.27,-441.34 1852.61,-436.34 1842.19,-434.43 1843.27,-441.34"/>
</g>
<!-- 38 -->
<g id="node40" class="node">
<title>38</title>
<ellipse fill="none" stroke="gray" stroke-dasharray="5,2" cx="2005" cy="-429" rx="50.09" ry="18"/>
<text text-anchor="middle" x="2005" y="-425.3" font-family="Times,serif" font-size="14.00">Savile&#45;Η</text>
</g>
<!-- 20&#45;&gt;38 -->
<g id="edge38" class="edge">
<title>20&#45;&gt;38</title>
<path fill="none" stroke="gray" stroke-width="2" d="M1487.15,-499.33C1580.67,-493.97 1780.42,-479.49 1946,-447 1950.18,-446.18 1954.49,-445.2 1958.79,-444.14"/>
<polygon fill="gray" stroke="gray" stroke-width="2" points="1959.95,-447.45 1968.73,-441.52 1958.17,-440.68 1959.95,-447.45"/>
</g>
<!-- 42 -->
<g id="node44" class="node">
<title>42</title>
<ellipse fill="none" stroke="black" cx="2123" cy="-429" rx="50.09" ry="18"/>
<text text-anchor="middle" x="2123" y="-425.3" font-family="Times,serif" font-size="14.00">S249 (a)</text>
</g>
<!-- 20&#45;&gt;42 -->
<g id="edge42" class="edge">
<title>20&#45;&gt;42</title>
<path fill="none" stroke="black" d="M1487.57,-500.81C1596.84,-497.62 1852.97,-486.23 2064,-447 2068.36,-446.19 2072.87,-445.19 2077.35,-444.09"/>
<polygon fill="black" stroke="black" points="2078.28,-447.47 2087.07,-441.55 2076.51,-440.69 2078.28,-447.47"/>
</g>
<!-- 21 -->
<g id="node23" class="node">
<title>21</title>
<ellipse fill="none" stroke="black" cx="1679" cy="-263" rx="46.59" ry="18"/>
<text text-anchor="middle" x="1679" y="-259.3" font-family="Times,serif" font-size="14.00">Taur (a)</text>
</g>
<!-- 21&#45;&gt;7 -->
<g id="edge8" class="edge">
<title>21&#45;&gt;7</title>
<path fill="none" stroke="black" stroke-dasharray="5,2" d="M1657.08,-246.95C1638.65,-234.3 1612.11,-216.08 1591.59,-202"/>
<polygon fill="black" stroke="black" points="1593.43,-199.01 1583.2,-196.24 1589.47,-204.78 1593.43,-199.01"/>
</g>
<!-- 30 -->
<g id="node32" class="node">
<title>30</title>
<ellipse fill="none" stroke="black" cx="1679" cy="-180" rx="50.09" ry="18"/>
<text text-anchor="middle" x="1679" y="-176.3" font-family="Times,serif" font-size="14.00">Marc (a)</text>
</g>
<!-- 21&#45;&gt;30 -->
<g id="edge30" class="edge">
<title>21&#45;&gt;30</title>
<path fill="none" stroke="black" stroke-dasharray="1,5" d="M1679,-244.82C1679,-234.19 1679,-220.31 1679,-208.2"/>
<polygon fill="black" stroke="black" points="1682.5,-208.15 1679,-198.15 1675.5,-208.15 1682.5,-208.15"/>
</g>
<!-- 39 -->
<g id="node41" class="node">
<title>39</title>
<ellipse fill="none" stroke="black" cx="1800" cy="-180" rx="52.79" ry="18"/>
<text text-anchor="middle" x="1800" y="-176.3" font-family="Times,serif" font-size="14.00">M118 (a)</text>
</g>
<!-- 21&#45;&gt;39 -->
<g id="edge39" class="edge">
<title>21&#45;&gt;39</title>
<path fill="none" stroke="black" stroke-dasharray="5,2" d="M1701.19,-247.14C1720.14,-234.46 1747.61,-216.07 1768.77,-201.9"/>
<polygon fill="black" stroke="black" points="1770.76,-204.78 1777.13,-196.31 1766.87,-198.97 1770.76,-204.78"/>
</g>
<!-- 26 -->
<g id="node28" class="node">
<title>26</title>
<ellipse fill="none" stroke="black" cx="1425" cy="-346" rx="55.79" ry="18"/>
<text text-anchor="middle" x="1425" y="-342.3" font-family="Times,serif" font-size="14.00">V1897 (b)</text>
</g>
<!-- 22&#45;&gt;26 -->
<g id="edge26" class="edge">
<title>22&#45;&gt;26</title>
<path fill="none" stroke="blue" stroke-dasharray="1,5" d="M1528.18,-413.33C1508.4,-400.61 1479.54,-382.06 1457.37,-367.81"/>
<polygon fill="blue" stroke="blue" points="1459.24,-364.85 1448.93,-362.39 1455.45,-370.74 1459.24,-364.85"/>
</g>
<!-- 27 -->
<g id="node29" class="node">
<title>27</title>
<ellipse fill="none" stroke="black" cx="1555" cy="-346" rx="55.79" ry="18"/>
<text text-anchor="middle" x="1555" y="-342.3" font-family="Times,serif" font-size="14.00">V2250 (d)</text>
</g>
<!-- 22&#45;&gt;27 -->
<g id="edge27" class="edge">
<title>22&#45;&gt;27</title>
<path fill="none" stroke="blue" stroke-dasharray="5,2" d="M1551.85,-410.82C1552.37,-400.19 1553.06,-386.31 1553.66,-374.2"/>
<polygon fill="blue" stroke="blue" points="1557.16,-374.31 1554.15,-364.15 1550.16,-373.97 1557.16,-374.31"/>
</g>
<!-- 34 -->
<g id="node36" class="node">
<title>34</title>
<ellipse fill="none" stroke="black" cx="1679" cy="-346" rx="50.09" ry="18"/>
<text text-anchor="middle" x="1679" y="-342.3" font-family="Times,serif" font-size="14.00">V536 (a)</text>
</g>
<!-- 22&#45;&gt;34 -->
<g id="edge34" class="edge">
<title>22&#45;&gt;34</title>
<path fill="none" stroke="black" stroke-width="2" d="M1573.88,-413.52C1594.2,-400.66 1624.1,-381.74 1646.82,-367.36"/>
<polygon fill="black" stroke="black" stroke-width="2" points="1648.87,-370.21 1655.45,-361.9 1645.13,-364.29 1648.87,-370.21"/>
<text text-anchor="middle" x="1625.5" y="-385" font-family="Times,serif" font-size="10.00">3</text>
</g>
<!-- 35 -->
<g id="node37" class="node">
<title>35</title>
<ellipse fill="none" stroke="black" cx="1789" cy="-346" rx="41.69" ry="18"/>
<text text-anchor="middle" x="1789" y="-342.3" font-family="Times,serif" font-size="14.00">Est (a)</text>
</g>
<!-- 22&#45;&gt;35 -->
<g id="edge35" class="edge">
<title>22&#45;&gt;35</title>
<path fill="none" stroke="black" stroke-dasharray="5,2" d="M1584.09,-416.74C1626.81,-402.2 1701.16,-376.9 1747.58,-361.1"/>
<polygon fill="black" stroke="black" points="1748.99,-364.32 1757.33,-357.78 1746.73,-357.69 1748.99,-364.32"/>
<text text-anchor="middle" x="1687.5" y="-385" font-family="Times,serif" font-size="10.00">2</text>
</g>
<!-- 40 -->
<g id="node42" class="node">
<title>40</title>
<ellipse fill="none" stroke="black" cx="1425" cy="-263" rx="42.49" ry="18"/>
<text text-anchor="middle" x="1425" y="-259.3" font-family="Times,serif" font-size="14.00">Bas (c)</text>
</g>
<!-- 26&#45;&gt;40 -->
<g id="edge40" class="edge">
<title>26&#45;&gt;40</title>
<path fill="none" stroke="blue" d="M1425,-327.82C1425,-317.19 1425,-303.31 1425,-291.2"/>
<polygon fill="blue" stroke="blue" points="1428.5,-291.15 1425,-281.15 1421.5,-291.15 1428.5,-291.15"/>
</g>
<!-- 28 -->
<g id="node30" class="node">
<title>28</title>
<ellipse fill="none" stroke="gray" stroke-dasharray="5,2" cx="1800" cy="-107" rx="28.7" ry="18"/>
<text text-anchor="middle" x="1800" y="-103.3" font-family="Times,serif" font-size="14.00">P18</text>
</g>
<!-- 30&#45;&gt;4 -->
<g id="edge5" class="edge">
<title>30&#45;&gt;4</title>
<path fill="none" stroke="black" stroke-dasharray="1,5" d="M1679,-161.81C1679,-153.79 1679,-144.05 1679,-135.07"/>
<polygon fill="black" stroke="black" points="1682.5,-135.03 1679,-125.03 1675.5,-135.03 1682.5,-135.03"/>
</g>
<!-- 31 -->
<g id="node33" class="node">
<title>31</title>
<ellipse fill="none" stroke="black" cx="2239" cy="-346" rx="40.09" ry="18"/>
<text text-anchor="middle" x="2239" y="-342.3" font-family="Times,serif" font-size="14.00">Pal (a)</text>
</g>
<!-- 33&#45;&gt;11 -->
<g id="edge12" class="edge">
<title>33&#45;&gt;11</title>
<path fill="none" stroke="black" stroke-dasharray="5,2" d="M1893,-410.82C1893,-400.19 1893,-386.31 1893,-374.2"/>
<polygon fill="black" stroke="black" points="1896.5,-374.15 1893,-364.15 1889.5,-374.15 1896.5,-374.15"/>
</g>
<!-- 33&#45;&gt;12 -->
<g id="edge13" class="edge">
<title>33&#45;&gt;12</title>
<path fill="none" stroke="black" stroke-dasharray="5,2" d="M1913.8,-412.95C1931.11,-400.44 1955.95,-382.47 1975.34,-368.45"/>
<polygon fill="black" stroke="black" points="1977.49,-371.21 1983.55,-362.52 1973.39,-365.54 1977.49,-371.21"/>
</g>
<!-- 33&#45;&gt;17 -->
<g id="edge18" class="edge">
<title>33&#45;&gt;17</title>
<path fill="none" stroke="black" stroke-dasharray="5,2" d="M1925.54,-416.74C1966.02,-402.72 2035.38,-378.71 2081.21,-362.85"/>
<polygon fill="black" stroke="black" points="2082.6,-366.07 2090.9,-359.5 2080.31,-359.46 2082.6,-366.07"/>
</g>
<!-- 33&#45;&gt;31 -->
<g id="edge31" class="edge">
<title>33&#45;&gt;31</title>
<path fill="none" stroke="black" stroke-dasharray="5,2" d="M1925.9,-416.77C1932.51,-414.71 1939.45,-412.68 1946,-411 2053,-383.64 2083.33,-392.62 2190,-364 2193.13,-363.16 2196.35,-362.22 2199.57,-361.22"/>
<polygon fill="black" stroke="black" points="2200.72,-364.53 2209.15,-358.12 2198.56,-357.87 2200.72,-364.53"/>
</g>
<!-- 34&#45;&gt;21 -->
<g id="edge21" class="edge">
<title>34&#45;&gt;21</title>
<path fill="none" stroke="black" stroke-dasharray="1,5" d="M1679,-327.82C1679,-317.19 1679,-303.31 1679,-291.2"/>
<polygon fill="black" stroke="black" points="1682.5,-291.15 1679,-281.15 1675.5,-291.15 1682.5,-291.15"/>
<text text-anchor="middle" x="1682.5" y="-302" font-family="Times,serif" font-size="10.00">2</text>
</g>
<!-- 41 -->
<g id="node43" class="node">
<title>41</title>
<ellipse fill="none" stroke="black" cx="942" cy="-263" rx="50.09" ry="18"/>
<text text-anchor="middle" x="942" y="-259.3" font-family="Times,serif" font-size="14.00">A336 (a)</text>
</g>
<!-- 37&#45;&gt;41 -->
<g id="edge41" class="edge">
<title>37&#45;&gt;41</title>
<path fill="none" stroke="black" stroke-dasharray="5,2" d="M942,-327.82C942,-317.19 942,-303.31 942,-291.2"/>
<polygon fill="black" stroke="black" points="945.5,-291.15 942,-281.15 938.5,-291.15 945.5,-291.15"/>
</g>
<!-- 39&#45;&gt;28 -->
<g id="edge28" class="edge">
<title>39&#45;&gt;28</title>
<path fill="none" stroke="gray" stroke-dasharray="5,2" d="M1800,-161.81C1800,-153.79 1800,-144.05 1800,-135.07"/>
<polygon fill="gray" stroke="gray" points="1803.5,-135.03 1800,-125.03 1796.5,-135.03 1803.5,-135.03"/>
</g>
</g>
</svg>
