<?xml version="1.0" encoding="UTF-8" standalone="no"?>
<!DOCTYPE svg PUBLIC "-//W3C//DTD SVG 1.1//EN"
 "http://www.w3.org/Graphics/SVG/1.1/DTD/svg11.dtd">
<!-- Generated by graphviz version 2.43.0 (0)
 -->
<!-- Title: textual_flow Pages: 1 -->
<svg width="1819pt" height="639pt"
 viewBox="0.00 0.00 1819.00 639.00" xmlns="http://www.w3.org/2000/svg" xmlns:xlink="http://www.w3.org/1999/xlink">
<g id="graph0" class="graph" transform="scale(1 1) rotate(0) translate(4 635)">
<title>textual_flow</title>
<polygon fill="white" stroke="transparent" points="-4,4 -4,-635 1815,-635 1815,4 -4,4"/>
<g id="clust1" class="cluster">
<title>cluster_legend</title>
<polygon fill="none" stroke="black" points="8,-569 8,-623 164,-623 164,-569 8,-569"/>
</g>
<g id="clust2" class="cluster">
<title>cluster_plot</title>
</g>
<!-- label -->
<g id="node1" class="node">
<title>label</title>
<text text-anchor="middle" x="86" y="-599.8" font-family="Times,serif" font-size="14.00">adstag1.2.22U31</text>
<text text-anchor="middle" x="86" y="-584.8" font-family="Times,serif" font-size="14.00">Con = 3</text>
</g>
<!-- 0 -->
<g id="node2" class="node">
<title>0</title>
<ellipse fill="none" stroke="black" cx="378" cy="-512" rx="44.39" ry="18"/>
<text text-anchor="middle" x="378" y="-508.3" font-family="Times,serif" font-size="14.00">A25 (b)</text>
</g>
<!-- 19 -->
<g id="node21" class="node">
<title>19</title>
<ellipse fill="none" stroke="black" cx="230" cy="-429" rx="50.09" ry="18"/>
<text text-anchor="middle" x="230" y="-425.3" font-family="Times,serif" font-size="14.00">V566 (b)</text>
</g>
<!-- 0&#45;&gt;19 -->
<g id="edge19" class="edge">
<title>0&#45;&gt;19</title>
<path fill="none" stroke="black" stroke-dasharray="5,2" d="M352.56,-497.08C328.53,-483.93 292.27,-464.08 265.42,-449.39"/>
<polygon fill="black" stroke="black" points="266.81,-446.15 256.35,-444.42 263.45,-452.3 266.81,-446.15"/>
</g>
<!-- 30 -->
<g id="node32" class="node">
<title>30</title>
<ellipse fill="none" stroke="black" cx="343" cy="-429" rx="44.69" ry="18"/>
<text text-anchor="middle" x="343" y="-425.3" font-family="Times,serif" font-size="14.00">B39 (b)</text>
</g>
<!-- 0&#45;&gt;30 -->
<g id="edge30" class="edge">
<title>0&#45;&gt;30</title>
<path fill="none" stroke="black" d="M370.75,-494.22C366.04,-483.32 359.8,-468.89 354.44,-456.47"/>
<polygon fill="black" stroke="black" points="357.54,-454.83 350.36,-447.04 351.12,-457.61 357.54,-454.83"/>
<text text-anchor="middle" x="365.5" y="-468" font-family="Times,serif" font-size="10.00">3</text>
</g>
<!-- 42 -->
<g id="node44" class="node">
<title>42</title>
<ellipse fill="none" stroke="black" cx="451" cy="-429" rx="45.49" ry="18"/>
<text text-anchor="middle" x="451" y="-425.3" font-family="Times,serif" font-size="14.00">Nan (b)</text>
</g>
<!-- 0&#45;&gt;42 -->
<g id="edge42" class="edge">
<title>0&#45;&gt;42</title>
<path fill="none" stroke="black" stroke-dasharray="5,2" d="M392.77,-494.61C403.33,-482.89 417.7,-466.95 429.52,-453.83"/>
<polygon fill="black" stroke="black" points="432.4,-455.86 436.5,-446.09 427.2,-451.18 432.4,-455.86"/>
<text text-anchor="middle" x="421.5" y="-468" font-family="Times,serif" font-size="10.00">2</text>
</g>
<!-- 1 -->
<g id="node3" class="node">
<title>1</title>
<ellipse fill="none" stroke="black" cx="1607" cy="-180" rx="40.89" ry="18"/>
<text text-anchor="middle" x="1607" y="-176.3" font-family="Times,serif" font-size="14.00">Sin (a)</text>
</g>
<!-- 6 -->
<g id="node8" class="node">
<title>6</title>
<ellipse fill="none" stroke="black" cx="1607" cy="-107" rx="50.09" ry="18"/>
<text text-anchor="middle" x="1607" y="-103.3" font-family="Times,serif" font-size="14.00">Marc (a)</text>
</g>
<!-- 1&#45;&gt;6 -->
<g id="edge7" class="edge">
<title>1&#45;&gt;6</title>
<path fill="none" stroke="black" stroke-dasharray="1,5" d="M1607,-161.81C1607,-153.79 1607,-144.05 1607,-135.07"/>
<polygon fill="black" stroke="black" points="1610.5,-135.03 1607,-125.03 1603.5,-135.03 1610.5,-135.03"/>
</g>
<!-- 2 -->
<g id="node4" class="node">
<title>2</title>
<ellipse fill="none" stroke="black" cx="755" cy="-512" rx="52.79" ry="18"/>
<text text-anchor="middle" x="755" y="-508.3" font-family="Times,serif" font-size="14.00">LaSM (a)</text>
</g>
<!-- 3 -->
<g id="node5" class="node">
<title>3</title>
<ellipse fill="none" stroke="black" cx="455" cy="-180" rx="53.09" ry="18"/>
<text text-anchor="middle" x="455" y="-176.3" font-family="Times,serif" font-size="14.00">M118 (b)</text>
</g>
<!-- 8 -->
<g id="node10" class="node">
<title>8</title>
<ellipse fill="none" stroke="gray" stroke-dasharray="5,2" cx="455" cy="-107" rx="28.7" ry="18"/>
<text text-anchor="middle" x="455" y="-103.3" font-family="Times,serif" font-size="14.00">P18</text>
</g>
<!-- 3&#45;&gt;8 -->
<g id="edge9" class="edge">
<title>3&#45;&gt;8</title>
<path fill="none" stroke="gray" stroke-dasharray="5,2" d="M455,-161.81C455,-153.79 455,-144.05 455,-135.07"/>
<polygon fill="gray" stroke="gray" points="458.5,-135.03 455,-125.03 451.5,-135.03 458.5,-135.03"/>
</g>
<!-- 4 -->
<g id="node6" class="node">
<title>4</title>
<ellipse fill="none" stroke="black" cx="1607" cy="-34" rx="46.29" ry="18"/>
<text text-anchor="middle" x="1607" y="-30.3" font-family="Times,serif" font-size="14.00">Mon (a)</text>
</g>
<!-- 5 -->
<g id="node7" class="node">
<title>5</title>
<ellipse fill="none" stroke="gray" stroke-dasharray="5,2" cx="1400" cy="-180" rx="50.09" ry="18"/>
<text text-anchor="middle" x="1400" y="-176.3" font-family="Times,serif" font-size="14.00">Savile&#45;Η</text>
</g>
<!-- 6&#45;&gt;4 -->
<g id="edge5" class="edge">
<title>6&#45;&gt;4</title>
<path fill="none" stroke="black" stroke-dasharray="1,5" d="M1607,-88.81C1607,-80.79 1607,-71.05 1607,-62.07"/>
<polygon fill="black" stroke="black" points="1610.5,-62.03 1607,-52.03 1603.5,-62.03 1610.5,-62.03"/>
</g>
<!-- 7 -->
<g id="node9" class="node">
<title>7</title>
<ellipse fill="none" stroke="black" cx="797" cy="-346" rx="50.09" ry="18"/>
<text text-anchor="middle" x="797" y="-342.3" font-family="Times,serif" font-size="14.00">A336 (a)</text>
</g>
<!-- 9 -->
<g id="node11" class="node">
<title>9</title>
<ellipse fill="none" stroke="black" cx="882" cy="-512" rx="55.79" ry="18"/>
<text text-anchor="middle" x="882" y="-508.3" font-family="Times,serif" font-size="14.00">V2250 (a)</text>
</g>
<!-- 10 -->
<g id="node12" class="node">
<title>10</title>
<ellipse fill="none" stroke="black" cx="343" cy="-263" rx="43.59" ry="18"/>
<text text-anchor="middle" x="343" y="-259.3" font-family="Times,serif" font-size="14.00">Bas (b)</text>
</g>
<!-- 11 -->
<g id="node13" class="node">
<title>11</title>
<ellipse fill="none" stroke="black" cx="1163" cy="-596" rx="53.89" ry="18"/>
<text text-anchor="middle" x="1163" y="-592.3" font-family="Times,serif" font-size="14.00">aBase (a)</text>
</g>
<!-- 11&#45;&gt;0 -->
<g id="edge1" class="edge">
<title>11&#45;&gt;0</title>
<path fill="none" stroke="blue" stroke-dasharray="5,2" d="M1112.4,-589.71C971.32,-574.98 574.52,-533.53 430.81,-518.52"/>
<polygon fill="blue" stroke="blue" points="430.81,-515 420.5,-517.44 430.08,-521.96 430.81,-515"/>
</g>
<!-- 11&#45;&gt;2 -->
<g id="edge3" class="edge">
<title>11&#45;&gt;2</title>
<path fill="none" stroke="black" d="M1115.45,-587.34C1048.52,-576.26 922.86,-554.41 817,-530 812.66,-529 808.17,-527.9 803.68,-526.75"/>
<polygon fill="black" stroke="black" points="804.46,-523.34 793.9,-524.19 802.69,-530.11 804.46,-523.34"/>
</g>
<!-- 11&#45;&gt;9 -->
<g id="edge10" class="edge">
<title>11&#45;&gt;9</title>
<path fill="none" stroke="black" stroke-width="2" d="M1123.63,-583.51C1073.44,-568.86 986.61,-543.53 931.85,-527.55"/>
<polygon fill="black" stroke="black" stroke-width="2" points="932.59,-524.12 922.01,-524.68 930.63,-530.84 932.59,-524.12"/>
<text text-anchor="middle" x="1042.5" y="-551" font-family="Times,serif" font-size="10.00">3</text>
</g>
<!-- 16 -->
<g id="node18" class="node">
<title>16</title>
<ellipse fill="none" stroke="black" cx="997" cy="-512" rx="41.69" ry="18"/>
<text text-anchor="middle" x="997" y="-508.3" font-family="Times,serif" font-size="14.00">Est (a)</text>
</g>
<!-- 11&#45;&gt;16 -->
<g id="edge16" class="edge">
<title>11&#45;&gt;16</title>
<path fill="none" stroke="black" d="M1134.09,-580.72C1105.92,-566.8 1063.04,-545.62 1032.75,-530.66"/>
<polygon fill="black" stroke="black" points="1033.91,-527.33 1023.39,-526.04 1030.81,-533.61 1033.91,-527.33"/>
<text text-anchor="middle" x="1092.5" y="-551" font-family="Times,serif" font-size="10.00">3</text>
</g>
<!-- 27 -->
<g id="node29" class="node">
<title>27</title>
<ellipse fill="none" stroke="black" cx="1105" cy="-512" rx="48.99" ry="18"/>
<text text-anchor="middle" x="1105" y="-508.3" font-family="Times,serif" font-size="14.00">La22 (a)</text>
</g>
<!-- 11&#45;&gt;27 -->
<g id="edge27" class="edge">
<title>11&#45;&gt;27</title>
<path fill="none" stroke="black" d="M1151.26,-578.41C1143.01,-566.74 1131.82,-550.92 1122.51,-537.76"/>
<polygon fill="black" stroke="black" points="1125.35,-535.71 1116.72,-529.57 1119.64,-539.75 1125.35,-535.71"/>
<text text-anchor="middle" x="1140.5" y="-551" font-family="Times,serif" font-size="10.00">2</text>
</g>
<!-- 31 -->
<g id="node33" class="node">
<title>31</title>
<ellipse fill="none" stroke="black" cx="1222" cy="-512" rx="50.09" ry="18"/>
<text text-anchor="middle" x="1222" y="-508.3" font-family="Times,serif" font-size="14.00">S249 (a)</text>
</g>
<!-- 11&#45;&gt;31 -->
<g id="edge31" class="edge">
<title>11&#45;&gt;31</title>
<path fill="none" stroke="black" d="M1174.94,-578.41C1183.34,-566.74 1194.72,-550.92 1204.18,-537.76"/>
<polygon fill="black" stroke="black" points="1207.08,-539.73 1210.08,-529.57 1201.4,-535.64 1207.08,-539.73"/>
</g>
<!-- 33 -->
<g id="node35" class="node">
<title>33</title>
<ellipse fill="none" stroke="black" cx="1340" cy="-512" rx="50.09" ry="18"/>
<text text-anchor="middle" x="1340" y="-508.3" font-family="Times,serif" font-size="14.00">V560 (b)</text>
</g>
<!-- 11&#45;&gt;33 -->
<g id="edge33" class="edge">
<title>11&#45;&gt;33</title>
<path fill="none" stroke="blue" stroke-width="2" d="M1193.43,-580.9C1223.29,-567.07 1268.96,-545.91 1301.37,-530.89"/>
<polygon fill="blue" stroke="blue" stroke-width="2" points="1302.96,-534.02 1310.56,-526.64 1300.01,-527.67 1302.96,-534.02"/>
</g>
<!-- 38 -->
<g id="node40" class="node">
<title>38</title>
<ellipse fill="none" stroke="black" cx="1461" cy="-512" rx="52.79" ry="18"/>
<text text-anchor="middle" x="1461" y="-508.3" font-family="Times,serif" font-size="14.00">M136 (a)</text>
</g>
<!-- 11&#45;&gt;38 -->
<g id="edge38" class="edge">
<title>11&#45;&gt;38</title>
<path fill="none" stroke="black" stroke-width="2" d="M1203.19,-583.94C1257.25,-569.06 1353.35,-542.62 1411.71,-526.56"/>
<polygon fill="black" stroke="black" stroke-width="2" points="1412.73,-529.91 1421.45,-523.88 1410.88,-523.16 1412.73,-529.91"/>
</g>
<!-- 43 -->
<g id="node45" class="node">
<title>43</title>
<ellipse fill="none" stroke="black" cx="1588" cy="-512" rx="55.79" ry="18"/>
<text text-anchor="middle" x="1588" y="-508.3" font-family="Times,serif" font-size="14.00">V1920 (a)</text>
</g>
<!-- 11&#45;&gt;43 -->
<g id="edge43" class="edge">
<title>11&#45;&gt;43</title>
<path fill="none" stroke="black" stroke-width="2" d="M1210.98,-587.55C1280.21,-576.52 1411.99,-554.5 1523,-530 1527.6,-528.99 1532.36,-527.87 1537.13,-526.7"/>
<polygon fill="black" stroke="black" stroke-width="2" points="1538,-530.09 1546.85,-524.27 1536.3,-523.3 1538,-530.09"/>
<text text-anchor="middle" x="1437.5" y="-551" font-family="Times,serif" font-size="10.00">2</text>
</g>
<!-- 44 -->
<g id="node46" class="node">
<title>44</title>
<ellipse fill="none" stroke="black" cx="1705" cy="-512" rx="42.79" ry="18"/>
<text text-anchor="middle" x="1705" y="-508.3" font-family="Times,serif" font-size="14.00">La2 (a)</text>
</g>
<!-- 11&#45;&gt;44 -->
<g id="edge44" class="edge">
<title>11&#45;&gt;44</title>
<path fill="none" stroke="black" stroke-width="2" d="M1215.44,-591.34C1305.74,-584.32 1496.03,-566.3 1653,-530 1656.44,-529.21 1659.97,-528.28 1663.5,-527.29"/>
<polygon fill="black" stroke="black" stroke-width="2" points="1664.78,-530.56 1673.35,-524.33 1662.77,-523.85 1664.78,-530.56"/>
</g>
<!-- 12 -->
<g id="node14" class="node">
<title>12</title>
<ellipse fill="none" stroke="black" cx="561" cy="-429" rx="46.59" ry="18"/>
<text text-anchor="middle" x="561" y="-425.3" font-family="Times,serif" font-size="14.00">Bodl (a)</text>
</g>
<!-- 13 -->
<g id="node15" class="node">
<title>13</title>
<ellipse fill="none" stroke="black" cx="676" cy="-429" rx="50.09" ry="18"/>
<text text-anchor="middle" x="676" y="-425.3" font-family="Times,serif" font-size="14.00">V571 (a)</text>
</g>
<!-- 14 -->
<g id="node16" class="node">
<title>14</title>
<ellipse fill="none" stroke="black" cx="1650" cy="-263" rx="46.59" ry="18"/>
<text text-anchor="middle" x="1650" y="-259.3" font-family="Times,serif" font-size="14.00">Taur (a)</text>
</g>
<!-- 14&#45;&gt;1 -->
<g id="edge2" class="edge">
<title>14&#45;&gt;1</title>
<path fill="none" stroke="black" stroke-dasharray="1,5" d="M1641.09,-245.22C1635.21,-234.14 1627.39,-219.41 1620.72,-206.85"/>
<polygon fill="black" stroke="black" points="1623.68,-204.95 1615.9,-197.76 1617.5,-208.24 1623.68,-204.95"/>
</g>
<!-- 40 -->
<g id="node42" class="node">
<title>40</title>
<ellipse fill="none" stroke="black" cx="1716" cy="-180" rx="50.09" ry="18"/>
<text text-anchor="middle" x="1716" y="-176.3" font-family="Times,serif" font-size="14.00">V569 (a)</text>
</g>
<!-- 14&#45;&gt;40 -->
<g id="edge40" class="edge">
<title>14&#45;&gt;40</title>
<path fill="none" stroke="black" stroke-dasharray="5,2" d="M1663.36,-245.61C1672.75,-234.08 1685.48,-218.46 1696.07,-205.46"/>
<polygon fill="black" stroke="black" points="1699.06,-207.33 1702.66,-197.37 1693.63,-202.91 1699.06,-207.33"/>
</g>
<!-- 15 -->
<g id="node17" class="node">
<title>15</title>
<ellipse fill="none" stroke="black" cx="1400" cy="-263" rx="40.09" ry="18"/>
<text text-anchor="middle" x="1400" y="-259.3" font-family="Times,serif" font-size="14.00">Pal (a)</text>
</g>
<!-- 15&#45;&gt;5 -->
<g id="edge6" class="edge">
<title>15&#45;&gt;5</title>
<path fill="none" stroke="gray" d="M1400,-244.82C1400,-234.19 1400,-220.31 1400,-208.2"/>
<polygon fill="gray" stroke="gray" points="1403.5,-208.15 1400,-198.15 1396.5,-208.15 1403.5,-208.15"/>
</g>
<!-- 17 -->
<g id="node19" class="node">
<title>17</title>
<ellipse fill="none" stroke="black" cx="409" cy="-346" rx="55.79" ry="18"/>
<text text-anchor="middle" x="409" y="-342.3" font-family="Times,serif" font-size="14.00">V1897 (b)</text>
</g>
<!-- 17&#45;&gt;10 -->
<g id="edge11" class="edge">
<title>17&#45;&gt;10</title>
<path fill="none" stroke="black" d="M395.32,-328.22C385.91,-316.66 373.25,-301.13 362.75,-288.23"/>
<polygon fill="black" stroke="black" points="365.24,-285.75 356.21,-280.21 359.81,-290.17 365.24,-285.75"/>
</g>
<!-- 18 -->
<g id="node20" class="node">
<title>18</title>
<ellipse fill="none" stroke="black" cx="455" cy="-263" rx="50.09" ry="18"/>
<text text-anchor="middle" x="455" y="-259.3" font-family="Times,serif" font-size="14.00">V568 (b)</text>
</g>
<!-- 18&#45;&gt;3 -->
<g id="edge4" class="edge">
<title>18&#45;&gt;3</title>
<path fill="none" stroke="black" stroke-dasharray="5,2" d="M455,-244.82C455,-234.19 455,-220.31 455,-208.2"/>
<polygon fill="black" stroke="black" points="458.5,-208.15 455,-198.15 451.5,-208.15 458.5,-208.15"/>
<text text-anchor="middle" x="458.5" y="-219" font-family="Times,serif" font-size="10.00">2</text>
</g>
<!-- 20 -->
<g id="node22" class="node">
<title>20</title>
<ellipse fill="none" stroke="gray" stroke-dasharray="5,2" cx="1620" cy="-429" rx="45.49" ry="18"/>
<text text-anchor="middle" x="1620" y="-425.3" font-family="Times,serif" font-size="14.00">LaSM&#45;c</text>
</g>
<!-- 21 -->
<g id="node23" class="node">
<title>21</title>
<ellipse fill="none" stroke="black" cx="797" cy="-429" rx="52.79" ry="18"/>
<text text-anchor="middle" x="797" y="-425.3" font-family="Times,serif" font-size="14.00">M111 (a)</text>
</g>
<!-- 21&#45;&gt;7 -->
<g id="edge8" class="edge">
<title>21&#45;&gt;7</title>
<path fill="none" stroke="black" stroke-dasharray="5,2" d="M797,-410.82C797,-400.19 797,-386.31 797,-374.2"/>
<polygon fill="black" stroke="black" points="800.5,-374.15 797,-364.15 793.5,-374.15 800.5,-374.15"/>
</g>
<!-- 22 -->
<g id="node24" class="node">
<title>22</title>
<ellipse fill="none" stroke="black" cx="1164" cy="-346" rx="44.39" ry="18"/>
<text text-anchor="middle" x="1164" y="-342.3" font-family="Times,serif" font-size="14.00">S32 (a)</text>
</g>
<!-- 23 -->
<g id="node25" class="node">
<title>23</title>
<ellipse fill="none" stroke="black" cx="552" cy="-346" rx="50.89" ry="18"/>
<text text-anchor="middle" x="552" y="-342.3" font-family="Times,serif" font-size="14.00">Neap (b)</text>
</g>
<!-- 23&#45;&gt;18 -->
<g id="edge18" class="edge">
<title>23&#45;&gt;18</title>
<path fill="none" stroke="black" stroke-dasharray="5,2" d="M532.84,-329C518.26,-316.83 498.02,-299.93 481.84,-286.41"/>
<polygon fill="black" stroke="black" points="483.71,-283.42 473.79,-279.69 479.23,-288.79 483.71,-283.42"/>
<text text-anchor="middle" x="512.5" y="-302" font-family="Times,serif" font-size="10.00">3</text>
</g>
<!-- 32 -->
<g id="node34" class="node">
<title>32</title>
<ellipse fill="none" stroke="gray" stroke-dasharray="5,2" cx="563" cy="-263" rx="39.79" ry="18"/>
<text text-anchor="middle" x="563" y="-259.3" font-family="Times,serif" font-size="14.00">Taur&#45;c</text>
</g>
<!-- 23&#45;&gt;32 -->
<g id="edge32" class="edge">
<title>23&#45;&gt;32</title>
<path fill="none" stroke="gray" stroke-width="2" d="M554.33,-327.82C555.78,-317.19 557.66,-303.31 559.31,-291.2"/>
<polygon fill="gray" stroke="gray" stroke-width="2" points="562.79,-291.53 560.67,-281.15 555.86,-290.59 562.79,-291.53"/>
</g>
<!-- 36 -->
<g id="node38" class="node">
<title>36</title>
<ellipse fill="none" stroke="gray" stroke-dasharray="5,2" cx="663" cy="-263" rx="42.49" ry="18"/>
<text text-anchor="middle" x="663" y="-259.3" font-family="Times,serif" font-size="14.00">Marc&#45;c</text>
</g>
<!-- 23&#45;&gt;36 -->
<g id="edge36" class="edge">
<title>23&#45;&gt;36</title>
<path fill="none" stroke="gray" stroke-dasharray="5,2" d="M573.14,-329.57C590.56,-316.86 615.44,-298.71 634.6,-284.72"/>
<polygon fill="gray" stroke="gray" points="636.67,-287.54 642.69,-278.82 632.55,-281.89 636.67,-287.54"/>
</g>
<!-- 24 -->
<g id="node26" class="node">
<title>24</title>
<ellipse fill="none" stroke="black" cx="1650" cy="-346" rx="50.09" ry="18"/>
<text text-anchor="middle" x="1650" y="-342.3" font-family="Times,serif" font-size="14.00">V536 (a)</text>
</g>
<!-- 24&#45;&gt;14 -->
<g id="edge14" class="edge">
<title>24&#45;&gt;14</title>
<path fill="none" stroke="black" stroke-dasharray="1,5" d="M1650,-327.82C1650,-317.19 1650,-303.31 1650,-291.2"/>
<polygon fill="black" stroke="black" points="1653.5,-291.15 1650,-281.15 1646.5,-291.15 1653.5,-291.15"/>
<text text-anchor="middle" x="1653.5" y="-302" font-family="Times,serif" font-size="10.00">2</text>
</g>
<!-- 25 -->
<g id="node27" class="node">
<title>25</title>
<ellipse fill="none" stroke="black" cx="924" cy="-429" rx="55.79" ry="18"/>
<text text-anchor="middle" x="924" y="-425.3" font-family="Times,serif" font-size="14.00">V2036 (a)</text>
</g>
<!-- 26 -->
<g id="node28" class="node">
<title>26</title>
<ellipse fill="none" stroke="black" cx="1047" cy="-429" rx="48.99" ry="18"/>
<text text-anchor="middle" x="1047" y="-425.3" font-family="Times,serif" font-size="14.00">La35 (a)</text>
</g>
<!-- 27&#45;&gt;12 -->
<g id="edge12" class="edge">
<title>27&#45;&gt;12</title>
<path fill="none" stroke="black" stroke-dasharray="5,2" d="M1070,-499.38C1062.79,-497.32 1055.2,-495.39 1048,-494 962.11,-477.42 938.98,-485.36 852,-476 747.37,-464.74 719.95,-468.81 617,-447 613.09,-446.17 609.05,-445.19 605.03,-444.14"/>
<polygon fill="black" stroke="black" points="605.68,-440.69 595.11,-441.37 603.8,-447.43 605.68,-440.69"/>
</g>
<!-- 27&#45;&gt;13 -->
<g id="edge13" class="edge">
<title>27&#45;&gt;13</title>
<path fill="none" stroke="black" stroke-dasharray="1,5" d="M1069.63,-499.61C1062.51,-497.56 1055.06,-495.57 1048,-494 1030.84,-490.17 752.18,-450.75 735,-447 730.9,-446.11 726.66,-445.08 722.43,-444"/>
<polygon fill="black" stroke="black" points="723.2,-440.58 712.63,-441.36 721.38,-447.34 723.2,-440.58"/>
</g>
<!-- 27&#45;&gt;21 -->
<g id="edge21" class="edge">
<title>27&#45;&gt;21</title>
<path fill="none" stroke="black" stroke-dasharray="1,5" d="M1068.58,-499.87C1061.76,-497.86 1054.67,-495.82 1048,-494 964.5,-471.18 942.74,-468.89 859,-447 854.93,-445.94 850.72,-444.82 846.49,-443.68"/>
<polygon fill="black" stroke="black" points="847.22,-440.25 836.65,-441.02 845.39,-447.01 847.22,-440.25"/>
</g>
<!-- 27&#45;&gt;25 -->
<g id="edge25" class="edge">
<title>27&#45;&gt;25</title>
<path fill="none" stroke="black" stroke-dasharray="5,2" d="M1075.11,-497.62C1045.05,-484.17 998.46,-463.32 964.96,-448.33"/>
<polygon fill="black" stroke="black" points="966.01,-444.97 955.45,-444.08 963.15,-451.36 966.01,-444.97"/>
</g>
<!-- 27&#45;&gt;26 -->
<g id="edge26" class="edge">
<title>27&#45;&gt;26</title>
<path fill="none" stroke="black" stroke-dasharray="1,5" d="M1092.98,-494.22C1084.84,-482.85 1073.94,-467.63 1064.8,-454.86"/>
<polygon fill="black" stroke="black" points="1067.47,-452.58 1058.8,-446.48 1061.78,-456.65 1067.47,-452.58"/>
</g>
<!-- 29 -->
<g id="node31" class="node">
<title>29</title>
<ellipse fill="none" stroke="black" cx="1164" cy="-429" rx="50.09" ry="18"/>
<text text-anchor="middle" x="1164" y="-425.3" font-family="Times,serif" font-size="14.00">V565 (a)</text>
</g>
<!-- 27&#45;&gt;29 -->
<g id="edge29" class="edge">
<title>27&#45;&gt;29</title>
<path fill="none" stroke="black" stroke-dasharray="5,2" d="M1117.22,-494.22C1125.51,-482.85 1136.59,-467.63 1145.9,-454.86"/>
<polygon fill="black" stroke="black" points="1148.93,-456.63 1151.99,-446.48 1143.28,-452.51 1148.93,-456.63"/>
</g>
<!-- 34 -->
<g id="node36" class="node">
<title>34</title>
<ellipse fill="none" stroke="black" cx="1282" cy="-429" rx="50.09" ry="18"/>
<text text-anchor="middle" x="1282" y="-425.3" font-family="Times,serif" font-size="14.00">Patm (a)</text>
</g>
<!-- 27&#45;&gt;34 -->
<g id="edge34" class="edge">
<title>27&#45;&gt;34</title>
<path fill="none" stroke="black" stroke-dasharray="1,5" d="M1134.63,-497.44C1164.36,-483.83 1210.33,-462.8 1243.02,-447.84"/>
<polygon fill="black" stroke="black" points="1244.64,-450.95 1252.28,-443.6 1241.73,-444.58 1244.64,-450.95"/>
<text text-anchor="middle" x="1207.5" y="-468" font-family="Times,serif" font-size="10.00">2</text>
</g>
<!-- 41 -->
<g id="node43" class="node">
<title>41</title>
<ellipse fill="none" stroke="black" cx="1394" cy="-429" rx="44.39" ry="18"/>
<text text-anchor="middle" x="1394" y="-425.3" font-family="Times,serif" font-size="14.00">P74 (a)</text>
</g>
<!-- 27&#45;&gt;41 -->
<g id="edge41" class="edge">
<title>27&#45;&gt;41</title>
<path fill="none" stroke="black" stroke-dasharray="1,5" d="M1141.78,-500.06C1148.81,-498.01 1156.13,-495.91 1163,-494 1241.82,-472.05 1262.46,-469.95 1341,-447 1344.3,-446.04 1347.71,-445.01 1351.13,-443.96"/>
<polygon fill="black" stroke="black" points="1352.22,-447.29 1360.72,-440.97 1350.13,-440.61 1352.22,-447.29"/>
</g>
<!-- 45 -->
<g id="node47" class="node">
<title>45</title>
<ellipse fill="none" stroke="black" cx="1506" cy="-429" rx="50.09" ry="18"/>
<text text-anchor="middle" x="1506" y="-425.3" font-family="Times,serif" font-size="14.00">A116 (a)</text>
</g>
<!-- 27&#45;&gt;45 -->
<g id="edge45" class="edge">
<title>27&#45;&gt;45</title>
<path fill="none" stroke="black" stroke-dasharray="5,2" d="M1141.02,-499.71C1148.26,-497.65 1155.84,-495.64 1163,-494 1287.73,-465.51 1322.21,-475.2 1447,-447 1451.09,-446.07 1455.32,-445.03 1459.55,-443.93"/>
<polygon fill="black" stroke="black" points="1460.61,-447.27 1469.35,-441.28 1458.78,-440.51 1460.61,-447.27"/>
</g>
<!-- 28 -->
<g id="node30" class="node">
<title>28</title>
<ellipse fill="none" stroke="black" cx="1739" cy="-429" rx="55.79" ry="18"/>
<text text-anchor="middle" x="1739" y="-425.3" font-family="Times,serif" font-size="14.00">V1629 (a)</text>
</g>
<!-- 28&#45;&gt;24 -->
<g id="edge24" class="edge">
<title>28&#45;&gt;24</title>
<path fill="none" stroke="black" stroke-dasharray="5,2" d="M1720.99,-411.61C1707.88,-399.67 1689.94,-383.35 1675.37,-370.09"/>
<polygon fill="black" stroke="black" points="1677.43,-367.23 1667.68,-363.09 1672.72,-372.41 1677.43,-367.23"/>
</g>
<!-- 37 -->
<g id="node39" class="node">
<title>37</title>
<ellipse fill="none" stroke="gray" stroke-dasharray="5,2" cx="1754" cy="-346" rx="36" ry="18"/>
<text text-anchor="middle" x="1754" y="-342.3" font-family="Times,serif" font-size="14.00">La2&#45;c</text>
</g>
<!-- 28&#45;&gt;37 -->
<g id="edge37" class="edge">
<title>28&#45;&gt;37</title>
<path fill="none" stroke="gray" stroke-width="2" d="M1742.18,-410.82C1744.15,-400.19 1746.72,-386.31 1748.96,-374.2"/>
<polygon fill="gray" stroke="gray" stroke-width="2" points="1752.44,-374.62 1750.82,-364.15 1745.56,-373.35 1752.44,-374.62"/>
</g>
<!-- 34&#45;&gt;22 -->
<g id="edge22" class="edge">
<title>34&#45;&gt;22</title>
<path fill="none" stroke="black" stroke-dasharray="5,2" d="M1259.81,-412.76C1241.23,-400.01 1214.55,-381.7 1194.06,-367.63"/>
<polygon fill="black" stroke="black" points="1195.92,-364.67 1185.7,-361.89 1191.96,-370.44 1195.92,-364.67"/>
<text text-anchor="middle" x="1233.5" y="-385" font-family="Times,serif" font-size="10.00">2</text>
</g>
<!-- 35 -->
<g id="node37" class="node">
<title>35</title>
<ellipse fill="none" stroke="black" cx="1282" cy="-346" rx="55.79" ry="18"/>
<text text-anchor="middle" x="1282" y="-342.3" font-family="Times,serif" font-size="14.00">V1639 (a)</text>
</g>
<!-- 34&#45;&gt;35 -->
<g id="edge35" class="edge">
<title>34&#45;&gt;35</title>
<path fill="none" stroke="black" stroke-dasharray="5,2" d="M1282,-410.82C1282,-400.19 1282,-386.31 1282,-374.2"/>
<polygon fill="black" stroke="black" points="1285.5,-374.15 1282,-364.15 1278.5,-374.15 1285.5,-374.15"/>
<text text-anchor="middle" x="1285.5" y="-385" font-family="Times,serif" font-size="10.00">3</text>
</g>
<!-- 39 -->
<g id="node41" class="node">
<title>39</title>
<ellipse fill="none" stroke="black" cx="1400" cy="-346" rx="44.39" ry="18"/>
<text text-anchor="middle" x="1400" y="-342.3" font-family="Times,serif" font-size="14.00">P01 (a)</text>
</g>
<!-- 34&#45;&gt;39 -->
<g id="edge39" class="edge">
<title>34&#45;&gt;39</title>
<path fill="none" stroke="black" stroke-dasharray="1,5" d="M1304.19,-412.76C1322.77,-400.01 1349.45,-381.7 1369.94,-367.63"/>
<polygon fill="black" stroke="black" points="1372.04,-370.44 1378.3,-361.89 1368.08,-364.67 1372.04,-370.44"/>
<text text-anchor="middle" x="1351.5" y="-385" font-family="Times,serif" font-size="10.00">2</text>
</g>
<!-- 38&#45;&gt;20 -->
<g id="edge20" class="edge">
<title>38&#45;&gt;20</title>
<path fill="none" stroke="gray" stroke-dasharray="5,2" d="M1489.06,-496.71C1515.61,-483.18 1555.57,-462.83 1584.36,-448.16"/>
<polygon fill="gray" stroke="gray" points="1585.96,-451.27 1593.28,-443.61 1582.78,-445.03 1585.96,-451.27"/>
</g>
<!-- 38&#45;&gt;28 -->
<g id="edge28" class="edge">
<title>38&#45;&gt;28</title>
<path fill="none" stroke="black" stroke-dasharray="5,2" d="M1499.65,-499.74C1549.09,-485.33 1634.8,-460.36 1689.11,-444.54"/>
<polygon fill="black" stroke="black" points="1690.25,-447.85 1698.87,-441.69 1688.29,-441.13 1690.25,-447.85"/>
<text text-anchor="middle" x="1619.5" y="-468" font-family="Times,serif" font-size="10.00">2</text>
</g>
<!-- 39&#45;&gt;15 -->
<g id="edge15" class="edge">
<title>39&#45;&gt;15</title>
<path fill="none" stroke="black" stroke-dasharray="1,5" d="M1400,-327.82C1400,-317.19 1400,-303.31 1400,-291.2"/>
<polygon fill="black" stroke="black" points="1403.5,-291.15 1400,-281.15 1396.5,-291.15 1403.5,-291.15"/>
<text text-anchor="middle" x="1403.5" y="-302" font-family="Times,serif" font-size="10.00">2</text>
</g>
<!-- 42&#45;&gt;17 -->
<g id="edge17" class="edge">
<title>42&#45;&gt;17</title>
<path fill="none" stroke="black" stroke-dasharray="1,5" d="M441.8,-411.33C438.65,-405.55 435.13,-399.01 432,-393 428.67,-386.62 425.16,-379.69 421.91,-373.2"/>
<polygon fill="black" stroke="black" points="424.97,-371.5 417.38,-364.11 418.71,-374.62 424.97,-371.5"/>
</g>
<!-- 42&#45;&gt;23 -->
<g id="edge23" class="edge">
<title>42&#45;&gt;23</title>
<path fill="none" stroke="black" d="M470.47,-412.38C485.75,-400.14 507.2,-382.93 524.26,-369.25"/>
<polygon fill="black" stroke="black" points="526.63,-371.83 532.24,-362.85 522.25,-366.37 526.63,-371.83"/>
<text text-anchor="middle" x="510.5" y="-385" font-family="Times,serif" font-size="10.00">2</text>
</g>
</g>
</svg>
